<?xml version="1.0" encoding="UTF-8"?>
<svg xmlns="http://www.w3.org/2000/svg" viewBox="0 0 32 32">
  <path d="m21.38,0h-10.75C4.76,0,0,4.76,0,10.62v10.75c0,5.87,4.76,10.62,10.62,10.62h10.75c5.87,0,10.62-4.76,10.62-10.62v-10.75c0-5.87-4.76-10.62-10.62-10.62Zm-6.2,6.93h.01c.09,0,.18,0,.26,0h-.53c.08,0,.17,0,.25,0Zm8.39,3.73h-3.08c-.65,0-1.02.34-1.05.47l-.56,2.55h3c1.28,0,2.31,1.04,2.31,2.31s-1.04,2.31-2.31,2.31h-4.02l-.78,3.55c-.27,1.22-1.02,2.3-2.1,3.05-.98.68-2.22,1.06-3.47,1.06h-3.08c-1.28,0-2.31-1.04-2.31-2.31s1.04-2.31,2.31-2.31h3.08c.65,0,1.02-.34,1.05-.47l.56-2.55h-3c-1.28,0-2.31-1.04-2.31-2.31s1.04-2.31,2.31-2.31h4.02l.78-3.55c.27-1.22,1.02-2.3,2.1-3.05.99-.68,2.22-1.06,3.47-1.06h3.08c1.28,0,2.31,1.04,2.31,2.31s-1.04,2.31-2.31,2.31Z"/>
</svg>