<?xml version="1.0" encoding="UTF-8"?><svg id="a" xmlns="http://www.w3.org/2000/svg" viewBox="0 0 503.46 503.46"><defs><style>.b{opacity:1;fill:#fff}</style></defs><path class="b" d="m315.88,91.96h100.07C462.1,51.41,433.97,0,393.85,0h-78.05c-29.13.05-57.76,8.79-80.63,24.61-24.84,17.18-41.89,41.83-48.02,69.51l-21.88,99.89h-58.1c-25.89,0-47.33,21.03-46.81,46.91s20.89,45.04,45.97,45.04h38.79l-17.55,80.11c-2.33,10.53-17.91,21.92-38.92,21.96h-.73c-25.89,0-47.33,21.03-46.82,46.91.5,24.96,20.89,45.05,45.97,45.05h12.83c0-.15.03-.3.04-.46,25.18-1.97,49.48-10.38,69.4-24.16,24.84-17.18,41.88-41.83,48.02-69.51l21.88-99.9h149.72s0,0,0,0c46.15-40.55,18.03-91.96-22.1-91.96h-107.47l17.55-80.1c2.34-10.53,17.91-21.92,38.93-21.96Z"/><path d="m338.42,115.42h100.07c46.15-40.55,18.03-91.96-22.1-91.96h-78.05c-29.13.05-57.76,8.79-80.63,24.61-24.84,17.18-41.89,41.83-48.02,69.51l-21.88,99.89h-58.1c-25.89,0-47.33,21.03-46.81,46.91s20.89,45.04,45.97,45.04h38.79l-17.55,80.11c-2.33,10.53-17.91,21.92-38.92,21.96h-.73c-25.89,0-47.33,21.03-46.82,46.91.5,24.96,20.89,45.05,45.97,45.05h12.83c0-.15.03-.3.04-.46,25.18-1.97,49.48-10.38,69.4-24.16,24.84-17.18,41.88-41.83,48.02-69.51l21.88-99.9h149.72s0,0,0,0c46.15-40.55,18.03-91.96-22.1-91.96h-107.47l17.55-80.1c2.34-10.53,17.91-21.92,38.93-21.96Z"/></svg>