<?xml version="1.0" encoding="UTF-8"?><svg id="a" xmlns="http://www.w3.org/2000/svg" viewBox="0 0 500 500"><path d="m328.56,95.79h104.24C480.87,53.55,451.58,0,409.78,0h-81.3c-30.34.06-60.17,9.16-83.99,25.64-25.88,17.9-43.63,43.57-50.02,72.41l-22.8,104.06h-60.52c-26.97,0-49.3,21.9-48.77,48.87s21.76,46.92,47.89,46.92h40.41l-18.28,83.44c-2.43,10.97-18.66,22.83-40.54,22.87h-.76c-26.97,0-49.3,21.9-48.77,48.87.52,26,21.76,46.92,47.89,46.92h13.37c0-.16.03-.32.04-.47,26.23-2.06,51.54-10.81,72.29-25.17,25.87-17.9,43.63-43.58,50.02-72.41l22.8-104.06h155.96s0,0,0,0c48.08-42.24,18.78-95.79-23.02-95.79h-111.95l18.28-83.44c2.43-10.97,18.66-22.83,40.55-22.87Z"/></svg>