<?xml version="1.0" encoding="UTF-8"?><svg id="a" xmlns="http://www.w3.org/2000/svg" viewBox="0 0 1024 1024"><defs><style>.b{stroke-width:0px;}</style></defs><polygon class="b" points="684.05 0 684.06 0 684.37 0 684.05 0"/><path class="b" d="m684.06,0h-343.79C152.37,0,0,152.37,0,339.95v344.11c0,187.9,152.37,339.95,339.95,339.95h344.11c187.9,0,339.95-152.37,339.95-339.95v-344.11C1024,152.05,871.64,0,684.06,0Zm-253.27,725.06c0,42.41-34.38,76.79-76.79,76.79h0c-42.41,0-76.79-34.38-76.79-76.79h0c0-42.42,34.38-76.8,76.79-76.8h0c42.41,0,76.79,34.38,76.79,76.79h0Zm153.45-225.36c0,51-41.34,92.33-92.33,92.33h-183.93c-17,0-30.78-13.78-30.78-30.78v-30.48c0-51,41.34-92.33,92.33-92.33h183.94,0c17,0,30.78,13.78,30.78,30.78v30.48Zm212.95-123.96H277.2v-153.59h519.99v153.59Z"/></svg>