<?xml version="1.0" encoding="UTF-8"?>
<svg id="Camada_1" data-name="Camada 1" xmlns="http://www.w3.org/2000/svg" viewBox="0 0 280 280">
  <path d="m183.99,53.64h45.48c14.81,0,26.82-12.01,26.82-26.82S244.29,0,229.47,0h-45.53c-16.99.03-33.7,5.13-47.03,14.36-14.49,10.02-24.43,24.4-28.01,40.55l-12.77,58.27h-34.38c-14.81,0-26.82,12.01-26.82,26.82s12.01,26.82,26.82,26.82h22.63l-10.24,46.73c-1.36,6.14-10.45,12.79-22.7,12.81h-.92c-14.81,0-26.82,12.01-26.82,26.82s12.01,26.82,26.82,26.82h7.49c0-.09.02-.18.02-.27,14.69-1.15,28.86-6.05,40.48-14.09,14.49-10.02,24.43-24.4,28.01-40.55l12.77-58.27h74.44c14.81,0,26.82-12.01,26.82-26.82s-12.01-26.82-26.82-26.82h-62.69l10.24-46.73c1.36-6.14,10.45-12.79,22.71-12.81Z"/>
</svg>