<svg xmlns="http://www.w3.org/2000/svg" xmlns:xlink="http://www.w3.org/1999/xlink" viewBox="0 0 512 512"><defs><style>.cls-1{fill:url(#G);}.cls-2{fill:#fff;}</style><linearGradient id="G" x1="-936.45" y1="43.98" x2="-524.02" y2="-368.45" gradientTransform="matrix(0, -1, -1, 0, 93.77, -474.23)" gradientUnits="userSpaceOnUse"><stop offset="0.1" stop-color="#ffe15a"/><stop offset="0.35" stop-color="#ff346c"/><stop offset="0.65" stop-color="#00a2ec"/><stop offset="0.9" stop-color="#00d05b"/></linearGradient></defs><rect class="cls-1" width="512" height="512" rx="169.99"/><path class="cls-2" d="M392.82,353.67l-39.05-39.16A130.85,130.85,0,0,0,374.93,243v-.34A132,132,0,0,0,243,110.91h-.22C170,111,110.9,170.27,111,243s59.31,131.73,132,131.73h.19a131.66,131.66,0,0,0,71.54-21.17l39.16,39.15a27,27,0,0,0,19.51,8.19,27.38,27.38,0,0,0,19.47-8.15l.35-.34a27.43,27.43,0,0,0-.37-38.73ZM319.34,242.85a76,76,0,0,1-22.81,54v0a77.19,77.19,0,0,1-54,22.23h-.3a76.62,76.62,0,0,1-76.43-76.92c.2-42.14,34.57-76.43,76.62-76.43h.32a76.76,76.76,0,0,1,54.59,22.85A76,76,0,0,1,319.34,242.85Z"/></svg>