<?xml version="1.0" encoding="UTF-8"?><svg id="a" xmlns="http://www.w3.org/2000/svg" xmlns:xlink="http://www.w3.org/1999/xlink" viewBox="0 0 1024 1024"><defs><style>.g{fill:#fff;filter:url(#e);stroke:#fff;stroke-miterlimit:10;stroke-width:12px;}.h{fill:url(#b);filter:url(#c);}</style><linearGradient id="b" x1="-804.26" y1="424.26" x2="-143.74" y2="-236.26" gradientTransform="translate(606 38) rotate(-90) scale(1 -1)" gradientUnits="userSpaceOnUse"><stop offset=".1" stop-color="#ffe15a"/><stop offset=".35" stop-color="#ff346c"/><stop offset=".65" stop-color="#00a2ec"/><stop offset=".9" stop-color="#00d05b"/></linearGradient><filter id="c" filterUnits="userSpaceOnUse"><feOffset dx="4" dy="4"/><feGaussianBlur result="d" stdDeviation="5"/><feFlood flood-color="#000" flood-opacity=".48"/><feComposite in2="d" operator="in"/><feComposite in="SourceGraphic"/></filter><filter id="e" filterUnits="userSpaceOnUse"><feOffset dx="4" dy="4"/><feGaussianBlur result="f" stdDeviation="5"/><feFlood flood-color="#000" flood-opacity=".28"/><feComposite in2="f" operator="in"/><feComposite in="SourceGraphic"/></filter></defs><rect class="h" x="102" y="102" width="820" height="820" rx="272.25" ry="272.25"/><path class="g" d="m587.49,363.81h78.04c25.42,0,46.02-20.61,46.02-46.02s-20.61-46.02-46.02-46.02h-78.13c-29.16.05-57.82,8.8-80.71,24.64-24.86,17.2-41.93,41.87-48.07,69.58l-21.91,99.99h-59c-25.42,0-46.02,20.61-46.02,46.02s20.61,46.02,46.02,46.02h38.83l-17.57,80.18c-2.34,10.54-17.93,21.94-38.95,21.98h-1.58c-25.42,0-46.02,20.61-46.02,46.02s20.61,46.02,46.02,46.02h12.85c0-.15.03-.3.04-.46,25.21-1.98,49.53-10.39,69.47-24.18,24.86-17.2,41.92-41.87,48.06-69.58l21.91-99.99h127.74c25.42,0,46.02-20.61,46.02-46.02s-20.61-46.02-46.02-46.02h-107.58l17.57-80.18c2.34-10.54,17.93-21.94,38.97-21.98Z"/></svg>