<?xml version="1.0" encoding="UTF-8"?><svg id="a" xmlns="http://www.w3.org/2000/svg" xmlns:xlink="http://www.w3.org/1999/xlink" viewBox="0 0 512 512"><defs><style>.c{fill:url(#b);}.d{fill:#fff;}</style><linearGradient id="b" x1="-986" y1="94" x2="-474" y2="-418" gradientTransform="translate(94 -474) rotate(-90) scale(1 -1)" gradientUnits="userSpaceOnUse"><stop offset=".18" stop-color="#ffe15a"/><stop offset=".4" stop-color="#ff346c"/><stop offset=".6" stop-color="#00a2ec"/><stop offset=".82" stop-color="#00d05b"/></linearGradient></defs><polygon class="c" points="512 0 512 512 0 512 0 0 512 0"/><path class="d" d="m299.21,174.18h44.23c16.15,0,29.51-12.94,29.77-28.84.13-7.94-2.86-15.42-8.42-21.07-5.56-5.65-12.99-8.77-20.92-8.77h-44.72c-17.29.03-34.3,5.23-47.89,14.63-14.86,10.28-25.06,25.07-28.74,41.65l-12.02,54.87h-30.92c-16.15,0-29.51,12.94-29.77,28.84-.13,7.94,2.86,15.42,8.42,21.07,5.56,5.66,12.99,8.77,20.92,8.77h18.5l-9.25,42.24c-.95,4.27-8.21,10.21-19.37,10.23h-.47c-16.15,0-29.51,12.94-29.77,28.84-.13,7.94,2.86,15.42,8.42,21.07,5.56,5.66,12.99,8.77,20.92,8.77h10.26l.02-.52c14.11-1.53,27.4-6.39,38.57-14.12,14.85-10.28,25.06-25.07,28.73-41.65l12.02-54.87h84.49l.85-.75c12.94-11.37,17.73-25.92,12.82-38.94-4.28-11.36-15.32-19-27.47-19h-57.84l9.25-42.24c.95-4.28,8.21-10.21,19.38-10.23Z"/></svg>