<?xml version="1.0" encoding="utf-8"?>
<svg version="1.1" id="ae72d77f-f397-4021-826a-c0dbbd2dad22"
	 xmlns="http://www.w3.org/2000/svg" xmlns:xlink="http://www.w3.org/1999/xlink" x="0px" y="0px" viewBox="0 0 808.5 567"
	 style="enable-background:new 0 0 808.5 567;" xml:space="preserve">
<style type="text/css">
	.st0{fill:#F2F2F2;}
	.st1{fill:#FFFFFF;}
	.st2{fill:#3F3D56;}
	.st3{fill:#FFB8B8;}
	.st4{fill:#2F2E41;}
	.st5{fill:#6C63FF;}
</style>
<path class="st0" d="M469.1,554.4c-6,4.3-12.5,7.9-19.4,10.6c-1.8,0.7-3.6,1.4-5.5,2h-93.9c-0.4-0.7-0.8-1.3-1.1-2
	c-7.6-13.6-14.5-27.8-16.5-43.2c-2.4-18.5,4.2-39.5,20.5-48.5c2.1-1.2,4.4-2.1,6.7-2.8c1-0.3,2-0.5,3-0.8c19-4.2,37.8,7.8,42,26.7
	c1.4,6.3,1,12.9-1.1,19c13.8-14.2,11.2-37.1,6.5-56.3c-4.8-19.2-10.5-40.5-0.8-57.8c5.4-9.6,14.9-15.5,25.5-17.9
	c0.3-0.1,0.7-0.1,1-0.2c12.7-2.6,25.9-0.3,36.9,6.5c20.4,12.8,30.8,37.2,34.2,61C512.6,489,500.5,531.8,469.1,554.4z"/>
<path class="st1" d="M370.3,481.9c7.5,15.3,9.9,32.6,6.8,49.3c-2.3,12.3-7.4,23.8-15,33.8c-0.5,0.7-1,1.3-1.6,2h-3.7
	c0.6-0.7,1.1-1.3,1.7-2c13.8-17.2,19.6-39.5,15.9-61.2c-2.2-12.1-7.1-23.5-14.5-33.3c1-0.3,2-0.5,3-0.8
	C365.8,473.5,368.2,477.6,370.3,481.9z"/>
<path class="st1" d="M460.2,493c-0.8,8.5-2.8,16.8-6,24.6c-2.9,7-6.9,13.4-11.8,19.2c-9.9,12-23.1,20.9-37.3,26.9
	c-1,0.4-2.1,0.9-3.1,1.3c-1.8,0.7-3.7,1.4-5.6,2h-10.1c2.4-0.6,4.8-1.3,7.1-2c5.6-1.7,11-3.9,16.3-6.4c13.4-6.4,25-15.9,33.9-27.8
	c9.5-13.1,13.7-28.8,14.4-44.9c0.8-17.1-1.5-34.6-5.4-51.2c-4-17.1-10.1-33.6-18.1-49.2c-0.4-0.7-0.1-1.6,0.6-2
	c0.3-0.2,0.6-0.3,1-0.2c0.3,0.1,0.6,0.3,0.8,0.6c1,1.9,2,3.9,2.9,5.8c7.8,16.3,13.5,33.4,17,51.1C460.1,457.8,462,475.6,460.2,493z"
	/>
<path class="st2" d="M42.5,283c-23.2,0-42-18.8-42-42s18.8-42,42-42s42,18.8,42,42C84.4,264.2,65.7,283,42.5,283z M42.5,201
	c-22.1,0-40,17.9-40,40s17.9,40,40,40s40-17.9,40-40C82.4,218.9,64.6,201,42.5,201z"/>
<path class="st2" d="M212.5,148c-23.2,0-42-18.8-42-42s18.8-42,42-42s42,18.8,42,42C254.4,129.2,235.7,148,212.5,148z M212.5,66
	c-22.1,0-40,17.9-40,40s17.9,40,40,40s40-17.9,40-40C252.4,83.9,234.6,66,212.5,66z"/>
<path class="st2" d="M394.5,84c-23.2,0-42-18.8-42-42s18.8-42,42-42s42,18.8,42,42C436.4,65.2,417.7,84,394.5,84z M394.5,2
	c-22.1,0-40,17.9-40,40s17.9,40,40,40s40-17.9,40-40C434.4,19.9,416.6,2,394.5,2z"/>
<path class="st2" d="M588.5,150c-23.2,0-42-18.8-42-42s18.8-42,42-42s42,18.8,42,42C630.4,131.2,611.7,150,588.5,150z M588.5,68
	c-22.1,0-40,17.9-40,40s17.9,40,40,40s40-17.9,40-40C628.4,85.9,610.6,68,588.5,68z"/>
<path class="st2" d="M766.5,251c-23.2,0-42-18.8-42-42s18.8-42,42-42s42,18.8,42,42C808.4,232.2,789.7,251,766.5,251z M766.5,169
	c-22.1,0-40,17.9-40,40s17.9,40,40,40s40-17.9,40-40C806.4,186.9,788.6,169,766.5,169z"/>
<polygon class="st3" points="555.8,539.6 566.8,545 592.9,505.1 576.6,497.2 "/>
<path class="st4" d="M554.8,534.7l21.7,10.6l0,0c7.6,3.7,10.8,13,7,20.6c0,0,0,0,0,0l-0.2,0.4l-35.5-17.4L554.8,534.7z"/>
<polygon class="st3" points="664.9,558.4 677.2,558.4 683,511.2 664.9,511.2 "/>
<path class="st4" d="M661.8,550.4l24.1,0h0c8.5,0,15.4,6.9,15.4,15.4c0,0,0,0,0,0v0.5l-39.5,0L661.8,550.4z"/>
<circle class="st3" cx="638.6" cy="207.5" r="24.6"/>
<path class="st4" d="M663,542.8c-2.4,0-4.4-1.9-4.5-4.3L649,412.2c0-0.8-0.7-1.5-1.5-1.4c-0.5,0-1,0.3-1.3,0.8l-60.7,115.9
	c-1.1,2.2-3.8,3-6,1.9l-16.9-8.5c-2.2-1.1-3.1-3.8-2-6l36.2-73.4l24-55c9.3-18.2,19.1-27.7,30.1-28.8c11.3-1.1,23.3,6.6,36.8,23.7
	l0.1,0.1l0,0.2l-2,154.4c0,2.3-1.8,4.3-4.1,4.5l-18.2,2.3C663.3,542.8,663.2,542.8,663,542.8z"/>
<path class="st3" d="M612.6,395.4c5-3.1,6.6-9.7,3.5-14.8c-0.3-0.5-0.7-1-1.1-1.5l3.7-97.9l-18,2.2l-1.5,95.2
	c-4.2,4.3-4.1,11.1,0.2,15.3C602.9,397.4,608.4,398,612.6,395.4L612.6,395.4z"/>
<path class="st5" d="M624,298.5l-24.2-2.7c-2.6-0.3-4.5-2.7-4.2-5.3c0-0.2,0.1-0.5,0.1-0.7l6.2-23.4c0.9-7.3,7.5-12.6,14.9-11.7
	c7.3,0.9,12.5,7.5,11.7,14.8l0.8,24.2c0.1,2.7-2,4.9-4.7,5C624.5,298.6,624.3,298.5,624,298.5L624,298.5z"/>
<path class="st3" d="M728.1,236.9c-0.1,0.5-0.2,1.1-0.2,1.6l-43,24.8l-10.4-6l-11.1,14.6l17.5,12.4c2.9,2.1,6.8,2,9.6-0.2l44.3-34.9
	c5.4,2,11.5-0.8,13.5-6.2c2-5.4-0.8-11.5-6.2-13.5c-5.4-2-11.5,0.8-13.5,6.2C728.4,236.1,728.2,236.5,728.1,236.9L728.1,236.9z"/>
<path class="st5" d="M683.5,264.5l-13.9,18c-1.5,2-4.3,2.3-6.3,0.8c-0.2-0.1-0.3-0.3-0.5-0.4l-15.7-16.3c-5.4-4.2-6.4-12.1-2.2-17.5
	c4.2-5.4,12.1-6.4,17.5-2.2l19.7,11c2.2,1.2,2.9,4,1.7,6.1C683.8,264.2,683.7,264.3,683.5,264.5L683.5,264.5z"/>
<path class="st5" d="M694.8,389.1l-26.7-129.8c-2.6-12.8-14.9-21.3-27.9-19.1l-8.9,1.5c-6.2,1-11.8,4.5-15.5,9.7l0,0
	c-5.9,8.2-7.7,18.6-5,28.3l14.7,52.7l-10.9,56.4c-0.4,2.2,1,4.3,3.2,4.7c0.4,0.1,0.9,0.1,1.3,0c5.5-0.8,14.5-1.9,24.8-2.5l5.6-21.6
	l2.3,21.3c12.7-0.4,26.5,0.3,37.9,3.2c2.1,0.6,4.3-0.7,4.9-2.8C694.9,390.3,695,389.7,694.8,389.1z"/>
<path class="st4" d="M648,202.1c6.3,4.3,14.6,8.8,21,4.2c4.2-3,5.6-8.6,3.9-13.5c-3.1-8.8-11.6-12.7-19.7-15.7
	c-10.5-3.9-22-7-32.9-4.2s-20.5,13.3-18.5,24.4c1.6,8.9,10,16.3,8.8,25.2c-1.2,9-11.3,13.8-20.3,15.4s-19,2.1-25.4,8.6
	c-8.2,8.2-6.2,22.9,1.6,31.5s19.4,12.6,30.7,15.2c15,3.5,31.1,5.4,45.3-0.5s25.3-21.7,21.1-36.5c-1.7-6.3-5.8-11.5-9.8-16.7
	s-8-10.5-9.5-16.8c-1.3-5.3-0.3-11.4,3.2-15.3c1.3-1.4,1.5-3.5,0.6-5.2L648,202.1z"/>
<polygon class="st3" points="163.2,553.7 151.2,550.9 156.4,503.6 174,507.7 "/>
<path class="st4" d="M163.5,566L125,557l0.1-0.5c1.9-8.3,10.2-13.4,18.5-11.4c0,0,0,0,0,0l0,0l23.5,5.5L163.5,566z"/>
<polygon class="st3" points="209.7,554.1 197.4,554.1 191.6,506.8 209.7,506.8 "/>
<path class="st4" d="M212.8,566l-39.5,0v-0.5c0-8.5,6.9-15.4,15.4-15.4c0,0,0,0,0,0h0l24.1,0L212.8,566z"/>
<path class="st3" d="M275.9,367.1c3.1-5.1,1.5-11.7-3.5-14.8c-0.5-0.3-1.1-0.6-1.7-0.8l-35.9-91l-20,12.1l41.6,85.7
	c-1.8,5.7,1.3,11.8,7,13.6C268.1,373.3,273.3,371.4,275.9,367.1L275.9,367.1z"/>
<path class="st5" d="M242.4,275.5l-22.8,8.4c-2.5,0.9-5.3-0.4-6.2-2.8c-0.1-0.2-0.1-0.4-0.2-0.7l-5-23.7c-2.5-6.9,1.1-14.6,8-17.1
	c6.9-2.5,14.6,1,17.1,7.9l11.6,21.2c1.3,2.3,0.4,5.3-1.9,6.5C242.8,275.3,242.6,275.4,242.4,275.5L242.4,275.5z"/>
<path class="st4" d="M208.9,537.2c-0.1,0-0.1,0-0.2,0l-17.4-0.7c-2.4-0.1-4.4-2.1-4.3-4.6l1.3-96c0-0.8-0.6-1.5-1.5-1.5
	c-0.8,0-1.4,0.6-1.5,1.3l-10.1,96.1c-0.2,2-1.7,3.6-3.7,4l-0.1,0l-16.3-1.3c-2.5,0.4-4.8-1.3-5.1-3.8c0-0.2-0.1-0.5-0.1-0.7l1-162.8
	l80.1,5.1l-17.6,160.8C213.1,535.4,211.1,537.1,208.9,537.2z"/>
<circle class="st3" cx="194.2" cy="200.6" r="24.6"/>
<path class="st5" d="M227,379.5c-0.1,0-0.2,0-0.3,0l-74-5.4c-2.4-0.2-4.2-2.2-4.2-4.6l2-92.9c-0.5-23.1,17.8-42.3,40.9-42.9
	c23.1-0.5,42.3,17.8,42.9,40.9c0,1.6,0,3.1-0.2,4.7c-1.3,14.3-2.3,76.9-2.6,95.7C231.4,377.5,229.5,379.5,227,379.5z"/>
<path class="st3" d="M95.2,228.2c0.1,0.5,0.2,1.1,0.2,1.6l43,24.8l10.4-6l11.1,14.6l-17.5,12.4c-2.9,2.1-6.8,2-9.6-0.2l-44.3-34.9
	c-5.4,2-11.5-0.8-13.5-6.2s0.8-11.5,6.2-13.5c5.4-2,11.5,0.8,13.5,6.2C94.9,227.4,95.1,227.8,95.2,228.2L95.2,228.2z"/>
<path class="st5" d="M138.9,252.1c0.3-1.3,1.1-2.4,2.2-3l19.7-11c5.5-4.2,13.3-3.2,17.5,2.3c4.2,5.4,3.2,13.2-2.2,17.5l-15.7,16.3
	c-1.7,1.8-4.6,1.8-6.4,0.1c-0.2-0.2-0.3-0.3-0.4-0.5l-13.9-18C139,254.8,138.7,253.4,138.9,252.1z"/>
<path class="st4" d="M206.9,220.1c-7.7-0.1-14.8-4.1-18.8-10.6c-0.2-0.3-1.4-2.1-2.8-4.1c-3.8-5.6-4.7-7-4.8-7.2
	c-1-2.7-4.3-3.7-6.9-4.1c-0.5-0.1-1-0.1-1.5-0.2c-3.6-0.5-7.4-1-9.5-5c-1.5-2.9-4-14.9-2.1-17.8c2.4-3.7,7-2.5,11.4-1.3
	c2.8,0.7,5.8,1.5,8.1,1c10.1-2.1,21.6-4.5,31.7,1.7c8.1,4.9,12.9,14.2,12.7,24.2c-0.3,10.8-5,19.3-12.6,22.7l-1.6,0.5l-0.9,0.1
	C208.6,220,207.7,220.1,206.9,220.1z"/>
<path class="st2" d="M808,566c0,0.6-0.4,1-1,1H1c-0.6,0-1-0.4-1-1s0.4-1,1-1h806C807.6,565,808,565.4,808,566z"/>
<path d="M417.5,37.5c0.3,1.6,0.5,3.3,0.5,5c0,13.7-9.2,23.5-23,23.5c-13.3,0-24-10.7-24-24s10.7-24,24-24c5.9-0.1,11.7,2.2,16,6.3
	l-6.8,6.8l0,0c-2.5-2.4-5.8-3.7-9.3-3.6c-8.1,0-14.6,6.5-14.6,14.6s6.5,14.6,14.6,14.6c7.2,0,12.1-4.1,13.1-9.8h-13.1v-9.4H417.5z"
	/>
<g>
	<path d="M790.5,207.5v0.7c0,0.2,0,0.5-0.1,0.8c-0.1,0.9-0.1,1.8-0.3,2.7c-1.3,8.1-6.7,15-14.3,18.2c-1.2,0.5-2.4,0.9-3.6,1.3
		l-1.8-3.4l0.5,0.2c1.3,0.4,2.6,0.8,4,1.2c0.7,0.2,0.9,0,1-0.6c0.1-1,0.2-2,0.2-3.1c-0.1-1.1-0.2-2.2-0.5-3.3
		c-0.1-0.6-0.4-0.7-1-0.5c-0.6,0.3-1.2,0.6-1.8,0.9c-0.9,0.5-1.8,1.2-2.7,1.8c0-0.6-0.5-0.6-0.9-0.6c-0.1,0-0.3,0-0.5,0
		c-0.3,0.1-0.4-0.1-0.5-0.3c-0.4-1.1-0.8-2.2-1.1-3.3c-0.5-1.7-0.7-3.4-0.6-5.1c0-0.3,0.1-0.5,0.1-0.8c1.7,0.8,3.4,1.3,5.2,1.8
		c1.8,0.6,3.7,0.7,5.6,0.4c1.6-0.2,3.1-0.8,4.4-1.6c0.3-0.2,0.5-0.4,0.7-0.7c0.2-0.3,0.2-0.7-0.1-0.9c-0.1-0.1-0.3-0.2-0.5-0.2
		c-0.3,0-0.5,0-0.8,0c-1.2,0.2-2.3,0.5-3.5,0.7c-1.8,0.4-3.7,0.5-5.6,0.3c-0.8-0.1-1.6-0.4-2.2-0.8c-0.7-0.4-0.9-1.3-0.4-2
		c0.3-0.5,0.9-0.7,1.4-0.6c0.2,0,0.4,0,0.6,0.1c1.5,0.3,3,0.2,4.4-0.3c0.8-0.3,1.6-0.5,2.4-0.8c1.8-0.7,3.5-1.4,5.2-2.2
		c0.4-0.2,0.8-0.4,1.1-0.8c0.3-0.2,0.4-0.6,0.2-1c-0.1-0.1-0.2-0.2-0.4-0.3c-1-0.5-2.3-0.7-3.4-0.4c-1.7,0.5-3.3,1-4.9,1.5
		c-0.6,0.2-1.2,0.3-1.8,0.4c0-0.1,0-0.2,0-0.3c0.1-0.9,0.1-1.8,0.1-2.7c-0.3-2.7-1.3-5.3-2.8-7.5c-1-1.9-2.9-3.2-5-3.6
		c-0.2,0-0.3-0.1-0.4-0.2c-0.4-0.4-0.7-0.8-1.2-1.1c-2.1-1.6-4.7-2.5-7.3-2.5c-0.9,0-1.8,0.1-2.8,0.1v0.2l1.7,1.1l-0.5,0.1l-1.2,0.3
		c-0.5,0.1-0.6,0.4-0.5,0.9c2.2-0.2,4.4,0.1,6.4,0.9c-0.1,0.1-0.2,0.1-0.4,0.1c-1.5,0.2-2.9,0.7-4.2,1.4c-0.9,0.5-1.6,1.2-2.1,2.2
		c-0.5,0.9-0.8,1.9-0.8,3c0,1-0.1,2.1,0,3.1c0.1,0.9,0.3,1.7,0.5,2.6c0.3,1.5,0.6,2.9,0.8,4.4c0.3,1.5,0.6,2.9,0.9,4.4
		c0.4,1.9,0.8,3.8,1.2,5.7c0.3,1.3,0.6,2.7,0.9,4.1c0.3,1.4,0.6,2.7,0.9,4.1c0.2,1,0.4,2.1,0.7,3.2l-1.5-0.5
		c-8.4-3.1-14.4-10.6-15.5-19.4c-0.1-0.8-0.2-1.6-0.2-2.3v-1.5c0-0.1,0-0.3,0.1-0.4c0.2-1.3,0.2-2.6,0.5-3.9
		c2.7-12.5,14.7-20.7,27.3-18.6c4.8,0.7,9.2,2.9,12.6,6.3c4.1,3.8,6.6,8.9,7.3,14.4C790.3,205.7,790.4,206.6,790.5,207.5z"/>
	<path d="M761.4,204c0,1-0.8,1.7-1.8,1.7s-1.7-0.8-1.7-1.8c0-1,0.8-1.7,1.8-1.7C760.7,202.2,761.4,203,761.4,204
		C761.4,204,761.4,204,761.4,204z"/>
	<path d="M773,202.9c0,0.8-0.6,1.5-1.5,1.5c0,0,0,0,0,0c-0.8-0.1-1.4-0.9-1.3-1.7c0.1-0.6,0.6-1.1,1.3-1.3
		C772.3,201.4,773,202.1,773,202.9z"/>
	<path d="M760,198.7c-1.5-0.5-3.1,0.2-3.7,1.6c-0.2-0.6,0-1.3,0.6-1.6C757.8,198,759.1,198,760,198.7z"/>
	<path d="M765.9,225.1c0,0.8,0,1.5,0,2.1c0,0.1,0,0.3,0,0.4c0.2,0.7,0.4,0.9,1.2,0.9c0.9,0.1,1.9,0,2.8-0.3v0.1
		c-0.2,0.1-0.3,0.2-0.5,0.3c-0.9,0.3-1.9,0.4-2.8,0.3c-0.5-0.1-0.9-0.5-0.9-1c0-0.7,0-1.5,0-2.2
		C765.7,225.5,765.8,225.3,765.9,225.1z"/>
	<path d="M768.9,198.7c0.2-0.6,0.8-1.1,1.5-1.1c0.8-0.1,1.6,0.4,2,1.1C771.3,198,770,198,768.9,198.7z"/>
</g>
<g>
	<path d="M612.5,85.7c-0.1,0.3-0.2,0.6-0.4,0.9l-3.1,7.4l-2.1,5c-0.7,1.8-1.4,3.5-2.2,5.3c-0.5,1.2-1,2.3-1.4,3.5
		c0,0.1-0.1,0.1-0.2,0.1H593c0,0,0-0.1,0-0.1c0.6-1.4,1.2-2.8,1.8-4.2l2.4-5.7c0.5-1.3,1.1-2.7,1.7-4c0.9-2.1,1.8-4.2,2.6-6.3
		l0.8-1.8L612.5,85.7z"/>
	<path d="M564.5,96.6h9.2c0.1,0,0.2,0.1,0.3,0.2l2.9,7.5l1.7,4.3l0.8,2.2l0.1,0.2l0.3-0.6l1.6-4l2.3-5.9l1.5-3.7
		c0-0.1,0.1-0.1,0.2-0.1h9c-0.1,0.3-0.2,0.5-0.3,0.7l-2.9,7l-2.8,6.7l-2.8,6.8c-0.9,2.1-1.8,4.2-2.6,6.3l-1.7,4.1
		c-0.3,0.7-0.6,1.3-0.8,2c0,0-0.1,0.1-0.1,0.1c0,0-0.1,0-0.1,0h-9c0.1-0.3,0.2-0.6,0.3-0.8c1.1-2.6,2.2-5.2,3.3-7.8
		c0.1-0.2,0.1-0.5,0-0.7c-0.8-1.9-1.6-3.8-2.4-5.6c-0.7-1.5-1.3-3.1-2-4.6l-2.3-5.5l-2-4.6C565.6,99.4,565.1,98,564.5,96.6
		C564.5,96.7,564.5,96.6,564.5,96.6z"/>
	<path d="M589.9,116c0-3.2,2.6-5.8,5.8-5.8c0.5,0,1,0.1,1.5,0.2c1.7,0.4,3.1,1.6,3.7,3.2c0.5,1.1,0.6,2.3,0.3,3.4
		c-0.3,1.8-1.5,3.3-3.1,4.1c-1,0.5-2.1,0.7-3.2,0.6c-1.3-0.1-2.5-0.7-3.4-1.6c-1-0.9-1.5-2.2-1.7-3.5c0-0.1,0-0.2,0-0.3L589.9,116z"
		/>
</g>
<path d="M66.3,262.9c-0.4-0.8-0.9-1.6-1.3-2.4l-2.6-5c-0.1-0.2-0.3-0.5-0.3-0.7c0,0-0.1-0.1,0-0.6c0,0,0.1-0.1,0.1-0.2
	c0,0.1-0.1,0.2-0.1,0.3v0.1c0.2-0.4,0.4-0.8,0.7-1.1c0.2-0.3,0.4-0.6,0.5-1l0.4-0.7c0.6-1.1,1-2.3,1.4-3.5c0.8-2.5,1.1-5.1,1-7.8
	c0-2.8-0.5-5.6-1.6-8.2c-1.8-4.7-5.2-8.6-9.4-11.1c-0.2-0.1-0.5-0.3-0.8-0.4l-0.1-0.1l0,0l-0.7-0.3c-0.3-0.1-0.6-0.2-0.9-0.3
	c0.3,0.1,0.5,0.2,0.8,0.3c-1.7-0.8-3.5-1.5-5.3-1.9c-1.1-0.3-2.2-0.5-3.3-0.6c-1.6-0.1-3.1-0.1-4.7,0c-2.7,0.2-5.4,0.9-7.9,2
	c-2.5,1.1-4.7,2.6-6.7,4.4c-2,1.9-3.6,4.1-4.8,6.6c-1.1,2.3-1.8,4.7-2.1,7.1c0,0.2,0,0.4,0,0.5l0,0l0,0l0,0c0,0.2,0,0.4,0,0.5
	c0,0.4,0.1,0.9,0.1,1.3c-0.1-0.6-0.2-1.2-0.2-1.9v0.1c-0.3,2.8-0.1,5.6,0.4,8.3c0.6,2.6,1.6,5.1,3.1,7.4c1,1.5,2.1,2.9,3.4,4.1
	c2.5,2.4,5.5,4.1,8.7,5.2c1.3,0.4,2.7,0.7,4.1,0.9c1.3,0.2,2.7,0.3,4,0.2c1.3,0,2.6-0.2,3.8-0.3c0.7-0.1,1.4-0.2,2.1-0.4
	c0.7-0.2,1.2-0.2,1.4-0.9c0.1-0.5,0-0.9-0.3-1.3c-0.3-0.5-0.5-1-0.8-1.6v-0.1c-0.5-1-1-2-1.5-3.1c-0.1-0.3-0.4-0.5-0.7-0.6h-0.1l0,0
	c-0.2,0-0.5,0-0.7,0.1c-0.4,0.1-0.7,0.1-1,0.2c-1.4,0.2-2.8,0.2-4.2,0c-8.5-1-14.5-8.7-13.5-17.2c0-0.1,0-0.1,0-0.2l0,0
	c0-0.1,0-0.2,0-0.4c0-0.1,0-0.1,0-0.2l0,0c0.4-2.4,1.4-4.6,2.8-6.6c0.7-1,1.6-1.9,2.6-2.7c3.2-2.7,7.3-4,11.4-3.6
	c2.2,0.2,4.3,0.9,6.3,1.9l0.2,0.1h0.1l0.4,0.2c1.9,1.2,3.6,2.8,4.8,4.8c2.8,4.3,3.2,9.7,1.2,14.5c-0.3,0.8-0.7,1.5-1.2,2.2
	c-0.8,1.2-1.7,2.3-2.8,3.3c-0.3,0.2-0.5,0.4-0.6,0.7c-0.1,0.3-0.1,0.5,0,0.8l4.4,8.8c0.2,0.5,0.4,1.1,0.9,1.4
	c0.3,0.1,0.7,0.2,1.1,0.1h6.8c0.6,0,1.1-0.5,1.1-1.1c0,0,0,0,0,0C66.5,263.2,66.4,263,66.3,262.9z"/>
<g transform="translate(153.53 290.07)">
	<path d="M77.6-178.8c0,0.5,0,1-0.1,1.4c-0.3,2.8-1.5,5.4-3.4,7.4c0.2-0.3,0.4-0.5,0.6-0.8c0.1-0.2,0.3-0.5,0.4-0.7
		c0-0.1,0.1-0.2,0.1-0.2c0-0.1,0.1-0.2,0.1-0.2c0-0.1,0.1-0.2,0.1-0.2c0-0.1,0-0.2,0.1-0.3c0,0,0,0,0,0c0-0.1,0-0.2,0.1-0.3
		c0-0.1,0-0.2,0-0.3v0c0-0.1,0-0.2,0-0.2c0-0.2,0-0.4,0-0.6c0-1.1-0.3-2.1-0.8-3c-0.1-0.2-0.3-0.4-0.4-0.6c-0.2-0.2-0.4-0.4-0.6-0.6
		c-0.5-0.5-1.1-0.9-1.7-1.2c-0.3-0.1-0.6-0.2-0.9-0.3c0,0,0,0,0,0l-0.1,0l-1.5-0.5v0l-4-1.4c0,0,0,0,0,0l-0.2-0.1
		c-0.8-0.3-1.5-0.9-1.9-1.6l-1.4-3.7l-1.7-4.2l-0.3-0.8l-0.1-0.2c-0.1-0.2-0.1-0.5-0.1-0.7c0-0.1,0-0.1,0-0.2
		c0.1-0.9,0.9-1.7,1.8-1.7c0.3,0,0.5,0.1,0.7,0.1l7.4,3.8l1.5,0.7c0.8,0.5,1.5,1,2.1,1.6c2.4,2.2,3.9,5.2,4.2,8.6
		C77.6-179.4,77.6-179.1,77.6-178.8L77.6-178.8z"/>
	<path d="M75.6-173.9c0,0.4,0,0.7-0.1,1.1c0,0.1,0,0.2-0.1,0.3c0,0.2-0.1,0.3-0.1,0.5c0,0.1-0.1,0.2-0.1,0.2c0,0.1-0.1,0.2-0.1,0.2
		c-0.1,0.2-0.2,0.5-0.4,0.7c-0.2,0.3-0.4,0.6-0.6,0.8c-1.1,1.2-4.7,3.3-6.1,4.2l-3,1.8c-2.2,1.3-4.3,2.3-6.9,2.4c-0.1,0-0.2,0-0.4,0
		c-0.2,0-0.3,0-0.5,0c-4.4-0.2-8.3-2.5-10.5-6c-1-1.6-1.7-3.4-1.9-5.4c0.5,2.7,2.8,4.7,5.7,4.7c1,0,1.9-0.2,2.7-0.7c0,0,0,0,0,0
		l0.3-0.2l1.2-0.7l1.5-0.9v0l0.2-0.1l13.5-8l1-0.6l0.1,0c0,0,0,0,0,0c0.3,0.1,0.6,0.2,0.9,0.3c0.6,0.3,1.2,0.7,1.7,1.2
		c0.2,0.2,0.4,0.4,0.6,0.6c0.1,0.2,0.3,0.4,0.4,0.6C75.3-176,75.6-175,75.6-173.9L75.6-173.9z"/>
	<path d="M56.4-200.6l0,29.8l-1.5,0.9l-1.2,0.7l-0.3,0.2c0,0,0,0,0,0c-0.8,0.4-1.7,0.7-2.7,0.7c-2.8,0-5.2-2-5.7-4.7
		c0-0.1,0-0.3-0.1-0.4c0-0.2,0-0.5,0-0.7v-33.6c0-1.1,0.9-1.9,1.9-1.9c0.4,0,0.8,0.1,1.1,0.3l5.9,3.8c0,0,0.1,0,0.1,0.1
		C55.4-204.4,56.4-202.6,56.4-200.6L56.4-200.6z"/>
</g>
</svg>
