<svg id="logo_svg" data-name="logo svg" xmlns="http://www.w3.org/2000/svg" viewBox="0 0 300 120"><defs><style>.cls-1{fill:#fff;}</style></defs><title>500px</title><path class="cls-1" d="M93.14,22.49A37.51,37.51,0,1,0,130.64,60h0A37.85,37.85,0,0,0,93.14,22.49Zm0,67.14A29.44,29.44,0,1,1,122.39,60h0A29.63,29.63,0,0,1,93.14,89.63Zm80.6-67.14A37.51,37.51,0,1,0,211.25,60h0A37.52,37.52,0,0,0,173.74,22.49Zm0,67.14A29.44,29.44,0,1,1,203,60h0a29.14,29.14,0,0,1-28.65,29.63ZM28.63,45A25.24,25.24,0,0,0,8.75,50.25V30.37H42.5c1.13,0,1.88-.38,1.88-3.75s-1.5-3.38-2.25-3.38H5a3.38,3.38,0,0,0-3.38,3.38h0v33c0,1.88,1.13,2.26,3,2.63A2.86,2.86,0,0,0,8,61.5H8a21.32,21.32,0,0,1,18.75-9A19.5,19.5,0,0,1,43.63,69,19,19,0,0,1,27.12,90H24.87A19.14,19.14,0,0,1,7.25,77.63c-.38-1.13-1.13-1.88-4.13-.75s-3.38,1.87-3,3A26.6,26.6,0,0,0,33.88,95.63,26.59,26.59,0,0,0,49.63,61.88,26.25,26.25,0,0,0,28.63,45ZM236.75,22.87a20.32,20.32,0,0,0-18,20.25V76.5c0,1.88,1.5,2.25,3.75,2.25s3.75-.37,3.75-2.25V43.12a12.6,12.6,0,0,1,10.87-12.75,12.34,12.34,0,0,1,9.38,3,12,12,0,0,1,4.13,9A15,15,0,0,1,248,49.5a11.82,11.82,0,0,1-10.5,4.87h0c-1.5,0-2.63,0-3,3.38,0,2.25,0,3.38,1.87,3.75a18.48,18.48,0,0,0,10.88-2.25A20.13,20.13,0,0,0,258.13,43.5a19.43,19.43,0,0,0-17.74-21l-.34,0A10.51,10.51,0,0,1,236.75,22.87Zm49.13,19.5,13.51-13.5c.37-.38,1.5-1.5-.75-4.13a3.79,3.79,0,0,0-2.63-1.5h0a2,2,0,0,0-1.5.75L281,37.5l-13.5-13.88c-1.13-1.13-2.26-.75-4.13.75s-1.88,3-.75,4.12L276.13,42,262.55,55.87h0a3,3,0,0,0-.75,1.5A3.16,3.16,0,0,0,263.3,60a6.13,6.13,0,0,0,2.63,1.5h0a4,4,0,0,0,1.88-.75l13.5-13.5,13.5,13.5a2,2,0,0,0,1.5.75h0a3.75,3.75,0,0,0,2.63-1.5c1.12-1.5,1.5-3,.37-3.75Z"/></svg>