<svg xmlns="http://www.w3.org/2000/svg" viewBox="0 0 300 120"><defs><style>.a{fill:#fff;}</style></defs><title>8tracks</title><path class="a" d="M24.63,55.52A24.63,24.63,0,1,0,49.27,80.16v-7H40.49v7A15.84,15.84,0,1,1,24.63,64.3H65A24.54,24.54,0,1,0,40.4,39.84v7h8.78v-7A15.9,15.9,0,1,1,65,55.61l-40.4-.09Z"/><path class="a" d="M104.27,80.42c0,1.88.9,8.24,6.36,8.24v8.6c-11.73,0-14.24-13.08-14.24-16.93V62.6H90.74V55.43h5.64v-14h7.88V55.52h6.9v7.17h-6.9Z"/><path class="a" d="M118,97.44V55.52h7.35v3.76h.18c3.31-4.66,8.69-4.84,10.66-4.93v8.06a14.82,14.82,0,0,0-5.64,1.52c-2.51,1.34-4.57,4.57-4.57,10.48V97.35h-8Z"/><path class="a" d="M174.68,97.44V90.9h-.18c-3,5.2-8.51,7.52-14.24,7.52C146.1,98.43,138,87.59,138,76.57c0-10.21,7.17-22.22,22.22-22.22,5.82,0,11.2,2.42,14.24,7.08h.18V55.52h7.88V97.44ZM160.35,61.61c-9.67,0-14.33,8.42-14.33,15,0,7.52,6,14.78,14.24,14.78a14.64,14.64,0,0,0,14.6-14.78C174.86,67.61,168.41,61.61,160.35,61.61Z"/><path class="a" d="M222.34,69.41c-1.25-2.69-4.3-7.88-11.82-7.88-10.12,0-13.8,8.51-13.8,14.78,0,7.26,4.57,14.87,13.62,14.87a12.72,12.72,0,0,0,11.91-7.7H231a21.44,21.44,0,0,1-20.6,14.87c-13.8,0-21.5-11.29-21.5-22,0-11.38,8.33-22,21.5-22a21.38,21.38,0,0,1,20.6,15l-8.69.09Z"/><path class="a" d="M269.45,55.52,254.23,75.23l17.65,22.13H262L245.27,75.68h-.18V97.35h-7.88V41.46h7.88V75.68h.18l14.87-20.16Z"/><path class="a" d="M291.13,66.63c-.45-3.4-2.51-5.11-5.37-5.11s-4.93,1.79-4.93,4.48c0,3.49,3,4.39,6.54,5.46,3.22,1,12.63,3.67,12.63,13.62,0,7.44-5.11,13.35-14.06,13.35-5.29,0-14.78-3.31-14.78-14.78H279c.27,4.66,2.69,7.61,7.08,7.61,3.58,0,6.09-2.15,6.09-5.73s-3.22-5-7.35-6.45C280.29,77.38,273,75.41,273,66.45c0-6.18,5.2-12.09,13.17-12.09,4.75,0,12.63,3,12.81,12.27Z"/></svg>