<svg xmlns="http://www.w3.org/2000/svg" viewBox="0 0 300 120"><defs><style>.a{fill:#fff;}</style></defs><title>academia</title><path class="a" d="M58.47,76.12c-6.61,0-10.33-7.24-10.33-16.74,0-8.68,2.89-15.7,9.71-15.7,5,0,7.85,3.3,9.09,9.3h2.27V44.3a21,21,0,0,0-11.36-2.9c-10.33,0-18.8,7.65-18.8,19.43,0,10.74,7.23,17.77,18.59,17.77,5,0,9.3-1.24,12.19-3.31l.83-9.92H68.39C66.53,73,63,76.12,58.47,76.12Z"/><path class="a" d="M108.88,74.26l-13-32.65h-9.3l1.65,4.13-11,28.52c-.41,1.44-1.65,1.65-2.89,1.86V78H85.12V76.12h0c-2.89-.21-4.54-.62-3.3-3.72A51.35,51.35,0,0,0,83.88,67H97.11L99,71.78a9.32,9.32,0,0,1,.41,2.06c0,1.66-1.45,2.28-4.13,2.28V78h16.94V76.12C110.33,75.91,109.3,75.5,108.88,74.26Zm-24-10.75c2.06-5.16,4.34-11.15,5.16-13.43l5.37,13.43Z"/><path class="a" d="M132,41.82H115.7v1.86c3.51.41,3.93.82,3.93,3.51V72.4c0,2.68-.42,3.1-3.93,3.51v1.86h17.36c11.36,0,19.21-6.82,19.21-18.6C152.48,49.67,145.87,41.82,132,41.82Zm.83,34.09h-.62c-2.48,0-3.72-.62-3.72-3.72V44.09h2.07c8.47,0,12.81,6.82,12.81,16.32C143.18,69.92,139.05,75.91,132.85,75.91Z"/><path class="a" d="M175.62,75.91h-2.48c-3.1,0-4.34-.83-4.34-3.51V60.62h5.79c2.27,0,3.1,1.24,3.51,4.75h2.07v-12H178.1c-.41,3.3-1.24,4.75-3.51,4.75H168.8v-14h6.41c4.34,0,5.78,1.65,8.47,7.44h1.65l-.21-9.71H156.2v1.86c3.51.41,3.92.82,3.92,3.51V72.4c0,2.68-.41,3.1-3.92,3.51v1.86h29.34L187.19,67h-2.07C181.4,73.64,180,75.91,175.62,75.91Z"/><path class="a" d="M233.88,73,230.79,47.6c0-2.68,1-3.51,4.33-3.72V41.82h-12.6c0,.62-.21,1-.21,1.44l-.62,1.66L214.26,66.2,206.4,45.12a8.66,8.66,0,0,1-.82-3.1h-13v1.86c3.31.21,4.34,1,4.34,3.72L193.6,73c-.21,2.27-1.24,2.89-4.34,3.1V78h12.19V76.12c-.83,0-1.45-.21-2.07-.21-1.24-.41-2.69-1.65-2.27-4.75.41-3.93,1.86-14.88,2.48-19.22l9.71,26.24h4.13l8.88-25.82,2.48,19.21v1.24c0,2.48-1.24,3.1-5,3.31V78H238V76.12C235.33,75.91,234.3,75.5,233.88,73Z"/><path class="a" d="M242.36,43.88c3.51.42,3.92.83,3.92,3.52V72.6c0,2.69-.41,3.1-3.92,3.52V78h16.73V76.12c-3.51-.42-3.92-.83-3.92-3.52V47.4c0-2.69.41-3.1,3.92-3.52V41.82H242.36Z"/><path class="a" d="M34.71,74.26l-13-32.65H12.4l1.65,4.13L2.89,74.26C2.48,75.7,1.24,75.91,0,76.12V78H10.74V76.12h0c-2.89-.21-4.54-.62-3.3-3.72A51.35,51.35,0,0,0,9.5,67H22.73l1.86,4.76A9.32,9.32,0,0,1,25,73.84c0,1.66-1.45,2.28-4.13,2.28V78H37.81V76.12C36.36,75.91,35.12,75.5,34.71,74.26Zm-24-10.75c2.07-5.16,4.34-11.15,5.17-13.43l5.37,13.43Z"/><path class="a" d="M297.93,75.5c-.62-.21-.82-.62-1.24-1.24l-13-32.44h-9.3L276,46,265.08,74.46c-.41,1.45-1.65,1.66-2.89,1.86v1.86h10.74V76.32h0c-2.89-.2-4.54-.62-3.3-3.72a50.69,50.69,0,0,0,2.06-5.37h13.23L286.78,72a9.51,9.51,0,0,1,.41,2.07c0,1.65-1.45,2.27-4.13,2.27v1.86H300V76.32C299,75.91,298.35,75.91,297.93,75.5Zm-25-12c2.07-5.16,4.34-11.15,5.17-13.43l5.37,13.43Z"/></svg>