<svg xmlns="http://www.w3.org/2000/svg" viewBox="0 0 300 120"><defs><style>.a{fill:#fff;}</style></defs><title>adobe-stock</title><path class="a" d="M0,29.9H61.46c.09,20.07,0,40.13,0,60.2H0V29.9m2.54,2.62q.07,27.47,0,54.95,28.22,0,56.44,0-.05-27.47,0-55Q30.76,32.51,2.54,32.52Z"/><path class="a" d="M123.19,39.21l2.19,0c-.05,10.32-.13,20.64,0,31-4.28,2.29-10.1,2.48-14-.71-5-4.39-4.67-13.4.66-17.4,3.11-2.47,7.35-2.85,11.13-2.11,0-3.59,0-7.19,0-10.79M112.38,54.47A10.33,10.33,0,0,0,112,67c2.62,3.27,7.45,3.56,11.16,2.26.22-5.66,0-11.35.12-17C119.6,51,115.05,51.5,112.38,54.47Z"/><path class="a" d="M154.87,39.22l2.19,0c0,3.84,0,7.68,0,11.52,4-1.73,9.35-1.63,12.54,1.73,4.57,5,3.35,14.06-2.46,17.58-3.62,2.32-8.24,2.18-12.22,1-.06-10.6,0-21.21,0-31.81m4.4,12.66c-.81.33-2.41.29-2.27,1.53q0,8.07.07,16.15c2.73.54,5.72.69,8.24-.68,5.36-2.7,6.55-10.88,2.49-15.17C165.61,51.46,162.18,51.27,159.27,51.88Z"/><path class="a" d="M283,39.25l2.2,0c-.05,10.76,0,21.51,0,32.26L283,71.4C283.09,60.68,283.11,50,283,39.25Z"/><path class="a" d="M211.3,42.39a13.66,13.66,0,0,1,11.52.31l0,2.19a13.09,13.09,0,0,0-9.58-1.2,5.08,5.08,0,0,0-3.74,5.23c0,2.61,2.33,4.36,4.47,5.39,3.06,1.45,6.56,2.5,8.69,5.31A7.59,7.59,0,0,1,220,70.69a14.56,14.56,0,0,1-12.93-.63c0-.84,0-1.68,0-2.52a12.6,12.6,0,0,0,11.79,1.52,5.51,5.51,0,0,0,1.79-8.41c-3.19-3.53-8.65-3.67-11.68-7.4A7.16,7.16,0,0,1,211.3,42.39Z"/><path class="a" d="M91.85,41.76c1,0,1.91,0,2.86,0,3.59,9.88,7.16,19.78,10.79,29.64l-2.29,0c-1.38-3.58-2.62-7.22-4-10.81h-12c-1.32,3.59-2.58,7.2-3.92,10.79l-2.16,0C84.52,62.46,87.73,53.46,91,44.5a20.2,20.2,0,0,0,.8-2.74m-4,16.89c3.6,0,7.2,0,10.8,0-1.86-5.05-3.76-10.09-5.34-15.24C91.55,48.5,89.83,53.62,87.86,58.65Z"/><path class="a" d="M19.31,44.17a12.51,12.51,0,0,1,10.43,0c0,1.46,0,2.91,0,4.37a10.24,10.24,0,0,0-7.89-1,3.29,3.29,0,0,0-1.62,4.68,9.75,9.75,0,0,0,3.86,3c2.26,1.18,4.55,2.62,5.88,4.87,1.9,3.4,1,8.31-2.4,10.41-3.65,2.23-8.42,1.85-12.17.06,0-1.59,0-3.18,0-4.77a11.34,11.34,0,0,0,8.2,1.89,3.32,3.32,0,0,0,2.77-3.26c.1-1.94-1.53-3.32-3-4.25-2.26-1.35-4.82-2.44-6.41-4.64C14.2,52.09,15.21,46.17,19.31,44.17Z"/><path class="a" d="M230.25,43.9l2.14-.41a56.9,56.9,0,0,0-.36,6.6c1.78,0,3.55,0,5.33,0v2c-1.79,0-3.58,0-5.37,0,0,4.84,0,9.67,0,14.5a3.2,3.2,0,0,0,1.53,3.09,5,5,0,0,0,4.13-.42c0,.64,0,1.28,0,1.92a6.67,6.67,0,0,1-5.74.19c-1.54-.84-2-2.72-2-4.35,0-5,0-10,0-14.94h-3.55c0-.5,0-1.48,0-2q1.78,0,3.58,0C230,48,230,46,230.25,43.9Z"/><path class="a" d="M37,45.7a30.53,30.53,0,0,1,4.33-.7c-.1,1.94-.11,3.89-.16,5.83,1.34,0,2.68,0,4,0,0,1.32,0,2.65-.05,4-1.36,0-2.71,0-4.07,0,0,3.57,0,7.13,0,10.7a2.85,2.85,0,0,0,.74,2.24c.9.72,2.11.28,3.16.31,0,1.08,0,2.17-.06,3.26a7,7,0,0,1-5.84.25c-1.95-.82-2.57-3.13-2.55-5.06,0-3.89,0-7.79,0-11.68-.91,0-1.83,0-2.74,0,0-1.33,0-2.67,0-4l2.71,0C36.7,49.13,36.69,47.4,37,45.7Z"/><path class="a" d="M136.66,50.3A9.49,9.49,0,0,1,147,52.53a13.15,13.15,0,0,1-.26,16.73,9.61,9.61,0,0,1-11.39,1.38c-7-4.4-6.56-17.11,1.34-20.35m1.52,1.51a7.15,7.15,0,0,0-4.37,3.53c-2,3.8-1.74,8.92,1.11,12.23a7.12,7.12,0,0,0,10.57,0c2.7-3.3,2.76-8.24,1-12A7.18,7.18,0,0,0,138.18,51.81Z"/><path class="a" d="M179.29,52.17A8.68,8.68,0,0,1,190,51a9,9,0,0,1,3.33,9.18c-5,.5-10.13.1-15.19.23-.06,3,.81,6.34,3.43,8.12,3.14,2.07,7.31,1.57,10.58,0l-.08,2a13,13,0,0,1-10.44.5c-3.33-1.43-5.22-5-5.48-8.5-.36-3.66.42-7.69,3.1-10.37m1.11,1.55a11.21,11.21,0,0,0-2.18,5c4.43,0,8.85,0,13.28,0a7.65,7.65,0,0,0-1.74-5.23C187.38,50.72,182.65,51,180.4,53.72Z"/><path class="a" d="M246,50.26a9.51,9.51,0,0,1,10,2.06,12.05,12.05,0,0,1,3,8.7,11.76,11.76,0,0,1-3.3,8.46,9.61,9.61,0,0,1-11.72.81c-6.49-4.77-5.78-16.94,2-20m1.49,1.53c-3.05.73-5.07,3.66-5.51,6.64-.55,3.4.07,7.3,2.74,9.7a7.1,7.1,0,0,0,10.27-.9,11.86,11.86,0,0,0,.56-12A7.16,7.16,0,0,0,247.54,51.79Z"/><path class="a" d="M266.87,52c3.2-2.54,7.74-2.89,11.53-1.66,0,.69-.07,1.39-.1,2.09-3-1.16-6.63-1.25-9.4.54-4.79,3.12-5.19,10.84-1.17,14.73,2.83,2.62,7.11,2.62,10.59,1.46,0,.67,0,1.33,0,2-4,1.29-9,1.15-12.22-1.87C261.49,64.74,261.71,56.06,266.87,52Z"/><path class="a" d="M285.35,60.28c3.53-3.43,7.14-6.78,10.68-10.2.87,0,1.75,0,2.62,0-3.5,3.39-7.11,6.66-10.72,9.93,4,3.83,8.08,7.51,12.07,11.33-.94.1-1.89.09-2.83.09C293.22,67.73,289.17,64.12,285.35,60.28Z"/></svg>