<svg xmlns="http://www.w3.org/2000/svg" viewBox="0 0 300 120"><defs><style>.a{fill:#fff;}</style></defs><title>airbnb</title><path class="a" d="M32.36,17.92a15.64,15.64,0,0,1,21.3-1.05c2.71,2.24,4.41,5.39,6,8.47Q72.32,49.67,83.73,74.62C85.17,77.78,86.62,81,87,84.5A19.92,19.92,0,0,1,72.07,106.2a21.83,21.83,0,0,1-13.49-1.08c-5.91-2.38-10.75-6.71-15-11.35a51,51,0,0,1-10.51,9.06,25.67,25.67,0,0,1-10.69,3.85,20.36,20.36,0,0,1-12.3-2.48,19.92,19.92,0,0,1-9.74-21,35.6,35.6,0,0,1,3-8.33Q14.64,50,27.26,25.75c1.45-2.76,2.89-5.6,5.1-7.83m7.06,2.21a11,11,0,0,0-4.36,4c-1.19,1.83-2.14,3.79-3.16,5.72Q19.81,53.28,8.83,77.25c-1.15,2.58-2.4,5.18-2.73,8a13.93,13.93,0,0,0,12.44,15.47,17.41,17.41,0,0,0,10.31-2.39,43.58,43.58,0,0,0,10.77-9.16A69.27,69.27,0,0,1,31,75.95C28.62,71,27,65.5,27.93,60a14.94,14.94,0,0,1,6.83-10.22,16.8,16.8,0,0,1,20,1.82,15.36,15.36,0,0,1,4.71,10.72c.21,5.08-1.49,10-3.75,14.51a73.7,73.7,0,0,1-8.19,12.32A47.67,47.67,0,0,0,57,97.53a19.49,19.49,0,0,0,9.17,3.24,14.09,14.09,0,0,0,10.81-4A13.9,13.9,0,0,0,81,84.91c-.49-3.3-2.1-6.27-3.42-9.28Q66.47,51.43,54.16,27.8c-1.33-2.51-2.68-5.18-5.07-6.85a9.63,9.63,0,0,0-9.67-.81M37,55.58a9,9,0,0,0-3.24,5.91,18.91,18.91,0,0,0,1.46,9.18,56.06,56.06,0,0,0,8.33,13.8A71.18,71.18,0,0,0,49,76.54c2.1-3.66,3.93-7.62,4.38-11.86a10.35,10.35,0,0,0-2.28-8.14A10.63,10.63,0,0,0,37,55.58Z"/><path class="a" d="M150.78,30.76a6.07,6.07,0,1,1-4,3.07A6.1,6.1,0,0,1,150.78,30.76Z"/><path class="a" d="M187,30.61h9c0,6.6,0,13.2,0,19.8a12,12,0,0,1,7.86-3.66,18.18,18.18,0,0,1,12.72,3.9,18,18,0,0,1,6.31,10.73,20.19,20.19,0,0,1-1.55,12.43,17.54,17.54,0,0,1-6.17,7.05,18.29,18.29,0,0,1-11.09,2.9A11.81,11.81,0,0,1,196,80c0,.57,0,1.14,0,1.71a1.29,1.29,0,0,1-1.32,1.15H187q0-26.13,0-52.26m9,28.27c0,4.2,0,8.39,0,12.59A9.5,9.5,0,0,0,202,75.13c4,.62,8.62-.92,10.75-4.55,2.29-4,1.84-9.6-1.59-12.79a11.07,11.07,0,0,0-7.65-2.73A10,10,0,0,0,196,58.88Z"/><path class="a" d="M263.74,30.61h9q0,9.9,0,19.8a11.9,11.9,0,0,1,7.44-3.61A18.05,18.05,0,0,1,294.83,52c6.26,6.36,6.86,17.25,1.67,24.44a17.87,17.87,0,0,1-17,7.15,11.54,11.54,0,0,1-6.77-3.6,14.74,14.74,0,0,1,0,2,1.3,1.3,0,0,1-1.2.9c-2.58,0-5.17,0-7.75,0q0-26.13,0-52.26M279,55.18a9.91,9.91,0,0,0-6.22,3.66c-.12,1.85,0,3.72,0,5.57,0,2.36-.08,4.74.06,7.09a9.41,9.41,0,0,0,6.62,3.7A12,12,0,0,0,285.9,74a9.17,9.17,0,0,0,4.66-5.76c1-3.69.19-8.09-2.82-10.64A11.24,11.24,0,0,0,279,55.18Z"/><path class="a" d="M115.37,48.75a18.51,18.51,0,0,1,9.54-2,12.07,12.07,0,0,1,8.14,3.66c0-1-.23-2.51,1-2.77,2.65-.05,5.3,0,8,0V82.86c-2.57,0-5.14,0-7.7,0a1.3,1.3,0,0,1-1.27-1.13,14.12,14.12,0,0,1,0-1.7,11.72,11.72,0,0,1-7.59,3.69A18,18,0,0,1,111.58,79c-6-5.55-7.37-15.14-3.84-22.41a17.48,17.48,0,0,1,7.63-7.87m.88,11A10.77,10.77,0,0,0,117.34,72a11,11,0,0,0,8.6,3.22,9.54,9.54,0,0,0,7.11-3.77q0-6.32,0-12.64a10.11,10.11,0,0,0-6.21-3.65C122.86,54.62,118.34,56.18,116.25,59.77Z"/><path class="a" d="M171.11,50.4a11.93,11.93,0,0,1,7-3.62,17.56,17.56,0,0,1,5.17.31c0,2.78,0,5.56,0,8.34-4.16-1.22-9.24-.6-12.19,2.84q0,12.3,0,24.6h-9q0-17.64,0-35.27h7.61a1.28,1.28,0,0,1,1.37,1.06A17.41,17.41,0,0,1,171.11,50.4Z"/><path class="a" d="M235.37,50.39a12.53,12.53,0,0,1,7.11-3.51,15.67,15.67,0,0,1,11.88,2.86,11.07,11.07,0,0,1,3.82,5.05c1.13,3.08,1,6.41,1,9.63V82.86h-9q0-10.24,0-20.49c-.06-1.94-.27-4-1.52-5.62a6.31,6.31,0,0,0-4.87-1.91,9.83,9.83,0,0,0-7.82,3.52c0,8.17,0,16.33,0,24.5h-9q0-17.63,0-35.27c2.4,0,4.8,0,7.2,0a1.26,1.26,0,0,1,1.24,1C235.4,49.22,235.36,49.81,235.37,50.39Z"/><path class="a" d="M147.58,47.59h9q0,17.63,0,35.27c-3,0-6,0-9,0Q147.57,65.23,147.58,47.59Z"/></svg>