<?xml version="1.0" encoding="utf-8"?>
<!-- Generator: Adobe Illustrator 23.0.6, SVG Export Plug-In . SVG Version: 6.00 Build 0)  -->
<svg version="1.1" id="Camada_1" xmlns="http://www.w3.org/2000/svg" xmlns:xlink="http://www.w3.org/1999/xlink" x="0px" y="0px"
	 viewBox="0 0 300 120" style="enable-background:new 0 0 300 120;" xml:space="preserve">
<title>airbnb</title>
<path d="M32.4,17.9c5.7-5.9,15-6.3,21.3-1c2.7,2.2,4.4,5.4,6,8.5C68.1,41.6,76.1,58,83.7,74.6c1.4,3.2,2.9,6.4,3.3,9.9
	c1.2,10-5.2,19.3-14.9,21.7c-4.5,1.1-9.2,0.7-13.5-1.1c-5.9-2.4-10.8-6.7-15-11.3c-3.1,3.5-6.6,6.5-10.5,9.1
	c-3.2,2.1-6.9,3.4-10.7,3.8c-4.3,0.5-8.6-0.4-12.3-2.5c-7.4-4.2-11.3-12.6-9.7-21c0.6-2.9,1.7-5.7,3-8.3c7.5-16.6,15.5-33,23.9-49.1
	C28.7,23,30.1,20.1,32.4,17.9 M39.4,20.1c-1.8,0.9-3.3,2.3-4.4,4c-1.2,1.8-2.1,3.8-3.2,5.7C23.8,45.5,16.1,61.3,8.8,77.3
	c-1.2,2.6-2.4,5.2-2.7,8c-0.9,7.6,4.6,14.6,12.2,15.4c0.1,0,0.1,0,0.2,0c3.6,0.3,7.2-0.5,10.3-2.4c4.1-2.4,7.7-5.5,10.8-9.2
	c-3.4-4.1-6.3-8.5-8.6-13.2C28.6,71,27,65.5,27.9,60c0.7-4.2,3.2-8,6.8-10.2c6.3-3.9,14.5-3.1,20,1.8c2.9,2.8,4.6,6.7,4.7,10.7
	c0.2,5.1-1.5,10-3.8,14.5c-2.3,4.4-5.1,8.5-8.2,12.3c2.8,3.2,6,6,9.5,8.4c2.7,1.8,5.9,3,9.2,3.2c4,0.3,7.9-1.2,10.8-4
	c3.1-3.1,4.6-7.5,4-11.9c-0.5-3.3-2.1-6.3-3.4-9.3c-7.4-16.1-15.2-32.1-23.4-47.8c-1.3-2.5-2.7-5.2-5.1-6.9
	C46.2,19,42.6,18.6,39.4,20.1 M37,55.6c-1.8,1.5-3,3.6-3.2,5.9c-0.3,3.1,0.2,6.3,1.5,9.2c2.1,5,4.9,9.6,8.3,13.8
	c2-2.5,3.8-5.2,5.5-7.9c2.1-3.7,3.9-7.6,4.4-11.9c0.4-2.9-0.4-5.9-2.3-8.1C47.3,52.7,41.3,52.3,37,55.6z"/>
<path d="M150.8,30.8c3.3-0.8,6.5,1.3,7.3,4.6c0.8,3.3-1.3,6.5-4.6,7.3s-6.5-1.3-7.3-4.6c-0.3-1.4-0.1-2.9,0.6-4.2
	C147.6,32.3,149.1,31.2,150.8,30.8z"/>
<path d="M187,30.6h9c0,6.6,0,13.2,0,19.8c2.1-2.2,4.9-3.5,7.9-3.7c4.6-0.4,9.1,1,12.7,3.9c3.3,2.7,5.5,6.5,6.3,10.7
	c0.8,4.2,0.3,8.6-1.6,12.4c-1.4,2.9-3.5,5.3-6.2,7.1c-3.3,2.1-7.2,3.1-11.1,2.9c-3.1-0.2-6-1.5-8.1-3.8c0,0.6,0,1.1,0,1.7
	c-0.1,0.7-0.6,1.2-1.3,1.2H187C187,65.4,187,48,187,30.6 M196,58.9c0,4.2,0,8.4,0,12.6c1.5,1.9,3.6,3.3,6,3.7
	c4,0.6,8.6-0.9,10.8-4.6c2.3-4,1.8-9.6-1.6-12.8c-2.1-1.8-4.8-2.8-7.6-2.7C200.6,55.2,197.8,56.6,196,58.9L196,58.9z"/>
<path d="M263.7,30.6h9c0,6.6,0,13.2,0,19.8c2-2.1,4.6-3.3,7.4-3.6c5.4-0.6,10.8,1.3,14.6,5.2c6.3,6.4,6.9,17.3,1.7,24.4
	c-3.9,5.3-10.4,8.1-17,7.2c-2.6-0.4-5-1.7-6.8-3.6c0,0.7,0,1.3,0,2c-0.2,0.5-0.6,0.9-1.2,0.9c-2.6,0-5.2,0-7.8,0
	C263.8,65.5,263.8,48.1,263.7,30.6 M279,55.2c-2.5,0.4-4.7,1.7-6.2,3.7c-0.1,1.8,0,3.7,0,5.6c0,2.4-0.1,4.7,0.1,7.1
	c1.6,2.1,4,3.4,6.6,3.7c2.2,0.2,4.4-0.2,6.4-1.2c2.3-1.2,4-3.3,4.7-5.8c1-3.7,0.2-8.1-2.8-10.6C285.3,55.6,282.1,54.7,279,55.2z"/>
<path d="M115.4,48.8c2.9-1.5,6.2-2.2,9.5-2c3.1,0.1,6,1.4,8.1,3.7c0-1-0.2-2.5,1-2.8c2.6,0,5.3,0,8,0v35.2c-2.6,0-5.1,0-7.7,0
	c-0.6,0-1.2-0.5-1.3-1.1c0-0.6,0-1.1,0-1.7c-2,2.1-4.7,3.4-7.6,3.7c-5.1,0.5-10.2-1.2-13.9-4.7c-6-5.6-7.4-15.1-3.8-22.4
	C109.4,53.2,112,50.5,115.4,48.8 M116.3,59.7c-2.2,3.9-1.8,8.8,1.1,12.3c2.3,2.3,5.4,3.5,8.6,3.2c2.8-0.1,5.4-1.5,7.1-3.8
	c0-4.2,0-8.4,0-12.6c-1.6-1.9-3.8-3.2-6.2-3.7C122.9,54.6,118.3,56.2,116.3,59.7L116.3,59.7z"/>
<path d="M171.1,50.4c1.9-2,4.3-3.2,7-3.6c1.7-0.2,3.5,0,5.2,0.3c0,2.8,0,5.6,0,8.3c-4.2-1.2-9.2-0.6-12.2,2.8c0,8.2,0,16.4,0,24.6
	h-9c0-11.8,0-23.5,0-35.3h7.6c0.7-0.1,1.3,0.4,1.4,1.1C171.1,49.2,171.1,49.8,171.1,50.4z"/>
<path d="M235.4,50.4c1.9-1.9,4.4-3.1,7.1-3.5c4.2-0.7,8.5,0.3,11.9,2.9c1.7,1.3,3.1,3,3.8,5c1.1,3.1,1,6.4,1,9.6v18.4h-9
	c0-6.8,0-13.7,0-20.5c-0.1-1.9-0.3-4-1.5-5.6c-1.3-1.3-3-2-4.9-1.9c-3-0.1-5.9,1.2-7.8,3.5c0,8.2,0,16.3,0,24.5h-9
	c0-11.8,0-23.5,0-35.3c2.4,0,4.8,0,7.2,0c0.6,0,1.1,0.4,1.2,1C235.4,49.2,235.4,49.8,235.4,50.4z"/>
<path d="M147.6,47.6h9c0,11.8,0,23.5,0,35.3c-3,0-6,0-9,0C147.6,71.1,147.6,59.4,147.6,47.6z"/>
</svg>
