<svg id="Camada_1" data-name="Camada 1" xmlns="http://www.w3.org/2000/svg" viewBox="0 0 300 100"><defs><style>.cls-1{fill:#fff;}</style></defs><title>aliexpress</title><g id="_ffffffff" data-name="#ffffffff"><path class="cls-1" d="M64.28,13.94c1,1.45.55,3.47,1.66,4.9,1.64,3,5,4.18,8.17,4.68-2.8.49-5.85,1.16-7.57,3.69-1.49,1.65-1.45,4-2.18,5.93-.44-2.68-1.14-5.55-3.42-7.3-1.69-1.67-4.1-1.84-6.29-2.35,2.22-.55,4.62-.89,6.37-2.52C63.15,19.26,63.93,16.54,64.28,13.94Z"/><path class="cls-1" d="M18.23,20.49c2.12,0,4.23,0,6.34,0Q33.8,44.41,43,68.31c-2,0-4,0-6,0q-2.3-5.73-4.45-11.51c-7.4,0-14.8,0-22.2,0-1.59,3.8-2.94,7.68-4.48,11.5-2,0-4.07,0-6.11-.07v-.88C1,66,1.36,64.19,2,62.56c5.43-14,10.8-28.06,16.22-42.08m2.85,8.38c-2.84,7.21-5.55,14.48-8.39,21.68H30.17c-2.9-7.35-5.91-14.7-8.43-22.19Z"/><path class="cls-1" d="M46.62,20.53c2,0,4.08,0,6.12,0,0,15.91,0,31.82,0,47.73-2,0-4.07,0-6.11,0Q46.58,44.42,46.62,20.53Z"/><path class="cls-1" d="M76.16,20.55c9.52,0,19,0,28.56,0,0,2.06,0,4.12,0,6.17-7.43.09-14.88,0-22.32.05,0,4.81,0,9.62,0,14.44,6.59.06,13.19,0,19.79,0,0,2,0,4,0,6-6.59,0-13.19-.1-19.79.05q.08,7.34,0,14.68c8,.19,16,0,24,.09-.05,2.06,0,4.12,0,6.18H76.14C76.19,52.36,76.16,36.45,76.16,20.55Z"/><path class="cls-1" d="M192.85,37.41a19.82,19.82,0,0,1,12.1-4.59c0,2.08,0,4.15,0,6.23a12.19,12.19,0,0,0-12,11.41c-.07,6,0,11.91,0,17.86-2-.05-4.08,0-6.12,0-.11-11.44.09-22.88,0-34.32,2.06,0,4.11,0,6.17,0C192.87,35.08,192.86,36.25,192.85,37.41Z"/><path class="cls-1" d="M109,34c2.42,0,4.84-.1,7.25,0,3.4,4,6.53,8.25,9.7,12.45,3.46-4,6.52-8.36,9.84-12.49,2.46,0,4.91,0,7.36,0-4.54,5.63-8.84,11.43-13.32,17.09,4.33,5.79,8.87,11.42,13.22,17.18-2.43,0-4.85-.05-7.28,0-3.28-4.15-6.41-8.43-9.77-12.52-3.09,4.21-6.43,8.24-9.51,12.45-2.46.06-4.93.08-7.38,0,4.4-5.72,8.87-11.39,13.23-17.14C117.83,45.48,113.58,39.63,109,34Z"/><path class="cls-1" d="M146.4,46.46a18.3,18.3,0,0,1,34.59-2,18.19,18.19,0,0,1-17,24.91,18.71,18.71,0,0,1-12-5.51c.12,7.45,0,14.91.06,22.36-2.08.07-4.16,0-6.23.08,0-10.87,0-21.74,0-32.61a25.44,25.44,0,0,1,.63-7.21m13.79-7c-7.61,2.29-10.46,12.39-6.16,18.77,3.53,5.69,12.08,7.12,17.28,2.92,5.28-3.9,6.3-12.11,2.46-17.35A12,12,0,0,0,160.2,39.47Z"/><path class="cls-1" d="M211.35,38.35a18,18,0,0,1,15.91-5,16.15,16.15,0,0,1,12.45,11.09c1,3.15.65,6.51.59,9.76-9.33-.17-18.67-.05-28-.06a13.11,13.11,0,0,0,8.07,8.73,12.6,12.6,0,0,0,13.49-3.58c1.45,1.3,3,2.5,4.5,3.72a18.88,18.88,0,0,1-13,6.32,18.48,18.48,0,0,1-16.65-9,18.17,18.17,0,0,1,2.68-21.92m11.37.75c-5.05.43-9.19,4.41-10.51,9.2,7.35.26,14.72,0,22.08.12A10.39,10.39,0,0,0,222.72,39.1Z"/><path class="cls-1" d="M247.26,36.24c6.4-5.22,17-4,21.73,2.87a43.07,43.07,0,0,1-4.79,3.06c-2.84-4.22-9.59-5.27-13.33-1.7a3.3,3.3,0,0,0,.51,5.25c4.53,2.78,10.39,2.08,14.82,5.14,5.33,3.53,4.8,12.5-.46,15.87-7.23,4.64-17.67,2.92-23.16-3.66,1.6-1.19,3.17-2.41,4.73-3.64,3,4.41,9.65,6,14.24,3.12a4.55,4.55,0,0,0,1.85-5.48c-.87-1.84-2.88-2.74-4.75-3.24-3.75-1-7.79-1.42-11.11-3.6C242.79,47.23,243,39.56,247.26,36.24Z"/><path class="cls-1" d="M276.85,36.42c6.39-5.43,17.11-4.26,22,2.67-1.55,1.08-3.12,2.11-4.69,3.15-2.81-4.06-9.07-5.29-13-2.19-1.72,1.27-2.15,4.18-.18,5.43,4.51,3.12,10.66,2.19,15.14,5.42,5.36,3.64,4.67,12.79-.81,16-7.27,4.41-17.42,2.62-22.92-3.83,1.6-1.17,3.17-2.38,4.73-3.62a11.24,11.24,0,0,0,11.73,4.16c2.21-.47,4.38-2.07,4.69-4.44s-1.68-4.28-3.76-5c-4.34-1.45-9.3-1.55-13-4.48C272.64,46.5,273,39.69,276.85,36.42Z"/><path class="cls-1" d="M61.31,34.16h6.17q0,17.07,0,34.14c-2.06,0-4.11,0-6.17,0Q61.35,51.21,61.31,34.16Z"/></g></svg>