<?xml version="1.0" encoding="utf-8"?>
<!-- Generator: Adobe Illustrator 23.0.6, SVG Export Plug-In . SVG Version: 6.00 Build 0)  -->
<svg version="1.1" id="Camada_1" xmlns="http://www.w3.org/2000/svg" xmlns:xlink="http://www.w3.org/1999/xlink" x="0px" y="0px"
	 viewBox="0 0 300 120" style="enable-background:new 0 0 300 120;" xml:space="preserve">
<title>aljazeera</title>
<path d="M30.2,11.5h1.7c-1.4,1.3-3,2.8-3,4.8c-0.3,3.7,1.8,7.1,3.9,10C41.3,37,50.2,47.7,55.5,60.5c3,7.2,4.2,15.6,1.6,23.1
	c-1.4,4.6-4.9,8.2-9.5,9.7c-3.9,1.2-8.2,1-12-0.5c0.2-1.7,0.6-3.5,1.1-5.1c4.7,1.6,9.8,0.4,13.3-3.1c5.4-5.3,6.4-13.8,3.5-20.6
	C48.4,50.7,38.4,40.1,30,28.8c-1.8,2.3-1.6,5.6,0.5,7.7c3.8,4.5,8.5,8.3,11.2,13.6c1.6,2.9,2.1,6.4,1.3,9.7c1.7-1.3,3.2-2.8,4.5-4.5
	c1.2,5,2.9,10.3,1.6,15.4c-2.3,6.8-9.2,10.2-12.7,16.2c-2,5.6-1.4,11.8-2.9,17.6c-0.5,2-2,3.5-4,4h-2.5c-4-0.7-6.9-3.9-8.7-7.3
	c-0.7-1-1.8-3.4,0.4-3.3c1.7,2.6,3.6,5.8,7.1,6c2.4-0.3,3.8-2.4,4.4-4.6c1.3-5.4,1.1-11.1,3.2-16.2c3.1-6.1,9.6-9.4,12.9-15.3
	c0.8-1.4,1.2-3,1.2-4.6c-2.9,2.9-6.9,4.7-9.1,8.2c-0.7-2.4-2.5-5.5-0.4-7.7c2.4-2.7,4.1-6.8,2.2-10.3c-2.3-4.4-5.8-7.9-9.4-11.3
	c1,5.9-0.9,11.9-3.7,17c-2.3,4-3.5,8.5-3.6,13.1L22,73.7c-0.4-2.6-0.4-5.2-0.1-7.7c1.1-7.9,6.4-14.4,7.4-22.3
	c0.6-3.7-2.4-6.8-2.2-10.5c-0.1-2.1,1.1-4,2.1-5.8c-1.3-2.7-2.4-5.6-2.2-8.7c0.2-2.6,1-5.6,3.6-6.8L30.2,11.5z"/>
<path d="M20.1,38.3c-1.3-1.8-0.7-4.8,1.7-5.1c1.8-0.4,3.5,0.7,3.9,2.4c0,0,0,0,0,0.1c1.7,5.9,1.2,12.2-1.4,17.7
	c-3.2,6.6-6.5,13.3-7.9,20.6c-1.1,5.8-1.2,11.7-0.1,17.4l-1.3,1.1c-2.3-10.3-1.5-21,2.5-30.8c2.1-6,5.9-11.3,7.4-17.5
	c-3.4,4.8-9.2,6.8-13.5,10.5C5.1,59.1,0.9,67.3,3,75.1c0.5-1.9,1.3-4.6,3.6-4.9c2.9-0.6,4.6,2.5,5.5,4.8c1.1,3,1.9,6.9-0.2,9.7
	c-2.6,1.8-5.8-0.2-7.5-2.3c0,3.6,0.8,7.6,3.7,10.1c2.8,2.1,6.8,1.5,8.9-1.3c0.2-0.2,0.3-0.5,0.5-0.7c2.9-4.6,2.4-10.3,4-15.3
	c2.1-3,5.6-4.8,7.5-8c0.1,2.2,1,4.4,0.6,6.6c-1.5,2.6-4.3,4.2-6.4,6.4c-0.9,5.3-0.6,11-3.5,15.7c-2.3,3.7-7.9,3.7-11,1.1
	c-5.2-4.1-6.5-11.2-6.3-17.4c-2.8-6.3-3.6-14,0-20.2c3.7-6.5,10.7-9.7,16.7-13.5c2.8-1.7,5.6-4.1,5.9-7.5c-1.4,1-3.3,1.6-4.7,0.1
	c2.1,1.4,1.9,5.4-0.9,5.8c-2.5,0.9-4.9-2.4-3.3-4.5C16.8,38,18.7,38,20.1,38.3 M4.8,79.4c1.6,1,4.2,1.4,5.3-0.4
	c1.3-1.3-0.2-3.7-1.9-3.3S5.4,77.8,4.8,79.4z"/>
<path d="M36.9,54c0.3,0.9,0.9,2.1,0.1,3c-2.3,2.6-4.6,5.2-7.1,7.7c0-0.6,0.1-1.9,0.1-2.5C32.1,59.2,35,57,36.9,54z"/>
<path d="M9.6,61.6c1.1-1.8,2.5-3.9,4.7-4.4c-1,2.2-5.8,4.8-2.8,7c0.4-0.8,0.9-1.6,1.5-2.3c0.3,1.7-0.5,3.4-2,4.3
	C8.6,66.4,8.8,63.1,9.6,61.6z"/>
<path d="M77.4,64.6c2.8,0,5.6,0,8.4,0c3.4,9.7,6.8,19.5,10.2,29.3c-2.7,0-5.5,0-8.2,0c-0.5-1.8-1.1-3.6-1.6-5.4
	c-3.1,0-6.3-0.1-9.4,0.1c-0.4,1.8-1,3.5-1.5,5.3c-2.6,0-5.2,0-7.7,0.1C70.7,84.1,74.2,74.4,77.4,64.6 M79.1,81.6c1.7,0,3.4,0,5.2,0
	c-0.8-2.8-1.7-5.7-2.5-8.5C80.6,76,79.9,78.8,79.1,81.6L79.1,81.6z"/>
<path d="M100.4,64.6c2.5,0,5,0,7.6,0c0.1,7.5,0,15,0.1,22.5h9.2c0,2.3,0,4.5,0,6.8h-16.8C100.4,84.1,100.4,74.4,100.4,64.6z"/>
<path d="M123.7,64.6c2.6,0,5.1-0.1,7.6,0.1c-0.1,10,0,20.1,0,30.1c-0.1,3.3-1.5,7-4.5,8.7c-3.3,1.7-7.4,1-10.6-0.4
	c0.6-2.2,1.2-4.3,1.7-6.4c2.2,1,5.4,0.3,5.6-2.5C123.9,84.3,123.5,74.5,123.7,64.6z"/>
<path d="M145.4,64.6c2.8,0,5.6,0,8.4,0c3.3,9.8,6.7,19.5,10.1,29.2c-2.7,0-5.4,0-8.1,0c-0.6-1.8-1.1-3.6-1.7-5.4
	c-3.1,0-6.2-0.1-9.4,0.1c-0.5,1.8-1.1,3.5-1.6,5.3c-2.6,0-5.1,0.1-7.7-0.1C138.8,84,142.1,74.2,145.4,64.6 M149.6,73
	c-0.9,2.8-1.7,5.7-2.5,8.5c1.7,0,3.4,0,5.1,0C151.3,78.8,150.5,76,149.6,73L149.6,73z"/>
<path d="M168.8,64.6c6.8,0,13.5,0,20.3,0c-0.1,2.5,0.1,5.1-0.1,7.6c-3.4,5-6.9,10-10.4,15c3.6,0,7.1,0,10.7,0c0,2.2,0,4.4,0,6.6
	c-6.9,0-13.9,0-20.8,0c-0.1-2.6-0.1-5.1,0-7.7c3.4-5,7-9.9,10.4-15c-3.4,0-6.7,0-10.1,0C168.7,69,168.8,66.8,168.8,64.6z"/>
<path d="M195.2,64.6h19c0,2.2,0,4.4,0,6.6c-3.8,0-7.6,0-11.4,0c0,1.7,0,3.3,0,5h9.8c0,2.1,0,4.3,0,6.4h-9.8c0,1.6,0,3.1-0.1,4.7
	c4.2,0.2,8.3,0,12.5,0.1v6.4h-20V64.6z"/>
<path d="M220.9,64.6h18.8c0,2.2,0,4.4,0,6.6h-11.2c0,1.7,0,3.3,0,5c3.3,0,6.5,0,9.8,0c0,2.1,0,4.3,0,6.4h-9.8c0,1.6,0,3.2,0,4.8
	c4.1,0.1,8.2,0,12.3,0c0,2.1,0,4.3,0,6.4c-6.6,0-13.2,0-19.8,0L220.9,64.6z"/>
<path d="M246.5,64.6c4.5,0.1,9-0.1,13.5,0.1c2.9,0.2,5.9,1.7,6.8,4.6c1.6,3.7,0.4,8.5-3.3,10.4c3,4.2,4.1,9.5,6.1,14.2
	c-2.6,0-5.3,0-7.9,0c-1.4-3.2-2.4-6.5-3.9-9.7c-0.6-1.5-2.4-1.2-3.7-1.2c0,3.6,0,7.2,0,10.8h-7.6V64.6 M253.9,71.2
	c0,1.7,0,3.5,0,5.2c1.8,0,3.6,0.2,5.3-0.7c0.4-1.1,0.9-2.3,0.1-3.4C258,70.7,255.7,71.3,253.9,71.2z"/>
<path d="M281.3,64.6c2.8,0,5.6,0,8.4,0c3.4,9.7,6.6,19.5,10.3,29.2l0,0c-2.8,0.1-5.5,0.1-8.3,0.1c-0.5-1.8-1.1-3.6-1.6-5.4
	c-3.1,0-6.2,0-9.3,0c-0.5,1.8-1.2,3.6-1.7,5.4c-2.6,0-5.1,0-7.7,0C274.7,84.2,278,74.4,281.3,64.6 M283,81.7h5
	c-0.9-2.8-1.6-5.7-2.6-8.5C284.6,76,283.8,78.8,283,81.7L283,81.7z"/>
<path d="M31,75.6c0.7-1.6,1.4-3.1,2.1-4.6c1.3,0.6,2.7,1.2,4,1.8c-0.7,1.6-1.5,3.2-2.2,4.8C33.7,76.8,32.4,76.2,31,75.6z"/>
<path d="M25.5,78.7c1.7,2.5,3.8,4.7,6.3,6.5c-0.4,1.5-0.7,3-1,4.6c-3.1-2.6-5.5-6-6.9-9.8L25.5,78.7z"/>
<path d="M45.5,78.8c1.4,0.5,2.8,1.1,4.1,1.8c-0.8,1.5-1.4,3.1-2.2,4.7c-1.3-0.6-2.7-1.2-4-1.9C44.1,81.9,44.8,80.3,45.5,78.8z"/>
<path d="M22.9,92.7c1.1-1.3,2.1-2.7,3.3-4c1.1,0.9,2.3,1.8,3.4,2.8c-1,1.4-2.2,2.7-3.4,4C25,94.5,24,93.5,22.9,92.7z"/>
<path d="M22.2,99.3c1-1.5,2.1-2.9,3.3-4.1c1.1,1,2.1,1.9,3.3,2.8c-1,1.4-2.2,2.7-3.4,3.9C24.4,101.1,23.3,100.2,22.2,99.3z"/>
<path d="M37,96.2c2.2,0,1.2,4.7,3.7,3.4c0.1-0.4,0.3-1.1,0.3-1.5c1.1,1.1,2.2,4.2-0.2,4.2C38.3,101.4,37.7,98.5,37,96.2z"/>
</svg>
