<svg xmlns="http://www.w3.org/2000/svg" viewBox="0 0 300 120"><defs><style>.a{fill:#fff;}</style></defs><title>aljazeera</title><path class="a" d="M30.2,11.51h1.68c-1.41,1.26-3,2.75-3,4.79-.29,3.73,1.75,7.12,3.93,10C41.34,37,50.22,47.74,55.51,60.5c2.95,7.24,4.17,15.55,1.64,23.09a15,15,0,0,1-9.48,9.74,18.16,18.16,0,0,1-12-.49,30.25,30.25,0,0,1,1.08-5.13,13.13,13.13,0,0,0,13.35-3.1c5.37-5.27,6.37-13.85,3.53-20.64C48.39,50.67,38.41,40.11,30,28.76a5.92,5.92,0,0,0,.45,7.69c3.84,4.45,8.5,8.32,11.2,13.65A13.55,13.55,0,0,1,43,59.78a26,26,0,0,0,4.45-4.5c1.24,5,2.89,10.29,1.56,15.43-2.29,6.76-9.17,10.24-12.65,16.18-2,5.64-1.36,11.84-2.94,17.59a5.42,5.42,0,0,1-4,4H26.88c-4-.71-6.87-3.94-8.73-7.34-.67-1-1.82-3.37.38-3.25,1.72,2.59,3.65,5.78,7.1,6,2.36-.34,3.8-2.44,4.4-4.57,1.25-5.36,1.09-11.08,3.24-16.21,3.1-6.07,9.59-9.45,12.93-15.34a9.94,9.94,0,0,0,1.23-4.63c-2.94,2.85-6.86,4.67-9.12,8.22-.69-2.43-2.55-5.49-.42-7.73,2.4-2.72,4.06-6.79,2.21-10.25-2.26-4.38-5.84-7.91-9.35-11.31,1,5.88-.89,11.9-3.72,17a27,27,0,0,0-3.59,13.12L22,73.71a28.1,28.1,0,0,1-.1-7.73c1.09-7.88,6.44-14.44,7.39-22.35.61-3.74-2.39-6.82-2.21-10.5-.06-2.12,1.07-4,2.08-5.75-1.27-2.73-2.44-5.65-2.21-8.71.19-2.6,1-5.64,3.6-6.8Z"/><path class="a" d="M20.14,38.3c-1.29-1.78-.66-4.82,1.73-5.14a3.26,3.26,0,0,1,3.94,2.49A24.54,24.54,0,0,1,24.4,53.31c-3.22,6.62-6.54,13.33-7.89,20.63a46.54,46.54,0,0,0-.11,17.43l-1.28,1.06A51.91,51.91,0,0,1,17.59,61.6c2.12-6,5.88-11.29,7.44-17.49-3.37,4.8-9.18,6.8-13.53,10.51C5.14,59.11.85,67.27,2.95,75.11c.5-1.92,1.3-4.61,3.64-4.86,2.91-.56,4.62,2.5,5.48,4.79,1.12,3,1.95,6.95-.17,9.72-2.63,1.85-5.8-.15-7.51-2.3,0,3.61.83,7.64,3.69,10.11a6.39,6.39,0,0,0,9.4-2.06c2.9-4.62,2.44-10.31,4-15.34,2.1-3,5.62-4.8,7.52-8,.14,2.2,1,4.38.58,6.57-1.55,2.6-4.3,4.21-6.38,6.36-.87,5.26-.62,11-3.52,15.69-2.3,3.73-7.86,3.66-11,1.08C3.48,92.78,2.16,85.68,2.4,79.43c-2.81-6.34-3.59-14,0-20.24,3.65-6.49,10.7-9.68,16.74-13.48C21.94,44,24.74,41.64,25,38.17c-1.37,1-3.3,1.59-4.66.06,2.06,1.43,1.85,5.38-.89,5.84-2.48.87-4.9-2.42-3.34-4.55.71-1.5,2.61-1.54,4-1.21M4.84,79.38c1.6,1,4.16,1.43,5.32-.44,1.25-1.31-.21-3.66-1.9-3.31S5.42,77.78,4.84,79.38Z"/><path class="a" d="M36.88,54c.3.93.9,2.08.1,2.95-2.27,2.63-4.62,5.21-7.07,7.68,0-.63.06-1.88.07-2.5C32.06,59.21,35,57,36.88,54Z"/><path class="a" d="M9.58,61.62c1.06-1.81,2.54-3.88,4.7-4.36-1,2.16-5.83,4.75-2.77,7A8.43,8.43,0,0,1,13,62a4,4,0,0,1-2,4.25C8.65,66.4,8.82,63.11,9.58,61.62Z"/><path class="a" d="M77.41,64.61c2.8,0,5.59,0,8.38,0Q90.94,79.21,96,93.86c-2.73,0-5.46,0-8.19,0-.5-1.8-1.06-3.6-1.63-5.39-3.13,0-6.28-.11-9.4.1-.42,1.79-1,3.53-1.52,5.29-2.58,0-5.16,0-7.74.06,3.22-9.79,6.65-19.51,9.91-29.29m1.63,17c1.72,0,3.44,0,5.16,0-.84-2.84-1.7-5.66-2.54-8.49C80.64,76,79.93,78.84,79,81.65Z"/><path class="a" d="M100.43,64.61c2.52,0,5,0,7.56,0,.11,7.49,0,15,.06,22.47h9.2c0,2.27,0,4.54,0,6.81H100.43Q100.4,79.23,100.43,64.61Z"/><path class="a" d="M123.67,64.61c2.55,0,5.11-.08,7.65.08-.11,10,0,20.09,0,30.14-.08,3.35-1.46,7-4.52,8.72-3.31,1.72-7.36,1-10.63-.45.55-2.15,1.17-4.28,1.74-6.43,2.21,1,5.43.33,5.62-2.49C123.91,84.34,123.54,74.46,123.67,64.61Z"/><path class="a" d="M145.43,64.59c2.81,0,5.62,0,8.42,0,3.31,9.77,6.73,19.5,10.13,29.23-2.72,0-5.43,0-8.15,0-.59-1.8-1.13-3.61-1.68-5.43-3.12,0-6.24-.1-9.35.07-.54,1.78-1.11,3.54-1.64,5.31-2.57,0-5.15.11-7.71-.07,3.37-9.71,6.62-19.47,10-29.18m4.14,8.53c-.85,2.84-1.74,5.67-2.53,8.51,1.7,0,3.4,0,5.1,0C151.28,78.81,150.46,76,149.57,73.12Z"/><path class="a" d="M168.75,64.61c6.75,0,13.5,0,20.25,0-.07,2.54.12,5.08-.1,7.61-3.41,5-6.93,10-10.4,15,3.56,0,7.12,0,10.68,0q0,3.31,0,6.62c-6.93,0-13.86,0-20.78,0a72.61,72.61,0,0,1,0-7.7c3.44-5,7-9.94,10.36-15-3.35,0-6.71,0-10.06,0Q168.75,67.91,168.75,64.61Z"/><path class="a" d="M195.2,64.61h19q0,3.31,0,6.61c-3.81,0-7.61,0-11.42,0,0,1.67,0,3.33,0,5h9.81q0,3.21,0,6.41h-9.81c0,1.57,0,3.14-.06,4.72,4.16.21,8.32,0,12.48.09v6.41h-20Z"/><path class="a" d="M220.85,64.62h18.84q0,3.31,0,6.61H228.46q0,2.5,0,5c3.27,0,6.54,0,9.82,0q0,3.21,0,6.41h-9.81c0,1.59,0,3.18,0,4.77,4.08.09,8.16,0,12.25,0q0,3.21,0,6.41c-6.61,0-13.22,0-19.83,0Z"/><path class="a" d="M246.5,64.61c4.51.06,9-.13,13.53.1,2.85.18,5.88,1.65,6.78,4.55,1.64,3.67.4,8.54-3.34,10.36,3,4.22,4.07,9.51,6.13,14.23-2.65,0-5.3,0-7.94,0-1.35-3.2-2.36-6.53-3.87-9.66-.61-1.51-2.4-1.15-3.67-1.22,0,3.61,0,7.23,0,10.84H246.5V64.61m7.41,6.61c0,1.74,0,3.47,0,5.21,1.79,0,3.65.22,5.27-.73.42-1.09.9-2.33.11-3.4C258,70.73,255.71,71.32,253.91,71.22Z"/><path class="a" d="M281.32,64.62c2.81,0,5.62,0,8.42,0,3.38,9.74,6.65,19.53,10.25,29.18h0c-2.77.09-5.54.06-8.3.06q-.79-2.71-1.62-5.39c-3.1,0-6.2,0-9.29,0-.55,1.82-1.17,3.61-1.72,5.43-2.57,0-5.14,0-7.7,0,3.29-9.75,6.66-19.48,10-29.23m1.61,17H288c-.87-2.84-1.64-5.71-2.56-8.54Q284.2,77.37,282.94,81.64Z"/><path class="a" d="M31,75.55c.69-1.55,1.39-3.09,2.12-4.62,1.34.59,2.67,1.2,4,1.77-.7,1.62-1.45,3.21-2.2,4.8C33.69,76.81,32.36,76.17,31,75.55Z"/><path class="a" d="M25.53,78.74a25.21,25.21,0,0,0,6.32,6.46c-.4,1.51-.72,3-1,4.58A23.07,23.07,0,0,1,24,80Z"/><path class="a" d="M45.46,78.81a38,38,0,0,1,4.08,1.84c-.75,1.54-1.43,3.11-2.16,4.66-1.33-.62-2.67-1.21-4-1.89C44.08,81.87,44.79,80.35,45.46,78.81Z"/><path class="a" d="M22.87,92.66c1.07-1.35,2.14-2.7,3.26-4,1.13.92,2.28,1.83,3.39,2.79a37.24,37.24,0,0,1-3.37,4C25.05,94.51,24,93.54,22.87,92.66Z"/><path class="a" d="M22.2,99.35a24.34,24.34,0,0,1,3.33-4.13c1.07,1,2.13,1.94,3.27,2.83A35.78,35.78,0,0,1,25.43,102,39.07,39.07,0,0,0,22.2,99.35Z"/><path class="a" d="M37,96.23c2.16,0,1.22,4.66,3.72,3.39.09-.37.26-1.11.34-1.47,1.11,1.08,2.24,4.2-.22,4.2C38.33,101.42,37.69,98.49,37,96.23Z"/></svg>