<svg id="Camada_1" data-name="Camada 1" xmlns="http://www.w3.org/2000/svg" viewBox="0 0 300 120"><defs><style>.cls-1{fill:#fff;}</style></defs><title>amazon</title><g id="_ffffffff" data-name="#ffffffff"><path class="cls-1" d="M8.59,24.38C15.09,20.09,23.69,19.6,31,22a13.53,13.53,0,0,1,9.51,11.92c.44,8-.06,16.11.24,24.16C41,61.48,43.57,64,45,67c-2.94,2.55-5.68,5.36-8.87,7.6-3.26-.57-4.73-4.21-6.72-6.51-3.1,3.08-6.72,6.18-11.28,6.51-5.33.83-11.64-.05-15-4.74C-2,62.38-.22,50.49,7.81,45.75c6-3.5,13.09-3.81,19.79-4.48-.13-2.82.51-6.08-1.45-8.44-2.37-2.92-7-2.69-9.84-.51-2,1.47-2.16,4.27-3.85,6-3.61-1-7.59-.35-11-2.09.88-4.64,3-9.27,7.11-11.89M17.9,50.82C13.3,53.24,12.34,60.4,16,64c2.63,2.33,6.73,1.11,8.73-1.44,3.32-3.82,2.94-9.19,2.86-13.91C24.3,49.13,20.81,49.09,17.9,50.82Z"/><path class="cls-1" d="M63.58,30.06c1.89-5.14,6.63-9.55,12.43-8.93,5.65-.53,10,4,11.93,8.87,2.63-8.9,15-11.82,21.67-5.65,3.48,2.79,4.23,7.45,4.2,11.65,0,10.32,0,20.65,0,31,0,2.42.19,4.89-.49,7.25-3.74,0-7.48.18-11.21-.09L101.17,73c-.1-10.65,0-21.31,0-32-.15-2.58-.26-6-3-7.22a6.34,6.34,0,0,0-8.69,5.06c-1.19,9,0,18.12-.51,27.17-.35,2.67,1.06,5.87-.85,8.12a86.21,86.21,0,0,1-11,0l-.77-1.27c-.13-10.64,0-21.28-.06-31.91-.15-2.71-.7-6.14-3.52-7.34-2.28-.71-5.22-.41-6.68,1.68s-1.74,5.06-1.83,7.7c-.13,10,.13,20.07-.11,30.1-1.36,2-4,.92-6,1.21-2.18-.26-4.78.68-6.58-.95-.25-15.79,0-31.6-.12-47.4.19-1.16-.41-2.91.87-3.6a54,54,0,0,1,10.64.06C64.2,24.57,63.11,27.56,63.58,30.06Z"/><path class="cls-1" d="M130.17,24.36a26.4,26.4,0,0,1,24-1.72A13.21,13.21,0,0,1,162.11,34c.48,8-.05,16,.26,23.92.1,3.5,2.8,6.06,4.22,9.06-2.9,2.41-5.51,5.17-8.52,7.43-3.41.16-5.1-4.12-7-6.43-2.95,3.11-6.55,6.06-11,6.55s-9.51.55-13.15-2.47c-4.76-3.74-5.88-10.55-4.6-16.18,1-5.53,5.43-10,10.67-11.86s10.82-2.24,16.3-2.78c-.11-3,.38-6.48-1.86-8.85-2.84-2.66-7.77-2.11-10.37.64-1.11,1.65-1.77,3.55-2.75,5.28-3.71-.83-7.74-.34-11.22-2.07.89-4.62,3-9.26,7.08-11.88m9,26.67c-4.15,2.57-5,9.05-1.88,12.71,2.41,2.55,6.6,1.69,8.73-.78,3.59-3.8,3.33-9.4,3.26-14.25C145.83,49.13,142.13,49.07,139.14,51Z"/><path class="cls-1" d="M228.48,21.69c5.73-1.25,12.14-.62,16.91,3,6.47,5,9.18,13.44,9.46,21.34.49,8.1-1.28,16.79-6.89,22.93a19.3,19.3,0,0,1-19.07,5.62c-6.71-1.48-11.65-7.21-13.86-13.49a39.58,39.58,0,0,1,.33-27c2.24-5.81,7-10.85,13.12-12.45m2.94,9.84C227.11,34,226.84,39.6,226.63,44c.1,6.24-.65,13.1,2.71,18.69,2,3.38,7.27,3.1,9.28-.13,2.9-4.59,2.63-10.34,2.68-15.55-.17-4.42-.27-9.07-2.24-13.11C237.65,31.15,234.11,30.53,231.42,31.53Z"/><path class="cls-1" d="M282.45,21.62c4.47-1,9.82-.7,13.2,2.79,3.49,3.13,3.94,8.07,4.35,12.46V73.6c-4,1.07-8.25.58-12.38.59-.77-8-.16-16.1-.35-24.15-.19-4.73.67-9.74-1.2-14.23-1.4-3.16-6.07-3.49-8.34-1.12s-2.85,6-3.06,9.29c-.25,9.8.24,19.62-.22,29.41-3.41,1.74-7.65.65-11.38.73L262,73c-.22-16.72-.26-33.48,0-50.2,3.72-1.39,7.9-.42,11.8-.48.1,2.94.08,5.88,0,8.82C275.7,27.28,278,22.92,282.45,21.62Z"/><path class="cls-1" d="M173.53,23.92c-.42-2,2.15-2,3.42-2q13.58,0,27.16,0c1.39,0,3.78,0,3.38,2.11-.08,2.82.71,6-1.15,8.46C200.7,40.69,195.11,49,189.39,57.16c6-.14,12.19.74,17.42,3.81,2.5,1.4,1.4,4.68,1.67,7-.26,1.72.74,4.4-1.57,5-6.75-3.24-14.36-5.17-21.85-3.83-4.23.42-8.05,2.35-11.95,3.89l-1.24-1c.08-4.75-1.32-10.28,2.05-14.26,5.8-8.41,11.45-16.91,17.32-25.28-5.77-.24-11.62.45-17.33-.34C173.13,29.48,173.58,26.65,173.53,23.92Z"/><path class="cls-1" d="M177.09,78.86a33.8,33.8,0,0,1,22.44-1.16c2.65.85,2,4.07,1.92,6.22-1.09,8.17-4.26,16.6-10.65,22.09l-2.28.55c1.67-6.92,5.53-13.4,5.51-20.66-.19-2.07-2.33-2.65-4-2.94-6.19-.94-12.36.66-18.55.75C171.81,80.83,174.89,79.95,177.09,78.86Z"/><path class="cls-1" d="M42.75,79.85l1.17-.44A158.76,158.76,0,0,0,127,101.26a156.69,156.69,0,0,0,56-12.31c2.07-1.57,5.79.33,4.17,3-3.87,3.48-8.5,6-13,8.48a116.86,116.86,0,0,1-81.08,9A115,115,0,0,1,44.53,83.61C43.71,82.55,41.36,81.43,42.75,79.85Z"/></g></svg>