<?xml version="1.0" encoding="utf-8"?>
<!-- Generator: Adobe Illustrator 23.1.0, SVG Export Plug-In . SVG Version: 6.00 Build 0)  -->
<svg version="1.1" id="Camada_1" xmlns="http://www.w3.org/2000/svg" xmlns:xlink="http://www.w3.org/1999/xlink" x="0px" y="0px"
	 viewBox="0 0 300 120" style="enable-background:new 0 0 300 120;" xml:space="preserve">
<title>aol</title>
<path d="M237.6,9.1v100.2h-22.8V8.6h22.7C237.5,8.6,237.6,9.1,237.6,9.1z M92.1,109.3l-4.9-14.6H52.2l-5.3,14.6H20L59.7,8.6h20.2
	l39.3,100.8H92.1z M161.6,111.4c-27.4,0-40.5-21.6-40.5-40.1s13.2-40.2,40.5-40.2s40.5,21.6,40.5,40.2S189,111.4,161.6,111.4z
	 M264.9,110c-8.4,0-15.1-6.8-15.1-15.1c0-8.4,6.8-15.1,15.1-15.1c8.4,0,15.1,6.8,15.1,15.1S273.2,110.1,264.9,110
	C264.9,110.1,264.9,110.1,264.9,110z M59.3,74.3h21.1L69.9,39.2L59.3,74.3z M161.6,52.2c-9.8,0-18,8.1-18,19s8.3,19,18,19
	s18-8,18-19S171.4,52.2,161.6,52.2z"/>
</svg>
