<svg xmlns="http://www.w3.org/2000/svg" viewBox="0 0 300 120"><defs><style>.a{fill:#fff;}</style></defs><title>aol</title><path class="a" d="M237.56,9.11v100.2H214.81V8.56h22.66l.09.55ZM92.06,109.31,87.14,94.73H52.22l-5.29,14.58H20L59.65,8.56H79.89l39.28,100.75Zm69.55,2.13c-27.4,0-40.49-21.63-40.49-40.11s13.19-40.21,40.49-40.21,40.48,21.64,40.48,40.21S189,111.44,161.61,111.44Zm103.25-1.39A15.14,15.14,0,1,1,280,94.91a15.14,15.14,0,0,1-15.14,15.14ZM59.28,74.3H80.36L69.86,39.2ZM161.61,52.2c-9.75,0-18,8.08-18,19s8.27,19,18,19,18-8,18-19S171.36,52.2,161.61,52.2Z"/></svg>