<?xml version="1.0" encoding="utf-8"?>
<!-- Generator: Adobe Illustrator 23.0.6, SVG Export Plug-In . SVG Version: 6.00 Build 0)  -->
<svg version="1.1" id="Camada_1" xmlns="http://www.w3.org/2000/svg" xmlns:xlink="http://www.w3.org/1999/xlink" x="0px" y="0px"
	 viewBox="0 0 300 120" style="enable-background:new 0 0 300 120;" xml:space="preserve">
<style type="text/css">
	.st0{fill-rule:evenodd;clip-rule:evenodd;}
</style>
<title>AP_RGB</title>
<desc>Created with Sketch.</desc>
<g id="Page-1">
	<g id="AP_RGB">
		<g id="Group-4">
			<g id="Clip-2">
			</g>
			<polyline id="Fill-3" class="st0" points="93.5,96.4 206.5,96.4 206.5,110 93.5,110 93.5,96.4 			"/>
		</g>
		<polyline id="Fill-5" class="st0" points="119.5,10 100.5,67 114.3,67 127.1,26.8 133.6,46.9 125.3,46.9 121.9,58.4 137.4,58.4 
			140.1,67 154.3,67 135.3,10 119.5,10 		"/>
		<path id="Fill-6" class="st0" d="M175.9,10h-19.8v57h13.6V21.5h5.5c6.4,0,10,3,10,8.5c0,5.4-3.6,8.5-10,8.5h-0.9V50h1.5
			c14.8,0,23.4-7.4,23.4-20C199.3,17.1,190.6,10,175.9,10"/>
	</g>
</g>
</svg>
