<?xml version="1.0" encoding="utf-8"?>
<!-- Generator: Adobe Illustrator 23.0.6, SVG Export Plug-In . SVG Version: 6.00 Build 0)  -->
<svg version="1.1" id="Layer_1" xmlns="http://www.w3.org/2000/svg" xmlns:xlink="http://www.w3.org/1999/xlink" x="0px" y="0px"
	 viewBox="0 0 300 120" style="enable-background:new 0 0 300 120;" xml:space="preserve">
<path d="M126.2,94.1V46.9h-0.3L107,94.1h-7.3L80.8,46.9h-0.3v47.2h-8.7v-64h11.2l20.3,51h0.3l20.3-51h11.5v64L126.2,94.1L126.2,94.1
	z M184.6,94.1h-9.1v-8h-0.3c-2.4,5.6-7.3,8.7-14.3,8.7c-10.1,0-16.1-6.6-16.1-17.5V47.2h9.4v28.3c0,7,3.5,10.8,9.8,10.8
	c7,0,10.8-4.9,10.8-12.2V47.2h9.4L184.6,94.1L184.6,94.1z M210.5,46.5c10.8,0,17.5,5.9,17.8,14.7h-8.7c-0.7-4.5-3.8-7.3-9.1-7.3
	s-8.7,2.4-8.7,6.3c0,2.8,2.1,4.9,7,5.9l7.3,1.7c9.4,2.1,12.9,5.9,12.9,12.6c0,8.4-7.7,14.3-18.5,14.3c-11.5,0-18.5-5.6-19.2-14.7
	h9.4c0.7,4.9,4.2,7.3,9.8,7.3s9.1-2.4,9.1-6.3c0-3.1-1.7-4.9-6.6-5.9l-7.3-1.7c-8.7-2.1-12.9-6.3-12.9-13.3
	C192.7,52.1,199.6,46.5,210.5,46.5z M236,35c0-3.1,2.4-5.6,5.6-5.6c3.1,0,5.6,2.4,5.6,5.6c0,3.1-2.4,5.6-5.6,5.6
	C238.4,40.6,236,38.2,236,35L236,35z M236.7,47.2h9.4v46.8h-9.4V47.2z M286,63.3c-1-4.9-4.5-9.1-10.8-9.1c-7.3,0-12.2,6.3-12.2,16.1
	c0,10.1,4.9,16.1,12.2,16.1c5.9,0,9.4-3.1,10.8-8.7h9.1c-1,9.8-8.7,16.8-19.9,16.8c-13.3,0-21.7-9.1-21.7-24.1
	c0-14.7,8.4-24.1,21.7-24.1c11.9,0,18.9,7.7,19.9,16.8L286,63.3L286,63.3z M42.7,36.4c-2.4,2.8-6.3,5.2-10.1,4.9
	c-0.7-4.2,1.4-8.4,3.5-10.8c2.4-3.1,6.6-5.2,10.1-5.2C46.5,29.1,45.1,33.3,42.7,36.4L42.7,36.4z M46.2,42c2.1,0,8.4,0.7,12.6,7
	c-0.3,0.3-7.3,4.5-7.3,13.3c0,10.5,9.1,14,9.1,14c0,0.3-1.4,4.9-4.5,9.8c-2.8,4.2-5.9,8.4-10.5,8.4s-5.9-2.8-11.2-2.8
	s-7,2.8-11.2,2.8c-4.5,0-8-4.5-10.8-8.7C6.3,77,1.8,61.2,8.1,50.7c2.8-5.2,8.4-8.7,14-8.7c4.5,0,8.7,3.1,11.2,3.1
	C35.7,45.1,40.6,41.6,46.2,42L46.2,42z"/>
</svg>
