<?xml version="1.0" encoding="UTF-8"?>
<!-- Generator: Adobe Illustrator 25.1.0, SVG Export Plug-In . SVG Version: 6.00 Build 0)  -->
<svg version="1.1" id="Layer_1" xmlns="http://www.w3.org/2000/svg" xmlns:xlink="http://www.w3.org/1999/xlink" x="0px" y="0px" viewBox="0 0 10000 3050" style="enable-background:new 0 0 10000 3050;" xml:space="preserve">
<path id="_Maps" style="fill-rule:evenodd;clip-rule:evenodd;fill:#000;" d="M1393.93,402.59  c76.49-92.42,132.26-221.49,132.26-350.56c0-17.53-1.59-35.06-4.78-49.4c-125.88,4.78-277.26,84.45-368.09,191.22  c-71.71,81.27-137.04,208.74-137.04,339.41c0,19.12,3.19,38.24,4.78,44.62c11.03,2.09,22.23,3.15,33.46,3.19  C1167.66,581.05,1309.48,504.57,1393.93,402.59z M1483.17,608.14c-189.62,0-344.19,114.73-441.39,114.73  c-105.17,0-243.8-108.36-407.93-108.36c-312.32,0-629.42,258.14-629.42,745.74c0,302.76,117.92,623.05,262.92,830.2  c124.29,175.28,232.65,318.7,388.81,318.7c154.57,0,223.09-103.58,415.89-103.58c196,0,239.02,100.39,411.12,100.39  c168.91,0,282.04-156.16,388.81-309.14c119.51-175.28,168.9-347.37,172.09-355.34c-11.15-3.19-334.63-135.44-334.63-506.72  c0-321.88,254.96-466.89,269.3-478.04C1809.83,614.52,1553.28,608.14,1483.17,608.14L1483.17,608.14z M4831.69,2491.8V192.43  h-474.86l-704.31,1754.41h-12.75L2935.46,192.43h-476.45V2491.8h371.28V860.09h11.15l664.48,1631.71h280.45l664.48-1631.71H4462  V2491.8H4831.69z M5606.56,2518.89c216.71,0,428.64-113.13,525.85-296.38h7.96v269.29h382.44V1328.57  c0-339.41-272.49-560.9-691.57-560.9c-430.24,0-699.53,226.27-717.06,541.78h368.09c25.5-140.23,145.01-231.05,333.04-231.05  c195.99,0,315.5,101.98,315.5,278.85v121.11l-446.17,25.49c-411.11,25.5-642.17,205.56-642.17,505.13  C5042.47,2313.34,5279.9,2518.89,5606.56,2518.89L5606.56,2518.89z M5726.07,2219.32c-172.09,0-286.82-87.64-286.82-226.27  c0-133.85,109.95-219.9,301.16-232.65l390.4-23.9v129.07C6130.81,2069.53,5950.75,2219.32,5726.07,2219.32z M7719.95,774.04  c-245.39,0-436.61,124.29-532.22,320.29h-7.97v-291.6h-387.21v2245.2h396.77v-836.58h7.97c92.42,189.63,283.64,307.54,529.03,307.54  c423.87,0,694.76-333.03,694.76-871.63C8421.08,1107.08,8148.59,774.04,7719.95,774.04z M7598.85,2193.82  c-246.99,0-411.12-215.11-412.71-546.56c1.59-328.25,165.72-546.56,412.71-546.56c256.54,0,415.89,213.53,415.89,546.56  C8014.74,1981.89,7855.39,2193.82,7598.85,2193.82z M8596.8,1287.14c0,250.17,162.54,409.52,486.01,481.23l280.45,62.14  c176.88,39.84,237.43,97.21,237.43,199.19c0,125.88-119.51,205.56-312.32,205.56c-200.78,0-313.91-82.87-344.19-246.99h-390.4  c31.87,326.66,293.2,537,734.59,537c414.3,0,707.5-215.12,707.5-533.82c0-245.39-135.44-380.84-486.01-458.92l-280.45-62.14  c-176.87-39.84-246.99-106.76-246.99-203.97c0-124.29,116.33-207.15,291.61-207.15c183.25,0,296.39,97.21,312.32,250.18h369.69  c-9.57-320.29-270.89-541.78-682.01-541.78C8866.1,767.67,8596.8,978.01,8596.8,1287.14L8596.8,1287.14z"/>
</svg>