<svg xmlns="http://www.w3.org/2000/svg" viewBox="0 0 300 120"><defs><style>.a{fill:#fff;}</style></defs><title>arxiv</title><path class="a" d="M214.3,18.28c.6.73,1.69,1.44,1.73,2.19.17,3.94.08,7.9.08,11.83H200.65V19L212,18.28Z"/><path class="a" d="M119.91,21.36c6.21,0,11.71-.11,17.21.09a4.67,4.67,0,0,1,3.18,2c4.22,6.71,8.25,13.54,12.37,20.32.57.94,1.25,1.81,2.12,3a19.7,19.7,0,0,0,1.89-2.09c4.58-6.93,9.18-13.84,13.63-20.84,1.15-1.82,2.33-2.74,4.58-2.6,3.29.21,6.6.06,10.61.06-3.22,5.14-6,9.77-9,14.32-4.24,6.54-8.48,13.09-12.92,19.5-1.61,2.32-1.7,4.07-.18,6.52,7,11.28,13.79,22.69,20.64,34.07.71,1.19,1.28,2.45,2.15,4.13-6.47,0-12.53.12-18.58-.14-.93,0-1.94-1.77-2.62-2.9-4.79-7.92-9.5-15.88-14.44-24.19a21.09,21.09,0,0,0-2.07,2.26C143.8,82,139,89.17,134.55,96.47c-1.5,2.44-3,3.77-6,3.52s-6.12-.06-10.13-.06c3-4.52,5.55-8.42,8.11-12.32,5.12-7.81,10.12-15.71,15.4-23.4,1.6-2.33,1.31-4,0-6.2C135,46.86,128.26,35.59,121.47,24.33,121,23.59,120.67,22.8,119.91,21.36Z"/><path class="a" d="M14.89,54.23c0-2.5-.15-5.64.11-8.75.07-.73,1.42-1.62,2.36-2A48,48,0,0,1,43,40.64c11.27,2,16,5.66,16.47,17.76.29,7.3,0,14.62,0,21.92,0,1.41,0,2.83.09,4.23.42,5.25.95,5.84,5.81,6.64.08.1.21.2.21.3-.14,2.9.73,7.62-.62,8.38a15.49,15.49,0,0,1-14,.35c-2.51-1.15-4.52-3.41-7-5.35-2.79,1.55-5.91,3.73-9.36,5.15C21.6,105.36,9.49,96.85,10,82.87c.21-5.59,4.73-13,11.22-15.4a45.6,45.6,0,0,1,18.78-3c2.82.17,4.09-.47,4.08-3.78,0-7.06-2.53-10.55-10.52-10C27.51,51,21.54,52.89,14.89,54.23ZM44.05,73.74c-3.08,0-5.52-.14-7.95,0-7.41.49-12.06,5.87-10.23,11.7.89,2.87,4.9,5.6,7.84,5C39,89.31,44.32,86.3,44.1,83.29S44.05,77.2,44.05,73.74Z"/><path class="a" d="M229.39,41.45c5.48,0,10.33-.17,15.16.13,1,.07,2.37,1.67,2.84,2.85,4.46,11.15,8.74,22.36,13.14,33.53a12.76,12.76,0,0,0,1.9,2.6,10.84,10.84,0,0,0,2-2.47c4.35-11,8.76-22.05,12.8-33.19,1-2.91,2.45-3.77,5.27-3.53,2.28.19,4.59,0,7.54,0-.49,1.64-.79,2.92-1.25,4.14Q278.86,71.33,269,97.06c-.85,2.26-2,3.18-4.49,3a67.15,67.15,0,0,0-9.62,0c-2.51.18-3.63-.9-4.46-3.09q-9.23-24.56-18.59-49.06C231.1,45.93,230.34,43.94,229.39,41.45Z"/><path class="a" d="M95.74,49.48c5.63-6.73,12-10.24,20.64-9,.3,4.17.75,8,.7,11.77,0,.76-2.09,2.26-3,2.12-8-1.27-13.53.94-17.71,7.73a8.14,8.14,0,0,0-.82,4c-.06,9.61,0,19.23,0,28.84,0,1.52-.14,3-.23,4.83H79.69V41.44c4.79,0,9.37-.13,13.93.13.76,0,1.8,1.73,2,2.8A25.68,25.68,0,0,1,95.74,49.48Z"/><path class="a" d="M200.44,100.09V41.68h15.29a22.14,22.14,0,0,1,.33,2.82V97.14c0,2.45-.21,3.64-3.43,3.1C208.81,99.6,204.78,100.09,200.44,100.09Z"/></svg>