<?xml version="1.0" encoding="utf-8"?>
<!-- Generator: Adobe Illustrator 23.0.6, SVG Export Plug-In . SVG Version: 6.00 Build 0)  -->
<svg version="1.1" id="Camada_1" xmlns="http://www.w3.org/2000/svg" xmlns:xlink="http://www.w3.org/1999/xlink" x="0px" y="0px"
	 viewBox="0 0 300 120" style="enable-background:new 0 0 300 120;" xml:space="preserve">
<title>arxiv</title>
<path d="M214.3,18.3c0.6,0.7,1.7,1.4,1.7,2.2c0.2,3.9,0.1,7.9,0.1,11.8h-15.5V19l11.4-0.7H214.3z"/>
<path d="M119.9,21.4c6.2,0,11.7-0.1,17.2,0.1c1.3,0.2,2.4,0.9,3.2,2c4.2,6.7,8.3,13.5,12.4,20.3c0.6,0.9,1.3,1.8,2.1,3
	c0.7-0.7,1.3-1.3,1.9-2.1c4.6-6.9,9.2-13.8,13.6-20.8c1.1-1.8,2.3-2.7,4.6-2.6c3.3,0.2,6.6,0.1,10.6,0.1c-3.2,5.1-6,9.8-9,14.3
	c-4.2,6.5-8.5,13.1-12.9,19.5c-1.6,2.3-1.7,4.1-0.2,6.5c7,11.3,13.8,22.7,20.6,34.1c0.7,1.2,1.3,2.4,2.1,4.1
	c-6.5,0-12.5,0.1-18.6-0.1c-0.9,0-1.9-1.8-2.6-2.9c-4.8-7.9-9.5-15.9-14.4-24.2c-0.7,0.7-1.4,1.5-2.1,2.3
	c-4.7,7.1-9.5,14.3-13.9,21.6c-1.5,2.4-3,3.8-6,3.5s-6.1-0.1-10.1-0.1c3-4.5,5.6-8.4,8.1-12.3c5.1-7.8,10.1-15.7,15.4-23.4
	c1.6-2.3,1.3-4,0-6.2c-6.9-11.1-13.7-22.4-20.5-33.7C121,23.6,120.7,22.8,119.9,21.4z"/>
<path d="M14.9,54.2c0-2.5-0.1-5.6,0.1-8.8c0.1-0.7,1.4-1.6,2.4-2c8.1-3.3,17-4.3,25.6-2.8c11.3,2,16,5.7,16.5,17.8
	c0.3,7.3,0,14.6,0,21.9c0,1.4,0,2.8,0.1,4.2c0.4,5.3,1,5.8,5.8,6.6c0.1,0.1,0.2,0.2,0.2,0.3c-0.1,2.9,0.7,7.6-0.6,8.4
	c-4.3,2.3-9.5,2.5-14,0.3c-2.5-1.2-4.5-3.4-7-5.3c-2.8,1.6-5.9,3.7-9.4,5.2c-13,5.3-25.1-3.2-24.6-17.2c0.2-5.6,4.7-13,11.2-15.4
	c6-2.3,12.4-3.3,18.8-3c2.8,0.2,4.1-0.5,4.1-3.8c0-7.1-2.5-10.5-10.5-10C27.5,51,21.5,52.9,14.9,54.2z M44,73.7c-3.1,0-5.5-0.1-8,0
	c-7.4,0.5-12.1,5.9-10.2,11.7c0.9,2.9,4.9,5.6,7.8,5c5.3-1.1,10.6-4.1,10.4-7.1S44,77.2,44,73.7z"/>
<path d="M229.4,41.5c5.5,0,10.3-0.2,15.2,0.1c1,0.1,2.4,1.7,2.8,2.8c4.5,11.2,8.7,22.4,13.1,33.5c0.5,0.9,1.2,1.8,1.9,2.6
	c0.8-0.7,1.5-1.6,2-2.5c4.4-11,8.8-22,12.8-33.2c1-2.9,2.5-3.8,5.3-3.5c2.3,0.2,4.6,0,7.5,0c-0.5,1.6-0.8,2.9-1.3,4.1
	c-6.6,17.2-13.2,34.4-19.8,51.5c-0.9,2.3-2,3.2-4.5,3c-3.2-0.2-6.4-0.2-9.6,0c-2.5,0.2-3.6-0.9-4.5-3.1
	c-6.2-16.4-12.3-32.7-18.6-49.1C231.1,45.9,230.3,43.9,229.4,41.5z"/>
<path d="M95.7,49.5c5.6-6.7,12-10.2,20.6-9c0.3,4.2,0.8,8,0.7,11.8c0,0.8-2.1,2.3-3,2.1c-8-1.3-13.5,0.9-17.7,7.7
	c-0.6,1.2-0.9,2.6-0.8,4c-0.1,9.6,0,19.2,0,28.8c0,1.5-0.1,3-0.2,4.8H79.7V41.4c4.8,0,9.4-0.1,13.9,0.1c0.8,0,1.8,1.7,2,2.8
	C95.8,46.1,95.9,47.8,95.7,49.5z"/>
<path d="M200.4,100.1V41.7h15.3c0.2,0.9,0.3,1.9,0.3,2.8v52.6c0,2.4-0.2,3.6-3.4,3.1C208.8,99.6,204.8,100.1,200.4,100.1z"/>
</svg>
