<svg id="Camada_1" data-name="Camada 1" xmlns="http://www.w3.org/2000/svg" viewBox="0 0 300 120"><defs><style>.cls-1{fill:#fff;}</style></defs><title>baidu</title><path class="cls-1" d="M168.21,108.22a39.59,39.59,0,0,1-11.12-1.74,29.21,29.21,0,0,0-6.49-1.18c-1.45-.1-2.91-.13-4.37-.12a35.16,35.16,0,0,0-7,.92,58,58,0,0,1-8.41,1.1,55.54,55.54,0,0,1-7.74,0,13.19,13.19,0,0,1-9.32-4.86A18.39,18.39,0,0,1,110.14,95a16.73,16.73,0,0,1,3.08-15.08,35.27,35.27,0,0,1,6.26-6.07,80.87,80.87,0,0,0,10.37-9.55,33.42,33.42,0,0,0,3.69-5,17.2,17.2,0,0,1,5.84-6,14.74,14.74,0,0,1,9-2.31,13.68,13.68,0,0,1,6.54,2.26,20.78,20.78,0,0,1,5.89,6,72.58,72.58,0,0,0,8.35,10,129.55,129.55,0,0,0,11.07,10,14.05,14.05,0,0,1,4.35,6.52,17.43,17.43,0,0,1,.44,9.55,23.19,23.19,0,0,1-1.76,5.19,12.53,12.53,0,0,1-7.63,6.59A22,22,0,0,1,168.21,108.22Zm-30-32.87h-6.74a6.24,6.24,0,0,0-1.36.16,11.64,11.64,0,0,0-7.43,5.29,10.26,10.26,0,0,0-1.55,3.59,15.82,15.82,0,0,0,0,5.9A10.62,10.62,0,0,0,123,94.83,12.08,12.08,0,0,0,129,99a7.31,7.31,0,0,0,2.12.46h13.22V66.56l-6.15-.12Zm31.54.86H163V93.58h-6.12a3.13,3.13,0,0,1-1.54-.45,2.19,2.19,0,0,1-1.23-2.07V76l-6.38.12V92.77A5.51,5.51,0,0,0,149,96.33a8.85,8.85,0,0,0,4.79,3,3.09,3.09,0,0,0,.8.11h15.18Z"/><path class="cls-1" d="M0,55.81H25.86a22,22,0,0,1,10.25,2.34,11.92,11.92,0,0,1,5.68,5.91,13.75,13.75,0,0,1,1,4.23,16.24,16.24,0,0,1-.74,6.53,10.41,10.41,0,0,1-4.78,6.1l-.15.11v.08l.58.31a12.21,12.21,0,0,1,6.52,7.89A14.73,14.73,0,0,1,44,97.58a11.48,11.48,0,0,1-6.65,7.2,20.11,20.11,0,0,1-7.1,1.51H0ZM11,96.94H27.81A5.33,5.33,0,0,0,29,96.78a5.36,5.36,0,0,0,4.34-4.93,4.29,4.29,0,0,0-.33-2.5,5.82,5.82,0,0,0-5.2-3.25c-5.46-.1-10.91,0-16.37,0H11Zm0-20.83H27.05a6,6,0,0,0,3.8-1.37,4.55,4.55,0,0,0,1.7-3,9.67,9.67,0,0,0,0-2.74,3.14,3.14,0,0,0-.73-1.69,4.12,4.12,0,0,0-1.59-1.18,6.47,6.47,0,0,0-2.61-.52H11Z"/><path class="cls-1" d="M197.46,106V69.34H215l2-4.43H196.34V57.57c.51-.15,46.64-.21,48.07-.08a63.33,63.33,0,0,1,.06,7.29h-17.3l-1.54,4.52h17.64v31.84a11,11,0,0,1-.09,1.62A3.55,3.55,0,0,1,239.6,106H197.46Zm8.74-6.62h27.23a1.62,1.62,0,0,0,.44,0,1.33,1.33,0,0,0,.57-.22,1.79,1.79,0,0,0,.73-1.44V90.85h-29ZM235,83.76c.13-.7.11-7.49,0-8-.89-.13-28.37-.08-28.81,0a71.8,71.8,0,0,0,.07,7.9Z"/><path class="cls-1" d="M84.06,105.89H57.17A10.14,10.14,0,0,1,53,105a11.26,11.26,0,0,1-4.91-4.2,8.08,8.08,0,0,1-1.22-4.33A30.24,30.24,0,0,1,47,93a8.34,8.34,0,0,1,1-2.82A11.08,11.08,0,0,1,55.35,84a5.63,5.63,0,0,1,1.42-.17H73.91c0-.21,0-.37.06-.52V81.37a3.13,3.13,0,0,0-1.09-2.49,8.25,8.25,0,0,0-3.45-1.81,3.14,3.14,0,0,0-.75,0h-19V69.45a3.84,3.84,0,0,1,.48,0c7.21,0,14.41,0,21.62,0a11.71,11.71,0,0,1,4.46,1.1A12.85,12.85,0,0,1,83.85,79a4.63,4.63,0,0,1,.21,1.28v25.61Zm-10.15-7.2a77.06,77.06,0,0,0,0-7.75H60.27a1.86,1.86,0,0,0-.77.19,5.6,5.6,0,0,0-2.37,2.15,3,3,0,0,0-.37,2.45,4.19,4.19,0,0,0,2.16,2.62,2.38,2.38,0,0,0,1.3.35H73.91Z"/><path class="cls-1" d="M280.67,54v3.62h18.76a44.06,44.06,0,0,1,0,6.08H257.91v42.16h-7.74V57.48h21.6v-3.4A85.22,85.22,0,0,1,280.67,54Z"/><path class="cls-1" d="M259.09,105.86v-5.39h7.55a3.12,3.12,0,0,0,1.09-.18c1.18-.47,2.35-1,3.5-1.48a8.12,8.12,0,0,0,1.07-.69l-12.13-7V85.56h39.06v3.85a.81.81,0,0,1-.49.83q-6.56,3.74-13.11,7.52l-.64.38c.18.12.3.22.44.3A13.41,13.41,0,0,0,289,99.79a6.2,6.2,0,0,0,1.42.17h8.84v5.38h-12a3.64,3.64,0,0,1-.74-.07,19.37,19.37,0,0,1-5.36-2c-.59-.34-1.14-.75-1.76-1.16l-.63.29a58.64,58.64,0,0,1-7.19,3,8,8,0,0,1-2.57.4h-9.06ZM272.33,91v.11c2,1.13,3.93,2.25,5.88,3.39a.58.58,0,0,0,.63,0l6.06-3.2a2.43,2.43,0,0,0,.32-.24Z"/><path class="cls-1" d="M169.82,55.77a27.2,27.2,0,0,1,.83-7.24,12.25,12.25,0,0,1,1.49-3.42,8.29,8.29,0,0,1,5-3.66,12.12,12.12,0,0,1,6.78.16A10.75,10.75,0,0,1,190.28,47,13.79,13.79,0,0,1,192,53.74a38.37,38.37,0,0,1-.24,5.67,15.9,15.9,0,0,1-1.08,4A8.66,8.66,0,0,1,184,68.87a15.67,15.67,0,0,1-7.66-.47,8.48,8.48,0,0,1-5.76-6.07,22.77,22.77,0,0,1-.72-5.75A4.57,4.57,0,0,1,169.82,55.77Z"/><path class="cls-1" d="M125.89,47.73a22.47,22.47,0,0,1-.87,7.38,10.32,10.32,0,0,1-4.52,6.07,10.8,10.8,0,0,1-9.35,1.11,9.52,9.52,0,0,1-4.48-3.46,16.22,16.22,0,0,1-3-7.52,19.17,19.17,0,0,1,1-8.37,16.17,16.17,0,0,1,2.72-5.44A8.58,8.58,0,0,1,113,34.11a8.4,8.4,0,0,1,5.21.89,14.26,14.26,0,0,1,7.36,9.73A20.09,20.09,0,0,1,125.89,47.73Z"/><path class="cls-1" d="M263.94,83.46V73.18h-4.76l-.11-5.47h4.85V65h7.22v2.53c.49.14,14.85.18,15.69,0v-2.6h7.61v2.75H300v5.48h-5.55v6.17a4.24,4.24,0,0,1-3,4,5.67,5.67,0,0,1-1.42.15H264.59Zm7.17-5.29h14.06a1.77,1.77,0,0,0,1.68-1.67V73.57a3.93,3.93,0,0,0-.06-.48H271.11Z"/><path class="cls-1" d="M152.4,29.67c0-4.07,1.72-7.45,4.16-10.55a14.86,14.86,0,0,1,3.67-3.45,13.3,13.3,0,0,1,2.15-1.12,5.52,5.52,0,0,1,4,0,11.61,11.61,0,0,1,4.83,3.34,15.18,15.18,0,0,1,3.79,7.4,11.73,11.73,0,0,1-.2,5.07,19.86,19.86,0,0,1-3.93,8,11.32,11.32,0,0,1-6,4,9.59,9.59,0,0,1-11.3-5.54,23.06,23.06,0,0,1-.87-3,7.12,7.12,0,0,1-.17-1.3C152.48,31.54,152.44,30.61,152.4,29.67Z"/><path class="cls-1" d="M146.84,27.41a18.17,18.17,0,0,1-2.2,8.41,11.5,11.5,0,0,1-4,4.5,7.75,7.75,0,0,1-8.9-.32,12.3,12.3,0,0,1-4.07-5.2,19.8,19.8,0,0,1,0-16.3,12,12,0,0,1,3.94-5.07,7.82,7.82,0,0,1,9.87.2,12.91,12.91,0,0,1,3.71,4.94A20.17,20.17,0,0,1,146.84,27.41Z"/><path class="cls-1" d="M99.62,105.72H89.2V69.45H99.57C99.69,69.9,99.74,104.65,99.62,105.72Z"/><path class="cls-1" d="M99.64,56.18v9.16H89.19V56.21C89.65,56.09,98.86,56.06,99.64,56.18Z"/><path class="cls-1" d="M138,94.07h-4.7a5.43,5.43,0,0,1-5.18-3.36,7.58,7.58,0,0,1-.32-5.48,6.2,6.2,0,0,1,3.89-4.33,2.93,2.93,0,0,1,1.09-.21H138C138.16,81.17,138.18,93.41,138,94.07Z"/></svg>