<svg id="Camada_1" data-name="Camada 1" xmlns="http://www.w3.org/2000/svg" viewBox="0 0 300 120"><defs><style>.cls-1{fill:#fff;}</style></defs><title>Bandcamp</title><path id="diamond" class="cls-1" d="M43,73.53H0L20.1,36.46h43L43,73.53"/><path id="b" class="cls-1" d="M75.94,50.66c-4.84,0-7.3,3.8-7.3,9.52,0,5.41,2.67,9.47,7.3,9.47,5.23,0,7.19-4.78,7.19-9.47,0-4.89-2.47-9.52-7.2-9.52M63.1,36.46h5.74V50.19h.1A9.39,9.39,0,0,1,76.69,46c8.2,0,12.18,6.45,12.18,14.31,0,7.23-3.52,14.05-11.22,14.05-3.53,0-7.3-.89-9-4.43h-.1v3.7H63.1V36.46h0"/><path id="a1" class="cls-1" d="M119.71,69.62l-3.86,0c-1,0-1.36-.57-1.36-2V53.78c0-5.67-5.33-7.8-10.42-7.8-5.74,0-11.42,2-11.82,9H98c.26-2.92,2.52-4.27,5.74-4.27,2.32,0,5.39.57,5.39,3.64,0,3.49-3.68,3-7.8,3.8-4.84.57-10,1.67-10,8.38,0,5.26,4.23,7.86,8.91,7.86,3.07,0,6.74-1,9-3.28.45,2.44,2.11,3.28,4.43,3.28l6.32-.4Zm-10.94-5.07c0,3.75-3.93,5.1-6.45,5.1-2,0-5.28-.78-5.28-3.43,0-3.12,2.21-4.06,4.68-4.48s5.28-.41,7-1.61Z"/><path id="n" class="cls-1" d="M133.32,46a9.26,9.26,0,0,0-8.1,4.79l-.1-.11V46.71h-5.44l0,22.91.25,4.32,5.52-.33V57.74c0-4,2.47-7.08,6.29-7.08,3.37,0,5,1.82,5.08,6V73.61h5.75V55.14c0-6-3.57-9.16-9.21-9.16"/><path id="d" class="cls-1" d="M159.25,69.65c5.13,0,7.3-4.84,7.3-9.52,0-5.93-2.77-9.47-7.2-9.47-5.39,0-7.3,4.94-7.3,9.78,0,4.63,2.21,9.21,7.2,9.21m12.84,4h-5.44V70h-.1c-1.51,3.07-4.79,4.37-8.06,4.37-8.2,0-12.18-6.3-12.18-14.37,0-9.73,5.59-14,11.28-14,3.27,0,6.89,1.25,8.66,4.21h.1V36.46h5.74V73.61h0"/><path id="c" class="cls-1" d="M194.89,55.71A5.55,5.55,0,0,0,189,50.66c-3,0-7.15,1.61-7.15,9.78,0,4.48,1.91,9.21,6.9,9.21,3.32,0,5.63-2.29,6.19-6.14h5.74c-1.06,7-5.24,10.83-11.93,10.83-8.16,0-12.64-6-12.64-13.9,0-8.11,4.28-14.46,12.84-14.46,6,0,11.17,3.12,11.73,9.73h-5.74"/><path id="a2" class="cls-1" d="M231.31,69.62l-3.86,0c-1.06,0-1.36-.57-1.36-2V53.78c0-5.67-5.33-7.8-10.42-7.8-5.74,0-11.42,2-11.83,9h5.74c.25-2.92,2.52-4.27,5.74-4.27,2.31,0,5.39.57,5.39,3.64,0,3.49-3.68,3-7.81,3.8-4.83.57-10,1.67-10,8.38,0,5.26,4.22,7.86,8.9,7.86,3.08,0,6.75-1,9-3.28.45,2.44,2.11,3.28,4.43,3.28l6.32-.4Zm-10.95-5.07c0,3.75-3.92,5.1-6.44,5.1-2,0-5.29-.78-5.29-3.43,0-3.12,2.22-4.06,4.69-4.48s5.28-.41,7-1.61Z"/><path id="m" class="cls-1" d="M260.33,46a9.31,9.31,0,0,0-8.15,4.47C251,47.38,248.05,46,244.88,46a8.64,8.64,0,0,0-8,4.47h-.16V46.71h-5.43V69.62l.26,4.32,5.47-.33v-16c0-4.47,2.72-7,5.69-7,3.48,0,4.58,2,4.58,5.67V73.61H253V57.84c0-4.53,1.66-7.18,5.54-7.18,4.48,0,4.73,3,4.73,7.24V73.61H269V55c0-6.55-3.22-9.05-8.7-9.05"/><path id="p" class="cls-1" d="M287.06,50.66c-4.83,0-7.3,3.8-7.3,9.52,0,5.41,2.67,9.47,7.3,9.47,5.24,0,7.2-4.78,7.2-9.47,0-4.89-2.47-9.52-7.2-9.52m-12.83-3.95h5.43v3.64h.11c1.61-3.07,4.73-4.37,8.05-4.37C296,46,300,52.43,300,60.29c0,7.23-3.52,14.05-11.22,14.05-3.33,0-6.9-1.25-8.71-4.22H280V83.54h-5.74V46.71h0"/></svg>