<svg id="Camada_1" data-name="Camada 1" xmlns="http://www.w3.org/2000/svg" viewBox="0 0 300 120"><defs><style>.cls-1{fill:#fff;}</style></defs><title>bbc</title><path class="cls-1" d="M280,98.6V21.4H199.4V98.7H280Zm-18.4-55c-6.2-3.6-12.4-5.4-18.2-5.4-6.2,0-11.4,2-15.3,5.9a18.9,18.9,0,0,0-6.2,14.5A19.63,19.63,0,0,0,228,73.1a22.12,22.12,0,0,0,15.3,5.5,35.28,35.28,0,0,0,19-5.9V81a39.57,39.57,0,0,1-19.4,4.8c-6.1,0-11.1-1.2-15.3-3.6a31.2,31.2,0,0,1-9.9-9.9A28.76,28.76,0,0,1,214,58.6a25.67,25.67,0,0,1,8.5-19.7A28.79,28.79,0,0,1,243,30.8c5.8,0,12,1.5,18.8,4.5l-.2,8.3ZM190.4,21.4H109.8V98.7h80.6V21.4ZM134.5,32.9h14c4.5,0,7.9.5,10.4,1.7a13,13,0,0,1,7.6,12.2c0,5.3-2.6,9-8.2,11.2,4,.7,7.1,2.2,9.4,4.9a13.29,13.29,0,0,1,3.4,8.9,15.13,15.13,0,0,1-2.1,7.3,17.24,17.24,0,0,1-6.2,5.3,23.76,23.76,0,0,1-10.2,2H134.5V32.9Z"/><path class="cls-1" d="M147.2,55.7c4.1,0,7-.8,8.7-2.2a8.38,8.38,0,0,0,2.6-6.2c0-5-3.3-7.7-9.8-7.7h-6.6V55.7Zm2.1,6.9h-7.1V79.4h7.7a33.85,33.85,0,0,0,8.3-.8,9.88,9.88,0,0,0,3.7-3.2,8.39,8.39,0,0,0,1.3-4.4,8,8,0,0,0-1.5-4.4,6.9,6.9,0,0,0-4-3.2A22.69,22.69,0,0,0,149.3,62.6ZM100.6,21.4H20V98.7h80.6Zm-56,64.8V32.9h14c4.5,0,7.8.5,10.3,1.7a12.76,12.76,0,0,1,5.7,5,13.78,13.78,0,0,1,2.1,7.1c-.1,5.3-2.8,9-8.3,11.4,4.1.7,7.1,2.2,9.4,4.8a12.82,12.82,0,0,1,3.4,8.9,12.55,12.55,0,0,1-2.1,7.3A15.11,15.11,0,0,1,73,84.4a24.24,24.24,0,0,1-10.3,2l-18.1-.2Z"/><path class="cls-1" d="M58.8,39.6H52.2V55.7h5.2c4,0,6.9-.8,8.6-2.2a8.16,8.16,0,0,0,2.6-6.1C68.6,42.2,65.3,39.6,58.8,39.6Zm.6,23H52.3V79.4h7.5a33.8,33.8,0,0,0,8.6-.8A9.27,9.27,0,0,0,72,75.7a10.6,10.6,0,0,0,1.3-4.6,7.94,7.94,0,0,0-1.5-4.4,6.75,6.75,0,0,0-4-3c-1.8-.9-4.7-1.1-8.4-1.1Z"/></svg>