<svg id="Camada_1" data-name="Camada 1" xmlns="http://www.w3.org/2000/svg" viewBox="0 0 300 120"><defs><style>.cls-1{fill:#fff;}</style></defs><title>behance</title><path class="cls-1" d="M25.8,32.2a26.64,26.64,0,0,1,7.1.8,15.12,15.12,0,0,1,5.5,2.2,8.72,8.72,0,0,1,3.5,4.1,15.39,15.39,0,0,1,1.2,6.3,10.87,10.87,0,0,1-2,6.9A13.93,13.93,0,0,1,35.6,57a13.84,13.84,0,0,1,7.5,5.1,16.16,16.16,0,0,1,1,15.8,13.64,13.64,0,0,1-4.3,4.9,20.13,20.13,0,0,1-6.3,2.8,29,29,0,0,1-7.1,1H0V32.2Zm-1.6,22a8.78,8.78,0,0,0,5.3-1.6c1.4-1,2-2.8,2-4.9a6.84,6.84,0,0,0-.6-3.1,5.67,5.67,0,0,0-1.8-2,10,10,0,0,0-2.6-1,15.64,15.64,0,0,0-3.1-.2H12V54.2Zm.6,23.2a15.68,15.68,0,0,0,3.3-.4,7,7,0,0,0,2.8-1.2,7.13,7.13,0,0,0,2-2.2,9.48,9.48,0,0,0,.8-3.5c0-2.8-.8-4.7-2.4-6.1A10.24,10.24,0,0,0,25,62.2H12V77.4Zm38-.2c1.6,1.6,3.9,2.4,7.1,2.4A10.58,10.58,0,0,0,75.6,78a8.37,8.37,0,0,0,3-3.5h9.6c-1.6,4.7-3.9,8.1-7.1,10.2a20.63,20.63,0,0,1-11.4,3.1,23.38,23.38,0,0,1-8.5-1.6,16.46,16.46,0,0,1-6.3-4.3A15.33,15.33,0,0,1,51,75.4a23,23,0,0,1-1.4-8.5,21.43,21.43,0,0,1,5.5-15,19.6,19.6,0,0,1,6.3-4.3A21.92,21.92,0,0,1,69.7,46a18.52,18.52,0,0,1,8.9,2,16.55,16.55,0,0,1,6.1,5.3,21.55,21.55,0,0,1,3.5,7.5,41,41,0,0,1,.4,8.7H60A11.22,11.22,0,0,0,62.8,77.2ZM75.2,56.6a8.41,8.41,0,0,0-6.1-2.2,9.1,9.1,0,0,0-4.3,1A10.51,10.51,0,0,0,62,57.6a5.33,5.33,0,0,0-1.4,2.8,13.76,13.76,0,0,0-.4,2.6H77.9C77.5,59.9,76.6,57.9,75.2,56.6Zm28.7-24.4V52.7h.2a11.33,11.33,0,0,1,5.3-4.9,14.7,14.7,0,0,1,6.3-1.6,17.46,17.46,0,0,1,7.1,1.2,11.23,11.23,0,0,1,4.3,3.3,13.17,13.17,0,0,1,2.2,5.1,33.33,33.33,0,0,1,.6,6.7V86.7H119.1V64.4c0-3.3-.6-5.7-1.6-7.3s-2.8-2.4-5.3-2.4c-3,0-5.1,1-6.3,2.6-1.4,1.8-2,4.7-2,8.7V86.7H93.1V32.2ZM137.8,53a14,14,0,0,1,4.3-4.1,19,19,0,0,1,5.9-2.2,35.73,35.73,0,0,1,6.5-.6c2,0,3.9.2,6.1.4a16,16,0,0,1,5.5,1.6,11.29,11.29,0,0,1,4.1,3.3,9.64,9.64,0,0,1,1.6,5.7V77.8a40.58,40.58,0,0,0,.4,5.1,7.53,7.53,0,0,0,1.4,3.7h-11a4.94,4.94,0,0,1-.8-1.8,6.8,6.8,0,0,1-.2-2,13.79,13.79,0,0,1-6.1,3.7,21.78,21.78,0,0,1-7.1,1,15.48,15.48,0,0,1-5.3-.8,11.72,11.72,0,0,1-4.3-2.2,12.2,12.2,0,0,1-3-3.7,13.91,13.91,0,0,1-1-5.3A11.2,11.2,0,0,1,136,70a11.37,11.37,0,0,1,3-3.5,15.41,15.41,0,0,1,4.3-2,35.36,35.36,0,0,1,4.9-1l4.7-.6c1.6-.2,3-.4,4.1-.6a10.45,10.45,0,0,0,3-1.4,2.86,2.86,0,0,0,1-2.6,5.3,5.3,0,0,0-.6-2.8,6.09,6.09,0,0,0-1.6-1.6,7.16,7.16,0,0,0-2.2-.8,12.3,12.3,0,0,0-2.8-.2,7.17,7.17,0,0,0-4.9,1.4,6.69,6.69,0,0,0-2.2,4.5H136A11.65,11.65,0,0,1,137.8,53Zm21.4,15.4c-.6.2-1.4.4-2.2.6s-1.6.2-2.6.4c-.8.2-1.8.2-2.6.4l-2.4.6a4.69,4.69,0,0,0-2,1A5.39,5.39,0,0,0,146,73a3.89,3.89,0,0,0-.6,2.6A4.27,4.27,0,0,0,146,78a5.39,5.39,0,0,0,1.4,1.6,7.16,7.16,0,0,0,2.2.8,13.74,13.74,0,0,0,7.5-.8,8,8,0,0,0,2.6-2.6,6,6,0,0,0,1-3,11.48,11.48,0,0,0,.2-2.4V67.5A9.15,9.15,0,0,1,159.2,68.4Zm28.9-21.3v5.5h.2a11.33,11.33,0,0,1,5.3-4.9,16.43,16.43,0,0,1,6.7-1.6,17.46,17.46,0,0,1,7.1,1.2,9.89,9.89,0,0,1,4.3,3.3,17.23,17.23,0,0,1,2.4,5.1,33.33,33.33,0,0,1,.6,6.7V86.6H203.9V64.4c0-3.3-.6-5.7-1.6-7.3s-2.8-2.6-5.5-2.6a7.81,7.81,0,0,0-6.5,3c-1.4,1.8-2,4.7-2,8.7V86.9H177.5V47.1Zm50.8,7.1a7.28,7.28,0,0,0-4.3,1.2,9.88,9.88,0,0,0-3,3.1,13.49,13.49,0,0,0-1.6,4.1,17.53,17.53,0,0,0-.4,4.5,29.86,29.86,0,0,0,.4,4.3,10.65,10.65,0,0,0,1.6,3.9,11.38,11.38,0,0,0,2.8,3,7.5,7.5,0,0,0,4.3,1.2,8.75,8.75,0,0,0,6.1-2.2,9,9,0,0,0,2.6-5.9h10.4c-.8,5.3-2.8,9.2-6.1,12s-7.7,4.1-13,4.1a20.89,20.89,0,0,1-8.1-1.6,18.59,18.59,0,0,1-6.3-4.1,19.06,19.06,0,0,1-4.1-6.3,21.57,21.57,0,0,1-1.4-8.1A23.67,23.67,0,0,1,224.1,52a20.17,20.17,0,0,1,6.3-4.5,23,23,0,0,1,8.5-1.6,24.67,24.67,0,0,1,6.7,1,16.87,16.87,0,0,1,5.7,2.8,12.4,12.4,0,0,1,4.1,4.7,16.49,16.49,0,0,1,1.8,6.7H246.6C246.2,56.6,243.6,54.2,238.9,54.2ZM57.9,35.9h22v5.3h-22ZM274.1,77.2c1.6,1.6,4.1,2.4,7.1,2.4a10.58,10.58,0,0,0,5.7-1.6,8.37,8.37,0,0,0,3-3.5h9.4c-1.6,4.7-3.9,8.1-7.1,10.2a20.63,20.63,0,0,1-11.4,3.1,23.38,23.38,0,0,1-8.5-1.6,16.46,16.46,0,0,1-6.3-4.3,15.33,15.33,0,0,1-3.9-6.5,23,23,0,0,1-1.4-8.5,21.43,21.43,0,0,1,5.5-15,19.6,19.6,0,0,1,6.3-4.3,22.71,22.71,0,0,1,8.3-1.6,17.22,17.22,0,0,1,8.7,2,16.55,16.55,0,0,1,6.1,5.3,21.55,21.55,0,0,1,3.5,7.5,26,26,0,0,1,.8,8.9H271.4A11.53,11.53,0,0,0,274.1,77.2Zm12.6-20.6a8.41,8.41,0,0,0-6.1-2.2,9.1,9.1,0,0,0-4.3,1,8.06,8.06,0,0,0-2.8,2.2,7.39,7.39,0,0,0-1.4,2.8,13.76,13.76,0,0,0-.4,2.6h17.7A12,12,0,0,0,286.7,56.6Z"/></svg>