<?xml version="1.0" encoding="utf-8"?>
<!-- Generator: Adobe Illustrator 23.0.6, SVG Export Plug-In . SVG Version: 6.00 Build 0)  -->
<svg version="1.1" id="Camada_1" xmlns="http://www.w3.org/2000/svg" xmlns:xlink="http://www.w3.org/1999/xlink" x="0px" y="0px"
	 viewBox="0 0 300 120" style="enable-background:new 0 0 300 120;" xml:space="preserve">
<title>Best_Buy_logo_2018</title>
<path id="path2998" d="M47.3,1.5v51.8h27.1c10.7,0,20.5-3.8,20.5-14.8c0-7.4-5.4-10.8-11.3-12.6c3.6-1.4,7.7-4.5,7.7-10.8
	c0-8.1-8-13.6-18.9-13.6H47.3z M64,13.6h6.1c2.3-0.1,4.2,1.7,4.4,3.9c0,1.8-2,3.8-4.4,3.8H64V13.6z M64,32h8c2.8,0,5.2,2.1,5.2,4.6
	c0,2.6-2.2,4.8-5.7,4.8H64V32z"/>
<path id="path3005" d="M60.8,58.9v51.8h27.1c10.7,0,20.5-3.7,20.5-14.8c0-7.4-5.4-10.8-11.3-12.6c3.6-1.4,7.7-4.5,7.7-10.8
	c0-8.1-8.1-13.6-18.9-13.6H60.8z M77.4,71h6.1c2.3-0.1,4.2,1.7,4.4,3.9c0,1.8-2,3.8-4.4,3.8h-6.1V71z M77.4,89.5h8.1
	c2.8,0,5.2,2.1,5.2,4.6s-2.2,4.8-5.6,4.8h-7.6V89.5L77.4,89.5z"/>
<path id="path3007" d="M96.3,53.3V1.5h41.8V14h-25.2v6.8h20.5v11.7h-20.5v8.3h25.2v12.5H96.3z"/>
<path id="path3009" d="M160.7,54.8c11.8,0,21.2-6.7,21.2-17.6c0-17.5-22.8-14.9-22.8-20.3c0-2.1,2.2-3.2,4.5-3.2
	c2.5,0.1,4.9,1,6.8,2.6l9.8-9.4C176.2,3.1,170,0,161.7,0c-12.6,0-20.8,7.4-20.8,16.4c0,17.8,22.5,15.2,22.5,20.8
	c0,2-1.9,3.9-5.3,3.9c-3.9,0-6.9-2.3-9.3-4.3l-9.9,9.4C142.9,50.1,149.3,54.8,160.7,54.8z"/>
<path id="path3011" d="M194.7,53.3V13.9H181V1.5h44v12.5h-13.7v39.3H194.7z"/>
<path id="path3013" d="M109,58.9h16.6v31c0,3.2,3.1,6,6.4,6c3.4-0.1,6.2-2.8,6.2-6.2V58.9h16.5v30.7c0,12.2-10.1,21.9-23.2,21.9
	c-12.4,0.1-22.5-9.9-22.5-22.2c0-0.1,0-0.2,0-0.3V58.9z"/>
<path id="path3015" d="M175.1,110.7V92.2l-19.5-33.3h16.8l11,17.8l11.1-17.8h16.8l-19.6,33.5v18.3H175.1z"/>
<path d="M211.3,87.3l-9.8,9.7v13.2l9.8,9.8h41.3V87.3H211.3z M207.5,105.8c-1.2,0-2.2-1-2.2-2.2c0-1.2,1-2.2,2.2-2.2s2.2,1,2.2,2.2
	v0C209.7,104.8,208.7,105.8,207.5,105.8C207.5,105.8,207.5,105.8,207.5,105.8z"/>
</svg>
