<svg id="Camada_1" data-name="Camada 1" xmlns="http://www.w3.org/2000/svg" viewBox="0 0 300 120"><defs><style>.cls-1{fill:#fff;}</style></defs><title>Best_Buy_logo_2018</title><path id="path2998" class="cls-1" d="M47.35,1.49v51.8H74.47C85.14,53.29,95,49.54,95,38.54c0-7.44-5.36-10.84-11.26-12.62,3.6-1.44,7.67-4.47,7.67-10.81C91.42,7,83.36,1.49,72.51,1.49ZM64,13.55h6.11a4.26,4.26,0,0,1,4.38,3.93c0,1.83-2,3.8-4.38,3.8H64V13.55ZM64,32H72c2.81,0,5.17,2.14,5.17,4.58,0,2.6-2.21,4.75-5.66,4.75H64V32Z"/><path id="path3005" class="cls-1" d="M60.79,58.94v51.8H87.91c10.67,0,20.54-3.74,20.54-14.75,0-7.44-5.36-10.84-11.26-12.61,3.6-1.44,7.67-4.47,7.67-10.82,0-8.12-8.06-13.62-18.91-13.62ZM77.4,71h6.11a4.25,4.25,0,0,1,4.38,3.92c0,1.84-2,3.8-4.38,3.8H77.4V71Zm0,18.48h8.07c2.81,0,5.17,2.13,5.17,4.58S88.43,98.82,85,98.82H77.4V89.49Z"/><path id="path3007" class="cls-1" d="M96.31,53.28V1.48H138.1V14H112.88v6.79h20.48V32.51H112.88v8.31H138.1V53.28Z"/><path id="path3009" class="cls-1" d="M160.74,54.77c11.76,0,21.16-6.71,21.16-17.58,0-17.55-22.82-14.85-22.82-20.31,0-2.11,2.22-3.23,4.49-3.23a11,11,0,0,1,6.76,2.58l9.82-9.35C176.22,3.14,170,0,161.66,0,149.11,0,140.9,7.45,140.9,16.43c0,17.77,22.5,15.19,22.5,20.77,0,1.95-1.88,3.92-5.29,3.92-3.87,0-6.94-2.34-9.33-4.32l-9.88,9.42C142.88,50.09,149.27,54.77,160.74,54.77Z"/><path id="path3011" class="cls-1" d="M194.69,53.28V13.94H181V1.48h44V13.94H211.31V53.28Z"/><path id="path3013" class="cls-1" d="M109,58.9h16.57v31c0,3.15,3.14,6,6.4,6a6.33,6.33,0,0,0,6.21-6.22V58.9h16.52V89.56c0,12.17-10.1,21.87-23.16,21.87A22.39,22.39,0,0,1,109,88.9Z"/><path id="path3015" class="cls-1" d="M175.14,110.71V92.2L155.67,58.9h16.76l11,17.84L194.51,58.9h16.8L191.76,92.39v18.32Z"/><path class="cls-1" d="M211.31,87.26,201.53,97v13.2l9.78,9.77h41.34V87.26Zm-3.81,18.56a2.2,2.2,0,1,1,2.2-2.2A2.19,2.19,0,0,1,207.5,105.82Z"/></svg>