<?xml version="1.0" encoding="utf-8"?>
<!-- Generator: Adobe Illustrator 23.0.6, SVG Export Plug-In . SVG Version: 6.00 Build 0)  -->
<svg version="1.1" id="Layer_1" xmlns="http://www.w3.org/2000/svg" xmlns:xlink="http://www.w3.org/1999/xlink" x="0px" y="0px"
	 viewBox="0 0 300 120" style="enable-background:new 0 0 300 120;" xml:space="preserve">
<g>
	<path d="M0.1,27.4c2.6,0.9,5,1.8,7.5,2.6c1.5,0.5,3.1,1.1,4.6,1.6c0.7,0.2,0.9,0.6,0.9,1.3c0,14.5,0,29,0,43.5c0,0.4,0,0.7,0,1.3
		c6.1-3.5,12.1-7,18.2-10.5c-0.8-0.4-1.5-0.7-2.1-1c-2.1-1-4.1-1.9-6.2-2.9c-0.3-0.2-0.7-0.5-0.8-0.8c-1.8-4.4-3.5-8.8-5.3-13.1
		c0-0.1-0.1-0.2-0.1-0.5c2.1,0.7,4,1.4,5.9,2.1c7.3,2.6,14.7,5.1,22,7.7c0.7,0.2,0.9,0.6,0.9,1.3c0,4.3,0,8.7,0,13
		c0,0.7-0.3,1.1-0.9,1.4c-10.3,5.9-20.6,11.8-30.9,17.8c-0.5,0.3-0.9,0.4-1.5,0c-3.9-2.2-7.7-4.4-11.6-6.5C0.2,85.4,0,85.1,0,84.6
		C0,65.7,0,46.8,0,28C0,27.9,0,27.7,0.1,27.4z"/>
	<path d="M65.1,79.5c0-13.1,0-26,0-38.9c0.3,0,0.6-0.1,0.8-0.1c3.6,0,7.1,0,10.7,0c2.6,0,5.2,0.6,7.3,2.2c4.8,3.6,4.4,11.3-0.8,14.7
		c-0.7,0.5-1.5,0.9-2.4,1.3c0.7,0.2,1.4,0.3,2,0.5c3.9,1.2,6.2,4.5,6.4,8.6c0.3,6.7-4.7,10.9-10.6,11.6c-0.5,0.1-1,0.1-1.6,0.1
		C73,79.5,69.1,79.5,65.1,79.5z M69.7,75.3c2.1,0,4.2,0,6.3,0c1,0,2-0.1,2.9-0.3c3.3-0.8,5.3-3.2,5.3-6.3c0.1-3.6-1.4-5.7-4.7-6.7
		c-3.2-0.9-6.5-0.6-9.8-0.6C69.7,66,69.7,70.6,69.7,75.3z M69.7,44.6c0,4.2,0,8.4,0,12.5c2,0,3.9,0.1,5.8,0c1.1-0.1,2.3-0.4,3.3-0.9
		c2.5-1.1,3.8-3.6,3.5-6.6c-0.2-2.4-1.6-4-4.1-4.6C75.5,44.3,72.6,44.7,69.7,44.6z"/>
	<path d="M137.4,90.6c0.4-1.4,0.8-2.6,1.2-3.9c2.8,1.5,5.7,2.2,8.7,2c4.5-0.3,7.5-2.3,8.6-6.2c0.3-1.1,0.5-2.2,0.6-3.4
		c0.1-1.3,0-2.7-0.2-4.2c-0.1,0.2-0.1,0.3-0.2,0.5c-2.5,3.7-6,5.1-10.3,4.7c-4.2-0.4-7.4-2.6-8.9-6.6c-2.3-5.8-2.1-11.6,1.1-17
		c2.7-4.6,8.4-6.6,13.5-5c2,0.6,3.1,1.5,5,4c0-0.8,0-1.3,0-1.9c0-0.6,0-1.2,0-1.8c1.5,0,2.9,0,4.4,0c0,0.2,0.1,0.4,0.1,0.6
		c0,8.7,0,17.4-0.1,26.2c0,1.9-0.4,3.8-1,5.6c-1.3,4.2-4.3,6.8-8.6,7.7c-4.4,1-8.8,0.8-13-0.9C138.1,90.9,137.8,90.8,137.4,90.6z
		 M156.6,65.1c0-0.7,0-1.5,0-2.2c0-3.7-2.5-6.9-5.9-7.7c-3.8-0.9-7.5,0.7-9.1,4.1c-1.8,3.8-2,7.7-0.7,11.7c0.6,1.8,1.7,3.3,3.4,4.3
		c3.2,1.9,9.2,1.5,11.5-4.3C156.6,69.2,156.6,67.1,156.6,65.1z"/>
	<path d="M106.8,51.8c1.5,0,2.9,0,4.4,0c0,1.4,0,2.8,0,4.2c0.1,0,0.1,0,0.2,0.1c0.2-0.2,0.3-0.4,0.5-0.7c2.8-3.8,7.7-5.4,12.1-3.7
		c3.4,1.3,4.8,4,5.4,7.3c0.2,1.1,0.3,2.1,0.3,3.2c0,5.5,0,11,0,16.5c0,0.2,0,0.4-0.1,0.7c-1.5,0-2.9,0-4.5,0c0-0.3,0-0.7,0-1
		c0-5,0-10.1,0-15.1c0-1.1-0.1-2.3-0.4-3.4c-1.1-4.7-6.1-6.6-10.1-3.7c-2.6,1.8-3.6,4.5-3.6,7.6c0,4.8,0,9.6,0,14.5
		c0,0.4,0,0.7,0,1.2c-1.5,0-2.9,0-4.4,0C106.8,70.3,106.8,61.1,106.8,51.8z"/>
	<path d="M199.7,56.9c0.9-1.1,1.7-2.4,2.7-3.3c3-2.8,6.5-3.3,10.3-1.9c2.8,1,4.2,3.4,4.8,6.1c0.3,1.2,0.4,2.4,0.4,3.7
		c0,5.8,0,11.6,0,17.3c0,0.2,0,0.5-0.1,0.8c-0.8,0-1.6,0-2.5,0c0-0.4,0-0.7,0-1.1c0-5.3,0-10.6,0-15.9c0-1.4-0.1-2.8-0.4-4.1
		c-1-4.5-5.1-6.5-9.3-4.5c-3,1.4-4.4,4-5,7.1c-0.2,0.8-0.2,1.7-0.2,2.5c0,5,0,10,0,14.9c0,0.3,0,0.7,0,1.1c-0.9,0-1.7,0-2.6,0
		c0-0.4,0-0.7,0-1.1c0-5.7,0-11.4-0.1-17.2c0-1-0.2-2.1-0.5-3.1c-1.4-5.9-8.5-6-11.4-2.9c-2.2,2.3-3,5-3,8c0,5,0,10.1,0,15.1
		c0,0.4,0,0.7,0,1.2c-0.9,0-1.6,0-2.5,0c0-9.3,0-18.5,0-27.9c0.8,0,1.6,0,2.5,0c0,1.4,0,2.8,0,4.2c2.1-3.3,5-5.1,8.9-5
		C195.9,51.1,198.4,53.3,199.7,56.9z"/>
	<path d="M256.6,92.4c-1,0-1.7,0-2.6,0c0-13.6,0-27.1,0-40.7c0.8,0,1.6,0,2.5,0c0,1.8,0,3.6,0,5.4c0.1,0,0.1,0,0.2,0.1
		c0.3-0.4,0.5-0.8,0.8-1.2c3.5-5.2,11.2-6.7,16.2-3c2.4,1.8,3.8,4.3,4.3,7.2c0.9,4.8,0.6,9.5-1.7,13.9c-2.8,5.2-8.8,7.6-14.2,5.6
		c-2.4-0.9-4-2.6-5.4-5C256.6,80.7,256.6,86.5,256.6,92.4z M275.8,64.8c-0.2-1.4-0.2-2.8-0.6-4.1c-0.8-3.3-2.5-5.9-5.9-7
		c-4.8-1.5-9.9,1-11.8,5.7c-1.5,3.6-1.3,7.4-0.6,11.1c0.8,4.2,4.1,7,8.3,7.5c3.9,0.4,7.1-1.6,9-5.6
		C275.3,69.9,275.7,67.4,275.8,64.8z"/>
	<path d="M245.6,79.6c-0.9,0-1.7,0-2.5,0c0-1.7,0-3.5,0-5.2c-0.1,0-0.1,0-0.2-0.1c-0.2,0.3-0.4,0.6-0.6,0.9c-2.5,4-7.2,5.9-11.7,4.7
		c-3.1-0.8-5.4-3.4-5.7-6.4c-0.4-4,1.2-6.9,4.6-8.6c2.4-1.2,5-1.4,7.6-1.8c2-0.3,3.9-0.6,5.9-0.9c0-2.5-0.2-4.8-1.7-6.8
		c-1.6-2.1-4-2.4-6.4-2.1c-2.5,0.3-4.6,1.4-6.6,2.8c-0.3,0.2-0.6,0.4-1.1,0.8c0-1.1,0-2,0-2.9c0-0.2,0.3-0.4,0.4-0.5
		c3.4-2,7.1-3.2,11.1-2.4c3.7,0.7,6,3.4,6.5,7.5c0.1,1,0.2,2,0.2,3c0,5.6,0,11.2,0,16.8C245.6,78.8,245.6,79.1,245.6,79.6z
		 M243,64.6c-1.4,0.2-2.7,0.3-4,0.6c-2.7,0.5-5.4,0.9-8,1.7c-2.6,0.7-3.7,2.8-3.5,6c0.2,2.6,1.9,4.4,4.5,4.9c4,0.8,7.8-1.1,9.7-4.8
		C243.1,70.4,243.1,67.6,243,64.6z"/>
	<path d="M283.8,75.3c1.9,1.4,3.8,2.2,6,2.5c1.6,0.2,3.1,0,4.6-0.5c3.3-1.2,4.1-6,1.3-8c-1.2-0.9-2.6-1.6-3.9-2.3
		c-1.7-1-3.6-1.7-5.1-2.9c-3.7-2.8-3.7-8-0.2-11c1.9-1.6,4.1-2.2,6.5-2.2c1.9,0,3.7,0.3,5.4,1.1c0.6,0.3,0.9,0.6,0.8,1.3
		c-0.1,0.6,0,1.2,0,2c-0.4-0.2-0.7-0.4-1-0.5c-2.5-1.3-5.1-1.9-7.9-1.1c-2.9,0.9-4.4,3.6-3.4,6.5c0.3,0.8,1,1.7,1.7,2.2
		c1.1,0.8,2.5,1.4,3.7,2.1c1.7,0.9,3.3,1.7,4.9,2.7c3.8,2.3,3.8,8.6-0.1,11.3c-2.2,1.6-4.8,1.9-7.4,1.8c-1.8-0.1-3.5-0.5-5.1-1.4
		c-0.6-0.3-0.9-0.7-0.8-1.4C283.9,76.9,283.8,76.2,283.8,75.3z"/>
	<path d="M94.9,51.8c0.3,0,0.5,0,0.7,0c1.2,0,2.4,0,3.7,0c0,9.2,0,18.4,0,27.6c-1.5,0-2.9,0-4.4,0C94.9,70.2,94.9,61.1,94.9,51.8z"
		/>
	<path d="M97.2,45.4c-1.7,0-3-1.2-3-2.9c0-1.6,1.3-2.9,2.9-2.9c1.7,0,3,1.2,3,2.9C100.2,44.1,98.9,45.4,97.2,45.4z"/>
</g>
</svg>
