<svg id="svg2" xmlns="http://www.w3.org/2000/svg" viewBox="0 0 300 120"><defs><style>.cls-1{fill:#fff;}</style></defs><title>bing</title><path id="Bing" class="cls-1" d="M144.89,92.67q8.91,0,14.76-5.06a16.63,16.63,0,0,0,5.85-13.22,15,15,0,0,0-3.85-10.67,16.14,16.14,0,0,0-10.27-4.86v-.18A15.74,15.74,0,0,0,159.44,53a15.57,15.57,0,0,0,2.92-9.44A13.12,13.12,0,0,0,157.47,33q-4.83-4.05-13.07-4.05H126.35V92.67Zm-2.53-56.93q12.13,0,12.13,9.33A10.37,10.37,0,0,1,151,53.42q-3.49,3-9.59,3H133.8V35.74Zm0,27.33q15.32,0,15.32,11.2a10.63,10.63,0,0,1-3.6,8.51q-3.61,3.1-10.15,3.1H133.83V63Zm42.12-28.93a4.75,4.75,0,0,0,0-6.72l0,0a4.77,4.77,0,0,0-8.11,3.26s0,.09,0,.14a4.52,4.52,0,0,0,1.38,3.39,4.87,4.87,0,0,0,6.74,0Zm.23,13h-7.29V92.67h7.29Zm52.65,17.73q0-9.11-4-13.93T222,46.06q-9.79,0-14.93,8.62h-.18V47.1h-7.29V92.67h7.29v-26a15.24,15.24,0,0,1,3.56-10.42,11.51,11.51,0,0,1,9.06-4.12q10.6,0,10.6,14.49v26h7.29ZM290,47.08h-7.29v6.38h-.19q-4.45-7.38-13.67-7.38-9.72,0-15.31,6.84T248,71.37q0,10.22,5.19,16.29a17.14,17.14,0,0,0,13.69,6.07q10.47,0,15.68-8.72h.18v5q0,17.8-16.86,17.8-7,0-14.73-4.3v7.32A32.31,32.31,0,0,0,265.9,114q24.1,0,24.1-25ZM278.85,83.2a12.74,12.74,0,0,1-10,4.36A11.89,11.89,0,0,1,259.11,83q-3.68-4.55-3.68-12.13,0-8.85,3.84-13.76a12.7,12.7,0,0,1,10.61-4.91A12.13,12.13,0,0,1,279,56.07a13,13,0,0,1,3.68,9.33v6.71A16.21,16.21,0,0,1,278.85,83.2ZM10,5.51V99.78l20,14.74L91.08,82.4V58.69l-49-15,9,21.33,14,6.84L32.64,89.48V11.83Z"/></svg>