<svg xmlns="http://www.w3.org/2000/svg" viewBox="0 0 300 120"><defs><style>.a{fill:#fff;}</style></defs><title>bloomberg</title><path class="a" d="M0,32.31H2.44l21.34.28A13.87,13.87,0,0,1,32.35,36a11.67,11.67,0,0,1,2.5,12.21c-.8,2.19-2.76,3.59-4.73,4.65A10.94,10.94,0,0,1,36.76,59a13.88,13.88,0,0,1-3,14.6c-2.7,2.6-6.6,3.44-10.24,3.51H0V32.31m12.1,9.8c0,2.56,0,5.11,0,7.67,1.46,0,2.92,0,4.39,0,1.86-.18,3.87.64,5.6-.38s2-3.42,1.38-5.16c-.66-1.51-2.42-2.1-4-2.1q-3.72,0-7.43,0m.09,16c0,3.1,0,6.21,0,9.31,3.4-.18,6.87.36,10.22-.38a4.24,4.24,0,0,0,3-4.77,4.12,4.12,0,0,0-3.94-4.11C18.41,58.1,15.3,58.2,12.19,58.15Z"/><path class="a" d="M39.76,77.26q-.06-22.38,0-44.75c3.81,0,7.62,0,11.44,0q0,22.37,0,44.74C47.37,77.21,43.57,77.19,39.76,77.26Z"/><path class="a" d="M176.56,32.55q5.59,0,11.18,0c0,5.4,0,10.8,0,16.19,1.85-2.08,4.16-4,7-4.25a11.42,11.42,0,0,1,10.5,3.29c3.63,3.87,4.59,9.47,4.37,14.6-.11,4.34-1.22,8.93-4.25,12.18C201.5,78.6,194.5,79.48,190,76a25.31,25.31,0,0,1-2.68-2.94c-.08,1.33,0,2.67,0,4H176.56q0-22.28,0-44.56m14.87,20.15c-2.86,1-3.89,4.34-4,7.11-.16,2.95.19,6.28,2.4,8.45a4.51,4.51,0,0,0,6.05.2c1.95-1.78,2.26-4.59,2.42-7.07,0-2.35-.27-4.85-1.57-6.87A4.47,4.47,0,0,0,191.44,52.69Z"/><path class="a" d="M274.27,46.29a11.47,11.47,0,0,1,10-1.43c2.17.65,3.7,2.39,5.08,4.08,0-1.25,0-2.5,0-3.75H300q0,13.57,0,27.15c.07,3.93-.86,8.13-3.62,11.08-2.57,2.8-6.45,4-10.15,4.2-4.21.25-8.71-.09-12.38-2.39a11.09,11.09,0,0,1-5.06-8h10.58c1.57,3.46,7.41,3.8,9.09.3.81-1.83.53-3.9.53-5.84a10.06,10.06,0,0,1-6.69,3.79,12.26,12.26,0,0,1-11.42-5.22c-2.51-3.77-3.09-8.56-2.46-13,.53-4.2,2.34-8.48,5.85-11m8.2,6.91c-2.33,1-3.15,3.79-3.28,6.12-.12,2.64.42,5.74,2.71,7.37a4.45,4.45,0,0,0,6.26-1.47,10.39,10.39,0,0,0,.17-10A4.51,4.51,0,0,0,282.47,53.2Z"/><path class="a" d="M137.07,46.7c2.62-2.28,6.42-2.7,9.7-1.94A9,9,0,0,1,152.66,50c1.51-2.2,3.43-4.29,6.07-5.06,3.63-1,8-.8,10.92,1.85s3.53,6.46,3.63,10c0,6.75,0,13.51,0,20.26q-5.55,0-11.1,0c.07-5.76,0-11.52,0-17.27a9.31,9.31,0,0,0-1-4.67,3.74,3.74,0,0,0-5.61-.35c-1.41,1.46-1.6,3.62-1.62,5.54,0,5.59,0,11.17,0,16.75-3.71,0-7.42,0-11.12,0q0-9.38,0-18.77c0-1.67-.62-3.65-2.3-4.33a3.77,3.77,0,0,0-4.55,1.24,8.08,8.08,0,0,0-1.21,5.07c0,5.59,0,11.19,0,16.78q-5.76,0-11.52,0c.05-10.61,0-21.23,0-31.84q5.3,0,10.6,0c.05,1.64,0,3.28.06,4.92C135.12,49.09,135.85,47.67,137.07,46.7Z"/><path class="a" d="M215,49.65c6.08-7.08,18.75-7.1,24.55.36,3.14,4,4,9.27,3.95,14.24-7.14-.07-14.28,0-21.42,0,.3,2.23,1.15,4.72,3.38,5.69,1.8.62,4.08.68,5.59-.67a13.59,13.59,0,0,0,1.44-2c3.53,0,7.07,0,10.59,0a13.71,13.71,0,0,1-7.94,9.48c-6.94,2.81-16,1.52-20.74-4.69-4.74-6.46-4.56-16.25.6-22.43m9.85,2.88c-2,1.05-2.45,3.4-2.84,5.4,3.48,0,7,0,10.45,0a7.44,7.44,0,0,0-1.78-4.62A5.15,5.15,0,0,0,224.89,52.53Z"/><path class="a" d="M64.81,45.24c5.26-1.41,11.32-.84,15.75,2.52,5.86,4.43,7.23,12.78,5.25,19.52A14.81,14.81,0,0,1,76,77.3c-6.19,1.88-13.74.8-18.23-4.17-4.18-4.57-5-11.42-3.45-17.23A14.94,14.94,0,0,1,64.81,45.24m3.83,7.16A5.17,5.17,0,0,0,65.49,56,20.17,20.17,0,0,0,65,64.32c.31,2,.87,4.23,2.59,5.51a4.24,4.24,0,0,0,5.82-1c1.57-2.14,1.81-4.9,1.84-7.47s-.27-5.28-1.83-7.39A4.29,4.29,0,0,0,68.65,52.4Z"/><path class="a" d="M100.74,44.88c4.8-.87,10.11-.24,14.1,2.74a15.74,15.74,0,0,1,6,11.14c.55,4.9-.39,10.24-3.68,14.06-4.17,5-11.4,6.27-17.48,4.75a14.89,14.89,0,0,1-10.33-9A20.1,20.1,0,0,1,89.82,53a15.1,15.1,0,0,1,10.92-8.15m2.5,7.47A5,5,0,0,0,100,55.73a19.76,19.76,0,0,0-.6,8.74c.3,2,.91,4.16,2.63,5.41a4.21,4.21,0,0,0,5.58-.89c1.75-2.14,2-5,2-7.69-.09-2.6-.28-5.45-2-7.55A4.27,4.27,0,0,0,103.24,52.35Z"/><path class="a" d="M260.81,45.93a9,9,0,0,1,6.71-1.05c0,3.28,0,6.56,0,9.84-2.59-.46-5.54-.5-7.7,1.22s-3,4.68-3,7.37c0,4.64,0,9.28,0,13.92-3.75,0-7.5,0-11.25,0q0-16,0-32c3.43,0,6.87,0,10.29,0l.36.31c.1,1.77,0,3.55-.07,5.32C257.67,49.22,258.75,47.06,260.81,45.93Z"/></svg>