<?xml version="1.0" encoding="utf-8"?>
<!-- Generator: Adobe Illustrator 23.0.6, SVG Export Plug-In . SVG Version: 6.00 Build 0)  -->
<svg version="1.1" id="Camada_1" xmlns="http://www.w3.org/2000/svg" xmlns:xlink="http://www.w3.org/1999/xlink" x="0px" y="0px"
	 viewBox="0 0 300 120" style="enable-background:new 0 0 300 120;" xml:space="preserve">
<title>bloomberg</title>
<path d="M0,32.3h2.4l21.3,0.3c3.2,0.1,6.2,1.3,8.6,3.4c3.1,3.2,4.1,8,2.5,12.2c-0.8,2.2-2.8,3.6-4.7,4.7c3,1,5.4,3.2,6.6,6.1
	c1.9,5,0.7,10.7-3,14.6c-2.7,2.6-6.6,3.4-10.2,3.5H0V32.3 M12.1,42.1c0,2.6,0,5.1,0,7.7c1.5,0,2.9,0,4.4,0c1.9-0.2,3.9,0.6,5.6-0.4
	s2-3.4,1.4-5.2c-0.7-1.5-2.4-2.1-4-2.1C17,42.1,14.5,42.1,12.1,42.1 M12.1,58.1c0,3.1,0,6.2,0,9.3c3.4-0.2,6.9,0.4,10.2-0.4
	c2.1-0.6,3.4-2.6,3-4.8c0-2.2-1.7-4-3.9-4.1C18.4,58.1,15.3,58.2,12.1,58.1L12.1,58.1z"/>
<path d="M39.8,77.3c0-14.9,0-29.8,0-44.8c3.8,0,7.6,0,11.4,0c0,14.9,0,29.8,0,44.7C47.4,77.2,43.6,77.2,39.8,77.3z"/>
<path d="M176.6,32.5c3.7,0,7.5,0,11.2,0c0,5.4,0,10.8,0,16.2c1.9-2.1,4.2-4,7-4.3c3.8-0.8,7.8,0.5,10.5,3.3
	c3.6,3.9,4.6,9.5,4.4,14.6c-0.1,4.3-1.2,8.9-4.3,12.2c-3.9,4-10.9,4.9-15.4,1.4c-1-0.9-1.9-1.9-2.7-2.9c-0.1,1.3,0,2.7,0,4h-10.8
	C176.6,62.2,176.6,47.4,176.6,32.5 M191.4,52.6c-2.9,1-3.9,4.3-4,7.1c-0.2,3,0.2,6.3,2.4,8.4c1.7,1.6,4.3,1.7,6.1,0.2
	c1.9-1.8,2.3-4.6,2.4-7.1c0-2.3-0.3-4.8-1.6-6.9C195.6,52.7,193.4,52,191.4,52.6L191.4,52.6z"/>
<path d="M274.3,46.3c2.9-2,6.6-2.5,10-1.4c2.2,0.7,3.7,2.4,5.1,4.1c0-1.3,0-2.5,0-3.8H300c0,9,0,18.1,0,27.2
	c0.1,3.9-0.9,8.1-3.6,11.1c-2.6,2.8-6.5,4-10.1,4.2c-4.2,0.3-8.7-0.1-12.4-2.4c-2.8-1.8-4.7-4.7-5.1-8h10.6c1.6,3.5,7.4,3.8,9.1,0.3
	c0.8-1.8,0.5-3.9,0.5-5.8c-1.6,2.1-4,3.5-6.7,3.8c-4.5,0.5-8.9-1.5-11.4-5.2c-2.5-3.8-3.1-8.6-2.5-13
	C268.9,53.1,270.8,48.8,274.3,46.3 M282.5,53.2c-2.3,1-3.1,3.8-3.3,6.1c-0.1,2.6,0.4,5.7,2.7,7.4c2.1,1.3,4.8,0.8,6.2-1.3
	c0-0.1,0.1-0.1,0.1-0.2c1.8-3.1,1.8-6.9,0.2-10C287.2,53.1,284.6,52.2,282.5,53.2L282.5,53.2z"/>
<path d="M137.1,46.7c2.6-2.3,6.4-2.7,9.7-1.9c2.7,0.7,4.8,2.7,5.9,5.2c1.5-2.2,3.4-4.3,6.1-5.1c3.6-1,8-0.8,10.9,1.8s3.5,6.5,3.6,10
	c0,6.8,0,13.5,0,20.3c-3.7,0-7.4,0-11.1,0c0.1-5.8,0-11.5,0-17.3c0.1-1.6-0.3-3.2-1-4.7c-1.3-1.6-3.6-1.9-5.2-0.7
	c-0.1,0.1-0.2,0.2-0.4,0.3c-1.4,1.5-1.6,3.6-1.6,5.5c0,5.6,0,11.2,0,16.8c-3.7,0-7.4,0-11.1,0c0-6.3,0-12.5,0-18.8
	c0-1.7-0.6-3.7-2.3-4.3c-1.6-0.7-3.5-0.2-4.6,1.2c-1,1.5-1.4,3.3-1.2,5.1c0,5.6,0,11.2,0,16.8c-3.8,0-7.7,0-11.5,0
	c0.1-10.6,0-21.2,0-31.8c3.5,0,7.1,0,10.6,0c0.1,1.6,0,3.3,0.1,4.9C135.1,49.1,135.9,47.7,137.1,46.7z"/>
<path d="M215,49.7c6.1-7.1,18.8-7.1,24.6,0.4c3.1,4,4,9.3,3.9,14.2c-7.1-0.1-14.3,0-21.4,0c0.3,2.2,1.1,4.7,3.4,5.7
	c1.8,0.6,4.1,0.7,5.6-0.7c0.5-0.6,1-1.3,1.4-2c3.5,0,7.1,0,10.6,0c-1,4.2-3.9,7.8-7.9,9.5c-6.9,2.8-16,1.5-20.7-4.7
	C209.7,65.6,209.8,55.8,215,49.7 M224.9,52.5c-2,1-2.4,3.4-2.8,5.4c3.5,0,7,0,10.4,0c0-1.7-0.7-3.3-1.8-4.6
	C229.1,51.9,226.8,51.6,224.9,52.5L224.9,52.5z"/>
<path d="M64.8,45.2c5.3-1.4,11.3-0.8,15.8,2.5c5.9,4.4,7.2,12.8,5.3,19.5c-1.4,4.8-5.1,8.5-9.8,10c-6.2,1.9-13.7,0.8-18.2-4.2
	c-4.2-4.6-5-11.4-3.5-17.2C55.7,50.7,59.7,46.7,64.8,45.2 M68.6,52.4c-1.6,0.6-2.8,2-3.2,3.6c-0.7,2.7-0.9,5.5-0.5,8.3
	c0.3,2,0.9,4.2,2.6,5.5c1.9,1.3,4.5,0.9,5.8-1c1.6-2.1,1.8-4.9,1.8-7.5S75,56.1,73.4,54C72.3,52.5,70.4,51.8,68.6,52.4L68.6,52.4z"
	/>
<path d="M100.7,44.9c4.8-0.9,10.1-0.2,14.1,2.7c3.5,2.7,5.6,6.8,6,11.1c0.6,4.9-0.4,10.2-3.7,14.1c-4.2,5-11.4,6.3-17.5,4.8
	c-4.7-1.1-8.6-4.5-10.3-9c-1.9-5-1.8-10.7,0.5-15.6C92,48.7,96,45.7,100.7,44.9 M103.2,52.3c-1.6,0.5-2.8,1.8-3.2,3.4
	c-0.9,2.8-1.1,5.8-0.6,8.7c0.3,2,0.9,4.2,2.6,5.4c1.8,1.2,4.2,0.8,5.6-0.9c1.8-2.1,2-5,2-7.7c-0.1-2.6-0.3-5.5-2-7.5
	C106.5,52.5,104.8,51.9,103.2,52.3L103.2,52.3z"/>
<path d="M260.8,45.9c2-1.2,4.4-1.6,6.7-1c0,3.3,0,6.6,0,9.8c-2.6-0.5-5.5-0.5-7.7,1.2s-3,4.7-3,7.4c0,4.6,0,9.3,0,13.9
	c-3.8,0-7.5,0-11.3,0c0-10.7,0-21.3,0-32c3.4,0,6.9,0,10.3,0l0.4,0.3c0.1,1.8,0,3.5-0.1,5.3C257.7,49.2,258.8,47.1,260.8,45.9z"/>
</svg>
