<?xml version="1.0" encoding="utf-8"?>
<!-- Generator: Adobe Illustrator 24.0.2, SVG Export Plug-In . SVG Version: 6.00 Build 0)  -->
<svg version="1.1" id="Layer_1" xmlns="http://www.w3.org/2000/svg" xmlns:xlink="http://www.w3.org/1999/xlink" x="0px" y="0px"
	 viewBox="0 0 300 120" style="enable-background:new 0 0 300 120;" xml:space="preserve">
<title>brainly logo</title>
<g>
	<path d="M93.2,60.2c-0.6-0.4-1.5-0.5-3-0.3l-3.5,0.6v7.3l3.5-0.6c1.5-0.3,2.5-0.7,3-1.3v0c0.7-0.6,1.5-1.4,1.5-3.2
		C94.7,61,93.8,60.6,93.2,60.2z"/>
	<path d="M55.4,81.5c-0.9-0.4-1.5-0.5-3-0.2L47.8,82v6.7l4.6-0.8c1.5-0.3,2.1-0.6,3-1.3l0,0c0.9-0.8,1.2-1.7,1.2-2.8
		C56.6,82.8,56.3,81.9,55.4,81.5z"/>
	<path d="M53.6,71.3c0.9-0.8,1.2-1.6,1.2-2.6c0-1.1-0.3-1.8-1.2-2.2c-0.9-0.5-1.5-0.3-3-0.1l-2.7,0.5v6.1l2.7-0.5
		C52.1,72.2,52.7,72,53.6,71.3z"/>
	<polygon points="124.5,69.2 124.5,69.2 130.7,68.1 127.6,57.4 	"/>
	<path d="M15.5,46.3V120l269.1-46V0L15.5,46.3z M65.7,93c-2.7,2.3-7,3.9-10.9,4.6l-24.6,4.2V92l4-0.7V69.2l-4,0.7V60l21.2-3.7
		c3.6-0.6,7.6-1,10.6-0.3c3,0.7,6.2,3.2,6.2,8c0,4.9-3.2,8.7-5.9,10.3l0,0c4.9,0.5,8,3.6,8,8.4C70.4,87.7,68.5,90.7,65.7,93z
		 M161.8,79.1l-13.7,2.4v0l-12.9,2.2l-1.6-5.6l-11.9,2.1l-1.6,6.2l-9.1,1.6l-5.2,0.9l-10.6,1.8l-6.7-12.8l-1.8,0.3v13.9L73,94.5
		V52.6l18.2-3.2c5.2-0.9,9.1-0.7,12.1,0.9c3,1.6,5.2,4.9,5.2,9.4c0,8.5-5.2,12.4-7,13.8l6.2,9.3l12.6-38.5l15.2-2.6l12.6,34V39.6
		l1.3-0.2l0,0v0l12.4-2.1V79.1z M206.4,71.4l-14.2,2.5l-12.7-21.1c0,0,0.3,4.5,0.3,7.5V76l-13.3,2.3V36.5l14.9-2.6l12.1,21.3
		c0,0-0.3-4.5-0.3-7.5v0V31.8l13.3-2.3V71.4z M257.5,46.1v16.4l-2.2,0.4l-11.5,2l-32.7,5.7V28.7l13.6-2.4V57l19-3.3v-5.2l-14.5-23
		l15.2-2.6l6.2,13.1l6.3-15.2l15.2-2.6L257.5,46.1z"/>
</g>
</svg>
