<svg id="Camada_1" data-name="Camada 1" xmlns="http://www.w3.org/2000/svg" viewBox="0 0 300 120"><defs><style>.cls-1{fill-rule:evenodd;}</style></defs><path class="cls-1" d="M289.33,74.25c-2.26,2.88-5.9,4.33-10.77,4.33-8.57,0-14.32-4.55-15.12-11.89H300a25.73,25.73,0,0,0-1.92-10.88C295,48.72,287.43,44.48,278,44.48c-13,0-22.08,8.33-22.08,20.21s8.82,19.83,21.91,19.83c10.49,0,17.52-4.24,21.45-12.88h-4.51A6.93,6.93,0,0,0,289.33,74.25ZM277.92,50.31c7.2,0,12.4,3.79,14.16,10.5h-28.4C265.52,54.1,270.72,50.31,277.92,50.31Z"/><path class="cls-1" d="M212.74,73.56V56.66c0-4.63-1.12-7.26-3.84-9-3.28-2.16-8-3.16-14.49-3.16-8.15,0-13.92,2-17.12,5.94-1.6,1.93-2.32,3.93-2.72,7.64l4.16,0A4.65,4.65,0,0,0,183,55.1c1.41-3.43,4.92-4.78,11.73-4.78,7.2,0,10.64,1.85,10.64,5.94,0,1.93-1,3.09-3.13,3.78-2,.62-3.2.78-10.24,1.47-8.23.85-10,1.24-12.88,2.47a10,10,0,0,0-6,9.26c0,7,5.84,11.34,15.36,11.34,7.12,0,12.08-1.85,16.88-6.24,1.52,4.24,3.76,5.71,8.63,5.71a11.53,11.53,0,0,0,4.08-.62V78.34a14.76,14.76,0,0,1-1.76.16C213.7,78.57,212.74,77.26,212.74,73.56Zm-7.39-5.93c0,3.64-.57,5.1-2.8,7.19-2.81,2.55-6.73,3.85-11.93,3.85-6.32,0-9.52-2-9.52-5.88,0-3.47,2.16-4.78,9.12-5.48a75.51,75.51,0,0,0,15.13-2.78Z"/><path class="cls-1" d="M154.89,51.1V45.47h-7.76V83.52h7.77V62.68c0-3.4.65-5.09,2.81-7.26a13.42,13.42,0,0,1,9.82-3.77,19.5,19.5,0,0,1,5.2.69V44.85a31,31,0,0,0-4.8-.38C162.4,44.47,159.61,45.88,154.89,51.1Z"/><path class="cls-1" d="M121.77,44.68c-5.51.11-9.64,1.84-14.5,6.17V36.78a4.47,4.47,0,0,0-4.47-4.46h-3V64c0,12.76,9.49,20.86,22.57,20.86,11.92,0,21.07-9.45,20-22A20.08,20.08,0,0,0,121.77,44.68Zm-1,33.8c-6.59-.1-12.84-5.51-13.58-12h0c-1-9,5-15.43,13.95-15.42,8.35,0,14.07,5.46,14.07,13.73S129.32,78.61,120.73,78.48Z"/><path class="cls-1" d="M254,45.44a6.86,6.86,0,0,0-6.27,4L236.11,75,224.91,49.5a6.85,6.85,0,0,0-6.3-4H214l16.78,35.47a4.58,4.58,0,0,0,4.15,2.57h2A4.58,4.58,0,0,0,241,81l17.18-35.54Z"/><path class="cls-1" d="M77.86,30.79s-2.75-2.94-6.08-6.27-10.39-1.38-10.39-1.38l-8-9.11H25.1l-8,9.11S10,21.19,6.67,24.52.59,30.79.59,30.79l2.16,5.29L0,43.92S8.08,74.5,9,78.23c1.86,7.35,3.14,10.19,8.44,13.92s14.9,10.19,16.47,11.17S37.46,106,39.22,106s3.73-1.67,5.3-2.65S55.7,95.87,61,92.15s6.57-6.57,8.44-13.92c.94-3.73,9-34.31,9-34.31L75.7,36.08ZM51,78.3c-.58.41-8.42,6.48-9.18,7.15l-.31.27c-.73.66-1.66,1.51-2.32,1.51s-1.6-.85-2.34-1.51l-.3-.27c-.77-.67-8.6-6.74-9.18-7.15s-1-1.17-.34-1.57,1.81-1,3.65-1.93l1.76-.91a31.38,31.38,0,0,1,6.74-2.64A31.38,31.38,0,0,1,46,73.89l1.76.91c1.84,1,3.15,1.62,3.65,1.93S51.63,77.89,51,78.3Zm16.5-30.11c-.22.21-.45.43-.68.67l-7.75,8.23-.26.26c-.77.78-1.91,1.92-1.11,3.83l.17.38c.88,2.07,2,4.61.59,7.19-1.48,2.74-4,4.57-5.62,4.27a29.8,29.8,0,0,1-6.82-3.19c-1.39-.91-5.82-4.56-5.82-6,0-1.16,3.18-3.1,4.73-4l.69-.43.76-.48c1.41-.88,4-2.46,4-3.17s.05-1.11-1.09-3.25c-.26-.49-.53-1-.82-1.45-1.08-1.86-2.29-3.95-2-5.45.3-1.68,3-2.65,5.19-3.47l.81-.3L54.85,41c2.24-.84,4.72-1.77,5.13-2,.57-.26.42-.51-1.29-.67l-.84-.09c-2.13-.22-6.05-.64-8-.11l-1.24.34c-2.14.58-4.77,1.29-5,1.7l-.12.19c-.24.35-.4.57-.13,2,.07.43.24,1.28.44,2.34.59,3.09,1.52,7.92,1.63,9l.06.44c.15,1.21.24,2-1.16,2.33l-.37.09a35.28,35.28,0,0,1-4.75.89,33.93,33.93,0,0,1-4.74-.9l-.37-.08c-1.4-.32-1.31-1.12-1.16-2.33l0-.44c.12-1.09,1-5.92,1.64-9l.44-2.33c.27-1.46.11-1.69-.13-2,0-.06-.09-.12-.13-.19-.25-.41-2.88-1.12-5-1.7l-1.24-.34c-1.91-.53-5.83-.11-8,.11l-.84.09c-1.72.16-1.86.41-1.29.67.4.19,2.89,1.12,5.13,2l3.15,1.18c2.24.82,4.89,1.79,5.19,3.47.27,1.5-.94,3.59-2,5.45-.29.5-.57,1-.82,1.45C28,54.64,27.92,54.89,28,55.75s2.62,2.29,4,3.17l.76.47c.14.1.38.25.69.44,1.54.94,4.73,2.88,4.73,4,0,1.4-4.43,5.05-5.83,5.95A29.16,29.16,0,0,1,25.57,73c-1.62.3-4.14-1.53-5.62-4.27-1.38-2.58-.29-5.12.59-7.18l.16-.39c.81-1.91-.33-3-1.11-3.83l-.25-.26-7.75-8.23c-.22-.23-.45-.45-.68-.67A5,5,0,0,1,9,44.1c0-2.68,10.35-15.17,10.35-15.17s8.73,1.67,9.9,1.67a4.09,4.09,0,0,0,.46,0l.18,0,.38-.07.23-.06.4-.1.27-.07.43-.14c.26-.08.54-.16.81-.26l.11,0,1.58-.54,1.23-.42A14.06,14.06,0,0,1,39.22,28a14.15,14.15,0,0,1,3.93.79l1.37.47.47.16.67.23.17,0c.53.18,1.05.35,1.52.49l.17,0,.48.13.2.05.4.08.16,0a2.79,2.79,0,0,0,.47.05c1.17,0,9.9-1.67,9.9-1.67S69.47,41.42,69.47,44.1A5,5,0,0,1,67.54,48.19Z"/></svg>