<?xml version="1.0" encoding="utf-8"?>
<!-- Generator: Adobe Illustrator 23.1.0, SVG Export Plug-In . SVG Version: 6.00 Build 0)  -->
<svg version="1.1"
	 id="svg2" xmlns:cc="http://creativecommons.org/ns#" xmlns:dc="http://purl.org/dc/elements/1.1/" xmlns:rdf="http://www.w3.org/1999/02/22-rdf-syntax-ns#" xmlns:svg="http://www.w3.org/2000/svg"
	 xmlns="http://www.w3.org/2000/svg" xmlns:xlink="http://www.w3.org/1999/xlink" x="0px" y="0px" viewBox="0 0 300 120"
	 style="enable-background:new 0 0 300 120;" xml:space="preserve">
<style type="text/css">
	.st0{fill-rule:evenodd;clip-rule:evenodd;}
</style>
<g id="g3178">
	<path id="path17" class="st0" d="M93.3,72.8c-2.7-5-7.4-7-12.8-7c-7.9,0-14.1,5.6-14.1,15c0,9.6,5.9,15,14.4,15
		c5.5,0,10.1-3,12.7-7.6l-6-3.1c-1.3,3.2-3.4,4.2-5.9,4.2c-4.4,0-6.5-3.7-6.5-8.6c0-4.9,1.7-8.6,6.5-8.6c1.3,0,3.9,0.7,5.4,3.9
		L93.3,72.8z"/>
	<path id="path19" class="st0" d="M108.6,72.3c4.8,0,6.8,3.7,6.8,8.2c0,5.2-2,8.9-6.8,8.9c-4.8,0-6.8-3.7-6.8-8.6
		S103.9,72.3,108.6,72.3z M108.6,65.8c-8.9,0-15.2,5.4-15.2,15c0,9.6,6.3,15,15.2,15s15.2-5.4,15.2-15S117.5,65.8,108.6,65.8z"/>
	<path id="path21" class="st0" d="M125.5,95.1h8.4V77.4c0-2.6,1.1-4.8,4.4-4.8c3.2,0,4.1,1.9,4.1,4.7v17.8h8.4V77.6
		c0-2.9,1.4-5,4.2-5c3.2,0,4.3,1.8,4.3,5.8v16.7h8.4V73.3c0-6.5-6-7.5-8.8-7.5c-3.3,0-6.4,1-9.2,3.8c-1.9-2.5-4.3-3.8-7.6-3.8
		c-2.6,0-6.1,0.7-8.2,3.3v-2.5h-8.4L125.5,95.1C125.5,95.1,125.5,95.1,125.5,95.1z"/>
	<path id="path23" class="st0" d="M170.3,95.1h8.4V77.4c0-2.6,1.1-4.8,4.4-4.8c3.2,0,4.1,1.9,4.1,4.7v17.8h8.4V77.6
		c0-2.9,1.4-5,4.2-5c3.2,0,4.3,1.8,4.3,5.8v16.7h8.4V73.3c0-6.5-6-7.5-8.8-7.5c-3.3,0-6.4,1-9.2,3.8c-1.9-2.5-4.3-3.8-7.6-3.8
		c-2.6,0-6.1,0.7-8.2,3.3v-2.5h-8.4L170.3,95.1C170.3,95.1,170.3,95.1,170.3,95.1z"/>
	<path id="path25" class="st0" d="M229.2,72.3c4.8,0,6.8,3.7,6.8,8.2c0,5.2-2,8.9-6.8,8.9c-4.8,0-6.8-3.7-6.8-8.6
		S224.5,72.3,229.2,72.3z M229.2,65.8c-8.9,0-15.2,5.4-15.2,15c0,9.6,6.3,15,15.2,15c8.9,0,15.2-5.4,15.2-15S238.1,65.8,229.2,65.8z
		"/>
	<path id="path27" class="st0" d="M246.6,95.1h8.4V77.4c0-2.6,1.1-4.8,4.4-4.8c3.2,0,4.1,1.9,4.1,4.7v17.8h8.4V74
		c0-4.3-1.9-8.2-8.6-8.2c-2.6,0-6.1,0.7-8.2,3.3v-2.5h-8.4L246.6,95.1L246.6,95.1z"/>
	<path id="path29" class="st0" d="M299.7,70c-3.9-2.6-8.2-4.1-12.6-4.1c-5.8,0-12,2.8-12,10c0,10.1,16.9,6.6,16.9,11
		c0,2.6-3.2,2.9-4.6,2.9c-3.8,0-6.4-1.6-9-4l-5.2,4.5c4.2,3.9,7.7,5.6,13.9,5.6c6.2,0,12.9-2.7,12.9-10.2c0-10.7-16.9-6.6-16.9-11.5
		c0-1.4,1.5-2.2,3.6-2.2c2.6,0,6.2,1.1,7.9,3.1L299.7,70z"/>
	<path id="path31" class="st0" d="M93.3,40c-2.7-5-7.4-7-12.8-7c-7.9,0-14.1,5.6-14.1,15c0,9.6,5.9,15,14.4,15
		c5.5,0,10.1-3,12.7-7.6l-6-3.1c-1.3,3.2-3.4,4.2-5.9,4.2c-4.4,0-6.5-3.7-6.5-8.6c0-4.9,1.7-8.6,6.5-8.6c1.3,0,3.9,0.7,5.4,3.9
		L93.3,40z"/>
	<path id="path33" class="st0" d="M95.4,62.3h8.4V45.8c0-3.2,2-4,7-4.6l0.9-0.1l-0.1-7.4c-2.9,0.2-6,1.3-7.8,3v-2.9h-8.4L95.4,62.3
		L95.4,62.3z"/>
	<path id="path35" class="st0" d="M140,49.8c-0.1-8.8-3.6-16.7-14-16.7c-8.7,0-14,5.8-14,15.9c0,8,5.1,14.1,14,14.1
		c6.4,0,10.9-2.5,13.8-7.9l-6.3-3.3c-2.4,3.4-3.9,5-7,5c-2.7,0-6.2-1.7-6.2-7.2H140C140,49.8,140,49.8,140,49.8z M120.3,44.6
		c0.4-3.7,3.3-5.5,5.7-5.5c2.4,0,5.4,1.3,5.7,5.5H120.3z"/>
	<path id="path37" class="st0" d="M159.1,50.4c0,4.3-2.5,6.5-5.7,6.5c-2,0-3.9-1-3.9-3.2c0-2.3,1.9-3.1,4-3.7l5.6-1.6V50.4
		C159.1,50.4,159.1,50.4,159.1,50.4z M167.2,41.3c-0.1-6.4-4.9-8.2-12.7-8.2c-3.9,0-11.5,0.7-11.7,8.9h8c0.4-2.8,1.7-3.8,4.4-3.8
		c2.2,0,4,0.9,4,3.1v2.4l-3.1,0.4c-9.1,1.3-14.6,3.7-14.6,10.5c0,5.5,4.1,8.5,9.5,8.5c3,0,7.2-1.4,8.6-3.7h0.1c0.1,1,0.2,2,0.5,2.9
		h7.7c-0.7-1.8-0.7-4-0.7-5.9L167.2,41.3L167.2,41.3L167.2,41.3z"/>
	<path id="path39" class="st0" d="M186.8,34.3h-5v-8.2h-8.4v8.2h-4.1v5.1h4.1v15c0,4.1,1,8.6,8.1,8.6c1.8,0,4.3-0.2,5.4-0.3v-6.6
		c-0.4,0.1-1.6,0.2-2.5,0.2c-1.5,0-2.6-0.6-2.6-2.8v-14h5L186.8,34.3C186.8,34.3,186.8,34.3,186.8,34.3z"/>
	<path id="path41" class="st0" d="M189.9,33.8v28.5h8.4V33.8C198.3,33.8,189.9,33.8,189.9,33.8z M198.3,30.6v-6.4H190v6.4H198.3z"/>
	<path id="polygon43" class="st0" d="M209.5,62.3L209.5,62.3h8.4l9.7-28.5h-8.9l-4.9,20.1h-0.1l-4.9-20.1h-8.9L209.5,62.3z"/>
	<path id="path45" class="st0" d="M254.7,49.8c-0.1-8.8-3.6-16.7-14-16.7c-8.7,0-14,5.8-14,15.9c0,8,5.1,14.1,14,14.1
		c6.4,0,10.9-2.5,13.8-7.9l-6.3-3.3c-2.4,3.4-3.9,5-7,5c-2.7,0-6.2-1.7-6.2-7.2H254.7L254.7,49.8L254.7,49.8z M235,44.6
		c0.4-3.7,3.3-5.5,5.7-5.5c2.4,0,5.4,1.3,5.7,5.5H235z"/>
	<path id="path49" class="st0" d="M31.3,32.6c-8.6,0-16.2,3.2-22,9.1C3.3,47.8,0,55.7,0,64C0,72.3,3.2,80,9.2,86
		c6,6,13.8,9.3,22.1,9.3s16.2-3.3,22.4-9.4c5.8-5.8,8.9-13.4,8.9-22c0-8.5-3.1-16.2-9-22.2C47.6,35.8,39.9,32.6,31.3,32.6z
		 M31.4,38.3c7,0,13.3,2.7,18.2,7.6C54.4,50.6,57,57,57,64c0,7-2.5,13.2-7.3,18c-5.1,5-11.6,7.6-18.3,7.6c-6.8,0-13.2-2.7-18-7.6
		c-4.9-4.9-7.6-11.3-7.6-18c0-6.8,2.8-13.2,7.6-18.2C18.1,40.8,24.3,38.3,31.4,38.3z"/>
	<path id="path51" class="st0" d="M31,58.7c-1.8-3.2-4.8-4.5-8.3-4.5c-5.1,0-9.2,3.6-9.2,9.7c0,6.2,3.8,9.7,9.3,9.7
		c3.5,0,6.6-1.9,8.2-4.9l-3.9-2c-0.9,2.1-2.2,2.7-3.9,2.7c-2.9,0-4.2-2.4-4.2-5.6s1.1-5.6,4.2-5.6c0.8,0,2.5,0.5,3.5,2.5
		C26.8,60.9,31,58.7,31,58.7z"/>
	<path id="path53" class="st0" d="M49.1,58.7c-1.8-3.2-4.8-4.5-8.3-4.5c-5.1,0-9.2,3.6-9.2,9.7c0,6.2,3.8,9.7,9.3,9.7
		c3.5,0,6.6-1.9,8.2-4.9l-3.9-2c-0.9,2.1-2.2,2.7-3.9,2.7c-2.9,0-4.2-2.4-4.2-5.6s1.1-5.6,4.2-5.6c0.8,0,2.5,0.5,3.5,2.5
		C44.9,60.9,49.1,58.7,49.1,58.7z"/>
</g>
</svg>
