<svg xmlns="http://www.w3.org/2000/svg" viewBox="0 0 300 120"><defs><style>.a{fill:#fff;}</style></defs><title>cnn</title><path class="a" d="M110.3,10.1H91.7a50,50,0,0,0,0,99.9h35a15.88,15.88,0,0,0,15.9-15.9V63.6l24.2,38.2a18.33,18.33,0,0,0,33.6-10.1V63.6l24.2,38.2a18.33,18.33,0,0,0,33.6-10.1V10H245.7V91.7a5.8,5.8,0,0,1-5.8,5.8,5.63,5.63,0,0,1-4.8-2.6L192,27.1a2.25,2.25,0,0,0-4.1,1.2V91.7a5.8,5.8,0,0,1-5.8,5.8,5.63,5.63,0,0,1-4.8-2.6L134.2,27a2.25,2.25,0,0,0-4.1,1.2V93.9a3.54,3.54,0,0,1-3.5,3.5h-35a37.45,37.45,0,1,1,.1-74.9h18.6Z"/><path class="a" d="M112.3,81.5a1.79,1.79,0,0,0,1.8-1.8h0V28.3a18.28,18.28,0,0,1,33.6-10l24.1,37.9V28.4a18.28,18.28,0,0,1,33.6-10l24.1,37.9V10H242V91.7a2.22,2.22,0,0,1-2.2,2.2A2.27,2.27,0,0,1,238,93L195,25a5.63,5.63,0,0,0-4.8-2.6,5.8,5.8,0,0,0-5.8,5.8V91.6a2.22,2.22,0,0,1-2.2,2.2,2.27,2.27,0,0,1-1.8-.9l-43.2-68a5.63,5.63,0,0,0-4.8-2.6,5.8,5.8,0,0,0-5.8,5.8V92a1.79,1.79,0,0,1-1.8,1.8H91.7a33.9,33.9,0,1,1,0-67.8s18.6-.1,18.6,0V38.6H91.7a21.45,21.45,0,0,0,0,42.9Z"/></svg>