<svg id="Camada_1" data-name="Camada 1" xmlns="http://www.w3.org/2000/svg" viewBox="0 0 300 120"><defs><style>.cls-1{fill:none;stroke:#fff;stroke-linecap:round;stroke-linejoin:round;stroke-width:5.13px;}</style></defs><title>codepen</title><path class="cls-1" d="M31.56,48.84a15.62,15.62,0,1,0,0,22.32M47.19,51.74l24.56-16.3,24.56,16.3V68.26L71.75,84.56,47.19,68.26Zm0,0L71.75,68.26,96.31,51.74m0,16.52L71.75,51.74,47.19,68.26M71.75,35.44v16.3m0,16.52v16.3m42.42-40.19h11.16a15.63,15.63,0,1,1,0,31.26H114.17Zm62.51,0h-20.1V75.63h20.1M156.58,60H170m24.56,2.23h13.39a8.93,8.93,0,1,0,0-17.86H194.54V75.63m58-31.26H232.49V75.63h20.09M232.49,60h13.39m24.56,15.63V44.37L295,75.63V44.37"/></svg>