<?xml version="1.0" encoding="utf-8"?>
<!-- Generator: Adobe Illustrator 23.0.6, SVG Export Plug-In . SVG Version: 6.00 Build 0)  -->
<svg version="1.1" id="Camada_1" xmlns="http://www.w3.org/2000/svg" xmlns:xlink="http://www.w3.org/1999/xlink" x="0px" y="0px"
	 viewBox="0 0 300 120" style="enable-background:new 0 0 300 120;" xml:space="preserve">
<title>codepen</title>
<g>
	<path d="M71.8,87.1L71.8,87.1C71.7,87.1,71.7,87.1,71.8,87.1C71.7,87.1,71.7,87.1,71.8,87.1C71.7,87.1,71.7,87.1,71.8,87.1
		C71.7,87.1,71.7,87.1,71.8,87.1c-0.6,0-1-0.2-1.4-0.4L45.8,70.4c-0.3-0.2-0.6-0.4-0.8-0.7c-0.3-0.5-0.4-1-0.4-1.5V51.8
		c0-0.5,0.1-1,0.4-1.5c0.2-0.3,0.5-0.6,0.8-0.7l24.5-16.3c0.8-0.6,2.1-0.6,2.9,0l24.5,16.2c0.3,0.2,0.5,0.4,0.7,0.7c0,0,0,0,0,0
		c0,0,0,0,0,0c0,0,0,0.1,0.1,0.1c0.3,0.4,0.4,0.9,0.4,1.4v16.4c0,0.5-0.1,1-0.4,1.4c0,0-0.1,0.1-0.1,0.1c0,0,0,0,0,0c0,0,0,0,0,0
		c-0.2,0.3-0.4,0.5-0.7,0.7L73.2,86.7C72.8,87,72.3,87.1,71.8,87.1L71.8,87.1C71.8,87.1,71.8,87.1,71.8,87.1
		C71.8,87.1,71.8,87.1,71.8,87.1C71.8,87.1,71.8,87.1,71.8,87.1L71.8,87.1z M74.3,69.6v10.2l17.4-11.5L84,63.1L74.3,69.6z
		 M51.8,68.2l17.4,11.5V69.6l-9.7-6.5L51.8,68.2z M64.1,60l7.7,5.2l7.7-5.2l-7.7-5.2L64.1,60z M49.8,56.6v6.9l5.1-3.4L49.8,56.6z
		 M88.6,60l5.1,3.4v-6.9L88.6,60z M74.3,50.4l9.7,6.5l7.7-5.2L74.3,40.2V50.4z M51.8,51.8l7.7,5.2l9.7-6.5V40.2L51.8,51.8z
		 M295,78.2c-0.8,0-1.5-0.3-2-1l-20-25.4v23.8c0,1.4-1.1,2.6-2.6,2.6s-2.6-1.1-2.6-2.6V44.4c0-1.1,0.7-2.1,1.7-2.4
		c1-0.4,2.2,0,2.9,0.8l20,25.4V44.4c0-1.4,1.1-2.6,2.6-2.6s2.6,1.1,2.6,2.6v31.3c0,1.1-0.7,2.1-1.7,2.4
		C295.6,78.1,295.3,78.2,295,78.2z M252.6,78.2h-20.1c-1.4,0-2.6-1.1-2.6-2.6V44.4c0-1.4,1.1-2.6,2.6-2.6h20c1.4,0,2.6,1.1,2.6,2.6
		s-1.1,2.6-2.6,2.6h-17.5v10.5h10.8c1.4,0,2.6,1.1,2.6,2.6c0,1.4-1.1,2.6-2.6,2.6h-10.8v10.5h17.5c1.4,0,2.6,1.1,2.6,2.6
		S254,78.2,252.6,78.2z M194.5,78.2c-1.4,0-2.6-1.1-2.6-2.6V44.4c0-1.4,1.1-2.6,2.6-2.6H208c6.3,0,11.5,5.2,11.5,11.5
		c0,6.3-5.2,11.5-11.5,11.5h-10.8v10.8C197.1,77,196,78.2,194.5,78.2z M197.1,59.7H208c3.5,0,6.4-2.9,6.4-6.4c0-3.5-2.9-6.4-6.4-6.4
		h-10.8V59.7z M176.7,78.2h-20.1c-1.4,0-2.6-1.1-2.6-2.6V44.4c0-1.4,1.1-2.6,2.6-2.6h20.1c1.4,0,2.6,1.1,2.6,2.6s-1.1,2.6-2.6,2.6
		h-17.5v10.5H170c1.4,0,2.6,1.1,2.6,2.6c0,1.4-1.1,2.6-2.6,2.6h-10.9v10.5h17.5c1.4,0,2.6,1.1,2.6,2.6S178.1,78.2,176.7,78.2z
		 M125.3,78.2h-11.2c-1.4,0-2.6-1.1-2.6-2.6V44.4c0-1.4,1.1-2.6,2.6-2.6h11.2c0,0,0,0,0,0c10,0,18.2,8.2,18.2,18.2
		C143.5,70,135.4,78.2,125.3,78.2z M116.7,73.1h8.6c7.2,0,13.1-5.9,13.1-13.1c0-7.2-5.9-13.1-13.1-13.1c0,0,0,0,0,0h-8.6V73.1z
		 M20.6,78.1c-4.6,0-9.2-1.7-12.7-5.2c-7.2-7-7.3-18.6-0.3-25.7c3.4-3.5,7.9-5.4,12.8-5.5c4.8,0,9.4,1.8,12.9,5.2c1,1,1,2.6,0,3.6
		c-1,1-2.6,1-3.6,0c-2.5-2.4-5.7-3.7-9.1-3.7c0,0-0.1,0-0.1,0c-3.5,0-6.8,1.4-9.2,3.9c-5,5.1-4.9,13.4,0.2,18.5
		c5,4.9,13.2,4.9,18.3,0c1-1,2.6-1,3.6,0c1,1,1,2.6,0,3.6C29.8,76.4,25.2,78.1,20.6,78.1z"/>
</g>
</svg>
