<?xml version="1.0" encoding="utf-8"?>
<!-- Generator: Adobe Illustrator 23.0.6, SVG Export Plug-In . SVG Version: 6.00 Build 0)  -->
<svg version="1.1" id="Camada_1" xmlns="http://www.w3.org/2000/svg" xmlns:xlink="http://www.w3.org/1999/xlink" x="0px" y="0px"
	 viewBox="0 0 300 120" style="enable-background:new 0 0 300 120;" xml:space="preserve">
<title>craigslist</title>
<path d="M31.6,65.8c-1,5-3,8.8-5.9,11.4c-2.6,2.5-6.1,4-9.8,4c-4.3,0-8.4-2-11.1-5.4C1.6,72.3,0,67.5,0,61.4C0,55.5,1.8,50.7,5.3,47
	c3.2-3.6,7.8-5.6,12.6-5.5c3.3-0.1,6.5,0.9,9.1,2.9c2.4,2,3.6,4,3.6,6.1c0.1,0.9-0.3,1.9-1,2.5c-0.8,0.7-1.8,1-2.8,1
	c-1.4,0.1-2.7-0.5-3.6-1.6c-0.6-1-0.9-2.1-0.9-3.3c-0.1-1.4-0.7-2.7-1.7-3.7c-1.2-0.9-2.6-1.3-4-1.2c-2.5-0.1-5,1-6.6,3
	c-2.2,2.7-3.3,6.2-3.3,10.6C6.6,62,7.8,66.1,10,69.7c2.2,3.4,5.2,5.2,8.9,5.2c2.7,0,5.2-1,7.2-2.8c2-1.9,3.5-4.3,4.4-6.9L31.6,65.8
	L31.6,65.8z M47.9,41.4v8.5c3.1-5.6,6.4-8.5,9.7-8.5c1.4,0,2.7,0.5,3.7,1.4c0.9,0.8,1.5,2,1.5,3.2c0,1-0.4,2-1.1,2.7
	c-0.7,0.7-1.6,1.1-2.5,1.1c-1.2-0.1-2.3-0.6-3.2-1.4c-0.7-0.7-1.6-1.2-2.6-1.4c-0.6,0.1-1.2,0.4-1.6,0.8c-1.6,1.6-2.8,3.5-3.8,5.5
	v18c-0.1,1.6,0.2,3.2,0.8,4.7c0.4,0.8,1.1,1.4,1.9,1.8c1.2,0.5,2.6,0.8,3.9,0.7V80H35.3v-1.5c1.5,0.1,3-0.2,4.3-0.9
	c0.8-0.5,1.3-1.2,1.4-2.1c0.2-1.3,0.2-2.7,0.2-4V57.1c0.1-2.6,0-5.2-0.3-7.8c-0.1-0.7-0.5-1.3-1-1.8c-0.5-0.4-1.1-0.6-1.8-0.6
	c-1,0-2,0.2-2.9,0.6L34.9,46l11.3-4.6H47.9z M86.2,74.7c-2.3,1.9-4.7,3.6-7.2,5.2c-1.5,0.7-3.1,1-4.7,1c-2.4,0.1-4.8-0.9-6.4-2.7
	c-1.7-1.9-2.6-4.4-2.5-7c0-1.7,0.4-3.3,1.2-4.8c1.1-1.9,3.1-3.6,5.8-5.3c4.4-2.3,9.1-4.3,13.8-6v-1.5c0-3.8-0.6-6.3-1.8-7.7
	c-1.3-1.5-3.2-2.2-5.2-2.1c-1.5-0.1-3,0.4-4.1,1.4c-1,0.8-1.6,2-1.6,3.2l0.1,2.4c0.1,1.1-0.3,2.1-1,2.9c-0.6,0.7-1.6,1.1-2.5,1
	c-1,0-1.9-0.4-2.5-1.1c-0.7-0.8-1.1-1.8-1-2.9c0-2.4,1.2-4.5,3.6-6.5s5.8-3,10.1-3c2.8-0.1,5.6,0.5,8.2,1.7c1.6,0.9,2.9,2.3,3.6,4
	c0.5,1.2,0.7,3.6,0.7,7.2v12.8c0,3.6,0.1,5.8,0.2,6.6c0,0.6,0.3,1.2,0.7,1.6c0.3,0.3,0.7,0.4,1.1,0.4c0.4,0,0.8-0.1,1.1-0.3
	c1.2-0.9,2.3-1.9,3.3-3v2.3c-3.1,4.1-6,6.2-8.8,6.2c-1.2,0-2.4-0.5-3.2-1.4C86.5,77.9,86.2,76.3,86.2,74.7z M86.2,72V57.7
	c-2.7,1-5.4,2.2-8,3.5c-1.8,0.9-3.4,2.2-4.6,3.8c-0.9,1.3-1.4,2.8-1.4,4.3c-0.1,1.8,0.6,3.6,1.8,4.9c1,1.2,2.5,2,4.1,2
	C80.1,76.1,82.9,74.8,86.2,72z M111.7,21.7c2.3,0,4.1,1.8,4.1,4.1c0,1.1-0.4,2.2-1.2,3c-0.8,0.8-1.8,1.2-2.9,1.2
	c-1.1,0-2.2-0.4-3-1.2c-0.8-0.8-1.2-1.9-1.2-3c0-1.1,0.4-2.1,1.2-2.9C109.5,22.1,110.6,21.7,111.7,21.7z M115.1,41.4v30.2
	c-0.1,1.6,0.1,3.2,0.5,4.7c0.2,0.8,0.8,1.4,1.5,1.7c1.2,0.5,2.4,0.7,3.7,0.6v1.5h-18.2v-1.5c1.3,0.1,2.5-0.1,3.7-0.5
	c0.7-0.4,1.2-1,1.5-1.8c0.5-1.5,0.7-3.1,0.6-4.7V57.1c0.1-2.6,0-5.3-0.4-7.9c-0.1-0.7-0.4-1.3-0.9-1.8c-0.5-0.3-1.1-0.5-1.7-0.5
	c-1,0-1.9,0.2-2.8,0.6L102,46l11.3-4.6H115.1z M135.5,66.4c-2.2-1-4-2.6-5.3-4.7c-1.2-2-1.8-4.3-1.8-6.7c0-3.7,1.5-7.1,4.2-9.6
	c2.9-2.7,6.8-4.2,10.8-4c3.3-0.1,6.5,0.8,9.3,2.6h8c0.7-0.1,1.3,0,2,0.1c0.2,0.1,0.3,0.2,0.4,0.3c0.2,0.2,0.2,0.7,0.2,1.3
	c0,0.5-0.1,1-0.2,1.5c-0.1,0.2-0.2,0.3-0.4,0.3c-0.7,0.1-1.4,0.2-2.1,0.1h-4.9c1.6,2.2,2.4,4.9,2.3,7.6c0,3.4-1.4,6.7-4,9
	c-2.7,2.5-6.3,3.7-10.8,3.7c-1.9,0-3.8-0.3-5.7-0.8c-0.9,0.8-1.8,1.7-2.4,2.7c-0.4,0.6-0.6,1.3-0.6,2c0,0.5,0.3,1.1,0.7,1.4
	c0.8,0.6,1.7,0.9,2.6,0.9c0.8,0.1,2.7,0.2,5.7,0.3c3.6,0,7.3,0.2,10.9,0.6c2.3,0.3,4.4,1.2,6.1,2.8c1.5,1.5,2.4,3.6,2.3,5.7
	c0,3.1-1.4,6-4.3,8.7c-4.3,4-9.8,6-16.7,6c-4.7,0.1-9.4-1.1-13.4-3.6c-2-1.4-3.1-2.8-3.1-4.3c0-0.7,0.1-1.4,0.5-2
	c0.8-1.5,1.8-2.9,2.9-4.2c0.2-0.2,1.6-1.7,4.2-4.4c-1.1-0.6-2.1-1.4-3-2.3c-0.6-0.6-0.9-1.4-0.9-2.3c0.1-1.2,0.5-2.4,1.2-3.4
	C131.7,69.7,133.5,67.9,135.5,66.4L135.5,66.4z M142.6,43.4c-2,0-3.8,0.9-5.1,2.4c-1.4,1.6-2,4.1-2,7.4c0,4.3,0.9,7.7,2.8,10.1
	c1.3,1.7,3.3,2.7,5.4,2.7c2,0,3.8-0.8,5.1-2.3c1.3-1.6,2-4,2-7.4c0-4.4-0.9-7.8-2.8-10.2C146.7,44.4,144.7,43.4,142.6,43.4z
	 M135.1,80.1c-1.1,1.2-2.1,2.5-2.9,3.9c-0.6,1-1,2.1-1,3.3c0,1.3,0.8,2.5,2.4,3.5c2.7,1.7,6.7,2.5,11.8,2.5c4.9,0,8.5-0.9,10.9-2.6
	s3.5-3.6,3.5-5.6c0-1.4-0.8-2.6-2.1-3c-1.4-0.6-4.2-1-8.4-1.1C144.6,81,139.8,80.7,135.1,80.1z M191.7,41.4v12.8h-1.4
	c-1-4-2.4-6.8-4-8.2c-1.7-1.5-3.9-2.3-6.2-2.2c-1.7-0.1-3.3,0.4-4.6,1.5c-1.1,0.8-1.8,2-1.8,3.4c0,1.4,0.4,2.8,1.3,3.9
	c0.8,1.1,2.6,2.3,5.2,3.6l6,2.9c5.5,2.7,8.3,6.3,8.3,10.7c0.1,3.2-1.4,6.3-3.9,8.3c-2.4,2-5.5,3.1-8.7,3.1c-2.7-0.1-5.3-0.5-7.9-1.2
	c-0.7-0.3-1.4-0.4-2.2-0.4c-0.7,0.1-1.2,0.5-1.5,1.1h-1.4V67.3h1.4c0.8,3.8,2.2,6.7,4.4,8.7c2,1.8,4.6,2.9,7.3,2.9
	c1.7,0.1,3.3-0.6,4.6-1.7c1.2-1,1.8-2.5,1.8-4c0-1.8-0.7-3.5-2-4.8c-1.3-1.3-4-2.9-7.9-4.9s-6.6-3.8-7.8-5.3
	c-1.2-1.7-1.9-3.8-1.8-5.9c-0.1-2.9,1.1-5.8,3.2-7.8c2.2-2.1,5.2-3.2,8.2-3.1c1.8,0.1,3.6,0.4,5.4,0.9c0.9,0.3,1.8,0.5,2.8,0.6
	c0.4,0,0.7-0.1,1-0.3c0.4-0.4,0.7-0.8,0.9-1.3L191.7,41.4L191.7,41.4z M212.9,21.7v49.9c-0.1,1.6,0.1,3.2,0.5,4.7
	c0.3,0.8,0.9,1.4,1.6,1.7c1.3,0.5,2.6,0.7,4,0.6v1.5h-18.4v-1.5c1.2,0.1,2.4-0.1,3.5-0.5c0.7-0.4,1.2-1,1.5-1.8
	c0.4-0.8,0.5-2.4,0.5-4.7V37.4c0.1-2.6,0-5.2-0.3-7.8c-0.1-0.7-0.4-1.4-0.9-2c-0.4-0.4-1-0.6-1.6-0.5c-0.9,0-1.9,0.3-2.7,0.7
	l-0.7-1.4l11.2-4.6C211.1,21.8,212.9,21.7,212.9,21.7z M232.8,21.7c2.3,0,4.1,1.8,4.1,4.1c0,0,0,0,0,0c0,1.1-0.4,2.2-1.2,3
	c-0.8,0.8-1.8,1.2-2.9,1.2c-1.1,0-2.2-0.4-3-1.2c-0.8-0.8-1.2-1.9-1.2-3c0-1.1,0.4-2.1,1.2-2.9C230.6,22.1,231.7,21.7,232.8,21.7
	L232.8,21.7z M236.2,41.4v30.2c-0.1,1.6,0.1,3.2,0.5,4.7c0.2,0.8,0.8,1.4,1.5,1.7c1.2,0.5,2.4,0.7,3.7,0.6v1.5h-18.2v-1.5
	c1.3,0.1,2.5-0.1,3.7-0.5c0.7-0.4,1.2-1.1,1.5-1.8c0.5-1.5,0.7-3.1,0.6-4.7V57.1c0.1-2.6,0-5.3-0.4-7.9c-0.1-0.7-0.4-1.3-0.9-1.8
	c-0.5-0.3-1.1-0.5-1.7-0.5c-1,0-1.9,0.2-2.8,0.6l-0.6-1.5l11.3-4.6L236.2,41.4z M270.8,41.4v12.8h-1.4c-1-4-2.4-6.8-4-8.2
	c-1.7-1.5-3.9-2.3-6.2-2.2c-1.7-0.1-3.3,0.4-4.6,1.5c-1.1,0.8-1.8,2-1.8,3.4c0,1.4,0.4,2.8,1.3,3.9c0.8,1.1,2.6,2.3,5.2,3.6l6,2.9
	c5.5,2.7,8.3,6.3,8.3,10.7c0.1,3.2-1.4,6.3-3.9,8.3c-2.4,2-5.5,3.1-8.7,3.1c-2.7-0.1-5.3-0.5-7.9-1.2c-0.7-0.3-1.4-0.4-2.2-0.4
	c-0.7,0.1-1.2,0.5-1.5,1.1H248V67.3h1.4c0.8,3.8,2.2,6.7,4.4,8.7c2,1.8,4.6,2.9,7.3,2.9c1.7,0.1,3.3-0.6,4.6-1.7
	c1.2-1,1.8-2.5,1.8-4c0-1.8-0.7-3.5-2-4.8c-1.3-1.3-4-2.9-7.9-4.9s-6.6-3.8-7.8-5.3c-1.2-1.7-1.9-3.8-1.8-5.9
	c-0.1-2.9,1.1-5.8,3.2-7.8c2.2-2.1,5.2-3.2,8.2-3.1c1.8,0.1,3.6,0.4,5.4,0.9c0.9,0.3,1.8,0.5,2.8,0.6c0.4,0,0.7-0.1,1-0.3
	c0.4-0.4,0.7-0.8,0.9-1.3L270.8,41.4L270.8,41.4z M290.1,30.1v12.4h8.8v2.9h-8.8v24.4c0,2.4,0.3,4.1,1,4.9c0.7,0.8,1.7,1.3,2.7,1.3
	c0.9,0,1.8-0.3,2.6-0.8c0.9-0.6,1.6-1.5,2-2.5h1.6c-0.8,2.4-2.2,4.5-4.1,6.1c-1.5,1.3-3.4,2-5.4,2c-1.3,0-2.6-0.3-3.7-1
	c-1.2-0.7-2.1-1.7-2.7-3c-0.7-1.9-1-4-0.9-6V45.4h-5.9V44c1.7-0.7,3.3-1.8,4.6-3.1c1.7-1.5,3.1-3.2,4.2-5.1c1-1.8,1.9-3.7,2.6-5.7
	L290.1,30.1z"/>
</svg>
