<svg xmlns="http://www.w3.org/2000/svg" viewBox="0 0 300 120"><defs><style>.a{fill:#fff;}</style></defs><title>craigslist</title><path class="a" d="M31.6,65.8c-1,5-3,8.8-5.9,11.4a14.47,14.47,0,0,1-9.8,4A14.19,14.19,0,0,1,4.8,75.8Q0,70.55,0,61.4C0,55.5,1.8,50.7,5.3,47a16.68,16.68,0,0,1,12.6-5.5A14.17,14.17,0,0,1,27,44.4c2.4,2,3.6,4,3.6,6.1a3.17,3.17,0,0,1-1,2.5,4.14,4.14,0,0,1-2.8,1,4.13,4.13,0,0,1-3.6-1.6,5.93,5.93,0,0,1-.9-3.3,5.6,5.6,0,0,0-1.7-3.7,6.16,6.16,0,0,0-4-1.2,8.26,8.26,0,0,0-6.6,3c-2.2,2.7-3.3,6.2-3.3,10.6A21.49,21.49,0,0,0,10,69.7c2.2,3.4,5.2,5.2,8.9,5.2a10.38,10.38,0,0,0,7.2-2.8,18.18,18.18,0,0,0,4.4-6.9l1.1.6ZM47.9,41.4v8.5c3.1-5.6,6.4-8.5,9.7-8.5a5.31,5.31,0,0,1,3.7,1.4A4.22,4.22,0,0,1,62.8,46a3.69,3.69,0,0,1-1.1,2.7,3.58,3.58,0,0,1-2.5,1.1A5.53,5.53,0,0,1,56,48.4,6,6,0,0,0,53.4,47a2.68,2.68,0,0,0-1.6.8A20.63,20.63,0,0,0,48,53.3v18a11,11,0,0,0,.8,4.7,4.16,4.16,0,0,0,1.9,1.8,8.24,8.24,0,0,0,3.9.7V80H35.3V78.5a8.35,8.35,0,0,0,4.3-.9A3,3,0,0,0,41,75.5a26.07,26.07,0,0,0,.2-4V57.1a53,53,0,0,0-.3-7.8,3.17,3.17,0,0,0-1-1.8,2.79,2.79,0,0,0-1.8-.6,8.82,8.82,0,0,0-2.9.6L34.9,46l11.3-4.6ZM86.2,74.7A86.83,86.83,0,0,1,79,79.9a10.73,10.73,0,0,1-4.7,1,8.38,8.38,0,0,1-6.4-2.7,9.69,9.69,0,0,1-2.5-7,9.5,9.5,0,0,1,1.2-4.8c1.1-1.9,3.1-3.6,5.8-5.3a104.2,104.2,0,0,1,13.8-6V53.6c0-3.8-.6-6.3-1.8-7.7a6.43,6.43,0,0,0-5.2-2.1,6,6,0,0,0-4.1,1.4,4.34,4.34,0,0,0-1.6,3.2l.1,2.4a3.8,3.8,0,0,1-1,2.9,3.17,3.17,0,0,1-2.5,1,3.41,3.41,0,0,1-2.5-1.1,4,4,0,0,1-1-2.9c0-2.4,1.2-4.5,3.6-6.5s5.8-3,10.1-3a17.82,17.82,0,0,1,8.2,1.7,7.87,7.87,0,0,1,3.6,4c.5,1.2.7,3.6.7,7.2V66.9c0,3.6.1,5.8.2,6.6a2.66,2.66,0,0,0,.7,1.6,1.5,1.5,0,0,0,1.1.4,2,2,0,0,0,1.1-.3,28.76,28.76,0,0,0,3.3-3v2.3c-3.1,4.1-6,6.2-8.8,6.2a4.16,4.16,0,0,1-3.2-1.4,10.05,10.05,0,0,1-1-4.6Zm0-2.7V57.7a70.25,70.25,0,0,0-8,3.5A13.1,13.1,0,0,0,73.6,65a7.6,7.6,0,0,0-1.4,4.3A6.89,6.89,0,0,0,74,74.2a5.41,5.41,0,0,0,4.1,2c2-.1,4.8-1.4,8.1-4.2Zm25.5-50.3a4.1,4.1,0,0,1,4.1,4.1,4.41,4.41,0,0,1-1.2,3,4,4,0,0,1-2.9,1.2,4.41,4.41,0,0,1-3-1.2,4.07,4.07,0,0,1-1.2-3,3.85,3.85,0,0,1,1.2-2.9A4.41,4.41,0,0,1,111.7,21.7Zm3.4,19.7V71.6a15.05,15.05,0,0,0,.5,4.7,2.83,2.83,0,0,0,1.5,1.7,8,8,0,0,0,3.7.6v1.5H102.6V78.6a9.7,9.7,0,0,0,3.7-.5,3.47,3.47,0,0,0,1.5-1.8,12.22,12.22,0,0,0,.6-4.7V57.1a43.35,43.35,0,0,0-.4-7.9,3,3,0,0,0-.9-1.8,2.86,2.86,0,0,0-1.7-.5,8.31,8.31,0,0,0-2.8.6L102,46l11.3-4.6Zm20.4,25a12.18,12.18,0,0,1-5.3-4.7,12.69,12.69,0,0,1-1.8-6.7,12.89,12.89,0,0,1,4.2-9.6,14.88,14.88,0,0,1,10.8-4,16.64,16.64,0,0,1,9.3,2.6h8a7.23,7.23,0,0,1,2,.1,1.38,1.38,0,0,1,.4.3c.2.2.2.7.2,1.3a4.87,4.87,0,0,1-.2,1.5.54.54,0,0,1-.4.3,8.77,8.77,0,0,1-2.1.1h-4.9a12.27,12.27,0,0,1,2.3,7.6,11.79,11.79,0,0,1-4,9c-2.7,2.5-6.3,3.7-10.8,3.7a22.39,22.39,0,0,1-5.7-.8,10.72,10.72,0,0,0-2.4,2.7,4.47,4.47,0,0,0-.6,2,1.89,1.89,0,0,0,.7,1.4,4.59,4.59,0,0,0,2.6.9q1.2.15,5.7.3a87.68,87.68,0,0,1,10.9.6,10.84,10.84,0,0,1,6.1,2.8,7.76,7.76,0,0,1,2.3,5.7c0,3.1-1.4,6-4.3,8.7-4.3,4-9.8,6-16.7,6a23.94,23.94,0,0,1-13.4-3.6c-2-1.4-3.1-2.8-3.1-4.3a3.72,3.72,0,0,1,.5-2,22.88,22.88,0,0,1,2.9-4.2c.2-.2,1.6-1.7,4.2-4.4a11.55,11.55,0,0,1-3-2.3,3.17,3.17,0,0,1-.9-2.3,6.66,6.66,0,0,1,1.2-3.4,31.31,31.31,0,0,1,5.3-5.3Zm7.1-23a6.54,6.54,0,0,0-5.1,2.4c-1.4,1.6-2,4.1-2,7.4,0,4.3.9,7.7,2.8,10.1a6.54,6.54,0,0,0,5.4,2.7,6.47,6.47,0,0,0,5.1-2.3c1.3-1.6,2-4,2-7.4,0-4.4-.9-7.8-2.8-10.2a6.54,6.54,0,0,0-5.4-2.7Zm-7.5,36.7a17.74,17.74,0,0,0-2.9,3.9,6.55,6.55,0,0,0-1,3.3c0,1.3.8,2.5,2.4,3.5,2.7,1.7,6.7,2.5,11.8,2.5,4.9,0,8.5-.9,10.9-2.6s3.5-3.6,3.5-5.6a3.08,3.08,0,0,0-2.1-3c-1.4-.6-4.2-1-8.4-1.1A113.29,113.29,0,0,1,135.1,80.1Zm56.6-38.7V54.2h-1.4c-1-4-2.4-6.8-4-8.2a8.72,8.72,0,0,0-6.2-2.2,6.7,6.7,0,0,0-4.6,1.5,4.32,4.32,0,0,0-1.8,3.4,5.93,5.93,0,0,0,1.3,3.9c.8,1.1,2.6,2.3,5.2,3.6l6,2.9c5.5,2.7,8.3,6.3,8.3,10.7a10.19,10.19,0,0,1-3.9,8.3,13.45,13.45,0,0,1-8.7,3.1A31,31,0,0,1,174,80a6.85,6.85,0,0,0-2.2-.4,1.8,1.8,0,0,0-1.5,1.1h-1.4V67.3h1.4c.8,3.8,2.2,6.7,4.4,8.7a10.91,10.91,0,0,0,7.3,2.9,6.52,6.52,0,0,0,4.6-1.7,5.18,5.18,0,0,0,1.8-4,6.57,6.57,0,0,0-2-4.8c-1.3-1.3-4-2.9-7.9-4.9s-6.6-3.8-7.8-5.3a9.42,9.42,0,0,1-1.8-5.9,10.64,10.64,0,0,1,3.2-7.8,11.16,11.16,0,0,1,8.2-3.1,20.17,20.17,0,0,1,5.4.9,12.68,12.68,0,0,0,2.8.6,1.49,1.49,0,0,0,1-.3,6.53,6.53,0,0,0,.9-1.3l1.3.1Zm21.2-19.7V71.6a15.05,15.05,0,0,0,.5,4.7A3,3,0,0,0,215,78a8.91,8.91,0,0,0,4,.6v1.5H200.6V78.6a8.85,8.85,0,0,0,3.5-.5,3.47,3.47,0,0,0,1.5-1.8c.4-.8.5-2.4.5-4.7V37.4a56,56,0,0,0-.3-7.8,3.73,3.73,0,0,0-.9-2,2.2,2.2,0,0,0-1.6-.5,6.71,6.71,0,0,0-2.7.7l-.7-1.4,11.2-4.6,1.8-.1Zm19.9,0a4.1,4.1,0,0,1,4.1,4.1,4.23,4.23,0,0,1-1.2,3,4,4,0,0,1-2.9,1.2,4.41,4.41,0,0,1-3-1.2,4.07,4.07,0,0,1-1.2-3,3.85,3.85,0,0,1,1.2-2.9,4.41,4.41,0,0,1,3-1.2Zm3.4,19.7V71.6a15.05,15.05,0,0,0,.5,4.7,2.83,2.83,0,0,0,1.5,1.7,8,8,0,0,0,3.7.6v1.5H223.7V78.6a9.7,9.7,0,0,0,3.7-.5,3.93,3.93,0,0,0,1.5-1.8,12.22,12.22,0,0,0,.6-4.7V57.1a43.35,43.35,0,0,0-.4-7.9,3,3,0,0,0-.9-1.8,2.86,2.86,0,0,0-1.7-.5,8.31,8.31,0,0,0-2.8.6l-.6-1.5,11.3-4.6Zm34.6,0V54.2h-1.4c-1-4-2.4-6.8-4-8.2a9.19,9.19,0,0,0-6.2-2.2,6.7,6.7,0,0,0-4.6,1.5,4.32,4.32,0,0,0-1.8,3.4,5.93,5.93,0,0,0,1.3,3.9c.8,1.1,2.6,2.3,5.2,3.6l6,2.9c5.5,2.7,8.3,6.3,8.3,10.7a10.19,10.19,0,0,1-3.9,8.3,13.45,13.45,0,0,1-8.7,3.1,31,31,0,0,1-7.9-1.2,6.85,6.85,0,0,0-2.2-.4,1.8,1.8,0,0,0-1.5,1.1H248V67.3h1.4c.8,3.8,2.2,6.7,4.4,8.7a10.91,10.91,0,0,0,7.3,2.9,6.52,6.52,0,0,0,4.6-1.7,5.18,5.18,0,0,0,1.8-4,6.57,6.57,0,0,0-2-4.8c-1.3-1.3-4-2.9-7.9-4.9s-6.6-3.8-7.8-5.3a9.42,9.42,0,0,1-1.8-5.9,10.64,10.64,0,0,1,3.2-7.8,11.16,11.16,0,0,1,8.2-3.1,20.17,20.17,0,0,1,5.4.9,12.68,12.68,0,0,0,2.8.6,1.49,1.49,0,0,0,1-.3,6.53,6.53,0,0,0,.9-1.3l1.3.1Zm19.3-11.3V42.5h8.8v2.9h-8.8V69.8c0,2.4.3,4.1,1,4.9a3.51,3.51,0,0,0,2.7,1.3,5,5,0,0,0,2.6-.8,6.34,6.34,0,0,0,2-2.5H300a13.17,13.17,0,0,1-4.1,6.1,8.43,8.43,0,0,1-5.4,2,7.11,7.11,0,0,1-3.7-1,6.57,6.57,0,0,1-2.7-3,15.08,15.08,0,0,1-.9-6V45.4h-5.9V44a14.89,14.89,0,0,0,4.6-3.1,21.2,21.2,0,0,0,4.2-5.1,42.67,42.67,0,0,0,2.6-5.7Z"/></svg>