<svg xmlns="http://www.w3.org/2000/svg" viewBox="0 0 300 120"><defs><style>.a{fill:#fff;}</style></defs><title>dailymotion</title><path class="a" d="M74,33.6a5.3,5.3,0,1,0,5.4,5.3A5.36,5.36,0,0,0,74,33.6Z"/><rect class="a" x="69.7" y="47.5" width="8.7" height="29.4"/><polygon class="a" points="109.9 64.6 104.2 47.5 94.5 47.5 105.5 75.1 101.2 86.4 110 86.4 125.6 47.5 116.2 47.5 109.9 64.6"/><polygon class="a" points="83 76.9 91.7 76.9 91.7 36.2 83 38 83 76.9"/><path class="a" d="M56.3,50.8a10.11,10.11,0,0,0-8.4-3.7,14,14,0,0,0-9.9,4,15.05,15.05,0,0,0,.4,22.4,13.52,13.52,0,0,0,9.3,3.4,11.52,11.52,0,0,0,8.8-3.4v3.3H65V47.5H56.2v3.3ZM49.7,69.2c-4.5,0-7.7-3.1-7.7-7.2a7.36,7.36,0,0,1,7.4-7.3,7.24,7.24,0,0,1,7.3,7.4A7.11,7.11,0,0,1,49.7,69.2Z"/><path class="a" d="M23.1,50.7A10.11,10.11,0,0,0,14.7,47a14,14,0,0,0-9.9,4,15.05,15.05,0,0,0,.4,22.4,13.52,13.52,0,0,0,9.3,3.4,11.52,11.52,0,0,0,8.8-3.4v3.3h8.5V71.1A18.63,18.63,0,0,1,29.5,62a18.25,18.25,0,0,1,2.3-9h0V36.1L23,37.9V50.7ZM16.5,69.1c-4.5,0-7.7-3.1-7.7-7.2a7.36,7.36,0,0,1,7.4-7.3A7.24,7.24,0,0,1,23.5,62,7,7,0,0,1,16.5,69.1Z"/><path class="a" d="M253.9,46.8a15.44,15.44,0,0,0-11,4.6,14.82,14.82,0,0,0-4.6,10.8A15,15,0,0,0,242.7,73,14.65,14.65,0,0,0,254,77.7a15.46,15.46,0,0,0,11.3-4.6,14.7,14.7,0,0,0,4.5-11,15.13,15.13,0,0,0-4.9-11A15.67,15.67,0,0,0,253.9,46.8Zm.1,22.7a7.13,7.13,0,0,1-7-7.2,7.22,7.22,0,0,1,7-7.3,7.09,7.09,0,0,1,7,7.3A7,7,0,0,1,254,69.5Z"/><path class="a" d="M227.6,76.9h8.7v-7a18.33,18.33,0,0,1-1.6-7.7,19,19,0,0,1,1.6-7.5V47.6h-8.7Z"/><path class="a" d="M231.9,33.6a5.3,5.3,0,1,0,5.4,5.3A5.36,5.36,0,0,0,231.9,33.6Z"/><path class="a" d="M289.8,46.9a9.42,9.42,0,0,0-8.6,4.5l.1-3.9H273V76.9h8.6v-16c0-3.9,1.8-6,5.3-6s4.3,1.9,4.3,6V76.8H300V57.5C300,50.8,296,46.9,289.8,46.9Z"/><polygon class="a" points="219.8 36.2 210.9 38 210.9 47.7 207.1 47.7 207.1 56.2 210.9 56.2 210.9 76.9 219.8 76.9 219.8 56.2 223.7 56.2 223.7 47.7 219.8 47.7 219.8 36.2"/><path class="a" d="M189.5,46.8a15.44,15.44,0,0,0-11,4.6,15.22,15.22,0,0,0-4.6,10.8A15,15,0,0,0,178.3,73a14.65,14.65,0,0,0,11.3,4.7,15.46,15.46,0,0,0,11.3-4.6,14.7,14.7,0,0,0,4.5-11,15.13,15.13,0,0,0-4.9-11A15.49,15.49,0,0,0,189.5,46.8Zm.2,22.7a7.07,7.07,0,0,1-7-7.2,7.22,7.22,0,0,1,7-7.3,7.25,7.25,0,0,1,0,14.5Z"/><path class="a" d="M172.3,54a9.5,9.5,0,0,0-1.9-3.9,9.58,9.58,0,0,0-6.8-3,10.79,10.79,0,0,0-6.2,1.1,20.51,20.51,0,0,0-4.4,3.6,9.16,9.16,0,0,0-8.1-4.7,8.89,8.89,0,0,0-8.3,4.5V47.7h-7.9V77.1H137V61.4c0-3.2.8-6.4,5.2-6.4,3.8,0,4.1,3.1,4.1,5.6V76.9h8.6V61.3c0-5,2.2-6.3,5.2-6.3,2.4,0,4.1,1.1,4.1,5.6V76.9h8.6V71.3a19.31,19.31,0,0,1-2.3-9.2A17.18,17.18,0,0,1,172.3,54Z"/></svg>