<svg id="Camada_1" data-name="Camada 1" xmlns="http://www.w3.org/2000/svg" viewBox="0 0 300 120"><defs><style>.cls-1{fill:#fff;}</style></defs><title>shutterstock</title><g id="Artwork"><g id="Color_01" data-name="Color 01"><polygon class="cls-1" points="46.79 35.95 46.79 22.2 46.79 22.2 33.05 22.2 31.67 23.59 25.19 35.95 23.15 37.32 0 37.32 0 56.2 12.73 56.2 13.86 57.57 0 84.05 0 97.8 0 97.8 13.74 97.8 15.12 96.41 21.6 84.05 23.64 82.68 46.79 82.68 46.79 63.8 34.06 63.8 32.93 62.42 46.79 35.95"/><path class="cls-1" d="M74,63.8l-17.79,34H66.79l2.59-5H81.29l1.18,5H93l-8.14-34Zm-.38,20.88,3.9-7.45,1.8,7.45Z"/><path class="cls-1" d="M123.76,76.12c0-7.81-5.28-12.32-12.7-12.32H95v34h10.17V87.89h4.49l4.93,9.92h10.55l-6.27-12C121.9,83.84,123.76,80.52,123.76,76.12ZM109.63,79.7h-4.51V72.82h4.51c2.75,0,3.79,1.38,3.79,3.47S112.38,79.7,109.63,79.7Z"/><polygon class="cls-1" points="125.27 63.8 125.27 72.82 134.87 72.82 134.87 97.8 140.66 97.8 145.03 89.44 145.03 72.82 153.75 72.82 158.46 63.8 125.27 63.8"/><rect class="cls-1" x="182.23" y="22.2" width="10.16" height="33.99"/><path class="cls-1" d="M95.82,22.22l-4.57,8.71h2.81c5,0,8.17,3.2,8.17,8.26s-3.17,8.2-8.17,8.2H90.89V31.63L81.06,50.39v5.8H94.74c11,0,17.49-6.64,17.49-17C112.23,29.18,106.18,22.64,95.82,22.22Z"/><polygon class="cls-1" points="114.92 56.19 140.86 56.19 140.86 47.18 125.08 47.18 125.08 43.51 139.59 43.51 139.59 34.88 125.08 34.88 125.08 31.21 140.86 31.21 140.86 22.2 114.92 22.2 114.92 56.19"/><polygon class="cls-1" points="158.93 42.77 154 22.2 143.46 22.2 151.6 56.19 162.45 56.19 180.25 22.2 169.69 22.2 158.93 42.77"/><polygon class="cls-1" points="266.8 22.2 266.8 31.21 276.41 31.21 276.41 56.2 282.2 56.2 286.57 47.83 286.57 31.21 295.29 31.21 300 22.2 266.8 22.2"/><path class="cls-1" d="M212.17,22.2l-17.79,34h10.54l2.59-4.95h11.91l1.18,4.95h10.54L223,22.2Zm-.39,20.88,3.9-7.45,1.8,7.45Z"/><polygon class="cls-1" points="254.47 38.3 243.09 22.2 233.07 22.2 233.07 56.19 243.23 56.19 243.23 38.93 255.82 56.19 264.63 56.19 264.63 22.2 254.47 22.2 254.47 38.3"/></g></g></svg>