<svg id="svg4" xmlns="http://www.w3.org/2000/svg" viewBox="0 0 300 120"><title>Disney+_logo</title><path d="M139.84,81.33l.27,0a20.87,20.87,0,0,1,5.44,1.3,5.67,5.67,0,0,1,2.94,2.77,7.86,7.86,0,0,1-3.78,11,14.84,14.84,0,0,1-4.94,1.34,17.69,17.69,0,0,1-9.34-1.67,11.26,11.26,0,0,1-4.73-4,4,4,0,0,1,.19-4.31c1.46-2,4.6-2.45,7-2.36a28.77,28.77,0,0,1,6.75,1.23,12.81,12.81,0,0,1,2.53,1.17.82.82,0,0,1,.26.82c-.39,1.2-3.3,1.83-4.14,2-2.24.34-3.41-.51-6-1.52a8.7,8.7,0,0,0-2.12-.58c-1.16-.11-2.56.21-2.79,1.48-.11.65.66,1.26,1.24,1.52a9.38,9.38,0,0,0,3.83.82c4,.06,8.46-.59,11.72-2.9a1.84,1.84,0,0,0,.89-1.37c0-1.19-2.07-1.91-2.07-1.91-2.19-.92-6.24-1.36-8.33-1.54S129,84.14,128.2,84a9.8,9.8,0,0,1-2.52-.63A3.1,3.1,0,0,1,124,81.48a6,6,0,0,1,.93-4.53c2.18-3.13,7.28-4.31,11.09-4.79s9.64-.45,13.27,1.47c.55.3.84.58.72,1.18a2.89,2.89,0,0,1-2.1,2.16,23.21,23.21,0,0,1-4.26.54c-4.37.24-9.64.11-13.8,1.25a2.68,2.68,0,0,0-1.07.45c-.65.7,1.21.91,1.6,1l.27,0,9.19,1.09m-26-19.47s.71-1.07,1.3-1.87a34.39,34.39,0,0,1,4.52-4.78l1-.82s-.84.08-1.31.18a9.92,9.92,0,0,0-3.58,2c-1.36,1.16-2.84,3-2.17,4.71.1.24.25.56.25.56m7.53,2a14.27,14.27,0,0,0,6-1.79c1.83-1,4.52-3,4.24-5.37a2,2,0,0,0-1.21-1.6,2.72,2.72,0,0,0-2.29,0,6.8,6.8,0,0,0-1.81.77,27.38,27.38,0,0,0-6.69,5.91c-.37.49-.75,1-1.05,1.41s-.33.45-.31.51c.06.23,2.27.21,3.11.15m-5.45,4a8.71,8.71,0,0,0-.7,1.2,2.48,2.48,0,0,1-.52.61,1.1,1.1,0,0,1-1.57,0,3.85,3.85,0,0,1-1.22-2.71,7.78,7.78,0,0,0,0-1.29,8.51,8.51,0,0,0-1.09-1.86,7.19,7.19,0,0,1-.76-2.71,9.1,9.1,0,0,1,2.85-6.52,18.78,18.78,0,0,1,6.34-4.34c2.29-1,5.63-1.62,8.14-.75a6.13,6.13,0,0,1,2.53,1.7,2,2,0,0,0,.34.4,2.68,2.68,0,0,0,.64.14,6.26,6.26,0,0,1,2.42,1.15A4.6,4.6,0,0,1,135,55.58c.48,2.28-.84,4.78-2.33,6.3a23.09,23.09,0,0,1-8.35,5.73,13.37,13.37,0,0,1-5.31.94c-.5,0-1-.17-1.51-.21a6.32,6.32,0,0,1-1.27-.32c-.13-.09-.28-.18-.31-.14m2.92,5a3,3,0,0,1,.39.11,3.42,3.42,0,0,1,1.9,2.67c.65,2.7.93,8.69,1,11,.08,1.76.12,3.49.2,5.23a20.8,20.8,0,0,1-.13,4.81,2.27,2.27,0,0,1-.92,1.37,4.23,4.23,0,0,1-2.46.23c-1.68-.35-2.23-1.43-2.47-3.09-.57-4-.29-11.73,0-15a32.29,32.29,0,0,1,1.09-6c.19-.49.6-1.48,1.32-1.34M67.79,79.51s-2.49.18-4.21.37a47,47,0,0,0-8.68,1.8c-.71.25-2.15.86-2.28,1.59a2.45,2.45,0,0,0,.86,2c.3.36,2,2,2.5,2.41a43.2,43.2,0,0,0,9.11,5.53c1,.43,2.74,1,2.74,1s-.13-4.86-.1-9.66c0-2.53.06-5,.06-5m45.82,1.94a21.19,21.19,0,0,1-.25,4.11,18.63,18.63,0,0,1-.77,2.7c-.45,1-.91,1.91-1.38,2.78a23,23,0,0,1-3.93,4.81c-4.3,3.72-11,5.83-16.67,6.53A42.44,42.44,0,0,1,78.17,102c-1.41-.26-3.51-.74-3.51-.74s0,.84-.06,1.43a6.76,6.76,0,0,1-.35,1.21A1.9,1.9,0,0,1,72.74,105a4.45,4.45,0,0,1-2.56-.12c-1.31-.55-1.78-1.77-2-3.18-.18-1.13-.37-3.09-.37-3.09s-1-.46-1.79-.87a46,46,0,0,1-7-4.26c-.57-.43-3-2.5-3.59-3a20.57,20.57,0,0,1-4-4.76,4.56,4.56,0,0,1-.43-4.27c.85-2.14,3.92-3.75,6-4.67a50.48,50.48,0,0,1,8.33-2.54,24.31,24.31,0,0,0,2.49-.45l.09-.08c0-.07.12-2.19.11-3s.56-5.77.75-6.83a12.47,12.47,0,0,1,1-3.35.88.88,0,0,1,1.22-.11c2.29,1.42,3,6.35,3.15,8.85.1,1.53.15,3.83.15,3.83s2.62-.08,4.23,0a36.63,36.63,0,0,1,4.92.54A34.55,34.55,0,0,1,92,76a8.65,8.65,0,0,1,4.29,4.34,4.42,4.42,0,0,1-.36,4.12,5.78,5.78,0,0,1-4.45,2.92,7.41,7.41,0,0,1-3.13-.71.55.55,0,0,1,0-.76c.07-.08,1-.57,1.54-.86a3.45,3.45,0,0,0,.72-.51,1.83,1.83,0,0,0,.82-1.36c-.07-.67-.78-1.08-1.45-1.35a53.06,53.06,0,0,0-12.59-2.49c-1.2-.07-2.91-.13-2.91-.13l.36,16.93s1.42.27,2.53.45c.64.09,3.34.34,4.06.35,5.47.15,11.57-.34,16.59-2.71a17.26,17.26,0,0,0,5.76-4.08,11.8,11.8,0,0,0,2.79-8.78c-.3-3.61-2.84-7.9-4.87-10.51C96.25,64,87.06,58.32,79,55A71.88,71.88,0,0,0,53.8,49.33a41.84,41.84,0,0,0-9.67.71c-.36.1-.72.22-1.05.3a2.5,2.5,0,0,0-.78.33l-.13.12.3.14c.27.12,1.38.19,2,.29a1.86,1.86,0,0,1,1.26.75.74.74,0,0,1,0,.93c-.56.69-2.69.57-3.62.43s-2.18-.46-2.41-1.3a4,4,0,0,1,.73-2.88A7,7,0,0,1,45,45.82a47.51,47.51,0,0,1,9.82-1.54A57.08,57.08,0,0,1,73.91,47.1a92.71,92.71,0,0,1,11.85,4.61,92.11,92.11,0,0,1,8.63,4.86c.7.46,4.77,3.45,5.41,4,1.32,1.08,3,2.63,4.3,3.87a40.38,40.38,0,0,1,6.89,9c.35.7.62,1.39,1.07,2.2A18.68,18.68,0,0,1,113,78c.11.48.27,1.18.29,1.2a15.2,15.2,0,0,1,.32,2.23m82.23-3.74a98.28,98.28,0,0,1-11.12,1.1l-1,3.18a45.81,45.81,0,0,1,6.95,0s1-.11,1.06,1.08a18.22,18.22,0,0,1-.09,2.29s-.06.72-1.08.91-8.68.47-8.68.47l-1.22,4.15s-.46,1,.56.69,8.88-1.75,9.92-1.53a2.82,2.82,0,0,1,2,3.09c-.43,1.67-8.34,6.72-13.17,6.37,0,0-2.53.16-4.67-3.26-2-3.26.75-9.43.75-9.43s-1.26-2.88-.34-3.85a3.65,3.65,0,0,1,2.12-.61l1.95-4a4.5,4.5,0,0,1-3.53-1.48c-1.23-1.54-1.33-2.25-.39-2.68s10.21-2.17,16.55-2c0,0,2.2-.22,4.11,3.6,0,0,.92,1.55-.65,1.92M172,93.15c-.81,1.91-2.95,3.95-5.62,2.68S159.57,86,159.57,86s-1.59-3.2-1.89-3.12c0,0-.35-.62-.56,2.87s0,10.26-1.34,11.33a2.46,2.46,0,0,1-3.74-.61c-.75-1.23-1.06-4.16-.65-9.3s1.68-10.63,3.21-12.34a2,2,0,0,1,3.23,0s2,1.85,5.41,7.29l.6,1s3.06,5.14,3.38,5.13c0,0,.25.24.47.07s.19-1.74.19-1.74a98.13,98.13,0,0,0-3.43-15.08,4.43,4.43,0,0,1-.13-2.29c.28-1.11,1.4-.59,1.4-.59s4.33,2.18,6.43,9.23.69,13.4-.14,15.33m46.59-4.22c-2,3.44-7.53,10.63-14.92,8.94A76.38,76.38,0,0,0,198,118.74s-.26,1.74-1.7,1.13-3.8-2.88-4.28-6.18c-.51-4.34,1.42-11.66,5.36-20.06a11.49,11.49,0,0,1-1.26-8.35s1-7.06,8.08-13.42c0,0,.85-.74,1.34-.51s.29,2.52-.14,3.64-3.6,6.58-3.6,6.58-2,3.69-1.42,6.61c3.72-5.72,12.18-17.26,17.42-13.62,1.76,1.26,2.57,4,2.57,7a15.73,15.73,0,0,1-1.78,7.42m-1.53-9.06s-.29-2.27-2.51.23a54.26,54.26,0,0,0-8.14,11.46A13.48,13.48,0,0,0,213,88.84c1.38-1.22,4.6-4.55,4.08-9m42.26-.52H245.78a107.39,107.39,0,0,0-1.7-13.71,1,1,0,0,0-1-.82H240a.92.92,0,0,0-.71.33.88.88,0,0,0-.19.76,99.12,99.12,0,0,1,1.72,13.45h-13a1.09,1.09,0,0,0-1.1,1.09v2.82a1.1,1.1,0,0,0,1.1,1.1H241c0,.7,0,1.32,0,1.9a98.42,98.42,0,0,1-.59,11.18,1,1,0,0,0,.26.8,1,1,0,0,0,.76.34h2.89a1.09,1.09,0,0,0,1.09-1A103,103,0,0,0,246,86.27c0-.58,0-1.2,0-1.9h13.37a1.1,1.1,0,0,0,1.1-1.1V80.45a1.11,1.11,0,0,0-1.1-1.1"/><path d="M78.16,41.6a1.09,1.09,0,0,0-.13,1,1.17,1.17,0,0,0,.69.7l2.43.81a1.29,1.29,0,0,0,.43.07,1.37,1.37,0,0,0,1.13-.59A88.34,88.34,0,0,1,155.85,4.79a88.47,88.47,0,0,1,81.45,54,1.29,1.29,0,0,0,1.18.78h2.9a1,1,0,0,0,.94-1.4A93.35,93.35,0,0,0,78.16,41.6"/></svg>