<svg xmlns="http://www.w3.org/2000/svg" viewBox="0 0 300 120"><defs><style>.a{fill-rule:evenodd;}.b{opacity:0.5;}.c{isolation:isolate;}</style></defs><title>docker-hub</title><path class="a" d="M142.07,64.73a7.34,7.34,0,0,1,2.3-1.55,7,7,0,0,1,2.81-.56,6.83,6.83,0,0,1,2.51.45,7.83,7.83,0,0,1,2.2,1.34,2.15,2.15,0,0,0,1.39.49,2,2,0,0,0,1.53-.61,2.1,2.1,0,0,0,.61-1.55,2.07,2.07,0,0,0-.74-1.63,10.93,10.93,0,0,0-7.5-2.8,11.51,11.51,0,0,0-11.5,11.54,11.51,11.51,0,0,0,11.5,11.55,11,11,0,0,0,7.5-2.8,2.19,2.19,0,0,0,.68-1.59,2.08,2.08,0,0,0-2-2.15h-.15a2.34,2.34,0,0,0-1.35.46,7.57,7.57,0,0,1-2.18,1.33,7,7,0,0,1-2.51.44,7,7,0,0,1-2.81-.57,7.24,7.24,0,0,1-2.3-11.79Zm35.49-5.1a2.31,2.31,0,0,0-.46-.69,2,2,0,0,0-.68-.47,2,2,0,0,0-.84-.16,2,2,0,0,0-1.15.33l-12.29,8V50.57a2.1,2.1,0,0,0-.63-1.53,2,2,0,0,0-1.5-.63,2.12,2.12,0,0,0-1.54.63,2.1,2.1,0,0,0-.63,1.53V79.24A2.17,2.17,0,0,0,160,81.4a2,2,0,0,0,1.5-.64,2.08,2.08,0,0,0,.63-1.52V71.79l2.51-1.65,9.49,10.7a2,2,0,0,0,1.44.56,2.17,2.17,0,0,0,.84-.16,2,2,0,0,0,.68-.47,2.31,2.31,0,0,0,.46-.69,2,2,0,0,0,.18-.83,2.22,2.22,0,0,0-.6-1.5l-8.83-10,8.61-5.61a1.94,1.94,0,0,0,.82-1.71A2,2,0,0,0,177.56,59.63Zm-49.15,13a7.3,7.3,0,0,1-3.83,3.86,7.17,7.17,0,0,1-5.65,0A7.09,7.09,0,0,1,116.65,75a7.52,7.52,0,0,1-1.53-2.3,7.25,7.25,0,0,1,0-5.61,7.31,7.31,0,0,1,3.82-3.86,7.29,7.29,0,0,1,5.65,0,7.36,7.36,0,0,1,3.83,3.87,7.26,7.26,0,0,1,0,5.59Zm1.49-11A11.53,11.53,0,0,0,113.63,78a11.51,11.51,0,0,0,19.64-8.17,12,12,0,0,0-.85-4.43A11.28,11.28,0,0,0,129.9,61.69Zm92.35-1.94a4.16,4.16,0,0,0-1.45-.88,8.37,8.37,0,0,0-1.92-.44,15.67,15.67,0,0,0-1.94-.12,11.08,11.08,0,0,0-3.86.66,11.81,11.81,0,0,0-3.35,1.89v-.41a2.15,2.15,0,0,0-3.67-1.51,2.07,2.07,0,0,0-.62,1.51v18.8a2.05,2.05,0,0,0,.62,1.52,2.08,2.08,0,0,0,1.53.63,2,2,0,0,0,1.51-.63,2.06,2.06,0,0,0,.63-1.52v-9.4a7.24,7.24,0,0,1,4.4-6.67,7,7,0,0,1,2.81-.56,7.6,7.6,0,0,1,2.82.51,2.3,2.3,0,0,0,.9.23,2.08,2.08,0,0,0,.85-.17,1.91,1.91,0,0,0,.67-.46,2.34,2.34,0,0,0,.47-.69,2.26,2.26,0,0,0,.17-.85,1.91,1.91,0,0,0-.58-1.44Zm-37.61,8a6.65,6.65,0,0,1,1-2.07,7.19,7.19,0,0,1,1.6-1.61,7.28,7.28,0,0,1,2-1,7.09,7.09,0,0,1,4.55,0,7.3,7.3,0,0,1,3.61,2.65,6.72,6.72,0,0,1,1,2.07Zm15.06-6A11.53,11.53,0,0,0,183.43,78a11.49,11.49,0,0,0,15.66.58,2.17,2.17,0,0,0,.61-1.55,2.11,2.11,0,0,0-.6-1.54,2.09,2.09,0,0,0-1.53-.6,2.15,2.15,0,0,0-1.42.53,6.66,6.66,0,0,1-2.1,1.24,7.21,7.21,0,0,1-2.48.41,7,7,0,0,1-2.29-.37A7.21,7.21,0,0,1,184.64,72h16.27a2.12,2.12,0,0,0,2.16-2.07v-.08a11.62,11.62,0,0,0-.84-4.44,11.12,11.12,0,0,0-2.53-3.72ZM103,72.65a7.32,7.32,0,0,1-3.83,3.87,7,7,0,0,1-2.82.57,6.89,6.89,0,0,1-2.83-.58A7.09,7.09,0,0,1,91.19,75a7.52,7.52,0,0,1-1.53-2.3,7.25,7.25,0,0,1,0-5.61,7.31,7.31,0,0,1,3.82-3.86,7.29,7.29,0,0,1,5.65,0A7.32,7.32,0,0,1,103,67.06a7.26,7.26,0,0,1,0,5.59Zm2.7-24.24a2.08,2.08,0,0,0-2.14,2V60.84A11.54,11.54,0,0,0,88.17,78a11.51,11.51,0,0,0,19.64-8.17V50.55a2.11,2.11,0,0,0-2.08-2.14ZM46.1,57.72h8.41V50.11H46.1Zm-10,0h8.42V50.11H36.15Zm-9.94,0h8.41V50.11H26.2v7.61Zm-9.95,0h8.42V50.11H16.26Zm-9.94,0h8.41V50.11H6.32Zm9.94-9.13h8.42V41H16.26v7.6Zm10,0h8.41V41H26.2v7.6Zm9.94,0h8.42V41H36.15Zm0-9.12h8.42v-7.6H36.15ZM70.49,52.23c-.42-3-2.12-5.68-5.23-8.07L63.48,43l-1.19,1.77a13.68,13.68,0,0,0-2,8.49,10.66,10.66,0,0,0,1.57,4.65,12.83,12.83,0,0,1-6.17,1.35H.32l-.12.63c-.51,3.05-.5,12.57,5.71,19.88,4.73,5.56,11.81,8.38,21.06,8.38C47,88.13,61.85,79,68.79,62.29c2.73.06,8.61,0,11.64-5.72.07-.13.26-.47.78-1.56l.29-.6-1.7-1.12C78,52.06,73.74,51.62,70.49,52.23Z"/><g class="b"><g class="c"><g class="c"><path d="M235.77,52.38V63a8.34,8.34,0,0,1,9.89-2.43A5.66,5.66,0,0,1,248,62.43a6.48,6.48,0,0,1,1.07,2.45,22,22,0,0,1,.29,4.18V81.38h-5.56V70.28a16.38,16.38,0,0,0-.32-4.19,2.76,2.76,0,0,0-1.11-1.41,3.62,3.62,0,0,0-2-.53,4.66,4.66,0,0,0-2.47.67,3.91,3.91,0,0,0-1.6,2,12.35,12.35,0,0,0-.5,4V81.38h-5.56v-29Z"/><path d="M268.8,81.38V78.24a8.13,8.13,0,0,1-3,2.65,8.54,8.54,0,0,1-4,1,7.72,7.72,0,0,1-3.8-.93,5.48,5.48,0,0,1-2.43-2.61,11.71,11.71,0,0,1-.75-4.65V60.37h5.56V70a27.41,27.41,0,0,0,.3,5.43A3,3,0,0,0,261.84,77a3.44,3.44,0,0,0,2.06.58,4.37,4.37,0,0,0,2.55-.78A3.9,3.9,0,0,0,268,74.9a22.22,22.22,0,0,0,.42-5.66V60.37H274v21Z"/><path d="M279.49,81.38v-29h5.56V62.83a7.83,7.83,0,0,1,6.09-2.93,8.21,8.21,0,0,1,6.35,2.78q2.5,2.77,2.51,8Q300,76,297.44,79a8,8,0,0,1-6.22,2.91,7.67,7.67,0,0,1-3.55-.9,8.48,8.48,0,0,1-3-2.66v3.08Zm5.52-11a9,9,0,0,0,1,4.83,4.41,4.41,0,0,0,3.84,2.22A4,4,0,0,0,293,75.89c.86-1,1.29-2.7,1.29-5s-.43-4.13-1.3-5.19a4.12,4.12,0,0,0-3.35-1.6,4.17,4.17,0,0,0-3.32,1.56A7.12,7.12,0,0,0,285,70.42Z"/></g></g></g></svg>