<svg id="Camada_1" data-name="Camada 1" xmlns="http://www.w3.org/2000/svg" viewBox="0 0 300 120"><defs><style>.cls-1{fill:#fff;}</style></defs><title>dribbble</title><path class="cls-1" d="M115.24,78.85c-.66,1-1.18,1.92-1.76,2.76-1.87,2.7-3.66,5.45-5.66,8A25.44,25.44,0,0,1,104,93.39c-4.74,3.94-10.36,1.89-13.11-1.54-.73-.91-1.33-1.93-2-2.83-1.36,1.21-2.66,2.51-4.1,3.64A11.57,11.57,0,0,1,76.9,95.5,9.51,9.51,0,0,1,69,90.9a20.68,20.68,0,0,1-2.88-9.22,54.3,54.3,0,0,1,.11-11.47,14.51,14.51,0,0,0,.09-2,1.9,1.9,0,0,0-1.73-2.12c-1.67-.31-3.35-.5-5-.74-.91,2.35-1.71,4.66-2.68,6.9a73.17,73.17,0,0,1-9.51,16.07,20.57,20.57,0,0,1-2.75,2.85,9,9,0,0,1-11.32.91,40.68,40.68,0,0,1-3.71-2.94,64.63,64.63,0,0,1-4.4,4.9C21,98,16,98.61,10.81,96.15,4.76,93.29,1.38,88.33.32,81.78A21.54,21.54,0,0,1,2.25,68.33c1.83-3.63,4.43-6.53,8.54-7.48a15.32,15.32,0,0,1,9.37.68c-.2-1.85-.44-3.67-.58-5.5-.58-7.79-.44-15.53,2-23.07a16.1,16.1,0,0,1,2.61-5.22,6.9,6.9,0,0,1,9.76-1.43,14.5,14.5,0,0,1,5.25,7.91,35,35,0,0,1,1.27,11.11,99.88,99.88,0,0,1-7.51,37,1.4,1.4,0,0,0,.05,1.1,18.37,18.37,0,0,0,1.76,2.64c.77.92,1.3.93,2.35.36a21.86,21.86,0,0,0,8.67-8.65,70,70,0,0,0,6.48-13.87,1,1,0,0,0-.34-1.3A10.92,10.92,0,0,1,48,52.83c.42-3.59,3.6-5.35,6.94-3.91,3.1,1.34,4.72,3.92,5.5,7.09.45,1.82.41,1.84,2.3,2.11,2.39.35,4.81.59,7.17,1.06,3.87.76,5.61,2.85,5.61,6.8,0,2.47-.33,4.94-.46,7.4a31.7,31.7,0,0,0,.45,9.12,7.82,7.82,0,0,0,.81,2.07,2.69,2.69,0,0,0,3.75,1.26,8.07,8.07,0,0,0,2.38-1.67c1.37-1.43,2.62-3,3.87-4.52a1.47,1.47,0,0,0,.2-1,87.39,87.39,0,0,1,1.08-18.84C88,57,89,56.47,91.65,57.56s4,2.8,3.87,5.85c-.11,3.8-.35,7.59-.44,11.39a25.05,25.05,0,0,0,.63,7.72,8.49,8.49,0,0,0,1.19,2.55,3.12,3.12,0,0,0,4.93.49,15.32,15.32,0,0,0,2.3-2.78c3.39-5.38,6.73-10.79,10.07-16.2a2,2,0,0,0,.28-1,143.07,143.07,0,0,1,1.1-20.17,54.3,54.3,0,0,1,3.47-14.55,18.78,18.78,0,0,1,2.61-4.43c2.19-2.71,5.27-2.94,8-.77a9.5,9.5,0,0,1,3.52,7.13,36.83,36.83,0,0,1-1.82,12.93,129.73,129.73,0,0,1-9.77,23.54,4,4,0,0,0-.42,1.87,36.49,36.49,0,0,0,2,12.12,20.12,20.12,0,0,0,1.58,3.35,14.26,14.26,0,0,0,2.39,2.91,4,4,0,0,0,5.58.2,11.28,11.28,0,0,0,2.35-2.38,15.35,15.35,0,0,0,2.85-7.85,1.89,1.89,0,0,0-.48-1.15c-.73-.88-1.63-1.64-2.29-2.57a23.83,23.83,0,0,1-4.45-10.18,7,7,0,0,1-.08-1c0-2.83,1.74-4.2,4.41-3.23a9.37,9.37,0,0,1,3.24,2.06,21.24,21.24,0,0,1,6,11.5c.11.59.09,1.17.94,1.27,1.3.16,1.87,0,2.29-.86.3-.64.46-1.37.81-2,.7-1.19,1.5-2.31,2.24-3.48s1.5-2.38,2.2-3.6a1.66,1.66,0,0,0,.07-.84,141.88,141.88,0,0,1,1.1-20.08,54.81,54.81,0,0,1,3.3-14.07A20.13,20.13,0,0,1,160,26.38c2.16-2.71,5.29-2.92,8-.75a9.52,9.52,0,0,1,3.5,7.14,37,37,0,0,1-1.82,12.92,127,127,0,0,1-9.83,23.61,2.42,2.42,0,0,0-.38,1.11c.14,4.35.44,8.69,2,12.82a16.19,16.19,0,0,0,3,5.31,8,8,0,0,0,1.41,1.26,3.88,3.88,0,0,0,4.82.1,11.63,11.63,0,0,0,2.5-2.35,15.32,15.32,0,0,0,3.05-8.12,1.28,1.28,0,0,0-.3-1,20.92,20.92,0,0,1-5.58-8.3A39.59,39.59,0,0,1,169,65.52a4,4,0,0,1-.08-.85c-.07-3.08,1.87-4.43,4.77-3.31a9.68,9.68,0,0,1,3.93,3,21.85,21.85,0,0,1,5.05,10.89.81.81,0,0,0,.72.79c1.64.37,2.28,0,2.76-1.67a5.42,5.42,0,0,1,.66-1.29c1.33-2.15,2.7-4.29,4-6.45a2.41,2.41,0,0,0,.33-1.21,146,146,0,0,1,.92-18.7c.64-5.3,1.44-10.57,3.49-15.53a20.12,20.12,0,0,1,2.89-4.95c2.08-2.58,5.21-2.76,7.82-.71a9.58,9.58,0,0,1,3.59,7.19,37.06,37.06,0,0,1-1.82,12.93,129.44,129.44,0,0,1-9.77,23.54,3.92,3.92,0,0,0-.43,1.87,37.89,37.89,0,0,0,2,12.21,16.33,16.33,0,0,0,2.88,5.17,9.62,9.62,0,0,0,1.32,1.23,4,4,0,0,0,5,.16,11,11,0,0,0,2.43-2.29,15.36,15.36,0,0,0,3.06-8.13,1.33,1.33,0,0,0-.28-1A21.58,21.58,0,0,1,208.67,70a13.93,13.93,0,0,1-1.35-5.92c.05-1.64.83-2.77,2.12-3a5.89,5.89,0,0,1,2.05.08,7.15,7.15,0,0,1,3.56,2.18A21.35,21.35,0,0,1,221,75c.14.81.49,1.08,1.2,1.1a11,11,0,0,0,2.57,0A5.81,5.81,0,0,0,226.93,75a1.52,1.52,0,0,0,.36-1.27c-2.95-12.79-2.27-25.49.74-38.15A28.71,28.71,0,0,1,231.49,27a16.68,16.68,0,0,1,1.11-1.54c3-3.71,7.37-4.07,11-.91a16.28,16.28,0,0,1,4.65,7.94,45.58,45.58,0,0,1,1.65,14.09,44.15,44.15,0,0,1-2.32,14.85A45.73,45.73,0,0,1,239.87,74c-.52.65-1.08,1.28-1.56,1.95a1,1,0,0,0-.14.82c1.09,2.16,2.2,4.3,3.37,6.41A9.29,9.29,0,0,0,243,85a4.22,4.22,0,0,0,3.16,1.35,13.38,13.38,0,0,0,9.11-3.08,1.43,1.43,0,0,0,.56-1.6c-1.57-8.74.76-16.32,7.13-22.51a14.93,14.93,0,0,1,11.29-4.34A11.19,11.19,0,0,1,285,67.68c-.86,5.79-4.13,10.07-8.65,13.53a23.51,23.51,0,0,1-8.18,4c.35.26.59.48.85.64A16.58,16.58,0,0,0,279,87.93c6.23-.38,10.84-3.64,14.62-8.32.64-.78,1.2-1.61,1.82-2.41s1.33-1,2.14-.17a8.18,8.18,0,0,1,2.38,5.4,4.41,4.41,0,0,1-1,2.89c-6.27,8.1-14.53,11.75-24.73,11a21.89,21.89,0,0,1-12.43-4.58c-.76-.61-1.45-1.31-2-1.82-2.42,1.33-4.72,2.76-7.17,3.87a15.9,15.9,0,0,1-9.59,1.39,13.86,13.86,0,0,1-8.68-5.68c-1.49-2-2.64-4.24-3.93-6.38-.16-.27-.26-.57-.42-.91a17,17,0,0,1-8.28.24c-.53,1.85-1,3.65-1.56,5.41a14.66,14.66,0,0,1-4.63,7c-3.8,3-7.91,3.13-12.15,1.09a18.6,18.6,0,0,1-7.69-7.38,25.77,25.77,0,0,1-3.55-8.74,3.49,3.49,0,0,0-.2-.49c-2.09,3.47-5.12,4-8.56,3-.54,1.9-1,3.7-1.57,5.47a15.49,15.49,0,0,1-3.33,5.79,10.69,10.69,0,0,1-12.28,2.87,17.18,17.18,0,0,1-7.44-5.85c-2.43-3.14-3.69-6-5.21-11.71-1.9,3.83-4.94,4.53-8.48,3.44-.67,2.2-1.22,4.31-2,6.34a16.94,16.94,0,0,1-2,3.63c-3.47,4.94-9.07,6.32-14.48,3.63a18.68,18.68,0,0,1-7.12-6.52c-1.93-2.85-2.75-4.82-4.39-10.67ZM14.79,90a7.59,7.59,0,0,0,6.61-2.8A63.91,63.91,0,0,0,25,81.45a1.18,1.18,0,0,0-.05-.8q-1.52-5.16-3.08-10.31a2.41,2.41,0,0,0-.49-1,7.49,7.49,0,0,0-10.63,0A14.08,14.08,0,0,0,8.29,73c-2.07,4.5-1.75,9.06.09,13.56a5,5,0,0,0,3.68,3.11,27.52,27.52,0,0,0,2.73.35ZM28.72,71.08h.33c.65-2.74,1.36-5.47,1.93-8.22a98,98,0,0,0,2.33-22.71,19.81,19.81,0,0,0-1.22-7c-.52-1.28-1.14-1.38-2.08-.36A10.08,10.08,0,0,0,28,36.9a44.48,44.48,0,0,0-1.33,11.37,114,114,0,0,0,1,16.62c.26,2.08.7,4.13,1,6.19Zm206.13-4a18.59,18.59,0,0,0,3-4.62,41.44,41.44,0,0,0,3.76-20.55,19.66,19.66,0,0,0-1.46-7c-.32-.71-.67-1.56-1.55-1.58s-1.19.89-1.39,1.57a61.3,61.3,0,0,0-1.73,6.48A108.92,108.92,0,0,0,234,58.18a34.53,34.53,0,0,0,.9,8.85Zm29.59,11.2.33.11c.43-.16.86-.31,1.28-.49,3.88-1.68,7.14-4.1,9-8a8.84,8.84,0,0,0,.83-3.55,2.76,2.76,0,0,0-3.64-2.75,7.38,7.38,0,0,0-3.73,2.35,14.66,14.66,0,0,0-3.64,7.58c-.27,1.56-.3,3.17-.43,4.75Zm-137.92-46c-2.52,2-5.67,18.41-5,21.34C123.86,50,127.11,36.3,126.52,32.27Zm38.42.13c-2.24,1.86-5.69,18.22-5.06,21.44A66.08,66.08,0,0,0,164.94,32.4Zm33.19,21.16a67.32,67.32,0,0,0,5.25-21.14l-.45-.11a61.28,61.28,0,0,0-4.8,21.25Z"/><path class="cls-1" d="M85.5,46.29A6.13,6.13,0,0,1,91.28,40a6.49,6.49,0,0,1,6.65,5.45,7.82,7.82,0,0,1-.65,4.88,5.34,5.34,0,0,1-5.79,3A7,7,0,0,1,85.5,46.29Z"/></svg>