<svg id="Layer_1" data-name="Layer 1" xmlns="http://www.w3.org/2000/svg" viewBox="0 0 300 120"><defs><style>.cls-1{fill:#fff;}</style></defs><title>duckduckgo</title><path class="cls-1" d="M0,78V42H13.05c12.43,0,18.09,9.13,18.09,17.62C31.14,68.77,25.55,78,13.05,78Zm4.15-4.15H13c9.63,0,13.94-7.18,13.94-14.3C27,53,22.63,46,13.05,46H4.15V73.86Z"/><path class="cls-1" d="M47.58,78.42c-6.67,0-11-4.59-11-11.7v-14h3.89V66.67c0,5.12,3,8.18,8,8.18,4.68-.05,8.07-3.64,8.07-8.54V52.73h3.89V78H56.89l-.22-4.4-.6.76A10.53,10.53,0,0,1,47.58,78.42Z"/><path class="cls-1" d="M79.4,78.48c-6.57,0-13.21-4.06-13.21-13.1,0-7.84,5.31-13.1,13.21-13.1a12.67,12.67,0,0,1,9,3.66L86,58.47A9.56,9.56,0,0,0,79.5,56a9,9,0,0,0-9.37,8.61q0,.4,0,.81c0,6.51,4.68,9.43,9.32,9.43a9.43,9.43,0,0,0,6.7-2.62l2.54,2.54A12.89,12.89,0,0,1,79.4,78.48Z"/><polygon class="cls-1" points="110 78.01 97.65 65.66 97.65 78.01 93.81 78.01 93.81 42.04 97.65 42.04 97.65 63.8 108.44 52.73 113.48 52.73 101.57 64.65 114.93 77.96 114.93 78.01 110 78.01"/><path class="cls-1" d="M119.71,78V42h13c12.43,0,18.09,9.13,18.09,17.62,0,9.16-5.59,18.39-18.09,18.39Zm4.15-4.15h8.9c9.63,0,13.94-7.18,13.94-14.3C146.7,53,142.34,46,132.77,46h-8.9Z"/><path class="cls-1" d="M167.29,78.42c-6.67,0-11-4.59-11-11.7v-14h3.89V66.67c0,5.12,3,8.18,8,8.18,4.67-.05,8.07-3.64,8.07-8.54V52.73h3.89V78H176.6l-.22-4.4-.6.76A10.53,10.53,0,0,1,167.29,78.42Z"/><path class="cls-1" d="M199.11,78.48c-6.57,0-13.21-4.06-13.21-13.1,0-7.84,5.31-13.1,13.21-13.1a12.67,12.67,0,0,1,9,3.66l-2.45,2.54A9.57,9.57,0,0,0,199.22,56a9,9,0,0,0-9.37,8.61q0,.4,0,.81c0,6.51,4.68,9.43,9.32,9.43a9.42,9.42,0,0,0,6.69-2.62l2.47,2.47-.13.13.07.07A12.9,12.9,0,0,1,199.11,78.48Z"/><polygon class="cls-1" points="229.71 78.01 217.36 65.66 217.36 78.01 213.52 78.01 213.52 42.04 217.36 42.04 217.36 63.8 228.16 52.73 233.19 52.73 221.28 64.65 234.64 77.96 234.64 78.01 229.71 78.01"/><path class="cls-1" d="M255,78.68c-13.85,0-18.76-9.88-18.76-18.35a19.24,19.24,0,0,1,5.25-13.86A18.47,18.47,0,0,1,255,41.32a18.7,18.7,0,0,1,13.09,5.28l-2.35,2.74A16.28,16.28,0,0,0,255,45.15c-10,0-14.61,7.87-14.61,15.18s4.55,14.46,14.72,14.46a15.12,15.12,0,0,0,10-3.69l.13-.11V62.12H253.87V58.49h15V72.62A18.26,18.26,0,0,1,255,78.68Z"/><path class="cls-1" d="M286.85,78.48a12.65,12.65,0,0,1-13.1-12.19q0-.43,0-.86c0-7.68,5.52-13.26,13.1-13.26,7.74,0,13.15,5.45,13.15,13.26C300,73,294.47,78.48,286.85,78.48Zm0-22.79c-5.46,0-9.26,4-9.26,9.73a9,9,0,0,0,8.57,9.41h.65c5.43,0,9.26-3.87,9.31-9.42s-3.85-9.73-9.22-9.73Z"/></svg>