<svg xmlns="http://www.w3.org/2000/svg" viewBox="0 0 300 120"><defs><style>.a{fill:#fff;}</style></defs><title>ebay</title><path class="a" d="M39,26.2c-21.1,0-38.7,9-38.7,36,0,21.4,11.8,34.9,39.3,34.9C71.9,97.1,74,75.8,74,75.8H58.2S54.8,87.3,38.5,87.3c-13.3,0-22.8-9-22.8-21.6H75.5V57.8c0-12.4-7.9-31.6-36.5-31.6Zm-.6,10.1C51,36.3,59.7,44,59.7,55.7H16.1C16.1,43.3,27.3,36.3,38.4,36.3Z"/><path class="a" d="M75.5,0V83.5c0,4.7-.3,11.4-.3,11.4H90.1s.5-4.8.5-9.1c0,0,7.4,11.5,27.4,11.5,21.1,0,35.5-14.7,35.5-35.7,0-19.5-13.2-35.2-35.4-35.2-20.8,0-27.3,11.2-27.3,11.2V0Zm38.7,36.7c14.3,0,23.5,10.6,23.5,24.9,0,15.3-10.5,25.3-23.4,25.3C99,87,90.8,75,90.8,61.8c0-12.4,7.4-25.1,23.4-25.1Z"/><path class="a" d="M190.6,26.2c-31.8,0-33.8,17.4-33.8,20.2h15.8s.8-10.2,16.9-10.2c10.4,0,18.5,4.8,18.5,14v3.3H189.5c-24.6,0-37.6,7.2-37.6,21.8,0,14.4,12,22.2,28.3,22.2,22.1,0,29.3-12.2,29.3-12.2,0,4.9.4,9.7.4,9.7H224s-.5-5.9-.5-9.7v-33C223.3,30.7,205.9,26.2,190.6,26.2Zm17.5,37.1v4.4c0,5.7-3.5,19.8-24.2,19.8-11.3,0-16.2-5.7-16.2-12.2,0-12,16.3-12,40.4-12Z"/><path class="a" d="M214.8,28.9h17.8l25.5,51.2,25.5-51.2h16.1L253.3,120H236.4l13.4-25.4-35-65.7Z"/></svg>