<?xml version="1.0" encoding="utf-8"?>
<!-- Generator: Adobe Illustrator 23.0.6, SVG Export Plug-In . SVG Version: 6.00 Build 0)  -->
<svg version="1.1" id="Camada_1" xmlns="http://www.w3.org/2000/svg" xmlns:xlink="http://www.w3.org/1999/xlink" x="0px" y="0px"
	 viewBox="0 0 300 120" style="enable-background:new 0 0 300 120;" xml:space="preserve">
<title>ebay</title>
<path d="M48.3,29c-19.3,0-35.5,8.3-35.5,33c0,19.6,10.8,32,36,32c29.6,0,31.5-19.5,31.5-19.5H65.8c0,0-3.1,10.5-18.1,10.5
	c-12.2,0-20.9-8.3-20.9-19.8h54.8V58C81.7,46.6,74.5,29,48.3,29z M47.7,38.3c11.5,0,19.5,7.1,19.5,17.8h-40
	C27.3,44.7,37.5,38.3,47.7,38.3z"/>
<path d="M81.7,5v76.5c0,4.3-0.3,10.5-0.3,10.5h13.7c0,0,0.5-4.4,0.5-8.3c0,0,6.8,10.5,25.1,10.5c19.3,0,32.5-13.5,32.5-32.7
	c0-17.9-12.1-32.3-32.4-32.3c-19.1,0-25,10.3-25,10.3V5H81.7z M117.2,38.6c13.1,0,21.5,9.7,21.5,22.8c0,14-9.6,23.2-21.4,23.2
	c-14,0.1-21.5-10.9-21.5-23C95.7,50.3,102.5,38.6,117.2,38.6z"/>
<path d="M187.2,29c-29.2,0-31,16-31,18.5h14.5c0,0,0.7-9.3,15.5-9.3c9.5,0,17,4.4,17,12.8v3h-17c-22.6,0-34.5,6.6-34.5,20
	c0,13.2,11,20.3,25.9,20.3c20.3,0,26.9-11.2,26.9-11.2c0,4.5,0.4,8.9,0.4,8.9h12.9c0,0-0.5-5.4-0.5-8.9V52.9
	C217.2,33.1,201.2,29,187.2,29z M203.3,63v4c0,5.2-3.2,18.2-22.2,18.2c-10.4,0-14.9-5.2-14.9-11.2C166.2,63,181.2,63,203.3,63z"/>
<path d="M209.4,31.5h16.3l23.4,46.9l23.4-46.9h14.8L244.7,115h-15.5l12.3-23.3L209.4,31.5L209.4,31.5z"/>
</svg>
