<svg id="svg18" xmlns="http://www.w3.org/2000/svg" viewBox="0 0 300 120"><title>ecosia-seeklogo</title><path d="M124,18.42h0a8.8,8.8,0,0,0-1.77-7.6c-3-3.89-5.32-3.21-5.32-3.21A8.52,8.52,0,0,0,118,14,10.14,10.14,0,0,0,124,18.42Z"/><path d="M108.3,91.86h0a8.54,8.54,0,0,0-3.13,5.75s2,1.35,6.08-1.36a8.86,8.86,0,0,0,4.14-6.67A10.18,10.18,0,0,0,108.3,91.86Z"/><path d="M103.48,30.85a10.12,10.12,0,0,0,7.1,2.28,8.92,8.92,0,0,0-4.14-6.68c-4.06-2.7-6.09-1.35-6.09-1.35A8.6,8.6,0,0,0,103.48,30.85Z"/><path d="M145.82,102.68h0a11.38,11.38,0,0,0-3.72,7.94,13.61,13.61,0,0,0,3.21,9.38,11.69,11.69,0,0,0,3.89-9.72C148.94,103.69,145.82,102.68,145.82,102.68Z"/><path d="M121.06,104.2h0a12.06,12.06,0,0,0-1.61,9s3.3.93,7.44-4.48A12.47,12.47,0,0,0,129.34,98,14.29,14.29,0,0,0,121.06,104.2Z"/><path d="M169.82,13.69a12.11,12.11,0,0,0,2.45-10.56A14.34,14.34,0,0,0,164,9.21a11.56,11.56,0,0,0-1.52,9S165.68,19.1,169.82,13.69Z"/><path d="M181.73,27.8h0a8.86,8.86,0,0,0,4.14-6.67,10.12,10.12,0,0,0-7.09,2.28,8.53,8.53,0,0,0-3.13,5.74S177.68,30.51,181.73,27.8Z"/><path d="M141.93,15.89S144.8,15,145.06,9h0a10.93,10.93,0,0,0-3.64-9,12.71,12.71,0,0,0-2.95,8.62A10.39,10.39,0,0,0,141.93,15.89Z"/><path d="M181.73,88.48c-4-2.71-6.08-1.35-6.08-1.35a8.53,8.53,0,0,0,3.13,5.74,10.61,10.61,0,0,0,7.09,2.29A8.87,8.87,0,0,0,181.73,88.48Z"/><path d="M167.87,102.59h0A8.5,8.5,0,0,0,169,109a10.34,10.34,0,0,0,6,4.4,8.82,8.82,0,0,0-1.77-7.61C170.15,101.92,167.87,102.59,167.87,102.59Z"/><path d="M146.16,89.92A31.36,31.36,0,1,0,114.8,58.56,31.34,31.34,0,0,0,146.16,89.92Zm0-59.07a27.72,27.72,0,1,1-27.64,27.71A27.66,27.66,0,0,1,146.16,30.85Z"/><path d="M124.1,64c-.12-.52-.21-1.06-.29-1.59C123.89,62.92,124,63.46,124.1,64Z"/><path d="M128.66,59.58c.93.93,2.62,1.1,3,2.45.17.93-.67,1.43-1,2.11-.17.51-.42,1.1-.59,1.61-.51.67-1.44.84-2,1.43-.34.59-.76,1.19-1.1,1.78-.25.25-.51.42-.76.67a22,22,0,0,1-1.06-2.25,22.92,22.92,0,0,0,43-1,4.07,4.07,0,0,1-.74-2c0-.84.67-1.43.5-2.45s-1.18-2.11-1.77-2.87a2.62,2.62,0,0,0-2.79,1.78c-.17.5,0,.84-.25,1.18-.17.08-.26.17-.42.25-1.86-1.44-.93-4.14-3.55-5.49l-.76.25a14,14,0,0,0-1,1.19c-.76.42-1.44.76-2.11,1.18,0,.08-.09.08-.09.08-.42.76.34,1.52-.5,2.45s-2.45,1.44-3,2.79c0,.76-.09,1.61-.09,2.37-.33.76-1,1-1.43,1.52-1.27,1.52-1.78,3.8-4.06,3.89-2,.08-2.53-4.06-2.53-5.5s.93-2.11.42-3.63c-.25-.93-.42-2.87-1.44-3.3-1.35-.59-2.87.26-3.89-.76a4.76,4.76,0,0,1-.33-5.74c.67-.68,1.43-1.44,2.19-2.12.51-.59.17-1.43.51-2.19s1.27-.76,1.69-1.35c0-1-.76-1.19-.68-2.2A1.6,1.6,0,0,1,143.2,45c.67.34.93.93,1.69,1.1,1.1-.51.34-1.1.93-2a6,6,0,0,1,2.87-1.77c2.2-.51,3.38,1.35,5.66,1.35a59.42,59.42,0,0,0,7.19-.76,8.34,8.34,0,0,1,1.41-.08,22.8,22.8,0,0,0-25.75-5,9.07,9.07,0,0,0,3.55.22c.42.17.93.25,1.35.42h0c.68,1.18-1.1,2.62-2.11,2.87-.85.17-1.78.26-2.62.43s-1.44.93-2.54.84a1.19,1.19,0,0,1-.59-.84c-.25-.68.34-1.27.51-1.86a2,2,0,0,0-.35-.59,22.77,22.77,0,0,0-3.65,2.82.84.84,0,0,0-.06.3c0,.85,1,2.12.25,2.88-.59.67-1-.26-1.77.08h0a6.59,6.59,0,0,1-1.27.93,6,6,0,0,1-.75.14,22.9,22.9,0,0,0-3.35,8.91,7.84,7.84,0,0,1,3.59,2.36C127.82,58.31,128.24,59,128.66,59.58Zm24.42,8h0a.83.83,0,0,1,.43.08c.67.93-.34,2.45-1.27,2.79a1.34,1.34,0,0,1-.59-.59A2.81,2.81,0,0,1,153.08,67.61Z"/><path d="M149.28,52.14c-.42-.34-.84-.59-1.27-.93L146.83,51c-.76-.34-1-1-2.11-1.27-.25.17-.42.17-.59.59.08.17,3,2.54,3.12,2.54.6.08,1.27.08,1.86.17a2.46,2.46,0,0,0,1.36.42h0a2.1,2.1,0,0,1,.5-.25v-.43c0-.08-.08-.17-.08-.25A6.46,6.46,0,0,1,149.28,52.14Z"/><path d="M168.9,63.35a.33.33,0,0,0,.06-.1.31.31,0,0,0,0-.1.44.44,0,0,1-.08.15A.07.07,0,0,1,168.9,63.35Z"/><path d="M124.86,66.58c-.18-.51-.34-1-.49-1.54C124.52,65.56,124.68,66.07,124.86,66.58Z"/><path d="M123.62,56.63c0-.12,0-.24,0-.36C123.65,56.39,123.63,56.51,123.62,56.63Z"/><path d="M123.66,61.44a25.24,25.24,0,0,1-.15-2.62h0A25.09,25.09,0,0,0,123.66,61.44Z"/><polygon points="208.61 45.38 200.58 84.42 206.49 85.61 214.52 46.56 208.61 45.38"/><polygon points="79.99 82.23 77.45 71.66 85.31 69.8 83.87 63.89 76.01 65.75 73.48 55.18 84.3 52.56 82.86 46.65 66.21 50.62 75.51 89.41 75.51 89.41 92.24 85.52 90.8 79.61 79.99 82.23"/><path d="M198.64,67.94a20.32,20.32,0,0,0-2.71-4.81,27.14,27.14,0,0,0-2.36-2.88,31.48,31.48,0,0,1-2.29-3,9,9,0,0,1-1.52-5.83,5.23,5.23,0,0,1,1.1-2.79,2.64,2.64,0,0,1,2.71-1.1,2.86,2.86,0,0,1,2.19,1.35,6.47,6.47,0,0,1,.85,4l5.83-.17a11,11,0,0,0-.59-4.73,8,8,0,0,0-2.37-3.55,10.32,10.32,0,0,0-5.24-2.28,9.22,9.22,0,0,0-5.75.85,9.81,9.81,0,0,0-4.9,7.6,13.2,13.2,0,0,0,.51,5.75,22.6,22.6,0,0,0,3.38,5.74c1.94,2.62,3.46,4.57,4.48,5.83a7.36,7.36,0,0,1,1.52,5.24,4.49,4.49,0,0,1-1,2.54,3.73,3.73,0,0,1-3.38,1.44,3.23,3.23,0,0,1-2.29-1.53c-.84-1.18-1.18-2.87-1.1-5.23L180,70a14.11,14.11,0,0,0,.42,5.75A9.85,9.85,0,0,0,182.83,80a9.38,9.38,0,0,0,5.49,2.62,9.25,9.25,0,0,0,3.38.08,8.33,8.33,0,0,0,4.48-2.19,10.59,10.59,0,0,0,3.21-6.68h0a16.18,16.18,0,0,0-.17-3.89A11.84,11.84,0,0,0,198.64,67.94Z"/><path d="M110.41,80a9.14,9.14,0,0,0,1.6-7.1l-.93-5.49-6.16,1,.93,5.41a3,3,0,0,1-.6,2.53A3.54,3.54,0,0,1,103,77.75a3.38,3.38,0,0,1-2.53-.59A3.22,3.22,0,0,1,99.08,75l-3.8-21.64a3.53,3.53,0,0,1,.59-2.62,3.05,3.05,0,0,1,2.2-1.43,3.17,3.17,0,0,1,2.62.59,3.34,3.34,0,0,1,1.44,2.28l.76,4.65,6.17-1-.76-4.48a9.39,9.39,0,0,0-10.91-7.78,9.36,9.36,0,0,0-6.16,3.89,9.15,9.15,0,0,0-1.61,7.1L93.25,76a9.5,9.5,0,0,0,3.89,6.17,9.19,9.19,0,0,0,7.1,1.61A9.72,9.72,0,0,0,110.41,80Z"/><path d="M225.76,49.27,209.28,86.11l6.09,1.52,3.71-8.53,6.09,1.6-.93,9.22,6.08,1.6,3.47-40.22ZM227.54,59,225.76,74.7l-4.31-1.09L227.54,59Z"/><polygon points="206.49 85.61 206.49 85.61 206.49 85.61 206.49 85.61"/><path d="M137,37.77a29,29,0,0,0-2.71,1.44l.08.09a22.65,22.65,0,0,1,2.8-1.49Z"/><path d="M123.51,58.82h0c0-.74,0-1.47.11-2.19C123.55,57.35,123.51,58.08,123.51,58.82Z"/><path d="M123.76,55.35c0,.3-.07.61-.1.92,0-.31.09-.6.14-.91Z"/><path d="M125.15,67.38c-.1-.27-.19-.54-.29-.8C125,66.84,125.05,67.11,125.15,67.38Z"/><path d="M169,63.15s.05-.11.09-.19a23.42,23.42,0,0,0,.42-4.23,23,23,0,0,0-6.42-15.89H163a22.93,22.93,0,0,1,6,20.3Z"/><path d="M168.11,66.34l.1.17a14.3,14.3,0,0,0,.75-2.66.06.06,0,0,1,0,0c.09-.26.09-.51.17-.85a.4.4,0,0,0-.18.21A22.72,22.72,0,0,1,168.11,66.34Z"/><path d="M123.81,62.39c0-.32-.11-.63-.15-1C123.7,61.76,123.76,62.07,123.81,62.39Z"/><path d="M130.75,42.12a1.6,1.6,0,0,1,.11-.29A22.78,22.78,0,0,0,127,46.48l.18,0A23,23,0,0,1,130.75,42.12Z"/><path d="M124.37,65c-.1-.35-.19-.71-.27-1.06C124.18,64.34,124.27,64.69,124.37,65Z"/></svg>