<svg id="Camada_1" data-name="Camada 1" xmlns="http://www.w3.org/2000/svg" viewBox="0 0 300 120"><defs><style>.cls-1{fill:#fff;}</style></defs><title>ello</title><path class="cls-1" d="M95.87,56.34v7.32a6.09,6.09,0,0,0-.17.61c-.48,2.73-.8,5.52-1.47,8.19a47.76,47.76,0,0,1-50.33,35.3A45.69,45.69,0,0,1,14.34,94.18C2.23,82-2.17,67.19,1,50.35,4.54,31.42,20.45,16,39.42,12.8c1.6-.28,3.24-.5,4.87-.75h7.32a3.33,3.33,0,0,0,.51.16c1.79.27,3.6.44,5.37.8A48,48,0,0,1,95.14,51.47C95.41,53.09,95.62,54.72,95.87,56.34ZM47.93,88.76h2a21.82,21.82,0,0,0,2.4-.29q18-3.39,23.37-20.88a3.89,3.89,0,0,0,0-2.19,2.56,2.56,0,0,0-2.74-1.68,2.84,2.84,0,0,0-2.55,2.4A23.12,23.12,0,0,1,41.82,82.41C33.43,80,28,74.42,25.55,66.08a2.88,2.88,0,0,0-2-2.19,2.65,2.65,0,0,0-2.77.66,2.93,2.93,0,0,0-.64,3.12A28.65,28.65,0,0,0,47.93,88.76Z"/><polygon class="cls-1" points="120.25 87.01 158.53 87.01 158.53 73.02 136.74 73.02 136.74 66.97 156.85 66.97 156.85 53.1 136.74 53.1 136.74 47.04 158.53 47.04 158.53 32.99 120.25 32.99 120.25 87.01"/><polygon class="cls-1" points="181.05 32.99 164.56 32.99 164.56 87.01 201.66 87.01 201.66 72.77 181.05 72.77 181.05 32.99"/><polygon class="cls-1" points="224.2 32.99 207.71 32.99 207.71 87.01 244.81 87.01 244.81 72.77 224.2 72.77 224.2 32.99"/><path id="Fill-9" class="cls-1" d="M282.7,60.16c0,4.88-.86,8.73-2.49,11.12a6.62,6.62,0,0,1-5.88,3,6.52,6.52,0,0,1-5.93-2.92C266.83,69,266,65.22,266,60.16s.85-8.88,2.46-11.27a6.45,6.45,0,0,1,5.84-3A6.65,6.65,0,0,1,280,49c1.74,2.49,2.66,6.35,2.66,11.18m10.44-20.47c-4.49-4.83-11-7.39-18.81-7.39-15.59,0-25.67,10.93-25.67,27.86,0,8.68,2.26,15.55,6.73,20.42s11,7.43,18.94,7.43c7.68,0,14.14-2.58,18.69-7.46s7-12,7-20.39-2.37-15.63-6.86-20.47"/></svg>