<svg id="Camada_1" data-name="Camada 1" xmlns="http://www.w3.org/2000/svg" viewBox="0 0 300 120"><defs><style>.cls-1{fill:#fff;}</style></defs><title>etsy</title><g id="_ffffffff" data-name="#ffffffff"><path class="cls-1" d="M41.18,6.1c18.41-.16,36.89,1.52,55.23-.73,2.17-.09,4.49-.88,6.58.07.76,3.62-1.15,7.31-.28,11,.57,2.74.64,7.76-3.55,6.84-.52-3.38-.24-8-4.31-9.23-8.74-2.47-18-2.32-27-2-2.74.11-7,.75-6.81,4.38-.16,8.19-.34,16.43.11,24.62,1.89,1.33,4.45.53,6.61.77,6-.27,12,.47,18-.42,4.45-.92,4.56-6.08,5.73-9.54,2.13-1.42,4.31,1.45,3.51,3.57-1.09,6.53-.41,13.08.16,19.62.35,2-3.47,2.9-3.77.73-1.4-3.43-2.79-8.24-7.35-8.33-7.18-.43-14.41-.3-21.59-.08-2.09,1.1-1.23,3.91-1.51,5.81.19,7.67-.35,15.37.33,23,.37,3.83,4.63,5,7.86,5.1,9.19.38,18.94.75,27.46-3.2,5.29-2.27,4.87-8.71,6.36-13.36,3.95.12,5.47,4.17,4,7.49a43.06,43.06,0,0,0-2.32,15.52C82.84,85.8,61,87.46,39.18,87c0-.9.15-2.69.19-3.57,4.49-.62,11-1.36,11.22-7.25,1.11-13.92.18-28,.49-41.94-.35-6.77,1-13.92-1.56-20.38C48.06,10.58,44,10.5,41,9.48,41,8.63,41.14,6.95,41.18,6.1Z"/><path class="cls-1" d="M126.92,20c.52-2,4.23-2.09,3.85.45-.26,4.52-1.1,9-1.18,13.53,5.92.14,11.84-.23,17.75.34.05,1.74.08,3.49.09,5.22-5.92.3-11.83.12-17.75.16.05,9.92-.11,19.84.05,29.75.16,3.88.8,9,5,10.5,3.79,1.47,7.6-.43,10.81-2.33.8.83,1.61,1.67,2.42,2.52-4,5.7-11.34,9.86-18.42,8-5.77-1.48-8.81-7.58-9-13.15-.38-9.5.72-19,.27-28.49-.45-4.34-5.32-5.07-8.7-5.83-1.07-3.55,3-4.38,5.09-6.05C122.39,31.23,124.34,25.17,126.92,20Z"/><path class="cls-1" d="M184.76,33.39c2.67,1.15,5-.8,7.45-1.49,2,1.45.56,4.29.66,6.31a81.32,81.32,0,0,0-.2,10.12c-1.25.38-2.48.75-3.73,1.09-1.07-5.25-3.83-11.32-10-11.7-5.9-1.89-14.9,3.46-11.13,10.2,7.1,8.26,21.06,7.86,26.55,18.06,4.53,8.89-2.17,19.62-11.37,21.69-8.57,3.3-17.79-3.51-25.94,1.25-2.42-3.5,1.09-7.49.07-11.32-.09-3.36-1.6-9,3-9.93,2.44.05,1.37,3,2,4.48.5,9.59,13.28,13.95,20.83,9.44,4.23-2.37,5.83-9,2-12.5-6.84-6-17.07-6.58-23.43-13.34-5.39-5.75-3.72-16,2.79-20.17C170.29,31.54,178,31.8,184.76,33.39Z"/><path class="cls-1" d="M199.9,37.08l.28-3.42c8.51.42,17,.07,25.55.18,1.72,4.71-4.36,3.61-6.51,6-.64,3.28.8,6.46,2,9.46q5.11,12.07,10.15,24.18c4.14-8.86,9.25-17.33,12.2-26.7.39-2.14,1.51-4.68.28-6.72-2.6-2.09-7.41-1.83-7.27-6.24,8.4.38,16.95-.71,25.22.75V36.4c-3.35,1.66-7.39,2.63-9.57,5.93-3.32,4.71-5.29,10.2-7.86,15.33C237.87,71,232,84.67,225.09,97.83c-4.06,7-9.1,15.14-17.62,16.95-4,1.14-9.5-2.89-6.73-7.15,3.51-5.75,10.87,2,14.65-3.15a33.58,33.58,0,0,0,8.68-20.13c-3.8-14.31-9.33-28.21-15.49-41.68C207.22,39,203.15,38.25,199.9,37.08Z"/></g></svg>