<?xml version="1.0" encoding="utf-8"?>
<!-- Generator: Adobe Illustrator 23.0.6, SVG Export Plug-In . SVG Version: 6.00 Build 0)  -->
<svg version="1.1" id="Camada_1" xmlns="http://www.w3.org/2000/svg" xmlns:xlink="http://www.w3.org/1999/xlink" x="0px" y="0px"
	 viewBox="0 0 300 120" style="enable-background:new 0 0 300 120;" xml:space="preserve">
<title>etsy</title>
<g id="_ffffffff">
	<path d="M41.2,6.1c18.4-0.2,36.9,1.5,55.2-0.7c2.2-0.1,4.5-0.9,6.6,0.1c0.8,3.6-1.2,7.3-0.3,11c0.6,2.7,0.6,7.8-3.6,6.8
		c-0.5-3.4-0.2-8-4.3-9.2c-8.7-2.5-18-2.3-27-2c-2.7,0.1-7,0.8-6.8,4.4c-0.2,8.2-0.3,16.4,0.1,24.6c1.9,1.3,4.5,0.5,6.6,0.8
		c6-0.3,12,0.5,18-0.4c4.4-0.9,4.6-6.1,5.7-9.5c2.1-1.4,4.3,1.5,3.5,3.6c-1.1,6.5-0.4,13.1,0.2,19.6c0.3,2-3.5,2.9-3.8,0.7
		c-1.4-3.4-2.8-8.2-7.3-8.3c-7.2-0.4-14.4-0.3-21.6-0.1c-2.1,1.1-1.2,3.9-1.5,5.8c0.2,7.7-0.3,15.4,0.3,23c0.4,3.8,4.6,5,7.9,5.1
		c9.2,0.4,18.9,0.8,27.5-3.2c5.3-2.3,4.9-8.7,6.4-13.4c3.9,0.1,5.5,4.2,4,7.5c-1.7,5-2.5,10.2-2.3,15.5C82.8,85.8,61,87.5,39.2,87
		c0-0.9,0.2-2.7,0.2-3.6c4.5-0.6,11-1.4,11.2-7.3c1.1-13.9,0.2-28,0.5-41.9c-0.3-6.8,1-13.9-1.6-20.4c-1.5-3.3-5.5-3.4-8.5-4.4
		C41,8.6,41.1,6.9,41.2,6.1z"/>
	<path d="M126.9,20c0.5-2,4.2-2.1,3.9,0.5c-0.3,4.5-1.1,9-1.2,13.5c5.9,0.1,11.8-0.2,17.8,0.3c0.1,1.7,0.1,3.5,0.1,5.2
		c-5.9,0.3-11.8,0.1-17.8,0.2c0.1,9.9-0.1,19.8,0.1,29.7c0.2,3.9,0.8,9,5,10.5c3.8,1.5,7.6-0.4,10.8-2.3c0.8,0.8,1.6,1.7,2.4,2.5
		c-4,5.7-11.3,9.9-18.4,8c-5.8-1.5-8.8-7.6-9-13.2c-0.4-9.5,0.7-19,0.3-28.5c-0.4-4.3-5.3-5.1-8.7-5.8c-1.1-3.5,3-4.4,5.1-6
		C122.4,31.2,124.3,25.2,126.9,20z"/>
	<path d="M184.8,33.4c2.7,1.2,5-0.8,7.4-1.5c2,1.4,0.6,4.3,0.7,6.3c-0.3,3.4-0.3,6.7-0.2,10.1c-1.3,0.4-2.5,0.8-3.7,1.1
		c-1.1-5.3-3.8-11.3-10-11.7c-5.9-1.9-14.9,3.5-11.1,10.2c7.1,8.3,21.1,7.9,26.6,18.1c4.5,8.9-2.2,19.6-11.4,21.7
		c-8.6,3.3-17.8-3.5-25.9,1.3c-2.4-3.5,1.1-7.5,0.1-11.3c-0.1-3.4-1.6-9,3-9.9c2.4,0.1,1.4,3,2,4.5c0.5,9.6,13.3,13.9,20.8,9.4
		c4.2-2.4,5.8-9,2-12.5c-6.8-6-17.1-6.6-23.4-13.3c-5.4-5.8-3.7-16,2.8-20.2C170.3,31.5,178,31.8,184.8,33.4z"/>
	<path d="M199.9,37.1l0.3-3.4c8.5,0.4,17,0.1,25.6,0.2c1.7,4.7-4.4,3.6-6.5,6c-0.6,3.3,0.8,6.5,2,9.5c3.4,8,6.8,16.1,10.1,24.2
		c4.1-8.9,9.3-17.3,12.2-26.7c0.4-2.1,1.5-4.7,0.3-6.7c-2.6-2.1-7.4-1.8-7.3-6.2c8.4,0.4,16.9-0.7,25.2,0.8v1.8
		c-3.4,1.7-7.4,2.6-9.6,5.9c-3.3,4.7-5.3,10.2-7.9,15.3c-6.5,13.3-12.4,27-19.3,40.2c-4.1,7-9.1,15.1-17.6,16.9
		c-4,1.1-9.5-2.9-6.7-7.2c3.5-5.8,10.9,2,14.6-3.2c5.1-5.6,8.1-12.6,8.7-20.1c-3.8-14.3-9.3-28.2-15.5-41.7
		C207.2,39,203.1,38.3,199.9,37.1z"/>
</g>
</svg>
