<svg id="Camada_1" data-name="Camada 1" xmlns="http://www.w3.org/2000/svg" viewBox="0 0 300 120"><defs><style>.cls-1{fill:#fff;}</style></defs><title>facebook</title><g id="_ffffffff" data-name="#ffffffff"><path class="cls-1" d="M10.87,34.87c4.57-4.64,11.69-3.66,17.58-3.34q0,4.33,0,8.65c-2.79.21-6-.71-8.45.92-2,2.9-.94,6.7-1.21,10,3.17,0,6.33,0,9.5-.06-.34,3-.67,6.06-1,9.09-2.85,0-5.69,0-8.54,0q0,14,0,28.07-5.57,0-11.13,0c0-9.37,0-18.74,0-28.12q-3.77.09-7.53.1C.12,57.08.1,54,.17,51c2.49.12,5,.15,7.48.17C7.76,45.66,6.85,39.27,10.87,34.87Z"/><path class="cls-1" d="M141.66,32.3c3.73-.31,7.45-.71,11.18-1,0,8.21.08,16.42-.06,24.63,5.25-8.48,19.27-7.21,23.53,1.54,3.32,6.88,3.24,15.29.81,22.44-2.67,7.75-12.47,11.05-19.65,7.7-2.18-1-3.65-2.94-5.33-4.56.06,1.7.13,3.39.18,5.09q-5.33,0-10.67,0,0-27.93,0-55.86m16.49,26.82c-3.57.69-5.3,4.5-5.28,7.83s-.42,6.94,1.18,10c2.51,4.54,10.11,4.38,12.39-.3,1.71-3.88,1.4-8.4.67-12.48A7.11,7.11,0,0,0,158.15,59.12Z"/><path class="cls-1" d="M264.93,32.38c3.77-.41,7.56-.76,11.34-1.1,0,12.49-.14,25,.07,37.46,3.81-5.91,7.34-12,11.3-17.82a81.59,81.59,0,0,0,11.7,0c-3.87,6.16-7.74,12.31-11.75,18.38,4.11,6.32,8.14,12.68,12.3,19-4-.13-8-.07-11.92-.08-4-6-7.46-12.3-11.77-18q.09,9,.06,18c-3.74,0-7.47,0-11.2,0C264.73,69.57,265,51,264.93,32.38Z"/><path class="cls-1" d="M34.58,53.63c6-5.27,16.56-4.56,20.69,2.7,0-1.79,0-3.58,0-5.36,3.53.18,7.07.14,10.6.07,0,12.37,0,24.74,0,37.12-3.56,0-7.12,0-10.69,0,0-1.77.07-3.53.09-5.3-4.56,7.91-16.86,7.87-22.27,1C29.51,79.37,29,73.45,29.18,68c0-5.18,1.45-10.75,5.4-14.34m9.87,5.88c-2.85,1.18-4,4.53-4,7.39,0,3.45-.52,7.22,1.34,10.32,2.38,4,9.14,4.1,11.58.12,1.41-2.17,1.41-4.85,1.46-7.34,0-3,.08-6.24-1.8-8.74S47.28,58.26,44.45,59.51Z"/><path class="cls-1" d="M72.92,57.83c2.35-4,6.78-6.41,11.27-7.18,5.45-.84,11.26-.6,16.23,2-.95,2.58-1.79,5.2-2.55,7.85-4.19-1.55-9.4-2.81-13.34,0-3.22,2.42-3.16,6.83-3.06,10.46-.09,3.29,1.15,7.05,4.39,8.47,3.86,1.76,8.22.61,12-.77.77,2.62,1.59,5.22,2.54,7.79-5.89,3-13,3.07-19.27,1.22A15.39,15.39,0,0,1,70.62,74.85C70,69.16,69.85,62.91,72.92,57.83Z"/><path class="cls-1" d="M103.79,58.74c4.74-9.25,18-10.72,26.42-6,7,4.35,6.91,13.45,6.64,20.7-8,0-15.93,0-23.89,0,.25,2.86,1.4,6.12,4.52,6.89,5.48,1.26,11.24.18,16.48-1.64.6,2.56,1.31,5.09,2,7.62a39.35,39.35,0,0,1-22.21,1.77,14.7,14.7,0,0,1-11.4-12c-.76-5.73-1.1-12,1.43-17.31M114.08,61c-.83,1.57-.8,3.4-1.1,5.1h14c-.25-2.39-.22-5.18-2.26-6.87C121.59,56.77,116.07,57.37,114.08,61Z"/><path class="cls-1" d="M195.52,50.82c6.18-1.27,13.28-.76,18.32,3.41,4.29,3.53,6,9.32,5.9,14.71.21,5.54-1.1,11.53-5.3,15.43-4.41,4.06-10.78,5-16.54,4.33a16.54,16.54,0,0,1-12.4-7.29c-3.26-5.18-3.31-11.69-2.42-17.55a16.17,16.17,0,0,1,12.44-13m3.72,8.29c-3.23.59-5.13,3.8-5.37,6.87-.21,3.66-.57,7.62,1.2,11,2.41,4.29,9.55,4.47,12.06.2,2.06-3.34,1.25-7.46,1.29-11.18A7.22,7.22,0,0,0,199.24,59.11Z"/><path class="cls-1" d="M236.53,50.8c6.16-1.25,13.18-.7,18.23,3.39,4.32,3.55,6,9.39,5.9,14.83.24,5.06-.86,10.43-4.28,14.32C252.82,87.4,247.23,89,242,88.87c-5.49.12-11.32-1.82-14.72-6.33-4.1-5.22-4.12-12.38-3.23-18.64a16.08,16.08,0,0,1,12.49-13.1m3.63,8.28c-3.58.74-5.39,4.51-5.4,7.88s-.38,6.93,1.26,10c2.06,3.73,7.54,4.3,10.76,1.8,2.15-1.92,2.79-4.93,2.74-7.7,0-3.06.28-6.39-1.42-9.11S243,58.32,240.16,59.08Z"/></g></svg>