<?xml version="1.0" encoding="utf-8"?>
<!-- Generator: Adobe Illustrator 23.0.6, SVG Export Plug-In . SVG Version: 6.00 Build 0)  -->
<svg version="1.1" id="Camada_1" xmlns="http://www.w3.org/2000/svg" xmlns:xlink="http://www.w3.org/1999/xlink" x="0px" y="0px"
	 viewBox="0 0 300 120" style="enable-background:new 0 0 300 120;" xml:space="preserve">
<path d="M158.6,13.6c-4.6-4.7-12.4-4.9-17.1-0.1l-0.1,0.1L98,57.8c-4.7,4.9-4.7,12.6,0,17.6l31,31.5c2.1,1.9,5,3.1,8,3.1h26
	c3.3,0,6.4-1.4,8.6-3.6L202,75.5c4.7-4.9,4.7-12.6,0-17.6L158.6,13.6L158.6,13.6z M157.4,94.4l-4.4,4.4c-0.4,0.4-0.8,0.5-1.2,0.5
	H148c-0.4,0-0.9-0.1-1.1-0.5l-4.4-4.5c-0.6-0.7-0.6-1.7,0-2.5l6.2-6.2c0.6-0.6,1.7-0.7,2.4,0l0,0l6.2,6.2
	C158.1,92.5,158.1,93.6,157.4,94.4z M157.4,67.9L140,85.5c-0.4,0.4-0.8,0.5-1.2,0.5H135c-0.4,0-0.9-0.1-1.1-0.4l-4.4-4.5
	c-0.6-0.7-0.6-1.9,0-2.5l19.2-19.5c0.6-0.6,1.7-0.7,2.4,0l0,0l6.2,6.2C158.1,66.1,158.1,67.1,157.4,67.9L157.4,67.9z M157.4,41.4
	l-30.2,30.9c-0.4,0.4-0.8,0.5-1.2,0.5h-3.7c-0.4,0-0.9-0.1-1.1-0.4l-4.4-4.5c-0.6-0.7-0.6-1.7,0-2.5l32.1-32.7
	c0.6-0.6,1.7-0.7,2.4,0l0,0l6.2,6.2C158.1,39.6,158.1,40.8,157.4,41.4z"/>
</svg>
