<svg id="Camada_1" data-name="Camada 1" xmlns="http://www.w3.org/2000/svg" viewBox="0 0 300 120"><defs><style>.cls-1{fill-rule:evenodd;}</style></defs><title>logo.5b1bf7a</title><path class="cls-1" d="M71.87,40.19a7.77,7.77,0,0,0,7.86-7.86,8,8,0,0,0-7.86-8.17A7.79,7.79,0,0,0,64,32,7.68,7.68,0,0,0,71.87,40.19Z"/><path class="cls-1" d="M80.05,45.54H43.26V43c0-4.71,4.72-4.71,7.24-4.71a19.14,19.14,0,0,1,4.08.31V25.42a52.3,52.3,0,0,0-6-.32c-7.55,0-22,2.2-22,18.24v1.88H20v12h6.6V82.64H20.31V94.58H50.5V82.64H43.26V57.17H63.39V82.64H57.1V94.58H86.34V82.64H80.05Zm62.56,0H116.2V57.48h4.4L115,75.41a33.28,33.28,0,0,0-1.26,6.6h-.32a38.54,38.54,0,0,0-1.25-6.6l-5.66-17.93h4.4V45.54H84.45V57.48h5.66L103.94,94.9h19.49l13.84-37.42h5.34ZM159.9,64.09c.95-3.78,3.15-7.23,7.86-7.23,3.78,0,6.29,3.45,6.29,7.23Zm31.44,4.08c0-13.51-8.17-23.89-23-23.89-16,0-25.78,11.32-25.78,25.78,0,13.2,9.43,25.78,27,25.78A35.22,35.22,0,0,0,191,88.92l-6-11.31s-6.6,4.71-13.83,4.71c-5.34,0-10.37-2.83-11.63-9.12H191C190.71,73.2,191.34,69.75,191.34,68.17Zm70.43-11.31c-.32,0,0-1,0-2.52V51.83c0-4.41-2.52-6.29-6.92-6.29H239.13V57.48h4.72a2,2,0,0,1,2.2,2.21V83h-6.61v12h30.19V83H263V75.72c0-9.12,4.4-14.78,13.52-14.78a19.35,19.35,0,0,1,3.46.32V44.91a6.72,6.72,0,0,0-1.89-.32,17,17,0,0,0-16.34,12.27m-44,0c-.31,0,0-1,0-2.52V51.83c0-4.41-2.51-6.29-6.92-6.29H195.11V57.48h4.72a2,2,0,0,1,2.2,2.21V83h-6.6v12h30.18V83H219V75.72c0-9.12,4.4-14.78,13.52-14.78a19.5,19.5,0,0,1,3.46.32V44.91a6.82,6.82,0,0,0-1.89-.32,17.06,17.06,0,0,0-16.35,12.27"/></svg>