<svg id="Camada_1" data-name="Camada 1" xmlns="http://www.w3.org/2000/svg" viewBox="0 0 300 120"><defs><style>.cls-1{fill:#fff;}</style></defs><title>flickr</title><path class="cls-1" d="M101.8,58.5H93.2V48h8.9V45.2c0-12.9,6.1-17.4,18-17.4a40.26,40.26,0,0,1,7.7.8l-1,10.4a14.87,14.87,0,0,0-4.7-.7c-3.8,0-5.3,2.7-5.3,6.9V48h10.8V58.5H116.8V91.2h-15Zm31.6-29.7h15V91.1h-15Zm22.4,1h14.9v11H155.8Zm0,18.2h14.9V91.2H155.8Zm55.5,12.2a16,16,0,0,0-9-2.4c-6.5,0-11.5,4.5-11.5,12,0,6.9,5.8,11.4,12.3,11.4a20.1,20.1,0,0,0,9.3-2.1l.3,11.1a39.33,39.33,0,0,1-12.2,1.9c-14.3,0-25.2-8.3-25.2-22.6s10.9-22.7,25.2-22.7a27,27,0,0,1,11.9,2.4l-1.1,11ZM219,28.8h15V66h.2l12.5-18.2h16.4l-15,19.9,16.3,23.4H246.3l-12-21.4h-.2V91.1h-15V28.8Zm80.3,31a17.68,17.68,0,0,0-5.1-.5c-7,0-10.9,5.1-10.9,13.6V91.2h-15V47.9H282v8h.2c2.6-5.5,6.3-9,12.8-9a29.37,29.37,0,0,1,5.1.5l-.8,12.4Z"/><path class="cls-1" d="M39.6,62.9A17.1,17.1,0,1,0,56.7,45.8,17.09,17.09,0,0,0,39.6,62.9Z"/><path class="cls-1" d="M0,62.9A17.1,17.1,0,1,0,17.1,45.8,17.09,17.09,0,0,0,0,62.9Z"/></svg>