<svg xmlns="http://www.w3.org/2000/svg" viewBox="0 0 300 120"><defs><style>.a{fill:#fff;}</style></defs><title>flipboard</title><polygon class="a" points="76.9 42.3 97.5 42.3 97.5 49.1 85 49.1 85 57.2 95.3 57.2 95.3 63.7 85 63.7 85 77.7 76.9 77.7 76.9 42.3"/><polygon class="a" points="100.3 42.3 108.5 42.3 108.5 70.9 120.1 70.9 120.1 77.7 100.3 77.7 100.3 42.3"/><polygon class="a" points="123.2 42.3 131.3 42.3 131.3 77.7 123.2 77.7 123.2 42.3"/><path class="a" d="M135.3,42.3h10.2c8.8,0,13.7,4.6,13.7,12.1,0,7.8-4.9,12.5-13.7,12.5h-2V77.8h-8.1V42.3Zm8.2,6.4V60.3h1.6c3.9,0,5.9-1.9,5.9-5.9,0-3.8-2-5.8-5.9-5.8h-1.6Z"/><path class="a" d="M162,42.3h11.7c8,0,11.9,3.4,11.9,9.3a7.1,7.1,0,0,1-5.8,7.4c4.5.8,6.8,4.2,6.8,8.3,0,6.1-4.3,10.5-12.3,10.5H162Zm8.2,6.4v7.7h2.3c3.4,0,4.9-1.5,4.9-4,0-2.3-1.5-3.7-4.8-3.7Zm0,13.8v8.8h3.1c3.5,0,5.3-1.7,5.3-4.5s-1.9-4.3-5.2-4.3Z"/><path class="a" d="M202.5,41.7c8.5,0,13.4,6.3,13.4,18.3S211,78.3,202.5,78.3,189.1,72,189.1,60,193.9,41.7,202.5,41.7Zm0,29.6c3.2,0,5.3-3.3,5.3-11.3s-2-11.3-5.3-11.3S197.3,52,197.3,60s1.9,11.3,5.2,11.3Z"/><path class="a" d="M225,42.3h10.3l8.9,35.5h-8.5l-1.5-7.1h-8.7l-1.6,7.1h-8.2Zm4.9,7.6-3,14.2H233l-2.9-14.2Z"/><path class="a" d="M246.3,42.3h10.2c8.9,0,13.6,3.7,13.6,11.2,0,4.9-2.2,8.4-6.3,10.3l7.5,14h-8.8l-6.1-12.6h-2V77.8h-8.1V42.3Zm8.2,6.4V58.8h2c3.7,0,5.4-1.8,5.4-5.2s-1.7-4.9-5.4-4.9Z"/><path class="a" d="M274.4,42.3h10.2c10.5,0,15.4,7.4,15.4,17.7s-4.9,17.7-15.4,17.7H274.4Zm8.1,6.8V70.9h1.9c5.3,0,7.2-5.1,7.2-10.9,0-6.2-1.9-10.9-7.2-10.9Z"/><path class="a" d="M0,30.4V89.5H59.1V30.4ZM47.3,54.1H35.5V65.9H23.7V77.7H11.8V42.3H47.3Z"/></svg>