<svg xmlns="http://www.w3.org/2000/svg" viewBox="0 0 300 120"><defs><style>.a{fill:#fff;}</style></defs><title>forbes</title><path class="a" d="M170,21h.67c.11,8.36,0,16.72-.07,25.08a24.34,24.34,0,0,1,17.56-2.21C196.24,46.25,201.62,54,203.07,62s.55,16.65-3.44,23.86a26.15,26.15,0,0,1-18.72,12.73,81.06,81.06,0,0,1-26.21-1.82c.09-20.27.75-40.54-.07-60.81-.13-3.07-1.09-7.09-4.75-7.5-1.63.09-3.66-1.71-2-3.06,7.33-1.71,14.79-2.8,22.15-4.4m.71,29.12c-.29,13-.08,25.94,0,38.9a29.69,29.69,0,0,0,.51,5.65c3.4.41,7.19-.13,9.43-3,5.39-6.53,6.37-15.53,6.13-23.7-.18-6.13-1.51-13.17-6.7-17.09C177.42,48.65,173.82,49.43,170.72,50.12Z"/><path class="a" d="M0,22.45c19-.21,38,0,57-.06,1.32.14,2.86-.31,4,.37.39,7.07.25,14.16.39,21.24l-3.63,1.09c-2.5-5.92-5-12.94-11.45-15.57-5.72-2.07-12-.75-17.9-1.23-.4,9.86-.68,19.73-.65,29.6,3.37-.13,6.8.14,10.12-.58,4.14-1.4,5.3-6,6.31-9.77l3.37-.26c.13,8.64,0,17.28.07,25.93l-3.4-.1c-1.08-3.56-2-8.06-5.77-9.7-3.49-.9-7.15-.63-10.71-.94.33,8.79-.38,17.81,1.72,26.41,1,4.51,6,5,9.8,5.43,0,1.16.08,2.32.1,3.48C26.31,97.61,13.15,98,0,97.59V95.28c1.82-2.39,5.83-1,7.7-3.55,2.95-3.5,2.52-8.45,3-12.73.38-12.36.31-24.73.09-37.09-.37-4.35-.08-9.19-2.68-12.95C6.26,26.5,2.93,26.58.23,26,.17,25.39.06,24.11,0,23.47Z"/><path class="a" d="M75.48,42.76c8.18-1.35,17.34.43,23.42,6.36,5.88,6,8.06,14.71,7.6,22.9.1,9.08-4.33,18.36-12.17,23.19C89.25,98.6,83,99.28,77,98.9A22.85,22.85,0,0,1,56.36,85.43,37.44,37.44,0,0,1,54.5,62.07c2.33-9.87,10.84-18,21-19.31m.94,4.53C73.81,49,72.56,52,71.77,54.91,69.84,62.1,70.2,69.65,70.43,77c.7,5.79,1.56,12.34,6,16.53,3.26,3,8.46,1,10.18-2.71,3.59-7,3.11-15.19,3.12-22.84-.31-6.65-.86-14.1-5.55-19.27A6.34,6.34,0,0,0,76.42,47.29Z"/><path class="a" d="M137,44.85c4.13-3,10-3.64,14.47-.92-1.85,5-3.66,10-5.77,14.94-3.59-1.74-7.56-3.45-11.62-2.37-1.77.53-4.46,1.23-4.42,3.54-.21,8.63-.34,17.29.27,25.91.34,2.62.22,6.13,3,7.52,1.88.75,4,.63,6,.86,0,1.16-.06,2.32-.11,3.48-10.75-.15-21.52-.09-32.26,0,0-1.16,0-2.32,0-3.47,3,0,6.51-1.44,6.83-4.86.87-9.1.44-18.28.49-27.42-.23-3.43.34-7.24-1.6-10.29-1.24-1.86-3.78-1.63-5.71-2l-.12-2.67c7.92-1.59,15.84-3.2,23.77-4.73-.08,3.83-.53,7.64-.6,11.47C131.64,50.5,133.56,46.93,137,44.85Z"/><path class="a" d="M216.18,49.27A26.74,26.74,0,0,1,240,43a18.77,18.77,0,0,1,12.53,9.49c2.74,4.85,3.33,10.51,3.72,16-10.73.26-21.48.09-32.21.18.09,6.16,1.26,13,5.95,17.41,6.19,6.46,17.12,5.94,24,.79L255.47,89A25.21,25.21,0,0,1,234,98.93c-9.88.61-19.57-5.56-23.54-14.56-5.06-11.37-3.33-26.21,5.75-35.1m13.09-1c-3.86,4.26-4.73,10.3-5.24,15.81,5.22-.26,10.44-.3,15.66-.37-.27-5.13-.3-10.74-3.16-15.22C235,45.91,231.09,46.07,229.27,48.31Z"/><path class="a" d="M273.44,43.35c7.71-2,15.94-.82,23.37,1.76.29,4.86.75,9.76.33,14.62l-2.39.66c-2-3.67-3.09-8-6.39-10.85-2.67-2.28-6.69-3.63-10-2-4.29,2-5.53,8.64-1.83,11.82,5.23,4.69,12.65,5.61,18.16,9.89A13,13,0,0,1,300,78.7v1.94c.76,9.27-7.33,16.93-16.1,18-8.25.68-16.77.39-24.56-2.68-.1-5.38-.17-10.77-.3-16.16l2.71-.79c1.88,4.24,3.63,8.85,7.32,11.87a11.2,11.2,0,0,0,12.32,1.44c4.16-2.24,5-9,1.21-11.94-5.64-4.54-13.76-4.88-18.81-10.29-3.67-3.63-4.35-9.24-3.36-14.1C261.81,49.7,267.33,44.94,273.44,43.35Z"/></svg>