<svg xmlns="http://www.w3.org/2000/svg" viewBox="0 0 300 120"><defs><style>.a{fill:#fff;}</style></defs><path class="a" d="M0,41.89a33.54,33.54,0,0,1,6-.25H21.72c.64,0,1.41-.08,1.81.54A53.66,53.66,0,0,1,22.2,49c-.08,1-1.27.89-2,.94-3.71,0-7.42,0-11.13,0v4.66c3.89,0,7.79-.07,11.68.07-.39,2.73-1.06,5.4-1.63,8.09-3.34.32-6.7.1-10,.16C9,66.36,9.25,69.79,9,73.2a43,43,0,0,1-8.82,0A23.79,23.79,0,0,1,0,69.75C0,60.47,0,51.18,0,41.89Z"/><path class="a" d="M37.43,41.59a17.29,17.29,0,0,1,16,5C59,52.46,59,62.44,53.75,68.47c-5.66,6.62-16.51,7.38-23.35,2.18-5.56-4.09-7.53-11.89-5.4-18.32A16.26,16.26,0,0,1,37.43,41.59m2.11,8.26c-3.86.81-5.91,5.09-5.46,8.76.17,3.9,3.71,7.65,7.79,6.91,4.53-.65,6.74-6,5.66-10C46.86,51.91,43.24,48.93,39.53,49.85Z"/><path class="a" d="M61.36,41.81a51.57,51.57,0,0,1,8-.09c1,0,.71,1.18.8,1.8,0,5.89,0,11.79,0,17.68a4.09,4.09,0,0,0,1.64,3.7c1.72,1,4.32.76,5.45-1A8.6,8.6,0,0,0,78,59.68q0-8.91,0-17.82a52.3,52.3,0,0,1,7.7-.19c.55,0,1.42.17,1.33.89.1,6.72,0,13.44,0,20.16a10.71,10.71,0,0,1-4.18,8.74c-3.35,2.47-7.77,2.93-11.79,2.38a11.55,11.55,0,0,1-8.48-5.2,12.62,12.62,0,0,1-1.63-7c0-5.88,0-11.76,0-17.64A4.29,4.29,0,0,1,61.36,41.81Z"/><path class="a" d="M91.6,41.85c2.37-.45,4.8-.11,7.2-.21,3.5.1,7.05-.29,10.52.38A11.18,11.18,0,0,1,117,47.49a11,11,0,0,1,.09,9.83,11,11,0,0,1-4.63,4.34c2.21,3.91,4.65,7.7,6.7,11.7-3.37-.06-6.79.3-10.13-.16-2.14-3.26-3.74-6.85-5.65-10.26h-2.82c0,3.48.09,7-.08,10.43-3,0-6,0-9,0-.35-8.27-.06-16.56-.16-24.83.1-2.23-.26-4.52.24-6.72m9,8v5.28c2.19-.1,4.46.3,6.6-.28a2.55,2.55,0,0,0,.1-4.69C105.08,49.52,102.78,49.95,100.56,49.84Z"/><path class="a" d="M123.58,45.13c2.6-2.94,6.7-4.06,10.52-3.87,4,.17,8.21,1.38,11.12,4.26-.06.2-.16.61-.21.82a49.72,49.72,0,0,1-4.37,5.42c-1.77-.54-3.21-1.9-5.08-2.2-1.43-.29-3.56-.64-4.31,1-.2,1.12.82,1.81,1.74,2.14,3.38,1.38,7.23,2,10,4.59,3.18,2.88,3.55,8,1.36,11.61a11.39,11.39,0,0,1-8.23,5A20.83,20.83,0,0,1,122,70.76a9.78,9.78,0,0,1-2-2c1.71-2.08,3.08-4.44,5-6.3,2.6,1.63,5.3,3.67,8.54,3.45,1.29,0,2.77-1.24,2-2.6-1.28-1.33-3.22-1.59-4.87-2.23-2.85-.86-5.86-2-7.63-4.55A9.18,9.18,0,0,1,123.58,45.13Z"/><path class="a" d="M151.33,47.22a17.36,17.36,0,0,1,19.11-4.9A16,16,0,0,1,181,55.12,17.34,17.34,0,0,1,176,70a17.76,17.76,0,0,0,5.59-.67c-.46,3.18-1.22,6.3-1.85,9.44a20.47,20.47,0,0,1-12.85-4.82A17.73,17.73,0,0,1,152,69a16.82,16.82,0,0,1-.72-21.77M162.53,50c-4.46,1.41-6,7.12-4.33,11.15a6.64,6.64,0,0,0,8.56,4c4.46-1.84,5.65-7.89,3.44-11.87A6.52,6.52,0,0,0,162.53,50Z"/><path class="a" d="M184.6,41.9a37.34,37.34,0,0,1,9.06,0q0,9.42,0,18.83a5.41,5.41,0,0,0,1.11,3.8,4.56,4.56,0,0,0,4.68.61c1.51-.6,2-2.38,2-3.88,0-6.46,0-12.92,0-19.37a37.94,37.94,0,0,1,9,0c0,7.12,0,14.24,0,21.35a10.4,10.4,0,0,1-4.47,8.45c-3.17,2.18-7.22,2.63-11,2.22a12,12,0,0,1-8.59-4.66,10.69,10.69,0,0,1-1.95-6.56C184.61,55.76,184.59,48.83,184.6,41.9Z"/><path class="a" d="M221.57,41.84c3.38-.43,6.84-.13,10.25-.17,1.31-.11,1.43,1.43,1.76,2.32,2.82,9.82,6.07,19.51,8.69,29.38-3.17,0-6.33,0-9.5,0-.63-1.73-1.16-3.5-1.71-5.26h-8a46.44,46.44,0,0,1-1.67,5.32c-3.15-.05-6.3,0-9.45-.06,2.5-9.34,5.56-18.52,8.24-27.81a15.09,15.09,0,0,1,1.37-3.71m2.67,17.82h5.67q-1.4-4.67-2.83-9.34C226.11,53.43,225.21,56.55,224.24,59.66Z"/><path class="a" d="M245.34,41.85c4.39-.45,8.82-.09,13.24-.21,3.85-.11,8,.73,10.76,3.66,2.94,3,3.44,7.73,1.91,11.51a10.78,10.78,0,0,1-4.87,4.86c2.2,3.91,4.64,7.69,6.68,11.68-3.32,0-6.64.16-9.94,0a6.11,6.11,0,0,1-1.29-1.84c-1.49-2.86-3-5.68-4.55-8.54h-2.75c-.1,3.42.19,6.85-.14,10.25-3,.47-6,.11-9,.17-.1-10.5,0-21,0-31.5m9.19,8v5.28c2.23-.13,4.58.36,6.73-.35A2.54,2.54,0,0,0,261,50.1C258.88,49.58,256.67,49.92,254.53,49.84Z"/><path class="a" d="M276.35,43c-.16-1.63,1.79-1.37,2.86-1.38,6.92.16,13.87-.24,20.78.21-.36,2.68-1,5.3-1.58,7.93-4.28.41-8.6.09-12.9.19q0,1.7,0,3.4c3.83.14,7.72-.29,11.52.21a32.91,32.91,0,0,1-1.73,8c-3.26.23-6.52,0-9.78.09,0,1.17,0,2.35,0,3.53,4.61.09,9.23-.17,13.83.13,0,2.73-.92,5.39-1.5,8q-10.67.05-21.33,0a62.48,62.48,0,0,1-.2-7.65C276.35,58.16,276.28,50.58,276.35,43Z"/></svg>