<?xml version="1.0" encoding="utf-8"?>
<!-- Generator: Adobe Illustrator 23.0.6, SVG Export Plug-In . SVG Version: 6.00 Build 0)  -->
<svg version="1.1" id="Camada_1" xmlns="http://www.w3.org/2000/svg" xmlns:xlink="http://www.w3.org/1999/xlink" x="0px" y="0px"
	 viewBox="0 0 300 120" style="enable-background:new 0 0 300 120;" xml:space="preserve">
<path d="M0,41.9c2-0.3,4-0.3,6-0.3h15.7c0.6,0,1.4-0.1,1.8,0.5c-0.3,2.3-0.7,4.6-1.3,6.8c-0.1,1-1.3,0.9-2,0.9c-3.7,0-7.4,0-11.1,0
	v4.7c3.9,0,7.8-0.1,11.7,0.1c-0.4,2.7-1.1,5.4-1.6,8.1c-3.3,0.3-6.7,0.1-10,0.2C9,66.4,9.3,69.8,9,73.2c-2.9,0.3-5.9,0.3-8.8,0
	C0,72.1,0,70.9,0,69.8C0,60.5,0,51.2,0,41.9z"/>
<path d="M37.4,41.6c5.8-1.2,11.9,0.7,16,5c5.6,5.9,5.6,15.8,0.3,21.9c-5.7,6.6-16.5,7.4-23.4,2.2c-5.6-4.1-7.5-11.9-5.4-18.3
	C26.9,46.8,31.6,42.7,37.4,41.6 M39.5,49.8c-3.9,0.8-5.9,5.1-5.5,8.8c0.2,3.9,3.7,7.7,7.8,6.9c4.5-0.7,6.7-6,5.7-10
	C46.9,51.9,43.2,48.9,39.5,49.8L39.5,49.8z"/>
<path d="M61.4,41.8c2.7-0.2,5.3-0.3,8-0.1c1,0,0.7,1.2,0.8,1.8c0,5.9,0,11.8,0,17.7c-0.1,1.4,0.5,2.8,1.6,3.7c1.7,1,4.3,0.8,5.4-1
	c0.6-1.3,0.9-2.8,0.8-4.2c0-5.9,0-11.9,0-17.8c2.6-0.3,5.1-0.3,7.7-0.2c0.6,0,1.4,0.2,1.3,0.9c0.1,6.7,0,13.4,0,20.2
	c0.1,3.4-1.5,6.7-4.2,8.7c-3.3,2.5-7.8,2.9-11.8,2.4c-3.5-0.4-6.6-2.3-8.5-5.2c-1.2-2.1-1.8-4.6-1.6-7c0-5.9,0-11.8,0-17.6
	C60.9,43.2,61,42.5,61.4,41.8z"/>
<path d="M91.6,41.8c2.4-0.5,4.8-0.1,7.2-0.2c3.5,0.1,7.1-0.3,10.5,0.4c3.2,0.6,6.1,2.6,7.7,5.5c1.6,3.1,1.6,6.7,0.1,9.8
	c-1.1,1.9-2.7,3.4-4.6,4.3c2.2,3.9,4.7,7.7,6.7,11.7c-3.4-0.1-6.8,0.3-10.1-0.2c-2.1-3.3-3.7-6.8-5.7-10.3h-2.8
	c0,3.5,0.1,7-0.1,10.4c-3,0-6,0-9,0c-0.3-8.3-0.1-16.6-0.2-24.8C91.4,46.3,91.1,44,91.6,41.8 M100.6,49.8v5.3
	c2.2-0.1,4.5,0.3,6.6-0.3c1.3-0.5,1.9-2,1.4-3.3c-0.2-0.6-0.7-1.1-1.3-1.4C105.1,49.5,102.8,50,100.6,49.8L100.6,49.8z"/>
<path d="M123.6,45.1c2.6-2.9,6.7-4.1,10.5-3.9c4,0.2,8.2,1.4,11.1,4.3c-0.1,0.2-0.2,0.6-0.2,0.8c-1.3,1.9-2.8,3.7-4.4,5.4
	c-1.8-0.5-3.2-1.9-5.1-2.2c-1.4-0.3-3.6-0.6-4.3,1c-0.2,1.1,0.8,1.8,1.7,2.1c3.4,1.4,7.2,2,10,4.6c3.2,2.9,3.6,8,1.4,11.6
	c-1.9,2.8-4.9,4.6-8.2,5c-4.9,0.7-9.9-0.4-14.1-3.1c-0.8-0.6-1.4-1.2-2-2c1.7-2.1,3.1-4.4,5-6.3c2.6,1.6,5.3,3.7,8.5,3.5
	c1.3,0,2.8-1.2,2-2.6c-1.3-1.3-3.2-1.6-4.9-2.2c-2.8-0.9-5.9-2-7.6-4.5C120.5,53.1,120.8,48.3,123.6,45.1z"/>
<path d="M151.3,47.2c4.7-5.4,12.3-7.4,19.1-4.9c5.6,2,9.7,6.9,10.6,12.8c0.8,5.5-1.1,11-5,14.9c1.9,0.1,3.8-0.2,5.6-0.7
	c-0.5,3.2-1.2,6.3-1.9,9.4c-4.7-0.1-9.2-1.8-12.9-4.8c-5.5,0.8-11-1.1-14.9-5C146.5,62.9,146.2,53.7,151.3,47.2 M162.5,50
	c-4.5,1.4-6,7.1-4.3,11.2c1.2,3.5,5,5.3,8.5,4c0,0,0.1,0,0.1,0c4.5-1.8,5.6-7.9,3.4-11.9C168.8,50.5,165.5,49.1,162.5,50z"/>
<path d="M184.6,41.9c3-0.4,6.1-0.4,9.1,0c0,6.3,0,12.6,0,18.8c-0.1,1.4,0.3,2.7,1.1,3.8c1.3,1.1,3.1,1.3,4.7,0.6
	c1.5-0.6,2-2.4,2-3.9c0-6.5,0-12.9,0-19.4c3-0.4,6-0.4,9,0c0,7.1,0,14.2,0,21.3c0,3.4-1.7,6.5-4.5,8.4c-3.2,2.2-7.2,2.6-11,2.2
	c-3.4-0.3-6.5-2-8.6-4.7c-1.4-1.9-2-4.2-1.9-6.6C184.6,55.8,184.6,48.8,184.6,41.9z"/>
<path d="M221.6,41.8c3.4-0.4,6.8-0.1,10.3-0.2c1.3-0.1,1.4,1.4,1.8,2.3c2.8,9.8,6.1,19.5,8.7,29.4c-3.2,0-6.3,0-9.5,0
	c-0.6-1.7-1.2-3.5-1.7-5.3h-8c-0.4,1.8-1,3.6-1.7,5.3c-3.1-0.1-6.3,0-9.4-0.1c2.5-9.3,5.6-18.5,8.2-27.8
	C220.5,44.3,220.9,43,221.6,41.8 M224.2,59.7h5.7c-0.9-3.1-1.9-6.2-2.8-9.3C226.1,53.4,225.2,56.5,224.2,59.7L224.2,59.7z"/>
<path d="M245.3,41.8c4.4-0.5,8.8-0.1,13.2-0.2c3.9-0.1,8,0.7,10.8,3.7c2.9,3,3.4,7.7,1.9,11.5c-1,2.1-2.8,3.8-4.9,4.9
	c2.2,3.9,4.6,7.7,6.7,11.7c-3.3,0-6.6,0.2-9.9,0c-0.5-0.5-1-1.2-1.3-1.8c-1.5-2.9-3-5.7-4.5-8.5h-2.8c-0.1,3.4,0.2,6.8-0.1,10.3
	c-3,0.5-6,0.1-9,0.2C245.3,62.9,245.4,52.4,245.3,41.8 M254.6,49.9v5.3c2.2-0.1,4.6,0.4,6.7-0.3c1.3-0.6,1.8-2.1,1.2-3.4
	c-0.3-0.6-0.9-1.1-1.5-1.3C258.9,49.6,256.7,49.9,254.6,49.9L254.6,49.9z"/>
<path d="M276.4,43c-0.2-1.6,1.8-1.4,2.9-1.4c6.9,0.2,13.9-0.2,20.8,0.2c-0.4,2.7-1,5.3-1.6,7.9c-4.3,0.4-8.6,0.1-12.9,0.2
	c0,1.1,0,2.3,0,3.4c3.8,0.1,7.7-0.3,11.5,0.2c-0.2,2.7-0.8,5.4-1.7,8c-3.3,0.2-6.5,0-9.8,0.1c0,1.2,0,2.3,0,3.5
	c4.6,0.1,9.2-0.2,13.8,0.1c0,2.7-0.9,5.4-1.5,8c-7.1,0-14.2,0-21.3,0c-0.2-2.5-0.3-5.1-0.2-7.7C276.4,58.2,276.3,50.6,276.4,43z"/>
</svg>
