<svg xmlns="http://www.w3.org/2000/svg" viewBox="0 0 300 120"><defs><style>.a{fill:#fff;}</style></defs><title>freepik</title><path class="a" d="M13,39.47a34.11,34.11,0,0,0-5.2,6.91L5.6,45.25A2.88,2.88,0,0,0,2.49,43a2.86,2.86,0,0,0,.7,5.67A2.18,2.18,0,0,0,4,48.43l2.15,1.14a33.88,33.88,0,0,0-2.52,8.26l3.53.64A31.6,31.6,0,0,1,15.61,42Z"/><path class="a" d="M38.81,28.57c-.8,0-1.61.05-2.41.05l-.32-3a3.43,3.43,0,0,0,1.23-3.08A3.37,3.37,0,1,0,32.54,26l.32,3a34.41,34.41,0,0,0-9.69,3.07l1.55,3.24a32.49,32.49,0,0,1,14.09-3.18,33.86,33.86,0,0,1,7,.75l.75-3.5A37,37,0,0,0,38.81,28.57Z"/><path class="a" d="M69.88,40.6a2.85,2.85,0,0,0-.7-5.66,2.89,2.89,0,0,0-2.52,2.86l-2,1.72A35.83,35.83,0,0,0,58,34.13l-1.88,3A32,32,0,0,1,68.22,51l3.26-1.45A34.75,34.75,0,0,0,67,42.22l1.87-1.67A1.88,1.88,0,0,0,69.88,40.6Z"/><path class="a" d="M36.24,76.94c-1.82.1-3.65.16-5.47.16a71.12,71.12,0,0,1-11.67-.87,39,39,0,0,1-6-1.4,29.07,29.07,0,0,0,53.35-6.59,48.13,48.13,0,0,1-11.57,5.35A73.38,73.38,0,0,1,36.24,76.94Z"/><path class="a" d="M38.81,35.75A28.44,28.44,0,0,0,10.2,63.93a28.1,28.1,0,0,0,.65,6C14,72.19,23.6,74.13,36,73.37c13.56-.81,24.91-4.53,31.39-10.25a23.3,23.3,0,0,0-.21-2.76A28.5,28.5,0,0,0,38.81,35.75ZM28.63,66.62a8.75,8.75,0,1,1,8.68-8.74A8.71,8.71,0,0,1,28.63,66.62Zm22.28-4.31a6.43,6.43,0,1,1,6.38-6.43A6.42,6.42,0,0,1,50.91,62.31Z"/><path class="a" d="M114.07,44.6a13.36,13.36,0,0,0-6.48-1.13c-2.57.32-4,1.61-4,4.75v4.1h10.5v8.15h-10.5V86.33h-9.1V60.47H88.2v-8.1h6.32V48.16c0-8,4.23-13.17,12.1-13.17a18.81,18.81,0,0,1,7.5,1.46Z"/><path class="a" d="M136.25,60.42a12.46,12.46,0,0,0-2.47-.22c-4.23,0-7.12,2.59-7.12,7.67V86.38h-9.11v-34h8.79V56.1c2.14-3.19,5.35-4.64,9.48-4.64A8.27,8.27,0,0,1,141,53.07Z"/><path class="a" d="M172.3,69.32a27.62,27.62,0,0,1-.16,3.08H148.19c1,4.91,4.39,7.07,8.68,7.07a13.47,13.47,0,0,0,8.52-3.24l5.3,5.89c-3.86,3.56-8.73,5.18-14.36,5.18-10.33,0-17.51-7.07-17.51-17.81s7-18,17.09-18C165.6,51.46,172.24,58.69,172.3,69.32Zm-24.05-3.18h14.94c-.86-4.37-3.43-6.8-7.34-6.8C151.51,59.34,149.05,61.93,148.25,66.14Z"/><path class="a" d="M208.29,69.32a25.4,25.4,0,0,1-.16,3.08H184.19c1,4.91,4.39,7.07,8.68,7.07a13.47,13.47,0,0,0,8.51-3.24l5.31,5.89c-3.86,3.56-8.73,5.18-14.36,5.18-10.34,0-17.52-7.07-17.52-17.81s7-18,17.09-18C201.6,51.46,208.24,58.69,208.29,69.32Zm-24-3.18h14.95c-.86-4.37-3.43-6.8-7.34-6.8C187.56,59.34,185.05,61.93,184.24,66.14Z"/><path class="a" d="M247.56,69.32c0,10.21-7,17.93-16.34,17.93a12.2,12.2,0,0,1-9.91-4.43v17.6h-9.05V52.37h8.89v3.78a12.22,12.22,0,0,1,10.07-4.64C240.54,51.46,247.56,59.12,247.56,69.32Zm-26.73,0c0,5.35,3.53,9.4,8.68,9.4,5.35,0,8.73-4.16,8.73-9.4s-3.32-9.39-8.73-9.39C224.36,60,220.83,64,220.83,69.32Z"/><path class="a" d="M262.18,41.2a5.81,5.81,0,1,1-5.84-5.89A5.81,5.81,0,0,1,262.18,41.2ZM261,86.33h-9.11v-34H261Z"/><polygon class="a" points="276.11 64.47 288.81 52.37 299.95 52.37 283.56 68.35 300 86.33 288.81 86.33 276 72.56 276 86.33 266.9 86.33 266.9 35.8 276 35.8 276 64.47 276.11 64.47"/></svg>