<svg id="Camada_1" data-name="Camada 1" xmlns="http://www.w3.org/2000/svg" viewBox="0 0 300 120"><defs><style>.cls-1{fill:#fff;}</style></defs><title>genius</title><g id="_000000ff" data-name="#000000ff"><path class="cls-1" d="M62,42.4a5,5,0,0,1,4.8-2.06A12.72,12.72,0,0,1,67,43.17q0,13.67,0,27.35a4.26,4.26,0,0,0,1.94,3.84c1.62,1,3.59.63,5.39.69,5.47,0,10.95-.09,16.42.07A4.6,4.6,0,0,1,89.09,79c-1.37,1.1-3.2.86-4.82.88-5.92,0-11.84,0-17.75,0a5.47,5.47,0,0,1-4.09-1.64,5.69,5.69,0,0,1-1.32-4.08q0-14.22,0-28.43A5.81,5.81,0,0,1,62,42.4Z"/><path class="cls-1" d="M120.56,40.78A6,6,0,0,1,124,40.4c.13,10.29,0,20.58.08,30.87a4.11,4.11,0,0,0,3.14,3.92,6.26,6.26,0,0,1-1,3.06,4.56,4.56,0,0,1-6.85.28,4.61,4.61,0,0,1-1.11-3.21q0-15.15,0-30.29A4.49,4.49,0,0,1,120.56,40.78Z"/><path class="cls-1" d="M144,42.51a4.27,4.27,0,0,1,5.2-2c.16,5.92,0,11.85.07,17.77-.06,1.58.12,3.18-.08,4.75l-.38.38c-1.8-3-3.67-5.9-5.32-8.95-.13-2.65,0-5.31-.05-8C143.46,45.18,143.31,43.73,144,42.51Z"/><path class="cls-1" d="M181.17,41.53c1.13-1.24,2.9-1.32,4.46-1.14.13,10.16,0,20.33.06,30.49a4.82,4.82,0,0,0,.82,2.87,5.54,5.54,0,0,0,2.35,1.42c-.11,1.83-1,3.83-2.83,4.45A4.41,4.41,0,0,1,179.95,76c-.09-9.81,0-19.63,0-29.44C179.85,44.79,179.84,42.83,181.17,41.53Z"/><path class="cls-1" d="M217.94,40.4a5.81,5.81,0,0,1,3.31-.25c0,6.18,0,12.36,0,18.53a18.65,18.65,0,0,0,3.28,11,13.2,13.2,0,0,0,7.64,4.84A19.54,19.54,0,0,0,245,73.27c.27.85-.52,1.44-1,2a15.73,15.73,0,0,1-11,4.62c-4,.18-8.21-.59-11.44-3.07a15.66,15.66,0,0,1-5.66-10.06,42.59,42.59,0,0,1-.41-8.09c0-4.68,0-9.36,0-14A4.54,4.54,0,0,1,217.94,40.4Z"/><path class="cls-1" d="M242,40.38a5.9,5.9,0,0,1,3.28-.23c0,5.93,0,11.86,0,17.8a13.72,13.72,0,0,1-1.69,7.29,6.7,6.7,0,0,1-5.11,3,27.58,27.58,0,0,0,.93-5.19c.05-6.16,0-12.31,0-18.47A4.5,4.5,0,0,1,242,40.38Z"/><path class="cls-1" d="M277,41.83a3,3,0,0,1,2-.62A11.12,11.12,0,0,0,277.51,51a10.6,10.6,0,0,0,6,6.15c3.24,1.48,6.84,1.72,10.27,2.51A6.64,6.64,0,0,1,297.94,62a3.66,3.66,0,0,1-.59,4.58,7.72,7.72,0,0,1-4.6,1.82,3.24,3.24,0,0,0-1.63-2.93c-2.33-1.27-5.06-1.33-7.59-1.91-3.81-.7-7.78-2.18-10.24-5.33a11.07,11.07,0,0,1-1.55-10.28A11.53,11.53,0,0,1,277,41.83Z"/><path class="cls-1" d="M19.28,43.88A12,12,0,0,1,33.51,46.4c0,1.67,0,3.34,0,5q-2.44,0-4.87,0a12.81,12.81,0,0,0-9.29-3.69c-1.6-.07-3.1.54-4.66.79C15.45,46.41,17.38,44.94,19.28,43.88Z"/><path class="cls-1" d="M286.81,43.21A11.78,11.78,0,0,1,297.68,45a26.21,26.21,0,0,1,2.23,1.41c0,2.41-2.06,4.86-4.56,4.71-2-.1-3.31-1.77-5-2.54-1.9-1-4.09-1.06-6.18-1.14A4,4,0,0,1,286.81,43.21Z"/><path class="cls-1" d="M74.2,43.8c5.49-.06,11,0,16.47,0a4.35,4.35,0,0,1-1.73,4.11c-1.37,1-3.12.69-4.69.72-3.35-.06-6.72.1-10.07-.08C74.19,47,74.18,45.38,74.2,43.8Z"/><path class="cls-1" d="M4.78,47.43c.38-.35.73-1.07,1.38-.7a21.14,21.14,0,0,0-.45,14.48A20.72,20.72,0,0,0,18.15,74,21.31,21.31,0,0,0,28.5,75a47.56,47.56,0,0,0,4.78-1.23A1.64,1.64,0,0,1,32.64,75,19.63,19.63,0,0,1,4.78,47.43Z"/><path class="cls-1" d="M131.33,48.84c.68-.11.88.62,1.2,1,4.32,7.25,8.68,14.47,13,21.71a7.24,7.24,0,0,0,2.88,3,8.34,8.34,0,0,0,3.68.45,5.42,5.42,0,0,1-3.59,4.47,7.22,7.22,0,0,1-6.45-.78,8.65,8.65,0,0,1-2.17-2.58c-2.59-4.31-5.16-8.63-7.76-12.93a3.63,3.63,0,0,1-.8-1.94C131.32,57.14,131.31,53,131.33,48.84Z"/><path class="cls-1" d="M20.07,58.32a4.91,4.91,0,0,1,3.83-2.48c.29,2,1.55,4.07,3.68,4.49,2,.23,3.92,0,5.88.12,0,1.29,0,2.59,0,3.88A11.6,11.6,0,0,1,27.71,67c0-.63,0-1.27,0-1.9-2-.29-4.14.39-5.93-.71A4.55,4.55,0,0,1,20.07,58.32Z"/><path class="cls-1" d="M74.15,59.57a6.1,6.1,0,0,1,1.27-.22c4.73,0,9.45,0,14.18,0a3.94,3.94,0,0,1-3.2,4.85c-2.43.28-4.89.06-7.33.13-1.63-.08-3.31.23-4.91-.22C74.2,62.57,74.2,61.07,74.15,59.57Z"/><path class="cls-1" d="M273.09,67.46a6,6,0,0,1,2.85-.13,4.6,4.6,0,0,0,1.47,3,21.92,21.92,0,0,0,19.39,3.92,15.17,15.17,0,0,1,3.2-.93c-1.35,2.8-4.23,4.52-7.07,5.51a22.92,22.92,0,0,1-18.86-2.24c-1.5-.94-3.27-2-3.69-3.87A4.71,4.71,0,0,1,273.09,67.46Z"/></g></svg>