<svg id="Camada_1" data-name="Camada 1" xmlns="http://www.w3.org/2000/svg" viewBox="0 0 300 120"><defs><style>.cls-1{fill:#fff;}</style></defs><title>getty-images</title><g id="_ffffffff" data-name=" ffffffff"><path class="cls-1" d="M61.83,33.69h7.32V44H83V33.69h7.33V44H96.5v6H90.39v15.5a8.78,8.78,0,0,0,.49,3.63c1.78.91,3.78.19,5.65,0v6c-3.42.25-7.13,1.06-10.37-.5-2.23-1.08-3.1-3.68-3.08-6C83,62.4,83.05,56.18,83,50H69.18V65.49a8.52,8.52,0,0,0,.47,3.64c1.76.92,3.77.18,5.62,0v6c-3.57.23-7.55,1.17-10.81-.8-2.21-1.36-2.67-4.16-2.62-6.57C61.83,56.41,61.79,45.05,61.83,33.69Z"/><path class="cls-1" d="M131.36,33.85H135v5.29h-3.58C131.36,37.38,131.36,35.61,131.36,33.85Z"/><path class="cls-1" d="M2,50.21C4.9,43,15.06,41.46,20.94,46c1.91-2,4.67-2.59,7.34-2.65v5a36.85,36.85,0,0,0-4.68.54c2,3.56,2.23,8.29-.27,11.66-2.12,2.94-5.93,4-9.4,4-1.85.21-3.91-.15-5.6.78-1.32.78-.42,2.55.81,2.8,5.16,1.31,11,0,15.72,2.81,3.93,2.2,4.18,8.18,1.07,11.19-3.69,3.77-9.39,4.31-14.39,4.08C8,86,3.9,85.41,1.34,82.61-.17,81.08-.07,78.83.08,76.86c2.19,0,4.38,0,6.55.11a3.92,3.92,0,0,0,3.66,4.18h.34c3.52.34,8.19.89,10.58-2.32.92-2.11-1.41-3.58-3.15-4-5.37-1.5-12-.11-16.32-4.42-2.34-3.26,1-6.75,4-8.06C1.89,59.65,0,54.57,2,50.21m8.86-.58c-3.65,1.66-3.56,7.58.15,9.11,3.21,1.75,7.59-.75,7.54-4.43.27-3.88-4.4-6.64-7.72-4.68Z"/><path class="cls-1" d="M33.09,48.9c3.76-6,13-7.29,18.39-2.9,4.35,3.45,5.3,9.4,5,14.63H37.6c.25,3.11.86,7,4,8.4,3.5,1.59,7.26-.38,9.52-3.11q2.68,1.65,5.35,3.33c-3.62,5.63-11.17,7.44-17.35,5.61-4.77-1.48-7.72-6.23-8.48-11-.82-5-.47-10.62,2.36-15M39,51c-1,1.32-1.2,3-1.54,4.6,4.09,0,8.18.08,12.27,0-.4-1.6-.56-3.38-1.67-4.69a6,6,0,0,0-8.48-.37,4.89,4.89,0,0,0-.45.46Z"/><path class="cls-1" d="M146.32,48.59c2.48-2.67,5.57-5.21,9.41-5.21a8.14,8.14,0,0,1,8.54,5.5c2.14-2.43,4.71-4.77,8-5.33,3-.5,6.54-.15,8.59,2.33,1.6,1.89,1.73,4.49,1.77,6.86V75H179c0-7.93.05-15.85,0-23.78a4.56,4.56,0,0,0-4.18-4.93h0c-4.24-.4-7.86,2.67-10.4,5.75,0,7.65,0,15.3,0,23h-3.59V51.2a4.54,4.54,0,0,0-4.19-4.88h-.08c-4.19-.31-7.78,2.69-10.27,5.77,0,7.65,0,15.3,0,23h-3.59v-31h3.59C146.33,45.49,146.33,47.05,146.32,48.59Z"/><path class="cls-1" d="M195.81,44.42a15.83,15.83,0,0,1,11.06-.19,7.64,7.64,0,0,1,4.74,6.84c.48,8-.39,16,.61,23.89h-3.44c-.16-1.24-.33-2.47-.48-3.69-4.14,3.45-10,5.56-15.26,3.51-6-2.4-6-11.75-.87-15,4.89-3.06,10.76-3.84,16.27-5.2-.09-2.62.12-6.1-2.64-7.49-5-2.41-11,.11-13.68,4.72l-2.36-1.42c1.48-2.43,3.34-4.81,6.05-5.93M194.22,62.6c-3.27,2.37-2.95,8.63,1.23,9.8,4.76,1.23,9.32-1.67,12.73-4.71V57.47C203.4,58.69,198.26,59.57,194.22,62.6Z"/><path class="cls-1" d="M222.68,46.7c4.35-4,11.4-4.26,16.36-1.23a11.71,11.71,0,0,1,6.48-2.77v3.22a14.2,14.2,0,0,0-5,1.28c3,4.2,3,10.63-.68,14.41-3.64,3.33-9.1,3.74-13.65,2.38-2.48-.53-4.87,3.88-1.75,4.73,5.86,1.54,12.48-.4,17.95,2.79,4.06,2.27,4.32,8.75.62,11.49-3.41,2.56-7.89,2.82-12,2.84-3.68-.11-7.69-.38-10.75-2.67a6.13,6.13,0,0,1-.85-8.63,5.22,5.22,0,0,1,.39-.43A13.52,13.52,0,0,1,223.56,72c-1.56-.54-3.57-1.09-4-3-.79-3,1.69-5.54,4.3-6.45C218.71,59,218.22,51,222.68,46.7m6.15-.16c-6.36,1.13-7.67,10.86-2.4,14.12a10.31,10.31,0,0,0,9.51.18c3.63-2.06,3.91-7.15,2.52-10.66s-6.16-4.43-9.63-3.64m-2.21,26.54c-2.9.37-5.88,3.06-4.7,6.2,1.7,3.63,6.42,3.68,9.88,3.71,3.36-.18,7.5-.26,9.74-3.2,1.51-2.24,0-5.28-2.47-6a25.63,25.63,0,0,0-12.45-.71Z"/><path class="cls-1" d="M251.75,47.28c4.38-5.24,13.65-5.34,17.91.1,2.72,3.41,3.26,7.93,3.44,12.15H251.41c.19,3.56.74,7.37,3.12,10.2s6.7,3.64,10.18,2.51c2.7-1,4.26-3.57,5.84-5.79,1,.54,1.93,1.06,2.9,1.6-1.87,2.82-4.06,5.81-7.46,6.83-4.36,1.24-9.54,1-13.18-2-3.37-2.75-4.61-7.25-4.85-11.43-.26-4.93.43-10.33,3.79-14.2m3,1.33c-2.14,2.15-3,5.18-3.34,8.11h18.15c-.48-2.69-1-5.57-2.84-7.72a8.15,8.15,0,0,0-11.5-.84c-.17.16-.34.31-.5.48Z"/><path class="cls-1" d="M281.85,44.89c5.56-3.08,13.49-1.61,16.93,4l-2.78,2c-2.36-3.5-6.81-5.76-11-4.17-3.44,1-4.62,6.4-1.37,8.3,4.35,2.57,10,2.35,13.88,5.81,3.59,3.26,3.22,9.75-.81,12.5-6.11,4.35-15.43,2.33-19.51-3.89.86-.61,1.74-1.23,2.6-1.86,2.79,4.51,9,6.81,13.76,4.14,3.12-1.63,3.95-6.52,1-8.73-4.06-2.91-9.58-2.57-13.67-5.47S277.5,47.32,281.85,44.89Z"/><path class="cls-1" d="M100.08,44h7.46l5.19,19.28c1.81-6.42,3.58-12.85,5.36-19.27h7.41c-3.25,10.28-6.45,20.57-9.73,30.83-1.26,3.39-2.6,7-5.33,9.45s-6.83,2.1-10.3,1.88v-6c2.42.07,5.4.67,7.27-1.29,1.32-1.74,2.44-4.06,1.62-6.26C106.07,63,103.05,53.53,100.08,44Z"/><path class="cls-1" d="M131.36,43.94H135v31h-3.59Q131.38,59.45,131.36,43.94Z"/></g></svg>