<svg xmlns="http://www.w3.org/2000/svg" viewBox="0 0 300 120"><title>Sem título-1</title><path d="M93.45,79.81V40.24c.57,0,1.09-.07,1.6-.07h37.16a17.25,17.25,0,0,1,7.51,1.59c6.45,3.07,7.43,12.75,1.86,16.57a6,6,0,0,0-.63.57c2.71,1.52,4.83,3.47,5.63,6.51,1.81,6.85-2.23,13-9.31,14.13a22.31,22.31,0,0,1-3.46.27q-19.14,0-38.27,0Zm11.19-9.87H132a10.4,10.4,0,0,0,1.58-.1,2.41,2.41,0,0,0,2.16-2.17c.4-2.3-.73-3.58-3.35-3.59-8.91,0-17.82,0-26.73,0a8.28,8.28,0,0,0-1,.11Zm0-20v5.78h24.08c.9,0,1.79,0,2.68-.09,1.83-.19,2.48-.87,2.52-2.57,0-2-.47-2.71-2.37-3a11.09,11.09,0,0,0-1.73-.1H104.65Z"/><path d="M53.81,40.16V50h-38c-3.58,0-4.64,1-4.65,4.56,0,3.89,0,7.78,0,11.66,0,2.44,1.19,3.71,3.52,3.71,9.49,0,19,0,28.47,0a6.92,6.92,0,0,0,.74-.09V64.53H16.62V55.66h38V79.81c-2.41,0-4.87,0-7.32,0-1.27,0-2.63.23-3.1-1.73-2.35,2.2-5,1.72-7.65,1.73H12.37C4.81,79.81.09,75.2,0,67.71Q0,60,0,52.27c.07-7.43,4.7-12,12.2-12.1,3.8,0,7.6,0,11.39,0H53.81Z"/><path d="M237.07,79.81c-4.28,0-8.17,0-12,0a2.74,2.74,0,0,1-1.56-1.1c-2.75-3.46-5.44-7-8.19-10.41a2.14,2.14,0,0,0-1.33-.89c-6.06-.06-12.11,0-18.4,0V79.7H184.4V40.26c.47,0,.93-.09,1.38-.09q18.43,0,36.86,0c8.55,0,14.12,5.78,13.74,14.2-.28,6.33-3.85,10.19-9.85,12.38Zm-41.59-22H221c2.83,0,4.1-1.1,4.16-3.55.07-2.88-1.12-4.24-4-4.25C213,50,204.8,50,196.64,50c-.76,0-1.19.16-1.17,1C195.5,53.2,195.48,55.4,195.48,57.81Z"/><path d="M288.71,40.23H300V67.65c0,7.45-4.77,12.16-12.29,12.16-9.12,0-18.24,0-27.36,0-7.18,0-12.46-4.88-12.3-12.16.21-9.08,0-18.16,0-27.37h11.13v25c0,3.66.94,4.61,4.55,4.61h20.87c3.05,0,4.06-1,4.06-4.08V40.23Z"/><path d="M170,79.72h-11V40.27h11Z"/><path d="M68.2,40.23H79.14V79.7H68.2Z"/></svg>