<svg xmlns="http://www.w3.org/2000/svg" viewBox="0 0 300 120"><defs><style>.a{fill:#fff;}</style></defs><title>giphy</title><path class="a" d="M44,35.27H36.63V28H0v64.1H51.28V42.6H44Zm0,22V84.73H7.33V35.27h22V49.93H44Z"/><path class="a" d="M93.77,65.49h12.64V71.9c-2.75,2-7,2.57-9.52,2.57-10.08,0-13.37-7.88-13.37-14.29,0-9.89,5.31-14.65,13.37-14.65a16.32,16.32,0,0,1,11.35,4.4l8.24-8.06c-6.59-6.6-12.63-8.06-19.59-8.06-18.68,0-27.29,13.37-27.29,26.37s7.51,26.19,27.1,26.19c9.71,0,18.32-3.29,21.43-9.7V54.51H93.77Z"/><path class="a" d="M171.79,35.27H147.62V84.91h14.1V71.54h10.07c13.37,0,20-7.88,20-18.13C191.76,43.7,185.16,35.27,171.79,35.27Zm0,24.36H161.72V47.36h10.07c3.85,0,5.87,2.93,5.87,6.23A5.72,5.72,0,0,1,171.79,59.63Z"/><polygon class="a" points="284.07 35.27 273.26 52.31 263.19 35.27 247.25 35.27 247.25 35.82 266.12 65.13 266.12 84.91 280.22 84.91 280.22 65.13 300 35.82 300 35.27 284.07 35.27"/><polygon class="a" points="228.94 54.14 210.99 54.14 210.99 35.27 196.89 35.27 196.89 85.09 210.99 85.09 210.99 66.23 228.94 66.23 228.94 85.09 242.86 85.09 242.86 35.27 228.94 35.27 228.94 54.14"/><rect class="a" x="124.91" y="35.27" width="13.92" height="49.82"/></svg>