<svg id="Camada_1" data-name="Camada 1" xmlns="http://www.w3.org/2000/svg" viewBox="0 0 300 120"><defs><style>.cls-1{fill:#fff;}</style></defs><title>github</title><path class="cls-1" d="M57.3,78.8a72.06,72.06,0,0,0,8.6-2.7c5.5-2.4,8-7,8.8-12.7.8-5.3.3-10.3-3.3-14.7a1.7,1.7,0,0,1-.2-1.4,15,15,0,0,0-.3-8.4c-.3-1-.8-1.4-1.8-1.2-3.1.3-5.6,1.9-8.3,3.3a4.68,4.68,0,0,1-2.6.5,39,39,0,0,0-17,0,3.43,3.43,0,0,1-2.8-.5c-2.5-1.2-5-2.3-7.6-3.3-1.3-.5-2.2.1-2.5,1.5a17.58,17.58,0,0,0-.2,7.9,2.67,2.67,0,0,1-.3,1.8A18.26,18.26,0,0,0,38.6,77.7c1.2.2,2.4.4,3.4.6-.7,1.7-1.3,3.3-1.9,4.9a1.45,1.45,0,0,1-.9.8,8.12,8.12,0,0,1-10.6-3.3,8.22,8.22,0,0,0-4.6-4,17.61,17.61,0,0,0-3.3-.3,1.42,1.42,0,0,0-.2.6L22,78.5c1.4,1.5,3.2,2.9,3.9,4.7,2.2,5.7,7.4,6.9,12.5,6.2.4-.1.8-.1,1.4-.2,0,2.8.1,5.5-.1,8.1-.1,1.1-1.5,1.5-3.1,1a38,38,0,0,1-13.3-7.8A39.69,39.69,0,1,1,79.1,34.2c19,20.7,10.8,54.4-15.5,64.1a3.26,3.26,0,0,1-1.4.4c-1.7.3-2.6-.4-2.6-2.1V86.8C59.7,83.8,59.2,81.1,57.3,78.8Z"/><path class="cls-1" d="M140.9,56.1H125.4a.68.68,0,0,0-.7.7v7.6a.68.68,0,0,0,.7.7h6.1v9.4a17.33,17.33,0,0,1-5.1.5c-4.4,0-10.6-1.6-10.6-15.2s6.4-15.4,12.5-15.4a22.86,22.86,0,0,1,8.9,1.4.75.75,0,0,0,.9-.7l1.7-7.3a.86.86,0,0,0-.3-.6c-.6-.4-4.1-2.4-13.1-2.4-10.4,0-21,4.4-21,25.6s12.2,24.3,22.4,24.3c8.5,0,13.6-3.6,13.6-3.6.2-.1.2-.4.2-.5V56.8A.68.68,0,0,0,140.9,56.1Z"/><path class="cls-1" d="M220.9,37.3a.68.68,0,0,0-.7-.7h-8.7a.68.68,0,0,0-.7.7V54.2H197.2V37.3a.68.68,0,0,0-.7-.7h-8.7a.68.68,0,0,0-.7.7V83a.68.68,0,0,0,.7.7h8.7a.68.68,0,0,0,.7-.7V63.4h13.6V83a.68.68,0,0,0,.7.7h8.8a.68.68,0,0,0,.7-.7V37.3Z"/><path class="cls-1" d="M157.4,43.3a5.68,5.68,0,0,0-5.6-5.7,5.61,5.61,0,0,0-5.6,5.7,5.6,5.6,0,1,0,11.2,0Z"/><path class="cls-1" d="M156.8,73.3V52.2a.68.68,0,0,0-.7-.7h-8.7a.86.86,0,0,0-.8.8V82.5c0,.9.6,1.2,1.3,1.2h7.8c.9,0,1.1-.4,1.1-1.2Z"/><path class="cls-1" d="M254.1,51.6h-8.7a.68.68,0,0,0-.7.7V74.7a9.79,9.79,0,0,1-5.3,1.6c-3.1,0-4-1.4-4-4.5V52.2a.68.68,0,0,0-.7-.7h-8.8a.68.68,0,0,0-.7.7v21c0,9.1,5.1,11.3,12,11.3a20.07,20.07,0,0,0,10.3-3.2,18.14,18.14,0,0,0,.3,1.9.82.82,0,0,0,.6.4H254a.68.68,0,0,0,.7-.7V52.2C254.8,51.9,254.5,51.6,254.1,51.6Z"/><path class="cls-1" d="M277.8,50.5a16.56,16.56,0,0,0-8.3,2.2V37.3a.68.68,0,0,0-.7-.7H260a.68.68,0,0,0-.7.7V83a.68.68,0,0,0,.7.7h6.1a.55.55,0,0,0,.6-.4,9.54,9.54,0,0,0,.4-2.1s3.6,3.4,10.4,3.4c8,0,12.5-4,12.5-18.1S282.7,50.5,277.8,50.5Zm-3.4,25.8a10,10,0,0,1-5-1.5V60.4a12.7,12.7,0,0,1,4.5-1.5c3.1-.3,6.1.7,6.1,8.1C279.9,74.9,278.6,76.4,274.4,76.3Z"/><path class="cls-1" d="M181.9,51.5h-6.6V42.8a.47.47,0,0,0-.5-.5h-8.9a.47.47,0,0,0-.5.5v8.9s-4.5,1.1-4.8,1.2a.75.75,0,0,0-.5.7v5.6a.68.68,0,0,0,.7.7h4.6V73.4c0,10,7,11,11.8,11a17.4,17.4,0,0,0,5.2-.9.67.67,0,0,0,.4-.7V76.6a.68.68,0,0,0-.7-.7c-.4,0-1.4.2-2.4.2-3.2,0-4.3-1.5-4.3-3.4V59.8H182a.68.68,0,0,0,.7-.7v-7A.87.87,0,0,0,181.9,51.5Z"/></svg>