<?xml version="1.0" encoding="utf-8"?>
<!-- Generator: Adobe Illustrator 24.0.2, SVG Export Plug-In . SVG Version: 6.00 Build 0)  -->
<svg version="1.1" id="Camada_1" xmlns="http://www.w3.org/2000/svg" xmlns:xlink="http://www.w3.org/1999/xlink" x="0px" y="0px"
	 viewBox="0 0 300 120" style="enable-background:new 0 0 300 120;" xml:space="preserve">
<path d="M211.1,36.2h-6.4l0,47.9h26v-5.9h-19.6L211.1,36.2"/>
<path d="M255.5,75.7c-2.1,2.2-5,3.4-8,3.4c-4.9,0-6.9-2.4-6.9-5.6c0-4.7,3.3-7,10.3-7c1.5,0,3,0.1,4.5,0.4L255.5,75.7L255.5,75.7z
	 M248.8,46.7c-5,0-9.8,1.7-13.7,4.9l2.3,3.9c2.6-1.5,5.8-3.1,10.5-3.1c5.3,0,7.6,2.7,7.6,7.2v2.3c-1.5-0.2-3-0.3-4.5-0.4
	c-11.3,0-17,3.9-17,12.2c0,7.4,4.5,11.1,11.4,11.1c4.6,0,9.1-2.1,10.6-5.6l1.2,4.7h4.5V59.6C261.7,51.9,258.4,46.7,248.8,46.7
	L248.8,46.7z"/>
<path d="M282.5,79.3c-2.4,0-4.5-0.3-6.1-1V56.1c2.2-1.8,4.9-3.2,8.3-3.2c6.2,0,8.6,4.4,8.6,11.5C293.3,74.6,289.4,79.3,282.5,79.3
	 M285.2,46.7c-3.4,0-6.6,1.4-8.8,3.9v-6.2l0-8.2h-6.3l0,46.7c3.2,1.3,7.5,2,12.1,2c12,0,17.8-7.7,17.8-20.9
	C300,53.6,294.6,46.7,285.2,46.7"/>
<path d="M141.1,41.4c5.7,0,9.4,1.9,11.8,3.8l2.8-4.8c-3.7-3.3-8.8-5.1-14.2-5.1c-13.7,0-23.3,8.3-23.3,25.2
	c0,17.6,10.3,24.5,22.2,24.5c4.9,0,9.7-0.9,14.3-2.8l-0.1-18.8v-5.9h-17.5v5.9h11.2l0.1,14.3c-1.5,0.7-4,1.3-7.5,1.3
	c-9.5,0-15.9-6-15.9-18.6C124.9,47.7,131.5,41.4,141.1,41.4"/>
<path d="M186.4,36.2h-6.3l0,8v27.8c0,7.8,3.4,12.9,12.9,12.9c1.3,0,2.6-0.1,3.9-0.4V79c-1,0.1-1.9,0.2-2.9,0.2
	c-5.3,0-7.6-2.7-7.6-7.2V52.8h10.5v-5.2h-10.5L186.4,36.2L186.4,36.2z"/>
<path d="M164.1,84.1h6.3V47.6h-6.3V84.1"/>
<path d="M164.1,42.6h6.3v-6.3h-6.3V42.6"/>
<path d="M99.6,65.6l-5.2-16.1c0-0.1-0.1-0.3-0.1-0.4L83.7,16.7c-0.6-1.7-2.2-2.9-4-2.8c-1.8,0-3.4,1.2-3.9,2.9l-10,30.8H34.1
	l-10-30.8c-0.5-1.7-2.1-2.9-3.9-2.9h0c-1.8,0-3.4,1.2-4,2.9L5.7,49.1c0,0,0,0.1,0,0.1L0.3,65.6c-0.8,2.5,0.1,5.2,2.2,6.7l46.1,33.5
	c0.8,0.6,2,0.6,2.8,0l0,0l46.1-33.5C99.5,70.7,100.4,68,99.6,65.6z M30.7,52.3l12.8,39.5L12.7,52.3H30.7z M56.4,91.8l12.3-37.9
	l0.5-1.6h18L59.3,88L56.4,91.8z M79.8,19.7l9,27.8H70.7L79.8,19.7z M64.2,52.2l-9,27.5l-5.3,16.4L35.7,52.2H64.2z M20.1,19.7l9,27.8
	H11.1L20.1,19.7z M5.2,68.4c-0.4-0.3-0.6-0.9-0.5-1.4l4-12.2l29,37.2L5.2,68.4z M94.7,68.4L62.1,92.1l0.1-0.1l28.9-37.1l4,12.2
	C95.3,67.5,95.1,68.1,94.7,68.4L94.7,68.4z"/>
</svg>
