<svg id="Layer_1" data-name="Layer 1" xmlns="http://www.w3.org/2000/svg" viewBox="0 0 300 88.96"><defs><style>.cls-1{fill-rule:evenodd;}</style></defs><title>wordmark</title><path d="M130.83,42.44c0-13.71,7.6-22.6,20-22.6,8.34,0,15,3.33,17.79,14.08l-8.9,2.41c-1.85-6.12-4.63-8.53-8.89-8.53s-10.19,2-10.19,14.46,5.93,15.38,10.56,15.38a8.9,8.9,0,0,0,9.08-8h-7.78V42.44h16.86v22h-7.78V58.38h-.19a12,12,0,0,1-11.49,7C136.76,65.42,130.83,55.6,130.83,42.44Z"/><path d="M177.52,20.58H187V64.49h-9.45Z"/><path d="M194.75,21h9.64v7.6h-9.64Zm0,12h9.45v31.5h-9.45Z"/><path d="M214.58,55.6V39.85h-5.37V33h5.19V22.06H224V33h8.15v6.86H224V53.56c0,3.33.93,4.45,4.45,4.45l3.15-.37v6.85l-6.3.56C215.88,64.86,214.58,61.53,214.58,55.6Z"/><path d="M235.52,48.74c0-12.6,8.89-16.49,15.93-16.49a14.53,14.53,0,0,1,13.72,9.64l-8,2.59c-1.3-4.08-3.15-5.37-5.93-5.37s-6.3,3.33-6.3,9.63,1.85,9.64,6.11,9.64,4.82-1.3,6.3-5.56l8,2.78a14.25,14.25,0,0,1-14.27,9.63C243.67,65.23,235.52,61,235.52,48.74Z"/><path d="M270.17,20.58h9.63V37.81a13.55,13.55,0,0,1,10.94-5.56c5.37,0,9.26,2.6,9.26,9.27v23h-9.64v-20c0-2.78-1.11-4.26-3.7-4.26a10.75,10.75,0,0,0-6.86,3.15V64.49h-9.63Z"/><g id="_-logos" data-name="ðŸŽ-logos"><g id="mask-icon-copy"><g id="non-blended-copy"><path class="cls-1" d="M109.24,70.26c2-5.09-2.47-8.45,0-12.52s2-10.27,1.35-10.6c-1.36-.7-15.85,6.51-19,5.93-7.81-1.45-6.37-2.38-16.88-4.76-4.21-1-3.62-.39-4.55-1.09s-1.81-.49-3.62-3.43-22.77-7.45-24.19-7.45c-2.86,0-8.31,7.45-8.31,7.45s-2.1,0-8.35.32-11.82,3.11-19.25,9S.05,64.78.05,64.78,7,67.13,7,68.4.92,71.18.92,71.18c3.91,5,16,9.68,19.12,9.68a39.46,39.46,0,0,0,8.71-.62c.28.63,3.18,6.77,9.1,8,6.24,1.34,9.69.29,9.69.29a10.67,10.67,0,0,0-1.11-5.51A71.44,71.44,0,0,0,64,82.82c16.69-2.53,24.92-6.54,27.61-7.07s18.08,6.83,19,5.11S107.22,75.36,109.24,70.26ZM15.72,66.2a4.71,4.71,0,0,1-1-.11,2.81,2.81,0,0,1-.31-.1,4.57,4.57,0,0,1-.62-.22,3.65,3.65,0,0,1-.34-.18,5.43,5.43,0,0,1-.51-.32L12.62,65a4,4,0,0,1-.43-.4c-.1-.1-.19-.21-.28-.32a4.34,4.34,0,0,1-.35-.49c-.08-.12-.16-.24-.23-.36s-.19-.38-.27-.57-.12-.26-.17-.4-.12-.44-.18-.66-.07-.27-.09-.4,0-.07,0-.11a.29.29,0,0,0,0,.09,6,6,0,0,1-.09-1v0c0-3.26,2.33-5.9,5.2-5.9s5.19,2.64,5.19,5.9S18.59,66.2,15.72,66.2Zm18.59-3.72a28.39,28.39,0,0,1-1,3.91c-.26.8-.53,1.57-.8,2.27-.16.42-.29.73-.36.91a1.12,1.12,0,0,1-1.59.61,1.42,1.42,0,0,1-.54-1.8l.08-.2.24-.6c.25-.65.5-1.35.73-2.1A26,26,0,0,0,32,62a11.52,11.52,0,0,0,.15-2.78,12,12,0,0,0-1.58-4.53,16.7,16.7,0,0,0-1.15-1.82c-.13-.19-.26-.36-.37-.51l-.13-.16a1.48,1.48,0,0,1,.06-1.9,1.08,1.08,0,0,1,1.67.06c.13.16.35.44.62.82a22.55,22.55,0,0,1,1.31,2.08,14.7,14.7,0,0,1,1.92,5.66A13.85,13.85,0,0,1,34.31,62.48Zm57.83.5a1.14,1.14,0,0,1-1.54.75l-3.13-1.41c-9.08-4.08-14.8-6.18-21.81-7.6a133.11,133.11,0,0,0-14.45-2.11l-4-.25-1.78-.1L39.89,52l-.59,0c.17.45.34.92.5,1.4a28.93,28.93,0,0,1,1.07,4.1,13.17,13.17,0,0,1,.21,1.48,22.59,22.59,0,0,1-.75,6.57c-.2.93-.44,1.9-.71,2.89-.32,1.22-.66,2.42-1,3.54-.12.4-.23.76-.33,1.07l-.1.29,0,.11a1.15,1.15,0,0,1-1.53.79,1.42,1.42,0,0,1-.69-1.74l0-.09c0-.08.06-.17.09-.28.1-.3.21-.65.32-1,.34-1.09.67-2.26,1-3.43.26-1,.49-1.89.68-2.77a20.85,20.85,0,0,0,.7-5.62c0-.4-.1-.81-.18-1.24a26.63,26.63,0,0,0-1-3.69c-.27-.81-.56-1.58-.85-2.29-.1-.25-.19-.47-.28-.66s-.08-.19-.1-.22a1.35,1.35,0,0,1,1.11-2h.18l.52,0,1.84.09,5.58.3,1.78.1c1.61.1,3,.18,4,.26a131.89,131.89,0,0,1,14.71,2.14c7.2,1.46,13.05,3.61,22.27,7.75l3.13,1.41A1.42,1.42,0,0,1,92.14,63Z"/><path class="cls-1" d="M7,32.06C7,33.33.92,34.84.92,34.84c3.91,5,16,9.68,19.12,9.68h2.55a24.55,24.55,0,0,1,3.1-.4L28.27,44l.48-.09,0,.06c3.84-.17,5.26-.17,5.26-.17s5.45-7.45,8.31-7.45c1.42,0,22.37,4.51,24.19,7.45a10.89,10.89,0,0,0,1.52,2c14-2.51,21.07-5.91,23.53-6.39,2.7-.54,18.08,6.83,19,5.11s-3.38-5.5-1.36-10.59-2.47-8.46,0-12.53,2-10.27,1.35-10.6c-1.36-.7-15.85,6.52-19,5.93-7.81-1.44-6.37-2.38-16.88-4.76-4.21-1-3.62-.39-4.55-1.09s-1.81-.49-3.62-3.43S43.77,0,42.35,0C39.49,0,34,7.45,34,7.45s-2.1,0-8.35.32-11.82,3.11-19.25,9S.05,28.44.05,28.44,7,30.79,7,32.06Zm28.94,4L36,36c0-.08.06-.17.09-.28.1-.3.21-.65.32-1,.34-1.09.67-2.25,1-3.43.26-1,.49-1.89.68-2.77a20.85,20.85,0,0,0,.7-5.62c0-.39-.1-.81-.18-1.24a26.63,26.63,0,0,0-1-3.69c-.27-.81-.56-1.58-.85-2.29-.1-.25-.19-.47-.28-.66s-.08-.19-.1-.22a1.35,1.35,0,0,1,1.11-2h.18l.52,0,1.84.09,5.58.3,1.78.11c1.61.09,3,.18,4,.25a129.73,129.73,0,0,1,14.71,2.15c7.2,1.45,13.05,3.6,22.27,7.74l3.13,1.41a1.42,1.42,0,0,1,.67,1.75,1.14,1.14,0,0,1-1.54.75L87.47,26c-9.08-4.08-14.8-6.18-21.81-7.59a128.36,128.36,0,0,0-14.45-2.11c-1-.08-2.37-.16-4-.26l-1.78-.1-5.57-.3-.59,0c.17.45.34.92.5,1.4a28.93,28.93,0,0,1,1.07,4.1,13.5,13.5,0,0,1,.21,1.48,22.56,22.56,0,0,1-.75,6.57c-.2.93-.44,1.9-.71,2.9-.32,1.21-.66,2.41-1,3.53-.12.4-.23.76-.33,1.07l-.1.3,0,.1a1.15,1.15,0,0,1-1.53.79A1.41,1.41,0,0,1,35.93,36.09ZM29,14a1.08,1.08,0,0,1,1.67.06c.13.16.35.44.62.82a22.55,22.55,0,0,1,1.31,2.08,14.76,14.76,0,0,1,1.92,5.66,13.83,13.83,0,0,1-.17,3.57,28,28,0,0,1-1,3.91c-.26.8-.53,1.57-.8,2.27-.16.42-.29.74-.36.91a1.13,1.13,0,0,1-1.59.62A1.44,1.44,0,0,1,30.07,32l.08-.2.24-.6c.25-.65.5-1.35.73-2.09a26.15,26.15,0,0,0,.86-3.5,11.52,11.52,0,0,0,.15-2.78,12.13,12.13,0,0,0-1.58-4.53,17.72,17.72,0,0,0-1.15-1.82c-.13-.19-.26-.36-.37-.51l-.13-.16A1.48,1.48,0,0,1,29,14ZM15.72,18.08c2.87,0,5.19,2.64,5.19,5.89s-2.32,5.9-5.19,5.9a4.72,4.72,0,0,1-1-.12,2.81,2.81,0,0,1-.31-.1,3.52,3.52,0,0,1-.62-.22,3.65,3.65,0,0,1-.34-.18c-.17-.1-.35-.2-.51-.31l-.32-.26a5.51,5.51,0,0,1-.43-.41c-.1-.1-.19-.21-.28-.32a4.21,4.21,0,0,1-.35-.48l-.23-.37a5.94,5.94,0,0,1-.27-.57c-.06-.13-.12-.26-.17-.4s-.12-.44-.18-.66-.07-.26-.09-.4,0-.07,0-.1a.37.37,0,0,0,0,.09,6.12,6.12,0,0,1-.09-1v0C10.52,20.72,12.85,18.08,15.72,18.08Z"/></g></g></g></svg>