<svg xmlns="http://www.w3.org/2000/svg" viewBox="0 0 300 120"><defs><style>.a{fill:#fff;}</style></defs><title>google-maps</title><path class="a" d="M184.8,74.72V38.43h4.66l12.62,22.1h.21l12.61-22.1h4.67V74.72H214.9V53.18l.21-6.08h-.21L203.55,67h-2.73L189.46,47.1h-.2l.2,6.08V74.72Z"/><path class="a" d="M233.91,75.53a9.8,9.8,0,0,1-6.61-2.28,7.56,7.56,0,0,1-2.66-6,7.47,7.47,0,0,1,3.14-6.36,12.75,12.75,0,0,1,7.76-2.31,13.42,13.42,0,0,1,6.74,1.52v-.71A5.55,5.55,0,0,0,240.4,55a6.74,6.74,0,0,0-4.61-1.65,7,7,0,0,0-3.67,1,5,5,0,0,0-2.26,2.63l-4.26-1.82A9.65,9.65,0,0,1,229,51a10.86,10.86,0,0,1,6.69-1.91,11.45,11.45,0,0,1,7.9,2.79,10,10,0,0,1,3.15,7.86v15h-4.46V71.27h-.21A9.14,9.14,0,0,1,233.91,75.53Zm.76-4.26a7.57,7.57,0,0,0,5.25-2.15A6.71,6.71,0,0,0,242.28,64q-2-1.64-5.93-1.63a7.7,7.7,0,0,0-5.12,1.47,4.42,4.42,0,0,0-1.73,3.45,3.32,3.32,0,0,0,1.58,2.89A6.22,6.22,0,0,0,234.67,71.27Z"/><path class="a" d="M264.92,75.53a10.59,10.59,0,0,1-5.1-1.22,8.64,8.64,0,0,1-3.37-3h-.2l.2,3.45v11h-4.66V49.89h4.46v3.44h.2a8.72,8.72,0,0,1,3.37-3,10.59,10.59,0,0,1,5.1-1.22,10.91,10.91,0,0,1,8.31,3.81,13.38,13.38,0,0,1,3.49,9.42,13.42,13.42,0,0,1-3.49,9.43A10.93,10.93,0,0,1,264.92,75.53Zm-.76-4.26a7.4,7.4,0,0,0,5.57-2.46,9.08,9.08,0,0,0,2.33-6.51,9.09,9.09,0,0,0-2.33-6.51,7.59,7.59,0,0,0-11.17,0,9.09,9.09,0,0,0-2.31,6.53,9.1,9.1,0,0,0,2.31,6.54A7.42,7.42,0,0,0,264.16,71.27Z"/><path class="a" d="M290.22,75.53a11.18,11.18,0,0,1-6.87-2,12,12,0,0,1-4-5.06l4.16-1.73c1.32,3.11,3.56,4.66,6.74,4.66a6.16,6.16,0,0,0,3.57-1,3,3,0,0,0,1.4-2.53c0-1.63-1.14-2.72-3.4-3.3l-5-1.21a12,12,0,0,1-4.51-2.31,5.56,5.56,0,0,1-2.13-4.59,6.28,6.28,0,0,1,2.92-5.34A11.7,11.7,0,0,1,290,49.07a11.53,11.53,0,0,1,5.88,1.5,8.41,8.41,0,0,1,3.69,4.28l-4,1.67q-1.37-3.29-5.68-3.29a6.64,6.64,0,0,0-3.49.86A2.62,2.62,0,0,0,285,56.42c0,1.42,1.1,2.39,3.29,2.89l4.92,1.17a9.34,9.34,0,0,1,5.17,2.78A6.77,6.77,0,0,1,300,67.73a6.89,6.89,0,0,1-2.74,5.57A10.76,10.76,0,0,1,290.22,75.53Z"/><path class="a" d="M41.51,51.87H21.81v5.85h14c-.69,8.19-7.51,11.69-14,11.69a15.62,15.62,0,0,1,0-31.23,15.14,15.14,0,0,1,10.53,4.23l4.09-4.24a20.79,20.79,0,0,0-14.83-5.85A21.83,21.83,0,0,0,0,53.74,21.76,21.76,0,0,0,22,75.27c11.5,0,19.91-7.88,19.91-19.52a17.86,17.86,0,0,0-.35-3.88Z"/><path class="a" d="M57.64,47.64A13.8,13.8,0,1,0,71.5,61.49C71.5,52.35,64.29,47.64,57.64,47.64Zm.08,5.42c4,0,7.75,3.21,7.75,8.39s-3.75,8.38-7.76,8.38c-4.41,0-7.88-3.53-7.88-8.42S53.26,53.06,57.72,53.06Z"/><path class="a" d="M87.82,47.64a13.8,13.8,0,1,0,13.86,13.85C101.68,52.35,94.47,47.64,87.82,47.64Zm.09,5.42c4,0,7.74,3.21,7.74,8.39s-3.75,8.38-7.76,8.38c-4.41,0-7.88-3.53-7.88-8.42S83.44,53.06,87.91,53.06Z"/><path class="a" d="M117.42,47.65c-7.41,0-13.25,6.5-13.25,13.8A13.61,13.61,0,0,0,117.3,75.26a9.14,9.14,0,0,0,7.57-3.35v2.72c0,4.76-2.89,7.62-7.26,7.62a7.66,7.66,0,0,1-7.07-4.92l-5.3,2.22c1.88,4,5.67,8.13,12.41,8.13,7.38,0,13-4.65,13-14.39V48.48h-5.78v2.34a9.76,9.76,0,0,0-7.45-3.17Zm.54,5.41c3.64,0,7.37,3.11,7.37,8.41s-3.72,8.37-7.45,8.37c-3.95,0-7.63-3.21-7.63-8.31C110.25,56.23,114.07,53.06,118,53.06Z"/><path class="a" d="M156.39,47.62c-7,0-12.88,5.57-12.88,13.78a13.35,13.35,0,0,0,13.55,13.86,14,14,0,0,0,11.56-6.06L163.85,66a7.73,7.73,0,0,1-6.76,3.8,7.09,7.09,0,0,1-6.77-4.18L168.83,58l-1-2.25a12.5,12.5,0,0,0-11.48-8.09Zm.24,5.31a5.5,5.5,0,0,1,5.11,3L149.38,61c-.54-4,3.25-8.11,7.25-8.11Z"/><path class="a" d="M134.69,74.44h6.08V33.75h-6.08Z"/></svg>