<svg id="Camada_1" data-name="Camada 1" xmlns="http://www.w3.org/2000/svg" viewBox="0 0 300 120"><defs><style>.cls-1{fill:#fff;}</style></defs><title>google</title><path class="cls-1" d="M128.38,62.59a24.76,24.76,0,0,1-49.51,0c0-14.31,11.11-24.68,24.76-24.68S128.38,48.28,128.38,62.59Zm-10.84,0c0-8.88-6.44-15-13.92-15s-13.92,6.07-13.92,15,6.44,15,13.92,15,13.93-6.22,13.93-15Z"/><path class="cls-1" d="M181.79,62.59a24.76,24.76,0,0,1-49.51,0c0-14.3,11.11-24.68,24.76-24.68S181.79,48.28,181.79,62.59Zm-10.84,0c0-8.88-6.44-15-13.92-15s-13.92,6.07-13.92,15,6.44,15,13.92,15,14-6.22,14-15Z"/><path class="cls-1" d="M233,39.41v44.3c0,18.22-10.75,25.67-23.45,25.67a23.5,23.5,0,0,1-21.87-14.54l9.43-3.93c1.68,4,5.8,8.76,12.43,8.76,8.13,0,13.17-5,13.17-14.46V81.65h-.38a16.8,16.8,0,0,1-13,5.61c-12.34,0-23.64-10.75-23.64-24.58S197,37.92,209.3,37.92a17.1,17.1,0,0,1,13,5.52h.38v-4H233Zm-9.52,23.28c0-8.69-5.8-15-13.17-15s-13.74,6.35-13.74,15,6.26,14.86,13.74,14.86,13.13-6.27,13.13-14.87Z"/><path class="cls-1" d="M249.93,13.44V85.76H239.36V13.44Z"/><path class="cls-1" d="M291.12,70.71l8.41,5.61A24.56,24.56,0,0,1,279,87.26c-14,0-24.49-10.84-24.49-24.68,0-14.68,10.56-24.68,23.28-24.68s19.07,10.19,21.12,15.7L300,56.4,267,70.07c2.53,5,6.45,7.48,12,7.48s9.35-2.71,12.15-6.83Zm-25.89-8.88,22-9.16c-1.21-3.08-4.86-5.23-9.16-5.23a13.54,13.54,0,0,0-12.9,14.15q0,.13,0,.25Z"/><path class="cls-1" d="M38.86,56.17V45.7H74.14a34.69,34.69,0,0,1,.53,6.3c0,7.85-2.15,17.57-9.07,24.49-6.73,7-15.33,10.75-26.72,10.75C17.76,87.26,0,70.06,0,48.94S17.76,10.62,38.87,10.62A36.51,36.51,0,0,1,65.13,21.18l-7.39,7.39a26.69,26.69,0,0,0-18.88-7.48,27.49,27.49,0,0,0-27.48,27.5q0,.18,0,.35A27.49,27.49,0,0,0,38.51,76.79h.35c10,0,15.7-4,19.35-7.67,3-3,4.91-7.19,5.67-13Z"/></svg>