<?xml version="1.0" encoding="utf-8"?>
<!-- Generator: Adobe Illustrator 23.0.6, SVG Export Plug-In . SVG Version: 6.00 Build 0)  -->
<svg version="1.1" id="Camada_1" xmlns="http://www.w3.org/2000/svg" xmlns:xlink="http://www.w3.org/1999/xlink" x="0px" y="0px"
	 viewBox="0 0 300 120" style="enable-background:new 0 0 300 120;" xml:space="preserve">
<title>scholar_logo_64dp</title>
<path d="M114.5,72.2c1.8,0,3.5,0,5.3,0v-34h-5.3C114.5,49.5,114.5,60.9,114.5,72.2z"/>
<path d="M176.1,59.8c-0.8-1.5-2-2.8-3.4-3.6c-2.9-1.9-6.3-2.5-9.4-4.1c-1.6-0.8-3.1-2.3-3.1-4.2c0.2-1.6,1.2-3.1,2.7-3.8
	c1.5-1,3.3-0.8,5-0.7c2.1,0.5,3.8,2,4.6,4c1-0.5,2.1-1,3.2-1.3c-0.1-0.6,0-1.2-0.4-1.7c-1.5-2.4-3.9-4.1-6.7-4.6
	c-1.7-0.1-3.5-0.1-5.2,0c-3.9,0.8-7.5,4.3-7,8.5c-0.2,2.1,0.7,4.1,2.4,5.5c3.5,3.3,8.7,3.2,12.4,6.1c1.6,1.4,2.2,3.6,1.5,5.6
	c-0.8,2.6-3.7,3.7-6.1,4c-3.7-0.2-6.9-2.8-7.8-6.4c-1.2,0.5-2.4,1-3.6,1.4c1,4.6,5.3,7.9,9.8,8.6c3.4,0.4,6.9-0.7,9.5-2.9
	c1.4-1.4,2.2-3.2,2.2-5.2C176.7,63.3,177.1,61.4,176.1,59.8z"/>
<path d="M106,50.1c0,0.7,0,1.3,0,1.9c-1.7-1.8-4.1-2.7-6.6-2.6c-5.6,0.1-10.4,5-10.9,10.4C87.9,65.6,91.5,71,97,72.6
	c3.2,1,6.7,0.1,9-2.4c-0.1,2.1,0,4.4-1.2,6.2c-1.6,2.3-5,2.9-7.5,1.8c-1.6-0.8-2.8-2-3.5-3.6c-1.5,0.6-3,1.2-4.5,1.9
	c0.6,1.5,1.6,2.8,2.7,3.9c4.3,3.9,10.8,4.1,15.3,0.5c2.7-2.3,3.7-6,3.6-9.4c0-7.1,0-14.2,0-21.3C109.2,50.1,107.6,50.1,106,50.1z
	 M104.7,66c-1.7,2-4.4,2.8-6.9,1.8c-2.8-1.2-4.5-4.1-4.2-7.2c0.1-3,2.2-5.7,5.2-6.4c2.2-0.5,4.4,0.3,5.8,2
	C106.8,59.1,106.8,63.1,104.7,66z"/>
<path d="M57.4,52.4c-3-2.6-7.1-3.6-10.9-2.6c-3.3,0.8-6,3-7.5,6c-2.6,5.1-1,12,3.8,15.2c5.4,3.7,12.7,2.3,16.4-3.1
	C62.6,63,61.8,56.4,57.4,52.4L57.4,52.4z M51.8,67.8c-3.5,1.6-7.9-1-8.7-4.7c-1-3.6,1.1-8,5-8.8c2.9-0.6,5.8,0.8,7.1,3.4
	C57.1,61.3,55.7,66.3,51.8,67.8z"/>
<path d="M18.6,53.2c0,1.7,0,3.3,0,5c3.9,0,7.8,0,11.6,0c-0.2,2.5-1.4,4.9-3.2,6.6c-5.2,4.8-14.4,3.9-18.7-1.7
	c-4.3-5.5-3.7-13.3,1.3-18c5-4.6,12.8-4.5,17.8,0.1c1.2-1.2,2.4-2.3,3.6-3.6c-3.2-3.1-7.5-4.9-12-4.9c-5.1-0.2-10,1.8-13.6,5.4
	C1.9,45.3,0,49.9,0,54.8c0,5.9,2.9,11.4,7.8,14.8c4.1,2.8,9.1,4,14,3.1c4.4-0.6,8.3-3.1,10.9-6.7c2.4-3.8,3.3-8.4,2.6-12.8
	L18.6,53.2z"/>
<path d="M82.8,52.5c-3-2.6-7.1-3.6-11-2.6c-3.1,0.8-5.8,2.9-7.3,5.8c-2.6,4.9-1.4,11.7,3.2,15c4.7,3.5,11.3,3,15.5-1.1
	C87.8,65,87.6,56.7,82.8,52.5z M77.4,67.7c-3.1,1.4-6.7,0.1-8.3-2.9c-2.2-3.8-0.3-9.6,4.3-10.5c2.8-0.6,5.6,0.7,7,3.2
	C82.4,60.9,81.2,66,77.4,67.7z"/>
<path d="M192,53.4c2.5,0.2,4.6,1.7,5.6,4c1.2-0.3,2.3-0.9,3.5-1.3c-1.6-4.5-6.9-7.1-11.5-6.1c-3.3,0.5-6.2,2.6-7.8,5.6
	c-2.5,4.8-1.8,11.3,2.4,14.9c3.5,3,8.4,3.6,12.4,1.5c2-1.1,4-2.8,4.4-5.1c-1.1-0.4-2.2-0.9-3.3-1.4c-1.3,3.8-6.4,5.3-9.8,3.2
	c-2.7-1.7-4.1-4.8-3.7-8C184.4,56.8,187.9,53,192,53.4z"/>
<path d="M139.9,51.8c-4.1-3.6-10.9-2.9-14.4,1c-4.6,4.8-4.1,13.6,1.3,17.7c5.1,4.1,13.6,2.8,17-2.9c-1.4-0.8-2.7-1.7-4-2.6
	c-0.9,1.4-2.2,2.4-3.8,3c-3,1-6.2-0.4-7.6-3.2c5.2-2.2,10.5-4.2,15.7-6.6C143.3,55.8,141.8,53.6,139.9,51.8z M137.3,56.7
	c-3.3,1.3-6.6,2.8-9.9,4.1c0.1-1.4,0.5-2.8,1.2-4c1.5-2.2,4.2-3.2,6.8-2.4c1,0.3,1.9,1,2.3,2L137.3,56.7z"/>
<path d="M237.7,50c-4.6,0.7-8.3,4.2-9.1,8.8c-0.1,1.3,0,2.6-0.1,3.9c0,2.7,1.1,5.3,3,7.2c3.8,4.2,11,4.5,15.3,0.9
	c5.3-4.3,5.5-13.4,0.4-18C244.6,50.4,241.1,49.4,237.7,50z M246.5,64.4c-0.8,2.4-2.7,4.3-5.1,5c-1.2,0.2-2.4,0.2-3.6,0.1
	c-2-0.6-3.6-2-4.6-3.8c-1.8-3.3-1.3-7.3,1.1-10c1.4-1.5,3.4-2.4,5.5-2.3c3.5,0.3,6.4,3,6.9,6.5C246.9,61.4,246.8,62.9,246.5,64.4z"
	/>
<path d="M258.3,40.3c-1.2,0.1-2.4,0.1-3.6,0c-0.1,10.7,0,21.5-0.1,32.2c1.3-0.1,2.5-0.1,3.8,0C258.3,61.8,258.4,51,258.3,40.3z"/>
<path d="M292.9,51.6c-1.1,0.7-1.6,1.9-2.5,2.8c-0.1-1.3,0-2.6,0-3.8c-1.2,0-2.5,0-3.8,0c0,7.3,0.1,14.6,0,21.9c1.3,0,2.7,0,4,0
	c0-4.3-0.1-8.6,0-12.9c0-3.7,4.4-6.9,7.8-5.3c0.6-1.2,1.1-2.5,1.5-3.9C297.6,49.7,294.9,50.1,292.9,51.6z"/>
<path d="M224.3,57.5c-0.1-2-0.8-3.8-2.1-5.3c-2.3-2.2-5.6-3-8.6-1.9c-1.9,0.7-3.5,1.9-4.7,3.5c-0.1-4.5,0-9,0-13.4
	c-1.2,0-2.5,0-3.7,0c0,10.7,0.1,21.4,0,32.2c1.3-0.1,2.5-0.1,3.8,0c-0.1-3.7,0-7.3,0-11c0-2.2,0.6-4.3,1.9-6.1
	c2.1-2.4,5.7-2.7,8.1-0.6c0,0,0,0,0,0c1.2,1.3,1.8,3,1.7,4.7c0,4.3,0,8.7,0,13c1.3-0.1,2.5-0.1,3.8,0
	C224.2,67.5,224.3,62.5,224.3,57.5z"/>
<path d="M281.7,58.3c0-2.4-1.1-4.8-3-6.3c-2.6-2-5.9-2.7-9.1-1.9c-2.8,0.5-5.2,2.4-6.4,5c1.2,0.5,2.4,1.3,3.8,1.2
	c1.6-3.2,6.3-3.7,9-1.6c1.5,1.2,2.3,3.2,2,5.1c-2.5-1.6-5.6-1.4-8.5-1.3c-2,0.3-3.8,1.2-5.2,2.5c-1.1,0.9-1.8,2.2-1.8,3.6
	c0,1.6-0.3,3.3,0.6,4.8c2.5,4.1,8.7,4.9,12.5,2.2c0.9-0.6,1.4-1.7,2.4-2.2c0,1,0,2.1,0,3.1c1.3,0,2.5,0,3.7,0
	C281.6,67.8,281.7,63.1,281.7,58.3z M269.2,69.3c-1.3-0.5-2.8-1.5-2.7-3.1c-0.2-1.7,0.8-3.3,2.3-4c3-1.4,6.5-1.1,9.2,0.7
	c-0.2,3.9-3.5,6.8-7.3,6.7C270.2,69.6,269.7,69.5,269.2,69.3L269.2,69.3z"/>
</svg>
