<svg xmlns="http://www.w3.org/2000/svg" viewBox="0 0 300 120"><defs><style>.a{fill:#fff;}</style></defs><title>groupon</title><path class="a" d="M48,60.1c0,5.3-1.2,9.8-4.1,13.7A24.62,24.62,0,0,1,24,84.4,23,23,0,0,1,6.7,77,24.79,24.79,0,0,1,0,59.4,22.55,22.55,0,0,1,7.2,42.6a23.24,23.24,0,0,1,17-7c10.1,0,18.7,6.2,22.6,16.1h-13c-2.9-3.1-6-4.6-9.6-4.6A12.06,12.06,0,0,0,12,59.3c0,7.4,5.8,13.2,12.2,13.2a12.22,12.22,0,0,0,10.6-6.2H21.4V57H48A16,16,0,0,0,48,60.1Zm2.9,23.3v-47H66.5c4.8,0,8.9.2,11.8,2.6,4.3,2.9,6.2,7.2,6.2,13.2,0,7.7-3.8,13.2-10.6,15.1L85.4,83.4H71.3L62.4,68.3V83.4ZM64.6,58.2c5.8,0,8.4-1.4,8.4-5.8,0-3.8-2.4-5.5-7.4-5.5H62.5V58.2ZM93.4,42.6a24.27,24.27,0,0,1,33.8.3,23,23,0,0,1,7.2,16.8A25,25,0,0,1,127.7,77a24.62,24.62,0,0,1-34.8,0,25.31,25.31,0,0,1-6.7-17.3A24.29,24.29,0,0,1,93.4,42.6Zm17,30c6.7,0,12.2-5.3,12.2-13a12.25,12.25,0,0,0-24.5,0C98.2,66.8,103.9,72.6,110.4,72.6Zm38.6-36V65.4c0,5.3,1.7,7.9,5.5,7.9,4.1,0,6-2.6,6-7.9V36.6H172V65.9c0,11.5-7,18.2-17.5,18.2s-17-6.5-17-18.2V36.4Zm26.2,46.8v-47h15.6c4.8,0,8.9.2,11.8,2.6,4.3,2.9,6.2,7.2,6.2,13.2s-2.6,11-7.4,13.9c-2.9,1.7-6.7,2.2-11.5,2.2h-3.4V83.4Zm13.9-25.2c5.8,0,8.4-1.4,8.4-5.8,0-3.8-2.4-5.5-7.7-5.5h-3.1V58.2Zm28.6-15.6c4.3-4.6,10.3-6.7,17-6.7a23.62,23.62,0,0,1,16.8,7,23,23,0,0,1,7.2,16.8A25,25,0,0,1,252,77a24.39,24.39,0,0,1-34.8.2,25.44,25.44,0,0,1-6.7-17.5A23.48,23.48,0,0,1,217.7,42.6Zm17,30c6.7,0,12.2-5.3,12.2-13a12.25,12.25,0,0,0-24.5,0A12.71,12.71,0,0,0,234.7,72.6Zm26.2,10.8v-47h10.3l17.3,25.9V36.4H300V83.2H289.9L272.4,57.3V83.5C272.4,83.4,260.9,83.4,260.9,83.4Z"/></svg>