<?xml version="1.0" encoding="utf-8"?>
<!-- Generator: Adobe Illustrator 23.0.6, SVG Export Plug-In . SVG Version: 6.00 Build 0)  -->
<svg version="1.1" id="Camada_1" xmlns="http://www.w3.org/2000/svg" xmlns:xlink="http://www.w3.org/1999/xlink" x="0px" y="0px"
	 viewBox="0 0 300 120" style="enable-background:new 0 0 300 120;" xml:space="preserve">
<title>here</title>
<path d="M120.3,101.9L102.2,120l-18.1-18.1H120.3z"/>
<path d="M146.8,60.8c-3.8-4.4-3.6-6.9-1.3-9.2c2.8-2.8,5.8-1.7,9.1,1.5L146.8,60.8z M185.6,11.4c2.8-2.8,5.8-1.6,9.1,1.5l-7.7,7.7
	C183,16.1,183.2,13.8,185.6,11.4L185.6,11.4z M209,19.3c-3.5,5.3-9.7,13.8-16.1,7.4l16.3-16.3c-1.5-1.5-2.5-2.8-3.5-3.6
	C197-2,187.1-2.1,179.4,5.6c-5.1,5.1-6.6,11-5.1,16.6l-5.1-5.8c-1.3,0.7-7.6,6.3-3,14.5l-5.8-4.8l-7.7,7.7l10.5,10.5
	c-8.1-6.4-16.8-5.8-23.7,1.2c-7.4,7.4-6.9,16.5-1.3,23.9l-1.1-1.2c-7.4-7.4-15.5-4.8-19.4-0.8c-3.1,3.1-4.9,7.2-4.1,10.2l-16-16
	L89,70.3l31.6,31.6h17l-11.4-11.3c-5.9-6.1-6.1-9.2-3.1-12.2c2.8-2.8,6.1-1,11.8,4.6l11.2,11.2l8.4-8.4l-10.7-10.7
	c7.7,5.8,17,6.1,25.2-2.1l0.2-0.2l0,0c2.9-2.5,5.2-5.7,6.6-9.2l-6.4-4.3c-3.5,5.3-9.6,13.8-16,7.4l16.3-16.3l10.2,10.2l8.9-8.9
	L176.1,39c-5.9-5.9-2.5-11.5,0-13.7c1.2,2.6,2.9,4.9,4.9,6.9c8.2,8.2,18.8,9.9,28.1,0.7l0.2-0.2l0,0c2.9-2.5,5.2-5.7,6.6-9.2
	L209,19.3z"/>
</svg>
