<svg xmlns="http://www.w3.org/2000/svg" viewBox="0 0 300 120"><defs><style>.a{fill:#fff;}</style></defs><title>here</title><path class="a" d="M120.29,101.89,102.19,120,84.08,101.89Z"/><path class="a" d="M146.79,60.75c-3.79-4.44-3.62-6.91-1.32-9.22,2.8-2.8,5.76-1.65,9.05,1.48Zm38.84-49.38c2.8-2.8,5.76-1.65,9.05,1.48L187,20.58C183,16.14,183.17,13.84,185.63,11.37ZM209,19.27c-3.46,5.27-9.71,13.83-16.13,7.41l16.29-16.29c-1.48-1.48-2.47-2.8-3.46-3.62C197-2,187.12-2.13,179.38,5.61c-5.1,5.1-6.58,11-5.1,16.62l-5.1-5.76c-1.32.66-7.57,6.25-3,14.48l-5.76-4.77-7.74,7.74,10.53,10.53c-8.07-6.42-16.79-5.76-23.7,1.15-7.41,7.41-6.91,16.46-1.32,23.87l-1.15-1.15c-7.41-7.41-15.47-4.77-19.42-.82-3.13,3.13-4.94,7.24-4.11,10.2l-16-16L89,70.29l31.6,31.6h17L126.22,90.54c-5.93-6.09-6.09-9.22-3.13-12.18,2.8-2.8,6.09-1,11.85,4.61l11.19,11.19,8.39-8.39-10.7-10.7c7.74,5.76,17,6.09,25.18-2.14l.16-.16h0a23.7,23.7,0,0,0,6.58-9.22l-6.42-4.28c-3.46,5.27-9.55,13.83-16,7.41l16.29-16.29,10.2,10.2,8.89-8.89L176.09,39c-5.93-5.93-2.47-11.52,0-13.66A24.35,24.35,0,0,0,181,32.27c8.23,8.23,18.76,9.88,28.15.66l.16-.16h0a23.7,23.7,0,0,0,6.58-9.22Z"/></svg>