<svg id="Layer_1" data-name="Layer 1" xmlns="http://www.w3.org/2000/svg" viewBox="0 0 300 120"><defs><style>.cls-1{fill:#fff;}</style></defs><title>hulu</title><g id="_Grupo_" data-name="&lt;Grupo&gt;"><path id="_Caminho_composto_" data-name="&lt;Caminho composto&gt;" class="cls-1" d="M183.76,109.41h23.82V10.59H183.76Zm-42-28.12a6.38,6.38,0,0,1-6.38,6.39H121.52a6.37,6.37,0,0,1-6.38-6.39V41.42H91.31V83.29c0,17.1,11,26.12,27.13,26.12h23.33c14.9,0,23.83-10.73,23.83-26.12V41.42H141.77Zm134.4-39.87V81.29a6.37,6.37,0,0,1-6.38,6.39H255.93a6.38,6.38,0,0,1-6.39-6.39V41.42H225.71V83.29c0,17.1,10.95,26.12,27.13,26.12h23.33c14.9,0,23.83-10.73,23.83-26.12V41.42Zm-229,0H31.87c-5.35,0-8,1.45-8,1.45V10.59H0v98.82H23.82V69.53a6.38,6.38,0,0,1,6.38-6.38H44.07a6.37,6.37,0,0,1,6.38,6.38v39.88H74.28v-43C74.28,48.38,62.23,41.42,47.15,41.42Z"/></g></svg>