<svg id="Layer_1" data-name="Layer 1" xmlns="http://www.w3.org/2000/svg" viewBox="0 0 300 120"><defs><style>.cls-1{fill:#fff;}</style></defs><title>hype-machine</title><path class="cls-1" d="M100.89,57.6V72.22H95.75V46.43c1.61,0,3.22,0,4.83,0,.2,0,.46.37.58.63,2,4.15,4,8.31,5.92,12.47l.46.91c.2-.37.35-.62.48-.89,2-4.15,4.11-8.3,6.14-12.46a1,1,0,0,1,1.1-.71c1.32.06,2.65,0,4,0v25.8h-5.05V57.6l-.24-.06c-.14.25-.29.51-.42.77-1.3,2.69-2.61,5.37-3.88,8.06-.24.52-.57.63-1.12.72-1.91.3-3-.43-3.71-2.23-.94-2.27-2.2-4.4-3.33-6.58-.14-.26-.3-.5-.44-.75Z"/><path class="cls-1" d="M217,46.47h5.07v25.8c-1.43,0-2.82,0-4.2,0-.22,0-.48-.37-.65-.62l-9.15-14c-.22-.34-.45-.67-.81-1.2V72.2h-5V46.43c1.4,0,2.81,0,4.21,0,.22,0,.46.39.62.64q4.63,7.14,9.26,14.3c.17.26.35.5.68,1Z"/><path class="cls-1" d="M260.25,76.32A22.5,22.5,0,0,0,262,74.4c.5-.68.88-1.46,1.34-2.23-1.19-.74-2.25-1.33-3.24-2a12.87,12.87,0,0,1-5.57-8,13.12,13.12,0,0,1,3.79-12.59c5.24-5.22,11.7-7.4,19-7.37a26.22,26.22,0,0,1,14,3.71c3.8,2.35,6.84,5.41,8.14,9.81a13.42,13.42,0,0,1-5.56,15.08,26.49,26.49,0,0,1-17.31,4.58c-1.61-.13-3.22-.38-4.83-.53a2.19,2.19,0,0,0-1.06.23,30,30,0,0,1-7.35,2.62C261.51,78,261.09,77.84,260.25,76.32Zm4.53-1.46c1.77-.7,3.48-1.32,5.13-2a4,4,0,0,1,2.21-.3,54.21,54.21,0,0,0,7.53.49,22.2,22.2,0,0,0,13.42-4.57C297.5,65,299.45,58,295.49,52.67a19.21,19.21,0,0,0-7.56-6,26.57,26.57,0,0,0-12.39-2.06c-5.82.24-11,2-15.23,6.22-4.5,4.48-5,12.37.86,16.91,1.47,1.14,3.14,2,4.86,3.12C265.67,72,265.26,73.33,264.78,74.86Z"/><path class="cls-1" d="M186.51,72.23h-5V61.37h-8.87V72.23h-5.11V46.46h5.07V57.1h8.87V46.48h5.06Z"/><path class="cls-1" d="M18.66,72.24H13.88V61.38H5.07V72.22H0V46.47H5.05V57.1h8.79V46.47h4.82Z"/><path class="cls-1" d="M227.08,46.47h17.18V51H232.14V57.1h10.24v4.55H232.15V67.8h12.11v4.41H227.08Z"/><path class="cls-1" d="M81.8,57.14v4.5H71.54v6.13H83.66v4.44H66.77V46.49H83.66V51H71.51v6.13Z"/><path class="cls-1" d="M131.36,46.42c1,0,1.9,0,2.82,0a1.11,1.11,0,0,1,1.31.87c2,5.54,4.16,11,6.24,16.56,1.05,2.76,2.08,5.52,3.19,8.44h-3.69c-1.75,0-1.74,0-2.29-1.63-.32-1-.43-2.23-1.11-2.73s-1.89-.16-2.87-.16c-1.83,0-3.66,0-5.48,0a.81.81,0,0,0-.93.67c-.33,1.11-.7,2.21-1.09,3.29-.08.23-.34.55-.52.55-1.64,0-3.29,0-5.08,0C125.06,63.57,128.2,55,131.36,46.42Zm-1.37,17h6.83l-3.3-9.22-.23,0Z"/><path class="cls-1" d="M44.25,72.22V46.49a3.87,3.87,0,0,1,.54-.06c3.31,0,6.62-.07,9.92,0a8.06,8.06,0,0,1,.55,16.11c-1.91.07-3.82,0-5.88,0v9.65Zm5.2-14.29c2,0,4,.14,5.93,0,1.76-.16,2.55-1.41,2.54-3.36s-.83-3.21-2.55-3.37c-1.95-.17-3.92,0-5.92,0Z"/><path class="cls-1" d="M165.21,54.42c-1.57,0-3.08,0-4.58,0-.23,0-.56-.33-.65-.58a4.36,4.36,0,0,0-5.36-3,3.25,3.25,0,0,0-2.76,2.65,14,14,0,0,0-.45,3c0,2.75,0,5.51.32,8.24.23,2.27,1.44,3.19,3.72,3.36a4.15,4.15,0,0,0,4.41-2.8c.21-.65.48-.87,1.15-.84,1.33.06,2.66,0,4,0,.05,0,.1.05.15.08a8.78,8.78,0,0,1-9.24,8.06,11.16,11.16,0,0,1-4.72-1,7,7,0,0,1-4.15-4.82,31.32,31.32,0,0,1,0-15A6.66,6.66,0,0,1,151,47.29a11.07,11.07,0,0,1,8.63-.42C162.72,48,164.58,50.52,165.21,54.42Z"/><path class="cls-1" d="M34.26,72.25H29.13v-.94c0-3,0-5.92,0-8.88A3,3,0,0,0,28.77,61c-2.32-4.57-4.68-9.12-7-13.68-.14-.27-.27-.55-.45-.93,1.84,0,3.57,0,5.3,0,.21,0,.49.34.6.58C28.6,50,30,52.89,31.36,55.82c.13.28.28.55.49,1,.17-.33.31-.54.4-.76,1.29-2.94,2.6-5.88,3.86-8.83a1.07,1.07,0,0,1,1.22-.78c1.41.05,2.84,0,4.4,0-.15.35-.26.62-.39.89-2.22,4.51-4.47,9-6.67,13.55a4.12,4.12,0,0,0-.39,1.65c0,2.9,0,5.8,0,8.7Z"/><path class="cls-1" d="M191.56,46.45h5.2V72.22h-5.2Z"/><path class="cls-1" d="M277,56c.43-.56.76-1,1.14-1.46A3.53,3.53,0,0,1,282,53.4a3.72,3.72,0,0,1,2.78,3c.63,3-.58,5.3-2.85,7.08a52.83,52.83,0,0,1-4.71,3.07.87.87,0,0,1-.77,0,25.61,25.61,0,0,1-6-5.27,6,6,0,0,1-1-5.43c.48-1.73,1.85-2.67,3.95-2.79a3.3,3.3,0,0,1,3.32,2.32C276.78,55.56,276.85,55.75,277,56Z"/></svg>