<?xml version="1.0" encoding="utf-8"?>
<!-- Generator: Adobe Illustrator 23.0.6, SVG Export Plug-In . SVG Version: 6.00 Build 0)  -->
<svg version="1.1" id="Camada_1" xmlns="http://www.w3.org/2000/svg" xmlns:xlink="http://www.w3.org/1999/xlink" x="0px" y="0px"
	 viewBox="0 0 300 120" style="enable-background:new 0 0 300 120;" xml:space="preserve">
<title>iheart-radio</title>
<path d="M39.7,39.9c-5,0-9.6,2.5-12.4,6.7c-2.8-4.1-7.4-6.7-12.4-6.7C6.7,39.8,0.1,46.4,0,54.6c0,0,0,0.1,0,0.1
	c0,5.2,3.3,8.9,6.7,12.4l13.4,12.7c0.4,0.4,1.1,0.4,1.6,0c0.2-0.2,0.3-0.5,0.3-0.8v-9.9c0-2.9,2.3-5.2,5.2-5.2s5.2,2.3,5.2,5.2V79
	c-0.1,0.5,0.2,1.1,0.7,1.2c0.4,0.1,0.8-0.1,1.1-0.4l13.4-12.7c3.4-3.5,6.7-7.2,6.7-12.4c0.2-8-6.1-14.6-14.1-14.8
	C40,39.9,39.9,39.9,39.7,39.9z M13.8,66.1c-0.2,0.2-0.5,0.3-0.8,0.3c-0.2,0-0.5-0.1-0.7-0.2c-4.4-3.9-6.7-8-6.7-12.2l0,0
	c0.1-3.8,2-7.3,5.1-9.5c0.5-0.3,1.1-0.2,1.4,0.3c0.3,0.5,0.2,1.1-0.3,1.4l0,0c-2.5,1.8-4,4.6-4.1,7.7l0,0c0,3.5,2,7.1,6,10.7
	C14.1,65,14.2,65.7,13.8,66.1z M20.4,62.3c-0.2,0.3-0.5,0.5-0.9,0.5c-0.2,0-0.3,0-0.5-0.1c-3-1.7-4.9-4.8-5-8.2l0,0
	c0-3.1,1.7-5.9,4.4-7.3c0.5-0.2,1.2,0,1.4,0.5c0.2,0.5,0,1.2-0.5,1.4c-2,1.1-3.3,3.2-3.4,5.5c0.1,2.7,1.6,5.1,4,6.4
	c0.5,0.1,0.7,0.6,0.6,1.1C20.5,62.1,20.4,62.2,20.4,62.3z M27.3,59.7c-2.5,0-4.5-2-4.5-4.5s2-4.5,4.5-4.5s4.5,2,4.5,4.5l0,0
	C31.7,57.7,29.8,59.6,27.3,59.7z M35.5,62.7c-0.2,0.1-0.3,0.1-0.5,0.1c-0.4,0-0.7-0.2-0.9-0.5c-0.3-0.5-0.1-1.1,0.3-1.4
	c0,0,0,0,0.1,0c2.4-1.3,3.9-3.7,4-6.4c0-2.3-1.3-4.4-3.4-5.5c-0.5-0.2-0.7-0.9-0.5-1.4s0.9-0.7,1.4-0.5c2.7,1.4,4.4,4.2,4.4,7.3l0,0
	C40.4,57.9,38.5,61,35.5,62.7z M48.9,54.1c0,4.1-2.3,8.2-6.7,12.2c-0.2,0.2-0.4,0.2-0.7,0.2c-0.3,0-0.6-0.1-0.8-0.3
	c-0.4-0.4-0.3-1,0.1-1.4c4-3.5,6-7.1,6-10.7l0,0c-0.1-3.1-1.6-5.9-4.1-7.7c-0.5-0.3-0.6-0.9-0.3-1.4c0.3-0.5,0.9-0.6,1.4-0.3
	C46.6,46.3,48.9,50.4,48.9,54.1L48.9,54.1z"/>
<path d="M180.6,51.1c0-0.9,0.6-1.6,1.5-1.6h10.1c2.8-0.2,5.5,0.8,7.6,2.7c1.4,1.4,2.1,3.3,2.1,5.3v0.1c0,4.4-3,7-7.2,7.8l6.7,8.6
	c0.6,0.6,0.6,1.5,0,2.1c-0.6,0.6-1.5,0.6-2.1,0c-0.1-0.1-0.2-0.2-0.3-0.4l-7.6-9.8h-7.7v9c0,0.9-0.7,1.6-1.6,1.6c0,0,0,0,0,0
	c-0.9,0-1.5-0.7-1.5-1.6L180.6,51.1L180.6,51.1z M191.9,63.2c4,0,6.9-2.1,6.9-5.5v-0.1c0-3.3-2.5-5.3-6.9-5.3h-8.3v10.9L191.9,63.2z
	 M205.2,74.4l10.9-23.9c0.2-0.8,1-1.4,1.9-1.4h0.2c0.9,0,1.7,0.6,1.9,1.4L231,74.4c0.1,0.3,0.2,0.5,0.2,0.8c0,0.8-0.7,1.5-1.5,1.5
	c-0.7,0-1.3-0.5-1.5-1.1l-2.8-6.2h-14.8l-2.8,6.3c-0.2,0.6-0.8,1.1-1.5,1c-0.8,0-1.4-0.6-1.4-1.3c0,0,0,0,0-0.1L205.2,74.4
	L205.2,74.4z M224.3,66.6l-6.2-13.8l-6.2,13.8H224.3z M235.5,51.1c0-0.9,0.6-1.6,1.5-1.6h7.8c8.4,0,14.3,5.8,14.3,13.4V63
	c0,7.6-5.8,13.4-14.3,13.4H237c-0.8,0-1.5-0.7-1.5-1.5L235.5,51.1z M244.8,73.6c6.8,0,11.1-4.6,11.1-10.6v-0.1
	c0-5.9-4.3-10.7-11.1-10.7h-6.3v21.3C238.5,73.5,244.8,73.6,244.8,73.6z M264.3,50.9c0-0.8,0.7-1.5,1.5-1.5s1.5,0.7,1.5,1.5v24.2
	c0,0.8-0.7,1.5-1.5,1.5s-1.5-0.7-1.5-1.5V50.9z M272.5,63L272.5,63c0-7.6,6.1-13.8,13.7-13.8c7.6,0,13.8,6.1,13.8,13.7V63
	c0,7.6-6.2,13.8-13.8,13.8S272.5,70.6,272.5,63z M296.8,63L296.8,63c0-6.2-4.5-11.2-10.6-11.2s-10.5,4.9-10.5,11v0.1
	c0,6.1,4.5,11.1,10.6,11.1S296.8,69.1,296.8,63z"/>
<path d="M72.7,49.2h7.5v10.2h9.7V49.2h7.5v27.2h-7.5V66.1h-9.7v10.3h-7.5V49.2z M99.6,66L99.6,66c0-6.2,4.4-11.1,10.6-11.1
	c7.3,0,10.6,5.3,10.6,11.5v1.5h-14.1c0.4,2.1,2.3,3.6,4.5,3.5c1.8,0,3.5-0.8,4.7-2.1l4.1,3.4c-2.2,2.8-5.6,4.4-9.1,4.3
	C104.3,76.9,99.6,72.5,99.6,66z M113.9,64.1c0.1-1.9-1.3-3.6-3.3-3.7c-0.1,0-0.2,0-0.3,0c-2,0-3.6,1.7-3.6,3.7H113.9z M145.8,55.4
	h7.4v4.2c1.2-2.9,3.2-4.8,6.6-4.6v7.8h-0.6c-3.9,0-6,2.2-6,7.1v6.5h-7.4V55.4z M164.4,69.9v-8.6h-2.5v-5.9h2.5V50h7.4v5.3h4.9v5.9
	h-4.9v7.1c0,1.5,0.7,2.1,2,2.1c1,0,1.9-0.3,2.8-0.7v5.8c-1.6,0.8-3.3,1.2-5.1,1.2C167.1,76.8,164.4,74.9,164.4,69.9L164.4,69.9z"/>
<circle cx="65.5" cy="51.1" r="3.9"/>
<path d="M65.6,56.9h-0.3c-2.2,0-3.9,1.7-3.9,3.9c0,0,0,0,0,0v15.7h8V60.8C69.4,58.7,67.8,56.9,65.6,56.9
	C65.6,56.9,65.6,56.9,65.6,56.9z M142.9,65.8c0-6.5-4.7-10.9-11.3-10.9c-3.6-0.1-7,1.5-9.1,4.3l4.1,3.4c1.2-1.3,2.9-2.1,4.7-2.1
	c2.1-0.2,4.1,1.3,4.5,3.4V64h-4.9c-6.1,0.1-9.2,2.3-9.2,6.6c0,4.1,2.9,6.3,8,6.3c2.3,0,4.6-0.9,6.2-2.5v2h7V65.8z M131.9,72.2
	c-1.9,0.1-3-1-3-2.3s1-1.9,2.9-1.9h4.2v0.2C135.9,70.4,134.1,72.2,131.9,72.2z"/>
</svg>
