<svg xmlns="http://www.w3.org/2000/svg" viewBox="0 0 300 120"><defs><style>.a{fill:#fff;}</style></defs><title>iheart-radio</title><path class="a" d="M39.7,39.9a15,15,0,0,0-12.4,6.7,15.08,15.08,0,0,0-12.4-6.7A14.79,14.79,0,0,0,0,54.7c0,5.2,3.3,8.9,6.7,12.4L20.1,79.8A1.11,1.11,0,0,0,22,79V69.1a5.2,5.2,0,0,1,10.4,0V79a1,1,0,0,0,1.8.8L47.6,67.1c3.4-3.5,6.7-7.2,6.7-12.4A14.47,14.47,0,0,0,39.7,39.9ZM13.8,66.1a1.14,1.14,0,0,1-.8.3,1.85,1.85,0,0,1-.7-.2c-4.4-3.9-6.7-8-6.7-12.2h0a12.17,12.17,0,0,1,5.1-9.5,1,1,0,0,1,1.1,1.7,9.78,9.78,0,0,0-4.1,7.7h0c0,3.5,2,7.1,6,10.7a1.1,1.1,0,0,1,.1,1.5Zm6.6-3.8a1.05,1.05,0,0,1-.9.5.9.9,0,0,1-.5-.1,9.82,9.82,0,0,1-5-8.2h0a8.19,8.19,0,0,1,4.4-7.3,1.05,1.05,0,1,1,.9,1.9,6.41,6.41,0,0,0-3.4,5.5,7.6,7.6,0,0,0,4,6.4.86.86,0,0,1,.5,1.3Zm6.9-2.6a4.5,4.5,0,1,1,4.5-4.5A4.61,4.61,0,0,1,27.3,59.7Zm8.2,3a.9.9,0,0,1-.5.1,1.05,1.05,0,0,1-.9-.5,1,1,0,0,1,.4-1.4,7.74,7.74,0,0,0,4-6.4A6.22,6.22,0,0,0,35.1,49a1.05,1.05,0,0,1,.9-1.9,8.3,8.3,0,0,1,4.4,7.3h0a9.43,9.43,0,0,1-4.9,8.3Zm13.4-8.6c0,4.1-2.3,8.2-6.7,12.2a1,1,0,0,1-.7.2,1.14,1.14,0,0,1-.8-.3,1,1,0,0,1,.1-1.4c4-3.5,6-7.1,6-10.7h0a9.78,9.78,0,0,0-4.1-7.7,1,1,0,0,1,1.1-1.7c2.8,1.6,5.1,5.7,5.1,9.4Z"/><path class="a" d="M180.6,51.1a1.56,1.56,0,0,1,1.5-1.6h10.1a10.47,10.47,0,0,1,7.6,2.7,7.48,7.48,0,0,1,2.1,5.3v.1c0,4.4-3,7-7.2,7.8l6.7,8.6a1.52,1.52,0,1,1-2.4,1.8L191.4,66h-7.7v9a1.58,1.58,0,0,1-1.6,1.6,1.56,1.56,0,0,1-1.5-1.6V51.1Zm11.3,12.1c4,0,6.9-2.1,6.9-5.5v-.1c0-3.3-2.5-5.3-6.9-5.3h-8.3V63.2Zm13.3,11.2,10.9-23.9a1.92,1.92,0,0,1,1.9-1.4h.2a1.92,1.92,0,0,1,1.9,1.4L231,74.4a2.35,2.35,0,0,1,.2.8,1.54,1.54,0,0,1-1.5,1.5,1.74,1.74,0,0,1-1.5-1.1l-2.8-6.2H210.6l-2.8,6.3a1.42,1.42,0,0,1-1.5,1,1.37,1.37,0,0,1-1.4-1.4l.3-.9Zm19.1-7.8-6.2-13.8-6.2,13.8Zm11.2-15.5a1.56,1.56,0,0,1,1.5-1.6h7.8c8.4,0,14.3,5.8,14.3,13.4V63c0,7.6-5.8,13.4-14.3,13.4H237a1.54,1.54,0,0,1-1.5-1.5Zm9.3,22.5c6.8,0,11.1-4.6,11.1-10.6v-.1c0-5.9-4.3-10.7-11.1-10.7h-6.3V73.5l6.3.1Zm19.5-22.7a1.5,1.5,0,1,1,3,0V75.1a1.5,1.5,0,1,1-3,0ZM272.5,63h0a13.75,13.75,0,1,1,27.5-.1V63a13.75,13.75,0,1,1-27.5,0Zm24.3,0h0c0-6.2-4.5-11.2-10.6-11.2s-10.5,4.9-10.5,11v.1c0,6.1,4.5,11.1,10.6,11.1S296.8,69.1,296.8,63Z"/><path class="a" d="M72.7,49.2h7.5V59.4h9.7V49.2h7.5V76.4H89.9V66.1H80.2V76.4H72.7ZM99.6,66h0c0-6.2,4.4-11.1,10.6-11.1,7.3,0,10.6,5.3,10.6,11.5v1.5H106.7a4.4,4.4,0,0,0,4.5,3.5,6.56,6.56,0,0,0,4.7-2.1l4.1,3.4a11,11,0,0,1-9.1,4.3c-6.6-.1-11.3-4.5-11.3-11Zm14.3-1.9a3.49,3.49,0,0,0-3.6-3.7,3.67,3.67,0,0,0-3.6,3.7Zm31.9-8.7h7.4v4.2c1.2-2.9,3.2-4.8,6.6-4.6v7.8h-.6c-3.9,0-6,2.2-6,7.1v6.5h-7.4Zm18.6,14.5V61.3h-2.5V55.4h2.5V50h7.4v5.3h4.9v5.9h-4.9v7.1c0,1.5.7,2.1,2,2.1a6.81,6.81,0,0,0,2.8-.7v5.8a11,11,0,0,1-5.1,1.2C167.1,76.8,164.4,74.9,164.4,69.9Z"/><circle class="a" cx="65.5" cy="51.1" r="3.9"/><path class="a" d="M65.6,56.9h-.3a3.9,3.9,0,0,0-3.9,3.9V76.5h8V60.8A3.82,3.82,0,0,0,65.6,56.9Zm77.3,8.9c0-6.5-4.7-10.9-11.3-10.9a10.84,10.84,0,0,0-9.1,4.3l4.1,3.4a6.19,6.19,0,0,1,4.7-2.1,4.24,4.24,0,0,1,4.5,3.4V64h-4.9c-6.1.1-9.2,2.3-9.2,6.6,0,4.1,2.9,6.3,8,6.3a8.64,8.64,0,0,0,6.2-2.5v2h7V65.8Zm-11,6.4c-1.9.1-3-1-3-2.3s1-1.9,2.9-1.9H136v.2a4.14,4.14,0,0,1-4.1,4Z"/></svg>