<svg xmlns="http://www.w3.org/2000/svg" viewBox="0 0 300 120"><defs><style>.a{fill:#fff;}</style></defs><title>imgur</title><path class="a" d="M277.3,51.32c-4.8,2-5.4,3.9-5.4,9.1v16c0,7.5-2.7,11.2-8.7,11.2s-8.7-3.7-8.7-11.2V45.62c0-7.5,2.7-11.1,8.7-11.1,3.4,0,6.1,1.6,8.2,4.9,3.6-3.4,7.7-5.2,11.7-5.2,4.8,0,8.8,3.5,8.8,7.6.1,6.1-7.6,6.6-14.6,9.5m-57.6,37.2c-16.8,0-26.1-7.8-26.1-22.5V45.62c0-7.5,2.7-11.1,8.7-11.1,5.8,0,8.5,3.6,8.5,11.1v17.3c0,7.2,1.9,11.2,8.9,11.2s8.9-4,8.9-11.2V45.62c0-7.5,2.7-11.1,8.7-11.1s8.5,3.6,8.5,11.1V66c0,14.7-9.4,22.5-26.1,22.5m-62.7-40c-6.4,0-11.3,4.9-11.3,12.6,0,7.9,4.8,12.8,11.3,12.8s11.4-5.1,11.4-12.8-5-12.6-11.4-12.6m23.8,49.1c-5,7.5-14,11.5-26.3,11.5-15.8,0-25.3-5.2-25.3-11.2,0-3.9,3.2-6.7,7.4-6.7s9.4,4.1,18.5,4.1c8.4,0,13.5-4.6,13.5-12.9,0-.6-.1-1.2-.1-1.8-3.7,4.8-8.9,7.2-15.7,7.2-13.6,0-25-11.1-25-26.7a26.76,26.76,0,0,1,26.8-27.2c5.9,0,10.3,1.8,13.8,5.4,2-3.2,5-4.9,7.7-4.9,5.9,0,8.7,3.6,8.7,11.1v30.8c0,9.3-.6,16.4-4,21.3m-68.5-10c-5.9,0-8.5-3.7-8.5-11.2V59.12c0-7.8-2.3-11.7-7.9-11.7-6.2,0-8.7,3.9-8.7,11.5v17.5c0,7.5-2.7,11.2-8.7,11.2s-8.7-3.7-8.7-11.2V59.12c0-7.8-2.2-11.7-7.8-11.7-6.2,0-8.7,3.9-8.7,11.5v17.5c0,7.5-2.7,11.2-8.7,11.2s-8.7-3.7-8.7-11.2V45.62c0-7.5,2.7-11.1,8.7-11.1,3.4,0,6.1,1.6,8.2,4.9,3.6-3.5,8-5.1,13.8-5.1,7.4,0,13.1,2.4,17.2,7.2,5.3-5.2,10.3-7.2,17.4-7.2,11.9,0,19.5,6.9,19.5,20.1v22c.3,7.5-2.5,11.2-8.4,11.2M18,34.52c5.8,0,8.5,3.6,8.5,11.1v30.8c0,7.5-2.6,11.2-8.5,11.2s-8.7-3.7-8.7-11.2V45.62c0-7.5,2.8-11.1,8.7-11.1m0-5.9c-5.6,0-10-3.9-10-8.9s4.5-8.9,10-8.9,9.9,4,9.9,8.9-4.5,8.9-9.9,8.9"/><path class="a" d="M18,28.62c-5.6,0-10-3.9-10-8.9s4.5-8.9,10-8.9,9.9,4,9.9,8.9-4.5,8.9-9.9,8.9"/></svg>