<svg id="IGG_Logo" data-name="IGG Logo" xmlns="http://www.w3.org/2000/svg" viewBox="0 0 300 120"><defs><style>.cls-1{fill:#fff;}</style></defs><title>indiegogo</title><path class="cls-1" d="M11.41,39.16V80.84H0V39.16ZM40.58,58.45,29.05,39.16h-12V80.84H27.9V59.18h.17L41.15,80.84H51.64V39.16H40.75V58.45h-.17M80,60c0,10.52-3,11.19-7.32,11.19h-4V49.29h3.51c4.84,0,7.78.27,7.78,10.74ZM57.33,39.16V80.84H71.68c13.54,0,19.93-3.32,19.93-20.87,0-17.21-6.51-20.81-20.11-20.81Zm38.37,0h11.41V80.84H95.7V39.16Zm45.45,10.18V39.16H112.8V80.84h28.35v-9.9H124V64.69h11.28l1.37-9.89H124V49.34h17.17m19.61,15.41h7.36v.73c0,4.61.15,6.64-5.47,6.64-5.24,0-7-2.36-7-11.75,0-9.79,3-11,7.49-11a15.24,15.24,0,0,1,7.66,1.91L176.88,42a25.45,25.45,0,0,0-13.25-3.38c-14.75,0-19.48,6.92-19.48,21.38,0,12.6,3.46,21.32,17.46,21.32a35.73,35.73,0,0,0,6.45-.51h10.49V55.7H162l-1.26,9.06m40.6,6.74c-6.28,0-7.14-4.22-7.14-11.08s.86-11,7.14-11,7.09,4.22,7.09,11S207.59,71.5,201.36,71.5Zm0-32.85c-15.9,0-18.72,10.18-18.72,21.38s2.82,21.32,18.72,21.32S220,71.17,220,60,217.26,38.65,201.36,38.65Zm39.37,26.1h7.36v.73c0,4.61.15,6.64-5.47,6.64-5.25,0-7-2.36-7-11.75,0-9.79,3-11,7.49-11a15.24,15.24,0,0,1,7.66,1.91L256.85,42a25.45,25.45,0,0,0-13.25-3.38c-14.75,0-19.48,6.92-19.48,21.38,0,12.6,3.46,21.32,17.46,21.32a35.73,35.73,0,0,0,6.45-.51h10.49V55.7H242l-1.26,9.06m40.6,6.74c-6.28,0-7.14-4.22-7.14-11.08s.86-11,7.14-11,7.09,4.22,7.09,11S287.55,71.5,281.33,71.5Zm0-32.85c-15.9,0-18.73,10.18-18.73,21.38s2.83,21.32,18.73,21.32S300,71.17,300,60,297.23,38.65,281.33,38.65Z"/></svg>