<svg id="Camada_1" data-name="Camada 1" xmlns="http://www.w3.org/2000/svg" viewBox="0 0 300 120"><defs><style>.cls-1{fill:#fff;}</style></defs><title>Instagram_logo</title><path class="cls-1" d="M108.08,37.05c-4.14,1.73-8.7,6.63-10.13,12.78-1.82,7.79,5.75,11.08,6.37,10,.74-1.27-1.35-1.7-1.78-5.74-.56-5.22,1.87-11.05,4.92-13.61.57-.47.54.19.54,1.41,0,2.19-.12,21.84-.12,25.94,0,5.55-.23,7.3-.64,9s-1.09,2.94-.58,3.4,3-.7,4.4-2.66a14.57,14.57,0,0,0,2.37-8.23c.13-3.7.12-9.56.13-12.9,0-3.06,0-12,0-17.43,0-1.33-3.7-2.72-5.43-2M255.14,63a17.12,17.12,0,0,1-1.57,6.73c-1.53,3.08-4.72,4-6.07-.39a24.94,24.94,0,0,1-.24-9.81c.54-3.43,2-6,4.54-5.79s3.61,3.4,3.34,9.26Zm-41.45,17.9c0,4.79-.79,9-2.41,10.21-2.29,1.73-5.38.44-4.74-3.06.57-3.1,3.24-6.26,7.15-10.12,0,0,0,.88,0,3ZM213.06,63a19,19,0,0,1-1.56,6.76c-1.54,3.08-4.74,4-6.07-.39a22.21,22.21,0,0,1-.24-9.42c.58-3.2,2-6.18,4.53-6.18s3.69,2.71,3.34,9.23Zm-24,0a17.18,17.18,0,0,1-1.56,6.8c-1.58,3.06-4.7,4-6.07-.39-1-3.19-.66-7.53-.24-9.88.61-3.48,2.14-5.95,4.53-5.72s3.66,3.4,3.34,9.19Zm110,3.25c-.6,0-.87.62-1.1,1.66-.78,3.63-1.61,4.45-2.68,4.45s-2.26-1.8-2.53-5.39a118,118,0,0,1,.09-13.2c.06-1.06-.24-2.11-3.09-3.15-1.22-.45-3-1.1-3.89,1a53.89,53.89,0,0,0-3.73,12.82c0,.1-.13.12-.15-.12a97.84,97.84,0,0,1-.52-10.38,3.09,3.09,0,0,0-1.54-3c-.83-.53-3.37-1.46-4.28-.35-.79.9-1.71,3.34-2.66,6.23-.77,2.35-1.31,3.94-1.31,3.94s0-6.34,0-8.74a1.25,1.25,0,0,0-.81-1.27,17.24,17.24,0,0,0-3.21-.65c-.87,0-1.09.48-1.09,1.19,0,.1-.14,8.35-.14,14.13,0,.25,0,.52,0,.81-.49,2.66-2.05,6.26-3.75,6.26s-2.51-1.51-2.51-8.39c0-4,.12-5.76.18-8.67,0-1.67.1-3,.1-3.24,0-.9-1.56-1.35-2.28-1.52a6.92,6.92,0,0,0-1.84-.2,1.15,1.15,0,0,0-1.18,1.12v1a6.61,6.61,0,0,0-3.29-2.66c-2.57-.77-5.26-.09-7.29,2.75a16.81,16.81,0,0,0-3,8.48,25,25,0,0,0,.31,7.7c-.6,2.6-1.71,3.66-2.93,3.66-1.78,0-3.06-2.89-2.91-7.89a45.43,45.43,0,0,1,1.47-8.94A2.91,2.91,0,0,0,237,52.8c-.58-.65-1.8-1-3.56-.58-1.25.3-3,.61-4.67.86A9.46,9.46,0,0,0,229,52c.42-3.65-3.54-3.35-4.8-2.19a4.5,4.5,0,0,0-1.46,3,3.52,3.52,0,0,0,1.6,3.44,35.37,35.37,0,0,1-3.75,9.31,39.13,39.13,0,0,1-2.33,3.67c0-.43,0-.85,0-1.28,0-6,.06-10.76.1-12.47s.1-2.92.1-3.21c0-.65-.39-.9-1.19-1.21a8.37,8.37,0,0,0-2.39-.54c-1.09-.08-1.74.49-1.73,1.18,0,.12,0,.91,0,.91a6.69,6.69,0,0,0-3.29-2.66c-2.58-.77-5.27-.09-7.3,2.75a18.15,18.15,0,0,0-3,8.45,25.87,25.87,0,0,0,.15,7.25c-.41,2-1.59,4.14-2.92,4.14-1.7,0-2.67-1.51-2.67-8.39,0-4,.12-5.76.18-8.67,0-1.67.1-3,.1-3.24,0-.9-1.56-1.35-2.28-1.52a7,7,0,0,0-1.9-.2,1.22,1.22,0,0,0-1.12,1.08v1a6.69,6.69,0,0,0-3.29-2.66c-2.58-.77-5.25-.08-7.3,2.75-1.33,1.84-2.41,3.89-3,8.41a28.24,28.24,0,0,0-.22,3.67c-.54,3.25-2.88,7-4.8,7-1.12,0-2.19-2.18-2.19-6.82,0-6.19.38-15,.44-15.84l2.9-.05c1.21,0,2.3,0,3.91-.07.81,0,1.59-2.94.76-3.3a29.05,29.05,0,0,0-4.11-.32c-.89,0-3.37-.21-3.37-.21s.22-5.84.27-6.46-.62-.78-1-.94a13.81,13.81,0,0,0-2.74-.78c-1.36-.28-2,0-2.1,1.14C163.13,39.85,163,45,163,45c-1,0-4.41-.19-5.4-.19s-1.93,4-.65,4c1.47.06,4.05.1,5.75.16,0,0-.07,8.95-.07,11.71v.85a13.52,13.52,0,0,1-4.24,7.53c.71-3.23-.74-5.66-3.36-7.72-1-.76-2.86-2.19-5-3.76a12.94,12.94,0,0,0,2.32-3.66c.77-1.72.81-3.7-1.09-4.14-3.14-.72-5.72,1.58-6.5,4a4.71,4.71,0,0,0,.9,4.79,3.92,3.92,0,0,0,.27.33c-.71,1.36-1.68,3.2-2.5,4.62-2.29,4-4,7.09-5.32,7.09-1,0-1-3.18-1-6.15,0-2.57.19-6.42.34-10.41a2.91,2.91,0,0,0-1.72-2.76,7.76,7.76,0,0,0-2.94-1.22c-1.24,0-4.83.17-8.22,10-.43,1.24-1.27,3.49-1.27,3.49l.07-11.79a.81.81,0,0,0-.48-.73,8.38,8.38,0,0,0-3.45-.94c-.65,0-1,.3-1,.9l-.12,18.45a28.64,28.64,0,0,0,.17,3.75,4.08,4.08,0,0,0,.64,1.65,1.88,1.88,0,0,0,1.13.72c.49.1,3.18.44,3.32-.58a37.83,37.83,0,0,1,1.58-7.54c2.2-7.73,5.07-11.51,6.42-12.85.23-.23.5-.25.49.14-.06,1.69-.26,5.93-.4,9.53-.36,9.64,1.39,11.42,3.9,11.42,1.91,0,4.61-1.9,7.51-6.72,1.8-3,3.56-5.95,4.82-8.07.87.81,1.86,1.68,2.84,2.62,2.29,2.17,3,4.23,2.54,6.19-.38,1.49-1.81,3-4.37,1.54-.74-.44-1.06-.78-1.81-1.27a1.28,1.28,0,0,0-1.38-.07A4.9,4.9,0,0,0,144,72.69c-.3,1.1.8,1.69,2,2.2a15.29,15.29,0,0,0,4.47.88c5.27.18,9.5-2.55,12.44-9.57.52,6.06,2.76,9.5,6.66,9.5,2.6,0,5.21-3.37,6.35-6.68a11.7,11.7,0,0,0,1.44,3.52c3,4.75,8.82,3.73,11.74-.31a7.76,7.76,0,0,0,1.05-1.69,5.49,5.49,0,0,0,5.25,5.14c2,0,4-.93,5.42-4.14a10.66,10.66,0,0,0,.55,1c3,4.75,8.82,3.73,11.74-.31l.37-.51.08,2.5-2.69,2.47c-4.51,4.13-7.93,7.27-8.18,10.92-.33,4.66,3.45,6.39,6.31,6.61a8,8,0,0,0,7.23-3.78c1.4-2.06,2.32-6.51,2.25-10.89,0-1.76-.07-4-.1-6.39A51.2,51.2,0,0,0,228,56.23s1.67,0,3.45-.1c.57,0,.73.07.62.49s-2.24,8.69-.31,14.13c1.33,3.73,4.31,4.93,6.08,4.93,2.08,0,4.06-1.56,5.12-3.88.13.25.26.51.41.74,3,4.75,8.8,3.72,11.74-.31a11.5,11.5,0,0,0,1-1.69,5.72,5.72,0,0,0,5.46,5.16c1.83,0,3.57-.75,5-4.09a14.89,14.89,0,0,0,.3,3c.08.23.6.52,1,.66a7.57,7.57,0,0,0,4,.2c.43-.09.78-.44.82-1.34.12-2.38.05-6.38.77-9.36a27.29,27.29,0,0,1,2.88-7.88c.3-.53.64-.62.65-.06,0,1.15.08,4.53.55,9.06.35,3.34.81,5.31,1.16,5.93A3.26,3.26,0,0,0,282,73.74c.65,0,2-.17,1.88-1.31a36,36,0,0,1,1.24-8.89,43.17,43.17,0,0,1,2.55-7.17c.17-.39.25-.08.25,0-.1,2.21-.32,9.44.58,13.39,1.22,5.36,4.75,6,6,6,2.63,0,4.77-2,5.5-7.26.17-1.26-.09-2.24-.86-2.24"/><path class="cls-1" d="M35.41,31c9.45,0,10.57,0,14.31.21a19.51,19.51,0,0,1,6.57,1.22,10.79,10.79,0,0,1,4.07,2.65A10.92,10.92,0,0,1,63,39.12a19.45,19.45,0,0,1,1.22,6.57c.17,3.74.21,4.86.21,14.31s0,10.57-.21,14.31A19.45,19.45,0,0,1,63,80.88a11.71,11.71,0,0,1-6.72,6.72,19.25,19.25,0,0,1-6.57,1.22C46,89,44.86,89,35.41,89s-10.58,0-14.31-.21a19.2,19.2,0,0,1-6.57-1.22,11.6,11.6,0,0,1-6.72-6.72,19.2,19.2,0,0,1-1.22-6.57c-.17-3.73-.21-4.85-.21-14.31s0-10.57.21-14.31a19.25,19.25,0,0,1,1.22-6.57,10.89,10.89,0,0,1,2.64-4.07,10.91,10.91,0,0,1,4.08-2.65,19.45,19.45,0,0,1,6.57-1.22C24.83,31,26,31,35.41,31m0-6.38c-9.62,0-10.82,0-14.6.21a26.39,26.39,0,0,0-8.6,1.65,17.4,17.4,0,0,0-6.27,4.08,17.36,17.36,0,0,0-4.08,6.28A26,26,0,0,0,.21,45.4C0,49.18,0,50.38,0,60S0,70.82.21,74.6a26,26,0,0,0,1.65,8.59,17.36,17.36,0,0,0,4.08,6.28,17.36,17.36,0,0,0,6.28,4.08,26.27,26.27,0,0,0,8.59,1.65c3.78.17,5,.21,14.6.21s10.82,0,14.6-.21a26.27,26.27,0,0,0,8.59-1.65A18.1,18.1,0,0,0,69,83.19,26,26,0,0,0,70.6,74.6c.18-3.78.22-5,.22-14.6s0-10.82-.22-14.6A26,26,0,0,0,69,36.81,18.1,18.1,0,0,0,58.6,26.45,26,26,0,0,0,50,24.81c-3.78-.18-5-.22-14.6-.22Z"/><path class="cls-1" d="M35.41,41.82A18.18,18.18,0,1,0,53.59,60h0A18.18,18.18,0,0,0,35.41,41.82Zm0,30A11.8,11.8,0,1,1,47.21,60,11.8,11.8,0,0,1,35.41,71.8Z"/><circle class="cls-1" cx="54.31" cy="41.1" r="4.25"/></svg>