<svg id="Camada_1" data-name="Camada 1" xmlns="http://www.w3.org/2000/svg" viewBox="0 0 300 120"><defs><style>.cls-1{fill:#fff;}</style></defs><title>Internet_Archive_logo_and_wordmark</title><path class="cls-1" d="M107.26,93.64,104.88,87H96.77l-2.38,6.61h-2l6.32-17.32a10.6,10.6,0,0,0,.54-1.87c0-1.33-1.46-1.33-2.44-1.49v-.7h6l7.75,21.38Zm-6.55-17.38-3.4,9.28h7Z"/><path class="cls-1" d="M134.48,93.64l-5.62-9.88h-2v9.88h-3.5V76.58c0-3,0-3.18-3-3.62v-.7h8.17c3.85,0,8.61.82,8.61,5.68,0,3.21-1.84,4.77-4.86,5.25l5.85,10.45ZM129,73.75c-2.29,0-2.13.86-2.13,2.86v5.66h1.81c2.76,0,5-1,5-4.13S132,73.75,129,73.75Z"/><path class="cls-1" d="M158.36,94c-7.31,0-9.37-4.74-9.37-11.31,0-6.13,2-10.49,8.86-10.49a20.64,20.64,0,0,1,6.36,1l.19,5.31h-.92a4.83,4.83,0,0,0-.67-1.94,5.28,5.28,0,0,0-4.64-2.79c-4.8,0-5.43,5.27-5.43,9,0,3.94,1.21,9.53,6.16,9.53a9,9,0,0,0,5.56-1.62v2.19A14.34,14.34,0,0,1,158.36,94Z"/><path class="cls-1" d="M190.6,93.64V83.25H182V93.64h-3.49V76.45c0-2.76-.51-2.83-3.18-3.11v-.7l6.67-.73v9.85h8.64v-9.5h3.5V93.64Z"/><path class="cls-1" d="M206.38,93.64v-.79c2.38,0,2.7-.64,2.7-3V76.23c0-2.32-.32-3-2.7-3v-.79h8.89v.79c-2.38,0-2.7.67-2.7,3V89.89c0,2.29.32,3,2.7,3v.79Z"/><path class="cls-1" d="M238.48,93.64h-2.76l-6.23-17.32c-1-2.66-1.11-2.85-3.84-3.36v-.7h6.16L238,89.67h.06l6.07-17.41h2.07Z"/><path class="cls-1" d="M271.32,93.64H258.64V76.58c0-3,0-3.15-3-3.62v-.7h15.22l.1,4.7h-.89c0-2.38-1.18-3.21-3.44-3.21h-2.47c-1.47,0-2,0-2,1.65v6.33H266c1.81,0,2.32-.83,2.6-2.45h.89V86h-.89c0-1.78-.76-2.73-2.6-2.73h-3.85v7.09c0,1.74.39,1.84,2,1.84h3.52c2.16,0,2.7-1.08,2.86-3.12h.89Z"/><path class="cls-1" d="M92.42,57.54v-.8c2.38,0,2.7-.63,2.7-3V40.12c0-2.31-.32-2.95-2.7-2.95v-.79h8.9v.79c-2.38,0-2.7.67-2.7,2.95V53.79c0,2.29.32,3,2.7,3v.8Z"/><path class="cls-1" d="M127.34,57.54,116.86,39.46h-.07V57.54h-2V40.22c0-3-.48-2.86-3.18-3.37v-.7h6.71l10,17.29h.06V36.15h2V57.54Z"/><path class="cls-1" d="M158.76,40.86c0-2.48-1.08-3.21-3.46-3.21h-2.16V57.54h-3.49V37.65h-2.2c-2.41,0-3.24.7-3.43,3.11h-.89l.13-4.61h16.27l.12,4.71Z"/><path class="cls-1" d="M185.11,57.54H172.43V40.47c0-3,0-3.14-3-3.62v-.7h15.22l.09,4.71h-.89c0-2.39-1.17-3.21-3.43-3.21h-2.48c-1.46,0-2,0-2,1.65v6.32h3.85c1.81,0,2.32-.82,2.6-2.44h.89v6.67h-.89c0-1.78-.76-2.73-2.6-2.73h-3.85V54.2c0,1.75.38,1.84,2,1.84h3.53c2.16,0,2.7-1.08,2.86-3.11h.89Z"/><path class="cls-1" d="M210.68,57.54l-5.62-9.88h-2v9.88h-3.5V40.47c0-3,0-3.17-3-3.62v-.7h8.16c3.85,0,8.61.83,8.61,5.69,0,3.21-1.84,4.77-4.86,5.24l5.85,10.46Zm-5.46-19.89c-2.29,0-2.13.85-2.13,2.86v5.65h1.81c2.76,0,5-1,5-4.13S208.24,37.65,205.22,37.65Z"/><path class="cls-1" d="M240.55,57.54,230.07,39.46H230V57.54h-2V40.22c0-3-.48-2.86-3.18-3.37v-.7h6.71l10,17.29h.06V36.15h2V57.54Z"/><path class="cls-1" d="M271.78,57.54H259.11V40.47c0-3,0-3.14-3-3.62v-.7h15.22l.09,4.71h-.89c0-2.39-1.17-3.21-3.43-3.21H264.6c-1.46,0-2,0-2,1.65v6.32h3.85c1.81,0,2.32-.82,2.6-2.44h.89v6.67h-.89c0-1.78-.76-2.73-2.6-2.73H262.6V54.2c0,1.75.38,1.84,2,1.84h3.53c2.16,0,2.7-1.08,2.86-3.11h.89Z"/><path class="cls-1" d="M299.11,40.86c0-2.48-1.08-3.21-3.46-3.21h-2.16V57.54H290V37.65H287.8c-2.42,0-3.24.7-3.43,3.11h-.89l.12-4.61h16.27l.13,4.71Z"/><rect class="cls-1" y="97.24" width="72.4" height="3.71"/><rect class="cls-1" x="2.86" y="90.1" width="66.83" height="5.14"/><rect class="cls-1" x="2.43" y="31.55" width="66.48" height="7.14"/><polygon class="cls-1" points="35.67 19.05 0.86 27.19 2.86 29.4 35.67 29.4 68.48 29.4 70.48 27.19 35.67 19.05"/><path class="cls-1" d="M12,61.29c-.06-3.51-.15-7-.29-10.52-.13-3.3-.34-6.6-.5-9.9,0-.28-.14-.35-.37-.4a14,14,0,0,0-2.94-.31A13.83,13.83,0,0,0,5,40.47c-.24.05-.36.12-.38.4-.16,3.3-.37,6.6-.5,9.9-.14,3.51-.23,7-.28,10.52,0,2.49,0,5,0,7.46,0,2.76.1,5.51.22,8.27.12,3,.3,5.91.46,8.87,0,.56.09,1.13.14,1.68A13.55,13.55,0,0,0,7.92,88a13.7,13.7,0,0,0,3.26-.46c0-.55.1-1.12.13-1.68.16-3,.35-5.91.47-8.87.11-2.76.17-5.51.21-8.27C12,66.26,12.06,63.78,12,61.29Z"/><path class="cls-1" d="M30.12,61.29c-.06-3.51-.15-7-.29-10.52-.13-3.3-.34-6.6-.5-9.9,0-.28-.14-.35-.37-.4A14,14,0,0,0,26,40.16a13.83,13.83,0,0,0-2.93.31c-.24.05-.36.12-.38.4-.16,3.3-.37,6.6-.5,9.9-.14,3.51-.23,7-.28,10.52,0,2.49,0,5,0,7.46,0,2.76.1,5.51.22,8.27.12,3,.3,5.91.46,8.87,0,.56.09,1.13.14,1.68A13.55,13.55,0,0,0,26,88a13.7,13.7,0,0,0,3.26-.46c0-.55.1-1.12.13-1.68.16-3,.35-5.91.47-8.87.11-2.76.17-5.51.21-8.27C30.13,66.26,30.16,63.78,30.12,61.29Z"/><path class="cls-1" d="M51.11,61.29c-.06-3.51-.15-7-.29-10.52-.13-3.3-.34-6.6-.5-9.9,0-.28-.13-.35-.37-.4a14,14,0,0,0-5.87,0c-.24.05-.36.12-.37.4-.16,3.3-.38,6.6-.51,9.9-.13,3.51-.22,7-.28,10.52,0,2.49,0,5,0,7.46.05,2.76.11,5.51.22,8.27.12,3,.3,5.91.47,8.87,0,.56.08,1.13.13,1.68A13.55,13.55,0,0,0,47,88a13.63,13.63,0,0,0,3.26-.46c0-.55.1-1.12.13-1.68.16-3,.35-5.91.47-8.87.11-2.76.17-5.51.21-8.27C51.12,66.26,51.15,63.78,51.11,61.29Z"/><path class="cls-1" d="M68.78,61.29c-.06-3.51-.15-7-.29-10.52-.12-3.3-.34-6.6-.5-9.9,0-.28-.13-.35-.37-.4a14,14,0,0,0-5.87,0c-.24.05-.36.12-.37.4-.16,3.3-.38,6.6-.5,9.9-.14,3.51-.23,7-.29,10.52,0,2.49,0,5,0,7.46,0,2.76.11,5.51.22,8.27.12,3,.3,5.91.47,8.87,0,.56.09,1.13.13,1.68a11.75,11.75,0,0,0,6.51,0c0-.55.1-1.12.13-1.68.16-3,.35-5.91.47-8.87.11-2.76.17-5.51.22-8.27C68.8,66.26,68.82,63.78,68.78,61.29Z"/></svg>