<svg xmlns="http://www.w3.org/2000/svg" viewBox="0 0 300 120"><defs><style>.a{fill:#fff;}</style></defs><title>kickass</title><path class="a" d="M141.7,1.84a2.81,2.81,0,0,1,5.13-.32c.79,1.3,0,2.8-1,3.68,1.12,3.32,2.38,6.58,3.63,9.85a49.11,49.11,0,0,1,3.39-7c-.71-.79-1.4-2-.48-3,1-1.57,3.7-.49,3.52,1.32-.07,1.07-1,1.57-1.89,1.94,0,1.92.21,3.84.25,5.76a68.59,68.59,0,0,1,7.06-10.21,2.56,2.56,0,0,1,0-2.8,2.25,2.25,0,0,1,4,.74c.56,1.69-1.23,3.14-2.84,2.82a44.58,44.58,0,0,0-3.09,18.67,58.17,58.17,0,0,0-23.7,3.25,45.16,45.16,0,0,0-7.88-17.21c-1.21.32-2.85.29-3.38-1.07-.84-1.45.45-3,1.86-3.35a2.58,2.58,0,0,1,2.32,3.31,69.93,69.93,0,0,1,9.63,8.09c-.43-1.91-.94-3.8-1.38-5.7-.9,0-2-.11-2.47-1-1.18-1.52,1-3.78,2.6-2.69a2.1,2.1,0,0,1,.72,2.91,53,53,0,0,1,5.33,6c.34-3.41.68-6.83.89-10.25C142.32,5.11,141,3.49,141.7,1.84Z"/><path class="a" d="M216.56,30.58a39.24,39.24,0,0,0,13.89-11.11c-1.41,6.21-5.77,11.21-9.95,15.81a37.33,37.33,0,0,0,10.88-8.2c-2.54,5.89-6,11.64-11,15.72a22.66,22.66,0,0,0,9.38-6.08c-.62,4.91-4.62,8.38-8.56,10.88-1.85,1.29-3.93,2.21-5.77,3.51,4.13-1,8.4-2,12-4.42a26.32,26.32,0,0,1-14.28,10.23l0,.25a18.15,18.15,0,0,0,5.28-1.23,14.47,14.47,0,0,1-4.07,4c2.38.24,4.7.81,7.06,1.2-1.55,2-2.7,4.65-1.92,7.18.54,1.84.79,3.74,1.16,5.62,2.88-.68,6.3-.82,8.65,1.3,3.48,2.57,5,7.95,2.46,11.65a17.51,17.51,0,0,1-8.54,7c-8.94,3.51-18.74,3-28.13,2.27-3.66-.36-7.32-.63-11-1a61.26,61.26,0,0,1-23.67,19.71c-8.72-1.53-17.4-4.06-25.05-8.6a30.72,30.72,0,0,0-2,4.05c-1.13,2.69-1.25,5.65-1.63,8.51-4.14-2.43-9-3-13.77-3.07-9.21-.1-18.33,1.74-27.15,4.28q1.37-4.21,2.63-8.44A10.64,10.64,0,0,1,88,104c-.46-2.95,0-5.92.3-8.85,3.09-3.45,6.61-6.48,9.73-9.9-2-1.6-3.95-3.48-4.73-6-1-3.21-.72-6.68-.16-9.95a13.37,13.37,0,0,1-10.36-3.44c2.11.32,4.47.51,6.35-.71a16.37,16.37,0,0,1-14-8.07,31.21,31.21,0,0,0,10.9,3l-1.65-.5A25.16,25.16,0,0,1,71,49.29a43.45,43.45,0,0,0,11.7,5.44c-3.8-2.55-7.64-5.2-10.53-8.79a19.22,19.22,0,0,1-4.52-8.45,56.72,56.72,0,0,0,4.17,4.2,29.85,29.85,0,0,0,10.7,5.66c-.68-.74-1.8-.72-2.59-1.33C74,42.52,69,37.15,67,30.48a29,29,0,0,0,5.46,5.14c7.42,5.09,16.41,7,25.13,8.54,2.77.52,5.71.71,8.19,2.19,2.75-2.37,6.37-3.06,9.81-3.78a68,68,0,0,1,4.17-10.75c6.85,1.55,14.08.81,20.8-1.05a39.18,39.18,0,0,0,7.32-2.95,44.16,44.16,0,0,0,16.61-.09,36.36,36.36,0,0,0,11.67-4.06,63.18,63.18,0,0,1,14,24.4,12.21,12.21,0,0,0,5.06-2.55c-1.8-.44-3.36-2.35-2.62-4.22.93-2,3.16-2.89,5.12-3.57,6.35-2.16,12.85-4,18.83-7.15m-59.34,7.91-.29,1.06c-.36,1.72-.81,3.42-1.22,5.13-.3-2,0-4.16-.64-6.06-1.13,0-2.25.26-3.38.34a111.62,111.62,0,0,1,.94,15.31c1.13-.12,2.27-.27,3.41-.34,0-2.07-.07-4.13,0-6.2.9,1.91,1.47,3.95,2.33,5.87a25.16,25.16,0,0,0,3.62-.14,55.58,55.58,0,0,0-2.15-5.5,18.74,18.74,0,0,1-1.11-2.55c.36-1.83,1.11-3.56,1.59-5.36.2-.63.4-1.26.61-1.89a27.67,27.67,0,0,0-3.66.33m6.31-.1a74.11,74.11,0,0,1-1,15l3.37,0c0-.94,0-1.88-.06-2.82l1.79,0c0,1,0,1.9.07,2.85l3.32.1a74.84,74.84,0,0,0-2-13.19c-.15-.64-.27-1.29-.38-1.93a26.45,26.45,0,0,0-5.1-.07m7.62,2.43c.15,1.52,0,3.07.32,4.58a29.62,29.62,0,0,0,2.25,2.26c.82.15,1.64.34,2.46.52-.1.93-.21,1.86-.25,2.8l-1.22-.12c.07-.64.15-1.28.24-1.92-1.17-.08-2.34-.16-3.51-.27,0,.88,0,1.77-.08,2.65a23.07,23.07,0,0,0,2.08,2.51c1.19,0,2.37.09,3.55.19q1.12-1,2.26-1.93a33.3,33.3,0,0,0,.31-4.41c-.76-.79-1.47-1.62-2.31-2.33-.81-.25-1.65-.39-2.48-.56q0-1.43-.1-2.86l1.22.1c0,.67,0,1.34.06,2a27.17,27.17,0,0,0,3.39.41c-.06-1-.13-1.94-.17-2.92-.79-.83-1.58-1.67-2.29-2.56a26.75,26.75,0,0,0-3.67-.43,28.14,28.14,0,0,0-2.06,2.28m-26.5-.91c-.64.81-1.28,1.61-1.93,2.4q.6,5.42.76,10.88A23.29,23.29,0,0,0,145.86,55c1.19,0,2.37-.29,3.56-.42A25.62,25.62,0,0,0,151.49,52c0-1.49-.1-3-.13-4.45-1.12.06-2.24.2-3.36.28,0,1.28.15,2.55.14,3.83-.42.1-.84.19-1.27.27-.06-3.21-.33-6.4-.64-9.59l1.33-.1c.07,1,.15,1.94.21,2.91a32.85,32.85,0,0,0,3.37-.41c-.11-1.2-.17-2.41-.26-3.61-.81-.64-1.65-1.25-2.51-1.84-1.25.17-2.48.39-3.72.57m35.44,1.95a37.52,37.52,0,0,1,.27,4.37,18.87,18.87,0,0,0,2.33,2.57l2.36.59c-.06.85-.12,1.71-.17,2.56h-1.2c0-.66,0-1.32,0-2-1.13-.12-2.26-.28-3.38-.4-.09.85-.17,1.7-.24,2.56.62.83,1.25,1.65,1.85,2.49,1.2.14,2.38.4,3.59.45a12.12,12.12,0,0,0,2.67-1.67,24.75,24.75,0,0,1,.43-4,17.24,17.24,0,0,0-2.53-2.75,19.25,19.25,0,0,0-2.29-.63c0-1-.11-2-.15-3l1.19.28c.08.7.11,1.4.15,2.11l3.36.62c-.07-1-.07-2-.2-3-.68-1.13-1.65-2.06-2.43-3.12-1.2-.14-2.38-.4-3.59-.47a14.6,14.6,0,0,0-2.08,2.47m-41.7-.79c.29,5,.81,10.07.92,15.12,1.15-.16,2.31-.31,3.45-.58-.1-5.06-.49-10.12-.93-15.16a34.47,34.47,0,0,0-3.44.61m-15.33.7a11.78,11.78,0,0,0-.46,1.85,7.37,7.37,0,0,1-1.82.91c-3.49.81-7,1.57-10.45,2.48-2.68.91-4.71,3-6.48,5.13a39,39,0,0,0-8.09,20.3c-.12,2.31-.22,4.84,1.29,6.78l1.4.59,1.29.36c1.35-2.19,2.64-4.42,4-6.6.2-.39.59-.78.37-1.24-1.54-.52-3.48-1.11-3.86-2.93a9.43,9.43,0,0,1,2.21-7c2.14-2.86,5.65-3.81,8.87-4.88,3.29-1.27,7-1.74,9.93-3.74,3.49-3,3.59-8.06,4.27-12.29a8.13,8.13,0,0,0-2.45.35m12.72-.18c-.71.3-1.64.24-2.17.82-.64,1.85-1,3.78-1.66,5.62-.07-1.79-.16-3.57-.25-5.36-1.19.31-2.38.66-3.56,1,.29,5,.69,10,1,14.94,1.18-.22,2.35-.56,3.54-.75,0-2.38-.44-4.73-.44-7.11.86,2.12,1.84,4.19,2.69,6.31a19,19,0,0,0,3.76-.71c-.39-1-.86-2-1.3-3-.75-1.67-1.6-3.29-2.42-4.93.27-.73.53-1.47.75-2.21.52-1.61,1.08-3.2,1.55-4.83l-1.48.23m62.31,12.7c-.29,1.69-.84,3.32-1.16,5l-.37.37-1.4-.25c-.15,1.51-.41,3-.63,4.5l1.31,0a30.78,30.78,0,0,0-.82,7.82c-1,.55-1.9,1.28-3.07,1.06.29-1.77.76-3.5,1.22-5.24a15.29,15.29,0,0,0,.59-6.81,3.37,3.37,0,0,0-4.37-2.34,10.26,10.26,0,0,0-4.92,4.06c.51-1.74,1-3.48,1.38-5.25l-2.24.22c-1.05.33-2.22.17-3.23.59a13.48,13.48,0,0,0-1,2.71,37.6,37.6,0,0,0-1.42,8.42c-1.38,1.35-2.72,3-4.73,3.37-2.08.19-3.22-2-3.78-3.68a32.93,32.93,0,0,0,3.49-1.69,12.06,12.06,0,0,0,3.58-3.41,5,5,0,0,0-2.41-7.12c-1.6-.64-3.29,0-4.74.74A16.11,16.11,0,0,0,166,60.69a17.4,17.4,0,0,0-2.31,8.51c-.6,1.19-1.84,1.83-2.87,2.59l-1.48,0c-.38-2.32.42-4.61,1-6.85.59-2,1.11-4.07,1.71-6.09.2-.78.42-1.55.62-2.33-.89.09-1.79.16-2.68.3-1.1,2.06-2.18,4.18-4.06,5.65.1-.84.19-1.68.33-2.51a8.79,8.79,0,0,0-.8-2.67,9.76,9.76,0,0,0-2.31,0,7.12,7.12,0,0,0-2.95,4.38c-.12,1.75-.46,3.92,1.19,5.11a9.79,9.79,0,0,1-1,3.12,34,34,0,0,1-3.83,3.87c-.56,0-1.83.53-1.74-.5-.1-2.44.8-4.8,1.33-7.16.6-2.17,1.24-4.34,1.83-6.51.17-.53.39-1,.55-1.57a8.63,8.63,0,0,0-2.89.42,17.66,17.66,0,0,1-3.91,6c0-1.72.46-3.63-.71-5.08h-1.9A7.74,7.74,0,0,0,136,63.49c-.55,2-.83,4.52.91,6a10,10,0,0,1-3.47,5.88c-.78.69-2.19,1-2.9.05.84-3,1.84-6.06,1.91-9.22,0-1.48.11-3.24-1.14-4.29a6.49,6.49,0,0,0-5.94,1.29,16.55,16.55,0,0,0-6.62,7.95A23,23,0,0,0,117,79c.22,2.44.71,5.21,2.78,6.79a4.48,4.48,0,0,0,4.45-.39,14.07,14.07,0,0,0,4.88-6.26,6.51,6.51,0,0,0,2.54.54,10.59,10.59,0,0,0,3.27-2.4c.88-1.34,1.78-2.66,2.62-4,1.24-1.65,1.55-4.06,3.56-5-.37,1-.74,1.94-1.07,2.93a23.22,23.22,0,0,0-1,6.22c.28.86.52,1.72.79,2.58.62.6,1.26,1.44,2.23,1.37,1.18.11,2.13-.73,2.95-1.45,2.56-2.49,4.44-5.55,6.51-8.44a35.45,35.45,0,0,0,2.46-4.3c.22-.68,1-.75,1.57-1.06-1.59,3.73-3,8.64-.32,12.18a3.49,3.49,0,0,0,3.52,0,26.57,26.57,0,0,0,5.33-6c.73,2.62,2.78,5.32,5.77,5.21,3.58.21,6.21-2.55,8.14-5.19.25,1.68.36,3.37.55,5.06,1.68-.32,3.32-.83,5-1.18.08-2.88-.64-6,.49-8.71,1.25-1.7,2.48-3.56,4.37-4.63l-.3.71c-.34,1.44-.82,2.84-1.2,4.26-.17.72-.32,1.44-.52,2.16a17.37,17.37,0,0,0,.06,4.45c.69,1.59,1.83,3.3,3.74,3.43,2.25.07,3.8-1.72,5.24-3.18a8,8,0,0,0,2.6,3.65,4.16,4.16,0,0,0,4.59,0A25.69,25.69,0,0,0,211,69.2c.79,2.09,2.09,3.94,2.79,6.06.4,1.27-.41,3.05-1.92,2.85a4.15,4.15,0,0,1-1.8-2.27c-.17-.71-.35-1.42-.57-2.12a23.9,23.9,0,0,0-3.51,3.68,7.9,7.9,0,0,0,3.42,3.76,11.5,11.5,0,0,0,7.39,0c2.23-1.1,4.54-2.47,7.13-2.23a3.89,3.89,0,0,1,3.38,2.55,3.1,3.1,0,0,1-1.72,3.15c-2.95,1.9-6.61,2-10,1.7-7.19-.25-14.15-2.29-21.14-3.83a120.44,120.44,0,0,0-20.86-3.32,9.15,9.15,0,0,1-5.77,0c-2-.84-4.13-.65-6.2-.74a5.84,5.84,0,0,1-6.26,1.92,21.2,21.2,0,0,1-2.08-1.68,31.47,31.47,0,0,0-5.38,1.14c-1.4,1.69-3.07,3.78-5.47,3.74-1.58.1-2.85-1.08-3.76-2.24-1,.16-1.92.41-2.88.58a33.67,33.67,0,0,0-6,2,17.57,17.57,0,0,1-2.67,3,11.52,11.52,0,0,1-7.46,1.81,8.42,8.42,0,0,0-1.3.62c-1.37.86-2.73,1.73-4.07,2.64-1,.94-1.32,2.33-2,3.51-1.77,3.47-3.24,7.24-6.08,10a25.73,25.73,0,0,1-7.81,5.41,28.46,28.46,0,0,0-2.19,4.52c8.67-3,18.06-4.37,27.16-2.8,2.14.33,4.11,1.23,6.2,1.73a27.81,27.81,0,0,1,6.19-12.53,25,25,0,0,1,8.84-6.07c1.63-.68,3.32-1.2,5-1.72a93.65,93.65,0,0,1,32.31-2c6.1.48,12.2,1,18.31,1.42,6.36.06,12.88.64,19.1-1,.53-.19,1.07-.36,1.61-.54a26.46,26.46,0,0,0,4.58-2.06c2.4-1.48,4.89-3.59,5.29-6.55.42-2.77-1.49-5.29-3.72-6.68-2.5-1.06-5.23-.23-7.7.46-.72.3-1.42.64-2.12,1a8,8,0,0,0,.47-5.32c-.59-1.69-1.65-3.17-2.29-4.83-.46-1.26.24-2.5.29-3.73-1.75-.2-3.49-.48-5.22-.78a42.8,42.8,0,0,1-1.58,4.88c-1.32,2.63-3.17,5.43-6.25,6.08-1.33.36-2.07-1.15-2.08-2.26a37.49,37.49,0,0,1,1.15-7.39l2.83.47c.21-1.37.46-2.73.59-4.1-.86-.19-1.71-.37-2.58-.52.62-2,1-4.13,1.57-6.17-2,0-4-.08-6,0m-84.8,3.57c-.7.27-1.54.56-1.84,1.33-2.46,4.75-3.51,10.07-4.24,15.33-1,6.12-1.67,12.31-3.37,18.29a36.79,36.79,0,0,1-2.78,7,4.91,4.91,0,0,1-3.58,2.85c-.87-1.51-.66-3.31-.66-5,.1-3,1-6,1.45-9-2.65,2.6-5,5.52-7.61,8.15,0,2.63-.55,5.31.26,7.88a4.87,4.87,0,0,0,4.17,3.92c3.12.24,6-1.53,8.09-3.69,3.49-3.63,5.77-8.23,7.58-12.89A65.53,65.53,0,0,0,115,72c.28-5.16.52-10.45,2.56-15.28A22,22,0,0,0,113.29,57.86Z"/><path class="a" d="M166.07,47.66c.41-2-.05-4.12.44-6.13.42,2,.61,4.11.92,6.17Z"/><path class="a" d="M170.52,60.17a15.71,15.71,0,0,1,1.42-.8c1,.31.58,1.49.65,2.28-.09,2-2,3.07-3.54,3.92A10.83,10.83,0,0,1,170.52,60.17Z"/><path class="a" d="M123.26,73.61c.56-3.17,1.4-6.77,4.28-8.65-.44,1-.92,1.93-1.35,2.91A13.24,13.24,0,0,0,127,77c-.36,1.34-1.38,3.55-3.12,3.07C122.8,78.15,123.09,75.76,123.26,73.61Z"/></svg>