<svg id="Camada_1" data-name="Camada 1" xmlns="http://www.w3.org/2000/svg" viewBox="0 0 300 120"><defs><style>.cls-1{fill:#fff;}</style></defs><title>kickstarter</title><path class="cls-1" d="M272.87,52.38V68.77a7.1,7.1,0,0,0,7,7.14,6.7,6.7,0,0,0,6.52-4.69l.74,1.3a7,7,0,0,0,6,3.39A6.92,6.92,0,0,0,299,65.32L296.21,61a8.32,8.32,0,0,0,3.21-6.83,9.57,9.57,0,0,0-9.83-9.55h-9.1c-4.94,0-7.62,2.66-7.62,7.77"/><path class="cls-1" d="M270.78,69.91a5.69,5.69,0,0,0-4.56-5.78,4.41,4.41,0,0,0,1.92-3.84,4.28,4.28,0,0,0-1.92-3.84,5.61,5.61,0,0,0,4.56-5.79,6,6,0,0,0-6-6H253.93c-5,0-7.67,2.68-7.67,7.79V68.13c0,5.15,2.7,7.78,7.67,7.78h10.89a5.93,5.93,0,0,0,6-6"/><path class="cls-1" d="M237.81,68.87V58.07a6.74,6.74,0,0,0-.37-13.46H223.25a6.68,6.68,0,0,0-6.73,6.73,6.75,6.75,0,0,0,6.37,6.73v10.8a7.47,7.47,0,0,0,14.92,0"/><path class="cls-1" d="M188.87,52.38V68.77a7.1,7.1,0,0,0,7,7.14,6.7,6.7,0,0,0,6.52-4.69l.74,1.3a7,7,0,0,0,6,3.39A6.92,6.92,0,0,0,215,65.32L212.21,61a8.32,8.32,0,0,0,3.21-6.83,9.57,9.57,0,0,0-9.83-9.55h-9.1c-4.89,0-7.62,2.66-7.62,7.77"/><path class="cls-1" d="M171.61,70c1.78,3.68,4.29,5.44,7.38,5.44,5.55,0,9.48-5,7.07-10.68l-6.44-14.92c-1.57-3.68-3.93-5.7-8-5.7s-6.33,2-7.95,5.7l-6.44,14.92c-2.46,5.65,1.51,10.68,7,10.68,3,0,5.55-1.76,7.33-5.44"/><path class="cls-1" d="M153.27,68.87V58.07a6.73,6.73,0,0,0-.36-13.46H138.74A6.68,6.68,0,0,0,132,51.34a6.75,6.75,0,0,0,6.38,6.73v10.8a7.46,7.46,0,0,0,14.89,0"/><path id="Shape-Copy-7" class="cls-1" d="M132,65.76c0-3.14-1.57-5.34-3.92-7.44l-1.94-1.72c2.83-.42,4.71-2.31,4.71-5.08,0-4.66-3.71-7.43-11.55-7.43-7.69,0-12.19,3.87-12.19,10,0,3.15,1.62,5.29,4,7.44L113,63.25h0c-3.51,0-6,2-6,5.23,0,4.61,3.87,7.43,12.13,7.43,8.1,0,12.91-3.92,12.91-10.15"/><path class="cls-1" d="M105.39,68.38a6.91,6.91,0,0,0-1.32-4.1l-3.37-4.62L104.07,55a6.78,6.78,0,0,0,1.32-4.1,6.9,6.9,0,0,0-7-6.8,7.29,7.29,0,0,0-5.8,3L91,49.38a6.7,6.7,0,0,0-6.74-5.29,6.92,6.92,0,0,0-7,6.95V68.43a7,7,0,0,0,7,7,6.61,6.61,0,0,0,6.69-5.09l1.47,2.08a7.15,7.15,0,0,0,5.85,3,7.08,7.08,0,0,0,7.16-7"/><path class="cls-1" d="M74.61,66.79c0-3.32-1.66-5.65-5-7.05,3.32-1.4,5-3.68,5-7.05,0-5-4.2-8.6-11-8.6A15.23,15.23,0,0,0,48,59.74,15.23,15.23,0,0,0,63.66,75.39c6.75,0,11-3.57,11-8.6"/><path class="cls-1" d="M37.85,44.09a7.57,7.57,0,0,0-7.59,7.49V67.9a7.57,7.57,0,0,0,15.13,0V51.58a7.5,7.5,0,0,0-7.54-7.49"/><path class="cls-1" d="M28.17,68.38a7,7,0,0,0-1.31-4.1L23.5,59.66,26.86,55a6.87,6.87,0,0,0-5.68-10.9,7.26,7.26,0,0,0-5.78,3l-1.68,2.28A6.69,6.69,0,0,0,7,44.09,6.92,6.92,0,0,0,0,51V68.43a7,7,0,0,0,7,7,6.61,6.61,0,0,0,6.68-5.09l1.47,2.08a7.18,7.18,0,0,0,13-4"/></svg>