<svg xmlns="http://www.w3.org/2000/svg" viewBox="0 0 300 120"><defs><style>.a{fill:#fff;}</style></defs><title>last-fm</title><path class="a" d="M67.1,92.1l-3.5-9.6s-5.7,6.4-14.4,6.4c-7.6,0-13-6.6-13-17.2,0-13.6,6.8-18.5,13.6-18.5,9.7,0,12.8,6.3,15.5,14.4l3.5,11C72.3,89.3,78.9,98,98,98c13.7,0,23-4.2,23-15.2,0-8.9-5.1-13.6-14.6-15.8l-7.1-1.5C94.5,64.3,93,62.3,93,59c0-3.8,3-6,7.8-6,5.3,0,8.2,2,8.6,6.7l11-1.3c-.9-9.9-7.7-14-19-14-9.9,0-19.7,3.8-19.7,15.8,0,7.5,3.6,12.3,12.8,14.5l7.5,1.8c5.6,1.3,7.5,3.6,7.5,6.9,0,4.1-4,5.7-11.5,5.7-11.2,0-15.8-5.9-18.5-13.9l-3.6-11c-4.6-14.4-12-19.7-26.7-19.7C33,44.5,24.3,54.8,24.3,72.2c0,16.8,8.6,25.9,24.1,25.9,12.7-.1,18.7-6,18.7-6ZM19.8,86.9a12.89,12.89,0,0,1-3.6.6c-2.7,0-4.5-1.2-4.5-4.4V22.8H0v63c0,8.3,5.7,11.7,12.5,11.7a26.8,26.8,0,0,0,7-1l.3-9.6Zm139.7-1.8c-2.9,2-5.3,3-8.6,3-4.2,0-6.5-2.2-6.5-7.6V54.6h15.2V45.5H144.5V33.3l-11.7,1.4V45.5h-7.4v9.1h7.4V82.9c0,10.2,5.9,15,15.4,15a27.22,27.22,0,0,0,13.5-3.1Zm10.1,4a8.2,8.2,0,1,0,8.1-8.2A8.09,8.09,0,0,0,169.6,89.1ZM198,54.6v42h11.6v-42h13V45.5h-13V40.9c0-7,3-9.2,7.8-9.2a16.68,16.68,0,0,1,8.4,2.2l1.9-9.7A26.59,26.59,0,0,0,216.5,22c-9.7,0-18.6,4.6-18.6,18.5v5.1h-7.4v9.1H198Zm70.8,1c-1.3-8.3-6.7-11.3-13.8-11.3s-13.1,3.2-15.8,11l-1.4-9.8h-9.4v51H240V67.8c0-9.8,5.1-13.6,10.5-13.6,5.6,0,8,3.8,8,9.8V96.6H270V67.7c0-9.7,5.2-13.5,10.6-13.5s7.8,3.8,7.8,9.8V96.6H300V59.9c0-10.9-6.4-15.6-14.9-15.6-7.2.1-13.6,3.3-16.3,11.3Z"/></svg>