<?xml version="1.0" encoding="utf-8"?>
<!-- Generator: Adobe Illustrator 23.0.6, SVG Export Plug-In . SVG Version: 6.00 Build 0)  -->
<svg version="1.1" id="Camada_1" xmlns="http://www.w3.org/2000/svg" xmlns:xlink="http://www.w3.org/1999/xlink" x="0px" y="0px"
	 viewBox="0 0 300 120" style="enable-background:new 0 0 300 120;" xml:space="preserve">
<title>last-fm</title>
<path d="M67.1,92.1l-3.5-9.6c0,0-5.7,6.4-14.4,6.4c-7.6,0-13-6.6-13-17.2c0-13.6,6.8-18.5,13.6-18.5c9.7,0,12.8,6.3,15.5,14.4
	l3.5,11C72.3,89.3,78.9,98,98,98c13.7,0,23-4.2,23-15.2c0-8.9-5.1-13.6-14.6-15.8l-7.1-1.5C94.5,64.3,93,62.3,93,59c0-3.8,3-6,7.8-6
	c5.3,0,8.2,2,8.6,6.7l11-1.3c-0.9-9.9-7.7-14-19-14c-9.9,0-19.7,3.8-19.7,15.8c0,7.5,3.6,12.3,12.8,14.5l7.5,1.8
	c5.6,1.3,7.5,3.6,7.5,6.9c0,4.1-4,5.7-11.5,5.7c-11.2,0-15.8-5.9-18.5-13.9l-3.6-11c-4.6-14.4-12-19.7-26.7-19.7
	c-16.2,0-24.9,10.3-24.9,27.7c0,16.8,8.6,25.9,24.1,25.9C61.1,98,67.1,92.1,67.1,92.1z M19.8,86.9c-1.2,0.4-2.4,0.6-3.6,0.6
	c-2.7,0-4.5-1.2-4.5-4.4V22.8H0v63c0,8.3,5.7,11.7,12.5,11.7c2.4,0,4.7-0.4,7-1L19.8,86.9z M159.5,85.1c-2.9,2-5.3,3-8.6,3
	c-4.2,0-6.5-2.2-6.5-7.6V54.6h15.2v-9.1h-15.1V33.3l-11.7,1.4v10.8h-7.4v9.1h7.4v28.3c0,10.2,5.9,15,15.4,15
	c4.7,0.1,9.3-0.9,13.5-3.1L159.5,85.1z M169.6,89.1c0,4.5,3.7,8.2,8.2,8.2s8.2-3.7,8.2-8.2s-3.7-8.2-8.2-8.2c0,0-0.1,0-0.1,0
	c-4.5,0-8.1,3.6-8.1,8.1C169.6,89,169.6,89.1,169.6,89.1z M198,54.6v42h11.6v-42h13v-9.1h-13v-4.6c0-7,3-9.2,7.8-9.2
	c2.9,0,5.8,0.7,8.4,2.2l1.9-9.7c-3.5-1.5-7.4-2.3-11.2-2.2c-9.7,0-18.6,4.6-18.6,18.5v5.1h-7.4v9.1L198,54.6L198,54.6z M268.8,55.6
	c-1.3-8.3-6.7-11.3-13.8-11.3s-13.1,3.2-15.8,11l-1.4-9.8h-9.4v51H240V67.8c0-9.8,5.1-13.6,10.5-13.6c5.6,0,8,3.8,8,9.8v32.6H270
	V67.7c0-9.7,5.2-13.5,10.6-13.5s7.8,3.8,7.8,9.8v32.6H300V59.9c0-10.9-6.4-15.6-14.9-15.6C277.9,44.4,271.5,47.6,268.8,55.6
	L268.8,55.6z"/>
</svg>
