<svg xmlns="http://www.w3.org/2000/svg" viewBox="0 0 300 120"><defs><style>.a{fill:#fff;}</style></defs><title>linkedin</title><path class="a" d="M223.81,28c-.43-3,1.91-6.17,5-5.93q33.1,0,66.22,0c2.43-.21,4.19,1.81,4.93,3.92V93.81c-.59,2.23-2.45,4.32-4.93,4.12q-33.08,0-66.15,0c-3.14.28-5.53-2.93-5.11-5.89q0-32,0-64m13.6,5.41c-4.44,2.25-4.88,9-.68,11.77,4.12,3.39,10.69-.14,11-5.19.49-5.11-5.82-9.47-10.3-6.58m26.82,22.43c0-1.6,0-3.2,0-4.8-3.51.11-7,.12-10.53,0q-.08,17.93,0,35.85c3.71-.15,7.42-.11,11.14-.05.3-7.26-.55-14.6.65-21.8A6.58,6.58,0,0,1,273,59.68c2.68.12,4.28,2.89,4.32,5.34.38,7.27,0,14.56.2,21.83,3.72-.13,7.45-.11,11.18,0,.1-7.3,0-14.59,0-21.88,0-3.77-.49-7.76-2.64-11-3-3.95-8.62-4.83-13.22-3.93-3.6.6-6.27,3.21-8.66,5.76m-29.06-4.78q-.09,17.88,0,35.75c3.71-.06,7.43-.1,11.14.05q.09-17.92,0-35.84C242.6,51.17,238.89,51.13,235.17,51.06Z"/><path class="a" d="M41.4,33.4c4.49-2.86,10.79,1.48,10.29,6.6-.29,5-6.8,8.52-10.93,5.23C36.49,42.55,36.91,35.63,41.4,33.4Z"/><path class="a" d="M0,33.87H11.88V76.2c7.28,0,14.57.07,21.85-.07q.07,5.35,0,10.69c-11.24-.14-22.49,0-33.73-.06Z"/><path class="a" d="M97.38,86.84c0-17.68-.1-35.35,0-53,3.72.08,7.44.07,11.16,0,.15,10.56-.07,21.12.12,31.67,4.07-4.88,8.39-9.56,12.53-14.39,4.62,0,9.24.11,13.85-.14-4.65,5.67-9.76,11-14.67,16.43,4.65,6.53,9.5,12.92,14.18,19.43-4.52-.13-9,0-13.56-.05-4.55-5.43-8.25-11.64-12.31-17.47-.24,5.84,0,11.7-.13,17.55C104.85,86.72,101.11,86.73,97.38,86.84Z"/><path class="a" d="M201.32,33.85c3.74,0,7.48,0,11.22,0,.1,17.68.06,35.35,0,53-3.48-.1-6.95-.1-10.43,0-.09-1.51-.18-3-.25-4.53-5.67,8-18.49,7.55-24.52.27-7.84-9.15-5.62-25.94,5.51-31.5,6-2.5,14.27-1.89,18.43,3.65.05-7,0-13.9,0-20.85M188.47,60.7c-6.33,3.62-5.83,15.26,1.66,17.17,6.09,2.08,12.66-3.58,11.82-9.88C202.14,61.4,193.86,57.51,188.47,60.7Z"/><path class="a" d="M66.8,56a14.79,14.79,0,0,1,19-4.75c4.1,2.28,5.38,7.34,5.56,11.7,0,7.95.05,15.91,0,23.86-3.71-.16-7.43-.12-11.14,0-.24-7.29.32-14.62-.32-21.89,0-2.66-2-5.49-4.86-5.29-4.21-.55-7.19,3.53-7.29,7.38-.38,6.6-.05,13.22-.21,19.83-3.73-.13-7.46-.12-11.19,0-.08-11.93-.06-23.86,0-35.79q5.25.14,10.51,0C66.83,52.72,66.82,54.39,66.8,56Z"/><path class="a" d="M134.18,60.18c4.7-9.83,18.41-13.38,27.66-8.14,6.79,4.15,8.45,12.84,7.57,20.2q-12.78,0-25.55,0C145.11,80,156.24,80.87,160.4,75c2.66,2,5.27,4,7.88,6a20.72,20.72,0,0,1-19.39,6.85A19.31,19.31,0,0,1,132.77,73c-.71-4.27-.59-8.88,1.41-12.81m9.48,4.08c5,.05,10,0,15,0-.37-3.74-3.77-7-7.63-6.62C147.28,57.68,144.49,60.82,143.66,64.26Z"/><path class="a" d="M39.15,51.07c3.71.06,7.43.1,11.14,0q.07,17.91,0,35.83c-3.71-.14-7.43-.1-11.15,0Q39.08,68.93,39.15,51.07Z"/></svg>