<svg id="Layer_1" data-name="Layer 1" xmlns="http://www.w3.org/2000/svg" viewBox="0 0 300 120"><defs><style>.cls-1{fill:#fff;}</style></defs><title>macys</title><polygon class="cls-1" points="33.35 19.26 25.52 43.32 0 43.32 20.59 58.21 12.87 82.39 33.35 67.5 53.95 82.39 46.12 58.21 66.6 43.32 41.19 43.32 33.35 19.26"/><path class="cls-1" d="M138.23,41.2a12.76,12.76,0,0,0-5.37-3.36,19,19,0,0,0-6.94-1.12,18.09,18.09,0,0,0-7.27,1.45,18.67,18.67,0,0,0-5.82,4l-.12.12a16.28,16.28,0,0,0-2,2.79,20.65,20.65,0,0,0-1.12,2.35c-.22-.44-.56-1.23-1-2a11.1,11.1,0,0,0-2-3,15.07,15.07,0,0,0-5.71-4,18.78,18.78,0,0,0-7.61-1.46,16.36,16.36,0,0,0-7.17,1.57,17.16,17.16,0,0,0-7.83,7.61V38.06H75.66V83h2.58V57.43a25.9,25.9,0,0,1,1-7.62,16,16,0,0,1,3-5.59A10.77,10.77,0,0,1,87,40.64a12.45,12.45,0,0,1,6-1.24,18.57,18.57,0,0,1,6.83,1.46A13.58,13.58,0,0,1,107,49.14a21.88,21.88,0,0,1,.89,7.28V82.83h2.57V57.54a31.85,31.85,0,0,1,.68-7.84,14.9,14.9,0,0,1,2.91-5.59,11.38,11.38,0,0,1,5.37-3.92,18.66,18.66,0,0,1,6-1.12,16.38,16.38,0,0,1,5.94,1A11.93,11.93,0,0,1,135.77,43a12.84,12.84,0,0,1,3.36,5.93,28.62,28.62,0,0,1,1.12,8.73V82.83h2.57l.45-25.29a30.92,30.92,0,0,0-1.34-9.63A14.59,14.59,0,0,0,138.23,41.2Z"/><path class="cls-1" d="M189.16,49.48A20.13,20.13,0,0,0,181.89,41a23.85,23.85,0,0,0-13.55-4,22.75,22.75,0,0,0-17.57,7.5,24.23,24.23,0,0,0,0,32A22.93,22.93,0,0,0,168.34,84a24.58,24.58,0,0,0,12.43-3.24,24.26,24.26,0,0,0,8.39-9.07V83h2.58V38.17h-2.58Zm-1.45,2.57a24.82,24.82,0,0,1,1.12,3.7,17.32,17.32,0,0,1,.44,4,15.52,15.52,0,0,1-.22,4,16.8,16.8,0,0,1-1,3.8,20.22,20.22,0,0,1-19.47,13.77,20.73,20.73,0,0,1-15.79-6.61,22.29,22.29,0,0,1-5.48-14.55,20.64,20.64,0,0,1,21-21.15,22.15,22.15,0,0,1,11.76,3.36A21.87,21.87,0,0,1,187.71,52.05Zm1.79-.89Z"/><path class="cls-1" d="M201.59,44.89a24.71,24.71,0,0,1,7-4.48A22.13,22.13,0,0,1,216.7,39h.22a22.16,22.16,0,0,1,11,3,20.25,20.25,0,0,1,8.28,10.07l.11.23h2.91l-.22-.45A22.49,22.49,0,0,0,229.34,40a24.53,24.53,0,0,0-12.53-3.35A23.52,23.52,0,0,0,200,43.43a23.77,23.77,0,0,0-6.83,16.91,24.4,24.4,0,0,0,6.16,16.11c4.36,4.82,10.52,7.39,17.91,7.39a23,23,0,0,0,21.71-15l.22-.45h-2.91l-.11.23a18.23,18.23,0,0,1-6.6,8.62,20.81,20.81,0,0,1-12.87,4.14,21.9,21.9,0,0,1-8.06-1.57,24.83,24.83,0,0,1-6.72-4.36,22,22,0,0,1-6.27-15.34,25.31,25.31,0,0,1,1.68-8.62A17.78,17.78,0,0,1,201.59,44.89Zm30.22-.22a19.72,19.72,0,0,1,4.81,7.27h0A22.88,22.88,0,0,0,231.81,44.67Z"/><path class="cls-1" d="M275.46,38h-2.91l-.11.22c0,.23-4.37,10.41-8.73,20.71l-8.62,20.26-8.17-20.26c-5.26-13.43-8.29-20.59-8.29-20.71l-.11-.22h-2.91l17.91,44.66-8.06,18.13h2.91l.11-.22s.23-.56.56-1.46c1.35-3.13,5-11.75,9.29-21.49,1.12-2.57,2.24-5.26,3.47-7.94l10.53-24.29c1.79-4.14,2.91-6.83,2.91-6.94Z"/><path class="cls-1" d="M295.61,61.12a22.67,22.67,0,0,0-8.51-3.36l-.34-.11a22.2,22.2,0,0,1-7.16-3.13,7.69,7.69,0,0,1-2.69-5.94,8.85,8.85,0,0,1,.56-3.47,7.92,7.92,0,0,1,1.8-2.91A10.13,10.13,0,0,1,282.4,40a10.47,10.47,0,0,1,4.14-.78h.22a8.88,8.88,0,0,1,3.59.67,8.51,8.51,0,0,1,4.81,4.82,9.77,9.77,0,0,1,.67,3.69v.34h2.58v-.34a12,12,0,0,0-3.25-8.28c-2.13-2.13-5-3.14-8.62-3.14a13.52,13.52,0,0,0-8.39,2.8,10.89,10.89,0,0,0-3.81,8.84,10.26,10.26,0,0,0,3.58,8c2.35,1.9,5.49,2.91,8.62,3.69,3.81.9,6.49,2.13,8.17,3.7a9.53,9.53,0,0,1,2.69,6.94v.33a9.24,9.24,0,0,1-.79,4,9.53,9.53,0,0,1-2.23,3.25A10.15,10.15,0,0,1,291,80.82a11.06,11.06,0,0,1-4.26.78,11.75,11.75,0,0,1-8.17-2.91,11.34,11.34,0,0,1-3.13-7.94v-.34l-2.57.11v.9a12.24,12.24,0,0,0,.89,4.47,9.73,9.73,0,0,0,2.46,3.81,13.41,13.41,0,0,0,4.7,3.13A16.21,16.21,0,0,0,286.76,84a14.26,14.26,0,0,0,5.38-1.12,15.09,15.09,0,0,0,4.36-3,13,13,0,0,0,2.69-4.25,10.93,10.93,0,0,0,.78-5C299.75,66.16,298.29,63.13,295.61,61.12Z"/><polygon class="cls-1" points="274 34.59 277.03 32.47 280.05 34.59 278.82 31.01 281.95 28.77 278.26 28.77 277.03 25.3 275.91 28.77 272.21 28.77 275.12 31.01 274 34.59"/></svg>