<?xml version="1.0" encoding="utf-8"?>
<!-- Generator: Adobe Illustrator 23.0.6, SVG Export Plug-In . SVG Version: 6.00 Build 0)  -->
<svg version="1.1" id="Layer_1" xmlns="http://www.w3.org/2000/svg" xmlns:xlink="http://www.w3.org/1999/xlink" x="0px" y="0px"
	 viewBox="0 0 300 120" style="enable-background:new 0 0 300 120;" xml:space="preserve">
<title>macys</title>
<polygon points="33.3,19.3 25.5,43.3 0,43.3 20.6,58.2 12.9,82.4 33.3,67.5 54,82.4 46.1,58.2 66.6,43.3 41.2,43.3 "/>
<path d="M138.2,41.2c-1.5-1.6-3.3-2.7-5.4-3.4c-2.2-0.8-4.6-1.2-6.9-1.1c-2.5,0-5,0.5-7.3,1.5c-2.2,1-4.2,2.3-5.8,4l-0.1,0.1
	c-0.8,0.9-1.4,1.8-2,2.8c-0.4,0.8-0.8,1.5-1.1,2.3c-0.2-0.4-0.6-1.2-1-2c-0.5-1.1-1.2-2.1-2-3c-1.6-1.8-3.5-3.1-5.7-4
	c-2.4-1-5-1.5-7.6-1.5c-2.5,0-4.9,0.5-7.2,1.6c-3.4,1.6-6.1,4.3-7.8,7.6v-8.1h-2.6V83h2.6V57.4c0-2.6,0.3-5.1,1-7.6
	c0.6-2,1.6-3.9,3-5.6c1.2-1.6,2.9-2.9,4.8-3.6c1.9-0.9,3.9-1.3,6-1.2c2.3,0.1,4.7,0.5,6.8,1.5c3.4,1.6,6,4.6,7.2,8.3
	c0.7,2.4,1,4.8,0.9,7.3v26.4h2.6V57.5c-0.1-2.6,0.1-5.3,0.7-7.8c0.6-2,1.6-4,2.9-5.6c1.4-1.8,3.2-3.2,5.4-3.9c1.9-0.7,4-1.1,6-1.1
	c2,0,4,0.3,5.9,1c1.7,0.6,3.2,1.6,4.4,2.9c1.6,1.6,2.8,3.7,3.4,5.9c0.8,2.8,1.2,5.8,1.1,8.7v25.2h2.6l0.4-25.3
	c0.1-3.3-0.4-6.5-1.3-9.6C141.3,45.4,140,43.1,138.2,41.2z"/>
<path d="M189.2,49.5c-1.6-3.5-4.1-6.4-7.3-8.5c-4-2.7-8.7-4.1-13.6-4c-6.7-0.2-13.1,2.5-17.6,7.5c-8,9.1-8,22.9,0,32
	c4.5,4.9,10.9,7.7,17.6,7.5c4.4,0,8.6-1.1,12.4-3.2c3.5-2.2,6.4-5.4,8.4-9.1V83h2.6V38.2h-2.6L189.2,49.5z M187.7,52
	c0.5,1.2,0.8,2.4,1.1,3.7c0.3,1.3,0.4,2.7,0.4,4c0.1,1.3,0,2.7-0.2,4c-0.2,1.3-0.5,2.6-1,3.8c-2.8,8.3-10.7,13.9-19.5,13.8
	c-6,0.2-11.7-2.2-15.8-6.6c-3.5-4-5.5-9.2-5.5-14.5C147,48.8,156,39.3,167.4,39c0.3,0,0.6,0,0.9,0c4.2,0,8.2,1.2,11.8,3.4
	C183.5,44.8,186.1,48.2,187.7,52z"/>
<path d="M201.6,44.9c2.1-1.9,4.4-3.4,7-4.5c2.6-1,5.3-1.5,8.1-1.4h0.2c3.9,0,7.7,1.1,11,3c3.8,2.4,6.7,5.9,8.3,10.1l0.1,0.2h2.9
	l-0.2-0.5c-1.7-5-5.2-9.1-9.7-11.8c-3.8-2.2-8.1-3.4-12.5-3.3c-6.3-0.1-12.3,2.4-16.8,6.8c-4.4,4.5-6.9,10.6-6.8,16.9
	c0,5.9,2.2,11.7,6.2,16.1c4.4,4.8,10.5,7.4,17.9,7.4c9.7,0.1,18.3-5.9,21.7-15l0.2-0.4h-2.9l-0.1,0.2c-1.3,3.5-3.6,6.5-6.6,8.6
	c-3.7,2.8-8.2,4.2-12.9,4.1c-2.8,0-5.5-0.5-8.1-1.6c-2.5-1.1-4.7-2.6-6.7-4.4c-4-4.1-6.3-9.6-6.3-15.3c0.1-2.9,0.6-5.9,1.7-8.6
	C198.2,49,199.7,46.7,201.6,44.9z M231.8,44.7c2.1,2,3.8,4.5,4.8,7.3l0,0C235.5,49.2,233.9,46.8,231.8,44.7z"/>
<path d="M275.5,38h-2.9l-0.1,0.2c0,0.2-4.4,10.4-8.7,20.7l-8.6,20.3l-8.2-20.3c-5.3-13.4-8.3-20.6-8.3-20.7l-0.1-0.2h-2.9l17.9,44.7
	l-8.1,18.1h2.9l0.1-0.2c0,0,0.2-0.6,0.6-1.5c1.4-3.1,5-11.8,9.3-21.5c1.1-2.6,2.2-5.3,3.5-7.9l10.5-24.3c1.8-4.1,2.9-6.8,2.9-6.9
	L275.5,38z"/>
<path d="M295.6,61.1c-2.6-1.7-5.5-2.8-8.5-3.4l-0.3-0.1c-2.6-0.6-5-1.7-7.2-3.1c-1.7-1.5-2.7-3.7-2.7-5.9c0-1.2,0.1-2.4,0.6-3.5
	c0.4-1.1,1-2.1,1.8-2.9c0.9-0.9,2-1.7,3.1-2.2c1.3-0.5,2.7-0.8,4.1-0.8h0.2c1.2,0,2.5,0.2,3.6,0.7c2.2,0.9,3.9,2.6,4.8,4.8
	c0.5,1.2,0.7,2.4,0.7,3.7v0.3h2.6v-0.3c0-3.1-1.1-6-3.3-8.3c-2.1-2.1-5-3.1-8.6-3.1c-3,0-6,1-8.4,2.8c-2.6,2.2-4,5.5-3.8,8.8
	c-0.1,3.1,1.3,6,3.6,8c2.4,1.9,5.5,2.9,8.6,3.7c3.8,0.9,6.5,2.1,8.2,3.7c1.8,1.9,2.8,4.4,2.7,6.9v0.3c0,1.4-0.2,2.7-0.8,4
	c-0.5,1.2-1.3,2.3-2.2,3.3c-1,1-2.1,1.8-3.4,2.3c-1.4,0.5-2.8,0.8-4.3,0.8c-3,0.1-5.9-0.9-8.2-2.9c-2-2.1-3.2-5-3.1-7.9v-0.3
	l-2.6,0.1v0.9c0,1.5,0.3,3,0.9,4.5c0.5,1.4,1.4,2.8,2.5,3.8c1.3,1.4,2.9,2.4,4.7,3.1c1.9,0.7,3.8,1.1,5.8,1.2c1.8,0,3.7-0.4,5.4-1.1
	c1.6-0.7,3.1-1.8,4.4-3c1.2-1.2,2.1-2.7,2.7-4.3c0.6-1.6,0.9-3.3,0.8-5C299.8,66.2,298.3,63.1,295.6,61.1z"/>
<polygon points="274,34.6 277,32.5 280,34.6 278.8,31 282,28.8 278.3,28.8 277,25.3 275.9,28.8 272.2,28.8 275.1,31 "/>
</svg>
