<svg xmlns="http://www.w3.org/2000/svg" viewBox="0 0 300 120"><defs><style>.a{fill:#fff;stroke:#fff;stroke-miterlimit:10;}</style></defs><title>mapquest</title><path class="a" d="M292.5,41.5V34H273.9V52.1l-.3-.9c-2-6-9.6-10.8-16.8-10.8-7.4,0-13.7,4.3-15.7,10.1A19,19,0,0,0,209,48.1V41.5H163.9l-1.6,2.4a19.43,19.43,0,0,0-11-3.5,19.06,19.06,0,0,0-17.2,10.8,19.08,19.08,0,0,0-28.2-7.3l-1.6-2.4H85.8l-1.6,2.4a19.43,19.43,0,0,0-11-3.5,18.9,18.9,0,0,0-16.1,8.9c-1.6-5.6-6-8.7-12.6-8.7-4.7,0-7.7,1.3-11.2,4.9a12.44,12.44,0,0,0-10.4-4.9,12.19,12.19,0,0,0-9.5,3.9l-1.6-2.8H.5V77H24V73l7.3,4.3L39.1,73v4H57.8V70.7a19,19,0,0,0,26.5,4.2l1.6,2h7.2V86h14.1V76a19.62,19.62,0,0,0,9.5,2.6,19.06,19.06,0,0,0,17.2-10.8,19,19,0,0,0,17.2,10.8,18.58,18.58,0,0,0,9.5-2.6V86h14.1V70.9a19.08,19.08,0,0,0,15.2,7.6,18.76,18.76,0,0,0,17-10.8,19.06,19.06,0,0,0,17.2,10.8h14.6V66.1a15.72,15.72,0,0,0,3.9-4.3,12.51,12.51,0,0,0,2.3,2.3l-4.1,3.6.4,1.2c2,6,9.6,10.8,16.8,10.8,7.7,0,14.1-4.6,15.8-10.8v9.7h18.7V56.3h7V41.5ZM54.1,73.3H42.9V66.6L31.4,73,20.3,66.5v6.8H4.3v-28H9.5l2.9,5.4,1.8-2c3.2-3.5,5.1-4.5,8.6-4.5,4,0,6.5,1.5,8.6,5.1l1.4,2.4,1.8-2.1c3.5-4.2,5.8-5.4,9.9-5.4,6.4,0,9.6,3.5,9.6,10.4V73.3Zm39-.1H87.7l-2.9-3.5L83.4,71a15.21,15.21,0,0,1-10.1,3.9,15.4,15.4,0,1,1,0-30.8A15.21,15.21,0,0,1,83.4,48L85,49.4l2.9-4.2h5.3l-.1,28Zm23.7,1.5a15.21,15.21,0,0,1-10.1-3.9L103.6,68V82.1H97V76.9h0V45.2h5.3l2.9,4.1,1.6-1.4a15.22,15.22,0,0,1,25.4,11.4A15.54,15.54,0,0,1,116.8,74.7ZM171,59.6V82.3h-6.6V68.2L161.3,71a15.3,15.3,0,1,1,0-22.8l1.6,1.4,2.9-4.1h5.3L171,59.6Zm34.1-.2h0v.1h0a15.2,15.2,0,1,1-30.4,0V45.3h30.4V59.4Zm27.4,6.5-5.9,3.5h8.5v5.5H224.3A15.28,15.28,0,0,1,209,59.7v-.1a15.3,15.3,0,0,1,30.6.1C239.5,60.6,236.2,63.7,232.5,65.9Zm25.5,10c-5.1,0-10.7-3.2-12.8-7.1l7.1-6.2-3.7-.8c-.1,0-4.5-1.1-4.6-7.4.1-5.6,5.7-10.2,12.6-10.2,5.1,0,10.7,3.2,12.8,7.1L262,57.7l3.9.7c.2.1,4.6.9,4.7,7.2C270.4,71.3,264.9,75.9,258,75.9Zm15.9-13.8a10.61,10.61,0,0,0-4.2-6.1l4.2-3.7Zm21.9-9.5h-7V74.7H277.6V37.8h11.1v7.5h7.1Z"/></svg>