<svg xmlns="http://www.w3.org/2000/svg" viewBox="0 0 300 120"><defs><style>.a{fill:#fff;}</style></defs><title>medium</title><path class="a" d="M282.6,89.1V67.3c0-7.1-.3-11.9-5.3-11.9a7.65,7.65,0,0,0-6.2,3.3,28.43,28.43,0,0,1,.7,6.8c0,4.9.1,11.1,0,17.3,0,1-.1,1.3.5,1.9l3.8,4.4H258.7V67.3c0-7.2-1-11.9-5.9-11.9-2.5,0-3.6,1.4-5,3.5v24c0,1-.1,1.3.7,1.9l3.7,4.4H234.8V55.5a2.44,2.44,0,0,0-.8-2l-3.6-3.6h17.4v7.9c2-5.5,5.3-8.9,11.7-8.9,5.8,0,9.8,3.2,11.4,9.3a13.59,13.59,0,0,1,13.2-9.3c7.8,0,11.6,5.7,11.6,16.6,0,5.2.1,11.1,0,17.3,0,1,0,1.4.5,1.9l3.8,4.4Zm-58.7-6.6c0,1-.3,1.3.4,2l4,4.7H210.9V80.5a12.61,12.61,0,0,1-12.3,8.7c-7.8,0-11.7-5.7-11.7-16.4,0-5.2-.1-10.9,0-17.3a2,2,0,0,0-.9-1.9L182.5,50H200V70.9c0,7,.6,11.7,5,11.7,2.5,0,4.5-1.6,5.9-3.5V55.5a2.52,2.52,0,0,0-.9-2l-3.4-3.6H224V82.5ZM169.6,30.9a7.13,7.13,0,0,1,7.1,7.1h0a7.1,7.1,0,1,1-7.1-7.1ZM163,89.1V55.5c0-1,.4-1.3-.3-2l-4.1-3.6H176V82.7c0,1,0,1.5.5,2l3.8,4.3H163ZM139.1,55.8a6.78,6.78,0,0,0-5.2-2.4c-4.3,0-8.4,3.9-8.4,15.3,0,10.7,3.5,14.5,8,14.5a6.94,6.94,0,0,0,5.6-3Zm13.1,26.7c0,1-.1,1.3.7,1.9l3.7,4.6H139.2V81c-2.4,5.4-6.6,8-11.7,8-9,0-15.5-7.1-15.5-20,0-12.1,7.1-20.2,16.9-20.2,5.1,0,8.5,2.4,10.3,6.3V38.8a2.25,2.25,0,0,0-.9-2l-3.5-3.6L152.2,31ZM95.4,65.2a16.24,16.24,0,0,0,.1-1.8c0-10.3-2-11.8-5.3-11.8S84,53.8,83.8,65.2ZM83.9,67.3c0,10.2,5.2,14.4,11.3,14.4a12.9,12.9,0,0,0,12-7.3h.2C105.4,84.3,99.2,89,90,89c-9.9,0-19.3-6-19.3-19.9,0-14.6,9.3-20.4,19.8-20.4,8.4,0,17.3,3.9,17.3,16.6a17.67,17.67,0,0,1-.1,1.9H83.9ZM68.5,89.1H42.4l5.2-5.8c.2-.2.2-.9.2-1.9V45.6L30.7,89.1,12.1,48.6a36.16,36.16,0,0,1-1.3-3.5V75.2a2.93,2.93,0,0,0,.8,2.6l7.9,11.3H0L7.9,77.8a2.93,2.93,0,0,0,.8-2.6V44c0-1.3.2-1.5-.4-2.3L2.2,32.5H20.7l16,35.4L50.6,32.5h18l-4.8,6c-.8.7-.8,1.3-.8,2.4V81.4c0,1,0,1.6.3,1.9Z"/></svg>