<svg id="Layer_1" data-name="Layer 1" xmlns="http://www.w3.org/2000/svg" viewBox="0 0 300.01 107.15"><defs><style>.cls-1{fill:#fff;}</style></defs><title>meetup</title><path class="cls-1" d="M176.76,64.17c-.41.62-.68,1-1,1.46-2.68,3.84-5.69,7.35-9.8,9.78-5.5,3.25-11.46,4.59-17.68,3.25-3.19-.69-6.16-2.48-9.16-3.9a1.5,1.5,0,0,0-1.69,0,72.68,72.68,0,0,1-7.81,4.4c-4.84,2.1-9.94,3.27-15.21,1.88a22.14,22.14,0,0,1-8.74-5c-1.83-1.59-1.95-1.59-3.8-.06a37.22,37.22,0,0,1-11.22,6,63.31,63.31,0,0,1-15.44,3.45c-6.44.64-12.41-.46-16.76-5.75A13.27,13.27,0,0,1,56.2,65.45c2.34-5.6,5-11,7.59-16.56,1.32-2.87,2.66-5.74,3.94-8.63a4.91,4.91,0,0,0,.36-1.74c.05-1.08.27-2.26-1-2.91a2.87,2.87,0,0,0-3.71.64A30.1,30.1,0,0,0,60.33,41c-2.88,5.54-5.67,11.12-8.49,16.69-2.11,4.18-4.18,8.37-6.31,12.54a7.51,7.51,0,0,1-9.92,3.92,3.69,3.69,0,0,1-2.49-3.09,11.72,11.72,0,0,1,1.17-6.15C36,60.62,37.74,56.31,39.44,52c.91-2.31,1.83-4.63,2.69-7a6.57,6.57,0,0,0,.08-5,3,3,0,0,0-3.11-2,4,4,0,0,0-3.54,2.52c-2.17,5.36-4.25,10.75-6.39,16.12C26.62,63.13,24.11,69.58,21.45,76a9.44,9.44,0,0,1-5,5.52,11.49,11.49,0,0,1-4.06.85C8.17,82.39,4.5,81,2,77.36A10.72,10.72,0,0,1,.48,67.92c.89-3.13,1.78-6.25,2.72-9.37S5,52.66,5.95,49.72C6.8,47,7.6,44.23,8.53,41.51c1.83-5.34,3.3-10.85,6.2-15.75,2-3.35,5.19-5.17,8.88-6.29,3.85-1.17,7.13.3,10.42,1.94,1.25.62,2.48,1.28,3.76,1.82a4.52,4.52,0,0,0,4.85-.9c1.18-1,2.37-1.92,3.46-3,2.72-2.65,8.59-3.14,11.46-.06.66.71,1.44,1.31,2.17,2,1.5,1.33,2.12,1.46,3.86.48,4.13-2.33,8.41-2,12.62-.51,2.44.87,3.9,2.94,4.83,5.4,1.37,3.62.8,7.11-.58,10.51-2.53,6.25-5.28,12.41-7.75,18.69A111,111,0,0,0,69,67.25a10.29,10.29,0,0,0,0,5c.6,2.39,2.79,3.18,5,3.46a25.21,25.21,0,0,0,9.92-1.09c2.76-.76,5.48-1.7,8.17-2.67a34.18,34.18,0,0,0,3.75-1.82c1.06-.54,1.14-1.32.58-2.31-1.14-2-2.35-4-3.35-6.1-2.13-4.41-3.88-9-3.42-14,.41-4.4,2-8.23,6.06-10.55,6-3.42,10.87-2.48,15.28,2.63a15.94,15.94,0,0,1,3.43,15.44,94.87,94.87,0,0,1-3.48,9.35,1.51,1.51,0,0,0,.39,1.9,27.85,27.85,0,0,0,8.6,5.49,20.91,20.91,0,0,0,3.76,1.11,9.74,9.74,0,0,0,7.59-1.66c1.09-.74,1.11-1.43.36-2.46a30.1,30.1,0,0,1-5.77-24c.59-3.29,2.11-6.39,5.64-7.34a18.36,18.36,0,0,1,6.92-.27,12.84,12.84,0,0,1,9.29,5.11A14.39,14.39,0,0,1,149.91,55a27.16,27.16,0,0,1-4.44,8.75c-.75,1.07-.78,2.06.24,2.78a22,22,0,0,0,4.94,3,17.93,17.93,0,0,0,11.74,0,13.89,13.89,0,0,0,8.94-8.37c2-5,2.06-10.24,2-15.5-.08-4.11-.23-8.22-.35-12.33,0-1.47-.28-1.55-1.68-1.27-3.69.74-7.39,1.4-11.09,2.08-1.17.21-2.34.36-3.51.57-2.54.46-4.64-.59-4.78-3.56s-.58-6-.89-9v-.51c-.17-3.52.68-5.43,4.9-5.28s8.72.3,13.08.53c2.14.11,2.9-.43,3-2.55.11-1.65.15-3.3.26-5,.15-2.48.72-3.06,3.23-3A25.08,25.08,0,0,1,180,7a4,4,0,0,1,3.3,4,45.31,45.31,0,0,1,0,5.08c0,1.2.35,1.84,1.69,2,3.88.39,7.74.93,11.6,1.39,1.83.22,2.85,1,3.1,2.31.43,2.36-.08,4-1.86,4.62a75.63,75.63,0,0,1-7.64,2.22c-1.8.44-3.67.64-5.5,1a2,2,0,0,0-1.9,2.09q0,.08,0,.16c0,6.82-.11,13.66.09,20.47A26.9,26.9,0,0,0,185,62.89a5.28,5.28,0,0,0,6.26,3.28A25,25,0,0,0,203,61.23a7.64,7.64,0,0,0,3.25-5.9q.26-7,.68-14a14.48,14.48,0,0,1,.68-4c.25-.69,1.16-1.61,1.8-1.63a90.41,90.41,0,0,1,10.52.16,4.17,4.17,0,0,1,3.59,4.57c-.16,3.25-.58,6.49-.89,9.74-.38,4-.73,8-1.16,12s2.81,6.06,6,6.1c2.69,0,4.27-1,5.42-3.82a43.77,43.77,0,0,0,2.4-9.28c.72-4.47,1.06-9,1.6-13.5a3.93,3.93,0,0,1,2.79-3.56c1.65-.35,3.81.32,4.35,1.82a9.6,9.6,0,0,1,.19,4.18c-.58,5.13-1.42,10.23-1.9,15.36-.3,3.15,1.47,5.4,4.54,6.33a27,27,0,0,0,4.69,1c2.78.32,4.74-1.71,5.33-4.87.49-2.65.56-5.39.8-8.09.28-3.21.32-6.45.87-9.61A12.3,12.3,0,0,1,267.91,34a28.57,28.57,0,0,1,10.1-.53,14.16,14.16,0,0,1,12.1,9.94,21.63,21.63,0,0,1-.71,13.08,23,23,0,0,1-9.11,11.82,5,5,0,0,0-.94,1.19c.54.24,1.09.7,1.63.69a28.2,28.2,0,0,0,14.5-4,35.29,35.29,0,0,1,3.17-1.58c1-.46,1.55.09,1.28.93a12.83,12.83,0,0,1-1.9,4c-3.82,4.83-9,7.15-15.07,7.55a63.79,63.79,0,0,1-7.73-.31c-2-.11-3.89-.28-5.83-.41a1.55,1.55,0,0,0-1.79,1.27v.1a170.64,170.64,0,0,0-3.17,19.41,106.46,106.46,0,0,1-2.25,12.21,5.37,5.37,0,0,1-4.59,4.06,2.45,2.45,0,0,1-2.92-1.69,13.62,13.62,0,0,1-.86-3.43,80.11,80.11,0,0,1,.49-17.12c.39-2.9.64-5.81,1-8.71.23-2,.54-4,.73-6.06.15-1.63-.22-2-1.79-2.33-3.24-.65-6.47-1.28-9.7-2a5.46,5.46,0,0,0-5.38,1.8,21.71,21.71,0,0,1-6.74,4.88c-3.12,1.36-6.43,1.08-9.64.57a15.85,15.85,0,0,1-11-7.08,31.25,31.25,0,0,1-2-3.9c-.36-.74-.68-1-1.55-.59-3.08,1.57-6.15,3.18-9.33,4.52a16.56,16.56,0,0,1-11.06,1A17.22,17.22,0,0,1,179,67C178.35,66.21,177.73,65.42,176.76,64.17ZM282.4,49.5a6.54,6.54,0,0,0-.12-1.52,3.51,3.51,0,0,0-5.71-2.44,11.66,11.66,0,0,0-2.74,2.93c-2.41,3.69-3.5,7.92-4.58,12.13a12.2,12.2,0,0,0-.44,3.26c0,2,1.23,2.61,2.92,1.52a27.81,27.81,0,0,0,8.31-8.9A12.51,12.51,0,0,0,282.4,49.5Zm-137.85,2a6.9,6.9,0,0,0-1.92-5.31,2.89,2.89,0,0,0-3-.78,3.23,3.23,0,0,0-2.3,3.26c-.21,3.4,1.25,6.33,2.76,9.2.77,1.48,1.51,1.43,2.51.07a10.79,10.79,0,0,0,2-6.41Zm-34.68-.65a28.57,28.57,0,0,0-1.15-3.68,3.41,3.41,0,0,0-4-1.73c-1.64.43-2.28,1.21-2.11,3.22a29.27,29.27,0,0,0,1,5.21,17,17,0,0,0,1.49,3.62c.84,1.54,1.72,1.55,2.54.06a15.73,15.73,0,0,0,2.23-6.66Z" transform="translate(0.01 -6.34)"/></svg>