<?xml version="1.0" encoding="utf-8"?>
<!-- Generator: Adobe Illustrator 23.0.6, SVG Export Plug-In . SVG Version: 6.00 Build 0)  -->
<svg version="1.1" id="Layer_1" xmlns="http://www.w3.org/2000/svg" xmlns:xlink="http://www.w3.org/1999/xlink" x="0px" y="0px"
	 viewBox="0 0 300 107.2" style="enable-background:new 0 0 300 107.2;" xml:space="preserve">
<title>meetup</title>
<path d="M176.8,57.8c-0.4,0.6-0.7,1-1,1.5c-2.7,3.8-5.7,7.4-9.8,9.8c-5.5,3.3-11.5,4.6-17.7,3.3c-3.2-0.7-6.2-2.5-9.2-3.9
	c-0.5-0.3-1.2-0.3-1.7,0c-2.5,1.6-5.1,3.1-7.8,4.4c-4.8,2.1-9.9,3.3-15.2,1.9c-3.3-1-6.2-2.7-8.7-5c-1.8-1.6-1.9-1.6-3.8-0.1
	c-3.4,2.6-7.2,4.7-11.2,6c-5,1.8-10.2,3-15.4,3.4c-6.4,0.6-12.4-0.5-16.8-5.8c-3.5-3.9-4.4-9.5-2.2-14.2c2.3-5.6,5-11,7.6-16.6
	c1.3-2.9,2.7-5.7,3.9-8.6c0.2-0.6,0.3-1.1,0.4-1.7c0.1-1.1,0.3-2.3-1-2.9c-1.2-0.7-2.8-0.5-3.7,0.6c-1.2,1.5-2.2,3.1-3.1,4.8
	c-2.9,5.5-5.7,11.1-8.5,16.7c-2.1,4.2-4.2,8.4-6.3,12.5c-1.6,3.8-6,5.6-9.9,3.9c0,0,0,0-0.1,0c-1.4-0.5-2.3-1.7-2.5-3.1
	c-0.2-2.1,0.2-4.2,1.2-6.1c1.7-4.3,3.5-8.6,5.2-12.9c0.9-2.3,1.8-4.6,2.7-7c0.7-1.6,0.7-3.4,0.1-5c-0.5-1.3-1.7-2.1-3.1-2
	c-1.6,0.1-3,1.1-3.5,2.5c-2.2,5.4-4.2,10.8-6.4,16.1c-2.5,6.5-5.1,12.9-7.7,19.4c-0.8,2.4-2.6,4.4-5,5.5c-1.3,0.5-2.7,0.8-4.1,0.9
	c-4.2,0-7.9-1.4-10.4-5c-2-2.7-2.5-6.2-1.5-9.4c0.9-3.1,1.8-6.3,2.7-9.4S5,46.3,6,43.4c0.9-2.7,1.7-5.5,2.6-8.2
	c1.8-5.3,3.3-10.9,6.2-15.8c2-3.4,5.2-5.2,8.9-6.3c3.9-1.2,7.1,0.3,10.4,1.9c1.3,0.6,2.5,1.3,3.8,1.8c1.7,0.7,3.6,0.3,4.8-0.9
	c1.2-1,2.4-1.9,3.5-3c2.7-2.6,8.6-3.1,11.5-0.1c0.7,0.7,1.4,1.3,2.2,2c1.5,1.3,2.1,1.5,3.9,0.5c4.1-2.3,8.4-2,12.6-0.5
	c2.4,0.9,3.9,2.9,4.8,5.4c1.4,3.6,0.8,7.1-0.6,10.5c-2.5,6.3-5.3,12.4-7.8,18.7C71.3,53.2,70,57,69,60.9c-0.4,1.6-0.4,3.4,0,5
	c0.6,2.4,2.8,3.2,5,3.5c3.3,0.3,6.7-0.1,9.9-1.1c2.8-0.8,5.5-1.7,8.2-2.7c1.3-0.5,2.5-1.1,3.8-1.8c1.1-0.5,1.1-1.3,0.6-2.3
	c-1.1-2-2.3-4-3.3-6.1c-2.1-4.4-3.9-9-3.4-14c0.4-4.4,2-8.2,6.1-10.5c6-3.4,10.9-2.5,15.3,2.6c3.8,4.2,5.1,10,3.4,15.4
	c-1,3.2-2.2,6.3-3.5,9.4c-0.3,0.6-0.2,1.4,0.4,1.9c2.5,2.3,5.4,4.2,8.6,5.5c1.2,0.5,2.5,0.9,3.8,1.1c2.7,0.5,5.4-0.1,7.6-1.7
	c1.1-0.7,1.1-1.4,0.4-2.5c-5.3-6.8-7.4-15.5-5.8-24c0.6-3.3,2.1-6.4,5.6-7.3c2.3-0.5,4.6-0.6,6.9-0.3c3.7,0.3,7.1,2.1,9.3,5.1
	c2.6,3.6,3.4,8.2,2.2,12.5c-0.9,3.2-2.4,6.1-4.4,8.8c-0.8,1.1-0.8,2.1,0.2,2.8c1.5,1.2,3.2,2.2,4.9,3c3.8,1.3,7.9,1.3,11.7,0
	c4.1-1.3,7.4-4.3,8.9-8.4c2-5,2.1-10.2,2-15.5c-0.1-4.1-0.2-8.2-0.4-12.3c0-1.5-0.3-1.5-1.7-1.3c-3.7,0.7-7.4,1.4-11.1,2.1
	c-1.2,0.2-2.3,0.4-3.5,0.6c-2.5,0.5-4.6-0.6-4.8-3.6s-0.6-6-0.9-9v-0.5c-0.2-3.5,0.7-5.4,4.9-5.3s8.7,0.3,13.1,0.5
	c2.1,0.1,2.9-0.4,3-2.6c0.1-1.6,0.1-3.3,0.3-5c0.1-2.5,0.7-3.1,3.2-3c1.5,0.1,3,0.3,4.5,0.7c1.9,0.3,3.3,2,3.3,4
	c0.1,1.7,0.1,3.4,0,5.1c0,1.2,0.4,1.8,1.7,2c3.9,0.4,7.7,0.9,11.6,1.4c1.8,0.2,2.9,1,3.1,2.3c0.4,2.4-0.1,4-1.9,4.6
	c-2.5,0.9-5.1,1.6-7.6,2.2c-1.8,0.4-3.7,0.6-5.5,1c-1.1,0.1-2,1-1.9,2.1c0,0.1,0,0.1,0,0.2c0,6.8-0.1,13.7,0.1,20.5
	c0,3.6,0.7,7.2,2.1,10.6c0.9,2.5,3.6,4,6.3,3.3c4.3-0.6,8.3-2.3,11.7-4.9c1.9-1.4,3.1-3.5,3.3-5.9c0.2-4.7,0.4-9.3,0.7-14
	c0-1.4,0.3-2.7,0.7-4c0.3-0.7,1.2-1.6,1.8-1.6c3.5-0.2,7-0.1,10.5,0.2c2.2,0.3,3.8,2.3,3.6,4.6c-0.2,3.3-0.6,6.5-0.9,9.7
	c-0.4,4-0.7,8-1.2,12s2.8,6.1,6,6.1c2.7,0,4.3-1,5.4-3.8c1.1-3,1.9-6.1,2.4-9.3c0.7-4.5,1.1-9,1.6-13.5c0.1-1.7,1.2-3.1,2.8-3.6
	c1.6-0.3,3.8,0.3,4.4,1.8c0.4,1.4,0.4,2.8,0.2,4.2c-0.6,5.1-1.4,10.2-1.9,15.4c-0.3,3.2,1.5,5.4,4.5,6.3c1.5,0.5,3.1,0.8,4.7,1
	c2.8,0.3,4.7-1.7,5.3-4.9c0.5-2.7,0.6-5.4,0.8-8.1c0.3-3.2,0.3-6.5,0.9-9.6c0.7-5,4.4-9.1,9.4-10.2c3.3-0.8,6.7-1,10.1-0.5
	c5.7,0.6,10.4,4.5,12.1,9.9c1.1,4.3,0.9,8.9-0.7,13.1c-1.6,4.8-4.8,9-9.1,11.8c-0.4,0.3-0.7,0.7-0.9,1.2c0.5,0.2,1.1,0.7,1.6,0.7
	c5.1,0,10.1-1.4,14.5-4c1-0.6,2.1-1.1,3.2-1.6c1-0.5,1.5,0.1,1.3,0.9c-0.4,1.4-1,2.8-1.9,4c-3.8,4.8-9,7.2-15.1,7.5
	c-2.6,0.1-5.2-0.1-7.7-0.3c-2-0.1-3.9-0.3-5.8-0.4c-0.8-0.1-1.6,0.4-1.8,1.3c0,0,0,0,0,0v0.1c-1.4,6.4-2.5,12.9-3.2,19.4
	c-0.5,4.1-1.3,8.2-2.3,12.2c-0.5,2.2-2.4,3.8-4.6,4.1c-1.3,0.3-2.6-0.4-2.9-1.7c-0.4-1.1-0.7-2.3-0.9-3.4
	c-0.4-5.7-0.3-11.4,0.5-17.1c0.4-2.9,0.6-5.8,1-8.7c0.2-2,0.5-4,0.7-6.1c0.1-1.6-0.2-2-1.8-2.3c-3.2-0.7-6.5-1.3-9.7-2
	c-2-0.5-4.1,0.2-5.4,1.8c-1.9,2-4.2,3.7-6.7,4.9c-3.1,1.4-6.4,1.1-9.6,0.6c-4.5-0.7-8.5-3.2-11-7.1c-0.8-1.3-1.4-2.6-2-3.9
	c-0.4-0.7-0.7-1-1.6-0.6c-3.1,1.6-6.1,3.2-9.3,4.5c-3.5,1.6-7.4,1.9-11.1,1c-3.5-1.1-6.7-3.3-8.9-6.3
	C178.4,59.9,177.7,59.1,176.8,57.8z M282.4,43.2c0-0.5,0-1-0.1-1.5c-0.2-1.9-1.9-3.4-3.8-3.2c-0.7,0.1-1.4,0.3-1.9,0.8
	c-1.1,0.8-2,1.8-2.7,2.9c-2.4,3.7-3.5,7.9-4.6,12.1c-0.3,1.1-0.4,2.2-0.4,3.3c0,2,1.2,2.6,2.9,1.5c3.4-2.3,6.2-5.4,8.3-8.9
	C281.5,48.1,282.3,45.7,282.4,43.2z M144.6,45.2c0.1-2-0.6-3.9-1.9-5.3c-0.8-0.8-1.9-1.1-3-0.8c-1.4,0.4-2.4,1.8-2.3,3.3
	c-0.2,3.4,1.3,6.3,2.8,9.2c0.8,1.5,1.5,1.4,2.5,0.1C143.9,49.7,144.6,47.5,144.6,45.2L144.6,45.2z M109.9,44.5
	c-0.3-1.3-0.7-2.5-1.2-3.7c-0.7-1.5-2.4-2.2-4-1.7c-1.6,0.4-2.3,1.2-2.1,3.2c0.2,1.8,0.5,3.5,1,5.2c0.4,1.3,0.9,2.5,1.5,3.6
	c0.8,1.5,1.7,1.5,2.5,0.1C108.9,49.2,109.6,46.9,109.9,44.5L109.9,44.5z"/>
</svg>
