<svg id="Layer_1" data-name="Layer 1" xmlns="http://www.w3.org/2000/svg" viewBox="0 0 300 120"><defs><style>.cls-1{fill:#fff;}</style></defs><title>metacafe</title><polyline class="cls-1" points="60.54 87.49 56.81 76.01 66.58 68.91 54.51 68.91 50.77 57.43 47.05 68.91 34.98 68.91 44.74 76.01 41.01 87.49 50.77 80.39 60.54 87.49"/><path class="cls-1" d="M41.94,76.92,27.64,66.53H45.31l5.47-16.81s4.67,14.39,5.45,16.81h9.44L50.78,20.68l-12,36.89H0L39,86c1.25-3.84,2.57-7.91,3-9.09"/><path class="cls-1" d="M193.35,83.92a15.24,15.24,0,0,0,29.28,5.93l-4.55-1.93a10.3,10.3,0,1,1-1.35-10.31l3.91-3a15.24,15.24,0,0,0-27.29,9.33"/><path class="cls-1" d="M176.35,69.17a14.75,14.75,0,1,0,8.09,27v2.53h4.93V69.17h-13m-9.81,14.75a9.82,9.82,0,0,1,9.81-9.81h8.09V89.37a9.77,9.77,0,0,1-17.9-5.45"/><path class="cls-1" d="M238.88,69.17a14.75,14.75,0,1,0,8.09,27v2.53h4.94V69.17h-13m-9.8,14.75a9.81,9.81,0,0,1,9.8-9.81H247V89.37a9.76,9.76,0,0,1-17.89-5.45"/><path class="cls-1" d="M99.29,68.69a10.79,10.79,0,0,0-8.36,4,10.81,10.81,0,0,0-19.17,6.87V98.66H76.7V79.51a5.89,5.89,0,0,1,11.77,0V98.64h4.94V79.51a5.88,5.88,0,1,1,11.76,0V98.66h4.94V79.51A10.83,10.83,0,0,0,99.29,68.69"/><path class="cls-1" d="M156.46,93.73A4.74,4.74,0,0,1,151.73,89V74.11h7.2V69.17h-7.2V59.84h-4.95V89a9.69,9.69,0,0,0,9.68,9.67h4.92V93.73h-4.92"/><path class="cls-1" d="M267.69,64.78h2.47V59.84h-2.47A9.68,9.68,0,0,0,258,69.17h0V98.66H263V74.11h7.13V69.17H263a4.73,4.73,0,0,1,4.7-4.39"/><path class="cls-1" d="M139.4,85.65l-1,2.27a10.31,10.31,0,0,1-16,4L138.6,79.56h0l1.18-.91.85-.65h0l1.88-1.46-1.51-2a15.25,15.25,0,1,0,2,15.26l1-2.28-4.54-1.92m-10.46-12a10.23,10.23,0,0,1,6.39,2.22L119.49,88a10.29,10.29,0,0,1,9.45-14.36"/><path class="cls-1" d="M295.45,85.82l-1,2.27a10.29,10.29,0,0,1-16,4l16.13-12.35h0l1.18-.9.85-.66h0l1.88-1.46-1.52-1.95A15.23,15.23,0,1,0,299,90l1-2.28-4.55-1.92M285,73.79A10.23,10.23,0,0,1,291.39,76L275.54,88.15A10.31,10.31,0,0,1,285,73.79"/></svg>