<?xml version="1.0" encoding="utf-8"?>
<!-- Generator: Adobe Illustrator 23.0.6, SVG Export Plug-In . SVG Version: 6.00 Build 0)  -->
<svg version="1.1" id="Camada_1" xmlns="http://www.w3.org/2000/svg" xmlns:xlink="http://www.w3.org/1999/xlink" x="0px" y="0px"
	 viewBox="0 0 320 120" style="enable-background:new 0 0 320 120;" xml:space="preserve">
<title>microsoft-academic</title>
<path d="M28.4,73h-4.1V56.9c0-1.3,0.1-2.9,0.2-4.8h-0.1c-0.2,0.8-0.4,1.6-0.7,2.3L16.4,73h-2.9L6.1,54.6c-0.3-0.8-0.5-1.6-0.7-2.5
	H5.4c0.1,1,0.1,2.6,0.1,4.9v16H1.7V48.1h5.8l6.5,16.6c0.4,0.9,0.7,1.9,1,2.8h0.1c0.4-1.3,0.8-2.3,1-2.9l6.7-16.5h5.6V73z"/>
<path d="M36.1,51.5c-0.6,0-1.2-0.2-1.7-0.6c-0.5-0.4-0.7-1-0.7-1.6c0-0.6,0.2-1.2,0.7-1.7c0.5-0.4,1.1-0.7,1.7-0.7
	c0.6,0,1.3,0.2,1.7,0.7c0.5,0.4,0.7,1,0.7,1.7c0,0.6-0.3,1.2-0.7,1.6C37.4,51.3,36.8,51.5,36.1,51.5z M38.1,73h-4V55.3h4V73z"/>
<path d="M56.1,72.2c-1.5,0.8-3.3,1.3-5,1.2c-2.4,0.1-4.7-0.8-6.4-2.4c-1.6-1.7-2.5-4-2.4-6.4c-0.1-2.6,0.8-5.1,2.6-7
	c1.9-1.8,4.4-2.8,7-2.7c1.5,0,2.9,0.3,4.3,0.8v3.7c-1.1-0.9-2.5-1.4-4-1.4c-1.6-0.1-3.1,0.5-4.2,1.6c-1.1,1.2-1.7,2.9-1.6,4.5
	c-0.1,1.6,0.5,3.2,1.5,4.3c1.1,1.1,2.6,1.7,4.1,1.6c1.5,0,2.9-0.6,4.1-1.5L56.1,72.2z"/>
<path d="M70.4,59.1c-0.6-0.4-1.4-0.6-2.1-0.6c-1.2,0-2.3,0.6-3,1.6c-0.9,1.3-1.3,2.8-1.2,4.4V73h-4V55.3h4v3.7h0.1
	c0.3-1.1,1-2.1,1.9-2.9c0.8-0.7,1.7-1,2.7-1c0.6,0,1.1,0.1,1.7,0.3L70.4,59.1z"/>
<path d="M80.8,73.4c-2.4,0.1-4.8-0.8-6.6-2.5c-1.7-1.8-2.6-4.2-2.4-6.6c-0.4-4.8,3.1-9.1,8-9.5c0.5,0,1,0,1.5,0
	c2.4-0.1,4.8,0.7,6.5,2.4c1.6,1.9,2.5,4.3,2.3,6.8c0.1,2.5-0.8,5-2.5,6.8C85.7,72.6,83.3,73.5,80.8,73.4z M81,58
	c-1.4-0.1-2.8,0.5-3.7,1.7c-1,1.3-1.5,2.9-1.4,4.5c-0.1,1.6,0.4,3.1,1.4,4.4c0.9,1.1,2.3,1.7,3.7,1.7c1.4,0.1,2.8-0.5,3.7-1.6
	c0.9-1.3,1.4-2.9,1.3-4.5c0.1-1.6-0.3-3.2-1.3-4.5C83.8,58.5,82.4,57.9,81,58z"/>
<path d="M93,72.4v-3.7c1.4,1.1,3.2,1.7,5,1.7c2.4,0,3.6-0.7,3.6-2.2c0-0.4-0.1-0.7-0.3-1c-0.2-0.3-0.5-0.6-0.8-0.8
	c-0.4-0.2-0.8-0.4-1.3-0.5l-1.6-0.6c-0.7-0.3-1.4-0.6-2-0.9c-0.5-0.3-1-0.7-1.5-1.1c-0.4-0.4-0.7-0.9-0.9-1.4
	c-0.2-0.6-0.3-1.3-0.3-1.9c0-0.8,0.2-1.6,0.6-2.3c0.4-0.7,1-1.2,1.6-1.7c0.7-0.5,1.5-0.8,2.3-1c0.9-0.2,1.8-0.3,2.7-0.3
	c1.5,0,3,0.2,4.4,0.8v3.5c-1.3-0.9-2.8-1.3-4.3-1.3c-0.5,0-0.9,0.1-1.3,0.2c-0.4,0.1-0.7,0.2-1,0.4c-0.3,0.2-0.5,0.4-0.7,0.7
	c-0.2,0.3-0.2,0.6-0.2,0.9c0,0.3,0.1,0.7,0.2,1c0.2,0.3,0.4,0.5,0.7,0.7c0.4,0.2,0.7,0.4,1.1,0.5l1.5,0.5c0.7,0.3,1.4,0.6,2.1,1
	c0.6,0.3,1.1,0.7,1.6,1.1c0.4,0.4,0.8,0.9,1,1.4c0.2,0.6,0.4,1.3,0.3,1.9c0,0.8-0.2,1.6-0.6,2.4c-0.4,0.7-1,1.2-1.7,1.7
	c-0.7,0.5-1.5,0.8-2.4,1c-0.9,0.2-1.9,0.3-2.9,0.3C96.3,73.6,94.6,73.2,93,72.4z"/>
<path d="M117.3,73.4c-2.4,0.1-4.8-0.8-6.6-2.5c-1.7-1.8-2.6-4.2-2.4-6.6c-0.4-4.8,3.1-9.1,8-9.5c0.5,0,1,0,1.5,0
	c2.4-0.1,4.8,0.7,6.5,2.4c1.6,1.9,2.5,4.3,2.3,6.8c0.1,2.5-0.8,5-2.5,6.8C122.2,72.6,119.8,73.5,117.3,73.4z M117.5,58
	c-1.4-0.1-2.8,0.5-3.7,1.7c-1,1.3-1.5,2.9-1.4,4.5c-0.1,1.6,0.4,3.1,1.4,4.4c0.9,1.1,2.3,1.7,3.7,1.6c1.4,0.1,2.8-0.5,3.7-1.6
	c0.9-1.3,1.4-2.9,1.3-4.5c0.1-1.6-0.3-3.2-1.3-4.5C120.2,58.5,118.9,57.9,117.5,58z"/>
<path d="M140,50c-0.6-0.3-1.2-0.5-1.9-0.5c-2,0-2.9,1.1-2.9,3.3v2.4h4.1v3.2h-4.1V73h-4V58.4h-3v-3.2h3v-2.9
	c-0.1-1.7,0.6-3.3,1.8-4.4c1.3-1.1,2.9-1.7,4.6-1.6c0.8,0,1.6,0.1,2.4,0.3L140,50z"/>
<path d="M152.3,72.8c-1,0.4-2,0.6-3.1,0.6c-3.4,0-5.2-1.7-5.2-5v-10h-3v-3.1h3v-4.1l4-1.1v5.3h4.3v3.2H148v8.9
	c-0.1,0.8,0.1,1.6,0.6,2.3c0.5,0.5,1.2,0.8,1.9,0.7c0.6,0,1.3-0.2,1.8-0.6L152.3,72.8z"/>
<path d="M186.4,73h-4.5l-2.2-6.3h-9.8l-2.1,6.3h-4.5l9.3-24.9h4.6L186.4,73z M178.5,63.3l-3.4-9.9c-0.1-0.5-0.3-1-0.3-1.6h-0.1
	c-0.1,0.5-0.2,1-0.4,1.6l-3.4,9.9H178.5z"/>
<path d="M202,72.2c-1.5,0.8-3.3,1.3-5,1.2c-2.4,0.1-4.7-0.8-6.4-2.4c-1.6-1.7-2.5-4-2.4-6.4c-0.1-2.6,0.8-5.1,2.6-7
	c1.9-1.8,4.4-2.8,7-2.7c1.5,0,2.9,0.3,4.3,0.8v3.7c-1.1-0.9-2.5-1.4-4-1.4c-1.6-0.1-3.1,0.6-4.2,1.7c-1.1,1.2-1.7,2.9-1.6,4.5
	c-0.1,1.6,0.5,3.2,1.5,4.3c1.1,1.1,2.6,1.7,4.1,1.6c1.5,0,3-0.6,4.1-1.6V72.2z"/>
<path d="M219.6,73h-3.9v-2.8h-0.1c-1,2-3.1,3.3-5.4,3.2c-1.5,0.1-3-0.4-4.1-1.4c-1-1-1.5-2.4-1.5-3.8c0-3.3,1.9-5.3,5.8-5.9l5.3-0.8
	c0-2.5-1.2-3.8-3.6-3.8c-2.1,0-4.1,0.8-5.7,2.2v-3.5c2-1.1,4.2-1.7,6.5-1.7c4.5,0,6.7,2.2,6.7,6.6L219.6,73z M215.8,64.3l-3.8,0.5
	c-0.9,0.1-1.8,0.4-2.6,0.8c-0.6,0.5-1,1.3-0.9,2.2c0,0.7,0.3,1.4,0.8,1.8c0.6,0.5,1.4,0.8,2.2,0.7c1.1,0,2.2-0.5,3-1.3
	c0.8-0.9,1.2-2,1.2-3.3L215.8,64.3z"/>
<path d="M240.7,73h-4v-3h-0.1c-2,3.3-6.2,4.4-9.5,2.4c-0.6-0.4-1.2-0.9-1.7-1.4c-1.4-1.9-2.1-4.2-2-6.5c-0.1-2.5,0.7-5,2.2-7
	c1.4-1.7,3.6-2.7,5.8-2.7c2.2-0.1,4.2,1,5.2,2.9h0.1v-11h4L240.7,73z M236.7,64.9v-2.3c0-1.2-0.4-2.3-1.2-3.2
	c-0.8-0.9-1.9-1.4-3.1-1.4c-1.4-0.1-2.7,0.6-3.5,1.7c-0.9,1.4-1.4,3-1.3,4.7c-0.1,1.5,0.4,3,1.2,4.3c0.8,1,2,1.6,3.3,1.6
	c1.3,0,2.5-0.5,3.3-1.5C236.3,67.6,236.8,66.3,236.7,64.9L236.7,64.9z"/>
<path d="M261,65.2h-12.1c0,1.4,0.5,2.8,1.5,3.8c1.1,0.9,2.5,1.4,4,1.3c1.9,0,3.7-0.6,5.2-1.7v3.2c-2,1.1-4.2,1.6-6.4,1.5
	c-2.3,0.1-4.6-0.7-6.2-2.4c-1.6-1.9-2.4-4.3-2.2-6.8c-0.1-2.5,0.8-4.9,2.4-6.8c1.6-1.7,3.8-2.7,6.1-2.6c2.2-0.1,4.3,0.7,5.7,2.3
	c1.4,1.9,2.1,4.2,2,6.5V65.2z M257.1,62.4c0.1-1.2-0.3-2.4-1-3.4c-0.7-0.8-1.7-1.3-2.8-1.2c-1.1,0-2.2,0.4-2.9,1.3
	c-0.8,0.9-1.4,2.1-1.5,3.3L257.1,62.4z"/>
<path d="M291.3,73h-4v-9.7c0.1-1.4-0.2-2.8-0.8-4c-0.6-0.9-1.6-1.4-2.7-1.3c-1.1,0-2.1,0.6-2.7,1.6c-0.8,1.1-1.1,2.4-1.1,3.8V73h-4
	V63c0-3.3-1.2-5-3.5-5c-1.1,0-2.1,0.6-2.7,1.5c-0.7,1.2-1.1,2.5-1,3.9V73h-4V55.3h4v2.8h0.1c1.1-2,3.3-3.3,5.6-3.2
	c1.2,0,2.3,0.3,3.2,1c0.9,0.7,1.6,1.6,1.9,2.7c1.1-2.3,3.4-3.7,5.9-3.7c3.9,0,5.9,2.4,5.9,7.2L291.3,73z"/>
<path d="M298.3,51.5c-0.6,0-1.2-0.2-1.7-0.6c-0.5-0.4-0.7-1-0.7-1.6c0-0.6,0.2-1.2,0.7-1.7c0.5-0.4,1.1-0.7,1.7-0.7
	c0.6,0,1.3,0.2,1.7,0.7c0.5,0.4,0.7,1,0.7,1.7c0,0.6-0.3,1.2-0.7,1.6C299.5,51.3,298.9,51.5,298.3,51.5z M300.3,73h-4V55.3h4V73z"/>
<path d="M318.2,72.2c-1.5,0.8-3.3,1.3-5,1.2c-2.4,0.1-4.7-0.8-6.4-2.4c-1.6-1.7-2.5-4-2.4-6.4c-0.1-2.6,0.8-5.1,2.6-7
	c1.9-1.8,4.4-2.8,7-2.7c1.5,0,2.9,0.3,4.3,0.8v3.7c-1.1-0.9-2.5-1.4-4-1.4c-1.6-0.1-3.1,0.6-4.2,1.7c-1.1,1.2-1.7,2.9-1.6,4.5
	c-0.1,1.6,0.5,3.1,1.5,4.3c1.1,1.1,2.6,1.7,4.1,1.6c1.5,0,2.9-0.6,4.1-1.5L318.2,72.2z"/>
</svg>
