<svg id="Camada_1" data-name="Camada 1" xmlns="http://www.w3.org/2000/svg" viewBox="0 0 320 120"><defs><style>.cls-1{fill:#fff;}</style></defs><title>microsoft-academic</title><path class="cls-1" d="M28.43,73H24.34V56.91q0-2,.24-4.84h-.07a16.69,16.69,0,0,1-.68,2.34L16.42,73H13.57L6.14,54.56a17.35,17.35,0,0,1-.66-2.48H5.41q.14,1.49.14,4.87V73H1.74V48.14h5.8L14.08,64.7a24.6,24.6,0,0,1,1,2.84h.09q.64-2,1-2.91l6.66-16.48h5.6Z"/><path class="cls-1" d="M36.13,51.52a2.42,2.42,0,0,1-1.69-.64,2.11,2.11,0,0,1-.7-1.63,2.16,2.16,0,0,1,.7-1.65,2.38,2.38,0,0,1,1.69-.66,2.46,2.46,0,0,1,1.73.66,2.15,2.15,0,0,1,.71,1.65,2.12,2.12,0,0,1-.71,1.6A2.44,2.44,0,0,1,36.13,51.52Zm2,21.48h-4V55.25h4Z"/><path class="cls-1" d="M56.08,72.19a9.92,9.92,0,0,1-5,1.23A8.54,8.54,0,0,1,44.7,71a8.75,8.75,0,0,1-2.43-6.41,9.63,9.63,0,0,1,2.61-7,9.33,9.33,0,0,1,7-2.66,10.18,10.18,0,0,1,4.28.85v3.74a6.48,6.48,0,0,0-4-1.39A5.49,5.49,0,0,0,48,59.77a6.31,6.31,0,0,0-1.63,4.52,6,6,0,0,0,1.53,4.35A5.44,5.44,0,0,0,52,70.23a6.43,6.43,0,0,0,4.09-1.54Z"/><path class="cls-1" d="M70.36,59.08a3.33,3.33,0,0,0-2.1-.57,3.59,3.59,0,0,0-3,1.61,7.21,7.21,0,0,0-1.2,4.39V73h-4V55.25h4v3.66h.07A6.19,6.19,0,0,1,66,56a4.09,4.09,0,0,1,2.73-1,3.39,3.39,0,0,1,1.66.33Z"/><path class="cls-1" d="M80.76,73.42a8.8,8.8,0,0,1-6.56-2.49,9,9,0,0,1-2.45-6.6,8.76,8.76,0,0,1,9.45-9.5,8.51,8.51,0,0,1,6.48,2.44A9.44,9.44,0,0,1,90,64.06a9.3,9.3,0,0,1-2.5,6.8A9,9,0,0,1,80.76,73.42ZM81,58a4.59,4.59,0,0,0-3.73,1.65,6.9,6.9,0,0,0-1.37,4.54,6.49,6.49,0,0,0,1.39,4.39A4.66,4.66,0,0,0,81,70.23a4.42,4.42,0,0,0,3.65-1.58,7,7,0,0,0,1.27-4.49,7.09,7.09,0,0,0-1.27-4.52A4.4,4.4,0,0,0,81,58Z"/><path class="cls-1" d="M93,72.45V68.72a8,8,0,0,0,5,1.72q3.64,0,3.64-2.15a1.69,1.69,0,0,0-.31-1,3,3,0,0,0-.84-.75A6.63,6.63,0,0,0,99.24,66l-1.6-.59a16.86,16.86,0,0,1-2-.92,5.94,5.94,0,0,1-1.46-1.1,4.15,4.15,0,0,1-.87-1.4A5.13,5.13,0,0,1,93,60.09a4.21,4.21,0,0,1,.61-2.26,5.28,5.28,0,0,1,1.63-1.65,7.82,7.82,0,0,1,2.32-1,10.65,10.65,0,0,1,2.69-.34,12.22,12.22,0,0,1,4.4.75V59.1a7.42,7.42,0,0,0-4.3-1.28A5.59,5.59,0,0,0,99,58a3.54,3.54,0,0,0-1,.43,2.13,2.13,0,0,0-.68.67,1.59,1.59,0,0,0-.24.86,1.83,1.83,0,0,0,.24,1,2.2,2.2,0,0,0,.72.7,6.22,6.22,0,0,0,1.14.55l1.53.55a22.33,22.33,0,0,1,2.05,1,6.93,6.93,0,0,1,1.55,1.1,4.32,4.32,0,0,1,1,1.42,4.83,4.83,0,0,1,.35,1.92,4.38,4.38,0,0,1-.62,2.36,5.21,5.21,0,0,1-1.66,1.66,7.78,7.78,0,0,1-2.4,1,12.47,12.47,0,0,1-2.87.32A12.08,12.08,0,0,1,93,72.45Z"/><path class="cls-1" d="M117.27,73.42a8.8,8.8,0,0,1-6.56-2.49,9,9,0,0,1-2.45-6.6,8.76,8.76,0,0,1,9.45-9.5,8.51,8.51,0,0,1,6.48,2.44,9.44,9.44,0,0,1,2.32,6.78,9.3,9.3,0,0,1-2.5,6.8A9,9,0,0,1,117.27,73.42ZM117.46,58a4.59,4.59,0,0,0-3.73,1.65,6.9,6.9,0,0,0-1.37,4.54,6.49,6.49,0,0,0,1.39,4.39,4.66,4.66,0,0,0,3.71,1.6,4.42,4.42,0,0,0,3.65-1.58,7,7,0,0,0,1.27-4.49,7.09,7.09,0,0,0-1.27-4.52A4.4,4.4,0,0,0,117.46,58Z"/><path class="cls-1" d="M140,50a3.65,3.65,0,0,0-1.85-.47q-2.93,0-2.93,3.31v2.41h4.13V58.4h-4.11V73h-4V58.41h-3V55.25h3V52.37a5.6,5.6,0,0,1,1.84-4.43,6.69,6.69,0,0,1,4.59-1.62,6.83,6.83,0,0,1,2.36.33Z"/><path class="cls-1" d="M152.26,72.81a7,7,0,0,1-3.1.59q-5.17,0-5.17-5v-10h-3V55.25h3V51.14L148,50v5.25h4.25V58.4H148v8.88a3.5,3.5,0,0,0,.57,2.25,2.37,2.37,0,0,0,1.91.68,2.76,2.76,0,0,0,1.77-.59Z"/><path class="cls-1" d="M186.36,73h-4.52l-2.24-6.33h-9.78L167.67,73h-4.51l9.31-24.86h4.65Zm-7.85-9.69-3.45-9.91a11.79,11.79,0,0,1-.33-1.56h-.07a10.23,10.23,0,0,1-.35,1.56l-3.42,9.91Z"/><path class="cls-1" d="M202,72.19a9.92,9.92,0,0,1-5,1.23A8.54,8.54,0,0,1,190.62,71a8.75,8.75,0,0,1-2.43-6.41,9.63,9.63,0,0,1,2.61-7,9.33,9.33,0,0,1,7-2.66,10.19,10.19,0,0,1,4.28.85v3.74a6.49,6.49,0,0,0-4-1.39,5.49,5.49,0,0,0-4.18,1.72,6.31,6.31,0,0,0-1.63,4.52,6,6,0,0,0,1.53,4.35,5.45,5.45,0,0,0,4.12,1.59A6.43,6.43,0,0,0,202,68.68Z"/><path class="cls-1" d="M219.64,73h-3.9V70.23h-.07a5.87,5.87,0,0,1-5.39,3.19,5.68,5.68,0,0,1-4.1-1.42,5,5,0,0,1-1.48-3.76q0-5,5.79-5.86l5.27-.75q0-3.8-3.61-3.8A8.57,8.57,0,0,0,206.43,60V56.5a12.48,12.48,0,0,1,6.48-1.66q6.73,0,6.73,6.62Zm-3.88-8.72L212,64.8a5.91,5.91,0,0,0-2.61.84,2.46,2.46,0,0,0-.87,2.16,2.36,2.36,0,0,0,.81,1.85,3.12,3.12,0,0,0,2.16.72,4,4,0,0,0,3-1.29,4.58,4.58,0,0,0,1.21-3.25Z"/><path class="cls-1" d="M240.68,73h-4V70h-.07a6.94,6.94,0,0,1-11.22,1,9.9,9.9,0,0,1-2-6.49,10.78,10.78,0,0,1,2.17-7,7.12,7.12,0,0,1,5.8-2.65,5.55,5.55,0,0,1,5.22,2.88h.07v-11h4Zm-4-8.11V62.57a4.52,4.52,0,0,0-1.23-3.21,4.1,4.1,0,0,0-3.1-1.36,4.22,4.22,0,0,0-3.54,1.68,7.49,7.49,0,0,0-1.29,4.66,6.71,6.71,0,0,0,1.24,4.27,4,4,0,0,0,3.34,1.57,4.17,4.17,0,0,0,3.34-1.52,5.71,5.71,0,0,0,1.27-3.77Z"/><path class="cls-1" d="M261,65.22H248.9a5.11,5.11,0,0,0,1.52,3.8,5.64,5.64,0,0,0,4,1.33,8.77,8.77,0,0,0,5.22-1.7v3.24a11.92,11.92,0,0,1-6.41,1.53A7.94,7.94,0,0,1,247,71a9.67,9.67,0,0,1-2.23-6.8,9.46,9.46,0,0,1,2.45-6.75,8,8,0,0,1,6.09-2.61A7,7,0,0,1,259,57.17a9.72,9.72,0,0,1,2,6.5Zm-3.88-2.84a5.18,5.18,0,0,0-1-3.37,3.42,3.42,0,0,0-2.77-1.21,3.9,3.9,0,0,0-2.94,1.27,5.77,5.77,0,0,0-1.48,3.31Z"/><path class="cls-1" d="M291.33,73h-4V63.33a7.84,7.84,0,0,0-.79-4A2.9,2.9,0,0,0,283.86,58a3.21,3.21,0,0,0-2.68,1.58,6.43,6.43,0,0,0-1.1,3.78V73h-4V63q0-5-3.5-5a3.16,3.16,0,0,0-2.68,1.49,6.57,6.57,0,0,0-1,3.87V73h-4V55.25h4v2.81H269a6.15,6.15,0,0,1,5.6-3.22,5.28,5.28,0,0,1,3.22,1,5,5,0,0,1,1.88,2.66,6.33,6.33,0,0,1,5.89-3.67q5.86,0,5.86,7.23Z"/><path class="cls-1" d="M298.27,51.52a2.42,2.42,0,0,1-1.69-.64,2.11,2.11,0,0,1-.7-1.63,2.17,2.17,0,0,1,.7-1.65,2.38,2.38,0,0,1,1.69-.66,2.46,2.46,0,0,1,1.73.66,2.15,2.15,0,0,1,.71,1.65,2.12,2.12,0,0,1-.71,1.6A2.44,2.44,0,0,1,298.27,51.52Zm2,21.48h-4V55.25h4Z"/><path class="cls-1" d="M318.22,72.19a9.92,9.92,0,0,1-5,1.23A8.54,8.54,0,0,1,306.84,71a8.75,8.75,0,0,1-2.43-6.41,9.63,9.63,0,0,1,2.61-7,9.33,9.33,0,0,1,7-2.66,10.19,10.19,0,0,1,4.28.85v3.74a6.49,6.49,0,0,0-4-1.39,5.49,5.49,0,0,0-4.18,1.72,6.31,6.31,0,0,0-1.63,4.52A6,6,0,0,0,310,68.63a5.45,5.45,0,0,0,4.12,1.59,6.43,6.43,0,0,0,4.09-1.54Z"/></svg>