<svg xmlns="http://www.w3.org/2000/svg" viewBox="0 0 300 120"><path d="M79.91,81.06c-1.91,0-3-1.28-3-4.15s1.77-15.09,2.45-20.7c1.27-10.41-4.74-18-13.45-18a21.46,21.46,0,0,0-16.29,7.13c-2.8-4.24-5.94-7.13-12.06-7.13-6,0-9.66,2.19-13.3,5.69-1.95-3.85-5.44-5.69-10.66-5.69C9.31,38.25,3.49,40.42,0,42.57l3.89,8.8c2.65-1.47,4.82-2.58,6.68-2.58,2,0,3.26,1.47,2.92,4.55S9.56,90.4,9.56,90.4H21.29s2.31-21.88,3.12-28.46c.95-7.71,4.68-12.6,10-12.6,4.67,0,6.26,3.68,5.92,8-.29,3.74-3.69,33.08-3.69,33.08H48.44s2.61-24.32,3.42-30.35c1.06-7.83,6.11-10.71,9.27-10.71,5.21,0,6.8,4.26,6.31,8.3C67,60.93,65.63,72.5,65.2,78.51c-.53,7.43,3,12.95,9.61,12.95a24.76,24.76,0,0,0,11.81-3l-2.54-8.71A11.59,11.59,0,0,1,79.91,81.06Z"/><path d="M139.23,87c-.44,4.35-1.84,6.53-5.13,6.53a15.79,15.79,0,0,1-5.42-1.41l-4.38,10.08c2.4,1.48,7.94,2.65,11.44,2.65,11.36,0,14.23-8.64,15.5-20.32.85-8.29,4.63-45.61,4.63-45.61l-12,3.4S140,79.78,139.23,87Z"/><path d="M152.09,15.17A8.32,8.32,0,0,0,144,23c-.29,4,2.41,7.85,7,7.85,4.16,0,7.8-3.81,8.09-7.85A7.23,7.23,0,0,0,152.09,15.17Z"/><path d="M186.34,48.45c3.29,0,5,2.13,5,4.79,0,7-8.62,10-17.63,9.6C175.21,55.18,180.63,48.45,186.34,48.45ZM183.8,81.06c-5.71,0-9.05-4.2-10.09-10,18.8,1.3,29.19-6.49,29.19-17.95,0-9.23-8.52-14.7-16.24-14.7-15,0-25.46,12.37-25.46,28.77,0,14.58,7.68,24.32,20.93,24.32,8.43,0,15.41-3.82,20.84-10.73l-6.24-7C192.88,77.53,189,81.06,183.8,81.06Z"/><path d="M233,48.45c3.29,0,5,2.13,5,4.79,0,7-8.61,10-17.62,9.6C221.84,55.18,227.26,48.45,233,48.45Zm-2.53,32.61c-5.72,0-9.06-4.2-10.1-10,18.8,1.3,29.2-6.49,29.2-17.95,0-9.23-8.52-14.7-16.25-14.7-15,0-25.45,12.37-25.45,28.77,0,14.58,7.68,24.32,20.92,24.32,8.43,0,15.42-3.82,20.85-10.73l-6.24-7C239.52,77.53,235.68,81.06,230.44,81.06Z"/><path d="M297.44,80.2a10.41,10.41,0,0,1-4,.86c-4.07,0-5.87-3.41-7.54-7.38-1.3-3.1-3.69-9.57-5.67-15.19l18.47-19.06H284.41C281.17,42.61,272.8,51,268.54,55.28,270.46,36.35,272.43,17,272.43,17l-11.85,3.4s-6.38,62.55-7.11,69.75H265c.25-2.39,1-9.48,1.87-18.36l4.47-4.65c1.38,3.54,2.9,7.8,3.91,10.36,3.45,8.72,7.1,14,15.05,14A23,23,0,0,0,300,89.08Z"/><path d="M108.83,81c-5,0-8.91-4.34-8.91-13,0-11.31,5.4-19.17,12.17-19.17,6.26,0,8.86,7.53,8.86,14.55C121,74.1,115,81,108.83,81Zm24.74-18.35c0-12.34-7.52-24.25-21.48-24.25-14.42,0-24.7,12.59-24.7,28.82,0,15.66,8.4,24.26,20.93,24.26C124.59,91.46,133.57,77.3,133.57,62.63Z"/></svg>