<?xml version="1.0" encoding="utf-8"?>
<!-- Generator: Adobe Illustrator 23.0.6, SVG Export Plug-In . SVG Version: 6.00 Build 0)  -->
<svg version="1.1" id="Camada_1" xmlns="http://www.w3.org/2000/svg" xmlns:xlink="http://www.w3.org/1999/xlink" x="0px" y="0px"
	 viewBox="0 0 300 120" style="enable-background:new 0 0 300 120;" xml:space="preserve">
<title>moovit_logo</title>
<g>
	<path d="M300,49.2v-9.4h-14.2V25.6h-9.4v50.7c0,0,0,0,0,0c0,10.4,8.5,18.9,18.9,18.8h4.7l-0.1,0v-9.4h-4.7c-5.2,0-9.4-4.2-9.4-9.4
		V49.2H300z"/>
	<path d="M55.1,39.3c-7-0.3-13.3,2.8-17.4,7.9c-3.7-4.6-9.3-7.6-15.6-7.9c-4.7-0.2-9.1,1.2-12.7,3.6v-4.3H0v21v35.6v0h9.4v0h0V59.6
		c0-6.5,5.3-11.8,11.8-11.8c6.5,0,11.8,5.3,11.8,11.8v35.6v0h9.4v0V59.6c0-6.5,5.3-11.8,11.8-11.8c6.5,0,11.8,5.3,11.8,11.8v35.6
		h9.4V59.6C75,48.6,66.1,39.8,55.1,39.3z"/>
	<path d="M108.4,38.6C93,39.1,80.9,52,81.3,67.5C80.9,82.9,93,95.8,108.4,96.4c15.5-0.5,27.6-13.4,27.1-28.9
		C136,52,123.9,39.1,108.4,38.6z M108.6,86.9c-10.2-0.5-18.1-9.2-17.7-19.5c-0.5-10.2,7.3-18.9,17.5-19.5v0c0,0,0,0,0,0
		c10.3,0.5,18.2,9.2,17.8,19.5C126.7,77.7,118.8,86.4,108.6,86.9z"/>
	<path d="M168,38.6c-15.5,0.5-27.6,13.4-27.1,28.9c-0.4,15.5,11.7,28.4,27.1,28.9c15.5-0.5,27.6-13.4,27.1-28.9
		C195.6,52,183.5,39.1,168,38.6z M168,87c-10.3-0.5-18.2-9.2-17.7-19.5c-0.5-10.2,7.4-18.9,17.7-19.5c10.3,0.5,18.2,9.2,17.7,19.5
		C186.1,77.7,178.2,86.4,168,87z"/>
	<rect x="257" y="39.8" width="9.4" height="55.4"/>
	<polygon points="221.5,81.7 204.9,37.7 194,37.7 216,96.4 226.9,96.4 252.6,37.7 241.6,37.7 	"/>
	<circle cx="262.6" cy="29" r="5.3"/>
</g>
</svg>
