<svg xmlns="http://www.w3.org/2000/svg" viewBox="0 0 300 120"><defs><style>.a{fill:#fff;}</style></defs><title>moovit_logo</title><rect class="a" x="277.6" y="39.78" width="22.4" height="9.42"/><path class="a" d="M42.44,95.2H33V59.6a11.78,11.78,0,0,0-23.56,0V95.16H0V59.6a21.24,21.24,0,0,1,42.44,0V95.2Z"/><rect class="a" y="38.62" width="9.42" height="56.58"/><path class="a" d="M75.45,95.2H66V59.6a11.78,11.78,0,0,0-23.56,0V95.16H33V59.6a21.24,21.24,0,0,1,42.44,0V95.2Z"/><path class="a" d="M108.44,96.36A28.07,28.07,0,0,1,81.31,67.49a28.07,28.07,0,0,1,27.13-28.87,28.07,28.07,0,0,1,27.13,28.87A28.07,28.07,0,0,1,108.44,96.36Zm0-48.33A18.65,18.65,0,0,0,90.91,67.49a18.65,18.65,0,0,0,17.67,19.45,18.65,18.65,0,0,0,17.67-19.45A18.65,18.65,0,0,0,108.44,48Z"/><path class="a" d="M168,96.36a28.07,28.07,0,0,1-27.13-28.87A28.07,28.07,0,0,1,168,38.62a28.07,28.07,0,0,1,27.13,28.87A28.07,28.07,0,0,1,168,96.36ZM168,48a18.65,18.65,0,0,0-17.67,19.45A18.65,18.65,0,0,0,168,86.95a18.65,18.65,0,0,0,17.67-19.45A18.65,18.65,0,0,0,168,48Z"/><rect class="a" x="256.98" y="39.78" width="9.42" height="55.42"/><path class="a" d="M300,95.2h-4.73a18.87,18.87,0,0,1-18.91-18.84V25.64h9.42V76.33a9.45,9.45,0,0,0,9.42,9.42h4.73v9.42Z"/><polygon class="a" points="241.6 37.74 221.46 81.71 204.94 37.74 193.96 37.74 215.96 96.36 226.94 96.36 252.58 37.74 241.6 37.74"/><circle class="a" cx="262.58" cy="28.95" r="5.31"/></svg>