<svg xmlns="http://www.w3.org/2000/svg" viewBox="0 0 300 120"><defs><style>.a{fill:#fff;}</style></defs><title>msn</title><path class="a" d="M36.74,114c-6.29,0-11.69-4-11.69-13,0-13.85,11.87-24.38,17.36-27.35a117.57,117.57,0,0,0,15.39,7.2C42.23,71,32.25,53,32.25,33.1,32.25,14.39,42.05,6,51,6c7.11,0,24.11,7.83,24.11,38.06,0,32.47-17,69.9-38.33,69.9ZM191.93,92.39h-7.38V65.94c0-5.13-.81-8.82-2.34-11.07s-4.23-3.42-7.92-3.42a9.73,9.73,0,0,0-8,4.32A16.22,16.22,0,0,0,163,66.12V92.39h-7.38V65c0-9.09-3.51-13.59-10.52-13.59a9.69,9.69,0,0,0-8,4,17.12,17.12,0,0,0-3.15,10.62V92.39h-7.37V46.24h7.37v7.28h.18q4.86-8.35,14.31-8.36a13.74,13.74,0,0,1,8.27,2.61,13.54,13.54,0,0,1,4.86,6.92c3.42-6.38,8.55-9.53,15.29-9.53C187,45.16,192,51.45,192,64l-.09,28.43Zm83,0h-7.38V66.12c0-9.81-3.6-14.67-10.7-14.67a11.62,11.62,0,0,0-9.18,4.14,15.43,15.43,0,0,0-3.6,10.53V92.39h-7.37V46.24h7.37v7.64h.18c3.51-5.84,8.55-8.72,15.12-8.72q7.55,0,11.6,4.85c2.7,3.24,4.05,8,4.05,14.13V92.39ZM200,82.76v7.92s4,2.79,11.61,2.79c11.6,0,16.73-6.48,16.73-13.59,0-15.29-20.6-11.69-20.6-21.86,0-3.78,3.06-6.57,8.19-6.57a19.49,19.49,0,0,1,10.34,3.15V47.41a22.29,22.29,0,0,0-10-2.25c-9.9,0-16.11,6.2-16.11,13.67,0,15.11,20.6,12.15,20.6,22,0,4.5-3.68,6.21-8.54,6.21A21.83,21.83,0,0,1,200,82.76Z"/><path class="a" d="M64,103.72c0,4.68,1.62,6.57,4.14,6.57,6.3,0,16.28-14.67,15.92-30.14,9.54-10.07,21-25.82,21-38.41,0-3.06-.89-5.67-4.49-5.67-5.58,0-13.5,9.54-18.45,19-4.85,9.9-9.35,21-15.38,36.44C65.26,95.35,64,100,64,103.72Z"/></svg>