<svg id="Camada_1" data-name="Camada 1" xmlns="http://www.w3.org/2000/svg" viewBox="0 0 300 120"><defs><style>.cls-1{fill:#fff;}</style></defs><title>mx</title><path class="cls-1" d="M34.16,25.84A34.16,34.16,0,1,0,68.32,60,34.15,34.15,0,0,0,34.16,25.84Zm18.12,27.3V73.88c0,1.84-1.83,3.09-3.64,3.09a3.75,3.75,0,0,1-2.26-.74S40.27,71.66,34.09,67L21.68,76.23a3.75,3.75,0,0,1-2.26.74,3.32,3.32,0,0,1-3.52-3.09V46.35a3,3,0,0,1,0-.43c.31-2.39,3.59-3.6,5.75-2l12.4,9.19h0L46.22,44c2.48-2.07,5.75-.61,6,1.82v0c0,.11,0,.22,0,.33Z"/><path id="musixmatch" class="cls-1" d="M93.88,58.88V70.14h4.45V58.94c0-3,1.65-5.06,4.42-5.06,3.08,0,4.29,2.1,4.29,4.95V70.14h4.47V57.76c0-4.54-2.22-8.12-7.31-8.12a8.63,8.63,0,0,0-7,3.28,6.61,6.61,0,0,0-6.18-3.28,7.44,7.44,0,0,0-6,3.16V50.1H80.7v20h4.47V59c0-3,1.65-5.09,4.42-5.09,3.08,0,4.29,2.16,4.29,5Zm26.51,2.44V50.1h-4.47V62.42c0,4.54,2.49,8.14,7.51,8.14a7.57,7.57,0,0,0,6.13-3.12v2.7h4.36v-20h-4.47V61.25c0,3-1.8,5.07-4.64,5.07-3.08,0-4.42-2.16-4.42-5Zm24.92,9.16c5,0,7.32-3.15,7.32-6.25,0-2.86-2-5.24-5.69-6l-2.75-.58c-1.11-.24-2-.9-2-2.07a2.55,2.55,0,0,1,2.75-2.28,3.46,3.46,0,0,1,3.63,2.81L152.33,55c-.35-1.92-2.14-5.35-7.4-5.35-4.09,0-7.08,3-7.08,6.27,0,2.62,1.65,4.89,5.3,5.76l2.57.6c1.68.4,2.38,1.12,2.38,2.2,0,1.39-1,2.35-2.86,2.35a3.94,3.94,0,0,1-4-3.19l-3.83,1c.26,2.23,2.48,5.82,7.92,5.82Zm10.22-26.89a2.95,2.95,0,1,1,5.89,0,2.95,2.95,0,0,1-5.89,0Zm.72,26.55v-20h4.47v20Zm12,0,5-7,5.06,7h5.13l-7.59-10.21,7.35-9.83h-5l-4.85,6.64L168.5,50.1h-5.11l7.33,9.9-7.61,10.14ZM199,58.88V70.14h4.46V58.94c0-3,1.65-5.06,4.41-5.06,3.08,0,4.29,2.1,4.29,4.95V70.14h4.48V57.76c0-4.54-2.22-8.12-7.32-8.12a8.63,8.63,0,0,0-7,3.28,6.62,6.62,0,0,0-6.18-3.28,7.44,7.44,0,0,0-6,3.16V50.1h-4.37v20h4.48V59c0-3,1.65-5.09,4.41-5.09,3.08,0,4.29,2.16,4.29,5Zm20.91,1.21c0,5.39,4.07,10.36,9.86,10.36,1.6,0,5-.79,6.65-3.36v3h4.42v-20h-4.42V53a8.26,8.26,0,0,0-6.54-3.32c-6.27,0-10,5.33-10,10.39Zm16.53,0a6,6,0,1,1-12,0c0-3.48,2.38-6.34,6-6.34s6,2.86,6,6.34Zm20.58-6v-4H252V43.89H247.5V50.1h-3.89v4h3.89v9.8c0,4.88,2.22,6.4,6.16,6.4a12.47,12.47,0,0,0,3.21-.4v-3.8a14.77,14.77,0,0,1-1.82.15c-2.23,0-3.1-.86-3.1-2.59V54.12Zm12.29,16.36a9.5,9.5,0,0,0,9.46-6.56l-4.09-1.32a5.29,5.29,0,0,1-5.28,3.81c-3.41,0-5.94-2.67-5.94-6.41s2.64-6.27,5.91-6.27a5.17,5.17,0,0,1,5.24,3.74l4.05-1.32c-.84-3.39-4.31-6.47-9.28-6.47a10.35,10.35,0,0,0-10.5,10.39,10.24,10.24,0,0,0,10.43,10.41Zm26.19-11.56V70.14H300V57.8c0-4.56-2.42-8.12-7.52-8.12a7.57,7.57,0,0,0-6,3V39.56H282V70.14h4.47V59c0-3,1.8-5.06,4.64-5.06,3.08,0,4.42,2.15,4.42,5Z"/></svg>