<?xml version="1.0" encoding="utf-8"?>
<!-- Generator: Adobe Illustrator 23.0.6, SVG Export Plug-In . SVG Version: 6.00 Build 0)  -->
<svg version="1.1" id="Camada_1" xmlns="http://www.w3.org/2000/svg" xmlns:xlink="http://www.w3.org/1999/xlink" x="0px" y="0px"
	 viewBox="0 0 300 120" style="enable-background:new 0 0 300 120;" xml:space="preserve">
<title>mx</title>
<path d="M34.2,25.8C15.3,25.8,0,41.1,0,60s15.3,34.2,34.2,34.2S68.3,78.9,68.3,60l0,0C68.3,41.1,53,25.8,34.2,25.8
	C34.2,25.8,34.2,25.8,34.2,25.8z M52.3,53.1v20.7c0,1.8-1.8,3.1-3.6,3.1c-0.8,0-1.6-0.3-2.3-0.7c0,0-6.1-4.6-12.3-9.2l-12.4,9.2
	C21,76.7,20.2,77,19.4,77c-1.8,0.1-3.4-1.3-3.5-3.1V46.3c0-0.1,0-0.3,0-0.4c0.3-2.4,3.6-3.6,5.8-2L34,53.1l0,0L46.2,44
	c2.5-2.1,5.8-0.6,6,1.8l0,0c0,0.1,0,0.2,0,0.3L52.3,53.1z"/>
<path id="musixmatch" d="M93.9,58.9v11.3h4.4V58.9c0-3,1.7-5.1,4.4-5.1c3.1,0,4.3,2.1,4.3,5v11.3h4.5V57.8c0-4.5-2.2-8.1-7.3-8.1
	c-2.7-0.1-5.3,1.1-7,3.3c-1.3-2.2-3.7-3.5-6.2-3.3c-2.4,0-4.6,1.2-6,3.2v-2.7h-4.3v20h4.5V59c0-3,1.7-5.1,4.4-5.1
	C92.7,53.9,93.9,56.1,93.9,58.9L93.9,58.9z M120.4,61.3V50.1h-4.5v12.3c0,4.5,2.5,8.1,7.5,8.1c2.4,0,4.7-1.2,6.1-3.1v2.7h4.4v-20
	h-4.5v11.1c0,3-1.8,5.1-4.6,5.1C121.7,66.3,120.4,64.2,120.4,61.3z M145.3,70.5c5,0,7.3-3.2,7.3-6.3c0-2.9-2-5.2-5.7-6l-2.8-0.6
	c-1.1-0.2-2-0.9-2-2.1c0.1-1.4,1.4-2.4,2.8-2.3c1.7-0.1,3.3,1.1,3.6,2.8l3.8-1.1c-0.4-1.9-2.1-5.3-7.4-5.3c-4.1,0-7.1,3-7.1,6.3
	c0,2.6,1.6,4.9,5.3,5.8l2.6,0.6c1.7,0.4,2.4,1.1,2.4,2.2c0,1.4-1,2.3-2.9,2.3c-1.9,0.1-3.6-1.3-4-3.2l-3.8,1
	C137.7,66.9,139.9,70.5,145.3,70.5L145.3,70.5z M155.5,43.6c-0.1-1.6,1.1-3,2.8-3.1s3,1.1,3.1,2.8c0,0.1,0,0.2,0,0.3
	c-0.1,1.6-1.5,2.9-3.1,2.8C156.8,46.3,155.6,45.1,155.5,43.6z M156.3,70.1v-20h4.5v20H156.3z M168.3,70.1l5-7l5.1,7h5.1l-7.6-10.2
	l7.4-9.8h-5l-4.9,6.6l-4.9-6.6h-5.1l7.3,9.9l-7.6,10.1H168.3z M199,58.9v11.3h4.5V58.9c0-3,1.6-5.1,4.4-5.1c3.1,0,4.3,2.1,4.3,5
	v11.3h4.5V57.8c0-4.5-2.2-8.1-7.3-8.1c-2.7-0.1-5.3,1.1-7,3.3c-1.3-2.2-3.7-3.5-6.2-3.3c-2.4,0-4.6,1.2-6,3.2v-2.7h-4.4v20h4.5V59
	c0-3,1.6-5.1,4.4-5.1C197.7,53.9,198.9,56.1,199,58.9L199,58.9z M219.9,60.1c0,5.4,4.1,10.4,9.9,10.4c1.6,0,5-0.8,6.6-3.4v3h4.4v-20
	h-4.4V53c-1.5-2.1-4-3.3-6.5-3.3C223.6,49.7,219.9,55,219.9,60.1L219.9,60.1z M236.4,60.1c0,3.3-2.7,6-6,6s-6-2.7-6-6l0,0
	c0-3.5,2.4-6.3,6-6.3S236.4,56.6,236.4,60.1z M257,54.1v-4h-5v-6.2h-4.5v6.2h-3.9v4h3.9v9.8c0,4.9,2.2,6.4,6.2,6.4
	c1.1,0,2.2-0.1,3.2-0.4v-3.8c-0.6,0.1-1.2,0.1-1.8,0.2c-2.2,0-3.1-0.9-3.1-2.6v-9.5L257,54.1z M269.3,70.4c4.3,0.2,8.1-2.5,9.5-6.6
	l-4.1-1.3c-0.7,2.3-2.9,3.9-5.3,3.8c-3.4,0-5.9-2.7-5.9-6.4s2.6-6.3,5.9-6.3c2.4-0.1,4.6,1.4,5.2,3.7l4-1.3
	c-0.8-3.4-4.3-6.5-9.3-6.5c-5.7-0.1-10.4,4.5-10.5,10.2c0,0.1,0,0.1,0,0.2c-0.1,5.7,4.4,10.3,10.1,10.4
	C269.1,70.5,269.2,70.5,269.3,70.4L269.3,70.4z M295.5,58.9v11.3h4.5V57.8c0-4.6-2.4-8.1-7.5-8.1c-2.4,0-4.6,1.1-6,3V39.6H282v30.6
	h4.5V59c0-3,1.8-5.1,4.6-5.1C294.2,53.9,295.5,56.1,295.5,58.9L295.5,58.9z"/>
</svg>
