<svg xmlns="http://www.w3.org/2000/svg" viewBox="0 0 300 120"><defs><style>.a{fill:#fff;}</style></defs><title>netflix</title><path class="a" d="M0,19.47c4.13-.08,8.27-.07,12.4,0C17,32.7,21.93,45.84,26.56,59.09a33,33,0,0,0,2.55,6c-.74-15.2-.09-30.44-.38-45.67,4.26-.07,8.52,0,12.78,0-.12,25.28-.08,50.57,0,75.86-4.62.42-9.22,1-13.83,1.55C22.57,82.94,18.27,68.75,12.87,55c-.08.39-.25,1.17-.34,1.55l.6.35c0,13.85-.07,27.71.08,41.56-4.39.88-8.89,1.06-13.21,2.27Z"/><path class="a" d="M53.47,19.37c11.69.1,23.38.05,35.07,0-.07,4.33-.05,8.65,0,13-7.44-.09-14.89,0-22.34-.08,0,5.66.11,11.33-.09,17,5.7,0,11.4-.09,17.1-.11.05,4.1-.08,8.21.11,12.32-5.73.2-11.47.12-17.2.23.1,6.25.24,12.51-.08,18.75,7.49-.41,15-1.06,22.46-1.45,0,4.16,0,8.33,0,12.49-11.62.73-23.3,1.25-34.85,2.75C53.24,69.33,53.65,44.34,53.47,19.37Z"/><path class="a" d="M96.45,19.46c13-.12,26.07,0,39.1-.07,0,4.33,0,8.67,0,13-4.4-.08-8.81,0-13.21-.08.08,19.29,0,38.57.05,57.85-4.25.08-8.49.14-12.73.39.09-19.41,0-38.83,0-58.25-4.39.09-8.78,0-13.17.07C96.55,28.07,96.6,23.76,96.45,19.46Z"/><path class="a" d="M143.46,19.44c11.74-.09,23.47.11,35.2-.1.12,4.31-.09,8.63.15,13q-11.29.16-22.58,0c-.07,5.45,0,10.89,0,16.34,5.7-.11,11.41,0,17.12-.07-.07,4.19,0,8.39,0,12.58-5.71,0-11.41,0-17.11,0,.15,9.5-.14,19,.16,28.49-4.25.35-8.51,0-12.76.22C143.43,66.35,143.64,42.89,143.46,19.44Z"/><path class="a" d="M186.64,19.44c4.29-.14,8.59-.17,12.88,0-.3,19.67,0,39.35-.16,59,7.27.19,14.52.71,21.78,1.25-.8,4.15.51,8.56-.64,12.57-11.22-1.23-22.55-1.43-33.83-1.92C186.75,66.73,186.81,43.08,186.64,19.44Z"/><path class="a" d="M231.31,19.39c4.18,0,8.36.09,12.54-.05.12,24.84,0,49.69.07,74.54-4.22-.44-8.47-.53-12.67-1.16C231.45,68.28,231.32,43.83,231.31,19.39Z"/><path class="a" d="M254.38,19.42c4.57.2,9.31-.41,13.77.26,2.89,7,5.55,14.06,8.18,21.14,3.35-7,6.2-14.3,9.35-21.42,4.77,0,9.55.14,14.32-.1v1.19l-1.61.86A54,54,0,0,1,295,30c-4.05,9.3-8,18.66-12.05,27.94,5.67,14.08,10.85,28.35,16.57,42.41l.47-1.41v1.78c-4.84-1.18-9.84-1.47-14.73-2.37-3.73-7.63-6.1-15.93-9.52-23.73-3.09,7.26-6,14.58-9.43,21.7-4.34-.84-8.76-1-13.12-1.62,5.54-12.23,10.56-24.7,16.09-37C264.33,45,259.49,32.14,254.38,19.42Z"/></svg>