<?xml version="1.0" encoding="utf-8"?>
<!-- Generator: Adobe Illustrator 23.0.6, SVG Export Plug-In . SVG Version: 6.00 Build 0)  -->
<svg version="1.1" id="Layer_1" xmlns="http://www.w3.org/2000/svg" xmlns:xlink="http://www.w3.org/1999/xlink" x="0px" y="0px"
	 viewBox="0 0 300 120" style="enable-background:new 0 0 300 120;" xml:space="preserve">
<title>new-york-times</title>
<path d="M23,43.7c0-3.3-3.1-4.3-5.8-4.2v0.3c1.6,0.2,2.8,0.8,2.8,1.8c-0.1,1-1,1.8-2,1.7c0,0-0.1,0-0.1,0c-1.8-0.2-3.6-0.7-5.3-1.4
	c-1.9-0.7-3.8-1.2-5.8-1.4C3.7,40.4,1.1,42.9,1,46c0,1.6,1,3.1,2.6,3.6l0.1-0.2C3.3,49.2,3,48.8,3,47.7c0-1.2,0.9-2.1,2.1-2.1
	c0.1,0,0.1,0,0.2,0c1.5,0,3.5,0.7,6.2,1.4c2,0.6,4.1,1.1,6.2,1.4v5.4L15.1,56l2.6,2.2v7.4c-1.3,0.7-2.7,1-4.2,1
	C11,66.8,8.6,65.8,6.9,64l7-3.4V48.8l-8.5,3.8c0.9-2.1,2.4-3.8,4.4-5l-0.1-0.2c-5,1.4-9.7,6-9.7,11.8C-0.1,65.7,5.2,71,11.7,71.1
	c0,0,0.1,0,0.1,0c5.8,0.1,10.7-4.4,10.8-10.3c0-0.2,0-0.5,0-0.7h-0.2c-1,2.2-2.6,4.1-4.6,5.4v-7.2l2.7-2.2L17.9,54v-5.4
	C20.5,48.5,23,46.8,23,43.7z M8.7,62.6l-2,1c-1.4-1.9-2.1-4.2-2-6.6c0-1.3,0.2-2.6,0.6-3.9l3.5-1.6L8.7,62.6z M40.6,53.2l-1.4,1
	l-4-3.6l-4.7,3.6V40.3l-6.4,4.4c1.1,0.2,1.8,1.2,1.6,2.3v19.4L23.6,68l0.2,0.2l1.1-0.8l3.8,3.4l5.1-3.4l-0.2-0.3L32.3,68l-1.8-1.8
	V54.7l1.2-0.9l2.8,2.4v10.2c0,6.4-1.4,7.8-4.3,8.8v0.2c4.8,0.2,9.1-1.4,9.1-9.7v-11l1.4-1.2C40.7,53.5,40.6,53.2,40.6,53.2z
	 M49.2,70.8l7.4-5.9l-0.2-0.3l-3.8,3L48,64.2V62l7.7-5.4l-3.8-6l-8.6,4.7v11.1l-1.7,1.3l0.2,0.2l1.6-1.3
	C43.4,66.6,49.2,70.8,49.2,70.8z M48,61.6v-8.4l3.7,5.8L48,61.6z M87.1,42.1c-0.1-0.5-0.2-1.1-0.3-1.6h-0.2
	c-0.6,1.4-1.1,2.2-2.7,2.2c-1.2-0.1-2.4-0.6-3.2-1.5c0,0.1-4.9,5.6-4.9,5.6L76,47l1.4-1.6c1.1,1.2,2.7,1.8,4.3,1.8v14.2l-9.8-17.2
	c-0.8-1.3-2.1-3.2-4.4-3.2c-2.6,0-4.7,2.3-4.4,6.2h0.2c0.2-1,0.8-2.2,1.9-2.2s1.7,0.9,2.2,1.7v5.5c-3,0-4.8,1.4-4.8,3.8
	c0,1,0.7,3.2,2.8,3.5v-0.2c-0.3-0.3-0.6-0.7-0.6-1.1c0-1,0.7-1.4,1.9-1.4c0.2,0,0.5,0.1,0.6,0.1V64c-3.6,0.1-6.4,2-6.4,5.4
	c0,3.2,2.8,4.7,5.7,4.6v-0.2c-1.8-0.2-2.7-1.1-2.7-2.5c0-1.2,0.9-2.2,2.1-2.2c0.1,0,0.2,0,0.3,0c1.4,0,2.3,0.9,3.2,1.8l4.9-5.4
	l-0.2-0.2l-1.3,1.4c-1.3-1.5-3.2-2.5-5.2-2.7V47l13.7,23.8h0.7V47.2C84.9,47.1,87.1,44.9,87.1,42.1z M91.8,70.8l7.4-5.9L99,64.6
	l-3.8,3l-4.5-3.5V62l7.7-5.4l-3.8-6L86,55.3v11.1l-1.7,1.3l0.2,0.2l1.6-1.3C86.1,66.6,91.8,70.8,91.8,70.8z M90.6,61.6v-8.4l3.7,5.8
	C94.3,59,90.6,61.6,90.6,61.6z M125.4,52.5l-1.1,0.9l-3.2-2.7l-3.8,3.4l1.5,1.4v12.6l-3.8-2.6V55.2l1.4-1l-3.9-3.7l-3.7,3.4l1.5,1.4
	v12.2l-0.2,0.2l-3.6-2.6v-10c0-2.3-1.2-3-2.6-3.9s-1.9-1.5-1.9-2.6c0-0.9,0.6-1.7,1.5-2c-1.3-0.1-4.9,1.3-5,4.6
	c-0.1,1.7,0.8,2.4,1.6,3.2c1,0.7,1.6,1.8,1.7,3v9.8l-1.8,1.4l0.2,0.2l1.7-1.3l4.3,3.5l4.2-2.9L115,71l8.9-5.3V54.3l2-1.5
	C125.9,52.8,125.4,52.5,125.4,52.5z M155.1,42.9l-1.7,1.5l-3.8-3.3l-5.1,4.2v-3.8h-0.3v27.8c-0.6-0.1-1.8-0.4-3-0.6V45.4
	c0-2.2-1.8-4-4-4c-0.1,0-0.1,0-0.2,0c-2.7,0-4.9,2.1-5,4.8h0.2c0.2-1,0.9-1.9,1.8-1.9s1.9,0.6,1.9,2.9v6.6c-2.9,0.2-4.6,1.9-4.6,3.8
	c-0.1,1.7,1.2,3.1,2.9,3.2v-0.2c-0.7-0.3-0.9-0.7-0.9-1.1c0-1,1-1.3,2.2-1.3h0.3v10.6c-2.5,0.9-3.6,2.5-3.6,4.6c0,2.8,2.2,5,5.6,5
	c2.1,0,4.2-0.3,6.2-0.9c1.5-0.4,3-0.7,4.6-0.8c1.3,0,1.8,0.6,1.8,1.5c0,1.2-0.5,1.8-1.1,2v0.2c2.8-0.6,4.4-2.2,4.4-4.6
	c0-2.6-2.5-4.2-5.2-4.2c-2.1,0.1-4.1,0.5-6.1,1c-1.7,0.4-3.4,0.7-5.1,0.8c-1.2,0-2.6-0.6-2.6-2.1s1.2-2.6,4.1-2.6
	c1.7,0,3.4,0.2,5,0.7c1.7,0.6,3.5,0.9,5.3,1c2.5,0,4.5-0.9,4.5-4.5V44.8l1.8-1.7L155.1,42.9L155.1,42.9z M148.2,54
	c-0.4,0.5-1.1,0.9-1.8,0.9c-0.7,0-1.4-0.3-1.8-0.9v-8.3l1.2-1l2.5,2.1L148.2,54L148.2,54z M148.2,58c-0.5-0.5-1.1-0.8-1.8-0.8
	c-0.7,0-1.3,0.3-1.8,0.8v-3.5c0.5,0.5,1.1,0.7,1.8,0.8c0.7,0,1.3-0.3,1.8-0.8V58z M148.2,66.4c0,1.4-0.7,2.9-2.5,2.9
	c-0.3,0-1-0.1-1.2-0.1V58.4c0.5-0.5,1.1-0.9,1.8-0.9c0.7,0,1.4,0.3,1.8,0.9L148.2,66.4L148.2,66.4z M162.6,70.8l8.2-5.1V54.5
	l-5.4-3.9l-8.2,4.7v11.1l-1.6,1.3l0.2,0.2l1.4-1.1L162.6,70.8L162.6,70.8z M162,65.1v-12l4.2,3V68L162,65.1L162,65.1z M186.6,50.8
	c-0.5,0.4-1.1,0.7-1.8,0.7c-0.7,0-1.4-0.4-1.8-1c0,0.1-3,3.3-3,3.3l-3-3.3l-5,3.4l0.2,0.3l1.4-0.9l1.8,2v10.9L173,68l0.2,0.2
	l1.1-0.8l4.1,3.4l5.2-3.4l-0.2-0.2L182,68l-2.1-1.9V54.2c0.9,1,1.8,1.8,3,1.8C184.9,56,186.3,53.5,186.6,50.8z M206.1,66.9l-1.5,1
	L196,55.2l0.5-0.6c1,0.6,1.8,1.4,3.5,1.4s4-1.8,4.2-5.3c-0.7,0.9-1.7,1.4-2.8,1.4c-1-0.1-2-0.6-2.7-1.4l-5.8,8.6l7.7,11.8l5.6-3.7
	L206.1,66.9z M195.7,67.2l-1.3,0.9l-1.8-1.8v-26l-6.4,4.4c1.1,0.2,1.8,1.2,1.6,2.3v19.4l-2.2,1.7l0.2,0.2l1.1-0.8l3.8,3.4l5.1-3.4
	L195.7,67.2L195.7,67.2z M233.2,43.7c0-3.3-3.1-4.3-5.8-4.2v0.3c1.6,0.2,2.8,0.8,2.8,1.8c-0.1,1-1,1.8-2,1.7c0,0-0.1,0-0.1,0
	c-1.8-0.2-3.6-0.7-5.3-1.4c-1.9-0.7-3.8-1.2-5.8-1.4c-3.1-0.1-5.7,2.3-5.8,5.4c0,0,0,0,0,0.1c0,1.6,1,3.1,2.6,3.6l0.1-0.2
	c-0.5-0.3-0.8-0.7-0.8-1.8c0-1.2,0.9-2.1,2.1-2.1c0.1,0,0.1,0,0.2,0c1.5,0,3.5,0.7,6.2,1.4c2,0.6,4.1,1.1,6.2,1.4v5.4l-2.6,2.2
	l2.6,2.2v7.4c-1.3,0.7-2.7,1-4.2,1c-2.5,0.1-4.9-0.9-6.6-2.7l7-3.4V48.8l-8.6,3.8c0.9-2.1,2.4-3.8,4.4-5l-0.1-0.2
	c-5,1.4-9.7,6-9.7,11.8c-0.1,6.5,5.2,11.8,11.7,11.9c0,0,0.1,0,0.1,0c5.8,0.1,10.7-4.4,10.8-10.3c0-0.2,0-0.5,0-0.7h-0.2
	c-1,2.2-2.6,4.1-4.6,5.4v-7.2l2.7-2.2l-2.7-2.2v-5.4C230.6,48.5,233.2,46.8,233.2,43.7L233.2,43.7z M218.8,62.6l-2,1
	c-1.4-1.9-2.1-4.2-2-6.6c0-1.3,0.2-2.6,0.6-3.9l3.5-1.6L218.8,62.6z M238.4,42.4l-3.5,3l3,3.4l3.5-3L238.4,42.4z M243.8,67.2
	l-1.3,0.9l-1.8-1.8V54.6l1.5-1.2l-0.2-0.2l-1.3,1l-3-3.5L233,54l0.2,0.3l1.2-0.8l1.6,2v10.9l-2.2,1.7l0.2,0.2l1.1-0.8l3.8,3.4
	l5.1-3.4L243.8,67.2L243.8,67.2z M271,67.1l-1.2,0.8l-1.9-1.8V54.6l1.5-1.2l-0.2-0.2l-1.4,1l-4-3.6l-4.6,3.5l-4-3.5l-4.5,3.5l-3-3.5
	l-4.9,3.4l0.2,0.3l1.2-0.8l1.8,2v10.8l-1.4,1.4l3.8,3.3l3.8-3.4l-1.5-1.4V54.5l1-0.7l2.8,2.4v10.1l-1.3,1.4l3.9,3.3l3.7-3.4
	l-1.5-1.4V54.5l1-0.8l2.8,2.5v9.9l-1.1,1.2l3.9,3.6l5.2-3.5L271,67.1z M285.2,64.7l-3.8,3l-4.5-3.5V62l7.7-5.4l-3.8-6l-8.6,4.7v11.4
	l5.8,4.2l7.4-5.9C285.4,65,285.2,64.7,285.2,64.7z M276.9,61.6v-8.4l3.7,5.8L276.9,61.6z M300,60l-3.3-2.5c1.8-1.5,2.9-3.7,3-6.1
	c0-0.2-0.1-0.7-0.1-1.1h-0.2c-0.4,1.1-1.4,1.7-2.5,1.7c-1.2-0.1-2.2-0.6-2.9-1.6l-7.5,4.2v6.1l2.9,2.2c-2.9,2.6-3.4,4.2-3.4,5.6
	c0,1.5,0.9,2.8,2.3,3.3l0.2-0.2c-0.5-0.3-0.7-0.8-0.7-1.3c0.1-0.9,0.9-1.5,1.8-1.4c1.3,0.1,2.5,0.7,3.2,1.8c0-0.1,7.2-4.4,7.2-4.4
	V60z M298.3,55c-1.1,2-3.6,4-5.1,5.1l-1.8-1.5v-5.9c0.7,1.7,2.3,2.9,4.2,3C296.5,55.6,297.5,55.4,298.3,55L298.3,55z M295.2,68.3
	c-0.8-1.9-2.6-3.2-4.7-3.3c-1.2-0.1-2.3,0.2-3.3,0.8c1.6-2.2,3.6-4,6-5.4l2,1.7V68.3z"/>
</svg>
