<svg id="Camada_1" data-name="Camada 1" xmlns="http://www.w3.org/2000/svg" viewBox="0 0 100 24.07"><title>packagist</title><path d="M35.46,10a3.39,3.39,0,0,1-1.12,2.73,4.75,4.75,0,0,1-3.18.95h-1v3.95H27.8V6.52h3.54a4.72,4.72,0,0,1,3.07.87A3.17,3.17,0,0,1,35.46,10Zm-5.31,1.76h.77a2.62,2.62,0,0,0,1.63-.43,1.53,1.53,0,0,0,.53-1.25,1.54,1.54,0,0,0-.45-1.22,2.12,2.12,0,0,0-1.41-.39H30.15Z"/><path d="M42.75,17.61l-.45-1.16h-.06a3.44,3.44,0,0,1-1.2,1,3.86,3.86,0,0,1-1.61.29,2.63,2.63,0,0,1-1.92-.7,2.68,2.68,0,0,1-.7-2,2.24,2.24,0,0,1,.94-2,5.49,5.49,0,0,1,2.85-.71l1.47,0V12a1.15,1.15,0,0,0-1.32-1.29,6,6,0,0,0-2.39.61L37.6,9.72A6.86,6.86,0,0,1,40.84,9a4,4,0,0,1,2.62.75A2.75,2.75,0,0,1,44.37,12v5.65Zm-.68-3.93-.9,0a2.89,2.89,0,0,0-1.5.36,1.14,1.14,0,0,0-.49,1c0,.65.37,1,1.12,1a1.78,1.78,0,0,0,1.29-.47,1.62,1.62,0,0,0,.48-1.23Z"/><path d="M50.19,17.76q-4,0-4-4.35a4.62,4.62,0,0,1,1.08-3.3A4,4,0,0,1,50.39,9,5.92,5.92,0,0,1,53,9.54l-.68,1.79q-.54-.21-1-.36a3.34,3.34,0,0,0-.94-.14c-1.2,0-1.8.86-1.8,2.57s.6,2.48,1.8,2.48a4.42,4.42,0,0,0,1.24-.17,4.63,4.63,0,0,0,1.14-.56v2a3.64,3.64,0,0,1-1.14.49A6.36,6.36,0,0,1,50.19,17.76Z"/><path d="M57,13l1-1.28,2.38-2.58h2.6l-3.36,3.68,3.57,4.8H60.48L58,14.17,57,15v2.64H54.73V5.81H57v5.26L56.92,13Z"/><path d="M69.75,17.61l-.45-1.16h-.06a3.44,3.44,0,0,1-1.2,1,3.91,3.91,0,0,1-1.62.29,2.63,2.63,0,0,1-1.92-.7,2.68,2.68,0,0,1-.7-2,2.26,2.26,0,0,1,.94-2,5.49,5.49,0,0,1,2.85-.71l1.47,0V12a1.15,1.15,0,0,0-1.32-1.29,6,6,0,0,0-2.38.61l-.77-1.56A6.89,6.89,0,0,1,67.83,9a4,4,0,0,1,2.62.75A2.72,2.72,0,0,1,71.36,12v5.65Zm-.69-3.93-.89,0a2.89,2.89,0,0,0-1.5.36,1.14,1.14,0,0,0-.5,1c0,.65.38,1,1.13,1a1.77,1.77,0,0,0,1.28-.47,1.62,1.62,0,0,0,.48-1.23Z"/><path d="M81.12,9.13V10.3l-1.33.34a2.36,2.36,0,0,1,.37,1.28,2.57,2.57,0,0,1-1,2.13,4.15,4.15,0,0,1-2.64.76l-.41,0-.35,0a.77.77,0,0,0-.35.6c0,.34.42.5,1.27.5h1.44a3.3,3.3,0,0,1,2.13.6A2.14,2.14,0,0,1,81,18.21a2.62,2.62,0,0,1-1.24,2.31,6.51,6.51,0,0,1-3.56.82,4.94,4.94,0,0,1-2.71-.62A2,2,0,0,1,72.57,19a1.82,1.82,0,0,1,.48-1.29,2.71,2.71,0,0,1,1.4-.73,1.62,1.62,0,0,1-.62-.5,1.21,1.21,0,0,1-.26-.73,1.19,1.19,0,0,1,.28-.81,3.35,3.35,0,0,1,.81-.63,2.23,2.23,0,0,1-1.06-.93,2.79,2.79,0,0,1-.39-1.5,2.64,2.64,0,0,1,.9-2.14A3.87,3.87,0,0,1,76.69,9a7.17,7.17,0,0,1,.85.06l.62.1ZM74.58,18.8a.84.84,0,0,0,.45.75,2.47,2.47,0,0,0,1.29.28,4.67,4.67,0,0,0,2-.34,1,1,0,0,0,.7-.94.66.66,0,0,0-.41-.66,3.47,3.47,0,0,0-1.29-.18h-1.2A1.82,1.82,0,0,0,75,18,.92.92,0,0,0,74.58,18.8Zm.84-6.9A1.7,1.7,0,0,0,75.73,13a1.14,1.14,0,0,0,1,.41,1.13,1.13,0,0,0,1-.41A1.76,1.76,0,0,0,78,11.9q0-1.53-1.26-1.53C75.84,10.37,75.42,10.88,75.42,11.9Z"/><path d="M82.42,6.94c0-.76.42-1.13,1.25-1.13s1.26.37,1.26,1.13a1.08,1.08,0,0,1-.31.83,1.34,1.34,0,0,1-1,.3C82.84,8.07,82.42,7.69,82.42,6.94Zm2.41,10.67H82.51V9.13h2.32Z"/><path d="M93.17,15.09a2.3,2.3,0,0,1-.91,2,4.44,4.44,0,0,1-2.71.69A8.82,8.82,0,0,1,88,17.63a5.4,5.4,0,0,1-1.22-.37V15.35a7.8,7.8,0,0,0,1.46.51,5.67,5.67,0,0,0,1.42.21c.84,0,1.26-.25,1.26-.73a.64.64,0,0,0-.17-.45,2.3,2.3,0,0,0-.58-.38c-.27-.15-.63-.31-1.09-.51a7.09,7.09,0,0,1-1.44-.75,2.25,2.25,0,0,1-.66-.8,2.7,2.7,0,0,1-.21-1.12,2,2,0,0,1,.87-1.74A4.25,4.25,0,0,1,90.1,9a7,7,0,0,1,3,.67l-.7,1.66a12,12,0,0,0-1.19-.44,3.66,3.66,0,0,0-1.13-.18c-.68,0-1,.19-1,.56a.65.65,0,0,0,.33.53,8.32,8.32,0,0,0,1.44.68,7.08,7.08,0,0,1,1.46.75A2.33,2.33,0,0,1,93,14,2.61,2.61,0,0,1,93.17,15.09Z"/><path d="M98.54,15.91a4.9,4.9,0,0,0,1.46-.26v1.72a5.15,5.15,0,0,1-2.12.39,2.61,2.61,0,0,1-2-.7A3,3,0,0,1,95.22,15V10.86h-1.1v-1l1.27-.78.67-1.79h1.48V9.13h2.37v1.73H97.54V15a.92.92,0,0,0,.27.73A1.08,1.08,0,0,0,98.54,15.91Z"/><path d="M5.36,15.11A.37.37,0,0,1,5,14.94a1,1,0,0,1-.1-.18l-.33-.71c-.1-.19-.2-.39-.29-.59a.1.1,0,0,0-.1-.06.83.83,0,0,0-.41.07.41.41,0,0,1-.16,0l-.7,0a2.06,2.06,0,0,1-.26,0,.09.09,0,0,1-.08,0,1.38,1.38,0,0,1-.17-.29A.36.36,0,0,0,2,12.88a5.87,5.87,0,0,1-.59,0,2.66,2.66,0,0,1-.92-.16.26.26,0,0,1-.17-.28.85.85,0,0,0,0-.23A9.15,9.15,0,0,1,0,11.1a2.07,2.07,0,0,1,.13-1c.2-.52.4-1,.61-1.56a.59.59,0,0,0,0-.13c0-.45,0-.9.07-1.35s0-.77.05-1.16S1,5.05,1,4.62c0-.13,0-.26,0-.39a.63.63,0,0,1,.21-.4A5.48,5.48,0,0,1,2.59,3c.76-.36,1.53-.73,2.3-1.07a.59.59,0,0,1,.57,0c.28.19.57.36.85.54a.11.11,0,0,0,.12,0l1.21-.57.1-.08c.24-.28.47-.57.71-.84A5.46,5.46,0,0,1,8.9.6,3.19,3.19,0,0,1,10,0h.13c.24,0,.48,0,.72,0a2.89,2.89,0,0,1,.92.23.13.13,0,0,1,.07.05.36.36,0,0,0,.24.16,1.28,1.28,0,0,1,.25.15c.43.32.85.65,1.29,1a1,1,0,0,0,.33.17L15,2.09a.33.33,0,0,1,.15.11l.41.46a.22.22,0,0,0,.26.08c.36-.1.71-.21,1.07-.3a.47.47,0,0,1,.17,0h.18l.58,0,.87.14a.13.13,0,0,1,.11.07c.34.6.68,1.2,1,1.79a3,3,0,0,0,.27.42.61.61,0,0,1,.11.28c0,.31.05.62.06.94,0,.58,0,1.16.05,1.74,0,.19,0,.38.05.56a1.67,1.67,0,0,0,.08.2c.1.3.21.6.3.9s.22.68.32,1a1.12,1.12,0,0,1,0,.32,5.19,5.19,0,0,1,0,.56c0,.21-.07.42-.11.64s-.13.7-.2,1.06a.23.23,0,0,1-.07.1c-.25.16-.51.31-.77.46a.2.2,0,0,1-.11,0l-.56,0c-.07,0-.09,0-.11.07s-.07.3-.11.45a.09.09,0,0,1-.08.08c-.44.07-.88.13-1.32.21a1.65,1.65,0,0,0-.72.34.93.93,0,0,0-.29.55c-.11.58-.23,1.16-.35,1.74a1.57,1.57,0,0,1-.15.43c-.33.57-.66,1.13-1,1.68a3,3,0,0,1-.28.34.09.09,0,0,0,0,.12c.19.74.39,1.48.59,2.23l-.67-.27.28,1.11-.78-.06c-.05.16-.09.32-.14.48S14,23.74,14,24c0,0,0,.07-.08.06l-1-.05-.59,0a.28.28,0,0,0-.15,0,.56.56,0,0,1-.34,0,1.35,1.35,0,0,0-.45-.05H8.91c0-.16-.08-.32-.11-.48s-.05-.28-.08-.42a.36.36,0,0,0-.08-.15s-.05,0-.07,0l-1,.16a2.44,2.44,0,0,0-.26.06.69.69,0,0,0,0-.13s0-.08,0-.11a.33.33,0,0,1,0-.26c.14-.32.29-.64.43-1a.49.49,0,0,0,0-.13l-.64.21,0-.07c.29-.5.59-1,.87-1.49.14-.24.15-.17,0-.37s-.36-.4-.55-.59l-.59-.56c-.24-.25-.47-.5-.72-.75a.52.52,0,0,1-.12-.19c-.11-.28-.23-.56-.35-.85a.19.19,0,0,1,0-.08,3.6,3.6,0,0,0-.2-1.17C5.46,15.46,5.41,15.28,5.36,15.11ZM5,4l-.62-.29a.46.46,0,0,0-.2-.05,2.28,2.28,0,0,0-1.41.42.7.7,0,0,0-.37.6.14.14,0,0,1,0,.06l-.33.64,0,.06a.35.35,0,0,1-.09-.36c.09-.29.19-.58.26-.87a.54.54,0,0,1,.3-.37l.75-.36a5.69,5.69,0,0,1,1.34-.38.6.6,0,0,1,.52.1c.15.13.28.27.42.41a.09.09,0,0,1,0,.11c-.14.37-.27.73-.4,1.09a7.24,7.24,0,0,0-.25.79,5.47,5.47,0,0,0-.08,1.21,2.55,2.55,0,0,0,.07.67c0,.11,0,.15-.07.22l-.08,0a2.93,2.93,0,0,0-1,1,.54.54,0,0,0-.09.37,2,2,0,0,0,.32,1c.15.24.31.47.47.71l0,.05,0-.08a2,2,0,0,1,.54-.67l.39-.26a.25.25,0,0,0,.14-.19A4.92,4.92,0,0,1,5.83,9a1.28,1.28,0,0,1,.67-.72l.18-.11a1,1,0,0,1-.41-.23,3.3,3.3,0,0,1-.76-1.08,1.5,1.5,0,0,1-.12-.93c0-.13.11-.24.14-.37A1.63,1.63,0,0,1,7.09,4.37a5.68,5.68,0,0,1,.59,0,1.79,1.79,0,0,1,.77.25,1.62,1.62,0,0,1,.63.78,1.62,1.62,0,0,1,0,1.36c0,.1-.1.2-.15.3l.82-.35A.79.79,0,0,1,10,6.68a3.82,3.82,0,0,1,1,.07l.93.17a1.12,1.12,0,0,1,.63.27l.14.12c0-.17,0-.32-.05-.47a3.31,3.31,0,0,1,.18-1.29,1.1,1.1,0,0,1,.54-.64,3.7,3.7,0,0,1,.91-.34,1.37,1.37,0,0,1,1.16.2,6.54,6.54,0,0,1,.51.41l.06.06c0-.13,0-.24,0-.35L16,3.9s0-.07.06-.1.31-.16.47-.26a.14.14,0,0,1,.16,0,.15.15,0,0,0,.09,0l1.4.3a.18.18,0,0,1,.1.07c.23.36.45.73.67,1.09.1.17.2.35.29.53s0,.21-.13.28L19,5.77l-.69-1.09a.2.2,0,0,0-.09-.07l-1.39-.45c-.12,0-.12,0-.17.07a2.81,2.81,0,0,0-.27,1c0,.35,0,.71,0,1.06a.51.51,0,0,0,.22.48.67.67,0,0,1,.15.14c.11.14.23.29.33.44l.56.82a.69.69,0,0,1,.11.4c0,.42,0,.84,0,1.26a.58.58,0,0,1-.1.36A5.75,5.75,0,0,1,17,11a.73.73,0,0,1-.45.27c-.12,0-.18.12-.27.18s0,0,0,0c0,.17,0,.33,0,.5v0l.54-.06a1.78,1.78,0,0,1,.91.13.11.11,0,0,1,.08.11c0,.11,0,.21,0,.32s0,.32.29.35a1,1,0,0,1,.65.25l.21.2a.18.18,0,0,0,.1,0h.79a.19.19,0,0,0,.1,0l.37-.25a.2.2,0,0,0,.09-.15c.06-.31.12-.61.17-.92a3.47,3.47,0,0,0,.11-1.11c0-.19,0-.38-.06-.56a5.11,5.11,0,0,0-.5-1.47.42.42,0,0,1,0-.1c0-.23-.07-.45-.08-.67,0-.47-.07-1-.1-1.42s-.05-.86-.07-1.29a.59.59,0,0,0-.14-.38c-.43-.63-.86-1.25-1.28-1.89a.43.43,0,0,0-.35-.23c-.28,0-.56-.1-.84-.13a1.76,1.76,0,0,0-.93.15h-.08a.41.41,0,0,0-.36,0l-.4.21c-.09-.11-.17-.23-.26-.35a.86.86,0,0,0-.13-.14l-.67-.44A2.18,2.18,0,0,0,13.81,2L13,1.74a.62.62,0,0,1-.3-.16l-1-1A.13.13,0,0,0,11.54.5L9.85.56a1,1,0,0,0-.6.21A5.26,5.26,0,0,0,8,2a1.06,1.06,0,0,1-.6.5c-.14.06-.28.15-.42.2s-.43.11-.64.16a.34.34,0,0,1-.28,0l-.65-.38a.88.88,0,0,0-1-.05l-.23.14-1.41.72a5.2,5.2,0,0,0-.91.54.64.64,0,0,0-.23.26c0,.14-.12.26-.18.39a1.93,1.93,0,0,0-.21.91c0,.35,0,.7,0,1.06V7.67c0,.08,0,.16,0,.24a1.63,1.63,0,0,1,0,.44c-.1.41-.23.81-.35,1.21s-.23.76-.33,1.14a1,1,0,0,0,0,.41c0,.39.1.77.16,1.15a.44.44,0,0,0,.27.38.78.78,0,0,0,.5,0l.81-.19a.32.32,0,0,1,.38.13c.1.15.2.31.29.47s.08.1.15.1h.68a3,3,0,0,0,.38-.09,3.12,3.12,0,0,1,0-1.14.85.85,0,0,0,0-.45A2.18,2.18,0,0,0,4,10.85a6.08,6.08,0,0,1-.53-1,.78.78,0,0,1,0-.4.13.13,0,0,1,0-.06,2.74,2.74,0,0,1,.2-.88,2.23,2.23,0,0,1,.5-.71.76.76,0,0,0,.21-.44c0-.17,0-.34.07-.51L4.46,6a3.54,3.54,0,0,1,.18-1C4.77,4.69,4.88,4.33,5,4ZM8.52,14.38c.07.1.06.12,0,.19l0,0-.65.87a.26.26,0,0,0-.06.22.92.92,0,0,0,.08.25c.13.25.26.5.41.73s.3.42.45.62.08.17.19.17a.28.28,0,0,1,.11.08l.23.22.1.07,1.2.44a1.65,1.65,0,0,0,.85.09.32.32,0,0,1,.27,0s.07,0,.1,0l.12-.06a3.28,3.28,0,0,0,.85-.24.29.29,0,0,0,.12-.1c0-.07.1-.13.14-.19a.59.59,0,0,0,0-.08s0-.1.08-.13c.24-.21.49-.41.74-.61a1.91,1.91,0,0,0,.6-.6.81.81,0,0,1,.12-.14l.61-.59.38-.35a3,3,0,0,1,.85-.55c.09,0,.17-.1.25-.14l.15-.06c.46-.15.92-.32,1.38-.46.21-.06.43-.08.65-.12a1.2,1.2,0,0,0,0-.19c-.05-.28-.16-.46-.42-.51a3.91,3.91,0,0,0-.48,0,.22.22,0,0,1-.22-.17c0-.14-.07-.27-.1-.41a.37.37,0,0,0-.36-.31,1.66,1.66,0,0,0-1,.14l-1.15.61a4.37,4.37,0,0,0-1.08.84l-.44.52s0,.05-.08.05a.22.22,0,0,1-.2-.2,1,1,0,0,1,.15-.61l.19-.29a.9.9,0,0,0-.76-.1,4.78,4.78,0,0,0-1.21.67l-.08,0c-.05,0-.07,0-.08,0a.37.37,0,0,1,.09-.25c.09-.09.2-.16.29-.25a1.46,1.46,0,0,1,.54-.34l.09,0a1.19,1.19,0,0,0-.34-.45A5,5,0,0,0,11,12.09h0l-.61,0h-.09v0a1,1,0,0,1,.18-.08,3.73,3.73,0,0,1,.94-.07.47.47,0,0,1,.16,0l.79.37a.88.88,0,0,1,.49.42s.05.05.11,0a1.14,1.14,0,0,1,.32,0,.89.89,0,0,1,.54.3c.08.07.14.08.22,0a.67.67,0,0,0,.27-.52c0-.29,0-.58-.05-.87a1.63,1.63,0,0,0-.13-.57.29.29,0,0,1,0-.09h0l.18.19c.08.09.11.09.17,0s.13-.25.21-.36a1.35,1.35,0,0,0,.2-.42.93.93,0,0,0-.45-1.14,6,6,0,0,0-.73-.33.94.94,0,0,1-.37-.25c-.14-.18-.27-.36-.4-.55a1.31,1.31,0,0,0-.66-.52,3.65,3.65,0,0,0-.64-.2c-.43-.09-.85-.17-1.28-.23a2.1,2.1,0,0,0-.56,0A2.48,2.48,0,0,0,8.49,8a.73.73,0,0,1-.27.2c-.24.07-.48.15-.72.2s-.37.05-.54.1a1.2,1.2,0,0,0-.77.78,1.67,1.67,0,0,0,0,.83c0,.11,0,.21.07.33l0,0a3.11,3.11,0,0,1,1-.82A3.71,3.71,0,0,1,9.09,9c.3,0,.6,0,.89,0a1.73,1.73,0,0,1,.35.05l-1,.11a8.53,8.53,0,0,0-1.92.52.17.17,0,0,0-.11.16.13.13,0,0,1,0,.07c-.15.16-.29.31-.45.46a2,2,0,0,0-.5.82,1,1,0,0,0,0,.76s0,0,0,.06a.57.57,0,0,1,.08.13.11.11,0,0,1,0,.08c0,.23,0,.45,0,.67a2.9,2.9,0,0,0,.36,1.18,2.45,2.45,0,0,0,.74.92Zm3.16,6.83h.07l1.35-.07.05,0c.26-.3.52-.6.79-.89a6.53,6.53,0,0,0,.54-.64c.41-.59.79-1.2,1.18-1.81a1.66,1.66,0,0,0,.26-.84,1.17,1.17,0,0,1,.2-.62,1.63,1.63,0,0,0,.09-.19,3.08,3.08,0,0,0,.16-.79.09.09,0,0,0-.11-.11,1,1,0,0,0-.21.09,4.51,4.51,0,0,0-1.19,1,.47.47,0,0,0,0,.1,1.15,1.15,0,0,1-.38.49c-.28.19-.55.39-.82.59a1,1,0,0,0-.23.24c-.11.15-.2.32-.3.47a.28.28,0,0,1-.1.09c-.18.1-.36.2-.55.29a.27.27,0,0,1-.12,0l-1.18,0A2.77,2.77,0,0,1,10,18.53l-.5-.17a.62.62,0,0,1-.19-.12L7.92,17a.24.24,0,0,1-.06-.08c-.21-.47-.43-.94-.62-1.43A1.39,1.39,0,0,0,6.92,15a1.71,1.71,0,0,1-.38-.54,7.42,7.42,0,0,1-.39-1.21l-.05-.11h0c-.06.24-.14.48-.18.72a9,9,0,0,0-.08.91,2.46,2.46,0,0,0,0,.47c.07.42.15.84.24,1.25,0,.25.11.49.17.72a.2.2,0,0,0,.06.09l.14.12a11.66,11.66,0,0,0,.93.93,6,6,0,0,1,1.05,1.2c.36.49.68,1,1,1.49a.13.13,0,0,0,.11.06H9.8l1.07.1c.19,0,.19,0,.25-.16v0l.33-.94L11,20l.1-.15a.11.11,0,0,1,.12-.07,8.1,8.1,0,0,0,.86-.06,2.13,2.13,0,0,0,1-.42.65.65,0,0,1,.16-.09.18.18,0,0,1,.22.11c0,.08,0,.13-.07.19s-.32.2-.49.28-.37.16-.56.24l-.41.14a.26.26,0,0,0-.17.22C11.75,20.65,11.72,20.93,11.68,21.21ZM13.4,8.13a1.25,1.25,0,0,0,.34.38,2.11,2.11,0,0,0,.3.16,2.64,2.64,0,0,1,.3.1l1,.68a.1.1,0,0,1,0,.08c0,.19,0,.39.05.58a.15.15,0,0,0,0,.1l.24.29c.11.15.21.31.32.48.13-.05.26-.12.4-.16a.69.69,0,0,0,.48-.4,2.42,2.42,0,0,0,.46-1.33.64.64,0,0,0-.12-.43l-.07-.11L16.46,7.3c-.07-.13-.1-.13-.21,0a2.16,2.16,0,0,0-.25.27c-.08.08-.13.21-.23.27-.27.15-.54.29-.82.42a1.23,1.23,0,0,1-1.06,0A4.84,4.84,0,0,0,13.4,8.13ZM7.82,22.67l.21,0,1.18-.17c.33-.05.66-.1,1-.13.6-.07,1.21-.12,1.81-.18a2.57,2.57,0,0,1,.83,0,3,3,0,0,0,.5.12l1.07.06h.26a1.29,1.29,0,0,0,0-.19l-.23-.69a.1.1,0,0,0-.08-.08l-.31-.1a.28.28,0,0,0-.2,0,1,1,0,0,1-.33.1c-.36,0-.72,0-1.08,0l-1,0-1.24,0a.63.63,0,0,1-.3-.07.53.53,0,0,0-.18,0H8.42a.13.13,0,0,0-.07.05c-.13.27-.25.55-.38.82Zm6.11,0-.38,0c-.27,0-.55,0-.82-.06l-.64-.08a1.53,1.53,0,0,0-.43,0l-.34.05-.6.08-.19.06-.67.07-.76.08s0,0,0,.05a1.05,1.05,0,0,0,.06.24l.13.3a2.68,2.68,0,0,1,.07.27h0l4.13,0a1.81,1.81,0,0,1,.23,0c.11-.33.08-.71.21-1.05ZM5.71,10.43l-.5.2a.65.65,0,0,0-.21.19,3.21,3.21,0,0,0-.43,1.44,4.05,4.05,0,0,0,.08,1.1.78.78,0,0,0,.18.44.71.71,0,0,1,.1.14l.16.32c0,.1.09.21.14.31l.16,0h0c.06-.25.11-.5.18-.75s.18-.62.28-.93a.26.26,0,0,0,0-.23.56.56,0,0,1-.06-.31l0-.42a5.93,5.93,0,0,0,0-.73C5.79,10.93,5.74,10.69,5.71,10.43ZM8.77,6.55a.84.84,0,0,0,0-.1,1.93,1.93,0,0,0-.11-1,1,1,0,0,0-.49-.57,1.71,1.71,0,0,0-.88-.21,1.32,1.32,0,0,0-.65.15,1.6,1.6,0,0,0-.8,1.69,1.09,1.09,0,0,0,.28.58.51.51,0,0,0,0-.09,2,2,0,0,1,.24-.68,1.47,1.47,0,0,1,1.45-.69,1,1,0,0,1,.75.58C8.66,6.3,8.7,6.42,8.77,6.55Zm4.35-.26.06-.08a1.21,1.21,0,0,1,1.2-.52,1.38,1.38,0,0,1,1.18.94c.07.19.11.38.17.58a.47.47,0,0,1,.06-.09A1.36,1.36,0,0,0,16,6a1.67,1.67,0,0,0-.44-.8,1.17,1.17,0,0,0-.78-.4,1.79,1.79,0,0,0-1.3.41.55.55,0,0,0-.16.18A1.51,1.51,0,0,0,13.12,6.29Zm1.56,6.4c.14-.07.26-.16.39-.22l.61-.25a.16.16,0,0,0,.08-.08,1.19,1.19,0,0,0,.05-.26,2.3,2.3,0,0,0,0-.52,1.45,1.45,0,0,0-.3-.64h0l0,0-.81,1a.29.29,0,0,0,0,.09c0,.2,0,.4,0,.59ZM8.51,6.88h0c0-.12,0-.24-.06-.35a.89.89,0,0,0-.86-.68,1.23,1.23,0,0,0-1.05,1,.93.93,0,0,0,.08.57A.46.46,0,0,0,7,7.63a.88.88,0,0,1,.39-1.09A.84.84,0,0,1,8,6.43.86.86,0,0,1,8.51,6.88Zm6,.88a.91.91,0,0,0,.68-.56.57.57,0,0,0,0-.55,2.17,2.17,0,0,0-.31-.37A.91.91,0,0,0,14.27,6a1,1,0,0,0-1,.74.5.5,0,0,0,0,.13l.13-.13a.78.78,0,0,1,1.07-.08A.71.71,0,0,1,14.55,7.76Zm.57,13.75L14.66,20l-.22.2a.09.09,0,0,0,0,.07c.09.36.18.71.28,1.06l0,.05ZM8.36,20.22l-.61,1.06v0l.34-.18s0,0,0,0c.12-.21.24-.42.35-.64a.11.11,0,0,0,0-.08Zm.14.94H9l-.3-.45ZM8.15,6.82a.14.14,0,1,0-.27,0,.14.14,0,1,0,.27,0Zm6.17.34a.14.14,0,1,0,0-.27.14.14,0,1,0,0,.27Z"/><path d="M14.06,2.75a.16.16,0,0,1,.15.09A1.51,1.51,0,0,1,14.3,3a.07.07,0,0,1,0,.07.62.62,0,0,1-.19.07,5.7,5.7,0,0,0-.9.33,1.1,1.1,0,0,0-.55.49c0,.07-.08.06-.13,0l-.1,0c-.21-.15-.19-.29,0-.45a4.41,4.41,0,0,1,1.2-.62l.34-.11Z"/><path d="M7.87,2.94a.48.48,0,0,1,.31.12,3,3,0,0,1,.32.3,4.2,4.2,0,0,0,.55.48l.12.1c.11.1.11.14,0,.23a.08.08,0,0,1-.1,0c-.2-.14-.42-.27-.62-.4a7.47,7.47,0,0,0-.95-.54s-.08-.05-.08-.08,0-.07.07-.1A.89.89,0,0,1,7.87,2.94Z"/></svg>