<svg id="Camada_1" data-name="Camada 1" xmlns="http://www.w3.org/2000/svg" viewBox="0 0 300 120"><defs><style>.cls-1{fill:#fff;}</style></defs><title>pandora</title><path class="cls-1" d="M175.41,31.73a3.73,3.73,0,0,1,3.46-3.79c1.42-.05,2.85,0,4.27,0q0,25.15,0,50.31c0,.46-.05.92-.11,1.39-2.54,0-5.08,0-7.62,0,0-1.11,0-2.22,0-3.32a21.35,21.35,0,0,1-11,4.47,20.78,20.78,0,0,1-22.92-20.93,20.4,20.4,0,0,1,4.08-12.34,20.73,20.73,0,0,1,14.94-8.3,21.08,21.08,0,0,1,14.91,4.51c0-4,0-8,0-12m-16,15.78a13,13,0,0,0-9.46,11,12.91,12.91,0,1,0,19.75-9.45A12.74,12.74,0,0,0,159.36,47.51Z"/><path class="cls-1" d="M7.68,43.73A21,21,0,0,1,22.2,39.16a20.88,20.88,0,0,1,.37,41.64A21,21,0,0,1,7.68,76.27v12a3.75,3.75,0,0,1-3.24,3.78c-1.47.07-3,0-4.44,0Q0,66.23,0,40.39c2.55,0,5.1,0,7.66,0,0,1.11,0,2.23,0,3.35m10.11,3.58a13,13,0,0,0-3.12,24.3,12.64,12.64,0,0,0,9.65.7A12.93,12.93,0,0,0,28.54,50,12.82,12.82,0,0,0,17.79,47.31Z"/><path class="cls-1" d="M52.36,45.41a20.59,20.59,0,0,1,13.8-6.26,21.05,21.05,0,0,1,14.18,4.52,24.21,24.21,0,0,1,.08-3.3c2.55,0,5.1,0,7.65,0,0,13.07,0,26.14,0,39.22-2.52,0-5-.05-7.55,0a17,17,0,0,1-.21-3.34,20.87,20.87,0,0,1-33.85-15.2,20.93,20.93,0,0,1,5.91-15.71M65,47.35a12.93,12.93,0,0,0-5.06,22.94,12.82,12.82,0,0,0,11.42,2.14,13,13,0,0,0,4.09-22.82A12.85,12.85,0,0,0,65,47.35Z"/><path class="cls-1" d="M112.72,39.25a20.82,20.82,0,0,1,23.2,21.22c0,6.38,0,12.77,0,19.15q-4.16,0-8.33,0c0-6.59,0-13.19,0-19.78a12.55,12.55,0,0,0-7.25-11.17,12.36,12.36,0,0,0-10.4,0A12.59,12.59,0,0,0,103,57.12a26.93,26.93,0,0,0-.34,6c0,5.52,0,11,0,16.55-2.78,0-5.55,0-8.33,0-.11-6.49,0-13,0-19.47a21,21,0,0,1,3.49-11.72A20.81,20.81,0,0,1,112.72,39.25Z"/><path class="cls-1" d="M205.89,39.4a20.9,20.9,0,0,1,11.55,39.9,20.89,20.89,0,1,1-11.55-39.9m.65,8.45a12.5,12.5,0,0,0-2.32,23.48,12.44,12.44,0,0,0,9.47.4,12.59,12.59,0,0,0,7.75-8.43,13.76,13.76,0,0,0,.35-4.74,12.45,12.45,0,0,0-15.25-10.71Z"/><path class="cls-1" d="M240.25,45.93c4.26-4.69,10.79-6.68,17-6.74,0,2.8,0,5.6,0,8.4a14.26,14.26,0,0,0-10,3.4,11.55,11.55,0,0,0-3.36,8.52c0,6.7,0,13.41,0,20.11-2.78,0-5.55,0-8.33,0-.09-6.71,0-13.42,0-20.12C235.51,54.65,236.89,49.57,240.25,45.93Z"/><path class="cls-1" d="M262.6,47.26a20.75,20.75,0,0,1,13.81-8,21.1,21.1,0,0,1,15.83,4.41V40.39H300q0,19.62,0,39.24h-7.74c0-1.1,0-2.21,0-3.32a21,21,0,0,1-14.47,4.55,20.77,20.77,0,0,1-19.32-18.38,20.83,20.83,0,0,1,4.15-15.2m14.26.08a12.95,12.95,0,0,0-5.76,22.39,12.82,12.82,0,0,0,11.53,2.85,13.05,13.05,0,0,0,7.8-5.55,12.95,12.95,0,0,0-13.57-19.69Z"/></svg>