<svg id="Camada_1" data-name="Camada 1" xmlns="http://www.w3.org/2000/svg" viewBox="0 0 300 120"><defs><style>.cls-1{fill:#fff;}</style></defs><title>periscope</title><path class="cls-1" d="M20.92,31.12A20.92,20.92,0,0,0,0,52C0,67.6,16.73,84.69,20.92,84.69S41.84,67.6,41.84,52A20.92,20.92,0,0,0,20.92,31.12Zm0,33.69A12.69,12.69,0,0,1,10.64,44.67,5.12,5.12,0,1,0,18,39.76a12.69,12.69,0,1,1,2.92,25Z"/><path class="cls-1" d="M67.08,40H80.22C87,40,92,44.48,92,51.51S87,63.14,80.22,63.14H70.81V78.07H67.08V40ZM79.73,59.79c5.08,0,8.38-3.08,8.38-8.27s-3.3-8.11-8.33-8.11h-9V59.79h8.92ZM109,50.21c7.52,0,11.36,5.79,11.36,12.55,0,.59-.05,1.24-.11,1.84H99.42c.16,6.92,4.92,10.76,10.55,10.76a12.71,12.71,0,0,0,8.27-3.25l1.68,2.81a15.64,15.64,0,0,1-10.06,3.78c-8.11,0-14.28-5.84-14.28-14.22C95.58,55.57,101.69,50.21,109,50.21Zm7.63,11.47c-.22-5.68-3.68-8.44-7.73-8.44-4.54,0-8.49,3-9.36,8.44Zm10.65-10.82h3.62v5a11.13,11.13,0,0,1-.22,2.16h.11c1.35-4.11,4.49-7.46,8.71-7.46a6.37,6.37,0,0,1,1.46.16v3.62a7,7,0,0,0-1.35-.11c-6.11,0-8.65,6.87-8.65,12.28V78.07h-3.68V50.86ZM146.47,40h4v4.6h-4Zm.16,10.82h3.68v27.2h-3.68V50.86Zm12,21.31a11.8,11.8,0,0,0,8.22,3.3c3,0,5.46-1.51,5.46-4.38,0-6.06-14.49-4.38-14.49-13.3,0-5,4.27-7.57,9.25-7.57a12.19,12.19,0,0,1,8.38,3l-1.73,2.76a10.24,10.24,0,0,0-6.81-2.49c-2.87,0-5.46,1.24-5.46,4.22C161.45,63.9,176,62.06,176,71c0,4.49-3.84,7.68-9.19,7.68a14.13,14.13,0,0,1-10.11-3.95l1.95-2.6Zm36.56-22c3.57,0,7.52,1.24,10,3.89l-1.89,2.76a11.51,11.51,0,0,0-7.95-3.35c-5.95,0-10.6,4.49-10.6,11a10.47,10.47,0,0,0,10.71,10.87,12.12,12.12,0,0,0,8.71-3.73l1.68,2.76a14.53,14.53,0,0,1-10.6,4.33c-8.06,0-14.28-5.79-14.28-14.22a13.9,13.9,0,0,1,14.28-14.28Zm28.72,0a14.25,14.25,0,1,1-14.33,14.12A14.08,14.08,0,0,1,223.91,50.21Zm0,25.15a10.93,10.93,0,1,0-10.55-11C213.36,70.71,218.07,75.36,223.91,75.36Zm21.25-24.5h3.52v2.87a13.5,13.5,0,0,1-.16,2.11h.11a10.16,10.16,0,0,1,9.46-5.63c7.36,0,11.84,5.84,11.84,14.22,0,8.65-5.08,14.28-12.17,14.28a10,10,0,0,1-9-5.41h-.11a16.08,16.08,0,0,1,.16,2.38v13.2h-3.68Zm12.22,24.55c4.81,0,8.82-4,8.82-10.92,0-6.65-3.57-10.92-8.65-10.92-4.54,0-8.82,3.24-8.82,11C248.73,70,251.81,75.42,257.38,75.42Zm31.26-25.2C296.16,50.21,300,56,300,62.76c0,.59-.05,1.24-.11,1.84H279c.16,6.92,4.92,10.76,10.55,10.76a12.71,12.71,0,0,0,8.27-3.25l1.68,2.81a15.64,15.64,0,0,1-10.06,3.78c-8.11,0-14.28-5.84-14.28-14.22C275.18,55.57,281.29,50.21,288.64,50.21Zm7.63,11.47c-.22-5.68-3.68-8.44-7.73-8.44-4.54,0-8.49,3-9.36,8.44Z"/></svg>