<svg id="Camada_1" data-name="Camada 1" xmlns="http://www.w3.org/2000/svg" viewBox="0 0 300 120"><defs><style>.cls-1{fill:#fff;}</style></defs><title>pexels</title><g id="_ffffffff" data-name="#ffffffff"><path class="cls-1" d="M18,34.8h12.5c3.2.1,9.5.2,12.7.2a9.47,9.47,0,0,1,7.3,8.7V75.6a9.33,9.33,0,0,1-4.7,8.3c-3.7,2.2-8.3.5-12.4,1.3H20.81c-3.4-.1-10.2-.2-13.6-.3-3.9-1-7.2-4.7-7-8.8C.11,74,0,69.7,0,67.5V55.7c1.1-5.9-2.09-13.8,3.1-18.4,4-3.8,10-1.7,14.9-2.5M37.41,41c-1,.5-.4,1.9-.6,2.8.2,1.4-.6,3.6,1.1,4.3,2-.1,4.5.7,6.2-.6a31.08,31.08,0,0,0,0-6.1c-.2-.2-.7-.5-.9-.7-1.8,0-4-.5-5.8.3m-14.7,7c-6.5,1.2-11.3,8-10.1,14.5a12.93,12.93,0,0,0,8.8,10.4,13.18,13.18,0,0,0,12.9-2.7A13,13,0,0,0,36,52.9,13.2,13.2,0,0,0,22.71,48Z"/><path class="cls-1" d="M276.29,36.2c7.8-2.2,16.2-.8,23.6,2.3-1,3.5-2.7,6.8-3.9,10.3l.3.2c-4.5-2-9.3-3.8-14.3-3.1a3.55,3.55,0,0,0-2.7,2.2,3.22,3.22,0,0,0,1.7,3.4c4.6,3,10.1,4.4,14.4,7.8A12.18,12.18,0,0,1,300,69.7a13.47,13.47,0,0,1-5,11.2c-4.8,3.9-11.2,4.6-17.2,4.2a30.76,30.76,0,0,1-11.6-2.7,6.12,6.12,0,0,0-.5-1.2,22.15,22.15,0,0,0,0-6.8l.3-.3a21.64,21.64,0,0,1,0-3.6c4.5,2.6,9.6,3.7,14.8,4.2,2.6.1,5.8-.8,6.4-3.7-.8-2.7-3.5-3.7-5.8-4.8-4.2-2-8.8-3.6-11.9-7.1-3.1-3.3-3.7-8.3-3-12.6C267.29,41.2,271.59,37.5,276.29,36.2Z"/><path class="cls-1" d="M70,35.8h18.9c4.8.2,10.1,1.5,13.29,5.3,4.1,4.6,3.8,11.5,2.3,17.1a15.07,15.07,0,0,1-9.39,8.9c-3.8,1.3-7.9,1.2-11.9,1.2V84.5H70c0-16.2.1-32.5,0-48.7m13.2,10.7c.1,3.6,0,7.2,0,10.8,1.2,1,2.9.3,4.2.1,4.2-.6,6.3-6.5,3.4-9.6C88.81,45.8,85.81,46.6,83.21,46.5Z"/><path class="cls-1" d="M111.3,84.5V35.8h29V46.4H124.5v7.5H139V64.6c-4.9-.1-9.7,0-14.6,0v9.1h15.8c0,3.7.1,7.3,0,11C130.6,84.4,120.9,84.6,111.3,84.5Z"/><path class="cls-1" d="M142.8,35.8h14.6c3,5,6,10,8.8,15.1,2.9-5,5.7-10,8.5-15.1H190c-5.1,7.6-9.7,15.5-14.6,23.2-.4.7-1.1,1.6-.4,2.4,5.4,7.7,10.8,15.4,16.1,23.1H175.7c-2.8-4.6-5.7-9.1-8.5-13.6-.3-.5-.6-1.1-1.2-1.3-3.2,5-6,10.2-9.4,15H141.7c5.4-8.3,10.8-16.6,16.3-24.9C153,51.6,147.9,43.7,142.8,35.8Z"/><path class="cls-1" d="M194.6,84.5c-.1-16.3,0-32.5,0-48.8h29V46.3h-15.8v7.5h14.5c.1,3.6,0,7.1,0,10.7-4.9-.1-9.7,0-14.6,0v9.1h15.8V84.5Z"/><path class="cls-1" d="M230.09,35.8h13.3c-.1,12.6.1,25.2-.1,37.8a7.72,7.72,0,0,0,2.6.3h16.3V84.5h-32.1C230.09,68.3,230.19,52,230.09,35.8Z"/><path class="cls-1" d="M24.51,53.4c4.3-.7,8.7,3.5,8.2,7.9s-5.1,7.7-9.3,6.3c-3.9-1-6.4-5.7-4.8-9.4A7.28,7.28,0,0,1,24.51,53.4Z"/></g></svg>