<svg id="art" xmlns="http://www.w3.org/2000/svg" viewBox="0 0 300 120"><defs><style>.cls-1{fill:#fff;}</style></defs><title>pinterest</title><path class="cls-1" d="M118.1,49.7h9.4V79.6h-9.4Z"/><path class="cls-1" d="M129.5,49.7h9.1v4.1h.3c2.3-3.2,5-5,9.1-5s10.3,4.7,10.3,11.1V79.3h-9.4V62.1c0-3.2-1.5-5.3-4.7-5.3s-5.3,2.6-5.3,6.2V79.4h-9.4V49.7Z"/><circle class="cls-1" cx="122.8" cy="41.8" r="5.6"/><path class="cls-1" d="M225.2,49.4h-.9c-3.5,0-6.2,1.5-8.2,5h-.3V49.7h-9.1V79.6h9.4V66.2c0-6.2,3.5-9.1,8.8-8.5Z"/><path class="cls-1" d="M271.5,60.9c-3.8-.6-7-.9-7-3.2s1.8-2.6,4.1-2.6,4.4.9,4.7,3.5h8.8c-.6-5.9-5-9.7-13.5-9.7s-12.9,3.2-12.9,9.7,5.6,8.5,10.6,9.4,7.6.9,7.6,3.5-1.8,2.9-4.7,2.9-4.7-1.2-5.3-3.5h-8.8c.6,6.2,6.2,10,14.4,10s13.5-3.2,13.5-10S276.8,61.8,271.5,60.9Z"/><path class="cls-1" d="M240.4,73.5c-3.8,0-6.2-2.6-6.7-6.5h21.4c0-6.2-1.8-11.1-5.3-14.4s-5.9-3.8-10.3-3.8c-9.1,0-15.3,6.7-15.3,15.8s6.2,15.8,15.8,15.8a16.74,16.74,0,0,0,9.4-2.6,11.81,11.81,0,0,0,5-7H245C244.6,72.6,242.8,73.5,240.4,73.5Zm-.5-17.9c3.2,0,5.3,2.3,5.6,5.9H233.8C234.3,57.9,236,55.6,239.9,55.6Z"/><path class="cls-1" d="M299.7,72.6h-1.5c-2.1,0-3.2-.6-3.2-2.9V55.6h5V49.7h-5V40.3h-9.4v9.4h-2.9v5.9h2.9V71.7c0,6.5,3.8,8.2,9.4,8.2h4.7Z"/><path class="cls-1" d="M175.3,72.6h-1.2c-2.1,0-3.2-.6-3.2-2.9V55.6h4.4V49.7h-4.4V40.3h-9.4v9.4h-2.9v5.9h3.2V71.7c0,6.5,3.8,8.2,9.4,8.2h4.4Z"/><path class="cls-1" d="M175,64.7c0-8.8,6.2-15.8,15.3-15.8a15.68,15.68,0,0,1,10.3,3.8c2.6,2.3,5.3,8.5,5.3,14.4H184.2c.6,4.1,2.9,6.5,6.7,6.5s4.1-1.2,5-2.9h9.4a11.53,11.53,0,0,1-5,7,15.78,15.78,0,0,1-9.4,2.6C180.9,80.5,175,73.5,175,64.7Zm21.1-3.2c-.3-3.5-2.6-5.9-5.6-5.9s-5.6,2.3-6.2,5.9Z"/><path class="cls-1" d="M84.7,38h16.4c5,0,8.8,1.5,11.4,3.8s4.1,6.2,4.1,10.3c0,7.9-5.6,13.5-14.1,13.5H94.3V79.4H84.6V38Zm16.7,19.6c3.8,0,5.9-2.3,5.9-5.6s-2.1-5.3-5.9-5.3h-7V57.6Z"/><path class="cls-1" d="M36,24.2A35.78,35.78,0,0,0,23,93.4a39.43,39.43,0,0,1,0-10.3l4.1-17.9A13.1,13.1,0,0,1,26,60c0-5,2.9-8.8,6.5-8.8s4.4,2.3,4.4,5-2.1,7.6-2.9,12,1.8,6.5,5.3,6.5S50.4,68,50.4,58.3s-6.2-14.7-15-14.7S19.6,51.5,19.6,59.4a14.8,14.8,0,0,0,2.6,8.2,1.4,1.4,0,0,1,.3.9l-.9,4.1c-.3.6-.6.9-1.2.6-4.4-2.1-7.3-8.5-7.3-13.8,0-11.1,8.2-21.7,23.8-21.7s22,8.8,22,20.5S51,80.5,40.4,80.5c-3.5,0-7-1.8-8.2-4.1l-2.3,8.5a40.8,40.8,0,0,1-4.4,9.4A35.82,35.82,0,1,0,45.8,25.6,37.41,37.41,0,0,0,36,24.2Z"/></svg>