<svg id="Camada_1" data-name="Camada 1" xmlns="http://www.w3.org/2000/svg" viewBox="0 0 300 120"><defs><style>.cls-1{fill:#fff;}</style></defs><title>download</title><path class="cls-1" d="M22.65,37.3C33.69,37.05,44.06,46,45.22,57A22.93,22.93,0,0,1,32,80.7c-5.4,2.68-11.51,1.86-17.32,2H9v18.19H0c0-14,0-28.08,0-42.12.3-10.46,8.86-19.83,19.2-21.22a23.05,23.05,0,0,1,3.42-.25Zm0,36.4a13.71,13.71,0,1,0-12-20.26C8.33,57.38,9.15,62,9,66.35V73.7ZM49.56,37.08h8.9v45.4h-8.9ZM85.19,65.63h.32L98.16,82.49h11L92,59.15l15.24-22h-11L85.51,52.67h-.32L74.49,37.1h-11l15.23,22L61.52,82.49h11Z"/><path class="cls-1" d="M129.33,37.08a22.74,22.74,0,0,1,21,14.06C152.05,55,152,59.3,152,63.45v19c-8,0-16.06,0-24.09,0a22.91,22.91,0,0,1-20.31-16,22.58,22.58,0,0,1,5.3-22.33,22.92,22.92,0,0,1,16.46-7ZM143,73.48c0-5,.09-10.1-.06-15.14A13.71,13.71,0,1,0,124,72.42c3.61,1.57,7.59.92,11.4,1.06H143ZM179.07,37.3c10.65-.26,20.61,8.12,22.31,18.61A22.69,22.69,0,0,1,161.51,74.4a23.51,23.51,0,0,1-5.19-16.48V19.11h9V37.3Zm0,36.4a13.72,13.72,0,0,0,2.74-27.14c-3.7-.51-7.46-.16-11.18-.27h-5.31c.05,5.13-.13,10.27.1,15.39a13.68,13.68,0,0,0,13.65,12Zm48.75-36.62a22.74,22.74,0,0,1,21,14.06c1.74,3.87,1.71,8.16,1.66,12.31v19c-8,0-16.06,0-24.09,0a22.9,22.9,0,0,1-20.31-16,22.55,22.55,0,0,1,5.29-22.33,22.88,22.88,0,0,1,16.45-7Zm13.65,36.4c0-5,.08-10.1-.06-15.14a13.71,13.71,0,1,0-18.94,14.08c3.6,1.57,7.59.92,11.39,1.06h7.61ZM300,37.19c0,14,0,28,0,42-.33,11-9.81,20.94-20.86,21.51-2.1.11-4.21,0-6.31,0v-9c3.84,0,7.94.37,11.34-1.8A13.79,13.79,0,0,0,291,77.92c-8,6.44-20.34,6.1-28.1-.53a23.05,23.05,0,0,1-8.3-19.12V37.19h9c0,8-.09,16,.06,24.05a13.7,13.7,0,0,0,27.07,1.35c.5-3.69.16-7.46.26-11.19V37.2h9Z"/></svg>