<?xml version="1.0" encoding="utf-8"?>
<!-- Generator: Adobe Illustrator 23.0.6, SVG Export Plug-In . SVG Version: 6.00 Build 0)  -->
<svg version="1.1" id="Layer_1" xmlns="http://www.w3.org/2000/svg" xmlns:xlink="http://www.w3.org/1999/xlink" x="0px" y="0px"
	 viewBox="0 0 300 120" style="enable-background:new 0 0 300 120;" xml:space="preserve">
<g>
	<g>
		<path d="M87.8,40.6c-5.9,0-11.4,2.7-15.1,7.3v-7.3h-4.5v55.2h4.5V72.3c3.8,4.6,9.3,7.3,15.1,7.3c10.8,0,19.5-8.7,19.5-19.5
			S98.6,40.6,87.8,40.6z M87.8,75.2c-8.2,0-15.1-6.9-15.1-15.1c0-8.4,6.7-15.1,15.1-15.1c8.2,0,14.8,6.8,14.8,15.1
			C102.7,68.3,96.1,75.2,87.8,75.2z"/>
		<path d="M130.3,40.6c-10.8,0-19.5,8.7-19.5,19.5s8.7,19.5,19.5,19.5c10.8,0,19.5-8.7,19.5-19.5S141,40.6,130.3,40.6z M130.3,75.2
			c-8.2,0-15.1-6.9-15.1-15.1c0-8.4,6.7-15.1,15.1-15.1c8.2,0,14.8,6.8,14.8,15.1C145.1,68.3,138.5,75.2,130.3,75.2z"/>
		<path d="M186.3,68.2c-0.7,0-1.2,0.3-1.6,0.8c-2.7,3.9-7.2,6.3-12,6.3c-7.7,0-14.3-6.2-15.1-13.9c0-1.2,0.1-2.9,0.1-2.9l0,0
			c1-7.7,7.4-13.4,15-13.4c5.6,0,8.6,2.6,11.8,5.7c0.6,0.6,1.1,0.7,1.6,0.7c0.8,0,1.6-0.6,2-1.2c0.3-0.6,0.3-1.2,0-1.7
			c-3.5-4.9-9.1-7.7-15.2-7.7c-10.8,0-19.5,8.7-19.5,19.5s8.7,19.5,19.5,19.5c6.5,0,12.2-3,15.9-8.3c0.3-0.4,0.3-1,0.1-1.6
			C188.4,68.8,187.3,68.2,186.3,68.2z"/>
		<polygon points="206.3,58.7 222.6,42.6 219.9,39.8 199,60.5 199,24.2 194.6,24.2 194.6,79.3 198.9,79.3 198.9,66.1 203.5,61.7 
			221.9,80.2 225,77.3 		"/>
		<path d="M243.4,40.6c-10.8,0-19.5,8.7-19.5,19.5s8.7,19.5,19.5,19.5c6.5,0,12.2-3,15.9-8.3c0.3-0.4,0.3-1,0.1-1.6
			c-0.4-0.8-1.5-1.5-2.5-1.5c-0.7,0-1.2,0.3-1.6,0.8c-2.7,3.9-7.2,6.3-12,6.3c-7.5,0-13.9-5.7-15-13.2l32.7,0.1c0.7,0,1.8-0.7,1.8-2
			C262.9,49.3,254.2,40.6,243.4,40.6z M228.5,57.6c1.3-7.3,7.6-12.8,14.9-12.8c7.4,0,13.6,5.4,14.7,12.8H228.5z"/>
		<path d="M289.8,71.8c-0.4-0.7-1.5-1.1-2.4-1c-0.6,0.1-1.1,0.4-1.3,0.9c-0.2,0.3-0.4,0.7-0.7,1.1c-2.5,3.2-4.6,3.7-5.9,3.7
			c-3.6,0-5.8-4.1-5.8-10.8V44.8h10.5v-4.3h-10.5V30.5H269v10.1h-5.9v4.3h6v23c0,9.5,5.2,12.9,10.1,12.9c4,0,6.5-1.7,8.3-3.9
			c0.9-1,1.7-2.2,2.4-3.5C290.1,72.7,290,72.3,289.8,71.8z"/>
	</g>
	<path d="M52.2,43.6c-0.6-1.6-2-2.6-3.6-2.6l0,0h-3.7H13.8c-1.6,0-3,1-3.6,2.5c-0.1,0.4-0.2,0.9-0.2,1.3v12.9l0.1,2.6
		c0.6,5.8,3.6,10.9,8.3,14.3c0.1,0.1,0.2,0.1,0.2,0.2l0,0c2.5,1.8,5.3,3,8.3,3.7c1.3,0.3,2.8,0.4,4.3,0.4c1.3,0,2.6-0.1,3.9-0.3
		c0.1,0,0.3-0.1,0.4-0.1h0.1c2.9-0.7,5.6-1.8,8-3.6l0,0c0.1-0.1,0.2-0.1,0.2-0.2c4.6-3.5,7.6-8.6,8.3-14.3l0.1-2.6V44.9
		C52.4,44.5,52.3,44,52.2,43.6z M43.3,56.9l-10,9.5c-0.6,0.6-1.3,0.8-2,0.8c-0.7,0-1.5-0.2-2-0.8l-10-9.5c-1.1-1.1-1.2-2.9-0.1-4.1
		c1.1-1.1,2.9-1.2,4.1-0.1l8,7.6l8-7.6c1.1-1.1,3-1.1,4.1,0.1C44.4,53.9,44.4,55.8,43.3,56.9z"/>
</g>
</svg>
