<svg xmlns="http://www.w3.org/2000/svg" viewBox="0 0 300 120"><defs><style>.a{fill:#fff;}</style></defs><title>poly</title><path class="a" d="M69.78,87.14H60V10.55H86.37a24.77,24.77,0,0,1,17.07,6.34,21.13,21.13,0,0,1,7.32,16.59,21.83,21.83,0,0,1-7.32,16.58A24,24,0,0,1,86.37,56.4H69.78Zm0-40.49H86.37a13.65,13.65,0,0,0,9.75-3.9c2.44-2.93,3.91-5.86,3.91-9.27s-1.47-6.34-3.91-9.27-5.85-3.9-9.75-3.9H69.78Z"/><path class="a" d="M116.61,40.79c4.88-5.36,11.71-7.8,19.51-7.8a28.15,28.15,0,0,1,19.52,7.8,29.35,29.35,0,0,1,7.8,20c0,7.81-2.44,14.64-7.8,20-4.88,5.37-11.71,7.81-19.52,7.81a28.11,28.11,0,0,1-19.51-7.81,29.27,29.27,0,0,1-7.8-20C108.81,53,111.25,46.16,116.61,40.79Zm7.32,33.66a16.6,16.6,0,0,0,12.19,5.37,15,15,0,0,0,12.2-5.37c3.41-3.41,4.88-7.8,4.88-13.66s-1.47-10.24-4.88-13.65a16.62,16.62,0,0,0-12.2-5.37,15,15,0,0,0-12.19,5.37c-3.42,3.41-4.88,7.8-4.88,13.65C118.56,66.65,120.51,71.53,123.93,74.45Z"/><path class="a" d="M180,87.14h-9.76V10.55H180Z"/><path class="a" d="M205.39,110.55H195.15l12.19-26.34-22-49.27h10.73L211.73,72.5h.49l15.12-37.56h10.73Z"/></svg>