<?xml version="1.0" encoding="utf-8"?>
<!-- Generator: Adobe Illustrator 23.0.6, SVG Export Plug-In . SVG Version: 6.00 Build 0)  -->
<svg version="1.1" id="Layer_1" xmlns="http://www.w3.org/2000/svg" xmlns:xlink="http://www.w3.org/1999/xlink" x="0px" y="0px"
	 viewBox="0 0 300 120" style="enable-background:new 0 0 300 120;" xml:space="preserve">
<title>product-hunt</title>
<path d="M39.8,49.5h-9.9V60h9.9c2.9,0.1,5.4-2.1,5.5-5s-2.1-5.4-5-5.5C40.1,49.5,40,49.5,39.8,49.5z"/>
<path d="M35.1,24.9C15.7,24.9,0,40.6,0,60s15.7,35.1,35.1,35.1c19.4,0,35.1-15.7,35.1-35.1c0,0,0,0,0,0
	C70.2,40.6,54.5,24.9,35.1,24.9z M39.8,67h-9.9v10.6h-7V42.4h17c6.8-0.3,12.5,5,12.8,11.8c0.3,6.8-5,12.5-11.8,12.8
	C40.5,67,40.1,67,39.8,67z"/>
<path d="M93.6,71.7V48.3h10.8c5,0,7.7,3.4,7.7,7.4s-2.8,7.4-7.7,7.4h-5.9v8.6H93.6z M107.1,55.7c0-1.7-1.4-3.1-3.1-3.1
	c-0.1,0-0.2,0-0.3,0h-5.2v6.2h5.2c1.7,0.2,3.2-1.1,3.4-2.8C107.1,55.9,107.1,55.8,107.1,55.7z"/>
<path d="M115.1,71.7V54.6h4.4v2.2c1.3-1.6,3.2-2.6,5.3-2.7v4.3c-2-0.4-4,0.3-5.3,1.8v11.4H115.1z"/>
<path d="M126.4,63c0-4.9,3.9-8.8,8.8-8.9c4.9,0,8.8,3.9,8.9,8.8s-3.9,8.8-8.8,8.9c0,0,0,0-0.1,0c-4.7,0.2-8.6-3.4-8.8-8.1
	C126.4,63.5,126.4,63.2,126.4,63z M139.5,63c0-2.6-1.5-4.8-4.3-4.8S131,60.4,131,63s1.5,4.9,4.2,4.9S139.5,65.6,139.5,63L139.5,63z"
	/>
<path d="M158.8,71.7v-2.6c-1.2,1.6-3.1,2.6-5.1,2.6c-4.2,0-7.4-3.2-7.4-8.8c0-5.4,3.1-8.7,7.4-8.7c2,0,3.9,0.9,5.1,2.5v-8.5h4.4
	v23.4H158.8z M158.8,65.9V60c-0.9-1.2-2.3-1.9-3.8-1.9c-2.5,0-4.2,2-4.2,4.8s1.7,4.9,4.2,4.9C156.5,67.8,157.9,67.1,158.8,65.9z"/>
<path d="M178.8,71.7v-2.5c-1.5,1.6-3.6,2.5-5.8,2.5c-3.7,0-5.4-2-5.4-5.3V54.6h4.4v10.1c0,2.3,1.2,3.1,3.1,3.1
	c1.5,0,2.9-0.7,3.8-1.9V54.6h4.4v17.1H178.8z"/>
<path d="M186.5,63c-0.1-4.7,3.5-8.6,8.2-8.7c0.2,0,0.4,0,0.6,0c2.6-0.1,5,1,6.6,3l-2.9,2.6c-0.8-1.2-2.1-1.9-3.5-1.8
	c-2.7,0-4.5,1.9-4.5,4.8c0,2.9,1.9,4.9,4.5,4.9c1.4,0,2.7-0.7,3.5-1.8l2.9,2.7c-1.6,2-4,3.1-6.6,3c-4.7,0.2-8.6-3.5-8.8-8.1
	C186.5,63.4,186.5,63.2,186.5,63z"/>
<path d="M205.6,67.1v-8.7h-2.8v-3.8h2.8v-4.5h4.4v4.5h3.4v3.8H210V66c0,1.1,0.6,1.9,1.5,1.9c0.6,0,1.1-0.2,1.5-0.5l0.9,3.3
	c-1,0.8-2.3,1.2-3.6,1.1C207.3,71.7,205.6,70.1,205.6,67.1z"/>
<path d="M241.5,71.7V61.6h-10.9v10.1h-4.9V48.3h4.9v9h10.9v-9h4.9v23.4H241.5z"/>
<path d="M262,71.7v-2.5c-1.5,1.6-3.6,2.5-5.9,2.5c-3.6,0-5.4-2-5.4-5.3V54.6h4.4v10.1c0,2.3,1.2,3.1,3.1,3.1c1.5,0,2.9-0.7,3.8-1.9
	V54.6h4.4v17.1H262z"/>
<path d="M282,71.7V61.2c0-2.3-1.2-3.1-3.1-3.1c-1.5,0-2.9,0.7-3.8,1.9v11.7h-4.4V54.6h4.4v2.1c1.5-1.7,3.6-2.6,5.9-2.5
	c3.7,0,5.5,2.1,5.5,5.3v12.2H282z"/>
<path d="M291.7,67.1v-8.7h-2.8v-3.8h2.8v-4.5h4.3v4.5h3.4v3.8H296V66c0,1.1,0.5,1.9,1.5,1.9c0.6,0,1.1-0.2,1.5-0.5l0.9,3.3
	c-1.1,0.8-2.4,1.2-3.7,1.1C293.3,71.7,291.7,70.1,291.7,67.1z"/>
</svg>
