<svg id="Layer_1" data-name="Layer 1" xmlns="http://www.w3.org/2000/svg" viewBox="0 0 300 120"><defs><style>.cls-1{fill:#fff;}</style></defs><title>product-hunt</title><path class="cls-1" d="M39.8,49.47H29.85V60H39.8a5.27,5.27,0,1,0,0-10.53Z"/><path class="cls-1" d="M35.12,24.88A35.12,35.12,0,1,0,70.23,60,35.12,35.12,0,0,0,35.12,24.88ZM39.8,67H29.85V77.56h-7V42.44h17A12.29,12.29,0,1,1,39.8,67Z"/><path class="cls-1" d="M93.64,71.71V48.29H104.4c5,0,7.72,3.38,7.72,7.42s-2.76,7.38-7.72,7.38H98.54v8.62Zm13.48-16a3.11,3.11,0,0,0-3.41-3.11H98.54v6.18h5.17A3.11,3.11,0,0,0,107.12,55.71Z"/><path class="cls-1" d="M115.1,71.71V54.64h4.38v2.24a7.28,7.28,0,0,1,5.31-2.65V58.5a5.69,5.69,0,0,0-5.31,1.79V71.71Z"/><path class="cls-1" d="M126.45,63a8.81,8.81,0,1,1,8.79,8.76A8.43,8.43,0,0,1,126.45,63Zm13.07,0c0-2.59-1.52-4.83-4.28-4.83S131,60.36,131,63s1.51,4.86,4.24,4.86S139.52,65.57,139.52,63Z"/><path class="cls-1" d="M158.8,71.71V69.15a6.41,6.41,0,0,1-5.14,2.56c-4.17,0-7.38-3.18-7.38-8.76,0-5.41,3.14-8.72,7.38-8.72a6.3,6.3,0,0,1,5.14,2.55V48.29h4.41V71.71Zm0-5.8V60a4.74,4.74,0,0,0-3.76-1.9c-2.52,0-4.24,2-4.24,4.83s1.72,4.86,4.24,4.86A4.74,4.74,0,0,0,158.8,65.91Z"/><path class="cls-1" d="M178.81,71.71V69.19A7.93,7.93,0,0,1,173,71.71c-3.66,0-5.38-2-5.38-5.25V54.64H172v10.1c0,2.31,1.2,3.07,3.06,3.07a4.91,4.91,0,0,0,3.8-1.9V54.64h4.38V71.71Z"/><path class="cls-1" d="M186.47,63a8.47,8.47,0,0,1,8.83-8.72,7.79,7.79,0,0,1,6.59,3L199,59.91a4,4,0,0,0-3.51-1.79c-2.66,0-4.52,1.93-4.52,4.83s1.86,4.86,4.52,4.86A4.14,4.14,0,0,0,199,66l2.87,2.69a7.78,7.78,0,0,1-6.59,3A8.48,8.48,0,0,1,186.47,63Z"/><path class="cls-1" d="M205.65,67.12V58.47h-2.76V54.64h2.76V50.09H210v4.55h3.38v3.83H210V66c0,1.07.55,1.86,1.52,1.86a2.17,2.17,0,0,0,1.51-.52l.93,3.35a5.41,5.41,0,0,1-3.65,1.07C207.27,71.71,205.65,70.12,205.65,67.12Z"/><path class="cls-1" d="M241.46,71.71V61.6H230.59V71.71H225.7V48.29h4.89v9h10.87v-9h4.92V71.71Z"/><path class="cls-1" d="M262.05,71.71V69.19a7.9,7.9,0,0,1-5.86,2.52c-3.65,0-5.38-2-5.38-5.25V54.64h4.38v10.1c0,2.31,1.21,3.07,3.07,3.07a4.89,4.89,0,0,0,3.79-1.9V54.64h4.38V71.71Z"/><path class="cls-1" d="M282,71.71V61.22c0-2.31-1.2-3.1-3.06-3.1a4.89,4.89,0,0,0-3.8,1.93V71.71h-4.37V54.64h4.37v2.14A7.77,7.77,0,0,1,281,54.23c3.69,0,5.45,2.06,5.45,5.3V71.71Z"/><path class="cls-1" d="M291.66,67.12V58.47H288.9V54.64h2.76V50.09H296v4.55h3.37v3.83H296V66c0,1.07.55,1.86,1.51,1.86a2.18,2.18,0,0,0,1.52-.52l.93,3.35a5.44,5.44,0,0,1-3.66,1.07C293.28,71.71,291.66,70.12,291.66,67.12Z"/></svg>