<?xml version="1.0" encoding="utf-8"?>
<!-- Generator: Adobe Illustrator 24.3.0, SVG Export Plug-In . SVG Version: 6.00 Build 0)  -->
<svg version="1.1" id="Camada_1" xmlns="http://www.w3.org/2000/svg" xmlns:xlink="http://www.w3.org/1999/xlink" x="0px" y="0px"
	 viewBox="0 0 300 120" style="enable-background:new 0 0 300 120;" xml:space="preserve">
<style type="text/css">
	.st0{fill:none;stroke:#CCCCCC;stroke-width:0.3787;stroke-linejoin:bevel;stroke-miterlimit:4.2667;}
	.st1{opacity:0.5;stroke:#CCCCCC;stroke-width:0.3787;stroke-linejoin:bevel;stroke-miterlimit:4.2667;}
	.st2{stroke:#CCCCCC;stroke-width:0.3787;stroke-linejoin:bevel;stroke-miterlimit:4.2667;}
</style>
<g>
	<path class="st0" d="M89.1,78.8l10.6,3.8l10.8-3.9l-10.6-3.8L89.1,78.8z M99.8,70l10.6,3.8l10.8-3.9l-10.6-3.8L99.8,70z"/>
	<path class="st0" d="M99.8,70l10.6,3.8v12.5l-10.6-3.8C99.8,82.5,99.8,70,99.8,70z"/>
	<path class="st0" d="M78.4,95.3l10.6,3.8l10.8-3.9l-10.6-3.8L78.4,95.3z"/>
	<path class="st0" d="M78.4,95.3l10.6,3.8v12.5l-10.6-3.8C78.4,107.7,78.4,95.3,78.4,95.3z"/>
	<path class="st0" d="M78.4,77.5l10.6,3.8l10.8-3.9l-10.6-3.8L78.4,77.5z"/>
	<path class="st0" d="M89.1,81.3v12.5l10.8-3.9V77.4L89.1,81.3z"/>
	<path class="st0" d="M78.4,77.5l10.6,3.8v12.5L78.4,90C78.4,90,78.4,77.5,78.4,77.5z"/>
	<path d="M89.2,66.9L89.2,66.9c-1.1,0-1.9,0.9-1.9,1.9c0,0.1,0,0.3,0.1,0.4L79.3,79l5.3,6.4L81.9,79l6.9-8.3
		c0.1,0.1,0.3,0.1,0.5,0.1s0.3,0,0.5-0.1l3.7,4.4l3.7,1.3l-6-7.2c0-0.1,0.1-0.3,0.1-0.4C91.1,67.8,90.3,66.9,89.2,66.9L89.2,66.9
		L89.2,66.9z M90.7,61.9c0-0.8-0.6-1.5-1.4-1.5c-0.8,0-1.5,0.6-1.5,1.4v0.1v2.2c0,0.8,0.7,1.4,1.5,1.4c0.8,0,1.4-0.6,1.4-1.4V61.9z
		 M90,61.9v2.2c0,0.4-0.4,0.8-0.8,0.8c-0.4,0-0.8-0.4-0.8-0.8v-2.2c0-0.4,0.4-0.8,0.8-0.8S90,61.4,90,61.9z M90.7,54.2
		c0-0.8-0.6-1.5-1.4-1.5c-0.8,0-1.5,0.6-1.5,1.4v0.1v2.2c0,0.8,0.7,1.4,1.5,1.4c0.8,0,1.4-0.6,1.4-1.4V54.2z M90,54.2v2.2
		c0,0.4-0.4,0.8-0.8,0.8c-0.4,0-0.8-0.4-0.8-0.8v-2.2c0-0.4,0.4-0.8,0.8-0.8S90,53.8,90,54.2z"/>
	<path d="M89.6,56.9v4.4c0,0.2-0.1,0.4-0.4,0.4s-0.4-0.1-0.4-0.4v-4.4c0-0.2,0.1-0.4,0.4-0.4S89.6,56.7,89.6,56.9z M89.6,64.6V69
		c0,0.2-0.1,0.4-0.4,0.4s-0.4-0.1-0.4-0.4v-4.4c0-0.2,0.1-0.4,0.4-0.4S89.6,64.4,89.6,64.6z M89.6,49.2v4.4c0,0.2-0.1,0.4-0.4,0.4
		s-0.4-0.1-0.4-0.4v-4.4c0-0.2,0.1-0.4,0.4-0.4S89.6,49,89.6,49.2L89.6,49.2z"/>
	<path class="st0" d="M89.1,99.2l10.6,3.8v12.5l-10.6-3.8V99.2z"/>
	<path class="st0" d="M89.1,86.5l10.6,3.8l10.8-3.9l-10.6-3.8L89.1,86.5z"/>
	<path class="st0" d="M89.1,86.5l10.6,3.8v12.5L89.1,99V86.5z"/>
	<path class="st0" d="M142.4,95.3v12.5l10.8-3.9V91.3L142.4,95.3z"/>
	<path class="st1" d="M131.7,99.2v12.5l10.8-3.9V95.3L131.7,99.2z M138.5,105.1c-1.2,0.4-2.1-0.3-2.1-1.5c0-1.2,0.9-2.6,2.1-2.9
		c1.2-0.4,2.1,0.3,2.1,1.5C140.6,103.4,139.7,104.7,138.5,105.1z"/>
	<path class="st1" d="M121.1,103v12.5l10.8-3.9V99.1L121.1,103z"/>
	<path class="st0" d="M110.4,106.9v12.5l10.8-3.9v-12.6L110.4,106.9z"/>
	<path class="st0" d="M99.8,103l10.6,3.8v12.5l-10.6-3.8C99.8,115.5,99.8,103,99.8,103z"/>
	<path class="st1" d="M142.4,82.6v12.5l10.8-3.9V78.7L142.4,82.6z"/>
	<path class="st1" d="M131.8,66.2l10.6,3.8l10.8-3.9l-10.6-3.8L131.8,66.2z"/>
	<path class="st1" d="M142.4,70v12.5l10.8-3.9V66.1L142.4,70z M131.7,86.5V99l10.8-3.9V82.6L131.7,86.5z"/>
	<path class="st2" d="M131.7,73.9v12.5l10.8-3.9V70L131.7,73.9z"/>
	<path class="st2" d="M121.1,57.4l10.6,3.8l10.8-3.9l-10.6-3.8L121.1,57.4z"/>
	<path class="st2" d="M131.7,61.3v12.5l10.8-3.9V57.3L131.7,61.3z"/>
	<path class="st2" d="M121.1,90.4v12.5l10.8-3.9V86.5L121.1,90.4z"/>
	<path class="st2" d="M121.1,77.8v12.5l10.8-3.9V73.8L121.1,77.8z M110.4,94.3v12.5l10.8-3.9V90.4L110.4,94.3z"/>
	<path class="st2" d="M99.8,90.4l10.6,3.8v12.6l-10.6-3.8C99.8,102.9,99.8,90.4,99.8,90.4z M99.8,77.8l10.6,3.8l10.8-3.9l-10.6-3.8
		L99.8,77.8z"/>
	<path class="st2" d="M110.4,81.7v12.5l10.8-3.9V77.8L110.4,81.7z"/>
	<path class="st2" d="M99.8,77.8l10.6,3.8v12.5l-10.6-3.8C99.8,90.3,99.8,77.8,99.8,77.8z M110.5,61.3l10.6,3.8l10.8-3.9l-10.6-3.8
		L110.5,61.3z"/>
	<path class="st2" d="M110.5,61.3l10.6,3.8v12.5l-10.6-3.8V61.3z"/>
	<path class="st2" d="M121.1,65.1v12.5l10.8-3.9V61.2L121.1,65.1z M125.1,72.1c-1.2,0.4-2.1-0.3-2.1-1.5c0-1.2,0.9-2.6,2.1-2.9
		c1.1-0.4,2.1,0.3,2.1,1.5C127.2,70.4,126.3,71.7,125.1,72.1z"/>
	<path d="M103.3,26.9c0-6.6-1.9-10-5.6-10.2c-1.5-0.1-3,0.2-4.4,0.7c-1.2,0.4-1.9,0.8-2.3,1.2v15.8c2.4,1.5,4.5,2.2,6.4,2.1
		C101.4,36.3,103.3,33.1,103.3,26.9z M108,27.3c0,3.3-0.8,6.2-2.4,8.3c-1.7,2.5-4.2,3.8-7.3,3.8c-2.4,0.1-4.8-0.6-7.2-2.2v14.3
		l-4-1.4V18.4c0.6-0.8,1.5-1.5,2.6-2.1c2.4-1.4,5.3-2.1,8.8-2.2l0.1,0.1c3.1-0.1,5.6,1.2,7.2,3.8C107.2,20.4,108,23.5,108,27.3z
		 M132.6,36.6c0,4.5-0.4,7.6-1.3,9.4c-0.9,1.7-2.6,3.1-5.2,4.2c-2.1,0.8-4.3,1.3-6.7,1.3l-0.6-2.6c2.4-0.3,4.2-0.6,5.1-1
		c2-0.6,3.3-1.7,4-3c0.6-1.1,0.9-3.2,0.9-6.3v-1c-2.7,1.2-5.7,1.9-8.7,1.9c-2,0-3.7-0.6-5.3-1.9c-1.7-1.3-2.6-3.1-2.6-5.2V15.5
		l4-1.4V31c0,1.8,0.6,3.2,1.7,4.2s2.7,1.5,4.5,1.4c1.9-0.1,3.8-0.8,6-2.2V14.7h4L132.6,36.6L132.6,36.6z M148.4,39.2
		c-0.5,0.1-0.9,0.1-1.3,0.1c-2.3,0-4-0.5-5.3-1.6c-1.3-1.1-1.9-2.6-1.9-4.5v-16h-2.8v-2.6h2.8V8l4-1.4v8.2h4.5v2.6h-4.5v15.8
		c0,1.5,0.4,2.6,1.2,3.2c0.7,0.5,1.8,0.8,3.3,0.9V39.2L148.4,39.2z M172.8,38.9h-4V23.4c0-1.6-0.4-2.9-1.1-4.1
		c-0.8-1.3-2.1-1.9-3.5-1.9c-1.9,0-4.2,1-6.9,2.9v18.6h-4V1.7l4-1.3v17c2.6-1.9,5.4-2.8,8.5-2.8c2.1,0,3.8,0.7,5.2,2.2
		c1.3,1.4,2,3.2,2,5.4L172.8,38.9L172.8,38.9z M194.2,26.4c0-2.6-0.5-4.6-1.4-6.3c-1.2-2-2.9-3.1-5.3-3.2c-4.4,0.3-6.6,3.4-6.6,9.5
		c0,2.8,0.4,5.1,1.4,7c1.2,2.4,2.9,3.5,5.3,3.5C192,36.8,194.2,33.3,194.2,26.4L194.2,26.4z M198.6,26.4c0,3.6-0.9,6.6-2.8,9
		c-2.1,2.7-4.8,4-8.4,4c-3.5,0-6.3-1.3-8.3-4c-1.8-2.4-2.7-5.4-2.7-9c0-3.4,1-6.2,2.9-8.6c2.1-2.4,4.7-3.7,8.1-3.7
		c3.3,0,6.1,1.2,8.2,3.7C197.7,20.1,198.6,23,198.6,26.4L198.6,26.4z M221.8,38.9h-4V22.5c0-1.8-0.5-3.2-1.6-4.2s-2.6-1.5-4.4-1.5
		c-1.9,0.1-3.7,0.6-5.4,1.9v20.2h-4V18.2c2.3-1.7,4.5-2.8,6.4-3.3c1.9-0.5,3.5-0.7,4.9-0.7c1,0,1.9,0.1,2.7,0.3
		c1.6,0.4,2.9,1,3.8,2.1c1.1,1.1,1.7,2.4,1.7,4V38.9L221.8,38.9z"/>
	<path d="M160.7,56.9h2.1v-4.2h1.9c2.5,0,4.4-1.2,4.4-3.7c0-2.7-1.9-3.6-4.4-3.6h-3.8C160.7,45.5,160.7,56.9,160.7,56.9z
		 M162.8,51.1v-4h1.7c1.7,0,2.6,0.4,2.6,1.9c0,1.4-0.8,2.1-2.6,2.1H162.8z M169.9,54.6c0,1.5,1,2.6,2.6,2.6c1,0,1.9-0.5,2.7-1.2h0.1
		l0.1,1h1.7v-5.1c0-2.4-1-3.7-3.2-3.7c-1.3,0-2.6,0.5-3.5,1.2l0.8,1.3c0.8-0.4,1.5-0.8,2.4-0.8c1.2,0,1.5,0.8,1.5,1.7
		C171.5,51.8,169.9,52.8,169.9,54.6L169.9,54.6z M171.9,54.5c0-0.8,0.8-1.5,3.1-1.8v1.9c-0.6,0.6-1.2,1-1.9,1
		C172.4,55.6,171.9,55.3,171.9,54.5z M179,52.6c0,2.9,1.8,4.5,4.2,4.5c1,0,2.1-0.4,2.8-1.1l-0.8-1.3c-0.4,0.4-1.1,0.8-1.8,0.8
		c-1.3,0-2.3-1.2-2.3-2.9c0-1.7,1-2.9,2.4-2.9c0.6,0,1,0.3,1.5,0.6l1-1.3c-0.6-0.6-1.4-1-2.6-1C181,48.1,179,49.8,179,52.6L179,52.6
		z M187.7,56.9h2v-2.2l1.3-1.5l2.2,3.8h2.2l-3.3-5.1l2.9-3.5h-2.2l-3.2,4h-0.1v-7.8h-2L187.7,56.9L187.7,56.9z M196.3,54.6
		c0,1.5,1,2.6,2.6,2.6c1,0,1.9-0.5,2.7-1.2h0.1l0.1,1h1.7v-5.1c0-2.4-1-3.7-3.2-3.7c-1.3,0-2.6,0.5-3.5,1.2l0.8,1.3
		c0.8-0.4,1.5-0.8,2.4-0.8c1.2,0,1.5,0.8,1.5,1.7C197.9,51.8,196.3,52.8,196.3,54.6L196.3,54.6z M198.3,54.5c0-0.8,0.8-1.5,3.1-1.8
		v1.9c-0.6,0.6-1.2,1-1.9,1C198.8,55.6,198.3,55.3,198.3,54.5z M207,58.2c0-0.4,0.2-0.8,0.6-1.2c0.3,0.1,0.7,0.1,1.2,0.1h1.2
		c1,0,1.5,0.2,1.5,0.8c0,0.8-1,1.4-2.4,1.4C207.9,59.4,207,59,207,58.2z M205.4,58.5c0,1.5,1.5,2.2,3.6,2.2c2.8,0,4.6-1.3,4.6-3.1
		c0-1.5-1.1-2.1-3.1-2.1h-1.5c-1,0-1.4-0.3-1.4-0.8c0-0.4,0.1-0.6,0.4-0.8c0.4,0.1,0.8,0.3,1.2,0.3c1.9,0,3.3-1,3.3-2.9
		c0-0.6-0.2-1.2-0.5-1.5h1.6v-1.5h-3.1c-0.4-0.1-0.8-0.2-1.3-0.2c-1.8,0-3.4,1.1-3.4,3.1c0,1,0.6,1.9,1.2,2.3v0.1
		c-0.5,0.3-1,1-1,1.6c0,0.7,0.3,1.2,0.8,1.5v0.1C205.7,57.2,205.4,57.8,205.4,58.5z M209,53c-0.8,0-1.5-0.6-1.5-1.7s0.6-1.7,1.5-1.7
		c0.8,0,1.5,0.6,1.5,1.7C210.6,52.3,209.9,53,209,53L209,53z M214.2,52.6c0,2.9,1.9,4.5,4.2,4.5c1.1,0,2.1-0.4,2.9-1l-0.7-1.3
		c-0.6,0.4-1.3,0.6-2,0.6c-1.4,0-2.4-0.9-2.6-2.4h5.5c0.1-0.2,0.1-0.6,0.1-1c0-2.4-1.2-4.1-3.6-4.1
		C216.2,48.1,214.2,49.8,214.2,52.6L214.2,52.6z M216.2,51.9c0.2-1.5,1-2.2,2.1-2.2c1.2,0,1.7,0.8,1.7,2.2
		C220,51.9,216.2,51.9,216.2,51.9z M160.7,74.9h2.1V63.4h-2.1V74.9L160.7,74.9z M165.5,74.9h2.1v-6c0.7-0.7,1.2-1.1,2-1.1
		c1,0,1.3,0.5,1.3,2V75h2.1v-5.4c0-2.2-0.8-3.5-2.6-3.5c-1.2,0-2.1,0.6-2.8,1.3h-0.1l-0.1-1.2h-1.7
		C165.5,66.3,165.5,74.9,165.5,74.9z M174.9,70.6c0,2.9,1.4,4.5,3.6,4.5c1,0,1.8-0.5,2.4-1.2h0.1l0.1,1h1.7V62.5h-2.1v3.1l0.1,1.4
		c-0.6-0.6-1.3-1-2.2-1C176.7,66.1,174.9,67.8,174.9,70.6z M176.9,70.6c0-1.8,0.9-2.9,2-2.9c0.6,0,1.2,0.2,1.7,0.7v4
		c-0.6,0.6-1.2,1-1.8,1C177.6,73.5,176.9,72.4,176.9,70.6L176.9,70.6z M184.7,70.6c0,2.9,1.9,4.5,4.2,4.5c1.1,0,2.1-0.4,2.9-1
		l-0.7-1.3c-0.6,0.4-1.3,0.6-2,0.6c-1.4,0-2.4-0.9-2.6-2.4h5.5c0.1-0.2,0.1-0.6,0.1-1c0-2.4-1.2-4.1-3.6-4.1
		C186.7,66.1,184.7,67.8,184.7,70.6z M186.7,69.8c0.2-1.5,1-2.2,2.1-2.2c1.2,0,1.7,0.8,1.7,2.2H186.7z M193,74.9h2.1l0.9-1.7
		c0.3-0.5,0.5-1,0.8-1.5h0.1c0.3,0.5,0.6,1,0.9,1.5l1,1.7h2.2l-2.8-4.3l2.6-4.4h-2.1l-0.8,1.7c-0.2,0.4-0.4,1-0.6,1.5h-0.1
		c-0.3-0.5-0.5-1-0.8-1.5l-1-1.7h-2.2l2.6,4.2L193,74.9L193,74.9z"/>
</g>
</svg>
