<svg id="Camada_1" data-name="Camada 1" xmlns="http://www.w3.org/2000/svg" viewBox="0 0 300 120"><defs><style>.cls-1{fill:#fff;}</style></defs><title>quora</title><g id="Page-1"><g id="Imported-Layers"><path id="Fill-1" class="cls-1" d="M42.71,83.23c-2.88-5.66-6.25-11.38-12.84-11.38a8.79,8.79,0,0,0-3.67.74L24,68.11c2.73-2.34,7.13-4.19,12.79-4.19,8.81,0,13.33,4.24,16.91,9.66,2.13-4.62,3.14-10.87,3.14-18.6,0-19.32-6-29.25-20.16-29.25-13.91,0-19.92,9.92-19.92,29.25s6,29,19.92,29a21.5,21.5,0,0,0,6.05-.78ZM46.16,90a37,37,0,0,1-9.5,1.27C18.14,91.24,0,76.46,0,55c0-21.7,18.14-36.48,36.66-36.48,18.83,0,36.8,14.68,36.8,36.48A35.32,35.32,0,0,1,59.57,83.32c2.66,4,5.39,6.63,9.2,6.63,4.16,0,5.83-3.21,6.12-5.73h5.42c.32,3.36-1.36,17.3-16.5,17.3-9.17,0-14-5.31-17.65-11.54Z"/><path id="Fill-2" class="cls-1" d="M85.36,71.53V46.68c0-2.83-1-4.09-4.3-4.09H77.61V36h22.61V71.22c0,5.94,3.21,8.56,8.11,8.56a11.2,11.2,0,0,0,10.2-5.83V46.68c0-2.83-1-4.09-4.3-4.09h-3.67V36h22.82v36.9c0,3.68,1.36,5.35,5.55,5.35h.73v6.81l-20.41,3.25v-7h-.42a21.41,21.41,0,0,1-17.44,8.07c-8.91,0-16-4.51-16-17.82"/><path id="Fill-3" class="cls-1" d="M169.36,82.75c8,0,11.09-7,11.25-21.07.16-13.77-3.21-20.44-11.25-20.44-7,0-11.43,6.67-11.43,20.44,0,14.08,4.33,21.07,11.43,21.07Zm0,6.6c-14.54,0-27.65-11.12-27.65-27.68,0-16.25,12.79-27,27.65-27,15.48,0,27.89,11,27.89,27,0,16.56-12.41,27.68-27.89,27.68Z"/><path id="Fill-4" class="cls-1" d="M197.71,88.31V81.7h2.2c5.45,0,6-1.57,6-6.29V46.68c0-2.83-1.47-4.09-4.82-4.09h-2.94V36h20.72l1,10.8h.42c2.31-7.76,8.49-11.85,14.29-11.85,4.79,0,8.53,2.73,8.53,8.25,0,3.84-1.85,7.93-7,7.93-4.65,0-5.56-3.15-9.4-3.15-3.42,0-6.08,3.25-6.08,8v19.4c0,4.72,1.15,6.29,6.5,6.29h3v6.6H197.71"/><path id="Fill-5" class="cls-1" d="M266.7,80.62c6.61,0,9.33-6.25,9.33-12.54V59.69c-4.82,5-16,5.17-16,14.08,0,4.37,2.59,6.85,6.71,6.85Zm9.65,0c-2.73,5.24-8.32,8.77-16.15,8.77-9.09,0-15-4.83-15-13.32C245.24,59,269,63.49,276,52.17V50.95c0-8.7-3.42-10.06-7.2-10.06-10.59,0-5.77,11.39-15.52,11.39-4.68,0-6.5-2.83-6.5-6,0-6.43,7.69-11.64,22.12-11.64,13.66,0,22,3.78,22,17.37V73.7c0,3.35,1.22,5.17,4.16,5.17a5.36,5.36,0,0,0,3.11-.91L300,82.22c-1.43,2.2-5.24,6.08-12.48,6.08-6.29,0-10.24-2.94-10.76-7.72Z"/></g></g></svg>