<svg xmlns="http://www.w3.org/2000/svg" viewBox="0 0 300 120"><defs><style>.a{fill:#fff;}</style></defs><title>logo-home</title><path class="a" d="M289.83,91.45v-.12l-.94-7.4h0a1.35,1.35,0,0,0-1.32-1.16.72.72,0,0,0-.33,0,.8.8,0,0,1-.34.11A17,17,0,0,1,280.82,84a6.54,6.54,0,0,1-5.36-2,10.9,10.9,0,0,1-1.55-6.64V58.94h12.72a1.31,1.31,0,0,0,1.21-1.27V50.21a1.32,1.32,0,0,0-1.32-1.27H274V38.32h0v-.27a1.38,1.38,0,0,0-1.33-1.22h-9.45a1.3,1.3,0,0,0-1.33,1.27h0V48.88h-7.29a1.31,1.31,0,0,0-1.33,1.29v7.39a1.32,1.32,0,0,0,1,1.33h7.57V77.52c0,5.85,1.33,10.17,4,13s6.8,4.25,12.33,4.25a28.84,28.84,0,0,0,6.68-.72,21.2,21.2,0,0,0,4.26-1.38A1.26,1.26,0,0,0,290,91.5v0C289.83,91.5,289.83,91.5,289.83,91.45Z"/><path class="a" d="M74.86,81.27a3.63,3.63,0,0,1-.5-1c-.16-.88.61-1.65,1-2.37a20.57,20.57,0,0,0,1.33-2.44,33.9,33.9,0,0,0,3.65-16.58A35.39,35.39,0,0,0,78,46.67a34.14,34.14,0,0,0-5.91-9.73,31.46,31.46,0,0,0-8-6.69,33.51,33.51,0,0,0-10.34-4.09A38.47,38.47,0,0,0,42,25.39,34.59,34.59,0,0,0,20.41,35,34,34,0,0,0,10.19,56.34a38.41,38.41,0,0,0,.71,12,35.58,35.58,0,0,0,4.54,10.89,32.37,32.37,0,0,0,7.79,8.46,34.13,34.13,0,0,0,10.06,5.2,33.44,33.44,0,0,0,6.08,1.38,35.55,35.55,0,0,0,5.92.39,50.52,50.52,0,0,0,5.63-.5A29.28,29.28,0,0,0,54,93.6c.83-.22,1.77-.39,2.1-1.27a2.51,2.51,0,0,0-.44-2c-.39-.82-.83-1.65-1.22-2.48-.77-1.5-1.49-3-2.26-4.54a1.59,1.59,0,0,0-1-.88,2.6,2.6,0,0,0-1.27.05c-.5.12-1,.17-1.49.28a23.36,23.36,0,0,1-6.25,0,22.78,22.78,0,0,1-18-13.65,23.44,23.44,0,0,1-1.72-11.67A22.87,22.87,0,1,1,66.24,69a22.35,22.35,0,0,1-5.86,8.07,2.74,2.74,0,0,0-.89,1.05,1.66,1.66,0,0,0,.06,1.16l6.52,12.94c.33.66.66,1.66,1.33,2a3.24,3.24,0,0,0,1.6.23H79a1.61,1.61,0,0,0,1.63-1.58,1.49,1.49,0,0,0-.2-.8c-.61-1.22-1.27-2.38-1.88-3.59Z"/><path class="a" d="M133.9,79.28l8-29.68a1.32,1.32,0,0,1,1.27-.94h9.62A1.35,1.35,0,0,1,154.13,50a.82.82,0,0,1-.06.38l-14,42.07a1.36,1.36,0,0,1-1.22.77h-9.12a1.36,1.36,0,0,1-1.22-.77l-9.78-28.63-9.4,28.69v0a1.29,1.29,0,0,1-1.16.72h-9A1.28,1.28,0,0,1,98,92.44L84,50a1.35,1.35,0,0,1,1.33-1.33h10a1.36,1.36,0,0,1,1.1.77l7.91,29.8,9.23-29.74a1.37,1.37,0,0,1,1.21-.83H123a1.33,1.33,0,0,1,1.21.77Z"/><path class="a" d="M189.39,54.41a14.84,14.84,0,0,0-5.91-5.31,18,18,0,0,0-8.29-1.88,19.75,19.75,0,0,0-11.06,3.26,22.19,22.19,0,0,0-7.57,8.68,26.3,26.3,0,0,0-2.65,11.89V72a26.4,26.4,0,0,0,2.71,11.5,20,20,0,0,0,7.4,8.29,19.57,19.57,0,0,0,10.56,2.87,20.44,20.44,0,0,0,7.35-1.21,15.24,15.24,0,0,0,7.46-5.92l.12,4.53a1.35,1.35,0,0,0,1.32,1.16h9a1.34,1.34,0,0,0,1.33-1.32V50a1.35,1.35,0,0,0-1.33-1.33h-9a1.36,1.36,0,0,0-1.32,1.11v0ZM186.74,62a14.61,14.61,0,0,1-.27,18.19,11.89,11.89,0,0,1-16.81.22l-.22-.22a13,13,0,0,1-3.32-8.24,13.73,13.73,0,0,1,3.26-10.22,11.18,11.18,0,0,1,8.57-3.6A11.43,11.43,0,0,1,186.74,62Z"/><path class="a" d="M220.74,49.82a1.36,1.36,0,0,0-1.33-1.16h-9.06A1.35,1.35,0,0,0,209,50v41.9a1.34,1.34,0,0,0,1.33,1.32h9.56a1.3,1.3,0,0,0,1.27-.94v-23a12.76,12.76,0,0,1,2.43-8.29,8.38,8.38,0,0,1,6.8-2.93q8,0,8,10.45V92.33a1.36,1.36,0,0,0,1.27.94h9.57A1.31,1.31,0,0,0,250.53,92V66.24c0-6.14-1.38-10.84-4.14-14s-6.8-4.87-12-4.87a18.12,18.12,0,0,0-8.13,1.77,13,13,0,0,0-5.36,5.14Z"/></svg>