<svg xmlns="http://www.w3.org/2000/svg" viewBox="0 0 300 120"><defs><style>.a{fill:#fff;}</style></defs><title>reddit</title><path class="a" d="M263,40a6,6,0,1,0,6,6A6,6,0,0,0,263,40Z"/><path class="a" d="M164.67,51.67c-9,0-16.33,8.33-16.33,18.33s7.33,18.33,16.33,18.33c5.67,0,9.67-2,12.67-5.33a3.75,3.75,0,0,0-.67-5.33A4,4,0,0,0,172,78a10.38,10.38,0,0,1-7.67,3.33c-4.67,0-8.33-4-9.33-9.33h21a5.11,5.11,0,0,0,5-4c0-1.33-.34-2-.34-2.67C178.67,57.67,172.34,51.67,164.67,51.67ZM155,66c1.66-4.67,5-7.67,9.33-7.67,4,0,7.67,3.34,9,7.67Z"/><path class="a" d="M145,51.67a13.35,13.35,0,0,0-12.33,4.66V56A3.34,3.34,0,0,0,126,56V84.33A3.88,3.88,0,0,0,129.34,88,3.43,3.43,0,0,0,133,84.67V70c0-6.33,5-11.67,11.66-11h.67A5,5,0,0,0,148,55,3.54,3.54,0,0,0,145,51.67Z"/><path class="a" d="M263,55.67a3,3,0,0,0-3,3V84a3.32,3.32,0,0,0,3.67,3,3,3,0,0,0,3-3V58.67A3.31,3.31,0,0,0,263,55.67Z"/><path class="a" d="M212.34,36.33a3.31,3.31,0,0,0-3.67,3V54.67a12.56,12.56,0,0,0-9-3.34c-9,0-16.33,8.34-16.33,18.34S190.67,88,199.67,88a12.27,12.27,0,0,0,9-3.67A3.58,3.58,0,0,0,212,87a3.34,3.34,0,0,0,3.34-3.33V39.33A3,3,0,0,0,212.34,36.33ZM199.67,81c-5.33,0-9.66-5-9.66-11.33S194,58,199.34,58,209,63.33,209,69.67,204.67,81.33,199.67,81Z"/><path class="a" d="M248.34,36.33a3.31,3.31,0,0,0-3.67,3V54.67a12.56,12.56,0,0,0-9-3.34c-9,0-16.33,8.34-16.33,18.34S226.67,88,235.67,88a12.27,12.27,0,0,0,9-3.67A3.58,3.58,0,0,0,248,87a3.34,3.34,0,0,0,3.34-3.33V39.33A3,3,0,0,0,248.34,36.33ZM235.34,81c-5.34,0-9.67-5-9.67-11.33C225.67,63,230,58,235.34,58S245,63.33,245,69.67,241,81.33,235.34,81Z"/><path class="a" d="M287,52h-3.33V47a3.89,3.89,0,0,0-3.34-3.67,3.43,3.43,0,0,0-3.66,3.34v5h-3a3,3,0,0,0-3,3,3.29,3.29,0,0,0,3,3.33h3V83.67A3.33,3.33,0,0,0,280,87c2.67.33,4-1.33,4-3V58.33h3a3,3,0,0,0,3-3A3.29,3.29,0,0,0,287,52Z"/><path class="a" d="M68.68,77.33c-2,2.34-6.67,3-10,3s-8-.66-10-3c-.67-.66-1.33-.66-1.67,0-.66.67-.66,1.34,0,1.67,3.34,3.33,10,3.67,12,3.67s8.34-.34,12-3.67c-.33-.33-.33-1-.66-1.67C69.68,76.67,69,76.67,68.68,77.33Z"/><circle class="a" cx="69.35" cy="66" r="5"/><path class="a" d="M57,11.67A48.09,48.09,0,0,0,10,61a48.75,48.75,0,0,0,46.66,47.33,48.38,48.38,0,0,0,49.66-47V58.67A48.08,48.08,0,0,0,57,11.67ZM86.34,67.33v2C86.34,80.33,73.68,89,58,89S29.68,80.33,29.68,69.33v-2A7.23,7.23,0,0,1,26,58a6.11,6.11,0,0,1,6.34-4,6.81,6.81,0,0,1,5,2,35.5,35.5,0,0,1,19-6L60,33.33a1.14,1.14,0,0,1,.34-.66,1.2,1.2,0,0,1,1-.34L73,35c1.34-2.33,4.34-3.67,6.67-2.33S83.34,37,82,39.33,77.68,43,75.35,41.67a4.48,4.48,0,0,1-2.67-4.34L62.35,35,59,50a35.46,35.46,0,0,1,18.67,6,7.24,7.24,0,0,1,10,0,6.79,6.79,0,0,1,2,5C90.68,64,88.68,66.33,86.34,67.33Z"/><circle class="a" cx="47.35" cy="66" r="5"/></svg>