<svg xmlns="http://www.w3.org/2000/svg" viewBox="0 0 300 120"><defs><style>.a{fill:#fff;}</style></defs><title>researchgate</title><path class="a" d="M84.06,61.36c.55-3.1,2.47-6.43,6.33-6.43,3.38,0,4.91,3,4.91,5.85,0,.46-.07.58-.6.58Zm6.55-10c-7.08,0-12.22,6.23-12.22,14.82s4.66,14,12.48,14c4.18,0,7.56-1.88,8.61-3.64l.11-.17-.29-2.43-.77.4a14.5,14.5,0,0,1-6.66,1.45c-6,0-8.12-5.2-8.12-10.06,0-.3,0-.62,0-1h16.92l.08-.52a12.69,12.69,0,0,0,.11-2c0-5.21-3.21-10.83-10.27-10.83Z"/><path class="a" d="M268.27,45.7h-2.76l-.12.45c-.81,3-1.86,4.93-5.12,6.73l-.31.17v2.69h3.2V73.17c0,4.88,1.9,7,6.34,7,2.65,0,5.39-1.13,6.25-2.56l.11-.2-.38-2-.67.24a12.2,12.2,0,0,1-3.63.61c-1.89,0-2.91-.63-2.91-4V55.74h7.61V52h-7.61V45.7Z"/><path class="a" d="M116.67,67.49c-.06,1.49-.13,4.54-.14,6.31a6.63,6.63,0,0,1-4.81,2,3.41,3.41,0,0,1-3.7-3.65c0-3.09,2.43-4.66,7.23-4.66h1.42m5,6.16c0-2.5.06-4.8.12-7s.1-4.09.1-6.11c0-5.83-3.46-9.17-9.49-9.17a11,11,0,0,0-7.66,3.29l-.18.21.45,2.69.75-.43a11.39,11.39,0,0,1,5.69-1.37c3.65,0,5.28,1.77,5.28,5.74V64c-.75,0-1.66,0-2.23,0-7.1,0-11.69,3.49-11.69,8.89,0,4.29,3.08,7.29,7.49,7.29A9.61,9.61,0,0,0,117,77.24a4.09,4.09,0,0,0,4.25,2.89,8.37,8.37,0,0,0,4.33-1.08l.28-.17V76.44h-.61c-3.06,0-3.55-.67-3.55-2.79"/><path class="a" d="M143.41,51.35a10.29,10.29,0,0,0-6,2.78V50.75l-.85.38a50.19,50.19,0,0,1-7.23,2.56l-.43.13v2.24l.48.1c2.93.6,2.93.82,2.93,3.49V72.79c0,3.49-.41,3.56-1.22,3.71l-2.25.35V79.5l.64,0,1.36-.07c1.14-.07,2.56-.15,4-.15s3.5.1,5,.17l1.79.07V76.82l-2.94-.33c-.72-.1-1.21-.17-1.21-3.7V57.85a8.39,8.39,0,0,1,5-1.73,7.16,7.16,0,0,1,2.62.42l.78.39.58-5.11-.51-.13a9.07,9.07,0,0,0-2.41-.34"/><path class="a" d="M167.12,74.17a10.24,10.24,0,0,1-5.74,1.57c-5.37,0-8.7-3.88-8.7-10.11s3.12-10.75,7.59-10.75c3,0,4.33,1.36,4.49,4.54l0,.57H168v-.6c0-1.81.06-4.36.21-6.09l0-.46-.44-.16a20.82,20.82,0,0,0-7.19-1.33c-7.29,0-13.22,6.65-13.22,14.82,0,8.61,4.82,14,12.59,14,4,0,7.21-1.89,8.3-3.75l.11-.2-.48-2.53-.77.52Z"/><path class="a" d="M249,67.49c0,1.5-.12,4.56-.13,6.31a6.63,6.63,0,0,1-4.8,2,3.41,3.41,0,0,1-3.7-3.65c0-3.09,2.43-4.66,7.22-4.66H249m5,6.16c0-2.5.05-4.8.11-7s.1-4.09.1-6.11c0-5.83-3.46-9.17-9.49-9.17A11,11,0,0,0,237,54.63l-.18.22.45,2.69.75-.43a11.39,11.39,0,0,1,5.69-1.37c3.65,0,5.28,1.77,5.28,5.74V64c-.75,0-1.66,0-2.23,0-7.1,0-11.69,3.49-11.69,8.89,0,4.29,3.08,7.29,7.49,7.29a9.59,9.59,0,0,0,6.67-2.89,4.1,4.1,0,0,0,4.26,2.89,8.21,8.21,0,0,0,4.32-1.08l.28-.17V76.44h-.61c-3,0-3.54-.67-3.54-2.79"/><path class="a" d="M195.55,72.79V61.16c0-4.21-.89-9.81-8.59-9.81a11.94,11.94,0,0,0-6.9,2.77V39.77l-.89.45a36.89,36.89,0,0,1-7.2,2.86l-.43.13v2.24l.48.1c2.93.6,2.93.82,2.93,3.5V72.79c0,3.49-.41,3.56-1.22,3.7l-2.24.36V79.5l1.47-.06c1.25,0,2.85-.12,4.49-.12s3.4.07,4.69.13l1.38,0V76.85l-2.23-.35c-.77-.14-1.23-.23-1.23-3.71V57.56a11.13,11.13,0,0,1,5.48-1.82c3.63,0,4.91,1.57,4.91,6v11c0,3.49-.41,3.56-1.22,3.7l-2.25.36V79.5l1.48-.06c1.25,0,2.85-.12,4.49-.12s3.4.07,4.69.13l1.38,0V76.85l-2.23-.35c-.77-.14-1.24-.23-1.24-3.71"/><path class="a" d="M283.18,61.36c.55-3.1,2.47-6.43,6.33-6.43,3.38,0,4.92,3,4.92,5.85,0,.46-.08.58-.61.58Zm6.54-10c-7.08,0-12.21,6.23-12.21,14.82s4.66,14,12.48,14c4.18,0,7.56-1.88,8.61-3.64l.11-.17-.29-2.43-.78.4A14.4,14.4,0,0,1,291,75.74c-6,0-8.12-5.2-8.12-10.06,0-.3,0-.62,0-1h16.93l.08-.52a12.69,12.69,0,0,0,.11-2c0-5.21-3.21-10.83-10.28-10.83Z"/><path class="a" d="M226.84,63.35c-2.6,0-4.56-.08-5.86-.14l-1.11,0v2.69l2.49.47c.85.17,1.66.33,1.66,3.66v5.73a13.78,13.78,0,0,1-5.64,1c-6.66,0-10.95-5.72-10.95-14.57s4.42-14.57,11-14.57c4.24,0,6.75,2.28,7.06,6.43l0,.56h3.26l-.05-.65c-.21-2.92-.26-5.33-.31-7.66v-.42l-.39-.14a26.71,26.71,0,0,0-9.5-1.65c-9.79,0-16.9,7.77-16.9,18.48S208,80.23,217.8,80.23a33.38,33.38,0,0,0,11.11-1.88l.37-.16V69.94c0-3.19.53-3.46,1.46-3.66l2.12-.42V63.17l-1.45.06c-1.2.05-2.68.12-4.57.12"/><path class="a" d="M36.41,61.36c.54-3.1,2.47-6.43,6.33-6.43,3.38,0,4.91,3,4.91,5.85,0,.46-.07.58-.6.58Zm6.54-10c-7.08,0-12.21,6.23-12.21,14.82s4.66,14,12.48,14c4.18,0,7.55-1.88,8.61-3.64l.1-.17-.28-2.43-.78.4a14.43,14.43,0,0,1-6.65,1.45c-6,0-8.12-5.2-8.12-10.06,0-.3,0-.62,0-1H53l.08-.52a12.69,12.69,0,0,0,.11-2C53.23,57,50,51.35,43,51.35Z"/><path class="a" d="M66.59,62.7c-3.2-1.26-5.17-2.13-5.17-4.39,0-3.08,2.88-3.54,4.6-3.54,3.08,0,4.5,1.4,4.75,4.66l0,.56H74l0-.65a45.61,45.61,0,0,1-.11-6l0-.42-.39-.17a20.45,20.45,0,0,0-7.22-1.44c-5.59,0-9.49,3.17-9.49,7.71,0,5.75,4.38,7.35,7.9,8.63,3.28,1.2,5.29,2.06,5.29,4.56s-2,4.29-5,4.29c-4,0-5-1.74-5.43-5.39l-.07-.53H56.28l0,.65a62.67,62.67,0,0,1,.16,7l0,.46.43.15A25,25,0,0,0,65,80.13c5.43,0,9.69-3.75,9.69-8.52,0-5.76-4.47-7.51-8.07-8.91"/><path class="a" d="M19.49,54.27c0,4-2.64,6.5-6.9,6.5-1.48,0-2.25,0-3.18-.11V48.27c1.1-.07,2.44-.07,3.65-.07,4.15,0,6.43,2.16,6.43,6.07M25.6,74.21a64.14,64.14,0,0,1-7.54-10.63A10.53,10.53,0,0,0,25.17,54c0-5.91-4.17-9.43-11.17-9.43-1.66,0-3.15,0-4.53.09-1.18,0-2.28.07-3.35.07-2.06,0-4.19,0-5.49-.06l-.63,0v2.7l2.49.47c.85.16,1.66.32,1.66,3.65V72.68c0,3.33-.81,3.49-1.66,3.66L0,76.81V79.5l1.25,0c1.43,0,3.58-.13,5.71-.13,2.4,0,5.49.11,6.71.16l.63,0V76.78l-3.25-.45c-.85-.13-1.64-.24-1.64-3.65V64.34c.94.06,1.86.07,3.08.07a83,83,0,0,0,7.87,12.1,9.46,9.46,0,0,0,7.51,3.4,6.86,6.86,0,0,0,2.68-.49l.35-.16V76.87h-.61c-1.46,0-3.17-1-4.69-2.66"/></svg>