<svg xmlns="http://www.w3.org/2000/svg" viewBox="0 0 300 120"><path d="M136.6,74.4h-4.9c-.4,0-.6-.4-.8-.8l-5.8-9.8h-.9c-1.1,0-4.3-.1-5.3-.2v10a.79.79,0,0,1-.78.8h-4a.86.86,0,0,1-.8-.8V47c0-.8.5-1.1,1.3-1.2a87.93,87.93,0,0,1,9.6-.5c6.2,0,12,2.2,12,9.1v.4c0,4.3-2.1,6.6-5.5,7.9L137,73.5a.37.37,0,0,1,.1.3A.56.56,0,0,1,136.6,74.4Zm-6.1-20c0-3-2.4-4.3-6.4-4.3-.9,0-4.5.1-5.3.2V59c.6,0,4.6.1,5.3.1,4.2,0,6.4-.8,6.4-4.4Zm17.4,12c0,3.4.1,3.5,3.2,3.5h10.2a.86.86,0,0,1,.8.8v2.6c0,.6-.2.8-.8.9a52.8,52.8,0,0,1-8.7.6c-6.7,0-10.3,0-10.3-8.3V53.6c0-8.3,3.6-8.3,10.3-8.3a52.8,52.8,0,0,1,8.7.6c.6.1.8.3.8.9v2.6a.86.86,0,0,1-.8.8H151.1c-3.1,0-3.2.1-3.2,3.5v3.7h12.9a.86.86,0,0,1,.8.8V61a.86.86,0,0,1-.8.8H147.9Zm32.4,8.3c-6.5,0-12.1-2.8-12.1-11.4V46.4a.86.86,0,0,1,.8-.8h4a.79.79,0,0,1,.8.78V63.2c0,4.6,2.1,6.8,6.5,6.8s6.5-2.2,6.5-6.8V46.4a.86.86,0,0,1,.8-.8h4a.79.79,0,0,1,.8.78V63.2c0,8.6-5.6,11.5-12.1,11.5ZM219,50.3h-8.1V73.5a.86.86,0,0,1-.8.8h-4a.86.86,0,0,1-.8-.8V50.3h-8.1a.77.77,0,0,1-.8-.7V46.4a.86.86,0,0,1,.8-.8H219a.79.79,0,0,1,.8.78V49.6A.77.77,0,0,1,219,50.3Zm54.9,24.1H269c-.4,0-.6-.4-.8-.8l-5.8-9.8h-.9c-1,0-4.3-.1-5.3-.2v10a.79.79,0,0,1-.78.8h-4a.86.86,0,0,1-.8-.8V47c0-.8.5-1.1,1.3-1.2a87.93,87.93,0,0,1,9.6-.5c6.2,0,12,2.2,12,9.1v.4c0,4.3-2.1,6.6-5.5,7.9l6.4,10.8a.37.37,0,0,1,.1.3c-.1.3-.3.6-.6.6Zm-6-20c0-3-2.4-4.3-6.4-4.3-.8,0-4.5.1-5.3.2V59c.7,0,4.6.1,5.3.1,4.2,0,6.4-.8,6.4-4.4Zm21.5,20.3a39.27,39.27,0,0,1-9.1-1.1c-.4-.1-.8-.4-.8-.8V69.9a.86.86,0,0,1,.8-.8h.1a75,75,0,0,0,9.1.7c3.6,0,4.7-1.3,4.7-3.6,0-3-7.2-4.7-10.8-6.2a7.31,7.31,0,0,1-4.8-7.1c0-4.5,3.6-7.7,11.1-7.7a35.78,35.78,0,0,1,8.8,1.1.85.85,0,0,1,.7.8v3a.67.67,0,0,1-.66.7h-.14c-2.7-.2-5.4-.7-9-.7-3,0-5.2,1.1-5.2,2.9,0,1.3,1.5,2.6,3.3,3.3s4.2,1.6,6.8,2.7c3.4,1.4,5.6,3.4,5.6,7.3S297.5,74.7,289.4,74.7Zm-59.9-8.3c0,3.4.1,3.5,3.2,3.5H243a.86.86,0,0,1,.8.8v2.6c0,.6-.2.8-.8.9a52.8,52.8,0,0,1-8.7.6c-6.7,0-10.3,0-10.3-8.3V53.6c0-8.3,3.6-8.3,10.3-8.3a52.8,52.8,0,0,1,8.7.6c.6.1.8.3.8.9v2.6a.86.86,0,0,1-.8.8H232.8c-3.1,0-3.2.1-3.2,3.5v3.7h12.9a.86.86,0,0,1,.8.8V61a.86.86,0,0,1-.8.8H229.6v4.6Z"/><path d="M41.1,47.4a1.77,1.77,0,1,1-2.4-.7h0a1.73,1.73,0,0,1,2.36.63ZM32.2,61.5a1,1,0,1,0,1,1.8h0A1,1,0,0,0,33.63,62l0-.05h0a1,1,0,0,0-1.35-.43ZM32,57.1a1.25,1.25,0,1,0,1.7.5A1.27,1.27,0,0,0,32,57.1ZM33.2,53a1.41,1.41,0,1,0,1.9.6h0A1.4,1.4,0,0,0,33.22,53Zm2.2-3.6a1.54,1.54,0,0,0-.71,2.07v0h0a1.45,1.45,0,0,0,1.91.71,1.18,1.18,0,0,0,.19-.11A1.54,1.54,0,0,0,37.51,50v0h0a1.47,1.47,0,0,0-2-.67ZM33.7,65.6a1,1,0,0,0-.4,1.2h0a.89.89,0,0,0,1.6-.8.8.8,0,0,0-1-.49A.76.76,0,0,0,33.7,65.6ZM54.2,50.8a1,1,0,1,0,.4-1.4h0a1,1,0,0,0-.43,1.35Zm-3.6-2.3a1.25,1.25,0,1,0,.5-1.7,1.22,1.22,0,0,0-.53,1.64Zm-4.2-1.1a1.46,1.46,0,0,0,1.9.6h0a1.46,1.46,0,0,0,.6-1.9h0a1.46,1.46,0,0,0-1.9-.6h0a1.37,1.37,0,0,0-.64,1.83A.25.25,0,0,1,46.4,47.4Zm-4.3.2a1.64,1.64,0,0,0,2.2.7h0a1.52,1.52,0,0,0,.68-2,1.09,1.09,0,0,0-.08-.15,1.61,1.61,0,0,0-2.2-.6h0A1.58,1.58,0,0,0,42.1,47.6Zm14.8,6.5a1,1,0,0,0,1.2.4.93.93,0,0,0,.4-1.2h0a1,1,0,0,0-1.2-.4.78.78,0,0,0-.51,1A.65.65,0,0,0,56.9,54.1ZM53.8,70.9a1.71,1.71,0,0,0-2.28-.77l-.12.07h0a1.71,1.71,0,0,0-.77,2.28l.07.12h0a1.73,1.73,0,0,0,2.33.74l.07,0a1.77,1.77,0,0,0,.71-2.39ZM37.6,69.2a1,1,0,0,0-1.8,1h0a1,1,0,0,0,1.35.43l.05,0h0a1,1,0,0,0,.43-1.35Zm3.6,2.2a1.27,1.27,0,0,0-1.7-.5A1.16,1.16,0,0,0,39,72.47v0h0a1.27,1.27,0,0,0,1.7.5,1.11,1.11,0,0,0,.57-1.46A.61.61,0,0,0,41.2,71.4Zm4.1,1.2a1.41,1.41,0,1,0-.6,1.9h0a1.37,1.37,0,0,0,.64-1.83A.25.25,0,0,1,45.3,72.6Zm4.4-.2a1.52,1.52,0,0,0-2.05-.68l-.15.08a1.61,1.61,0,0,0-.6,2.2h0a1.54,1.54,0,0,0,2,.73l.06,0h0A1.82,1.82,0,0,0,49.7,72.4Zm9.8-13.9a1.11,1.11,0,0,0,.4-1.5,1,1,0,0,0-1.35-.43l0,0h0A1,1,0,0,0,58.07,58l0,0h0a1,1,0,0,0,1.3.55Zm.2,4.4a1.25,1.25,0,1,0-1.2-2.2h0a1.25,1.25,0,0,0,1.2,2.2ZM58.6,67a1.41,1.41,0,1,0-1.9-.6h0a1.35,1.35,0,0,0,1.79.66Zm-2.3,3.6a1.54,1.54,0,0,0-1.5-2.7h0a1.52,1.52,0,0,0-.68,2,1.09,1.09,0,0,0,.08.15h0A1.65,1.65,0,0,0,56.3,70.6Z"/><path d="M53.3,43.1a2.42,2.42,0,0,1-2.9,1.6h0a2.42,2.42,0,0,1-1.6-2.9h0a2.34,2.34,0,1,1,4.5,1.3ZM31.1,48.5a1.14,1.14,0,0,0-.6,2.2,1.26,1.26,0,0,0,1.4-.7A1.35,1.35,0,0,0,31.1,48.5Zm4-4.4a1.38,1.38,0,0,0-1.69.95v.05h0a1.39,1.39,0,0,0,.9,1.7h0a1.52,1.52,0,0,0,1.8-1A1.62,1.62,0,0,0,35.1,44.1ZM40.2,41a1.77,1.77,0,0,0-1,3.4,1.81,1.81,0,0,0,2.2-1.2h0A1.74,1.74,0,0,0,40.28,41Zm5.7-1.3A2,2,0,0,0,43.4,41h0a2,2,0,0,0,1.35,2.49h0a2,2,0,0,0,2.49-1.35v0A2,2,0,0,0,45.9,39.7ZM28.5,54a1,1,0,0,0-1.1.6h0a.91.91,0,0,0,.6,1.1h0a.89.89,0,0,0,.5-1.7Zm34.6,5.2a1.14,1.14,0,0,0,.8,1.4h0a1.14,1.14,0,1,0-.8-1.4Zm-1.3-5.8a1.56,1.56,0,0,0,.9,1.8h0a1.47,1.47,0,0,0,1.8-1,1.38,1.38,0,0,0-1-1.69h0A1.39,1.39,0,0,0,61.8,53.4Zm-3.1-5.1a1.77,1.77,0,1,0,2.2-1.2h0a1.74,1.74,0,0,0-2.18,1.12A.24.24,0,0,1,58.7,48.3Zm-4.4-4a2,2,0,0,0,3.9,1.1h0a2,2,0,0,0-1.35-2.49H56.8a2,2,0,0,0-2.49,1.35Zm8.3,20.6a.91.91,0,0,0,.6,1.1,1,1,0,0,0,1.1-.6h0a1,1,0,0,0-.6-1.1h0A1,1,0,0,0,62.6,64.9ZM42.9,78.2a2.31,2.31,0,0,0-1.52-2.88l-.08,0h0a2.31,2.31,0,0,0-2.88,1.52.24.24,0,0,1,0,.08h0a2.31,2.31,0,0,0,1.52,2.88l.08,0h0a2.21,2.21,0,0,0,2.83-1.36A2.17,2.17,0,0,0,42.9,78.2ZM28.6,60.8a1.14,1.14,0,1,0-1.4.8h0a1.07,1.07,0,0,0,1.36-.66A.74.74,0,0,0,28.6,60.8ZM30,66.6a1.39,1.39,0,0,0-.9-1.7h0a1.39,1.39,0,0,0-1.7.9h0a1.36,1.36,0,0,0,2.6.8Zm3.1,5.1A1.74,1.74,0,0,0,32,69.52l-.08,0a1.77,1.77,0,0,0-2.2,1.2h0a1.81,1.81,0,0,0,1.2,2.2h0a1.74,1.74,0,0,0,2.18-1.12A.24.24,0,0,1,33.1,71.7Zm4.4,4a2,2,0,1,0-3.9-1.1h0A2,2,0,0,0,35,77.09h0A2.09,2.09,0,0,0,37.5,75.7Zm23.2-4.3a1.14,1.14,0,1,0-.8-1.4,1.1,1.1,0,0,0,.72,1.38Zm-4,4.5a1.39,1.39,0,0,0,1.7-.9,1.56,1.56,0,0,0-.9-1.8h0a1.47,1.47,0,0,0-1.8,1A1.42,1.42,0,0,0,56.7,75.9ZM51.5,79a1.81,1.81,0,0,0,2.2-1.2h0a1.81,1.81,0,0,0-1.2-2.2h0a1.77,1.77,0,1,0-1,3.4Zm-5.7,1.3A2,2,0,0,0,48.3,79h0a2,2,0,1,0-3.9-1.1h0A2.11,2.11,0,0,0,45.8,80.3Z"/><path d="M64.8,44.3a3,3,0,0,1-4.2.1,2.9,2.9,0,0,1-.2-4.1l.1-.1h0a2.9,2.9,0,0,1,4.1-.2l.1.1h0A3,3,0,0,1,64.8,44.3ZM35.1,37.5a1.49,1.49,0,1,0,.1,2.11h0A1.54,1.54,0,0,0,35.1,37.5Zm7.5-2.8a1.84,1.84,0,0,0-2.54,2.67l0,0h0a1.88,1.88,0,0,0,2.6-.1A2,2,0,0,0,42.6,34.7Zm7.9-.6a2.3,2.3,0,0,0-3.1,3.4h0a2.33,2.33,0,0,0,3.2-.1,2.27,2.27,0,0,0,0-3.21ZM58.1,36a2.66,2.66,0,0,0-3.7.1h0a2.66,2.66,0,0,0,.1,3.7h0a2.62,2.62,0,1,0,3.77-3.63ZM28.8,42.5A1.06,1.06,0,0,0,27.3,44h0a1.09,1.09,0,0,0,1.5,0h0A.94.94,0,0,0,29,42.68.77.77,0,0,0,28.8,42.5ZM66.9,69.4a1.45,1.45,0,0,0,0,2s0,0,0,0a1.54,1.54,0,0,0,2.1-.1,1.42,1.42,0,0,0-.1-2,1.45,1.45,0,0,0-2-.05Zm1.9-7.5a1.88,1.88,0,0,0,.1,2.6,1.79,1.79,0,0,0,2.53,0,.46.46,0,0,0,.07-.07h0a1.66,1.66,0,0,0,0-2.36l-.15-.14h0A1.71,1.71,0,0,0,69,61.71Zm-.6-8a2.23,2.23,0,0,0,0,3.15l0,.05h0a2.23,2.23,0,0,0,3.15-.05l0,0h0a2.15,2.15,0,0,0,0-3,1.14,1.14,0,0,0-.16-.15,2.13,2.13,0,0,0-3,0Zm-2.8-7.4a2.62,2.62,0,1,0,3.7-.1h0a2.56,2.56,0,0,0-3.63,0ZM62.9,76a1.09,1.09,0,0,0,0,1.5,1,1,0,0,0,1.41,0l.09-.1h0a1.09,1.09,0,0,0,0-1.5h0A1.09,1.09,0,0,0,62.9,76ZM31.3,79.8a3,3,0,0,0-.2-4.2,3.09,3.09,0,0,0-4.2.1,3,3,0,0,0,.2,4.2A3.09,3.09,0,0,0,31.3,79.8ZM24.8,50.6a1.49,1.49,0,1,0-2.11.1h0A1.52,1.52,0,0,0,24.8,50.6ZM23,58.1a1.84,1.84,0,0,0-2.67-2.54l0,0a1.85,1.85,0,0,0,.1,2.5,1.71,1.71,0,0,0,2.6,0Zm.5,8a2.36,2.36,0,0,0-.1-3.3,2.23,2.23,0,0,0-3.16.16l0,0a2.36,2.36,0,0,0,.1,3.3A2.33,2.33,0,0,0,23.5,66.1Zm2.8,7.4a2.66,2.66,0,0,0-.1-3.7,2.53,2.53,0,0,0-3.58.08l0,0h0a2.66,2.66,0,0,0,.1,3.7h0a2.53,2.53,0,0,0,3.59-.09Zm30.3,9a1.45,1.45,0,0,0,2,0l.05,0h0a1.45,1.45,0,0,0-.05-2.05s0,0,0,0h0a1.45,1.45,0,0,0-2.05,0l0,.05h0A1.54,1.54,0,0,0,56.6,82.5Zm-7.4,2.8a1.88,1.88,0,0,0,2.6-.1,1.66,1.66,0,0,0,.05-2.36l-.15-.14h0a1.79,1.79,0,0,0-2.53,0,.46.46,0,0,0-.07.07,1.66,1.66,0,0,0-.05,2.36Zm-8,.6a2.36,2.36,0,0,0,3.3-.1,2.23,2.23,0,0,0,0-3.15l-.05-.05h0a2.36,2.36,0,0,0-3.3.1,2.23,2.23,0,0,0,.07,3.17ZM33.7,84a2.53,2.53,0,0,0,3.58-.08l0,0h0a2.62,2.62,0,1,0-3.63-3.77,1.37,1.37,0,0,0-.17.17h0A2.66,2.66,0,0,0,33.7,84Z"/><path d="M76.9,50.6A3.58,3.58,0,1,1,74.1,44h0a3.66,3.66,0,0,1,4.7,2A3.81,3.81,0,0,1,76.9,50.6Zm-25.3-23A2,2,0,0,0,49.3,26h0a2,2,0,0,0-1.6,2.3h0a2,2,0,0,0,2.4,1.5h0A1.93,1.93,0,0,0,51.6,27.6Zm8.5,1.9a2.28,2.28,0,0,0-2.71-1.75l-.19.05h0a2.28,2.28,0,0,0-1.75,2.71,1.33,1.33,0,0,0,0,.19h0a2.28,2.28,0,0,0,2.71,1.75l.19-.05A2.43,2.43,0,0,0,60.1,29.5ZM68,33.3a3,3,0,0,0-3.7-2h0a3,3,0,0,0-2,3.73s0,0,0,.07h0A3,3,0,0,0,66.09,37h0A3.14,3.14,0,0,0,68,33.3Zm6.2,5.6a3.31,3.31,0,0,0-4.2-2h0a3.31,3.31,0,0,0-2,4.2h0a3.38,3.38,0,0,0,4.3,2,3.19,3.19,0,0,0,2-4.05Zm-39.8-9a1.52,1.52,0,0,0-1.9-.8h0a1.46,1.46,0,1,0,1,2.76l.15-.06h0a1.38,1.38,0,0,0,.86-1.75ZM70.5,77.6a2,2,0,0,0-.4,2.8h0a1.93,1.93,0,0,0,2.68.51h0a2,2,0,0,0,.51-2.78v0h0a2,2,0,0,0-2.78-.51Zm4-7.7A2.4,2.4,0,0,0,77,74h.1a2.4,2.4,0,0,0,.7-3.3,2.33,2.33,0,0,0-3.19-.86Zm1.9-8.8a3,3,0,1,0,3,5.2h0a3.07,3.07,0,0,0,1.2-4.1h0A3.21,3.21,0,0,0,76.4,61.1Zm-.1-8.7a3.29,3.29,0,0,0,2.9,5.9h0a3.32,3.32,0,0,0,1.5-4.4h0a3.23,3.23,0,0,0-4.31-1.54ZM58,88.2a1.46,1.46,0,0,0,1.1,2.71A1.48,1.48,0,0,0,59.9,89h0A1.47,1.47,0,0,0,58,88.2ZM17.7,76.1a3.58,3.58,0,0,0-2.8-6.6h0A3.6,3.6,0,0,0,13,74.2h0A3.69,3.69,0,0,0,17.7,76.1Zm3.5-33.7a2,2,0,0,0,.51-2.78v0h0a2,2,0,0,0-2.78-.51h0a2,2,0,0,0-.51,2.78v0h0a2,2,0,0,0,2.78.51Zm-4,7.7A2.32,2.32,0,0,0,18,46.91l-.07-.11h0a2.39,2.39,0,1,0-.71,3.31Zm-1.9,8.8a3,3,0,0,0-2.8-5.4h0a.09.09,0,0,0-.1.1,3,3,0,0,0-1.1,4.1h0A2.89,2.89,0,0,0,15.19,59Zm.2,8.7a3.29,3.29,0,0,0-2.9-5.9h0a3.32,3.32,0,0,0-1.5,4.4h0a3.18,3.18,0,0,0,4.2,1.6ZM40.2,92.4A2,2,0,0,0,42.5,94h0a2,2,0,1,0-2.3-1.6Zm-8.6-1.9a2.28,2.28,0,0,0,2.71,1.75l.19,0h0a2.38,2.38,0,0,0-1.2-4.6A2.43,2.43,0,0,0,31.6,90.5Zm-7.8-3.8a3,3,0,0,0,3.7,2h0a3,3,0,0,0,2-3.7h0a3,3,0,0,0-3.73-2l-.07,0A3,3,0,0,0,23.8,86.7Zm-6.3-5.6a3.31,3.31,0,0,0,4.2,2h0a3.41,3.41,0,0,0,1.9-4.3A3.26,3.26,0,0,0,17.46,81ZM64.9,84a1.59,1.59,0,0,0-.2,2.2,1.55,1.55,0,0,0,2.1.2,1.58,1.58,0,0,0,.3-2.2A1.67,1.67,0,0,0,64.9,84ZM50.3,90.3a1.57,1.57,0,0,0,.5,3.1h0a1.59,1.59,0,0,0,1.3-1.8h0A1.66,1.66,0,0,0,50.3,90.3ZM42.7,27.9a1.59,1.59,0,0,0-1.8-1.3h0a1.57,1.57,0,1,0,.5,3.1,1.47,1.47,0,0,0,1.34-1.57A1.57,1.57,0,0,0,42.7,27.9ZM27.1,33.8a1.57,1.57,0,1,0-.3,2.2A1.57,1.57,0,0,0,27.1,33.8Z"/><path d="M87.1,64.6a4.6,4.6,0,1,1,0-9.2h0A4.65,4.65,0,0,1,91.7,60h0a4.6,4.6,0,0,1-4.58,4.6ZM69,24.8a2.53,2.53,0,0,0-1.9-3h0a2.53,2.53,0,0,0-3,1.9h0a2.52,2.52,0,0,0,1.94,3h.06A2.38,2.38,0,0,0,69,24.94Zm9.1,6.5a3,3,0,0,0-2.43-3.48l-.17,0h0a3.09,3.09,0,1,0,2.6,3.51ZM89.9,49.5a4.4,4.4,0,0,0-4-4.5h0a4.4,4.4,0,0,0-4.5,4h0a4.25,4.25,0,0,0,4,4.5h0a4.07,4.07,0,0,0,4.48-3.62C89.89,49.76,89.9,49.63,89.9,49.5ZM47.7,18.8a1.85,1.85,0,0,0-3.7,0,1.79,1.79,0,0,0,1.78,1.8h0a1.83,1.83,0,0,0,1.9-1.74ZM66,93.2a2.55,2.55,0,1,0,3,2h0A2.58,2.58,0,0,0,66,93.2Zm8.5-7.1a3.08,3.08,0,0,0,.9,6.1h.1a3.09,3.09,0,1,0-1-6.1Zm6.7-9.3a3.82,3.82,0,1,0,4.2,3.4h0a3.82,3.82,0,0,0-4.2-3.4Zm4.3-10.4a4.25,4.25,0,0,0,.4,8.5h0a4.23,4.23,0,0,0,4-4.4h0a4.25,4.25,0,0,0-4.39-4.1Zm-39.6,33a1.88,1.88,0,0,0-1.8,1.9,1.79,1.79,0,0,0,1.78,1.8h0a1.9,1.9,0,0,0,1.9-1.9h0A1.8,1.8,0,0,0,46,99.4ZM4.6,64.6a4.6,4.6,0,0,0,0-9.2h0A4.59,4.59,0,0,0,0,60v0H0A4.65,4.65,0,0,0,4.6,64.6ZM25.8,26.8a2.51,2.51,0,0,0,2-2.94V23.8a2.6,2.6,0,0,0-3-2h0a2.51,2.51,0,0,0-2,2.94v.06a2.46,2.46,0,0,0,2.84,2Zm-8.6,7.1a3.08,3.08,0,0,0-.9-6.1h0a3.13,3.13,0,0,0-2.6,3.5h0a3.07,3.07,0,0,0,3.47,2.6Zm-6.7,9.3a3.82,3.82,0,1,0-4.2-3.4h0a3.82,3.82,0,0,0,4.2,3.4ZM6.2,53.6a4.25,4.25,0,1,0-.4-8.5h0a4.25,4.25,0,0,0-4,4.5h0A4.23,4.23,0,0,0,6.2,53.6ZM22.7,95.2a2.55,2.55,0,1,0,3-2h0A2.58,2.58,0,0,0,22.7,95.2Zm-9-6.5a3,3,0,0,0,2.42,3.49h.08a3,3,0,0,0,3.48-2.43c0-.06,0-.11,0-.17a3.08,3.08,0,0,0-2.57-3.5h0a3,3,0,0,0-3.39,2.55ZM6.3,80.2a3.82,3.82,0,0,0,3.4,4.2h0A3.82,3.82,0,0,0,13.9,81h0a3.82,3.82,0,0,0-3.4-4.2h0a3.82,3.82,0,0,0-4.2,3.4ZM1.8,70.5a4.4,4.4,0,0,0,4,4.5h0a4.4,4.4,0,0,0,4.5-4h0a4.4,4.4,0,0,0-4-4.5,4.12,4.12,0,0,0-4.48,3.74A2.28,2.28,0,0,0,1.8,70.5ZM56,97.9a2,2,0,1,0,2.42,1.47s0-.05,0-.07h0a1.93,1.93,0,0,0-2.33-1.42Zm-20.3,0a2,2,0,0,0-2.4,1.5h0a2,2,0,0,0,3.89,1v0A2.14,2.14,0,0,0,35.7,97.9ZM58.5,20.7a1.86,1.86,0,0,0-1.19-2.35l-.21-.05h0A2,2,0,0,0,56,22.1,2.08,2.08,0,0,0,58.5,20.7ZM37.1,19.6a1.94,1.94,0,0,0-2.35-1.41h0a1.94,1.94,0,0,0-1.41,2.35v.05h0A1.94,1.94,0,0,0,35.65,22h.05a1.84,1.84,0,0,0,1.45-2.19A1.6,1.6,0,0,0,37.1,19.6Z"/></svg>