<svg id="Camada_1" data-name="Camada 1" xmlns="http://www.w3.org/2000/svg" viewBox="0 0 300 120"><defs><style>.cls-1{fill:#fff;}</style></defs><title>reuters</title><path class="cls-1" d="M136.6,74.4h-4.9c-.4,0-.6-.4-.8-.8l-5.8-9.8h-.9c-1.1,0-4.3-.1-5.3-.2v10a.79.79,0,0,1-.8.8h-4a.86.86,0,0,1-.8-.8V47c0-.8.5-1.1,1.3-1.2a88.57,88.57,0,0,1,9.6-.5c6.2,0,12,2.2,12,9.1v.4c0,4.3-2.1,6.6-5.5,7.9L137,73.5a.37.37,0,0,1,.1.3A.56.56,0,0,1,136.6,74.4Zm-6.1-20c0-3-2.4-4.3-6.4-4.3-.9,0-4.5.1-5.3.2V59c.6,0,4.6.1,5.3.1,4.2,0,6.4-.8,6.4-4.4Zm17.4,12c0,3.4.1,3.5,3.2,3.5h10.2a.86.86,0,0,1,.8.8v2.6c0,.6-.2.8-.8.9a52.52,52.52,0,0,1-8.7.6c-6.7,0-10.3,0-10.3-8.3V53.6c0-8.3,3.6-8.3,10.3-8.3a52.52,52.52,0,0,1,8.7.6c.6.1.8.3.8.9v2.6a.86.86,0,0,1-.8.8H151.1c-3.1,0-3.2.1-3.2,3.5v3.7h12.9a.86.86,0,0,1,.8.8V61a.86.86,0,0,1-.8.8H147.9v4.6Zm32.4,8.3c-6.5,0-12.1-2.8-12.1-11.4V46.4a.86.86,0,0,1,.8-.8h4a.79.79,0,0,1,.8.8V63.2c0,4.6,2.1,6.8,6.5,6.8s6.5-2.2,6.5-6.8V46.4a.86.86,0,0,1,.8-.8h4a.79.79,0,0,1,.8.8V63.2C192.4,71.8,186.8,74.7,180.3,74.7ZM219,50.3h-8.1V73.5a.86.86,0,0,1-.8.8h-4a.86.86,0,0,1-.8-.8V50.3h-8.1a.77.77,0,0,1-.8-.7V46.4a.86.86,0,0,1,.8-.8H219a.79.79,0,0,1,.8.8v3.2a.77.77,0,0,1-.8.7Zm54.9,24.1H269c-.4,0-.6-.4-.8-.8l-5.8-9.8h-.9c-1,0-4.3-.1-5.3-.2v10a.79.79,0,0,1-.8.8h-4a.86.86,0,0,1-.8-.8V47c0-.8.5-1.1,1.3-1.2a88.57,88.57,0,0,1,9.6-.5c6.2,0,12,2.2,12,9.1v.4c0,4.3-2.1,6.6-5.5,7.9l6.4,10.8a.37.37,0,0,1,.1.3c-.1.3-.3.6-.6.6Zm-6-20c0-3-2.4-4.3-6.4-4.3-.8,0-4.5.1-5.3.2V59c.7,0,4.6.1,5.3.1,4.2,0,6.4-.8,6.4-4.4v-.3Zm21.5,20.3a39.41,39.41,0,0,1-9.1-1.1c-.4-.1-.8-.4-.8-.8V69.9a.86.86,0,0,1,.8-.8h.1a74.85,74.85,0,0,0,9.1.7c3.6,0,4.7-1.3,4.7-3.6,0-3-7.2-4.7-10.8-6.2a7.31,7.31,0,0,1-4.8-7.1c0-4.5,3.6-7.7,11.1-7.7a35.66,35.66,0,0,1,8.8,1.1.85.85,0,0,1,.7.8v3a.68.68,0,0,1-.7.7h-.1c-2.7-.2-5.4-.7-9-.7-3,0-5.2,1.1-5.2,2.9,0,1.3,1.5,2.6,3.3,3.3s4.2,1.6,6.8,2.7c3.4,1.4,5.6,3.4,5.6,7.3s-2.4,8.4-10.5,8.4Zm-59.9-8.3c0,3.4.1,3.5,3.2,3.5H243a.86.86,0,0,1,.8.8v2.6c0,.6-.2.8-.8.9a52.52,52.52,0,0,1-8.7.6c-6.7,0-10.3,0-10.3-8.3V53.6c0-8.3,3.6-8.3,10.3-8.3a52.52,52.52,0,0,1,8.7.6c.6.1.8.3.8.9v2.6a.86.86,0,0,1-.8.8H232.8c-3.1,0-3.2.1-3.2,3.5v3.7h12.9a.86.86,0,0,1,.8.8V61a.86.86,0,0,1-.8.8H229.6v4.6Z"/><path class="cls-1" d="M41.1,47.4a1.77,1.77,0,1,1-2.4-.7,1.73,1.73,0,0,1,2.4.7ZM32.2,61.5a1,1,0,1,0,1,1.8h0a1,1,0,0,0,.4-1.4h0A1,1,0,0,0,32.2,61.5ZM32,57.1a1.25,1.25,0,1,0,1.7.5,1.28,1.28,0,0,0-1.7-.5ZM33.2,53a1.41,1.41,0,1,0,1.9.6h0A1.4,1.4,0,0,0,33.2,53Zm2.2-3.6a1.55,1.55,0,0,0-.7,2.1h0a1.44,1.44,0,0,0,2.1.6,1.55,1.55,0,0,0,.7-2.1h0a1.47,1.47,0,0,0-2.1-.6ZM33.7,65.6a1,1,0,0,0-.4,1.2h0a.89.89,0,0,0,1.6-.8A.8.8,0,0,0,33.7,65.6ZM54.2,50.8a1,1,0,1,0,.4-1.4h0a1,1,0,0,0-.4,1.4Zm-3.6-2.3a1.25,1.25,0,1,0,.5-1.7,1.22,1.22,0,0,0-.5,1.7Zm-4.2-1.1a1.46,1.46,0,0,0,1.9.6h0a1.46,1.46,0,0,0,.6-1.9h0a1.46,1.46,0,0,0-1.9-.6h0a1.37,1.37,0,0,0-.6,1.9Zm-4.3.2a1.64,1.64,0,0,0,2.2.7h0a1.53,1.53,0,0,0,.6-2.2,1.61,1.61,0,0,0-2.2-.6A1.58,1.58,0,0,0,42.1,47.6Zm14.8,6.5a1,1,0,0,0,1.2.4.93.93,0,0,0,.4-1.2h0a1,1,0,0,0-1.2-.4.78.78,0,0,0-.4,1.2ZM53.8,70.9a1.7,1.7,0,0,0-2.4-.7h0a1.7,1.7,0,0,0-.7,2.4h0a1.73,1.73,0,0,0,2.4.7,1.76,1.76,0,0,0,.7-2.4ZM37.6,69.2a1,1,0,0,0-1.8,1h0a1,1,0,0,0,1.4.4h0a1,1,0,0,0,.4-1.4Zm3.6,2.2a1.28,1.28,0,0,0-1.7-.5,1.17,1.17,0,0,0-.5,1.6h0a1.28,1.28,0,0,0,1.7.5A1.11,1.11,0,0,0,41.2,71.4Zm4.1,1.2a1.41,1.41,0,1,0-.6,1.9,1.37,1.37,0,0,0,.6-1.9Zm4.4-.2a1.53,1.53,0,0,0-2.2-.6,1.61,1.61,0,0,0-.6,2.2,1.53,1.53,0,0,0,2.1.7h0A1.82,1.82,0,0,0,49.7,72.4Zm9.8-13.9a1.1,1.1,0,0,0,.4-1.5,1,1,0,0,0-1.4-.4h0a1,1,0,0,0-.4,1.4h0a1,1,0,0,0,1.4.5Zm.2,4.4a1.25,1.25,0,1,0-1.2-2.2h0a1.25,1.25,0,0,0,1.2,2.2ZM58.6,67a1.41,1.41,0,1,0-1.9-.6,1.35,1.35,0,0,0,1.9.6Zm-2.3,3.6a1.54,1.54,0,0,0-1.5-2.7,1.53,1.53,0,0,0-.6,2.2h0a1.65,1.65,0,0,0,2.1.5Z"/><path class="cls-1" d="M53.3,43.1a2.42,2.42,0,0,1-2.9,1.6h0a2.42,2.42,0,0,1-1.6-2.9h0a2.34,2.34,0,1,1,4.5,1.3ZM31.1,48.5a1.14,1.14,0,0,0-.6,2.2,1.27,1.27,0,0,0,1.4-.7,1.35,1.35,0,0,0-.8-1.5Zm4-4.4a1.37,1.37,0,0,0-1.7,1h0a1.39,1.39,0,0,0,.9,1.7h0a1.52,1.52,0,0,0,1.8-1,1.62,1.62,0,0,0-1-1.7ZM40.2,41a1.77,1.77,0,0,0-1,3.4,1.81,1.81,0,0,0,2.2-1.2h0A1.73,1.73,0,0,0,40.2,41Zm5.7-1.3A2,2,0,0,0,43.4,41h0a2,2,0,0,0,1.4,2.5h0a2,2,0,0,0,2.5-1.4,2,2,0,0,0-1.4-2.4ZM28.5,54a1,1,0,0,0-1.1.6h0a.91.91,0,0,0,.6,1.1h0a.89.89,0,0,0,.5-1.7Zm34.6,5.2a1.14,1.14,0,0,0,.8,1.4h0a1.14,1.14,0,1,0-.8-1.4Zm-1.3-5.8a1.56,1.56,0,0,0,.9,1.8h0a1.47,1.47,0,0,0,1.8-1,1.37,1.37,0,0,0-1-1.7,1.39,1.39,0,0,0-1.7.9Zm-3.1-5.1a1.77,1.77,0,1,0,2.2-1.2h0a1.73,1.73,0,0,0-2.2,1.2Zm-4.4-4a2,2,0,0,0,3.9,1.1h0a2,2,0,0,0-1.4-2.5h0A2,2,0,0,0,54.3,44.3Zm8.3,20.6a.91.91,0,0,0,.6,1.1,1,1,0,0,0,1.1-.6h0a1,1,0,0,0-.6-1.1h0a1,1,0,0,0-1.1.6ZM42.9,78.2a2.3,2.3,0,0,0-1.6-2.9h0a2.3,2.3,0,0,0-2.9,1.6h0A2.3,2.3,0,0,0,40,79.8h0A2.22,2.22,0,0,0,42.9,78.2ZM28.6,60.8a1.14,1.14,0,1,0-1.4.8h0a1.07,1.07,0,0,0,1.4-.8ZM30,66.6a1.39,1.39,0,0,0-.9-1.7h0a1.39,1.39,0,0,0-1.7.9h0a1.36,1.36,0,0,0,2.6.8Zm3.1,5.1a1.73,1.73,0,0,0-1.2-2.2,1.77,1.77,0,0,0-2.2,1.2,1.81,1.81,0,0,0,1.2,2.2h0a1.73,1.73,0,0,0,2.2-1.2Zm4.4,4a2,2,0,1,0-3.9-1.1h0A2,2,0,0,0,35,77.1h0A2.09,2.09,0,0,0,37.5,75.7Zm23.2-4.3a1.14,1.14,0,1,0-.8-1.4A1.1,1.1,0,0,0,60.7,71.4Zm-4,4.5a1.39,1.39,0,0,0,1.7-.9,1.56,1.56,0,0,0-.9-1.8h0a1.47,1.47,0,0,0-1.8,1A1.41,1.41,0,0,0,56.7,75.9ZM51.5,79a1.81,1.81,0,0,0,2.2-1.2h0a1.81,1.81,0,0,0-1.2-2.2h0a1.77,1.77,0,1,0-1,3.4Zm-5.7,1.3A2,2,0,0,0,48.3,79h0a2,2,0,1,0-3.9-1.1A2.12,2.12,0,0,0,45.8,80.3Z"/><path class="cls-1" d="M64.8,44.3a3,3,0,0,1-4.2.1,2.9,2.9,0,0,1-.1-4.2h0a2.9,2.9,0,0,1,4.2-.1h0a3,3,0,0,1,.1,4.2ZM35.1,37.5a1.49,1.49,0,1,0,.1,2.1,1.55,1.55,0,0,0-.1-2.1Zm7.5-2.8a1.84,1.84,0,1,0-2.5,2.7h0a1.88,1.88,0,0,0,2.6-.1,2,2,0,0,0-.1-2.6Zm7.9-.6a2.3,2.3,0,1,0-3.1,3.4,2.33,2.33,0,0,0,3.2-.1A2.27,2.27,0,0,0,50.5,34.1ZM58.1,36a2.66,2.66,0,0,0-3.7.1h0a2.66,2.66,0,0,0,.1,3.7h0A2.62,2.62,0,1,0,58.1,36ZM28.8,42.5A1.06,1.06,0,0,0,27.3,44h0a1.09,1.09,0,0,0,1.5,0h0A.94.94,0,0,0,28.8,42.5ZM66.9,69.4a1.45,1.45,0,0,0,.1,2.1,1.55,1.55,0,0,0,2.1-.1,1.42,1.42,0,0,0-.1-2A1.45,1.45,0,0,0,66.9,69.4Zm1.9-7.5a1.88,1.88,0,0,0,.1,2.6,1.79,1.79,0,0,0,2.6-.1h0a1.67,1.67,0,0,0-.1-2.5h0A1.71,1.71,0,0,0,68.8,61.9Zm-.6-8a2.23,2.23,0,0,0,.1,3.2h0a2.23,2.23,0,0,0,3.2-.1h0a2.16,2.16,0,0,0-.2-3.2,2.12,2.12,0,0,0-3.1.1Zm-2.8-7.4a2.62,2.62,0,1,0,3.7-.1h0A2.57,2.57,0,0,0,65.4,46.5ZM62.9,76a1.09,1.09,0,0,0,0,1.5,1,1,0,0,0,1.5-.1h0a1.09,1.09,0,0,0,0-1.5h0a1.09,1.09,0,0,0-1.5.1ZM31.3,79.8a3,3,0,0,0-.2-4.2,3.09,3.09,0,0,0-4.2.1,3,3,0,0,0,.2,4.2,3.08,3.08,0,0,0,4.2-.1ZM24.8,50.6a1.49,1.49,0,1,0-2.1.1,1.53,1.53,0,0,0,2.1-.1ZM23,58.1a1.84,1.84,0,1,0-2.7-2.5,1.85,1.85,0,0,0,.1,2.5,1.71,1.71,0,0,0,2.6,0Zm.5,8a2.36,2.36,0,0,0-.1-3.3,2.24,2.24,0,0,0-3.2.2,2.36,2.36,0,0,0,.1,3.3A2.33,2.33,0,0,0,23.5,66.1Zm2.8,7.4a2.66,2.66,0,0,0-.1-3.7,2.53,2.53,0,0,0-3.6.1h0a2.66,2.66,0,0,0,.1,3.7h0a2.54,2.54,0,0,0,3.6-.1Zm30.3,9a1.45,1.45,0,0,0,2.1-.1h0a1.45,1.45,0,0,0-.1-2.1h0a1.45,1.45,0,0,0-2.1.1h0a1.55,1.55,0,0,0,.1,2.1Zm-7.4,2.8a1.88,1.88,0,0,0,2.6-.1,1.67,1.67,0,0,0-.1-2.5h0a1.79,1.79,0,0,0-2.6.1A1.67,1.67,0,0,0,49.2,85.3Zm-8,.6a2.36,2.36,0,0,0,3.3-.1,2.23,2.23,0,0,0-.1-3.2h0a2.36,2.36,0,0,0-3.3.1,2.24,2.24,0,0,0,.1,3.2ZM33.7,84a2.53,2.53,0,0,0,3.6-.1h0a2.62,2.62,0,1,0-3.8-3.6h0a2.66,2.66,0,0,0,.2,3.7Z"/><path class="cls-1" d="M76.9,50.6A3.58,3.58,0,1,1,74.1,44h0a3.65,3.65,0,0,1,4.7,2A3.81,3.81,0,0,1,76.9,50.6Zm-25.3-23A2,2,0,0,0,49.3,26h0a2,2,0,0,0-1.6,2.3h0a2,2,0,0,0,2.4,1.5A1.93,1.93,0,0,0,51.6,27.6Zm8.5,1.9a2.28,2.28,0,0,0-2.9-1.7h0a2.28,2.28,0,0,0-1.7,2.9h0a2.28,2.28,0,0,0,2.9,1.7,2.43,2.43,0,0,0,1.7-2.9ZM68,33.3a3,3,0,0,0-3.7-2h0a3,3,0,0,0-2,3.8h0A3,3,0,0,0,66.1,37,3.14,3.14,0,0,0,68,33.3Zm6.2,5.6a3.31,3.31,0,0,0-4.2-2h0a3.31,3.31,0,0,0-2,4.2h0a3.38,3.38,0,0,0,4.3,2,3.18,3.18,0,0,0,1.9-4.2Zm-39.8-9a1.52,1.52,0,0,0-1.9-.8h0a1.46,1.46,0,1,0,1.1,2.7h0a1.38,1.38,0,0,0,.8-1.9ZM70.5,77.6a2,2,0,0,0-.4,2.8,1.93,1.93,0,0,0,2.7.5,2,2,0,0,0,.5-2.8h0a2,2,0,0,0-2.8-.5Zm4-7.7A2.4,2.4,0,0,0,77,74h.1a2.4,2.4,0,0,0,.7-3.3A2.34,2.34,0,0,0,74.5,69.9Zm1.9-8.8a3,3,0,1,0,3,5.2h0a3.07,3.07,0,0,0,1.2-4.1h0a3.21,3.21,0,0,0-4.2-1.1Zm-.1-8.7a3.29,3.29,0,0,0,2.9,5.9h0a3.32,3.32,0,0,0,1.5-4.4h0a3.24,3.24,0,0,0-4.4-1.5ZM58,88.2a1.46,1.46,0,1,0,1.9.8A1.48,1.48,0,0,0,58,88.2ZM17.7,76.1a3.58,3.58,0,0,0-2.8-6.6h0A3.6,3.6,0,0,0,13,74.2h0A3.69,3.69,0,0,0,17.7,76.1Zm3.5-33.7a2,2,0,0,0,.5-2.8h0a2,2,0,0,0-2.8-.5h0a2,2,0,0,0-.5,2.8h0a2,2,0,0,0,2.8.5Zm-4,7.7a2.32,2.32,0,0,0,.7-3.3h0a2.39,2.39,0,1,0-.7,3.3Zm-1.9,8.8a3,3,0,0,0-2.8-5.4.1.1,0,0,0-.1.1,3,3,0,0,0-1.1,4.1A2.89,2.89,0,0,0,15.3,58.9Zm.2,8.7a3.29,3.29,0,0,0-2.9-5.9h0a3.32,3.32,0,0,0-1.5,4.4h0A3.18,3.18,0,0,0,15.5,67.6ZM40.2,92.4A2,2,0,0,0,42.5,94h0a2,2,0,0,0-.7-3.9,2,2,0,0,0-1.6,2.3Zm-8.6-1.9a2.28,2.28,0,0,0,2.9,1.7h0a2.38,2.38,0,0,0-1.2-4.6,2.43,2.43,0,0,0-1.7,2.9Zm-7.8-3.8a3,3,0,0,0,3.7,2h0a3,3,0,0,0,2-3.7h0a3,3,0,0,0-3.8-2,3,3,0,0,0-1.9,3.7Zm-6.3-5.6a3.31,3.31,0,0,0,4.2,2h0a3.41,3.41,0,0,0,1.9-4.3,3.26,3.26,0,1,0-6.1,2.3ZM64.9,84a1.58,1.58,0,0,0-.2,2.2,1.55,1.55,0,0,0,2.1.2,1.58,1.58,0,0,0,.3-2.2,1.67,1.67,0,0,0-2.2-.2ZM50.3,90.3a1.57,1.57,0,0,0,.5,3.1h0a1.59,1.59,0,0,0,1.3-1.8h0a1.66,1.66,0,0,0-1.8-1.3ZM42.7,27.9a1.59,1.59,0,0,0-1.8-1.3h0a1.57,1.57,0,1,0,.5,3.1,1.46,1.46,0,0,0,1.3-1.8ZM27.1,33.8a1.57,1.57,0,1,0-.3,2.2,1.58,1.58,0,0,0,.3-2.2Z"/><path class="cls-1" d="M87.1,64.6a4.6,4.6,0,1,1,0-9.2h0A4.65,4.65,0,0,1,91.7,60h0a4.59,4.59,0,0,1-4.6,4.6ZM69,24.8a2.53,2.53,0,0,0-1.9-3h0a2.53,2.53,0,0,0-3,1.9h0a2.52,2.52,0,0,0,2,3A2.38,2.38,0,0,0,69,24.8Zm9.1,6.5a3,3,0,0,0-2.6-3.5h0a3.09,3.09,0,1,0,2.6,3.5Zm7.3,8.5Zm4.5,9.7a4.39,4.39,0,0,0-4-4.5h0a4.39,4.39,0,0,0-4.5,4h0a4.25,4.25,0,0,0,4,4.5,4.07,4.07,0,0,0,4.5-4ZM47.7,18.8a1.85,1.85,0,1,0-3.7,0,1.79,1.79,0,0,0,1.8,1.8A1.82,1.82,0,0,0,47.7,18.8ZM66,93.2a2.55,2.55,0,1,0,3,2,2.57,2.57,0,0,0-3-2Zm8.5-7.1a3.08,3.08,0,0,0,.9,6.1h.1a3.09,3.09,0,0,0-1-6.1Zm6.7-9.3a3.82,3.82,0,1,0,4.2,3.4h0A3.82,3.82,0,0,0,81.2,76.8Zm4.3-10.4a4.25,4.25,0,0,0,.4,8.5h0a4.23,4.23,0,0,0,4-4.4h0A4.25,4.25,0,0,0,85.5,66.4Zm-39.6,33a1.88,1.88,0,0,0-1.8,1.9,1.79,1.79,0,0,0,1.8,1.8,1.9,1.9,0,0,0,1.9-1.9A1.81,1.81,0,0,0,45.9,99.4ZM4.6,64.6a4.6,4.6,0,0,0,0-9.2h0A4.59,4.59,0,0,0,0,60H0A4.65,4.65,0,0,0,4.6,64.6ZM25.8,26.8a2.52,2.52,0,0,0,2-3,2.6,2.6,0,0,0-3-2h0a2.52,2.52,0,0,0-2,3A2.47,2.47,0,0,0,25.8,26.8Zm-8.6,7.1a3.08,3.08,0,0,0-.9-6.1h0a3.13,3.13,0,0,0-2.6,3.5h0A3.07,3.07,0,0,0,17.2,33.9Zm-6.7,9.3a3.82,3.82,0,1,0-4.2-3.4h0a3.82,3.82,0,0,0,4.2,3.4ZM6.2,53.6a4.25,4.25,0,0,0-.4-8.5h0a4.26,4.26,0,0,0-4,4.5h0A4.23,4.23,0,0,0,6.2,53.6ZM22.7,95.2a2.55,2.55,0,1,0,3-2A2.57,2.57,0,0,0,22.7,95.2Zm-9-6.5a3,3,0,0,0,2.5,3.5h0a3,3,0,0,0,3.5-2.6,3.07,3.07,0,0,0-2.6-3.5,3,3,0,0,0-3.4,2.6ZM6.3,80.2a3.82,3.82,0,0,0,3.4,4.2h0A3.82,3.82,0,0,0,13.9,81h0a3.82,3.82,0,0,0-3.4-4.2h0a3.82,3.82,0,0,0-4.2,3.4ZM1.8,70.5a4.39,4.39,0,0,0,4,4.5h0a4.39,4.39,0,0,0,4.5-4h0a4.39,4.39,0,0,0-4-4.5A4.13,4.13,0,0,0,1.8,70.5ZM56,97.9a2,2,0,1,0,2.4,1.4h0A1.93,1.93,0,0,0,56,97.9Zm-20.3,0a2,2,0,0,0-2.4,1.5,2,2,0,0,0,1.4,2.4,2,2,0,0,0,2.5-1.4,2.14,2.14,0,0,0-1.5-2.5ZM58.5,20.7a1.86,1.86,0,0,0-1.4-2.4h0A2,2,0,0,0,56,22.1a2.08,2.08,0,0,0,2.5-1.4ZM37.1,19.6a1.94,1.94,0,0,0-2.4-1.4h0a1.94,1.94,0,0,0-1.4,2.4h0A1.94,1.94,0,0,0,35.7,22,1.86,1.86,0,0,0,37.1,19.6Z"/></svg>