<svg id="Camada_1" data-name="Camada 1" xmlns="http://www.w3.org/2000/svg" viewBox="0 0 300 120"><title>searchcode</title><path d="M26.2,29.59H27c4.93,2.24,9.57,5.05,14.28,7.72,3.89,2.4,8,4.52,11.56,7.39a12.94,12.94,0,0,1,.54,3.73c.3,7.28.24,14.58,0,21.86a21.76,21.76,0,0,1-.61,5c-2.25,2-5,3.34-7.5,5l-6.21-7.45A18.26,18.26,0,0,0,43.77,55C41.41,46.29,31.74,40.5,23,42.7a17.74,17.74,0,0,0-2.23,34,18.37,18.37,0,0,0,12.66-.14c1.62,2.62,3.22,5.25,4.84,7.87-3.65,2.11-7.41,4-11.11,6h-1c-1.32-1.23-3.13-1.64-4.64-2.57C14.36,83.85,7.14,80,.53,75.19.12,71.36.06,67.51,0,63.65V58.09c.11-4.43.09-8.86.6-13.26C8.66,39,17.62,34.53,26.2,29.59Z"/><path d="M178.81,37c2.31-.45,4.65-.8,7-1.18,0,3.92,0,7.83,0,11.75,3.59-.85,7.75-.9,10.84,1.39,2.7,2.07,3.33,5.68,3.41,8.88.06,4.79,0,9.58,0,14.37h-7c0-4.58,0-9.15,0-13.73-.1-1.69-.14-3.73-1.58-4.9-1.69-1.11-3.8-.44-5.65-.23-.11,6.29,0,12.59-.08,18.88-2.31,0-4.61,0-6.92,0C178.81,60.51,178.87,48.78,178.81,37Z"/><path d="M266.31,37c2.3-.35,4.61-.72,6.9-1.11.07,11.87,0,23.75,0,35.62-4.73,1.13-9.78,2-14.57.77a11,11,0,0,1-7.92-8.47c-.88-4.54-.38-9.74,2.68-13.41s8.63-4,12.83-2.24c0-3.72-.06-7.44,0-11.16M260.07,53.5c-1.8.94-2.42,3.1-2.55,5-.2,2.55.14,5.51,2.19,7.28,1.81,1.55,4.36,1.1,6.54,1,0-4.29,0-8.57,0-12.86C264.3,53.2,262.06,52.49,260.07,53.5Z"/><path d="M71.45,48.4c4.24-2.33,9.39-1.53,13.83-.22-.42,1.8-.83,3.62-1.23,5.42-2.64-.72-5.53-1.6-8.22-.62a1.65,1.65,0,0,0,0,2.92c2.79,1.61,6.18,2.18,8.59,4.44,2,1.83,2.23,4.86,1.62,7.34s-3.25,4.17-5.75,4.74a23.27,23.27,0,0,1-12.9-1c.39-1.88.78-3.76,1.15-5.64,3,1.07,6.35,1.87,9.58,1.23a1.53,1.53,0,0,0,.61-2.77C76.21,62.45,73,62,70.53,60.12,66.87,57.24,67.26,50.62,71.45,48.4Z"/><path d="M91.68,51c4.13-5.09,12.95-5.48,17.27-.45,2.76,3.2,2.92,7.69,2.7,11.7-5.33,0-10.65,0-16,0a5.56,5.56,0,0,0,3.41,4.07c3.33,1.12,7,.48,10.25-.59.28,1.9.91,3.81.8,5.73a24.75,24.75,0,0,1-11.54,1.2,11.26,11.26,0,0,1-9-6.93C87.89,60.9,88.26,55,91.68,51m4,6.41c3.12.13,6.24.05,9.35.06-.2-2.41-2-5-4.62-4.72C97.79,52.59,96.17,55.05,95.7,57.37Z"/><path d="M116.08,48.06c4.64-1,9.73-1.91,14.26,0,3,1.21,4.47,4.43,4.56,7.49.2,5.32,0,10.65.1,16-5.44,1.08-11.29,2.06-16.68.29s-6.2-10.37-1.32-13.2c3.43-2,7.59-1.86,11.38-1.31-.15-1.66-.59-3.71-2.44-4.21-3-.78-6.08-.11-9,.59-.3-1.87-.6-3.75-.87-5.62m6.17,14.1a2.66,2.66,0,0,0-.12,4.74c2,.74,4.1.41,6.14.32,0-1.79,0-3.59,0-5.38C126.28,61.65,124.16,61.38,122.25,62.16Z"/><path d="M139.58,48.87c5.12-1.74,10.71-2.43,16-.93-.37,1.94-.76,3.88-1.15,5.82a18,18,0,0,0-7.86-.43c0,6.31,0,12.62,0,18.92-2.3,0-4.61,0-6.9,0C139.49,64.49,139.61,56.68,139.58,48.87Z"/><path d="M162.76,48.24c3.92-2,8.6-1.43,12.63-.06-.41,1.9-.89,3.78-1.39,5.65-2.58-.79-5.55-1.48-8.06-.13s-3,4.59-2.82,7.21c.11,2.18,1,4.72,3.28,5.49,2.76.93,5.76.37,8.5-.38q.48,2.83.95,5.68c-5.06,1.68-11.28,2-15.68-1.47-3.5-2.74-4.48-7.54-4.1-11.77A12.4,12.4,0,0,1,162.76,48.24Z"/><path d="M209.6,48.4c4-2.19,8.86-1.68,13-.15q-.72,2.78-1.43,5.57c-2.56-.75-5.47-1.46-8-.16s-3.11,4.59-2.91,7.23c.11,2.25,1.07,4.88,3.45,5.57,2.72.83,5.66.33,8.32-.47q.48,2.85,1,5.7c-5.06,1.7-11.26,2-15.67-1.44-3.35-2.59-4.39-7.11-4.17-11.15A12.55,12.55,0,0,1,209.6,48.4Z"/><path d="M231.7,47.59c4.3-1.41,9.48-.5,12.65,2.85C248.44,54.86,248.79,62,246,67.2c-3.62,6.8-14.27,7.62-19.22,1.89-3-3.49-3.73-8.53-2.75-13a11.73,11.73,0,0,1,7.63-8.55m1.79,5.89a6.37,6.37,0,0,0-2.68,5c-.19,2.35,0,4.94,1.52,6.85a4.52,4.52,0,0,0,7.22-.59,10.85,10.85,0,0,0,.28-9.23A4.58,4.58,0,0,0,233.49,53.48Z"/><path d="M280,50.88c4-4.83,12.24-5.34,16.72-.9,2.32,2.28,3.09,5.61,3.28,8.75V62.2c-5.38.06-10.75,0-16.13,0,.6,1.61,1.43,3.31,3.16,3.94,3.41,1.35,7.21.58,10.6-.44.32,1.92.63,3.83.9,5.75-3.93,1.13-8.1,1.85-12.16,1.08a11.21,11.21,0,0,1-8.46-6.77c-1.79-4.88-1.4-10.88,2.09-14.93m4,6.54q4.66,0,9.36,0c-.26-2.36-1.92-4.91-4.56-4.72C286.1,52.55,284.36,55,284,57.42Z"/><path d="M23.23,48.83a11.74,11.74,0,1,1-7.93,9.09A11.74,11.74,0,0,1,23.23,48.83Z"/></svg>