<svg id="Camada_1" data-name="Camada 1" xmlns="http://www.w3.org/2000/svg" viewBox="0 0 300 120"><defs><style>.cls-1{fill:#fff;}</style></defs><title>searx</title><path class="cls-1" d="M283.4,105c-2.7,5.4-7.6,6.5-12.2,2.5a30.41,30.41,0,0,1-4.4-5.1c-7.9-10.8-15.7-21.7-23.6-32.5-.4-.5-.8-1-1.3-1.7-.6.7-1.1,1.4-1.6,2-8.1,11.3-16.2,22.6-24.2,33.9a10.79,10.79,0,0,1-6.8,4.6c-5,1-10.6-3.9-8.2-9.4a27.63,27.63,0,0,1,3.3-6.1c8.9-11.6,17.8-23.1,26.9-34.6,1.2-1.5,1.1-2.4,0-3.9-7.9-10.2-15.8-20.4-23.6-30.7a20.25,20.25,0,0,1-2.6-4.5c-1.2-2.6-1-5.1,1.1-7.2a6.84,6.84,0,0,1,7.8-1.8,12.83,12.83,0,0,1,5,3.9c7.2,9.5,14.3,19.1,21.4,28.6.4.6.9,1.1,1.4,1.9.5-.7,1-1.2,1.5-1.8,7.2-9.6,14.5-19.3,21.7-28.9,1.4-1.8,2.9-3.5,5.3-4,5.6-1.2,10,3.8,8.1,9.4a14.75,14.75,0,0,1-2.5,4.4c-7.7,10.2-15.4,20.4-23.1,30.5-.5.7-1.1,1.5-1.7,2.3,4.6,6,9.1,11.9,13.6,17.8s8.8,11.6,13.3,17.3c2.3,3,4.5,5.9,5.4,9.7Z"/><path class="cls-1" d="M154.1,102.3c-.6.4-.7.4-.8.5-9.1,11.9-25.6,6.8-31.9-1.6-4.6-6.2-6.2-13.2-5.9-20.7.3-5.8,1.6-11.3,5.1-16.1,5.6-7.8,15.2-11.4,24-8.9a21.93,21.93,0,0,1,4.9,2.3,45.59,45.59,0,0,1,4.5,3.8V59.4c.1-3,1.8-4.8,4.3-4.7s4,1.9,4,4.8v46.2c0,1.7-.6,3.3-2.2,3.7a7,7,0,0,1-4.5-.6c-.8-.4-1.2-1.9-1.5-3A20.3,20.3,0,0,1,154.1,102.3Zm-.1-20c-.1-5.4-.9-10.6-4.4-14.9a13.27,13.27,0,0,0-21.3.7c-5.2,7.4-5.2,20.5-.4,28.1,5.6,8.8,19.7,7.4,23.4-1.4A29.91,29.91,0,0,0,154,82.3Z"/><path class="cls-1" d="M70.9,85.9a15,15,0,0,0,13.9,16.2,21.91,21.91,0,0,0,16-4.7l2.1-1.5c1.3-.8,2.9-1.3,3.8,0a5.69,5.69,0,0,1,1.1,4,6.73,6.73,0,0,1-2.5,3.5c-8.3,6.5-17.7,8.4-27.7,5C68.1,105,63.6,97.2,62,87.7a29.71,29.71,0,0,1,7.1-25.2c9.5-11,25.8-10.2,34.4,1.5a30.65,30.65,0,0,1,5.8,16.3c.3,4-1.2,5.6-5.3,5.6H70.9ZM100.3,79c-.2-6.1-1.8-11.4-7.2-14.6a14.06,14.06,0,0,0-15.6.5c-4.9,3.2-6.8,8.2-6.8,14.1Z"/><path class="cls-1" d="M37.3,109.8c-6.9,0-12.7-1.5-17.6-5.5a10.18,10.18,0,0,1-2.6-3.2,3.53,3.53,0,0,1,.7-4.3,3.87,3.87,0,0,1,4.3-.9,23,23,0,0,1,4,2.3c5.3,3.8,10.9,5.1,17.1,2.5,2.3-1,4.1-2.5,4.4-5.2a6.2,6.2,0,0,0-3.2-6.2A67.68,67.68,0,0,0,37.8,86c-3.3-1.5-6.8-2.8-10.1-4.3C17.2,76.9,16.1,65,25.5,58.3c5.6-4,11.8-4.3,18.2-2.6a25,25,0,0,1,7,2.8,13.36,13.36,0,0,1,4.1,4.1c1.1,1.5.5,3.2-.7,4.4a3.23,3.23,0,0,1-4.2.7c-2.4-1.3-4.8-2.7-7.2-4-4-2.2-8-1.6-11.7.4s-4.2,6.5-.6,9.3a43.11,43.11,0,0,0,8.5,4.5c3.1,1.4,6.5,2.4,9.6,3.9,11.7,5.5,9.9,18.7,1.7,24.4A21.89,21.89,0,0,1,37.3,109.8Z"/><path class="cls-1" d="M183,63.7c1.8-2,3-3.9,4.7-5.2a21.74,21.74,0,0,1,6.7-3.6,4.69,4.69,0,0,1,5.8,3.3c.6,2.4-.5,4.2-3.2,5.4a9.18,9.18,0,0,1-2.8.9c-7.4,1.4-11,7.4-11.1,14.4v26.2c0,3.2-2,5-4.9,4.6a4.25,4.25,0,0,1-3.7-3.3,8.58,8.58,0,0,1-.2-2.3V60.3a10.68,10.68,0,0,1,.3-2.5,4.37,4.37,0,0,1,8.5.6C183.1,60,183,61.7,183,63.7Z"/></svg>