<?xml version="1.0" encoding="utf-8"?>
<!-- Generator: Adobe Illustrator 23.0.6, SVG Export Plug-In . SVG Version: 6.00 Build 0)  -->
<svg version="1.1" id="Camada_1" xmlns="http://www.w3.org/2000/svg" xmlns:xlink="http://www.w3.org/1999/xlink" x="0px" y="0px"
	 viewBox="0 0 300 120" style="enable-background:new 0 0 300 120;" xml:space="preserve">
<title>shoutcast</title>
<path d="M0,59.3l40-40.2l0.6,0.2V53c0,1.8,0,3.6,0,5.4c0,1.5,1,1.4,2,1.4c5.4,0,10.9,0,16.3,0c1.6-0.1,3.3,0.1,4.9,0.4l-40.7,40.6
	C23,99.4,23,98.3,23,97.2c0.1-11.7,0.1-23.4,0.3-35.1c0-1.8-0.5-2.3-2.3-2.3c-6.3,0.1-12.6,0-18.9,0c-0.6,0-1.2,0-1.8-0.1L0,59.3z"
	/>
<path d="M115.4,84.6c0-5,0-9.6,0-14.2c0-2.1,0.1-4.3-2.3-5.3c-2.5-0.9-5.4-0.2-7.2,1.7c-0.5,0.7-0.8,1.6-0.8,2.5
	c-0.1,4.3,0,8.7,0,13v2.1h-6.4V50.1h6.3v12.6c2.2-2.1,5-3.4,7.9-3.7c5.1-0.6,8.8,2,9,7.1c0.3,5.8,0.1,11.6,0.1,17.4
	c-0.1,0.5-0.5,0.9-1,1.1C119.3,84.7,117.4,84.6,115.4,84.6z"/>
<path d="M140.6,85.3c-7.9-0.1-13.3-5.4-13.3-13.2c0-7.6,5.6-13,13.3-12.9s13.2,5.6,13.1,13.2c0.1,7-5.4,12.8-12.4,12.9
	C141.1,85.3,140.8,85.3,140.6,85.3z M140.5,64.8c-3.8,0-6.3,3-6.3,7.4s2.6,7.3,6.5,7.3c3.6,0,6.4-3.2,6.4-7.2
	C147.1,68,144.3,64.8,140.5,64.8L140.5,64.8z"/>
<path d="M254.7,84.4h-6.3l-0.1-1.7c-1.9,0.9-3.8,1.7-5.9,2.3c-6.6,1.4-12-3.9-10.5-10.1c0.8-3.2,3.5-5.6,6.8-5.9
	c3.7-0.4,5.6,0.1,9.6,2.6c-0.1-2.1,0.6-4.2-1.1-5.8c-2-1.9-4.6-1.9-7-1.3c-1.7,0.6-3.3,1.3-4.9,2.2l-2.2-3.7
	c4.2-4.4,13.2-5.4,18.1-2.2c2.2,1.4,3.5,3.7,3.5,6.3C254.8,72.7,254.7,78.5,254.7,84.4z M243.2,81.1c1.3-0.4,2.6-0.8,3.9-1.4
	c1.7-0.9,1.8-4,0.3-5.2c-1.8-1.4-5.4-1.9-7.2-0.6c-1,0.7-1.6,1.8-1.9,3C237.9,79.3,239.9,80.7,243.2,81.1L243.2,81.1z"/>
<path d="M182.1,84.6c-1.9,0-3.6,0.1-5.4,0c-0.3,0-0.8-0.6-0.9-1c-0.1-0.6-0.2-1.3-0.2-1.9c-2.5,2.5-6,3.8-9.5,3.6
	c-4.6-0.2-7.2-2.8-7.3-7.4c-0.1-5.5,0-11.1,0-16.6c0-1.2,0.3-1.7,1.5-1.6c1.6,0.1,3.1,0,4.9,0c0.1,0.8,0.1,1.4,0.1,2.1
	c0,4.4,0,8.8,0,13.2c0,3.3,1.8,4.9,5.1,4.6c3.6-0.3,5.3-2.1,5.3-5.7c0-4.1,0-8.3,0-12.4c0-1.3,0.4-1.8,1.7-1.7c1.5,0.1,3,0,4.7,0
	L182.1,84.6z"/>
<path d="M259.4,81.4c1-1.6,1.8-2.9,2.5-3.9c2.9,1,5.5,2,8.1,2.7c1.1,0.2,2.3,0.1,3.4-0.3c0.9-0.4,1.5-1.1,1.7-2.1
	c-0.2-0.9-0.8-1.6-1.7-2c-1.8-0.6-3.6-0.9-5.5-1.4c-1.2-0.3-2.5-0.7-3.6-1.3c-5.1-2.6-5.4-9-0.7-12.2c4.2-2.8,12.4-2.4,16.2,0.9
	c0.3,0.3,0.4,0.8,0.3,1.3c-0.6,1.2-1.3,2.3-2,3.5c-2.1-1.7-4.7-2.7-7.4-2.7c-0.6-0.1-1.2,0-1.8,0.3c-0.8,0.6-2,1.3-2.1,2.1
	c-0.3,1.3,1.1,1.7,2.1,2c2.5,0.7,5,1.1,7.4,2c3.5,1.3,5.2,3.6,5.1,6.8c0.1,3.2-1.9,6-4.9,7c-5.2,2-11.1,1.5-15.8-1.5
	C260.3,82.2,259.8,81.8,259.4,81.4z"/>
<path d="M71.5,81.2l2.4-3.8c2.5,1,5.1,1.9,7.7,2.7c1.4,0.2,2.9,0,4.2-0.5c0.7-0.4,1.2-1.2,1.2-2c-0.1-0.7-0.6-1.4-1.3-1.7
	c-2.1-0.7-4.3-1.1-6.5-1.7c-1-0.3-2-0.6-2.9-1c-2.3-0.9-3.8-3-4-5.5c-0.3-2.7,1-5.4,3.4-6.8c4.7-3,12.3-2.3,16.8,1.7l-2.2,3.8
	c-1.9-0.8-3.7-1.6-5.5-2.2c-1.1-0.4-2.3-0.4-3.4-0.1c-1.1,0.3-2,1.1-2.6,2.1c-0.4,1.4,1.1,1.8,2.2,2.1c2.6,0.7,5.2,1.2,7.7,2.1
	c3.6,1.4,5,4,4.6,7.8c-0.2,2.4-1.7,4.4-3.9,5.4c-5.7,2.6-11.3,2-16.7-1.2c-0.3-0.2-0.5-0.4-0.7-0.6C71.8,81.6,71.7,81.4,71.5,81.2z"
	/>
<path d="M228.3,63.7l-4,3.8c-1.6-2-4.1-2.9-6.6-2.3c-1.5,0.3-2.8,1.1-3.9,2.1c-2.5,2.7-2.2,8.1,0.4,10.6c2.7,2.6,6.4,2.4,10.1-0.7
	l4,3.6c-2.3,3.9-7.8,5.6-13.2,4.2c-5.6-1.4-9.6-6.4-9.7-12.2c-0.2-6.2,3.1-11.1,8.7-12.9S225.6,59.6,228.3,63.7z"/>
<path d="M299.3,65.4h-5c0,4.2-0.1,8.2,0.1,12.2c0.1,2,1.5,2.4,4.4,1.6c0.5,1.3,0.8,2.6,1.2,3.9c0,0.6-0.3,1.1-0.8,1.3
	c-5.5,3.2-11.4-0.2-11.4-6.5c0-4.1,0-8.2,0-12.4h-4v-5.8h3.9v-6.7h6.5v6.6h5.1V65.4z"/>
<path d="M202.3,65.4h-5.2v5.5c0,1.6,0,3.3,0,4.9c0,3.5,0.9,4.2,4.5,3.3c0.4,1.3,0.8,2.6,1.1,3.9c0,0.6-0.3,1.1-0.8,1.3
	c-2.7,1.3-5.8,1.2-8.5-0.1c-2.1-1.1-2.8-3.1-2.8-5.4c0-3.8,0-7.6,0-11.3v-2.2l-4.1-0.2v-5.6l4.1-0.2v-6.6h6.4v6.7c1.4,0,2.7,0,3.9,0
	c1,0,1.4,0.3,1.4,1.4C202.3,62.4,202.3,63.8,202.3,65.4z"/>
</svg>
