<svg id="Camada_1" data-name="Camada 1" xmlns="http://www.w3.org/2000/svg" viewBox="0 0 300 120"><defs><style>.cls-1{fill:#fff;}</style></defs><title>shoutcast</title><path class="cls-1" d="M0,59.28,40,19.13l.57.21V53c0,1.79,0,3.59,0,5.38,0,1.47,1,1.43,2,1.43q8.14,0,16.28,0a20.36,20.36,0,0,1,4.91.43l-40.67,40.6C23,99.36,23,98.3,23,97.23c.06-11.7.1-23.41.25-35.11,0-1.79-.5-2.28-2.25-2.25-6.28.09-12.57,0-18.85,0-.59,0-1.17,0-1.76-.08Z"/><path class="cls-1" d="M115.41,84.63c0-5,0-9.61,0-14.24,0-2.09.14-4.26-2.29-5.28a6.86,6.86,0,0,0-7.24,1.69,4.09,4.09,0,0,0-.78,2.48c-.07,4.33,0,8.66,0,13v2.08H98.68V50.08H105V62.72A14,14,0,0,1,112.94,59c5.12-.58,8.82,2,9,7.06.27,5.78.11,11.59.06,17.38a1.5,1.5,0,0,1-1,1.1C119.26,84.69,117.45,84.63,115.41,84.63Z"/><path class="cls-1" d="M140.57,85.26c-7.9-.05-13.29-5.42-13.25-13.18,0-7.59,5.58-13,13.34-12.93s13.17,5.62,13.09,13.2A12.67,12.67,0,0,1,140.57,85.26Zm-.12-20.42c-3.78,0-6.32,3-6.32,7.4s2.6,7.28,6.47,7.28c3.6,0,6.4-3.15,6.44-7.24C147.09,68,144.31,64.84,140.45,64.84Z"/><path class="cls-1" d="M254.68,84.39h-6.34l-.15-1.68A38.32,38.32,0,0,1,242.33,85c-6.63,1.39-12-3.92-10.49-10.13A7.77,7.77,0,0,1,238.63,69c3.69-.39,5.61.1,9.58,2.55-.1-2.12.59-4.18-1.06-5.78-2-1.94-4.57-1.94-7-1.29a34.58,34.58,0,0,0-4.87,2.17L233.06,63c4.18-4.36,13.2-5.43,18.07-2.23a7.49,7.49,0,0,1,3.51,6.3C254.77,72.74,254.68,78.47,254.68,84.39Zm-11.49-3.31a25.34,25.34,0,0,0,3.86-1.4c1.67-.92,1.75-4,.26-5.2-1.78-1.44-5.39-1.92-7.23-.6a5,5,0,0,0-1.85,3C237.91,79.29,239.91,80.74,243.19,81.08Z"/><path class="cls-1" d="M182.12,84.64c-1.86,0-3.62.06-5.37,0-.34,0-.77-.6-.93-1a7.86,7.86,0,0,1-.17-1.91,12.48,12.48,0,0,1-9.48,3.56c-4.57-.24-7.24-2.81-7.31-7.42-.09-5.54,0-11.09,0-16.64,0-1.15.3-1.68,1.54-1.62,1.57.09,3.15,0,4.93,0,.05.78.11,1.42.11,2.06,0,4.39,0,8.78,0,13.17,0,3.3,1.82,4.91,5.12,4.61,3.62-.33,5.25-2.1,5.25-5.73,0-4.14,0-8.29,0-12.43,0-1.26.37-1.77,1.67-1.68,1.51.09,3,0,4.69,0Z"/><path class="cls-1" d="M259.38,81.36c1-1.56,1.84-2.94,2.45-3.91,2.88,1,5.46,2,8.12,2.66a5.62,5.62,0,0,0,3.38-.32A2.94,2.94,0,0,0,275,77.73a2.84,2.84,0,0,0-1.67-2c-1.76-.64-3.65-.89-5.47-1.38a19,19,0,0,1-3.61-1.25c-5.08-2.59-5.42-9-.68-12.21,4.18-2.84,12.36-2.41,16.19.91a1.41,1.41,0,0,1,.33,1.3c-.57,1.19-1.32,2.29-2,3.49a11.85,11.85,0,0,0-7.36-2.7,3.38,3.38,0,0,0-1.77.28c-.84.57-2,1.27-2.15,2.11-.31,1.32,1.06,1.71,2.13,2,2.46.66,5,1.1,7.39,2,3.48,1.25,5.17,3.64,5.13,6.78a7.05,7.05,0,0,1-4.91,7,17.49,17.49,0,0,1-15.77-1.54A10.5,10.5,0,0,1,259.38,81.36Z"/><path class="cls-1" d="M71.52,81.2l2.41-3.79a75.52,75.52,0,0,0,7.68,2.65,8.35,8.35,0,0,0,4.24-.51,2.53,2.53,0,0,0,1.22-2,2.31,2.31,0,0,0-1.34-1.68c-2.13-.7-4.34-1.13-6.51-1.73a20.12,20.12,0,0,1-2.91-1,6.3,6.3,0,0,1-4-5.48,6.94,6.94,0,0,1,3.37-6.82c4.71-3,12.26-2.27,16.83,1.69L90.3,66.32c-1.94-.77-3.69-1.62-5.53-2.15a6,6,0,0,0-3.41-.07,4.24,4.24,0,0,0-2.55,2.14C78.38,67.67,79.92,68,81,68.33c2.57.73,5.24,1.18,7.72,2.12,3.6,1.36,5,4,4.58,7.79a6.45,6.45,0,0,1-3.89,5.38c-5.74,2.63-11.34,2-16.71-1.18a3.58,3.58,0,0,1-.69-.6A7.13,7.13,0,0,1,71.52,81.2Z"/><path class="cls-1" d="M228.31,63.66l-4,3.81a6.54,6.54,0,0,0-6.56-2.34,8.08,8.08,0,0,0-3.87,2.13c-2.53,2.69-2.21,8.1.36,10.55,2.74,2.62,6.44,2.39,10.07-.7l4,3.64c-2.3,3.91-7.79,5.62-13.2,4.2a12.82,12.82,0,0,1-9.73-12.21c-.2-6.16,3.14-11.09,8.72-12.91S225.58,59.63,228.31,63.66Z"/><path class="cls-1" d="M299.34,65.36h-5c0,4.15-.15,8.16.06,12.15.11,2,1.55,2.42,4.44,1.63A35.6,35.6,0,0,1,300,83.05a1.69,1.69,0,0,1-.8,1.34c-5.48,3.15-11.37-.23-11.41-6.51,0-4.08,0-8.16,0-12.45h-4V59.68h3.93V52.94h6.54v6.64h5.08Z"/><path class="cls-1" d="M202.3,65.37h-5.23v5.49c0,1.64,0,3.29,0,4.94,0,3.54.9,4.24,4.53,3.34a38.26,38.26,0,0,1,1.12,3.93,1.65,1.65,0,0,1-.82,1.34,9.75,9.75,0,0,1-8.47-.06c-2.09-1.08-2.82-3.1-2.84-5.37,0-3.78,0-7.56,0-11.33V65.48l-4.07-.2V59.7l4.07-.19v-6.6H197v6.7c1.44,0,2.69,0,3.93,0,1,0,1.44.35,1.4,1.38C202.26,62.37,202.3,63.76,202.3,65.37Z"/></svg>