<svg id="Camada_1" data-name="Camada 1" xmlns="http://www.w3.org/2000/svg" viewBox="0 0 300 120"><defs><style>.cls-1{fill:#fff;}</style></defs><title>shutterstock</title><path class="cls-1" d="M184.19,62.55l-2.49-.42c-2.47-.45-4.6-1-4.6-3.52,0-2.14,2.25-3.13,5-3.13a19.31,19.31,0,0,1,8.2,2.09l2.28-6a22.06,22.06,0,0,0-10.41-2.43c-5.35,0-11.87,2.81-11.87,9.78,0,6.25,4.46,8.25,8.76,9l3,.52c2.89.49,4.48,1.57,4.48,3.46,0,2.4-2.26,3.53-5.67,3.53a22.25,22.25,0,0,1-9.61-2l-2.52,5.87c.78.4,4.52,2.51,11.8,2.51,7.07,0,12.75-3.5,12.75-10-.05-6.07-4.13-8.37-9.14-9.23M205.78,38.2l-6.69,3.7v7.84h-3.52v6.4h3.52V70c0,5.92,2.43,11.22,11,11.22h2.68v-6.4h-1c-4.21,0-6-2.43-6-5.74V56.14h7.69v-6.4h-7.69V38.2Zm52.28,17.44c2.61,0,5.29,1.18,6.09,4.06l6.07-2.31c-1.7-6-7.28-8.26-12.21-8.26-8.83,0-12.38,5.48-12.38,10.81V71c0,5.32,3.55,10.81,12.38,10.81,4.93,0,10.51-2.25,12.21-8.26l-6.07-2.31c-.81,2.87-3.48,4.06-6.09,4.06-4.55,0-5.75-2.49-5.75-5.32V61c0-2.83,1.2-5.31,5.75-5.31m28.61,8.23,12.51-14.13H291L280.19,62.05V38.2h-6.7v43h6.7v-10l2.2-2.48L292,81.19h8Z"/><path class="cls-1" d="M232.19,56.6h-7a2,2,0,0,0-2,2v7.55h-6.86V58.61a8.87,8.87,0,0,1,8.86-8.87h7V56.6Zm-5.67,17.73h7a2,2,0,0,0,2-2V64.78h6.86v7.54a8.87,8.87,0,0,1-8.86,8.87h-7ZM113.05,49.74h7.68v6.4h-7.68V69.05c0,3.3,1.77,5.74,6,5.74h1v6.4h-2.68c-8.57,0-11-5.3-11-11.22V56.14H95.1V69.05c0,3.3,1.77,5.74,6,5.74h1v6.4H99.39c-8.56,0-11-5.3-11-11.22V56.14H85v-6.4H88.4V41.9l6.7-3.7V49.74h11.26V41.9l6.69-3.7Zm-72.24-.61a16,16,0,0,0-6.2,1.23V38.2H27.92v43h6.69V56.61a10.19,10.19,0,0,1,5.18-1.34C44,55.27,46,57.6,46,61.05V81.19h6.69v-21c0-6.35-4.6-11-11.85-11M74.73,74.94A9.73,9.73,0,0,1,70.24,76c-5,0-6.87-2.55-6.87-6.06V49.74H56.68V70.08c0,7.91,4.57,11.72,12.74,11.72a31.26,31.26,0,0,0,12-2.62V49.74H74.73v25.2ZM15.41,62.55l-2.49-.42c-2.47-.45-4.6-1-4.6-3.52,0-2.14,2.24-3.13,5-3.13a19.43,19.43,0,0,1,8.21,2.09l2.27-6a22,22,0,0,0-10.41-2.43c-5.34,0-11.86,2.81-11.86,9.78,0,6.25,4.46,8.25,8.76,9l3,.52c2.89.49,4.47,1.57,4.47,3.46,0,2.4-2.25,3.53-5.66,3.53a22.25,22.25,0,0,1-9.61-2L0,79.29c.79.4,4.52,2.51,11.8,2.51,7.07,0,12.75-3.5,12.75-10-.06-6.07-4.14-8.37-9.14-9.23m133-2.61c0-5.76-4.38-10.81-12.27-10.81-8.95,0-12.38,5.59-12.38,10.81V70.38c0,7.23,4.61,11.42,12.38,11.42,6.85,0,10.41-4,11.47-6.34L142,72.06c-.48,1.4-2.72,3.36-5.77,3.36-4.14,0-5.73-2.31-5.73-5.2l0-1.72h18Zm-6.69,3.14H130.42V60.79c0-2.55,1.29-5.29,5.68-5.29s5.61,2.67,5.61,5.17Zm11-3.13V81.19h6.69V60.52c0-1.8,1-4.89,5.94-4.89a26.16,26.16,0,0,1,3.07.32V49.47a16.61,16.61,0,0,0-3.42-.34c-8.5,0-12.28,5.33-12.28,10.82"/></svg>