<?xml version="1.0" encoding="utf-8"?>
<!-- Generator: Adobe Illustrator 23.0.6, SVG Export Plug-In . SVG Version: 6.00 Build 0)  -->
<svg version="1.1" id="Camada_1" xmlns="http://www.w3.org/2000/svg" xmlns:xlink="http://www.w3.org/1999/xlink" x="0px" y="0px"
	 viewBox="0 0 300 120" style="enable-background:new 0 0 300 120;" xml:space="preserve">
<title>shutterstock</title>
<path d="M184.2,62.5l-2.5-0.4c-2.5-0.5-4.6-1-4.6-3.5c0-2.1,2.3-3.1,5-3.1c2.9,0.1,5.7,0.8,8.2,2.1l2.3-6c-3.2-1.7-6.8-2.5-10.4-2.4
	c-5.4,0-11.9,2.8-11.9,9.8c0,6.3,4.5,8.3,8.8,9l3,0.5c2.9,0.5,4.5,1.6,4.5,3.5c0,2.4-2.3,3.5-5.7,3.5c-3.3,0.1-6.6-0.6-9.6-2
	l-2.5,5.9c0.8,0.4,4.5,2.5,11.8,2.5c7.1,0,12.8-3.5,12.8-10C193.2,65.7,189.2,63.4,184.2,62.5 M205.8,38.2l-6.7,3.7v7.8h-3.5v6.4
	h3.5V70c0,5.9,2.4,11.2,11,11.2h2.7v-6.4h-1c-4.2,0-6-2.4-6-5.7V56.1h7.7v-6.4h-7.7L205.8,38.2L205.8,38.2z M258.1,55.6
	c2.6,0,5.3,1.2,6.1,4.1l6.1-2.3c-1.7-6-7.3-8.3-12.2-8.3c-8.8,0-12.4,5.5-12.4,10.8V71c0,5.3,3.6,10.8,12.4,10.8
	c4.9,0,10.5-2.3,12.2-8.3l-6.1-2.3c-0.8,2.9-3.5,4.1-6.1,4.1c-4.6,0-5.8-2.5-5.8-5.3v-9C252.3,58.2,253.5,55.7,258.1,55.6
	 M286.7,63.9l12.5-14.1H291L280.2,62V38.2h-6.7v43h6.7v-10l2.2-2.5l9.6,12.5h8L286.7,63.9z"/>
<path d="M232.2,56.6h-7c-1.1,0-2,0.9-2,2v7.6h-6.9v-7.5c0-4.9,4-8.9,8.9-8.9h7V56.6z M226.5,74.3h7c1.1,0,2-0.9,2-2v-7.6h6.9v7.5
	c0,4.9-4,8.9-8.9,8.9h-7V74.3z M113.1,49.7h7.7v6.4h-7.7v12.9c0,3.3,1.8,5.7,6,5.7h1v6.4h-2.7c-8.6,0-11-5.3-11-11.2V56.1H95.1v12.9
	c0,3.3,1.8,5.7,6,5.7h1v6.4h-2.7c-8.6,0-11-5.3-11-11.2V56.1H85v-6.4h3.4v-7.8l6.7-3.7v11.5h11.3v-7.8l6.7-3.7V49.7z M40.8,49.1
	c-2.1,0-4.2,0.4-6.2,1.2V38.2h-6.7v43h6.7V56.6c1.6-0.9,3.4-1.4,5.2-1.3c4.2,0,6.2,2.3,6.2,5.8v20.1h6.7v-21
	C52.7,53.8,48.1,49.2,40.8,49.1 M74.7,74.9c-1.4,0.7-2.9,1.1-4.5,1.1c-5,0-6.9-2.6-6.9-6.1V49.7h-6.7v20.3c0,7.9,4.6,11.7,12.7,11.7
	c4.1-0.1,8.2-1,12-2.6V49.7h-6.7V74.9z M15.4,62.5l-2.5-0.4c-2.5-0.5-4.6-1-4.6-3.5c0-2.1,2.2-3.1,5-3.1c2.9,0.1,5.7,0.8,8.2,2.1
	l2.3-6c-3.2-1.7-6.8-2.5-10.4-2.4C8,49.1,1.5,52,1.5,58.9c0,6.3,4.5,8.3,8.8,9l3,0.5c2.9,0.5,4.5,1.6,4.5,3.5c0,2.4-2.3,3.5-5.7,3.5
	c-3.3,0.1-6.6-0.6-9.6-2L0,79.3c0.8,0.4,4.5,2.5,11.8,2.5c7.1,0,12.7-3.5,12.7-10C24.5,65.7,20.4,63.4,15.4,62.5 M148.4,60
	c0-5.8-4.4-10.8-12.3-10.8c-8.9,0-12.4,5.6-12.4,10.8v10.4c0,7.2,4.6,11.4,12.4,11.4c6.9,0,10.4-4,11.5-6.3l-5.6-3.4
	c-0.5,1.4-2.7,3.4-5.8,3.4c-4.1,0-5.7-2.3-5.7-5.2v-1.7h18L148.4,60z M141.7,63.1h-11.3v-2.3c0-2.5,1.3-5.3,5.7-5.3s5.6,2.7,5.6,5.2
	L141.7,63.1z M152.7,60v21.2h6.7V60.5c0-1.8,1-4.9,5.9-4.9c1,0,2.1,0.2,3.1,0.3v-6.5c-1.1-0.2-2.3-0.3-3.4-0.3
	C156.5,49.1,152.7,54.5,152.7,60"/>
</svg>
