<svg id="Camada_1" data-name="Camada 1" xmlns="http://www.w3.org/2000/svg" viewBox="0 0 300 120"><defs><style>.cls-1{fill:#fff;}</style></defs><title>smugmug</title><g id="_ffffffff" data-name="#ffffffff"><path class="cls-1" d="M283.89,28.6c3.8-2.4,10-1.1,11.5,3.3,1.1,2.7-1,5.6-3.5,6.6-2.8,1.1-6.4,1.6-9.2,0C279,36.3,280.29,30.4,283.89,28.6Z"/><path class="cls-1" d="M254.59,29.2c4.1-1.9,11-.3,11.4,5-.7,6-9.2,8-13.5,4.7C249.39,36.1,251.09,30.8,254.59,29.2Z"/><path class="cls-1" d="M2.21,40.1c3-5.1,9.6-6.5,15.1-5.7,3.3.6,6.9,1.3,9.5,3.5-.5,2.2-1.8,4.1-2.8,6.2-3.8-1.9-8.3-4.1-12.6-2.3-3.2,1.2-3.6,6.1-.8,7.9,4.1,3,9.5,4.2,13.1,7.9,5.8,5.6,4.5,16.8-2.7,20.6-5,2.8-11,2-16.2.5A17.67,17.67,0,0,1,0,76.4c.8-2,1.5-4.1,2.2-6.1,4,1.6,8.4,3.5,12.8,2.7,4.6-.7,5.4-7.6,1.9-10.1-4.5-3.4-10.8-4.2-14.5-8.8C-.39,50.1-.09,44.3,2.21,40.1Z"/><path class="cls-1" d="M132,78.4c.9-14.3,1-28.7,2-43h8.4c2.5,8.3,5.7,16.5,7.6,25,1.6-8.6,5.3-16.6,7.8-25,2.8-.1,5.6,0,8.3-.1,1.3,7.6.6,15.3,1.3,23,.2,6.9,1,13.8.8,20.7-2.6.1-5.3,0-7.9.1-.9-11.1-.5-22.4-1.2-33.5-1.1,8.1-3.8,15.8-6.4,23.5a10.57,10.57,0,0,1-6.1.1,207.68,207.68,0,0,1-6.5-23.4c-.2,8.9-.3,17.7-.5,26.6a30.74,30.74,0,0,1-.6,6.8C136.8,78.6,133.7,80,132,78.4Z"/><path class="cls-1" d="M202.8,50.2a11.14,11.14,0,0,1,15.89-.9,14.8,14.8,0,0,1,2.1-3,52.61,52.61,0,0,1,6.6,2.5c-.8,2.3-1.8,4.6-1.9,7-.1,8,0,16.1.3,24.1.2,3.6-.4,7.6-3.3,10.1-3.8,3.2-9.1,2.9-13.7,2.3-3-.7-6.29-.9-8.69-3,.8-1.9,1.3-4,1.9-5.9,4.4,1.5,9.19,3.7,13.79,2.2,3.4-1.7,2-6.2,2.1-9.2-3.8,2.7-9.2,3.5-13.29.9-3.8-2.5-5-7.3-5.3-11.5-.5-5.5,0-11.4,3.5-15.6m8.29,3.2c-3.39,1.3-3.79,5.4-3.89,8.5.1,3.2-.2,7.1,2.29,9.5,2.4,1.8,6.3.8,8.1-1.4.1-4.9.1-9.9,0-14.8A6.09,6.09,0,0,0,211.09,53.4Z"/><path class="cls-1" d="M28.61,48.7c2.2-1.1,4.6-1.7,6.9-2.6,1.2,1.3,1.5,3.1,1.9,4.8a14.76,14.76,0,0,1,8.5-4.5,7.59,7.59,0,0,1,8,4.4c3.1-3.2,7.7-5.2,12.1-4.1a6.33,6.33,0,0,1,4.6,5.2c.7,4,.3,8.2.4,12.2-.1,5,.2,10-.2,15-2.6-.1-5.3-.1-7.9-.1-.3-8.2.4-16.5-.4-24.7-2.4-2.6-5.8-.3-8,1.4-.1,7.8.2,15.6-.2,23.4-2.6-.2-5.2.1-7.8-.2-.4-7.7.2-15.5-.3-23.2a3,3,0,0,0-2.1-2.7c-2.3-.1-4.4,1.3-6.1,2.7V79c-2.7.1-5.3.1-8,0-.3-8.2,0-16.5-.2-24.7A13.76,13.76,0,0,0,28.61,48.7Z"/><path class="cls-1" d="M74.31,47.8c2.5-.6,5-.9,7.5-1.5.1,7.4,0,14.9.1,22.3-.1,1.9.7,4.4,2.9,4.7s4.4-.8,6.3-1.9c.1-7.8-.2-15.6.1-23.4,2.49-1.1,5.29-1,7.89-1.9.1,8.2,0,16.4.1,24.6a28.67,28.67,0,0,0,1.3,7.1c-2.3.9-4.6,1.6-6.9,2.4a12.5,12.5,0,0,1-1.79-4.1c-3.6,3.6-9.7,5.1-14.3,2.7-3-1.8-3.8-5.6-3.7-8.8.1-7.2-.1-14.4.1-21.6A5.92,5.92,0,0,0,74.31,47.8Z"/><path class="cls-1" d="M105.6,50.4c3.7-4.9,11.8-5.5,16.1-1a30.24,30.24,0,0,1,2.1-3.3c2.2.9,4.5,1.7,6.7,2.7a17,17,0,0,0-1.9,7c-.2,8,0,16,.3,24.1.2,3.9-.8,8.3-4.1,10.6-3.5,2.4-8,2.3-12,1.9-3.3-.6-6.6-1.2-9.6-2.8a47.07,47.07,0,0,1,1.9-6.4c4.1,1.8,8.8,3.6,13.3,2.5,3.9-1.4,2.4-6.3,2.6-9.4-3.9,2.6-9.5,3.5-13.6.7-4.2-3.1-5.1-8.7-5.3-13.6-.1-4.5.6-9.3,3.5-13m8.7,2.9c-2.7.8-3.6,3.8-4,6.3-.5,3.6-.4,7.5,1.3,10.7,2,3.2,6.9,2.3,9.1-.2.2-5,.3-10,0-15A6.89,6.89,0,0,0,114.3,53.3Z"/><path class="cls-1" d="M171,48.3c2.2-1.5,5.4-1,7.9-2.1.6,8.2-.2,16.5.4,24.7,1.2,4,6.6,2.6,8.9.4.1-7.4-.1-14.9.1-22.3.1-.2.2-.7.3-1,2.4-.9,5.1-.9,7.6-1.7.4,5.7.1,11.4.2,17.1.1,4.8-.4,9.9,1.4,14.5-2.3,1-4.7,2.1-7.2,2.2a16.13,16.13,0,0,1-1.5-3.6c-3.8,3.2-9.5,5-14.2,2.7-2.9-1.6-4-5.1-3.9-8.2C170.9,63.4,170.8,55.8,171,48.3Z"/><path class="cls-1" d="M285.09,52.9c3.9-.2,7.9-1.2,11.7,0,3.4,1.6,3.6,5.7,2.9,8.9-1.8,6.7-6,12.5-10.7,17.5C283.59,85,277,90,269.19,92a19.55,19.55,0,0,1-17.1-4c-5.7-5-8.4-12.7-8.9-20.1-.1-4.1.3-8.6,3-11.8,1.8-2.1,4.8-1.5,7.3-1.6,10.5-.5,21.1-.2,31.6-1.6m-8.3,6.8c-8.5.8-17,1-25.4,1.4-1.6-.1-2,1.8-2.5,3-1.7,7,.5,15.6,7,19.5,5.9,3.5,13.6,2.9,19.4-.6a40.23,40.23,0,0,0,16.1-17.8c.6-1.7,1.4-4.3-.3-5.7A85.23,85.23,0,0,0,276.79,59.7Z"/></g></svg>