<?xml version="1.0" encoding="utf-8"?>
<!-- Generator: Adobe Illustrator 23.0.6, SVG Export Plug-In . SVG Version: 6.00 Build 0)  -->
<svg version="1.1" id="Camada_1" xmlns="http://www.w3.org/2000/svg" xmlns:xlink="http://www.w3.org/1999/xlink" x="0px" y="0px"
	 viewBox="0 0 300 120" style="enable-background:new 0 0 300 120;" xml:space="preserve">
<title>smugmug</title>
<g id="_ffffffff">
	<path d="M283.9,28.6c3.8-2.4,10-1.1,11.5,3.3c1.1,2.7-1,5.6-3.5,6.6c-2.8,1.1-6.4,1.6-9.2,0C279,36.3,280.3,30.4,283.9,28.6z"/>
	<path d="M254.6,29.2c4.1-1.9,11-0.3,11.4,5c-0.7,6-9.2,8-13.5,4.7C249.4,36.1,251.1,30.8,254.6,29.2z"/>
	<path d="M2.2,40.1c3-5.1,9.6-6.5,15.1-5.7c3.3,0.6,6.9,1.3,9.5,3.5C26.3,40.1,25,42,24,44.1c-3.8-1.9-8.3-4.1-12.6-2.3
		c-3.2,1.2-3.6,6.1-0.8,7.9c4.1,3,9.5,4.2,13.1,7.9c5.8,5.6,4.5,16.8-2.7,20.6c-5,2.8-11,2-16.2,0.5c-1.7-0.5-3.3-1.3-4.8-2.3
		c0.8-2,1.5-4.1,2.2-6.1c4,1.6,8.4,3.5,12.8,2.7c4.6-0.7,5.4-7.6,1.9-10.1c-4.5-3.4-10.8-4.2-14.5-8.8C-0.4,50.1-0.1,44.3,2.2,40.1z
		"/>
	<path d="M132,78.4c0.9-14.3,1-28.7,2-43h8.4c2.5,8.3,5.7,16.5,7.6,25c1.6-8.6,5.3-16.6,7.8-25c2.8-0.1,5.6,0,8.3-0.1
		c1.3,7.6,0.6,15.3,1.3,23c0.2,6.9,1,13.8,0.8,20.7c-2.6,0.1-5.3,0-7.9,0.1c-0.9-11.1-0.5-22.4-1.2-33.5c-1.1,8.1-3.8,15.8-6.4,23.5
		c-2,0.6-4.1,0.7-6.1,0.1c-2.6-7.7-4.8-15.5-6.5-23.4c-0.2,8.9-0.3,17.7-0.5,26.6c0.1,2.3-0.1,4.6-0.6,6.8
		C136.8,78.6,133.7,80,132,78.4z"/>
	<path d="M202.8,50.2c4.1-4.6,11.1-5.1,15.7-1.1c0.1,0.1,0.1,0.1,0.2,0.2c0.6-1.1,1.3-2.1,2.1-3c2.3,0.7,4.5,1.5,6.6,2.5
		c-0.8,2.3-1.8,4.6-1.9,7c-0.1,8,0,16.1,0.3,24.1c0.2,3.6-0.4,7.6-3.3,10.1c-3.8,3.2-9.1,2.9-13.7,2.3c-3-0.7-6.3-0.9-8.7-3
		c0.8-1.9,1.3-4,1.9-5.9c4.4,1.5,9.2,3.7,13.8,2.2c3.4-1.7,2-6.2,2.1-9.2c-3.8,2.7-9.2,3.5-13.3,0.9c-3.8-2.5-5-7.3-5.3-11.5
		C198.8,60.3,199.3,54.4,202.8,50.2 M211.1,53.4c-3.4,1.3-3.8,5.4-3.9,8.5c0.1,3.2-0.2,7.1,2.3,9.5c2.4,1.8,6.3,0.8,8.1-1.4
		c0.1-4.9,0.1-9.9,0-14.8C216,53.3,213.4,52.6,211.1,53.4L211.1,53.4z"/>
	<path d="M28.6,48.7c2.2-1.1,4.6-1.7,6.9-2.6c1.2,1.3,1.5,3.1,1.9,4.8c2.3-2.4,5.2-4,8.5-4.5c3.3-0.5,6.6,1.3,8,4.4
		c3.1-3.2,7.7-5.2,12.1-4.1c2.4,0.7,4.2,2.7,4.6,5.2c0.7,4,0.3,8.2,0.4,12.2c-0.1,5,0.2,10-0.2,15C68.2,79,65.5,79,62.9,79
		c-0.3-8.2,0.4-16.5-0.4-24.7c-2.4-2.6-5.8-0.3-8,1.4c-0.1,7.8,0.2,15.6-0.2,23.4c-2.6-0.2-5.2,0.1-7.8-0.2
		c-0.4-7.7,0.2-15.5-0.3-23.2c-0.1-1.2-0.9-2.3-2.1-2.7c-2.3-0.1-4.4,1.3-6.1,2.7V79c-2.7,0.1-5.3,0.1-8,0c-0.3-8.2,0-16.5-0.2-24.7
		C29.8,52.4,29.4,50.5,28.6,48.7z"/>
	<path d="M74.3,47.8c2.5-0.6,5-0.9,7.5-1.5c0.1,7.4,0,14.9,0.1,22.3c-0.1,1.9,0.7,4.4,2.9,4.7s4.4-0.8,6.3-1.9
		c0.1-7.8-0.2-15.6,0.1-23.4c2.5-1.1,5.3-1,7.9-1.9c0.1,8.2,0,16.4,0.1,24.6c0.1,2.4,0.6,4.8,1.3,7.1c-2.3,0.9-4.6,1.6-6.9,2.4
		c-0.8-1.2-1.4-2.6-1.8-4.1c-3.6,3.6-9.7,5.1-14.3,2.7c-3-1.8-3.8-5.6-3.7-8.8c0.1-7.2-0.1-14.4,0.1-21.6
		C74.1,48.2,74.2,48,74.3,47.8z"/>
	<path d="M105.6,50.4c3.7-4.9,11.8-5.5,16.1-1c0.6-1.1,1.3-2.2,2.1-3.3c2.2,0.9,4.5,1.7,6.7,2.7c-1.1,2.2-1.8,4.6-1.9,7
		c-0.2,8,0,16,0.3,24.1c0.2,3.9-0.8,8.3-4.1,10.6c-3.5,2.4-8,2.3-12,1.9c-3.3-0.6-6.6-1.2-9.6-2.8c0.5-2.2,1.1-4.3,1.9-6.4
		c4.1,1.8,8.8,3.6,13.3,2.5c3.9-1.4,2.4-6.3,2.6-9.4c-3.9,2.6-9.5,3.5-13.6,0.7c-4.2-3.1-5.1-8.7-5.3-13.6
		C102,58.9,102.7,54.1,105.6,50.4 M114.3,53.3c-2.7,0.8-3.6,3.8-4,6.3c-0.5,3.6-0.4,7.5,1.3,10.7c2,3.2,6.9,2.3,9.1-0.2
		c0.2-5,0.3-10,0-15C119,53.4,116.6,52.8,114.3,53.3z"/>
	<path d="M171,48.3c2.2-1.5,5.4-1,7.9-2.1c0.6,8.2-0.2,16.5,0.4,24.7c1.2,4,6.6,2.6,8.9,0.4c0.1-7.4-0.1-14.9,0.1-22.3
		c0.1-0.2,0.2-0.7,0.3-1c2.4-0.9,5.1-0.9,7.6-1.7c0.4,5.7,0.1,11.4,0.2,17.1c0.1,4.8-0.4,9.9,1.4,14.5c-2.3,1-4.7,2.1-7.2,2.2
		c-0.6-1.1-1.1-2.3-1.5-3.6c-3.8,3.2-9.5,5-14.2,2.7c-2.9-1.6-4-5.1-3.9-8.2C170.9,63.4,170.8,55.8,171,48.3z"/>
	<path d="M285.1,52.9c3.9-0.2,7.9-1.2,11.7,0c3.4,1.6,3.6,5.7,2.9,8.9c-1.8,6.7-6,12.5-10.7,17.5C283.6,85,277,90,269.2,92
		c-6,1.4-12.4,0-17.1-4c-5.7-5-8.4-12.7-8.9-20.1c-0.1-4.1,0.3-8.6,3-11.8c1.8-2.1,4.8-1.5,7.3-1.6C264,54,274.6,54.3,285.1,52.9
		 M276.8,59.7c-8.5,0.8-17,1-25.4,1.4c-1.6-0.1-2,1.8-2.5,3c-1.7,7,0.5,15.6,7,19.5c5.9,3.5,13.6,2.9,19.4-0.6
		c7.1-4.2,12.7-10.4,16.1-17.8c0.6-1.7,1.4-4.3-0.3-5.7C286.3,59.2,281.5,59.2,276.8,59.7z"/>
</g>
</svg>
