<?xml version="1.0" encoding="utf-8"?>
<!-- Generator: Adobe Illustrator 23.1.0, SVG Export Plug-In . SVG Version: 6.00 Build 0)  -->
<svg version="1.1" id="Camada_1" xmlns="http://www.w3.org/2000/svg" xmlns:xlink="http://www.w3.org/1999/xlink" x="0px" y="0px"
	 viewBox="0 0 300 120" style="enable-background:new 0 0 300 120;" xml:space="preserve">
<style type="text/css">
	.st0{fill-rule:evenodd;clip-rule:evenodd;}
</style>
<title>snapchat</title>
<path class="st0" d="M207.7,87.9c-16.1-2.6-23.3-19.1-23.6-19.8c0,0,0-0.1,0-0.1c-0.8-1.2-1-2.7-0.5-4.1c0.9-2.1,4.2-3.1,6.5-3.8
	c0.6-0.2,1.2-0.4,1.7-0.6c1.8-0.6,3.4-1.6,4.7-2.9c0.9-0.9,1.4-2,1.5-3.3c-0.1-1.9-1.5-3.6-3.8-4.5c-0.8-0.4-1.7-0.5-2.6-0.5
	c-0.8,0-1.7,0.2-2.4,0.5c-1.6,0.8-3.3,1.3-5.1,1.5c-0.6,0-1.1-0.2-1.7-0.4c0-0.7,0.1-1.5,0.2-2.3v-0.3C183,39.1,183.6,29,181,23
	c-3.1-7.3-8.9-13.1-16.1-16.3c-4.3-2-9-3-13.8-3l0,0h-0.2c-0.7,0-2,0-2.1,0c-4.7,0-9.4,1-13.8,2.9c-3.2,1.4-6.2,3.4-8.7,5.8
	c-3.1,3-5.6,6.6-7.3,10.5c-2.7,6-2.1,16.1-1.5,24.3c0,0.9,0.1,1.7,0.2,2.7c-0.6,0.3-1.3,0.4-2,0.4c-1.9-0.1-3.7-0.6-5.4-1.4
	c-0.6-0.3-1.3-0.4-2-0.4c-1.3,0-2.5,0.4-3.6,1c-1.3,0.7-2.2,1.8-2.6,3.2c-0.3,1.6,0.4,3.3,1.7,4.2c1.3,1.1,2.9,2,4.5,2.6l1.8,0.6
	c2.2,0.7,5.6,1.7,6.5,3.8c0.4,1.4,0.2,2.9-0.6,4.1c0,0,0,0.1,0,0.1c-1.6,3.4-3.6,6.6-6,9.4c-2.1,2.5-4.6,4.6-7.3,6.4
	c-3.1,2-6.6,3.4-10.2,4C91,88.1,90,89.4,90,90.8c0,0.4,0.1,0.8,0.3,1.2c0.6,1.3,1.9,2.5,4.1,3.5c3.8,1.5,7.7,2.5,11.7,3
	c0.3,0.8,0.5,1.7,0.7,2.6c0.2,0.9,0.4,1.8,0.7,2.8c0.3,1.5,1.7,2.5,3.2,2.3c0.9,0,1.9-0.2,2.8-0.4c2.1-0.4,4.2-0.7,6.3-0.7
	c1.5,0,3,0.1,4.5,0.4c3,0.5,5.5,2.3,8.4,4.4c4.3,3,9.1,6.4,16.6,6.4c0.2,0,0.4,0,0.6,0c0.3,0,0.5,0,0.9,0c7.4,0,12.3-3.4,16.6-6.4
	c2.9-2.1,5.5-3.8,8.4-4.4c1.5-0.3,3-0.4,4.5-0.4c2.1,0,4.2,0.2,6.3,0.7c0.9,0.2,1.8,0.3,2.8,0.3h0.1c1.4,0.1,2.7-0.9,3.1-2.3
	c0.3-0.9,0.5-1.8,0.7-2.8c0.2-0.9,0.4-1.7,0.7-2.6c4-0.5,7.9-1.6,11.7-3.1c1.7-0.6,3.2-1.9,4.1-3.5c0.2-0.4,0.3-0.8,0.3-1.2
	C210.1,89.4,209.1,88.1,207.7,87.9z"/>
</svg>
