<svg xmlns="http://www.w3.org/2000/svg" viewBox="0 0 300 120"><defs><style>.a{fill:#fff;}</style></defs><title>Snapchat_logo</title><path class="a" d="M187.47,5H112.53A17.53,17.53,0,0,0,95,22.53V97.47A17.53,17.53,0,0,0,112.53,115h74.94A17.53,17.53,0,0,0,205,97.47V22.53A17.53,17.53,0,0,0,187.47,5Zm3.38,76.93c-.84,1.95-4.38,3.39-10.82,4.39a7.79,7.79,0,0,0-.58,1.94c-.14.63-.27,1.25-.47,1.91a1.85,1.85,0,0,1-1.9,1.43H177a9.71,9.71,0,0,1-1.85-.24,22.08,22.08,0,0,0-4.39-.46,20,20,0,0,0-3.14.26c-2.08.35-3.85,1.6-5.9,3-2.93,2.07-6.25,4.42-11.3,4.42l-.6,0-.41,0c-5,0-8.37-2.35-11.3-4.42-2.05-1.45-3.81-2.7-5.89-3a20.17,20.17,0,0,0-3.15-.26,21.8,21.8,0,0,0-4.39.5,10.32,10.32,0,0,1-1.85.26,1.91,1.91,0,0,1-2-1.45c-.2-.68-.34-1.32-.47-1.93a7.88,7.88,0,0,0-.58-2c-6.44-1-10-2.44-10.83-4.4a2.61,2.61,0,0,1-.18-.77,1.72,1.72,0,0,1,1.43-1.78c11.18-1.84,16.22-13.32,16.43-13.81a.2.2,0,0,1,0-.08,3.67,3.67,0,0,0,.39-3c-.64-1.52-3-2.27-4.6-2.77-.43-.14-.85-.27-1.19-.41-3.81-1.5-4.34-3.23-4.12-4.42.32-1.64,2.32-2.75,4-2.75a3,3,0,0,1,1.31.27,9.18,9.18,0,0,0,3.78,1,3.21,3.21,0,0,0,1.6-.35c0-.66-.08-1.34-.12-2-.35-5.59-.79-12.54,1-16.64,5.42-12.16,16.93-13.11,20.32-13.11h1.63c3.41,0,14.93.94,20.36,13.12,1.83,4.09,1.39,11.05,1,16.64v.24c0,.61-.08,1.19-.11,1.76a3.12,3.12,0,0,0,1.38.34,9.52,9.52,0,0,0,3.55-1,3.69,3.69,0,0,1,1.57-.32,4.62,4.62,0,0,1,1.72.33h0a3.32,3.32,0,0,1,2.51,2.87c0,1.57-1.37,2.92-4.16,4-.34.14-.75.27-1.19.41-1.58.5-4,1.25-4.6,2.77a3.67,3.67,0,0,0,.39,3,.2.2,0,0,1,0,.08c.21.49,5.24,12,16.43,13.81A1.71,1.71,0,0,1,191,81.16,2.35,2.35,0,0,1,190.85,81.93Z"/></svg>