<?xml version="1.0" encoding="utf-8"?>
<!-- Generator: Adobe Illustrator 23.0.6, SVG Export Plug-In . SVG Version: 6.00 Build 0)  -->
<svg version="1.1" id="Layer_1" xmlns="http://www.w3.org/2000/svg" xmlns:xlink="http://www.w3.org/1999/xlink" x="0px" y="0px"
	 viewBox="0 0 300 120" style="enable-background:new 0 0 300 120;" xml:space="preserve">
<title>soundcloud</title>
<path d="M4.1,60.6c-0.1,0-0.2,0.1-0.3,0.2c0,0,0,0,0,0l-0.7,7.5l0.7,7.5c0,0.1,0.1,0.2,0.2,0.2c0,0,0,0,0,0c0.1,0,0.2-0.1,0.2-0.2
	l1-7.5l-1-7.5C4.3,60.6,4.3,60.6,4.1,60.6z"/>
<path d="M1,63.5c-0.1,0-0.2,0.1-0.2,0.2c0,0,0,0,0,0L0,68.3l0.7,4.6c0,0.1,0.1,0.2,0.2,0.2c0,0,0,0,0,0c0.1,0,0.2-0.1,0.2-0.2
	l0.7-4.6l-0.7-4.6C1.2,63.5,1.2,63.5,1,63.5z"/>
<path d="M7.5,59.2c-0.3,0-0.5,0.2-0.5,0.5l-0.7,8.9L7,77.3c0,0.3,0.2,0.5,0.5,0.5S8,77.5,8,77.3l1-8.7l-1-8.9
	C7.7,59.2,7.7,59.2,7.5,59.2z"/>
<path d="M10.9,58.7c-0.3,0-0.5,0.2-0.5,0.5l-0.7,9.2l0.7,8.9c0,0.3,0.2,0.5,0.5,0.5s0.5-0.2,0.5-0.5l1-8.9l-1-9.2
	C11.4,58.9,11.1,58.7,10.9,58.7z"/>
<path d="M14.7,59.9c0-0.3-0.2-0.5-0.5-0.5c-0.3,0-0.5,0.2-0.5,0.5L13,68.6l0.7,8.9c0,0.3,0.2,0.5,0.5,0.5c0.3,0,0.5-0.2,0.5-0.5
	l0.7-8.9L14.7,59.9z"/>
<path d="M17.6,53.8c-0.4,0-0.7,0.3-0.7,0.7l-0.7,14l0.7,8.9c0,0.4,0.2,0.8,0.6,0.8c0.4,0,0.8-0.2,0.8-0.6c0-0.1,0-0.1,0-0.2l0,0
	l0.7-8.9l-0.7-14C18.1,54.1,17.9,53.8,17.6,53.8z"/>
<path d="M21,50.7c-0.4,0-0.7,0.2-0.7,0.5c0,0.1,0,0.1,0,0.2l-0.7,17.1l0.7,8.9c0,0.4,0.2,0.8,0.6,0.8c0.4,0,0.8-0.2,0.8-0.6
	c0-0.1,0-0.1,0-0.2l0,0l0.7-8.9l-0.7-17.1C21.7,51,21.4,50.7,21,50.7z"/>
<path d="M24.4,49c-0.3-0.1-0.7,0.2-0.7,0.5c0,0.1,0,0.1,0,0.2l-0.5,18.6l0.5,8.9c0,0.4,0.2,0.8,0.6,0.8c0.4,0,0.8-0.2,0.8-0.6
	c0-0.1,0-0.1,0-0.2l0,0l0.7-8.9l-0.7-18.6C25.1,49.3,24.8,49,24.4,49z"/>
<path d="M28.7,49.3c0-0.6-0.4-1-1-1c-0.5,0-0.7,0.5-1,1l-0.5,19.3l0.5,8.9c0,0.6,0.4,1,1,1c0.5,0,0.7-0.5,1-1l0.5-8.9L28.7,49.3z"/>
<path d="M31.4,48.8c-0.6,0-1,0.4-1,1L30,68.6l0.5,8.7c-0.1,0.5,0.2,1.1,0.7,1.2c0.5,0.1,1.1-0.2,1.2-0.7c0-0.2,0-0.4,0-0.5l0,0
	l0.5-8.7l-0.5-18.8C32.4,49.2,31.9,48.8,31.4,48.8z"/>
<path d="M35,49.5c-0.6,0-1,0.4-1,1l-0.5,18.1l0.5,8.7c-0.1,0.5,0.2,1.1,0.7,1.2s1.1-0.2,1.2-0.7c0-0.2,0-0.4,0-0.5l0,0l0.5-8.7
	L36,50.5C36,49.9,35.5,49.5,35,49.5z"/>
<path d="M39.1,46.1c-0.2,0-0.4-0.1-0.5-0.2c-0.2,0-0.5,0-0.5,0.2c-0.3,0.2-0.5,0.6-0.5,1v0.2l-0.5,21.2l0.5,8.7l0,0
	c0,0.3,0.1,0.5,0.2,0.7c0.3,0.2,0.5,0.5,0.7,0.5c0.3,0,0.5-0.1,0.7-0.2c0.2-0.2,0.3-0.5,0.2-0.7v-1l0.5-7.7l-0.5-21.5
	C39.6,46.8,39.5,46.4,39.1,46.1z"/>
<path d="M42.8,43.9c-0.2,0-0.4-0.1-0.5-0.2c-0.3,0-0.5,0.1-0.7,0.2c-0.3,0.2-0.5,0.6-0.5,1l0,0l-0.5,23.4l0.2,4.3l0.2,4.1
	c0,0.7,0.5,1.2,1.2,1.2c0.7,0,1.2-0.5,1.2-1.2l0,0l0.5-8.5l0,0l-0.5-23.4C43.2,44.7,43,44.2,42.8,43.9z"/>
<path d="M74.2,57.5c-1.4,0-2.8,0.2-4.1,0.7c-0.8-9.5-8.8-16.8-18.4-16.7c-2.3,0-4.6,0.4-6.8,1.2c-0.6,0.1-1,0.6-1,1.2V77
	c0,0.6,0.4,1.2,1.1,1.2c0,0,0.1,0,0.1,0h28.8c5.7,0,10.3-4.5,10.4-10.2c0,0,0-0.1,0-0.1c0.2-5.5-4.1-10.2-9.6-10.4
	C74.5,57.5,74.3,57.5,74.2,57.5z"/>
<path d="M105.8,58.9c-3.4-0.7-4.1-1.2-4.1-2.4c0-1,0.7-1.9,2.9-1.9c1.8,0,3.6,0.8,4.8,2.2l3.1-2.9c-1.9-2.2-4.8-3.5-7.7-3.4
	c-4.1,0-7.5,2.4-7.5,6c0,4.1,2.7,5.3,6.5,6.3s4.6,1.5,4.6,2.9c0,1.7-1.2,2.2-3.6,2.2c-2,0-4-0.9-5.3-2.4L96.4,68
	c1.9,2.6,5,4.1,8.2,4c5.8,0,8.2-2.7,8.2-6.8C112.8,60.8,109.2,59.6,105.8,58.9z M125.1,50.5c-5.8,0-9.2,4.3-9.2,10.9
	c0,6.3,3.4,10.9,9.2,10.9c5.8,0,9.2-4.3,9.2-10.9S130.9,50.5,125.1,50.5z M125.1,67.8c-3.4,0-4.8-2.9-4.8-6.5s1.4-6.5,4.8-6.5
	c3.4,0,4.8,2.9,4.8,6.5S128.5,67.8,125.1,67.8z M151.2,62.5c0,3.4-1.7,5.3-4.4,5.3s-4.4-2.2-4.4-5.6V50.7h-4.1v11.8
	c0,6,3.4,9.4,8.4,9.4c5.3,0,8.4-3.4,8.4-9.7V50.7h-4.1L151.2,62.5z M173.4,59.6v4.6c-0.2-0.5-1-1.7-1.4-2.4l-7.5-11.1h-4.1v21h4.1
	V58c0.2,0.5,1,1.7,1.4,2.4l7.7,11.4h3.6v-21h-4.1v8.9L173.4,59.6z M189.4,50.7h-6.5v21h6.3c5.3,0,10.6-3.1,10.6-10.4
	C199.8,53.6,195.4,50.7,189.4,50.7L189.4,50.7z M189.1,67.6H187V54.8h2.2c4.4,0,6.3,2.2,6.3,6.3C195.4,65,193.5,67.6,189.1,67.6z
	 M212.8,54.6c1.6-0.2,3.2,0.7,3.9,2.2l3.9-1.7c-1.2-2.7-3.6-4.6-7.7-4.6c-5.6,0-9.2,4.3-9.2,10.9s3.6,10.9,9.2,10.9
	c3.4,0.2,6.5-1.7,7.7-4.8l-3.6-2.2c-1.2,1.9-2.2,2.7-4.1,2.7c-3.1,0-5.1-2.9-5.1-6.5C207.7,57.2,209.7,54.6,212.8,54.6L212.8,54.6z
	 M228.3,50.7h-4.1v21h12.6v-4.1h-8.5L228.3,50.7z M247.8,50.5c-5.8,0-9.2,4.3-9.2,10.9c0,6.3,3.4,10.9,9.2,10.9s9.2-4.4,9.2-10.9
	C256.8,54.8,253.4,50.5,247.8,50.5L247.8,50.5z M247.8,67.9c-3.4,0-4.8-2.9-4.8-6.5s1.4-6.5,4.8-6.5s4.8,2.9,4.8,6.5
	C252.4,65,251.2,67.8,247.8,67.9L247.8,67.9z M273.7,62.6c0,3.4-1.7,5.3-4.4,5.3s-4.3-2.2-4.3-5.6V50.7h-4.1v11.8
	c0,6,3.4,9.4,8.5,9.4c5.3,0,8.5-3.4,8.5-9.7V50.7h-4.1L273.7,62.6z M289.6,50.7h-6.5v21h6.3c5.3,0,10.6-3.1,10.6-10.4
	C300,53.6,295.6,50.7,289.6,50.7z M289.4,67.6h-2.2V54.8h2.2c4.4,0,6.3,2.2,6.3,6.3C295.9,65,293.7,67.6,289.4,67.6z"/>
</svg>
