<svg id="Layer_1" data-name="Layer 1" xmlns="http://www.w3.org/2000/svg" viewBox="0 0 300 120"><defs><style>.cls-1{fill:#fff;}</style></defs><title>soundcloud</title><path class="cls-1" d="M4.11,60.6a.24.24,0,0,0-.25.25l-.72,7.48.72,7.49a.24.24,0,0,0,.25.24.24.24,0,0,0,.24-.24l1-7.49-1-7.48C4.35,60.6,4.35,60.6,4.11,60.6Z"/><path class="cls-1" d="M1,63.5a.24.24,0,0,0-.25.24L0,68.33l.72,4.59a.24.24,0,0,0,.25.24.24.24,0,0,0,.24-.24l.72-4.59-.72-4.59C1.21,63.5,1.21,63.5,1,63.5Z"/><path class="cls-1" d="M7.49,59.15a.53.53,0,0,0-.48.49l-.73,8.93L7,77.27a.48.48,0,0,0,1,0l1-8.7L8,59.64C7.73,59.15,7.73,59.15,7.49,59.15Z"/><path class="cls-1" d="M10.87,58.67a.52.52,0,0,0-.48.48l-.73,9.18.73,8.94a.48.48,0,0,0,1,0l1-8.94-1-9.18A.52.52,0,0,0,10.87,58.67Z"/><path class="cls-1" d="M14.74,59.88a.53.53,0,0,0-.49-.48.52.52,0,0,0-.48.48L13,68.57l.73,8.94a.52.52,0,0,0,.48.48.53.53,0,0,0,.49-.48l.72-8.94Z"/><path class="cls-1" d="M17.63,53.84a.77.77,0,0,0-.72.73l-.73,14,.73,8.94a.73.73,0,1,0,1.45,0h0l.72-8.94-.72-14C18.12,54.08,17.87,53.84,17.63,53.84Z"/><path class="cls-1" d="M21,50.7a.64.64,0,0,0-.72.73l-.72,17.14.72,8.94a.73.73,0,1,0,1.45,0h0l.72-8.94-.72-17.14A.77.77,0,0,0,21,50.7Z"/><path class="cls-1" d="M24.4,49a.64.64,0,0,0-.73.72l-.48,18.6.48,8.94a.73.73,0,1,0,1.45,0h0l.73-8.94-.73-18.6A.77.77,0,0,0,24.4,49Z"/><path class="cls-1" d="M28.74,49.25a1,1,0,0,0-1-1c-.48,0-.73.48-1,1l-.48,19.32.48,8.94a1,1,0,0,0,1,1c.48,0,.72-.48,1-1l.49-8.94Z"/><path class="cls-1" d="M31.4,48.77a1,1,0,0,0-1,1L30,68.57l.49,8.7a1,1,0,1,0,1.93,0h0l.48-8.7-.48-18.84A1,1,0,0,0,31.4,48.77Z"/><path class="cls-1" d="M35,49.49a1,1,0,0,0-1,1l-.48,18.11.48,8.7a1,1,0,1,0,1.93,0h0l.48-8.7L36,50.46A1,1,0,0,0,35,49.49Z"/><path class="cls-1" d="M39.13,46.11a.84.84,0,0,1-.48-.24c-.24,0-.49,0-.49.24a1.25,1.25,0,0,0-.48,1v.24L37.2,68.57l.48,8.7h0a.91.91,0,0,0,.24.73c.25.24.49.48.73.48a.88.88,0,0,0,.72-.24.9.9,0,0,0,.24-.73v-1l.49-7.73-.49-21.5A1.42,1.42,0,0,0,39.13,46.11Z"/><path class="cls-1" d="M42.75,43.94a.84.84,0,0,1-.48-.24.88.88,0,0,0-.72.24,1.22,1.22,0,0,0-.49,1h0l-.48,23.43.24,4.35.24,4.11a1.21,1.21,0,1,0,2.42,0h0L44,68.33h0L43.48,44.9C43.24,44.66,43,44.18,42.75,43.94Z"/><path class="cls-1" d="M74.15,57.46a11.36,11.36,0,0,0-4.1.73A18.23,18.23,0,0,0,51.69,41.52a20.8,20.8,0,0,0-6.76,1.21,1.23,1.23,0,0,0-1,1.21V77a1.14,1.14,0,0,0,1.21,1.21H73.91A10.31,10.31,0,0,0,84.3,67.85,10,10,0,0,0,74.15,57.46Z"/><path class="cls-1" d="M105.8,58.91c-3.38-.72-4.11-1.2-4.11-2.41,0-1,.73-1.93,2.9-1.93a6.43,6.43,0,0,1,4.83,2.17l3.14-2.9a9.7,9.7,0,0,0-7.73-3.38c-4.1,0-7.49,2.41-7.49,6,0,4.1,2.66,5.31,6.53,6.28s4.58,1.45,4.58,2.9c0,1.69-1.2,2.17-3.62,2.17a6.82,6.82,0,0,1-5.31-2.42l-3.14,2.66A9.65,9.65,0,0,0,104.59,72c5.8,0,8.21-2.66,8.21-6.77C112.8,60.85,109.18,59.64,105.8,58.91Zm19.32-8.45c-5.8,0-9.18,4.35-9.18,10.87,0,6.28,3.38,10.87,9.18,10.87s9.18-4.35,9.18-10.87S130.92,50.46,125.12,50.46Zm0,17.39c-3.38,0-4.83-2.9-4.83-6.52s1.45-6.52,4.83-6.52,4.83,2.9,4.83,6.52S128.5,67.85,125.12,67.85Zm26.09-5.31c0,3.38-1.69,5.31-4.35,5.31s-4.35-2.17-4.35-5.56V50.7h-4.1V62.54c0,6,3.38,9.42,8.45,9.42,5.31,0,8.45-3.39,8.45-9.67V50.7h-4.1Zm22.22-2.9v4.59c-.24-.49-1-1.69-1.45-2.42L164.49,50.7h-4.1v21h4.1V58c.24.48,1,1.69,1.45,2.41l7.73,11.35h3.62v-21h-4.1v8.94Zm15.94-8.94h-6.52v21h6.28c5.31,0,10.63-3.14,10.63-10.38C199.76,53.6,195.41,50.7,189.37,50.7Zm-.24,16.91H187V54.81h2.17c4.35,0,6.28,2.17,6.28,6.28C195.41,65,193.48,67.61,189.13,67.61Zm23.67-13a3.88,3.88,0,0,1,3.87,2.17l3.86-1.69c-1.21-2.66-3.62-4.59-7.73-4.59-5.55,0-9.18,4.35-9.18,10.87s3.63,10.87,9.18,10.87a7.75,7.75,0,0,0,7.73-4.83l-3.62-2.18c-1.21,1.94-2.17,2.66-4.11,2.66-3.14,0-5.07-2.9-5.07-6.52C207.73,57.22,209.66,54.57,212.8,54.57Zm15.46-3.87h-4.11v21h12.57v-4.1h-8.46Zm19.57-.24c-5.8,0-9.18,4.35-9.18,10.87,0,6.28,3.38,10.87,9.18,10.87S257,67.85,257,61.33C256.76,54.81,253.38,50.46,247.83,50.46Zm0,17.39c-3.38,0-4.83-2.9-4.83-6.52s1.45-6.52,4.83-6.52,4.83,2.9,4.83,6.52C252.42,65,251.21,67.85,247.83,67.85Zm25.84-5.31c0,3.38-1.69,5.31-4.35,5.31S265,65.68,265,62.29V50.7h-4.11V62.54c0,6,3.38,9.42,8.45,9.42,5.32,0,8.46-3.39,8.46-9.67V50.7h-4.11ZM289.61,50.7h-6.52v21h6.28c5.32,0,10.63-3.14,10.63-10.38C300,53.6,295.65,50.7,289.61,50.7Zm-.24,16.91H287.2V54.81h2.17c4.35,0,6.28,2.17,6.28,6.28C295.89,65,293.72,67.61,289.37,67.61Z"/></svg>