<svg id="Camada_1" data-name="Camada 1" xmlns="http://www.w3.org/2000/svg" viewBox="0 0 300 120"><defs><style>.cls-1{fill:#fff;}</style></defs><title>Spotify_logo_with_text</title><path class="cls-1" d="M46.67,13.33A46.67,46.67,0,1,0,93.35,60,46.67,46.67,0,0,0,46.67,13.33Zm21.4,67.31a2.91,2.91,0,0,1-4,1c-11-6.69-24.75-8.21-41-4.5a2.91,2.91,0,0,1-1.29-5.67c17.78-4.06,33-2.31,45.33,5.21A2.91,2.91,0,0,1,68.08,80.64Zm5.71-12.71a3.64,3.64,0,0,1-5,1.2c-12.55-7.71-31.67-9.94-46.51-5.44a3.64,3.64,0,1,1-2.11-7c17-5.14,38-2.65,52.43,6.2a3.64,3.64,0,0,1,1.2,5Zm.49-13.23c-15-8.93-39.86-9.76-54.22-5.4a4.37,4.37,0,1,1-2.53-8.35c16.49-5,43.89-4,61.21,6.24a4.36,4.36,0,1,1-4.45,7.51ZM127,56.41c-8.06-1.92-9.49-3.27-9.49-6.1,0-2.68,2.52-4.48,6.27-4.48s7.23,1.37,11,4.19a.53.53,0,0,0,.75-.12l3.93-5.55a.53.53,0,0,0-.1-.72,23.81,23.81,0,0,0-15.48-5.36c-8.7,0-14.78,5.22-14.78,12.69,0,8,5.24,10.85,14.31,13,7.71,1.78,9,3.26,9,5.92,0,2.95-2.63,4.78-6.87,4.78-4.7,0-8.54-1.59-12.84-5.3a.55.55,0,0,0-.38-.13.52.52,0,0,0-.36.18l-4.41,5.25a.53.53,0,0,0,.05.74,26.3,26.3,0,0,0,17.77,6.81c9.37,0,15.43-5.12,15.43-13.05,0-6.69-4-10.4-13.81-12.79Zm35-7.95a12.66,12.66,0,0,0-10.15,4.88V49.65a.53.53,0,0,0-.52-.53h-7.22a.53.53,0,0,0-.52.53v41a.53.53,0,0,0,.52.53h7.22a.53.53,0,0,0,.52-.53V77.73A13,13,0,0,0,162,82.32c7.55,0,15.2-5.81,15.2-16.93S169.58,48.47,162,48.47h0Zm6.81,16.93c0,5.66-3.48,9.61-8.48,9.61s-8.66-4.13-8.66-9.61,3.72-9.61,8.66-9.61,8.48,4,8.48,9.61Zm28-16.93a17,17,0,1,0,17.28,16.93A17,17,0,0,0,196.8,48.47Zm0,26.59c-5.17,0-9.07-4.16-9.07-9.67s3.77-9.55,9-9.55,9.13,4.16,9.13,9.67S202,75.06,196.8,75.06Zm38-25.93h-7.94V41a.53.53,0,0,0-.52-.53h-7.22a.53.53,0,0,0-.53.53v8.12h-3.47a.53.53,0,0,0-.52.53v6.2a.53.53,0,0,0,.52.53h3.47v16c0,6.48,3.23,9.77,9.6,9.77A13.15,13.15,0,0,0,235,80.52a.52.52,0,0,0,.27-.46V74.16a.53.53,0,0,0-.25-.45.51.51,0,0,0-.51,0,9.11,9.11,0,0,1-4.24,1c-2.31,0-3.35-1.05-3.35-3.41V56.39h7.94a.53.53,0,0,0,.52-.53v-6.2a.51.51,0,0,0-.52-.53h0Zm27.67,0v-1c0-2.93,1.13-4.24,3.64-4.24a12.19,12.19,0,0,1,4.07.75.53.53,0,0,0,.69-.5V38.09a.52.52,0,0,0-.37-.51,19.77,19.77,0,0,0-6-.86c-6.66,0-10.19,3.75-10.19,10.85v1.53H250.9a.53.53,0,0,0-.53.53v6.23a.53.53,0,0,0,.53.53h3.47V81.13a.53.53,0,0,0,.53.53h7.21a.53.53,0,0,0,.53-.53V56.39h6.74L279.7,81.13c-1.17,2.6-2.32,3.12-3.9,3.12a8.28,8.28,0,0,1-4-1.13.57.57,0,0,0-.42,0,.53.53,0,0,0-.31.28l-2.45,5.37a.53.53,0,0,0,.23.69,15.19,15.19,0,0,0,7.7,2c5.33,0,8.28-2.49,10.87-9.16L300,49.88a.53.53,0,0,0-.48-.72H292a.53.53,0,0,0-.5.35l-7.7,22-8.43-22a.53.53,0,0,0-.49-.34H262.52Zm-16,0h-7.22a.53.53,0,0,0-.53.53V81.13a.53.53,0,0,0,.53.53h7.22a.53.53,0,0,0,.53-.53V49.66a.53.53,0,0,0-.53-.53Zm-3.57-14.33A5.17,5.17,0,1,0,248.08,40,5.17,5.17,0,0,0,242.91,34.79Z"/></svg>