<svg xmlns="http://www.w3.org/2000/svg" viewBox="0 0 300 120"><defs><style>.a{fill:#fff;}</style></defs><title>se-logo</title><path class="a" d="M45.52,66.25c-3.4,0-5.37.68-7.27,2.92l2.65,2.51c1.08-1.42,2.17-2,4.41-2,3.13,0,4.42,1.3,4.42,3.81V75h-5.3c-4.55,0-6.93,2.37-6.93,5.77a6.32,6.32,0,0,0,1.56,4.35A7.31,7.31,0,0,0,44.5,86.9a6.53,6.53,0,0,0,5.36-2V86.7l3.94-.07V73.18C53.8,68.63,51,66.25,45.52,66.25ZM49.8,79.36a4,4,0,0,1-.89,3,4.92,4.92,0,0,1-3.8,1.16c-2.51,0-3.67-1-3.67-2.86s1.22-2.92,3.6-2.92H49.8Z"/><path class="a" d="M68,69.92a4.8,4.8,0,0,1,3.88,1.9l2.78-2.72A8.31,8.31,0,0,0,68,66.25c-4.48,0-9,2.79-9,10.33S63.45,86.9,68,86.9a8.28,8.28,0,0,0,6.66-2.85L71.88,81.4A4.88,4.88,0,0,1,68,83.3a4.51,4.51,0,0,1-3.73-1.76C63.38,80.38,63,79,63,76.58s.34-3.81,1.23-4.9A4.51,4.51,0,0,1,68,69.92Z"/><polygon class="a" points="96.2 66.52 91.24 66.52 83.42 75.83 83.42 58.37 79.35 58.37 79.35 86.7 83.42 86.7 83.42 80.79 86.41 77.39 92.05 86.7 97.08 86.63 89.2 74.4 96.2 66.52"/><path class="a" d="M17.93,72.77c-1.22-1.09-2.64-1.7-5.29-2.1l-3.2-.48A6.85,6.85,0,0,1,6.25,68.9a3.48,3.48,0,0,1-1.09-2.65c0-2.51,1.84-4.42,5.17-4.42A8.28,8.28,0,0,1,16.51,64l2.72-2.72c-2.38-2.24-5-3.19-8.77-3.19C4.62,58.1,1,61.43,1,66.39a7.16,7.16,0,0,0,2,5.43,9.71,9.71,0,0,0,5.36,2.24l3.33.48a5.18,5.18,0,0,1,3.13,1.22A3.78,3.78,0,0,1,16,78.68C16,81.47,13.79,83,10.12,83a9.47,9.47,0,0,1-7.27-2.72L0,83.17c2.72,2.71,5.77,3.73,10.05,3.73,5.91,0,10.19-3.12,10.19-8.35A7.36,7.36,0,0,0,17.93,72.77Z"/><path class="a" d="M30.1,80.86V70H34V66.86H30.1V60.75H26v6.11H23.71V70H26V81.06c0,2.92,1.7,5.64,5.5,5.64H34V83.23h-1.7A2.07,2.07,0,0,1,30.1,80.86Z"/><polygon class="a" points="101.22 86.7 101.22 86.77 119.91 86.77 119.91 81.81 106.79 81.81 106.79 74.95 117.94 74.95 117.94 69.99 106.79 69.99 106.79 63.33 119.91 63.33 119.91 58.37 101.22 58.37 101.22 86.7"/><polygon class="a" points="142.19 65.98 136 65.98 132.47 71.89 128.94 65.98 122.76 65.98 129.62 76.1 122.49 86.7 128.67 86.7 132.47 80.52 136.28 86.7 142.46 86.7 135.33 76.1 142.19 65.98"/><path class="a" d="M193.48,65.84c-3.47,0-5.44.61-7.47,2.86l3.32,3.19a4.57,4.57,0,0,1,4-1.7c2.79,0,3.87,1,3.87,3.26v1h-4.89c-4.82,0-7.06,2.65-7.06,6a6.78,6.78,0,0,0,1.7,4.62,7.07,7.07,0,0,0,5.3,1.83,6.37,6.37,0,0,0,5.09-2v1.9h5V73.18C202.31,68.29,199.25,65.84,193.48,65.84ZM197.28,79a3.55,3.55,0,0,1-.74,2.65,4.08,4.08,0,0,1-3.27,1c-2,0-3-1-3-2.38s1-2.38,2.92-2.38h4.07Z"/><path class="a" d="M218.21,65.71A7.13,7.13,0,0,0,213,67.88V66h-5V86.63h5.16V74.13c0-2.85,1.83-3.8,3.46-3.8s3.4,1,3.4,3.8V86.7h5.16V73.45a7.6,7.6,0,0,0-2.1-5.91A6.81,6.81,0,0,0,218.21,65.71Z"/><path class="a" d="M241.85,67.81a6.12,6.12,0,0,0-5-2.17,7,7,0,0,0-5,1.83c-2,2-2.1,4.62-2.1,8.22s.13,6.25,2.1,8.22a6.93,6.93,0,0,0,5,1.84,6.16,6.16,0,0,0,5-2v2.11c0,2.1-1,4.28-4.14,4.28a5.37,5.37,0,0,1-4.08-1.57l-3.19,3.26c2.17,2.11,4.34,2.72,7.54,2.72,5.57,0,9.1-3.6,9-8.69v-20h-5Zm-3.4,13.39c-3.06,0-3.4-2.72-3.4-5.44s.34-5.37,3.4-5.37,3.4,2.59,3.4,5.37S241.51,81.2,238.45,81.2Z"/><path class="a" d="M260.8,65.71c-5.37,0-9,3.8-9,10.59,0,8.36,4.68,10.6,9.58,10.6a9.89,9.89,0,0,0,7.88-3.26l-3.13-3.06a5.61,5.61,0,0,1-4.69,2,4.3,4.3,0,0,1-4.55-4.62h13V75.62C269.84,69.92,266.58,65.71,260.8,65.71Zm-3.94,8.69a5.76,5.76,0,0,1,.48-2.24A3.51,3.51,0,0,1,260.8,70a3.62,3.62,0,0,1,3.47,2.17,4.73,4.73,0,0,1,.47,2.24Z"/><path class="a" d="M153.26,70.39A4.18,4.18,0,0,1,156.59,72l3.53-3.53a8.92,8.92,0,0,0-6.86-2.78C149.18,65.71,144,68,144,76.3s5.1,10.6,9.24,10.6a8.92,8.92,0,0,0,6.86-2.78l-3.53-3.47a4.16,4.16,0,0,1-3.33,1.63,3.63,3.63,0,0,1-2.92-1.36c-.82-1-1.16-2.44-1.16-4.62s.34-3.53,1.16-4.55A3.46,3.46,0,0,1,153.26,70.39Z"/><path class="a" d="M174.25,65.71a6.8,6.8,0,0,0-5,2.17V58.37h-5.16V86.63h5.16V74c0-2.71,1.7-3.66,3.33-3.66s3.4,1,3.4,3.66V86.7l5.16-.07V73.25C181.18,68.9,178.8,65.71,174.25,65.71Z"/><rect class="a" x="270.52" y="41.39" width="29.35" height="6.05"/><rect class="a" x="270.52" y="33.57" width="29.35" height="6.05"/><path class="a" d="M299.86,30.31a4.71,4.71,0,0,0-4.62-4.82h-20a4.76,4.76,0,0,0-4.68,4.82v1.57h29.34Z"/><path class="a" d="M270.52,49.13v1.56a4.77,4.77,0,0,0,4.68,4.83h12.57V61.9L294,55.52h1.36A4.78,4.78,0,0,0,300,50.69V49.13Z"/></svg>