<?xml version="1.0" encoding="utf-8"?>
<!-- Generator: Adobe Illustrator 23.0.6, SVG Export Plug-In . SVG Version: 6.00 Build 0)  -->
<svg version="1.1" id="Camada_1" xmlns="http://www.w3.org/2000/svg" xmlns:xlink="http://www.w3.org/1999/xlink" x="0px" y="0px"
	 viewBox="0 0 300 120" style="enable-background:new 0 0 300 120;" xml:space="preserve">
<title>se-logo</title>
<path d="M45.5,66.3c-3.4,0-5.4,0.7-7.3,2.9l2.7,2.5c1.1-1.4,2.2-2,4.4-2c3.1,0,4.4,1.3,4.4,3.8V75h-5.3c-4.5,0-6.9,2.4-6.9,5.8
	c0,1.6,0.5,3.1,1.6,4.3c1.5,1.3,3.5,2,5.4,1.8c2,0.2,4-0.5,5.4-2v1.8l3.9-0.1V73.2C53.8,68.6,51,66.3,45.5,66.3z M49.8,79.4
	c0.1,1.1-0.2,2.2-0.9,3c-1,0.9-2.4,1.3-3.8,1.2c-2.5,0-3.7-1-3.7-2.9s1.2-2.9,3.6-2.9h4.8V79.4z"/>
<path d="M68,69.9c1.5,0,3,0.7,3.9,1.9l2.8-2.7c-1.7-1.9-4.1-3-6.7-2.8c-4.5,0-9,2.8-9,10.3s4.5,10.3,9,10.3c2.5,0.1,5-0.9,6.7-2.8
	l-2.8-2.7c-0.9,1.2-2.4,1.9-3.9,1.9c-1.5,0-2.8-0.6-3.7-1.8c-0.9-1.2-1.3-2.5-1.3-5s0.3-3.8,1.2-4.9C65.1,70.5,66.5,69.9,68,69.9z"
	/>
<polygon points="96.2,66.5 91.2,66.5 83.4,75.8 83.4,58.4 79.3,58.4 79.3,86.7 83.4,86.7 83.4,80.8 86.4,77.4 92.1,86.7 97.1,86.6 
	89.2,74.4 "/>
<path d="M17.9,72.8c-1.2-1.1-2.6-1.7-5.3-2.1l-3.2-0.5c-1.2-0.2-2.3-0.6-3.2-1.3c-0.7-0.7-1.1-1.7-1.1-2.7c0-2.5,1.8-4.4,5.2-4.4
	c2.3-0.2,4.5,0.6,6.2,2.2l2.7-2.7c-2.4-2.2-5-3.2-8.8-3.2c-5.8,0-9.5,3.3-9.5,8.3c-0.1,2,0.6,4,2,5.4c1.5,1.3,3.4,2.1,5.4,2.2
	l3.3,0.5c1.1,0,2.3,0.5,3.1,1.2c0.8,0.8,1.2,1.8,1.2,2.9c0,2.8-2.2,4.3-5.9,4.3c-2.7,0.2-5.3-0.8-7.3-2.7L0,83.2
	c2.7,2.7,5.8,3.7,10.1,3.7c5.9,0,10.2-3.1,10.2-8.3C20.4,76.4,19.5,74.3,17.9,72.8z"/>
<path d="M30.1,80.9V70H34v-3.1h-3.9v-6.1H26v6.1h-2.3V70H26v11.1c0,2.9,1.7,5.6,5.5,5.6H34v-3.5h-1.7c-1.1,0.1-2.1-0.8-2.2-1.9
	C30.1,81.2,30.1,81,30.1,80.9z"/>
<polygon points="101.2,86.7 101.2,86.8 119.9,86.8 119.9,81.8 106.8,81.8 106.8,74.9 117.9,74.9 117.9,70 106.8,70 106.8,63.3 
	119.9,63.3 119.9,58.4 101.2,58.4 "/>
<polygon points="142.2,66 136,66 132.5,71.9 128.9,66 122.8,66 129.6,76.1 122.5,86.7 128.7,86.7 132.5,80.5 136.3,86.7 142.5,86.7 
	135.3,76.1 "/>
<path d="M193.5,65.8c-3.5,0-5.4,0.6-7.5,2.9l3.3,3.2c1-1.2,2.5-1.8,4-1.7c2.8,0,3.9,1,3.9,3.3v1h-4.9c-4.8,0-7.1,2.7-7.1,6
	c0,1.7,0.6,3.3,1.7,4.6c1.4,1.3,3.4,2,5.3,1.8c1.9,0.1,3.8-0.6,5.1-2v1.9h5V73.2C202.3,68.3,199.3,65.8,193.5,65.8z M197.3,79
	c0.1,0.9-0.1,1.9-0.7,2.7c-0.9,0.8-2.1,1.2-3.3,1c-2,0-3-1-3-2.4s1-2.4,2.9-2.4h4.1L197.3,79z"/>
<path d="M218.2,65.7c-2,0-3.8,0.8-5.2,2.2V66h-5v20.6h5.2V74.1c0-2.8,1.8-3.8,3.5-3.8s3.4,1,3.4,3.8v12.6h5.2V73.4
	c0.2-2.2-0.6-4.3-2.1-5.9C221.8,66.3,220,65.7,218.2,65.7z"/>
<path d="M241.9,67.8c-1.2-1.5-3.1-2.3-5-2.2c-1.8-0.1-3.6,0.6-5,1.8c-2,2-2.1,4.6-2.1,8.2s0.1,6.3,2.1,8.2c1.4,1.3,3.2,1.9,5,1.8
	c1.9,0.1,3.7-0.6,5-2v2.1c0,2.1-1,4.3-4.1,4.3c-1.5,0.1-3-0.5-4.1-1.6l-3.2,3.3c2.2,2.1,4.3,2.7,7.5,2.7c5.6,0,9.1-3.6,9-8.7v-20h-5
	L241.9,67.8z M238.5,81.2c-3.1,0-3.4-2.7-3.4-5.4s0.3-5.4,3.4-5.4s3.4,2.6,3.4,5.4S241.5,81.2,238.5,81.2L238.5,81.2z"/>
<path d="M260.8,65.7c-5.4,0-9,3.8-9,10.6c0,8.4,4.7,10.6,9.6,10.6c3,0.2,5.9-1,7.9-3.3l-3.1-3.1c-1.2,1.4-2.9,2.1-4.7,2
	c-2.4,0.1-4.4-1.7-4.6-4c0-0.2,0-0.4,0-0.6h13v-2.3C269.8,69.9,266.6,65.7,260.8,65.7z M256.9,74.4c0-0.8,0.2-1.5,0.5-2.2
	c0.6-1.4,2-2.3,3.5-2.2c1.5-0.1,2.9,0.8,3.5,2.2c0.3,0.7,0.5,1.5,0.5,2.2L256.9,74.4z"/>
<path d="M153.3,70.4c1.3,0,2.5,0.6,3.3,1.6l3.5-3.5c-1.8-1.9-4.3-2.9-6.9-2.8c-4.1,0-9.3,2.3-9.3,10.6s5.1,10.6,9.2,10.6
	c2.6,0.1,5.1-0.9,6.9-2.8l-3.5-3.5c-0.8,1-2,1.6-3.3,1.6c-1.1,0-2.2-0.5-2.9-1.4c-0.8-1-1.2-2.4-1.2-4.6s0.3-3.5,1.2-4.6
	C151,70.8,152.1,70.3,153.3,70.4z"/>
<path d="M174.3,65.7c-1.9,0-3.7,0.8-5,2.2v-9.5h-5.2v28.3h5.2V74c0-2.7,1.7-3.7,3.3-3.7s3.4,1,3.4,3.7v12.7l5.2-0.1V73.3
	C181.2,68.9,178.8,65.7,174.3,65.7z"/>
<rect x="270.5" y="41.4" width="29.4" height="6"/>
<rect x="270.5" y="33.6" width="29.4" height="6"/>
<path d="M299.9,30.3c0.1-2.6-2-4.8-4.6-4.8c0,0,0,0,0,0h-20c-2.6,0-4.7,2.2-4.7,4.8v1.6h29.3L299.9,30.3z"/>
<path d="M270.5,49.1v1.6c0,2.6,2.1,4.8,4.7,4.8h12.6v6.4l6.2-6.4h1.4c2.6-0.1,4.7-2.2,4.6-4.8v-1.6H270.5z"/>
</svg>
