<svg id="Camada_1" data-name="Camada 1" xmlns="http://www.w3.org/2000/svg" viewBox="0 0 300 120"><title>sprites</title><path d="M66.6,67.81l-3.51-.32c-2.71-.16-3.66-1.28-3.66-3.19,0-2.23,1.59-3.5,4.78-3.5a8.17,8.17,0,0,1,5.73,1.75L72,60.48a11.93,11.93,0,0,0-7.64-2.23c-4.62,0-7.81,2.39-7.81,6.21,0,3.51,2.23,5.42,6.37,5.74l3.51.32c2.55.15,3.5,1.27,3.5,3.18,0,2.55-2.23,3.83-5.73,3.83A8.71,8.71,0,0,1,57.51,75l-2.07,2.07a11.85,11.85,0,0,0,8.77,3c5.09,0,8.76-2.39,8.76-6.53S70.42,68.13,66.6,67.81Zm26.76-9.72c-3.5,0-5.57.64-7.49,3l2.07,2.07a5.68,5.68,0,0,1,5.42-2.39c4,0,5.42,1.59,5.42,4.62v2.07H92.41c-4.78,0-7.33,2.39-7.33,6.21A6,6,0,0,0,86.67,78c1.27,1.44,3,1.92,6,1.92a8.18,8.18,0,0,0,6.22-2.24v2.08h3.18V65.26C102,60.64,99.1,58.09,93.36,58.09Zm5.42,14.18a4.41,4.41,0,0,1-1.12,3.66,6.36,6.36,0,0,1-4.78,1.44c-3.34,0-4.94-1.12-4.94-3.67s1.6-3.82,4.78-3.82h6.06ZM114.23,61a6,6,0,0,1,4.94,2.39l2.07-2.08a8.61,8.61,0,0,0-7-3.18c-5.41,0-9.4,3.66-9.4,11s4.15,11,9.4,11a8.59,8.59,0,0,0,7-3.18l-2.07-2.07a6,6,0,0,1-4.94,2.39,5.59,5.59,0,0,1-4.94-2.39,9.17,9.17,0,0,1-1.43-5.74,9.12,9.12,0,0,1,1.43-5.73A5.57,5.57,0,0,1,114.23,61ZM141,58.41h-3.83l-9.71,9.4v-19h-3.19V79.76h3.19V72l3.82-3.82,7.17,11.63h3.82l-8.92-13.71Zm14.66-1.12A8.57,8.57,0,0,0,148.81,60c-2.08,2.07-2.55,4.62-2.55,8.6s.47,6.54,2.55,8.61a9.77,9.77,0,0,0,6.85,2.71,8.63,8.63,0,0,0,6.85-2.71c2.07-2.07,2.55-4.62,2.55-8.61s-.48-6.53-2.55-8.6A8.59,8.59,0,0,0,155.66,57.29ZM158.36,74a3.88,3.88,0,0,1-5.09,0C152.15,72.9,152,70.83,152,68.6s.16-4.3,1.28-5.41a3.85,3.85,0,0,1,5.09,0c1.12,1.11,1.28,3,1.28,5.41S159.48,72.9,158.36,74ZM180,57.45l-4.46,13.7-4.46-13.7h-5.89l8.28,22.31h4.3l8.13-22.31Zm15.3-.16c-5.74,0-9.72,4.14-9.72,11.31,0,9.08,5.1,11.47,10.35,11.47a10.54,10.54,0,0,0,8.45-3.5l-3.35-3.35a6.17,6.17,0,0,1-5.1,2.07A4.63,4.63,0,0,1,191,71v-.63h13.87V67.81C205.05,61.75,201.54,57.29,195.33,57.29ZM191,66.53a6.41,6.41,0,0,1,.48-2.39,3.89,3.89,0,0,1,3.67-2.23,3.65,3.65,0,0,1,3.66,2.23,6.41,6.41,0,0,1,.48,2.39Zm22.15-6.85V57.61h-5.42V79.92h5.58V66.53a3.86,3.86,0,0,1,3.35-4.14H217a3.75,3.75,0,0,1,2.87,1.27L224,59.52a6.53,6.53,0,0,0-5.25-2.07,6.81,6.81,0,0,0-5.58,2.23Zm12.59-4.46V79.76h5.57V62.23h4.15v-4.3h-4.15V55.54a1.8,1.8,0,0,1,1.44-2.07h2.55V48.69h-3.19a6.21,6.21,0,0,0-6.37,6.05h0Zm32.5,2.07A8.57,8.57,0,0,0,251.41,60c-2.07,2.07-2.55,4.62-2.55,8.6s.48,6.54,2.55,8.61a9.77,9.77,0,0,0,6.85,2.71,8.6,8.6,0,0,0,6.85-2.71c2.07-2.07,2.55-4.62,2.55-8.61s-.48-6.53-2.55-8.6A8.59,8.59,0,0,0,258.26,57.29ZM261,74a3.89,3.89,0,0,1-5.1,0c-1.12-1.12-1.28-3.19-1.28-5.42s.16-4.3,1.28-5.41a3.87,3.87,0,0,1,5.1,0c1.11,1.11,1.27,3,1.27,5.41S262.08,72.9,261,74Zm33-16.57-3.67,13.7-4.62-13.7h-4l-4.46,13.86-3.67-13.7h-5.89l6.85,22.31h4.62l4.62-14,4.62,14h4.78L300,57.61,294,57.45ZM243.6,73.06V48.85H238V73.38a6.05,6.05,0,0,0,5.72,6.37h4V75h-2.07a1.78,1.78,0,0,1-2.07-1.28ZM84.44,58.88h-5.9v-7H75.36V74c0,3.19,1.75,5.74,5.42,5.74H83V77.05h-1.6c-2.07,0-2.87-1.12-2.87-3.19V61.59h3Z"/><path d="M41.42,83.1V68.76H47.8V89.47H0V68.76H6.37V83.1"/><path d="M36.79,71.93l1.11-4.7L12.24,61.9l-1.09,5.27ZM14.5,54.74,38.4,65.89l2.23-4.77L16.73,50ZM21.19,43,41.42,59.84l3.35-4L24.54,39ZM34.25,30.53,30,33.71,45.72,54.9,50,51.72ZM11.15,78.32H36.64V73.54H11.15Z"/></svg>