<svg xmlns="http://www.w3.org/2000/svg" viewBox="0 0 300 120"><defs><style>.a{fill:#fff;}</style></defs><title>startpage</title><path class="a" d="M276.67,56.74h0a9.06,9.06,0,0,1-2.56-.37l.12,2.45a14.74,14.74,0,0,0,5.13,1c6.36,0,10.64-3.67,10.64-8.93,0-5-4.28-9.53-11.49-9.53-9.91,0-16,8.07-16,17.85,0,9.41,5.75,15.28,14.55,15.28,6.85,0,11.25-3.18,12.72-5.14L289,66.89a12.66,12.66,0,0,1-7.46,2.44c-5,0-10-2.44-10-12.1,0-8.07,2.57-12.71,6.23-12.71,2.45,0,4.28,1.83,4.28,5.62C282.18,54.54,280,56.74,276.67,56.74Z"/><path class="a" d="M70.79,66.28c0,4.4,3.42,8.07,8.92,8.07,4.9,0,7.83-2.2,9.3-4.16.49,2.08,2.07,4.16,5.86,4.16,3.06,0,5.26-.86,7-2.94L101,69.58a1.84,1.84,0,0,1-1.35.49c-1.1,0-2-.61-2-2.2v-18c0-5.74-4.16-8.55-11.13-8.55-8.31,0-14.91,3.91-14.91,8.19,0,2.2,1.71,3.42,4,3.42a6.08,6.08,0,0,0,1.47-.12,3.14,3.14,0,0,0,2.44-3.06V48.43c0-2.45,1.1-3.79,4.16-3.79,2.81,0,5,1.22,5,5.25v3.8c0,1.1-.36,1.34-1.47,1.58h0l-8.8,2.57C73.36,59.43,70.79,62.12,70.79,66.28Zm13.57-7.34,4.4-1.71v8.31c0,2.69-1.71,4.16-4.28,4.16-2.81,0-4.89-1.59-4.89-4.64C79.71,62.37,81.18,60.29,84.36,58.94Z"/><path class="a" d="M250.27,68h0l-9.3-.12c-2.2-.13-3.66-.86-3.66-2.94a4.37,4.37,0,0,1,.85-2.2,20.9,20.9,0,0,0,6.24,1c9.17,0,14.42-5,14.42-11.13a10.22,10.22,0,0,0-5-8.68l-.61-.36c-.37-.25-.73-.37-1.1-.61l-.49-.25a21.42,21.42,0,0,0-2.69-.85l-.37-.13c.86-1.34,4-7.45,7.46-8.68,1.22-.49,2.08.13,3.43,1.35.85.85,1.71,2.08,3.79,2.08s4.89-2.2,4.89-4.65-.62-5.5-6-5.5c-7.58,0-12.47,7.82-15.28,13.2,0,0-.61,1.35-.85,1.84H244.4c-9.05,0-14.31,5.13-14.31,11A10.44,10.44,0,0,0,236,61.63c-1.83,1.71-4.64,4-4.64,6.48a5.58,5.58,0,0,0,2.56,5,12.54,12.54,0,0,0,3.18,1.47,26.44,26.44,0,0,0,4.53.73l5.25.25c4.16.12,6.85,1.22,6.85,4.77,0,4.15-4.65,6.6-11,6.6-5.14,0-9.05-2-9.05-5.62a5,5,0,0,1,2.81-4.53c-1.47-.49-2.69-1-3.79-1.34-3.3,1.46-4.65,3.66-4.65,6.23,0,4.4,4.77,8.07,13.45,8.07,12.6,0,19.93-6.48,19.93-13.2C261.15,70.56,256.62,68,250.27,68ZM244.4,44.15c4.15,0,5.38,3.3,5.38,8.31s-1.35,8.44-5.38,8.44S239,57.6,239,52.46,240.24,44.15,244.4,44.15Z"/><path class="a" d="M48.78,67c0,3.67,2.33,7.46,8.93,7.46A11.25,11.25,0,0,0,68.1,68.11l-1.71-1.34a6.46,6.46,0,0,1-4.89,2.69c-2.2,0-3.79-1.1-3.79-3.67v-19h8.8V43.66h-8.8V34.25H54.65c-.37,3.91-4.4,9.9-10,10.14V47h4.28V67Z"/><path class="a" d="M18.34,56.37A2.88,2.88,0,0,0,17,55.76c-5.51-.73-9.42,9.17-5.26,13.45,2.69,2.69,6.23,4.89,13,5.26,11.61.73,18.34-6,18.83-13.82C44,53.44,38.64,49.89,31.42,46.1l-4.89-2.44c-4.15-2.32-6.36-4.28-6.23-8.07.36-5.13,4.64-7.7,9.29-7.21,4.16.49,4.4,2.81,4.28,6l-.12,3.05a2.17,2.17,0,0,0,2,2.33h0c2.81.12,6.24-1.1,6.48-4.77.25-4.16-2.2-8.68-12.35-9.29-11-.61-17.72,5.62-18.09,12.35-.37,5.74,2.57,9.41,9.29,13l5.26,2.56c5.13,2.81,8.07,5.14,7.82,9.91S31.42,72,25.43,71.41s-6.6-6-6.72-7.94v-1A28.35,28.35,0,0,1,19,59.31h0C19,58.58,19,57,18.34,56.37Z"/><path class="a" d="M108.69,49.28h0v18c0,2.81-.49,3.91-3.18,3.91h-1.1v2.69h18.34V71.17H121.4c-2.81,0-3.79-1.1-3.79-3.91v-17a34.35,34.35,0,0,1,4.77-3.42,4.85,4.85,0,0,0,9.66-.49c0-2.57-1.83-4.89-5.38-4.89-2.57,0-6.36,1.83-9.17,5.62v-.24c0-2.57-1.83-5.26-6.23-5.26a23,23,0,0,0-7.58,1.47v2.44a9.71,9.71,0,0,1,1.71-.24C107.71,45.37,108.69,47,108.69,49.28Z"/><path class="a" d="M151.11,69.33h0c-2.2,0-3.91-1.1-3.91-3.66V46.84H156v-3.3h-8.8V34.12h-3c-.37,4-4.41,9.91-10,10.15v2.57h4.28V67c0,3.67,2.32,7.46,8.92,7.46a11.26,11.26,0,0,0,10.4-6.36L156,66.77A6.49,6.49,0,0,1,151.11,69.33Z"/><path class="a" d="M181.56,41.21h0a14,14,0,0,0-9.42,3.67l.25-3.67h-2.33c-1.83,1.47-6,2.57-11,2.57v2.69h2.08c1.71,0,2.32.49,2.32,2.2v35c0,2.81-.49,3.79-3.18,3.79h-1.1v2.69h18.46V87.43h-1.71c-2.69,0-3.42-1.1-3.42-3.91V49.77c0-2.81,2.08-4.28,5.13-4.28,4.16,0,8.07,3.3,8.07,12.84,0,8.8-3.54,12.84-7.82,13.2-.73,0-1.22.13-1.84.13V74a16,16,0,0,0,2.45.12c9.66,0,16.63-6.72,16.63-17.6C194.76,47.08,189,41.21,181.56,41.21Z"/><path class="a" d="M228.63,71.53h0l-.86-1.83a1.83,1.83,0,0,1-1.34.49c-1.1,0-2-.61-2-2.2V49.89c0-5.74-4.16-8.55-11.13-8.55-8.31,0-14.91,3.91-14.91,8.19,0,2.2,1.71,3.42,4,3.42a6.08,6.08,0,0,0,1.47-.12,3.28,3.28,0,0,0,2.57-3.18V48.31c0-2.45,1.1-3.79,4.15-3.79,2.82,0,5,1.22,5,5.25v3.79c0,1.1-.37,1.35-1.47,1.59l-8.93,2.69c-5.13,1.59-7.7,4.28-7.7,8.44,0,4.4,3.43,8.07,8.93,8.07,4.89,0,7.82-2.2,9.29-4.16.49,2.08,2.08,4.16,5.75,4.16A7.77,7.77,0,0,0,228.63,71.53ZM211.51,69.7c-2.81,0-4.89-1.59-4.89-4.64,0-2.69,1.47-4.77,4.65-6.12l4.4-1.71v8.31A3.8,3.8,0,0,1,211.51,69.7Z"/><path class="a" d="M149.77,88h-.25C140,86.94,124,85.11,108,84.13,93.41,83.27,79.84,83,73.6,83c-35.58,0-36.8.85-57.7,3-7.22.74-7.1,9.17.85,8.19,11.86-1.34,28.49-3,42.67-4,11.74-.73,29.59-1.71,49-1.71,17.11,0,32.27.37,41,1a.81.81,0,0,0,1-.61C150.5,88.53,150.14,88.16,149.77,88Z"/></svg>