<svg id="Layer_1" data-name="Layer 1" xmlns="http://www.w3.org/2000/svg" viewBox="0 0 300 120"><title>swisscows</title><path d="M60.54,8.71h2a9.48,9.48,0,0,0-2.9,5c3.25-1,6.49-.13,9.74.29,3.3-.12,6.47-1.21,9.72-1.77.1.85.31,2.54.42,3.37-1,.7-1.92,1.37-2.89,2.06l3.31-.68c-2.78,4.86-7.6,8.14-10.15,13.12a47.06,47.06,0,0,0,9.41-.67c.45-2.73.8-5.95,3.5-7.46a25.81,25.81,0,0,1,5.62,4.87,10.85,10.85,0,0,1-8,3.5c-1.8,1.46-3.64,2.87-5.55,4.2,0-.7.13-2.07.18-2.76-1.48.13-3,.24-4.45.34,0,.4-.1,1.2-.14,1.6,1.21.46,2.43,1,3.62,1.47l-3.09,1c.85,1.57,1.67,3.15,2.5,4.73,4.1,0,8.34-.72,12.32.62C90.45,43,95.16,44.57,100,45.86c-1.3.85-2.6,1.68-3.9,2.51-4.83-3.22-10.62-.93-15.91-2.3l-.08,1.62q2.64.77,5.29,1.59c3,5.38,6.67,10.5,8.7,16.41-1.77-.58-4.58-.34-4.77-2.84a10.87,10.87,0,0,0-9.51-8.25c-3.18.48-7.12,1-8.76,4.21-1.75,2.61-3.38,5.53-6.21,7.12-3.37,1.91-7,3.38-10.34,5.3l3.14,2.7c-2,.75-2,2.59-1.89,4.37H53.51c.06.73.19,2.19.25,2.91L51.21,81l-1.47,2.56c-.73-.94-1.46-1.87-2.18-2.81q-2,3.94-4.43,7.66c4.34.85,9,1.53,12.17,4.92q-2.49,1.38-5,2.71c-.61-1.2-1.23-2.39-1.85-3.58-3.17.07-6.33.11-9.5.12-.66-2.07-1.32-4.15-2-6.22-1.67,1.37-4.31,2.41-4.17,5-.56,6.49-2.94,13-.79,19.46-.74.14-2.23.39-3,.52H27c2.53-7.35.13-15-1.85-22.08.57-4.22,2.85-8.31,2-12.64A60.21,60.21,0,0,0,18.55,63.5c-3.13,0-6.82,0-8.86-2.79C5.45,55.34,7.44,48.12,7.76,41.89,6.34,39.23,2.49,41,0,40.62v-.31a19.29,19.29,0,0,1,2.84-4C5.28,33.08,9.64,37,9.93,40c0,4.43-1.87,8.89-.39,13.3.77,3.09,2.87,7,6.64,6.51,3.56.25,5.71-2.88,8.05-5,3.9-3.14,8.63-5,13.14-7,3.67-1.51,5.39-5.35,7.94-8.11C47.54,36.9,51,35.18,52.81,32A49.51,49.51,0,0,0,57,21.57c-1.9.16-4.23.77-5.21-1.44-.68-3.08,3.11-3.52,5.15-4.44A9.94,9.94,0,0,1,60.54,8.71Z"/><path d="M132.53,61c.3-2.94,3.46-2.62,5.61-2.54.8,1.62,2,3.75.56,5.38C136.75,66.88,131.45,64.54,132.53,61Z"/><path d="M75.57,69.23a17,17,0,0,1,10.61.9c-.47,1.41-1,2.84-1.45,4.25-2.39-.72-5.2-2.39-7.59-.73-1.89.84-2.51,3.66-.67,4.91,2.38,1.88,5.54,2.51,7.84,4.51,4,3.13,3.62,10.28-.8,12.87S73.3,98,68.87,95.68c.47-1.37.93-2.74,1.37-4.11,2.91,1,6.09,2.19,9.15,1.14,2.42-1,2.61-4.7.45-6-3.22-2.15-7.57-3.07-9.5-6.77C68.31,75.68,71.27,70.52,75.57,69.23Z"/><path d="M89.69,69.21l6.27,0c1.53,7.15,3.33,14.22,4.68,21.4,2.33-7.06,4-14.33,6.27-21.42l4.71,0c2.21,7.13,4,14.36,5.93,21.57,1.66-7.22,3.18-14.48,5.28-21.59,1.81,0,3.62,0,5.44,0C126.11,78.74,122.83,88,120,97.34c-1.69-.08-3.4-.08-5.08-.27-2.39-6.63-4-13.52-5.87-20.31-1.63,7-3.81,13.8-6.07,20.59-1.69-.35-4,.48-5.33-.81C94.79,87.5,92.44,78.3,89.69,69.21Z"/><path d="M146.29,80.78c-3.22-4.44.49-11,5.62-11.79a18,18,0,0,1,9.58,1.1c-.45,1.55-.94,3.09-1.44,4.61-2.11-1-4.47-2.42-6.86-1.5-1.62.76-3.44,3-1.93,4.67,2.55,3,7.25,3.19,9.67,6.43a8,8,0,0,1-1.78,11.43c-4.33,2.92-10.06,2.1-14.68.31a42.84,42.84,0,0,1,1.16-4.35c3.09.71,6.33,2.21,9.48.9,1.75-.86,1.67-3.08,1.23-4.68C153.71,84.59,148.6,84.52,146.29,80.78Z"/><path d="M169.64,71c3.77-3.22,9.35-2.54,13.65-.87-.45,1.52-.94,3-1.43,4.54-2.12-.91-4.44-2.36-6.81-1.47-1.62.77-3.61,3-2,4.7,3,3.25,8.6,3.43,10.58,7.82.85,3.23.89,7.38-2.08,9.56-4.22,3.29-10.52,3-15.1.61a11.14,11.14,0,0,1,1.26-4.48c2.8,1.4,6.15,2.38,9.2,1.18,1.83-.89,1.85-3.6.89-5.12-2.76-2.82-7.33-3.14-9.63-6.55C165.78,77.91,166.92,73.37,169.64,71Z"/><path d="M192.18,72.74c4.18-4.49,11.17-4.85,16.65-2.87-.34,1.4-.7,2.8-1,4.21-2.77-.33-5.62-.91-8.37-.16-6.41,3-7.19,13.28-1.63,17.47,2.9,2.13,6.73,1.59,9.87.36.36,1.53.71,3.06,1.06,4.6-4.45,1.4-9.59,2.07-13.88-.22a12.44,12.44,0,0,1-6.57-11.45C187.94,80.38,189,75.79,192.18,72.74Z"/><path d="M220.89,69.27c4-.88,8.72-.9,12,2,5.71,4.78,6.25,13.82,2.94,20.14-4,7.78-16.5,8.45-21.3,1.11S211.58,72.26,220.89,69.27Zm2.93,3.88c-4.85,1.3-6.1,7.17-5.71,11.52.22,3.78,2.55,8.71,7,8.39,3,.09,5.07-2.74,5.89-5.34a15,15,0,0,0-1.13-11.61C228.65,74.12,226.19,72.62,223.82,73.15Z"/><path d="M240.56,69.21l6,0c1.95,7.09,3.27,14.34,5,21.47,2.11-7.18,3.75-14.5,6.29-21.54l4.57.13c1.95,7.08,4.29,14.09,5.47,21.36,2.49-6.92,3.48-14.31,5.51-21.38,1.91,0,3.83,0,5.75,0-2.43,9.44-5.57,18.67-8.31,28l-5.22,0c-1.95-6.5-4.23-13-5.32-19.68-.26,0-.76,0-1,0-1,6.77-3.57,13.15-5.48,19.69l-5.23,0C245.84,87.94,243.18,78.59,240.56,69.21Z"/><path d="M288.62,69.16a17.19,17.19,0,0,1,10.36,1l-1.39,4.41c-2.88-1.48-7.09-2.81-9.23.58-1.09,3.38,2.83,4.67,5.16,5.8,3.43,1.4,6.89,4.47,6.44,8.54.13,3.48-2.57,6.47-5.76,7.51-4,1.27-8.22.58-12.06-.81.23-1.54.48-3.07.71-4.6,3,.9,6.23,2.24,9.36,1.13,2.52-1,2.59-4.81.3-6.11-3.22-2.08-7.52-3-9.38-6.76C281.14,75.56,284.22,70.31,288.62,69.16Z"/><path d="M132.86,69.17c2,0,4,0,6,0,0,9.2-.12,18.41.09,27.61a38.88,38.88,0,0,1-6,.54C132.69,87.94,132.94,78.55,132.86,69.17Z"/></svg>