<svg xmlns="http://www.w3.org/2000/svg" viewBox="0 0 300 120"><defs><style>.a{fill:#fff;}</style></defs><title>target</title><path class="a" d="M32,70.8a11,11,0,1,0-11-11,11,11,0,0,0,11,11Zm0,10.5A21.3,21.3,0,1,0,10.7,60,21.32,21.32,0,0,0,32,81.3ZM0,60A32,32,0,1,1,32,92,32,32,0,0,1,0,60Z"/><polygon class="a" points="74.5 37 110.9 37 110.9 46.2 98.4 46.2 98.4 83.1 87.2 83.1 87.2 46.3 74.5 46.3 74.5 37"/><path class="a" d="M165.9,46.3H155.7v9.2h9.2c3.2-.1,5.7-1.5,5.7-4.6-.1-3.5-2.2-4.6-4.7-4.6ZM145,37h21.7c12.3,0,14,8.4,14,13.3A12.37,12.37,0,0,1,174,61.1a8.75,8.75,0,0,1,5.4,8.1v8.6c0,3.4,2.1,4.4,2.5,5.2h-8.8c-4.2-.5-4.1-3.8-4.1-5.7V70c-.1-1.8-.6-3.8-4.4-3.9h-8.9v17H145V37Z"/><polygon class="a" points="227.8 37 227.8 83.1 261 83.1 261 73.6 238.6 73.6 238.6 63.3 257.7 63.3 257.7 54.6 238.6 54.6 238.6 46.3 261 46.3 261 37 227.8 37"/><polygon class="a" points="262.6 46.3 275.7 46.3 275.7 83.1 286.6 83.1 286.6 46.3 300 46.3 300 37 262.6 37 262.6 46.3"/><path class="a" d="M122.5,53.3l-3.9,11.9h8.1l-4.2-11.9ZM116.3,37h11.8l16.1,46.1H132.7l-3.3-9.6H115.8l-3.1,9.6H101.3l15-46.1Z"/><path class="a" d="M223.9,57.4H204.1v9h9.4c0,1.8.3,3.7-1.9,6.3a9.66,9.66,0,0,1-6.9,2.9,10.4,10.4,0,0,1-7.1-2.5c-4.2-3.6-5.2-10.2-5.2-13.7,0-4.4,1.7-15.2,12.4-15.7,0,0,7.2-.5,9.1,8.2h10c-.2-4.4-5.3-16.8-19.1-16.8a21.73,21.73,0,0,0-15.7,6.4c-3.6,3.6-6.9,9.7-6.9,18.2,0,9.3,3.4,15.3,6.5,18.6,5.5,5.8,11,6.3,13.9,6.3,2.3,0,6.7-.3,12.3-4.2l1.5,2.6h7.5V57.4Z"/></svg>