<?xml version="1.0" encoding="utf-8"?>
<!-- Generator: Adobe Illustrator 23.0.6, SVG Export Plug-In . SVG Version: 6.00 Build 0)  -->
<svg version="1.1" id="Camada_1" xmlns="http://www.w3.org/2000/svg" xmlns:xlink="http://www.w3.org/1999/xlink" x="0px" y="0px"
	 viewBox="0 0 300 120" style="enable-background:new 0 0 300 120;" xml:space="preserve">
<title>ted</title>
<path d="M20,12.3h81.6c0,8,0,16.1,0,24.1c-8.8,0-17.6,0-26.4,0c0,23.4-0.1,46.8,0,70.2c-9.7,0-19.3,0-29,0c0.1-23.4,0-46.8,0-70.2
	c-8.8,0-17.5,0-26.3,0L20,12.3z"/>
<path d="M106,12.3h79.2c0.1,8,0,16.1,0.1,24.1c-16.8,0-33.5,0-50.3,0c0,3.9,0,7.8,0,11.6h50.3c-0.1,7.5-0.1,15,0,22.5
	c-16.8,0.1-33.6,0-50.4,0c0.1,4,0,7.9,0,11.9c16.8,0,33.5,0,50.3,0c0,8-0.1,16.1,0,24.1c-26.4,0.1-52.9,0.1-79.3,0
	C106.1,75.2,106,43.7,106,12.3z"/>
<path d="M190.1,12.3h50.5c10.2,0.5,20.6,4.1,27.5,11.8c7.9,8.4,11,20.2,11.8,31.4v7.9c-0.7,10.9-3.7,22.1-11.4,30.2
	c-8.8,9.4-22,13-34.5,13.1c-14.7,0-29.4,0-44,0C190.1,75.2,190.1,43.7,190.1,12.3 M219,36.4c0,15.4,0,30.7,0,46.1
	c7.6-0.3,15.8,1.2,22.7-2.8s9.2-12.4,9.3-19.8c0.3-7.5-2.4-15.8-9.1-20C235.1,35.5,226.7,36.6,219,36.4L219,36.4z"/>
</svg>
