<svg xmlns="http://www.w3.org/2000/svg" viewBox="0 0 300 120"><defs><style>.a{fill:#fff;}</style></defs><title>ted</title><path class="a" d="M10,8.63H97.92q0,13,0,26c-9.46,0-18.94,0-28.4,0,0,25.21-.06,50.41,0,75.62q-15.62.08-31.26,0c.07-25.2,0-50.41,0-75.62-9.45,0-18.89,0-28.34,0Z"/><path class="a" d="M102.62,8.63h85.33c.07,8.66,0,17.32.06,26-18.06,0-36.12,0-54.17,0,0,4.18,0,8.36,0,12.54H188c-.06,8.09-.1,16.18,0,24.27-18.09.08-36.17,0-54.25,0,.07,4.28,0,8.56,0,12.84q27.08,0,54.16,0c0,8.64-.06,17.29,0,25.94q-42.7.1-85.42,0C102.68,76.39,102.61,42.51,102.62,8.63Z"/><path class="a" d="M193.18,8.63h54.45c10.95.57,22.14,4.44,29.66,12.69,8.5,9.1,11.9,21.71,12.71,33.85v8.46c-.73,11.7-4,23.85-12.25,32.56-9.45,10.11-23.73,14-37.18,14.1-15.81,0-31.62,0-47.42,0,.08-33.88,0-67.77,0-101.65m31.2,26q0,24.84,0,49.67c8.15-.37,17.06,1.34,24.45-3s9.9-13.37,10-21.37c.31-8.08-2.57-17.05-9.75-21.5C241.71,33.7,232.66,34.8,224.38,34.66Z"/></svg>