<svg id="Camada_1" data-name="Camada 1" xmlns="http://www.w3.org/2000/svg" viewBox="0 0 300 120"><defs><style>.cls-1{fill:#fff;stroke:#fff;stroke-width:0.09px;}</style></defs><title>tidal</title><path class="cls-1" d="M128,0h.1c1,1.2,2.2,2.2,3.3,3.4l7.49,7.49V11c-3.6,3.6-7.19,7.29-10.89,10.89L117.08,11a3.43,3.43,0,0,1,.8-.9C121.27,6.79,124.67,3.4,128,0Zm21.88,0h.1a1.31,1.31,0,0,0,.3.4l10.49,10.49c-.1.2-.3.3-.4.5L149.85,21.88c-3.7-3.6-7.29-7.29-10.89-10.89,3.5-3.7,7.29-7.29,10.89-11Zm21.88,0h.1c.7.8,1.5,1.5,2.2,2.3l8.19,8.19c.1.2.4.3.4.5-3.69,3.6-7.19,7.29-10.89,10.89L161.34,11.49c-.2-.2-.4-.3-.5-.6,1.9-1.8,3.6-3.6,5.5-5.49Q169,2.85,171.73,0Zm-32.7,32.67,10.79-10.79.2.1,10.79,10.79c-.1.3-.4.4-.6.6l-7.79,7.8L150,43.66c-1.2-1.1-2.4-2.39-3.6-3.49l-7.29-7.3v-.2ZM26.75,79.73H59.43v7.8H47.64V118.4a7.57,7.57,0,0,1-.1,1.5h-9.1V87.53H26.75Zm59.85,0h9.2V119.9H86.7c-.1-3.6,0-7.09,0-10.69C86.6,99.42,86.6,89.63,86.6,79.73Zm161.47,0h9.19v32.18h16V120H248.17C248.07,106.51,248.07,93.12,248.07,79.73ZM161.94,93.22a17,17,0,0,0-5.2-8.19A21.81,21.81,0,0,0,145,80a44.43,44.43,0,0,0-7.29-.3H126.87a1.23,1.23,0,0,0-.6.1c.1,13.29,0,26.58,0,39.87a.37.37,0,0,1-.1.3h15.69c1.4-.3,2.89-.2,4.19-.5a20.73,20.73,0,0,0,12.39-7,19,19,0,0,0,4.2-9.6,24.39,24.39,0,0,0-.7-9.69Zm-10.29,13.39a10.11,10.11,0,0,1-4.8,4.1,13.77,13.77,0,0,1-5.69,1.2h-6.1c-.1-2.3,0-4.5-.1-6.8V87.43h6.3A13.19,13.19,0,0,1,150,90.82a11.61,11.61,0,0,1,3.4,7.6,12.85,12.85,0,0,1-1.75,8.19Zm68.14,3.9c-3.8-9.29-7.69-18.69-11.49-28-.4-.9-.7-1.9-1.2-2.8-3.19-.1-6.29-.1-9.49,0-5.4,13-10.79,26-16.19,38.87a5.14,5.14,0,0,0-.5,1.3h9.8c1-2.7,2-5.3,3-8,5.5-.1,11.09,0,16.59,0,.3-.1.4.2.4.4.9,2.49,1.9,5.09,2.8,7.59H223.6c-1.11-3.07-2.51-6.26-3.81-9.36Zm-23.38-5.7c-.1-.4.2-.7.3-1,1.9-4.79,3.8-9.69,5.6-14.48h.1c1.89,5.09,3.89,10.19,5.79,15.28v.3C204.2,104.81,200.31,104.81,196.41,104.81Z"/></svg>