<?xml version="1.0" encoding="utf-8"?>
<!-- Generator: Adobe Illustrator 23.0.6, SVG Export Plug-In . SVG Version: 6.00 Build 0)  -->
<svg version="1.1" id="Camada_1" xmlns="http://www.w3.org/2000/svg" xmlns:xlink="http://www.w3.org/1999/xlink" x="0px" y="0px"
	 viewBox="0 0 300 120" style="enable-background:new 0 0 300 120;" xml:space="preserve">
<style type="text/css">
	.st0{stroke:#FFFFFF;stroke-width:9.000000e-02;}
</style>
<title>tidal</title>
<path class="st0" d="M128,0h0.1c1,1.2,2.2,2.2,3.3,3.4l7.5,7.5V11c-3.6,3.6-7.2,7.3-10.9,10.9L117.1,11c0.2-0.3,0.5-0.6,0.8-0.9
	C121.3,6.8,124.7,3.4,128,0z M149.9,0h0.1c0.1,0.2,0.2,0.3,0.3,0.4l10.5,10.5c-0.1,0.2-0.3,0.3-0.4,0.5l-10.5,10.5
	c-3.7-3.6-7.3-7.3-10.9-10.9C142.5,7.3,146.3,3.7,149.9,0L149.9,0z M171.8,0h0.1c0.7,0.8,1.5,1.5,2.2,2.3l8.2,8.2
	c0.1,0.2,0.4,0.3,0.4,0.5c-3.7,3.6-7.2,7.3-10.9,10.9l-10.4-10.4c-0.2-0.2-0.4-0.3-0.5-0.6c1.9-1.8,3.6-3.6,5.5-5.5
	C168.1,3.7,169.9,1.9,171.8,0L171.8,0z M139.1,32.7l10.8-10.8l0.2,0.1l10.8,10.8c-0.1,0.3-0.4,0.4-0.6,0.6l-7.8,7.8l-2.4,2.5
	c-1.2-1.1-2.4-2.4-3.6-3.5l-7.3-7.3L139.1,32.7L139.1,32.7z M26.8,79.7h32.7v7.8H47.6v30.9c0,0.5,0,1-0.1,1.5h-9.1V87.5H26.8V79.7z
	 M86.6,79.7h9.2v40.2h-9.1c-0.1-3.6,0-7.1,0-10.7C86.6,99.4,86.6,89.6,86.6,79.7z M248.1,79.7h9.2v32.2h16v8.1h-25.1
	C248.1,106.5,248.1,93.1,248.1,79.7z M161.9,93.2c-0.9-3.2-2.7-6-5.2-8.2c-3.3-2.8-7.4-4.6-11.7-5c-2.4-0.3-4.9-0.4-7.3-0.3h-10.8
	c-0.2,0-0.4,0-0.6,0.1c0.1,13.3,0,26.6,0,39.9c0,0.1,0,0.2-0.1,0.3h15.7c1.4-0.3,2.9-0.2,4.2-0.5c4.8-0.8,9.2-3.3,12.4-7
	c2.3-2.7,3.7-6.1,4.2-9.6C163.1,99.6,162.8,96.3,161.9,93.2L161.9,93.2z M151.7,106.6c-1.1,1.8-2.8,3.3-4.8,4.1
	c-1.8,0.8-3.7,1.2-5.7,1.2h-6.1c-0.1-2.3,0-4.5-0.1-6.8V87.4h6.3c3.2,0,6.3,1.2,8.7,3.4c2,2,3.2,4.7,3.4,7.6
	C153.7,101.3,153.1,104.2,151.7,106.6L151.7,106.6z M219.8,110.5c-3.8-9.3-7.7-18.7-11.5-28c-0.4-0.9-0.7-1.9-1.2-2.8
	c-3.2-0.1-6.3-0.1-9.5,0c-5.4,13-10.8,26-16.2,38.9c-0.2,0.4-0.4,0.8-0.5,1.3h9.8c1-2.7,2-5.3,3-8c5.5-0.1,11.1,0,16.6,0
	c0.3-0.1,0.4,0.2,0.4,0.4c0.9,2.5,1.9,5.1,2.8,7.6h10.1C222.5,116.8,221.1,113.6,219.8,110.5z M196.4,104.8c-0.1-0.4,0.2-0.7,0.3-1
	c1.9-4.8,3.8-9.7,5.6-14.5h0.1c1.9,5.1,3.9,10.2,5.8,15.3v0.3C204.2,104.8,200.3,104.8,196.4,104.8z"/>
</svg>
