<svg id="Camada_1" data-name="Camada 1" xmlns="http://www.w3.org/2000/svg" viewBox="0 0 300 120"><defs><style>.cls-1{opacity:0.25;}.cls-2{opacity:0.35;}</style></defs><title>tiktok</title><g id="页面1"><g id="编组"><polygon id="路径" points="0 26.33 50.26 26.33 45.64 40.86 32.61 40.86 32.61 93.86 16.3 93.86 16.3 40.86 0.03 40.86 0 26.33"/><polygon id="路径-2" data-name="路径" points="132.56 26.33 183.97 26.33 179.35 40.86 165.2 40.86 165.2 93.86 148.92 93.86 148.92 40.86 132.59 40.86 132.56 26.33"/><polygon id="路径-3" data-name="路径" points="53.31 47.81 69.43 47.81 69.43 93.86 53.43 93.86 53.31 47.81"/><polygon id="路径-4" data-name="路径" points="75.82 26.14 91.91 26.14 91.91 57.6 107.87 42.01 127.07 42.01 106.9 61.59 129.5 93.86 111.76 93.86 96.67 71.44 91.91 76.06 91.91 93.86 75.82 93.86 75.82 26.14"/><polygon id="路径-5" data-name="路径" points="246.32 26.14 262.59 26.14 262.59 57.6 278.52 42.01 297.72 42.01 277.55 61.59 300 93.86 282.26 93.86 267.2 71.44 262.59 76.06 262.59 93.86 246.47 93.86 246.32 26.14"/><circle id="椭圆形" cx="61.38" cy="34.44" r="8.11"/><path id="路径-6" data-name="路径" class="cls-1" d="M181.91,66.3a27.55,27.55,0,0,1,25.41-27.47h-2.4a27.56,27.56,0,0,0,0,55h2.4A27.56,27.56,0,0,1,181.91,66.3Z"/><path id="路径-7" data-name="路径" class="cls-2" d="M213.58,38.74h-2.43a27.56,27.56,0,0,1,0,54.93h2.43a27.56,27.56,0,0,0,0-55.12Z"/><path id="形状" d="M209.22,79.7a13.41,13.41,0,1,1,13.4-13.4,13.4,13.4,0,0,1-13.4,13.4Zm0-41a27.57,27.57,0,1,0,19.48,8.07A27.56,27.56,0,0,0,209.22,38.74Z"/></g></g></svg>