<svg xmlns="http://www.w3.org/2000/svg" viewBox="0 0 300 120"><defs><style>.a{fill:#fff;}</style></defs><title>tripadvisor</title><path class="a" d="M123.32,14.11c5.11-5.7,12.94-7.44,20.21-8.48,11.23-1.08,23-.83,33.51,3.66,2.47,1.09,4.3,3.13,6.4,4.75,5.18.16,10.38.11,15.57-.07a39.5,39.5,0,0,0-4,7.67c5.2,6.43,7.06,15.68,3.74,23.39a23.69,23.69,0,0,1-17.12,14.65,24.22,24.22,0,0,1-23.14-8.22,58.25,58.25,0,0,1-4.6,7.71c-1.7-2.54-3.55-5-5.22-7.54A22,22,0,0,1,130.49,60c-12.81.62-24-11.48-23.43-24.07.08-5,2.33-9.54,4.84-13.72a32.15,32.15,0,0,0-4.34-8.33c5.24.48,10.51.17,15.76.26m7.54.47a22,22,0,0,1,8.84,1.15c7.44,2.39,12.37,9.63,14,17,2-4.34,3.59-9.11,7.2-12.4C165,16,171.27,14.2,177.14,14.58,171,9.2,162.42,7.9,154.5,8c-8.23-.13-17.25.92-23.63,6.6m-4.2,3.55c-10.56,2.09-17.72,14.21-13.88,24.39,3.06,10.21,15.87,16.23,25.52,11.33,8.37-3.56,13.49-13.75,10.58-22.5-2.6-9.21-12.85-15.54-22.22-13.21m44.36.5A19.3,19.3,0,0,0,158,34c-1.88,11.19,8.25,22.14,19.47,21.55,11.16-.24,20.47-11.73,17.81-22.69C193.44,22.24,181.25,14.87,171,18.63Z"/><path class="a" d="M127.91,25.56c6.58-1.91,13.94,3.66,14.16,10.43.53,6.3-5.31,12.31-11.63,12-6.78.06-12.56-7.19-10.84-13.79a12,12,0,0,1,8.32-8.63M127,29.66c-4.5,2.36-5.8,9.11-1.71,12.47,4.13,5.08,13.54,1.3,13.1-5.2C139.18,31.19,131.87,26.46,127,29.66Z"/><path class="a" d="M174,25.56c8-2.41,16.51,6.43,13.58,14.36-1.91,7-11.22,10.65-17.11,6.1-5.93-3.61-6.71-13.09-1.46-17.59a11.7,11.7,0,0,1,5-2.87m.49,3.43c-2.52,1.06-5,3.1-5.31,6-1.18,4.51,2.62,9.62,7.34,9.45,4.2.44,7.7-3.43,8.18-7.36C185,32,179.53,27.24,174.53,29Z"/><path class="a" d="M128.82,33.16c2.5-1.73,6.08.74,5.59,3.69.27,3.33-4.32,4.86-6.43,2.57C125.94,37.71,126.63,34.39,128.82,33.16Z"/><path class="a" d="M174.77,33.16c3.14-2.23,7.58,2.26,5.39,5.34-1.28,2.8-6.22,2.69-6.89-.51A4.27,4.27,0,0,1,174.77,33.16Z"/><path class="a" d="M155.27,67.8l4.7,0c.08,12.29-.2,24.59.16,36.87l-4.08,0c-.05-1.49-.1-3-.16-4.48-2.42,4.26-8.06,6.39-12.57,4.23-8-3.47-8.82-15.12-3.95-21.48,3.65-5,12.39-5.56,16-.23-.06-5-.05-9.95-.06-14.92m-9.53,15.41c-5.57,2.64-5.62,10.65-3,15.46,3.11,4.55,10.86,3.35,12.18-2.06.55-4.08,1.22-9-1.7-12.35C151.09,82.74,148.17,81.9,145.74,83.21Z"/><path class="a" d="M73.73,72c.89-1.26,1.51-3.51,3.54-3.06,3.4.13,3.44,5.86.05,6.15C75.25,75.5,74.62,73.31,73.73,72Z"/><path class="a" d="M190.92,69.45c3-2.44,6.54,3.16,3.22,5C191.12,77.07,187.32,71.26,190.92,69.45Z"/><path class="a" d="M43.45,75,48,73.4c0,2.08,0,4.16,0,6.24,2.24-.06,4.48-.09,6.71-.14q0,1.83,0,3.67c-2.23,0-4.47-.05-6.7-.12.12,5.32-.36,10.68.26,16,.7,2.65,3.61,2.61,5.79,2.15.14.82.44,2.46.59,3.29-3.82,1.73-9.62.82-10.72-3.8-.92-5.8-.22-11.72-.43-17.56l-3.92.06,0-3.66,3.9.1Z"/><path class="a" d="M62.7,84c1.76-3,4.58-5.39,8.31-5.06,0,1.48,0,3,.05,4.46a6.7,6.7,0,0,0-7.79,5.74c-.45,5.17,0,10.37-.22,15.55H58.73c-.09-8.36.26-16.71-.19-25.06l4-.09C62.61,81,62.65,82.47,62.7,84Z"/><path class="a" d="M90,84c3.3-6.62,14.22-6.62,17.58-.07,4.4,6.86,2.13,18.46-6.33,20.91-4,1.45-8.37-.39-11.11-3.44.66,4.48.32,9,.39,13.53l-3.77.21h-.86c-.23-11.85.18-23.7-.25-35.55l4.09-.05c.09,1.48.17,3,.26,4.46M94,83.69A6.64,6.64,0,0,0,90.55,90c.15,3.26-.92,7.52,2.16,9.76a6.93,6.93,0,0,0,10-.52,12,12,0,0,0-.55-15.06A7.18,7.18,0,0,0,94,83.69Z"/><path class="a" d="M114.05,80.84c4.37-1.85,9.62-2.7,14-.59,2.85,1.82,3.85,5.49,3.89,8.7.1,5.24-.21,10.5.3,15.72l-4.09-.07-.36-3.21c-3,3.79-8.9,5.31-12.9,2.23-4.21-3.18-3.19-10.44,1.44-12.67,3.36-2,7.31-2.3,11.11-2.42-.42-1.83-.36-4.21-2.2-5.28-3.35-1.89-7.19-.34-10.49.86-.18-.82-.55-2.45-.74-3.27M116.89,98c.22,4.14,5.46,4.94,8.16,2.61,3-1.94,2.42-5.89,2.53-9C123.38,91.53,116.62,92.42,116.89,98Z"/><path class="a" d="M205.07,79.63c3.32-1.1,6.82-.39,10.1.46-.4,1.28-.79,2.55-1.18,3.84-2.28-1.18-5.09-2.3-7.56-1-1.68.73-2,3-1.25,4.54,2.65,2.94,7.51,2.77,9.74,6.24a7,7,0,0,1-2.52,10.17c-3.95,2.19-8.7,1.46-12.66-.26.28-1.21.58-2.41.86-3.63,2.47,1.06,5.14,2.31,7.9,1.67,2.15-.55,4.2-3.13,2.78-5.29-2.42-3.4-7.79-3.18-10-6.85C199,86,201.13,80.76,205.07,79.63Z"/><path class="a" d="M227,79.67c4-1,8.95-1,12.24,1.91,6.91,5.92,5.58,19.52-3.4,22.71-5.58,2.49-13.16,0-15.54-5.76-3.24-6.61-.7-16.39,6.69-18.87m.13,4.07c-4.28,3.47-4.25,10.34-1.78,14.93,1.65,2.07,4.39,3.72,7.13,3.06,8.41-2.23,8.61-17.14.05-19.22A7.3,7.3,0,0,0,227.15,83.73Z"/><path class="a" d="M252.29,84.19c1.59-3.19,4.51-5.54,8.25-5.38,0,1.5.09,3,.13,4.49A6.63,6.63,0,0,0,253,89c-.28,5.21,0,10.43-.11,15.65l-4.54,0c-.05-8.38.23-16.76-.14-25.13h4C252.2,81.08,252.24,82.64,252.29,84.19Z"/><path class="a" d="M74.87,104.71q-.11-12.62,0-25.24l4.36.12q0,12.49,0,25Z"/><path class="a" d="M163.16,79.5l5.19.12c2,6.92,4.89,13.52,6.8,20.46,2.32-6.86,4.78-13.69,7.06-20.57,1.6,0,3.21,0,4.81,0-3.15,8.43-6.6,16.72-9.81,25.13l-4.29,0C169.37,96.39,166.63,87.8,163.16,79.5Z"/><path class="a" d="M190.17,79.53l4.7,0q0,12.53,0,25.07l-4.68,0Q190.15,92.1,190.17,79.53Z"/></svg>