<svg xmlns="http://www.w3.org/2000/svg" viewBox="0 0 300 120"><defs><style>.a{fill:#fff;}</style></defs><title>tumblr</title><path class="a" d="M24.25,90.11c-9.14,0-15.95-4.7-15.95-15.94v-18H0V46.41c9.14-2.38,13-10.24,13.4-17h9.48V44.82H34V56.16H22.88V71.84c0,4.7,2.38,6.32,6.15,6.32h5.36v12Zm34,.53c5.18,0,11.16-2.24,14.41-6.24v5.71H89.69V80.4H85.34V44.82H64.7v9.89h5.89V71.84c0,1.36-1.15,7.11-8.88,7.11-5,0-5.88-3-5.88-6.76V44.82H40.63v28C40.63,79.79,43.79,90.64,58.2,90.64Zm36.94-.53h25V80.4H115V63.49C115,61,117.15,56,123.56,56c5.18,0,6.24,3.16,6.24,6.9V80.4h-5.06v9.71h24.82V80.4h-5.18V63.49c0-2.46,1.89-7.51,8.34-7.51,5.23,0,6.5,3.16,6.5,6.9V80.4h-5v9.71H179V80.4h-5.06V64.59c0-9.31-3.51-20.29-17.39-20.29-6.85,0-12.47,3.25-14.85,7.24-3-4.52-7.51-7.24-14.27-7.24-5.36,0-11.24,2.28-14.41,6.63V44.82H94.22v9.89h6.06V80.4H95.14Zm115.52.53c12.65,0,19.46-9.49,19.46-23.72,0-13.66-6.33-22.62-19.2-22.62a20.32,20.32,0,0,0-11.77,3.82V29.36H178.24v9.8h6.07v51h13.92v-4A19,19,0,0,0,210.66,90.64Zm-3.16-11c-4.44,0-8.79-2.81-8.79-11.68,0-10.67,5.14-12.56,8.7-12.56,4.13,0,7.77,3.33,7.77,11.64C215.18,79,209.82,79.35,207.5,79.61Zm25.34,10.5H258V80.4h-5.36v-51H231.92v9.8H238V80.4h-5.14Zm30.66,0h24.73V80.4h-5.05V67.75c0-8.61,6.06-10.49,10.67-10.49H300v-13h-5c-5.63,0-10.81,2.72-13.14,7.07V44.82H263.06v9.89h5.45V80.4h-5Z"/></svg>