<svg id="Camada_1" data-name="Camada 1" xmlns="http://www.w3.org/2000/svg" viewBox="0 0 300 120"><defs><style>.cls-1{fill:#fff;}</style></defs><title>tunein</title><g id="TuneIn-Marquee-Page-1"><g id="TuneIn-Marquee"><path id="TuneIn_Marquee" data-name="TuneIn Marquee" class="cls-1" d="M259.4,28.4a1.11,1.11,0,0,0-1.1-1.1h-5.5a1.11,1.11,0,0,0-1.1,1.1V48.9a.26.26,0,0,1-.5.1l-7.5-20.7a1.35,1.35,0,0,0-1.4-1H236a1.11,1.11,0,0,0-1.1,1.1v36a1.11,1.11,0,0,0,1.1,1.1h5.5a1.11,1.11,0,0,0,1.1-1.1V45.5a.26.26,0,0,1,.5-.1l7.4,19.1a1.45,1.45,0,0,0,1.5.9h6.4a1.11,1.11,0,0,0,1.1-1.1V28.4ZM228.8,59.2a1.11,1.11,0,0,0-1.1-1.1h-4.6a.47.47,0,0,1-.5-.5V35.2a.47.47,0,0,1,.5-.5h4.1a1.11,1.11,0,0,0,1.1-1.1V28.4a1.11,1.11,0,0,0-1.1-1.1H210.3a1.11,1.11,0,0,0-1.1,1.1v5.2a1.11,1.11,0,0,0,1.1,1.1h4.1a.47.47,0,0,1,.5.5V57.6a.47.47,0,0,1-.5.5h-4.6a1.11,1.11,0,0,0-1.1,1.1v5.2a1.11,1.11,0,0,0,1.1,1.1h18a1.11,1.11,0,0,0,1.1-1.1V59.2ZM180,35.5H22.5a.68.68,0,0,0-.7.7v75a.68.68,0,0,0,.7.7H179.3a.68.68,0,0,0,.7-.7ZM286.4,4.1V88.6a4.06,4.06,0,0,1-4.1,4.1H188.2v23.2a4.06,4.06,0,0,1-4.1,4.1H17.7a4.06,4.06,0,0,1-4.1-4.1V31.4a4.06,4.06,0,0,1,4.1-4.1H180V4.1A4.06,4.06,0,0,1,184.1,0h98.2A4.12,4.12,0,0,1,286.4,4.1Zm-130.6,81H142.9a.47.47,0,0,1-.5-.5V78a.47.47,0,0,1,.5-.5h12.3a1.11,1.11,0,0,0,1.1-1.1V70.9a1.11,1.11,0,0,0-1.1-1.1H142.9a.47.47,0,0,1-.5-.5V62.8a.47.47,0,0,1,.5-.5h12.7a1.11,1.11,0,0,0,1.1-1.1V55.7a1.11,1.11,0,0,0-1.1-1.1H135.8a1.11,1.11,0,0,0-1.1,1.1v36a1.11,1.11,0,0,0,1.1,1.1h20a1.11,1.11,0,0,0,1.1-1.1V86.2A1.11,1.11,0,0,0,155.8,85.1ZM127.6,54.5h-5.5a1.11,1.11,0,0,0-1.1,1.1V76.1a.26.26,0,0,1-.5.1L113,55.5a1.35,1.35,0,0,0-1.4-1h-6.5a1.11,1.11,0,0,0-1.1,1.1v36a1.11,1.11,0,0,0,1.1,1.1h5.5a1.11,1.11,0,0,0,1.1-1.1V72.8a.26.26,0,0,1,.5-.1l7.4,19.1a1.45,1.45,0,0,0,1.5.9h6.4a1.11,1.11,0,0,0,1.1-1.1v-36A1,1,0,0,0,127.6,54.5Zm-30.8,0H91.3a1.11,1.11,0,0,0-1.1,1.1V81.2c0,2.4-2,4.4-5.3,4.4s-5.2-2-5.2-4.4V55.6a1.11,1.11,0,0,0-1.1-1.1H73.1A1.11,1.11,0,0,0,72,55.6V81.2c0,6.6,5.5,12.1,12.9,12.1s13-5.5,13-12.1V55.6A1.11,1.11,0,0,0,96.8,54.5Zm-30,1.1v5.5a1.11,1.11,0,0,1-1.1,1.1H58.9a.47.47,0,0,0-.5.5V91.6a1.11,1.11,0,0,1-1.1,1.1H51.8a1.11,1.11,0,0,1-1.1-1.1V62.7a.47.47,0,0,0-.5-.5H43.4a1.11,1.11,0,0,1-1.1-1.1V55.6a1.11,1.11,0,0,1,1.1-1.1H65.8a1.1,1.1,0,0,1,1,1.1Z"/></g></g></svg>