<svg id="Camada_1" data-name="Camada 1" xmlns="http://www.w3.org/2000/svg" viewBox="0 0 300 120"><defs><style>.cls-1{fill:#fff;}</style></defs><title>twitch</title><path class="cls-1" d="M274.9,26.9H256.8V11.8H229.7L211.6,26.9H195l-7.5,7.5V26.9H172.4V11.8H118.2V26.9h-60L43.1,11.8H10V78L25.1,93.8l27.1,14.3H70.3v-4.5l9,4.5h36.1l6-9,3,9h21.1v-9l9,9h24.1l1.5-9,7.5,9h30.1l9-9v9h12l9-9v9h21.1l21.2-18V41.9ZM49.1,51h-15V69H49.2V87.1H28.1l-12-12V17.8H34.2V32.9H49.3V51Zm69.3,25.6L107.9,87.1H55.2V32.9H73.3V69h6V32.9H97.4V69h6V32.9h15.1V76.6Zm24.1,10.5H124.4V32.9h18.1Zm0-60.2H124.4v-9h18.1ZM181.6,51H166.5V69h15.1V87.1H160.5l-12-12V17.8h18.1V32.9h15.1V51Zm45.2,0H205.7V69h21.1V87.1H199.7l-12-12V44.9l12-12h27.1ZM284,87.1H265.9V51H250.8V87.1H232.7V17.8h18.1V32.9h21.1l12,12V87.1Z"/></svg>