<svg id="Camada_1" data-name="Camada 1" xmlns="http://www.w3.org/2000/svg" viewBox="0 0 300 120"><defs><style>.cls-1{fill:#fff;}</style></defs><title>twitter</title><g id="_ffffffff" data-name="#ffffffff"><path class="cls-1" d="M165.82,6.86c10.14-4.05,22.23-1,29.77,6.73,6.22-.46,12.36-3.5,17.86-6.55a28.63,28.63,0,0,1-12.24,15.4c5.52-.46,10.8-2.29,15.91-4.32a58,58,0,0,1-13.83,14.33,82.11,82.11,0,0,1-22.52,59.29,74.3,74.3,0,0,1-38.63,21.43c-20.36,4.39-42.53.83-60-10.64A55.65,55.65,0,0,0,123.07,91c-11.72.12-22.32-8.3-26-19.22a29.35,29.35,0,0,0,12.13-.25c-1.94-1.51-4.67-1.39-6.72-2.77-9.3-4.66-15-14.78-15.13-25.06a33.15,33.15,0,0,0,12.93,3.72c-12.13-7.65-16.2-25-8.76-37.29,13.77,17.26,35.07,27.9,57.05,29.16C145.11,26.14,153,11.35,165.82,6.86Z"/></g></svg>