<?xml version="1.0" encoding="utf-8"?>
<!-- Generator: Adobe Illustrator 23.1.0, SVG Export Plug-In . SVG Version: 6.00 Build 0)  -->
<svg version="1.1" id="Camada_1" xmlns="http://www.w3.org/2000/svg" xmlns:xlink="http://www.w3.org/1999/xlink" x="0px" y="0px"
	 viewBox="0 0 300 120" style="enable-background:new 0 0 300 120;" xml:space="preserve">
<path d="M26.1,45.5h18.5v21.1H26.1v5.3h18.5V93h-29L5,82.4V27h21.1V45.5z M102.5,45.5h21.1V93H60.4L49.8,82.4V45.5h21.1v26.4h5.3
	V45.5h21.1v26.4h5.3V45.5z M128.9,45.5H150V93h-21.1V45.5z M128.9,27H150v13.2h-21.1V27z M210.6,45.5h31.6v21.1h-21.1v5.3h21.1V93
	h-31.6l-10.5-10.5V56L210.6,45.5z M284.5,45.5L295,56V93h-21.1V66.6h-5.3V93h-21.1V27h21.1v18.5H284.5z M176.4,45.5h18.5v21.1h-18.5
	v5.3h18.5V93h-29l-10.5-10.5V27h21.1V45.5z"/>
</svg>
