<svg xmlns="http://www.w3.org/2000/svg" viewBox="0 0 300 120"><defs><style>.a{fill:#fff;}</style></defs><title>unsplash</title><polygon class="a" points="39.3 51.21 57.34 51.21 57.34 83.16 0 83.16 0 51.21 18.04 51.21 18.04 67.15 39.23 67.15 39.23 51.21 39.3 51.21"/><path class="a" d="M100.31,67.54c0,5.45-3.55,8.6-8.47,8.6s-8.39-3.22-8.39-8.6V41.83h-8V67.48C75.44,77.58,82.66,84,91.91,84s16.47-6.43,16.47-16.53V41.83h-8V67.54Z"/><path class="a" d="M129,53.7A9.44,9.44,0,0,0,120.71,58V54.49h-7.48V83.16H121V66.63c0-3.35,2-6,5.38-6,3.74,0,5.31,2.49,5.31,5.7V83.09h7.75v-18c-.07-6.3-3.35-11.35-10.44-11.35"/><path class="a" d="M157.38,65.77l-4.26-.85c-1.64-.33-2.63-1.18-2.63-2.56,0-1.64,1.45-2.82,3.48-2.82,2.89,0,4,1.44,4.26,3.22h6.69c-.06-3.94-3.14-9.06-10.82-9.06-6.17,0-10.69,4.27-10.69,9.38,0,4,2.49,7.35,8,8.53l3.94.85c2.23.46,3.08,1.51,3.08,2.83,0,1.5-1.38,2.82-3.94,2.82-3.08,0-4.79-1.77-5.18-3.81h-6.89c.4,4.27,3.48,9.71,12.14,9.71,7.48,0,11.28-4.79,11.28-9.45.07-4.19-2.82-7.61-8.46-8.79"/><path class="a" d="M185.59,53.83c-4.33,0-7.48,2-8.79,4.2V54.49h-7.48V94.18h7.74V80.34c1.38,1.9,4.33,3.47,8.27,3.47,8.07,0,13.51-6.43,13.51-15.08C198.84,60.26,194,53.83,185.59,53.83Zm-1.44,23c-3.94,0-7.15-3-7.15-8.07s3.21-8,7.15-8,7.08,3,7.08,8S188.08,76.86,184.15,76.86Z"/><path class="a" d="M235.84,54.49h-.06V58c-1.38-2.23-4.47-4.2-8.8-4.2-8.33,0-13.18,6.37-13.18,14.9s5.44,15.08,13.51,15.08c3.94,0,7-1.9,8.27-4.19v3.54h7.74V54.49Zm-7.28,22.37c-3.94,0-7.09-3-7.09-8.07s3.15-8,7.09-8,7.15,3,7.15,8S232.5,76.86,228.56,76.86Z"/><rect class="a" x="202.45" y="41.83" width="7.74" height="41.26"/><path class="a" d="M289.31,53.7c-2.76,0-5.91.92-7.74,3.15v-15h-7.75V83.09h7.75V66.3c.19-3.15,2.09-5.58,5.38-5.58,3.73,0,5.31,2.49,5.31,5.71V83.16H300v-18c-.07-6.37-3.41-11.42-10.69-11.42"/><path class="a" d="M261.75,65.77l-4.26-.85c-1.64-.33-2.62-1.18-2.62-2.56,0-1.64,1.44-2.82,3.47-2.82,2.89,0,4,1.44,4.27,3.22h6.69c-.07-3.94-3.15-9.06-10.83-9.06-6.16,0-10.69,4.27-10.69,9.38,0,4,2.49,7.35,8,8.53l3.94.85c2.23.46,3.08,1.51,3.08,2.83,0,1.5-1.37,2.82-3.93,2.82-3.09,0-4.79-1.77-5.19-3.81H246.8c.39,4.27,3.47,9.71,12.13,9.71,7.48,0,11.29-4.79,11.29-9.45.06-4.19-2.82-7.61-8.47-8.79"/><polygon class="a" points="39.3 25.82 18.04 25.82 18.04 41.83 39.23 41.83 39.23 25.82 39.3 25.82"/></svg>