<svg id="artwork_outlined_" data-name="artwork outlined " xmlns="http://www.w3.org/2000/svg" viewBox="0 0 300 120"><title>upwork</title><path d="M194.07,36a24,24,0,1,0,24,24h0A23.94,23.94,0,0,0,194.07,36Zm0,38.28A14.25,14.25,0,0,1,179.82,60a14.25,14.25,0,0,1,28.49-.3h0a14.31,14.31,0,0,1-14.24,14.54Z"/><path d="M247.48,47.54A12.54,12.54,0,0,0,235,60V82.85H224.63V37.45H235v7.12a16.1,16.1,0,0,1,13.36-7.12h3.26V47.54Z"/><polygon points="143.03 37.45 150.74 68.9 159.35 37.45 169.44 37.45 156.38 82.85 145.99 82.85 137.98 51.1 129.97 82.85 119.58 82.85 106.53 37.45 116.62 37.45 125.22 68.9 133.23 37.45 143.03 37.45"/><path d="M281.9,58.22a23.5,23.5,0,0,0,12.17-21.07H284A13.62,13.62,0,0,1,270.33,50.8h-1.49V15.49H258.46V82.85h10.38V61.48H270A3.67,3.67,0,0,1,273,63l14.54,19.88H300Z"/><path d="M81.9,36C70.62,36,62,43.38,58.46,55.25A94.36,94.36,0,0,1,46.59,29.14H34.42V60.59a11.28,11.28,0,1,1-22.55,0V29.44H0V60.89a23.44,23.44,0,0,0,46.88,0V55.55a87.41,87.41,0,0,0,8.61,14.24l-7.42,34.72H60.53l5.35-25.22a28.68,28.68,0,0,0,16.32,5,23.93,23.93,0,0,0,24-24C105.93,46.94,95.25,36,81.9,36Zm0,36.21a23,23,0,0,1-13.65-5.35l.89-4.74v-.3C70,56.74,73,48.13,81.6,48.13c6.53-.3,11.87,5,12.17,11.57s-5,11.87-11.57,12.17l-.3.3Z"/></svg>