<svg id="Camada_1" data-name="Camada 1" xmlns="http://www.w3.org/2000/svg" viewBox="0 0 300 120"><defs><style>.cls-1{fill:#fff;}</style></defs><title>viewster</title><g id="_ffffffff" data-name="#ffffffff"><path class="cls-1" d="M121.11,36.31a8.71,8.71,0,0,1,4.8-.4,4.25,4.25,0,0,1,3.4,3.8c.2,2,.1,4.3-1.6,5.69a8,8,0,0,1-7.2.1c-2-1.29-1.9-3.79-1.7-5.79A3.85,3.85,0,0,1,121.11,36.31Z"/><path class="cls-1" d="M232,41.81c1-1.4,3.1-.6,4.5-.8,1.6.2,3.8-.6,5,.8a49.8,49.8,0,0,1,.1,6.69c1.9.1,3.9-.1,5.8.1,1.5.8.6,2.8.9,4.1-.1,1.2.5,3.3-1.2,3.5s-3.6,0-5.5.1c.1,4.3-.1,8.5.1,12.8.3,1.8,2.5,1.4,3.8,1.5,1.1.1,2.7-.4,3.3.8a12.75,12.75,0,0,1,.2,3.89c-.1,1.1.2,2.5-.7,3.3-2.6.2-5.2,0-7.8.1-2.4,0-5-.3-6.7-2-1.6-1.5-1.7-3.79-1.9-5.79-.1-4.8,0-9.6,0-14.4-1.6-.1-3.3.3-4.8-.5V50.4a26.72,26.72,0,0,1,4.8-1.5C231.87,46.4,231.57,44,232,41.81Z"/><path class="cls-1" d="M7.85,44.31c6-1.2,12.09-1,18.09-.9,3.5.3,7.4.3,10.5,2.29,2.8,1.8,3.7,5.3,4,8.4a152.16,152.16,0,0,1-.1,19.1c-.4,3.19-1.2,7-4.1,8.79s-6.5,1.9-9.8,2.1H16c-3.6-.1-7.3-.3-10.7-1.8A8.15,8.15,0,0,1,1.15,77C.05,72.6.15,67.9.05,63.2S0,53.9,1.45,49.6a8.45,8.45,0,0,1,6.4-5.29m6.7,9.49c-1.4.4-1.8,2.1-2.1,3.4a43.92,43.92,0,0,0-.3,8.1c.1,2.7-.1,5.6,1.5,7.9a2.9,2.9,0,0,0,3.39.7c3-.9,5.6-2.6,8.3-4.2,2-1.3,4.2-2.6,5.6-4.6.9-1.8-.4-3.5-1.8-4.5a63.07,63.07,0,0,0-10-6C17.64,54.2,16.05,53.3,14.55,53.8Z"/><path class="cls-1" d="M136.8,50.5c3.5-2.6,8-2.6,12.2-2.4,3.3.2,6.9,1.6,8.4,4.7,2,4,1.7,8.5,1.7,12.8a1.46,1.46,0,0,1-1.6,1.3c-5,.1-9.9,0-14.9,0,.1,1.4.3,3.2,1.9,3.7,3.9,1.2,8.1.2,12-.5,1.3.1,1.3,1.6,1.5,2.5a25.68,25.68,0,0,1,.4,4c-.8,1-2.2,1.2-3.3,1.6a33.78,33.78,0,0,1-14.5.2,9.34,9.34,0,0,1-6.69-5.49c-1.4-3.9-1-8.2-1-12.3.1-3.5.9-7.6,3.89-10.1m5.8,10.1c2.4,0,4.7.1,7.1,0,.6-1.1.2-2.6.1-3.8-.7-2.2-3.6-2.1-5.4-1.5C142.3,56.1,142.7,58.8,142.6,60.6Z"/><path class="cls-1" d="M209.68,48.6c4.4-.9,8.9-.4,13.2.2.9.3,2.29.3,2.39,1.4-.3,2-.5,4-.9,6-.3.8-1.39.4-2,.3a21.61,21.61,0,0,0-8.4-.6,1.59,1.59,0,0,0-.5,2.9c3.3,1.5,7.4,1.1,10.4,3.4,1.89,1.4,2.39,3.8,2.39,6,.1,2.5-.1,5.2-1.7,7.29a9.26,9.26,0,0,1-6.09,3.3,34,34,0,0,1-12.7-.6c-1.2-.4-2.5-.6-3.4-1.5a23.65,23.65,0,0,1,1.1-5.89c.2-1.2,1.5-.9,2.3-.6a19.21,19.21,0,0,0,9.5,1.1c1.3-.3,1.8-2.6.4-3-3.7-1.6-8.3-1.1-11.2-4.3-2-2.6-1.7-6.1-1.3-9.1A8.12,8.12,0,0,1,209.68,48.6Z"/><path class="cls-1" d="M254.66,51c3-2.8,7.4-3,11.2-2.9,3.4.1,7.2.9,9.2,3.9,2.7,3.9,2.1,8.9,2.2,13.3.1.9-.5,1.9-1.5,1.7-5,.1-10,0-15,0,0,1.6.6,3.4,2.3,3.8,3.7,1,7.6.2,11.3-.6.8-.4,1.6.4,1.6,1.2.2,1.7.9,3.39.7,5.19a7.29,7.29,0,0,1-3.3,1.6,35.92,35.92,0,0,1-14.6.3,9.29,9.29,0,0,1-6.49-5.19c-1.6-3.5-1-7.4-1.2-11.1,0-3.9.6-8.3,3.59-11.2m7.6,4.5c-1.5,1.2-1.2,3.3-1.3,5,2.5-.1,5.1.2,7.5-.2-.1-1.7.2-4.1-1.6-5.1A5.7,5.7,0,0,0,262.26,55.5Z"/><path class="cls-1" d="M87.62,49.1a4.65,4.65,0,0,1,2.3-.6c2.2.1,4.3-.1,6.5.1.8.4.8,1.3,1,2,1.6,5.9,3.2,11.7,5.1,17.5,1.8-4.5,2.8-9.4,4.09-14.1.6-1.8.5-4.1,1.9-5.4,2.5-.2,5-.1,7.4-.1a1.14,1.14,0,0,1,1.1,1.6,256,256,0,0,1-8.4,25.69c-.5,1-.7,2.7-2.2,2.7-2.69,0-5.39.1-8,0-1.1,0-1.4-1.2-1.8-2a200.39,200.39,0,0,1-8.2-23.69A15.25,15.25,0,0,1,87.62,49.1Z"/><path class="cls-1" d="M119.11,50.3a1.56,1.56,0,0,1,1.8-1.7h6.5c1.1-.1,1.7,1.2,1.6,2.1-.1,8.7,0,17.4,0,26a2.57,2.57,0,0,1-.7,1.8q-3.9.15-7.8,0a1.53,1.53,0,0,1-1.4-1.8Z"/><path class="cls-1" d="M160.1,50.2a1.2,1.2,0,0,1,1.4-1.6c2.5.1,5-.2,7.39.1,1.1,1,.9,2.6,1.2,3.9.4,3.6,1.2,7.1,1.7,10.7a24.43,24.43,0,0,0,1.2,5.2c.8-5.7,2.2-11.3,2.9-17a1.54,1.54,0,0,1,1.6-1.4h7c.9-.1,1.5.8,1.6,1.6,1,5.6,2.1,11.3,3.4,16.8.8-5.1,1.6-10.1,2.4-15.1.3-1.5,0-3.5,1.2-4.7a71,71,0,0,1,8,0c1,.2.8,1.4.6,2.1-1.7,8.5-3.6,17-6,25.29a4.86,4.86,0,0,1-1.39,2.5c-2.8.2-5.5,0-8.3.1a1.81,1.81,0,0,1-1.9-1c-1.1-4.39-1.9-8.89-2.7-13.29-.2-1,0-2.1-.6-3-.9,5.2-1.8,10.4-3,15.49-.2.7-.6,1.8-1.5,1.8-2.7.1-5.3,0-8,0-1.2.2-1.8-1.1-2.1-2.1C163.8,67.8,161.8,59.1,160.1,50.2Z"/><path class="cls-1" d="M281.06,50.2a1.42,1.42,0,0,1,1.4-1.6,27.57,27.57,0,0,1,5,.1c1,.8,1,2.2,1.4,3.3,2.3-3.8,7.3-3.9,11.2-3v7c-1.9,1.3-4.4.1-6.4,1-2,.3-2.7,2.5-2.7,4.3v15a2.75,2.75,0,0,1-.6,2.2,59.15,59.15,0,0,1-7.29.1c-.9.1-1.9-.4-1.8-1.4C281.06,68.2,281.06,59.2,281.06,50.2Z"/><path class="cls-1" d="M59.13,52.1a4,4,0,0,1,4.2.7,7.26,7.26,0,0,1,1.4,3.4,59.33,59.33,0,0,1-.1,16.3c-.4,1.4-1,3.19-2.7,3.39-2.6.4-4.9-1.1-7.1-2.09-3.6-2-7.2-3.9-10.29-6.6-1.4-1.2-2.6-3.2-1.5-4.9,1.3-2.2,3.59-3.5,5.69-4.9C52,55.4,55.33,53.2,59.13,52.1Z"/></g></svg>