<svg id="Camada_1" data-name="Camada 1" xmlns="http://www.w3.org/2000/svg" viewBox="0 0 300 120"><defs><style>.cls-1{fill-rule:evenodd;}</style></defs><title>vimeo</title><path class="cls-1" d="M236.67,80.77c-.06-.58-.11-1.16-.14-1.75q-.71-12,8.72-22.11a32.84,32.84,0,0,1,25.45-11.2q9.84,0,14.9,6.58,4.78,6,4.37,15.53a33.29,33.29,0,0,1-9.57,22.26A29.73,29.73,0,0,1,258,99.45q-11.1,0-16.87-7.14a19.61,19.61,0,0,1-2.24-3.52c-1,.64-2.1,1.27-3.17,1.87q-14.89,8.53-30.23,8.53-11.39,0-16.31-7.56c-.24-.36-.47-.72-.69-1.09l-.3.27q-9.42,8.11-18.84,8.12-9.15,0-8.86-10.08a50.54,50.54,0,0,1,1.76-10.79,51,51,0,0,0,1.76-9.81c.09-3.54-1-5.32-3.25-5.32q-3.68,0-8.75,8.69-5.36,9.12-5.78,17.66c-.19,4,.21,7.11,1.18,9.25q-9.81.28-13.74-3.22c-2.34-2.06-3.41-5.46-3.22-10.23a37.75,37.75,0,0,1,1.38-9,36.52,36.52,0,0,0,1.38-8q.28-5.19-3.8-5.19-3.52,0-7.61,8a40.65,40.65,0,0,0-4.5,16.68q-.28,7.84,1,10.93-9.65.28-13.71-4A11.26,11.26,0,0,1,102,89.33c-.53.5-1.07,1-1.62,1.48Q91,98.93,81.58,98.93a8.16,8.16,0,0,1-6.68-2.8,10.44,10.44,0,0,1-2.18-7.28q.14-4.62,2.88-14.29t2.74-10.37q0-3.64-2.53-3.64-.8,0-4.34,2.61-2.67,8-11.65,19.48Q47.06,99.19,38.21,99.19q-5.48,0-9.26-10.08L23.9,70.63q-2.82-10.08-6-10.08-.69,0-4.91,2.94L10,59.7q4.61-4,9.14-8.12,6.18-5.32,9.28-5.61,7.3-.7,9,10Q39.24,67.44,40,70.25c1.4,6.37,2.95,9.54,4.64,9.54q2,0,5.9-6.19t4.22-9.43c.38-3.56-1-5.35-4.22-5.35a11.75,11.75,0,0,0-4.63,1Q50.48,44.76,63.5,45.19q8.69.26,9.1,10.17l4.19-3.78q6-5.32,9-5.61,4.64-.42,6.81,2.72t1.62,8.17Q92.4,65.4,90.29,78.51q-.14,6,4.36,6,2,0,7-4.15l.13-.1q.31-2.92,1-7a78.4,78.4,0,0,0,1.29-10.13c.19-1.67-.24-2.51-1.26-2.51-.57,0-2.16.94-4.79,2.83l-3.37-3.78c.47-.37,3.42-3.09,8.86-8.13,3.93-3.64,6.61-5.51,8-5.61a6.25,6.25,0,0,1,5.91,3,13.24,13.24,0,0,1,2.25,7.64,12.71,12.71,0,0,1-.28,2.67,25.82,25.82,0,0,1,4.92-5.61,25,25,0,0,1,14.48-6.31q6.9-.55,9.85,3.23c1.59,2,2.34,5,2.25,8.83.71-.61,1.41-1.21,2.11-1.83a37.11,37.11,0,0,1,6.32-6,20.94,20.94,0,0,1,10.83-4.21q6.75-.55,9.7,3.21c1.69,2.05,2.44,5,2.26,8.8a65.06,65.06,0,0,1-1.9,11.38,71.85,71.85,0,0,0-1.76,8.59,7.46,7.46,0,0,0,.56,4.05c.47.74,1.59,1.11,3.38,1.11A7.58,7.58,0,0,0,186,83a25.13,25.13,0,0,1-.18-3.68Q186,68,196,57.71q11-11.2,25.87-11.21,13.77,0,14.62,11.19.57,7.13-7.87,14.68-9,8.25-22.64,10.48,2.52,3.5,7.59,3.5,10.13,0,22.08-5.13l1-.45Zm37.4-13.47a17.5,17.5,0,0,0-1.05-7c-.8-2.1-1.95-3.16-3.45-3.16q-7.17,0-11.8,7.73a27,27,0,0,0-4.22,13.48,11.92,11.92,0,0,0,1.26,6.18q1.55,3.09,4.36,3.09,6.33,0,10.83-7.45a26.51,26.51,0,0,0,4.08-12.91Zm-54.2-4.72c.09-2.5-.94-3.76-3.09-3.76q-4.22,0-8.56,5.79t-4.49,11.08a7,7,0,0,0,0,1.82,31.79,31.79,0,0,0,11.93-7.67C218.37,66.87,219.78,64.44,219.87,62.58ZM99,27.52c-.09,2.32-1.26,4.56-3.52,6.69a12.57,12.57,0,0,1-9,3.63q-8,0-7.74-7c.09-2.42,1.52-4.74,4.29-7a14.29,14.29,0,0,1,9.21-3.34,6.25,6.25,0,0,1,4.93,2.3A6.55,6.55,0,0,1,99,27.52Z"/></svg>