<svg id="Camada_1" data-name="Camada 1" xmlns="http://www.w3.org/2000/svg" viewBox="0 0 300 120"><defs><style>.cls-1{fill:#fff;}</style></defs><title>vimeo</title><path class="cls-1" d="M67.1,57.5C66.7,64,62.21,73,53.41,84.3c-9.1,11.9-16.8,17.79-23.1,17.79q-5.85,0-9.9-10.79c-1.8-6.6-3.6-13.2-5.4-19.9-2-7.2-4.2-10.8-6.5-10.8-.5,0-2.2,1.1-5.3,3.2L0,59.7c3.3-2.9,6.6-5.8,9.8-8.7q6.6-5.7,9.9-6c5.2-.5,8.4,3.1,9.6,10.7,1.3,8.2,2.2,13.4,2.7,15.4,1.5,6.8,3.2,10.2,5,10.2,1.4,0,3.5-2.2,6.3-6.7s4.3-7.8,4.5-10.1c.4-3.8-1.1-5.8-4.5-5.8a13.26,13.26,0,0,0-5,1.1C41.71,49,48,43.7,57.31,44c6.9.3,10.09,4.7,9.79,13.5m41.39,21.1a52.5,52.5,0,0,1-11.6,14.5c-6.7,5.8-13.49,8.69-20.19,8.69a8.9,8.9,0,0,1-7.2-3c-1.7-2-2.4-4.6-2.3-7.8s1.1-8.4,3.1-15.4c1.15-3.65,2.12-7.36,2.9-11.1q0-3.9-2.7-3.9c-.6,0-2.3,1.1-5.1,3.2l-3.49-4.1c3.19-2.9,6.39-5.8,9.69-8.7q6.45-5.7,9.6-6c3.3-.3,5.79.7,7.29,2.9s2.1,5.2,1.7,8.8c-1.3,6.1-2.7,13.9-4.2,23.3-.1,4.3,1.5,6.5,4.7,6.5q2.1,0,7.5-4.5a64.48,64.48,0,0,0,7.4-7l2.9,3.6M95.29,25.1c-.1,2.5-1.3,4.9-3.8,7.2a13.35,13.35,0,0,1-9.59,3.9c-5.7,0-8.5-2.5-8.3-7.5.1-2.6,1.6-5.1,4.6-7.5a15.28,15.28,0,0,1,9.89-3.6,6.56,6.56,0,0,1,5.3,2.5,6.82,6.82,0,0,1,1.9,5m107.3,53.6A52.87,52.87,0,0,1,191,93.2c-6.7,5.8-13.5,8.69-20.2,8.69-6.5,0-9.7-3.59-9.5-10.79a52.34,52.34,0,0,1,1.9-11.6,50.93,50.93,0,0,0,1.9-10.6c.1-3.8-1.1-5.7-3.5-5.7-2.6,0-5.8,3.1-9.4,9.3-3.8,6.5-5.9,12.9-6.2,19-.2,4.3.2,7.6,1.3,9.89-7,.2-11.9-1-14.7-3.49-2.5-2.2-3.6-5.9-3.5-11a40,40,0,0,1,1.5-9.6,38.09,38.09,0,0,0,1.5-8.6c.2-3.7-1.2-5.6-4.1-5.6-2.5,0-5.2,2.9-8.1,8.6a44,44,0,0,0-4.8,17.9c-.2,5.6.2,9.6,1.1,11.69-6.9.2-11.8-1.19-14.7-4.39-2.4-2.6-3.5-6.6-3.3-11.9a92.81,92.81,0,0,1,1.4-10.9A91.26,91.26,0,0,0,101,63.2c.2-1.8-.2-2.7-1.3-2.7-.6,0-2.3,1-5.1,3.1L91,59.5c.5-.4,3.7-3.3,9.5-8.7,4.2-3.9,7.1-5.9,8.6-6a6.61,6.61,0,0,1,6.3,3.3,14.29,14.29,0,0,1,2.4,8.2,12.93,12.93,0,0,1-.3,2.9,27.84,27.84,0,0,1,5.3-6,26.88,26.88,0,0,1,15.5-6.8c4.9-.4,8.4.8,10.6,3.5,1.7,2.2,2.5,5.4,2.4,9.5.7-.6,1.5-1.3,2.2-2a40.22,40.22,0,0,1,6.8-6.5,22.32,22.32,0,0,1,11.6-4.5c4.8-.4,8.3.8,10.4,3.5,1.8,2.2,2.6,5.3,2.4,9.5a73.22,73.22,0,0,1-2,12.2,70.16,70.16,0,0,0-1.9,9.2c-.1,2.1.1,3.6.6,4.3s1.7,1.2,3.6,1.2q2.1,0,7.5-4.5a65.32,65.32,0,0,0,7.4-7l2.7,3.9m56.48-.2c-2.9,4.8-8.69,9.6-17.19,14.4-10.69,6.1-21.49,9.19-32.39,9.19-8.1,0-14-2.69-17.5-8.09a22.38,22.38,0,0,1-3.6-13.3c.1-8.1,3.7-15.9,10.8-23.2,7.8-8,17.1-12.1,27.7-12.1,9.79,0,15.09,4,15.69,12,.4,5.1-2.4,10.4-8.39,15.8-6.4,5.9-14.5,9.7-24.3,11.3,1.8,2.5,4.5,3.7,8.1,3.7,7.2,0,15.1-1.8,23.69-5.5a66,66,0,0,0,14.49-8.1l2.9,3.9M224.89,62.8c.1-2.7-1-4.1-3.3-4.1-3,0-6.1,2.1-9.2,6.2s-4.7,8.1-4.8,11.9c-.1,0-.1.7,0,1.9a35.3,35.3,0,0,0,12.8-8.2c2.8-3.2,4.3-5.7,4.5-7.7M300,68.4a35.84,35.84,0,0,1-10.2,23.9,31.78,31.78,0,0,1-23.9,10.09c-7.9,0-14-2.59-18.09-7.69a24.62,24.62,0,0,1-5-14.3c-.5-8.6,2.6-16.6,9.3-23.8q10.78-12,27.29-12c7,0,12.3,2.4,16,7.1,3.3,4.3,4.8,9.9,4.6,16.7m-17.1-.6a20.13,20.13,0,0,0-1.1-7.5c-.8-2.3-2.1-3.4-3.7-3.4-5.1,0-9.3,2.8-12.7,8.3a29.45,29.45,0,0,0-4.5,14.5,13.5,13.5,0,0,0,1.3,6.7c1.1,2.2,2.7,3.3,4.7,3.3,4.5,0,8.4-2.7,11.6-8a27.36,27.36,0,0,0,4.4-13.9Z"/></svg>