<svg id="Camada_1" data-name="Camada 1" xmlns="http://www.w3.org/2000/svg" viewBox="0 0 300 110"><defs><style>.cls-1{fill:#fff;}</style></defs><title>vk</title><g id="_ffffffff" data-name="#ffffffff"><path class="cls-1" d="M119.59,11.92c2.3-5.08,8.21-6.79,13.36-6.75,7.64,0,15.28-.17,22.91.12,3.69.19,8.28,1.48,9.28,5.57.41,9,.55,18.14-.72,27.12-.18,4.79-.44,10.07,2.33,14.25,2.31,3,5.54-.34,7.29-2.24,7.8-9.11,13.28-20,18.27-30.78,1.64-3.46,2.57-8.15,6.58-9.63,11-.16,22.08,0,33.12-.06a4.46,4.46,0,0,1,4.92,3.35c.5,4.41-1.82,8.45-3.92,12.15-6.24,10.48-14.49,19.55-21.37,29.59a26.2,26.2,0,0,0-2.89,5.4c-.8,2.29,1,4.28,2.23,6,7.3,8.33,16.42,15,22.72,24.24,2,3.09,4,6.81,3.07,10.61-1.06,2.1-3.62,2.59-5.67,3.17-6.95,1.29-14.06.85-21.09.86-4.22-.11-8.71.45-12.59-1.6-8.91-4.45-13.49-13.89-21.06-19.94-2.08-1.7-5.54-2.87-7.47-.34-4.1,4.68-3.75,11.32-4.32,17.13-.38,3.07-3.87,4.4-6.6,4.09-8.61-.37-17.52,1.1-25.82-1.81-9.79-3.41-18.29-9.72-25.69-16.85-18.34-17.85-31-40.66-40.88-64-1.1-3.05-3.08-6.06-2.48-9.45a3.67,3.67,0,0,1,3.75-2.6C75.23,9.19,83.62,8.6,92,8.71c4.54.14,7.68,4.07,9.18,8C106,27.25,110.8,37.94,117.57,47.4c2.42,3,5.23,6.82,9.57,6.17,5.2-8.11,3.82-18.4,4-27.57C131.25,19.32,126.62,12.46,119.59,11.92Z"/></g></svg>