<?xml version="1.0" encoding="utf-8"?>
<!-- Generator: Adobe Illustrator 23.0.6, SVG Export Plug-In . SVG Version: 6.00 Build 0)  -->
<svg version="1.1" id="Camada_1" xmlns="http://www.w3.org/2000/svg" xmlns:xlink="http://www.w3.org/1999/xlink" x="0px" y="0px"
	 viewBox="0 0 300 120" style="enable-background:new 0 0 300 120;" xml:space="preserve">
<title>vudu</title>
<g id="Nav-Desktop_Tablet_Mobile">
	<g id="Desktop_1024_more_genres">
		<g id="VUDU_Small-Logo-Copy">
			<path id="Shape" d="M76.7,16.4H63.6c-2.2,0.1-4.2,1.5-5,3.6c-0.1,0.1-0.1,0.3-0.1,0.4c-5,15-9.3,27.6-14.3,42.5
				c-1.3,3.9-2.6,7.8-3.9,11.8c-0.1,0.4-0.4,0.7-0.7,0.9c-0.6,0.1-0.6-0.4-0.7-0.9c-3.1-9.3-6.3-18.6-9.3-27.9l-9-27
				c0-0.1-0.1-0.1-0.1-0.3c-0.9-1.9-2.8-3.2-4.9-3.2H2.1c-1.7,0-2.5,1.3-1.9,2.9c7.6,22.5,15.4,44.9,23.1,67.4
				c0.6,1.7,1.1,3.2,1.5,4.6c2.9,7.1,7.4,10.9,15.3,11.3h1.8c3-0.1,5.9-0.5,8.8-1.2L56.1,85c7.6-21.9,15-43.4,22.8-65.6
				c0.1-0.3,0.1-0.6,0.3-0.7C79.1,17.4,78,16.4,76.7,16.4"/>
			<path id="Shape-2" d="M150.6,22.3v-0.1c0-2.9-2.1-5.4-5-5.7h-13.8v51.3c0,1.5-0.1,3-0.4,4.5c-1.3,5.5-4.6,9.4-9.9,11
				c-5,1.8-10.7,0.6-14.5-3.2c-3.1-2.9-4.8-7-4.7-11.2V16.7H88.6c-2.9,0.3-5.1,2.8-5,5.7v47.1c0,2.5,0.3,5,0.8,7.4
				c3.9,17.7,20.7,29.5,38.7,26.1c8.3-1.5,15.7-6.2,20.6-13.1c4.3-5.7,6.7-12.7,6.8-19.9V45.3l0,0C150.5,38.2,150.6,29.4,150.6,22.3
				z"/>
			<path id="Shape-3" d="M300,22.3v-0.1c0-2.9-2.1-5.4-5-5.7h-13.8v51.3c0,1.5-0.1,3-0.4,4.5c-1.3,5.5-4.6,9.4-9.9,11
				c-5,1.8-10.7,0.6-14.5-3.2c-3.1-2.9-4.8-7-4.7-11.2V16.7H238c-2.9,0.3-5.1,2.8-5,5.7v47.1c0,2.5,0.3,5,0.8,7.4
				c3.9,17.7,20.7,29.5,38.7,26.1c8.3-1.5,15.7-6.2,20.6-13.1c4.3-5.7,6.7-12.7,6.8-19.9V45.3l0,0C300,38.2,300,29.4,300,22.3z"/>
			<path id="Shape-4" d="M209.2,23.2c-5.9-3.9-12.7-6.1-19.7-6.4c-3.3-0.1-6.5-0.1-9.9-0.1h-17.3c-3,0-5.4,2.5-5.4,5.5
				c0,0.1,0,0.1,0,0.2v74.5c-0.1,3,2.3,5.6,5.3,5.7c0,0,0.1,0,0.1,0h26.1c2,0,4-0.2,6-0.6c7.9-1.3,15.2-4.9,20.9-10.5
				c11.1-10.7,15.6-24.1,12.9-39.6C226.2,40.1,219.3,29.6,209.2,23.2 M203.6,76.3c-3.6,4.5-8.8,7.4-14.5,8c-1.1,0.1-2.2,0.1-3.3,0.1
				h-9.7c-1.3,0-1.3,0-1.3-1.2V35.7c0-1.2,0-1.2,1.1-1.2c3.9,0,7.9-0.1,11.8,0.1c7.4,0.4,13.2,3.9,17.4,10.2
				c2.5,3.9,3.9,8.3,4.2,12.9C209.6,64.7,207.9,71,203.6,76.3"/>
		</g>
	</g>
</g>
</svg>
