<svg id="Camada_1" data-name="Camada 1" xmlns="http://www.w3.org/2000/svg" viewBox="0 0 300 120"><defs><style>.cls-1{fill:#fff;}</style></defs><title>vudu</title><g id="Nav-Desktop_Tablet_Mobile" data-name="Nav-Desktop/Tablet/Mobile"><g id="Desktop_1024_more_genres" data-name="Desktop 1024 more genres"><g id="VUDU_Small-Logo-Copy" data-name="VUDU Small-Logo-Copy"><path id="Shape" class="cls-1" d="M76.7,16.4H63.6a5.64,5.64,0,0,0-5,3.6.6.6,0,0,0-.1.4c-5,15-9.3,27.6-14.3,42.5-1.3,3.9-2.6,7.8-3.9,11.8a2,2,0,0,1-.7.9c-.6.1-.6-.4-.7-.9-3.1-9.3-6.3-18.6-9.3-27.9l-9-27c0-.1-.1-.1-.1-.3a5.39,5.39,0,0,0-4.9-3.2H2.1C.4,16.3-.4,17.6.2,19.2,7.8,41.7,15.6,64.1,23.3,86.6c.6,1.7,1.1,3.2,1.5,4.6,2.9,7.1,7.4,10.9,15.3,11.3h1.8a45.76,45.76,0,0,0,8.8-1.2L56.1,85c7.6-21.9,15-43.4,22.8-65.6.1-.3.1-.6.3-.7a2.58,2.58,0,0,0-2.5-2.3"/><path id="Shape-2" data-name="Shape" class="cls-1" d="M150.6,22.3v-.1a5.66,5.66,0,0,0-5-5.7H131.8V67.8a22.82,22.82,0,0,1-.4,4.5c-1.3,5.5-4.6,9.4-9.9,11A14,14,0,0,1,107,80.1a14.74,14.74,0,0,1-4.7-11.2V16.7H88.6a5.59,5.59,0,0,0-5,5.7V69.5a37.24,37.24,0,0,0,.8,7.4c3.9,17.7,20.7,29.5,38.7,26.1a32.43,32.43,0,0,0,20.6-13.1A33.66,33.66,0,0,0,150.5,70V45.3h0c0-7.1.1-15.9.1-23Z"/><path id="Shape-3" data-name="Shape" class="cls-1" d="M300,22.3v-.1a5.66,5.66,0,0,0-5-5.7H281.2V67.8a22.82,22.82,0,0,1-.4,4.5c-1.3,5.5-4.6,9.4-9.9,11a14,14,0,0,1-14.5-3.2,14.74,14.74,0,0,1-4.7-11.2V16.7H238a5.59,5.59,0,0,0-5,5.7V69.5a37.24,37.24,0,0,0,.8,7.4c3.9,17.7,20.7,29.5,38.7,26.1a32.43,32.43,0,0,0,20.6-13.1A33.66,33.66,0,0,0,299.9,70V45.3h0c.1-7.1.1-15.9.1-23Z"/><path id="Shape-4" data-name="Shape" class="cls-1" d="M209.2,23.2a39,39,0,0,0-19.7-6.4c-3.3-.1-6.5-.1-9.9-.1H162.3a5.45,5.45,0,0,0-5.4,5.7V96.9a5.51,5.51,0,0,0,5.4,5.7h26.1a24.94,24.94,0,0,0,6-.6,38.66,38.66,0,0,0,20.9-10.5c11.1-10.7,15.6-24.1,12.9-39.6a42.28,42.28,0,0,0-19-28.7m-5.6,53.1a21.47,21.47,0,0,1-14.5,8c-1.1.1-2.2.1-3.3.1h-9.7c-1.3,0-1.3,0-1.3-1.2V35.7c0-1.2,0-1.2,1.1-1.2,3.9,0,7.9-.1,11.8.1,7.4.4,13.2,3.9,17.4,10.2a27,27,0,0,1,4.2,12.9c.3,7-1.4,13.3-5.7,18.6"/></g></g></g></svg>