<?xml version="1.0" encoding="utf-8"?>
<!-- Generator: Adobe Illustrator 23.0.6, SVG Export Plug-In . SVG Version: 6.00 Build 0)  -->
<svg version="1.1" id="Camada_1" xmlns="http://www.w3.org/2000/svg" xmlns:xlink="http://www.w3.org/1999/xlink" x="0px" y="0px"
	 viewBox="0 0 300 120" style="enable-background:new 0 0 300 120;" xml:space="preserve">
<title>walmart</title>
<path d="M177.6,62.4c0-7.3-3.1-13.7-13.6-13.7c-4.2-0.1-8.3,0.9-12,2.9l1.7,5.8c2.6-1.6,5.7-2.5,8.8-2.5c5.3,0,6.2,3,6.2,5v0.5
	c-11.6,0-18.9,4-18.9,12.2c0,5,3.7,9.7,10.2,9.7c3.6,0.1,7-1.4,9.3-4.1h0.2c0,0,1.3,5.5,8.6,3.4c-0.4-2.5-0.6-5.1-0.5-7.7V62.4z
	 M169,70c0,0.6-0.1,1.1-0.2,1.7c-0.9,2.5-3.2,4.1-5.8,4.1c-2.2,0.2-4.1-1.5-4.3-3.7c0-0.2,0-0.3,0-0.5c0-4.4,4.8-5.6,10.4-5.6
	L169,70L169,70z M0,38.8c0,0,7.6,31.1,8.8,36.1c1.4,5.9,4,8.1,11.3,6.6l4.7-19.3c1.2-4.8,2-8.2,2.8-13.1h0.1
	c0.5,4.4,1.3,8.8,2.3,13.1c0,0,1.9,8.7,2.9,13.3c1,4.6,3.7,7.5,10.9,5.9l11.3-42.7H46l-3.9,18.5c-1,5.4-2,9.6-2.7,14.5h-0.1
	c-0.7-4.9-1.5-8.9-2.5-14.1l-4-18.8h-9.5L19,57.1c-1.2,5.6-2.3,10.1-3,14.9h-0.1C15,66.8,14,61.6,13,56.4c0,0-2.5-13.1-3.4-17.6
	L0,38.8z M80.5,62.4c0-7.3-3.1-13.7-13.6-13.7c-4.2-0.1-8.3,0.9-12,2.9l1.7,5.8c2.6-1.6,5.6-2.5,8.7-2.5c5.3,0,6.2,3,6.2,5v0.5
	c-11.6,0-18.9,4-18.9,12.2c0,5,3.7,9.7,10.2,9.7c3.6,0.1,7-1.4,9.3-4.1h0.2c0,0,1.3,5.5,8.6,3.4c-0.4-2.5-0.6-5.1-0.5-7.7
	C80.4,73.9,80.5,62.4,80.5,62.4z M71.9,70c0,0.6-0.1,1.1-0.2,1.7c-0.9,2.5-3.2,4.1-5.8,4.1c-2.2,0.2-4.1-1.5-4.3-3.7
	c0-0.2,0-0.3,0-0.5c0-4.4,4.9-5.6,10.4-5.6L71.9,70z M93.9,72.4V38.8h-8.7v42.7h8.7 M204.2,38.8v31.5c0,4.3,0.8,7.4,2.6,9.2
	c1.9,1.8,4.5,2.8,7.1,2.7c2.1,0,4.3-0.3,6.3-0.9l-0.1-6.8c-1.1,0.3-2.2,0.4-3.3,0.4c-3,0-3.9-1.9-3.9-5.8v-12h7.6v-8.2h-7.6V38.8
	H204.2z M181.8,49.4v32.1h8.9V65.1c0-0.8,0.1-1.6,0.2-2.4c0.6-3.4,3.7-5.8,7.1-5.6c0.9,0,1.7,0.1,2.6,0.2v-8.4
	c-0.7-0.1-1.3-0.2-2-0.2c-3.3,0-7.1,2.2-8.7,6.8h-0.2v-6.1H181.8z M98.9,49.4v32.1h8.7V62.7c0-0.9,0.1-1.8,0.4-2.6
	c0.7-2.3,2.9-4,5.3-4.1c3.5,0,5.2,3,5.2,7.3v18.3h8.7v-19c0-0.9,0.1-1.8,0.4-2.6c0.7-2.3,2.8-3.9,5.2-3.9c3.6,0,5.3,2.9,5.3,8v17.6
	h8.7V62.6c0-10-5.1-13.9-10.8-13.9c-2.2,0-4.4,0.5-6.3,1.7c-1.6,1-3,2.4-4.1,4h-0.1c-1.4-3.6-4.9-5.9-8.8-5.7
	c-5.4,0-7.9,2.7-9.3,5.1h-0.1v-4.4H98.9z"/>
<path d="M267.2,48c1.7,0,3.1-0.9,3.3-2.1l1.7-19.3c0-1.9-2.2-3.5-5-3.5s-5,1.6-5,3.5l1.7,19.3C264.1,47.1,265.5,48,267.2,48z
	 M256.8,54c0.9-1.5,0.8-3.2-0.1-3.9L240.8,39c-1.7-1-4.1,0.2-5.5,2.6s-1.2,5.1,0.5,6.1l17.5,8.2C254.4,56.3,255.9,55.5,256.8,54
	L256.8,54z M277.6,54c0.9,1.5,2.4,2.3,3.4,1.9l17.5-8.2c1.7-0.9,1.9-3.7,0.5-6.1s-3.9-3.6-5.5-2.6l-15.8,11.1
	C276.8,50.8,276.8,52.5,277.6,54z M267.2,72c1.7,0,3.1,0.9,3.3,2.1l1.7,19.3c0,1.9-2.2,3.5-5,3.5s-5-1.6-5-3.5l1.7-19.3
	C264.1,72.9,265.5,72,267.2,72z M277.6,66c0.9-1.5,2.4-2.3,3.4-1.9l17.5,8.2c1.7,1,1.9,3.7,0.5,6.1s-3.9,3.6-5.5,2.6l-15.8-11.1
	C276.8,69.2,276.8,67.5,277.6,66z M256.8,66c0.9,1.5,0.8,3.2-0.1,3.9L240.8,81c-1.7,0.9-4.1-0.2-5.5-2.6s-1.2-5.1,0.5-6.1l17.5-8.2
	C254.4,63.7,255.9,64.5,256.8,66L256.8,66z"/>
</svg>
