<svg id="Camada_1" data-name="Camada 1" xmlns="http://www.w3.org/2000/svg" viewBox="0 0 300 120"><defs><style>.cls-1{fill:#fff;}</style></defs><title>walmart</title><path class="cls-1" d="M177.6,62.4c0-7.3-3.1-13.7-13.6-13.7a24.09,24.09,0,0,0-12,2.9l1.7,5.8a16.91,16.91,0,0,1,8.8-2.5c5.3,0,6.2,3,6.2,5v.5c-11.6,0-18.9,4-18.9,12.2,0,5,3.7,9.7,10.2,9.7a11.67,11.67,0,0,0,9.3-4.1h.2s1.3,5.5,8.6,3.4a45.25,45.25,0,0,1-.5-7.7V62.4ZM169,70a8.81,8.81,0,0,1-.2,1.7,6.14,6.14,0,0,1-5.8,4.1,4,4,0,0,1-4.3-4.2c0-4.4,4.8-5.6,10.4-5.6v4ZM0,38.8S7.6,69.9,8.8,74.9c1.4,5.9,4,8.1,11.3,6.6l4.7-19.3c1.2-4.8,2-8.2,2.8-13.1h.1A115.77,115.77,0,0,0,30,62.2s1.9,8.7,2.9,13.3,3.7,7.5,10.9,5.9L55.1,38.7H46L42.1,57.2c-1,5.4-2,9.6-2.7,14.5h-.1c-.7-4.9-1.5-8.9-2.5-14.1l-4-18.8H23.3L19,57.1c-1.2,5.6-2.3,10.1-3,14.9h-.1C15,66.8,14,61.6,13,56.4c0,0-2.5-13.1-3.4-17.6ZM80.5,62.4c0-7.3-3.1-13.7-13.6-13.7a24.09,24.09,0,0,0-12,2.9l1.7,5.8a16.82,16.82,0,0,1,8.7-2.5c5.3,0,6.2,3,6.2,5v.5c-11.6,0-18.9,4-18.9,12.2,0,5,3.7,9.7,10.2,9.7a11.67,11.67,0,0,0,9.3-4.1h.2s1.3,5.5,8.6,3.4a45.25,45.25,0,0,1-.5-7.7l.1-11.5ZM71.9,70a8.81,8.81,0,0,1-.2,1.7,6.14,6.14,0,0,1-5.8,4.1,4,4,0,0,1-4.3-4.2c0-4.4,4.9-5.6,10.4-5.6l-.1,4Zm22,2.4V38.8H85.2V81.5h8.7M204.2,38.8V70.3c0,4.3.8,7.4,2.6,9.2a9.63,9.63,0,0,0,7.1,2.7,22.29,22.29,0,0,0,6.3-.9l-.1-6.8a12.42,12.42,0,0,1-3.3.4c-3,0-3.9-1.9-3.9-5.8v-12h7.6V48.9h-7.6V38.8ZM181.8,49.4V81.5h8.9V65.1a17.91,17.91,0,0,1,.2-2.4,6.8,6.8,0,0,1,7.1-5.6,19.66,19.66,0,0,1,2.6.2V48.9a13.55,13.55,0,0,0-2-.2c-3.3,0-7.1,2.2-8.7,6.8h-.2V49.4Zm-82.9,0V81.5h8.7V62.7a7.46,7.46,0,0,1,.4-2.6,5.88,5.88,0,0,1,5.3-4.1c3.5,0,5.2,3,5.2,7.3V81.6h8.7v-19a7.46,7.46,0,0,1,.4-2.6,5.4,5.4,0,0,1,5.2-3.9c3.6,0,5.3,2.9,5.3,8V81.7h8.7V62.6c0-10-5.1-13.9-10.8-13.9a11.62,11.62,0,0,0-6.3,1.7,14.1,14.1,0,0,0-4.1,4h-.1a9,9,0,0,0-8.8-5.7c-5.4,0-7.9,2.7-9.3,5.1h-.1V49.4Z"/><path class="cls-1" d="M267.2,48c1.7,0,3.1-.9,3.3-2.1l1.7-19.3c0-1.9-2.2-3.5-5-3.5s-5,1.6-5,3.5l1.7,19.3c.2,1.2,1.6,2.1,3.3,2.1Zm-10.4,6c.9-1.5.8-3.2-.1-3.9L240.8,39c-1.7-1-4.1.2-5.5,2.6s-1.2,5.1.5,6.1l17.5,8.2c1.1.4,2.6-.4,3.5-1.9Zm20.8,0c.9,1.5,2.4,2.3,3.4,1.9l17.5-8.2c1.7-.9,1.9-3.7.5-6.1s-3.9-3.6-5.5-2.6L277.7,50.1c-.9.7-.9,2.4-.1,3.9ZM267.2,72c1.7,0,3.1.9,3.3,2.1l1.7,19.3c0,1.9-2.2,3.5-5,3.5s-5-1.6-5-3.5l1.7-19.3c.2-1.2,1.6-2.1,3.3-2.1Zm10.4-6c.9-1.5,2.4-2.3,3.4-1.9l17.5,8.2c1.7,1,1.9,3.7.5,6.1s-3.9,3.6-5.5,2.6L277.7,69.9c-.9-.7-.9-2.4-.1-3.9Zm-20.8,0c.9,1.5.8,3.2-.1,3.9L240.8,81c-1.7.9-4.1-.2-5.5-2.6s-1.2-5.1.5-6.1l17.5-8.2c1.1-.4,2.6.4,3.5,1.9Z"/></svg>