<?xml version="1.0" encoding="utf-8"?>
<!-- Generator: Adobe Illustrator 23.0.6, SVG Export Plug-In . SVG Version: 6.00 Build 0)  -->
<svg version="1.1" id="Camada_1" xmlns="http://www.w3.org/2000/svg" xmlns:xlink="http://www.w3.org/1999/xlink" x="0px" y="0px"
	 viewBox="0 0 300 120" style="enable-background:new 0 0 300 120;" xml:space="preserve">
<title>washington-post</title>
<path d="M60.3,45.7c-0.8-3.4,2-7.2,5.7-6.8c-0.9,1.3-1.1,2.9-0.7,4.4c1.2,1.2,2.6,2.1,3.4,3.6c0,1,0,2.1,0,3.2
	c1.7-1.3,3.2-2.8,4.9-4.1c0.4-0.4,1,0,1.4,0.2c1.7,1.1,3.4,2.3,5.1,3.4c1.4-1.4,2.9-2.7,4.4-4c1.9,1.6,4,3,5.9,4.6
	c0.1,5.4,0.1,10.8,0,16.1c-3.1,3.2-6.3,6.2-9.5,9.2c-2.5-1.4-4.4-3.7-6.8-5.4c-1.9,1.8-3.5,3.9-5.5,5.5c-2-1.9-4.1-3.9-5.9-6
	c-0.2-2.6,0-5.3,0-7.9c-1.4-0.7-3.1-0.6-4.3,0.4c-0.8-3,1.5-5.6,4.3-6.2c0-2.5,0-4.9,0-7.4C61.8,47.7,61,46.7,60.3,45.7 M70.1,50.2
	c-0.5,0.6-1.5,1-1.4,1.9c0,4.9,0,9.8,0,14.7c1.2,1.2,2.4,2.4,3.6,3.5c0.4-0.6,1.2-1,1.2-1.7c0-5,0.1-10,0-15
	C72.5,52.4,71.3,51.2,70.1,50.2 M80,51.5c0,2.2,0,4.3,0,6.5v4c0,1.5-0.1,3,0,4.5c1.1,1.4,2.3,2.6,3.6,3.8c0.4-0.6,1.2-1.1,1.2-1.8
	c0-5,0-10.1,0-15.1c-1.1-1.1-2.2-2.2-3.3-3.3L80,51.5z"/>
<path d="M235.9,46.9c2-1.4,3.4-3.6,5.5-4.9c1.5,1,2.9,2.1,4.3,3.2c0,1.4,0,2.9,0.2,4.3c0.9-1.4,0.5-3.1,0.6-4.7l1.2,0.9
	c0,0.8,0,1.5,0,2.3c1.7-1.5,3.5-2.9,5.2-4.5c1.8,1.4,3.6,2.9,5.4,4.3c0,6.4,0,12.7,0,19.1c-2.6,1.8-5.1,3.6-7.7,5.3
	c-0.9,0.7-2-0.3-2.9-0.4c0,2.5,0,4.9,0,7.4l-2-1.4c-1.6,1.3-3.2,2.7-4.8,3.9H240c0-4.1,0-8.3,0-12.4c-2.1,0.4-4,1.2-5.8,2.3
	c1-3,3-5.5,5.8-7c0.1-2.3,0.1-4.5-0.1-6.8c-1.3-1.3-3-0.8-4.3,0.2c0-1.3,0.1-2.6,0.4-3.8c0.9-1.3,2.4-2.1,4-2c0.1-1.5,0-3-0.3-4.4
	C238.8,46.5,237.3,46.8,235.9,46.9 M247.8,50.6c-0.1,4.8,0,9.5-0.1,14.2c1.5,0.4,3,0.9,4.5,1.6c0-5.3,0-10.6,0-15.9
	c-0.6-0.4-1.1-0.9-1.6-1.2C249.6,49.3,248.7,50.2,247.8,50.6 M245.8,53.1c0,7,0,14.1,0,21.1c-0.1,0.7,0.1,1.4,0.7,1.9
	c0.1-8.2,0.1-16.4,0-24.6C246,51.9,245.8,52.5,245.8,53.1L245.8,53.1z"/>
<path d="M126.3,46.4c1-1,2-2,3.1-2.9c1.7,3.2,0.5,7,0.9,10.5c1.6,0.1,2.5-1.5,3.7-2.3c1.8,1,3.3,2.8,5.4,2.8c-0.1,5.7,0,11.4-0.1,17
	c-0.8,4.3-4.4,7.6-8.8,8c1.7-1.4,3.8-3,3.8-5.4c0-5.3,0-10.6,0-15.8c-1-0.8-2-1.5-2.9-2.2l-1,0.5c0,3.8,0,7.6,0,11.4
	c0.6,0.6,1.3,1.2,1.9,1.8c-1.4,1.3-2.4,3.3-4.1,4.2c-1.3-1.3-2.7-2.6-4.1-3.8c0.4-0.7,1.3-1.2,1.2-2c0-6.7,0-13.4,0-20.1
	C125.2,47.3,125.9,46.9,126.3,46.4z"/>
<path d="M187.5,48.7c1.8-1.7,3.6-3.3,5.3-5c0.1,2.8,0,5.5,0,8.3h2.7c-0.9,1.2-1.8,2.3-2.7,3.4c0,4.1,0,8.1,0,12.2
	c0.7,1,1.8,1.5,3,1.4c-1.5,1.5-2.8,3.2-4.2,4.6c-1.5-1-2.8-2.8-4.8-2.4c0.6-0.9,0.9-2,0.8-3.1c0.1-2.8-0.5-5.7,0-8.5
	c-0.1-0.7-0.1-1.3-0.2-2c0-0.9,0-1.8,0-2.7c-0.8,0-1.6,0-2.5,0c0.8-1,1.6-1.8,2.4-2.8C187.5,51,187.5,49.8,187.5,48.7z"/>
<path d="M23.6,47.8c1.4-1.1,2.5-2.5,3.8-3.6c0.5,0.7,0.8,1.5,0.9,2.4c0,2.6,0,5.3,0,7.9c1.6,0.4,2.6-1.4,3.8-2.2
	c1.8,1,3.3,3,5.5,2.8c0,5,0,10.1,0,15.1c0.1,5.2-3.9,9.6-9.1,10c1.8-1.3,3.9-3.1,3.7-5.5c0-5.3,0-10.5,0-15.8c-1-0.7-2-1.5-2.9-2.2
	l-1,0.8c0,3.7,0,7.3,0,11c0.6,0.8,1.2,1.5,1.9,2.1c-1.3,1.4-2.6,2.9-3.9,4.3c-1.4-1.4-2.8-2.8-4.2-4.2c0.5-0.5,0.9-1,1.3-1.5
	C23.6,62,23.5,54.9,23.6,47.8z"/>
<path d="M292.2,48.8c1.8-1.6,3.5-3.3,5.2-4.9c0,2.8,0,5.6,0,8.4c0.9,0,1.7,0,2.6,0.1c-0.9,1-1.8,2.2-2.5,3.4c-0.2,4,0,8-0.1,12
	c0.4,0.4,0.7,0.8,1.1,1.2h1.5v0.6c-1.2,1.4-2.5,2.9-3.8,4.3c-1.1-0.8-2.1-1.7-3.2-2.5l-1.7-0.1l0.8-1c0-5,0-10.1,0-15.1h-2.7
	c0.9-1,1.8-2.1,2.7-3.2C292.2,51,292.2,49.9,292.2,48.8z"/>
<path d="M0.1,55.1c0.2-3.8,1.5-8.3,5.3-10c4.4-1.5,8.2,2.2,12.5,2.1c1.7-0.4,3.3-1.1,4.8-2c-0.4,3-2.3,5.7-5.1,7
	c-0.1,5.2-0.1,10.3,0,15.5c2.1-1.1,3.8-2.8,4.9-4.8c0,3.5-1.4,6.9-4,9.3C16,74.9,12,75.4,8.5,74.6c-3.9-1.1-6.9-4.1-8-8
	C-1,60.8,1.5,53.7,7.1,51l-1.7-0.6C3,51,1,52.8,0.1,55.1 M8.2,51.4C4,55.7,3.5,64.2,8.7,68c0.2-3.9,0-7.8,0.1-11.7l-1.1-0.8
	c1.5-1.2,3-2.4,4.5-3.5C11,51.2,9.6,51,8.2,51.4 M14.3,52.8c0,3.5,0,7,0,10.5c-1.7,1.6-3.3,3.3-4.9,4.9c2.3,1,5,1,7.3,0.1
	c0-5.2,0-10.4,0-15.6L14.3,52.8z"/>
<path d="M142.1,48.8c1.1-1.2,2.2-2.4,3.4-3.5c1.3,1.1,2.7,2.2,4,3.3c-1.4,1.1-2.6,2.3-3.9,3.4C144.4,50.9,143.2,49.8,142.1,48.8z"/>
<path d="M170.6,55.9c2.5-1.7,4.9-3.6,7.5-5.2c2.2,0.9,4.1,2.5,6.2,3.7c0,4.6,0,9.2,0,13.8c-0.1,1.8,0.8,3.4,1.4,5
	c-1.3,3.6-4.5,6-7.7,7.8c-2-2.4-5.4-3.1-8.1-1.7c1.6-2.1,3.2-4.2,4.8-6.3c-0.7-1.9-2.5-3.2-4.5-3.2l0.5-1.7
	C170.7,64,170.6,59.9,170.6,55.9 M175.9,55.2c0,3.6,0,7.1,0,10.7c0.8,0.8,1.5,1.5,2.3,2.3c0.4-0.6,1.1-1.2,1-2
	c-0.1-2.9,0.2-5.8-0.1-8.6C178.1,56.7,176.9,56,175.9,55.2 M173.1,76.2c2.3-0.5,4.9-1,7,0.3c1.1,1,2.8-0.5,2.3-1.8s-1.9-1.7-2.8-2.6
	c-0.6-0.9-0.4-2-0.6-3C177,71.6,175.2,74,173.1,76.2L173.1,76.2z"/>
<path d="M92.2,57c3-1.9,5.7-4.2,8.8-5.8c1.8,1.2,3.2,3.5,5.5,3.7c0,4.2-0.1,8.3,0,12.4c0.6,0.7,1.3,1.4,2,2l1.1-0.3
	c-1.1,1.7-2.5,3.2-4,4.6c-1.6-1-3.2-2-4.6-3.2c-1.3,1.2-2.6,2.5-3.9,3.7c-1.9-1.3-3.7-2.6-5.6-3.9l0.8-0.8
	C92.2,65.3,92.2,61.1,92.2,57 M97.6,55.7c0,3.8-0.1,7.6,0,11.4c0.6,0.8,1.3,1.5,2.1,2l1-1c0-3.3,0-6.7,0-10
	C99.7,57.4,98.6,56.6,97.6,55.7L97.6,55.7z"/>
<path d="M108.8,55.9c2.4-1.6,4.8-3.3,7.1-5c1.8,1.5,4.4,1.8,6.5,0.9c-1.5,2.5-2.9,5-4.3,7.6c1.7,0,3.4,0,5.2,0.1
	c0.2,3,0.1,6.1,0.1,9.1c-2.3,1.8-4.6,3.5-6.8,5.4c-1.2-1.1-2.8-1.6-4.5-1.5c-1.6,0-2.7,1.2-3.9,2c1.7-3.2,3.6-6.4,5.4-9.5
	c-1.3,0-2.7,0-4,0l-0.8-0.6C108.7,61.6,108.7,58.7,108.8,55.9 M114.1,55.2c0,1.8,0,3.6,0,5.5c0.7,0,1.4-0.1,2.2-0.2
	c1-1.5,1.8-3.2,2.8-4.7C117.4,56,115.6,55.9,114.1,55.2 M111.8,69.4c2-0.8,4.3-0.8,6.3-0.2c0-1.8,0-3.6,0-5.4H115
	C114,65.8,112.8,67.7,111.8,69.4L111.8,69.4z"/>
<path d="M196.8,56.5c2.9-2,5.7-4,8.7-5.9c1.4,1.3,2.9,2.5,4.3,3.7l1.2-0.1c0,4.3,0,8.6,0,12.8c-3.1,2.1-6.2,4.4-9.4,6.4
	c-1.9-1-3.6-2.5-5.4-3.7c0.2-0.3,0.5-0.7,0.7-1C196.8,64.7,196.8,60.6,196.8,56.5 M202.1,55.2c0,3.8,0,7.7,0,11.5
	c0.7,0.7,1.5,1.4,2.2,2.2c0.3-0.4,0.7-0.8,1-1.2c0-3.3,0-6.6,0-9.9C204.1,56.9,203.1,56.1,202.1,55.2L202.1,55.2z"/>
<path d="M259.7,57c3-1.8,5.6-4.2,8.7-5.8c1.9,1.1,3.2,3.4,5.5,3.7c-0.1,4.2,0.1,8.4-0.1,12.5c-3,2.4-6.3,4.3-9.3,6.6
	c-1.9-1.2-3.6-2.5-5.5-3.8c0.5-0.6,0.7-1.4,0.7-2.2C259.7,64.4,259.7,60.7,259.7,57 M264.9,55.7c0,3.8,0,7.7,0,11.5
	c0.8,0.6,1.5,1.3,2.2,1.9c0.4-0.2,0.8-0.4,1.1-0.8c0-3.4,0-6.7,0-10.1C267.1,57.3,266,56.5,264.9,55.7L264.9,55.7z"/>
<path d="M275.3,55.8c2.2-1.8,4.6-3.3,6.9-5c1.9,1.4,4.3,1.3,6.5,0.9c-1.5,2.4-2.8,5-4.3,7.4c1.8,0.1,3.6-0.3,5.3,0.3
	c0,3,0,5.9,0,8.8c-2.3,1.9-4.7,3.7-7,5.5c-1.1-1-2.6-1.6-4.2-1.5c-1.7-0.1-2.9,1.1-4.1,2c1.7-3.3,3.6-6.4,5.4-9.6c-1.5,0-3,0-4.5,0
	C275.1,61.7,275.1,58.7,275.3,55.8 M280.4,55.1c0,1.8,0,3.5,0,5.3h2.1c0.9-1.6,1.8-3.2,2.7-4.8C283.7,55.7,282,55.6,280.4,55.1
	 M281.4,63.5c-1.1,1.9-2.2,3.9-3.3,5.7c2-0.8,4.2-0.6,6.3-0.3c0-1.8,0-3.6,0-5.4c-1,0.1-1.9,0.2-2.9,0.1L281.4,63.5z"/>
<path d="M39.8,56.7c2.7-1.8,5.3-3.8,8.1-5.5c1.7,2.3,3.4,4.6,5.1,6.8c-2.7,2-5.2,4-7.9,5.9c-0.1,1,0,2,0.1,3c1.4,1,2.8,2,4.2,3
	c1.2-0.9,2.5-1.8,3.8-2.6c-2.1,2.5-4.6,4.8-6.8,7.2c-2.3-1.5-4.6-3-7-4.4c0.2-0.6,0.4-1.3,0.4-2C39.8,64.3,39.8,60.5,39.8,56.7
	 M45.1,56.6c0,2,0,3.9,0,5.8c1-0.7,1.9-1.5,2.9-2.2C47.1,59,46.1,57.8,45.1,56.6L45.1,56.6z"/>
<path d="M219.8,55.4c1.3-1.3,2.6-2.7,3.9-4c1.7,1,3,3.3,5.1,3.1l-0.5,1.2c-0.1,3.9,0,7.8,0,11.7l1,1.7h1.9c-1.4,1.4-2.7,3-4.1,4.5
	c-1.3-1.2-2.7-2.3-3.9-3.5c-0.3-3.6,0-7.2-0.1-10.8c-0.7-0.8-1.5-1.7-2.2-2.5l-1.1,0.4c0,3.3,0,6.7,0,10c-0.1,1.1,0.8,1.7,1.4,2.5
	c-1.2,1.4-2.5,2.8-3.7,4.1c-1.6-1.1-3.2-2.2-4.9-3.2c0.5-0.8,1.1-1.5,1.6-2.3c0-3.6,0-7.1,0-10.7c-0.5-1-1.6-1.6-2.8-1.5
	c1.3-1.5,2.6-3,4-4.3C216.8,53,218.4,54.2,219.8,55.4z"/>
<path d="M140.6,56.1c1.3-1.3,2.5-2.6,3.8-3.9c1.5,1.2,3,2.3,4.6,3.4l-0.6,0.9c0,4,0,7.9,0,11.9c0.5,0.4,1.1,0.8,1.7,1.2
	c0.8-0.2,1.6-0.5,2.4-0.8c-0.1-3.5,0.1-7-0.1-10.5c-0.4-1.2-1.5-1.9-2.8-1.7c1.4-1.4,2.6-2.9,3.9-4.3c1.4,1.3,3,2.5,4.5,3.7
	c1.2-1.4,2.5-2.7,3.8-4c1.7,0.9,2.9,3,5.1,3.1c-0.3,0.6-0.4,1.3-0.5,2c0,3.2,0,6.4,0,9.7c-0.1,1,0.6,1.8,1,2.7l2.1,0.1
	c-1.4,1.5-2.8,3-4.1,4.5c-1.4-1.2-2.7-2.4-4.1-3.6c0-3.6,0-7.3,0-10.9c-1-0.7-1.6-2.5-2.9-2.2c-0.6,2.2-0.1,4.5-0.3,6.8
	c0.2,2.1-0.7,4.6,1.3,6.1c-1.4,1.5-2.8,3-4.1,4.5c-1.6-1.2-3.1-2.5-4.6-3.7c-1.1,1.1-2.3,2.2-3.5,3.3c-1.6-1.1-2.8-3.2-5-3l1-1.4
	c-0.1-3.8-0.1-7.7,0-11.5C142.6,57.4,141.7,56.6,140.6,56.1z"/>
</svg>
