<svg xmlns="http://www.w3.org/2000/svg" viewBox="0 0 300 120"><defs><style>.a{fill:#fff;}</style></defs><title>washington-post</title><path class="a" d="M60.32,45.73c-.8-3.44,2-7.21,5.69-6.83a5.27,5.27,0,0,0-.72,4.39c1.2,1.15,2.64,2.08,3.38,3.63,0,1.05,0,2.1,0,3.15,1.67-1.3,3.19-2.78,4.86-4.08.43-.42,1,0,1.36.24,1.71,1.13,3.37,2.32,5.13,3.37q2.15-2.06,4.44-4c1.93,1.58,4,2.95,5.89,4.6.1,5.37.14,10.77,0,16.14-3.07,3.16-6.29,6.16-9.47,9.2-2.51-1.37-4.45-3.73-6.81-5.41-1.91,1.76-3.46,3.88-5.48,5.51-2-1.95-4.08-3.86-5.9-6-.15-2.63,0-5.27,0-7.91a4,4,0,0,0-4.33.38c-.79-3,1.55-5.57,4.33-6.22-.05-2.46,0-4.91,0-7.36a15.56,15.56,0,0,1-2.3-2.88m9.75,4.53c-.46.62-1.5,1-1.42,1.89q0,7.37,0,14.73c1.2,1.16,2.37,2.36,3.57,3.51.39-.57,1.23-1,1.18-1.74,0-5,.05-10,0-15a32.6,32.6,0,0,0-3.31-3.4m9.88,1.35c0,2.17,0,4.35,0,6.52v4c0,1.51-.07,3,0,4.52a39.12,39.12,0,0,0,3.62,3.84c.37-.62,1.2-1.07,1.2-1.85,0-5,0-10.06,0-15.09-1.11-1.07-2.21-2.16-3.26-3.28Z"/><path class="a" d="M235.95,46.87c2-1.44,3.45-3.61,5.51-4.9,1.5,1,2.86,2.14,4.29,3.21a29.72,29.72,0,0,0,.2,4.27c.87-1.42.47-3.13.57-4.7l1.24.87c0,.77,0,1.54,0,2.31,1.74-1.5,3.53-2.93,5.24-4.47,1.8,1.41,3.57,2.86,5.36,4.28,0,6.36,0,12.72,0,19.09-2.59,1.78-5.12,3.63-7.73,5.35-.89.67-2-.29-2.88-.4q0,3.68,0,7.37l-2-1.44c-1.59,1.32-3.17,2.67-4.82,3.91H240c0-4.13,0-8.25,0-12.37a15.69,15.69,0,0,0-5.79,2.32,12.48,12.48,0,0,1,5.79-7,61,61,0,0,0-.11-6.77c-1.26-1.26-3-.81-4.26.24a22.54,22.54,0,0,1,.39-3.85,4.78,4.78,0,0,1,4-2.05,20.21,20.21,0,0,0-.25-4.44c-.94-1.17-2.48-.92-3.79-.87m11.84,3.8c-.13,4.75,0,9.49-.08,14.24a23.59,23.59,0,0,1,4.47,1.58c0-5.31,0-10.62,0-15.93-.55-.43-1.08-.86-1.64-1.24-1,0-1.83.94-2.75,1.36m-2,2.42c0,7,0,14.05,0,21.08a2.18,2.18,0,0,0,.66,1.92q.19-12.32,0-24.64A2.48,2.48,0,0,0,245.76,53.09Z"/><path class="a" d="M126.31,46.4a34,34,0,0,1,3.14-2.93c1.69,3.24.49,7,.92,10.49,1.59.07,2.52-1.46,3.7-2.28,1.77,1,3.25,2.8,5.4,2.78-.08,5.68,0,11.37-.06,17a9.83,9.83,0,0,1-8.81,8c1.67-1.41,3.77-3,3.76-5.43,0-5.28,0-10.57,0-15.85-1-.76-2-1.49-2.94-2.24l-1,.49c0,3.8,0,7.59,0,11.38.65.62,1.29,1.24,1.94,1.85-1.41,1.35-2.41,3.31-4.11,4.24-1.34-1.32-2.67-2.63-4.1-3.85.4-.67,1.3-1.17,1.24-2q0-10,0-20.08C125.2,47.32,125.91,46.89,126.31,46.4Z"/><path class="a" d="M187.46,48.66c1.78-1.65,3.56-3.3,5.32-5,.06,2.77,0,5.55,0,8.32h2.69c-.9,1.15-1.81,2.28-2.7,3.43,0,4.08,0,8.15,0,12.23a3.12,3.12,0,0,0,3,1.36c-1.48,1.49-2.76,3.15-4.23,4.64-1.49-1-2.75-2.8-4.78-2.41a5.34,5.34,0,0,0,.84-3.14c.09-2.82-.51-5.65,0-8.45-.07-.67-.13-1.33-.2-2q0-1.36,0-2.72c-.83,0-1.65,0-2.46,0,.76-1,1.62-1.85,2.36-2.83A17.43,17.43,0,0,0,187.46,48.66Z"/><path class="a" d="M23.6,47.78c1.38-1.08,2.48-2.45,3.83-3.56a4.41,4.41,0,0,1,.9,2.38c0,2.63,0,5.26,0,7.89,1.63.36,2.6-1.39,3.79-2.19,1.81,1,3.3,3,5.55,2.75,0,5,0,10.06,0,15.1a9.88,9.88,0,0,1-9.06,10c1.8-1.28,3.87-3.08,3.73-5.5,0-5.27,0-10.54,0-15.81-1-.72-2-1.46-2.9-2.22l-1,.75c.05,3.67,0,7.33,0,11a16.3,16.3,0,0,0,1.93,2.14c-1.3,1.45-2.64,2.86-3.92,4.32C25,73.46,23.65,72,22.22,70.65q.68-.74,1.34-1.49C23.58,62,23.49,54.9,23.6,47.78Z"/><path class="a" d="M292.24,48.8c1.78-1.59,3.5-3.25,5.22-4.89,0,2.79,0,5.58,0,8.37.87,0,1.73,0,2.6.09a22.72,22.72,0,0,0-2.52,3.36c-.21,4,0,8-.09,12,.35.42.71.83,1.07,1.24h1.54v.59c-1.24,1.45-2.5,2.88-3.75,4.32-1.08-.83-2.15-1.67-3.21-2.51l-1.71-.08.83-1c0-5,0-10.06,0-15.09l-2.66,0c.93-1,1.82-2.07,2.67-3.16C292.24,51,292.24,49.89,292.24,48.8Z"/><path class="a" d="M.12,55.14c.22-3.82,1.5-8.34,5.33-10,4.37-1.46,8.18,2.22,12.48,2.07a17.61,17.61,0,0,0,4.84-2,9.06,9.06,0,0,1-5.1,7c-.1,5.16-.11,10.32,0,15.48a11.51,11.51,0,0,0,4.91-4.82,12.53,12.53,0,0,1-4,9.33C16,74.87,12,75.4,8.49,74.61a11.68,11.68,0,0,1-8-8C-1,60.77,1.46,53.68,7.14,51l-1.7-.59A7.41,7.41,0,0,0,.12,55.14m8.1-3.77C4,55.74,3.48,64.23,8.73,68c.2-3.89,0-7.78.09-11.67l-1.13-.82Q9.9,53.72,12.19,52a4.82,4.82,0,0,0-4-.63m6.07,1.38c0,3.51,0,7,0,10.54-1.67,1.63-3.33,3.26-4.94,4.94a9.21,9.21,0,0,0,7.3.06c0-5.2,0-10.4,0-15.6Z"/><path class="a" d="M142.08,48.78c1.13-1.17,2.21-2.39,3.35-3.53,1.31,1.13,2.67,2.2,4,3.32-1.36,1.06-2.61,2.26-3.89,3.41C144.38,50.9,143.22,49.85,142.08,48.78Z"/><path class="a" d="M170.65,55.89c2.53-1.68,4.91-3.58,7.47-5.2,2.23.91,4.1,2.54,6.23,3.68,0,4.59,0,9.17,0,13.76-.06,1.78.79,3.4,1.38,5-1.29,3.57-4.51,6-7.7,7.83a6.62,6.62,0,0,0-8.15-1.73q2.39-3.16,4.81-6.29a4.9,4.9,0,0,0-4.54-3.18l.47-1.65c.08-4.08,0-8.16,0-12.24m5.24-.67c0,3.56,0,7.12,0,10.68.75.78,1.51,1.54,2.28,2.29.42-.61,1.07-1.2,1-2-.07-2.86.19-5.76-.15-8.59-.93-.91-2.07-1.56-3.08-2.37m-2.78,21c2.27-.54,4.87-1,7,.27,1.1,1,2.75-.53,2.25-1.79s-1.91-1.68-2.81-2.56c-.55-.88-.44-2-.63-3C177,71.55,175.2,74,173.11,76.22Z"/><path class="a" d="M92.19,57c3-1.86,5.68-4.2,8.77-5.83,1.85,1.15,3.16,3.45,5.46,3.67,0,4.15-.06,8.3,0,12.45a11.75,11.75,0,0,0,2,2l1.1-.32a25.72,25.72,0,0,1-4,4.56,45.25,45.25,0,0,1-4.64-3.2c-1.3,1.24-2.58,2.48-3.86,3.72-1.87-1.28-3.72-2.58-5.57-3.88l.76-.77c0-4.14,0-8.27,0-12.4m5.42-1.27c0,3.8-.08,7.59,0,11.38a7.7,7.7,0,0,0,2.12,2l1-1c0-3.34,0-6.68,0-10Q99.16,57,97.61,55.75Z"/><path class="a" d="M108.76,55.93c2.39-1.64,4.75-3.32,7.12-5a6.28,6.28,0,0,0,6.51.86c-1.52,2.48-2.94,5-4.35,7.56,1.72,0,3.45,0,5.17.1.17,3,.09,6.1.06,9.15-2.28,1.8-4.6,3.53-6.81,5.41A6.41,6.41,0,0,0,112,72.5c-1.57,0-2.72,1.18-3.91,2,1.7-3.23,3.56-6.37,5.41-9.52-1.33,0-2.65,0-4,0l-.79-.57c0-2.85,0-5.7,0-8.55m5.41-.69c0,1.82,0,3.63,0,5.45a9.66,9.66,0,0,0,2.15-.23c1-1.54,1.78-3.18,2.75-4.72a7.74,7.74,0,0,1-4.92-.51m-2.35,14.29a9.71,9.71,0,0,1,6.32-.19c0-1.81,0-3.61,0-5.41H115C114,65.82,112.84,67.65,111.82,69.53Z"/><path class="a" d="M196.75,56.55c2.89-2,5.71-4,8.66-5.92,1.37,1.31,2.85,2.48,4.28,3.71l1.16-.07c0,4.28,0,8.56,0,12.83-3.15,2.1-6.16,4.41-9.35,6.44-1.94-1-3.61-2.51-5.43-3.73.24-.34.48-.68.73-1,0-4.09,0-8.17,0-12.26m5.26-1.3c0,3.83,0,7.66,0,11.48.74.71,1.49,1.42,2.22,2.15.34-.42.68-.83,1-1.23,0-3.31,0-6.62,0-9.93C204.12,56.94,203.06,56.11,202,55.26Z"/><path class="a" d="M259.69,56.95c3-1.83,5.65-4.17,8.73-5.75,1.87,1.14,3.17,3.38,5.45,3.71-.1,4.17.06,8.35-.08,12.52-3,2.36-6.29,4.33-9.33,6.63-1.86-1.2-3.65-2.5-5.48-3.75a3.51,3.51,0,0,0,.71-2.15q0-5.6,0-11.21m5.18-1.29c0,3.84,0,7.67,0,11.51.75.62,1.45,1.29,2.23,1.86a3.12,3.12,0,0,0,1.15-.8c0-3.37,0-6.74,0-10.11C267.09,57.3,266,56.47,264.87,55.66Z"/><path class="a" d="M275.26,55.8c2.18-1.8,4.6-3.3,6.88-5,1.91,1.41,4.31,1.35,6.53.93-1.52,2.42-2.83,5-4.3,7.4,1.77.09,3.6-.26,5.33.28,0,2.95,0,5.89,0,8.84-2.3,1.89-4.69,3.66-7,5.54a5.73,5.73,0,0,0-4.17-1.49c-1.67-.14-2.9,1.13-4.12,2,1.71-3.25,3.63-6.38,5.43-9.58-1.51,0-3,0-4.53,0a76.45,76.45,0,0,1-.1-9m5.23-.63q0,2.65,0,5.3l2.15,0c.86-1.62,1.78-3.21,2.72-4.79a12.83,12.83,0,0,1-4.87-.54m1,8.45c-1.15,1.89-2.18,3.86-3.34,5.74,2-.84,4.18-.6,6.27-.34,0-1.81,0-3.62,0-5.43A17.44,17.44,0,0,1,281.47,63.61Z"/><path class="a" d="M39.82,56.73c2.73-1.79,5.35-3.75,8.07-5.55C49.61,53.44,51.3,55.75,53,58,50.35,60,47.76,62,45.12,63.91a15,15,0,0,0,.11,3c1.38,1,2.84,2,4.22,3,1.22-.92,2.45-1.83,3.76-2.62-2.14,2.52-4.58,4.77-6.8,7.22-2.33-1.47-4.63-3-7-4.38a6.3,6.3,0,0,0,.42-2c0-3.81,0-7.61,0-11.41m5.31-.12c0,2,0,3.9,0,5.85,1-.73,1.94-1.46,2.9-2.2C47.06,59,46.12,57.81,45.13,56.61Z"/><path class="a" d="M219.84,55.38c1.34-1.31,2.6-2.69,3.92-4,1.7,1,3,3.27,5.13,3.09l-.48,1.15c-.11,3.89,0,7.78,0,11.67l1,1.65,1.85,0c-1.43,1.45-2.68,3-4.06,4.54-1.32-1.18-2.67-2.31-3.95-3.53-.31-3.58,0-7.22-.13-10.82-.72-.84-1.46-1.65-2.16-2.49l-1.06.44c0,3.35,0,6.7,0,10-.14,1.07.83,1.74,1.35,2.54-1.23,1.38-2.46,2.75-3.72,4.1-1.62-1.1-3.24-2.19-4.9-3.22.52-.78,1.06-1.54,1.62-2.29,0-3.56,0-7.12,0-10.67a2.74,2.74,0,0,0-2.8-1.47c1.28-1.49,2.58-3,4-4.34C216.84,53,218.35,54.19,219.84,55.38Z"/><path class="a" d="M140.59,56.13c1.26-1.31,2.54-2.59,3.78-3.92,1.49,1.18,3,2.3,4.57,3.39l-.63.92c0,4,0,7.91,0,11.87A12.24,12.24,0,0,0,150,69.58a20.54,20.54,0,0,0,2.4-.77c-.09-3.5.06-7-.07-10.51a2.46,2.46,0,0,0-2.75-1.69c1.35-1.41,2.62-2.9,3.95-4.34,1.44,1.3,3,2.45,4.53,3.67q1.86-2.06,3.82-4c1.74.94,2.95,3,5.06,3.09a6.2,6.2,0,0,0-.5,2c0,3.22,0,6.44,0,9.66-.1,1,.63,1.8,1,2.65l2.05.11c-1.4,1.47-2.76,3-4.06,4.52-1.39-1.17-2.74-2.37-4.12-3.55,0-3.63,0-7.26,0-10.89-1-.67-1.56-2.48-2.86-2.24-.64,2.16-.11,4.55-.28,6.8.19,2.07-.72,4.61,1.26,6.07-1.42,1.47-2.75,3-4.11,4.53-1.56-1.21-3.1-2.46-4.63-3.7-1.13,1.13-2.29,2.23-3.5,3.27-1.6-1.12-2.83-3.22-5-3l1-1.36q-.08-5.74,0-11.48A5.61,5.61,0,0,0,140.59,56.13Z"/></svg>