<svg id="Camada_1" data-name="Camada 1" xmlns="http://www.w3.org/2000/svg" viewBox="0 0 300 120"><defs><style>.cls-1{fill:#fff;}</style></defs><title>wikipedia</title><path class="cls-1" d="M0,38.17H15.52c.5,1.4,0,1.94-1.35,1.87a9.6,9.6,0,0,0-1.22,0c-1.34.13-1.87.82-1.43,2.14a37.51,37.51,0,0,0,1.59,3.88q6,13.12,12.09,26.25a15.25,15.25,0,0,0,.85,1.41L28.43,69c1.1-2.19,2.06-4.46,3.34-6.56a5.22,5.22,0,0,0,0-5.81c-2.52-4.69-4.85-9.45-7.23-14.19-.66-1.31-1.4-2.36-3.06-2.54-.42,0-.75-.94-1.12-1.4l.34-.47H32.56c.31,0,.94.53.87.73A2,2,0,0,1,32.7,40c-.23.19-.67.13-1,.16-1.16.11-1.62.79-1.15,1.8,1.79,3.84,3.65,7.65,5.62,11.72,1.87-3.66,3.54-7,5.15-10.31,1.06-2.23.65-3-1.79-3.21-1.22-.13-1.71-.58-1.28-1.87H49.86c.5,1.26.07,1.72-1.25,1.95a3.47,3.47,0,0,0-2.21,1.39c-2.81,4.9-5.52,9.87-8.22,14.85a1.61,1.61,0,0,0,0,1.28q3.77,7.8,7.61,15.56c.07.14.24.23.51.48.31-.62.61-1.15.84-1.7L58.69,44.61c1.4-3.32.94-4.17-2.61-4.51-1.26-.12-1.65-.64-1.21-1.87H69.18c.39,1.08.32,1.87-1.06,1.87-3,.1-4.6,1.81-5.72,4.39q-7.5,17.2-15.14,34.4c-.58,1.3-1.06,3.25-2.68,3-1-.15-2-1.78-2.57-3-2.46-5-4.75-10.13-7.23-15.46-.38.72-.67,1.25-.94,1.8L27.19,78.58A5.41,5.41,0,0,1,26.44,80c-.74.77-1.58,2-2.36,2S22.41,80.7,22,79.79Q13.57,61.46,5.3,43.13C4.44,41.25,3.36,40,1.15,40-.07,40-.07,39.87,0,38.17Z"/><path class="cls-1" d="M299.83,81.51h-16.1c-.4-1.1-.22-1.75,1-1.76h.87c3.08-.22,3.62-1,2.59-3.86S286,70,285,67a1.56,1.56,0,0,0-1.76-1.25q-6.13.08-12.26,0a2.51,2.51,0,0,0-2.73,1.87c-1,2.69-2.1,5.31-3.15,8s-.27,3.91,2.64,4.13c1,.08,2.44-.23,1.87,1.78H255.16c-.24-.85-.4-1.68.86-1.72,3.12-.1,4.64-2.11,5.73-4.69q5.1-11.84,10.12-23.75c1.51-3.54,3-7.08,4.55-10.61a6.81,6.81,0,0,1,.94-1.67,1.43,1.43,0,0,1,2.56.25,19.61,19.61,0,0,1,1,2.51q6.34,16.78,12.66,33.55c.94,2.53,2.36,4.26,5.24,4.35C300.18,79.8,300.11,80.56,299.83,81.51ZM277.1,45.28l-6.87,17.53h13.25Z"/><path class="cls-1" d="M199.82,81.45c-.39-1.14-.08-1.62,1.13-1.74,2.81-.27,3.21-.71,3.22-3.63q0-9.72,0-19.43c0-3,0-3-3-3.41L199.75,53V51.64c6.66,0,13.28-.51,19.8.14,7.18.71,11.81,6.48,12.06,13.7a25.21,25.21,0,0,1-.38,5.56,12.55,12.55,0,0,1-11.69,10.31C213,81.64,206.48,81.45,199.82,81.45Zm9.37-15.15V76.46c0,2.2.64,3.06,2.81,3.19a28.31,28.31,0,0,0,6.27-.16c4.27-.69,6.77-3.1,7.26-7.36a36.14,36.14,0,0,0-.09-9.56c-1.2-7.67-7.11-10-14-9.28A2.27,2.27,0,0,0,209.18,56c.08,3.41,0,6.82,0,10.3Z"/><path class="cls-1" d="M115.1,81.44h-9.24c-.72-4-9-13.79-11.94-13.87,0,3.31-.06,6.62,0,9.92,0,1.52,1.33,2,2.58,2.16s1.43.75,1.06,1.87c-.29,0-.58.07-.86.07H84.5c-.48-1.23-.14-1.77,1.25-1.87,2.54-.23,3.16-1,3.16-3.64V56.78c0-3-.09-3.07-3-3.52L84.38,53V51.38H97.5c.34,1.63.36,1.72-1.15,2-1.82.29-2.59,1.14-2.5,3.06.14,2.9,0,5.81,0,9.16C95.13,65,96.31,64.75,97,64c2.45-2.49,4.82-5.07,7-7.78,1.29-1.58,1-2.06-.73-3.06-.45-.26-.64-1-1.13-1.75h12.28l.11,1.41a2.32,2.32,0,0,1-.56.26,9.54,9.54,0,0,0-7.54,4.07c-1.62,2.06-3.39,4-5.16,6-1.12,1.23-1.27,2.25-.06,3.62q4.27,4.86,8.28,10a7,7,0,0,0,4.56,2.94C115.25,79.84,115.45,80.44,115.1,81.44Z"/><path class="cls-1" d="M178.34,64.69c1.67,0,3.07-.07,4.46,0,1.74.11,2.81-.55,3.09-2.32.15-.87.34-1.87,1.73-1.4v9.49c-.94.32-1.4.14-1.68-1-.65-2.55-1-2.71-3.65-2.72h-4v6.83c-.12,6.56.34,5.73,5.7,5.75h1.93c3.29,0,4.9-1.13,6.1-4.21.49-1.26.49-1.26,2-1-.36,2.15-.68,4.32-1.14,6.46a1.54,1.54,0,0,1-1.16.89q-10.94.09-21.88,0c-.37,0-.73-.47-1.09-.72.34-.36.62-1,1-1,3.21-.65,3.47-.94,3.47-4.25q0-9.37,0-18.75c0-3.16,0-3.16-3.09-3.58l-1.31-.2-.09-1.61h23.44l1,7.67c-.89.54-1.52.53-1.87-.59-1.1-3.75-3.66-5.2-7.43-4.89-1.28.1-2.57,0-3.85.06-1,0-1.69.46-1.69,1.58C178.34,58.29,178.34,61.38,178.34,64.69Z"/><path class="cls-1" d="M139.21,53V51.48a3.51,3.51,0,0,1,.68-.14h14.88a9.14,9.14,0,0,1,1.22.07c5.28.72,8,3.48,8,8,0,5.31-3.39,9.18-8.63,9.72-2.17.22-4.39,0-6.74,0,0,2.69-.11,5.62,0,8.5.1,1.94,1.93,1.76,3.23,2,1.11.18,1.62.54,1.2,1.87H139.28c-.41-1.08-.21-1.63,1.11-1.82,3-.42,3.19-.71,3.19-3.65V56.92c0-3.33-.06-3.39-3.32-3.75Zm9.37,7.64c0,1.69,0,3.38,0,5.06,0,.47.37,1.25.69,1.33,4.8,1.08,8.78.51,9.37-5.49a17.44,17.44,0,0,0,0-1.75c0-5.08-2.35-7.37-8.23-6.5a2,2,0,0,0-1.87,2.08v.19c.09,1.72.08,3.44.08,5.09Z"/><path class="cls-1" d="M78.85,81.65H65c-.41-1.18-.24-1.82,1.21-2,2.73-.25,3.2-.82,3.2-3.51V56.71c0-3,0-3-3-3.51C66,53.14,65.47,53,65,53a4.46,4.46,0,0,1-.14-.7,8.83,8.83,0,0,1,.06-.94h14c.46,1.27,0,1.71-1.2,1.87-3.15.44-3.15.49-3.15,3.75V76.23c0,2.64.45,3.14,3,3.45C79.15,79.91,79.15,79.91,78.85,81.65Z"/><path class="cls-1" d="M133.66,81.56H119.92c-.4-1.1-.23-1.66,1-1.81,2.93-.34,3.36-.87,3.36-3.75V56.87c0-3.08-.07-3.16-3.14-3.63l-1.3-.24-.14-1.6h14.06V53c-4.43,1-4.43,1-4.43,5.49V76.17c0,2.81.38,3.21,3.29,3.61C133.86,79.91,133.86,79.91,133.66,81.56Z"/><path class="cls-1" d="M237.63,53V51.43h13.95l.11,1.54c-.66.13-1.21.25-1.77.34-2.47.38-2.74.66-2.74,3.12V76.06c0,2.91.35,3.35,3.22,3.66,1.21.13,1.52.62,1.11,1.8H237.74c-.45-1.25,0-1.69,1.22-1.8,2.67-.25,3.17-.87,3.17-3.56V56.88c0-3.12,0-3.15-3.13-3.62Z"/></svg>