<svg xmlns="http://www.w3.org/2000/svg" viewBox="0 0 300 120"><defs><style>.a{fill:#fff;fill-rule:evenodd;}</style></defs><title>wish</title><path class="a" d="M13.45,15.86l37.86,15.7a8.06,8.06,0,0,1,5,8.79q-2.35,16.89-4.7,33.76c-.73,4.65,1.73,9.2,6.34,10.45a10.75,10.75,0,0,0,6.63-.4,12.53,12.53,0,0,0,7.9-10.49q1-6.86,1.94-13.71c.07-.45.11-.9.2-1.34a7.65,7.65,0,0,1,6.27-5.46,10.89,10.89,0,0,1,1.51,0h7.81a5.65,5.65,0,0,1,3.57,1.17,5.33,5.33,0,0,1,2,3.91,6.89,6.89,0,0,1-.13,1.57q-1,7.49-2,15c-.76,6.52,4.45,11.12,10.91,10s9.32-6.26,10.2-12.2q1.59-11.6,3.19-23.19a12.49,12.49,0,0,1,.3-1.71,7.64,7.64,0,0,1,6.9-5.45h8.69a6.5,6.5,0,0,1,5.06,2.09,3,3,0,0,1,.62,2.32Q137.73,59.24,136,71.88c-.22,1.59-.42,3.2-.74,4.78-2.81,14-15,26-28.95,28.78-9.74,1.91-19.51-.2-26.64-7.46a34.28,34.28,0,0,1-20.94,8.08C42,106.58,29.17,94.25,30.08,77.37c.06-1.21.21-2.42.39-3.63Q32.23,61.1,34,48.44L10.9,38.93a17.45,17.45,0,0,1-2-.89,8.11,8.11,0,0,1-3.74-8.6c.73-2.9,1.48-5.8,2.21-8.7.63-2.51,3-6.17,6-4.88Z"/><path class="a" d="M242.71,11.66c2.79,0,5.57,0,8.36,0a6.7,6.7,0,0,1,3.49,1,3.05,3.05,0,0,1,1.52,3.05q-2.38,16.58-4.79,33.15c6.16-5.26,12.61-7.36,20.59-7.44,5.3-.06,10.35,1.1,14.63,4.35,7.69,5.84,9.44,14.53,8.06,23.76Q292.28,84.39,290,99.23a12.83,12.83,0,0,1-.44,2.22,7,7,0,0,1-6.19,4.63h-7.75c-2.33,0-6-1.24-5.41-4.17l3.69-25.51a46.13,46.13,0,0,0,.75-8.7c-.28-5.23-2.5-9.06-8-9.75a16.77,16.77,0,0,0-13.28,4.37c-3.82,3.39-5.21,7.86-5.89,12.72q-1.84,12.54-3.67,25.07a7,7,0,0,1-6.92,6.06h-7.46c-3,0-5.82-1.37-5.26-4.76q6.15-42,12.31-84.08a7,7,0,0,1,6.27-5.67Z"/><path class="a" d="M220.55,45.3a6.15,6.15,0,0,1,2.13,2.11,5.93,5.93,0,0,1-.45,6.72l-3.33,4.24c-1,1.29-2.22,2.47-4,2.16s-3.94-2.08-5.66-2.83c-4.25-1.94-14.49-3.9-18.18.07a3.63,3.63,0,0,0-.87,3.14c.55,2.67,7.12,4.15,9.2,4.75,2.63.74,5.27,1.46,7.87,2.3,2.91.93,7.56,3.07,9.68,5.23,2.81,2.82,3.61,6.66,3.48,10.5-.34,10.26-6.51,18-15.77,22C196.94,109,188,109,180,107a42,42,0,0,1-7-2.39c-1.92-.87-7.58-3.93-8.84-5.56a3.05,3.05,0,0,1-.45-3.06,5.53,5.53,0,0,1,.8-1.23l5-6.63a4,4,0,0,1,4.78-1c1.88,1,3.83,2.21,5.73,3.14a28.64,28.64,0,0,0,11.46,3c3.22.15,8.46,0,10-3.47a3.37,3.37,0,0,0,.13-2.76c-1.56-3.36-9.39-5-12.74-6.08-4-1.25-8.84-3.11-12.21-5.81-4.18-3.31-5.35-8-4.78-13.13,1.14-10.15,9.21-17.26,18.56-20.15,9.92-3.11,21.27-2.26,30.06,3.5Z"/><path class="a" d="M152.24,42.21a20.43,20.43,0,0,1,2.07,0h5.36a11.69,11.69,0,0,1,2.05.1c1.48.24,3.17,1,3.77,2.48a2.61,2.61,0,0,1,.14,1.41l-7.56,53.78a7.45,7.45,0,0,1-.26,1.33,6.86,6.86,0,0,1-6.12,4.81h-7.58a7,7,0,0,1-3.58-.82,3.13,3.13,0,0,1-1.81-3.05l7.5-53.34a13.64,13.64,0,0,1,.34-1.91,6.91,6.91,0,0,1,5.68-4.75Z"/></svg>