<?xml version="1.0" encoding="utf-8"?>
<!-- Generator: Adobe Illustrator 23.0.6, SVG Export Plug-In . SVG Version: 6.00 Build 0)  -->
<svg version="1.1" id="Camada_1" xmlns="http://www.w3.org/2000/svg" xmlns:xlink="http://www.w3.org/1999/xlink" x="0px" y="0px"
	 viewBox="0 0 300 120" style="enable-background:new 0 0 300 120;" xml:space="preserve">
<style type="text/css">
	.st0{fill-rule:evenodd;clip-rule:evenodd;}
</style>
<title>wish</title>
<path class="st0" d="M13.4,15.9l37.9,15.7c3.5,1.4,5.6,5,5,8.8c-1.6,11.3-3.1,22.5-4.7,33.8c-0.7,4.7,1.7,9.2,6.3,10.4
	c2.2,0.6,4.5,0.4,6.6-0.4c4.4-1.7,7.5-5.8,7.9-10.5c0.7-4.6,1.3-9.1,1.9-13.7c0.1-0.5,0.1-0.9,0.2-1.3c0.8-2.9,3.3-5,6.3-5.5
	c0.5,0,1,0,1.5,0h7.8c1.3,0,2.5,0.4,3.6,1.2c1.2,1,1.9,2.4,2,3.9c0,0.5,0,1.1-0.1,1.6c-0.7,5-1.3,10-2,15c-0.8,6.5,4.4,11.1,10.9,10
	s9.3-6.3,10.2-12.2c1.1-7.7,2.1-15.5,3.2-23.2c0.1-0.6,0.2-1.1,0.3-1.7c0.9-3.1,3.7-5.3,6.9-5.5h8.7c1.9-0.1,3.8,0.7,5.1,2.1
	c0.5,0.7,0.7,1.5,0.6,2.3c-1.2,8.4-2.4,16.8-3.5,25.2c-0.2,1.6-0.4,3.2-0.7,4.8c-2.8,14-15,26-28.9,28.8c-9.7,1.9-19.5-0.2-26.6-7.5
	c-5.9,5-13.3,7.8-20.9,8.1C42,106.6,29.2,94.3,30.1,77.4c0.1-1.2,0.2-2.4,0.4-3.6c1.2-8.4,2.4-16.9,3.5-25.3l-23.1-9.5
	c-0.7-0.3-1.4-0.6-2-0.9c-2.9-1.8-4.4-5.2-3.7-8.6c0.7-2.9,1.5-5.8,2.2-8.7C8,18.2,10.4,14.6,13.4,15.9L13.4,15.9z"/>
<path class="st0" d="M242.7,11.7c2.8,0,5.6,0,8.4,0c1.2,0,2.4,0.4,3.5,1c1.1,0.6,1.7,1.8,1.5,3.1c-1.6,11.1-3.2,22.1-4.8,33.2
	c6.2-5.3,12.6-7.4,20.6-7.4c5.3-0.1,10.4,1.1,14.6,4.3c7.7,5.8,9.4,14.5,8.1,23.8c-1.5,9.9-3.1,19.8-4.6,29.7
	c-0.1,0.8-0.2,1.5-0.4,2.2c-0.9,2.6-3.4,4.5-6.2,4.6h-7.8c-2.3,0-6-1.2-5.4-4.2l3.7-25.5c0.5-2.9,0.8-5.8,0.8-8.7
	c-0.3-5.2-2.5-9.1-8-9.8c-4.9-0.5-9.7,1-13.3,4.4c-3.8,3.4-5.2,7.9-5.9,12.7c-1.2,8.4-2.5,16.7-3.7,25.1c-0.5,3.5-3.4,6.1-6.9,6.1
	h-7.5c-3,0-5.8-1.4-5.3-4.8c4.1-28,8.2-56,12.3-84.1C237.1,14.2,239.6,11.9,242.7,11.7L242.7,11.7z"/>
<path class="st0" d="M220.6,45.3c0.9,0.5,1.6,1.2,2.1,2.1c1.3,2.1,1.1,4.8-0.4,6.7l-3.3,4.2c-1,1.3-2.2,2.5-4,2.2s-3.9-2.1-5.7-2.8
	c-4.3-1.9-14.5-3.9-18.2,0.1c-0.8,0.9-1.1,2-0.9,3.1c0.6,2.7,7.1,4.2,9.2,4.8c2.6,0.7,5.3,1.5,7.9,2.3c2.9,0.9,7.6,3.1,9.7,5.2
	c2.8,2.8,3.6,6.7,3.5,10.5c-0.3,10.3-6.5,18-15.8,22C196.9,109,188,109,180,107c-2.4-0.6-4.7-1.4-7-2.4c-1.9-0.9-7.6-3.9-8.8-5.6
	c-0.7-0.9-0.9-2-0.4-3.1c0.2-0.4,0.5-0.9,0.8-1.2l5-6.6c1.2-1.4,3.1-1.8,4.8-1c1.9,1,3.8,2.2,5.7,3.1c3.6,1.8,7.5,2.8,11.5,3
	c3.2,0.2,8.5,0,10-3.5c0.4-0.9,0.5-1.9,0.1-2.8c-1.6-3.4-9.4-5-12.7-6.1c-4-1.3-8.8-3.1-12.2-5.8c-4.2-3.3-5.4-8-4.8-13.1
	c1.1-10.1,9.2-17.3,18.6-20.1C200.4,38.8,211.7,39.6,220.6,45.3L220.6,45.3z"/>
<path class="st0" d="M152.2,42.2c0.7,0,1.4,0,2.1,0h5.4c0.7,0,1.4,0,2.1,0.1c1.5,0.2,3.2,1,3.8,2.5c0.2,0.4,0.2,0.9,0.1,1.4
	l-7.6,53.8c0,0.5-0.1,0.9-0.3,1.3c-0.8,2.7-3.3,4.6-6.1,4.8h-7.6c-1.2,0.1-2.5-0.2-3.6-0.8c-1.2-0.5-1.9-1.8-1.8-3.1l7.5-53.3
	c0.1-0.6,0.2-1.3,0.3-1.9C147.4,44.5,149.6,42.6,152.2,42.2L152.2,42.2z"/>
</svg>
