<svg id="svg3743" xmlns="http://www.w3.org/2000/svg" viewBox="0 0 300 120"><defs><style>.cls-1{fill:#fff;}</style></defs><title>yahoo</title><g id="layer1"><path id="path3223" class="cls-1" d="M296.16,26c2.3.38,3.84,1.79,3.84,4.22a14.9,14.9,0,0,1-.55,2.89c-1.54,6.8-7.56,30.81-10.1,46.83L287,77.6l7.42-49.3Z"/><path id="path3201" class="cls-1" d="M146.13,32.51a19.43,19.43,0,0,1-9.16,0l4.76,4.94Z"/><path id="path3193" class="cls-1" d="M98.53,32.51a19.43,19.43,0,0,0,9.16,0l-4.76,4.94Z"/><path id="path3181" class="cls-1" d="M71.65,32.49c7,17.77,18.07,44.67,23.58,55L87.08,85,66.91,34.51Z"/><path id="path3175" class="cls-1" d="M65.27,32.49a9,9,0,0,0,6.39,0l-4.54,2.79Z"/><path id="path3177" class="cls-1" d="M68.49,34.43,89,84.84a10.38,10.38,0,0,1-2.94,2.62c-6-15.34-12.35-30.69-17.77-45.83l-2.68-4.54Z"/><path id="path3173" class="cls-1" d="M50.82,87.44l-6.07-2.15L66.11,35.17l2.38-.74v7.42c-3.32,9.59-11.75,30.62-17.68,45.59Z"/><path id="path3167" class="cls-1" d="M45.79,25.19l2,4.58,5.13-2.38L55,25.19a19,19,0,0,1-9.23,0Z"/><path id="path3165" class="cls-1" d="M31.32,65.11l-3.48,1.28-2.2-3.85,21.79-34.8L49,27.22c2.15-.49,4.5-1,6-2C51.55,29.86,39,51.72,31.32,65.11Z"/><path id="path3163" class="cls-1" d="M26.56,64.56l.92-.92L49,27.21l-3.25-2C43.18,30,33.58,45.73,27.47,55.77l-2.93,5.49Z"/><path id="path3161" class="cls-1" d="M9.16,25.19c4.78,8.47,12.12,20.32,18.31,30.58v7.88L26,65.11,4.58,27Z"/><path id="path3159" class="cls-1" d="M5.63,27.49l3.53-2.3a17.16,17.16,0,0,1-9.16,0l1.47,1.65Z"/><path id="path3157" class="cls-1" d="M27.47,63.65,25.82,66l-2.2-.92C19.53,58,7.51,36.5,0,25.19a14,14,0,0,0,6,2.09Z"/><path id="path3155" class="cls-1" d="M31.87,94.6l-6.23-2.93.55-26,1.28-2,3.85,1.47Z"/><path id="path3153" class="cls-1" d="M27.47,92.58l-4.4,2,.55-29.49,3.85-1.47Z"/><path id="path3171" class="cls-1" d="M41.76,87.46C49.4,71.88,57.89,51,65.27,32.49l3.23,1.94-20.86,51L43.4,86.91Z"/><path id="path3179" class="cls-1" d="M88.83,84.75l6.41,2.7a18.85,18.85,0,0,0-9.14,0l1.25-3.08Z"/><path id="path3185" class="cls-1" d="M54.21,69.44l4.51-1.93q9.73.34,19.48,0l4.57,2-4.26.93H57.44Z"/><path id="path3183" class="cls-1" d="M57.21,71.34l-3-1.9q14.26-.22,28.58.06l-3,1.85C72.23,71.1,64.72,71.13,57.21,71.34Z"/><path id="path3191" class="cls-1" d="M107.69,87.46l-6.41-2.2V36l1.83-.92,4.58-2.56A524.39,524.39,0,0,0,107.69,87.46Z"/><path id="path3189" class="cls-1" d="M103.11,84.89v1.28l-4.58,1.28c.73-18.28.8-36.6,0-54.94l4.58,2.56Z"/><path id="path3199" class="cls-1" d="M137,87.46l6.41-2.2V36l-1.83-.92L137,32.51A524.58,524.58,0,0,1,137,87.46Z"/><path id="path3205" class="cls-1" d="M103.13,59.87,107,58.15c10.23.26,20.47.24,30.72,0l3.86,1.72L136.78,61H106.94Z"/><path id="path3207" class="cls-1" d="M178.45,32.49c-18,0-27,11.25-27,27.6,0,20.48,13.58,27.57,26.73,27.57,15.61,0,26.8-8.78,26.8-27.52,0-18-10.59-27.65-26.57-27.65Zm-.54,2.61h.51c11.88,0,20.6,8.09,20.6,25s-8.71,25-20.58,25c-12.95,0-20.56-9.28-20.56-24.93,0-17.72,9.39-24.85,20-25.07Z"/><path id="path3209" class="cls-1" d="M178.39,31.77c-19.43,0-29.62,12.32-29.62,28.28,0,17.48,11.13,28.14,29.59,28.14,20,0,29.71-12,29.71-28,0-17.77-11.64-28.47-29.68-28.47Zm.06,1.82c15.34,0,25.51,9.23,25.51,26.54,0,18-10.75,26.43-25.74,26.43-12.62,0-25.66-6.81-25.66-26.48,0-15.7,8.62-26.5,25.89-26.5Z"/><path id="path3213" class="cls-1" d="M245.58,29.68c-18.25,0-30.76,10.32-30.76,30.44,0,19.73,11.64,30.76,30.84,30.76,14.54,0,30.48-7.47,30.48-30.48,0-24.83-17.4-30.72-30.55-30.72Zm-.1,2.2c14.53,0,25.23,8.83,25.23,28.29,0,21.16-12.94,28-25.2,28-13.1,0-25-7.69-25-28.44C220.47,38.24,233.69,31.88,245.48,31.88Z"/><path id="path3215" class="cls-1" d="M245.45,28.46c-19.35,0-34.13,11-34.13,31.41,0,16.83,9.84,31.64,34.29,31.64,20.71,0,34.22-11.38,34.22-31.34,0-18.82-12.61-31.71-34.38-31.71Zm.12,2c12.79,0,29.72,5.73,29.72,29.89,0,22.38-15.5,29.65-29.65,29.65-18.68,0-30-10.72-30-29.92,0-19.52,12.18-29.57,29.94-29.57Z"/><path id="path3217" class="cls-1" d="M281.33,90.6c0-2.36,1.44-4.56,4.32-4.56s4.82,1.65,4.82,4.28c0,3.28-2.17,4.49-4.16,4.49-2.75,0-5-1.43-5-4.21Z"/><path id="path3221" class="cls-1" d="M285.93,79.4c2.23-15.78,3.59-32.37,4.9-48.91,0-3.3,2.18-4.59,4.38-4.59a8.42,8.42,0,0,1,1,.08l-.6,4-7.83,49Z"/><path id="path3151" class="cls-1" d="M23.08,94.6l4.4-3.23,4.39,3.23a29.42,29.42,0,0,0-4.39-.44A34.33,34.33,0,0,0,23.08,94.6Z"/><path id="path3169" class="cls-1" d="M41.76,87.46,47.9,84.8a9.23,9.23,0,0,0,2.92,2.64,18.76,18.76,0,0,0-9.06,0Z"/><path id="path3187" class="cls-1" d="M98.53,87.46a19.39,19.39,0,0,1,9.15,0l-4.57-2.56Z"/><path id="path3203" class="cls-1" d="M107,61.9l-3.86-2c12.81.13,25.62.16,38.43,0l-3.85,2Q122.36,61.69,107,61.9Z"/><path id="path3197" class="cls-1" d="M141.55,84.89v1.28l4.58,1.28c-.73-18.28-.8-36.6,0-54.94l-4.58,2.56Z"/><path id="path3195" class="cls-1" d="M146.13,87.46a19.39,19.39,0,0,0-9.15,0l4.57-2.56Z"/><path id="path3219" class="cls-1" d="M288,77.55l-2,1.85a5.88,5.88,0,0,1,3.43.53Z"/><path id="path3507" class="cls-1" d="M299.89,29.91a4.5,4.5,0,0,1-8.93,0,4.5,4.5,0,0,1,8.93,0Z"/></g></svg>