<svg id="svg2" xmlns="http://www.w3.org/2000/svg" viewBox="0 0 300 120"><defs><style>.cls-1{fill:#fff;}</style></defs><title>yandex</title><g id="g10"><path id="path38" class="cls-1" d="M134.4,47.59c-6,0-12.14,4.34-12.14,4.34V49.15c0-.61-.24-.86-.86-.86h-7.61a.86.86,0,0,0-1,.86V108.7c0,.61.24,1,.86,1h7.71a.86.86,0,0,0,.86-1v-51a16.46,16.46,0,0,1,7.93-2.27c4.14,0,7.43,2.05,7.43,6.28v47a.86.86,0,0,0,1,1h7.6a.86.86,0,0,0,.86-1V59.07C147,51.58,142.44,47.59,134.4,47.59Z"/><path id="path40" class="cls-1" d="M193.48,17.71h-7.6a.86.86,0,0,0-1,.86v30a22.43,22.43,0,0,0-7.72-1.74c-12.33,0-20.8,11.79-20.8,34.48,0,19.43,8.24,29.85,19,29.85,4.53,0,8.26-2.6,11-5L188,109a1,1,0,0,0,1.07.65h4.34a.86.86,0,0,0,.86-1V18.54c0-.61-.24-.86-.86-.86Zm-27,61.67c0-12.5,3.66-24.88,11.14-24.88a11.51,11.51,0,0,1,7.33,2.7v44a14.39,14.39,0,0,1-6.77,2C170,103.23,166.46,93.59,166.46,79.39Z"/><path id="path42" class="cls-1" d="M222.57,47c-12.65,0-18.84,16.58-18.84,34.6,0,18.86,8.9,29.46,20.34,29.46a29,29,0,0,0,13.32-3.81.93.93,0,0,0,.47-1.16l-.93-4a.86.86,0,0,0-.93-.72,40.6,40.6,0,0,1-8.45,1.22c-9.37,0-13.66-8.36-13.66-19.41V80.51a71.39,71.39,0,0,0,7.43.64H239V76C238.9,57.13,232.33,47,222.57,47Zm-.64,26.44c-2.79,0-7.88.7-7.88.7s.07-2,.32-4c1.1-10.34,3.57-15.6,7.8-15.6,3.71,0,6.24,5.36,6.84,14.74.12,1.95.12,4.14.12,4.14h-7.2Z"/><path id="path44" class="cls-1" d="M98.43,54.8c-2.79-5.57-7.8-8-13.54-8A37.94,37.94,0,0,0,71.63,50c-.75.33-1.23.63-1.23,1.23a2.48,2.48,0,0,0,.36,1.1l2.6,5.57a1.1,1.1,0,0,0,1,.77,1.91,1.91,0,0,0,1-.4c3.71-2.4,6.5-3.71,8.66-3.71,2.87,0,4.82,1.9,6,4.77C91.26,62,91.7,65.67,91.7,69.93v1.21a19.35,19.35,0,0,0-8.49-2.28c-11,0-16.89,10.4-16.89,21.59,0,12,6.94,20.8,15.23,20.8,4.64,0,8.81-2.72,11.62-6.15,0,0,1.49,3.57,1.69,4a.86.86,0,0,0,.93.58h4.44a.86.86,0,0,0,.86-1V74.15c0-8.5-.44-15-2.66-19.39Zm-6.76,45.26a10.58,10.58,0,0,1-7.12,3.2A6.66,6.66,0,0,1,79,100.14c-1.74-2.44-2.6-6.2-2.6-10.4,0-6.56,2.42-13.29,7.58-13.29a12.5,12.5,0,0,1,7.74,2.73V100Z"/><path id="path46" class="cls-1" d="M279,48.27h-6.77a1.31,1.31,0,0,0-1.34.93c-.44,1.12-3.3,8.66-4.47,11.78-.86,2.23-3.08,8.63-3.08,8.63h-.26s-1.65-4.64-2.54-6.94c-.71-1.86-4.48-11.82-5-13-.25-.66-.54-1.31-1.5-1.31h-7.43a1.1,1.1,0,0,0-1,1.42c.26.56,12.07,27.47,12.07,27.47S245,107.35,244.66,108a1.15,1.15,0,0,0,1,1.68h6.5c1.1,0,1.54-.58,1.86-1.51.93-2.6,2.32-6.26,4.34-11.88,1.3-3.71,3.36-10.27,3.36-10.27h.22s2.27,6.67,3.1,8.85c2.13,5.52,4.84,12.71,5.13,13.47s.71,1.35,1.49,1.35H279a1,1,0,0,0,.71-1.56c-.83-1.74-7.8-18.74-12.67-29.92,0,0,12.6-27.86,12.85-28.52s.18-1.41-.86-1.41Z"/><path id="path48" class="cls-1" d="M74,8.75H65.43a1.23,1.23,0,0,0-1.34.93C64,10.22,51.3,49,50.35,52.22,49.7,54.5,47.57,62.56,47,64.5L42.65,52.43C41.58,49.06,31.31,20.32,31,19.14c-.17-.63-.45-1.41-1.56-1.41H21.08a1.1,1.1,0,0,0-1,1.45c.2.45,15.26,40.52,21.36,55.83v33.66c0,.61.24,1,.86,1h7.89a.86.86,0,0,0,.86-1V75.25c5.05-14.11,23.56-64.51,23.73-65.08S75,8.75,74,8.75Z"/></g></svg>