<svg id="Layer_1" data-name="Layer 1" xmlns="http://www.w3.org/2000/svg" viewBox="0 0 300 120"><defs><style>.cls-1{fill:#fff;}</style></defs><title>logo-yelp</title><path class="cls-1" d="M210.68,44.68c-.92-1.48-1.8-3-2.71-4.43-3.71-6-7.39-12-11.12-18-3.44-5.53-1.32-11.6,2.93-14.95a22.12,22.12,0,0,1,6.79-3.41A76.59,76.59,0,0,1,221,.19c4.57-.65,8.84.29,12,4.08a10.42,10.42,0,0,1,2.42,5.85c.3,3.41.56,6.85.81,10.29.18,2.65.35,5.34.53,8,.19,2.92.41,5.88.62,8.91l4.94-6.74a10,10,0,0,1,8-4.13A11,11,0,0,1,259,29.78a46.65,46.65,0,0,1,10.63,16.4,11.4,11.4,0,0,1-.21,9,10.57,10.57,0,0,1-6.88,5.93c-1.82.54-3.7,1-5.8,1.53.46.24.73.43,1,.54,1.82.64,3.62,1.29,5.45,1.85a11,11,0,0,1,7.46,10.26,13.44,13.44,0,0,1-1.21,5.85,41.13,41.13,0,0,1-11.57,15.09,11.66,11.66,0,0,1-14.42.32A9.73,9.73,0,0,1,241,93.73c-1.05-1.79-2.15-3.59-3.44-5.37v2c0,1.4,0,2.77,0,4.17a10.76,10.76,0,0,1-7.36,10.31,12.25,12.25,0,0,1-6.6.45,54.6,54.6,0,0,1-14.47-5.12,19.84,19.84,0,0,1-4.73-3.28,11,11,0,0,1-.72-15.28l3.78-4.48c-1.42.43-2.63.78-3.78,1.18a11.25,11.25,0,0,1-8,0,1.77,1.77,0,0,0-.46-.06c-.11,1.1-.24,2.2-.35,3.3a33.16,33.16,0,0,1-3.44,12.3,21.76,21.76,0,0,1-15.73,11.79,32.2,32.2,0,0,1-7.09.51c0,.54,0,1,0,1.48A12.32,12.32,0,0,1,156.44,120a14.16,14.16,0,0,1-7.14-1.42A11.83,11.83,0,0,1,142.67,108c-.06-1.69,0-3.38,0-5.13-7.31,6.5-19.07,3.79-22.1-4.83a23.2,23.2,0,0,1-7.57,5.69,27.11,27.11,0,0,1-9.24,2.53,60.21,60.21,0,0,1-6.15.24A23.94,23.94,0,0,1,86,103.29a23.24,23.24,0,0,1-9.82-11.68c-.22-.53-.43-1.07-.7-1.8a8.86,8.86,0,0,0-.38.84c-1.34,4.27-2.66,8.51-4,12.78a23.27,23.27,0,0,1-4,7.7A17.57,17.57,0,0,1,58.57,117a23.43,23.43,0,0,1-13.32.4,12.62,12.62,0,0,1-9.32-8.62,13,13,0,0,1,7-15.65c.4-.19.81-.35,1.32-.56a9.81,9.81,0,0,0-.38-1q-4.87-10-9.8-20c-1.13-2.28-2.26-4.56-3.3-6.87-2.42-5.37-1.91-10.45,1.93-15a12.54,12.54,0,0,1,6.79-4.08,13.07,13.07,0,0,1,9.64.91A12.26,12.26,0,0,1,54.41,52L56.9,56.9c.17.29.35.59.62,1.12.49-1.58.86-3,1.29-4.35,1.59-5,5-8.08,10.1-8.83a13.69,13.69,0,0,1,13.5,5.37,4.67,4.67,0,0,0,.38.4,25,25,0,0,1,12.48-5.5,30.66,30.66,0,0,1,13.4.64,21.52,21.52,0,0,1,11.07,7.39,3.65,3.65,0,0,0,.4.35v-1.4c0-3,0-6.1,0-9.13a12.11,12.11,0,0,1,9.48-12.08,13.53,13.53,0,0,1,11.52,2,11.41,11.41,0,0,1,4.94,8,40.68,40.68,0,0,1,.24,4.13c0,.83,0,1.69,0,2.69,5-4.17,10.26-4.62,15.92-1.91a24.51,24.51,0,0,1,26.4,6.12,14.92,14.92,0,0,1,1.66-4.75,11.29,11.29,0,0,1,7.44-5.51,10,10,0,0,1,6.07.41c2.06.83,4.13,1.66,6.2,2.47a5.15,5.15,0,0,0,.75.19C210.7,44.65,210.68,44.68,210.68,44.68ZM160.31,56.12a4.44,4.44,0,0,1-.27-.73,4.09,4.09,0,0,0-3.73-3.17,4.71,4.71,0,0,0-4.84,1.94A4.65,4.65,0,0,0,150.8,57v50.74a4.08,4.08,0,0,0,1.91,3.36,5.43,5.43,0,0,0,3.33.78,4.35,4.35,0,0,0,4.48-4.62c0-2.74,0-5.45,0-8.19a14.81,14.81,0,0,1,.62-4.43c.29.22.56.38.8.56a15.12,15.12,0,0,0,4,2.18,14.24,14.24,0,0,0,7.27.54,14,14,0,0,0,11-7.6,22.83,22.83,0,0,0,2.58-8.94c.22-2.64.27-5.27.27-7.9A36.07,36.07,0,0,0,186,64a14.79,14.79,0,0,0-8.11-10.1,17,17,0,0,0-7.81-1.5,14.3,14.3,0,0,0-6.66,1.8A31,31,0,0,0,160.31,56.12Zm-55.85,23.2h9.93a2.55,2.55,0,0,0,2.87-2.39,13.62,13.62,0,0,0,.22-2.39c0-1.48-.11-3-.16-4.41a23.83,23.83,0,0,0-1.42-7.33c-1.88-5.1-5.32-8.46-10.74-9.61a23.14,23.14,0,0,0-9.7.11,15.37,15.37,0,0,0-12,10.44,32.55,32.55,0,0,0-1.8,10.77,53.31,53.31,0,0,0,.27,6.69,24,24,0,0,0,2.63,9.07,14.32,14.32,0,0,0,10,7.63,24.93,24.93,0,0,0,13.21-.81,15.58,15.58,0,0,0,6.6-4.19,6.39,6.39,0,0,0,1.93-5.1A4.49,4.49,0,0,0,113.69,84a3.6,3.6,0,0,0-4,.59c-.76.57-1.48,1.16-2.18,1.8a10.58,10.58,0,0,1-8.4,2.71,6.57,6.57,0,0,1-5.78-4,15.33,15.33,0,0,1-.94-2.77c-.51-2.25.11-2.95,2.45-2.95C98,79.32,101.24,79.32,104.46,79.32Zm-45.08.34c-.25-.43-.38-.61-.46-.8q-4.64-9.15-9.29-18.26c-.89-1.74-1.77-3.52-2.69-5.24a3.63,3.63,0,0,0-3.08-2.06,5.75,5.75,0,0,0-5.4,2.31,5.18,5.18,0,0,0-.32,5.58q2.49,5.2,5,10.37L53.15,92a14.52,14.52,0,0,1,1.45,4,3.36,3.36,0,0,1-2.93,3.89c-.83.08-1.69,0-2.55,0a13.2,13.2,0,0,0-2.26.3,4.8,4.8,0,0,0-2.57,7.28,5.47,5.47,0,0,0,3.35,2.06,16.25,16.25,0,0,0,6,.19,10.59,10.59,0,0,0,9-6.87c.35-.84.64-1.67.91-2.53Q69,82.92,74.36,65.46c.75-2.44,1.47-4.86,2.23-7.3a3.49,3.49,0,0,0-.81-3.39,5.81,5.81,0,0,0-4.32-2.14,4.43,4.43,0,0,0-4.92,3.43c-.91,3-1.79,6-2.71,9C62.36,69.89,60.91,74.67,59.38,79.66ZM229.82,46.53s-.08,0-.13,0c-.08-.83-.16-1.69-.19-2.52-.13-2.42-.21-4.81-.35-7.22-.08-1.69-.19-3.39-.29-5.08-.14-2.15-.3-4.27-.46-6.41-.14-1.83-.22-3.66-.35-5.48-.21-2.85-.51-5.69-.72-8.54a2.83,2.83,0,0,0-1.8-2.58,5.76,5.76,0,0,0-3.15-.4,82.09,82.09,0,0,0-14.68,4,12.34,12.34,0,0,0-2.82,1.51,3.22,3.22,0,0,0-.83,4.59c4.4,7,8.72,14,13.07,21.05,1.83,2.93,3.71,5.8,5.53,8.7A5.43,5.43,0,0,0,225,50.37a3,3,0,0,0,4.19-1.64A15.19,15.19,0,0,0,229.82,46.53ZM128.25,68.36h0q0,12.36,0,24.7v1.21a3.82,3.82,0,0,0,1.5,2.87,5.17,5.17,0,0,0,3.36,1.13c2.36,0,5-1.18,5-4.86v-.67q0-24.28,0-48.6c0-.35,0-.72,0-1.07a4.82,4.82,0,0,0-1-2.85,5.58,5.58,0,0,0-6-1.31,4.33,4.33,0,0,0-2.88,4.48C128.3,51.71,128.25,60,128.25,68.36ZM196,61.54a29,29,0,0,0,0,3.09,22.26,22.26,0,0,0,.54,3.54c.56,2.23,2.15,3.06,4.37,2.39,4.14-1.26,8.25-2.55,12.38-3.84l6.12-1.9A3.82,3.82,0,0,0,222,62.16a4.13,4.13,0,0,0-2.61-5.08q-9-3.61-18-7.22a3,3,0,0,0-4.08,1.42,5.15,5.15,0,0,0-.54,1.51A33.43,33.43,0,0,0,196,61.54Zm33.46,22.8h0c0-3.25,0-6.53,0-9.78a5.4,5.4,0,0,0-.76-3,3,3,0,0,0-3.3-1.45,4.94,4.94,0,0,0-3,1.91c-1.53,1.79-3.06,3.62-4.56,5.42-2.61,3.11-5.21,6.23-7.84,9.34a2.94,2.94,0,0,0,.48,4.57,14.74,14.74,0,0,0,2,1.31,41,41,0,0,0,9.27,3.76,26.84,26.84,0,0,0,4.19.86A3,3,0,0,0,229.47,94C229.34,90.75,229.42,87.53,229.42,84.34Zm11.3-18.26a3.73,3.73,0,0,0-3.76,3,4.11,4.11,0,0,0,.65,3.17c1.5,2.5,3,5,4.51,7.44,1.88,3.14,3.81,6.25,5.67,9.42a2.79,2.79,0,0,0,2.89,1.48,4.28,4.28,0,0,0,2.64-1.21A37,37,0,0,0,261,79.85a16.14,16.14,0,0,0,1.36-3,3.14,3.14,0,0,0-2.09-4.24c-6-2-12.08-4.11-18.1-6.15C241.69,66.27,241.21,66.21,240.72,66.08ZM262.34,50.4a10.25,10.25,0,0,0-.51-1.8c-.86-1.8-1.72-3.63-2.71-5.37a37,37,0,0,0-5.27-7.09,5.83,5.83,0,0,0-1.58-1.21,2.59,2.59,0,0,0-3.63.89l-4.59,6.28c-2.36,3.25-4.75,6.5-7.11,9.75a4,4,0,0,0-.89,3,3.79,3.79,0,0,0,4.86,3.28q6.24-1.53,12.43-3.14c2.26-.56,4.49-1.13,6.72-1.75A2.86,2.86,0,0,0,262.34,50.4Z"/><path class="cls-1" d="M210.68,44.68l0,0Z"/><path class="cls-1" d="M165.33,76.23a31.36,31.36,0,0,1,1.39-10.07,10.7,10.7,0,0,1,1.43-2.69,6.08,6.08,0,0,1,4.21-2.06,8.33,8.33,0,0,1,4.22.43,5,5,0,0,1,3,2.71A23.21,23.21,0,0,1,181.14,71c.08.67.19,1.31.22,2a33,33,0,0,1-1,10.23c-.62,2.2-1.74,4-4,4.8a8.38,8.38,0,0,1-7.11-.54,5.63,5.63,0,0,1-2.31-2.71,15.2,15.2,0,0,1-1.26-4.91C165.46,78.46,165.38,77,165.33,76.23Z"/><path class="cls-1" d="M107,71.45H89.74a4.11,4.11,0,0,1-.29-1.26,10.05,10.05,0,0,1,2.41-5.7,8.45,8.45,0,0,1,5.27-2.63,12.53,12.53,0,0,1,3.46,0,6.44,6.44,0,0,1,5.13,3.41A12,12,0,0,1,107,71.45Z"/></svg>