<svg id="Layer_1" data-name="Layer 1" xmlns="http://www.w3.org/2000/svg" viewBox="0 0 300 120"><defs><style>.cls-1{fill:#fff;}</style></defs><title>youtube</title><path class="cls-1" d="M93.6,37a11.88,11.88,0,0,0-8.4-8.4c-7.5-2-37.4-2-37.4-2s-29.9,0-37.4,2A12.19,12.19,0,0,0,2,37.1c-2,7.5-2,23-2,23s0,15.6,2,23a11.88,11.88,0,0,0,8.4,8.4c7.6,2,37.4,2,37.4,2s29.9,0,37.4-2a11.88,11.88,0,0,0,8.4-8.4c2-7.5,2-23,2-23S95.7,44.5,93.6,37ZM38.3,74.3V45.7L63.1,60Z"/><path class="cls-1" d="M138.8,87.5a10.21,10.21,0,0,1-4-6,39,39,0,0,1-1.2-10.7V64.7a40.05,40.05,0,0,1,1.3-10.9,11,11,0,0,1,4.3-6,13.61,13.61,0,0,1,7.6-1.9,13,13,0,0,1,7.5,1.9,11.16,11.16,0,0,1,4.1,6,35.59,35.59,0,0,1,1.3,10.9v6.1a35.75,35.75,0,0,1-1.3,10.8,11.16,11.16,0,0,1-4.1,6,13.52,13.52,0,0,1-7.7,1.9A15.7,15.7,0,0,1,138.8,87.5Zm10.6-6.6c.6-1.3.8-3.6.8-6.7V61.1c0-3-.2-5.2-.8-6.6a2.89,2.89,0,0,0-5.5,0c-.6,1.4-.8,3.6-.8,6.6V74.2c0,3.1.2,5.4.8,6.7a2.79,2.79,0,0,0,2.8,2A2.65,2.65,0,0,0,149.4,80.9Z"/><path class="cls-1" d="M284.2,70.9V73c0,2.7.1,4.7.2,6.1a5.72,5.72,0,0,0,1,2.9,3.45,3.45,0,0,0,5.3-.8,15.79,15.79,0,0,0,.9-5.5l8.1.5a6.62,6.62,0,0,1,.1,1.5c0,3.9-1,6.8-3.1,8.7s-5.1,2.8-9,2.8c-4.6,0-7.9-1.5-9.8-4.4s-2.8-7.4-2.8-13.5V64c0-6.3.9-10.9,2.9-13.8s5.3-4.3,9.9-4.3a13.42,13.42,0,0,1,7.5,1.8,9.9,9.9,0,0,1,3.6,5.5,40.87,40.87,0,0,1,1,10.4v7.2H284.2v.1Zm1.2-17.7a5.23,5.23,0,0,0-.9,2.9,49.09,49.09,0,0,0-.2,6.1v3h6.9v-3c0-2.7-.1-4.7-.2-6.1a6.36,6.36,0,0,0-1-2.9,2.79,2.79,0,0,0-2.2-.9C286.5,52.3,285.8,52.6,285.4,53.2Z"/><path class="cls-1" d="M115.8,70.1,105.1,31.3h9.4l3.8,17.6c.9,4.3,1.7,8,2.1,11.1h.2c.3-2.2,1-5.8,2.1-11l3.9-17.6H136L125.1,70.2V88.8h-9.3V70.1Z"/><path class="cls-1" d="M190.2,46.8v42h-7.4l-.8-5.1h-.2c-2,3.9-5,5.8-9.1,5.8-2.8,0-4.8-.9-6.1-2.8s-2-4.6-2-8.6V46.8H174V77.6a9.52,9.52,0,0,0,.6,4,2.1,2.1,0,0,0,2,1.2A3.84,3.84,0,0,0,179,82a4.44,4.44,0,0,0,1.7-1.9V46.8Z"/><path class="cls-1" d="M238.7,46.8v42h-7.4l-.8-5.1h-.2c-2,3.9-5,5.8-9.1,5.8-2.8,0-4.8-.9-6.1-2.8s-2-4.6-2-8.6V46.8h9.4V77.6a9.52,9.52,0,0,0,.6,4,2.1,2.1,0,0,0,2,1.2,3.84,3.84,0,0,0,2.4-.8,4.44,4.44,0,0,0,1.7-1.9V46.8Z"/><path class="cls-1" d="M215.9,38.9h-9.4V88.7h-9.2V38.9H188V31.3h28v7.6Z"/><path class="cls-1" d="M269.9,53.5c-.6-2.7-1.5-4.6-2.8-5.7a8.06,8.06,0,0,0-5.3-1.8,8.81,8.81,0,0,0-4.9,1.5,9.44,9.44,0,0,0-3.5,3.9h-.1V29.1h-9.1V88.6H252l.9-3.9h.2a8.28,8.28,0,0,0,3.3,3.4,10.23,10.23,0,0,0,4.9,1.3,7.41,7.41,0,0,0,7-4.4c1.5-2.9,2.3-7.6,2.3-13.8V64.6A48.39,48.39,0,0,0,269.9,53.5Zm-8.6,17.1a62.68,62.68,0,0,1-.4,7.2,7.2,7.2,0,0,1-1.3,3.7,3,3,0,0,1-2.4,1.1,3.7,3.7,0,0,1-2.1-.6,4.4,4.4,0,0,1-1.6-1.7V56.5a6.24,6.24,0,0,1,1.7-2.8,4,4,0,0,1,2.5-1.1,2.66,2.66,0,0,1,2.2,1.1,7.8,7.8,0,0,1,1.1,3.8,72.89,72.89,0,0,1,.3,7.6v5.5Z"/></svg>