<svg id="Camada_1" data-name="Camada 1" xmlns="http://www.w3.org/2000/svg" viewBox="0 0 300 120"><defs><style>.cls-1{fill-rule:evenodd;}</style></defs><title>ziprecruiter-blacktext</title><path d="M232.27,43.63a3.62,3.62,0,0,1,7.23,0A3.48,3.48,0,0,1,235.85,47,3.42,3.42,0,0,1,232.27,43.63ZM238.44,51a.3.3,0,0,1,.28.28V73.36a.3.3,0,0,1-.28.28h-5.11a.3.3,0,0,1-.28-.28V51.27a.3.3,0,0,1,.28-.28ZM51.67,68.17,69.2,45.87c.07-.07,0-.21-.14-.21H52.16a.3.3,0,0,1-.28-.28V40.54a.3.3,0,0,1,.28-.28h25.1a.3.3,0,0,1,.28.28v5a.26.26,0,0,1-.07.21L59.73,68c-.07.07,0,.21.14.21H77.26a.3.3,0,0,1,.28.28v4.84a.3.3,0,0,1-.28.28H51.88a.3.3,0,0,1-.28-.28v-5C51.6,68.31,51.67,68.24,51.67,68.17Zm67.1-27.63a.3.3,0,0,1,.28-.28h10.44c9.61,0,13.32,3.51,13.32,9.54,0,6.24-4.48,8.83-7.5,9.18-.07,0-.14.07-.07.14l8.49,14.17a.24.24,0,0,1-.22.35h-6.59c-.14,0-.28-.07-.28-.21l-7.57-13.82c-.07-.07-.14-.14-.21-.14H124.8a.15.15,0,0,0-.14.14V73.36a.3.3,0,0,1-.29.28H119a.3.3,0,0,1-.28-.28V40.54ZM129.7,54.36c4.35,0,7.22-1,7.22-4.63,0-3.09-2-4.42-7.08-4.42h-5a.15.15,0,0,0-.14.14v8.77a.15.15,0,0,0,.14.14Zm56,3.22a.26.26,0,0,1-.42,0,6.83,6.83,0,0,0-4.42-2c-2.52,0-6.31,1.68-6.31,6.8a6.31,6.31,0,0,0,10.8,4.91.26.26,0,0,1,.42,0l3.37,3.64c.14.14.07.28,0,.42a11.57,11.57,0,0,1-7.93,3c-5.75,0-12.27-3.72-12.27-11.85,0-7.92,6.17-11.85,12.27-11.85a11.38,11.38,0,0,1,8,3.23.26.26,0,0,1,0,.42l-3.51,3.36Zm-36.11,6.73a.15.15,0,0,0-.14.14,6.38,6.38,0,0,0,6,5.19,6.81,6.81,0,0,0,5.89-2.87.24.24,0,0,1,.35-.07l3.58,2.73c.14.07.14.28.07.42a11.76,11.76,0,0,1-9.4,4.28c-6.52,0-12.26-4.42-12.26-11.85a11.54,11.54,0,0,1,11.91-11.85c6.17,0,10.94,5.19,10.94,12.27V64a.3.3,0,0,1-.28.28l-16.69.07ZM160.9,60a.16.16,0,0,0,.14-.15,5.49,5.49,0,0,0-5.54-5.25,5.66,5.66,0,0,0-6,5.18.15.15,0,0,0,.14.14Zm104.75,4.27a.15.15,0,0,0-.14.14,6.38,6.38,0,0,0,6,5.19,6.8,6.8,0,0,0,5.88-2.87.26.26,0,0,1,.36-.07l3.57,2.73c.14.07.14.28.07.42A11.76,11.76,0,0,1,272,74.13c-6.52,0-12.27-4.42-12.27-11.85a11.55,11.55,0,0,1,11.92-11.85c6.17,0,10.93,5.19,10.93,12.27V64a.3.3,0,0,1-.28.28l-16.68.07ZM276.93,60a.16.16,0,0,0,.14-.15,5.49,5.49,0,0,0-5.53-5.25,5.66,5.66,0,0,0-6,5.18.15.15,0,0,0,.14.14l11.21.08Zm-84.55-9h4.42c.14,0,.28.07.28.21l.63,3.37h.07c2.38-4.63,8-3.93,8.48-3.86q.21,0,.21.42v4.35a.3.3,0,0,1-.28.28,11.8,11.8,0,0,0-2-.21c-3.65,0-6.24,3.29-6.52,7.71v10a.3.3,0,0,1-.28.28h-5.12a.3.3,0,0,1-.28-.28v-22a.47.47,0,0,1,.35-.28Zm93.53,0h4.41c.15,0,.29.07.29.21l.63,3.37h.07c2.38-4.63,8-3.93,8.48-3.86q.21,0,.21.42v4.35a.3.3,0,0,1-.28.28,11.8,11.8,0,0,0-2-.21c-3.65,0-6.24,3.29-6.52,7.71v10a.3.3,0,0,1-.28.28h-5.12a.3.3,0,0,1-.28-.28v-22a.47.47,0,0,1,.35-.28Zm-44.24,4.56V51.27A.3.3,0,0,1,242,51h4.28a.15.15,0,0,0,.14-.14V46.71c0-.14.07-.21.21-.28l5.11-1.89c.21-.07.35.07.35.28v6a.15.15,0,0,0,.15.14H258a.3.3,0,0,1,.28.28v4.28a.3.3,0,0,1-.28.28h-5.81A.15.15,0,0,0,252,56v9.74c0,2,.36,3.65,3.16,3.65a8,8,0,0,0,2.8-.49c.14-.07.28.07.28.21v4.14a.38.38,0,0,1-.21.35,12,12,0,0,1-4.27.63c-2.74,0-4.56-.56-5.61-1.62s-1.75-2.52-1.75-6.38V56a.15.15,0,0,0-.14-.14H242a.32.32,0,0,1-.35-.28ZM218.88,69.29a3.94,3.94,0,0,1-4.2-3.93V51.27a.3.3,0,0,0-.28-.28h-5.12a.3.3,0,0,0-.28.28V64.73c0,5.54,4.13,9.47,9.81,9.47H219c5.68,0,9.82-3.93,9.82-9.47V51.27a.3.3,0,0,0-.28-.28h-5.12a.3.3,0,0,0-.28.28V65.36a3.94,3.94,0,0,1-4.21,3.93ZM97.1,70.9a.13.13,0,0,1,.21-.07A10,10,0,0,0,105,74.2c5.47,0,10.94-4.28,10.94-11.85,0-8.06-5.47-11.85-11.15-11.85A9.15,9.15,0,0,0,97,54.36c-.07.07-.14.07-.21-.07l-.63-3c0-.14-.14-.21-.28-.21H91.77a.3.3,0,0,0-.28.28V84.15a.3.3,0,0,0,.28.28h5.12a.3.3,0,0,0,.28-.28V70.9Zm7.15-1.82a6.4,6.4,0,0,1-6.66-6.8,6.4,6.4,0,0,1,6.66-6.8c2.18,0,6.1,1.47,6.1,6.8S106.29,69.08,104.25,69.08ZM80.49,43.63a3.62,3.62,0,0,1,7.22,0A3.48,3.48,0,0,1,84.06,47,3.41,3.41,0,0,1,80.49,43.63ZM86.66,51a.3.3,0,0,1,.28.28V73.36a.3.3,0,0,1-.28.28H81.54a.3.3,0,0,1-.28-.28V51.27a.3.3,0,0,1,.28-.28Z"/><path class="cls-1" d="M37.09,44.82a2.42,2.42,0,0,0-1.4.07l-1.9.63V27.92a1.7,1.7,0,0,0-1.68-1.68H7.22a1.7,1.7,0,0,0-1.68,1.68V45.59L3.65,45a2.46,2.46,0,0,0-1.41-.07C1.54,45,0,45.73,0,48.47V63.19a3,3,0,0,0,2.94,2.73H9.25a7.05,7.05,0,0,0,5.12,2.25,5.25,5.25,0,0,0,3.23,4.77v4.13a.15.15,0,0,1-.14.14C8.62,77.49,3,80.3,1.4,81.21A2.83,2.83,0,0,0,.21,83.73V87a2.16,2.16,0,0,0,2.17,2,2.1,2.1,0,0,0,.42-4.14.15.15,0,0,1-.14-.14V83.52a.77.77,0,0,1,.42-.7c2.39-1.33,8.49-2,13.12-2.24h1.33a.15.15,0,0,1,.14.14c.21,3.71.63,6.87.77,8.83H18.3c-.77,0-1.47.91-1.47,2.1s.7,2.11,1.47,2.11h2.8c.77,0,1.48-.91,1.48-2.11s-.71-2.1-1.48-2.1H21s.49-5.12.77-8.83a.15.15,0,0,1,.14-.14h1.34c4.62.21,10.72.91,13.11,2.24a.77.77,0,0,1,.42.7v1.19a.15.15,0,0,1-.14.14A2.08,2.08,0,0,0,35,87a2.13,2.13,0,0,0,2,2,2.15,2.15,0,0,0,2.17-2V83.73A2.9,2.9,0,0,0,38,81.21a36.5,36.5,0,0,0-16.06-4.07A.15.15,0,0,1,21.8,77V72.87A5.25,5.25,0,0,0,25,68.1a7.66,7.66,0,0,0,5.12-2.25h6.31a3,3,0,0,0,2.94-2.73V48.4C39.33,45.66,37.79,45,37.09,44.82ZM5.54,60.11,2.66,62.28c-.07.07-.14,0-.14-.07V48.4c0-.56.07-1.27.35-1.2l2.53.85c.07,0,.14.14.14.21Zm31.2,2.17-2.88-2.17V48.33c0-.07.07-.14.14-.21l2.53-.84c.35-.08.35.63.35,1.19V62.28A.1.1,0,0,1,36.74,62.28Z"/></svg>