<svg width="32" height="32" viewBox="0 0 32 32" fill="none" version="1.1" xmlns="http://www.w3.org/2000/svg" xmlns:svg="http://www.w3.org/2000/svg">
  <path style="fill:#000000;stroke-width:0.44945" d="m 17.660156,1.6171875 c -1.935108,0 -3.813355,0.3804807 -5.582031,1.1308594 -1.708091,0.7244508 -3.2404257,1.7619824 -4.5566406,3.0820312 -1.0778266,1.0810041 -1.9656777,2.3078544 -2.6484375,3.65625 -0.20441,0.4035613 0.091316,0.8808589 0.5429687,0.8808599 0.2294443,0 0.4367881,-0.130899 0.5410156,-0.335938 C 6.5759691,8.8133301 7.3894621,7.6876331 8.3808594,6.6933594 10.854094,4.2128932 14.224899,2.8216879 17.722656,2.8378906 c 3.482385,0.016207 6.752462,1.3839152 9.216797,3.8554688 2.478898,2.4861338 3.84375,5.7905466 3.84375,9.3066406 0,3.516093 -1.364852,6.820507 -3.84375,9.306641 -2.449773,2.456964 -5.698426,3.824681 -9.158203,3.855468 -3.414518,0.03079 -6.719928,-1.279499 -9.1875,-3.646484 -0.8904058,-0.854135 -1.6423882,-1.811362 -2.25,-2.84375 -0.1098456,-0.187151 -0.3088455,-0.302734 -0.5253906,-0.302734 -0.4702148,0 -0.7617809,0.513934 -0.5234375,0.919921 0.6132748,1.04695 1.3568559,2.010545 2.2246093,2.88086 1.317024,1.320844 2.8513118,2.357562 4.5585938,3.082031 1.768676,0.750357 3.646114,1.13086 5.582031,1.130859 1.935917,0 3.813356,-0.380502 5.582032,-1.130859 1.70809,-0.724469 3.242378,-1.761996 4.558593,-3.082031 1.316979,-1.320889 2.349955,-2.858043 3.072266,-4.570313 C 31.621247,19.825764 32,17.941579 32,16 32,14.05842 31.621247,12.176189 30.873047,10.402344 30.150736,8.6892646 29.116951,7.1501403 27.800781,5.8300781 26.483757,4.5092158 24.94947,3.4724932 23.242188,2.7480469 21.474321,1.9968547 19.595264,1.6171875 17.660156,1.6171875 Z m -3.148437,7.484375 c -0.07753,0 -0.140625,0.062825 -0.140625,0.140625 v 7.1210935 c 0,0.370302 0.0084,0.696473 0.02539,0.96875 0.01775,0.276322 0.05273,0.525822 0.09961,0.742188 0.04683,0.217983 0.10997,0.419739 0.1875,0.599609 0.07677,0.178297 0.174989,0.364774 0.292968,0.552734 0.342571,0.532419 0.812335,0.960666 1.396485,1.273438 0.583608,0.312502 1.211249,0.472337 1.859375,0.472656 0.530141,-2.6e-4 1.040965,-0.106098 1.519531,-0.3125 0.476687,-0.205849 0.897247,-0.48882 1.251953,-0.84375 0.353897,-0.354122 0.637722,-0.774441 0.84375,-1.246094 0.206837,-0.474034 0.3125,-0.982915 0.3125,-1.513671 0,-0.530801 -0.10371,-1.038297 -0.310547,-1.50586 -0.205219,-0.465136 -0.484074,-0.881107 -0.824218,-1.234375 -0.341807,-0.354931 -0.750248,-0.639091 -1.214844,-0.845703 -0.466215,-0.206657 -0.960222,-0.3125 -1.466797,-0.3125 -0.729638,0 -1.422238,0.229449 -2.060547,0.681641 V 9.2421875 c 0,-0.077799 -0.06306,-0.140625 -0.140625,-0.140625 z m 9.007812,1.6406255 c -0.07758,0 -0.140625,0.06483 -0.140625,0.142578 v 2.226562 h -1.11914 c -0.07758,0 -0.140625,0.06283 -0.140625,0.140625 v 1.583985 c 0,0.0778 0.06306,0.140624 0.140625,0.140624 h 1.11914 v 2.664063 c 0,0.546981 0.04916,0.999716 0.144532,1.345703 0.09614,0.350885 0.254493,0.667846 0.472656,0.94336 0.552689,0.676647 1.385456,1.019531 2.474609,1.019531 l -0.002,-0.0039 h 0.238281 c 0.07758,0 0.140625,-0.06283 0.140625,-0.140624 V 19.22071 c 0,-0.0778 -0.06304,-0.140625 -0.140625,-0.140625 h -0.08008 C 26.11543,19.069525 25.761635,18.965678 25.57417,18.769538 25.386751,18.573443 25.29292,18.199483 25.29292,17.65821 v -2.681641 h 1.414062 c 0.07758,0 0.140625,-0.06283 0.140625,-0.140624 V 13.25196 c 0,-0.0778 -0.06304,-0.140625 -0.140625,-0.140625 H 25.29292 v -2.226562 c 0,-0.07775 -0.0631,-0.142578 -0.140625,-0.142578 z m -12.398437,2.3125 c -0.40073,-1e-6 -0.776709,0.06058 -1.115235,0.179687 -0.3393347,0.119913 -0.6348994,0.290303 -0.8789059,0.505859 -0.2464336,0.217175 -0.440773,0.478659 -0.578125,0.779297 -0.137352,0.301446 -0.2089843,0.63631 -0.2089843,0.996094 0,0.591567 0.1819293,1.074814 0.5390624,1.439453 0.3506611,0.357358 0.9235577,0.647055 1.6992188,0.859375 0.256906,0.06724 0.467758,0.13293 0.626953,0.195313 0.154341,0.06077 0.276811,0.119538 0.363281,0.173828 0.07349,0.0462 0.119595,0.0971 0.140625,0.15625 0.0218,0.06157 0.03471,0.132327 0.03711,0.210937 0.0056,0.161263 -0.04297,0.304607 -0.136719,0.404297 -0.168859,0.180682 -0.454878,0.277538 -0.851563,0.273438 -0.9009224,-0.0081 -1.64715,-0.355633 -2.0527339,-0.503907 -0.138161,-0.05025 -0.2773437,0.0011 -0.2773437,0.177735 v 1.503906 c 0,0.06076 0.037544,0.115306 0.095703,0.134766 0.2326804,0.07775 0.829437,0.270261 1.1074219,0.326172 0.3506611,0.07048 0.7176747,0.105468 1.0917967,0.105468 l 0.002,-0.002 c 0.423382,0 0.814975,-0.05944 1.164063,-0.177734 0.35147,-0.119149 0.656915,-0.295747 0.908203,-0.523438 0.250479,-0.226928 0.447776,-0.498387 0.585937,-0.804687 0.138167,-0.3063 0.207032,-0.65739 0.207032,-1.039063 0,-0.312773 -0.05794,-0.607438 -0.171875,-0.878906 -0.114745,-0.272277 -0.277677,-0.509122 -0.480469,-0.701172 -0.134116,-0.133712 -0.305356,-0.252545 -0.509766,-0.355469 -0.201174,-0.100497 -0.469339,-0.198948 -0.794922,-0.292968 -0.228679,-0.06885 -0.408656,-0.12142 -0.537109,-0.15625 -0.126834,-0.03488 -0.222002,-0.06329 -0.289062,-0.08594 -0.06787,-0.02269 -0.124662,-0.04156 -0.169922,-0.05859 -0.04526,-0.01699 -0.09542,-0.0367 -0.150391,-0.05859 -0.206026,-0.08913 -0.302734,-0.212709 -0.302734,-0.392579 0,-0.209084 0.08325,-0.37032 0.257812,-0.490234 0.183376,-0.126432 0.442425,-0.189453 0.765625,-0.189453 0.288457,0 0.592759,0.04645 0.90625,0.134766 0.347425,0.09802 0.651986,0.204338 0.828125,0.267578 0.100991,0.03645 0.214844,-0.0013 0.214844,-0.203125 V 13.53125 c 0,-0.06157 -0.03946,-0.112542 -0.09766,-0.132812 -0.242389,-0.08427 -0.456117,-0.160748 -1.003906,-0.263672 -0.292502,-0.0543 -0.606349,-0.08008 -0.933594,-0.08008 z m -8.1386721,0.36914 c -0.1211992,0 -0.21875,0.09422 -0.21875,0.210938 v 2.46289 H 0.21875 C 0.09755305,16.097656 0,16.193825 0,16.310547 v 1.302734 c 0,0.116721 0.09836072,0.212891 0.21875,0.212891 h 2.5429688 v 2.46289 C 2.7617187,20.405783 2.8620322,20.5 2.9824219,20.5 H 4.328125 c 0.1211942,0 0.21875,-0.09422 0.21875,-0.210938 v -2.46289 h 2.5449219 c 0.1211722,0 0.21875,-0.09617 0.21875,-0.212891 v -1.302734 c 0,-0.116722 -0.098387,-0.212891 -0.21875,-0.212891 H 4.546875 v -2.46289 h 0.00195 c 0,-0.116721 -0.09836,-0.210938 -0.21875,-0.210938 z m 15.2226561,1.597656 c 0.284367,0 0.556498,0.05447 0.808594,0.158204 0.252052,0.104542 0.471014,0.247819 0.65039,0.427734 0.180184,0.180679 0.323507,0.397379 0.427735,0.644531 0.103419,0.246344 0.15625,0.516659 0.15625,0.802735 0,0.286029 -0.05202,0.558495 -0.15625,0.810546 -0.104228,0.252007 -0.250509,0.470521 -0.435547,0.650391 -0.186612,0.181532 -0.408868,0.327099 -0.660156,0.431641 -0.251288,0.104538 -0.524181,0.15625 -0.808594,0.15625 -0.284412,0 -0.551819,-0.05252 -0.791016,-0.15625 -0.239961,-0.103733 -0.450674,-0.254072 -0.630859,-0.445313 -0.18014,-0.191241 -0.323265,-0.415108 -0.421875,-0.667969 -0.09856,-0.252816 -0.148438,-0.531868 -0.148438,-0.830078 10e-7,-0.273895 0.05283,-0.535563 0.15625,-0.77539 0.104228,-0.24149 0.247551,-0.454042 0.427735,-0.634766 0.180185,-0.17987 0.392851,-0.321902 0.632812,-0.419922 0.239962,-0.09807 0.507748,-0.148437 0.792969,-0.148437 z" />
</svg>
