<svg width="32" height="32" fill="none" xmlns="http://www.w3.org/2000/svg">
  <path style="fill:#000;stroke-width:.44945" d="M17.66 1.617A14.283 14.283 0 0 0 7.521 5.83a14.339 14.339 0 0 0-2.648 3.656.608.608 0 1 0 1.084.545 13.187 13.187 0 0 1 2.424-3.338 13.121 13.121 0 0 1 9.342-3.855 13.016 13.016 0 0 1 9.216 3.855A13.093 13.093 0 0 1 30.783 16c0 3.516-1.365 6.82-3.844 9.307a13.017 13.017 0 0 1-9.158 3.855c-3.414.03-6.72-1.28-9.187-3.646a13.249 13.249 0 0 1-2.25-2.844.61.61 0 0 0-.526-.303.61.61 0 0 0-.523.92 14.332 14.332 0 0 0 2.225 2.88 14.297 14.297 0 0 0 10.14 4.214A14.292 14.292 0 0 0 27.8 26.17a14.334 14.334 0 0 0 3.073-4.57A14.33 14.33 0 0 0 32 16a14.32 14.32 0 0 0-1.127-5.598 14.337 14.337 0 0 0-3.072-4.572 14.296 14.296 0 0 0-10.14-4.213Zm-3.148 7.485a.14.14 0 0 0-.14.14v7.121c0 .37.007.697.024.969.018.276.053.526.1.742.047.218.11.42.188.6a3.723 3.723 0 0 0 1.69 1.826 3.912 3.912 0 0 0 1.858.473c.53 0 1.041-.106 1.52-.313a3.997 3.997 0 0 0 1.252-.844c.354-.354.638-.774.844-1.246a3.76 3.76 0 0 0 .312-1.513 3.7 3.7 0 0 0-.31-1.506 4.245 4.245 0 0 0-.825-1.235 3.842 3.842 0 0 0-1.214-.845 3.6 3.6 0 0 0-1.467-.313c-.73 0-1.422.23-2.06.682V9.242a.14.14 0 0 0-.141-.14zm9.008 1.64a.142.142 0 0 0-.141.143v2.226h-1.12a.14.14 0 0 0-.14.141v1.584c0 .078.063.14.14.14h1.12v2.665c0 .547.05 1 .144 1.345.097.351.255.668.473.944.553.676 1.386 1.02 2.475 1.02l-.002-.005h.238a.14.14 0 0 0 .14-.14V19.22a.14.14 0 0 0-.14-.14h-.08c-.512-.011-.865-.115-1.053-.311-.187-.197-.281-.57-.281-1.112v-2.681h1.414a.14.14 0 0 0 .14-.141v-1.584a.14.14 0 0 0-.14-.14h-1.414v-2.227a.142.142 0 0 0-.14-.143zM11.12 13.055c-.4 0-.777.06-1.115.18-.34.12-.635.29-.879.505a2.311 2.311 0 0 0-.787 1.776c0 .591.182 1.074.539 1.44.35.356.923.646 1.7.858.256.068.467.133.626.196.154.06.277.12.363.174.074.046.12.097.141.156a.696.696 0 0 1 .037.21.554.554 0 0 1-.137.405c-.168.18-.455.278-.851.274-.901-.009-1.647-.356-2.053-.504-.138-.05-.277 0-.277.177v1.504c0 .061.037.116.095.135.233.078.83.27 1.108.326.35.07.718.106 1.092.106l.002-.002c.423 0 .815-.06 1.164-.178.351-.12.657-.296.908-.524.25-.226.448-.498.586-.804.138-.307.207-.658.207-1.04 0-.312-.058-.607-.172-.878a2.063 2.063 0 0 0-.99-1.057c-.201-.1-.47-.199-.795-.293a21.887 21.887 0 0 0-.537-.156 5.578 5.578 0 0 1-.29-.086l-.17-.059a8.324 8.324 0 0 1-.15-.058c-.206-.09-.302-.213-.302-.393 0-.209.083-.37.257-.49.184-.126.443-.19.766-.19.289 0 .593.047.906.135.348.098.652.205.828.268.101.036.215-.001.215-.203V13.53a.14.14 0 0 0-.097-.133c-.243-.084-.456-.16-1.004-.263a5.136 5.136 0 0 0-.934-.08zm-8.139.369a.215.215 0 0 0-.218.21v2.464H.219A.216.216 0 0 0 0 16.31v1.302c0 .117.098.213.219.213h2.543v2.463c0 .117.1.211.22.211h1.346a.215.215 0 0 0 .219-.21v-2.464h2.545a.216.216 0 0 0 .219-.213v-1.302a.217.217 0 0 0-.22-.213H4.548v-2.463h.002a.215.215 0 0 0-.219-.211zm15.223 1.597c.284 0 .557.055.809.159.252.104.47.248.65.427.18.181.324.398.428.645.103.246.156.517.156.803 0 .286-.052.558-.156.81-.104.252-.25.47-.436.65a2.096 2.096 0 0 1-1.468.589 1.896 1.896 0 0 1-1.422-.602 2.062 2.062 0 0 1-.422-.668 2.275 2.275 0 0 1-.149-.83c0-.274.053-.536.157-.775.104-.242.247-.455.427-.635s.393-.322.633-.42a2.09 2.09 0 0 1 .793-.149z"/>
</svg>