<?xml version="1.0" encoding="UTF-8" standalone="no"?>
<svg width="32" height="32" viewBox="0 0 32 32" fill="none" version="1.1" id="svg44" xmlns="http://www.w3.org/2000/svg" xmlns:svg="http://www.w3.org/2000/svg">
  <g id="g44" transform="matrix(0.27008094,0,0,0.27008094,0,8.1682469)">
    <path d="M 3.83033,57.1568 V 10.9147 c 0,-0.5242 -0.27535,-0.8097 -0.81935,-0.8097 H 0.823823 C 0.273115,10.105 0,9.84624 0,9.30418 V 0.82089 C 0,0.276603 0.273115,0 0.823823,0 H 11.7708 c 0.9156,0 1.6611,0.276601 2.1894,0.769582 0.544,0.521978 0.8238,1.262568 0.8238,2.223988 V 57.159 c 0,0.5376 -0.2798,0.8053 -0.8238,0.8053 H 4.634 c -0.55742,0 -0.80143,-0.2654 -0.80143,-0.8053" fill="url(#paint0_linear_41314_16868)" id="path1" style="fill:#000000" />
    <path d="m 64.7552,48.6713 v 8.4855 c 0,0.5376 -0.2574,0.8053 -0.8037,0.8053 H 26.5549 c -0.5306,0 -0.8194,-0.2655 -0.8194,-0.8053 V 42.4521 c 0,-2.1593 0.2194,-3.9862 0.6582,-5.4629 0.4298,-1.4767 1.0029,-2.7415 1.6947,-3.7989 0.7007,-1.0506 1.5178,-1.9518 2.4446,-2.7169 0.9357,-0.7473 1.8827,-1.4522 2.8296,-2.0946 0.9179,-0.5956 2.0864,-1.1221 3.5057,-1.624 1.397,-0.484 2.8924,-0.9458 4.5042,-1.3986 1.5805,-0.4573 3.1789,-0.9614 4.7639,-1.5102 1.6006,-0.5309 3.0266,-1.1711 4.2982,-1.9028 1.2894,-0.7205 2.3282,-1.5659 3.1363,-2.5429 0.7992,-0.9726 1.2066,-2.1549 1.2066,-3.5424 0,-0.4305 -0.0604,-0.9837 -0.1947,-1.6284 -0.1366,-0.6513 -0.4254,-1.2804 -0.8059,-1.8938 -0.4052,-0.6291 -0.947,-1.1421 -1.6186,-1.5749 -0.6872,-0.426 -1.5267,-0.6558 -2.561,-0.6558 H 28.263 c -0.5552,0 -0.8194,-0.25876 -0.8194,-0.80082 V 0.82089 C 27.4436,0.276603 27.7078,0 28.263,0 h 21.3343 c 2.861,0 5.3168,0.521978 7.3808,1.54586 2.0596,1.02835 3.7162,2.3266 5.037,3.88808 1.2917,1.55925 2.2409,3.26796 2.8722,5.12386 0.6089,1.8604 0.9335,3.6249 0.9335,5.3001 0,2.9088 -0.2149,5.2689 -0.6559,7.0624 -0.4321,1.8113 -1.2089,3.3326 -2.317,4.5684 -1.097,1.247 -2.5946,2.3088 -4.4975,3.1966 -1.8961,0.8878 -4.3004,1.8492 -7.2196,2.8597 -1.679,0.6023 -3.2796,1.1354 -4.8176,1.6262 -1.5491,0.4907 -2.9147,0.977 -4.0766,1.4923 -1.1596,0.5242 -2.0685,1.0886 -2.7893,1.74 -0.6895,0.6335 -1.0477,1.4454 -1.0477,2.4225 v 6.2325 c 0,0.5331 0.2686,0.8031 0.8059,0.8031 h 24.746 c 0.5463,0 0.8037,0.2699 0.8037,0.8119" fill="url(#paint1_linear_41314_16868)" id="path2" style="fill:#000000" />
    <path d="m 76.5193,57.9956 c -0.5529,0 -0.8193,-0.2654 -0.8193,-0.8052 v -8.4856 c 0,-0.542 0.2664,-0.8142 0.8193,-0.8142 h 23.1544 c 0.8663,0 1.6943,-0.223 2.4673,-0.6424 0.772,-0.4327 1.495,-1.006 2.113,-1.6975 0.598,-0.7094 1.104,-1.4567 1.455,-2.2642 0.349,-0.803 0.515,-1.6195 0.515,-2.4314 0,-0.7473 -0.099,-1.6507 -0.275,-2.6702 -0.193,-1.0172 -0.612,-1.9853 -1.259,-2.8999 -0.64,-0.9212 -1.607,-1.6863 -2.874,-2.3087 -1.267,-0.6157 -2.9774,-0.9168 -5.1354,-0.9168 H 82.745 c -0.5194,0 -0.8059,-0.2766 -0.8059,-0.8232 v -8.481 c 0,-0.5443 0.2865,-0.8053 0.8059,-0.8053 h 17.336 c 0.699,0 1.388,-0.1963 2.055,-0.5733 0.678,-0.3725 1.299,-0.8409 1.825,-1.4165 0.539,-0.5732 0.969,-1.209 1.3,-1.9407 0.327,-0.7205 0.468,-1.4387 0.468,-2.1303 0,-0.7651 -0.141,-1.4923 -0.468,-2.1838 -0.331,-0.696 -0.761,-1.3161 -1.3,-1.8292 -0.526,-0.5152 -1.147,-0.9302 -1.825,-1.2558 -0.667,-0.3257 -1.359,-0.4841 -2.055,-0.4841 H 76.5126 c -0.553,0 -0.8194,-0.25875 -0.8194,-0.80081 V 0.852201 c 0,-0.544287 0.2664,-0.82089 0.8194,-0.82089 h 22.588 c 6.2614,0 11.0184,1.418719 14.2714,4.256149 3.248,2.82182 4.853,6.69424 4.853,11.60174 0,2.2597 -0.179,4.2093 -0.571,5.8511 -0.387,1.6485 -1.307,3.0628 -2.831,4.2517 -0.309,0.2655 -0.809,0.5287 -1.451,0.7964 -0.656,0.2721 -0.978,0.5019 -0.978,0.6513 0,0.1606 0.322,0.4796 0.978,0.9235 0.642,0.4573 1.142,0.9057 1.451,1.3474 1.524,1.7354 2.496,3.6181 2.959,5.7016 0.466,2.0567 0.701,4.468 0.701,7.2296 0,1.934 -0.332,3.8391 -0.992,5.6927 -0.631,1.8582 -1.576,3.5223 -2.8,4.941 -1.207,1.4076 -2.664,2.5631 -4.373,3.4442 -1.696,0.8521 -3.633,1.2737 -5.784,1.2737 H 76.5126 Z" fill="url(#paint2_linear_41314_16868)" id="path3" style="fill:#000000" />
  </g>
  <defs id="defs44" />
</svg>
