<svg id="Layer_1" data-name="Layer 1" xmlns="http://www.w3.org/2000/svg" viewBox="0 0 200 80"><polygon points="147.56 1.4 161.96 1.4 168.85 24.62 176.23 1.4 190.14 1.4 179.13 38.89 191.19 78.17 175.87 78.2 168.7 55.11 161.84 78.2 145.66 78.14 159.17 38.84 147.56 1.4"/><path d="M17.35,78V12.27a32.1,32.1,0,0,1-4.45,2.45,22.91,22.91,0,0,1-4.09,1.51V9.82a26.06,26.06,0,0,0,5.78-3.13,16.83,16.83,0,0,0,4.94-5.23h4.58V78Z"/><path d="M34,60.71V59.55h6.34A33.59,33.59,0,0,0,41.21,67a9.71,9.71,0,0,0,2.25,4.46,7.77,7.77,0,0,0,3.42,2.12,16.8,16.8,0,0,0,4.75.56,12.15,12.15,0,0,0,4.4-.71,7.81,7.81,0,0,0,3.21-2.48,11.84,11.84,0,0,0,2.08-5A41.16,41.16,0,0,0,62,57.85a36.19,36.19,0,0,0-.56-6.71,18.17,18.17,0,0,0-1.83-5.29,9.51,9.51,0,0,0-3.55-3.73,12.61,12.61,0,0,0-5.49-1.63V34.73q6.42-.27,8.93-3.64T62,19.56Q62,12.11,59.44,9T51.68,5.9q-5.28,0-8.1,3.48t-3.2,11.29H34V19.56a26,26,0,0,1,.94-7.15,18.94,18.94,0,0,1,2.94-6A13.54,13.54,0,0,1,43.44,2,20.36,20.36,0,0,1,51.81.45,19.1,19.1,0,0,1,58.33,1.5a14,14,0,0,1,4.82,2.84A15.6,15.6,0,0,1,66.36,8.6a19.68,19.68,0,0,1,1.85,5.2,29,29,0,0,1,.56,5.8q0,7.41-3,12.1a13.18,13.18,0,0,1-7.54,6q10.48,4.2,10.49,20,0,21.82-17.76,21.83a19.68,19.68,0,0,1-6.59-1,14,14,0,0,1-4.84-2.82,14.91,14.91,0,0,1-3.19-4.21,19.48,19.48,0,0,1-1.81-5.11A28.36,28.36,0,0,1,34,60.71Z"/><path d="M76.18,61V59.78h6.41a33.78,33.78,0,0,0,.84,7.49,9.69,9.69,0,0,0,2.28,4.51,7.84,7.84,0,0,0,3.45,2.15,17.59,17.59,0,0,0,4.81.56,12.11,12.11,0,0,0,4.44-.72,7.88,7.88,0,0,0,3.26-2.51,12,12,0,0,0,2.09-5.05,40.47,40.47,0,0,0,.68-8.15,37.21,37.21,0,0,0-.56-6.8A19,19,0,0,0,102,45.91a9.71,9.71,0,0,0-3.59-3.77,12.88,12.88,0,0,0-5.55-1.64V34.67q6.49-.27,9-3.68t2.53-11.67q0-7.53-2.57-10.67c-1.72-2.1-4.33-3.14-7.86-3.14S87.73,6.68,85.82,9s-3,6.15-3.23,11.42H76.13V19.32a26.43,26.43,0,0,1,1-7.22,19.13,19.13,0,0,1,3-6.12A13.77,13.77,0,0,1,85.68,1.6,20.78,20.78,0,0,1,94.15,0a19.22,19.22,0,0,1,6.59,1.06,14.07,14.07,0,0,1,4.88,2.87,16,16,0,0,1,3.25,4.31,20.13,20.13,0,0,1,1.87,5.26,28.88,28.88,0,0,1,.56,5.87q0,7.48-3,12.23a13.39,13.39,0,0,1-7.63,6.1q10.62,4.24,10.61,20.22,0,22.08-18,22.08a19.55,19.55,0,0,1-6.66-1.06,14.27,14.27,0,0,1-4.9-2.85,15,15,0,0,1-3.23-4.26,19.57,19.57,0,0,1-1.83-5.17A28.9,28.9,0,0,1,76.18,61Z"/><path d="M122.57,78.13l14.65-72.5H115.65V1.25H144.5v3.4q-3.34,17.19-7.5,37.14t-7.37,36.34Z"/></svg>