<?xml version="1.0" encoding="UTF-8" standalone="no"?>
<!-- Generator: Adobe Illustrator 23.0.6, SVG Export Plug-In . SVG Version: 6.00 Build 0)  -->

<svg version="1.1" id="logo_svg" x="0px" y="0px" viewBox="0 0 32 32" xml:space="preserve" width="32" height="32" xmlns="http://www.w3.org/2000/svg" xmlns:svg="http://www.w3.org/2000/svg" xmlns:rdf="http://www.w3.org/1999/02/22-rdf-syntax-ns#" xmlns:cc="http://creativecommons.org/ns#" xmlns:dc="http://purl.org/dc/elements/1.1/"><defs id="defs1" />
<title id="title1">500px</title>
<g id="g10" transform="matrix(0.15156564,0,0,0.15156564,-0.01066356,6.9060616)"><path d="M 28.6,45 C 21.5,43.8 14.3,45.8 8.7,50.3 V 30.4 h 33.8 c 1.1,0 1.9,-0.4 1.9,-3.8 0,-3.4 -1.5,-3.4 -2.3,-3.4 H 5 c -1.9,0 -3.4,1.5 -3.4,3.4 0,0 0,0 0,0 v 0 33 c 0,1.9 1.1,2.3 3,2.6 1.2,0.5 2.5,0.2 3.4,-0.8 v 0 c 4.3,-6.1 11.4,-9.5 18.8,-9 8.7,1.1 15.6,7.8 16.9,16.5 1.2,10.3 -6.2,19.7 -16.5,21 H 24.9 C 17,89.9 10,85 7.3,77.6 6.9,76.5 6.2,75.7 3.2,76.8 c -3,1.1 -3.4,1.9 -3,3 C 5.3,93.4 20.3,100.4 34,95.6 47.6,90.5 54.6,75.5 49.8,61.9 46.3,52.8 38.2,46.3 28.6,45 Z" id="path8" /><path d="m 173.7,22.5 c -20.7,0 -37.5,16.8 -37.5,37.5 0,20.7 16.8,37.5 37.5,37.5 20.7,0 37.5,-16.8 37.5,-37.5 v 0 c 0,-20.7 -16.7,-37.5 -37.5,-37.5 z m 0,67.1 c -16.3,0.1 -29.5,-13 -29.6,-29.3 -0.1,-16.3 13,-29.5 29.3,-29.6 16.3,-0.1 29.5,13 29.6,29.2 v 0 c 0.3,16.1 -12.6,29.4 -28.6,29.6 0,0 0,0 0,0 h -0.7 z" id="path7" /><path d="m 93.1,22.5 c -20.7,0 -37.5,16.8 -37.5,37.5 0,20.7 16.8,37.5 37.5,37.5 20.7,0 37.5,-16.8 37.5,-37.5 0,0 0,0 0,0 v 0 C 130.5,39.4 113.8,22.7 93.1,22.5 Z m 0,67.1 C 76.8,89.7 63.6,76.6 63.5,60.3 63.4,44 76.5,30.8 92.8,30.7 c 16.3,-0.1 29.5,13 29.6,29.2 v 0 c 0,16.3 -13,29.5 -29.3,29.7 z" id="path1" /></g>
<metadata id="metadata10"><rdf:RDF><cc:Work rdf:about=""><dc:title>500px</dc:title></cc:Work></rdf:RDF></metadata></svg>
