<svg xml:space="preserve" width="32" height="32" xmlns="http://www.w3.org/2000/svg">
  <path d="M4.324 13.727a3.803 3.803 0 0 0-3.016.803v-3.016h5.123c.167 0 .288-.061.288-.576 0-.516-.227-.516-.349-.516H.747a.511.511 0 0 0-.515.516v5.001c0 .288.167.349.455.394.181.076.378.03.515-.12a3.217 3.217 0 0 1 2.85-1.365 2.958 2.958 0 0 1 2.56 2.5 2.883 2.883 0 0 1-2.5 3.184h-.349a2.832 2.832 0 0 1-2.667-1.864c-.06-.167-.167-.288-.622-.122-.454.167-.515.288-.454.455a4.04 4.04 0 0 0 5.123 2.395 4.03 4.03 0 0 0 2.394-5.108 4.032 4.032 0 0 0-3.213-2.561ZM26.316 10.316A5.686 5.686 0 0 0 20.633 16a5.686 5.686 0 0 0 5.683 5.684A5.686 5.686 0 0 0 32 16a5.676 5.676 0 0 0-5.684-5.684zm0 10.17a4.457 4.457 0 0 1-4.486-4.44 4.457 4.457 0 0 1 4.44-4.487 4.454 4.454 0 0 1 4.487 4.426c.046 2.44-1.91 4.456-4.335 4.486h-.106zM14.1 10.316A5.686 5.686 0 0 0 8.416 16a5.686 5.686 0 0 0 5.684 5.684A5.686 5.686 0 0 0 19.784 16c-.015-3.122-2.546-5.653-5.684-5.684Zm0 10.17a4.457 4.457 0 0 1-4.486-4.44 4.457 4.457 0 0 1 4.44-4.487 4.454 4.454 0 0 1 4.487 4.426 4.49 4.49 0 0 1-4.44 4.501z"/>
</svg>