<svg viewBox="0 0 32 32" xml:space="preserve" version="1.1" id="svg3" width="32" height="32" xmlns="http://www.w3.org/2000/svg" xmlns:svg="http://www.w3.org/2000/svg"><defs id="defs3" /><path d="m 13.8783,8.017115 c 0.8998,1.21079 1.4504,2.69635 1.5138,4.30672 v 0.27779 c 0,1.5691 -0.465,3.03252 -1.2722,4.24835 l -6.4304,9.81116 -0.1731,0.2647 c -0.071,0.10669 -0.1892,0.1711 -0.3171,0.1711 H 1.9606 c -0.2526,0 -0.4036,-0.2798 -0.2657,-0.49116 l 4.2655,-6.50789 C 2.5464,19.310815 0,16.254135 0,12.600615 l 0.01,-0.27778 c 0.056,-1.60635 0.6049,-3.08788 1.5007,-4.29767 1.402,-1.8942 3.6515,-3.1221 6.1888,-3.1221 2.5323,0.002 4.7788,1.22589 6.1818,3.11405 z m -3.9313,5.99761 0.2144,-0.32812 c 0.2305,-0.41768 0.3513,-0.8867 0.3493,-1.36377 0,-1.553 -1.2622,-2.8101 -2.8152,-2.8101 -1.553,0 -2.8121,1.2581 -2.8151,2.81513 0,1.55501 1.2601,2.81613 2.8151,2.81613 0.922,10e-4 1.7372,-0.44386 2.2515,-1.12927 z m 20.5382,-5.99761 c 0.8998,1.21079 1.4504,2.69635 1.5148,4.30672 v 0.27779 c 0,1.5691 -0.465,3.03252 -1.2722,4.24835 l -6.4304,9.81116 -0.1731,0.2647 c -0.071,0.10669 -0.1892,0.1711 -0.317,0.1711 h -5.2388 c -0.2526,0 -0.4036,-0.2798 -0.2657,-0.49116 l 4.2655,-6.50789 c -3.414,-0.78707 -5.9604,-3.84375 -5.9604,-7.49727 l 0.01,-0.27778 c 0.057,-1.60635 0.6049,-3.08788 1.5006,-4.29767 1.402,-1.8942 3.6515,-3.1221 6.1889,-3.1221 2.5323,0.002 4.7787,1.22589 6.1807,3.11405 z m -3.9313,5.99761 0.2144,-0.32812 c 0.2305,-0.41768 0.3513,-0.8867 0.3493,-1.36377 0,-1.553 -1.2622,-2.8101 -2.8152,-2.8101 -1.5529,0 -2.8131,1.2581 -2.8161,2.81513 0,1.55501 1.2611,2.81613 2.8161,2.81613 0.923,10e-4 1.7382,-0.44386 2.2515,-1.12927 z" id="path3" style="stroke-width:0.0100648" /></svg>
