<?xml version="1.0" encoding="UTF-8"?><svg id="a" xmlns="http://www.w3.org/2000/svg" viewBox="0 0 201.24 80"><path d="m139.01,19.52c0,4.37.06,7.02.14,6.94.54-.55,8.09-11.18,8-11.26-.06-.06-1.82-.67-3.93-1.36-2.1-.7-3.92-1.3-4.01-1.35-.15-.05-.2,1.42-.2,7.02Z" style="stroke-width:0px;"/><path d="m129.44,16.16c-1.25.86-2.37,1.64-2.49,1.74-.17.17.28.9,2.6,4.36,1.93,2.85,2.83,4.05,2.86,3.85.06-.35-.55-11.38-.63-11.46-.03-.03-1.09.64-2.34,1.5Z" style="stroke-width:0px;"/><path d="m15.24,15.74c-2.63.47-5.69,1.77-7.95,3.41C1.78,23.12-1.14,30.93.42,37.48c1.38,5.71,4.6,9.91,9.53,12.41,2.02,1.01,4.93,1.9,6.24,1.9.24,0,.47.06.54.15.05.08-1.09,2.29-2.52,4.93s-2.63,4.85-2.65,4.91c-.03.12,8.69,4.99,8.93,5,.05,0,2.97-5.09,6.5-11.32,3.52-6.23,6.42-11.32,6.49-11.32.05.02.35.4.69.86,1.24,1.74,3.75,3.79,6.01,4.94,1.39.7,3.87,1.5,5.43,1.74.73.12,1.36.24,1.39.28s-1.13,2.25-2.6,4.93-2.66,4.91-2.66,4.97c.02.06,2.02,1.19,4.47,2.52,3.59,1.94,4.5,2.37,4.63,2.22.28-.29,13.43-23.62,13.83-24.52.63-1.39,1.19-3.04,1.56-4.51.44-1.85.5-5.67.09-7.45-1.96-8.55-8.46-14.09-17.09-14.53-3.92-.2-7.72.9-11.26,3.24-1.36.92-3.21,2.65-4.04,3.79-.28.4-.57.72-.61.72-.06,0-.29-.28-.5-.6-.67-1.01-2.26-2.62-3.47-3.52-2.08-1.54-4.68-2.71-7.51-3.32-1.53-.34-5.09-.41-6.59-.15Zm5,10.26c3.35.87,5.64,3.9,5.64,7.42-.02,1.51-.2,2.26-.93,3.79-1.47,3.09-5.05,4.94-8.24,4.27-3.03-.64-5.17-2.77-5.97-5.92-.61-2.42.34-5.61,2.23-7.5,1.9-1.91,4.74-2.72,7.27-2.06Zm30.62.15c2.05.69,3.47,1.91,4.42,3.78,2.32,4.57-.46,10.34-5.55,11.53-1.22.29-2.49.2-3.81-.24-1.28-.44-2.02-.92-2.98-1.94-1.47-1.53-2.13-3.21-2.13-5.4,0-5.46,5.11-9.38,10.05-7.72Z" style="stroke-width:0px;"/><path d="m151.95,22.09c-.35.28-.76.47-1.02.47-.37,0-.44.06-.44.35s-.73.95-3.52,3.15c-1.93,1.53-3.53,2.83-3.58,2.89-.03.06,1.54-.09,3.52-.35l3.58-.47v33.9h6.88V22.58l-2.32-.05-2.34-.05-.08-.43-.08-.44-.6.47Z" style="stroke-width:0px;"/><path d="m83.57,22.18c-4.91,1.09-7.62,4.79-7.85,10.74l-.08,2.03h-3.63v5.2h3.67v21.87h6.73v-21.87h5.51v21.87h6.88v-7.85c0-6.21.05-8,.21-8.63.54-2,1.53-3.27,3.26-4.13,1.09-.54,1.22-.57,2.69-.57,1.3-.02,1.56.02,1.53.21-.02.12-.28.86-.57,1.64-.9,2.31-1.07,3.3-1.07,6.32,0,2.4.05,2.83.41,4.16,1.87,6.96,7.89,10.31,16.7,9.3,2.55-.31,5.98-1.18,6.13-1.59.06-.15-.8-4.51-.9-4.63-.03-.02-.57.14-1.19.34-2.49.78-6.59,1.07-8.76.61-2.14-.46-4.04-1.7-4.96-3.26-.43-.75-.95-2.45-.95-3.12v-.43h18.16l.11-.7c.05-.4.09-1.19.09-1.76v-1.06h17.44v.52c0,.69-.49,2.22-.96,3.03s-1.7,1.97-2.49,2.39c-2.55,1.3-6.64,1.44-10.71.34-.9-.24-1.67-.43-1.68-.41-.03.05-.98,4.45-.98,4.57,0,.4,4.11,1.41,6.79,1.67,8.06.78,13.81-2.25,15.83-8.35.64-1.94.84-3.55.73-6.03-.29-7.34-4.56-12.63-10.98-13.64-1.41-.21-4.33-.09-5.57.23-3,.81-5.17,2.6-6.64,5.45-.7,1.36-1.02,2.31-1.38,4.07l-.26,1.32-.34-.87c-.37-.95-1.39-2.62-2.17-3.49-1.93-2.2-5.41-3.46-9.02-3.27-3.93.21-7.25,1.88-9.39,4.73l-.78,1.02-.05-2.8c-.05-3.21.08-3-1.56-3-2.8,0-5.6,1.8-6.96,4.51-.58,1.13-.61,1.18-.7.75-.06-.24-.11-.86-.12-1.38,0-.52-.06-1.45-.11-2.1l-.11-1.18h-11.12v-1.12c0-3.29,1.15-5.63,3.03-6.19.81-.24,2.69-.23,3.67.03.55.14.8.15.8.03,0-.09.11-1.27.23-2.62.17-1.85.18-2.46.05-2.54-.11-.06-.76-.23-1.5-.35-1.56-.29-3.85-.29-5.12-.02Zm54.22,13.4c1.93.31,3.5,1.5,4.44,3.37.41.81.92,2.43.92,2.95,0,.21-.58.24-5.87.24-3.85,0-5.92-.06-5.98-.15-.18-.31.24-2.39.7-3.37.8-1.71,2.11-2.75,3.84-3.04.44-.08.84-.14.89-.15.05,0,.52.06,1.07.15Zm-21.78,3.95c.95.41,1.9,1.36,2.43,2.42.4.81.84,2.51.84,3.29v.43h-11.96l.11-.66c.15-.86.72-2.37,1.19-3.11.41-.66,1.68-1.9,2.26-2.2,1.3-.7,3.72-.8,5.12-.17Z" style="stroke-width:0px;"/><path d="m121.73,26.28v1.77l.66.08c1.41.18,6.1.57,6.16.5.05-.03-1.22-.83-2.8-1.74-1.59-.93-3.14-1.85-3.44-2.03l-.58-.34v1.76Z" style="stroke-width:0px;"/><path d="m167.85,34.44c-3.07.43-4.62.83-6.52,1.7-.66.29-1.21.55-1.21.57.05.35,1.33,4.33,1.41,4.34.06.02.55-.18,1.07-.43.54-.24,1.59-.63,2.34-.86,1.19-.35,1.67-.41,3.52-.43,1.79-.02,2.28.03,2.97.29,1.7.63,2.72,2.03,2.8,3.84l.05.9-2.14.09c-7.48.35-12.13,2.89-13.54,7.4-.49,1.59-.47,3.9.03,5.37.7,2.02,1.96,3.5,3.75,4.47,1.32.69,2.52.95,4.44.95,2.94,0,5.28-.87,7.11-2.63.5-.49.93-.89.96-.89.02,0,.12.54.21,1.19.11.64.23,1.3.26,1.44.08.24.35.28,3.15.28h3.06l-.11-.5c-.05-.26-.15-4.41-.23-9.21-.14-9.32-.17-9.77-.96-11.88-1.1-2.89-3.29-4.8-6.49-5.64-1.16-.31-4.76-.52-5.93-.35Zm6.62,16.92c-.05,2.36-.06,2.54-.47,3.35-.86,1.77-2.66,2.92-4.73,3.01-1.96.11-3.11-.49-3.89-1.96-.43-.81-.4-2.92.05-3.76.72-1.33,2.17-2.26,4.33-2.71,1.64-.35,1.76-.37,3.33-.4l1.44-.02-.06,2.48Z" style="stroke-width:0px;"/><path d="m190.35,34.57c-4.68.89-7.59,4.04-7.59,8.2,0,3.52,2.14,5.93,6.93,7.79,3.5,1.36,4.5,2.06,4.85,3.37.37,1.38-.29,2.69-1.65,3.33-.8.38-1.02.41-2.71.4-2.06-.02-3.64-.38-5.69-1.36l-1.12-.52-.23.8c-1.15,4.04-1.16,4.15-.9,4.34.41.31,2.69,1.09,3.98,1.35.67.15,2.17.29,3.35.34,6.94.26,11.29-2.68,11.66-7.83.21-3.18-1.19-5.8-4.04-7.46-.52-.31-2.03-.98-3.35-1.5-3.63-1.44-4.5-2.16-4.5-3.73,0-1.27.89-2.29,2.36-2.69,1.45-.4,4.56.09,6.39,1.02l.72.37.23-.73c.28-.87,1.16-3.95,1.16-4.05,0-.15-1.65-.76-3.04-1.12-1.91-.49-5.03-.63-6.81-.29Z" style="stroke-width:0px;"/><path d="m129.76,64.48c-4.31.26-7.45.7-8.15,1.16-.32.21-.34.28-.15.46.96.96,11.84,1.65,20.59,1.32,7.45-.29,10.91-.76,11.15-1.5.14-.44-2.43-.96-6.23-1.3-2.45-.21-14.41-.31-17.21-.14Z" style="stroke-width:0px;"/></svg>