<?xml version="1.0" encoding="UTF-8" standalone="no"?>
<svg id="a" viewBox="0 0 31.999999 32" version="1.1" sodipodi:docname="99freelas.svg" width="32" height="32" inkscape:version="1.4-beta2 (9aaf4f34, 2024-07-30)" xmlns:inkscape="http://www.inkscape.org/namespaces/inkscape" xmlns:sodipodi="http://sodipodi.sourceforge.net/DTD/sodipodi-0.dtd" xmlns="http://www.w3.org/2000/svg" xmlns:svg="http://www.w3.org/2000/svg">
  <defs id="defs9" />
  <sodipodi:namedview id="namedview9" pagecolor="#ffffff" bordercolor="#000000" borderopacity="0.25" inkscape:showpageshadow="2" inkscape:pageopacity="0.0" inkscape:pagecheckerboard="0" inkscape:deskcolor="#d1d1d1" inkscape:zoom="1.0124077" inkscape:cx="104.7009" inkscape:cy="-10.371316" inkscape:window-width="1440" inkscape:window-height="790" inkscape:window-x="0" inkscape:window-y="0" inkscape:window-maximized="1" inkscape:current-layer="a" />
  <path d="m 7.3221887,3.7786591 c -1.2637737,0.225846 -2.7341719,0.850525 -3.8201523,1.638581 -2.64767797,1.907674 -4.0508031,5.6605529 -3.3011883,8.8079739 0.66312078,2.743782 2.2104026,4.761976 4.5793776,5.963282 0.970655,0.485327 2.368975,0.912992 2.9984592,0.912992 0.1153253,0 0.2258455,0.02883 0.259482,0.07208 0.024026,0.03844 -0.5237693,1.100396 -1.2109162,2.368975 -0.6871469,1.268578 -1.2637737,2.330533 -1.2733841,2.359364 -0.014416,0.05766 4.1757388,2.397806 4.2910642,2.402612 0.024026,0 1.4271512,-2.445859 3.1233952,-5.439513 1.691438,-2.993654 3.084953,-5.439512 3.118589,-5.439512 0.02403,0.0096 0.168183,0.192209 0.331561,0.413249 0.595847,0.836109 1.801958,1.821179 2.887939,2.37378 0.667926,0.336366 1.859621,0.720783 2.609236,0.836109 0.350781,0.05766 0.65351,0.115325 0.667926,0.134546 0.01442,0.01922 -0.54299,1.081175 -1.249358,2.368975 -0.706368,1.2878 -1.278189,2.359364 -1.278189,2.388196 0.0096,0.02883 0.970655,0.571821 2.147934,1.210916 1.725075,0.932213 2.162351,1.138838 2.224819,1.06676 0.134546,-0.139352 6.453414,-11.349937 6.645623,-11.782407 0.302729,-0.667926 0.571822,-1.460788 0.749615,-2.167156 0.21143,-0.888966 0.240261,-2.724561 0.04325,-3.579891 -0.941824,-4.1084659 -4.065219,-6.7705589 -8.212126,-6.9819889 -1.883648,-0.0961 -3.709632,0.43247 -5.410681,1.556892 -0.653511,0.442081 -1.542477,1.273384 -1.941311,1.82118 -0.134546,0.192209 -0.273897,0.345976 -0.293118,0.345976 -0.02883,0 -0.139352,-0.134547 -0.240261,-0.288314 -0.32195,-0.485327 -1.085981,-1.258968 -1.667413,-1.691438 C 13.102872,4.7108721 11.853514,4.1486611 10.493636,3.8555431 9.7584368,3.6921651 8.0477774,3.6585291 7.3269939,3.7834641 Z m 2.4026115,4.930159 c 1.6097498,0.418054 2.7101458,1.8740369 2.7101458,3.5654759 -0.0096,0.725588 -0.0961,1.08598 -0.446886,1.821179 -0.706368,1.484814 -2.4266374,2.37378 -3.9595035,2.05183 C 6.5725739,15.839769 5.5442562,14.816256 5.1598383,13.302611 4.8667197,12.139747 5.3232159,10.606881 6.2314031,9.6986941 7.1443954,8.7808961 8.5090788,8.3916731 9.7248002,8.7088181 Z m 14.7135928,0.07208 c 0.985071,0.331561 1.667412,0.917798 2.123909,1.8163749 1.114811,2.195987 -0.221041,4.9686 -2.666899,5.540422 -0.586237,0.139351 -1.196501,0.0961 -1.83079,-0.115326 -0.615069,-0.211429 -0.970655,-0.44208 -1.431957,-0.932213 -0.706367,-0.735199 -1.023512,-1.542476 -1.023512,-2.59482 0,-2.6236519 2.455469,-4.5072989 4.829249,-3.7096319 z" style="stroke-width:0px" id="path3" />
</svg>
