<?xml version="1.0" encoding="UTF-8"?><svg id="a" xmlns="http://www.w3.org/2000/svg" viewBox="0 0 250 80"><defs><style>.b{stroke-width:0px;}</style></defs><path class="b" d="m48.75,54.42c-5.5,0-8.58-6-8.58-13.92,0-7.25,2.42-13.08,8.08-13.08,4.17,0,6.5,2.75,7.58,7.75h1.92v-7.25c-2.83-1.67-6.17-2.5-9.5-2.42-8.67,0-15.75,6.33-15.75,16.17,0,8.92,6,14.83,15.5,14.83,4.17,0,7.75-1,10.17-2.75l.67-8.25h-1.92c-1.5,6.33-4.42,8.92-8.17,8.92Z"/><path class="b" d="m90.75,52.92l-10.83-27.25h-7.75l1.42,3.42-9.17,23.75c-.33,1.17-1.42,1.42-2.42,1.58v1.58h9v-1.58h0c-2.42-.17-3.75-.5-2.75-3.08.67-1.5,1.25-3,1.75-4.5h11l1.58,4c.17.58.33,1.17.33,1.75,0,1.42-1.17,1.92-3.42,1.92v1.5h14.08v-1.58c-1.67-.17-2.5-.5-2.83-1.5Zm-20-9c1.75-4.33,3.58-9.33,4.33-11.17l4.5,11.17h-8.83Z"/><path class="b" d="m110,25.84h-13.58v1.58c2.92.33,3.25.67,3.25,2.92v21c0,2.25-.33,2.58-3.25,2.92v1.58h14.5c9.5,0,16-5.67,16-15.5.17-7.92-5.33-14.5-16.92-14.5Zm.67,28.42h-.5c-2.08,0-3.08-.5-3.08-3.08v-23.42h1.75c7.08,0,10.67,5.67,10.67,13.58-.17,7.92-3.58,12.92-8.83,12.92h0Z"/><path class="b" d="m146.33,54.25h-2.08c-2.58,0-3.58-.67-3.58-2.92v-9.83h4.83c1.92,0,2.58,1,2.92,3.92h1.75v-10h-1.75c-.33,2.75-1,4-2.92,4h-4.83v-11.67h5.33c3.58,0,4.83,1.42,7.08,6.17h1.33l-.17-8.08h-24.08v1.58c2.92.33,3.25.67,3.25,2.92v21c0,2.25-.33,2.58-3.25,2.92v1.58h24.42l1.42-9h-1.75c-3.08,5.5-4.25,7.42-7.92,7.42Z"/><path class="b" d="m194.92,51.84l-2.58-21.17c0-2.25.83-2.92,3.58-3.08v-1.75h-10.5c0,.5-.17.83-.17,1.17l-.5,1.42-6.17,17.75-6.58-17.58c-.42-.83-.58-1.67-.67-2.58h-10.83v1.58c2.75.17,3.58.83,3.58,3.08l-2.75,21.17c-.17,1.92-1,2.42-3.58,2.58v1.58h10.17v-1.58c-.67,0-1.17-.17-1.75-.17-1-.33-2.25-1.42-1.92-4,.33-3.25,1.58-12.42,2.08-16l8.08,21.83h3.42l7.42-21.5,2.08,16v1c0,2.08-1,2.58-4.17,2.75v1.67h15.17v-1.58c-2.25-.17-3.08-.5-3.42-2.58Z"/><path class="b" d="m202,27.59c2.92.33,3.25.67,3.25,2.92v21c0,2.25-.33,2.58-3.25,2.92v1.58h13.92v-1.58c-2.92-.33-3.25-.67-3.25-2.92v-21c0-2.25.33-2.58,3.25-2.92v-1.75h-13.92v1.75h0Z"/><path class="b" d="m28.92,52.92l-10.83-27.25h-7.75l1.33,3.42L2.42,52.92c-.33,1.17-1.42,1.42-2.42,1.58v1.5h8.92v-1.58h0c-2.42-.17-3.75-.5-2.75-3.08.67-1.5,1.25-3,1.75-4.5h11l1.58,4c.17.58.33,1.17.33,1.75,0,1.42-1.25,1.92-3.42,1.92v1.5h14.08v-1.58c-1.17-.17-2.25-.5-2.58-1.5Zm-20-9c1.75-4.33,3.58-9.33,4.33-11.17l4.5,11.17h-8.83Z"/><path class="b" d="m248.25,53.92c-.5-.17-.67-.5-1-1l-10.83-27h-7.75l1.33,3.42-9.08,23.75c-.33,1.17-1.33,1.42-2.42,1.58v1.58h8.92v-1.58h0c-2.42-.17-3.75-.5-2.75-3.08.67-1.42,1.25-2.92,1.75-4.5h11l1.58,4c.17.58.33,1.17.33,1.75,0,1.42-1.25,1.92-3.42,1.92v1.58h14.08v-1.58c-.83-.5-1.33-.5-1.75-.83Zm-20.83-10c1.75-4.33,3.58-9.33,4.33-11.17l4.5,11.17h-8.83Z"/></svg>