<?xml version="1.0" encoding="UTF-8" standalone="no"?>
<!-- Generator: Adobe Illustrator 19.1.0, SVG Export Plug-In . SVG Version: 6.00 Build 0)  -->

<svg version="1.1" id="Layer_1" x="0px" y="0px" width="32" height="32" viewBox="0 0 32 31.999999" enable-background="new 0 0 23.5 22.6" xml:space="preserve" sodipodi:docname="academia.svg" inkscape:version="1.4-beta2 (9aaf4f34, 2024-07-30)" xmlns:inkscape="http://www.inkscape.org/namespaces/inkscape" xmlns:sodipodi="http://sodipodi.sourceforge.net/DTD/sodipodi-0.dtd" xmlns="http://www.w3.org/2000/svg" xmlns:svg="http://www.w3.org/2000/svg"><defs id="defs1" /><sodipodi:namedview id="namedview1" pagecolor="#ffffff" bordercolor="#000000" borderopacity="0.25" inkscape:showpageshadow="2" inkscape:pageopacity="0.0" inkscape:pagecheckerboard="0" inkscape:deskcolor="#d1d1d1" inkscape:zoom="1.1504425" inkscape:cx="12.169231" inkscape:cy="10.865385" inkscape:window-width="1440" inkscape:window-height="790" inkscape:window-x="0" inkscape:window-y="0" inkscape:window-maximized="1" inkscape:current-layer="Layer_1" />
<path d="m 9.1234043,31.387234 v -1.634042 0 0 0 c 0,0 0,0 0,0 C 6.6723404,29.480851 5.1744681,29.208511 6.2638298,26.485106 6.4,26.212766 7.0808511,24.442553 8.0340426,21.991489 H 19.2 l 1.634043,4.085107 c 0.27234,0.680851 0.40851,1.225532 0.40851,1.634042 0,1.361702 -1.225532,1.906383 -3.540425,1.906383 v 1.634043 H 32 V 29.617021 C 30.774468,29.344681 29.821277,29.07234 29.412766,27.982979 L 18.382979,0.612766 H 10.485106 L 11.846809,4.0170213 2.587234,28.119149 C 2.1787234,29.344681 1.2255319,29.480851 0,29.753192 v 1.634042 z M 13.480851,7.6936171 17.974468,18.995745 H 9.1234043 C 10.757447,14.638298 12.8,9.6 13.480851,7.6936171 Z" id="path1" style="stroke-width:1.3617" />
</svg>
