<?xml version="1.0" encoding="utf-8"?>
<!-- Generator: Adobe Illustrator 23.0.6, SVG Export Plug-In . SVG Version: 6.00 Build 0)  -->
<svg version="1.1" id="Camada_1" xmlns="http://www.w3.org/2000/svg" xmlns:xlink="http://www.w3.org/1999/xlink" x="0px" y="0px"
	 viewBox="0 0 300 120" style="enable-background:new 0 0 300 120;" xml:space="preserve">
<title>academia</title>
<path d="M58.5,76.1c-6.6,0-10.3-7.2-10.3-16.7c0-8.7,2.9-15.7,9.7-15.7c5,0,7.8,3.3,9.1,9.3h2.3v-8.7c-3.4-2-7.4-3-11.4-2.9
	C47.5,41.4,39,49,39,60.8c0,10.7,7.2,17.8,18.6,17.8c5,0,9.3-1.2,12.2-3.3l0.8-9.9h-2.3C66.5,73,63,76.1,58.5,76.1z"/>
<path d="M108.9,74.3l-13-32.7h-9.3l1.7,4.1l-11,28.5c-0.4,1.4-1.7,1.7-2.9,1.9V78h10.8v-1.9l0,0c-2.9-0.2-4.5-0.6-3.3-3.7
	c0.8-1.8,1.5-3.6,2.1-5.4h13.2l1.9,4.8c0.2,0.7,0.4,1.4,0.4,2.1c0,1.7-1.4,2.3-4.1,2.3V78h16.9v-1.9
	C110.3,75.9,109.3,75.5,108.9,74.3z M84.9,63.5c2.1-5.2,4.3-11.2,5.2-13.4l5.4,13.4H84.9z"/>
<path d="M132,41.8h-16.3v1.9c3.5,0.4,3.9,0.8,3.9,3.5v25.2c0,2.7-0.4,3.1-3.9,3.5v1.9h17.4c11.4,0,19.2-6.8,19.2-18.6
	C152.5,49.7,145.9,41.8,132,41.8z M132.8,75.9h-0.6c-2.5,0-3.7-0.6-3.7-3.7V44.1h2.1c8.5,0,12.8,6.8,12.8,16.3
	C143.2,69.9,139.1,75.9,132.8,75.9L132.8,75.9z"/>
<path d="M175.6,75.9h-2.5c-3.1,0-4.3-0.8-4.3-3.5V60.6h5.8c2.3,0,3.1,1.2,3.5,4.7h2.1v-12h-2.1c-0.4,3.3-1.2,4.8-3.5,4.8h-5.8v-14
	h6.4c4.3,0,5.8,1.7,8.5,7.4h1.6l-0.2-9.7h-28.9v1.9c3.5,0.4,3.9,0.8,3.9,3.5v25.2c0,2.7-0.4,3.1-3.9,3.5v1.9h29.3l1.7-10.8h-2.1
	C181.4,73.6,180,75.9,175.6,75.9z"/>
<path d="M233.9,73l-3.1-25.4c0-2.7,1-3.5,4.3-3.7v-2.1h-12.6c0,0.6-0.2,1-0.2,1.4l-0.6,1.7l-7.4,21.3l-7.9-21.1
	c-0.5-1-0.7-2-0.8-3.1h-13v1.9c3.3,0.2,4.3,1,4.3,3.7L193.6,73c-0.2,2.3-1.2,2.9-4.3,3.1V78h12.2v-1.9c-0.8,0-1.4-0.2-2.1-0.2
	c-1.2-0.4-2.7-1.7-2.3-4.8c0.4-3.9,1.9-14.9,2.5-19.2l9.7,26.2h4.1l8.9-25.8l2.5,19.2v1.2c0,2.5-1.2,3.1-5,3.3V78H238v-1.9
	C235.3,75.9,234.3,75.5,233.9,73z"/>
<path d="M242.4,43.9c3.5,0.4,3.9,0.8,3.9,3.5v25.2c0,2.7-0.4,3.1-3.9,3.5V78h16.7v-1.9c-3.5-0.4-3.9-0.8-3.9-3.5V47.4
	c0-2.7,0.4-3.1,3.9-3.5v-2.1h-16.7V43.9z"/>
<path d="M34.7,74.3l-13-32.7h-9.3l1.6,4.1L2.9,74.3c-0.4,1.4-1.7,1.7-2.9,1.9V78h10.7v-1.9l0,0c-2.9-0.2-4.5-0.6-3.3-3.7
	c0.8-1.8,1.5-3.6,2.1-5.4h13.2l1.9,4.8c0.2,0.7,0.4,1.4,0.4,2.1c0,1.7-1.5,2.3-4.1,2.3V78h16.9v-1.9C36.4,75.9,35.1,75.5,34.7,74.3z
	 M10.7,63.5c2.1-5.2,4.3-11.2,5.2-13.4l5.4,13.4H10.7z"/>
<path d="M297.9,75.5c-0.6-0.2-0.8-0.6-1.2-1.2l-13-32.4h-9.3L276,46l-10.9,28.5c-0.4,1.4-1.6,1.7-2.9,1.9v1.9h10.7v-1.9l0,0
	c-2.9-0.2-4.5-0.6-3.3-3.7c0.8-1.7,1.5-3.5,2.1-5.4h13.2l1.9,4.8c0.2,0.7,0.4,1.4,0.4,2.1c0,1.7-1.5,2.3-4.1,2.3v1.9H300v-1.9
	C299,75.9,298.4,75.9,297.9,75.5z M272.9,63.5c2.1-5.2,4.3-11.2,5.2-13.4l5.4,13.4H272.9z"/>
</svg>
