<?xml version="1.0" encoding="UTF-8" standalone="no"?>
<svg data-name="Layer 2" viewBox="0 0 32 32" version="1.1" id="svg2" width="32" height="32" xmlns="http://www.w3.org/2000/svg" xmlns:svg="http://www.w3.org/2000/svg">
  <defs id="defs2">
    <clipPath clipPathUnits="userSpaceOnUse" id="clipPath11">
      <path d="m 35.169922,19.5 c -0.21,0 -0.310547,0.100547 -0.310547,0.310547 v 17.71875 c 0,0.24 0.121094,0.351562 0.371094,0.351562 h 4.458984 c 0.27,0 0.339844,-0.101796 0.339844,-0.341797 V 19.800781 c 0,-0.24 -0.06859,-0.300781 -0.308594,-0.300781 z" id="path11" style="display:none" />
      <path id="lpe_path-effect11" class="powerclip" d="M -5,-5 H 61 V 59 H -5 Z m 40.169922,24.5 c -0.21,0 -0.310547,0.100547 -0.310547,0.310547 v 17.71875 c 0,0.24 0.121094,0.351562 0.371094,0.351562 h 4.458984 c 0.27,0 0.339844,-0.101796 0.339844,-0.341797 V 19.800781 c 0,-0.24 -0.06859,-0.300781 -0.308594,-0.300781 z" />
    </clipPath>
  </defs>
  <path d="M 9.9101563,0 C 4.4200163,0 0,4.4200163 0,9.9101563 V 44.089844 C 0,49.579984 4.4200163,54 9.9101563,54 H 46.089844 C 51.579984,54 56,49.579984 56,44.089844 V 9.9101563 C 56,4.4200163 51.579984,0 46.089844,0 Z M 39.441406,8.5605469 c 0.574219,-0.048281 1.138282,0.4614062 0.988281,1.1289062 l -0.509765,2.2597659 a 0.899,0.899 0 0 0 0.220703,0.830078 l 1.570312,1.701172 c 0.620001,0.67 -6.25e-4,1.729297 -0.890625,1.529297 L 38.560547,15.5 c -0.29,-0.07 -0.610078,0.0107 -0.830078,0.220703 l -1.701172,1.568359 c -0.67,0.620001 -1.739063,0.01109 -1.539063,-0.878906 L 35,14.150391 c 0.07,-0.3 -0.0107,-0.610078 -0.220703,-0.830078 l -1.56836,-1.701172 c -0.619999,-0.67 -0.0013,-1.7292972 0.888672,-1.529297 l 2.259766,0.509765 c 0.29,0.07 0.610078,-0.0087 0.830078,-0.21875 l 1.701172,-1.5703121 c 0.1675,-0.155 0.359375,-0.2339063 0.550781,-0.25 z M 16.710937,13.650391 h 14.648438 c 0.25,0 0.311563,0.07055 0.351562,0.310547 l 0.408204,3.988281 c 0.04,0.22 -0.06859,0.320312 -0.308594,0.320312 H 21.570312 v 5.621094 h 9.230469 c 0.21,0 0.308594,0.06906 0.308594,0.289062 v 4.041016 c 0,0.22 -0.109063,0.289063 -0.289063,0.289063 h -9.25 v 9.060546 c 0,0.22 -0.100312,0.320313 -0.320312,0.320313 h -4.570313 c -0.18,0 -0.25,-0.130313 -0.25,-0.320313 V 13.939453 c 0,-0.21 0.07125,-0.289062 0.28125,-0.289062 z" id="path2" clip-path="url(#clipPath11)" transform="matrix(0.57142857,0,0,0.57142857,4e-8,0.57142861)" />
</svg>
