<?xml version="1.0" encoding="UTF-8" standalone="no"?>
<svg id="a" viewBox="0 0 31.999999 32" version="1.1" sodipodi:docname="adobe-firefly.svg" width="32" height="32" inkscape:version="1.4-beta2 (9aaf4f34, 2024-07-30)" xmlns:inkscape="http://www.inkscape.org/namespaces/inkscape" xmlns:sodipodi="http://sodipodi.sourceforge.net/DTD/sodipodi-0.dtd" xmlns="http://www.w3.org/2000/svg" xmlns:svg="http://www.w3.org/2000/svg">
  <sodipodi:namedview id="namedview34" pagecolor="#ffffff" bordercolor="#000000" borderopacity="0.25" inkscape:showpageshadow="2" inkscape:pageopacity="0.0" inkscape:pagecheckerboard="0" inkscape:deskcolor="#d1d1d1" inkscape:zoom="5.8245841" inkscape:cx="9.0993622" inkscape:cy="8.1550888" inkscape:window-width="1440" inkscape:window-height="790" inkscape:window-x="0" inkscape:window-y="0" inkscape:window-maximized="1" inkscape:current-layer="a" />
  <defs id="defs1">
    <style id="style1">.b{stroke-width:0px;}</style>
  </defs>
  <g id="g34" transform="matrix(0.39000609,0,0,0.39000609,1.5775e-7,0.3997564)">
    <path class="b" d="m 29.44,54.89 c 0.18,0.15 0.31,0.35 0.39,0.58 0.07,-0.22 0.2,-0.4 0.37,-0.55 -0.16,-0.19 -0.26,-0.42 -0.27,-0.69 -0.07,0.28 -0.24,0.51 -0.48,0.66 z" id="path13" />
    <path class="b" d="m 27.85,53.46 c -0.2,0.17 -0.45,0.28 -0.73,0.28 -0.42,0 -0.76,-0.24 -0.96,-0.57 0,0.05 0.03,0.09 0.03,0.14 0,0.22 -0.07,0.41 -0.16,0.59 0.13,-0.04 0.26,-0.08 0.41,-0.08 0.68,0 1.23,0.54 1.26,1.22 0.1,-0.12 0.22,-0.22 0.36,-0.29 -0.2,-0.2 -0.33,-0.48 -0.33,-0.79 0,-0.18 0.05,-0.34 0.12,-0.49 z" id="path14" />
    <path class="b" d="m 32.22,55.98 c -0.02,0.17 -0.07,0.33 -0.15,0.47 0.24,0.19 0.4,0.44 0.47,0.74 0.04,-0.15 0.1,-0.27 0.18,-0.39 -0.27,-0.18 -0.46,-0.47 -0.5,-0.82 z" id="path15" />
    <path class="b" d="m 29.7,56.49 c 0.13,0.13 0.24,0.27 0.32,0.44 0.03,-0.07 0.08,-0.12 0.12,-0.18 -0.15,-0.14 -0.25,-0.32 -0.31,-0.52 -0.03,0.09 -0.07,0.18 -0.12,0.26 z" id="path16" />
    <path class="b" d="m 44.41,28.01 c -0.06,0.04 -0.12,0.09 -0.17,0.15 0.06,-0.04 0.12,-0.09 0.17,-0.15 z" id="path17" />
    <path class="b" d="m 47.12,28.32 c -0.02,-0.08 -0.05,-0.16 -0.05,-0.25 0,-0.09 0.03,-0.17 0.05,-0.25 -0.17,0.38 -0.55,0.65 -1,0.65 -0.05,0 -0.09,-0.02 -0.13,-0.03 0.05,0.12 0.08,0.25 0.09,0.38 0.2,-0.31 0.53,-0.53 0.92,-0.53 0.04,0 0.08,0.02 0.12,0.02 z" id="path18" />
    <path class="b" d="m 46.89,30.49 c 0.03,0.1 0.06,0.19 0.06,0.29 0,0 0,0.01 0,0.02 0.11,-0.15 0.24,-0.28 0.41,-0.36 -0.11,0.04 -0.23,0.07 -0.35,0.07 -0.04,0 -0.07,-0.02 -0.11,-0.02 z" id="path19" />
    <path class="b" d="m 45.62,29.73 c 0.08,-0.02 0.15,-0.05 0.23,-0.05 0.04,0 0.07,0.02 0.1,0.02 -0.02,-0.08 -0.05,-0.17 -0.05,-0.26 -0.08,0.11 -0.17,0.21 -0.28,0.28 z" id="path20" />
    <path class="b" d="m 47.75,32.55 c 0,0.05 0.03,0.1 0.03,0.15 0,0.07 -0.03,0.13 -0.04,0.2 0.1,-0.16 0.23,-0.29 0.39,-0.39 -0.09,0.02 -0.18,0.06 -0.28,0.06 -0.04,0 -0.07,-0.02 -0.1,-0.02 z" id="path21" />
    <path class="b" d="m 29.37,52.96 c 0,0 0.03,0.02 0.05,0.02 -0.02,0 -0.03,-0.02 -0.05,-0.02 z" id="path22" />
    <path class="b" d="m 27.53,50.56 v 0 c 0,0 0,0.02 0,0.04 0,-0.01 0,-0.02 0,-0.04 z" id="path23" />
    <path class="b" d="m 27.11,43.31 c 0.29,0.02 0.56,0.13 0.75,0.33 0.09,-0.1 0.2,-0.18 0.33,-0.24 -0.08,0.02 -0.15,0.05 -0.24,0.05 v 0 c -0.26,0 -0.49,-0.1 -0.68,-0.25 -0.05,0.05 -0.11,0.07 -0.17,0.11 z" id="path24" />
    <path class="b" d="m 33.44,38.66 c 0,0 0,0.04 0,0.05 0,-0.02 0,-0.04 0,-0.05 z" id="path25" />
    <path class="b" d="m 26.61,40.96 c 0,0 -0.09,0.07 -0.14,0.1 0.14,0 0.28,0.03 0.41,0.08 -0.1,-0.04 -0.18,-0.11 -0.26,-0.18 z" id="path26" />
    <path class="b" d="m 26.58,51.65 c -0.06,0.01 -0.12,0.04 -0.18,0.04 -0.28,0 -0.53,-0.11 -0.73,-0.29 -0.09,0.3 -0.29,0.53 -0.55,0.69 0.39,0.06 0.71,0.29 0.9,0.62 0,-0.03 -0.02,-0.05 -0.02,-0.08 0,-0.42 0.24,-0.78 0.59,-0.97 z" id="path27" />
    <path class="b" d="m 27.56,41.22 c -0.06,0.01 -0.13,0.02 -0.19,0.02 -0.17,0 -0.33,-0.04 -0.47,-0.1 0.14,0.06 0.26,0.15 0.37,0.25 0.09,-0.07 0.19,-0.13 0.3,-0.17 z" id="path28" />
    <path class="b" d="m 27.05,56.17 c 0.23,0.16 0.42,0.36 0.53,0.62 0.03,-0.06 0.07,-0.11 0.11,-0.16 -0.17,-0.21 -0.28,-0.46 -0.29,-0.74 -0.1,0.12 -0.21,0.21 -0.35,0.28 z" id="path29" />
    <path class="b" d="m 48.61,34.61 c 0,0 0,0.01 0,0.02 0,0.3 -0.12,0.56 -0.3,0.77 0.05,0 0.1,0.02 0.16,0.03 0.03,-0.38 0.26,-0.7 0.58,-0.87 -0.11,0.04 -0.22,0.07 -0.34,0.07 -0.03,0 -0.06,-0.02 -0.09,-0.02 z" id="path30" />
    <path class="b" d="M 67.52,0 H 14.53 C 6.51,0 0,6.51 0,14.53 V 65.47 C 0,73.49 6.51,80 14.53,80 h 52.99 c 8.02,0 14.53,-6.51 14.53,-14.53 V 14.53 C 82.05,6.51 75.54,0 67.52,0 Z m -4.87,52.51 c 0,0.41 -0.33,0.74 -0.74,0.74 -0.41,0 -0.74,-0.33 -0.74,-0.74 0,-0.41 0.33,-0.74 0.74,-0.74 0.41,0 0.74,0.33 0.74,0.74 z m -7.22,-0.57 c 0,0.45 -0.36,0.81 -0.81,0.81 -0.45,0 -0.81,-0.36 -0.81,-0.81 0,-0.45 0.36,-0.81 0.81,-0.81 0.45,0 0.81,0.36 0.81,0.81 z m -0.76,-2.12 c 0,-0.46 0.38,-0.84 0.84,-0.84 0.46,0 0.84,0.37 0.84,0.84 0,0.47 -0.38,0.84 -0.84,0.84 -0.46,0 -0.84,-0.37 -0.84,-0.84 z m -0.69,2.87 c 0,0.45 -0.37,0.82 -0.82,0.82 -0.45,0 -0.82,-0.37 -0.82,-0.82 0,-0.45 0.37,-0.82 0.82,-0.82 0.45,0 0.82,0.37 0.82,0.82 z m -0.09,1.01 c 0.43,0 0.77,0.35 0.77,0.77 0,0.42 -0.35,0.77 -0.77,0.77 -0.42,0 -0.77,-0.35 -0.77,-0.77 0,-0.42 0.35,-0.77 0.77,-0.77 z m 0.02,2.83 c 0.4,0 0.72,0.32 0.72,0.72 0,0.4 -0.32,0.72 -0.72,0.72 -0.4,0 -0.72,-0.32 -0.72,-0.72 0,-0.4 0.32,-0.72 0.72,-0.72 z m 0.44,-0.41 c 0,-0.4 0.32,-0.72 0.72,-0.72 0.4,0 0.72,0.32 0.72,0.72 0,0.4 -0.32,0.72 -0.72,0.72 -0.4,0 -0.72,-0.32 -0.72,-0.72 z m 1.06,-1.5 c -0.42,0 -0.76,-0.34 -0.76,-0.76 0,-0.42 0.34,-0.76 0.76,-0.76 0.42,0 0.76,0.34 0.76,0.76 0,0.42 -0.34,0.76 -0.76,0.76 z m 0.15,-2.77 c 0,-0.44 0.36,-0.79 0.79,-0.79 0.43,0 0.79,0.36 0.79,0.79 0,0.43 -0.36,0.79 -0.79,0.79 -0.43,0 -0.79,-0.36 -0.79,-0.79 z m 2.72,-1.99 c 0,-0.44 0.36,-0.8 0.8,-0.8 0.44,0 0.8,0.36 0.8,0.8 0,0.44 -0.36,0.8 -0.8,0.8 -0.44,0 -0.8,-0.36 -0.8,-0.8 z m 0.66,2.07 c 0,0.43 -0.35,0.78 -0.78,0.78 -0.43,0 -0.78,-0.35 -0.78,-0.78 0,-0.43 0.35,-0.78 0.78,-0.78 0.43,0 0.78,0.35 0.78,0.78 z M 58.11,48.4 c -0.46,0 -0.83,-0.37 -0.83,-0.83 0,-0.46 0.37,-0.83 0.83,-0.83 0.46,0 0.83,0.37 0.83,0.83 0,0.46 -0.37,0.83 -0.83,0.83 z m -0.04,1.36 c 0,0.45 -0.37,0.82 -0.82,0.82 -0.45,0 -0.82,-0.37 -0.82,-0.82 0,-0.45 0.37,-0.82 0.82,-0.82 0.45,0 0.82,0.37 0.82,0.82 z m -0.87,3.39 c 0.41,0 0.75,0.34 0.75,0.75 0,0.41 -0.34,0.75 -0.75,0.75 -0.41,0 -0.75,-0.34 -0.75,-0.75 0,-0.41 0.34,-0.75 0.75,-0.75 z m 1.06,2.12 c 0.39,0 0.71,0.32 0.71,0.71 0,0.39 -0.32,0.71 -0.71,0.71 -0.39,0 -0.71,-0.32 -0.71,-0.71 0,-0.39 0.32,-0.71 0.71,-0.71 z m 0,-1.14 c 0,-0.41 0.33,-0.74 0.74,-0.74 0.41,0 0.74,0.33 0.74,0.74 0,0.41 -0.33,0.74 -0.74,0.74 -0.41,0 -0.74,-0.33 -0.74,-0.74 z m 1.02,-1.97 c 0,-0.42 0.34,-0.76 0.76,-0.76 0.42,0 0.76,0.34 0.76,0.76 0,0.42 -0.34,0.76 -0.76,0.76 -0.42,0 -0.76,-0.34 -0.76,-0.76 z m 1.36,1.68 c 0.4,0 0.73,0.32 0.73,0.73 0,0.41 -0.32,0.72 -0.73,0.72 -0.41,0 -0.73,-0.32 -0.73,-0.72 0,-0.4 0.32,-0.73 0.73,-0.73 z m 1.07,-3.77 c 0,0.43 -0.35,0.77 -0.77,0.77 -0.42,0 -0.77,-0.35 -0.77,-0.77 0,-0.42 0.35,-0.77 0.77,-0.77 0.42,0 0.77,0.35 0.77,0.77 z m -0.99,-2.42 c 0,0.44 -0.36,0.8 -0.8,0.8 -0.44,0 -0.8,-0.36 -0.8,-0.8 0,-0.44 0.36,-0.8 0.8,-0.8 0.44,0 0.8,0.36 0.8,0.8 z m -0.99,-2.42 c 0,0.46 -0.37,0.84 -0.84,0.84 -0.47,0 -0.84,-0.37 -0.84,-0.84 0,-0.47 0.37,-0.84 0.84,-0.84 0.47,0 0.84,0.37 0.84,0.84 z M 46.44,18.4 c 0.59,0 1.07,0.48 1.07,1.07 0,0.59 -0.48,1.07 -1.07,1.07 -0.16,0 -0.32,-0.04 -0.46,-0.11 0.12,0.17 0.2,0.37 0.2,0.59 0,0.6 -0.49,1.09 -1.09,1.09 -0.15,0 -0.3,-0.03 -0.43,-0.09 0.17,0.19 0.28,0.43 0.28,0.7 0,0.59 -0.48,1.08 -1.08,1.08 -0.6,0 -1.08,-0.48 -1.08,-1.08 0,-0.6 0.48,-1.08 1.08,-1.08 0.15,0 0.29,0.03 0.42,0.09 C 44.11,21.54 44,21.29 44,21.02 c 0,-0.6 0.49,-1.09 1.09,-1.09 v 0 c 0.17,0 0.32,0.05 0.47,0.12 -0.11,-0.17 -0.2,-0.36 -0.2,-0.58 0,-0.59 0.48,-1.07 1.07,-1.07 z M 43.3,51.7 c 0,-0.33 0.27,-0.6 0.6,-0.6 0.33,0 0.6,0.27 0.6,0.6 0,0.33 -0.27,0.6 -0.6,0.6 -0.33,0 -0.6,-0.27 -0.6,-0.6 z m 0.08,0.64 c 0,0.37 -0.3,0.67 -0.67,0.67 -0.37,0 -0.67,-0.3 -0.67,-0.67 0,-0.37 0.3,-0.67 0.67,-0.67 0.37,0 0.67,0.3 0.67,0.67 z m -0.19,-1.58 c -0.32,0 -0.58,-0.26 -0.58,-0.58 0,-0.32 0.26,-0.58 0.58,-0.58 0.32,0 0.58,0.26 0.58,0.58 0,0.32 -0.26,0.58 -0.58,0.58 z m -1.11,-1.27 c -0.31,0 -0.56,-0.25 -0.56,-0.56 0,-0.31 0.25,-0.56 0.56,-0.56 0.31,0 0.56,0.25 0.56,0.56 0,0.31 -0.25,0.56 -0.56,0.56 z m -0.22,0.56 c 0.39,0 0.71,0.32 0.71,0.71 0,0.39 -0.32,0.71 -0.71,0.71 -0.39,0 -0.71,-0.32 -0.71,-0.71 0,-0.39 0.32,-0.71 0.71,-0.71 z M 31.65,49.77 c 0.47,0 0.86,0.39 0.86,0.86 0,0.47 -0.39,0.86 -0.86,0.86 -0.47,0 -0.86,-0.39 -0.86,-0.86 0,-0.47 0.39,-0.86 0.86,-0.86 z m -1.26,0.32 c -0.47,0 -0.86,-0.38 -0.86,-0.86 0,-0.48 0.38,-0.86 0.86,-0.86 0.48,0 0.86,0.38 0.86,0.86 0,0.48 -0.38,0.86 -0.86,0.86 z m 1.9,-1.27 c -0.41,0 -0.75,-0.33 -0.75,-0.75 0,-0.42 0.33,-0.75 0.75,-0.75 0.42,0 0.75,0.33 0.75,0.75 0,0.42 -0.33,0.75 -0.75,0.75 z m 1.32,-0.37 c 0.41,0 0.75,0.33 0.75,0.75 0,0.42 -0.33,0.75 -0.75,0.75 -0.42,0 -0.75,-0.33 -0.75,-0.75 0,-0.42 0.33,-0.75 0.75,-0.75 z m 0.63,-0.92 c -0.3,0 -0.54,-0.24 -0.54,-0.54 0,-0.3 0.24,-0.54 0.54,-0.54 0.3,0 0.54,0.24 0.54,0.54 0,0.3 -0.24,0.54 -0.54,0.54 z m 0.62,-2.13 c 0,0.3 -0.24,0.54 -0.54,0.54 -0.3,0 -0.54,-0.24 -0.54,-0.54 0,-0.3 0.24,-0.54 0.54,-0.54 0.3,0 0.54,0.24 0.54,0.54 z m -0.41,-1.53 c 0,-0.3 0.25,-0.55 0.55,-0.55 0.3,0 0.55,0.24 0.55,0.55 0,0.31 -0.25,0.55 -0.55,0.55 -0.3,0 -0.55,-0.24 -0.55,-0.55 z m 0.95,4.63 c 0.41,0 0.75,0.33 0.75,0.75 0,0.42 -0.33,0.75 -0.75,0.75 -0.42,0 -0.75,-0.33 -0.75,-0.75 0,-0.42 0.33,-0.75 0.75,-0.75 z m 0.29,-0.36 c -0.3,0 -0.54,-0.24 -0.54,-0.54 0,-0.3 0.24,-0.54 0.54,-0.54 0.3,0 0.54,0.24 0.54,0.54 0,0.3 -0.24,0.54 -0.54,0.54 z M 35.67,42.9 c -0.31,0 -0.56,-0.25 -0.56,-0.56 0,-0.31 0.25,-0.57 0.56,-0.57 0.31,0 0.56,0.25 0.56,0.57 0,0.32 -0.25,0.56 -0.56,0.56 z m 4.94,-19.61 c 0.57,0 1.02,0.46 1.02,1.02 0,0.56 -0.46,1.02 -1.02,1.02 -0.56,0 -1.02,-0.46 -1.02,-1.02 0,-0.56 0.46,-1.02 1.02,-1.02 z m -1.36,0.17 c -0.59,0 -1.06,-0.48 -1.06,-1.06 0,-0.58 0.48,-1.06 1.06,-1.06 0.58,0 1.06,0.48 1.06,1.06 0,0.58 -0.48,1.06 -1.06,1.06 z m 1.26,-1.29 c 0,-0.59 0.48,-1.07 1.07,-1.07 0.59,0 1.07,0.48 1.07,1.07 0,0.59 -0.48,1.07 -1.07,1.07 -0.59,0 -1.07,-0.48 -1.07,-1.07 z m -0.85,3.51 c 0.52,0 0.95,0.42 0.95,0.95 0,0.53 -0.42,0.95 -0.95,0.95 -0.53,0 -0.95,-0.42 -0.95,-0.95 0,-0.53 0.42,-0.95 0.95,-0.95 z m 0.17,2.21 c 0.48,0 0.87,0.39 0.87,0.87 0,0.48 -0.39,0.87 -0.87,0.87 -0.48,0 -0.87,-0.39 -0.87,-0.87 0,-0.48 0.39,-0.87 0.87,-0.87 z M 39.05,47.1 c 0.3,0 0.54,0.24 0.54,0.54 0,0.3 -0.24,0.54 -0.54,0.54 -0.3,0 -0.54,-0.24 -0.54,-0.54 0,-0.3 0.24,-0.54 0.54,-0.54 z M 38.41,36.86 c -0.35,0 -0.63,-0.28 -0.63,-0.63 0,-0.35 0.28,-0.63 0.63,-0.63 0.35,0 0.63,0.28 0.63,0.63 0,0.35 -0.28,0.63 -0.63,0.63 z m 0.68,-1.51 c -0.36,0 -0.65,-0.29 -0.65,-0.65 0,-0.36 0.29,-0.65 0.65,-0.65 0.36,0 0.65,0.29 0.65,0.65 0,0.36 -0.29,0.65 -0.65,0.65 z m 0.11,-2.12 c 0,-0.37 0.3,-0.67 0.67,-0.67 0.37,0 0.67,0.3 0.67,0.67 0,0.37 -0.3,0.67 -0.67,0.67 -0.37,0 -0.67,-0.3 -0.67,-0.67 z m 1.46,14.3 c 0.3,0 0.54,0.24 0.54,0.54 0,0.3 -0.24,0.54 -0.54,0.54 -0.3,0 -0.54,-0.24 -0.54,-0.54 0,-0.3 0.24,-0.54 0.54,-0.54 z M 40.52,31.54 c -0.43,0 -0.77,-0.35 -0.77,-0.77 0,-0.42 0.35,-0.77 0.77,-0.77 0.42,0 0.77,0.35 0.77,0.77 0,0.42 -0.35,0.77 -0.77,0.77 z m -0.82,0.05 c 0,0.41 -0.33,0.74 -0.74,0.74 -0.41,0 -0.74,-0.33 -0.74,-0.74 0,-0.41 0.33,-0.74 0.74,-0.74 0.41,0 0.74,0.33 0.74,0.74 z m -0.83,1.6 c 0,0.4 -0.33,0.73 -0.73,0.73 -0.4,0 -0.73,-0.33 -0.73,-0.73 0,-0.4 0.33,-0.73 0.73,-0.73 0.4,0 0.73,0.33 0.73,0.73 z m -1.45,0.92 c 0.4,0 0.72,0.32 0.72,0.72 0,0.4 -0.32,0.72 -0.72,0.72 -0.4,0 -0.72,-0.32 -0.72,-0.72 0,-0.4 0.32,-0.72 0.72,-0.72 z m -0.72,1.66 c 0.39,0 0.71,0.32 0.71,0.71 0,0.39 -0.32,0.71 -0.71,0.71 -0.39,0 -0.71,-0.32 -0.71,-0.71 0,-0.39 0.32,-0.71 0.71,-0.71 z m 0.34,4.13 c -0.33,0 -0.6,-0.27 -0.6,-0.6 0,-0.33 0.27,-0.6 0.6,-0.6 0.33,0 0.6,0.27 0.6,0.6 0,0.33 -0.27,0.6 -0.6,0.6 z m 0.87,7.71 c 0,0.3 -0.24,0.54 -0.54,0.54 -0.3,0 -0.54,-0.24 -0.54,-0.54 0,-0.3 0.24,-0.54 0.54,-0.54 0.3,0 0.54,0.24 0.54,0.54 z M 36.7,38.13 c 0,0.39 -0.32,0.71 -0.71,0.71 -0.39,0 -0.71,-0.32 -0.71,-0.71 0,-0.39 0.32,-0.71 0.71,-0.71 0.39,0 0.71,0.32 0.71,0.71 z m -0.71,1.65 c 0,0.4 -0.32,0.72 -0.72,0.72 -0.4,0 -0.72,-0.32 -0.72,-0.72 0,-0.4 0.32,-0.72 0.72,-0.72 0.4,0 0.72,0.32 0.72,0.72 z m -0.21,1.05 c 0,-0.32 0.26,-0.58 0.58,-0.58 0.32,0 0.58,0.26 0.58,0.58 0,0.32 -0.26,0.58 -0.58,0.58 -0.32,0 -0.58,-0.26 -0.58,-0.58 z m 1.42,7.69 c 0.41,0 0.74,0.33 0.74,0.74 0,0.41 -0.33,0.74 -0.74,0.74 -0.41,0 -0.74,-0.33 -0.74,-0.74 0,-0.41 0.33,-0.74 0.74,-0.74 z m 0.19,1.59 c 0.44,0 0.8,0.36 0.8,0.8 0,0.44 -0.36,0.8 -0.8,0.8 -0.44,0 -0.8,-0.36 -0.8,-0.8 0,-0.44 0.36,-0.8 0.8,-0.8 z m 0.33,-11.72 c -0.34,0 -0.62,-0.28 -0.62,-0.62 0,-0.34 0.28,-0.62 0.62,-0.62 0.34,0 0.62,0.28 0.62,0.62 0,0.34 -0.28,0.62 -0.62,0.62 z M 39,48.57 c 0.4,0 0.72,0.32 0.72,0.72 0,0.4 -0.32,0.72 -0.72,0.72 -0.4,0 -0.72,-0.32 -0.72,-0.72 0,-0.4 0.32,-0.72 0.72,-0.72 z m 0.32,1.62 c 0.42,0 0.76,0.34 0.76,0.76 0,0.42 -0.34,0.76 -0.76,0.76 -0.42,0 -0.76,-0.34 -0.76,-0.76 0,-0.42 0.34,-0.76 0.76,-0.76 z m 0.64,2.63 c 0.47,0 0.85,0.38 0.85,0.85 0,0.47 -0.38,0.85 -0.85,0.85 -0.47,0 -0.85,-0.38 -0.85,-0.85 0,-0.47 0.38,-0.85 0.85,-0.85 z m 0.69,-0.07 c -0.44,0 -0.8,-0.36 -0.8,-0.8 0,-0.44 0.36,-0.8 0.8,-0.8 0.44,0 0.8,0.36 0.8,0.8 0,0.44 -0.36,0.8 -0.8,0.8 z m 0.11,-2.43 c -0.38,0 -0.69,-0.31 -0.69,-0.69 0,-0.38 0.31,-0.69 0.69,-0.69 0.38,0 0.69,0.31 0.69,0.69 0,0.38 -0.31,0.69 -0.69,0.69 z m 0.65,-16.5 c -0.39,0 -0.7,-0.31 -0.7,-0.7 0,-0.39 0.31,-0.7 0.7,-0.7 0.39,0 0.7,0.31 0.7,0.7 0,0.39 -0.31,0.7 -0.7,0.7 z m -0.04,-2.58 c 0,-0.47 0.38,-0.84 0.84,-0.84 0.46,0 0.84,0.38 0.84,0.84 0,0.46 -0.38,0.84 -0.84,0.84 -0.46,0 -0.84,-0.38 -0.84,-0.84 z m 0.36,-1.59 c -0.51,0 -0.92,-0.41 -0.92,-0.92 0,-0.51 0.41,-0.92 0.92,-0.92 0.51,0 0.92,0.41 0.92,0.92 0,0.51 -0.41,0.92 -0.92,0.92 z m 0,-2.12 c -0.54,0 -0.99,-0.44 -0.99,-0.99 0,-0.55 0.44,-0.99 0.99,-0.99 0.55,0 0.99,0.44 0.99,0.99 0,0.55 -0.44,0.99 -0.99,0.99 z m 0.02,-2.92 c 0,-0.58 0.47,-1.05 1.05,-1.05 0.58,0 1.05,0.47 1.05,1.05 0,0.58 -0.47,1.05 -1.05,1.05 -0.58,0 -1.05,-0.47 -1.05,-1.05 z m 2.34,-7.37 c 0.6,0 1.09,0.49 1.09,1.09 0,0.6 -0.49,1.09 -1.09,1.09 -0.6,0 -1.09,-0.49 -1.09,-1.09 0,-0.6 0.49,-1.09 1.09,-1.09 z m -0.23,2.95 c 0,0.61 -0.49,1.1 -1.1,1.1 -0.61,0 -1.1,-0.49 -1.1,-1.1 0,-0.61 0.49,-1.1 1.1,-1.1 0.61,0 1.1,0.49 1.1,1.1 z m -2.34,-3.42 c 0.61,0 1.11,0.5 1.11,1.11 0,0.61 -0.5,1.11 -1.11,1.11 -0.61,0 -1.11,-0.5 -1.11,-1.11 0,-0.61 0.5,-1.11 1.11,-1.11 z m -0.13,3.31 c 0,0.61 -0.49,1.1 -1.1,1.1 -0.61,0 -1.1,-0.49 -1.1,-1.1 0,-0.61 0.49,-1.1 1.1,-1.1 0.61,0 1.1,0.49 1.1,1.1 z m -2.47,-3.04 c 0.63,0 1.13,0.51 1.13,1.13 0,0.62 -0.51,1.13 -1.13,1.13 -0.62,0 -1.13,-0.51 -1.13,-1.13 0,-0.62 0.51,-1.13 1.13,-1.13 z m -2.41,0.99 c 0.64,0 1.15,0.52 1.15,1.15 0,0.18 -0.05,0.35 -0.13,0.5 0.11,-0.04 0.22,-0.07 0.35,-0.07 0.61,0 1.11,0.5 1.11,1.11 0,0.61 -0.5,1.11 -1.11,1.11 -0.61,0 -1.11,-0.5 -1.11,-1.11 0,-0.17 0.04,-0.32 0.11,-0.46 -0.12,0.04 -0.24,0.07 -0.37,0.07 -0.64,0 -1.15,-0.52 -1.15,-1.15 0,-0.63 0.52,-1.15 1.15,-1.15 z m -2.04,1.62 c 0.65,0 1.17,0.53 1.17,1.17 0,0.06 -0.02,0.1 -0.03,0.16 0.06,-0.01 0.11,-0.04 0.18,-0.04 0.62,0 1.12,0.5 1.12,1.12 0,0.12 -0.03,0.24 -0.07,0.35 0.09,-0.03 0.19,-0.06 0.29,-0.06 0.58,0 1.06,0.47 1.06,1.05 0,0.27 -0.11,0.51 -0.28,0.7 0.17,-0.12 0.36,-0.21 0.58,-0.21 0.55,0 1,0.45 1,1 0,0.55 -0.45,1 -1,1 -0.55,0 -1,-0.45 -1,-1 0,-0.26 0.1,-0.48 0.26,-0.66 -0.18,0.13 -0.38,0.22 -0.62,0.22 -0.58,0 -1.06,-0.47 -1.06,-1.06 0,-0.11 0.03,-0.2 0.06,-0.3 -0.11,0.04 -0.22,0.07 -0.34,0.07 -0.62,0 -1.12,-0.5 -1.12,-1.12 0,-0.04 0.02,-0.07 0.02,-0.11 -0.08,0.02 -0.15,0.05 -0.23,0.05 v 0 c -0.65,0 -1.17,-0.53 -1.17,-1.17 0,-0.64 0.53,-1.17 1.17,-1.17 z m -1.49,2.13 c 0.62,0 1.12,0.48 1.17,1.09 0.02,0 0.03,-0.01 0.05,-0.01 0.62,0 1.12,0.5 1.12,1.12 0,0.02 0,0.03 0,0.05 0.05,0 0.09,-0.03 0.13,-0.03 0.58,0 1.05,0.47 1.05,1.05 0,0.09 -0.03,0.16 -0.05,0.24 0.09,-0.03 0.17,-0.05 0.27,-0.05 0.54,0 0.98,0.44 0.98,0.98 0,0.23 -0.09,0.44 -0.23,0.61 0.12,-0.06 0.25,-0.1 0.39,-0.1 0.5,0 0.91,0.41 0.91,0.91 0,0.5 -0.41,0.91 -0.91,0.91 -0.5,0 -0.91,-0.41 -0.91,-0.91 0,-0.21 0.09,-0.4 0.21,-0.56 -0.13,0.07 -0.28,0.12 -0.44,0.12 -0.54,0 -0.98,-0.44 -0.98,-0.98 0,-0.07 0.02,-0.12 0.04,-0.18 -0.1,0.04 -0.21,0.07 -0.33,0.07 -0.57,0 -1.04,-0.46 -1.04,-1.04 -0.07,0.01 -0.13,0.04 -0.2,0.04 -0.56,0 -1.01,-0.42 -1.09,-0.96 -0.05,0 -0.09,0.03 -0.13,0.03 -0.66,0 -1.19,-0.54 -1.19,-1.19 0,-0.65 0.54,-1.19 1.19,-1.19 z m -1.03,2.39 c 0.58,0 1.04,0.41 1.16,0.95 0.02,0 0.04,-0.01 0.06,-0.01 0.58,0 1.04,0.44 1.11,1 0.03,0 0.06,-0.02 0.1,-0.02 0.58,0 1.05,0.47 1.05,1.05 0,0 0,0 0,0 0.05,0 0.09,-0.03 0.13,-0.03 0.54,0 0.97,0.44 0.97,0.97 0,0.13 -0.03,0.25 -0.07,0.36 0.06,-0.01 0.11,-0.04 0.17,-0.04 0.49,0 0.89,0.4 0.89,0.89 0,0.05 -0.02,0.09 -0.03,0.13 0.13,-0.27 0.4,-0.45 0.72,-0.45 0.45,0 0.82,0.37 0.82,0.82 0,0.45 -0.37,0.82 -0.82,0.82 -0.45,0 -0.82,-0.37 -0.82,-0.82 0,-0.04 0.02,-0.07 0.02,-0.1 -0.15,0.29 -0.44,0.5 -0.79,0.5 -0.49,0 -0.89,-0.4 -0.89,-0.89 0,-0.1 0.03,-0.2 0.06,-0.29 -0.08,0.02 -0.15,0.05 -0.24,0.05 -0.52,0 -0.93,-0.41 -0.96,-0.91 -0.07,0.02 -0.15,0.05 -0.23,0.05 -0.51,0 -0.92,-0.37 -1.01,-0.85 -0.07,0.01 -0.13,0.04 -0.19,0.04 -0.51,0 -0.93,-0.34 -1.07,-0.81 -0.05,0 -0.1,0.03 -0.15,0.03 v 0 0 c -0.67,0 -1.21,-0.54 -1.21,-1.21 0,-0.67 0.54,-1.22 1.21,-1.22 z m -1.02,2.4 c 0.54,0 0.99,0.35 1.16,0.84 0.04,0 0.07,-0.02 0.11,-0.02 0.54,0 0.98,0.38 1.1,0.88 0.05,0 0.1,-0.03 0.16,-0.03 0.54,0 0.98,0.41 1.04,0.94 0.07,-0.01 0.13,-0.04 0.2,-0.04 0.54,0 0.98,0.44 0.98,0.98 0,0.08 -0.03,0.16 -0.05,0.23 0.06,-0.01 0.12,-0.04 0.18,-0.04 0.41,0 0.75,0.29 0.85,0.67 0.15,-0.19 0.37,-0.32 0.63,-0.32 0.45,0 0.81,0.36 0.81,0.81 0,0.45 -0.36,0.81 -0.81,0.81 -0.36,0 -0.65,-0.24 -0.76,-0.56 -0.16,0.23 -0.42,0.39 -0.72,0.39 -0.5,0 -0.9,-0.4 -0.9,-0.9 0,-0.06 0.02,-0.11 0.03,-0.17 -0.08,0.02 -0.16,0.05 -0.25,0.05 -0.48,0 -0.85,-0.34 -0.94,-0.79 -0.09,0.03 -0.19,0.06 -0.29,0.06 -0.47,0 -0.86,-0.31 -1,-0.73 -0.09,0.02 -0.17,0.05 -0.26,0.05 -0.47,0 -0.88,-0.29 -1.06,-0.69 C 31.07,29 31,29.03 30.93,29.03 v 0 c -0.68,0 -1.24,-0.55 -1.24,-1.24 0,-0.69 0.55,-1.24 1.24,-1.24 z m -1.02,2.4 c 0.51,0 0.93,0.3 1.13,0.73 0.06,-0.01 0.12,-0.04 0.18,-0.04 0.5,0 0.92,0.32 1.09,0.77 0.07,-0.02 0.14,-0.04 0.22,-0.04 0.51,0 0.91,0.36 1.03,0.83 0.08,-0.02 0.17,-0.05 0.26,-0.05 0.55,0 0.99,0.44 0.99,0.99 0,0.04 -0.02,0.07 -0.02,0.11 0.06,-0.01 0.12,-0.04 0.19,-0.04 0.4,0 0.73,0.26 0.85,0.62 0.14,-0.24 0.39,-0.41 0.69,-0.41 0.45,0 0.81,0.36 0.81,0.81 0,0.45 -0.36,0.81 -0.81,0.81 -0.34,0 -0.62,-0.21 -0.75,-0.5 -0.15,0.29 -0.45,0.49 -0.79,0.49 -0.5,0 -0.91,-0.41 -0.91,-0.91 0,-0.01 0,-0.02 0,-0.04 -0.09,0.02 -0.17,0.05 -0.26,0.05 -0.43,0 -0.79,-0.28 -0.93,-0.67 -0.11,0.04 -0.23,0.07 -0.36,0.07 -0.43,0 -0.79,-0.25 -0.97,-0.62 -0.11,0.03 -0.22,0.07 -0.34,0.07 -0.43,0 -0.79,-0.24 -0.99,-0.59 -0.11,0.03 -0.21,0.07 -0.32,0.07 v 0 c -0.69,0 -1.26,-0.56 -1.26,-1.26 0,-0.7 0.56,-1.26 1.26,-1.26 z m -1.02,2.4 c 0.47,0 0.85,0.26 1.08,0.63 0.09,-0.02 0.19,-0.06 0.29,-0.06 0.46,0 0.86,0.27 1.05,0.66 0.1,-0.03 0.2,-0.06 0.3,-0.06 0.47,0 0.86,0.3 1.02,0.71 0.1,-0.04 0.21,-0.07 0.32,-0.07 0.55,0 0.99,0.44 1,0.98 0.07,-0.02 0.14,-0.04 0.21,-0.04 0.39,0 0.72,0.25 0.85,0.59 0.12,-0.3 0.4,-0.51 0.75,-0.51 0.44,0 0.8,0.36 0.8,0.8 0,0.44 -0.36,0.8 -0.8,0.8 -0.33,0 -0.61,-0.2 -0.74,-0.48 -0.12,0.37 -0.45,0.63 -0.86,0.63 -0.48,0 -0.85,-0.37 -0.9,-0.83 -0.1,0.03 -0.2,0.06 -0.31,0.06 -0.39,0 -0.73,-0.23 -0.89,-0.56 -0.14,0.06 -0.29,0.1 -0.45,0.1 -0.38,0 -0.71,-0.21 -0.9,-0.51 -0.14,0.06 -0.29,0.09 -0.46,0.09 -0.39,0 -0.72,-0.2 -0.93,-0.49 -0.14,0.05 -0.28,0.09 -0.43,0.09 v 0 c -0.7,0 -1.28,-0.57 -1.28,-1.28 0,-0.71 0.57,-1.28 1.28,-1.28 z m -1.02,2.4 c 0.43,0 0.78,0.22 1.02,0.53 0.12,-0.04 0.25,-0.08 0.39,-0.08 0.42,0 0.78,0.23 0.99,0.56 0.13,-0.05 0.27,-0.08 0.41,-0.08 0.43,0 0.79,0.25 0.97,0.61 0.13,-0.06 0.27,-0.09 0.41,-0.09 0.51,0 0.92,0.39 0.99,0.88 0.09,-0.03 0.17,-0.05 0.27,-0.05 0.41,0 0.75,0.28 0.87,0.65 0.05,-0.4 0.37,-0.71 0.78,-0.71 0.44,0 0.8,0.36 0.8,0.8 0,0.44 -0.36,0.8 -0.8,0.8 -0.35,0 -0.63,-0.22 -0.74,-0.53 -0.05,0.47 -0.43,0.83 -0.91,0.83 -0.44,0 -0.79,-0.31 -0.88,-0.72 -0.12,0.05 -0.24,0.08 -0.37,0.08 -0.36,0 -0.67,-0.2 -0.85,-0.49 -0.16,0.09 -0.34,0.16 -0.54,0.16 -0.35,0 -0.65,-0.18 -0.86,-0.43 -0.17,0.09 -0.35,0.15 -0.55,0.15 -0.35,0 -0.66,-0.15 -0.88,-0.39 -0.16,0.07 -0.34,0.12 -0.53,0.12 -0.72,0 -1.3,-0.58 -1.3,-1.3 0,-0.72 0.58,-1.3 1.3,-1.3 z m 9.05,26.72 c -0.63,0 -1.13,-0.45 -1.27,-1.04 -0.13,0.64 -0.68,1.14 -1.36,1.14 -0.56,0 -1.02,-0.33 -1.26,-0.79 -0.24,0.52 -0.76,0.89 -1.37,0.89 -0.56,0 -1.03,-0.32 -1.29,-0.77 -0.26,0.48 -0.75,0.81 -1.34,0.81 -0.59,0 -1.04,-0.32 -1.31,-0.77 -0.27,0.46 -0.75,0.78 -1.32,0.78 -0.66,0 -1.22,-0.42 -1.44,-1.01 -0.28,0.28 -0.67,0.45 -1.1,0.45 -0.86,0 -1.56,-0.7 -1.56,-1.56 0,-0.07 0.03,-0.12 0.04,-0.19 -0.16,0.06 -0.32,0.1 -0.5,0.1 -0.85,0 -1.55,-0.69 -1.55,-1.55 0,-0.33 0.13,-0.63 0.31,-0.88 -0.76,-0.07 -1.37,-0.69 -1.37,-1.48 0,-0.6 0.35,-1.1 0.86,-1.35 -0.44,-0.25 -0.76,-0.71 -0.76,-1.25 0,-0.79 0.63,-1.42 1.41,-1.45 -0.25,-0.26 -0.41,-0.6 -0.41,-0.99 0,-0.78 0.63,-1.42 1.42,-1.42 0.02,0 0.04,0.01 0.07,0.01 -0.27,-0.26 -0.45,-0.61 -0.45,-1.02 0,-0.77 0.63,-1.4 1.4,-1.4 0.06,0 0.11,0.03 0.16,0.03 -0.31,-0.25 -0.52,-0.62 -0.52,-1.05 0,-0.76 0.62,-1.38 1.38,-1.38 0.09,0 0.17,0.03 0.25,0.05 -0.35,-0.25 -0.6,-0.63 -0.6,-1.09 0,-0.75 0.61,-1.36 1.36,-1.36 0.12,0 0.23,0.04 0.35,0.07 -0.39,-0.23 -0.67,-0.64 -0.67,-1.13 0,-0.74 0.6,-1.34 1.34,-1.34 0.16,0 0.3,0.04 0.44,0.09 -0.44,-0.21 -0.74,-0.65 -0.74,-1.17 0,-0.73 0.59,-1.32 1.32,-1.32 0.39,0 0.73,0.17 0.97,0.44 0.15,-0.07 0.32,-0.11 0.49,-0.11 0.39,0 0.73,0.2 0.95,0.48 0.15,-0.08 0.32,-0.13 0.51,-0.13 0.4,0 0.74,0.22 0.94,0.54 0.15,-0.09 0.32,-0.15 0.5,-0.15 0.48,0 0.86,0.33 0.97,0.77 0.1,-0.04 0.21,-0.07 0.33,-0.07 0.45,0 0.82,0.31 0.91,0.73 0,-0.04 -0.01,-0.08 -0.01,-0.12 0,-0.45 0.36,-0.81 0.81,-0.81 0.45,0 0.81,0.36 0.81,0.81 0,0.45 -0.36,0.81 -0.81,0.81 -0.39,0 -0.71,-0.27 -0.79,-0.63 0,0.05 0.02,0.1 0.02,0.15 0,0.27 -0.12,0.51 -0.31,0.68 0.1,-0.04 0.21,-0.06 0.32,-0.06 0.45,0 0.82,0.37 0.82,0.82 0,0.22 -0.09,0.43 -0.24,0.57 0.13,-0.12 0.3,-0.19 0.49,-0.19 0.4,0 0.73,0.33 0.73,0.73 0,0.4 -0.33,0.73 -0.73,0.73 -0.4,0 -0.73,-0.33 -0.73,-0.73 0,-0.2 0.08,-0.38 0.21,-0.51 -0.15,0.13 -0.34,0.22 -0.55,0.22 -0.45,0 -0.82,-0.37 -0.82,-0.82 0,-0.23 0.09,-0.43 0.24,-0.58 -0.11,0.05 -0.23,0.07 -0.36,0.07 -0.4,0 -0.74,-0.26 -0.87,-0.62 -0.13,0.06 -0.28,0.1 -0.43,0.1 -0.33,0 -0.62,-0.17 -0.8,-0.42 -0.18,0.13 -0.39,0.22 -0.64,0.22 -0.32,0 -0.61,-0.14 -0.82,-0.36 -0.19,0.12 -0.4,0.21 -0.64,0.21 -0.32,0 -0.61,-0.13 -0.82,-0.33 -0.19,0.11 -0.4,0.19 -0.64,0.19 -0.15,0 -0.3,-0.04 -0.43,-0.09 0.13,0.06 0.24,0.14 0.34,0.23 0.18,-0.1 0.37,-0.16 0.58,-0.16 0.36,0 0.68,0.16 0.91,0.42 0.18,-0.11 0.37,-0.19 0.59,-0.19 0.37,0 0.69,0.19 0.9,0.47 0.17,-0.12 0.37,-0.21 0.59,-0.21 0.44,0 0.82,0.28 0.96,0.67 0.12,-0.05 0.25,-0.09 0.38,-0.09 0.52,0 0.94,0.42 0.94,0.94 0,0.19 -0.07,0.36 -0.17,0.51 0.07,-0.02 0.15,-0.05 0.23,-0.05 0.46,0 0.83,0.37 0.83,0.83 0,0.13 -0.04,0.26 -0.09,0.37 0.11,-0.07 0.24,-0.12 0.38,-0.12 0.41,0 0.74,0.33 0.74,0.74 0,0.41 -0.33,0.74 -0.74,0.74 -0.41,0 -0.74,-0.33 -0.74,-0.74 0,-0.11 0.03,-0.21 0.07,-0.3 -0.13,0.08 -0.27,0.14 -0.44,0.14 -0.46,0 -0.83,-0.37 -0.83,-0.83 0,-0.15 0.05,-0.29 0.13,-0.42 -0.09,0.03 -0.19,0.06 -0.29,0.06 -0.37,0 -0.69,-0.22 -0.84,-0.54 -0.15,0.09 -0.32,0.15 -0.51,0.15 -0.3,0 -0.57,-0.13 -0.76,-0.34 -0.2,0.17 -0.45,0.28 -0.73,0.28 -0.28,0 -0.55,-0.12 -0.75,-0.3 -0.1,0.08 -0.21,0.15 -0.33,0.2 0.06,0 0.11,-0.02 0.17,-0.02 0.34,0 0.64,0.16 0.86,0.4 0.18,-0.16 0.42,-0.27 0.69,-0.27 0.42,0 0.77,0.25 0.94,0.6 0.14,-0.08 0.29,-0.13 0.45,-0.13 0.52,0 0.95,0.42 0.95,0.95 0,0.12 -0.03,0.23 -0.07,0.34 0.06,-0.01 0.11,-0.04 0.17,-0.04 0.47,0 0.85,0.38 0.85,0.85 0,0.08 -0.02,0.15 -0.05,0.23 0.11,-0.06 0.23,-0.11 0.36,-0.11 0.41,0 0.75,0.33 0.75,0.75 0,0.42 -0.33,0.75 -0.75,0.75 -0.42,0 -0.75,-0.33 -0.75,-0.75 0,-0.06 0.02,-0.12 0.03,-0.17 -0.13,0.09 -0.28,0.15 -0.45,0.15 -0.47,0 -0.85,-0.38 -0.85,-0.85 0,-0.09 0.03,-0.17 0.05,-0.26 -0.08,0.02 -0.17,0.05 -0.26,0.05 -0.35,0 -0.64,-0.2 -0.8,-0.47 -0.17,0.12 -0.37,0.21 -0.59,0.21 -0.28,0 -0.52,-0.11 -0.71,-0.29 -0.1,0.11 -0.22,0.19 -0.36,0.26 0.07,-0.01 0.13,-0.04 0.2,-0.04 0.39,0 0.72,0.22 0.9,0.54 0.16,-0.11 0.33,-0.19 0.54,-0.19 0.53,0 0.95,0.43 0.95,0.95 0,0.07 -0.02,0.13 -0.04,0.19 0.06,-0.01 0.12,-0.04 0.19,-0.04 0.47,0 0.85,0.38 0.85,0.85 0,0.04 -0.02,0.08 -0.02,0.12 0.11,-0.07 0.24,-0.12 0.38,-0.12 0.41,0 0.75,0.33 0.75,0.75 0,0.42 -0.33,0.75 -0.75,0.75 -0.42,0 -0.75,-0.33 -0.75,-0.75 0,-0.02 0,-0.04 0.01,-0.06 -0.14,0.09 -0.29,0.16 -0.47,0.16 -0.47,0 -0.85,-0.38 -0.85,-0.85 0,-0.04 0.02,-0.07 0.02,-0.11 -0.09,0.03 -0.18,0.06 -0.28,0.06 -0.32,0 -0.59,-0.17 -0.76,-0.41 -0.19,0.16 -0.42,0.26 -0.68,0.26 -0.26,0 -0.49,-0.1 -0.68,-0.26 -0.05,0.06 -0.09,0.12 -0.14,0.17 0.34,0.01 0.63,0.2 0.82,0.46 0.17,-0.14 0.38,-0.24 0.62,-0.24 0.54,0 0.97,0.44 0.97,0.97 0,0.02 0,0.03 0,0.04 0.07,-0.02 0.13,-0.04 0.2,-0.04 0.47,0 0.85,0.38 0.85,0.85 0,0.47 -0.38,0.85 -0.85,0.85 -0.47,0 -0.82,-0.36 -0.84,-0.8 -0.1,0.04 -0.21,0.06 -0.32,0.06 -0.29,0 -0.54,-0.13 -0.72,-0.34 -0.19,0.2 -0.47,0.32 -0.76,0.32 -0.25,0 -0.47,-0.1 -0.65,-0.24 -0.03,0.04 -0.05,0.08 -0.08,0.12 0.29,0.04 0.53,0.18 0.71,0.39 0.18,-0.18 0.43,-0.3 0.71,-0.3 0.55,0 0.99,0.44 0.99,0.99 0,0.55 -0.44,0.99 -0.99,0.99 -0.28,0 -0.53,-0.12 -0.71,-0.31 -0.2,0.24 -0.5,0.41 -0.84,0.41 l 0.62,1.02 c 0,0 0,-0.04 0,-0.07 0,-0.55 0.45,-1 1,-1 0.55,0 1,0.45 1,1 0,0.55 -0.45,1 -1,1 -0.51,0 -0.93,-0.39 -0.99,-0.89 -0.01,0.41 -0.25,0.75 -0.58,0.93 0.06,-0.01 0.12,-0.04 0.19,-0.04 0.62,0 1.13,0.51 1.13,1.13 0,0.18 -0.05,0.34 -0.13,0.5 0.2,-0.17 0.45,-0.28 0.73,-0.28 0.19,0 0.36,0.05 0.52,0.13 -0.33,-0.16 -0.56,-0.5 -0.56,-0.89 0,-0.55 0.45,-1 1,-1 0.55,0 1,0.45 1,1 0,0.55 -0.45,1 -1,1 -0.14,0 -0.27,-0.03 -0.39,-0.08 0.32,0.19 0.55,0.54 0.56,0.94 0.12,-0.47 0.52,-0.81 1.02,-0.83 -0.1,-0.16 -0.18,-0.33 -0.18,-0.54 0,-0.55 0.44,-0.99 0.99,-0.99 0.55,0 0.99,0.44 0.99,0.99 0,0.51 -0.39,0.92 -0.89,0.97 0.15,0.19 0.25,0.42 0.25,0.68 0,0.29 -0.12,0.55 -0.3,0.75 0.2,0.2 0.32,0.47 0.36,0.76 0.03,-0.29 0.16,-0.54 0.36,-0.72 -0.23,-0.19 -0.38,-0.47 -0.38,-0.8 0,-0.55 0.43,-0.99 0.97,-1.04 -0.14,-0.17 -0.23,-0.37 -0.23,-0.6 0,-0.35 0.2,-0.64 0.47,-0.81 -0.41,-0.07 -0.73,-0.41 -0.73,-0.84 0,-0.48 0.39,-0.86 0.86,-0.86 0.47,0 0.86,0.39 0.86,0.86 0,0.3 -0.16,0.55 -0.4,0.71 0.47,0.06 0.85,0.45 0.85,0.94 0,0.49 -0.36,0.86 -0.82,0.93 0.18,0.19 0.29,0.44 0.29,0.72 0,0.28 -0.11,0.54 -0.3,0.73 0.29,0.21 0.49,0.54 0.49,0.92 0,0.21 -0.07,0.4 -0.17,0.57 0.38,0.22 0.65,0.61 0.65,1.08 0,0.13 -0.04,0.26 -0.08,0.38 0.13,0.06 0.25,0.14 0.35,0.24 -0.12,-0.18 -0.21,-0.39 -0.21,-0.62 0,-0.25 0.09,-0.46 0.23,-0.65 -0.39,-0.16 -0.67,-0.54 -0.67,-1 0,-0.32 0.15,-0.6 0.37,-0.8 -0.3,-0.17 -0.51,-0.48 -0.51,-0.85 0,-0.52 0.4,-0.93 0.91,-0.98 -0.19,-0.17 -0.32,-0.4 -0.32,-0.67 0,-0.37 0.22,-0.69 0.54,-0.83 -0.05,0 -0.09,0.03 -0.14,0.03 -0.47,0 -0.85,-0.38 -0.85,-0.85 0,-0.47 0.38,-0.85 0.85,-0.85 0.47,0 0.85,0.38 0.85,0.85 0,0.35 -0.21,0.64 -0.51,0.77 0.05,-0.01 0.1,-0.03 0.16,-0.03 0.5,0 0.91,0.41 0.91,0.91 0,0.46 -0.35,0.83 -0.8,0.88 0.23,0.18 0.38,0.45 0.38,0.76 0,0.27 -0.11,0.52 -0.29,0.7 0.35,0.18 0.6,0.53 0.6,0.95 0,0.21 -0.08,0.4 -0.18,0.56 0.46,0.15 0.79,0.58 0.79,1.09 0,0.14 -0.03,0.28 -0.08,0.4 0.55,0.16 0.96,0.65 0.96,1.25 0,0.73 -0.59,1.32 -1.32,1.32 z m 2.62,-0.26 c -0.66,0 -1.19,-0.53 -1.19,-1.19 0,-0.19 0.05,-0.36 0.13,-0.52 -0.48,-0.1 -0.84,-0.51 -0.84,-1.02 0,-0.26 0.11,-0.49 0.26,-0.68 -0.48,-0.07 -0.86,-0.46 -0.86,-0.97 0,-0.32 0.16,-0.59 0.4,-0.77 -0.4,-0.1 -0.7,-0.45 -0.7,-0.88 0,-0.5 0.4,-0.91 0.9,-0.92 -0.26,-0.15 -0.44,-0.41 -0.44,-0.73 0,-0.47 0.38,-0.85 0.85,-0.85 0.47,0 0.85,0.38 0.85,0.85 0,0.47 -0.36,0.82 -0.82,0.84 0.29,0.15 0.5,0.45 0.5,0.81 0,0.29 -0.14,0.53 -0.34,0.7 0.44,0.1 0.78,0.48 0.78,0.95 0,0.23 -0.09,0.43 -0.22,0.6 0.54,0.05 0.96,0.49 0.96,1.04 0,0.13 -0.03,0.26 -0.08,0.38 v 0 c 0.59,0.07 1.05,0.56 1.05,1.16 0,0.66 -0.53,1.19 -1.19,1.19 z m 2.36,-1.25 c -0.57,0 -1.04,-0.46 -1.04,-1.04 0,-0.01 0,-0.02 0,-0.04 -0.4,-0.12 -0.7,-0.47 -0.7,-0.91 0,-0.26 0.1,-0.48 0.27,-0.66 -0.07,0.02 -0.14,0.04 -0.22,0.04 -0.5,0 -0.91,-0.41 -0.91,-0.91 0,-0.5 0.41,-0.91 0.91,-0.91 0.5,0 0.91,0.41 0.91,0.91 0,0.24 -0.1,0.45 -0.24,0.61 0.08,-0.02 0.16,-0.05 0.25,-0.05 0.51,0 0.92,0.4 0.95,0.91 v 0 c 0.48,0.09 0.85,0.49 0.85,1 0,0.57 -0.46,1.04 -1.04,1.04 z m 1.64,-2.22 c -0.46,0 -0.84,-0.38 -0.84,-0.84 0,-0.1 0.02,-0.19 0.06,-0.28 -0.12,0.08 -0.27,0.14 -0.43,0.14 -0.43,0 -0.78,-0.35 -0.78,-0.78 0,-0.31 0.18,-0.57 0.44,-0.7 -0.05,0 -0.09,0.01 -0.14,0.01 -0.42,0 -0.75,-0.34 -0.75,-0.75 0,-0.41 0.34,-0.75 0.75,-0.75 0.41,0 0.75,0.34 0.75,0.75 0,0.3 -0.17,0.55 -0.42,0.67 0.05,0 0.1,-0.02 0.15,-0.02 0.43,0 0.78,0.35 0.78,0.78 0,0.09 -0.02,0.17 -0.05,0.25 0.14,-0.1 0.3,-0.17 0.48,-0.17 v 0 c 0.46,0 0.84,0.38 0.84,0.84 0,0.46 -0.38,0.84 -0.84,0.84 z m 0.62,-2.54 c -0.34,0 -0.62,-0.28 -0.62,-0.62 0,-0.34 0.28,-0.62 0.62,-0.62 0.34,0 0.62,0.28 0.62,0.62 0,0.34 -0.28,0.62 -0.62,0.62 z m 9.85,4.6 c 0,0.46 -0.38,0.84 -0.84,0.84 -0.46,0 -0.84,-0.38 -0.84,-0.84 0,-0.12 0.02,-0.23 0.07,-0.33 -0.14,0.08 -0.29,0.14 -0.47,0.14 -0.52,0 -0.94,-0.42 -0.94,-0.94 0,-0.16 0.05,-0.31 0.13,-0.44 -0.02,0 -0.04,0.01 -0.06,0.01 -0.55,0 -1,-0.45 -1,-1 0,-0.2 0.07,-0.38 0.18,-0.53 -0.49,-0.09 -0.87,-0.5 -0.87,-1.02 0,-0.18 0.06,-0.34 0.14,-0.49 -0.47,-0.13 -0.83,-0.54 -0.83,-1.06 0,-0.17 0.04,-0.32 0.11,-0.47 C 48.34,52.53 48,52.11 48,51.6 c 0,-0.16 0.03,-0.32 0.09,-0.46 -0.44,-0.17 -0.75,-0.6 -0.75,-1.1 0,-0.16 0.03,-0.3 0.09,-0.44 -0.44,-0.18 -0.74,-0.61 -0.74,-1.11 0,-0.15 0.04,-0.29 0.09,-0.43 -0.43,-0.19 -0.74,-0.62 -0.74,-1.12 0,-0.15 0.04,-0.29 0.08,-0.42 -0.43,-0.2 -0.74,-0.63 -0.74,-1.13 0,-0.15 0.04,-0.28 0.08,-0.41 -0.43,-0.2 -0.73,-0.63 -0.73,-1.14 0,-0.16 0.04,-0.31 0.09,-0.45 -0.41,-0.2 -0.7,-0.62 -0.7,-1.11 0,-0.18 0.04,-0.35 0.11,-0.5 -0.4,-0.19 -0.67,-0.59 -0.67,-1.05 0,-0.21 0.07,-0.39 0.16,-0.56 -0.4,-0.16 -0.68,-0.54 -0.68,-0.99 0,-0.24 0.09,-0.45 0.23,-0.63 -0.43,-0.1 -0.75,-0.46 -0.75,-0.92 0,-0.28 0.13,-0.53 0.32,-0.71 -0.46,0 -0.84,-0.38 -0.84,-0.85 0,-0.47 0.38,-0.85 0.85,-0.85 0.31,0 0.57,0.17 0.72,0.42 0.05,-0.12 0.12,-0.23 0.2,-0.33 -0.39,-0.04 -0.7,-0.29 -0.83,-0.64 -0.07,0.34 -0.36,0.6 -0.72,0.6 -0.42,0 -0.75,-0.34 -0.75,-0.75 0,-0.41 0.34,-0.75 0.75,-0.75 0.31,0 0.57,0.18 0.69,0.45 0.04,-0.26 0.17,-0.48 0.37,-0.63 -0.03,0 -0.06,0.02 -0.09,0.02 -0.51,0 -0.91,-0.41 -0.91,-0.91 0,-0.5 0.41,-0.91 0.91,-0.91 0.1,0 0.19,0.03 0.28,0.06 -0.1,-0.16 -0.16,-0.33 -0.16,-0.53 0,-0.28 0.11,-0.54 0.3,-0.72 -0.07,0.02 -0.15,0.05 -0.23,0.05 -0.54,0 -0.98,-0.44 -0.98,-0.98 0,-0.54 0.44,-0.98 0.98,-0.98 0.22,0 0.41,0.09 0.58,0.21 0,0 0,-0.02 0,-0.03 0,-0.28 0.11,-0.52 0.28,-0.71 -0.17,0.12 -0.37,0.19 -0.59,0.19 -0.57,0 -1.03,-0.46 -1.03,-1.03 0,-0.57 0.46,-1.03 1.03,-1.03 0.1,0 0.19,0.03 0.28,0.06 -0.16,-0.19 -0.27,-0.43 -0.27,-0.69 0,-0.59 0.48,-1.07 1.07,-1.07 0.07,0 0.14,0.03 0.21,0.04 -0.12,-0.17 -0.2,-0.37 -0.2,-0.6 0,-0.6 0.49,-1.08 1.08,-1.08 0.08,0 0.15,0.03 0.23,0.05 -0.05,-0.13 -0.09,-0.27 -0.09,-0.42 0,-0.6 0.48,-1.08 1.08,-1.08 0.11,0 0.22,0.03 0.32,0.06 -0.03,-0.1 -0.06,-0.19 -0.06,-0.3 0,-0.58 0.47,-1.05 1.05,-1.05 0.58,0 1.05,0.47 1.05,1.05 0,0.58 -0.47,1.05 -1.05,1.05 -0.1,0 -0.2,-0.03 -0.3,-0.06 0.03,0.1 0.07,0.21 0.07,0.32 0,0.6 -0.48,1.08 -1.08,1.08 -0.08,0 -0.15,-0.03 -0.23,-0.05 0.06,0.13 0.09,0.27 0.09,0.42 0,0.6 -0.49,1.08 -1.08,1.08 -0.08,0 -0.14,-0.03 -0.22,-0.04 0.12,0.17 0.2,0.37 0.2,0.59 0,0.59 -0.48,1.07 -1.07,1.07 -0.11,0 -0.21,-0.03 -0.31,-0.06 0.15,0.18 0.25,0.4 0.25,0.65 0,0.26 -0.1,0.5 -0.27,0.69 0.17,-0.13 0.39,-0.2 0.62,-0.2 0.04,0 0.08,0.02 0.12,0.02 -0.07,-0.14 -0.11,-0.29 -0.11,-0.46 0,-0.6 0.49,-1.09 1.09,-1.09 0.04,0 0.07,0.02 0.1,0.02 -0.05,-0.12 -0.08,-0.26 -0.08,-0.4 0,-0.6 0.49,-1.09 1.09,-1.09 0.06,0 0.11,0.02 0.17,0.04 -0.02,-0.07 -0.05,-0.15 -0.05,-0.23 0,-0.59 0.48,-1.08 1.08,-1.08 0.09,0 0.17,0.03 0.25,0.05 0,-0.03 -0.02,-0.06 -0.02,-0.1 0,-0.57 0.46,-1.03 1.03,-1.03 0.57,0 1.03,0.46 1.03,1.03 0,0.57 -0.46,1.03 -1.03,1.03 -0.08,0 -0.14,-0.03 -0.22,-0.04 0,0.05 0.03,0.09 0.03,0.13 0,0.59 -0.48,1.08 -1.08,1.08 -0.06,0 -0.11,-0.02 -0.16,-0.03 0.02,0.08 0.05,0.15 0.05,0.24 0,0.6 -0.49,1.09 -1.09,1.09 -0.04,0 -0.07,-0.02 -0.1,-0.02 0.05,0.12 0.08,0.26 0.08,0.4 0,0.09 -0.03,0.17 -0.05,0.25 0.17,-0.39 0.55,-0.66 1,-0.66 0.07,0 0.13,0.03 0.2,0.04 0,-0.03 -0.02,-0.06 -0.02,-0.09 0,-0.59 0.48,-1.07 1.07,-1.07 0.11,0 0.2,0.03 0.3,0.06 0,-0.55 0.45,-1 1.01,-1 0.56,0 1.01,0.45 1.01,1.01 0,0.56 -0.45,1.01 -1.01,1.01 -0.09,0 -0.17,-0.03 -0.25,-0.05 0,0.01 0,0.02 0,0.04 0,0.59 -0.48,1.07 -1.07,1.07 -0.06,0 -0.11,-0.02 -0.17,-0.03 0,0.04 0.02,0.07 0.02,0.12 0,0.61 -0.49,1.1 -1.1,1.1 -0.04,0 -0.07,-0.02 -0.11,-0.02 0.02,0.09 0.05,0.17 0.05,0.26 0,0.43 -0.26,0.8 -0.62,0.98 0.11,-0.04 0.23,-0.07 0.36,-0.07 0.05,0 0.09,0.02 0.14,0.03 0,-0.04 -0.02,-0.07 -0.02,-0.11 0,-0.61 0.5,-1.11 1.11,-1.11 0.09,0 0.17,0.03 0.26,0.05 0.02,-0.57 0.48,-1.02 1.05,-1.02 0.14,0 0.27,0.03 0.39,0.08 0.05,-0.5 0.46,-0.9 0.97,-0.9 0.55,0 0.99,0.44 0.99,0.99 0,0.55 -0.44,0.99 -0.99,0.99 -0.11,0 -0.22,-0.03 -0.32,-0.07 -0.03,0.56 -0.48,1.01 -1.05,1.01 -0.07,0 -0.13,-0.03 -0.2,-0.04 0,0 0,0 0,0 0,0.61 -0.5,1.11 -1.11,1.11 -0.04,0 -0.08,-0.02 -0.12,-0.02 0,0.04 0.03,0.08 0.03,0.13 0,0.41 -0.23,0.76 -0.56,0.96 0.09,-0.02 0.18,-0.06 0.28,-0.06 0.07,0 0.14,0.03 0.2,0.04 0.01,-0.59 0.49,-1.06 1.08,-1.06 0.13,0 0.24,0.03 0.36,0.07 0.06,-0.51 0.48,-0.92 1.01,-0.92 0.18,0 0.33,0.06 0.48,0.13 0.07,-0.47 0.46,-0.83 0.94,-0.83 0.54,0 0.97,0.44 0.97,0.97 0,0.53 -0.44,0.97 -0.97,0.97 -0.15,0 -0.29,-0.04 -0.42,-0.1 -0.06,0.51 -0.48,0.92 -1.01,0.92 -0.1,0 -0.2,-0.03 -0.29,-0.06 -0.04,0.56 -0.5,1.01 -1.07,1.01 -0.05,0 -0.1,-0.02 -0.15,-0.03 0,0 0,0.02 0,0.03 0,0.44 -0.26,0.81 -0.62,1 0.11,-0.03 0.21,-0.07 0.33,-0.07 0.11,0 0.21,0.03 0.31,0.06 0.05,-0.54 0.49,-0.96 1.04,-0.96 0.16,0 0.31,0.04 0.45,0.11 0.08,-0.47 0.48,-0.83 0.97,-0.83 0.21,0 0.4,0.08 0.56,0.19 0.08,-0.44 0.45,-0.78 0.92,-0.78 0.53,0 0.95,0.43 0.95,0.95 0,0.52 -0.43,0.95 -0.95,0.95 -0.19,0 -0.36,-0.07 -0.5,-0.16 -0.07,0.48 -0.47,0.86 -0.97,0.86 -0.14,0 -0.27,-0.03 -0.39,-0.08 -0.08,0.51 -0.5,0.9 -1.02,0.9 -0.09,0 -0.17,-0.03 -0.25,-0.05 -0.03,0.59 -0.5,1.05 -1.1,1.05 -0.05,0 -0.1,-0.02 -0.15,-0.03 -0.01,0.29 -0.13,0.55 -0.31,0.74 0.1,0 0.19,0.03 0.27,0.05 0.08,-0.51 0.5,-0.9 1.04,-0.9 0.15,0 0.28,0.03 0.41,0.08 0.08,-0.48 0.48,-0.86 0.99,-0.86 0.2,0 0.38,0.07 0.54,0.17 0.1,-0.44 0.47,-0.78 0.94,-0.78 0.25,0 0.47,0.1 0.64,0.25 0.1,-0.41 0.45,-0.72 0.89,-0.72 0.51,0 0.93,0.42 0.93,0.93 0,0.51 -0.42,0.93 -0.93,0.93 -0.23,0 -0.43,-0.09 -0.59,-0.23 -0.09,0.45 -0.47,0.79 -0.94,0.79 -0.18,0 -0.34,-0.06 -0.49,-0.15 -0.09,0.48 -0.49,0.84 -0.99,0.84 -0.13,0 -0.24,-0.03 -0.36,-0.07 -0.07,0.53 -0.5,0.94 -1.04,0.94 -0.09,0 -0.16,-0.03 -0.25,-0.05 -0.03,0.27 -0.13,0.52 -0.32,0.7 0.15,0 0.29,0.03 0.42,0.09 0.11,-0.45 0.5,-0.8 0.99,-0.8 0.19,0 0.35,0.06 0.5,0.15 0.09,-0.46 0.47,-0.8 0.95,-0.8 0.24,0 0.45,0.1 0.63,0.24 0.1,-0.41 0.46,-0.72 0.91,-0.72 0.29,0 0.54,0.14 0.72,0.35 0.1,-0.4 0.44,-0.7 0.87,-0.7 0.5,0 0.91,0.41 0.91,0.91 0,0.5 -0.41,0.91 -0.91,0.91 -0.27,0 -0.51,-0.12 -0.68,-0.31 -0.09,0.43 -0.46,0.75 -0.91,0.75 -0.22,0 -0.42,-0.09 -0.58,-0.22 -0.1,0.44 -0.48,0.78 -0.95,0.78 -0.17,0 -0.32,-0.05 -0.46,-0.13 -0.08,0.49 -0.49,0.86 -1,0.86 -0.12,0 -0.23,-0.03 -0.34,-0.07 -0.05,0.3 -0.2,0.54 -0.44,0.71 0.05,0 0.1,-0.03 0.15,-0.03 0.19,0 0.37,0.07 0.52,0.16 0.11,-0.43 0.48,-0.76 0.95,-0.76 0.23,0 0.43,0.09 0.6,0.22 0.1,-0.43 0.46,-0.75 0.92,-0.75 0.29,0 0.53,0.13 0.71,0.33 0.11,-0.39 0.45,-0.69 0.88,-0.69 0.34,0 0.63,0.19 0.79,0.47 0.09,-0.4 0.43,-0.71 0.86,-0.71 0.49,0 0.89,0.4 0.89,0.89 0,0.49 -0.4,0.89 -0.89,0.89 -0.32,0 -0.59,-0.18 -0.75,-0.44 -0.08,0.43 -0.44,0.75 -0.89,0.75 -0.27,0 -0.51,-0.12 -0.68,-0.3 -0.11,0.42 -0.47,0.73 -0.92,0.73 -0.21,0 -0.4,-0.08 -0.56,-0.2 -0.09,0.45 -0.48,0.8 -0.96,0.8 -0.16,0 -0.31,-0.05 -0.45,-0.12 -0.1,0.49 -0.51,0.86 -1.03,0.86 -0.04,0 -0.08,-0.02 -0.12,-0.02 0.05,0.11 0.07,0.24 0.07,0.36 0.18,-0.29 0.48,-0.49 0.85,-0.49 0.23,0 0.44,0.09 0.61,0.23 0.11,-0.42 0.47,-0.73 0.91,-0.73 0.27,0 0.52,0.12 0.69,0.3 0.1,-0.4 0.45,-0.7 0.89,-0.7 0.34,0 0.62,0.19 0.79,0.46 0.09,-0.4 0.43,-0.7 0.86,-0.7 0.43,0 0.74,0.27 0.85,0.65 0.05,-0.43 0.4,-0.77 0.85,-0.77 0.48,0 0.87,0.39 0.87,0.87 0,0.48 -0.39,0.87 -0.87,0.87 -0.39,0 -0.7,-0.26 -0.82,-0.61 -0.05,0.45 -0.42,0.8 -0.88,0.8 -0.32,0 -0.6,-0.18 -0.75,-0.44 -0.09,0.42 -0.45,0.74 -0.89,0.74 -0.26,0 -0.49,-0.1 -0.66,-0.27 -0.1,0.42 -0.46,0.74 -0.92,0.74 -0.21,0 -0.4,-0.08 -0.56,-0.2 -0.1,0.45 -0.48,0.8 -0.97,0.8 -0.08,0 -0.16,-0.03 -0.24,-0.05 0.04,0.11 0.07,0.23 0.07,0.36 0,0.35 -0.18,0.64 -0.45,0.83 0.05,0 0.09,-0.03 0.14,-0.03 0.13,0 0.26,0.03 0.37,0.07 -0.03,-0.09 -0.06,-0.18 -0.06,-0.28 0,-0.53 0.43,-0.95 0.95,-0.95 0.28,0 0.52,0.12 0.7,0.31 0.1,-0.41 0.45,-0.72 0.88,-0.72 0.33,0 0.61,0.18 0.77,0.45 0.08,-0.41 0.43,-0.73 0.86,-0.73 0.43,0 0.75,0.29 0.85,0.68 0.04,-0.44 0.4,-0.79 0.85,-0.79 0.48,0 0.87,0.39 0.87,0.87 0,0.48 -0.39,0.87 -0.87,0.87 -0.4,0 -0.72,-0.28 -0.82,-0.65 -0.04,0.46 -0.41,0.82 -0.88,0.82 -0.32,0 -0.58,-0.18 -0.74,-0.42 -0.08,0.43 -0.44,0.76 -0.89,0.76 -0.26,0 -0.5,-0.11 -0.66,-0.29 -0.09,0.43 -0.46,0.75 -0.91,0.75 -0.12,0 -0.24,-0.03 -0.35,-0.07 0.03,0.1 0.06,0.19 0.06,0.3 0,0.54 -0.44,0.98 -0.98,0.98 -0.24,0 -0.46,-0.1 -0.63,-0.25 -0.04,0.1 -0.11,0.19 -0.18,0.28 0.29,0.04 0.54,0.2 0.69,0.44 0.13,-0.34 0.46,-0.59 0.85,-0.59 0.18,0 0.34,0.07 0.48,0.16 -0.03,-0.09 -0.05,-0.17 -0.05,-0.27 0,-0.5 0.41,-0.91 0.91,-0.91 0.34,0 0.62,0.19 0.78,0.47 0.06,-0.43 0.41,-0.76 0.86,-0.76 0.41,0 0.75,0.29 0.84,0.68 0.01,-0.46 0.39,-0.83 0.85,-0.83 0.46,0 0.86,0.38 0.86,0.86 0,0.48 -0.38,0.86 -0.86,0.86 -0.4,0 -0.72,-0.28 -0.82,-0.65 -0.01,0.47 -0.4,0.86 -0.88,0.86 -0.33,0 -0.6,-0.18 -0.75,-0.45 -0.06,0.44 -0.42,0.79 -0.88,0.79 -0.17,0 -0.33,-0.06 -0.47,-0.15 0.03,0.09 0.06,0.18 0.06,0.28 0,0.51 -0.41,0.92 -0.92,0.92 -0.31,0 -0.57,-0.16 -0.74,-0.4 -0.05,0.16 -0.14,0.29 -0.25,0.41 0.43,0 0.78,0.3 0.89,0.69 0.08,-0.4 0.42,-0.71 0.84,-0.71 0.23,0 0.44,0.09 0.59,0.24 -0.03,-0.08 -0.05,-0.17 -0.05,-0.26 0,-0.47 0.38,-0.86 0.86,-0.86 0.48,0 0.86,0.38 0.86,0.86 0,0.48 -0.38,0.86 -0.86,0.86 -0.22,0 -0.43,-0.09 -0.58,-0.23 0.03,0.09 0.05,0.17 0.05,0.27 0,0.48 -0.39,0.87 -0.87,0.87 -0.39,0 -0.72,-0.27 -0.82,-0.63 -0.05,0.29 -0.23,0.54 -0.49,0.67 0.09,-0.03 0.17,-0.05 0.27,-0.05 0.49,0 0.89,0.4 0.89,0.89 0,0.49 -0.4,0.88 -0.89,0.88 -0.18,0 -0.35,-0.07 -0.49,-0.17 -0.03,0.12 -0.07,0.24 -0.13,0.34 0.21,0.07 0.38,0.19 0.51,0.37 0.1,-0.34 0.41,-0.59 0.78,-0.59 0.46,0 0.83,0.37 0.83,0.83 0,0.46 -0.37,0.83 -0.83,0.83 -0.23,0 -0.44,-0.1 -0.59,-0.25 -0.03,0.15 -0.08,0.28 -0.17,0.4 0.31,0.07 0.58,0.27 0.7,0.57 0.06,-0.38 0.37,-0.67 0.76,-0.67 0.43,0 0.78,0.35 0.78,0.78 0,0.43 -0.35,0.78 -0.78,0.78 -0.3,0 -0.56,-0.18 -0.69,-0.44 -0.01,0.16 -0.06,0.3 -0.14,0.44 0,0 0.02,0 0.02,0 0.52,0 0.94,0.42 0.94,0.94 0,0.14 -0.04,0.27 -0.09,0.4 0.12,-0.07 0.25,-0.11 0.4,-0.11 0.46,0 0.84,0.38 0.84,0.84 v 0 z m 0.8,1.58 c -0.41,0 -0.74,-0.33 -0.74,-0.74 0,-0.41 0.33,-0.74 0.74,-0.74 0.41,0 0.74,0.33 0.74,0.74 0,0.41 -0.33,0.74 -0.74,0.74 z m 0.59,-1.57 c -0.37,0 -0.67,-0.3 -0.67,-0.67 0,-0.37 0.3,-0.67 0.67,-0.67 0.37,0 0.67,0.3 0.67,0.67 0,0.37 -0.3,0.67 -0.67,0.67 z m 0.55,-3.11 c 0,-0.4 0.32,-0.72 0.72,-0.72 0.4,0 0.72,0.32 0.72,0.72 0,0.4 -0.32,0.72 -0.72,0.72 -0.4,0 -0.72,-0.32 -0.72,-0.72 z m 0.94,1.1 c 0.37,0 0.67,0.3 0.67,0.67 0,0.37 -0.3,0.67 -0.67,0.67 -0.37,0 -0.67,-0.3 -0.67,-0.67 0,-0.37 0.3,-0.67 0.67,-0.67 z m 0.1,3.89 c -0.42,0 -0.75,-0.34 -0.75,-0.75 0,-0.41 0.34,-0.76 0.75,-0.76 0.41,0 0.75,0.34 0.75,0.76 0,0.42 -0.34,0.75 -0.75,0.75 z M 57.74,58 c 0,-0.37 0.3,-0.67 0.66,-0.67 0.36,0 0.66,0.3 0.66,0.67 0,0.37 -0.3,0.66 -0.66,0.66 -0.36,0 -0.66,-0.3 -0.66,-0.66 z m 1.31,1.96 c -0.36,0 -0.65,-0.29 -0.65,-0.65 0,-0.36 0.29,-0.65 0.65,-0.65 0.36,0 0.65,0.29 0.65,0.65 0,0.36 -0.29,0.65 -0.65,0.65 z m 0.63,-2.72 c -0.39,0 -0.7,-0.31 -0.7,-0.7 0,-0.39 0.31,-0.7 0.7,-0.7 0.39,0 0.7,0.31 0.7,0.7 0,0.39 -0.31,0.7 -0.7,0.7 z m 1.21,0.93 c -0.37,0 -0.68,-0.3 -0.68,-0.68 0,-0.38 0.3,-0.68 0.68,-0.68 0.38,0 0.68,0.3 0.68,0.68 0,0.38 -0.3,0.68 -0.68,0.68 z m 1.08,-2.34 c -0.39,0 -0.71,-0.32 -0.71,-0.71 0,-0.39 0.32,-0.71 0.71,-0.71 0.39,0 0.71,0.32 0.71,0.71 0,0.39 -0.32,0.71 -0.71,0.71 z" id="path31" />
    <path class="b" d="m 50.38,46.58 c -0.06,0 -0.11,0.03 -0.16,0.03 -0.19,0 -0.36,-0.07 -0.51,-0.16 -0.03,0.07 -0.09,0.13 -0.13,0.19 0.2,0.05 0.38,0.13 0.51,0.27 0.07,-0.14 0.17,-0.25 0.29,-0.34 z" id="path32" />
    <path class="b" d="m 50.98,51.88 c -0.09,0.03 -0.19,0.06 -0.29,0.06 -0.14,0 -0.27,-0.04 -0.4,-0.09 -0.02,0.1 -0.04,0.2 -0.09,0.28 0.13,0.05 0.24,0.12 0.34,0.21 0.08,-0.2 0.23,-0.36 0.43,-0.46 v 0 z" id="path33" />
    <polygon class="b" points="" id="polygon33" />
    <path class="b" d="m 49.69,50.27 c -0.02,0.09 -0.03,0.18 -0.06,0.27 0.07,0.03 0.13,0.08 0.19,0.13 0.05,-0.13 0.12,-0.24 0.21,-0.33 0,0 -0.01,0 -0.02,0 -0.11,0 -0.22,-0.03 -0.32,-0.06 z" id="path34" />
  </g>
</svg>
