<?xml version="1.0" encoding="UTF-8"?><svg id="a" xmlns="http://www.w3.org/2000/svg" viewBox="0 0 524.15 80"><defs><style>.b{stroke-width:0px;}</style></defs><path class="b" d="m342.08,22.31h21.39l-.03-1.4c0-.74-.16-2.56-.32-4.01l-.32-2.64-14.84-.08-14.87-.05v48.59h4.33c3.7,0,4.36-.05,4.49-.42.08-.24.16-4.62.16-9.77v-9.35h19.3l-.08-4.04-.08-4.01-9.56-.08-9.59-.05v-12.68Z"/><path class="b" d="m395.98,31.05l-.16-1.27c-.11-.69-.32-1.74-.48-2.32l-.32-1.06-3.96-.08-3.96-.05.08,17.88c.03,9.85.13,18.06.18,18.22.08.26,1.21.34,4.46.34,3.7,0,4.36-.05,4.49-.42.08-.24.16-5.73.16-12.23v-11.8l.74-.69c1.64-1.58,5.1-2.8,8.71-3.06l2.3-.18v-8.71l-1.19-.05c-2.88-.11-6.84,1.56-9.43,3.96l-1.64,1.53Z"/><polygon class="b" points="369.28 26.27 369.28 44.49 369.28 62.71 373.72 62.66 378.13 62.58 378.21 44.41 378.26 26.27 373.77 26.27 369.28 26.27"/><path class="b" d="m431.74,46.55c10.33-.08,11.25-.11,11.67-.55.4-.37.5-1.03.55-3.57.11-3.72-.34-6.23-1.61-8.9-1.64-3.41-4.49-5.92-8.16-7.18-2.48-.85-6.65-1.06-9.24-.48-8.64,1.95-13.84,9.9-13.34,20.41.24,5.18,1.58,8.74,4.49,11.83,2.56,2.77,5.47,4.28,9.67,4.99,3.93.71,9.06.37,12.7-.82,2.83-.92,2.9-1.08,2.9-5.02,0-1.8-.08-3.27-.18-3.27-.13,0-1.16.32-2.3.66-2.96.95-7.02,1.37-9.59.98-4.62-.74-7.37-3.01-8.42-7.05-.21-.74-.37-1.45-.37-1.64,0-.21,2.9-.32,11.22-.4Zm-11.07-7.29c.82-3.25,3.09-5.62,6.1-6.39,1.4-.34,3.86-.11,5.04.5,1.87.95,3.35,3.17,3.67,5.44l.16,1.19h-15.13l.16-.74Z"/><path class="b" d="m376.81,12.01c-1.8-1.11-4.25-1.14-6.02-.03-2.01,1.24-2.69,4.78-1.37,7.05,1.45,2.46,5.62,3.04,7.76,1.08,2.24-2.06,2.06-6.6-.37-8.11Z"/><path class="b" d="m467.26,17.29c.77.13,1.48.18,1.61.11.13-.08.24-1.72.24-3.64,0-2.93-.08-3.59-.42-3.88-.5-.42-4.96-.58-6.58-.24-6.31,1.35-9.61,6.18-9.64,14.05v2.59h-5.02v7.39h5.02v29.05l4.44-.05,4.41-.08.08-14.47.05-14.45h7.16l-.08-3.64-.08-3.62-3.49-.08-3.51-.08v-2.09c0-5.41,1.88-7.61,5.81-6.87Z"/><path class="b" d="m495.44,77.79c.16.16,8.82-.37,9.24-.53.11-.05,5.92-13.92,8.13-19.41,4.99-12.41,11.65-30.84,11.33-31.35-.24-.4-8.48-.29-8.74.08-.11.18-2.06,5.97-4.33,12.86l-4.15,12.52-.55-1.95c-.69-2.38-7.05-21.68-7.55-22.9l-.37-.85h-4.75c-3.25,0-4.78.08-4.78.29,0,.37,4.07,10.83,9.27,23.77,2.3,5.76,4.2,10.72,4.2,10.99,0,.58-3.01,7.61-5.52,12.86-.9,1.87-1.53,3.51-1.43,3.62Z"/><path class="b" d="m482.44,54.84l-.08-22.34-.05-22.34h-9.01l.08,23.56c.08,23.53.08,23.58.66,24.98.85,2.06,1.74,3.09,3.43,3.93,1.43.69,1.74.74,4.57.71,1.66,0,3.35-.16,3.78-.32l.71-.32v-6.6h-1.29c-1,0-1.48-.16-2.06-.63l-.74-.63Z"/><path class="b" d="m129.42,14.17c-4.25-.05-5.49,0-5.57.26-.08.18-.18.98-.29,1.77-.08.82-3.43,10.75-7.95,23.53-4.25,12.17-7.76,22.31-7.76,22.55,0,.4.48.42,4.3.37l4.28-.08,2.11-6.26,2.11-6.29h17.72l2.09,5.99c1.14,3.33,2.19,6.18,2.32,6.34.18.26,1.48.34,4.83.34,2.54,0,4.6-.08,4.6-.21,0-.11-3.91-11.01-8.66-24.22l-8.64-24.03-5.49-.08Zm.05,27.68c-5.52,0-6.34-.05-6.21-.4.53-1.43,4.75-14.76,5.36-16.95.4-1.45.82-2.61.92-2.54.13.05.21.24.21.42,0,.16,1.37,4.54,3.04,9.69,1.66,5.18,3.04,9.48,3.04,9.59s-2.85.18-6.36.18Z"/><path class="b" d="m246.48,10.16h-8.98l.05,25.77.08,25.8,1.19.34c4.83,1.45,12.33,1.74,16.37.66,8.93-2.35,14.58-8.9,15.26-17.61.77-9.64-3.83-16.72-12.36-19.01-2.3-.63-7.95-.66-10.09-.05l-1.53.42V10.16Zm1,23.53c.53-.13,1.27-.32,1.64-.37,1.29-.21,3.09-.18,4.62.11,4.33.79,6.92,3.78,7.55,8.74.69,5.36-1.48,10.17-5.55,12.2-2.51,1.29-5.94,1.82-8.45,1.32l-.82-.18v-21.55l1-.26Z"/><path class="b" d="m216.85,25.9c-4.44-.92-8.9-.26-12.86,1.87-2.32,1.24-3.78,2.48-5.31,4.54-2.51,3.33-3.7,7.26-3.7,12.25,0,7.74,3.57,14.23,9.37,17.09,2.59,1.27,4.65,1.69,8.19,1.72,5.41,0,9.24-1.51,12.68-4.99,2.06-2.09,3.43-4.41,4.41-7.55.53-1.74.61-2.48.61-6.47-.03-4.38-.03-4.54-.9-7.05-2.14-6.23-6.44-10.17-12.49-11.41Zm2.59,26.09c-2.43,4.15-7.68,5.1-11.62,2.09-4.78-3.67-5.18-14.15-.69-18.72.58-.61,1.56-1.35,2.19-1.64,1.43-.71,4.3-.77,6.15-.13,1.82.61,4.07,2.9,4.81,4.89,1.61,4.33,1.27,9.93-.85,13.52Z"/><path class="b" d="m183.37,10.16h-4.49v15.45l-3.64.03c-5.07.03-8.27.9-12.12,3.33-3.7,2.32-6.97,7.13-7.9,11.57-.63,3.06-.4,8.45.53,11.28.87,2.72,2.88,5.76,4.83,7.34,1.8,1.48,5.15,3.09,7.53,3.67,5.2,1.27,13.57.4,18.93-1.98l1.16-.5-.18-1.64c-.08-.87-.16-12.17-.16-25.06V10.16h-4.49Zm-4.54,34.15l-.08,10.85-.92.21c-1.58.37-5.57.26-6.97-.16-2.9-.9-5.28-3.33-6.23-6.44-.63-2.01-.74-5.92-.26-7.76.98-3.54,3.38-6.07,7.05-7.32,1.56-.55,4.91-.74,6.65-.4l.82.18-.05,10.83Z"/><path class="b" d="m308.07,45.7c.48-.87.37-6.87-.13-8.87-1.53-5.84-5.52-9.77-11.14-10.96-2.75-.58-5.86-.48-8.58.29-5.68,1.61-9.88,6.29-11.67,13.05-.82,3.12-.82,8.4,0,11.49,1.72,6.31,5.68,10.35,11.86,12.07,1.74.48,2.75.58,6.42.55,4.57,0,6.81-.4,9.64-1.64l1.19-.53v-3.57c0-1.98-.08-3.59-.18-3.59-.13,0-1.14.32-2.3.66-4.54,1.45-9.85,1.48-12.99.03-2.59-1.19-4.75-4.12-5.07-6.92l-.13-1.16h9.37c11.38,0,13.31-.13,13.73-.9Zm-22.53-7.82c.98-2.59,3.14-4.52,5.6-4.99,2.51-.5,4.46-.13,6.15,1.16,1.16.9,2.54,3.54,2.54,4.94v1h-7.39c-8.32,0-7.76.16-6.89-2.11Z"/><path class="b" d="m29.44,54.89c.18.15.31.35.39.58.07-.22.2-.4.37-.55-.16-.19-.26-.42-.27-.69-.07.28-.24.51-.48.66Z"/><path class="b" d="m27.85,53.46c-.2.17-.45.28-.73.28-.42,0-.76-.24-.96-.57,0,.05.03.09.03.14,0,.22-.07.41-.16.59.13-.04.26-.08.41-.08.68,0,1.23.54,1.26,1.22.1-.12.22-.22.36-.29-.2-.2-.33-.48-.33-.79,0-.18.05-.34.12-.49Z"/><path class="b" d="m32.22,55.98c-.02.17-.07.33-.15.47.24.19.4.44.47.74.04-.15.1-.27.18-.39-.27-.18-.46-.47-.5-.82Z"/><path class="b" d="m29.7,56.49c.13.13.24.27.32.44.03-.07.08-.12.12-.18-.15-.14-.25-.32-.31-.52-.03.09-.07.18-.12.26Z"/><path class="b" d="m44.41,28.01c-.06.04-.12.09-.17.15.06-.04.12-.09.17-.15Z"/><path class="b" d="m47.12,28.32c-.02-.08-.05-.16-.05-.25s.03-.17.05-.25c-.17.38-.55.65-1,.65-.05,0-.09-.02-.13-.03.05.12.08.25.09.38.2-.31.53-.53.92-.53.04,0,.08.02.12.02Z"/><path class="b" d="m46.89,30.49c.03.1.06.19.06.29,0,0,0,.01,0,.02.11-.15.24-.28.41-.36-.11.04-.23.07-.35.07-.04,0-.07-.02-.11-.02Z"/><path class="b" d="m45.62,29.73c.08-.02.15-.05.23-.05.04,0,.07.02.1.02-.02-.08-.05-.17-.05-.26-.08.11-.17.21-.28.28Z"/><path class="b" d="m47.75,32.55c0,.05.03.1.03.15,0,.07-.03.13-.04.2.1-.16.23-.29.39-.39-.09.02-.18.06-.28.06-.04,0-.07-.02-.1-.02Z"/><path class="b" d="m29.37,52.96s.03.02.05.02c-.02,0-.03-.02-.05-.02Z"/><path class="b" d="m27.53,50.56h0s0,.02,0,.04c0-.01,0-.02,0-.04Z"/><path class="b" d="m27.11,43.31c.29.02.56.13.75.33.09-.1.2-.18.33-.24-.08.02-.15.05-.24.05h0c-.26,0-.49-.1-.68-.25-.05.05-.11.07-.17.11Z"/><path class="b" d="m33.44,38.66s0,.04,0,.05c0-.02,0-.04,0-.05Z"/><path class="b" d="m26.61,40.96s-.09.07-.14.1c.14,0,.28.03.41.08-.1-.04-.18-.11-.26-.18Z"/><path class="b" d="m26.58,51.65c-.06.01-.12.04-.18.04-.28,0-.53-.11-.73-.29-.09.3-.29.53-.55.69.39.06.71.29.9.62,0-.03-.02-.05-.02-.08,0-.42.24-.78.59-.97Z"/><path class="b" d="m27.56,41.22c-.06.01-.13.02-.19.02-.17,0-.33-.04-.47-.1.14.06.26.15.37.25.09-.07.19-.13.3-.17Z"/><path class="b" d="m27.05,56.17c.23.16.42.36.53.62.03-.06.07-.11.11-.16-.17-.21-.28-.46-.29-.74-.1.12-.21.21-.35.28Z"/><path class="b" d="m48.61,34.61s0,.01,0,.02c0,.3-.12.56-.3.77.05,0,.1.02.16.03.03-.38.26-.7.58-.87-.11.04-.22.07-.34.07-.03,0-.06-.02-.09-.02Z"/><path class="b" d="m67.52,0H14.53C6.51,0,0,6.51,0,14.53v50.94c0,8.02,6.51,14.53,14.53,14.53h52.99c8.02,0,14.53-6.51,14.53-14.53V14.53c0-8.02-6.51-14.53-14.53-14.53Zm-4.87,52.51c0,.41-.33.74-.74.74s-.74-.33-.74-.74.33-.74.74-.74.74.33.74.74Zm-7.22-.57c0,.45-.36.81-.81.81s-.81-.36-.81-.81.36-.81.81-.81.81.36.81.81Zm-.76-2.12c0-.46.38-.84.84-.84s.84.37.84.84-.38.84-.84.84-.84-.37-.84-.84Zm-.69,2.87c0,.45-.37.82-.82.82s-.82-.37-.82-.82.37-.82.82-.82.82.37.82.82Zm-.09,1.01c.43,0,.77.35.77.77s-.35.77-.77.77-.77-.35-.77-.77.35-.77.77-.77Zm.02,2.83c.4,0,.72.32.72.72s-.32.72-.72.72-.72-.32-.72-.72.32-.72.72-.72Zm.44-.41c0-.4.32-.72.72-.72s.72.32.72.72-.32.72-.72.72-.72-.32-.72-.72Zm1.06-1.5c-.42,0-.76-.34-.76-.76s.34-.76.76-.76.76.34.76.76-.34.76-.76.76Zm.15-2.77c0-.44.36-.79.79-.79s.79.36.79.79-.36.79-.79.79-.79-.36-.79-.79Zm2.72-1.99c0-.44.36-.8.8-.8s.8.36.8.8-.36.8-.8.8-.8-.36-.8-.8Zm.66,2.07c0,.43-.35.78-.78.78s-.78-.35-.78-.78.35-.78.78-.78.78.35.78.78Zm-.83-3.53c-.46,0-.83-.37-.83-.83s.37-.83.83-.83.83.37.83.83-.37.83-.83.83Zm-.04,1.36c0,.45-.37.82-.82.82s-.82-.37-.82-.82.37-.82.82-.82.82.37.82.82Zm-.87,3.39c.41,0,.75.34.75.75s-.34.75-.75.75-.75-.34-.75-.75.34-.75.75-.75Zm1.06,2.12c.39,0,.71.32.71.71s-.32.71-.71.71-.71-.32-.71-.71.32-.71.71-.71Zm0-1.14c0-.41.33-.74.74-.74s.74.33.74.74-.33.74-.74.74-.74-.33-.74-.74Zm1.02-1.97c0-.42.34-.76.76-.76s.76.34.76.76-.34.76-.76.76-.76-.34-.76-.76Zm1.36,1.68c.4,0,.73.32.73.73s-.32.72-.73.72-.73-.32-.73-.72.32-.73.73-.73Zm1.07-3.77c0,.43-.35.77-.77.77s-.77-.35-.77-.77.35-.77.77-.77.77.35.77.77Zm-.99-2.42c0,.44-.36.8-.8.8s-.8-.36-.8-.8.36-.8.8-.8.8.36.8.8Zm-.99-2.42c0,.46-.37.84-.84.84s-.84-.37-.84-.84.37-.84.84-.84.84.37.84.84Zm-13.29-26.83c.59,0,1.07.48,1.07,1.07s-.48,1.07-1.07,1.07c-.16,0-.32-.04-.46-.11.12.17.2.37.2.59,0,.6-.49,1.09-1.09,1.09-.15,0-.3-.03-.43-.09.17.19.28.43.28.7,0,.59-.48,1.08-1.08,1.08s-1.08-.48-1.08-1.08.48-1.08,1.08-1.08c.15,0,.29.03.42.09-.17-.19-.28-.44-.28-.71,0-.6.49-1.09,1.09-1.09h0c.17,0,.32.05.47.12-.11-.17-.2-.36-.2-.58,0-.59.48-1.07,1.07-1.07Zm-3.14,33.3c0-.33.27-.6.6-.6s.6.27.6.6-.27.6-.6.6-.6-.27-.6-.6Zm.08.64c0,.37-.3.67-.67.67s-.67-.3-.67-.67.3-.67.67-.67.67.3.67.67Zm-.19-1.58c-.32,0-.58-.26-.58-.58s.26-.58.58-.58.58.26.58.58-.26.58-.58.58Zm-1.11-1.27c-.31,0-.56-.25-.56-.56s.25-.56.56-.56.56.25.56.56-.25.56-.56.56Zm-.22.56c.39,0,.71.32.71.71s-.32.71-.71.71-.71-.32-.71-.71.32-.71.71-.71Zm-10.21-.28c.47,0,.86.39.86.86s-.39.86-.86.86-.86-.39-.86-.86.39-.86.86-.86Zm-1.26.32c-.47,0-.86-.38-.86-.86s.38-.86.86-.86.86.38.86.86-.38.86-.86.86Zm1.9-1.27c-.41,0-.75-.33-.75-.75s.33-.75.75-.75.75.33.75.75-.33.75-.75.75Zm1.32-.37c.41,0,.75.33.75.75s-.33.75-.75.75-.75-.33-.75-.75.33-.75.75-.75Zm.63-.92c-.3,0-.54-.24-.54-.54s.24-.54.54-.54.54.24.54.54-.24.54-.54.54Zm.62-2.13c0,.3-.24.54-.54.54s-.54-.24-.54-.54.24-.54.54-.54.54.24.54.54Zm-.41-1.53c0-.3.25-.55.55-.55s.55.24.55.55-.25.55-.55.55-.55-.24-.55-.55Zm.95,4.63c.41,0,.75.33.75.75s-.33.75-.75.75-.75-.33-.75-.75.33-.75.75-.75Zm.29-.36c-.3,0-.54-.24-.54-.54s.24-.54.54-.54.54.24.54.54-.24.54-.54.54Zm-.02-5.24c-.31,0-.56-.25-.56-.56s.25-.57.56-.57.56.25.56.57-.25.56-.56.56Zm4.94-19.61c.57,0,1.02.46,1.02,1.02s-.46,1.02-1.02,1.02-1.02-.46-1.02-1.02.46-1.02,1.02-1.02Zm-1.36.17c-.59,0-1.06-.48-1.06-1.06s.48-1.06,1.06-1.06,1.06.48,1.06,1.06-.48,1.06-1.06,1.06Zm1.26-1.29c0-.59.48-1.07,1.07-1.07s1.07.48,1.07,1.07-.48,1.07-1.07,1.07-1.07-.48-1.07-1.07Zm-.85,3.51c.52,0,.95.42.95.95s-.42.95-.95.95-.95-.42-.95-.95.42-.95.95-.95Zm.17,2.21c.48,0,.87.39.87.87s-.39.87-.87.87-.87-.39-.87-.87.39-.87.87-.87Zm-.78,19.21c.3,0,.54.24.54.54s-.24.54-.54.54-.54-.24-.54-.54.24-.54.54-.54Zm-.64-10.24c-.35,0-.63-.28-.63-.63s.28-.63.63-.63.63.28.63.63-.28.63-.63.63Zm.68-1.51c-.36,0-.65-.29-.65-.65s.29-.65.65-.65.65.29.65.65-.29.65-.65.65Zm.11-2.12c0-.37.3-.67.67-.67s.67.3.67.67-.3.67-.67.67-.67-.3-.67-.67Zm1.46,14.3c.3,0,.54.24.54.54s-.24.54-.54.54-.54-.24-.54-.54.24-.54.54-.54Zm-.14-15.99c-.43,0-.77-.35-.77-.77s.35-.77.77-.77.77.35.77.77-.35.77-.77.77Zm-.82.05c0,.41-.33.74-.74.74s-.74-.33-.74-.74.33-.74.74-.74.74.33.74.74Zm-.83,1.6c0,.4-.33.73-.73.73s-.73-.33-.73-.73.33-.73.73-.73.73.33.73.73Zm-1.45.92c.4,0,.72.32.72.72s-.32.72-.72.72-.72-.32-.72-.72.32-.72.72-.72Zm-.72,1.66c.39,0,.71.32.71.71s-.32.71-.71.71-.71-.32-.71-.71.32-.71.71-.71Zm.34,4.13c-.33,0-.6-.27-.6-.6s.27-.6.6-.6.6.27.6.6-.27.6-.6.6Zm.87,7.71c0,.3-.24.54-.54.54s-.54-.24-.54-.54.24-.54.54-.54.54.24.54.54Zm-1.21-9.48c0,.39-.32.71-.71.71s-.71-.32-.71-.71.32-.71.71-.71.71.32.71.71Zm-.71,1.65c0,.4-.32.72-.72.72s-.72-.32-.72-.72.32-.72.72-.72.72.32.72.72Zm-.21,1.05c0-.32.26-.58.58-.58s.58.26.58.58-.26.58-.58.58-.58-.26-.58-.58Zm1.42,7.69c.41,0,.74.33.74.74s-.33.74-.74.74-.74-.33-.74-.74.33-.74.74-.74Zm.19,1.59c.44,0,.8.36.8.8s-.36.8-.8.8-.8-.36-.8-.8.36-.8.8-.8Zm.33-11.72c-.34,0-.62-.28-.62-.62s.28-.62.62-.62.62.28.62.62-.28.62-.62.62Zm1.28,10.18c.4,0,.72.32.72.72s-.32.72-.72.72-.72-.32-.72-.72.32-.72.72-.72Zm.32,1.62c.42,0,.76.34.76.76s-.34.76-.76.76-.76-.34-.76-.76.34-.76.76-.76Zm.64,2.63c.47,0,.85.38.85.85s-.38.85-.85.85-.85-.38-.85-.85.38-.85.85-.85Zm.69-.07c-.44,0-.8-.36-.8-.8s.36-.8.8-.8.8.36.8.8-.36.8-.8.8Zm.11-2.43c-.38,0-.69-.31-.69-.69s.31-.69.69-.69.69.31.69.69-.31.69-.69.69Zm.65-16.5c-.39,0-.7-.31-.7-.7s.31-.7.7-.7.7.31.7.7-.31.7-.7.7Zm-.04-2.58c0-.47.38-.84.84-.84s.84.38.84.84-.38.84-.84.84-.84-.38-.84-.84Zm.36-1.59c-.51,0-.92-.41-.92-.92s.41-.92.92-.92.92.41.92.92-.41.92-.92.92Zm0-2.12c-.54,0-.99-.44-.99-.99s.44-.99.99-.99.99.44.99.99-.44.99-.99.99Zm.02-2.92c0-.58.47-1.05,1.05-1.05s1.05.47,1.05,1.05-.47,1.05-1.05,1.05-1.05-.47-1.05-1.05Zm2.34-7.37c.6,0,1.09.49,1.09,1.09s-.49,1.09-1.09,1.09-1.09-.49-1.09-1.09.49-1.09,1.09-1.09Zm-.23,2.95c0,.61-.49,1.1-1.1,1.1s-1.1-.49-1.1-1.1.49-1.1,1.1-1.1,1.1.49,1.1,1.1Zm-2.34-3.42c.61,0,1.11.5,1.11,1.11s-.5,1.11-1.11,1.11-1.11-.5-1.11-1.11.5-1.11,1.11-1.11Zm-.13,3.31c0,.61-.49,1.1-1.1,1.1s-1.1-.49-1.1-1.1.49-1.1,1.1-1.1,1.1.49,1.1,1.1Zm-2.47-3.04c.63,0,1.13.51,1.13,1.13s-.51,1.13-1.13,1.13-1.13-.51-1.13-1.13.51-1.13,1.13-1.13Zm-2.41.99c.64,0,1.15.52,1.15,1.15,0,.18-.05.35-.13.5.11-.04.22-.07.35-.07.61,0,1.11.5,1.11,1.11s-.5,1.11-1.11,1.11-1.11-.5-1.11-1.11c0-.17.04-.32.11-.46-.12.04-.24.07-.37.07-.64,0-1.15-.52-1.15-1.15s.52-1.15,1.15-1.15Zm-2.04,1.62c.65,0,1.17.53,1.17,1.17,0,.06-.02.1-.03.16.06-.01.11-.04.18-.04.62,0,1.12.5,1.12,1.12,0,.12-.03.24-.07.35.09-.03.19-.06.29-.06.58,0,1.06.47,1.06,1.05,0,.27-.11.51-.28.7.17-.12.36-.21.58-.21.55,0,1,.45,1,1s-.45,1-1,1-1-.45-1-1c0-.26.1-.48.26-.66-.18.13-.38.22-.62.22-.58,0-1.06-.47-1.06-1.06,0-.11.03-.2.06-.3-.11.04-.22.07-.34.07-.62,0-1.12-.5-1.12-1.12,0-.04.02-.07.02-.11-.08.02-.15.05-.23.05h0c-.65,0-1.17-.53-1.17-1.17s.53-1.17,1.17-1.17Zm-1.49,2.13c.62,0,1.12.48,1.17,1.09.02,0,.03-.01.05-.01.62,0,1.12.5,1.12,1.12,0,.02,0,.03,0,.05.05,0,.09-.03.13-.03.58,0,1.05.47,1.05,1.05,0,.09-.03.16-.05.24.09-.03.17-.05.27-.05.54,0,.98.44.98.98,0,.23-.09.44-.23.61.12-.06.25-.1.39-.1.5,0,.91.41.91.91s-.41.91-.91.91-.91-.41-.91-.91c0-.21.09-.4.21-.56-.13.07-.28.12-.44.12-.54,0-.98-.44-.98-.98,0-.07.02-.12.04-.18-.1.04-.21.07-.33.07-.57,0-1.04-.46-1.04-1.04-.07.01-.13.04-.2.04-.56,0-1.01-.42-1.09-.96-.05,0-.09.03-.13.03-.66,0-1.19-.54-1.19-1.19s.54-1.19,1.19-1.19Zm-1.03,2.39c.58,0,1.04.41,1.16.95.02,0,.04-.01.06-.01.58,0,1.04.44,1.11,1,.03,0,.06-.02.1-.02.58,0,1.05.47,1.05,1.05,0,0,0,0,0,0,.05,0,.09-.03.13-.03.54,0,.97.44.97.97,0,.13-.03.25-.07.36.06-.01.11-.04.17-.04.49,0,.89.4.89.89,0,.05-.02.09-.03.13.13-.27.4-.45.72-.45.45,0,.82.37.82.82s-.37.82-.82.82-.82-.37-.82-.82c0-.04.02-.07.02-.1-.15.29-.44.5-.79.5-.49,0-.89-.4-.89-.89,0-.1.03-.2.06-.29-.08.02-.15.05-.24.05-.52,0-.93-.41-.96-.91-.07.02-.15.05-.23.05-.51,0-.92-.37-1.01-.85-.07.01-.13.04-.19.04-.51,0-.93-.34-1.07-.81-.05,0-.1.03-.15.03h0,0c-.67,0-1.21-.54-1.21-1.21s.54-1.22,1.21-1.22Zm-1.02,2.4c.54,0,.99.35,1.16.84.04,0,.07-.02.11-.02.54,0,.98.38,1.1.88.05,0,.1-.03.16-.03.54,0,.98.41,1.04.94.07-.01.13-.04.2-.04.54,0,.98.44.98.98,0,.08-.03.16-.05.23.06-.01.12-.04.18-.04.41,0,.75.29.85.67.15-.19.37-.32.63-.32.45,0,.81.36.81.81s-.36.81-.81.81c-.36,0-.65-.24-.76-.56-.16.23-.42.39-.72.39-.5,0-.9-.4-.9-.9,0-.06.02-.11.03-.17-.08.02-.16.05-.25.05-.48,0-.85-.34-.94-.79-.09.03-.19.06-.29.06-.47,0-.86-.31-1-.73-.09.02-.17.05-.26.05-.47,0-.88-.29-1.06-.69-.07.01-.14.04-.21.04h0c-.68,0-1.24-.55-1.24-1.24s.55-1.24,1.24-1.24Zm-1.02,2.4c.51,0,.93.3,1.13.73.06-.01.12-.04.18-.04.5,0,.92.32,1.09.77.07-.02.14-.04.22-.04.51,0,.91.36,1.03.83.08-.02.17-.05.26-.05.55,0,.99.44.99.99,0,.04-.02.07-.02.11.06-.01.12-.04.19-.04.4,0,.73.26.85.62.14-.24.39-.41.69-.41.45,0,.81.36.81.81s-.36.81-.81.81c-.34,0-.62-.21-.75-.5-.15.29-.45.49-.79.49-.5,0-.91-.41-.91-.91,0-.01,0-.02,0-.04-.09.02-.17.05-.26.05-.43,0-.79-.28-.93-.67-.11.04-.23.07-.36.07-.43,0-.79-.25-.97-.62-.11.03-.22.07-.34.07-.43,0-.79-.24-.99-.59-.11.03-.21.07-.32.07h0c-.69,0-1.26-.56-1.26-1.26s.56-1.26,1.26-1.26Zm-1.02,2.4c.47,0,.85.26,1.08.63.09-.02.19-.06.29-.06.46,0,.86.27,1.05.66.1-.03.2-.06.3-.06.47,0,.86.3,1.02.71.1-.04.21-.07.32-.07.55,0,.99.44,1,.98.07-.02.14-.04.21-.04.39,0,.72.25.85.59.12-.3.4-.51.75-.51.44,0,.8.36.8.8s-.36.8-.8.8c-.33,0-.61-.2-.74-.48-.12.37-.45.63-.86.63-.48,0-.85-.37-.9-.83-.1.03-.2.06-.31.06-.39,0-.73-.23-.89-.56-.14.06-.29.1-.45.1-.38,0-.71-.21-.9-.51-.14.06-.29.09-.46.09-.39,0-.72-.2-.93-.49-.14.05-.28.09-.43.09h0c-.7,0-1.28-.57-1.28-1.28s.57-1.28,1.28-1.28Zm-1.02,2.4c.43,0,.78.22,1.02.53.12-.04.25-.08.39-.08.42,0,.78.23.99.56.13-.05.27-.08.41-.08.43,0,.79.25.97.61.13-.06.27-.09.41-.09.51,0,.92.39.99.88.09-.03.17-.05.27-.05.41,0,.75.28.87.65.05-.4.37-.71.78-.71.44,0,.8.36.8.8s-.36.8-.8.8c-.35,0-.63-.22-.74-.53-.05.47-.43.83-.91.83-.44,0-.79-.31-.88-.72-.12.05-.24.08-.37.08-.36,0-.67-.2-.85-.49-.16.09-.34.16-.54.16-.35,0-.65-.18-.86-.43-.17.09-.35.15-.55.15-.35,0-.66-.15-.88-.39-.16.07-.34.12-.53.12-.72,0-1.3-.58-1.3-1.3s.58-1.3,1.3-1.3Zm9.05,26.72c-.63,0-1.13-.45-1.27-1.04-.13.64-.68,1.14-1.36,1.14-.56,0-1.02-.33-1.26-.79-.24.52-.76.89-1.37.89-.56,0-1.03-.32-1.29-.77-.26.48-.75.81-1.34.81s-1.04-.32-1.31-.77c-.27.46-.75.78-1.32.78-.66,0-1.22-.42-1.44-1.01-.28.28-.67.45-1.1.45-.86,0-1.56-.7-1.56-1.56,0-.07.03-.12.04-.19-.16.06-.32.1-.5.1-.85,0-1.55-.69-1.55-1.55,0-.33.13-.63.31-.88-.76-.07-1.37-.69-1.37-1.48,0-.6.35-1.1.86-1.35-.44-.25-.76-.71-.76-1.25,0-.79.63-1.42,1.41-1.45-.25-.26-.41-.6-.41-.99,0-.78.63-1.42,1.42-1.42.02,0,.04.01.07.01-.27-.26-.45-.61-.45-1.02,0-.77.63-1.4,1.4-1.4.06,0,.11.03.16.03-.31-.25-.52-.62-.52-1.05,0-.76.62-1.38,1.38-1.38.09,0,.17.03.25.05-.35-.25-.6-.63-.6-1.09,0-.75.61-1.36,1.36-1.36.12,0,.23.04.35.07-.39-.23-.67-.64-.67-1.13,0-.74.6-1.34,1.34-1.34.16,0,.3.04.44.09-.44-.21-.74-.65-.74-1.17,0-.73.59-1.32,1.32-1.32.39,0,.73.17.97.44.15-.07.32-.11.49-.11.39,0,.73.2.95.48.15-.08.32-.13.51-.13.4,0,.74.22.94.54.15-.09.32-.15.5-.15.48,0,.86.33.97.77.1-.04.21-.07.33-.07.45,0,.82.31.91.73,0-.04-.01-.08-.01-.12,0-.45.36-.81.81-.81s.81.36.81.81-.36.81-.81.81c-.39,0-.71-.27-.79-.63,0,.05.02.1.02.15,0,.27-.12.51-.31.68.1-.04.21-.06.32-.06.45,0,.82.37.82.82,0,.22-.09.43-.24.57.13-.12.3-.19.49-.19.4,0,.73.33.73.73s-.33.73-.73.73-.73-.33-.73-.73c0-.2.08-.38.21-.51-.15.13-.34.22-.55.22-.45,0-.82-.37-.82-.82,0-.23.09-.43.24-.58-.11.05-.23.07-.36.07-.4,0-.74-.26-.87-.62-.13.06-.28.1-.43.1-.33,0-.62-.17-.8-.42-.18.13-.39.22-.64.22-.32,0-.61-.14-.82-.36-.19.12-.4.21-.64.21-.32,0-.61-.13-.82-.33-.19.11-.4.19-.64.19-.15,0-.3-.04-.43-.09.13.06.24.14.34.23.18-.1.37-.16.58-.16.36,0,.68.16.91.42.18-.11.37-.19.59-.19.37,0,.69.19.9.47.17-.12.37-.21.59-.21.44,0,.82.28.96.67.12-.05.25-.09.38-.09.52,0,.94.42.94.94,0,.19-.07.36-.17.51.07-.02.15-.05.23-.05.46,0,.83.37.83.83,0,.13-.04.26-.09.37.11-.07.24-.12.38-.12.41,0,.74.33.74.74s-.33.74-.74.74-.74-.33-.74-.74c0-.11.03-.21.07-.3-.13.08-.27.14-.44.14-.46,0-.83-.37-.83-.83,0-.15.05-.29.13-.42-.09.03-.19.06-.29.06-.37,0-.69-.22-.84-.54-.15.09-.32.15-.51.15-.3,0-.57-.13-.76-.34-.2.17-.45.28-.73.28s-.55-.12-.75-.3c-.1.08-.21.15-.33.2.06,0,.11-.02.17-.02.34,0,.64.16.86.4.18-.16.42-.27.69-.27.42,0,.77.25.94.6.14-.08.29-.13.45-.13.52,0,.95.42.95.95,0,.12-.03.23-.07.34.06-.01.11-.04.17-.04.47,0,.85.38.85.85,0,.08-.02.15-.05.23.11-.06.23-.11.36-.11.41,0,.75.33.75.75s-.33.75-.75.75-.75-.33-.75-.75c0-.06.02-.12.03-.17-.13.09-.28.15-.45.15-.47,0-.85-.38-.85-.85,0-.09.03-.17.05-.26-.08.02-.17.05-.26.05-.35,0-.64-.2-.8-.47-.17.12-.37.21-.59.21-.28,0-.52-.11-.71-.29-.1.11-.22.19-.36.26.07-.01.13-.04.2-.04.39,0,.72.22.9.54.16-.11.33-.19.54-.19.53,0,.95.43.95.95,0,.07-.02.13-.04.19.06-.01.12-.04.19-.04.47,0,.85.38.85.85,0,.04-.02.08-.02.12.11-.07.24-.12.38-.12.41,0,.75.33.75.75s-.33.75-.75.75-.75-.33-.75-.75c0-.02,0-.04.01-.06-.14.09-.29.16-.47.16-.47,0-.85-.38-.85-.85,0-.04.02-.07.02-.11-.09.03-.18.06-.28.06-.32,0-.59-.17-.76-.41-.19.16-.42.26-.68.26s-.49-.1-.68-.26c-.05.06-.09.12-.14.17.34.01.63.2.82.46.17-.14.38-.24.62-.24.54,0,.97.44.97.97,0,.02,0,.03,0,.04.07-.02.13-.04.2-.04.47,0,.85.38.85.85s-.38.85-.85.85-.82-.36-.84-.8c-.1.04-.21.06-.32.06-.29,0-.54-.13-.72-.34-.19.2-.47.32-.76.32-.25,0-.47-.1-.65-.24-.03.04-.05.08-.08.12.29.04.53.18.71.39.18-.18.43-.3.71-.3.55,0,.99.44.99.99s-.44.99-.99.99c-.28,0-.53-.12-.71-.31-.2.24-.5.41-.84.41l.62,1.02s0-.04,0-.07c0-.55.45-1,1-1s1,.45,1,1-.45,1-1,1c-.51,0-.93-.39-.99-.89-.01.41-.25.75-.58.93.06-.01.12-.04.19-.04.62,0,1.13.51,1.13,1.13,0,.18-.05.34-.13.5.2-.17.45-.28.73-.28.19,0,.36.05.52.13-.33-.16-.56-.5-.56-.89,0-.55.45-1,1-1s1,.45,1,1-.45,1-1,1c-.14,0-.27-.03-.39-.08.32.19.55.54.56.94.12-.47.52-.81,1.02-.83-.1-.16-.18-.33-.18-.54,0-.55.44-.99.99-.99s.99.44.99.99c0,.51-.39.92-.89.97.15.19.25.42.25.68,0,.29-.12.55-.3.75.2.2.32.47.36.76.03-.29.16-.54.36-.72-.23-.19-.38-.47-.38-.8,0-.55.43-.99.97-1.04-.14-.17-.23-.37-.23-.6,0-.35.2-.64.47-.81-.41-.07-.73-.41-.73-.84,0-.48.39-.86.86-.86s.86.39.86.86c0,.3-.16.55-.4.71.47.06.85.45.85.94s-.36.86-.82.93c.18.19.29.44.29.72s-.11.54-.3.73c.29.21.49.54.49.92,0,.21-.07.4-.17.57.38.22.65.61.65,1.08,0,.13-.04.26-.08.38.13.06.25.14.35.24-.12-.18-.21-.39-.21-.62,0-.25.09-.46.23-.65-.39-.16-.67-.54-.67-1,0-.32.15-.6.37-.8-.3-.17-.51-.48-.51-.85,0-.52.4-.93.91-.98-.19-.17-.32-.4-.32-.67,0-.37.22-.69.54-.83-.05,0-.09.03-.14.03-.47,0-.85-.38-.85-.85s.38-.85.85-.85.85.38.85.85c0,.35-.21.64-.51.77.05-.01.1-.03.16-.03.5,0,.91.41.91.91,0,.46-.35.83-.8.88.23.18.38.45.38.76,0,.27-.11.52-.29.7.35.18.6.53.6.95,0,.21-.08.4-.18.56.46.15.79.58.79,1.09,0,.14-.03.28-.08.4.55.16.96.65.96,1.25,0,.73-.59,1.32-1.32,1.32Zm2.62-.26c-.66,0-1.19-.53-1.19-1.19,0-.19.05-.36.13-.52-.48-.1-.84-.51-.84-1.02,0-.26.11-.49.26-.68-.48-.07-.86-.46-.86-.97,0-.32.16-.59.4-.77-.4-.1-.7-.45-.7-.88,0-.5.4-.91.9-.92-.26-.15-.44-.41-.44-.73,0-.47.38-.85.85-.85s.85.38.85.85-.36.82-.82.84c.29.15.5.45.5.81,0,.29-.14.53-.34.7.44.1.78.48.78.95,0,.23-.09.43-.22.6.54.05.96.49.96,1.04,0,.13-.03.26-.08.38h0c.59.07,1.05.56,1.05,1.16,0,.66-.53,1.19-1.19,1.19Zm2.36-1.25c-.57,0-1.04-.46-1.04-1.04,0-.01,0-.02,0-.04-.4-.12-.7-.47-.7-.91,0-.26.1-.48.27-.66-.07.02-.14.04-.22.04-.5,0-.91-.41-.91-.91s.41-.91.91-.91.91.41.91.91c0,.24-.1.45-.24.61.08-.02.16-.05.25-.05.51,0,.92.4.95.91h0c.48.09.85.49.85,1,0,.57-.46,1.04-1.04,1.04Zm1.64-2.22c-.46,0-.84-.38-.84-.84,0-.1.02-.19.06-.28-.12.08-.27.14-.43.14-.43,0-.78-.35-.78-.78,0-.31.18-.57.44-.7-.05,0-.09.01-.14.01-.42,0-.75-.34-.75-.75s.34-.75.75-.75.75.34.75.75c0,.3-.17.55-.42.67.05,0,.1-.02.15-.02.43,0,.78.35.78.78,0,.09-.02.17-.05.25.14-.1.3-.17.48-.17h0c.46,0,.84.38.84.84s-.38.84-.84.84Zm.62-2.54c-.34,0-.62-.28-.62-.62s.28-.62.62-.62.62.28.62.62-.28.62-.62.62Zm9.85,4.6c0,.46-.38.84-.84.84s-.84-.38-.84-.84c0-.12.02-.23.07-.33-.14.08-.29.14-.47.14-.52,0-.94-.42-.94-.94,0-.16.05-.31.13-.44-.02,0-.04.01-.06.01-.55,0-1-.45-1-1,0-.2.07-.38.18-.53-.49-.09-.87-.5-.87-1.02,0-.18.06-.34.14-.49-.47-.13-.83-.54-.83-1.06,0-.17.04-.32.11-.47-.45-.16-.79-.58-.79-1.09,0-.16.03-.32.09-.46-.44-.17-.75-.6-.75-1.1,0-.16.03-.3.09-.44-.44-.18-.74-.61-.74-1.11,0-.15.04-.29.09-.43-.43-.19-.74-.62-.74-1.12,0-.15.04-.29.08-.42-.43-.2-.74-.63-.74-1.13,0-.15.04-.28.08-.41-.43-.2-.73-.63-.73-1.14,0-.16.04-.31.09-.45-.41-.2-.7-.62-.7-1.11,0-.18.04-.35.11-.5-.4-.19-.67-.59-.67-1.05,0-.21.07-.39.16-.56-.4-.16-.68-.54-.68-.99,0-.24.09-.45.23-.63-.43-.1-.75-.46-.75-.92,0-.28.13-.53.32-.71-.46,0-.84-.38-.84-.85s.38-.85.85-.85c.31,0,.57.17.72.42.05-.12.12-.23.2-.33-.39-.04-.7-.29-.83-.64-.07.34-.36.6-.72.6-.42,0-.75-.34-.75-.75s.34-.75.75-.75c.31,0,.57.18.69.45.04-.26.17-.48.37-.63-.03,0-.06.02-.09.02-.51,0-.91-.41-.91-.91s.41-.91.91-.91c.1,0,.19.03.28.06-.1-.16-.16-.33-.16-.53,0-.28.11-.54.3-.72-.07.02-.15.05-.23.05-.54,0-.98-.44-.98-.98s.44-.98.98-.98c.22,0,.41.09.58.21,0,0,0-.02,0-.03,0-.28.11-.52.28-.71-.17.12-.37.19-.59.19-.57,0-1.03-.46-1.03-1.03s.46-1.03,1.03-1.03c.1,0,.19.03.28.06-.16-.19-.27-.43-.27-.69,0-.59.48-1.07,1.07-1.07.07,0,.14.03.21.04-.12-.17-.2-.37-.2-.6,0-.6.49-1.08,1.08-1.08.08,0,.15.03.23.05-.05-.13-.09-.27-.09-.42,0-.6.48-1.08,1.08-1.08.11,0,.22.03.32.06-.03-.1-.06-.19-.06-.3,0-.58.47-1.05,1.05-1.05s1.05.47,1.05,1.05-.47,1.05-1.05,1.05c-.1,0-.2-.03-.3-.06.03.1.07.21.07.32,0,.6-.48,1.08-1.08,1.08-.08,0-.15-.03-.23-.05.06.13.09.27.09.42,0,.6-.49,1.08-1.08,1.08-.08,0-.14-.03-.22-.04.12.17.2.37.2.59,0,.59-.48,1.07-1.07,1.07-.11,0-.21-.03-.31-.06.15.18.25.4.25.65,0,.26-.1.5-.27.69.17-.13.39-.2.62-.2.04,0,.08.02.12.02-.07-.14-.11-.29-.11-.46,0-.6.49-1.09,1.09-1.09.04,0,.07.02.1.02-.05-.12-.08-.26-.08-.4,0-.6.49-1.09,1.09-1.09.06,0,.11.02.17.04-.02-.07-.05-.15-.05-.23,0-.59.48-1.08,1.08-1.08.09,0,.17.03.25.05,0-.03-.02-.06-.02-.1,0-.57.46-1.03,1.03-1.03s1.03.46,1.03,1.03-.46,1.03-1.03,1.03c-.08,0-.14-.03-.22-.04,0,.05.03.09.03.13,0,.59-.48,1.08-1.08,1.08-.06,0-.11-.02-.16-.03.02.08.05.15.05.24,0,.6-.49,1.09-1.09,1.09-.04,0-.07-.02-.1-.02.05.12.08.26.08.4,0,.09-.03.17-.05.25.17-.39.55-.66,1-.66.07,0,.13.03.2.04,0-.03-.02-.06-.02-.09,0-.59.48-1.07,1.07-1.07.11,0,.2.03.3.06,0-.55.45-1,1.01-1s1.01.45,1.01,1.01-.45,1.01-1.01,1.01c-.09,0-.17-.03-.25-.05,0,.01,0,.02,0,.04,0,.59-.48,1.07-1.07,1.07-.06,0-.11-.02-.17-.03,0,.04.02.07.02.12,0,.61-.49,1.1-1.1,1.1-.04,0-.07-.02-.11-.02.02.09.05.17.05.26,0,.43-.26.8-.62.98.11-.04.23-.07.36-.07.05,0,.09.02.14.03,0-.04-.02-.07-.02-.11,0-.61.5-1.11,1.11-1.11.09,0,.17.03.26.05.02-.57.48-1.02,1.05-1.02.14,0,.27.03.39.08.05-.5.46-.9.97-.9.55,0,.99.44.99.99s-.44.99-.99.99c-.11,0-.22-.03-.32-.07-.03.56-.48,1.01-1.05,1.01-.07,0-.13-.03-.2-.04,0,0,0,0,0,0,0,.61-.5,1.11-1.11,1.11-.04,0-.08-.02-.12-.02,0,.04.03.08.03.13,0,.41-.23.76-.56.96.09-.02.18-.06.28-.06.07,0,.14.03.2.04.01-.59.49-1.06,1.08-1.06.13,0,.24.03.36.07.06-.51.48-.92,1.01-.92.18,0,.33.06.48.13.07-.47.46-.83.94-.83.54,0,.97.44.97.97s-.44.97-.97.97c-.15,0-.29-.04-.42-.1-.06.51-.48.92-1.01.92-.1,0-.2-.03-.29-.06-.04.56-.5,1.01-1.07,1.01-.05,0-.1-.02-.15-.03,0,0,0,.02,0,.03,0,.44-.26.81-.62,1,.11-.03.21-.07.33-.07.11,0,.21.03.31.06.05-.54.49-.96,1.04-.96.16,0,.31.04.45.11.08-.47.48-.83.97-.83.21,0,.4.08.56.19.08-.44.45-.78.92-.78.53,0,.95.43.95.95s-.43.95-.95.95c-.19,0-.36-.07-.5-.16-.07.48-.47.86-.97.86-.14,0-.27-.03-.39-.08-.08.51-.5.9-1.02.9-.09,0-.17-.03-.25-.05-.03.59-.5,1.05-1.1,1.05-.05,0-.1-.02-.15-.03-.01.29-.13.55-.31.74.1,0,.19.03.27.05.08-.51.5-.9,1.04-.9.15,0,.28.03.41.08.08-.48.48-.86.99-.86.2,0,.38.07.54.17.1-.44.47-.78.94-.78.25,0,.47.1.64.25.1-.41.45-.72.89-.72.51,0,.93.42.93.93s-.42.93-.93.93c-.23,0-.43-.09-.59-.23-.09.45-.47.79-.94.79-.18,0-.34-.06-.49-.15-.09.48-.49.84-.99.84-.13,0-.24-.03-.36-.07-.07.53-.5.94-1.04.94-.09,0-.16-.03-.25-.05-.03.27-.13.52-.32.7.15,0,.29.03.42.09.11-.45.5-.8.99-.8.19,0,.35.06.5.15.09-.46.47-.8.95-.8.24,0,.45.1.63.24.1-.41.46-.72.91-.72.29,0,.54.14.72.35.1-.4.44-.7.87-.7.5,0,.91.41.91.91s-.41.91-.91.91c-.27,0-.51-.12-.68-.31-.09.43-.46.75-.91.75-.22,0-.42-.09-.58-.22-.1.44-.48.78-.95.78-.17,0-.32-.05-.46-.13-.08.49-.49.86-1,.86-.12,0-.23-.03-.34-.07-.05.3-.2.54-.44.71.05,0,.1-.03.15-.03.19,0,.37.07.52.16.11-.43.48-.76.95-.76.23,0,.43.09.6.22.1-.43.46-.75.92-.75.29,0,.53.13.71.33.11-.39.45-.69.88-.69.34,0,.63.19.79.47.09-.4.43-.71.86-.71.49,0,.89.4.89.89s-.4.89-.89.89c-.32,0-.59-.18-.75-.44-.08.43-.44.75-.89.75-.27,0-.51-.12-.68-.3-.11.42-.47.73-.92.73-.21,0-.4-.08-.56-.2-.09.45-.48.8-.96.8-.16,0-.31-.05-.45-.12-.1.49-.51.86-1.03.86-.04,0-.08-.02-.12-.02.05.11.07.24.07.36.18-.29.48-.49.85-.49.23,0,.44.09.61.23.11-.42.47-.73.91-.73.27,0,.52.12.69.3.1-.4.45-.7.89-.7.34,0,.62.19.79.46.09-.4.43-.7.86-.7s.74.27.85.65c.05-.43.4-.77.85-.77.48,0,.87.39.87.87s-.39.87-.87.87c-.39,0-.7-.26-.82-.61-.05.45-.42.8-.88.8-.32,0-.6-.18-.75-.44-.09.42-.45.74-.89.74-.26,0-.49-.1-.66-.27-.1.42-.46.74-.92.74-.21,0-.4-.08-.56-.2-.1.45-.48.8-.97.8-.08,0-.16-.03-.24-.05.04.11.07.23.07.36,0,.35-.18.64-.45.83.05,0,.09-.03.14-.03.13,0,.26.03.37.07-.03-.09-.06-.18-.06-.28,0-.53.43-.95.95-.95.28,0,.52.12.7.31.1-.41.45-.72.88-.72.33,0,.61.18.77.45.08-.41.43-.73.86-.73s.75.29.85.68c.04-.44.4-.79.85-.79.48,0,.87.39.87.87s-.39.87-.87.87c-.4,0-.72-.28-.82-.65-.04.46-.41.82-.88.82-.32,0-.58-.18-.74-.42-.08.43-.44.76-.89.76-.26,0-.5-.11-.66-.29-.09.43-.46.75-.91.75-.12,0-.24-.03-.35-.07.03.1.06.19.06.3,0,.54-.44.98-.98.98-.24,0-.46-.1-.63-.25-.04.1-.11.19-.18.28.29.04.54.2.69.44.13-.34.46-.59.85-.59.18,0,.34.07.48.16-.03-.09-.05-.17-.05-.27,0-.5.41-.91.91-.91.34,0,.62.19.78.47.06-.43.41-.76.86-.76.41,0,.75.29.84.68.01-.46.39-.83.85-.83s.86.38.86.86-.38.86-.86.86c-.4,0-.72-.28-.82-.65-.01.47-.4.86-.88.86-.33,0-.6-.18-.75-.45-.06.44-.42.79-.88.79-.17,0-.33-.06-.47-.15.03.09.06.18.06.28,0,.51-.41.92-.92.92-.31,0-.57-.16-.74-.4-.05.16-.14.29-.25.41.43,0,.78.3.89.69.08-.4.42-.71.84-.71.23,0,.44.09.59.24-.03-.08-.05-.17-.05-.26,0-.47.38-.86.86-.86s.86.38.86.86-.38.86-.86.86c-.22,0-.43-.09-.58-.23.03.09.05.17.05.27,0,.48-.39.87-.87.87-.39,0-.72-.27-.82-.63-.05.29-.23.54-.49.67.09-.03.17-.05.27-.05.49,0,.89.4.89.89s-.4.88-.89.88c-.18,0-.35-.07-.49-.17-.03.12-.07.24-.13.34.21.07.38.19.51.37.1-.34.41-.59.78-.59.46,0,.83.37.83.83s-.37.83-.83.83c-.23,0-.44-.1-.59-.25-.03.15-.08.28-.17.4.31.07.58.27.7.57.06-.38.37-.67.76-.67.43,0,.78.35.78.78s-.35.78-.78.78c-.3,0-.56-.18-.69-.44-.01.16-.06.3-.14.44,0,0,.02,0,.02,0,.52,0,.94.42.94.94,0,.14-.04.27-.09.4.12-.07.25-.11.4-.11.46,0,.84.38.84.84h0Zm.8,1.58c-.41,0-.74-.33-.74-.74s.33-.74.74-.74.74.33.74.74-.33.74-.74.74Zm.59-1.57c-.37,0-.67-.3-.67-.67s.3-.67.67-.67.67.3.67.67-.3.67-.67.67Zm.55-3.11c0-.4.32-.72.72-.72s.72.32.72.72-.32.72-.72.72-.72-.32-.72-.72Zm.94,1.1c.37,0,.67.3.67.67s-.3.67-.67.67-.67-.3-.67-.67.3-.67.67-.67Zm.1,3.89c-.42,0-.75-.34-.75-.75s.34-.76.75-.76.75.34.75.76-.34.75-.75.75Zm.75-2.71c0-.37.3-.67.66-.67s.66.3.66.67-.3.66-.66.66-.66-.3-.66-.66Zm1.31,1.96c-.36,0-.65-.29-.65-.65s.29-.65.65-.65.65.29.65.65-.29.65-.65.65Zm.63-2.72c-.39,0-.7-.31-.7-.7s.31-.7.7-.7.7.31.7.7-.31.7-.7.7Zm1.21.93c-.37,0-.68-.3-.68-.68s.3-.68.68-.68.68.3.68.68-.3.68-.68.68Zm1.08-2.34c-.39,0-.71-.32-.71-.71s.32-.71.71-.71.71.32.71.71-.32.71-.71.71Z"/><path class="b" d="m50.38,46.58c-.06,0-.11.03-.16.03-.19,0-.36-.07-.51-.16-.03.07-.09.13-.13.19.2.05.38.13.51.27.07-.14.17-.25.29-.34Z"/><path class="b" d="m50.98,51.88c-.09.03-.19.06-.29.06-.14,0-.27-.04-.4-.09-.02.1-.04.2-.09.28.13.05.24.12.34.21.08-.2.23-.36.43-.46h0Z"/><polygon class="b" points="49.64 42.71 49.64 42.71 49.64 42.71 49.64 42.71"/><path class="b" d="m49.69,50.27c-.02.09-.03.18-.06.27.07.03.13.08.19.13.05-.13.12-.24.21-.33,0,0-.01,0-.02,0-.11,0-.22-.03-.32-.06Z"/></svg>