<?xml version="1.0" encoding="UTF-8" standalone="no"?>
<svg id="a" viewBox="0 0 32 32" version="1.1" sodipodi:docname="adobe-stock.svg" width="32" height="32" inkscape:version="1.4-beta2 (9aaf4f34, 2024-07-30)" xmlns:inkscape="http://www.inkscape.org/namespaces/inkscape" xmlns:sodipodi="http://sodipodi.sourceforge.net/DTD/sodipodi-0.dtd" xmlns="http://www.w3.org/2000/svg" xmlns:svg="http://www.w3.org/2000/svg">
  <sodipodi:namedview id="namedview2" pagecolor="#ffffff" bordercolor="#000000" borderopacity="0.25" inkscape:showpageshadow="2" inkscape:pageopacity="0.0" inkscape:pagecheckerboard="0" inkscape:deskcolor="#d1d1d1" inkscape:zoom="1.70616" inkscape:cx="21.100014" inkscape:cy="97.001454" inkscape:window-width="1440" inkscape:window-height="790" inkscape:window-x="0" inkscape:window-y="0" inkscape:window-maximized="1" inkscape:current-layer="a" />
  <defs id="defs1">
    <style id="style1">.b{stroke-width:0px;}</style>
  </defs>
  <path class="b" d="m 31.90652,5.1426765 c -0.0826,-0.356232 -0.191023,-0.712463 -0.330418,-1.048044 -0.129069,-0.351069 -0.299441,-0.686649 -0.516277,-0.991253 -0.206512,-0.309767 -0.433674,-0.598883 -0.691813,-0.867347 -0.268464,-0.252976 -0.562743,-0.480139 -0.872509,-0.68665 -0.320093,-0.191022 -0.65051,-0.366557 -0.991254,-0.516278 -0.340743,-0.144557 -0.691812,-0.252976 -1.053207,-0.325255 -0.361394,-0.0826 -0.727951,-0.123906 -1.094509,-0.118743 H 5.6589548 c -0.3665572,-0.0052 -0.7331145,0.03098 -1.094509,0.108418 -0.3613945,0.0826 -0.7124634,0.191023 -1.0532068,0.325255 -0.3407434,0.134232 -0.6608357,0.309767 -0.9654396,0.516278 -0.3149295,0.201348 -0.6040451,0.438836 -0.8673468,0.702138 -0.2633017,0.263301 -0.5007895,0.552417 -0.71246343,0.862184 -0.20134836,0.314929 -0.37688283,0.65051 -0.53176619,0.991253 -0.13939502,0.340743 -0.25297614,0.691812 -0.33041782,1.048044 -0.07744168,0.361395 -0.10841835,0.727952 -0.10325557308,1.094509 V 25.773139 c 0,0.366557 0.0413022331,0.733115 0.12390668308,1.09451 0.0826045,0.356231 0.19102281,0.712462 0.32525505,1.048043 0.12906946,0.351069 0.29944115,0.681487 0.51111507,0.991254 0.20651111,0.309766 0.43883621,0.604045 0.70213791,0.867346 0.2684645,0.252976 0.5627428,0.485302 0.8725095,0.68665 0.3149295,0.196185 0.6505101,0.37172 0.9912535,0.516278 0.3407434,0.144558 0.6918123,0.252976 1.048044,0.325255 0.3613945,0.07744 0.7279518,0.113581 1.0945091,0.108418 H 26.341045 c 0.366557,0.0052 0.733115,-0.03098 1.094509,-0.108418 0.361395,-0.08261 0.712464,-0.191023 1.053207,-0.325255 0.351069,-0.134233 0.681487,-0.304604 0.991253,-0.516278 0.309767,-0.201348 0.604045,-0.428511 0.87251,-0.68665 0.258139,-0.268464 0.490464,-0.55758 0.696975,-0.867346 0.201348,-0.31493 0.37172,-0.645348 0.516278,-0.991254 0.144558,-0.340743 0.258139,-0.691812 0.330418,-1.048043 0.07744,-0.361394 0.108418,-0.727953 0.103255,-1.09451 V 6.2371855 c 0.0052,-0.366557 -0.03098,-0.733114 -0.108418,-1.094509 z M 16.005163,21.271197 c -0.469813,0.640184 -1.104835,1.140974 -1.83795,1.445577 -0.898323,0.340744 -1.848274,0.505952 -2.808551,0.480139 v 0 c -0.717626,0 -1.4352521,-0.06712 -2.1425528,-0.201349 C 8.6533664,22.887146 8.1061118,22.711612 7.5846712,22.474125 7.4607645,22.417334 7.4194623,22.293427 7.4194623,22.128218 v -2.50911 c 0,-0.05163 0.020651,-0.09809 0.061953,-0.123907 0.036139,-0.02581 0.082604,-0.02581 0.1187439,0 1.1461369,0.717627 2.4678078,1.094509 3.8204558,1.094509 0.604045,0.05163 1.20809,-0.07744 1.734694,-0.37172 0.320092,-0.196185 0.516278,-0.547254 0.516278,-0.924138 0,-0.216837 -0.06195,-0.433673 -0.175535,-0.619533 -0.160046,-0.227163 -0.361394,-0.418185 -0.598882,-0.557581 -0.366557,-0.227162 -0.753766,-0.413022 -1.156463,-0.55758 L 10.687501,17.104835 C 9.9647121,16.810556 9.2883881,16.413022 8.6791802,15.927721 8.2403441,15.576652 7.9099263,15.112002 7.7137407,14.585399 7.5175551,14.094935 7.4194623,13.568332 7.4246251,13.036565 7.3781601,11.518709 8.2558324,10.119596 9.639457,9.5052245 c 0.882835,-0.382046 1.843112,-0.562743 2.803388,-0.536929 0.635022,0 1.275207,0.03614 1.905066,0.123907 0.485301,0.06195 0.955114,0.191022 1.404275,0.392371 0.09809,0.05163 0.154884,0.14972 0.154884,0.258139 V 12.15373 c -0.0052,0.03614 -0.03098,0.06712 -0.06195,0.08261 -0.03614,0.02581 -0.08777,0.02581 -0.123906,0 -0.459488,-0.237488 -0.944789,-0.418186 -1.445578,-0.542093 -0.578231,-0.09293 -1.166788,-0.139395 -1.755345,-0.144557 -0.345906,-0.01033 -0.691812,0.02581 -1.032556,0.108419 -0.237487,0.05679 -0.469812,0.149719 -0.686649,0.2633 -0.160046,0.09809 -0.294279,0.237488 -0.392371,0.397535 -0.07744,0.14972 -0.118744,0.31493 -0.123907,0.480139 -0.0052,0.216836 0.06195,0.423347 0.18586,0.598882 0.170372,0.211673 0.376883,0.392371 0.614371,0.526603 0.382045,0.242651 0.784742,0.459488 1.197764,0.640185 l 0.784743,0.289115 c 0.779579,0.299441 1.507531,0.707301 2.168367,1.218415 0.474975,0.366558 0.846695,0.841533 1.094509,1.383625 0.211673,0.516278 0.314929,1.068695 0.309766,1.631438 0.01033,0.779579 -0.216836,1.548833 -0.660835,2.194181 h 0.02065 z m 7.868074,-6.468961 c 0,0.08777 0,0.123906 -0.103256,0.144558 h -2.003158 v 4.527756 c -0.03098,0.361395 0.05679,0.722788 0.247814,1.032556 0.232325,0.232324 0.562743,0.345905 0.89316,0.309767 0.118744,0.01032 0.232325,0.01032 0.351069,0 h 0.345906 c 0.03614,-0.03098 0.08777,-0.03098 0.123907,0 0.04647,0.02581 0.07228,0.07228 0.06195,0.123906 v 1.734694 c 0,0.144558 -0.06195,0.247813 -0.165208,0.263302 -0.268465,0.08777 -0.55758,0.144557 -0.846696,0.206511 -0.335581,0.06195 -0.671161,0.08777 -1.011905,0.0826 -0.789905,0.0413 -1.564322,-0.216836 -2.168367,-0.722789 -0.516277,-0.480138 -0.784742,-1.259718 -0.784742,-2.307762 V 14.94679 h -1.259718 c -0.123907,0 -0.165209,-0.05679 -0.165209,-0.180698 v -2.106413 c 0,-0.123907 0.06195,-0.165209 0.180697,-0.165209 h 1.264881 c 0,-0.252976 0,-0.521441 0.06195,-0.831208 0.06195,-0.309766 0.03614,-0.640185 0.0826,-0.965439 0.04647,-0.325255 0.05679,-0.578231 0.0826,-0.7847435 0,-0.03614 0,-0.0826 0.06195,-0.118743 0.02581,-0.03614 0.06195,-0.06195 0.103255,-0.08777 l 2.519436,-0.309766 c 0.03098,-0.02065 0.07228,-0.02065 0.103256,0 0.03098,0.03614 0.04647,0.07744 0.0413,0.123906 -0.02581,0.325255 -0.0413,0.7589295 -0.06195,1.3216725 -0.02065,0.562742 0,1.094509 -0.0413,1.631438 h 1.961856 c 0.08777,0 0.123907,0.05679 0.123907,0.165209 v 2.158041 z" id="path1" />
</svg>
