<?xml version="1.0" encoding="UTF-8"?><svg id="a" xmlns="http://www.w3.org/2000/svg" viewBox="0 0 280 80"><defs><style>.b{stroke-width:0px;}</style></defs><path class="b" d="m61.8,18.97c-.16-.69-.37-1.38-.64-2.03-.25-.68-.58-1.33-1-1.92-.4-.6-.84-1.16-1.34-1.68-.52-.49-1.09-.93-1.69-1.33-.62-.37-1.26-.71-1.92-1-.66-.28-1.34-.49-2.04-.63-.7-.16-1.41-.24-2.12-.23H10.96c-.71-.01-1.42.06-2.12.21-.7.16-1.38.37-2.04.63-.66.26-1.28.6-1.87,1-.61.39-1.17.85-1.68,1.36-.51.51-.97,1.07-1.38,1.67-.39.61-.73,1.26-1.03,1.92-.27.66-.49,1.34-.64,2.03-.15.7-.21,1.41-.2,2.12v37.84c0,.71.08,1.42.24,2.12.16.69.37,1.38.63,2.03.25.68.58,1.32.99,1.92.4.6.85,1.17,1.36,1.68.52.49,1.09.94,1.69,1.33.61.38,1.26.72,1.92,1,.66.28,1.34.49,2.03.63.7.15,1.41.22,2.12.21h40.04c.71.01,1.42-.06,2.12-.21.7-.16,1.38-.37,2.04-.63.68-.26,1.32-.59,1.92-1,.6-.39,1.17-.83,1.69-1.33.5-.52.95-1.08,1.35-1.68.39-.61.72-1.25,1-1.92.28-.66.5-1.34.64-2.03.15-.7.21-1.41.2-2.12V21.09c.01-.71-.06-1.42-.21-2.12Zm-30.8,31.24c-.91,1.24-2.14,2.21-3.56,2.8-1.74.66-3.58.98-5.44.93h0c-1.39,0-2.78-.13-4.15-.39-1.09-.21-2.15-.55-3.16-1.01-.24-.11-.32-.35-.32-.67v-4.86c0-.1.04-.19.12-.24.07-.05.16-.05.23,0,2.22,1.39,4.78,2.12,7.4,2.12,1.17.1,2.34-.15,3.36-.72.62-.38,1-1.06,1-1.79,0-.42-.12-.84-.34-1.2-.31-.44-.7-.81-1.16-1.08-.71-.44-1.46-.8-2.24-1.08l-2.04-.88c-1.4-.57-2.71-1.34-3.89-2.28-.85-.68-1.49-1.58-1.87-2.6-.38-.95-.57-1.97-.56-3-.09-2.94,1.61-5.65,4.29-6.84,1.71-.74,3.57-1.09,5.43-1.04,1.23,0,2.47.07,3.69.24.94.12,1.85.37,2.72.76.19.1.3.29.3.5v4.67c-.01.07-.06.13-.12.16-.07.05-.17.05-.24,0-.89-.46-1.83-.81-2.8-1.05-1.12-.18-2.26-.27-3.4-.28-.67-.02-1.34.05-2,.21-.46.11-.91.29-1.33.51-.31.19-.57.46-.76.77-.15.29-.23.61-.24.93-.01.42.12.82.36,1.16.33.41.73.76,1.19,1.02.74.47,1.52.89,2.32,1.24l1.52.56c1.51.58,2.92,1.37,4.2,2.36.92.71,1.64,1.63,2.12,2.68.41,1,.61,2.07.6,3.16.02,1.51-.42,3-1.28,4.25h.04Zm15.24-12.53c0,.17,0,.24-.2.28h-3.88v8.77c-.06.7.11,1.4.48,2,.45.45,1.09.67,1.73.6.23.02.45.02.68,0h.67c.07-.06.17-.06.24,0,.09.05.14.14.12.24v3.36c0,.28-.12.48-.32.51-.52.17-1.08.28-1.64.4-.65.12-1.3.17-1.96.16-1.53.08-3.03-.42-4.2-1.4-1-.93-1.52-2.44-1.52-4.47v-10.17h-2.44c-.24,0-.32-.11-.32-.35v-4.08c0-.24.12-.32.35-.32h2.45c0-.49,0-1.01.12-1.61s.07-1.24.16-1.87.11-1.12.16-1.52c0-.07,0-.16.12-.23.05-.07.12-.12.2-.17l4.88-.6c.06-.04.14-.04.2,0,.06.07.09.15.08.24-.05.63-.08,1.47-.12,2.56s0,2.12-.08,3.16h3.8c.17,0,.24.11.24.32v4.18Z"/><path class="b" d="m85.27,41.97h6.04c-.15-.58-.34-1.16-.56-1.72-.24-.64-.4-1.33-.64-2.04s-.44-1.44-.67-2.19-.45-1.45-.64-2.08-.36-1.28-.52-1.87h0c-.24.88-.52,1.87-.8,3s-.67,2.36-1.07,3.56-.76,2.32-1.12,3.35Zm7.52,4.76h-8.89l-1.87,5.68c-.04.21-.23.35-.44.33h-4.42c-.28,0-.35-.12-.32-.36l7.68-22.16c.07-.23.12-.44.24-.76.1-.52.15-1.05.15-1.58,0-.2.08-.28.24-.28h6.16c.15-.02.29.08.32.24,0,0,0,0,0,0l8.72,24.64c.08.23,0,.35-.2.35h-5c-.23,0-.35-.07-.4-.28l-1.99-5.82Zm20.75,1.6v-10.4c-.2-.08-.42-.12-.63-.12-.25-.02-.51-.02-.77,0-.94,0-1.87.2-2.72.6-.82.39-1.51,1-2,1.76-.54.9-.8,1.94-.77,3-.02.83.1,1.66.36,2.45.24.63.6,1.2,1.08,1.68.46.44,1,.78,1.6,1,.65.23,1.34.34,2.03.32.31.02.62.02.93,0,.29-.03.57-.1.84-.21l.03-.07Zm-2.4,4.84c-1.78.02-3.54-.35-5.16-1.08-1.49-.7-2.74-1.83-3.59-3.24-.94-1.67-1.4-3.57-1.33-5.48-.03-1.77.43-3.51,1.33-5.04.9-1.57,2.23-2.84,3.84-3.68,1.85-.96,3.92-1.43,6-1.36h1.28v-7.51c0-.21.08-.28.28-.28h4.84c.12-.01.23.08.24.2,0,0,0,.02,0,.03v24.12c.02.46.06.91.12,1.36,0,.2-.07.28-.28.36-1.26.54-2.57.94-3.92,1.19-1.2.23-2.42.37-3.64.4Zm20.12-15.44c-.71,0-1.41.23-2,.63-.64.48-1.12,1.12-1.4,1.87-.38.94-.56,1.95-.52,2.96,0,1,.17,1.99.52,2.92.3.74.8,1.39,1.44,1.87.65.48,1.44.72,2.24.68.72-.01,1.41-.23,2.01-.63.65-.47,1.13-1.12,1.4-1.87.64-1.86.68-3.88.11-5.76-.24-.78-.7-1.47-1.32-2-.73-.49-1.6-.73-2.48-.67Zm.24-4.44c1.4-.03,2.79.25,4.08.8,1.11.53,2.1,1.27,2.92,2.18.79.92,1.39,1.99,1.75,3.16.41,1.2.61,2.46.61,3.73.05,1.83-.38,3.63-1.24,5.25-.76,1.46-1.92,2.68-3.34,3.52-1.48.89-3.19,1.33-4.92,1.28-1.46.04-2.91-.26-4.24-.88-1.16-.52-2.18-1.3-2.98-2.29-.77-.94-1.36-2.03-1.72-3.19-.38-1.18-.59-2.4-.61-3.64-.02-1.73.39-3.44,1.2-4.97.75-1.48,1.9-2.73,3.32-3.59,1.55-.95,3.34-1.42,5.15-1.36h0Zm24.8,9.64c.01-1-.21-1.99-.64-2.88-.37-.72-.96-1.31-1.68-1.68-.75-.37-1.57-.56-2.4-.56-.47,0-.94.03-1.4.08-.29.04-.57.13-.83.25v10.43l.72.12c.24.02.48.02.72,0,.94,0,1.87-.22,2.72-.63.84-.42,1.55-1.07,2.04-1.87.56-1,.84-2.13.8-3.28l-.05.02Zm-12.08-17.44h4.67c.28,0,.36.07.36.32v7.88c.53-.13,1.06-.24,1.6-.32.54-.08,1.09-.12,1.64-.12,1.72-.06,3.43.37,4.92,1.24,1.33.79,2.43,1.92,3.19,3.28.77,1.43,1.16,3.04,1.12,4.67.04,1.61-.27,3.2-.93,4.67-.6,1.29-1.48,2.43-2.59,3.32-1.11.9-2.37,1.58-3.73,2-1.37.45-2.8.68-4.25.68-1.02,0-2.03-.08-3.03-.24-1.01-.12-2-.35-2.96-.67-.14-.07-.24-.21-.24-.36v-26.05c0-.21.07-.28.24-.28Zm25.07,15.39h7v-.24c0-.3-.05-.59-.12-.88-.11-.37-.3-.71-.56-1-.27-.36-.61-.65-1-.88-.49-.25-1.04-.36-1.6-.33-.69,0-1.36.18-1.96.52-.49.3-.9.73-1.18,1.24-.27.49-.46,1.01-.56,1.56h-.03Zm7.56,3.73h-7.56c.08.71.32,1.4.72,2,.44.62,1.04,1.12,1.74,1.43.96.4,1.99.59,3.03.56.83.02,1.66-.04,2.47-.2.78-.13,1.55-.36,2.28-.68.12-.08.24,0,.24.2v3.92c-.06.08-.14.15-.23.2-.8.39-1.65.66-2.52.8-1.11.21-2.23.31-3.36.28-1.58.05-3.15-.25-4.6-.88-1.16-.51-2.18-1.27-3-2.24-.76-.94-1.33-2.01-1.68-3.16-.36-1.14-.53-2.33-.52-3.52.01-1.3.23-2.6.64-3.84.38-1.18.97-2.28,1.75-3.24.78-.97,1.78-1.74,2.92-2.24,1.25-.57,2.62-.84,4-.8,1.28-.03,2.56.21,3.73.72,1,.46,1.87,1.15,2.56,2.01.64.79,1.12,1.7,1.4,2.68.28.93.43,1.9.44,2.88v1.61c-.02.33-.06.67-.12,1-.01.17-.15.3-.32.32-.21,0-.44,0-.8.08s-.8,0-1.36,0c-.58.11-1.17.15-1.75.12h-.09Zm21.96,8.55c-1.3,0-2.6-.11-3.88-.36-1.03-.2-2.02-.54-2.96-1-.21-.08-.28-.32-.28-.64v-4.62c0-.09.03-.17.07-.24h.24c1.05.67,2.2,1.18,3.4,1.52,1.16.33,2.36.5,3.57.52,1.1.08,2.19-.16,3.16-.68.95-.58,1.25-1.81.67-2.76,0-.01-.02-.03-.03-.04-.3-.4-.67-.76-1.08-1.05-.65-.4-1.33-.74-2.04-1.01l-1.87-.8c-1.34-.53-2.6-1.24-3.73-2.12-.8-.65-1.44-1.49-1.87-2.44-.35-.89-.53-1.84-.52-2.8,0-1.32.36-2.61,1.05-3.73.75-1.17,1.82-2.1,3.08-2.68,1.59-.72,3.33-1.07,5.08-1,1.14,0,2.27.07,3.4.23.91.08,1.79.34,2.59.77.16.12.25.31.24.51v4.26c0,.08,0,.12-.07.24s-.12,0-.24,0c-.84-.45-1.74-.77-2.68-.93-1.06-.23-2.15-.34-3.24-.32-.63-.02-1.26.05-1.87.2-.44.09-.86.26-1.23.52-.29.17-.52.42-.68.72-.14.27-.22.57-.24.88-.02.39.1.77.32,1.08.32.39.7.73,1.12,1,.72.41,1.47.77,2.24,1.08l1.4.6c1.43.52,2.77,1.28,3.96,2.24.85.66,1.53,1.51,1.98,2.49.37.92.58,1.89.6,2.88.04,1.44-.39,2.86-1.23,4.03-.85,1.16-1.99,2.07-3.31,2.64-1.64.55-3.35.82-5.08.8h0Zm22.23-4.25v3.22c0,.28-.08.44-.28.52-.52.18-1.06.32-1.61.4-.62.08-1.24.12-1.87.12-1.43.09-2.84-.39-3.92-1.33-.93-.88-1.35-2.28-1.35-4.2v-9.58h-2.32c-.23,0-.32-.12-.32-.35v-3.73c-.03-.17.09-.34.26-.36.03,0,.07,0,.1,0h2.31c0-.44,0-.93.08-1.56s0-1.19.11-1.72c.03-.46.1-.91.21-1.36,0-.07,0-.2.12-.23.07-.06.15-.1.23-.12l4.53-.6c.07-.05.16-.05.23,0,.05,0,.08.07.08.23,0,.61-.08,1.4-.12,2.4s-.08,2.01-.08,2.96h3.6c.24,0,.32.08.32.33v3.87c0,.12-.07.24-.28.28h-3.59v8.24c-.06.65.1,1.31.44,1.87.41.46,1.03.69,1.64.61.21,0,.43,0,.63-.05.22-.02.43-.06.64-.12.06-.02.13-.02.2,0v.26Zm10.92-11.2c-.72,0-1.42.23-2.01.63-.64.48-1.12,1.12-1.4,1.87-.38.94-.55,1.95-.51,2.96,0,1,.17,1.99.51,2.92.29.75.79,1.4,1.45,1.87.65.48,1.44.72,2.24.68.71-.01,1.41-.23,2-.63.65-.47,1.13-1.12,1.4-1.87.64-1.86.68-3.87.12-5.76-.25-.78-.71-1.47-1.33-2-.72-.51-1.59-.76-2.47-.72v.05Zm.23-4.44c1.4-.03,2.79.25,4.08.8,1.12.53,2.13,1.27,2.96,2.19.79.92,1.39,2,1.76,3.16.4,1.2.6,2.47.6,3.73.05,1.83-.38,3.63-1.24,5.25-.75,1.45-1.88,2.67-3.28,3.52-1.48.89-3.19,1.33-4.92,1.28-1.46.04-2.91-.26-4.24-.88-1.16-.52-2.18-1.3-2.98-2.29-.77-.94-1.36-2.03-1.72-3.19-.38-1.18-.58-2.4-.6-3.64-.02-1.73.39-3.44,1.19-4.97,1.61-3.13,4.88-5.06,8.4-4.96h-.03Zm26.14,14.94v4c.02.14-.06.27-.2.32-.65.26-1.34.44-2.03.52-.76.08-1.52.12-2.29.12-1.43.02-2.86-.22-4.2-.72-1.19-.48-2.27-1.19-3.19-2.08-.89-.91-1.58-1.98-2.04-3.16-.47-1.25-.71-2.58-.72-3.92-.02-1.82.47-3.6,1.42-5.15.9-1.51,2.19-2.76,3.73-3.6,1.77-.91,3.74-1.36,5.72-1.32.75-.01,1.5.03,2.24.11.44.06.87.17,1.28.33.16.07.25.23.24.4v3.96c0,.23-.08.32-.33.28-.44-.16-.89-.29-1.35-.36-.62-.08-1.24-.12-1.87-.12-.99-.02-1.97.19-2.88.61-.82.36-1.52.96-2,1.72-.54.88-.79,1.9-.73,2.92-.06,1.12.25,2.23.89,3.16.55.76,1.31,1.35,2.19,1.68.83.32,1.7.49,2.59.51.68,0,1.33,0,1.87-.08.45-.02.9-.1,1.33-.23.24-.12.35-.08.35.11h-.03Zm8.45-22.4v26.56c0,.28-.12.36-.36.36h-4.67c-.28,0-.36-.12-.36-.36v-26.56c0-.08.05-.12.08-.24s.12-.07.32-.07h4.6c.17-.06.37.03.43.2.02.05.02.1.02.15l-.06-.04Zm6.92,7.8h4.96c.11-.01.22.03.28.12.04.09.04.19,0,.28-.28.32-.64.72-1.08,1.23s-1,1.08-1.6,1.76-1.2,1.32-1.76,1.96-1.12,1.28-1.63,1.87-.93,1-1.2,1.32v.17c.56.67,1.2,1.44,1.87,2.35s1.4,1.76,2.2,2.68,1.52,1.87,2.24,2.68,1.36,1.68,1.96,2.36c.07.08.07.12,0,.24-.05.09-.14.14-.24.12h-6.29c-.09-.07-.17-.15-.23-.24-.33-.44-.8-1.05-1.45-1.87s-1.32-1.72-2.08-2.68l-2.03-2.72c-.64-.88-1.12-1.52-1.52-1.96-.09-.11-.15-.23-.2-.36-.05-.07,0-.23.2-.35.32-.4.77-.93,1.28-1.56s1.08-1.28,1.68-2,1.2-1.4,1.72-2.08,1.05-1.28,1.52-1.87.72-.93.93-1.12.2-.24.23-.24h.33l-.07-.09Z"/></svg>