<svg xmlns="http://www.w3.org/2000/svg" viewBox="0 0 300 120"><path d="M66.2,37.46a14.08,14.08,0,0,0-.69-2.18,9,9,0,0,0-1.07-2.06A12.42,12.42,0,0,0,63,31.42,13,13,0,0,0,61.19,30a17.64,17.64,0,0,0-2.06-1.07,11.88,11.88,0,0,0-2.19-.68A10,10,0,0,0,54.67,28H11.74a10.28,10.28,0,0,0-2.27.22,14.14,14.14,0,0,0-2.19.68,10,10,0,0,0-2,1.07,11,11,0,0,0-1.8,1.46A12.33,12.33,0,0,0,2,33.22,15.59,15.59,0,0,0,.9,35.28a13.48,13.48,0,0,0-.69,2.18A10,10,0,0,0,0,39.73V80.27a9.56,9.56,0,0,0,.26,2.27,14,14,0,0,0,.68,2.18A9.82,9.82,0,0,0,2,86.78a11.86,11.86,0,0,0,1.46,1.8A12.46,12.46,0,0,0,5.27,90a14.4,14.4,0,0,0,2.06,1.07,11.54,11.54,0,0,0,2.18.68,10,10,0,0,0,2.27.22H54.67a10.28,10.28,0,0,0,2.27-.22,14.14,14.14,0,0,0,2.19-.68A10.08,10.08,0,0,0,61.19,90,11.86,11.86,0,0,0,63,88.58a13,13,0,0,0,1.45-1.8,13.45,13.45,0,0,0,1.07-2.06,11.56,11.56,0,0,0,.69-2.18,10,10,0,0,0,.21-2.27V39.73A10.27,10.27,0,0,0,66.2,37.46Zm-33,33.47a9,9,0,0,1-3.81,3,15.19,15.19,0,0,1-5.83,1h0a24,24,0,0,1-4.45-.42,15,15,0,0,1-3.39-1.08c-.26-.12-.34-.38-.34-.72V67.5a.3.3,0,0,1,.13-.26.21.21,0,0,1,.25,0,14.94,14.94,0,0,0,7.93,2.27,6.37,6.37,0,0,0,3.6-.77,2.25,2.25,0,0,0,1.07-1.92A2.68,2.68,0,0,0,28,65.53a4.13,4.13,0,0,0-1.24-1.16,12.54,12.54,0,0,0-2.4-1.16l-2.19-.94A16.86,16.86,0,0,1,18,59.83a6.4,6.4,0,0,1-2-2.79,8.61,8.61,0,0,1-.6-3.21A7.76,7.76,0,0,1,20,46.5a13.67,13.67,0,0,1,5.82-1.11,27.78,27.78,0,0,1,3.95.26,10.44,10.44,0,0,1,2.91.81A.59.59,0,0,1,33,47v5a.22.22,0,0,1-.13.17.22.22,0,0,1-.26,0,13.36,13.36,0,0,0-3-1.12,25.29,25.29,0,0,0-3.64-.3,7.86,7.86,0,0,0-2.14.22,6,6,0,0,0-1.42.55,2.53,2.53,0,0,0-.81.82,2.28,2.28,0,0,0-.26,1,2,2,0,0,0,.39,1.24A4.44,4.44,0,0,0,23,55.67,18.44,18.44,0,0,0,25.49,57l1.63.6a17.68,17.68,0,0,1,4.5,2.53A7.55,7.55,0,0,1,33.89,63a8.77,8.77,0,0,1,.64,3.38A7.82,7.82,0,0,1,33.16,70.93ZM49.53,57.51c0,.18,0,.26-.21.3H45.16V67.2a3.53,3.53,0,0,0,.51,2.14,2.25,2.25,0,0,0,1.85.64,4.29,4.29,0,0,0,.73,0c.25,0,.47,0,.72,0a.19.19,0,0,1,.26,0,.25.25,0,0,1,.13.26v3.6c0,.3-.13.51-.34.55-.56.18-1.16.3-1.76.43a10.32,10.32,0,0,1-2.1.17,6.47,6.47,0,0,1-4.5-1.5c-1.07-1-1.63-2.61-1.63-4.79V57.81H36.42c-.26,0-.34-.12-.34-.38V53.06c0-.26.13-.34.38-.34h2.62c0-.52,0-1.08.13-1.72s.08-1.33.17-2,.12-1.2.17-1.63c0-.08,0-.17.13-.25a.78.78,0,0,1,.21-.18l5.23-.64a.2.2,0,0,1,.21,0,.37.37,0,0,1,.09.26c-.05.68-.09,1.58-.13,2.74s0,2.27-.09,3.39h4.07c.18,0,.26.12.26.34Z"/><path d="M91.35,62.1h6.47a14.42,14.42,0,0,0-.6-1.84c-.26-.69-.43-1.42-.69-2.19s-.47-1.54-.72-2.35-.48-1.55-.69-2.23-.39-1.37-.56-2h0c-.26.94-.56,2-.86,3.21s-.72,2.53-1.15,3.81S91.74,61,91.35,62.1Zm8.06,5.1H89.89l-2,6.08a.43.43,0,0,1-.47.35H82.69c-.3,0-.38-.13-.34-.39L90.58,49.5c.08-.25.13-.47.26-.81A8.14,8.14,0,0,0,91,47c0-.21.09-.3.26-.3h6.6a.3.3,0,0,1,.34.26l9.34,26.4c.09.25,0,.38-.21.38h-5.36c-.25,0-.38-.08-.43-.3Zm22.23,1.71V57.77a1.87,1.87,0,0,0-.68-.13,5.91,5.91,0,0,0-.82,0,6.69,6.69,0,0,0-2.91.64,5.28,5.28,0,0,0-2.14,1.89,5.86,5.86,0,0,0-.82,3.21,7.78,7.78,0,0,0,.39,2.62,5,5,0,0,0,1.16,1.8,5.11,5.11,0,0,0,1.71,1.07,6.12,6.12,0,0,0,2.18.34,8.78,8.78,0,0,0,1,0,3.29,3.29,0,0,0,.9-.22Zm-2.57,5.19a13,13,0,0,1-5.53-1.16,8.88,8.88,0,0,1-3.85-3.47,11.14,11.14,0,0,1-1.42-5.87,10.41,10.41,0,0,1,1.42-5.4,10.16,10.16,0,0,1,4.11-3.94,13.14,13.14,0,0,1,6.43-1.46h.6c.21,0,.43,0,.77,0V44.75c0-.22.09-.3.3-.3h5.18a.24.24,0,0,1,.26.25V69c0,.47,0,1,0,1.54a14.61,14.61,0,0,0,.13,1.46c0,.21-.08.3-.3.39a20.54,20.54,0,0,1-4.2,1.28A24.23,24.23,0,0,1,119.07,74.1Zm21.55-16.54a3.83,3.83,0,0,0-2.14.68,4.46,4.46,0,0,0-1.5,2,7.69,7.69,0,0,0-.56,3.17,8.74,8.74,0,0,0,.56,3.13,4.69,4.69,0,0,0,1.54,2,3.78,3.78,0,0,0,2.4.73,3.94,3.94,0,0,0,2.15-.68,4.19,4.19,0,0,0,1.5-2,10,10,0,0,0,.12-6.17,4.68,4.68,0,0,0-1.41-2.14A4.3,4.3,0,0,0,140.62,57.56Zm.26-4.76a10.54,10.54,0,0,1,4.37.86A10,10,0,0,1,148.38,56a9.57,9.57,0,0,1,1.88,3.38,12.3,12.3,0,0,1,.65,4A11.34,11.34,0,0,1,149.58,69,9.45,9.45,0,0,1,146,72.77a9.68,9.68,0,0,1-5.27,1.37,10.06,10.06,0,0,1-4.54-.94A8.64,8.64,0,0,1,133,70.75a10.11,10.11,0,0,1-1.84-3.42,13.17,13.17,0,0,1-.65-3.9,11.07,11.07,0,0,1,1.29-5.32,9.56,9.56,0,0,1,3.56-3.85A10,10,0,0,1,140.88,52.8Zm26.57,10.33a6.84,6.84,0,0,0-.69-3.09,4.12,4.12,0,0,0-1.8-1.8,5.88,5.88,0,0,0-2.57-.6,12,12,0,0,0-1.5.09A3.27,3.27,0,0,0,160,58V69.17l.77.13a5.3,5.3,0,0,0,.77,0,6.57,6.57,0,0,0,2.91-.68,5.49,5.49,0,0,0,2.19-2,6.73,6.73,0,0,0,.86-3.51ZM154.51,44.45h5c.3,0,.39.08.39.34v8.44a17.24,17.24,0,0,1,1.71-.34,11.58,11.58,0,0,1,1.76-.13,9.85,9.85,0,0,1,5.27,1.33,9.52,9.52,0,0,1,3.42,3.51,10,10,0,0,1,1.2,5,11.41,11.41,0,0,1-1,5,9.87,9.87,0,0,1-2.78,3.56,12,12,0,0,1-4,2.14,14.69,14.69,0,0,1-4.55.73,19.44,19.44,0,0,1-3.25-.26,15.66,15.66,0,0,1-3.17-.72.45.45,0,0,1-.26-.39V44.75C154.25,44.53,154.33,44.45,154.51,44.45Zm26.86,16.49h6.9c.3,0,.56,0,.6,0v-.26a4.24,4.24,0,0,0-.13-.94,2.64,2.64,0,0,0-.6-1.07,3.58,3.58,0,0,0-1.07-.94,3.37,3.37,0,0,0-1.71-.35,4.15,4.15,0,0,0-2.1.56A3.58,3.58,0,0,0,182,59.27a5.65,5.65,0,0,0-.6,1.67Zm8.1,4h-8.1a4.81,4.81,0,0,0,.77,2.14A4.5,4.5,0,0,0,184,68.61a7.79,7.79,0,0,0,3.25.6A12.74,12.74,0,0,0,189.9,69a10.21,10.21,0,0,0,2.44-.73c.13-.09.26,0,.26.21v3.9c0,.13,0,.26,0,.3a.63.63,0,0,1-.25.21,9.83,9.83,0,0,1-2.7.86,17,17,0,0,1-3.6.3,11.41,11.41,0,0,1-4.93-.94,8.8,8.8,0,0,1-3.21-2.4,10.08,10.08,0,0,1-1.8-3.39,12.21,12.21,0,0,1-.56-3.77,13.32,13.32,0,0,1,.69-4.11,10.55,10.55,0,0,1,1.88-3.47,8.38,8.38,0,0,1,3.13-2.4,9.69,9.69,0,0,1,4.28-.86,9.5,9.5,0,0,1,4,.77,7.57,7.57,0,0,1,2.74,2.15,8.23,8.23,0,0,1,1.5,2.87,11.24,11.24,0,0,1,.47,3.08c0,.65,0,1.16,0,1.72a10.64,10.64,0,0,1-.13,1.07.37.37,0,0,1-.34.34c-.22,0-.47,0-.86.09s-.86,0-1.46,0a8.14,8.14,0,0,1-1.88.13ZM213,74.1a20.85,20.85,0,0,1-4.16-.39,13,13,0,0,1-3.17-1.07c-.22-.09-.3-.34-.3-.69V67a.47.47,0,0,1,.08-.26s.13,0,.26,0a13.71,13.71,0,0,0,3.64,1.63,14.83,14.83,0,0,0,3.82.56,6.18,6.18,0,0,0,3.38-.73,2.15,2.15,0,0,0,.69-3,5,5,0,0,0-1.16-1.12A12.12,12.12,0,0,0,213.89,63l-2-.86a16.35,16.35,0,0,1-4-2.27,7.1,7.1,0,0,1-2-2.61,7.9,7.9,0,0,1-.56-3,7.69,7.69,0,0,1,1.12-4,7.79,7.79,0,0,1,3.3-2.87,12,12,0,0,1,5.44-1.07,25,25,0,0,1,3.64.25,7.5,7.5,0,0,1,2.78.82.68.68,0,0,1,.26.55V52.5c0,.09,0,.13-.08.26s-.13,0-.26,0a9.47,9.47,0,0,0-2.87-1,15,15,0,0,0-3.47-.34,7.38,7.38,0,0,0-2,.21,3.42,3.42,0,0,0-1.32.56,2,2,0,0,0-.73.77,2.55,2.55,0,0,0-.26.94,1.89,1.89,0,0,0,.34,1.16,5.24,5.24,0,0,0,1.2,1.07,22,22,0,0,0,2.4,1.16l1.5.64a14.68,14.68,0,0,1,4.24,2.4A7.1,7.1,0,0,1,222.68,63a8.62,8.62,0,0,1,.64,3.09A7.12,7.12,0,0,1,222,70.41a8.69,8.69,0,0,1-3.55,2.83,16.59,16.59,0,0,1-5.44.86Zm23.82-4.55V73c0,.3-.09.47-.3.56a9.83,9.83,0,0,1-1.72.43,14.24,14.24,0,0,1-2,.13,5.84,5.84,0,0,1-4.2-1.42c-1-.94-1.45-2.44-1.45-4.5V57.94h-2.49c-.25,0-.34-.13-.34-.38v-4a.34.34,0,0,1,.39-.39h2.48c0-.47,0-1,.09-1.67s0-1.28.12-1.84a9.33,9.33,0,0,1,.22-1.46c0-.08,0-.21.13-.25a.57.57,0,0,1,.25-.13l4.85-.64a.22.22,0,0,1,.25,0c.05,0,.09.08.09.25,0,.65-.09,1.5-.13,2.57s-.09,2.15-.09,3.17h3.86c.26,0,.34.09.34.35v4.15c0,.13-.08.26-.3.3h-3.85v8.83a3.27,3.27,0,0,0,.47,2,2,2,0,0,0,1.76.65,2.94,2.94,0,0,0,.68-.05,3.94,3.94,0,0,0,.69-.13.33.33,0,0,1,.21,0s0,.13,0,.25Zm11.7-12a3.86,3.86,0,0,0-2.15.68,4.46,4.46,0,0,0-1.5,2,7.7,7.7,0,0,0-.55,3.17,8.75,8.75,0,0,0,.55,3.13,4.44,4.44,0,0,0,1.55,2,3.75,3.75,0,0,0,2.4.73,3.93,3.93,0,0,0,2.14-.68,4.19,4.19,0,0,0,1.5-2,10.09,10.09,0,0,0,.13-6.17,4.7,4.7,0,0,0-1.42-2.14,4.27,4.27,0,0,0-2.65-.77Zm.25-4.76a10.54,10.54,0,0,1,4.37.86A10,10,0,0,1,256.31,56a9.75,9.75,0,0,1,1.89,3.38,12.57,12.57,0,0,1,.64,4A11.34,11.34,0,0,1,257.51,69,9.45,9.45,0,0,1,254,72.77a9.68,9.68,0,0,1-5.27,1.37,10.06,10.06,0,0,1-4.54-.94A8.72,8.72,0,0,1,241,70.75a10.11,10.11,0,0,1-1.84-3.42,13.16,13.16,0,0,1-.64-3.9,11.07,11.07,0,0,1,1.28-5.32,9.8,9.8,0,0,1,9-5.31Zm28,16v4.29a.31.31,0,0,1-.21.34,8.71,8.71,0,0,1-2.18.56,24.48,24.48,0,0,1-2.45.13,12.49,12.49,0,0,1-4.5-.77,10.66,10.66,0,0,1-3.42-2.23,10.05,10.05,0,0,1-2.19-3.39,12.2,12.2,0,0,1-.77-4.2A10.38,10.38,0,0,1,262.57,58a10.59,10.59,0,0,1,4-3.86,12.87,12.87,0,0,1,6.13-1.41,18.67,18.67,0,0,1,2.4.12,5.79,5.79,0,0,1,1.37.35.44.44,0,0,1,.26.43l0,4.24c0,.25-.09.34-.35.3a7.79,7.79,0,0,0-1.45-.39,15.47,15.47,0,0,0-2-.13,7.07,7.07,0,0,0-3.08.65,4.83,4.83,0,0,0-2.14,1.84,5.35,5.35,0,0,0-.78,3.13,5.42,5.42,0,0,0,.95,3.38,5.14,5.14,0,0,0,2.35,1.8A8.43,8.43,0,0,0,273,69c.73,0,1.42,0,2-.09a5.53,5.53,0,0,0,1.42-.25c.26-.13.38-.09.38.12Zm9.05-24V73.24c0,.3-.13.39-.39.39h-5c-.3,0-.39-.13-.39-.39V44.79c0-.09.05-.13.09-.26s.13-.08.34-.08h4.93A.36.36,0,0,1,285.88,44.83Zm7.41,8.36h5.31a.32.32,0,0,1,.3.13.41.41,0,0,1,0,.3c-.3.34-.69.77-1.16,1.32s-1.07,1.16-1.71,1.89-1.29,1.41-1.89,2.1-1.2,1.37-1.75,2-1,1.07-1.29,1.41c0,0,0,0,0,.09s0,0,0,.09c.6.72,1.29,1.54,2,2.52s1.5,1.89,2.36,2.87,1.63,2,2.4,2.87,1.46,1.8,2.1,2.53c.08.09.08.13,0,.26a.25.25,0,0,1-.26.13H293.2c-.13,0-.26,0-.3,0a1.56,1.56,0,0,1-.25-.26c-.35-.47-.86-1.12-1.55-2s-1.41-1.84-2.23-2.87l-2.18-2.91c-.69-.94-1.2-1.63-1.63-2.1a1.26,1.26,0,0,1-.21-.39c-.05-.08,0-.25.21-.38.34-.43.82-1,1.37-1.67s1.16-1.37,1.8-2.14,1.29-1.5,1.84-2.23,1.12-1.37,1.63-2,.77-1,1-1.2.21-.26.25-.26.18,0,.35,0Z"/></svg>