<?xml version="1.0" encoding="UTF-8" standalone="no"?>
<svg id="Camada_1" data-name="Camada 1" viewBox="0 0 32 32" version="1.1" sodipodi:docname="adzuna.svg" width="32" height="32" inkscape:version="1.4-beta2 (9aaf4f34, 2024-07-30)" xmlns:inkscape="http://www.inkscape.org/namespaces/inkscape" xmlns:sodipodi="http://sodipodi.sourceforge.net/DTD/sodipodi-0.dtd" xmlns="http://www.w3.org/2000/svg" xmlns:svg="http://www.w3.org/2000/svg">
  <defs id="defs1" />
  <sodipodi:namedview id="namedview1" pagecolor="#ffffff" bordercolor="#000000" borderopacity="0.25" inkscape:showpageshadow="2" inkscape:pageopacity="0.0" inkscape:pagecheckerboard="0" inkscape:deskcolor="#d1d1d1" inkscape:zoom="0.99951197" inkscape:cx="86.041991" inkscape:cy="8.5041503" inkscape:window-width="1440" inkscape:window-height="790" inkscape:window-x="0" inkscape:window-y="0" inkscape:window-maximized="1" inkscape:current-layer="Camada_1" />
  <path d="M 12.580835,1.2762678e-7 V 4.1247251 c 4.01247,0 7.500677,1.118205 9.969408,3.199439 2.599981,2.156234 3.942842,5.3572839 3.942842,9.2260049 a 11.456164,11.456164 0 0 1 -11.536778,11.280433 9.4499294,9.4499294 0 0 1 -9.5189724,-9.299247 7.2999455,7.2999455 0 0 1 2.2314283,-5.281943 7.8624413,7.8624413 0 0 1 5.5065511,-2.161849 7.1561966,7.1561966 0 0 1 4.461636,1.412344 4.8874635,4.8874635 0 0 1 1.638171,3.80002 c 0,2.67498 -2.006382,4.611782 -4.83761,4.611782 v 4.088104 c 5.137461,0 9.006281,-3.718673 9.006281,-8.699886 A 9.1311818,9.1311818 0 0 0 20.393277,9.3749301 11.149917,11.149917 0 0 0 13.175314,6.9249971 12.306158,12.306158 0 0 0 4.6939319,10.268478 11.837412,11.837412 0 0 0 1.2686645,18.531355 13.612398,13.612398 0 0 0 14.956307,31.999272 15.624883,15.624883 0 0 0 30.731335,16.518431 h -0.02564 c 0,-5.131212 -1.874644,-9.3747829 -5.430866,-12.3497619 C 22.099851,1.4936901 17.562044,1.2762678e-7 12.580832,1.2762678e-7 Z" style="stroke-width:0.624995;fill:#000000" id="path2" />
</svg>
