<svg id="Camada_1" data-name="Camada 1" xmlns="http://www.w3.org/2000/svg" viewBox="0 0 200 80"><path d="M75.71,54.52h-5V51.43H70.6a10.26,10.26,0,0,1-7.86,3.81,10.72,10.72,0,0,1-8.45-3.81,13,13,0,0,1-2.86-8.22,11.41,11.41,0,0,1,3-8.09A11.21,11.21,0,0,1,63,31.19a9.57,9.57,0,0,1,7.73,3.93V31.9h5ZM63.93,36.67a6.73,6.73,0,1,0-.12,13.45,6.48,6.48,0,0,0,6.67-6.79A6.34,6.34,0,0,0,63.93,36.67ZM103,54.52H97.86V51.43h-.12a9.1,9.1,0,0,1-7.62,3.81,11.24,11.24,0,0,1-8.33-3.81,12.28,12.28,0,0,1,0-16.31,11.91,11.91,0,0,1,8.45-3.81,9.63,9.63,0,0,1,7.14,3.09V24.52h5.48v30ZM91,36.67a6.73,6.73,0,1,0,6.79,6.66A6.54,6.54,0,0,0,91,36.67Zm15.48,13.09L116.67,36.9h-9V32.14h15.59V36.9L113.1,49.76h11v4.76H106.43ZM147.38,32v22.5h-5.12V52.14h-.12a6.25,6.25,0,0,1-5.83,3.1,9.87,9.87,0,0,1-7.26-3.1c-2-2.14-2.15-4.52-2.15-7.38V32h5.48V43.1a10.23,10.23,0,0,0,.72,4.64A4.3,4.3,0,0,0,137,50c4.17,0,4.77-3.69,4.77-6.9V32Zm4.41,0h5.11v2H157a7.74,7.74,0,0,1,6.31-2.86,9,9,0,0,1,6.55,2.86l.6.59c1.78,2.38,1.78,5.24,1.78,8.1V54.4h-5.47V43.81c0-1.79,0-3.93-1-5.48a4.56,4.56,0,0,0-3.69-1.9,4.31,4.31,0,0,0-3.81,2c-1,1.55-1,3.93-1,5.72V54.4H151.9V32ZM200,54.52h-5V51.43h-.12A10.25,10.25,0,0,1,187,55.24a10.73,10.73,0,0,1-8.45-3.81,13,13,0,0,1-2.86-8.22,11.42,11.42,0,0,1,3-8.09,11.19,11.19,0,0,1,8.57-3.93A9.58,9.58,0,0,1,195,35.12V31.9h5V54.52ZM188.1,36.67A6.73,6.73,0,1,0,188,50.12a6.47,6.47,0,0,0,6.66-6.79A6.21,6.21,0,0,0,188.1,36.67Zm-141,4.16c0-8.21-3-15-8.69-19.76C33.33,16.79,26.07,14.4,18.1,14.4V21c6.42,0,12,1.79,15.95,5.12,4.16,3.45,6.31,8.57,6.31,14.76A18.33,18.33,0,0,1,21.9,58.93,15.12,15.12,0,0,1,6.67,44.05a11.68,11.68,0,0,1,3.57-8.45,12.58,12.58,0,0,1,8.81-3.46,11.45,11.45,0,0,1,7.14,2.26,7.82,7.82,0,0,1,2.62,6.08c0,4.28-3.21,7.38-7.74,7.38V54.4c8.22,0,14.41-5.95,14.41-13.92A14.61,14.61,0,0,0,30.6,29.4a17.84,17.84,0,0,0-11.55-3.92A19.69,19.69,0,0,0,5.48,30.83,18.94,18.94,0,0,0,0,44.05,21.78,21.78,0,0,0,21.9,65.6,25,25,0,0,0,47.14,40.83Z"/></svg>