<svg xmlns="http://www.w3.org/2000/svg" viewBox="0 0 300 120"><defs><style>.a{fill:#fff;}</style></defs><title>afp</title><path class="a" d="M211.7,0h3.81c-1.7,2.14-4.77,1.24-7.1,1.25A24,24,0,0,1,211.7,0Z"/><path class="a" d="M221.74,0h1.86c2.07.45,4.39.39,6.1,1.81a24.49,24.49,0,0,1-7.11-.71Z"/><path class="a" d="M204.09,2.51c1.06.05,3.19-1.1,3.38.47-1.74,1.13-3.86,1.35-5.85,1.66-.64.22-1,0-1-.64A8.32,8.32,0,0,1,204.09,2.51Z"/><path class="a" d="M214,2.46c2.77-1.16,6.76-1.52,9.06.75C220.17,4.25,216.41,4.53,214,2.46Z"/><path class="a" d="M228.94,2.9c1.56-.87,3.31-.35,4.92.05,2.94-.77,5.83.92,8.28,2.4a30.94,30.94,0,0,1-4.49-1.05l.94,1.63A34.51,34.51,0,0,1,244,7.58l-1.29-2c6.57,2.13,11.88,6.82,16.65,11.65a61.69,61.69,0,0,1,18.13,39c1.16,18.13-6.77,36.31-20,48.58a39.66,39.66,0,0,1-14.61,9.47l1.09-1.83a22.41,22.41,0,0,1-6,1.45q.68-1.38,1.4-2.74c-2.51.69-5.77,2.2-8,0,1.67-2.89,4.95-4.42,8.15-4.79a4.81,4.81,0,0,1,3.17,1,28.33,28.33,0,0,1-1.89,3.24c2.06-.87,4.19-1.84,6.49-1.71l-.61,1.93c1.84-1,4.38-1.26,5.25-3.43-1.57.24-3.65,2.29-4.88.57.53-1,1.2-1.93,1.81-2.9-1.94.8-3.91,2-6.08,1.65-.77-.57-1.41-1.64-.68-2.52a13.07,13.07,0,0,1,5.6-4.69c1.47-.57,3.48-.86,4.51.64-.53,1.11-1.09,2.2-1.57,3.33,1.7-.93,3.46-1.74,5.2-2.6.59-.94,1.1-1.93,1.62-2.92-1.79.66-3.79,2-5.55.51A13.78,13.78,0,0,1,253,94.12a35.14,35.14,0,0,1-4.37,1.79l-2.28-.67c.44,4.39-4.27,7.54-8.19,7.81-2.18.5-4.86-1.82-3.56-4a10,10,0,0,1,10.29-5.29c-.44-2.48.61-4.75,1.84-6.82-1.91.65-3.77,2-5.9,1.53a4.78,4.78,0,0,1-3.8-5.5c.82-5,6.31-9.47,11.35-7.21-1-2.83-.15-5.76,1.07-8.36-2,.67-4.12,1.7-6.21.82-5-1.51-7.21-7.89-4.79-12.35,1.37-2.39,3.84-4.55,6.75-4.49,1.55-.13,2.89.79,4.29,1.29-1.27-2.77-2.18-5.94-.89-8.89a12.33,12.33,0,0,1-3.31,1.13,10.1,10.1,0,0,1-8-6.84c-1-2.6.56-6,3.38-6.5,2.18-.68,4.2.68,6.11,1.51-1.23-2.17-2.39-4.48-1.84-7.06-2.71,1-5.51-.38-7.69-2-1.6-1.3-3.35-3.23-2.72-5.46,1.11-2.25,4.1-2.12,6.1-1.28,2.94,1.15,6.1,3.68,5.77,7.19a7.34,7.34,0,0,1,6.35.92c-.29-1.41-1.31-2.93-.5-4.35,1.63-1.13,3.29.36,4.88.82-.42-1-.87-2-1.3-3a40.77,40.77,0,0,1-5.53-2.67c.64,1.4,2,2.69,1.48,4.37-4.2,1-8.73-2.18-10.11-6.05,1.51-3.08,5-.49,7.18.4-.59-1-1.27-2-1.83-3,1.36-1.72,3.47.42,5.13.64-1.13-2.07-3.49-2.55-5.48-3.41.17.61.34,1.23.52,1.84-2.59.14-4.86-1.07-7.11-2.14.83,1.17,1.79,2.23,2.64,3.4-2.19,2.08-5.29,1-7.61-.2a9.89,9.89,0,0,1-3.79-3.36c2.44-2.52,5.87-.4,8.61.35-.78-1.13-1.61-2.22-2.3-3.41-3-.14-6.45-.49-8.67-2.8m34.34,23.4c-.74,1.87,1.3,3.84,3.18,3.66-.49-1.59-1.45-3.25-3.18-3.66m-5.7,4.45c-.93,1.1.3,2.77,1.08,3.7.75.78,3,1.74,3,0-.14-1.86-2.22-4.7-4.1-3.66m-7.06,5.92c-2.07,2.45,1.59,7.23,4.51,5.62,2.53-2.5-1.48-7.77-4.51-5.62m18.64,3.84c-.19,1.76.73,4.71,3,4.28.66-1.76-.79-5.19-3-4.28m-5.3,6.88c-1.34,1.83.06,5.25,2.45,5.27,1.53-.78,1.07-3.29.19-4.46-.53-.71-2-2-2.64-.8m9.23,10.47c-1,1.24-1,4.12.86,4.48,1.41-.67,1.07-2.69.82-4a1,1,0,0,0-1.67-.53m-9.41,14.89c3.06.54,4.14-3,3.4-5.37-3.13-.89-4.41,3-3.4,5.37m5.54,6.79c2.5.51,3.29-2.72,3.09-4.63-2.36-.14-3.5,2.64-3.09,4.63M252.56,77c-2.07,1-3.94,4.39-1.6,6.08a4.13,4.13,0,0,0,4.8-4.53c.2-1.72-2-2.09-3.2-1.56M259,84.66c-1,1-2.63,3.1-1.09,4.26,2.18,0,3.83-2.36,3.7-4.41-.8-.87-1.79-.41-2.6.15m4,8.44c1.33,1.44,2.64-1.42,3.14-2.53l-.52-1.08A5.78,5.78,0,0,0,263,93.1Z"/><path class="a" d="M206.37,5.8c2.28-2.07,6.28-2.69,8.76-.71C212.88,7.35,209,7.3,206.37,5.8Z"/><path class="a" d="M222.62,4.59c3.15-1.51,7.54-.86,9.79,1.92-2.29,1.49-5.15.92-7.59.14C223.77,6.38,223.18,5.42,222.62,4.59Z"/><path class="a" d="M187.61,8.33c1.42-1.28,3.45-2.9,5.37-2.71A11,11,0,0,1,187.61,8.33Z"/><path class="a" d="M195.82,6.34c.6,0,1.74-.56,1.44.55a7,7,0,0,1-5.87,2.18C192.23,7.39,194.08,6.64,195.82,6.34Z"/><path class="a" d="M214.48,8.85c2.2-3.33,7.4-2.78,10.14-.45,1.22.9-.35,2-1.16,2.36C220.49,11.94,216.58,11.43,214.48,8.85Z"/><path class="a" d="M196.82,11.58c.75-3.58,6-4.7,8.76-2.69C203.86,11.88,199.91,12.66,196.82,11.58Z"/><path class="a" d="M223.8,13.33c.77-1.24,1.84-2.44,3.45-2.38,3-.11,7,1.05,7.76,4.33a3.67,3.67,0,0,1-3.17,2.1A8.79,8.79,0,0,1,223.8,13.33Z"/><path class="a" d="M179.24,14.64a7.53,7.53,0,0,1,3.93-3.1A8,8,0,0,1,179.24,14.64Z"/><path class="a" d="M207.88,12c2.24-.84,5.94-.75,6.74,2-1.6,3.28-6.63,4-9.28,1.63C204.43,13.91,206.47,12.53,207.88,12Z"/><path class="a" d="M182.12,16.32c1-2.36,3.58-4.35,6.27-3.8A7.37,7.37,0,0,1,182.12,16.32Z"/><path class="a" d="M187.16,18.7c1.18-2.42,3.75-4.34,6.56-3.7C194.66,18,189.44,21.17,187.16,18.7Z"/><path class="a" d="M217.33,16.31c3.23-1.65,8.07-.63,9.61,2.87.68,2.62-2.44,4.33-4.68,4.37-2.68.26-5.67-.75-7.08-3.17C214.49,18.63,215.81,17,217.33,16.31Z"/><path class="a" d="M192.53,23.68a7.36,7.36,0,0,1,6.71-4.76c1.67-.1,3.89,1.51,2.91,3.36C200.54,25.67,194.53,27.76,192.53,23.68Z"/><path class="a" d="M175.05,23.7c.68-1.84,2-3.78,4.19-3.81C178.59,21.78,177.21,23.57,175.05,23.7Z"/><path class="a" d="M225.53,26.88c.08-2.59,2.74-3.71,4.92-4.09,2.87.49,6,1.77,7.12,4.67,1.32,2.3-.72,5.18-3.15,5.5C230.57,33.57,226,31,225.53,26.88Z"/><path class="a" d="M178.73,28.27c-.45-2.56,2.52-5.53,5-4.17C183.35,26.41,181.27,28.85,178.73,28.27Z"/><path class="a" d="M204,28.74c.68-4.81,8-6.89,10.72-2.69,1.72,2.61-1.21,5.38-3.61,6.1A5.5,5.5,0,0,1,204,28.74Z"/><path class="a" d="M183.14,32.64c.8-2.33,2.49-4.88,5.19-5A2.24,2.24,0,0,1,190.69,30a6.81,6.81,0,0,1-4.86,4.77C184.48,34.84,183.8,33.57,183.14,32.64Z"/><path class="a" d="M168.06,33a5.51,5.51,0,0,1,3.42-4.76A6.57,6.57,0,0,1,168.06,33Z"/><path class="a" d="M219.32,31.09c4.28-1.36,10,2.32,9.13,7.11-1.18,4.44-7.19,5.8-10.74,3.35-2-1.33-3.65-4-2.85-6.43A6.23,6.23,0,0,1,219.32,31.09Z"/><path class="a" d="M171.66,37.91c-1.89-1.86.45-5.41,2.74-5.47C175.27,34.69,173.39,36.73,171.66,37.91Z"/><path class="a" d="M162.55,37.21a4.63,4.63,0,0,1,1.88-3.65A5.19,5.19,0,0,1,162.55,37.21Z"/><path class="a" d="M195.67,34.76c2.57-1.67,6.43-.26,6.92,2.86.17,4.33-5.69,8.62-9.36,5.47C190.43,40.51,192.76,36.11,195.67,34.76Z"/><path class="a" d="M60.29,40.69c8.77-.07,17.55,0,26.32,0,0,8.57,0,17.14,0,25.7,0,.45,0,1.5.82,1.17,2.57,0,5.16.1,7.72-.13-.09-8.9,0-17.81,0-26.71,12.32-.1,24.64,0,37,0-2.18,3.17-4.31,6.38-6.44,9.59-.44.57-.75,1.48-1.66,1.28-4.25.09-8.5-.08-12.75.08-.06,5.3,0,10.6,0,15.89,7.11.06,14.23.1,21.33,0,0-4.42.06-8.85.06-13.27,0-1.16-.13-2.45.64-3.43,2.27-3.34,4.41-6.79,6.81-10,7.36-.25,14.74,0,22.12-.1,6.71-.05,13.81,1.6,18.86,6.24,7.13,6.1,7.41,19-.24,24.75-4.29,3.54-9.93,5-15.4,5.16s-11.18,0-16.76.15q-.07,10.44,0,20.87c-5.36,0-10.72.05-16.07,0-.08-7,0-13.92,0-20.89-7.12-.05-14.25-.15-21.36.06.08,6.94,0,13.9,0,20.84-5.36,0-10.72.06-16.09,0,0-6.93,0-13.87,0-20.8A72.76,72.76,0,0,0,86.63,77c0,7,0,13.91,0,20.88-5.32,0-10.63,0-15.94,0-.11-7,0-13.91-.05-20.87-6.1-.07-12.23-.22-18.32.06-4.81,6.82-9.14,14-13.87,20.83h-16q7-10.39,13.77-20.9c-3.59-.15-7.19,0-10.77-.06,2.14-3,3.89-6.24,6.13-9.14,3.32-.49,6.73,0,10.09-.21.88.18,1.24-.7,1.66-1.26q8.44-12.81,17-25.58m6.86,13.58c-2.85,4.46-6,8.74-8.65,13.29,4.06.05,8.11.1,12.17,0,0-6,.09-12-.07-18-1.46,1.33-2.33,3.15-3.45,4.75m81.53-2.69c-.08,5.32-.11,10.63,0,15.94,5,.1,9.92.06,14.88,0,2.86,0,5.9-1.55,6.79-4.41s.87-6.45-1-9c-1.67-2.15-4.58-2.66-7.14-2.64C157.68,51.56,153.17,51.47,148.67,51.58Z"/><path class="a" d="M229.54,41.78c4.51-2.44,10.26,1.9,10.2,6.75a5.87,5.87,0,0,1-5.3,6.13c-4.25.49-7.72-3.56-8.12-7.53A6.22,6.22,0,0,1,229.54,41.78Z"/><path class="a" d="M202.24,48.5c.26-4.29,5.21-7.56,9.22-5.81,2.27.75,3.47,3,3.89,5.19a7.52,7.52,0,0,1-6.52,6.78A6,6,0,0,1,202.24,48.5Z"/><path class="a" d="M218.69,52.78c4.81-2.27,10.69,2.08,10.65,7.2-.14,4.64-5,8.78-9.61,7.4A7.61,7.61,0,0,1,214,58.61,7.82,7.82,0,0,1,218.69,52.78Z"/><path class="a" d="M195,54.57c2.78-1.77,6.47.49,7.26,3.41a6.13,6.13,0,0,1-4.19,7.86c-3.35.49-6.33-2.59-6.45-5.81A6.19,6.19,0,0,1,195,54.57Z"/><path class="a" d="M206,65.61c4.41-1.77,9.91,2.44,9,7.21-.48,3.71-4.83,5.69-8.16,4.46a6.88,6.88,0,0,1-4.51-5.12A5.8,5.8,0,0,1,206,65.61Z"/><path class="a" d="M231.52,65.59A5.86,5.86,0,0,1,239.34,69c1.83,4.7-2.59,10.14-7.51,9.76a6.07,6.07,0,0,1-5.44-6.57A8.72,8.72,0,0,1,231.52,65.59Z"/><path class="a" d="M194.29,76c4-1.56,9.06,2.66,8.13,6.86-.87,3.24-5.09,3.52-7.49,1.81C191.86,83,190.51,77.71,194.29,76Z"/><path class="a" d="M218.72,77.78c3.49-1.81,8.7-.18,9.71,3.85.91,4.46-4,8-8.14,7.35-2.73-.32-5.46-2.43-5.63-5.32C214.58,81.08,216.49,78.87,218.72,77.78Z"/><path class="a" d="M171.28,82.44c2.11-.2,3.47,2.56,3.26,4.31,0,1.21-1.51.35-2,0C171.53,85.69,170.28,83.8,171.28,82.44Z"/><path class="a" d="M162.48,82.63c1.26.8,1.65,2.27,2,3.64C163.1,85.56,162.75,84,162.48,82.63Z"/><path class="a" d="M184.17,85.84c2.5-1.77,5.62,1.17,6.36,3.59.85,1.88-1.76,3.68-3.37,2.6C185,91.19,182.12,88.06,184.17,85.84Z"/><path class="a" d="M168.07,86.84c1.91.75,2.79,2.73,3.45,4.53C169.35,91,168.35,88.81,168.07,86.84Z"/><path class="a" d="M230.76,87.23c2.62-1.12,6.54-.22,7.18,2.91.33,5.62-8.71,9.45-11.94,4.37C224.48,91.3,227.93,88.19,230.76,87.23Z"/><path class="a" d="M204,91.29c1.25-5.95,10.92-4.49,11.31,1.17-.75,3-4.39,4.35-7.11,3.27A6.15,6.15,0,0,1,204,91.29Z"/><path class="a" d="M179.09,91.47c2-.06,3.94,1.85,4.44,3.7.59,1.18-1.19,1-1.82.91C180,95.42,177.88,93.31,179.09,91.47Z"/><path class="a" d="M194.45,94.21c3.13-1,7.52,1.19,7.94,4.63-1.82,3.91-7.72,1.78-9.26-1.42C192.14,96.17,193.22,94.72,194.45,94.21Z"/><path class="a" d="M175.06,96a5.73,5.73,0,0,1,4.22,4.19A5.37,5.37,0,0,1,175.06,96Z"/><path class="a" d="M218.64,96.75c2.94-1.31,8-.27,8.4,3.43-1.31,4.79-9.58,5.81-11.85,1.24C214.42,99.15,216.69,97.33,218.64,96.75Z"/><path class="a" d="M187.24,100.88l1.81-1c1.68.6,3.51,1.22,4.53,2.81a1.36,1.36,0,0,1-.67,2.34A6,6,0,0,1,187.24,100.88Z"/><path class="a" d="M207.2,103.19c2.39-.66,5.44-.19,7,1.9,1.11,1.28-.61,2.71-1.82,3-2.64.77-6.32-.07-7.34-2.9C205.14,104.06,206.25,103.52,207.2,103.19Z"/><path class="a" d="M223.82,106.65a8.79,8.79,0,0,1,7.93-4.23c1.56.06,4,1.42,2.92,3.26-1.86,2.76-5.62,3.77-8.76,3C224.93,108.36,224.41,107.41,223.82,106.65Z"/><path class="a" d="M182.16,103.77a5.89,5.89,0,0,1,6.15,3.82A7.11,7.11,0,0,1,182.16,103.77Z"/><path class="a" d="M179.25,105.13a9.13,9.13,0,0,1,4,3.11A6.4,6.4,0,0,1,179.25,105.13Z"/><path class="a" d="M196.77,108.4c3-1,7.16-.5,8.61,2.7C202.7,112.95,197.72,111.77,196.77,108.4Z"/><path class="a" d="M217.45,109a9,9,0,0,1,6.33.26c.9.33,1.87,1.35.85,2.19-1.77,1.87-4.55,1.9-6.94,1.7-1.21-.24-2.69-.82-3-2.16A4.61,4.61,0,0,1,217.45,109Z"/><path class="a" d="M191.28,110.62c2.44.15,5.33.75,6.49,3.19C195.34,113.66,192.46,113,191.28,110.62Z"/><path class="a" d="M187.67,111.55a8.94,8.94,0,0,1,5.14,2.66A8.17,8.17,0,0,1,187.67,111.55Z"/><path class="a" d="M222.62,115.49c1.27-2.64,4.75-3,7.35-2.92.66.21,2,0,2,.92l-1,1.81a29.94,29.94,0,0,1,7.31-1.26l-.23,1.48a34.4,34.4,0,0,1,4.07-1.07c-2.43,1.7-5.4,3.19-8.43,2.63-1.57.07-3.11.4-4.69.5.47-.77.94-1.53,1.44-2.29C227.87,115.83,225.18,116.34,222.62,115.49Z"/><path class="a" d="M206.68,114.33c.23-1,1.34-1,2.13-1.2,2.21-.31,4.7.05,6.24,1.82A7.11,7.11,0,0,1,206.68,114.33Z"/><path class="a" d="M200.21,115.33c2.59,0,5.89-.11,7.58,2.22C205.17,117.6,202,117.53,200.21,115.33Z"/><path class="a" d="M195.29,115.65a11.09,11.09,0,0,1,4.78,1.71A7.65,7.65,0,0,1,195.29,115.65Z"/><path class="a" d="M213.94,117.38c2.42-2,5.9-1.47,8.75-.93,0,.22,0,.64,0,.85A10.22,10.22,0,0,1,213.94,117.38Z"/><path class="a" d="M208.24,118.68a20.52,20.52,0,0,1,7,.2l-.7,1.12h-1A17.48,17.48,0,0,1,208.24,118.68Z"/><path class="a" d="M221.49,119.51c2.34-1.53,5.34-1.65,8-1.43C227.26,119.73,224.18,119.78,221.49,119.51Z"/></svg>