<?xml version="1.0" encoding="UTF-8"?><svg id="a" xmlns="http://www.w3.org/2000/svg" viewBox="0 0 463.43 80"><defs><style>.p{stroke:#000;stroke-miterlimit:10;stroke-width:2px;}.q{stroke-width:0px;}</style></defs><g id="b"><path class="p" d="m1,50.86c0-6.73,4.86-10.84,12.34-10.84,3.74,0,7.1,1.12,9.72,2.62v-3.74c0-5.23-3.74-9.35-8.97-9.35-3.36,0-6.73,1.5-9.72,4.11-.75.75-1.12.37-1.87,0l-.37-.37c-.75-.75-.37-1.5.37-1.87,3.74-3.36,7.48-4.49,11.59-4.49,7.85,0,11.96,4.86,11.96,13.08v19.44c0,1.12-.37,1.5-1.12,1.5h-.75c-.75,0-1.12-.75-1.12-1.5v-3.74c-2.62,3.74-6.36,5.61-10.84,5.61-6.73.37-11.21-3.74-11.21-10.47Zm11.59,7.85c5.23,0,10.47-3.74,10.47-9.72v-2.62c-2.24-1.12-5.98-3.36-9.72-3.36-5.61,0-8.97,3.36-8.97,7.85,0,4.49,3.36,7.85,8.22,7.85Z"/></g><g id="c"><path class="p" d="m34.64,65.05c-.37-.75-.75-1.5.37-2.24h0c.37-.37,1.12-.75,1.87.37,2.62,3.74,5.98,5.98,11.21,5.98,6.36,0,10.84-4.11,10.84-11.59v-5.98c-1.87,3.74-6.36,5.23-11.21,5.23-8.22,0-14.21-5.61-14.21-14.95s5.98-14.95,14.21-14.95c4.86,0,9.35,2.24,11.21,6.36v-4.11c0-.75.37-1.5,1.12-1.5h.75c.75,0,1.12.37,1.12,1.5v28.41c0,10.09-6.36,14.58-14.21,14.58-5.23,0-9.72-2.62-13.08-7.1Zm13.46-11.21c6.73,0,11.21-4.49,11.21-11.96,0-8.22-4.49-11.96-11.21-11.96s-11.21,3.74-11.21,11.96c0,7.48,4.49,11.96,11.21,11.96Z"/></g><g id="d"><path class="p" d="m69.79,44.5c0-10.84,6.36-17.57,14.95-17.57,4.49,0,8.6,2.24,10.84,5.23,2.62,2.99,3.36,7.1,3.36,11.21,0,1.12-.75,1.87-1.5,1.87h-24.3c.37,8.22,5.98,13.08,11.96,13.08,3.36,0,7.1-1.87,10.47-5.23.75-.75,1.5-.37,1.87,0l.37.37c.75.75.37,1.5,0,2.24-3.36,4.11-8.22,5.61-12.34,5.61-8.22.37-15.7-5.98-15.7-16.82Zm25.79-2.24c0-3.36-.75-5.61-2.24-7.48-1.87-2.99-5.23-4.86-8.97-4.86-6.36,0-10.84,4.11-11.59,12.71h22.8v-.37Zm-17.94-22.06l6.73-4.49c.75-.37,1.12-.37,1.87,0l6.73,4.49c.75.37,1.12,1.12.75,1.87l-.37.37c-.37.37-1.12.75-1.87,0l-5.98-3.74-6.36,3.74c-.75.37-1.5.37-1.87,0l-.37-.37c-.37-.75,0-1.12.75-1.87Z"/></g><g id="e"><path class="p" d="m106.42,59.44v-30.65c0-.75.37-1.12,1.12-1.12h.75c.75,0,1.12.37,1.12,1.12v3.36c2.24-3.36,5.61-5.23,10.47-5.23,7.48,0,11.96,4.86,11.96,11.96v20.56c0,.75-.37,1.5-1.12,1.5h-.75c-.75,0-1.12-.37-1.12-1.5v-20.19c0-5.61-3.74-9.35-9.35-9.35s-9.72,4.11-9.72,9.72v20.19c0,.75-.37,1.5-1.12,1.5h-.75c-1.12-.37-1.5-1.12-1.5-1.87Z"/></g><g id="f"><path class="p" d="m139.31,43.74c0-10.84,6.73-16.82,15.7-16.82,4.11,0,8.22,1.5,11.96,5.61.37.37.75,1.5,0,1.87l-.37.37c-.75.37-1.12.75-1.87,0-3.36-3.74-6.36-4.86-9.72-4.86-7.1,0-12.34,4.86-12.34,14.21s4.86,14.58,12.34,14.58c2.99,0,6.36-1.12,9.72-4.86.75-.75,1.5-.75,1.87,0l.37.37c.75.75.37,1.5,0,1.87-3.36,4.11-7.85,5.61-11.96,5.61-9.35,0-15.7-6.36-15.7-17.94Z"/></g><g id="g"><path class="p" d="m175.58,15.7c1.5,0,2.62,1.12,2.62,2.62s-1.12,2.62-2.62,2.62-2.62-1.12-2.62-2.62,1.5-2.62,2.62-2.62Zm-1.5,43.74v-30.65c0-.75.37-1.12,1.12-1.12h.75c.75,0,1.12.37,1.12,1.12v30.65c0,.75-.37,1.5-1.12,1.5h-.75c-.75,0-1.12-.75-1.12-1.5Z"/></g><g id="h"><path class="p" d="m184.93,50.86c0-6.73,4.86-10.84,12.34-10.84,3.74,0,7.1,1.12,9.72,2.62v-3.74c0-5.23-3.74-9.35-8.97-9.35-3.36,0-6.73,1.5-9.72,4.11-.75.75-1.12.37-1.87,0l-.37-.37c-.75-.75-.37-1.5.37-1.87,3.74-3.36,7.48-4.49,11.59-4.49,7.85,0,11.96,4.86,11.96,13.08v19.44c0,1.12-.37,1.5-1.12,1.5h-.75c-.75,0-1.12-.75-1.12-1.5v-3.74c-2.62,3.74-6.36,5.61-10.84,5.61-6.73.37-11.21-3.74-11.21-10.47Zm11.59,7.85c5.23,0,10.47-3.74,10.47-9.72v-2.62c-2.24-1.12-5.98-3.36-9.72-3.36-5.61,0-8.97,3.36-8.97,7.85,0,4.49,3.36,7.85,8.22,7.85Z"/></g><g id="i"><path class="q" d="m218.94,57.94V22.06c0-1.87,1.12-2.62,2.62-2.62h14.21c7.85,0,13.08,4.86,13.08,11.21,0,3.74-1.87,7.1-4.86,8.6,3.74,1.5,7.1,5.23,7.1,10.47,0,6.73-5.61,11.59-14.21,11.59h-15.33c-1.5-.37-2.62-1.5-2.62-3.36Zm16.45-4.49c3.36,0,5.61-2.24,5.61-5.23,0-2.62-2.24-5.23-5.23-5.23h-5.98v10.09h5.61v.37Zm-1.12-16.82c2.99,0,4.49-2.24,4.49-4.86s-1.87-4.86-4.49-4.86h-4.86v9.72s4.86,0,4.86,0Z"/></g><g id="j"><path class="q" d="m256.34,58.31v-27.66c0-1.87,1.12-2.62,2.62-2.62h2.99c1.87,0,2.62,1.12,2.62,2.62v1.12c2.24-2.99,4.86-4.49,8.22-4.49,1.5,0,2.99.37,4.11.75,1.12.37,1.87.75,1.5,2.62l-.75,3.74c-.37,1.5-1.5,1.87-2.62,1.5-1.12-.37-2.24-.75-2.99-.75-3.36,0-5.23,2.24-5.23,5.98v16.82c0,1.87-1.12,2.62-2.62,2.62h-4.86c-2.24.37-2.99-.75-2.99-2.24Z"/></g><g id="k"><path class="q" d="m279.13,51.21c0-6.73,5.23-11.21,12.71-11.21,2.24,0,4.49.75,6.73,1.5v-1.12c0-2.99-1.87-5.61-5.23-5.61-2.99,0-5.23,1.12-6.73,1.87s-2.62.75-3.36-1.12l-.75-1.5c-1.12-1.87-.37-2.99.75-3.74,2.99-1.87,7.1-2.99,10.84-2.99,7.1,0,14.21,3.36,14.21,14.21v16.82c0,1.87-1.12,2.99-2.62,2.99h-2.62c-1.87,0-2.62-1.12-2.62-2.99v-.37c-2.62,2.62-5.98,4.11-9.35,4.11-7.1-.37-11.96-4.49-11.96-10.84Zm14.58,3.74c2.99,0,5.61-2.24,5.61-4.49v-3.36c-1.12-.75-3.36-1.5-5.23-1.5-2.99,0-4.86,1.5-4.86,4.49-.37,3.36,1.5,4.86,4.49,4.86Z"/></g><g id="l"><path class="q" d="m314.27,56.82c-1.5-1.12-1.5-2.24-.37-4.11l1.5-1.87c1.5-1.5,2.62-1.12,4.11-.37,1.87,1.5,4.49,2.99,7.48,2.99,1.87,0,2.62-1.5,2.62-2.62,0-1.5-1.87-2.99-3.74-3.74-5.23-1.87-11.21-3.36-11.21-10.47,0-6.36,4.86-10.47,12.34-10.47,4.11,0,8.97,1.5,10.84,3.74,1.5,1.12,1.5,2.24,0,4.11l-1.12,1.5c-1.12,1.5-2.62,1.5-3.74.37-1.5-1.5-3.36-2.24-5.61-2.24-1.87,0-2.99,1.5-2.99,2.62,0,1.87,2.62,2.62,6.36,4.11,4.86,2.24,8.6,4.49,8.6,10.09,0,6.73-5.23,10.47-12.71,10.47-5.23.75-10.09-1.5-12.34-4.11Z"/></g><g id="m"><path class="q" d="m349.79,12.34c3.36,0,5.98,2.62,5.98,5.98s-2.62,5.98-5.98,5.98-5.98-2.62-5.98-5.98,2.62-5.98,5.98-5.98Zm-5.23,45.98v-27.66c0-1.87,1.12-2.62,2.62-2.62h4.86c1.87,0,2.62,1.12,2.62,2.62v27.66c0,1.87-1.12,2.62-2.62,2.62h-4.86c-1.5,0-2.62-1.12-2.62-2.62Z"/></g><g id="n"><path class="q" d="m361.74,52.32v-31.4c0-1.87,1.12-2.24,2.62-2.62l4.86-.75c1.87-.37,2.62,1.12,2.62,2.62v31.4c0,.75,0,1.12.75,1.12.37,0,1.12,0,1.5-.37,1.12,0,1.87,0,2.24,1.5l.75,3.74c.37,1.5,0,2.24-1.12,2.62-1.87,1.12-3.74,1.12-5.23,1.12-5.61.37-8.97-2.62-8.97-8.97Z"/></g><g id="o"><path class="q" d="m383.43,40c0-22.06,17.94-40,40-40s40,17.94,40,40-17.94,40-40,40-40-17.94-40-40Zm15.33,1.5c10.47,4.86,19.07,12.71,24.67,22.8,1.5,2.99,5.23,3.74,7.85,1.5,9.72-7.85,16.82-19.07,19.07-31.78.37-2.99-.37-5.61-2.62-7.85-7.85-7.1-17.57-11.96-28.79-13.46-2.24-.37-4.86.37-6.73,1.87-7.1,5.23-12.71,11.59-16.45,19.44-1.12,2.99,0,6.36,2.99,7.48Z"/></g></svg>