<svg xml:space="preserve" width="32" height="32" xmlns="http://www.w3.org/2000/svg">
  <path d="M12.175 1.612C14.123-.404 17.3-.541 19.453 1.27c.923.752 1.503 1.845 2.05 2.904a381.671 381.671 0 0 1 8.2 16.812c.48 1.093.992 2.186 1.128 3.382.41 3.417-1.776 6.595-5.09 7.415a7.375 7.375 0 0 1-4.614-.376c-2.016-.82-3.69-2.29-5.125-3.861a18.34 18.34 0 0 1-3.588 3.11 8.261 8.261 0 0 1-3.656 1.298 6.898 6.898 0 0 1-4.203-.854 6.773 6.773 0 0 1-3.314-7.176c.205-.99.58-1.948 1.025-2.836a330.441 330.441 0 0 1 8.166-16.777c.479-.957.957-1.948 1.743-2.7m2.392.752a3.857 3.857 0 0 0-1.504 1.367c-.41.615-.717 1.298-1.093 1.948a417.037 417.037 0 0 0-7.859 16.23c-.41.888-.82 1.777-.923 2.734-.307 2.596 1.572 4.988 4.17 5.262h.067c1.23.102 2.46-.171 3.52-.82a14.1 14.1 0 0 0 3.69-3.144 22.71 22.71 0 0 1-2.938-4.51c-.82-1.675-1.367-3.554-1.06-5.433.24-1.435 1.094-2.734 2.324-3.485 2.153-1.333 4.954-1.06 6.834.615a5.302 5.302 0 0 1 1.606 3.656c.068 1.742-.513 3.417-1.299 4.954A24.992 24.992 0 0 1 17.3 25.94a17.298 17.298 0 0 0 3.246 2.87c.923.615 2.016 1.025 3.144 1.094 1.367.102 2.7-.41 3.69-1.367a4.829 4.829 0 0 0 1.367-4.066c-.17-1.128-.718-2.153-1.162-3.178A360.75 360.75 0 0 0 19.59 4.96c-.445-.854-.923-1.777-1.743-2.358-.957-.615-2.187-.751-3.28-.239m-.82 12.13c-.615.513-1.025 1.23-1.094 2.016a6.245 6.245 0 0 0 .513 3.144 19.45 19.45 0 0 0 2.836 4.715c.683-.854 1.298-1.777 1.88-2.7.717-1.263 1.332-2.596 1.503-4.065.136-.991-.137-2.016-.786-2.768-1.333-1.333-3.383-1.47-4.852-.342z" style="stroke-width:.341692"/>
</svg>