<?xml version="1.0" encoding="UTF-8" standalone="no"?>
<!-- Generator: Adobe Illustrator 23.0.6, SVG Export Plug-In . SVG Version: 6.00 Build 0)  -->

<svg version="1.1" id="Camada_1" x="0px" y="0px" viewBox="0 0 32 32" xml:space="preserve" sodipodi:docname="airbnb.svg" width="32" height="32" inkscape:version="1.4-beta2 (9aaf4f34, 2024-07-30)" xmlns:inkscape="http://www.inkscape.org/namespaces/inkscape" xmlns:sodipodi="http://sodipodi.sourceforge.net/DTD/sodipodi-0.dtd" xmlns="http://www.w3.org/2000/svg" xmlns:svg="http://www.w3.org/2000/svg" xmlns:rdf="http://www.w3.org/1999/02/22-rdf-syntax-ns#" xmlns:cc="http://creativecommons.org/ns#" xmlns:dc="http://purl.org/dc/elements/1.1/"><defs id="defs8" /><sodipodi:namedview id="namedview8" pagecolor="#ffffff" bordercolor="#000000" borderopacity="0.25" inkscape:showpageshadow="2" inkscape:pageopacity="0.0" inkscape:pagecheckerboard="0" inkscape:deskcolor="#d1d1d1" inkscape:zoom="0.44096406" inkscape:cx="120.1912" inkscape:cy="96.379738" inkscape:window-width="1440" inkscape:window-height="872" inkscape:window-x="0" inkscape:window-y="0" inkscape:window-maximized="1" inkscape:current-layer="Camada_1" />
<title id="title1">airbnb</title>
<path d="m 12.17496,1.611558 c 1.947647,-2.015985 5.125386,-2.152662 7.278048,-0.341693 0.922569,0.751724 1.503446,1.845139 2.050154,2.904386 2.870216,5.535416 5.603755,11.139171 8.200617,16.811264 0.478369,1.093416 0.990908,2.186832 1.127585,3.382755 0.410031,3.416924 -1.7768,6.594663 -5.091216,7.414725 -1.537616,0.375861 -3.14357,0.239184 -4.612848,-0.375862 -2.015985,-0.820062 -3.690277,-2.289339 -5.125385,-3.861124 -1.059247,1.195923 -2.25517,2.221001 -3.58777,3.109401 -1.093416,0.717554 -2.357678,1.161754 -3.6561085,1.298431 C 7.2887593,32.124687 5.8194821,31.817164 4.5552203,31.09961 2.0266967,29.664502 0.69409645,26.794286 1.2408042,23.92407 1.4458197,22.933162 1.8216813,21.976423 2.2658814,21.088023 4.8285742,15.41593 7.5621132,9.812175 10.432329,4.310928 10.910698,3.354189 11.389068,2.363281 12.17496,1.611558 m 2.391847,0.751723 c -0.615046,0.307523 -1.127585,0.785893 -1.503447,1.36677 -0.41003,0.615046 -0.717554,1.298431 -1.093415,1.947646 -2.7335392,5.36457 -5.3645704,10.76331 -7.8589248,16.230388 -0.4100308,0.8884 -0.8200617,1.7768 -0.9225694,2.733539 -0.3075231,2.596862 1.5717849,4.988709 4.168647,5.262062 0.034169,0 0.034169,0 0.068338,0 1.2300926,0.102508 2.4601851,-0.170846 3.5194312,-0.820061 1.400939,-0.820062 2.631032,-1.879308 3.690278,-3.14357 -1.161754,-1.400939 -2.152662,-2.904385 -2.938554,-4.510339 -0.820062,-1.674293 -1.36677,-3.553601 -1.059247,-5.432909 0.239185,-1.435108 1.093416,-2.733539 2.323509,-3.485262 2.152662,-1.332601 4.954539,-1.059247 6.833847,0.615046 0.990908,0.956738 1.571785,2.289339 1.605954,3.656108 0.06834,1.742631 -0.512538,3.416924 -1.298431,4.95454 -0.785892,1.503446 -1.742631,2.904385 -2.801877,4.202816 0.956739,1.093416 2.050154,2.050154 3.246077,2.870216 0.92257,0.615046 2.015985,1.025077 3.14357,1.093415 1.36677,0.102508 2.69937,-0.41003 3.690278,-1.366769 1.059246,-1.059246 1.571785,-2.562693 1.366769,-4.066139 C 28.576194,23.343193 28.029486,22.318116 27.585286,21.293039 25.056763,15.791791 22.391562,10.324713 19.589685,4.960143 19.145485,4.105912 18.667115,3.183343 17.847054,2.602466 16.890315,1.987419 15.660222,1.850742 14.566807,2.363281 M 13.746745,14.49336 c -0.615046,0.512539 -1.025077,1.230093 -1.093415,2.015985 -0.102508,1.059247 0.06834,2.152662 0.512538,3.14357 0.717554,1.708462 1.674293,3.280247 2.836047,4.715355 0.683385,-0.854231 1.298431,-1.7768 1.879308,-2.69937 0.717554,-1.264262 1.3326,-2.596862 1.503446,-4.066139 0.136677,-0.990908 -0.136677,-2.015985 -0.785892,-2.767708 -1.3326,-1.332601 -3.382755,-1.469277 -4.852032,-0.341693 z" id="path1" style="stroke-width:0.341692" />







<metadata id="metadata8"><rdf:RDF><cc:Work rdf:about=""><dc:title>airbnb</dc:title></cc:Work></rdf:RDF></metadata></svg>
