<?xml version="1.0" encoding="UTF-8" standalone="no"?>
<svg viewBox="0 0 32 32" width="32" height="32" version="1.1" id="svg1" sodipodi:docname="aliexpress.svg" inkscape:version="1.4-beta2 (9aaf4f34, 2024-07-30)" xmlns:inkscape="http://www.inkscape.org/namespaces/inkscape" xmlns:sodipodi="http://sodipodi.sourceforge.net/DTD/sodipodi-0.dtd" xmlns="http://www.w3.org/2000/svg" xmlns:svg="http://www.w3.org/2000/svg">
  <defs id="defs1" />
  <sodipodi:namedview id="namedview1" pagecolor="#ffffff" bordercolor="#000000" borderopacity="0.25" inkscape:showpageshadow="2" inkscape:pageopacity="0.0" inkscape:pagecheckerboard="0" inkscape:deskcolor="#d1d1d1" inkscape:zoom="0.52" inkscape:cx="25" inkscape:cy="24.038462" inkscape:window-width="1440" inkscape:window-height="790" inkscape:window-x="0" inkscape:window-y="0" inkscape:window-maximized="1" inkscape:current-layer="svg1" />
  <g id="g1" transform="matrix(0.76190476,0,0,0.76190476,-3.047619,-3.047619)">
    <path d="M 9,4 C 6.2504839,4 4,6.2504839 4,9 v 32 c 0,2.749516 2.2504839,5 5,5 h 32 c 2.749516,0 5,-2.250484 5,-5 V 9 C 46,6.2504839 43.749516,4 41,4 Z m 0,2 h 32 c 1.668484,0 3,1.3315161 3,3 v 3.380859 C 43.266738,11.541629 42.201883,11 41,11 H 9 C 7.7981175,11 6.7332621,11.541629 6,12.380859 V 9 C 6,7.3315161 7.3315161,6 9,6 Z m 6,11 c 0.553,0 1,0.448 1,1 0,4.962 4.037,9 9,9 4.963,0 9,-4.038 9,-9 0,-0.552 0.447,-1 1,-1 0.553,0 1,0.448 1,1 0,6.065 -4.935,11 -11,11 -6.065,0 -11,-4.935 -11,-11 0,-0.552 0.447,-1 1,-1 z" id="path1" />
  </g>
</svg>
