<?xml version="1.0" encoding="utf-8"?>
<!-- Generator: Adobe Illustrator 23.0.6, SVG Export Plug-In . SVG Version: 6.00 Build 0)  -->
<svg version="1.1" id="Camada_1" xmlns="http://www.w3.org/2000/svg" xmlns:xlink="http://www.w3.org/1999/xlink" x="0px" y="0px"
	 viewBox="0 0 300 100" style="enable-background:new 0 0 300 100;" xml:space="preserve">
<title>aliexpress</title>
<g id="_ffffffff">
	<path d="M64.3,13.9c1,1.4,0.6,3.5,1.7,4.9c1.6,3,5,4.2,8.2,4.7c-2.8,0.5-5.8,1.2-7.6,3.7c-1.5,1.6-1.4,4-2.2,5.9
		c-0.4-2.7-1.1-5.5-3.4-7.3c-1.7-1.7-4.1-1.8-6.3-2.4c2.2-0.5,4.6-0.9,6.4-2.5C63.2,19.3,63.9,16.5,64.3,13.9z"/>
	<path d="M18.2,20.5c2.1,0,4.2,0,6.3,0C30.7,36.4,36.9,52.4,43,68.3c-2,0-4,0-6,0c-1.5-3.8-3-7.7-4.5-11.5c-7.4,0-14.8,0-22.2,0
		c-1.6,3.8-2.9,7.7-4.5,11.5c-2,0-4.1,0-6.1-0.1v-0.9C1,66,1.4,64.2,2,62.6C7.4,48.6,12.8,34.5,18.2,20.5 M21.1,28.9
		c-2.8,7.2-5.6,14.5-8.4,21.7h17.5c-2.9-7.3-5.9-14.7-8.4-22.2L21.1,28.9z"/>
	<path d="M46.6,20.5c2,0,4.1,0,6.1,0c0,15.9,0,31.8,0,47.7c-2,0-4.1,0-6.1,0C46.6,52.4,46.6,36.5,46.6,20.5z"/>
	<path d="M76.2,20.5c9.5,0,19,0,28.6,0c0,2.1,0,4.1,0,6.2c-7.4,0.1-14.9,0-22.3,0c0,4.8,0,9.6,0,14.4c6.6,0.1,13.2,0,19.8,0
		c0,2,0,4,0,6c-6.6,0-13.2-0.1-19.8,0c0.1,4.9,0.1,9.8,0,14.7c8,0.2,16,0,24,0.1c-0.1,2.1,0,4.1,0,6.2H76.1
		C76.2,52.4,76.2,36.5,76.2,20.5z"/>
	<path d="M192.9,37.4c3.4-2.8,7.7-4.5,12.1-4.6c0,2.1,0,4.2,0,6.2c-6.4,0.1-11.6,5.1-12,11.4c-0.1,6,0,11.9,0,17.9
		c-2-0.1-4.1,0-6.1,0c-0.1-11.4,0.1-22.9,0-34.3c2.1,0,4.1,0,6.2,0C192.9,35.1,192.9,36.3,192.9,37.4z"/>
	<path d="M109,34c2.4,0,4.8-0.1,7.3,0c3.4,4,6.5,8.3,9.7,12.5c3.5-4,6.5-8.4,9.8-12.5c2.5,0,4.9,0,7.4,0
		c-4.5,5.6-8.8,11.4-13.3,17.1c4.3,5.8,8.9,11.4,13.2,17.2c-2.4,0-4.9-0.1-7.3,0c-3.3-4.2-6.4-8.4-9.8-12.5
		c-3.1,4.2-6.4,8.2-9.5,12.5c-2.5,0.1-4.9,0.1-7.4,0c4.4-5.7,8.9-11.4,13.2-17.1C117.8,45.5,113.6,39.6,109,34z"/>
	<path d="M146.4,46.5c2.7-9.7,12.8-15.4,22.5-12.7c5.5,1.5,9.9,5.5,12.1,10.7c3.7,9.3-0.8,19.9-10.2,23.6c-2.2,0.9-4.5,1.3-6.8,1.3
		c-4.5-0.3-8.8-2.3-12-5.5c0.1,7.4,0,14.9,0.1,22.4c-2.1,0.1-4.2,0-6.2,0.1c0-10.9,0-21.7,0-32.6C145.7,51.3,145.9,48.8,146.4,46.5
		 M160.2,39.5c-7.6,2.3-10.5,12.4-6.2,18.8c3.5,5.7,12.1,7.1,17.3,2.9c5.3-3.9,6.3-12.1,2.5-17.3C170.7,39.5,165.2,37.8,160.2,39.5
		L160.2,39.5z"/>
	<path d="M211.4,38.3c4.2-4.2,10.1-6,15.9-5c5.9,1.1,10.7,5.4,12.4,11.1c1,3.2,0.6,6.5,0.6,9.8c-9.3-0.2-18.7,0-28-0.1
		c1.1,4,4.1,7.3,8.1,8.7c4.8,1.6,10.1,0.2,13.5-3.6c1.4,1.3,3,2.5,4.5,3.7c-3.3,3.7-8,6-13,6.3c-6.8,0.3-13.2-3.2-16.6-9
		C204.6,53.3,205.6,44.3,211.4,38.3 M222.8,39.2c-5.1,0.4-9.2,4.4-10.5,9.2c7.4,0.3,14.7,0,22.1,0.1c-0.5-5.7-5.6-9.9-11.3-9.4
		C222.9,39.1,222.8,39.1,222.8,39.2L222.8,39.2z"/>
	<path d="M247.3,36.2c6.4-5.2,17-4,21.7,2.9c-1.5,1.1-3.1,2.1-4.8,3.1c-2.8-4.2-9.6-5.3-13.3-1.7c-1.3,1.2-1.4,3.3-0.2,4.7
		c0.2,0.2,0.4,0.4,0.7,0.6c4.5,2.8,10.4,2.1,14.8,5.1c5.3,3.5,4.8,12.5-0.5,15.9c-7.2,4.6-17.7,2.9-23.2-3.7
		c1.6-1.2,3.2-2.4,4.7-3.6c3,4.4,9.7,6,14.2,3.1c1.8-1.1,2.6-3.4,1.9-5.5c-0.9-1.8-2.9-2.7-4.8-3.2c-3.8-1-7.8-1.4-11.1-3.6
		C242.8,47.2,243,39.6,247.3,36.2z"/>
	<path d="M276.9,36.4c6.4-5.4,17.1-4.3,22,2.7c-1.5,1.1-3.1,2.1-4.7,3.2c-2.8-4.1-9.1-5.3-13-2.2c-1.7,1.3-2.1,4.2-0.2,5.4
		c4.5,3.1,10.7,2.2,15.1,5.4c5.4,3.6,4.7,12.8-0.8,16c-7.3,4.4-17.4,2.6-22.9-3.8c1.6-1.2,3.2-2.4,4.7-3.6c2.7,3.6,7.3,5.3,11.7,4.2
		c2.2-0.5,4.4-2.1,4.7-4.4s-1.7-4.3-3.8-5c-4.3-1.5-9.3-1.5-13-4.5C272.6,46.5,273,39.7,276.9,36.4z"/>
	<path d="M61.3,34.2h6.2c0,11.4,0,22.8,0,34.1c-2.1,0-4.1,0-6.2,0C61.3,56.9,61.3,45.5,61.3,34.2z"/>
</g>
</svg>
