<?xml version="1.0" encoding="UTF-8" standalone="no"?>
<svg id="a" viewBox="0 0 32.000001 32" version="1.1" sodipodi:docname="aljazeera.svg" width="32" height="32" inkscape:version="1.4-beta2 (9aaf4f34, 2024-07-30)" xmlns:inkscape="http://www.inkscape.org/namespaces/inkscape" xmlns:sodipodi="http://sodipodi.sourceforge.net/DTD/sodipodi-0.dtd" xmlns="http://www.w3.org/2000/svg" xmlns:svg="http://www.w3.org/2000/svg">
  <defs id="defs19" />
  <sodipodi:namedview id="namedview19" pagecolor="#ffffff" bordercolor="#000000" borderopacity="0.25" inkscape:showpageshadow="2" inkscape:pageopacity="0.0" inkscape:pagecheckerboard="0" inkscape:deskcolor="#d1d1d1" inkscape:zoom="2.5239886" inkscape:cx="56.656358" inkscape:cy="65.174622" inkscape:window-width="1440" inkscape:window-height="872" inkscape:window-x="0" inkscape:window-y="0" inkscape:window-maximized="1" inkscape:current-layer="a" />
  <g id="g19" transform="matrix(0.39995001,0,0,0.39995001,6.3478968,-1.5005e-7)">
    <path d="m 24.91,0 h 1.4 c -1.15,1.07 -2.47,2.31 -2.47,3.96 -0.25,3.05 1.48,5.86 3.22,8.25 7.01,8.82 14.35,17.65 18.72,28.21 2.47,5.94 3.46,12.87 1.32,19.05 -1.15,3.79 -4.04,6.76 -7.84,8 -3.22,0.99 -6.76,0.82 -9.9,-0.41 0.16,-1.4 0.49,-2.89 0.91,-4.21 3.88,1.32 8.08,0.33 10.97,-2.56 C 45.69,55.92 46.52,48.91 44.13,43.3 39.92,32.33 31.68,23.59 24.75,14.27 c -1.48,1.9 -1.32,4.62 0.41,6.35 3.13,3.71 7.01,6.85 9.24,11.22 1.32,2.39 1.73,5.28 1.07,8 1.4,-1.07 2.64,-2.31 3.71,-3.71 0.99,4.12 2.39,8.49 1.32,12.7 -1.9,5.61 -7.59,8.41 -10.47,13.36 -1.65,4.62 -1.15,9.73 -2.39,14.52 -0.41,1.65 -1.65,2.89 -3.3,3.3 h -2.06 c -3.3,-0.58 -5.69,-3.22 -7.18,-6.02 -0.58,-0.82 -1.48,-2.8 0.33,-2.72 1.4,2.14 2.97,4.78 5.86,4.95 1.98,-0.25 3.13,-1.98 3.63,-3.79 1.07,-4.45 0.91,-9.15 2.64,-13.36 2.56,-5.03 7.92,-7.75 10.64,-12.62 0.66,-1.15 0.99,-2.47 0.99,-3.79 -2.39,2.39 -5.69,3.88 -7.51,6.76 -0.58,-1.98 -2.06,-4.54 -0.33,-6.35 1.98,-2.23 3.38,-5.61 1.81,-8.49 -1.9,-3.63 -4.78,-6.52 -7.75,-9.32 0.82,4.87 -0.74,9.81 -3.05,14.02 -1.9,3.3 -2.89,7.01 -2.97,10.8 l -1.24,1.24 c -0.33,-2.14 -0.33,-4.29 -0.08,-6.35 0.91,-6.52 5.28,-11.88 6.1,-18.39 0.49,-3.05 -1.98,-5.61 -1.81,-8.66 -0.08,-1.73 0.91,-3.3 1.73,-4.78 C 23.02,10.91 22.11,8.52 22.28,5.96 22.44,3.82 23.1,1.34 25.25,0.35 L 24.92,0.02 Z" style="stroke-width:0px" id="path1" />
    <path d="m 16.58,22.1 c -1.07,-1.48 -0.58,-3.96 1.4,-4.21 1.48,-0.33 2.89,0.58 3.22,1.98 v 0.08 c 1.4,4.87 0.99,10.06 -1.15,14.6 -2.64,5.44 -5.36,10.97 -6.52,16.99 -0.91,4.78 -0.99,9.65 -0.08,14.35 l -1.07,0.91 c -1.9,-8.49 -1.24,-17.32 2.06,-25.4 1.73,-4.95 4.87,-9.32 6.1,-14.43 -2.8,3.96 -7.59,5.61 -11.13,8.66 -5.2,3.63 -8.66,10.39 -6.93,16.82 0.41,-1.57 1.07,-3.79 2.97,-4.04 2.39,-0.49 3.79,2.06 4.54,3.96 0.91,2.47 1.57,5.69 -0.16,8 -2.14,1.48 -4.78,-0.16 -6.19,-1.9 0,2.97 0.66,6.27 3.05,8.33 2.31,1.73 5.61,1.24 7.34,-1.07 0.16,-0.16 0.25,-0.41 0.41,-0.58 2.39,-3.79 1.98,-8.49 3.3,-12.62 1.73,-2.47 4.62,-3.96 6.19,-6.6 0.08,1.81 0.82,3.63 0.49,5.44 -1.24,2.14 -3.55,3.46 -5.28,5.28 -0.74,4.37 -0.49,9.07 -2.89,12.95 -1.9,3.05 -6.52,3.05 -9.07,0.91 -4.29,-3.38 -5.36,-9.24 -5.2,-14.35 -2.31,-5.2 -2.97,-11.55 0,-16.66 3.05,-5.36 8.82,-8 13.77,-11.13 2.31,-1.4 4.62,-3.38 4.87,-6.19 -1.15,0.82 -2.72,1.32 -3.88,0.08 1.73,1.15 1.57,4.45 -0.74,4.78 -2.06,0.74 -4.04,-1.98 -2.72,-3.71 0.58,-1.48 2.14,-1.48 3.3,-1.24 M 3.97,56 C 5.29,56.82 7.43,57.15 8.34,55.67 9.41,54.6 8.18,52.62 6.77,52.95 5.36,53.28 4.46,54.68 3.97,56 Z" style="stroke-width:0px" id="path2" />
    <path d="m 30.44,35.05 c 0.25,0.74 0.74,1.73 0.08,2.47 -1.9,2.14 -3.79,4.29 -5.86,6.35 0,-0.49 0.08,-1.57 0.08,-2.06 1.73,-2.47 4.12,-4.29 5.69,-6.76 z" style="stroke-width:0px" id="path3" />
    <path d="m 7.93,41.32 c 0.91,-1.48 2.06,-3.22 3.88,-3.63 -0.82,1.81 -4.78,3.96 -2.31,5.77 0.33,-0.66 0.74,-1.32 1.24,-1.9 0.25,1.4 -0.41,2.8 -1.65,3.55 -1.98,0.16 -1.81,-2.56 -1.15,-3.79 z" style="stroke-width:0px" id="path4" />
    <path d="m 25.57,52.87 c 0.58,-1.32 1.15,-2.56 1.73,-3.79 1.07,0.49 2.23,0.99 3.3,1.48 -0.58,1.32 -1.24,2.64 -1.81,3.96 -0.99,-0.66 -2.06,-1.15 -3.22,-1.65 z" style="stroke-width:0px" id="path14" />
    <path d="m 21.04,55.42 c 1.4,2.06 3.13,3.88 5.2,5.36 -0.33,1.24 -0.58,2.47 -0.82,3.79 -2.56,-2.14 -4.54,-4.95 -5.69,-8.08 l 1.32,-1.07 z" style="stroke-width:0px" id="path15" />
    <path d="m 37.53,55.51 c 1.15,0.41 2.31,0.91 3.38,1.48 -0.66,1.24 -1.15,2.56 -1.81,3.88 -1.07,-0.49 -2.23,-0.99 -3.3,-1.57 0.58,-1.24 1.15,-2.56 1.73,-3.79 z" style="stroke-width:0px" id="path16" />
    <path d="m 18.89,66.97 c 0.91,-1.07 1.73,-2.23 2.72,-3.3 0.91,0.74 1.9,1.48 2.8,2.31 -0.82,1.15 -1.81,2.23 -2.8,3.3 -0.99,-0.82 -1.81,-1.65 -2.72,-2.31 z" style="stroke-width:0px" id="path17" />
    <path d="m 18.32,72.41 c 0.82,-1.24 1.73,-2.39 2.72,-3.38 0.91,0.82 1.73,1.57 2.72,2.31 -0.82,1.15 -1.81,2.23 -2.8,3.22 -0.82,-0.66 -1.73,-1.4 -2.64,-2.14 z" style="stroke-width:0px" id="path18" />
    <path d="m 30.52,69.86 c 1.81,0 0.99,3.88 3.05,2.8 0.08,-0.33 0.25,-0.91 0.25,-1.24 0.91,0.91 1.81,3.46 -0.16,3.46 -2.06,-0.74 -2.56,-3.13 -3.13,-5.03 z" style="stroke-width:0px" id="path19" />
  </g>
</svg>
