<?xml version="1.0" encoding="UTF-8"?><svg id="a" xmlns="http://www.w3.org/2000/svg" viewBox="0 0 247.43 80"><path d="m24.91,0h1.4c-1.15,1.07-2.47,2.31-2.47,3.96-.25,3.05,1.48,5.86,3.22,8.25,7.01,8.82,14.35,17.65,18.72,28.21,2.47,5.94,3.46,12.87,1.32,19.05-1.15,3.79-4.04,6.76-7.84,8-3.22.99-6.76.82-9.9-.41.16-1.4.49-2.89.91-4.21,3.88,1.32,8.08.33,10.97-2.56,4.45-4.37,5.28-11.38,2.89-16.99-4.21-10.97-12.45-19.71-19.38-29.03-1.48,1.9-1.32,4.62.41,6.35,3.13,3.71,7.01,6.85,9.24,11.22,1.32,2.39,1.73,5.28,1.07,8,1.4-1.07,2.64-2.31,3.71-3.71.99,4.12,2.39,8.49,1.32,12.7-1.9,5.61-7.59,8.41-10.47,13.36-1.65,4.62-1.15,9.73-2.39,14.52-.41,1.65-1.65,2.89-3.3,3.3h-2.06c-3.3-.58-5.69-3.22-7.18-6.02-.58-.82-1.48-2.8.33-2.72,1.4,2.14,2.97,4.78,5.86,4.95,1.98-.25,3.13-1.98,3.63-3.79,1.07-4.45.91-9.15,2.64-13.36,2.56-5.03,7.92-7.75,10.64-12.62.66-1.15.99-2.47.99-3.79-2.39,2.39-5.69,3.88-7.51,6.76-.58-1.98-2.06-4.54-.33-6.35,1.98-2.23,3.38-5.61,1.81-8.49-1.9-3.63-4.78-6.52-7.75-9.32.82,4.87-.74,9.81-3.05,14.02-1.9,3.3-2.89,7.01-2.97,10.8l-1.24,1.24c-.33-2.14-.33-4.29-.08-6.35.91-6.52,5.28-11.88,6.1-18.39.49-3.05-1.98-5.61-1.81-8.66-.08-1.73.91-3.3,1.73-4.78-1.07-2.23-1.98-4.62-1.81-7.18.16-2.14.82-4.62,2.97-5.61l-.33-.33Z" style="stroke-width:0px;"/><path d="m16.58,22.1c-1.07-1.48-.58-3.96,1.4-4.21,1.48-.33,2.89.58,3.22,1.98v.08c1.4,4.87.99,10.06-1.15,14.6-2.64,5.44-5.36,10.97-6.52,16.99-.91,4.78-.99,9.65-.08,14.35l-1.07.91c-1.9-8.49-1.24-17.32,2.06-25.4,1.73-4.95,4.87-9.32,6.1-14.43-2.8,3.96-7.59,5.61-11.13,8.66-5.2,3.63-8.66,10.39-6.93,16.82.41-1.57,1.07-3.79,2.97-4.04,2.39-.49,3.79,2.06,4.54,3.96.91,2.47,1.57,5.69-.16,8-2.14,1.48-4.78-.16-6.19-1.9,0,2.97.66,6.27,3.05,8.33,2.31,1.73,5.61,1.24,7.34-1.07.16-.16.25-.41.41-.58,2.39-3.79,1.98-8.49,3.3-12.62,1.73-2.47,4.62-3.96,6.19-6.6.08,1.81.82,3.63.49,5.44-1.24,2.14-3.55,3.46-5.28,5.28-.74,4.37-.49,9.07-2.89,12.95-1.9,3.05-6.52,3.05-9.07.91-4.29-3.38-5.36-9.24-5.2-14.35-2.31-5.2-2.97-11.55,0-16.66,3.05-5.36,8.82-8,13.77-11.13,2.31-1.4,4.62-3.38,4.87-6.19-1.15.82-2.72,1.32-3.88.08,1.73,1.15,1.57,4.45-.74,4.78-2.06.74-4.04-1.98-2.72-3.71.58-1.48,2.14-1.48,3.3-1.24M3.97,56c1.32.82,3.46,1.15,4.37-.33,1.07-1.07-.16-3.05-1.57-2.72s-2.31,1.73-2.8,3.05Z" style="stroke-width:0px;"/><path d="m30.44,35.05c.25.74.74,1.73.08,2.47-1.9,2.14-3.79,4.29-5.86,6.35,0-.49.08-1.57.08-2.06,1.73-2.47,4.12-4.29,5.69-6.76Z" style="stroke-width:0px;"/><path d="m7.93,41.32c.91-1.48,2.06-3.22,3.88-3.63-.82,1.81-4.78,3.96-2.31,5.77.33-.66.74-1.32,1.24-1.9.25,1.4-.41,2.8-1.65,3.55-1.98.16-1.81-2.56-1.15-3.79Z" style="stroke-width:0px;"/><path d="m63.84,43.79h6.93c2.8,8,5.61,16.08,8.41,24.16h-6.76c-.41-1.48-.91-2.97-1.32-4.45-2.56,0-5.2-.08-7.75.08-.33,1.48-.82,2.89-1.24,4.37-2.14,0-4.29,0-6.35.08,2.56-8.16,5.44-16.16,8.08-24.25m1.4,14.02h4.29c-.66-2.31-1.4-4.7-2.06-7.01-.99,2.39-1.57,4.7-2.23,7.01h0Z" style="stroke-width:0px;"/><path d="m82.81,43.79h6.27c.08,6.19,0,12.37.08,18.56h7.59v5.61h-13.86c-.08-8.08-.08-16.08-.08-24.16Z" style="stroke-width:0px;"/><path d="m102.03,43.79c2.14,0,4.21-.08,6.27.08-.08,8.25,0,16.58,0,24.82-.08,2.72-1.24,5.77-3.71,7.18-2.72,1.4-6.1.82-8.74-.33.49-1.81.99-3.55,1.4-5.28,1.81.82,4.45.25,4.62-2.06.33-8.16,0-16.25.16-24.41Z" style="stroke-width:0px;"/><path d="m119.93,43.79h6.93c2.72,8.08,5.53,16.08,8.33,24.08h-6.68c-.49-1.48-.91-2.97-1.4-4.45-2.56,0-5.11-.08-7.75.08-.41,1.48-.91,2.89-1.32,4.37-2.14,0-4.21.08-6.35-.08,2.8-8,5.53-16.08,8.25-24m3.46,6.93c-.74,2.31-1.4,4.7-2.06,7.01h4.21c-.74-2.23-1.4-4.54-2.14-7.01h0Z" style="stroke-width:0px;"/><path d="m139.22,43.79h16.74c-.08,2.06.08,4.21-.08,6.27-2.8,4.12-5.69,8.25-8.58,12.37h8.82v5.44h-17.15c-.08-2.14-.08-4.21,0-6.35,2.8-4.12,5.77-8.16,8.58-12.37h-8.33c-.08-1.73,0-3.55,0-5.36Z" style="stroke-width:0px;"/><path d="m161,43.79h15.67v5.44h-9.4v4.12h8.08v5.28h-8.08c0,1.32,0,2.56-.08,3.88,3.46.16,6.85,0,10.31.08v5.28h-16.49v-24.08Z" style="stroke-width:0px;"/><path d="m182.19,43.79h15.51v5.44h-9.24v4.12h8.08v5.28h-8.08v3.96c3.38.08,6.76,0,10.14,0v5.28h-16.33l-.08-24.08Z" style="stroke-width:0px;"/><path d="m203.31,43.79c3.71.08,7.42-.08,11.13.08,2.39.16,4.87,1.4,5.61,3.79,1.32,3.05.33,7.01-2.72,8.58,2.47,3.46,3.38,7.84,5.03,11.71h-6.52c-1.15-2.64-1.98-5.36-3.22-8-.49-1.24-1.98-.99-3.05-.99v8.91h-6.27v-24.08m6.1,5.44v4.29c1.48,0,2.97.16,4.37-.58.33-.91.74-1.9.08-2.8-1.07-1.32-2.97-.82-4.45-.91Z" style="stroke-width:0px;"/><path d="m232.01,43.79h6.93c2.8,8,5.44,16.08,8.49,24.08h0c-2.31.08-4.54.08-6.85.08-.41-1.48-.91-2.97-1.32-4.45h-7.67c-.41,1.48-.99,2.97-1.4,4.45h-6.35c2.72-8,5.44-16.08,8.16-24.16m1.4,14.1h4.12c-.74-2.31-1.32-4.7-2.14-7.01-.66,2.31-1.32,4.62-1.98,7.01h0Z" style="stroke-width:0px;"/><path d="m25.57,52.87c.58-1.32,1.15-2.56,1.73-3.79,1.07.49,2.23.99,3.3,1.48-.58,1.32-1.24,2.64-1.81,3.96-.99-.66-2.06-1.15-3.22-1.65Z" style="stroke-width:0px;"/><path d="m21.04,55.42c1.4,2.06,3.13,3.88,5.2,5.36-.33,1.24-.58,2.47-.82,3.79-2.56-2.14-4.54-4.95-5.69-8.08l1.32-1.07Z" style="stroke-width:0px;"/><path d="m37.53,55.51c1.15.41,2.31.91,3.38,1.48-.66,1.24-1.15,2.56-1.81,3.88-1.07-.49-2.23-.99-3.3-1.57.58-1.24,1.15-2.56,1.73-3.79Z" style="stroke-width:0px;"/><path d="m18.89,66.97c.91-1.07,1.73-2.23,2.72-3.3.91.74,1.9,1.48,2.8,2.31-.82,1.15-1.81,2.23-2.8,3.3-.99-.82-1.81-1.65-2.72-2.31Z" style="stroke-width:0px;"/><path d="m18.32,72.41c.82-1.24,1.73-2.39,2.72-3.38.91.82,1.73,1.57,2.72,2.31-.82,1.15-1.81,2.23-2.8,3.22-.82-.66-1.73-1.4-2.64-2.14Z" style="stroke-width:0px;"/><path d="m30.52,69.86c1.81,0,.99,3.88,3.05,2.8.08-.33.25-.91.25-1.24.91.91,1.81,3.46-.16,3.46-2.06-.74-2.56-3.13-3.13-5.03Z" style="stroke-width:0px;"/></svg>