<svg width="32" height="32" xmlns="http://www.w3.org/2000/svg">
  <path d="M24.91 0h1.4c-1.15 1.07-2.47 2.31-2.47 3.96-.25 3.05 1.48 5.86 3.22 8.25 7.01 8.82 14.35 17.65 18.72 28.21 2.47 5.94 3.46 12.87 1.32 19.05a12.062 12.062 0 0 1-7.84 8c-3.22.99-6.76.82-9.9-.41.16-1.4.49-2.89.91-4.21 3.88 1.32 8.08.33 10.97-2.56 4.45-4.37 5.28-11.38 2.89-16.99-4.21-10.97-12.45-19.71-19.38-29.03a4.802 4.802 0 0 0 .41 6.35c3.13 3.71 7.01 6.85 9.24 11.22a11.2 11.2 0 0 1 1.07 8 19.75 19.75 0 0 0 3.71-3.71c.99 4.12 2.39 8.49 1.32 12.7-1.9 5.61-7.59 8.41-10.47 13.36-1.65 4.62-1.15 9.73-2.39 14.52a4.469 4.469 0 0 1-3.3 3.3h-2.06c-3.3-.58-5.69-3.22-7.18-6.02-.58-.82-1.48-2.8.33-2.72 1.4 2.14 2.97 4.78 5.86 4.95 1.98-.25 3.13-1.98 3.63-3.79 1.07-4.45.91-9.15 2.64-13.36 2.56-5.03 7.92-7.75 10.64-12.62.66-1.15.99-2.47.99-3.79-2.39 2.39-5.69 3.88-7.51 6.76-.58-1.98-2.06-4.54-.33-6.35 1.98-2.23 3.38-5.61 1.81-8.49-1.9-3.63-4.78-6.52-7.75-9.32.82 4.87-.74 9.81-3.05 14.02-1.9 3.3-2.89 7.01-2.97 10.8l-1.24 1.24c-.33-2.14-.33-4.29-.08-6.35.91-6.52 5.28-11.88 6.1-18.39.49-3.05-1.98-5.61-1.81-8.66-.08-1.73.91-3.3 1.73-4.78-1.07-2.23-1.98-4.62-1.81-7.18.16-2.14.82-4.62 2.97-5.61l-.33-.33Z" style="stroke-width:0" transform="translate(6.348) scale(.39995)"/>
  <path d="M16.58 22.1c-1.07-1.48-.58-3.96 1.4-4.21 1.48-.33 2.89.58 3.22 1.98v.08c1.4 4.87.99 10.06-1.15 14.6-2.64 5.44-5.36 10.97-6.52 16.99-.91 4.78-.99 9.65-.08 14.35l-1.07.91c-1.9-8.49-1.24-17.32 2.06-25.4 1.73-4.95 4.87-9.32 6.1-14.43-2.8 3.96-7.59 5.61-11.13 8.66-5.2 3.63-8.66 10.39-6.93 16.82.41-1.57 1.07-3.79 2.97-4.04 2.39-.49 3.79 2.06 4.54 3.96.91 2.47 1.57 5.69-.16 8-2.14 1.48-4.78-.16-6.19-1.9 0 2.97.66 6.27 3.05 8.33 2.31 1.73 5.61 1.24 7.34-1.07.16-.16.25-.41.41-.58 2.39-3.79 1.98-8.49 3.3-12.62 1.73-2.47 4.62-3.96 6.19-6.6.08 1.81.82 3.63.49 5.44-1.24 2.14-3.55 3.46-5.28 5.28-.74 4.37-.49 9.07-2.89 12.95-1.9 3.05-6.52 3.05-9.07.91-4.29-3.38-5.36-9.24-5.2-14.35-2.31-5.2-2.97-11.55 0-16.66 3.05-5.36 8.82-8 13.77-11.13 2.31-1.4 4.62-3.38 4.87-6.19-1.15.82-2.72 1.32-3.88.08 1.73 1.15 1.57 4.45-.74 4.78-2.06.74-4.04-1.98-2.72-3.71.58-1.48 2.14-1.48 3.3-1.24M3.97 56c1.32.82 3.46 1.15 4.37-.33 1.07-1.07-.16-3.05-1.57-2.72-1.41.33-2.31 1.73-2.8 3.05ZM30.44 35.05c.25.74.74 1.73.08 2.47-1.9 2.14-3.79 4.29-5.86 6.35 0-.49.08-1.57.08-2.06 1.73-2.47 4.12-4.29 5.69-6.76z" style="stroke-width:0" transform="translate(6.348) scale(.39995)"/>
  <path d="M7.93 41.32c.91-1.48 2.06-3.22 3.88-3.63-.82 1.81-4.78 3.96-2.31 5.77.33-.66.74-1.32 1.24-1.9.25 1.4-.41 2.8-1.65 3.55-1.98.16-1.81-2.56-1.15-3.79zM25.57 52.87c.58-1.32 1.15-2.56 1.73-3.79 1.07.49 2.23.99 3.3 1.48-.58 1.32-1.24 2.64-1.81 3.96-.99-.66-2.06-1.15-3.22-1.65zM21.04 55.42c1.4 2.06 3.13 3.88 5.2 5.36-.33 1.24-.58 2.47-.82 3.79a19.219 19.219 0 0 1-5.69-8.08l1.32-1.07zM37.53 55.51c1.15.41 2.31.91 3.38 1.48-.66 1.24-1.15 2.56-1.81 3.88-1.07-.49-2.23-.99-3.3-1.57.58-1.24 1.15-2.56 1.73-3.79zM18.89 66.97c.91-1.07 1.73-2.23 2.72-3.3.91.74 1.9 1.48 2.8 2.31-.82 1.15-1.81 2.23-2.8 3.3-.99-.82-1.81-1.65-2.72-2.31zM18.32 72.41c.82-1.24 1.73-2.39 2.72-3.38.91.82 1.73 1.57 2.72 2.31-.82 1.15-1.81 2.23-2.8 3.22-.82-.66-1.73-1.4-2.64-2.14zM30.52 69.86c1.81 0 .99 3.88 3.05 2.8.08-.33.25-.91.25-1.24.91.91 1.81 3.46-.16 3.46-2.06-.74-2.56-3.13-3.13-5.03z" style="stroke-width:0" transform="translate(6.348) scale(.39995)"/>
</svg>