<?xml version="1.0" encoding="UTF-8"?><svg id="a" xmlns="http://www.w3.org/2000/svg" viewBox="0 0 260 80"><path d="m17.01,48.94h-6.17c-.85,0-1.3.45-1.47,1.17l-1.53,6.3c-.28,1.23-1.19,1.9-2.49,1.9H1.67c-1.25,0-1.92-.67-1.58-1.9L9.09,22.97c.34-1.17,1.19-1.84,2.43-1.84h5.15c1.25,0,2.09.67,2.43,1.84l8.83,33.28c.34,1.23-.34,2.06-1.58,2.06h-3.85c-1.3,0-2.21-.67-2.49-1.9l-1.53-6.3c-.17-.73-.62-1.17-1.47-1.17h0Zm-4.05-6.47h3.34c.62,0,1.02-.28.85-.95l-2.49-10.53-2.55,10.53c-.17.67.23.95.85.95h0Zm25.01-19.45v33.44c0,1.23-.62,1.84-1.92,1.84h-3.57c-1.25,0-1.87-.61-1.87-1.84V23.02c0-1.28.62-1.9,1.87-1.9h3.57c1.3,0,1.92.61,1.92,1.9Zm4.64,28.82v-16.16h-.62c-1.25,0-1.87-.61-1.87-1.84v-2.45c0-1.23.62-1.84,1.87-1.84h.62v-4.07c0-1.17.23-2.51,1.75-2.95l3-.83c1.64-.44,2.6.11,2.6,1.67v6.19h2.43c1.25,0,1.87.61,1.87,1.84v2.45c0,1.23-.62,1.84-1.87,1.84h-2.43v15.1c0,1.45.85,1.95,1.92,1.95h.79c.85,0,1.42.28,1.42,1.56v1.9c0,1.9-1.92,2.67-3.96,2.67-3.74,0-7.53-2.06-7.53-7.02h0Zm33.73-13.21v5.52c0,1.23-.62,1.84-1.87,1.84h-11.26v2c0,3.12,1.47,4.79,4.92,4.79,2.38,0,3.28-.95,4.81-.95,1.36,0,1.87,1.06,1.87,1.84v.89c0,2.34-2.26,4.29-7.13,4.29-7.75,0-11.83-4.46-11.83-11.48v-8.75c0-5.91,4.36-9.64,10.25-9.64s10.25,3.74,10.25,9.64h0Zm-7.3,1.84v-1.84c0-2.67-1.13-4.01-2.94-4.01s-2.89,1.33-2.89,4.01v1.84h5.83Zm18.39-.17v16.16c0,1.23-.62,1.84-1.92,1.84h-3.57c-1.25,0-1.87-.61-1.87-1.84v-25.03c0-1.28.62-1.9,1.87-1.9h3.57c1.36,0,1.92.61,1.92,2,1.13-1.17,2.89-2.57,5.09-2.57,1.36,0,1.53.83,1.53,1.56v2.95c0,1.62-1.42,1.78-2.77,1.95-2.32.28-3.85,2.12-3.85,4.85h0Zm22.86,16.16v-17.39c0-2.28-1.08-3.96-3.23-3.96s-3.23,1.67-3.23,3.96v17.39c0,1.23-.62,1.84-1.92,1.84h-3.57c-1.25,0-1.87-.61-1.87-1.84v-25.03c0-1.28.62-1.9,1.87-1.9h3.57c1.25,0,1.92.61,1.92,1.84,0,0,1.92-2.4,5.72-2.4,5.49,0,8.09,4.01,8.09,10.09v17.39c0,1.23-.62,1.84-1.92,1.84h-3.57c-1.25,0-1.87-.61-1.87-1.84h0Zm20.2-22.13c-3.28,0-4.53.83-5.6.83-.68,0-1.53-.33-1.53-1.39v-1.5c0-2.4,3.68-3.29,7.25-3.29,4.92,0,11.32,1.23,11.32,9.14v18.28c0,1.28-.62,1.9-1.87,1.9h-2.72c-1.19,0-1.81-.5-1.92-1.45-.17.17-1.98,2.01-5.32,2.01-5.49,0-9.34-4.07-9.34-9.25,0-8.69,6.85-11.26,13.81-11.99-.11-1.95-.91-3.29-4.08-3.29h0Zm-2.38,14.49c0,2.06,1.02,3.79,3.23,3.79s3.23-1.67,3.23-3.79v-5.96c-3.28.73-6.45,1.78-6.45,5.96Zm18.11,3.01v-16.16h-.62c-1.25,0-1.87-.61-1.87-1.84v-2.45c0-1.23.62-1.84,1.87-1.84h.62v-4.07c0-1.17.23-2.51,1.75-2.95l3-.83c1.64-.44,2.6.11,2.6,1.67v6.19h2.43c1.25,0,1.87.61,1.87,1.84v2.45c0,1.23-.62,1.84-1.87,1.84h-2.43v15.1c0,1.45.85,1.95,1.92,1.95h.79c.85,0,1.42.28,1.42,1.56v1.9c0,1.9-1.92,2.67-3.96,2.67-3.74,0-7.53-2.06-7.53-7.02h0Zm21.73-20.4v25.03c0,1.23-.62,1.84-1.92,1.84h-3.57c-1.25,0-1.87-.61-1.87-1.84v-25.03c0-1.28.62-1.9,1.87-1.9h3.57c1.3,0,1.92.61,1.92,1.9Zm0-8.41v2.34c0,1.23-.62,1.84-1.92,1.84h-3.57c-1.25,0-1.87-.61-1.87-1.84v-2.34c0-1.28.63-1.9,1.87-1.9h3.57c1.3,0,1.92.61,1.92,1.9h0Zm21.39,6.52h2.77c1.25,0,2.15.83,1.58,2.45l-8.21,24.47c-.28.95-.96,1.84-2.43,1.84h-2.6c-1.47,0-2.15-.89-2.43-1.84l-7.75-24.47c-.51-1.62.34-2.45,1.58-2.45h3.11c1.53,0,2.21.73,2.49,1.9l4.53,15.83,4.87-15.83c.34-1.17.96-1.9,2.49-1.9h0Zm26.94,9.08v5.52c0,1.23-.62,1.84-1.87,1.84h-11.26v2c0,3.12,1.47,4.79,4.92,4.79,2.38,0,3.28-.95,4.81-.95,1.36,0,1.87,1.06,1.87,1.84v.89c0,2.34-2.26,4.29-7.13,4.29-7.75,0-11.83-4.46-11.83-11.48v-8.75c0-5.91,4.36-9.64,10.25-9.64s10.25,3.74,10.25,9.64h0Zm-7.3,1.84v-1.84c0-2.67-1.13-4.01-2.94-4.01s-2.89,1.33-2.89,4.01v1.84h5.83Zm29.5-19.34c1.3,0,1.92.61,1.92,1.9v2.67c0,1.23-.62,1.84-1.92,1.84h-4.87c-.74,0-1.13.39-1.13,1.11v27.81c0,1.23-.62,1.84-1.87,1.84h-3.85c-1.3,0-1.92-.61-1.92-1.84v-27.81c0-.73-.4-1.11-1.13-1.11h-4.87c-1.3,0-1.92-.61-1.92-1.84v-2.67c0-1.28.63-1.9,1.93-1.9h19.64,0Zm.45,28.26v-10.92c0-6.63,5.21-9.48,10.53-9.48s10.53,2.84,10.53,9.48v10.92c0,6.63-5.21,9.48-10.53,9.48s-10.53-2.84-10.53-9.48h0Zm7.36-10.92v10.92c0,2.17,1.25,3.34,3.17,3.34s3.17-1.17,3.17-3.34v-10.92c0-2.17-1.25-3.34-3.17-3.34s-3.17,1.17-3.17,3.34Z" style="fill-rule:evenodd; stroke-width:0px;"/></svg>