<?xml version="1.0" encoding="UTF-8"?><svg id="a" xmlns="http://www.w3.org/2000/svg" viewBox="0 0 551.21 80"><defs><style>.b{fill-rule:evenodd;stroke-width:0px;}</style></defs><path class="b" d="m36.06,58.96h-13.08c-1.8,0-2.76.95-3.12,2.48l-3.24,13.35c-.6,2.6-2.52,4.02-5.28,4.02H3.54c-2.64,0-4.08-1.42-3.36-4.02L19.26,3.9c.72-2.48,2.52-3.9,5.16-3.9h10.92c2.64,0,4.44,1.42,5.16,3.9l18.72,70.55c.72,2.6-.72,4.37-3.36,4.37h-8.16c-2.76,0-4.68-1.42-5.28-4.02l-3.24-13.35c-.36-1.54-1.32-2.48-3.12-2.48h0Zm-8.58-13.71h7.08c1.32,0,2.16-.59,1.8-2.01l-5.28-22.33-5.4,22.33c-.36,1.42.48,2.01,1.8,2.01h0ZM80.51,4.02v70.9c0,2.6-1.32,3.9-4.08,3.9h-7.56c-2.64,0-3.96-1.3-3.96-3.9V4.02c0-2.72,1.32-4.02,3.96-4.02h7.56c2.76,0,4.08,1.3,4.08,4.02Zm9.84,61.09V30.84h-1.32c-2.64,0-3.96-1.3-3.96-3.9v-5.2c0-2.6,1.32-3.9,3.96-3.9h1.32v-8.63c0-2.48.48-5.32,3.72-6.26l6.36-1.77c3.48-.94,5.52.24,5.52,3.55v13.12h5.16c2.64,0,3.96,1.3,3.96,3.9v5.2c0,2.6-1.32,3.9-3.96,3.9h-5.16v32.02c0,3.07,1.8,4.14,4.08,4.14h1.68c1.8,0,3,.59,3,3.31v4.02c0,4.02-4.08,5.67-8.4,5.67-7.92,0-15.96-4.37-15.96-14.89h0Zm71.51-28.01v11.7c0,2.6-1.32,3.9-3.96,3.9h-23.88v4.25c0,6.62,3.12,10.16,10.44,10.16,5.04,0,6.96-2.01,10.2-2.01,2.88,0,3.96,2.25,3.96,3.9v1.89c0,4.96-4.8,9.1-15.12,9.1-16.44,0-25.08-9.45-25.08-24.34v-18.55c0-12.52,9.24-20.44,21.72-20.44s21.72,7.92,21.72,20.44h0Zm-15.48,3.9v-3.9c0-5.67-2.4-8.51-6.24-8.51s-6.12,2.83-6.12,8.51v3.9h12.36,0Zm38.99-.35v34.27c0,2.6-1.32,3.9-4.08,3.9h-7.56c-2.64,0-3.96-1.3-3.96-3.9V21.86c0-2.72,1.32-4.02,3.96-4.02h7.56c2.88,0,4.08,1.3,4.08,4.25,2.4-2.48,6.12-5.44,10.8-5.44,2.88,0,3.24,1.77,3.24,3.31v6.26c0,3.43-3,3.78-5.88,4.14-4.92.59-8.16,4.49-8.16,10.28Zm48.47,34.27v-36.87c0-4.84-2.28-8.39-6.84-8.39s-6.84,3.54-6.84,8.39v36.87c0,2.6-1.32,3.9-4.08,3.9h-7.56c-2.64,0-3.96-1.3-3.96-3.9V21.86c0-2.72,1.32-4.02,3.96-4.02h7.56c2.64,0,4.08,1.3,4.08,3.9,0,0,4.08-5.08,12.12-5.08,11.64,0,17.16,8.51,17.16,21.39v36.87c0,2.6-1.32,3.9-4.08,3.9h-7.56c-2.64,0-3.96-1.3-3.96-3.9h0Zm42.83-46.91c-6.96,0-9.6,1.77-11.88,1.77-1.44,0-3.24-.71-3.24-2.95v-3.19c0-5.08,7.8-6.97,15.36-6.97,10.44,0,24,2.6,24,19.38v38.76c0,2.72-1.32,4.02-3.96,4.02h-5.76c-2.52,0-3.84-1.06-4.08-3.07-.36.35-4.2,4.26-11.28,4.26-11.64,0-19.8-8.63-19.8-19.62,0-18.43,14.52-23.87,29.28-25.41-.24-4.13-1.92-6.97-8.64-6.97h0Zm-5.04,30.72c0,4.37,2.16,8.04,6.84,8.04s6.84-3.54,6.84-8.04v-12.64c-6.96,1.54-13.68,3.78-13.68,12.64Zm38.39,6.38V30.84h-1.32c-2.64,0-3.96-1.3-3.96-3.9v-5.2c0-2.6,1.32-3.9,3.96-3.9h1.32v-8.63c0-2.48.48-5.32,3.72-6.26l6.36-1.77c3.48-.94,5.52.24,5.52,3.55v13.12h5.16c2.64,0,3.96,1.3,3.96,3.9v5.2c0,2.6-1.32,3.9-3.96,3.9h-5.16v32.02c0,3.07,1.8,4.14,4.08,4.14h1.68c1.8,0,3,.59,3,3.31v4.02c0,4.02-4.08,5.67-8.4,5.67-7.92,0-15.96-4.37-15.96-14.89h0Zm46.07-43.25v53.06c0,2.6-1.32,3.9-4.08,3.9h-7.56c-2.64,0-3.96-1.3-3.96-3.9V21.86c0-2.72,1.32-4.02,3.96-4.02h7.56c2.76,0,4.08,1.3,4.08,4.02Zm0-17.84v4.96c0,2.6-1.32,3.9-4.08,3.9h-7.56c-2.64,0-3.96-1.3-3.96-3.9v-4.96C340.5,1.3,341.82,0,344.46,0h7.56c2.76,0,4.08,1.3,4.08,4.02Zm45.35,13.83h5.88c2.64,0,4.56,1.77,3.36,5.2l-17.4,51.88c-.6,2.01-2.04,3.9-5.16,3.9h-5.52c-3.12,0-4.56-1.89-5.16-3.9l-16.44-51.88c-1.08-3.43.72-5.2,3.36-5.2h6.6c3.24,0,4.68,1.54,5.28,4.02l9.6,33.56,10.32-33.56c.72-2.48,2.04-4.02,5.28-4.02h0Zm57.11,19.26v11.7c0,2.6-1.32,3.9-3.96,3.9h-23.88v4.25c0,6.62,3.12,10.16,10.44,10.16,5.04,0,6.96-2.01,10.2-2.01,2.88,0,3.96,2.25,3.96,3.9v1.89c0,4.96-4.8,9.1-15.12,9.1-16.44,0-25.08-9.45-25.08-24.34v-18.55c0-12.52,9.24-20.44,21.72-20.44s21.72,7.92,21.72,20.44h0Zm-15.48,3.9v-3.9c0-5.67-2.4-8.51-6.24-8.51s-6.12,2.83-6.12,8.51v3.9h12.36,0ZM505.61,0c2.76,0,4.08,1.3,4.08,4.02v5.67c0,2.6-1.32,3.9-4.08,3.9h-10.32c-1.56,0-2.4.83-2.4,2.36v58.96c0,2.6-1.32,3.9-3.96,3.9h-8.16c-2.76,0-4.08-1.3-4.08-3.9V15.95c0-1.54-.84-2.36-2.4-2.36h-10.32c-2.76,0-4.08-1.3-4.08-3.9v-5.67C459.9,1.3,461.22,0,463.98,0h41.64,0Zm.96,59.91v-23.16c0-14.06,11.04-20.09,22.32-20.09s22.32,6.03,22.32,20.09v23.16c0,14.06-11.04,20.09-22.32,20.09s-22.32-6.03-22.32-20.09Zm15.6-23.16v23.16c0,4.61,2.64,7.09,6.72,7.09s6.72-2.48,6.72-7.09v-23.16c0-4.61-2.64-7.09-6.72-7.09s-6.72,2.48-6.72,7.09Z"/></svg>