<?xml version="1.0" encoding="UTF-8"?><svg id="a" xmlns="http://www.w3.org/2000/svg" viewBox="0 0 170 80"><defs><style>.b{stroke-width:0px;}</style></defs><path class="b" d="m4.74,29.77c3.69-2.43,8.56-2.71,12.71-1.35,3.02.93,5.16,3.61,5.39,6.76.25,4.54-.03,9.14.14,13.7.14,1.93,1.6,3.36,2.41,5.06-1.67,1.45-3.22,3.04-5.03,4.31-1.85-.32-2.68-2.39-3.81-3.69-1.76,1.75-3.81,3.5-6.4,3.69-3.02.47-6.6-.03-8.51-2.69-2.91-4.24-1.9-10.99,2.65-13.67,3.4-1.98,7.42-2.16,11.22-2.54-.07-1.6.29-3.45-.82-4.79-1.34-1.66-3.97-1.53-5.58-.29-1.13.83-1.22,2.42-2.18,3.4-2.05-.57-4.3-.2-6.24-1.19.5-2.63,1.7-5.26,4.03-6.74m5.29,15.02c-2.61,1.37-3.15,5.43-1.08,7.47,1.49,1.32,3.82.63,4.95-.82,1.88-2.17,1.67-5.21,1.62-7.89-1.87.27-3.85.25-5.5,1.23Z"/><path class="b" d="m35.92,32.99c1.07-2.91,3.76-5.42,7.05-5.06,3.2-.3,5.67,2.27,6.77,5.03,1.49-5.05,8.51-6.7,12.29-3.2,1.97,1.58,2.4,4.23,2.38,6.61v17.58c0,1.37.11,2.77-.28,4.11-2.12,0-4.24.1-6.36-.05l-.53-.66c-.06-6.04,0-12.09,0-18.15-.09-1.46-.15-3.4-1.7-4.09-1.84-.75-3.94.13-4.69,1.97-.12.29-.2.59-.24.9-.67,5.1,0,10.28-.29,15.41-.2,1.51.6,3.33-.48,4.61-2.08.13-4.16.13-6.24,0l-.44-.72c-.07-6.03,0-12.07-.03-18.1-.09-1.54-.4-3.48-2-4.16-1.29-.4-2.96-.23-3.79.95s-.99,2.87-1.04,4.37c-.07,5.67.07,11.38-.06,17.07-.77,1.13-2.27.52-3.4.69-1.24-.15-2.71.39-3.73-.54-.14-8.95,0-17.92-.07-26.88.11-.66-.23-1.65.49-2.04,2.01-.19,4.03-.18,6.03.03.7,1.22.09,2.92.35,4.34Z"/><path class="b" d="m73.69,29.76c4.12-2.49,9.18-2.86,13.61-.98,2.6,1.12,4.34,3.62,4.5,6.44.27,4.54-.03,9.07.15,13.57.06,1.98,1.59,3.44,2.39,5.14-1.64,1.37-3.12,2.93-4.83,4.21-1.93.09-2.89-2.34-3.97-3.65-1.67,1.76-3.71,3.44-6.24,3.71s-5.39.31-7.46-1.4c-2.7-2.12-3.33-5.98-2.61-9.18.57-3.14,3.08-5.67,6.05-6.73,2.97-1.05,6.14-1.27,9.24-1.58-.06-1.7.22-3.67-1.05-5.02-1.61-1.51-4.41-1.2-5.88.36-.63.94-1,2.01-1.56,2.99-2.1-.47-4.39-.19-6.36-1.17.5-2.62,1.7-5.25,4.02-6.74m5.1,15.13c-2.35,1.46-2.84,5.13-1.07,7.21,1.37,1.45,3.74.96,4.95-.44,2.04-2.16,1.89-5.33,1.85-8.08-1.96.24-4.05.2-5.75,1.3l.02.02Z"/><path class="b" d="m129.44,28.25c3.25-.71,6.88-.35,9.59,1.7,3.67,2.84,5.21,7.62,5.36,12.1.28,4.59-.73,9.52-3.91,13-2.74,2.98-6.9,4.21-10.81,3.19-3.81-.84-6.61-4.09-7.86-7.65-1.73-4.97-1.67-10.39.19-15.31,1.27-3.29,3.97-6.15,7.44-7.06m1.67,5.58c-2.44,1.43-2.6,4.6-2.72,7.1.06,3.54-.37,7.43,1.54,10.6,1.13,1.92,4.12,1.76,5.26-.07,1.64-2.6,1.49-5.86,1.52-8.82-.1-2.51-.15-5.14-1.27-7.43-.8-1.56-2.81-1.91-4.33-1.34v-.03Z"/><path class="b" d="m160.05,28.21c2.54-.57,5.57-.4,7.49,1.58,1.98,1.78,2.23,4.58,2.47,7.07v20.83c-2.27.61-4.68.33-7.02.33-.44-4.54-.09-9.13-.2-13.7-.11-2.68.38-5.52-.68-8.07-.79-1.79-3.44-1.98-4.73-.64s-1.62,3.4-1.74,5.27c-.14,5.56.14,11.13-.12,16.68-1.93.99-4.34.37-6.45.41l-.61-.64c-.12-9.48-.15-18.99,0-28.47,2.11-.79,4.48-.24,6.69-.27.06,1.67.05,3.33,0,5,1.08-2.19,2.38-4.66,4.91-5.4Z"/><path class="b" d="m98.28,29.51c-.24-1.13,1.22-1.13,1.94-1.13h15.4c.79,0,2.14,0,1.92,1.2-.05,1.6.4,3.4-.65,4.8-3.2,4.65-6.37,9.36-9.61,13.99,3.4-.08,6.91.42,9.88,2.16,1.42.79.79,2.65.95,3.97-.15.98.42,2.5-.89,2.84-3.83-1.84-8.14-2.93-12.39-2.17-2.4.24-4.57,1.33-6.78,2.21l-.7-.57c.05-2.69-.75-5.83,1.16-8.09,3.29-4.77,6.49-9.59,9.82-14.34-3.27-.14-6.59.26-9.83-.19-.44-1.51-.19-3.12-.22-4.67Z"/><path class="b" d="m100.3,60.67c4.04-1.66,8.53-1.9,12.73-.66,1.5.48,1.13,2.31,1.09,3.53-.62,4.63-2.42,9.41-6.04,12.53l-1.29.31c.95-3.92,3.14-7.6,3.12-11.72-.11-1.17-1.32-1.5-2.27-1.67-3.51-.53-7.01.37-10.52.43.19-1.63,1.93-2.13,3.18-2.75Z"/><path class="b" d="m24.11,61.23l.66-.25c14.27,8.38,30.57,12.67,47.12,12.39,10.93-.35,21.69-2.72,31.76-6.98,1.17-.89,3.28.19,2.36,1.7-2.19,1.97-4.82,3.4-7.37,4.81-14.22,7.17-30.54,8.98-45.98,5.1-10.23-2.58-19.68-7.61-27.54-14.64-.47-.6-1.8-1.24-1.01-2.13Z"/></svg>