<?xml version="1.0" encoding="UTF-8" standalone="no"?>
<!DOCTYPE svg PUBLIC "-//W3C//DTD SVG 1.1//EN" "http://www.w3.org/Graphics/SVG/1.1/DTD/svg11.dtd">
<!-- Created with Vectornator (http://vectornator.io/) -->
<svg height="100%" stroke-miterlimit="10" style="fill-rule:nonzero;clip-rule:evenodd;stroke-linecap:round;stroke-linejoin:round;" version="1.1" viewBox="0 0 250 80" width="100%" xml:space="preserve" xmlns="http://www.w3.org/2000/svg" xmlns:xlink="http://www.w3.org/1999/xlink">
<defs/>
<path d="M0 0L250 0L250 80L0 80L0 0Z" fill="#000000" fill-opacity="0" fill-rule="nonzero" opacity="1" stroke="none"/>
<g id="Sem-Título">
<path d="M76.7571 28.1686L76.7571 25.143C76.7462 24.7315 77.0707 24.389 77.4821 24.3777L90.7833 24.3777C90.9775 24.3703 91.1666 24.4405 91.3089 24.5727C91.4512 24.705 91.5351 24.8884 91.5419 25.0826C91.5431 25.0991 91.5431 25.1155 91.5431 25.1314L91.5431 27.721C91.3817 28.4309 91.041 29.0876 90.5535 29.6283L83.6498 39.6247C86.2693 39.4783 88.8791 40.0515 91.2096 41.2844C91.6348 41.5252 91.9014 41.9726 91.9108 42.4613L91.9108 45.6875C91.9236 46.0844 91.6199 46.4155 91.2321 46.4283C91.1295 46.4315 91.0274 46.4117 90.9333 46.3704C86.5522 44.0567 81.3109 44.0567 76.9297 46.3704C76.4693 46.618 75.9864 46.1119 75.9864 45.6643L75.9864 42.6033C75.9446 41.8789 76.1165 41.1582 76.4809 40.5308L84.4553 28.8984L77.551 28.8984C77.1394 28.9186 76.7882 28.5923 76.7687 28.1698L76.7687 28.157L76.7571 28.1692L76.7571 28.1686ZM22.7992 46.4344C22.4113 46.4185 22.0949 46.1184 22.0583 45.732L22.0583 24.3698C22.0614 24.1608 22.1475 23.9616 22.2978 23.8163C22.448 23.671 22.6499 23.5915 22.8589 23.5954L26.7644 23.5954C27.1653 23.6118 27.4921 23.9226 27.5284 24.3222L27.5284 27.1088L27.6004 27.1088C28.3143 24.6859 30.5825 23.0572 33.1065 23.1551C35.7223 23.1551 37.3699 24.4051 38.5406 27.1088C39.7766 23.9259 43.3656 22.3442 46.5583 23.5759C47.5834 23.9706 48.485 24.631 49.1705 25.4893C50.4961 27.2869 50.2211 29.8948 50.2211 32.1814L50.2211 45.6722C50.2079 46.1067 49.8447 46.4481 49.4102 46.4344L45.2291 46.4344C44.8176 46.4161 44.4896 46.0839 44.4766 45.6722L44.4766 34.3484C44.5388 33.0131 44.4992 31.6765 44.3571 30.3472C44.1888 29.1604 43.0912 28.334 41.9041 28.5003L41.8967 28.5015C40.7906 28.5367 39.8104 29.2241 39.4004 30.2521C39.0508 31.5877 38.9178 32.9707 39.0065 34.3484L39.0065 45.6716C39.0033 45.8773 38.9184 46.0733 38.7704 46.2163C38.6225 46.3593 38.4238 46.4376 38.2181 46.4338L34.026 46.4338C33.6145 46.4155 33.2866 46.0833 33.2736 45.6716L33.2736 34.3484C33.2736 31.9667 33.6675 28.4539 30.7059 28.4539C27.7437 28.4539 27.8156 31.8716 27.8156 34.3484L27.8156 45.6716C27.8093 46.1 27.4568 46.4421 27.0284 46.4356C27.0162 46.4356 27.0034 46.4356 26.9912 46.4344C26.9912 46.4344 22.7992 46.4344 22.7992 46.4344ZM102.563 23.1515C108.783 23.1515 112.132 28.3503 112.132 34.9625C112.132 41.3649 108.424 46.4356 102.563 46.4356C96.4626 46.4356 93.137 41.2253 93.137 34.7527C93.137 28.2801 96.4626 23.1515 102.527 23.1515L102.563 23.1515ZM99.2644 34.1119C99.2644 36.6728 99.2644 42.1466 102.555 42.1466C105.846 42.1466 105.991 37.7259 105.991 35.0362C106.063 33.1649 105.851 31.2923 105.362 29.4814C105.094 28.2295 103.911 27.3619 102.591 27.446C99.4699 27.446 99.2644 31.5509 99.2644 34.1119ZM120.37 46.3863L116.506 46.3863C116.122 46.3734 115.814 46.0405 115.808 45.6277L115.808 24.2954C115.849 23.8911 116.172 23.5881 116.55 23.596L120.148 23.596C120.478 23.6155 120.761 23.8594 120.846 24.2009L120.846 27.4478L120.913 27.4478C122.019 24.5442 123.525 23.1576 126.205 23.1576C128.024 23.0631 129.75 24.0173 130.733 25.6582C131.74 27.3533 131.74 30.221 131.74 32.2832L131.74 45.7698C131.689 46.1625 131.368 46.4503 130.998 46.4338L127.112 46.4338C126.76 46.4204 126.468 46.1424 126.415 45.7698L126.415 34.2271C126.415 31.8564 126.668 28.4911 123.99 28.4911C123.003 28.546 122.138 29.2137 121.776 30.1972C121.29 31.4825 121.079 32.8553 121.156 34.2271L121.156 45.6753C121.138 46.1125 120.792 46.4539 120.383 46.435L120.37 46.4338C120.37 46.4338 120.37 46.3863 120.37 46.3863ZM70.1596 46.0863C69.8874 46.3192 69.4983 46.3562 69.187 46.1789C68.2477 45.4244 67.4538 44.5048 66.8443 43.4655C65.1826 45.4677 62.671 46.5648 60.073 46.4234C56.5589 46.4234 53.923 44.3045 53.923 40.0771C53.8492 37.1704 55.5943 34.5222 58.3041 33.4277C60.5297 32.4612 63.6455 32.2631 66.0236 32.0192L66.0236 31.4826C66.1544 30.4724 65.9789 29.4462 65.5199 28.5369C64.9639 27.8159 64.0858 27.4187 63.1772 27.4771C61.6132 27.3503 60.198 28.3972 59.8736 29.9222C59.8298 30.3031 59.5376 30.608 59.1589 30.668L55.1882 30.2484C54.7924 30.1682 54.5359 29.783 54.6144 29.3869C55.5278 24.6003 59.8858 23.157 63.798 23.157C66.0271 23.0807 68.2108 23.7988 69.9596 25.1832C71.951 27.0344 71.7638 29.5033 71.7638 32.1704L71.7638 38.5167C71.784 39.9245 72.3362 41.2726 73.3096 42.2899C73.6012 42.5875 73.6012 43.0637 73.3096 43.3613C72.4663 44.06 70.9669 45.3405 70.1589 46.0747L70.1589 46.0863L70.1596 46.0863ZM66.1297 36.2527L66.1297 35.4064C63.165 35.4064 60.0486 36.0076 60.0486 39.3277C60.0486 41.01 60.9589 42.1466 62.5352 42.1466C63.7547 42.1052 64.8504 41.4247 65.3827 40.3753C66.0302 39.1041 66.2899 37.6708 66.1297 36.2533L66.1297 36.2527ZM16.1894 46.0869C15.917 46.317 15.5305 46.3541 15.2193 46.1802C14.2859 45.421 13.4945 44.5023 12.8821 43.4667C11.2287 45.4637 8.72781 46.5604 6.1388 46.4241C2.69124 46.4247 0.00343335 44.3058 0.00343335 40.0783C-0.0881682 37.1618 1.66047 34.5015 4.37417 33.4289C6.5949 32.4625 9.69124 32.2643 12.0754 32.0198L12.0754 31.4838C12.2006 30.4739 12.0259 29.4494 11.5729 28.5381C11.0136 27.8244 10.1411 27.4288 9.23575 27.4783C7.68291 27.3549 6.27868 28.4004 5.95161 29.9234C5.90885 30.3041 5.61712 30.6093 5.2388 30.6692L1.26563 30.2497C0.879729 30.1582 0.63655 29.7764 0.716848 29.3881C1.62782 24.6003 5.97539 23.157 9.87783 23.157C12.1063 23.0785 14.2898 23.7969 16.0364 25.1832C18.0351 27.035 17.8364 29.5039 17.8364 32.171L17.8364 38.5173C17.8559 39.9247 18.407 41.2726 19.379 42.2905C19.676 42.5771 19.6839 43.0484 19.3967 43.3442L19.379 43.3619C18.5498 44.0606 17.0419 45.3417 16.2473 46.0753L16.1888 46.0869L16.1894 46.0869ZM12.2126 35.4064C9.25161 35.4064 6.12722 36.0076 6.12722 39.3277C6.12722 41.01 7.04795 42.1466 8.61014 42.1466C9.82295 42.0978 10.9108 41.4167 11.4431 40.3753C12.0974 39.1062 12.365 37.673 12.2126 36.2533L12.2126 35.4058L12.2126 35.4064ZM53.5809 64.2039C40.7053 64.2759 28.2669 59.2619 18.6973 50.1375C17.9693 49.4539 18.615 48.5088 19.4839 49.0436C30.1406 55.4753 42.1967 58.8485 54.462 58.8302C63.6059 58.7832 72.6504 56.8271 81.0797 53.0722C82.3358 52.4881 83.4272 53.9808 82.148 54.9747C74.4224 60.9942 63.2327 64.2039 53.5809 64.2039ZM85.2132 51.271C84.2083 49.9661 78.5632 50.6491 76.0272 50.9667C75.2498 51.0509 75.1309 50.3686 75.8242 49.8808C80.3333 46.6631 87.7132 47.5893 88.5742 48.6619C89.4352 49.735 88.3468 57.2674 84.1248 60.8509C83.4669 61.4119 82.8565 61.107 83.1443 60.3875C84.0894 57.9863 86.2175 52.5881 85.2132 51.2716L85.2132 51.271ZM215.266 42.8869C216.052 42.3405 216.501 41.4491 216.458 40.5149C216.486 39.8792 216.233 39.2633 215.766 38.8308C215.005 38.24 214.14 37.797 213.215 37.5247L209.376 36.1491C206.05 35.0033 204.368 32.9411 204.368 30.0881C204.31 28.2954 205.158 26.5856 206.646 25.5039C208.37 24.2905 210.473 23.6808 212.607 23.774C214.561 23.774 216.5 24.1119 218.33 24.771C218.624 24.847 218.892 25.0015 219.105 25.218C219.266 25.4722 219.341 25.7686 219.318 26.0655L219.318 27.2119C219.318 27.7271 219.129 27.9905 218.735 27.9905C218.381 27.9645 218.033 27.8912 217.698 27.7728C216.117 27.3159 214.48 27.0846 212.834 27.0856C209.949 27.0856 208.494 28.0137 208.494 29.893C208.458 30.5641 208.725 31.2159 209.221 31.6692C210.082 32.2957 211.041 32.7758 212.059 33.0899L215.635 34.3844C217.063 34.8725 218.351 35.6982 219.391 36.7911C220.212 37.7793 220.637 39.0369 220.583 40.3204C220.656 42.221 219.766 44.0399 218.199 45.2015C216.347 46.5033 214.086 47.1497 211.797 47.0363C209.471 47.0673 207.16 46.6547 204.989 45.8204C204.71 45.7228 204.457 45.5621 204.25 45.3509C204.099 45.1033 204.028 44.8152 204.047 44.5259L204.047 43.3125C204.047 42.7954 204.226 42.532 204.583 42.532C204.971 42.5717 205.351 42.6602 205.716 42.7954C207.718 43.4043 209.8 43.7095 211.892 43.7009C213.075 43.7818 214.254 43.4936 215.266 42.8759C215.266 42.8759 215.266 42.8869 215.266 42.8869ZM195.394 24.6588C195.336 24.2291 195.635 23.8327 196.064 23.7716C196.135 23.7625 196.206 23.7625 196.277 23.7728L198.864 23.7728C199.07 23.7444 199.279 23.7991 199.444 23.9249C199.609 24.0507 199.718 24.2371 199.745 24.443C199.755 24.5149 199.755 24.5881 199.746 24.6588L199.746 45.46C199.809 45.8936 199.514 46.2954 199.089 46.3582C199.015 46.3701 198.939 46.3701 198.864 46.3582L196.972 46.3582C196.735 46.3708 196.5 46.309 196.3 46.1814C196.106 46.0082 195.986 45.7677 195.963 45.5088L195.661 43.9478C193.285 45.8798 190.333 46.9651 187.271 47.0326C185.48 47.1581 183.722 46.508 182.444 45.2478C181.261 43.8427 180.663 42.0373 180.772 40.2039L180.772 24.6582C180.714 24.2281 181.014 23.8318 181.444 23.771C181.514 23.7614 181.585 23.7618 181.655 23.7722L184.243 23.7722C184.486 23.7379 184.731 23.8204 184.905 23.9947C185.078 24.1691 185.159 24.4149 185.124 24.6582L185.124 38.8332C185.022 40.0841 185.345 41.3328 186.041 42.3771C186.783 43.2127 187.875 43.6503 188.989 43.5582C191.274 43.4947 193.489 42.7507 195.349 41.4216L195.394 24.6582L195.394 24.6588ZM171.779 46.4271C171.573 46.4567 171.363 46.4028 171.196 46.2774C171.029 46.1521 170.919 45.9655 170.89 45.7588C170.878 45.6832 170.878 45.6064 170.89 45.5295L170.89 31.0911C170.978 29.926 170.682 28.7642 170.047 27.7832C169.382 27.0261 168.395 26.6312 167.391 26.7198C165.078 26.7698 162.825 27.4655 160.886 28.7283C160.905 28.9478 160.905 29.1698 160.886 29.3899L160.886 45.5289C160.922 45.775 160.84 46.0239 160.665 46.2005C160.49 46.3771 160.242 46.4609 159.996 46.4265L157.388 46.4265C157.181 46.4561 156.971 46.4022 156.804 46.2768C156.638 46.1514 156.528 45.9648 156.499 45.7582C156.486 45.6826 156.486 45.6058 156.499 45.5289L156.499 31.0911C156.584 29.9279 156.292 28.7681 155.668 27.7832C154.999 27.0296 154.015 26.6354 153.011 26.7198C150.711 26.7348 148.464 27.4159 146.542 28.6808L146.542 45.5283C146.606 45.9596 146.308 46.3613 145.877 46.4259C145.807 46.4362 145.735 46.4364 145.664 46.4265L143.043 46.4265C142.798 46.4577 142.553 46.3724 142.381 46.1961C142.208 46.0198 142.129 45.7728 142.165 45.5289L142.165 24.7222C142.102 24.2983 142.392 23.9026 142.816 23.8362C142.891 23.8244 142.968 23.8244 143.043 23.8362L145.008 23.8362C145.247 23.824 145.484 23.8856 145.687 24.0131C145.88 24.1826 146.002 24.4186 146.027 24.6753L146.284 26.1045C148.678 24.2966 151.57 23.2696 154.568 23.1631C157.316 23.1631 159.166 24.2143 160.149 26.3289C162.655 24.361 165.728 23.2511 168.913 23.1631C170.644 23.0539 172.342 23.6838 173.593 24.8997C174.759 26.2752 175.346 28.0497 175.231 29.8497L175.231 45.5283C175.267 45.7743 175.186 46.023 175.011 46.1996C174.836 46.3762 174.588 46.46 174.341 46.4259L171.779 46.4259L171.779 46.4271ZM239.591 29.2692C238.509 30.5125 237.968 32.5009 237.968 35.2338L237.968 35.8045C237.968 38.4722 238.524 40.4643 239.614 41.6289C240.991 42.9878 242.895 43.6735 244.822 43.5045C246.16 43.4863 247.487 43.2789 248.766 42.8869C248.982 42.8227 249.203 42.7798 249.427 42.7588C249.81 42.7588 249.996 43.0503 249.996 43.6326L249.996 44.7972C250.018 45.0887 249.957 45.3789 249.821 45.6363C249.638 45.8637 249.393 46.0289 249.114 46.1149C247.529 46.7638 245.828 47.0807 244.115 47.046C240.635 47.046 238.025 46.0558 236.193 44.0765C234.36 42.0948 233.455 39.2289 233.455 35.4783C233.455 31.7271 234.395 28.8734 236.286 26.8344C238.392 24.7162 241.307 23.6047 244.289 23.7826C245.873 23.7858 247.444 24.0698 248.929 24.6216C249.192 24.6997 249.429 24.8484 249.613 25.0521C249.763 25.3216 249.832 25.6301 249.81 25.9375L249.81 27.1021C249.81 27.685 249.613 27.9765 249.241 27.9765C249.001 27.9648 248.763 27.9217 248.534 27.8484C247.351 27.5009 246.124 27.3241 244.892 27.3241C242.457 27.4058 240.693 28.0228 239.603 29.2692C239.603 29.2692 239.591 29.2692 239.591 29.2692ZM228.29 24.9948C228.708 24.9338 229.097 25.2271 229.156 25.6491C229.166 25.718 229.168 25.7887 229.158 25.8588L229.158 46.1613C229.194 46.4013 229.114 46.6439 228.943 46.8161C228.772 46.9884 228.53 47.0702 228.29 47.0369L225.743 47.0369C225.541 47.0627 225.337 47.0072 225.176 46.8825C225.015 46.7578 224.91 46.5742 224.885 46.3722C224.875 46.3022 224.875 46.2311 224.886 46.1613L224.886 25.8704C224.851 25.6335 224.929 25.3939 225.098 25.2239C225.266 25.0538 225.505 24.9732 225.743 25.0064L228.29 24.9942L228.29 24.9948ZM229.049 16.549C230.023 17.6954 230.023 19.41 229.049 20.5564C227.888 21.5614 226.166 21.5614 225.006 20.5564C224.018 19.4173 224.018 17.6881 225.006 16.549C226.166 15.544 227.888 15.544 229.049 16.549Z" fill="#000000" fill-rule="evenodd" opacity="1" stroke="none"/>
</g>
</svg>
