<?xml version="1.0" encoding="UTF-8"?><svg id="a" xmlns="http://www.w3.org/2000/svg" viewBox="0 0 309.86 80"><defs><style>.c{fill-rule:evenodd;stroke-width:0px;}</style></defs><g id="b"><path class="c" d="m95.13,35.34v-3.75c-.01-.51.39-.93.9-.95h16.49c.24,0,.48.08.65.24.18.16.28.39.29.63,0,.02,0,.04,0,.06v3.21c-.2.88-.62,1.69-1.23,2.36l-8.56,12.39c3.25-.18,6.48.53,9.37,2.06.53.3.86.85.87,1.46v4c.02.49-.36.9-.84.92-.13,0-.25-.02-.37-.07-5.43-2.87-11.93-2.87-17.36,0-.57.31-1.17-.32-1.17-.88v-3.79c-.05-.9.16-1.79.61-2.57l9.88-14.42h-8.56c-.51.03-.95-.38-.97-.9v-.02.02s-.01,0-.01,0ZM28.26,57.98c-.48-.02-.87-.39-.92-.87v-26.48c0-.26.11-.51.3-.69.19-.18.44-.28.7-.27h4.84c.5.02.9.41.95.9v3.45h.09c.88-3,3.7-5.02,6.82-4.9,3.24,0,5.28,1.55,6.74,4.9,1.53-3.94,5.98-5.91,9.94-4.38,1.27.49,2.39,1.31,3.24,2.37,1.64,2.23,1.3,5.46,1.3,8.29v16.72c-.02.54-.47.96-1.01.94h-5.18c-.51-.02-.92-.43-.93-.94v-14.04c.08-1.66.03-3.31-.15-4.96-.21-1.47-1.57-2.5-3.04-2.29h0c-1.37.05-2.59.9-3.09,2.17-.43,1.66-.6,3.37-.49,5.08v14.03c0,.25-.11.5-.29.68-.18.18-.43.27-.68.27h-5.2c-.51-.02-.92-.43-.93-.94v-14.03c0-2.95.49-7.31-3.18-7.31s-3.58,4.24-3.58,7.31v14.03c0,.53-.44.95-.98.95-.02,0-.03,0-.05,0h-5.2Zm98.86-28.86c7.71,0,11.86,6.44,11.86,14.64s-4.6,14.22-11.86,14.22-11.68-6.46-11.68-14.48,4.12-14.38,11.64-14.38h.04Zm-4.09,13.58c0,3.17,0,9.96,4.08,9.96s4.26-5.48,4.26-8.81c.09-2.32-.17-4.64-.78-6.88-.33-1.55-1.8-2.63-3.43-2.52-3.87,0-4.12,5.09-4.12,8.26Zm26.16,15.21h-4.79c-.48-.02-.86-.43-.87-.94v-26.44c.05-.5.45-.88.92-.87h4.46c.41.02.76.33.87.75v4.02h.08c1.37-3.6,3.24-5.32,6.56-5.32,2.25-.12,4.39,1.07,5.61,3.1,1.25,2.1,1.25,5.66,1.25,8.21v16.72c-.06.49-.46.84-.92.82h-4.82c-.44-.02-.8-.36-.86-.82v-14.31c0-2.94.31-7.11-3.01-7.11-1.22.07-2.3.9-2.74,2.11-.6,1.59-.86,3.29-.77,4.99v14.19c-.02.54-.45.97-.96.94h-.02v-.06Zm-62.23-.37c-.34.29-.82.33-1.21.11-1.16-.94-2.15-2.07-2.9-3.36-2.06,2.48-5.17,3.84-8.39,3.67-4.36,0-7.62-2.63-7.62-7.87-.09-3.6,2.07-6.88,5.43-8.24,2.76-1.2,6.62-1.44,9.57-1.75v-.67c.16-1.25-.06-2.52-.62-3.65-.69-.89-1.78-1.39-2.9-1.31-1.94-.16-3.69,1.14-4.09,3.03-.05.47-.42.85-.89.92l-4.92-.52c-.49-.1-.81-.58-.71-1.07,1.13-5.93,6.53-7.72,11.38-7.72,2.76-.09,5.47.8,7.64,2.51,2.47,2.29,2.24,5.35,2.24,8.66v7.87c.03,1.74.71,3.42,1.92,4.68.36.37.36.96,0,1.33-1.05.87-2.9,2.45-3.91,3.36h0s0,.01,0,.01Zm-4.99-12.19v-1.05c-3.67,0-7.54.75-7.54,4.86,0,2.09,1.13,3.49,3.08,3.49,1.51-.05,2.87-.89,3.53-2.2.8-1.58,1.12-3.35.93-5.11h0Zm-61.9,12.19c-.34.29-.82.33-1.2.12-1.16-.94-2.14-2.08-2.9-3.36-2.05,2.48-5.15,3.83-8.36,3.67-4.27,0-7.6-2.63-7.6-7.87-.11-3.61,2.05-6.91,5.42-8.24,2.75-1.2,6.59-1.44,9.55-1.75v-.66c.16-1.25-.06-2.52-.62-3.65-.69-.88-1.77-1.37-2.9-1.31-1.92-.15-3.67,1.14-4.07,3.03-.05.47-.41.85-.88.92l-4.92-.52c-.48-.11-.78-.59-.68-1.07,1.13-5.93,6.52-7.72,11.35-7.72,2.76-.1,5.47.79,7.63,2.51,2.48,2.3,2.23,5.36,2.23,8.66v7.87c.02,1.74.71,3.41,1.91,4.68.37.36.38.94.02,1.31l-.02.02c-1.03.87-2.9,2.45-3.88,3.36h-.07s0,.01,0,.01Zm-4.93-13.24c-3.67,0-7.54.75-7.54,4.86,0,2.09,1.14,3.49,3.08,3.49,1.5-.06,2.85-.9,3.51-2.2.81-1.57,1.14-3.35.95-5.11v-1.05h0Zm51.27,35.69c-15.96.09-31.37-6.13-43.24-17.43-.9-.85-.1-2.02.97-1.36,13.21,7.97,28.15,12.15,43.35,12.13,11.33-.06,22.54-2.48,32.99-7.14,1.56-.72,2.91,1.13,1.32,2.36-9.58,7.46-23.44,11.44-35.41,11.44Zm39.21-16.03c-1.25-1.62-8.24-.77-11.39-.38-.96.1-1.11-.74-.25-1.35,5.59-3.99,14.74-2.84,15.8-1.51,1.07,1.33-.28,10.67-5.51,15.11-.82.7-1.57.32-1.22-.57,1.17-2.98,3.81-9.67,2.56-11.3h0Zm161.19-10.39c.97-.68,1.53-1.78,1.48-2.94.03-.79-.28-1.55-.86-2.09-.94-.73-2.02-1.28-3.16-1.62l-4.76-1.7c-4.12-1.42-6.21-3.98-6.21-7.51-.07-2.22.98-4.34,2.82-5.68,2.14-1.5,4.74-2.26,7.39-2.14,2.42,0,4.83.42,7.09,1.24.36.09.7.29.96.55.2.32.29.68.26,1.05v1.42c0,.64-.23.97-.72.97-.44-.03-.87-.12-1.29-.27-1.96-.57-3.99-.85-6.03-.85-3.58,0-5.38,1.15-5.38,3.48-.04.83.29,1.64.9,2.2,1.07.78,2.26,1.37,3.52,1.76l4.43,1.6c1.77.6,3.37,1.63,4.66,2.98,1.02,1.22,1.54,2.78,1.48,4.37.09,2.36-1.01,4.61-2.95,6.05-2.3,1.61-5.1,2.41-7.93,2.27-2.88.04-5.75-.47-8.44-1.51-.35-.12-.66-.32-.92-.58-.19-.31-.28-.66-.25-1.02v-1.5c0-.64.22-.97.66-.97.48.05.95.16,1.4.33,2.48.75,5.06,1.13,7.65,1.12,1.47.1,2.93-.26,4.18-1.02h0Zm-24.63-22.59c-.07-.53.3-1.02.83-1.1.09-.01.18-.01.26,0h3.21c.26-.04.51.03.72.19s.34.39.37.64c.01.09.01.18,0,.27v25.78c.08.54-.29,1.04-.81,1.11-.09.01-.19.01-.28,0h-2.34c-.29.02-.59-.06-.83-.22-.24-.21-.39-.51-.42-.83l-.37-1.93c-2.94,2.39-6.6,3.74-10.4,3.82-2.22.16-4.4-.65-5.98-2.21-1.47-1.74-2.21-3.98-2.07-6.25v-19.27c-.07-.53.3-1.02.83-1.1.09-.01.17-.01.26,0h3.21c.3-.04.6.06.82.28.21.22.31.52.27.82v17.57c-.13,1.55.27,3.1,1.14,4.39.92,1.04,2.27,1.58,3.65,1.46,2.83-.08,5.58-1,7.88-2.65l.06-20.78h0Zm-29.27,26.98c-.26.04-.52-.03-.72-.19-.21-.16-.34-.39-.38-.64-.01-.09-.01-.19,0-.28v-17.9c.11-1.44-.26-2.88-1.04-4.1-.82-.94-2.05-1.43-3.29-1.32-2.87.06-5.66.92-8.06,2.49.02.27.02.55,0,.82v20c.04.31-.06.61-.27.83-.22.22-.52.32-.83.28h-3.23c-.26.04-.52-.03-.72-.19-.21-.16-.34-.39-.38-.64-.02-.09-.02-.19,0-.28v-17.89c.11-1.44-.26-2.88-1.03-4.1-.83-.93-2.05-1.42-3.29-1.32-2.85.02-5.64.86-8.02,2.43v20.88c.08.53-.29,1.03-.82,1.11-.09.01-.18.01-.26,0h-3.25c-.3.04-.61-.07-.82-.29-.21-.22-.31-.52-.27-.83v-25.79c-.08-.53.28-1.02.81-1.1.09-.01.19-.01.28,0h2.44c.3-.02.59.06.84.22.24.21.39.5.42.82l.32,1.77c2.97-2.24,6.55-3.51,10.27-3.65,3.41,0,5.7,1.3,6.92,3.92,3.11-2.44,6.91-3.81,10.86-3.92,2.15-.14,4.25.65,5.8,2.15,1.45,1.7,2.17,3.9,2.03,6.14v19.43c.04.3-.06.61-.27.83s-.52.32-.83.28h-3.18Zm84.05-21.27c-1.34,1.54-2.01,4.01-2.01,7.39v.71c0,3.31.69,5.78,2.04,7.22,1.71,1.68,4.07,2.53,6.45,2.32,1.66-.02,3.3-.28,4.89-.77.27-.08.54-.13.82-.16.47,0,.71.36.71,1.08v1.44c.03.36-.05.72-.22,1.04-.23.28-.53.49-.88.59-1.96.8-4.07,1.2-6.2,1.15-4.31,0-7.55-1.23-9.82-3.68-2.27-2.46-3.39-6.01-3.39-10.66s1.17-8.19,3.51-10.71c2.61-2.63,6.22-4,9.92-3.78,1.96,0,3.91.36,5.75,1.04.33.1.62.28.85.53.19.33.27.72.24,1.1v1.44c0,.72-.24,1.08-.71,1.08-.3-.01-.59-.07-.88-.16-1.47-.43-2.99-.65-4.51-.65-3.02.1-5.2.87-6.56,2.41h-.01Zm-14.01-5.3c.52-.08,1,.29,1.07.81.01.09.01.17,0,.26v25.16c.04.3-.05.6-.27.81-.21.21-.51.31-.81.27h-3.16c-.25.03-.5-.04-.7-.19-.2-.15-.33-.38-.36-.63-.01-.09-.01-.17,0-.26v-25.15c-.04-.29.05-.59.26-.8.21-.21.5-.31.8-.27l3.16-.02h0Zm.94-10.47c1.21,1.42,1.21,3.55,0,4.97-1.44,1.25-3.57,1.25-5.01,0-1.22-1.41-1.22-3.56,0-4.97,1.44-1.25,3.57-1.25,5.01,0Z"/></g></svg>