<?xml version="1.0" encoding="UTF-8" standalone="no"?>
<svg viewBox="0 0 32 32" width="32" height="32" version="1.1" id="svg1" sodipodi:docname="amazon-music.svg" inkscape:version="1.4-beta2 (9aaf4f34, 2024-07-30)" xmlns:inkscape="http://www.inkscape.org/namespaces/inkscape" xmlns:sodipodi="http://sodipodi.sourceforge.net/DTD/sodipodi-0.dtd" xmlns="http://www.w3.org/2000/svg" xmlns:svg="http://www.w3.org/2000/svg">
  <defs id="defs1" />
  <sodipodi:namedview id="namedview1" pagecolor="#ffffff" bordercolor="#000000" borderopacity="0.25" inkscape:showpageshadow="2" inkscape:pageopacity="0.0" inkscape:pagecheckerboard="0" inkscape:deskcolor="#d1d1d1" inkscape:zoom="1.7760119" inkscape:cx="37.161912" inkscape:cy="34.628146" inkscape:window-width="1440" inkscape:window-height="790" inkscape:window-x="0" inkscape:window-y="0" inkscape:window-maximized="1" inkscape:current-layer="svg1" />
  <path d="M 24.8,0 H 7.2 C 3.2232,0 0,3.2232 0,7.2 V 24.8 C 0,28.7768 3.2232,32 7.2,32 H 24.8 C 28.7768,32 32,28.7768 32,24.8 V 7.2 C 32,3.2232 28.7768,0 24.8,0 Z m 1.752,13.0032 c 0.52,-0.2232 1.136,-0.2536 1.656,-0.0968 0.216,0.0672 0.408,0.1568 0.592,0.268 v 0.984 c -0.576,-0.3952 -1.24,-0.5072 -1.752,-0.2312 -0.544,0.2984 -0.864,0.924 -0.848,1.58 -0.008,0.7232 0.232,1.3936 0.736,1.7064 0.448,0.3056 1.152,0.3056 1.864,0.1936 v 0.82 c -0.28,0.0896 -0.576,0.1416 -0.88,0.1712 -0.504,0.0376 -1.064,-0.0376 -1.56,-0.3056 -0.504,-0.2608 -0.872,-0.7152 -1.08,-1.1704 -0.2,-0.4696 -0.272,-0.9464 -0.28,-1.4016 -0.024,-0.968 0.496,-2.056 1.552,-2.5176 z M 23.2,10.408 c 0.4416,0 0.8,0.3584 0.8,0.8 0,0.4416 -0.3584,0.8 -0.8,0.8 -0.4416,0 -0.8,-0.3584 -0.8,-0.8 0,-0.4416 0.3584,-0.8 0.8,-0.8 z m 0.6,2.4 v 5.6 h -1.2 v -5.6 z m -6.2,4.132 c 0.512,0.2088 1.136,0.4256 1.624,0.472 0.488,0.0544 1.024,-0.008 1.336,-0.1784 0.152,-0.0928 0.184,-0.2224 0.184,-0.3664 0,-0.144 -0.0288,-0.2256 -0.0984,-0.3336 C 20.5184,16.3368 20.168,16.188 19.616,16.056 19.344,15.9784 19.048,15.9008 18.72,15.7232 18.392,15.576 17.7256,15.0416 17.8552,14.1304 c 0.0696,-0.4872 0.5744,-0.964 1.2808,-1.1864 0.8232,-0.26 1.72,-0.1312 2.464,0.2248 V 14.16 c -0.664,-0.3408 -1.456,-0.5128 -2.128,-0.2888 -0.2,0.0616 -0.464,0.2008 -0.464,0.4512 0,0.6008 0.696,0.7144 0.96,0.8 0.272,0.0848 0.568,0.1624 0.888,0.3248 0.32,0.1552 0.9616,0.5424 0.9616,1.4264 0,0.8464 -0.4176,1.1576 -0.7616,1.2968 -0.712,0.3096 -1.344,0.2552 -1.96,0.1704 -0.52,-0.0928 -1.024,-0.248 -1.496,-0.5416 z m -5.4,-4.1304 1.2,-0.0016 0.0024,1.936 c 0.0112,0.632 0.0096,1.3208 0.0024,1.9064 -0.028,0.3128 0.3216,0.6776 0.7808,0.7336 0.2448,0.0272 0.4272,0.0072 0.7088,-0.112 0.1664,-0.0656 0.336,-0.1216 0.5056,-0.18 v -4.284 l 1.2,8e-4 v 5.4544 h -1.2 v -0.1888 c -0.0328,0.0176 -0.064,0.0368 -0.096,0.0536 -0.3048,0.1824 -0.7936,0.3088 -1.2112,0.2744 -0.4336,-0.028 -0.8704,-0.18 -1.2264,-0.4688 -0.3536,-0.2848 -0.6208,-0.732 -0.6552,-1.2232 -0.0216,-0.704 -0.016,-1.3072 -0.0088,-1.9656 z M 3.4,12.808 h 1.2 v 0.5504 c 0.296,-0.1072 0.5896,-0.2192 0.8872,-0.3208 0.428,-0.152 0.9648,-0.1216 1.3864,0.1128 0.1744,0.0936 0.3272,0.2256 0.4616,0.3752 0.4496,-0.1664 0.8984,-0.3336 1.3512,-0.4888 0.428,-0.152 0.9648,-0.1216 1.3864,0.1128 0.4256,0.2288 0.7568,0.6472 0.8744,1.1344 0.0312,0.1216 0.0448,0.2448 0.052,0.3688 l 0.0032,0.2536 0.0048,0.5 -0.0048,1 -0.0024,2 H 9.8 L 9.7952,14.5312 C 9.7616,14.1912 9.38,13.8936 8.98,14.0024 8.572,14.1104 8.1608,14.2064 7.7504,14.3056 7.7776,14.42 7.792,14.5352 7.7992,14.652 l 0.0032,0.2536 0.0048,0.5 -0.0048,1 -0.0024,2 H 6.6 L 6.5952,14.5304 C 6.5616,14.1896 6.18,13.8928 5.78,14.0016 5.3888,14.1056 4.9936,14.1976 4.6,14.2928 v 4.112 H 3.4 Z m 23.6144,10.3376 c -1.7712,1.256 -3.7504,2.084 -5.828,2.6216 -2.076,0.5304 -4.2376,0.7312 -6.3888,0.5832 C 12.6472,26.2064 10.5472,25.6816 8.568,24.9152 6.5952,24.1232 4.7304,23.1048 3.0824,21.7704 2.9968,21.7008 2.9832,21.5744 3.0528,21.4888 3.1144,21.4128 3.22,21.3936 3.3032,21.4384 l 0.0112,0.0064 c 1.7992,0.9736 3.7224,1.7192 5.6536,2.3112 1.9464,0.5536 3.9272,0.9496 5.92,1.0304 1.988,0.0696 3.9976,-0.0856 5.9592,-0.4936 1.9536,-0.4032 3.924,-0.9888 5.736,-1.8232 l 0.0312,-0.0144 c 0.2008,-0.092 0.4376,-0.0048 0.5304,0.196 0.0832,0.1784 0.024,0.3856 -0.1304,0.4944 z m 0.8912,2.368 c -0.2224,0.168 -0.4448,0.112 -0.3336,-0.168 0.3336,-0.896 1.056,-2.8008 0.7224,-3.2488 -0.3888,-0.504 -2.3896,-0.224 -3.2784,-0.112 -0.2776,0 -0.2776,-0.224 -0.0552,-0.392 0.7776,-0.56 1.8336,-0.784 2.7232,-0.784 0.8888,0 1.6672,0.168 1.8336,0.448 0.2768,0.3352 -0.112,2.968 -1.612,4.2568 z" id="path1" style="stroke-width:0.8" />
</svg>
