<?xml version="1.0" encoding="UTF-8" standalone="no"?>
<!-- Uploaded to: SVG Repo, www.svgrepo.com, Generator: SVG Repo Mixer Tools -->

<svg fill="#000000" height="32" width="32" version="1.1" id="Layer_1" viewBox="87 292.9 10.24 10.236" xml:space="preserve" sodipodi:docname="amazon.svg" inkscape:version="1.4-beta2 (9aaf4f34, 2024-07-30)" xmlns:inkscape="http://www.inkscape.org/namespaces/inkscape" xmlns:sodipodi="http://sodipodi.sourceforge.net/DTD/sodipodi-0.dtd" xmlns="http://www.w3.org/2000/svg" xmlns:svg="http://www.w3.org/2000/svg"><defs id="defs3" /><sodipodi:namedview id="namedview3" pagecolor="#ffffff" bordercolor="#000000" borderopacity="0.25" inkscape:showpageshadow="2" inkscape:pageopacity="0.0" inkscape:pagecheckerboard="0" inkscape:deskcolor="#d1d1d1" inkscape:zoom="2.8606633" inkscape:cx="4.8939698" inkscape:cy="-24.644634" inkscape:window-width="1440" inkscape:window-height="790" inkscape:window-x="0" inkscape:window-y="0" inkscape:window-maximized="1" inkscape:current-layer="Layer_1" />
<style type="text/css" id="style1">
	.st0{display:none;}
	.st1{display:inline;}
	.st2{fill-rule:evenodd;clip-rule:evenodd;}
</style>
<g id="g4" transform="matrix(0.04001563,0,0,0.04001563,83.508825,281.17742)"><g id="g3">
	<path class="st2" d="m 306,500.1 c -1.3,0 -2.6,0.3 -3.8,0.9 -1.4,0.6 -2.8,1.2 -4.1,1.7 l -1.9,0.8 -2.5,1 v 0 c -27.5,11.1 -56.3,17.7 -83,18.2 -1,0 -2,0 -2.9,0 -42,0 -76.2,-19.5 -110.8,-38.6 -1.2,-0.6 -2.4,-1 -3.6,-1 -1.6,0 -3.1,0.6 -4.3,1.7 -1.2,1.1 -1.9,2.7 -1.8,4.3 0,2.1 1.1,4 2.7,5.3 32.4,28.2 68,54.3 115.8,54.4 0.9,0 1.9,0 2.8,0 30.4,-0.7 64.8,-11 91.5,-27.7 l 0.2,-0.1 c 3.5,-2.1 7,-4.5 10.3,-7.1 2,-1.5 3.5,-3.9 3.5,-6.4 -0.4,-4.4 -4.1,-7.4 -8.1,-7.4 z" id="path1" />
	<path class="st2" d="m 343,484.6 v 0 c -0.1,-2.7 -0.7,-4.7 -1.8,-6.4 l -0.1,-0.2 -0.1,-0.2 c -1.1,-1.2 -2.2,-1.7 -3.4,-2.2 -3.5,-1.3 -8.6,-2.1 -14.7,-2.1 -4.4,0 -9.3,0.4 -14.2,1.5 v -0.3 l -4.9,1.6 h -0.1 l -2.8,0.9 v 0.1 c -3.3,1.4 -6.2,3 -9,5 -1.7,1.3 -3.1,3 -3.2,5.6 0,1.4 0.7,3 1.9,4 1.2,1 2.6,1.3 3.8,1.3 0.3,0 0.6,0 0.8,-0.1 h 0.2 0.2 c 2.4,-0.5 5.9,-0.8 10,-1.4 3.5,-0.4 7.3,-0.7 10.5,-0.7 2.3,0 4.4,0.1 5.8,0.5 0.7,0.1 1.2,0.3 1.5,0.5 0.1,0 0.2,0.1 0.2,0.1 0.1,0.2 0.1,0.7 0.1,1.4 0,2.7 -1.1,7.7 -2.7,12.6 -1.5,4.9 -3.4,9.8 -4.6,13.1 -0.3,0.8 -0.5,1.6 -0.5,2.5 0,1.3 0.5,2.9 1.6,4 1.1,1.1 2.6,1.5 3.8,1.5 h 0.1 c 1.8,0 3.4,-0.7 4.7,-1.8 12.5,-11.2 16.8,-29.2 17,-39.3 z" id="path2" />
	<path class="st2" d="m 228.7,364.1 c -7.3,0.6 -15.8,1.1 -24.3,2.2 -13,1.7 -26,4 -36.7,9.1 -20.9,8.5 -35,26.5 -35,53.1 0,33.3 21.5,50.3 48.6,50.3 9,0 16.4,-1.1 23.1,-2.8 10.8,-3.4 19.8,-9.6 30.5,-20.9 6.2,8.5 7.9,12.4 18.6,21.5 2.8,1.1 5.7,1.1 7.9,-0.6 6.8,-5.7 18.7,-15.8 24.9,-21.5 2.8,-2.3 2.3,-5.7 0.6,-8.5 -6.2,-7.9 -12.4,-14.7 -12.4,-30 v -50.8 c 0,-21.5 1.7,-41.2 -14.1,-55.9 -13,-11.9 -33.3,-16.4 -49.2,-16.4 h -6.8 c -28.8,1.7 -59.3,14.1 -66.1,49.7 -1.1,4.5 2.3,6.2 4.5,6.8 l 31.6,4 c 3.4,-0.6 5.1,-3.4 5.6,-6.2 2.8,-12.4 13,-18.7 24.3,-19.8 h 2.3 c 6.8,0 14.1,2.8 18.1,8.5 4.5,6.8 4,15.8 4,23.7 z m -6.2,67.2 c -4,7.9 -10.7,13 -18.1,14.7 -1.1,0 -2.8,0.6 -4.5,0.6 -12.4,0 -19.8,-9.6 -19.8,-23.7 0,-18.1 10.7,-26.6 24.3,-30.5 7.3,-1.7 15.8,-2.3 24.3,-2.3 v 6.8 c 0,13 0.6,23.1 -6.2,34.4 z" id="path3" />
</g></g>
</svg>
