<?xml version="1.0" encoding="UTF-8"?><svg id="a" xmlns="http://www.w3.org/2000/svg" viewBox="0 0 228.33 80"><defs><style>.b{stroke-width:0px;}</style></defs><path class="b" d="m10.4,38.36c.8-.07,1.59-.24,2.34-.53.74-.21,1.26-.88,1.27-1.66.07-.76-.31-1.48-.97-1.86-.89-.4-1.87-.58-2.84-.53-1.1-.11-2.19.26-2.98,1.03-.46.6-.74,1.31-.83,2.05H.74c.05-1.74.62-3.43,1.64-4.84,1.52-1.97,4.19-2.96,7.99-2.96,2.27-.04,4.51.46,6.55,1.45,1.91.98,2.87,2.81,2.87,5.5v12.85c-.01.54.11,1.08.35,1.56.22.3.52.53.86.67v.87h-6.3c-.17-.41-.29-.83-.38-1.27-.08-.45-.13-.9-.16-1.36-.81.9-1.76,1.67-2.81,2.28-1.3.76-2.79,1.15-4.29,1.14-1.84.07-3.64-.55-5.05-1.74-1.41-1.28-2.15-3.14-2-5.03-.18-2.45,1.07-4.78,3.21-5.99,1.61-.8,3.36-1.29,5.16-1.44l2.01-.23Zm3.58,2.73c-.36.23-.74.41-1.14.56-.51.19-1.04.32-1.58.4l-1.32.26c-.94.12-1.85.39-2.69.8-.9.49-1.44,1.45-1.38,2.48-.08.82.24,1.62.84,2.17.59.45,1.31.69,2.05.66,1.27,0,2.5-.41,3.53-1.14,1.08-.76,1.64-2.11,1.68-4.04v-2.15Zm38.93-11.42c1.03.44,1.93,1.14,2.61,2.02.65.84,1.09,1.82,1.27,2.87.16,1.1.23,2.2.21,3.31v14.1h-6.04v-14.22c.03-.72-.11-1.43-.41-2.09-.55-1.06-1.69-1.68-2.88-1.56-1.43-.09-2.76.71-3.34,2.02-.33.82-.49,1.69-.47,2.57v13.29h-5.89v-13.32c.06-.98-.08-1.96-.41-2.89-.52-1.1-1.68-1.75-2.89-1.62-1.36-.2-2.71.44-3.42,1.62-.36.87-.52,1.8-.47,2.74v13.47h-5.88v-22.33h5.71v3.26c.54-.94,1.23-1.78,2.05-2.49,1.29-.92,2.84-1.38,4.42-1.31,1.47-.07,2.92.33,4.14,1.14.86.72,1.53,1.65,1.93,2.69.67-1.21,1.65-2.21,2.85-2.9,1.25-.62,2.63-.94,4.03-.91,1,0,1.99.19,2.91.56m24.12.38c1.58.71,2.92,1.86,3.87,3.31.94,1.39,1.55,2.97,1.78,4.62.18,1.47.24,2.96.19,4.44h-16.34c-.09,1.88.8,3.67,2.35,4.73.97.58,2.09.87,3.22.83,1.16.04,2.3-.32,3.22-1.03.5-.43.92-.96,1.21-1.55h5.97c-.26,1.55-1.02,2.97-2.17,4.04-2.2,2.27-5.28,3.46-8.44,3.26-2.87.04-5.66-.94-7.89-2.75-2.28-1.83-3.42-4.81-3.42-8.96,0-3.87,1.03-6.85,3.09-8.92,2.12-2.1,5.01-3.22,7.99-3.11,1.81-.02,3.59.34,5.25,1.06m-8.68,5.05c-.87.95-1.42,2.15-1.56,3.42h10.08c0-1.34-.58-2.62-1.56-3.53-.95-.81-2.17-1.24-3.42-1.21-1.29-.08-2.56.39-3.49,1.28m30.01-5.99h.51v5.99c-.38,0-.7-.07-.99-.08h-.7c-2.35,0-3.93.76-4.74,2.28-.53,1.25-.77,2.61-.68,3.97v10.7h-5.89v-22.34h5.59v3.9c.62-1.13,1.41-2.17,2.35-3.06,1.21-.95,2.73-1.44,4.27-1.37h.29m4.49.1h5.92v22.83h-5.92v-22.83Zm24.18,8.45c-.09-.82-.38-1.6-.84-2.28-.73-.94-1.88-1.45-3.07-1.36-1.87-.08-3.55,1.13-4.05,2.93-.43,1.33-.62,2.73-.57,4.13-.05,1.34.14,2.68.57,3.95.51,1.73,2.15,2.89,3.95,2.8,1.1.1,2.18-.32,2.92-1.14.61-.84.97-1.84,1.05-2.88h5.97c-.16,1.83-.83,3.58-1.93,5.05-1.89,2.58-4.97,4.03-8.16,3.84-3.6,0-6.26-1.07-7.99-3.2-1.78-2.39-2.68-5.32-2.55-8.3,0-3.85.94-6.85,2.81-8.96,1.97-2.18,4.82-3.36,7.76-3.21,2.42-.1,4.82.57,6.85,1.89,1.79,1.26,2.85,3.48,3.17,6.67l-5.89.07Zm18.94.74c.78-.07,1.55-.25,2.28-.53.74-.22,1.25-.89,1.26-1.66.08-.77-.3-1.51-.97-1.89-.89-.4-1.86-.58-2.83-.53-1.1-.11-2.19.26-2.98,1.03-.46.6-.75,1.31-.83,2.05h-5.64c.06-1.74.66-3.42,1.7-4.81,1.56-1.97,4.22-2.96,7.99-2.96,2.27-.04,4.51.46,6.55,1.45,1.91.98,2.87,2.81,2.87,5.5v12.85c-.02.54.1,1.08.34,1.56.23.3.52.53.87.67v.87h-6.37c-.16-.41-.28-.83-.37-1.27-.08-.45-.13-.9-.16-1.36-.81.9-1.76,1.67-2.81,2.28-1.31.76-2.79,1.15-4.3,1.14-1.84.07-3.64-.55-5.05-1.74-1.37-1.26-2.1-3.06-1.99-4.92-.22-2.5,1.06-4.9,3.26-6.11,1.62-.81,3.37-1.29,5.17-1.44l2-.25v.02Zm3.62,2.73c-.36.23-.74.41-1.14.56-.51.18-1.03.32-1.56.4l-1.34.25c-.94.12-1.85.39-2.69.8-.9.49-1.44,1.45-1.38,2.48-.07.82.24,1.62.84,2.17.59.45,1.31.68,2.05.66,1.27,0,2.5-.41,3.53-1.14,1.09-.76,1.65-2.11,1.68-4.04v-2.17.03Zm29.02-10.19c1.46,1.22,2.19,3.22,2.19,6.03v15.07h-5.99v-13.63c.04-.93-.11-1.86-.47-2.72-.64-1.18-1.93-1.86-3.26-1.71-1.76-.14-3.4.89-4.05,2.52-.42,1.09-.61,2.26-.57,3.42v12.09h-5.86v-22.33h5.71v3.26c.56-.94,1.28-1.78,2.12-2.49,1.33-.95,2.94-1.42,4.57-1.36,2.06-.1,4.09.54,5.71,1.82m16.13,7.49c.78-.07,1.55-.25,2.28-.53.74-.21,1.25-.88,1.26-1.66.08-.77-.3-1.51-.97-1.89-.89-.4-1.86-.58-2.83-.53-1.1-.11-2.19.26-2.98,1.03-.46.6-.75,1.31-.83,2.05h-5.64c.04-1.73.6-3.4,1.61-4.81,1.52-1.97,4.19-2.96,7.99-2.96,2.27-.04,4.51.46,6.55,1.45,1.91.98,2.87,2.81,2.87,5.5v12.85c-.02.54.1,1.08.34,1.56.23.3.52.53.87.67v.87h-6.36c-.17-.41-.29-.83-.38-1.27-.07-.4-.11-.86-.16-1.36-.81.9-1.76,1.67-2.81,2.28-1.3.76-2.79,1.15-4.29,1.14-1.84.07-3.64-.55-5.05-1.74-1.37-1.26-2.11-3.06-2-4.92-.21-2.5,1.07-4.89,3.26-6.11,1.62-.8,3.37-1.29,5.17-1.44l2.09-.23Zm3.58,2.73c-.36.22-.74.41-1.14.56-.51.18-1.04.32-1.58.4l-1.34.25c-.93.12-1.84.39-2.68.8-.9.49-1.44,1.45-1.38,2.48-.07.82.24,1.62.84,2.17.59.45,1.31.69,2.05.66,1.26-.01,2.5-.41,3.53-1.14,1.07-.76,1.63-2.11,1.68-4.04v-2.13Zm15.51,3.73c.03.8.31,1.58.8,2.21.73.78,2.08,1.14,4.04,1.14.94.04,1.89-.13,2.75-.51.87-.38,1.27-1.38.89-2.25-.14-.33-.38-.6-.69-.78-1.98-.78-4.03-1.37-6.12-1.77-2-.33-3.88-1.12-5.51-2.32-1.09-1.05-1.66-2.52-1.56-4.03,0-2.05.88-4,2.44-5.33,1.92-1.58,4.37-2.38,6.85-2.23,2.4-.11,4.77.48,6.85,1.68,1.77,1.14,2.77,3.04,3.04,5.78h-5.84c-.04-.65-.26-1.27-.64-1.79-.87-.86-2.08-1.28-3.3-1.14-.95-.08-1.9.13-2.73.61-.49.3-.79.82-.81,1.39-.03.62.31,1.19.87,1.46,1.99.7,4.03,1.25,6.11,1.62,1.93.35,3.74,1.21,5.24,2.48,1.14,1.08,1.78,2.59,1.76,4.16.05,2.09-.86,4.1-2.48,5.43-1.66,1.39-4.2,2.1-7.66,2.1s-6.12-.74-7.81-2.23c-1.66-1.43-2.58-3.52-2.51-5.71l6.03.03ZM.02,17.5h227.92v5.71H.02v-5.71ZM.02,56.79h227.92v5.71H.02v-5.71Z"/></svg>