<?xml version="1.0" encoding="UTF-8" standalone="no"?>
<svg width="32" height="32" viewBox="0 0 32 32" fill="none" class="trending-topics__Highlight-sc-1dvpwj6-3 iHDczH" version="1.1" id="svg1" sodipodi:docname="americanas.svg" inkscape:version="1.4-beta2 (9aaf4f34, 2024-07-30)" xmlns:inkscape="http://www.inkscape.org/namespaces/inkscape" xmlns:sodipodi="http://sodipodi.sourceforge.net/DTD/sodipodi-0.dtd" xmlns="http://www.w3.org/2000/svg" xmlns:svg="http://www.w3.org/2000/svg">
  <defs id="defs1" />
  <sodipodi:namedview id="namedview1" pagecolor="#ffffff" bordercolor="#000000" borderopacity="0.25" inkscape:showpageshadow="2" inkscape:pageopacity="0.0" inkscape:pagecheckerboard="0" inkscape:deskcolor="#d1d1d1" inkscape:zoom="5.1812225" inkscape:cx="6.9481672" inkscape:cy="8.2026974" inkscape:window-width="1440" inkscape:window-height="790" inkscape:window-x="0" inkscape:window-y="0" inkscape:window-maximized="1" inkscape:current-layer="svg1" />
  <g id="g1" transform="matrix(2.204464,0,0,2.204464,6.079912,2.88e-7)">
    <path fill-rule="evenodd" clip-rule="evenodd" d="m 0,12.484 h 9 v 2.032 H 0 Z m 4.447,-9.29 a 5.075,5.075 0 0 1 2.26,0.484 C 7.366,4 7.695,4.609 7.695,5.505 v 3.408 c 0,0.236 0.005,0.522 0.015,0.859 -0.006,0.18 0.036,0.358 0.12,0.517 0.078,0.1 0.181,0.178 0.299,0.225 v 0.287 H 5.925 A 2.095,2.095 0 0 1 5.797,10.378 4.594,4.594 0 0 1 5.74,9.928 4.14,4.14 0 0 1 4.774,10.669 C 4.32,10.915 3.811,11.04 3.295,11.032 A 2.61,2.61 0 0 1 1.557,10.456 2.013,2.013 0 0 1 0.87,8.823 2.1,2.1 0 0 1 1.973,6.84 5.052,5.052 0 0 1 3.751,6.362 L 4.441,6.281 C 4.714,6.258 4.984,6.201 5.244,6.111 A 0.587,0.587 0 0 0 5.678,5.558 0.648,0.648 0 0 0 5.347,4.928 2.141,2.141 0 0 0 4.377,4.754 1.295,1.295 0 0 0 3.36,5.094 1.385,1.385 0 0 0 3.076,5.776 H 1.12 C 1.137,5.196 1.336,4.636 1.689,4.173 2.224,3.52 3.143,3.193 4.447,3.193 Z M 5.669,7.188 A 2.24,2.24 0 0 1 5.282,7.376 3.352,3.352 0 0 1 4.745,7.508 L 4.29,7.59 A 3.03,3.03 0 0 0 3.373,7.856 0.883,0.883 0 0 0 2.903,8.681 0.85,0.85 0 0 0 3.193,9.399 C 3.395,9.55 3.642,9.628 3.893,9.621 4.323,9.623 4.743,9.494 5.098,9.253 5.466,9.007 5.656,8.56 5.671,7.91 Z M 9,0 V 2.032 H 0 V 0 Z" fill="#fff" id="path1" style="fill:#000000" />
  </g>
</svg>
