<svg id="Camada_1" data-name="Camada 1" xmlns="http://www.w3.org/2000/svg" viewBox="0 0 200 80"><path d="M9.09,38.54a7.56,7.56,0,0,0,2.05-.46,1.52,1.52,0,0,0,1.11-1.45A1.71,1.71,0,0,0,11.4,35a5.33,5.33,0,0,0-2.49-.46,3.27,3.27,0,0,0-2.61.9,3.71,3.71,0,0,0-.73,1.8H.63A7.54,7.54,0,0,1,2.07,33q2-2.59,7-2.59a12.63,12.63,0,0,1,5.74,1.27c1.67.86,2.51,2.46,2.51,4.82v9c0,.62,0,1.37,0,2.26a2.88,2.88,0,0,0,.31,1.37,1.83,1.83,0,0,0,.75.59v.76H12.86a5.67,5.67,0,0,1-.33-1.11,11.85,11.85,0,0,1-.14-1.19,10.21,10.21,0,0,1-2.46,2,7.38,7.38,0,0,1-3.76,1,6.48,6.48,0,0,1-4.42-1.52A5.39,5.39,0,0,1,0,45.25,5.56,5.56,0,0,1,2.81,40a12.43,12.43,0,0,1,4.52-1.26Zm3.14,2.39a5.43,5.43,0,0,1-1,.49,7.16,7.16,0,0,1-1.38.35L8.69,42a7.51,7.51,0,0,0-2.36.7,2.32,2.32,0,0,0-1.21,2.17,2.27,2.27,0,0,0,.74,1.9,2.8,2.8,0,0,0,1.8.58,5.39,5.39,0,0,0,3.09-1q1.42-1,1.47-3.54Zm34.1-10a5.81,5.81,0,0,1,2.29,1.77,5.6,5.6,0,0,1,1.11,2.51,17.54,17.54,0,0,1,.18,2.9l0,12.35H44.62V38a4.08,4.08,0,0,0-.36-1.83,2.55,2.55,0,0,0-2.52-1.37,3,3,0,0,0-2.93,1.77,5.62,5.62,0,0,0-.41,2.25V50.46H33.24V38.79a6.5,6.5,0,0,0-.36-2.53,2.5,2.5,0,0,0-2.53-1.42,3,3,0,0,0-3,1.42,5.51,5.51,0,0,0-.41,2.4v11.8H21.79V30.9h5v2.86a8.39,8.39,0,0,1,1.8-2.18,6.22,6.22,0,0,1,3.87-1.15,6.09,6.09,0,0,1,3.63,1,5.75,5.75,0,0,1,1.69,2.36,6.57,6.57,0,0,1,2.5-2.54,7.64,7.64,0,0,1,3.53-.8,6.72,6.72,0,0,1,2.55.49m21.13.33a8,8,0,0,1,3.39,2.9,9.64,9.64,0,0,1,1.56,4.05,25.45,25.45,0,0,1,.17,3.89H58.3a4.73,4.73,0,0,0,2.06,4.14,5.19,5.19,0,0,0,2.82.73A4.35,4.35,0,0,0,66,46.08a4.29,4.29,0,0,0,1.06-1.36h5.23a6.29,6.29,0,0,1-1.9,3.54A9.49,9.49,0,0,1,63,51.12a10.7,10.7,0,0,1-6.91-2.41q-3-2.4-3-7.85c0-3.39.9-6,2.71-7.81a9.43,9.43,0,0,1,7-2.72,11.31,11.31,0,0,1,4.6.93M59.8,35.68a5.34,5.34,0,0,0-1.37,3h8.83a4.23,4.23,0,0,0-1.37-3.09,4.45,4.45,0,0,0-3-1.06,4.08,4.08,0,0,0-3.06,1.12M86.12,30.4l.45,0v5.25c-.33,0-.61-.06-.87-.07l-.61,0q-3.09,0-4.15,2a7.73,7.73,0,0,0-.6,3.48v9.37H75.18V30.86h4.9v3.42a11,11,0,0,1,2.06-2.68,5.65,5.65,0,0,1,3.74-1.2h.25m3.93.09h5.19v20H90.06Zm21.18,7.4a4.49,4.49,0,0,0-.74-2,3.1,3.1,0,0,0-2.69-1.19,3.53,3.53,0,0,0-3.55,2.57,10.61,10.61,0,0,0-.5,3.62,9.71,9.71,0,0,0,.5,3.46,3.43,3.43,0,0,0,3.46,2.45,3.06,3.06,0,0,0,2.56-1,4.91,4.91,0,0,0,.92-2.52h5.23a8.62,8.62,0,0,1-1.69,4.42,8.24,8.24,0,0,1-7.15,3.36q-4.73,0-7-2.8a11.32,11.32,0,0,1-2.23-7.27c0-3.37.82-6,2.46-7.85a8.58,8.58,0,0,1,6.8-2.81,10.21,10.21,0,0,1,6,1.66q2.35,1.65,2.78,5.84Zm16.59.65a7.76,7.76,0,0,0,2-.46,1.53,1.53,0,0,0,1.1-1.45,1.7,1.7,0,0,0-.85-1.66,5.26,5.26,0,0,0-2.48-.46,3.27,3.27,0,0,0-2.61.9,3.62,3.62,0,0,0-.73,1.8h-4.94A7.46,7.46,0,0,1,120.81,33c1.37-1.73,3.7-2.59,7-2.59a12.63,12.63,0,0,1,5.74,1.27c1.67.86,2.51,2.46,2.51,4.82v9c0,.62,0,1.37,0,2.26a2.91,2.91,0,0,0,.3,1.37,1.87,1.87,0,0,0,.76.59v.76h-5.58a6.36,6.36,0,0,1-.32-1.11,11.85,11.85,0,0,1-.14-1.19,10.41,10.41,0,0,1-2.46,2,7.42,7.42,0,0,1-3.77,1,6.52,6.52,0,0,1-4.42-1.52,5.41,5.41,0,0,1-1.74-4.31A5.56,5.56,0,0,1,121.55,40a12.37,12.37,0,0,1,4.53-1.26l1.75-.22ZM131,40.93a5.43,5.43,0,0,1-1,.49,7.23,7.23,0,0,1-1.37.35l-1.17.22a7.6,7.6,0,0,0-2.36.7,2.32,2.32,0,0,0-1.21,2.17,2.3,2.3,0,0,0,.74,1.9,2.84,2.84,0,0,0,1.8.58,5.39,5.39,0,0,0,3.09-1q1.43-1,1.47-3.54v-1.9ZM156.42,32c1.28,1.07,1.92,2.82,1.92,5.28v13.2h-5.25V38.54a5.56,5.56,0,0,0-.41-2.38,2.89,2.89,0,0,0-2.86-1.5,3.53,3.53,0,0,0-3.55,2.21,7.68,7.68,0,0,0-.5,3V50.46h-5.13V30.9h5v2.86a8.57,8.57,0,0,1,1.86-2.18,6.45,6.45,0,0,1,4-1.19,7.51,7.51,0,0,1,5,1.59m14.13,6.56a7.56,7.56,0,0,0,2-.46,1.51,1.51,0,0,0,1.1-1.45,1.7,1.7,0,0,0-.85-1.66,5.26,5.26,0,0,0-2.48-.46,3.27,3.27,0,0,0-2.61.9,3.62,3.62,0,0,0-.73,1.8h-4.94A7.54,7.54,0,0,1,163.53,33q2-2.59,7-2.59a12.63,12.63,0,0,1,5.74,1.27c1.67.86,2.51,2.46,2.51,4.82v9c0,.62,0,1.37,0,2.26a2.91,2.91,0,0,0,.3,1.37,1.87,1.87,0,0,0,.76.59v.76h-5.57a5.67,5.67,0,0,1-.33-1.11c-.06-.35-.1-.75-.14-1.19a10.21,10.21,0,0,1-2.46,2,7.38,7.38,0,0,1-3.76,1,6.48,6.48,0,0,1-4.42-1.52,5.42,5.42,0,0,1-1.75-4.31A5.58,5.58,0,0,1,164.27,40a12.43,12.43,0,0,1,4.53-1.26Zm3.14,2.39a5.68,5.68,0,0,1-1,.49,7.58,7.58,0,0,1-1.38.35l-1.17.22a7.44,7.44,0,0,0-2.35.7,2.32,2.32,0,0,0-1.21,2.17,2.3,2.3,0,0,0,.74,1.9,2.8,2.8,0,0,0,1.8.58,5.41,5.41,0,0,0,3.09-1q1.41-1,1.47-3.54Zm13.59,3.27a3.35,3.35,0,0,0,.7,1.94c.64.68,1.82,1,3.54,1a5.39,5.39,0,0,0,2.41-.45,1.5,1.5,0,0,0,.18-2.66,30.11,30.11,0,0,0-5.36-1.55A11.21,11.21,0,0,1,184,40.45a4.5,4.5,0,0,1-1.37-3.53,6.11,6.11,0,0,1,2.14-4.67,8.59,8.59,0,0,1,6-1.95,11,11,0,0,1,6,1.47c1.55,1,2.43,2.66,2.66,5.06h-5.12a3,3,0,0,0-.56-1.57,3.52,3.52,0,0,0-2.89-1,4.14,4.14,0,0,0-2.39.53,1.49,1.49,0,0,0-.71,1.22,1.35,1.35,0,0,0,.76,1.28,34.48,34.48,0,0,0,5.35,1.42,9.84,9.84,0,0,1,4.59,2.17A4.92,4.92,0,0,1,200,44.52a6,6,0,0,1-2.17,4.76c-1.45,1.22-3.68,1.84-6.71,1.84s-5.36-.65-6.84-1.95a6.34,6.34,0,0,1-2.2-5ZM0,20.27H199.66v5H0ZM0,54.69H199.66v5H0Z"/></svg>