<?xml version="1.0" encoding="UTF-8"?><svg id="a" xmlns="http://www.w3.org/2000/svg" viewBox="0 0 90.4 80"><g id="b"><g id="c"><g id="d"><polyline id="e" points="0 69.12 90.4 69.12 90.4 80 0 80 0 69.12" style="fill-rule:evenodd; stroke-width:0px;"/></g><polyline id="f" points="20.8 0 5.6 45.6 16.64 45.6 26.88 13.44 32.08 29.52 25.44 29.52 22.72 38.72 35.12 38.72 37.28 45.6 48.64 45.6 33.44 0 20.8 0" style="fill-rule:evenodd; stroke-width:0px;"/><path id="g" d="m65.92,0h-15.84v45.6h10.88V9.2h4.4c5.12,0,8,2.4,8,6.8s-2.88,6.8-8,6.8h-.72v9.2h1.2c11.84,0,18.72-5.92,18.72-16,.08-10.32-6.88-16-18.64-16" style="fill-rule:evenodd; stroke-width:0px;"/></g></g></svg>