<svg width="32" height="32" fill="none" xmlns="http://www.w3.org/2000/svg">
  <path d="M57.348 0h41.137C99.322 0 100 .678 100 1.515v62.868c0 1.506-1.958 2.09-2.783.83L56.08 2.345C55.42 1.337 56.143 0 57.348 0Z" fill="#000" style="fill:#000" transform="scale(.32)"/>
  <path d="M42.652 0H1.515C.678 0 0 .678 0 1.515v62.868c0 1.506 1.958 2.09 2.783.83L43.92 2.345C44.58 1.337 43.857 0 42.652 0Z" fill="#000" style="fill:#000" transform="scale(.32)"/>
  <path d="M49.295 50.334 2.563 97.418C1.614 98.374 2.291 100 3.64 100h92.76c1.343 0 2.022-1.615 1.084-2.574L51.454 50.342a1.515 1.515 0 0 0-2.159-.008z" fill="#000" style="fill:#000" transform="scale(.32)"/>
</svg>