<?xml version="1.0" standalone="no"?>
<svg version="1.0" xmlns="http://www.w3.org/2000/svg"
 width="180.000000pt" height="180.000000pt" viewBox="0 0 180.000000 180.000000"
 preserveAspectRatio="xMidYMid meet">
<g transform="translate(0.000000,180.000000) scale(0.100000,-0.100000)"
fill="#000000" stroke="none">
<path d="M337 918 c-169 -420 -310 -771 -313 -780 -6 -17 10 -18 247 -18 l254
0 16 38 c8 20 136 337 284 704 148 367 270 666 272 664 2 -1 -36 -123 -84
-270 l-86 -268 21 -44 22 -44 -38 0 -37 0 -80 -253 -81 -252 221 -3 220 -2 50
-135 49 -135 254 0 c238 0 254 1 248 18 -4 9 -144 360 -313 780 l-307 762
-256 0 -256 0 -307 -762z"/>
</g>
</svg>
