<?xml version="1.0" encoding="UTF-8"?><svg id="a" xmlns="http://www.w3.org/2000/svg" viewBox="0 0 260 80"><path d="m44.91,11.86H11.37C5.09,11.86,0,16.95,0,23.23v33.55c0,6.27,5.09,11.36,11.37,11.36h33.55c6.27,0,11.37-5.09,11.37-11.37V23.23c0-6.28-5.09-11.37-11.37-11.37ZM15.56,56.42c-.7,1.23-2.27,1.65-3.5.94s-1.65-2.27-.94-3.5l1.83-3.17c2.07-.64,3.75-.15,5.08,1.46l-2.46,4.27Zm17.78-6.91H10.06c-1.42,0-2.56-1.14-2.56-2.56s1.14-2.56,2.56-2.56h6.53l8.36-14.48-2.61-4.53c-.7-1.23-.29-2.79.94-3.5,1.23-.7,2.79-.29,3.5.94l1.12,1.98,1.14-1.97c.7-1.23,2.27-1.65,3.5-.94s1.65,2.27.94,3.5l-10.98,19.01h7.94c2.57,0,4.02,3.02,2.9,5.12Zm12.54.01h-3.7l2.5,4.33c.7,1.23.29,2.79-.94,3.5-1.23.7-2.79.29-3.5-.94-4.21-7.29-7.36-12.75-9.46-16.39-2.15-3.7-.61-7.41.9-8.67,1.68,2.88,4.19,7.24,7.55,13.05h6.66c1.42,0,2.56,1.14,2.56,2.56s-1.14,2.56-2.56,2.56Z" style="stroke-width:0px;"/><path d="m102.66,54.31h-5.16l-2.91-9.05h-9.84l-2.75,9.05h-5.02l9.84-30.56h6.14l9.69,30.56h0Zm-9.05-12.61l-2.59-7.93c-.32-.81-.81-2.75-1.64-5.82h-.16l-1.45,5.82-2.59,7.93h8.43Zm34.28,1.45c0,3.72-.97,6.8-3.07,8.89-1.78,1.94-4.04,2.91-6.8,2.91-2.91,0-5.02-.97-6.3-3.07v11.64h-4.85v-23.93l-.16-7.27h4.37l.32,3.56h.16c1.64-2.59,4.04-3.88,7.44-3.88,2.59,0,4.85.97,6.46,3.07,1.64,1.94,2.43,4.69,2.43,8.09h0Zm-5.02.16c0-2.1-.49-3.88-1.45-5.34-1.13-1.45-2.43-2.1-4.21-2.1-1.13,0-2.27.49-3.24,1.13-1.01.81-1.7,1.96-1.94,3.24-.16.49-.32.97-.32,1.45v3.72c-.04,1.48.48,2.93,1.45,4.04.97,1.13,2.27,1.64,3.88,1.64,1.78,0,3.24-.65,4.37-2.1.97-1.45,1.45-3.4,1.45-5.66v-.02h0Zm30.4-.16c0,3.72-.97,6.8-3.07,8.89-1.78,1.94-4.04,2.91-6.8,2.91-2.91,0-5.02-.97-6.3-3.07h-.16v11.64h-4.85v-23.93l-.16-7.27h4.37l.32,3.56h.16c1.64-2.59,4.04-3.88,7.44-3.88,2.59,0,4.85.97,6.46,3.07,1.78,1.94,2.59,4.69,2.59,8.09h0,0Zm-5.02.16c0-2.1-.49-3.88-1.45-5.34-1.13-1.45-2.43-2.1-4.21-2.1-1.13,0-2.27.49-3.24,1.13-1.01.81-1.7,1.96-1.94,3.24-.16.65-.16,1.13-.16,1.45v3.72c-.04,1.48.48,2.93,1.45,4.04.97,1.13,2.27,1.64,3.88,1.64,1.78,0,3.24-.65,4.37-2.1.81-1.45,1.29-3.4,1.29-5.66v-.02h0Zm33.31,2.42c0,2.59-.97,4.69-2.75,6.3-1.94,1.78-4.69,2.75-8.43,2.75-3.24,0-5.99-.65-7.93-1.94l1.13-4.04c2.1,1.29,4.53,1.94,7.11,1.94,1.78,0,3.24-.49,4.37-1.29.97-.81,1.64-1.94,1.64-3.4.02-1.16-.45-2.27-1.29-3.07-.81-.81-2.27-1.64-4.21-2.43-5.34-1.94-8.09-4.85-8.09-8.73-.06-2.36.96-4.61,2.75-6.14,1.94-1.64,4.37-2.43,7.44-2.43,2.75,0,5.16.49,6.95,1.45l-1.29,4.04c-1.79-.97-3.79-1.47-5.82-1.45-1.78,0-3.07.49-4.04,1.29-.81.81-1.29,1.64-1.29,2.75,0,1.19.53,2.32,1.46,3.07.81.65,2.27,1.45,4.53,2.43,2.59,1.13,4.53,2.27,5.82,3.72,1.45,1.29,1.94,3.07,1.94,5.16v.02h.02Zm16.33-9.7h-5.34v10.67c0,2.75.97,4.04,2.91,4.04.81,0,1.64,0,2.1-.16l.16,3.72c-.97.32-2.27.49-3.88.49-1.94,0-3.4-.65-4.53-1.78s-1.64-3.24-1.64-5.98v-11.14h-3.24v-3.72h3.24v-3.88l4.85-1.45v5.5h5.34l.02,3.69h0Zm24.25,7.11c0,3.4-.97,6.14-2.91,8.43-2.1,2.27-4.69,3.4-8.09,3.4s-5.82-1.13-7.76-3.24-2.91-4.85-2.91-8.09.97-6.14,2.91-8.43c1.94-2.1,4.69-3.24,8.09-3.24s5.82,1.13,7.76,3.24c2.1,1.94,2.91,4.69,2.91,7.93h0Zm-5.02.16c.04-1.81-.41-3.59-1.29-5.18-.97-1.78-2.43-2.59-4.37-2.59s-3.4.81-4.53,2.59c-.81,1.45-1.29,3.24-1.29,5.34-.04,1.81.41,3.59,1.29,5.18,1.13,1.78,2.59,2.59,4.53,2.59s3.4-.97,4.37-2.75c.81-1.29,1.29-3.07,1.29-5.16v-.02Zm21.02-6.63c-.49-.16-.97-.16-1.64-.16-1.78,0-3.07.65-4.04,1.94-.81,1.13-1.29,2.59-1.29,4.37v11.64h-4.85v-15.04l-.16-6.95h4.21l.16,4.21h.16c.46-1.39,1.3-2.62,2.43-3.56,1.13-.81,2.27-1.13,3.56-1.13.49,0,.81,0,1.29.16l.18,4.53h0Zm21.83,5.66c0,.81,0,1.64-.16,2.27h-14.72c0,2.1.81,3.88,2.1,5.02,1.39,1.06,3.1,1.62,4.85,1.62,2.1,0,4.21-.32,5.99-.97l.81,3.4c-2.1.97-4.53,1.29-7.44,1.29-3.4,0-6.14-.97-8.09-3.07-1.94-1.94-2.91-4.69-2.91-8.09s.97-6.14,2.75-8.24c1.94-2.43,4.53-3.56,7.76-3.56s5.66,1.13,7.27,3.56c1.13,1.64,1.78,4.04,1.78,6.8h0Zm-4.53-1.29c0-1.45-.32-2.75-.97-3.72-.81-1.29-2.1-2.1-3.88-2.1-1.64,0-2.91.65-3.88,1.94-.81,1.13-1.29,2.27-1.45,3.88h10.19,0Z" style="stroke-width:0px;"/></svg>