<?xml version="1.0" encoding="UTF-8" standalone="no"?>
<svg id="a" viewBox="0 0 32 32" version="1.1" sodipodi:docname="app-store.svg" width="32" height="32" inkscape:version="1.4-beta2 (9aaf4f34, 2024-07-30)" xmlns:inkscape="http://www.inkscape.org/namespaces/inkscape" xmlns:sodipodi="http://sodipodi.sourceforge.net/DTD/sodipodi-0.dtd" xmlns="http://www.w3.org/2000/svg" xmlns:svg="http://www.w3.org/2000/svg">
  <defs id="defs2" />
  <sodipodi:namedview id="namedview2" pagecolor="#ffffff" bordercolor="#000000" borderopacity="0.25" inkscape:showpageshadow="2" inkscape:pageopacity="0.0" inkscape:pagecheckerboard="0" inkscape:deskcolor="#d1d1d1" inkscape:zoom="0.72695063" inkscape:cx="146.50238" inkscape:cy="74.970703" inkscape:window-width="1440" inkscape:window-height="790" inkscape:window-x="0" inkscape:window-y="0" inkscape:window-maximized="1" inkscape:current-layer="a" />
  <path d="M 25.530645,0.0028425 H 6.4636703 C 2.8935868,0.0028425 0,2.8964295 0,6.4665125 V 25.539172 c 0,3.564398 2.8935868,6.457985 6.4636703,6.457985 H 25.53633 C 29.100728,31.997157 32,29.103571 32,25.533487 V 6.4665125 c 0,-3.570083 -2.893587,-6.46367 -6.46367,-6.46367 z M 8.8456209,25.334517 c -0.3979393,0.699236 -1.2904601,0.938 -1.9896962,0.534376 C 6.1566886,25.465269 5.917925,24.578434 6.3215491,23.879198 L 7.361876,22.0771 c 1.1767632,-0.36383 2.1318174,-0.08527 2.887902,0.829988 L 8.8513057,25.334517 Z M 18.953278,21.406289 H 5.7189554 c -0.8072482,0 -1.4553207,-0.648072 -1.4553207,-1.45532 0,-0.807249 0.6480725,-1.455322 1.4553207,-1.455322 H 9.4311601 L 14.183692,10.26399 12.699947,7.6887545 c -0.39794,-0.699236 -0.164861,-1.586072 0.534375,-1.989696 0.699236,-0.397939 1.586072,-0.164861 1.989696,0.534376 l 0.636703,1.125599 0.648073,-1.119915 c 0.397939,-0.699236 1.29046,-0.937999 1.989696,-0.534375 0.699236,0.403624 0.938,1.29046 0.534376,1.989696 L 12.790904,18.501332 h 4.513768 c 1.461006,0 2.285308,1.716824 1.648606,2.910642 z m 7.128797,0.0057 h -2.103393 l 1.421211,2.46154 c 0.39794,0.699235 0.164861,1.586072 -0.534375,1.989696 -0.699236,0.397939 -1.586072,0.164861 -1.989696,-0.534376 -2.393321,-4.144253 -4.184047,-7.248179 -5.377865,-9.317463 -1.222242,-2.103393 -0.346776,-4.212471 0.511636,-4.928761 0.955054,1.637235 2.381951,4.115828 4.292059,7.418724 h 3.786108 c 0.807248,0 1.45532,0.648072 1.45532,1.455321 0,0.807248 -0.648072,1.45532 -1.45532,1.45532 z" style="stroke-width:0px" id="path1" />
</svg>
