<?xml version="1.0" encoding="UTF-8"?><svg id="a" xmlns="http://www.w3.org/2000/svg" viewBox="0 0 369.63 80"><defs><style>.b{stroke-width:0px;}</style></defs><path class="b" d="m63.84,0H16.16C7.23,0,0,7.23,0,16.16v47.69c0,8.92,7.23,16.15,16.16,16.15h47.69c8.92,0,16.16-7.23,16.16-16.16V16.16c0-8.93-7.24-16.16-16.17-16.16ZM22.12,63.34c-1,1.75-3.23,2.34-4.98,1.34s-2.34-3.23-1.34-4.98l2.6-4.5c2.94-.91,5.33-.21,7.22,2.07l-3.5,6.07Zm25.28-9.82H14.3c-2.02,0-3.64-1.62-3.64-3.64s1.62-3.64,3.64-3.64h9.28l11.88-20.59-3.71-6.44c-1-1.75-.41-3.96,1.34-4.98,1.75-1,3.96-.41,4.98,1.34l1.59,2.81,1.62-2.8c1-1.75,3.23-2.34,4.98-1.34s2.34,3.23,1.34,4.98l-15.61,27.02h11.29c3.66,0,5.71,4.3,4.12,7.28Zm17.83.02h-5.26l3.55,6.16c1,1.75.41,3.96-1.34,4.98-1.75,1-3.96.41-4.98-1.34-5.98-10.37-10.47-18.13-13.45-23.3-3.05-5.26-.87-10.54,1.28-12.33,2.39,4.1,5.96,10.29,10.73,18.55h9.47c2.02,0,3.64,1.62,3.64,3.64s-1.62,3.64-3.64,3.64Z"/><path class="b" d="m145.95,60.35h-7.33l-4.14-12.87h-13.99l-3.91,12.87h-7.13l13.99-43.45h8.73l13.77,43.45Zm-12.87-17.93l-3.68-11.27c-.46-1.15-1.15-3.91-2.33-8.28h-.23l-2.06,8.28-3.68,11.27h11.98Zm48.74,2.06c0,5.29-1.38,9.66-4.37,12.64-2.53,2.76-5.75,4.14-9.66,4.14-4.14,0-7.13-1.38-8.96-4.37v16.55h-6.89v-34.02l-.23-10.34h6.21l.46,5.06h.23c2.33-3.68,5.75-5.52,10.57-5.52,3.68,0,6.89,1.38,9.19,4.37,2.33,2.76,3.45,6.67,3.45,11.5h0Zm-7.13.23c0-2.99-.69-5.52-2.06-7.59-1.61-2.06-3.45-2.99-5.98-2.99-1.61,0-3.22.69-4.6,1.61-1.44,1.15-2.42,2.78-2.76,4.6-.23.69-.46,1.38-.46,2.06v5.29c-.06,2.11.68,4.16,2.06,5.75,1.38,1.61,3.22,2.33,5.52,2.33,2.53,0,4.6-.92,6.21-2.99,1.38-2.06,2.06-4.83,2.06-8.05v-.03Zm43.22-.23c0,5.29-1.38,9.66-4.37,12.64-2.53,2.76-5.75,4.14-9.66,4.14-4.14,0-7.13-1.38-8.96-4.37h-.23v16.55h-6.89v-34.02l-.23-10.34h6.21l.46,5.06h.23c2.33-3.68,5.75-5.52,10.57-5.52,3.68,0,6.89,1.38,9.19,4.37,2.53,2.76,3.68,6.67,3.68,11.5h.01Zm-7.13.23c0-2.99-.69-5.52-2.06-7.59-1.61-2.06-3.45-2.99-5.98-2.99-1.61,0-3.22.69-4.6,1.61-1.44,1.15-2.42,2.78-2.76,4.6-.23.92-.23,1.61-.23,2.06v5.29c-.06,2.11.68,4.16,2.06,5.75,1.38,1.61,3.22,2.33,5.52,2.33,2.53,0,4.6-.92,6.21-2.99,1.15-2.06,1.84-4.83,1.84-8.05v-.03Zm47.35,3.44c0,3.68-1.38,6.67-3.91,8.96-2.76,2.53-6.67,3.91-11.99,3.91-4.6,0-8.51-.92-11.27-2.76l1.61-5.75c2.99,1.84,6.44,2.76,10.11,2.76,2.53,0,4.6-.69,6.21-1.84,1.38-1.15,2.33-2.76,2.33-4.83.03-1.65-.64-3.23-1.84-4.37-1.15-1.15-3.22-2.33-5.98-3.45-7.59-2.76-11.5-6.89-11.5-12.41-.08-3.35,1.36-6.56,3.91-8.73,2.76-2.33,6.21-3.45,10.57-3.45,3.91,0,7.33.69,9.88,2.06l-1.84,5.75c-2.54-1.38-5.39-2.09-8.28-2.06-2.53,0-4.37.69-5.75,1.84-1.15,1.15-1.84,2.33-1.84,3.91,0,1.69.76,3.3,2.07,4.37,1.15.92,3.22,2.06,6.44,3.45,3.68,1.61,6.44,3.22,8.28,5.29,2.06,1.84,2.76,4.37,2.76,7.33v.03Zm23.22-13.79h-7.59v15.17c0,3.91,1.38,5.75,4.14,5.75,1.15,0,2.33,0,2.99-.23l.23,5.29c-1.38.46-3.22.69-5.52.69-2.76,0-4.83-.92-6.44-2.53s-2.33-4.6-2.33-8.5v-15.83h-4.6v-5.29h4.6v-5.52l6.89-2.06v7.82h7.59l.03,5.25Zm34.48,10.11c0,4.83-1.38,8.73-4.14,11.99-2.99,3.22-6.67,4.83-11.5,4.83s-8.28-1.61-11.03-4.6-4.14-6.89-4.14-11.5c0-4.83,1.38-8.73,4.14-11.99,2.76-2.99,6.67-4.6,11.5-4.6s8.28,1.61,11.03,4.6c2.99,2.76,4.14,6.67,4.14,11.27h0Zm-7.13.23c.05-2.57-.58-5.11-1.84-7.36-1.38-2.53-3.45-3.68-6.21-3.68s-4.83,1.15-6.44,3.68c-1.15,2.06-1.84,4.6-1.84,7.59-.05,2.57.58,5.11,1.84,7.36,1.61,2.53,3.68,3.68,6.44,3.68s4.83-1.38,6.21-3.91c1.15-1.84,1.84-4.37,1.84-7.33v-.03Zm29.88-9.42c-.69-.23-1.38-.23-2.33-.23-2.53,0-4.37.92-5.75,2.76-1.15,1.61-1.84,3.68-1.84,6.21v16.55h-6.89v-21.38l-.23-9.88h5.98l.23,5.98h.23c.65-1.98,1.85-3.73,3.45-5.06,1.61-1.15,3.22-1.61,5.06-1.61.69,0,1.15,0,1.84.23l.25,6.44Zm31.04,8.04c0,1.15,0,2.33-.23,3.22h-20.92c0,2.99,1.15,5.52,2.99,7.13,1.98,1.51,4.41,2.31,6.9,2.3,2.99,0,5.98-.46,8.51-1.38l1.15,4.83c-2.99,1.38-6.44,1.84-10.57,1.84-4.83,0-8.73-1.38-11.5-4.37-2.76-2.76-4.14-6.67-4.14-11.5s1.38-8.73,3.91-11.72c2.76-3.45,6.44-5.06,11.03-5.06s8.05,1.61,10.34,5.06c1.61,2.33,2.53,5.75,2.53,9.66h0Zm-6.44-1.84c0-2.06-.46-3.91-1.38-5.29-1.15-1.84-2.99-2.99-5.52-2.99-2.33,0-4.14.92-5.52,2.76-1.15,1.61-1.84,3.22-2.06,5.52h14.48Z"/></svg>