<?xml version="1.0" encoding="UTF-8" standalone="no"?>
<svg viewBox="0 0 32 32" version="1.1" id="svg2" sodipodi:docname="AppleTVLogo.svg" width="32" height="32" inkscape:version="1.4-beta2 (9aaf4f34, 2024-07-30)" xmlns:inkscape="http://www.inkscape.org/namespaces/inkscape" xmlns:sodipodi="http://sodipodi.sourceforge.net/DTD/sodipodi-0.dtd" xmlns="http://www.w3.org/2000/svg" xmlns:svg="http://www.w3.org/2000/svg">
  <sodipodi:namedview id="namedview2" pagecolor="#ffffff" bordercolor="#000000" borderopacity="0.25" inkscape:showpageshadow="2" inkscape:pageopacity="0.0" inkscape:pagecheckerboard="0" inkscape:deskcolor="#d1d1d1" inkscape:zoom="3.1533343" inkscape:cx="25.052847" inkscape:cy="18.234667" inkscape:window-width="1440" inkscape:window-height="790" inkscape:window-x="0" inkscape:window-y="0" inkscape:window-maximized="1" inkscape:current-layer="svg2" />
  <defs id="defs2">
    <style id="style1">.cls-1{fill:url(#linear-gradient);}.cls-2{fill:#f9f9f9;}</style>
    <linearGradient id="linear-gradient" x1="12.13" y1="14.65" x2="12.13" y2="38.73" gradientTransform="matrix(1,0,0,-1,0,38.73)" gradientUnits="userSpaceOnUse">
      <stop offset="0" stop-color="#111" id="stop1" />
      <stop offset="1" stop-color="#333" id="stop2" />
    </linearGradient>
  </defs>
  <path id="path2" style="fill:#000000;stroke-width:1.31959" class="cls-1" d="M 7.615979,0 A 15.228041,15.228041 0 0 0 5.530928,0.198453 6.5979381,6.5979381 0 0 0 3.615979,0.832474 6.4527834,6.4527834 0 0 0 0.832474,3.615979 6.7958762,6.7958762 0 0 0 0.198453,5.52835 15.228041,15.228041 0 0 0 0,7.613402 v 0.98969 14.806701 0.989691 a 15.597526,15.597526 0 0 0 0.198453,2.097938 6.716701,6.716701 0 0 0 0.634021,1.899485 6.2284535,6.2284535 0 0 0 1.175258,1.623711 6.3868041,6.3868041 0 0 0 1.608247,1.175258 6.5979381,6.5979381 0 0 0 1.914949,0.618557 A 13.393814,13.393814 0 0 0 7.615979,32 h 16.783505 a 13.420206,13.420206 0 0 0 2.097938,-0.185567 6.6903092,6.6903092 0 0 0 1.902062,-0.618557 6.3208247,6.3208247 0 0 0 2.796392,-2.798969 A 6.6903092,6.6903092 0 0 0 31.81701,26.497422 13.697319,13.697319 0 0 0 32,24.399484 V 23.409793 8.590206 7.600515 A 13.393814,13.393814 0 0 0 31.81701,5.515463 6.7826803,6.7826803 0 0 0 31.195876,3.603092 6.3868041,6.3868041 0 0 0 30.020618,1.992268 6.2284535,6.2284535 0 0 0 28.399484,0.81701 6.716701,6.716701 0 0 0 26.497422,0.185567 15.228041,15.228041 0 0 0 24.399484,0 h -6.729381 z m 3.786082,9.237113 A 2.6391752,2.6391752 0 0 1 10.780927,11.149484 2.1905154,2.1905154 0 0 1 9,12.020618 2.6391752,2.6391752 0 0 1 9.63402,10.17268 2.6391752,2.6391752 0 0 1 11.402061,9.237113 Z m 4.60567,1.518041 h 1.662372 v 2.005155 h 1.610825 v 1.319587 h -1.610825 v 4.644331 c 0,0.725773 0.315773,1.069587 1.028351,1.069587 h 0.569586 v 1.319588 a 5.2783505,5.2783505 0 0 1 -0.95103,0.09278 c -1.662681,0 -2.309279,-0.647835 -2.309279,-2.257731 v -4.868555 h -1.226803 v -1.319587 h 1.226803 z m -4.579896,1.396907 a 2.8107216,2.8107216 0 0 1 2.190721,1.188145 2.7315464,2.7315464 0 0 0 -1.319587,2.283504 2.6391752,2.6391752 0 0 0 1.623711,2.427836 6.3604123,6.3604123 0 0 1 -0.81701,1.688144 c -0.527835,0.738969 -1.056186,1.466186 -1.847938,1.479382 -0.791753,0.0132 -1.05598,-0.474227 -1.966495,-0.474227 -0.910516,0 -1.161856,0.460721 -1.953608,0.487113 C 6.545876,21.258348 5.939587,20.452886 5.438144,19.713917 4.408866,18.235979 3.629897,15.519484 4.685567,13.698453 a 2.9558763,2.9558763 0 0 1 2.481958,-1.505155 c 0.778557,-0.01319 1.488866,0.528351 1.963918,0.528351 0.475051,0 1.306701,-0.569588 2.296392,-0.569588 z m 16.430412,0.582475 -2.956185,8.378866 H 23.13402 l -2.956186,-8.353093 h 1.793815 l 2.072165,6.729381 2.085051,-6.729381 z" />
</svg>
