<svg width="32" height="32" viewBox="0 0 1.28 1.28" version="1.1" xmlns="http://www.w3.org/2000/svg" xmlns:svg="http://www.w3.org/2000/svg" >
  <path d="m 0.9370436,0.53934765 v 0.3046257 c 4.27e-5,0.00132 8.54e-5,0.00286 8.54e-5,0.00444 0,0.021722 -0.00482,0.042335 -0.013443,0.060771 l 3.841e-4,-8.962e-4 c -0.014553,0.030002 -0.041098,0.052194 -0.073233,0.060644 l -7.682e-4,1.707e-4 c -0.016857,0.00499 -0.036403,0.00832 -0.056547,0.00922 H 0.79301 c -0.00158,8.54e-5 -0.00337,1.28e-4 -0.00521,1.28e-4 -0.055138,0 -0.099821,-0.044682 -0.099821,-0.099821 0,-0.039476 0.022917,-0.073617 0.056162,-0.089792 l 5.975e-4,-2.561e-4 c 0.015662,-0.00747 0.033843,-0.013443 0.052876,-0.017071 l 0.00141,-2.134e-4 c 0.020143,-0.00435 0.040415,-0.00815 0.060473,-0.012803 0.014041,-0.00239 0.024966,-0.0134 0.027185,-0.027313 l 4.27e-5,-1.707e-4 c 6.828e-4,-0.00303 0.00107,-0.00653 0.00107,-0.010072 0,-8.54e-5 0,-1.28e-4 0,-2.134e-4 v 0 q 0,-0.1451859 -1.28e-4,-0.2902864 c -4.27e-5,-0.00354 -5.548e-4,-0.00691 -0.00145,-0.010157 l 8.53e-5,2.56e-4 c -0.00137,-0.00717 -0.0076,-0.012504 -0.015065,-0.012504 -3.841e-4,0 -8.109e-4,0 -0.0012,4.27e-5 h 4.27e-5 c -0.00947,6.828e-4 -0.018138,0.00196 -0.026587,0.00376 l 0.00128,-2.134e-4 q -0.060814,0.011992 -0.1215857,0.024326 l -0.1972514,0.039903 c -8.535e-4,1.707e-4 -0.00171,5.122e-4 -0.00256,6.829e-4 -0.011864,0.00162 -0.020911,0.011651 -0.020911,0.023856 0,8.108e-4 4.27e-5,0.00162 1.28e-4,0.00239 v -8.54e-5 c -8.53e-5,0.00222 0,0.00457 0,0.00691 q -1.707e-4,0.2081339 -1.707e-4,0.4162252 c 4.27e-5,0.00149 8.54e-5,0.00329 8.54e-5,0.00508 0,0.021722 -0.00422,0.042463 -0.01195,0.061454 l 3.841e-4,-0.00111 c -0.013998,0.0324339 -0.041738,0.0566749 -0.075666,0.065594 l -8.108e-4,1.707e-4 c -0.016985,0.00512 -0.036617,0.00841 -0.056888,0.00918 h -4.267e-4 c -0.00166,8.53e-5 -0.00358,1.707e-4 -0.00551,1.707e-4 -0.048694,0 -0.089066,-0.035422 -0.096791,-0.0819389 l -8.54e-5,-5.548e-4 c -0.00107,-0.00542 -0.00166,-0.011651 -0.00166,-0.01801 0,-0.041866 0.025862,-0.077714 0.062521,-0.092395 l 6.828e-4,-2.56e-4 c 0.016815,-0.00679 0.036659,-0.012504 0.057187,-0.01626 l 0.00192,-2.987e-4 c 0.015321,-0.0032 0.030685,-0.00619 0.045877,-0.00943 0.01818,-0.0026 0.032007,-0.018052 0.032007,-0.036745 0,-4.694e-4 0,-9.388e-4 -4.27e-5,-0.00141 v 8.54e-5 -0.00798 q 0,-0.2367699 8.54e-5,-0.4736678 c 0,-1.28e-4 0,-2.561e-4 0,-3.841e-4 0,-0.00687 8.108e-4,-0.013571 0.00235,-0.01993 l -1.28e-4,5.975e-4 c 0.0035,-0.014083 0.014766,-0.024838 0.028892,-0.027569 l 2.134e-4,-4.27e-5 c 0.013614,-0.0035 0.027484,-0.00597 0.041268,-0.00879 0.039092,-0.00798 0.078184,-0.01579 0.1173181,-0.023686 l 0.1210763,-0.0245486 c 0.03572,-0.00713 0.071483,-0.014382 0.1072037,-0.021509 0.00964,-0.00222 0.02168,-0.00422 0.033928,-0.00555 l 0.00141,-1.281e-4 c 9.815e-4,-1.28e-4 0.00209,-2.134e-4 0.00324,-2.134e-4 0.014382,0 0.026075,0.011565 0.026289,0.025905 v 0 c 4.268e-4,0.00354 6.401e-4,0.00764 6.401e-4,0.011821 0,4.27e-5 0,4.27e-5 0,8.53e-5 v 0 q 1.708e-4,0.1527824 0,0.3056927 z m 0.3425226,-0.2127857 c 0,-0.00154 4.27e-5,-0.00333 4.27e-5,-0.00512 0,-0.039604 -0.00469,-0.078098 -0.013529,-0.1150135 l 6.828e-4,0.00337 C 1.2502047,0.14096135 1.2082109,0.08398805 1.151579,0.04813965 l -0.00107,-6.401e-4 c -0.028593,-0.01865 -0.062308,-0.032178 -0.098498,-0.038494 l -0.00162,-2.133e-4 c -0.024667,-0.00448 -0.053474,-0.00738 -0.082793,-0.00798 H 0.9670026 C 0.9648688,6.4055e-4 0.9625643,2.9915e-4 0.9603878,1.2845e-4 H 0.3192142 c -0.00811,5.121e-4 -0.016174,8.962e-4 -0.024283,0.00137 -0.042165,8.962e-4 -0.082238,0.00862 -0.1195373,0.022149 l 0.0026,-8.108e-4 c -0.069645,0.026669 -0.124143,0.079673 -0.1521389,0.1465046 l -6.401e-4,0.00175 c -0.00905,0.021808 -0.015833,0.047158 -0.019204,0.073617 l -1.707e-4,0.00149 c -0.00273,0.018308 -0.00465,0.040031 -0.00533,0.062094 v 8.535e-4 c 0,0.00171 -3.841e-4,0.00329 -5.121e-4,0.00495 v 0.6518428 c 5.121e-4,0.00747 8.962e-4,0.015108 0.00145,0.022619 9.816e-4,0.0458769 0.010669,0.0892369 0.027356,0.12884065 l -8.535e-4,-0.0023 c 0.032434,0.072806 0.094571,0.1273898 0.1705785,0.1489414 l 0.00188,4.695e-4 c 0.020101,0.00589 0.043573,0.010242 0.06777,0.012077 l 0.0012,8.55e-5 c 0.029618,0.00282 0.059192,0.0032 0.088895,0.0032 h 0.5882546 c 0.029532,0 0.058595,-0.00196 0.087103,-0.00568 l -0.00337,3.415e-4 c 0.046005,-0.00516 0.08753,-0.02057 0.1235061,-0.043872 l -0.00111,6.828e-4 c 0.043957,-0.028721 0.078397,-0.068752 0.099565,-0.115995 l 6.828e-4,-0.00171 c 0.00883,-0.020399 0.015705,-0.04417 0.019503,-0.068965 l 2.133e-4,-0.00166 c 0.00469,-0.029447 0.00738,-0.0633751 0.00738,-0.0979001 0,-0.00384 -4.27e-5,-0.00764 -8.54e-5,-0.011437 v 5.576e-4 q -1.796e-4,-0.3039856 -1.796e-4,-0.6075871 z" fill="#000" style="stroke-width:0.0426766" />
</svg>
