<?xml version="1.0" encoding="UTF-8" standalone="no"?>
<svg fill="#ffffff" viewBox="0 0 32 32" width="32" height="32" version="1.1" id="svg1" sodipodi:docname="apple-maps.svg" inkscape:version="1.4-beta2 (9aaf4f34, 2024-07-30)" xmlns:inkscape="http://www.inkscape.org/namespaces/inkscape" xmlns:sodipodi="http://sodipodi.sourceforge.net/DTD/sodipodi-0.dtd" xmlns="http://www.w3.org/2000/svg" xmlns:svg="http://www.w3.org/2000/svg">
  <defs id="defs1" />
  <sodipodi:namedview id="namedview1" pagecolor="#ffffff" bordercolor="#000000" borderopacity="0.25" inkscape:showpageshadow="2" inkscape:pageopacity="0.0" inkscape:pagecheckerboard="0" inkscape:deskcolor="#d1d1d1" inkscape:zoom="3.4017428" inkscape:cx="32.336366" inkscape:cy="30.425581" inkscape:window-width="1440" inkscape:window-height="872" inkscape:window-x="0" inkscape:window-y="0" inkscape:window-maximized="1" inkscape:current-layer="svg1" />
  <path d="M 7.272727,0 C 6.773818,0 6.288,0.05173 5.818182,0.147727 V 13.491478 C 5.303655,13.674925 4.809973,13.899305 4.363636,14.198864 V 0.613636 C 2.552727,1.406363 1.14525,2.922136 0.463068,4.789773 l 2.446023,1.713068 v 8.931818 L 0,13.397728 v 11.329545 c 0,2.980363 1.797818,5.536182 4.363636,6.659091 V 25.073863 C 5.404737,25.772599 6.654894,26.181818 8,26.181818 c 1.345107,0 2.595263,-0.409219 3.636364,-1.107955 V 32 h 13.090909 c 0.536727,0 1.056387,-0.06559 1.559659,-0.176137 l -12.670455,-8.88068 c 0.57616,-0.97427 0.928978,-2.095448 0.928978,-3.306819 0,-1.542272 -0.558555,-2.942488 -1.454546,-4.062501 V 13.639204 L 31.701705,26.684659 C 31.877705,26.05775 32,25.409455 32,24.727273 v -7.30966 C 22.541091,17.04234 14.95766,9.458909 14.582387,0 H 11.636364 V 14.198864 C 11.190028,13.899305 10.696345,13.674925 10.181818,13.491478 V 0 Z M 20.400569,0 C 20.764205,6.245818 25.754182,11.23434 32,11.599431 V 7.272727 C 32,3.256727 28.743273,0 24.727273,0 Z M 8,14.545455 c 1.426893,0 2.712025,0.591202 3.636364,1.536932 0.224363,0.229454 0.426682,0.479044 0.605114,0.747158 0.17843,0.268115 0.331658,0.55466 0.457386,0.855114 0.125727,0.300455 0.223523,0.613863 0.289773,0.940342 0.06601,0.327176 0.102272,0.664728 0.102272,1.011363 0,0.346181 -0.03602,0.684885 -0.102272,1.011363 -0.06625,0.326478 -0.164046,0.639886 -0.289773,0.940341 -0.125728,0.300454 -0.278956,0.587 -0.457386,0.855115 -0.178432,0.268113 -0.380751,0.517703 -0.605114,0.747157 C 10.712025,24.13607 9.426893,24.727273 8,24.727273 c -1.426105,0 -2.712132,-0.58928 -3.636364,-1.534092 -0.02634,-0.02698 -0.04527,-0.06052 -0.07102,-0.08807 C 4.099044,22.898 3.916009,22.679999 3.758526,22.443183 3.580094,22.174864 3.426867,21.888614 3.301139,21.588068 3.175412,21.287523 3.077617,20.974227 3.011367,20.647727 2.945117,20.321228 2.909094,19.982545 2.909094,19.636364 c 0,-0.346635 0.03626,-0.684187 0.102273,-1.011363 0.06625,-0.326479 0.164045,-0.639887 0.289772,-0.940342 0.125728,-0.300454 0.278955,-0.586999 0.457387,-0.855114 0.178432,-0.268114 0.38075,-0.517704 0.605113,-0.747158 0.924339,-0.94573 2.209471,-1.536932 3.636364,-1.536932 z m 0.03693,1.769886 c -0.139091,-7.27e-4 -0.278568,0.07936 -0.332387,0.238636 l -1.866477,5.52841 c -0.123636,0.370909 0.337341,0.654272 0.610796,0.374999 l 1.590909,-1.627841 1.505682,1.590909 c 0.26909,0.283638 0.738658,0.0059 0.616477,-0.366477 L 8.366475,16.556817 C 8.314835,16.397545 8.176021,16.316068 8.03693,16.315341 Z" id="path1" style="fill:#000000;stroke-width:1.45455" />
</svg>
