<?xml version="1.0" encoding="UTF-8" standalone="no"?>
<!DOCTYPE svg PUBLIC "-//W3C//DTD SVG 1.1//EN" "http://www.w3.org/Graphics/SVG/1.1/DTD/svg11.dtd">
<!-- Created with Vectornator (http://vectornator.io/) -->
<svg height="100%" stroke-miterlimit="10" style="fill-rule:nonzero;clip-rule:evenodd;stroke-linecap:round;stroke-linejoin:round;" version="1.1" viewBox="0 0 200 80" width="100%" xml:space="preserve" xmlns="http://www.w3.org/2000/svg" xmlns:xlink="http://www.w3.org/1999/xlink">
<defs/>
<path d="M0 0L200 0L200 80L0 80L0 0Z" fill="#000000" fill-opacity="0" fill-rule="nonzero" opacity="1" stroke="none"/>
<g id="Sem-Título">
<path d="M41.8963 14.2334C44.7216 10.832 46.1216 6.46955 45.8034 2.05928C41.4734 2.47722 37.4763 4.56496 34.6594 7.87994C31.8263 11.087 30.3882 15.2909 30.6635 19.5612C35.0365 19.6469 39.1959 17.6741 41.8963 14.2334M45.537 20.3648C39.3212 20.0052 34.0822 23.9167 31.1075 23.9167C28.1327 23.9167 23.6041 20.5602 18.7202 20.649C12.2124 20.8324 6.29335 24.4633 3.1807 30.1814C-3.4791 41.7251 1.40475 58.9207 7.88695 68.3199C11.0393 72.7864 14.8131 78.1098 19.8302 77.9366C24.8472 77.7635 26.4012 74.8287 32.1286 74.8287C37.8561 74.8287 39.5432 77.9366 44.5159 77.8256C49.4885 77.7146 52.9516 73.3502 56.0595 68.5019C58.3013 65.1903 60.0511 61.5712 61.2542 57.7574C55.1556 55.0575 51.2098 49.0293 51.1757 42.36C51.2504 36.4733 54.3109 31.028 59.3006 27.9037C56.1382 23.3821 51.0498 20.5917 45.537 20.356M85.185 11.4052L85.185 24.081L95.3079 24.081L95.3079 32.4502L85.185 32.4502L85.185 62.4415C85.185 66.9169 87.183 69.1989 91.6228 69.1989C92.8404 69.1769 94.0558 69.088 95.2635 68.9326L95.2635 77.3683C93.2822 77.6892 91.2767 77.8378 89.2697 77.8123C78.7916 77.8123 74.7514 73.7409 74.7514 63.5337L74.7514 32.65L66.804 32.65L66.804 24.2586L74.5294 24.2586L74.5294 11.4141L85.185 11.4052ZM130.694 77.3505L119.594 77.3505L100.947 24.2586L112.002 24.2586L125.099 66.9169L125.366 66.9169L138.463 24.2586L149.297 24.2586L130.694 77.3505ZM179.443 77.3505L169.853 77.3505L169.853 55.5952L149.252 55.5952L149.252 46.014L169.809 46.014L169.809 24.2586L179.399 24.2586L179.399 46.014L200 46.014L200 55.5952L179.443 55.5952L179.443 77.3505Z" fill="#000000" fill-rule="nonzero" opacity="1" stroke="none"/>
</g>
</svg>
