<?xml version="1.0" encoding="UTF-8" standalone="no"?>
<svg height="32" viewBox="0 0 32 32" width="32" version="1.1" id="svg1" sodipodi:docname="www.apple.com.svg" inkscape:version="1.4-beta2 (9aaf4f34, 2024-07-30)" xmlns:inkscape="http://www.inkscape.org/namespaces/inkscape" xmlns:sodipodi="http://sodipodi.sourceforge.net/DTD/sodipodi-0.dtd" xmlns="http://www.w3.org/2000/svg" xmlns:svg="http://www.w3.org/2000/svg">
  <defs id="defs1" />
  <sodipodi:namedview id="namedview1" pagecolor="#ffffff" bordercolor="#000000" borderopacity="0.25" inkscape:showpageshadow="2" inkscape:pageopacity="0.0" inkscape:pagecheckerboard="0" inkscape:deskcolor="#d1d1d1" inkscape:zoom="2.6111157" inkscape:cx="28.723354" inkscape:cy="42.702052" inkscape:window-width="1440" inkscape:window-height="872" inkscape:window-x="0" inkscape:window-y="0" inkscape:window-maximized="1" inkscape:current-layer="svg1" />
  <path d="m 28.195037,10.90764 a 7.2492689,7.2492689 0 0 0 -3.463584,6.097619 7.0548841,7.0548841 0 0 0 4.293134,6.470725 16.856056,16.856056 0 0 1 -2.198477,4.541938 c -1.368726,1.970356 -2.799904,3.94051 -4.977496,3.94051 -2.177592,0 -2.737654,-1.265108 -5.247186,-1.265108 C 14.154147,30.693324 13.28303,32 11.291991,32 9.3009524,32 7.9115426,30.174831 6.3144945,27.934988 A 19.647728,19.647728 0 0 1 2.975413,17.336998 c 0,-6.221921 4.044329,-9.519435 8.026206,-9.519435 2.115541,0 3.878459,1.38941 5.205818,1.38941 1.265108,0 3.235463,-1.472545 5.641177,-1.472545 a 7.5462681,7.5462681 0 0 1 6.346423,3.173212 z M 20.708008,5.100594 a 7.1518757,7.1518757 0 0 0 1.700667,-4.458 A 3.0830478,3.0830478 0 0 0 22.346425,0 a 7.1661333,7.1661333 0 0 0 -4.708008,2.426597 6.9538763,6.9538763 0 0 0 -1.762918,4.334501 2.8495049,2.8495049 0 0 0 0.06225,0.580745 2.3896482,2.3896482 0 0 0 0.435559,0.04157 6.2120813,6.2120813 0 0 0 4.334701,-2.282817 z" id="path1" style="stroke-width:2.00811;fill:#000000" />
</svg>
