<?xml version="1.0" encoding="UTF-8"?><svg id="a" xmlns="http://www.w3.org/2000/svg" viewBox="0 0 144.96 80"><g id="b"><path d="m30.37,16.32c2.05-2.47,3.06-5.63,2.83-8.82-3.14.3-6.04,1.82-8.08,4.22-2.05,2.32-3.1,5.37-2.9,8.47,3.17.06,6.18-1.37,8.14-3.86m2.64,4.44c-4.51-.26-8.3,2.57-10.46,2.57s-5.44-2.43-8.98-2.37c-4.72.13-9.01,2.76-11.26,6.91-4.83,8.37-1.29,20.83,3.41,27.64,2.28,3.24,5.02,7.1,8.66,6.97,3.64-.13,4.76-2.25,8.91-2.25s5.37,2.25,8.98,2.17c3.6-.08,6.11-3.24,8.37-6.76,1.62-2.4,2.89-5.02,3.77-7.79-4.42-1.96-7.28-6.33-7.31-11.16.05-4.27,2.27-8.21,5.89-10.48-2.29-3.28-5.98-5.3-9.98-5.47m28.74-6.49v9.19h7.34v6.07h-7.34v21.74c0,3.24,1.45,4.9,4.67,4.9.88-.02,1.76-.08,2.64-.19v6.11c-1.44.23-2.89.34-4.34.32-7.59,0-10.52-2.95-10.52-10.35v-22.38h-5.76v-6.08h5.6v-9.31h7.72Zm32.99,47.8h-8.05l-13.52-38.48h8.01l9.49,30.92h.19l9.49-30.92h7.85l-13.48,38.48Zm35.33,0h-6.95v-15.77h-14.93v-6.94h14.9v-15.77h6.95v15.77h14.93v6.94h-14.9v15.77Z" style="stroke-width:0px;"/></g></svg>