<?xml version="1.0" encoding="UTF-8"?><svg id="a" xmlns="http://www.w3.org/2000/svg" viewBox="0 0 177.17 80"><defs><style>.c{fill-rule:evenodd;stroke-width:0px;}</style></defs><path id="b" class="c" d="m24.64,23.09c1.36-1.64,2.35-3.93,2.35-6.22,0-.31-.03-.62-.08-.88-2.23.08-4.92,1.5-6.53,3.39-1.27,1.44-2.43,3.7-2.43,6.02,0,.34.06.68.08.79.2.04.39.06.59.06,2.01,0,4.52-1.36,6.02-3.16Zm1.58,3.64c-3.36,0-6.1,2.03-7.83,2.03-1.86,0-4.32-1.92-7.23-1.92-5.54,0-11.16,4.58-11.16,13.22,0,5.37,2.09,11.05,4.66,14.72,2.2,3.11,4.13,5.65,6.89,5.65s3.96-1.84,7.37-1.84,4.24,1.78,7.29,1.78,5-2.77,6.89-5.48c2.12-3.11,2.99-6.16,3.05-6.3-.2-.06-5.93-2.4-5.93-8.99,0-5.71,4.52-8.28,4.78-8.48-3-4.29-7.54-4.41-8.79-4.41h0Zm59.38,33.4V19.37h-8.42l-12.49,31.11h-.23l-12.49-31.11h-8.45v40.77h6.58v-28.93h.2l11.78,28.93h4.97l11.78-28.93h.2v28.93h6.56Zm13.74.48c3.84,0,7.6-2.01,9.32-5.26h.14v4.78h6.78v-20.63c0-6.02-4.83-9.95-12.26-9.95s-12.4,4.01-12.72,9.61h6.53c.45-2.49,2.57-4.1,5.91-4.1s5.59,1.81,5.59,4.94v2.15l-7.91.45c-7.29.45-11.39,3.65-11.39,8.96s4.21,9.04,10,9.04h0Zm2.12-5.31c-3.05,0-5.09-1.55-5.09-4.01s1.95-3.9,5.34-4.13l6.92-.42v2.29c0,3.62-3.19,6.27-7.18,6.27Zm35.36-25.63c-4.35,0-7.74,2.2-9.44,5.68h-.14v-5.17h-6.87v39.81h7.04v-14.83h.14c1.64,3.36,5.03,5.45,9.38,5.45,7.52,0,12.32-5.91,12.32-15.46s-4.83-15.48-12.43-15.48Zm-2.15,25.18c-4.38,0-7.29-3.81-7.32-9.69.03-5.82,2.94-9.69,7.32-9.69s7.37,3.79,7.37,9.69-2.83,9.69-7.37,9.69Zm17.7-16.08c0,4.44,2.88,7.26,8.62,8.53l4.97,1.1c3.14.71,4.21,1.72,4.21,3.53,0,2.23-2.12,3.65-5.54,3.65s-5.57-1.47-6.1-4.38h-6.92c.57,5.79,5.2,9.52,13.03,9.52,7.35,0,12.55-3.81,12.55-9.47,0-4.35-2.4-6.75-8.62-8.14l-4.97-1.1c-3.14-.71-4.38-1.89-4.38-3.62,0-2.2,2.06-3.67,5.17-3.67s5.26,1.72,5.54,4.44h6.56c-.17-5.68-4.8-9.61-12.09-9.61-7.23,0-12.01,3.73-12.01,9.21h0Z"/></svg>