<svg id="primary_logo_-_single_color_-_white" data-name="primary logo - single color - white" xmlns="http://www.w3.org/2000/svg" viewBox="0 0 300 120"><path d="M161.32,51.17l24.36-29.89c1.49-2,2.2-3,1.49-4.72a5.13,5.13,0,0,0-4.48-3.16h0a4,4,0,0,0-3,1.1L153.55,42.76Z"/><path d="M194.62,107,162.26,68.73l-1,1-7.78-9.21-7.75-9.36-4.69,5.08a4.77,4.77,0,0,0,0,6.53l47.79,51.07a3.88,3.88,0,0,0,3.14,1.19,4.37,4.37,0,0,0,4-2.82C196.75,110.51,196,108.8,194.62,107Z"/><path d="M147.56,69.76l6.05,6.48-26.55,28.13a3,3,0,0,1-2.28,1.19,3.46,3.46,0,0,1-3.24-2.14c-.51-1.23.17-3.15,1.13-4.17l0,0,0,0,24.85-29.45m-.05-1.88L121.75,98.4c-1.28,1.37-2.08,3.77-1.36,5.5a4.69,4.69,0,0,0,4.4,2.91,4.18,4.18,0,0,0,3.16-1.56l27.38-29-7.81-8.37Z"/><path d="M95.92,36.82c1.86,0,3.1,1.24,4,3.46,1.06-2.22,2.57-3.46,4.7-3.46h14.87a4.07,4.07,0,0,1,4.08,4v7.86c0,2.65-1.33,4.07-4.08,4.07s-4.07-1.42-4.07-4.07V45H104.86a2.41,2.41,0,0,0-2.67,2.13,2.16,2.16,0,0,0,0,.62V74.9h10c2.66,0,4.08,1.33,4.08,4.08s-1.42,4.07-4.08,4.07H85.82c-2.66,0-4-1.33-4-4.07s1.32-4.08,4-4.08h8.24V45H86.79c-2.65,0-4-1.33-4-4.07s1.33-4.08,4-4.08Z"/><path d="M207.58,36.82c2.65,0,4.07,1.42,4.07,4.08v34h10.1c2.75,0,4.08,1.32,4.08,4.07s-1.33,4.07-4.08,4.07h-28.6c-2.66,0-4.08-1.32-4.08-4.07s1.42-4.07,4.08-4.07h10.36V45H195c-2.74,0-4.07-1.33-4.07-4.07s1.33-4.08,4.07-4.08Zm4.22-17.61a5.86,5.86,0,1,1-5.9-5.82H206a5.89,5.89,0,0,1,5.82,5.82Z"/><path d="M273.49,40.9a4.79,4.79,0,0,1-.27,1.59L258.35,80.57a3.74,3.74,0,0,1-3.73,2.48h-5.93a3.69,3.69,0,0,1-3.81-2.48l-15-38.08a3.25,3.25,0,0,1-.36-1.59,4.09,4.09,0,0,1,4.1-4.08h.07a3.8,3.8,0,0,1,3.72,2.66L251.7,75.61l13.9-36.13a3.8,3.8,0,0,1,3.72-2.66,4.09,4.09,0,0,1,4.17,4Z"/><path d="M59,36.82c5,0,8.2,3.32,8.2,8.4V83.06H31.65a4.81,4.81,0,0,1-5.13-4.47c0-.16,0-.31,0-.46v-13a8.27,8.27,0,0,1,7-8.15L59,53.38V45H30.65a4,4,0,0,1-4.14-3.89V40.9c0-2.87,2.14-4.07,4.36-4.07Zm0,38.09V61.61L34.66,65v9.9Z"/><path d="M116.88,6.19H117c1,0,2.24,1.25,2.59,1.67l0,0,0,0,46.66,50.44a3.17,3.17,0,0,1,0,4.33l-4.9,5.2-6.87-8.13L115,12.07c-1.51-2.17-1.62-2.84-1.19-3.86a3.36,3.36,0,0,1,3.07-2m0-1.25a4.61,4.61,0,0,0-4.23,2.79c-.7,1.69-.2,2.88,1.35,5.1l39.5,47.72,7.78,9.22,5.86-6.22a4.43,4.43,0,0,0,0-6L120.51,7.07S118.8,5,117,5Z"/></svg>