<svg viewBox="0 0 31.999999 32.000001" version="1.1" width="32" height="32" xmlns="http://www.w3.org/2000/svg" xmlns:svg="http://www.w3.org/2000/svg">
  <g transform="matrix(1.3183768,0,0,1.3183768,4.3246787,-0.00356853)">
    <path d="m 573.549,280.916 2.266,2.738 6.674,-7.84 c 0.353,-0.47 0.52,-0.717 0.353,-1.117 a 1.218,1.218 0 0 0 -1.061,-0.748 v 0 a 0.953,0.953 0 0 0 -0.712,0.262 z" transform="translate(-566.984,-271.548)" fill="#000" />
    <path d="m 579.525,282.225 -10.606,-10.174 a 1.413,1.413 0 0 0 -0.834,-0.5 1.09,1.09 0 0 0 -1.027,0.66 c -0.167,0.4 -0.047,0.681 0.319,1.206 l 8.44,10.242 v 0 l -6.282,7.716 a 1.336,1.336 0 0 0 -0.323,1.3 1.114,1.114 0 0 0 1.04,0.69 A 0.992,0.992 0 0 0 571,293 l 8.519,-7.92 a 1.924,1.924 0 0 0 0.006,-2.855 z" transform="translate(-566.984,-271.548)" fill="#000" />
    <path d="m 584.32,293.912 -8.525,-10.275 v 0 l -2.265,-2.737 -1.389,1.254 a 2.063,2.063 0 0 0 0,2.965 l 10.812,10.419 a 0.925,0.925 0 0 0 0.742,0.282 1.039,1.039 0 0 0 0.953,-0.667 1.261,1.261 0 0 0 -0.328,-1.241 z" transform="translate(-566.984,-271.548)" fill="#000" />
  </g>
</svg>
