<?xml version="1.0" encoding="UTF-8"?><svg id="a" xmlns="http://www.w3.org/2000/svg" viewBox="0 0 157.05 80"><defs><style>.b{stroke-width:0px;}</style></defs><path class="b" d="m101.21,15.38c.95-1.27,1.4-1.91.95-3-.48-1.16-1.59-1.95-2.85-2.01-.71-.04-1.4.21-1.91.7l-16.62,17.97,4.94,5.35,15.49-19.01Z"/><path class="b" d="m86.33,45.56l3.1-3.29c.99-1.08.99-2.74,0-3.82L59.77,6.34s-1.09-1.32-2.23-1.32l-.08-.03c-1.17,0-2.23.7-2.69,1.77-.45,1.07-.13,1.83.86,3.24l20.17,24.37-2.98,3.22c-1.1,1.17-1.1,2.99,0,4.15l3.6,3.85-15.87,18.81c-.81.87-1.32,2.4-.86,3.5.46,1.13,1.57,1.87,2.8,1.85.78-.02,1.52-.38,2.01-.99l16.88-17.87,21.84,23.34c.52.54,1.25.82,2,.76,1.13-.02,2.14-.73,2.54-1.79.5-1.08.02-2.17-.86-3.31l-20.57-24.33Zm-22.39,22.66c-.35.46-.88.73-1.45.76-.9.01-1.72-.53-2.06-1.36-.32-.78.11-2,.72-2.65l15.8-18.73.03-.03,3.85,4.12-16.88,17.89ZM55.51,7.07c.34-.77,1.11-1.27,1.95-1.27h0s.08-.01.08-.01c.64,0,1.42.79,1.65,1.06l29.67,32.07c.72.77.72,1.98,0,2.75l-3.12,3.31-4.37-5.17-25.1-30.29c-.96-1.38-1.03-1.81-.76-2.45Z"/><path class="b" d="m61.72,32.8v-5c-.02-1.41-1.18-2.55-2.59-2.54h-9.46c-1.35,0-2.31.79-2.99,2.2-.57-1.41-1.36-2.2-2.54-2.2l-5.81.02c-1.7,0-2.54.85-2.54,2.59s.86,2.59,2.54,2.59h4.62v19.01h-5.24c-1.7,0-2.54.85-2.54,2.59s.85,2.59,2.54,2.59h16.77c1.69,0,2.59-.84,2.59-2.59s-.9-2.59-2.59-2.59h-6.36v-17.26c-.02-.13-.02-.26,0-.39,0,0,0,0,0,0,.1-.84.86-1.44,1.7-1.35h6.71v2.34c0,1.69.84,2.59,2.59,2.59s2.59-.9,2.59-2.59Z"/><path class="b" d="m124.15,49.47h-6.42v-21.62c0-1.69-.9-2.59-2.59-2.59l-8,.02c-1.74,0-2.59.85-2.59,2.59s.85,2.59,2.59,2.59h5.41v19.01h-6.59c-1.69,0-2.59.84-2.59,2.59s.9,2.59,2.59,2.59h18.19c1.75,0,2.59-.84,2.59-2.59s-.85-2.59-2.59-2.59Z"/><path class="b" d="m114.12,17.81c2.06-.01,3.71-1.69,3.7-3.75h.01c-.02-2.03-1.67-3.68-3.7-3.7h-.06c-2.06.01-3.71,1.69-3.7,3.75.01,2.06,1.69,3.71,3.75,3.7Z"/><path class="b" d="m154.4,25.26c-1.08-.03-2.04.66-2.37,1.69l-8.84,22.97-9.09-22.97c-.32-1.03-1.29-1.72-2.37-1.69h-.04c-1.44,0-2.6,1.16-2.61,2.59-.01.35.07.7.23,1.01l9.54,24.21c.35,1.02,1.35,1.67,2.42,1.58h3.77c1.05.06,2.02-.58,2.37-1.58l9.46-24.21c.11-.32.17-.67.17-1.01v-.05c-.03-1.43-1.22-2.57-2.65-2.54Z"/><path class="b" d="m20.66,25.26H2.77c-1.41,0-2.77.77-2.77,2.59v.13s0,.01,0,.02c.05,1.4,1.23,2.5,2.63,2.45h18.03v5.33l-16.2,2.29C1.9,38.48.01,40.67,0,43.26v8.56s0,0,0,0c.12,1.69,1.58,2.96,3.26,2.84h22.61v-24.06c0-3.23-2.03-5.34-5.21-5.34Zm0,24.22H5.18v-6.3l15.48-2.16v8.46Z"/></svg>