<?xml version="1.0" encoding="UTF-8" standalone="no"?>
<!DOCTYPE svg PUBLIC "-//W3C//DTD SVG 1.1//EN" "http://www.w3.org/Graphics/SVG/1.1/DTD/svg11.dtd">
<!-- Created with Vectornator (http://vectornator.io/) -->
<svg height="100%" stroke-miterlimit="10" style="fill-rule:nonzero;clip-rule:evenodd;stroke-linecap:round;stroke-linejoin:round;" version="1.1" viewBox="0 0 200 80" width="100%" xml:space="preserve" xmlns="http://www.w3.org/2000/svg" xmlns:xlink="http://www.w3.org/1999/xlink">
<defs/>
<path d="M0 0L200 0L200 80L0 80L0 0Z" fill="#000000" fill-opacity="0" fill-rule="nonzero" opacity="1" stroke="none"/>
<g id="uD83DuDED1-Symbols">
<g opacity="1">
<path d="M183.863 46.4037L186.715 43.0388C188.537 44.4733 190.571 45.2298 192.711 45.2298C194.084 45.2298 194.823 44.7604 194.823 43.9778L194.823 43.9256C194.823 43.1692 194.216 42.7519 191.707 42.178C187.772 41.291 184.734 40.1956 184.734 36.4394L184.734 36.3873C184.734 32.9962 187.455 30.5444 191.892 30.5444C195.035 30.5444 197.491 31.379 199.498 32.9701L196.936 36.5436C195.246 35.37 193.397 34.7438 191.76 34.7438C190.518 34.7438 189.911 35.2657 189.911 35.9177L189.911 35.9697C189.911 36.8045 190.545 37.1697 193.107 37.7437C197.359 38.6565 200 40.0129 200 43.43L200 43.4821C200 47.2123 197.016 49.4294 192.526 49.4294C189.25 49.4294 186.134 48.4121 183.863 46.4037ZM158.568 41.1085L158.568 30.8572L163.771 30.8572L163.771 41.004C163.771 43.6386 165.118 44.8907 167.178 44.8907C169.238 44.8907 170.585 43.6908 170.585 41.1344L170.585 30.8572L175.788 30.8572L175.788 40.978C175.788 46.8732 172.381 49.4556 167.125 49.4556C161.869 49.4556 158.568 46.821 158.568 41.1085ZM143.62 49.1165L143.62 30.8573L148.77 30.8573L148.77 49.1165L143.62 49.1165ZM124.133 44.6299C127.197 44.6299 129.23 42.9605 129.23 40.0129L129.23 39.9607C129.23 37.0394 127.197 35.3439 124.133 35.3439L122.046 35.3439L122.046 44.6299L124.133 44.6299ZM116.923 30.8573L124.054 30.8573C130.657 30.8573 134.486 34.6134 134.486 39.8825L134.486 39.9347C134.486 45.2038 130.604 49.1164 123.948 49.1164L116.923 49.1164L116.923 30.8573ZM89.9298 41.1085L89.9298 30.8572L95.1328 30.8572L95.1328 41.004C95.1328 43.6386 96.4799 44.8907 98.5398 44.8907C100.6 44.8907 101.947 43.6908 101.947 41.1344L101.947 30.8572L107.15 30.8572L107.15 40.978C107.15 46.8732 103.743 49.4556 98.4869 49.4556C93.2313 49.4556 89.9298 46.821 89.9298 41.1085ZM74.6288 41.9172L72.5687 36.7263L70.4823 41.9172L74.6288 41.9172ZM70.139 30.7268L75.0778 30.7268L82.9483 49.1164L77.4548 49.1164L76.1079 45.8559L68.9769 45.8559L67.6564 49.1164L62.2685 49.1164L70.139 30.7268ZM51.6402 63.875C52.1925 64.8212 51.5006 66.0033 50.3945 66.0026L36.0147 65.9932L21.6633 65.9839L10.154 65.9763C9.04809 65.9755 8.35771 64.7928 8.91129 63.8472L14.4686 54.3552C14.7255 53.9163 15.2 53.6461 15.7133 53.6465L28.7733 53.6551C29.7523 53.6556 30.4063 52.7296 30.1604 51.8605C30.1286 51.7478 30.0823 51.6361 30.0189 51.5275L28.9121 49.6312L22.9253 39.3745C22.4077 38.4877 21.1611 38.4312 20.5508 39.2057C20.5099 39.2578 20.4718 39.3134 20.4369 39.3729L19.5546 40.88L13.7845 50.7355C13.5276 51.1743 13.053 51.4445 12.5398 51.4442L1.4379 51.4369C0.331887 51.4361-0.358494 50.2534 0.195082 49.3078L6.07143 39.2709L20.4535 14.706C21.0071 13.7605 22.3895 13.7614 22.9419 14.7076L30.5609 27.7611L37.291 39.2913L51.6402 63.875Z" fill="#000000" fill-rule="evenodd" opacity="1" stroke="none"/>
</g>
</g>
</svg>
