<?xml version="1.0" encoding="UTF-8" standalone="no"?>
<!-- Created with Vectornator (http://vectornator.io/) -->

<svg height="32" stroke-miterlimit="10" style="clip-rule:evenodd;fill-rule:nonzero;stroke-linecap:round;stroke-linejoin:round" version="1.1" viewBox="0 0 32 32" width="32" xml:space="preserve" id="svg2" sodipodi:docname="audius.svg" inkscape:version="1.4-beta2 (9aaf4f34, 2024-07-30)" xmlns:inkscape="http://www.inkscape.org/namespaces/inkscape" xmlns:sodipodi="http://sodipodi.sourceforge.net/DTD/sodipodi-0.dtd" xmlns="http://www.w3.org/2000/svg" xmlns:svg="http://www.w3.org/2000/svg"><sodipodi:namedview id="namedview2" pagecolor="#ffffff" bordercolor="#000000" borderopacity="0.25" inkscape:showpageshadow="2" inkscape:pageopacity="0.0" inkscape:pagecheckerboard="0" inkscape:deskcolor="#d1d1d1" inkscape:zoom="5.0654043" inkscape:cx="18.359837" inkscape:cy="46.294429" inkscape:window-width="1440" inkscape:window-height="790" inkscape:window-x="0" inkscape:window-y="0" inkscape:window-maximized="1" inkscape:current-layer="svg2" />
<defs id="defs1" />

<path style="clip-rule:evenodd;fill-rule:nonzero;stroke-width:0.615323;stroke-linecap:round;stroke-linejoin:round" d="M 31.827978,30.690838 C 32.167821,31.273057 31.742078,32.000431 31.06147,32 L 22.213245,31.9942 13.382495,31.9885 6.3005563,31.9838 C 5.6200642,31.983325 5.1952573,31.255582 5.535888,30.673732 l 3.4195419,-5.840648 c 0.1580765,-0.270065 0.4500474,-0.436325 0.7658928,-0.436079 l 8.0361213,0.0053 c 0.602401,3.08e-4 1.004822,-0.569481 0.853514,-1.104259 -0.01957,-0.06935 -0.04806,-0.138078 -0.08707,-0.204902 l -0.68104,-1.166838 -3.683817,-6.311185 c -0.318491,-0.545669 -1.085553,-0.580435 -1.461085,-0.103867 -0.02517,0.03206 -0.04861,0.06627 -0.07009,0.102882 l -0.5429,0.927354 -3.5504757,6.064318 c -0.1580696,0.269995 -0.450102,0.436255 -0.7658859,0.43607 l -6.83125691,-0.0045 C 0.25678201,23.036894 -0.16802545,22.309151 0.17260272,21.727302 L 3.7884562,15.551364 12.638077,0.43601081 c 0.340643,-0.581788 1.191266,-0.581235 1.531171,9.84e-4 l 4.688147,8.03212199 4.141187,7.0948002 z" id="path10" />
</svg>
