<?xml version="1.0" encoding="UTF-8" standalone="no"?>
<svg viewBox="0 0 32 32" version="1.1" id="svg30" width="32" height="32" xmlns="http://www.w3.org/2000/svg" xmlns:svg="http://www.w3.org/2000/svg">
  <defs id="defs30" />
  <path id="polygon1" style="fill-rule:evenodd;stroke:none;stroke-width:1.0177" d="M 7.9607375,0 V 2.9895025 H 2.4210155 V 10.92043 h -2.271943 v 2.717188 h 6.573328 v 2.025467 h 4.3530655 v 3.273744 h 1.703459 v 6.15591 h 3.486426 l -0.002,1.341698 h 0.314052 v 1.049506 H 14.325374 L 14.327355,32 h 4.559777 v -3.289644 h 1.484818 v -2.275919 h 0.934221 v -1.341698 h 2.576061 v -0.938195 h 2.794703 v -0.771228 -0.707622 h 1.071377 v -2.643642 h 0.787122 v -4.883781 h 1.771047 V 14.01528 h 1.047511 v -1.510653 h 0.496935 V 10.70377 9.6542644 H 31.499093 V 7.9965216 H 29.966574 V 6.7542085 H 27.521707 V 10.70377 h -0.006 V 5.9631034 H 25.41275 V 4.7426548 H 21.667929 19.393994 V 0.44325736 H 16.686751 V 2.9895025 h -3.46655 -1.50271 V 0 Z M 19.719974,2.9417977 v 1.55637 h 1.922116 v -1.55637 z" />
</svg>
