<?xml version="1.0" encoding="UTF-8" standalone="no"?>
<svg version="1.1" width="32" height="32" id="svg8" xmlns="http://www.w3.org/2000/svg" xmlns:svg="http://www.w3.org/2000/svg">
  <defs id="defs8" />
  <g id="g11" transform="translate(-170.45407,2.3408315)" style="fill:#000000">
    <path d="m 189.89555,2.1286544 c 1.92991,0 3.85983,0 5.84823,0 0,8.3455956 0,16.6911906 0,25.2896826 -1.92991,0 -3.85983,0 -5.84823,0 0,-0.62592 0,-1.251839 0,-1.896726 1.30399,0 2.60799,0 3.95151,0 0,-7.093756 0,-14.187512 0,-21.4962304 -1.304,0 -2.608,0 -3.95151,0 0,-0.6259197 0,-1.2518393 0,-1.8967262 z" fill="#000E73" id="path3" style="fill:#000000;stroke-width:0.158061" />
    <path d="m 170.4541,2.1286544 c 1.92992,0 3.85984,0 5.84824,0 0,0.6259196 0,1.2518393 0,1.8967262 -1.304,0 -2.608,0 -3.95151,0 0,7.0937564 0,14.1875124 0,21.4962304 1.304,0 2.608,0 3.95151,0 0,0.62592 0,1.251839 0,1.896726 -1.92992,0 -3.85984,0 -5.84824,0 0,-8.345595 0,-16.69119 0,-25.2896826 z" fill="#000E73" id="path4" style="fill:#000000;stroke-width:0.158061" />
    <path d="m 200.08242,-0.09962845 c 0.13397,5.0937e-4 0.26793,0.0010187 0.40596,0.0015435 0.13926,0.0013244 0.27852,0.0026488 0.42201,0.0040133 0.21164,0.0010697 0.21164,0.0010697 0.42756,0.002161 0.34814,0.0018617 0.69625,0.0044615 1.04438,0.0077178 0.0157,0.70584732 0.0271,1.41160135 0.0347,2.11757105 0.003,0.2399386 0.007,0.479865 0.013,0.7197619 0.008,0.3456978 0.0113,0.6912337 0.014,1.037002 0.003,0.2077612 0.007,0.4155224 0.01,0.6295794 -0.0836,0.6449378 -0.24855,0.8901405 -0.70402,1.3443248 -0.80861,0.5390748 -1.7458,0.4369535 -2.68702,0.316121 -0.71312,-0.3357216 -1.02896,-0.7664901 -1.33364,-1.4818173 -0.0293,-0.13692 -0.0587,-0.2738399 -0.0889,-0.4149089 0.62592,0 1.25184,0 1.89673,0 0.0522,0.1043199 0.10432,0.2086399 0.15806,0.316121 0.31296,0 0.62592,0 0.94836,0 0,-0.2086398 0,-0.4172797 0,-0.632242 -0.36512,-0.05216 -0.73024,-0.10432 -1.10642,-0.1580605 0,-0.4172798 0,-0.8345596 0,-1.2644842 0.36512,-0.1043199 0.73024,-0.2086399 1.10642,-0.316121 -0.0522,-0.2086399 -0.10432,-0.4172798 -0.15806,-0.6322421 -0.52014,0.059912 -0.52014,0.059912 -0.94836,0.316121 -0.29287,0.011422 -0.58615,0.013247 -0.87921,0.00988 -0.15995,-0.00143 -0.31989,-0.00285 -0.48468,-0.00432 -0.12368,-0.00183 -0.24736,-0.00367 -0.37478,-0.00556 0.0812,-0.5822145 0.1837,-0.89868255 0.61249,-1.30399921 0.0811,-0.079055 0.16218,-0.15810991 0.24573,-0.23956047 0.45173,-0.35509359 0.87454,-0.37230068 1.42563,-0.36860206 z" fill="#0B1979" id="path5" style="fill:#000000;stroke-width:0.158061" />
    <path id="path9" style="fill:#000000;stroke-width:0.158061" d="m 184.28687,6.939004 -0.60631,0.012348 c -0.39148,0.00166 -0.78287,0.00355 -1.17434,0.00587 l -1.48182,0.021919 -4.72206,0.049394 v 15.489926 l 5.10733,0.0099 c 0.7541,0.002 1.50814,0.0041 2.26224,0.0049 l 0.61063,6.18e-4 c 0.22163,7.91e-4 0.44335,0.0017 0.66497,0.0025 h 0.63193 c 0.55434,0.0011 0.94479,-6.32e-4 1.47102,-0.175965 1.40529,-0.731231 2.32121,-1.516245 2.88954,-3.024142 0.27362,-1.091497 0.31354,-2.356965 -0.25623,-3.351994 -0.16806,-0.273244 -0.33599,-0.546556 -0.50382,-0.81994 l -0.23277,-0.390829 -0.20683,-0.32847 c -0.14543,-0.301764 -0.14543,-0.301764 -0.002,-0.593344 0.34469,-0.571103 0.51581,-1.045678 0.5847,-1.713969 0.0263,-1.77105 -0.25235,-2.6208583 -1.38426,-3.969418 -1.13075,-0.9538053 -2.18605,-1.230007 -3.65206,-1.229291 z m -0.92367,2.8741083 c 1.22491,-0.00339 1.30521,0.073854 1.94859,0.6927497 0.39563,0.593448 0.38769,0.876834 0.31612,1.580605 -0.33366,0.631581 -0.59415,1.013289 -1.26448,1.264484 -0.46353,0.03589 -0.46353,0.03589 -0.99529,0.03087 l -0.57729,-0.0031 -0.60076,-0.008 -0.60816,-0.0043 c -0.49539,-0.0037 -0.99077,-0.0094 -1.48614,-0.01544 V 9.8736197 c 0.69162,-0.017077 1.38282,-0.029613 2.07455,-0.039515 l 0.59272,-0.016053 c 0.22668,-0.00244 0.42515,-0.00445 0.60014,-0.00494 z m 0.78783,6.3113077 c 0.0797,0.01083 0.15473,0.02375 0.22598,0.0389 0.0712,0.01514 0.13885,0.03257 0.20344,0.05217 0.0646,0.0196 0.12611,0.04125 0.18585,0.06545 0.0597,0.0242 0.11772,0.05101 0.17442,0.07996 0.0567,0.02894 0.11215,0.06001 0.16763,0.09385 0.0555,0.03383 0.11094,0.07042 0.16701,0.109283 0.11214,0.07773 0.22717,0.165534 0.35255,0.264258 0.0511,0.06733 0.0953,0.134843 0.13367,0.202516 0.0383,0.06767 0.0708,0.135614 0.0979,0.204059 0.0271,0.06844 0.049,0.137185 0.0664,0.206836 0.0174,0.06965 0.0301,0.140179 0.0392,0.211468 0.009,0.07129 0.0148,0.143354 0.0173,0.216715 0.002,0.07336 0.002,0.147951 -9.2e-4,0.223817 -0.006,0.151733 -0.0201,0.308901 -0.0374,0.473255 -0.0432,0.06949 -0.0859,0.135246 -0.12873,0.197576 -0.0428,0.06233 -0.0857,0.12112 -0.12935,0.176892 -0.0436,0.05577 -0.0879,0.108546 -0.13367,0.158368 -0.0458,0.04982 -0.0928,0.09691 -0.14201,0.14139 -0.0492,0.04448 -0.1007,0.08621 -0.15467,0.125956 -0.054,0.03974 -0.11039,0.07737 -0.1704,0.112988 -0.06,0.03562 -0.12342,0.06947 -0.19079,0.101566 -0.0674,0.0321 -0.13884,0.0625 -0.21486,0.09169 -0.24628,0.01794 -0.36953,0.02701 -0.50259,0.03087 -0.13305,0.0039 -0.27591,0.0025 -0.56185,0 l -0.62051,-0.0031 c -0.21548,-0.0026 -0.43096,-0.0053 -0.64644,-0.008 -0.21795,-0.0016 -0.4359,-0.0031 -0.65386,-0.0043 -0.53285,-0.0037 -1.06568,-0.0094 -1.59851,-0.01544 V 16.19604 c 0.63555,-0.01457 1.27067,-0.02698 1.9063,-0.03458 0.21586,-0.0032 0.43155,-0.0075 0.64737,-0.01297 0.31148,-0.0077 0.62322,-0.01109 0.93478,-0.0142 z" />
    <path d="m 200.80172,-0.08419286 c 0.5216,0 1.0432,0 1.58061,0 0,0.41727977 0,0.83455953 0,1.26448416 -0.0744,-0.064793 -0.14874,-0.1295849 -0.22536,-0.19634082 -0.0984,-0.0851674 -0.19683,-0.1703349 -0.29822,-0.25808319 -0.0972,-0.0843525 -0.19438,-0.1687049 -0.29451,-0.25561349 -0.30967,-0.26425461 -0.30967,-0.26425461 -0.76252,-0.55444666 z" fill="#F4F5F9" id="path8" style="fill:#000000;stroke-width:0.158061" />
  </g>
</svg>
