<svg width="32" height="32" xmlns="http://www.w3.org/2000/svg">
  <g style="fill:#000">
    <path d="M189.896 2.129h5.848v25.29h-5.848v-1.897h3.951V4.025h-3.951V2.13zM170.454 2.129h5.848v1.896h-3.951v21.497h3.951v1.896h-5.848V2.128zM200.082-.1a8424161.912 8424161.912 0 0 0 .828.006l.428.002 1.044.008c.016.706.027 1.411.035 2.117.003.24.007.48.013.72.008.346.011.691.014 1.037l.01.63c-.084.645-.249.89-.704 1.344-.809.54-1.746.437-2.687.316-.713-.336-1.029-.766-1.334-1.482l-.089-.415h1.897l.158.317h.949v-.633l-1.107-.158V2.445l1.107-.316-.158-.633c-.52.06-.52.06-.949.317-.293.011-.586.013-.879.01l-.485-.005-.374-.005c.08-.583.183-.9.612-1.304l.246-.24c.451-.355.874-.372 1.425-.369z" style="fill:#000;stroke-width:.158061" transform="translate(-170.454 2.34)"/>
    <path style="fill:#000;stroke-width:.158061" d="m184.287 6.939-.606.012-1.175.006-1.482.022-4.722.05v15.49l5.108.01 2.262.004h.61l.666.003h.631c.555.001.945 0 1.471-.176 1.406-.73 2.322-1.516 2.89-3.024.274-1.091.314-2.357-.256-3.352l-.504-.82-.233-.39-.207-.329c-.145-.302-.145-.302-.002-.593.345-.571.516-1.046.585-1.714.026-1.771-.252-2.621-1.384-3.97-1.131-.953-2.186-1.23-3.652-1.229zm-.924 2.874c1.225-.003 1.305.074 1.949.693.395.593.387.877.316 1.58-.334.632-.594 1.014-1.265 1.265-.463.036-.463.036-.995.03l-.577-.002-.6-.008-.61-.005c-.494-.003-.99-.009-1.485-.015V9.874c.691-.017 1.383-.03 2.074-.04l.593-.016.6-.005zm.788 6.311a3.079 3.079 0 0 1 .43.091 2.175 2.175 0 0 1 .527.24c.056.034.111.07.167.109.113.078.228.166.353.264a1.816 1.816 0 0 1 .231.407 1.64 1.64 0 0 1 .106.418 2.372 2.372 0 0 1 .016.44c-.006.152-.02.31-.037.474a5.15 5.15 0 0 1-.258.374 2.606 2.606 0 0 1-.276.3 1.986 1.986 0 0 1-.325.24 2.37 2.37 0 0 1-.405.192c-.247.018-.37.027-.503.031s-.276.003-.562 0l-.62-.003-.647-.008-.654-.004c-.533-.004-1.065-.01-1.598-.016v-3.477c.635-.015 1.27-.027 1.906-.035.216-.003.432-.007.647-.013.312-.007.624-.01.935-.014zM200.802-.084h1.58V1.18l-.225-.196-.298-.258-.295-.256c-.31-.264-.31-.264-.762-.554z" transform="translate(-170.454 2.34)"/>
  </g>
</svg>