<?xml version="1.0" encoding="UTF-8"?><svg id="a" xmlns="http://www.w3.org/2000/svg" viewBox="0 0 200 80"><defs><style>.b{stroke-width:0px;}</style></defs><path class="b" d="m120.15,44.98c-2.59-2.08-5.05-4.3-7.38-6.67-2.05-2.05-3.91-4.28-5.57-6.67-1.02-1.59-2.36-2.95-3.93-4-1.3-.87-2.8-1.39-4.36-1.51-2.11-.15-4.22.39-6,1.54-1.61.99-2.94,2.37-3.89,4-.71,1.19-1.54,2.3-2.46,3.33-2.11,2.32-4.43,4.45-6.91,6.37-1.55,1.17-2.95,2.53-4.17,4.05-2.28,2.82-3.04,6.57-2.05,10.05.43,1.79,1.25,3.46,2.41,4.89,1.53,1.89,3.78,3.07,6.21,3.24,1.72.12,3.44.12,5.16,0,1.88-.11,3.76-.35,5.61-.73,1.53-.36,3.09-.57,4.67-.61.97,0,1.95,0,2.91.08,1.47.1,2.92.36,4.33.79,2.4.74,4.9,1.13,7.41,1.16,1.68.04,3.35-.22,4.95-.75,2.24-.69,4.08-2.28,5.09-4.39.53-1.1.92-2.26,1.17-3.46.5-2.11.4-4.31-.29-6.37-.53-1.69-1.54-3.2-2.9-4.35h-.01Zm-23.93,13.47h-8.81c-.48-.03-.96-.13-1.41-.31-1.59-.49-2.99-1.46-4-2.78-.65-.9-1.07-1.93-1.25-3.03-.25-1.3-.25-2.63,0-3.93.19-.86.54-1.67,1.03-2.39,1.1-1.8,2.89-3.07,4.95-3.53.3-.07.6-.1.91-.11h4.49v-5.94l4.09.08v21.93h0Zm6.83,0c-.18,0-.36-.03-.53-.07-1.25-.3-2.38-1-3.19-2-.55-.67-.85-1.51-.85-2.37v-11.1l4.25-.08v10.04c-.03.58.3,1.13.82,1.38.31.19.66.29,1.03.3h4.08v-11.58h4.5v15.49h-10.11Z"/><path class="b" d="m25.13,46.43l-.39-.21v-.05l.1-.07c1.55-.89,2.69-2.35,3.19-4.07.46-1.4.63-2.88.49-4.35-.07-.97-.3-1.92-.67-2.82-.76-1.72-2.1-3.12-3.79-3.94-2.12-1.06-4.46-1.6-6.83-1.56H0v33.65h20.17c1.63-.05,3.23-.39,4.73-1.01,2.12-.86,3.75-2.62,4.43-4.8.57-1.79.63-3.7.15-5.51-.61-2.31-2.2-4.23-4.35-5.26Zm-17.8-10.54h11.08c.6,0,1.19.11,1.74.35.41.17.78.44,1.06.79.27.32.44.71.49,1.13.09.61.09,1.22,0,1.83-.1.79-.51,1.51-1.13,2-.71.59-1.61.91-2.53.91H7.33v-7h0Zm14.89,17.49c-.1,1.63-1.29,2.98-2.89,3.29-.26.07-.53.1-.79.11H7.33v-7.23h.29c3.64,0,7.27-.07,10.91,0,1.47,0,2.82.84,3.47,2.17.24.52.32,1.1.22,1.67h0Z"/><path class="b" d="m130.89,30.53v4.89h13.77l-1.33,2.95h-11.69v24.44h28.09c1.24.02,2.28-.93,2.39-2.16.05-.36.07-.72.06-1.08v-21.23h-11.76l1.03-3.01h11.53c.08-1.62.07-3.24-.04-4.86-.95-.09-31.71-.05-32.05.05h0Zm25.89,26.77c0,.38-.18.74-.49.96-.11.08-.24.13-.38.15-.1,0-.2,0-.29,0h-18.15l-.02-5.69h19.33v4.58Zm-.11-14.64c.07.34.09,4.87,0,5.33l-19.16-.07c-.11-1.75-.13-3.51-.05-5.27.29-.05,18.61-.09,19.21,0h0Z"/><path class="b" d="m50.83,39.18c-.93-.44-1.94-.69-2.97-.73h-14.73v5.08h12.67c.17-.02.33-.02.5,0,.85.21,1.64.63,2.3,1.21.48.41.75,1.02.73,1.66v1.29c-.04.1-.04.21-.04.35h-11.43c-.32,0-.64.04-.95.11-2.17.56-3.98,2.07-4.9,4.12-.33.58-.56,1.22-.67,1.88-.07.77-.1,1.54-.09,2.31,0,1.02.27,2.02.81,2.89.79,1.23,1.93,2.21,3.27,2.8.87.39,1.82.59,2.78.59h17.93v-17.07c0-.29-.05-.58-.14-.85-.72-2.56-2.6-4.65-5.07-5.63h0Zm-1.55,18.77h-9.13c-.31,0-.61-.07-.87-.23-.7-.35-1.23-.99-1.44-1.75-.16-.55-.07-1.15.25-1.63.38-.62.93-1.12,1.58-1.43.16-.08.34-.12.51-.13h9.09c.09,1.72.09,3.45,0,5.17h0Z"/><path class="b" d="m199.62,30.56h-12.51v-2.41c-1.98-.09-3.96-.07-5.93.05v2.27h-14.4v32.25h5.16v-28.11h27.68c.09-1.35.09-2.7,0-4.05h0Z"/><path class="b" d="m192.67,58.68c-.83-.18-1.63-.49-2.38-.9-.09-.05-.17-.12-.29-.2l.43-.25c2.91-1.68,5.82-3.35,8.74-5.01.22-.09.35-.32.33-.55v-2.57h-26.04v3.71l8.09,4.67c-.23.17-.46.33-.71.46-.77.32-1.55.67-2.33.99-.23.08-.48.12-.73.12h-5.03v3.59l.57-.04h6.04c.58,0,1.16-.08,1.71-.27,1.64-.56,3.24-1.23,4.79-2l.42-.19c.41.27.78.55,1.17.77,1.12.62,2.32,1.07,3.57,1.33.16.03.33.05.49.05h8v-3.59h-5.89c-.32,0-.64-.04-.95-.11h0Zm-6.77-3.53c-.13.08-.29.08-.42,0-1.3-.76-2.59-1.51-3.92-2.26v-.07l8.59.04c-.07.06-.14.11-.21.16,0,0-4.04,2.13-4.04,2.13Z"/><path class="b" d="m122.61,19.89c-1.47-.46-3.03-.5-4.52-.11-1.38.35-2.58,1.23-3.33,2.44-.45.7-.78,1.47-.99,2.28-.4,1.58-.59,3.2-.55,4.83,0,.18,0,.36.03.54,0,1.29.16,2.58.48,3.83.48,1.93,1.94,3.47,3.84,4.05,1.65.53,3.4.63,5.11.31,2.03-.33,3.72-1.72,4.45-3.64.36-.85.6-1.75.72-2.67.15-1.25.2-2.52.16-3.78,0-1.57-.39-3.12-1.15-4.49-.87-1.72-2.4-3.01-4.24-3.59h0Z"/><path class="b" d="m80.33,32.94c1.48-.92,2.56-2.36,3.01-4.05.47-1.6.66-3.26.58-4.92-.02-.67-.09-1.34-.21-2-.58-2.79-2.38-5.17-4.91-6.49-1.06-.57-2.28-.77-3.47-.59-1.5.23-2.84,1.04-3.74,2.26-.83,1.08-1.44,2.31-1.81,3.63-.63,1.79-.86,3.69-.67,5.58.23,1.81.92,3.54,2,5.01.74,1.05,1.78,1.86,2.99,2.31,2.08.72,4.38.45,6.23-.74Z"/><path class="b" d="m196.29,37.27v-1.83h-5.07v1.73c-.56.12-10.13.09-10.46,0v-1.69h-4.81v1.81h-3.23l.07,3.65h3.17v6.85h17.39c.32,0,.64-.02.95-.09,1.18-.36,1.98-1.44,2-2.67v-4.11h3.7v-3.65h-3.71,0Zm-5.06,5.88c-.03.6-.52,1.08-1.12,1.11h-9.37v-3.39h10.45c.02.11.03.21.04.32v1.95h0Z"/><path class="b" d="m101.8,14.7c.15.68.34,1.35.58,2,1.24,2.94,4.45,4.51,7.53,3.69,1.59-.43,2.99-1.37,4-2.67,1.27-1.56,2.16-3.38,2.62-5.33.29-1.1.34-2.26.13-3.38-.37-1.85-1.24-3.56-2.53-4.93-.86-1.01-1.97-1.77-3.22-2.23-.86-.33-1.81-.33-2.67,0-.5.2-.98.45-1.43.75-.94.62-1.77,1.4-2.45,2.3-1.63,2.07-2.77,4.32-2.77,7.03.03.63.05,1.25.09,1.9.01.29.05.58.11.87h0Z"/><path class="b" d="m87.83,18.82c1.74,1.31,4.11,1.4,5.93.21,1.14-.75,2.06-1.78,2.67-3,.94-1.72,1.44-3.65,1.47-5.61.08-2.02-.29-4.04-1.1-5.89-.55-1.28-1.39-2.41-2.47-3.29-1.88-1.6-4.63-1.65-6.58-.13-1.17.87-2.07,2.04-2.63,3.38-1.56,3.45-1.56,7.41,0,10.87.57,1.38,1.51,2.58,2.71,3.47h0Z"/><path class="b" d="m59.47,38.45v24.18h6.95c.08-.71.05-23.88-.03-24.18h-6.92Z"/><path class="b" d="m66.43,29.6c-.52-.08-6.66-.06-6.97.02v6.09h6.97s0-6.11,0-6.11Z"/><path class="b" d="m88.52,45.94c-.25,0-.5.05-.73.14-1.29.47-2.26,1.55-2.59,2.89-.39,1.2-.31,2.51.21,3.65.57,1.39,1.95,2.28,3.45,2.24h3.13c.12-.44.11-8.6,0-8.92h-3.48.01Z"/></svg>