<svg width="32" height="32" viewBox="0 0 1.28 1.28" xmlns="http://www.w3.org/2000/svg">
  <path d="M.433.914a.086.086 0 0 0-.056.05.116.116 0 0 0-.005.068.077.077 0 0 0 .066.06h.074V.915zm.291-.06v.206c.006.022.033.026.033.026h.086V.855h.09v.308H.724c-.08-.02-.084-.078-.084-.078v-.23zM.513.725l.082.001v.437H.414A.16.16 0 0 1 .3 1.087.203.203 0 0 1 .285.96V.96a.16.16 0 0 1 .13-.117h.097zM.633.52a.219.219 0 0 0-.178.103.833.833 0 0 1-.165.179L.29.804c-.013.017-.193.113-.153.29.01.093.085.166.179.172a.769.769 0 0 0 .228-.018l-.005.001a.458.458 0 0 1 .226.008L.76 1.256s.28.093.356-.086a.223.223 0 0 0-.043-.272 1.431 1.431 0 0 1-.25-.253L.82.64a.223.223 0 0 0-.187-.12zm.44-.132c-.123 0-.14.113-.14.193 0 .076.007.182.16.179.153-.003.136-.173.136-.213a.161.161 0 0 0-.156-.16zM.19.295H.183C.07.306.053.469.053.469.038.544.09.704.23.675.37.645.35.478.346.442A.177.177 0 0 0 .192.295ZM.863.032C.793.03.712.138.704.209c-.01.094.013.186.116.2.103.013.17-.097.183-.18V.21A.187.187 0 0 0 .879.034H.877A.062.062 0 0 0 .863.031zM.488 0c-.077 0-.14.088-.14.198 0 .11.063.198.14.198.077 0 .14-.089.14-.198C.628.088.565 0 .488 0Z"/>
</svg>