<?xml version="1.0" encoding="UTF-8" standalone="no"?>
<!-- Uploaded to: SVG Repo, www.svgrepo.com, Generator: SVG Repo Mixer Tools -->

<svg fill="#000000" width="32" height="32" viewBox="0 0 1.28 1.28" version="1.1" id="svg1" sodipodi:docname="baidu-svgrepo-com.svg" inkscape:version="1.4-beta2 (9aaf4f34, 2024-07-30)" xmlns:inkscape="http://www.inkscape.org/namespaces/inkscape" xmlns:sodipodi="http://sodipodi.sourceforge.net/DTD/sodipodi-0.dtd" xmlns="http://www.w3.org/2000/svg" xmlns:svg="http://www.w3.org/2000/svg" xmlns:rdf="http://www.w3.org/1999/02/22-rdf-syntax-ns#" xmlns:cc="http://creativecommons.org/ns#" xmlns:dc="http://purl.org/dc/elements/1.1/">
  <defs id="defs1" />
  <sodipodi:namedview id="namedview1" pagecolor="#ffffff" bordercolor="#000000" borderopacity="0.25" inkscape:showpageshadow="2" inkscape:pageopacity="0.0" inkscape:pagecheckerboard="0" inkscape:deskcolor="#d1d1d1" inkscape:zoom="0.0325" inkscape:cx="400" inkscape:cy="384.61538" inkscape:window-width="1440" inkscape:window-height="790" inkscape:window-x="0" inkscape:window-y="0" inkscape:window-maximized="1" inkscape:current-layer="svg1" />
  <title id="title1">baidu</title>
  <g id="g1" transform="matrix(0.04268057,0,0,0.04268057,-0.04288974,-0.04285123)">
    <path d="m 11.156,22.427 c -0.597,0.171 -1.071,0.596 -1.307,1.147 l -0.005,0.013 c -0.119,0.297 -0.187,0.641 -0.187,1.001 0,0.207 0.023,0.409 0.066,0.603 L 9.72,25.173 c 0.161,0.759 0.782,1.335 1.551,1.429 l 0.009,0.001 h 1.712 v -4.174 z m 6.821,-1.433 v 4.85 c 0.12,0.516 0.765,0.61 0.765,0.61 h 2.017 v -5.427 h 2.111 v 7.225 h -4.892 c -1.896,-0.487 -1.987,-1.831 -1.987,-1.831 v -5.395 z m -4.954,-2.987 1.927,0.03 V 28.28 H 10.699 C 9.555,28.097 8.599,27.416 8.047,26.471 L 8.037,26.453 C 7.767,25.869 7.61,25.185 7.61,24.465 c 0,-0.333 0.034,-0.658 0.098,-0.971 l -0.005,0.031 c 0.385,-1.436 1.57,-2.517 3.037,-2.742 l 0.021,-0.003 h 2.262 z m 2.792,-4.799 c -1.754,0.075 -3.271,1.02 -4.14,2.411 l -0.013,0.022 c -1.108,1.613 -2.393,2.997 -3.852,4.174 l -0.037,0.029 c -0.312,0.386 -4.511,2.644 -3.579,6.773 0.228,2.191 1.996,3.903 4.192,4.044 l 0.013,10e-4 c 0.376,0.027 0.815,0.043 1.257,0.043 1.401,0 2.766,-0.157 4.078,-0.454 l -0.123,0.023 c 0.688,-0.153 1.478,-0.24 2.289,-0.24 1.04,0 2.046,0.144 3,0.412 l -0.078,-0.019 c 0,0 6.539,2.184 8.329,-2.019 0.415,-0.734 0.659,-1.612 0.659,-2.546 0,-1.514 -0.641,-2.878 -1.666,-3.835 l -0.003,-0.003 c -2.234,-1.761 -4.18,-3.732 -5.86,-5.917 l -0.058,-0.078 c -0.852,-1.624 -2.492,-2.733 -4.397,-2.82 h -0.011 z m 10.327,-3.096 c -2.884,0 -3.27,2.648 -3.27,4.519 0,1.787 0.151,4.28 3.734,4.201 3.583,-0.079 3.19,-4.046 3.19,-4.984 -0.021,-2.026 -1.635,-3.669 -3.648,-3.736 z M 5.481,7.921 Q 5.383,7.923 5.286,7.931 C 2.639,8.168 2.252,11.98 2.252,11.98 1.893,13.742 3.109,17.51 6.372,16.809 9.642,16.108 9.199,12.21 9.1,11.358 8.787,9.539 7.325,8.139 5.501,7.923 Z M 21.222,1.747 c -1.648,-0.018 -3.539,2.493 -3.723,4.165 -0.234,2.181 0.312,4.357 2.723,4.667 2.416,0.312 3.968,-2.257 4.276,-4.204 0.014,-0.133 0.023,-0.287 0.023,-0.444 0,-1.916 -1.23,-3.544 -2.943,-4.138 L 21.547,1.784 C 21.449,1.761 21.337,1.747 21.221,1.747 v 0 z M 12.444,1.004 c -1.804,0 -3.267,2.072 -3.267,4.632 0,2.563 1.463,4.636 3.268,4.636 1.807,0 3.267,-2.073 3.267,-4.636 C 15.711,3.075 14.251,1.004 12.444,1.004 Z" id="path1" />
  </g>
  <metadata id="metadata1">
    <rdf:RDF>
      <cc:Work rdf:about="">
        <dc:title>baidu</dc:title>
      </cc:Work>
    </rdf:RDF>
  </metadata>
</svg>
