<?xml version="1.0" encoding="UTF-8" standalone="no"?>
<svg id="a" viewBox="0 0 31.999999 32" version="1.1" sodipodi:docname="banco-central.svg" width="32" height="32" inkscape:version="1.4-beta2 (9aaf4f34, 2024-07-30)" xmlns:inkscape="http://www.inkscape.org/namespaces/inkscape" xmlns:sodipodi="http://sodipodi.sourceforge.net/DTD/sodipodi-0.dtd" xmlns="http://www.w3.org/2000/svg" xmlns:svg="http://www.w3.org/2000/svg">
  <sodipodi:namedview id="namedview1" pagecolor="#ffffff" bordercolor="#000000" borderopacity="0.25" inkscape:showpageshadow="2" inkscape:pageopacity="0.0" inkscape:pagecheckerboard="0" inkscape:deskcolor="#d1d1d1" inkscape:zoom="0.77973941" inkscape:cx="128.24797" inkscape:cy="92.979781" inkscape:window-width="1440" inkscape:window-height="790" inkscape:window-x="0" inkscape:window-y="0" inkscape:window-maximized="1" inkscape:current-layer="a" />
  <defs id="defs1">
    <style id="style1">.b{fill-rule:evenodd;stroke-width:0px;}</style>
  </defs>
  <g id="g4" transform="matrix(0.39950255,0,0,0.39950255,1.7624342e-7,0.019898)">
    <path id="path1" class="b" d="M 32.339844,0 12.599609,19.650391 v 5.638671 h 7.050782 v 4.230469 h 16.830078 l 7.048828,-7.048828 H 26.699219 V 5.640625 h 5.640625 z m 25.291015,5.6503906 -7.050781,7.0488284 v 16.820312 0.0098 l 16.830078,0.101562 7.050782,-7.050781 H 57.630859 Z M 7.0507812,25.289062 0,32.339844 v 22.470703 h 12.699219 v 12.589844 h 12.701172 v 12.589843 h -0.09961 L 25.289062,80 h 22.470704 l 7.050781,-7.050781 H 32.339844 V 60.359375 h 4.230468 l 7.048829,-7.048828 H 26.689453 V 36.480469 l -7.048828,7.048828 v 4.230469 H 7.0507812 Z m 50.4785158,11.191407 -7.048828,7.048828 v 16.830078 h 4.230469 v 7.050781 h 5.638671 l 14.070313,-14 H 57.529297 Z m 16.890625,16.929687 h 0.04102 v -0.0098 -0.03125 z m 0.04102,-0.04102 5.638671,-5.609375 h -5.638671 z" />
  </g>
</svg>
