<?xml version="1.0" encoding="UTF-8"?><svg id="a" xmlns="http://www.w3.org/2000/svg" viewBox="0 0 371.29 80"><defs><style>.b{fill-rule:evenodd;stroke-width:0px;}</style></defs><path class="b" d="m267.41,37.48h5.54l-.2-15.31h.1l7.86,15.31h7.36V15.01h-5.44l.1,15.21h-.1l-7.56-15.21h-7.66v22.47h0Zm28.92,0h5.94v-18.04h5.54v-4.43h-17.03v4.43h5.54v18.04Zm14.21,0h5.94v-8.87h1.21c2.22,0,3.02,1.01,4.23,4.84l1.31,4.03h6.25l-2.22-6.15c-1.11-2.72-1.21-4.43-3.22-4.94v-.1c2.92-.71,4.33-2.72,4.33-5.64,0-3.83-3.22-5.64-7.25-5.64h-10.68l.1,22.47h0Zm5.94-18.24h1.61c2.32,0,4.33.4,4.33,2.52,0,2.52-2.42,2.62-4.33,2.62h-1.61v-5.14h0Zm-191.94,18.24h6.05l1.81-4.84h8.46l1.71,4.84h6.45l-8.66-22.47h-7.36c.1,0-8.46,22.47-8.46,22.47Zm14.91-9.07h-5.64l2.92-8.77h.1l2.62,8.77h0Zm-33.75,9.07h9.47c4.03,0,8.77-1.11,8.77-6.45,0-2.72-1.51-4.33-4.53-4.94v-.1c2.52-.81,3.93-2.42,3.93-5.24,0-3.83-3.12-5.74-7.25-5.74h-10.38v22.47h0Zm5.94-9.57h1.81c2.02,0,4.43.2,4.43,2.72,0,2.32-2.32,2.62-4.43,2.62h-1.81v-5.34Zm0-8.66h1.71c2.02,0,3.93.2,3.93,2.22s-2.02,2.42-4.03,2.42h-1.61v-4.63Zm38.79,18.24h5.54l-.2-15.31h.1l7.86,15.31h7.46V15.01h-5.44l.1,15.21h-.1l-7.66-15.21h-7.66v22.47h0Zm42.62-5.24c-1.81.71-3.73,1.11-5.64,1.21-4.33,0-7.46-2.72-7.46-7.05s2.82-7.25,7.05-7.25c2.02,0,4.03.5,5.84,1.61l.5-4.84c-2.12-.71-4.43-1.11-6.65-1.21-7.36,0-12.9,3.93-12.9,11.69,0,8.46,6.95,11.49,12.9,11.49,2.22,0,4.53-.3,6.65-.91l-.3-4.74h0Zm.91-6.05c0,7.15,3.93,11.59,11.28,11.59s11.28-4.43,11.28-11.59-3.83-11.59-11.28-11.59-11.28,4.43-11.28,11.59h0Zm6.15,0c0-3.93,1.41-7.15,5.04-7.15s5.04,3.32,5.04,7.15-1.41,7.15-5.04,7.15-5.04-3.43-5.04-7.15Zm45.04,6.05c-1.81.71-3.73,1.11-5.64,1.21-4.33,0-7.46-2.72-7.46-7.05s2.82-7.25,7.05-7.25c2.02,0,4.03.5,5.84,1.61l.5-4.84c-2.22-.71-4.43-1.11-6.75-1.21-7.36,0-12.9,3.93-12.9,11.69,0,8.46,6.95,11.49,12.9,11.49,2.22,0,4.53-.3,6.65-.91l-.2-4.74h0Zm3.02,5.24h16.22v-4.23h-10.18v-5.04h9.27v-4.23h-9.27v-4.63h9.87v-4.23h-15.82l-.1,22.37h0Zm82.02,0h6.05l1.81-4.84h8.46l1.71,4.84h6.55l-8.66-22.47h-7.36l-8.56,22.47h0Zm14.81-9.07h-5.64l2.92-8.77h.1l2.62,8.77Zm11.08,9.07h15.21v-4.43h-9.27V15.01h-5.94v22.47h0ZM25.29,80h22.47l7.05-7.05h-22.47v-12.59h4.23l7.05-7.05h-16.93v-16.83l-7.05,7.05v4.23H7.05v-22.47l-7.05,7.05v22.47h12.7v12.59h12.7v12.59h-.1Zm25.29-50.48V12.7l7.05-7.05v16.93h16.83l-7.05,7.05-16.83-.1ZM32.34,5.64h-5.64v16.83h16.83l-7.05,7.05h-16.83v-4.23h-7.05v-5.64L32.34,0v5.64Zm42.12,47.76v-5.64h5.64l-19.75,19.65h-5.64v-7.05h-4.23v-16.83l7.05-7.05v16.93h16.93Zm81.01,17.73h8.16c7.66,0,13.3-2.92,13.3-11.28s-5.44-11.18-13.3-11.18h-8.16v22.47h0Zm5.94-18.04h2.32c4.33,0,6.95,2.32,6.95,6.75s-2.52,6.75-6.95,6.75h-2.32c0,.1,0-13.5,0-13.5Zm16.83,6.85c0,7.15,3.93,11.59,11.28,11.59s11.28-4.43,11.28-11.59-3.83-11.59-11.28-11.59-11.28,4.33-11.28,11.59Zm6.15,0c0-3.93,1.41-7.15,5.04-7.15s5.04,3.32,5.04,7.15-1.41,7.15-5.04,7.15-5.04-3.53-5.04-7.15Zm26.7,11.18h9.47c4.03,0,8.77-1.11,8.77-6.45,0-2.72-1.51-4.33-4.53-4.94v-.1c2.52-.81,3.93-2.42,3.93-5.24,0-3.83-3.12-5.74-7.25-5.74h-10.38v22.47h0Zm6.05-9.57h1.81c2.02,0,4.43.2,4.43,2.62s-2.32,2.62-4.43,2.62h-1.81v-5.24h0Zm0-8.66h1.71c2.02,0,3.93.2,3.93,2.22s-2.02,2.42-4.03,2.42h-1.71l.1-4.63h0Zm14.91,18.24h5.94v-8.87h1.21c2.22,0,3.02,1.01,4.23,4.84l1.31,4.03h6.25l-2.22-6.15c-1.11-2.72-1.21-4.43-3.22-4.94v-.1c2.92-.71,4.33-2.62,4.33-5.64,0-3.83-3.22-5.64-7.25-5.64h-10.68l.1,22.47h0Zm6.05-18.24h1.61c2.32,0,4.33.4,4.33,2.52,0,2.52-2.42,2.62-4.33,2.62h-1.61v-5.14h0Zm13.6,18.24h6.05l1.81-4.84h8.36l1.71,4.84h6.55l-8.66-22.47h-7.36l-8.46,22.47h0Zm14.91-9.07h-5.64l2.92-8.77h.1l2.62,8.77h0Zm29.72,9.07h5.94v-22.47h-5.94v22.47h0Zm10.08,0h15.21v-4.43h-9.27v-18.04h-5.94v22.47h0Zm-29.32-.6c2.22.71,4.43,1.01,6.65,1.01,5.04,0,9.87-1.61,9.87-7.46,0-8.06-10.58-5.64-10.58-9.27,0-1.91,2.52-2.12,4.03-2.12,1.71,0,3.43.3,5.04,1.01l.4-4.63c-1.91-.6-3.83-.91-5.84-.81-4.53,0-9.77,1.51-9.77,6.85,0,8.16,10.58,5.54,10.58,9.67,0,1.81-1.81,2.22-3.73,2.22-2.12,0-4.23-.5-6.15-1.51l-.5,5.04Z"/></svg>