<?xml version="1.0" encoding="UTF-8" standalone="no"?>
<!DOCTYPE svg PUBLIC "-//W3C//DTD SVG 1.1//EN" "http://www.w3.org/Graphics/SVG/1.1/DTD/svg11.dtd">
<!-- Created with Vectornator (http://vectornator.io/) -->
<svg height="100%" stroke-miterlimit="10" style="fill-rule:nonzero;clip-rule:evenodd;stroke-linecap:round;stroke-linejoin:round;" version="1.1" viewBox="0 0 250 80" width="100%" xml:space="preserve" xmlns="http://www.w3.org/2000/svg" xmlns:xlink="http://www.w3.org/1999/xlink">
<defs/>
<path d="M0 0L250 0L250 80L0 80L0 0Z" fill="#000000" fill-opacity="0" fill-rule="nonzero" opacity="1" stroke="none"/>
<clipPath id="ArtboardFrame">
<rect height="80" width="250" x="0" y="0"/>
</clipPath>
<g clip-path="url(#ArtboardFrame)" id="Sem-Título">
<g opacity="1">
<path d="M35.8453 51.2954L-1.42109e-14 51.2954L16.7556 20.3685L52.6009 20.3685L35.8453 51.2954" fill="#000000" fill-rule="nonzero" opacity="1" stroke="none"/>
<path d="M63.2711 32.2891C59.2698 32.2891 57.1857 35.4568 57.1857 40.2084C57.1857 44.7099 59.4365 48.1277 63.2711 48.1277C67.6059 48.1277 69.2731 44.1264 69.2731 40.2084C69.2731 36.1237 67.2724 32.2891 63.2711 32.2891M52.6009 20.4518L57.3525 20.4518L57.3525 31.8723L57.4358 31.8723C58.853 29.7049 61.2704 28.3711 63.938 28.3711C70.7736 28.3711 74.108 33.7896 74.108 40.2918C74.108 46.2938 71.1904 51.9623 64.7716 51.9623C61.854 51.9623 58.6862 51.2121 57.2691 48.2944L57.1857 48.2944L57.1857 51.3788L52.6009 51.3788L52.6009 20.4518L52.6009 20.4518" fill="#000000" fill-rule="nonzero" opacity="1" stroke="none"/>
<path d="M99.7833 48.0443L96.5322 48.0443C95.6986 48.0443 95.3651 47.5442 95.3651 46.3771L95.3651 34.8733C95.3651 30.1217 90.947 28.3711 86.6956 28.3711C81.944 28.3711 77.1924 30.0383 76.859 35.8736L81.6939 35.8736C81.944 33.4562 83.7779 32.2891 86.4455 32.2891C88.3628 32.2891 90.947 32.7893 90.947 35.2901C90.947 38.2077 87.8626 37.7909 84.4448 38.4578C80.4435 38.958 76.1087 39.875 76.1087 45.4602C76.1087 49.8783 79.6099 52.0457 83.5278 52.0457C86.112 52.0457 89.113 51.2121 91.0303 49.2948C91.3638 51.2954 92.7809 52.0457 94.6982 52.0457L100.033 51.7122L99.7833 48.0443ZM90.6969 43.8763C90.6969 47.044 87.4458 48.1277 85.3618 48.1277C83.6946 48.1277 80.9436 47.4608 80.9436 45.2934C80.9436 42.7092 82.7776 41.8756 84.8616 41.5422C86.9456 41.2087 89.2798 41.2087 90.6969 40.2084L90.6969 43.8763Z" fill="#000000" fill-rule="nonzero" opacity="1" stroke="none"/>
<path d="M111.12 28.3711C108.286 28.3711 105.702 29.8716 104.368 32.3725L104.285 32.2891L104.285 28.9547L99.7833 28.9547L99.7833 48.0443L100.033 51.6289L104.618 51.3788L104.618 38.1244C104.618 34.7899 106.702 32.2057 109.87 32.2057C112.704 32.2057 114.038 33.7062 114.121 37.2074L114.121 51.2954L118.956 51.2954L118.956 35.957C118.873 30.9553 115.872 28.3711 111.12 28.3711" fill="#000000" fill-rule="nonzero" opacity="1" stroke="none"/>
<path d="M132.794 48.1277C137.046 48.1277 138.88 44.1264 138.88 40.2084C138.88 35.2901 136.546 32.2891 132.878 32.2891C128.376 32.2891 126.792 36.3738 126.792 40.4585C126.792 44.2931 128.626 48.1277 132.794 48.1277M143.464 51.4622L138.963 51.4622L138.963 48.3778L138.88 48.3778C137.629 50.962 134.878 52.0457 132.127 52.0457C125.292 52.0457 121.957 46.7939 121.957 40.0417C121.957 31.9557 126.626 28.3711 131.377 28.3711C134.128 28.3711 137.129 29.4548 138.63 31.8723L138.713 31.8723L138.713 20.4518L143.464 20.4518L143.464 51.4622L143.464 51.4622" fill="#000000" fill-rule="nonzero" opacity="1" stroke="none"/>
<path d="M162.471 36.4572C162.221 33.9563 160.053 32.1224 157.553 32.2891C155.052 32.2891 151.634 33.6229 151.634 40.4585C151.634 44.2097 153.218 48.1277 157.386 48.1277C160.137 48.1277 162.054 46.2104 162.554 43.0427L167.306 43.0427C166.389 48.878 162.971 52.0457 157.386 52.0457C150.55 52.0457 146.882 47.044 146.882 40.4585C146.882 33.7062 150.467 28.3711 157.553 28.3711C162.554 28.3711 166.889 30.9553 167.306 36.4572L162.471 36.4572" fill="#000000" fill-rule="nonzero" opacity="1" stroke="none"/>
<path d="M192.814 48.0443L189.563 48.0443C188.646 48.0443 188.396 47.5442 188.396 46.3771L188.396 34.8733C188.396 30.1217 183.978 28.3711 179.727 28.3711C174.975 28.3711 170.223 30.0383 169.89 35.8736L174.642 35.8736C174.892 33.4562 176.726 32.2891 179.393 32.2891C181.31 32.2891 183.895 32.7893 183.895 35.2901C183.895 38.2077 180.81 37.7909 177.392 38.4578C173.391 38.958 169.056 39.875 169.056 45.4602C169.056 49.8783 172.558 52.0457 176.475 52.0457C179.06 52.0457 182.144 51.2121 183.978 49.2948C184.311 51.2954 185.729 52.0457 187.646 52.0457L192.898 51.7122L192.814 48.0443ZM183.728 43.8763C183.728 47.044 180.477 48.1277 178.393 48.1277C176.726 48.1277 173.975 47.4608 173.975 45.2934C173.975 42.7092 175.809 41.8756 177.893 41.5422C179.977 41.2087 182.311 41.2087 183.728 40.2084L183.728 43.8763Z" fill="#000000" fill-rule="nonzero" opacity="1" stroke="none"/>
<path d="M216.989 28.3711C214.238 28.2878 211.654 29.7049 210.237 32.1224C209.236 29.5382 206.819 28.3711 204.151 28.3711C201.4 28.2044 198.816 29.7049 197.482 32.1224L197.316 32.1224L197.316 28.9547L192.814 28.9547L192.814 48.0443L193.064 51.6289L197.649 51.3788L197.649 38.041C197.649 34.2898 199.9 32.2057 202.401 32.2057C205.318 32.2057 206.235 33.873 206.235 36.9573L206.235 51.3788L210.987 51.3788L210.987 38.2077C210.987 34.4565 212.404 32.2057 215.572 32.2057C219.323 32.2057 219.49 34.7066 219.49 38.2077L219.49 51.2954L224.241 51.2954L224.241 35.8736C224.241 30.4552 221.574 28.3711 216.989 28.3711" fill="#000000" fill-rule="nonzero" opacity="1" stroke="none"/>
<path d="M239.33 32.2891C235.328 32.2891 233.244 35.4568 233.244 40.2084C233.244 44.7099 235.495 48.1277 239.33 48.1277C243.665 48.1277 245.332 44.1264 245.332 40.2084C245.332 36.1237 243.248 32.2891 239.33 32.2891M228.576 28.9547L233.078 28.9547L233.078 31.9557L233.161 31.9557C234.495 29.3715 237.079 28.2878 239.83 28.2878C246.666 28.2878 250 33.7062 250 40.2084C250 46.2104 247.082 51.9623 240.664 51.9623C237.913 51.9623 234.912 50.8786 233.411 48.4612L233.411 48.4612L233.411 59.6315L228.66 59.6315L228.576 28.9547L228.576 28.9547" fill="#000000" fill-rule="nonzero" opacity="1" stroke="none"/>
</g>
</g>
</svg>
