<?xml version="1.0" encoding="utf-8"?>
<!-- Generator: Adobe Illustrator 23.0.6, SVG Export Plug-In . SVG Version: 6.00 Build 0)  -->
<svg version="1.1" id="Camada_1" xmlns="http://www.w3.org/2000/svg" xmlns:xlink="http://www.w3.org/1999/xlink" x="0px" y="0px"
	 viewBox="0 0 300 120" style="enable-background:new 0 0 300 120;" xml:space="preserve">
<title>Bandcamp</title>
<path id="diamond" d="M43,73.5H0l20.1-37.1h43L43,73.5"/>
<path id="b" d="M75.9,50.7c-4.8,0-7.3,3.8-7.3,9.5c0,5.4,2.7,9.5,7.3,9.5c5.2,0,7.2-4.8,7.2-9.5C83.1,55.3,80.7,50.7,75.9,50.7
	 M63.1,36.5h5.7v13.7h0.1c1.7-2.6,4.6-4.2,7.8-4.2c8.2,0,12.2,6.5,12.2,14.3c0,7.2-3.5,14-11.2,14c-3.5,0-7.3-0.9-9-4.4h-0.1v3.7
	h-5.5V36.5L63.1,36.5"/>
<path id="a1" d="M119.7,69.6h-3.9c-1,0-1.4-0.6-1.4-2V53.8c0-5.7-5.3-7.8-10.4-7.8c-5.7,0-11.4,2-11.8,9H98c0.3-2.9,2.5-4.3,5.7-4.3
	c2.3,0,5.4,0.6,5.4,3.6c0,3.5-3.7,3-7.8,3.8c-4.8,0.6-10,1.7-10,8.4c0,5.3,4.2,7.9,8.9,7.9c3.1,0,6.7-1,9-3.3
	c0.4,2.4,2.1,3.3,4.4,3.3L120,74L119.7,69.6z M108.8,64.6c0,3.8-3.9,5.1-6.4,5.1c-2,0-5.3-0.8-5.3-3.4c0-3.1,2.2-4.1,4.7-4.5
	s5.3-0.4,7-1.6L108.8,64.6z"/>
<path id="n" d="M133.3,46c-3.4,0-6.5,1.8-8.1,4.8l-0.1-0.1v-4h-5.4v22.9l0.3,4.3l5.5-0.3V57.7c0-4,2.5-7.1,6.3-7.1
	c3.4,0,5,1.8,5.1,6v16.9h5.8V55.1C142.6,49.1,139,46,133.3,46"/>
<path id="d" d="M159.3,69.7c5.1,0,7.3-4.8,7.3-9.5c0-5.9-2.8-9.5-7.2-9.5c-5.4,0-7.3,4.9-7.3,9.8C152.1,65.1,154.3,69.7,159.3,69.7
	 M172.1,73.7h-5.4V70h-0.1c-1.5,3.1-4.8,4.4-8.1,4.4c-8.2,0-12.2-6.3-12.2-14.4c0-9.7,5.6-14,11.3-14c3.3,0,6.9,1.3,8.7,4.2h0.1
	V36.5h5.7L172.1,73.7L172.1,73.7"/>
<path id="c" d="M194.9,55.7c-0.3-3-2.9-5.2-5.9-5c-3,0-7.1,1.6-7.1,9.8c0,4.5,1.9,9.2,6.9,9.2c3.3,0,5.6-2.3,6.2-6.1h5.7
	c-1.1,7-5.2,10.8-11.9,10.8c-8.2,0-12.6-6-12.6-13.9c0-8.1,4.3-14.5,12.8-14.5c6,0,11.2,3.1,11.7,9.7L194.9,55.7"/>
<path id="a2" d="M231.3,69.6h-3.9c-1.1,0-1.4-0.6-1.4-2V53.8c0-5.7-5.3-7.8-10.4-7.8c-5.7,0-11.4,2-11.8,9h5.7
	c0.3-2.9,2.5-4.3,5.7-4.3c2.3,0,5.4,0.6,5.4,3.6c0,3.5-3.7,3-7.8,3.8c-4.8,0.6-10,1.7-10,8.4c0,5.3,4.2,7.9,8.9,7.9
	c3.1,0,6.8-1,9-3.3c0.4,2.4,2.1,3.3,4.4,3.3l6.3-0.4L231.3,69.6z M220.4,64.6c0,3.8-3.9,5.1-6.4,5.1c-2,0-5.3-0.8-5.3-3.4
	c0-3.1,2.2-4.1,4.7-4.5s5.3-0.4,7-1.6L220.4,64.6z"/>
<path id="m" d="M260.3,46c-3.3-0.1-6.4,1.6-8.1,4.5c-1.2-3.1-4.1-4.5-7.3-4.5c-3.3-0.2-6.4,1.6-8,4.5h-0.2v-3.8h-5.4v22.9l0.3,4.3
	l5.5-0.3v-16c0-4.5,2.7-7,5.7-7c3.5,0,4.6,2,4.6,5.7v17.3h5.7V57.8c0-4.5,1.7-7.2,5.5-7.2c4.5,0,4.7,3,4.7,7.2v15.7h5.7V55
	C269,48.5,265.8,46,260.3,46"/>
<path id="p" d="M287.1,50.7c-4.8,0-7.3,3.8-7.3,9.5c0,5.4,2.7,9.5,7.3,9.5c5.2,0,7.2-4.8,7.2-9.5C294.3,55.3,291.8,50.7,287.1,50.7
	 M274.2,46.7h5.4v3.6h0.1c1.6-3.1,4.7-4.4,8-4.4c8.2,0,12.2,6.5,12.2,14.3c0,7.2-3.5,14.1-11.2,14.1c-3.3,0-6.9-1.3-8.7-4.2H280
	v13.4h-5.7L274.2,46.7L274.2,46.7"/>
</svg>
