<?xml version="1.0" encoding="UTF-8"?><svg id="a" xmlns="http://www.w3.org/2000/svg" viewBox="0 0 382.04 80"><defs><style>.c{stroke-width:0px;}</style></defs><g id="b"><path class="c" d="m54.78,63.26H0L25.61,16h54.78l-25.61,47.26"/><path class="c" d="m96.69,34.22c-6.11,0-9.3,4.84-9.3,12.1,0,6.88,3.44,12.1,9.3,12.1,6.62,0,9.17-6.11,9.17-12.1s-3.06-12.1-9.17-12.1m-16.31-18.09h7.26v17.45h.13c2.17-3.31,5.86-5.35,9.94-5.35,10.45,0,15.54,8.28,15.54,18.22,0,9.17-4.46,17.83-14.27,17.83-4.46,0-9.3-1.15-11.46-5.61h-.13v4.71h-7.01V16.13h0"/><path class="c" d="m152.48,58.29h-4.97c-1.27,0-1.78-.76-1.78-2.55v-17.58c0-7.26-6.75-9.94-13.25-9.94-7.26,0-14.52,2.55-15.03,11.46h7.39c.38-3.69,3.18-5.48,7.26-5.48,2.93,0,6.88.76,6.88,4.59,0,4.46-4.71,3.82-9.94,4.84-6.11.76-12.74,2.17-12.74,10.7,0,6.75,5.35,10.06,11.34,10.06,3.95,0,8.54-1.27,11.46-4.2.51,3.06,2.68,4.2,5.61,4.2l8.15-.51-.38-5.61Zm-13.89-6.37c0,4.84-4.97,6.5-8.15,6.5-2.55,0-6.75-1.02-6.75-4.33,0-3.95,2.8-5.22,5.99-5.73,3.18-.51,6.75-.51,8.92-2.04v5.61Z"/><path class="c" d="m169.81,28.23c-4.33,0-8.28,2.29-10.32,6.11l-.13-.13v-5.1h-6.88v29.17l.38,5.48,7.01-.38v-20.25c0-5.1,3.18-9.04,8.03-9.04,4.33,0,6.37,2.29,6.5,7.64v21.53h7.39v-23.44c-.13-7.64-4.71-11.59-11.97-11.59"/><path class="c" d="m202.93,58.42c6.5,0,9.3-6.11,9.3-12.1,0-7.52-3.57-12.1-9.17-12.1-6.88,0-9.3,6.24-9.3,12.48,0,5.86,2.8,11.72,9.17,11.72m16.31,5.1h-6.88v-4.71h-.13c-1.91,3.95-6.12,5.61-10.32,5.61-10.44,0-15.54-8.03-15.54-18.34,0-12.36,7.13-17.83,14.4-17.83,4.2,0,8.79,1.66,11.08,5.35h.13v-17.45h7.26v47.39h0"/><path class="c" d="m248.28,40.59c-.38-3.82-3.7-6.62-7.52-6.37-3.82,0-9.05,2.04-9.05,12.48,0,5.73,2.42,11.72,8.79,11.72,4.2,0,7.13-2.93,7.9-7.77h7.26c-1.4,8.92-6.62,13.76-15.16,13.76-10.45,0-16.05-7.64-16.05-17.71s5.48-18.47,16.31-18.47c7.64,0,14.27,3.95,14.9,12.36h-7.39"/><path class="c" d="m294.65,58.29h-4.97c-1.4,0-1.78-.76-1.78-2.55v-17.58c0-7.26-6.75-9.94-13.25-9.94-7.26,0-14.52,2.55-15.03,11.46h7.26c.38-3.69,3.18-5.48,7.26-5.48,2.93,0,6.88.76,6.88,4.59,0,4.46-4.71,3.82-9.94,4.84-6.11.76-12.74,2.17-12.74,10.7,0,6.75,5.35,10.06,11.34,10.06,3.95,0,8.66-1.27,11.47-4.2.51,3.06,2.68,4.2,5.61,4.2l8.03-.51-.13-5.61Zm-13.88-6.37c0,4.84-4.97,6.5-8.15,6.5-2.55,0-6.75-1.02-6.75-4.33,0-3.95,2.8-5.22,5.99-5.73,3.18-.51,6.75-.51,8.92-2.04v5.61Z"/><path class="c" d="m331.59,28.23c-4.2-.13-8.15,2.04-10.32,5.73-1.53-3.95-5.22-5.73-9.3-5.73-4.2-.25-8.15,2.04-10.19,5.73h-.25v-4.84h-6.88v29.17l.38,5.48,7.01-.38v-20.38c0-5.73,3.44-8.92,7.26-8.92,4.46,0,5.86,2.55,5.86,7.26v22.04h7.26v-20.13c0-5.73,2.17-9.17,7.01-9.17,5.73,0,5.99,3.82,5.99,9.17v20h7.26v-23.57c0-8.28-4.08-11.46-11.08-11.46"/><path class="c" d="m365.73,34.22c-6.12,0-9.3,4.84-9.3,12.1,0,6.88,3.44,12.1,9.3,12.1,6.62,0,9.17-6.11,9.17-12.1s-3.18-12.1-9.17-12.1m-16.43-5.1h6.88v4.59h.13c2.04-3.95,5.99-5.61,10.19-5.61,10.45,0,15.54,8.28,15.54,18.22,0,9.17-4.46,17.96-14.27,17.96-4.2,0-8.79-1.66-11.08-5.35h0v17.07h-7.26l-.13-46.88h0"/></g></svg>