<svg width="32" height="32" xmlns="http://www.w3.org/2000/svg">
  <path d="m0 1 76.05 48.37a21.62 21.62 0 0 1 5.5 5.28 11.63 11.63 0 0 1 1.8 5.35 10.75 10.75 0 0 1-1.84 5.24c-1.83 2.53-5.89 5.17-5.89 5.17L2.73 119l63.91-55.4s2.41-1.87 2.27-3.52c-.14-1.65-2.65-3.46-2.65-3.46" style="fill-opacity:0" fill="none" transform="matrix(.27119 0 0 .27119 4.384 -.271)"/>
  <path d="m4.384 0 20.623 13.117A5.863 5.863 0 0 1 26.5 14.55 3.154 3.154 0 0 1 26.987 16a2.915 2.915 0 0 1-.499 1.421c-.496.686-1.597 1.402-1.597 1.402L5.124 32l17.332-15.024s.653-.507.615-.954c-.038-.448-.718-.939-.718-.939"/>
  <path d="m4.384 0 20.623 13.117A5.863 5.863 0 0 1 26.5 14.55 3.154 3.154 0 0 1 26.987 16a2.915 2.915 0 0 1-.499 1.421c-.496.686-1.597 1.402-1.597 1.402L5.124 32l17.332-15.024s.653-.507.615-.954c-.038-.448-.718-.939-.718-.939"/>
  <path d="M16.207 1.925 26.58 8.578a2.546 2.546 0 0 1 .784.691 1.654 1.654 0 0 1 .252.724 1.302 1.302 0 0 1-.244.665 4.098 4.098 0 0 1-.851.732l-9.934 6.685 8.76-7.594s.311-.241.292-.466c-.019-.225-.374-.475-.374-.475"/>
  <path d="M16.207 1.925 26.58 8.578a2.546 2.546 0 0 1 .784.691 1.654 1.654 0 0 1 .252.724 1.302 1.302 0 0 1-.244.665 4.098 4.098 0 0 1-.851.732l-2.983 1.998-.74.497-.462.325-5.749 3.865 4.974-4.318.493-.425 3.287-2.853s.312-.242.293-.467c-.02-.225-.369-.472-.369-.472"/>
</svg>