<svg id="svg3039" xmlns="http://www.w3.org/2000/svg" viewBox="0 0 300 120"><defs><style>.cls-1{fill-opacity:0;}</style></defs><title>base</title><g id="g3853"><g id="g5419"><path id="path3831" class="cls-1" d="M0,1,76.05,49.37a21.62,21.62,0,0,1,5.5,5.28A11.63,11.63,0,0,1,83.35,60a10.75,10.75,0,0,1-1.84,5.24c-1.83,2.53-5.89,5.17-5.89,5.17L2.73,119,66.64,63.6s2.41-1.87,2.27-3.52-2.65-3.46-2.65-3.46"/><path id="path3924" d="M0,1,76.05,49.37a21.62,21.62,0,0,1,5.5,5.28A11.63,11.63,0,0,1,83.35,60a10.75,10.75,0,0,1-1.84,5.24c-1.83,2.53-5.89,5.17-5.89,5.17L2.73,119,66.64,63.6s2.41-1.87,2.27-3.52-2.65-3.46-2.65-3.46"/><path id="path3083" d="M0,1,76.05,49.37a21.62,21.62,0,0,1,5.5,5.28A11.63,11.63,0,0,1,83.35,60a10.75,10.75,0,0,1-1.84,5.24c-1.83,2.53-5.89,5.17-5.89,5.17L2.73,119,66.64,63.6s2.41-1.87,2.27-3.52-2.65-3.46-2.65-3.46"/><path id="path5393" d="M43.6,8.1,81.85,32.63a9.39,9.39,0,0,1,2.89,2.55,6.1,6.1,0,0,1,.93,2.67,4.8,4.8,0,0,1-.9,2.45A15.11,15.11,0,0,1,81.63,43L45,67.65l32.3-28s1.15-.89,1.08-1.72S77,36.18,77,36.18"/><path id="path3855" d="M43.6,8.1,81.85,32.63a9.39,9.39,0,0,1,2.89,2.55,6.1,6.1,0,0,1,.93,2.67,4.8,4.8,0,0,1-.9,2.45A15.11,15.11,0,0,1,81.63,43l-11,7.37-2.73,1.83L66.2,53.4,45,67.65,63.34,51.73l1.82-1.57L77.28,39.64s1.15-.89,1.08-1.72S77,36.18,77,36.18"/></g></g><g id="Text"><g id="text3079"><path id="path3006" d="M135.46,62c0-1.75-.32-2.94-1-3.57a4.29,4.29,0,0,0-3.21-.94H109.59V69.53H131.3a4.29,4.29,0,0,0,3.21-1c.63-.63,1-1.79,1-3.49V62m-.3-16.53c0-1.36-.31-2.24-.94-2.63a5.06,5.06,0,0,0-2.92-.65H109.59V52.56H131.3a5,5,0,0,0,2.92-.66,3.24,3.24,0,0,0,.94-2.7V45.42m-31.83-8.31h30.3q4.16,0,6.05,1.68c1.26,1.11,1.9,3,1.9,5.61v4.37a8.55,8.55,0,0,1-.3,2.26,4.65,4.65,0,0,1-.87,1.89,6.28,6.28,0,0,1-1.89,1.46,10.72,10.72,0,0,1-3.21.8q6.48.8,6.48,7.36v4.8q0,7.36-10.41,7.36h-28V37.11"/><path id="path3008" d="M183.81,60.64,173.68,41.41,163.55,60.64h20.26M170.47,37.11h6.71L198.09,74.7h-6.93l-4.8-9.25H160.93l-4.81,9.25h-6.19l20.54-37.59"/><path id="path3010" d="M213.87,42.21V52.7h23.67a17.21,17.21,0,0,1,4.23.44,5.11,5.11,0,0,1,4.08,4.22,17.21,17.21,0,0,1,.44,4.23v4.22a18.54,18.54,0,0,1-.44,4.38,5.3,5.3,0,0,1-1.39,2.69,5.74,5.74,0,0,1-2.69,1.46,20.69,20.69,0,0,1-4.23.36H215.61a20.58,20.58,0,0,1-4.22-.36,5.35,5.35,0,0,1-4.15-4.15,18,18,0,0,1-.44-4.38v-1l5.83-1.38v6h28V58.16H217a20.69,20.69,0,0,1-4.23-.36,5.79,5.79,0,0,1-2.69-1.46,6.19,6.19,0,0,1-1.39-2.69,18.51,18.51,0,0,1-.43-4.37V46a17.6,17.6,0,0,1,.43-4.3,6.18,6.18,0,0,1,1.39-2.77,5.28,5.28,0,0,1,2.69-1.38,17.21,17.21,0,0,1,4.23-.44h20a19.35,19.35,0,0,1,4,.36,5.62,5.62,0,0,1,2.7,1.32,5.53,5.53,0,0,1,1.6,2.55,13.33,13.33,0,0,1,.51,4v.8l-5.39,1.53V42.21H213.87"/><path id="path3012" d="M263.5,37.11h36.21v5H269.77V52.63h18.28v4.95H269.77v12H300V74.7H263.5V37.11"/></g></g></svg>