<?xml version="1.0" encoding="UTF-8" standalone="no"?>
<svg id="svg3039" viewBox="0 0 32 32" version="1.1" sodipodi:docname="base.svg" width="32" height="32" inkscape:version="1.4-beta2 (9aaf4f34, 2024-07-30)" xmlns:inkscape="http://www.inkscape.org/namespaces/inkscape" xmlns:sodipodi="http://sodipodi.sourceforge.net/DTD/sodipodi-0.dtd" xmlns="http://www.w3.org/2000/svg" xmlns:svg="http://www.w3.org/2000/svg" xmlns:rdf="http://www.w3.org/1999/02/22-rdf-syntax-ns#" xmlns:cc="http://creativecommons.org/ns#" xmlns:dc="http://purl.org/dc/elements/1.1/">
  <sodipodi:namedview id="namedview1" pagecolor="#ffffff" bordercolor="#000000" borderopacity="0.25" inkscape:showpageshadow="2" inkscape:pageopacity="0.0" inkscape:pagecheckerboard="0" inkscape:deskcolor="#d1d1d1" inkscape:zoom="3.2467575" inkscape:cx="14.167981" inkscape:cy="42.657944" inkscape:window-width="1440" inkscape:window-height="790" inkscape:window-x="0" inkscape:window-y="0" inkscape:window-maximized="1" inkscape:current-layer="svg3039" />
  <defs id="defs1">
    <style id="style1">.cls-1{fill-opacity:0;}</style>
  </defs>
  <title id="title1">base</title>
  <g id="g3853" transform="matrix(0.27118644,0,0,0.27118644,4.3837288,-0.2711864)">
    <g id="g5419">
      <path id="path3831" class="cls-1" d="m 0,1 76.05,48.37 a 21.62,21.62 0 0 1 5.5,5.28 11.63,11.63 0 0 1 1.8,5.35 10.75,10.75 0 0 1 -1.84,5.24 c -1.83,2.53 -5.89,5.17 -5.89,5.17 L 2.73,119 66.64,63.6 c 0,0 2.41,-1.87 2.27,-3.52 -0.14,-1.65 -2.65,-3.46 -2.65,-3.46" />
      <path id="path3924" d="m 0,1 76.05,48.37 a 21.62,21.62 0 0 1 5.5,5.28 11.63,11.63 0 0 1 1.8,5.35 10.75,10.75 0 0 1 -1.84,5.24 c -1.83,2.53 -5.89,5.17 -5.89,5.17 L 2.73,119 66.64,63.6 c 0,0 2.41,-1.87 2.27,-3.52 -0.14,-1.65 -2.65,-3.46 -2.65,-3.46" />
      <path id="path3083" d="m 0,1 76.05,48.37 a 21.62,21.62 0 0 1 5.5,5.28 11.63,11.63 0 0 1 1.8,5.35 10.75,10.75 0 0 1 -1.84,5.24 c -1.83,2.53 -5.89,5.17 -5.89,5.17 L 2.73,119 66.64,63.6 c 0,0 2.41,-1.87 2.27,-3.52 -0.14,-1.65 -2.65,-3.46 -2.65,-3.46" />
      <path id="path5393" d="m 43.6,8.1 38.25,24.53 a 9.39,9.39 0 0 1 2.89,2.55 6.1,6.1 0 0 1 0.93,2.67 4.8,4.8 0 0 1 -0.9,2.45 15.11,15.11 0 0 1 -3.14,2.7 L 45,67.65 l 32.3,-28 c 0,0 1.15,-0.89 1.08,-1.72 C 78.31,37.1 77,36.18 77,36.18" />
      <path id="path3855" d="m 43.6,8.1 38.25,24.53 a 9.39,9.39 0 0 1 2.89,2.55 6.1,6.1 0 0 1 0.93,2.67 4.8,4.8 0 0 1 -0.9,2.45 15.11,15.11 0 0 1 -3.14,2.7 l -11,7.37 L 67.9,52.2 66.2,53.4 45,67.65 63.34,51.73 65.16,50.16 77.28,39.64 c 0,0 1.15,-0.89 1.08,-1.72 C 78.29,37.09 77,36.18 77,36.18" />
    </g>
  </g>
  <metadata id="metadata1">
    <rdf:RDF>
      <cc:Work rdf:about="">
        <dc:title>base</dc:title>
      </cc:Work>
    </rdf:RDF>
  </metadata>
</svg>
