<?xml version="1.0" encoding="UTF-8" standalone="no"?>
<svg width="32" height="32" viewBox="0 0 2.4672768 2.4672768" version="1.1" id="svg3" xmlns="http://www.w3.org/2000/svg" xmlns:svg="http://www.w3.org/2000/svg">
  <defs id="defs3" />
  <g fill-rule="evenodd" clip-rule="evenodd" id="g3" style="fill:#000000" transform="matrix(0.01539729,0,0,0.01539729,-0.25031392,-0.25032931)">
    <path fill="#33348e" d="M 96.396,16.925 17.546,69.775 50.365,91.086 89.577,64.66 74.023,54.443 95.328,40.169 l 46.231,30.679 -75.845,50.918 16.405,10.865 94.379,-62.848 -0.213,-0.213 z m 78.631,0.022 -32.808,21.731 16.404,11.078 16.404,-11.078 z M 17.005,175.832 49.814,154.102 33.41,143.023 17.005,154.102 Z" id="path2" style="fill:#000000" />
    <path fill="#33348e" d="m 96.36,175.787 78.849,-52.851 -32.818,-21.311 -39.211,26.426 15.552,10.217 -21.304,14.275 -46.231,-30.68 75.844,-50.917 -16.404,-10.866 -94.38,62.848 0.213,0.215 z" id="path3" style="fill:#000000" />
  </g>
</svg>
