<?xml version="1.0" encoding="UTF-8"?><svg id="a" xmlns="http://www.w3.org/2000/svg" viewBox="0 0 175 80"><defs><style>.b{stroke-width:0px;}</style></defs><path class="b" d="m175,15v50h-50V15h50Zm-62.5,0v50h-50V15h50Zm-62.5,0v50H0V15h50Zm102.3,10.64c-2.25,0-4.28.33-6.09,1-1.81.67-3.37,1.63-4.66,2.89-1.3,1.26-2.29,2.77-2.98,4.53-.69,1.76-1.03,3.73-1.03,5.92s.33,4.25.99,6.03c.66,1.79,1.61,3.3,2.86,4.53,1.24,1.23,2.77,2.18,4.57,2.83,1.8.66,3.82.98,6.07.98,1.69,0,3.31-.19,4.84-.56,1.53-.37,2.88-.88,4.05-1.52h0v-5.36c-2.46,1.52-5.15,2.27-8.06,2.27-1.91,0-3.53-.36-4.86-1.08-1.34-.72-2.36-1.77-3.06-3.14-.7-1.37-1.05-3.04-1.05-4.99s.36-3.61,1.09-4.97c.73-1.36,1.77-2.4,3.14-3.12,1.36-.72,3.01-1.08,4.94-1.08,1.4,0,2.74.19,4.01.56,1.27.37,2.45.92,3.53,1.64h0v-5.47c-1.19-.62-2.48-1.09-3.87-1.41-1.39-.32-2.87-.48-4.43-.48Zm-65.18.3h-10.56v28.12h11.21c2.22,0,4.12-.33,5.7-.98,1.58-.66,2.8-1.59,3.65-2.79.85-1.21,1.28-2.65,1.28-4.33s-.44-3.15-1.32-4.35c-.88-1.19-2.15-2.07-3.81-2.62,1.2-.58,2.1-1.36,2.72-2.34.61-.98.92-2.14.92-3.48,0-2.33-.85-4.12-2.56-5.37-1.71-1.25-4.12-1.87-7.23-1.87h0Zm-62.5,0h-10.56v28.12h11.21c2.22,0,4.12-.33,5.7-.98,1.58-.66,2.8-1.59,3.65-2.79.85-1.21,1.28-2.65,1.28-4.33s-.44-3.15-1.32-4.35c-.88-1.19-2.15-2.07-3.81-2.62,1.2-.58,2.1-1.36,2.72-2.34.61-.98.92-2.14.92-3.48,0-2.33-.85-4.12-2.56-5.37-1.71-1.25-4.12-1.87-7.23-1.87h0Zm62.69,15.97c3.49,0,5.24,1.29,5.24,3.86,0,1.21-.46,2.13-1.38,2.77-.92.64-2.23.96-3.94.96h-4.97v-7.59h5.05Zm-62.5,0c3.49,0,5.24,1.29,5.24,3.86,0,1.21-.46,2.13-1.38,2.77-.92.64-2.23.96-3.94.96h-4.97v-7.59h5.05Zm61.77-11.41c3.03,0,4.55,1.11,4.55,3.34,0,1.15-.39,2.05-1.17,2.69-.78.64-1.91.96-3.38.96h-4.32v-7h4.32Zm-62.5,0c3.03,0,4.55,1.11,4.55,3.34,0,1.15-.39,2.05-1.17,2.69-.78.64-1.91.96-3.38.96h-4.32v-7h4.32Z"/></svg>