<svg aria-labelledby="IconBase-title-04939fa8-d473-4d1d-8aba-ab3b9e514ccb IconBase-description-04939fa8-d473-4d1d-8aba-ab3b9e514ccb" width="32" height="32" class="PrimaryNav-behanceLogo-jbj PrimaryNav-truncated-C4c" aria-hidden="true" xmlns="http://www.w3.org/2000/svg">
  <path d="M9.263 5.446a10.719 10.719 0 0 1 2.571.264 5.74 5.74 0 0 1 1.987.85 3.92 3.92 0 0 1 1.276 1.576 5.953 5.953 0 0 1 .456 2.44 4.683 4.683 0 0 1-.675 2.614 4.963 4.963 0 0 1-2.005 1.716 4.788 4.788 0 0 1 2.703 1.917 5.961 5.961 0 0 1 .894 3.325 6.14 6.14 0 0 1-.565 2.71 5.28 5.28 0 0 1-1.55 1.884 6.838 6.838 0 0 1-2.244 1.075 9.554 9.554 0 0 1-2.571.346H0V5.446Zm-.55 8.38a3.003 3.003 0 0 0 1.896-.578 2.256 2.256 0 0 0 .747-1.883 2.545 2.545 0 0 0-.237-1.188 1.724 1.724 0 0 0-.66-.712 2.475 2.475 0 0 0-.948-.366 5.33 5.33 0 0 0-1.113-.096H4.322v4.84h4.39Zm.237 8.82a5.078 5.078 0 0 0 1.22-.133 2.93 2.93 0 0 0 1.022-.442 2.195 2.195 0 0 0 .712-.826 2.928 2.928 0 0 0 .255-1.345 2.772 2.772 0 0 0-.857-2.286 3.484 3.484 0 0 0-2.261-.674H4.32v5.705zM22.625 22.569a3.412 3.412 0 0 0 2.535.903 3.337 3.337 0 0 0 2.042-.634 2.611 2.611 0 0 0 1.039-1.32h3.446a6.788 6.788 0 0 1-2.534 3.863 7.048 7.048 0 0 1-4.121 1.172 7.788 7.788 0 0 1-3.046-.577 6.504 6.504 0 0 1-2.297-1.615 7.53 7.53 0 0 1-1.44-2.498 9.403 9.403 0 0 1-.51-3.19 9.226 9.226 0 0 1 .527-3.133 7.067 7.067 0 0 1 6.784-4.805 6.496 6.496 0 0 1 3.168.75 6.65 6.65 0 0 1 2.224 1.98 8.266 8.266 0 0 1 1.258 2.844 11.208 11.208 0 0 1 .274 3.344H21.708a4.084 4.084 0 0 0 .917 2.916Zm4.504-7.88a2.843 2.843 0 0 0-2.206-.826 3.115 3.115 0 0 0-1.55.346 3.319 3.319 0 0 0-.984.827 3.18 3.18 0 0 0-.528 1.056 4.377 4.377 0 0 0-.182.979h6.358a4.313 4.313 0 0 0-.905-2.38ZM20.859 6.829h7.968v2.037h-7.968z"/>
</svg>