<?xml version="1.0" encoding="UTF-8" standalone="no"?>
<svg viewBox="0 0 32 32.000001" aria-labelledby="IconBase-title-04939fa8-d473-4d1d-8aba-ab3b9e514ccb IconBase-description-04939fa8-d473-4d1d-8aba-ab3b9e514ccb" role="graphics-symbol img" width="32" height="32" class="PrimaryNav-behanceLogo-jbj PrimaryNav-truncated-C4c" title="Behance" aria-hidden="true" version="1.1" id="svg3" sodipodi:docname="behance.svg" inkscape:version="1.4-beta2 (9aaf4f34, 2024-07-30)" xmlns:inkscape="http://www.inkscape.org/namespaces/inkscape" xmlns:sodipodi="http://sodipodi.sourceforge.net/DTD/sodipodi-0.dtd" xmlns="http://www.w3.org/2000/svg" xmlns:svg="http://www.w3.org/2000/svg" xmlns:rdf="http://www.w3.org/1999/02/22-rdf-syntax-ns#" xmlns:cc="http://creativecommons.org/ns#" xmlns:dc="http://purl.org/dc/elements/1.1/">
  <defs id="defs3" />
  <sodipodi:namedview id="namedview3" pagecolor="#ffffff" bordercolor="#000000" borderopacity="0.25" inkscape:showpageshadow="2" inkscape:pageopacity="0.0" inkscape:pagecheckerboard="0" inkscape:deskcolor="#d1d1d1" inkscape:zoom="1.6265249" inkscape:cx="12.296154" inkscape:cy="7.6850962" inkscape:window-width="1440" inkscape:window-height="790" inkscape:window-x="0" inkscape:window-y="0" inkscape:window-maximized="1" inkscape:current-layer="svg3" />
  <title id="IconBase-title-04939fa8-d473-4d1d-8aba-ab3b9e514ccb">Behance</title>
  <desc id="IconBase-description-04939fa8-d473-4d1d-8aba-ab3b9e514ccb" />
  <g id="g3" transform="matrix(1.3200221,0,0,1.3200221,5.2848389e-7,5.4455712)">
    <!--[-->
    <g transform="translate(-55,-103)" id="g2">
      <path d="m 7.017,0 a 8.12,8.12 0 0 1 1.948,0.2 4.348,4.348 0 0 1 1.505,0.644 2.97,2.97 0 0 1 0.967,1.194 4.51,4.51 0 0 1 0.345,1.849 3.548,3.548 0 0 1 -0.511,1.98 3.76,3.76 0 0 1 -1.519,1.3 3.627,3.627 0 0 1 2.048,1.452 4.516,4.516 0 0 1 0.677,2.519 4.652,4.652 0 0 1 -0.428,2.053 4,4 0 0 1 -1.174,1.427 5.18,5.18 0 0 1 -1.7,0.815 7.238,7.238 0 0 1 -1.948,0.262 H 0 V 0 Z M 6.6,6.348 A 2.275,2.275 0 0 0 8.037,5.911 1.709,1.709 0 0 0 8.603,4.484 1.928,1.928 0 0 0 8.423,3.584 1.306,1.306 0 0 0 7.923,3.045 1.875,1.875 0 0 0 7.205,2.768 4.038,4.038 0 0 0 6.362,2.695 H 3.274 V 6.362 H 6.6 Z M 6.78,13.03 A 3.847,3.847 0 0 0 7.705,12.93 2.22,2.22 0 0 0 8.479,12.595 1.663,1.663 0 0 0 9.018,11.969 2.218,2.218 0 0 0 9.211,10.95 2.1,2.1 0 0 0 8.562,9.218 2.639,2.639 0 0 0 6.849,8.708 H 3.274 v 4.322 z" transform="translate(55,103)" id="path1" />
      <path d="m 101,36.468 a 2.585,2.585 0 0 0 1.92,0.684 2.528,2.528 0 0 0 1.547,-0.48 1.978,1.978 0 0 0 0.787,-1 h 2.611 a 5.142,5.142 0 0 1 -1.92,2.926 5.339,5.339 0 0 1 -3.122,0.888 5.9,5.9 0 0 1 -2.307,-0.437 4.927,4.927 0 0 1 -1.74,-1.223 5.705,5.705 0 0 1 -1.091,-1.893 7.123,7.123 0 0 1 -0.387,-2.417 6.989,6.989 0 0 1 0.4,-2.373 5.354,5.354 0 0 1 5.139,-3.64 4.921,4.921 0 0 1 2.4,0.568 5.038,5.038 0 0 1 1.685,1.5 6.262,6.262 0 0 1 0.953,2.155 8.491,8.491 0 0 1 0.207,2.533 h -7.777 A 3.094,3.094 0 0 0 101,36.468 Z m 3.412,-5.969 a 2.154,2.154 0 0 0 -1.671,-0.626 2.36,2.36 0 0 0 -1.174,0.262 2.514,2.514 0 0 0 -0.746,0.626 2.409,2.409 0 0 0 -0.4,0.8 3.316,3.316 0 0 0 -0.138,0.742 H 105.1 A 3.267,3.267 0 0 0 104.414,30.5 Z" transform="translate(-28.86,79.504)" id="path2" />
      <rect width="6.0359998" height="1.543" transform="translate(70.802,104.048)" id="rect2" x="0" y="0" />
    </g>
    <!--]-->
  </g>
  <metadata id="metadata3">
    <rdf:RDF>
      <cc:Work rdf:about="">
        <dc:title>Behance</dc:title>
      </cc:Work>
    </rdf:RDF>
  </metadata>
</svg>
