<?xml version="1.0" encoding="UTF-8" standalone="no"?>
<!-- Created with Inkscape (http://www.inkscape.org/) -->

<svg width="32" height="32" viewBox="0 0 8.4666662 8.4666663" version="1.1" id="svg8" inkscape:version="1.4-beta2 (9aaf4f34, 2024-07-30)" sodipodi:docname="bibliotecas-publicas.svg" xmlns:inkscape="http://www.inkscape.org/namespaces/inkscape" xmlns:sodipodi="http://sodipodi.sourceforge.net/DTD/sodipodi-0.dtd" xmlns:xlink="http://www.w3.org/1999/xlink" xmlns="http://www.w3.org/2000/svg" xmlns:svg="http://www.w3.org/2000/svg" xmlns:rdf="http://www.w3.org/1999/02/22-rdf-syntax-ns#" xmlns:cc="http://creativecommons.org/ns#" xmlns:dc="http://purl.org/dc/elements/1.1/">
  <defs id="defs2">
    <clipPath clipPathUnits="userSpaceOnUse" id="clipPath685">
      <path d="m 264.605,70.61 h 83.459 v 83.563 h -83.459 z" id="path683" inkscape:connector-curvature="0" />
    </clipPath>
    <linearGradient gradientUnits="userSpaceOnUse" gradientTransform="scale(0.95526688,1.0468279)" id="logo-b" x1="10.897475" x2="0.2378455" xlink:href="#logo-a" y1="-0.84148479" y2="28.698732" />
    <linearGradient id="logo-a">
      <stop offset="0" stop-color="#2ac4f3" id="stop1373" />
      <stop offset=".5" stop-color="#00b2e2" id="stop1375" />
      <stop offset="1" stop-color="#0095da" id="stop1377" />
    </linearGradient>
    <linearGradient gradientUnits="userSpaceOnUse" gradientTransform="scale(1.128902,0.88581647)" id="logo-c" x1="16.34103" x2="5.5038319" xlink:href="#logo-a" y1="3.9395139" y2="25.438801" />
    <linearGradient gradientUnits="userSpaceOnUse" gradientTransform="scale(0.94453437,1.0587227)" id="logo-d" x1="29.436024" x2="19.125055" xlink:href="#logo-a" y1="5.5319982" y2="34.749146" />
    <linearGradient gradientUnits="userSpaceOnUse" gradientTransform="scale(1.2097627,0.82660839)" id="logo-e" x1="19.429939" x2="9.316925" xlink:href="#logo-a" y1="22.081617" y2="39.551567" />
    <linearGradient gradientUnits="userSpaceOnUse" gradientTransform="scale(1.9187104,0.52118341)" id="logo-f" x1="12.910348" x2="6.5339332" xlink:href="#logo-a" y1="57.687977" y2="62.067036" />
  </defs>
  <sodipodi:namedview id="base" pagecolor="#ffffff" bordercolor="#666666" borderopacity="1.0" inkscape:pageopacity="0.82352941" inkscape:pageshadow="2" inkscape:zoom="2.4185905" inkscape:cx="38.038684" inkscape:cy="37.418488" inkscape:document-units="px" inkscape:current-layer="layer1" showgrid="false" units="px" inkscape:window-width="1440" inkscape:window-height="790" inkscape:window-x="0" inkscape:window-y="0" inkscape:window-maximized="1" inkscape:pagecheckerboard="true" fit-margin-top="0" fit-margin-left="0" fit-margin-right="0" fit-margin-bottom="0" inkscape:showpageshadow="2" inkscape:deskcolor="#d1d1d1" />
  <metadata id="metadata5">
    <rdf:RDF>
      <cc:Work rdf:about="">
        <dc:format>image/svg+xml</dc:format>
        <dc:type rdf:resource="http://purl.org/dc/dcmitype/StillImage" />
      </cc:Work>
    </rdf:RDF>
  </metadata>
  <g inkscape:label="Layer 1" inkscape:groupmode="layer" id="layer1" transform="translate(270.00095,971.98017)">
    <g id="g1" style="fill:#000000" transform="matrix(0.12548937,0,0,0.12548937,-235.36589,-850.00699)">
      <path d="m -215.78216,-928.3105 c -0.59532,-0.37184 -1.38416,-1.23532 -1.96463,-1.96464 -0.49109,-0.62508 -0.77393,-1.08647 -1.29489,-1.96463 -0.46127,-0.75902 -1.07161,-1.99439 -2.02414,-3.30413 -0.96744,-1.30973 -1.47349,-1.81579 -2.73856,-2.66414 -0.98235,-0.65489 -2.0093,-0.99725 -3.51255,-1.35445 -0.55071,-0.13389 -1.62233,-0.23795 -2.42602,-0.29758 0,-0.0281 0,-0.0743 0,-0.10407 0.68466,-0.0169 1.50325,-0.045 1.71161,-0.0743 0.38702,-0.0596 1.27998,-0.14907 2.5302,-0.56557 0.86326,-0.28295 1.71161,-0.78883 2.14324,-1.14604 0.61023,-0.5209 1.05676,-1.0121 1.51815,-1.75627 0.44665,-0.72932 0.78883,-1.51816 1.08647,-2.26233 0.32739,-0.81859 0.56556,-1.42882 0.81859,-2.02414 0.20814,-0.50628 0.72932,-1.39907 0.98234,-1.78603 0.35721,-0.55072 1.1758,-1.54792 1.66695,-1.91997 0.53609,-0.38702 0.53609,-0.38702 1.47349,-0.89302 0,0 -1.05677,-0.61023 -1.54792,-0.95259 -0.8781,-0.65484 -1.96463,-1.97948 -2.41111,-2.50044 -0.63999,-0.75902 -1.11628,-1.32464 -1.86045,-2.08366 -0.61023,-0.62514 -1.74137,-1.57767 -3.24461,-2.36651 -0.98235,-0.5209 -3.30419,-1.30973 -4.30138,-1.56276 -0.13388,-0.0281 -0.34258,-0.0596 -0.5209,-0.10407 0.11925,-0.87816 0.44664,-1.41397 0.75902,-1.80093 0.40164,-0.50628 1.08652,-0.86326 1.56282,-1.05671 0.66974,-0.26777 1.11622,-0.3274 2.14323,-0.43146 0.75902,-0.0743 2.15809,0.0894 2.15809,0.0894 l -2.50044,-3.21486 -0.0281,0.045 c -0.32739,0.25314 -0.61023,0.38702 -0.87811,0.40164 -0.63999,0.0281 -1.1907,-0.46127 -1.22046,-1.10143 -0.0169,-0.50571 0.13388,-0.77393 0.5209,-1.10138 l 0.0281,-0.0169 -1.47344,-1.8307 c 0,0 -0.8484,0.56557 -1.63724,1.22047 -0.95253,0.80368 -2.17299,2.14323 -2.66413,3.83993 -0.29758,1.05677 -0.56557,2.90232 -0.59533,4.25672 -0.22332,-0.0281 -0.46127,-0.0743 -0.6549,-0.10407 -1.63718,-0.22332 -2.27717,-0.22332 -4.01854,-0.32739 -1.62233,-0.0894 -3.12558,-0.11926 -4.04835,-0.10407 -0.93768,0.0169 -2.47068,0.0169 -3.5423,0.0596 -1.08653,0.0596 -2.08372,0.13388 -4.15254,0.44665 -0.0894,0.0169 -0.17832,0.045 -0.28295,0.045 -0.34258,-0.92277 -0.68465,-1.78603 -0.87811,-2.27723 l -0.0281,0.0281 c -0.53609,-1.39906 -0.84841,-2.99164 -0.92283,-4.30137 -0.045,-0.98229 0.14907,-2.75347 0.14907,-2.75347 l -4.45017,3.14043 0.0894,-0.0596 c 0.17832,0.26777 0.23795,0.47646 0.25314,0.81859 0.045,0.98229 -0.71441,1.81579 -1.6967,1.86046 -0.63999,0.0281 -1.20556,-0.29758 -1.533,-0.77393 l 0.0596,0.0894 -5.74505,3.97393 c 0,0 2.15809,-0.40164 3.25952,0 1.32464,0.47646 1.8753,0.90787 2.57486,1.93488 0.3274,0.46127 0.52091,0.87811 0.66975,1.36925 -0.56557,0.29758 -1.04186,0.58047 -1.77118,1.05677 -0.96744,0.63999 -2.00924,1.57767 -2.75347,2.54505 -0.6995,0.90792 -1.33949,2.11348 -1.33949,2.11348 0,0 -0.53553,-0.66975 -1.0121,-1.07162 -0.65484,-0.50628 -0.89302,-0.72927 -1.77113,-1.1758 -1.0121,-0.50628 -1.91996,-0.61023 -1.91996,-0.61023 0,0 0.83344,1.42882 1.47343,2.81304 0.46127,0.98229 0.63999,1.56276 0.78883,2.45577 0.22333,1.32465 0.22333,3.28928 0.22333,4.5246 0,1.38415 0.13388,14.48175 0,17.66684 -0.0743,2.11342 -0.0281,2.5302 -0.69951,4.74786 -0.63999,2.08367 -2.79813,4.92646 -2.79813,4.92646 0,0 0.98229,0.23795 2.02415,-0.19351 0.62514,-0.28295 1.36931,-0.63999 2.20281,-1.56276 0.83344,-0.90792 1.50324,-2.29208 1.50324,-2.29208 0,0 0.41684,0.90792 0.62509,1.29488 0.28295,0.50628 0.61023,1.14605 1.25022,1.97949 0.68465,0.90792 1.32464,1.69676 3.81018,3.5423 0.26776,0.20814 0.53609,0.32739 0.80374,0.50628 -0.17832,1.54791 -0.40165,3.27437 -0.56557,4.1972 -0.29758,1.63718 -0.35721,2.66413 -1.20561,4.03344 -0.98229,1.57762 -2.73856,2.42602 -2.73856,2.42602 0,0 -0.25314,0.62508 1.04186,1.05671 0.62508,0.20814 1.36931,0.0895 2.0539,-0.16369 0.58048,-0.22333 0.96744,-0.5209 1.29489,-0.78884 0.29758,-0.25314 0.84835,-0.92277 0.93768,-1.75627 0.10407,-1.07162 0.25314,-1.86045 1.14604,-2.45578 0.98229,-0.63999 2.39626,0.49109 2.39626,0.49109 l 2.90231,-1.11628 c 0,0 -0.25313,-0.61023 -0.49108,-1.1758 -0.37183,-0.87811 -0.61023,-1.57767 -0.84835,-2.38136 0.95253,0.25314 0.93768,0.22333 2.02415,0.44665 1.22046,0.25314 2.03905,0.40165 3.46788,0.56557 1.07161,0.11926 4.00368,0.32739 5.11997,0.35721 1.8753,0.0281 5.38784,-0.13389 7.14412,-0.38702 0.50627,-0.0596 0.92277,-0.13389 1.29488,-0.19351 0.62509,1.01204 1.48834,2.27717 2.12833,2.91716 0.95253,0.93768 1.96463,1.71161 3.1851,2.17299 1.77112,0.68466 3.25952,0.6549 3.25952,0.6549 0,0 -1.45858,-1.05677 -1.89021,-1.47349 -0.50628,-0.49109 -1.01211,-0.98229 -1.6521,-1.80088 -0.81859,-1.07162 -1.16094,-1.86045 -1.62233,-3.21485 1.16095,-0.31277 2.30699,-0.75908 3.11067,-1.13119 0.95259,-0.44665 2.09858,-1.25023 2.76838,-1.90507 0.5209,-0.50627 1.29483,-1.32464 2.00924,-2.29208 0.53609,-0.69956 1.47349,-2.15814 1.92003,-2.84279 0.43146,-0.68466 1.38415,-2.21766 1.72645,-2.73856 0.61024,-0.9972 1.44373,-1.62234 1.94979,-1.96464 0.6995,-0.46127 1.38416,-0.72932 1.38416,-0.72932 0,0 -0.62509,-0.37183 -1.25023,-0.78883 z m -25.40629,8.46876 c 0,0 -2.06881,2.26232 -4.16738,3.0214 -1.77113,0.63999 -2.75347,0.72926 -4.73301,0.40165 -0.72926,-0.11926 -1.65204,-0.44665 -2.61947,-0.87817 0,-0.0169 0,-0.0281 -0.0169,-0.045 -0.14907,-0.80369 -0.34202,-1.97948 -0.56557,-3.67624 -0.31276,-2.38136 -0.25313,-2.91716 -0.3572,-4.28647 -0.0894,-1.10138 0.0596,-3.57206 0.11925,-4.49484 0.0596,-0.92277 0.35721,-3.37855 0.68466,-4.98597 0.32739,-1.65209 0.6995,-2.72371 1.10137,-3.78042 0.0169,0 0.0281,0 0.0281,0 0.87811,0.0169 5.68554,0 5.83438,0 0.0281,0.0281 0.0596,0.0596 0.0743,0.0894 0.38702,0.43146 0.72932,0.68465 1.42882,1.72651 0.59538,0.90787 1.30979,2.14324 1.81585,3.19995 0.22332,0.44665 0.47646,0.96744 0.72926,1.50325 0.14907,0.32739 0.28295,0.63999 0.47646,1.07161 0.66975,1.45859 1.07162,2.33675 1.62228,3.42322 0.56562,1.08652 2.06887,4.18229 2.63444,5.34324 0.77392,1.56276 1.63718,3.39346 2.57486,5.37294 -0.92283,-0.0169 -1.81584,-0.14907 -2.69395,-0.35721 -2.24742,-0.59532 -3.97393,-2.64928 -3.97393,-2.64928 z m -16.63984,-0.55072 c -2.20275,-1.77118 -3.08091,-3.46788 -3.64648,-5.47717 -0.58047,-2.03906 -0.47646,-4.61392 0,-6.53389 0.23795,-0.93768 1.10138,-2.69395 2.82789,-4.37575 0.49109,-0.46127 0.92278,-0.80374 1.29489,-1.07162 0,0.52091 0.0169,0.98229 0.0169,1.30974 0.0281,1.6967 0.045,1.8307 0.045,3.1851 0.0281,2.41111 0.0169,3.34879 -0.0169,4.85204 -0.0169,1.47349 -0.0596,2.63438 -0.045,4.2418 0,1.29489 -0.0281,2.85765 -0.10407,4.15254 -0.11926,-0.0894 -0.25314,-0.19351 -0.37183,-0.28295 z m 29.09744,-21.96817 c -0.31276,0.17833 -0.64004,0.3274 -1.02701,0.44665 0,-4.64368 0,-14.86866 0,-15.43428 1.74143,0.89302 2.82789,2.15814 3.33395,2.75347 0.63999,0.75908 1.27997,2.3516 1.44373,3.52745 0.16369,1.16089 0.11925,3.09577 -0.64005,4.85204 -0.74417,1.75627 -1.90506,3.17019 -3.11062,3.85484 z m -23.4268,-0.72931 c -0.50572,-0.89302 -0.95253,-1.80089 -1.30974,-3.08092 -0.47646,-1.66694 -0.58047,-3.69109 -0.61023,-4.49483 -0.045,-0.75902 0.0894,-5.81948 0.22332,-7.62036 0.19351,-0.0596 0.35721,-0.11926 0.47646,-0.1637 0.1637,-0.0596 0.38702,-0.13388 0.62509,-0.19351 0.32739,0.75902 0.72932,1.63719 0.96743,2.14324 0.10407,0.20813 0.22333,0.44665 0.35721,0.71441 l 4.59901,10.47801 c 0.17833,0.8335 0.29758,1.75627 0.19351,3.05115 -0.0281,0.31277 -0.0894,0.56557 -0.14907,0.80369 -1.44373,0 -2.90231,0 -4.27156,0 -0.31277,-0.40165 -0.69956,-0.90787 -1.10143,-1.63718 z m 17.50309,16.92262 c -0.29758,-0.55072 -0.6995,-1.27998 -1.10138,-2.039 -0.75907,-1.42883 -1.33949,-2.50045 -2.00929,-3.86975 -0.75902,-1.51816 -1.42883,-2.94698 -1.81579,-4.68835 -0.13388,-0.55071 -0.19351,-1.1758 -0.23795,-1.80088 0.59532,0 1.13113,0 1.50325,0 0.38702,0 0.81859,0.0281 1.26507,0.0596 0.11925,0.045 0.8335,0.35721 1.38421,0.77393 0.49109,0.38702 0.68466,0.55071 1.16089,1.23537 0.0743,0.0743 0.13389,0.26776 0.20814,0.41683 0.35721,0.81859 0.72932,2.44093 0.81859,4.62877 0.0281,0.93768 0,1.63724 0,3.51255 0,1.1758 0,2.84274 0,3.69115 l 0.0169,0.0281 c 0,0.28295 0,0.47646 0,0.47646 0,0 -0.0169,-0.045 -0.0169,-0.045 0,-0.0894 0,-0.23795 0,-0.47646 z m 1.60743,-32.1634 c -0.26777,-0.0169 -0.46128,-0.0281 -0.46128,-0.0281 0,2.00924 0,5.09016 0,7.4269 0,0.66975 0.0169,4.65853 0,5.10507 -0.0169,0.84835 -0.23795,1.94972 -0.62508,2.8874 -0.17888,0.44665 -0.47646,0.92277 -0.90792,1.50325 0,0 -0.0169,0 -0.0169,0.0169 -1.10143,0 -2.75346,0 -4.733,0 0.0169,-0.0894 0.0169,-0.20869 0.0281,-0.28295 0.10407,-0.72926 0.37183,-1.30973 0.37183,-1.30973 0,0 -0.10406,-0.0596 -0.62513,-0.29758 -0.80369,-0.38702 -1.48834,-0.89302 -2.08367,-1.42883 -1.36931,-1.26507 -2.3516,-3.14043 -2.8428,-4.30132 -0.50627,-1.1758 -1.42882,-3.67624 -1.91996,-4.80743 -0.47647,-1.08647 -1.57767,-4.0632 -2.0093,-5.17949 0.40164,0.0169 0.80374,0.0281 1.1907,0.0596 1.01211,0.0894 2.23251,0.44665 3.51255,1.01205 1.50324,0.64004 2.8725,2.1879 2.8725,2.1879 0,0 1.04186,-0.86326 1.7116,-1.25022 0.66981,-0.40165 1.22047,-0.66975 2.44093,-1.01205 0.96744,-0.26776 2.29208,-0.53553 4.09296,-0.29758 z m -24.87043,2.15809 c 0.0743,0.90792 0.1637,2.05396 0.22333,2.91722 0.0743,1.3395 0.13388,2.58972 0.20869,4.45017 0.0894,1.86045 0.0894,2.42602 0.17833,4.28647 0.0281,0.61023 0.045,2.14324 0.0596,3.09582 -0.0169,0 -0.0743,0 -0.0743,0 0,0 -0.93768,-0.71441 -1.44373,-1.32464 -0.84835,-1.04186 -1.11623,-1.59258 -1.54786,-2.67904 -0.53609,-1.36931 -0.6698,-2.15815 -0.74417,-3.76557 -0.0596,-1.62234 0.58042,-3.92927 2.12833,-5.93857 0.31277,-0.38702 0.6549,-0.72926 1.01211,-1.04186 z m 28.636,37.96808 c -0.14907,0.0894 -0.29758,0.14907 -0.44665,0.22332 0,-3.69109 0,-18.76817 0,-18.93192 0.84841,0.37183 1.63724,0.77398 2.32184,1.33955 0.87816,0.69951 1.65209,1.75627 2.15814,2.55996 0.96744,1.54791 1.22047,3.94417 1.25022,5.0604 0.0281,0.8335 -0.20813,3.05116 -1.07161,5.00088 -0.84836,1.94979 -1.6521,3.24467 -4.21205,4.74792 z" id="path4" inkscape:connector-curvature="0" style="fill:#000000;stroke-width:1.48836" />
    </g>
  </g>
</svg>
