<svg width="32" height="32" viewBox="0 0 8.4666662 8.4666663" version="1.1" id="svg8" xmlns="http://www.w3.org/2000/svg" xmlns:svg="http://www.w3.org/2000/svg" xmlns:rdf="http://www.w3.org/1999/02/22-rdf-syntax-ns#" xmlns:cc="http://creativecommons.org/ns#" xmlns:dc="http://purl.org/dc/elements/1.1/">
  <path id="path4" style="fill:#000000;stroke-width:0.186773" d="m 5.944857,-4.4068661e-7 c 0,0 -0.1066823,0.0707797706866 -0.2056733,0.15296276068661 C 5.6196513,0.25381561 5.4664702,0.42218596 5.4048374,0.63510377 5.3674942,0.76771717 5.334158,0.99947471 5.3304234,1.1694375 5.3023991,1.1659113 5.2725565,1.1597372 5.248258,1.1560014 5.0428093,1.1279771 4.9624196,1.1282368 4.7438961,1.1151772 4.540311,1.1039584 4.3517143,1.0998348 4.2359164,1.101741 4.1182476,1.103861 3.9259765,1.104141 3.7914996,1.109501 3.6551516,1.116981 3.5296999,1.126063 3.270085,1.165312 3.258866,1.167432 3.248074,1.170992 3.234944,1.170992 3.191954,1.0551945 3.1486339,0.94686203 3.1243567,0.88522165 l -0.0031,0.003614 C 3.0539835,0.71326859 3.0143251,0.51369155 3.0049862,0.34933436 2.9993392,0.2260674 3.0241057,0.00361867 3.0241057,0.00361867 L 2.4768529,0.39015856 c 0.022377,0.0336023 0.029616,0.0599024 0.031522,0.10283603 0.00565,0.12326695 -0.08964,0.22797152 -0.2129065,0.23357713 -0.080312,0.003526 -0.1511456,-0.0373745 -0.1922359,-0.0971514 l 0.00723,0.0108548 -0.7208862,0.49919418 c 0,0 0.2710595,-0.050402 0.4092773,0 0.1662282,0.059791 0.2351909,0.1134838 0.3229782,0.2423626 0.041085,0.057885 0.065554,0.1104495 0.084232,0.1720823 -0.070973,0.037343 -0.1306872,0.07252 -0.2222091,0.1322909 -0.1214034,0.080312 -0.2523215,0.1984816 -0.3457144,0.3198775 -0.08778,0.1139343 -0.1679487,0.2651 -0.1679487,0.2651 0,0 -0.06732,-0.083929 -0.1271245,-0.1343589 C 1.2608897,2.073291 1.2310496,2.0450647 1.1208561,1.9890299 0.99384836,1.9254972 0.88004456,1.9125479 0.88004456,1.9125479 c 0,0 0.10417249,0.1792453 0.18448444,0.3529502 0.057884,0.1232669 0.080542,0.195929 0.099219,0.3079923 0.028026,0.1662295 0.027905,0.4129039 0.027905,0.5679235 0,0.1736961 0.0168,1.8172241 0,2.216919 -0.00932,0.2652118 -0.0036,0.3175358 -0.08785,0.5958286 -0.080312,0.2614784 -0.35088334,0.6180502 -0.35088334,0.6180502 0,0 0.12298962,0.029856 0.25373194,-0.024287 0.078448,-0.035507 0.1718728,-0.080056 0.2764682,-0.1958538 0.1045878,-0.1139343 0.1886193,-0.2878375 0.1886193,-0.2878375 0,0 0.052416,0.1142204 0.078549,0.1627798 0.035507,0.063533 0.076784,0.1439765 0.1570964,0.2485643 0.085916,0.1139343 0.1660977,0.2128212 0.4780066,0.4444169 0.033601,0.026119 0.067182,0.041114 0.1007692,0.063563 C 2.2637832,7.1778033 2.2359334,7.3943339 2.2153631,7.5101393 2.17802,7.715588 2.1704166,7.8442171 2.0639514,8.0160509 1.9406845,8.2140255 1.7203038,8.3204254 1.7203038,8.3204254 c 0,0 -0.031768,0.078644 0.1307411,0.1328092 0.078441,0.026119 0.1719568,0.011106 0.2578656,-0.020671 0.072844,-0.028026 0.1211725,-0.065079 0.162264,-0.098702 0.037343,-0.031766 0.106612,-0.1160626 0.117822,-0.220658 0.01306,-0.134477 0.031611,-0.2332848 0.1436602,-0.3079924 0.123267,-0.080312 0.3007566,0.061495 0.3007566,0.061495 L 3.1977328,7.7266637 c 0,0 -0.031635,-0.076305 -0.061495,-0.1472781 -0.046661,-0.1101935 -0.076572,-0.1983523 -0.1064539,-0.2992068 0.1195324,0.031766 0.1173903,0.028303 0.2537308,0.056327 0.1531547,0.031766 0.2558125,0.050227 0.4351155,0.070797 0.1344757,0.014966 0.5027732,0.041216 0.6428557,0.044958 0.2353302,0.00353 0.6756749,-0.016811 0.8960694,-0.048576 0.063532,-0.00748 0.1160839,-0.016805 0.1627798,-0.024287 0.078442,0.1270003 0.1868562,0.2855573 0.2671681,0.3658693 0.1195324,0.1176688 0.2463018,0.2149532 0.3994578,0.2728515 0.2222567,0.085918 0.4092773,0.082165 0.4092773,0.082165 0,0 -0.1830288,-0.1327075 -0.2371937,-0.1850014 C 6.195512,7.8536564 6.1321336,7.7921804 6.0518216,7.6894561 5.9490973,7.5549792 5.9061159,7.4558262 5.8482164,7.2858634 5.9939033,7.2466141 6.1375209,7.1904489 6.2383741,7.143753 6.3579141,7.0877032 6.5015868,6.9871837 6.5856396,6.9050082 6.651007,6.8414767 6.7481697,6.7385742 6.8378206,6.6171707 6.9050942,6.5293834 7.0225961,6.346519 7.0786321,6.2606027 7.1327758,6.1746852 7.2527185,5.9823225 7.2956735,5.9169551 7.3722522,5.7918171 7.4765978,5.7134139 7.540103,5.6704589 c 0.08778,-0.057885 0.1736321,-0.091468 0.1736321,-0.091468 0,0 -0.078131,-0.046889 -0.1565794,-0.099218 l -5.019e-4,5.02e-4 C 7.4819475,5.4336127 7.3830003,5.3252991 7.3101575,5.2337772 7.2485309,5.1553363 7.2132684,5.0969637 7.1478935,4.9867639 7.090009,4.891515 7.0131781,4.7366774 6.8936458,4.572319 6.7722423,4.4079618 6.708751,4.3444315 6.5499981,4.2379726 6.4267237,4.1557909 6.2978398,4.1127819 6.1091979,4.0679571 6.0400896,4.0511553 5.905678,4.0382337 5.8048234,4.0307508 v -0.012919 c 0.085918,-0.00212 0.1888264,-0.00562 0.2149734,-0.0093 0.048567,-0.00748 0.1604042,-0.019047 0.3172936,-0.071313 0.1083299,-0.035507 0.2145529,-0.098834 0.2687179,-0.1436603 0.076577,-0.065367 0.1327866,-0.1272738 0.1906861,-0.2206592 0.05605,-0.091522 0.099075,-0.1903172 0.1364258,-0.2837026 0.041084,-0.1027244 0.071083,-0.1790257 0.102836,-0.253732 0.026119,-0.063533 0.091238,-0.1757165 0.1229896,-0.2242759 0.044826,-0.06911 0.1476558,-0.1941232 0.2092899,-0.2408116 0.067274,-0.048567 0.067368,-0.048641 0.1850015,-0.1121385 0,0 -0.1326699,-0.076926 -0.194304,-0.1198888 C 7.248541,2.2561755 7.1119383,2.0900501 7.0559098,2.0246752 6.9755978,1.9294262 6.9162351,1.8584407 6.8228497,1.7631917 6.7462723,1.6847433 6.6042798,1.565561 6.4156392,1.46657 6.2923647,1.4012026 6.0007563,1.3019518 5.8756195,1.2701992 c -0.0168,-0.00353 -0.042734,-0.00734 -0.065111,-0.012919 0.014965,-0.1101998 0.055884,-0.1777833 0.095085,-0.2263427 0.050402,-0.0635328 0.1366002,-0.10801623 0.1963707,-0.13229215 0.084045,-0.0336023 0.1398379,-0.0412019 0.2687167,-0.0542603 0.095249,-0.009324 0.2707847,0.0113693 0.2707847,0.0113693 L 6.3277891,0.4521616 6.3241791,0.4578466 C 6.2830951,0.489613 6.2477251,0.5066557 6.2141086,0.5084903 6.1337966,0.5120163 6.0643646,0.450331 6.0606301,0.36999772 6.0585101,0.30653652 6.0776911,0.27311242 6.1262581,0.2320209 l 0.00361,-0.002071 z M 3.4044427,1.6257407 c 0.050401,0.00212 0.1007855,0.00329 0.1493449,0.00724 0.127009,0.011219 0.2801688,0.056173 0.4408002,0.1271245 0.1886407,0.080318 0.3601846,0.2744014 0.3601846,0.2744014 0,0 0.1309294,-0.10802 0.2149746,-0.1565794 0.084054,-0.050403 0.1532865,-0.08417 0.3064413,-0.1271245 0.1104319,-0.030564 0.2604494,-0.058539 0.4563019,-0.041341 v 0.9317259 c 0,0.084046 0.00212,0.5847516 0,0.6407877 -0.00212,0.1064589 -0.029967,0.2445838 -0.078547,0.3622526 -0.022448,0.05605 -0.060062,0.115774 -0.1142054,0.1886181 0,0 -0.00207,-5.27e-5 -0.00207,0.00207 H 4.543905 c 0.00212,-0.011219 0.00221,-0.025822 0.00361,-0.035141 0.01306,-0.091514 0.046509,-0.1643309 0.046509,-0.1643309 0,0 -0.013159,-0.00786 -0.078548,-0.037723 C 4.4146258,3.5491552 4.3287045,3.4856425 4.2539969,3.418404 4.0821631,3.2596512 3.9590706,3.024582 3.8974302,2.8789026 3.8338987,2.7313522 3.7182502,2.4172737 3.6566173,2.2753214 3.5968254,2.1389809 3.4586014,1.765832 3.4044364,1.6257495 Z m -0.4873079,0.048059 c 0.041084,0.095249 0.09156,0.205214 0.1214399,0.2687179 0.01306,0.026118 0.028157,0.056316 0.044958,0.089917 l 0.577226,1.314648 c 0.022378,0.1045953 0.037347,0.2204283 0.024287,0.382922 -0.00353,0.039249 -0.011118,0.070888 -0.018603,0.1007692 H 3.1300414 C 3.090792,3.7803706 3.0424962,3.717139 2.9920658,3.6256184 2.9286033,3.5135538 2.8725598,3.3991916 2.8277337,3.2385615 2.767943,3.0293782 2.7549875,2.7756324 2.7512529,2.6747716 c -0.00565,-0.095249 0.011093,-0.7305389 0.027905,-0.9565302 0.024284,-0.00748 0.044463,-0.014577 0.059428,-0.020154 0.020543,-0.00748 0.048674,-0.016806 0.078549,-0.024288 z m 2.8856118,0.162264 C 6.0212775,1.9481282 6.15782,2.1070718 6.2213252,2.1817794 6.3016372,2.2770364 6.3816429,2.4765727 6.402193,2.6241294 6.422734,2.7698088 6.417379,3.0130009 6.322094,3.2333941 6.228709,3.4537873 6.0832225,3.6311691 5.9319375,3.7170854 5.8926895,3.7394644 5.8513065,3.7579324 5.8027462,3.7728964 Z M 2.2691115,1.9838585 c 0.00932,0.1139343 0.020423,0.2575393 0.027906,0.3658693 0.00932,0.168093 0.016966,0.3251555 0.026354,0.5586222 0.011219,0.2334667 0.011056,0.3044849 0.022222,0.5379516 0.00353,0.076577 0.00592,0.268551 0.00776,0.3880897 h -0.0093 c 0,0 -0.1178797,-0.089305 -0.1813836,-0.1658819 C 2.0562075,3.537767 2.0225274,3.4684354 1.9683624,3.3320962 1.9010888,3.1602624 1.8846773,3.0614872 1.8753447,2.859773 1.8678655,2.6561866 1.9477495,2.3667454 2.1419958,2.1145996 2.1812451,2.0660327 2.224293,2.0230865 2.269119,1.9838585 Z m 0.7751466,2.2091676 h 0.0031 c 0.1101934,0.00212 0.7135777,0 0.7322555,0 0.00353,0.00353 0.00745,0.00763 0.0093,0.011369 0.048567,0.054144 0.091537,0.085782 0.1793168,0.2165244 0.074714,0.113928 0.1643885,0.2689199 0.2278937,0.4015258 0.028024,0.05605 0.059743,0.1213809 0.091467,0.1886193 0.018707,0.041084 0.035662,0.080711 0.059945,0.1348747 0.084046,0.1830376 0.1345033,0.2930918 0.2036052,0.4294322 0.070979,0.1363467 0.2597555,0.5245556 0.3307285,0.6702425 0.097117,0.1961101 0.2053075,0.425974 0.3229764,0.6743777 C 5.0890409,6.9178709 4.9770755,6.9011532 4.866882,6.8750338 4.5853303,6.800453 4.3689326,6.5441359 4.3682048,6.5432713 4.3667366,6.5448776 4.1083565,6.827073 3.8457562,6.9220585 3.6234982,7.0023704 3.4998886,7.0132968 3.2514774,6.9721852 3.159963,6.9572193 3.0442167,6.9162659 2.9228145,6.8621147 c 0,-0.00212 5.39e-5,-0.00356 -0.00207,-0.00568 C 2.9020372,6.7555755 2.878001,6.6078845 2.8499478,6.3949592 2.8106998,6.0961238 2.8180484,6.0293585 2.8049887,5.8575246 2.79377,5.7193131 2.812493,5.4090168 2.8199747,5.2932177 2.8274539,5.1774199 2.8646665,4.8691302 2.905758,4.6674161 2.9468419,4.4600963 2.9938201,4.3256332 3.0442505,4.1930273 Z m 1.3239505,2.350244 c 3.7e-6,-5.1e-6 5.019e-4,-5.02e-4 5.019e-4,-5.02e-4 h -5.019e-4 c 0,0 -1.3e-6,5.02e-4 0,5.02e-4 z m 0.1720823,-2.350244 h 0.1886193 c 0.048567,0 0.1026177,0.0038 0.1586462,0.00776 0.014965,0.00565 0.1045251,0.044857 0.1736333,0.097151 0.061627,0.048567 0.085965,0.069112 0.1457271,0.1550295 0.00932,0.00932 0.017038,0.033486 0.026355,0.052192 0.044826,0.1027244 0.091634,0.3062932 0.102836,0.5808439 0.00353,0.1176689 0,0.2054675 0,0.440799 V 5.9877512 L 5.188313,5.7490064 C 5.1509699,5.6798969 5.1007691,5.5884566 5.0503374,5.4932076 4.9550822,5.3139047 4.8822093,5.1792822 4.7981565,5.0074496 4.7029075,4.8169366 4.6188234,4.6378959 4.570264,4.4193725 4.5534635,4.3502643 4.5458676,4.2714707 4.5402909,4.1930298 Z M 2.3399088,4.282943 c 0,0.065369 0.00259,0.1232393 0.00259,0.1643308 0.00353,0.2129178 0.00517,0.2294962 0.00517,0.399459 0.00353,0.3025687 0.00217,0.4206228 -0.00207,0.6092647 -0.00212,0.1849074 -0.00752,0.3305528 -0.00568,0.532267 0,0.1624949 -0.00339,0.3584039 -0.012919,0.5208988 C 2.3120238,6.4979445 2.2953752,6.4847305 2.2804808,6.4735067 2.0040591,6.2512425 1.8936009,6.0383548 1.8226278,5.7862103 1.749785,5.5303299 1.7628372,5.2075574 1.8226278,4.9666216 1.852488,4.8489527 1.9609861,4.6283487 2.1776448,4.4173007 2.2392714,4.3594162 2.293213,4.3165591 2.3399088,4.282943 Z m 3.4664544,0.1178219 c 0.1064664,0.046661 0.2055453,0.096976 0.2914553,0.1679487 0.1101998,0.087781 0.2072809,0.2205727 0.2707848,0.3214273 0.1214034,0.1942462 0.153363,0.4945109 0.1570963,0.6345859 0.00353,0.1045954 -0.026001,0.3831994 -0.1343589,0.6278685 -0.1064602,0.2446779 -0.2074038,0.4071879 -0.5286504,0.5958298 -0.018707,0.011219 -0.03762,0.018587 -0.056327,0.027905 z m -0.4702551,1.5890506 0.00207,0.00361 v 0.059945 l -0.00207,-0.00568 z" />
</svg>
