<svg width="32" height="32" viewBox="0 0 8.467 8.467" xmlns="http://www.w3.org/2000/svg">
  <path style="fill:#000;stroke-width:.186773" d="M5.945 0s-.107.07-.206.153c-.12.1-.273.27-.334.482-.038.133-.07.364-.075.534-.028-.003-.057-.01-.082-.013-.205-.028-.286-.028-.504-.04a7.838 7.838 0 0 0-.508-.014c-.118.002-.31.002-.445.008a4.806 4.806 0 0 0-.52.055c-.012.002-.023.006-.036.006-.043-.116-.086-.224-.11-.286L3.12.89a1.879 1.879 0 0 1-.116-.54c-.006-.123.02-.345.02-.345L2.476.39c.022.034.03.06.031.103a.222.222 0 0 1-.405.136L2.11.64l-.72.5s.27-.05.409 0a.55.55 0 0 1 .323.242c.04.058.065.11.084.172-.07.037-.13.072-.222.132a1.513 1.513 0 0 0-.514.585s-.067-.084-.127-.134c-.082-.064-.112-.092-.222-.148C.994 1.925.88 1.913.88 1.913s.104.179.185.352c.057.124.08.196.099.308.028.167.028.413.028.568 0 .174.016 1.818 0 2.217-.01.266-.004.318-.088.596-.08.262-.351.618-.351.618s.123.03.254-.024a.752.752 0 0 0 .276-.196c.105-.114.189-.288.189-.288s.052.114.078.163c.036.064.077.144.157.249.086.114.166.212.478.444.034.026.068.041.101.064-.022.194-.05.41-.07.526-.038.206-.046.334-.152.506a.932.932 0 0 1-.344.304s-.031.08.131.133a.4.4 0 0 0 .258-.02.564.564 0 0 0 .162-.1.366.366 0 0 0 .118-.22c.013-.134.032-.233.144-.308.123-.08.3.062.3.062l.365-.14-.062-.148a2.651 2.651 0 0 1-.106-.299c.12.032.117.028.254.057.153.031.255.05.435.07.134.015.502.042.642.045.236.004.676-.017.897-.048.063-.008.116-.017.162-.025.079.127.187.286.268.366.119.118.246.215.399.273.222.086.41.082.41.082s-.184-.132-.238-.185c-.063-.061-.127-.123-.207-.226a1.226 1.226 0 0 1-.204-.403c.146-.04.29-.096.39-.142.12-.056.264-.157.348-.239.065-.064.162-.166.252-.288.067-.088.185-.27.24-.356.055-.086.175-.279.218-.344a.819.819 0 0 1 .244-.247c.088-.057.174-.091.174-.091s-.078-.047-.157-.1v.001a1.227 1.227 0 0 1-.247-.246 2.027 2.027 0 0 1-.162-.247c-.058-.095-.135-.25-.254-.415a1.147 1.147 0 0 0-.344-.334 1.278 1.278 0 0 0-.44-.17 2.381 2.381 0 0 0-.305-.037v-.013c.086-.002.189-.006.215-.01.048-.007.16-.019.317-.07a.913.913 0 0 0 .269-.144.88.88 0 0 0 .19-.221c.057-.092.1-.19.137-.284.041-.103.071-.179.103-.254.026-.063.091-.175.123-.224.045-.069.147-.194.209-.24.067-.05.067-.05.185-.113 0 0-.133-.077-.194-.12-.11-.082-.247-.248-.303-.313-.08-.096-.14-.167-.233-.262a1.683 1.683 0 0 0-.407-.296 3.42 3.42 0 0 0-.54-.197c-.017-.003-.043-.007-.065-.013a.435.435 0 0 1 .095-.226.5.5 0 0 1 .196-.132.859.859 0 0 1 .269-.055c.095-.009.27.012.27.012L6.328.452l-.004.006a.205.205 0 0 1-.11.05.147.147 0 0 1-.153-.138c-.002-.063.017-.097.065-.138L6.13.23zm-2.54 1.626c.05.002.1.003.149.007.127.011.28.056.44.127.19.08.36.275.36.275s.132-.109.216-.157c.084-.05.153-.084.306-.127.11-.03.26-.059.456-.042v.932c0 .084.003.585 0 .641a1.07 1.07 0 0 1-.078.362.874.874 0 0 1-.114.189s-.002 0-.002.002h-.594l.004-.035c.013-.092.046-.165.046-.165l-.079-.037a1.115 1.115 0 0 1-.261-.18 1.65 1.65 0 0 1-.357-.54c-.063-.147-.179-.46-.24-.603-.06-.136-.198-.51-.253-.65Zm-.488.048c.041.095.092.205.122.269l.045.09.577 1.314c.022.105.037.22.024.383a.625.625 0 0 1-.019.1H3.13a1.471 1.471 0 0 1-.138-.204 1.63 1.63 0 0 1-.164-.387 2.58 2.58 0 0 1-.077-.564c-.005-.095.011-.73.028-.957l.06-.02a.813.813 0 0 1 .078-.024zm2.886.162c.218.112.355.271.418.346.08.095.16.295.181.442.02.146.015.389-.08.61-.093.22-.239.397-.39.483a.63.63 0 0 1-.13.056Zm-3.534.148c.01.114.02.257.028.366.01.168.017.325.026.558.012.234.011.305.023.538.003.077.006.269.007.388h-.009s-.118-.089-.181-.165c-.107-.131-.14-.2-.195-.337a1.244 1.244 0 0 1-.093-.472c-.007-.204.073-.493.267-.745.04-.049.082-.092.127-.131Zm.775 2.209h.003c.11.002.714 0 .733 0a.05.05 0 0 1 .009.011c.048.055.091.086.18.217.074.114.164.269.227.401l.092.19.06.134c.084.183.134.293.203.43.071.136.26.524.33.67.098.196.206.426.324.674a1.584 1.584 0 0 1-.338-.045c-.282-.075-.498-.33-.499-.332-.001.002-.26.284-.522.38a.985.985 0 0 1-.595.05 1.441 1.441 0 0 1-.328-.11c0-.003 0-.004-.002-.007a9.065 9.065 0 0 1-.071-.461c-.04-.299-.032-.366-.045-.537a5.506 5.506 0 0 1 .1-1.19c.042-.208.089-.342.14-.475Zm1.324 2.35zm.172-2.35h.189c.048 0 .103.004.159.008a.863.863 0 0 1 .173.097.56.56 0 0 1 .146.155c.01.01.017.033.026.052.045.103.092.306.103.581.004.118 0 .205 0 .44v.462l-.148-.239-.138-.256c-.095-.18-.168-.314-.252-.486a2.48 2.48 0 0 1-.228-.588 1.408 1.408 0 0 1-.03-.226Zm-2.2.09.002.164c.004.213.006.23.006.4.003.302.002.42-.002.609-.003.185-.008.33-.006.532 0 .163-.003.359-.013.521l-.047-.035a1.24 1.24 0 0 1-.457-.688 1.713 1.713 0 0 1 0-.82c.03-.117.138-.338.355-.549a1.6 1.6 0 0 1 .162-.134Zm3.466.118c.107.046.206.097.292.168.11.087.207.22.27.321.122.194.154.495.158.635.003.104-.026.383-.135.628-.106.244-.207.407-.528.595-.019.012-.038.019-.057.028zm-.47 1.589.002.003v.06l-.002-.005z"/>
</svg>