<svg id="Camada_1" data-name="Camada 1" xmlns="http://www.w3.org/2000/svg" viewBox="0 0 200 80"><path d="M.89,1.52,0,2.42V31.69C0,63.17,0,62.12,1.34,65.85A22,22,0,0,0,15.7,78.79a15.64,15.64,0,0,0,5.47.58c5,0,6.86-.71,14.15-5.16C46.26,67.53,48.26,66,50.47,62.33a19.94,19.94,0,0,0,3-11.21,20.49,20.49,0,0,0-4.81-13.57c-2.29-2.76-4.26-4.07-12.6-8.39C27.53,24.72,27,24.56,25.51,26s-1.42,1.81,1.95,10.36c1.65,4.26,3.23,8.05,3.52,8.41.87,1.19,2,1.74,6.89,3.45,2.63.89,4.68,1.74,4.55,1.87S19.2,64,19,64s-.13-11.39-.16-25.33l-.08-25.3-.6-1.47C17.09,9.2,15.86,8.15,7.13,2.55,4.55.89,3.94.63,3,.63A2.34,2.34,0,0,0,.89,1.52Z"/><path d="M118.37,15.41a4.45,4.45,0,0,0-3.79,4.6c0,3.45,3.74,5.58,7.08,4a4.43,4.43,0,0,0,1.86-6.6A4.77,4.77,0,0,0,118.37,15.41Z"/><path d="M77.05,40.08V63.75h9c5,0,9.76-.14,10.71-.29,6-1,10.39-4.26,12.17-9.16a11.21,11.21,0,0,0,.53-4.36c0-3.42-.53-5.16-2.29-7.31s-3.44-3.11-7.76-4.29c-.18-.08.48-.52,1.48-1a13.27,13.27,0,0,0,5.55-5.58c.63-1.37.71-1.81.71-4.42s-.08-3.05-.71-4.39a10.53,10.53,0,0,0-5-4.81c-3.18-1.55-4.41-1.71-15-1.71H77.05ZM94.49,23.59c3.37,1.08,4.76,3.76,3.84,7.41a6.69,6.69,0,0,1-3.71,4.08c-1.18.53-2,.63-5.26.74l-3.89.1v-13l3.89.16A26.23,26.23,0,0,1,94.49,23.59Zm1.79,19.75a7.78,7.78,0,0,1,3.94,3.42,7.34,7.34,0,0,1,.5,2.94A6.17,6.17,0,0,1,98,55.25c-2,1.4-3.39,1.66-8.23,1.66H85.47V42.65l4.81.11C93.94,42.86,95.36,43,96.28,43.34Z"/><path d="M145.83,29.51a11.92,11.92,0,0,0-5.29,3l-1.39,1.37-.08-2.11-.08-2.1-4-.08-4-.08V63.75h8.12l.08-11.13c.08-10.7.11-11.15.63-12.31a9.49,9.49,0,0,1,3.63-4,9,9,0,0,1,5.42-.47,6.2,6.2,0,0,1,3.84,3.94c.42,1.29.47,2.74.58,12.71l.08,11.23h8.18l-.14-12.31c-.08-10.42-.15-12.55-.55-14-1-3.73-3.23-6.54-6.15-7.68A18,18,0,0,0,145.83,29.51Z"/><path d="M178,29.58c-5.15,1.35-9,5.71-10.54,11.94a28.86,28.86,0,0,0,0,12.1,14.44,14.44,0,0,0,3.79,6.73c2.55,2.55,5.47,3.66,9.67,3.66s7.18-1.08,9.66-3.55L192,59v1.23c0,5-2,8.63-5.6,10.34-4.21,2-10.84,1.42-15.2-1.24a9.94,9.94,0,0,0-1.66-.89,24.23,24.23,0,0,0-.16,3.84v3.81l.92.4c2.76,1.15,5.39,1.52,10.39,1.52,4.55,0,5,0,7.23-.73a15,15,0,0,0,6.92-3.95,11.8,11.8,0,0,0,3.08-4.21c2.1-4.39,2.1-4.36,2.1-23V29.69l-4-.08-4-.08v3.53L190.82,32a11.6,11.6,0,0,0-2.23-1.61A15.88,15.88,0,0,0,178,29.58Zm9.39,6.76a9,9,0,0,1,3.71,3.82c.71,1.34.71,1.44.71,6.1s0,4.76-.77,6.39a9.41,9.41,0,0,1-4.78,4.63,10.25,10.25,0,0,1-5.68,0c-4-1.34-6-6.21-5.26-12.36.63-4.92,2.39-7.66,5.68-8.84A9.61,9.61,0,0,1,187.43,36.34Z"/><path d="M115.37,29.74c-.1.08-.18,7.79-.18,17.1V63.75h8.15V29.56h-3.89A24.86,24.86,0,0,0,115.37,29.74Z"/></svg>