<?xml version="1.0" encoding="UTF-8" standalone="no"?>
<!DOCTYPE svg PUBLIC "-//W3C//DTD SVG 1.1//EN" "http://www.w3.org/Graphics/SVG/1.1/DTD/svg11.dtd">
<!-- Created with Vectornator (http://vectornator.io/) -->
<svg height="100%" stroke-miterlimit="10" style="fill-rule:nonzero;clip-rule:evenodd;stroke-linecap:round;stroke-linejoin:round;" version="1.1" viewBox="0 0 250 80" width="100%" xml:space="preserve" xmlns="http://www.w3.org/2000/svg" xmlns:xlink="http://www.w3.org/1999/xlink">
<defs/>
<path d="M0 0L250 0L250 80L0 80L0 0Z" fill="#000000" fill-opacity="0" fill-rule="nonzero" opacity="1" stroke="none"/>
<g id="Sem-Título">
<g opacity="1">
<g opacity="1">
<path d="M18.4167 20.4947L0 20.4947L0 38.9114L18.4167 38.9114L18.4167 20.4947Z" fill="#000000" fill-rule="nonzero" opacity="1" stroke="none"/>
<path d="M38.8333 20.4947L20.3333 20.4947L20.3333 38.9114L38.75 38.9114L38.8333 20.4947Z" fill="#000000" fill-rule="nonzero" opacity="1" stroke="none"/>
<path d="M18.4167 40.8281L0 40.8281L0 59.2447L18.4167 59.2447L18.4167 40.8281Z" fill="#000000" fill-rule="nonzero" opacity="1" stroke="none"/>
<path d="M38.8333 40.8281L20.3333 40.8281L20.3333 59.2447L38.75 59.2447L38.8333 40.8281Z" fill="#000000" fill-rule="nonzero" opacity="1" stroke="none"/>
</g>
<g opacity="1">
<path d="M75.6667 28.2447L75.6667 51.4947L71.6667 51.4947L71.6667 33.2447L71.5833 33.2447L64.4167 51.4947L61.6667 51.4947L54.25 33.2447L54.1667 33.2447L54.1667 51.4947L50.4167 51.4947L50.4167 28.2447L56.25 28.2447L62.9167 45.4947L63 45.4947L70.0833 28.2447L75.6667 28.2447ZM79 29.9947C79 29.3281 79.25 28.8281 79.75 28.3281C80.25 27.9114 80.75 27.6614 81.4167 27.6614C82.75 27.6614 83.75 28.6614 83.8333 29.9114L83.8333 29.9114C83.8333 30.5781 83.5833 31.0781 83.1667 31.5781C82.75 31.9947 82.1667 32.2447 81.5 32.2447C80.8333 32.2447 80.25 31.9947 79.8333 31.5781C79.25 31.1614 79 30.6614 79 29.9947L79 29.9947ZM83.4167 34.8281L83.4167 51.4947L79.5 51.4947L79.5 34.8281L83.4167 34.8281ZM95.3333 48.6614C95.9167 48.6614 96.5833 48.4947 97.25 48.2447C98 47.9947 98.5833 47.5781 99.1667 47.1614L99.1667 50.8281C98.5833 51.1614 97.8333 51.4947 97.0833 51.6614C96.25 51.8281 95.3333 51.9114 94.4167 51.9114C92.1667 51.9947 90 51.1614 88.4167 49.5781C86.9167 47.9947 86.0833 45.8281 86.1667 43.6614C86.1667 40.9947 86.9167 38.7447 88.5 36.9947C90.0833 35.2447 92.25 34.4114 95.1667 34.4114C96.5833 34.4114 97.9167 34.7447 99.1667 35.3281L99.1667 39.1614C98.5833 38.7447 98 38.4114 97.3333 38.1614C96.75 37.9114 96.0833 37.8281 95.4167 37.8281C93.8333 37.8281 92.5833 38.3281 91.6667 39.3281C90.75 40.3281 90.25 41.6614 90.25 43.4114C90.25 45.0781 90.75 46.4114 91.6667 47.3281C92.5 48.2447 93.75 48.6614 95.3333 48.6614L95.3333 48.6614ZM110.333 34.5781C110.833 34.5781 111.333 34.6614 111.833 34.8281L111.833 38.8281C111.167 38.4114 110.333 38.1614 109.5 38.1614C108.5 38.1614 107.75 38.5781 107.083 39.4114C106.417 40.2447 106.083 41.4947 106.083 43.1614L106.083 51.5781L102.167 51.5781L102.167 34.8281L106.083 34.8281L106.083 37.4947L106.167 37.4947C106.5 36.5781 107.083 35.8281 107.833 35.3281C108.5 34.8281 109.333 34.5781 110.333 34.5781L110.333 34.5781ZM112.083 43.4114C112.083 40.6614 112.833 38.4947 114.417 36.8281C116 35.2447 118.167 34.4114 120.917 34.4114C123.5 34.4114 125.583 35.1614 127 36.7447C128.5 38.3281 129.167 40.4114 129.167 43.0781C129.167 45.7447 128.417 47.9114 126.833 49.4947C125.167 51.1614 122.833 51.9947 120.5 51.9114C117.917 51.9114 115.833 51.1614 114.333 49.6614C112.75 47.9947 111.917 45.7447 112.083 43.4114ZM116.167 43.3281C116.167 45.0781 116.583 46.4114 117.333 47.3281C118.167 48.2447 119.25 48.6614 120.75 48.6614C122.167 48.6614 123.25 48.2447 124 47.3281C124.75 46.4114 125.167 45.0781 125.167 43.2447C125.167 41.4947 124.75 40.0781 124 39.1614C123.167 38.2447 122 37.7447 120.75 37.7447C119.333 37.7447 118.167 38.2447 117.417 39.1614C116.583 40.1614 116.167 41.5781 116.167 43.3281ZM135.083 39.2447C135.083 39.8281 135.25 40.2447 135.583 40.5781C135.917 40.9114 136.75 41.3281 137.917 41.7447C139.5 42.4114 140.583 43.0781 141.25 43.8281C141.917 44.6614 142.167 45.5781 142.167 46.6614C142.167 48.2447 141.583 49.4947 140.333 50.4114C139.083 51.3281 137.5 51.8281 135.417 51.8281C133.917 51.8281 132.417 51.4947 131 50.9114L131 47.0781C131.75 47.5781 132.5 47.9947 133.333 48.2447C134.167 48.5781 134.917 48.6614 135.583 48.6614C136.5 48.6614 137.167 48.4947 137.583 48.3281C138 48.0781 138.25 47.6614 138.25 47.0781C138.25 46.4947 138 46.0781 137.583 45.6614C137.167 45.3281 136.333 44.8281 135.083 44.3281C133.667 43.7447 132.583 43.0781 132 42.2447C131.417 41.4947 131.083 40.5781 131.083 39.3281C131.083 37.8281 131.667 36.5781 132.833 35.5781C134.083 34.5781 135.583 34.0781 137.5 34.0781C138.833 34.0781 140.083 34.3281 141.25 34.8281L141.25 38.5781C140.75 38.2447 140.083 37.9114 139.417 37.6614C138.75 37.4114 138.083 37.3281 137.333 37.3281C136.583 37.3281 136 37.4947 135.583 37.7447C135.25 38.2447 135 38.7447 135.083 39.2447L135.083 39.2447ZM143.917 43.4114C143.917 40.6614 144.667 38.4947 146.25 36.8281C148 35.1614 150.333 34.2447 152.75 34.4114C155.333 34.4114 157.417 35.1614 158.833 36.7447C160.333 38.3281 161 40.4114 161 43.0781C161 45.7447 160.25 47.9114 158.667 49.4947C157 51.1614 154.667 51.9947 152.333 51.9114C149.75 51.9114 147.667 51.1614 146.167 49.6614C144.583 47.9947 143.75 45.7447 143.917 43.4114ZM148 43.3281C148 45.0781 148.417 46.4114 149.167 47.3281C150 48.2447 151.083 48.6614 152.583 48.6614C154 48.6614 155.083 48.2447 155.833 47.3281C156.583 46.4114 157 45.0781 157 43.2447C157 41.4947 156.583 40.0781 155.833 39.1614C155 38.2447 153.833 37.7447 152.583 37.7447C151.167 37.7447 150 38.2447 149.25 39.1614C148.333 40.4114 147.917 41.8281 148 43.3281ZM174.083 38.0781L168.25 38.0781L168.25 51.5781L164.25 51.5781L164.25 38.0781L161.417 38.0781L161.417 34.8281L164.25 34.8281L164.25 32.4947C164.167 29.3281 166.583 26.5781 169.833 26.4947C170 26.4947 170.167 26.4947 170.333 26.4947C170.833 26.4947 171.25 26.4947 171.583 26.5781C171.917 26.6614 172.25 26.7447 172.583 26.8281L172.583 30.2447C172 29.9947 171.417 29.8281 170.833 29.8281C170 29.8281 169.333 30.0781 168.917 30.5781C168.5 31.0781 168.25 31.8281 168.25 32.8281L168.25 34.8281L174.083 34.8281L174.083 31.0781L178 29.9114L178 34.8281L182 34.8281L182 37.9947L178 37.9947L178 45.8281C178 46.8281 178.167 47.5781 178.583 47.9947C178.917 48.4114 179.583 48.6614 180.333 48.6614C180.917 48.5781 181.5 48.4114 182 48.0781L182 51.3281C181.75 51.4947 181.333 51.5781 180.75 51.7447C180.167 51.8281 179.583 51.9114 179 51.9114C177.333 51.9114 176.083 51.4947 175.25 50.5781C174.417 49.6614 174 48.3281 174 46.5781L174.083 38.0781L174.083 38.0781Z" fill="#000000" fill-rule="nonzero" opacity="1" stroke="none"/>
<path d="M191 51.7447L191 28.7447L198.333 28.7447C200.583 28.7447 202.333 29.2447 203.667 30.2447C205 31.2447 205.583 32.4947 205.583 34.0781C205.583 35.4114 205.25 36.4947 204.5 37.4947C203.75 38.4947 202.667 39.1614 201.417 39.5781L201.417 39.6614C203 39.8281 204.25 40.4114 205.167 41.4114C206.167 42.4114 206.583 43.6614 206.583 45.2447C206.583 47.2447 205.833 48.8281 204.25 49.9947C202.667 51.1614 200.75 51.8281 198.333 51.8281L191 51.8281L191 51.7447ZM194.75 31.8281L194.75 38.3281L197.25 38.3281C198.583 38.3281 199.583 37.9947 200.333 37.4114C201.083 36.7447 201.5 35.9114 201.5 34.7447C201.5 32.7447 200.167 31.8281 197.583 31.8281L194.75 31.8281ZM194.75 41.4114L194.75 48.6614L198 48.6614C199.417 48.6614 200.5 48.3281 201.333 47.6614C202.083 46.9947 202.5 46.0781 202.5 44.9114C202.5 42.4947 200.833 41.3281 197.583 41.3281L194.75 41.3281L194.75 41.4114ZM211.25 31.8281C210.667 31.8281 210.083 31.5781 209.667 31.2447C209.25 30.8281 209 30.3281 209 29.7447C209 29.1614 209.25 28.6614 209.667 28.2447C210.083 27.8281 210.667 27.6614 211.25 27.6614C211.833 27.6614 212.417 27.8281 212.833 28.2447C213.25 28.6614 213.5 29.1614 213.5 29.7447C213.5 30.3281 213.25 30.8281 212.833 31.2447C212.417 31.6614 211.833 31.8281 211.25 31.8281L211.25 31.8281ZM213.083 51.7447L209.333 51.7447L209.333 35.3281L213.083 35.3281L213.083 51.7447ZM231.5 51.7447L227.75 51.7447L227.75 42.4947C227.75 39.4114 226.667 37.9114 224.5 37.9114C223.333 37.9114 222.417 38.3281 221.667 39.2447C220.917 40.1614 220.5 41.2447 220.583 42.4114L220.583 51.8281L216.833 51.8281L216.833 35.3281L220.583 35.3281L220.583 38.0781L220.667 38.0781C221.667 36.0781 223.75 34.9114 226 34.9947C227.75 34.9947 229.167 35.5781 230.083 36.7447C231 37.9114 231.5 39.5781 231.5 41.7447L231.5 51.7447ZM250 50.4114C250 56.4114 247 59.4947 240.917 59.4947C239 59.5781 237.083 59.1614 235.333 58.4114L235.333 54.9947C237.083 55.9947 238.833 56.5781 240.417 56.5781C244.333 56.5781 246.25 54.6614 246.25 50.8281L246.25 49.0781L246.167 49.0781C245.083 51.0781 242.917 52.3281 240.583 52.2447C238.75 52.3281 236.917 51.4947 235.75 50.0781C234.417 48.4114 233.833 46.3281 233.917 44.1614C233.917 41.3281 234.583 39.1614 235.917 37.4947C237.25 35.8281 239 34.9947 241.333 34.9947C243.5 34.9947 245.083 35.9114 246.167 37.6614L246.25 37.6614L246.25 35.4114L250 35.4114L250 50.4114ZM246.333 44.2447L246.333 42.0781C246.333 40.9114 245.917 39.9114 245.167 39.1614C244.417 38.3281 243.417 37.9114 242.333 37.9114C240.917 37.9114 239.833 38.4114 239 39.4947C238.167 40.7447 237.667 42.3281 237.833 43.8281C237.833 45.4947 238.25 46.7447 239 47.7447C239.75 48.7447 240.75 49.1614 242.083 49.1614C243.417 49.1614 244.417 48.6614 245.25 47.7447C245.917 46.8281 246.333 45.6614 246.333 44.2447L246.333 44.2447Z" fill="#000000" fill-rule="nonzero" opacity="1" stroke="none"/>
</g>
</g>
</g>
</svg>
