<?xml version="1.0" encoding="utf-8"?>
<!-- Generator: Adobe Illustrator 24.3.0, SVG Export Plug-In . SVG Version: 6.00 Build 0)  -->
<svg version="1.1" id="Camada_1" xmlns="http://www.w3.org/2000/svg" xmlns:xlink="http://www.w3.org/1999/xlink" x="0px" y="0px"
	 viewBox="0 0 300 120" style="enable-background:new 0 0 300 120;" xml:space="preserve">
<g>
	<path d="M22.1,36.6H0v22.1h22.1V36.6z"/>
	<path d="M46.6,36.6H24.4v22.1h22.1L46.6,36.6z"/>
	<path d="M22.1,61H0v22.1h22.1V61z"/>
	<path d="M46.6,61H24.4v22.1h22.1L46.6,61z"/>
</g>
<g>
	<path d="M90.8,45.9v27.9H86V51.9h-0.1l-8.6,21.9H74l-8.9-21.9H65v21.9h-4.5V45.9h7l8,20.7h0.1l8.5-20.7H90.8z M94.8,48
		c0-0.8,0.3-1.4,0.9-2c0.6-0.5,1.2-0.8,2-0.8c1.6,0,2.8,1.2,2.9,2.7c0,0,0,0,0,0c0,0.8-0.3,1.4-0.8,2c-0.5,0.5-1.2,0.8-2,0.8
		s-1.5-0.3-2-0.8C95.1,49.4,94.8,48.8,94.8,48L94.8,48z M100.1,53.8v20h-4.7v-20H100.1z M114.4,70.4c0.7,0,1.5-0.2,2.3-0.5
		c0.9-0.3,1.6-0.8,2.3-1.3V73c-0.7,0.4-1.6,0.8-2.5,1c-1,0.2-2.1,0.3-3.2,0.3c-2.7,0.1-5.3-0.9-7.2-2.8c-1.8-1.9-2.8-4.5-2.7-7.1
		c0-3.2,0.9-5.9,2.8-8c1.9-2.1,4.5-3.1,8-3.1c1.7,0,3.3,0.4,4.8,1.1V59c-0.7-0.5-1.4-0.9-2.2-1.2c-0.7-0.3-1.5-0.4-2.3-0.4
		c-1.9,0-3.4,0.6-4.5,1.8s-1.7,2.8-1.7,4.9c0,2,0.6,3.6,1.7,4.7C111,69.9,112.5,70.4,114.4,70.4L114.4,70.4z M132.4,53.5
		c0.6,0,1.2,0.1,1.8,0.3v4.8c-0.8-0.5-1.8-0.8-2.8-0.8c-1.2,0-2.1,0.5-2.9,1.5c-0.8,1-1.2,2.5-1.2,4.5v10.1h-4.7V53.8h4.7V57h0.1
		c0.4-1.1,1.1-2,2-2.6C130.2,53.8,131.2,53.5,132.4,53.5L132.4,53.5z M134.5,64.1c0-3.3,0.9-5.9,2.8-7.9c1.9-1.9,4.5-2.9,7.8-2.9
		c3.1,0,5.6,0.9,7.3,2.8c1.8,1.9,2.6,4.4,2.6,7.6c0,3.2-0.9,5.8-2.8,7.7c-2,2-4.8,3-7.6,2.9c-3.1,0-5.6-0.9-7.4-2.7
		C135.3,69.6,134.3,66.9,134.5,64.1z M139.4,64c0,2.1,0.5,3.7,1.4,4.8c1,1.1,2.3,1.6,4.1,1.6c1.7,0,3-0.5,3.9-1.6
		c0.9-1.1,1.4-2.7,1.4-4.9c0-2.1-0.5-3.8-1.4-4.9c-1-1.1-2.4-1.7-3.9-1.7c-1.7,0-3.1,0.6-4,1.7C139.9,60.2,139.4,61.9,139.4,64z
		 M162.1,59.1c0,0.7,0.2,1.2,0.6,1.6c0.4,0.4,1.4,0.9,2.8,1.4c1.9,0.8,3.2,1.6,4,2.5c0.8,1,1.1,2.1,1.1,3.4c0,1.9-0.7,3.4-2.2,4.5
		s-3.4,1.7-5.9,1.7c-1.8,0-3.6-0.4-5.3-1.1v-4.6c0.9,0.6,1.8,1.1,2.8,1.4c1,0.4,1.9,0.5,2.7,0.5c1.1,0,1.9-0.2,2.4-0.4
		c0.5-0.3,0.8-0.8,0.8-1.5c0-0.7-0.3-1.2-0.8-1.7c-0.5-0.4-1.5-1-3-1.6c-1.7-0.7-3-1.5-3.7-2.5c-0.7-0.9-1.1-2-1.1-3.5
		c0-1.8,0.7-3.3,2.1-4.5c1.5-1.2,3.3-1.8,5.6-1.8c1.6,0,3.1,0.3,4.5,0.9v4.5c-0.6-0.4-1.4-0.8-2.2-1.1c-0.8-0.3-1.6-0.4-2.5-0.4
		c-0.9,0-1.6,0.2-2.1,0.5C162.3,57.9,162,58.5,162.1,59.1L162.1,59.1z M172.7,64.1c0-3.3,0.9-5.9,2.8-7.9c2.1-2,4.9-3.1,7.8-2.9
		c3.1,0,5.6,0.9,7.3,2.8c1.8,1.9,2.6,4.4,2.6,7.6c0,3.2-0.9,5.8-2.8,7.7c-2,2-4.8,3-7.6,2.9c-3.1,0-5.6-0.9-7.4-2.7
		C173.5,69.6,172.5,66.9,172.7,64.1z M177.6,64c0,2.1,0.5,3.7,1.4,4.8c1,1.1,2.3,1.6,4.1,1.6c1.7,0,3-0.5,3.9-1.6
		c0.9-1.1,1.4-2.7,1.4-4.9c0-2.1-0.5-3.8-1.4-4.9c-1-1.1-2.4-1.7-3.9-1.7c-1.7,0-3.1,0.6-4,1.7C178,60.5,177.5,62.2,177.6,64z
		 M208.9,57.7h-7v16.2h-4.8V57.7h-3.4v-3.9h3.4V51c-0.1-3.8,2.8-7.1,6.7-7.2c0.2,0,0.4,0,0.6,0c0.6,0,1.1,0,1.5,0.1
		c0.4,0.1,0.8,0.2,1.2,0.3v4.1c-0.7-0.3-1.4-0.5-2.1-0.5c-1,0-1.8,0.3-2.3,0.9c-0.5,0.6-0.8,1.5-0.8,2.7v2.4h7v-4.5l4.7-1.4v5.9h4.8
		v3.8h-4.8V67c0,1.2,0.2,2.1,0.7,2.6c0.4,0.5,1.2,0.8,2.1,0.8c0.7-0.1,1.4-0.3,2-0.7v3.9c-0.3,0.2-0.8,0.3-1.5,0.5
		c-0.7,0.1-1.4,0.2-2.1,0.2c-2,0-3.5-0.5-4.5-1.6c-1-1.1-1.5-2.7-1.5-4.8L208.9,57.7L208.9,57.7z"/>
	<path d="M229.2,74.1V46.5h8.8c2.7,0,4.8,0.6,6.4,1.8c1.6,1.2,2.3,2.7,2.3,4.6c0,1.6-0.4,2.9-1.3,4.1c-0.9,1.2-2.2,2-3.7,2.5v0.1
		c1.9,0.2,3.4,0.9,4.5,2.1c1.2,1.2,1.7,2.7,1.7,4.6c0,2.4-0.9,4.3-2.8,5.7c-1.9,1.4-4.2,2.2-7.1,2.2H229.2z M233.7,50.2V58h3
		c1.6,0,2.8-0.4,3.7-1.1c0.9-0.8,1.4-1.8,1.4-3.2c0-2.4-1.6-3.5-4.7-3.5H233.7z M233.7,61.7v8.7h3.9c1.7,0,3-0.4,4-1.2
		c0.9-0.8,1.4-1.9,1.4-3.3c0-2.9-2-4.3-5.9-4.3H233.7z M253.5,50.2c-0.7,0-1.4-0.3-1.9-0.7c-0.5-0.5-0.8-1.1-0.8-1.8
		s0.3-1.3,0.8-1.8c0.5-0.5,1.2-0.7,1.9-0.7s1.4,0.2,1.9,0.7c0.5,0.5,0.8,1.1,0.8,1.8c0,0.7-0.3,1.3-0.8,1.8
		C254.9,50,254.2,50.2,253.5,50.2L253.5,50.2z M255.7,74.1h-4.5V54.4h4.5L255.7,74.1z M277.8,74.1h-4.5V63c0-3.7-1.3-5.5-3.9-5.5
		c-1.4,0-2.5,0.5-3.4,1.6c-0.9,1.1-1.4,2.4-1.3,3.8v11.3h-4.5V54.4h4.5v3.3h0.1c1.2-2.4,3.7-3.8,6.4-3.7c2.1,0,3.8,0.7,4.9,2.1
		c1.1,1.4,1.7,3.4,1.7,6V74.1z M300,72.5c0,7.2-3.6,10.9-10.9,10.9c-2.3,0.1-4.6-0.4-6.7-1.3V78c2.1,1.2,4.2,1.9,6.1,1.9
		c4.7,0,7-2.3,7-6.9v-2.1h-0.1c-1.3,2.4-3.9,3.9-6.7,3.8c-2.2,0.1-4.4-0.9-5.8-2.6c-1.6-2-2.3-4.5-2.2-7.1c0-3.4,0.8-6,2.4-8
		c1.6-2,3.7-3,6.5-3c2.6,0,4.5,1.1,5.8,3.2h0.1v-2.7h4.5L300,72.5z M295.6,65.1v-2.6c0-1.4-0.5-2.6-1.4-3.5c-0.9-1-2.1-1.5-3.4-1.5
		c-1.7,0-3,0.6-4,1.9c-1,1.5-1.6,3.4-1.4,5.2c0,2,0.5,3.5,1.4,4.7c0.9,1.2,2.1,1.7,3.7,1.7c1.6,0,2.8-0.6,3.8-1.7
		C295.1,68.2,295.6,66.8,295.6,65.1L295.6,65.1z"/>
</g>
</svg>
