<?xml version="1.0" encoding="UTF-8"?>
<svg id="svg5" xmlns="http://www.w3.org/2000/svg" xmlns:xlink="http://www.w3.org/1999/xlink" viewBox="0 0 80 80">
  <defs>
    <style>
      .cls-1 {
        clip-path: url(#clippath);
      }

      .cls-2 {
        clip-path: url(#clippath-1);
      }

      .cls-3 {
        clip-path: url(#clippath-2);
      }
    </style>
    <clipPath id="clippath">
      <path d="m58,46.84c0,3.22-1.21,6.31-3.4,8.67.58-.64,1.01-1.41,1.25-2.24.02-.08.04-.16.06-.25,0,0,0-.02,0-.03.02-.08.04-.16.05-.25.02-.09.03-.17.04-.26h0c.04-.27.06-.54.06-.82,0-1.56-.63-3.05-1.75-4.12-.71-.69-1.58-1.18-2.54-1.43h-.01s-.1-.04-.1-.04l-1.48-.51-3.87-1.33s-.03,0-.04,0l-.24-.09c-.78-.31-1.42-.88-1.82-1.61l-1.41-3.61-1.62-4.14-.31-.8-.08-.16c-.09-.22-.14-.46-.14-.7,0-.06,0-.13,0-.18.1-.99.99-1.71,1.99-1.61.17.02.35.06.51.13l7.2,3.71,1.42.73c.75.45,1.45.98,2.09,1.57,2.62,2.41,4.11,5.81,4.1,9.38h0Z"/>
    </clipPath>
    <clipPath id="clippath-1">
      <path d="m56.07,51.67c0,.37-.04.72-.1,1.07-.07.34-.16.68-.29,1-.03.08-.07.16-.1.24-.25.55-.58,1.07-.98,1.52-1.05,1.17-4.61,3.24-5.93,4.09l-2.92,1.79c-2.14,1.32-4.16,2.26-6.7,2.32h-.36c-4.36,0-8.41-2.24-10.73-5.93-1.02-1.6-1.66-3.42-1.87-5.3.54,3.06,3.45,5.1,6.51,4.56.6-.11,1.18-.31,1.72-.6l.29-.17,1.16-.69,1.48-.88v-.04l.19-.11,13.23-7.86,1.02-.6.1.03h.01c1.23.32,2.31,1.04,3.09,2.04.78,1.01,1.2,2.24,1.2,3.52h0Z"/>
    </clipPath>
    <clipPath id="clippath-2">
      <path d="m37.24,25.44v29.27s-1.48.88-1.48.88l-1.16.69-.29.17h-.02c-2.73,1.49-6.14.48-7.62-2.25-.46-.85-.7-1.81-.68-2.77V18.48c0-1.04.85-1.89,1.89-1.88.37,0,.73.11,1.04.32l5.76,3.77s.06.05.1.07c1.54,1.06,2.46,2.81,2.46,4.68h0Z"/>
    </clipPath>
  </defs>
  <g id="g844">
    <g id="path834">
      <g>
        <path d="m58,46.84c0,3.22-1.21,6.31-3.4,8.67.58-.64,1.01-1.41,1.25-2.24.02-.08.04-.16.06-.25,0,0,0-.02,0-.03.02-.08.04-.16.05-.25.02-.09.03-.17.04-.26h0c.04-.27.06-.54.06-.82,0-1.56-.63-3.05-1.75-4.12-.71-.69-1.58-1.18-2.54-1.43h-.01s-.1-.04-.1-.04l-1.48-.51-3.87-1.33s-.03,0-.04,0l-.24-.09c-.78-.31-1.42-.88-1.82-1.61l-1.41-3.61-1.62-4.14-.31-.8-.08-.16c-.09-.22-.14-.46-.14-.7,0-.06,0-.13,0-.18.1-.99.99-1.71,1.99-1.61.17.02.35.06.51.13l7.2,3.71,1.42.73c.75.45,1.45.98,2.09,1.57,2.62,2.41,4.11,5.81,4.1,9.38h0Z"/>
        <g class="cls-1">
          <polygon points="41.48 31.22 40.67 32.64 40.67 31.22 41.48 31.22"/>
          <polygon points="42.74 31.22 40.67 34.82 40.67 32.64 41.48 31.22 42.74 31.22"/>
          <polygon points="44 31.22 40.67 37.01 40.67 34.82 42.74 31.22 44 31.22"/>
          <polygon points="45.25 31.22 40.67 39.19 40.67 37.01 44 31.22 45.25 31.22"/>
          <polygon points="46.51 31.22 40.67 41.38 40.67 39.19 45.25 31.22 46.51 31.22"/>
          <polygon points="46.95 31.22 40.67 42.13 40.67 41.38 46.51 31.22 46.95 31.22"/>
          <polygon points="47.39 31.22 40.67 42.89 40.67 42.13 46.95 31.22 47.39 31.22"/>
          <polygon points="47.82 31.22 40.67 43.65 40.67 42.89 47.39 31.22 47.82 31.22"/>
          <polygon points="48.26 31.22 40.67 44.41 40.67 43.65 47.82 31.22 48.26 31.22"/>
          <polygon points="48.7 31.22 40.67 45.17 40.67 44.41 48.26 31.22 48.7 31.22"/>
          <polygon points="49.13 31.22 40.67 45.93 40.67 45.17 48.7 31.22 49.13 31.22"/>
          <polygon points="49.57 31.22 40.67 46.69 40.67 45.93 49.13 31.22 49.57 31.22"/>
          <polygon points="50.01 31.22 40.67 47.45 40.67 46.69 49.57 31.22 50.01 31.22"/>
          <polygon points="50.44 31.22 40.67 48.21 40.67 47.45 50.01 31.22 50.44 31.22"/>
          <polygon points="50.88 31.22 40.67 48.97 40.67 48.21 50.44 31.22 50.88 31.22"/>
          <polygon points="51.32 31.22 40.67 49.73 40.67 48.97 50.88 31.22 51.32 31.22"/>
          <polygon points="51.56 31.22 40.67 50.16 40.67 49.73 51.32 31.22 51.56 31.22"/>
          <polygon points="51.81 31.22 40.67 50.58 40.67 50.16 51.56 31.22 51.81 31.22"/>
          <polygon points="52.06 31.22 40.67 51.01 40.67 50.58 51.81 31.22 52.06 31.22"/>
          <polygon points="52.3 31.22 40.67 51.44 40.67 51.01 52.06 31.22 52.3 31.22"/>
          <polygon points="52.55 31.22 40.67 51.87 40.67 51.44 52.3 31.22 52.55 31.22"/>
          <polygon points="52.6 31.22 52.74 31.31 40.67 52.29 40.67 51.87 52.55 31.22 52.6 31.22"/>
          <polygon points="52.74 31.31 52.93 31.42 40.71 52.65 40.67 52.62 40.67 52.29 52.74 31.31"/>
          <rect x="34.67" y="41.98" width="24.5" height=".21" transform="translate(-12.96 61.76) rotate(-60.09)"/>
          <rect x="34.85" y="42.08" width="24.5" height=".21" transform="translate(-12.96 61.97) rotate(-60.09)"/>
          <rect x="35.03" y="42.19" width="24.5" height=".21" transform="translate(-12.96 62.19) rotate(-60.09)"/>
          <rect x="35.22" y="42.3" width="24.5" height=".21" transform="translate(-12.96 62.4) rotate(-60.09)"/>
          <rect x="35.4" y="42.4" width="24.5" height=".21" transform="translate(-12.96 62.61) rotate(-60.09)"/>
          <rect x="35.59" y="42.51" width="24.5" height=".21" transform="translate(-12.96 62.83) rotate(-60.09)"/>
          <rect x="35.77" y="42.62" width="24.5" height=".21" transform="translate(-12.96 63.04) rotate(-60.09)"/>
          <rect x="35.96" y="42.72" width="24.5" height=".21" transform="translate(-12.96 63.25) rotate(-60.09)"/>
          <rect x="36.14" y="42.83" width="24.5" height=".21" transform="translate(-12.96 63.47) rotate(-60.09)"/>
          <rect x="36.33" y="42.93" width="24.5" height=".21" transform="translate(-12.96 63.68) rotate(-60.09)"/>
          <rect x="36.51" y="43.04" width="24.5" height=".21" transform="translate(-12.96 63.89) rotate(-60.09)"/>
          <rect x="36.7" y="43.15" width="24.5" height=".21" transform="translate(-12.96 64.11) rotate(-60.09)"/>
          <rect x="36.85" y="43.27" width="24.5" height=".15" transform="translate(-12.95 64.29) rotate(-60.09)"/>
          <rect x="36.98" y="43.34" width="24.5" height=".15" transform="translate(-12.95 64.44) rotate(-60.09)"/>
          <rect x="37.12" y="43.42" width="24.5" height=".15" transform="translate(-12.95 64.59) rotate(-60.09)"/>
          <rect x="37.22" y="43.51" width="24.5" height=".1" transform="translate(-12.95 64.72) rotate(-60.09)"/>
          <rect x="37.31" y="43.56" width="24.5" height=".1" transform="translate(-12.95 64.82) rotate(-60.09)"/>
          <rect x="37.4" y="43.61" width="24.5" height=".1" transform="translate(-12.95 64.92) rotate(-60.09)"/>
          <rect x="37.49" y="43.66" width="24.5" height=".1" transform="translate(-12.95 65.02) rotate(-60.09)"/>
          <rect x="37.58" y="43.71" width="24.5" height=".1" transform="translate(-12.95 65.13) rotate(-60.09)"/>
          <rect x="37.67" y="43.76" width="24.5" height=".1" transform="translate(-12.95 65.23) rotate(-60.09)"/>
          <rect x="37.76" y="43.81" width="24.5" height=".1" transform="translate(-12.95 65.33) rotate(-60.09)"/>
          <rect x="37.85" y="43.86" width="24.5" height=".1" transform="translate(-12.95 65.43) rotate(-60.09)"/>
          <rect x="37.93" y="43.91" width="24.5" height=".1" transform="translate(-12.95 65.54) rotate(-60.09)"/>
          <rect x="38.02" y="43.97" width="24.5" height=".1" transform="translate(-12.95 65.64) rotate(-60.09)"/>
          <rect x="38.12" y="44.01" width="24.5" height=".11" transform="translate(-12.95 65.75) rotate(-60.09)"/>
          <rect x="38.21" y="44.07" width="24.5" height=".11" transform="translate(-12.95 65.86) rotate(-60.09)"/>
          <rect x="38.31" y="44.13" width="24.5" height=".11" transform="translate(-12.95 65.97) rotate(-60.09)"/>
          <rect x="38.41" y="44.18" width="24.5" height=".11" transform="translate(-12.95 66.08) rotate(-60.09)"/>
          <rect x="38.5" y="44.24" width="24.5" height=".11" transform="translate(-12.95 66.19) rotate(-60.09)"/>
          <rect x="38.6" y="44.29" width="24.5" height=".11" transform="translate(-12.95 66.3) rotate(-60.09)"/>
          <rect x="38.7" y="44.35" width="24.5" height=".11" transform="translate(-12.95 66.42) rotate(-60.09)"/>
          <rect x="38.79" y="44.4" width="24.5" height=".11" transform="translate(-12.95 66.53) rotate(-60.09)"/>
          <rect x="38.89" y="44.46" width="24.5" height=".11" transform="translate(-12.95 66.64) rotate(-60.09)"/>
          <rect x="38.99" y="44.51" width="24.5" height=".11" transform="translate(-12.95 66.75) rotate(-60.09)"/>
          <rect x="39.08" y="44.57" width="24.5" height=".11" transform="translate(-12.95 66.86) rotate(-60.09)"/>
          <rect x="39.18" y="44.63" width="24.5" height=".11" transform="translate(-12.95 66.97) rotate(-60.09)"/>
          <rect x="39.28" y="44.68" width="24.5" height=".11" transform="translate(-12.95 67.09) rotate(-60.09)"/>
          <rect x="39.37" y="44.74" width="24.5" height=".11" transform="translate(-12.95 67.2) rotate(-60.09)"/>
          <rect x="39.47" y="44.79" width="24.5" height=".11" transform="translate(-12.95 67.31) rotate(-60.09)"/>
          <polygon points="57.87 34.26 57.97 34.32 45.78 55.51 45.69 55.51 45.66 55.49 57.87 34.26"/>
          <polygon points="57.97 34.32 58.01 34.34 58.01 34.48 45.9 55.51 45.78 55.51 57.97 34.32"/>
          <polygon points="58.01 34.7 46.03 55.51 45.9 55.51 58.01 34.48 58.01 34.7"/>
          <polygon points="58.01 34.92 46.16 55.51 46.03 55.51 58.01 34.7 58.01 34.92"/>
          <polygon points="58.01 35.15 46.29 55.51 46.16 55.51 58.01 34.92 58.01 35.15"/>
          <polygon points="58.01 35.37 46.42 55.51 46.29 55.51 58.01 35.15 58.01 35.37"/>
          <polygon points="58.01 35.59 46.55 55.51 46.42 55.51 58.01 35.37 58.01 35.59"/>
          <polygon points="58.01 35.82 46.68 55.51 46.55 55.51 58.01 35.59 58.01 35.82"/>
          <polygon points="58.01 36.04 46.8 55.51 46.68 55.51 58.01 35.82 58.01 36.04"/>
          <polygon points="58.01 36.26 46.93 55.51 46.8 55.51 58.01 36.04 58.01 36.26"/>
          <polygon points="58.01 36.49 47.06 55.51 46.93 55.51 58.01 36.26 58.01 36.49"/>
          <polygon points="58.01 36.71 47.19 55.51 47.06 55.51 58.01 36.49 58.01 36.71"/>
          <polygon points="58.01 36.94 47.32 55.51 47.19 55.51 58.01 36.71 58.01 36.94"/>
          <polygon points="58.01 37.16 47.45 55.51 47.32 55.51 58.01 36.94 58.01 37.16"/>
          <polygon points="58.01 37.38 47.58 55.51 47.45 55.51 58.01 37.16 58.01 37.38"/>
          <polygon points="58.01 37.61 47.71 55.51 47.58 55.51 58.01 37.38 58.01 37.61"/>
          <polygon points="58.01 37.83 47.83 55.51 47.71 55.51 58.01 37.61 58.01 37.83"/>
          <polygon points="58.01 38.05 47.96 55.51 47.83 55.51 58.01 37.83 58.01 38.05"/>
          <polygon points="58.01 38.28 48.09 55.51 47.96 55.51 58.01 38.05 58.01 38.28"/>
          <polygon points="58.01 38.5 48.22 55.51 48.09 55.51 58.01 38.28 58.01 38.5"/>
          <polygon points="58.01 38.72 48.35 55.51 48.22 55.51 58.01 38.5 58.01 38.72"/>
          <polygon points="58.01 38.95 48.48 55.51 48.35 55.51 58.01 38.72 58.01 38.95"/>
          <polygon points="58.01 39.17 48.61 55.51 48.48 55.51 58.01 38.95 58.01 39.17"/>
          <polygon points="58.01 39.47 48.78 55.51 48.61 55.51 58.01 39.17 58.01 39.47"/>
          <polygon points="58.01 39.77 48.95 55.51 48.78 55.51 58.01 39.47 58.01 39.77"/>
          <polygon points="58.01 40.06 49.12 55.51 48.95 55.51 58.01 39.77 58.01 40.06"/>
          <polygon points="58.01 40.36 49.29 55.51 49.12 55.51 58.01 40.06 58.01 40.36"/>
          <polygon points="58.01 40.66 49.46 55.51 49.29 55.51 58.01 40.36 58.01 40.66"/>
          <polygon points="58.01 40.95 49.63 55.51 49.46 55.51 58.01 40.66 58.01 40.95"/>
          <polygon points="58.01 41.25 49.8 55.51 49.63 55.51 58.01 40.95 58.01 41.25"/>
          <polygon points="58.01 41.55 49.97 55.51 49.8 55.51 58.01 41.25 58.01 41.55"/>
          <polygon points="58.01 41.84 50.14 55.51 49.97 55.51 58.01 41.55 58.01 41.84"/>
          <polygon points="58.01 42.14 50.31 55.51 50.14 55.51 58.01 41.84 58.01 42.14"/>
          <polygon points="58.01 42.44 50.48 55.51 50.31 55.51 58.01 42.14 58.01 42.44"/>
          <polygon points="58.01 42.73 50.66 55.51 50.48 55.51 58.01 42.44 58.01 42.73"/>
          <polygon points="58.01 43.03 50.83 55.51 50.66 55.51 58.01 42.73 58.01 43.03"/>
          <polygon points="58.01 43.33 51 55.51 50.83 55.51 58.01 43.03 58.01 43.33"/>
          <polygon points="58.01 43.62 51.17 55.51 51 55.51 58.01 43.33 58.01 43.62"/>
          <polygon points="58.01 43.92 51.34 55.51 51.17 55.51 58.01 43.62 58.01 43.92"/>
          <polygon points="58.01 44.22 51.51 55.51 51.34 55.51 58.01 43.92 58.01 44.22"/>
          <polygon points="58.01 44.51 51.68 55.51 51.51 55.51 58.01 44.22 58.01 44.51"/>
          <polygon points="58.01 44.81 51.85 55.51 51.68 55.51 58.01 44.51 58.01 44.81"/>
          <polygon points="58.01 45.11 52.02 55.51 51.85 55.51 58.01 44.81 58.01 45.11"/>
          <polygon points="58.01 45.41 52.19 55.51 52.02 55.51 58.01 45.11 58.01 45.41"/>
          <polygon points="58.01 45.7 52.36 55.51 52.19 55.51 58.01 45.41 58.01 45.7"/>
          <polygon points="58.01 46 52.53 55.51 52.36 55.51 58.01 45.7 58.01 46"/>
          <polygon points="58.01 46.47 52.81 55.51 52.53 55.51 58.01 46 58.01 46.47"/>
          <polygon points="58.01 46.94 53.08 55.51 52.81 55.51 58.01 46.47 58.01 46.94"/>
          <polygon points="58.01 47.42 53.35 55.51 53.08 55.51 58.01 46.94 58.01 47.42"/>
          <polygon points="58.01 47.89 53.62 55.51 53.35 55.51 58.01 47.42 58.01 47.89"/>
          <polygon points="58.01 48.36 53.89 55.51 53.62 55.51 58.01 47.89 58.01 48.36"/>
          <polygon points="58.01 48.83 54.16 55.51 53.89 55.51 58.01 48.36 58.01 48.83"/>
          <polygon points="58.01 49.3 54.44 55.51 54.16 55.51 58.01 48.83 58.01 49.3"/>
          <polygon points="58.01 49.78 54.71 55.51 54.44 55.51 58.01 49.3 58.01 49.78"/>
          <polygon points="58.01 50.25 54.98 55.51 54.71 55.51 58.01 49.78 58.01 50.25"/>
          <polygon points="54.98 55.51 58.01 50.25 58.01 55.51 54.98 55.51"/>
        </g>
      </g>
    </g>
    <g id="path836">
      <g>
        <path d="m56.07,51.67c0,.37-.04.72-.1,1.07-.07.34-.16.68-.29,1-.03.08-.07.16-.1.24-.25.55-.58,1.07-.98,1.52-1.05,1.17-4.61,3.24-5.93,4.09l-2.92,1.79c-2.14,1.32-4.16,2.26-6.7,2.32h-.36c-4.36,0-8.41-2.24-10.73-5.93-1.02-1.6-1.66-3.42-1.87-5.3.54,3.06,3.45,5.1,6.51,4.56.6-.11,1.18-.31,1.72-.6l.29-.17,1.16-.69,1.48-.88v-.04l.19-.11,13.23-7.86,1.02-.6.1.03h.01c1.23.32,2.31,1.04,3.09,2.04.78,1.01,1.2,2.24,1.2,3.52h0Z"/>
        <g class="cls-2">
          <rect x="26.09" y="46.08" width="1.12" height="17.64"/>
          <rect x="27.21" y="46.08" width="1.12" height="17.64"/>
          <rect x="28.34" y="46.08" width="1.12" height="17.64"/>
          <rect x="29.46" y="46.08" width="1.12" height="17.64"/>
          <rect x="30.58" y="46.08" width=".39" height="17.64"/>
          <rect x="30.97" y="46.08" width=".39" height="17.64"/>
          <rect x="31.36" y="46.08" width=".39" height="17.64"/>
          <rect x="31.75" y="46.08" width=".39" height="17.64"/>
          <rect x="32.14" y="46.08" width=".39" height="17.64"/>
          <rect x="32.53" y="46.08" width=".39" height="17.64"/>
          <rect x="32.92" y="46.08" width=".39" height="17.64"/>
          <rect x="33.31" y="46.08" width=".39" height="17.64"/>
          <rect x="33.7" y="46.08" width=".39" height="17.64"/>
          <rect x="34.09" y="46.08" width=".39" height="17.64"/>
          <rect x="34.48" y="46.08" width=".39" height="17.64"/>
          <rect x="34.87" y="46.08" width=".22" height="17.64"/>
          <rect x="35.09" y="46.08" width=".22" height="17.64"/>
          <rect x="35.32" y="46.08" width=".22" height="17.64"/>
          <rect x="35.54" y="46.08" width=".22" height="17.64"/>
          <rect x="35.76" y="46.08" width=".22" height="17.64"/>
          <rect x="35.98" y="46.08" width=".22" height="17.64"/>
          <rect x="36.2" y="46.08" width=".22" height="17.64"/>
          <rect x="36.42" y="46.08" width=".22" height="17.64"/>
          <rect x="36.64" y="46.08" width=".22" height="17.64"/>
          <rect x="36.86" y="46.08" width=".22" height="17.64"/>
          <rect x="37.08" y="46.08" width=".22" height="17.64"/>
          <rect x="37.3" y="46.08" width=".22" height="17.64"/>
          <rect x="37.53" y="46.08" width=".22" height="17.64"/>
          <rect x="37.75" y="46.08" width=".22" height="17.64"/>
          <rect x="37.97" y="46.08" width=".22" height="17.64"/>
          <rect x="38.19" y="46.08" width=".22" height="17.64"/>
          <rect x="38.41" y="46.08" width=".22" height="17.64"/>
          <rect x="38.63" y="46.08" width=".22" height="17.64"/>
          <rect x="38.85" y="46.08" width=".22" height="17.64"/>
          <rect x="39.07" y="46.08" width=".16" height="17.64"/>
          <rect x="39.23" y="46.08" width=".16" height="17.64"/>
          <rect x="39.38" y="46.08" width=".16" height="17.64"/>
          <rect x="39.54" y="46.08" width=".16" height="17.64"/>
          <rect x="39.69" y="46.08" width=".16" height="17.64"/>
          <rect x="39.85" y="46.08" width=".16" height="17.64"/>
          <rect x="40" y="46.08" width=".16" height="17.64"/>
          <rect x="40.16" y="46.08" width=".16" height="17.64"/>
          <rect x="40.32" y="46.08" width=".16" height="17.64"/>
          <rect x="40.47" y="46.08" width=".16" height="17.64"/>
          <rect x="40.63" y="46.08" width=".16" height="17.64"/>
          <rect x="40.78" y="46.08" width=".16" height="17.64"/>
          <rect x="40.94" y="46.08" width=".16" height="17.64"/>
          <rect x="41.09" y="46.08" width=".16" height="17.64"/>
          <rect x="41.25" y="46.08" width=".16" height="17.64"/>
          <rect x="41.4" y="46.08" width=".16" height="17.64"/>
          <rect x="41.56" y="46.08" width=".16" height="17.64"/>
          <rect x="41.71" y="46.08" width=".16" height="17.64"/>
          <rect x="41.87" y="46.08" width=".16" height="17.64"/>
          <rect x="42.02" y="46.08" width=".16" height="17.64"/>
          <rect x="42.18" y="46.08" width=".16" height="17.64"/>
          <rect x="42.34" y="46.08" width=".16" height="17.64"/>
          <rect x="42.49" y="46.08" width=".13" height="17.64"/>
          <rect x="42.63" y="46.08" width=".13" height="17.64"/>
          <rect x="42.76" y="46.08" width=".13" height="17.64"/>
          <rect x="42.9" y="46.08" width=".13" height="17.64"/>
          <rect x="43.03" y="46.08" width=".13" height="17.64"/>
          <rect x="43.17" y="46.08" width=".13" height="17.64"/>
          <rect x="43.3" y="46.08" width=".13" height="17.64"/>
          <rect x="43.44" y="46.08" width=".13" height="17.64"/>
          <rect x="43.57" y="46.08" width=".14" height="17.64"/>
          <rect x="43.71" y="46.08" width=".14" height="17.64"/>
          <rect x="43.85" y="46.08" width=".14" height="17.64"/>
          <rect x="44" y="46.08" width=".14" height="17.64"/>
          <rect x="44.14" y="46.08" width=".14" height="17.64"/>
          <rect x="44.28" y="46.08" width=".14" height="17.64"/>
          <rect x="44.42" y="46.08" width=".14" height="17.64"/>
          <rect x="44.56" y="46.08" width=".14" height="17.64"/>
          <rect x="44.71" y="46.08" width=".14" height="17.64"/>
          <rect x="44.85" y="46.08" width=".14" height="17.64"/>
          <rect x="44.99" y="46.08" width=".14" height="17.64"/>
          <rect x="45.13" y="46.08" width=".14" height="17.64"/>
          <rect x="45.27" y="46.08" width=".14" height="17.64"/>
          <rect x="45.42" y="46.08" width=".14" height="17.64"/>
          <rect x="45.56" y="46.08" width=".14" height="17.64"/>
          <rect x="45.7" y="46.08" width=".14" height="17.64"/>
          <rect x="45.84" y="46.08" width=".14" height="17.64"/>
          <rect x="45.99" y="46.08" width=".14" height="17.64"/>
          <rect x="46.13" y="46.08" width=".14" height="17.64"/>
          <rect x="46.27" y="46.08" width=".14" height="17.64"/>
          <rect x="46.41" y="46.08" width=".14" height="17.64"/>
          <rect x="46.55" y="46.08" width=".14" height="17.64"/>
          <rect x="46.7" y="46.08" width=".14" height="17.64"/>
          <rect x="46.84" y="46.08" width=".14" height="17.64"/>
          <rect x="46.98" y="46.08" width=".14" height="17.64"/>
          <rect x="47.12" y="46.08" width=".14" height="17.64"/>
          <rect x="47.26" y="46.08" width=".14" height="17.64"/>
          <rect x="47.41" y="46.08" width=".14" height="17.64"/>
          <rect x="47.55" y="46.08" width=".14" height="17.64"/>
          <rect x="47.69" y="46.08" width=".14" height="17.64"/>
          <rect x="47.83" y="46.08" width=".14" height="17.64"/>
          <rect x="47.97" y="46.08" width=".14" height="17.64"/>
          <rect x="48.12" y="46.08" width=".14" height="17.64"/>
          <rect x="48.26" y="46.08" width=".14" height="17.64"/>
          <rect x="48.4" y="46.08" width=".14" height="17.64"/>
          <rect x="48.54" y="46.08" width=".14" height="17.64"/>
          <rect x="48.68" y="46.08" width=".14" height="17.64"/>
          <rect x="48.83" y="46.08" width=".14" height="17.64"/>
          <rect x="48.97" y="46.08" width=".19" height="17.64"/>
          <rect x="49.16" y="46.08" width=".19" height="17.64"/>
          <rect x="49.35" y="46.08" width=".19" height="17.64"/>
          <rect x="49.54" y="46.08" width=".19" height="17.64"/>
          <rect x="49.73" y="46.08" width=".19" height="17.64"/>
          <rect x="49.92" y="46.08" width=".19" height="17.64"/>
          <rect x="50.11" y="46.08" width=".19" height="17.64"/>
          <rect x="50.3" y="46.08" width=".19" height="17.64"/>
          <rect x="50.49" y="46.08" width=".19" height="17.64"/>
          <rect x="50.68" y="46.08" width=".19" height="17.64"/>
          <rect x="50.87" y="46.08" width=".19" height="17.64"/>
          <rect x="51.06" y="46.08" width=".19" height="17.64"/>
          <rect x="51.25" y="46.08" width=".19" height="17.64"/>
          <rect x="51.44" y="46.08" width=".19" height="17.64"/>
          <rect x="51.63" y="46.08" width=".19" height="17.64"/>
          <rect x="51.82" y="46.08" width=".19" height="17.64"/>
          <rect x="52.01" y="46.08" width=".19" height="17.64"/>
          <rect x="52.2" y="46.08" width=".19" height="17.64"/>
          <rect x="52.39" y="46.08" width=".19" height="17.64"/>
          <rect x="52.59" y="46.08" width=".19" height="17.64"/>
          <rect x="52.78" y="46.08" width=".19" height="17.64"/>
          <rect x="52.97" y="46.08" width=".19" height="17.64"/>
          <rect x="53.16" y="46.08" width=".19" height="17.64"/>
          <rect x="53.35" y="46.08" width=".3" height="17.64"/>
          <rect x="53.65" y="46.08" width=".3" height="17.64"/>
          <rect x="53.95" y="46.08" width=".3" height="17.64"/>
          <rect x="54.26" y="46.08" width=".3" height="17.64"/>
          <rect x="54.56" y="46.08" width=".3" height="17.64"/>
          <rect x="54.86" y="46.08" width=".3" height="17.64"/>
          <rect x="55.17" y="46.08" width=".3" height="17.64"/>
          <rect x="55.47" y="46.08" width=".3" height="17.64"/>
          <rect x="55.77" y="46.08" width=".3" height="17.64"/>
          <rect x="56.08" y="46.08" width="0" height="17.64"/>
        </g>
      </g>
    </g>
    <g id="path838">
      <g>
        <path d="m37.24,25.44v29.27s-1.48.88-1.48.88l-1.16.69-.29.17h-.02c-2.73,1.49-6.14.48-7.62-2.25-.46-.85-.7-1.81-.68-2.77V18.48c0-1.04.85-1.89,1.89-1.88.37,0,.73.11,1.04.32l5.76,3.77s.06.05.1.07c1.54,1.06,2.46,2.81,2.46,4.68h0Z"/>
        <g class="cls-3">
          <rect x="25.98" y="57.54" width="11.27" height=".39"/>
          <rect x="25.98" y="57" width="11.27" height=".55"/>
          <rect x="25.98" y="56.45" width="11.27" height=".55"/>
          <rect x="25.98" y="55.91" width="11.27" height=".55"/>
          <rect x="25.98" y="55.36" width="11.27" height=".55"/>
          <rect x="25.98" y="54.82" width="11.27" height=".55"/>
          <rect x="25.98" y="54.27" width="11.27" height=".55"/>
          <rect x="25.98" y="53.72" width="11.27" height=".55"/>
          <rect x="25.98" y="53.18" width="11.27" height=".55"/>
          <rect x="25.98" y="52.63" width="11.27" height=".55"/>
          <rect x="25.98" y="52.3" width="11.27" height=".33"/>
          <rect x="25.98" y="51.97" width="11.27" height=".33"/>
          <rect x="25.98" y="51.63" width="11.27" height=".33"/>
          <rect x="25.98" y="51.3" width="11.27" height=".33"/>
          <rect x="25.98" y="50.97" width="11.27" height=".33"/>
          <rect x="25.98" y="50.63" width="11.27" height=".33"/>
          <rect x="25.98" y="50.3" width="11.27" height=".33"/>
          <rect x="25.98" y="49.97" width="11.27" height=".33"/>
          <rect x="25.98" y="49.63" width="11.27" height=".33"/>
          <rect x="25.98" y="49.3" width="11.27" height=".33"/>
          <rect x="25.98" y="48.96" width="11.27" height=".33"/>
          <rect x="25.98" y="48.63" width="11.27" height=".33"/>
          <rect x="25.98" y="48.3" width="11.27" height=".33"/>
          <rect x="25.98" y="47.96" width="11.27" height=".33"/>
          <rect x="25.98" y="47.63" width="11.27" height=".33"/>
          <rect x="25.98" y="47.3" width="11.27" height=".33"/>
          <rect x="25.98" y="46.96" width="11.27" height=".33"/>
          <rect x="25.98" y="46.63" width="11.27" height=".33"/>
          <rect x="25.98" y="46.3" width="11.27" height=".33"/>
          <rect x="25.98" y="45.96" width="11.27" height=".33"/>
          <rect x="25.98" y="45.63" width="11.27" height=".33"/>
          <rect x="25.98" y="45.3" width="11.27" height=".33"/>
          <rect x="25.98" y="44.96" width="11.27" height=".33"/>
          <rect x="25.98" y="44.63" width="11.27" height=".33"/>
          <rect x="25.98" y="44.37" width="11.27" height=".25"/>
          <rect x="25.98" y="44.12" width="11.27" height=".25"/>
          <rect x="25.98" y="43.86" width="11.27" height=".25"/>
          <rect x="25.98" y="43.61" width="11.27" height=".25"/>
          <rect x="25.98" y="43.35" width="11.27" height=".25"/>
          <rect x="25.98" y="43.1" width="11.27" height=".25"/>
          <rect x="25.98" y="42.84" width="11.27" height=".25"/>
          <rect x="25.98" y="42.59" width="11.27" height=".25"/>
          <rect x="25.98" y="42.33" width="11.27" height=".25"/>
          <rect x="25.98" y="42.08" width="11.27" height=".25"/>
          <rect x="25.98" y="41.83" width="11.27" height=".25"/>
          <rect x="25.98" y="41.57" width="11.27" height=".25"/>
          <rect x="25.98" y="41.32" width="11.27" height=".25"/>
          <rect x="25.98" y="41.06" width="11.27" height=".25"/>
          <rect x="25.98" y="40.81" width="11.27" height=".25"/>
          <rect x="25.98" y="40.55" width="11.27" height=".25"/>
          <rect x="25.98" y="40.3" width="11.27" height=".25"/>
          <rect x="25.98" y="40.04" width="11.27" height=".25"/>
          <rect x="25.98" y="39.79" width="11.27" height=".25"/>
          <rect x="25.98" y="39.53" width="11.27" height=".25"/>
          <rect x="25.98" y="39.28" width="11.27" height=".25"/>
          <rect x="25.98" y="39.02" width="11.27" height=".25"/>
          <rect x="25.98" y="38.77" width="11.27" height=".25"/>
          <rect x="25.98" y="38.51" width="11.27" height=".25"/>
          <rect x="25.98" y="38.26" width="11.27" height=".25"/>
          <rect x="25.98" y="38" width="11.27" height=".25"/>
          <rect x="25.98" y="37.75" width="11.27" height=".25"/>
          <rect x="25.98" y="37.49" width="11.27" height=".25"/>
          <rect x="25.98" y="37.24" width="11.27" height=".25"/>
          <rect x="25.98" y="36.98" width="11.27" height=".25"/>
          <rect x="25.98" y="36.73" width="11.27" height=".25"/>
          <rect x="25.98" y="36.47" width="11.27" height=".25"/>
          <rect x="25.98" y="36.22" width="11.27" height=".25"/>
          <rect x="25.98" y="35.96" width="11.27" height=".25"/>
          <rect x="25.98" y="35.71" width="11.27" height=".25"/>
          <rect x="25.98" y="35.46" width="11.27" height=".25"/>
          <rect x="25.98" y="35.2" width="11.27" height=".25"/>
          <rect x="25.98" y="34.95" width="11.27" height=".25"/>
          <rect x="25.98" y="34.69" width="11.27" height=".25"/>
          <rect x="25.98" y="34.26" width="11.27" height=".43"/>
          <rect x="25.98" y="33.82" width="11.27" height=".43"/>
          <rect x="25.98" y="33.39" width="11.27" height=".43"/>
          <rect x="25.98" y="32.95" width="11.27" height=".43"/>
          <rect x="25.98" y="32.52" width="11.27" height=".43"/>
          <rect x="25.98" y="32.08" width="11.27" height=".43"/>
          <rect x="25.98" y="31.65" width="11.27" height=".43"/>
          <rect x="25.98" y="31.21" width="11.27" height=".43"/>
          <rect x="25.98" y="30.78" width="11.27" height=".43"/>
          <rect x="25.98" y="30.35" width="11.27" height=".43"/>
          <rect x="25.98" y="29.91" width="11.27" height=".43"/>
          <rect x="25.98" y="29.48" width="11.27" height=".43"/>
          <rect x="25.98" y="29.04" width="11.27" height=".43"/>
          <rect x="25.98" y="28.61" width="11.27" height=".43"/>
          <rect x="25.98" y="28.17" width="11.27" height=".43"/>
          <rect x="25.98" y="27.74" width="11.27" height=".43"/>
          <rect x="25.98" y="27.3" width="11.27" height=".43"/>
          <rect x="25.98" y="26.87" width="11.27" height=".43"/>
          <rect x="25.98" y="26.44" width="11.27" height=".43"/>
          <rect x="25.98" y="26" width="11.27" height=".43"/>
          <rect x="25.98" y="25.57" width="11.27" height=".43"/>
          <rect x="25.98" y="25.13" width="11.27" height=".43"/>
          <rect x="25.98" y="24.7" width="11.27" height=".43"/>
          <rect x="25.98" y="24.26" width="11.27" height=".43"/>
          <rect x="25.98" y="23.83" width="11.27" height=".43"/>
          <rect x="25.98" y="23.39" width="11.27" height=".43"/>
          <rect x="25.98" y="22.96" width="11.27" height=".43"/>
          <rect x="25.98" y="22.53" width="11.27" height=".43"/>
          <rect x="25.98" y="22.09" width="11.27" height=".43"/>
          <rect x="25.98" y="21.66" width="11.27" height=".43"/>
          <rect x="25.98" y="21.22" width="11.27" height=".43"/>
          <rect x="25.98" y="20.79" width="11.27" height=".43"/>
          <rect x="25.98" y="20.35" width="11.27" height=".43"/>
          <rect x="25.98" y="19.92" width="11.27" height=".43"/>
          <rect x="25.98" y="19.48" width="11.27" height=".43"/>
          <rect x="25.98" y="19.05" width="11.27" height=".43"/>
          <rect x="25.98" y="18.61" width="11.27" height=".43"/>
          <rect x="25.98" y="18.18" width="11.27" height=".43"/>
          <rect x="25.98" y="17.75" width="11.27" height=".43"/>
          <rect x="25.98" y="17.31" width="11.27" height=".43"/>
          <rect x="25.98" y="16.6" width="11.27" height=".71"/>
        </g>
      </g>
    </g>
  </g>
  <g id="path826">
    <path d="m3.4,80c-.6,0-1.19-.16-1.72-.47-.78-.46-1.34-1.2-1.57-2.08-.15-.56-.15-1.15,0-1.71l2.9-11.15c.89-3.42.59-7.35-.89-11.69C.71,48.74,0,44.39,0,39.99,0,17.94,17.94,0,40,0s40,17.94,40,39.99-17.94,40-40,40c-4.41,0-8.75-.71-12.89-2.12-4.33-1.47-8.26-1.77-11.67-.88l-11.17,2.91c-.28.07-.57.11-.86.11ZM40,3.33C19.78,3.33,3.33,19.78,3.33,39.99c0,4.04.65,8.02,1.95,11.84,1.69,4.96,2.01,9.54.96,13.6l-2.9,11.15s0,.02,0,.03c0,0,0,.03.03.04.02.01.04,0,.05,0l11.17-2.91c4.06-1.06,8.63-.73,13.59.95,3.8,1.29,7.77,1.95,11.82,1.95,20.22,0,36.67-16.45,36.67-36.66S60.22,3.33,40,3.33Z"/>
  </g>
</svg>