<?xml version="1.0" encoding="UTF-8"?><svg id="a" xmlns="http://www.w3.org/2000/svg" viewBox="0 0 167.58 80"><path d="m.74,7.75l-.74.75v24.52c0,26.37,0,25.49,1.13,28.62,2.12,5.28,6.56,9.27,12.03,10.84,1.49.43,3.04.6,4.58.49,4.19,0,5.75-.6,11.85-4.32,9.17-5.6,10.84-6.88,12.69-9.95,1.75-2.81,2.63-6.08,2.52-9.39.07-4.15-1.36-8.19-4.03-11.36-1.92-2.31-3.56-3.41-10.56-7.03-7.15-3.73-7.59-3.86-8.83-2.64s-1.19,1.51,1.62,8.67c1.38,3.56,2.71,6.74,2.96,7.05.73,1,1.68,1.46,5.77,2.88,2.2.74,3.92,1.46,3.81,1.56s-19.46,11.66-19.63,11.66-.11-9.55-.13-21.21l-.06-21.2-.51-1.23c-.89-2.26-1.93-3.14-9.24-7.83-2.16-1.39-2.67-1.61-3.46-1.61-.68-.07-1.35.2-1.77.74h.02-.01Z" style="stroke-width:0px;"/><path d="m99.17,19.39c-1.89.28-3.26,1.95-3.18,3.86,0,2.88,3.14,4.67,5.93,3.35,1.88-.82,2.74-3.01,1.92-4.88-.1-.22-.22-.44-.37-.64-.93-1.41-2.66-2.09-4.31-1.68h0Z" style="stroke-width:0px;"/><path d="m64.55,40.05v19.83h7.55c4.19,0,8.17-.12,8.98-.24,5.03-.84,8.7-3.56,10.2-7.67.4-1.18.54-2.42.45-3.65,0-2.86-.45-4.32-1.92-6.12s-2.88-2.61-6.5-3.59c-.15-.06.4-.44,1.24-.84,1.98-1.06,3.62-2.68,4.64-4.67.53-1.15.6-1.51.6-3.71s-.06-2.55-.6-3.68c-.9-1.78-2.38-3.2-4.19-4.03-2.66-1.29-3.7-1.43-12.57-1.43h-7.87v19.81h.01Zm14.6-13.82c2.82.9,3.98,3.15,3.22,6.21-.5,1.53-1.62,2.77-3.11,3.41-.99.45-1.68.53-4.41.62l-3.26.08v-10.9l3.26.13c1.44,0,2.88.14,4.31.43h-.01Zm1.5,16.54c1.4.55,2.56,1.55,3.3,2.86.3.78.45,1.62.42,2.47.13,1.85-.74,3.63-2.28,4.64-1.68,1.18-2.84,1.39-6.9,1.39h-3.6v-11.94l4.03.09c3.07.08,4.25.2,5.03.49h.01Z" style="stroke-width:0px;"/><path d="m122.17,31.2c-1.67.44-3.19,1.3-4.43,2.52l-1.17,1.15-.06-1.77-.06-1.76-3.35-.06-3.35-.06v28.69h6.8l.06-9.33c.06-8.97.09-9.34.53-10.32.67-1.39,1.73-2.55,3.05-3.35,1.43-.6,3.03-.73,4.54-.4,1.52.54,2.72,1.76,3.22,3.3.36,1.08.4,2.29.49,10.65l.06,9.41h6.85l-.12-10.32c-.06-8.73-.12-10.51-.46-11.73-.84-3.13-2.71-5.48-5.15-6.44-2.43-.68-4.98-.74-7.44-.18h-.02.01Z" style="stroke-width:0px;"/><path d="m149.12,31.25c-4.31,1.13-7.55,4.78-8.83,10-.72,3.34-.72,6.79,0,10.13.53,2.13,1.62,4.08,3.18,5.65,2.13,2.13,4.58,3.07,8.1,3.07s6.01-.9,8.09-2.97l1.19-1.22v1.04c0,4.19-1.68,7.23-4.69,8.67-3.52,1.68-9.09,1.19-12.73-1.05-.44-.28-.9-.54-1.39-.74-.13,1.07-.17,2.14-.13,3.22v3.19l.77.34c2.31.95,4.52,1.28,8.7,1.28,3.81,0,4.19,0,6.06-.62,2.19-.56,4.19-1.71,5.8-3.3,1.11-.96,1.99-2.17,2.58-3.52,1.18-2.45,1.76-8.88,1.76-19.27v-13.77l-3.35-.06-3.35-.06v2.97l-1.01-.88c-.57-.52-1.19-.97-1.87-1.35-2.79-1.24-5.92-1.48-8.88-.68v-.05Zm7.87,5.66c1.33.73,2.42,1.85,3.11,3.2.6,1.13.6,1.21.6,5.11s0,3.98-.64,5.35c-.82,1.74-2.24,3.12-4,3.88-1.55.45-3.2.45-4.75,0-3.35-1.13-5.03-5.2-4.41-10.35.53-4.12,2-6.42,4.75-7.41,1.77-.55,3.67-.48,5.39.21h-.05,0Z" style="stroke-width:0px;"/><path d="m96.65,31.39c-.08.06-.15,6.53-.15,14.33v14.17h6.82v-28.65h-3.26c-1.15-.05-2.28,0-3.41.15Z" style="stroke-width:0px;"/></svg>