<?xml version="1.0" encoding="UTF-8" standalone="no"?>
<svg id="a" viewBox="0 0 32 32" version="1.1" sodipodi:docname="bing.svg" width="32" height="32" inkscape:version="1.4-beta2 (9aaf4f34, 2024-07-30)" xmlns:inkscape="http://www.inkscape.org/namespaces/inkscape" xmlns:sodipodi="http://sodipodi.sourceforge.net/DTD/sodipodi-0.dtd" xmlns="http://www.w3.org/2000/svg" xmlns:svg="http://www.w3.org/2000/svg">
  <defs id="defs6" />
  <sodipodi:namedview id="namedview6" pagecolor="#ffffff" bordercolor="#000000" borderopacity="0.25" inkscape:showpageshadow="2" inkscape:pageopacity="0.0" inkscape:pagecheckerboard="0" inkscape:deskcolor="#d1d1d1" inkscape:zoom="4.4001119" inkscape:cx="27.726567" inkscape:cy="41.476218" inkscape:window-width="1440" inkscape:window-height="790" inkscape:window-x="0" inkscape:window-y="0" inkscape:window-maximized="1" inkscape:current-layer="a" />
  <path d="M 5.494912,0.35925342 5.1360885,0.72292582 V 12.612591 c 0,12.786724 0,12.360015 0.5479332,13.877741 1.0279808,2.560254 3.1809217,4.494991 5.8333063,5.256279 0.722496,0.208506 1.474086,0.290938 2.220826,0.237599 2.031718,0 2.788156,-0.290938 5.746026,-2.094753 4.446501,-2.715421 5.256279,-3.336089 6.153337,-4.824721 0.84857,-1.36256 1.275279,-2.948171 1.22194,-4.553179 0.03394,-2.012321 -0.659459,-3.971303 -1.954133,-5.508426 -0.931002,-1.120111 -1.726232,-1.653497 -5.120509,-3.408823 -3.46701,-1.8086645 -3.680365,-1.8717015 -4.281637,-1.280127 -0.601272,0.591574 -0.577027,0.732194 0.785533,4.204054 0.669157,1.726232 1.31407,3.268203 1.435294,3.418521 0.353974,0.484896 0.814626,0.707949 2.797853,1.396502 1.066773,0.358824 1.900795,0.707949 1.847456,0.756439 -0.05334,0.04849 -9.436088,5.653894 -9.51852,5.653894 -0.08243,0 -0.05334,-4.630762 -0.06304,-10.284657 L 12.758663,5.1791255 12.511366,4.5827025 C 12.079808,3.4868365 11.575515,3.0601275 8.0309212,0.78596242 6.9835446,0.11195612 6.7362473,0.00527892 6.353179,0.00527892 6.0234493,-0.02866388 5.6985686,0.10225822 5.494912,0.36410242 h 0.0097 -0.00485 z" style="stroke-width:0px" id="path1" />
</svg>
