<?xml version="1.0" encoding="UTF-8"?><svg id="a" xmlns="http://www.w3.org/2000/svg" viewBox="0 0 180 80"><defs><style>.b{stroke-width:0px;}</style></defs><path class="b" d="m.8,5.36l-.8.81v26.34c0,28.33,0,27.38,1.21,30.74,2.28,5.67,7.05,9.96,12.92,11.64,1.6.46,3.26.64,4.92.52,4.5,0,6.17-.64,12.73-4.64,9.85-6.01,11.64-7.39,13.63-10.69,1.88-3.02,2.82-6.53,2.7-10.09.08-4.46-1.46-8.8-4.33-12.21-2.06-2.48-3.83-3.66-11.34-7.55-7.68-4-8.15-4.14-9.49-2.84s-1.28,1.63,1.75,9.32c1.48,3.83,2.91,7.24,3.17,7.57.78,1.07,1.8,1.57,6.2,3.1,2.37.8,4.21,1.57,4.09,1.68s-20.9,12.52-21.08,12.52-.12-10.25-.14-22.79l-.07-22.77-.54-1.32c-.96-2.43-2.07-3.37-9.93-8.41-2.32-1.49-2.87-1.73-3.72-1.73-.73-.08-1.45.22-1.9.8Z"/><path class="b" d="m106.52,17.86c-2.03.3-3.5,2.09-3.41,4.14,0,3.1,3.37,5.02,6.37,3.6,2.02-.88,2.94-3.23,2.06-5.25-.11-.24-.24-.47-.39-.69-1-1.52-2.86-2.25-4.63-1.8Z"/><path class="b" d="m69.34,40.06v21.3h8.1c4.5,0,8.78-.13,9.64-.26,5.4-.9,9.35-3.83,10.95-8.24.42-1.26.58-2.6.48-3.92,0-3.08-.48-4.64-2.06-6.58s-3.1-2.8-6.98-3.86c-.16-.07.43-.47,1.33-.9,2.13-1.13,3.88-2.88,4.99-5.02.57-1.23.64-1.63.64-3.98s-.07-2.74-.64-3.95c-.97-1.91-2.55-3.44-4.5-4.33-2.86-1.39-3.97-1.54-13.5-1.54h-8.45v21.28Zm15.69-14.84c3.03.97,4.28,3.38,3.46,6.67-.53,1.65-1.75,2.98-3.34,3.67-1.06.48-1.8.57-4.73.67l-3.5.09v-11.7l3.5.14c1.55,0,3.1.15,4.62.46Zm1.61,17.77c1.5.59,2.75,1.67,3.55,3.08.33.84.48,1.74.45,2.65.14,1.98-.8,3.89-2.45,4.99-1.8,1.26-3.05,1.49-7.41,1.49h-3.87v-12.83l4.33.1c3.29.09,4.57.22,5.4.52Z"/><path class="b" d="m131.23,30.55c-1.79.47-3.43,1.4-4.76,2.7l-1.25,1.23-.07-1.9-.07-1.89-3.6-.07-3.6-.07v30.81h7.31l.07-10.02c.07-9.63.1-10.03.57-11.08.72-1.49,1.85-2.74,3.27-3.6,1.54-.64,3.25-.79,4.88-.42,1.64.58,2.92,1.89,3.46,3.55.38,1.16.42,2.47.52,11.44l.07,10.11h7.36l-.13-11.08c-.07-9.38-.13-11.29-.49-12.6-.9-3.36-2.91-5.89-5.53-6.91-2.61-.73-5.35-.8-7.99-.2Z"/><path class="b" d="m160.18,30.61c-4.63,1.21-8.1,5.14-9.49,10.74-.77,3.59-.77,7.3,0,10.89.57,2.29,1.74,4.38,3.41,6.06,2.29,2.29,4.92,3.29,8.7,3.29s6.46-.97,8.69-3.19l1.28-1.31v1.11c0,4.5-1.8,7.77-5.04,9.31-3.79,1.8-9.76,1.28-13.68-1.12-.47-.31-.97-.58-1.49-.8-.14,1.15-.19,2.3-.14,3.46v3.43l.83.36c2.48,1.03,4.85,1.37,9.35,1.37,4.09,0,4.5,0,6.51-.66,2.36-.6,4.51-1.83,6.23-3.55,1.19-1.04,2.14-2.33,2.77-3.79q1.89-3.95,1.89-20.7v-14.79l-3.6-.07-3.6-.07v3.18l-1.08-.95c-.61-.56-1.28-1.05-2.01-1.45-3-1.33-6.36-1.59-9.53-.73Zm8.45,6.08c1.43.78,2.6,1.98,3.34,3.44.64,1.21.64,1.3.64,5.49s0,4.28-.69,5.75c-.88,1.87-2.41,3.35-4.3,4.17-1.67.48-3.44.48-5.11,0-3.6-1.21-5.4-5.59-4.73-11.12.57-4.43,2.15-6.89,5.11-7.96,1.9-.59,3.94-.51,5.79.23h-.04Z"/><path class="b" d="m103.82,30.76c-.09.07-.16,7.01-.16,15.39v15.22h7.33v-30.77h-3.5c-1.23-.05-2.45,0-3.67.16Z"/></svg>