<svg xmlns="http://www.w3.org/2000/svg" viewBox="0 0 80 80">
  <defs>
    <clipPath id="a">
      <path d="M58 46.84c0 3.22-1.21 6.31-3.4 8.67.58-.64 1.01-1.41 1.25-2.24.02-.08.04-.16.06-.25v-.03c.02-.08.04-.16.05-.25.02-.09.03-.17.04-.26a5.693 5.693 0 0 0-1.69-4.94 5.691 5.691 0 0 0-2.54-1.43h-.01l-.1-.04-1.48-.51-3.87-1.33h-.04l-.24-.09c-.78-.31-1.42-.88-1.82-1.61l-1.41-3.61-1.62-4.14-.31-.8-.08-.16a1.86 1.86 0 0 1-.14-.7v-.18a1.81 1.81 0 0 1 2.5-1.48l7.2 3.71 1.42.73c.75.45 1.45.98 2.09 1.57 2.62 2.41 4.11 5.81 4.1 9.38Z"/>
    </clipPath>
    <clipPath id="b">
      <path d="M56.07 51.67c0 .37-.04.72-.1 1.07-.07.34-.16.68-.29 1-.03.08-.07.16-.1.24-.25.55-.58 1.07-.98 1.52-1.05 1.17-4.61 3.24-5.93 4.09l-2.92 1.79c-2.14 1.32-4.16 2.26-6.7 2.32h-.36c-4.36 0-8.41-2.24-10.73-5.93-1.02-1.6-1.66-3.42-1.87-5.3.54 3.06 3.45 5.1 6.51 4.56.6-.11 1.18-.31 1.72-.6l.29-.17 1.16-.69 1.48-.88v-.04l.19-.11 13.23-7.86 1.02-.6.1.03h.01a5.74 5.74 0 0 1 4.29 5.56Z"/>
    </clipPath>
    <clipPath id="c">
      <path d="M37.24 25.44v29.27l-1.48.88-1.16.69-.29.17h-.02a5.606 5.606 0 0 1-7.62-2.25 5.6 5.6 0 0 1-.68-2.77V18.48a1.88 1.88 0 0 1 2.93-1.56l5.76 3.77s.06.05.1.07a5.681 5.681 0 0 1 2.46 4.68Z"/>
    </clipPath>
  </defs>
  <path d="M58 46.84c0 3.22-1.21 6.31-3.4 8.67.58-.64 1.01-1.41 1.25-2.24.02-.08.04-.16.06-.25v-.03c.02-.08.04-.16.05-.25.02-.09.03-.17.04-.26a5.693 5.693 0 0 0-1.69-4.94 5.691 5.691 0 0 0-2.54-1.43h-.01l-.1-.04-1.48-.51-3.87-1.33h-.04l-.24-.09c-.78-.31-1.42-.88-1.82-1.61l-1.41-3.61-1.62-4.14-.31-.8-.08-.16a1.86 1.86 0 0 1-.14-.7v-.18a1.81 1.81 0 0 1 2.5-1.48l7.2 3.71 1.42.73c.75.45 1.45.98 2.09 1.57 2.62 2.41 4.11 5.81 4.1 9.38Z"/>
  <g style="clip-path:url(#a)">
    <path d="m41.48 31.22-.81 1.42v-1.42h.81zM42.74 31.22l-2.07 3.6v-2.18l.81-1.42h1.26z"/>
    <path d="m44 31.22-3.33 5.79v-2.19l2.07-3.6H44z"/>
    <path d="m45.25 31.22-4.58 7.97v-2.18L44 31.22h1.25z"/>
    <path d="m46.51 31.22-5.84 10.16v-2.19l4.58-7.97h1.26zM46.95 31.22l-6.28 10.91v-.75l5.84-10.16h.44zM47.39 31.22l-6.72 11.67v-.76l6.28-10.91h.44z"/>
    <path d="m47.82 31.22-7.15 12.43v-.76l6.72-11.67h.43z"/>
    <path d="m48.26 31.22-7.59 13.19v-.76l7.15-12.43h.44zM48.7 31.22l-8.03 13.95v-.76l7.59-13.19h.44z"/>
    <path d="m49.13 31.22-8.46 14.71v-.76l8.03-13.95h.43z"/>
    <path d="m49.57 31.22-8.9 15.47v-.76l8.46-14.71h.44zM50.01 31.22l-9.34 16.23v-.76l8.9-15.47h.44z"/>
    <path d="m50.44 31.22-9.77 16.99v-.76l9.34-16.23h.43zM50.88 31.22 40.67 48.97v-.76l9.77-16.99h.44z"/>
    <path d="M51.32 31.22 40.67 49.73v-.76l10.21-17.75h.44z"/>
    <path d="M51.56 31.22 40.67 50.16v-.43l10.65-18.51h.24z"/>
    <path d="M51.81 31.22 40.67 50.58v-.42l10.89-18.94h.25z"/>
    <path d="M52.06 31.22 40.67 51.01v-.43l11.14-19.36h.25z"/>
    <path d="M52.3 31.22 40.67 51.44v-.43l11.39-19.79h.24z"/>
    <path d="M52.55 31.22 40.67 51.87v-.43L52.3 31.22h.25zM52.6 31.22l.14.09-12.07 20.98v-.42l11.88-20.65h.05z"/>
    <path d="m52.74 31.31.19.11-12.22 21.23-.04-.03v-.33l12.07-20.98z"/>
    <path d="m40.716 52.64 12.217-21.236.182.104L40.9 52.745z"/>
    <path d="M40.893 52.744 53.11 31.508l.182.104L41.075 52.85zM41.078 52.863l12.217-21.237.182.105L41.26 52.968zM41.268 52.963l12.217-21.236.182.104L41.45 53.068z"/>
    <path d="M41.445 53.067 53.66 31.83l.182.105-12.216 21.237zM41.635 53.177 53.85 31.941l.182.104-12.216 21.237zM41.82 53.286 54.036 32.05l.182.105-12.216 21.237z"/>
    <path d="m42.001 53.381 12.217-21.236.182.104-12.217 21.237zM42.186 53.5l12.217-21.237.182.105-12.217 21.237z"/>
    <path d="M42.368 53.595 54.584 32.36l.182.104L42.55 53.7zM42.553 53.704l12.216-21.237.182.105L42.735 53.81zM42.743 53.814 54.96 32.578l.182.104L42.925 53.92zM42.932 53.924l12.216-21.237.13.075L43.062 54z"/>
    <path d="M43.057 53.996 55.274 32.76l.13.074-12.217 21.237zM43.196 54.065l12.217-21.237.13.075L43.326 54.14zM43.324 54.153l12.217-21.237.087.05L43.41 54.203zM43.412 54.2 55.63 32.963l.087.05L43.499 54.25z"/>
    <path d="M43.5 54.247 55.718 33.01l.087.05-12.217 21.237z"/>
    <path d="m43.589 54.294 12.217-21.237.086.05-12.216 21.237zM43.677 54.35l12.217-21.236.086.05L43.764 54.4z"/>
    <path d="M43.765 54.398 55.982 33.16l.087.05-12.217 21.237z"/>
    <path d="M43.854 54.445 56.07 33.208l.087.05L43.94 54.495z"/>
    <path d="m43.942 54.492 12.216-21.237.087.05L44.028 54.54zM44.025 54.557 56.242 33.32l.086.05-12.216 21.237zM44.122 54.61l12.217-21.238.086.05L44.21 54.66z"/>
    <path d="m44.206 54.652 12.217-21.237.095.055-12.216 21.237zM44.303 54.714 56.52 33.477l.095.055L44.4 54.77zM44.405 54.767l12.217-21.236.095.054-12.216 21.237z"/>
    <path d="m44.498 54.816 12.217-21.237.095.055L44.594 54.87zM44.595 54.878 56.812 33.64l.095.055-12.216 21.236z"/>
    <path d="m44.688 54.926 12.217-21.237.095.055L44.784 54.98zM44.79 54.99l12.217-21.238.095.055-12.216 21.237z"/>
    <path d="m44.879 55.046 12.216-21.237.096.055-12.217 21.237zM44.98 55.1l12.217-21.238.095.055-12.216 21.237z"/>
    <path d="M45.074 55.148 57.29 33.91l.096.055-12.217 21.236zM45.17 55.21l12.217-21.237.096.054-12.217 21.237zM45.272 55.263 57.49 34.026l.095.055-12.216 21.237z"/>
    <path d="m45.366 55.32 12.216-21.236.096.055L45.46 55.376zM45.462 55.383 57.68 34.146l.095.055-12.216 21.237z"/>
    <path d="m45.556 55.431 12.216-21.237.096.055L45.65 55.486zM57.87 34.26l.1.06-12.19 21.19h-.09l-.03-.02 12.21-21.23z"/>
    <path d="m57.97 34.32.04.02v.14L45.9 55.51h-.12l12.19-21.19z"/>
    <path d="M58.01 34.7 46.03 55.51h-.13l12.11-21.03v.22z"/>
    <path d="M58.01 34.92 46.16 55.51h-.13L58.01 34.7v.22z"/>
    <path d="M58.01 35.15 46.29 55.51h-.13l11.85-20.59v.23z"/>
    <path d="M58.01 35.37 46.42 55.51h-.13l11.72-20.36v.22z"/>
    <path d="M58.01 35.59 46.55 55.51h-.13l11.59-20.14v.22z"/>
    <path d="M58.01 35.82 46.68 55.51h-.13l11.46-19.92v.23z"/>
    <path d="M58.01 36.04 46.8 55.51h-.12l11.33-19.69v.22z"/>
    <path d="M58.01 36.26 46.93 55.51h-.13l11.21-19.47v.22z"/>
    <path d="M58.01 36.49 47.06 55.51h-.13l11.08-19.25v.23z"/>
    <path d="m58.01 36.71-10.82 18.8h-.13l10.95-19.02v.22z"/>
    <path d="M58.01 36.94 47.32 55.51h-.13l10.82-18.8v.23z"/>
    <path d="M58.01 37.16 47.45 55.51h-.13l10.69-18.57v.22z"/>
    <path d="M58.01 37.38 47.58 55.51h-.13l10.56-18.35v.22z"/>
    <path d="m58.01 37.61-10.3 17.9h-.13l10.43-18.13v.23zM58.01 37.83 47.83 55.51h-.12l10.3-17.9v.22z"/>
    <path d="M58.01 38.05 47.96 55.51h-.13l10.18-17.68v.22z"/>
    <path d="m58.01 38.28-9.92 17.23h-.13l10.05-17.46v.23z"/>
    <path d="m58.01 38.5-9.79 17.01h-.13l9.92-17.23v.22z"/>
    <path d="m58.01 38.72-9.66 16.79h-.13l9.79-17.01v.22z"/>
    <path d="m58.01 38.95-9.53 16.56h-.13l9.66-16.79v.23z"/>
    <path d="m58.01 39.17-9.4 16.34h-.13l9.53-16.56v.22z"/>
    <path d="m58.01 39.47-9.23 16.04h-.17l9.4-16.34v.3z"/>
    <path d="m58.01 39.77-9.06 15.74h-.17l9.23-16.04v.3z"/>
    <path d="m58.01 40.06-8.89 15.45h-.17l9.06-15.74v.29z"/>
    <path d="m58.01 40.36-8.72 15.15h-.17l8.89-15.45v.3z"/>
    <path d="m58.01 40.66-8.55 14.85h-.17l8.72-15.15v.3zM58.01 40.95l-8.38 14.56h-.17l8.55-14.85v.29z"/>
    <path d="M58.01 41.25 49.8 55.51h-.17l8.38-14.56v.3z"/>
    <path d="m58.01 41.55-8.04 13.96h-.17l8.21-14.26v.3zM58.01 41.84l-7.87 13.67h-.17l8.04-13.96v.29z"/>
    <path d="m58.01 42.14-7.7 13.37h-.17l7.87-13.67v.3z"/>
    <path d="m58.01 42.44-7.53 13.07h-.17l7.7-13.37v.3z"/>
    <path d="m58.01 42.73-7.35 12.78h-.18l7.53-13.07v.29zM58.01 43.03l-7.18 12.48h-.17l7.35-12.78v.3z"/>
    <path d="M58.01 43.33 51 55.51h-.17l7.18-12.48v.3z"/>
    <path d="m58.01 43.62-6.84 11.89H51l7.01-12.18v.29z"/>
    <path d="m58.01 43.92-6.67 11.59h-.17l6.84-11.89v.3z"/>
    <path d="m58.01 44.22-6.5 11.29h-.17l6.67-11.59v.3z"/>
    <path d="m58.01 44.51-6.33 11h-.17l6.5-11.29v.29z"/>
    <path d="m58.01 44.81-6.16 10.7h-.17l6.33-11v.3z"/>
    <path d="m58.01 45.11-5.99 10.4h-.17l6.16-10.7v.3z"/>
    <path d="m58.01 45.41-5.82 10.1h-.17l5.99-10.4v.3zM58.01 45.7l-5.65 9.81h-.17l5.82-10.1v.29z"/>
    <path d="m58.01 46-5.48 9.51h-.17l5.65-9.81v.3z"/>
    <path d="m58.01 46.47-5.2 9.04h-.28L58.01 46v.47z"/>
    <path d="m58.01 46.94-4.93 8.57h-.27l5.2-9.04v.47z"/>
    <path d="m58.01 47.42-4.66 8.09h-.27l4.93-8.57v.48z"/>
    <path d="m58.01 47.89-4.39 7.62h-.27l4.66-8.09v.47z"/>
    <path d="m58.01 48.36-4.12 7.15h-.27l4.39-7.62v.47z"/>
    <path d="m58.01 48.83-3.85 6.68h-.27l4.12-7.15v.47z"/>
    <path d="m58.01 49.3-3.57 6.21h-.28l3.85-6.68v.47zM58.01 49.78l-3.3 5.73h-.27l3.57-6.21v.48z"/>
    <path d="m58.01 50.25-3.03 5.26h-.27l3.3-5.73v.47z"/>
    <path d="m54.98 55.51 3.03-5.26v5.26h-3.03z"/>
  </g>
  <path d="M56.07 51.67c0 .37-.04.72-.1 1.07-.07.34-.16.68-.29 1-.03.08-.07.16-.1.24-.25.55-.58 1.07-.98 1.52-1.05 1.17-4.61 3.24-5.93 4.09l-2.92 1.79c-2.14 1.32-4.16 2.26-6.7 2.32h-.36c-4.36 0-8.41-2.24-10.73-5.93-1.02-1.6-1.66-3.42-1.87-5.3.54 3.06 3.45 5.1 6.51 4.56.6-.11 1.18-.31 1.72-.6l.29-.17 1.16-.69 1.48-.88v-.04l.19-.11 13.23-7.86 1.02-.6.1.03h.01a5.74 5.74 0 0 1 4.29 5.56Z"/>
  <g style="clip-path:url(#b)">
    <path d="M26.09 46.08h1.12v17.64h-1.12zM27.21 46.08h1.12v17.64h-1.12zM28.34 46.08h1.12v17.64h-1.12zM29.46 46.08h1.12v17.64h-1.12z"/>
    <path d="M30.58 46.08h.39v17.64h-.39zM30.97 46.08h.39v17.64h-.39zM31.36 46.08h.39v17.64h-.39zM31.75 46.08h.39v17.64h-.39zM32.14 46.08h.39v17.64h-.39zM32.53 46.08h.39v17.64h-.39zM32.92 46.08h.39v17.64h-.39zM33.31 46.08h.39v17.64h-.39zM33.7 46.08h.39v17.64h-.39zM34.09 46.08h.39v17.64h-.39z"/>
    <path d="M34.48 46.08h.39v17.64h-.39zM34.87 46.08h.22v17.64h-.22zM35.09 46.08h.22v17.64h-.22zM35.32 46.08h.22v17.64h-.22zM35.54 46.08h.22v17.64h-.22zM35.76 46.08h.22v17.64h-.22zM35.98 46.08h.22v17.64h-.22zM36.2 46.08h.22v17.64h-.22zM36.42 46.08h.22v17.64h-.22zM36.64 46.08h.22v17.64h-.22zM36.86 46.08h.22v17.64h-.22zM37.08 46.08h.22v17.64h-.22zM37.3 46.08h.22v17.64h-.22zM37.53 46.08h.22v17.64h-.22zM37.75 46.08h.22v17.64h-.22zM37.97 46.08h.22v17.64h-.22zM38.19 46.08h.22v17.64h-.22zM38.41 46.08h.22v17.64h-.22zM38.63 46.08h.22v17.64h-.22zM38.85 46.08h.22v17.64h-.22zM39.07 46.08h.16v17.64h-.16zM39.23 46.08h.16v17.64h-.16z"/>
    <path d="M39.38 46.08h.16v17.64h-.16zM39.54 46.08h.16v17.64h-.16z"/>
    <path d="M39.69 46.08h.16v17.64h-.16zM39.85 46.08h.16v17.64h-.16z"/>
    <path d="M40 46.08h.16v17.64H40zM40.16 46.08h.16v17.64h-.16zM40.32 46.08h.16v17.64h-.16z"/>
    <path d="M40.47 46.08h.16v17.64h-.16zM40.63 46.08h.16v17.64h-.16z"/>
    <path d="M40.78 46.08h.16v17.64h-.16zM40.94 46.08h.16v17.64h-.16z"/>
    <path d="M41.09 46.08h.16v17.64h-.16zM41.25 46.08h.16v17.64h-.16z"/>
    <path d="M41.4 46.08h.16v17.64h-.16zM41.56 46.08h.16v17.64h-.16z"/>
    <path d="M41.71 46.08h.16v17.64h-.16zM41.87 46.08h.16v17.64h-.16z"/>
    <path d="M42.02 46.08h.16v17.64h-.16zM42.18 46.08h.16v17.64h-.16zM42.34 46.08h.16v17.64h-.16z"/>
    <path d="M42.49 46.08h.13v17.64h-.13zM42.63 46.08h.13v17.64h-.13z"/>
    <path d="M42.76 46.08h.13v17.64h-.13zM42.9 46.08h.13v17.64h-.13zM43.03 46.08h.13v17.64h-.13zM43.17 46.08h.13v17.64h-.13z"/>
    <path d="M43.3 46.08h.13v17.64h-.13zM43.44 46.08h.13v17.64h-.13zM43.57 46.08h.14v17.64h-.14zM43.71 46.08h.14v17.64h-.14zM43.85 46.08h.14v17.64h-.14zM44 46.08h.14v17.64H44zM44.14 46.08h.14v17.64h-.14zM44.28 46.08h.14v17.64h-.14zM44.42 46.08h.14v17.64h-.14zM44.56 46.08h.14v17.64h-.14zM44.71 46.08h.14v17.64h-.14zM44.85 46.08h.14v17.64h-.14zM44.99 46.08h.14v17.64h-.14zM45.13 46.08h.14v17.64h-.14zM45.27 46.08h.14v17.64h-.14zM45.42 46.08h.14v17.64h-.14zM45.56 46.08h.14v17.64h-.14zM45.7 46.08h.14v17.64h-.14zM45.84 46.08h.14v17.64h-.14zM45.99 46.08h.14v17.64h-.14zM46.13 46.08h.14v17.64h-.14zM46.27 46.08h.14v17.64h-.14z"/>
    <path d="M46.41 46.08h.14v17.64h-.14zM46.55 46.08h.14v17.64h-.14zM46.7 46.08h.14v17.64h-.14zM46.84 46.08h.14v17.64h-.14z"/>
    <path d="M46.98 46.08h.14v17.64h-.14zM47.12 46.08h.14v17.64h-.14zM47.26 46.08h.14v17.64h-.14zM47.41 46.08h.14v17.64h-.14zM47.55 46.08h.14v17.64h-.14zM47.69 46.08h.14v17.64h-.14zM47.83 46.08h.14v17.64h-.14zM47.97 46.08h.14v17.64h-.14zM48.12 46.08h.14v17.64h-.14zM48.26 46.08h.14v17.64h-.14zM48.4 46.08h.14v17.64h-.14zM48.54 46.08h.14v17.64h-.14zM48.68 46.08h.14v17.64h-.14zM48.83 46.08h.14v17.64h-.14zM48.97 46.08h.19v17.64h-.19zM49.16 46.08h.19v17.64h-.19zM49.35 46.08h.19v17.64h-.19zM49.54 46.08h.19v17.64h-.19zM49.73 46.08h.19v17.64h-.19zM49.92 46.08h.19v17.64h-.19zM50.11 46.08h.19v17.64h-.19zM50.3 46.08h.19v17.64h-.19zM50.49 46.08h.19v17.64h-.19zM50.68 46.08h.19v17.64h-.19zM50.87 46.08h.19v17.64h-.19zM51.06 46.08h.19v17.64h-.19zM51.25 46.08h.19v17.64h-.19zM51.44 46.08h.19v17.64h-.19zM51.63 46.08h.19v17.64h-.19zM51.82 46.08h.19v17.64h-.19zM52.01 46.08h.19v17.64h-.19zM52.2 46.08h.19v17.64h-.19zM52.39 46.08h.19v17.64h-.19zM52.59 46.08h.19v17.64h-.19zM52.78 46.08h.19v17.64h-.19zM52.97 46.08h.19v17.64h-.19zM53.16 46.08h.19v17.64h-.19zM53.35 46.08h.3v17.64h-.3zM53.65 46.08h.3v17.64h-.3zM53.95 46.08h.3v17.64h-.3zM54.26 46.08h.3v17.64h-.3zM54.56 46.08h.3v17.64h-.3zM54.86 46.08h.3v17.64h-.3zM55.17 46.08h.3v17.64h-.3zM55.47 46.08h.3v17.64h-.3zM55.77 46.08h.3v17.64h-.3z"/>
  </g>
  <path d="M37.24 25.44v29.27l-1.48.88-1.16.69-.29.17h-.02a5.606 5.606 0 0 1-7.62-2.25 5.6 5.6 0 0 1-.68-2.77V18.48a1.88 1.88 0 0 1 2.93-1.56l5.76 3.77s.06.05.1.07a5.681 5.681 0 0 1 2.46 4.68Z"/>
  <g style="clip-path:url(#c)">
    <path d="M25.98 57.54h11.27v.39H25.98z"/>
    <path d="M25.98 57h11.27v.55H25.98zM25.98 56.45h11.27V57H25.98z"/>
    <path d="M25.98 55.91h11.27v.55H25.98zM25.98 55.36h11.27v.55H25.98z"/>
    <path d="M25.98 54.82h11.27v.55H25.98zM25.98 54.27h11.27v.55H25.98zM25.98 53.72h11.27v.55H25.98z"/>
    <path d="M25.98 53.18h11.27v.55H25.98zM25.98 52.63h11.27v.55H25.98zM25.98 52.3h11.27v.33H25.98zM25.98 51.97h11.27v.33H25.98zM25.98 51.63h11.27v.33H25.98zM25.98 51.3h11.27v.33H25.98zM25.98 50.97h11.27v.33H25.98zM25.98 50.63h11.27v.33H25.98zM25.98 50.3h11.27v.33H25.98zM25.98 49.97h11.27v.33H25.98zM25.98 49.63h11.27v.33H25.98zM25.98 49.3h11.27v.33H25.98zM25.98 48.96h11.27v.33H25.98zM25.98 48.63h11.27v.33H25.98zM25.98 48.3h11.27v.33H25.98zM25.98 47.96h11.27v.33H25.98zM25.98 47.63h11.27v.33H25.98zM25.98 47.3h11.27v.33H25.98zM25.98 46.96h11.27v.33H25.98zM25.98 46.63h11.27v.33H25.98zM25.98 46.3h11.27v.33H25.98zM25.98 45.96h11.27v.33H25.98zM25.98 45.63h11.27v.33H25.98zM25.98 45.3h11.27v.33H25.98zM25.98 44.96h11.27v.33H25.98zM25.98 44.63h11.27v.33H25.98zM25.98 44.37h11.27v.25H25.98zM25.98 44.12h11.27v.25H25.98zM25.98 43.86h11.27v.25H25.98zM25.98 43.61h11.27v.25H25.98zM25.98 43.35h11.27v.25H25.98zM25.98 43.1h11.27v.25H25.98zM25.98 42.84h11.27v.25H25.98zM25.98 42.59h11.27v.25H25.98zM25.98 42.33h11.27v.25H25.98zM25.98 42.08h11.27v.25H25.98zM25.98 41.83h11.27v.25H25.98zM25.98 41.57h11.27v.25H25.98zM25.98 41.32h11.27v.25H25.98zM25.98 41.06h11.27v.25H25.98zM25.98 40.81h11.27v.25H25.98zM25.98 40.55h11.27v.25H25.98zM25.98 40.3h11.27v.25H25.98zM25.98 40.04h11.27v.25H25.98zM25.98 39.79h11.27v.25H25.98zM25.98 39.53h11.27v.25H25.98zM25.98 39.28h11.27v.25H25.98zM25.98 39.02h11.27v.25H25.98zM25.98 38.77h11.27v.25H25.98zM25.98 38.51h11.27v.25H25.98zM25.98 38.26h11.27v.25H25.98zM25.98 38h11.27v.25H25.98zM25.98 37.75h11.27V38H25.98zM25.98 37.49h11.27v.25H25.98zM25.98 37.24h11.27v.25H25.98zM25.98 36.98h11.27v.25H25.98zM25.98 36.73h11.27v.25H25.98zM25.98 36.47h11.27v.25H25.98zM25.98 36.22h11.27v.25H25.98zM25.98 35.96h11.27v.25H25.98zM25.98 35.71h11.27v.25H25.98zM25.98 35.46h11.27v.25H25.98zM25.98 35.2h11.27v.25H25.98zM25.98 34.95h11.27v.25H25.98zM25.98 34.69h11.27v.25H25.98zM25.98 34.26h11.27v.43H25.98zM25.98 33.82h11.27v.43H25.98zM25.98 33.39h11.27v.43H25.98zM25.98 32.95h11.27v.43H25.98zM25.98 32.52h11.27v.43H25.98zM25.98 32.08h11.27v.43H25.98zM25.98 31.65h11.27v.43H25.98zM25.98 31.21h11.27v.43H25.98zM25.98 30.78h11.27v.43H25.98zM25.98 30.35h11.27v.43H25.98zM25.98 29.91h11.27v.43H25.98zM25.98 29.48h11.27v.43H25.98zM25.98 29.04h11.27v.43H25.98zM25.98 28.61h11.27v.43H25.98zM25.98 28.17h11.27v.43H25.98zM25.98 27.74h11.27v.43H25.98zM25.98 27.3h11.27v.43H25.98zM25.98 26.87h11.27v.43H25.98zM25.98 26.44h11.27v.43H25.98zM25.98 26h11.27v.43H25.98zM25.98 25.57h11.27V26H25.98zM25.98 25.13h11.27v.43H25.98zM25.98 24.7h11.27v.43H25.98zM25.98 24.26h11.27v.43H25.98zM25.98 23.83h11.27v.43H25.98zM25.98 23.39h11.27v.43H25.98zM25.98 22.96h11.27v.43H25.98zM25.98 22.53h11.27v.43H25.98zM25.98 22.09h11.27v.43H25.98zM25.98 21.66h11.27v.43H25.98zM25.98 21.22h11.27v.43H25.98zM25.98 20.79h11.27v.43H25.98zM25.98 20.35h11.27v.43H25.98zM25.98 19.92h11.27v.43H25.98zM25.98 19.48h11.27v.43H25.98zM25.98 19.05h11.27v.43H25.98zM25.98 18.61h11.27v.43H25.98zM25.98 18.18h11.27v.43H25.98zM25.98 17.75h11.27v.43H25.98zM25.98 17.31h11.27v.43H25.98z"/>
    <path d="M25.98 16.6h11.27v.71H25.98z"/>
  </g>
  <path d="M3.4 80a3.401 3.401 0 0 1-3.29-2.55c-.15-.56-.15-1.15 0-1.71l2.9-11.15c.89-3.42.59-7.35-.89-11.69A40.16 40.16 0 0 1 0 39.99C0 17.94 17.94 0 40 0s40 17.94 40 39.99-17.94 40-40 40c-4.41 0-8.75-.71-12.89-2.12-4.33-1.47-8.26-1.77-11.67-.88L4.27 79.9c-.28.07-.57.11-.86.11ZM40 3.33c-20.22 0-36.67 16.45-36.67 36.66 0 4.04.65 8.02 1.95 11.84 1.69 4.96 2.01 9.54.96 13.6l-2.9 11.15v.03s0 .03.03.04c.02.01.04 0 .05 0l11.17-2.91c4.06-1.06 8.63-.73 13.59.95 3.8 1.29 7.77 1.95 11.82 1.95 20.22 0 36.67-16.45 36.67-36.66S60.22 3.33 40 3.33Z"/>
</svg>