<?xml version="1.0" encoding="UTF-8"?><svg id="a" xmlns="http://www.w3.org/2000/svg" viewBox="0 0 260 80"><path d="m55.17,24.16h14.17c6.93,0,10.23,3.39,10.23,8.83,0,4.09-1.85,6.59-5.65,7.51,4.98.87,7.45,3.54,7.45,8.33,0,5.4-3.65,9.09-11.21,9.09h-14.99V24.16Zm4.64,4.42v10.07h8.87c4.33,0,6.17-2.01,6.17-5.26s-1.96-4.83-6.17-4.83l-8.87.02Zm0,14.18v10.51h10.5c4.42,0,6.43-1.59,6.43-4.98,0-3.6-1.9-5.56-6.53-5.56l-10.4.03Z" style="stroke-width:0px;"/><path d="m88.88,22.36c1.59-.11,2.97,1.09,3.09,2.68,0,.14,0,.27,0,.41,0,1.7-1.38,3.09-3.09,3.09s-3.09-1.38-3.09-3.09c-.11-1.59,1.08-2.97,2.67-3.09h.42Zm-2.26,9.86h4.44v25.7h-4.44v-25.7Z" style="stroke-width:0px;"/><path d="m107.9,53.76c.93-.03,1.86-.15,2.77-.36v4.26c-.97.28-1.98.42-2.99.42-5.49,0-8.17-3.24-8.17-8.02v-13.72h-4.17v-4.09h4.16v-5.47h4.33v5.44h6.83v4.09h-6.83v13.64c0,2.27,1.33,3.8,4.06,3.8Z" style="stroke-width:0px;"/><path d="m120.74,53.41v4.52h-4.42V21.52h4.42v15.33c1.65-3.39,4.72-5.14,8.67-5.14,6.84,0,10.28,5.82,10.28,13.36s-3.6,13.36-10.79,13.36c-3.5.18-6.75-1.82-8.16-5.04Zm7.53-17.58c-3.95,0-7.5,2.53-7.5,8.22v2.05c0,5.71,3.23,8.22,7.01,8.22,4.98,0,7.56-3.28,7.56-9.25-.06-6.17-2.52-9.26-7.07-9.26Z" style="stroke-width:0px;"/><path d="m144.33,32.22h4.42v15.54c0,4.63,1.85,6.68,6.07,6.68s6.93-2.72,6.93-7.91v-14.31h4.42v25.7h-4.42v-4.21c-1.61,2.97-4.74,4.8-8.12,4.73-5.91,0-9.3-4.09-9.3-11.15v-15.06Z" style="stroke-width:0px;"/><path d="m190.99,57.3c-1.97.86-4.12,1.26-6.27,1.17-9.15,0-13.43-5.55-13.43-13.43s4.26-13.31,13.43-13.31c2.11-.07,4.2.36,6.11,1.24v4.09c-1.81-.86-3.8-1.28-5.81-1.24-6.68,0-9.4,4.21-9.4,9.2s2.77,9.2,9.53,9.2c1.99.05,3.97-.26,5.84-.93v4.01Z" style="stroke-width:0px;"/><path d="m196.02,57.92V21.52h4.42v22.78l11.02-12.06h5.76l-12.06,12.64,12.61,13.05h-6.01l-11.32-12.02v12.02h-4.42Z" style="stroke-width:0px;"/><path d="m232.41,58.44c-9.61,0-13.87-5.56-13.87-13.43s4.33-13.32,12.13-13.32,11.13,5.5,11.13,13.32v2.03h-18.76c.62,4.33,3.47,7.19,9.53,7.19,2.66,0,5.3-.48,7.8-1.4v4.09c-2.11,1.1-5.34,1.52-7.96,1.52Zm-9.4-15.18h14.34c-.26-4.78-2.42-7.51-6.85-7.51-4.67,0-7.03,3.01-7.5,7.48v.03Z" style="stroke-width:0px;"/><path d="m257.23,53.76c.93-.03,1.86-.15,2.77-.36v4.26c-.97.28-1.97.42-2.98.42-5.49,0-8.17-3.24-8.17-8.02v-13.72h-4.16v-4.09h4.16v-5.47h4.33v5.44h6.82v4.09h-6.82v13.64c0,2.27,1.33,3.8,4.05,3.8Z" style="stroke-width:0px;"/><path d="m1.19,25.14c-.65,0-1.18.51-1.19,1.15h0c0,.07,0,.13,0,.2l4.97,30.1c.12.76.78,1.32,1.55,1.33h23.81c.58,0,1.08-.41,1.17-.98l4.97-30.44c.11-.63-.31-1.22-.94-1.34H1.19v-.02Zm20.87,21.75h-7.59l-2.05-10.73h11.48l-1.84,10.73Z" style="stroke-width:0px;"/></svg>