<svg id="Logos" xmlns="http://www.w3.org/2000/svg" viewBox="0 0 300 120"><title>bitbucket</title><path d="M63.65,41.77H80c8,0,11.8,3.91,11.8,10.19,0,4.72-2.13,7.6-6.52,8.66,5.75,1,8.6,4.09,8.6,9.61,0,6.23-4.21,10.49-12.93,10.49H63.65ZM69,46.87V58.49H79.24c5,0,7.12-2.32,7.12-6.07s-2.26-5.57-7.12-5.57Zm0,16.36V75.36H81.11c5.1,0,7.42-1.83,7.42-5.75,0-4.15-2.19-6.41-7.53-6.41Z"/><path d="M102.55,39.69a3.34,3.34,0,0,1,3.56,3.09,3.68,3.68,0,0,1,0,.47,3.56,3.56,0,1,1-7.12,0,3.33,3.33,0,0,1,3.08-3.56ZM99.94,51.07h5.12V80.72H99.94Z"/><path d="M124.49,75.92a16.4,16.4,0,0,0,3.2-.41v4.91a12.55,12.55,0,0,1-3.45.48c-6.34,0-9.43-3.74-9.43-9.25V55.82H110V51.1h4.8V44.79h5v6.28h7.88v4.72H119.8V71.53C119.8,74.15,121.34,75.92,124.49,75.92Z"/><path d="M139.31,75.51v5.21h-5.1v-42h5.1V56.41c1.9-3.91,5.45-5.93,10-5.93,7.89,0,11.86,6.71,11.86,15.42,0,8.36-4.15,15.42-12.45,15.42A9.72,9.72,0,0,1,139.31,75.51ZM148,55.22c-4.56,0-8.65,2.92-8.65,9.49v2.37c0,6.59,3.73,9.49,8.09,9.49,5.75,0,8.72-3.79,8.72-10.67C156.09,58.78,153.25,55.22,148,55.22Z"/><path d="M166.53,51.07h5.1V69c0,5.34,2.13,7.71,7,7.71s8-3.14,8-9.13V51.07h5.1V80.72h-5.1V75.86a10.42,10.42,0,0,1-9.37,5.46c-6.82,0-10.73-4.72-10.73-12.87Z"/><path d="M220.37,80a16.41,16.41,0,0,1-7.23,1.35c-10.56,0-15.5-6.4-15.5-15.5,0-8.95,4.92-15.36,15.5-15.36a15.59,15.59,0,0,1,7.05,1.43v4.72a14.92,14.92,0,0,0-6.7-1.43c-7.71,0-10.85,4.86-10.85,10.62s3.2,10.61,11,10.61a18.64,18.64,0,0,0,6.74-1.07Z"/><path d="M226.18,80.72v-42h5.1V65L244,51.08h6.65L236.73,65.66l14.55,15.06h-6.94L231.28,66.85V80.72Z"/><path d="M268.16,81.32c-11.09,0-16-6.41-16-15.5s5-15.37,14-15.37S279,56.8,279,65.82v2.34H257.35c.71,5,4,8.3,11,8.3a26.17,26.17,0,0,0,9-1.61v4.72C274.92,80.84,271.19,81.32,268.16,81.32ZM257.31,63.8h16.55c-.3-5.52-2.79-8.66-7.9-8.66-5.39,0-8.11,3.47-8.65,8.63Z"/><path d="M296.8,75.92a16.4,16.4,0,0,0,3.2-.41v4.91a12.48,12.48,0,0,1-3.44.48c-6.34,0-9.43-3.74-9.43-9.25V55.82h-4.8V51.1h4.8V44.79h5v6.28H300v4.72h-7.87V71.53C292.12,74.15,293.66,75.92,296.8,75.92Z"/><path d="M1.37,42.9A1.35,1.35,0,0,0,0,44.23a.86.86,0,0,0,0,.23L5.74,79.19a1.82,1.82,0,0,0,1.79,1.53H35a1.35,1.35,0,0,0,1.35-1.13l5.73-35.12A1.35,1.35,0,0,0,41,42.92H1.37ZM25.45,68H16.69L14.32,55.62H27.57Z"/></svg>