<?xml version="1.0" encoding="UTF-8"?><svg id="a" xmlns="http://www.w3.org/2000/svg" viewBox="0 0 347.01 80"><path d="m9.11,19.03h7.58c6.92,0,9.91,2.19,9.91,6.63,0,3.86-3.06,6.48-9.11,6.48h-8.3v-13.11h-.07ZM0,62.52h18.5c9.69,0,19.45-3.5,19.45-14.64,0-6.63-4.66-11.65-11.07-12.38v-.15c5.32-1.6,8.89-5.46,8.89-11.22,0-9.32-7.94-12.89-15.73-12.89H0v51.28Zm9.11-22.58h8.74c7.43,0,10.85,1.89,10.85,7.28,0,6.77-6.56,7.58-11.22,7.58h-8.38v-14.86Z" style="stroke-width:0px;"/><path d="m43.85,10h8.67v52.52h-8.67V10h0Z" style="stroke-width:0px;"/><path d="m67.09,45.11c0-5.46,3.86-10.42,10.2-10.42s10.2,5.03,10.2,10.42-3.86,10.42-10.2,10.42c-6.34.07-10.2-4.95-10.2-10.42Zm-8.67,0c0,10.93,8.38,18.28,18.94,18.28s18.94-7.36,18.94-18.28-8.38-18.28-18.94-18.28c-10.56.07-18.94,7.36-18.94,18.28h0Z" style="stroke-width:0px;"/><path d="m108.9,45.11c0-5.46,3.86-10.42,10.2-10.42s10.2,5.03,10.2,10.42-3.86,10.42-10.2,10.42c-6.41.07-10.2-4.95-10.2-10.42Zm-8.74,0c0,10.93,8.38,18.28,18.94,18.28s18.94-7.36,18.94-18.28-8.38-18.28-18.94-18.28c-10.49.07-18.94,7.36-18.94,18.28Z" style="stroke-width:0px;"/><path d="m143.35,27.77h8.23v5.46h.15c1.53-3.28,4.88-6.34,10.63-6.34,5.39,0,9.03,2.11,10.85,6.48,2.55-4.44,6.26-6.48,11.44-6.48,9.25,0,12.53,6.63,12.53,14.93v20.76h-8.67v-19.74c0-4.37-1.31-8.09-6.48-8.09-5.46,0-7.5,4.52-7.5,8.96v18.87h-8.67v-20.76c0-4.3-1.75-7.14-5.97-7.14-5.75,0-7.94,4.22-7.94,8.81v19.01h-8.67V27.77h.07Z" style="stroke-width:0px;"/><path d="m233.16,45.11c0,5.46-3.86,10.42-10.2,10.42s-10.2-5.03-10.2-10.42,3.86-10.42,10.2-10.42,10.2,5.03,10.2,10.42Zm-28.84,17.41h8.23v-5.24h.15c2.55,4.22,7.14,6.12,11.95,6.12,10.71,0,17.19-7.94,17.19-18.28s-6.92-18.28-16.83-18.28c-6.56,0-9.98,3.06-11.8,5.32h-.22V10h-8.67v52.52Z" style="stroke-width:0px;"/><path d="m254.51,41.69c.66-5.03,3.86-8.23,8.96-8.23,5.46,0,8.74,3.21,8.81,8.23h-17.77,0Zm26.51,6.48v-2.4c0-12.09-6.63-18.94-16.32-18.94-10.49,0-18.94,7.36-18.94,18.28s8.38,18.28,18.94,18.28c5.54,0,10.63-1.97,14.71-6.99l-6.26-4.73c-2.19,2.7-5.03,4.73-9.32,4.73-4.88,0-8.74-3.13-9.32-8.23h26.51,0Z" style="stroke-width:0px;"/><path d="m286.7,27.77h8.67v5.54h.15c1.89-4.01,5.75-6.41,10.27-6.41,1.09,0,2.11.22,3.13.51v8.38c-1.46-.36-2.84-.66-4.22-.66-8.16,0-9.32,6.92-9.32,8.74v18.65h-8.67V27.77h0Z" style="stroke-width:0px;"/><path d="m328.44,34.69c6.34,0,10.27,4.22,10.27,10.2s-3.93,10.2-10.34,10.2c-5.9,0-10.2-4.59-10.2-10.05,0-6.12,4.15-10.34,10.27-10.34h0Zm10.27-6.92v5.24h-.15c-2.55-4.22-7.14-6.12-11.95-6.12-10.71,0-17.19,8.01-17.19,18.28s6.92,17.85,17.34,17.85c4.37,0,8.81-1.68,11.36-5.1h.15v2.55c0,6.92-2.62,11.65-11,11.65-4.88,0-8.45-1.82-11.95-5.03l-5.24,7.14c4.95,4.37,10.78,5.75,17.26,5.75,13.55,0,19.67-7.94,19.67-20.54v-31.69h-8.3,0Z" style="stroke-width:0px;"/></svg>