<?xml version="1.0" encoding="UTF-8" standalone="no"?>
<!-- Uploaded to: SVG Repo, www.svgrepo.com, Generator: SVG Repo Mixer Tools -->

<svg fill="#000000" height="32" width="32" version="1.1" id="Icon" viewBox="0 0 0.96 0.96" enable-background="new 0 0 24 24" xml:space="preserve" sodipodi:docname="bloomberg-svgrepo-com.svg" inkscape:version="1.4-beta2 (9aaf4f34, 2024-07-30)" xmlns:inkscape="http://www.inkscape.org/namespaces/inkscape" xmlns:sodipodi="http://sodipodi.sourceforge.net/DTD/sodipodi-0.dtd" xmlns="http://www.w3.org/2000/svg" xmlns:svg="http://www.w3.org/2000/svg"><defs id="defs1" /><sodipodi:namedview id="namedview1" pagecolor="#ffffff" bordercolor="#000000" borderopacity="0.25" inkscape:showpageshadow="2" inkscape:pageopacity="0.0" inkscape:pagecheckerboard="0" inkscape:deskcolor="#d1d1d1" inkscape:zoom="3.2915031" inkscape:cx="6.0762513" inkscape:cy="49.065729" inkscape:window-width="1440" inkscape:window-height="872" inkscape:window-x="0" inkscape:window-y="0" inkscape:window-maximized="1" inkscape:current-layer="Icon" />
<path d="M 0.7268,0.4356 C 0.7596,0.4168 0.8396,0.3952 0.8396,0.2376 0.8396,0.0112 0.5776,0 0.5776,0 h -0.498 v 0.96 c 0,0 0.3312,0 0.5212,0 0.1764,0 0.2796,-0.1172 0.2796,-0.288 0,-0.1628 -0.1168,-0.2132 -0.1536,-0.2364 z M 0.3196,0.2 H 0.502 c 0,0 0.07,0.0052 0.07,0.0792 0,0.074 -0.0492,0.0808 -0.07,0.0808 -0.0208,0 -0.1824,0 -0.1824,0 z m 0.2068,0.56 c -0.024,0 -0.2068,0 -0.2068,0 v -0.2 h 0.2068 c 0,0 0.0824,0.004 0.0824,0.0992 C 0.6088,0.7404 0.55,0.76 0.5264,0.76 Z" id="path1" style="stroke-width:0.04;fill:#000000" />
</svg>
