<svg xmlns="http://www.w3.org/2000/svg" xml:space="preserve" style="fill-rule:evenodd;clip-rule:evenodd;stroke-linejoin:round;stroke-miterlimit:2" viewBox="0 0 32 32"><path d="M9.841 4.864h4.727c4.318 0 6.182 1.364 6.182 4.136 0 2.409-1.909 4.045-5.682 4.045H9.886V4.863h-.045ZM4.159 32h11.545c6.045 0 12.136-2.182 12.136-9.136 0-4.136-2.909-7.273-6.909-7.727v-.091c3.318-1 5.545-3.409 5.545-7 0-5.818-4.955-8.045-9.818-8.045h-12.5v32Zm5.682-14.091h5.455c4.636 0 6.773 1.182 6.773 4.545 0 4.227-4.091 4.727-7 4.727H9.842v-9.273Z" style="fill-rule:nonzero"/></svg>