<svg viewBox="0 0 90.566269 80" xmlns="http://www.w3.org/2000/svg" >
<g style="fill:currentColor" transform="matrix(1.415098,0,0,1.415098,-1.1365366e-7,2.2905096e-4)"><path d="M 13.873,3.805 C 21.21,9.332 29.103,20.537 32,26.55 v 15.882 c 0,-0.338 -0.13,0.044 -0.41,0.867 -1.512,4.456 -7.418,21.847 -20.923,7.944 C 3.556,43.923 6.848,36.603 19.792,34.393 12.387,35.657 4.062,33.568 1.778,25.378 1.12,23.022 0,8.51 0,6.55 0,-3.268 8.579,-0.182 13.873,3.805 Z m 36.254,0 C 42.79,9.332 34.897,20.537 32,26.55 v 15.882 c 0,-0.338 0.13,0.044 0.41,0.867 1.512,4.456 7.418,21.847 20.923,7.944 7.111,-7.32 3.819,-14.64 -9.125,-16.85 7.405,1.264 15.73,-0.825 18.014,-9.015 C 62.88,23.022 64,8.51 64,6.55 64,-3.268 55.422,-0.182 50.127,3.805 Z" /></g></svg>
