<?xml version="1.0" encoding="UTF-8" standalone="no"?>
<svg class="w-[32px] h-auto mr-3" fill="none" viewBox="0 0 32 32" version="1.1" id="svg1" sodipodi:docname="bluesky.svg" width="32" height="32" inkscape:version="1.4-beta2 (9aaf4f34, 2024-07-30)" xmlns:inkscape="http://www.inkscape.org/namespaces/inkscape" xmlns:sodipodi="http://sodipodi.sourceforge.net/DTD/sodipodi-0.dtd" xmlns="http://www.w3.org/2000/svg" xmlns:svg="http://www.w3.org/2000/svg" xmlns:rdf="http://www.w3.org/1999/02/22-rdf-syntax-ns#" xmlns:cc="http://creativecommons.org/ns#" xmlns:dc="http://purl.org/dc/elements/1.1/">
  <defs id="defs1" />
  <sodipodi:namedview id="namedview1" pagecolor="#ffffff" bordercolor="#000000" borderopacity="0.25" inkscape:showpageshadow="2" inkscape:pageopacity="0.0" inkscape:pagecheckerboard="0" inkscape:deskcolor="#d1d1d1" inkscape:zoom="5.7271314" inkscape:cx="18.857608" inkscape:cy="22.087847" inkscape:window-width="1440" inkscape:window-height="790" inkscape:window-x="0" inkscape:window-y="0" inkscape:window-maximized="1" inkscape:current-layer="svg1" />
  <title id="title1">Bluesky butterfly logo</title>
  <path fill="currentColor" d="M 6.9363944,3.8087495 C 10.605127,6.5630594 14.551042,12.147679 16,15.144468 17.448958,12.147735 21.394873,6.5630594 25.063606,3.8086932 27.710761,1.8214256 32,0.28367915 32,5.1768059 c 0,0.9772394 -0.560282,8.2091831 -0.888901,9.3833801 -1.142254,4.081859 -5.304507,5.122986 -9.007043,4.492845 6.471831,1.101409 8.118141,4.749859 4.562592,8.39831 C 19.913972,34.380468 16.961183,25.712806 16.204563,23.491848 16.065859,23.084693 16.000958,22.894214 16,23.056186 c -9.58e-4,-0.161972 -0.06586,0.02851 -0.204563,0.435662 -0.75662,2.220958 -3.709409,10.88862 -10.4620849,3.959493 C 1.7778028,23.80289 3.4240563,20.15444 9.8959437,19.052975 6.1934085,19.683116 2.0311549,18.641989 0.88890141,14.56013 0.56028169,13.385933 0,6.1539326 0,5.1767495 0,0.28367915 4.2892958,1.8213693 6.9363944,3.8087495 Z" id="path1" style="stroke-width:0.056338" />
  <metadata id="metadata1">
    <rdf:RDF>
      <cc:Work rdf:about="">
        <dc:title>Bluesky butterfly logo</dc:title>
      </cc:Work>
    </rdf:RDF>
  </metadata>
</svg>
