<svg class="w-[32px] h-auto mr-3" fill="none" width="32" height="32" xmlns="http://www.w3.org/2000/svg">
  <path fill="currentColor" d="M6.936 3.809c3.67 2.754 7.615 8.339 9.064 11.335 1.449-2.996 5.395-8.58 9.064-11.335C27.71 1.82 32 .284 32 5.177c0 .977-.56 8.209-.889 9.383-1.142 4.082-5.304 5.123-9.007 4.493 6.472 1.101 8.118 4.75 4.563 8.398-6.753 6.93-9.706-1.738-10.462-3.96-.14-.406-.204-.597-.205-.435-.001-.162-.066.029-.205.436-.756 2.22-3.709 10.888-10.462 3.96-3.555-3.65-1.909-7.298 4.563-8.399-3.703.63-7.865-.411-9.007-4.493C.56 13.386 0 6.154 0 5.177 0 .284 4.29 1.82 6.936 3.809Z" style="stroke-width:.056338"/>
</svg>