<?xml version="1.0" encoding="UTF-8" standalone="no"?>
<!DOCTYPE svg PUBLIC "-//W3C//DTD SVG 1.1//EN" "http://www.w3.org/Graphics/SVG/1.1/DTD/svg11.dtd">
<!-- Created with Vectornator (http://vectornator.io/) -->
<svg height="100%" stroke-miterlimit="10" style="fill-rule:nonzero;clip-rule:evenodd;stroke-linecap:round;stroke-linejoin:round;" version="1.1" viewBox="0 0 280 80" width="100%" xml:space="preserve" xmlns="http://www.w3.org/2000/svg" xmlns:xlink="http://www.w3.org/1999/xlink">
<defs/>
<g id="Sem-Título">
<g opacity="1">
<path d="M17.1504 9.7103C26.2161 16.539 36.0275 30.4319 39.5988 37.8886L39.5988 57.5506C39.5988 57.1189 39.4418 57.5898 39.0886 58.6102C37.2048 64.1438 29.9052 85.6503 13.1866 68.4608C4.3956 59.3951 8.47714 50.3294 24.4893 47.5822C15.3059 49.152 5.02353 46.5618 2.19786 36.4365C1.3737 33.5323 0.000108306 15.5579 0.000108306 13.1247C-0.0391372 0.958555 10.5964 4.76537 17.1504 9.7103ZM62.0472 9.7103C52.9815 16.539 43.1702 30.4319 39.5988 37.8886L39.5988 57.5506C39.5988 57.1189 39.7558 57.5898 40.109 58.6102C41.9928 64.1438 49.2925 85.6503 66.011 68.4608C74.802 59.3951 70.7205 50.3294 54.7083 47.5822C63.8918 49.152 74.1741 46.5618 76.9998 36.4365C77.8239 33.5323 79.1975 15.5579 79.1975 13.1247C79.1975 0.958555 68.6012 4.76537 62.0472 9.7103Z" fill="#000000" fill-rule="nonzero" opacity="1" stroke="none"/>
<path d="M118.835 37.1429C123.192 38.7127 125.507 42.2841 125.507 46.3264C125.507 53.1551 120.955 57.2758 112.203 57.2758L94.307 57.2758L94.307 19.0507L111.575 19.0507C119.895 19.0507 123.937 23.2892 123.937 28.9406C123.937 32.7082 122.211 35.4161 118.835 37.1429ZM111.026 25.016L101.528 25.016L101.528 34.9844L111.026 34.9844C114.715 34.9844 116.716 33.0614 116.716 29.8432C116.716 26.8998 114.675 25.016 111.026 25.016ZM101.528 51.2713L111.771 51.2713C115.853 51.2713 118.051 49.3875 118.051 46.0124C118.051 42.4803 115.971 40.7142 111.771 40.7142L101.528 40.7142L101.528 51.2713ZM135.515 57.2758L128.765 57.2758L128.765 19.0507L135.515 19.0507L135.515 57.2758ZM157.963 45.1097L157.963 29.6078L164.713 29.6078L164.713 57.3151L158.159 57.3151L158.159 53.2728C156.079 56.3732 153.175 57.943 149.447 57.943C143.599 57.943 139.793 54.4109 139.793 47.9747L139.793 29.6078L146.543 29.6078L146.543 46.8365C146.543 50.3294 148.27 52.0954 151.762 52.0954C155.059 52.0562 157.963 49.6622 157.963 45.1097ZM195.521 43.9324L195.521 45.5414L174.8 45.5414C175.271 50.3294 177.9 52.6841 181.981 52.6841C185.082 52.6841 187.201 51.3498 188.3 48.7203L194.776 48.7203C193.323 54.3717 188.496 57.943 181.903 57.943C177.782 57.943 174.446 56.6087 171.935 53.9792C169.423 51.3498 168.128 47.8569 168.128 43.4614C168.128 39.1052 169.344 35.6123 171.895 32.9436C174.407 30.3142 177.704 28.9798 181.824 28.9798C186.024 28.9798 189.36 30.3927 191.793 33.1006C194.305 35.8086 195.521 39.4584 195.521 43.9324L195.521 43.9324ZM181.785 34.1995C178.096 34.1995 175.506 36.358 174.878 40.7927L188.771 40.7927C188.182 36.7897 185.71 34.1995 181.785 34.1995L181.785 34.1995ZM210.513 58.0215C202.468 58.0215 198.229 54.8426 197.837 48.4456L204.43 48.4456C204.822 51.8992 206.51 53.1551 210.591 53.1551C214.241 53.1551 216.086 52.0169 216.086 49.8192C216.086 47.8177 214.791 46.8758 210.67 46.1694L207.491 45.6199C201.408 44.5995 198.425 41.8131 198.425 37.2606C198.425 32.041 202.546 28.9013 209.924 28.9013C217.813 28.9013 221.894 32.0017 222.169 38.281L215.772 38.281C215.615 34.9059 213.613 33.7285 209.924 33.7285C206.706 33.7285 205.097 34.7882 205.097 36.9467C205.097 38.8697 206.51 39.7331 209.728 40.3218L213.221 40.8712C219.932 42.0878 222.836 44.5603 222.836 49.309C222.836 54.9211 218.323 58.0215 210.513 58.0215ZM252.506 57.2758L244.774 57.2758L236.729 44.4033L232.53 48.6026L232.53 57.3151L225.858 57.3151L225.858 19.09L232.53 19.09L232.53 41.1067L243.793 29.6078L251.838 29.6078L241.399 40.0471L252.506 57.2758ZM270.166 36.5542L272.442 29.5685L279.546 29.5685L268.871 59.5128C267.733 62.574 266.359 64.7717 264.593 66.0276C262.827 67.2442 260.315 67.8329 256.98 67.8329C255.842 67.8329 254.9 67.7936 254.036 67.6759L254.036 62.3385L256.626 62.3385C259.688 62.3385 261.179 60.4547 261.179 57.8645C261.179 56.5694 260.747 54.6856 259.884 52.2917L251.917 29.5293L259.099 29.5293L261.336 36.4365C262.984 41.6561 264.436 46.7973 265.731 51.8992C266.909 47.5822 268.4 42.4018 270.166 36.5542L270.166 36.5542Z" fill="#000000" fill-rule="nonzero" opacity="1" stroke="none"/>
</g>
</g>
</svg>
