<?xml version="1.0" encoding="UTF-8" standalone="no"?>
<svg width="32" height="32" viewBox="0 0 32 32" fill="none" version="1.1" id="svg10" xmlns="http://www.w3.org/2000/svg" xmlns:svg="http://www.w3.org/2000/svg">
  <defs id="defs10" />
  <g id="g10" transform="matrix(0.61696341,0,0,0.61696341,5.522388,-11.421967)">
    <path d="m 15.9509,37.9468 c 0,-1.5929 1.4285,-2.8673 3.0156,-2.6283 8.4913,1.2743 14.9986,8.6017 14.9986,17.5221 0,13.8584 -11.11,16.8849 -15.8715,17.5221 -1.1904,0.1593 -2.1427,-0.7965 -2.1427,-1.9115 0,-0.0796 0,-22.4602 0,-30.5044 z" fill="#FA6300" id="path8" style="fill:#000000" />
    <path d="m 1.98394,53.9557 h 7.85643 c 3.33303,0 6.03123,-2.708 6.03123,-6.0531 V 20.5043 c 0,-1.115 -0.873,-1.9911 -1.984,-1.9911 H 10.3165 C 4.60275,18.5132 0,23.1327 0,28.8672 v 23.0177 c 0,1.115 0.872936,2.0708 1.98394,2.0708 z" fill="white" id="path9" style="fill:#000000" />
  </g>
</svg>
