<?xml version="1.0" encoding="UTF-8" standalone="no"?>
<svg id="a" viewBox="0 0 32 32" version="1.1" sodipodi:docname="bne.svg" width="32" height="32" inkscape:version="1.4-beta2 (9aaf4f34, 2024-07-30)" xmlns:inkscape="http://www.inkscape.org/namespaces/inkscape" xmlns:sodipodi="http://sodipodi.sourceforge.net/DTD/sodipodi-0.dtd" xmlns="http://www.w3.org/2000/svg" xmlns:svg="http://www.w3.org/2000/svg">
  <defs id="defs28" />
  <sodipodi:namedview id="namedview28" pagecolor="#ffffff" bordercolor="#000000" borderopacity="0.25" inkscape:showpageshadow="2" inkscape:pageopacity="0.0" inkscape:pagecheckerboard="0" inkscape:deskcolor="#d1d1d1" inkscape:zoom="1.023388" inkscape:cx="98.691799" inkscape:cy="50.323046" inkscape:window-width="1440" inkscape:window-height="790" inkscape:window-x="0" inkscape:window-y="0" inkscape:window-maximized="1" inkscape:current-layer="a" />
  <g id="g28" transform="matrix(0.29753603,0,0,0.29753603,-1.3249998e-8,4.0970711)">
    <path d="m 98.17,47.94 c 0.19,-1.05 0.28,-2.11 0.28,-3.18 0,-9.22 -7.06,-16.68 -15.87,-16.68 -8.81,0 -15.87,7.46 -15.87,16.68 0,9.22 7.15,16.67 15.86,16.67 h 0.92 c 3.41,-0.21 6.66,-1.55 9.23,-3.8 l 0.3,-0.33 0.07,-0.07 0.23,-0.22 0.1,-0.09 0.2,-0.21 0.1,-0.1 0.21,-0.22 0.09,-0.1 c 0.28,-0.31 0.55,-0.65 0.83,-1.01 l -4.86,-4.15 c -0.75,1.09 -1.73,2 -2.87,2.68 -1.14,0.68 -2.41,1.1 -3.72,1.24 H 81.56 C 79.69,54.77 77.95,53.96 76.54,52.7 75.13,51.45 74.11,49.81 73.62,47.99 L 98.17,47.95 Z M 81.52,34.5 h 2.12 c 1.87,0.28 3.61,1.09 5.02,2.35 1.41,1.25 2.42,2.89 2.92,4.71 h -18 c 0.5,-1.82 1.51,-3.46 2.92,-4.71 1.41,-1.25 3.16,-2.07 5.02,-2.35 z" style="fill:#000000;stroke-width:0px" id="path1" />
    <path d="m 104.32,31.58 c -2.29,-4.11 -5.66,-7.52 -9.75,-9.85 l -2.93,5.64 c 2.54,1.51 4.72,3.58 6.36,6.04 1.64,2.46 2.72,5.26 3.15,8.19 h 6.4 c -0.41,-3.52 -1.5,-6.92 -3.23,-10.01 z" style="fill:#000000;stroke-width:0px" id="path2" />
    <path d="m 15.88,28.06 c -3.46,0 -6.82,1.18 -9.53,3.34 V 18.56 H 0 v 26.22 c 0,9.21 7.12,16.67 15.88,16.67 8.76,0 15.88,-7.46 15.88,-16.67 0,-9.21 -7.11,-16.72 -15.88,-16.72 z m 0,26.99 c -5.26,0 -9.53,-4.62 -9.53,-10.31 0,-5.69 4.27,-10.32 9.53,-10.32 5.26,0 9.53,4.62 9.53,10.32 0,5.7 -4.27,10.35 -9.53,10.35 v -0.03 z" style="fill:#000000;stroke-width:0px" id="path3" />
    <path d="m 49.22,28.06 c -3.46,0 -6.82,1.18 -9.53,3.34 v -3.34 h -6.34 v 33.37 h 6.34 V 44.76 c 0,-5.71 4.28,-10.32 9.53,-10.32 5.25,0 9.53,4.62 9.53,10.32 V 61.43 H 65.1 V 44.76 c 0,-9.22 -7.11,-16.71 -15.88,-16.71 z" style="fill:#000000;stroke-width:0px" id="path4" />
  </g>
</svg>
