<?xml version="1.0" encoding="UTF-8" standalone="no"?>
<!-- Generator: Adobe Illustrator 23.0.1, SVG Export Plug-In . SVG Version: 6.00 Build 0)  -->

<svg version="1.1" id="Layer_1" x="0px" y="0px" viewBox="0 0 32 32" xml:space="preserve" sodipodi:docname="booking.svg" width="32" height="32" inkscape:version="1.4-beta2 (9aaf4f34, 2024-07-30)" xmlns:inkscape="http://www.inkscape.org/namespaces/inkscape" xmlns:sodipodi="http://sodipodi.sourceforge.net/DTD/sodipodi-0.dtd" xmlns="http://www.w3.org/2000/svg" xmlns:svg="http://www.w3.org/2000/svg"><defs id="defs2" /><sodipodi:namedview id="namedview2" pagecolor="#ffffff" bordercolor="#000000" borderopacity="0.25" inkscape:showpageshadow="2" inkscape:pageopacity="0.0" inkscape:pagecheckerboard="0" inkscape:deskcolor="#d1d1d1" inkscape:zoom="3.1155595" inkscape:cx="17.65333" inkscape:cy="13.962179" inkscape:window-width="1440" inkscape:window-height="872" inkscape:window-x="0" inkscape:window-y="0" inkscape:window-maximized="1" inkscape:current-layer="Layer_1" />
<style type="text/css" id="style1">
	.st0{fill:#273C7E;}
	.st1{fill:#4D9ED7;}
</style>
<g id="g2" style="fill:#000000" transform="scale(0.032)">
	<path class="st0" d="M 366.4,831.2 H 198.6 V 630.5 c 0,-42.8 16.5,-65.8 53.3,-70.4 h 115.2 c 68.8,-5.7 129.2,45.5 134.9,114.3 0.6,7 0.6,14 0,21 0,85.5 -51.7,136.5 -134.9,136.5 z M 198.3,288.6 V 236 c 0,-46.1 19.7,-68.4 62.5,-71.1 H 347 c 73.7,0 118.5,44.1 118.5,118.5 0,55.9 -30.3,121.7 -115.2,121.7 H 198.9 Z m 383,200.7 -30.3,-17.1 26.3,-23 C 608.2,422.9 659.6,363 659.6,260 659.6,102 537.2,0 348,0 H 107.8 C 51.4,2 6.6,48 6.1,104.3 v 895 h 346.1 c 210.6,0 346.1,-114.5 346.1,-292.2 0,-95.4 -43.8,-177.7 -117.8,-218.8" id="path1" style="fill:#000000" />
	<path class="st1" d="m 753,879.2 c 0,-66.8 53.6,-120.8 120.1,-120.8 66.5,0 120.8,54 120.8,120.8 0,66.8 -54,120.8 -120.8,120.8 C 806.3,1000 753,946 753,879.2" id="path2" style="fill:#000000" />
</g>
</svg>
