<svg id="svg3769" xmlns="http://www.w3.org/2000/svg" viewBox="0 0 300 120"><title>booking</title><path d="M300,74.2c-1.32,0-2.65,0-4,0-2.5-.1-3.65-1.28-3.67-3.78,0-4,0-8,0-12a14.56,14.56,0,0,0-.14-2.19c-.43-2.51-2.07-3.48-4.49-2.56-3,1.16-4.25,3.75-4.44,6.69-.26,4-.14,8-.19,12,0,.58,0,1.15,0,1.79h-7.65V72.38c0-5.07,0-10.15-.11-15.23,0-1.6-.51-3.08-2.21-3.62a4.12,4.12,0,0,0-4.49,1.41,9.87,9.87,0,0,0-2.43,6.6c-.1,3.61-.06,7.23-.07,10.85v1.7h-7.48v-27c4.34-.71,6.09-.07,7.55,2.86a10.65,10.65,0,0,1,8.16-3.66,8,8,0,0,1,7.48,4.57,11.93,11.93,0,0,1,6.41-4.26c5.95-1.42,10.12,1.11,11.52,7A1.2,1.2,0,0,0,300,54Z"/><path d="M20.93,54.16a9.28,9.28,0,0,1,5.37,7.6,10.1,10.1,0,0,1-6.15,10.9A17.68,17.68,0,0,1,14.34,74c-4.5.19-9,.06-13.53.05A6.63,6.63,0,0,1,0,73.92V40.77C0,38,1.51,36.35,4.31,36.38c4,0,8-.1,11.88.33a9.17,9.17,0,0,1,8.65,8.52,9.09,9.09,0,0,1-2.76,7.86C21.74,53.44,21.37,53.75,20.93,54.16ZM7.37,67.5c2.31,0,4.45,0,6.59,0,2.77,0,4.44-1.65,4.77-4.53a4.65,4.65,0,0,0-3.8-5.27,29.24,29.24,0,0,0-5-.2c-1.74,0-2.53.73-2.58,2.49C7.31,62.42,7.37,64.85,7.37,67.5Zm0-16c2.13,0,4.08.09,6,0a4.15,4.15,0,0,0,3.93-4.44,3.94,3.94,0,0,0-3.8-4.32,37,37,0,0,0-3.8-.06A2.15,2.15,0,0,0,7.41,45C7.35,47.11,7.4,49.24,7.4,51.55Z"/><path d="M161.77,82.21c.58-1.44,1-2.72,1.61-3.95.78-1.71,1.52-2,3.4-1.5,2.47.69,4.93,1.28,7.51.67,2.87-.67,4.33-2.54,4.2-5.23-2,.47-4,1.28-6,1.35-6.92.24-12-4.23-12.79-11.11-.55-4.61,0-9,3.29-12.61,4.1-4.46,10.8-5,16.3-1.26,1.87-2.51,4.51-1.83,7.08-1.73,0,9.19.23,18.28-.1,27.34-.16,4.36-3,7.47-7,9.16C173.35,85.78,167.61,85,161.77,82.21Zm5.65-22.57a30.7,30.7,0,0,0,1.34,4.27A4.94,4.94,0,0,0,174,66.65a4.42,4.42,0,0,0,4.29-3.77,19.58,19.58,0,0,0,.06-5.92,4.21,4.21,0,0,0-3.43-3.59C170.67,52.29,167.73,54.81,167.42,59.64Z"/><path d="M98.77,55.85a3.09,3.09,0,0,0,3.74-1.68c1.3-2.18,2.73-4.29,4.16-6.39a1.93,1.93,0,0,1,1.18-.86c2.73-.08,5.46,0,8.52,0-2.94,4.33-5.72,8.43-8.53,12.55l8.49,14.73c-2.6,0-5,.08-7.47,0A3.71,3.71,0,0,1,105.73,72c-1.37-2.53-2.79-5-4.08-7.62a2.15,2.15,0,0,0-2.82-1.31v11h-8V36.48a50.23,50.23,0,0,1,5.35,0c1.69.17,2.51,1.26,2.54,3.22.08,3.52,0,7,0,10.55Z"/><path d="M156.89,74.2c-1.38,0-2.7,0-4,0-2.61-.06-3.87-1.3-3.9-3.91,0-3.71,0-7.42,0-11.14,0-.63,0-1.26-.09-1.89-.27-3.13-1.81-4.21-4.86-3.42s-5.09,3.59-5.14,7.49c0,3.71,0,7.43,0,11.14v1.66H131V47c4.57-.76,6.33-.2,7.81,2.54.23-.17.46-.33.67-.52,3.71-3.19,7.94-3.64,12.36-2,3.54,1.34,4.95,4.41,5,7.92C157,61.35,156.89,67.68,156.89,74.2Z"/><path d="M73.69,46.29c8.37,0,14.37,5.91,14.4,14.12s-6.15,14.3-14.61,14.23S59.13,68.58,59.17,60.27C59.21,52.12,65.29,46.26,73.69,46.29ZM67.06,60.43c0,.3,0,.59,0,.88a6.83,6.83,0,0,0,4.67,6.29,6.48,6.48,0,0,0,7-2.18c2.21-2.8,2-7.9-.5-10.43a6.88,6.88,0,0,0-2.57-1.6C71.11,51.86,67.06,55.22,67.06,60.43Z"/><path d="M241.41,46.29c8.45,0,14.5,5.87,14.52,14.13s-6.06,14.22-14.47,14.22-14.39-5.89-14.4-13.94C227,52.19,232.9,46.31,241.41,46.29Zm6.67,14.38c.1-3.31-1.61-6.21-4.25-7.21-4.73-1.79-9.25,1.93-9,7.38.2,3.65,2.34,6.4,5.4,6.92C244.61,68.49,247.93,65.48,248.08,60.67Z"/><path d="M28.48,60.48c0-8.37,5.92-14.21,14.4-14.19s14.47,5.93,14.47,14.2S51.18,74.68,42.8,74.64,28.48,68.73,28.48,60.48Zm21,.08c0-4-2.32-7.09-5.76-7.47-4.38-.49-7.85,3.16-7.45,7.85.32,3.66,2.42,6.33,5.36,6.82C46.05,68.49,49.42,65.4,49.46,60.56Z"/><path d="M225.05,56.36c-1.18,0-2.16-.06-3.12,0a3.63,3.63,0,0,1-4-2.22c-.66-1.4-2.3-1.37-3.66-1.22-4.52.49-7.28,4.28-6.55,8.89a7.43,7.43,0,0,0,8.88,6.08c2.11-.38,2.9-.82,6.72-3.66,1,1.63,2,3.23,2.93,4.88a1.22,1.22,0,0,1-.22,1.1c-5.23,5.45-14.91,6.22-21,1.42-5.73-4.53-6.89-13.59-2.49-19.56,4.16-5.64,13.2-7.56,19.36-4.13a5.49,5.49,0,0,1,3.13,5.23C225,54.16,225.05,55.13,225.05,56.36Z"/><path d="M118.66,46.92c1.59,0,3.15-.1,4.7,0a3.13,3.13,0,0,1,3.09,3.27c0,7.86,0,15.72,0,23.58a1.09,1.09,0,0,1-.14.32h-7.68Z"/><path d="M126.81,39.81a4.54,4.54,0,0,1-4.66,4.6,4.61,4.61,0,0,1-4.55-4.73,4.52,4.52,0,0,1,4.61-4.49A4.47,4.47,0,0,1,126.81,39.81Z"/><path d="M198.77,69.91a4.58,4.58,0,0,1-4.66,4.61,4.65,4.65,0,0,1-4.64-4.68,4.65,4.65,0,0,1,9.3.07Z"/></svg>