<?xml version="1.0" encoding="UTF-8"?><svg id="a" xmlns="http://www.w3.org/2000/svg" viewBox="0 0 270 80"><defs><style>.b{stroke-width:0px;}</style></defs><path class="b" d="m269.77,37.25c-1.26-5.3-5.01-7.58-10.37-6.3-2.29.61-4.32,1.95-5.77,3.83-1.23-2.59-3.87-4.2-6.73-4.11-2.81-.03-5.5,1.17-7.34,3.29-1.31-2.64-2.89-3.21-6.79-2.57v24.3h6.73v-1.53c0-3.26-.03-6.52.06-9.77-.03-2.18.75-4.3,2.19-5.94.95-1.23,2.56-1.73,4.04-1.27,1.53.49,1.99,1.82,1.99,3.26.1,4.57.1,9.14.1,13.71v1.59h6.89v-1.61c.04-3.6-.06-7.2.17-10.8.17-2.65,1.3-4.98,4-6.02,2.18-.83,3.65.05,4.04,2.3.09.65.13,1.31.13,1.97v10.8c.02,2.25,1.05,3.31,3.3,3.4h3.6v-18.18c-.1-.1-.17-.23-.23-.36Z"/><path class="b" d="m18.84,37.75c.4-.37.73-.65,1.04-.96,1.92-1.82,2.85-4.45,2.48-7.07-.29-4.15-3.63-7.44-7.79-7.67-3.49-.39-7.09-.3-10.69-.3-2.52-.03-3.88,1.46-3.88,3.95v29.83c.24.05.48.09.73.12,4.08,0,8.13.13,12.18-.04,1.8-.1,3.57-.51,5.23-1.21,3.89-1.6,6.18-5.65,5.53-9.81-.27-2.98-2.11-5.59-4.83-6.84Zm-12.17-8.53c.07-1.07,1-1.87,2.06-1.8,1.14-.04,2.28-.02,3.42.05.08,0,.16,0,.23.01,1.95.19,3.38,1.92,3.19,3.87,0,.03,0,.05,0,.08.1,2.06-1.48,3.81-3.54,3.92-1.72.08-3.47,0-5.37,0,0-2.06-.04-3.97,0-5.85,0-.1,0-.19,0-.29Zm10.19,16.46c-.3,2.59-1.8,4.08-4.29,4.08h-5.93c0-2.39-.05-4.57-.02-6.76.05-1.58.76-2.24,2.32-2.24,1.5-.07,3.01,0,4.5.18,2.24.39,3.76,2.5,3.42,4.74Z"/><path class="b" d="m161.36,32.72c-4.95-3.37-10.98-2.88-14.67,1.13-2.96,3.25-3.46,7.2-2.96,11.35.71,6.19,5.28,10.21,11.51,10,1.8-.06,3.6-.79,5.4-1.21.12,2.42-1.2,4.1-3.78,4.71-2.32.55-4.54.02-6.76-.6-1.69-.45-2.36-.19-3.06,1.35-.55,1.11-.93,2.26-1.45,3.56,5.26,2.51,10.42,3.21,15.75,1.02,3.6-1.52,6.16-4.32,6.3-8.24.3-8.15.09-16.34.09-24.61-2.31-.09-4.69-.7-6.37,1.56Zm-.9,12.88c-.29,1.92-1.92,3.36-3.86,3.39-1.94.31-3.86-.69-4.72-2.47-.49-1.25-.9-2.53-1.21-3.84.28-4.35,2.92-6.62,6.75-5.64,1.62.29,2.87,1.6,3.09,3.23.25,1.77.23,3.57-.05,5.33Z"/><path class="b" d="m97.06,31.23c-.44.11-.82.39-1.06.77-1.29,1.89-2.57,3.79-3.74,5.75-.58,1.28-2.02,1.93-3.37,1.51l-.04-5.04c0-3.19.07-6.33,0-9.49-.03-1.76-.77-2.74-2.29-2.9-1.6-.09-3.21-.09-4.81,0v33.83h7.2v-9.9s.06-.02.08-.03c1.01-.34,2.11.2,2.45,1.21,1.16,2.36,2.44,4.58,3.67,6.86.5,1.13,1.58,1.89,2.82,1.98,2.22.07,4.38,0,6.72,0l-7.64-13.26c2.53-3.71,5.03-7.4,7.68-11.29-2.75,0-5.21-.07-7.67,0Z"/><path class="b" d="m136.66,31.32c-3.98-1.48-7.79-1.07-11.12,1.8-.19.17-.4.31-.6.47-1.33-2.47-2.92-2.97-7.03-2.29v24.42h7.11v-11.52c.04-3.51,1.88-6.03,4.63-6.74,2.74-.71,4.13.26,4.37,3.08.08.57.08,1.13.08,1.7v10.03c.03,2.35,1.16,3.47,3.51,3.52h3.6c0-5.87.1-11.57-.04-17.33-.05-3.16-1.31-5.92-4.5-7.13Z"/><path class="b" d="m66.32,30.67c-7.56-.03-13.03,5.25-13.07,12.58-.04,7.48,5.27,12.87,12.88,12.93,7.61.06,13.18-5.42,13.15-12.81-.03-7.39-5.43-12.71-12.96-12.71Zm4.54,17.22c-1.49,1.89-4,2.67-6.3,1.96-2.45-.82-4.13-3.08-4.2-5.66v-.79c0-4.69,3.64-7.71,7.74-6.34.87.3,1.66.79,2.31,1.44,2.25,2.28,2.44,6.87.45,9.39Z"/><path class="b" d="m217.27,30.67c-7.66.02-12.97,5.31-12.92,12.97,0,7.24,5.39,12.55,12.96,12.55s13.04-5.36,13.02-12.8c-.02-7.43-5.46-12.72-13.07-12.72Zm-1.06,19.32c-2.75-.47-4.68-2.94-4.86-6.23-.23-4.91,3.84-8.25,8.1-6.64,2.38.9,3.91,3.51,3.83,6.49-.14,4.33-3.12,7.04-7.07,6.38Z"/><path class="b" d="m38.59,30.67c-7.63-.02-12.96,5.24-12.96,12.77s5.35,12.71,12.89,12.74c7.54.04,13.09-5.29,13.09-12.74s-5.39-12.76-13.02-12.78Zm5.92,12.84c-.04,4.36-3.07,7.14-7.05,6.48-2.65-.44-4.54-2.84-4.82-6.14-.36-4.22,2.76-7.51,6.71-7.06,3.1.34,5.18,3.12,5.18,6.72h-.02Z"/><path class="b" d="m200.99,46.81c-3.44,2.56-4.15,2.95-6.05,3.29-.11.02-.21.04-.32.06-3.65.59-7.08-1.89-7.67-5.53-.66-4.15,1.83-7.56,5.89-8,1.22-.13,2.7-.16,3.29,1.1.58,1.43,2.08,2.27,3.6,2,.86-.05,1.75,0,2.81,0,0-1.11-.04-1.98-.02-2.87.1-1.99-1.01-3.85-2.82-4.71-5.54-3.09-13.68-1.36-17.42,3.72-3.96,5.37-2.92,13.53,2.24,17.6,5.48,4.32,14.19,3.63,18.9-1.28.22-.28.3-.65.2-.99-.84-1.48-1.74-2.93-2.64-4.39Z"/><path class="b" d="m111.02,31.23c-1.39-.09-2.8,0-4.23,0l-.03,24.45h6.91c.06-.09.1-.19.13-.29v-21.22s0-.06,0-.09c.02-1.56-1.23-2.83-2.78-2.85Z"/><path class="b" d="m109.99,20.68s-.04,0-.05,0c-2.25-.01-4.08,1.8-4.09,4.04,0,.02,0,.04,0,.06-.03,2.29,1.8,4.17,4.1,4.2.05,0,.11,0,.16,0,2.26-.03,4.06-1.88,4.03-4.14,0-.09,0-.17,0-.26-.07-2.22-1.92-3.97-4.14-3.9Z"/><path class="b" d="m174.74,47.71c-2.31-.02-4.2,1.84-4.22,4.15,0,0,0,.01,0,.02,0,2.31,1.86,4.19,4.18,4.19.03,0,.07,0,.1,0,2.28-.02,4.11-1.87,4.09-4.15.02-2.31-1.84-4.2-4.15-4.22Z"/></svg>