<svg id="svg4" xmlns="http://www.w3.org/2000/svg" viewBox="0 0 200 80"><path id="path2" d="M43.14,39.45a6.27,6.27,0,0,0,3.64-5.54c0-4.4-3.39-6.92-9.31-6.92H26.29V52.92H38.36c5.8,0,9.41-2.81,9.41-7.32C47.77,42.55,45.76,40.52,43.14,39.45Zm-5.57-1H30.62V29.14h6.55c3.69,0,5.26,1.43,5.26,4.77S41,38.46,37.57,38.46Zm-6.95,12.3V40.62h6.89c2.17,0,5.83.65,5.83,5,0,3.58-1.58,5.1-5.3,5.1ZM0,41.82c0-6.18,4.71-11.2,10.53-11.2s10.53,5,10.53,11.2S16.33,53,10.53,53,0,48,0,41.81Zm4.08,0c0,5.65,2.41,9,6.45,9h0c4,0,6.43-3.38,6.43-9s-2.39-9-6.43-9-6.45,3.39-6.45,9Zm47.34,0c0-6.18,4.71-11.2,10.53-11.2s10.53,5,10.53,11.2S67.75,53,62,53s-10.53-5-10.53-11.2Zm4.08,0c0,5.65,2.41,9,6.45,9h0c4,0,6.43-3.38,6.43-9s-2.39-9-6.43-9-6.45,3.39-6.45,9ZM81.09,33H73.38V30.9H92.71V33H85V52.7H81.09V33Zm19.44-2.13h-3.9V52.7h3.9V30.9Zm14.86,19.9a6.17,6.17,0,0,0,6.15-4.2l.38-1.06,1.89.94-.31.86A8.34,8.34,0,0,1,115.22,53c-5.93,0-10.41-4.8-10.41-11.15s4.57-11.2,10.41-11.2a8.3,8.3,0,0,1,8.23,5.69l.3.86-1.89,1-.38-1.07a6.13,6.13,0,0,0-6.09-4.25c-4.06,0-6.48,3.35-6.48,9S111.33,50.8,115.39,50.8Zm49.41-2-1.13-3.31a5.59,5.59,0,0,0-2.42-2.89A5.79,5.79,0,0,0,165,37.2c0-3.94-3.15-6.29-8.43-6.29h-7.93V52.7h3.91V43.43H156c2.5,0,3.31,1,4,3l1.1,3.14a10.36,10.36,0,0,0,1.23,2.71l.29.43h5.26L166,50.94a5.25,5.25,0,0,1-1.21-2.19ZM152.59,33h3.76c3.28,0,4.69,1.25,4.69,4.19s-1.44,4.07-4.66,4.07h-3.79Zm18.15-2.13h3.9V52.7h-3.9V30.9Zm18.73-.28c-5.81,0-10.53,5-10.53,11.19S183.67,53,189.47,53,200,48,200,41.81,195.27,30.62,189.47,30.62Zm0,2.13c4,0,6.42,3.38,6.42,9s-2.4,9-6.42,9-6.47-3.37-6.47-9S185.43,32.75,189.47,32.75Zm-53.84-5.31h2.3l-1.78,4.23,9.34,21h-4.16L138,45.31h-7.7l-3.19,7.39h-2.28Zm-1.54,9-2.85,6.73h5.84Z"/></svg>