<?xml version="1.0" encoding="UTF-8" standalone="no"?>
<!-- Generator: Adobe Illustrator 24.1.1, SVG Export Plug-In . SVG Version: 6.00 Build 0)  -->

<svg version="1.1" id="Camada_1" x="0px" y="0px" viewBox="0 0 32.000002 32.000001" xml:space="preserve" sodipodi:docname="boticario.svg" width="32" height="32" inkscape:version="1.4-beta2 (9aaf4f34, 2024-07-30)" xmlns:inkscape="http://www.inkscape.org/namespaces/inkscape" xmlns:sodipodi="http://sodipodi.sourceforge.net/DTD/sodipodi-0.dtd" xmlns="http://www.w3.org/2000/svg" xmlns:svg="http://www.w3.org/2000/svg"><defs id="defs1" /><sodipodi:namedview id="namedview1" pagecolor="#ffffff" bordercolor="#000000" borderopacity="0.25" inkscape:showpageshadow="2" inkscape:pageopacity="0.0" inkscape:pagecheckerboard="0" inkscape:deskcolor="#d1d1d1" inkscape:zoom="3.7092696" inkscape:cx="9.9750096" inkscape:cy="55.401743" inkscape:window-width="1440" inkscape:window-height="790" inkscape:window-x="0" inkscape:window-y="0" inkscape:window-maximized="1" inkscape:current-layer="Camada_1" />
<style type="text/css" id="style1">
	.st0{fill:#6FA185;}
</style>
<path class="st0" d="M 20.722322,21.99631 C 23.899211,17.05627 24.114228,10.60037 18.690412,7.31598 V 5.07979 c 1.35998,-0.34403 2.86511,-0.60205 2.91349,-1.45137 0.0161,-0.30102 0.005,-0.88157 0,-1.98891 0,-1.09121 -2.96187,-1.62338 -5.60659,-1.63951 -2.63934,0.0161 -5.60121,0.5483 -5.60121,1.63951 -0.005,1.10734 -0.0161,1.68251 0,1.98891 0.0484,0.84932 1.54813,1.10734 2.91349,1.45137 v 2.23619 c -5.4238203,3.28439 -5.2088003,9.74029 -2.03192,14.68033 1.1611,1.88678 1.43524,3.7413 0.39241,5.74634 -0.33865,1.09122 -1.7308903,2.84361 -0.19351,3.53704 1.3546,0.47842 2.94036,0.72031 4.52612,0.72031 1.58575,0 3.17151,-0.24189 4.52612,-0.72031 1.532,-0.69343 0.14513,-2.44045 -0.19352,-3.53704 -1.04283,-2.01041 -0.77406,-3.85956 0.38703,-5.74634 z" id="path1" style="fill:#000000;stroke-width:0.0537543" />
</svg>
