<?xml version="1.0" encoding="UTF-8"?><svg id="a" xmlns="http://www.w3.org/2000/svg" viewBox="0 0 245.98 80"><defs><style>.c{stroke-width:0px;}</style></defs><path id="b" class="c" d="m53.06,39.32c2.67-1.23,4.41-3.87,4.48-6.81,0-5.41-4.17-8.51-11.45-8.51h-13.75v31.89h14.84c7.13,0,11.57-3.46,11.57-9,0-3.75-2.47-6.25-5.69-7.56Zm-6.85-1.23h-8.55v-11.45h8.06c4.54,0,6.47,1.76,6.47,5.87s-1.76,5.6-5.98,5.6h0Zm-8.55,15.13v-12.46h8.47c2.67,0,7.17.8,7.17,6.15,0,4.4-1.94,6.27-6.52,6.27l-9.13.04ZM0,42.24c0-7.6,5.79-13.77,12.95-13.77s12.95,6.15,12.95,13.77-5.82,13.75-12.95,13.75S0,49.84,0,42.23h0Zm5.02,0c0,6.95,2.96,11.07,7.93,11.07h0c4.92,0,7.91-4.16,7.91-11.07s-2.94-11.07-7.91-11.07-7.93,4.17-7.93,11.07Zm58.22,0c0-7.6,5.79-13.77,12.95-13.77s12.95,6.15,12.95,13.77-5.82,13.75-12.89,13.75-12.95-6.15-12.95-13.77l-.06.02Zm5.02,0c0,6.95,2.96,11.07,7.93,11.07h0c4.92,0,7.91-4.16,7.91-11.07s-2.94-11.07-7.91-11.07-7.93,4.17-7.93,11.07Zm31.47-10.85h-9.48v-2.58h23.77v2.58h-9.48v24.23h-4.81v-24.23Zm23.91-2.62h-4.8v26.85h4.8v-26.85Zm18.28,24.48c3.39.17,6.48-1.94,7.56-5.17l.47-1.3,2.32,1.16-.38,1.06c-1.45,4.34-5.61,7.2-10.18,7-7.29,0-12.8-5.9-12.8-13.71s5.62-13.77,12.8-13.77c4.56-.19,8.69,2.67,10.12,7l.37,1.06-2.32,1.23-.47-1.32c-1.04-3.23-4.1-5.37-7.49-5.23-4.99,0-7.97,4.12-7.97,11.07s2.98,10.97,7.97,10.97v-.04Zm60.77-2.46l-1.39-4.07c-.55-1.49-1.6-2.75-2.98-3.55,2.75-1.04,4.59-3.66,4.61-6.6,0-4.85-3.87-7.74-10.37-7.74h-9.75v26.8h4.81v-11.4h4.24c3.07,0,4.07,1.23,4.92,3.69l1.35,3.86c.34,1.18.85,2.3,1.51,3.33l.36.53h6.47l-2.31-2.18c-.71-.76-1.22-1.69-1.49-2.69v.02Zm-15.02-19.4h4.62c4.03,0,5.77,1.54,5.77,5.15s-1.77,5.01-5.73,5.01h-4.66v-10.16Zm22.32-2.62h4.8v26.85h-4.8v-26.85Zm23.04-.34c-7.15,0-12.95,6.15-12.95,13.76s5.82,13.8,12.95,13.8,12.95-6.15,12.95-13.76-5.82-13.76-12.95-13.76v-.04Zm0,2.62c4.92,0,7.9,4.16,7.9,11.07s-2.95,11.07-7.9,11.07-7.96-4.14-7.96-11.07,2.99-11.03,7.96-11.03v-.04Zm-66.22-6.53h2.83l-2.19,5.2,11.49,25.83h-5.12l-4.1-9.02h-9.47l-3.92,9.09h-2.8l13.28-31.1Zm-1.89,11.07l-3.51,8.28h7.18l-3.68-8.28Z"/></svg>