<?xml version="1.0" encoding="UTF-8" standalone="no"?>
<svg version="1.2" viewBox="0 0 32 32" width="32" height="32" id="svg1" xmlns="http://www.w3.org/2000/svg" xmlns:svg="http://www.w3.org/2000/svg" xmlns:rdf="http://www.w3.org/1999/02/22-rdf-syntax-ns#" xmlns:cc="http://creativecommons.org/ns#" xmlns:dc="http://purl.org/dc/elements/1.1/">
  <defs id="defs1" />
  <title id="title1">Banco_Bradesco_logo_(horizontal)-svg</title>
  <style id="style1">
		.s0 { fill: #cc092f } 
	</style>
  <g id="#cc092fff" style="fill:#000000" transform="matrix(0.02050371,0,0,0.02050371,-0.01531197,0.76577477)">
    <path id="Layer" class="s0" d="M 696.2,8.8 C 800.7,-9 909.9,0.3 1009.3,37.3 c 100.1,37 189.4,101.3 258.4,182.4 6.4,7.6 12.3,18.1 8,28.1 -5.2,11.6 -18.7,21.8 -31.8,16.9 -14.5,-6 -24.9,-18.5 -37.9,-26.9 -114.7,-82.3 -261.8,-118.6 -401.6,-98.4 -138,19.2 -267.4,93.4 -353,203.4 179,-30.5 362.7,-33.3 542.3,-6.1 100.5,15.5 200.1,40.4 293.8,80.3 57,24.5 112.1,54.7 160.3,94.2 39.3,32.4 74.4,71.7 95.1,118.8 19.1,42.7 23.7,91.7 12.6,137.1 -11.6,49.3 -40.2,93 -74.5,129.6 -60.5,63.7 -137.1,109.7 -216,147.1 -47.8,22.5 -97.2,41.5 -147.4,58.2 -9.4,3.1 -20,5.1 -29.4,1 -14.3,-5.8 -19.1,-27.8 -7.1,-38.1 11.9,-11.2 27.8,-16.4 42.2,-23.4 59.4,-27.5 116.9,-60.6 166.8,-103.3 33.4,-29.2 64.6,-63.5 79.8,-105.9 13.9,-38.1 6.8,-81.3 -12.5,-116.3 -23.9,-43.6 -62.5,-76.9 -103.5,-104 -81,-52.6 -173.5,-84.5 -266.6,-108.3 C 789.1,455 582.6,446.1 379.7,463.6 c -64.8,146.6 -53.8,322.5 23.9,462.1 26.8,48.5 61.3,92.8 102.6,129.8 6.8,6.2 13.8,14.3 12.7,24.3 -1.4,12.3 -11.6,24.6 -24.6,24.9 -11.6,0.1 -21.5,-6.9 -30.9,-12.9 -107.9,-70.5 -191.3,-177 -235.3,-298 -35,-96.6 -45.2,-202.9 -25.6,-303.9 -53.4,11.2 -106.7,23.8 -159.2,39.1 -7.6,1.9 -15.5,4.4 -23.4,2.4 -15,-3 -24.1,-22.4 -16.3,-35.7 5.5,-9.1 15.2,-14.1 24.2,-19 C 91.4,442.2 159.1,415.8 228,394.2 264.9,294.2 329.4,204.9 412,137.7 493.4,71.1 592.4,26.2 696.2,8.8 Z m 219.2,955.1 c 7.9,-4.8 18.9,-5.9 26.6,0 6.1,4.5 7.4,12.6 7.4,19.7 -0.1,159.1 0,318.3 -0.1,477.4 0.8,12.9 -10.1,25.4 -23.3,24.9 -44,0.1 -88.1,0 -132.2,0 0,-150.7 0,-301.3 0,-452 40.6,-23.3 81,-46.7 121.6,-70 z m -255.9,147.3 c 31,-18 62.2,-35.7 93.2,-53.6 q 0,214.1 0,428.3 c -31.3,-0.1 -62.6,0.2 -93.8,-0.1 -9.4,0.2 -15.4,-9.5 -14.4,-18.1 0,-109.7 0,-219.4 0,-329.1 -0.5,-11.1 5.1,-22.2 15,-27.4 z" style="fill:#000000" />
  </g>
  <metadata id="metadata1">
    <rdf:RDF>
      <cc:Work rdf:about="">
        <dc:title>Banco_Bradesco_logo_(horizontal)-svg</dc:title>
      </cc:Work>
    </rdf:RDF>
  </metadata>
</svg>
