<?xml version="1.0" encoding="UTF-8" standalone="no"?>
<svg viewBox="0 0 32 32" version="1.1" id="svg1" width="32" height="32" xmlns="http://www.w3.org/2000/svg" xmlns:svg="http://www.w3.org/2000/svg">
  <defs id="defs1" />
  <path fill-rule="evenodd" clip-rule="evenodd" d="M 2.177305,32 V 5.39025 L 29.822695,0 V 26.717765 Z M 22.925561,11.280863 c 0,1.781149 -1.23848,3.18451 -2.251858,3.724282 1.801502,0.215879 2.983649,1.349316 2.983649,3.022602 0,1.727179 -0.731791,2.860617 -1.745093,3.670313 -1.013378,0.80962 -2.589625,1.403285 -4.109616,1.67321 l -9.288714,1.5113 V 21.320197 L 10.03392,21.104318 V 13.115981 L 8.513929,13.33186 V 9.769486 L 16.564163,8.47414 c 1.351069,-0.215955 2.87106,-0.377864 3.996951,-0.10794 1.182224,0.269848 2.364447,1.187408 2.364447,2.914663 z m -6.755421,0.863589 -1.013302,0.161909 v 2.212982 l 1.013302,-0.161909 c 0.562945,-0.108015 0.788123,-0.161985 1.12589,-0.431833 0.337768,-0.269848 0.450357,-0.539772 0.450357,-0.917559 0,-0.377863 -0.112589,-0.647711 -0.450357,-0.80962 -0.337767,-0.161909 -0.562945,-0.161909 -1.12589,-0.05397 z m 1.801425,7.286581 c -0.337767,0.269924 -0.562945,0.377863 -1.125891,0.485802 l -1.745169,0.323894 v -2.428936 l 1.745169,-0.269848 c 0.562946,-0.10794 0.788124,-0.10794 1.125891,0.05397 0.337767,0.161909 0.450356,0.485803 0.450356,0.86359 0,0.323893 -0.112589,0.701681 -0.450356,0.971528 z" id="path2" style="stroke-width:0.0762282" />
</svg>
