<?xml version="1.0" encoding="UTF-8"?><svg id="a" xmlns="http://www.w3.org/2000/svg" viewBox="0 0 244.66 80"><defs><style>.b{fill-rule:evenodd;stroke-width:0px;}</style></defs><path class="b" d="m235.94,51.61c-1.84,2.35-4.81,3.53-8.78,3.53-6.99,0-11.68-3.71-12.33-9.7h29.81c.13-3.04-.41-6.06-1.57-8.87-2.51-5.78-8.68-9.24-16.37-9.24-10.6,0-18.01,6.79-18.01,16.48s7.19,16.17,17.87,16.17c8.55,0,14.29-3.46,17.49-10.5h-3.68c-1.73,0-3.36.78-4.44,2.13Zm-9.3-19.52c5.87,0,10.11,3.09,11.55,8.56h-23.16c1.5-5.47,5.74-8.56,11.61-8.56Z"/><path class="b" d="m173.49,51.05v-13.78c0-3.78-.91-5.92-3.13-7.34-2.67-1.76-6.52-2.58-11.82-2.58-6.65,0-11.35,1.63-13.96,4.84-1.3,1.57-1.89,3.2-2.22,6.23h3.39c1.55-.02,2.93-.99,3.48-2.43,1.15-2.8,4.01-3.9,9.57-3.9,5.87,0,8.68,1.51,8.68,4.84,0,1.57-.82,2.52-2.55,3.08-1.63.51-2.61.64-8.35,1.2-6.71.69-8.15,1.01-10.5,2.01-3,1.31-4.92,4.28-4.89,7.55,0,5.71,4.76,9.25,12.53,9.25,5.81,0,9.85-1.51,13.77-5.09,1.24,3.46,3.07,4.66,7.04,4.66,1.13.03,2.26-.14,3.33-.51v-4.15c-.48.07-.95.12-1.44.13-2.13.06-2.91-1.01-2.91-4.03Zm-6.03-4.84c0,2.97-.46,4.16-2.28,5.86-2.29,2.08-5.49,3.14-9.73,3.14-5.15,0-7.76-1.63-7.76-4.8,0-2.83,1.76-3.9,7.44-4.47,4.18-.33,8.31-1.09,12.34-2.27v2.53Z"/><path class="b" d="m126.31,32.73v-4.59h-6.33v31.03h6.34v-16.99c0-2.77.53-4.15,2.29-5.92,2.14-2.07,5.03-3.18,8.01-3.07,1.43,0,2.86.18,4.24.56v-6.11c-1.29-.2-2.6-.31-3.91-.31-4.51,0-6.78,1.15-10.63,5.41Z"/><path class="b" d="m99.3,27.49c-4.49.09-7.86,1.5-11.82,5.03v-11.47c0-2.01-1.64-3.64-3.65-3.64h-2.45v25.83c0,10.41,7.74,17.01,18.41,17.01,9.72,0,17.18-7.71,16.31-17.94-.81-8.6-8.17-15.09-16.8-14.83Zm-.82,27.56c-5.37-.08-10.47-4.49-11.07-9.79h0c-.82-7.34,4.08-12.58,11.38-12.57,6.81,0,11.47,4.45,11.47,11.2s-4.8,11.27-11.81,11.16h.03Z"/><path class="b" d="m207.13,28.11c-2.2-.01-4.2,1.26-5.11,3.26l-9.48,20.84-9.13-20.79c-.92-2.01-2.93-3.28-5.14-3.26h-3.76l13.68,28.93c.63,1.29,1.95,2.11,3.38,2.1h1.63c1.41,0,2.69-.81,3.32-2.07l14.01-28.98-3.41-.02Z"/><path class="b" d="m63.49,16.17s-2.24-2.4-4.96-5.11-8.47-1.13-8.47-1.13l-6.52-7.43h-23.07l-6.52,7.43s-5.79-1.59-8.51,1.13S.48,16.17.48,16.17l1.76,4.31-2.24,6.39s6.59,24.94,7.34,27.98c1.52,5.99,2.56,8.31,6.88,11.35,4.32,3.04,12.15,8.31,13.43,9.11s2.89,2.19,4.33,2.19,3.04-1.36,4.32-2.16,9.12-6.1,13.44-9.13c4.32-3.03,5.36-5.36,6.88-11.35.77-3.04,7.34-27.98,7.34-27.98l-2.23-6.39,1.76-4.31Zm-21.9,38.74c-.47.33-6.87,5.28-7.49,5.83l-.25.22c-.6.54-1.35,1.23-1.89,1.23s-1.3-.69-1.91-1.23l-.24-.22c-.63-.55-7.01-5.5-7.49-5.83s-.82-.95-.28-1.28,1.48-.82,2.98-1.57l1.44-.74c1.74-.93,3.59-1.65,5.5-2.15,1.93.5,3.8,1.22,5.56,2.15l1.44.74c1.5.82,2.57,1.32,2.98,1.57s.18.95-.33,1.28Zm13.46-24.55c-.18.17-.37.35-.55.55l-6.32,6.71-.21.21c-.63.64-1.56,1.57-.91,3.12l.14.31c.72,1.69,1.63,3.76.48,5.86-1.21,2.23-3.26,3.73-4.58,3.48-1.96-.63-3.83-1.5-5.56-2.6-1.13-.74-4.75-3.72-4.75-4.89,0-.95,2.59-2.53,3.86-3.26l.56-.35.62-.39c1.15-.72,3.26-2.01,3.26-2.59s.04-.91-.89-2.65c-.21-.4-.43-.82-.67-1.18-.88-1.52-1.87-3.22-1.63-4.44.24-1.37,2.45-2.16,4.23-2.83l.66-.24,1.94-.68c1.83-.69,3.85-1.44,4.18-1.63.46-.21.34-.42-1.05-.55l-.69-.07c-1.74-.18-4.93-.52-6.52-.09l-1.01.28c-1.75.47-3.89,1.05-4.08,1.39l-.1.15c-.2.29-.33.46-.11,1.63.06.35.2,1.04.36,1.91.48,2.52,1.24,6.46,1.33,7.34l.05.36c.12.99.2,1.63-.95,1.9l-.3.07c-1.27.33-2.57.57-3.87.73-1.3-.15-2.6-.4-3.87-.73l-.3-.07c-1.14-.26-1.07-.91-.95-1.9v-.36c.1-.89.82-4.83,1.34-7.34l.36-1.9c.22-1.19.09-1.38-.11-1.63,0-.05-.07-.1-.11-.15-.2-.33-2.35-.91-4.08-1.39l-1.01-.28c-1.56-.43-4.75-.09-6.52.09l-.69.07c-1.4.13-1.52.33-1.05.55.33.15,2.36.91,4.18,1.63l2.57.96c1.83.67,3.99,1.46,4.23,2.83.22,1.22-.77,2.93-1.63,4.44-.24.41-.46.82-.67,1.18-.85,1.7-.91,1.9-.85,2.6s2.14,1.87,3.26,2.59l.62.38c.11.08.31.2.56.36,1.26.77,3.86,2.35,3.86,3.26,0,1.14-3.61,4.12-4.75,4.85-1.72,1.11-3.58,1.99-5.53,2.63-1.32.24-3.38-1.25-4.58-3.48-1.13-2.1-.24-4.18.48-5.86l.13-.32c.66-1.56-.27-2.45-.91-3.12l-.2-.21-6.32-6.71c-.18-.19-.37-.37-.55-.55-1.02-.8-1.59-2.03-1.56-3.32,0-2.19,8.44-12.37,8.44-12.37,0,0,7.12,1.36,8.07,1.36.12,0,.25,0,.38,0h.15l.31-.06.19-.05.33-.08.22-.06.35-.11c.21-.07.44-.13.66-.21h.09l1.29-.44,1-.34c1.02-.41,2.08-.66,3.17-.77,1.09.06,2.17.28,3.2.64l1.12.38.38.13.55.19h.14c.43.15.86.29,1.24.4h.14l.39.11.16.04.33.07h.13c.13.02.25.04.38.04.95,0,8.07-1.36,8.07-1.36,0,0,8.43,10.31,8.43,12.49.04,1.3-.55,2.54-1.57,3.34h-.03Z"/></svg>