<?xml version="1.0" encoding="UTF-8" standalone="no"?>
<svg id="a" viewBox="0 0 32 32" version="1.1" sodipodi:docname="brave.svg" width="32" height="32" inkscape:version="1.4-beta2 (9aaf4f34, 2024-07-30)" xmlns:inkscape="http://www.inkscape.org/namespaces/inkscape" xmlns:sodipodi="http://sodipodi.sourceforge.net/DTD/sodipodi-0.dtd" xmlns="http://www.w3.org/2000/svg" xmlns:svg="http://www.w3.org/2000/svg">
  <sodipodi:namedview id="namedview6" pagecolor="#ffffff" bordercolor="#000000" borderopacity="0.25" inkscape:showpageshadow="2" inkscape:pageopacity="0.0" inkscape:pagecheckerboard="0" inkscape:deskcolor="#d1d1d1" inkscape:zoom="3.2494113" inkscape:cx="25.850836" inkscape:cy="39.853372" inkscape:window-width="1440" inkscape:window-height="790" inkscape:window-x="0" inkscape:window-y="0" inkscape:window-maximized="1" inkscape:current-layer="a" />
  <defs id="defs1">
    <style id="style1">.b{fill-rule:evenodd;stroke-width:0px;}</style>
  </defs>
  <path class="b" d="m 29.444267,5.8325333 c 0,0 -0.955734,-1.024 -2.116267,-2.1802666 C 26.167467,2.496 23.714133,3.1701333 23.714133,3.1701333 L 20.932267,0 h -9.8432 L 8.3072,3.1701333 c 0,0 -2.4704,-0.6784 -3.6309333,0.4821334 C 3.5157333,4.8128 2.56,5.8325333 2.56,5.8325333 L 3.3109333,7.671467 2.3552,10.397867 c 0,0 2.8117333,10.641066 3.1317333,11.938133 0.6485334,2.555733 1.0922667,3.5456 2.9354667,4.842667 1.8432,1.297066 5.184,3.5456 5.730133,3.886933 C 14.698667,31.406933 15.3856,32 16,32 c 0.6144,0 1.297067,-0.580267 1.8432,-0.9216 0.546133,-0.341333 3.8912,-2.602667 5.7344,-3.895467 1.8432,-1.2928 2.286933,-2.286933 2.935467,-4.842666 C 26.8416,21.0432 29.6448,10.402133 29.6448,10.402133 L 28.693333,7.675733 29.444267,5.8368 Z m -9.344,16.5290667 c -0.200534,0.1408 -2.9312,2.2528 -3.195734,2.487467 l -0.106666,0.09387 c -0.256,0.2304 -0.576,0.5248 -0.8064,0.5248 -0.2304,0 -0.554667,-0.2944 -0.814934,-0.5248 l -0.1024,-0.09387 C 14.805333,24.6144 12.0832,22.5024 11.8784,22.3616 11.6736,22.2208 11.528533,21.956267 11.758933,21.815467 11.989333,21.674667 12.3904,21.4656 13.0304,21.1456 l 0.6144,-0.315733 c 0.7424,-0.3968 1.531733,-0.704 2.346667,-0.917334 0.823466,0.213334 1.621333,0.520534 2.372266,0.917334 l 0.6144,0.315733 c 0.64,0.349867 1.096534,0.5632 1.271467,0.669867 0.174933,0.106666 0.0768,0.405333 -0.1408,0.546133 z M 25.8432,11.886933 c -0.0768,0.07253 -0.157867,0.149334 -0.234667,0.234667 l -2.696533,2.862933 -0.0896,0.0896 c -0.2688,0.273067 -0.6656,0.669867 -0.388267,1.3312 l 0.05973,0.132267 c 0.3072,0.721067 0.695466,1.604267 0.2048,2.500267 -0.516267,0.951466 -1.390934,1.591466 -1.954134,1.4848 -0.836266,-0.2688 -1.634133,-0.64 -2.372266,-1.109334 -0.482134,-0.315733 -2.026667,-1.5872 -2.026667,-2.0864 0,-0.405333 1.105067,-1.079466 1.646933,-1.390933 l 0.238934,-0.149333 0.264533,-0.1664 c 0.490667,-0.3072 1.390933,-0.8576 1.390933,-1.105067 0,-0.247467 0.01707,-0.388267 -0.379733,-1.130667 -0.0896,-0.170666 -0.183467,-0.349866 -0.285867,-0.503466 -0.375466,-0.648534 -0.797866,-1.373867 -0.695466,-1.8944 0.1024,-0.584534 1.045333,-0.9216 1.8048,-1.207467 l 0.2816,-0.1024 0.827733,-0.290133 c 0.7808,-0.2944 1.642667,-0.6144 1.783467,-0.695467 0.196266,-0.0896 0.145066,-0.1792 -0.448,-0.234667 l -0.2944,-0.02987 C 21.738667,8.349867 20.3776,8.2048 19.6992,8.388267 l -0.430933,0.119466 c -0.746667,0.200534 -1.659734,0.448 -1.7408,0.593067 l -0.04267,0.064 c -0.08533,0.123733 -0.1408,0.196267 -0.04693,0.695467 0.0256,0.149333 0.08533,0.443733 0.1536,0.814933 0.2048,1.0752 0.529066,2.756267 0.567466,3.131733 l 0.02133,0.1536 c 0.0512,0.4224 0.08533,0.695467 -0.405334,0.810667 l -0.128,0.02987 c -0.541866,0.1408 -1.096533,0.2432 -1.6512,0.311466 -0.554666,-0.064 -1.109333,-0.170666 -1.6512,-0.311466 l -0.128,-0.02987 C 13.730133,14.660267 13.76,14.382933 13.8112,13.960533 v -0.1536 c 0.04267,-0.379733 0.349867,-2.0608 0.571733,-3.131733 l 0.1536,-0.810667 c 0.09387,-0.507733 0.0384,-0.5888 -0.04693,-0.695466 0,-0.02133 -0.02987,-0.04267 -0.04693,-0.064 C 14.357333,8.964267 13.44,8.7168 12.701867,8.512 L 12.270933,8.392533 c -0.6656,-0.183466 -2.026666,-0.0384 -2.7818663,0.0384 l -0.2944,0.02987 c -0.5973334,0.05547 -0.6485334,0.1408 -0.448,0.234667 0.1408,0.064 1.0069333,0.388266 1.7834663,0.695466 l 1.096534,0.4096 c 0.7808,0.285867 1.7024,0.622934 1.8048,1.207467 0.09387,0.520533 -0.328534,1.250133 -0.695467,1.8944 -0.1024,0.174933 -0.196267,0.349867 -0.285867,0.503467 -0.362666,0.725333 -0.388266,0.810666 -0.362666,1.109333 0.0256,0.298667 0.913066,0.797867 1.390933,1.105067 l 0.264533,0.162133 c 0.04693,0.03413 0.132267,0.08533 0.238934,0.1536 0.5376,0.328533 1.646933,1.002667 1.646933,1.390933 0,0.4864 -1.540267,1.757867 -2.026667,2.069334 -0.733866,0.4736 -1.527466,0.849066 -2.359466,1.122133 -0.5632,0.1024 -1.4421337,-0.533333 -1.9541337,-1.4848 -0.4821333,-0.896 -0.1024,-1.783467 0.2048,-2.500267 L 9.5488,16.3968 C 9.8304,15.7312 9.4336,15.351467 9.1605333,15.0656 L 9.0752,14.976 6.3786667,12.113067 C 6.3018667,12.032 6.2208,11.9552 6.144,11.8784 5.7088,11.537067 5.4656,11.012267 5.4784,10.461867 5.4784,9.527467 9.0794667,5.184 9.0794667,5.184 c 0,0 3.0378663,0.5802667 3.4432003,0.5802667 0.0512,0 0.106666,0 0.162133,0 h 0.064 l 0.132267,-0.0256 0.08107,-0.021333 0.1408,-0.034133 0.09387,-0.0256 0.149333,-0.046933 c 0.0896,-0.029867 0.187734,-0.055467 0.2816,-0.0896 h 0.0384 L 14.216533,5.3333333 14.6432,5.1882667 c 0.4352,-0.1749334 0.887467,-0.2816 1.352533,-0.3285334 C 16.4608,4.8853333 16.9216,4.9792 17.361067,5.1328 l 0.477866,0.1621333 0.162134,0.055467 0.234666,0.081067 h 0.05973 c 0.183466,0.064 0.366933,0.1237333 0.529066,0.1706666 h 0.05973 l 0.1664,0.046933 0.06827,0.017067 0.1408,0.029867 h 0.05547 c 0.05547,0.00853 0.106667,0.017067 0.162133,0.017067 0.405334,0 3.4432,-0.5802667 3.4432,-0.5802667 0,0 3.5968,4.3989328 3.5968,5.3290668 0.01707,0.554666 -0.234666,1.083733 -0.669866,1.425066 h -0.0128 z" id="path6" />
</svg>
