<?xml version="1.0" encoding="UTF-8" standalone="no"?>
<svg version="1.2" viewBox="0 0 32 32" width="32" height="32" id="svg1" xmlns="http://www.w3.org/2000/svg" xmlns:svg="http://www.w3.org/2000/svg" xmlns:rdf="http://www.w3.org/1999/02/22-rdf-syntax-ns#" xmlns:cc="http://creativecommons.org/ns#" xmlns:dc="http://purl.org/dc/elements/1.1/">
  <defs id="defs1" />
  <title id="title1">btgactual-svg</title>
  <style id="style1">
		.s0 { fill: #001e62 } 
	</style>
  <path id="Layer" fill-rule="evenodd" class="s0" d="m 31.999719,16.855491 v 3.972363 c 0,2.634499 -1.383215,3.66521 -4.075434,3.66521 H 25.879353 C 23.211871,28.230425 18.934417,30.4815 14.298276,30.4815 6.4133313,30.4815 2.43e-4,23.985954 2.43e-4,16 c 0,-7.9859547 6.4130883,-14.4815 14.298033,-14.4815 5.627686,0 10.737955,3.353936 13.044688,8.550785 H 26.712168 C 24.448725,5.2166937 19.612626,2.09776 14.298276,2.09776 6.7287292,2.09776 0.57125729,8.333566 0.57125729,16 c 0,7.666434 6.15747191,13.902239 13.72701871,13.902239 4.743335,0 9.095,-2.455154 11.601691,-6.474931 l 0.0021,0.0021 c 0.300967,-0.500925 0.527724,-0.589566 1.026588,-0.599874 h 0.874044 c 1.461549,0 2.084099,-0.476188 2.084099,-1.923307 v -0.309214 c -0.593689,0.47825 -1.428566,0.630795 -2.265504,0.630795 -2.615946,0 -3.724992,-1.24716 -3.724992,-3.817756 v -0.416407 c 0,-2.710772 1.276021,-3.89609 4.058942,-3.89609 2.723141,0 4.044513,1.139967 4.044513,3.757975 z M 8.3263323,10.186786 10.455783,9.8466508 v 3.8960902 c 0.60812,-0.476188 1.504839,-0.645225 2.325286,-0.645225 2.585025,0 3.770343,1.292512 3.770343,3.941441 v 0.72356 c 0,2.820027 -1.276021,3.959994 -4.166137,3.959994 -2.7808601,0 -4.0589427,-1.170888 -4.0589427,-3.974425 z m 4.1352157,4.60522 c -1.519269,0 -2.036687,0.523601 -2.036687,2.079976 v 0.876104 c 0,1.710982 0.517418,2.296427 2.007827,2.296427 1.488347,0 2.005765,-0.585445 2.005765,-2.279935 v -0.647286 c 0,-1.739842 -0.517418,-2.325286 -1.976905,-2.325286 z m 7.724154,0.292722 v 3.14161 c 0,1.294573 0.381362,1.585234 1.552251,1.585234 h 1.321373 l -0.348381,1.710982 h -1.125537 c -2.570595,0 -3.512666,-0.723561 -3.512666,-3.158102 v -7.037699 l 2.11296,-0.323644 v 2.356207 h 3.011739 l -0.350442,1.725412 z m 9.715489,1.987212 c 0,-1.69449 -0.319521,-2.279934 -1.945985,-2.279934 -1.657384,0 -1.945984,0.599874 -1.945984,2.263443 v 0.2618 c 0,1.680061 0.319521,2.249014 1.945984,2.249014 1.445058,0 1.945985,-0.447329 1.945985,-1.894448 z" style="fill:#000000;stroke-width:0.0206143" />
  <metadata id="metadata1">
    <rdf:RDF>
      <cc:Work rdf:about="">
        <dc:title>btgactual-svg</dc:title>
      </cc:Work>
    </rdf:RDF>
  </metadata>
</svg>
