<svg version="1.2" width="32" height="32" xmlns="http://www.w3.org/2000/svg">
  <path fill-rule="evenodd" d="M32 16.855v3.973c0 2.634-1.383 3.665-4.076 3.665H25.88c-2.667 3.737-6.945 5.989-11.58 5.989C6.412 30.482 0 23.986 0 16 0 8.014 6.413 1.518 14.298 1.518c5.628 0 10.738 3.354 13.045 8.551h-.63c-2.264-4.852-7.1-7.971-12.415-7.971C6.728 2.098.571 8.334.571 16c0 7.666 6.158 13.902 13.727 13.902 4.744 0 9.095-2.455 11.602-6.475l.002.002c.301-.5.528-.59 1.027-.6h.874c1.461 0 2.084-.476 2.084-1.923v-.309c-.594.478-1.429.63-2.266.63-2.616 0-3.725-1.246-3.725-3.817v-.416c0-2.711 1.276-3.896 4.06-3.896 2.722 0 4.044 1.14 4.044 3.758zM8.326 10.187l2.13-.34v3.896c.608-.476 1.505-.645 2.325-.645 2.585 0 3.77 1.292 3.77 3.941v.724c0 2.82-1.276 3.96-4.166 3.96-2.78 0-4.059-1.171-4.059-3.975zm4.136 4.605c-1.52 0-2.037.524-2.037 2.08v.876c0 1.711.517 2.297 2.008 2.297 1.488 0 2.005-.586 2.005-2.28v-.648c0-1.74-.517-2.325-1.976-2.325zm7.724.293v3.141c0 1.295.381 1.586 1.552 1.586h1.321l-.348 1.71h-1.126c-2.57 0-3.512-.723-3.512-3.158v-7.037l2.113-.324v2.356h3.011l-.35 1.726zm9.715 1.987c0-1.695-.32-2.28-1.946-2.28-1.657 0-1.946.6-1.946 2.263v.262c0 1.68.32 2.25 1.946 2.25 1.445 0 1.946-.448 1.946-1.895z" style="fill:#000;stroke-width:.0206143"/>
</svg>