<?xml version="1.0" encoding="UTF-8" standalone="no"?>
<svg width="32" height="32" fill="none" version="1.1" id="svg1" xmlns="http://www.w3.org/2000/svg" xmlns:svg="http://www.w3.org/2000/svg">
  <defs id="defs1" />
  <path id="path2" style="fill:#000000;stroke-width:0.745133" d="m 29.950413,5.6028725 a 2.1653565,2.1653565 0 0 0 -0.465708,0.016009 2.1832396,2.1832396 0 0 0 -1.59505,1.0216472 c -1.110248,1.7232442 -2.220096,3.4465773 -3.328357,5.1708153 -0.01341,0.02012 -0.02581,0.04154 -0.0422,0.06986 a 10.618145,10.618145 0 0 1 1.937054,5.233395 l 0.06986,-0.100419 c 1.126632,-1.749572 2.251721,-3.499831 3.376375,-5.249403 0.575988,-0.894905 1.157495,-1.7864327 1.726031,-2.6865534 0.444099,-0.7019152 0.487585,-1.4435206 0.144078,-2.1961048 A 2.1653565,2.1653565 0 0 0 29.950413,5.6028725 Z M 2.2160401,5.6159706 c -0.112546,5.806e-4 -0.22808,0.00848 -0.34637,0.023285 -0.573753,0.071533 -1.04247597,0.3572679 -1.39566897,0.8237212 a 2.2801069,2.2801069 0 0 0 -0.464253,1.602327 2.2726556,2.2726556 0 0 0 0.375477,1.0653073 C 1.5675031,10.963639 2.7496061,12.795424 3.9318831,14.625967 c 1.707348,2.6487 3.414021,5.298404 5.119879,7.9476 0.684032,1.060324 1.5503419,1.931699 2.6196079,2.594867 a 8.1845407,8.1845407 0 0 0 5.211565,1.1861 7.8238963,7.8238963 0 0 0 1.306893,-0.248862 c 1.722747,-0.491043 3.153717,-1.436069 4.271417,-2.848096 1.048402,-1.327082 1.62957,-2.846362 1.771146,-4.534833 0.04024,-0.476885 0.03452,-0.955132 -0.01019,-1.433508 -0.04023,-0.425471 -0.107378,-0.845319 -0.213932,-1.258868 -0.460492,-1.786083 -1.388474,-3.277897 -2.813168,-4.437324 -1.583408,-1.29057 -3.405805,-1.8958976 -5.441508,-1.8511896 a 7.8238963,7.8238963 0 0 0 -1.39567,0.1615424 8.1934823,8.1934823 0 0 0 -4.016732,2.1087852 c -0.02285,0.02335 -0.04654,0.04647 -0.0684,0.07131 0.842745,1.305472 1.6801,2.603529 2.522101,3.910491 l 0.02474,-0.02765 c 0.0099,-0.0149 0.02013,-0.03021 0.03056,-0.04512 0.683287,-0.989535 1.62255,-1.54615 2.808802,-1.676548 a 3.5766383,3.5766383 0 0 1 1.286518,0.101874 c 1.929149,0.489552 3.179134,2.397464 2.808803,4.424226 -0.146792,0.806234 -0.510021,1.506205 -1.103147,2.068036 -0.958241,0.908316 -2.096001,1.252521 -3.386571,0.99545 -1.04691,-0.207889 -1.861491,-0.788033 -2.446421,-1.689644 C 12.247404,19.267835 11.678821,18.389704 11.11252,17.510447 9.4657761,14.960105 7.8202741,12.409616 6.1760141,9.8582804 5.4882571,8.7934854 4.8135151,7.719772 4.1123451,6.6594478 3.6487791,5.9566011 3.0038601,5.6119058 2.2160401,5.6159706 Z" />
</svg>
