<?xml version="1.0" encoding="UTF-8" standalone="no"?>
<svg version="1.0" width="32pt" height="32pt" viewBox="0 0 32 32" preserveAspectRatio="xMidYMid" id="svg4" xmlns="http://www.w3.org/2000/svg" xmlns:svg="http://www.w3.org/2000/svg">
  <defs id="defs4" />
  <g transform="matrix(0.00756964,0,0,-0.00756964,-13.107014,30.006735)" fill="#000000" stroke="none" id="g4">
    <path d="m 3767,3460 c -21,-6 -89,-37 -150,-69 -183,-97 -243,-106 -476,-74 -218,30 -292,1 -440,-169 -126,-146 -166,-171 -366,-233 -66,-20 -144,-50 -173,-67 -90,-51 -139,-140 -162,-293 -33,-225 -49,-268 -160,-436 -92,-139 -115,-202 -107,-295 6,-75 38,-150 111,-253 96,-138 120,-199 151,-396 24,-157 49,-221 109,-280 54,-55 93,-72 292,-135 56,-17 123,-46 150,-64 27,-18 99,-87 160,-152 145,-155 171,-169 314,-169 58,0 151,7 208,14 150,22 201,11 380,-81 l 144,-73 h 93 94 l 143,73 c 188,96 220,102 419,78 259,-32 327,-15 444,113 184,202 219,225 410,281 249,73 296,126 341,391 34,200 53,252 146,391 101,151 122,207 116,308 -6,88 -28,139 -110,257 -98,139 -118,193 -152,403 -29,183 -65,254 -154,311 -26,16 -105,48 -177,71 -212,66 -240,85 -408,271 -118,131 -209,164 -377,137 -117,-18 -265,-24 -318,-11 -26,6 -110,43 -187,81 -121,61 -149,71 -205,75 -36,2 -82,0 -103,-5 z m -445,-974 c 80,-32 96,-32 110,-1 11,24 16,26 62,23 l 51,-3 3,-155 c 4,-202 4,-202 -55,-198 l -47,3 -23,78 c -38,124 -105,177 -225,177 -113,0 -177,-58 -231,-205 -39,-109 -51,-207 -44,-373 9,-243 57,-394 146,-457 36,-25 54,-30 117,-33 148,-8 234,61 259,207 7,45 26,56 81,49 l 29,-3 v -175 -175 l -44,-3 c -30,-2 -49,2 -62,14 -20,18 -27,18 -174,-10 -103,-20 -158,-20 -253,0 -314,65 -503,398 -438,774 55,314 287,510 588,496 62,-3 104,-12 150,-30 z m 1386,-51 c 13,-38 37,-106 53,-150 15,-44 71,-204 124,-355 174,-496 196,-555 212,-567 9,-7 31,-13 49,-13 41,0 56,-19 52,-67 l -3,-38 -278,-3 -278,-2 3,52 c 3,48 5,53 28,56 53,6 70,13 70,29 0,10 -14,64 -32,120 l -31,103 h -211 -211 l -38,-94 c -22,-55 -37,-106 -35,-123 3,-26 6,-28 58,-33 l 55,-5 v -50 -50 h -190 -190 v 50 50 l 47,5 c 31,4 53,13 62,25 8,11 54,116 104,235 49,118 152,364 227,545 76,182 142,336 148,343 7,9 35,12 95,10 l 85,-3 z m -818,-170 c 99,-51 92,-168 -14,-230 -25,-15 -46,-29 -46,-31 0,-12 82,-124 90,-124 8,0 50,80 64,123 4,14 18,17 90,17 h 84 l -11,-30 c -8,-21 -18,-30 -34,-30 -17,0 -33,-14 -56,-47 -17,-25 -45,-62 -62,-81 l -29,-34 27,-24 c 18,-15 41,-24 63,-24 37,0 39,-5 24,-46 -10,-26 -12,-27 -78,-22 -40,3 -79,12 -94,22 -24,16 -27,16 -64,-6 -32,-19 -53,-23 -124,-23 -72,0 -92,4 -128,25 -69,39 -101,109 -82,180 12,45 68,105 118,126 l 33,13 -21,40 c -58,114 19,221 158,221 36,0 75,-6 92,-15 z" id="path1" />
    <path d="m 4396,1949 c -53,-133 -96,-243 -94,-244 2,-2 79,-5 171,-7 116,-2 167,0 167,8 0,11 -140,477 -144,482 -2,1 -47,-106 -100,-239 z" id="path2" />
    <path d="m 3756,2208 c -21,-29 -20,-54 4,-107 18,-39 22,-42 38,-30 50,38 66,94 42,140 -15,27 -64,25 -84,-3 z" id="path3" />
    <path d="m 3654,1914 c -46,-78 -16,-164 62,-179 33,-6 97,15 110,36 7,12 -117,189 -133,189 -7,0 -24,-20 -39,-46 z" id="path4" />
  </g>
</svg>
