<?xml version="1.0" encoding="UTF-8"?><svg id="a" xmlns="http://www.w3.org/2000/svg" viewBox="0 0 104.39 80"><defs><style>.b{stroke-width:0px;}</style></defs><path class="b" d="m52.17,71.19c-26.14,0-43.61-13.69-43.61-31.19S26.03,8.8,52.17,8.8s43.61,13.69,43.61,31.19-17.48,31.19-43.61,31.19m46.76-42.47c-1.62-4.96-.67-8.55-3.48-12.1-3.26-3.11-7.06-2.49-11.18-4.92-3.94-2.72-4.87-6.31-8.8-7.79-4.43-1.35-7.17.88-12.21.25-5.53-1.07-6.28-3.97-11.08-4.14h-.04c-4.8.18-5.55,3.07-11.08,4.14-5.04.63-7.78-1.6-12.21-.25-3.93,1.49-4.85,5.07-8.8,7.79-4.13,2.43-7.93,1.81-11.19,4.92-2.81,3.56-1.84,7.15-3.48,12.1-1.93,4.8-5.36,6.46-5.36,11.26s3.44,6.51,5.4,11.31c1.62,4.96.67,8.55,3.48,12.11,3.26,3.11,7.06,2.49,11.19,4.92,3.95,2.72,4.87,6.31,8.8,7.79,4.43,1.35,7.17-.88,12.21-.25,5.53,1.07,6.28,3.97,11.08,4.14h.04c4.8-.18,5.55-3.07,11.08-4.14,5.04-.63,7.77,1.6,12.21.25,3.92-1.49,4.85-5.07,8.8-7.79,4.13-2.43,7.93-1.81,11.18-4.92,2.81-3.56,1.85-7.15,3.48-12.11,1.96-4.8,5.43-6.56,5.43-11.31-.04-4.82-3.5-6.46-5.47-11.26"/><path class="b" d="m44.65,46.13h-1.8c-.16,0-.38.05-.45.4-.57,3.58-1.88,6.07-6.28,6.07-6.09,0-6.79-8.19-6.79-14.32,0-4.03,1.27-12.19,6.56-12.19,4.21,0,5.53,2.27,6.22,6.01.06.31.21.42.45.42h1.79c.29,0,.45-.18.45-.45v-7.97c0-.29-.19-.47-.45-.47h-1.83c-.23,0-.31.09-.44.37-.21.47-.4.82-1.03.82-.45,0-.77-.2-1.45-.53-.86-.35-2.29-.87-4.87-.87-8.11,0-14.08,6.16-14.08,15.98,0,8.29,4.99,15.85,14.13,15.85,4.04,0,5.84-1.06,6.86-1.06.43,0,.62.29.73.52.11.24.25.29.43.29h1.85c.28,0,.45-.18.45-.45v-7.96c0-.28-.19-.45-.45-.45"/><path class="b" d="m49.53,42.79c-1.6,0-2.62-1.02-2.62-2.76,0-1.11.64-2.28,1.59-2.88l3.27,4.51c-.63.65-1.25,1.13-2.24,1.13m1.52-12.24c.84,0,1.23.78,1.23,1.55,0,1.13-.55,1.96-1.69,2.57-.62-.92-.97-1.55-.97-2.54,0-.84.5-1.57,1.42-1.57m8.46,5.15h-3.55c-.3,0-.38.15-.4.24-.29,1.13-.83,2.27-1.64,3.4l-2.22-3.3c1.61-.71,3.39-1.8,3.39-3.58,0-2.01-1.67-3.3-3.98-3.3s-4.55,1.26-4.55,3.84c0,1.12.48,1.95,1.03,2.68-1.78.54-3.97,2.17-3.92,4.48.05,2.67,2.43,4.24,5.39,4.24,1.2,0,2.76-.24,4.07-1.27,1.07,1.08,2.86.96,2.86.96h1.44c.29,0,.37-.14.43-.28l.44-1.05c.16-.39-.19-.35-.29-.35h-.64c-1.46,0-2.17-1.18-2.17-1.18.91-.91,1.05-1.17,1.62-1.99.37-.52.87-1.35.87-1.35.23-.35.38-.58.77-.58h.49c.2,0,.33-.1.43-.29l.42-.97c.15-.39-.09-.37-.29-.37"/><path class="b" d="m63.26,43.72l4.9-12.19,3.69,12.19h-8.59Zm21.76,8.61h-.55c-1.32,0-1.71-.38-2.12-1.51-.01,0-8.37-23.89-9.39-26.81-.09-.25-.28-.4-.58-.4h-3.59c-.25,0-.48.1-.59.4l-11.26,26.94c-.23.55-.44.88-.97,1.15s-1.47.23-1.47.23h-.3c-.29.01-.45.19-.45.47v1.75c0,.29.19.45.45.45h8.76c.29,0,.47-.19.47-.47v-1.75c0-.29-.19-.45-.47-.45h-.97c-.81-.03-1.65-.08-1.65-.96,0-.26.08-.6.25-1.05l1.71-4.22h10.25c.48,1.32,1.23,3.75,1.23,3.75,0,0,.26.82.35,1.17.04.13.06.29.06.47-.01.39-.21.79-1.06.81l-1.07.03c-.28,0-.47.18-.47.45v1.75c0,.26.18.45.47.45h12.95c.26,0,.47-.18.47-.47v-1.71c0-.29-.19-.47-.47-.47"/></svg>