<?xml version="1.0" encoding="UTF-8" standalone="no"?>
<!-- Created with Inkscape (http://www.inkscape.org/) -->

<svg width="32mm" height="32mm" viewBox="0 0 32 32" version="1.1" id="svg935" xmlns="http://www.w3.org/2000/svg" xmlns:svg="http://www.w3.org/2000/svg" xmlns:rdf="http://www.w3.org/1999/02/22-rdf-syntax-ns#" xmlns:cc="http://creativecommons.org/ns#" xmlns:dc="http://purl.org/dc/elements/1.1/">
  <defs id="defs929">
    <clipPath clipPathUnits="userSpaceOnUse" id="clipPath92">
      <path d="M 0,0.2501713 H 594.999 V 841.74987 H 0 Z" id="path90" />
    </clipPath>
  </defs>
  <metadata id="metadata932">
    <rdf:RDF>
      <cc:Work rdf:about="">
        <dc:format>image/svg+xml</dc:format>
        <dc:type rdf:resource="http://purl.org/dc/dcmitype/StillImage" />
      </cc:Work>
    </rdf:RDF>
  </metadata>
  <g id="g88" clip-path="url(#clipPath92)" style="fill:#000000" transform="matrix(1.0181971,0,0,-1.0181971,-259.79869,833.15917)">
    <path d="m 265.7657,799.7519 c -0.5487,-0.4718 -1.1854,-0.7077 -1.9091,-0.7077 -0.9296,0 -1.6822,0.3239 -2.2599,0.9706 -0.5788,0.6477 -0.8676,1.4943 -0.8676,2.5408 0,1.0525 0.2878,1.9031 0.8616,2.5508 0.5737,0.6467 1.3293,0.9716 2.2659,0.9716 0.6807,0 1.2954,-0.2149 1.8432,-0.6427 0.5487,-0.4278 0.9365,-0.9926 1.1634,-1.6952 h 5.3435 c -0.2778,2.129 -1.1854,3.8492 -2.7207,5.1626 -1.5363,1.3134 -3.4204,1.9691 -5.6514,1.9691 -1.6532,0 -3.1415,-0.3559 -4.4659,-1.0696 -1.3234,-0.7126 -2.3569,-1.7042 -3.0996,-2.9726 -0.7426,-1.2694 -1.1135,-2.6947 -1.1135,-4.274 0,-1.5803 0.3709,-3.0046 1.1135,-4.274 0.7427,-1.2694 1.7762,-2.26 3.0996,-2.9736 1.3244,-0.7137 2.8127,-1.0695 4.4659,-1.0695 2.268,0 4.1771,0.6807 5.7274,2.04 1.5512,1.3614 2.4508,3.1386 2.6997,5.3335 h -5.4205 c -0.1679,-0.7686 -0.5267,-1.3883 -1.0755,-1.8601" style="fill:#000000;fill-opacity:1;fill-rule:nonzero;stroke:none" id="path96" />
    <path d="m 285.0034,804.0766 c -1.0535,0.9915 -2.4119,1.4863 -4.0771,1.4863 -0.1709,0 -0.4028,-0.008 -0.6967,-0.023 l 2.9476,4.8008 -5.2645,-10e-4 -2.4919,-4.0681 c -0.7046,-1.1535 -1.2254,-2.216 -1.5622,-3.1885 -0.3369,-0.9716 -0.5058,-1.9381 -0.5058,-2.8977 0,-1.7582 0.6137,-3.1885 1.8411,-4.292 1.2275,-1.1035 2.8207,-1.6552 4.7798,-1.6552 1.9821,0 3.5794,0.5497 4.7918,1.6492 1.2114,1.0995 1.8182,2.5478 1.8182,4.344 0,1.5723 -0.5268,2.8537 -1.5803,3.8452 m -3.5544,-5.3195 c -0.3798,-0.3799 -0.8706,-0.5698 -1.4753,-0.5698 -0.6037,0 -1.0955,0.1899 -1.4743,0.5698 -0.3798,0.3788 -0.5697,0.8706 -0.5697,1.4743 0,0.6047 0.1899,1.0995 0.5697,1.4873 0.3788,0.3868 0.8706,0.5807 1.4743,0.5807 0.6047,0 1.0955,-0.1939 1.4753,-0.5807 0.3789,-0.3878 0.5688,-0.8826 0.5688,-1.4873 0,-0.6037 -0.1899,-1.0955 -0.5688,-1.4743" style="fill:#000000;fill-opacity:1;fill-rule:nonzero;stroke:none" id="path98" />
  </g>
</svg>
