<svg width="32mm" height="32mm" viewBox="0 0 32 32" xmlns="http://www.w3.org/2000/svg">
  <defs>
    <clipPath clipPathUnits="userSpaceOnUse" id="a">
      <path d="M0 .25h594.999v841.5H0Z"/>
    </clipPath>
  </defs>
  <g clip-path="url(#a)" style="fill:#000" transform="matrix(1.0182 0 0 -1.0182 -259.799 833.16)">
    <path d="M265.766 799.752a2.84 2.84 0 0 0-1.91-.708c-.929 0-1.682.324-2.26.97-.578.648-.867 1.495-.867 2.542 0 1.052.288 1.903.862 2.55.573.647 1.329.972 2.266.972a2.92 2.92 0 0 0 1.843-.643c.548-.428.936-.992 1.163-1.695h5.344c-.278 2.13-1.186 3.85-2.721 5.163-1.536 1.313-3.42 1.969-5.651 1.969-1.654 0-3.142-.356-4.466-1.07a7.806 7.806 0 0 1-3.1-2.972c-.743-1.27-1.113-2.695-1.113-4.274 0-1.58.37-3.005 1.113-4.274.743-1.27 1.776-2.26 3.1-2.974 1.324-.714 2.812-1.07 4.466-1.07 2.268 0 4.177.681 5.727 2.04 1.551 1.362 2.45 3.14 2.7 5.334h-5.42c-.169-.769-.528-1.388-1.076-1.86M285.003 804.077c-1.053.991-2.411 1.486-4.077 1.486-.17 0-.402-.008-.696-.023l2.947 4.8h-5.264l-2.492-4.068c-.705-1.154-1.226-2.216-1.562-3.189a8.804 8.804 0 0 1-.506-2.898c0-1.758.613-3.188 1.84-4.292 1.228-1.103 2.822-1.655 4.78-1.655 1.983 0 3.58.55 4.792 1.65 1.212 1.099 1.819 2.547 1.819 4.343 0 1.573-.527 2.854-1.58 3.846m-3.555-5.32c-.38-.38-.87-.57-1.475-.57-.604 0-1.096.19-1.475.57-.38.379-.57.87-.57 1.474 0 .605.19 1.1.57 1.488.38.386.871.58 1.475.58.604 0 1.095-.193 1.475-.58.379-.388.569-.883.569-1.488 0-.603-.19-1.095-.569-1.474" style="fill:#000;fill-opacity:1;fill-rule:nonzero;stroke:none"/>
  </g>
</svg>