<?xml version="1.0" encoding="UTF-8" standalone="no"?>
<!-- Generator: Adobe Illustrator 24.0.0, SVG Export Plug-In . SVG Version: 6.00 Build 0)  -->

<svg version="1.1" id="Layer_1" x="0px" y="0px" viewBox="0 0 32 32" width="32" height="32" xml:space="preserve" xmlns="http://www.w3.org/2000/svg" xmlns:svg="http://www.w3.org/2000/svg"><defs id="defs1" />
<style type="text/css" id="style1">
	.st0{fill:#24BECA;}
	.st1{fill:#FFFFFF;}
</style>
<path id="path2" style="fill:#000000;stroke-width:0.5" d="M 16,0 A 16,16 0 0 0 0,16 16,16 0 0 0 16,32 16,16 0 0 0 32,16 16,16 0 0 0 16,0 Z m 2.650391,5.5488281 c 2.2,0 3.848828,1.5511719 4.048828,3.4511719 0.2,1.7 -0.44961,3.149609 -2.34961,4.099609 -0.95,0.5 -1.449609,0.449999 -1.599609,0.25 -0.1,-0.150001 -0.04961,-0.398829 0.150391,-0.548828 1.75,-1.45 1.799609,-2.649609 1.599609,-4.3496091 -0.15,-1.1 -0.850391,-1.8007813 -1.650391,-1.8007813 -3.449999,0 -8.45,7.7496094 -7.75,13.3496094 0.25,2.2 1.600391,4.75 4.400391,4.75 0.9,0 1.9,-0.251172 2.75,-0.701172 1.95,-1 2.799219,-1.698828 3.949219,-3.298828 0.15,-0.2 0.301172,-0.450391 0.451172,-0.650391 0.100001,-0.2 0.299218,-0.25 0.449218,-0.25 0.15,0 0.34961,0.150391 0.34961,0.400391 0,0.15 -0.05,0.449219 -0.25,0.699219 -0.05,0.1 -0.200391,0.399609 -0.400391,0.599609 -0.85,1.15 -1.948437,2.350001 -3.398437,3.25 C 18.000392,25.698828 16.4,26.400391 14.5,26.400391 12.75,26.400391 11.3,25.5 10.5,24.75 9.3,23.6 8.6511719,21.950391 8.4511719,20.400391 7.8511719,15.600392 10.799609,9.25 15.349609,6.5 16.399608,5.85 17.550391,5.5488281 18.650391,5.5488281 Z" />

</svg>
