<?xml version="1.0" encoding="UTF-8" standalone="no"?>
<svg viewBox="0 0 32 32" fill="none" version="1.1" id="svg14" sodipodi:docname="canva.svg" width="32" height="32" inkscape:version="1.4-beta2 (9aaf4f34, 2024-07-30)" xmlns:inkscape="http://www.inkscape.org/namespaces/inkscape" xmlns:sodipodi="http://sodipodi.sourceforge.net/DTD/sodipodi-0.dtd" xmlns="http://www.w3.org/2000/svg" xmlns:svg="http://www.w3.org/2000/svg">
  <sodipodi:namedview id="namedview14" pagecolor="#ffffff" bordercolor="#000000" borderopacity="0.25" inkscape:showpageshadow="2" inkscape:pageopacity="0.0" inkscape:pagecheckerboard="0" inkscape:deskcolor="#d1d1d1" inkscape:zoom="4.8017224" inkscape:cx="25.199291" inkscape:cy="1.9784567" inkscape:window-width="1440" inkscape:window-height="790" inkscape:window-x="0" inkscape:window-y="0" inkscape:window-maximized="1" inkscape:current-layer="svg14" />
  <path d="m 27.827654,-22.31779 a 9,9 0 1 0 0,-18 9,9 0 0 0 0,18 z" fill="#7d2ae7" id="path1" clip-path="url(#clipPath18)" inkscape:path-effect="#path-effect22" style="fill:#000000" transform="matrix(1.7777778,0,0,1.7777778,-33.471386,71.676072)" />
  <path d="m 27.827654,-22.31779 a 9,9 0 1 0 0,-18 9,9 0 0 0 0,18 z" fill="url(#CanvaBrand_svg__paint0_radial_9458_3730)" id="path2" style="fill:#000000" clip-path="url(#clipPath17)" inkscape:path-effect="#path-effect21" transform="matrix(1.7777778,0,0,1.7777778,-33.471386,71.676072)" />
  <path d="m 27.827654,-22.31779 a 9,9 0 1 0 0,-18 9,9 0 0 0 0,18 z" fill="url(#CanvaBrand_svg__paint1_radial_9458_3730)" id="path3" style="fill:#000000" clip-path="url(#clipPath16)" inkscape:path-effect="#path-effect20" transform="matrix(1.7777778,0,0,1.7777778,-33.471386,71.676072)" />
  <path d="m 27.827654,-22.31779 a 9,9 0 1 0 0,-18 9,9 0 0 0 0,18 z" fill="url(#CanvaBrand_svg__paint2_radial_9458_3730)" id="path4" style="fill:#000000" clip-path="url(#clipPath15)" inkscape:path-effect="#path-effect19" transform="matrix(1.7777778,0,0,1.7777778,-33.471386,71.676072)" />
  <path d="m 27.827654,-22.31779 a 9,9 0 1 0 0,-18 9,9 0 0 0 0,18 z" fill="url(#CanvaBrand_svg__paint3_radial_9458_3730)" id="path5" style="fill:#000000" clip-path="url(#clipPath14)" inkscape:path-effect="#path-effect18" transform="matrix(1.7777778,0,0,1.7777778,-33.471386,71.676072)" />
  <defs id="defs14">
    <inkscape:path-effect effect="powerclip" message="" id="path-effect22" is_visible="true" lpeversion="1" inverse="true" flatten="false" hide_clip="false" />
    <inkscape:path-effect effect="powerclip" message="" id="path-effect21" is_visible="true" lpeversion="1" inverse="true" flatten="false" hide_clip="false" />
    <inkscape:path-effect effect="powerclip" message="" id="path-effect20" is_visible="true" lpeversion="1" inverse="true" flatten="false" hide_clip="false" />
    <inkscape:path-effect effect="powerclip" message="" id="path-effect19" is_visible="true" lpeversion="1" inverse="true" flatten="false" hide_clip="false" />
    <inkscape:path-effect effect="powerclip" message="" id="path-effect18" is_visible="true" lpeversion="1" inverse="true" flatten="false" hide_clip="false" />
    <radialGradient id="CanvaBrand_svg__paint0_radial_9458_3730" cx="0" cy="0" r="1" gradientUnits="userSpaceOnUse" gradientTransform="matrix(9.0568012,-10.572725,10.572725,9.0568012,22.304199,-24.363949)">
      <stop stop-color="#6420FF" id="stop6" />
      <stop offset="1" stop-color="#6420FF" stop-opacity="0" id="stop7" />
    </radialGradient>
    <radialGradient id="CanvaBrand_svg__paint1_radial_9458_3730" cx="0" cy="0" r="1" gradientUnits="userSpaceOnUse" gradientTransform="matrix(9.071116,12.813019,-12.813019,9.071116,23.592927,-38.271608)">
      <stop stop-color="#00C4CC" id="stop8" />
      <stop offset="1" stop-color="#00C4CC" stop-opacity="0" id="stop9" />
    </radialGradient>
    <radialGradient id="CanvaBrand_svg__paint2_radial_9458_3730" cx="0" cy="0" r="1" gradientUnits="userSpaceOnUse" gradientTransform="matrix(9.6916859,-9.7578806,4.4877666,4.4573228,22.304589,-24.364038)">
      <stop stop-color="#6420FF" id="stop10" />
      <stop offset="1" stop-color="#6420FF" stop-opacity="0" id="stop11" />
    </radialGradient>
    <radialGradient id="CanvaBrand_svg__paint3_radial_9458_3730" cx="0" cy="0" r="1" gradientUnits="userSpaceOnUse" gradientTransform="matrix(5.6462559,12.997905,-21.774401,9.4587426,26.188697,-37.892992)">
      <stop stop-color="#00C4CC" stop-opacity="0.726" id="stop12" />
      <stop offset="0" stop-color="#00C4CC" id="stop13" />
      <stop offset="1" stop-color="#00C4CC" stop-opacity="0" id="stop14" />
    </radialGradient>
    <clipPath clipPathUnits="userSpaceOnUse" id="clipPath14">
      <path d="m 31.713654,-29.47179 c -0.075,0 -0.14,0.063 -0.208,0.2 -0.768,1.558 -2.095,2.66 -3.63,2.66 -1.775,0 -2.875,-1.603 -2.875,-3.817 0,-3.75 2.09,-5.918 3.925,-5.918 0.857,0 1.381,0.539 1.381,1.397 0,1.018 -0.578,1.556 -0.578,1.915 0,0.162 0.1,0.26 0.299,0.26 0.798,0 1.736,-0.918 1.736,-2.215 0,-1.257 -1.094,-2.18 -2.93,-2.18 -3.032,0 -5.728,2.811 -5.728,6.702 0,3.011 1.72,5.002 4.373,5.002 2.816,0 4.445,-2.803 4.445,-3.712 0,-0.202 -0.103,-0.294 -0.21,-0.294 z" fill="#ffffff" id="path14" style="display:none" />
      <path id="lpe_path-effect18" class="powerclip" d="m 13.827654,-45.31779 h 28 v 28 h -28 z m 17.886,15.846 c -0.075,0 -0.14,0.063 -0.208,0.2 -0.768,1.558 -2.095,2.66 -3.63,2.66 -1.775,0 -2.875,-1.603 -2.875,-3.817 0,-3.75 2.09,-5.918 3.925,-5.918 0.857,0 1.381,0.539 1.381,1.397 0,1.018 -0.578,1.556 -0.578,1.915 0,0.162 0.1,0.26 0.299,0.26 0.798,0 1.736,-0.918 1.736,-2.215 0,-1.257 -1.094,-2.18 -2.93,-2.18 -3.032,0 -5.728,2.811 -5.728,6.702 0,3.011 1.72,5.002 4.373,5.002 2.816,0 4.445,-2.803 4.445,-3.712 0,-0.202 -0.103,-0.294 -0.21,-0.294 z" />
    </clipPath>
    <clipPath clipPathUnits="userSpaceOnUse" id="clipPath15">
      <path d="m 31.713654,-29.47179 c -0.075,0 -0.14,0.063 -0.208,0.2 -0.768,1.558 -2.095,2.66 -3.63,2.66 -1.775,0 -2.875,-1.603 -2.875,-3.817 0,-3.75 2.09,-5.918 3.925,-5.918 0.857,0 1.381,0.539 1.381,1.397 0,1.018 -0.578,1.556 -0.578,1.915 0,0.162 0.1,0.26 0.299,0.26 0.798,0 1.736,-0.918 1.736,-2.215 0,-1.257 -1.094,-2.18 -2.93,-2.18 -3.032,0 -5.728,2.811 -5.728,6.702 0,3.011 1.72,5.002 4.373,5.002 2.816,0 4.445,-2.803 4.445,-3.712 0,-0.202 -0.103,-0.294 -0.21,-0.294 z" fill="#ffffff" id="path15" style="display:none" />
      <path id="lpe_path-effect19" class="powerclip" d="m 13.827654,-45.31779 h 28 v 28 h -28 z m 17.886,15.846 c -0.075,0 -0.14,0.063 -0.208,0.2 -0.768,1.558 -2.095,2.66 -3.63,2.66 -1.775,0 -2.875,-1.603 -2.875,-3.817 0,-3.75 2.09,-5.918 3.925,-5.918 0.857,0 1.381,0.539 1.381,1.397 0,1.018 -0.578,1.556 -0.578,1.915 0,0.162 0.1,0.26 0.299,0.26 0.798,0 1.736,-0.918 1.736,-2.215 0,-1.257 -1.094,-2.18 -2.93,-2.18 -3.032,0 -5.728,2.811 -5.728,6.702 0,3.011 1.72,5.002 4.373,5.002 2.816,0 4.445,-2.803 4.445,-3.712 0,-0.202 -0.103,-0.294 -0.21,-0.294 z" />
    </clipPath>
    <clipPath clipPathUnits="userSpaceOnUse" id="clipPath16">
      <path d="m 31.713654,-29.47179 c -0.075,0 -0.14,0.063 -0.208,0.2 -0.768,1.558 -2.095,2.66 -3.63,2.66 -1.775,0 -2.875,-1.603 -2.875,-3.817 0,-3.75 2.09,-5.918 3.925,-5.918 0.857,0 1.381,0.539 1.381,1.397 0,1.018 -0.578,1.556 -0.578,1.915 0,0.162 0.1,0.26 0.299,0.26 0.798,0 1.736,-0.918 1.736,-2.215 0,-1.257 -1.094,-2.18 -2.93,-2.18 -3.032,0 -5.728,2.811 -5.728,6.702 0,3.011 1.72,5.002 4.373,5.002 2.816,0 4.445,-2.803 4.445,-3.712 0,-0.202 -0.103,-0.294 -0.21,-0.294 z" fill="#ffffff" id="path16" style="display:none" />
      <path id="lpe_path-effect20" class="powerclip" d="m 13.827654,-45.31779 h 28 v 28 h -28 z m 17.886,15.846 c -0.075,0 -0.14,0.063 -0.208,0.2 -0.768,1.558 -2.095,2.66 -3.63,2.66 -1.775,0 -2.875,-1.603 -2.875,-3.817 0,-3.75 2.09,-5.918 3.925,-5.918 0.857,0 1.381,0.539 1.381,1.397 0,1.018 -0.578,1.556 -0.578,1.915 0,0.162 0.1,0.26 0.299,0.26 0.798,0 1.736,-0.918 1.736,-2.215 0,-1.257 -1.094,-2.18 -2.93,-2.18 -3.032,0 -5.728,2.811 -5.728,6.702 0,3.011 1.72,5.002 4.373,5.002 2.816,0 4.445,-2.803 4.445,-3.712 0,-0.202 -0.103,-0.294 -0.21,-0.294 z" />
    </clipPath>
    <clipPath clipPathUnits="userSpaceOnUse" id="clipPath17">
      <path d="m 31.713654,-29.47179 c -0.075,0 -0.14,0.063 -0.208,0.2 -0.768,1.558 -2.095,2.66 -3.63,2.66 -1.775,0 -2.875,-1.603 -2.875,-3.817 0,-3.75 2.09,-5.918 3.925,-5.918 0.857,0 1.381,0.539 1.381,1.397 0,1.018 -0.578,1.556 -0.578,1.915 0,0.162 0.1,0.26 0.299,0.26 0.798,0 1.736,-0.918 1.736,-2.215 0,-1.257 -1.094,-2.18 -2.93,-2.18 -3.032,0 -5.728,2.811 -5.728,6.702 0,3.011 1.72,5.002 4.373,5.002 2.816,0 4.445,-2.803 4.445,-3.712 0,-0.202 -0.103,-0.294 -0.21,-0.294 z" fill="#ffffff" id="path17" style="display:none" />
      <path id="lpe_path-effect21" class="powerclip" d="m 13.827654,-45.31779 h 28 v 28 h -28 z m 17.886,15.846 c -0.075,0 -0.14,0.063 -0.208,0.2 -0.768,1.558 -2.095,2.66 -3.63,2.66 -1.775,0 -2.875,-1.603 -2.875,-3.817 0,-3.75 2.09,-5.918 3.925,-5.918 0.857,0 1.381,0.539 1.381,1.397 0,1.018 -0.578,1.556 -0.578,1.915 0,0.162 0.1,0.26 0.299,0.26 0.798,0 1.736,-0.918 1.736,-2.215 0,-1.257 -1.094,-2.18 -2.93,-2.18 -3.032,0 -5.728,2.811 -5.728,6.702 0,3.011 1.72,5.002 4.373,5.002 2.816,0 4.445,-2.803 4.445,-3.712 0,-0.202 -0.103,-0.294 -0.21,-0.294 z" />
    </clipPath>
    <clipPath clipPathUnits="userSpaceOnUse" id="clipPath18">
      <path d="m 31.713654,-29.47179 c -0.075,0 -0.14,0.063 -0.208,0.2 -0.768,1.558 -2.095,2.66 -3.63,2.66 -1.775,0 -2.875,-1.603 -2.875,-3.817 0,-3.75 2.09,-5.918 3.925,-5.918 0.857,0 1.381,0.539 1.381,1.397 0,1.018 -0.578,1.556 -0.578,1.915 0,0.162 0.1,0.26 0.299,0.26 0.798,0 1.736,-0.918 1.736,-2.215 0,-1.257 -1.094,-2.18 -2.93,-2.18 -3.032,0 -5.728,2.811 -5.728,6.702 0,3.011 1.72,5.002 4.373,5.002 2.816,0 4.445,-2.803 4.445,-3.712 0,-0.202 -0.103,-0.294 -0.21,-0.294 z" fill="#ffffff" id="path18" style="display:none" />
      <path id="lpe_path-effect22" class="powerclip" d="m 13.827654,-45.31779 h 28 v 28 h -28 z m 17.886,15.846 c -0.075,0 -0.14,0.063 -0.208,0.2 -0.768,1.558 -2.095,2.66 -3.63,2.66 -1.775,0 -2.875,-1.603 -2.875,-3.817 0,-3.75 2.09,-5.918 3.925,-5.918 0.857,0 1.381,0.539 1.381,1.397 0,1.018 -0.578,1.556 -0.578,1.915 0,0.162 0.1,0.26 0.299,0.26 0.798,0 1.736,-0.918 1.736,-2.215 0,-1.257 -1.094,-2.18 -2.93,-2.18 -3.032,0 -5.728,2.811 -5.728,6.702 0,3.011 1.72,5.002 4.373,5.002 2.816,0 4.445,-2.803 4.445,-3.712 0,-0.202 -0.103,-0.294 -0.21,-0.294 z" />
    </clipPath>
  </defs>
</svg>
