<?xml version="1.0" encoding="UTF-8" standalone="no"?>
<svg viewBox="-0.0019302249 -0.0010097499 32 32" version="1.1" id="svg1" width="32" height="32" xmlns="http://www.w3.org/2000/svg" xmlns:svg="http://www.w3.org/2000/svg">
  <defs id="defs1" />
  <g id="Group_3532" data-name="Group 3532" style="fill:#000000" transform="matrix(0.83503947,0,0,0.83503947,-3.1849442e-4,5.9926162)">
    <g id="Group_3531" data-name="Group 3531" style="fill:#000000">
      <path id="Path_5153" data-name="Path 5153" d="m 212.761,13.938 a 5.51,5.51 0 0 0 -2.258,-2.19 q -0.137,-0.1 0,-0.205 a 5.022,5.022 0 0 0 2.6,-4.722 q 0,-3.66 -2.207,-5.218 -2.207,-1.558 -6.586,-1.557 h -8.828 a 0.51,0.51 0 0 0 -0.376,0.137 0.509,0.509 0 0 0 -0.137,0.376 v 22.925 a 0.474,0.474 0 0 0 0.513,0.513 h 9.136 a 11.241,11.241 0 0 0 6.4,-1.66 5.807,5.807 0 0 0 2.463,-5.184 6.7,6.7 0 0 0 -0.718,-3.216" transform="translate(-175.177,-0.041)" fill="#fff" style="fill:#000000" />
      <path id="Path_5154" data-name="Path 5154" d="M 15.192,11.978 V 7.644 a 0.563,0.563 0 0 1 0.48,-0.607 l 2.48,-0.449 C 18.352,6.543 18.51,6.506 18.51,6.132 V 0.481 A 0.48,0.48 0 0 0 18.03,0 H 9.148 V 0 A 10.418,10.418 0 0 0 4.4,1.071 7.81,7.81 0 0 0 1.154,4.1 8.756,8.756 0 0 0 0,8.63 v 6.695 a 8.756,8.756 0 0 0 1.154,4.532 7.81,7.81 0 0 0 3.246,3.028 10.418,10.418 0 0 0 4.75,1.068 v 0 h 8.88 a 0.48,0.48 0 0 0 0.48,-0.481 v -5.648 c 0,-0.374 -0.162,-0.411 -0.358,-0.456 l -2.48,-0.449 a 0.563,0.563 0 0 1 -0.48,-0.607 z" fill="#fff" style="fill:#000000" />
    </g>
  </g>
</svg>
