<?xml version="1.0" encoding="UTF-8" standalone="no"?>
<svg id="a" viewBox="0 0 32 32" version="1.1" sodipodi:docname="carrefour.svg" width="32" height="32" inkscape:version="1.4-beta2 (9aaf4f34, 2024-07-30)" xmlns:inkscape="http://www.inkscape.org/namespaces/inkscape" xmlns:sodipodi="http://sodipodi.sourceforge.net/DTD/sodipodi-0.dtd" xmlns="http://www.w3.org/2000/svg" xmlns:svg="http://www.w3.org/2000/svg">
  <sodipodi:namedview id="namedview1" pagecolor="#ffffff" bordercolor="#000000" borderopacity="0.25" inkscape:showpageshadow="2" inkscape:pageopacity="0.0" inkscape:pagecheckerboard="0" inkscape:deskcolor="#d1d1d1" inkscape:zoom="0.325" inkscape:cx="233.84615" inkscape:cy="38.461538" inkscape:window-width="1440" inkscape:window-height="790" inkscape:window-x="0" inkscape:window-y="0" inkscape:window-maximized="1" inkscape:current-layer="a" />
  <defs id="defs1">
    <style id="style1">.f{stroke-width:0px;}</style>
  </defs>
  <g id="g1" transform="matrix(0.26520802,0,0,0.26520802,1.534e-7,5.3916792)">
    <path id="d" class="f" d="M 35.68,2.7 2.7,34.61 C 1.05,36.01 0,37.65 0,40 c 0,2.35 1.05,3.99 2.7,5.4 l 32.99,31.9 c 0.21,0.22 0.42,0.3 0.59,0.3 0.31,0 0.53,-0.28 0.52,-0.62 0,-0.2 -0.09,-0.42 -0.29,-0.62 C 28.77,66.74 23.13,55.71 23.13,40.11 23.13,24.51 28.76,13.26 36.5,3.64 36.7,3.45 36.78,3.22 36.79,3.02 36.8,2.68 36.58,2.4 36.27,2.4 36.1,2.4 35.89,2.48 35.68,2.7" />
    <path id="e" class="f" d="M 61.04,0 C 48.12,0 43.08,18.3 43.08,40.12 43.08,61.94 48.13,80 61.04,80 c 7.75,0 14.36,-4.54 14.38,-8.27 0,-0.82 -0.31,-1.6 -1,-2.28 -3.67,-3.55 -5.11,-7.1 -5.12,-10.23 -0.02,-5.98 5.16,-10.43 9.94,-10.43 6.57,0 10.44,5.16 10.44,11.85 0,6.34 -2.7,11.61 -5.64,15.84 -0.12,0.17 -0.17,0.37 -0.17,0.53 0,0.33 0.2,0.6 0.49,0.6 0.18,0 0.39,-0.09 0.61,-0.32 l 32.99,-31.9 c 1.65,-1.41 2.7,-3.06 2.7,-5.4 0,-2.34 -1.05,-3.99 -2.7,-5.39 L 84.99,2.7 C 84.76,2.47 84.56,2.38 84.38,2.38 c -0.29,0 -0.49,0.27 -0.49,0.61 0,0.17 0.05,0.36 0.17,0.54 2.94,4.22 5.64,9.5 5.64,15.84 0,6.68 -3.87,11.85 -10.44,11.85 -4.78,0 -9.96,-4.45 -9.94,-10.42 0.01,-3.13 1.45,-6.68 5.12,-10.23 0.69,-0.69 1,-1.46 1,-2.28 C 75.42,4.55 68.81,0.01 61.06,0.01" />
  </g>
</svg>
