<svg viewBox="0 0 251.18401 80" fill="none" version="1.1" id="svg2" xmlns="http://www.w3.org/2000/svg" xmlns:svg="http://www.w3.org/2000/svg">
  <defs id="defs2" />
  <g id="g2" style="fill:#000000" transform="matrix(1.2559185,0,0,1.2559185,1.5286865e-4,14)">
    <path d="M 196.943,38.219 H 200 V 0 h -3.057 z m -16.97,-7.0323 c 0,-4.1276 2.255,-5.2742 6.306,-5.8475 l 4.128,-0.5733 v 7.8731 c -1.49,2.1403 -3.822,3.4015 -6.153,3.4015 -2.599,0.0382 -4.281,-1.1466 -4.281,-4.8538 z m 5.733,-16.3195 c 3.44,0 4.701,1.6434 4.701,4.2041 v 3.4397 l -4.433,0.5733 c -6.077,0.8026 -9.135,3.0193 -9.135,8.2553 0,4.2423 1.835,7.3762 6.498,7.3762 2.981,0 5.541,-0.9936 7.299,-3.5925 l 0.306,3.0957 h 2.676 l -0.153,-5.5418 V 19.4535 c -0.039,-4.6245 -2.026,-7.0323 -7.759,-7.0323 -5.962,0 -7.873,2.4842 -7.873,6.9176 l 3.172,0.4204 c -0.038,-3.3632 1.223,-4.892 4.701,-4.892 z m -22.473,0.6497 h 2.981 v 18.1158 c 0,3.1722 1.491,5.0831 5.351,5.0831 1.376,0 2.408,-0.2293 3.019,-0.4968 l -0.229,-2.6753 c -0.42,0.1528 -1.299,0.4204 -2.408,0.4204 -1.567,0 -2.675,-0.4586 -2.675,-2.79 V 15.5169 h 5.542 v -2.6371 h -5.542 V 5.96216 l -3.058,0.22932 v 6.68832 h -2.981 z m -2.14,-12.91801 h -3.631 V 6.2297 h 3.631 z M 157.73,38.219 h 3.057 V 12.918 H 157.73 Z M 140.264,18.7655 c 1.681,-2.2167 3.44,-3.5926 5.886,-3.5926 4.509,0 5.388,3.8219 5.388,10.3574 0,6.5354 -0.917,10.3956 -5.388,10.3956 -2.446,0 -4.205,-1.3759 -5.886,-3.5926 z m 6.459,19.9503 c 6.268,0 8.026,-4.892 8.026,-13.1473 0,-8.2553 -1.758,-13.1473 -8.026,-13.1473 -2.523,0 -4.816,0.9937 -6.689,3.5926 l -0.305,-3.0958 h -2.676 l 0.077,5.5418 v 29.314 h 3.096 V 35.4672 c 1.834,2.2932 3.936,3.2486 6.497,3.2486 z m -26.142,-7.5291 c 0,-4.1276 2.255,-5.2742 6.306,-5.8475 l 4.128,-0.5733 v 7.8731 c -1.491,2.1403 -3.822,3.4015 -6.153,3.4015 -2.638,0.0382 -4.281,-1.1466 -4.281,-4.8538 z m 5.733,-16.3195 c 3.44,0 4.701,1.6434 4.701,4.2041 v 3.4397 l -4.434,0.5733 c -6.076,0.8026 -9.134,3.0193 -9.134,8.2553 0,4.2423 1.835,7.3762 6.497,7.3762 2.981,0 5.542,-0.9936 7.3,-3.5925 l 0.306,3.0957 h 2.675 l -0.153,-5.5418 V 19.4535 c -0.038,-4.6245 -2.025,-7.0323 -7.758,-7.0323 -5.962,0 -7.873,2.4842 -7.873,6.9176 l 3.172,0.4204 c -0.038,-3.3632 1.185,-4.892 4.701,-4.892 z m -26.677,4.7391 c 0,-11.50387 0.994,-16.28125 6.994,-16.28125 4.816,0 5.771,2.25492 5.848,7.83485 l 3.172,-0.4586 c 0,-6.68831 -1.72,-10.166234 -8.943,-10.166234 -7.8354,0 -10.1667,4.930254 -10.1667,19.109534 0,14.1792 2.3313,19.1095 10.1667,19.1095 7.223,0 8.943,-3.478 8.943,-10.1663 l -3.172,-0.4586 c -0.039,5.58 -0.994,7.8349 -5.848,7.8349 -6,-0.0765 -6.994,-4.8538 -6.994,-16.3578 z" fill="black" id="path1" style="fill:#000000" />
    <path d="m 80.9861,30.4988 c 0,-2.5989 1.3376,-3.478 3.8219,-3.8219 l 2.6753,-0.4204 v 5.3888 c -0.9173,1.2613 -2.2167,2.0639 -3.8219,2.0639 -1.7199,0 -2.6753,-1.0702 -2.6753,-3.2104 z m 3.7837,-13.3385 c 2.102,0 2.7135,1.0702 2.7135,2.79 v 2.2932 l -3.2104,0.4968 c -6.6501,0.9555 -9.593,2.9811 -9.593,8.3318 0,4.892 1.8728,7.7584 6.4973,7.7584 3.2104,0 5.1595,-0.879 6.8412,-3.0575 l 0.3057,2.5224 h 5.6564 L 93.8277,31.6836 V 20.4472 c 0,-5.924 -2.0256,-8.0642 -8.9433,-8.0642 -7.6056,0 -9.3254,2.8664 -9.3254,7.7584 l 6.4208,0.7644 c -0.0383,-2.79 0.8026,-3.7455 2.79,-3.7455 z M 59.2012,18.154 h 2.9811 v 13.6824 c 0,4.3952 2.1403,6.9177 7.2616,6.9177 2.255,0 3.2869,-0.3058 4.0512,-0.5733 L 73.1512,32.983 c -0.5351,0.1911 -1.4523,0.4204 -2.446,0.4204 -1.3759,0 -2.2932,-0.5351 -2.2932,-2.4078 V 18.154 h 5.1978 V 12.918 H 68.412 V 6.11504 L 62.1441,6.19148 V 12.8798 H 59.163 v 5.2742 z m -3.0575,0.3058 c 0.5733,0 1.2612,0.0382 1.6434,0.1911 l 0.344,-5.7711 c -0.5733,-0.3822 -1.2612,-0.4968 -2.0638,-0.4968 -2.0256,0 -3.9366,1.1083 -5.1596,3.2868 l -0.344,-2.79 h -5.5799 l 0.1146,6.6119 V 38.219 h 6.3062 V 20.7529 c 1.2612,-1.4523 2.7899,-2.2931 4.7391,-2.2931 z m -26.5622,12.039 c 0,-2.5989 1.3377,-3.478 3.8219,-3.8219 l 2.6753,-0.4204 v 5.3888 c -0.9172,1.2613 -2.2167,2.0639 -3.8219,2.0639 -1.7198,0 -2.6753,-1.0702 -2.6753,-3.2104 z m 3.7837,-13.3385 c 2.102,0 2.7135,1.0702 2.7135,2.79 v 2.2932 l -3.2104,0.4586 c -6.6501,0.9555 -9.5929,2.9811 -9.5929,8.3317 0,4.8921 1.8727,7.7585 6.4972,7.7585 3.2104,0 5.1596,-0.879 6.8412,-3.0575 l 0.3058,2.5224 H 42.576 L 42.4231,31.6453 V 20.4472 c 0,-5.924 -2.0256,-8.0642 -8.9433,-8.0642 -7.6055,0 -9.3254,2.8664 -9.3254,7.7584 l 6.4208,0.7644 c -0.0382,-2.79 0.7644,-3.7455 2.79,-3.7455 z M 6.49723,19.6064 c 0,-9.1726 0.91726,-13.52958 4.89207,-13.52958 3.4779,0 4.4334,1.49055 4.5098,6.61188 l 6.4208,-0.8408 C 22.167,3.93656 19.9885,0.420412 11.5039,0.420412 3.63081,0.420412 0,4.96847 0,19.6064 c 0,14.6378 3.63081,19.1477 11.5039,19.1477 8.4464,0 10.6631,-3.478 10.7396,-11.4275 L 15.8227,26.524 c -0.0383,5.1213 -0.9937,6.6119 -4.5099,6.6119 -3.89831,0 -4.81557,-4.357 -4.81557,-13.5295 z" fill="#CD1719" id="path2" style="fill:#000000" />
  </g>
</svg>
