<?xml version="1.0" encoding="UTF-8" standalone="no"?>
<svg viewBox="0 0 32.000001 32" fill="none" version="1.1" id="svg2" sodipodi:docname="carta.svg" width="32" height="32" inkscape:version="1.4-beta2 (9aaf4f34, 2024-07-30)" xmlns:inkscape="http://www.inkscape.org/namespaces/inkscape" xmlns:sodipodi="http://sodipodi.sourceforge.net/DTD/sodipodi-0.dtd" xmlns="http://www.w3.org/2000/svg" xmlns:svg="http://www.w3.org/2000/svg">
  <sodipodi:namedview id="namedview1" pagecolor="#ffffff" bordercolor="#000000" borderopacity="0.25" inkscape:showpageshadow="2" inkscape:pageopacity="0.0" inkscape:pagecheckerboard="0" inkscape:deskcolor="#d1d1d1" inkscape:zoom="4.3380973" inkscape:cx="14.061464" inkscape:cy="26.855091" inkscape:window-width="1440" inkscape:window-height="790" inkscape:window-x="0" inkscape:window-y="0" inkscape:window-maximized="1" inkscape:current-layer="svg2" />
  <defs id="defs2" />
  <g id="g1" transform="matrix(0.27111327,0,0,0.27111327,-4.146468e-5,5.5220217)">
    <path d="m 101.71209,52.304007 c 0,-3.264006 1.67992,-4.368084 4.8,-4.799995 l 3.35996,-0.527988 v 6.767894 c -1.15206,1.58409 -2.784,2.59209 -4.8,2.59209 -2.16005,0 -3.35996,-1.344084 -3.35996,-4.032001 z m 4.75202,-16.752069 c 2.63994,0 3.40794,1.344084 3.40794,3.504013 v 2.880072 l -4.032,0.62394 c -8.351987,1.200031 -12.048029,3.744019 -12.048029,10.464062 0,6.143954 2.352084,9.743918 8.160079,9.743918 4.032,0 6.47991,-1.103952 8.59199,-3.83997 l 0.38393,3.167928 h 7.10398 l -0.1919,-8.303882 V 39.680017 c 0,-7.440061 -2.54399,-10.127978 -11.23206,-10.127978 -9.552013,0 -11.711941,3.599965 -11.711941,9.743918 l 8.064001,0.960024 c -0.0481,-3.504013 1.008,-4.704043 3.50401,-4.704043 z m -32.112075,1.248006 h 3.744019 v 17.18398 c 0,5.520013 2.688042,8.688067 9.119978,8.688067 2.832096,0 4.128078,-0.38406 5.087977,-0.720018 L 91.872098,55.42396 c -0.672042,0.240006 -1.82397,0.527988 -3.071976,0.527988 -1.728019,0 -2.880073,-0.672042 -2.880073,-3.024001 V 36.799944 h 6.528013 v -6.575989 h -6.528013 v -8.543963 l -7.871971,0.096 v 8.399985 h -3.744019 v 6.623965 z m -3.839971,0.38406 c 0.720018,0 1.583965,0.04798 2.063977,0.240006 l 0.432036,-7.248031 c -0.720018,-0.480012 -1.583965,-0.62394 -2.591965,-0.62394 -2.543988,0 -4.944049,1.391934 -6.480037,4.127953 l -0.432036,-3.504013 h -7.0079 l 0.143929,8.304008 v 23.519962 h 7.920073 V 40.063951 c 1.583964,-1.82397 3.503887,-2.879947 5.951923,-2.879947 z M 37.152106,52.304007 c 0,-3.264006 1.680042,-4.368084 4.799995,-4.799995 l 3.359959,-0.527988 v 6.767894 c -1.151929,1.58409 -2.783995,2.59209 -4.799995,2.59209 -2.159929,0 -3.359959,-1.344084 -3.359959,-4.032001 z m 4.752019,-16.752069 c 2.63994,0 3.407935,1.344084 3.407935,3.504013 v 2.880072 l -4.032001,0.575964 c -8.351984,1.200031 -12.047901,3.744019 -12.047901,10.463937 0,6.144078 2.351959,9.744043 8.159954,9.744043 4.032001,0 6.480037,-1.103952 8.59199,-3.839971 l 0.38406,3.167929 h 7.103977 l -0.19203,-8.304007 V 39.680017 c 0,-7.440061 -2.543989,-10.127978 -11.232056,-10.127978 -9.551888,0 -11.711942,3.599965 -11.711942,9.743918 l 8.064001,0.960024 c -0.04798,-3.504013 0.960024,-4.704043 3.504013,-4.704043 z M 8.1601442,38.62404 c 0,-11.520038 1.1520038,-16.992049 6.1440408,-16.992049 4.367959,0 5.56799,1.872009 5.663942,8.303982 l 8.064001,-1.055976 C 27.840098,18.943999 25.10408,14.528003 14.448114,14.528003 c -9.8879597,0 -14.44796113135,5.71199 -14.44796113135,24.096037 0,18.383884 4.56000143135,24.047951 14.44796113135,24.047951 10.60799,0 13.391984,-4.368084 13.488062,-14.352009 l -8.064001,-1.008 c -0.0481,6.431936 -1.248007,8.304008 -5.664067,8.304008 -4.89596,0 -6.0479638,-5.472037 -6.0479638,-16.99195 z" fill="#CD1719" id="path2" style="fill:#000000;stroke-width:1.25592" />
  </g>
</svg>
