<?xml version="1.0" encoding="UTF-8"?><svg id="a" xmlns="http://www.w3.org/2000/svg" viewBox="0 0 378.15 80"><g id="b"><g id="c"><path id="d" d="m227.08,39.34c3.74-1.2,6.24-4.75,6.1-8.67,0-6.03-4.79-9.81-12.63-9.81h-17.05v38.31h17.53c8.51,0,13.92-4.22,13.92-10.47.2-4.69-3.22-8.76-7.87-9.36h0Zm-18.2-13.75h11.1c5.13,0,8.07,2.2,8.07,5.68s-3,6.19-8.46,6.19h-10.7v-11.87h0Zm12.01,28.84h-12.01v-12.1h12.16c5.41,0,8.67,2.03,8.67,5.68s-3.16,6.36-8.84,6.36l.02.05h0Z" style="stroke-width:0px;"/><path id="e" d="m256.03,20.62l-17.05,38.54h5.68l4.28-9.85h19.16l4.28,9.85h5.68l-17.05-38.54h-5,0Zm-4.91,23.73l7.44-17.25,7.44,17.25h-14.89,0Z" style="stroke-width:0px;"/><path id="f" d="m311.22,37.82h-21.13v-17.05h-5.36v38.38h5.36v-16.38h21.13v16.38h5.39V20.85h-5.41l.02,16.97Z" style="stroke-width:0px;"/><rect id="g" x="327.24" y="20.85" width="5.36" height="38.31" style="stroke-width:0px;"/><path id="h" d="m361.17,20.62h-5.07l-17.05,38.54h5.68l4.28-9.85h19.16l4.3,9.85h5.68l-16.98-38.54h0Zm-10,23.73l7.44-17.25,7.44,17.25h-14.89,0Z" style="stroke-width:0px;"/></g><g id="i"><path id="j" d="m56.02,20.62l-16.29,38.54h10.13l2.63-6.59h16.23l2.6,6.59h10.15l-16.33-38.54h-9.13,0Zm-.45,23.84l4.96-12.73,4.96,12.73h-9.93,0Z" style="stroke-width:0px;"/><path id="k" d="m104.85,36.51l-5.34-1.24c-3.05-.62-4.62-1.57-4.62-3.79,0-2.48,2.2-3.95,5.68-3.95,3.17-.29,5.99,2.02,6.31,5.19h9.58c-.97-10.3-10.18-12.73-16.4-12.73-9.01,0-15.15,4.84-15.15,12.51,0,6.08,3.54,9.46,11.1,11.14l6.31,1.36c3.31.6,4.05,2.03,4.05,3.37,0,2.14-2.03,3.48-5.41,3.48-4.51,0-7.37-2.2-7.99-5.56h-9.73c.91,9.46,8.67,13.63,17.31,13.63,9.56,0,15.89-4.79,15.89-12.44-.02-6.59-4.52-9.39-11.57-10.98h-.02Z" style="stroke-width:0px;"/><path id="l" d="m135.14,20.62l-16.36,38.54h10.23l2.54-6.59h16.23l2.58,6.59h10.1l-16.17-38.54h-9.14Zm-.45,23.84l4.92-12.73,4.96,12.73h-9.88Z" style="stroke-width:0px;"/><path id="m" d="m183.99,36.51l-5.36-1.24c-3.05-.62-4.62-1.57-4.62-3.79,0-2.48,2.2-3.95,5.68-3.95,3.17-.31,6,2.02,6.31,5.19h9.46c-.95-10.3-10.18-12.73-16.38-12.73-9.03,0-15.15,4.84-15.15,12.51,0,6.08,3.56,9.46,11.1,11.14l6.33,1.36c3.31.6,4.05,2.03,4.05,3.37,0,2.14-2.03,3.48-5.41,3.48-4.51,0-7.39-2.2-7.99-5.56h-9.68c.89,9.46,8.67,13.63,17.31,13.63,9.46,0,15.89-4.79,15.89-12.44.02-6.59-4.49-9.39-11.54-10.98h0Z" style="stroke-width:0px;"/><path id="n" d="m29.16,43.28c-.69,4.64-4.78,8-9.46,7.79-6.1-.36-10.75-5.59-10.39-11.69.33-5.6,4.8-10.07,10.39-10.39,4.68-.24,8.78,3.13,9.46,7.77l9.56-1.51c-1.65-9.07-9.73-15.53-18.94-15.15C8.76,20.17-.1,29.18,0,40.21c.09,10.63,8.49,19.32,19.11,19.77h.68c9.21.38,17.29-6.08,18.94-15.15l-9.46-1.49-.1-.05h0Z" style="stroke-width:0px;"/></g></g></svg>