<svg width="32" height="32" xmlns="http://www.w3.org/2000/svg">
  <path d="M4.294 0h.165a250.96 250.96 0 0 1 .93 0 784.784 784.784 0 0 1 1.72 0h.112a34913.898 34913.898 0 0 0 6.436 0h.878c4.51-.002 4.51-.002 5.695.253.154.032.308.057.463.082.275.045.545.1.816.164v.11l.157.016c.44.065.835.221 1.232.415.138.059.266.085.412.114l.164.164c.142.04.142.04.273.054v.11l.327.109V1.7l.328.109v.109l.09.041c.157.083.297.182.442.287l.163.116.123.102v.109l.092.038c.161.09.275.21.4.344l.106.116c.165.182.327.36.46.566.075.142.075.142.198.191.05.088.05.088.102.198.182.392.182.392.444.73.006.17.006.17 0 .328l.163.054c.05.115.05.115.089.26l.04.142c.034.138.063.277.09.417h.054l.014.098a276.529 276.529 0 0 0 .129.875c.02.128.02.128.075.282.006.147.008.292.008.439v.131a98.987 98.987 0 0 1 0 .692c0 .544-.006 1.077-.12 1.61l-.03.14-.021.1h-.11l-.013.204c-.076.652-.383 1.197-.696 1.76-.088.156-.088.156-.11.328h-.108v.11h-.11v.108h-.109c-.005.032-.01.063-.017.096a.833.833 0 0 1-.2.341h-.11l-.038.092c-.091.162-.211.27-.344.4-.086.1-.171.2-.255.302-.073.08-.073.08-.182.134l-.109.164-.273.109-.12.099a3.458 3.458 0 0 1-.555.34l-.105.057c-.612.323-.612.323-.857.323v.109l-.164.054.158.04c.43.111.847.235 1.261.397l.137.05c.355.135.68.308 1.01.496l.105.058c.225.124.437.264.65.408.073.05.147.098.222.145.076.048.15.1.223.153v.109h.11c.073.09.146.181.218.273l.109.055v.109l.273.109v.109l.109.055c.074.108.146.217.218.327l.11.11v.163h.108c.151.254.288.514.42.778l.051.101c.071.143.134.28.184.43l.11.11c.03.093.057.188.081.283.046.179.093.356.147.532.044.168.044.168.044.386l.11.054c.02.144.02.144.03.328.012.2.026.398.053.597.039.343.034.688.033 1.033v.35c0 .552-.03 1.056-.174 1.588-.08.286-.08.286-.106.58l-.164.055-.054.436h-.11l-.01.13c-.1.445-.352.811-.62 1.173-.088.118-.088.118-.134.28h-.109l-.04.086-.07.133-.047.097c-.145.276-.145.276-.286.322l-.103.017c-.078.124-.117.242-.163.382l-.273.164c-.116.1-.229.201-.34.304-.097.078-.097.078-.206.078v.11l-.164.054-.072.075c-.092.089-.092.089-.252.167-.166.073-.166.073-.262.187-.154.145-.324.23-.512.321l-.105.053c-.255.125-.255.125-.38.125v.109l-.13.04c-.31.108-.615.23-.915.364-.26.112-.53.196-.8.282l-.155.05a7.79 7.79 0 0 1-1.127.27 42.127 42.127 0 0 1-.476.087 2.683 2.683 0 0 1-.6.053v.11c-.208.058-.374.047-.586.008-.132-.014-.132-.014-.294.017-.218.03-.431.038-.65.04l-.13.002a159.255 159.255 0 0 1-.735.007 487.557 487.557 0 0 1-1.367.014c-2.588.025-5.176.029-7.763.027a1436.12 1436.12 0 0 0-2.886 0 721.814 721.814 0 0 0-1.903 0h-.604c-.166-.007-.166-.007-.275-.061V.062C3.477.028 3.878 0 4.294.001ZM27.185 11.47v.164ZM23.31 15.4l.11.054ZM27.022 11.961l.109.055ZM2.787 8.25l.11.054Z"/>
</svg>