<?xml version="1.0" encoding="UTF-8"?><svg id="a" xmlns="http://www.w3.org/2000/svg" viewBox="0 0 425.5 80"><defs><style>.o{stroke-width:0px;}</style></defs><g id="b"><g id="c"><path id="d" class="o" d="m255.51,39.26c4.21-1.35,7.02-5.34,6.86-9.76,0-6.78-5.39-11.04-14.21-11.04h-19.18v43.11h19.73c9.57,0,15.66-4.75,15.66-11.78.23-5.28-3.62-9.86-8.86-10.53Zm-20.48-15.47h12.49c5.77,0,9.08,2.47,9.08,6.39s-3.37,6.97-9.52,6.97h-12.04v-13.36Zm13.51,32.45h-13.51v-13.62h13.68c6.09,0,9.76,2.28,9.76,6.39s-3.56,7.16-9.95,7.16l.02.06Z"/><path id="e" class="o" d="m288.09,18.2l-19.18,43.36h6.39l4.82-11.08h21.56l4.82,11.08h6.39l-19.18-43.36h-5.63Zm-5.52,26.7l8.37-19.41,8.37,19.41h-16.75Z"/><path id="f" class="o" d="m350.18,37.55h-23.78v-19.18h-6.03v43.19h6.03v-18.43h23.78v18.43h6.07V18.46h-6.09l.02,19.09Z"/><rect id="g" class="o" x="368.21" y="18.46" width="6.03" height="43.11"/><path id="h" class="o" d="m406.39,18.2h-5.71l-19.18,43.36h6.39l4.82-11.08h21.56l4.84,11.08h6.39l-19.11-43.36Zm-11.25,26.7l8.37-19.41,8.37,19.41h-16.75Z"/></g><g id="i"><path id="j" class="o" d="m63.03,18.2l-18.33,43.36h11.4l2.96-7.42h18.26l2.92,7.42h11.42l-18.37-43.36h-10.27Zm-.51,26.83l5.58-14.32,5.58,14.32h-11.17Z"/><path id="k" class="o" d="m117.98,36.08l-6.01-1.39c-3.43-.7-5.2-1.77-5.2-4.26,0-2.79,2.47-4.45,6.39-4.45,3.57-.33,6.74,2.27,7.1,5.84h10.78c-1.09-11.59-11.46-14.32-18.45-14.32-10.14,0-17.05,5.45-17.05,14.08,0,6.84,3.98,10.65,12.49,12.53l7.1,1.53c3.73.68,4.56,2.28,4.56,3.79,0,2.41-2.28,3.92-6.09,3.92-5.07,0-8.29-2.47-8.99-6.26h-10.95c1.02,10.65,9.76,15.34,19.48,15.34,10.76,0,17.88-5.39,17.88-14-.02-7.42-5.09-10.57-13.02-12.36Z"/><path id="l" class="o" d="m152.06,18.2l-18.41,43.36h11.51l2.86-7.42h18.26l2.9,7.42h11.36l-18.2-43.36h-10.27Zm-.51,26.83l5.54-14.32,5.58,14.32h-11.12Z"/><path id="m" class="o" d="m207.03,36.08l-6.03-1.39c-3.43-.7-5.2-1.77-5.2-4.26,0-2.79,2.47-4.45,6.39-4.45,3.57-.35,6.75,2.27,7.1,5.84h10.65c-1.07-11.59-11.46-14.32-18.43-14.32-10.16,0-17.05,5.45-17.05,14.08,0,6.84,4.01,10.65,12.49,12.53l7.12,1.53c3.73.68,4.56,2.28,4.56,3.79,0,2.41-2.28,3.92-6.09,3.92-5.07,0-8.31-2.47-8.99-6.26h-10.89c1,10.65,9.76,15.34,19.48,15.34,10.65,0,17.88-5.39,17.88-14,.02-7.42-5.05-10.57-12.98-12.36Z"/><path id="n" class="o" d="m32.81,43.69c-.78,5.22-5.38,9-10.65,8.76-6.86-.4-12.1-6.29-11.69-13.15.37-6.3,5.4-11.33,11.69-11.69,5.27-.27,9.88,3.52,10.65,8.74l10.76-1.7c-1.86-10.2-10.95-17.47-21.31-17.05C9.86,17.69-.11,27.83,0,40.24c.1,11.96,9.55,21.74,21.5,22.25h.77c10.36.43,19.46-6.84,21.31-17.05l-10.65-1.68-.11-.06Z"/></g></g></svg>