<svg id="Camada_1" data-name="Camada 1" xmlns="http://www.w3.org/2000/svg" viewBox="0 0 200 80"><g id="logo"><g id="Grupo_14" data-name="Grupo 14"><path id="Caminho_22" data-name="Caminho 22" d="M120.19,39.65a4.64,4.64,0,0,0,3.22-4.58c0-3.18-2.53-5.18-6.67-5.18h-9V50.12H117c4.49,0,7.35-2.23,7.35-5.53A4.77,4.77,0,0,0,120.19,39.65Zm-9.61-7.26h5.86c2.71,0,4.26,1.16,4.26,3s-1.58,3.27-4.47,3.27h-5.65Zm6.34,15.23h-6.34V41.23H117c2.86,0,4.58,1.07,4.58,3s-1.67,3.36-4.67,3.36Z"/><path id="Caminho_23" data-name="Caminho 23" d="M135.48,29.77l-9,20.35h3l2.26-5.2h10.12l2.26,5.2h3l-9-20.35ZM132.89,42.3l3.93-9.11,3.93,9.11Z"/><path id="Caminho_24" data-name="Caminho 24" d="M164.62,38.85H153.46v-9h-2.83V50.12h2.83V41.47h11.16v8.65h2.85V29.89h-2.86Z"/><rect id="Retângulo_19" data-name="Retângulo 19" x="173.08" y="29.89" width="2.83" height="20.23"/><path id="Caminho_25" data-name="Caminho 25" d="M191,29.77h-2.68l-9,20.35h3l2.26-5.2H194.7l2.27,5.2h3ZM185.72,42.3l3.93-9.11,3.93,9.11Z"/></g><g id="Grupo_15" data-name="Grupo 15"><path id="Caminho_26" data-name="Caminho 26" d="M29.86,29.77l-8.6,20.35h5.35L28,46.64h8.57l1.37,3.48h5.36L34.68,29.77Zm-.24,12.59,2.62-6.72,2.62,6.72Z"/><path id="Caminho_27" data-name="Caminho 27" d="M55.65,38.16l-2.82-.65c-1.61-.33-2.44-.83-2.44-2,0-1.31,1.16-2.09,3-2.09a3.06,3.06,0,0,1,3.33,2.74h5.06c-.51-5.44-5.38-6.72-8.66-6.72-4.76,0-8,2.56-8,6.61,0,3.21,1.87,5,5.86,5.88l3.33.72c1.75.32,2.14,1.07,2.14,1.78,0,1.13-1.07,1.84-2.86,1.84-2.38,0-3.89-1.16-4.22-2.94H44.23c.48,5,4.58,7.2,9.14,7.2,5.05,0,8.39-2.53,8.39-6.57C61.75,40.48,59.37,39,55.65,38.16Z"/><path id="Caminho_28" data-name="Caminho 28" d="M71.64,29.77,63,50.12H68.4l1.34-3.48h8.57l1.36,3.48H85L76.46,29.77ZM71.4,42.36,74,35.64l2.62,6.72Z"/><path id="Caminho_29" data-name="Caminho 29" d="M97.44,38.16l-2.83-.65c-1.61-.33-2.44-.83-2.44-2,0-1.31,1.16-2.09,3-2.09a3.05,3.05,0,0,1,3.33,2.74h5c-.5-5.44-5.38-6.72-8.65-6.72-4.77,0-8,2.56-8,6.61,0,3.21,1.88,5,5.86,5.88l3.34.72c1.75.32,2.14,1.07,2.14,1.78,0,1.13-1.07,1.84-2.86,1.84-2.38,0-3.9-1.16-4.22-2.94H86c.47,5,4.58,7.2,9.14,7.2,5,0,8.39-2.53,8.39-6.57C103.54,40.48,101.16,39,97.44,38.16Z"/><path id="Caminho_30" data-name="Caminho 30" d="M15.68,41.73a4.83,4.83,0,0,1-5,4.11,5.84,5.84,0,0,1,0-11.66,4.81,4.81,0,0,1,5,4.1l5.05-.8a9.76,9.76,0,0,0-10-8,10.54,10.54,0,0,0-.36,21.07h.36a9.75,9.75,0,0,0,10-8l-5-.79Z"/></g></g></svg>