<?xml version="1.0" encoding="UTF-8" standalone="no"?>
<svg version="1.1" width="32" height="32" id="svg27" sodipodi:docname="1200x0w.svg" inkscape:version="1.4-beta2 (9aaf4f34, 2024-07-30)" xmlns:inkscape="http://www.inkscape.org/namespaces/inkscape" xmlns:sodipodi="http://sodipodi.sourceforge.net/DTD/sodipodi-0.dtd" xmlns="http://www.w3.org/2000/svg" xmlns:svg="http://www.w3.org/2000/svg">
  <defs id="defs27" />
  <sodipodi:namedview id="namedview27" pagecolor="#ffffff" bordercolor="#000000" borderopacity="0.25" inkscape:showpageshadow="2" inkscape:pageopacity="0.0" inkscape:pagecheckerboard="0" inkscape:deskcolor="#d1d1d1" inkscape:zoom="2.5900194" inkscape:cx="27.412922" inkscape:cy="66.215721" inkscape:window-width="1440" inkscape:window-height="790" inkscape:window-x="0" inkscape:window-y="0" inkscape:window-maximized="1" inkscape:current-layer="svg27" />
  <path d="" fill="#000000" id="path3" />
  <path d="" fill="#000000" id="path4" />
  <g id="g27" transform="matrix(0.05458149,0,0,0.05458149,-12.058826,-11.945649)">
    <path d="m 0,0 c 1.4944686,-0.00233999 1.4944686,-0.00233999 3.0191286,-0.00472724 3.3014803,-0.00395285 6.6029137,-8.4251e-4 9.9043944,0.00231635 2.383316,-0.00135675 4.766632,-0.00313822 7.149948,-0.00531006 5.784331,-0.00407507 11.568646,-0.00349336 17.352977,-5.8736e-4 4.716736,0.00226998 9.433468,0.00255967 14.150205,0.00147619 0.674649,-1.5324e-4 1.349298,-3.0647e-4 2.044391,-4.6435e-4 1.371337,-3.1978e-4 2.742674,-6.4399e-4 4.114012,-9.7259e-4 12.843277,-0.00284734 25.686547,4.1826e-4 38.529823,0.00580037 10.948551,0.004447 21.897101,0.00370813 32.845651,-9.1876e-4 12.77025,-0.00539437 25.5405,-0.00743308 38.31074,-0.00438774 1.37206,3.1847e-4 2.74411,6.3284e-4 4.11617,9.4307e-4 0.67469,1.5427e-4 1.34938,3.0855e-4 2.04452,4.675e-4 4.68443,8.5223e-4 9.36885,-6.2038e-4 14.05327,-0.00294706 82.61857,-0.03530138 82.61857,-0.03530138 104.33419,4.63629528 2.8187,0.5809882 5.647,1.042535 8.48828,1.5 5.0311,0.8200756 9.97387,1.8418187 14.9375,3 0,0.66 0,1.3200004 0,2.0000004 0.94875,0.103125 1.8975,0.20625 2.875,0.3125 8.05594,1.18089 15.29549,4.049777 22.58203,7.601562 2.52324,1.077511 4.86265,1.560023 7.54297,2.085938 1,1 2,2 3,3 2.60611,0.721971 2.60611,0.721971 5,1 0,0.66 0,1.32 0,2 1.98,0.66 3.96,1.32 6,2 0,0.66 0,1.32 0,2 1.98,0.66 3.96,1.32 6,2 0,0.66 0,1.32 0,2 0.54141,0.2475 1.08282,0.495 1.64063,0.75 2.88766,1.529886 5.45713,3.34151 8.10937,5.25 0.98485,0.70125 1.96969,1.4025 2.98438,2.125 0.74765,0.61875 1.49531,1.2375 2.26562,1.875 0,0.66 0,1.32 0,2 0.83532,0.340312 0.83532,0.340312 1.6875,0.6875 2.95027,1.674475 5.03889,3.841964 7.3125,6.3125 0.96873,1.048007 0.96873,1.048007 1.95703,2.117187 3.02315,3.331626 5.97943,6.592567 8.41797,10.382813 1.38362,2.590225 1.38362,2.590225 3.625,3.5 0.92969,1.601562 0.92969,1.601562 1.875,3.625 3.33543,7.178177 3.33543,7.178177 8.125,13.375 0.125,3.125 0.125,3.125 0,6 0.99,0.33 1.98,0.66 3,1 0.91407,2.109375 0.91407,2.109375 1.625,4.75 0.23977,0.861093 0.47953,1.722186 0.72657,2.609376 0.62288,2.53656 1.15934,5.0752 1.64843,7.64062 0.33,0 0.66,0 1,0 0.0856,0.59015 0.17129,1.1803 0.25952,1.78833 0.38984,2.67515 0.78386,5.34966 1.17798,8.02417 0.13471,0.92877 0.26942,1.85754 0.40821,2.81446 0.13212,0.89267 0.26425,1.78535 0.40039,2.70507 0.12044,0.82219 0.24089,1.64437 0.36499,2.49146 0.36509,2.34575 0.36509,2.34575 1.38891,5.17651 0.0972,2.68734 0.13995,5.3479 0.13282,8.03516 10e-4,1.18994 10e-4,1.18994 0.003,2.40392 6.8e-4,1.68201 -0.001,3.36402 -0.005,5.04603 -0.005,2.54344 -7e-5,5.0867 0.006,7.63013 0.005,9.95807 -0.10304,19.72758 -2.19922,29.50976 -0.1766,0.83789 -0.3532,1.67578 -0.53515,2.53907 -0.13278,0.60586 -0.26555,1.21171 -0.40235,1.83593 -0.66,0 -1.32,0 -2,0 -0.0825,1.2375 -0.165,2.475 -0.25,3.75 -1.39557,11.94613 -7.0167,21.9251 -12.75,32.25 -1.61127,2.85583 -1.61127,2.85583 -2,6 -0.66,0 -1.32,0 -2,0 0,0.66 0,1.32 0,2 -0.66,0 -1.32,0 -2,0 0,0.66 0,1.32 0,2 -0.66,0 -1.32,0 -2,0 -0.10312,0.5775 -0.20625,1.155 -0.3125,1.75 -0.79646,2.60662 -1.87815,4.22353 -3.6875,6.25 -0.66,0 -1.32,0 -2,0 -0.22687,0.55688 -0.45375,1.11375 -0.6875,1.6875 -1.68278,2.9649 -3.87358,4.92902 -6.3125,7.3125 -1.58091,1.82951 -3.13047,3.68079 -4.66797,5.54688 -1.33203,1.45312 -1.33203,1.45312 -3.33203,2.45312 -0.66,0.99 -1.32,1.98 -2,3 -1.66355,0.67441 -3.33067,1.34004 -5,2 -0.72832,0.59813 -1.45664,1.19625 -2.20703,1.8125 -3.22228,2.52375 -6.54936,4.3644 -10.16797,6.25 -0.95133,0.50757 -0.95133,0.50757 -1.92187,1.02539 -11.20671,5.91211 -11.20671,5.91211 -15.70313,5.91211 0,0.66 0,1.32 0,2 -0.99,0.33 -1.98,0.66 -3,1 0.9552,0.24235 1.91039,0.48469 2.89453,0.73438 7.87669,2.02926 15.51852,4.30543 23.10547,7.26562 0.82887,0.3068 1.65774,0.6136 2.51172,0.92969 6.49296,2.46671 12.45745,5.6401 18.48828,9.07031 0.63809,0.35063 1.27617,0.70125 1.9336,1.0625 4.11786,2.28242 8.01691,4.84444 11.91015,7.48438 1.34171,0.90419 2.69429,1.7927 4.0625,2.65625 1.39699,0.883 2.75126,1.83304 4.09375,2.79687 0,0.66 0,1.32 0,2 0.66,0 1.32,0 2,0 1.35387,1.65003 2.68678,3.31744 4,5 0.66,0.33 1.32,0.66 2,1 0,0.66 0,1.32 0,2 1.65,0.66 3.3,1.32 5,2 0,0.66 0,1.32 0,2 0.66,0.33 1.32,0.66 2,1 1.35278,1.9869 2.68569,3.98746 4,6 0.66,0.66 1.32,1.32 2,2 0,0.99 0,1.98 0,3 0.66,0 1.32,0 2,0 2.7675,4.6494 5.2622,9.41433 7.6875,14.25 0.30946,0.6144 0.61891,1.2288 0.93775,1.86182 1.29946,2.60751 2.45195,5.11977 3.37475,7.88818 0.66,0.66 1.32,1.32 2,2 0.56666,1.70849 1.05721,3.44281 1.5,5.1875 0.84334,3.27059 1.69768,6.5208 2.6875,9.75 0.8125,3.0625 0.8125,3.0625 0.8125,7.0625 0.66,0.33 1.32,0.66 2,1 0.37891,2.625 0.37891,2.625 0.5625,6 0.2125,3.67753 0.47491,7.28353 0.95703,10.9375 0.72121,6.28645 0.62968,12.60033 0.61084,18.91895 -0.005,2.13907 -2e-5,4.27793 0.006,6.41699 0.007,10.10794 -0.55981,19.34603 -3.19922,29.10156 -1.44663,5.23491 -1.44663,5.23491 -1.9375,10.625 -0.99,0.33 -1.98,0.66 -3,1 -0.33,2.64 -0.66,5.28 -1,8 -0.66,0 -1.32,0 -2,0 -0.0619,0.78375 -0.12375,1.5675 -0.1875,2.375 -1.82611,8.14727 -6.45806,14.85801 -11.35937,21.4961 -1.61441,2.15666 -1.61441,2.15666 -2.45313,5.1289 -0.66,0 -1.32,0 -2,0 -0.37125,0.77344 -0.37125,0.77344 -0.75,1.5625 -0.4125,0.80438 -0.825,1.60875 -1.25,2.4375 -0.29133,0.59039 -0.58265,1.18078 -0.88281,1.78907 -2.64328,5.05761 -2.64328,5.05761 -5.24219,5.89843 -0.92812,0.15469 -0.92812,0.15469 -1.875,0.3125 -1.44147,2.27601 -2.14445,4.43337 -3,7 -1.6622,1.0074 -3.3302,2.00523 -5,3 -2.11957,1.81504 -4.18051,3.68105 -6.23047,5.57422 -1.76953,1.42578 -1.76953,1.42578 -3.76953,1.42578 0,0.66 0,1.32 0,2 -0.99,0.33 -1.98,0.66 -3,1 -0.43312,0.45375 -0.86625,0.9075 -1.3125,1.375 -1.6875,1.625 -1.6875,1.625 -4.625,3.0625 -3.04978,1.33781 -3.04978,1.33781 -4.80859,3.42578 -2.81031,2.66419 -5.92582,4.22782 -9.37891,5.88672 -0.63293,0.31582 -1.26586,0.63164 -1.91797,0.95703 -4.67527,2.29297 -4.67527,2.29297 -6.95703,2.29297 0,0.66 0,1.32 0,2 -0.78375,0.2475 -1.5675,0.495 -2.375,0.75 -5.69119,1.96248 -11.27117,4.19605 -16.76562,6.65625 -4.77754,2.05232 -9.71945,3.58647 -14.67188,5.15625 -0.93392,0.30358 -1.86785,0.60715 -2.83008,0.91993 -6.06932,1.93325 -12.09014,3.3962 -18.35742,4.51757 -0.75724,0.14285 -1.51448,0.28569 -2.29468,0.43286 -2.17074,0.40852 -4.34366,0.80227 -6.51782,1.19214 -0.72381,0.13407 -1.44761,0.26813 -2.19336,0.40625 -3.7073,0.66359 -7.22575,1.13163 -10.99414,0.96875 0,0.66 0,1.32 0,2 -3.81187,1.07209 -6.85637,0.87163 -10.74218,0.15625 -2.41267,-0.24952 -2.41267,-0.24952 -5.39583,0.32128 -3.98994,0.53978 -7.89456,0.69475 -11.91156,0.72581 -0.78251,0.01 -1.56501,0.0194 -2.37123,0.0294 -2.60914,0.031 -5.21828,0.0553 -7.82749,0.0793 -1.87793,0.0204 -3.75585,0.0411 -5.63378,0.0621 -5.11283,0.0555 -10.2257,0.10414 -15.33861,0.15086 -3.23748,0.0299 -6.47494,0.0613 -9.71239,0.0932 -47.41151,0.46221 -94.82192,0.53697 -142.235327,0.51044 -8.88451,-0.004 -17.769007,-10e-4 -26.653517,0.004 -8.734825,0.005 -17.469644,0.005 -26.20447,0.003 -5.142864,-0.002 -10.285719,-0.002 -15.428583,0.002 -4.7462064,0.003 -9.4923863,9.2e-4 -14.23859,-0.005 -1.7359659,-0.001 -3.4719341,-9.3e-4 -5.2078991,10e-4 -2.3566443,0.003 -4.7132009,-6.7e-4 -7.0698399,-0.006 -1.317542,-3.8e-4 -2.635084,-7.6e-4 -3.992552,-0.001 -3.036149,-0.12584 -3.036149,-0.12584 -5.036149,-1.12584 0,-192.72 0,-385.44 0,-583.9999964 C -14.971713,0.49089327 -7.6164754,-0.01878864 0,0 Z" fill="#000000" transform="translate(299.6048,218.87302)" id="path1" />
    <path d="M 0,0 C 0,3 0,3 0,3 Z" fill="#000000" transform="translate(719,429)" id="path2" />
    <path d="M 0,0 C 2,1 2,1 2,1 Z" fill="#000000" transform="translate(648,501)" id="path5" />
    <path d="M 0,0 C 2,1 2,1 2,1 Z" fill="#000000" transform="translate(716,438)" id="path6" />
    <path d="M 0,0 C 2,1 2,1 2,1 Z" fill="#000000" transform="translate(272,370)" id="path7" />
  </g>
  <path d="" fill="#000000" id="path8" />
  <path d="" fill="#000000" id="path9" />
  <path d="" fill="#000000" id="path10" />
  <path d="" fill="#000000" id="path11" />
  <path d="" fill="#000000" id="path12" />
  <path d="" fill="#000000" id="path13" />
  <path d="" fill="#000000" id="path14" />
  <path d="" fill="#000000" id="path15" />
  <path d="" fill="#000000" id="path16" />
  <path d="" fill="#000000" id="path17" />
  <path d="" fill="#000000" id="path18" />
  <path d="" fill="#000000" id="path19" />
  <path d="" fill="#000000" id="path20" />
  <path d="" fill="#000000" id="path21" />
  <path d="" fill="#000000" id="path22" />
  <path d="" fill="#000000" id="path23" />
  <path d="" fill="#000000" id="path24" />
  <path d="" fill="#000000" id="path25" />
  <path d="" fill="#000000" id="path26" />
  <path d="" fill="#000000" id="path27" />
</svg>
