<svg id="Camada_1" data-name="Camada 1" xmlns="http://www.w3.org/2000/svg" viewBox="0 0 300 120"><path d="M18.63,48.49,0,66.43l18.63,18H38.42l-18.63-18L38.42,48.49Zm262.74,0H261.5l18.63,17.94-18.63,18h19.87l18.63-18Z"/><path d="M76.76,71.11A10,10,0,0,1,68.1,76a9.61,9.61,0,1,1-.65-19.21c.21,0,.43,0,.65,0a10.15,10.15,0,0,1,8.66,4.85l8.88-3.74a20.16,20.16,0,0,0-17.47-9.44c-11,0-19.87,8-19.87,17.94s8.89,18,19.87,18a20.07,20.07,0,0,0,17.47-9.46Z"/><path d="M189.7,48.56a15.42,15.42,0,0,0-9.9,3.66V36.61h-10V84.45h10V65.24a7.42,7.42,0,0,1,14.84,0V84.45h9.89V62.93a14.53,14.53,0,0,0-14.69-14.37Z"/><path d="M231.82,48.49c-11,0-19.86,8-19.86,17.94s8.9,18,19.86,18,19.87-8,19.87-18S242.79,48.49,231.82,48.49Zm0,27.46a9.53,9.53,0,1,1,9.89-9.52A9.73,9.73,0,0,1,231.82,76Z"/><path d="M120.2,48.49V52a19,19,0,0,0-11-3.48c-10.32,0-18.64,8-18.64,17.94s8.37,18,18.64,18a19.47,19.47,0,0,0,11-3.5v3.5h10V48.49ZM110.3,76a9.53,9.53,0,1,1,9.9-9.52A9.64,9.64,0,0,1,110.44,76Z"/><path d="M159.86,74.69A6.17,6.17,0,0,1,150,70V58h9.9V49.67H150V41.34h-9.89V70A14.67,14.67,0,0,0,155,84.39,12.91,12.91,0,0,0,162.41,82Z"/></svg>