<svg id="Camada_1" data-name="Camada 1" xmlns="http://www.w3.org/2000/svg" viewBox="0 0 200 80"><path d="M17.77,37.46c-4.78,4.95-1,9,8.38,9.14l-.9,1.61c-12-.13-17.08-4.75-11.34-10.4,4.18-4.13,13.79-8.46,22.34-9.67l-.75,1.37C28.47,30.83,21.28,33.84,17.77,37.46Z"/><path d="M12.69,37.77C6.53,43.84,11.92,48.84,24.81,49l-1.27,2.27H22.17c-14.7,0-20.32-6.5-13.47-13.57C14.17,32,26.57,27.28,37,26.69l-.59,1.08C27,28.92,17.19,33.34,12.69,37.77Z"/><path d="M3.45,37.75C10,31.1,24.65,26,37.7,25.52l-.46.78C26,26.87,13.38,31.64,7.62,37.59.42,45,6.25,52,21.7,52c.49,0,.94,0,1.42,0l-1.35,2.39A38,38,0,0,1,8.68,53.1C-.47,50.27-2.67,43.93,3.44,37.75"/><path d="M28.6,48.14c-.85,0-1.77.07-2.4.08l.85-1.61c.62,0,1.49,0,2.16,0Z"/><path d="M26.43,54c-1.08.11-2.42.22-3.33.3L24.29,52c.79,0,2-.1,2.95-.17Z"/><path d="M27.52,51.1c-.77,0-1.73.1-2.84.14L25.82,49c.94,0,1.81-.06,2.52-.1Z"/><path d="M78.08,53.72H71.74c-2.37,0-4-.6-4.92-1.77s-1.16-2.93-.67-5.29L69,33.22c.6-2.82,1.54-4.69,2.74-5.67s3.26-1.42,6-1.42h5.48l-.68,3.12h-4a3.91,3.91,0,0,0-2.7.79,4.87,4.87,0,0,0-1.24,2.78l-.53,2.4h6.61L80,38.91H73.35L71.85,46c-.34,1.65-.34,2.81.08,3.53s1.31,1,2.66,1h4.17Z"/><path d="M97,53.72H91.47l4.66-21.84A2.19,2.19,0,0,0,95.86,30a2.4,2.4,0,0,0-2-.64h-1L87.76,53.72H82.21l5.85-27.6h9.23a4.49,4.49,0,0,1,3.79,1.47,4.76,4.76,0,0,1,.64,4.09Z"/><path d="M121.16,29.24H115.9l-5.18,24.48h-5.55l5.18-24.48h-5.14l.64-3.12h15.94Z"/><path d="M133.88,53.72h-5.6l3.16-14.83h-4.39L123.9,53.72h-5.56l4.32-20.35a9.41,9.41,0,0,1,3.15-5.58,9.77,9.77,0,0,1,6.24-1.95q4,0,5.51,1.8c1,1.24,1.17,3.12.64,5.74Zm-1.65-18.51.64-3a3.76,3.76,0,0,0,0-2.44,1.48,1.48,0,0,0-1.5-.72,2.48,2.48,0,0,0-1.91.72,5,5,0,0,0-1,2.44l-.64,3Z"/><path d="M156.17,46.1A10.77,10.77,0,0,1,153,52.18a9.12,9.12,0,0,1-6.15,2c-2.48,0-4.2-.67-5.25-2.06s-1.24-3.34-.68-6l4.24-20h5.56L146.52,46a7.88,7.88,0,0,0-.26,3.19c.15.64.64.94,1.46.94a2,2,0,0,0,1-.22,2,2,0,0,0,.76-.68A8.53,8.53,0,0,0,150.65,46l4.2-19.85h5.55Z"/><path d="M198.91,40c-1.21,5.59-2.67,9.36-4.43,11.29a8.84,8.84,0,0,1-6.71,2.89c-2.7,0-4.53-1-5.51-2.9s-.85-5.7.33-11.29,2.7-9.43,4.43-11.35a9.11,9.11,0,0,1,3.08-2.13,8.92,8.92,0,0,1,3.68-.68c2.74,0,4.61.85,5.59,2.55s.82,5.59-.45,11.6Zm-5.75,0a66.52,66.52,0,0,0,1.28-7.66c.19-1.77-.34-2.67-1.5-2.67s-2,.9-2.66,2.7a66.69,66.69,0,0,0-2,7.63A57.13,57.13,0,0,0,187,47.94c-.07,1.61.45,2.37,1.57,2.37s2-.85,2.63-2.67A72,72,0,0,0,193.16,40"/><path d="M61.72,53.72H55.34c-2.33,0-4-.6-4.92-1.77s-1.16-2.93-.63-5.29l2.85-13.44c.6-2.82,1.5-4.69,2.74-5.67s3.22-1.42,6-1.42h5.44l-.68,3.12h-4a3.79,3.79,0,0,0-2.66.79,5.22,5.22,0,0,0-1.28,2.78l-.52,2.4L57,38.91,55.46,46a5.64,5.64,0,0,0,.07,3.53c.38.71,1.32,1,2.71,1h4.12Z"/><path d="M174.14,33.52a7.19,7.19,0,0,0,.19-3.45q-.35-.9-1.8-.9h-1.47l-1.8,8.5h1.61a2.32,2.32,0,0,0,1.13-.23,2.47,2.47,0,0,0,.9-.7,8.26,8.26,0,0,0,1.24-3.23Zm-1.54,9.59a1.75,1.75,0,0,0-.26-1.58,1.89,1.89,0,0,0-1.47-.57h-2.32l-2.7,12.76h-5.56l5.86-27.6h8.48c2.32,0,3.9.53,4.73,1.62s1,2.66.56,4.84a8.37,8.37,0,0,1-1.84,4,6.89,6.89,0,0,1-3.37,2.14,3.69,3.69,0,0,1,2.77,1.46,3.75,3.75,0,0,1,.42,3l-2.25,10.48h-5.3Z"/></svg>