<?xml version="1.0" encoding="UTF-8" standalone="no"?>
<svg id="a" viewBox="0 0 32 32" version="1.1" sodipodi:docname="centauro.svg" width="32" height="32" inkscape:version="1.4-beta2 (9aaf4f34, 2024-07-30)" xmlns:inkscape="http://www.inkscape.org/namespaces/inkscape" xmlns:sodipodi="http://sodipodi.sourceforge.net/DTD/sodipodi-0.dtd" xmlns="http://www.w3.org/2000/svg" xmlns:svg="http://www.w3.org/2000/svg">
  <sodipodi:namedview id="namedview14" pagecolor="#ffffff" bordercolor="#000000" borderopacity="0.25" inkscape:showpageshadow="2" inkscape:pageopacity="0.0" inkscape:pagecheckerboard="0" inkscape:deskcolor="#d1d1d1" inkscape:zoom="2.035888" inkscape:cx="30.944728" inkscape:cy="42.487603" inkscape:window-width="1440" inkscape:window-height="790" inkscape:window-x="0" inkscape:window-y="0" inkscape:window-maximized="1" inkscape:current-layer="a" />
  <defs id="defs1">
    <style id="style1">.b{stroke-width:0px;}</style>
  </defs>
  <g id="g14" transform="matrix(0.7029194,0,0,0.7029194,-0.01094959,-12.116929)">
    <path class="b" d="M 21.46,36.92 C 15.69,42.9 20.25,47.79 31.58,47.96 L 30.49,49.9 C 16,49.74 9.86,44.16 16.79,37.34 21.84,32.35 33.45,27.12 43.77,25.66 l -0.91,1.65 c -8.49,1.59 -17.17,5.23 -21.41,9.6 z" id="path1" />
    <path class="b" d="M 15.33,37.3 C 7.89,44.63 14.4,50.67 29.97,50.86 L 28.44,53.6 H 26.79 C 9.04,53.6 2.25,45.75 10.52,37.21 17.13,30.33 32.1,24.62 44.7,23.91 l -0.71,1.3 C 32.62,26.6 20.78,31.94 15.34,37.29 Z" id="path2" />
    <path class="b" d="M 4.17,37.27 C 12.08,29.24 29.77,23.08 45.54,22.5 l -0.56,0.94 C 31.4,24.13 16.16,29.89 9.21,37.08 c -8.7,8.95 -1.65,17.4 17.01,17.4 h 1.72 l -1.63,2.89 C 20.99,57.77 15.64,57.25 10.5,55.81 -0.55,52.39 -3.21,44.73 4.17,37.27" id="path3" />
    <path class="b" d="m 34.54,49.82 c -1.03,0 -2.14,0.08 -2.9,0.1 l 1.03,-1.94 h 2.61 l -0.74,1.85 z" id="path4" />
    <path class="b" d="m 31.92,56.9 c -1.3,0.13 -2.92,0.27 -4.02,0.36 l 1.44,-2.78 c 0.95,0 2.42,-0.12 3.56,-0.21 l -0.98,2.62 z" id="path5" />
    <path class="b" d="m 33.24,53.39 c -0.93,0 -2.09,0.12 -3.43,0.17 l 1.38,-2.71 c 1.14,0 2.19,-0.07 3.04,-0.12 z" id="path6" />
  </g>
</svg>
