<svg width="32mm" height="32mm" viewBox="0 0 32 32" xmlns="http://www.w3.org/2000/svg">
  <path style="fill:#000;fill-opacity:1;stroke-width:.03125" d="M-31.598-50.22v-16h32v32h-32zm7.636 3.323c.41-.057.793-.18 1.266-.404.296-.14.37-.182.37-.182l-.476-1.232s-.68.343-1.04.431c-.683.166-1.399.102-1.931-.168-.31-.157-.68-.562-.831-.91-.212-.485-.212-1.224-.001-1.703.173-.394.501-.738.892-.935.294-.148.297-.149.756-.217.572-.086 1.209.01 1.756.265.089.041.187.075.187.075l.59-1.146s-.275-.152-.505-.24a5.514 5.514 0 0 0-.86-.255c-.63-.111-.939-.117-1.606-.032-.3.039-.809.21-1.137.383-.226.119-.614.398-.747.539-.214.224-.313.34-.414.485-.06.086-.115.164-.124.172-.016.017-.149.288-.229.469-.285.647-.327 1.704-.093 2.375.122.352.289.685.437.875.298.382.511.604.71.738.551.372 1.014.553 1.629.635.511.068.811.065 1.4-.018zm6.193.002c.608-.087 1.23-.31 1.657-.594l.171-.113-.008-1.317-.008-1.317-.696-.009-.695-.008v1.838l-.226.082c-.503.18-1.269.188-1.732.018-.424-.156-.852-.486-.995-.767a.863.863 0 0 0-.081-.139c-.046-.038-.15-.381-.185-.61a2.315 2.315 0 0 1 .286-1.5c.302-.5.789-.798 1.464-.895.285-.04.88-.014 1.211.054.325.062.628.193.937.295l.571-1.168s-.186-.079-.258-.112c-.272-.122-.541-.192-.825-.284-.16-.052-.596-.122-.958-.154-1.112-.099-2.245.277-2.979.986-.493.478-.723.913-.95 1.796-.08.308-.067.856.03 1.37.067.359.334.934.581 1.253.26.336.728.707 1 .867.24.14.526.233.75.324.11.045.586.13.86.154.31.028.642.012 1.078-.05zm5.851-5.388h2.124v-1.247h-5.765v1.247h2.16v5.366h1.481zm4.28 1.191 3.53 4.175h1.26v-6.613h-1.5v4.137l-3.5-4.137h-1.25v6.613h1.46z" transform="translate(31.598 66.22)"/>
</svg>