<?xml version="1.0" encoding="UTF-8" standalone="no"?>
<!-- Created with Inkscape (http://www.inkscape.org/) -->

<svg width="32mm" height="32mm" viewBox="0 0 32 32" version="1.1" id="svg5" xmlns="http://www.w3.org/2000/svg" xmlns:svg="http://www.w3.org/2000/svg" xmlns:rdf="http://www.w3.org/1999/02/22-rdf-syntax-ns#" xmlns:cc="http://creativecommons.org/ns#">
  <defs id="defs2" />
  <g id="layer1" transform="translate(31.597807,66.220757)">
    <path style="fill:#000000;fill-opacity:1;stroke-width:0.03125" d="m -31.597807,-50.220757 v -16 h 16 16 v 16 16 h -16 -16 z m 7.635528,3.32403 c 0.409939,-0.05725 0.793118,-0.17961 1.266442,-0.404401 0.295618,-0.140396 0.370461,-0.181466 0.370461,-0.181466 l -0.476223,-1.232606 c 0,0 -0.679957,0.343308 -1.041093,0.431342 -0.681952,0.166242 -1.398185,0.101495 -1.930732,-0.168461 -0.310065,-0.157178 -0.68007,-0.561984 -0.830909,-0.909063 -0.211194,-0.485959 -0.21164,-1.224174 -0.0011,-1.703125 0.173521,-0.394604 0.501706,-0.73871 0.892153,-0.935434 0.293948,-0.148105 0.297046,-0.148995 0.756029,-0.217493 0.572291,-0.08541 1.209118,0.01071 1.755876,0.265018 0.08917,0.04147 0.1875,0.07501 0.1875,0.07501 l 0.590671,-1.145602 c 0,0 -0.275348,-0.151967 -0.506175,-0.239337 -0.292329,-0.11065 -0.637626,-0.216917 -0.858713,-0.25589 -0.63001,-0.111058 -0.939505,-0.117139 -1.60666,-0.03157 -0.299422,0.0384 -0.808884,0.209834 -1.136921,0.382568 -0.225838,0.118919 -0.613837,0.398639 -0.747455,0.538864 -0.213719,0.224286 -0.312993,0.340912 -0.413472,0.485739 -0.05962,0.08594 -0.115434,0.163281 -0.124027,0.171875 -0.01668,0.01668 -0.149126,0.287828 -0.228969,0.46875 -0.285656,0.647285 -0.327332,1.704152 -0.09365,2.375 0.12248,0.351616 0.28913,0.685042 0.437329,0.874986 0.297883,0.381793 0.511218,0.603531 0.709764,0.737719 0.551505,0.37274 1.014411,0.553331 1.628654,0.63538 0.511507,0.06833 0.811744,0.06451 1.401153,-0.01781 z m 6.193625,0.0015 c 0.607292,-0.08691 1.229025,-0.309669 1.656811,-0.593617 l 0.17096,-0.113476 -0.0082,-1.317051 -0.0082,-1.31705 -0.695311,-0.0084 -0.695313,-0.0084 v 0.919301 0.919303 l -0.226562,0.08141 c -0.502596,0.180605 -1.268086,0.188669 -1.731968,0.01825 -0.423694,-0.155656 -0.852061,-0.485992 -0.994595,-0.766981 -0.03438,-0.06777 -0.07096,-0.130242 -0.08129,-0.138836 -0.04582,-0.0381 -0.149784,-0.381294 -0.184646,-0.609549 -0.07821,-0.512047 0.0287,-1.072658 0.286064,-1.50011 0.301854,-0.501341 0.788597,-0.798959 1.46425,-0.895312 0.284778,-0.04061 0.878832,-0.01404 1.210992,0.05417 0.324506,0.06127 0.627496,0.192702 0.936924,0.294625 l 0.570834,-1.16759 c 0,0 -0.186249,-0.07943 -0.258226,-0.112597 -0.271977,-0.122214 -0.541187,-0.191959 -0.824684,-0.283554 -0.160571,-0.05188 -0.596247,-0.122178 -0.958506,-0.154303 -1.112116,-0.09862 -2.244866,0.276546 -2.978517,0.986493 -0.493214,0.477277 -0.723356,0.912126 -0.950401,1.79576 -0.07897,0.307324 -0.06701,0.856047 0.02984,1.369193 0.06778,0.359153 0.334706,0.934559 0.581582,1.253715 0.26015,0.336317 0.72791,0.706509 1.000615,0.866489 0.239273,0.140367 0.525505,0.233759 0.748925,0.324169 0.110779,0.04483 0.586103,0.130384 0.859375,0.154511 0.310848,0.02745 0.642849,0.0119 1.079153,-0.05054 z m 5.850711,-5.388079 h 2.1242243 v -1.247011 h -5.7656863 v 1.247012 h 2.160107 v 5.36668 h 1.481355 z m 4.2808583,1.191647 3.5292298,4.175034 h 1.2600496 v -6.613692 h -1.5009449 v 4.137646 l -3.4999172,-4.137641 H -9.097721 v 6.613692 h 1.4606363 z" id="path1076" />
  </g>
  <metadata id="metadata13773">
    <rdf:RDF>
      <cc:Work rdf:about="">
        <cc:license rdf:resource="http://creativecommons.org/publicdomain/zero/1.0/" />
      </cc:Work>
      <cc:License rdf:about="http://creativecommons.org/publicdomain/zero/1.0/">
        <cc:permits rdf:resource="http://creativecommons.org/ns#Reproduction" />
        <cc:permits rdf:resource="http://creativecommons.org/ns#Distribution" />
        <cc:permits rdf:resource="http://creativecommons.org/ns#DerivativeWorks" />
      </cc:License>
    </rdf:RDF>
  </metadata>
</svg>
