<?xml version="1.0" encoding="UTF-8" standalone="no"?>
<svg id="a" viewBox="0 0 31.999999 32" version="1.1" sodipodi:docname="chrome-web-store.svg" width="32" height="32" inkscape:version="1.4-beta2 (9aaf4f34, 2024-07-30)" xmlns:inkscape="http://www.inkscape.org/namespaces/inkscape" xmlns:sodipodi="http://sodipodi.sourceforge.net/DTD/sodipodi-0.dtd" xmlns="http://www.w3.org/2000/svg" xmlns:svg="http://www.w3.org/2000/svg">
  <defs id="defs16" />
  <sodipodi:namedview id="namedview16" pagecolor="#ffffff" bordercolor="#000000" borderopacity="0.25" inkscape:showpageshadow="2" inkscape:pageopacity="0.0" inkscape:pagecheckerboard="0" inkscape:deskcolor="#d1d1d1" inkscape:zoom="3.3760472" inkscape:cx="28.287519" inkscape:cy="18.21657" inkscape:window-width="1440" inkscape:window-height="790" inkscape:window-x="0" inkscape:window-y="0" inkscape:window-maximized="1" inkscape:current-layer="a" />
  <g id="g16" transform="translate(0,-9.9948022)">
    <path d="M 0.39506465,10.101296 C -0.03144564,10.30922 5.4263433e-4,9.0936656 5.4263433e-4,24.911866 c 0,8.882077 0.0266568857,14.432042 0.0639765357,14.666623 0.18659825,1.167571 1.17823463,2.164539 2.35113793,2.351138 0.5011496,0.07997 26.6675559,0.07997 27.1687049,0 1.167572,-0.186599 2.16454,-1.178235 2.351138,-2.351138 0.03732,-0.234581 0.06398,-5.784546 0.06398,-14.661292 0,-15.8555196 0.03199,-14.607977 -0.405185,-14.815901 C 31.407694,10.015994 29.88292,10 15.989347,10 2.0957744,10 0.57633152,10.010663 0.40039603,10.101296 Z M 20.414391,13.070874 c 0.378528,0.143947 0.863683,0.554463 1.087601,0.911666 0.165273,0.261237 0.30922,0.778381 0.30922,1.108927 0,0.863683 -0.607777,1.722035 -1.412815,2.031255 -0.330545,0.11729 -0.474493,0.122622 -4.398387,0.122622 -3.923895,0 -4.067842,-0.01066 -4.398388,-0.122622 -0.810369,-0.30922 -1.412815,-1.167572 -1.412815,-2.031255 0,-0.330546 0.143947,-0.853021 0.298557,-1.108927 0.223918,-0.362534 0.666422,-0.73573 1.050282,-0.89034 l 0.367865,-0.15461 h 4.073173 c 4.01986,0 4.078505,0 4.435707,0.133284 z m -2.452434,13.083203 c 3.795942,0.586452 7.224018,2.878945 9.207291,6.163074 0.964979,1.610076 1.567425,3.321449 1.823331,5.251408 0.06931,0.5438 0.09063,2.233847 0.02133,2.692346 l -0.04265,0.287894 H 27.5851 v -1.332844 c 0,-1.668722 -0.122621,-2.489754 -0.607777,-3.907901 l -0.191934,-0.575789 h -6.930793 l 0.351871,0.378528 c 0.69308,0.751725 1.15691,1.578088 1.423478,2.564393 0.117291,0.437173 0.143948,0.666423 0.138616,1.364833 -0.01066,0.533138 -0.04265,0.96498 -0.101296,1.156909 l -0.09063,0.30922 -0.730399,0.02133 c -0.821032,0.02133 -0.789044,0.03732 -0.634434,-0.453167 0.346539,-1.156909 0.03199,-2.633701 -0.778382,-3.678651 -0.58112,-0.746393 -1.58875,-1.380828 -2.473759,-1.567426 -0.554464,-0.11729 -1.375496,-0.11729 -1.924628,0 -0.89034,0.186598 -1.892639,0.821033 -2.47376,1.567426 -0.810369,1.04495 -1.12492,2.521742 -0.778381,3.678651 0.149279,0.490487 0.19193,0.469161 -0.767718,0.469161 H 10.151487 L 8.0615871,36.923462 C 6.9100093,34.934858 5.9556925,33.298125 5.9396984,33.298125 c -0.015994,0 -0.1919296,0.330545 -0.3891906,0.730398 -0.8690147,1.818001 -1.2208857,3.476059 -1.1515778,5.464664 l 0.03732,1.050281 H 3.0181029 l -0.042651,-0.410516 c -0.069308,-0.623771 0.00533,-2.548399 0.1226217,-3.177502 0.2505748,-1.35417 0.5757889,-2.367132 1.1622405,-3.561361 0.8316951,-1.700709 1.8286629,-3.006897 3.20949,-4.190463 2.0365866,-1.754024 4.5370029,-2.852288 7.1920299,-3.150845 0.687747,-0.07464 2.55373,-0.02666 3.310786,0.09063 v 0 z" style="stroke-width:0px" id="path15" />
    <path d="m 14.538776,27.492253 c -2.39912,0.218587 -4.5956484,1.135584 -6.4722939,2.708341 -0.5811203,0.490486 -1.4448036,1.375495 -1.5780881,1.631401 -0.063977,0.117291 0.090633,0.426511 1.5674253,2.97491 0.901003,1.562094 1.6740533,2.884276 1.7167043,2.953583 0.06931,0.106628 0.0853,0.07464 0.181266,-0.250574 0.1759364,-0.597115 0.3998544,-1.087602 0.7517254,-1.610077 0.991636,-1.492786 2.500416,-2.409783 4.275766,-2.59105 0.38919,-0.03732 2.59105,-0.06398 5.60861,-0.06398 4.499683,0 4.968845,-0.01066 4.931525,-0.101296 -0.09063,-0.234581 -0.821032,-1.226218 -1.300856,-1.775349 -1.977942,-2.249842 -4.75559,-3.625338 -7.821133,-3.875913 -0.879677,-0.06931 -1.055613,-0.06931 -1.85532,0 v 0 z" style="stroke-width:0px" id="path16" />
  </g>
</svg>
