<?xml version="1.0" encoding="UTF-8"?><svg id="a" xmlns="http://www.w3.org/2000/svg" viewBox="0 0 230.66 80"><path d="m100.16,22.56v12.56h3.08l.05-5.16c.04-5.42.04-5.46.55-6.63.31-.73,1.01-1.66,1.55-2.09.78-.62,1.58-.89,2.64-.88,1.71,0,2.79.53,3.48,1.72.59,1.03.61,1.29.61,7.41v5.62h3.21l-.03-6.23c-.04-6.95-.02-6.72-.83-8.37-.97-1.99-2.87-3.04-5.49-3.04-2.15,0-3.93.8-5.19,2.31-.26.32-.5.57-.53.57s-.04-2.33-.02-5.18l.04-5.18h-3.12s0,12.56,0,12.56Z" style="stroke-width:0px;"/><path d="m127.63,56.85v12.56h2.98l.03-1.14c.02-.64.08-1.16.14-1.16.06-.02.29.21.5.49.75.98,2.14,1.84,3.56,2.19.97.25,2.75.26,3.69.01.38-.1,1.1-.38,1.6-.62.75-.36,1.09-.62,1.94-1.46,2.09-2.09,2.87-4.18,2.74-7.3-.06-1.67-.25-2.45-.88-3.78-1.01-2.16-2.72-3.78-4.77-4.52-.72-.27-.91-.29-2.38-.29-1.68,0-2.39.14-3.46.7-.7.36-1.7,1.16-2.07,1.65-.19.27-.4.48-.46.49-.06,0-.09-.38-.04-1.09.04-.61.08-2.94.09-5.19v-4.08s-3.19,0-3.19,0v12.56h0Zm10.22-1.97c1.68.53,3.04,2.03,3.63,4.01.15.47.19.97.19,2.02,0,1.23-.03,1.48-.3,2.24-.63,1.82-1.88,3.15-3.46,3.7-3.04,1.05-6.27-.84-7.03-4.14-.23-.95-.21-2.87.01-3.73.38-1.43,1.48-3,2.55-3.63,1.31-.77,2.93-.94,4.4-.47Z" style="stroke-width:0px;"/><path d="m173.37,49.64v2.67h-3v2.89h2.98l.04,5.31c.04,5.66.05,5.78.59,6.84.31.61,1.2,1.48,1.85,1.8,1.14.59,2.93.74,4.53.38.88-.19.87-.13.34-1.61-.44-1.24-.49-1.33-.73-1.29-.14.01-.64.04-1.12.05-.77.01-.91-.02-1.29-.28-.27-.17-.53-.48-.68-.8l-.26-.51-.03-4.95-.03-4.94h4.18v-2.89h-4.17v-5.34h-3.21v2.67h0Z" style="stroke-width:0px;"/><path d="m87.59,17.63c-3.45.78-6.1,3.61-6.66,7.12-.28,1.71-.06,4.04.49,5.45,1.07,2.67,3.17,4.56,5.85,5.25,1.01.26,3.04.31,4.06.11,2.47-.49,4.49-1.98,5.55-4.05.15-.3.28-.59.28-.63,0-.05-.61-.36-1.35-.67-1.25-.53-1.35-.55-1.46-.38-1.22,2.05-2.36,2.81-4.5,3-1.44.14-2.78-.36-3.92-1.43-1.52-1.42-2.21-3.48-1.92-5.68.42-3.17,2.58-5.34,5.3-5.34,1.16-.01,1.57.08,2.47.5.85.4,1.72,1.24,2.18,2.11.15.28.3.5.36.5.09,0,2.67-1.07,2.74-1.14.1-.1-.45-1.06-1.03-1.84-.98-1.29-2.48-2.32-4.04-2.76-.87-.25-3.5-.31-4.39-.11h-.01Z" style="stroke-width:0px;"/><path d="m126.51,17.6c-.29.06-.94.3-1.42.53-1.03.49-2.09,1.46-2.41,2.2-.11.26-.25.46-.3.46-.04,0-.09-.63-.09-1.39v-1.39h-3.1v17.1h3.21v-5.03c0-5.59.02-5.77.7-6.92,1.05-1.8,2.78-2.63,4.9-2.36.47.05.85.1.88.08.09-.12.89-2.91.85-2.97-.17-.28-2.33-.49-3.21-.31h0Z" style="stroke-width:0px;"/><path d="m136.94,17.6c-3.5.68-6.18,3.46-6.81,7.05-.23,1.31-.15,3.42.16,4.6.79,3.02,3.17,5.41,6.16,6.19,1.11.29,3.28.32,4.38.05,1.59-.38,2.85-1.05,3.99-2.14,1.75-1.67,2.62-3.61,2.77-6.17.27-4.71-2.53-8.66-6.8-9.56-.84-.17-3.06-.21-3.85-.04h0Zm2.91,2.82c.78.11,2.11.82,2.83,1.55,1.18,1.18,1.73,2.65,1.73,4.6,0,2.05-.51,3.4-1.76,4.65-.84.85-1.56,1.25-2.67,1.48-.94.19-1.41.19-2.35,0-1.05-.23-1.79-.62-2.62-1.4-.81-.77-1.38-1.74-1.68-2.83-.23-.93-.25-2.81,0-3.71.65-2.45,2.46-4.12,4.73-4.39.64-.08.82-.08,1.8.04Z" style="stroke-width:0px;"/><path d="m157.58,17.55c-.49.1-1.69.64-2.3,1.04-.59.4-1.68,1.48-1.68,1.68,0,.05-.08.1-.16.1-.13,0-.16-.21-.16-1.18v-1.18h-3v17.1h3.21v-5.22c0-3.99.03-5.34.15-5.74.63-2.41,2.26-3.82,4.38-3.8,1.88.01,2.85.63,3.44,2.2.18.49.21.98.23,6.54l.03,6.02h3.19v-4.97c0-5.53.05-6.07.67-7.27.18-.36.65-.96,1.04-1.35.88-.89,1.57-1.18,2.8-1.18,2.31,0,3.39.97,3.71,3.31.08.57.12,2.87.12,6.18v5.27h3.11l-.03-6.34c-.03-5.62-.06-6.4-.23-6.97-.64-2.22-2.07-3.65-4.14-4.18-1.08-.28-3.23-.16-4.21.21-1.35.51-2.32,1.29-3.32,2.65-.12.16-.21.21-.23.12-.15-.38-.91-1.35-1.39-1.75-1.14-.96-2.36-1.39-3.99-1.37-.55.01-1.14.04-1.26.06v.02Z" style="stroke-width:0px;"/><path d="m185.83,17.63c-1.5.36-2.74,1.04-3.85,2.15-1.27,1.27-2.09,2.78-2.46,4.6-.23,1.12-.23,3.26,0,4.38.68,3.32,3.04,5.87,6.2,6.69,1.08.28,3.14.31,4.31.05,1.72-.38,3.27-1.26,4.45-2.53.59-.63,1.41-1.79,1.33-1.85-.01-.02-.65-.33-1.41-.7-1.18-.55-1.4-.63-1.48-.49-.64,1.16-2.07,2.35-3.23,2.68-.83.25-2.24.25-3.1,0-2.24-.65-4.01-2.89-4.01-5.05v-.46h13.6l-.08-1.1c-.16-2.26-.81-4.24-1.85-5.61-.92-1.21-2.43-2.24-3.93-2.64-.89-.25-3.61-.32-4.49-.12h0Zm3.31,2.85c1.75.33,3.28,1.87,3.53,3.54l.08.51h-4.98c-2.74,0-4.98-.02-4.98-.03,0-.23.47-1.37.76-1.85,1.12-1.87,3.12-2.64,5.6-2.17h0Z" style="stroke-width:0px;"/><path d="m114.32,51.92c-1.5.36-2.74,1.04-3.85,2.15-1.27,1.27-2.09,2.78-2.46,4.6-.23,1.12-.23,3.26,0,4.38.68,3.32,3.04,5.87,6.2,6.69,1.08.28,3.14.31,4.31.05,1.72-.38,3.27-1.26,4.45-2.53.59-.63,1.41-1.79,1.33-1.85-.01-.02-.65-.33-1.41-.7-1.18-.55-1.4-.63-1.48-.49-.64,1.16-2.07,2.35-3.23,2.68-.83.25-2.24.25-3.1,0-2.24-.65-4.01-2.89-4.01-5.05v-.46h13.6l-.08-1.1c-.16-2.26-.81-4.24-1.85-5.61-.92-1.21-2.43-2.24-3.93-2.64-.89-.25-3.61-.32-4.49-.12h0Zm3.31,2.85c1.74.33,3.29,1.88,3.53,3.54l.08.51h-4.98c-2.74,0-4.98-.02-4.98-.03,0-.23.47-1.37.76-1.85,1.12-1.87,3.12-2.64,5.6-2.17h0Z" style="stroke-width:0px;"/><path d="m159.74,51.93c-1.46.32-2.72.99-3.56,1.92-1.46,1.59-1.5,4.24-.08,5.81.93,1.04,2.13,1.58,5.22,2.38,1.11.29,2.28.63,2.58.77,1.92.89,2.21,2.63.6,3.69-.78.51-1.57.7-2.77.64-.9-.03-1.12-.09-1.77-.4-1.09-.53-2.13-1.63-2.58-2.76-.01-.01-.64.25-1.41.57l-1.4.6.21.47c.51,1.18,1.72,2.53,2.96,3.28,1.83,1.11,4.66,1.4,6.87.7,1.7-.55,3.04-1.61,3.71-2.96.4-.79.4-.84.4-1.94-.01-1.31-.21-1.92-.85-2.78-1.04-1.35-2.09-1.83-6.66-3.02-2.01-.53-2.91-1.18-2.91-2.15,0-.92.78-1.69,2.09-2.07,1.73-.5,4.12.28,4.94,1.61.16.26.32.48.38.48.08,0,2.66-1.06,2.72-1.12.12-.12-.66-1.27-1.27-1.88-.84-.85-2.26-1.6-3.5-1.86-.96-.19-3.04-.19-3.92,0h-.01Z" style="stroke-width:0px;"/><path d="m189.57,51.94c-2.5.55-4.64,2.22-5.76,4.49-.73,1.46-.97,2.61-.96,4.48.01,2.72.75,4.68,2.41,6.42,1.22,1.29,2.53,2.05,4.24,2.45,1.16.27,3.3.25,4.43-.04,3.13-.81,5.61-3.42,6.27-6.59.3-1.41.25-3.85-.11-5.05-.85-2.92-3.19-5.29-5.94-6.05-.93-.26-3.61-.31-4.58-.1h0Zm3.68,2.93c1.33.4,2.67,1.5,3.31,2.78.55,1.1.7,1.74.68,3.26-.01,1.73-.29,2.7-1.11,3.88-1.98,2.82-5.95,3.17-8.39.72-2.3-2.3-2.38-6.67-.17-9.06,1.01-1.09,2.03-1.63,3.32-1.77.9-.1,1.5-.04,2.35.21h0Z" style="stroke-width:0px;"/><path d="m210.5,51.88c-1.5.27-3.34,1.56-3.88,2.72-.13.27-.28.48-.33.48-.06,0-.11-.53-.11-1.39v-1.39h-3v17.1h3.1v-4.79c0-2.77.04-5.07.12-5.47.32-2.04,2.02-3.78,3.93-4.06.62-.09,2.11,0,2.33.14.11.06,1.04-2.87.95-3.02-.18-.28-2.2-.49-3.12-.33h0Z" style="stroke-width:0px;"/><path d="m220.45,51.92c-2.33.55-4.17,1.94-5.43,4.14-.78,1.35-1.22,3.53-1.1,5.43.09,1.46.38,2.6.96,3.8,1.63,3.29,4.81,5.01,8.6,4.65,2.35-.23,4.43-1.29,5.87-3,.59-.7,1.07-1.46.97-1.54-.05-.05-2.65-1.35-2.69-1.35-.02,0-.23.27-.45.59-1.41,2.05-3.54,2.87-5.93,2.28-.8-.21-1.67-.7-2.38-1.37-1.01-.93-1.61-2.22-1.7-3.58l-.03-.53,6.76-.03,6.76-.02v-.83c0-1.71-.55-3.84-1.29-5.12-.55-.93-1.92-2.26-2.82-2.72-1.33-.7-2.05-.85-3.85-.9-1.11-.03-1.8.01-2.24.11h0Zm3.63,2.93c1.26.38,2.21,1.18,2.75,2.28.21.43.42.98.45,1.23l.06.46h-9.96l.08-.36c.28-1.35,1.67-3.02,2.92-3.48.38-.14.94-.29,1.29-.32.65-.08,1.9.02,2.43.18h-.01Z" style="stroke-width:0px;"/><path d="m80.82,52.36s1.18,3.73,2.62,8.21c1.46,4.48,2.68,8.3,2.74,8.49l.12.36h3.25l2.07-6.44c1.14-3.55,2.11-6.51,2.15-6.59.06-.15.55,1.29,3.55,10.52l.8,2.46,1.65.03,1.65.02,2.72-8.41c1.48-4.64,2.72-8.49,2.76-8.56.03-.1-.32-.13-1.56-.13-1.44,0-1.61.02-1.67.18-.09.31-3.34,11.46-3.54,12.13-.1.34-.21.62-.26.62s-.21-.42-.38-.94c-.16-.51-1.11-3.42-2.11-6.46l-1.82-5.53h-3.29l-1.6,4.88c-.88,2.69-1.83,5.59-2.09,6.44-.28.85-.53,1.58-.57,1.63-.03.04-.93-2.85-1.98-6.44l-1.92-6.52h-1.63c-.9,0-1.63.02-1.63.05h0Z" style="stroke-width:0px;"/><path d="m.74,10.19C-.06,10.58,0,8.3,0,37.97,0,54.63.05,65.04.12,65.48c.35,2.19,2.21,4.06,4.41,4.41.94.15,50.02.15,50.96,0,2.19-.35,4.06-2.21,4.41-4.41.07-.44.12-10.85.12-27.5,0-29.74.06-27.4-.76-27.79-.35-.16-3.21-.19-29.27-.19s-28.91.02-29.24.19Zm37.55,5.57c.71.27,1.62,1.04,2.04,1.71.31.49.58,1.46.58,2.08,0,1.62-1.14,3.23-2.65,3.81-.62.22-.89.23-8.25.23s-7.63-.02-8.25-.23c-1.52-.58-2.65-2.19-2.65-3.81,0-.62.27-1.6.56-2.08.42-.68,1.25-1.38,1.97-1.67l.69-.29h7.64c7.54,0,7.65,0,8.32.25h0Zm-4.6,24.54c7.12,1.1,13.55,5.4,17.27,11.56,1.81,3.02,2.94,6.23,3.42,9.85.13,1.02.17,4.19.04,5.05l-.08.54h-2.6v-2.5c0-3.13-.23-4.67-1.14-7.33l-.36-1.08h-13l.66.71c1.3,1.41,2.17,2.96,2.67,4.81.22.82.27,1.25.26,2.56-.02,1-.08,1.81-.19,2.17l-.17.58-1.37.04c-1.54.04-1.48.07-1.19-.85.65-2.17.06-4.94-1.46-6.9-1.09-1.4-2.98-2.59-4.64-2.94-1.04-.22-2.58-.22-3.61,0-1.67.35-3.55,1.54-4.64,2.94-1.52,1.96-2.11,4.73-1.46,6.9.28.92.36.88-1.44.88h-1.62l-3.92-6.79c-2.16-3.73-3.95-6.8-3.98-6.8s-.36.62-.73,1.37c-1.63,3.41-2.29,6.52-2.16,10.25l.07,1.97h-2.66l-.08-.77c-.13-1.17.01-4.78.23-5.96.47-2.54,1.08-4.44,2.18-6.68,1.56-3.19,3.43-5.64,6.02-7.86,3.82-3.29,8.51-5.35,13.49-5.91,1.29-.14,4.79-.05,6.21.17h0Z" style="stroke-width:0px;"/><path d="m28.12,42.81c-4.5.41-8.62,2.13-12.14,5.08-1.09.92-2.71,2.58-2.96,3.06-.12.22.17.8,2.94,5.58,1.69,2.93,3.14,5.41,3.22,5.54.13.2.16.14.34-.47.33-1.12.75-2.04,1.41-3.02,1.86-2.8,4.69-4.52,8.02-4.86.73-.07,4.86-.12,10.52-.12,8.44,0,9.32-.02,9.25-.19-.17-.44-1.54-2.3-2.44-3.33-3.71-4.22-8.92-6.8-14.67-7.27-1.65-.13-1.98-.13-3.48,0h0Z" style="stroke-width:0px;"/></svg>