<?xml version="1.0" encoding="UTF-8"?><svg id="a" xmlns="http://www.w3.org/2000/svg" viewBox="0 0 506.18 80"><defs><style>.b{stroke-width:0px;}</style></defs><path class="b" d="m133.66,37.77v18.36h4.5l.08-7.55c.06-7.92.06-7.98.81-9.7.45-1.06,1.47-2.42,2.27-3.05,1.14-.91,2.31-1.3,3.86-1.28,2.5,0,4.08.78,5.09,2.52.86,1.5.89,1.89.89,10.84v8.22h4.7l-.05-9.11c-.06-10.16-.03-9.83-1.22-12.23-1.42-2.91-4.2-4.44-8.03-4.44-3.14,0-5.75,1.17-7.59,3.38-.38.47-.73.84-.78.84s-.06-3.41-.03-7.58l.06-7.58h-4.56v18.36Z"/><path class="b" d="m355.55,37.77v18.36h4.36l.05-1.67c.03-.94.11-1.69.2-1.7.09-.03.42.3.73.72,1.09,1.44,3.13,2.69,5.2,3.2,1.42.36,4.02.38,5.39.02.56-.14,1.61-.55,2.34-.91,1.09-.53,1.59-.91,2.83-2.14,3.05-3.05,4.19-6.11,4-10.67-.09-2.44-.36-3.58-1.28-5.52-1.48-3.16-3.97-5.52-6.98-6.61-1.05-.39-1.33-.42-3.48-.42-2.45,0-3.5.2-5.06,1.02-1.02.52-2.48,1.69-3.02,2.41-.28.39-.58.7-.67.72-.09,0-.13-.56-.06-1.59.06-.89.11-4.3.13-7.59l.02-5.97h-4.69v18.36Zm14.94-2.88c2.45.78,4.44,2.97,5.31,5.86.22.69.28,1.42.28,2.95,0,1.8-.05,2.17-.44,3.28-.92,2.66-2.75,4.61-5.06,5.41-4.45,1.53-9.16-1.23-10.28-6.05-.33-1.39-.31-4.19.02-5.45.55-2.09,2.16-4.39,3.73-5.31,1.92-1.13,4.28-1.38,6.44-.69Z"/><path class="b" d="m422.42,27.22v3.91h-4.38v4.22h4.36l.06,7.77c.06,8.28.08,8.45.86,10,.45.89,1.75,2.16,2.7,2.63,1.67.86,4.28,1.08,6.63.55,1.28-.28,1.27-.19.5-2.36-.64-1.81-.72-1.94-1.06-1.88-.2.02-.94.06-1.64.08-1.13.02-1.33-.03-1.89-.41-.39-.25-.77-.7-1-1.17l-.38-.75-.05-7.23-.05-7.22h6.11v-4.22h-6.09v-7.81h-4.69v3.91Z"/><path class="b" d="m115.28,30.56c-5.05,1.14-8.92,5.28-9.73,10.41-.41,2.5-.09,5.91.72,7.97,1.56,3.91,4.63,6.66,8.56,7.67,1.47.38,4.44.45,5.94.16,3.61-.72,6.56-2.89,8.11-5.92.22-.44.41-.86.41-.92,0-.08-.89-.52-1.98-.98-1.83-.78-1.98-.81-2.14-.56-1.78,3-3.45,4.11-6.58,4.39-2.11.2-4.06-.52-5.73-2.09-2.22-2.08-3.23-5.09-2.8-8.31.61-4.63,3.77-7.8,7.75-7.81,1.69-.02,2.3.11,3.61.73,1.25.58,2.52,1.81,3.19,3.08.22.41.44.73.52.73.13,0,3.91-1.56,4-1.66.14-.14-.66-1.55-1.5-2.69-1.44-1.89-3.63-3.39-5.91-4.03-1.27-.36-5.11-.45-6.42-.16Z"/><path class="b" d="m172.18,30.52c-.42.09-1.38.44-2.08.78-1.5.72-3.05,2.14-3.53,3.22-.16.38-.36.67-.44.67-.06,0-.13-.92-.13-2.03v-2.03h-4.53v25h4.69v-7.36c0-8.17.03-8.44,1.02-10.11,1.53-2.63,4.06-3.84,7.16-3.45.69.08,1.25.14,1.28.11.13-.17,1.3-4.25,1.25-4.34-.25-.41-3.41-.72-4.69-.45Z"/><path class="b" d="m187.43,30.52c-5.11,1-9.03,5.06-9.95,10.31-.33,1.91-.22,5,.23,6.73,1.16,4.42,4.63,7.91,9,9.05,1.63.42,4.8.47,6.41.08,2.33-.55,4.17-1.53,5.83-3.13,2.56-2.44,3.83-5.28,4.05-9.02.39-6.89-3.7-12.66-9.94-13.97-1.23-.25-4.47-.3-5.63-.06Zm4.25,4.13c1.14.16,3.08,1.2,4.14,2.27,1.72,1.72,2.53,3.88,2.53,6.73,0,3-.75,4.97-2.58,6.8-1.23,1.25-2.28,1.83-3.91,2.17-1.38.28-2.06.28-3.44,0-1.53-.33-2.61-.91-3.83-2.05-1.19-1.13-2.02-2.55-2.45-4.14-.34-1.36-.36-4.11,0-5.42.95-3.58,3.59-6.02,6.91-6.42.94-.11,1.2-.11,2.63.06Z"/><path class="b" d="m217.6,30.45c-.72.14-2.47.94-3.36,1.52-.86.58-2.45,2.16-2.45,2.45,0,.08-.11.14-.23.14-.19,0-.23-.3-.23-1.72v-1.72h-4.38v25h4.69v-7.63c0-5.84.05-7.8.22-8.39.92-3.52,3.31-5.58,6.41-5.56,2.75.02,4.17.92,5.03,3.22.27.72.3,1.44.34,9.56l.05,8.8h4.67v-7.27c0-8.09.08-8.88.98-10.63.27-.52.95-1.41,1.52-1.97,1.28-1.3,2.3-1.72,4.09-1.72,3.38,0,4.95,1.42,5.42,4.84.11.83.17,4.19.17,9.03v7.7h4.55l-.05-9.27c-.05-8.22-.09-9.36-.33-10.19-.94-3.25-3.02-5.34-6.05-6.11-1.58-.41-4.72-.23-6.16.31-1.97.75-3.39,1.89-4.86,3.88-.17.23-.3.3-.34.17-.22-.56-1.33-1.97-2.03-2.56-1.66-1.41-3.45-2.03-5.83-2-.81.02-1.66.06-1.84.09Z"/><path class="b" d="m258.9,30.56c-2.2.52-4,1.52-5.63,3.14-1.86,1.86-3.05,4.06-3.59,6.72-.33,1.64-.33,4.77,0,6.41,1,4.86,4.45,8.58,9.06,9.78,1.58.41,4.59.45,6.3.08,2.52-.55,4.78-1.84,6.5-3.7.86-.92,2.06-2.61,1.94-2.7-.02-.03-.95-.48-2.06-1.02-1.73-.81-2.05-.92-2.17-.72-.94,1.7-3.03,3.44-4.72,3.92-1.22.36-3.28.36-4.53,0-3.28-.95-5.86-4.22-5.86-7.39v-.67h19.89l-.11-1.61c-.23-3.31-1.19-6.2-2.7-8.2-1.34-1.77-3.56-3.27-5.75-3.86-1.3-.36-5.28-.47-6.56-.17Zm4.84,4.17c2.56.48,4.8,2.73,5.16,5.17l.11.75h-7.28c-4,0-7.28-.03-7.28-.05,0-.33.69-2,1.11-2.7,1.64-2.73,4.56-3.86,8.19-3.17Z"/><path class="b" d="m336.09,30.56c-2.2.52-4,1.52-5.63,3.14-1.86,1.86-3.05,4.06-3.59,6.72-.33,1.64-.33,4.77,0,6.41,1,4.86,4.45,8.58,9.06,9.78,1.58.41,4.59.45,6.3.08,2.52-.55,4.78-1.84,6.5-3.7.86-.92,2.06-2.61,1.94-2.7-.02-.03-.95-.48-2.06-1.02-1.73-.81-2.05-.92-2.17-.72-.94,1.7-3.03,3.44-4.72,3.92-1.22.36-3.28.36-4.53,0-3.28-.95-5.86-4.22-5.86-7.39v-.67h19.89l-.11-1.61c-.23-3.31-1.19-6.2-2.7-8.2-1.34-1.77-3.56-3.27-5.75-3.86-1.3-.36-5.28-.47-6.56-.17Zm4.84,4.17c2.55.48,4.81,2.75,5.16,5.17l.11.75h-7.28c-4,0-7.28-.03-7.28-.05,0-.33.69-2,1.11-2.7,1.64-2.73,4.56-3.86,8.19-3.17Z"/><path class="b" d="m402.5,30.58c-2.14.47-3.98,1.45-5.2,2.8-2.14,2.33-2.19,6.2-.11,8.5,1.36,1.52,3.11,2.31,7.63,3.48,1.63.42,3.33.92,3.77,1.13,2.81,1.3,3.23,3.84.88,5.39-1.14.75-2.3,1.02-4.05.94-1.31-.05-1.64-.13-2.59-.59-1.59-.77-3.11-2.39-3.77-4.03-.02-.02-.94.36-2.06.84l-2.05.88.3.69c.75,1.73,2.52,3.7,4.33,4.8,2.67,1.63,6.81,2.05,10.05,1.03,2.48-.8,4.45-2.36,5.42-4.33.58-1.16.59-1.23.59-2.83-.02-1.91-.3-2.8-1.25-4.06-1.52-1.98-3.05-2.67-9.73-4.41-2.94-.77-4.25-1.72-4.25-3.14,0-1.34,1.14-2.47,3.06-3.03,2.53-.73,6.03.41,7.22,2.36.23.38.47.7.55.7.11,0,3.89-1.55,3.98-1.64.17-.17-.97-1.86-1.86-2.75-1.23-1.25-3.31-2.34-5.11-2.72-1.41-.28-4.44-.28-5.73,0Z"/><path class="b" d="m446.11,30.59c-3.66.81-6.78,3.25-8.42,6.56-1.06,2.13-1.42,3.81-1.41,6.55.02,3.97,1.09,6.84,3.53,9.39,1.78,1.89,3.7,3,6.2,3.58,1.69.39,4.83.36,6.48-.06,4.58-1.19,8.2-5,9.16-9.64.44-2.06.36-5.63-.16-7.39-1.25-4.27-4.66-7.73-8.69-8.84-1.36-.38-5.28-.45-6.7-.14Zm5.38,4.28c1.95.58,3.91,2.2,4.84,4.06.81,1.61,1.02,2.55,1,4.77-.02,2.53-.42,3.95-1.63,5.67-2.89,4.13-8.7,4.63-12.27,1.05-3.36-3.36-3.48-9.75-.25-13.25,1.48-1.59,2.97-2.39,4.86-2.59,1.31-.14,2.19-.06,3.44.3Z"/><path class="b" d="m476.71,30.5c-2.19.39-4.88,2.28-5.67,3.98-.19.39-.41.7-.48.7-.09,0-.16-.78-.16-2.03v-2.03h-4.38v25h4.53v-7c0-4.05.06-7.41.17-8,.47-2.98,2.95-5.53,5.75-5.94.91-.13,3.08,0,3.41.2.16.09,1.52-4.2,1.39-4.41-.27-.41-3.22-.72-4.56-.48Z"/><path class="b" d="m491.26,30.56c-3.41.8-6.09,2.84-7.94,6.06-1.14,1.97-1.78,5.16-1.61,7.94.13,2.13.55,3.8,1.41,5.55,2.38,4.81,7.03,7.33,12.58,6.8,3.44-.33,6.48-1.88,8.58-4.38.86-1.03,1.56-2.13,1.42-2.25-.08-.08-3.88-1.97-3.94-1.97-.03,0-.33.39-.66.86-2.06,3-5.17,4.19-8.67,3.33-1.17-.3-2.44-1.02-3.48-2-1.47-1.36-2.36-3.25-2.48-5.23l-.05-.78,9.89-.05,9.88-.03v-1.22c0-2.5-.8-5.61-1.89-7.48-.8-1.36-2.81-3.3-4.13-3.98-1.95-1.02-3-1.25-5.63-1.31-1.63-.05-2.63.02-3.28.16Zm5.31,4.28c1.84.56,3.23,1.73,4.02,3.34.31.63.61,1.44.66,1.8l.09.67h-14.56l.11-.52c.41-1.98,2.44-4.41,4.27-5.09.55-.2,1.38-.42,1.88-.47.95-.11,2.78.03,3.55.27Z"/><path class="b" d="m287.11,31.2s1.72,5.45,3.83,12c2.13,6.55,3.92,12.14,4,12.41l.17.52h4.75l3.03-9.41c1.66-5.19,3.08-9.52,3.14-9.64.09-.22.81,1.88,5.19,15.38l1.17,3.59,2.41.05,2.41.03,3.97-12.3c2.17-6.78,3.98-12.41,4.03-12.52.05-.14-.47-.19-2.28-.19-2.11,0-2.36.03-2.44.27-.13.45-4.89,16.75-5.17,17.74-.14.5-.31.91-.38.91s-.3-.61-.55-1.38c-.23-.75-1.63-5-3.08-9.45l-2.66-8.08h-4.81l-2.34,7.14c-1.28,3.94-2.67,8.17-3.06,9.42-.41,1.25-.78,2.31-.84,2.38-.05.06-1.36-4.17-2.89-9.41l-2.81-9.53h-2.39c-1.31,0-2.39.03-2.39.08Z"/><path class="b" d="m.99.25C-.08.78,0-2.27,0,37.3,0,59.5.06,73.39.16,73.97c.47,2.92,2.95,5.41,5.88,5.88,1.25.2,66.69.2,67.94,0,2.92-.47,5.41-2.95,5.88-5.88.09-.58.16-14.47.16-36.67,0-39.66.08-36.53-1.02-37.05-.47-.22-4.28-.25-39.02-.25S1.44.03.99.25Zm50.06,7.42c.95.36,2.16,1.38,2.72,2.28.41.66.77,1.95.77,2.78,0,2.16-1.52,4.31-3.53,5.08-.83.3-1.19.31-11,.31s-10.17-.02-11-.31c-2.02-.77-3.53-2.92-3.53-5.08,0-.83.36-2.13.75-2.77.56-.91,1.67-1.84,2.63-2.23l.92-.39h10.19c10.05,0,10.2,0,11.09.33Zm-6.13,32.72c9.5,1.47,18.06,7.2,23.02,15.42,2.42,4.02,3.92,8.31,4.56,13.14.17,1.36.22,5.59.06,6.73l-.11.72h-3.47v-3.33c0-4.17-.31-6.22-1.52-9.77l-.48-1.44h-17.33l.88.95c1.73,1.88,2.89,3.95,3.56,6.41.3,1.09.36,1.67.34,3.42-.02,1.33-.11,2.41-.25,2.89l-.22.78-1.83.05c-2.05.05-1.97.09-1.59-1.14.86-2.89.08-6.59-1.95-9.2-1.45-1.86-3.97-3.45-6.19-3.92-1.38-.3-3.44-.3-4.81,0-2.22.47-4.73,2.06-6.19,3.92-2.03,2.61-2.81,6.31-1.95,9.2.38,1.23.48,1.17-1.92,1.17h-2.16l-5.23-9.06c-2.88-4.98-5.27-9.06-5.31-9.06s-.48.83-.97,1.83c-2.17,4.55-3.05,8.69-2.88,13.67l.09,2.63h-3.55l-.11-1.03c-.17-1.56.02-6.38.3-7.95.63-3.39,1.44-5.92,2.91-8.91,2.08-4.25,4.58-7.52,8.03-10.48,5.09-4.39,11.34-7.13,17.99-7.88,1.72-.19,6.39-.06,8.28.23Z"/><path class="b" d="m37.49,43.75c-6,.55-11.5,2.84-16.19,6.78-1.45,1.22-3.61,3.44-3.95,4.08-.16.3.23,1.06,3.92,7.44,2.25,3.91,4.19,7.22,4.3,7.38.17.27.22.19.45-.63.44-1.5,1-2.72,1.88-4.03,2.48-3.73,6.25-6.02,10.7-6.48.97-.09,6.48-.16,14.02-.16,11.25,0,12.42-.02,12.33-.25-.22-.58-2.05-3.06-3.25-4.44-4.95-5.63-11.89-9.06-19.56-9.69-2.2-.17-2.64-.17-4.64,0Z"/></svg>