<svg width="32" height="32" fill="none" version="1.1" xmlns="http://www.w3.org/2000/svg" xmlns:svg="http://www.w3.org/2000/svg">
  <path fill-rule="evenodd" clip-rule="evenodd" d="m 28.768,5.7457778 -8.798222,8.8000002 -2.515556,-2.515556 8.8,-8.7999998 z M 21.333333,24.888889 H 32 V 21.333333 H 21.333333 Z M 7.1111111,10.666667 H 10.666667 V 0 H 7.1111111 Z m 1.7777778,17.777777 c -2.9404445,0 -5.3333333,-2.392888 -5.3333333,-5.333333 0,-2.942222 2.3928888,-5.333333 5.3333333,-5.333333 2.9422221,0 5.3333331,2.391111 5.3333331,5.333333 0,2.940445 -2.391111,5.333333 -5.3333331,5.333333 z m 0,-14.222222 C 3.9893333,14.222222 0,18.209778 0,23.111111 0,28.010667 3.9893333,32 8.8888889,32 c 4.9013331,0 8.8888891,-3.989333 8.8888891,-8.888889 0,-4.901333 -3.987556,-8.888889 -8.8888891,-8.888889 z" fill="#000" style="stroke-width:1.77778" />
</svg>
