<?xml version="1.0" encoding="UTF-8" standalone="no"?>
<svg width="32" height="32" fill="none" version="1.1" id="svg1" sodipodi:docname="claro-tv+.svg" inkscape:version="1.4-beta2 (9aaf4f34, 2024-07-30)" xmlns:inkscape="http://www.inkscape.org/namespaces/inkscape" xmlns:sodipodi="http://sodipodi.sourceforge.net/DTD/sodipodi-0.dtd" xmlns="http://www.w3.org/2000/svg" xmlns:svg="http://www.w3.org/2000/svg" xmlns:rdf="http://www.w3.org/1999/02/22-rdf-syntax-ns#" xmlns:cc="http://creativecommons.org/ns#" xmlns:dc="http://purl.org/dc/elements/1.1/">
  <defs id="defs1" />
  <sodipodi:namedview id="namedview1" pagecolor="#ffffff" bordercolor="#000000" borderopacity="0.25" inkscape:showpageshadow="2" inkscape:pageopacity="0.0" inkscape:pagecheckerboard="0" inkscape:deskcolor="#d1d1d1" inkscape:zoom="4.4261686" inkscape:cx="7.2297291" inkscape:cy="16.153926" inkscape:window-width="1440" inkscape:window-height="872" inkscape:window-x="0" inkscape:window-y="0" inkscape:window-maximized="1" inkscape:current-layer="svg1" />
  <title id="title1">Claro Vídeos</title>
  <path fill-rule="evenodd" clip-rule="evenodd" d="m 28.768,5.7457778 -8.798222,8.8000002 -2.515556,-2.515556 8.8,-8.7999998 z M 21.333333,24.888889 H 32 V 21.333333 H 21.333333 Z M 7.1111111,10.666667 H 10.666667 V 0 H 7.1111111 Z m 1.7777778,17.777777 c -2.9404445,0 -5.3333333,-2.392888 -5.3333333,-5.333333 0,-2.942222 2.3928888,-5.333333 5.3333333,-5.333333 2.9422221,0 5.3333331,2.391111 5.3333331,5.333333 0,2.940445 -2.391111,5.333333 -5.3333331,5.333333 z m 0,-14.222222 C 3.9893333,14.222222 0,18.209778 0,23.111111 0,28.010667 3.9893333,32 8.8888889,32 c 4.9013331,0 8.8888891,-3.989333 8.8888891,-8.888889 0,-4.901333 -3.987556,-8.888889 -8.8888891,-8.888889 z" fill="#fff" id="path1" style="fill:#000000;stroke-width:1.77778" />
  <metadata id="metadata1">
    <rdf:RDF>
      <cc:Work rdf:about="">
        <dc:title>Claro Vídeos</dc:title>
      </cc:Work>
    </rdf:RDF>
  </metadata>
</svg>
