<svg width="32" height="32" fill="none" xmlns="http://www.w3.org/2000/svg">
  <g style="fill:#000">
    <path d="m50.206 8.861-9.01 20.584-2.577-17.88c-.325-2.428 3.804-3.93 3.804-3.93-.375-.838-1.69-.826-1.69-.826h-2.802c-.45-4.392 3.541-7.608 7.858-6.62 4.242.952 5.781 5.557 4.405 8.685Z" style="fill:#000" transform="translate(-2.945 6.725) scale(.51383)"/>
    <path d="M33.463 36.102 15.895 24.39c-4.467-2.99-8.897.063-9.835 3.203-1.377 4.643 1.714 8.51 6.569 8.51z" style="fill:#000" transform="translate(-2.945 6.725) scale(.51383)"/>
    <path d="M35.765 7.084c.65-4.542-3.416-7.908-7.833-6.907-4.242.951-5.781 5.556-4.405 8.684l9.01 20.584 3.215-22.36Z" style="fill:#000" transform="translate(-2.945 6.725) scale(.51383)"/>
    <path d="M31.835 32.824 23.19 13.116c-2.027-4.568-7.383-5.143-10.348-2.453-2.09 1.89-3.704 7.032.963 10.148l18.044 12.025z" style="fill:#000" transform="translate(-2.945 6.725) scale(.51383)"/>
    <path d="M61.106 36.102c4.855 0 7.958-3.866 6.57-8.509-.94-3.14-5.356-6.194-9.836-3.203L40.272 36.102Z" style="fill:#000" transform="translate(-2.945 6.725) scale(.51383)"/>
    <path d="M59.953 20.799c4.667-3.116 3.04-8.259.963-10.148-2.965-2.678-8.321-2.115-10.348 2.452L41.92 32.811l18.044-12.025Z" style="fill:#000" transform="translate(-2.945 6.725) scale(.51383)"/>
  </g>
</svg>