<?xml version="1.0" encoding="UTF-8"?><svg id="a" xmlns="http://www.w3.org/2000/svg" viewBox="0 0 107.12 80"><defs><style>.b{stroke-width:0px;}</style></defs><path class="b" d="m33.17,15.05h-9.3C10.07,15.65-.58,27.35.02,41.15c.6,12.95,10.95,23.3,23.85,23.85h17.5c4.4,0,7.95-3.55,7.95-7.95h0v-15.25l12.1,19.1c2.8,4.2,8.5,5.35,12.7,2.55,2.55-1.7,4.1-4.55,4.1-7.6v-14.05l12.1,19.1c2.8,4.2,8.5,5.35,12.7,2.55,2.55-1.7,4.1-4.55,4.1-7.6V15h-6.25v40.85c0,1.6-1.3,2.9-2.9,2.9h0c-.95,0-1.9-.5-2.4-1.3l-21.55-33.9c-.35-.5-1.05-.65-1.55-.3-.3.2-.45.55-.5.9v31.7c0,1.6-1.3,2.9-2.9,2.9h0c-.95,0-1.9-.5-2.4-1.3l-21.55-33.95c-.35-.5-1.05-.65-1.55-.3-.3.2-.45.55-.5.9v32.85c0,.95-.8,1.75-1.75,1.75h-17.5c-10.35,0-18.7-8.4-18.7-18.75s8.4-18.7,18.75-18.7h9.3v-6.2Z"/><path class="b" d="m34.17,50.75c.5,0,.9-.4.9-.9h0v-25.7c0-5.05,4.1-9.15,9.15-9.15,3.1,0,6,1.55,7.65,4.15l12.05,18.95v-13.9c0-5.05,4.1-9.15,9.15-9.15,3.1,0,6,1.55,7.65,4.15l12.05,18.95V15h6.25v40.85c0,.6-.5,1.1-1.1,1.1-.35,0-.7-.15-.9-.45l-21.5-34c-.5-.8-1.45-1.3-2.4-1.3-1.6,0-2.9,1.3-2.9,2.9h0v31.7c0,.6-.5,1.1-1.1,1.1-.35,0-.7-.15-.9-.45l-21.6-34c-.5-.8-1.45-1.3-2.4-1.3-1.6,0-2.9,1.3-2.9,2.9h0v31.95c0,.5-.4.9-.9.9h-16.55c-9.35,0-16.95-7.6-16.95-16.95s7.6-16.95,16.95-16.95c0,0,9.3-.05,9.3,0v6.3h-9.3c-5.9,0-10.7,4.8-10.7,10.75s4.8,10.7,10.7,10.7h10.3Z"/></svg>