<?xml version="1.0" encoding="utf-8"?>
<!-- Generator: Adobe Illustrator 23.0.6, SVG Export Plug-In . SVG Version: 6.00 Build 0)  -->
<svg version="1.1" id="Camada_1" xmlns="http://www.w3.org/2000/svg" xmlns:xlink="http://www.w3.org/1999/xlink" x="0px" y="0px"
	 viewBox="0 0 300 120" style="enable-background:new 0 0 300 120;" xml:space="preserve">
<title>cnn</title>
<path d="M110.3,10.1H91.7C64.1,11.3,42.8,34.7,44,62.3c1.2,25.9,21.9,46.6,47.7,47.7h35c8.8,0,15.9-7.1,15.9-15.9c0,0,0,0,0,0V63.6
	l24.2,38.2c5.6,8.4,17,10.7,25.4,5.1c5.1-3.4,8.2-9.1,8.2-15.2V63.6l24.2,38.2c5.6,8.4,17,10.7,25.4,5.1c5.1-3.4,8.2-9.1,8.2-15.2
	V10h-12.5v81.7c0,3.2-2.6,5.8-5.8,5.8l0,0c-1.9,0-3.8-1-4.8-2.6L192,27.1c-0.7-1-2.1-1.3-3.1-0.6c-0.6,0.4-0.9,1.1-1,1.8v63.4
	c0,3.2-2.6,5.8-5.8,5.8l0,0c-1.9,0-3.8-1-4.8-2.6L134.2,27c-0.7-1-2.1-1.3-3.1-0.6c-0.6,0.4-0.9,1.1-1,1.8v65.7
	c0,1.9-1.6,3.5-3.5,3.5h-35c-20.7,0-37.4-16.8-37.4-37.5S71,22.5,91.7,22.5c0,0,0,0,0,0h18.6L110.3,10.1z"/>
<path d="M112.3,81.5c1,0,1.8-0.8,1.8-1.8c0,0,0,0,0,0l0,0V28.3c0-10.1,8.2-18.3,18.3-18.3c6.2,0,12,3.1,15.3,8.3l24.1,37.9V28.4
	c0-10.1,8.2-18.3,18.3-18.3c6.2,0,12,3.1,15.3,8.3l24.1,37.9V10H242v81.7c0,1.2-1,2.2-2.2,2.2c-0.7,0-1.4-0.3-1.8-0.9l-43-68
	c-1-1.6-2.9-2.6-4.8-2.6c-3.2,0-5.8,2.6-5.8,5.8c0,0,0,0,0,0v63.4c0,1.2-1,2.2-2.2,2.2c-0.7,0-1.4-0.3-1.8-0.9l-43.2-68
	c-1-1.6-2.9-2.6-4.8-2.6c-3.2,0-5.8,2.6-5.8,5.8c0,0,0,0,0,0V92c0,1-0.8,1.8-1.8,1.8c0,0,0,0,0,0H91.7c-18.7,0-33.9-15.2-33.9-33.9
	S73,26,91.7,26c0,0,18.6-0.1,18.6,0v12.6H91.7c-11.8,0-21.4,9.6-21.4,21.5c0,11.8,9.6,21.4,21.4,21.4H112.3z"/>
</svg>
