<svg fill="#000000" version="1.1" width="32" height="32" viewBox="0 0 20.48 20.48" enable-background="new 0 0 512 512" xml:space="preserve" id="svg1" xmlns="http://www.w3.org/2000/svg" xmlns:svg="http://www.w3.org/2000/svg">
<g transform="matrix(0.04007843,0,0,0.04007843,-0.02007808,-0.02007808)">
<path display="inline" d="m 159.145,256.002 -33.97,22.721 v -45.441 z m 83.278,-55.705 v -63.325 l -106.378,70.912 47.519,31.789 z m 133.534,7.587 -106.38,-70.912 v 63.325 l 58.863,39.376 z m -239.912,96.235 106.377,70.913 V 311.706 L 183.565,272.34 Z m 133.532,7.587 v 63.326 L 375.957,304.119 328.44,272.34 Z m -13.578,-87.824 -48.02,32.119 48.02,32.121 48.022,-32.121 z M 511.5,256.002 C 511.5,397.114 397.11,511.499 255.999,511.499 114.895,511.499 0.5,397.114 0.5,256.002 0.5,114.891 114.895,0.501 255.999,0.501 397.11,0.501 511.5,114.891 511.5,256.002 Z m -97.522,-48.135 c 0,-0.599 -0.043,-1.188 -0.122,-1.771 -0.028,-0.198 -0.074,-0.39 -0.107,-0.59 -0.07,-0.382 -0.137,-0.765 -0.237,-1.139 -0.058,-0.225 -0.14,-0.44 -0.212,-0.656 -0.107,-0.333 -0.215,-0.664 -0.348,-0.989 -0.092,-0.224 -0.205,-0.448 -0.304,-0.664 -0.146,-0.308 -0.296,-0.607 -0.461,-0.897 -0.122,-0.217 -0.259,-0.424 -0.388,-0.632 -0.183,-0.282 -0.369,-0.557 -0.572,-0.823 -0.15,-0.199 -0.304,-0.398 -0.47,-0.589 -0.212,-0.249 -0.437,-0.499 -0.673,-0.732 -0.18,-0.183 -0.354,-0.365 -0.54,-0.531 -0.246,-0.225 -0.508,-0.44 -0.773,-0.649 -0.2,-0.157 -0.399,-0.315 -0.611,-0.465 -0.078,-0.05 -0.149,-0.116 -0.229,-0.166 L 263.533,100.305 c -4.563,-3.042 -10.501,-3.042 -15.063,0 l -144.402,96.269 c -0.076,0.05 -0.146,0.116 -0.221,0.166 -0.212,0.149 -0.415,0.308 -0.615,0.465 -0.266,0.209 -0.524,0.425 -0.77,0.649 -0.187,0.166 -0.364,0.349 -0.544,0.531 -0.236,0.233 -0.456,0.483 -0.677,0.732 -0.158,0.19 -0.315,0.39 -0.465,0.589 -0.199,0.267 -0.391,0.541 -0.57,0.823 -0.138,0.208 -0.266,0.415 -0.39,0.632 -0.166,0.29 -0.315,0.59 -0.462,0.897 -0.104,0.216 -0.208,0.44 -0.303,0.664 -0.133,0.325 -0.245,0.656 -0.35,0.989 -0.074,0.216 -0.148,0.432 -0.211,0.656 -0.101,0.374 -0.166,0.757 -0.238,1.139 -0.032,0.2 -0.082,0.392 -0.107,0.59 -0.079,0.582 -0.125,1.172 -0.125,1.771 v 96.269 c 0,0.599 0.046,1.188 0.125,1.778 0.025,0.191 0.075,0.391 0.107,0.582 0.072,0.383 0.138,0.765 0.238,1.139 0.063,0.225 0.137,0.44 0.211,0.656 0.104,0.332 0.217,0.665 0.35,0.999 0.095,0.224 0.199,0.438 0.303,0.655 0.146,0.308 0.296,0.606 0.462,0.905 0.124,0.208 0.252,0.416 0.39,0.624 0.18,0.282 0.371,0.557 0.57,0.822 0.149,0.208 0.307,0.399 0.465,0.59 0.221,0.249 0.44,0.499 0.677,0.731 0.18,0.184 0.357,0.365 0.544,0.532 0.245,0.225 0.504,0.439 0.77,0.647 0.2,0.158 0.403,0.316 0.615,0.466 0.075,0.05 0.145,0.116 0.221,0.166 l 144.402,96.27 c 2.281,1.521 4.908,2.284 7.53,2.284 2.63,0 5.252,-0.764 7.533,-2.284 l 144.398,-96.27 c 0.079,-0.05 0.15,-0.116 0.229,-0.166 0.212,-0.149 0.411,-0.308 0.611,-0.466 0.266,-0.208 0.527,-0.423 0.773,-0.647 0.186,-0.167 0.36,-0.349 0.54,-0.532 0.236,-0.232 0.461,-0.482 0.673,-0.731 0.166,-0.19 0.319,-0.382 0.47,-0.59 0.203,-0.266 0.39,-0.54 0.572,-0.822 0.129,-0.208 0.266,-0.416 0.388,-0.624 0.165,-0.299 0.315,-0.598 0.461,-0.905 0.099,-0.217 0.212,-0.432 0.304,-0.655 0.133,-0.334 0.24,-0.667 0.348,-0.999 0.072,-0.216 0.154,-0.432 0.212,-0.656 0.101,-0.374 0.167,-0.756 0.237,-1.139 0.033,-0.191 0.079,-0.391 0.107,-0.582 0.079,-0.59 0.122,-1.18 0.122,-1.778 z m -27.152,70.856 v -45.441 l -33.965,22.72 z"></path>
</g>
</svg>
