<?xml version="1.0" encoding="UTF-8"?><svg id="a" xmlns="http://www.w3.org/2000/svg" viewBox="0 0 244.85 80"><path d="m57.55,62.5h0q-.08,0,0,0-.08,0,0,0-.08,0,0,0-.08,0,0,0c-.5,0-.83-.17-1.16-.33l-20.41-13.52c-.25-.17-.5-.33-.66-.58-.25-.41-.33-.83-.33-1.24v-13.6c0-.41.08-.83.33-1.24.17-.25.41-.5.66-.58l20.32-13.52c.66-.5,1.74-.5,2.41,0l20.32,13.44c.25.17.41.33.58.58h0s0,.08.08.08c.25.33.33.75.33,1.16v13.6c0,.41-.08.83-.33,1.16l-.08.08h0c-.17.25-.33.41-.58.58l-20.32,13.6c-.33.25-.75.33-1.16.33h0Zm2.07-14.52v8.46l14.43-9.54-6.39-4.31-8.05,5.39Zm-18.66-1.16l14.43,9.54v-8.38l-8.05-5.39-6.39,4.23Zm10.2-6.8l6.39,4.31,6.39-4.31-6.39-4.31-6.39,4.31Zm-11.86-2.82v5.72l4.23-2.82-4.23-2.9Zm32.18,2.82l4.23,2.82v-5.72l-4.23,2.9Zm-11.86-7.96l8.05,5.39,6.39-4.31-14.43-9.54v8.46Zm-18.66,1.16l6.39,4.31,8.05-5.39v-8.54l-14.43,9.62Zm201.73,21.9c-.66,0-1.24-.25-1.66-.83l-16.59-21.07v19.74c0,1.16-.91,2.16-2.16,2.16s-2.16-.91-2.16-2.16v-25.88c0-.91.58-1.74,1.41-1.99.83-.33,1.82,0,2.41.66l16.59,21.07v-19.74c0-1.16.91-2.16,2.16-2.16s2.16.91,2.16,2.16v25.96c0,.91-.58,1.74-1.41,1.99-.25,0-.5.08-.75.08Zm-35.17,0h-16.67c-1.16,0-2.16-.91-2.16-2.16v-25.88c0-1.16.91-2.16,2.16-2.16h16.59c1.16,0,2.16.91,2.16,2.16s-.91,2.16-2.16,2.16h-14.52v8.71h8.96c1.16,0,2.16.91,2.16,2.16,0,1.16-.91,2.16-2.16,2.16h-8.96v8.71h14.52c1.16,0,2.16.91,2.16,2.16s-.91,1.99-2.07,1.99Zm-48.19,0c-1.16,0-2.16-.91-2.16-2.16v-25.88c0-1.16.91-2.16,2.16-2.16h11.2c5.23,0,9.54,4.31,9.54,9.54s-4.31,9.54-9.54,9.54h-8.96v8.96c-.08,1.16-1,2.16-2.24,2.16Zm2.16-15.35h9.04c2.9,0,5.31-2.41,5.31-5.31s-2.41-5.31-5.31-5.31h-8.96v10.62h-.08Zm-16.92,15.35h-16.67c-1.16,0-2.16-.91-2.16-2.16v-25.88c0-1.16.91-2.16,2.16-2.16h16.67c1.16,0,2.16.91,2.16,2.16s-.91,2.16-2.16,2.16h-14.52v8.71h8.96c1.16,0,2.16.91,2.16,2.16,0,1.16-.91,2.16-2.16,2.16h-9.04v8.71h14.52c1.16,0,2.16.91,2.16,2.16s-.91,1.99-2.07,1.99Zm-42.64,0h-9.29c-1.16,0-2.16-.91-2.16-2.16v-25.88c0-1.16.91-2.16,2.16-2.16h9.29c8.29,0,15.1,6.8,15.1,15.1s-6.72,15.1-15.1,15.1Zm-7.13-4.23h7.13c5.97,0,10.87-4.89,10.87-10.87s-4.89-10.87-10.87-10.87h-7.13v21.73Zm-79.71,4.15c-3.82,0-7.63-1.41-10.53-4.31-5.97-5.81-6.06-15.43-.25-21.32,2.82-2.9,6.55-4.48,10.62-4.56,3.98,0,7.8,1.49,10.7,4.31.83.83.83,2.16,0,2.99s-2.16.83-2.99,0c-2.07-1.99-4.73-3.07-7.55-3.07h-.08c-2.9,0-5.64,1.16-7.63,3.24-4.15,4.23-4.06,11.12.17,15.35,4.15,4.06,10.95,4.06,15.18,0,.83-.83,2.16-.83,2.99,0s.83,2.16,0,2.99c-2.99,2.99-6.8,4.4-10.62,4.4Z" style="stroke-width:0px;"/></svg>