<?xml version="1.0" encoding="UTF-8"?><svg id="a" xmlns="http://www.w3.org/2000/svg" viewBox="0 0 342.66 80"><path d="m44.39,35.77l-20.04,14.71,7.83-17.53,19.17-10.9-6.96,13.72Z" style="fill-rule:evenodd; stroke-width:0px;"/><path d="m47.95,21.34l-17.44,9.06-6.21,19.66,4.95-21.36,19.13-11.63-.42,4.27Z" style="fill-rule:evenodd; stroke-width:0px;"/><path d="m42.3,18.25l-16.22,8.73-1.94,22.48-.92-24.04,19.44-11.58-.36,4.42Zm2.66,18.32l-20.61,13.9,19.14-1.45,16.73-14.37-15.26,1.92Z" style="fill-rule:evenodd; stroke-width:0px;"/><path d="m59.74,38.1l-14.41,13.36-20.6-.78,21.77,2.55,17.4-14.08-4.16-1.05Z" style="fill-rule:evenodd; stroke-width:0px;"/><path d="m60.74,44.45l-13.69,12.32-21.82-5.76,22.32,8.97,17.46-14.39-4.28-1.15Z" style="fill-rule:evenodd; stroke-width:0px;"/><path d="m3.5,55.23c-8.93-19.46.04-42.29,20.04-50.98,5.59-2.43,11.66-3.57,17.76-3.33-4.58.15-9.09,1.17-13.29,3C10.02,11.74,1.95,32.27,9.98,49.77c8.03,17.5,29.11,25.36,47.1,17.54,16.63-7.23,24.78-25.33,19.56-41.86,7.67,19.08-1.35,40.84-20.76,49.28-19.99,8.69-43.44-.04-52.37-19.51h0Z" style="fill-rule:evenodd; stroke-width:0px;"/><path d="m46.14,3.55C28.2,1.84,12.27,15,10.56,32.95c-.48,5,.21,10.04,2,14.73-4.63-15.53,4.2-31.88,19.73-36.51,15.53-4.63,31.88,4.2,36.51,19.73,4.63,15.53-4.2,31.88-19.73,36.51-2.46.73-5.01,1.14-7.58,1.21,18,.85,33.28-13.05,34.13-31.05.82-17.39-12.15-32.36-29.48-34.02h0Z" style="fill-rule:evenodd; stroke-width:0px;"/><path d="m3.48,56.3c-9-20.17.05-43.83,20.23-52.83C29.33.96,35.45-.21,41.6.03,21.75.72,6.22,17.38,6.91,37.23c.69,19.85,17.35,35.39,37.2,34.7s35.39-17.35,34.7-37.2c-.11-3.15-.63-6.27-1.55-9.28,8.04,20.57-2.13,43.76-22.7,51.8-19.89,7.77-42.36-1.45-51.07-20.95Z" style="fill-rule:evenodd; stroke-width:0px;"/><path d="m46.7,1.8C28.31.05,11.98,13.54,10.24,31.93c-.49,5.12.21,10.29,2.05,15.09-4.75-15.92,4.3-32.67,20.22-37.42,15.92-4.75,32.67,4.3,37.42,20.22,4.75,15.92-4.3,32.67-20.22,37.42-2.52.75-5.13,1.17-7.76,1.24,18.45.86,34.1-13.4,34.96-31.84.83-17.81-12.45-33.14-30.2-34.85Z" style="fill-rule:evenodd; stroke-width:0px;"/><path d="m234.9,62.75c.03-.23-.13-.43-.35-.46-.04,0-.07,0-.11,0h-.86v-1.75h1.96c.61-.13,1.2.26,1.33.87.02.1.03.2.02.31v.4c0,.2-.01.41-.04.61h.04c.74-1.53,2.31-2.48,4-2.44,2.53,0,3.67,1.37,3.67,4.09v4.61c-.03.23.13.43.36.46.04,0,.07,0,.11,0h.86v1.75h-2.02c-.63.12-1.23-.3-1.35-.92-.03-.14-.03-.28,0-.43v-5.01c0-1.5-.29-2.68-2-2.68-1.59,0-2.98,1.07-3.37,2.61-.14.46-.21.95-.19,1.43v4.99h-2.04v-8.45h0Zm16.99-2.47c3.08.08,5.52,2.64,5.44,5.73s-2.64,5.52-5.73,5.44c-3.04-.08-5.45-2.57-5.44-5.61,0-3.07,2.49-5.56,5.56-5.56.06,0,.11,0,.17,0Zm0,9.4c2.11.09,3.89-1.54,3.98-3.64s-1.54-3.89-3.64-3.98-3.89,1.54-3.98,3.64c0,.05,0,.1,0,.15-.08,2.03,1.5,3.75,3.53,3.83.04,0,.08,0,.12,0Zm7.99-14.05h-2.44v-3.23h11.33c4.46,0,7.69,2.48,7.69,6.75.1,2.38-1.18,4.6-3.3,5.7v.08c2.81.83,4.35,3.45,4.35,6.41,0,4.99-3.83,7.54-8.52,7.54h-6.71c-1.69,0-2.4-.71-2.4-2.4v-20.85Zm8.93,7.92c2.06.06,3.78-1.57,3.84-3.63,0-.13,0-.26,0-.39.16-2-1.33-3.74-3.33-3.9-.19-.02-.38-.02-.57,0h-5.1v7.92h5.18Zm-4.35,12.11h4.73c2.29.17,4.29-1.55,4.47-3.84.02-.22.02-.44,0-.66.16-2.34-1.61-4.37-3.95-4.53-.17-.01-.34-.01-.51,0h-5.55v8.21c-.04.41.26.78.67.82.05,0,.11,0,.16,0Zm16.33-11.81c.05-.4-.23-.77-.63-.83-.06,0-.13,0-.19,0h-1.54v-3.11h3.45c1.65,0,2.44.67,2.44,2.21v1.2c0,.44-.02.88-.07,1.31h.07c.9-2.78,3.08-4.95,6-4.95.33,0,.65.03.98.07v3.6c-.36-.07-.72-.11-1.09-.11-2.32,0-4.46,1.65-5.33,4.46-.32,1.11-.47,2.26-.45,3.41v7.76h-3.64v-15.04h0Zm21.4,3.23h.82v-.19c0-3.34-1.24-4.54-4.2-4.54-.9,0-3.11.23-3.11,1.46v1.09h-3.41v-1.87c0-3.11,4.73-3.56,6.56-3.56,6.15,0,7.8,3.23,7.8,7.43v8.07c-.05.4.23.77.63.82.06,0,.13,0,.19,0h1.54v3.11h-3.41c-1.69,0-2.36-.83-2.36-2.18,0-.38.02-.75.07-1.13h-.07c-1.09,2.34-3.46,3.81-6.04,3.75-3.26,0-6.45-1.99-6.45-5.78,0-6.11,8.25-6.49,11.44-6.49Zm-4.2,9.34c3.08,0,5.06-3.22,5.06-6.04v-.64h-.94c-2.74,0-7.69.15-7.69,3.64,0,1.54,1.16,3.04,3.56,3.04Zm13.07-2.85c1.44,1.69,3.52,2.71,5.74,2.81,1.76,0,3.3-.79,3.3-2.44,0-3.41-10.35-3.04-10.35-9.15,0-3.64,3.19-5.33,7.05-5.33,2.29,0,6.23.79,6.23,3.68v1.8h-3.26v-.94c0-1.13-1.69-1.61-2.85-1.61-2.14,0-3.52.75-3.52,2.25,0,3.6,10.35,2.81,10.35,9.15,0,3.38-3,5.55-6.98,5.55-2.9.07-5.67-1.16-7.58-3.34l1.88-2.44Zm15.92-9.71c.05-.4-.23-.77-.63-.83-.06,0-.13,0-.19,0h-1.54v-3.11h3.56c1.69,0,2.4.71,2.4,2.4v12.64c-.05.4.23.77.63.83.07,0,.13,0,.2,0h1.54v3.11h-3.56c-1.69,0-2.4-.71-2.4-2.4v-12.64Zm.08-11.44h3.26v3.79h-3.26v-3.79Zm8.38,3.94c.05-.4-.23-.77-.63-.83-.06,0-.13,0-.19,0h-1.54v-3.11h3.6c1.69,0,2.4.71,2.4,2.4v20.14c-.05.4.23.77.63.82.06,0,.13,0,.19,0h1.54v3.11h-3.6c-1.69,0-2.4-.71-2.4-2.4v-20.14Z" style="stroke-width:0px;"/><path d="m106.17,12.76c3.6,0,10.75,1.48,10.75,6.56v3.07h-5.2v-1.65c0-2.13-3.37-3.07-5.55-3.07-5.85,0-10.22,4.37-10.22,10.69,0,6.79,4.96,10.63,10.51,10.63,3.51-.11,6.84-1.6,9.27-4.13l2.48,4.07c-3.16,3.34-7.57,5.2-12.17,5.14-9.39,0-15.95-6.67-15.95-15.65s6.44-15.65,16.07-15.65Zm27.86,0c8.92,0,16.12,6.56,16.12,15.59s-7.21,15.71-16.12,15.71-16.07-6.61-16.07-15.71,7.15-15.59,16.07-15.59Zm0,26.34c5.67,0,10.28-4.49,10.28-10.75.21-5.66-4.22-10.42-9.88-10.62-.13,0-.27,0-.4,0-5.61,0-10.22,4.43-10.22,10.63s4.61,10.75,10.22,10.75Zm19.65-19.43c.08-.63-.36-1.21-.99-1.3-.1-.01-.2-.01-.3,0h-2.42v-4.9h5.49c2.54,0,3.78,1.12,3.78,3.31v1.12c0,.57-.04,1.15-.12,1.71h.12c2.08-4.28,6.46-6.96,11.22-6.85,7.09,0,10.28,3.84,10.28,11.46v12.94c-.09.63.36,1.21.99,1.3.1.01.21.01.31,0h2.42v4.9h-5.67c-2.66,0-3.78-1.12-3.78-3.78v-14.06c0-4.19-.83-7.5-5.61-7.5-4.46-.03-8.36,3-9.45,7.32-.4,1.3-.58,2.66-.53,4.02v14h-5.73v-23.69h0Zm46.52-6.91c3.6,0,10.75,1.48,10.75,6.56v3.07h-5.2v-1.65c0-2.13-3.37-3.07-5.55-3.07-5.85,0-10.22,4.37-10.22,10.69,0,6.79,4.96,10.63,10.51,10.63,3.51-.11,6.84-1.6,9.27-4.13l2.48,4.07c-3.16,3.34-7.57,5.2-12.17,5.14-9.39,0-15.95-6.67-15.95-15.65s6.44-15.65,16.07-15.65h0Zm14.57,6.91c.08-.63-.36-1.22-1-1.3-.1-.01-.2-.01-.3,0h-2.42v-4.9h5.61c2.72,0,3.84,1.12,3.84,3.66v14.18c0,4.13.83,7.44,5.55,7.44,6.14,0,9.75-5.37,9.75-11.28v-14h5.73v23.69c-.08.63.36,1.22.99,1.3.1.01.2.01.3,0h2.42v4.9h-5.49c-2.54,0-3.78-1.18-3.78-3.31v-1.12c0-.95.06-1.71.06-1.71h-.12c-2.01,4.24-6.3,6.91-10.99,6.85-6.73,0-10.16-3.54-10.16-11.46v-12.94h0Zm33.17,0c.08-.63-.36-1.22-1-1.3-.1-.01-.2-.01-.3,0h-2.42v-4.9h5.43c2.6,0,3.84,1.06,3.84,3.49v1.89c0,.69-.04,1.38-.12,2.07h.12c1.42-4.37,4.84-7.8,9.45-7.8.51,0,1.03.04,1.54.12v5.67c-.56-.12-1.14-.18-1.71-.18-3.66,0-7.03,2.6-8.39,7.03-.5,1.75-.74,3.56-.71,5.38v12.23h-5.73v-23.69Zm18.76,15.3s3.54,4.43,9.04,4.43c2.78,0,5.2-1.24,5.2-3.84,0-5.37-16.3-4.78-16.3-14.41,0-5.73,5.02-8.39,11.11-8.39,3.6,0,9.8,1.24,9.8,5.79v2.84h-5.14v-1.48c0-1.77-2.66-2.54-4.49-2.54-3.37,0-5.55,1.18-5.55,3.54,0,5.67,16.3,4.43,16.3,14.41,0,5.32-4.73,8.74-10.99,8.74-4.56.11-8.93-1.82-11.93-5.26l2.95-3.84Zm36.83-22.21c8.92,0,16.12,6.56,16.12,15.59s-7.21,15.71-16.12,15.71-16.07-6.61-16.07-15.71,7.15-15.59,16.07-15.59h0Zm0,26.34c5.67,0,10.28-4.49,10.28-10.75.21-5.66-4.22-10.42-9.88-10.62-.13,0-.27,0-.4,0-5.61,0-10.22,4.43-10.22,10.63s4.61,10.75,10.22,10.75Zm19.17-4.13s3.54,4.43,9.04,4.43c2.78,0,5.2-1.24,5.2-3.84,0-5.37-16.3-4.78-16.3-14.41,0-5.73,5.02-8.39,11.1-8.39,3.6,0,9.8,1.24,9.8,5.79v2.84h-5.14v-1.48c0-1.77-2.66-2.54-4.49-2.54-3.37,0-5.55,1.18-5.55,3.54,0,5.67,16.3,4.43,16.3,14.41,0,5.32-4.72,8.74-10.99,8.74-4.56.11-8.93-1.82-11.93-5.26l2.95-3.84Z" style="stroke-width:0px;"/></svg>