<?xml version="1.0" encoding="UTF-8" standalone="no"?>
<svg id="a" viewBox="0 0 32 32" version="1.1" sodipodi:docname="concursos-brasil.svg" width="32" height="32" inkscape:version="1.4-beta2 (9aaf4f34, 2024-07-30)" xmlns:inkscape="http://www.inkscape.org/namespaces/inkscape" xmlns:sodipodi="http://sodipodi.sourceforge.net/DTD/sodipodi-0.dtd" xmlns="http://www.w3.org/2000/svg" xmlns:svg="http://www.w3.org/2000/svg">
  <defs id="defs11" />
  <sodipodi:namedview id="namedview11" pagecolor="#ffffff" bordercolor="#000000" borderopacity="0.25" inkscape:showpageshadow="2" inkscape:pageopacity="0.0" inkscape:pagecheckerboard="0" inkscape:deskcolor="#d1d1d1" inkscape:zoom="0.53242855" inkscape:cx="176.54951" inkscape:cy="119.26483" inkscape:window-width="1440" inkscape:window-height="790" inkscape:window-x="0" inkscape:window-y="0" inkscape:window-maximized="1" inkscape:current-layer="a" />
  <g id="g11" transform="matrix(0.39992821,0,0,0.39992821,5.5794721e-4,0.00275051)">
    <path d="M 44.39,35.77 24.35,50.48 32.18,32.95 51.35,22.05 Z" style="fill-rule:evenodd;stroke-width:0px" id="path1" />
    <path d="M 47.95,21.34 30.51,30.4 24.3,50.06 29.25,28.7 48.38,17.07 47.96,21.34 Z" style="fill-rule:evenodd;stroke-width:0px" id="path2" />
    <path d="M 42.3,18.25 26.08,26.98 24.14,49.46 23.22,25.42 42.66,13.84 42.3,18.26 Z m 2.66,18.32 -20.61,13.9 19.14,-1.45 16.73,-14.37 z" style="fill-rule:evenodd;stroke-width:0px" id="path3" />
    <path d="M 59.74,38.1 45.33,51.46 24.73,50.68 46.5,53.23 63.9,39.15 Z" style="fill-rule:evenodd;stroke-width:0px" id="path4" />
    <path d="M 60.74,44.45 47.05,56.77 25.23,51.01 47.55,59.98 65.01,45.59 60.73,44.44 Z" style="fill-rule:evenodd;stroke-width:0px" id="path5" />
    <path d="M 3.5,55.23 C -5.43,35.77 3.54,12.94 23.54,4.25 29.13,1.82 35.2,0.68 41.3,0.92 36.72,1.07 32.21,2.09 28.01,3.92 10.02,11.74 1.95,32.27 9.98,49.77 18.01,67.27 39.09,75.13 57.08,67.31 73.71,60.08 81.86,41.98 76.64,25.45 84.31,44.53 75.29,66.29 55.88,74.73 35.89,83.42 12.44,74.69 3.51,55.22 v 0 z" style="fill-rule:evenodd;stroke-width:0px" id="path6" />
    <path d="M 46.14,3.55 C 28.2,1.84 12.27,15 10.56,32.95 c -0.48,5 0.21,10.04 2,14.73 -4.63,-15.53 4.2,-31.88 19.73,-36.51 15.53,-4.63 31.88,4.2 36.51,19.73 4.63,15.53 -4.2,31.88 -19.73,36.51 -2.46,0.73 -5.01,1.14 -7.58,1.21 18,0.85 33.28,-13.05 34.13,-31.05 C 76.44,20.18 63.47,5.21 46.14,3.55 Z" style="fill-rule:evenodd;stroke-width:0px" id="path7" />
    <path d="M 3.48,56.3 C -5.52,36.13 3.53,12.47 23.71,3.47 29.33,0.96 35.45,-0.21 41.6,0.03 21.75,0.72 6.22,17.38 6.91,37.23 7.6,57.08 24.26,72.62 44.11,71.93 63.96,71.24 79.5,54.58 78.81,34.73 78.7,31.58 78.18,28.46 77.26,25.45 85.3,46.02 75.13,69.21 54.56,77.25 34.67,85.02 12.2,75.8 3.49,56.3 Z" style="fill-rule:evenodd;stroke-width:0px" id="path8" />
    <path d="M 46.7,1.8 C 28.31,0.05 11.98,13.54 10.24,31.93 9.75,37.05 10.45,42.22 12.29,47.02 7.54,31.1 16.59,14.35 32.51,9.6 48.43,4.85 65.18,13.9 69.93,29.82 74.68,45.74 65.63,62.49 49.71,67.24 47.19,67.99 44.58,68.41 41.95,68.48 60.4,69.34 76.05,55.08 76.91,36.64 77.74,18.83 64.46,3.5 46.71,1.79 Z" style="fill-rule:evenodd;stroke-width:0px" id="path9" />
  </g>
</svg>
