<svg id="Camada_1" data-name="Camada 1" xmlns="http://www.w3.org/2000/svg" viewBox="0 0 200 80"><path d="M7.55,18.36C2.76,20.12,0,24.37,0,30,.05,37.5,4.73,42.12,12.38,42.12a12,12,0,0,0,6.17-1.38c3.24-1.65,3.67-2.29,2.44-4.09l-.85-1.38-1.91,1.27c-6.17,4.2-14,.37-14-6.8,0-2.61,2.07-6.22,4.25-7.34C12,20.54,17,21.55,17,24.1c0,.8.37,1,1.86,1,1.75,0,1.86-.1,1.86-1.91a6.84,6.84,0,0,0-.53-2.82C19,18.05,11.64,16.93,7.55,18.36Z"/><path d="M30,18.26c-2.29.64-5.42,3.4-6.75,5.95a13.75,13.75,0,0,0-.05,11.32,13.94,13.94,0,0,0,6.37,5.9c2.29,1,7.71.9,10.16-.16a12.35,12.35,0,0,0,0-22.75C37.63,17.62,32.63,17.46,30,18.26Zm9.19,4.57a9.13,9.13,0,0,1,2.4,11.43,7.46,7.46,0,0,1-7.39,4c-5-.42-8-4-7.55-9.19.43-5,3.77-7.92,8.56-7.55A9,9,0,0,1,39.22,22.83Z"/><path d="M59.26,18.42a10.62,10.62,0,0,0-3.08,2.39c-1.28,1.54-1.44,1.59-1.44.58,0-2.49-.9-3.19-4.25-3.19H47.3v1.86c0,1.6.16,1.86,1.28,1.86a1.73,1.73,0,0,1,1.59.86,93.29,93.29,0,0,1,.32,9.83v9h4.15l.21-7.39c.16-8,.48-8.93,3.77-11.37,2.08-1.6,6-1.54,7.34.1.9,1.07,1,2.13,1,8.93,0,4.26.26,8.14.53,8.72.48.8,1.17,1,3.72,1h3.19V39.73c0-1.59-.16-1.86-1.28-1.86H71.86l-.22-7.6c-.21-8.4-.79-10.36-3.61-11.8C66.12,17.51,61.44,17.46,59.26,18.42Z"/><path d="M81.58,18.68C76.8,20.86,74.67,24.32,74.67,30c0,3.56.16,4.31,1.6,6.59A11.92,11.92,0,0,0,86.9,42.12c3.77,0,5.58-.53,8.08-2.44,1.65-1.28,1.7-1.33.85-2.82l-.91-1.49-2.87,1.49c-3.34,1.81-6,2-8.61.53-2.87-1.49-4.25-3.93-4.25-7.44s1.22-5.9,3.83-7.49c3.24-2,8.4-1,8.4,1.64,0,.85.37,1,2.12,1,2,0,2.13-.1,2.13-1.64s.16-1.6,1.49-1.44l1.43.16L98.86,30c.21,6.86.42,8,1.38,9.3,1.54,2.08,3.19,2.82,6.48,2.82a8.4,8.4,0,0,0,7-2.87L115,37.87l.54,1.7c.58,1.7.69,1.75,3.93,1.91l3.29.16V39.73c0-1.65-.16-1.86-1.32-1.86h-1.33V18.2h-4.68l-.21,7.39c-.16,6.49-.32,7.6-1.28,8.88-2.71,3.67-7,4.78-9.35,2.44-1.17-1.11-1.23-1.7-1.38-9.3-.11-4.57-.43-8.34-.75-8.71s-1.81-.7-3.67-.7H95.67v1.71c0,1.48-.11,1.59-.59.79C93.44,17.89,85.73,16.77,81.58,18.68Z"/><path d="M133.94,18.63a9.85,9.85,0,0,0-3.19,3l-1.33,2.07-.16-2.34a5,5,0,0,0-.8-2.71,10.66,10.66,0,0,0-3.4-.43h-2.82v1.86c0,1.65.16,1.86,1.33,1.86h1.33V41.59h4.78V35.11c0-5.37.16-6.86,1.07-8.67a7,7,0,0,1,5.84-4.09c1.54-.05,1.6-.16,1.6-2.39,0-2-.16-2.29-1.17-2.29A8.43,8.43,0,0,0,133.94,18.63Z"/><path d="M142.07,18.42a7.4,7.4,0,0,0-3.88,5.68c0,1.7,1.91,4.57,3.72,5.58.74.43,2.92,1.44,4.89,2.29,4,1.75,4.94,2.92,4,4.84-1.27,2.55-6.16,2.39-9.35-.27l-1.54-1.33-1.12,1.38c-1.06,1.39-1.11,1.49-.21,2.5,2.55,2.87,9.46,4,13.29,2.13A6.28,6.28,0,0,0,155,32.61c-.95-1.81-2.39-2.77-6.69-4.52-4-1.65-5.32-2.71-5.32-4.3s1.33-2.56,4-2.56c2.39,0,4,.8,4,2.08,0,.48.64.74,1.92.74,1.8,0,1.86-.05,1.7-2-.27-2.92-2.18-4.09-7-4.25A13.93,13.93,0,0,0,142.07,18.42Z"/><path d="M164.34,18.36a11.76,11.76,0,0,0-7.76,11.54c0,7.44,4.94,12.22,12.65,12.22,7,0,12-4.46,12.43-11.21a11.76,11.76,0,0,0-7.07-12.23A17.34,17.34,0,0,0,164.34,18.36Zm9.35,4.47c1.7,1.22,3.83,5.15,3.83,7.07,0,2.12-2.23,6-4.2,7.28a7.93,7.93,0,0,1-11.06-2.82c-2.39-4.14-.95-9.78,3.09-12A9.06,9.06,0,0,1,173.69,22.83Z"/><path d="M186.77,18.42a6.34,6.34,0,0,0-3.94,5.68c0,3,2.18,5.16,7.66,7.6,2.81,1.28,4.67,2.45,4.83,3,1.33,4.1-4.41,5.27-9.3,1.92l-1.81-1.28-1,1.22a4.18,4.18,0,0,0-1,1.76c0,.32,1.28,1.27,2.82,2.18a10.09,10.09,0,0,0,6.11,1.59c5.53,0,8.77-2.5,8.77-6.64,0-3.24-1.38-4.63-7.44-7.5-5.21-2.44-6.33-3.72-4.68-5.52,1.81-2,7.18-1.6,7.18.58,0,.85.37,1,2.12,1,1.92,0,2.13-.11,2.13-1.38a4.32,4.32,0,0,0-2.92-4.25C194.1,17.46,188.94,17.46,186.77,18.42Z"/><path d="M132.87,50.09c0,.59.37,1.07.8,1.07.64,0,.8,1.49.9,9.14l.16,9.19,4.47.16a18.33,18.33,0,0,0,6-.48,5.69,5.69,0,0,0,3.09-5c0-1.76-1.28-4.31-2.4-4.73-.79-.27-.74-.48.22-1.7a5.83,5.83,0,0,0,1.11-3.67c0-1.91-.26-2.55-1.64-3.67-1.55-1.27-2-1.38-7.18-1.38S132.87,49.08,132.87,50.09ZM143.4,52a2.82,2.82,0,0,1,1.17,2.6c0,2.34-1.55,3.46-4.89,3.46h-2.56V51.16h2.56A7.68,7.68,0,0,1,143.4,52Zm1.32,9.88a3,3,0,0,1,.7,2.71c-.59,2.45-1.76,3.09-5,2.93l-3-.16-.16-3.62-.16-3.61,3.3.16C143.24,60.46,143.82,60.67,144.72,61.89Z"/><path d="M188.15,50.36c0,1,.26,1.33,1.06,1.33s1.06-.37,1.06-1.33S190,49,189.21,49,188.15,49.4,188.15,50.36Z"/><path d="M192.93,50c0,.64.37,1.12.8,1.12.64,0,.8,1.49.9,9.14l.16,9.19,2.29.16c1.8.16,2.23,0,2.23-.69a1.4,1.4,0,0,0-1.06-1.17c-1-.26-1.07-.79-1.17-9.4l-.16-9.09-2-.16C193.2,49,192.93,49.14,192.93,50Z"/><path d="M149.35,55.83a1.64,1.64,0,0,0,.8,1.39c.63.21.79,1.43.79,6.43v6.11h1.33c1.28,0,1.33-.16,1.33-3.14a36.16,36.16,0,0,1,.32-4.78c.48-2.18,2.5-4.31,4.2-4.31,1.06,0,1.33-.26,1.33-1.32s-.27-1.33-1.28-1.33c-1.22,0-4,2.28-4.09,3.4-.05.32-.21-.27-.43-1.28-.26-1.7-.47-1.86-2.28-2S149.35,55,149.35,55.83Z"/><path d="M161.47,55.46c-1.17.64-1.28,3.14-.16,3.14a3.68,3.68,0,0,0,1.91-1.12,2.55,2.55,0,0,1,2.76-.8c2,.43,2.34.7,2.77,2.56.37,1.38.26,1.48-1.38,1.48-4.47,0-7.71,1.86-8.24,4.63-.27,1.43,0,2,1.27,3.35a4.74,4.74,0,0,0,6.91.26c1.54-1.27,1.6-1.27,1.86-.26.43,1.54,4.1,1.54,4.1,0,0-.59-.38-1.07-.8-1.07-.64,0-.8-.74-.8-3.61,0-4.47-.74-7.28-2.28-8.35C168.06,54.77,162.9,54.61,161.47,55.46Zm7.28,8.82c-.8,3.3-4.36,5-6.33,3s.06-4.46,4-4.46C169.12,62.85,169.12,62.85,168.75,64.28Z"/><path d="M175.5,55.94c-1.44,1.38-1.54,4.25-.21,5.47a23.77,23.77,0,0,0,4,2.24c3,1.43,3.72,2.55,2.39,3.88-1,1-3.88.74-5.36-.43L174.91,66l-.58,1.11c-.48.91-.32,1.22,1.17,2.13,3,1.8,8.24,1,9.14-1.33,1.06-2.82-.11-4.47-4.62-6.64-3.25-1.6-4-3.41-1.76-4.26,1.49-.53,4,.11,4,1.07,0,.26.48.53,1.06.53,1.39,0,1.44-1.65.11-2.82C182,54.45,177,54.56,175.5,55.94Z"/><path d="M186,55.83a1.64,1.64,0,0,0,.8,1.39c.64.21.8,1.38.8,5.58a39.64,39.64,0,0,0,.32,6.11c.21.58,1,.85,2.39.85,1.7,0,2.07-.21,2.07-1a1.47,1.47,0,0,0-1.06-1.28c-1-.21-1.07-.79-1.17-6.27L190,55.14,188,55C186.34,54.82,186,55,186,55.83Z"/><path d="M113.74,55.89a1.12,1.12,0,0,0,.53.85c.32.16.53,1.86.53,3.77s.21,3.4.53,3.4.54-.95.54-2.12c0-2.77.95-4.73,2.49-5.16,1.81-.42,2.18.21,2.39,3.83.16,2.87.27,3.19,1.39,3.35.63.1,1.17-.06,1.17-.38a.55.55,0,0,0-.54-.58c-.26,0-.53-1.22-.53-2.71a11.62,11.62,0,0,0-.53-3.72c-.69-1.28-3.51-1.38-4.89-.11-.9.8-.95.8-.95,0a1,1,0,0,0-1.07-.9C114.22,55.41,113.74,55.62,113.74,55.89Z"/><path d="M125.17,56.74a4.16,4.16,0,0,0,2.71,7.17c2.49,0,3.66-.69,4.46-2.65a4.41,4.41,0,0,0-1.65-5.32A4.82,4.82,0,0,0,125.17,56.74Zm5.15.64c1.91,1.75.59,5.47-2,5.47a3.09,3.09,0,1,1,2-5.47Z"/></svg>