<?xml version="1.0" encoding="UTF-8"?><svg id="a" xmlns="http://www.w3.org/2000/svg" viewBox="0 0 243.03 80"><defs><style>.b{stroke-width:0px;}</style></defs><path class="b" d="m0,40v30h120.02V10H0v30Zm16.16-13.65c.92.39,1.29.69,1.22,1.02-.08.19-.15.38-.19.58-.43-.04-.84-.17-1.22-.39-1.73-.77-3.75-.45-5.15.83-.81.76-1.23,1.85-1.15,2.96-.16,2.31.44,3.73,2.02,4.68,1.33.75,2.93.85,4.35.27.69-.33.92-.29,1.15,0,.4.67.19.86-1.45,1.32-2.83.93-5.92-.32-7.29-2.96-1.55-2.85-.5-6.41,2.34-7.96.33-.18.69-.33,1.05-.45,1.39-.57,2.96-.54,4.33.1Zm12.03.1c2.97,1.29,4.34,4.75,3.05,7.72-.06.14-.13.28-.2.42-1.27,2.86-4.62,4.14-7.48,2.87-.5-.22-.96-.51-1.37-.86-1.43-1.2-2.2-3-2.08-4.86-.15-3.09,2.24-5.71,5.33-5.86.95-.05,1.9.15,2.75.58Zm28.63,0c.49.23.85.56.79.77s-.4.35-2.87,0c-2.34-.52-4.66.95-5.18,3.29-.09.39-.12.79-.1,1.19-.16,2.57,1.79,4.78,4.35,4.94.05,0,.1,0,.16,0,1.88,0,2.08-.23,2.08-2.35s0-1.94,1-1.94h.98v2.31c0,2.21,0,2.33-.89,2.7-1.06.27-2.14.4-3.23.4-1.22.18-2.47-.07-3.52-.73-2.82-1.82-3.63-5.58-1.81-8.4.72-1.11,1.78-1.96,3.03-2.42,1.72-.5,3.56-.4,5.21.29v-.06Zm29.81-.19c1.08.46,1.15.56.69,1.02-.24.38-.73.49-1.11.25-.04-.02-.08-.05-.11-.08-.81-.48-1.82-.48-2.64,0-.89.89-.43,1.88,1.71,3.56.87.64,1.65,1.4,2.31,2.26.34,1.11.23,2.3-.29,3.33-1,1.42-4.39,1.79-5.97.6-.5-.36-.53-.49-.17-.95s.52-.46,1.39,0c.92.65,2.15.65,3.06,0,1.02-.98.63-1.85-1.81-4.12-2-1.81-2.43-2.35-2.43-3.2,0-.64.23-1.25.62-1.75,1.28-1.42,2.79-1.65,4.74-.86v-.06Zm9.89,0c1.09.46,1.15.56.69,1.02-.24.38-.73.49-1.11.25-.04-.02-.08-.05-.11-.08-.78-.5-1.78-.47-2.54.06-.95.73-.39,1.94,1.79,3.65,3.13,2.43,3.39,4.86.69,6.27-1.98,1.02-5.6.17-4.86-1.15.29-.56.39-.56,1.22-.1,1.85.96,3.65.43,3.65-1.12,0-.73-.5-1.39-2.31-3.07-2.02-1.85-2.31-2.27-2.31-3.26.02-2.35,2.53-3.52,5.2-2.41v-.06Zm11.63-.11c1.62.59,2.94,1.82,3.65,3.4.24.79.37,1.61.36,2.43.09,1.65-.57,3.26-1.79,4.37-2.3,2.22-5.96,2.15-8.18-.15-1.09-1.13-1.68-2.66-1.62-4.24-.19-3.18,2.24-5.91,5.42-6.1.73-.04,1.46.05,2.15.28Zm-68.74,4.35l3.29,4.36.1-4.36c.07-4.08.13-4.35.73-4.35s.66.27.66,5.77,0,5.77-.56,5.77-1.87-1.68-3.89-4.35l-3.28-4.39-.1,4.39c-.07,4.08-.13,4.35-.73,4.35s-.66-.27-.66-5.77,0-5.77.58-5.77c.33.04,1.87,1.79,3.85,4.35Zm27.3-3.99c1.75.79,2.04,3.37.6,4.98l-.92,1.06,1.41,2.43q1.42,2.43.69,2.7c-.73.27-1.22,0-2.56-2.7-.79-1.52-1.13-1.88-1.79-1.88s-.83.07-.83,2.31,0,2.31-.83,2.31h-.81v-11.57h2.14c.98-.02,1.96.1,2.9.36Zm11.04.19c-.1.5-.53.63-2.17.69l-2.04.11v3.65h1.97c1.75,0,1.98.07,1.98.67s-.23.66-1.98.66h-1.97v3.88l2.37.1c1.98,0,2.43.19,2.5.66s-.23.6-3.2.6h-3.33v-11.56h3c2.67,0,2.96.07,2.88.56h-.01Zm-32.25,15.8c.46.17.9.38,1.31.63-.05.2-.12.4-.19.6-.16.46-.33.46-1.39,0-1.78-.84-3.9-.42-5.24,1.02-.87.77-1.28,1.92-1.09,3.06,0,2.25.77,3.77,2.27,4.56,1.31.6,2.82.64,4.16.1.73-.33.92-.3,1.15.06.67,1.06-2.89,1.94-5.18,1.35-3.15-.88-5-4.15-4.12-7.3.46-1.66,1.62-3.03,3.17-3.76,1.56-.93,3.48-1.04,5.14-.3Zm21.96.1c2.91,1.38,4.24,4.8,3.01,7.79-1.07,2.95-4.33,4.48-7.28,3.41-.62-.23-1.2-.56-1.71-.98-1.43-1.19-2.21-3-2.08-4.86-.18-3.09,2.18-5.74,5.26-5.92.96-.06,1.93.14,2.79.56Zm-54.76,4.06l3.29,4.35.1-4.35c.07-4.08.13-4.35.73-4.35s.66.27.66,5.77,0,5.77-.56,5.77-1.88-1.69-3.89-4.35l-3.3-4.36-.11,4.36c0,4.08-.12,4.35-.72,4.35s-.67-.27-.67-5.77,0-5.77.6-5.77c.34.04,1.9,1.77,3.88,4.35Zm17.8,1c2.5,6.68,2.43,6.26,1.29,6.08-.79-.1-.98-.33-1.42-1.68l-.49-1.58-2.28.1-2.27.1-.6,1.48c-.39,1.02-.79,1.52-1.29,1.58s-.69,0-.69-.1,4.26-10.68,4.52-11.14c.07-.13.4-.23.69-.23s1.06,1.39,2.54,5.39Zm23.24.43v5.77h-1.64v-11.54h1.64v5.77Zm27.21-1.39l3.3,4.35.1-4.39c0-4.08.13-4.35.72-4.35s.67.27.67,5.77,0,5.77-.6,5.77c-.33,0-1.85-1.69-3.86-4.35l-3.29-4.33-.1,4.33c-.12,4.08-.12,4.35-.73,4.35s-.61-.27-.61-5.77,0-5.77.6-5.74c.28,0,1.83,1.74,3.8,4.35Zm17.47-.19c.86,2.33,1.85,4.86,2.19,5.76l.62,1.59h-.96c-.85,0-1.02-.17-1.51-1.65l-.57-1.65h-4.48l-.58,1.6c-.46,1.32-.73,1.65-1.36,1.65h-.75l.66-1.65c2.94-7.39,4.09-9.85,4.62-9.85s.92,1.03,2.14,4.2Zm9.4.92v5.1h2.31c2.08,0,2.31.07,2.31.66s-.23.67-3.13.67h-3.13v-11.54h1.65v5.12Z"/><path class="b" d="m24.07,27.57c-1.31,1.09-2.14,2.65-2.31,4.35.16,1.61.87,3.11,2.02,4.25,1.89,1.03,4.26.39,5.38-1.45.66-1.83.66-3.83,0-5.66-1.05-1.75-3.26-2.4-5.09-1.49Z"/><path class="b" d="m104.33,27.76c-2.24,1.39-2.64,5.54-.69,7.79,1.52,1.48,3.96,1.45,5.45-.07.25-.25.46-.54.63-.85.7-1.75.7-3.7,0-5.44-.94-1.84-3.2-2.57-5.04-1.62-.12.06-.23.13-.35.2Z"/><path class="b" d="m63.3,29.61c0,2.02,0,2.15.77,2.15,1.34,0,2.43-1.09,2.43-2.43,0-.35-.07-.69-.22-1.01-.27-.72-.53-.85-1.65-.85h-1.32v2.14Z"/><path class="b" d="m62.48,44.39c-1.43,1.51-1.83,3.72-1.02,5.64.69,1.85,1.48,2.5,3.1,2.73,2.67.36,4.36-1.41,4.36-4.68s-1.46-4.79-4.16-4.79c-.89,0-1.73.4-2.28,1.09Z"/><path class="b" d="m26.73,46.79c-.27.7-.5,1.41-.69,2.14,0,.17.75.3,1.68.3,1.22,0,1.65-.13,1.52-.43s-.43-1.22-.75-2.15c-.17-.62-.45-1.2-.83-1.71-.41.56-.72,1.18-.92,1.85Z"/><path class="b" d="m95.19,46.73c-.49,1.22-.89,2.24-.89,2.33.55.17,1.12.23,1.69.17.92,0,1.65-.13,1.65-.3-.21-.79-.47-1.57-.77-2.33l-.79-2.05-.9,2.19Z"/><path class="b" d="m122.99,32.09v22.09h.77l1.97.1c.67,0,1.22,0,1.22-.1s.66-.17,1.45-.11c1.32.13,1.65,0,3.56-1.48,8.85-6.89,15.2-8.87,22.55-7.02,5.05,1.75,9.88,4.08,14.4,6.93,2.27,1.52,2.66,1.69,4.39,1.69s1.87,0,1.68-.83c-.13-.46-.19-5.93-.17-12.15.02-6.22,0-11.57,0-11.93s-.13-3.89-.27-7.85c-.19-6.43-.16-7.16.3-7.16.35.08.62.37.66.73l.13.75.06-.75c0-.66.21-.73,1.94-.73.89,0,1.77-.06,2.65-.19l.72-.19v18.23h4.02l-.23-8.91-.23-8.91h6l.07,4.52v14.68c-.1,6.66,0,10.16.19,10.16.4,1.07.59,2.21.56,3.35.1,1.88.3,4.25.44,5.27l.19,1.92h3.89c1.6.04,3.2-.07,4.79-.33.66-.27,1.02-.23,1.41.1s2.43.52,9.27.66c7.45.17,8.51.13,7.29-.23-3.77-1.51-7.42-3.28-10.94-5.31-2.21-1.39-7.23-5.24-7.23-5.57,2.56-.26,5.13-.33,7.69-.21,4.18.07,13.78.07,21.26.07h13.58V10h-120.04v22.09Z"/><path class="b" d="m181.04,33.4c0,.4,2.11.4,3.3,0,.62-.19.29-.26-1.22-.29-1.22-.04-2.09.1-2.09.29Z"/><path class="b" d="m183.1,34.96l-1.75.13v3.56c0,1.94.11,6.26.23,9.53l.21,6h3.2v-9.72c0-5.33,0-9.72-.07-9.66s-.89.09-1.81.16Z"/><path class="b" d="m184.69,58.83c-30.01.49-56.09.92-57.93.92h-3.4v10.22h119.66v-12.15h-1.88c-1.06.05-26.48.47-56.44,1.01Z"/></svg>