<?xml version="1.0" encoding="UTF-8" standalone="no"?>
<svg id="a" viewBox="0 0 32 32" version="1.1" sodipodi:docname="congresso-nacional.svg" width="32" height="32" inkscape:version="1.4-beta2 (9aaf4f34, 2024-07-30)" xmlns:inkscape="http://www.inkscape.org/namespaces/inkscape" xmlns:sodipodi="http://sodipodi.sourceforge.net/DTD/sodipodi-0.dtd" xmlns="http://www.w3.org/2000/svg" xmlns:svg="http://www.w3.org/2000/svg">
  <sodipodi:namedview id="namedview11" pagecolor="#ffffff" bordercolor="#000000" borderopacity="0.25" inkscape:showpageshadow="2" inkscape:pageopacity="0.0" inkscape:pagecheckerboard="0" inkscape:deskcolor="#d1d1d1" inkscape:zoom="1.8399917" inkscape:cx="48.913264" inkscape:cy="-20.380527" inkscape:window-width="1440" inkscape:window-height="790" inkscape:window-x="0" inkscape:window-y="0" inkscape:window-maximized="1" inkscape:current-layer="a" />
  <defs id="defs1">
    <style id="style1">.b{stroke-width:0px;}</style>
  </defs>
  <g id="g11" transform="matrix(0.26657781,0,0,0.26657781,-32.783739,5.3408863)">
    <path class="b" d="m 122.99,32.09 v 22.09 h 0.77 l 1.97,0.1 c 0.67,0 1.22,0 1.22,-0.1 0,-0.1 0.66,-0.17 1.45,-0.11 1.32,0.13 1.65,0 3.56,-1.48 8.85,-6.89 15.2,-8.87 22.55,-7.02 5.05,1.75 9.88,4.08 14.4,6.93 2.27,1.52 2.66,1.69 4.39,1.69 1.73,0 1.87,0 1.68,-0.83 -0.13,-0.46 -0.19,-5.93 -0.17,-12.15 0.02,-6.22 0,-11.57 0,-11.93 0,-0.36 -0.13,-3.89 -0.27,-7.85 -0.19,-6.43 -0.16,-7.16 0.3,-7.16 0.35,0.08 0.62,0.37 0.66,0.73 l 0.13,0.75 0.06,-0.75 c 0,-0.66 0.21,-0.73 1.94,-0.73 0.89,0 1.77,-0.06 2.65,-0.19 L 181,13.89 v 18.23 h 4.02 l -0.23,-8.91 -0.23,-8.91 h 6 l 0.07,4.52 V 33.5 c -0.1,6.66 0,10.16 0.19,10.16 0.4,1.07 0.59,2.21 0.56,3.35 0.1,1.88 0.3,4.25 0.44,5.27 l 0.19,1.92 h 3.89 c 1.6,0.04 3.2,-0.07 4.79,-0.33 0.66,-0.27 1.02,-0.23 1.41,0.1 0.39,0.33 2.43,0.52 9.27,0.66 7.45,0.17 8.51,0.13 7.29,-0.23 -3.77,-1.51 -7.42,-3.28 -10.94,-5.31 -2.21,-1.39 -7.23,-5.24 -7.23,-5.57 2.56,-0.26 5.13,-0.33 7.69,-0.21 4.18,0.07 13.78,0.07 21.26,0.07 h 13.58 V 10 H 122.98 v 22.09 z" id="path8" />
    <path class="b" d="m 181.04,33.4 c 0,0.4 2.11,0.4 3.3,0 0.62,-0.19 0.29,-0.26 -1.22,-0.29 -1.22,-0.04 -2.09,0.1 -2.09,0.29 z" id="path9" />
    <path class="b" d="m 183.1,34.96 -1.75,0.13 v 3.56 c 0,1.94 0.11,6.26 0.23,9.53 l 0.21,6 h 3.2 v -9.72 c 0,-5.33 0,-9.72 -0.07,-9.66 -0.07,0.06 -0.89,0.09 -1.81,0.16 z" id="path10" />
    <path class="b" d="m 184.69,58.83 c -30.01,0.49 -56.09,0.92 -57.93,0.92 h -3.4 V 69.97 H 243.02 V 57.82 h -1.88 c -1.06,0.05 -26.48,0.47 -56.44,1.01 z" id="path11" />
  </g>
</svg>
