<svg id="Camada_1" data-name="Camada 1" xmlns="http://www.w3.org/2000/svg" viewBox="0 0 200 80"><path d="M0,40V64.69H98.78V15.31H0ZM13.3,28.77c.76.32,1.06.57,1,.84a3.15,3.15,0,0,0-.16.48,2.5,2.5,0,0,1-1-.32,3.93,3.93,0,0,0-4.24.68,3.05,3.05,0,0,0-.95,2.44c-.13,1.9.36,3.07,1.66,3.85a4.13,4.13,0,0,0,3.58.22c.57-.27.76-.24.95,0,.33.55.16.71-1.19,1.09a5,5,0,0,1-6-2.44,4.83,4.83,0,0,1,2.79-6.92A4.44,4.44,0,0,1,13.3,28.77Zm9.9.08a4.83,4.83,0,0,1,2.34,6.7,4.66,4.66,0,0,1-7.28,1.65,4.8,4.8,0,0,1-1.71-4A4.61,4.61,0,0,1,23.2,28.85Zm23.56,0c.4.19.7.46.65.63s-.33.29-2.36,0a3.57,3.57,0,0,0-4.34,3.69,3.83,3.83,0,0,0,3.71,4.07c1.55,0,1.71-.19,1.71-1.93s0-1.6.82-1.6h.81v1.9c0,1.82,0,1.92-.73,2.22a10.86,10.86,0,0,1-2.66.33,4.28,4.28,0,0,1-2.9-.6,5,5,0,0,1,1-8.9A6.44,6.44,0,0,1,46.76,28.9Zm24.53-.16c.89.38.95.46.57.84a.66.66,0,0,1-1,.14,2.13,2.13,0,0,0-2.17,0c-.73.73-.35,1.55,1.41,2.93A9.62,9.62,0,0,1,72,34.46a3.67,3.67,0,0,1-.24,2.74c-.82,1.17-3.61,1.47-4.91.49-.41-.3-.44-.4-.14-.78s.43-.38,1.14,0a2.17,2.17,0,0,0,2.52,0c.84-.81.52-1.52-1.49-3.39-1.65-1.49-2-1.93-2-2.63a2.38,2.38,0,0,1,.51-1.44C68.44,28.28,69.69,28.09,71.29,28.74Zm8.14,0c.9.38.95.46.57.84a.66.66,0,0,1-1,.14,1.88,1.88,0,0,0-2.09.05c-.78.6-.32,1.6,1.47,3,2.58,2,2.79,4,.57,5.16-1.63.84-4.61.14-4-.95.24-.46.32-.46,1-.08,1.52.79,3,.35,3-.92,0-.6-.41-1.14-1.9-2.53-1.66-1.52-1.9-1.87-1.9-2.68C75.17,28.79,77.23,27.82,79.43,28.74ZM89,28.6a5.27,5.27,0,0,1,3,2.8,6.77,6.77,0,0,1,.3,2A4.56,4.56,0,0,1,90.83,37a4.76,4.76,0,0,1-8.06-3.61A4.75,4.75,0,0,1,89,28.6ZM32.43,32.18l2.71,3.59.08-3.59c.06-3.36.11-3.58.6-3.58s.54.22.54,4.75c0,4.34,0,4.75-.46,4.75s-1.54-1.38-3.2-3.58L30,30.91l-.08,3.61c-.06,3.36-.11,3.58-.6,3.58s-.54-.22-.54-4.75c0-4.34,0-4.75.48-4.75C29.53,28.63,30.8,30.07,32.43,32.18ZM54.9,28.9c1.44.65,1.68,2.77.49,4.1l-.76.87,1.16,2c1.17,2,1.17,2,.57,2.22s-1,0-2.11-2.22c-.65-1.25-.93-1.55-1.47-1.55s-.68.06-.68,1.9,0,1.9-.68,1.9h-.67V28.6h1.76A8.06,8.06,0,0,1,54.9,28.9Zm9.09.16c-.08.41-.44.52-1.79.57l-1.68.09v3h1.62c1.44,0,1.63.06,1.63.55s-.19.54-1.63.54H60.52V37l1.95.08c1.63,0,2,.16,2.06.54s-.19.49-2.63.49H59.16V28.6h2.47C63.83,28.6,64.07,28.66,64,29.06Zm-26.54,13a6.51,6.51,0,0,1,1.08.52,3.53,3.53,0,0,1-.16.49c-.13.38-.27.38-1.14,0a3.72,3.72,0,0,0-4.31.84,2.77,2.77,0,0,0-.9,2.52c0,1.85.63,3.1,1.87,3.75a4.33,4.33,0,0,0,3.42.08c.6-.27.76-.25.95.05.55.87-2.38,1.6-4.26,1.11a4.88,4.88,0,0,1-.78-9.11A4.61,4.61,0,0,1,37.45,42.06Zm18.07.08A5,5,0,0,1,58,48.55a4.68,4.68,0,0,1-7.4,2,4.78,4.78,0,0,1-1.71-4A4.61,4.61,0,0,1,55.52,42.14ZM10.45,45.48l2.71,3.58.08-3.58c.06-3.36.11-3.58.6-3.58s.54.22.54,4.75c0,4.34,0,4.75-.46,4.75s-1.55-1.39-3.2-3.58L8,44.23l-.09,3.59c0,3.36-.1,3.58-.59,3.58s-.55-.22-.55-4.75c0-4.34,0-4.75.49-4.75C7.54,41.93,8.82,43.36,10.45,45.48Zm14.65.82c2.06,5.5,2,5.15,1.06,5-.65-.08-.81-.27-1.17-1.38l-.4-1.3-1.88.08-1.87.08L20.35,50c-.32.84-.65,1.25-1.06,1.3s-.57,0-.57-.08,3.51-8.79,3.72-9.17c.06-.11.33-.19.57-.19S23.88,43,25.1,46.3Zm19.13.35V51.4H42.88V41.9h1.35Zm22.39-1.14,2.72,3.58.08-3.61c0-3.36.11-3.58.59-3.58s.55.22.55,4.75c0,4.34,0,4.75-.49,4.75-.27,0-1.52-1.39-3.18-3.58l-2.71-3.56-.08,3.56C64,51.18,64,51.4,63.5,51.4S63,51.18,63,46.65c0-4.34,0-4.75.49-4.72C63.72,41.93,65,43.36,66.62,45.51ZM81,45.35c.71,1.92,1.52,4,1.8,4.74l.51,1.31h-.79c-.7,0-.84-.14-1.24-1.36l-.47-1.36H77.12L76.64,50c-.38,1.09-.6,1.36-1.12,1.36H74.9L75.44,50c2.42-6.08,3.37-8.11,3.8-8.11S80,42.74,81,45.35Zm7.74.76v4.2h1.9c1.71,0,1.9.06,1.9.54s-.19.55-2.58.55H87.38V41.9h1.36Z"/><path d="M19.81,29.77a5.36,5.36,0,0,0-1.9,3.58,5.7,5.7,0,0,0,1.66,3.5A3.33,3.33,0,0,0,24,35.66,6.87,6.87,0,0,0,24,31,3.22,3.22,0,0,0,19.81,29.77Z"/><path d="M85.86,29.93c-1.84,1.14-2.17,4.56-.57,6.41a3.17,3.17,0,0,0,5-.76,6,6,0,0,0,0-4.48A3.08,3.08,0,0,0,85.86,29.93Z"/><path d="M52.1,31.45c0,1.66,0,1.77.63,1.77a2,2,0,0,0,1.82-2.83c-.22-.59-.44-.7-1.36-.7H52.1Z"/><path d="M51.42,43.61a4.3,4.3,0,0,0-.84,4.64c.57,1.52,1.22,2.06,2.55,2.25,2.2.3,3.59-1.16,3.59-3.85s-1.2-3.94-3.42-3.94A2.37,2.37,0,0,0,51.42,43.61Z"/><path d="M22,45.59a15.47,15.47,0,0,0-.57,1.76c0,.14.62.25,1.38.25,1,0,1.36-.11,1.25-.35s-.35-1-.62-1.77a4.48,4.48,0,0,0-.68-1.41A5.16,5.16,0,0,0,22,45.59Z"/><path d="M78.34,45.54c-.4,1-.73,1.84-.73,1.92A3.45,3.45,0,0,0,79,47.6c.76,0,1.36-.11,1.36-.25a18.22,18.22,0,0,0-.63-1.92l-.65-1.69Z"/><path d="M101.22,33.49V51.67l.63,0,1.62.08c.55,0,1,0,1-.08s.54-.14,1.19-.09c1.09.11,1.36,0,2.93-1.22,7.28-5.67,12.51-7.3,18.56-5.78A57.92,57.92,0,0,1,139,50.28c1.87,1.25,2.19,1.39,3.61,1.39s1.54,0,1.38-.68c-.11-.38-.16-4.88-.14-10s0-9.52,0-9.82-.11-3.2-.22-6.46c-.16-5.29-.13-5.89.25-5.89a.69.69,0,0,1,.54.6l.11.62.05-.62c0-.54.17-.6,1.6-.6a13.42,13.42,0,0,0,2.18-.16l.59-.16v15h3.31l-.19-7.33-.19-7.33h4.94l.06,3.72c0,2.06,0,7.49,0,12.08-.08,5.48,0,8.36.16,8.36a7.29,7.29,0,0,1,.46,2.76c.08,1.55.25,3.5.36,4.34l.16,1.58h3.2a21.86,21.86,0,0,0,3.94-.27c.54-.22.84-.19,1.16.08s2,.43,7.63.54c6.13.14,7,.11,6-.19a69.53,69.53,0,0,1-9-4.37c-1.82-1.14-5.95-4.31-5.95-4.58a43.11,43.11,0,0,1,6.33-.17c3.44.06,11.34.06,17.5.06l11.18,0V15.31H101.22Z"/><path d="M149,34.57c0,.33,1.74.33,2.72,0,.51-.16.24-.21-1-.24C149.72,34.3,149,34.41,149,34.57Z"/><path d="M150.69,35.85l-1.44.11v2.93c0,1.6.09,5.15.19,7.84l.17,4.94h2.63v-8c0-4.39,0-8-.06-7.95S151.45,35.79,150.69,35.85Z"/><path d="M152,55.5c-24.7.4-46.16.76-47.68.76l-2.8,0v8.41H200v-10l-1.55,0C197.58,54.71,176.66,55.06,152,55.5Z"/></svg>