<svg data-name="Camada 1" width="32" height="32" xmlns="http://www.w3.org/2000/svg">
  <path d="M19.39 10.429c.185.434.484.512.955.357a7.03 7.03 0 0 1 1.661-.407c.648-.053.989.302 1.135.975l-1.57.742a7.154 7.154 0 0 0-4.152 5.227 10.56 10.56 0 0 0-.111 3.998c.368 2.214.997 4.355 2.417 6.165.385.49.847.917 1.26 1.385a.454.454 0 0 1 .085.343 1.556 1.556 0 0 1-.888.994 14.245 14.245 0 0 1-7.819 1.763c-1.661-.113-3.28-.335-4.765-1.151a3.876 3.876 0 0 1-1.797-1.85c.341.13.635.236.92.352 1.262.51 2.491.518 3.668-.244.59-.387 1.022-.415 1.625.058 1.08.831 2.34 1.207 3.71.759a4.585 4.585 0 0 0 1.066-.579.518.518 0 0 1 .51-.102c.418.122.858.174 1.29.257l.027-.119a1.429 1.429 0 0 0-.204-.08 3.026 3.026 0 0 1-.742-.172c-.57-.299-1.025-.116-1.554.158-1.486.778-2.896.499-4.183-.498-.681-.532-.698-.595-1.351-.067-1.144.922-2.37.875-3.655.452-.34-.111-.664-.26-1.002-.38-.26-.088-.26-.19-.066-.365.534-.476 1.03-1 1.594-1.437 1.064-.83 1.565-1.938 1.88-3.2a15.095 15.095 0 0 0 .097-6.795 5.703 5.703 0 0 0-2.694-3.831q-1.248-.781-2.475-1.6c-.37-.247-.365-.374.022-.593a4.657 4.657 0 0 1 2.102-.626 4.74 4.74 0 0 1 3.352 1.05 4.114 4.114 0 0 0 .443.276 1.29 1.29 0 0 0 .197-.277c.338-.971 1.805-1.187 2.567-.73.26.157.512.334.778.487.401.227.65.158.902-.225.518-.789 1.013-.916 1.844-.467.11.06.219.13.33.193.553.316.76.297 1.229-.124.515-.46.584-.465 1.196-.11a.753.753 0 0 0 .18.052zm1.337 18.55a2.378 2.378 0 0 0-.19-.26 11.537 11.537 0 0 1-2.947-5.037c-.725-2.361-.952-4.729-.246-7.126.52-1.778 1.52-3.228 3.15-4.173.737-.426 1.518-.775 2.285-1.162-.072-.413-.277-.679-.726-.648a5.64 5.64 0 0 0-1.589.326c-.479.178-.858.172-1.22-.19-.092-.092-.195-.17-.278-.255a.44.44 0 0 0-.623 0c-.113.086-.216.182-.324.277a.939.939 0 0 1-1.232.113c-.224-.122-.429-.277-.659-.393a.925.925 0 0 0-1.254.277c-.097.119-.19.238-.277.354-.304.344-.553.396-.946.177-.277-.152-.538-.343-.812-.506a1.739 1.739 0 0 0-1.722-.022.908.908 0 0 0-.432 1.31 7.179 7.179 0 0 1 .773 2.469 3.812 3.812 0 0 1-.587 2.342c-.025-.155-.036-.213-.044-.277-.197-1.467-.39-2.937-.596-4.405a.595.595 0 0 0-.169-.351c-1.107-.942-2.378-1.448-3.876-1.307a4.103 4.103 0 0 0-1.982.706c.335.238.628.451.927.631.582.371 1.177.72 1.759 1.094a5.692 5.692 0 0 1 2.513 3.173 14.195 14.195 0 0 1 .03 8.006c-.113.41-.262.809-.423 1.299l2.005-1.739.127.128c-.554.645-1.09 1.295-1.661 1.938a.891.891 0 0 1-.476.304c-.451.064-.703.38-.986.667-.1.1-.207.189-.313.277l-1.758 1.636c.673.197 1.26.394 1.864.535a2.74 2.74 0 0 0 2.394-.482c.252-.19.554-.335.795-.529a.92.92 0 0 0 .321-.423c.324-1.166.626-2.34.936-3.51.097-.37.2-.737.299-1.108a8.029 8.029 0 0 1-.975 4.728.401.401 0 0 0 .053.377 7.475 7.475 0 0 0 1.107.808 3.378 3.378 0 0 0 3.752-.346c-.313-.728-.64-1.445-.93-2.179-.413-1.04-.515-1.785-.355-2.334l.092.225c.479 1.276.95 2.558 1.448 3.826a.83.83 0 0 0 .426.435 6.863 6.863 0 0 0 3.552.318zm-9.765-12.816c.499-.872.188-3.165-.484-3.76.152 1.257.318 2.464.484 3.76Z"/>
  <path d="M19.4 10.44c-.387-.626-.83-.734-1.383-.277a1.066 1.066 0 0 1-1.365.083c-.93-.554-1.177-.515-2.024.166l-.208.172c-.407.327-.64.34-1.06.03a2.315 2.315 0 0 0-1.29-.52 2.13 2.13 0 0 0-1.902.866c-.04.05-.078.103-.122.15-.045.047-.039.03 0 0-1.803-1.274-3.671-1.384-5.71-.515a5.626 5.626 0 0 1 1.798-1.487 18.445 18.445 0 0 1 6.894-2.049c1.198-.11 2.353.227 3.53.394 1.794.254 3.383 1.024 4.955 1.855.225.119.466.215.679.348a.335.335 0 0 1 .15.277c-.023.078-.167.125-.261.177a.174.174 0 0 1-.114 0 2.716 2.716 0 0 0-1.763.324c-.213.111-.54 0-.814 0zM15.06 5.45l-.12-.246a.92.92 0 0 1 .208-.113 5.537 5.537 0 0 0 2.31-1.312c1.317-1.136 2.91-1.404 4.573-1.462.867-.028 1.739-.042 2.6-.128 1.226-.119 2.386-.443 3.297-1.359l.083.058a6.332 6.332 0 0 1-.537 1.027c-.628.806-1.262 1.609-1.963 2.35-.609.649-1.473.831-2.309 1.023a12.279 12.279 0 0 1-5.208.06 6.67 6.67 0 0 0-1.45-.055c-.48.008-.958.094-1.484.158ZM14.506 6.572h-1.412c.537-1.76-.036-3.444-.338-5.15a9.004 9.004 0 0 1-.113-.98c-.014-.276.069-.465.412-.44.344.025.554.045.598.43.08.772.175 1.547.277 2.317.122 1 .244 1.999.382 2.995a7.334 7.334 0 0 0 .194.828zM17.496 13.123a1.974 1.974 0 0 1-.116.418 636.12 636.12 0 0 0-1.958 3.458c-.21.376-.379.778-.6 1.149a3.256 3.256 0 0 1-.457.504l-.092-.072c.097-.227.22-.449.294-.684a15.142 15.142 0 0 0 .52-1.822 2.511 2.511 0 0 1 .933-1.647c.44-.346.873-.706 1.302-1.066a1.343 1.343 0 0 0 .174-.233Zm-2.19 3.654 1.415-2.458c-1.08.487-1.506 1.334-1.415 2.458zM15.757 21.476c.524 1.077 1.584 5.216 1.448 5.387h-.033c-.34-1.409-1.22-2.64-1.343-4.12-.036-.428-.047-.85-.072-1.267Z"/>
  <path d="M17.496 13.128a3.062 3.062 0 0 0 .36-.401c.18-.277.313-.61.507-.889a1.152 1.152 0 0 1 1.016-.476l-1.606 1.896-.277-.133z"/>
</svg>