<svg id="Camada_1" data-name="Camada 1" xmlns="http://www.w3.org/2000/svg" viewBox="0 0 300 120"><title>core</title><path d="M253.35,106.53c-4.27,0-8.32,0-12.37,0-.43,0-1-.61-1.23-1.06-3.27-6.24-6.53-12.49-9.71-18.78A2.47,2.47,0,0,0,227.4,85,61.52,61.52,0,0,1,221,85c-1.33-.07-1.63.46-1.63,1.68,0,6.14,0,12.28,0,18.42,0,.45,0,.89-.08,1.44-3.78,0-7.46,0-11.14,0-.32,0-.69-.53-.9-.89s0-.63,0-1V49.55c0-1.85,0-1.85,1.92-1.85,7,0,13.95,0,20.92,0a28.7,28.7,0,0,1,10.29,1.82c8.38,3.25,11.3,10.23,10.53,18.34-.39,4.09-1.77,7.73-4.88,10.51a24.58,24.58,0,0,1-4.31,3c-1,.56-1.18,1-.63,2,3.89,7.16,7.71,14.36,11.55,21.55C252.91,105.39,253.08,105.9,253.35,106.53ZM219.43,66.31c0,2.58,0,5.16,0,7.74,0,.92.19,1.33,1.21,1.31,3.36-.06,6.73,0,10.1-.06a8.19,8.19,0,0,0,5.61-2.3,9.63,9.63,0,0,0,1.92-10.38c-1.47-3.66-3.92-4.94-8.31-5.24-3-.21-6,0-9-.06-1.14,0-1.55.37-1.53,1.52C219.47,61.33,219.43,63.82,219.43,66.31Z"/><path d="M198.59,77.29c-.14,6.25-1,12.31-4,17.92-5.05,9.5-15.13,13.54-25.35,12a22.8,22.8,0,0,1-14.55-8,27.66,27.66,0,0,1-6-13.76,50.39,50.39,0,0,1,0-16.8c1.65-9.12,5.94-16.42,15-20.12A25.34,25.34,0,0,1,177.14,47a22.67,22.67,0,0,1,17.66,12.5A29.61,29.61,0,0,1,198,69.72C198.3,72.23,198.4,74.76,198.59,77.29Zm-38.19-.21c0,4.58.24,9.11,2.14,13.4,2.84,6.38,8.76,8.63,15.08,6.52,3.75-1.25,5.82-4.23,6.91-7.76a42.64,42.64,0,0,0,.3-23.31A12.17,12.17,0,0,0,180,58.57a11.72,11.72,0,0,0-17.48,5.1C160.66,68,160.4,72.5,160.4,77.08Z"/><path d="M299.7,47.76v9.5c-.4,0-.75.06-1.1.06-8.13,0-16.26,0-24.39,0-1.35,0-1.75.4-1.72,1.73.08,3.73.08,7.48,0,11.21,0,1.33.46,1.61,1.67,1.6,6.74,0,13.49,0,20.23,0,1.17,0,1.54.31,1.5,1.46-.08,2.08-.09,4.16,0,6.23.06,1.28-.39,1.68-1.66,1.67-6.69,0-13.39,0-20.09-.05-1.27,0-1.67.34-1.65,1.61.07,4.25,0,8.5,0,12.74,0,.45.06.9.1,1.51h1.71c8.09,0,16.17,0,24.25,0,1.12,0,1.45.32,1.42,1.4-.07,2.26-.06,4.53,0,6.79,0,1-.21,1.45-1.38,1.44q-18.44-.07-36.86,0c-1.12,0-1.43-.37-1.42-1.44q0-28,0-56.08c0-1,.3-1.36,1.35-1.36,12.47,0,24.94,0,37.42,0C299.23,47.69,299.37,47.72,299.7,47.76Z"/><path d="M129.74,87.32h12a20.6,20.6,0,0,1-5.33,13.17c-4.42,4.74-10.08,6.64-16.35,7-6,.34-11.78-.7-16.69-4.55a23.5,23.5,0,0,1-8.55-14,53.18,53.18,0,0,1,0-23c1.8-7.9,6-14.11,13.78-17.35A26.91,26.91,0,0,1,122,46.91,22.88,22.88,0,0,1,133.31,51a20.49,20.49,0,0,1,8.19,13.76c.43,2.6.33,2.61-2.28,2.61s-5.45,0-8.18,0c-.87,0-1.3-.17-1.39-1.2-.52-6.18-4.21-9.52-10.4-9.74-8-.29-11.45,4.26-12.6,11a59.45,59.45,0,0,0,0,19.56c.7,4.42,2.36,8.53,7.1,10A13.69,13.69,0,0,0,125.49,96c2.89-1.78,3.69-4.8,4.18-7.91C129.7,87.84,129.71,87.61,129.74,87.32Z"/><path d="M55.64,39.87c.67,1.57,1.75,1.85,3.45,1.29a25.39,25.39,0,0,1,6-1.47c2.34-.19,3.57,1.09,4.1,3.52l-5.67,2.68A25.84,25.84,0,0,0,48.52,64.77a38.14,38.14,0,0,0-.4,14.44c1.33,8,3.6,15.73,8.73,22.27,1.39,1.77,3.06,3.31,4.55,5a1.64,1.64,0,0,1,.31,1.24,5.62,5.62,0,0,1-3.21,3.59,51.45,51.45,0,0,1-28.24,6.37c-6-.41-11.85-1.21-17.21-4.16a14,14,0,0,1-6.49-6.68c1.23.47,2.29.85,3.32,1.27,4.56,1.84,9,1.87,13.25-.88,2.13-1.4,3.69-1.5,5.87.21,3.9,3,8.45,4.36,13.4,2.74a16.56,16.56,0,0,0,3.85-2.09,1.87,1.87,0,0,1,1.84-.37c1.51.44,3.1.63,4.66.93l.1-.43a5.16,5.16,0,0,0-.74-.29,10.93,10.93,0,0,1-2.68-.62c-2.06-1.08-3.7-.42-5.61.57-5.37,2.81-10.46,1.8-15.11-1.8-2.46-1.92-2.52-2.15-4.88-.24-4.13,3.33-8.56,3.16-13.2,1.63-1.23-.4-2.4-.94-3.62-1.37-.94-.32-.94-.69-.24-1.32,1.93-1.72,3.72-3.61,5.76-5.19,3.84-3,5.65-7,6.79-11.56a54.52,54.52,0,0,0,.35-24.54A20.6,20.6,0,0,0,9.94,49.65Q5.43,46.83,1,43.87c-1.34-.89-1.32-1.35.08-2.14a16.82,16.82,0,0,1,7.59-2.26,17.12,17.12,0,0,1,12.11,3.79,14.86,14.86,0,0,0,1.6,1,4.66,4.66,0,0,0,.71-1c1.22-3.51,6.52-4.29,9.27-2.64.94.57,1.85,1.21,2.81,1.76,1.45.82,2.35.57,3.26-.81,1.87-2.85,3.66-3.31,6.66-1.69.4.22.79.47,1.19.7,2,1.14,2.75,1.07,4.44-.45,1.86-1.66,2.11-1.68,4.32-.4a2.72,2.72,0,0,0,.65.19Zm4.83,67a8.59,8.59,0,0,0-.69-.94A41.67,41.67,0,0,1,49.14,87.74C46.52,79.21,45.7,70.66,48.25,62c1.88-6.42,5.49-11.66,11.38-15.07,2.66-1.54,5.48-2.8,8.25-4.2-.26-1.49-1-2.45-2.62-2.34a20.37,20.37,0,0,0-5.74,1.18c-1.73.64-3.1.62-4.41-.69-.33-.33-.7-.61-1-.92a1.59,1.59,0,0,0-2.25,0c-.41.31-.78.66-1.17,1a3.39,3.39,0,0,1-4.45.41c-.81-.44-1.55-1-2.38-1.42a3.34,3.34,0,0,0-4.53,1c-.35.43-.69.86-1,1.28-1.1,1.24-2,1.43-3.42.64-1-.55-1.94-1.24-2.93-1.83a6.28,6.28,0,0,0-6.22-.08,3.28,3.28,0,0,0-1.56,4.73,25.93,25.93,0,0,1,2.79,8.92,13.77,13.77,0,0,1-2.12,8.46c-.09-.56-.13-.77-.16-1-.71-5.3-1.41-10.61-2.15-15.91a2.15,2.15,0,0,0-.61-1.27c-4-3.4-8.59-5.23-14-4.72A14.82,14.82,0,0,0,.79,42.72C2,43.58,3.06,44.35,4.14,45c2.1,1.34,4.25,2.6,6.35,3.95a20.56,20.56,0,0,1,9.08,11.46,51.27,51.27,0,0,1,.11,28.92c-.41,1.48-.95,2.92-1.53,4.69l7.24-6.28.46.46c-2,2.33-3.94,4.68-6,7a3.22,3.22,0,0,1-1.72,1.1c-1.63.23-2.54,1.37-3.56,2.41-.36.36-.75.68-1.13,1l-6.35,5.91c2.43.71,4.55,1.42,6.73,1.93a9.9,9.9,0,0,0,8.65-1.74c.91-.69,2-1.21,2.87-1.91a3.32,3.32,0,0,0,1.16-1.53c1.17-4.21,2.26-8.45,3.38-12.68.35-1.33.72-2.66,1.08-4a29,29,0,0,1-3.52,17.08,1.45,1.45,0,0,0,.19,1.36,27,27,0,0,0,4,2.92,12.2,12.2,0,0,0,13.55-1.25c-1.13-2.63-2.31-5.22-3.36-7.87-1.49-3.76-1.86-6.45-1.28-8.43l.33.81c1.73,4.61,3.43,9.24,5.23,13.82a3,3,0,0,0,1.54,1.57A24.79,24.79,0,0,0,60.47,106.85ZM25.2,60.58C27,57.43,25.88,49.15,23.45,47,24,51.54,24.6,55.9,25.2,60.58Z"/><path d="M55.68,39.91c-1.4-2.26-3-2.65-5-1a3.85,3.85,0,0,1-4.93.3c-3.36-2-4.25-1.86-7.31.6l-.75.62c-1.47,1.18-2.31,1.23-3.83.11a8.36,8.36,0,0,0-4.66-1.88,7.69,7.69,0,0,0-6.87,3.13c-.14.18-.28.37-.44.54s-.14.11,0,0c-6.51-4.6-13.26-5-20.62-1.86a20.32,20.32,0,0,1,6.49-5.37A66.62,66.62,0,0,1,32.66,27.7c4.33-.4,8.5.82,12.75,1.42,6.48.92,12.22,3.7,17.9,6.7.81.43,1.68.78,2.45,1.26a1.21,1.21,0,0,1,.54,1c-.08.28-.6.45-.94.64a.63.63,0,0,1-.41,0,9.81,9.81,0,0,0-6.37,1.17c-.77.4-1.95,0-2.94,0Z"/><path d="M40,21.89,39.57,21a3.32,3.32,0,0,1,.75-.41,20,20,0,0,0,8.34-4.74c4.76-4.1,10.51-5.07,16.52-5.28,3.13-.1,6.28-.15,9.39-.46,4.43-.43,8.62-1.6,11.91-4.91l.3.21a22.87,22.87,0,0,1-1.94,3.71c-2.27,2.91-4.56,5.81-7.09,8.49-2.2,2.34-5.32,3-8.34,3.69a44.35,44.35,0,0,1-18.81.22,24.09,24.09,0,0,0-5.24-.2C43.63,21.35,41.9,21.66,40,21.89Z"/><path d="M38,25.94H32.9c1.94-6.36-.13-12.44-1.22-18.6a32.52,32.52,0,0,1-.41-3.54c-.05-1,.25-1.68,1.49-1.59s2,.16,2.16,1.55c.29,2.79.63,5.59,1,8.37.44,3.61.88,7.22,1.38,10.82A26.49,26.49,0,0,0,38,25.94Z"/><path d="M48.8,49.6a7.13,7.13,0,0,1-.42,1.51C46,55.29,43.65,59.43,41.31,63.6c-.76,1.36-1.37,2.81-2.17,4.15a11.76,11.76,0,0,1-1.65,1.82l-.33-.26c.35-.82.79-1.62,1.06-2.47a54.69,54.69,0,0,0,1.88-6.58,9.07,9.07,0,0,1,3.37-5.95c1.59-1.25,3.15-2.55,4.7-3.85a4.85,4.85,0,0,0,.63-.84ZM40.89,62.8,46,53.92C42.1,55.68,40.56,58.74,40.89,62.8Z"/><path d="M42.52,79.77c1.89,3.89,5.72,18.84,5.23,19.46,0,0-.11,0-.12,0-1.23-5.09-4.41-9.54-4.85-14.88C42.65,82.8,42.61,81.28,42.52,79.77Z"/><path d="M48.8,49.62a11.06,11.06,0,0,0,1.3-1.45c.65-1,1.13-2.2,1.83-3.21a4.16,4.16,0,0,1,3.67-1.72l-5.8,6.85-1-.48Z"/></svg>