<?xml version="1.0" encoding="UTF-8" standalone="no"?>
<svg id="Camada_1" data-name="Camada 1" viewBox="0 0 32 32" version="1.1" sodipodi:docname="core.svg" width="32" height="32" inkscape:version="1.4-beta2 (9aaf4f34, 2024-07-30)" xmlns:inkscape="http://www.inkscape.org/namespaces/inkscape" xmlns:sodipodi="http://sodipodi.sourceforge.net/DTD/sodipodi-0.dtd" xmlns="http://www.w3.org/2000/svg" xmlns:svg="http://www.w3.org/2000/svg" xmlns:rdf="http://www.w3.org/1999/02/22-rdf-syntax-ns#" xmlns:cc="http://creativecommons.org/ns#" xmlns:dc="http://purl.org/dc/elements/1.1/">
  <defs id="defs11" />
  <sodipodi:namedview id="namedview11" pagecolor="#ffffff" bordercolor="#000000" borderopacity="0.25" inkscape:showpageshadow="2" inkscape:pageopacity="0.0" inkscape:pagecheckerboard="0" inkscape:deskcolor="#d1d1d1" inkscape:zoom="2.4670592" inkscape:cx="31.61659" inkscape:cy="59.382442" inkscape:window-width="1440" inkscape:window-height="790" inkscape:window-x="0" inkscape:window-y="0" inkscape:window-maximized="1" inkscape:current-layer="Camada_1" />
  <title id="title1">core</title>
  <g id="g11" transform="matrix(0.2768618,0,0,0.2768618,3.9852835,-0.60965478)">
    <path d="m 55.64,39.87 c 0.67,1.57 1.75,1.85 3.45,1.29 a 25.39,25.39 0 0 1 6,-1.47 c 2.34,-0.19 3.57,1.09 4.1,3.52 l -5.67,2.68 a 25.84,25.84 0 0 0 -15,18.88 38.14,38.14 0 0 0 -0.4,14.44 c 1.33,8 3.6,15.73 8.73,22.27 1.39,1.77 3.06,3.31 4.55,5 a 1.64,1.64 0 0 1 0.31,1.24 5.62,5.62 0 0 1 -3.21,3.59 51.45,51.45 0 0 1 -28.24,6.37 c -6,-0.41 -11.85,-1.21 -17.21,-4.16 a 14,14 0 0 1 -6.49,-6.68 c 1.23,0.47 2.29,0.85 3.32,1.27 4.56,1.84 9,1.87 13.25,-0.88 2.13,-1.4 3.69,-1.5 5.87,0.21 3.9,3 8.45,4.36 13.4,2.74 a 16.56,16.56 0 0 0 3.85,-2.09 1.87,1.87 0 0 1 1.84,-0.37 c 1.51,0.44 3.1,0.63 4.66,0.93 l 0.1,-0.43 a 5.16,5.16 0 0 0 -0.74,-0.29 10.93,10.93 0 0 1 -2.68,-0.62 c -2.06,-1.08 -3.7,-0.42 -5.61,0.57 -5.37,2.81 -10.46,1.8 -15.11,-1.8 -2.46,-1.92 -2.52,-2.15 -4.88,-0.24 -4.13,3.33 -8.56,3.16 -13.2,1.63 -1.23,-0.4 -2.4,-0.94 -3.62,-1.37 -0.94,-0.32 -0.94,-0.69 -0.24,-1.32 1.93,-1.72 3.72,-3.61 5.76,-5.19 3.84,-3 5.65,-7 6.79,-11.56 A 54.52,54.52 0 0 0 19.67,63.49 20.6,20.6 0 0 0 9.94,49.65 Q 5.43,46.83 1,43.87 c -1.34,-0.89 -1.32,-1.35 0.08,-2.14 a 16.82,16.82 0 0 1 7.59,-2.26 17.12,17.12 0 0 1 12.11,3.79 14.86,14.86 0 0 0 1.6,1 4.66,4.66 0 0 0 0.71,-1 c 1.22,-3.51 6.52,-4.29 9.27,-2.64 0.94,0.57 1.85,1.21 2.81,1.76 1.45,0.82 2.35,0.57 3.26,-0.81 1.87,-2.85 3.66,-3.31 6.66,-1.69 0.4,0.22 0.79,0.47 1.19,0.7 2,1.14 2.75,1.07 4.44,-0.45 1.86,-1.66 2.11,-1.68 4.32,-0.4 a 2.72,2.72 0 0 0 0.65,0.19 z m 4.83,67 A 8.59,8.59 0 0 0 59.78,105.93 41.67,41.67 0 0 1 49.14,87.74 C 46.52,79.21 45.7,70.66 48.25,62 c 1.88,-6.42 5.49,-11.66 11.38,-15.07 2.66,-1.54 5.48,-2.8 8.25,-4.2 -0.26,-1.49 -1,-2.45 -2.62,-2.34 a 20.37,20.37 0 0 0 -5.74,1.18 c -1.73,0.64 -3.1,0.62 -4.41,-0.69 -0.33,-0.33 -0.7,-0.61 -1,-0.92 a 1.59,1.59 0 0 0 -2.25,0 c -0.41,0.31 -0.78,0.66 -1.17,1 a 3.39,3.39 0 0 1 -4.45,0.41 c -0.81,-0.44 -1.55,-1 -2.38,-1.42 a 3.34,3.34 0 0 0 -4.53,1 c -0.35,0.43 -0.69,0.86 -1,1.28 -1.1,1.24 -2,1.43 -3.42,0.64 -1,-0.55 -1.94,-1.24 -2.93,-1.83 a 6.28,6.28 0 0 0 -6.22,-0.08 3.28,3.28 0 0 0 -1.56,4.73 25.93,25.93 0 0 1 2.79,8.92 13.77,13.77 0 0 1 -2.12,8.46 C 24.78,62.51 24.74,62.3 24.71,62.07 24,56.77 23.3,51.46 22.56,46.16 a 2.15,2.15 0 0 0 -0.61,-1.27 c -4,-3.4 -8.59,-5.23 -14,-4.72 A 14.82,14.82 0 0 0 0.79,42.72 C 2,43.58 3.06,44.35 4.14,45 c 2.1,1.34 4.25,2.6 6.35,3.95 a 20.56,20.56 0 0 1 9.08,11.46 51.27,51.27 0 0 1 0.11,28.92 c -0.41,1.48 -0.95,2.92 -1.53,4.69 l 7.24,-6.28 0.46,0.46 c -2,2.33 -3.94,4.68 -6,7 a 3.22,3.22 0 0 1 -1.72,1.1 c -1.63,0.23 -2.54,1.37 -3.56,2.41 -0.36,0.36 -0.75,0.68 -1.13,1 l -6.35,5.91 c 2.43,0.71 4.55,1.42 6.73,1.93 a 9.9,9.9 0 0 0 8.65,-1.74 c 0.91,-0.69 2,-1.21 2.87,-1.91 a 3.32,3.32 0 0 0 1.16,-1.53 c 1.17,-4.21 2.26,-8.45 3.38,-12.68 0.35,-1.33 0.72,-2.66 1.08,-4 a 29,29 0 0 1 -3.52,17.08 1.45,1.45 0 0 0 0.19,1.36 27,27 0 0 0 4,2.92 12.2,12.2 0 0 0 13.55,-1.25 c -1.13,-2.63 -2.31,-5.22 -3.36,-7.87 -1.49,-3.76 -1.86,-6.45 -1.28,-8.43 l 0.33,0.81 c 1.73,4.61 3.43,9.24 5.23,13.82 a 3,3 0 0 0 1.54,1.57 24.79,24.79 0 0 0 12.83,1.15 z M 25.2,60.58 C 27,57.43 25.88,49.15 23.45,47 24,51.54 24.6,55.9 25.2,60.58 Z" id="path5" />
    <path d="m 55.68,39.91 c -1.4,-2.26 -3,-2.65 -5,-1 a 3.85,3.85 0 0 1 -4.93,0.3 c -3.36,-2 -4.25,-1.86 -7.31,0.6 l -0.75,0.62 c -1.47,1.18 -2.31,1.23 -3.83,0.11 a 8.36,8.36 0 0 0 -4.66,-1.88 7.69,7.69 0 0 0 -6.87,3.13 c -0.14,0.18 -0.28,0.37 -0.44,0.54 -0.16,0.17 -0.14,0.11 0,0 -6.51,-4.6 -13.26,-5 -20.62,-1.86 a 20.32,20.32 0 0 1 6.49,-5.37 66.62,66.62 0 0 1 24.9,-7.4 c 4.33,-0.4 8.5,0.82 12.75,1.42 6.48,0.92 12.22,3.7 17.9,6.7 0.81,0.43 1.68,0.78 2.45,1.26 a 1.21,1.21 0 0 1 0.54,1 c -0.08,0.28 -0.6,0.45 -0.94,0.64 a 0.63,0.63 0 0 1 -0.41,0 9.81,9.81 0 0 0 -6.37,1.17 c -0.77,0.4 -1.95,0 -2.94,0 z" id="path6" />
    <path d="M 40,21.89 39.57,21 a 3.32,3.32 0 0 1 0.75,-0.41 20,20 0 0 0 8.34,-4.74 c 4.76,-4.1 10.51,-5.07 16.52,-5.28 3.13,-0.1 6.28,-0.15 9.39,-0.46 C 79,9.68 83.19,8.51 86.48,5.2 l 0.3,0.21 a 22.87,22.87 0 0 1 -1.94,3.71 c -2.27,2.91 -4.56,5.81 -7.09,8.49 -2.2,2.34 -5.32,3 -8.34,3.69 A 44.35,44.35 0 0 1 50.6,21.52 24.09,24.09 0 0 0 45.36,21.32 C 43.63,21.35 41.9,21.66 40,21.89 Z" id="path7" />
    <path d="M 38,25.94 H 32.9 C 34.84,19.58 32.77,13.5 31.68,7.34 A 32.52,32.52 0 0 1 31.27,3.8 c -0.05,-1 0.25,-1.68 1.49,-1.59 1.24,0.09 2,0.16 2.16,1.55 0.29,2.79 0.63,5.59 1,8.37 0.44,3.61 0.88,7.22 1.38,10.82 a 26.49,26.49 0 0 0 0.7,2.99 z" id="path8" />
    <path d="m 48.8,49.6 a 7.13,7.13 0 0 1 -0.42,1.51 c -2.38,4.18 -4.73,8.32 -7.07,12.49 -0.76,1.36 -1.37,2.81 -2.17,4.15 a 11.76,11.76 0 0 1 -1.65,1.82 l -0.33,-0.26 c 0.35,-0.82 0.79,-1.62 1.06,-2.47 a 54.69,54.69 0 0 0 1.88,-6.58 9.07,9.07 0 0 1 3.37,-5.95 c 1.59,-1.25 3.15,-2.55 4.7,-3.85 A 4.85,4.85 0 0 0 48.8,49.62 Z M 40.89,62.8 46,53.92 c -3.9,1.76 -5.44,4.82 -5.11,8.88 z" id="path9" />
    <path d="m 42.52,79.77 c 1.89,3.89 5.72,18.84 5.23,19.46 0,0 -0.11,0 -0.12,0 C 46.4,94.14 43.22,89.69 42.78,84.35 42.65,82.8 42.61,81.28 42.52,79.77 Z" id="path10" />
    <path d="m 48.8,49.62 a 11.06,11.06 0 0 0 1.3,-1.45 c 0.65,-1 1.13,-2.2 1.83,-3.21 a 4.16,4.16 0 0 1 3.67,-1.72 l -5.8,6.85 -1,-0.48 z" id="path11" />
  </g>
  <metadata id="metadata11">
    <rdf:RDF>
      <cc:Work rdf:about="">
        <dc:title>core</dc:title>
      </cc:Work>
    </rdf:RDF>
  </metadata>
</svg>
