<?xml version="1.0" encoding="UTF-8" standalone="no"?>
<svg version="1.1" width="256" height="256" viewBox="0 0 256 256" xml:space="preserve" id="svg1" xmlns="http://www.w3.org/2000/svg" xmlns:svg="http://www.w3.org/2000/svg">

<defs id="defs1" />
<g style="opacity:1;fill:#000000;fill-rule:nonzero;stroke:none;stroke-width:0;stroke-linecap:butt;stroke-linejoin:miter;stroke-miterlimit:10;stroke-dasharray:none" transform="matrix(2.81,0,0,2.81,1.4065934,1.4065934)" id="g1">
	<path d="M 76.82,13.18 C 68.32,4.681 57.02,0 45,0 32.98,0 21.68,4.681 13.18,13.18 4.681,21.68 0,32.98 0,45 0,57.02 4.681,68.32 13.18,76.82 21.68,85.319 32.98,90 45,90 57.02,90 68.32,85.319 76.82,76.82 85.319,68.32 90,57.02 90,45 90,32.98 85.319,21.68 76.82,13.18 Z M 40.079,79.811 C 35.36,79.147 30.94,77.544 27.013,75.195 L 40.079,59.421 Z m 9.842,-20.806 13.656,15.83 c -4.072,2.545 -8.699,4.279 -13.656,4.976 z M 9.843,45 c 0,-17.715 13.172,-32.41 30.236,-34.811 V 43.992 L 19.35,69.016 C 13.457,62.727 9.843,54.278 9.843,45 Z M 71.118,68.508 49.921,43.936 V 10.189 C 66.985,12.59 80.157,27.285 80.157,45 c 0,9.03 -3.423,17.275 -9.039,23.508 z" style="opacity:1;fill:#000000;fill-rule:nonzero;stroke:none;stroke-width:1;stroke-linecap:butt;stroke-linejoin:miter;stroke-miterlimit:10;stroke-dasharray:none" stroke-linecap="round" id="path1" />
</g>
</svg>
