<svg xmlns="http://www.w3.org/2000/svg" viewBox="0 0 300 120"><title>crates</title><path d="M31.61,86.66Q27.58,89,19.94,89,11,89,5.51,83.61A18.68,18.68,0,0,1,0,69.67q0-9.86,5.91-15.54t15.81-5.69q6.83,0,9.89,1.82V60.38a13.55,13.55,0,0,0-8.34-2.8,11,11,0,0,0-8.14,3q-3,3-3,8.29A11,11,0,0,0,15,76.94a10.58,10.58,0,0,0,7.9,2.93,15.68,15.68,0,0,0,8.72-2.8Z"/><path d="M64.66,60.15a10.34,10.34,0,0,0-5-1.17,7.23,7.23,0,0,0-6.08,2.85,12.44,12.44,0,0,0-2.19,7.76V88.06H39.43V49.39H51.37v7.17h.15q2.83-7.85,10.19-7.85a7.74,7.74,0,0,1,2.95.45Z"/><path d="M102.39,88.06H91.1V82.51H91A12.62,12.62,0,0,1,79.43,89q-5.62,0-8.86-3.19a11.46,11.46,0,0,1-3.23-8.52q0-11.25,13.33-13l10.5-1.4q0-6.34-6.87-6.35a23.47,23.47,0,0,0-13.14,4.12v-9A29.56,29.56,0,0,1,78,49.42a36.18,36.18,0,0,1,7.88-1q16.55,0,16.54,16.51ZM91.17,72.35V69.74l-7,.91q-5.82.75-5.82,5.25a4.35,4.35,0,0,0,1.42,3.34,5.43,5.43,0,0,0,3.83,1.31,7.08,7.08,0,0,0,5.48-2.33A8.36,8.36,0,0,0,91.17,72.35Z"/><path d="M135.21,87.61q-2.64,1.4-8,1.4-12.61,0-12.61-13.11V58.19h-6.27v-8.8h6.27V41l11.9-3.4V49.39h8.68v8.8h-8.68V73.82c0,4,1.59,6.05,4.79,6.05a8.08,8.08,0,0,0,3.89-1.1Z"/><path d="M176.38,72.12H151.15q.6,8.43,10.62,8.43a20.66,20.66,0,0,0,11.21-3v8.62Q167.63,89,159.05,89q-9.37,0-14.55-5.2t-5.17-14.48q0-9.63,5.59-15.26a18.64,18.64,0,0,1,13.75-5.63q8.46,0,13.09,5t4.62,13.63ZM165.32,64.8q0-8.31-6.73-8.31a6.39,6.39,0,0,0-5,2.38,10.74,10.74,0,0,0-2.55,5.93Z"/><path d="M181,87V77.37A25.32,25.32,0,0,0,186.82,80a19.52,19.52,0,0,0,5.54.87,11.84,11.84,0,0,0,5-.87,2.81,2.81,0,0,0,1.83-2.65,2.41,2.41,0,0,0-.83-1.88,7.54,7.54,0,0,0-2.13-1.33,27.66,27.66,0,0,0-2.85-1c-1-.3-2-.64-3-1a28.64,28.64,0,0,1-4.06-1.87,11.52,11.52,0,0,1-2.94-2.32,9.08,9.08,0,0,1-1.82-3.06,12.34,12.34,0,0,1-.62-4.11,10.53,10.53,0,0,1,1.42-5.59,11.47,11.47,0,0,1,3.78-3.84,17.39,17.39,0,0,1,5.4-2.19,28.4,28.4,0,0,1,6.32-.7,34.34,34.34,0,0,1,5.21.4A38.9,38.9,0,0,1,208.3,50v9.22a18.83,18.83,0,0,0-4.86-2,20.42,20.42,0,0,0-5.08-.66,11.2,11.2,0,0,0-2.21.21,7.15,7.15,0,0,0-1.83.61,3.3,3.3,0,0,0-1.24,1,2.32,2.32,0,0,0-.46,1.42,2.61,2.61,0,0,0,.68,1.81,6,6,0,0,0,1.78,1.31,18.34,18.34,0,0,0,2.43,1c.9.29,1.78.58,2.67.89a34.78,34.78,0,0,1,4.3,1.81,13.6,13.6,0,0,1,3.31,2.3A9.13,9.13,0,0,1,209.9,72a12.37,12.37,0,0,1-.75,10.1,12,12,0,0,1-4,4,18.1,18.1,0,0,1-5.7,2.23,32.08,32.08,0,0,1-6.71.7A34.57,34.57,0,0,1,181,87Z"/><path d="M222.84,89a7,7,0,0,1-4.91-1.82,5.81,5.81,0,0,1-2-4.45,5.63,5.63,0,0,1,2-4.46A7.47,7.47,0,0,1,223,76.54a7.18,7.18,0,0,1,5,1.76,6.07,6.07,0,0,1,0,9A7.48,7.48,0,0,1,222.84,89Z"/><path d="M244.52,43.27a7,7,0,0,1-5-1.8,5.78,5.78,0,0,1-1.93-4.4,5.61,5.61,0,0,1,1.93-4.38,8.07,8.07,0,0,1,9.91,0,5.59,5.59,0,0,1,1.91,4.38,5.73,5.73,0,0,1-1.91,4.46A7.06,7.06,0,0,1,244.52,43.27Zm5.89,44.79H238.47V49.39h11.94Z"/><path d="M278.89,89q-9.67,0-15.2-5.42t-5.54-14.71q0-9.6,5.74-15t15.53-5.42q9.63,0,15.1,5.42T300,68.2q0,9.63-5.65,15.22T278.89,89Zm.3-31.43a8,8,0,0,0-6.57,2.91q-2.34,2.91-2.34,8.23,0,11.15,9,11.15,8.58,0,8.58-11.45Q287.84,57.59,279.19,57.58Z"/></svg>