<?xml version="1.0" encoding="UTF-8" standalone="no"?>
<!-- Uploaded to: SVG Repo, www.svgrepo.com, Generator: SVG Repo Mixer Tools -->

<svg fill="#000000" width="32" height="32" viewBox="0 0 0.96 0.96" role="img" version="1.1" id="svg1" sodipodi:docname="crunchyroll-svgrepo-com.svg" inkscape:version="1.4-beta2 (9aaf4f34, 2024-07-30)" xmlns:inkscape="http://www.inkscape.org/namespaces/inkscape" xmlns:sodipodi="http://sodipodi.sourceforge.net/DTD/sodipodi-0.dtd" xmlns="http://www.w3.org/2000/svg" xmlns:svg="http://www.w3.org/2000/svg" xmlns:rdf="http://www.w3.org/1999/02/22-rdf-syntax-ns#" xmlns:cc="http://creativecommons.org/ns#" xmlns:dc="http://purl.org/dc/elements/1.1/">
  <defs id="defs1" />
  <sodipodi:namedview id="namedview1" pagecolor="#ffffff" bordercolor="#000000" borderopacity="0.25" inkscape:showpageshadow="2" inkscape:pageopacity="0.0" inkscape:pagecheckerboard="0" inkscape:deskcolor="#d1d1d1" inkscape:zoom="0.68164338" inkscape:cx="36.67607" inkscape:cy="156.24006" inkscape:window-width="1440" inkscape:window-height="790" inkscape:window-x="0" inkscape:window-y="0" inkscape:window-maximized="1" inkscape:current-layer="svg1" />
  <title id="title1">Crunchyroll icon</title>
  <path d="M 0.11731975,0.53867987 A 0.42199908,0.42199908 0 1 1 0.95999792,0.50667994 V 0.48 C 0.95999792,0.21492057 0.74507838,1.04e-6 0.47999896,1.04e-6 0.21491953,1.04e-6 0,0.21492057 0,0.48 0,0.74507942 0.21491953,0.95999896 0.47999896,0.95999896 h 0.0319999 A 0.42467908,0.42467908 0 0 1 0.11731975,0.53867987 Z m 0.65067858,0.02132 a 0.15399967,0.15399967 0 0 1 -0.0533199,-0.29867936 0.31559932,0.31559932 0 0 0 -0.15467966,-0.0373199 0.33599927,0.33599927 0 1 0 0.33599927,0.33599928 0.25967944,0.25967944 0 0 0 -0.00532,-0.0639999 0.1365997,0.1365997 0 0 1 -0.12267971,0.0639999 z" id="path1" style="stroke-width:0.0399999" />
  <metadata id="metadata1">
    <rdf:RDF>
      <cc:Work rdf:about="">
        <dc:title>Crunchyroll icon</dc:title>
      </cc:Work>
    </rdf:RDF>
  </metadata>
</svg>
