<svg id="Camada_1" data-name="Camada 1" xmlns="http://www.w3.org/2000/svg" viewBox="0 0 200 80"><path d="M97.76,32.63c-4.08,0-7.46.37-7.46,3.13V49.48h3.86V37c0-.71,2-.85,3.09-.85,3.51,0,3.44,1.54,3.44,3v10.3h3.83V39.09C104.52,34.48,102.23,32.63,97.76,32.63Zm98.29,16.86H200V26.59h-3.95Zm-8.55,0h3.95V26.59H187.5Zm-11.17-3c-2.35,0-3.83-.87-3.83-5.27S174,36,176.33,36s3.83.86,3.83,5.27-1.49,5.27-3.83,5.27Zm0-13.85c-5,0-7.79,3-7.79,8.58s2.77,8.57,7.79,8.57,7.79-3,7.79-8.57S181.34,32.67,176.33,32.67Zm-18,2.1V49.49h3.95V37.07c0-1,2.43-.94,4.63-1V32.64s-8.58-.36-8.58,2.13Zm-10.52,9.7L144.11,32.9h-4.17l5.88,15.72c-.21.59,0,0-3,7.42H147l2.39-6.16,6.25-17h-4.18l-3.62,11.57ZM130.43,32.64a9,9,0,0,0-3.29.56V26.59H123.2v22.9h3.94V36.66a6.41,6.41,0,0,1,2.63-.5c3.69,0,4,1.56,4,3v10.3h3.91v-10c0-4.32-2.7-6.88-7.26-6.88ZM119.65,45.56a10.67,10.67,0,0,1-4.1.84c-2.77,0-4.49-.87-4.49-5.15s1.72-5.14,4.49-5.14a10.66,10.66,0,0,1,4.1.8V33.57a12.73,12.73,0,0,0-4.76-.93c-5,0-7.8,3.07-7.8,8.61s2.78,8.59,7.8,8.59a12.66,12.66,0,0,0,4.76-.94V45.56Zm-36.88-3c0,2.66-1,3.58-3.37,3.58s-3.34-.92-3.34-3.58V32.9H72.17V42c0,4.9,1.58,7.81,7.23,7.81s7.25-2.9,7.25-7.81v-9.1H82.77v9.64ZM64.54,37.08c0-1,2.4-.95,4.6-1V32.64s-8.55-.35-8.55,2.13V49.49h4ZM44.17,41.25c0-5.54,2.77-8.61,7.79-8.61a12.89,12.89,0,0,1,4.76.93v3.34a10.84,10.84,0,0,0-4.09-.8c-2.78,0-4.49.83-4.49,5.14s1.71,5.13,4.49,5.13a10.69,10.69,0,0,0,4.09-.83v3.34a12.69,12.69,0,0,1-4.76.93C46.94,49.82,44.17,46.79,44.17,41.25ZM28.16,43a5.57,5.57,0,0,0,4.47-2.24A12.31,12.31,0,0,1,22.79,55.1a12.15,12.15,0,0,1-2.25.2A12.3,12.3,0,0,1,8.23,43h0a12.31,12.31,0,0,1,18-10.9A5.61,5.61,0,0,0,28.16,43ZM17.51,22.49A17.51,17.51,0,0,1,35,40c0,.35,0,.69,0,1A15.39,15.39,0,1,0,18.7,57.47c-.39,0-.79,0-1.19,0a17.51,17.51,0,0,1,0-35Z"/></svg>