<?xml version="1.0" encoding="UTF-8" standalone="no"?>
<svg fill="currentColor" width="32" height="32" version="1.1" id="svg6" xmlns="http://www.w3.org/2000/svg" xmlns:svg="http://www.w3.org/2000/svg">
  <defs id="defs6" />
  <g style="fill:#000000" id="g6" transform="matrix(1.0000163,0,0,1.0000163,-9.5183626e-4,1.3920652e-4)">
    <g style="fill:#000000" id="g3">
      <path d="M 25.941,0.003 V 13.077 L 38.877,26.08 H 51.882 L 25.942,0.003 Z" style="fill:#000000" transform="matrix(0.47988,0,0,0.47988,3.539,0)" id="path1" />
      <path d="m 38.882,26.08 -0.335,-0.334 0.335,0.336 z" style="fill:#000000" transform="matrix(0.47988,0,0,0.47988,3.539,0)" id="path2" />
      <path d="M 38.877,26.08 25.94,39.1 25.906,39.067 v 0.002 L 12.936,26.082 25.906,13.11 V 13.107 L 25.94,13.073 38.545,25.746 25.94,13.006 V 0 L 25.906,0.034 V 0.037 L 0,26.082 25.907,52.144 V 52.14 l 0.034,0.018 25.872,-26.078 z" style="fill:#000000" transform="matrix(0.47988,0,0,0.47988,3.539,0)" id="path3" />
    </g>
    <path d="m 4.717,9.939 v 2.377 l 2.352,2.364 h 2.365 z" style="fill:#000000;stroke-width:0.181818" transform="matrix(2.63935,0,0,2.63935,3.539,-26.23)" id="path4" />
    <path d="M 4.716,12.303 V 9.938 L 4.71,9.944 v 2.377 l 0.007,-0.006 2.291,2.304 0.06,0.06 -2.351,2.368 -0.007,-0.006 v 2.377 L 4.717,19.421 9.42,14.68 H 7.069 L 7.009,14.619 4.717,12.303 Z M 0,14.68 4.71,19.418 V 17.041 L 2.352,14.68 4.71,12.321 V 9.946 Z" style="fill:#000000;stroke-width:0.181818" transform="matrix(2.63935,0,0,2.63935,3.539,-26.23)" id="path5" />
    <path d="M 4.72,21.802 0,17.048 v 5.014 h 9.443 v -5.014 z" style="fill:#000000;stroke-width:0.181818" transform="matrix(2.63935,0,0,2.63935,3.539,-26.23)" id="path6" />
  </g>
</svg>
