<?xml version="1.0" encoding="UTF-8" standalone="no"?>
<svg id="a" viewBox="0 0 32 32" version="1.1" width="32" height="32" xmlns="http://www.w3.org/2000/svg" xmlns:svg="http://www.w3.org/2000/svg">
  <defs id="defs8" />
  <path d="M 24.32262,5.6979479 V 11.401715 L 24.031612,11.128167 C 23.176047,10.354084 22.209898,9.7022249 21.168088,9.2016909 15.208232,6.3323459 8.0552425,8.8408399 5.1917183,14.794875 c -0.4830742,1.001069 -0.8206441,2.060341 -1.0068896,3.154533 -0.1280438,0.68096 -0.1804253,1.37356 -0.1571446,2.06616 -0.023281,0.686781 0.029101,1.373561 0.1571446,2.048701 0.8439248,4.859843 4.5746545,8.712796 9.4112163,9.702225 0.791543,0.162965 1.594727,0.238627 2.403731,0.232807 1.03017,0.01164 2.05452,-0.122224 3.043949,-0.389952 1.868275,-0.488894 3.591046,-1.425942 5.016988,-2.72966 l 0.279368,-0.256087 v 2.985747 h 3.637607 V -6.3746249e-8 H 24.328441 V 5.6979479 Z m -7.187911,6.1169991 c 0.849745,0.116404 1.676209,0.366671 2.444472,0.750802 2.316428,1.129114 3.975177,3.265116 4.493172,5.785251 0.116403,0.552916 0.168785,1.117472 0.157145,1.682029 0.01746,0.564557 -0.03492,1.123293 -0.157145,1.676209 -0.453973,2.194205 -1.775152,4.109041 -3.666708,5.313817 -0.523815,0.314289 -1.065091,0.576196 -1.635468,0.797363 -2.694739,0.971969 -5.703767,0.471434 -7.944533,-1.315359 C 10.35421,26.109288 9.9176973,25.672775 9.5219256,25.201341 8.5790579,24.019846 7.9737601,22.593904 7.7816945,21.0923 c -0.064022,-0.582017 -0.075662,-1.164034 -0.040741,-1.751871 0.3201094,-3.998458 3.4630015,-7.187912 7.4556385,-7.577863 0.646039,-0.03492 1.292078,-0.01746 1.932297,0.04656 v 0 z" style="fill:#000000;stroke-width:0px" id="path1" />
</svg>
