<?xml version="1.0" encoding="UTF-8"?><svg id="a" xmlns="http://www.w3.org/2000/svg" viewBox="0 0 161.69 80"><path d="m34.88,22.29v9.8l-.5-.47c-1.47-1.33-3.13-2.45-4.92-3.31-10.24-4.93-22.53-.62-27.45,9.61-.83,1.72-1.41,3.54-1.73,5.42-.22,1.17-.31,2.36-.27,3.55-.04,1.18.05,2.36.27,3.52,1.45,8.35,7.86,14.97,16.17,16.67,1.36.28,2.74.41,4.13.4,1.77.02,3.53-.21,5.23-.67,3.21-.84,6.17-2.45,8.62-4.69l.48-.44v5.13h6.25V12.5h-6.27v9.79Zm-12.35,10.51c1.46.2,2.88.63,4.2,1.29,3.98,1.94,6.83,5.61,7.72,9.94.2.95.29,1.92.27,2.89.03.97-.06,1.93-.27,2.88-.78,3.77-3.05,7.06-6.3,9.13-.9.54-1.83.99-2.81,1.37-4.63,1.67-9.8.81-13.65-2.26-.81-.68-1.56-1.43-2.24-2.24-1.62-2.03-2.66-4.48-2.99-7.06-.11-1-.13-2-.07-3.01.55-6.87,5.95-12.35,12.81-13.02,1.11-.06,2.22-.03,3.32.08h0Z" style="stroke-width:0px;"/><path d="m118.4,15.73v3.23h6.24v-6.47h-6.24v3.23Z" style="stroke-width:0px;"/><path d="m133.44,19.66v7.16h-4.58v6.24h4.58v7.87c0,7.57,0,7.88.09,8.55.29,2.25.95,4.43,1.96,6.47,1,2.05,2.33,3.91,3.95,5.51,2.85,2.86,6.48,4.8,10.43,5.59.49.1,1.02.19,1.17.21h.27v-6.47l-.43-.1c-1.12-.24-2.21-.62-3.23-1.14-4.03-1.97-6.88-5.74-7.69-10.15l-.13-.65v-15.68h11.5v-6.22h-11.48v-14.35h-6.38l-.03,7.16Z" style="stroke-width:0px;"/><path d="m155.45,15.73v3.23h6.24v-6.47h-6.24v3.23Z" style="stroke-width:0px;"/><path d="m113.04,12.77c-7.35,1.28-13.44,6.43-15.92,13.48l-.19.53h-6.32v6.22h5.8v33.81h6.24v-33.74h11.5v-6.22h-10.31l.14-.28c1.96-3.76,5.48-6.46,9.62-7.37h.12v-3.23c0-3.05,0-3.23-.07-3.23l-.61.04Z" style="stroke-width:0px;"/><path d="m65.03,26.28c-10.14.48-18.42,8.26-19.53,18.35-.11,1.49-.11,2.98,0,4.47.45,4.19,2.18,8.14,4.95,11.32.75.83,1.57,1.62,2.43,2.34,2.76,2.29,6.06,3.82,9.6,4.44,1.03.18,2.07.28,3.12.28,1.41.05,2.83-.06,4.22-.33,3.74-.71,7.22-2.45,10.04-5.01l.47-.43v5.11h6.19V26.85h-6.21v5.26l-.5-.46c-3.14-2.87-7.1-4.69-11.32-5.2-1.14-.15-2.3-.2-3.45-.17Zm2.94,6.52c2.47.35,4.8,1.34,6.76,2.89.83.7,1.6,1.46,2.31,2.28.91,1.14,1.64,2.41,2.19,3.76,2.88,7.29-.7,15.54-8,18.41-4.5,1.77-9.59,1.14-13.51-1.69-1.17-.85-2.21-1.86-3.09-3-4.74-6.26-3.51-15.18,2.76-19.92,2.01-1.52,4.39-2.48,6.89-2.78l.61-.06h1.3c.59,0,1.19.03,1.78.11Z" style="stroke-width:0px;"/><path d="m118.43,26.86v39.94h6.24V26.83h-3.09c-1.74,0-3.14.02-3.15.03Z" style="stroke-width:0px;"/><path d="m155.49,26.86v39.94h6.21V26.83h-3.09c-1.71,0-3.11.02-3.12.03Z" style="stroke-width:0px;"/></svg>