<svg id="Camada_1" data-name="Camada 1" xmlns="http://www.w3.org/2000/svg" viewBox="0 0 200 80"><path d="M43.14,18.11V30.23l-.62-.58a26,26,0,0,0-6.08-4.1A25.44,25.44,0,0,0,.34,44.14,20.38,20.38,0,0,0,0,48.53a20.09,20.09,0,0,0,.33,4.35,25.5,25.5,0,0,0,20,20.62,24.54,24.54,0,0,0,5.11.5,23.93,23.93,0,0,0,6.47-.83,25.3,25.3,0,0,0,10.66-5.8l.59-.54v6.34h7.73V6H43.14Zm-15.28,13a17,17,0,0,1,5.2,1.59A17.62,17.62,0,0,1,42.61,45a15.15,15.15,0,0,1,.33,3.58,14.81,14.81,0,0,1-.33,3.56,17.61,17.61,0,0,1-7.79,11.29,23.23,23.23,0,0,1-3.47,1.7,17.51,17.51,0,0,1-16.88-2.8,23.38,23.38,0,0,1-2.77-2.77A17.61,17.61,0,0,1,8,50.83a21.9,21.9,0,0,1-.09-3.72A17.61,17.61,0,0,1,23.75,31,26.78,26.78,0,0,1,27.86,31.1Z"/><path d="M146.44,10v4h7.72V6h-7.72Z"/><path d="M165.05,14.86v8.86h-5.67v7.72h5.67v9.73c0,9.36,0,9.75.11,10.58a25.31,25.31,0,0,0,2.42,8,24.79,24.79,0,0,0,4.89,6.81,25.13,25.13,0,0,0,12.9,6.91c.61.12,1.26.24,1.45.26l.34,0v-8l-.53-.12a16.14,16.14,0,0,1-4-1.41,17.49,17.49,0,0,1-9.51-12.56l-.16-.8,0-9.74V31.44h14.22V23.75l-7.1,0h-7.1V6h-7.89Z"/><path d="M192.28,10v4H200V6h-7.72Z"/><path d="M139.81,6.33A25.51,25.51,0,0,0,120.12,23l-.23.66-3.91,0-3.91,0,0,3.84v3.85h7.17V73.17h7.72V31.44h14.23V27.59l0-3.84-6.38,0h-6.37l.17-.35a17.71,17.71,0,0,1,11.9-9.12l.15,0v-4c0-3.77,0-4-.09-4Z"/><path d="M80.43,23.05a25.51,25.51,0,0,0-24.16,22.7,39.25,39.25,0,0,0,0,5.53,25.5,25.5,0,0,0,6.12,14,31.08,31.08,0,0,0,3,2.9,25.38,25.38,0,0,0,11.87,5.49,22.24,22.24,0,0,0,3.86.35,23.43,23.43,0,0,0,5.22-.41,25.59,25.59,0,0,0,12.42-6.2l.58-.53,0,3.16v3.16H107V48.46l0-24.71-3.84,0H99.32v6.51l-.62-.57a25.26,25.26,0,0,0-14-6.43A26.93,26.93,0,0,0,80.43,23.05Zm3.64,8.06a17.32,17.32,0,0,1,8.36,3.58,25.38,25.38,0,0,1,2.86,2.82A18.82,18.82,0,0,1,98,42.16,17.56,17.56,0,0,1,71.4,62.85a18.93,18.93,0,0,1-3.82-3.71A17.59,17.59,0,0,1,79.51,31.06l.75-.08c.11,0,.83,0,1.61,0A15.51,15.51,0,0,1,84.07,31.11Z"/><path d="M146.48,23.76s0,11.14,0,24.72V73.17h7.72V23.72h-3.82C148.23,23.72,146.49,23.74,146.48,23.76Z"/><path d="M192.32,23.76s0,11.14,0,24.72V73.17H200V23.72h-3.82C194.07,23.72,192.33,23.74,192.32,23.76Z"/></svg>