<?xml version="1.0" encoding="UTF-8"?><svg id="a" xmlns="http://www.w3.org/2000/svg" viewBox="0 0 468.75 80"><path d="m96.54,74.76h-8.6L104.25,5.15h8.51l-16.21,69.61h0Z" style="stroke-width:0px;"/><path d="m136.57,74.76h-28.73L124.26,5.15h8.6l-14.6,61.8h20.11l-1.8,7.79v.02h0Z" style="stroke-width:0px;"/><path d="m159.12,47.85l-6.21,26.91h-8.72l6.31-27.12-4.8-42.49h8.72l2.51,33.92,18.72-33.92h9.71l-26.23,42.68v.02Z" style="stroke-width:0px;"/><path d="m351.87,12.96h-12.6l-13.64,61.8h-8.72l13.64-61.8h-13.82l1.9-7.79h35.16l-1.9,7.79h0Z" style="stroke-width:0px;"/><path d="m351.59,74.76h-7.71l15.42-69.61h8.51l-15.33,69.61h-.89,0Z" style="stroke-width:0px;"/><path d="m407.81,24.75l-7.61,34.15c-1.03,4.83-2.49,8.29-4.34,10.76-2.86,3.84-7.53,5.72-13.82,5.72-10.41,0-16.39-4.55-16.5-12.33-.02-2.28.23-4.34,1.08-8.08l7.61-34.15c2.53-11.56,8.46-16.78,18.78-16.78s15.68,4.73,15.8,12.63c.02,2.28-.23,4.64-.99,8.08h0Zm-15.21-13.43c-3,0-5.3.99-6.86,2.96-1.29,1.57-1.95,3.66-2.91,7.69l-7.61,34.34c-.47,2.06-.75,4.05-.73,5.53.07,4.15,2.79,6.42,7.5,6.42,5.01,0,7.66-2.86,9.25-9.96l7.71-33.94c.75-3.35,1.03-4.94,1.01-6.52-.07-4.24-2.7-6.52-7.4-6.52,0,0,.05,0,.05,0Z" style="stroke-width:0px;"/><path d="m192.02,5.24h14.41l3.96,39.92c.7,7.69,1.12,13.9,1.64,22.31h.21c3.35-8.29,6.21-14.6,9.96-22.31l19.69-39.92h14.62l-7.8,69.49h-9.54l4.97-41.51c.91-7.5,1.92-13.9,3.17-21.59l-.21-.1c-3.45,7.5-6.49,14.08-10.26,21.71l-20.11,41.51h-12.31l-3.87-41.51c-.7-7.5-1.22-14.2-1.74-21.59h-.19c-1.71,7.4-3.35,14-5.48,21.59l-11.18,41.51h-9.66L192,5.27l.02-.02h0Z" style="stroke-width:0px;"/><path d="m313.57,39.95c-5.16,26.7-16.39,36.05-34.08,36.05-13.97,0-21.66-5.98-21.66-21.3,0-4.6.49-9.07,1.61-14.65,5.37-26.7,16.39-36.05,34.2-36.05,13.85,0,21.66,5.98,21.66,21.33,0,4.6-.6,9.07-1.71,14.65h0l-.02-.02h0Zm-21.04-28.57c-11.53,0-19.32,7.48-23.56,28.88-1.12,4.97-1.71,9.87-1.71,13.85,0,10.36,4.45,14.53,13.24,14.53,11.63,0,19.32-7.48,23.67-28.88,1.01-4.97,1.71-9.87,1.71-13.85,0-10.26-4.45-14.53-13.36-14.53h0Z" style="stroke-width:0px;"/><path d="m30.57,5.15c-1.64,0-16.08.23-16.08.23L0,74.88h6.84c3.89-.05,5.35.05,9.14.05,17.77,0,29.01-7.97,34.2-34.57h0c1.12-5.56,1.74-10,1.74-14.58,0-15.3-7.43-20.6-21.35-20.6,0,0,0-.02,0-.02Zm10.92,35.16c-4.39,21.33-11.37,26.2-23.06,26.28-4.08,0-5.01,0-8.11-.07L21.4,12.88h0c3.47-.07,4.29-.1,7.48-.07,8.96.07,14.29,3.45,14.29,13.69,0,3.98-.7,8.83-1.71,13.8h.03Z" style="stroke-width:0px;"/><path d="m460.03,5.15l-13.79,62.34-10.21-62.34h-14.39l-15.66,69.63h9.04l13.76-63.42,10.15,63.42h14.25l15.57-69.63h-8.72Z" style="stroke-width:0px;"/><path d="m74.62,5.17l-28.64,69.61h9.21l5.2-13.01,3.3-8.08,1.17-3.12h9.66l-.31,3.12-.7,8.08-1.01,13.01h8.72l5.4-69.61h-12.02.02Zm-6.68,37.2l11.09-30.89-3.66,30.89h-7.43Z" style="stroke-width:0px;"/></svg>