<?xml version="1.0" encoding="UTF-8" standalone="no"?>
<svg viewBox="0 0 32 32" version="1.1" id="svg1" sodipodi:docname="dailymotion.svg" width="32" height="32" inkscape:version="1.4-beta2 (9aaf4f34, 2024-07-30)" xmlns:inkscape="http://www.inkscape.org/namespaces/inkscape" xmlns:sodipodi="http://sodipodi.sourceforge.net/DTD/sodipodi-0.dtd" xmlns="http://www.w3.org/2000/svg" xmlns:svg="http://www.w3.org/2000/svg">
  <defs id="defs1" />
  <sodipodi:namedview id="namedview1" pagecolor="#ffffff" bordercolor="#000000" borderopacity="0.25" inkscape:showpageshadow="2" inkscape:pageopacity="0.0" inkscape:pagecheckerboard="0" inkscape:deskcolor="#d1d1d1" inkscape:zoom="5.19345" inkscape:cx="24.068779" inkscape:cy="42.457326" inkscape:window-width="1440" inkscape:window-height="790" inkscape:window-x="0" inkscape:window-y="0" inkscape:window-maximized="1" inkscape:current-layer="svg1" />
  <path d="M 29.09673,9.76974 C 28.28083,7.86373 27.11046,6.15336 25.62117,4.68483 24.13198,3.21629 22.39756,2.06213 20.46699,1.25751 18.46719,0.42431 16.34264,2e-5 14.15567,2e-5 H 2.44042 C 2.22418,2e-5 2.01908,0.08352 1.86525,0.23525 1.71366,0.38694 1.62894,0.58919 1.62894,0.80464 v 5.01897 c 0,0.21544 0.0847,0.41549 0.23854,0.56719 l 5.55108,5.49818 c 0.15383,0.1517 0.3567,0.23526 0.58632,0.23526 h 6.07949 c 1.07447,0 2.0799,0.41768 2.83348,1.17392 0.74232,0.74529 1.14143,1.72801 1.12356,2.76564 -0.0379,2.09511 -1.79013,3.79882 -3.90806,3.79882 h -8.9865 c -0.21625,0 -0.42134,0.0836 -0.57517,0.23526 -0.0892,0.0879 -0.15828,0.2001 -0.20064,0.33195 -0.004,0.0154 -0.009,0.0308 -0.0156,0.055 0,0.002 -0.004,0.0197 -0.004,0.0219 -0.002,0.0132 -0.004,0.0264 -0.009,0.0527 0,0.004 -0.002,0.022 -0.004,0.0264 -0.002,0.0265 -0.004,0.0528 -0.004,0.0814 v 5.01897 c 0,0.21541 0.0847,0.41551 0.23854,0.56939 l 5.51765,5.46529 c 0.0245,0.0241 0.049,0.0483 0.0736,0.0703 l 0.0379,0.0308 c 0.0401,0.0307 0.0825,0.0571 0.12484,0.0791 0.12484,0.066 0.26307,0.0989 0.39906,0.0989 h 3.42871 c 2.18924,-0.002 4.31161,-0.42647 6.31132,-1.25966 1.93057,-0.80681 3.66509,-1.95881 5.15428,-3.42726 1.48919,-1.46855 2.65739,-3.17897 3.47556,-5.08495 0.84494,-1.97195 1.27516,-4.06706 1.27516,-6.22588 0,-2.15882 -0.42805,-4.25393 -1.27516,-6.22593 z M 7.18225,9.37844 3.25414,5.49164 V 2.6425 L 7.18002,6.31605 V 9.38063 Z M 9.88645,29.2411 5.96057,25.35211 V 22.50292 L 9.88645,26.1765 Z M 7.21569,21.46529 h 6.91993 c 2.99626,0 5.47527,-2.40949 5.5288,-5.37295 0.0267,-1.47072 -0.53728,-2.86005 -1.58953,-3.91536 C 17.01148,11.1108 15.5936,10.52384 14.07982,10.52384 H 8.80745 V 6.95579 h 5.32817 c 2.44109,0 4.7373,0.94092 6.4651,2.64688 1.6163,1.59821 2.56376,3.71752 2.66855,5.96868 0.12257,2.64248 -0.92297,5.19922 -2.87141,7.01295 -1.69877,1.58065 -3.92366,2.45344 -6.26224,2.45344 H 11.03234 L 7.21569,21.46746 Z m 20.38514,0.13412 c -0.73561,1.71477 -1.78785,3.25364 -3.12771,4.57482 -1.33985,1.32129 -2.90045,2.36119 -4.63931,3.08445 -1.79912,0.74963 -3.70964,1.12998 -5.68041,1.12998 h -2.64395 v -3.7527 h 2.55477 c 2.86025,0 5.54884,-1.06844 7.56643,-3.00524 2.10677,-2.02252 3.26825,-4.73541 3.26825,-7.63724 0,-2.90193 -1.15931,-5.61255 -3.26825,-7.63731 C 19.61306,6.41718 16.92674,5.35094 14.06422,5.35094 H 8.51763 L 4.50926,1.60266 h 9.64641 c 1.97077,0 3.88129,0.38033 5.67814,1.12998 1.73669,0.72548 3.29719,1.76312 4.63931,3.08437 1.33986,1.32124 2.3921,2.86233 3.12771,4.57488 0.7603,1.77412 1.14598,3.65818 1.14598,5.60376 0,1.94558 -0.38568,3.82964 -1.14598,5.60376 z" id="path1" style="fill:#000000;stroke-width:0.0987656" />
</svg>
