<?xml version="1.0" encoding="utf-8"?>
<!-- Generator: Adobe Illustrator 23.0.6, SVG Export Plug-In . SVG Version: 6.00 Build 0)  -->
<svg version="1.1" id="Camada_1" xmlns="http://www.w3.org/2000/svg" xmlns:xlink="http://www.w3.org/1999/xlink" x="0px" y="0px"
	 viewBox="0 0 300 120" style="enable-background:new 0 0 300 120;" xml:space="preserve">
<title>dailymotion</title>
<path d="M74,33.6c-2.9,0.1-5.3,2.5-5.2,5.4c0.1,2.9,2.5,5.3,5.4,5.2c2.9-0.1,5.2-2.4,5.2-5.3C79.4,35.9,77,33.6,74,33.6z"/>
<rect x="69.7" y="47.5" width="8.7" height="29.4"/>
<polygon points="109.9,64.6 104.2,47.5 94.5,47.5 105.5,75.1 101.2,86.4 110,86.4 125.6,47.5 116.2,47.5 "/>
<polygon points="83,76.9 91.7,76.9 91.7,36.2 83,38 "/>
<path d="M56.3,50.8c-2-2.5-5.2-3.9-8.4-3.7c-3.7,0-7.3,1.4-9.9,4c-6.1,5.7-6.4,15.2-0.8,21.3c0.4,0.4,0.8,0.8,1.2,1.1
	c2.6,2.3,5.9,3.5,9.3,3.4c3.3,0.2,6.5-1.1,8.8-3.4v3.3H65V47.5h-8.8L56.3,50.8L56.3,50.8z M49.7,69.2c-4.5,0-7.7-3.1-7.7-7.2
	c0-4.1,3.3-7.3,7.4-7.3c4,0,7.3,3.2,7.3,7.2c0,0.1,0,0.1,0,0.2C56.7,66,53.6,69.1,49.7,69.2z"/>
<path d="M23.1,50.7c-2-2.5-5.2-3.9-8.4-3.7c-3.7,0-7.3,1.4-9.9,4C-1.3,56.7-1.6,66.2,4,72.3c0.4,0.4,0.8,0.8,1.2,1.1
	c2.6,2.3,5.9,3.5,9.3,3.4c3.3,0.2,6.5-1.1,8.8-3.4v3.3h8.5v-5.6c-1.5-2.8-2.3-5.9-2.3-9.1c0-3.1,0.8-6.2,2.3-9l0,0V36.1L23,37.9
	v12.8H23.1z M16.5,69.1c-4.5,0-7.7-3.1-7.7-7.2c0-4.1,3.3-7.3,7.4-7.3c4,0,7.3,3.2,7.3,7.2c0,0.1,0,0.1,0,0.2c0.1,3.9-3,7-6.9,7.1
	C16.6,69.1,16.5,69.1,16.5,69.1z"/>
<path d="M253.9,46.8c-4.1,0-8.1,1.7-11,4.6c-3,2.8-4.6,6.7-4.6,10.8c-0.1,4,1.5,7.9,4.4,10.8c2.9,3.1,7,4.9,11.3,4.7
	c4.2,0.1,8.3-1.6,11.3-4.6c3-2.9,4.6-6.9,4.5-11c0-4.2-1.8-8.2-4.9-11C261.9,48.3,258,46.7,253.9,46.8z M254,69.5
	c-3.9-0.1-7-3.3-7-7.2c0-3.9,3.1-7.2,7-7.3c3.9,0,7.1,3.3,7,7.2c0,0,0,0.1,0,0.1c0.1,3.9-2.9,7.1-6.8,7.2
	C254.1,69.5,254.1,69.5,254,69.5z"/>
<path d="M227.6,76.9h8.7v-7c-1.1-2.4-1.6-5-1.6-7.7c0-2.6,0.6-5.1,1.6-7.5v-7.1h-8.7V76.9z"/>
<path d="M231.9,33.6c-2.9,0.1-5.3,2.5-5.2,5.4c0.1,2.9,2.5,5.3,5.4,5.2c2.9-0.1,5.2-2.4,5.2-5.3C237.3,35.9,234.9,33.6,231.9,33.6z"
	/>
<path d="M289.8,46.9c-3.5-0.2-6.8,1.5-8.6,4.5l0.1-3.9H273v29.4h8.6v-16c0-3.9,1.8-6,5.3-6s4.3,1.9,4.3,6v15.9h8.8V57.5
	C300,50.8,296,46.9,289.8,46.9z"/>
<polygon points="219.8,36.2 210.9,38 210.9,47.7 207.1,47.7 207.1,56.2 210.9,56.2 210.9,76.9 219.8,76.9 219.8,56.2 223.7,56.2 
	223.7,47.7 219.8,47.7 "/>
<path d="M189.5,46.8c-4.1,0-8.1,1.7-11,4.6c-2.9,2.8-4.6,6.7-4.6,10.8c-0.1,4,1.5,7.9,4.4,10.8c2.9,3.1,7,4.9,11.3,4.7
	c4.2,0.1,8.3-1.6,11.3-4.6c3-2.9,4.6-6.9,4.5-11c0-4.2-1.8-8.2-4.9-11C197.5,48.3,193.6,46.7,189.5,46.8z M189.7,69.5
	c-3.9,0-7-3.2-7-7.1c0,0,0,0,0-0.1c0-3.9,3.1-7.2,7-7.3c4,0,7.3,3.2,7.3,7.3S193.7,69.5,189.7,69.5z"/>
<path d="M172.3,54c-0.3-1.4-1-2.8-1.9-3.9c-1.8-1.9-4.2-3-6.8-3c-2.1-0.3-4.3,0.1-6.2,1.1c-1.6,1-3.1,2.2-4.4,3.6
	c-1.6-2.9-4.7-4.7-8.1-4.7c-3.4-0.2-6.6,1.5-8.3,4.5v-3.9h-7.9v29.4h8.3V61.4c0-3.2,0.8-6.4,5.2-6.4c3.8,0,4.1,3.1,4.1,5.6v16.3h8.6
	V61.3c0-5,2.2-6.3,5.2-6.3c2.4,0,4.1,1.1,4.1,5.6v16.3h8.6v-5.6c-1.5-2.8-2.3-6-2.3-9.2C170.4,59.3,171,56.5,172.3,54z"/>
</svg>
