<?xml version="1.0" encoding="UTF-8"?><svg id="a" xmlns="http://www.w3.org/2000/svg" viewBox="0 0 488.28 80"><path d="m100.56,76.21h-8.96L108.59,3.7h8.86l-16.89,72.51h0Z" style="stroke-width:0px;"/><path d="m142.26,76.21h-29.93L129.44,3.7h8.96l-15.21,64.38h20.95l-1.88,8.11v.02Z" style="stroke-width:0px;"/><path d="m165.75,48.18l-6.47,28.03h-9.08l6.57-28.25-5-44.26h9.08l2.61,35.33L182.96,3.7h10.11l-27.32,44.46v.02Z" style="stroke-width:0px;"/><path d="m366.53,11.83h-13.13l-14.21,64.38h-9.08l14.21-64.38h-14.4l1.98-8.11h36.62s-1.98,8.11-1.98,8.11Z" style="stroke-width:0px;"/><path d="m366.24,76.21h-8.03L374.27,3.7h8.86l-15.97,72.51h-.93Z" style="stroke-width:0px;"/><path d="m424.8,24.11l-7.93,35.57c-1.07,5.03-2.59,8.64-4.52,11.21-2.98,4-7.84,5.96-14.4,5.96-10.84,0-17.07-4.74-17.19-12.84-.02-2.37.24-4.52,1.12-8.42l7.93-35.57c2.64-12.04,8.81-17.48,19.56-17.48s16.33,4.93,16.46,13.16c.02,2.37-.24,4.83-1.03,8.42h0Zm-15.84-13.99c-3.12,0-5.52,1.03-7.15,3.08-1.34,1.64-2.03,3.81-3.03,8.01l-7.93,35.77c-.49,2.15-.78,4.22-.76,5.76.07,4.32,2.91,6.69,7.81,6.69,5.22,0,7.98-2.98,9.64-10.38l8.03-35.35c.78-3.49,1.07-5.15,1.05-6.79-.07-4.42-2.81-6.79-7.71-6.79h.05Z" style="stroke-width:0px;"/><path d="m200.02,3.79h15.01l4.13,41.58c.73,8.01,1.17,14.48,1.71,23.24h.22c3.49-8.64,6.47-15.21,10.38-23.24L251.98,3.79h15.23l-8.13,72.39h-9.94l5.18-43.24c.95-7.81,2-14.48,3.3-22.49l-.22-.1c-3.59,7.81-6.76,14.67-10.69,22.61l-20.95,43.24h-12.82l-4.03-43.24c-.73-7.81-1.27-14.79-1.81-22.49h-.2c-1.78,7.71-3.49,14.58-5.71,22.49l-11.65,43.24h-10.06L200,3.82l.02-.02Z" style="stroke-width:0px;"/><path d="m326.64,39.95c-5.37,27.81-17.07,37.55-35.5,37.55-14.55,0-22.56-6.23-22.56-22.19,0-4.79.51-9.45,1.68-15.26,5.59-27.81,17.07-37.55,35.62-37.55,14.43,0,22.56,6.23,22.56,22.22,0,4.79-.63,9.45-1.78,15.26h0l-.02-.02Zm-21.92-29.76c-12.01,0-20.12,7.79-24.54,30.08-1.17,5.18-1.78,10.28-1.78,14.43,0,10.79,4.64,15.14,13.79,15.14,12.11,0,20.12-7.79,24.66-30.08,1.05-5.18,1.78-10.28,1.78-14.43,0-10.69-4.64-15.14-13.92-15.14Z" style="stroke-width:0px;"/><path d="m31.84,3.7c-1.71,0-16.75.24-16.75.24L0,76.33h7.13c4.05-.05,5.57.05,9.52.05,18.51,0,30.22-8.3,35.62-36.01h0c1.17-5.79,1.81-10.42,1.81-15.19,0-15.94-7.74-21.46-22.24-21.46v-.02Zm11.38,36.62c-4.57,22.22-11.84,27.29-24.02,27.37-4.25,0-5.22,0-8.45-.07L22.29,11.75h0c3.61-.07,4.47-.1,7.79-.07,9.33.07,14.89,3.59,14.89,14.26,0,4.15-.73,9.2-1.78,14.38h.02Z" style="stroke-width:0px;"/><path d="m479.2,3.7l-14.36,64.94-10.64-64.94h-14.99l-16.31,72.53h9.42l14.33-66.06,10.57,66.06h14.84L488.28,3.7s-9.08,0-9.08,0Z" style="stroke-width:0px;"/><path d="m77.73,3.72l-29.83,72.51h9.59l5.42-13.55,3.44-8.42,1.22-3.25h10.06l-.32,3.25-.73,8.42-1.05,13.55h9.08L90.23,3.72h-12.52.02Zm-6.96,38.75l11.55-32.18-3.81,32.18h-7.74Z" style="stroke-width:0px;"/></svg>