<?xml version="1.0" encoding="UTF-8"?>
<svg id="Camada_1" data-name="Camada 1" xmlns="http://www.w3.org/2000/svg" viewBox="0 0 200 80">
  <path d="m41.19,54.83h-3.67l6.96-29.7h3.63l-6.92,29.7h0Z"/>
  <path d="m58.27,54.83h-12.26l7.01-29.7h3.67l-6.23,26.37h8.58l-.77,3.32Z"/>
  <path d="m67.89,43.35l-2.65,11.48h-3.72l2.69-11.57-2.05-18.13h3.72l1.07,14.47,7.99-14.47h4.14l-11.19,18.21Z"/>
  <path d="m150.13,28.46h-5.38l-5.82,26.37h-3.72l5.82-26.37h-5.9l.81-3.32h15l-.81,3.32Z"/>
  <path d="m150.01,54.83h-3.29l6.58-29.7h3.63l-6.54,29.7h-.38Z"/>
  <path d="m174,33.49l-3.25,14.57c-.44,2.06-1.06,3.54-1.85,4.59-1.22,1.64-3.21,2.44-5.9,2.44-4.44,0-6.99-1.94-7.04-5.26-.01-.97.1-1.85.46-3.45l3.25-14.57c1.08-4.93,3.61-7.16,8.01-7.16s6.69,2.02,6.74,5.39c.01.97-.1,1.98-.42,3.45h0Zm-6.49-5.73c-1.28,0-2.26.42-2.93,1.26-.55.67-.83,1.56-1.24,3.28l-3.25,14.65c-.2.88-.32,1.73-.31,2.36.03,1.77,1.19,2.74,3.2,2.74,2.14,0,3.27-1.22,3.95-4.25l3.29-14.48c.32-1.43.44-2.11.43-2.78-.03-1.81-1.15-2.78-3.16-2.78h0Z"/>
  <path d="m81.93,25.17h6.15l1.69,17.03c.3,3.28.48,5.93.7,9.52h.09c1.43-3.54,2.65-6.23,4.25-9.52l8.4-17.03h6.24l-3.33,29.65h-4.07l2.12-17.71c.39-3.2.82-5.93,1.35-9.21l-.09-.04c-1.47,3.2-2.77,6.01-4.38,9.26l-8.58,17.71h-5.25l-1.65-17.71c-.3-3.2-.52-6.06-.74-9.21h-.08c-.73,3.16-1.43,5.97-2.34,9.21l-4.77,17.71h-4.12l8.4-29.65Z"/>
  <path d="m133.79,39.98c-2.2,11.39-6.99,15.38-14.54,15.38-5.96,0-9.24-2.55-9.24-9.09,0-1.96.21-3.87.69-6.25,2.29-11.39,6.99-15.38,14.59-15.38,5.91,0,9.24,2.55,9.24,9.1,0,1.96-.26,3.87-.73,6.25h0Zm-8.98-12.19c-4.92,0-8.24,3.19-10.05,12.32-.48,2.12-.73,4.21-.73,5.91,0,4.42,1.9,6.2,5.65,6.2,4.96,0,8.24-3.19,10.1-12.32.43-2.12.73-4.21.73-5.91,0-4.38-1.9-6.2-5.7-6.2Z"/>
  <path d="m13.04,25.13c-.7,0-6.86.1-6.86.1L0,54.88h2.92c1.66-.02,2.28.02,3.9.02,7.58,0,12.38-3.4,14.59-14.75h0c.48-2.37.74-4.27.74-6.22,0-6.53-3.17-8.79-9.11-8.79Zm4.66,15c-1.87,9.1-4.85,11.18-9.84,11.21-1.74,0-2.14,0-3.46-.03l4.73-22.88h0c1.48-.03,1.83-.04,3.19-.03,3.82.03,6.1,1.47,6.1,5.84,0,1.7-.3,3.77-.73,5.89h0Z"/>
  <path d="m196.28,25.13l-5.88,26.6-4.36-26.6h-6.14l-6.68,29.71h3.86l5.87-27.06,4.33,27.06h6.08l6.64-29.71h-3.72Z"/>
  <path d="m31.84,25.14l-12.22,29.7h3.93l2.22-5.55,1.41-3.45.5-1.33h4.12l-.13,1.33-.3,3.45-.43,5.55h3.72l2.3-29.7h-5.13,0Zm-2.85,15.87l4.73-13.18-1.56,13.18h-3.17Z"/>
</svg>