<?xml version="1.0" encoding="UTF-8" standalone="no"?>
<svg data-test-id="LOGO" focusable="false" class="header-logo__logo___zeGAy" viewBox="0 0 32 32" version="1.1" id="svg1" sodipodi:docname="dazn.svg" width="32" height="32" inkscape:version="1.4-beta2 (9aaf4f34, 2024-07-30)" xmlns:inkscape="http://www.inkscape.org/namespaces/inkscape" xmlns:sodipodi="http://sodipodi.sourceforge.net/DTD/sodipodi-0.dtd" xmlns="http://www.w3.org/2000/svg" xmlns:svg="http://www.w3.org/2000/svg">
  <defs id="defs1" />
  <sodipodi:namedview id="namedview1" pagecolor="#ffffff" bordercolor="#000000" borderopacity="0.25" inkscape:showpageshadow="2" inkscape:pageopacity="0.0" inkscape:pagecheckerboard="0" inkscape:deskcolor="#d1d1d1" inkscape:zoom="3.845101" inkscape:cx="-1.5604272" inkscape:cy="6.1116731" inkscape:window-width="1440" inkscape:window-height="872" inkscape:window-x="0" inkscape:window-y="0" inkscape:window-maximized="1" inkscape:current-layer="svg1" />
  <path d="m 19.698667,11.054667 1.0288,-3.461867 1.054133,3.461867 z m 5.130666,3.024 L 22.128933,5.908 C 22.0688,5.7278667 22.000267,5.6094667 21.923467,5.554 21.846,5.4985333 21.721467,5.4702667 21.5504,5.4702667 h -1.491733 c -0.1716,0 -0.2976,0.0304 -0.379334,0.09 C 19.597867,5.62 19.531333,5.7362667 19.48,5.908 l -2.725867,8.170667 c -0.03453,0.04307 -0.0512,0.127866 -0.0512,0.256666 0,0.197867 0.119867,0.296267 0.36,0.296267 h 1.118534 c 0.103066,0 0.186266,-0.0043 0.250533,-0.01253 0.0644,-0.0084 0.115733,-0.0304 0.154533,-0.06493 0.03867,-0.0336 0.07253,-0.08587 0.102934,-0.154 0.02987,-0.06907 0.06187,-0.159066 0.09627,-0.270133 l 0.4244,-1.428267 h 3.073334 l 0.4368,1.402134 c 0.03453,0.1204 0.06853,0.214666 0.103066,0.283733 0.034,0.068 0.0728,0.121333 0.1156,0.160267 0.04293,0.03867 0.09413,0.06267 0.1544,0.0712 0.0596,0.0083 0.137067,0.01253 0.2312,0.01253 h 1.196 c 0.239734,0 0.36,-0.0984 0.36,-0.296267 0,-0.05973 -0.002,-0.100666 -0.0063,-0.121466 -0.0048,-0.022 -0.01933,-0.06707 -0.04493,-0.1352 z m -1.325866,3.2896 h -0.861734 c -0.222933,0 -0.371066,0.0324 -0.4436,0.0964 -0.0728,0.0648 -0.108933,0.195733 -0.108933,0.392666 V 22.7076 l -2.545867,-4.862933 c -0.103066,-0.206134 -0.204,-0.3372 -0.3024,-0.392534 -0.0988,-0.0556 -0.272,-0.08387 -0.520666,-0.08387 h -0.797334 c -0.2228,0 -0.370933,0.0324 -0.4436,0.0964 -0.0728,0.0648 -0.109333,0.195737 -0.109333,0.39267 v 8.1832 c 0,0.198 0.034,0.327867 0.102933,0.3928 0.06853,0.06373 0.214134,0.09627 0.436934,0.09627 h 0.8748 c 0.2224,0 0.3704,-0.03253 0.4432,-0.09627 0.07267,-0.06493 0.109333,-0.194666 0.109333,-0.3928 v -4.864 l 2.545867,4.876534 c 0.103066,0.2064 0.203466,0.337333 0.3024,0.3928 0.0984,0.0564 0.272,0.08373 0.520533,0.08373 h 0.797333 c 0.222934,0 0.370534,-0.03253 0.443734,-0.09627 0.07267,-0.06493 0.109333,-0.194666 0.109333,-0.3928 v -8.1832 c 0,-0.196933 -0.03667,-0.327866 -0.109333,-0.392666 -0.07333,-0.064 -0.2208,-0.0964 -0.4436,-0.0964 z m 4.270666,-0.7748 2.22,2.22 V 29.994133 H 2.006 V 18.8116 l 2.2178667,-2.217867 a 0.8396,0.8396 0 0 0 0,-1.187466 l -2.218,-2.217867 V 2.0057333 H 29.994267 V 13.185867 l -2.22,2.220133 a 0.8396,0.8396 0 0 0 0,1.187467 z M 32,0 H 0 V 14.151067 L 1.8489333,16 0,17.848933 V 32 H 32 V 17.848933 L 30.1512,16 32,14.151067 Z M 14.227067,24.624933 H 10.6124 l 3.8064,-5.352 c 0.05987,-0.08587 0.09867,-0.1548 0.116,-0.206266 0.01733,-0.0512 0.02573,-0.110934 0.02573,-0.18 v -1.029334 c 0,-0.196933 -0.0368,-0.327866 -0.109733,-0.392666 -0.07293,-0.064 -0.2216,-0.0964 -0.4452,-0.0964 H 8.5097333 c -0.198,0 -0.3266666,0.03667 -0.3869333,0.108933 -0.060267,0.07333 -0.090267,0.225067 -0.090267,0.4576 v 0.771733 c 0,0.231334 0.03,0.384267 0.090267,0.456534 0.060267,0.07333 0.1889333,0.109866 0.3869333,0.109866 H 11.9024 l -3.7542667,5.352 c -0.095067,0.1204 -0.1424,0.2408 -0.1424,0.360134 v 1.055466 c 0,0.198 0.0368,0.327867 0.1097334,0.3928 0.073067,0.06373 0.2216,0.09627 0.4453333,0.09627 h 5.666267 c 0.197866,0 0.327066,-0.03667 0.387466,-0.108933 0.05987,-0.07333 0.09027,-0.2252 0.09027,-0.4576 v -0.7716 c 0,-0.2316 -0.0304,-0.383334 -0.09027,-0.456534 -0.0604,-0.07333 -0.1896,-0.11 -0.387466,-0.11 z M 12.544533,10.977067 c 0,0.352 -0.02347,0.646133 -0.07067,0.881733 -0.04707,0.2356 -0.124,0.4272 -0.2312,0.5728 -0.1072,0.145467 -0.248534,0.248133 -0.4244,0.308933 -0.175734,0.0596 -0.392267,0.09 -0.649334,0.09 H 10.1148 V 7.2713333 h 1.054267 c 0.488666,0 0.839733,0.1445334 1.054266,0.4313334 0.214,0.2870666 0.321334,0.7613333 0.321334,1.422 V 10.977067 Z M 14.3836,7.2586667 C 14.083333,6.6493333 13.674267,6.1990667 13.1556,5.908 12.636667,5.6158667 11.9832,5.4702667 11.194667,5.4702667 H 8.5586667 c -0.2229334,0 -0.3709334,0.0324 -0.4437334,0.0964 C 8.0422667,5.6314667 8.0056,5.7624 8.0056,5.9593333 v 8.1831997 c 0,0.198 0.036667,0.327734 0.1093333,0.3928 0.0728,0.06373 0.2208,0.09627 0.4437334,0.09627 h 2.9570663 c 1.397467,0 2.353334,-0.595867 2.867734,-1.788533 0.119733,-0.274267 0.203466,-0.550667 0.250666,-0.8304 0.04707,-0.278534 0.07053,-0.6324 0.07053,-1.060667 V 9.2148 c 0,-0.4890667 -0.02347,-0.8753333 -0.07067,-1.1581333 a 2.9393333,2.9393333 0 0 0 -0.250533,-0.798 z" fill-rule="nonzero" id="path1" style="fill:#000000;stroke-width:0.133333" />
</svg>
