<?xml version="1.0" encoding="UTF-8"?><svg id="a" xmlns="http://www.w3.org/2000/svg" viewBox="0 0 234.78 80"><g id="b"><path id="c" d="m54.94,43.32c0,9.39,5.79,15.03,14.4,15.03,4.3,0,7.9-1.17,9.94-4.38v4.38h7.9V13.5h-8.14v19.1c-1.88-3.13-5.32-4.54-9.55-4.54-8.45,0-14.56,5.71-14.56,15.26h0Zm24.34,0c0,5.4-3.68,8.77-8.06,8.77s-8.06-3.37-8.06-8.77,3.52-8.92,8.06-8.92c4.38.08,8.06,3.52,8.06,8.92Z" style="stroke-width:0px;"/><path id="d" d="m112.62,46.84c-.94,3.44-3.29,5.24-7.04,5.24-4.38,0-7.9-2.66-7.98-7.28h20.58c.23-1.17.39-2.35.39-3.68,0-8.3-5.71-13.07-14.09-13.07-8.92,0-15.1,6.34-15.1,15.03,0,9.63,6.81,15.42,16.2,15.42,7.12,0,11.9-2.97,14.01-8.84l-6.97-2.82Zm-15.03-7.51c.78-3.37,3.6-5.32,6.89-5.32,3.68,0,6.18,1.96,6.18,5.09l-.08.23s-12.99,0-12.99,0Z" style="stroke-width:0px;"/><path id="e" d="m142.9,46.84c-.94,3.44-3.29,5.24-7.04,5.24-4.38,0-7.9-2.66-7.98-7.28h20.58c.23-1.17.39-2.35.39-3.68,0-8.3-5.71-13.07-14.09-13.07-8.92,0-15.1,6.34-15.1,15.03,0,9.63,6.81,15.42,16.2,15.42,7.12,0,11.9-2.97,14.01-8.84l-6.97-2.82Zm-15.03-7.51c.78-3.37,3.6-5.32,6.97-5.32,3.68,0,6.18,1.96,6.18,5.09l-.08.23s-13.07,0-13.07,0Z" style="stroke-width:0px;"/><path id="f" d="m177.65,58.42v-7.36h-17.14l16.67-16.28v-6.73h-26.45v7.04h16.12l-16.59,16.28v7.04s27.39,0,27.39,0Z" style="stroke-width:0px;"/><path id="g" d="m201.52,46.84c-.94,3.44-3.29,5.24-7.04,5.24-4.38,0-7.9-2.66-7.98-7.28h20.58c.23-1.17.39-2.35.39-3.68,0-8.3-5.71-13.07-14.09-13.07-8.92,0-15.1,6.34-15.1,15.03,0,9.63,6.81,15.42,16.2,15.42,7.12,0,11.9-2.97,14.01-8.84l-6.97-2.82Zm-15.03-7.51c.78-3.37,3.6-5.32,6.97-5.32,3.68,0,6.18,1.96,6.18,5.09l-.08.23s-13.07,0-13.07,0Z" style="stroke-width:0px;"/><rect id="h" x="36.55" y="28.06" width="10.1" height="5.87" style="stroke-width:0px;"/><rect id="i" x="36.55" y="36.2" width="10.1" height="5.87" style="stroke-width:0px;"/><rect id="j" x="36.55" y="44.41" width="10.1" height="5.87" style="stroke-width:0px;"/><rect id="k" y="52.55" width="10.1" height="5.87" style="stroke-width:0px;"/><rect id="l" x="12.13" y="52.55" width="10.1" height="5.87" style="stroke-width:0px;"/><rect id="m" x="24.34" y="52.55" width="10.1" height="5.87" style="stroke-width:0px;"/><rect id="n" x="36.55" y="52.55" width="10.1" height="5.87" style="stroke-width:0px;"/><rect id="o" x="24.34" y="44.41" width="10.1" height="5.87" style="stroke-width:0px;"/><rect id="p" x="12.13" y="44.41" width="10.1" height="5.87" style="stroke-width:0px;"/><rect id="q" x="12.13" y="36.2" width="10.1" height="5.87" style="stroke-width:0px;"/><path id="r" d="m226.8,38.54v.86h7.98v-2.35c0-5.24-3.29-9-8.77-9-3.52,0-6.03,1.72-7.28,4.54v-4.54h-8.22v30.37h8.22v-19.57c0-3.13,1.64-4.77,4.23-4.77,2.35,0,3.83,2.19,3.83,4.46Z" style="stroke-width:0px;"/></g></svg>