<?xml version="1.0" encoding="UTF-8" standalone="no"?>
<svg id="Camada_1" viewBox="0 0 31.999999 32" version="1.1" sodipodi:docname="deezer.svg" width="32" height="32" inkscape:version="1.4-beta2 (9aaf4f34, 2024-07-30)" xmlns:inkscape="http://www.inkscape.org/namespaces/inkscape" xmlns:sodipodi="http://sodipodi.sourceforge.net/DTD/sodipodi-0.dtd" xmlns="http://www.w3.org/2000/svg" xmlns:svg="http://www.w3.org/2000/svg">
  <sodipodi:namedview id="namedview2" pagecolor="#ffffff" bordercolor="#000000" borderopacity="0.25" inkscape:showpageshadow="2" inkscape:pageopacity="0.0" inkscape:pagecheckerboard="0" inkscape:deskcolor="#d1d1d1" inkscape:zoom="0.325" inkscape:cx="141.53846" inkscape:cy="38.461538" inkscape:window-width="1440" inkscape:window-height="790" inkscape:window-x="0" inkscape:window-y="0" inkscape:window-maximized="1" inkscape:current-layer="Camada_1" />
  <defs id="defs1">
    <style id="style1">.cls-1{fill-rule:evenodd;stroke-width:0px;}</style>
  </defs>
  <g id="g2" transform="matrix(0.39995001,0,0,0.39995001,-1.5005e-7,0.00399935)">
    <path class="cls-1" d="m 67.1,12.21 c 0.74,-4.29 1.83,-6.99 3.03,-6.99 v 0 c 2.24,0 4.06,9.36 4.06,20.91 0,11.55 -1.82,20.91 -4.07,20.91 -0.92,0 -1.77,-1.59 -2.45,-4.25 -1.08,9.75 -3.32,16.46 -5.92,16.46 -2.01,0 -3.81,-4.03 -5.02,-10.38 -0.83,12.08 -2.91,20.65 -5.34,20.65 -1.53,0 -2.92,-3.4 -3.95,-8.93 C 46.2,72 43.34,80 40,80 c -3.34,0 -6.2,-8 -7.44,-19.41 -1.02,5.53 -2.41,8.93 -3.95,8.93 -2.43,0 -4.51,-8.57 -5.34,-20.65 -1.21,6.35 -3.01,10.38 -5.02,10.38 -2.59,0 -4.84,-6.7 -5.92,-16.46 -0.68,2.67 -1.53,4.25 -2.45,4.25 -2.25,0 -4.07,-9.36 -4.07,-20.91 0,-11.55 1.82,-20.92 4.07,-20.92 1.21,0 2.28,2.71 3.03,6.99 1.2,-7.4 3.14,-12.21 5.34,-12.21 2.61,0 4.88,6.8 5.95,16.67 1.05,-7.19 2.64,-11.77 4.42,-11.77 2.5,0 4.62,9.01 5.4,21.58 1.48,-6.44 3.62,-10.49 5.98,-10.49 2.36,0 4.51,4.05 5.98,10.49 0.79,-12.57 2.91,-21.58 5.4,-21.58 1.78,0 3.36,4.58 4.42,11.77 1.07,-9.87 3.33,-16.67 5.94,-16.67 2.19,0 4.15,4.81 5.34,12.21 v 0 z M 0,24.07 c 0,-5.16 1.03,-9.35 2.31,-9.35 1.28,0 2.31,4.19 2.31,9.35 0,5.16 -1.03,9.35 -2.31,9.35 C 1.03,33.42 0,29.23 0,24.07 Z m 75.39,0 c 0,-5.16 1.03,-9.35 2.31,-9.35 1.28,0 2.31,4.19 2.31,9.35 0,5.16 -1.03,9.35 -2.31,9.35 -1.28,0 -2.31,-4.19 -2.31,-9.35 z" id="path2" />
  </g>
</svg>
