<?xml version="1.0" encoding="utf-8"?>
<!-- Generator: Adobe Illustrator 24.0.2, SVG Export Plug-In . SVG Version: 6.00 Build 0)  -->
<svg version="1.1"
	 id="Calque_1" inkscape:version="0.92.4 (5da689c313, 2019-01-14)" sodipodi:docname="index.svg" xmlns:cc="http://creativecommons.org/ns#" xmlns:dc="http://purl.org/dc/elements/1.1/" xmlns:inkscape="http://www.inkscape.org/namespaces/inkscape" xmlns:rdf="http://www.w3.org/1999/02/22-rdf-syntax-ns#" xmlns:sodipodi="http://sodipodi.sourceforge.net/DTD/sodipodi-0.dtd" xmlns:svg="http://www.w3.org/2000/svg"
	 xmlns="http://www.w3.org/2000/svg" xmlns:xlink="http://www.w3.org/1999/xlink" x="0px" y="0px" viewBox="0 0 300 120"
	 style="enable-background:new 0 0 300 120;" xml:space="preserve">
<style type="text/css">
	.st0{fill-rule:evenodd;clip-rule:evenodd;}
</style>
<g id="g8252" transform="translate(0,86.843818)">
	<path id="path8175" inkscape:connector-curvature="0" d="M70.2-17.5c0,12,7.4,19.2,18.4,19.2c5.5,0,10.1-1.5,12.7-5.6v5.6h10.1
		v-57.3h-10.4v24.4c-2.4-4-6.8-5.8-12.2-5.8C78-37,70.2-29.7,70.2-17.5L70.2-17.5z M101.3-17.5c0,6.9-4.7,11.2-10.3,11.2
		c-5.8,0-10.3-4.3-10.3-11.2c0-7,4.5-11.4,10.3-11.4C96.6-28.8,101.3-24.4,101.3-17.5z"/>
	<path id="path8177" inkscape:connector-curvature="0" d="M143.9-13c-1.2,4.4-4.2,6.7-9,6.7c-5.6,0-10.1-3.4-10.2-9.3H151
		c0.3-1.5,0.5-3,0.5-4.7c0-10.6-7.3-16.7-18-16.7c-11.4,0-19.3,8.1-19.3,19.2c0,12.3,8.7,19.7,20.7,19.7c9.1,0,15.2-3.8,17.9-11.3
		L143.9-13z M124.7-22.6c1-4.3,4.6-6.8,8.8-6.8c4.7,0,7.9,2.5,7.9,6.5l-0.1,0.3C141.3-22.6,124.7-22.6,124.7-22.6z"/>
	<path id="path8179" inkscape:connector-curvature="0" d="M182.6-13c-1.2,4.4-4.2,6.7-9,6.7c-5.6,0-10.1-3.4-10.2-9.3h26.3
		c0.3-1.5,0.5-3,0.5-4.7c0-10.6-7.3-16.7-18-16.7c-11.4,0-19.3,8.1-19.3,19.2c0,12.3,8.7,19.7,20.7,19.7c9.1,0,15.2-3.8,17.9-11.3
		L182.6-13z M163.4-22.6c1-4.3,4.6-6.8,8.9-6.8c4.7,0,7.9,2.5,7.9,6.5l-0.1,0.3H163.4z"/>
	<path id="path8181" inkscape:connector-curvature="0" d="M227,1.8v-9.4h-21.9l21.3-20.8V-37h-33.8v9h20.6L192-7.2v9H227z"/>
	<path id="path8183" inkscape:connector-curvature="0" d="M257.5-13c-1.2,4.4-4.2,6.7-9,6.7c-5.6,0-10.1-3.4-10.2-9.3h26.3
		c0.3-1.5,0.5-3,0.5-4.7c0-10.6-7.3-16.7-18-16.7c-11.4,0-19.3,8.1-19.3,19.2c0,12.3,8.7,19.7,20.7,19.7c9.1,0,15.2-3.8,17.9-11.3
		L257.5-13z M238.3-22.6c1-4.3,4.6-6.8,8.9-6.8c4.7,0,7.9,2.5,7.9,6.5l-0.1,0.3H238.3z"/>
	<rect id="rect8185" x="46.7" y="-37" class="st0" width="12.9" height="7.5"/>
	<rect id="rect8192" x="46.7" y="-26.6" class="st0" width="12.9" height="7.5"/>
	<rect id="rect8199" x="46.7" y="-16.1" class="st0" width="12.9" height="7.5"/>
	<rect id="rect8206" y="-5.7" class="st0" width="12.9" height="7.5"/>
	<rect id="rect8213" x="15.5" y="-5.7" class="st0" width="12.9" height="7.5"/>
	<rect id="rect8220" x="31.1" y="-5.7" class="st0" width="12.9" height="7.5"/>
	<rect id="rect8227" x="46.7" y="-5.7" class="st0" width="12.9" height="7.5"/>
	<rect id="rect8234" x="31.1" y="-16.1" class="st0" width="12.9" height="7.5"/>
	<rect id="rect8241" x="15.5" y="-16.1" class="st0" width="12.9" height="7.5"/>
	<rect id="rect8248" x="15.5" y="-26.6" class="st0" width="12.9" height="7.5"/>
	<path id="path8250" inkscape:connector-curvature="0" d="M289.8-23.6c0,0.4,0,1.1,0,1.1H300c0,0,0-1.9,0-3
		c0-6.7-4.2-11.5-11.2-11.5c-4.5,0-7.7,2.2-9.3,5.8V-37H269V1.8h10.5v-25c0-4,2.1-6.1,5.4-6.1C287.9-29.3,289.8-26.5,289.8-23.6z"/>
</g>
</svg>
