<?xml version="1.0" encoding="UTF-8"?><svg id="Camada_1" xmlns="http://www.w3.org/2000/svg" viewBox="0 0 285.54 80"><defs><style>.cls-1{fill-rule:evenodd;stroke-width:0px;}</style></defs><path class="cls-1" d="m101.71,24.25h15.84c9.8,0,16.74,6.52,16.74,15.79s-6.93,15.79-16.74,15.79h-15.84v-31.59Zm12.31,23.06h2.87c3.08,0,4.72-2.05,4.72-7.26s-1.64-7.26-4.72-7.26h-2.87v14.52Zm48.16,8.53h-26.01v-31.59h26.01v8.53h-13.74v3.65h12.92v6.97h-12.92v3.9h13.74v8.53Zm28.96,0h-26.01v-31.59h26.01v8.53h-13.74v3.65h12.92v6.97h-12.92v3.9h13.74v8.53Zm94.4,0c-1.77-4.83-4.25-9.98-7.59-15.76,3.9-1.14,6.23-3.6,6.23-7.38,0-5.74-5.29-8.45-13.66-8.45h-17.23v31.59h12.31v-13.07c2.73,4.61,4.75,8.95,6.07,13.07h13.87Zm-19.94-17.48v-5.58h4.27c1.81,0,2.83.98,2.83,2.79s-1.03,2.79-2.83,2.79h-4.27Zm-15.26,17.48h-26.01v-31.59h26.01v8.53h-13.74v3.65h12.92v6.97h-12.92v3.9h13.74v8.53Zm-56.24-23.06h12.7c-5.27,4.31-9.6,9.19-12.95,14.52v8.53h27.94v-8.53h-13.96c3.2-4.66,7.67-9.29,13.96-14.52v-8.53h-27.69v8.53h0Z"/><path class="cls-1" d="m67.1,12.21c.74-4.29,1.83-6.99,3.03-6.99h0c2.24,0,4.06,9.36,4.06,20.91s-1.82,20.91-4.07,20.91c-.92,0-1.77-1.59-2.45-4.25-1.08,9.75-3.32,16.46-5.92,16.46-2.01,0-3.81-4.03-5.02-10.38-.83,12.08-2.91,20.65-5.34,20.65-1.53,0-2.92-3.4-3.95-8.93-1.24,11.41-4.1,19.41-7.44,19.41s-6.2-8-7.44-19.41c-1.02,5.53-2.41,8.93-3.95,8.93-2.43,0-4.51-8.57-5.34-20.65-1.21,6.35-3.01,10.38-5.02,10.38-2.59,0-4.84-6.7-5.92-16.46-.68,2.67-1.53,4.25-2.45,4.25-2.25,0-4.07-9.36-4.07-20.91S7.63,5.21,9.88,5.21c1.21,0,2.28,2.71,3.03,6.99,1.2-7.4,3.14-12.21,5.34-12.21,2.61,0,4.88,6.8,5.95,16.67,1.05-7.19,2.64-11.77,4.42-11.77,2.5,0,4.62,9.01,5.4,21.58,1.48-6.44,3.62-10.49,5.98-10.49s4.51,4.05,5.98,10.49c.79-12.57,2.91-21.58,5.4-21.58,1.78,0,3.36,4.58,4.42,11.77,1.07-9.87,3.33-16.67,5.94-16.67,2.19,0,4.15,4.81,5.34,12.21h0ZM0,24.07c0-5.16,1.03-9.35,2.31-9.35s2.31,4.19,2.31,9.35-1.03,9.35-2.31,9.35S0,29.23,0,24.07Zm75.39,0c0-5.16,1.03-9.35,2.31-9.35s2.31,4.19,2.31,9.35-1.03,9.35-2.31,9.35-2.31-4.19-2.31-9.35Z"/></svg>