<?xml version="1.0" encoding="UTF-8" standalone="no"?>
<svg id="a" viewBox="0 0 32.000001 32" version="1.1" width="32" height="32" xmlns="http://www.w3.org/2000/svg" xmlns:svg="http://www.w3.org/2000/svg">
  <defs id="defs4" />
  <g id="g4" transform="matrix(0.57192184,0,0,0.57192184,9.7299194e-4,-6.8711544)">
    <path d="m 11.99,12.75 c -3.22,0.63 -6.34,2.38 -8.39,4.68 -0.63,0.7 -1.56,2.11 -2.06,3.1 -1.63,3.33 -1.58,2.78 -1.52,20.07 l 0.07,15.45 0.66,1.7 c 1.38,3.62 3.99,6.54 7.26,8.17 1.74,0.86 4.26,1.54 5.65,1.56 h 0.68 v -14.1 c 0,-15.86 -0.04,-15.34 1.77,-18.8 1.63,-3.15 4.8,-5.79 8.3,-6.97 1.34,-0.45 2.06,-0.5 7.99,-0.59 l 6.49,-0.09 V 12.51 l -12.94,0.03 c -7.12,0.03 -13.42,0.11 -13.96,0.23 v 0 z" style="stroke-width:0px" id="path1" />
    <path d="m 41.6,26.23 c 0,15.48 -0.03,15.59 -1.61,18.84 -1.27,2.58 -3.82,5.16 -6.31,6.38 -2.81,1.38 -3.85,1.54 -10.79,1.54 h -6.18 v 14.5 l 13.76,-0.07 13.73,-0.07 1.92,-0.7 c 2.45,-0.86 4.1,-1.95 5.97,-3.93 1.58,-1.7 3.01,-4.3 3.55,-6.56 0.25,-0.97 0.31,-4.43 0.31,-16.41 V 24.6 L 55.34,22.79 C 54,18.87 51.38,15.82 47.89,14.1 c -1.7,-0.84 -4.53,-1.61 -5.88,-1.61 -0.41,0 -0.43,0.36 -0.43,13.73 z" style="stroke-width:0px" id="path2" />
    <path d="m 25.99,28.48 c -4.16,1.11 -7.73,4.07 -9.53,7.89 -0.74,1.61 -1.34,3.73 -1.34,4.87 0.02,0.51 0.29,0.28 0.81,-0.7 1.61,-3.01 4.53,-5.52 7.85,-6.74 1.61,-0.59 1.74,-0.59 8.37,-0.66 l 6.72,-0.07 v -4.96 l -5.81,0.03 c -4.39,0 -6.15,0.09 -7.08,0.34 v 0 z" style="stroke-width:0px" id="path4" />
  </g>
</svg>
