<?xml version="1.0" encoding="UTF-8"?><svg id="a" xmlns="http://www.w3.org/2000/svg" viewBox="0 0 216.58 80"><defs><style>.b{stroke-width:0px;}</style></defs><path class="b" d="m14.17,7.79c-3.8.75-7.49,2.81-9.92,5.53-.75.83-1.84,2.49-2.43,3.66C-.1,20.92-.05,20.28.03,40.71l.08,18.26.78,2.01c1.63,4.28,4.71,7.73,8.58,9.65,2.06,1.02,5.03,1.82,6.68,1.84h.8v-16.66c0-18.74-.05-18.13,2.09-22.22,1.93-3.72,5.67-6.84,9.81-8.24,1.58-.53,2.43-.59,9.44-.7l7.67-.11V7.5l-15.29.03c-8.42.03-15.86.13-16.5.27Z"/><path class="b" d="m49.17,23.73c0,18.29-.03,18.42-1.9,22.27-1.5,3.05-4.52,6.1-7.46,7.54-3.32,1.63-4.55,1.82-12.75,1.82h-7.3v17.14l16.26-.08,16.23-.08,2.27-.83c2.89-1.02,4.84-2.3,7.06-4.65,1.87-2.01,3.56-5.08,4.2-7.75.29-1.15.37-5.24.37-19.39v-17.91l-.72-2.14c-1.58-4.63-4.68-8.24-8.8-10.27-2.01-.99-5.35-1.9-6.95-1.9-.48,0-.51.43-.51,16.23Z"/><path class="b" d="m74.57,39.56v29.97h9.06c9.89,0,14.52-.27,18.61-1.1,8.58-1.74,15.37-5.78,19.97-11.84,1.5-1.98,3.61-5.83,3.74-6.82.05-.24.13,4.09.21,9.6l.13,10.03h10.43l.08-10.72.05-10.72,6.36-.16c6.76-.19,8.61-.43,12.35-1.76,4.55-1.6,8.5-4.92,10.61-8.9l.53-.99.16,7.27c.13,5.59.29,7.86.7,9.81,1.82,9.09,6.58,14.12,15.48,16.39,2.06.51,2.99.59,8.34.56,5.64,0,6.18-.05,8.69-.72,1.47-.4,3.82-1.28,5.21-1.95,2.09-1.02,2.94-1.66,4.71-3.42,3.13-3.13,4.55-5.88,5.8-11.26.53-2.3.56-3.24.64-22.81l.11-20.37h-10.7l-.08,20.11c-.11,22.33-.03,21.2-1.95,25.27-1.47,3.13-3.98,5.19-7.49,6.12-1.76.48-7.09.48-8.88,0-4.76-1.26-7.75-4.57-9.22-10.08-.56-2.19-.59-2.67-.67-21.84l-.11-19.57h-10.67v10.29l-.67-1.18c-2.7-4.71-7.67-7.65-14.84-8.72-1.9-.29-5.37-.4-13.82-.4h-11.31l-.03,8.88c0,7.62-.05,8.77-.35,7.97-1.55-4.2-4.84-8.42-8.53-10.94-3.32-2.27-8.32-4.14-13.66-5.16-2.67-.48-4.25-.56-15.99-.67l-13.05-.13v29.97Zm74.47-21.23c3.64.78,6.02,2.46,7.33,5.21.64,1.34.7,1.76.7,4.81s-.05,3.48-.7,4.84c-.96,2.03-2.33,3.48-4.28,4.52-2.7,1.44-3.88,1.66-9.79,1.79l-5.43.13v-21.71h5.16c3.5,0,5.72.13,7.01.4Zm-46.55.75c5.96,1.6,9.81,4.52,12.06,9.14,1.18,2.43,1.74,4.68,2.01,8.07.83,10.48-2.89,18.21-10.56,22.01-4.14,2.03-7.91,2.67-15.96,2.67h-5.03V18.14l7.43.11c6.93.13,7.57.19,10.05.83Z"/><path class="b" d="m30.72,26.38c-4.92,1.31-9.14,4.81-11.26,9.33-.88,1.9-1.58,4.41-1.58,5.75q.03.91.96-.83c1.9-3.56,5.35-6.52,9.28-7.97,1.9-.7,2.06-.7,9.89-.78l7.94-.08v-5.86l-6.87.03c-5.19,0-7.27.11-8.37.4Z"/></svg>