<?xml version="1.0" encoding="UTF-8"?><svg id="a" xmlns="http://www.w3.org/2000/svg" viewBox="0 0 183.23 80"><path d="m11.99,12.75c-3.22.63-6.34,2.38-8.39,4.68-.63.7-1.56,2.11-2.06,3.1C-.09,23.86-.04,23.31.02,40.6l.07,15.45.66,1.7c1.38,3.62,3.99,6.54,7.26,8.17,1.74.86,4.26,1.54,5.65,1.56h.68v-14.1c0-15.86-.04-15.34,1.77-18.8,1.63-3.15,4.8-5.79,8.3-6.97,1.34-.45,2.06-.5,7.99-.59l6.49-.09v-14.42l-12.94.03c-7.12.03-13.42.11-13.96.23h0Z" style="stroke-width:0px;"/><path d="m41.6,26.23c0,15.48-.03,15.59-1.61,18.84-1.27,2.58-3.82,5.16-6.31,6.38-2.81,1.38-3.85,1.54-10.79,1.54h-6.18v14.5l13.76-.07,13.73-.07,1.92-.7c2.45-.86,4.1-1.95,5.97-3.93,1.58-1.7,3.01-4.3,3.55-6.56.25-.97.31-4.43.31-16.41v-15.15l-.61-1.81c-1.34-3.92-3.96-6.97-7.45-8.69-1.7-.84-4.53-1.61-5.88-1.61-.41,0-.43.36-.43,13.73Z" style="stroke-width:0px;"/><path d="m63.1,39.63v25.36h7.67c8.37,0,12.29-.23,15.75-.93,7.26-1.47,13.01-4.89,16.9-10.02,1.27-1.68,3.05-4.93,3.16-5.77.04-.2.11,3.46.18,8.12l.11,8.49h8.83l.07-9.07.04-9.07,5.38-.14c5.72-.16,7.29-.36,10.45-1.49,3.85-1.35,7.19-4.16,8.98-7.53l.45-.84.14,6.15c.11,4.73.25,6.65.59,8.3,1.54,7.69,5.57,11.95,13.1,13.87,1.74.43,2.53.5,7.06.47,4.77,0,5.23-.04,7.35-.61,1.24-.34,3.23-1.08,4.41-1.65,1.77-.86,2.49-1.4,3.99-2.89,2.65-2.65,3.85-4.98,4.91-9.53.45-1.95.47-2.74.54-19.3l.09-17.24h-9.05l-.07,17.02c-.09,18.89-.03,17.94-1.65,21.38-1.24,2.65-3.37,4.39-6.34,5.18-1.49.41-6,.41-7.51,0-4.03-1.07-6.56-3.87-7.8-8.53-.47-1.85-.5-2.26-.57-18.48l-.09-16.56h-9.03v8.71l-.57-1c-2.28-3.99-6.49-6.47-12.56-7.38-1.61-.25-4.54-.34-11.69-.34h-9.57l-.03,7.51c0,6.45-.04,7.42-.3,6.74-1.31-3.55-4.1-7.12-7.22-9.26-2.81-1.92-7.04-3.5-11.56-4.37-2.26-.41-3.6-.47-13.53-.57l-11.04-.11v25.36h.04Zm63.01-17.96c3.08.66,5.09,2.08,6.2,4.41.54,1.13.59,1.49.59,4.07s-.04,2.94-.59,4.1c-.81,1.72-1.97,2.94-3.62,3.82-2.28,1.22-3.28,1.4-8.28,1.51l-4.59.11v-18.37h4.37c2.96,0,4.84.11,5.93.34h0Zm-39.39.63c5.04,1.35,8.3,3.82,10.2,7.73,1,2.06,1.47,3.96,1.7,6.83.7,8.87-2.45,15.41-8.94,18.62-3.5,1.72-6.69,2.26-13.5,2.26h-4.26V21.5l6.29.09c5.86.11,6.41.16,8.5.7Z" style="stroke-width:0px;"/><path d="m25.99,28.48c-4.16,1.11-7.73,4.07-9.53,7.89-.74,1.61-1.34,3.73-1.34,4.87.02.51.29.28.81-.7,1.61-3.01,4.53-5.52,7.85-6.74,1.61-.59,1.74-.59,8.37-.66l6.72-.07v-4.96l-5.81.03c-4.39,0-6.15.09-7.08.34h0Z" style="stroke-width:0px;"/></svg>