<?xml version="1.0" encoding="UTF-8" standalone="no"?>
<svg width="33" height="32" viewBox="0 0 33 32" fill="none" version="1.1" id="svg1" xmlns="http://www.w3.org/2000/svg" xmlns:svg="http://www.w3.org/2000/svg">
  <defs id="defs1" />
  <g id="g4" style="fill:#000000" transform="translate(0,33.802734)">
    <path d="m 16.951172,-23.552734 -2.708984,12.498046 c 0.744,1e-6 1.232703,-0.146734 1.470703,-0.427734 0.236,-0.291 0.486578,-1.059172 0.767578,-2.326172 l 1.597656,-7.382812 c 0.187,-0.857 0.277391,-1.415063 0.275391,-1.664063 0.0018,-0.1047 -0.02377,-0.208081 -0.07227,-0.300781 -0.0486,-0.0928 -0.119931,-0.170316 -0.207031,-0.228516 -0.182,-0.112 -0.556047,-0.167968 -1.123047,-0.167968 z" style="fill:#000000" id="path4" />
    <path d="m 4.5,-33.802734 c -2.216,0 -4,1.784 -4,4 v 23.9999996 c 0,2.216 1.784,4 4,4 h 24 c 2.216,0 4,-1.784 4,-4 V -29.802734 c 0,-2.216 -1.784,-4 -4,-4 z m 8.125,7 h 3.78125 c 2.44,0 4.070766,0.106218 4.884766,0.324218 0.811,0.218 1.386515,0.578219 1.728515,1.074219 0.343,0.508 0.495516,1.060735 0.478516,1.677735 -0.023,0.62 -0.230188,1.817187 -0.617188,3.617187 l -1.447265,6.65625 c -0.365,1.713 -0.702328,2.847828 -0.986328,3.423828 -0.29,0.5770001 -0.672344,1.033422 -1.152344,1.357422 -0.481,0.326 -1.030063,0.5446875 -1.664063,0.6796875 -0.626,0.124 -1.543859,0.1894531 -2.755859,0.1894531 H 8.5 Z" style="fill:#000000" id="path2" />
  </g>
</svg>
