<?xml version="1.0" encoding="utf-8"?>
<!-- Generator: Adobe Illustrator 23.0.6, SVG Export Plug-In . SVG Version: 6.00 Build 0)  -->
<svg version="1.1" id="Camada_1" xmlns="http://www.w3.org/2000/svg" xmlns:xlink="http://www.w3.org/1999/xlink" x="0px" y="0px"
	 viewBox="0 0 300 120" style="enable-background:new 0 0 300 120;" xml:space="preserve">
<title>digg</title>
<path d="M81.6,47.1h7.3V73h-7.3V47.1z M63,87.8h44.4V10H88.9v22.2H63V87.8z M114.8,32.2h18.5v55.6h-18.6L114.8,32.2z M114.8,10h18.5
	v14.8h-18.6L114.8,10z M159.3,47h7.4v26h-7.4V47z M140.7,87.8h25.9v7.4h-25.9V110h44.4V32.2h-44.4V87.8z M211.1,47h7.4v26h-7.4V47z
	 M192.6,87.8h25.9v7.4h-25.9V110H237V32.2h-44.4V87.8z"/>
</svg>
