<?xml version="1.0" encoding="UTF-8"?><svg id="a" xmlns="http://www.w3.org/2000/svg" viewBox="0 0 300 80"><defs><style>.b{stroke-width:0px;}</style></defs><path class="b" d="m62.91,16.6c-4.88-2.24-10.04-3.82-15.34-4.72-.74,1.3-1.41,2.63-2,4-5.64-.82-11.36-.82-17,0-.53-1.24-1.31-2.81-1.95-4-5.28.89-10.42,2.48-15.28,4.72C1.63,30.93-1,44.91.31,58.71c5.69,4.18,12.05,7.36,18.8,9.41,1.51-2.04,2.85-4.21,4-6.48-2.2-.81-4.32-1.82-6.34-3,.53-.38,1-.79,1.54-1.2,11.89,5.59,25.65,5.59,37.54,0,.52.41,1,.82,1.53,1.2-2.02,1.18-4.14,2.19-6.33,3,1.15,2.27,2.49,4.44,4,6.48,6.75-2.04,13.11-5.23,18.79-9.41,1.63-15.97-2.53-29.85-10.93-42.11ZM24.8,50.2c-3.67,0-6.67-3.34-6.67-7.43s2.93-7.42,6.67-7.42,6.75,3.34,6.68,7.42c-.07,4.08-2.96,7.43-6.68,7.43Zm24.65,0c-3.68,0-6.68-3.34-6.68-7.43s2.93-7.42,6.68-7.42,6.74,3.34,6.67,7.42c-.07,4.08-2.93,7.43-6.67,7.43Z"/><path class="b" d="m99.85,23.65h15.94c3.34-.09,6.66.52,9.75,1.8,2.47,1.01,4.56,2.76,6,5,1.35,2.21,2.04,4.76,2,7.35.03,2.6-.69,5.15-2.07,7.35-1.54,2.32-3.73,4.13-6.3,5.21-3.31,1.37-6.88,2.02-10.46,1.91h-14.86v-28.62Zm14.62,21.35c2.18.16,4.33-.54,6-1.95,1.43-1.38,2.19-3.31,2.1-5.29.09-1.86-.59-3.67-1.88-5-1.24-1.24-3.11-1.88-5.62-1.88h-5v14.12h4.4Z"/><path class="b" d="m158.31,52.22c-2.12-.5-4.15-1.35-6-2.51v-6.78c1.62,1.17,3.43,2.03,5.36,2.55,2.12.65,4.32.98,6.53,1,.76.05,1.51-.08,2.21-.38.49-.26.75-.56.75-.93,0-.37-.15-.73-.41-1-.47-.35-1.01-.59-1.58-.71l-4.91-1.09c-2.2-.36-4.27-1.3-6-2.7-1.21-1.19-1.85-2.84-1.76-4.53-.01-1.53.55-3.01,1.58-4.14,1.22-1.27,2.74-2.2,4.42-2.7,2.17-.69,4.43-1.03,6.71-1,2.12-.04,4.24.22,6.3.75,1.66.41,3.26,1.07,4.73,1.95v6.41c-1.39-.79-2.88-1.4-4.43-1.8-1.69-.45-3.42-.67-5.17-.67-2.55,0-3.83.45-3.83,1.31,0,.41.23.78.6.94.7.3,1.43.51,2.18.64l4.09.75c2.19.24,4.26,1.08,6,2.43,1.4,1.33,2.13,3.21,2,5.14.01,2.41-1.27,4.65-3.36,5.85-2.17,1.46-5.24,2.17-9.22,2.17-2.29-.06-4.57-.38-6.79-.95Z"/><path class="b" d="m187.72,51.36c-4.41-1.99-7.19-6.44-7.05-11.28-.04-2.32.6-4.6,1.83-6.57,1.32-2.01,3.2-3.6,5.4-4.57,2.69-1.16,5.59-1.72,8.52-1.65,3.57-.14,7.09.76,10.16,2.59v7.46c-1.03-.69-2.15-1.23-3.34-1.58-1.31-.41-2.68-.61-4.05-.6-2.09-.13-4.18.36-6,1.39-2,1.12-2.71,3.65-1.59,5.65.37.67.92,1.22,1.59,1.59,1.82,1.05,3.9,1.54,6,1.42,1.36,0,2.71-.19,4-.6,1.2-.34,2.34-.83,3.41-1.46v7.24c-3.16,1.84-6.76,2.77-10.42,2.7-2.91.06-5.81-.53-8.46-1.73Z"/><path class="b" d="m217.27,51.36c-2.21-1.02-4.08-2.64-5.4-4.68-1.25-2-1.9-4.32-1.87-6.68-.03-2.32.62-4.6,1.88-6.56,1.33-1.98,3.18-3.54,5.36-4.5,2.64-1.16,5.49-1.72,8.37-1.65,2.89-.09,5.75.47,8.39,1.65,2.18.96,4.03,2.52,5.36,4.5,1.23,1.96,1.86,4.24,1.8,6.56.1,4.88-2.71,9.35-7.16,11.36-5.32,2.31-11.37,2.31-16.69,0h-.04Zm12.41-7.23c1.01-1.06,1.55-2.48,1.5-3.94.08-1.45-.46-2.88-1.5-3.9-1.1-1.01-2.56-1.54-4.05-1.46-1.51-.09-3,.44-4.12,1.46-2,2.23-2,5.61,0,7.84,1.11,1.05,2.6,1.59,4.12,1.5,1.49.05,2.95-.49,4.05-1.5h0Z"/><path class="b" d="m266.25,28.79v8.81c-1.23-.71-2.63-1.06-4.05-1-1.88-.1-3.71.63-5,2-1.16,1.32-1.76,3.38-1.76,6.15v7.5h-10v-23.87h9.82v7.62c.3-2.25,1.21-4.38,2.63-6.15,1.2-1.31,2.9-2.04,4.68-2,1.29-.03,2.56.29,3.68.94Z"/><path class="b" d="m300,22.83v29.43h-10v-5.36c-.77,1.91-2.12,3.53-3.87,4.61-1.95,1.11-4.17,1.66-6.41,1.58-4.23.12-8.11-2.33-9.82-6.19-.92-2.05-1.38-4.28-1.35-6.53-.08-2.34.42-4.65,1.45-6.75.93-1.91,2.39-3.51,4.2-4.62,1.86-1.14,4-1.73,6.18-1.69,4.77,0,8,2.06,9.61,6.22v-10.7h10.01Zm-11.51,21.11c1.02-1.02,1.57-2.43,1.51-3.87.06-1.39-.48-2.75-1.49-3.71-1.12-.98-2.57-1.49-4.06-1.42-1.49-.08-2.95.45-4.05,1.46-2,2.13-2,5.44,0,7.57,2.32,1.98,5.75,1.98,8.07,0l.02-.03Z"/><path class="b" d="m142.71,29.8c2.73.13,5.05-1.96,5.22-4.69-.33-2.88-2.94-4.94-5.82-4.61-2.42.28-4.33,2.19-4.61,4.61.17,2.72,2.48,4.81,5.21,4.69Z"/><path class="b" d="m147.93,33c-3.33,1.41-7.1,1.41-10.43,0v19.26h10.43v-19.26Z"/></svg>