<?xml version="1.0" encoding="UTF-8" standalone="no"?>
<svg id="a" viewBox="0 0 31.999999 32" version="1.1" sodipodi:docname="discogs.svg" width="32" height="32" inkscape:version="1.4-beta2 (9aaf4f34, 2024-07-30)" xmlns:inkscape="http://www.inkscape.org/namespaces/inkscape" xmlns:sodipodi="http://sodipodi.sourceforge.net/DTD/sodipodi-0.dtd" xmlns="http://www.w3.org/2000/svg" xmlns:svg="http://www.w3.org/2000/svg">
  <defs id="defs6" />
  <sodipodi:namedview id="namedview6" pagecolor="#ffffff" bordercolor="#000000" borderopacity="0.25" inkscape:showpageshadow="2" inkscape:pageopacity="0.0" inkscape:pagecheckerboard="0" inkscape:deskcolor="#d1d1d1" inkscape:zoom="1.0522482" inkscape:cx="22.808306" inkscape:cy="145.87813" inkscape:window-width="1440" inkscape:window-height="790" inkscape:window-x="0" inkscape:window-y="0" inkscape:window-maximized="1" inkscape:current-layer="a" />
  <g id="g13" transform="matrix(0.88740987,0,0,0.88740987,-65.730449,-23.250139)">
    <path style="stroke-width:0px" d="m 92.93,44.2 c 0,0.43 -0.37,0.8 -0.8,0.8 -0.43,0 -0.8,-0.37 -0.8,-0.8 0,-0.43 0.37,-0.8 0.8,-0.8 0.43,0 0.8,0.37 0.8,0.8 z" id="path2" />
    <path style="stroke-width:0px" d="m 98.78,44.2 c 0,3.69 -2.99,6.68 -6.64,6.68 -1.13,0 -2.16,-0.27 -3.09,-0.76 l -1.26,2.23 c 1.3,0.7 2.79,1.1 4.35,1.1 5.08,0 9.23,-4.15 9.23,-9.23 0,-2.52 -1.03,-4.82 -2.66,-6.48 l -1.76,1.89 c 1.13,1.2 1.83,2.79 1.83,4.58 v 0 z" id="path10" />
    <path style="stroke-width:0px" d="m 82.9,44.2 c 0,2.62 1.1,4.95 2.82,6.64 l 1.73,-1.89 0.03,0.03 c -1.26,-1.2 -2.03,-2.89 -2.03,-4.78 0,-3.69 2.99,-6.68 6.68,-6.68 1.23,0 2.36,0.33 3.32,0.9 l 1.23,-2.26 c -1.36,-0.76 -2.89,-1.2 -4.55,-1.2 -5.08,0 -9.23,4.15 -9.23,9.23 v 0 z" id="path3" />
    <path style="stroke-width:0px" d="m 101.67,44.2 c 0,5.28 -4.28,9.57 -9.56,9.57 -1.58,0 -3.13,-0.39 -4.52,-1.13 l -1.26,2.26 c 5.91,3.19 13.29,0.98 16.48,-4.93 0.95,-1.77 1.46,-3.75 1.46,-5.76 0,-3.35 -1.36,-6.41 -3.59,-8.6 l -1.76,1.89 c 1.73,1.73 2.76,4.09 2.76,6.71 v 0 z" id="path11" />
    <path style="stroke-width:0px" d="m 79.98,44.2 c 0,3.45 1.46,6.58 3.79,8.8 l 1.76,-1.89 c -1.83,-1.73 -2.96,-4.18 -2.96,-6.88 0,-5.28 4.28,-9.57 9.57,-9.57 1.73,0 3.32,0.46 4.72,1.26 l 1.26,-2.26 c -1.76,-1 -3.79,-1.56 -5.98,-1.56 -6.66,-0.05 -12.1,5.31 -12.16,11.97 0,0.04 0,0.08 0,0.12 v 0 z" id="path4" />
    <path style="stroke-width:0px" d="m 77.02,44.2 c 0,4.32 1.83,8.2 4.72,10.96 l 1.76,-1.93 c -2.48,-2.35 -3.89,-5.62 -3.89,-9.03 0,-6.87 5.61,-12.49 12.49,-12.49 2.23,0 4.32,0.6 6.11,1.63 l 1.26,-2.29 C 97.28,29.82 94.75,29.12 92.1,29.12 83.8,29.09 77.02,35.86 77.02,44.2 Z" id="path12" />
    <path style="stroke-width:0px" d="m 104.59,44.2 c -0.02,6.91 -5.64,12.5 -12.55,12.48 -2.05,0 -4.08,-0.52 -5.89,-1.49 l -1.3,2.29 c 2.16,1.16 4.62,1.86 7.24,1.86 8.34,0 15.08,-6.78 15.08,-15.08 0,-4.22 -1.73,-8.04 -4.52,-10.76 l -1.76,1.93 c 2.29,2.16 3.69,5.31 3.69,8.77 z" id="path5" />
    <path style="stroke-width:0px" d="m 76.69,44.2 c 0,-8.5 6.91,-15.41 15.41,-15.41 2.72,0 5.31,0.73 7.54,1.99 l 1.23,-2.23 c -2.52,-1.43 -5.41,-2.26 -8.5,-2.29 h -0.3 c -9.9,0 -17.9,7.97 -18,17.84 v 0.17 c 0,5.15 2.19,9.8 5.68,13.09 l 1.79,-1.93 C 78.55,52.57 76.69,48.62 76.69,44.2 Z" id="path13" />
    <path style="stroke-width:0px" d="m 104.65,31.31 -1.73,1.86 c 2.86,2.79 4.65,6.71 4.65,10.99 0,8.5 -6.91,15.41 -15.41,15.41 -2.69,0 -5.18,-0.7 -7.37,-1.89 l -1.3,2.29 c 2.56,1.39 5.51,2.23 8.64,2.23 9.93,0 18,-8.07 18,-18 -0.03,-5.05 -2.13,-9.6 -5.48,-12.89 z" id="path6" />
  </g>
</svg>
