<?xml version="1.0" encoding="UTF-8" standalone="no"?>
<svg id="a" viewBox="0 0 32 32" version="1.1" sodipodi:docname="discord.svg" width="32" height="32" inkscape:version="1.4-beta2 (9aaf4f34, 2024-07-30)" xmlns:inkscape="http://www.inkscape.org/namespaces/inkscape" xmlns:sodipodi="http://sodipodi.sourceforge.net/DTD/sodipodi-0.dtd" xmlns="http://www.w3.org/2000/svg" xmlns:svg="http://www.w3.org/2000/svg">
  <sodipodi:namedview id="namedview9" pagecolor="#ffffff" bordercolor="#000000" borderopacity="0.25" inkscape:showpageshadow="2" inkscape:pageopacity="0.0" inkscape:pagecheckerboard="0" inkscape:deskcolor="#d1d1d1" inkscape:zoom="2.1617874" inkscape:cx="12.952245" inkscape:cy="28.911261" inkscape:window-width="1440" inkscape:window-height="790" inkscape:window-x="0" inkscape:window-y="0" inkscape:window-maximized="1" inkscape:current-layer="a" />
  <defs id="defs1">
    <style id="style1">.b{stroke-width:0px;}</style>
  </defs>
  <g id="g9" transform="matrix(0.43131266,0,0,0.43131266,0.00151424,-1.2525064)">
    <path class="b" d="m 62.91,16.6 c -4.88,-2.24 -10.04,-3.82 -15.34,-4.72 -0.74,1.3 -1.41,2.63 -2,4 -5.64,-0.82 -11.36,-0.82 -17,0 -0.53,-1.24 -1.31,-2.81 -1.95,-4 C 21.34,12.77 16.2,14.36 11.34,16.6 1.63,30.93 -1,44.91 0.31,58.71 c 5.69,4.18 12.05,7.36 18.8,9.41 1.51,-2.04 2.85,-4.21 4,-6.48 -2.2,-0.81 -4.32,-1.82 -6.34,-3 0.53,-0.38 1,-0.79 1.54,-1.2 11.89,5.59 25.65,5.59 37.54,0 0.52,0.41 1,0.82 1.53,1.2 -2.02,1.18 -4.14,2.19 -6.33,3 1.15,2.27 2.49,4.44 4,6.48 C 61.8,66.08 68.16,62.89 73.84,58.71 75.47,42.74 71.31,28.86 62.91,16.6 Z M 24.8,50.2 c -3.67,0 -6.67,-3.34 -6.67,-7.43 0,-4.09 2.93,-7.42 6.67,-7.42 3.74,0 6.75,3.34 6.68,7.42 -0.07,4.08 -2.96,7.43 -6.68,7.43 z m 24.65,0 c -3.68,0 -6.68,-3.34 -6.68,-7.43 0,-4.09 2.93,-7.42 6.68,-7.42 3.75,0 6.74,3.34 6.67,7.42 -0.07,4.08 -2.93,7.43 -6.67,7.43 z" id="path1" />
  </g>
</svg>
