<svg id="Camada_1" data-name="Camada 1" xmlns="http://www.w3.org/2000/svg" viewBox="0 0 300 120"><path d="M62.91,36.6a61.38,61.38,0,0,0-15.34-4.72,40.55,40.55,0,0,0-2,4,59,59,0,0,0-17,0c-.53-1.24-1.31-2.81-1.95-4A60.37,60.37,0,0,0,11.34,36.6C1.63,50.93-1,64.91.31,78.71a62.31,62.31,0,0,0,18.8,9.41,45.52,45.52,0,0,0,4-6.48,40.13,40.13,0,0,1-6.34-3c.53-.38,1-.79,1.54-1.2a44.11,44.11,0,0,0,37.54,0c.52.41,1,.82,1.53,1.2a39.61,39.61,0,0,1-6.33,3,45.52,45.52,0,0,0,4,6.48,62,62,0,0,0,18.79-9.41C75.47,62.74,71.31,48.86,62.91,36.6ZM24.8,70.2c-3.67,0-6.67-3.34-6.67-7.43s2.93-7.42,6.67-7.42,6.75,3.34,6.68,7.42S28.52,70.2,24.8,70.2Zm24.65,0c-3.68,0-6.68-3.34-6.68-7.43s2.93-7.42,6.68-7.42,6.74,3.34,6.67,7.42S53.19,70.2,49.45,70.2Z"/><path d="M99.85,43.65h15.94a23.74,23.74,0,0,1,9.75,1.8,13,13,0,0,1,6,5,13.73,13.73,0,0,1,2,7.35,13.51,13.51,0,0,1-2.07,7.35,14.16,14.16,0,0,1-6.3,5.21,25.39,25.39,0,0,1-10.46,1.91H99.85ZM114.47,65a8.37,8.37,0,0,0,6-1.95,6.93,6.93,0,0,0,2.1-5.29,6.7,6.7,0,0,0-1.88-5c-1.24-1.24-3.11-1.88-5.62-1.88h-5V65Z"/><path d="M158.31,72.22a20,20,0,0,1-6-2.51V62.93a16.32,16.32,0,0,0,5.36,2.55,22.87,22.87,0,0,0,6.53,1,4.79,4.79,0,0,0,2.21-.38c.49-.26.75-.56.75-.93a1.41,1.41,0,0,0-.41-1,4,4,0,0,0-1.58-.71l-4.91-1.09a12.87,12.87,0,0,1-6-2.7,5.92,5.92,0,0,1-1.76-4.53A6.08,6.08,0,0,1,154.08,51a10.15,10.15,0,0,1,4.42-2.7,21.06,21.06,0,0,1,6.71-1,23.56,23.56,0,0,1,6.3.75A17.33,17.33,0,0,1,176.24,50v6.41a18.32,18.32,0,0,0-4.43-1.8,19.93,19.93,0,0,0-5.17-.67c-2.55,0-3.83.45-3.83,1.31a1,1,0,0,0,.6.94,9.87,9.87,0,0,0,2.18.64l4.09.75a11.94,11.94,0,0,1,6,2.43,6.48,6.48,0,0,1,2,5.14A6.71,6.71,0,0,1,174.32,71c-2.17,1.46-5.24,2.17-9.22,2.17A30.87,30.87,0,0,1,158.31,72.22Z"/><path d="M187.72,71.36a12,12,0,0,1-7.05-11.28,12,12,0,0,1,1.83-6.57,12.53,12.53,0,0,1,5.4-4.57,20.29,20.29,0,0,1,8.52-1.65,18.47,18.47,0,0,1,10.16,2.59v7.46a12.15,12.15,0,0,0-3.34-1.58,13.19,13.19,0,0,0-4.05-.6,10.84,10.84,0,0,0-6,1.39,4.15,4.15,0,0,0,0,7.24,10.78,10.78,0,0,0,6,1.42,13.09,13.09,0,0,0,4-.6,14.34,14.34,0,0,0,3.41-1.46v7.24a19.9,19.9,0,0,1-10.42,2.7A19.47,19.47,0,0,1,187.72,71.36Z"/><path d="M217.27,71.36a12.82,12.82,0,0,1-5.4-4.68A12.35,12.35,0,0,1,210,60a11.85,11.85,0,0,1,1.88-6.56,12.58,12.58,0,0,1,5.36-4.5,19.68,19.68,0,0,1,8.37-1.65A19.07,19.07,0,0,1,234,48.94a12.58,12.58,0,0,1,5.36,4.5A11.75,11.75,0,0,1,241.16,60,12.19,12.19,0,0,1,234,71.36a21,21,0,0,1-16.69,0Zm12.41-7.23a5.4,5.4,0,0,0,1.5-3.94,5.08,5.08,0,0,0-1.5-3.9,5.56,5.56,0,0,0-4.05-1.46,5.62,5.62,0,0,0-4.12,1.46,5.87,5.87,0,0,0,0,7.84,5.52,5.52,0,0,0,4.12,1.5A5.73,5.73,0,0,0,229.68,64.13Z"/><path d="M266.25,48.79V57.6a7.41,7.41,0,0,0-4.05-1,6.39,6.39,0,0,0-5,2c-1.16,1.32-1.76,3.38-1.76,6.15v7.5h-10V48.38h9.82V56a12.53,12.53,0,0,1,2.63-6.15,6.12,6.12,0,0,1,4.68-2A7,7,0,0,1,266.25,48.79Z"/><path d="M300,42.83V72.26H290V66.9a9.65,9.65,0,0,1-3.87,4.61,12.11,12.11,0,0,1-6.41,1.58,10.42,10.42,0,0,1-9.82-6.19,15.41,15.41,0,0,1-1.35-6.53A14.19,14.19,0,0,1,270,53.62,11.17,11.17,0,0,1,274.2,49a11.37,11.37,0,0,1,6.18-1.69c4.77,0,8,2.06,9.61,6.22V42.83ZM288.49,63.94A5.19,5.19,0,0,0,290,60.07a4.82,4.82,0,0,0-1.49-3.71,5.75,5.75,0,0,0-4.06-1.42,5.56,5.56,0,0,0-4.05,1.46,5.53,5.53,0,0,0,0,7.57,6.22,6.22,0,0,0,8.07,0Z"/><path d="M142.71,49.8a5,5,0,0,0,5.22-4.69,5.25,5.25,0,0,0-10.43,0A5,5,0,0,0,142.71,49.8Z"/><path d="M147.93,53a13.39,13.39,0,0,1-10.43,0V72.26h10.43Z"/></svg>