<svg width="32" height="32" xmlns="http://www.w3.org/2000/svg">
  <linearGradient id="a" x1="3.979" x2="43.979" y1="25" y2="25" gradientUnits="userSpaceOnUse">
    <stop offset="0" stop-color="#0d61a9"/>
    <stop offset="1" stop-color="#16528c"/>
  </linearGradient>
  <path fill="url(#a)" d="M24.945 26.97c-3.98 1.203-7.736.645-9.782.11-.056.825-.146 1.17-.28 1.303-.158.179-1.462.913-2.182-.133-.316-.501-.473-1.403-.562-2.227-4.61-2.072-6.746-5.123-6.813-5.235-.113-.11-1.158-1.19-.113-2.528.978-1.203 4.216-2.416 7.117-2.895.113-2.45.383-4.342.731-5.178.416-1.002.95-.111 1.417.557.383.5.619 2.65.64 4.365 1.89-.089 3.037.05 5.14.446 2.765.468 4.609 1.87 4.463 3.452-.135 1.559-1.573 2.204-2.136 2.25-.562.044-1.461-.368-1.461-.368-.63-.29-.056-.557.675-.869.81-.39.63-.779.63-.779-.293-.891-3.88-1.485-7.444-1.485 0 1.948.078 5.178.135 7.06 2.496.467 4.362.367 4.362.367s9.107-.256 9.366-6.014c.286-5.764-9.107-11.286-16.023-13.024C5.922 4.352 2.01 5.62 1.676 5.788c-.371.178-.034.245-.034.245s.372.055 1.05.278c.678.223.135.557.135.557-1.18.396-2.496.167-2.75-.367-.258-.524.17-1.003.676-1.704.473-.723 1.012-.701 1.012-.701 8.539-2.953 18.974 2.337 18.974 2.337 9.759 4.878 11.424 10.613 11.25 12.84-.158 2.194-1.013 5.902-7.029 7.706M6.168 19.008c-.967.445-.293 1.158-.293 1.158 1.822 1.931 4.048 3.14 6.185 3.897.247-3.341.225-4.532.225-6.215-3.306.224-5.217.758-6.117 1.16" style="fill:#000;stroke-width:.799979"/>
</svg>