<?xml version="1.0" encoding="UTF-8"?><svg id="a" xmlns="http://www.w3.org/2000/svg" xmlns:xlink="http://www.w3.org/1999/xlink" viewBox="0 0 147.2 80"><defs><clipPath id="b"><rect x="0" y="0" width="147.2" height="80" style="fill:none; stroke-width:0px;"/></clipPath></defs><g style="clip-path:url(#b);"><g id="c"><path d="m66.78,54.22h.18c1.24.12,2.46.42,3.63.87.86.35,1.56,1.01,1.96,1.85.71,1.29.84,2.83.36,4.22-.48,1.4-1.53,2.53-2.88,3.11-1.04.49-2.15.79-3.29.89-2.14.2-4.29-.18-6.23-1.11-1.28-.58-2.37-1.5-3.15-2.67-.52-.9-.47-2.02.13-2.87.97-1.33,3.07-1.63,4.67-1.57,1.53.09,3.04.37,4.5.82.59.2,1.15.46,1.69.78.16.13.22.35.17.55-.26.8-2.2,1.22-2.76,1.33-1.49.23-2.27-.34-4-1.01-.45-.19-.93-.32-1.41-.39-.77-.07-1.71.14-1.86.99-.07.43.44.84.83,1.01.8.36,1.67.55,2.55.55,2.67.04,5.64-.39,7.81-1.93.33-.2.55-.53.59-.91,0-.79-1.38-1.27-1.38-1.27-1.46-.61-4.16-.91-5.55-1.03-1.39-.12-3.77-.32-4.31-.41-.58-.06-1.14-.21-1.68-.42-.54-.24-.94-.7-1.12-1.26-.21-1.05.02-2.14.62-3.02,1.45-2.09,4.85-2.87,7.39-3.19,2.54-.32,6.43-.3,8.85.98.37.2.56.39.48.79-.16.7-.7,1.26-1.4,1.44-.93.21-1.88.33-2.84.36-2.91.16-6.43.07-9.2.83-.26.05-.5.15-.71.3-.43.47.81.61,1.07.67h.18l6.13.73m-17.33-12.98s.47-.71.87-1.25c.9-1.16,1.91-2.22,3.01-3.19l.67-.55s-.56.05-.87.12c-.88.27-1.69.73-2.39,1.33-.91.77-1.89,2-1.45,3.14.07.16.17.37.17.37m5.02,1.33c1.41-.1,2.77-.5,4-1.19,1.22-.67,3.01-2,2.83-3.58-.06-.47-.37-.88-.81-1.07-.48-.22-1.04-.22-1.53,0-.42.11-.83.28-1.21.51-1.69,1.06-3.2,2.39-4.46,3.94-.25.33-.5.67-.7.94-.2.27-.22.3-.21.34.04.15,1.51.14,2.07.1m-3.63,2.67c-.18.25-.33.52-.47.8-.09.15-.21.29-.35.41-.14.14-.33.22-.52.22s-.39-.08-.52-.22c-.5-.47-.79-1.12-.81-1.81.02-.29.02-.57,0-.86-.19-.44-.43-.86-.73-1.24-.29-.56-.46-1.18-.51-1.81.02-1.65.7-3.22,1.9-4.35,1.19-1.25,2.63-2.23,4.23-2.89,1.53-.67,3.75-1.08,5.43-.5.65.23,1.23.62,1.69,1.13.06.1.14.19.23.27.14.05.28.08.43.09.59.14,1.14.4,1.61.77.58.46.98,1.11,1.12,1.84.32,1.52-.56,3.19-1.55,4.2-1.55,1.67-3.45,2.97-5.57,3.82-1.13.45-2.33.66-3.54.63-.33,0-.67-.11-1.01-.14-.29-.04-.57-.11-.85-.21-.09-.06-.19-.12-.21-.09m1.95,3.33c.09.02.18.04.26.07.7.34,1.17,1.01,1.27,1.78.43,1.8.62,5.79.67,7.33.05,1.17.08,2.33.13,3.49.1,1.07.07,2.14-.09,3.21-.08.37-.3.7-.61.91-.52.21-1.09.27-1.64.15-1.12-.23-1.49-.95-1.65-2.06-.38-2.67-.19-7.82,0-10,.12-1.35.36-2.69.73-4,.13-.33.4-.99.88-.89m-33.98,4.43s-1.66.12-2.81.25c-1.96.22-3.9.62-5.79,1.2-.47.17-1.43.57-1.52,1.06-.03.51.18,1,.57,1.33.2.24,1.33,1.33,1.67,1.61,1.86,1.47,3.9,2.71,6.07,3.69.67.29,1.83.67,1.83.67,0,0-.09-3.24-.07-6.44,0-1.69.04-3.33.04-3.33m30.55,1.29c.03.92-.02,1.83-.17,2.74-.13.61-.3,1.21-.51,1.8-.3.67-.61,1.27-.92,1.85-.72,1.18-1.61,2.26-2.62,3.21-2.87,2.48-7.33,3.89-11.11,4.35-2.76.31-5.56.22-8.29-.28-.94-.17-2.34-.49-2.34-.49,0,0,0,.56-.04.95-.05.28-.13.55-.23.81-.18.4-.57.68-1.01.73-.56.14-1.16.11-1.71-.08-.87-.37-1.19-1.18-1.33-2.12-.12-.75-.25-2.06-.25-2.06,0,0-.67-.31-1.19-.58-1.64-.81-3.2-1.76-4.67-2.84-.38-.29-2-1.67-2.39-2-1.04-.92-1.94-1.99-2.67-3.17-.56-.84-.67-1.91-.29-2.85.57-1.43,2.61-2.5,4-3.11,1.8-.72,3.66-1.29,5.55-1.69.56-.07,1.11-.17,1.66-.3l.06-.05s.08-1.46.07-2c0-.54.37-3.85.5-4.55.12-.77.34-1.52.67-2.23.21-.24.57-.27.81-.07,1.53.95,2,4.23,2.1,5.9.07,1.02.1,2.55.1,2.55,0,0,1.75-.05,2.82,0,1.1.05,2.2.17,3.28.36,1.96.28,3.88.81,5.71,1.57,1.27.59,2.29,1.61,2.86,2.89.38.9.29,1.93-.24,2.75-.61,1.09-1.72,1.82-2.97,1.95-.72,0-1.43-.17-2.09-.47-.14-.14-.14-.36,0-.51.05-.05.67-.38,1.03-.57.17-.09.34-.21.48-.34.31-.2.51-.54.55-.91-.05-.45-.52-.72-.97-.9-2.72-.89-5.54-1.45-8.39-1.66-.8-.05-1.94-.09-1.94-.09l.24,11.29s.95.18,1.69.3c.43.06,2.23.23,2.71.23,3.65.1,7.71-.23,11.06-1.81,1.45-.63,2.76-1.56,3.84-2.72,1.39-1.62,2.06-3.73,1.86-5.85-.2-2.41-1.89-5.27-3.25-7.01-3.63-4.57-9.76-8.36-15.13-10.57-5.33-2.26-11.02-3.54-16.8-3.78-2.16-.09-4.32.07-6.45.47-.24.07-.48.15-.7.2-.18.04-.36.12-.52.22l-.09.08.2.09c.18.08.92.13,1.33.19.34.04.64.23.84.5.15.18.15.44,0,.62-.37.46-1.79.38-2.41.29-.62-.09-1.45-.31-1.61-.87-.09-.68.08-1.37.49-1.92.66-1.14,1.76-1.94,3.05-2.22,2.14-.57,4.33-.91,6.55-1.03,4.32-.1,8.62.54,12.73,1.88,2.7.84,5.34,1.87,7.9,3.07,1.97.98,3.89,2.06,5.75,3.24.47.31,3.18,2.3,3.61,2.67.88.72,2,1.75,2.87,2.58,1.81,1.77,3.35,3.79,4.59,6,.23.47.41.93.71,1.47.24.51.45,1.04.63,1.57.07.32.18.79.19.8.11.49.18.99.21,1.49m54.82-2.49c-2.46.38-4.93.63-7.41.73l-.67,2.12c1.54-.12,3.09-.12,4.63,0,0,0,.67-.07.71.72.01.51,0,1.02-.06,1.53,0,0-.04.48-.72.61-.68.13-5.79.31-5.79.31l-.81,2.77s-.31.67.37.46c.68-.21,5.92-1.17,6.61-1.02.89.26,1.46,1.14,1.33,2.06-.29,1.11-5.56,4.48-8.78,4.25,0,0-1.69.11-3.11-2.17-1.33-2.17.5-6.29.5-6.29,0,0-.84-1.92-.23-2.57.42-.28.91-.42,1.41-.41l1.3-2.67c-.89.04-1.75-.32-2.35-.99-.82-1.03-.89-1.5-.26-1.79.63-.29,6.81-1.45,11.03-1.33,0,0,1.47-.15,2.74,2.4,0,0,.61,1.03-.43,1.28m-15.91,10.3c-.54,1.27-1.97,2.63-3.75,1.79-1.78-.85-4.54-6.55-4.54-6.55,0,0-1.06-2.13-1.26-2.08,0,0-.23-.41-.37,1.91-.14,2.33,0,6.84-.89,7.55-.37.32-.86.46-1.34.38-.48-.08-.9-.37-1.15-.79-.5-.82-.71-2.77-.43-6.2.27-3.43,1.12-7.09,2.14-8.23.25-.34.65-.55,1.08-.55s.83.2,1.08.55c0,0,1.33,1.23,3.61,4.86l.4.67s2.04,3.43,2.25,3.42c0,0,.17.16.31.05.15-.11.13-1.16.13-1.16-.5-3.41-1.26-6.77-2.29-10.05-.16-.49-.19-1.02-.09-1.53.19-.74.93-.39.93-.39,0,0,2.89,1.45,4.29,6.15,1.4,4.7.46,8.93-.09,10.22m31.06-2.81c-1.33,2.29-5.02,7.09-9.95,5.96-1.91,4.43-3.19,9.11-3.79,13.89,0,0-.17,1.16-1.13.75-.96-.41-2.53-1.92-2.85-4.12-.34-2.89.95-7.77,3.57-13.37-.98-1.68-1.28-3.67-.84-5.57,0,0,.67-4.71,5.39-8.95,0,0,.57-.49.89-.34.33.15.19,1.68-.09,2.43-.29.75-2.4,4.39-2.4,4.39,0,0-1.33,2.46-.95,4.41,2.48-3.81,8.12-11.51,11.61-9.08,1.17.84,1.71,2.67,1.71,4.67.02,1.72-.39,3.42-1.19,4.95m-1.02-6.04s-.19-1.51-1.67.15c-2.13,2.3-3.96,4.87-5.43,7.64,1.6-.21,3.12-.85,4.39-1.85.92-.81,3.07-3.03,2.72-6m28.17-.35h-9.04c-.18-3.07-.56-6.12-1.13-9.14-.06-.32-.34-.55-.67-.55h-2.05c-.18,0-.36.08-.47.22-.12.14-.17.33-.13.51.59,2.96.97,5.96,1.15,8.97h-8.67c-.19,0-.38.07-.52.21-.14.14-.22.32-.22.52v1.88c0,.4.33.73.73.73h8.79v1.27c.01,2.49-.12,4.98-.39,7.45-.02.19.04.39.17.53.13.15.31.23.51.23h1.93c.38,0,.69-.29.73-.67.27-2.5.4-5.01.39-7.53v-1.27h8.91c.4,0,.73-.33.73-.73v-1.88c0-.4-.33-.73-.73-.73" style="stroke-width:0px;"/><path d="m25.66,27.73c-.14.19-.17.44-.09.67.08.22.25.39.46.47l1.62.54c.09.03.19.05.29.05.3,0,.58-.15.75-.39C39.65,12.88,57.92,3.19,77.45,3.19c23.69,0,45.07,14.18,54.3,36,.14.31.44.52.79.52h1.93c.23,0,.44-.11.57-.29.13-.19.15-.43.06-.64C126.41,17.43,106.64,2.63,83.71.32,60.77-2,38.44,8.55,25.66,27.73" style="stroke-width:0px;"/></g></g></svg>