<?xml version="1.0" encoding="UTF-8" standalone="no"?>
<svg viewBox="0 0 32 32" width="32" height="32" version="1.1" id="svg2" sodipodi:docname="disney+.svg" inkscape:version="1.4-beta2 (9aaf4f34, 2024-07-30)" xmlns:inkscape="http://www.inkscape.org/namespaces/inkscape" xmlns:sodipodi="http://sodipodi.sourceforge.net/DTD/sodipodi-0.dtd" xmlns="http://www.w3.org/2000/svg" xmlns:svg="http://www.w3.org/2000/svg">
  <defs id="defs2" />
  <sodipodi:namedview id="namedview2" pagecolor="#ffffff" bordercolor="#000000" borderopacity="0.25" inkscape:showpageshadow="2" inkscape:pageopacity="0.0" inkscape:pagecheckerboard="0" inkscape:deskcolor="#d1d1d1" inkscape:zoom="4.8689854" inkscape:cx="14.17133" inkscape:cy="45.286642" inkscape:window-width="1440" inkscape:window-height="872" inkscape:window-x="0" inkscape:window-y="0" inkscape:window-maximized="1" inkscape:current-layer="svg2" />
  <linearGradient id="XCMhBO2Tuj0MTK9K0BhN7a" x1="3.9790001" x2="43.979" y1="25" y2="25" gradientUnits="userSpaceOnUse">
    <stop offset="0" stop-color="#0d61a9" id="stop1" />
    <stop offset="1" stop-color="#16528c" id="stop2" />
  </linearGradient>
  <path fill="url(#XCMhBO2Tuj0MTK9K0BhN7a)" d="m 24.945077,26.969734 c -3.979899,1.203169 -7.735803,0.645583 -9.782151,0.111197 -0.056,0.823979 -0.145596,1.16877 -0.280793,1.302367 -0.157596,0.178395 -1.461562,0.912776 -2.181544,-0.133597 -0.315192,-0.500787 -0.472788,-1.403164 -0.561586,-2.227143 -4.6094815,-2.071147 -6.7462272,-5.12227 -6.8134256,-5.234267 -0.1127973,-0.111197 -1.1575705,-1.19117 -0.1127973,-2.527935 0.9783754,-1.20317 4.2158924,-2.416739 7.1174179,-2.895126 0.112798,-2.450338 0.38239,-4.34229 0.731182,-5.178268 0.415989,-1.0023755 0.949575,-0.111198 1.416763,0.556785 0.382391,0.500787 0.618385,2.650332 0.640784,4.365489 1.888752,-0.0888 3.035923,0.0496 5.138269,0.445589 2.76553,0.467988 4.609483,1.870352 4.463887,3.451912 -0.135197,1.55916 -1.573561,2.204743 -2.135946,2.249542 -0.562386,0.0448 -1.461563,-0.36719 -1.461563,-0.36719 -0.629584,-0.289593 -0.056,-0.556786 0.675183,-0.868778 0.80958,-0.38959 0.629584,-0.77918 0.629584,-0.77918 -0.292793,-0.891177 -3.879901,-1.485562 -7.44381,-1.485562 0,1.94875 0.0784,5.178268 0.135196,7.059819 2.495937,0.467988 4.362289,0.367191 4.362289,0.367191 0,0 9.106968,-0.255993 9.366161,-6.013447 C 29.13377,13.40528 19.741209,7.8830195 12.825386,6.1446645 5.9215622,4.3519095 2.008862,5.6214775 1.6760704,5.7878735 c -0.3711905,0.178395 -0.033599,0.244793 -0.033599,0.244793 0,0 0.3711906,0.0552 1.0495733,0.278393 0.6783827,0.223194 0.1351965,0.556786 0.1351965,0.556786 -1.1799697,0.39599 -2.49593621,0.167196 -2.74952961,-0.367191 -0.2583935,-0.523186 0.1687956,-1.002374 0.6751827,-1.703156 C 1.2256823,4.0735169 1.7648686,4.0959163 1.7648686,4.0959163 10.30385,1.1431915 20.738784,6.4334565 20.738784,6.4334565 30.497735,11.310933 32.163293,17.045987 31.988097,19.273129 c -0.157596,2.193545 -1.011974,5.90225 -7.027821,7.706205 M 6.1679555,19.007537 c -0.9671748,0.445588 -0.2927923,1.15837 -0.2927923,1.15837 1.8215543,1.931151 4.0478973,3.14072 6.1846418,3.896701 0.247194,-3.340715 0.224794,-4.531885 0.224794,-6.214242 -3.3055155,0.223195 -5.2166665,0.757581 -6.1166435,1.159171" id="path2" style="fill:#000000;stroke-width:0.799979" />
</svg>
