<?xml version="1.0" encoding="UTF-8" standalone="no"?>
<svg id="a" viewBox="0 0 32 32" version="1.1" sodipodi:docname="docker-hub.svg" width="32" height="32" inkscape:version="1.4-beta2 (9aaf4f34, 2024-07-30)" xmlns:inkscape="http://www.inkscape.org/namespaces/inkscape" xmlns:sodipodi="http://sodipodi.sourceforge.net/DTD/sodipodi-0.dtd" xmlns="http://www.w3.org/2000/svg" xmlns:svg="http://www.w3.org/2000/svg">
  <defs id="defs4" />
  <sodipodi:namedview id="namedview4" pagecolor="#ffffff" bordercolor="#000000" borderopacity="0.25" inkscape:showpageshadow="2" inkscape:pageopacity="0.0" inkscape:pagecheckerboard="0" inkscape:deskcolor="#d1d1d1" inkscape:zoom="2.0205262" inkscape:cx="15.837458" inkscape:cy="51.22428" inkscape:window-width="1440" inkscape:window-height="790" inkscape:window-x="0" inkscape:window-y="0" inkscape:window-maximized="1" inkscape:current-layer="a" />
  <path id="path1" style="fill-rule:evenodd;stroke-width:0px" d="m 14.190631,4.949998 v 2.986368 h 3.307568 V 4.949998 Z M 6.3844878,8.533639 v 2.981058 H 9.6690496 V 8.533639 Z m 0,2.981058 h -0.022122 l 0.00444,0.0044 h 0.017696 z M 10.28579,8.533639 v 2.985483 l 0.0044,-0.0044 h 3.302259 V 8.533663 Z m 3.904841,0 v 2.981058 h 3.307568 V 8.533639 Z m 10.732341,0.788401 -0.466315,0.693722 c -0.620669,0.996694 -0.892707,2.165262 -0.783977,3.334113 0.0589,0.647852 0.271543,1.272733 0.615856,1.825445 -0.752052,0.376026 -1.585474,0.557208 -2.423604,0.530025 H 0.12329197 l -0.04512734,0.249528 c -0.19933892,1.196033 -0.19427758,4.93385 2.24309377,7.806143 1.8574764,2.183667 4.6391603,3.288986 8.2680346,3.288986 7.864827,-0.0091 13.694712,-3.592702 16.417501,-10.152765 1.073712,0.02265 3.380514,-4.24e-4 4.572018,-2.247517 0.02718,-0.04984 0.104058,-0.185571 0.307927,-0.611431 L 32,13.802918 31.333708,13.363148 c -0.706747,-0.484756 -2.378617,-0.656877 -3.656199,-0.416764 h -0.0044 c -0.163135,-1.177912 -0.83332,-2.229078 -2.052006,-3.166877 z m -22.4433255,2.786391 -0.018582,2.989907 h 3.3031438 v -2.989907 z m 3.9048413,0 -0.017696,2.989907 h 3.3022586 v -2.989907 z m 3.9013022,0 v 2.989907 h 3.284562 v -2.989907 z m 3.904841,0 -0.01858,2.989907 h 3.303143 v -2.989907 z m 3.904842,0 v 2.989907 h 3.303143 v -2.989907 z" />
</svg>
