<?xml version="1.0" encoding="UTF-8"?><svg id="a" xmlns="http://www.w3.org/2000/svg" viewBox="0 0 260 80"><path d="m123.13,44.09c.57-.57,1.25-1.03,1.99-1.34.77-.33,1.6-.49,2.44-.49.74,0,1.48.12,2.18.39.7.28,1.34.67,1.91,1.16.34.28.77.43,1.2.42.5.02.98-.17,1.33-.53.35-.36.55-.84.53-1.34.01-.54-.22-1.06-.64-1.41-1.78-1.6-4.1-2.47-6.5-2.43-5.51,0-9.97,4.47-9.97,9.98,0,0,0,.01,0,.02-.02,5.51,4.43,9.99,9.94,10.01,0,0,.02,0,.03,0,2.39.04,4.72-.83,6.5-2.43.38-.36.59-.86.59-1.38.03-.99-.74-1.83-1.73-1.86h-.13c-.42,0-.83.15-1.17.4-.56.49-1.2.88-1.89,1.15-.7.26-1.43.39-2.18.38-.84,0-1.67-.16-2.44-.49-3.19-1.35-4.69-5.03-3.34-8.22.32-.75.77-1.42,1.34-2h0Zm30.76-4.42c-.1-.22-.23-.42-.4-.6-.17-.18-.37-.31-.59-.41-.23-.1-.48-.15-.73-.14-.35,0-.7.09-1,.29l-10.65,6.93v-13.93c0-.5-.19-.98-.55-1.33-.34-.36-.81-.56-1.3-.55-.5,0-.98.19-1.33.55-.36.35-.55.83-.55,1.33v24.85c0,1.03.84,1.87,1.87,1.87.49,0,.97-.19,1.3-.55.36-.35.55-.82.55-1.32v-6.46l2.18-1.43,8.22,9.27c.33.32.78.5,1.25.49.25,0,.5-.04.73-.14.22-.09.42-.23.59-.41.17-.17.3-.38.4-.6.1-.23.16-.47.16-.72,0-.48-.19-.95-.52-1.3l-7.65-8.67,7.46-4.86c.48-.34.75-.9.71-1.48,0-.24-.05-.47-.15-.69h0Zm-42.6,11.27c-.63,1.5-1.82,2.7-3.32,3.35-1.56.67-3.33.67-4.9,0-.74-.3-1.41-.74-1.98-1.29-.56-.58-1.01-1.25-1.33-1.99-.65-1.56-.65-3.31,0-4.86.63-1.5,1.82-2.7,3.31-3.35,1.57-.66,3.33-.66,4.9,0,1.49.65,2.68,1.85,3.32,3.35.65,1.55.65,3.29,0,4.84v-.05Zm1.29-9.53c-3.92-3.89-10.25-3.87-14.14.04-3.89,3.92-3.87,10.25.04,14.14,3.9,3.89,10.22,3.88,14.11-.02,1.87-1.87,2.92-4.42,2.91-7.07,0-1.31-.25-2.62-.74-3.84-.51-1.21-1.25-2.3-2.18-3.22v-.05Zm80.04-1.68c-.36-.34-.79-.6-1.26-.76-.54-.19-1.1-.32-1.66-.38-.56-.07-1.12-.1-1.68-.1-1.14,0-2.27.18-3.35.57-1.05.38-2.03.94-2.9,1.64v-.36c0-1.03-.84-1.86-1.87-1.85-.49,0-.96.2-1.31.55-.35.34-.55.82-.54,1.31v16.29c-.01.49.18.97.54,1.32.35.36.83.56,1.33.55.49.01.97-.19,1.31-.55.36-.34.55-.82.55-1.32v-8.15c0-2.52,1.5-4.79,3.81-5.78.77-.33,1.6-.49,2.44-.49.84,0,1.66.14,2.44.44.24.12.51.19.78.2.25,0,.5-.05.74-.15.22-.09.42-.23.58-.4.17-.17.31-.38.41-.6.1-.23.15-.48.15-.74.02-.47-.17-.92-.5-1.25h0Zm-32.6,6.93c.18-.64.48-1.25.87-1.79.39-.54.85-1.01,1.39-1.4.53-.38,1.11-.67,1.73-.87,1.28-.43,2.66-.43,3.94,0,1.26.42,2.35,1.22,3.13,2.3.39.54.68,1.15.87,1.79l-11.93-.03Zm13.05-5.2c-4.08-3.72-10.4-3.43-14.12.64-3.49,3.82-3.48,9.68.02,13.49,3.69,3.71,9.62,3.92,13.57.5.35-.36.54-.84.53-1.34.02-.5-.17-.98-.52-1.33-.35-.35-.83-.54-1.33-.52-.45,0-.89.16-1.23.46-.54.47-1.15.83-1.82,1.07-.69.24-1.42.36-2.15.36-.67,0-1.35-.1-1.98-.32-1.92-.63-3.42-2.15-4.02-4.07h14.1c1.01.02,1.85-.78,1.87-1.79v-.07c.01-1.32-.24-2.63-.73-3.85-.5-1.21-1.25-2.31-2.19-3.22h0Zm-83.81,9.5c-.63,1.5-1.82,2.7-3.32,3.35-.77.33-1.6.5-2.44.49-.84,0-1.68-.16-2.45-.5-.75-.3-1.44-.74-2.02-1.31-.56-.58-1.01-1.25-1.33-1.99-.65-1.56-.65-3.31,0-4.86.63-1.5,1.82-2.7,3.31-3.35,1.57-.66,3.33-.66,4.9,0,1.5.63,2.7,1.82,3.35,3.32.65,1.55.65,3.29,0,4.84Zm2.34-21.01c-.99-.03-1.82.74-1.85,1.73v9.04c-4.29-3.47-10.59-2.81-14.07,1.48-3.23,3.99-2.91,9.77.73,13.39,3.9,3.89,10.22,3.88,14.11-.02,1.87-1.87,2.92-4.42,2.91-7.07v-16.71c.01-1.01-.79-1.84-1.8-1.85,0,0,0,0,0,0h-.03Zm-51.65,8.07h7.29v-6.6h-7.29v6.6Zm-8.67,0h7.3v-6.6h-7.25l-.04,6.6Zm-8.61,0h7.29v-6.6h-7.25v6.6h-.03Zm-8.62,0h7.3v-6.6h-7.25l-.04,6.6Zm-8.61,0h7.29v-6.6h-7.25l-.04,6.6Zm8.61-7.91h7.3v-6.58h-7.25v6.59h-.04Zm8.67,0h7.29v-6.58h-7.3v6.59h0Zm8.61,0h7.3v-6.58h-7.3v6.58Zm0-7.9h7.3v-6.59h-7.3v6.59Zm29.76,11.06c-.36-2.6-1.84-4.92-4.53-6.99l-1.54-1.01-1.03,1.53c-1.37,2.2-1.97,4.78-1.73,7.36.13,1.43.6,2.81,1.36,4.03-1.66.83-3.5,1.23-5.35,1.17H.28l-.1.55c-.44,2.64-.43,10.89,4.95,17.23,4.1,4.82,10.24,7.26,18.25,7.26,17.36-.02,30.23-7.93,36.24-22.41,2.37.05,7.46,0,10.09-4.96.06-.11.23-.41.68-1.35l.25-.52-1.47-.97c-1.56-1.07-5.25-1.45-8.07-.92Z" style="fill-rule:evenodd; stroke-width:0px;"/><g style="opacity:.5;"><path d="m204.33,33.39v9.2c2.05-2.57,5.57-3.43,8.57-2.11.81.35,1.51.9,2.03,1.61.45.64.77,1.36.93,2.12.2,1.2.28,2.41.25,3.62v10.68h-4.82v-9.62c.06-1.22-.03-2.44-.28-3.63-.18-.5-.51-.93-.96-1.22-.52-.32-1.12-.48-1.73-.46-.75-.01-1.5.19-2.14.58-.64.41-1.13,1.02-1.39,1.73-.33,1.12-.48,2.3-.43,3.47v9.15h-4.82v-25.13h4.79Z" style="stroke-width:0px;"/><path d="m232.96,58.52v-2.72c-.66.97-1.56,1.76-2.6,2.3-1.07.57-2.26.87-3.47.87-1.15.02-2.28-.26-3.29-.81-.93-.5-1.68-1.29-2.11-2.26-.49-1.29-.71-2.66-.65-4.03v-11.55h4.82v8.35c-.07,1.57.02,3.15.26,4.71.17.55.53,1.03,1.01,1.36.53.35,1.15.53,1.79.5.79.01,1.56-.23,2.21-.68.61-.39,1.08-.97,1.34-1.65.33-1.61.45-3.26.36-4.91v-7.69h4.84v18.2h-4.51Z" style="stroke-width:0px;"/><path d="m242.22,58.52v-25.13h4.82v9.06c1.28-1.6,3.23-2.53,5.28-2.54,2.1-.05,4.11.83,5.5,2.41,1.44,1.6,2.17,3.91,2.18,6.93,0,3.07-.74,5.48-2.22,7.21-1.33,1.61-3.31,2.53-5.39,2.52-1.07,0-2.13-.28-3.08-.78-1.04-.55-1.93-1.34-2.6-2.31v2.67l-4.49-.04Zm4.78-9.53c-.11,1.45.19,2.9.87,4.19.68,1.19,1.95,1.93,3.33,1.92,1.07,0,2.07-.49,2.73-1.33.75-.87,1.12-2.34,1.12-4.33s-.37-3.58-1.13-4.5c-.69-.9-1.77-1.41-2.9-1.39-1.12-.02-2.18.48-2.88,1.35-.86,1.19-1.27,2.66-1.14,4.13v-.03Z" style="stroke-width:0px;"/></g></svg>