<svg class="glyph" aria-hidden="true" width="32" height="32" xmlns="http://www.w3.org/2000/svg">
  <path d="M30.1 7.675a8.208 8.208 0 0 1-6.964-4.726A7.178 7.178 0 0 1 22.549 0h-5.614v21.053c0 3.429-2.114 5.454-4.708 5.454a4.815 4.815 0 0 1-3.624-1.599 4.566 4.566 0 0 1-1.066-3.73 4.53 4.53 0 0 1 2.238-3.216 4.797 4.797 0 0 1 3.98-.373v-5.561a10.518 10.518 0 0 0-7.249 1.528 10.127 10.127 0 0 0-3.82 4.53 9.825 9.825 0 0 0 2.24 10.944 10.411 10.411 0 0 0 11.245 2.185 10.269 10.269 0 0 0 4.62-3.695 9.92 9.92 0 0 0 1.74-5.596V10.589a13.751 13.751 0 0 0 7.551 2.22V7.676Z" style="stroke-width:1.77664"/>
</svg>