<?xml version="1.0" encoding="UTF-8" standalone="no"?>
<svg class="glyph" aria-hidden="true" role="presentation" width="32" height="32" version="1.1" id="svg1" sodipodi:docname="375561ca.svg" inkscape:version="1.4-beta2 (9aaf4f34, 2024-07-30)" xmlns:inkscape="http://www.inkscape.org/namespaces/inkscape" xmlns:sodipodi="http://sodipodi.sourceforge.net/DTD/sodipodi-0.dtd" xmlns="http://www.w3.org/2000/svg" xmlns:svg="http://www.w3.org/2000/svg">
  <defs id="defs1" />
  <sodipodi:namedview id="namedview1" pagecolor="#ffffff" bordercolor="#000000" borderopacity="0.25" inkscape:showpageshadow="2" inkscape:pageopacity="0.0" inkscape:pagecheckerboard="0" inkscape:deskcolor="#d1d1d1" inkscape:zoom="7.8084656" inkscape:cx="13.831142" inkscape:cy="5.0586123" inkscape:window-width="1440" inkscape:window-height="790" inkscape:window-x="0" inkscape:window-y="0" inkscape:window-maximized="1" inkscape:current-layer="svg1" />
  <path d="M 30.100117,7.6750681 A 8.208059,8.208059 0 0 1 23.135704,2.949216 7.17761,7.17761 0 0 1 22.549414,0 h -5.614171 v 21.053138 c 0,3.428908 -2.114197,5.454273 -4.708085,5.454273 A 4.8146839,4.8146839 0 0 1 8.6028196,24.908439 4.5659549,4.5659549 0 0 1 7.536838,21.177503 4.5304222,4.5304222 0 0 1 9.7753995,17.961791 4.7969176,4.7969176 0 0 1 13.755065,17.588698 v -5.560871 a 10.517686,10.517686 0 0 0 -7.248676,1.527907 10.126826,10.126826 0 0 0 -3.8197677,4.530422 9.8247978,9.8247978 0 0 0 2.2385615,10.944078 10.411088,10.411088 0 0 0 11.2461072,2.185263 10.268957,10.268957 0 0 0 4.619254,-3.695403 c 1.137047,-1.670038 1.741103,-3.606572 1.741103,-5.596404 V 10.588751 a 13.751164,13.751164 0 0 0 7.550704,2.220796 V 7.6750681 Z" id="path1" style="stroke-width:1.77664" />
</svg>
