<?xml version="1.0" encoding="UTF-8"?><svg id="a" xmlns="http://www.w3.org/2000/svg" viewBox="0 0 180 80"><defs><style>.b{fill-rule:evenodd;stroke-width:0px;}</style></defs><path class="b" d="m177.1,42.08c.38-.44,1.05-.42,1.4.05h0l1.31,1.8c.25.35.25.82-.01,1.16-2.28,2.96-6.28,5.81-11.11,6.09-3.81.22-6.95-1.23-8.66-3.95-.34-.54-1.09-.57-1.46-.06-2.03,2.72-4.48,4.85-7.04,5-4.56.26-5.84-2.8-4.72-9.53.11-.67-.47-1.24-1.11-1.07-.94.25-1.95.36-2.96.27-.42-.04-.82.22-.95.64-1.69,5.54-5.7,10.69-10.89,10.99-3.32.19-8.27-1.71-7.77-9.65.04-.65-.54-1.15-1.13-.97-1.04.32-2.16.47-3.3.37-.42-.04-.82.22-.95.64-1.69,5.54-5.7,10.69-10.89,10.99-3.32.19-8.27-1.71-7.77-9.65.04-.65-.54-1.15-1.13-.97-1.04.32-2.16.47-3.3.37-.42-.04-.82.22-.95.64-1.69,5.54-5.7,10.69-10.89,10.99-2.36.14-5.55-.79-7.01-4.19-.28-.66-1.13-.76-1.55-.19-2.05,2.8-4.55,5.01-7.16,5.16-2.67.15-4.14-.92-4.77-2.83-.23-.68-1.07-.84-1.53-.3-1.82,2.15-3.9,3.72-6.01,3.84-3.24.19-5.11-2.22-5.26-5.13-.18-3.4,1.29-7.37,2.93-11.71.23-.6-.18-1.26-.81-1.28-.95-.04-2.03-.14-3.04-.33-.46-.09-.9.2-1.03.66-1.94,6.93-4.91,13.72-7.42,17.73-.28.45-.86.57-1.28.26l-1.91-1.41c-.39-.29-.5-.85-.24-1.27,3.62-5.8,6.84-14.89,7.95-21.6.07-.43.42-.75.84-.77l2.55-.15c.58-.03,1.04.51.94,1.11v.06c-.11.53.25,1.03.76,1.1,2.28.31,5.69.35,8.01.26.65-.02,1.11.65.87,1.28-1.86,4.94-4.35,11.79-4.2,14.5.07,1.22.61,1.89,1.56,1.84,1.82-.1,4.62-3.76,6.74-7.83.04-.07.07-.15.08-.23.71-3.19,1.77-6.74,2.85-10.34l.07-.22c.11-.37.43-.64.81-.66l3.05-.17c.63-.04,1.1.6.91,1.22-.16.52-.31,1.03-.47,1.54-2.68,8.79-4.94,16.18-1.9,16.01,1.98-.11,4.79-3.48,7.21-8.27.04-.08.07-.16.08-.25.12-.63.27-1.28.45-1.96,1.41-5.63,3.01-11.21,4.61-16.79.49-1.72.99-3.45,1.48-5.17.11-.38.43-.65.82-.67l3.13-.18c.64-.04,1.11.6.91,1.23-1.25,3.92-2.56,8.1-3.8,12.12-.26.85.65,1.55,1.36,1.06,1.23-.84,2.66-1.4,4.05-1.48,3.52-.2,5.92,2.7,6.15,7.06.01.23.03.48.03.73.01.48.38.87.84.91,1.66.15,3.35-.35,4.66-1.51.13-.12.23-.28.27-.46,1.3-5.04,2.73-10.04,4.16-15.05.49-1.71.98-3.43,1.47-5.15.11-.38.43-.65.82-.67l3.13-.18c.64-.04,1.11.6.91,1.23-1.25,3.92-2.56,8.1-3.8,12.12-.26.85.65,1.55,1.36,1.06,1.24-.84,2.66-1.4,4.04-1.48,3.52-.2,5.92,2.7,6.15,7.06.01.23.03.48.03.73.01.48.38.87.84.91,1.66.15,3.35-.35,4.66-1.51.13-.12.23-.28.27-.46,1.3-5.04,2.73-10.04,4.16-15.05.49-1.71.98-3.43,1.47-5.15.11-.38.43-.65.82-.67l3.13-.18c.64-.04,1.11.6.91,1.23-1.25,3.92-2.56,8.1-3.8,12.12-.26.85.65,1.55,1.36,1.06,1.23-.84,2.66-1.4,4.04-1.48,3.52-.2,5.92,2.7,6.15,7.06.01.23.03.48.03.73.01.48.37.87.84.91,1.6.14,3.24-.31,4.53-1.4.14-.12.24-.29.29-.47,1.48-5.7,3.65-13.16,5.74-20.3.11-.38.44-.64.81-.66l3.1-.18c.63-.04,1.1.59.91,1.22-2.88,9.56-5.23,17.93-6.52,22.86-1.72,6.69-1.79,8.62.17,8.51,1.64-.09,3.86-2.43,5.94-5.95.08-.14.13-.3.13-.46.27-7.05,4.6-13.47,11.03-13.84,4.31-.25,6.66,3.01,6.83,6.21.32,6.11-5.72,10.01-11.57,9.65-.68-.04-1.18.69-.88,1.33.82,1.75,2.54,2.72,5.48,2.55,2.8-.16,5.73-2.57,7.57-4.72Zm-96.74,1.71c-1.39,5.57.3,7.75,2.48,7.62,3.58-.21,7.04-6.77,6.78-11.83-.12-2.21-1.41-3.36-2.92-3.28-2.52.14-5.22,3.04-6.33,7.48Zm24.05-1.38c-1.39,5.57.3,7.75,2.48,7.62h0c3.58-.21,7.05-6.77,6.78-11.83-.11-2.21-1.41-3.36-2.92-3.28-2.51.14-5.22,3.04-6.33,7.48Zm24.05-1.38c-1.39,5.57.3,7.75,2.48,7.62h0c3.58-.21,7.05-6.77,6.78-11.83-.12-2.21-1.41-3.36-2.92-3.28-2.51.14-5.22,3.04-6.33,7.48Zm43.48-7.28c-.02-1.46-.92-2.52-2.37-2.43h0c-2.86.16-5.09,3.26-5.8,7.01-.11.6.32,1.15.91,1.14,3.69-.09,7.39-2.53,7.27-5.71Zm-133.91,2.71c-.37-11.3-7.72-18.76-18.58-18.37-4.66.21-10,1.98-14.01,5.14-.38.3-.48.84-.22,1.26l1.7,2.77c.29.47.91.57,1.33.22,3.06-2.54,7.23-4.2,11.24-4.38,7.44-.31,12.91,4.46,13.23,13.66.4,10.72-6.81,22.98-18.38,23.64-.4.02-.82.03-1.25.03-.59,0-1.03-.58-.88-1.17,2.23-9.01,4.84-18.68,7.5-27.67.18-.63-.28-1.25-.91-1.21l-3.39.19c-.38.02-.71.29-.82.67-2.55,8.84-5.11,18.43-7.41,27.42-.13.52-.66.82-1.15.65-1.2-.41-2.3-.87-3.23-1.42-.45-.26-1.01-.08-1.24.4l-1.45,3.04c-.21.45-.06,1,.37,1.24,3.3,1.87,8.3,2.94,13.33,2.65,16.55-.95,24.66-16.24,24.22-28.76h0Zm32.53-13.89c-2.01.12-3.8,2.38-3.67,4.76.08,1.57,1.09,2.62,2.66,2.53,2.01-.12,3.85-2.5,3.73-4.77-.08-1.57-1.26-2.61-2.71-2.53Z"/></svg>