<?xml version="1.0" encoding="UTF-8" standalone="no"?>
<!-- Uploaded to: SVG Repo, www.svgrepo.com, Generator: SVG Repo Mixer Tools -->

<svg width="32" height="32" viewBox="0 0 0.96 0.96" fill="none" version="1.1" id="svg1" sodipodi:docname="dribbble.svg" inkscape:version="1.4-beta2 (9aaf4f34, 2024-07-30)" xmlns:inkscape="http://www.inkscape.org/namespaces/inkscape" xmlns:sodipodi="http://sodipodi.sourceforge.net/DTD/sodipodi-0.dtd" xmlns="http://www.w3.org/2000/svg" xmlns:svg="http://www.w3.org/2000/svg">
  <defs id="defs1" />
  <sodipodi:namedview id="namedview1" pagecolor="#ffffff" bordercolor="#000000" borderopacity="0.25" inkscape:showpageshadow="2" inkscape:pageopacity="0.0" inkscape:pagecheckerboard="0" inkscape:deskcolor="#d1d1d1" inkscape:zoom="0.0325" inkscape:cx="400" inkscape:cy="384.61538" inkscape:window-width="1440" inkscape:window-height="790" inkscape:window-x="0" inkscape:window-y="0" inkscape:window-maximized="1" inkscape:current-layer="svg1" />
  <path fill-rule="evenodd" clip-rule="evenodd" d="M 0.0958203,0.4213851 C 0.2143131,0.4312183 0.3277705,0.4074423 0.421696,0.3536974 0.3739707,0.2830418 0.318325,0.2182217 0.2567333,0.1619351 0.1719049,0.2215909 0.1120192,0.3143218 0.0958203,0.4213851 Z M 0.2374304,0.0657125 C 0.0953765,0.1490661 0,0.3033947 0,0.48 0,0.7450971 0.2149033,0.96 0.48,0.96 0.7450971,0.96 0.96,0.7450971 0.96,0.48 0.96,0.2149033 0.7450971,0 0.48,0 0.392018,0 0.3095634,0.023672 0.2386597,0.064994 c -4.128e-4,2.327e-4 -8.224e-4,4.723e-4 -0.001229,7.185e-4 z m 0.1045701,0.050934 C 0.399008,0.1718821 0.4509623,0.2339456 0.4963977,0.3009696 0.5516663,0.2533445 0.596128,0.1924795 0.6252891,0.1195017 0.5804069,0.1013957 0.5313691,0.0914286 0.48,0.0914286 c -0.048599,0 -0.095116,0.00892 -0.1379995,0.0252179 z m 0.3639424,0.047187 c -0.037015,0.087921 -0.092622,0.1600772 -0.1606446,0.2156173 0.015881,0.027817 0.030656,0.056297 0.044242,0.085326 0.086053,-0.03349 0.179232,-0.048969 0.2749851,-0.041051 -0.015511,-0.1069211 -0.07456,-0.199738 -0.1585825,-0.2598923 z m 0.1610057,0.3519328 c -0.083287,-0.00851 -0.1654629,0.00413 -0.2418835,0.033412 0.031451,0.083909 0.052878,0.1712457 0.062299,0.2594926 0.099406,-0.062848 0.1683245,-0.1695406 0.1795845,-0.2929046 z M 0.5992503,0.8499291 c -0.00623,-0.088366 -0.026039,-0.1765257 -0.057065,-0.2612617 -0.096841,0.055648 -0.1799232,0.1387612 -0.2376722,0.238112 0.052713,0.026729 0.112342,0.041792 0.1754871,0.041792 0.0416,0 0.081678,-0.00654 0.1192501,-0.0186423 z M 0.2282926,0.7760366 C 0.2952407,0.6629257 0.3923703,0.56704 0.506784,0.5036526 0.4953371,0.4791817 0.4829623,0.4551131 0.469728,0.4315383 0.3594185,0.4951954 0.2274665,0.5231726 0.0927986,0.512864 c 0.00881,0.1052389 0.059567,0.1985509 0.135494,0.2631726 z" fill="#000000" id="path1" style="stroke-width:0.0457143" />
</svg>
