<svg width="32" height="32" viewBox="0 0 1.28 1.28" xmlns="http://www.w3.org/2000/svg">
  <path d="M.64 0a.64.64 0 1 0 0 1.28.64.64 0 0 0 0-1.28Zm0 1.227a.587.587 0 1 1 0-1.174.587.587 0 0 1 0 1.174ZM1.185.64a.545.545 0 0 1-.415.53l-.04-.077a.389.389 0 0 0 .118.032C.868 1.118.863.957.84.952.822.948.753.997.726 1.017l.002.008c.004.021.007.053.001.067a.012.012 0 0 1-.004.005c-.015.01-.057.015-.08.01l-.003-.001c-.037.021-.107.06-.12.052-.018-.01-.02-.143-.018-.175.002-.025.089.015.13.036.01-.009.033-.015.053-.017a.41.41 0 0 1-.04-.219.612.612 0 0 0 .21.055c.062-.001.166-.04.154-.07C1 .736.897.794.791.784.71.777.696.742.714.716.737.683.777.722.843.702c.067-.02.16-.055.194-.074.08-.045-.033-.063-.06-.05A1.355 1.355 0 0 1 .823.62C.846.541.791.4.729.338A.164.164 0 0 0 .644.3.19.19 0 0 0 .578.247.308.308 0 0 0 .386.216H.383C.376.218.37.221.364.222c.009 0 .038.014.057.022l-.032.01a.049.049 0 0 0-.01.003C.368.26.361.277.361.284a.463.463 0 0 1 .16.013.277.277 0 0 0-.1.031C.35.366.318.456.338.564c.017.097.088.431.122.59A.545.545 0 1 1 1.185.64zm-.7-.129a.04.04 0 0 0 0 .08c.054 0 .054-.08 0-.08zm.018.037a.01.01 0 0 1-.01-.01.01.01 0 0 1 .01-.01c.014 0 .014.02 0 .02zM.755.493a.035.035 0 1 0 0 .07c.046 0 .046-.07 0-.07zM.77.525a.009.009 0 0 1-.009-.01.01.01 0 0 1 .01-.008c.011 0 .011.018 0 .018zM.497.435S.467.42.437.438C.407.458.408.477.408.477S.392.442.434.425c.042-.017.063.01.063.01zM.776.431S.754.419.737.419C.702.42.693.435.693.435S.699.4.743.405a.045.045 0 0 1 .033.027z"/>
</svg>