<?xml version="1.0" encoding="UTF-8"?><svg id="a" xmlns="http://www.w3.org/2000/svg" viewBox="0 0 280.5 80"><g id="b"><path d="m12.85,22.83H.25v34.42h12.6c11.94,0,17.26-8.81,17.26-17.57,0-8.12-5.38-16.86-17.26-16.86Zm12.46,16.8c0,6.39-3.86,12.84-12.5,12.84h-7.78v-24.99h7.81c3.37-.13,6.64,1.1,9.07,3.43,2.24,2.34,3.46,5.47,3.38,8.7h0v.02Z" style="stroke:#000; stroke-miterlimit:10; stroke-width:.5px;"/><path d="m52.84,45.91c0,4.3-2.96,7.46-7.04,7.46-4.37,0-6.98-2.67-6.98-7.14v-13.43h-4.54v13.49c0,6.89,4.2,11.35,10.7,11.35h.17c3.05-.02,5.94-1.38,7.89-3.74l.17,3.3h4.2v-24.4h-4.55v13.1h0Z" style="stroke:#000; stroke-miterlimit:10; stroke-width:.5px;"/><path d="m80.51,51.09c-1.58,1.53-3.72,2.35-5.92,2.3-4.08,0-8.2-2.57-8.2-8.3v-.73c.09-2.1,1.01-4.08,2.56-5.5,1.55-1.42,3.6-2.17,5.7-2.07,2.12-.04,4.18.74,5.73,2.18l.34.3,2.86-3.02-.26-.32c-2.32-2.28-5.45-3.54-8.7-3.54-7.67,0-12.77,5.08-12.77,12.65,0,8.74,6.4,12.66,12.75,12.66h.22c3.28,0,6.42-1.3,8.75-3.59l.34-.33-3.02-3.02-.38.32h0Z" style="stroke:#000; stroke-miterlimit:10; stroke-width:.5px;"/><path d="m107.39,32.82h-6l-9.38,9.62v-19.56h-4.5v34.39h4.5v-10.84l10.83,10.84h4.78l.46-.05v-.66l-12.23-12.19s11.54-11.54,11.54-11.54Z" style="stroke:#000; stroke-miterlimit:10; stroke-width:.5px;"/><path d="m124.17,22.83h-12.56v34.42h12.56c11.94,0,17.3-8.83,17.3-17.58,0-8.11-5.42-16.85-17.3-16.85Zm12.54,16.8c0,6.39-3.86,12.84-12.5,12.84h-7.81v-24.99h7.81c8.57,0,12.5,6.3,12.5,12.14h0Z" style="stroke:#000; stroke-miterlimit:10; stroke-width:.5px;"/><path d="m164.2,45.91c0,4.3-2.96,7.46-7.04,7.46-4.37,0-6.98-2.67-6.98-7.14v-13.43h-4.54v13.49c0,6.89,4.2,11.35,10.7,11.35h.17c3.05-.02,5.94-1.38,7.89-3.74l.17,3.3h4.2v-24.4h-4.55v13.1h0Z" style="stroke:#000; stroke-miterlimit:10; stroke-width:.5px;"/><path d="m192.22,50.77l-.33.32c-1.58,1.53-3.71,2.35-5.91,2.3-4.09,0-8.2-2.57-8.2-8.3v-.73c.18-4.37,3.88-7.76,8.25-7.57h0c2.1,0,4.11.78,5.66,2.18l.34.3,2.93-2.97-.33-.33c-2.3-2.29-5.41-3.57-8.66-3.58-7.68-.08-12.84,5.05-12.84,12.65,0,8.74,6.4,12.66,12.75,12.66h.23c3.22,0,6.3-1.23,8.62-3.46l.28-.39h0l.12-.12-2.92-2.96h0Z" style="stroke:#000; stroke-miterlimit:10; stroke-width:.5px;"/><path d="m218.76,32.82h-6l-9.39,9.62v-19.56h-4.5v34.39h4.5v-10.84l10.83,10.84h4.78l.46-.05v-.66l-12.23-12.19,11.54-11.54h0Z" style="stroke:#000; stroke-miterlimit:10; stroke-width:.5px;"/><path d="m236.39,42.48h10.58v7.57c-2.46,2.12-5.62,3.29-8.86,3.29h-.1c-9.76,0-13.22-6.99-13.22-12.98,0-6.54,4.1-13.66,13.12-13.66,3.58.02,7.02,1.35,9.68,3.74l.35.32,2.8-3.25-.32-.3c-3.32-3.24-7.78-5.06-12.42-5.05h-.06c-4.8-.17-9.46,1.62-12.93,4.94-3.35,3.57-5.15,8.32-5,13.22,0,8.09,4.66,17.53,17.91,17.54h.26c4.96,0,9.68-2.1,12.99-5.79l.11-.13v-13.74h-14.9v4.3-.02Z" style="stroke:#000; stroke-miterlimit:10; stroke-width:.5px;"/><path d="m267.55,32.3c-7.33,0-12.65,5.38-12.65,12.79v.82c.23,6.58,5.63,11.8,12.22,11.8h.44c7.35,0,12.7-5.31,12.7-12.61s-5.22-12.81-12.7-12.81h0Zm8.17,12.78c-.05,4.88-3.42,8.3-8.19,8.3h-.59c-4.37-.22-7.74-3.92-7.53-8.29,0-5.05,3.35-8.58,8.14-8.58h.06c2.14-.02,4.18.8,5.7,2.3,1.61,1.69,2.47,3.94,2.41,6.27h0Z" style="stroke:#000; stroke-miterlimit:10; stroke-width:.5px;"/></g></svg>