<?xml version="1.0" encoding="UTF-8" standalone="no"?>
<!DOCTYPE svg PUBLIC "-//W3C//DTD SVG 1.1//EN" "http://www.w3.org/Graphics/SVG/1.1/DTD/svg11.dtd">
<!-- Created with Vectornator (http://vectornator.io/) -->
<svg height="100%" stroke-miterlimit="10" style="fill-rule:nonzero;clip-rule:evenodd;stroke-linecap:round;stroke-linejoin:round;" version="1.1" viewBox="0 0 260 80" width="100%" xml:space="preserve" xmlns="http://www.w3.org/2000/svg" xmlns:xlink="http://www.w3.org/1999/xlink">
<defs/>
<path d="M0 0L260 0L260 80L0 80L0 0Z" fill="#000000" fill-opacity="0" fill-rule="nonzero" opacity="1" stroke="none"/>
<g id="Sem-Título">
<g opacity="1">
<path d="M11.7 24.0669L2.30926e-14 24.0669L2.30926e-14 56.0296L11.7 56.0296C22.7933 56.0296 27.7333 47.8482 27.7333 39.7189C27.7333 32.1789 22.7413 24.0669 11.7 24.0669ZM23.27 39.6669C23.27 45.6036 19.682 51.5922 11.6653 51.5922L4.446 51.5922L4.446 28.3829L11.7 28.3829C14.8242 28.2604 17.8643 29.4114 20.124 31.5722C22.201 33.7453 23.3323 36.6528 23.27 39.6582L23.27 39.6669Z" fill="#000000" fill-rule="nonzero" opacity="1" stroke="none"/>
<path d="M48.8367 45.4996C48.8367 49.4862 46.0893 52.4329 42.302 52.4329C38.246 52.4329 35.8193 49.9542 35.8193 45.8029L35.8193 33.3316L31.5987 33.3316L31.5987 45.8549C31.5987 52.2509 35.4987 56.3936 41.5307 56.3936L41.6867 56.3936C44.5199 56.3761 47.2005 55.1071 49.01 52.9269L49.166 55.9949L53.066 55.9949L53.066 33.3402L48.8367 33.3402L48.8367 45.4996Z" fill="#000000" fill-rule="nonzero" opacity="1" stroke="none"/>
<path d="M74.5333 50.3009C73.0597 51.7173 71.0821 52.4878 69.0387 52.4416C65.2513 52.4416 61.4207 50.0582 61.4207 44.7282L61.4207 44.0522C61.5039 42.1024 62.3592 40.2658 63.798 38.9472C65.2368 37.6287 67.141 36.9366 69.0907 37.0236C71.0586 36.9848 72.9653 37.7083 74.412 39.0429L74.724 39.3289L77.376 36.5296L77.1333 36.2349C74.9769 34.1214 72.0754 32.9415 69.056 32.9502C61.932 32.9502 57.2 37.6649 57.2 44.6936C57.2 52.8056 63.1453 56.4456 69.0387 56.4456L69.238 56.4456C72.2804 56.442 75.1997 55.2437 77.3673 53.1089L77.6793 52.8056L74.88 50.0062L74.5333 50.3009Z" fill="#000000" fill-rule="nonzero" opacity="1" stroke="none"/>
<path d="M99.4933 33.3402L93.9207 33.3402L85.2107 42.2669L85.2107 24.1016L81.0333 24.1016L81.0333 56.0382L85.2107 56.0382L85.2107 45.9762L95.2727 56.0382L99.71 56.0382L100.143 55.9949L100.143 55.3796L88.7813 44.0609L99.4933 33.3402Z" fill="#000000" fill-rule="nonzero" opacity="1" stroke="none"/>
<path d="M115.067 24.0669L103.402 24.0669L103.402 56.0296L115.067 56.0296C126.161 56.0296 131.127 47.8309 131.127 39.7102C131.127 32.1789 126.1 24.0669 115.067 24.0669ZM126.715 39.6669C126.715 45.6036 123.127 51.5922 115.111 51.5922L107.857 51.5922L107.857 28.3829L115.111 28.3829C123.067 28.3829 126.715 34.2329 126.715 39.6582L126.715 39.6669Z" fill="#000000" fill-rule="nonzero" opacity="1" stroke="none"/>
<path d="M152.239 45.4996C152.239 49.4862 149.491 52.4329 145.704 52.4329C141.648 52.4329 139.221 49.9542 139.221 45.8029L139.221 33.3316L135.001 33.3316L135.001 45.8549C135.001 52.2509 138.901 56.3936 144.933 56.3936L145.089 56.3936C147.922 56.3761 150.603 55.1071 152.412 52.9269L152.568 55.9949L156.468 55.9949L156.468 33.3402L152.239 33.3402L152.239 45.4996Z" fill="#000000" fill-rule="nonzero" opacity="1" stroke="none"/>
<path d="M178.256 50.0062L177.953 50.3009C176.483 51.7176 174.508 52.4883 172.467 52.4416C168.671 52.4416 164.849 50.0582 164.849 44.7282L164.849 44.0522C165.022 39.9951 168.453 36.8475 172.51 37.0236L172.51 37.0236C174.455 37.02 176.331 37.7433 177.771 39.0516L178.083 39.3376L180.804 36.5816L180.501 36.2782C178.364 34.157 175.478 32.9616 172.467 32.9502C165.334 32.8722 160.541 37.6389 160.541 44.6936C160.541 52.8056 166.487 56.4456 172.38 56.4456L172.597 56.4456C175.58 56.4534 178.448 55.3003 180.596 53.2302L180.856 52.8662L180.856 52.8662L180.969 52.7536L178.256 50.0062Z" fill="#000000" fill-rule="nonzero" opacity="1" stroke="none"/>
<path d="M202.904 33.3402L197.331 33.3402L188.613 42.2669L188.613 24.1016L184.435 24.1016L184.435 56.0382L188.613 56.0382L188.613 45.9762L198.675 56.0382L203.112 56.0382L203.545 55.9949L203.545 55.3796L192.183 44.0609L202.904 33.3402Z" fill="#000000" fill-rule="nonzero" opacity="1" stroke="none"/>
<path d="M219.267 42.3102L229.086 42.3102L229.086 49.3389C226.796 51.31 223.874 52.3926 220.853 52.3896L220.766 52.3896C211.701 52.3896 208.485 45.8982 208.485 40.3342C208.485 34.2676 212.299 27.6549 220.671 27.6549C223.989 27.6735 227.186 28.9067 229.658 31.1216L229.987 31.4162L232.587 28.4002L232.293 28.1229C229.212 25.1125 225.074 23.4293 220.766 23.4342L220.705 23.4342C216.25 23.2809 211.921 24.9342 208.702 28.0189C205.587 31.3316 203.916 35.746 204.057 40.2909C204.057 47.8049 208.39 56.5669 220.688 56.5756L220.931 56.5756C225.534 56.5784 229.921 54.6212 232.995 51.1936L233.099 51.0722L233.099 38.3149L219.267 38.3149L219.267 42.3102Z" fill="#000000" fill-rule="nonzero" opacity="1" stroke="none"/>
<path d="M248.205 32.8549C241.401 32.8549 236.461 37.8469 236.461 44.7369L236.461 45.4996C236.676 51.6103 241.692 56.4533 247.806 56.4542L248.213 56.4542C255.043 56.4542 260 51.5229 260 44.7456C260 37.7429 255.155 32.8549 248.205 32.8549ZM255.788 44.7196C255.745 49.2522 252.616 52.4242 248.179 52.4242L247.633 52.4242C243.58 52.2232 240.452 48.7821 240.639 44.7282C240.639 40.0396 243.75 36.7549 248.205 36.7549L248.257 36.7549C250.237 36.7302 252.145 37.5014 253.552 38.8956C255.044 40.4612 255.849 42.5578 255.788 44.7196Z" fill="#000000" fill-rule="nonzero" opacity="1" stroke="none"/>
</g>
</g>
</svg>
