<svg xmlns="http://www.w3.org/2000/svg" viewBox="0 0 300 120"><title>duckduckgo</title><path d="M13.5,41.56H0V78.44H13.5C26.3,78.44,32,69,32,59.62,32,50.92,26.24,41.56,13.5,41.56Zm13.35,18c0,6.85-4.14,13.76-13.39,13.76H5.13V46.54H13.5a13.31,13.31,0,0,1,9.72,3.68A13.11,13.11,0,0,1,26.85,59.55Z"/><path d="M56.35,66.29c0,4.6-3.17,8-7.54,8-4.68,0-7.48-2.86-7.48-7.65V52.25H36.46V66.7c0,7.38,4.5,12.16,11.46,12.16h.18a11.07,11.07,0,0,0,8.45-4l.18,3.54h4.5V52.26H56.35Z"/><path d="M86,71.83a8.86,8.86,0,0,1-6.34,2.47c-4.37,0-8.79-2.75-8.79-8.9v-.78a8.48,8.48,0,0,1,8.85-8.11,8.8,8.8,0,0,1,6.14,2.33l.36.33,3.06-3.23L89,55.6a13.26,13.26,0,0,0-9.32-3.79C71.46,51.81,66,57.25,66,65.36c0,9.36,6.86,13.56,13.66,13.56h.23a13.39,13.39,0,0,0,9.38-3.85l.36-.35-3.23-3.23Z"/><polygon points="114.8 52.26 108.37 52.26 98.32 62.56 98.32 41.6 93.5 41.6 93.5 78.45 98.32 78.45 98.32 66.84 109.93 78.45 115.05 78.45 115.55 78.4 115.55 77.69 102.44 64.63 114.8 52.26"/><path d="M132.77,41.56H119.31V78.44h13.46c12.8,0,18.53-9.46,18.53-18.83C151.3,50.92,145.5,41.56,132.77,41.56Zm13.44,18c0,6.85-4.14,13.76-13.39,13.76h-8.37V46.54h8.37C142,46.54,146.21,53.29,146.21,59.55Z"/><path d="M175.66,66.29c0,4.6-3.17,8-7.54,8-4.68,0-7.48-2.86-7.48-7.65V52.25h-4.87V66.7c0,7.38,4.5,12.16,11.46,12.16h.18a11.07,11.07,0,0,0,8.45-4l.18,3.54h4.5V52.26h-4.88Z"/><path d="M205.68,71.49l-.35.34A8.83,8.83,0,0,1,199,74.3c-4.38,0-8.79-2.75-8.79-8.9v-.78a8.48,8.48,0,0,1,8.84-8.11h0a9,9,0,0,1,6.07,2.34l.36.33L208.62,56l-.35-.35A13.23,13.23,0,0,0,199,51.81c-8.23-.09-13.76,5.41-13.76,13.55,0,9.36,6.86,13.56,13.66,13.56h.25a13.25,13.25,0,0,0,9.23-3.71l.3-.42h0l.13-.13Z"/><polygon points="234.12 52.26 227.69 52.26 217.63 62.56 217.63 41.6 212.81 41.6 212.81 78.45 217.63 78.45 217.63 66.84 229.24 78.45 234.36 78.45 234.86 78.4 234.86 77.69 221.75 64.63 234.12 52.26"/><path d="M253,62.61h11.33v8.11a14.54,14.54,0,0,1-9.5,3.52h-.1c-10.46,0-14.17-7.49-14.17-13.91,0-7,4.4-14.63,14.06-14.63a15.67,15.67,0,0,1,10.37,4l.38.34,3-3.48-.34-.32a19,19,0,0,0-13.3-5.41h-.07a19.07,19.07,0,0,0-13.85,5.29,19.78,19.78,0,0,0-5.36,14.16c0,8.67,5,18.78,19.19,18.79h.28a18.68,18.68,0,0,0,13.92-6.21l.12-.14V58H253Z"/><path d="M286.39,51.7c-7.85,0-13.55,5.76-13.55,13.71v.88a13.1,13.1,0,0,0,13.09,12.64h.47c7.88,0,13.6-5.69,13.6-13.51C300,57.34,294.41,51.7,286.39,51.7Zm8.75,13.69c-.05,5.23-3.66,8.89-8.78,8.89h-.63a8.5,8.5,0,0,1-8.07-8.88c0-5.41,3.59-9.2,8.73-9.2h.06a8.53,8.53,0,0,1,6.11,2.47A9.36,9.36,0,0,1,295.14,65.39Z"/></svg>