<?xml version="1.0" encoding="UTF-8" standalone="no"?>
<!-- Uploaded to: SVG Repo, www.svgrepo.com, Generator: SVG Repo Mixer Tools -->

<svg fill="#000000" width="32" height="32" viewBox="0 0 1.28 1.28" version="1.1" id="svg1" sodipodi:docname="duckduckgo-svgrepo-com.svg" inkscape:version="1.4-beta2 (9aaf4f34, 2024-07-30)" xmlns:inkscape="http://www.inkscape.org/namespaces/inkscape" xmlns:sodipodi="http://sodipodi.sourceforge.net/DTD/sodipodi-0.dtd" xmlns="http://www.w3.org/2000/svg" xmlns:svg="http://www.w3.org/2000/svg">
  <defs id="defs1" />
  <sodipodi:namedview id="namedview1" pagecolor="#ffffff" bordercolor="#000000" borderopacity="0.25" inkscape:showpageshadow="2" inkscape:pageopacity="0.0" inkscape:pagecheckerboard="0" inkscape:deskcolor="#d1d1d1" inkscape:zoom="6.3398947" inkscape:cx="17.508177" inkscape:cy="14.590148" inkscape:window-width="1440" inkscape:window-height="790" inkscape:window-x="0" inkscape:window-y="0" inkscape:window-maximized="1" inkscape:current-layer="svg1" />
  <g id="g1" transform="scale(0.04)">
    <path d="M 16,0 C 7.161,0 0,7.161 0,16 0,24.839 7.161,32 16,32 24.839,32 32,24.839 32,16 32,7.161 24.839,0 16,0 Z m 0,30.667 C 7.901,30.667 1.333,24.099 1.333,16 1.333,7.901 7.901,1.333 16,1.333 24.099,1.333 30.667,7.901 30.667,16 30.667,24.099 24.099,30.667 16,30.667 Z M 29.625,16 c 0,6.406 -4.422,11.776 -10.38,13.234 -0.359,-0.698 -0.708,-1.359 -1,-1.917 0.859,0.328 2.573,0.953 2.943,0.818 0.505,-0.193 0.38,-4.198 -0.182,-4.328 -0.453,-0.099 -2.177,1.12 -2.859,1.615 l 0.047,0.208 c 0.104,0.526 0.193,1.323 0.042,1.661 0,0.005 -0.005,0.016 -0.005,0.016 -0.021,0.047 -0.052,0.089 -0.094,0.12 -0.375,0.25 -1.438,0.38 -2,0.25 -0.031,-0.005 -0.057,-0.016 -0.089,-0.026 -0.922,0.526 -2.677,1.479 -3,1.297 -0.438,-0.255 -0.5,-3.573 -0.438,-4.385 0.047,-0.615 2.203,0.38 3.255,0.906 0.234,-0.219 0.802,-0.365 1.307,-0.417 -0.76,-1.849 -1.318,-3.969 -0.979,-5.474 0,0.005 0.005,0.005 0.005,0.005 0.474,0.328 3.641,1.401 5.214,1.37 1.573,-0.031 4.151,-0.99 3.87,-1.766 -0.281,-0.771 -2.849,0.682 -5.521,0.432 -1.984,-0.182 -2.333,-1.073 -1.896,-1.719 0.552,-0.818 1.557,0.151 3.214,-0.344 1.661,-0.495 3.984,-1.38 4.844,-1.859 1.995,-1.115 -0.833,-1.573 -1.5,-1.266 -0.63,0.297 -2.828,0.849 -3.849,1.094 C 21.142,13.504 19.767,9.994 18.23,8.457 17.73,7.957 16.959,7.644 16.089,7.478 15.756,7.02 15.219,6.582 14.459,6.176 12.985,5.405 11.303,5.129 9.662,5.395 L 9.631,5.4 9.589,5.405 9.594,5.41 C 9.396,5.446 9.276,5.514 9.115,5.54 9.313,5.561 10.058,5.91 10.526,6.097 10.292,6.186 9.974,6.243 9.729,6.342 9.635,6.358 9.547,6.378 9.458,6.415 9.229,6.524 9.052,6.915 9.057,7.103 c 1.12,-0.115 2.776,-0.031 3.99,0.328 -0.859,0.12 -1.646,0.344 -2.214,0.646 -0.021,0.01 -0.042,0.021 -0.068,0.036 -0.068,0.026 -0.141,0.057 -0.198,0.089 -1.823,0.958 -2.63,3.203 -2.151,5.896 0.432,2.432 2.219,10.786 3.052,14.755 -5.297,-1.87 -9.094,-6.917 -9.094,-12.854 0,-7.526 6.099,-13.625 13.625,-13.625 7.526,0 13.625,6.099 13.625,13.625 z m -17.5,-3.224 c -0.557,0 -1.01,0.453 -1.01,1.01 0,0.557 0.453,1.01 1.01,1.01 1.349,0 1.349,-2.021 0,-2.021 z m 0.453,0.932 c -0.146,0 -0.26,-0.115 -0.26,-0.26 0,-0.141 0.115,-0.26 0.26,-0.26 0.349,0 0.349,0.521 0,0.521 z m 6.297,-1.39 c -0.49,-0.016 -0.901,0.375 -0.901,0.87 0,0.49 0.411,0.885 0.901,0.865 1.156,0 1.156,-1.734 0,-1.734 z m 0.385,0.802 c -0.12,0 -0.224,-0.099 -0.224,-0.224 0,-0.12 0.104,-0.224 0.224,-0.224 0.302,0 0.302,0.448 0,0.448 z m -6.843,-2.261 c 0,0 -0.76,-0.344 -1.5,0.12 -0.74,0.469 -0.714,0.943 -0.714,0.943 0,0 -0.391,-0.875 0.656,-1.307 1.047,-0.427 1.557,0.245 1.557,0.245 z m 6.984,-0.067 c 0,0 -0.547,-0.313 -0.974,-0.307 -0.875,0.01 -1.109,0.396 -1.109,0.396 0,0 0.146,-0.917 1.26,-0.734 0.365,0.068 0.672,0.307 0.823,0.646 z" id="path1" />
  </g>
</svg>
