<?xml version="1.0" encoding="UTF-8"?><svg id="a" xmlns="http://www.w3.org/2000/svg" viewBox="0 0 113.52 80"><path d="m32.5,7.5C14.55,7.5,0,22.05,0,40c0,17.95,14.55,32.5,32.5,32.5,9.27,0,18.1-3.96,24.26-10.88,11.94,13.4,32.49,14.58,45.89,2.64,13.4-11.94,14.58-32.49,2.64-45.89-11.94-13.4-32.49-14.58-45.89-2.64-.93.83-1.81,1.71-2.64,2.64-6.16-6.93-14.99-10.89-24.26-10.88Zm0,7.11c14.02,0,25.39,11.37,25.39,25.39s-11.37,25.39-25.39,25.39S7.11,54.02,7.11,40h0c0-14.02,11.36-25.39,25.38-25.39,0,0,0,0,.01,0Zm-13.8,13.05v25.11h16.69c7.58,0,13.63-4.7,13.63-12.55s-6.3-12.56-13.63-12.56h-16.69Zm45.3,1.75h7.5l3.37,11.67,4.21-11.66h5.7l4.21,11.71,3.38-11.71h7.5l-7.04,22.21h-6.43l-4.5-10.83-4.55,10.83h-6.33l-7.03-22.22Zm-37.34,5.51h7.58c4.02,0,6.34,1.94,6.34,5.35s-2.17,5.18-6.23,5.18h-7.7v-10.54Z" style="stroke-width:0px;"/></svg>