<?xml version="1.0" encoding="UTF-8" standalone="no"?>
<svg viewBox="2 2 32 32" version="1.1" id="svg1" sodipodi:docname="ea.svg" width="32" height="32" inkscape:version="1.4-beta2 (9aaf4f34, 2024-07-30)" xmlns:inkscape="http://www.inkscape.org/namespaces/inkscape" xmlns:sodipodi="http://sodipodi.sourceforge.net/DTD/sodipodi-0.dtd" xmlns="http://www.w3.org/2000/svg" xmlns:svg="http://www.w3.org/2000/svg">
  <defs id="defs1" />
  <sodipodi:namedview id="namedview1" pagecolor="#ffffff" bordercolor="#000000" borderopacity="0.25" inkscape:showpageshadow="2" inkscape:pageopacity="0.0" inkscape:pagecheckerboard="0" inkscape:deskcolor="#d1d1d1" inkscape:zoom="1.3" inkscape:cx="10" inkscape:cy="9.6153846" inkscape:window-width="1440" inkscape:window-height="872" inkscape:window-x="0" inkscape:window-y="0" inkscape:window-maximized="1" inkscape:current-layer="svg1" />
  <g id="play-medallion" transform="matrix(1.6,0,0,1.6,-1.2,-1.2)">
    <path d="M 12,2 C 6.477,2 2,6.478 2,12 2,17.524 6.477,22 12,22 17.523,22 22,17.524 22,12 22,6.478 17.523,2 12,2 Z M 8.016,8.066 h 5.748 L 12.891,9.463 H 7.143 Z m 9.604,6.984 -0.874,-1.395 h -2.552 l 0.875,-1.398 h 0.806 l -0.974,-1.556 -2.718,4.348 H 4.933 L 6.68,12.256 H 5.398 L 6.27,10.858 h 5.605 l -0.873,1.4 H 8.329 l -0.874,1.398 h 3.953 l 3.493,-5.59 4.365,6.985 H 17.62 Z" id="path1" />
  </g>
</svg>
