<svg width="32" height="32" xmlns="http://www.w3.org/2000/svg" xmlns:i="&amp;ns_ai;"><switch><g i:extraneous="self"><path d="M16 0c-4.589 0-8.32 3.732-8.32 8.32h1.933A6.394 6.394 0 0 1 16 1.935a6.394 6.394 0 0 1 6.387 6.387h1.933C24.32 3.73 20.59 0 16 0zm15.865 8.32v3.784H.135V8.321zm0 17.735V32H.135v-5.946z" style="stroke-width:.25"/><path style="fill:#000;fill-opacity:.8;stroke-width:.25" d="M24.314 60.104h7.957v13.95h-7.957z" transform="translate(-.405 -48.05)"/><path style="fill:#000;fill-opacity:.5;stroke-width:.25" d="M.541 60.104h7.957v13.95H.541z" transform="translate(-.405 -48.05)"/><path style="fill:#000;fill-opacity:.6;stroke-width:.25" d="M8.497 60.104h7.799v13.95H8.497z" transform="translate(-.405 -48.05)"/><path style="fill:#000;fill-opacity:.7;stroke-width:.25" d="M16.296 60.104h8.018v13.95h-8.018z" transform="translate(-.405 -48.05)"/></g></switch></svg>