<?xml version="1.0" encoding="UTF-8" standalone="no"?>
<svg id="a" viewBox="0 0 32.000001 32" version="1.1" sodipodi:docname="agencia-brasil.svg" width="32" height="32" inkscape:version="1.4-beta2 (9aaf4f34, 2024-07-30)" xmlns:inkscape="http://www.inkscape.org/namespaces/inkscape" xmlns:sodipodi="http://sodipodi.sourceforge.net/DTD/sodipodi-0.dtd" xmlns="http://www.w3.org/2000/svg" xmlns:svg="http://www.w3.org/2000/svg">
  <sodipodi:namedview id="namedview14" pagecolor="#ffffff" bordercolor="#000000" borderopacity="0.25" inkscape:showpageshadow="2" inkscape:pageopacity="0.0" inkscape:pagecheckerboard="0" inkscape:deskcolor="#d1d1d1" inkscape:zoom="2.5712282" inkscape:cx="-5.4448688" inkscape:cy="51.531794" inkscape:window-width="1440" inkscape:window-height="790" inkscape:window-x="0" inkscape:window-y="0" inkscape:window-maximized="1" inkscape:current-layer="a" />
  <defs id="defs1">
    <style id="style1">.p{stroke:#000;stroke-miterlimit:10;stroke-width:2px;}.q{stroke-width:0px;}</style>
  </defs>
  <g id="g14" transform="matrix(0.4,0,0,0.4,-153.372,0)">
    <g id="o">
      <path class="q" d="m 383.43,40 c 0,-22.06 17.94,-40 40,-40 22.06,0 40,17.94 40,40 0,22.06 -17.94,40 -40,40 -22.06,0 -40,-17.94 -40,-40 z m 15.33,1.5 c 10.47,4.86 19.07,12.71 24.67,22.8 1.5,2.99 5.23,3.74 7.85,1.5 9.72,-7.85 16.82,-19.07 19.07,-31.78 0.37,-2.99 -0.37,-5.61 -2.62,-7.85 -7.85,-7.1 -17.57,-11.96 -28.79,-13.46 -2.24,-0.37 -4.86,0.37 -6.73,1.87 -7.1,5.23 -12.71,11.59 -16.45,19.44 -1.12,2.99 0,6.36 2.99,7.48 z" id="path14" />
    </g>
  </g>
</svg>
