<svg viewBox="7.6 1.7 32 32" width="32" height="32" xmlns="http://www.w3.org/2000/svg">
  <path class="st1" d="M9.495 33.7v-1.895c3.368 0 4.42-1.052 4.42-3.79V7.386c0-2.738-1.052-3.79-4.42-3.79V1.7h24.42l1.264 4.632c.21.42.421.842.421 1.052 0 .21-.421.842-1.053.842-.42 0-.42-.21-1.052-1.052-2.316-3.369-5.263-4-9.684-4-3.158 0-3.369.42-3.369 2.526v9.895h4c2.947 0 4-.632 4.632-3.58 0-.63.21-.63 1.052-.63.632 0 .842.21.842 1.052v9.895c0 .42-.42.631-1.052.631-.632 0-.632-.21-.632-.42-1.263-4.422-2.316-4.632-4.842-4.632h-4v10.736c0 2.737.421 3.158 5.263 3.158 6.106 0 8-1.894 10.316-6.105.21-.21.21-.421.842-.421s.842.21.842.421v.842L36.653 33.7Z" style="fill:#000;stroke-width:2.10526"/>
</svg>