<svg width="32" height="32" class="ds-masthead-monogram" aria-labelledby="ds-monogram-square-title" xmlns="http://www.w3.org/2000/svg">
  <defs>
    <clipPath clipPathUnits="userSpaceOnUse" id="a">
      <path style="fill:#000" class="powerclip" d="M-5-5h74v74H-5Zm40.106 54.6h-2.352c-3.763 0-4.704-1.098-4.704-3.552V32.262l5.749.261c2.822.157 3.867.73 4.443 4.961h1.933v-12.69h-1.933c-.576 4.282-1.622 5.014-4.443 5.118l-5.75.261V17.901c0-2.558 1.099-3.551 4.025-3.551h4.128c4.6 0 5.435 1.932 6.586 6.789h2.09V12H16.762v1.828c2.928.626 4.339 1.67 4.339 3.812v28.408c0 2.454-1.41 3.447-4.6 4.124V52h28.797L46.5 41.503h-2.352c-1.83 6.11-2.51 8.094-9.042 8.094z"/>
    </clipPath>
  </defs>
  <path d="M64 0H0v64h64z" fill="#000" style="fill:#000" clip-path="url(#a)" transform="scale(.5)"/>
  /&gt;
</svg>