<?xml version="1.0" encoding="UTF-8"?><svg id="a" xmlns="http://www.w3.org/2000/svg" viewBox="0 0 232.56 80"><path d="m106.33,5.99l.16,6.37-1.48.08c-.12-3.9-.94-4.43-6.86-4.43h-1.27v22.31c0,3.08.78,3.9,3.82,3.98l.08,1.07c-2.87-.04-5.05-.04-6.44-.04-1.45,0-3.71,0-6.68.04l.08-1.07c3.04-.09,3.83-.9,3.83-3.98V8.01h-1.48c-6.09,0-6.91.53-6.99,4.43l-1.48-.08.15-6.37c5.55.04,9.71.09,12.5.09,2.61,0,6.68-.05,12.07-.09m2.46,28.39c2.76,0,3.13-.53,3.17-4.39V11.38c-.04-3.87-.41-4.4-3.17-4.4l-.08-.99c3.74-.2,4.6-.33,7.98-.94v12.65c2.18-2.35,3.95-3.29,6.38-3.29,4.02,0,6.25,2.47,6.25,7.15v8.42c.04,3.86.41,4.39,3.16,4.39l.07.99c-2.37-.08-4.18-.16-5.37-.16s-2.84.09-5.1.16l.09-.99c2.17-.32,2.38-.73,2.42-4.39v-6.17c0-5.18-.9-6.9-3.62-6.9-1.45,0-3,.94-3.66,2.38-.25.49-.41,1.02-.58,1.56-.04.21-.04.37-.04.45v8.68c0,3.66.25,4.07,2.42,4.39l.09.99c-2.3-.08-4-.16-5.14-.16s-3,.09-5.35.16l.08-.99m30.38-12.07c3.78-.08,4.93-.17,8.68-.58-.49-3.98-1.99-5.88-4.53-5.88s-3.74,1.97-4.15,6.46m13.04,9.03c-2.55,3.17-5.06,4.49-8.28,4.49-5.71,0-9.57-4.19-9.57-10.33,0-6.61,3.99-11.09,9.74-11.09,3.09,0,5.32,1.15,6.84,3.58,1.03,1.73,1.31,2.92,1.35,5.88h-13c.17,6.16,2.43,9.7,6.18,9.7,2.21,0,4.1-1.03,6.12-3.37l.61,1.15M.7,73.36c3.34-.09,4.2-.99,4.2-4.42v-21.39c0-3.42-.86-4.33-4.2-4.42l-.13-1.1,6.99.09,11.06-.14,2.91.05.18,6.61-1.82.14c-.31-4.14-1.09-4.6-7.58-4.6h-1.01l-.45.04v12.32c.86,0,1.55.05,1.97.05.7.05,1.4.08,2.1.08,3.57,0,4.39-.77,4.43-4.15h1.56c-.14,2.71-.14,4.11-.14,5.48,0,1.1,0,2.64.05,4.69h-1.46c-.18-3.27-.91-3.91-4.34-3.95l-2.47-.05-1.73.09v9.53c0,3.88.23,4.06,4.06,4.06,5.07,0,6.58-1.14,7.03-5.48l1.83.1-1.05,7.57-3.51.05-11.09-.09-7.5.04.13-1.19m46.05-2.04c-2.6,2.69-4.67,3.74-7.67,3.74-6.01,0-9.87-4.69-9.87-11.76s4.07-12,10.64-12c1.73,0,3.48.32,6.18,1.05l.08,5.39-2.05.14c-.76-4.02-1.56-4.98-4.21-4.98-3.42,0-5.19,2.97-5.19,8.85,0,6.86,2.13,10.73,6.01,10.73,2.01,0,3.61-.87,5.4-2.78l.68,1.64m10.45-7.76c.45,6.44,2.6,9.94,6.11,9.94,3.28,0,5.25-3.41,5.25-9.07,0-6.74-2.7-11.41-6.43-11.41-3.33,0-5.02,2.8-5.02,8.49,0,.68,0,1.37.1,2.05m-5.58.51v-.69c0-7.69,4.14-12.08,11.19-12.08,6.54,0,11.18,4.85,11.18,11.9s-4.52,11.87-11.32,11.87-10.82-4.38-11.05-10.99m27.76,9.4c2.97,0,3.43-.59,3.43-4.87v-10.5c0-4.15-.45-4.75-3.43-4.79l-.09-1.04c3.98-.23,4.9-.37,8.35-1.1l.23,4.04c2.6-2.85,4.6-3.9,7.31-3.9,4.43,0,6.93,2.87,6.93,7.95v9.35c-.04.36-.04.73-.04,1.09,0,2.92.77,3.78,3.56,3.78l.09,1.09c-2.64-.09-4.65-.18-5.97-.18s-3.19.09-5.62.18l.08-1.09c2.35-.37,2.62-.82,2.62-4.87l.05-2.79v-4.06c0-5.73-1.05-7.57-3.94-7.57-1.78,0-3.29.91-4.2,2.56-.36.68-.68,1.77-.68,2.23v9.63c.04,4.05.27,4.5,2.69,4.87l.14,1.09c-2.55-.09-4.47-.18-5.75-.18s-3.28.09-5.85.18l.09-1.09m35.83-9.9c.46,6.44,2.6,9.94,6.03,9.94s5.24-3.41,5.24-9.07c0-6.74-2.69-11.41-6.4-11.41-3.28,0-4.96,2.8-4.96,8.49,0,.68,0,1.37.09,2.05m-5.65.51v-.69c0-7.69,4.15-12.08,11.19-12.08,6.61,0,11.25,4.85,11.25,11.9s-4.51,11.87-11.39,11.87c-6.45,0-10.83-4.38-11.06-10.99m27.55,9.4c3.06,0,3.52-.59,3.52-4.87v-10.5c0-4.15-.46-4.75-3.52-4.79l-.09-1.04c4.06-.23,4.98-.37,8.42-1.1l.2,4.04c2.57-2.8,4.58-3.9,7.26-3.9,3.1,0,4.92,1.28,6.21,4.25,2.79-3.12,4.83-4.25,7.62-4.25,4.3,0,6.71,2.92,6.71,7.95v9.35c0,.36-.05.73-.05,1.09,0,2.92.83,3.78,3.56,3.78l.1,1.09c-2.65-.09-4.65-.18-5.94-.18s-3.11.09-5.62.18l.09-1.09c2.41-.37,2.64-.82,2.69-4.87v-6.85c0-5.64-.99-7.57-3.83-7.57-1.69,0-3.42,1.02-4.15,2.56-.23.54-.45,1.09-.59,1.73-.05.23-.09.41-.09.5v9.63c0,4.05.27,4.5,2.69,4.87l.1,1.09c-2.42-.09-4.19-.18-5.4-.18s-2.96.09-5.34.18l.1-1.09c2.42-.37,2.64-.82,2.68-4.87v-6.85c0-5.64-1-7.57-3.83-7.57-1.72,0-3.28.95-4.15,2.56-.37.73-.66,1.77-.66,2.23v9.63c.05,4.05.25,4.5,2.67,4.87l.09,1.09c-2.51-.09-4.35-.18-5.62-.18s-3.28.09-5.93.18l.09-1.09m46.82-29.91c0-1.66,1.34-3.02,3-3.02,0,0,0,0,.01,0,1.69,0,3.05,1.4,3.05,3.02,0,1.72-1.32,3.1-3.05,3.1s-3.02-1.32-3.02-3.1m5.84,7.6v14.64l.04,2.79c0,4.28.42,4.87,3.51,4.87l.1,1.09c-2.83-.09-4.88-.18-6.29-.18s-3.37.09-6.13.18l.09-1.09c3.01,0,3.44-.59,3.44-4.87l.04-2.79v-4.78l-.04-2.92c0-4.16-.43-4.75-3.44-4.8l-.09-1.05c4.12-.27,5.07-.41,8.77-1.1m9.14,22.58l-.18-4.65,2.32-.09c1.05,3.51,1.74,4.19,4.16,4.19,2.09,0,3.47-1.09,3.47-2.73s-.96-2.69-3.84-4.62c-1.46-1-2.46-1.69-3-2.1-1.19-.91-2.06-2.01-2.51-3.23-.28-.69-.41-1.5-.41-2.46,0-4.06,2.84-6.76,7.11-6.76,1.59,0,2.51.14,6.13,1l.1,4.53-2.32.09c-.52-2.98-1.44-4.03-3.58-4.03s-3.51,1.19-3.51,2.79.73,2.55,3.1,4.05c2.14,1.42,3.78,2.69,4.89,3.69,1.28,1.23,2.01,2.78,2.01,4.5,0,4.03-3.38,7.13-7.73,7.13-1.68,0-3.28-.37-6.21-1.32m18.76-21.12c3.6-.28,4.96-1.82,5.99-6.56h2.05v6.15h5.75l-.64,2.51h-5.11v11.13c0,5.53.73,6.84,3.83,6.84.73,0,1.41-.09,2.51-.4v1.32c-1.55.87-3.69,1.37-5.88,1.37-2.02,0-3.89-1.14-4.67-2.82-.69-1.41-.91-2.82-.91-5.85v-11.58h-2.92v-2.09" style="stroke:#000; stroke-miterlimit:10;"/></svg>