<?xml version="1.0" encoding="UTF-8" standalone="no"?>
<svg width="32" height="32" viewBox="0 0 32 32" class="ds-masthead-monogram" role="img" id="ds-monogram-square" aria-labelledby="ds-monogram-square-title" version="1.1" sodipodi:docname="www.economist.com.svg" inkscape:version="1.4-beta2 (9aaf4f34, 2024-07-30)" xmlns:inkscape="http://www.inkscape.org/namespaces/inkscape" xmlns:sodipodi="http://sodipodi.sourceforge.net/DTD/sodipodi-0.dtd" xmlns="http://www.w3.org/2000/svg" xmlns:svg="http://www.w3.org/2000/svg" xmlns:rdf="http://www.w3.org/1999/02/22-rdf-syntax-ns#" xmlns:cc="http://creativecommons.org/ns#" xmlns:dc="http://purl.org/dc/elements/1.1/"><defs id="defs2">
  <inkscape:path-effect effect="powerclip" message="" id="path-effect3" is_visible="true" lpeversion="1" inverse="true" flatten="false" hide_clip="false" />
  <clipPath clipPathUnits="userSpaceOnUse" id="clipPath2">
    <path d="m 35.1056,49.5991 h -2.352 c -3.7628,0 -4.704,-1.0975 -4.704,-3.5515 V 32.2621 l 5.7493,0.2611 c 2.8216,0.1571 3.8669,0.7303 4.4426,4.961 H 40.175 V 24.7941 h -1.9335 c -0.5757,4.2817 -1.621,5.014 -4.4426,5.1181 l -5.7493,0.2611 V 17.9014 c 0,-2.558 1.0984,-3.5515 4.0241,-3.5515 h 4.1282 c 4.5999,0 5.4349,1.9318 6.5864,6.7888 h 2.0906 V 12 H 16.7613 v 1.8277 c 2.9278,0.6263 4.3385,1.6707 4.3385,3.8126 v 28.4073 c 0,2.454 -1.4107,3.4474 -4.5998,4.1247 V 52 H 45.2975 L 46.5,41.5028 h -2.352 c -1.8293,6.1094 -2.5092,8.0942 -9.0424,8.0942 z" fill="#FFFFFF" id="path3" style="display:none;fill:#000000" />
    <path id="lpe_path-effect3" style="fill:#000000" class="powerclip" d="M -5,-5 H 69 V 69 H -5 Z m 40.1056,54.5991 h -2.352 c -3.7628,0 -4.704,-1.0975 -4.704,-3.5515 V 32.2621 l 5.7493,0.2611 c 2.8216,0.1571 3.8669,0.7303 4.4426,4.961 H 40.175 V 24.7941 h -1.9335 c -0.5757,4.2817 -1.621,5.014 -4.4426,5.1181 l -5.7493,0.2611 V 17.9014 c 0,-2.558 1.0984,-3.5515 4.0241,-3.5515 h 4.1282 c 4.5999,0 5.4349,1.9318 6.5864,6.7888 h 2.0906 V 12 H 16.7613 v 1.8277 c 2.9278,0.6263 4.3385,1.6707 4.3385,3.8126 v 28.4073 c 0,2.454 -1.4107,3.4474 -4.5998,4.1247 V 52 H 45.2975 L 46.5,41.5028 h -2.352 c -1.8293,6.1094 -2.5092,8.0942 -9.0424,8.0942 z" />
  </clipPath>
</defs>
<sodipodi:namedview id="namedview2" pagecolor="#ffffff" bordercolor="#000000" borderopacity="0.25" inkscape:showpageshadow="2" inkscape:pageopacity="0.0" inkscape:pagecheckerboard="0" inkscape:deskcolor="#d1d1d1" inkscape:zoom="1.4375714" inkscape:cx="88.343437" inkscape:cy="79.648217" inkscape:window-width="1440" inkscape:window-height="872" inkscape:window-x="0" inkscape:window-y="0" inkscape:window-maximized="1" inkscape:current-layer="ds-monogram-square" />
<title id="ds-monogram-square-title">The Economist</title>
<path d="M 64,0 H 0 v 64 h 64 z" fill="#E3120B" id="path1" style="fill:#000000" clip-path="url(#clipPath2)" inkscape:path-effect="#path-effect3" inkscape:original-d="M 64,0 H 0 v 64 h 64 z" transform="scale(0.5)" />
/&gt;<metadata id="metadata2">
  <rdf:RDF>
    <cc:Work rdf:about="">
      <dc:title>The Economist</dc:title>
    </cc:Work>
  </rdf:RDF>
</metadata>
</svg>
