<?xml version="1.0" encoding="UTF-8" standalone="no"?>
<svg data-v-9d9650b4="" data-v-2706ccbb="" width="32" height="32" fill="none" viewBox="0 0 32 32" class="icon icon--icon-source-ecosia icon--size-s" version="1.1" id="svg1" sodipodi:docname="6da1dc38.svg" inkscape:version="1.4-beta2 (9aaf4f34, 2024-07-30)" xmlns:inkscape="http://www.inkscape.org/namespaces/inkscape" xmlns:sodipodi="http://sodipodi.sourceforge.net/DTD/sodipodi-0.dtd" xmlns="http://www.w3.org/2000/svg" xmlns:svg="http://www.w3.org/2000/svg">
  <defs id="defs1">
    <inkscape:path-effect effect="powerclip" message="" id="path-effect4" is_visible="true" lpeversion="1" inverse="true" flatten="false" hide_clip="false" />
    <clipPath clipPathUnits="userSpaceOnUse" id="clipPath3">
      <path d="M 5.1445312,2.6308594 V 13.550781 H 11.824219 V 10.066406 H 7.6757812 V 8.7539063 H 10.365234 V 7.4238281 H 7.6757812 v -1.3125 H 11.822266 V 2.6308594 Z" style="display:none;fill:#008009" id="path4" />
      <path id="lpe_path-effect4" style="fill:#008009" class="powerclip" d="m -4.5,-4.9082031 h 26 V 21.091797 h -26 z M 5.1445312,2.6308594 V 13.550781 H 11.824219 V 10.066406 H 7.6757812 V 8.7539063 H 10.365234 V 7.4238281 H 7.6757812 v -1.3125 H 11.822266 V 2.6308594 Z" />
    </clipPath>
  </defs>
  <sodipodi:namedview id="namedview1" pagecolor="#ffffff" bordercolor="#000000" borderopacity="0.25" inkscape:showpageshadow="2" inkscape:pageopacity="0.0" inkscape:pagecheckerboard="0" inkscape:deskcolor="#d1d1d1" inkscape:zoom="7.6562196" inkscape:cx="10.579634" inkscape:cy="11.167391" inkscape:window-width="1440" inkscape:window-height="790" inkscape:window-x="0" inkscape:window-y="0" inkscape:window-maximized="1" inkscape:current-layer="svg1" />
  <path d="m 8.5,0.09179687 a 8,8 0 0 0 -8,8.00000003 8,8 0 0 0 8,8.0000001 8,8 0 0 0 8,-8.0000001 8,8 0 0 0 -8,-8.00000003 z M 5.1445312,2.6308594 H 11.822266 V 6.1113281 H 7.6757812 v 1.3125 H 10.365234 V 8.7539063 H 7.6757812 v 1.3124997 h 4.1484378 v 3.484375 H 5.1445312 Z" style="fill:#000000" id="path2" clip-path="url(#clipPath3)" inkscape:path-effect="#path-effect4" inkscape:original-d="m 8.5,0.09179687 a 8,8 0 0 0 -8,8.00000003 8,8 0 0 0 8,8.0000001 8,8 0 0 0 8,-8.0000001 8,8 0 0 0 -8,-8.00000003 z M 5.1445312,2.6308594 H 11.822266 V 6.1113281 H 7.6757812 v 1.3125 H 10.365234 V 8.7539063 H 7.6757812 v 1.3124997 h 4.1484378 v 3.484375 H 5.1445312 Z" transform="matrix(2,0,0,2,-1,-0.18359387)" />
</svg>
