<?xml version="1.0" encoding="UTF-8" standalone="no"?>
<!DOCTYPE svg PUBLIC "-//W3C//DTD SVG 1.1//EN" "http://www.w3.org/Graphics/SVG/1.1/DTD/svg11.dtd">
<!-- Created with Vectornator (http://vectornator.io/) -->
<svg height="100%" stroke-miterlimit="10" style="fill-rule:nonzero;clip-rule:evenodd;stroke-linecap:round;stroke-linejoin:round;" version="1.1" viewBox="0 0 200 80" width="100%" xml:space="preserve" xmlns="http://www.w3.org/2000/svg" xmlns:xlink="http://www.w3.org/1999/xlink">
<defs/>
<path d="M0 0L200 0L200 80L0 80L0 0Z" fill="#000000" fill-opacity="0" fill-rule="nonzero" opacity="1" stroke="none"/>
<g id="Sem-Título">
<path d="M180.442 24.3824L184.088 46.9802L176.791 46.9802L180.442 24.3796L180.442 24.3824ZM200 63.8407L191.588 16.1593L169.296 16.1593L160.885 63.8407L174.074 63.8407L175.828 52.8547L185.08 52.8547L186.822 63.8407L200 63.8407ZM143.43 63.8407L157.45 63.8407L157.45 16.1593L143.43 16.1593L143.43 63.8407ZM124.429 37.5828C120.646 36.1399 119.875 35.2999 119.875 33.9884C119.875 32.3284 121.275 31.4312 124.221 31.4312C128.287 31.4312 132.772 32.8112 137.118 34.5398L137.118 19.1308C134.107 16.6422 128.709 15.1221 123.169 15.1221C113.558 15.1221 107.817 19.6823 107.817 27.7682C107.817 34.817 111.463 38.1342 119.806 41.1743L122.892 42.2829C126.252 43.5172 127.378 44.4258 127.378 45.943C127.378 47.1173 126.675 48.5717 123.169 48.5717C118.332 48.5717 112.512 46.2202 108.517 44.0773L108.517 61.2863C112.303 63.2207 118.261 64.8779 124.152 64.8779C134.181 64.8779 139.924 60.732 139.924 51.8861C139.924 45.8745 137.47 42.4858 128.078 38.9628L124.432 37.5799L124.429 37.5828ZM93.7998 40C93.7998 45.4573 91.6283 48.6374 86.5796 48.6374C81.5338 48.6374 79.3594 45.4544 79.3594 40C79.3594 34.5427 81.5309 31.3626 86.5796 31.3626C91.6283 31.3626 93.7998 34.5398 93.7998 40ZM86.5739 15.1221C71.8506 15.1221 68.1305 26.3168 68.1305 40C68.1305 53.7518 71.8449 64.8779 86.5682 64.8779C101.291 64.8779 105.003 53.7547 105.003 40C105.003 26.3168 101.289 15.1221 86.5682 15.1221L86.5739 15.1221ZM52.5729 32.0512C56.7816 32.0512 59.9331 33.2884 64.4218 35.7142L64.4218 20.028C61.8275 17.1936 56.5702 15.1221 51.3129 15.1221C39.2554 15.1221 32.8152 22.7224 32.8152 40C32.8152 55.6176 38.0725 64.8779 51.3929 64.8779C56.5816 64.8779 61.8389 62.8064 64.4304 59.9034L64.4304 44.283C59.9446 46.703 56.7931 47.9488 52.5844 47.9488C47.0471 47.9488 44.0327 46.0116 44.0327 39.9314C44.0327 33.8513 48.1671 32.0512 52.5844 32.0512L52.5758 32.0512L52.5729 32.0512ZM29.6008 16.1593L2.84217e-14 16.1593L2.84217e-14 63.8407L29.5837 63.8407L29.5837 48.6402L11.2175 48.6402L11.2175 42.9029L23.1264 42.9029L23.1264 37.0942L11.2175 37.0942L11.2175 31.3626L29.5837 31.3626L29.6037 16.1593L29.6008 16.1593Z" fill="#000000" fill-rule="nonzero" opacity="1" stroke="none"/>
</g>
</svg>
