<?xml version="1.0" encoding="UTF-8" standalone="no"?>
<svg width="32" height="32" fill="none" version="1.1" id="svg2" xmlns="http://www.w3.org/2000/svg" xmlns:svg="http://www.w3.org/2000/svg">
  <path id="path1" style="fill:#000000" d="M 4.800781,0 A 4.8,4.8 0 0 0 0,4.798828 V 27.199219 A 4.8,4.8 0 0 0 4.800781,32 H 27.201172 A 4.8,4.8 0 0 0 32,27.199219 V 4.798828 A 4.8,4.8 0 0 0 27.201172,0 Z m 11.351563,4.800781 a 11.2,11.2 0 0 1 9.023437,4.775391 l -2.625,1.837891 a 8,8 0 1 0 0,9.171875 l 2.625,1.835937 A 11.186,11.186 0 0 1 16,27.199219 11.2,11.2 0 1 1 16.152344,4.800781 Z m -3.238281,9.597657 h 14.171875 a 11.256,11.256 0 0 1 0,3.201172 H 12.914063 a 11.256,11.256 0 0 1 0,-3.201172 z" />
  <defs id="defs2" />
</svg>
