<?xml version="1.0" encoding="UTF-8" standalone="no"?>
<svg width="32" height="32" viewBox="0 0 31.796178 32" version="1.1" id="svg13" sodipodi:docname="www.empregos.com.br.svg" inkscape:version="1.4-beta2 (9aaf4f34, 2024-07-30)" xmlns:inkscape="http://www.inkscape.org/namespaces/inkscape" xmlns:sodipodi="http://sodipodi.sourceforge.net/DTD/sodipodi-0.dtd" xmlns="http://www.w3.org/2000/svg" xmlns:svg="http://www.w3.org/2000/svg">
  <defs id="defs13">
    <inkscape:path-effect effect="powerclip" message="" id="path-effect13" is_visible="true" lpeversion="1" inverse="true" flatten="false" hide_clip="false" />
    <clipPath clipPathUnits="userSpaceOnUse" id="clipPath13">
      <path style="display:none;fill:#002bcc;fill-opacity:1;fill-rule:nonzero;stroke:none" d="m 31.834059,55.668332 c 0,-3.171874 -2.558594,-5.742187 -5.710937,-5.742187 -3.152344,0 -5.710938,2.570313 -5.710938,5.742187 0,3.171876 2.558594,5.742188 5.710938,5.742188 3.152343,0 5.710937,-2.570312 5.710937,-5.742188 z m 0,0" id="path13" />
      <path id="lpe_path-effect13" style="fill:#002bcc;fill-opacity:1;fill-rule:nonzero;stroke:none" class="powerclip" d="M 12.556715,42.055051 H 39.685622 V 69.281614 H 12.556715 Z m 19.277344,13.613281 c 0,-3.171874 -2.558594,-5.742187 -5.710937,-5.742187 -3.152344,0 -5.710938,2.570313 -5.710938,5.742187 0,3.171876 2.558594,5.742188 5.710938,5.742188 3.152343,0 5.710937,-2.570312 5.710937,-5.742188 z" />
    </clipPath>
  </defs>
  <sodipodi:namedview id="namedview13" pagecolor="#ffffff" bordercolor="#000000" borderopacity="0.25" inkscape:showpageshadow="2" inkscape:pageopacity="0.0" inkscape:pagecheckerboard="0" inkscape:deskcolor="#d1d1d1" inkscape:zoom="3.2355454" inkscape:cx="13.598944" inkscape:cy="21.171083" inkscape:window-width="1440" inkscape:window-height="790" inkscape:window-x="0" inkscape:window-y="0" inkscape:window-maximized="1" inkscape:current-layer="svg13" />
  <g id="g14" transform="matrix(0.93606812,0,0,0.93606812,-6.5858983,-36.109351)">
    <path style="fill:#000000;fill-opacity:1;fill-rule:nonzero;stroke:none" d="m 34.685622,55.668332 c 0,-4.753906 -3.832032,-8.613281 -8.5625,-8.613281 -4.730469,0 -8.566407,3.859375 -8.566407,8.613281 0,4.757813 3.835938,8.613282 8.566407,8.613282 4.730468,0 8.5625,-3.855469 8.5625,-8.613282 z m 0,0" id="path2" clip-path="url(#clipPath13)" inkscape:path-effect="#path-effect13" inkscape:original-d="m 34.685622,55.668332 c 0,-4.753906 -3.832032,-8.613281 -8.5625,-8.613281 -4.730469,0 -8.566407,3.859375 -8.566407,8.613281 0,4.757813 3.835938,8.613282 8.566407,8.613282 4.730468,0 8.5625,-3.855469 8.5625,-8.613282 z m 0,0" />
    <path style="fill:#000000;fill-opacity:1;fill-rule:nonzero;stroke:none" d="m 23.982496,52.082395 c 0,-0.792969 -0.640624,-1.4375 -1.429687,-1.4375 -0.789063,0 -1.425781,0.644531 -1.425781,1.4375 0,0.789063 0.636718,1.433594 1.425781,1.433594 0.789063,0 1.429687,-0.644531 1.429687,-1.433594 z m 0,0" id="path4" />
    <path style="fill:#000000;fill-opacity:1;fill-rule:evenodd;stroke:none" d="m 15.525465,66.324582 c 5.851563,5.886719 15.34375,5.886719 21.195313,0 5.855468,-5.882812 5.855468,-15.425781 0,-21.3125 -5.851563,-5.886718 -15.34375,-5.886718 -21.195313,0 -3.234375,3.253907 -4.683593,7.621094 -4.34375,11.875 l -1.2070308,-1.21875 c -0.699219,-0.699218 -1.828125,-0.699218 -2.523438,0 -0.699218,0.699219 -0.699218,1.835938 0,2.539063 z m 2.523438,-2.535156 c -4.460938,-4.484375 -4.460938,-11.753906 0,-16.238281 4.457031,-4.484375 11.6875,-4.484375 16.148437,0 4.460938,4.484375 4.460938,11.753906 0,16.238281 -4.460937,4.484375 -11.691406,4.484375 -16.148437,0 z m 0,0" id="path5" />
  </g>
</svg>
