<svg id="Camada_1" data-name="Camada 1" xmlns="http://www.w3.org/2000/svg" viewBox="0 0 200 80"><path d="M190.89,9.69c-.13.26-.13,8.11,0,8.37s.25.18,4.5.18c3.6,0,4.42,0,4.51-.13a34.79,34.79,0,0,0,.08-4.34l0-4.21-4.48,0C191.12,9.51,191,9.51,190.89,9.69Z"/><path d="M16.07,23.51l-1.28.19A15.6,15.6,0,0,0,9,25.46a12.51,12.51,0,0,0-3.9,2.88A13.27,13.27,0,0,0,2,32.6c-.31.64-.58,1.21-.58,1.25a1.32,1.32,0,0,1-.13.36A14.78,14.78,0,0,0,.5,36.84a19.85,19.85,0,0,0-.48,5c0,2.35,0,2.56.12,2.67s3.56.13,17.51.13c14.92,0,17.36,0,17.47-.14a23,23,0,0,0,.21-4.94,18.55,18.55,0,0,0-1.07-5.24.87.87,0,0,1-.11-.32,8.62,8.62,0,0,0-.7-1.6,16.29,16.29,0,0,0-5.28-5.9,19.45,19.45,0,0,0-3-1.6,1.81,1.81,0,0,1-.36-.13,17.71,17.71,0,0,0-4.43-1.06A29.8,29.8,0,0,0,16.07,23.51ZM19,31a10.2,10.2,0,0,1,3.88,1.07,5.6,5.6,0,0,1,.76.42l.63.49a6.67,6.67,0,0,1,.92.92c.23.29.46.57.49.63.51.64,1.41,3.14,1.2,3.34,0,0-4.11.07-9,.07h-9l0-.24a10.69,10.69,0,0,1,.37-1.45A7.63,7.63,0,0,1,11.53,33a9,9,0,0,1,4.31-1.84A10.54,10.54,0,0,1,19,31Z"/><path d="M56.87,23.51s-.56.1-1.14.18a13.24,13.24,0,0,0-3,.69,18.85,18.85,0,0,0-2.94,1.43,2.81,2.81,0,0,1-.47.35,15.4,15.4,0,0,0-1.49,1.32c-1,.93-1.06,1-1.11.81s-.11-.53-.19-.9a5.78,5.78,0,0,1-.15-1,1.51,1.51,0,0,0-.1-.53,6.67,6.67,0,0,1-.18-1,3,3,0,0,0-.2-.86c-.1-.12-.6-.14-3.4-.12l-3.29,0V60.41h8.54l.05-10.53c.06-11.11,0-10.7.49-12.33a8.29,8.29,0,0,1,4.4-5.65c.26-.11.55-.24.63-.29a3.52,3.52,0,0,1,.52-.17l.74-.19a18.07,18.07,0,0,1,3.89,0l.75.19a6.66,6.66,0,0,1,3.83,3.06,9,9,0,0,1,1,2.72c0,.18.11.52.16.75s.13,3.69.18,11.44l0,11H73.1l0-10.76c0-10.23,0-10.84-.17-12.47a19.81,19.81,0,0,0-.83-4.36,1.28,1.28,0,0,1-.11-.44.29.29,0,0,0-.09-.23.6.6,0,0,1-.14-.31,16.12,16.12,0,0,0-1-2.12,4,4,0,0,1-.27-.43,8.33,8.33,0,0,0-1.57-1.81A14.45,14.45,0,0,0,67.15,26a14.68,14.68,0,0,0-8.62-2.48A13.32,13.32,0,0,0,56.87,23.51Z"/><path d="M125.66,23.65a16.34,16.34,0,0,0-2.83.53,1.74,1.74,0,0,1-.53.13,1.37,1.37,0,0,0-.44.14,1.33,1.33,0,0,1-.47.15.71.71,0,0,0-.37.14.78.78,0,0,1-.32.14,18.71,18.71,0,0,0-2.58,1.28.51.51,0,0,1-.24.14s-.55.37-1.13.8a17.13,17.13,0,0,0-6.45,10.78,23.71,23.71,0,0,0,.62,10.72A18.66,18.66,0,0,0,112,51.26l.31.56c.1.18.2.38.24.43s.29.44.57.86a11.78,11.78,0,0,0,.74,1A17.1,17.1,0,0,0,125,60.24a29.6,29.6,0,0,0,6.16.08,18.82,18.82,0,0,0,6.22-1.83,12.79,12.79,0,0,0,2.56-1.6,18.48,18.48,0,0,0,2.76-2.6c.12-.17.32-.41.44-.56a15.15,15.15,0,0,0,1.22-1.87c.17-.33.36-.67.41-.76A20.29,20.29,0,0,0,146.43,46a25.21,25.21,0,0,0-.3-9.54c-.06-.16-.16-.54-.26-.85a19.72,19.72,0,0,0-1.5-3.51l-.39-.66a17.43,17.43,0,0,0-2.18-2.79,19,19,0,0,0-3.28-2.58c-.24-.13-.45-.24-.48-.27a17.48,17.48,0,0,0-3.32-1.43c-.24-.07-.62-.17-.85-.25A22.67,22.67,0,0,0,125.66,23.65Zm4.55,7.42a11.19,11.19,0,0,1,2.88.94,9,9,0,0,1,2.33,1.73l.37.46a10.38,10.38,0,0,1,1.68,3.08.41.41,0,0,0,.1.28,11.52,11.52,0,0,1,.58,2.69,19,19,0,0,1-.29,5.25c-.05.17-.16.54-.25.82a9.41,9.41,0,0,1-.62,1.55c-.05.1-.19.35-.29.57a8.9,8.9,0,0,1-4.54,4,10,10,0,0,1-3.84.62,7.87,7.87,0,0,1-2.94-.39,2.89,2.89,0,0,0-.52-.13,4.71,4.71,0,0,1-.85-.34A8.67,8.67,0,0,1,119.85,48a13.63,13.63,0,0,1-.89-2.51c0-.21-.12-.57-.19-.81a32.92,32.92,0,0,1,0-5.44c.07-.24.15-.63.21-.86a9.49,9.49,0,0,1,4.89-6.51c.26-.11.59-.27.73-.34a1.23,1.23,0,0,1,.47-.13.52.52,0,0,0,.33-.1,9.14,9.14,0,0,1,2-.38A12.07,12.07,0,0,1,130.21,31.07Z"/><path d="M165.42,23.61a18.26,18.26,0,0,0-6.27,1.86,17.4,17.4,0,0,0-6.36,6.1,20.26,20.26,0,0,0-2.37,7.12,31.35,31.35,0,0,0,0,6.64A23.86,23.86,0,0,0,151,47.8c0,.1.18.51.29.9a6.86,6.86,0,0,0,.34.9.73.73,0,0,1,.13.3,18.39,18.39,0,0,0,2.55,4.39A20,20,0,0,0,158.42,58a25.32,25.32,0,0,0,3.3,1.53l.75.24a23.57,23.57,0,0,0,2.67.57,22,22,0,0,0,8.18-.59,2.62,2.62,0,0,1,.52-.12,19,19,0,0,0,1.92-.69,20,20,0,0,0,4-2.4,18.84,18.84,0,0,0,2.48-2.66c.39-.59.42-.68.29-.82a12.56,12.56,0,0,0-1.81-1.12,2,2,0,0,1-.45-.25,14.77,14.77,0,0,0-1.52-.87,1.58,1.58,0,0,1-.33-.21,2.32,2.32,0,0,0-.38-.23l-1.1-.64a4.48,4.48,0,0,0-.92-.45.48.48,0,0,0-.28.2,9.42,9.42,0,0,1-1.68,1.66,9.87,9.87,0,0,1-2.63,1.36.41.41,0,0,0-.27.09,8.87,8.87,0,0,1-3.13.43,7.73,7.73,0,0,1-3.08-.49,11.43,11.43,0,0,1-2.18-1.08s-.09-.11-.19-.13a12.06,12.06,0,0,1-2.2-2.12,2.29,2.29,0,0,0-.28-.4s-.21-.35-.4-.71a9.85,9.85,0,0,1-.71-1.85,3.38,3.38,0,0,1-.16-1.41l.06-.2H172.1c12.13,0,13.18,0,13.3-.16a34.07,34.07,0,0,0,0-6.63,20.2,20.2,0,0,0-.89-3.49,1.6,1.6,0,0,1-.11-.36,23.47,23.47,0,0,0-1.82-3.45l-.48-.62a16.73,16.73,0,0,0-5.4-4.43,7.07,7.07,0,0,0-1.64-.69.28.28,0,0,1-.2-.1c0-.06-.12-.09-.2-.09a1.34,1.34,0,0,1-.44-.14,16.36,16.36,0,0,0-3.22-.72c-.4,0-1-.13-1.33-.19A23.2,23.2,0,0,0,165.42,23.61Zm4.6,7.45a13.44,13.44,0,0,1,2.26.55c.08.05.38.18.63.29a7.29,7.29,0,0,1,3.53,3.42,7.07,7.07,0,0,1,.73,2.55c-.08.09-17.9.11-18,0a.71.71,0,0,1,0-.48c.05-.21.14-.57.19-.79a8.55,8.55,0,0,1,.76-1.69,7.83,7.83,0,0,1,1.76-2c.25-.2.52-.4.57-.45a10.65,10.65,0,0,1,2.14-1,14.69,14.69,0,0,1,2.74-.57A15,15,0,0,1,170,31.06Z"/><path d="M85.4,24.05a18.79,18.79,0,0,0-.11,3.48c0,1.86,0,3.47.06,3.58l.05.22H97.53l0,.22c0,.12,0,3.74,0,8.05,0,8.84,0,8.62-.78,10.19a5.17,5.17,0,0,1-3.31,2.84,6,6,0,0,1-2.14.18,5.46,5.46,0,0,1-2.17-.21,4.86,4.86,0,0,1-3-2.58c-.16-.34-.33-.68-.37-.75a17.59,17.59,0,0,1-.46-2.38l-.06-.61H77l0,.33a15.76,15.76,0,0,0,.9,5.28,1.65,1.65,0,0,1,.12.39,18.63,18.63,0,0,0,1.2,2.33l.32.44a12.63,12.63,0,0,0,1.88,2.07,13.72,13.72,0,0,0,6.94,3.12,27.12,27.12,0,0,0,5.83.08,15.51,15.51,0,0,0,5.7-1.89,12.53,12.53,0,0,0,5.87-8.12c.46-1.94.45-1.81.42-14.47l0-11.86-10.3,0C87.89,23.93,85.49,24,85.4,24.05Z"/><path d="M187.54,24c-.08.07-.08,7,0,7.18s.32.15,2,.15,1.93,0,2,.16.06,6.5.06,14.27c0,13.87,0,14.12.18,14.23s7.82.13,8.08,0,.18-.4.18-18c0-16.25,0-17.92-.15-18S187.62,23.91,187.54,24Z"/><path d="M9.63,49.47c-.21.1-.68.38-1.06.61a7.66,7.66,0,0,1-.74.42,2.18,2.18,0,0,0-.47.26c-.4.25-.49.31-1.53.88-.32.17-.63.35-.7.4A9.62,9.62,0,0,1,4,52.71c-.41.2-.66.46-.6.63a4.52,4.52,0,0,0,.35.53,16.61,16.61,0,0,0,6.55,5.07,6.62,6.62,0,0,1,.64.29.64.64,0,0,0,.28.09,1.69,1.69,0,0,1,.39.13,18.63,18.63,0,0,0,3.58.87,22.38,22.38,0,0,0,5.41-.09,20,20,0,0,0,3.29-.77,1.32,1.32,0,0,1,.48-.14.68.68,0,0,0,.35-.14A.63.63,0,0,1,25,59a25.82,25.82,0,0,0,2.63-1.26l.76-.52A15.18,15.18,0,0,0,31.12,55l.61-.7a7.48,7.48,0,0,0,.71-1.09c0-.12-.34-.37-1-.71-.33-.18-1-.57-1.48-.86a8.82,8.82,0,0,0-.95-.53,2.68,2.68,0,0,1-.44-.26A15,15,0,0,0,27.08,50a3.46,3.46,0,0,1-.33-.21,3.23,3.23,0,0,0-.9-.47,5.46,5.46,0,0,0-1,.86,11.2,11.2,0,0,1-1.19,1,2.81,2.81,0,0,0-.38.28,10.28,10.28,0,0,1-2,1,9.45,9.45,0,0,1-3.46.56,8.28,8.28,0,0,1-4.4-1A7.85,7.85,0,0,1,11,50.11a8.72,8.72,0,0,0-.9-.84A1.54,1.54,0,0,0,9.63,49.47Z"/></svg>