<?xml version="1.0" encoding="UTF-8" standalone="no"?>
<svg id="Camada_1" data-name="Camada 1" viewBox="0 0 32 32" version="1.1" sodipodi:docname="enjoei.svg" width="32" height="32" inkscape:version="1.4-beta2 (9aaf4f34, 2024-07-30)" xmlns:inkscape="http://www.inkscape.org/namespaces/inkscape" xmlns:sodipodi="http://sodipodi.sourceforge.net/DTD/sodipodi-0.dtd" xmlns="http://www.w3.org/2000/svg" xmlns:svg="http://www.w3.org/2000/svg">
  <defs id="defs8" />
  <sodipodi:namedview id="namedview8" pagecolor="#ffffff" bordercolor="#000000" borderopacity="0.25" inkscape:showpageshadow="2" inkscape:pageopacity="0.0" inkscape:pagecheckerboard="0" inkscape:deskcolor="#d1d1d1" inkscape:zoom="1.2448163" inkscape:cx="118.08971" inkscape:cy="54.224867" inkscape:window-width="1440" inkscape:window-height="790" inkscape:window-x="0" inkscape:window-y="0" inkscape:window-maximized="1" inkscape:current-layer="Camada_1" />
  <g id="g8" transform="matrix(0.86621495,0,0,0.86621495,0.67264982,-20.355931)">
    <path d="M 16.07,23.51 14.79,23.7 A 15.6,15.6 0 0 0 9,25.46 12.51,12.51 0 0 0 5.1,28.34 13.27,13.27 0 0 0 2,32.6 c -0.31,0.64 -0.58,1.21 -0.58,1.25 a 1.32,1.32 0 0 1 -0.13,0.36 14.78,14.78 0 0 0 -0.79,2.63 19.85,19.85 0 0 0 -0.48,5 c 0,2.35 0,2.56 0.12,2.67 0.12,0.11 3.56,0.13 17.51,0.13 14.92,0 17.36,0 17.47,-0.14 a 23,23 0 0 0 0.21,-4.94 18.55,18.55 0 0 0 -1.07,-5.24 0.87,0.87 0 0 1 -0.11,-0.32 8.62,8.62 0 0 0 -0.7,-1.6 16.29,16.29 0 0 0 -5.28,-5.9 19.45,19.45 0 0 0 -3,-1.6 1.81,1.81 0 0 1 -0.36,-0.13 17.71,17.71 0 0 0 -4.43,-1.06 29.8,29.8 0 0 0 -4.31,-0.2 z M 19,31 a 10.2,10.2 0 0 1 3.88,1.07 5.6,5.6 0 0 1 0.76,0.42 l 0.63,0.49 a 6.67,6.67 0 0 1 0.92,0.92 c 0.23,0.29 0.46,0.57 0.49,0.63 0.51,0.64 1.41,3.14 1.2,3.34 0,0 -4.11,0.07 -9,0.07 h -9 V 37.7 A 10.69,10.69 0 0 1 9.25,36.25 7.63,7.63 0 0 1 11.53,33 9,9 0 0 1 15.84,31.16 10.54,10.54 0 0 1 19,31 Z" id="path2" />
    <path d="m 9.63,49.47 c -0.21,0.1 -0.68,0.38 -1.06,0.61 A 7.66,7.66 0 0 1 7.83,50.5 2.18,2.18 0 0 0 7.36,50.76 c -0.4,0.25 -0.49,0.31 -1.53,0.88 -0.32,0.17 -0.63,0.35 -0.7,0.4 A 9.62,9.62 0 0 1 4,52.71 c -0.41,0.2 -0.66,0.46 -0.6,0.63 a 4.52,4.52 0 0 0 0.35,0.53 16.61,16.61 0 0 0 6.55,5.07 6.62,6.62 0 0 1 0.64,0.29 0.64,0.64 0 0 0 0.28,0.09 1.69,1.69 0 0 1 0.39,0.13 18.63,18.63 0 0 0 3.58,0.87 22.38,22.38 0 0 0 5.41,-0.09 20,20 0 0 0 3.29,-0.77 1.32,1.32 0 0 1 0.48,-0.14 0.68,0.68 0 0 0 0.35,-0.14 A 0.63,0.63 0 0 1 25,59 25.82,25.82 0 0 0 27.63,57.74 l 0.76,-0.52 A 15.18,15.18 0 0 0 31.12,55 l 0.61,-0.7 a 7.48,7.48 0 0 0 0.71,-1.09 c 0,-0.12 -0.34,-0.37 -1,-0.71 -0.33,-0.18 -1,-0.57 -1.48,-0.86 A 8.82,8.82 0 0 0 29.01,51.11 2.68,2.68 0 0 1 28.57,50.85 15,15 0 0 0 27.08,50 a 3.46,3.46 0 0 1 -0.33,-0.21 3.23,3.23 0 0 0 -0.9,-0.47 5.46,5.46 0 0 0 -1,0.86 11.2,11.2 0 0 1 -1.19,1 2.81,2.81 0 0 0 -0.38,0.28 10.28,10.28 0 0 1 -2,1 9.45,9.45 0 0 1 -3.46,0.56 8.28,8.28 0 0 1 -4.4,-1 7.85,7.85 0 0 1 -2.42,-1.91 8.72,8.72 0 0 0 -0.9,-0.84 1.54,1.54 0 0 0 -0.47,0.2 z" id="path8" />
  </g>
</svg>
