<?xml version="1.0" encoding="UTF-8" standalone="no"?>
<svg viewBox="0 0 32 32" version="1.1" id="svg2" sodipodi:docname="epic-games.svg" width="32" height="32" inkscape:version="1.4-beta2 (9aaf4f34, 2024-07-30)" xmlns:inkscape="http://www.inkscape.org/namespaces/inkscape" xmlns:sodipodi="http://sodipodi.sourceforge.net/DTD/sodipodi-0.dtd" xmlns="http://www.w3.org/2000/svg" xmlns:svg="http://www.w3.org/2000/svg">
  <defs id="defs2" />
  <sodipodi:namedview id="namedview2" pagecolor="#ffffff" bordercolor="#000000" borderopacity="0.25" inkscape:showpageshadow="2" inkscape:pageopacity="0.0" inkscape:pagecheckerboard="0" inkscape:deskcolor="#d1d1d1" inkscape:zoom="5.1325444" inkscape:cx="18.119668" inkscape:cy="17.437745" inkscape:window-width="1440" inkscape:window-height="790" inkscape:window-x="0" inkscape:window-y="0" inkscape:window-maximized="1" inkscape:current-layer="svg2" />
  <g id="g2" transform="matrix(1.6841548,0,0,1.6841548,-4.2106997,-66.555568)">
    <path d="m 11.226,45.138676 v -1.832 c 0,-0.292 -0.137,-0.427 -0.42,-0.427 h -0.463 v 2.685 h 0.463 c 0.284,0 0.42,-0.135 0.42,-0.426 m -1.502,6.5 -0.252,0.628 h 0.501 z" id="path1" />
    <path fill-rule="evenodd" d="m 5.278,39.518676 h 13.445 c 1.103,0 1.505,0.401 1.505,1.488 v 13.242 c 0,0.17 -0.03,0.477 -0.086,0.609 a 0.9,0.9 0 0 1 -0.21,0.334 c -0.106,0.099 -0.29,0.202 -0.378,0.242 l -7.128,3 a 1.1,1.1 0 0 1 -0.851,0 l -7.127,-3 a 1.7,1.7 0 0 1 -0.379,-0.241 0.9,0.9 0 0 1 -0.21,-0.335 c -0.055,-0.131 -0.086,-0.438 -0.086,-0.608 v -13.243 c 0,-1.087 0.403,-1.488 1.505,-1.488 m 8.707,2.383 h -1.126 v 7.285 h 1.126 z m -0.414,9.027 h -0.654 l -0.534,0.855 -0.532,-0.855 h -0.655 v 2.208 h 0.607 v -1.262 l 0.568,0.858 h 0.013 l 0.571,-0.864 v 1.268 h 0.616 z m -2.587,-9.027 H 9.218 v 7.286 h 1.125 v -2.644 h 0.641 c 0.915,0 1.368,-0.447 1.368,-1.353 v -1.936 c 0,-0.906 -0.453,-1.353 -1.368,-1.353 m -2.33,0 H 6.15 v 7.286 h 2.524 v -1.01 H 7.276 v -2.196 H 8.6 v -1.01 H 7.276 v -2.06 h 1.377 z m -0.794,11.184 q 0.243,-0.098 0.421,-0.243 v -0.994 H 7.255 v 0.45 h 0.44 v 0.267 a 0.64,0.64 0 0 1 -0.357,0.091 0.6,0.6 0 0 1 -0.436,-0.172 0.6,0.6 0 0 1 -0.126,-0.194 0.7,0.7 0 0 1 -0.045,-0.246 v -0.006 a 0.63,0.63 0 0 1 0.166,-0.429 0.54,0.54 0 0 1 0.405,-0.177 q 0.166,0 0.292,0.054 a 1,1 0 0 1 0.248,0.154 l 0.363,-0.431 a 1.4,1.4 0 0 0 -0.394,-0.237 1.4,1.4 0 0 0 -0.512,-0.085 q -0.26,0 -0.48,0.088 a 1.2,1.2 0 0 0 -0.382,0.245 q -0.16,0.156 -0.25,0.364 -0.09,0.209 -0.091,0.451 v 0.007 q 0,0.25 0.092,0.458 0.093,0.21 0.256,0.362 0.162,0.151 0.384,0.236 0.223,0.085 0.484,0.085 0.306,0 0.549,-0.098 m 1.57,-2.173 -0.952,2.224 h 0.652 l 0.16,-0.394 h 0.861 l 0.164,0.394 h 0.663 l -0.951,-2.224 z m 5.273,4.686 0.013,-0.018 0.004,-0.023 a 0.06,0.06 0 0 0 -0.017,-0.041 0.05,0.05 0 0 0 -0.04,-0.017 H 9.346 a 0.06,0.06 0 0 0 -0.041,0.017 l -0.013,0.018 -0.005,0.023 a 0.06,0.06 0 0 0 0.018,0.041 q 0.007,0.008 0.018,0.012 l 2.58,1.095 a 0.23,0.23 0 0 0 0.181,0 l 2.6,-1.095 z m -0.719,-2.462 h 1.813 v -0.52 h -1.2 v -0.35 h 1.072 v -0.483 h -1.072 v -0.334 h 1.184 v -0.52 h -1.796 z m 0.594,-9.945 v 4.705 c 0,0.906 0.453,1.353 1.368,1.353 h 0.557 c 0.915,0 1.367,-0.448 1.367,-1.353 v -1.698 h -1.104 v 1.645 c 0,0.291 -0.137,0.426 -0.42,0.426 h -0.21 c -0.295,0 -0.432,-0.135 -0.432,-0.426 v -4.6 c 0,-0.292 0.136,-0.427 0.431,-0.427 h 0.19 c 0.283,0 0.42,0.135 0.42,0.426 v 1.426 h 1.104 v -1.487 c 0,-0.906 -0.442,-1.343 -1.357,-1.343 h -0.547 c -0.914,0 -1.367,0.448 -1.367,1.353 m 3.27,9.569 a 0.7,0.7 0 0 0 0.065,-0.303 v -0.007 a 0.53,0.53 0 0 0 -0.223,-0.458 1,1 0 0 0 -0.264,-0.133 3,3 0 0 0 -0.346,-0.097 2,2 0 0 1 -0.19,-0.049 1,1 0 0 1 -0.118,-0.047 0.16,0.16 0 0 1 -0.061,-0.052 0.12,0.12 0 0 1 -0.017,-0.066 v -0.006 q 0,-0.06 0.055,-0.101 a 0.3,0.3 0 0 1 0.168,-0.041 q 0.15,0 0.31,0.055 0.162,0.055 0.315,0.163 l 0.31,-0.432 a 1.3,1.3 0 0 0 -0.407,-0.22 q -0.225,-0.075 -0.513,-0.074 -0.201,0 -0.36,0.052 a 0.8,0.8 0 0 0 -0.273,0.147 0.63,0.63 0 0 0 -0.232,0.508 v 0.007 a 0.6,0.6 0 0 0 0.066,0.285 q 0.066,0.115 0.179,0.192 0.113,0.078 0.267,0.127 0.152,0.048 0.331,0.09 0.115,0.025 0.187,0.048 a 0.6,0.6 0 0 1 0.115,0.05 0.2,0.2 0 0 1 0.059,0.051 q 0.016,0.027 0.016,0.062 v 0.006 a 0.12,0.12 0 0 1 -0.066,0.112 0.4,0.4 0 0 1 -0.19,0.04 q -0.389,0 -0.724,-0.266 l -0.345,0.407 q 0.209,0.183 0.477,0.275 0.27,0.091 0.57,0.091 a 1.3,1.3 0 0 0 0.37,-0.049 0.8,0.8 0 0 0 0.285,-0.142 0.7,0.7 0 0 0 0.183,-0.225" clip-rule="evenodd" id="path2" />
  </g>
</svg>
