<?xml version="1.0" encoding="UTF-8" standalone="no"?>
<svg id="a" viewBox="0 0 32 32" version="1.1" sodipodi:docname="escavador.svg" width="32" height="32" inkscape:version="1.4-beta2 (9aaf4f34, 2024-07-30)" xmlns:inkscape="http://www.inkscape.org/namespaces/inkscape" xmlns:sodipodi="http://sodipodi.sourceforge.net/DTD/sodipodi-0.dtd" xmlns="http://www.w3.org/2000/svg" xmlns:svg="http://www.w3.org/2000/svg">
  <defs id="defs2" />
  <sodipodi:namedview id="namedview2" pagecolor="#ffffff" bordercolor="#000000" borderopacity="0.25" inkscape:showpageshadow="2" inkscape:pageopacity="0.0" inkscape:pagecheckerboard="0" inkscape:deskcolor="#d1d1d1" inkscape:zoom="2.1642019" inkscape:cx="17.096371" inkscape:cy="55.678723" inkscape:window-width="1440" inkscape:window-height="790" inkscape:window-x="0" inkscape:window-y="0" inkscape:window-maximized="1" inkscape:current-layer="a" />
  <g id="g2" transform="matrix(0.5775551,0,0,0.5775551,0.00638559,-7.1066846)">
    <path d="m 54.48,22.23 c -1.14,-1.75 -3.23,-2.65 -5.3,-2.3 l -12.02,1.96 c -0.86,-5.23 -5.78,-8.8 -11.02,-7.95 -4.08,0.65 -7.29,3.87 -7.95,7.95 L 6.17,19.94 c -2.9,-0.47 -5.63,1.51 -6.11,4.42 -0.21,1.27 0.05,2.56 0.72,3.65 v 0 L 23.15,63.7 c 0.97,1.56 2.68,2.5 4.52,2.5 1.84,0.03 3.55,-0.93 4.52,-2.5 L 54.58,28.02 c 1.13,-1.77 1.08,-4.06 -0.12,-5.79 h 0.03 v 0.03 h -0.02 v 0 z M 27.69,62.1 v 0 c -0.41,0 -0.8,-0.21 -1.02,-0.55 L 4.33,25.81 c -0.27,-0.39 -0.27,-0.92 0,-1.3 0.22,-0.34 0.58,-0.54 0.99,-0.54 h 0.23 l 13,2.11 c 1.3,4.77 5.29,11.09 9.17,11.09 3.88,0 7.88,-6.34 9.09,-11.09 l 13,-2.11 c 0.46,-0.08 0.92,0.13 1.18,0.52 0.27,0.39 0.27,0.92 0,1.3 l -22.26,35.7 c -0.21,0.38 -0.6,0.62 -1.02,0.62 h -0.03 v 0 z m 0,-44.2 c 2.98,-0.03 5.43,2.35 5.46,5.32 v 0 c 0,3.9 -4.38,9.83 -5.46,9.83 -1.08,0 -5.46,-5.86 -5.46,-9.83 0.03,-2.98 2.49,-5.37 5.46,-5.32 z" style="stroke-width:0px" id="path1" />
  </g>
</svg>
