<?xml version="1.0" encoding="UTF-8"?><svg id="a" xmlns="http://www.w3.org/2000/svg" viewBox="0 0 260 80"><path d="m54.48,22.23c-1.14-1.75-3.23-2.65-5.3-2.3l-12.02,1.96c-.86-5.23-5.78-8.8-11.02-7.95-4.08.65-7.29,3.87-7.95,7.95l-12.02-1.95c-2.9-.47-5.63,1.51-6.11,4.42-.21,1.27.05,2.56.72,3.65h0l22.37,35.69c.97,1.56,2.68,2.5,4.52,2.5,1.84.03,3.55-.93,4.52-2.5l22.39-35.68c1.13-1.77,1.08-4.06-.12-5.79h.03v.03h-.02,0Zm-26.79,39.87h0c-.41,0-.8-.21-1.02-.55L4.33,25.81c-.27-.39-.27-.92,0-1.3.22-.34.58-.54.99-.54h.23l13,2.11c1.3,4.77,5.29,11.09,9.17,11.09s7.88-6.34,9.09-11.09l13-2.11c.46-.08.92.13,1.18.52.27.39.27.92,0,1.3l-22.26,35.7c-.21.38-.6.62-1.02.62h-.03,0Zm0-44.2c2.98-.03,5.43,2.35,5.46,5.32h0c0,3.9-4.38,9.83-5.46,9.83s-5.46-5.86-5.46-9.83c.03-2.98,2.49-5.37,5.46-5.32h0Z" style="stroke-width:0px;"/><path d="m104.61,42.58c0,6.92,5.31,11.46,11.7,11.46,2.07.03,4.12-.38,6.01-1.17v-5.29c-1.61.8-3.39,1.26-5.2,1.3-3.72,0-6.88-2.17-6.88-6.25s3.33-6.28,7.05-6.28c1.77-.03,3.53.41,5.07,1.3v-5.27c-1.93-.82-4-1.23-6.09-1.2-6.24,0-11.69,4.38-11.69,11.41h.03-.02,0Zm-30.27-11.46c-5.97,0-10.8,4.86-10.79,10.84v.44c0,6.88,4.84,11.7,12.53,11.7,2.43.05,4.81-.51,6.96-1.64v-4.94c-2.13,1.13-4.52,1.75-6.92,1.8-3.65,0-6.5-1.8-7.13-4.84h15.49c0-.51.1-1.66.1-2.34,0-6.74-4.63-11.03-10.25-11.03h0s0,.02,0,.02Zm-5.34,9.63c0-2.87,2.33-5.2,5.2-5.2s5.2,2.33,5.2,5.2h-10.4Zm26.39-.76c-2.03-.6-3.73-1.06-3.73-2.34s1.57-1.98,3.65-1.98c2.23.03,4.43.63,6.38,1.72v-5.06c-2.03-.81-4.19-1.23-6.38-1.2-5.85,0-8.99,2.84-8.99,6.5,0,4.16,3.33,5.44,6.41,6.34,2.6.75,4.98,1.3,4.98,3.12,0,1.54-1.54,2.17-3.9,2.17-2.54-.13-5.01-.87-7.19-2.17v5.2c2.32,1.05,4.82,1.6,7.37,1.64,5.31,0,9.04-2.7,9.04-7.19,0-4.84-4.28-5.98-7.63-6.88v.15h0v-.03h-.02Zm162.64-8.82c-2.71.22-5.11,1.89-6.25,4.38v-3.9h-5.41v22.1h5.59v-10.37c0-3.81,2.37-6.73,6.11-6.73.65,0,1.3.04,1.94.12v-5.47c-.65-.12-1.31-.17-1.97-.17v.04h0Zm-46.09-9.09v12.6c-1.4-2.23-3.87-3.53-6.5-3.41-5.82,0-10.4,4.9-10.4,11.42s4.55,11.51,10.4,11.51c2.64.12,5.16-1.25,6.5-3.53v3.06h5.59v-31.73l-5.59.12v-.04Zm-5.56,27.19c-2.97,0-5.7-2.6-5.7-6.61s2.78-6.5,5.7-6.5c3.39,0,5.85,2.6,5.85,6.45s-2.5,6.64-5.85,6.64v.03h0Zm25.54-18.04c-6.34.09-11.41,5.29-11.32,11.61.09,6.32,5.29,11.41,11.61,11.32,6.33-.09,11.4-5.25,11.32-11.58-.05-6.36-5.25-11.48-11.61-11.46v.12h0Zm0,17.67c-3.26.03-5.93-2.6-5.95-5.86v-.46c0-3.28,2.65-5.95,5.95-5.95s5.95,2.65,5.95,5.95h0c.17,3.25-2.32,6.01-5.57,6.2h-.4v.12h.02Zm-91.16-14.3c-1.4-2.23-3.87-3.53-6.5-3.41-5.75,0-10.4,4.9-10.4,11.41s4.57,11.51,10.4,11.51c2.65.14,5.17-1.2,6.5-3.51v3.06h5.62v-22.05h-5.62v3.01h0v-.03h0Zm-5.47,14.61c-2.98,0-5.71-2.6-5.71-6.61s2.8-6.5,5.71-6.5c3.37,0,5.84,2.6,5.84,6.45s-2.5,6.61-5.84,6.61v.08h0v-.03Zm51.31-14.61c-1.4-2.23-3.87-3.53-6.5-3.41-5.75,0-10.4,4.9-10.4,11.41s4.57,11.51,10.4,11.51c2.65.14,5.17-1.21,6.5-3.51v3.06h5.61v-22.05h-5.61v3.01h0v-.03h0Zm-5.48,14.61c-2.97,0-5.7-2.6-5.7-6.61s2.78-6.5,5.7-6.5c3.39,0,5.85,2.6,5.85,6.45s-2.51,6.61-5.85,6.61v.08h0v-.03Zm-17.32-17.64l-4.7,16.35-4.67-16.35h-6.11l7.8,22.03h5.98l7.8-22.03s-6.11,0-6.11,0Z" style="stroke-width:0px;"/></svg>