<?xml version="1.0" encoding="UTF-8"?><svg id="a" xmlns="http://www.w3.org/2000/svg" viewBox="0 0 240 80"><defs><style>.b{stroke-width:0px;}</style></defs><path class="b" d="m50.29,23.6c-1.06-1.61-2.98-2.45-4.89-2.13l-11.09,1.81c-.79-4.83-5.33-8.12-10.17-7.34-3.77.61-6.73,3.57-7.34,7.34l-11.09-1.8c-2.68-.43-5.2,1.4-5.64,4.08-.19,1.17.05,2.36.67,3.36h0l20.64,32.94c.89,1.44,2.47,2.31,4.17,2.31,1.7.02,3.28-.86,4.17-2.31l20.67-32.93c1.05-1.64,1-3.74-.11-5.35h.02Zm-24.73,36.81h0c-.38,0-.74-.19-.94-.51L3.99,26.9c-.25-.36-.25-.84,0-1.2.2-.31.53-.5.91-.5.07-.01.14-.01.21,0l12,1.95c1.2,4.4,4.88,10.24,8.47,10.24s7.27-5.86,8.4-10.24l12-1.95c.43-.07.85.12,1.09.48.25.36.25.84,0,1.2l-20.55,32.96c-.19.35-.55.57-.94.57h-.01Zm0-40.8c2.75-.03,5.01,2.17,5.04,4.92h0c0,3.6-4.05,9.07-5.04,9.07s-5.04-5.41-5.04-9.07c.03-2.75,2.29-4.95,5.04-4.92h0Z"/><path class="b" d="m96.56,42.39c0,6.39,4.9,10.58,10.8,10.58,1.91.02,3.8-.35,5.55-1.08v-4.88c-1.49.74-3.13,1.16-4.8,1.2-3.43,0-6.35-2.01-6.35-5.77s3.07-5.8,6.51-5.8c1.64-.03,3.26.38,4.68,1.2v-4.87c-1.78-.76-3.69-1.13-5.62-1.11-5.76,0-10.79,4.05-10.79,10.53h.01Zm-27.94-10.58c-5.51.01-9.97,4.49-9.96,10.01v.4c0,6.35,4.47,10.8,11.57,10.8,2.24.05,4.44-.47,6.43-1.51v-4.56c-1.97,1.05-4.17,1.61-6.39,1.66-3.36,0-6-1.66-6.58-4.47h14.3c0-.47.1-1.53.1-2.16-.01-6.22-4.27-10.18-9.47-10.18Zm-4.93,8.88c0-2.65,2.15-4.8,4.8-4.8s4.8,2.15,4.8,4.8h-9.6Zm24.36-.7c-1.88-.55-3.44-.98-3.44-2.16s1.45-1.83,3.36-1.83c2.06.03,4.09.58,5.89,1.59v-4.67c-1.88-.75-3.87-1.13-5.89-1.11-5.4,0-8.3,2.62-8.3,6,0,3.84,3.07,5.02,5.92,5.85,2.4.69,4.6,1.2,4.6,2.89,0,1.42-1.42,2-3.6,2-2.35-.12-4.63-.81-6.64-2v4.8c2.14.97,4.45,1.47,6.8,1.51,4.9,0,8.35-2.49,8.35-6.64,0-4.47-3.95-5.52-7.04-6.35v.14h-.01Zm150.13-8.14c-2.51.2-4.72,1.75-5.77,4.04v-3.6h-4.99v20.4h5.15v-9.57c0-3.52,2.19-6.21,5.64-6.21.6,0,1.2.04,1.79.11v-5.05c-.6-.11-1.21-.16-1.82-.16v.04Zm-42.54-8.4v11.63c-1.29-2.05-3.58-3.26-6-3.15-5.37,0-9.6,4.53-9.6,10.54s4.2,10.63,9.6,10.63c2.44.11,4.76-1.15,6-3.25v2.83h5.15v-29.3l-5.15.11v-.02Zm-5.13,25.1c-2.74,0-5.26-2.4-5.26-6.1s2.56-6,5.26-6c3.12,0,5.4,2.4,5.4,5.95s-2.31,6.13-5.4,6.13v.02Zm23.58-16.65c-5.85.08-10.53,4.88-10.45,10.71s4.88,10.53,10.71,10.45c5.84-.08,10.52-4.85,10.45-10.69-.05-5.87-4.84-10.6-10.71-10.58v.11Zm0,16.31c-3.01.02-5.47-2.4-5.49-5.41,0-.14,0-.28.01-.43,0-3.03,2.45-5.49,5.49-5.49s5.49,2.45,5.49,5.49h0c.16,3-2.14,5.55-5.14,5.72h-.37v.11h.01Zm-84.14-13.2c-1.29-2.06-3.58-3.26-6-3.15-5.31,0-9.6,4.52-9.6,10.53s4.22,10.63,9.6,10.63c2.45.13,4.77-1.11,6-3.24v2.83h5.19v-20.36h-5.19v2.78h0Zm-5.05,13.49c-2.75,0-5.27-2.4-5.27-6.1s2.59-6,5.27-6c3.11,0,5.39,2.4,5.39,5.95s-2.31,6.1-5.39,6.1v.07h0Zm47.36-13.49c-1.29-2.06-3.58-3.26-6-3.15-5.31,0-9.6,4.52-9.6,10.53s4.22,10.63,9.6,10.63c2.45.13,4.77-1.12,6-3.24v2.83h5.18v-20.36h-5.18v2.78h0Zm-5.06,13.49c-2.74,0-5.26-2.4-5.26-6.1s2.56-6,5.26-6c3.12,0,5.4,2.4,5.4,5.95s-2.32,6.1-5.4,6.1v.07h0Zm-15.99-16.28l-4.33,15.1-4.31-15.1h-5.64l7.2,20.33h5.52l7.2-20.33h-5.64Z"/></svg>