<?xml version="1.0" encoding="UTF-8"?><svg id="a" xmlns="http://www.w3.org/2000/svg" viewBox="0 0 347.49 80"><defs><style>.b{stroke-width:0px;}</style></defs><path class="b" d="m72.81,16.26c-1.53-2.33-4.31-3.55-7.08-3.08l-16.06,2.62c-1.14-6.99-7.72-11.76-14.73-10.63-5.46.88-9.74,5.17-10.63,10.63l-16.06-2.61C4.38,12.56.73,15.21.09,19.09c-.28,1.69.07,3.42.97,4.87h0l29.89,47.69c1.29,2.09,3.58,3.34,6.04,3.34,2.46.03,4.75-1.25,6.04-3.34l29.93-47.68c1.52-2.37,1.45-5.42-.16-7.75h.03v.03Zm-35.81,53.3h0c-.55,0-1.07-.28-1.36-.74L5.77,21.04c-.36-.52-.36-1.22,0-1.74.29-.45.77-.72,1.32-.72.1-.01.2-.01.3,0l17.38,2.82c1.74,6.37,7.07,14.83,12.26,14.83s10.53-8.48,12.16-14.83l17.38-2.82c.62-.1,1.23.17,1.58.7.36.52.36,1.22,0,1.74l-29.76,47.72c-.28.51-.8.83-1.36.83h-.03Zm0-59.08c3.98-.04,7.25,3.14,7.3,7.12h0c0,5.21-5.86,13.13-7.3,13.13s-7.3-7.83-7.3-13.13c.04-3.98,3.32-7.17,7.3-7.12h0Z"/><path class="b" d="m139.8,43.46c0,9.25,7.09,15.32,15.64,15.32,2.77.03,5.5-.51,8.04-1.56v-7.07c-2.16,1.07-4.53,1.68-6.95,1.74-4.97,0-9.19-2.91-9.19-8.35s4.45-8.4,9.43-8.4c2.37-.04,4.72.55,6.78,1.74v-7.05c-2.58-1.1-5.34-1.64-8.14-1.61-8.34,0-15.62,5.86-15.62,15.25h.03Zm-40.46-15.32c-7.98.01-14.44,6.5-14.42,14.49v.58c0,9.19,6.47,15.64,16.75,15.64,3.24.07,6.43-.68,9.31-2.19v-6.6c-2.85,1.52-6.04,2.33-9.25,2.4-4.87,0-8.69-2.4-9.53-6.47h20.71c0-.68.14-2.22.14-3.13-.01-9.01-6.18-14.74-13.71-14.74h0Zm-7.14,12.86c0-3.84,3.11-6.95,6.95-6.95s6.95,3.11,6.95,6.95h-13.9Zm35.27-1.01c-2.72-.8-4.98-1.42-4.98-3.13s2.1-2.65,4.87-2.65c2.98.04,5.92.84,8.53,2.3v-6.76c-2.72-1.09-5.6-1.64-8.53-1.61-7.82,0-12.02,3.79-12.02,8.69,0,5.56,4.45,7.27,8.57,8.47,3.48,1,6.66,1.74,6.66,4.18,0,2.06-2.06,2.9-5.21,2.9-3.4-.17-6.7-1.17-9.61-2.9v6.95c3.1,1.4,6.44,2.13,9.85,2.19,7.09,0,12.09-3.61,12.09-9.61,0-6.47-5.72-7.99-10.19-9.19v.2h-.01v-.03Zm217.38-11.79c-3.63.29-6.83,2.53-8.35,5.85v-5.21h-7.23v29.54h7.46v-13.86c0-5.1,3.17-8.99,8.17-8.99.87,0,1.74.06,2.59.16v-7.31c-.87-.16-1.75-.23-2.64-.23v.06h0Zm-61.6-12.16v16.84c-1.87-2.97-5.18-4.72-8.69-4.56-7.78,0-13.9,6.56-13.9,15.26s6.08,15.39,13.9,15.39c3.53.16,6.89-1.67,8.69-4.71v4.1h7.46V15.94l-7.46.16v-.06Zm-7.43,36.34c-3.97,0-7.62-3.48-7.62-8.83s3.71-8.69,7.62-8.69c4.52,0,7.82,3.48,7.82,8.62s-3.34,8.88-7.82,8.88c0,0,0,.03,0,.03Zm34.14-24.11c-8.47.12-15.25,7.07-15.13,15.51.12,8.44,7.07,15.25,15.51,15.13,8.46-.12,15.23-7.02,15.13-15.48-.07-8.5-7.01-15.35-15.51-15.32,0,0,0,.16,0,.16Zm0,23.62c-4.36.03-7.92-3.48-7.95-7.83,0-.2,0-.41.01-.62,0-4.39,3.55-7.95,7.95-7.95s7.95,3.55,7.95,7.95h0c.23,4.34-3.1,8.04-7.44,8.28h-.54v.16h.01Zm-121.83-19.11c-1.87-2.98-5.18-4.72-8.69-4.56-7.69,0-13.9,6.54-13.9,15.25s6.11,15.39,13.9,15.39c3.55.19,6.91-1.61,8.69-4.69v4.1h7.51v-29.48h-7.51v4.03h0v-.03Zm-7.31,19.53c-3.98,0-7.63-3.48-7.63-8.83s3.75-8.69,7.63-8.69c4.5,0,7.8,3.48,7.8,8.62s-3.34,8.83-7.8,8.83v.1h0v-.03Zm68.57-19.53c-1.87-2.98-5.18-4.72-8.69-4.56-7.69,0-13.9,6.54-13.9,15.25s6.11,15.39,13.9,15.39c3.55.19,6.91-1.62,8.69-4.69v4.1h7.5v-29.48h-7.5v4.03h0v-.03Zm-7.33,19.53c-3.97,0-7.62-3.48-7.62-8.83s3.71-8.69,7.62-8.69c4.52,0,7.82,3.48,7.82,8.62s-3.36,8.83-7.82,8.83v.1h0v-.03Zm-23.15-23.57l-6.27,21.86-6.24-21.86h-8.17l10.43,29.44h7.99l10.43-29.44h-8.17Z"/></svg>