<svg id="Camada_1" data-name="Camada 1" xmlns="http://www.w3.org/2000/svg" viewBox="0 0 200 80"><path d="M41.91,26.33a4.05,4.05,0,0,0-4.07-1.77L28.6,26.07a7.39,7.39,0,0,0-14.59,0l-9.24-1.5A4.1,4.1,0,0,0,.63,30.77a0,0,0,0,0,0,0L17.83,58.22a4.09,4.09,0,0,0,3.47,1.93,4,4,0,0,0,3.47-1.93L42,30.78A4,4,0,0,0,41.91,26.33ZM21.3,57v0a.88.88,0,0,1-.78-.43L3.33,29.09a.87.87,0,0,1,0-1,.9.9,0,0,1,.75-.42.5.5,0,0,1,.17,0l10,1.63c1,3.66,4.06,8.54,7.05,8.54s6.05-4.88,7-8.54l10-1.63a.91.91,0,0,1,.91.4.89.89,0,0,1,0,1L22.08,56.53A.88.88,0,0,1,21.3,57ZM21.3,23a4.15,4.15,0,0,1,4.2,4.1c0,3-3.37,7.55-4.2,7.55s-4.2-4.51-4.2-7.55A4.15,4.15,0,0,1,21.3,23Z"/><path d="M80.47,42c0,5.33,4.08,8.82,9,8.82a11.83,11.83,0,0,0,4.63-.9V45.86a9.56,9.56,0,0,1-4,1c-2.85,0-5.29-1.67-5.29-4.81s2.55-4.84,5.43-4.84a7.6,7.6,0,0,1,3.9,1V34.16a11.53,11.53,0,0,0-4.68-.93C84.66,33.23,80.47,36.6,80.47,42ZM57.19,33.18a8.32,8.32,0,0,0-8.29,8.68c0,5.29,3.73,9,9.64,9a11,11,0,0,0,5.35-1.25V45.81a11.91,11.91,0,0,1-5.33,1.38c-2.8,0-5-1.38-5.48-3.73H65c0-.39.08-1.27.08-1.8C65.07,36.48,61.53,33.18,57.19,33.18Zm-4.11,7.4a4,4,0,0,1,8,0ZM73.38,40c-1.56-.45-2.86-.82-2.86-1.8s1.21-1.53,2.8-1.53A10.33,10.33,0,0,1,78.23,38V34.11a12.81,12.81,0,0,0-4.91-.93c-4.5,0-6.92,2.18-6.92,5,0,3.2,2.55,4.18,4.94,4.87,2,.57,3.84,1,3.84,2.41,0,1.18-1.18,1.66-3,1.66a12.22,12.22,0,0,1-5.54-1.66v4a14.05,14.05,0,0,0,5.66,1.25c4.08,0,6.95-2.07,6.95-5.54,0-3.73-3.29-4.6-5.86-5.29Zm125.1-6.78a5.8,5.8,0,0,0-4.81,3.36v-3h-4.15v17h4.29V42.61c0-2.94,1.83-5.17,4.7-5.17a13.47,13.47,0,0,1,1.49.09V33.32a9.51,9.51,0,0,0-1.52-.14Zm-35.45-7v9.69a5.62,5.62,0,0,0-5-2.63c-4.47,0-8,3.77-8,8.78s3.5,8.85,8,8.85a5.52,5.52,0,0,0,5-2.71v2.35h4.29V26.13Zm-4.27,20.92c-2.28,0-4.38-2-4.38-5.08s2.14-5,4.38-5c2.6,0,4.5,2,4.5,4.95s-1.93,5.11-4.5,5.11Zm19.65-13.87A8.82,8.82,0,1,0,187.34,42,8.91,8.91,0,0,0,178.41,33.18Zm0,13.59A4.54,4.54,0,0,1,173.85,42,4.57,4.57,0,1,1,183,42,4.53,4.53,0,0,1,178.41,46.77Zm-70.11-11a5.59,5.59,0,0,0-5-2.63c-4.43,0-8,3.76-8,8.77s3.52,8.85,8,8.85a5.43,5.43,0,0,0,5-2.7v2.35h4.33V33.54H108.3Zm-4.21,11.24c-2.29,0-4.39-2-4.39-5.08s2.15-5,4.39-5c2.59,0,4.49,2,4.49,4.95S106.65,47.05,104.09,47.05Zm39.46-11.24a5.59,5.59,0,0,0-5-2.63c-4.43,0-8,3.76-8,8.77s3.52,8.85,8,8.85a5.44,5.44,0,0,0,5-2.7v2.35h4.32V33.54h-4.32Zm-4.22,11.24c-2.28,0-4.38-2-4.38-5.08s2.14-5,4.38-5c2.6,0,4.5,2,4.5,4.95S141.89,47.05,139.33,47.05ZM126,33.54l-3.61,12.58-3.59-12.58h-4.7l6,16.94h4.6l6-16.94Z"/></svg>