<?xml version="1.0" encoding="UTF-8" standalone="no"?>
<svg id="a" viewBox="0 0 31.999999 32" version="1.1" sodipodi:docname="estadao.svg" width="32" height="32" inkscape:version="1.4-beta2 (9aaf4f34, 2024-07-30)" xmlns:inkscape="http://www.inkscape.org/namespaces/inkscape" xmlns:sodipodi="http://sodipodi.sourceforge.net/DTD/sodipodi-0.dtd" xmlns="http://www.w3.org/2000/svg" xmlns:svg="http://www.w3.org/2000/svg">
  <defs id="defs8" />
  <sodipodi:namedview id="namedview8" pagecolor="#ffffff" bordercolor="#000000" borderopacity="0.25" inkscape:showpageshadow="2" inkscape:pageopacity="0.0" inkscape:pagecheckerboard="0" inkscape:deskcolor="#d1d1d1" inkscape:zoom="4.0419577" inkscape:cx="11.628029" inkscape:cy="45.398793" inkscape:window-width="1440" inkscape:window-height="790" inkscape:window-x="0" inkscape:window-y="0" inkscape:window-maximized="1" inkscape:current-layer="a" />
  <g id="g8" transform="matrix(0.64310118,0,0,0.64310118,-118.8631,-6.4317264)">
    <path d="m 232.55,20.78 c -0.07,0.69 -0.17,1.37 -0.32,2.05 -0.16,0.67 -1.68,4.45 -1.8,5.07 -0.07,0.61 -0.1,1.22 -0.09,1.82 -0.47,0.2 -1.52,1 -2.09,1 -0.57,0 -1.92,-1.3 -2.5,-1.44 0,-1.59 0.41,-1.72 0.27,-2.55 -0.23,-0.95 -0.57,-1.87 -0.99,-2.76 -0.16,-0.41 -0.2,-0.86 -0.12,-1.28 -0.12,0.17 -0.2,0.36 -0.24,0.56 -0.04,0.2 -0.04,0.41 0,0.61 0.15,0.88 0.85,2.21 0.95,2.77 0.1,0.57 0.07,1.25 -0.15,1.39 -1.58,-0.17 -3.12,-0.67 -4.5,-1.46 -1.07,-0.61 -2.17,-1.16 -3.3,-1.65 0.67,-1.42 1.52,-2.74 2.52,-3.95 0.83,-1 1.82,-1.86 2.92,-2.54 1.52,-0.77 3.22,-1.1 4.91,-0.97 1.03,0.12 2.06,0.32 3.06,0.6 0,0 0.98,-0.82 1.73,-0.56 -0.22,0.57 -0.46,1.14 -0.46,1.14 l 0.97,0.57 c -0.29,0.51 -0.55,1.02 -0.77,1.57 v 0 z m -43.72,14.51 c 0.02,1.21 0.45,2.37 1.22,3.29 0,0 0.02,0.02 0.02,0.02 -0.24,-0.78 -0.44,-1.58 -0.59,-2.39 v -1.6 c 0.19,-1.12 0.53,-2.22 1,-3.26 0,0 0,0.02 -0.02,0.02 l -0.05,0.04 c -0.41,0.4 -0.76,0.87 -1.02,1.38 l -0.06,0.12 c -0.28,0.6 -0.46,1.24 -0.5,1.9 0,0.13 -0.02,0.26 -0.02,0.38 v 0.09 0 z m 26.6,-8.51 c 0.08,-0.05 0.15,-0.12 0.2,-0.2 0.13,-0.22 0.26,-0.43 0.37,-0.67 0,-0.42 -0.88,-0.37 -1.07,-0.52 -0.19,-0.16 -0.27,-0.37 -0.57,-0.5 l -0.02,0.04 v 0.28 c 0.05,0.27 0.07,0.55 0.07,0.83 0,0.36 -0.03,0.72 -0.12,1.06 0.17,0.06 0.32,0.13 0.48,0.22 0.18,-0.22 0.41,-0.4 0.66,-0.54 z m -0.1,-3.23 -3.46,-3.87 -2.24,1.87 0.08,0.27 c 0.07,0.19 0.17,0.37 0.27,0.56 0.11,0.19 0.23,0.37 0.37,0.56 0.16,0.2 0.32,0.39 0.5,0.57 0.02,0.02 0.06,0.05 0.07,0.07 0.49,0.46 1.07,0.82 1.69,1.06 0.37,0.13 0.76,0.21 1.15,0.22 l 1.54,-1.3 h 0.02 z m -1.67,-6.42 v -1.02 c 0,-0.06 0,-0.12 -0.02,-0.17 -0.02,-0.05 -0.05,-0.11 -0.09,-0.15 -0.13,-0.07 -0.26,-0.15 -0.37,-0.24 -0.04,-0.03 -0.07,-0.07 -0.11,-0.1 -0.24,0.05 -0.48,0.02 -0.71,-0.08 -0.12,-0.04 -0.24,-0.1 -0.34,-0.18 -0.06,-0.05 -0.11,-0.12 -0.14,-0.19 -0.03,-0.07 -0.06,-0.15 -0.06,-0.23 -0.12,0 -0.22,-0.02 -0.33,-0.02 v 0.67 c 0,0 0.02,0.06 0.02,0.08 0.07,0.22 0.07,0.45 0.03,0.67 -0.04,0.22 -0.13,0.43 -0.27,0.62 -0.15,0.21 -0.34,0.37 -0.57,0.49 -0.23,0.12 -0.47,0.18 -0.73,0.18 -0.02,0.19 -0.02,0.39 0,0.58 0.02,0.18 0.21,0.66 0.28,0.92 0.17,0.47 0.26,0.96 0.27,1.45 l 0.51,-0.43 c -0.11,-0.41 -0.23,-0.83 -0.35,-1.26 -0.08,-0.29 -0.16,-0.57 -0.23,-0.85 0.28,-0.06 0.56,-0.17 0.79,-0.33 0.23,-0.16 0.44,-0.37 0.59,-0.62 0.29,0.1 0.58,0.17 0.88,0.23 h 0.9 l 0.02,-0.02 h 0.02 z m 1.3,-1.32 c 0.14,-0.13 0.11,-0.47 -0.16,-1.05 -0.09,-0.12 -0.2,-0.23 -0.32,-0.34 -0.2,0.1 -0.28,0.11 -0.36,0.14 -0.06,0.09 -0.12,0.17 -0.18,0.26 -0.04,0.05 -0.17,0.03 -0.21,0.07 -0.07,0.17 -0.19,0.32 -0.34,0.42 0.2,0.18 0.42,0.32 0.67,0.42 0.17,0.07 0.74,0.2 0.88,0.07 v 0 z m 0.66,-2.34 c 0.6,-0.35 1.12,-0.82 1.52,-1.38 -0.11,-0.04 -0.22,-0.08 -0.32,-0.14 -0.42,-0.25 -0.77,-0.58 -1.04,-0.98 -0.37,0.87 -0.93,1.64 -1.67,2.24 0.03,0.07 0.07,0.14 0.08,0.22 0,0.02 0.02,0.05 0.02,0.07 0.03,0.19 0.03,0.39 0,0.58 0.49,-0.14 0.96,-0.34 1.4,-0.6 v 0 z m 1.72,-1.72 h 0.02 c 0,0 0.02,-0.02 0.02,-0.03 v -0.03 c -0.07,-0.32 -0.27,-0.62 -0.53,-0.82 -0.14,-0.14 -0.3,-0.27 -0.47,-0.38 -0.18,-0.12 -0.33,-0.16 -0.42,-0.13 0,0 -0.02,0 -0.02,0.02 0,0 -0.02,0.02 -0.02,0.04 -0.02,0.04 -0.02,0.09 0,0.13 0.12,0.27 0.29,0.52 0.52,0.72 0.37,0.37 0.77,0.58 0.91,0.49 v 0 z m -3.62,1.51 -0.87,0.07 c 0,0 -0.42,0.3 -0.48,0.56 0,0.18 0,0.36 0,0.54 l 1.37,0.02 c 0.11,-0.18 0.17,-0.39 0.16,-0.6 0,-0.21 -0.06,-0.42 -0.17,-0.6 v 0 z m -0.97,1.86 c 0.72,0.05 0.67,-0.37 0.67,-0.37 l -1.23,-0.02 c 0,0 -0.16,0.34 0.56,0.38 v 0 z m -1.8,-1.47 c -0.11,-0.12 -0.24,-0.22 -0.38,-0.29 -0.15,0.14 -0.36,0.33 -0.56,0.48 0,0 0,0.02 -0.02,0.02 -0.07,0.07 -0.14,0.12 -0.22,0.16 -0.14,-0.13 -0.24,-0.31 -0.29,-0.49 -0.02,-0.04 -0.02,-0.09 -0.02,-0.13 0,-0.07 0,-0.13 0.04,-0.19 0.03,-0.06 0.08,-0.1 0.14,-0.12 0.15,-0.06 0.29,-0.12 0.43,-0.19 0.02,-0.11 0.07,-0.2 0.13,-0.28 -0.07,-0.15 -0.14,-0.29 -0.24,-0.42 l -0.37,-0.22 c -0.14,-0.07 -0.28,-0.16 -0.42,-0.25 0,0.23 0.02,0.37 0.02,0.56 v 0.06 c 0,0.1 0,0.2 0.02,0.3 v 0.56 h -0.32 v -0.48 c 0,-0.1 -0.02,-0.21 -0.02,-0.32 -0.02,-0.41 -0.06,-0.8 -0.09,-1.17 -0.04,-0.02 -0.08,-0.02 -0.13,-0.03 l -0.24,-0.03 h -0.22 c 0,0 0.12,0.87 0.16,1.01 0.02,0.07 0.15,0.93 0.15,0.98 v 0.02 h -0.3 v 0.02 c -0.06,-0.37 -0.13,-0.74 -0.22,-1.09 -0.08,-0.35 -0.17,-0.64 -0.27,-0.92 -0.29,0.03 -0.57,0.11 -0.84,0.22 0,0 -0.02,0 -0.02,0.02 -0.18,0.08 -0.36,0.18 -0.52,0.31 l -0.07,0.06 c -0.11,0.12 -0.21,0.23 -0.31,0.36 -0.14,0.2 -0.27,0.38 -0.35,0.51 -0.05,0.07 -0.05,0.17 -0.11,0.28 -0.02,0.06 -0.04,0.12 -0.05,0.18 -0.02,0.07 -0.02,0.13 -0.02,0.2 0.02,0 0.03,0 0.05,0.02 0.1,0.02 0.2,0.05 0.29,0.07 0.25,0.05 0.51,0.08 0.77,0.08 h 0.07 c 0.12,0 0.25,0 0.37,-0.02 v 0.02 c 0.1,0.39 0.3,0.74 0.58,1.03 0.22,0.23 0.48,0.42 0.77,0.56 0.07,0.03 0.13,0.06 0.21,0.07 0.04,0.02 0.07,0.02 0.12,0.04 v 0.47 l 0.25,0.03 c 0,-0.08 0,-0.17 0,-0.25 V 14.1 h 0.31 v 0.27 c 0,0 0.05,0.05 0.07,0.07 0.12,0.12 0.23,0.26 0.34,0.38 0.03,0.04 0.07,0.08 0.1,0.12 0,0 0.02,0.02 0.02,0.02 0.02,0.02 0.02,0.03 0.03,0.04 0.08,0.1 0.17,0.2 0.24,0.3 0.09,-0.06 0.18,-0.12 0.27,-0.2 0.07,-0.07 0.14,-0.14 0.19,-0.22 0.03,-0.03 0.06,-0.07 0.08,-0.12 0.03,-0.06 0.07,-0.11 0.09,-0.17 0.02,-0.04 0.03,-0.07 0.05,-0.12 0,-0.02 0.02,-0.03 0.02,-0.06 0.03,-0.08 0.07,-0.16 0.1,-0.23 0.05,-0.12 0.13,-0.22 0.25,-0.3 -0.02,-0.07 -0.07,-0.15 -0.12,-0.21 h 0.02 v -0.02 z m -4.27,10.91 -0.18,-0.19 c 0,0 -0.08,-0.09 -0.12,-0.13 0,0 -0.02,-0.02 -0.02,-0.03 l -1.14,0.95 3.51,3.92 0.13,-0.12 2.07,-1.75 c -0.67,-0.19 -1.32,-0.47 -1.94,-0.82 -0.74,-0.42 -1.42,-0.94 -2.03,-1.53 -0.02,-0.02 -0.03,-0.03 -0.04,-0.05 -0.05,-0.04 -0.09,-0.08 -0.13,-0.13 -0.03,-0.03 -0.07,-0.07 -0.11,-0.11 v 0 z m -2.5,1.42 -0.02,0.02 1.03,0.83 2.54,2.06 0.18,-0.22 -2.59,-2.92 -0.07,-0.07 c 0,0 -0.02,0 -0.02,-0.02 l -0.28,-0.32 -0.79,0.65 h 0.02 z m -0.1,1.4 h 0.03 l 2.27,0.88 0.18,0.07 -2.09,-1.67 -0.1,-0.07 -0.31,0.79 v 0 z M 188.22,42.7 c -0.09,-0.38 -0.18,-0.79 -0.27,-1.11 l -0.71,-2.45 -0.99,-3.44 c -0.22,-0.75 -0.25,-1.55 -0.11,-2.32 0.14,-0.77 0.46,-1.5 0.93,-2.12 0.47,-0.62 1.08,-1.13 1.78,-1.48 0.7,-0.35 1.47,-0.53 2.26,-0.53 0.24,0 0.48,0.02 0.72,0.05 0.17,-0.02 0.32,-0.04 0.49,-0.07 0.07,-0.02 0.16,-0.04 0.23,-0.07 0.06,-0.02 0.12,-0.04 0.17,-0.06 0.1,-0.04 0.21,-0.08 0.33,-0.14 0.18,-0.08 0.38,-0.17 0.57,-0.25 0.91,-0.4 1.87,-0.68 2.85,-0.82 1.22,-0.17 2.46,-0.16 3.67,0.06 0.72,0.12 1.43,0.32 2.12,0.6 0.26,0.09 0.52,0.16 0.8,0.21 0.44,0 0.47,-0.47 1.02,-0.47 0.26,0.06 0.51,0.15 0.74,0.27 l -0.07,0.11 c -1,1.62 -1.74,3.4 -2.21,5.25 0,0.03 -0.02,0.07 -0.02,0.1 -0.02,0.08 -0.04,0.18 -0.07,0.27 0,0 7.22,2.91 7.24,2.92 0.05,-0.12 1.31,-3.17 1.31,-3.17 0,0 1.32,0.92 2.02,1.33 -0.03,0.56 -0.02,1.11 0.02,1.67 0.12,2.16 0.51,5.35 0.62,6.34 0.1,0.12 0.18,0.24 0.35,0.24 0.17,0 2.04,-0.2 2.55,-0.88 l -0.32,-4.73 -0.23,-3.47 -2.47,-5.9 -0.38,-0.92 -0.72,1.75 -2.99,7.17 -6.46,-2.56 c 0,0 0,-0.03 0,-0.06 v 0 V 34 c 0,0 0,-0.05 0.02,-0.08 0.48,-1.94 1.27,-3.79 2.35,-5.48 0.03,-0.08 0.05,-0.12 0.05,-0.13 0,-0.14 0,-0.12 -0.03,-0.15 l -1.68,-0.64 0.44,-1.13 -0.42,-0.34 0.12,-0.1 0.42,-0.35 0.65,-0.54 0.79,-0.66 0.35,-0.29 0.13,-0.1 -0.16,-0.22 c 0,0 -0.26,-0.34 -0.37,-0.52 -0.27,-0.39 -0.5,-0.81 -0.69,-1.23 -0.12,-0.27 -0.23,-0.54 -0.32,-0.81 -0.04,-0.1 -0.07,-0.2 -0.09,-0.31 -0.1,-0.34 -0.17,-0.69 -0.22,-1.04 -0.02,-0.2 -0.04,-0.4 -0.04,-0.61 v -0.08 c 0,-0.39 0.12,-0.77 0.32,-1.1 0.07,-0.12 0.14,-0.22 0.23,-0.31 l 0.04,-0.04 c 0.07,-0.07 0.14,-0.14 0.22,-0.21 0.15,-0.12 0.32,-0.22 0.49,-0.31 0.12,-0.07 0.23,-0.12 0.36,-0.16 0,-0.1 0,-0.2 0.02,-0.33 0.07,0 0.15,0.02 0.22,0.03 0.19,0.03 0.38,0.07 0.57,0.14 0.02,0 0.02,0 0.04,0.02 -0.06,-0.37 -0.49,-0.44 -0.64,-0.65 -0.03,-0.04 -0.06,-0.09 -0.06,-0.14 0,-0.05 0.02,-0.09 0.04,-0.13 0.06,-0.07 0.09,-0.14 0.1,-0.23 0,-0.04 0,-0.07 -0.03,-0.12 -0.02,-0.03 -0.04,-0.07 -0.07,-0.09 v 0 c 0,0 -0.05,-0.03 -0.07,-0.04 -0.03,-0.02 -0.07,-0.05 -0.1,-0.07 -0.03,-0.02 -0.08,-0.08 -0.12,-0.12 -0.37,-0.37 -0.62,-0.84 -0.74,-1.35 0,-0.04 -0.02,-0.07 -0.02,-0.12 0,-0.05 -0.02,-0.1 -0.02,-0.16 -0.02,-0.17 -0.02,-0.35 0,-0.52 0,-0.05 0.02,-0.1 0.02,-0.16 0.12,-0.56 0.42,-1.07 0.86,-1.44 0.12,-0.1 0.25,-0.19 0.38,-0.28 0,0 0.02,-0.02 0.02,-0.02 0.16,-0.1 0.32,-0.17 0.51,-0.23 0.02,0 0.06,-0.02 0.09,-0.03 0.02,0 0.04,-0.02 0.06,-0.02 0.17,-0.05 0.33,-0.09 0.5,-0.12 0.15,-0.02 0.3,-0.03 0.45,-0.04 h 0.29 c 0,0 0.08,0 0.12,0.02 0.03,0 0.07,0 0.1,0 H 209 l 0.07,0.1 0.02,0.03 c 0.08,0.14 0.15,0.27 0.19,0.37 0,0.02 0,0.02 0.02,0.02 0.02,0.03 0.05,0.07 0.08,0.1 0.26,0.23 0.68,0.31 0.77,0.52 0.1,0.22 0.46,0.95 0.46,0.95 0,0 0.77,0.87 0.77,0.91 0,0.17 0,0.24 0.1,0.36 0.16,-0.04 0.31,-0.09 0.46,-0.15 0,-0.12 0.02,-0.24 0.04,-0.36 0.02,-0.03 0.56,-0.74 0.83,-0.71 0.07,0 1.02,-0.07 1.02,-0.07 0.84,-0.67 1.43,-1.61 1.66,-2.66 v -0.02 c 0,0 0,-0.03 0.02,-0.05 0.02,-0.04 0.04,-0.08 0.07,-0.11 0.06,-0.04 0.12,-0.07 0.18,-0.08 0.07,-0.02 0.14,0 0.2,0 0.15,0.03 0.28,0.08 0.42,0.16 0.23,0.13 0.45,0.29 0.64,0.48 0.07,0.07 0.12,0.12 0.17,0.18 0.12,0.13 0.22,0.28 0.32,0.43 0.08,0.1 0.13,0.22 0.16,0.34 0.03,0.12 0.02,0.26 0,0.37 L 217.65,12 c -0.67,1.06 -1.68,1.85 -2.87,2.24 -0.03,0.02 -0.07,0.03 -0.09,0.05 0.23,0.22 0.41,0.51 0.5,0.82 h 1.25 v 3.61 c 0,0.06 0,0.11 0,0.16 0,0.05 -0.02,0.11 -0.02,0.17 -0.02,0.06 -0.02,0.07 -0.02,0.1 -0.04,0.16 -0.11,0.31 -0.2,0.45 -0.02,0.03 -0.04,0.06 -0.06,0.09 -0.13,0.18 -0.31,0.34 -0.5,0.46 -0.2,0.12 -0.42,0.2 -0.64,0.23 -0.08,0.02 -0.17,0.02 -0.26,0.02 h -1.75 l 2.83,3.18 c 0,0 -0.84,0.69 -1.13,0.97 0.12,0.18 0.27,0.35 0.43,0.5 0.18,0.12 1.39,0.22 1.3,0.78 0,0.07 -0.02,0.13 -0.04,0.2 -0.14,0.27 -0.31,0.54 -0.5,0.78 -0.2,0.25 -0.61,0.27 -0.74,0.7 0.21,0.13 0.37,0.34 0.45,0.57 0.68,-0.8 1.29,-1.66 1.81,-2.57 1.45,0.37 4.96,2.32 5.88,2.61 0.66,0.17 1.32,0.31 1.99,0.38 -0.09,0.22 -0.15,0.44 -0.18,0.67 0,0.08 0.28,0.17 0.61,0.36 0.17,0.11 0.32,0.23 0.47,0.38 -0.07,0.8 0.05,1.62 0.34,2.37 0.11,0.26 0.2,0.52 0.27,0.79 0.02,0.08 0.05,0.17 0.07,0.26 0.04,0.2 0.08,0.4 0.12,0.62 0.04,0.27 0.07,0.54 0.07,0.81 v 0.7 c -0.02,0.33 -0.05,0.67 -0.1,1.01 -0.02,0.07 -0.02,0.14 -0.04,0.22 -0.02,0.08 -0.04,0.21 -0.07,0.3 -0.09,0.37 -0.21,0.72 -0.36,1.07 -0.02,0.03 -0.03,0.07 -0.05,0.11 0,0.02 -0.02,0.05 -0.02,0.07 0,0 0,0.02 -0.02,0.03 -0.03,0 -0.07,-0.02 -0.11,-0.03 -0.22,-0.07 -0.43,-0.17 -0.63,-0.29 -0.13,-0.08 -0.26,-0.17 -0.37,-0.26 -0.12,-0.1 -0.24,-0.21 -0.36,-0.33 0.21,0.45 0.52,0.84 0.91,1.15 0.07,0.05 0.14,0.11 0.21,0.15 0.05,0.02 0.11,0.05 0.17,0.07 0,0 0.96,0.31 1.15,0.34 1.03,0.17 2.05,0.39 3.06,0.68 0.17,0.06 0.47,-0.32 1.37,-0.24 0.4,0.05 0.77,0.22 1.06,0.51 0.29,0.29 0.47,0.66 0.52,1.06 -0.02,0.6 -0.27,0.75 -0.37,1.1 -0.11,0.45 -0.81,4.27 -0.88,4.94 -0.05,0.43 -0.07,1.03 -0.07,1.04 0,0.06 0.17,0.78 0.18,1.02 v 0.13 c 0,0.11 0,0.22 -0.02,0.32 -0.02,0.22 -0.1,0.45 -0.22,0.64 -0.12,0.2 -0.27,0.37 -0.45,0.51 0,0.02 0,0.05 -0.02,0.07 -0.05,0.18 -0.12,0.37 -0.18,0.56 -0.34,0.93 -0.88,1.79 -1.57,2.5 l -0.02,-0.03 -1.39,-2.66 -0.02,-0.03 c 0.3,-0.56 0.67,-1.06 1.12,-1.5 0.06,-0.07 0.12,-0.12 0.18,-0.18 0.14,-0.13 0.29,-0.25 0.43,-0.37 v -0.12 c 0,-0.29 0.07,-0.57 0.21,-0.83 0.14,-0.26 0.32,-0.49 0.54,-0.67 0,-0.11 0.21,-4.11 0.04,-5.59 -0.56,-0.08 -1.09,-0.28 -1.57,-0.58 -0.13,-0.1 -4.55,0.32 -4.68,0.33 -0.13,0 -0.5,-0.17 -0.76,-0.16 -0.26,0 -0.67,0.06 -0.82,0.06 -0.29,0 -0.57,-0.09 -0.82,-0.27 -0.25,-0.18 -0.42,-0.44 -0.5,-0.74 -0.02,-0.07 -0.03,-0.13 -0.03,-0.2 v -0.15 c 0,0 0,-0.09 0.02,-0.14 0,-0.05 0.02,-0.09 0.02,-0.14 0.03,-0.12 0.08,-0.23 0.14,-0.34 -0.24,-0.07 -0.48,-0.17 -0.71,-0.28 -0.22,-0.11 -0.42,-0.23 -0.62,-0.37 -0.47,-0.34 -0.88,-0.77 -1.2,-1.26 -0.11,-0.17 -0.2,-0.35 -0.28,-0.52 0.27,1.12 0.97,2.08 1.94,2.7 0,0.09 -0.02,0.18 -0.02,0.28 0,0.17 0,0.35 0.05,0.52 0.07,0.37 0.26,0.72 0.51,0.99 0.3,0.32 0.68,0.56 1.11,0.67 -0.35,1.3 -1.12,3.52 -1.12,3.68 -0.32,1 -0.73,1.97 -1.22,2.91 -0.07,0.97 -0.21,1.93 -0.42,2.87 -0.03,0.21 -0.05,0.42 -0.06,0.62 0,0.17 -0.09,1.19 -0.15,2.84 0,0.14 -0.05,0.17 -0.05,0.33 0,0.14 0.06,0.27 0.13,0.38 0,0 0.02,0.02 0.02,0.02 0.06,0.07 0.12,0.15 0.17,0.23 0.06,0.07 0.15,0.22 0.22,0.32 0.17,0.26 0.32,0.52 0.46,0.79 0.07,0.13 0.13,0.27 0.18,0.41 0.03,0.06 0.07,0.12 0.08,0.18 0.24,0.59 0.41,1.22 0.49,1.85 h -3.26 c 0.03,-0.19 0.06,-0.38 0.07,-0.57 0.02,-0.74 -0.15,-1.48 -0.49,-2.14 -0.12,-0.33 -0.3,-0.65 -0.52,-0.92 0.05,-0.47 0.13,-0.95 0.26,-1.41 0.2,-0.54 0.44,-1.06 0.74,-1.55 0,0 0.21,-3.92 0.21,-4.09 0,-0.17 -0.27,-1.58 -0.39,-2.31 -0.1,-0.76 -0.32,-1.5 -0.63,-2.19 -0.07,-0.14 0.35,-0.54 0.48,-0.78 l -0.08,-0.07 h -0.06 c -0.17,0.15 -3.32,1.1 -3.32,1.1 -0.29,-0.38 -0.62,-0.74 -0.97,-1.07 -1.38,-0.1 -2.76,-0.27 -4.12,-0.52 -1.96,-0.36 -3.88,-0.87 -5.75,-1.53 -0.32,-0.12 -0.63,-0.24 -0.92,-0.36 -0.02,0.02 -0.02,0.03 -0.03,0.05 v 0.17 c 0,0.22 -0.02,0.43 -0.04,0.64 -0.08,0.82 -0.3,1.62 -0.65,2.37 -0.15,0.32 -0.33,0.62 -0.55,0.9 -0.02,0.02 -0.02,0.06 -0.04,0.07 0.14,0.29 0.25,0.61 0.32,0.92 0.04,0.2 0.07,0.41 0.09,0.61 0.02,0.25 0.02,0.51 0,0.76 1.34,1.62 2.57,3.33 3.68,5.13 0,0 0.02,0.02 0.02,0.04 0.25,0.15 0.45,0.37 0.58,0.62 0.13,0.25 0.2,0.54 0.19,0.83 0,0.18 -0.02,0.36 -0.07,0.53 -0.06,0.2 -0.14,0.38 -0.27,0.54 0.05,0.18 0.08,0.37 0.12,0.57 0.07,0.42 0.09,0.83 0.07,1.25 v 0.04 c -0.03,0.62 -0.16,1.23 -0.37,1.82 -0.05,0.12 -0.11,0.22 -0.17,0.33 l -2.41,-2.02 -0.06,-0.05 c 0.11,-0.3 0.24,-0.59 0.4,-0.87 0.16,-0.29 0.33,-0.58 0.52,-0.86 -0.29,-0.29 -0.48,-0.67 -0.52,-1.08 0,-0.07 0,-0.14 0,-0.22 0,-0.06 0,-0.13 0,-0.2 0.02,-0.43 0.16,-0.86 0.4,-1.22 -0.31,-0.53 -1.03,-1.57 -1.26,-1.87 -0.43,-0.55 -0.92,-1.06 -1.43,-1.53 -0.35,-0.17 -0.72,-0.31 -1.11,-0.39 0.06,0 -0.02,0 0,0 -0.18,-0.02 -0.76,-0.12 -0.76,-0.12 l -0.87,-0.15 h -0.06 l 0.22,-0.68 v -0.04 c 0.03,-0.25 0.03,-0.51 0,-0.77 -0.02,-0.18 -0.07,-0.36 -0.12,-0.52 -0.02,-0.06 -0.05,-0.11 -0.07,-0.17 -0.03,-0.07 -0.07,-0.12 -0.11,-0.18 -0.02,-0.02 -0.02,-0.03 -0.03,-0.05 -0.31,-0.41 -1.02,-1.31 -1.13,-1.45 0.02,-0.02 0.05,-0.06 0.07,-0.08 l 0.03,-0.04 c 0.47,-0.58 0.87,-1.22 1.19,-1.89 0.16,-0.33 0.29,-0.67 0.42,-1.02 0.15,-0.43 0.27,-0.88 0.36,-1.34 0.04,-0.21 0.08,-0.42 0.12,-0.64 v -0.06 c 0.15,-0.1 0.29,-0.21 0.42,-0.32 0.39,-0.31 0.73,-0.67 1.02,-1.07 0.18,-0.25 0.35,-0.52 0.48,-0.79 0.03,-0.06 0.06,-0.12 0.08,-0.17 -0.03,0.05 -0.07,0.1 -0.1,0.16 -0.47,0.67 -1.08,1.23 -1.8,1.64 l -0.07,0.03 c -0.06,0.03 -0.12,0.07 -0.18,0.1 -0.14,0.07 -0.28,0.14 -0.43,0.2 -0.02,0.21 -0.07,0.4 -0.11,0.6 -0.06,0.29 -0.13,0.57 -0.22,0.84 -0.07,0.24 -0.16,0.48 -0.25,0.71 -0.14,0.38 -0.32,0.75 -0.52,1.11 -0.22,0.41 -0.47,0.8 -0.75,1.17 -0.07,0.09 -0.13,0.18 -0.21,0.26 -0.55,0.67 -1.2,1.27 -1.92,1.74 -0.39,0.26 -0.8,0.47 -1.23,0.65 -0.12,0.05 -0.25,0.1 -0.37,0.14 -0.22,0.51 -0.57,0.95 -1.01,1.3 -0.23,0.16 -0.44,0.35 -0.62,0.57 -0.3,0.49 -0.53,1.02 -0.67,1.58 -0.25,0.91 -0.45,1.83 -0.59,2.77 0,0.16 -0.07,0.82 -0.07,0.99 0,0.17 0.47,1.75 0.47,1.92 v 0.02 c 0,0 0,0.02 0.02,0.02 0.72,0.54 1.27,1.26 1.62,2.08 0.21,0.47 0.35,0.97 0.42,1.48 h -2.77 c -0.07,-0.44 -0.18,-0.87 -0.33,-1.3 -0.26,-0.72 -0.64,-1.38 -1.13,-1.97 -0.11,-0.13 -0.22,-0.25 -0.33,-0.37 -0.04,-0.08 -0.07,-0.17 -0.07,-0.27 V 55.8 c 0.07,-0.57 0.22,-1.13 0.43,-1.67 0.09,-0.16 0.15,-0.34 0.17,-0.52 0,-0.16 0.27,-3.43 0.26,-3.55 -0.27,-0.83 -0.63,-1.63 -1.07,-2.39 0.16,-0.21 0.33,-0.4 0.52,-0.58 0.42,-0.32 0.73,-0.77 0.88,-1.28 0.02,-0.14 0.15,-0.16 0.15,-0.32 0,-0.05 0,-0.11 -0.03,-0.16 -0.62,0.47 -1.39,0.72 -2.17,0.72 0.47,-0.38 0.83,-0.89 1.03,-1.47 0.2,-0.58 0.24,-1.19 0.12,-1.79 0,-0.05 -0.02,-0.11 -0.03,-0.15" style="stroke-width:0px" id="path1" />
  </g>
</svg>
