<?xml version="1.0" encoding="UTF-8"?><svg id="a" xmlns="http://www.w3.org/2000/svg" viewBox="0 0 233.32 80"><path d="m232.55,20.78c-.07.69-.17,1.37-.32,2.05-.16.67-1.68,4.45-1.8,5.07-.07.61-.1,1.22-.09,1.82-.47.2-1.52,1-2.09,1s-1.92-1.3-2.5-1.44c0-1.59.41-1.72.27-2.55-.23-.95-.57-1.87-.99-2.76-.16-.41-.2-.86-.12-1.28-.12.17-.2.36-.24.56-.04.2-.04.41,0,.61.15.88.85,2.21.95,2.77.1.57.07,1.25-.15,1.39-1.58-.17-3.12-.67-4.5-1.46-1.07-.61-2.17-1.16-3.3-1.65.67-1.42,1.52-2.74,2.52-3.95.83-1,1.82-1.86,2.92-2.54,1.52-.77,3.22-1.1,4.91-.97,1.03.12,2.06.32,3.06.6,0,0,.98-.82,1.73-.56-.22.57-.46,1.14-.46,1.14l.97.57c-.29.51-.55,1.02-.77,1.57h0Zm-43.72,14.51c.02,1.21.45,2.37,1.22,3.29,0,0,.02.02.02.02-.24-.78-.44-1.58-.59-2.39v-1.6c.19-1.12.53-2.22,1-3.26,0,0,0,.02-.02.02l-.05.04c-.41.4-.76.87-1.02,1.38l-.06.12c-.28.6-.46,1.24-.5,1.9,0,.13-.02.26-.02.38v.09h0Zm26.6-8.51c.08-.05.15-.12.2-.2.13-.22.26-.43.37-.67,0-.42-.88-.37-1.07-.52-.19-.16-.27-.37-.57-.5l-.02.04v.28c.05.27.07.55.07.83,0,.36-.03.72-.12,1.06.17.06.32.13.48.22.18-.22.41-.4.66-.54Zm-.1-3.23l-3.46-3.87-2.24,1.87.08.27c.07.19.17.37.27.56.11.19.23.37.37.56.16.2.32.39.5.57.02.02.06.05.07.07.49.46,1.07.82,1.69,1.06.37.13.76.21,1.15.22l1.54-1.3h.02Zm-1.67-6.42v-1.02c0-.06,0-.12-.02-.17s-.05-.11-.09-.15c-.13-.07-.26-.15-.37-.24-.04-.03-.07-.07-.11-.1-.24.05-.48.02-.71-.08-.12-.04-.24-.1-.34-.18-.06-.05-.11-.12-.14-.19-.03-.07-.06-.15-.06-.23-.12,0-.22-.02-.33-.02v.67s.02.06.02.08c.07.22.07.45.03.67s-.13.43-.27.62c-.15.21-.34.37-.57.49s-.47.18-.73.18c-.02.19-.02.39,0,.58.02.18.21.66.28.92.17.47.26.96.27,1.45l.51-.43c-.11-.41-.23-.83-.35-1.26-.08-.29-.16-.57-.23-.85.28-.06.56-.17.79-.33s.44-.37.59-.62c.29.1.58.17.88.23h.9l.02-.02h.02Zm1.3-1.32c.14-.13.11-.47-.16-1.05-.09-.12-.2-.23-.32-.34-.2.1-.28.11-.36.14-.06.09-.12.17-.18.26-.04.05-.17.03-.21.07-.07.17-.19.32-.34.42.2.18.42.32.67.42.17.07.74.2.88.07h0Zm.66-2.34c.6-.35,1.12-.82,1.52-1.38-.11-.04-.22-.08-.32-.14-.42-.25-.77-.58-1.04-.98-.37.87-.93,1.64-1.67,2.24.03.07.07.14.08.22,0,.02.02.05.02.07.03.19.03.39,0,.58.49-.14.96-.34,1.4-.6h0Zm1.72-1.72h.02s.02-.02.02-.03v-.03c-.07-.32-.27-.62-.53-.82-.14-.14-.3-.27-.47-.38-.18-.12-.33-.16-.42-.13,0,0-.02,0-.02.02,0,0-.02.02-.02.04-.02.04-.02.09,0,.13.12.27.29.52.52.72.37.37.77.58.91.49h0Zm-3.62,1.51l-.87.07s-.42.3-.48.56c0,.18,0,.36,0,.54l1.37.02c.11-.18.17-.39.16-.6,0-.21-.06-.42-.17-.6h0Zm-.97,1.86c.72.05.67-.37.67-.37l-1.23-.02s-.16.34.56.38h0Zm-1.8-1.47c-.11-.12-.24-.22-.38-.29-.15.14-.36.33-.56.48,0,0,0,.02-.02.02-.07.07-.14.12-.22.16-.14-.13-.24-.31-.29-.49-.02-.04-.02-.09-.02-.13,0-.07,0-.13.04-.19.03-.06.08-.1.14-.12.15-.06.29-.12.43-.19.02-.11.07-.2.13-.28-.07-.15-.14-.29-.24-.42l-.37-.22c-.14-.07-.28-.16-.42-.25,0,.23.02.37.02.56v.06c0,.1,0,.2.02.3v.56h-.32v-.48c0-.1-.02-.21-.02-.32-.02-.41-.06-.8-.09-1.17-.04-.02-.08-.02-.13-.03l-.24-.03h-.22s.12.87.16,1.01c.02.07.15.93.15.98v.02h-.3v.02c-.06-.37-.13-.74-.22-1.09-.08-.35-.17-.64-.27-.92-.29.03-.57.11-.84.22,0,0-.02,0-.02.02-.18.08-.36.18-.52.31l-.07.06c-.11.12-.21.23-.31.36-.14.2-.27.38-.35.51-.05.07-.05.17-.11.28-.02.06-.04.12-.05.18-.02.07-.02.13-.02.2.02,0,.03,0,.05.02.1.02.2.05.29.07.25.05.51.08.77.08h.07c.12,0,.25,0,.37-.02v.02c.1.39.3.74.58,1.03.22.23.48.42.77.56.07.03.13.06.21.07.04.02.07.02.12.04v.47l.25.03c0-.08,0-.17,0-.25v-1.36h.31v.27s.05.05.07.07c.12.12.23.26.34.38.03.04.07.08.1.12,0,0,.02.02.02.02.02.02.02.03.03.04.08.1.17.2.24.3.09-.06.18-.12.27-.2.07-.07.14-.14.19-.22.03-.03.06-.07.08-.12.03-.06.07-.11.09-.17.02-.04.03-.07.05-.12,0-.02.02-.03.02-.06.03-.08.07-.16.1-.23.05-.12.13-.22.25-.3-.02-.07-.07-.15-.12-.21h.02v-.02Zm-4.27,10.91l-.18-.19s-.08-.09-.12-.13c0,0-.02-.02-.02-.03l-1.14.95,3.51,3.92.13-.12,2.07-1.75c-.67-.19-1.32-.47-1.94-.82-.74-.42-1.42-.94-2.03-1.53-.02-.02-.03-.03-.04-.05-.05-.04-.09-.08-.13-.13-.03-.03-.07-.07-.11-.11h0Zm-2.5,1.42l-.02.02,1.03.83,2.54,2.06.18-.22-2.59-2.92-.07-.07s-.02,0-.02-.02l-.28-.32-.79.65h.02Zm-.1,1.4h.03l2.27.88.18.07-2.09-1.67-.1-.07-.31.79h0Zm-15.86,15.32c-.09-.38-.18-.79-.27-1.11l-.71-2.45-.99-3.44c-.22-.75-.25-1.55-.11-2.32s.46-1.5.93-2.12c.47-.62,1.08-1.13,1.78-1.48s1.47-.53,2.26-.53c.24,0,.48.02.72.05.17-.02.32-.04.49-.07.07-.02.16-.04.23-.07.06-.02.12-.04.17-.06.1-.04.21-.08.33-.14.18-.08.38-.17.57-.25.91-.4,1.87-.68,2.85-.82,1.22-.17,2.46-.16,3.67.06.72.12,1.43.32,2.12.6.26.09.52.16.8.21.44,0,.47-.47,1.02-.47.26.06.51.15.74.27l-.07.11c-1,1.62-1.74,3.4-2.21,5.25,0,.03-.02.07-.02.1-.02.08-.04.18-.07.27,0,0,7.22,2.91,7.24,2.92.05-.12,1.31-3.17,1.31-3.17,0,0,1.32.92,2.02,1.33-.03.56-.02,1.11.02,1.67.12,2.16.51,5.35.62,6.34.1.12.18.24.35.24s2.04-.2,2.55-.88l-.32-4.73-.23-3.47-2.47-5.9-.38-.92-.72,1.75-2.99,7.17-6.46-2.56s0-.03,0-.06h0v-.02s0-.05.02-.08c.48-1.94,1.27-3.79,2.35-5.48.03-.08.05-.12.05-.13,0-.14,0-.12-.03-.15l-1.68-.64.44-1.13-.42-.34.12-.1.42-.35.65-.54.79-.66.35-.29.13-.1-.16-.22s-.26-.34-.37-.52c-.27-.39-.5-.81-.69-1.23-.12-.27-.23-.54-.32-.81-.04-.1-.07-.2-.09-.31-.1-.34-.17-.69-.22-1.04-.02-.2-.04-.4-.04-.61v-.08c0-.39.12-.77.32-1.1.07-.12.14-.22.23-.31l.04-.04c.07-.07.14-.14.22-.21.15-.12.32-.22.49-.31.12-.07.23-.12.36-.16,0-.1,0-.2.02-.33.07,0,.15.02.22.03.19.03.38.07.57.14.02,0,.02,0,.04.02-.06-.37-.49-.44-.64-.65-.03-.04-.06-.09-.06-.14s.02-.09.04-.13c.06-.07.09-.14.1-.23,0-.04,0-.07-.03-.12-.02-.03-.04-.07-.07-.09h0s-.05-.03-.07-.04c-.03-.02-.07-.05-.1-.07-.03-.02-.08-.08-.12-.12-.37-.37-.62-.84-.74-1.35,0-.04-.02-.07-.02-.12,0-.05-.02-.1-.02-.16-.02-.17-.02-.35,0-.52,0-.05.02-.1.02-.16.12-.56.42-1.07.86-1.44.12-.1.25-.19.38-.28,0,0,.02-.02.02-.02.16-.1.32-.17.51-.23.02,0,.06-.02.09-.03.02,0,.04-.02.06-.02.17-.05.33-.09.5-.12.15-.02.3-.03.45-.04h.29s.08,0,.12.02c.03,0,.07,0,.1,0h.53l.07.1.02.03c.08.14.15.27.19.37,0,.02,0,.02.02.02.02.03.05.07.08.1.26.23.68.31.77.52.1.22.46.95.46.95,0,0,.77.87.77.91,0,.17,0,.24.1.36.16-.04.31-.09.46-.15,0-.12.02-.24.04-.36.02-.03.56-.74.83-.71.07,0,1.02-.07,1.02-.07.84-.67,1.43-1.61,1.66-2.66v-.02s0-.03.02-.05c.02-.04.04-.08.07-.11.06-.04.12-.07.18-.08.07-.02.14,0,.2,0,.15.03.28.08.42.16.23.13.45.29.64.48.07.07.12.12.17.18.12.13.22.28.32.43.08.1.13.22.16.34s.02.26,0,.37l-.02.03c-.67,1.06-1.68,1.85-2.87,2.24-.03.02-.07.03-.09.05.23.22.41.51.5.82h1.25v3.61c0,.06,0,.11,0,.16,0,.05-.02.11-.02.17-.02.06-.02.07-.02.1-.04.16-.11.31-.2.45-.02.03-.04.06-.06.09-.13.18-.31.34-.5.46-.2.12-.42.2-.64.23-.08.02-.17.02-.26.02h-1.75l2.83,3.18s-.84.69-1.13.97c.12.18.27.35.43.5.18.12,1.39.22,1.3.78,0,.07-.02.13-.04.2-.14.27-.31.54-.5.78-.2.25-.61.27-.74.7.21.13.37.34.45.57.68-.8,1.29-1.66,1.81-2.57,1.45.37,4.96,2.32,5.88,2.61.66.17,1.32.31,1.99.38-.09.22-.15.44-.18.67,0,.08.28.17.61.36.17.11.32.23.47.38-.07.8.05,1.62.34,2.37.11.26.2.52.27.79.02.08.05.17.07.26.04.2.08.4.12.62.04.27.07.54.07.81v.7c-.02.33-.05.67-.1,1.01-.02.07-.02.14-.04.22s-.04.21-.07.3c-.09.37-.21.72-.36,1.07-.02.03-.03.07-.05.11,0,.02-.02.05-.02.07,0,0,0,.02-.02.03-.03,0-.07-.02-.11-.03-.22-.07-.43-.17-.63-.29-.13-.08-.26-.17-.37-.26-.12-.1-.24-.21-.36-.33.21.45.52.84.91,1.15.07.05.14.11.21.15.05.02.11.05.17.07,0,0,.96.31,1.15.34,1.03.17,2.05.39,3.06.68.17.06.47-.32,1.37-.24.4.05.77.22,1.06.51s.47.66.52,1.06c-.02.6-.27.75-.37,1.1-.11.45-.81,4.27-.88,4.94-.05.43-.07,1.03-.07,1.04,0,.06.17.78.18,1.02v.13c0,.11,0,.22-.02.32-.02.22-.1.45-.22.64-.12.2-.27.37-.45.51,0,.02,0,.05-.02.07-.05.18-.12.37-.18.56-.34.93-.88,1.79-1.57,2.5l-.02-.03-1.39-2.66-.02-.03c.3-.56.67-1.06,1.12-1.5.06-.07.12-.12.18-.18.14-.13.29-.25.43-.37v-.12c0-.29.07-.57.21-.83s.32-.49.54-.67c0-.11.21-4.11.04-5.59-.56-.08-1.09-.28-1.57-.58-.13-.1-4.55.32-4.68.33-.13,0-.5-.17-.76-.16-.26,0-.67.06-.82.06-.29,0-.57-.09-.82-.27-.25-.18-.42-.44-.5-.74-.02-.07-.03-.13-.03-.2v-.15s0-.09.02-.14c0-.05.02-.09.02-.14.03-.12.08-.23.14-.34-.24-.07-.48-.17-.71-.28-.22-.11-.42-.23-.62-.37-.47-.34-.88-.77-1.2-1.26-.11-.17-.2-.35-.28-.52.27,1.12.97,2.08,1.94,2.7,0,.09-.02.18-.02.28,0,.17,0,.35.05.52.07.37.26.72.51.99.3.32.68.56,1.11.67-.35,1.3-1.12,3.52-1.12,3.68-.32,1-.73,1.97-1.22,2.91-.07.97-.21,1.93-.42,2.87-.03.21-.05.42-.06.62,0,.17-.09,1.19-.15,2.84,0,.14-.05.17-.05.33,0,.14.06.27.13.38,0,0,.02.02.02.02.06.07.12.15.17.23.06.07.15.22.22.32.17.26.32.52.46.79.07.13.13.27.18.41.03.06.07.12.08.18.24.59.41,1.22.49,1.85h-3.26c.03-.19.06-.38.07-.57.02-.74-.15-1.48-.49-2.14-.12-.33-.3-.65-.52-.92.05-.47.13-.95.26-1.41.2-.54.44-1.06.74-1.55,0,0,.21-3.92.21-4.09s-.27-1.58-.39-2.31c-.1-.76-.32-1.5-.63-2.19-.07-.14.35-.54.48-.78l-.08-.07h-.06c-.17.15-3.32,1.1-3.32,1.1-.29-.38-.62-.74-.97-1.07-1.38-.1-2.76-.27-4.12-.52-1.96-.36-3.88-.87-5.75-1.53-.32-.12-.63-.24-.92-.36-.02.02-.02.03-.03.05v.17c0,.22-.02.43-.04.64-.08.82-.3,1.62-.65,2.37-.15.32-.33.62-.55.9-.02.02-.02.06-.04.07.14.29.25.61.32.92.04.2.07.41.09.61.02.25.02.51,0,.76,1.34,1.62,2.57,3.33,3.68,5.13,0,0,.02.02.02.04.25.15.45.37.58.62s.2.54.19.83c0,.18-.02.36-.07.53-.06.2-.14.38-.27.54.05.18.08.37.12.57.07.42.09.83.07,1.25v.04c-.03.62-.16,1.23-.37,1.82-.05.12-.11.22-.17.33l-2.41-2.02-.06-.05c.11-.3.24-.59.4-.87.16-.29.33-.58.52-.86-.29-.29-.48-.67-.52-1.08,0-.07,0-.14,0-.22,0-.06,0-.13,0-.2.02-.43.16-.86.4-1.22-.31-.53-1.03-1.57-1.26-1.87-.43-.55-.92-1.06-1.43-1.53-.35-.17-.72-.31-1.11-.39.06,0-.02,0,0,0-.18-.02-.76-.12-.76-.12l-.87-.15h-.06l.22-.68v-.04c.03-.25.03-.51,0-.77-.02-.18-.07-.36-.12-.52-.02-.06-.05-.11-.07-.17-.03-.07-.07-.12-.11-.18-.02-.02-.02-.03-.03-.05-.31-.41-1.02-1.31-1.13-1.45.02-.02.05-.06.07-.08l.03-.04c.47-.58.87-1.22,1.19-1.89.16-.33.29-.67.42-1.02.15-.43.27-.88.36-1.34.04-.21.08-.42.12-.64v-.06c.15-.1.29-.21.42-.32.39-.31.73-.67,1.02-1.07.18-.25.35-.52.48-.79.03-.06.06-.12.08-.17-.03.05-.07.1-.1.16-.47.67-1.08,1.23-1.8,1.64l-.07.03c-.06.03-.12.07-.18.1-.14.07-.28.14-.43.2-.02.21-.07.4-.11.6-.06.29-.13.57-.22.84-.07.24-.16.48-.25.71-.14.38-.32.75-.52,1.11-.22.41-.47.8-.75,1.17-.07.09-.13.18-.21.26-.55.67-1.2,1.27-1.92,1.74-.39.26-.8.47-1.23.65-.12.05-.25.1-.37.14-.22.51-.57.95-1.01,1.3-.23.16-.44.35-.62.57-.3.49-.53,1.02-.67,1.58-.25.91-.45,1.83-.59,2.77,0,.16-.07.82-.07.99s.47,1.75.47,1.92v.02s0,.02.02.02c.72.54,1.27,1.26,1.62,2.08.21.47.35.97.42,1.48h-2.77c-.07-.44-.18-.87-.33-1.3-.26-.72-.64-1.38-1.13-1.97-.11-.13-.22-.25-.33-.37-.04-.08-.07-.17-.07-.27v-.05c.07-.57.22-1.13.43-1.67.09-.16.15-.34.17-.52,0-.16.27-3.43.26-3.55-.27-.83-.63-1.63-1.07-2.39.16-.21.33-.4.52-.58.42-.32.73-.77.88-1.28.02-.14.15-.16.15-.32,0-.05,0-.11-.03-.16-.62.47-1.39.72-2.17.72.47-.38.83-.89,1.03-1.47s.24-1.19.12-1.79c0-.05-.02-.11-.03-.15" style="stroke-width:0px;"/><path d="m0,59.44V19.65h20.34v6.72H7.42v9.15h9.84v6.72H7.42v10.47h13.45v6.72H0Z" style="stroke-width:0px;"/><path d="m40.08,30.72c-.41-1.51-1.17-2.91-2.21-4.07-.42-.42-.93-.75-1.48-.97-.56-.22-1.15-.32-1.74-.31-.56-.04-1.12.05-1.65.25s-1,.51-1.39.91c-.74.89-1.12,2.03-1.05,3.2,0,.5.12.99.33,1.44.22.45.52.85.91,1.17.94.83,1.97,1.57,3.07,2.17,1.22.7,2.55,1.44,3.98,2.23,1.42.78,2.76,1.71,3.98,2.77,1.23,1.08,2.27,2.37,3.07,3.8.87,1.62,1.29,3.45,1.23,5.29.02,1.6-.26,3.19-.83,4.68-.53,1.36-1.36,2.58-2.42,3.58-1.12,1.03-2.45,1.81-3.9,2.29-1.68.56-3.45.82-5.22.8-2.86.07-5.64-.87-7.88-2.64-2.49-2.25-4.18-5.25-4.82-8.54l7.32-1.59c.17,1.06.48,2.09.94,3.06.36.75.84,1.42,1.42,2.01.48.48,1.06.86,1.69,1.11.54.21,1.12.32,1.69.33.91-.03,1.78-.33,2.52-.85s1.32-1.23,1.67-2.07c.35-.83.46-1.76.3-2.65s-.56-1.72-1.17-2.39c-.91-.97-1.94-1.81-3.07-2.51-1.22-.77-2.55-1.53-3.98-2.29-1.41-.73-2.74-1.6-3.98-2.59-1.2-.96-2.23-2.11-3.06-3.4-.87-1.42-1.29-3.07-1.23-4.74-.08-1.48.13-2.97.64-4.37.5-1.4,1.28-2.68,2.29-3.77,1.18-1.06,2.57-1.87,4.07-2.38s3.09-.72,4.67-.59c1.52-.02,3.03.22,4.47.72,1.28.45,2.47,1.13,3.5,2.01,1.01.87,1.85,1.9,2.5,3.06.67,1.21,1.17,2.51,1.48,3.86l-6.68,1.97v.02Z" style="stroke-width:0px;"/><path d="m72.95,19.65v6.72h-8.66v33.07h-7.42V26.37h-8.66v-6.72h24.75Z" style="stroke-width:0px;"/><path d="m68.11,59.44l9.63-39.79h9.52l9.36,39.79h-7.09l-1.89-8.38h-10.27l-2.09,8.38h-7.17Zm10.6-15.1h7.37l-3.61-16.1h-.11l-3.66,16.1Z" style="stroke-width:0px;"/><path d="m98.19,19.65h10.33c1.91-.02,3.82.22,5.65.74,1.57.45,3.01,1.27,4.2,2.4,1.21,1.2,2.12,2.66,2.67,4.27.68,2.06,1.03,4.2,1.05,6.37v12.23c-.02,2.17-.37,4.31-1.05,6.37-.54,1.61-1.46,3.07-2.67,4.27-1.18,1.12-2.62,1.95-4.2,2.4-1.83.52-3.74.77-5.65.74h-10.33V19.65Zm7.43,33.07h2.58c.87.05,1.74-.07,2.56-.37.82-.3,1.57-.77,2.2-1.37,1.32-1.78,1.92-3.99,1.69-6.2v-10.47c.18-2.14-.33-4.27-1.48-6.09-.63-.67-1.41-1.18-2.27-1.51s-1.79-.44-2.7-.35h-2.58v26.35h0Z" style="stroke-width:0px;"/><path d="m121.96,59.44l9.63-39.79h9.53l9.36,39.79h-7.1l-1.89-8.37h-10.28l-2.1,8.37h-7.16,0Zm24.1-49.44c-.17.85-.41,1.69-.7,2.51-.27.76-.64,1.47-1.11,2.12-.44.62-1.02,1.12-1.69,1.48-.77.39-1.62.58-2.47.56-.72,0-1.42-.1-2.11-.3-.7-.2-1.37-.42-2.02-.66-.65-.24-1.28-.46-1.91-.66-.6-.2-1.22-.3-1.85-.3-.3-.02-.61.04-.88.16-.28.12-.52.3-.72.52-.4.47-.67,1.02-.81,1.62h-3.39c.14-.87.37-1.72.67-2.53.28-.77.7-1.5,1.21-2.15.49-.62,1.11-1.12,1.8-1.48.77-.38,1.63-.57,2.5-.56.72,0,1.44.12,2.12.33.7.22,1.37.45,2.02.69.65.24,1.26.47,1.83.69.47.2.99.32,1.51.33.31,0,.61-.06.88-.17.28-.12.53-.29.74-.52.45-.47.76-1.05.88-1.68h3.5v-.02Zm-13.51,34.33h7.37l-3.61-16.1h-.11l-3.66,16.1Z" style="stroke-width:0px;"/><path d="m150.58,32.43c-.05-2.12.26-4.22.92-6.23.52-1.54,1.38-2.95,2.52-4.11,1.09-1.06,2.42-1.84,3.87-2.29,3.23-.96,6.67-.96,9.9,0,1.45.45,2.78,1.23,3.87,2.29,1.14,1.16,2.01,2.57,2.52,4.11.66,2.01.97,4.12.92,6.23v14.22c.06,2.12-.26,4.22-.92,6.23-.52,1.54-1.38,2.95-2.52,4.11-1.09,1.06-2.42,1.84-3.87,2.29-3.23.96-6.67.96-9.9,0-1.45-.45-2.78-1.23-3.87-2.29-1.14-1.16-2.01-2.57-2.52-4.11-.66-2.01-.97-4.12-.92-6.23,0,0,0-14.22,0-14.22Zm7.42,15.21c-.1.79-.03,1.6.19,2.37.22.77.6,1.48,1.11,2.1,1.03.75,2.27,1.16,3.55,1.16s2.52-.41,3.55-1.16c.51-.62.88-1.33,1.11-2.1.22-.77.29-1.57.19-2.37v-16.2c.1-.79.03-1.6-.19-2.37-.22-.77-.6-1.48-1.11-2.1-1.03-.75-2.27-1.16-3.55-1.16s-2.52.41-3.55,1.16c-.51.62-.88,1.33-1.11,2.1s-.29,1.57-.19,2.37v16.2Z" style="stroke-width:0px;"/></svg>