<?xml version="1.0" encoding="UTF-8"?><svg id="a" xmlns="http://www.w3.org/2000/svg" viewBox="0 0 280.05 80"><defs><style>.b{stroke-width:0px;}</style></defs><path class="b" d="m279.12,17.94c-.08.83-.21,1.65-.38,2.46-.19.8-2.02,5.34-2.16,6.08-.08.73-.12,1.46-.11,2.19-.56.24-1.83,1.2-2.51,1.2s-2.3-1.56-3-1.73c0-1.91.49-2.07.32-3.06-.28-1.14-.68-2.25-1.19-3.31-.19-.49-.24-1.03-.14-1.54-.14.2-.24.43-.29.67-.05.24-.05.49,0,.73.18,1.06,1.02,2.65,1.14,3.33.12.69.09,1.5-.18,1.67-1.9-.21-3.74-.8-5.4-1.75-1.28-.73-2.6-1.39-3.96-1.98.81-1.7,1.82-3.29,3.02-4.74,1-1.2,2.18-2.23,3.51-3.05,1.82-.92,3.86-1.32,5.89-1.16,1.24.14,2.47.38,3.67.72,0,0,1.18-.98,2.08-.67-.26.68-.55,1.37-.55,1.37l1.17.68c-.35.61-.66,1.23-.93,1.88h0Zm-52.48,17.42c.02,1.45.54,2.84,1.46,3.95,0,0,.02.02.03.03-.29-.94-.53-1.9-.71-2.87v-1.92c.23-1.35.64-2.66,1.2-3.91,0,0,0,.02-.02.02l-.06.05c-.49.48-.91,1.04-1.22,1.66l-.07.14c-.34.72-.55,1.49-.6,2.28-.01.16-.02.31-.02.46v.11h0Zm31.93-10.21c.1-.06.18-.14.24-.24.16-.26.31-.52.44-.8,0-.5-1.06-.44-1.29-.63-.23-.19-.33-.44-.68-.6l-.02.05v.34c.06.33.09.66.09,1,0,.43-.04.86-.15,1.27.2.07.39.16.58.26.22-.26.49-.48.79-.65Zm-.12-3.88l-4.15-4.65-2.69,2.24.1.33c.09.23.2.45.32.67.13.23.28.45.44.67.19.24.39.47.6.68.03.03.07.06.09.09.59.55,1.28.98,2.03,1.27.44.16.91.25,1.38.27l1.85-1.56h0Zm-2.01-7.7v-1.22c0-.07,0-.14-.02-.21-.02-.07-.06-.13-.11-.18-.16-.08-.31-.18-.44-.29-.05-.04-.09-.08-.13-.12-.29.06-.58.03-.85-.1-.15-.05-.29-.12-.41-.22-.07-.06-.13-.14-.17-.23-.04-.09-.07-.18-.07-.28-.14,0-.27-.02-.4-.03v.8s.02.07.02.1c.08.26.09.54.04.81-.05.27-.16.52-.32.75-.18.25-.41.45-.68.59s-.57.22-.88.22c-.03.23-.03.47,0,.7.03.22.25.79.34,1.11.2.56.31,1.15.33,1.74l.61-.52c-.13-.49-.28-1-.42-1.51-.1-.35-.19-.69-.28-1.02.34-.07.67-.2.95-.4.28-.2.53-.45.71-.75.35.12.7.21,1.06.28h1.08l.02-.02Zm1.56-1.58c.17-.16.13-.57-.19-1.26-.11-.15-.24-.28-.38-.41-.24.12-.34.13-.43.17-.07.11-.14.21-.22.31-.05.06-.2.04-.25.09-.08.21-.23.38-.41.5.24.22.51.39.81.51.2.08.89.24,1.06.08h0Zm.79-2.81c.72-.42,1.35-.98,1.83-1.66-.13-.05-.26-.1-.39-.17-.5-.3-.92-.7-1.25-1.18-.44,1.05-1.12,1.97-2,2.69.04.08.08.17.1.26.01.03.02.06.02.08.04.23.04.47,0,.7.59-.17,1.15-.41,1.68-.72h0Zm2.06-2.06h.02s.02-.02.02-.04c0-.01,0-.03,0-.04-.09-.39-.32-.74-.64-.98-.17-.17-.36-.32-.57-.46-.22-.14-.4-.19-.5-.16-.01,0-.02.01-.03.02,0,.01-.02.03-.02.05-.02.05-.02.11,0,.16.14.33.35.63.62.87.45.44.93.7,1.09.59h0Zm-4.34,1.81s-1.05.08-1.05.08c0,0-.51.36-.58.67-.01.22-.01.43,0,.65l1.64.03c.13-.22.2-.47.19-.72,0-.25-.07-.5-.21-.72h0Zm-1.16,2.23c.86.06.81-.44.81-.44l-1.48-.02s-.19.41.67.46h0Zm-2.16-1.76c-.13-.14-.29-.26-.46-.35-.18.17-.43.4-.67.58,0,0,0,.02-.03.02-.08.08-.17.14-.27.19-.17-.16-.29-.37-.35-.59-.02-.05-.03-.11-.03-.16,0-.08.01-.16.05-.23.04-.07.1-.12.17-.15.18-.07.35-.14.52-.23.02-.13.08-.24.16-.34-.08-.18-.17-.35-.29-.51l-.45-.26c-.17-.09-.34-.19-.5-.3,0,.28.03.44.02.67v.07c0,.12,0,.24.02.36v.67h-.38c0-.07,0-.15,0-.22v-.36c0-.12-.02-.25-.02-.38-.03-.49-.07-.96-.11-1.41-.05-.02-.1-.03-.16-.04l-.29-.04h-.27c-.02.06.15,1.04.19,1.21.02.09.18,1.12.18,1.18v.03h-.36v.02c-.07-.44-.16-.89-.26-1.31-.1-.42-.2-.77-.32-1.11-.35.04-.68.13-1.01.26,0,0-.02,0-.03.02-.22.1-.43.22-.62.37l-.09.07c-.13.14-.25.28-.37.43-.17.24-.32.46-.42.61-.06.09-.06.21-.13.34-.03.07-.05.15-.06.22-.02.08-.03.16-.03.24.02,0,.04.01.06.02.12.03.24.06.35.08.3.06.61.1.93.1h.08c.15,0,.3,0,.45-.02v.02c.12.47.36.89.7,1.24.26.28.58.51.92.67.08.04.16.07.25.09.05.02.09.03.15.05,0,.08,0,.16,0,.23v.34l.3.04c0-.1,0-.21.01-.3,0-.04,0-.09,0-.13v-1.5h.37v.33s.06.06.08.09c.14.15.28.31.41.46.04.05.08.1.12.14.01,0,.02.02.02.03.02.02.03.04.04.05.1.12.2.24.29.36.11-.07.22-.15.32-.24.09-.08.17-.17.23-.26.04-.04.07-.09.1-.14.04-.07.08-.13.11-.2.02-.05.04-.09.06-.14.01-.02.02-.04.03-.07.04-.1.08-.19.12-.28.06-.15.16-.27.3-.36-.03-.09-.08-.18-.15-.25h.03Zm-5.13,13.1l-.22-.23c-.05-.06-.1-.11-.14-.16,0-.01-.02-.02-.02-.04l-1.37,1.14,4.21,4.7.16-.14,2.49-2.1c-.81-.23-1.59-.56-2.33-.98-.89-.51-1.71-1.13-2.44-1.84-.02-.02-.04-.04-.05-.06-.06-.05-.11-.1-.16-.16-.04-.04-.09-.08-.13-.13h0Zm-3,1.71l-.02.02,1.24,1,3.05,2.47.22-.27-3.11-3.5-.09-.09s-.02,0-.02-.02l-.34-.38-.95.78h0Zm-.12,1.68h.04s2.73,1.06,2.73,1.06l.22.08-2.51-2-.12-.09-.37.95Zm-19.04,18.39c-.11-.46-.22-.95-.33-1.33l-.85-2.94-1.19-4.13c-.26-.9-.3-1.86-.13-2.78.17-.92.55-1.8,1.12-2.55.57-.75,1.3-1.36,2.14-1.78.84-.42,1.77-.64,2.71-.64.29,0,.58.02.87.06.2-.02.39-.05.59-.09.09-.02.19-.05.28-.08.07-.02.14-.05.21-.07.12-.05.25-.1.4-.17.22-.1.46-.2.68-.3,1.09-.48,2.24-.82,3.42-.99,1.47-.21,2.95-.19,4.41.07.87.15,1.72.39,2.54.72.31.11.63.19.96.25.53,0,.57-.56,1.23-.56.31.07.61.18.89.32,0,0-.09.13-.09.13-1.2,1.95-2.09,4.08-2.65,6.3-.01.04-.03.08-.03.12-.03.1-.05.22-.08.33,0,0,8.67,3.49,8.69,3.51.06-.15,1.57-3.8,1.57-3.8,0,0,1.59,1.11,2.42,1.6-.04.67-.03,1.33.02,2,.14,2.59.61,6.42.75,7.61.12.15.22.29.42.29s2.45-.24,3.06-1.06l-.38-5.68-.28-4.17-2.97-7.08-.46-1.1-.87,2.1-3.59,8.61-7.75-3.07s0-.04.01-.07c0,0,0,0,0-.01,0,0,0,0,0-.01,0-.03.01-.06.02-.1.58-2.33,1.53-4.55,2.82-6.58.04-.1.06-.15.06-.16,0-.17,0-.14-.04-.18l-2.02-.77.53-1.36-.51-.41.14-.12.5-.42.78-.65.95-.79.42-.35.16-.12-.19-.26s-.31-.41-.44-.62c-.32-.47-.6-.97-.83-1.48-.15-.33-.28-.65-.38-.97-.05-.12-.09-.24-.11-.37-.12-.41-.2-.83-.26-1.25-.03-.24-.05-.48-.05-.73v-.1c0-.47.14-.92.39-1.32.08-.14.17-.26.28-.37l.05-.05c.08-.09.17-.17.26-.25.18-.15.38-.27.59-.37.14-.08.28-.14.43-.19,0-.12,0-.24.02-.4.09,0,.18.02.26.04.23.04.46.09.68.17.02,0,.03,0,.05.02-.07-.44-.59-.53-.77-.78-.04-.05-.07-.11-.07-.17,0-.06.02-.11.05-.16.07-.08.11-.17.12-.28,0-.05-.01-.09-.04-.14-.02-.04-.05-.08-.09-.11h-.01s-.06-.04-.09-.05c-.04-.03-.08-.06-.12-.09-.04-.02-.1-.1-.15-.14-.44-.45-.75-1.01-.89-1.62,0-.05-.02-.09-.03-.15-.01-.06-.02-.12-.02-.19-.02-.21-.02-.42,0-.62.01-.06.02-.12.03-.19.14-.67.5-1.28,1.03-1.73.15-.12.3-.23.46-.34.01,0,.02-.02.03-.03.19-.12.39-.21.61-.28.03-.01.07-.03.11-.04.02,0,.05-.02.07-.02.2-.06.4-.11.6-.14.18-.03.36-.04.54-.05h.35s.1.01.14.02c.04,0,.08,0,.12.01h.64s.06.08.09.12l.03.04c.1.17.18.33.23.44,0,.02.01.02.03.03.03.04.06.08.1.12.31.28.82.37.93.62.12.26.55,1.14.55,1.14,0,0,.92,1.04.92,1.09,0,.2,0,.29.12.43.19-.05.37-.11.55-.18,0-.15.03-.29.05-.43.02-.04.67-.89,1-.85.09,0,1.22-.09,1.23-.09,1.01-.8,1.72-1.93,1.99-3.19v-.03s.01-.04.02-.06c.02-.05.05-.1.08-.13.07-.05.14-.09.22-.1.08-.02.17-.01.24.01.18.04.34.1.5.19.28.16.54.35.77.58.08.08.14.14.2.22.14.16.27.34.38.52.1.12.16.26.19.41.03.15.03.31-.01.45l-.03.04c-.81,1.27-2.02,2.22-3.44,2.69-.04.02-.08.04-.11.06.28.27.49.61.6.98h1.5v4.33c0,.07,0,.13-.01.19-.01.06-.02.13-.03.2-.02.07-.02.08-.03.12-.05.19-.13.37-.24.54-.02.04-.05.07-.07.11-.16.22-.37.41-.6.55-.24.14-.5.24-.77.28-.1.02-.2.02-.31.03h-2.1l3.4,3.82s-1.01.83-1.36,1.16c.15.22.33.42.52.6.22.14,1.67.26,1.56.94-.01.08-.03.16-.05.24-.17.33-.37.65-.6.94-.24.3-.73.33-.89.84.25.16.44.41.54.69.82-.96,1.55-1.99,2.17-3.09,1.74.44,5.95,2.79,7.06,3.13.79.21,1.59.37,2.39.46-.11.26-.18.53-.22.81,0,.1.34.2.73.43.21.13.39.28.56.46-.08.96.06,1.94.41,2.84.13.31.24.63.33.95.03.1.06.2.09.31.05.24.1.48.14.74.05.32.08.65.09.97v.62c0,.07,0,.15,0,.22-.02.4-.06.81-.12,1.21-.02.08-.03.17-.05.26-.02.09-.05.25-.08.36-.11.44-.25.87-.43,1.29-.02.04-.04.09-.06.13-.01.03-.02.06-.03.08,0,.01-.01.02-.02.04-.04,0-.08-.03-.13-.04-.26-.09-.52-.2-.76-.35-.16-.1-.31-.2-.44-.31-.15-.12-.29-.25-.43-.4.25.54.63,1.01,1.09,1.38.08.06.17.13.25.18.06.03.13.06.2.08,0,0,1.15.37,1.38.41,1.24.2,2.46.47,3.67.82.2.07.56-.39,1.65-.29.48.06.93.27,1.27.61.34.34.56.79.62,1.27-.02.72-.33.9-.44,1.32-.13.54-.97,5.13-1.06,5.93-.06.52-.08,1.24-.08,1.25,0,.07.2.94.22,1.23v.16c0,.13-.01.26-.03.39-.03.27-.12.54-.26.77-.14.24-.32.44-.54.61,0,.03-.01.06-.03.08-.06.22-.14.44-.22.67-.41,1.12-1.06,2.15-1.89,3l-.02-.04-1.67-3.19-.02-.04c.36-.67.81-1.27,1.35-1.8.07-.08.14-.15.22-.22.17-.16.35-.3.52-.44v-.15c.01-.35.09-.69.25-1,.16-.31.38-.59.65-.8,0-.13.25-4.93.05-6.71-.67-.1-1.31-.34-1.88-.7-.16-.12-5.46.39-5.62.4-.16.01-.6-.2-.91-.19-.31,0-.8.07-.99.07-.35,0-.69-.11-.98-.32-.3-.22-.51-.53-.6-.89-.02-.08-.04-.16-.04-.24v-.18c0-.06,0-.11.02-.17,0-.06.02-.11.03-.17.04-.14.1-.28.17-.41-.29-.09-.58-.2-.85-.34-.26-.13-.5-.28-.74-.44-.57-.41-1.06-.92-1.44-1.51-.13-.2-.24-.42-.34-.63.33,1.34,1.16,2.5,2.33,3.24-.01.11-.03.22-.03.34,0,.21.01.42.06.63.09.44.31.86.61,1.19.36.39.82.67,1.33.8-.42,1.56-1.35,4.22-1.35,4.42-.39,1.2-.88,2.37-1.47,3.49-.08,1.16-.25,2.32-.51,3.45-.04.25-.06.5-.07.75,0,.2-.11,1.43-.18,3.41,0,.17-.06.2-.06.4.01.17.07.32.16.46,0,0,.02.02.02.03.07.09.14.18.21.28.07.09.18.26.27.39.2.31.39.62.55.95.08.16.16.33.22.49.04.07.08.14.1.22.29.71.49,1.46.59,2.22h-3.91c.04-.23.07-.46.08-.69.03-.89-.18-1.78-.59-2.57-.15-.4-.36-.78-.63-1.11.06-.57.16-1.14.31-1.69.24-.65.53-1.27.89-1.86,0,0,.25-4.71.25-4.91s-.33-1.9-.47-2.77c-.12-.91-.38-1.8-.76-2.63-.09-.17.42-.65.58-.94l-.1-.09s-.05,0-.07,0c-.2.18-3.98,1.32-3.98,1.32-.35-.46-.74-.89-1.17-1.28-1.66-.12-3.31-.33-4.95-.63-2.35-.43-4.66-1.04-6.9-1.84-.39-.14-.76-.29-1.11-.43-.02.02-.03.04-.04.06v.2c0,.26-.02.52-.05.77-.1.98-.36,1.94-.78,2.84-.18.38-.4.75-.66,1.08-.02.03-.03.07-.05.09.17.35.3.73.38,1.11.05.24.09.49.11.73.02.3.02.61,0,.91,1.61,1.95,3.09,4,4.42,6.16,0,.01.02.03.03.05.3.18.54.44.7.75.16.31.24.65.23,1,0,.22-.03.43-.09.64-.07.24-.17.46-.32.65.06.22.1.44.14.68.08.5.11,1,.09,1.5v.05c-.04.75-.19,1.48-.45,2.18-.06.14-.13.27-.21.4l-2.89-2.43-.07-.06c.13-.36.29-.71.48-1.04.19-.35.4-.7.63-1.03-.35-.35-.58-.81-.63-1.3,0-.09-.01-.17-.01-.26,0-.07,0-.16.01-.24.02-.52.19-1.03.48-1.46-.37-.64-1.24-1.89-1.51-2.24-.52-.66-1.1-1.27-1.72-1.84-.42-.21-.87-.37-1.33-.47.07,0-.03,0,0,0-.22-.02-.91-.14-.91-.14l-1.05-.18h-.07l.26-.82v-.05c.04-.3.04-.61,0-.92-.03-.22-.08-.43-.15-.63-.03-.07-.06-.13-.09-.2-.04-.08-.09-.15-.13-.22-.02-.02-.03-.04-.04-.06-.37-.49-1.22-1.57-1.36-1.74.03-.03.06-.07.08-.1l.04-.05c.56-.7,1.04-1.46,1.43-2.27.19-.4.35-.8.5-1.22.18-.52.32-1.06.43-1.61.05-.25.1-.51.14-.77,0-.02,0-.05,0-.07.18-.12.35-.25.51-.38.47-.37.88-.81,1.23-1.29.22-.3.42-.62.58-.95.04-.07.07-.14.1-.21-.04.06-.08.12-.12.19-.57.8-1.3,1.48-2.16,1.97l-.09.04c-.07.04-.15.09-.22.12-.17.09-.34.17-.52.24-.03.25-.08.48-.13.72-.07.35-.16.68-.26,1.01-.09.29-.19.58-.3.85-.17.46-.38.9-.62,1.33-.26.49-.56.96-.9,1.41-.09.11-.16.22-.25.31-.66.81-1.44,1.52-2.31,2.09-.47.31-.96.57-1.48.78-.15.06-.3.12-.45.17-.27.61-.69,1.14-1.21,1.56-.28.19-.53.42-.75.68-.36.59-.64,1.23-.81,1.9-.3,1.09-.54,2.2-.71,3.32,0,.19-.08.99-.08,1.19s.57,2.1.57,2.31c0,0,0,.02,0,.03,0,0,0,.02.02.02.86.65,1.53,1.51,1.95,2.5.25.57.42,1.16.5,1.78h-3.33c-.08-.53-.22-1.05-.4-1.56-.31-.86-.77-1.66-1.36-2.36-.13-.16-.26-.3-.4-.44-.05-.1-.08-.21-.09-.32,0-.02,0-.04,0-.06.08-.69.26-1.36.52-2,.11-.19.18-.41.21-.62,0-.19.33-4.12.31-4.26-.33-1-.76-1.96-1.29-2.87.19-.25.4-.48.63-.7.51-.38.88-.92,1.06-1.54.03-.17.18-.19.18-.39,0-.06,0-.13-.04-.19-.75.56-1.67.86-2.61.86.57-.46,1-1.07,1.24-1.76s.29-1.43.15-2.15c-.01-.06-.02-.13-.04-.18"/><path class="b" d="m0,64.34V16.58h24.41v8.07h-15.5v10.98h11.81v8.07h-11.81v12.57h16.14v8.07H0Z"/><path class="b" d="m48.11,29.87c-.49-1.81-1.4-3.49-2.65-4.89-.51-.5-1.12-.9-1.78-1.16-.67-.26-1.38-.39-2.09-.37-.67-.05-1.35.06-1.98.3-.63.24-1.2.61-1.67,1.09-.89,1.07-1.34,2.44-1.26,3.84,0,.6.14,1.19.4,1.73.26.54.63,1.02,1.09,1.41,1.13,1,2.36,1.88,3.68,2.61,1.46.84,3.06,1.73,4.78,2.68,1.71.94,3.31,2.05,4.78,3.33,1.48,1.3,2.72,2.84,3.68,4.56,1.04,1.95,1.55,4.14,1.48,6.35.03,1.92-.31,3.83-1,5.62-.64,1.63-1.63,3.1-2.91,4.3-1.35,1.24-2.94,2.17-4.68,2.75-2.02.67-4.14.99-6.26.96-3.43.08-6.77-1.04-9.46-3.17-2.99-2.7-5.02-6.3-5.78-10.25l8.78-1.91c.2,1.27.58,2.51,1.13,3.67.43.9,1.01,1.71,1.71,2.41.58.58,1.27,1.03,2.03,1.33.65.25,1.34.39,2.03.4,1.09-.04,2.14-.4,3.03-1.02.89-.62,1.59-1.48,2.01-2.49.42-1,.55-2.11.36-3.18-.19-1.07-.67-2.07-1.4-2.87-1.09-1.16-2.33-2.17-3.68-3.01-1.46-.93-3.06-1.84-4.78-2.75-1.69-.88-3.29-1.92-4.78-3.11-1.44-1.15-2.68-2.53-3.67-4.08-1.04-1.71-1.55-3.69-1.48-5.69-.1-1.78.16-3.57.77-5.25.6-1.68,1.54-3.22,2.75-4.53,1.42-1.27,3.08-2.25,4.88-2.86,1.8-.61,3.71-.86,5.61-.71,1.82-.03,3.64.27,5.36.86,1.54.54,2.96,1.36,4.2,2.41,1.21,1.04,2.22,2.28,3,3.67.81,1.45,1.41,3.01,1.78,4.63l-8.02,2.37Z"/><path class="b" d="m87.56,16.58v8.07h-10.4v39.69h-8.91V24.65h-10.4v-8.07h29.7Z"/><path class="b" d="m81.75,64.34l11.56-47.76h11.43l11.23,47.76h-8.51l-2.27-10.06h-12.33l-2.51,10.06h-8.59Zm12.72-18.13h8.85l-4.33-19.32h-.13l-4.39,19.32Z"/><path class="b" d="m117.85,16.58h12.4c2.29-.03,4.58.26,6.78.89,1.89.54,3.61,1.53,5.04,2.88,1.45,1.44,2.54,3.19,3.2,5.13.82,2.47,1.24,5.04,1.26,7.64v14.68c-.02,2.6-.44,5.17-1.26,7.64-.65,1.93-1.75,3.69-3.2,5.13-1.42,1.35-3.15,2.34-5.04,2.88-2.2.62-4.49.92-6.78.89h-12.4V16.58Zm8.92,39.69h3.1c1.04.06,2.09-.09,3.07-.45.98-.36,1.88-.92,2.64-1.64,1.59-2.14,2.31-4.79,2.03-7.44v-12.57c.22-2.57-.4-5.13-1.78-7.31-.76-.8-1.69-1.42-2.73-1.81-1.04-.39-2.15-.53-3.24-.42h-3.1v31.63Z"/><path class="b" d="m146.39,64.34l11.56-47.76h11.44l11.23,47.76h-8.52l-2.27-10.05h-12.34l-2.52,10.05h-8.59Zm28.93-59.34c-.21,1.02-.49,2.03-.84,3.01-.33.91-.77,1.76-1.33,2.55-.53.74-1.23,1.35-2.03,1.78-.92.47-1.94.7-2.97.67-.86,0-1.71-.12-2.53-.36-.84-.24-1.65-.51-2.42-.79-.78-.29-1.54-.55-2.29-.79-.72-.24-1.47-.36-2.22-.36-.36-.02-.73.05-1.06.19-.34.14-.63.36-.87.63-.48.56-.81,1.23-.97,1.95h-4.07c.17-1.04.44-2.06.81-3.04.34-.93.84-1.8,1.45-2.58.59-.74,1.33-1.34,2.16-1.78.93-.46,1.96-.69,3-.67.87,0,1.73.14,2.55.4.84.26,1.65.54,2.42.83.78.29,1.51.56,2.2.83.57.24,1.19.38,1.81.4.37,0,.73-.07,1.06-.21.34-.14.64-.35.89-.62.54-.56.91-1.26,1.06-2.02h4.2Zm-16.21,41.21h8.85l-4.33-19.32h-.13l-4.39,19.32Z"/><path class="b" d="m180.74,31.92c-.06-2.54.31-5.07,1.1-7.48.62-1.85,1.66-3.54,3.03-4.93,1.31-1.27,2.9-2.21,4.65-2.75,3.88-1.15,8-1.15,11.88,0,1.74.54,3.34,1.48,4.65,2.75,1.37,1.39,2.41,3.08,3.03,4.93.79,2.41,1.16,4.94,1.1,7.48v17.07c.07,2.54-.31,5.07-1.1,7.48-.62,1.85-1.66,3.54-3.03,4.93-1.31,1.27-2.9,2.21-4.65,2.75-3.88,1.15-8,1.15-11.88,0-1.74-.54-3.34-1.48-4.65-2.75-1.37-1.39-2.41-3.08-3.03-4.93-.79-2.41-1.16-4.94-1.1-7.48v-17.07Zm8.91,18.26c-.12.95-.04,1.92.23,2.84.27.92.72,1.78,1.33,2.52,1.24.9,2.73,1.39,4.26,1.39s3.02-.49,4.26-1.39c.61-.74,1.06-1.6,1.33-2.52.27-.92.35-1.89.23-2.84v-19.44c.12-.95.04-1.92-.23-2.84-.27-.92-.72-1.78-1.33-2.52-1.24-.9-2.73-1.39-4.26-1.39s-3.02.49-4.26,1.39c-.61.74-1.06,1.6-1.33,2.52-.27.92-.35,1.89-.23,2.84v19.44Z"/></svg>