<svg xml:space="preserve" width="32" height="32" xmlns="http://www.w3.org/2000/svg">
  <path d="M3.564.424c7.111-.077 14.26.58 21.334-.27.85-.039 1.739-.348 2.55.038.31 1.392-.463 2.822-.116 4.252.232 1.043.232 3.014-1.39 2.628-.194-1.314-.078-3.092-1.663-3.556-3.362-.966-6.956-.889-10.435-.773-1.043.039-2.705.31-2.628 1.7-.077 3.17-.116 6.339.039 9.508.734.503 1.739.193 2.55.31 2.32-.117 4.638.193 6.957-.155 1.7-.348 1.778-2.358 2.203-3.672.812-.541 1.662.58 1.353 1.391-.425 2.513-.155 5.063.077 7.576.116.773-1.353 1.12-1.468.27-.542-1.314-1.083-3.17-2.822-3.208-2.782-.154-5.565-.116-8.348-.038-.811.425-.464 1.507-.58 2.241.078 2.976-.116 5.952.116 8.89.155 1.468 1.778 1.932 3.054 1.97 3.555.155 7.304.31 10.628-1.236 2.048-.89 1.894-3.363 2.473-5.18 1.508.04 2.126 1.624 1.546 2.9a16.585 16.585 0 0 0-.889 5.99c-8.464-.773-16.889-.116-25.314-.31 0-.347.077-1.043.077-1.39 1.74-.232 4.251-.542 4.329-2.822.425-5.372.077-10.821.193-16.194-.116-2.628.386-5.372-.619-7.884-.58-1.275-2.125-1.314-3.285-1.7 0-.31.039-.967.078-1.276z" style="fill:#000;stroke-width:.386485"/>
</svg>