<?xml version="1.0" encoding="UTF-8" standalone="no"?>
<!-- Generator: Adobe Illustrator 23.0.6, SVG Export Plug-In . SVG Version: 6.00 Build 0)  -->

<svg version="1.1" id="Camada_1" x="0px" y="0px" viewBox="0 0 32 32" xml:space="preserve" sodipodi:docname="etsy.svg" width="32" height="32" inkscape:version="1.4-beta2 (9aaf4f34, 2024-07-30)" xmlns:inkscape="http://www.inkscape.org/namespaces/inkscape" xmlns:sodipodi="http://sodipodi.sourceforge.net/DTD/sodipodi-0.dtd" xmlns="http://www.w3.org/2000/svg" xmlns:svg="http://www.w3.org/2000/svg" xmlns:rdf="http://www.w3.org/1999/02/22-rdf-syntax-ns#" xmlns:cc="http://creativecommons.org/ns#" xmlns:dc="http://purl.org/dc/elements/1.1/"><defs id="defs4" /><sodipodi:namedview id="namedview4" pagecolor="#ffffff" bordercolor="#000000" borderopacity="0.25" inkscape:showpageshadow="2" inkscape:pageopacity="0.0" inkscape:pagecheckerboard="0" inkscape:deskcolor="#d1d1d1" inkscape:zoom="0.61173236" inkscape:cx="176.5478" inkscape:cy="79.283038" inkscape:window-width="1440" inkscape:window-height="790" inkscape:window-x="0" inkscape:window-y="0" inkscape:window-maximized="1" inkscape:current-layer="Camada_1" />
<title id="title1">etsy</title>
<path d="m 3.5636267,0.42415435 c 7.1113293,-0.077297 14.2613063,0.57972795 21.3339873,-0.2705396 0.850267,-0.038649 1.739183,-0.3478368 2.550802,0.038648 0.309189,1.39134695 -0.463782,2.82134245 -0.115945,4.25133795 0.231891,1.0435094 0.231891,3.0145844 -1.391347,2.6281004 -0.193243,-1.31405 -0.0773,-3.0918828 -1.661887,-3.5556651 -3.362422,-0.9662132 -6.956735,-0.8889161 -10.435102,-0.7729705 -1.04351,0.038649 -2.705397,0.3091882 -2.6281,1.7005352 -0.0773,3.1691784 -0.115946,6.3383583 0.03865,9.5075373 0.734322,0.502431 1.739184,0.193242 2.550803,0.309188 2.318912,-0.115946 4.637824,0.193243 6.956735,-0.154594 1.700535,-0.347837 1.777832,-2.35756 2.202966,-3.67161 0.811619,-0.5410799 1.661887,0.579728 1.352699,1.391347 -0.425134,2.512154 -0.154594,5.062957 0.0773,7.575111 0.115945,0.772971 -1.352699,1.120807 -1.468644,0.27054 -0.54108,-1.31405 -1.082159,-3.169179 -2.821343,-3.207828 -2.782694,-0.154594 -5.565388,-0.115946 -8.348082,-0.03865 -0.811619,0.425134 -0.463782,1.507293 -0.579728,2.241615 0.0773,2.975938 -0.115945,5.951873 0.115946,8.889161 0.154594,1.468644 1.777832,1.932427 3.053234,1.971075 3.555664,0.154595 7.304571,0.309188 10.628345,-1.236753 2.048372,-0.888916 1.893777,-3.362422 2.473505,-5.178902 1.507293,0.03865 2.125669,1.623238 1.545941,2.898639 -0.657025,1.932427 -0.966213,3.94215 -0.888916,5.990522 -8.464032,-0.772969 -16.889411,-0.115944 -25.3147903,-0.309186 0,-0.347837 0.0773,-1.043511 0.0773,-1.391347 1.739184,-0.231891 4.251338,-0.54108 4.328635,-2.821343 0.425134,-5.372145 0.0773,-10.821587 0.193243,-16.193733 C 7.2738847,8.6562911 7.7763157,5.9122451 6.7714537,3.4000909 6.1917257,2.1246895 4.6457847,2.086041 3.4863287,1.6995557 c 0,-0.3091882 0.03865,-0.96621305 0.0773,-1.27540135 z" id="path1" inkscape:label="path1" style="fill:#000000;stroke-width:0.386485" />
<metadata id="metadata4"><rdf:RDF><cc:Work rdf:about=""><dc:title>etsy</dc:title></cc:Work></rdf:RDF></metadata></svg>
