<?xml version="1.0" encoding="UTF-8" standalone="no"?>
<!-- Created with Vectornator (http://vectornator.io/) -->

<svg height="32" stroke-miterlimit="10" style="clip-rule:evenodd;fill-rule:nonzero;stroke-linecap:round;stroke-linejoin:round" version="1.1" viewBox="0 0 32 32" width="32" xml:space="preserve" id="svg10" sodipodi:docname="eventim.svg" inkscape:version="1.4-beta2 (9aaf4f34, 2024-07-30)" xmlns:inkscape="http://www.inkscape.org/namespaces/inkscape" xmlns:sodipodi="http://sodipodi.sourceforge.net/DTD/sodipodi-0.dtd" xmlns="http://www.w3.org/2000/svg" xmlns:svg="http://www.w3.org/2000/svg"><sodipodi:namedview id="namedview10" pagecolor="#ffffff" bordercolor="#000000" borderopacity="0.25" inkscape:showpageshadow="2" inkscape:pageopacity="0.0" inkscape:pagecheckerboard="0" inkscape:deskcolor="#d1d1d1" inkscape:zoom="1.1832005" inkscape:cx="61.697064" inkscape:cy="30.848532" inkscape:window-width="1440" inkscape:window-height="872" inkscape:window-x="0" inkscape:window-y="0" inkscape:window-maximized="1" inkscape:current-layer="svg10" />
<defs id="defs1" />

<clipPath id="ArtboardFrame">
<rect height="80" width="210" x="0" y="0" id="rect1" />
</clipPath>
<g opacity="1" id="g9" style="clip-rule:evenodd;fill-rule:nonzero;stroke-linecap:round;stroke-linejoin:round;fill:#000000" transform="matrix(0.93090909,0,0,0.93090909,-163.49091,-8.6456878)">

<path d="m 188.717,30.5987 v 0 c 3.576,3.576 3.692,9.1706 3.692,13.0349 h 0.865 c 0,-3.8643 0.115,-9.4589 3.691,-13.0349 v 0 c 3.576,-3.5759 9.171,-3.6913 13.035,-3.6913 v -0.8651 c -3.864,0 -9.459,-0.1154 -13.035,-3.6913 v 0 c -3.576,-3.5759 -3.691,-9.1706 -3.691,-13.03488 h -0.923 c 0,3.86428 -0.115,9.45898 -3.691,13.03488 v 0 c -3.576,3.5759 -9.171,3.6913 -13.035,3.6913 v 0.8651 c 3.922,0 9.516,0.1154 13.092,3.6913 z" fill="#000000" fill-rule="nonzero" opacity="1" stroke="none" id="path9" style="fill:#000000" />
</g>
</svg>
