<?xml version="1.0" encoding="UTF-8" standalone="no"?>
<svg viewBox="0 0 32 32" version="1.1" id="svg3" sodipodi:docname="eventbrite.svg" width="32" height="32" inkscape:version="1.4-beta2 (9aaf4f34, 2024-07-30)" xmlns:inkscape="http://www.inkscape.org/namespaces/inkscape" xmlns:sodipodi="http://sodipodi.sourceforge.net/DTD/sodipodi-0.dtd" xmlns="http://www.w3.org/2000/svg" xmlns:svg="http://www.w3.org/2000/svg">
  <defs id="defs3" />
  <sodipodi:namedview id="namedview3" pagecolor="#ffffff" bordercolor="#000000" borderopacity="0.25" inkscape:showpageshadow="2" inkscape:pageopacity="0.0" inkscape:pagecheckerboard="0" inkscape:deskcolor="#d1d1d1" inkscape:zoom="0.94541142" inkscape:cx="89.907947" inkscape:cy="107.36067" inkscape:window-width="1440" inkscape:window-height="872" inkscape:window-x="0" inkscape:window-y="0" inkscape:window-maximized="1" inkscape:current-layer="svg3" />
  <g fill-rule="evenodd" id="g3" style="fill:#000000" transform="matrix(0.32204634,0,0,0.32204634,-0.13088554,0.21006795)">
    <g id="g2" style="fill:#000000">
      <g id="g1" style="fill:#000000">
        <path d="m 44.053,23.401 c 10.985,-2.481 21.946,2.016 28.049,10.52 L 23.556,44.89 C 25.23,34.627 33.068,25.882 44.053,23.4 Z m 28.32,40.35 c -3.67,5.322 -9.329,9.35 -16.227,10.908 -11.057,2.498 -22.09,-2.076 -28.169,-10.69 L 76.675,52.967 84.606,51.175 99.771,47.749 A 47.9,47.9 0 0 0 98.508,38.093 C 92.336,11.931 65.658,-4.382 38.923,1.658 12.188,7.698 -4.482,33.804 1.691,59.967 7.863,86.129 34.541,102.442 61.276,96.402 77.029,92.843 89.283,82.317 95.432,68.918 Z" id="path1" style="fill:#000000" />
      </g>
    </g>
  </g>
</svg>
