<?xml version="1.0" encoding="UTF-8"?><svg id="a" xmlns="http://www.w3.org/2000/svg" viewBox="0 0 260 80"><defs><style>.e{fill-rule:evenodd;stroke-width:0px;}</style></defs><path class="e" d="m242.2,35.52c3.51-.79,7.01.64,8.96,3.37l-15.51,3.51c.54-3.28,3.04-6.08,6.55-6.87Zm9.04,12.91c-1.23,1.77-3.08,3.02-5.18,3.49-3.53.8-7.06-.66-9-3.42l15.56-3.52,2.53-.57,4.84-1.1c-.03-1.04-.16-2.08-.4-3.09-1.97-8.37-10.49-13.59-19.03-11.66-8.54,1.93-13.86,10.28-11.89,18.65,1.97,8.37,10.49,13.59,19.03,11.66,5.03-1.14,8.95-4.51,10.91-8.79l-7.37-1.65Z"/><path id="b" class="e" d="m214.65,58.45v-22.19h-4.79v-7.56h4.79v-10.41h8.13v10.41h6.11v7.56h-6.11v22.19h-8.13Z"/><path class="e" d="m199.11,58.45h7.85v-29.75h-7.85v29.75Zm-1.02-40.19c0-2.75,2.17-4.82,4.98-4.82s4.92,2.07,4.92,4.82-2.11,4.88-4.92,4.88-4.98-2.13-4.98-4.88Zm-1.71,10.52c-4.01.21-6.38.82-8.79,2.57v-2.65h-7.85v29.75h7.85v-14.59c0-4.59,1.12-7.2,8.79-7.46,0,0,0-7.62,0-7.62Zm-43.77,15.26c.2,4.34,3.97,7.98,8.6,7.98s8.53-3.83,8.53-8.36-3.84-8.3-8.53-8.3-8.4,3.7-8.6,7.98c0,0,0,.7,0,.7Zm-7.66,14.41V14.5l7.85-1.78v18.19c2.43-1.94,5.3-2.75,8.43-2.75,8.94,0,16.09,6.89,16.09,15.52s-7.15,15.58-16.09,15.58c-3.13,0-6-.81-8.43-2.75v1.94h-7.85Z"/><path id="c" class="e" d="m128.23,58.45v-22.34h-4.79v-7.41h4.79v-10.41l8.13-1.84v12.25h6.11v7.41h-6.11v22.34h-8.13Z"/><path class="e" d="m113.84,58.45v-15.89c0-5.76-3.13-7.01-6.26-7.01s-6.26,1.19-6.26,6.89v16.02h-7.85v-29.75h7.85v2.21c1.72-1.25,3.83-2.75,7.98-2.75,6.64,0,12.39,3.82,12.39,13.15v17.15h-7.85Zm-40.26-22.93c3.51-.79,7.01.64,8.96,3.37l-15.51,3.51c.53-3.28,3.04-6.08,6.55-6.87Zm9.05,12.91c-1.23,1.78-3.08,3.02-5.18,3.49-3.53.8-7.05-.66-9-3.42l15.56-3.52,2.53-.57,4.85-1.1c-.03-1.04-.16-2.08-.4-3.09-1.97-8.37-10.49-13.59-19.03-11.66-8.54,1.93-13.86,10.28-11.89,18.65,1.97,8.37,10.49,13.59,19.03,11.66,5.03-1.14,8.95-4.51,10.91-8.79,0,0-7.36-1.65-7.36-1.65Z"/><path id="d" class="e" d="m41.54,58.45l-12.2-29.75h8.56l7.73,20.18,7.79-20.18h8.56l-12.2,29.75h-8.24Z"/><path class="e" d="m13.94,35.51c3.51-.79,7.01.64,8.96,3.37l-15.51,3.51c.53-3.28,3.04-6.08,6.55-6.87Zm9.05,12.91c-1.23,1.78-3.08,3.02-5.18,3.49-3.53.8-7.05-.66-9-3.42l15.56-3.52,2.53-.57,4.84-1.1c-.03-1.04-.16-2.08-.4-3.09-1.97-8.37-10.49-13.59-19.03-11.66C3.76,30.49-1.56,38.84.41,47.21c1.97,8.37,10.49,13.59,19.03,11.66,5.03-1.14,8.95-4.51,10.91-8.79l-7.36-1.65h0Z"/></svg>