<?xml version="1.0" encoding="UTF-8" standalone="no"?>
<svg class="interstitial" enable-background="new 0 0 211 47" fill="none" height="32" preserveAspectRatio="xMidYMid" viewBox="0 0 21.780645 21.797101" width="32" version="1.1" id="svg11" sodipodi:docname="expedia.svg" inkscape:version="1.4-beta2 (9aaf4f34, 2024-07-30)" xmlns:inkscape="http://www.inkscape.org/namespaces/inkscape" xmlns:sodipodi="http://sodipodi.sourceforge.net/DTD/sodipodi-0.dtd" xmlns="http://www.w3.org/2000/svg" xmlns:svg="http://www.w3.org/2000/svg">
  <sodipodi:namedview id="namedview11" pagecolor="#ffffff" bordercolor="#000000" borderopacity="0.25" inkscape:showpageshadow="2" inkscape:pageopacity="0.0" inkscape:pagecheckerboard="0" inkscape:deskcolor="#d1d1d1" inkscape:zoom="1.1689036" inkscape:cx="80.417235" inkscape:cy="85.978002" inkscape:window-width="1440" inkscape:window-height="872" inkscape:window-x="0" inkscape:window-y="0" inkscape:window-maximized="1" inkscape:current-layer="svg11" />
  <path d="M 29.9964,141.53811 H 7.76025 C 3.48216,141.53811 0,138.05591 0,133.76121 v -22.2361 c 0,-4.27804 3.48216,-7.7602 7.76025,-7.7602 H 29.9964 c 4.2946,0 7.7602,3.48216 7.7602,7.7602 v 22.2361 c 0.0166,4.2947 -3.4656,7.7769 -7.7602,7.7769 z" fill="#fddb32" id="path1" clip-path="url(#clipPath13)" inkscape:path-effect="#path-effect14" style="fill:#000000" transform="matrix(0.57705202,0,0,0.57705202,-0.0034557,-59.877751)" />
  <defs id="defs11">
    <inkscape:path-effect effect="powerclip" message="" id="path-effect14" is_visible="true" lpeversion="1" inverse="true" flatten="false" hide_clip="false" />
    <clipPath id="clip0_2640_228734">
      <rect fill="#ffffff" height="42.299999" transform="translate(0,4.7002)" width="210.157" id="rect11" x="0" y="0" />
    </clipPath>
    <clipPath clipPathUnits="userSpaceOnUse" id="clipPath13">
      <g id="g14" style="display:none">
        <path d="m 11.5383,134.19301 v -3.6646 c 0,-0.2985 -0.2322,-0.5306 -0.5306,-0.5306 H 7.34312 c -0.29848,0 -0.53062,0.2321 -0.53062,0.5306 v 3.6646 c 0,0.2985 0.23214,0.5306 0.53062,0.5306 h 3.66458 c 0.2984,0 0.5306,-0.2321 0.5306,-0.5306 z" fill="#191e3b" id="path13" />
        <path d="m 30.9593,131.04171 v -18.0575 c 0,-1.3432 -1.0778,-2.421 -2.421,-2.421 H 10.4808 c -0.3648,0 -0.58033,0.1327 -0.81247,0.3648 l -3.59824,3.6314 c -0.26531,0.2653 -0.08291,0.6633 0.31506,0.6633 H 22.7182 l -10.1315,10.1314 c -0.1824,0.1824 -0.2653,0.3648 -0.2653,0.6633 v 2.6697 c 0,0.315 0.2156,0.5306 0.5306,0.5306 h 2.6697 c 0.315,0 0.4974,-0.0829 0.6632,-0.2653 l 10.1315,-10.1315 v 16.333 c 0,0.398 0.3979,0.5804 0.6633,0.3151 l 3.6314,-3.6148 c 0.2155,-0.2322 0.3482,-0.4477 0.3482,-0.8125 z" fill="#191e3b" id="path14" />
      </g>
      <path id="lpe_path-effect14" class="powerclip" d="m -5,98.76491 h 47.756659 v 47.7732 H -5 Z m 16.5383,35.4281 v -3.6646 c 0,-0.2985 -0.2322,-0.5306 -0.5306,-0.5306 H 7.34312 c -0.29848,0 -0.53062,0.2321 -0.53062,0.5306 v 3.6646 c 0,0.2985 0.23214,0.5306 0.53062,0.5306 h 3.66458 c 0.2984,0 0.5306,-0.2321 0.5306,-0.5306 z m 19.421,-3.1513 v -18.0575 c 0,-1.3432 -1.0778,-2.421 -2.421,-2.421 H 10.4808 c -0.3648,0 -0.58033,0.1327 -0.81247,0.3648 l -3.59824,3.6314 c -0.26531,0.2653 -0.08291,0.6633 0.31506,0.6633 H 22.7182 l -10.1315,10.1314 c -0.1824,0.1824 -0.2653,0.3648 -0.2653,0.6633 v 2.6697 c 0,0.315 0.2156,0.5306 0.5306,0.5306 h 2.6697 c 0.315,0 0.4974,-0.0829 0.6632,-0.2653 l 10.1315,-10.1315 v 16.333 c 0,0.398 0.3979,0.5804 0.6633,0.3151 l 3.6314,-3.6148 c 0.2155,-0.2322 0.3482,-0.4477 0.3482,-0.8125 z" />
    </clipPath>
  </defs>
</svg>
