<?xml version="1.0" encoding="UTF-8" standalone="no"?>
<svg enable-background="new 0 0 211 47" fill="none" height="31.999998" preserveAspectRatio="xMidYMid" viewBox="0 0 21.780645 21.7971" width="32" version="1.1" id="svg1" xmlns="http://www.w3.org/2000/svg" xmlns:svg="http://www.w3.org/2000/svg">
  <path id="path1" clip-path="url(#clipPath13)" style="fill:#000000" d="m 7.7612417,103.76491 c -4.27809,0 -7.76028986578,3.48225 -7.76028986578,7.76029 v 22.23648 c 0,4.2947 3.48219986578,7.77643 7.76028986578,7.77643 H 29.995417 c 4.2946,0 7.77689,-3.48173 7.76029,-7.77643 V 111.5252 c 0,-4.27804 -3.46569,-7.76029 -7.76029,-7.76029 z" transform="matrix(0.57705202,0,0,0.57705202,-0.0034557,-59.877751)" />
  <defs id="defs11">
    <clipPath clipPathUnits="userSpaceOnUse" id="clipPath13">
      <g id="g14" style="display:none">
        <path d="m 11.5383,134.19301 v -3.6646 c 0,-0.2985 -0.2322,-0.5306 -0.5306,-0.5306 H 7.34312 c -0.29848,0 -0.53062,0.2321 -0.53062,0.5306 v 3.6646 c 0,0.2985 0.23214,0.5306 0.53062,0.5306 h 3.66458 c 0.2984,0 0.5306,-0.2321 0.5306,-0.5306 z" fill="#000000" id="path13" />
        <path d="m 30.9593,131.04171 v -18.0575 c 0,-1.3432 -1.0778,-2.421 -2.421,-2.421 H 10.4808 c -0.3648,0 -0.58033,0.1327 -0.81247,0.3648 l -3.59824,3.6314 c -0.26531,0.2653 -0.08291,0.6633 0.31506,0.6633 H 22.7182 l -10.1315,10.1314 c -0.1824,0.1824 -0.2653,0.3648 -0.2653,0.6633 v 2.6697 c 0,0.315 0.2156,0.5306 0.5306,0.5306 h 2.6697 c 0.315,0 0.4974,-0.0829 0.6632,-0.2653 l 10.1315,-10.1315 v 16.333 c 0,0.398 0.3979,0.5804 0.6633,0.3151 l 3.6314,-3.6148 c 0.2155,-0.2322 0.3482,-0.4477 0.3482,-0.8125 z" fill="#000000" id="path14" />
      </g>
      <path id="lpe_path-effect14" class="powerclip" d="m -5,98.76491 h 47.756659 v 47.7732 H -5 Z m 16.5383,35.4281 v -3.6646 c 0,-0.2985 -0.2322,-0.5306 -0.5306,-0.5306 H 7.34312 c -0.29848,0 -0.53062,0.2321 -0.53062,0.5306 v 3.6646 c 0,0.2985 0.23214,0.5306 0.53062,0.5306 h 3.66458 c 0.2984,0 0.5306,-0.2321 0.5306,-0.5306 z m 19.421,-3.1513 v -18.0575 c 0,-1.3432 -1.0778,-2.421 -2.421,-2.421 H 10.4808 c -0.3648,0 -0.58033,0.1327 -0.81247,0.3648 l -3.59824,3.6314 c -0.26531,0.2653 -0.08291,0.6633 0.31506,0.6633 H 22.7182 l -10.1315,10.1314 c -0.1824,0.1824 -0.2653,0.3648 -0.2653,0.6633 v 2.6697 c 0,0.315 0.2156,0.5306 0.5306,0.5306 h 2.6697 c 0.315,0 0.4974,-0.0829 0.6632,-0.2653 l 10.1315,-10.1315 v 16.333 c 0,0.398 0.3979,0.5804 0.6633,0.3151 l 3.6314,-3.6148 c 0.2155,-0.2322 0.3482,-0.4477 0.3482,-0.8125 z" />
    </clipPath>
  </defs>
</svg>
