<?xml version="1.0" encoding="UTF-8" standalone="no"?>
<svg version="1.0" width="32pt" height="32pt" viewBox="0 0 32 32" preserveAspectRatio="xMidYMid" id="svg4" xmlns="http://www.w3.org/2000/svg" xmlns:svg="http://www.w3.org/2000/svg">
  <defs id="defs4" />
  <g transform="matrix(0.00331263,0,0,-0.00331263,-2.6791356,34.484475)" fill="#000000" stroke="none" id="g4">
    <path d="m 1467,10403 c -4,-3 -7,-901 -7,-1995 V 6420 l 303,-381 302,-382 89,7 c 49,3 714,6 1478,6 h 1388 v 253 l -1,252 -310,378 -310,377 h -394 -395 v 700 700 h 720 c 640,0 721,2 727,15 3,9 -14,118 -38,243 l -43,227 -98,150 -98,150 87,3 c 48,2 93,8 100,14 10,8 13,64 13,242 v 232 l -327,402 -326,402 H 2900 c -785,0 -1430,-3 -1433,-7 z" id="path1" />
    <path d="m 5877,10403 c -4,-3 -7,-112 -7,-242 l 1,-236 322,-395 323,-395 120,-3 c 65,-1 124,-4 131,-7 8,-2 -39,-122 -136,-347 -250,-579 -594,-1363 -776,-1768 -94,-212 -194,-434 -220,-493 l -48,-108 20,-22 c 11,-12 156,-178 322,-370 l 302,-347 1787,2 1787,3 3,191 2,191 -333,434 -333,434 -367,5 -367,5 101,215 c 372,794 722,1597 963,2206 l 88,221 -334,414 -333,414 -1506,3 c -828,1 -1509,-1 -1512,-5 z" id="path2" />
    <path d="m 1287,5483 c -4,-3 -7,-135 -7,-292 l 1,-286 322,-360 322,-360 198,-3 197,-2 V 2842 1505 l 333,-377 332,-378 h 731 c 602,0 734,2 743,13 8,10 12,480 13,1723 l 3,1709 475,5 475,5 3,250 2,251 -298,389 -299,390 -1770,3 c -973,1 -1773,-1 -1776,-5 z" id="path3" />
    <path d="m 5734,5475 c -8,-19 -106,221 822,-2008 l 796,-1911 326,-403 325,-403 214,2 215,3 788,1940 c 659,1622 787,1943 777,1957 -7,9 -163,202 -347,427 l -335,410 -258,-2 -259,-2 -245,-580 c -135,-319 -248,-583 -252,-588 -4,-4 -232,258 -507,582 l -499,590 h -778 c -683,1 -778,-1 -783,-14 z" id="path4" />
  </g>
</svg>
