<?xml version="1.0" encoding="UTF-8" standalone="no"?>
<svg width="100%" height="100%" viewBox="0 0 32 32" version="1.1" xmlns="http://www.w3.org/2000/svg" xmlns:xlink="http://www.w3.org/1999/xlink" xml:space="preserve" xmlns:serif="http://www.serif.com/" style="fill-rule:evenodd;clip-rule:evenodd;stroke-linejoin:round;stroke-miterlimit:2;">
    <g transform="matrix(1.454485,0,0,1.454485,-1.453567,-1.453258)">
        <path d="M1.854,1.146C1.76,1.052 1.633,0.999 1.5,0.999C1.225,0.999 0.999,1.225 0.999,1.5C0.999,1.633 1.052,1.76 1.146,1.854L3.146,3.854C3.05,4.056 3,4.276 3,4.5L3,8C3,8.823 3.677,9.5 4.5,9.5L19.5,9.5C20.323,9.5 21,8.823 21,8L21,4.5C21,4.268 20.948,4.05 20.854,3.853L22.854,1.853C22.948,1.759 23,1.632 23,1.499C23,1.225 22.774,0.999 22.5,0.999C22.367,0.999 22.24,1.052 22.146,1.146L20.146,3.146C19.944,3.05 19.724,3 19.5,3L4.5,3C4.268,3 4.05,3.052 3.853,3.146L1.853,1.146L1.854,1.146ZM7.5,8C8.328,8 9,7.216 9,6.25C9,5.284 8.328,4.5 7.5,4.5C6.672,4.5 6,5.284 6,6.25C6,7.216 6.672,8 7.5,8ZM18,6.25C18,7.216 17.328,8 16.5,8C15.672,8 15,7.216 15,6.25C15,5.284 15.672,4.5 16.5,4.5C17.328,4.5 18,5.284 18,6.25ZM4.5,10.5C3.677,10.5 3,11.177 3,12L3,21.5C3,22.323 3.677,23 4.5,23L19.5,23C20.323,23 21,22.323 21,21.5L21,12C21,11.177 20.323,10.5 19.5,10.5L4.5,10.5ZM8,16.75C8,14.556 9.806,12.75 12,12.75C14.194,12.75 16,14.556 16,16.75C16,18.944 14.194,20.75 12,20.75C9.806,20.75 8,18.944 8,16.75ZM12,11.75C9.257,11.75 7,14.007 7,16.75C7,19.493 9.257,21.75 12,21.75C14.743,21.75 17,19.493 17,16.75C17,14.007 14.743,11.75 12,11.75ZM12,18.5C12,18.5 12,18.5 12,18.5C12.96,18.5 13.75,17.71 13.75,16.75C13.75,15.79 12.96,15 12,15C11.428,15 10.891,15.281 10.564,15.75L9.437,15.75C9.848,14.696 10.869,13.999 12,13.999C13.509,13.999 14.751,15.241 14.751,16.75C14.751,18.259 13.509,19.501 12,19.501C10.869,19.501 9.848,18.804 9.437,17.75L10.564,17.75C10.88,18.203 11.405,18.5 12,18.5Z"/>
    </g>
</svg>
