<?xml version="1.0" encoding="UTF-8"?><svg id="a" xmlns="http://www.w3.org/2000/svg" viewBox="0 0 80 80"><defs><style>.b{fill:none;}.b,.c{stroke-width:0px;}</style></defs><path class="c" d="m80,40C80,17.91,62.09,0,40,0S0,17.91,0,40c0,18.76,12.92,34.5,30.34,38.82v-26.6h-8.25v-12.22h8.25v-5.27c0-13.61,6.16-19.92,19.53-19.92,2.53,0,6.91.5,8.7.99v11.08c-.94-.1-2.58-.15-4.62-.15-6.56,0-9.09,2.48-9.09,8.94v4.32h13.07l-2.24,12.22h-10.82v27.48c19.8-2.39,35.15-19.26,35.15-39.71Z"/><path class="b" d="m55.67,52.22l2.24-12.22h-13.07v-4.32c0-6.46,2.53-8.94,9.09-8.94,2.04,0,3.68.05,4.62.15v-11.08c-1.79-.5-6.16-.99-8.7-.99-13.37,0-19.53,6.31-19.53,19.92v5.27h-8.25v12.22h8.25v26.6c3.09.77,6.33,1.18,9.66,1.18,1.64,0,3.26-.1,4.85-.29v-27.48s10.82,0,10.82,0Z"/></svg>