<?xml version="1.0" encoding="utf-8"?>
<!-- Generator: Adobe Illustrator 23.0.6, SVG Export Plug-In . SVG Version: 6.00 Build 0)  -->
<svg version="1.1" id="Layer_1" xmlns="http://www.w3.org/2000/svg" xmlns:xlink="http://www.w3.org/1999/xlink" x="0px" y="0px"
	 viewBox="0 0 300 120" style="enable-background:new 0 0 300 120;" xml:space="preserve">
<g>
	<g>
		<g id="FANDANGO_1_">
			<g>
				<path d="M284.5,44.8c-8.9,0-15.5,6.2-15.5,15s6.6,15,15.5,15s15.5-6.2,15.5-15S293.4,44.8,284.5,44.8z M293.1,60.3
					c-0.1,2.1-1,3.8-2.3,5.3c-0.1,0.1-0.3,0.3-0.5,0.5c-1.5,1.4-3.6,2.3-5.8,2.3c-4.7,0-8.6-3.8-8.6-8.6s3.8-8.6,8.6-8.6
					c4.5,0,8.2,3.6,8.5,8L293.1,60.3L293.1,60.3z"/>
				<path d="M252.2,57.6v6.6h6.5v2.3c-1,0.9-3.2,1.7-5.3,1.7c-4.7,0-8.1-3.6-8.1-8.4s3.4-8.4,8.1-8.4c2.8,0,5.1,1.8,6.2,3.7l6.2-3.3
					c-2-3.6-5.9-7.1-12.4-7.1c-8.6,0-15.7,5.8-15.7,15s7.1,15,15.7,15c4.9,0,8.8-1.8,11.8-4.6c0.1-0.1,0.1-0.1,0.2-0.2
					c0.5-0.5,0.8-1.2,0.8-2v-0.4v-9.9H252.2z"/>
				<path d="M230.3,45.3h-0.5c-1.6,0.1-2.9,1.4-2.9,3.1v0.3v12.6l-11.7-16h-7.7v29h7.4V57.5l12.3,16.8h7.2v-29H230.3z"/>
				<path d="M193.6,45.3h-9.5l-10.9,29h8.5l1.4-4.2h11.4l0.8,2.2l0,0c0.5,1.1,1.5,1.9,2.8,2h0.4h6L193.6,45.3z M185.2,63.6l3.7-10.9
					l3.6,10.9H185.2z"/>
				<path d="M158.4,45.3h-12.2v25.5v0.4c0.1,1.6,1.4,3,3.2,3h0.2h8.9c9.1,0,15.7-5.5,15.7-14.5C174.1,50.8,167.5,45.3,158.4,45.3z
					 M158.4,67.7h-4.7v-16h4.7c5.3,0,8,3.5,8,7.9C166.4,64,163.5,67.7,158.4,67.7z"/>
				<path d="M137,45.3h-0.4c-1.6,0.1-2.9,1.4-3,3v0.4v12.5l-11.7-16h-7.7v29h7.5V57.5l12.3,16.8h7.2v-29H137z"/>
				<path d="M100.5,45.3h-9.7L80,74.3h8.7l1.4-4.2h11.4l0.8,2.2l0,0c0.5,1.1,1.5,1.9,2.8,2h0.4h6L100.5,45.3z M92.1,63.6l3.7-10.9
					l3.6,10.9H92.1z"/>
				<path d="M82.9,51.6v-6.4H60.6v29h7.9V63.9h7.2h0.7c1.4-0.1,2.4-1.3,2.5-2.7v-0.3v-3.6H68.6v-5.8L82.9,51.6L82.9,51.6z"/>
			</g>
		</g>
	</g>
	<path d="M45.3,60.4c-2.3-0.5-4.3-2.2-4.9-4.7c-0.7-2.5,0.2-4.9,2-6.5l-3.7-13.8L0,45.8l3.7,13.8C6,60.1,8,61.8,8.6,64.2
		c0.7,2.5-0.2,4.9-2,6.5l3.7,13.8L49,74.2L45.3,60.4z M23.4,78.7l-11.5,3.1L9.1,71.3c1.7-2.1,2.4-4.9,1.6-7.7
		C10,60.9,8,58.8,5.5,57.8L2.6,47.3l23-6.2l2.3,8.6l-11.5,3.1l2.3,8.6l11.5-3.1l2.3,8.6l-11.5,3.1L23.4,78.7z"/>
</g>
</svg>
