<?xml version="1.0" encoding="UTF-8" standalone="no"?>
<!-- Generator: Adobe Illustrator 23.0.6, SVG Export Plug-In . SVG Version: 6.00 Build 0)  -->

<svg version="1.1" id="Layer_1" x="0px" y="0px" viewBox="0 0 32 32" xml:space="preserve" sodipodi:docname="fandango.svg" width="32" height="32" inkscape:version="1.4-beta2 (9aaf4f34, 2024-07-30)" xmlns:inkscape="http://www.inkscape.org/namespaces/inkscape" xmlns:sodipodi="http://sodipodi.sourceforge.net/DTD/sodipodi-0.dtd" xmlns="http://www.w3.org/2000/svg" xmlns:svg="http://www.w3.org/2000/svg"><defs id="defs10" /><sodipodi:namedview id="namedview10" pagecolor="#ffffff" bordercolor="#000000" borderopacity="0.25" inkscape:showpageshadow="2" inkscape:pageopacity="0.0" inkscape:pagecheckerboard="0" inkscape:deskcolor="#d1d1d1" inkscape:zoom="2.5326497" inkscape:cx="-10.660771" inkscape:cy="44.814724" inkscape:window-width="1440" inkscape:window-height="872" inkscape:window-x="0" inkscape:window-y="0" inkscape:window-maximized="1" inkscape:current-layer="Layer_1" />
<path d="M 29.556008,16.293279 C 28.057026,15.967413 26.753564,14.85947 26.362525,13.230143 25.906313,11.600815 26.492871,10.03666 27.665987,8.99389 L 25.254583,0 0.0325865,6.778004 l 2.4114053,8.99389 c 1.4989817,0.325866 2.802444,1.433809 3.1934827,2.997963 0.4562118,1.629328 -0.1303462,3.193483 -1.3034623,4.236253 L 6.7454175,32 31.967413,25.287169 Z M 15.283096,28.219959 7.7881873,30.240326 5.9633401,23.397149 C 7.071283,22.028513 7.5274949,20.203666 7.0061099,18.378819 6.5498981,16.619145 5.2464358,15.250509 3.6171079,14.598778 L 1.7270875,7.755601 16.716905,3.714868 l 1.498981,5.604888 -7.494908,2.020366 1.498982,5.604888 7.494908,-2.020366 1.498982,5.604888 -7.494909,2.020366 z" id="path9" style="fill:#000000;stroke-width:0.651731" />
</svg>
