<?xml version="1.0" encoding="UTF-8"?><svg id="a" xmlns="http://www.w3.org/2000/svg" viewBox="0 0 88.83 80"><defs><style>.b{stroke-width:0px;}</style></defs><path class="b" d="m51.29,2.89c-3.68-3.76-9.92-3.92-13.68-.08l-.08.08L2.82,38.25c-3.76,3.92-3.76,10.08,0,14.08l24.8,25.2c1.68,1.52,4,2.48,6.4,2.48h20.8c2.64,0,5.12-1.12,6.88-2.88l24.32-24.72c3.76-3.92,3.76-10.08,0-14.08L51.29,2.89h0Zm-.96,64.63l-3.52,3.52c-.32.32-.64.4-.96.4h-3.04c-.32,0-.72-.08-.88-.4l-3.52-3.6c-.48-.56-.48-1.36,0-2l4.96-4.96c.48-.48,1.36-.56,1.92,0h0l4.96,4.96c.64.56.64,1.44.08,2.08Zm0-21.2l-13.92,14.08c-.32.32-.64.4-.96.4h-3.04c-.32,0-.72-.08-.88-.32l-3.52-3.6c-.48-.56-.48-1.52,0-2l15.36-15.6c.48-.48,1.36-.56,1.92,0h0l4.96,4.96c.64.64.64,1.44.08,2.08h0Zm0-21.2l-24.16,24.72c-.32.32-.64.4-.96.4h-2.96c-.32,0-.72-.08-.88-.32l-3.52-3.6c-.48-.56-.48-1.36,0-2l25.68-26.16c.48-.48,1.36-.56,1.92,0h0l4.96,4.96c.48.56.48,1.52-.08,2Z"/></svg>