<?xml version="1.0" encoding="UTF-8" standalone="no"?>
<!-- Created with Inkscape (http://www.inkscape.org/) -->

<svg id="svg2" xml:space="preserve" height="32" width="32" version="1.0" xmlns="http://www.w3.org/2000/svg" xmlns:svg="http://www.w3.org/2000/svg"><defs id="defs1" /><path d="M 0,9.78e-4 V 31.999022 H 32 V 9.78e-4 Z m 3.508426,4.542009 h 12.071603 l 0.08606,3.186812 H 15.07064 C 14.560795,6.114961 14.007573,5.605072 11.180802,5.605072 H 8.990411 c -0.657202,0 -0.805854,0.148596 -0.805854,0.744101 v 4.57079 h 1.078291 c 2.25344,0 2.742662,-0.405833 3.018598,-1.91516 h 0.552698 v 5.101971 H 12.281448 C 11.984589,12.406099 11.133593,11.982327 9.26285,11.982327 H 8.184559 v 4.717486 c 0,1.511116 0.402949,1.679217 2.124727,1.743596 v 0.552697 H 3.465675 v -0.552697 c 1.423668,-0.06438 1.827422,-0.23248 1.827422,-1.743596 V 6.839 c 0,-1.511115 -0.403565,-1.681004 -1.784671,-1.743595 z m 13.07389,0 h 12.668449 l 0.293393,3.188488 H 28.818219 C 28.355227,6.170287 27.672822,5.605072 26.147221,5.605072 h -1.78467 v 11.094741 c 0,1.511116 0.403508,1.679217 2.040342,1.743596 v 0.552697 h -6.971587 v -0.552697 c 1.636119,-0.06438 2.039783,-0.23248 2.039783,-1.743596 V 5.605072 H 19.68558 c -1.524886,0 -2.207011,0.565215 -2.670718,2.126403 h -0.726498 z" style="fill:#000000;stroke-width:0.143064" id="path1" /></svg>
