<?xml version="1.0" encoding="UTF-8" standalone="no"?>
<svg id="a" viewBox="0 0 32 32" version="1.1" sodipodi:docname="firefox-addons.svg" width="32" height="32" inkscape:version="1.4-beta2 (9aaf4f34, 2024-07-30)" xmlns:inkscape="http://www.inkscape.org/namespaces/inkscape" xmlns:sodipodi="http://sodipodi.sourceforge.net/DTD/sodipodi-0.dtd" xmlns="http://www.w3.org/2000/svg" xmlns:svg="http://www.w3.org/2000/svg">
  <defs id="defs2" />
  <sodipodi:namedview id="namedview2" pagecolor="#ffffff" bordercolor="#000000" borderopacity="0.25" inkscape:showpageshadow="2" inkscape:pageopacity="0.0" inkscape:pagecheckerboard="0" inkscape:deskcolor="#d1d1d1" inkscape:zoom="0.8739207" inkscape:cx="175.64523" inkscape:cy="-2.8606715" inkscape:window-width="1440" inkscape:window-height="790" inkscape:window-x="0" inkscape:window-y="0" inkscape:window-maximized="1" inkscape:current-layer="a" />
  <path d="M 11.788985,9.7097141 Z M 8.0541281,7.8400001 Z M 30.385556,10.724571 c -0.672,-1.6182849 -2.038857,-3.3645709 -3.108571,-3.9222849 0.873143,1.709714 1.380571,3.4285709 1.568,4.7085709 v 0.02743 C 27.094128,7.168 24.122699,5.408 21.695271,1.5725715 c -0.118858,-0.192 -0.242286,-0.3885714 -0.365715,-0.58971435 -0.064,-0.1051428 -0.114285,-0.2102857 -0.173714,-0.3245714 -0.100571,-0.192 -0.173714,-0.3977143 -0.228571,-0.6171428 0,-0.018286 -0.01371,-0.036571 -0.03657,-0.041143 h -0.03657 l -0.01372,0.013714 c 0,0 0,0 0,-0.013714 C 17.388983,2.0205714 15.967269,5.558857 15.596983,7.8034291 c -1.069714,0.064 -2.107429,0.333714 -3.072,0.781714 -0.182857,0.09143 -0.269714,0.301714 -0.201143,0.493714 0.07771,0.214857 0.32,0.324572 0.530286,0.228572 0.841143,-0.397715 1.746285,-0.630858 2.674285,-0.690286 l 0.08686,-0.01371 c 0.128,0 0.256,-0.01371 0.384,-0.01371 0.749714,0 1.504,0.100572 2.221714,0.310857 l 0.128,0.03657 c 0.118857,0.03657 0.237714,0.07771 0.361143,0.118857 0.08229,0.032 0.173714,0.064 0.256,0.100571 0.06857,0.02286 0.137143,0.05486 0.205714,0.08229 0.109714,0.04571 0.210286,0.100572 0.315429,0.150857 l 0.141714,0.06857 c 0.105143,0.05029 0.205714,0.109714 0.301714,0.169143 0.064,0.03657 0.128,0.07314 0.187429,0.114285 1.12,0.6948569 2.057143,1.6548569 2.706285,2.8022859 -0.822857,-0.576 -2.308571,-1.156571 -3.730285,-0.905143 5.572571,2.788572 4.073143,12.379429 -3.652572,12.022857 -0.685714,-0.02286 -1.366857,-0.155428 -2.016,-0.388571 -0.155428,-0.05486 -0.310857,-0.118857 -0.457143,-0.182857 -0.08686,-0.04114 -0.178285,-0.08229 -0.265142,-0.123429 -1.897143,-0.978286 -3.456,-2.829714 -3.6525715,-5.074286 0,0 0.7177143,-2.665142 5.1199995,-2.665142 0.48,0 1.837714,-1.330286 1.869714,-1.714286 -0.01371,-0.128 -2.706285,-1.197714 -3.757714,-2.235429 -0.562286,-0.553152 -0.822857,-0.818294 -1.065143,-1.019437 -0.128,-0.109715 -0.265143,-0.210286 -0.402285,-0.3017149 -0.352,-1.234285 -0.365714,-2.541714 -0.04114,-3.785142 -1.5954315,0.726857 -2.8297172,1.869714 -3.7257172,2.884571 h -0.00914 C 6.4221281,8.2742861 6.4724138,5.714286 6.5044138,5.174857 c 0,-0.03657 -0.4571428,0.233143 -0.5165714,0.2697141 -0.5394286,0.388572 -1.0514286,0.818286 -1.5177143,1.298286 -0.5302857,0.534857 -1.0102857,1.115429 -1.4537143,1.737143 -0.992,1.408 -1.7051428,3.0079999 -2.07542856,4.6902859 0,0.01828 -0.14628572,0.653714 -0.25142857,1.430857 -0.0182857,0.118857 -0.0365714,0.242286 -0.0502857,0.365714 -0.0457143,0.297143 -0.0731429,0.594286 -0.0868571,0.886857 v 0.04572 c -0.0137143,0.173709 -0.0228571,0.342852 -0.0365714,0.516566 v 0.07771 C 0.51584238,25.056 7.4598424,32 16.022128,32 c 7.666285,0 14.034285,-5.572571 15.282285,-12.877714 0.02743,-0.201143 0.04572,-0.397715 0.06857,-0.598857 0.310857,-2.656 -0.032,-5.453715 -1.005714,-7.785143 v 0 -0.01372 z" style="stroke-width:0px" id="path1" />
</svg>
