<?xml version="1.0" encoding="UTF-8"?><svg id="a" xmlns="http://www.w3.org/2000/svg" viewBox="0 0 274.57 80"><defs><style>.b{stroke-width:0px;}</style></defs><path class="b" d="m28.12,24.29s.01,0,0,0Zm-9.34-4.67s.01,0,0,0Zm55.84,7.21c-1.68-4.05-5.1-8.41-7.77-9.81,2.18,4.27,3.45,8.57,3.92,11.77v.07c-4.38-10.93-11.81-15.33-17.88-24.92-.3-.48-.61-.97-.91-1.48-.16-.26-.29-.53-.43-.81-.25-.48-.43-1-.57-1.54,0-.05-.04-.09-.09-.1h-.09s-.03.03-.03.03c0,0,0-.01.01-.03-8.63,5.05-12.19,13.9-13.11,19.51-2.67.16-5.27.83-7.68,1.96-.46.23-.67.76-.5,1.23.19.54.8.81,1.33.57,2.1-.99,4.37-1.58,6.69-1.73l.22-.03c.32-.01.64-.03.96-.03,1.88-.01,3.76.25,5.56.78l.32.09c.3.09.59.19.9.3.21.08.43.16.64.25.17.06.34.14.51.21.27.12.53.25.79.38l.35.17c.26.13.52.28.76.42.16.09.32.18.47.29,2.8,1.74,5.14,4.14,6.77,7.01-2.06-1.44-5.77-2.89-9.33-2.26,13.94,6.97,10.19,30.96-9.13,30.06-1.72-.06-3.42-.39-5.04-.97-.39-.14-.78-.3-1.14-.46-.22-.1-.45-.21-.66-.31-4.74-2.45-8.64-7.08-9.13-12.69,0,0,1.79-6.66,12.8-6.66,1.2,0,4.6-3.33,4.67-4.29-.03-.32-6.77-3-9.4-5.59-1.41-1.38-2.06-2.05-2.66-2.55-.32-.28-.66-.53-1.01-.76-.88-3.09-.92-6.36-.1-9.47-3.99,1.82-7.08,4.68-9.32,7.21h-.02c-1.54-1.95-1.42-8.36-1.34-9.7-.01-.09-1.14.58-1.29.68-1.35.97-2.63,2.05-3.79,3.25-1.33,1.34-2.53,2.79-3.63,4.34-2.48,3.52-4.26,7.52-5.19,11.73-.01.05-.37,1.63-.63,3.58-.05.3-.09.61-.13.91-.11.74-.18,1.49-.22,2.22v.12c-.04.43-.06.86-.09,1.29v.19c0,21.41,17.36,38.77,38.77,38.77,19.17,0,35.09-13.93,38.21-32.2.07-.5.12-1,.17-1.5.78-6.64-.08-13.64-2.51-19.47h0Z"/><path class="b" d="m94.75,15.12h7.79v2.11h-5.56v2.85h5.56v2.09h-5.56v4.62h-2.23v-11.67Zm10.43-.81c.69-.02,1.27.52,1.29,1.21,0,.03,0,.06,0,.1-.05.72-.68,1.26-1.4,1.2-.64-.05-1.15-.56-1.2-1.2,0-.72.57-1.3,1.28-1.31,0,0,.02,0,.03,0Zm-1.08,3.84h2.17v8.64h-2.17v-8.64Zm8.58,2.4c-.31-.24-.68-.38-1.07-.38-.89,0-1.4.58-1.4,1.84v4.79h-2.17v-8.64h2.09v1.24c.33-.82,1.14-1.33,2.02-1.29.52,0,1.02.16,1.45.45l-.91,1.99Zm.91,1.96c-.07-2.43,1.85-4.46,4.28-4.53.05,0,.1,0,.15,0,2.34-.1,4.32,1.72,4.42,4.07,0,.11,0,.22,0,.32v.9h-6.71c.22,1.12,1.24,1.89,2.38,1.81.91.04,1.76-.46,2.17-1.28l1.84,1.1c-.88,1.36-2.42,2.14-4.04,2.05-2.31.18-4.33-1.54-4.52-3.85-.02-.2-.02-.4,0-.59h.02Zm2.17-.97h4.53c-.23-1.06-1.21-1.79-2.29-1.71-1.06-.04-2,.67-2.24,1.71h0Zm7.24-3.39h1.54v-.43c0-2.34.99-3.32,3.16-3.32h.77v1.9h-.62c-1.02,0-1.24.35-1.24,1.45v.43h1.87v1.95h-1.82v6.66h-2.11v-6.66h-1.54v-1.98Zm5.88,4.34c-.04-2.44,1.9-4.45,4.34-4.49.05,0,.11,0,.16,0,2.48,0,4.49,2.01,4.49,4.49s-2.01,4.49-4.49,4.49c-2.4.11-4.42-1.75-4.53-4.15,0-.13,0-.26,0-.38l.03.04Zm6.87,0c.07-1.3-.93-2.42-2.23-2.49-1.3-.07-2.42.93-2.49,2.23,0,.09,0,.17,0,.26-.07,1.3.93,2.42,2.23,2.49s2.42-.93,2.49-2.23c0-.09,0-.17,0-.26Zm5.1-.09l-3.11-4.22h2.54l1.84,2.66,1.88-2.66h2.54l-3.16,4.2,3.34,4.41h-2.57l-2.06-2.81-1.99,2.81h-2.57l3.33-4.39Zm-36.75,10.5l-10.7,28.34h5.63l1.87-5.17h11.84l1.87,5.17h5.63l-10.72-28.34h-5.42Zm-1.37,18.21l4.12-11.26,4.07,11.26h-8.19Zm28.77-18.21h-9.16v28.34h9.26c8.46,0,14.68-6.09,14.68-14.17s-5.77-14.18-14.78-14.18Zm-.23,23.22h-3.42v-18.13h3.26c6.21,0,9.63,3.89,9.63,9.09s-3.73,9.05-9.47,9.05Zm27.5-23.22h-9.18v28.34h9.28c8.47,0,14.7-6.09,14.7-14.19s-5.79-14.15-14.82-14.15h.01Zm-.23,23.22h-3.42v-18.13h3.26c6.22,0,9.63,3.89,9.63,9.09-.01,5.09-3.74,9.05-9.49,9.05h.01Zm18.25-6.74h14.36v-4.62h-14.38v4.62Zm31.67-16.87c-8.04,0-14.56,6.51-14.57,14.55,0,8.04,6.51,14.56,14.55,14.57s14.56-6.51,14.57-14.55c0,0,0-.02,0-.03.04-7.99-6.41-14.5-14.41-14.54-.05,0-.1,0-.15,0h0Zm0,23.72c-5.07.08-9.24-3.97-9.32-9.04-.08-5.07,3.97-9.24,9.04-9.32,5.07-.08,9.24,3.97,9.32,9.04,0,.05,0,.09,0,.14.09,4.98-3.87,9.09-8.85,9.18-.07,0-.13,0-.2,0h0Zm36.1-4.04l-12.42-19.3h-5.87v28.34h5.32v-19.91l12.82,19.91h5.43v-28.34h-5.28v19.3Zm20.66-7.96c-3.54-.81-6.37-1.24-6.37-3.53,0-1.86,1.32-3.38,4.39-3.38,2.7-.13,5.25,1.23,6.64,3.54l4.46-3.5c-2.89-3.18-6.01-4.93-11.02-4.93-5.9,0-10.06,3.73-10.06,8.38,0,5.75,4.74,7.11,8.97,8,3.92.9,6.64,1.45,6.64,4.08,0,2.06-1.59,3.53-4.66,3.53-3.38,0-5.9-1.51-7.76-4.46l-4.78,3.81c2.68,3.42,6.4,5.79,12.5,5.79s10.41-4.03,10.41-8.89c0-6.07-5.01-7.47-9.36-8.4v-.04Z"/></svg>