<?xml version="1.0" encoding="UTF-8"?><svg id="a" xmlns="http://www.w3.org/2000/svg" viewBox="0 0 240.22 80"><path d="m24.62,26.24s0,0,0,0Zm-8.17-4.09s0,0,0,0Zm48.85,6.31c-1.47-3.54-4.46-7.36-6.8-8.58,1.91,3.74,3.02,7.5,3.43,10.3v.06c-3.83-9.56-10.33-13.41-15.64-21.8-.26-.42-.53-.85-.8-1.29-.14-.23-.25-.46-.38-.71-.22-.42-.38-.87-.5-1.35,0-.04-.03-.08-.08-.09h-.08l-.03.03s0,0,0-.03c-7.55,4.42-10.66,12.16-11.47,17.07-2.34.14-4.61.73-6.72,1.71-.4.2-.59.66-.44,1.08.17.47.7.71,1.16.5,1.84-.87,3.82-1.38,5.85-1.51l.19-.03c.28,0,.56-.03.84-.03,1.64,0,3.29.22,4.86.68l.28.08c.26.08.52.17.79.26.18.07.38.14.56.22.15.05.3.12.45.18.24.1.46.22.69.33l.31.15c.23.11.45.24.66.37.14.08.28.16.41.25,2.45,1.52,4.5,3.62,5.92,6.13-1.8-1.26-5.05-2.53-8.16-1.98,12.19,6.1,8.91,27.08-7.99,26.3-1.5-.05-2.99-.34-4.41-.85-.34-.12-.68-.26-1-.4-.19-.09-.39-.18-.58-.27-4.15-2.14-7.56-6.19-7.99-11.1,0,0,1.57-5.83,11.2-5.83,1.05,0,4.02-2.91,4.09-3.75-.03-.28-5.92-2.62-8.22-4.89-1.23-1.21-1.8-1.79-2.33-2.23-.28-.24-.58-.46-.88-.66-.77-2.7-.8-5.56-.09-8.28-3.49,1.59-6.19,4.09-8.15,6.31h-.02c-1.35-1.71-1.24-7.31-1.17-8.49,0-.08-1,.51-1.13.59-1.18.85-2.3,1.79-3.32,2.84-1.16,1.17-2.21,2.44-3.18,3.8-2.17,3.08-3.73,6.58-4.54,10.26,0,.04-.32,1.43-.55,3.13-.04.26-.08.53-.11.8-.1.65-.16,1.3-.19,1.94v.1c-.03.38-.05.75-.08,1.13v.17c0,18.73,15.19,33.92,33.92,33.92,16.77,0,30.7-12.19,33.43-28.17.06-.44.1-.87.15-1.31.68-5.81-.07-11.93-2.2-17.03h0v-.03Z" style="stroke-width:0px;"/><path d="m82.9,18.22h6.81v1.85h-4.86v2.49h4.86v1.83h-4.86v4.04h-1.95v-10.21Zm9.12-.71c.6-.02,1.11.45,1.13,1.06v.09c-.04.63-.59,1.1-1.22,1.05-.56-.04-1.01-.49-1.05-1.05,0-.63.5-1.14,1.12-1.15h.03Zm-.94,3.36h1.9v7.56h-1.9v-7.56Zm7.51,2.1c-.27-.21-.59-.33-.94-.33-.78,0-1.22.51-1.22,1.61v4.19h-1.9v-7.56h1.83v1.08c.29-.72,1-1.16,1.77-1.13.45,0,.89.14,1.27.39l-.8,1.74h0Zm.8,1.71c-.06-2.13,1.62-3.9,3.74-3.96h.13c2.05-.09,3.78,1.5,3.87,3.56v1.07h-5.87c.19.98,1.08,1.65,2.08,1.58.8.03,1.54-.4,1.9-1.12l1.61.96c-.77,1.19-2.12,1.87-3.53,1.79-2.02.16-3.79-1.35-3.95-3.37-.02-.17-.02-.35,0-.52h.03Zm1.9-.85h3.96c-.2-.93-1.06-1.57-2-1.5-.93-.03-1.75.59-1.96,1.5h0Zm6.33-2.97h1.35v-.38c0-2.05.87-2.9,2.76-2.9h.67v1.66h-.54c-.89,0-1.08.31-1.08,1.27v.38h1.64v1.71h-1.59v5.83h-1.85v-5.83h-1.35v-1.73h0Zm5.14,3.8c-.03-2.13,1.66-3.89,3.8-3.93h.14c2.17,0,3.93,1.76,3.93,3.93s-1.76,3.93-3.93,3.93c-2.1.1-3.87-1.53-3.96-3.63v-.33s.03.03.03.03Zm6.01,0c.06-1.14-.81-2.12-1.95-2.18s-2.12.81-2.18,1.95v.23c-.06,1.14.81,2.12,1.95,2.18s2.12-.81,2.18-1.95v-.23Zm4.46-.08l-2.72-3.69h2.22l1.61,2.33,1.64-2.33h2.22l-2.76,3.67,2.92,3.86h-2.25l-1.8-2.46-1.74,2.46h-2.25l2.91-3.84h0Zm-32.15,9.19l-9.36,24.79h4.93l1.64-4.52h10.36l1.64,4.52h4.93l-9.38-24.79s-4.74,0-4.74,0Zm-1.2,15.93l3.6-9.85,3.56,9.85h-7.16Zm25.17-15.93h-8.01v24.79h8.1c7.4,0,12.84-5.33,12.84-12.4s-5.05-12.4-12.93-12.4h0Zm-.2,20.31h-2.99v-15.86h2.85c5.43,0,8.42,3.4,8.42,7.95s-3.26,7.92-8.28,7.92h0Zm24.06-20.31h-8.03v24.79h8.12c7.41,0,12.86-5.33,12.86-12.41s-5.06-12.38-12.96-12.38h.02Zm-.2,20.31h-2.99v-15.86h2.85c5.44,0,8.42,3.4,8.42,7.95,0,4.45-3.27,7.92-8.3,7.92h.02Zm15.96-5.9h12.56v-4.04h-12.58v4.04h.02Zm27.7-14.76c-7.03,0-12.74,5.69-12.75,12.73,0,7.03,5.69,12.74,12.73,12.75s12.74-5.69,12.75-12.73v-.03c.03-6.99-5.61-12.68-12.61-12.72h-.13,0Zm0,20.75c-4.44.07-8.08-3.47-8.15-7.91-.07-4.44,3.47-8.08,7.91-8.15,4.44-.07,8.08,3.47,8.15,7.91v.12c.08,4.36-3.39,7.95-7.74,8.03h-.17,0Zm31.58-3.53l-10.86-16.88h-5.13v24.79h4.65v-17.42l11.21,17.42h4.75v-24.79h-4.62v16.88Zm18.07-6.96c-3.1-.71-5.57-1.08-5.57-3.09,0-1.63,1.15-2.96,3.84-2.96,2.36-.11,4.59,1.08,5.81,3.1l3.9-3.06c-2.53-2.78-5.26-4.31-9.64-4.31-5.16,0-8.8,3.26-8.8,7.33,0,5.03,4.15,6.22,7.85,7,3.43.79,5.81,1.27,5.81,3.57,0,1.8-1.39,3.09-4.08,3.09-2.96,0-5.16-1.32-6.79-3.9l-4.18,3.33c2.34,2.99,5.6,5.06,10.93,5.06s9.11-3.53,9.11-7.78c0-5.31-4.38-6.53-8.19-7.35v-.03h0Z" style="stroke-width:0px;"/></svg>