<svg version="1.1" width="32" height="32" viewBox="0 0 32 32" xmlns:xlink="http://www.w3.org/1999/xlink" xmlns="http://www.w3.org/2000/svg" xmlns:svg="http://www.w3.org/2000/svg">
  <g style="fill:#000" transform="matrix(0.05411073,0,0,0.05411073,-7.087281,-1.3154552)">
    <path id="path2" d="m 0,0 c -13.279,-8.143 -22.948,-21.848 -26.23,-37.07 -2.325,-9.705 -1.526,-19.738 -1.659,-29.611 -11.053,-0.018 -22.106,0 -33.159,-0.008 0,-15.897 -0.017,-31.793 0.009,-47.681 11.053,0.009 22.097,-0.017 33.15,0.018 -0.045,-42.925 0.062,-85.841 -0.053,-128.767 19.568,-0.194 39.155,-0.097 58.733,-0.044 -0.054,42.934 -0.027,85.859 -0.019,128.793 18.549,-0.008 37.098,0.009 55.646,0 0.009,-42.951 0.009,-85.895 0.009,-128.837 19.401,-0.019 38.81,-0.019 58.219,0 -0.01,58.839 0,117.669 0,176.508 -37.967,0.027 -75.925,0 -113.882,0.018 0.381,6.831 -1.26,14.211 2.173,20.509 3.495,6.52 11.097,9.696 18.221,9.829 11.753,0.089 23.515,0 35.269,0.044 -0.071,15.914 0.142,31.828 -0.106,47.734 -15.267,-0.151 -30.542,0 -45.808,-0.072 C 26.382,10.982 12.02,7.656 0,0 m 38.561,96.087 h 13.075 c 29.947,-0.745 59.78,-7.389 87.022,-19.905 45.87,-20.793 84.227,-57.766 106.537,-102.927 14.3,-28.085 21.812,-59.345 23.304,-90.756 v -13.12 c -0.879,-36.067 -10.451,-71.977 -28.246,-103.397 -16.055,-28.776 -38.702,-53.809 -65.598,-72.828 -27.454,-19.435 -59.38,-32.547 -92.618,-37.789 -8.969,-1.552 -18.062,-2.137 -27.127,-2.812 H 41.843 c -40.876,0.923 -81.459,13.244 -115.709,35.625 -22.203,14.397 -41.79,32.821 -57.562,54.067 -20.952,28.191 -35.119,61.429 -40.69,96.131 -1.623,9.173 -2.235,18.478 -2.918,27.757 v 13.119 c 0.86,35.43 10.086,70.708 27.304,101.712 24.501,44.948 65.128,80.811 112.755,99.564 23.374,9.43 48.407,14.3 73.538,15.559" style="fill-opacity:1;fill-rule:nonzero;stroke:none" transform="matrix(1.3333333,0,0,-1.3333333,364.35867,152.42707)" clip-path="url(#clipPath3)" />
  </g>
</svg>
