<?xml version="1.0" encoding="UTF-8"?><svg id="a" xmlns="http://www.w3.org/2000/svg" viewBox="0 0 170 80"><defs><style>.b{stroke-width:0px;}</style></defs><polygon class="b" points="64.18 25.88 58.06 46.28 51.95 25.69 40.49 25.69 53.1 60.83 63.03 60.83 75.65 25.88 64.18 25.88"/><path class="b" d="m17.76,23.58c0-2.29,1.7-3.82,4.2-3.82h6.69v-9.55h-8.41c-8.21,0-13.75,5.16-13.75,12.6v2.87H0v9.55h6.49v25.59h11.27v-25.59h10.89v25.59h11.3V25.69h-22.18v-2.11Z"/><path class="b" d="m90.37,25.11c-12.41,0-17.38,9.74-17.38,17.95s5.73,18.15,18.15,18.15c7.45,0,13.57-3.63,16.05-9.74l-10.12-2.86c-.79,2.1-2.89,3.44-5.95,3.44-4.01,0-6.49-2.11-7.06-6.11h23.68c.2-1.14.28-2.29.22-3.44,0-7.45-4.42-17.38-17.58-17.38Zm-6.32,14.13c.76-4.2,2.86-5.73,6.49-5.73,0,0,.01,0,.02,0,3.32-.15,6.13,2.41,6.28,5.73h-12.79Z"/><path class="b" d="m156.05,25.69h-3.82c-3.82,0-6.3,1.14-8.21,5.35v-5.35h-13.95c-3.82,0-6.3,1.14-8.21,5.35v-5.35h-11.46v35.14h11.47v-17.76c0-4.96,2.12-7.83,5.95-7.83h4.78v25.59h11.36v-17.76c0-4.96,2.13-7.83,5.95-7.83h5.95l.2-9.55Z"/><path class="b" d="m162.93,47.64c-3.9,0-7.06,3.16-7.07,7.05.05,3.89,3.18,7.03,7.07,7.09,3.91,0,7.07-3.17,7.07-7.07,0-3.91-3.17-7.07-7.07-7.07Z"/></svg>