<svg id="Camada_1" data-name="Camada 1" xmlns="http://www.w3.org/2000/svg" viewBox="0 0 200 80"><path d="M183.37,39.1h-7c-4.49,0-7,3.37-7,9.21v20.9H156V39.1h-5.62c-4.5,0-7,3.37-7,9.21v20.9H129.89V27.87h13.48v6.29c2.25-4.95,5.17-6.29,9.66-6.29h16.41v6.29c2.25-4.95,5.17-6.29,9.66-6.29h4.5ZM126.74,51.69H98.88c.67,4.71,3.59,7.19,8.31,7.19,3.6,0,6.07-1.58,7-4.05l11.91,3.37c-2.92,7.19-10.11,11.46-18.88,11.46-14.61,0-21.35-11.46-21.35-21.35,0-9.66,5.85-21.12,20.45-21.12C121.8,27.19,127,38.88,127,47.64A18,18,0,0,1,126.74,51.69Zm-12.81-7.87a7.07,7.07,0,0,0-7.41-6.74c-4.27,0-6.74,1.8-7.64,6.74ZM62.47,69.21H74.16L89,28.09H75.51l-7.2,24L61.12,27.87H47.64Zm-54.83,0H20.9V39.1H33.71V69.21H47V27.87H20.9V25.39c0-2.69,2-4.49,4.94-4.49h7.87V9.66H23.82c-9.66,0-16.18,6.07-16.18,14.83v3.38H0V39.1H7.64Z"/><path d="M191.69,70.34A8.32,8.32,0,1,0,183.37,62,8.44,8.44,0,0,0,191.69,70.34Z"/></svg>