<?xml version="1.0" encoding="UTF-8" standalone="no"?>
<svg id="a" viewBox="0 0 32 32" version="1.1" sodipodi:docname="flathub.svg" width="32" height="32" inkscape:version="1.4-beta2 (9aaf4f34, 2024-07-30)" xmlns:inkscape="http://www.inkscape.org/namespaces/inkscape" xmlns:sodipodi="http://sodipodi.sourceforge.net/DTD/sodipodi-0.dtd" xmlns="http://www.w3.org/2000/svg" xmlns:svg="http://www.w3.org/2000/svg">
  <sodipodi:namedview id="namedview9" pagecolor="#ffffff" bordercolor="#000000" borderopacity="0.25" inkscape:showpageshadow="2" inkscape:pageopacity="0.0" inkscape:pagecheckerboard="0" inkscape:deskcolor="#d1d1d1" inkscape:zoom="4.4660684" inkscape:cx="30.563795" inkscape:cy="21.15955" inkscape:window-width="1440" inkscape:window-height="790" inkscape:window-x="0" inkscape:window-y="0" inkscape:window-maximized="1" inkscape:current-layer="a" />
  <defs id="defs1">
    <style id="style1">.b{stroke-width:0px;}</style>
  </defs>
  <g id="g9" transform="matrix(0.47286178,0,0,0.47286178,1.6501425e-7,-2.9144714)">
    <circle class="b" cx="15.62" cy="23.120001" r="15.62" id="circle7" />
    <rect class="b" x="1.91" y="45.02" width="27.42" height="27.42" rx="7.3099999" ry="7.3099999" id="rect7" />
    <path class="b" d="M 65.43,19.4 62.63,17.78 46.51,8.47 c -2.13,-1.23 -4.84,-0.5 -6.06,1.63 -0.39,0.68 -0.59,1.44 -0.59,2.22 v 21.85 c 0,2.45 1.99,4.44 4.44,4.44 0.78,0 1.54,-0.2 2.22,-0.59 L 65.45,27.09 c 2.13,-1.23 2.85,-3.95 1.63,-6.06 -0.39,-0.68 -0.95,-1.24 -1.63,-1.63 v 0 z" id="path8" />
    <path class="b" d="m 64.49,58.8 c 0,1.52 -1.23,2.74 -2.74,2.74 H 39.82 c -1.52,0 -2.74,-1.23 -2.74,-2.74 0,-1.51 1.23,-2.74 2.74,-2.74 h 21.93 c 1.52,0 2.74,1.23 2.74,2.74 z M 50.78,45.09 c 1.52,0 2.74,1.23 2.74,2.74 v 21.93 c 0,1.52 -1.23,2.74 -2.74,2.74 -1.51,0 -2.74,-1.23 -2.74,-2.74 V 47.83 c 0,-1.52 1.23,-2.74 2.74,-2.74 z" id="path9" />
  </g>
</svg>
