<?xml version="1.0" encoding="UTF-8"?><svg id="a" xmlns="http://www.w3.org/2000/svg" viewBox="0 0 240.83 80"><defs><style>.b{stroke-width:0px;}</style></defs><path class="b" d="m89.18,55.1h5.63v-13.21h12.92v-4.72h-12.92v-8.44h14.28v-4.72h-19.91s0,31.08,0,31.08Z"/><path class="b" d="m119.46,24.02h-5.5v31.08h5.5v-31.08Z"/><path class="b" d="m131.81,55.57c3.66,0,5.84-1.72,6.84-3.67h.19v3.2h5.28v-15.6c0-6.16-5.02-8.01-9.47-8.01-4.9,0-8.66,2.18-9.88,6.44l5.13.72c.55-1.6,2.1-2.96,4.78-2.96s3.95,1.31,3.95,3.59v.09c0,1.58-1.65,1.65-5.77,2.1-4.52.48-8.85,1.84-8.85,7.09,0,4.58,3.35,7.01,7.8,7.01h0Zm1.43-4.04c-2.29,0-3.93-1.05-3.93-3.06s1.84-2.99,4.29-3.33c1.44-.2,4.33-.56,5.04-1.14v2.75c0,2.59-2.1,4.79-5.41,4.79h0Z"/><path class="b" d="m161.31,31.79h-4.6v-5.58h-5.5v5.58h-3.31v4.25h3.31v12.96c-.03,4.38,3.16,6.54,7.28,6.42,1.56-.05,2.64-.35,3.23-.55l-.93-4.29c-.31.07-.93.21-1.61.21-1.38,0-2.49-.48-2.49-2.7v-12.05h4.6v-4.25h0Z"/><path class="b" d="m171.88,41.44c0-3.37,2.1-5.31,5.04-5.31s4.58,1.84,4.58,4.98v14h5.5v-14.84c0-5.63-3.19-8.78-8.02-8.78-3.58,0-5.86,1.63-6.94,4.26h-.27v-11.73h-5.37v31.08h5.5v-13.66h-.02Z"/><path class="b" d="m207.44,45.3c0,3.55-2.54,5.31-4.96,5.31-2.64,0-4.4-1.87-4.4-4.83v-14h-5.5v14.84c0,5.6,3.19,8.78,7.77,8.78,3.49,0,5.95-1.84,7.01-4.45h.24v4.14h5.33v-23.31h-5.5v13.5h0Z"/><path class="b" d="m218.83,55.1h5.41v-3.67h.32c.86,1.7,2.67,4.09,6.68,4.09,5.5,0,9.6-4.36,9.6-12.04s-4.23-11.99-9.62-11.99c-4.11,0-5.82,2.47-6.66,4.16h-.23v-11.63h-5.5v31.08h0Zm5.39-11.66c0-4.52,1.94-7.45,5.48-7.45s5.54,3.11,5.54,7.45-1.91,7.56-5.54,7.56-5.48-3.04-5.48-7.56Z"/><circle class="b" cx="15.62" cy="23.12" r="15.62"/><rect class="b" x="1.91" y="45.02" width="27.42" height="27.42" rx="7.31" ry="7.31"/><path class="b" d="m65.43,19.4l-2.8-1.62-16.12-9.31c-2.13-1.23-4.84-.5-6.06,1.63-.39.68-.59,1.44-.59,2.22v21.85c0,2.45,1.99,4.44,4.44,4.44.78,0,1.54-.2,2.22-.59l18.93-10.93c2.13-1.23,2.85-3.95,1.63-6.06-.39-.68-.95-1.24-1.63-1.63h0Z"/><path class="b" d="m64.49,58.8c0,1.52-1.23,2.74-2.74,2.74h-21.93c-1.52,0-2.74-1.23-2.74-2.74s1.23-2.74,2.74-2.74h21.93c1.52,0,2.74,1.23,2.74,2.74Zm-13.71-13.71c1.52,0,2.74,1.23,2.74,2.74v21.93c0,1.52-1.23,2.74-2.74,2.74s-2.74-1.23-2.74-2.74v-21.93c0-1.52,1.23-2.74,2.74-2.74Z"/></svg>