<?xml version="1.0" encoding="UTF-8"?><svg id="a" xmlns="http://www.w3.org/2000/svg" viewBox="0 0 433.72 80"><defs><style>.l{stroke-width:0px;}</style></defs><g id="b"><polygon id="c" class="l" points="109.2 13.76 139.17 13.76 139.17 23.71 121.05 23.71 121.05 35.54 136.07 35.54 136.07 44.91 121.04 44.91 121.04 65.38 109.2 65.38 109.2 13.76"/><polygon id="d" class="l" points="143.34 13.76 155.18 13.76 155.18 55.43 172.1 55.43 172.1 65.38 143.34 65.38 143.34 13.76"/><polygon id="e" class="l" points="176.55 13.76 188.39 13.76 188.39 65.38 176.55 65.38 176.55 13.76"/><path id="f" class="l" d="m194.26,13.76h14.77c12.76,0,19.88,6.62,19.88,17.56s-7.12,18.19-19.88,18.19h-2.92v15.86h-11.85V13.76Zm11.85,9.38v16.92h2.32c5.71,0,8.6-2.82,8.6-8.53s-2.89-8.39-8.6-8.39h-2.32Z"/><path id="g" class="l" d="m233.05,13.76h16.99c11.64,0,17.27,5.01,17.27,13.46,0,4.87-2.39,9.24-8.39,10.72,6.48,1.14,9.92,6.13,9.92,12.13,0,8.82-6.2,15.3-17.83,15.3h-17.98l.02-51.61Zm11.85,9.38v11.18h3.3c4.94,0,7.19-2.12,7.19-5.85,0-3.31-2.12-5.36-6.98-5.36l-3.52.03Zm0,20.09v12.77h4.44c5.16,0,7.68-2.4,7.68-6.56s-2.81-6.2-7.61-6.2h-4.51Z"/><path id="h" class="l" d="m291.86,12.9c12.4,0,19.54,9.11,19.54,26.67s-7.12,26.67-19.54,26.67-19.53-9.09-19.53-26.67,7.11-26.67,19.53-26.67Zm0,43.16c4.72,0,7.68-4.87,7.68-16.5s-2.96-16.5-7.68-16.5-7.62,4.86-7.62,16.5,2.89,16.51,7.62,16.51h0Z"/><path id="i" class="l" d="m324.63,13.76h15.02l12.97,51.61h-12.38l-2.18-10.32h-12.58l-2.26,10.32h-11.91l13.32-51.61Zm7.12,11.18l-4.3,20.59h8.82l-4.22-20.59h-.29Z"/><path id="j" class="l" d="m355.66,13.76h14.8c12.9,0,19.78,5.43,19.78,16.34,0,7.05-3.17,12.28-9.09,14.95l10.86,20.32h-12.81l-8.81-18.34h-2.89v18.34h-11.85V13.76Zm11.85,9.38v14.71h2.96c5.43,0,7.9-2.58,7.9-7.61s-2.47-7.12-7.9-7.12l-2.96.03Z"/><path id="k" class="l" d="m396.42,13.76h14.88c15.3,0,22.42,10.79,22.42,25.81s-7.12,25.81-22.42,25.81h-14.88V13.76Zm11.85,9.94v31.72h2.82c7.74,0,10.5-7.41,10.5-15.86,0-8.95-2.74-15.86-10.5-15.86h-2.82Z"/><path class="l" d="m0,80h80V0H0v80ZM14.62,13.76h51.61v17.2h-17.2v17.2h-17.2v17.2H14.62V13.76Z"/></g></svg>