<?xml version="1.0" encoding="UTF-8"?><svg id="a" xmlns="http://www.w3.org/2000/svg" viewBox="0 0 154.27 80"><path d="m.06,19.13v-2.13h27.08v13.33h-2.24l-3.74-10.28h-7.43v18h5.82l1.32-5.6h2.24v14.66h-2.24l-1.32-6.01h-5.81v18.12l5.35.98v2.08H0v-2.08l4.26-.98V19.94L.06,19.13Zm29.61,23.08c0-14.6,6.39-20.31,15.61-20.31,10.6,0,14.87,6.46,14.87,20.72s-6.39,20.38-15.61,20.38c-10.54,0-14.87-6.47-14.87-20.78Zm103,20.08h-10.19v-1.78l2.93-.81,9.68-37.22h5.01l11.18,37.23,3,.81v1.79h-15.44v-1.79l3.57-.81-3.11-9.52h-8.41l-2.19,9.52,3.97.81v1.79h0v-.02Zm-46.95,0h-23.16v-1.78l3.46-.81V25.08l-3.28-.63v-1.85h15.26v1.85l-3.57.63v34.52h6.22l3.28-9.29h1.78v12.01h0Zm2.36-37.86v-1.85h14.52v1.85l-2.88.63v16.22h8.76v-16.22l-2.7-.63v-1.85h14.17v1.85l-3,.63v34.63l3.28.81v1.79h-14.46v-1.79l2.7-.81v-15.7h-8.76v15.7l2.88.81v1.79h-14.52v-1.79l3.28-.81V25.2l-3.28-.75h0Zm-36.87,18.3c0-16.1-2.82-18.53-6.11-18.53s-6.57,2.08-6.57,17.95,2.88,18.58,6.16,18.58,6.5-2.2,6.5-18.01h0Zm83.48-7.97l-3.16,12.7h7.03l-3.85-12.7h0Z" style="fill-rule:evenodd; stroke-width:0px;"/></svg>