<?xml version="1.0" encoding="UTF-8"?><svg id="a" xmlns="http://www.w3.org/2000/svg" viewBox="0 0 167.69 80"><defs><style>.b{fill-rule:evenodd;stroke-width:0px;}</style></defs><path class="b" d="m.06,17.32v-2.32h29.43v14.49h-2.44l-4.07-11.17h-8.08v19.57h6.33l1.44-6.09h2.44v15.93h-2.44l-1.44-6.53h-6.32v19.7l5.82,1.06v2.26H0v-2.26l4.63-1.06V18.2L.06,17.32Zm32.18,25.09c0-15.87,6.95-22.08,16.97-22.08,11.52,0,16.16,7.02,16.16,22.52s-6.95,22.15-16.97,22.15c-11.46,0-16.16-7.03-16.16-22.59Zm111.96,21.83h-11.08v-1.94l3.19-.88,10.52-40.46h5.45l12.15,40.47,3.26.88v1.95h-16.78v-1.95l3.88-.88-3.38-10.35h-9.14l-2.38,10.35,4.32.88v1.95h0Zm-51.03,0h-25.17v-1.94l3.76-.88V23.78l-3.57-.69v-2.01h16.59v2.01l-3.88.69v37.52h6.76l3.57-10.1h1.94v13.05h0Zm2.57-41.15v-2.01h15.78v2.01l-3.13.69v17.63h9.52v-17.63l-2.94-.69v-2.01h15.4v2.01l-3.26.69v37.64l3.57.88v1.95h-15.72v-1.95l2.94-.88v-17.06h-9.52v17.06l3.13.88v1.95h-15.78v-1.95l3.57-.88V23.91l-3.57-.81Zm-40.08,19.89c0-17.5-3.07-20.14-6.64-20.14s-7.14,2.26-7.14,19.51,3.13,20.2,6.7,20.2,7.07-2.39,7.07-19.58h0Zm90.74-8.66l-3.44,13.8h7.64l-4.19-13.8h0Z"/></svg>