<?xml version="1.0" encoding="UTF-8" standalone="no"?>
<!-- Generator: Adobe Illustrator 23.0.6, SVG Export Plug-In . SVG Version: 6.00 Build 0)  -->

<svg version="1.1" id="Camada_1" x="0px" y="0px" viewBox="0 0 32 32" xml:space="preserve" sodipodi:docname="forbes.svg" width="32" height="32" inkscape:version="1.4-beta2 (9aaf4f34, 2024-07-30)" xmlns:inkscape="http://www.inkscape.org/namespaces/inkscape" xmlns:sodipodi="http://sodipodi.sourceforge.net/DTD/sodipodi-0.dtd" xmlns="http://www.w3.org/2000/svg" xmlns:svg="http://www.w3.org/2000/svg" xmlns:rdf="http://www.w3.org/1999/02/22-rdf-syntax-ns#" xmlns:cc="http://creativecommons.org/ns#" xmlns:dc="http://purl.org/dc/elements/1.1/"><defs id="defs6" /><sodipodi:namedview id="namedview6" pagecolor="#ffffff" bordercolor="#000000" borderopacity="0.25" inkscape:showpageshadow="2" inkscape:pageopacity="0.0" inkscape:pagecheckerboard="0" inkscape:deskcolor="#d1d1d1" inkscape:zoom="0.6185945" inkscape:cx="177.82247" inkscape:cy="86.486381" inkscape:window-width="1440" inkscape:window-height="872" inkscape:window-x="0" inkscape:window-y="0" inkscape:window-maximized="1" inkscape:current-layer="Camada_1" />
<title id="title1">forbes</title>

<path d="m 2.9701435,0.05483871 c 8.0723685,-0.08774 16.1008655,0 24.1732345,-0.04387 0.570331,0.04387 1.228404,-0.131615 1.710992,0.175486 0.175486,2.98326699 0.08774,6.01040499 0.175486,8.99367199 l -1.535505,0.482587 c -1.052918,-2.500679 -2.105835,-5.483946 -4.869744,-6.580735 -2.412937,-0.877432 -5.089103,-0.307101 -7.589782,-0.526459 -0.175486,4.167799 -0.307101,8.3794703 -0.26323,12.5472693 1.447762,-0.04387 2.895524,0.04387 4.299414,-0.263229 1.754863,-0.614202 2.237451,-2.544551 2.676166,-4.123928 l 1.447762,-0.131615 c 0.04387,3.685212 0,7.326553 0.04387,11.011765 l -1.447762,-0.04387 c -0.438716,-1.491633 -0.83356,-3.421982 -2.456808,-4.123928 -1.491634,-0.394844 -3.027139,-0.263229 -4.562644,-0.394844 0.131615,3.729084 -0.175486,7.54591 0.745817,11.187251 0.438716,1.930349 2.544551,2.105835 4.167799,2.281321 0,0.482588 0.04387,0.965175 0.04387,1.491634 C 14.157394,31.949471 8.5418325,32.081086 2.9701435,31.9056 V 30.940425 C 3.7598318,29.931379 5.4269515,30.501709 6.2166397,29.448792 7.4889153,27.957158 7.2695574,25.851323 7.4889153,24.052589 7.6644016,18.831872 7.62053,13.567283 7.5327868,8.3465657 7.3573006,6.5039597 7.4889153,4.4419967 6.392126,2.8626197 5.6024377,1.8097017 4.1985475,1.8535737 3.0578866,1.5903437 3.0140151,1.3271147 2.9701435,0.80065571 2.9701435,0.53742671 Z" id="path2" style="stroke-width:0.438716" />




<metadata id="metadata6"><rdf:RDF><cc:Work rdf:about=""><dc:title>forbes</dc:title></cc:Work></rdf:RDF></metadata></svg>
