<svg xml:space="preserve" width="32" height="32" xmlns="http://www.w3.org/2000/svg">
  <path d="M2.97.055c8.073-.088 16.101 0 24.173-.044.57.044 1.229-.132 1.711.175.176 2.984.088 6.01.176 8.994l-1.536.483c-1.053-2.501-2.105-5.484-4.87-6.581-2.412-.877-5.088-.307-7.59-.526-.175 4.167-.306 8.379-.262 12.547 1.447-.044 2.895.044 4.299-.263 1.755-.615 2.237-2.545 2.676-4.124l1.448-.132c.044 3.685 0 7.327.044 11.012l-1.448-.044c-.439-1.492-.834-3.422-2.457-4.124-1.491-.395-3.027-.263-4.562-.395.131 3.73-.176 7.546.745 11.187.44 1.93 2.545 2.106 4.168 2.282 0 .482.044.965.044 1.491-5.572-.044-11.187.088-16.759-.087v-.966c.79-1.009 2.457-.438 3.247-1.491 1.272-1.492 1.053-3.598 1.272-5.396.175-5.221.132-10.486.044-15.706-.176-1.843-.044-3.905-1.14-5.484-.79-1.053-2.194-1.01-3.335-1.273A8.52 8.52 0 0 1 2.97.537Z" style="stroke-width:.438716"/>
</svg>