<?xml version="1.0" encoding="utf-8"?>
<!-- Generator: Adobe Illustrator 23.0.6, SVG Export Plug-In . SVG Version: 6.00 Build 0)  -->
<svg version="1.1" id="Camada_1" xmlns="http://www.w3.org/2000/svg" xmlns:xlink="http://www.w3.org/1999/xlink" x="0px" y="0px"
	 viewBox="0 0 300 120" style="enable-background:new 0 0 300 120;" xml:space="preserve">
<title>forbes</title>
<path d="M169.3,22.3h0.6c0.1,8.1,0,16.2-0.1,24.2c5.2-2.8,11.2-3.6,17-2.1c7.8,2.3,13,9.8,14.4,17.5c1.4,7.7,0.5,16.1-3.3,23.1
	c-3.9,6.6-10.5,11.2-18.1,12.3c-8.5,0.8-17,0.2-25.3-1.8c0.1-19.6,0.7-39.2-0.1-58.8c-0.1-3-1.1-6.9-4.6-7.2c-1.6,0.1-3.5-1.7-1.9-3
	C155,24.9,162.2,23.9,169.3,22.3 M170,50.5C169.8,63,170,75.5,170,88c0,1.8,0.2,3.7,0.5,5.5c3.3,0.4,6.9-0.1,9.1-2.9
	c5.2-6.3,6.2-15,5.9-22.9c-0.2-5.9-1.5-12.7-6.5-16.5C176.5,49,173,49.8,170,50.5L170,50.5z"/>
<path d="M5,23.7c18.4-0.2,36.7,0,55.1-0.1c1.3,0.1,2.8-0.3,3.9,0.4c0.4,6.8,0.2,13.7,0.4,20.5l-3.5,1.1c-2.4-5.7-4.8-12.5-11.1-15
	c-5.5-2-11.6-0.7-17.3-1.2c-0.4,9.5-0.7,19.1-0.6,28.6c3.3-0.1,6.6,0.1,9.8-0.6c4-1.4,5.1-5.8,6.1-9.4l3.3-0.3
	c0.1,8.4,0,16.7,0.1,25.1l-3.3-0.1c-1-3.4-1.9-7.8-5.6-9.4c-3.4-0.9-6.9-0.6-10.4-0.9c0.3,8.5-0.4,17.2,1.7,25.5
	c1,4.4,5.8,4.8,9.5,5.2c0,1.1,0.1,2.2,0.1,3.4C30.5,96.4,17.7,96.7,5,96.3v-2.2c1.8-2.3,5.6-1,7.4-3.4c2.9-3.4,2.4-8.2,2.9-12.3
	c0.4-11.9,0.3-23.9,0.1-35.8c-0.4-4.2-0.1-8.9-2.6-12.5c-1.8-2.4-5-2.3-7.6-2.9c-0.1-0.6-0.2-1.8-0.2-2.4V23.7z"/>
<path d="M78,43.3c7.9-1.3,16.8,0.4,22.6,6.1c5.7,5.8,7.8,14.2,7.3,22.1c0.1,8.8-4.2,17.7-11.8,22.4c-4.9,3.3-11,3.9-16.7,3.6
	c-8.6-0.1-16.4-5.2-19.9-13c-3-7.1-3.6-15.1-1.8-22.6C60,52.5,68.2,44.6,78,43.3 M78.9,47.7c-2.5,1.7-3.8,4.6-4.5,7.4
	c-1.9,6.9-1.5,14.2-1.3,21.4c0.7,5.6,1.5,11.9,5.8,16c3.2,2.9,8.2,1,9.8-2.6c3.5-6.8,3-14.7,3-22.1c-0.3-6.4-0.8-13.6-5.4-18.6
	C84.5,46.9,81.4,46.4,78.9,47.7L78.9,47.7z"/>
<path d="M137.4,45.4c4-2.9,9.7-3.5,14-0.9c-1.8,4.8-3.5,9.7-5.6,14.4c-3.5-1.7-7.3-3.3-11.2-2.3c-1.7,0.5-4.3,1.2-4.3,3.4
	c-0.2,8.3-0.3,16.7,0.3,25c0.3,2.5,0.2,5.9,2.9,7.3c1.8,0.7,3.9,0.6,5.8,0.8c0,1.1-0.1,2.2-0.1,3.4c-10.4-0.1-20.8-0.1-31.2,0
	c0-1.1,0-2.2,0-3.4c2.9,0,6.3-1.4,6.6-4.7c0.8-8.8,0.4-17.7,0.5-26.5c-0.2-3.3,0.3-7-1.5-9.9c-1.2-1.8-3.7-1.6-5.5-1.9l-0.1-2.6
	c7.7-1.5,15.3-3.1,23-4.6c-0.1,3.7-0.5,7.4-0.6,11.1C132.3,50.8,134.1,47.4,137.4,45.4z"/>
<path d="M214,49.6c6.2-5.6,14.8-7.9,23-6.1c5.2,1.1,9.6,4.5,12.1,9.2c2.6,4.7,3.2,10.2,3.6,15.5c-10.4,0.3-20.8,0.1-31.1,0.2
	c0.1,6,1.2,12.6,5.8,16.8c6,6.2,16.5,5.7,23.2,0.8l1.4,2.1c-4.9,6.4-12.7,10-20.8,9.6c-9.5,0.6-18.9-5.4-22.8-14.1
	C203.5,72.6,205.2,58.2,214,49.6 M226.6,48.7c-3.7,4.1-4.6,10-5.1,15.3c5-0.3,10.1-0.3,15.1-0.4c-0.3-5-0.3-10.4-3.1-14.7
	C232.2,46.4,228.4,46.5,226.6,48.7L226.6,48.7z"/>
<path d="M269.3,43.9c7.5-1.9,15.4-0.8,22.6,1.7c0.3,4.7,0.7,9.4,0.3,14.1l-2.3,0.6c-1.9-3.5-3-7.7-6.2-10.5
	c-2.6-2.2-6.5-3.5-9.7-1.9c-4.1,1.9-5.3,8.4-1.8,11.4c5.1,4.5,12.2,5.4,17.6,9.6c3,2.2,4.8,5.5,5.1,9.1v1.9
	c0.7,9-7.1,16.4-15.6,17.4c-8,0.7-16.2,0.4-23.7-2.6c-0.1-5.2-0.2-10.4-0.3-15.6l2.6-0.8c1.8,4.1,3.5,8.6,7.1,11.5
	c3.3,2.8,8,3.4,11.9,1.4c4-2.2,4.8-8.7,1.2-11.5c-5.5-4.4-13.3-4.7-18.2-9.9c-3.5-3.5-4.2-8.9-3.2-13.6
	C258.1,50,263.4,45.4,269.3,43.9z"/>
</svg>
