<?xml version="1.0" encoding="UTF-8"?><svg id="a" xmlns="http://www.w3.org/2000/svg" viewBox="0 0 153.8 80"><defs><style>.b{stroke-width:0px;}</style></defs><polygon class="b" points="14.51 34.23 14.51 30.51 14.51 26.82 20.76 26.61 26.99 26.41 26.99 20.74 26.99 15 13.48 15 0 15 0 39.61 0 64.24 7.1 64.24 14.1 64.24 14.3 55.27 14.51 46.38 19.43 46.14 24.27 45.94 24.27 40.27 24.27 34.61 19.43 34.43 14.51 34.23"/><path class="b" d="m150.7,25.74c-3.5-2.74-8.53-2.23-11.41,1.15l-2.15,2.26-1.15-1.97c-.84-1.32-2.12-2.3-3.61-2.77-1.63-.72-3.49-.72-5.13,0-1.51.61-2.86,1.56-3.95,2.77l-1.87,2.15v-4.23h-12.07v14.46c0,12.25,0,14.64-1.08,15.51-1.44,1.41-2.77,1.33-3.64-.21-.67-5.1-.91-10.24-.74-15.38v-14.33h-10.25v35.89l1.95,1.95c1.35,1.51,3.38,2.25,5.38,1.95,2.13.24,4.25-.53,5.74-2.08l2.36-2.1v3.59h12.15v-14.28c0-13.28,0-14.23,1.36-15.51s1.67-1.2,2.69-.67,1.41,1.49,1.41,15.38v15.07h10.79v-14.56c0-12.25.15-14.61,1.1-15.38,1.2-1.31,1.33-1.31,3.02-.41,1.2.67,1.28,1.54,1.28,15.51v14.84h10.92v-16.66c0-17.3-.33-19.61-3.1-21.94Z"/><path class="b" d="m57.96,34.87c-3.87,3.77-3.92,3.92-2.92,5.74.65,1.41.97,2.96.95,4.51-.04,5.27-4.34,9.5-9.6,9.47-2.63-.02-5.14-1.13-6.93-3.06-2.71-3.35-3.1-8.01-1-11.77,1.66-2.51,4.34-4.16,7.33-4.51,1.03,0,1.56-.9,2.56-4.28.67-2.28,1.36-4.72,1.49-5.38s-.26-1.18-2.95-1.18c-2.05.05-4.09.34-6.08.87-9.9,2.87-16.06,12.71-14.3,22.87.66,4.35,2.77,8.34,6,11.33,4.13,4.13,8.36,5.54,15.38,5.13,4.93.19,9.7-1.76,13.1-5.33,4.36-4.36,5.59-7.48,5.59-14.35.36-3.13-.21-6.29-1.61-9.1-2.82-5.1-2.69-5.1-7-.95Z"/><path class="b" d="m89.38,24.92c-2.47,1.05-4.51,2.9-5.79,5.25l-1.31,2.13v-6.41h-12.82v38.45h12.82l.21-12.2c.21-11.89.26-12.23,1.82-13.51,1.23-.84,2.69-1.29,4.18-1.28h2.56v-6.51c.07-2.08,0-4.16-.21-6.23-.15,0-.72,0-1.46.31Z"/><path class="b" d="m50.73,36.38c1.41.62,1.97.41,4.31-1.77,1.49-1.33,3.26-3.08,3.92-3.85,1.15-1.41,1.08-1.46-1.08-2.82-1.3-.78-2.65-1.48-4.05-2.08-1.77-.69-1.82-.62-2.85,2.82-1.95,6.95-1.95,6.87-.26,7.69Z"/></svg>