<?xml version="1.0" encoding="UTF-8" standalone="no"?>
<svg id="Camada_1" data-name="Camada 1" viewBox="0 0 32 32" version="1.1" width="32" height="32" xmlns="http://www.w3.org/2000/svg" xmlns:svg="http://www.w3.org/2000/svg" xmlns:rdf="http://www.w3.org/1999/02/22-rdf-syntax-ns#" xmlns:cc="http://creativecommons.org/ns#" xmlns:dc="http://purl.org/dc/elements/1.1/">
  <defs id="defs1">
    <style id="style1">.cls-1{fill:#fff;}</style>
  </defs>
  <title id="title1">fox-news</title>
  <path id="path4" style="fill:#000000;stroke-width:0.265651" class="cls-1" d="m 14.861386,9.3497351 c -0.275113,0.0054 -0.550498,0.02903 -0.82445,0.07212 l -0.01349,0.0052 a 6.9069155,6.9069155 0 0 0 -4.2504099,2.4391079 6.457966,6.457966 0 0 0 -1.4185325,5.23311 6.6598604,6.6598604 0 0 0 3.7030244,4.893263 7.1486575,7.1486575 0 0 0 4.045982,0.581629 6.7608076,6.7608076 0 0 0 4.529551,-2.922156 6.6253258,6.6253258 0 0 0 0.560357,-6.221516 C 20.153395,10.96044 17.520819,9.2977531 14.861386,9.3497471 Z m -12.8114145,0.01297 c -0.6816843,9.96e-4 -1.36338936,0.0035 -2.04478313,0.0088 L -1.3e-7,22.552859 H 3.7829265 v -4.27687 h 3.7798138 v -3.607556 h -3.758541 c 0.013282,-0.589745 0.069007,-1.17953 0.069007,-1.769275 H 8.4235104 C 8.3677234,11.722347 8.2379077,10.551015 8.1874341,9.3715261 c -2.0461737,0 -4.0924095,-0.01181 -6.1374626,-0.0088 z m 17.9532065,0.03269 c 1.259184,2.1092659 2.510627,4.2298359 3.753871,6.3621249 -1.320283,2.255373 -2.587499,4.537332 -3.915752,6.795362 h 4.088529 c 0.645531,-1.08651 1.28826,-2.175699 1.909883,-3.275492 0.674752,1.091824 1.304094,2.215484 2.002755,3.278087 H 32 c -1.368101,-2.281939 -2.712189,-4.57413 -4.077633,-6.856068 1.235275,-2.085358 2.436016,-4.194935 3.652695,-6.2962309 H 27.417527 C 26.886226,10.309047 26.354925,11.238865 25.823624,12.168642 25.276384,11.238865 24.734706,10.30392 24.152931,9.3953951 Z m -5.001184,2.4837289 c 0.598337,0.02528 1.179282,0.590077 1.165335,1.20373 v 5.596822 a 1.1848017,1.1848017 0 0 1 -2.369583,0 v -5.42197 a 1.328253,1.328253 0 0 1 0.621581,-1.205805 c 0.181971,-0.129504 0.383222,-0.181202 0.582667,-0.172777 z" />
  <metadata id="metadata7">
    <rdf:RDF>
      <cc:Work rdf:about="">
        <dc:title>fox-news</dc:title>
      </cc:Work>
    </rdf:RDF>
  </metadata>
</svg>
