<svg id="Camada_1" data-name="Camada 1" xmlns="http://www.w3.org/2000/svg" viewBox="0 0 300 120"><defs><style>.cls-1{fill:#fff;}</style></defs><title>fox-news</title><g id="_ffffffff" data-name="#ffffffff"><path class="cls-1" d="M277.36,34.69a18.37,18.37,0,0,1,17,4.18,19.55,19.55,0,0,1,4.44,7.61c-3.48,1.19-6.94,2.46-10.47,3.49-1.13-2-2.54-4.25-5-4.69-2.22-.52-5.1-.1-6.19,2.16a2.87,2.87,0,0,0,1.24,3.92c5.88,2.49,13,2.61,17.81,7.25,6.23,6.56,4.48,18.46-2.93,23.44-7.89,5.29-19.39,4.64-26.3-2-2.64-2.49-3.93-6-4.94-9.33,3.82-1,7.69-1.78,11.55-2.6.94,1.87,1.78,4.08,3.81,5,2.4,1.14,5.46,1.57,7.87.22a3.44,3.44,0,0,0,.19-5.63c-2.21-1.27-4.79-1.53-7.18-2.29-4.27-1.39-8.87-3-11.73-6.64-3.45-4.5-3.14-10.85-.84-15.79C267.91,38.48,272.6,35.78,277.36,34.69Z"/><path class="cls-1" d="M173.21,35.82c10.51,0,21,0,31.55,0,0,3.79,0,7.58,0,11.36-6.38.06-12.76,0-19.14,0,0,2.4,0,4.81,0,7.21h15.73c0,3.56,0,7.13,0,10.69-5.2,0-10.41,0-15.61,0q0,4.23,0,8.46c6.47,0,12.94,0,19.4,0-.07,3.82,0,7.63,0,11.44-10.62-.06-21.23,0-31.86,0Q173.24,60.4,173.21,35.82Z"/><path class="cls-1" d="M207.36,35.82h12.48c1.95,9.4,3.87,18.79,5.84,28.19a4.84,4.84,0,0,0,.85-2.16c1.64-8.68,3.46-17.33,5.09-26,3.46,0,6.92,0,10.38,0,2,9.28,4.09,18.53,5.91,27.84l.65-.81c1.87-9,3.86-18,5.76-27,3.36,0,6.72,0,10.07,0-4,16.36-7.65,32.79-11.51,49.18-3.71,0-7.42,0-11.13,0C240,76.09,238,67.24,236.29,58.36c-.14-.18-.43-.53-.58-.7C233.93,66.79,232,75.89,230.16,85c-3.78,0-7.57,0-11.35,0C215,68.6,211.29,52.18,207.36,35.82Z"/><path class="cls-1" d="M0,35.91c10.26-.08,20.53,0,30.8,0,.19,4.44.68,8.85.89,13.28-5.71,0-11.42,0-17.13,0,0,2.22-.21,4.44-.26,6.66,4.71,0,9.43,0,14.15,0,0,4.52,0,9,0,13.58-4.74,0-9.49,0-14.23,0,0,5.37,0,10.73,0,16.1-4.75,0-9.49,0-14.24,0Z"/><path class="cls-1" d="M52.82,36.1c11-1.73,22.62,4.83,26.94,15.09a24.94,24.94,0,0,1-2.11,23.42,25.45,25.45,0,0,1-17.05,11,26.91,26.91,0,0,1-15.23-2.19A25.07,25.07,0,0,1,31.43,65a24.31,24.31,0,0,1,5.34-19.7,26,26,0,0,1,16-9.18M54.26,46a5,5,0,0,0-2.34,4.54c0,6.8,0,13.6,0,20.41a4.46,4.46,0,1,0,8.92,0c0-7,0-14.05,0-21.07C60.91,46.8,57,44.05,54.26,46Z"/><path class="cls-1" d="M75.28,36c5.2,0,10.41,0,15.62,0,2.19,3.42,4.23,6.94,6.29,10.44,2-3.5,4-7,6-10.41,5.22,0,10.43,0,15.65,0-4.58,7.91-9.1,15.85-13.75,23.7,5.14,8.59,10.2,17.22,15.35,25.81-5.22,0-10.43,0-15.65,0-2.63-4-5-8.23-7.54-12.34-2.34,4.14-4.76,8.24-7.19,12.33q-7.7,0-15.39,0c5-8.5,9.77-17.09,14.74-25.58Q82.39,47.91,75.28,36Z"/><path class="cls-1" d="M128.74,36.29c4.79.05,9.61-.13,14.4.08,4.76,7.72,9.07,15.73,14.48,23,.08-7.72,0-15.45,0-23.17,1.07,0,2.13,0,3.2-.06h3a34.92,34.92,0,0,0,5.78-.19c.2,16.33,0,32.67.11,49-3.81,0-7.62,0-11.43,0-5.44-8.88-10.67-17.9-16.08-26.79a12.55,12.55,0,0,0-1-1.3c0,9.52,0,19,0,28.55H128.76C128.73,69.07,128.78,52.68,128.74,36.29Z"/></g></svg>