<svg xmlns="http://www.w3.org/2000/svg" xml:space="preserve" style="fill-rule:evenodd;clip-rule:evenodd;stroke-linejoin:round;stroke-miterlimit:2" viewBox="0 0 32 32"><path d="M8.452 12.955H3.87v1.71h3.735v3.573H3.831v4.245H-.001v-13.1h8.202l.25 3.573Zm6.546-3.553a6.634 6.634 0 0 0-3.654 1.16 6.593 6.593 0 0 0-.901 10.154 6.64 6.64 0 0 0 7.207 1.39 6.614 6.614 0 0 0 4.067-6.096 6.649 6.649 0 0 0-4.163-6.12 6.667 6.667 0 0 0-2.557-.487Zm1.155 9.297a1.183 1.183 0 0 1-1.194 1.134 1.183 1.183 0 0 1-1.174-1.153v-5.551a1.214 1.214 0 0 1 1.175-1.21 1.245 1.245 0 0 1 1.213 1.21l-.019 5.57Zm15.442-9.297h-4.217l-1.579 2.708-1.637-2.708h-4.217l3.774 6.3-3.928 6.761h4.14l1.887-3.227 1.945 3.227h4.236l-4.082-6.8 3.678-6.262Z"/></svg>