<?xml version="1.0" encoding="UTF-8" standalone="no"?>
<svg viewBox="0 0 1260.5053 381.81818" fill="none" version="1.1" id="svg8" xmlns="http://www.w3.org/2000/svg" xmlns:svg="http://www.w3.org/2000/svg">
  <defs id="defs8" />
  <g id="g8" transform="matrix(1.8195681,0,0,1.8195681,-17.754797,95.454547)">
    <path d="m 188.21,66.26 c -0.32,-0.33 -0.09,-0.88 0.37,-0.88 h 1.96 c 0,0 0.09,0 0.14,0 17.09,-1.74 31.37,-12.78 31.37,-32.37 0,-22.57 -18.21,-32.9999902 -39.07,-32.9999902 h -97.7 c -1.31,0 -2.38,1.0600002 -2.38,2.3800002 V 102.54 c 0,1.31 1.06,2.38 2.38,2.38 h 31.2 c 1.31,0 2.38,-1.06 2.38,-2.38 V 70.56 c 0,-1.31 1.06,-2.38 2.38,-2.38 h 20.28 c 2.81,0 5.49,1.21 7.36,3.31 l 28.89,32.62 c 0.62,0.28 1.16,0.52 1.78,0.8 h 41.18 c 2.11,0 3.17,-2.54 1.69,-4.05 l -34.2,-34.6 z M 175.2,44.68 h -53.97 c -1.31,0 -2.38,-1.06 -2.38,-2.38 V 27.13 c 0,-1.31 1.06,-2.38 2.38,-2.38 h 53.19 c 7.63,0 12.61,3.74 12.61,9.65 0,6.85 -4.67,10.27 -11.83,10.27 z" fill="#336AEA" id="path1" style="fill:#000000" />
    <path d="m 582.55,0.0100098 h -31.19 c -1.314,0 -2.38,1.0655602 -2.38,2.3800002 V 68.87 c 0,1.3144 1.066,2.38 2.38,2.38 h 31.19 c 1.314,0 2.38,-1.0656 2.38,-2.38 V 2.39001 c 0,-1.31444 -1.066,-2.3800002 -2.38,-2.3800002 z" fill="#336AEA" id="path2" style="fill:#000000" />
    <path d="m 582.55,85.41 h -31.19 c -1.314,0 -2.38,1.0656 -2.38,2.38 v 14.75 c 0,1.314 1.066,2.38 2.38,2.38 h 31.19 c 1.314,0 2.38,-1.066 2.38,-2.38 V 87.79 c 0,-1.3144 -1.066,-2.38 -2.38,-2.38 z" fill="#336AEA" id="path3" style="fill:#000000" />
    <path d="M 711.02,101.78 670.88,48.63 c -0.9,-1.19 -0.82,-2.84 0.18,-3.94 L 708.97,3.11001 c 1.08,-1.19 0.24,-3.1000002 -1.37,-3.1000002 h -32.8 c -0.87,0 -1.7,0.3700022 -2.28,1.0100002 L 635.92,41.25 h -0.02 c -0.12,0.13 -0.28,0.23 -0.48,0.23 h -1.32 c -0.35,0 -0.62,-0.28 -0.63,-0.62 V 2.2 c 0,-1.209995 -0.98,-2.1899902 -2.19,-2.1899902 h -29.99 c -1.21,0 -2.19,0.9799952 -2.19,2.1899902 v 100.4 c 0,1.11 0.9,2.01 2.01,2.01 h 30.34 c 1.11,0 2.01,-0.9 2.01,-2.01 V 83.91 c 0,-0.78 0.3,-1.54 0.83,-2.11 l 13.32,-14.25 c 0,0 0.12,-0.18 0.39,-0.18 h 1.8 c 0.22,0 0.35,0.18 0.35,0.18 l 26.84,35.82 c 0.58,0.78 1.5,1.24 2.47,1.24 h 30.14 c 1.46,0 2.3,-1.67 1.41,-2.84 z" fill="#336AEA" id="path4" style="fill:#000000" />
    <path d="m 270.58,23.98 h 30.51 c 1.31,0 2.38,-1.06 2.38,-2.38 V 2.38 C 303.47,1.07 302.41,0 301.09,0 h -63.11 c -1.31,0 -2.38,1.06 -2.38,2.38 v 100.15 c 0,1.31 1.06,2.38 2.38,2.38 h 63.11 c 1.31,0 2.38,-1.06 2.38,-2.38 V 83.31 c 0,-1.31 -1.06,-2.38 -2.38,-2.38 h -30.73 c -1.31,0 -2.38,-1.06 -2.38,-2.38 V 66.09 c 0,-1.43 1.16,-2.6 2.6,-2.6 h 30.51 c 1.31,0 2.38,-1.06 2.38,-2.38 V 42.36 c 0,-1.31 -1.06,-2.38 -2.38,-2.38 h -30.51 c -1.43,0 -2.6,-1.16 -2.6,-2.6 V 26.54 c 0,-1.43 1.16,-2.6 2.6,-2.6 z" fill="#336AEA" id="path5" style="fill:#000000" />
    <path d="m 352.6,23.98 h 30.51 c 1.31,0 2.38,-1.06 2.38,-2.38 V 2.38 C 385.49,1.07 384.43,0 383.11,0 H 320 c -1.31,0 -2.38,1.06 -2.38,2.38 v 100.15 c 0,1.31 1.06,2.38 2.38,2.38 h 63.11 c 1.31,0 2.38,-1.06 2.38,-2.38 V 83.31 c 0,-1.31 -1.06,-2.38 -2.38,-2.38 h -30.73 c -1.31,0 -2.38,-1.06 -2.38,-2.38 V 66.09 c 0,-1.43 1.16,-2.6 2.6,-2.6 h 30.51 c 1.31,0 2.38,-1.06 2.38,-2.38 V 42.36 c 0,-1.31 -1.06,-2.38 -2.38,-2.38 H 352.6 c -1.43,0 -2.6,-1.16 -2.6,-2.6 V 26.54 c 0,-1.43 1.16,-2.6 2.6,-2.6 z" fill="#336AEA" id="path6" style="fill:#000000" />
    <path d="m 35.87,23.98 h 30.51 c 1.31,0 2.38,-1.06 2.38,-2.38 V 2.38 C 68.76,1.07 67.7,0 66.38,0 H 3.27001 c -1.31,0 -2.379995,1.06 -2.379995,2.38 v 100.15 c 0,1.31 1.059995,2.38 2.379995,2.38 H 30.88 c 1.31,0 2.38,-1.06 2.38,-2.38 L 33.28,66.1 c 0,-1.43 1.16,-2.6 2.6,-2.6 h 30.51 c 1.31,0 2.38,-1.06 2.38,-2.38 V 42.37 c 0,-1.31 -1.06,-2.38 -2.38,-2.38 H 35.88 c -1.43,0 -2.6,-1.16 -2.6,-2.6 V 26.55 c 0,-1.43 1.16,-2.6 2.6,-2.6 z" fill="#336AEA" id="path7" style="fill:#000000" />
    <path d="m 496.49,0.0100098 h -94.46 c -1.31,0 -2.38,1.0600002 -2.38,2.3800002 V 102.54 c 0,1.31 1.06,2.38 2.38,2.38 h 31.2 c 1.31,0 2.38,-1.06 2.38,-2.38 V 69.39 c 0,-0.67 0.54,-1.21 1.21,-1.21 h 59.83 c 23.98,0 42.15,-12.5 42.15,-34.57 0,-22.07 -18.17,-33.5999902 -42.3,-33.5999902 z M 491.95,44.68 h -53.97 c -1.31,0 -2.38,-1.06 -2.38,-2.38 V 27.13 c 0,-1.31 1.06,-2.37 2.38,-2.37 h 53.19 c 7.63,0 12.61,3.73 12.61,9.65 0,6.85 -4.67,10.27 -11.83,10.27 z" fill="#336AEA" id="path8" style="fill:#000000" />
  </g>
</svg>
