<?xml version="1.0" encoding="utf-8"?>
<!-- Generator: Adobe Illustrator 23.0.6, SVG Export Plug-In . SVG Version: 6.00 Build 0)  -->
<svg version="1.1" id="Camada_1" xmlns="http://www.w3.org/2000/svg" xmlns:xlink="http://www.w3.org/1999/xlink" x="0px" y="0px"
	 viewBox="0 0 300 120" style="enable-background:new 0 0 300 120;" xml:space="preserve">
<title>freepik</title>
<path d="M13,39.5c-2,2.1-3.8,4.4-5.2,6.9l-2.2-1.1c-0.3-1.4-1.7-2.4-3.1-2.3c-1.6,0.3-2.6,1.8-2.3,3.3c0.3,1.4,1.6,2.5,3,2.4
	c0.3,0,0.6-0.1,0.8-0.2l2.2,1.1c-1.2,2.6-2,5.4-2.5,8.3l3.5,0.6c1.1-6.2,4.1-11.9,8.4-16.5L13,39.5z"/>
<path d="M38.8,28.6c-0.8,0-1.6,0-2.4,0l-0.3-3c0.9-0.7,1.4-1.9,1.2-3.1c-0.2-1.8-1.9-3.2-3.8-2.9c-1.8,0.2-3.2,1.9-2.9,3.8
	c0.1,1.2,0.9,2.2,1.9,2.6l0.3,3c-3.4,0.5-6.6,1.6-9.7,3.1l1.5,3.2c4.4-2.1,9.2-3.2,14.1-3.2c2.4,0,4.7,0.3,7,0.8l0.8-3.5
	C44,28.8,41.4,28.6,38.8,28.6z"/>
<path d="M69.9,40.6c1.6-0.2,2.7-1.6,2.5-3.2c-0.2-1.6-1.6-2.7-3.2-2.5c-1.4,0.2-2.5,1.4-2.5,2.9l-2,1.7c-2-2.1-4.2-3.9-6.7-5.4
	l-1.9,3c5.3,3.3,9.5,8.2,12.1,13.9l3.3-1.5c-1.2-2.6-2.7-5.1-4.5-7.3l1.9-1.7C69.2,40.7,69.5,40.7,69.9,40.6z"/>
<path d="M36.2,76.9c-1.8,0.1-3.7,0.2-5.5,0.2c-3.9,0-7.8-0.3-11.7-0.9c-2-0.3-4-0.8-6-1.4c7.9,14,25.6,18.9,39.6,11
	c6.7-3.8,11.7-10.2,13.7-17.6c-3.6,2.3-7.5,4.1-11.6,5.3C48.8,75.5,42.6,76.6,36.2,76.9z"/>
<path d="M38.8,35.8c-15.7-0.1-28.5,12.5-28.6,28.2c0,2,0.2,4,0.6,6c3.2,2.3,12.8,4.2,25.2,3.4c13.6-0.8,24.9-4.5,31.4-10.3
	c0-0.9-0.1-1.8-0.2-2.8C65.2,46.2,53.1,35.7,38.8,35.8z M28.6,66.6c-4.8,0-8.8-3.8-8.8-8.7c0-4.8,3.8-8.8,8.7-8.8s8.8,3.8,8.8,8.7
	c0,0,0,0.1,0,0.1C37.3,62.7,33.4,66.6,28.6,66.6C28.6,66.6,28.6,66.6,28.6,66.6z M50.9,62.3c-3.6,0-6.5-2.8-6.5-6.4s2.8-6.5,6.4-6.5
	s6.5,2.8,6.5,6.4c0,0,0,0,0,0C57.3,59.4,54.4,62.3,50.9,62.3z"/>
<path d="M114.1,44.6c-2-0.9-4.3-1.3-6.5-1.1c-2.6,0.3-4,1.6-4,4.8v4.1h10.5v8.1h-10.5v25.9h-9.1V60.5h-6.3v-8.1h6.3v-4.2
	c0-8,4.2-13.2,12.1-13.2c2.6,0,5.1,0.5,7.5,1.5L114.1,44.6z"/>
<path d="M136.3,60.4c-0.8-0.2-1.6-0.2-2.5-0.2c-4.2,0-7.1,2.6-7.1,7.7v18.5h-9.1v-34h8.8v3.7c2.1-3.2,5.4-4.6,9.5-4.6
	c1.9-0.1,3.7,0.5,5.2,1.6L136.3,60.4z"/>
<path d="M172.3,69.3c0,1,0,2.1-0.2,3.1h-23.9c1,4.9,4.4,7.1,8.7,7.1c3.1-0.1,6.1-1.2,8.5-3.2l5.3,5.9c-3.9,3.6-8.7,5.2-14.4,5.2
	c-10.3,0-17.5-7.1-17.5-17.8s7-18,17.1-18C165.6,51.5,172.2,58.7,172.3,69.3z M148.3,66.1h14.9c-0.9-4.4-3.4-6.8-7.3-6.8
	C151.5,59.3,149.1,61.9,148.3,66.1z"/>
<path d="M208.3,69.3c0,1,0,2.1-0.2,3.1h-23.9c1,4.9,4.4,7.1,8.7,7.1c3.1-0.1,6.1-1.2,8.5-3.2l5.3,5.9c-3.9,3.6-8.7,5.2-14.4,5.2
	c-10.3,0-17.5-7.1-17.5-17.8s7-18,17.1-18C201.6,51.5,208.2,58.7,208.3,69.3z M184.3,66.1h14.9c-0.9-4.4-3.4-6.8-7.3-6.8
	C187.6,59.3,185.1,61.9,184.3,66.1L184.3,66.1z"/>
<path d="M247.6,69.3c0,10.2-7,17.9-16.3,17.9c-3.8,0.2-7.5-1.5-9.9-4.4v17.6h-9.1v-48h8.9v3.8c2.4-3.1,6.2-4.8,10.1-4.6
	C240.5,51.5,247.6,59.1,247.6,69.3z M220.8,69.3c0,5.3,3.5,9.4,8.7,9.4c5.4,0,8.7-4.2,8.7-9.4s-3.3-9.4-8.7-9.4
	C224.4,60,220.8,64,220.8,69.3z"/>
<path d="M262.2,41.2c0,3.2-2.7,5.8-5.9,5.7c-3.2,0-5.8-2.7-5.7-5.9c0-3.2,2.6-5.7,5.8-5.7c3.2,0,5.8,2.6,5.8,5.8
	C262.2,41.1,262.2,41.2,262.2,41.2z M261,86.3h-9.1v-34h9.1V86.3z"/>
<polygon points="276.1,64.5 288.8,52.4 300,52.4 283.6,68.3 300,86.3 288.8,86.3 276,72.6 276,86.3 266.9,86.3 266.9,35.8 276,35.8 
	276,64.5 "/>
</svg>
