<?xml version="1.0" encoding="UTF-8" standalone="no"?>
<!-- Uploaded to: SVG Repo, www.svgrepo.com, Generator: SVG Repo Mixer Tools -->

<svg height="32" width="32" version="1.1" id="Capa_1" viewBox="0 0 19.58224 19.58224" xml:space="preserve" sodipodi:docname="freepik-logo-svgrepo-com.svg" inkscape:version="1.4-beta2 (9aaf4f34, 2024-07-30)" xmlns:inkscape="http://www.inkscape.org/namespaces/inkscape" xmlns:sodipodi="http://sodipodi.sourceforge.net/DTD/sodipodi-0.dtd" xmlns="http://www.w3.org/2000/svg" xmlns:svg="http://www.w3.org/2000/svg"><defs id="defs5" /><sodipodi:namedview id="namedview5" pagecolor="#ffffff" bordercolor="#000000" borderopacity="0.25" inkscape:showpageshadow="2" inkscape:pageopacity="0.0" inkscape:pagecheckerboard="0" inkscape:deskcolor="#d1d1d1" inkscape:zoom="3.6622913" inkscape:cx="18.294558" inkscape:cy="56.385466" inkscape:window-width="1440" inkscape:window-height="790" inkscape:window-x="0" inkscape:window-y="0" inkscape:window-maximized="1" inkscape:current-layer="Capa_1" />




<g id="g5" transform="scale(0.04)"><path style="fill:#010001" d="m 191.809,118.41 c 20.576,-6.858 38.46,-11.031 54.65,-12.742 15.865,-1.68 27.796,-2.46 37.545,-2.46 10.43,0 18.139,0.887 26.979,2.326 l 2.502,-15.877 c 0,0 -24.408,-7.502 -56.461,-4.881 l -2.516,-8.641 c 9.951,-2.108 17.42,-10.939 17.42,-21.519 0,-12.15 -9.851,-22 -22,-22 -12.151,0 -22.001,9.851 -22.001,22 0,10.577 7.466,19.409 17.415,21.518 l 2.8,9.614 c -34.029,4.701 -61.128,17.997 -61.128,17.997 z" id="path1" /><path style="fill:#010001" d="m 95.255,183.406 c 0.795,-1.014 1.577,-1.982 2.352,-2.923 l -6.489,-4.723 -10.174,-7.44 c -0.599,0.819 -16.567,15.503 -29.183,42.683 -0.548,-0.859 -1.169,-1.692 -1.883,-2.479 -3.782,-4.172 -9.079,-6.244 -15.781,-6.13 -0.1,0.001 -0.198,0.002 -0.295,0.002 -4.19,0 -7.027,-1.418 -8.915,-3.085 1.861,-2.369 2.981,-5.349 2.981,-8.596 0,-7.694 -6.239,-13.934 -13.934,-13.934 C 6.238,176.781 0,183.02 0,190.715 c 0,7.696 6.238,13.934 13.934,13.934 1.194,0 2.346,-0.166 3.452,-0.448 3.432,3.813 8.883,7.135 16.848,6.991 4.09,-0.066 7.066,0.988 9.1,3.216 2.313,2.533 3.087,6.165 3.318,8.904 -0.013,0.035 -0.026,0.068 -0.04,0.104 -9.097,24.787 -6.479,55.615 -6.479,55.615 l 22.004,0.877 c 0.447,-11.232 2.063,-30.862 7.741,-46.477 10.971,-30.156 24.681,-49.079 25.259,-49.87 z" id="path2" /><path style="fill:#010001" d="m 475.621,121.629 c -7.695,0 -13.934,6.237 -13.934,13.934 0,1.196 0.167,2.351 0.451,3.458 -3.805,3.434 -7.118,8.884 -6.994,16.84 0.064,4.089 -0.987,7.066 -3.215,9.101 -1.744,1.593 -4.01,2.454 -6.146,2.913 -16.414,-22.916 -36.598,-36.961 -36.598,-36.961 l -15.804,16.951 c 11.953,10.889 24.138,24.485 36.018,41.468 8.19,11.708 16.616,26.866 23.657,41.938 l 21.338,-10.1 c 0,0 -9.74,-24.077 -23.466,-45.649 2.391,-0.85 4.795,-2.121 6.886,-4.017 4.172,-3.781 6.235,-9.091 6.13,-15.781 -0.068,-4.353 1.378,-7.278 3.083,-9.209 2.369,1.861 5.348,2.982 8.595,2.982 7.695,0 13.934,-6.239 13.934,-13.934 -0.002,-7.697 -6.24,-13.934 -13.935,-13.934 z" id="path3" /><path style="fill:#010001" d="m 420.261,313.313 c -29.35,14.289 -77.678,33.178 -141.242,42.027 -24.956,3.475 -49.166,4.774 -71.406,4.774 -28.953,0 -54.443,-2.201 -74.079,-4.67 C 111.124,352.625 93,349.161 83,346.758 c 0,0 0,-10e-4 0,-10e-4 0,-0.004 -0.168,-0.009 -0.189,-0.013 2.616,8.292 5.713,16.328 9.374,24.011 0.022,0.047 0.01,0.096 0.033,0.143 0.09,0.189 0.167,0.378 0.259,0.567 0.449,0.937 0.899,1.869 1.365,2.799 0.443,0.88 0.891,1.756 1.348,2.628 0.119,0.227 0.234,0.456 0.354,0.683 6.311,11.895 13.865,22.795 22.506,32.254 29.972,32.823 60.526,37.98 60.833,38.029 l 0.474,0.074 0.456,0.151 c 0.263,0.086 27.358,8.856 68.566,8.857 40.518,0 80.272,-8.169 118.162,-24.282 28.058,-14.353 54.634,-36.176 67.746,-55.639 10.188,-15.03 17.555,-31.102 21.906,-47.783 2.318,-8.883 4.125,-23.034 3.073,-37.989 -8.284,5.508 -21.333,13.461 -39.005,22.066 z" id="path4" /><path style="fill:#010001" d="m 276.593,337.985 c 60.958,-8.486 107.256,-26.543 135.36,-40.165 23.361,-11.323 38.362,-21.579 44.175,-25.807 -5.773,-21.411 -21.713,-55.027 -36.345,-75.943 -41.742,-59.675 -86.766,-75.001 -109.888,-78.82 -8.829,-1.46 -15.895,-2.306 -25.892,-2.306 -9.327,0 -20.865,0.76 -36.312,2.393 -15.485,1.639 -32.736,5.691 -52.74,12.392 -28.084,9.407 -53.487,24.165 -73.465,42.676 l -0.667,0.621 c -2.975,2.753 -9.155,8.475 -16.258,17.528 -0.875,1.221 -13.459,19.258 -23.51,46.889 -7.54,20.73 -7.051,50.95 -7.051,51.252 v 0.085 c 0,7.049 0.256,14.093 1.035,21.079 0.013,0.111 -0.172,0.223 -0.158,0.334 0.099,0.871 0.123,1.739 0.123,2.607 0,10e-4 0,0.002 0,0.003 1,4.923 1.559,9.89 2.553,14.727 0.012,0.003 0.089,0.087 0.101,0.087 h 0.031 c 14.573,3.999 101.624,23.91 198.908,10.368 z m 83.514,-161.31 c 20.047,0 36.301,16.253 36.301,36.302 0,20.049 -16.253,36.3 -36.301,36.3 -20.048,0 -36.302,-16.252 -36.302,-36.3 0,-20.048 16.254,-36.302 36.302,-36.302 z M 188.463,175.21 c 32.402,0 58.67,26.268 58.67,58.668 0,32.403 -26.268,58.669 -58.67,58.669 -32.401,0 -58.669,-26.266 -58.669,-58.669 0,-32.401 26.268,-58.668 58.669,-58.668 z M 75.286,313.053 c 0.623,4.729 1.419,9.505 2.41,14.303 -0.993,-4.798 -1.788,-9.574 -2.41,-14.303 z" id="path5" /></g>
</svg>
