<?xml version="1.0" encoding="UTF-8" standalone="no"?>
<svg viewBox="0 0 32 32" version="1.1" id="svg1" sodipodi:docname="game-jolt.svg" inkscape:version="1.4-beta2 (9aaf4f34, 2024-07-30)" xmlns:inkscape="http://www.inkscape.org/namespaces/inkscape" xmlns:sodipodi="http://sodipodi.sourceforge.net/DTD/sodipodi-0.dtd" xmlns="http://www.w3.org/2000/svg" xmlns:svg="http://www.w3.org/2000/svg">
  <defs id="defs1" />
  <sodipodi:namedview id="namedview1" pagecolor="#ffffff" bordercolor="#000000" borderopacity="0.25" inkscape:showpageshadow="2" inkscape:pageopacity="0.0" inkscape:pagecheckerboard="0" inkscape:deskcolor="#d1d1d1" inkscape:zoom="3.3992945" inkscape:cx="38.537408" inkscape:cy="41.332105" inkscape:window-width="1440" inkscape:window-height="872" inkscape:window-x="0" inkscape:window-y="0" inkscape:window-maximized="1" inkscape:current-layer="svg1" />
  <path d="M 8.4705879,1.5e-7 V 3.7647061 H 6.5882349 V 7.5294119 H 4.7058821 V 11.294119 H 2.8235292 v 3.764705 H 0.94117615 v 3.764705 H 12.235295 v 3.764707 h -1.882354 v 1.882354 1.882352 H 8.4705879 v 3.764706 h 1.8823531 v -1.882353 h 1.882354 v -1.882353 h 1.882352 V 24.47059 H 16 v -1.882354 h 1.882353 v -1.882353 h 1.882352 v -1.882354 h 1.882354 v -1.882352 h 1.882353 v -1.882353 h 1.882354 v -1.882353 h 1.882352 v -1.882352 h 1.882353 V 9.4117649 h -5.647059 v -1.882353 h 1.882354 v -1.882353 h 1.882352 V 3.7647061 h 1.882353 V 1.8823532 h 1.882353 V 1.5e-7 Z m 0,30.11764785 H 6.5882349 V 32 h 1.882353 z M 10.352941,3.7647061 h 13.176471 v 1.8823528 h -1.882353 v 1.882353 h -1.882354 v 1.882353 H 17.882353 V 11.294119 H 16 v 1.882352 h 1.882353 v 1.882353 h 1.882352 v -1.882353 h 1.882354 v 1.882353 h -1.882354 v 1.882353 H 17.882353 V 15.058824 H 16 v -1.882353 h -1.882353 v 1.882353 h -1.882352 v -1.882353 h -1.882354 v 1.882353 H 8.4705879 v -1.882353 h -1.882353 v -1.882352 h 1.882353 V 7.5294119 H 10.352941 Z M 8.4705879,11.294119 v 1.882352 h 1.8823531 v -1.882352 z m 3.7647071,1.882352 h 1.882352 v -1.882352 h -1.882352 z" id="path1" style="stroke-width:1.88235" />
</svg>
