<?xml version="1.0" encoding="UTF-8" standalone="no"?>
<svg class="hidden-laptop hidden-desktop" width="32" height="32" viewBox="0 0 32 32" fill="none" version="1.1" id="svg6" xmlns="http://www.w3.org/2000/svg" xmlns:svg="http://www.w3.org/2000/svg">
  <defs id="defs6" />
  <g id="g6" transform="translate(6.2370985)">
    <path fill-rule="evenodd" clip-rule="evenodd" d="m 12.015472,22.229272 c -0.04471,-0.03733 -0.106675,-0.04631 -0.160213,-0.02336 -1.029503,0.442512 -2.1642361,0.687647 -3.3567617,0.687647 C 3.8049154,22.893561 0,19.094047 0,14.407104 0,9.7201597 3.8049154,5.9206622 8.4984973,5.9206622 c 4.6936067,0 8.4985777,3.7994975 8.4985777,8.4864418 0,2.083728 -0.75186,3.991592 -1.999528,5.468663 -0.05153,0.06092 -0.048,0.150902 0.0079,0.20773 1.245261,1.263562 1.991582,2.891214 1.991582,4.66447 C 16.997073,28.731693 13.215299,32 8.4984954,32 3.7817102,32 0,28.731693 0,24.747967 0,24.662082 0.07050362,24.593614 0.15649715,24.593614 H 3.5605187 c 0.082563,0 0.1479319,0.06911 0.1479319,0.151544 0,1.038011 0.5499406,1.967181 1.4182276,2.631871 0.8681265,0.664609 2.0607639,1.071322 3.3718191,1.071322 1.3110796,0 2.5037647,-0.406713 3.3718517,-1.071322 0.868327,-0.66469 1.418235,-1.59386 1.418235,-2.631871 0,-0.978775 -0.489146,-1.861148 -1.273112,-2.515886 z M 8.4984973,19.498994 c 2.8161637,0 5.0991147,-2.27974 5.0991147,-5.09189 0,-2.812151 -2.282951,-5.0918912 -5.0991147,-5.0918912 -2.8161395,0 -5.0990903,2.2797402 -5.0990903,5.0918912 0,2.81215 2.2829508,5.09189 5.0990903,5.09189 z" fill="#0D1D96" id="path1" style="fill:#000000;stroke-width:0.802669" />
    <path fill-rule="evenodd" clip-rule="evenodd" d="m 13.56976,0 c -0.822335,0 -1.488951,0.66900924 -1.488951,1.4942724 v 0.201478 c 0,0.825264 0.666616,1.4942805 1.488951,1.4942805 h 2.777234 v 2.787075 c 0,0.8252642 0.666696,1.4942804 1.489031,1.4942804 h 0.200747 c 0.822334,0 1.489031,-0.6690162 1.489031,-1.4942804 V 3.1900309 1.4942724 c 0,-0.80529674 -0.634831,-1.46181047 -1.429633,-1.49310496 C 18.08389,6.8251835e-4 18.07153,3.4771776e-4 18.05917,1.64809e-4 18.051702,5.5064048e-5 18.044237,0 18.036772,0 h -1.689778 z" fill="#4AA9FC" id="path2" style="fill:#000000;stroke-width:0.802669" />
  </g>
</svg>
