<?xml version="1.0" encoding="UTF-8"?><svg id="a" xmlns="http://www.w3.org/2000/svg" viewBox="0 0 280 80"><defs><style>.c{stroke-width:0px;}</style></defs><g id="b"><path class="c" d="m57.93,23.55c1.03-1.4,2.7-2.15,4.48-1.96.19.84.19,1.77.19,2.61v25.46c-.09,1.4.56,2.8,1.77,3.54,1.49.93,3.36.56,5.04.65,5.13,0,10.17-.09,15.3.09.09,1.4-.47,2.7-1.59,3.64-1.31,1.03-2.98.84-4.48.84h-16.6c-1.4.09-2.8-.47-3.82-1.49-.93-1.03-1.31-2.42-1.21-3.82v-26.49c.09-1.03.37-2.15.93-3.08Z"/><path class="c" d="m112.59,22.06c1.03-.47,2.15-.56,3.17-.37.09,9.61,0,19.21.09,28.82,0,1.77,1.21,3.26,2.89,3.64-.09,1.03-.37,1.96-.93,2.89-1.49,1.87-4.2,2.15-5.97.65-.19-.09-.28-.28-.37-.37-.75-.84-1.12-1.87-1.03-2.98v-28.26c-.19-1.68.65-3.26,2.15-4.01Z"/><path class="c" d="m134.41,23.65c.93-1.77,2.98-2.52,4.85-1.87.19,5.5,0,11.1.09,16.6-.09,1.49.09,2.98-.09,4.48l-.37.37c-1.68-2.8-3.45-5.5-4.94-8.39-.09-2.52,0-4.94-.09-7.46.09-1.21-.09-2.61.56-3.73Z"/><path class="c" d="m169.11,22.72c1.03-1.12,2.7-1.21,4.2-1.03.09,9.51,0,18.93.09,28.45,0,.93.19,1.87.75,2.7.65.65,1.4,1.12,2.24,1.31-.09,1.68-.93,3.54-2.61,4.1-2.05.84-4.48-.09-5.41-2.24-.19-.37-.28-.75-.28-1.12-.09-9.14,0-18.28,0-27.42-.19-1.68-.28-3.54,1.03-4.76Z"/><path class="c" d="m203.33,21.69c1.03-.37,2.05-.47,3.08-.28v17.25c-.09,3.64,1.03,7.27,3.08,10.26,1.77,2.33,4.29,3.92,7.09,4.48,4.01.93,8.21.56,11.94-1.21.28.75-.47,1.31-.93,1.87-2.7,2.7-6.44,4.29-10.26,4.29-3.73.19-7.65-.56-10.63-2.89-2.89-2.33-4.76-5.69-5.32-9.42-.37-2.52-.47-5.04-.37-7.55v-13.06c0-1.4.93-2.98,2.33-3.73Z"/><path class="c" d="m225.81,21.69c.93-.37,2.05-.47,3.08-.19v16.6c.09,2.33-.47,4.76-1.59,6.81-1.03,1.59-2.8,2.61-4.76,2.8.47-1.59.75-3.17.84-4.85.09-5.78,0-11.47,0-17.25,0-1.68.93-3.26,2.42-3.92Z"/><path class="c" d="m258.46,23c.56-.37,1.21-.65,1.87-.56-1.87,2.61-2.42,6.06-1.4,9.14.93,2.61,2.98,4.66,5.6,5.78,2.98,1.4,6.34,1.59,9.61,2.33,1.49.19,2.89,1.03,3.92,2.15.84,1.4.65,3.17-.56,4.29-1.21,1.03-2.7,1.59-4.29,1.68,0-1.12-.56-2.15-1.49-2.7-2.15-1.21-4.76-1.21-7.09-1.77-3.54-.65-7.27-2.05-9.51-4.94-2.05-2.8-2.61-6.34-1.4-9.61.75-2.52,2.52-4.48,4.76-5.78Z"/><path class="c" d="m18.11,24.95c4.48-2.24,9.89-1.31,13.24,2.33v4.66h-4.57c-2.33-2.24-5.41-3.54-8.67-3.45-1.49-.09-2.89.47-4.38.75.75-1.96,2.61-3.36,4.38-4.29Z"/><path class="c" d="m267.6,24.3c3.45-1.12,7.27-.56,10.17,1.68.75.37,1.4.84,2.05,1.31,0,2.24-1.96,4.57-4.29,4.38-1.87-.09-3.08-1.68-4.66-2.33-1.77-.93-3.82-1.03-5.78-1.03-.09-1.77.93-3.45,2.52-4.01Z"/><path class="c" d="m69.31,24.86c5.13-.09,10.26,0,15.39,0,.19,1.49-.37,2.98-1.59,3.82-1.31.93-2.89.65-4.38.65-3.08-.09-6.25.09-9.42-.09,0-1.4,0-2.89,0-4.38Z"/><path class="c" d="m4.58,28.22c.37-.28.65-1.03,1.31-.65-1.77,4.29-1.87,9.14-.37,13.52,1.87,5.5,6.16,9.89,11.57,11.94,3.08,1.12,6.44,1.4,9.7.93,1.49-.28,2.98-.65,4.48-1.12,0,.47-.28.84-.56,1.12-7.55,6.81-19.12,6.16-25.83-1.31-6.44-7-6.44-17.44-.28-24.44Z"/><path class="c" d="m122.57,29.52c.65-.09.84.56,1.12.93,4.01,6.81,8.11,13.52,12.12,20.24.56,1.21,1.49,2.15,2.7,2.8,1.12.37,2.24.56,3.45.37-.19,1.96-1.49,3.54-3.36,4.2-2.05.75-4.2.47-5.97-.75-.84-.65-1.49-1.49-2.05-2.42-2.42-4.01-4.85-8.02-7.27-12.03-.47-.56-.65-1.12-.75-1.77,0-3.82,0-7.65,0-11.57Z"/><path class="c" d="m18.85,38.38c.75-1.31,2.05-2.15,3.54-2.33.28,1.87,1.4,3.82,3.45,4.2,1.87.19,3.64,0,5.5.09v3.64c-1.49,1.31-3.36,2.15-5.41,2.52v-1.77c-1.87-.28-3.82.37-5.5-.65-1.96-1.12-2.7-3.64-1.59-5.69Z"/><path class="c" d="m69.31,39.6c.37-.09.75-.19,1.21-.19h13.24c.47,1.96-.75,4.01-2.7,4.48-.09,0-.19.09-.28.09-2.24.28-4.57.09-6.81.09-1.49-.09-3.08.19-4.57-.19-.09-1.49-.09-2.89-.09-4.29Z"/><path class="c" d="m254.82,46.96c.84-.28,1.77-.28,2.7-.09.09,1.03.56,2.05,1.4,2.8,5.13,4.01,11.84,5.41,18.09,3.64.93-.37,1.96-.65,2.98-.84-1.31,2.61-3.92,4.2-6.62,5.13-5.88,1.87-12.31,1.12-17.63-2.05-1.4-.84-3.08-1.87-3.45-3.64-.47-2.15.65-4.1,2.52-4.94Z"/></g></svg>