<?xml version="1.0" encoding="UTF-8" standalone="no"?>
<svg id="a" viewBox="0 0 32 32" version="1.1" sodipodi:docname="genius.svg" width="32" height="32" inkscape:version="1.4-beta2 (9aaf4f34, 2024-07-30)" xmlns:inkscape="http://www.inkscape.org/namespaces/inkscape" xmlns:sodipodi="http://sodipodi.sourceforge.net/DTD/sodipodi-0.dtd" xmlns="http://www.w3.org/2000/svg" xmlns:svg="http://www.w3.org/2000/svg">
  <defs id="defs15" />
  <sodipodi:namedview id="namedview15" pagecolor="#ffffff" bordercolor="#000000" borderopacity="0.25" inkscape:showpageshadow="2" inkscape:pageopacity="0.0" inkscape:pagecheckerboard="0" inkscape:deskcolor="#d1d1d1" inkscape:zoom="3.184106" inkscape:cx="16.017055" inkscape:cy="19.000624" inkscape:window-width="1440" inkscape:window-height="790" inkscape:window-x="0" inkscape:window-y="0" inkscape:window-maximized="1" inkscape:current-layer="a" />
  <g id="g15" transform="matrix(0.97770814,0,0,0.97770814,1.6401743,-24.2145)">
    <path d="m 16.95,25.9 c 4.2,-2.1 9.26,-1.23 12.4,2.18 v 4.36 h -4.28 c -2.18,-2.1 -5.07,-3.32 -8.12,-3.23 -1.4,-0.08 -2.71,0.44 -4.1,0.7 0.7,-1.84 2.44,-3.15 4.1,-4.02 z" style="stroke-width:0px" id="path8" />
    <path d="m 4.28,28.97 c 0.35,-0.26 0.61,-0.96 1.23,-0.61 -1.66,4.02 -1.75,8.56 -0.35,12.66 1.75,5.15 5.77,9.26 10.84,11.18 2.88,1.05 6.03,1.31 9.09,0.87 1.4,-0.26 2.79,-0.61 4.2,-1.05 0,0.44 -0.26,0.79 -0.52,1.05 C 21.7,59.45 10.86,58.84 4.58,51.84 -1.45,45.28 -1.45,35.51 4.32,28.95 H 4.3 Z" style="stroke-width:0px" id="path11" />
    <path d="m 17.64,38.48 c 0.7,-1.23 1.92,-2.01 3.32,-2.18 0.26,1.75 1.31,3.58 3.23,3.93 1.75,0.18 3.41,0 5.15,0.08 v 3.41 c -1.4,1.23 -3.15,2.01 -5.07,2.36 v -1.66 c -1.75,-0.26 -3.58,0.35 -5.15,-0.61 -1.84,-1.05 -2.53,-3.41 -1.49,-5.33 v 0 z" style="stroke-width:0px" id="path13" />
  </g>
</svg>
