<?xml version="1.0" encoding="utf-8"?>
<!-- Generator: Adobe Illustrator 23.0.6, SVG Export Plug-In . SVG Version: 6.00 Build 0)  -->
<svg version="1.1" id="Camada_1" xmlns="http://www.w3.org/2000/svg" xmlns:xlink="http://www.w3.org/1999/xlink" x="0px" y="0px"
	 viewBox="0 0 300 120" style="enable-background:new 0 0 300 120;" xml:space="preserve">
<title>genius</title>
<g id="_000000ff">
	<path d="M62,42.4c1.1-1.5,2.9-2.3,4.8-2.1c0.2,0.9,0.2,1.9,0.2,2.8c0,9.1,0,18.2,0,27.3c-0.1,1.5,0.6,3,1.9,3.8
		c1.6,1,3.6,0.6,5.4,0.7c5.5,0,10.9-0.1,16.4,0.1c0.1,1.5-0.5,2.9-1.7,3.9c-1.4,1.1-3.2,0.9-4.8,0.9c-5.9,0-11.8,0-17.8,0
		c-1.5,0.1-3-0.5-4.1-1.6c-1-1.1-1.4-2.6-1.3-4.1c0-9.5,0-19,0-28.4C61.1,44.6,61.4,43.4,62,42.4z"/>
	<path d="M120.6,40.8c1.1-0.5,2.3-0.6,3.4-0.4c0.1,10.3,0,20.6,0.1,30.9c0,1.9,1.3,3.5,3.1,3.9c-0.1,1.1-0.4,2.1-1,3.1
		c-1.6,2-4.5,2.3-6.4,0.7c-0.2-0.1-0.3-0.3-0.4-0.4c-0.8-0.9-1.2-2-1.1-3.2c0-10.1,0-20.2,0-30.3C118.1,43.3,119,41.6,120.6,40.8z"
		/>
	<path d="M144,42.5c1-1.9,3.2-2.7,5.2-2c0.2,5.9,0,11.9,0.1,17.8c-0.1,1.6,0.1,3.2-0.1,4.8l-0.4,0.4c-1.8-3-3.7-5.9-5.3-9
		c-0.1-2.7,0-5.3-0.1-8C143.5,45.2,143.3,43.7,144,42.5z"/>
	<path d="M181.2,41.5c1.1-1.2,2.9-1.3,4.5-1.1c0.1,10.2,0,20.3,0.1,30.5c0,1,0.2,2,0.8,2.9c0.7,0.7,1.5,1.2,2.4,1.4
		c-0.1,1.8-1,3.8-2.8,4.4c-2.2,0.9-4.8-0.1-5.8-2.4c-0.2-0.4-0.3-0.8-0.3-1.2c-0.1-9.8,0-19.6,0-29.4
		C179.9,44.8,179.8,42.8,181.2,41.5z"/>
	<path d="M217.9,40.4c1.1-0.4,2.2-0.5,3.3-0.3c0,6.2,0,12.4,0,18.5c-0.1,3.9,1.1,7.8,3.3,11c1.9,2.5,4.6,4.2,7.6,4.8
		c4.3,1,8.8,0.6,12.8-1.3c0.3,0.8-0.5,1.4-1,2c-2.9,2.9-6.9,4.6-11,4.6c-4,0.2-8.2-0.6-11.4-3.1c-3.1-2.5-5.1-6.1-5.7-10.1
		c-0.4-2.7-0.5-5.4-0.4-8.1c0-4.7,0-9.4,0-14C215.4,42.9,216.4,41.2,217.9,40.4z"/>
	<path d="M242,40.4c1-0.4,2.2-0.5,3.3-0.2c0,5.9,0,11.9,0,17.8c0.1,2.5-0.5,5.1-1.7,7.3c-1.1,1.7-3,2.8-5.1,3
		c0.5-1.7,0.8-3.4,0.9-5.2c0.1-6.2,0-12.3,0-18.5C239.4,42.8,240.4,41.1,242,40.4z"/>
	<path d="M277,41.8c0.6-0.4,1.3-0.7,2-0.6c-2,2.8-2.6,6.5-1.5,9.8c1,2.8,3.2,5,6,6.2c3.2,1.5,6.8,1.7,10.3,2.5
		c1.6,0.2,3.1,1.1,4.2,2.3c0.9,1.5,0.7,3.4-0.6,4.6c-1.3,1.1-2.9,1.7-4.6,1.8c0-1.2-0.6-2.3-1.6-2.9c-2.3-1.3-5.1-1.3-7.6-1.9
		c-3.8-0.7-7.8-2.2-10.2-5.3c-2.2-3-2.8-6.8-1.5-10.3C272.7,45.3,274.6,43.2,277,41.8z"/>
	<path d="M19.3,43.9c4.8-2.4,10.6-1.4,14.2,2.5c0,1.7,0,3.3,0,5c-1.6,0-3.2,0-4.9,0c-2.5-2.4-5.8-3.8-9.3-3.7
		c-1.6-0.1-3.1,0.5-4.7,0.8C15.4,46.4,17.4,44.9,19.3,43.9z"/>
	<path d="M286.8,43.2c3.7-1.2,7.8-0.6,10.9,1.8c0.8,0.4,1.5,0.9,2.2,1.4c0,2.4-2.1,4.9-4.6,4.7c-2-0.1-3.3-1.8-5-2.5
		c-1.9-1-4.1-1.1-6.2-1.1C284,45.6,285.1,43.8,286.8,43.2z"/>
	<path d="M74.2,43.8c5.5-0.1,11,0,16.5,0c0.2,1.6-0.4,3.2-1.7,4.1c-1.4,1-3.1,0.7-4.7,0.7c-3.3-0.1-6.7,0.1-10.1-0.1
		C74.2,47,74.2,45.4,74.2,43.8z"/>
	<path d="M4.8,47.4c0.4-0.3,0.7-1.1,1.4-0.7c-1.9,4.6-2,9.8-0.4,14.5c2,5.9,6.6,10.6,12.4,12.8c3.3,1.2,6.9,1.5,10.4,1
		c1.6-0.3,3.2-0.7,4.8-1.2c0,0.5-0.3,0.9-0.6,1.2c-8.1,7.3-20.5,6.6-27.7-1.4C-1.8,66.1-1.8,54.9,4.8,47.4z"/>
	<path d="M131.3,48.8c0.7-0.1,0.9,0.6,1.2,1c4.3,7.3,8.7,14.5,13,21.7c0.6,1.3,1.6,2.3,2.9,3c1.2,0.4,2.4,0.6,3.7,0.4
		c-0.2,2.1-1.6,3.8-3.6,4.5c-2.2,0.8-4.5,0.5-6.4-0.8c-0.9-0.7-1.6-1.6-2.2-2.6c-2.6-4.3-5.2-8.6-7.8-12.9c-0.5-0.6-0.7-1.2-0.8-1.9
		C131.3,57.1,131.3,53,131.3,48.8z"/>
	<path d="M20.1,58.3c0.8-1.4,2.2-2.3,3.8-2.5c0.3,2,1.5,4.1,3.7,4.5c2,0.2,3.9,0,5.9,0.1c0,1.3,0,2.6,0,3.9
		c-1.6,1.4-3.6,2.3-5.8,2.7c0-0.6,0-1.3,0-1.9c-2-0.3-4.1,0.4-5.9-0.7C19.7,63.2,18.9,60.5,20.1,58.3z"/>
	<path d="M74.2,59.6c0.4-0.1,0.8-0.2,1.3-0.2c4.7,0,9.4,0,14.2,0c0.5,2.1-0.8,4.3-2.9,4.8c-0.1,0-0.2,0.1-0.3,0.1
		c-2.4,0.3-4.9,0.1-7.3,0.1c-1.6-0.1-3.3,0.2-4.9-0.2C74.2,62.6,74.2,61.1,74.2,59.6z"/>
	<path d="M273.1,67.5c0.9-0.3,1.9-0.3,2.9-0.1c0.1,1.1,0.6,2.2,1.5,3c5.5,4.3,12.7,5.8,19.4,3.9c1-0.4,2.1-0.7,3.2-0.9
		c-1.4,2.8-4.2,4.5-7.1,5.5c-6.3,2-13.2,1.2-18.9-2.2c-1.5-0.9-3.3-2-3.7-3.9C269.9,70.5,271.1,68.4,273.1,67.5z"/>
</g>
</svg>
