<?xml version="1.0" encoding="UTF-8" standalone="no"?>
<svg version="1.1" id="Layer_1" x="0" y="0" width="32" height="32" viewBox="0 0 32 32" xml:space="preserve" sodipodi:docname="getty-images.svg" inkscape:version="1.4-beta2 (9aaf4f34, 2024-07-30)" xmlns:inkscape="http://www.inkscape.org/namespaces/inkscape" xmlns:sodipodi="http://sodipodi.sourceforge.net/DTD/sodipodi-0.dtd" xmlns="http://www.w3.org/2000/svg" xmlns:svg="http://www.w3.org/2000/svg"><defs id="defs2" /><sodipodi:namedview id="namedview2" pagecolor="#ffffff" bordercolor="#000000" borderopacity="0.25" inkscape:showpageshadow="2" inkscape:pageopacity="0.0" inkscape:pagecheckerboard="0" inkscape:deskcolor="#d1d1d1" inkscape:zoom="0.99019412" inkscape:cx="24.237672" inkscape:cy="82.307093" inkscape:window-width="1440" inkscape:window-height="790" inkscape:window-x="0" inkscape:window-y="0" inkscape:window-maximized="1" inkscape:current-layer="Layer_1" /><g id="g2" transform="matrix(0.32820513,0,0,0.32820513,-0.08205137,0.08205119)"><path class="st0" d="m 39.61,64.18 c 0,2.848 2.575,4.13 10.45,4.13 6.058,0 8.102,-2.849 8.102,-4.13 0,-1.711 -2.8,-4.276 -11.888,-4.276 -5.15,0 -6.664,2.708 -6.664,4.275 z m 8.406,-34.766 c -4.013,0 -6.816,2.706 -6.816,6.126 0,3.42 2.803,6.127 6.816,6.127 3.558,0 6.436,-2.706 6.436,-6.127 0,-3.421 -2.878,-6.126 -6.436,-6.126 z" id="path1" /><path class="st0" d="M 49,-0.25 C 22.076,-0.25 0.25,21.576 0.25,48.5 0.25,75.424 22.076,97.25 49,97.25 75.924,97.25 97.75,75.424 97.75,48.5 97.75,21.576 75.924,-0.25 49,-0.25 Z m 18.022,29.094 c -2.196,0 -4.619,0 -6.057,0.855 1.21,1.567 2.12,3.705 2.12,6.554 0,6.98 -4.999,11.968 -14.843,11.968 -4.088,0 -7.344,0.143 -7.344,2.28 0,5.985 25.898,-2.137 25.898,12.68 0,5.273 -5.68,10.971 -18.25,10.971 -10.602,0 -17.568,-2.99 -17.568,-8.832 0,-4.632 3.71,-6.84 7.118,-6.84 v -0.143 c -1.818,-1.068 -5.831,-1.994 -5.831,-5.984 0,-3.562 4.393,-6.268 6.134,-6.767 -3.256,-2.494 -5.83,-5.343 -5.83,-9.832 0,-6.483 5.3,-12.894 15.523,-12.894 3.332,0 7.27,1.282 9.692,3.277 1.817,-2.28 4.77,-3.42 9.238,-3.277 z" id="path2" /></g></svg>
