<?xml version="1.0" encoding="utf-8"?>
<!-- Generator: Adobe Illustrator 23.0.6, SVG Export Plug-In . SVG Version: 6.00 Build 0)  -->
<svg version="1.1" id="Camada_1" xmlns="http://www.w3.org/2000/svg" xmlns:xlink="http://www.w3.org/1999/xlink" x="0px" y="0px"
	 viewBox="0 0 300 120" style="enable-background:new 0 0 300 120;" xml:space="preserve">
<style type="text/css">
	.st0{fill-rule:evenodd;clip-rule:evenodd;}
</style>
<g>
	<g>
		<path class="st0" d="M130.1,37.9h3.7v-5.3h-3.7V37.9z M130.1,76.3h3.7V44.8h-3.7V76.3z"/>
		<path class="st0" d="M142.3,76.3V44.8h3.7v4.8c3.3-3.4,5.7-5.4,10.7-5.4c3.6,0,6.8,2.2,7.8,5.8c2.9-3.3,6-5.8,10.6-5.8
			c5.6,0,8.5,3,8.5,8.6v23.6h-3.7v-24c0-3.5-2-5.3-5.6-5.3c-2.8,0-7.5,3-9.5,6v23.2H161v-24c0-3.5-2-5.3-5.6-5.3c-2.8,0-7.5,3-9.5,6
			v23.2H142.3z"/>
		<path class="st0" d="M209,58.5c-14.7,3.2-16.7,6.1-16.7,10.1c0,3.5,2.4,5.4,5.7,5.4c3.5,0,7.7-2,10.9-5.2V58.5z M209.6,76.3
			l-0.5-3.8c-3.8,3-6.7,4.4-11.7,4.4c-5,0-8.8-3-8.8-8.2c0-8.6,7.2-10.2,20.5-13.1v-2.2c0-4.2-1.9-6.3-7.3-6.3c-3.8,0-7,2.1-9.3,5.7
			l-2.5-1.5c2.8-5.1,6.7-7.2,11.9-7.2c7.3,0,10.7,2.9,10.7,9.9v16.5c0,1.6,0.1,3.6,0.5,5.8H209.6z"/>
		<path class="st0" d="M231.2,63c5.2,0,8.3-2.4,8.3-7.9c0-5.5-3.1-8.1-8.3-8.1c-5.2,0-8.3,3.2-8.3,8.1C222.8,60.6,226.7,63,231.2,63
			L231.2,63z M221.3,79.3c0,3.1,3.1,5.2,9.7,5.2c8,0,11.5-2.1,11.5-5.4c0-2.6-2.1-5.2-11.7-5.2C223.5,74,221.3,76.6,221.3,79.3
			L221.3,79.3z M246,46.8c-1.7,0-3.8,0.2-5.1,1.5c1.4,1.7,2.3,3.6,2.3,6.6c0,7.8-5.6,11-12.4,11c-2,0-3.6-0.4-5.2-1
			c-2,0.7-3,1.9-3,3c0,1.8,1.2,2.7,9.9,2.7c9.6,0,13.6,3,13.6,8.2c0,4.6-3.6,8.6-14.6,8.6c-11,0-14-3.7-14-7.5c0-2.7,1.1-5,5.6-6.7
			v-0.1c-2.3-0.5-4.3-1.5-4.3-4.1c0-2.7,2.5-4.9,4.8-5.3c-2.9-1.9-4.6-5-4.6-8.2c0-6.9,4.9-11.3,12.7-11.3c3.1,0,5.4,0.9,7.5,2.2
			c1.9-1.8,4.2-2.8,6.7-2.8V46.8z"/>
		<path class="st0" d="M270.2,57.8c-0.7-6.5-3.6-10.6-9.3-10.7c-6.5-0.1-9.3,6.5-9.4,10.7H270.2z M251.6,60.7
			c0,7.2,3,13.3,10.3,13.3c4.1,0,6.2-1.4,9.4-6.4l3,1.6c-3.5,5.6-6.6,7.7-12.7,7.7c-8.4,0-13.7-5.3-13.7-16.4
			c0-9.8,5.1-16.4,13.2-16.4c8.7,0,12.8,6.7,12.8,16.5H251.6z"/>
		<path class="st0" d="M279.2,68.7c3,4.2,5.7,5.3,9.9,5.3c4.1,0,7.2-2.6,7.2-6c0-9.2-18.9-4-18.9-15.2c0-5.9,4.7-8.6,10.2-8.6
			c5.4,0,8.8,2.1,11,5.7l-2.8,1.9c-2.2-2.9-4.5-4.7-8.3-4.7c-3.6,0-6.4,1.7-6.4,5.5c0,7.7,18.9,3.2,18.9,15.4
			c0,5.6-5.3,8.9-11.1,8.9c-4.9,0-9.4-1.9-12.4-6.4L279.2,68.7z"/>
		<path class="st0" d="M13.3,50.3c-3.1,0-5.3,2.2-5.3,5.1c0,2.8,2.2,5.1,5.3,5.1c2.8,0,5-2.2,5-5.1C18.3,52.5,16,50.3,13.3,50.3
			L13.3,50.3z M6.7,79c0,2.4,2,3.4,8.1,3.4c4.7,0,6.3-2.4,6.3-3.4c0-1.4-2.2-3.5-9.3-3.5C7.9,75.5,6.7,77.7,6.7,79L6.7,79z
			 M28.1,49.8c-1.7,0-3.6,0-4.7,0.7c0.9,1.3,1.7,3.1,1.7,5.4c0,5.8-3.9,9.9-11.6,9.9c-3.2,0-5.7,0.1-5.7,1.9c0,5,20.2-1.8,20.2,10.5
			c0,4.4-4.4,9.1-14.2,9.1C5.4,87.3,0,84.8,0,80c0-3.8,2.9-5.7,5.5-5.7v-0.1c-1.4-0.9-4.5-1.7-4.5-5c0-2.9,3.4-5.2,4.8-5.6
			c-2.5-2.1-4.5-4.4-4.5-8.1c0-5.4,4.1-10.7,12.1-10.7c2.6,0,5.7,1.1,7.5,2.7c1.4-1.9,3.7-2.8,7.2-2.7V49.8z"/>
		<path class="st0" d="M48,57c-0.1-4.2-2.4-6.7-5.9-6.7c-3.5,0-5.8,2.5-5.9,6.7H48z M36.2,61.9c0.1,6.4,2.9,8.8,6.4,8.8
			s5-1.5,6.8-3.7l5.3,3.3c-2.8,4.4-7,6.2-12.9,6.2c-8,0-13-6.2-13-15.9s5-15.9,13.3-15.9c8-0.1,12.5,6.7,12.5,14.1v3H36.2z"/>
		<path class="st0" d="M99.5,81.1c1.1,0.2,2,0.2,3.1,0.2c2.5,0,4-0.7,4.8-2.4c0.7-1.5,1.2-2.4,1.2-3.6c0-1.1-0.6-2.4-0.9-3.7
			l-8.2-26.2h7.4l5.1,18.9h0.1l5.2-18.9h7.3l-9.7,30.7c-3.2,8.8-5.8,11.1-11.9,11.1c-1.8,0-2.7-0.1-3.5-0.2V81.1z"/>
		<path class="st0" d="M60.7,45.5v-9.4h8v9.4h6.6v5.9h-6.6v17.3c0,1.7,0.9,2.1,2.9,2.1c1.2,0,2.5-0.4,3.7-0.6v6
			c-2.2,0.2-4.2,0.5-6.4,0.5c-6,0-8.3-2.7-8.3-7.1V51.4H56v-5.9H60.7z"/>
		<path class="st0" d="M81.7,45.5v-9.4h8v9.4h6.6v5.9h-6.6v17.3c0,1.7,0.9,2.1,2.9,2.1c1.2,0,2.5-0.4,3.7-0.6v6
			c-2.2,0.2-4.2,0.5-6.4,0.5c-6,0-8.3-2.7-8.3-7.1V51.4h-4.7v-5.9H81.7z"/>
	</g>
</g>
</svg>
