<?xml version="1.0" encoding="UTF-8"?><svg id="a" xmlns="http://www.w3.org/2000/svg" viewBox="0 0 200 80"><defs><style>.b{stroke-width:0px;}</style></defs><path class="b" d="m62.3,53.2v-26.38c.38,0,.73-.05,1.07-.05h24.77c1.73-.03,3.44.34,5.01,1.06,4.3,2.05,4.95,8.5,1.24,11.05-.15.12-.29.24-.42.38,1.81,1.01,3.22,2.31,3.75,4.34,1.21,4.57-1.49,8.67-6.21,9.42-.76.12-1.53.18-2.31.18h-26.91Zm7.46-6.58h18.24c.35,0,.7-.02,1.05-.07.76-.08,1.37-.68,1.44-1.45.27-1.53-.49-2.39-2.23-2.39h-17.82c-.22.01-.45.04-.67.07v3.83Zm0-13.33v3.85h16.05c.6,0,1.19,0,1.79-.06,1.22-.13,1.65-.58,1.68-1.71,0-1.33-.31-1.81-1.58-2-.38-.05-.77-.07-1.15-.07h-16.79Z"/><path class="b" d="m35.87,26.77v6.56H10.54c-2.39,0-3.09.67-3.1,3.04v7.77c0,1.63.79,2.47,2.35,2.47h18.98c.17-.01.33-.03.49-.06v-3.54H11.08v-5.91h25.33v16.1h-4.88c-.85,0-1.75.15-2.07-1.15-1.57,1.47-3.33,1.15-5.1,1.15H8.25C3.21,53.2.06,50.13,0,45.14v-10.29c.05-4.95,3.13-8,8.13-8.07h27.74Z"/><path class="b" d="m158.05,53.2h-8c-.42-.11-.79-.37-1.04-.73-1.83-2.31-3.63-4.67-5.46-6.94-.21-.31-.53-.52-.89-.59-4.04-.04-8.07,0-12.27,0v8.19h-7.46v-26.29c.31,0,.62-.06.92-.06h24.57c5.7,0,9.41,3.85,9.16,9.47-.19,4.22-2.57,6.79-6.57,8.25l7.03,8.71Zm-27.73-14.67h17.01c1.89,0,2.73-.73,2.77-2.37.05-1.92-.75-2.83-2.67-2.83-5.44,0-10.91,0-16.35,0-.51,0-.79.11-.78.67.02,1.47,0,2.93,0,4.54h0Z"/><path class="b" d="m192.47,26.82h7.53v18.28c0,4.97-3.18,8.11-8.19,8.11h-18.24c-4.79,0-8.31-3.25-8.2-8.11.14-6.05,0-12.11,0-18.25h7.42v16.67c0,2.44.63,3.07,3.03,3.07h13.91c2.03,0,2.71-.67,2.71-2.72v-17.05h.03Z"/><path class="b" d="m113.33,53.14h-7.33v-26.3h7.33v26.3Z"/><path class="b" d="m45.47,26.82h7.29v26.31h-7.29v-26.31Z"/></svg>