<?xml version="1.0" encoding="utf-8"?>
<!-- Generator: Adobe Illustrator 23.0.6, SVG Export Plug-In . SVG Version: 6.00 Build 0)  -->
<svg version="1.1" id="Camada_1" xmlns="http://www.w3.org/2000/svg" xmlns:xlink="http://www.w3.org/1999/xlink" x="0px" y="0px"
	 viewBox="0 0 300 120" style="enable-background:new 0 0 300 120;" xml:space="preserve">
<title>giphy</title>
<path d="M44,35.3h-7.4V28H0v64.1h51.3V42.6H44V35.3z M44,57.3v27.5H7.3V35.3h22v14.7H44V57.3z"/>
<path d="M93.8,65.5h12.6v6.4c-2.8,2-7,2.6-9.5,2.6c-10.1,0-13.4-7.9-13.4-14.3c0-9.9,5.3-14.7,13.4-14.7c4.2-0.1,8.3,1.5,11.3,4.4
	l8.2-8.1c-6.6-6.6-12.6-8.1-19.6-8.1c-18.7,0-27.3,13.4-27.3,26.4s7.5,26.2,27.1,26.2c9.7,0,18.3-3.3,21.4-9.7V54.5H93.8V65.5z"/>
<path d="M171.8,35.3h-24.2v49.6h14.1V71.5h10.1c13.4,0,20-7.9,20-18.1C191.8,43.7,185.2,35.3,171.8,35.3z M171.8,59.6h-10.1V47.4
	h10.1c3.9,0,5.9,2.9,5.9,6.2c0.2,3.2-2.2,5.9-5.4,6C172.1,59.6,172,59.6,171.8,59.6z"/>
<polygon points="284.1,35.3 273.3,52.3 263.2,35.3 247.3,35.3 247.3,35.8 266.1,65.1 266.1,84.9 280.2,84.9 280.2,65.1 300,35.8 
	300,35.3 "/>
<polygon points="228.9,54.1 211,54.1 211,35.3 196.9,35.3 196.9,85.1 211,85.1 211,66.2 228.9,66.2 228.9,85.1 242.9,85.1 
	242.9,35.3 228.9,35.3 "/>
<rect x="124.9" y="35.3" width="13.9" height="49.8"/>
</svg>
