<svg viewBox="0 0 32 32" version="1.1" width="32" height="32" xmlns="http://www.w3.org/2000/svg">
  <path d="m 19.042164,23.582092 a 29.015901,29.015901 0 0 0 3.462903,-1.087191 c 2.214647,-0.966391 3.221304,-2.818641 3.543435,-5.113821 0.32213,-2.134114 0.120799,-4.147429 -1.328788,-5.919147 a 0.68452722,0.68452722 0 0 1 -0.08053,-0.563728 6.0399461,6.0399461 0 0 0 -0.120799,-3.3823696 c -0.120799,-0.402663 -0.32213,-0.563728 -0.724793,-0.483196 -1.248256,0.120799 -2.254914,0.76506 -3.342104,1.328789 a 1.8844632,1.8844632 0 0 1 -1.046924,0.201331 15.70386,15.70386 0 0 0 -6.845272,0 1.3811343,1.3811343 0 0 1 -1.127457,-0.201331 C 10.425178,7.8782324 9.41852,7.4353034 8.371596,7.0326394 7.848134,6.8313084 7.485737,7.0729094 7.364938,7.6366344 a 7.0788168,7.0788168 0 0 0 -0.08053,3.1810376 1.0751104,1.0751104 0 0 1 -0.120799,0.724794 7.3526277,7.3526277 0 0 0 4.348761,11.596696 c 0.483196,0.08053 0.966391,0.161066 1.369054,0.241598 -0.281864,0.684527 -0.523462,1.328788 -0.765059,1.973049 A 0.58386145,0.58386145 0 0 1 11.753968,25.67594 3.2696241,3.2696241 0 0 1 7.485739,24.347151 3.3098904,3.3098904 0 0 0 5.633489,22.736499 7.0908967,7.0908967 0 0 0 4.304701,22.6157 0.57178156,0.57178156 0 0 0 4.224171,22.857298 l 0.603995,0.603995 c 0.563728,0.603994 1.288522,1.167723 1.570386,1.892516 0.885859,2.29518 2.979707,2.778375 5.033288,2.496511 0.161066,-0.04027 0.322131,-0.04027 0.563729,-0.08053 0,1.127456 0.04027,2.214646 -0.04027,3.26157 -0.04027,0.44293 -0.603994,0.603995 -1.248255,0.402664 A 15.301197,15.301197 0 0 1 5.35162,28.29325 15.981697,15.981697 0 1 1 27.820219,5.6233194 C 35.470818,13.958444 32.168981,27.52819 21.578942,31.434022 a 1.3126816,1.3126816 0 0 1 -0.563729,0.161065 C 20.330686,31.715886 19.96829,31.434022 19.96829,30.749494 v -3.946098 c 0.04027,-1.207989 -0.161066,-2.295179 -0.926126,-3.221304 z" fill="#000" style="stroke-width:0.402663" />
</svg>
