<svg id="Camada_1" data-name="Camada 1" xmlns="http://www.w3.org/2000/svg" viewBox="0 0 200 80"><defs><style>.cls-1{fill:#171321;}</style></defs><g id="LOGO"><path class="cls-1" d="M44.16,35.5l-.06-.17L38,19.39a1.67,1.67,0,0,0-.63-.76,1.62,1.62,0,0,0-2.23.49,1.75,1.75,0,0,0-.2.44L30.81,32.19H14.1L10,19.56a1.63,1.63,0,0,0-2-1.12,1.59,1.59,0,0,0-1.06.95l-6.11,16-.06.16A11.34,11.34,0,0,0,4.52,48.61l0,0,0,0,9.3,7,4.61,3.49,2.8,2.12a1.91,1.91,0,0,0,2.29,0l2.8-2.12L31,55.63l9.36-7,0,0A11.35,11.35,0,0,0,44.16,35.5Z"/><path class="cls-1" d="M80.75,34.67h6.56c-1.09-7-7.14-11.85-15-11.85C63,22.82,56,29.67,56,41.13c0,11.26,6.67,18.24,16.49,18.24,8.8,0,15.11-5.66,15.11-14.83V40.26H73.17v5h8.2c-.1,5.07-3.49,8.29-8.84,8.29-6,0-10-4.47-10-12.53s4.15-12.45,9.9-12.45A8.16,8.16,0,0,1,80.75,34.67Z"/><path class="cls-1" d="M92,58.88h6.29V32.22H92ZM95.12,28a3.42,3.42,0,1,0,0-6.83,3.55,3.55,0,0,0-3.65,3.42A3.51,3.51,0,0,0,95.11,28Z"/><path class="cls-1" d="M117.07,32.22H111.8V25.81h-6.29v6.41h-3.78v4.86h3.78V51.92c0,5,3.62,7.49,8.34,7.34a12.53,12.53,0,0,0,3.7-.62l-1.06-4.92a7.62,7.62,0,0,1-1.84.25c-1.58,0-2.85-.56-2.85-3.1V37.07h5.27Z"/><path class="cls-1" d="M121.93,58.88H144v-5.4H128.38V23.31h-6.45Z"/><path class="cls-1" d="M156.09,59.42c4.18,0,6.68-2,7.83-4.2h.21v3.66h6.05V41c0-7.05-5.75-9.17-10.84-9.17-5.61,0-9.91,2.5-11.3,7.36l5.87.84c.62-1.83,2.39-3.39,5.48-3.39,2.92,0,4.51,1.49,4.51,4.12v.1c0,1.8-1.89,1.89-6.6,2.39-5.17.56-10.12,2.11-10.12,8.12C147.16,56.64,151,59.42,156.09,59.42Zm2.07-4.61c-2.63,0-4.51-1.2-4.51-3.51s2.11-3.42,4.91-3.82c1.65-.23,4.95-.64,5.76-1.3v3.14c0,3-2.38,5.48-6.16,5.48Z"/><path class="cls-1" d="M174.81,58.88H181v-4.2h.36A8,8,0,0,0,189,59.35c6.29,0,11-5,11-13.77s-4.85-13.72-11-13.72a7.92,7.92,0,0,0-7.63,4.76h-.27V23.31h-6.28ZM181,45.54c0-5.18,2.22-8.53,6.27-8.53s6.34,3.56,6.34,8.53-2.19,8.65-6.34,8.65S181,50.72,181,45.54Z"/></g></svg>