<?xml version="1.0" encoding="UTF-8"?><svg id="a" xmlns="http://www.w3.org/2000/svg" viewBox="0 0 229.3 80"><path d="m220.51,32.04h8.68c.07,0,.11-.06.11-.13v-8.55c0-2.09-.69-3.79-2.1-4.98-1.28-1.09-3.22-1.75-5.81-1.88-.07,0-.11.05-.11.13v3.22c0,.06.05.11.1.11,2.27.16,3.99.89,3.99,3.44h-4.87c-.07,0-.11.06-.11.13v8.38c0,.07.06.13.11.13h.01Zm-187.6,6.92h-10.51c-.16,0-.26.15-.26.29v5.65c0,.18.14.29.26.29h3.74v4.55c0,3.38-.83,5.19-3.74,5.19-2.43,0-4.16-1.47-4.16-6.05v-13.21c0-4.39,1.31-6.44,4.21-6.44,2.61,0,3.68,1.61,3.68,4.6v1.7c0,.18.14.29.28.29h6.47c.16,0,.28-.15.28-.29v-1.99c.06-7.11-3.73-10.86-10.56-10.86s-11.29,4.06-11.29,12.61v14.14c0,8.42,5.19,12.07,10.95,12.07,6.45,0,10.95-2.55,10.95-11.95v-10.31c0-.15-.1-.28-.25-.29h-.01.01s-.02.01-.02.01Zm20.13,15.05h-10.11v-30.34c0-.18-.14-.29-.28-.29h-6.36c-.16,0-.26.15-.26.29v36.86c0,.18.14.29.26.29h16.73c.16,0,.28-.15.28-.29v-6.21c0-.18-.14-.29-.28-.29h.01v-.02Zm95.02-18.63c0-8.5,4.37-12.65,11.04-12.65s11.02,4.16,10.98,12.65v13.47c0,8.61-4.09,12.58-10.98,12.58s-11.04-3.89-11.04-12.58v-13.47Zm11.04,19.58c2.79,0,3.94-2.04,3.94-6.37v-12.9c0-4.33-1.12-6.44-3.94-6.44s-3.94,2.18-3.94,6.44v12.9c0,4.36,1.16,6.37,3.94,6.37Zm24.71-32.23c-6.67,0-11.04,4.14-11.04,12.65v13.47c0,8.69,4.16,12.58,11.04,12.58s10.98-3.97,10.98-12.58v-13.47c.03-8.48-4.39-12.65-10.98-12.65Zm3.94,25.85c0,4.33-1.16,6.37-3.94,6.37s-3.94-2.03-3.94-6.37v-12.9c0-4.25,1.12-6.44,3.94-6.44s3.94,2.1,3.94,6.44v12.9Zm-63.01-25.22h9.54v.03c6.45,0,11.32,3.54,11.32,12.29v12.84c0,8.66-4.75,12.29-11.38,12.29h-9.47c-.14,0-.28-.11-.28-.29V23.69c0-.16.1-.32.28-.32Zm9.16,30.62c2.88,0,4.68-1.97,4.68-6.59h.01v-11.24c0-4.67-1.89-6.55-4.76-6.55h-2.63v24.36h2.69Zm-43.96-31.32h-.1c-6.57,0-10.03,4.05-10.03,10.12s4.08,9.26,7.45,11.68l.65.47.78.57h0c2.37,1.72,4.21,3.05,4.21,5.96,0,2.44-1.5,3.42-3.24,3.46-1.93.05-3.31-1.54-3.31-3.53v-3.22c0-.21-.16-.37-.36-.37h-6.16c-.21,0-.36.16-.36.37v3.27c0,6.45,3.63,10.04,10.02,10.04s10.26-3.66,10.26-10.09-3.97-9.58-7.42-12.11l-.11-.08c-.38-.28-.76-.55-1.14-.81-2.36-1.69-4.56-3.24-4.56-5.68s1.52-3.54,3.3-3.54c1.9,0,3.26,1.47,3.26,3.42v2.84c0,.21.17.37.36.37h6.16c.21,0,.36-.16.36-.37v-2.76c.01-6.34-3.81-9.99-10.01-10.02h0Zm22.09,0h.1c6.2.03,10.01,3.68,10.01,10.02v2.76c0,.21-.15.37-.36.37h-6.16c-.21,0-.37-.17-.36-.37h0v-2.85c0-1.95-1.35-3.42-3.26-3.42-1.77,0-3.3,1.14-3.3,3.54s2.2,3.99,4.56,5.68c.38.26.76.54,1.14.81l.11.08c3.45,2.52,7.42,5.41,7.42,12.11s-3.88,10.09-10.26,10.09-10.02-3.58-10.02-10.03v-3.27c0-.21.15-.37.36-.37h6.16c.19,0,.36.16.36.37v3.22c0,1.99,1.4,3.58,3.31,3.53,1.74-.05,3.24-1.02,3.24-3.46,0-2.92-1.83-4.24-4.21-5.96-.25-.18-.52-.38-.78-.57l-.64-.47h0c-3.37-2.43-7.45-5.37-7.45-11.69s3.46-10.12,10.03-10.12h-.01Zm105.99,12.22v-3.1c0-4.71-3.63-8.42-7.81-8.42h-12.39c-.15,0-.26.13-.26.29v36.83c0,.16.13.29.26.29h6.06c.16,0,.26-.15.26-.29v-15.33h2.97c2.76,0,3.63,1.1,3.63,3.9v11.4c0,.18.14.29.26.29h6.26c.16,0,.29-.14.29-.29v-11.19c0-3.82-.97-6.26-3.46-7.27,2.5-1.1,3.92-3.3,3.92-7.12h0Zm-6.79,1.3c0,1.54-1.15,2.76-2.55,2.76h-4.61v-9.36h4.61c1.41,0,2.55,1.23,2.55,2.75v3.84ZM63.94,23.39h6.45c.11,0,.24.09.26.24l8.37,36.78c.08.21-.08.4-.26.4h-6.18c-.1,0-.24-.1-.26-.24l-1.32-6.59h-7.72l-1.32,6.59c-.02.14-.14.24-.28.24h-6.18c-.18,0-.32-.19-.28-.4l8.43-36.78c.01-.14.13-.24.28-.24Zm3.14,11.68l-2.55,12.73h5.16l-2.55-12.73-.03.18s-.02-.18-.03-.17h0ZM8.79,23.38H.11c-.07,0-.11.06-.11.13v8.38c0,.07.06.13.11.13h4.87c0,2.56-1.72,3.28-3.99,3.44-.06,0-.11.06-.1.11v3.22c0,.07.06.13.11.11,2.58-.13,4.52-.79,5.81-1.88,1.4-1.19,2.1-2.89,2.1-4.98v-8.55c0-.07-.06-.13-.11-.13h-.01Z" style="fill-rule:evenodd; stroke-width:0px;"/></svg>