<?xml version="1.0" encoding="UTF-8" standalone="no"?>
<svg width="32" height="32" viewBox="0 0 32 32" fill="none" version="1.1" id="svg2" sodipodi:docname="glassdoor.svg" inkscape:version="1.4-beta2 (9aaf4f34, 2024-07-30)" xmlns:inkscape="http://www.inkscape.org/namespaces/inkscape" xmlns:sodipodi="http://sodipodi.sourceforge.net/DTD/sodipodi-0.dtd" xmlns="http://www.w3.org/2000/svg" xmlns:svg="http://www.w3.org/2000/svg">
  <defs id="defs2" />
  <sodipodi:namedview id="namedview2" pagecolor="#ffffff" bordercolor="#000000" borderopacity="0.25" inkscape:showpageshadow="2" inkscape:pageopacity="0.0" inkscape:pagecheckerboard="0" inkscape:deskcolor="#d1d1d1" inkscape:zoom="3.2728387" inkscape:cx="39.72087" inkscape:cy="60.039622" inkscape:window-width="1440" inkscape:window-height="872" inkscape:window-x="0" inkscape:window-y="0" inkscape:window-maximized="1" inkscape:current-layer="svg2" />
  <path class="SvgLink__SvgLink-module__innerLogo" fill-rule="evenodd" clip-rule="evenodd" d="m 17.267215,21.981615 c 0,0.09983 0.07977,0.179598 0.179597,0.179598 H 30.78691 c 0.09983,0 0.179598,-0.07977 0.179598,-0.179598 V 9.7889987 c 0,-2.983424 -1.06756,-5.407998 -3.222738,-7.104153 C 25.758163,1.1283287 22.784767,0.19042299 18.813703,8.4218675e-4 18.713873,-0.00912781 18.634105,0.07069119 18.634105,0.17047259 V 4.7701297 c 0,0.0898 0.06989,0.159693 0.159693,0.16972 3.492136,0.229437 6.146146,1.267065 6.146146,4.909015 h -7.493132 c -0.09983,0 -0.179597,0.07977 -0.179597,0.1795983 z M 1.0334915,10.028463 c 0,-0.09983 0.07977,-0.1795983 0.179598,-0.1795983 H 14.553188 c 0.09983,0 0.179597,0.07977 0.179597,0.1795983 v 12.182738 c 0,2.983274 -1.067561,5.407848 -3.222738,7.104003 -1.9856065,1.556517 -4.9588525,2.494468 -8.9300665,2.683944 -0.09968,0.01003 -0.179598,-0.06974 -0.179598,-0.169571 V 27.22992 c 0,-0.0898 0.06989,-0.159692 0.159693,-0.16972 3.492135,-0.229437 6.146296,-1.267065 6.146296,-4.909015 h -7.493282 c -0.099827,0 -0.179598,-0.07977 -0.179598,-0.179598 z" fill="#000000" id="path1" style="stroke-width:1.49665" />
</svg>
