<svg id="Camada_1" data-name="Camada 1" xmlns="http://www.w3.org/2000/svg" viewBox="0 0 300 120"><defs><style>.cls-1{fill-rule:evenodd;}</style></defs><title>glassdor</title><path class="cls-1" d="M300,44a1,1,0,0,0-.53-.83,8.06,8.06,0,0,0-3.68-.58c-4.56,0-8.59,2.27-10.35,6V44a.72.72,0,0,0-.72-.73H277.9a.72.72,0,0,0-.72.72h0V75.17a.73.73,0,0,0,.72.73H285a.73.73,0,0,0,.73-.73v-14c0-6.26,4.35-9.37,10-9.37a11.52,11.52,0,0,1,3.3.51.71.71,0,0,0,.91-.7ZM254.34,68.25a8.35,8.35,0,0,1-8.66-8.67,8.66,8.66,0,1,1,17.32,0,8.35,8.35,0,0,1-8.66,8.67Zm0-25.76c-10,0-17.51,6.92-17.51,17.09s7.49,17.09,17.51,17.09,17.51-6.92,17.51-17.09S264.36,42.49,254.34,42.49ZM214.59,68.25a8.35,8.35,0,0,1-8.66-8.67,8.66,8.66,0,1,1,17.31,0A8.34,8.34,0,0,1,214.59,68.25Zm0-25.76c-10,0-17.51,6.92-17.51,17.09s7.48,17.09,17.51,17.09,17.51-6.92,17.51-17.09S224.61,42.49,214.59,42.49Zm-39.7,25.84c-4.88,0-8.53-3.45-8.53-8.73s3.65-8.74,8.53-8.74,8.53,3.32,8.53,8.74S179.71,68.33,174.89,68.33ZM191,30.25h-7.15a.72.72,0,0,0-.72.72V48a13,13,0,0,0-10.94-5.55c-7.94,0-14.71,6.13-14.71,17.16s6.77,17.14,14.84,17.14a12.75,12.75,0,0,0,10.81-5.41v3.84a.73.73,0,0,0,.72.73H191a.73.73,0,0,0,.72-.73V31a.72.72,0,0,0-.72-.72ZM152.78,66c0,7.43-5.41,10.63-14.06,10.63-6,0-11.13-1.61-14.07-5a.74.74,0,0,1,0-.94l4.13-5.37a.7.7,0,0,1,1-.12l.09.08c2.18,2.23,5.53,3.6,9.71,3.6,2.41,0,4.36-.65,4.36-2.47s-1.75-2.16-7.22-3.33c-4.82-1-10.81-3.2-10.81-10.3,0-6.59,5.21-10.37,13.74-10.37,5.61,0,9.64,1.69,12.48,4.36a.73.73,0,0,1,.07,1l-3.92,5.1a.7.7,0,0,1-1,.11A12.92,12.92,0,0,0,139,50.25c-2.67,0-4.17.85-4.17,2.28,0,1.63,1.76,2,7.55,3.26S152.78,59.18,152.78,66Zm-33,0c0,7.43-5.41,10.63-14.06,10.63-6,0-11.13-1.61-14.07-5a.74.74,0,0,1,0-.94l4.13-5.38a.72.72,0,0,1,1-.11l.08.07C99,67.61,102.34,69,106.52,69c2.41,0,4.36-.65,4.36-2.48s-1.75-2.15-7.22-3.32c-4.82-1-10.81-3.2-10.81-10.3,0-6.59,5.21-10.37,13.74-10.37,5.61,0,9.64,1.69,12.48,4.36a.74.74,0,0,1,.07,1L115.22,53a.72.72,0,0,1-1,.12,12.87,12.87,0,0,0-8.25-2.8c-2.67,0-4.17.85-4.17,2.28,0,1.63,1.76,2,7.55,3.26s10.41,3.39,10.41,10.24ZM76.91,62.72c0,3.59-2.92,6.72-7.48,6.72-3,0-4.63-1.37-4.63-3.46,0-1.82,1.37-3.19,4-3.59l8.07-1v1.3ZM71.25,42.57c-6.82,0-12,2.29-14.25,6.81a.75.75,0,0,0,.24.92L62.45,54a.67.67,0,0,0,1-.2c1.45-2.61,4.69-3.5,7.82-3.5,3.84,0,5.66,1.37,5.66,3.26v.52c0,.79-.45,1.18-1.69,1.31l-8.92.78c-6,.59-10.41,4.3-10.41,10.24s4.55,10.17,11,10.17a11.51,11.51,0,0,0,10-5.08v3.7a.72.72,0,0,0,.73.73h7.14a.72.72,0,0,0,.72-.72V55.81c0-9.07-4.75-13.24-14.25-13.24ZM50,31v44.2a.72.72,0,0,1-.72.72H42.06a.72.72,0,0,1-.72-.72V31a.7.7,0,0,1,.7-.71h7.23A.72.72,0,0,1,50,31ZM17.38,68.3c-4.88,0-8.53-3.46-8.53-8.74s3.65-8.74,8.53-8.74,8.46,3.33,8.46,8.74S22.26,68.3,17.38,68.3Zm16.14-25H26.38a.73.73,0,0,0-.73.73h0v3.83A12.29,12.29,0,0,0,15,42.47c-8.08,0-15,6.07-15,17S6.64,76.19,15.3,76.19a12.37,12.37,0,0,0,10.48-5v2.08c0,4.7-2.28,8.42-9.57,8.42A13.28,13.28,0,0,1,7,78.16a.7.7,0,0,0-1,0l-.09.11L2.7,83.74c-.42.7-.36,1.1-.1,1.33,3.33,2.89,7.65,4.68,13.93,4.68,13.67,0,17.71-7.62,17.71-16V44a.72.72,0,0,0-.72-.72Z"/></svg>