<?xml version="1.0" encoding="UTF-8"?><svg id="a" xmlns="http://www.w3.org/2000/svg" viewBox="0 0 200 80"><defs><style>.b{fill-rule:evenodd;stroke-width:0px;}</style></defs><path class="b" d="m192.33,33.93h7.57c.06,0,.1-.05.1-.11v-7.46c0-1.82-.6-3.31-1.83-4.34-1.12-.95-2.81-1.53-5.07-1.64-.06,0-.1.04-.1.11v2.81c0,.05.04.1.09.1,1.98.14,3.48.78,3.48,3h-4.25c-.06,0-.1.05-.1.11v7.31c0,.06.05.11.1.11Zm-163.63,6.04h-9.17c-.14,0-.23.13-.23.25v4.93c0,.16.12.25.23.25h3.26v3.97c0,2.95-.72,4.53-3.26,4.53-2.12,0-3.63-1.28-3.63-5.28v-11.52c0-3.83,1.14-5.62,3.67-5.62,2.28,0,3.21,1.4,3.21,4.01v1.48c0,.16.12.25.24.25h5.64c.14,0,.24-.13.24-.25v-1.74c.05-6.2-3.25-9.47-9.21-9.47s-9.85,3.54-9.85,11v12.33c0,7.34,4.53,10.53,9.55,10.53,5.63,0,9.55-2.22,9.55-10.42v-8.99c0-.13-.09-.24-.22-.25h-.01.01s0,.01,0,.01Zm17.56,13.13h-8.82v-26.46c0-.16-.12-.25-.24-.25h-5.55c-.14,0-.23.13-.23.25v32.15c0,.16.12.25.23.25h14.59c.14,0,.24-.13.24-.25v-5.42c0-.16-.12-.25-.24-.25h.01Zm82.88-16.25c0-7.41,3.81-11.03,9.63-11.03s9.61,3.63,9.58,11.03v11.75c0,7.51-3.57,10.97-9.58,10.97s-9.63-3.39-9.63-10.97v-11.75Zm9.63,17.08c2.43,0,3.44-1.78,3.44-5.56v-11.25c0-3.78-.98-5.62-3.44-5.62s-3.44,1.9-3.44,5.62v11.25c0,3.8,1.01,5.56,3.44,5.56Zm21.55-28.11c-5.82,0-9.63,3.61-9.63,11.03v11.75c0,7.58,3.63,10.97,9.63,10.97s9.58-3.46,9.58-10.97v-11.75c.03-7.4-3.83-11.03-9.58-11.03Zm3.44,22.55c0,3.78-1.01,5.56-3.44,5.56s-3.44-1.77-3.44-5.56v-11.25c0-3.71.98-5.62,3.44-5.62s3.44,1.83,3.44,5.62v11.25Zm-54.96-22h8.32v.03c5.63,0,9.87,3.09,9.87,10.72v11.2c0,7.55-4.14,10.72-9.93,10.72h-8.26c-.12,0-.24-.1-.24-.25V26.65c0-.14.09-.28.24-.28Zm7.99,26.71c2.51,0,4.08-1.72,4.08-5.75h.01s0-9.8,0-9.8c0-4.07-1.65-5.71-4.15-5.71h-2.29v21.25h2.34Zm-38.34-27.32h-.09c-5.73,0-8.75,3.53-8.75,8.83s3.56,8.08,6.5,10.19l.57.41.68.5h0s0,0,0,0c2.07,1.5,3.67,2.66,3.67,5.2,0,2.13-1.31,2.98-2.83,3.02-1.68.04-2.89-1.34-2.89-3.08v-2.81c0-.18-.14-.32-.31-.32,0,0,0,0,0,0h-5.37c-.18,0-.31.14-.31.32v2.85c0,5.63,3.17,8.76,8.74,8.76s8.95-3.19,8.95-8.8-3.46-8.36-6.47-10.56l-.1-.07c-.33-.24-.66-.48-.99-.71-2.06-1.47-3.98-2.83-3.98-4.95s1.33-3.09,2.88-3.09c1.66,0,2.84,1.28,2.84,2.98v2.48c0,.18.15.32.31.32h5.37c.18,0,.31-.14.31-.32v-2.41c.01-5.53-3.32-8.71-8.73-8.74Zm19.27,0h.09c5.41.03,8.73,3.21,8.73,8.74v2.41c0,.18-.13.32-.31.32h-5.37c-.18,0-.32-.15-.31-.32h0v-2.49c0-1.7-1.18-2.98-2.84-2.98-1.54,0-2.88.99-2.88,3.09s1.92,3.48,3.98,4.95c.33.23.66.47.99.71l.1.07c3.01,2.2,6.47,4.72,6.47,10.56s-3.38,8.8-8.95,8.8-8.74-3.12-8.74-8.75v-2.85c0-.18.13-.32.31-.32h5.37c.17,0,.31.14.31.32v2.81c0,1.74,1.22,3.12,2.89,3.08,1.52-.04,2.83-.89,2.83-3.02,0-2.55-1.6-3.7-3.67-5.2-.22-.16-.45-.33-.68-.5l-.56-.41h0c-2.94-2.12-6.5-4.68-6.5-10.2s3.02-8.83,8.75-8.83h0Zm92.45,10.66v-2.7c0-4.11-3.17-7.34-6.81-7.34h-10.81c-.13,0-.23.11-.23.25v32.12c0,.14.11.25.23.25h5.29c.14,0,.23-.13.23-.25v-13.37h2.59c2.41,0,3.17.96,3.17,3.4v9.94c0,.16.12.25.23.25h5.46c.14,0,.25-.12.25-.25v-9.76c0-3.33-.85-5.46-3.02-6.34,2.18-.96,3.42-2.88,3.42-6.21Zm-5.92,1.13c0,1.34-1,2.41-2.22,2.41h-4.02v-8.16h4.02c1.23,0,2.22,1.07,2.22,2.4v3.35ZM55.77,26.39h5.63c.1,0,.21.08.23.21l7.3,32.08c.07.18-.07.35-.23.35h-5.39c-.09,0-.21-.09-.23-.21l-1.15-5.75h-6.73l-1.15,5.75c-.02.12-.12.21-.24.21h-5.39c-.16,0-.28-.17-.24-.35l7.35-32.08c.01-.12.11-.21.24-.21Zm2.74,10.19l-2.22,11.1h4.5l-2.22-11.1-.03.16s-.02-.16-.03-.15ZM7.67,26.38H.1c-.06,0-.1.05-.1.11v7.31c0,.06.05.11.1.11h4.25c0,2.23-1.5,2.86-3.48,3-.05,0-.1.05-.09.1v2.81c0,.06.05.11.1.1,2.25-.11,3.94-.69,5.07-1.64,1.22-1.04,1.83-2.52,1.83-4.34v-7.46c0-.06-.05-.11-.1-.11h0Z"/></svg>