<?xml version="1.0" encoding="UTF-8" standalone="no"?>
<svg id="a" viewBox="0 0 32 32" version="1.1" sodipodi:docname="glitch.svg" width="32" height="32" inkscape:version="1.4-beta2 (9aaf4f34, 2024-07-30)" xmlns:inkscape="http://www.inkscape.org/namespaces/inkscape" xmlns:sodipodi="http://sodipodi.sourceforge.net/DTD/sodipodi-0.dtd" xmlns="http://www.w3.org/2000/svg" xmlns:svg="http://www.w3.org/2000/svg">
  <defs id="defs8" />
  <sodipodi:namedview id="namedview8" pagecolor="#ffffff" bordercolor="#000000" borderopacity="0.25" inkscape:showpageshadow="2" inkscape:pageopacity="0.0" inkscape:pagecheckerboard="0" inkscape:deskcolor="#d1d1d1" inkscape:zoom="2.2856053" inkscape:cx="48.564815" inkscape:cy="40.470679" inkscape:window-width="1440" inkscape:window-height="790" inkscape:window-x="0" inkscape:window-y="0" inkscape:window-maximized="1" inkscape:current-layer="a" />
  <g id="g8" transform="matrix(0.39395456,0,0,0.39395456,7.4594427e-6,0.24229788)">
    <g id="b">
      <g id="c">
        <g id="d">
          <path d="m 79.86,58.86 c 1.46,-3.72 -1.81,-6.18 0,-9.15 1.81,-2.97 1.46,-7.51 0.99,-7.75 C 79.86,41.45 69.26,46.72 66.96,46.29 61.25,45.23 62.3,44.55 54.62,42.81 51.54,42.08 51.97,42.52 51.29,42.01 50.61,41.5 49.97,41.65 48.64,39.5 47.31,37.35 32,34.05 30.96,34.05 c -2.09,0 -6.07,5.45 -6.07,5.45 0,0 -1.54,0 -6.1,0.23 -4.56,0.23 -8.64,2.27 -14.07,6.58 -5.43,4.31 -4.68,8.54 -4.68,8.54 0,0 5.08,1.72 5.08,2.65 0,0.93 -4.44,2.03 -4.44,2.03 2.86,3.65 11.7,7.08 13.98,7.08 2.13,0.08 4.27,-0.07 6.37,-0.45 0.2,0.46 2.32,4.95 6.65,5.85 4.56,0.98 7.08,0.21 7.08,0.21 0.09,-1.39 -0.19,-2.78 -0.81,-4.03 4.27,0.48 8.58,0.43 12.84,-0.15 12.2,-1.85 18.22,-4.78 20.18,-5.17 1.96,-0.39 13.22,4.99 13.89,3.74 0.67,-1.25 -2.48,-4.02 -1,-7.75 z M 11.5,55.89 c -0.25,0 -0.49,-0.03 -0.73,-0.08 C 10.69,55.79 10.62,55.77 10.54,55.74 10.39,55.7 10.23,55.64 10.09,55.58 10,55.54 9.92,55.5 9.84,55.45 9.71,55.38 9.59,55.3 9.47,55.22 L 9.24,55.02 C 9.13,54.93 9.02,54.83 8.93,54.73 8.86,54.66 8.79,54.58 8.73,54.5 8.64,54.39 8.55,54.27 8.47,54.14 8.41,54.05 8.35,53.96 8.3,53.88 8.25,53.8 8.16,53.6 8.1,53.46 8.04,53.32 8.01,53.27 7.98,53.17 7.95,53.07 7.89,52.85 7.85,52.69 7.81,52.53 7.8,52.49 7.78,52.4 c -0.02,-0.09 0,-0.05 0,-0.08 0,0.02 0,0.04 0,0.07 C 7.74,52.15 7.72,51.9 7.71,51.66 v 0 c 0,-2.38 1.7,-4.31 3.8,-4.31 2.1,0 3.79,1.93 3.79,4.31 0,2.38 -1.7,4.25 -3.8,4.25 z m 13.59,-2.72 c -0.18,0.97 -0.42,1.92 -0.73,2.86 -0.19,0.58 -0.39,1.15 -0.58,1.66 -0.12,0.31 -0.21,0.53 -0.26,0.67 -0.15,0.43 -0.62,0.65 -1.05,0.5 -0.04,-0.01 -0.08,-0.03 -0.12,-0.05 -0.44,-0.28 -0.61,-0.84 -0.39,-1.32 l 0.06,-0.15 0.18,-0.44 c 0.18,-0.48 0.37,-0.99 0.53,-1.54 0.29,-0.83 0.51,-1.68 0.68,-2.54 0.12,-0.67 0.16,-1.35 0.11,-2.03 -0.16,-1.17 -0.55,-2.3 -1.15,-3.31 -0.25,-0.46 -0.53,-0.91 -0.84,-1.33 -0.1,-0.14 -0.19,-0.26 -0.27,-0.37 l -0.1,-0.12 c -0.32,-0.41 -0.31,-1 0.04,-1.39 0.29,-0.33 0.79,-0.36 1.11,-0.07 0.04,0.03 0.07,0.07 0.11,0.11 0.1,0.12 0.26,0.32 0.45,0.6 0.35,0.49 0.67,1 0.96,1.52 0.75,1.27 1.22,2.68 1.4,4.14 0.07,0.87 0.02,1.74 -0.14,2.6 z m 42.27,0.37 c -0.12,0.44 -0.58,0.71 -1.02,0.58 -0.03,0 -0.07,-0.02 -0.1,-0.04 L 63.95,53.05 C 57.31,50.07 53.13,48.53 48.01,47.49 44.52,46.78 40.99,46.27 37.45,45.95 l -2.92,-0.18 -1.3,-0.07 -4.05,-0.19 h -0.43 c 0.12,0.33 0.25,0.67 0.37,1.02 0.33,0.98 0.6,1.98 0.78,3 0.07,0.36 0.12,0.72 0.15,1.08 0.05,1.62 -0.13,3.24 -0.55,4.8 -0.15,0.68 -0.32,1.39 -0.52,2.11 -0.23,0.89 -0.48,1.77 -0.73,2.59 -0.09,0.29 -0.17,0.56 -0.24,0.78 l -0.07,0.21 v 0.08 c -0.11,0.45 -0.57,0.72 -1.02,0.61 -0.03,0 -0.07,-0.02 -0.1,-0.03 -0.46,-0.24 -0.68,-0.78 -0.5,-1.27 v -0.07 c 0,-0.06 0.04,-0.12 0.07,-0.2 0.07,-0.22 0.15,-0.48 0.23,-0.73 0.25,-0.8 0.49,-1.65 0.73,-2.51 0.19,-0.73 0.36,-1.38 0.5,-2.02 0.36,-1.34 0.53,-2.72 0.51,-4.11 0,-0.29 -0.07,-0.59 -0.13,-0.91 -0.18,-0.92 -0.42,-1.82 -0.73,-2.7 -0.2,-0.59 -0.41,-1.15 -0.62,-1.67 -0.07,-0.18 -0.14,-0.34 -0.2,-0.48 -0.06,-0.14 -0.06,-0.14 -0.07,-0.16 -0.26,-0.48 -0.09,-1.08 0.39,-1.34 0.13,-0.07 0.28,-0.11 0.42,-0.12 h 0.51 l 1.35,0.07 4.08,0.22 1.3,0.07 c 1.18,0.07 2.19,0.13 2.92,0.19 3.61,0.32 7.2,0.84 10.75,1.56 5.26,1.07 9.54,2.64 16.28,5.67 l 2.29,1.03 c 0.46,0.24 0.67,0.79 0.49,1.27 v 0 z" style="fill-rule:evenodd;stroke-width:0px" id="path7" />
          <path d="m 5.12,30.94 c 0,0.93 -4.44,2.03 -4.44,2.03 2.86,3.65 11.7,7.08 13.98,7.08 h 1.86 c 0.75,-0.15 1.51,-0.24 2.27,-0.29 l 1.89,-0.09 0.35,-0.07 v 0.04 c 2.81,-0.12 3.84,-0.12 3.84,-0.12 0,0 3.98,-5.45 6.07,-5.45 1.04,0 16.35,3.3 17.68,5.45 0.31,0.53 0.69,1.02 1.11,1.46 10.23,-1.83 15.4,-4.32 17.2,-4.67 1.97,-0.39 13.22,4.99 13.89,3.74 0.67,-1.25 -2.47,-4.02 -0.99,-7.74 1.48,-3.72 -1.81,-6.18 0,-9.16 1.81,-2.98 1.46,-7.51 0.99,-7.75 -0.99,-0.51 -11.59,4.77 -13.89,4.33 -5.71,-1.05 -4.66,-1.74 -12.34,-3.48 -3.08,-0.73 -2.65,-0.29 -3.33,-0.8 -0.68,-0.51 -1.32,-0.36 -2.65,-2.51 -1.33,-2.15 -16.62,-5.45 -17.65,-5.45 -2.09,0 -6.1,5.45 -6.1,5.45 0,0 -1.54,0 -6.1,0.23 -4.56,0.23 -8.64,2.27 -14.07,6.58 -5.44,4.31 -4.65,8.54 -4.65,8.54 0,0 5.08,1.72 5.08,2.65 z m 21.15,2.92 0.04,-0.04 c 0,-0.06 0.04,-0.12 0.07,-0.2 0.07,-0.22 0.15,-0.48 0.23,-0.73 0.25,-0.8 0.49,-1.64 0.73,-2.51 0.19,-0.73 0.36,-1.38 0.5,-2.02 0.36,-1.34 0.53,-2.72 0.51,-4.11 0,-0.29 -0.07,-0.59 -0.13,-0.91 -0.18,-0.92 -0.42,-1.82 -0.73,-2.7 -0.2,-0.59 -0.41,-1.15 -0.62,-1.67 -0.07,-0.18 -0.14,-0.34 -0.2,-0.48 -0.06,-0.14 -0.06,-0.14 -0.07,-0.16 -0.26,-0.48 -0.09,-1.08 0.39,-1.34 0.13,-0.07 0.28,-0.11 0.42,-0.12 h 0.51 l 1.35,0.07 4.08,0.22 1.3,0.08 c 1.18,0.07 2.19,0.13 2.92,0.18 3.61,0.32 7.2,0.84 10.75,1.57 5.26,1.06 9.54,2.63 16.28,5.66 l 2.29,1.03 c 0.46,0.24 0.67,0.79 0.49,1.28 -0.12,0.44 -0.58,0.71 -1.02,0.58 -0.03,0 -0.07,-0.02 -0.1,-0.04 L 63.95,26.51 C 57.31,23.53 53.13,21.99 48.01,20.96 44.52,20.25 40.99,19.73 37.45,19.42 36.72,19.36 35.72,19.3 34.53,19.23 l -1.3,-0.07 -4.07,-0.22 h -0.43 c 0.12,0.33 0.25,0.67 0.37,1.02 0.33,0.98 0.6,1.98 0.78,3 0.07,0.36 0.12,0.72 0.15,1.08 0.05,1.62 -0.13,3.24 -0.55,4.8 -0.15,0.68 -0.32,1.39 -0.52,2.12 -0.23,0.88 -0.48,1.76 -0.73,2.58 -0.09,0.29 -0.17,0.56 -0.24,0.78 l -0.07,0.22 v 0.07 c -0.11,0.45 -0.57,0.72 -1.02,0.61 -0.03,0 -0.07,-0.02 -0.1,-0.03 -0.49,-0.23 -0.71,-0.81 -0.51,-1.31 V 33.86 Z M 21.2,17.73 c 0.29,-0.33 0.79,-0.36 1.11,-0.07 0.04,0.03 0.07,0.07 0.11,0.11 0.1,0.12 0.26,0.32 0.45,0.6 0.35,0.49 0.67,1 0.96,1.52 0.75,1.27 1.22,2.68 1.4,4.14 0.07,0.87 0.03,1.75 -0.12,2.61 -0.17,0.97 -0.42,1.92 -0.73,2.86 -0.19,0.58 -0.39,1.15 -0.58,1.66 -0.12,0.31 -0.21,0.54 -0.26,0.67 -0.15,0.43 -0.63,0.65 -1.06,0.5 -0.04,-0.01 -0.07,-0.03 -0.11,-0.05 -0.48,-0.29 -0.65,-0.9 -0.39,-1.39 l 0.06,-0.15 0.18,-0.44 c 0.18,-0.48 0.37,-0.99 0.53,-1.53 0.27,-0.84 0.48,-1.69 0.63,-2.56 0.12,-0.67 0.16,-1.35 0.11,-2.03 -0.16,-1.17 -0.55,-2.3 -1.15,-3.31 -0.25,-0.46 -0.53,-0.9 -0.84,-1.33 -0.1,-0.14 -0.19,-0.26 -0.27,-0.37 l -0.1,-0.12 C 20.85,18.64 20.88,18.1 21.2,17.73 Z m -9.71,2.98 c 2.1,0 3.79,1.93 3.79,4.31 0,2.38 -1.7,4.31 -3.79,4.31 C 11.24,29.33 11,29.3 10.76,29.24 10.68,29.22 10.61,29.2 10.53,29.17 10.37,29.13 10.22,29.08 10.08,29.01 9.99,28.97 9.91,28.93 9.83,28.88 9.71,28.81 9.57,28.73 9.46,28.65 L 9.23,28.46 C 9.12,28.37 9.01,28.27 8.92,28.16 8.85,28.09 8.78,28.01 8.72,27.93 8.63,27.82 8.54,27.7 8.46,27.58 L 8.29,27.31 C 8.22,27.17 8.15,27.04 8.09,26.89 8.05,26.79 8,26.7 7.97,26.6 7.94,26.5 7.88,26.28 7.84,26.12 7.8,25.96 7.79,25.93 7.77,25.83 c -0.02,-0.1 0,-0.05 0,-0.07 0,0.02 0,0.04 0,0.07 C 7.73,25.59 7.71,25.34 7.7,25.1 v 0 c 0,-2.44 1.7,-4.37 3.79,-4.37 z" style="fill-rule:evenodd;stroke-width:0px" id="path8" />
        </g>
      </g>
    </g>
  </g>
</svg>
