<?xml version="1.0" encoding="UTF-8"?><svg id="a" xmlns="http://www.w3.org/2000/svg" viewBox="0 0 219.3 80"><path d="m95.64,38.52c0-10.02,5.56-16.52,14.62-16.52,6.1,0,10.96,2.43,13,10.29l-6.51,1.76c-1.35-4.47-3.38-6.24-6.5-6.24s-7.45,1.46-7.45,10.57,4.33,11.24,7.72,11.24c3.4.09,6.29-2.46,6.64-5.85h-5.69v-5.26h12.32v16.08h-5.69v-4.43h-.14c-1.49,3.26-4.82,5.29-8.4,5.12-9.61.03-13.94-7.15-13.94-16.77Z" style="stroke-width:0px;"/><path d="m129.77,22.54h6.93v32.1h-6.91l-.02-32.1Z" style="stroke-width:0px;"/><path d="m142.36,22.85h7.05v5.56h-7.05v-5.56Zm0,8.77h6.91v23.03h-6.91v-23.03Z" style="stroke-width:0px;"/><path d="m156.86,48.14v-11.51h-3.93v-5.01h3.79v-8h7.02v8h5.96v5.01h-5.96v10.01c0,2.43.68,3.25,3.25,3.25l2.3-.27v5.01l-4.61.41c-6.89-.14-7.84-2.57-7.84-6.91Z" style="stroke-width:0px;"/><path d="m172.16,43.13c0-9.21,6.5-12.05,11.64-12.05,4.5-.01,8.52,2.81,10.03,7.05l-5.85,1.89c-.95-2.98-2.3-3.93-4.33-3.93s-4.61,2.43-4.61,7.04,1.35,7.05,4.47,7.05,3.52-.95,4.61-4.06l5.85,2.03c-1.51,4.42-5.77,7.3-10.43,7.04-5.42,0-11.37-3.09-11.37-12.05Z" style="stroke-width:0px;"/><path d="m197.49,22.54h7.04v12.59c1.86-2.55,4.84-4.06,8-4.06,3.93,0,6.77,1.9,6.77,6.78v16.81h-7.05v-14.62c0-2.03-.81-3.11-2.7-3.11-1.89.14-3.68.95-5.01,2.3v15.41h-7.04V22.54Z" style="stroke-width:0px;"/><g id="b"><g id="c"><g id="d"><path d="m79.86,58.86c1.46-3.72-1.81-6.18,0-9.15s1.46-7.51.99-7.75c-.99-.51-11.59,4.76-13.89,4.33-5.71-1.06-4.66-1.74-12.34-3.48-3.08-.73-2.65-.29-3.33-.8s-1.32-.36-2.65-2.51-16.64-5.45-17.68-5.45c-2.09,0-6.07,5.45-6.07,5.45,0,0-1.54,0-6.1.23s-8.64,2.27-14.07,6.58S.04,54.85.04,54.85c0,0,5.08,1.72,5.08,2.65s-4.44,2.03-4.44,2.03c2.86,3.65,11.7,7.08,13.98,7.08,2.13.08,4.27-.07,6.37-.45.2.46,2.32,4.95,6.65,5.85,4.56.98,7.08.21,7.08.21.09-1.39-.19-2.78-.81-4.03,4.27.48,8.58.43,12.84-.15,12.2-1.85,18.22-4.78,20.18-5.17s13.22,4.99,13.89,3.74-2.48-4.02-1-7.75Zm-68.36-2.97c-.25,0-.49-.03-.73-.08-.08-.02-.15-.04-.23-.07-.15-.04-.31-.1-.45-.16-.09-.04-.17-.08-.25-.13-.13-.07-.25-.15-.37-.23l-.23-.2c-.11-.09-.22-.19-.31-.29-.07-.07-.14-.15-.2-.23-.09-.11-.18-.23-.26-.36-.06-.09-.12-.18-.17-.26s-.14-.28-.2-.42-.09-.19-.12-.29-.09-.32-.13-.48-.05-.2-.07-.29,0-.05,0-.08c0,.02,0,.04,0,.07-.04-.24-.06-.49-.07-.73h0c0-2.38,1.7-4.31,3.8-4.31s3.79,1.93,3.79,4.31-1.7,4.25-3.8,4.25Zm13.59-2.72c-.18.97-.42,1.92-.73,2.86-.19.58-.39,1.15-.58,1.66-.12.31-.21.53-.26.67-.15.43-.62.65-1.05.5-.04-.01-.08-.03-.12-.05-.44-.28-.61-.84-.39-1.32l.06-.15.18-.44c.18-.48.37-.99.53-1.54.29-.83.51-1.68.68-2.54.12-.67.16-1.35.11-2.03-.16-1.17-.55-2.3-1.15-3.31-.25-.46-.53-.91-.84-1.33-.1-.14-.19-.26-.27-.37l-.1-.12c-.32-.41-.31-1,.04-1.39.29-.33.79-.36,1.11-.07.04.03.07.07.11.11.1.12.26.32.45.6.35.49.67,1,.96,1.52.75,1.27,1.22,2.68,1.4,4.14.07.87.02,1.74-.14,2.6Zm42.27.37c-.12.44-.58.71-1.02.58-.03,0-.07-.02-.1-.04l-2.29-1.03c-6.64-2.98-10.82-4.52-15.94-5.56-3.49-.71-7.02-1.22-10.56-1.54l-2.92-.18-1.3-.07-4.05-.19h-.43c.12.33.25.67.37,1.02.33.98.6,1.98.78,3,.07.36.12.72.15,1.08.05,1.62-.13,3.24-.55,4.8-.15.68-.32,1.39-.52,2.11-.23.89-.48,1.77-.73,2.59-.09.29-.17.56-.24.78l-.07.21v.08c-.11.45-.57.72-1.02.61-.03,0-.07-.02-.1-.03-.46-.24-.68-.78-.5-1.27v-.07c0-.06.04-.12.07-.2.07-.22.15-.48.23-.73.25-.8.49-1.65.73-2.51.19-.73.36-1.38.5-2.02.36-1.34.53-2.72.51-4.11,0-.29-.07-.59-.13-.91-.18-.92-.42-1.82-.73-2.7-.2-.59-.41-1.15-.62-1.67-.07-.18-.14-.34-.2-.48s-.06-.14-.07-.16c-.26-.48-.09-1.08.39-1.34.13-.07.28-.11.42-.12h.51l1.35.07,4.08.22,1.3.07c1.18.07,2.19.13,2.92.19,3.61.32,7.2.84,10.75,1.56,5.26,1.07,9.54,2.64,16.28,5.67l2.29,1.03c.46.24.67.79.49,1.27h0Z" style="fill-rule:evenodd; stroke-width:0px;"/><path d="m5.12,30.94c0,.93-4.44,2.03-4.44,2.03,2.86,3.65,11.7,7.08,13.98,7.08h1.86c.75-.15,1.51-.24,2.27-.29l1.89-.09.35-.07v.04c2.81-.12,3.84-.12,3.84-.12,0,0,3.98-5.45,6.07-5.45,1.04,0,16.35,3.3,17.68,5.45.31.53.69,1.02,1.11,1.46,10.23-1.83,15.4-4.32,17.2-4.67,1.97-.39,13.22,4.99,13.89,3.74s-2.47-4.02-.99-7.74-1.81-6.18,0-9.16,1.46-7.51.99-7.75c-.99-.51-11.59,4.77-13.89,4.33-5.71-1.05-4.66-1.74-12.34-3.48-3.08-.73-2.65-.29-3.33-.8s-1.32-.36-2.65-2.51-16.62-5.45-17.65-5.45c-2.09,0-6.1,5.45-6.1,5.45,0,0-1.54,0-6.1.23s-8.64,2.27-14.07,6.58C-.75,24.06.04,28.29.04,28.29c0,0,5.08,1.72,5.08,2.65Zm21.15,2.92l.04-.04c0-.06.04-.12.07-.2.07-.22.15-.48.23-.73.25-.8.49-1.64.73-2.51.19-.73.36-1.38.5-2.02.36-1.34.53-2.72.51-4.11,0-.29-.07-.59-.13-.91-.18-.92-.42-1.82-.73-2.7-.2-.59-.41-1.15-.62-1.67-.07-.18-.14-.34-.2-.48s-.06-.14-.07-.16c-.26-.48-.09-1.08.39-1.34.13-.07.28-.11.42-.12h.51l1.35.07,4.08.22,1.3.08c1.18.07,2.19.13,2.92.18,3.61.32,7.2.84,10.75,1.57,5.26,1.06,9.54,2.63,16.28,5.66l2.29,1.03c.46.24.67.79.49,1.28-.12.44-.58.71-1.02.58-.03,0-.07-.02-.1-.04l-2.31-.99c-6.64-2.98-10.82-4.52-15.94-5.55-3.49-.71-7.02-1.23-10.56-1.54-.73-.06-1.73-.12-2.92-.19l-1.3-.07-4.07-.22h-.43c.12.33.25.67.37,1.02.33.98.6,1.98.78,3,.07.36.12.72.15,1.08.05,1.62-.13,3.24-.55,4.8-.15.68-.32,1.39-.52,2.12-.23.88-.48,1.76-.73,2.58-.09.29-.17.56-.24.78l-.07.22v.07c-.11.45-.57.72-1.02.61-.03,0-.07-.02-.1-.03-.49-.23-.71-.81-.51-1.31v-.02Zm-5.07-16.13c.29-.33.79-.36,1.11-.07.04.03.07.07.11.11.1.12.26.32.45.6.35.49.67,1,.96,1.52.75,1.27,1.22,2.68,1.4,4.14.07.87.03,1.75-.12,2.61-.17.97-.42,1.92-.73,2.86-.19.58-.39,1.15-.58,1.66-.12.31-.21.54-.26.67-.15.43-.63.65-1.06.5-.04-.01-.07-.03-.11-.05-.48-.29-.65-.9-.39-1.39l.06-.15.18-.44c.18-.48.37-.99.53-1.53.27-.84.48-1.69.63-2.56.12-.67.16-1.35.11-2.03-.16-1.17-.55-2.3-1.15-3.31-.25-.46-.53-.9-.84-1.33-.1-.14-.19-.26-.27-.37l-.1-.12c-.28-.41-.25-.95.07-1.32Zm-9.71,2.98c2.1,0,3.79,1.93,3.79,4.31s-1.7,4.31-3.79,4.31c-.25,0-.49-.03-.73-.09-.08-.02-.15-.04-.23-.07-.16-.04-.31-.09-.45-.16-.09-.04-.17-.08-.25-.13-.12-.07-.26-.15-.37-.23l-.23-.19c-.11-.09-.22-.19-.31-.3-.07-.07-.14-.15-.2-.23-.09-.11-.18-.23-.26-.35l-.17-.27c-.07-.14-.14-.27-.2-.42-.04-.1-.09-.19-.12-.29s-.09-.32-.13-.48-.05-.19-.07-.29,0-.05,0-.07c0,.02,0,.04,0,.07-.04-.24-.06-.49-.07-.73h0c0-2.44,1.7-4.37,3.79-4.37Z" style="fill-rule:evenodd; stroke-width:0px;"/></g></g></g></svg>