<svg id="Camada_1" data-name="Camada 1" xmlns="http://www.w3.org/2000/svg" viewBox="0 0 200 80"><path d="M28.2,19.44c-1.4-.65-2.41,0-2.41,1.54V49.83c0,1.54,1,2.19,2.41,1.54l1.85-.79a2.57,2.57,0,0,0,1.71-2.53V22.81a2.53,2.53,0,0,0-1.71-2.53Zm44.08,9A8.65,8.65,0,0,0,66.17,31V20.78A1,1,0,0,0,65,19.64H61.41a1,1,0,0,0-1.15,1.14V50a1.05,1.05,0,0,0,1.15,1.15h3.25A1.05,1.05,0,0,0,65.82,50V48.79a9.2,9.2,0,0,0,6.61,2.78C78.09,51.57,83,46.46,83,40S78,28.43,72.28,28.43Zm-53.95.4A1,1,0,0,0,17.18,30v1.24A8.35,8.35,0,0,0,11,28.43,11.32,11.32,0,0,0,0,40,10.67,10.67,0,0,0,10.87,51.07a8.26,8.26,0,0,0,6-2.53c-.05,4.57-2.45,6.66-6.66,6.66A12.52,12.52,0,0,1,3.51,53a1.09,1.09,0,0,0-1.71.4L.35,56.19A1.21,1.21,0,0,0,.8,57.93a18.27,18.27,0,0,0,9.62,2.88c8,0,12.42-4.27,12.42-14.15V30a1,1,0,0,0-1.15-1.14ZM46,28.43A11.57,11.57,0,1,0,57.5,40,11.41,11.41,0,0,0,46,28.43Zm50.94,0A11.57,11.57,0,1,0,108.44,40,11.41,11.41,0,0,0,96.92,28.43ZM134.09,43a1.49,1.49,0,0,0-1.36.84,4.31,4.31,0,0,1-4,2.09c-3.06,0-5.41-2.53-5.41-5.91s2.4-5.91,5.41-5.91a4.34,4.34,0,0,1,3.85,2,1.52,1.52,0,0,0,1.41.84h3.9c.8,0,1.25-.5,1-1.29a10.61,10.61,0,0,0-10.26-7.15,11.22,11.22,0,0,0-11.17,11.57c0,6.7,4.85,11.57,11.17,11.57,4.85,0,9.11-2.88,10.36-7.3.2-.79-.3-1.24-1.05-1.24h-3.8Zm18.43-14.55A11.57,11.57,0,1,0,164,40a11.41,11.41,0,0,0-11.52-11.57Zm38.11,0a8.2,8.2,0,0,0-6.56,3.18,7.16,7.16,0,0,0-6-3.18,6.91,6.91,0,0,0-5.66,2.68V30a1.05,1.05,0,0,0-1.15-1.15H168A1.05,1.05,0,0,0,166.84,30V50A1,1,0,0,0,168,51.12h3.61A1,1,0,0,0,172.75,50V39c0-3.13,1.56-5,4-5s3.71,1.64,3.71,4.82V50a1,1,0,0,0,1.15,1.14h3.6A1,1,0,0,0,186.38,50V39c0-3.13,1.55-5,4-5s3.71,1.64,3.71,4.82V50a1,1,0,0,0,1.15,1.14h3.61A1,1,0,0,0,200,50V38.11c-.1-5.91-3.56-9.68-9.37-9.68ZM11.42,45.86A5.63,5.63,0,0,1,5.81,40,5.62,5.62,0,1,1,17,40,5.66,5.66,0,0,1,11.42,45.86Zm34.56,0A5.66,5.66,0,0,1,40.37,40a5.62,5.62,0,1,1,11.22,0A5.63,5.63,0,0,1,46,45.91Zm25.6,0A5.62,5.62,0,0,1,66,40a5.57,5.57,0,1,1,11.12,0,5.59,5.59,0,0,1-5.57,5.91Zm25.34,0A5.66,5.66,0,0,1,91.31,40a5.62,5.62,0,1,1,11.22,0A5.63,5.63,0,0,1,96.92,45.91Zm55.6,0A5.66,5.66,0,0,1,146.91,40a5.62,5.62,0,1,1,11.22,0A5.6,5.6,0,0,1,152.52,45.91Zm-39.62-2a3.85,3.85,0,1,0,3.85,3.88,3.81,3.81,0,0,0-3.85-3.88Z"/></svg>