<?xml version="1.0" encoding="UTF-8"?><svg id="a" xmlns="http://www.w3.org/2000/svg" viewBox="0 0 264.32 80"><defs><style>.b{stroke-width:0px;}</style></defs><path class="b" d="m37.29,15.83c-1.85-.86-3.18,0-3.18,2.04v38.13c0,2.04,1.32,2.9,3.18,2.04l2.44-1.05c1.41-.5,2.32-1.85,2.26-3.35V20.28c.08-1.5-.85-2.86-2.26-3.35l-2.44-1.11h0Zm58.25,11.89c-3.03.01-5.94,1.23-8.07,3.38v-13.5c.11-.72-.37-1.4-1.1-1.51-.14-.02-.3-.02-.45,0h-4.75c-.72-.12-1.4.37-1.52,1.09-.02.14-.02.28,0,.42v38.61c-.08.76.47,1.44,1.24,1.52h4.57c.76.09,1.44-.46,1.53-1.22,0-.1.01-.2,0-.3v-1.6c2.29,2.36,5.45,3.68,8.73,3.68,7.48,0,13.96-6.75,13.96-15.29s-6.61-15.29-14.16-15.29h.01Zm-71.29.53c-.72-.12-1.4.36-1.52,1.09-.02.14-.02.3,0,.45v1.64c-2.07-2.33-5.04-3.69-8.17-3.71C6.33,27.95-.17,34.77.01,43c-.3,7.79,5.78,14.33,13.56,14.63.26,0,.54.01.8,0,2.98.02,5.86-1.19,7.93-3.35-.07,6.04-3.24,8.8-8.8,8.8-3.17-.1-6.24-1.11-8.85-2.91-.61-.52-1.51-.44-2.03.17-.1.11-.18.23-.23.36l-1.92,3.69c-.48.74-.29,1.73.45,2.21.04.03.09.06.14.09,3.8,2.43,8.2,3.74,12.71,3.81,10.57,0,16.41-5.64,16.41-18.7v-22.02c.11-.72-.39-1.4-1.1-1.51-.14-.02-.28-.02-.42,0l-4.44-.02h.02Zm36.56-.54c-8.45-.06-15.33,6.75-15.39,15.2s6.75,15.33,15.2,15.39c8.45.06,15.33-6.75,15.39-15.2v-.09c.12-8.33-6.54-15.18-14.87-15.29h-.33Zm67.31,0c-8.45-.06-15.33,6.75-15.39,15.2s6.75,15.33,15.2,15.39c8.45.06,15.33-6.75,15.39-15.2v-.09c.12-8.33-6.54-15.18-14.87-15.29h-.36.03Zm49.1,19.25c-.76,0-1.46.42-1.8,1.11-1.1,1.84-3.14,2.91-5.29,2.76-4.04,0-7.15-3.35-7.15-7.81s3.17-7.81,7.15-7.81c2.05-.09,3.99.91,5.09,2.64.35.7,1.08,1.13,1.86,1.11h5.15c1.06,0,1.65-.66,1.32-1.71-1.98-5.76-7.47-9.58-13.56-9.45-8.19.03-14.8,6.7-14.77,14.89v.41c0,8.85,6.41,15.29,14.76,15.29,6.41,0,12.04-3.81,13.69-9.65.26-1.05-.4-1.64-1.39-1.64h-5.02l-.07-.14h.01Zm24.35-19.23c-8.45-.07-15.34,6.73-15.41,15.17-.07,8.45,6.73,15.34,15.17,15.41,8.45.07,15.34-6.73,15.41-15.17v-.14c.12-8.33-6.54-15.18-14.87-15.29h-.36l.06.02h.01Zm50.36,0c-3.39-.03-6.6,1.52-8.67,4.21-1.77-2.64-4.75-4.22-7.93-4.21-2.92-.08-5.69,1.23-7.48,3.55v-1.5c.08-.76-.47-1.44-1.24-1.52h-4.58c-.76-.09-1.44.46-1.53,1.22,0,.1-.01.2,0,.3v26.43c-.1.73.41,1.39,1.13,1.49.13.02.26.01.4,0h4.77c.73.11,1.4-.39,1.5-1.11.02-.12.02-.24,0-.37v-14.54c0-4.14,2.06-6.61,5.29-6.61s4.9,2.17,4.9,6.37v14.77c-.11.72.39,1.4,1.1,1.51.14.02.28.02.42,0h4.76c.72.13,1.41-.34,1.54-1.06.02-.14.03-.3,0-.45v-14.54c0-4.14,2.05-6.61,5.29-6.61s4.9,2.17,4.9,6.37v14.77c-.11.72.39,1.4,1.1,1.51.14.02.28.02.42,0h4.77c.72.12,1.4-.37,1.52-1.09.02-.14.02-.28,0-.42v-15.72c-.13-7.81-4.7-12.79-12.38-12.79v.04ZM15.11,50.74c-4.11-.01-7.43-3.35-7.42-7.46v-.29c-.39-4.09,2.61-7.71,6.7-8.09s7.71,2.61,8.09,6.7c.04.46.04.94,0,1.4.14,4.13-3.08,7.59-7.21,7.74h-.17.01Zm45.67,0c-4.13-.03-7.46-3.41-7.42-7.54v-.2c-.24-4.1,2.87-7.61,6.97-7.85s7.61,2.87,7.85,6.97c.02.3.02.59,0,.88.21,4.11-2.95,7.6-7.06,7.8h-.33l-.02-.07h.01Zm33.83,0c-4.1-.02-7.4-3.37-7.38-7.48v-.28c-.24-4.05,2.85-7.54,6.91-7.79s7.54,2.85,7.79,6.91c.02.3.02.58,0,.88.23,4.07-2.87,7.57-6.95,7.8-.13,0-.28.01-.41.01l.04-.07h0Zm33.49,0c-4.13-.03-7.46-3.41-7.42-7.54v-.2c-.24-4.1,2.87-7.61,6.97-7.85s7.61,2.87,7.85,6.97c.02.3.02.59,0,.88.21,4.11-2.95,7.6-7.06,7.8h-.35v-.07h.01Zm73.47,0c-4.13-.03-7.46-3.41-7.42-7.54v-.2c-.24-4.1,2.87-7.61,6.97-7.85s7.61,2.87,7.85,6.97c.02.3.02.59,0,.88.23,4.09-2.9,7.58-6.98,7.8-.14,0-.29.01-.43.01v-.07h.01Zm-52.36-2.64c-2.81,0-5.09,2.28-5.09,5.09s2.28,5.09,5.09,5.09,5.07-2.26,5.09-5.04c.06-2.78-2.16-5.08-4.94-5.13h-.14,0Z"/></svg>