<svg id="Camada_1" data-name="Camada 1" xmlns="http://www.w3.org/2000/svg" viewBox="0 0 200 80"><path d="M194.63,28.31a1.29,1.29,0,0,0-1.41,1L188.49,43l-5.43-13.76a1.3,1.3,0,0,0-1.35-1h-4.58c-.9,0-1.26.55-.85,1.41l9.35,21.16-.76,1.62C183.72,55,182.56,56,181.41,56a5,5,0,0,1-2-.5,1.1,1.1,0,0,0-1.66.45l-1.3,2.52a1.22,1.22,0,0,0,.35,1.67,7.21,7.21,0,0,0,4.67,1.66c4.48,0,7.09-3.33,9.51-9.47l8.9-22.58c.35-.86,0-1.41-.86-1.41ZM6,40A5.82,5.82,0,1,1,17.6,40a5.87,5.87,0,0,1-5.79,6.2A5.9,5.9,0,0,1,6,40ZM0,40c0,6.85,5,11.59,11.26,11.59a8.51,8.51,0,0,0,6.24-2.67c-.05,4.79-2.57,6.95-6.89,6.95a12.48,12.48,0,0,1-7-2.32A1.13,1.13,0,0,0,1.86,54l-1.51,3A1.28,1.28,0,0,0,.8,58.74a18.89,18.89,0,0,0,10,3c8.29,0,12.87-4.49,12.87-14.82V29.52a1.11,1.11,0,0,0-1.21-1.21H19a1.11,1.11,0,0,0-1.21,1.21v1.31a8.62,8.62,0,0,0-6.39-2.92C5.28,27.91,0,33.15,0,40Zm41.78,0a5.84,5.84,0,1,1,11.66,0,5.84,5.84,0,1,1-11.66,0ZM35.7,40a11.92,11.92,0,1,0,23.83,0A11.92,11.92,0,1,0,35.7,40Zm58.82,0a5.85,5.85,0,1,1,11.67,0,5.85,5.85,0,1,1-11.67,0Zm-6.08,0a11.92,11.92,0,1,0,23.83,0,11.92,11.92,0,1,0-23.83,0Zm32.68,0c0-3.68,2.61-6.2,5.73-6.2s5.73,2.52,5.73,6.2-2.61,6.2-5.73,6.2S121.12,43.73,121.12,40Zm-.25-9.12V29.52a1.11,1.11,0,0,0-1.21-1.21h-3.37a1.11,1.11,0,0,0-1.2,1.21V60.16a1.1,1.1,0,0,0,1.2,1.2H120a1.11,1.11,0,0,0,1.21-1.2V49.42a9,9,0,0,0,6.29,2.68c6.13,0,11.16-5.24,11.16-12.1s-5.13-12.09-11.11-12.09a8.73,8.73,0,0,0-6.69,3ZM156.57,40c0-3.73,2.61-6.2,5.73-6.2S168,36.27,168,40a5.86,5.86,0,0,1-5.73,6.2C159.18,46.2,156.57,43.68,156.57,40Zm-6.09,0c0,6.85,5.13,12.09,11.11,12.09a8.73,8.73,0,0,0,6.69-3v1.36a1.11,1.11,0,0,0,1.21,1.21h3.37a1.11,1.11,0,0,0,1.2-1.21v-21a1.11,1.11,0,0,0-1.2-1.21h-3.37a1.11,1.11,0,0,0-1.21,1.21V31a8.94,8.94,0,0,0-6.63-3.07C155.51,27.91,150.48,33.15,150.48,40Zm-82.1,0c0-3.68,2.61-6.2,5.73-6.2s5.73,2.52,5.73,6.2-2.61,6.2-5.73,6.2S68.38,43.73,68.38,40ZM63.55,18.68a1.11,1.11,0,0,0-1.2,1.21V50.48a1.11,1.11,0,0,0,1.2,1.21h3.37a1.11,1.11,0,0,0,1.21-1.21V49.17A9.54,9.54,0,0,0,75,52.09c5.89,0,11-5.34,11-12.09S80.79,27.91,74.81,27.91a9,9,0,0,0-6.33,2.67V19.9a1.11,1.11,0,0,0-1.21-1.21H63.55Zm79.14,0a1.11,1.11,0,0,0-1.2,1.21V50.48a1.11,1.11,0,0,0,1.2,1.21h3.77a1.11,1.11,0,0,0,1.21-1.21V19.89a1.11,1.11,0,0,0-1.21-1.2h-3.77ZM26.75,20.1V50.28c0,1.61,1,2.27,2.46,1.61L31.12,51a2.67,2.67,0,0,0,1.76-2.68V22a2.65,2.65,0,0,0-1.76-2.67l-1.91-.86a2.53,2.53,0,0,0-1-.25c-.88,0-1.43.67-1.43,1.87Z"/></svg>