<?xml version="1.0" encoding="UTF-8" standalone="no"?>
<!DOCTYPE svg PUBLIC "-//W3C//DTD SVG 1.1//EN" "http://www.w3.org/Graphics/SVG/1.1/DTD/svg11.dtd">
<!-- Created with Vectornator (http://vectornator.io/) -->
<svg height="100%" stroke-miterlimit="10" style="fill-rule:nonzero;clip-rule:evenodd;stroke-linecap:round;stroke-linejoin:round;" version="1.1" viewBox="0 0 240 80" width="100%" xml:space="preserve" xmlns="http://www.w3.org/2000/svg" xmlns:xlink="http://www.w3.org/1999/xlink">
<defs/>
<path d="M0 0L240 0L240 80L0 80L0 0Z" fill="#000000" fill-opacity="0" fill-rule="nonzero" opacity="1" stroke="none"/>
<clipPath id="ArtboardFrame">
<rect height="80" width="240" x="0" y="0"/>
</clipPath>
<g clip-path="url(#ArtboardFrame)" id="Sem-Título">
<path d="M233.539 25.9608C232.751 25.8679 232.02 26.3862 231.847 27.1607L226.172 43.5876L219.656 27.0767C219.482 26.3347 218.797 25.8273 218.036 25.8768L212.541 25.8768C211.461 25.8768 211.029 26.5368 211.521 27.5687L222.74 52.9589L221.828 54.9027C220.448 57.9865 219.056 59.1864 217.676 59.1864C216.843 59.1553 216.026 58.951 215.277 58.5865C214.953 58.3489 214.538 58.2718 214.151 58.3769C213.763 58.482 213.444 58.7579 213.285 59.1264L211.725 62.1502C211.297 62.8213 211.483 63.7114 212.145 64.1541C213.719 65.4593 215.704 66.165 217.748 66.1459C223.124 66.1459 226.256 62.1502 229.16 54.7827L239.839 27.6887C240.259 26.6568 239.839 25.9968 238.807 25.9968L233.539 25.9608ZM7.19948 39.9878C6.98135 37.3634 8.25807 34.8395 10.5014 33.4603C12.7448 32.0811 15.5732 32.0811 17.8166 33.4603C20.0599 34.8395 21.3366 37.3634 21.1185 39.9878C21.2267 41.9069 20.5459 43.7869 19.234 45.1917C17.922 46.5965 16.093 47.4041 14.171 47.4273C12.2481 47.4004 10.4189 46.5925 9.10399 45.1893C7.78905 43.7861 7.10151 41.9084 7.19948 39.9878ZM-3.55271e-15 39.9878C-3.55271e-15 48.2072 5.99957 53.8948 13.511 53.8948C16.3431 53.9114 19.055 52.7511 20.9985 50.691C20.9385 56.4386 17.9147 59.0304 12.7311 59.0304C9.71479 58.9698 6.78715 57.9995 4.33169 56.2466C3.99874 55.9802 3.55988 55.886 3.14691 55.9922C2.73394 56.0984 2.39498 56.3926 2.23184 56.7866L0.41997 60.3863C-0.00104771 61.1129 0.239464 62.0429 0.959931 62.4742C4.54205 64.7775 8.70061 66.0251 12.9591 66.0739C22.9064 66.0739 28.402 60.6863 28.402 48.2912L28.402 27.4127C28.4395 27.0173 28.2987 26.6258 28.0178 26.345C27.737 26.0641 27.3455 25.9233 26.9501 25.9608L22.7984 25.9608C22.403 25.9233 22.0114 26.0641 21.7306 26.345C21.4498 26.6258 21.3089 27.0173 21.3465 27.4127L21.3465 28.9846C19.4041 26.7809 16.6164 25.507 13.679 25.4809C6.33554 25.4809-3.55271e-15 31.7684-3.55271e-15 39.9878ZM50.1324 39.9878C49.9802 37.3908 51.2793 34.9232 53.5064 33.5787C55.7336 32.2343 58.5222 32.2343 60.7494 33.5787C62.9765 34.9232 64.2756 37.3908 64.1234 39.9878C64.2756 42.5848 62.9765 45.0524 60.7494 46.3969C58.5222 47.7413 55.7336 47.7413 53.5064 46.3969C51.2793 45.0524 49.9802 42.5848 50.1324 39.9878ZM42.8369 39.9878C42.6861 45.1944 45.3776 50.0713 49.8631 52.7192C54.3487 55.367 59.9191 55.367 64.4046 52.7192C68.8902 50.0713 71.5817 45.1944 71.4309 39.9878C71.5817 34.7812 68.8902 29.9043 64.4046 27.2565C59.9191 24.6087 54.3487 24.6087 49.8631 27.2565C45.3776 29.9043 42.6861 34.7812 42.8369 39.9878ZM113.416 39.9878C113.228 37.3666 114.52 34.8599 116.763 33.4919C119.007 32.124 121.827 32.124 124.071 33.4919C126.315 34.8599 127.607 37.3666 127.419 39.9878C127.607 42.609 126.315 45.1158 124.071 46.4837C121.827 47.8516 119.007 47.8516 116.763 46.4837C114.52 45.1158 113.228 42.609 113.416 39.9878ZM106.12 39.9878C105.97 45.1944 108.661 50.0713 113.147 52.7192C117.632 55.367 123.203 55.367 127.688 52.7192C132.174 50.0713 134.865 45.1944 134.714 39.9878C134.865 34.7812 132.174 29.9043 127.688 27.2565C123.203 24.6087 117.632 24.6087 113.147 27.2565C108.661 29.9043 105.97 34.7812 106.12 39.9878ZM145.334 39.9878C145.334 35.5721 148.465 32.5483 152.209 32.5483C155.953 32.5483 159.085 35.5721 159.085 39.9878C159.085 44.4035 155.953 47.4273 152.209 47.4273C148.465 47.4273 145.334 44.4635 145.334 39.9878ZM145.034 29.0446L145.034 27.4127C145.071 27.0173 144.93 26.6258 144.649 26.345C144.369 26.0641 143.977 25.9233 143.582 25.9608L139.538 25.9608C139.145 25.9271 138.756 26.0696 138.478 26.35C138.2 26.6303 138.061 27.0196 138.098 27.4127L138.098 64.1781C138.06 64.5703 138.2 64.9588 138.479 65.2374C138.757 65.516 139.146 65.6556 139.538 65.618L143.99 65.618C144.383 65.655 144.772 65.5157 145.052 65.2376C145.333 64.9596 145.475 64.5715 145.442 64.1781L145.442 51.291C147.436 53.314 150.148 54.4694 152.989 54.5068C160.344 54.5068 166.38 48.2192 166.38 39.9878C166.38 31.7564 160.224 25.4809 153.049 25.4809C149.975 25.4445 147.039 26.7607 145.022 29.0806L145.034 29.0446ZM187.87 39.9878C187.87 35.5121 191.002 32.5483 194.746 32.5483C198.49 32.5483 201.586 35.5121 201.586 39.9878C201.697 41.8955 201.027 43.7663 199.73 45.1697C198.433 46.5731 196.621 47.3881 194.71 47.4273C191.002 47.4273 187.87 44.4035 187.87 39.9878ZM180.563 39.9878C180.563 48.2072 186.719 54.4948 193.894 54.4948C196.968 54.5311 199.904 53.2149 201.921 50.895L201.921 52.5269C201.884 52.9223 202.025 53.3138 202.306 53.5947C202.586 53.8755 202.978 54.0164 203.373 53.9788L207.417 53.9788C207.81 54.0126 208.199 53.87 208.477 53.5897C208.755 53.3093 208.894 52.92 208.857 52.5269L208.857 27.3287C208.894 26.9356 208.755 26.5463 208.477 26.266C208.199 25.9856 207.81 25.8431 207.417 25.8768L203.373 25.8768C202.978 25.8393 202.586 25.9801 202.306 26.261C202.025 26.5418 201.884 26.9333 201.921 27.3287L201.921 29.1886C199.915 26.8837 197.021 25.5437 193.966 25.5049C186.599 25.4809 180.563 31.7684 180.563 39.9878ZM82.0501 39.9878C82.0501 35.5721 85.1819 32.5483 88.9256 32.5483C92.6693 32.5483 95.8011 35.5721 95.8011 39.9878C95.8011 44.4035 92.6693 47.4273 88.9256 47.4273C85.1819 47.4273 82.0501 44.4635 82.0501 39.9878ZM76.2545 14.4057C75.8611 14.3719 75.473 14.5144 75.195 14.7948C74.9169 15.0752 74.7776 15.4644 74.8146 15.8575L74.8146 52.5629C74.7776 52.956 74.9169 53.3453 75.195 53.6257C75.473 53.906 75.8611 54.0486 76.2545 54.0148L80.2982 54.0148C80.6936 54.0524 81.0851 53.9115 81.366 53.6307C81.6468 53.3498 81.7877 52.9583 81.7501 52.5629L81.7501 50.991C83.908 53.2301 86.8839 54.495 89.9935 54.4948C97.061 54.4948 103.193 48.0872 103.193 39.9878C103.193 31.8884 96.941 25.4809 89.7655 25.4809C86.9097 25.5024 84.1787 26.6544 82.1701 28.6846L82.1701 15.8695C82.2077 15.4742 82.0668 15.0826 81.786 14.8018C81.5051 14.5209 81.1136 14.3801 80.7182 14.4177L76.2545 14.4177L76.2545 14.4057ZM171.216 14.4057C170.822 14.3719 170.434 14.5144 170.156 14.7948C169.878 15.0752 169.739 15.4644 169.776 15.8575L169.776 52.5629C169.739 52.956 169.878 53.3453 170.156 53.6257C170.434 53.906 170.822 54.0486 171.216 54.0148L175.739 54.0148C176.135 54.0524 176.526 53.9115 176.807 53.6307C177.088 53.3498 177.229 52.9583 177.191 52.5629L177.191 15.8575C177.225 15.4641 177.082 15.076 176.802 14.798C176.522 14.5199 176.132 14.3806 175.739 14.4177L171.216 14.4177L171.216 14.4057ZM32.0977 16.1095L32.0977 52.3229C32.0977 54.2548 33.2976 55.0467 35.0495 54.2548L37.3413 53.1869C38.6822 52.704 39.5428 51.3934 39.4532 49.9711L39.4532 18.3894C39.5455 16.9692 38.6829 15.6606 37.3413 15.1856L35.0495 14.1537C34.6743 13.9724 34.2659 13.8703 33.8496 13.8537C32.7936 13.8537 32.1337 14.6576 32.1337 16.0975L32.0977 16.1095Z" fill="#000000" fill-rule="nonzero" opacity="1" stroke="none"/>
</g>
</svg>
