<svg version="1.0" width="32pt" height="32pt" viewBox="0 0 32 32" xmlns="http://www.w3.org/2000/svg">
  <path d="M7.567 5.574a.262.262 0 0 0-.083.019.629.629 0 0 0-.306.318c-.02.071-.027 1.015-.027 4.145 0 4.475-.009 4.17.138 4.321a.435.435 0 0 0 .35.134c.049-.012.267-.096.482-.198.453-.211.567-.301.656-.521l.052-.13V6.398l-.052-.108a1.063 1.063 0 0 0-.129-.207c-.08-.098-.144-.133-.713-.393a1.411 1.411 0 0 0-.277-.105v-.003a.338.338 0 0 0-.09-.007zm9.856.121c-.316 0-.595.011-.621.02-.07.026-.16.147-.186.243-.016.06-.02 1.395-.018 4.148l.006 4.063.054.094c.034.06.078.102.12.117.085.03 1.191.032 1.269 0 .093-.035.129-.115.138-.315a1.25 1.25 0 0 1 .017-.189c.007-.011.072.039.145.099.293.235.606.385 1.004.483.355.084.653.067 1.213-.075.722-.184 1.435-.743 1.853-1.45.095-.162.25-.565.307-.807a6.95 6.95 0 0 1 .07-.278c.038-.13.051-.71.022-.904-.113-.709-.312-1.177-.723-1.7-.433-.546-1.179-.978-1.856-1.073-.738-.102-1.268.012-1.752.378-.196.146-.202.15-.215.138a33.954 33.954 0 0 1-.017-1.376c-.004-1.53.005-1.45-.171-1.561l-.09-.055zm-4.666 2.448a5.51 5.51 0 0 0-.596.03c-.409.052-.929.268-1.31.546a4.463 4.463 0 0 0-.72.715c-.556.76-.73 1.592-.545 2.594.044.24.077.335.208.612a3.185 3.185 0 0 0 1.65 1.609c.223.093.504.172.868.234.509.091 1.269-.038 1.789-.305a3.265 3.265 0 0 0 1.555-1.662 3.7 3.7 0 0 0 .226-1.206c0-.178-.046-.544-.097-.787-.169-.786-.832-1.63-1.59-2.024a3.176 3.176 0 0 0-.89-.318 3.582 3.582 0 0 0-.548-.038Zm13.81.002c-.174 0-.344.01-.497.03-.436.056-.99.289-1.371.577-.48.36-.944 1-1.14 1.578-.144.424-.205 1.049-.136 1.42.129.695.389 1.24.842 1.751.345.392.956.757 1.46.88.69.166.974.173 1.6.033a3.084 3.084 0 0 0 1.657-.981c.511-.594.81-1.383.809-2.127a3.585 3.585 0 0 0-.342-1.407c-.173-.346-.313-.535-.631-.855a2.984 2.984 0 0 0-1.737-.872 4.405 4.405 0 0 0-.515-.027zm-23.365.002.002.002c-.215 0-.442 0-.575.023-.184.027-.384.087-.692.207-.287.11-.785.463-1.023.725-.491.538-.731 1.044-.829 1.746-.053.384-.056.522-.012.813.018.12.034.26.034.31 0 .115.183.67.278.846a3.508 3.508 0 0 0 1.445 1.39c.335.162.82.282 1.232.3.515.025.998-.149 1.42-.511.18-.156.18-.155.115.185-.076.388-.218.648-.482.877-.2.173-.41.278-.72.352-.41.1-.66.095-1.12-.016-.469-.116-.697-.21-1.168-.478-.253-.144-.29-.158-.402-.158-.23 0-.245.013-.41.335-.24.473-.302.633-.295.762.007.106.013.116.133.214.167.133.87.484 1.203.597.693.238 1.38.342 1.901.29.927-.093 1.645-.417 2.15-.968.204-.224.337-.42.481-.71.14-.278.187-.429.28-.886.12-.6.12-.621.12-3.412V8.396l-.075-.064a.565.565 0 0 0-.127-.085c-.076-.029-1.193-.029-1.248 0-.076.04-.114.162-.11.336a.687.687 0 0 1-.006.167c-.007.011-.048-.017-.088-.053-.209-.182-.67-.44-.908-.507a2.61 2.61 0 0 0-.504-.043Zm.015 1.549c.126.006.346.07.504.143.166.08.237.131.401.293.351.345.498.683.498 1.152 0 .537-.133.874-.477 1.21-.296.288-.522.393-.895.416-.438.026-.76-.104-1.105-.453a1.771 1.771 0 0 1-.322-.456 2.17 2.17 0 0 1-.136-.698c0-.225.073-.542.171-.736.227-.444.691-.8 1.109-.846.098-.012.19-.021.205-.024a.289.289 0 0 1 .047-.001zm16.522.006c.325.007.711.17.962.419a1.67 1.67 0 0 1 .331 1.95c-.073.153-.126.224-.293.39-.317.32-.55.43-.95.449-.34.017-.574-.048-.838-.233a1.56 1.56 0 0 1-.629-.85c-.064-.193-.072-.236-.072-.511-.002-.256.008-.324.05-.466.202-.644.68-1.062 1.304-1.142a.898.898 0 0 1 .135-.006zm-6.979.023c.234.012.29.018.446.078.237.09.368.176.543.356.187.189.292.344.39.58.24.575.101 1.24-.356 1.702-.336.34-.635.466-1.11.461-.232 0-.29-.011-.433-.06a1.6 1.6 0 0 1-.926-.826c-.13-.282-.153-.391-.15-.722 0-.289.003-.31.079-.516.046-.126.122-.274.18-.354.113-.16.342-.39.469-.476a1.64 1.64 0 0 1 .48-.202 1.7 1.7 0 0 1 .388-.02zm13.705 0c.065-.002.14-.001.208 0v.003c.211.012.273.02.427.078.433.166.813.542.944.933.165.493.107 1.077-.146 1.45-.571.847-1.686.964-2.4.253a1.634 1.634 0 0 1-.426-1.466c.065-.282.257-.643.432-.807.225-.209.573-.394.81-.432a1.13 1.13 0 0 1 .151-.012zm-9.02 5.455c-.316 0-.605.01-.643.022a.207.207 0 0 0-.09.063l-.001.002s0 .002-.002.003a.464.464 0 0 0-.052.07v.001a.57.57 0 0 0-.024.043v.001c-.007.015-.016.03-.022.046v.001a.58.58 0 0 0-.016.049v.001a.578.578 0 0 0-.006.076v.002a6.372 6.372 0 0 0-.004.189v.003c-.003.166-.007.41-.009.74v.004c-.004.663-.004 1.668-.004 3.07v4.004l.05.096v.002c.02.04.04.075.062.1.07.08.17.097.434.11.167.012.431.012.589.012.262-.011.29-.015.372-.068a.686.686 0 0 0 .129-.12.1.1 0 0 0 .013-.039.731.731 0 0 0 .01-.088v-.002a4.24 4.24 0 0 0 .008-.184v-.002l.004-.318v-.003c.003-.268.006-.652.007-1.206v-.001l.005-2.228v-.002c0-1.3.001-2.313-.002-3.012v-.002a88.798 88.798 0 0 0-.006-.805v-.003a13.707 13.707 0 0 0-.004-.216v-.003a.856.856 0 0 0-.006-.091v-.003a.294.294 0 0 0-.069-.163v-.001a.772.772 0 0 0-.051-.054l-.1-.093zm-4.686 2.424v.003a3.7 3.7 0 0 0-.362.02c-.362.072-.887.326-1.105.537l-.09.09-.016-.146c-.023-.193-.103-.364-.185-.386-.033-.012-.314-.018-.623-.018-.533 0-.56 0-.62.047a.565.565 0 0 0-.112.12l-.051.073v4.106c0 2.422.01 4.13.02 4.16a.62.62 0 0 0 .097.135l.078.082.612-.012c.578-.011.614-.01.672-.052a.597.597 0 0 0 .107-.107c.047-.06.046-.087.053-1.47l.004-1.412.106.091c.166.147.404.283.662.381a1.4 1.4 0 0 0 .486.109 2.995 2.995 0 0 0 1.935-.5c.245-.162.663-.578.83-.825.24-.36.423-.78.503-1.16.051-.242.066-.748.035-1.084a2.113 2.113 0 0 0-.128-.584c-.192-.571-.361-.851-.781-1.269-.32-.32-.49-.445-.845-.622a3.608 3.608 0 0 0-.89-.289 2.873 2.873 0 0 0-.392-.018zm9.096.006a1.247 1.247 0 0 0-.429.063c-.433.107-.745.233-.991.397a3.57 3.57 0 0 0-.947.933 3.271 3.271 0 0 0-.477 1.114c-.045.202-.05.288-.049.675 0 .369.01.488.052.697.026.138.057.269.069.289.011.02.05.113.086.206.08.216.257.537.406.742.24.326.666.7 1.024.898.54.297 1.31.424 1.904.309.291-.056.738-.278.927-.46a.594.594 0 0 1 .106-.091c.007 0 .013.073.013.162 0 .15.004.167.061.22.116.109.134.11.736.114.5 0 .582 0 .674-.038.188-.074.172.207.172-3.004 0-2.346-.005-2.868-.029-2.928a.404.404 0 0 0-.127-.136l-.094-.07h-.586c-.551 0-.583.003-.63.048-.075.066-.11.17-.11.332 0 .087-.011.144-.026.144a.476.476 0 0 1-.126-.087 2.931 2.931 0 0 0-.86-.458c-.16-.056-.213-.062-.521-.066h-.002a10.4 10.4 0 0 0-.226-.005zm9.661.085c-.097-.001-.219 0-.372.002v.001c-.644.012-.646.011-.74.19-.07.143-.644 1.716-1.002 2.76-.066.19-.16.456-.206.594a7.599 7.599 0 0 0-.098.277c-.007.016-.03-.026-.052-.093a2.67 2.67 0 0 0-.079-.212 15.25 15.25 0 0 1-.22-.53c0-.012-.105-.263-.278-.67a78.258 78.258 0 0 1-.744-1.788c-.149-.378-.183-.433-.29-.491-.042-.024-.197-.033-.655-.035-.329 0-.62 0-.646.013a.81.81 0 0 0-.247.287c-.018.076.012.149.427 1.127a56 56 0 0 1 .644 1.555 157.207 157.207 0 0 0 1.01 2.4c.012.024.071.172.134.332.06.158.127.315.145.349.046.084.042.137-.031.285-.267.536-.76.896-1.13.822a1.237 1.237 0 0 1-.432-.21c-.144-.123-.372-.133-.487-.021a1.973 1.973 0 0 0-.203.296l-.22.378c-.2.333-.19.539.027.706.131.098.467.242.709.3.398.1.46.105.85.105.364 0 .386 0 .581-.068.396-.134.856-.505 1.185-.954a8.51 8.51 0 0 0 .454-.677c.216-.384.36-.702.554-1.211.049-.13.094-.25.103-.267a81.147 81.147 0 0 1 .48-1.311c.029-.08.106-.284.168-.455.063-.172.128-.343.144-.378.033-.072.434-1.126.563-1.477.464-1.269.435-1.173.438-1.493.002-.264 0-.284-.049-.335-.068-.072-.143-.098-.435-.103zm-18.854 1.47c.024 0 .05.003.078.008v-.006c.163.012.374.074.583.175.149.073.221.128.384.288.166.17.216.234.298.405.131.269.173.455.173.757 0 .473-.149.842-.473 1.169a1.36 1.36 0 0 1-.61.39c-.76.255-1.623-.3-1.814-1.17-.191-.87.252-1.69 1.043-1.93.117-.038.24-.07.27-.078a.25.25 0 0 1 .068-.008zm9.413.019c.114 0 .23.023.362.067a1.8 1.8 0 0 1 .305.123c.36.209.656.614.76 1.027.06.233.06.56 0 .794-.162.638-.685 1.132-1.276 1.205-.655.08-1.284-.347-1.544-1.051-.066-.18-.076-.232-.085-.494-.009-.267-.003-.31.05-.495.169-.591.518-.956 1.078-1.125.123-.037.236-.054.35-.051z"/>
</svg>