<?xml version="1.0" encoding="UTF-8"?><svg id="a" xmlns="http://www.w3.org/2000/svg" viewBox="0 0 240 80"><defs><style>.b{stroke-width:0px;}</style></defs><path class="b" d="m33.85,15.33c-1.68-.78-2.89,0-2.89,1.85v34.62c0,1.85,1.2,2.63,2.89,1.85l2.22-.95c1.28-.45,2.11-1.68,2.05-3.04v-30.29c.07-1.36-.77-2.6-2.05-3.04l-2.22-1.01Zm52.89,10.8c-2.75.01-5.39,1.12-7.33,3.07v-12.26c.1-.65-.34-1.27-1-1.37-.13-.02-.27-.02-.41,0h-4.31c-.65-.11-1.27.34-1.38.99-.02.13-.02.25,0,.38v35.06c-.07.69.43,1.31,1.13,1.38.08,0,.17,0,.25,0h3.9c.69.08,1.31-.42,1.39-1.11,0-.09.01-.18,0-.27v-1.45c2.08,2.14,4.95,3.34,7.93,3.34,6.79,0,12.68-6.13,12.68-13.88s-6-13.88-12.86-13.88h0Zm-64.73.48c-.65-.11-1.27.33-1.38.99-.02.13-.02.27,0,.41v1.49c-1.88-2.12-4.58-3.35-7.42-3.37C5.74,26.33-.16,32.53,0,40c-.27,7.07,5.25,13.01,12.31,13.28.24,0,.49.01.73,0,2.71.02,5.32-1.08,7.2-3.04-.06,5.48-2.94,7.99-7.99,7.99-2.88-.09-5.67-1.01-8.04-2.64-.55-.47-1.37-.4-1.84.15-.09.1-.16.21-.21.33l-1.74,3.35c-.44.67-.26,1.57.41,2.01.04.03.08.05.13.08,3.45,2.21,7.45,3.4,11.54,3.46,9.6,0,14.9-5.12,14.9-16.98v-19.99c.1-.65-.35-1.27-1-1.37-.13-.02-.25-.02-.38,0l-4.03-.02Zm33.2-.49c-7.67-.05-13.92,6.13-13.97,13.8-.05,7.67,6.13,13.92,13.8,13.97,7.67.05,13.92-6.13,13.97-13.8,0-.03,0-.06,0-.08.11-7.56-5.94-13.78-13.5-13.88-.1,0-.2,0-.3,0Zm61.12,0c-7.67-.05-13.92,6.13-13.97,13.8-.05,7.67,6.13,13.92,13.8,13.97,7.67.05,13.92-6.13,13.97-13.8,0-.03,0-.06,0-.08.11-7.56-5.94-13.78-13.5-13.88-.11,0-.22,0-.33,0h.02Zm44.58,17.48c-.69,0-1.33.38-1.63,1.01-1,1.67-2.85,2.64-4.8,2.51-3.67,0-6.49-3.04-6.49-7.09s2.88-7.09,6.49-7.09c1.86-.08,3.62.83,4.62,2.4.32.64.98,1.03,1.69,1.01h4.68c.96,0,1.5-.6,1.2-1.55-1.8-5.23-6.78-8.7-12.31-8.58-7.44.03-13.44,6.08-13.41,13.52,0,.12,0,.24,0,.37,0,8.04,5.82,13.88,13.4,13.88,5.82,0,10.93-3.46,12.43-8.76.24-.95-.36-1.49-1.26-1.49h-4.56l-.06-.13Zm22.11-17.46c-7.67-.06-13.93,6.11-13.99,13.77-.06,7.67,6.11,13.93,13.77,13.99,7.67.06,13.93-6.11,13.99-13.77,0-.04,0-.09,0-.13.11-7.56-5.94-13.78-13.5-13.88-.11,0-.22,0-.33,0l.05.02Zm45.73,0c-3.08-.03-5.99,1.38-7.87,3.82-1.61-2.4-4.31-3.83-7.2-3.82-2.65-.07-5.17,1.12-6.79,3.22v-1.36c.07-.69-.43-1.31-1.13-1.38-.08,0-.17,0-.25,0h-3.91c-.69-.08-1.31.42-1.39,1.11,0,.09-.01.18,0,.27v24c-.09.66.37,1.26,1.03,1.35.12.02.24.01.36,0h4.33c.66.1,1.27-.35,1.36-1.01.02-.11.02-.22,0-.34v-13.2c0-3.76,1.87-6,4.8-6s4.45,1.97,4.45,5.78v13.41c-.1.65.35,1.27,1,1.37.13.02.25.02.38,0h4.32c.65.12,1.28-.31,1.4-.96.02-.13.03-.27,0-.41v-13.2c0-3.76,1.86-6,4.8-6s4.45,1.97,4.45,5.78v13.41c-.1.65.35,1.27,1,1.37.13.02.25.02.38,0h4.33c.65.11,1.27-.34,1.38-.99.02-.13.02-.25,0-.38v-14.27c-.12-7.09-4.27-11.61-11.24-11.61v.02ZM13.71,47.03c-3.73-.01-6.75-3.04-6.74-6.77,0-.09,0-.17,0-.26-.35-3.71,2.37-7,6.08-7.35,3.71-.35,7,2.37,7.35,6.08.04.42.04.85,0,1.27.13,3.75-2.8,6.89-6.55,7.03-.05,0-.1,0-.15,0Zm41.47,0c-3.75-.03-6.77-3.1-6.74-6.85,0-.06,0-.12,0-.18-.22-3.72,2.61-6.91,6.33-7.13,3.72-.22,6.91,2.61,7.13,6.33.02.27.02.54,0,.8.19,3.73-2.68,6.9-6.41,7.08-.1,0-.2,0-.3,0l-.02-.06Zm30.72,0c-3.72-.02-6.72-3.06-6.7-6.79,0-.08,0-.16,0-.25-.22-3.68,2.59-6.85,6.27-7.07,3.68-.22,6.85,2.59,7.07,6.27.02.27.02.53,0,.8.21,3.7-2.61,6.87-6.31,7.08-.12,0-.25.01-.37.01l.04-.06Zm30.41,0c-3.75-.03-6.77-3.1-6.74-6.85,0-.06,0-.12,0-.18-.22-3.72,2.61-6.91,6.33-7.13s6.91,2.61,7.13,6.33c.02.27.02.54,0,.8.19,3.73-2.68,6.9-6.41,7.08-.11,0-.21,0-.32,0v-.06Zm66.71,0c-3.75-.03-6.77-3.1-6.74-6.85,0-.06,0-.12,0-.18-.22-3.72,2.61-6.91,6.33-7.13s6.91,2.61,7.13,6.33c.02.27.02.54,0,.8.21,3.71-2.63,6.88-6.34,7.08-.13,0-.26.01-.39.01v-.06Zm-47.54-2.4c-2.55,0-4.62,2.07-4.62,4.62,0,2.55,2.07,4.62,4.62,4.62,2.54,0,4.6-2.05,4.62-4.58.05-2.52-1.96-4.61-4.49-4.66-.04,0-.09,0-.13,0Z"/></svg>