<?xml version="1.0" encoding="UTF-8" standalone="no"?>
<svg version="1.0" x="0px" y="0px" viewBox="0 0 32.000001 32" xml:space="preserve" width="32" height="32" id="svg1" xmlns="http://www.w3.org/2000/svg" xmlns:svg="http://www.w3.org/2000/svg"><defs id="defs1" />
<path id="path1" d="m 15.921875,0.00195313 c -2.82527,0.01 -5.651862,0.02773437 -8.4765625,0.05273437 -0.63178,0.01 -2.0950931,0.26464688 -2.6582031,0.49804688 -0.64094,0.26559999 -1.251285,0.54484682 -1.828125,0.99804682 -0.50817,0.3983 -0.9421013,0.8799344 -1.3632813,1.3652344 -0.0961,0.1099 -0.78233498,1.204525 -0.82812498,1.328125 -0.31589,0.8332 -0.65619187,2.2700031 -0.66992187,3.1582032 -0.0824,5.6448002 -0.0961,11.2978652 0,16.9472652 0.0137,0.7554 0.10116813,1.602872 0.33007813,2.326172 0.87898992,2.7835 3.14043312,4.876597 6.18945312,5.091797 5.7043405,0.4257 12.1788355,0.1542 17.9472655,0.0625 1.70306,-0.041 3.318161,-0.530206 4.650391,-1.628906 2.54085,-2.0968 2.71875,-4.592035 2.71875,-7.677734 -0.005,-4.926001 0.09626,-9.86101 -0.02734,-14.7871099 -0.0412,-1.5336 -0.311069,-3.1034312 -1.199219,-4.3945312 -0.92936,-1.3551 -2.347358,-2.5927844 -3.986328,-2.9589844 -0.75081,-0.1694 -1.557042,-0.314425 -2.326172,-0.328125 -2.82241,-0.046 -5.647376,-0.05773438 -8.472656,-0.05273437 z m -0.08789,7.00195307 v 0.00391 c 1.19613,0.01 2.46027,0.5002563 3.25,1.4101563 0.19228,0.2196999 0.174502,-0.059063 0.169922,-0.3515626 -0.009,-0.3479 -0.03356,-0.618375 0.328125,-0.796875 0.21517,-0.1052999 1.982812,-0.040578 2.326172,-0.017578 0.25637,0.014 0.43878,0.250875 0.443359,0.484375 0.0458,3.2093001 0.01907,6.4274191 0.0098,9.6367191 -0.009,2.8567 -0.964962,6.085262 -3.945312,7.101562 -1.07128,0.3571 -2.197999,0.508719 -3.324219,0.449219 -1.4421,-0.069 -2.865894,-0.467215 -4.152344,-1.103516 -0.33878,-0.169399 -1.0032849,-0.449568 -1.1406249,-0.792968 -0.0778,-0.1922 -0.041412,-0.480963 0.054687,-0.664063 0.2517999,-0.4853 0.4621269,-1.042893 0.7734369,-1.496093 0.16481,-0.2381 0.308083,-0.31976 0.564453,-0.44336 0.82864,0.5127 1.954,1.034078 2.90625,1.267578 1.63439,0.3937 3.415975,0.09088 4.427735,-1.324218 0.36625,-0.5219 0.475636,-1.203572 0.535156,-1.826172 0.0229,-0.2427 0.03143,-0.458463 -0.142578,-0.289063 -1.96401,1.9182 -5.035006,1.488978 -7.072266,-0.04492 -1.9914797,-1.5016 -2.58711,-4.436075 -1.90039,-6.734375 0.75081,-2.5042003 3.03628,-4.3307843 5.65039,-4.4589843 0.079,0 0.158541,-0.00977 0.238281,-0.00977 z m 0.123047,3.0820318 c -0.28677,0 -0.576338,0.04028 -0.861328,0.113281 -1.26356,0.325 -2.129143,1.579556 -2.220703,2.847656 -0.10988,1.5658 0.852301,3.323834 2.550781,3.552734 0.86069,0.1328 1.821151,-0.03758 2.494141,-0.609375 1.41464,-1.1995 1.66224,-3.560165 0.34375,-4.947265 -0.61118,-0.6455 -1.446311,-0.963031 -2.306641,-0.957031 z" />
</svg>
