<?xml version="1.0" encoding="UTF-8"?><svg id="a" xmlns="http://www.w3.org/2000/svg" viewBox="0 0 240.29 80"><path d="m33.9,17.3c-1.68-.78-2.89,0-2.89,1.85v34.66c0,1.85,1.2,2.64,2.89,1.85l2.22-.95c1.28-.45,2.11-1.68,2.05-3.05v-30.33c.07-1.36-.77-2.6-2.05-3.05l-2.22-1.01h0Zm52.95,10.81c-2.75,0-5.4,1.12-7.34,3.07v-12.27c.1-.65-.34-1.27-1-1.37-.13-.02-.27-.02-.41,0h-4.32c-.65-.11-1.27.34-1.38.99-.02.13-.02.25,0,.38v35.1c-.07.69.43,1.31,1.13,1.38h4.15c.69.08,1.31-.42,1.39-1.11,0-.09,0-.18,0-.27v-1.45c2.08,2.15,4.95,3.35,7.94,3.35,6.8,0,12.69-6.14,12.69-13.9s-6.01-13.9-12.87-13.9h.02Zm-64.81.48c-.65-.11-1.27.33-1.38.99-.02.13-.02.27,0,.41v1.49c-1.88-2.12-4.58-3.35-7.43-3.37C5.75,28.32-.15,34.52,0,42c-.27,7.08,5.25,13.03,12.33,13.3.24,0,.49,0,.73,0,2.71.02,5.33-1.08,7.21-3.05-.06,5.49-2.95,8-8,8-2.88-.09-5.67-1.01-8.05-2.65-.55-.47-1.37-.4-1.85.15-.09.1-.16.21-.21.33l-1.75,3.35c-.44.67-.26,1.57.41,2.01.04.03.08.05.13.08,3.45,2.21,7.45,3.4,11.55,3.46,9.61,0,14.92-5.13,14.92-17v-20.02c.1-.65-.35-1.27-1-1.37-.13-.02-.25-.02-.38,0l-4.04-.02h.03Zm33.24-.49c-7.68-.05-13.94,6.14-13.99,13.82s6.14,13.94,13.82,13.99c7.68.05,13.94-6.14,13.99-13.82v-.08c.11-7.57-5.95-13.8-13.52-13.9h-.3Zm61.19,0c-7.68-.05-13.94,6.14-13.99,13.82s6.14,13.94,13.82,13.99c7.68.05,13.94-6.14,13.99-13.82v-.08c.11-7.57-5.95-13.8-13.52-13.9h-.33.03Zm44.64,17.5c-.69,0-1.33.38-1.64,1.01-1,1.67-2.85,2.65-4.81,2.51-3.67,0-6.5-3.05-6.5-7.1s2.88-7.1,6.5-7.1c1.86-.08,3.63.83,4.63,2.4.32.64.98,1.03,1.69,1.01h4.68c.96,0,1.5-.6,1.2-1.55-1.8-5.24-6.79-8.71-12.33-8.59-7.45.03-13.45,6.09-13.43,13.54v.37c0,8.05,5.83,13.9,13.42,13.9,5.83,0,10.95-3.46,12.45-8.77.24-.95-.36-1.49-1.26-1.49h-4.56l-.06-.13h.03Zm22.14-17.48c-7.68-.06-13.95,6.12-14.01,13.79-.06,7.68,6.12,13.95,13.79,14.01,7.68.06,13.95-6.12,14.01-13.79v-.13c.11-7.57-5.95-13.8-13.52-13.9h-.33l.05.02h0,0Zm45.78,0c-3.08-.03-6,1.38-7.88,3.83-1.61-2.4-4.32-3.84-7.21-3.83-2.65-.07-5.17,1.12-6.8,3.23v-1.36c.07-.69-.43-1.31-1.13-1.38h-4.16c-.69-.08-1.31.42-1.39,1.11,0,.09,0,.18,0,.27v24.03c-.09.66.37,1.26,1.03,1.35.12.02.24,0,.36,0h4.34c.66.1,1.27-.35,1.36-1.01.02-.11.02-.22,0-.34v-13.22c0-3.76,1.87-6.01,4.81-6.01s4.45,1.97,4.45,5.79v13.43c-.1.65.35,1.27,1,1.37.13.02.25.02.38,0h4.33c.65.12,1.28-.31,1.4-.96.02-.13.03-.27,0-.41v-13.22c0-3.76,1.86-6.01,4.81-6.01s4.45,1.97,4.45,5.79v13.43c-.1.65.35,1.27,1,1.37.13.02.25.02.38,0h4.34c.65.11,1.27-.34,1.38-.99.02-.13.02-.25,0-.38v-14.29c-.12-7.1-4.27-11.63-11.25-11.63v.04h0ZM13.74,49.04c-3.74,0-6.75-3.05-6.75-6.78v-.26c-.35-3.72,2.37-7.01,6.09-7.35s7.01,2.37,7.35,6.09c.04.42.04.85,0,1.27.13,3.75-2.8,6.9-6.55,7.04h-.15s0,0,0,0Zm41.52,0c-3.75-.03-6.78-3.1-6.75-6.85v-.18c-.22-3.73,2.61-6.92,6.34-7.14,3.73-.22,6.92,2.61,7.14,6.34.02.27.02.54,0,.8.19,3.74-2.68,6.91-6.42,7.09h-.3l-.02-.06h0Zm30.75,0c-3.73-.02-6.73-3.06-6.71-6.8v-.25c-.22-3.68,2.59-6.85,6.28-7.08s6.85,2.59,7.08,6.28c.02.27.02.53,0,.8.21,3.7-2.61,6.88-6.32,7.09-.12,0-.25,0-.37,0l.04-.06h0v.02Zm30.44,0c-3.75-.03-6.78-3.1-6.75-6.85v-.18c-.22-3.73,2.61-6.92,6.34-7.14,3.73-.22,6.92,2.61,7.14,6.34.02.27.02.54,0,.8.19,3.74-2.68,6.91-6.42,7.09h-.32v-.06h0Zm66.79,0c-3.75-.03-6.78-3.1-6.75-6.85v-.18c-.22-3.73,2.61-6.92,6.34-7.14s6.92,2.61,7.14,6.34c.02.27.02.54,0,.8.21,3.72-2.64,6.89-6.35,7.09-.13,0-.26,0-.39,0v-.06h0,0Zm-47.6-2.4c-2.55,0-4.63,2.07-4.63,4.63s2.07,4.63,4.63,4.63,4.61-2.05,4.63-4.58c.05-2.53-1.96-4.62-4.49-4.66h-.14Z" style="stroke-width:0px;"/></svg>