<?xml version="1.0" encoding="UTF-8" standalone="no"?>
<svg version="1.0" width="32pt" height="32pt" viewBox="0 0 32 32" preserveAspectRatio="xMidYMid" id="svg94" sodipodi:docname="unnamed-_1_.svg" inkscape:version="1.4-beta2 (9aaf4f34, 2024-07-30)" xmlns:inkscape="http://www.inkscape.org/namespaces/inkscape" xmlns:sodipodi="http://sodipodi.sourceforge.net/DTD/sodipodi-0.dtd" xmlns="http://www.w3.org/2000/svg" xmlns:svg="http://www.w3.org/2000/svg">
  <defs id="defs94" />
  <sodipodi:namedview id="namedview94" pagecolor="#ffffff" bordercolor="#000000" borderopacity="0.25" inkscape:showpageshadow="2" inkscape:pageopacity="0.0" inkscape:pagecheckerboard="0" inkscape:deskcolor="#d1d1d1" inkscape:document-units="pt" inkscape:zoom="3.3407655" inkscape:cx="14.367964" inkscape:cy="8.5309789" inkscape:window-width="1440" inkscape:window-height="790" inkscape:window-x="0" inkscape:window-y="0" inkscape:window-maximized="1" inkscape:current-layer="g1051" />
  <g id="g1051" style="fill:#000000">
    <g id="g1093" transform="matrix(1.1543434,0,0,1.1543434,2.4217908e-4,-2.4694798)">
      <path d="m 18.933105,17.39502 c -0.153375,-0.0014 -0.204617,0.0092 -0.37207,0.0542 -0.37532,0.092 -0.644758,0.201838 -0.858398,0.344238 -0.32336,0.2175 -0.616293,0.506394 -0.820313,0.808594 -0.19633,0.2926 -0.334176,0.613567 -0.413086,0.963867 -0.0385,0.1751 -0.04448,0.251037 -0.04248,0.585937 0,0.3195 0.0076,0.422616 0.04395,0.603516 0.0231,0.1193 0.05036,0.233188 0.06006,0.250488 0.01,0.017 0.04391,0.09771 0.07471,0.178711 0.0693,0.1867 0.222602,0.464602 0.351562,0.641602 0.20787,0.283 0.577816,0.606532 0.887696,0.777832 0.46771,0.258 1.135514,0.368166 1.649414,0.268066 0.25214,-0.048 0.639124,-0.240637 0.802734,-0.398437 0.0443,-0.044 0.08648,-0.0791 0.09229,-0.0791 0.006,0 0.01025,0.06312 0.01025,0.140625 0,0.129 0.0043,0.14423 0.0542,0.19043 0.10009,0.094 0.115607,0.09551 0.637207,0.09961 0.43307,0 0.504088,-6.91e-4 0.583008,-0.03369 0.1636,-0.064 0.149414,0.179737 0.149414,-2.601563 0,-2.0325 -0.0039,-2.485109 -0.0249,-2.537109 -0.0154,-0.035 -0.06365,-0.08735 -0.109863,-0.118652 l -0.08203,-0.05859 h -0.506836 c -0.47734,0 -0.505966,5.51e-4 -0.546386,0.03955 -0.0654,0.058 -0.09521,0.148074 -0.09521,0.288574 0,0.075 -0.0088,0.124512 -0.02197,0.124512 -0.0115,0 -0.05986,-0.03271 -0.109863,-0.07471 -0.18285,-0.1501 -0.459281,-0.298873 -0.744141,-0.396973 -0.13858,-0.048 -0.185106,-0.05313 -0.452636,-0.05713 h -0.0015 c -0.0818,-0.0025 -0.143699,-0.0039 -0.194825,-0.0044 z m 0.19043,1.362304 c 0.0989,0 0.199917,0.02059 0.313477,0.05859 0.10009,0.031 0.219402,0.08003 0.263672,0.106934 0.31181,0.1809 0.568709,0.53116 0.659179,0.88916 0.052,0.2021 0.052,0.486376 0,0.688476 -0.14051,0.5524 -0.593977,0.980934 -1.105957,1.044434 -0.5678,0.069 -1.112212,-0.301033 -1.337402,-0.911133 -0.0577,-0.1559 -0.06554,-0.200634 -0.07324,-0.427734 -0.008,-0.231 -0.0038,-0.2695 0.04248,-0.4292 0.14628,-0.512 0.449541,-0.827921 0.934571,-0.974121 0.10683,-0.032 0.204332,-0.04741 0.303222,-0.04541 z" style="fill-rule:evenodd;stroke-width:8.71796e-05" id="path1058" />
      <path d="m 26.97966,17.4707 c -0.55817,0.01 -0.5601,0.01 -0.64094,0.1655 -0.0616,0.1232 -0.55817,1.4859 -0.86805,2.3905 -0.0577,0.1636 -0.13859,0.3946 -0.17901,0.5139 -0.0423,0.1174 -0.0808,0.2252 -0.0847,0.2406 -0.006,0.014 -0.025,-0.023 -0.0443,-0.081 -0.0192,-0.058 -0.05,-0.1405 -0.0693,-0.1829 -0.0577,-0.1309 -0.19057,-0.4504 -0.19057,-0.46 0,-0.01 -0.0905,-0.2271 -0.24058,-0.5793 -0.28102,-0.6583 -0.50813,-1.203 -0.64478,-1.5495 -0.12896,-0.3272 -0.15784,-0.3753 -0.25023,-0.4253 -0.0366,-0.021 -0.17131,-0.029 -0.56781,-0.031 -0.28486,0 -0.53698,0 -0.56008,0.012 -0.0558,0.025 -0.19826,0.1906 -0.21366,0.2483 -0.0154,0.066 0.01,0.129 0.36955,0.9759 0.17322,0.4022 0.35415,0.8353 0.40419,0.9623 0.05,0.1271 0.11936,0.3003 0.154,0.385 0.0366,0.085 0.13857,0.331 0.22711,0.5485 0.15013,0.3619 0.60629,1.4397 0.64864,1.5302 0.01,0.021 0.0616,0.1501 0.11548,0.2887 0.052,0.1367 0.10971,0.2733 0.1251,0.3022 0.0404,0.073 0.0366,0.1174 -0.0269,0.2464 -0.23097,0.4638 -0.65828,0.7756 -0.97779,0.7121 -0.10201,-0.019 -0.29063,-0.1116 -0.37532,-0.1828 -0.12511,-0.1059 -0.32142,-0.1136 -0.42151,-0.017 -0.0308,0.029 -0.10973,0.1443 -0.17517,0.2559 -0.0654,0.1136 -0.15205,0.2599 -0.19054,0.3273 -0.17323,0.2887 -0.16553,0.4676 0.0231,0.612 0.11356,0.085 0.4042,0.2098 0.61399,0.2598 0.34453,0.087 0.39843,0.092 0.73526,0.092 0.31566,0 0.33491,0 0.50428,-0.06 0.34261,-0.1155 0.74103,-0.4369 1.02589,-0.8257 0.1713,-0.2368 0.32721,-0.4658 0.39458,-0.5871 0.1867,-0.333 0.3118,-0.6082 0.47925,-1.049 0.0423,-0.1116 0.0808,-0.2155 0.0885,-0.2309 0.006,-0.015 0.0385,-0.1078 0.0732,-0.2021 0.0712,-0.1983 0.27138,-0.7488 0.34259,-0.9335 0.025,-0.069 0.0924,-0.2464 0.14628,-0.3946 0.0539,-0.1482 0.11165,-0.2964 0.12512,-0.3272 0.0289,-0.062 0.37532,-0.9759 0.48695,-1.28 0.40227,-1.099 0.37726,-1.0162 0.37919,-1.2934 0.002,-0.229 -10e-6,-0.2464 -0.0423,-0.2906 -0.0789,-0.083 -0.16746,-0.094 -0.69869,-0.087 z" style="fill:#000000;fill-rule:evenodd;stroke-width:8.71796e-05" id="path720" />
      <path d="m 11.05219,17.3927 c -0.12968,5e-4 -0.25479,0.01 -0.31349,0.018 -0.31374,0.062 -0.76799,0.281 -0.95661,0.4639 l -0.0789,0.077 -0.0135,-0.1251 c -0.0192,-0.1674 -0.0886,-0.3156 -0.15978,-0.3349 -0.0289,-0.01 -0.27137,-0.015 -0.53891,-0.015 -0.46193,0 -0.48696,0 -0.53893,0.04 -0.0289,0.021 -0.0731,0.069 -0.0962,0.104 l -0.0443,0.064 v 3.5569 c 0,2.098 0.008,3.5762 0.0173,3.6031 0.01,0.025 0.0481,0.077 0.0847,0.1175 l 0.0674,0.071 0.52929,-0.01 c 0.50044,-0.01 0.53316,-0.01 0.58321,-0.046 0.0289,-0.021 0.0712,-0.063 0.0924,-0.092 0.0404,-0.052 0.0404,-0.075 0.0462,-1.2742 l 0.004,-1.2222 0.0905,0.079 c 0.14436,0.1271 0.35032,0.2445 0.57359,0.3292 0.17515,0.065 0.24251,0.081 0.42151,0.094 0.61591,0.046 1.17026,-0.098 1.67647,-0.4331 0.21172,-0.1405 0.57356,-0.5004 0.71791,-0.7141 0.20788,-0.3118 0.36764,-0.6756 0.43693,-1.0047 0.0443,-0.2098 0.0577,-0.6486 0.0308,-0.9393 -0.0192,-0.2021 -0.0404,-0.2964 -0.11165,-0.5062 -0.16553,-0.4946 -0.31371,-0.7371 -0.67748,-1.099 -0.27717,-0.2771 -0.42347,-0.3849 -0.73142,-0.5389 -0.20018,-0.102 -0.56778,-0.2214 -0.76988,-0.2502 -0.077,-0.012 -0.21125,-0.017 -0.34093,-0.016 z m -0.0165,1.3512 c 0.14147,0.01 0.32516,0.064 0.50561,0.1511 0.12896,0.063 0.19247,0.1116 0.33297,0.2502 0.14436,0.1463 0.18671,0.2021 0.25793,0.3503 0.11356,0.2329 0.15013,0.3945 0.15013,0.6563 0,0.41 -0.12896,0.7295 -0.40997,1.0124 -0.18093,0.1829 -0.30025,0.2579 -0.5293,0.3369 -0.65826,0.2213 -1.40507,-0.2599 -1.5706,-1.0124 -0.16553,-0.7545 0.2175,-1.4648 0.9027,-1.6727 0.10202,-0.033 0.20789,-0.061 0.23484,-0.067 0.0361,-0.01 0.0785,-0.01 0.12569,0 z" style="fill:#000000;fill-rule:evenodd;stroke-width:8.71796e-05" id="path718" />
      <path d="m 15.6083,15.2918 h -0.49659 c -0.27331,0 -0.52352,0.01 -0.55625,0.019 -0.0693,0.019 -0.14628,0.1251 -0.179,0.2406 -0.0154,0.052 -0.0212,1.1087 -0.0212,3.5396 v 3.4665 l 0.0443,0.085 c 0.0712,0.1443 0.12512,0.1674 0.42923,0.1828 0.14436,0.01 0.37338,0.01 0.51004,0.01 0.22712,-0.01 0.25215,-0.014 0.32336,-0.06 0.0423,-0.029 0.0924,-0.075 0.11162,-0.1039 0.0327,-0.05 0.0347,-0.2368 0.0404,-3.5262 0.002,-2.2558 -0.002,-3.5126 -0.0154,-3.5819 -0.0154,-0.088 -0.0327,-0.1193 -0.10392,-0.1886 z" style="fill:#000000;fill-rule:evenodd;stroke-width:8.71796e-05" id="path717" />
      <path d="m 15.6083,15.2918 0.0866,0.081 c 0.0712,0.069 0.0885,0.1001 0.10392,0.1886 0.0135,0.069 0.0173,1.3261 0.0154,3.5819 -0.006,3.2894 -0.008,3.4761 -0.0404,3.5262 -0.0192,0.029 -0.0693,0.075 -0.11162,0.1039 -0.0712,0.046 -0.0962,0.052 -0.32336,0.06 -0.13666,0 -0.36568,0 -0.51004,-0.01 -0.30411,-0.015 -0.35801,-0.038 -0.42923,-0.1828 l -0.0443,-0.085 v -3.4665 c 0,-2.4309 0.006,-3.4876 0.0212,-3.5396 0.0327,-0.1155 0.10971,-0.2213 0.179,-0.2406 0.0327,-0.01 0.28294,-0.019 0.55625,-0.019 z" style="fill:#000000;fill-rule:evenodd;stroke-width:8.71796e-05" id="path716" />
      <path d="m 2.77458,9.1991 c -0.18622,0 -0.38252,0 -0.49704,0.02 -0.15975,0.023 -0.333,0.075 -0.60054,0.179 -0.24829,0.096 -0.67942,0.4003 -0.88536,0.6274 -0.42537,0.4658 -0.63326,0.9047 -0.71795,1.5129 -0.0462,0.333 -0.0481,0.4523 -0.01,0.7044 0.0154,0.104 0.0289,0.2253 0.0289,0.2676 0,0.1001 0.15782,0.5813 0.24058,0.7333 0.26947,0.4947 0.75452,0.9605 1.2511,1.2049 0.29064,0.1405 0.71216,0.2444 1.06823,0.2598 0.44654,0.021 0.8642,-0.1289 1.2299,-0.4426 0.15591,-0.1348 0.15591,-0.1348 0.10009,0.1597 -0.0654,0.3368 -0.18863,0.562 -0.41767,0.7603 -0.17323,0.1501 -0.35607,0.2406 -0.6236,0.3041 -0.35608,0.087 -0.57167,0.083 -0.97009,-0.014 C 1.56501,15.3758 1.36677,15.295 0.95872,15.0621 0.7393,14.937 0.70851,14.9254 0.61035,14.9254 c -0.19825,0 -0.21172,0.012 -0.35415,0.2907 -0.20787,0.4099 -0.26178,0.5485 -0.256,0.6602 0.006,0.092 0.0115,0.1001 0.11548,0.1848 0.14436,0.1154 0.75257,0.4195 1.04128,0.5177 0.60052,0.2059 1.19528,0.2964 1.6476,0.2521 0.80261,-0.081 1.42431,-0.3618 1.86123,-0.8391 0.17707,-0.1944 0.29253,-0.3638 0.41764,-0.616 0.12126,-0.2405 0.16169,-0.3714 0.24253,-0.7679 0.10394,-0.5197 0.10392,-0.537 0.10392,-2.9545 V 9.413 L 5.36448,9.357 C 5.32788,9.326 5.27978,9.293 5.25478,9.284 c -0.0654,-0.025 -1.03359,-0.025 -1.08171,0 -0.0654,0.035 -0.0982,0.1405 -0.0943,0.2906 0.002,0.073 0,0.1386 -0.006,0.1443 -0.006,0.01 -0.0404,-0.015 -0.0751,-0.046 C 3.81674,9.515 3.4164,9.2918 3.21045,9.234 3.13635,9.213 2.96022,9.2 2.774,9.197 Z m -0.0293,1.3405 c 0.0962,-0.01 0.32146,0.05 0.47736,0.1233 0.14436,0.069 0.20594,0.1135 0.34837,0.254 0.30411,0.2983 0.43115,0.5909 0.43115,0.997 0,0.4658 -0.1155,0.7584 -0.41384,1.049 -0.25599,0.2502 -0.4523,0.3407 -0.77566,0.3599 -0.37917,0.023 -0.65827,-0.09 -0.95661,-0.3926 -0.10971,-0.1097 -0.22902,-0.281 -0.27906,-0.3946 -0.0635,-0.1501 -0.11743,-0.4254 -0.11743,-0.6044 0,-0.1944 0.0635,-0.4696 0.14821,-0.637 0.19633,-0.385 0.5986,-0.693 0.96045,-0.7334 0.0847,-0.01 0.16359,-0.019 0.17706,-0.021 z" style="fill:#000000;fill-rule:evenodd;stroke-width:8.71796e-05" id="path711" />
      <path d="m 23.01422,9.1943 c -0.15013,4e-4 -0.29786,0.01 -0.43067,0.027 -0.37725,0.048 -0.85652,0.2502 -1.18757,0.5004 -0.41575,0.3118 -0.818,0.8662 -0.98737,1.3666 -0.12511,0.3676 -0.1771,0.9085 -0.11743,1.2299 0.11163,0.6025 0.33683,1.074 0.72947,1.5167 0.29834,0.3388 0.82766,0.6564 1.26458,0.7622 0.59667,0.1444 0.84304,0.1502 1.38581,0.029 0.5601,-0.1251 1.07401,-0.4292 1.43586,-0.8507 0.44269,-0.514 0.70253,-1.1972 0.70061,-1.842 C 25.80551,11.5638 25.68048,11.0518 25.5111,10.715 25.36097,10.4148 25.2397,10.2511 24.96446,9.974 24.55449,9.5582 24.00593,9.283 23.4593,9.2195 23.31687,9.2025 23.16435,9.1945 23.01422,9.1945 Z m 0.0928,1.3723 c 0.18285,0.01 0.23676,0.017 0.36957,0.067 0.37533,0.1443 0.70445,0.4696 0.81801,0.8084 0.14243,0.4273 0.0924,0.9335 -0.12704,1.2568 -0.49466,0.7334 -1.46088,0.8354 -2.07873,0.2194 -0.32143,-0.3195 -0.4677,-0.8276 -0.36954,-1.2703 0.0558,-0.2444 0.22327,-0.5563 0.37532,-0.6987 0.1944,-0.1809 0.49466,-0.3426 0.70061,-0.3753 0.0539,-0.01 0.19247,-0.012 0.3118,-0.01 z" style="fill:#000000;fill-rule:evenodd;stroke-width:8.71796e-05" id="path710" />
      <path d="m 11.05123,9.1938 c -0.18068,0 -0.36834,0.01 -0.51655,0.027 -0.35415,0.044 -0.80456,0.231 -1.13562,0.4716 -0.1713,0.1231 -0.49849,0.4484 -0.6236,0.6197 -0.48119,0.6583 -0.63131,1.3781 -0.47155,2.2462 0.0385,0.2079 0.0674,0.2907 0.18092,0.5312 0.30219,0.6429 0.79492,1.1222 1.43008,1.3936 0.19248,0.081 0.43499,0.1482 0.75065,0.2021 0.44077,0.079 1.09901,-0.033 1.5494,-0.2637 0.61784,-0.3138 1.09326,-0.8219 1.34733,-1.4397 0.11163,-0.2734 0.19631,-0.7257 0.19631,-1.0452 0,-0.154 -0.0404,-0.4715 -0.0847,-0.6813 C 13.52762,10.5739 12.95403,9.8425 12.2977,9.5018 12.03593,9.3652 11.76069,9.267 11.52587,9.2266 11.40558,9.2056 11.23188,9.1946 11.05119,9.1936 Z m 0.003,1.3709 c 0.2021,0.01 0.25021,0.015 0.38494,0.067 0.20595,0.079 0.3195,0.1521 0.47155,0.308 0.16168,0.1636 0.25215,0.2984 0.33684,0.5024 0.20787,0.4985 0.0885,1.074 -0.30797,1.4743 -0.29063,0.2945 -0.55046,0.4042 -0.96236,0.4004 -0.20017,0 -0.25022,-0.01 -0.3734,-0.052 C 10.23812,13.132 9.95712,12.8818 9.80121,12.5488 9.68765,12.3043 9.66841,12.21 9.67033,11.9232 c 0,-0.2502 0.004,-0.2675 0.0693,-0.4465 0.0404,-0.1097 0.10587,-0.2387 0.15591,-0.3079 0.0982,-0.1386 0.29641,-0.3369 0.40612,-0.4119 0.0943,-0.066 0.2791,-0.1425 0.41575,-0.1752 0.0674,-0.015 0.18864,-0.021 0.33684,-0.017 z" style="fill:#000000;fill-rule:evenodd;stroke-width:8.71796e-05" id="path709" />
      <path d="m 15.58713,7.0732 h -0.49467 c -0.27332,0 -0.5139,0.01 -0.537,0.017 -0.0597,0.023 -0.13859,0.127 -0.16169,0.2098 -0.0135,0.052 -0.0173,1.2087 -0.0154,3.5934 l 0.006,3.5204 0.0462,0.081 c 0.0289,0.052 0.0674,0.089 0.10395,0.102 0.0731,0.025 1.03165,0.027 1.09902,0 0.0808,-0.031 0.11165,-0.1 0.11935,-0.2733 0.004,-0.085 0.0115,-0.1597 0.0154,-0.1636 0.006,-0.01 0.0616,0.033 0.1251,0.085 0.25407,0.204 0.52547,0.3349 0.87,0.4196 0.30796,0.073 0.56586,0.058 1.05089,-0.065 0.62554,-0.1598 1.2434,-0.6448 1.60525,-1.2569 0.0828,-0.1405 0.21555,-0.4889 0.26559,-0.6987 0.0231,-0.096 0.0501,-0.204 0.0616,-0.2406 0.0327,-0.1116 0.0443,-0.6159 0.0192,-0.7833 -0.0982,-0.614 -0.27139,-1.0202 -0.62746,-1.4725 -0.37533,-0.4735 -1.02013,-0.8468 -1.60717,-0.9296 -0.63902,-0.088 -1.09902,0.01 -1.51861,0.3272 -0.16938,0.127 -0.17516,0.1309 -0.18671,0.1193 -0.006,-0.01 -0.0135,-0.5408 -0.0135,-1.1914 -0.004,-1.3261 0.004,-1.2568 -0.14822,-1.3531 z m 1.39543,3.4761 c 0.30026,-0.039 0.70253,0.1116 0.95083,0.358 0.45616,0.4504 0.56778,1.1048 0.28676,1.688 -0.0635,0.1328 -0.1097,0.1944 -0.25406,0.3387 -0.27523,0.2772 -0.47733,0.3734 -0.82378,0.3888 -0.29449,0.015 -0.49657,-0.042 -0.72562,-0.2021 -0.27716,-0.1963 -0.43693,-0.4099 -0.54471,-0.7352 -0.0558,-0.1675 -0.0616,-0.204 -0.0616,-0.4427 -0.002,-0.2213 0.006,-0.281 0.0423,-0.4042 0.17515,-0.5582 0.58898,-0.92 1.12984,-0.9893 z" style="fill:#000000;fill-rule:evenodd;stroke-width:8.71796e-05" id="path708" />
      <path d="m 6.63443,6.9743 c -0.058,-0.012 -0.10131,-0.01 -0.15135,0.01 -0.0943,0.031 -0.23675,0.179 -0.26562,0.2753 -0.0173,0.062 -0.0231,0.8796 -0.0231,3.5915 0,3.8765 -0.008,3.6128 0.11935,3.7437 0.0789,0.083 0.20402,0.1289 0.3041,0.1154 0.0423,-0.01 0.23098,-0.083 0.41768,-0.1713 0.39264,-0.1828 0.49079,-0.2617 0.56778,-0.4523 L 7.64757,13.975 V 10.828 7.6811 L 7.60327,7.5871 C 7.58017,7.5351 7.53017,7.4543 7.49164,7.4081 7.42234,7.3231 7.36652,7.2926 6.87379,7.0674 6.76504,7.0174 6.6924,6.9884 6.63442,6.9764 Z" style="fill:#000000;fill-rule:evenodd;stroke-width:8.71796e-05" id="path707" />
    </g>
  </g>
</svg>
