<?xml version="1.0" encoding="UTF-8" standalone="no"?>
<!-- Generator: Adobe Illustrator 25.0.1, SVG Export Plug-In . SVG Version: 6.00 Build 0)  -->

<svg version="1.0" id="Layer_1" x="0px" y="0px" viewBox="0 0 32.000001 32" xml:space="preserve" sodipodi:docname="Globo.com Icon.svg" width="32" height="32" inkscape:version="1.4-beta2 (9aaf4f34, 2024-07-30)" xmlns:inkscape="http://www.inkscape.org/namespaces/inkscape" xmlns:sodipodi="http://sodipodi.sourceforge.net/DTD/sodipodi-0.dtd" xmlns="http://www.w3.org/2000/svg" xmlns:svg="http://www.w3.org/2000/svg"><defs id="defs3" /><sodipodi:namedview id="namedview3" pagecolor="#ffffff" bordercolor="#000000" borderopacity="0.25" inkscape:showpageshadow="2" inkscape:pageopacity="0.0" inkscape:pagecheckerboard="0" inkscape:deskcolor="#d1d1d1" inkscape:zoom="8.4441783" inkscape:cx="14.092549" inkscape:cy="21.257249" inkscape:window-width="1440" inkscape:window-height="790" inkscape:window-x="0" inkscape:window-y="0" inkscape:window-maximized="1" inkscape:current-layer="Layer_1" />
<style type="text/css" id="style1">
	.st0{fill:#0381FB;}
	.st1{fill:#FFFFFF;}
</style>
<path id="path1" class="st0" d="m 15.921934,0.00126869 c -2.82527,0.01 -5.65107,0.028 -8.4757703,0.053 -0.63178,0.01 -2.09676,0.2655 -2.65987,0.4989 -0.64094,0.2656 -1.24985,0.54490001 -1.82669,0.99810001 -0.50817,0.3983 -0.94313,0.879 -1.36431,1.3643 -0.0961,0.1099 -0.78283996,1.2041 -0.82862996,1.3277 -0.31589,0.8332 -0.65465,2.2707 -0.66838,3.1589 -0.0824,5.6448003 -0.0961,11.2987003 0,16.9481003 0.0137,0.7554 0.10068,1.6024 0.32959,2.3257 0.87898996,2.7835 3.14063996,4.8757 6.18965996,5.0909 5.7043403,0.4257 12.1778003,0.1557 17.9462303,0.064 1.70306,-0.041 3.31912,-0.5311 4.65135,-1.6298 2.54085,-2.0968 2.71942,-4.5919 2.71942,-7.6776 -0.005,-4.926 0.0961,-9.8612 -0.0275,-14.7873003 -0.0412,-1.5336 -0.31128,-3.1039 -1.19943,-4.395 -0.92936,-1.3551 -2.34856,-2.59120001 -3.98753,-2.95740001 -0.75081,-0.1694 -1.55659,-0.3159 -2.32572,-0.3296 -2.82241,-0.046 -5.6471,-0.058 -8.47238,-0.053 z m -0.0886,7.00660001 c 1.19613,0.01 2.46065,0.501 3.25038,1.4109 0.19228,0.2197 0.17402,-0.06 0.16944,-0.3525 -0.009,-0.3479 -0.0321,-0.6181 0.32959,-0.7966 0.21517,-0.1053 1.98236,-0.041 2.32572,-0.018 0.25637,0.014 0.43946,0.2517 0.44404,0.4852 0.0458,3.2093003 0.0183,6.4277003 0.009,9.6370003 -0.009,2.8567 -0.96595,6.0843 -3.9463,7.1006 -1.07128,0.3571 -2.19748,0.5082 -3.3237,0.4487 -1.4421,-0.069 -2.86595,-0.467 -4.1524,-1.1033 -0.33878,-0.1694 -1.0025403,-0.4487 -1.1398803,-0.7921 -0.0778,-0.1922 -0.0412,-0.4807 0.0549,-0.6638 0.2518003,-0.4853 0.4624103,-1.0438 0.7737203,-1.497 0.16481,-0.2381 0.30668,-0.3205 0.56305,-0.4441 0.82864,0.5127 1.95486,1.0347 2.90711,1.2682 1.63439,0.3937 3.41533,0.092 4.42709,-1.3231 0.36625,-0.5219 0.47609,-1.2041 0.53561,-1.8267 0.0229,-0.2427 0.0321,-0.4578 -0.14191,-0.2884 -1.96401,1.9182 -5.03593,1.4879 -7.07319,-0.046 -1.9914803,-1.5016 -2.5866403,-4.4362 -1.8999203,-6.7345 0.7508103,-2.5042003 3.0353103,-4.3308003 5.6494203,-4.4590003 0.079,0 0.15837,-0.01 0.23811,-0.01 z m 0.1242,3.0788003 c -0.28677,0 -0.57636,0.04 -0.86135,0.113 -1.26356,0.325 -2.12882,1.5794 -2.22038,2.8475 -0.10988,1.5658 0.85149,3.3237 2.54997,3.5526 0.86069,0.1328 1.82209,-0.037 2.49508,-0.6088 1.41464,-1.1995 1.66185,-3.5618 0.34336,-4.9489 -0.61118,-0.6455 -1.44635,-0.9614 -2.30668,-0.9554 z" style="stroke-width:0.0457812;fill:#000000" />


</svg>
