<svg version="1.0" width="32pt" height="32pt" viewBox="0 0 32 32" xmlns="http://www.w3.org/2000/svg" xmlns:svg="http://www.w3.org/2000/svg">
  <path fill="#000" d="m 7.5673828,5.5737305 c -0.028088,0.00173 -0.054614,0.0075 -0.083496,0.019043 -0.1088546,0.035785 -0.2728264,0.2067079 -0.3061523,0.3178711 -0.01997,0.071569 -0.026367,1.0150438 -0.026367,4.1455074 0,4.474812 -0.00931,4.170186 0.1376953,4.321289 0.091078,0.09581 0.234571,0.148885 0.3500977,0.133301 0.048829,-0.01154 0.2664176,-0.09582 0.4819336,-0.197754 0.4532414,-0.211014 0.5673771,-0.301466 0.65625,-0.521484 l 0.05127,-0.128906 V 10.029785 6.3969727 L 8.7773438,6.2885742 C 8.7506785,6.2285484 8.6929143,6.135362 8.6484375,6.0820313 8.5684415,5.9839122 8.5038382,5.9494113 7.9350586,5.6894531 7.8095238,5.631736 7.7251319,5.5978365 7.6582031,5.5839844 v -0.00293 c -0.033476,-0.00693 -0.062732,-0.00906 -0.09082,-0.00732 z m 9.8554692,0.121582 c -0.315505,0 -0.594428,0.010962 -0.621094,0.019043 -0.06891,0.02655 -0.15937,0.1475844 -0.186035,0.243164 -0.01558,0.060026 -0.01977,1.3956745 -0.01758,4.1484375 l 0.0059,4.063477 0.0542,0.09375 c 0.03336,0.06003 0.07792,0.10218 0.120117,0.117187 0.08438,0.02886 1.190787,0.03117 1.268555,0 0.09327,-0.03579 0.128806,-0.114893 0.137695,-0.314941 0.0046,-0.09812 0.01308,-0.184463 0.01758,-0.188965 0.0069,-0.01154 0.07172,0.03811 0.14502,0.09814 0.293284,0.235487 0.605712,0.385626 1.003418,0.483399 0.355491,0.08427 0.653,0.06727 1.212891,-0.07471 0.722088,-0.184464 1.435328,-0.743622 1.853027,-1.450196 0.09558,-0.162185 0.249853,-0.564947 0.307617,-0.807128 0.02666,-0.110817 0.05703,-0.236072 0.07031,-0.278321 0.03775,-0.128825 0.05095,-0.710571 0.02197,-0.903808 C 22.703076,10.23508 22.5038,9.7667384 22.092773,9.2446289 21.659513,8.6980473 20.914462,8.2664781 20.236816,8.1708984 19.499168,8.0693162 18.969214,8.1826709 18.484863,8.5488281 18.28934,8.6954297 18.282864,8.6999137 18.269531,8.6865234 c -0.0069,-0.011544 -0.01611,-0.6244724 -0.01611,-1.3754882 -0.0046,-1.5307748 0.0043,-1.4503603 -0.171387,-1.5615235 l -0.08936,-0.054199 z m -4.665528,2.4477539 c -0.208567,0 -0.425106,0.011138 -0.596191,0.030762 -0.408811,0.050791 -0.928878,0.2671868 -1.311035,0.5449219 -0.197739,0.1420996 -0.57482,0.5171048 -0.719239,0.7148438 -0.5554586,0.7599039 -0.7293394,1.5921519 -0.5449215,2.5942379 0.044442,0.239988 0.076967,0.334686 0.2080078,0.612305 0.3488317,0.742128 0.9176857,1.295109 1.6508787,1.608398 0.222188,0.0935 0.502808,0.172156 0.867188,0.234375 0.5088,0.09119 1.268669,-0.03838 1.788574,-0.304687 0.713199,-0.362233 1.26238,-0.949444 1.555664,-1.662598 0.128859,-0.315597 0.225586,-0.836754 0.225586,-1.205566 0,-0.177769 -0.04555,-0.544439 -0.09668,-0.786621 C 15.616296,9.7368684 14.953431,8.8923082 14.195801,8.4990234 13.893629,8.3413401 13.576239,8.2277878 13.305176,8.1811523 13.16632,8.1569111 12.965903,8.1442207 12.757324,8.1430664 Z m 13.809082,0.00146 c -0.173301,4.618e-4 -0.343274,0.011139 -0.496582,0.030762 -0.435476,0.055409 -0.988948,0.2883317 -1.371094,0.5771484 -0.479918,0.3599243 -0.944136,1.0000031 -1.139648,1.5776362 -0.144419,0.424337 -0.20511,1.048428 -0.13623,1.419434 0.128859,0.695492 0.389043,1.240925 0.842285,1.751953 0.344387,0.391091 0.956094,0.756777 1.460449,0.878906 0.688762,0.166687 0.973066,0.173594 1.599609,0.03369 0.646548,-0.144408 1.23904,-0.49489 1.656739,-0.981446 0.511017,-0.593332 0.810809,-1.382633 0.808593,-2.126953 -0.0023,-0.426646 -0.145785,-1.017466 -0.341308,-1.4062495 -0.173301,-0.346531 -0.313627,-0.5355937 -0.631348,-0.8554622 -0.473246,-0.479976 -1.106306,-0.7982812 -1.737305,-0.871582 -0.164413,-0.019624 -0.340858,-0.027832 -0.51416,-0.027832 z m -23.3642576,0.00293 0.00146,0.00146 c -0.2149618,0 -0.4420233,3.505e-4 -0.5742188,0.023437 -0.1844063,0.02655 -0.3840381,0.086491 -0.6928711,0.206543 C 1.6499114,8.4897233 1.151788,8.8418525 0.9140625,9.1040039 0.42303945,9.641697 0.18272229,10.148026 0.08496094,10.850098 c -0.05333066,0.384396 -0.05569923,0.521978 -0.01171875,0.812988 0.01777689,0.120051 0.0336914,0.260253 0.0336914,0.309082 0,0.11555 0.18278686,0.67122 0.27832032,0.84668 0.31106092,0.571054 0.87111209,1.108015 1.44433589,1.390136 0.3354984,0.162185 0.8209066,0.282516 1.2319336,0.300293 0.5154605,0.02424 0.9987551,-0.149112 1.4208985,-0.51123 0.1799737,-0.155605 0.1786933,-0.155384 0.1142578,0.18457 -0.075494,0.388783 -0.2175428,0.648536 -0.4819336,0.877442 -0.1999669,0.173267 -0.4104168,0.278261 -0.7192383,0.351562 -0.4110386,0.100428 -0.660692,0.09586 -1.1206055,-0.01611 -0.468802,-0.11555 -0.6964506,-0.208692 -1.1674804,-0.477539 -0.25328607,-0.144408 -0.28952171,-0.158203 -0.40283206,-0.158203 -0.22884858,0 -0.24427827,0.01373 -0.4086914,0.335449 C 0.05594508,15.56838 -0.00667211,15.727994 0,15.856934 c 0.00692606,0.1062 0.01327216,0.116094 0.13330078,0.213867 0.16664102,0.133211 0.86936622,0.484299 1.20263672,0.597656 0.6932063,0.237679 1.3792346,0.341176 1.9013672,0.290039 0.9264876,-0.0935 1.6445701,-0.417294 2.1489258,-0.968262 0.2043996,-0.224404 0.3375137,-0.419323 0.4819336,-0.710449 0.1399757,-0.277619 0.1864679,-0.428533 0.2797851,-0.88623 0.1199824,-0.599912 0.1201172,-0.620996 0.1201172,-3.411621 V 8.3964844 l -0.074707,-0.064453 c -0.042249,-0.035785 -0.098583,-0.074572 -0.1274414,-0.084961 -0.075494,-0.028859 -1.1924999,-0.028859 -1.2480469,0 -0.075494,0.040402 -0.1143652,0.1621823 -0.1098633,0.3354492 0.00231,0.084267 0.00107,0.1604124 -0.00586,0.1669922 -0.00693,0.011543 -0.047835,-0.016949 -0.087891,-0.052734 C 4.4054062,8.5145064 3.9437918,8.2566624 3.7060547,8.1899414 3.6205179,8.1657001 3.4171102,8.150924 3.2021484,8.1474609 Z m 0.014648,1.5483399 c 0.1266247,0.00668 0.3464394,0.069518 0.5039062,0.1435547 0.166641,0.07965 0.2369541,0.1307831 0.4013672,0.292968 0.3510474,0.34434 0.4980469,0.682588 0.4980469,1.151367 0,0.537693 -0.1331523,0.874509 -0.4775391,1.209961 C 3.8470772,12.782464 3.6208266,12.8875 3.2475581,12.909663 2.8098662,12.936218 2.4874533,12.806336 2.1430664,12.457031 2.0164234,12.3304 1.8785641,12.132599 1.8208008,12.001465 1.7475,11.828198 1.6845703,11.509362 1.6845703,11.302734 c 0,-0.224404 0.073602,-0.542113 0.1713867,-0.735351 0.2266322,-0.444422 0.6911876,-0.8000444 1.1088868,-0.8466799 0.097773,-0.011544 0.1895291,-0.021129 0.2050781,-0.023437 0.013881,-0.00144 0.028786,-0.00242 0.046875,-0.00146 z m 16.5219726,0.00586 c 0.324996,0.007 0.711606,0.1700688 0.962402,0.4189447 0.526566,0.519916 0.65545,1.276495 0.331055,1.949708 -0.0733,0.153296 -0.126328,0.224541 -0.292969,0.391113 -0.31771,0.319984 -0.550761,0.430466 -0.950683,0.448242 -0.339944,0.01732 -0.573489,-0.0481 -0.837891,-0.23291 -0.319938,-0.226598 -0.504003,-0.474102 -0.628418,-0.84961 -0.06441,-0.193352 -0.07178,-0.235689 -0.07178,-0.51123 -0.0023,-0.255457 0.0079,-0.323605 0.0498,-0.46582 0.202184,-0.644355 0.679374,-1.0625824 1.303711,-1.1425784 0.04332,-0.00563 0.08834,-0.00686 0.134766,-0.00586 z m -6.978515,0.023437 c 0.233292,0.011544 0.289787,0.017611 0.445312,0.077637 0.237737,0.091193 0.367939,0.1759946 0.543457,0.3559567 0.186634,0.18885 0.291888,0.344593 0.389649,0.580079 0.239954,0.57544 0.101706,1.240065 -0.355957,1.702148 -0.335487,0.339954 -0.634878,0.465813 -1.110352,0.461426 -0.231065,0 -0.289937,-0.01158 -0.432129,-0.06006 -0.422155,-0.153297 -0.745807,-0.441776 -0.925781,-0.826172 -0.131087,-0.282237 -0.153096,-0.391102 -0.150879,-0.722168 0,-0.288816 0.0037,-0.308997 0.0791,-0.515625 0.04664,-0.126631 0.122413,-0.274612 0.180176,-0.354492 0.113357,-0.159992 0.342107,-0.389499 0.46875,-0.4760742 0.108855,-0.076187 0.322727,-0.1644014 0.480468,-0.2021484 0.0778,-0.017315 0.21711,-0.025125 0.388184,-0.020508 z m 13.705078,0 c 0.06499,-0.00173 0.139133,-0.00115 0.208007,0 v 0.00293 c 0.211073,0.011543 0.272961,0.01992 0.42627,0.077637 0.43326,0.1665717 0.813738,0.5420147 0.944825,0.9331057 0.164413,0.493251 0.106824,1.076996 -0.146485,1.450195 -0.571008,0.846596 -1.686203,0.964494 -2.399414,0.253418 -0.37104,-0.368813 -0.539579,-0.955281 -0.426269,-1.466309 0.06441,-0.282122 0.256611,-0.642751 0.432129,-0.807129 0.224405,-0.2088203 0.572321,-0.3943814 0.810058,-0.4321284 0.03111,-0.00577 0.08589,-0.00999 0.150879,-0.011719 z m -9.020508,5.4550787 c -0.315493,0 -0.605316,0.01043 -0.643067,0.02197 -0.02999,0.0084 -0.06002,0.03123 -0.08936,0.06299 l -0.0015,0.0015 c -7e-4,7.57e-4 -7.69e-4,0.0022 -0.0015,0.0029 -0.01831,0.02039 -0.03681,0.04385 -0.05273,0.07031 v 0.0015 c -0.0082,0.01373 -0.01618,0.0276 -0.02344,0.04248 v 0.0015 c -0.0072,0.01491 -0.01593,0.02968 -0.02197,0.04541 v 0.0015 c -0.006,0.01573 -0.01152,0.03212 -0.01611,0.04834 v 0.0015 c -0.0021,0.008 -0.004,0.03243 -0.0059,0.07617 v 0.0015 c -0.0019,0.04453 -0.0028,0.106285 -0.0044,0.188965 -2.4e-5,0.0013 2.4e-5,0.0017 0,0.0029 -0.0031,0.166607 -0.0068,0.410909 -0.0088,0.741211 -8e-6,0.0013 8e-6,0.0016 0,0.0029 -0.0039,0.663236 -0.0044,1.668603 -0.0044,3.070313 v 0.0015 4.000488 0.0015 l 0.0498,0.09668 v 0.0015 c 0.02032,0.04119 0.04043,0.07501 0.06299,0.101075 0.06864,0.0786 0.170309,0.09653 0.433594,0.109863 0.166641,0.01154 0.431115,0.01172 0.588867,0.01172 0.262175,-0.01154 0.28987,-0.01575 0.372071,-0.06885 0.03662,-0.02511 0.07902,-0.06317 0.106933,-0.09375 0.0089,-0.0098 0.01661,-0.0183 0.02197,-0.02637 0.0049,-0.0074 0.0094,-0.01804 0.01318,-0.03809 0.0035,-0.01824 0.0075,-0.04642 0.01025,-0.08789 4.5e-5,-6.89e-4 -4.4e-5,-0.0022 0,-0.0029 0.0028,-0.04314 0.0053,-0.102896 0.0073,-0.183106 1.9e-5,-7.5e-4 -2e-5,-0.0022 0,-0.0029 0.0021,-0.08145 0.0029,-0.185685 0.0044,-0.317871 7e-6,-6.49e-4 -7e-6,-0.0023 0,-0.0029 0.0031,-0.267548 0.0056,-0.651578 0.0073,-1.205567 v -0.0015 c 0.0018,-0.55471 0.0027,-1.27967 0.0044,-2.228027 v -0.0015 c 0.0011,-1.300718 0.0013,-2.313551 -0.0015,-3.011718 -5e-6,-0.0013 5e-6,-0.0017 0,-0.0029 -0.0014,-0.34785 -0.0033,-0.616356 -0.0059,-0.804199 -1.8e-5,-0.0013 1.7e-5,-0.0017 0,-0.0029 -0.0013,-0.09271 -0.0028,-0.164555 -0.0044,-0.216797 -5e-5,-0.0016 5e-5,-0.0013 0,-0.0029 -0.0016,-0.05076 -0.004,-0.07988 -0.0059,-0.09082 -1.89e-4,-0.0011 1.89e-4,-0.0019 0,-0.0029 -0.01326,-0.07609 -0.02837,-0.114565 -0.06885,-0.162597 v -0.0015 c -0.01371,-0.01616 -0.03072,-0.03429 -0.05127,-0.0542 l -0.09961,-0.09229 z m -4.686035,2.424316 v 0.0029 c -0.149695,5.77e-4 -0.294056,0.01127 -0.361816,0.02051 -0.362164,0.07157 -0.886761,0.325002 -1.104493,0.536133 l -0.09082,0.08936 -0.01611,-0.14502 c -0.02216,-0.193237 -0.102404,-0.364439 -0.18457,-0.386718 -0.03336,-0.01154 -0.313726,-0.01758 -0.622559,-0.01758 -0.5332267,0 -0.5611031,7.05e-4 -0.6210943,0.04687 -0.03336,0.02424 -0.084663,0.07972 -0.1113281,0.120117 l -0.05127,0.07324 v 4.105957 c 0,2.421812 0.00977,4.129104 0.020508,4.160156 0.011543,0.02886 0.054431,0.08801 0.09668,0.134766 l 0.077637,0.08203 0.6123044,-0.01172 c 0.57768,-0.01154 0.614589,-0.01117 0.672364,-0.05273 0.03336,-0.02424 0.08246,-0.07345 0.106933,-0.106934 0.04664,-0.06003 0.04604,-0.08642 0.05273,-1.470703 l 0.0044,-1.410644 0.105469,0.09082 c 0.166641,0.146717 0.404379,0.283086 0.662109,0.380859 0.202183,0.07503 0.279701,0.09339 0.486329,0.108399 0.710971,0.0531 1.350717,-0.112691 1.935058,-0.499512 0.244397,-0.162185 0.662473,-0.578024 0.829102,-0.824707 0.239965,-0.359924 0.423921,-0.780262 0.503906,-1.160156 0.05114,-0.242181 0.06622,-0.748417 0.03516,-1.083985 -0.02216,-0.233293 -0.04666,-0.342291 -0.128906,-0.584472 -0.191079,-0.570939 -0.360846,-0.850798 -0.780762,-1.268555 -0.319949,-0.319868 -0.489734,-0.44479 -0.845215,-0.622558 -0.231076,-0.117743 -0.655868,-0.25533 -0.88916,-0.288575 -0.08889,-0.01385 -0.242882,-0.01873 -0.392578,-0.01758 z m 9.096679,0.0059 c -0.177047,-0.0016 -0.2359,0.01105 -0.429199,0.06299 -0.433248,0.1062 -0.745086,0.232595 -0.9917,0.396973 -0.373268,0.25107 -0.710779,0.584263 -0.946289,0.933105 -0.226632,0.337761 -0.386449,0.708914 -0.477539,1.113281 -0.04444,0.202125 -0.05065,0.288704 -0.04834,0.675293 0,0.368813 0.0093,0.488445 0.05127,0.697266 0.02667,0.137713 0.05765,0.268604 0.06885,0.288574 0.01154,0.01962 0.05088,0.11304 0.08643,0.206543 0.08,0.215516 0.256898,0.536892 0.405762,0.741211 0.239954,0.326679 0.666218,0.70021 1.023926,0.897949 0.539898,0.297821 1.311079,0.424632 1.904297,0.309082 0.291056,-0.05541 0.738384,-0.277805 0.927246,-0.459961 0.05114,-0.05079 0.09876,-0.09082 0.105469,-0.09082 0.0069,0 0.01318,0.07313 0.01318,0.162598 0,0.148911 0.004,0.166395 0.06152,0.219726 0.115538,0.108508 0.133245,0.109525 0.735351,0.114258 0.499911,0 0.582727,6e-6 0.673828,-0.03809 0.188851,-0.07388 0.172852,0.206181 0.172852,-3.004394 0,-2.346203 -0.0051,-2.868197 -0.0293,-2.928223 -0.01778,-0.0404 -0.07409,-0.100098 -0.127441,-0.136231 l -0.09375,-0.06885 h -0.585938 c -0.551014,0 -0.583225,0.0019 -0.629883,0.04687 -0.07549,0.06695 -0.109863,0.170333 -0.109863,0.332519 0,0.08657 -0.01117,0.143555 -0.02637,0.143555 -0.01328,0 -0.06826,-0.03795 -0.125977,-0.08643 -0.211071,-0.173267 -0.531037,-0.345255 -0.859863,-0.458496 -0.159969,-0.05541 -0.212663,-0.0613 -0.521484,-0.06592 h -0.0015 c -0.09443,-0.0029 -0.166569,-0.0038 -0.225586,-0.0044 z m 9.660645,0.08496 c -0.09724,-0.0016 -0.218766,-5.56e-4 -0.372071,0.0015 v 0.0015 c -0.64432,0.01154 -0.646429,0.01093 -0.739746,0.19043 -0.07111,0.142215 -0.644245,1.715547 -1.001953,2.759766 -0.06661,0.188851 -0.159884,0.455548 -0.206543,0.593261 -0.04883,0.13552 -0.09364,0.259079 -0.09814,0.276856 -0.0069,0.01616 -0.02899,-0.02533 -0.05127,-0.09229 -0.02216,-0.06695 -0.05682,-0.163459 -0.0791,-0.212403 -0.06661,-0.151104 -0.221191,-0.519191 -0.221191,-0.530273 0,-0.01154 -0.103613,-0.262874 -0.276856,-0.669434 -0.324394,-0.759904 -0.586399,-1.388594 -0.74414,-1.788574 -0.148864,-0.377701 -0.18339,-0.433006 -0.290039,-0.490723 -0.04225,-0.02424 -0.197089,-0.03286 -0.654786,-0.03516 -0.328826,0 -0.61933,-6.66e-4 -0.645996,0.01318 -0.06441,0.02886 -0.229781,0.220503 -0.247558,0.287109 -0.01778,0.07619 0.01269,0.148852 0.427734,1.126465 0.199955,0.464277 0.408057,0.963749 0.46582,1.110351 0.05772,0.146717 0.13726,0.34754 0.177247,0.445313 0.04225,0.09812 0.160001,0.381743 0.262207,0.632812 0.173301,0.417757 0.699649,1.662134 0.748535,1.766602 0.01154,0.02424 0.07111,0.172527 0.133301,0.33252 0.06002,0.157798 0.127254,0.315272 0.145019,0.348632 0.04664,0.08427 0.04254,0.136735 -0.03076,0.285645 -0.266619,0.535385 -0.76057,0.895078 -1.129394,0.821777 -0.117755,-0.02193 -0.334368,-0.128747 -0.432129,-0.210937 -0.14442,-0.122245 -0.372255,-0.132021 -0.487793,-0.02051 -0.03555,0.03348 -0.126609,0.167073 -0.202149,0.295898 -0.07549,0.131133 -0.175294,0.300127 -0.219726,0.37793 -0.199967,0.333259 -0.191381,0.539368 0.02637,0.706055 0.131087,0.09812 0.466814,0.242576 0.708984,0.300293 0.397706,0.100428 0.460793,0.105468 0.84961,0.105468 0.364381,0 0.386032,4.13e-4 0.581543,-0.06885 0.395489,-0.133326 0.856232,-0.504805 1.185058,-0.953614 0.197739,-0.273349 0.376334,-0.536735 0.454102,-0.676757 0.215516,-0.384396 0.360416,-0.702592 0.553711,-1.211426 0.04883,-0.128825 0.09365,-0.248825 0.102539,-0.266602 0.0069,-0.01731 0.0449,-0.124055 0.08496,-0.23291 0.08219,-0.228906 0.313307,-0.864917 0.395508,-1.078125 0.02886,-0.07965 0.106261,-0.284492 0.168457,-0.455566 0.06222,-0.171073 0.128005,-0.342376 0.143554,-0.37793 0.03336,-0.07157 0.433641,-1.125526 0.5625,-1.476562 0.464358,-1.268624 0.435761,-1.172692 0.437989,-1.492676 0.0023,-0.264345 4.79e-4,-0.284427 -0.04834,-0.335449 -0.06831,-0.07186 -0.143335,-0.09789 -0.435058,-0.102539 z m -18.854004,1.469238 c 0.02426,0 0.0504,0.003 0.07764,0.0088 v -0.0059 c 0.163305,0.01154 0.374706,0.07377 0.583008,0.174317 0.148864,0.07272 0.221604,0.128582 0.383789,0.288574 0.166641,0.168881 0.216616,0.233223 0.298828,0.404297 0.131087,0.268847 0.172852,0.455116 0.172852,0.757324 0,0.47328 -0.148763,0.842382 -0.473145,1.168946 -0.208856,0.211129 -0.346438,0.298455 -0.61084,0.389648 -0.759858,0.255456 -1.622398,-0.300302 -1.813476,-1.168945 -0.191079,-0.870952 0.252012,-1.690676 1.042968,-1.930664 0.117766,-0.03809 0.239887,-0.07072 0.270997,-0.07764 0.02083,-0.0058 0.04313,-0.0088 0.06738,-0.0088 z m 9.413086,0.01904 c 0.114163,0 0.230729,0.02352 0.361816,0.06738 0.115539,0.03579 0.253584,0.09199 0.304688,0.123046 0.359936,0.208821 0.655819,0.613601 0.760254,1.026856 0.06003,0.233293 0.06003,0.560652 0,0.793945 -0.162197,0.637659 -0.684879,1.132266 -1.275879,1.205567 -0.655437,0.07965 -1.283998,-0.347493 -1.543946,-1.051758 -0.0666,-0.179962 -0.07608,-0.231502 -0.08496,-0.493653 -0.0092,-0.266654 -0.0036,-0.310769 0.0498,-0.495117 0.168857,-0.591024 0.518233,-0.956235 1.078125,-1.125 0.123318,-0.03694 0.235944,-0.05358 0.350097,-0.05127 z" />
</svg>
