<?xml version="1.0" encoding="UTF-8"?><svg id="a" xmlns="http://www.w3.org/2000/svg" viewBox="0 0 120.45 80"><g id="b"><path d="m9.09,31.13c-.23,0-.29-.12-.18-.29l1.23-1.58c.12-.18.41-.29.65-.29h20.94c.23,0,.29.18.18.35l-1,1.52c-.12.18-.41.35-.59.35l-21.23-.06Z" style="fill-rule:evenodd; stroke-width:0px;"/><path d="m.23,36.52C0,36.52-.06,36.4.06,36.23l1.23-1.58c.12-.18.41-.29.65-.29h26.74c.23,0,.35.18.29.35l-.47,1.41c-.06.23-.29.35-.53.35l-27.74.06Z" style="fill-rule:evenodd; stroke-width:0px;"/><path d="m14.43,41.92c-.23,0-.29-.18-.18-.35l.82-1.47c.12-.18.35-.35.59-.35h11.73c.23,0,.35.18.35.41l-.12,1.41c0,.23-.23.41-.41.41l-12.78-.06Z" style="fill-rule:evenodd; stroke-width:0px;"/><path d="m75.3,30.07c-3.69.94-6.22,1.64-9.85,2.58-.88.23-.94.29-1.7-.59-.88-1-1.52-1.64-2.76-2.23-3.69-1.82-7.27-1.29-10.61.88-3.99,2.58-6.04,6.39-5.98,11.14.06,4.69,3.28,8.56,7.92,9.21,3.99.53,7.33-.88,9.97-3.87.53-.65,1-1.35,1.58-2.17h-11.32c-1.23,0-1.52-.76-1.11-1.76.76-1.82,2.17-4.87,2.99-6.39.18-.35.59-.94,1.47-.94h21.35c-.12,1.58-.12,3.17-.35,4.75-.64,4.22-2.23,8.09-4.81,11.49-4.22,5.57-9.73,9.03-16.71,9.97-5.75.76-11.08-.35-15.78-3.87-4.34-3.28-6.8-7.62-7.45-13.02-.76-6.39,1.11-12.14,4.98-17.18,4.16-5.45,9.68-8.91,16.42-10.15,5.51-1,10.79-.35,15.54,2.87,3.11,2.05,5.34,4.87,6.8,8.27.35.53.12.82-.59,1Z" style="fill-rule:evenodd; stroke-width:0px;"/><path d="m94.71,62.5c-5.34-.12-10.2-1.64-14.31-5.16-3.46-2.99-5.63-6.8-6.33-11.32-1.06-6.63.76-12.49,4.75-17.71,4.28-5.63,9.44-8.56,16.42-9.79,5.98-1.06,11.61-.47,16.71,2.99,4.63,3.17,7.51,7.45,8.27,13.08,1,7.92-1.29,14.37-6.74,19.88-3.87,3.93-8.62,6.39-14.07,7.51-1.58.29-3.17.35-4.69.53Zm13.96-23.69c-.06-.76-.06-1.35-.18-1.94-1.06-5.81-6.39-9.09-11.96-7.8-5.45,1.23-8.97,4.69-10.26,10.2-1.06,4.57,1.17,9.21,5.4,11.08,3.23,1.41,6.45,1.23,9.56-.35,4.63-2.4,7.15-6.16,7.45-11.2Z" style="stroke-width:0px;"/></g></svg>