<?xml version="1.0" encoding="UTF-8" standalone="no"?>
<!DOCTYPE svg PUBLIC "-//W3C//DTD SVG 1.1//EN" "http://www.w3.org/Graphics/SVG/1.1/DTD/svg11.dtd">
<!-- Created with Vectornator (http://vectornator.io/) -->
<svg height="100%" stroke-miterlimit="10" style="fill-rule:nonzero;clip-rule:evenodd;stroke-linecap:round;stroke-linejoin:round;" version="1.1" viewBox="0 0 200 80" width="100%" xml:space="preserve" xmlns="http://www.w3.org/2000/svg" xmlns:xlink="http://www.w3.org/1999/xlink">
<defs/>
<path d="M0 0L200 0L200 80L0 80L0 0Z" fill="#000000" fill-opacity="0" fill-rule="nonzero" opacity="1" stroke="none"/>
<g id="Sem-Título">
<g opacity="1">
<path d="M15.0934 25.2641C14.7039 25.2641 14.6065 25.0694 14.8013 24.7772L16.8462 22.1481C17.0409 21.8559 17.5278 21.6612 17.9173 21.6612L52.6808 21.6612C53.0703 21.6612 53.1677 21.9533 52.973 22.2454L51.3176 24.7772C51.1228 25.0694 50.6359 25.3615 50.3438 25.3615L15.0934 25.2641Z" fill="#000000" fill-rule="evenodd" opacity="1" stroke="none"/>
<path d="M0.389507 34.2228C1.42109e-14 34.2228-0.0973768 34.028 0.0973768 33.7359L2.14229 31.1067C2.33704 30.8146 2.82393 30.6199 3.21343 30.6199L47.6172 30.6199C48.0068 30.6199 48.2015 30.912 48.1041 31.2041L47.3251 33.5412C47.2277 33.9307 46.8382 34.1254 46.4487 34.1254L0.389507 34.2228Z" fill="#000000" fill-rule="evenodd" opacity="1" stroke="none"/>
<path d="M23.9547 43.1815C23.5652 43.1815 23.4678 42.8893 23.6626 42.5972L25.0258 40.1628C25.2206 39.8706 25.6101 39.5785 25.9996 39.5785L45.475 39.5785C45.8645 39.5785 46.0592 39.8706 46.0592 40.2602L45.8645 42.5972C45.8645 42.9867 45.475 43.2788 45.1828 43.2788L23.9547 43.1815Z" fill="#000000" fill-rule="evenodd" opacity="1" stroke="none"/>
<g opacity="1">
<path d="M125.032 23.5113C118.897 25.0694 114.71 26.2379 108.672 27.7959C107.212 28.1854 107.114 28.2828 105.849 26.8222C104.388 25.1668 103.317 24.0956 101.272 23.1218C95.1371 20.1032 89.1971 20.9796 83.6467 24.5825C77.025 28.8671 73.6169 35.1966 73.7142 43.0841C73.8116 50.8742 79.1673 57.3011 86.8601 58.3722C93.4817 59.2486 99.0322 56.9116 103.414 51.9454C104.291 50.8742 105.07 49.7057 106.043 48.3424C102.538 48.3424 98.1558 48.3424 87.2496 48.3424C85.2047 48.3424 84.7178 47.0765 85.3994 45.4211C86.6653 42.4024 89.0024 37.3389 90.3657 34.8071C90.6578 34.2228 91.3394 33.249 92.8001 33.249L128.245 33.249C128.05 35.8782 128.05 38.5074 127.661 41.1365C126.59 48.1477 123.961 54.5745 119.676 60.2224C112.665 69.4732 103.512 75.2184 91.9237 76.7765C82.3808 78.0423 73.5195 76.1922 65.7293 70.3496C58.5234 64.8965 54.4336 57.6906 53.3625 48.7319C52.0966 38.1179 55.2126 28.5749 61.6395 20.2005C68.5533 11.1445 77.7067 5.39926 88.905 3.35435C98.0584 1.69895 106.822 2.77009 114.71 8.12581C119.871 11.534 123.571 16.2081 126.006 21.8559C126.59 22.7323 126.2 23.2192 125.032 23.5113Z" fill="#000000" fill-rule="evenodd" opacity="1" stroke="none"/>
<path d="M157.264 77.3607C148.402 77.166 140.32 74.6342 133.504 68.7916C127.758 63.8253 124.155 57.4958 122.987 49.9978C121.234 38.9943 124.253 29.2566 130.874 20.59C137.983 11.2419 146.552 6.37303 158.14 4.32812C168.072 2.57534 177.421 3.54911 185.892 9.29434C193.585 14.5527 198.357 21.6612 199.622 31.0094C201.278 44.1552 197.48 54.8667 188.424 64.0201C181.997 70.5443 174.11 74.6342 165.054 76.4843C162.424 76.9712 159.795 77.0686 157.264 77.3607ZM180.439 38.0205C180.342 36.7546 180.342 35.7808 180.147 34.8071C178.394 25.1668 169.533 19.7137 160.282 21.8559C151.226 23.9009 145.384 29.6461 143.241 38.7995C141.488 46.3949 145.189 54.0877 152.2 57.2037C157.556 59.5408 162.911 59.2486 168.072 56.6195C175.765 52.627 179.952 46.3949 180.439 38.0205Z" fill="#000000" fill-rule="nonzero" opacity="1" stroke="none"/>
</g>
</g>
</g>
</svg>
