<?xml version="1.0" encoding="UTF-8" standalone="no"?>
<svg viewBox="0 0 32 32" version="1.1" id="svg1" sodipodi:docname="www.gog.com.svg" width="32" height="32" inkscape:version="1.4-beta2 (9aaf4f34, 2024-07-30)" xmlns:inkscape="http://www.inkscape.org/namespaces/inkscape" xmlns:sodipodi="http://sodipodi.sourceforge.net/DTD/sodipodi-0.dtd" xmlns="http://www.w3.org/2000/svg" xmlns:svg="http://www.w3.org/2000/svg">
  <defs id="defs1" />
  <sodipodi:namedview id="namedview1" pagecolor="#ffffff" bordercolor="#000000" borderopacity="0.25" inkscape:showpageshadow="2" inkscape:pageopacity="0.0" inkscape:pagecheckerboard="0" inkscape:deskcolor="#d1d1d1" inkscape:zoom="2.6230087" inkscape:cx="52.039477" inkscape:cy="85.969979" inkscape:window-width="1440" inkscape:window-height="872" inkscape:window-x="0" inkscape:window-y="0" inkscape:window-maximized="1" inkscape:current-layer="svg1" />
  <path class="cls-1" d="M 29.17647,30.588235 H 2.8235291 A 2.8235294,2.8235294 0 0 1 -2.35e-7,27.764705 V 4.2352941 A 2.8235294,2.8235294 0 0 1 2.8235291,1.4117646 H 29.17647 A 2.8235294,2.8235294 0 0 1 32,4.2352941 V 27.764705 a 2.8235294,2.8235294 0 0 1 -2.82353,2.82353 z M 3.7647056,24.470588 a 1.4117647,1.4117647 0 0 0 1.4117647,1.411764 H 10.352941 V 24 H 6.1176468 A 0.47058824,0.47058824 0 0 1 5.6470586,23.529411 V 20.705882 A 0.47058824,0.47058824 0 0 1 6.1176468,20.235294 H 10.352941 V 18.352941 H 5.1764703 A 1.4117647,1.4117647 0 0 0 3.7647056,19.764705 Z M 11.294117,7.5294117 A 1.4117647,1.4117647 0 0 0 9.8823527,6.117647 H 5.1764703 A 1.4117647,1.4117647 0 0 0 3.7647056,7.5294117 v 4.7058823 a 1.4117647,1.4117647 0 0 0 1.4117647,1.411764 H 8.470588 V 11.764705 H 6.1176468 A 0.47058824,0.47058824 0 0 1 5.6470586,11.294117 V 8.4705882 A 0.47058824,0.47058824 0 0 1 6.1176468,7.9999999 H 8.9411762 A 0.47058824,0.47058824 0 0 1 9.4117644,8.4705882 V 14.117647 A 0.47058824,0.47058824 0 0 1 8.9411762,14.588235 H 3.7647056 v 1.882353 h 6.1176471 a 1.4117647,1.4117647 0 0 0 1.4117643,-1.411765 z m 0,12.2352933 v 4.705883 a 1.4117647,1.4117647 0 0 0 1.411765,1.411764 h 4.705882 a 1.4117647,1.4117647 0 0 0 1.411765,-1.411764 v -4.705883 a 1.4117647,1.4117647 0 0 0 -1.411765,-1.411764 h -4.705882 a 1.4117647,1.4117647 0 0 0 -1.411765,1.411764 z M 19.764705,7.5294117 A 1.4117647,1.4117647 0 0 0 18.352941,6.117647 h -4.705883 a 1.4117647,1.4117647 0 0 0 -1.411764,1.4117647 v 4.7058823 a 1.4117647,1.4117647 0 0 0 1.411764,1.411764 h 4.705883 a 1.4117647,1.4117647 0 0 0 1.411764,-1.411764 z m 8.470589,0 A 1.4117647,1.4117647 0 0 0 26.823529,6.117647 h -4.705882 a 1.4117647,1.4117647 0 0 0 -1.411765,1.4117647 v 4.7058823 a 1.4117647,1.4117647 0 0 0 1.411765,1.411764 h 3.294117 V 11.764705 H 23.058823 A 0.47058824,0.47058824 0 0 1 22.588235,11.294117 V 8.4705882 a 0.47058824,0.47058824 0 0 1 0.470588,-0.4705883 h 2.823529 a 0.47058824,0.47058824 0 0 1 0.470589,0.4705883 v 5.6470588 a 0.47058824,0.47058824 0 0 1 -0.470589,0.470588 h -5.17647 v 1.882353 h 6.117647 a 1.4117647,1.4117647 0 0 0 1.411765,-1.411765 z m 0,10.8235293 H 21.17647 a 1.4117647,1.4117647 0 0 0 -1.411765,1.411764 v 6.117647 h 1.882353 v -5.17647 a 0.47058824,0.47058824 0 0 1 0.470589,-0.470588 h 0.941176 v 5.647058 h 1.882353 v -5.647058 h 1.411765 v 5.647058 h 1.882353 z M 17.411764,11.764705 H 14.588235 A 0.47058824,0.47058824 0 0 1 14.117647,11.294117 V 8.4705882 a 0.47058824,0.47058824 0 0 1 0.470588,-0.4705883 h 2.823529 a 0.47058824,0.47058824 0 0 1 0.470588,0.4705883 v 2.8235288 a 0.47058824,0.47058824 0 0 1 -0.470588,0.470588 z m -3.764706,8.470589 h 2.82353 a 0.47058824,0.47058824 0 0 1 0.470588,0.470588 v 2.823529 A 0.47058824,0.47058824 0 0 1 16.470588,24 h -2.82353 A 0.47058824,0.47058824 0 0 1 13.17647,23.529411 v -2.823529 a 0.47058824,0.47058824 0 0 1 0.470588,-0.470588 z" id="path1" style="fill:#000000;stroke-width:0.941176" />
</svg>
