<svg id="Layer_1" data-name="Layer 1" xmlns="http://www.w3.org/2000/svg" viewBox="0 0 300 120"><title>GoldenLogo_WhiteBG</title><path d="M5.91,78.79C-10.28,54.08,9.54,26.64,32.3,26.64c23,0,29.36,18.29,22.75,33.37.24-5.44-9.3-16.31-24.47-16.31C13.7,43.7-2,58,5.91,78.79Z"/><path d="M55.79,35.54s12.48,20-8.07,34.87c-10.31,7.42-24,8.16-30.12,1.73-3.66-4-9.32-12.62-1.7-22.51-3.42,2-10,7.92-10,19S13,93.36,33.07,93.36c12.73,0,27.9-7.93,32.06-24.71,3.17-11.89.49-24.23-9.3-33.12Z"/><path d="M112.11,75.09a12.66,12.66,0,0,1-9.51,4.2,12.47,12.47,0,0,1-9.06-3.71c-3.42-3.46-3.42-6.92-3.42-14.58s0-11.1,3.42-14.58a12.47,12.47,0,0,1,9.06-3.71c6.85,0,11.5,4.44,12.48,10.87h-3.92c-1-4.45-4.15-7.41-8.56-7.41a8.63,8.63,0,0,0-6.12,2.47C94.28,50.86,94,53.33,94,61s.25,10.14,2.45,12.35a8.06,8.06,0,0,0,6.12,2.48,8.86,8.86,0,0,0,6.85-3c1.47-1.72,2-3.71,2-6.42V63.72h-8.88V60.25H115v5.69c.25,4-.72,6.68-2.93,9.15Z"/><path d="M149.27,75.58a12.9,12.9,0,0,1-18.11,0c-3.43-3.46-3.43-6.92-3.43-14.58s0-11.1,3.43-14.58a12.9,12.9,0,0,1,18.11,0c3.42,3.46,3.42,6.91,3.42,14.58C152.45,68.42,152.45,72.09,149.27,75.58Zm-2.94-26.95a8.08,8.08,0,0,0-6.12-2.47,8.6,8.6,0,0,0-6.11,2.47c-2.21,2.22-2.45,4.7-2.45,12.36s.24,9.88,2.45,12.36a8,8,0,0,0,6.11,2.47,8.66,8.66,0,0,0,6.12-2.47c2.2-2.22,2.45-4.7,2.45-12.36S148.53,50.85,146.33,48.63Z"/><polygon points="166.4 78.79 166.4 42.95 170.31 42.95 170.31 75.58 188.42 75.58 188.42 79.04 166.4 79.04 166.4 78.79 166.4 78.79"/><path d="M221.21,75.58a12.48,12.48,0,0,1-9.05,3.47H199.92V43h12.24a12.49,12.49,0,0,1,9.05,3.5c3.67,3.67,3.45,9.36,3.45,14.27,0,4.69.24,11.1-3.43,14.83Zm-2.69-26.69c-1.72-2-4.17-2.44-7.1-2.44h-7.83V75.62h7.83a9.5,9.5,0,0,0,7.1-2.72C221,70.43,221,65,221,60.55s0-8.9-2.44-11.62Z"/><polygon points="238.58 78.79 238.58 42.95 260.86 42.95 260.86 46.41 242.25 46.41 242.25 59.02 257.91 59.02 257.91 62.48 242.25 62.48 242.25 75.58 260.61 75.58 260.61 79.04 238.58 79.04 238.58 78.79 238.58 78.79"/><polygon points="296.33 78.79 277.49 49.88 277.49 78.79 273.58 78.79 273.58 42.95 277.25 42.95 296.09 71.87 296.09 42.95 300 42.95 300 79.04 296.33 79.04 296.33 78.79 296.33 78.79"/></svg>