<?xml version="1.0" encoding="UTF-8"?><svg id="katman_1" xmlns="http://www.w3.org/2000/svg" viewBox="0 0 184.99 80"><path d="m33.38,52.08l-2.81,6.43c-1.08,2.47-4.5,2.47-5.58,0l-2.81-6.43c-2.5-5.73-7-10.29-12.61-12.78l-7.73-3.43c-2.46-1.09-2.46-4.67,0-5.76l7.49-3.33c5.75-2.56,10.33-7.28,12.79-13.2l2.84-6.86c1.06-2.54,4.57-2.54,5.63,0l2.84,6.86c2.46,5.92,7.03,10.65,12.79,13.2l7.49,3.33c2.46,1.09,2.46,4.67,0,5.76l-7.73,3.43c-5.61,2.49-10.11,7.05-12.61,12.78Z" style="stroke-width:0px;"/><path d="m59.47,72.37l-.79,1.81c-.58,1.33-2.41,1.33-2.99,0l-.79-1.81c-1.41-3.23-3.94-5.8-7.11-7.21l-2.43-1.08c-1.32-.59-1.32-2.5,0-3.08l2.3-1.02c3.25-1.44,5.83-4.11,7.21-7.45l.81-1.96c.56-1.36,2.45-1.36,3.01,0l.81,1.96c1.38,3.34,3.96,6,7.21,7.45l2.3,1.02c1.32.59,1.32,2.5,0,3.08l-2.43,1.08c-3.17,1.41-5.7,3.98-7.11,7.21Z" style="stroke-width:0px;"/><path d="m94.99,56.71V22.52h12.37c2.71,0,5.03.89,6.97,2.67,1.94,1.75,2.91,3.96,2.91,6.64,0,3.37-1.54,5.75-4.63,7.12v.19c1.75.57,3.15,1.58,4.2,3.01,1.05,1.4,1.58,3.01,1.58,4.82,0,2.8-1.02,5.13-3.06,6.97-1.97,1.85-4.41,2.77-7.31,2.77h-13.04Zm4.39-29.99v10.46h7.98c1.56,0,2.87-.53,3.92-1.58,1.05-1.08,1.58-2.31,1.58-3.68s-.51-2.55-1.53-3.63c-1.02-1.05-2.28-1.58-3.77-1.58h-8.17Zm0,14.57v11.22h8.84c1.59,0,2.95-.56,4.06-1.67,1.08-1.11,1.62-2.44,1.62-3.96s-.56-2.8-1.67-3.92-2.52-1.67-4.2-1.67h-8.64Zm26.4,8.26c0,1.15.48,2.1,1.43,2.87.99.76,2.13,1.15,3.44,1.15,1.85,0,3.49-.68,4.92-2.05,1.46-1.37,2.2-2.98,2.2-4.82-1.37-1.08-3.28-1.62-5.73-1.62-1.78,0-3.28.43-4.49,1.29-1.18.86-1.77,1.93-1.77,3.2Zm5.68-17c3.25,0,5.81.88,7.69,2.63,1.88,1.72,2.82,4.09,2.82,7.12v14.42h-4.2v-3.25h-.19c-1.82,2.67-4.23,4.01-7.26,4.01-2.58,0-4.74-.76-6.5-2.29-1.72-1.53-2.58-3.44-2.58-5.73,0-2.42.91-4.35,2.72-5.78,1.85-1.43,4.3-2.15,7.35-2.15,2.61,0,4.76.48,6.45,1.43v-1c0-1.53-.6-2.82-1.82-3.87-1.21-1.08-2.63-1.62-4.25-1.62-2.45,0-4.39,1.03-5.83,3.1l-3.87-2.44c2.13-3.06,5.29-4.59,9.46-4.59Zm19.86,24.17h-4.39v-23.4h4.2v3.82h.19c.45-1.24,1.35-2.29,2.72-3.15,1.4-.89,2.77-1.34,4.11-1.34s2.36.19,3.25.57l-1.34,4.25c-.54-.22-1.4-.33-2.58-.33-1.66,0-3.1.67-4.35,2.01-1.21,1.34-1.82,2.9-1.82,4.68v12.9h0Zm22.02-3.25c2.17,0,3.93-.78,5.3-2.34,1.43-1.56,2.15-3.6,2.15-6.11s-.72-4.47-2.15-6.06c-1.4-1.59-3.17-2.39-5.3-2.39s-3.87.8-5.3,2.39-2.15,3.61-2.15,6.06.72,4.51,2.15,6.06c1.43,1.59,3.2,2.39,5.3,2.39Zm-.72,4.01c-3.06,0-5.68-1.21-7.88-3.63-2.17-2.45-3.25-5.4-3.25-8.84s1.08-6.38,3.25-8.84c2.2-2.42,4.82-3.63,7.88-3.63,1.72,0,3.28.37,4.68,1.1,1.43.73,2.53,1.7,3.3,2.91h.19l-.19-3.25v-10.79h4.39v34.19h-4.2v-3.25h-.19c-.76,1.21-1.86,2.18-3.3,2.91-1.4.73-2.96,1.1-4.68,1.1Z" style="stroke-width:0px;"/></svg>