<?xml version="1.0" encoding="UTF-8"?>
<svg id="Camada_1" data-name="Camada 1" xmlns="http://www.w3.org/2000/svg" viewBox="0 0 80 80">
  <path d="m38.15,53.74l-3.19,7.32c-1.23,2.81-5.12,2.81-6.35,0l-3.19-7.32c-2.84-6.51-7.96-11.69-14.34-14.53l-8.79-3.9c-2.8-1.24-2.8-5.31,0-6.55l8.52-3.78c6.55-2.91,11.76-8.28,14.55-15.01l3.24-7.8c1.2-2.89,5.2-2.89,6.4,0l3.24,7.8c2.79,6.73,8,12.11,14.55,15.01l8.52,3.78c2.8,1.24,2.8,5.31,0,6.55l-8.79,3.9c-6.38,2.83-11.5,8.02-14.34,14.53Z"/>
  <path d="m67.84,76.81l-.9,2.06c-.66,1.51-2.74,1.51-3.4,0l-.9-2.06c-1.6-3.67-4.49-6.59-8.08-8.19l-2.77-1.23c-1.5-.66-1.5-2.84,0-3.51l2.61-1.16c3.69-1.64,6.63-4.67,8.2-8.47l.92-2.22c.64-1.55,2.79-1.55,3.43,0l.92,2.22c1.57,3.8,4.51,6.83,8.2,8.47l2.61,1.16c1.5.66,1.5,2.84,0,3.51l-2.77,1.23c-3.6,1.6-6.48,4.52-8.08,8.19Z"/>
</svg>