<?xml version="1.0" encoding="UTF-8" standalone="no"?>
<!-- Uploaded to: SVG Repo, www.svgrepo.com, Generator: SVG Repo Mixer Tools -->

<svg fill="#000000" width="32" height="32" viewBox="0 0 0.96 0.96" role="img" version="1.1" id="svg1" sodipodi:docname="googlenews-svgrepo-com.svg" inkscape:version="1.4-beta2 (9aaf4f34, 2024-07-30)" xmlns:inkscape="http://www.inkscape.org/namespaces/inkscape" xmlns:sodipodi="http://sodipodi.sourceforge.net/DTD/sodipodi-0.dtd" xmlns="http://www.w3.org/2000/svg" xmlns:svg="http://www.w3.org/2000/svg">
  <defs id="defs1" />
  <sodipodi:namedview id="namedview1" pagecolor="#ffffff" bordercolor="#000000" borderopacity="0.25" inkscape:showpageshadow="2" inkscape:pageopacity="0.0" inkscape:pagecheckerboard="0" inkscape:deskcolor="#d1d1d1" inkscape:zoom="1.9659965" inkscape:cx="0.50864792" inkscape:cy="50.10182" inkscape:window-width="1440" inkscape:window-height="790" inkscape:window-x="0" inkscape:window-y="0" inkscape:window-maximized="1" inkscape:current-layer="svg1" />
  <g id="g1" transform="matrix(0.04000083,0,0,0.04000083,-1.5788848e-5,-9.3658191e-6)">
    <path d="m 21.267,21.2 a 0.614,0.614 0 0 1 -0.613,0.613 H 3.344 A 0.614,0.614 0 0 1 2.732,21.2 V 8.115 A 0.614,0.614 0 0 1 3.345,7.502 h 17.309 a 0.614,0.614 0 0 1 0.613,0.613 z m -3.032,-3.42 v -1.195 a 0.08,0.08 0 0 0 -0.08,-0.08 h -5.373 v 1.361 h 5.373 a 0.082,0.082 0 0 0 0.08,-0.083 z m 0.817,-2.587 V 13.992 A 0.08,0.08 0 0 0 18.973,13.91 h -6.19 v 1.362 h 6.189 a 0.079,0.079 0 0 0 0.08,-0.078 V 15.19 Z M 18.235,12.605 V 11.4 a 0.08,0.08 0 0 0 -0.08,-0.08 h -5.373 v 1.361 h 5.373 a 0.082,0.082 0 0 0 0.08,-0.079 v 0.004 z M 8.15,14.045 v 1.226 h 1.77 c -0.145,0.748 -0.804,1.292 -1.77,1.292 a 1.976,1.976 0 0 1 0,-3.95 1.77,1.77 0 0 1 1.253,0.49 l 0.934,-0.932 a 3.14,3.14 0 0 0 -2.187,-0.853 3.2685,3.2685 0 1 0 0,6.537 c 1.89,0 3.133,-1.328 3.133,-3.197 a 3.941,3.941 0 0 0 -0.052,-0.619 l -3.08,0.006 z M 2.27,7.654 A 0.616,0.616 0 0 1 2.883,7.041 H 15.037 L 13.768,3.551 A 0.595,0.595 0 0 0 13.025,3.168 L 0.368,7.775 A 0.594,0.594 0 0 0 0.045,8.55 l 2.225,6.112 z m 0,0 A 0.616,0.616 0 0 1 2.883,7.041 H 15.037 L 13.768,3.551 A 0.595,0.595 0 0 0 13.025,3.168 L 0.368,7.775 A 0.594,0.594 0 0 0 0.045,8.55 l 2.225,6.112 z m 21.312,-0.31 -8.803,-2.37 0.751,2.067 h 5.584 a 0.614,0.614 0 0 1 0.613,0.613 v 8.794 L 23.974,8.082 A 0.592,0.592 0 0 0 23.582,7.343 Z M 19.086,5.669 V 2.795 A 0.61,0.61 0 0 0 18.475,2.187 H 5.524 A 0.61,0.61 0 0 0 4.908,2.792 v 2.837 l 8.39,-3.052 a 0.594,0.594 0 0 1 0.743,0.39 l 0.544,1.497 z" id="path1" />
  </g>
</svg>
