<?xml version="1.0" encoding="UTF-8"?><svg id="a" xmlns="http://www.w3.org/2000/svg" viewBox="0 0 300 60.17"><defs><style>.b{stroke-width:0px;}</style></defs><path class="b" d="m50.69,22.89L12.38,1.09c-2.59-1.47-5.68-1.46-8.26.04C1.54,2.64,0,5.31,0,8.3v43.58c0,2.98,1.54,5.66,4.12,7.16,1.3.76,2.73,1.14,4.16,1.14s2.81-.36,4.09-1.09l38.32-21.79,1.14-.65v-.13c1.93-1.56,3.05-3.87,3.05-6.42,0-3.02-1.57-5.71-4.19-7.2ZM6.39,5.04c.59-.34,1.24-.52,1.9-.52s1.28.17,1.86.5l24.27,13.8-7.69,7.83L5.91,5.37c.15-.12.31-.23.48-.33Zm-1.87,5.36l19.04,19.48L4.51,49.26V10.4Zm5.63,44.76c-1.18.67-2.59.66-3.76-.02-.28-.16-.53-.36-.75-.57l21.08-21.46,7.94,8.12-24.5,13.94Zm38.32-21.79l-1.14.65h0s-8.64,4.92-8.64,4.92c-.07-.09-.14-.18-.22-.26l-8.59-8.78,8.6-8.75,9.99,5.68c1.19.68,1.91,1.9,1.91,3.28s-.71,2.6-1.91,3.28Z"/><path class="b" d="m267.17,25.02l-.04-.09c-3.65-.21-7.07,1.76-8.72,5.02l4.35,1.86c.88-1.61,2.63-2.55,4.46-2.38,2.57-.26,4.87,1.62,5.13,4.19,0,0,0,.02,0,.03v.33c-1.56-.84-3.3-1.28-5.07-1.28-4.67,0-9.43,2.57-9.43,7.44,0,4.39,3.81,7.21,8.12,7.21,2.5.16,4.89-1.07,6.21-3.2h.19v2.53h4.76v-12.6c0-5.82-4.35-9.05-9.96-9.05Zm-.61,17.86c-1.6,0-3.83-.82-3.83-2.79,0-2.53,2.77-3.49,5.19-3.49,1.56-.04,3.1.34,4.46,1.1-.37,2.94-2.86,5.15-5.82,5.19Z"/><path class="b" d="m211.61,32.1c-1.47-4.54-5.89-7.47-10.65-7.06-5.65.49-9.83,5.46-9.34,11.11,0,.17,0,.34,0,.51.09,5.96,4.99,10.73,10.95,10.65,3.73,0,7.22-1.85,9.29-4.94l-3.83-2.53c-1.14,1.89-3.17,3.05-5.37,3.09-2.33.09-4.48-1.25-5.43-3.38l14.87-6.15-.5-1.28Zm-15.3,3.72s0-.07,0-.11c-.15-3.37,2.47-6.23,5.84-6.38,1.74-.12,3.37.81,4.16,2.36l-10,4.13Z"/><polygon class="b" points="294.53 25.63 288.96 39.83 288.79 39.83 282.97 25.63 277.71 25.63 286.43 45.49 281.45 56.53 286.56 56.53 300 25.63 294.53 25.63"/><rect class="b" x="183.79" y="13.88" width="4.91" height="32.74"/><path class="b" d="m119.76,24.67c-6.09.25-10.83,5.39-10.58,11.49-.01.3-.01.6,0,.91.25,6.09,5.39,10.83,11.49,10.58,6.09-.25,10.83-5.39,10.58-11.49.01-.3.01-.6,0-.91-.25-6.09-5.39-10.83-11.49-10.58Zm6.65,12.66c-.33,3.42-3.36,5.94-6.79,5.61-3.42-.33-5.94-3.36-5.61-6.79-.04-.39-.04-.79,0-1.18.33-3.42,3.36-5.94,6.79-5.61,3.42.33,5.94,3.36,5.61,6.79.04.39.04.79,0,1.18Z"/><path class="b" d="m236.93,13.84s-.09,0-.14,0h-11.71v32.76h4.91v-12.4h6.82c5.74.2,10.54-4.29,10.74-10.03,0-.05,0-.09,0-.14-.12-5.75-4.88-10.31-10.63-10.19Zm.01,15.79h-6.95v-11.15h6.95c3.08,0,5.58,2.5,5.58,5.58s-2.5,5.58-5.58,5.58Z"/><path class="b" d="m90.29,28.49v4.59h11.36c-.16,2.22-1.07,4.32-2.58,5.95-2.3,2.35-5.49,3.61-8.77,3.48-6.95,0-12.59-5.63-12.59-12.59s5.63-12.59,12.59-12.59c3.2-.02,6.27,1.22,8.55,3.46l3.36-3.33c-3.17-3.13-7.46-4.85-11.92-4.78-9.63-.03-17.49,7.68-17.64,17.31.15,9.63,8.02,17.34,17.64,17.31,4.53.23,8.93-1.48,12.12-4.7,2.79-3.03,4.27-7.04,4.11-11.15.01-.99-.07-1.98-.24-2.96h-15.99Z"/><path class="b" d="m144.94,25.13c-6.09,0-11.02,4.94-11.02,11.02s4.94,11.02,11.02,11.02,11.02-4.94,11.02-11.02-4.94-11.02-11.02-11.02Zm6.21,12.2c-.33,3.42-3.36,5.94-6.79,5.61s-5.94-3.36-5.61-6.79c-.04-.39-.04-.79,0-1.18.33-3.42,3.36-5.94,6.79-5.61,3.42.33,5.94,3.36,5.61,6.79.04.39.04.79,0,1.18Z"/><rect class="b" x="250.25" y="13.85" width="4.87" height="32.76"/><path class="b" d="m175.37,25.63v1.86h-.19c-1.51-1.63-3.65-2.54-5.87-2.49-6.16,0-11.15,4.99-11.15,11.15s4.99,11.15,11.15,11.15c2.21.03,4.32-.9,5.8-2.55h.19v1.6c0,4.26-2.27,6.54-5.99,6.54-2.49-.08-4.68-1.64-5.58-3.96l-4.22,1.86c1.69,3.98,5.61,6.54,9.93,6.51,5.76,0,10.65-3.38,10.65-11.6v-20.08h-4.72Zm-5.58,17.29s-.09,0-.14,0c-3.54-.17-6.27-3.17-6.11-6.71,0-.04,0-.08,0-.12-.12-3.57,2.68-6.56,6.25-6.68.07,0,.13,0,.2.01,3.47.28,6.05,3.32,5.77,6.79,0,.08.01.16.01.25.13,3.44-2.54,6.33-5.98,6.46Z"/></svg>