<?xml version="1.0" encoding="UTF-8"?><svg id="a" xmlns="http://www.w3.org/2000/svg" viewBox="0 0 300 80"><defs><style>.c{stroke-width:0px;}</style></defs><g id="b"><path class="c" d="m184.8,55.65V19.35h4.7l12.6,22.1h.2l12.6-22.1h4.7v36.3h-4.7v-21.5l.2-6.1h-.2l-11.3,19.9h-2.7l-11.4-19.9h-.2l.2,6.1v21.5h-4.7Z"/><path class="c" d="m233.9,56.45c-2.4.1-4.8-.7-6.6-2.3-1.8-1.5-2.7-3.7-2.7-6-.1-2.5,1.1-4.9,3.1-6.4,2.3-1.6,5-2.4,7.8-2.3,2.3-.1,4.7.4,6.7,1.5v-.7c.1-1.7-.6-3.3-1.9-4.4-1.3-1.1-2.9-1.7-4.6-1.7-1.3,0-2.6.3-3.7,1-1,.6-1.8,1.5-2.3,2.6l-4.3-1.8c.7-1.7,1.9-3.1,3.4-4.2,2-1.4,4.3-2,6.7-1.9,2.9-.1,5.7.9,7.9,2.8,2.2,2,3.3,4.9,3.1,7.9v15h-4.5v-3.5h-.2c-1.5,3-4.6,4.6-7.9,4.4Zm.8-4.2c2,0,3.8-.8,5.3-2.2,1.5-1.3,2.4-3.1,2.4-5.1-1.3-1.1-3.3-1.6-5.9-1.6-1.8-.1-3.6.4-5.1,1.5-1.1.8-1.7,2.1-1.7,3.5,0,1.2.6,2.3,1.6,2.9.8.6,2.1,1,3.4,1Z"/><path class="c" d="m264.9,56.45c-1.8,0-3.5-.4-5.1-1.2-1.4-.7-2.5-1.7-3.4-3h-.2l.2,3.4v11h-4.7V30.85h4.5v3.4h.2c.8-1.3,2-2.3,3.4-3,1.6-.8,3.3-1.2,5.1-1.2,3.2,0,6.2,1.4,8.3,3.8,2.3,2.6,3.6,5.9,3.5,9.4.1,3.5-1.1,6.9-3.5,9.4-2.1,2.5-5.1,3.8-8.3,3.8Zm-.7-4.2c2.1,0,4.2-.9,5.6-2.5,1.6-1.8,2.4-4.1,2.3-6.5.1-2.4-.7-4.7-2.3-6.5-2.8-3.1-7.6-3.3-10.7-.4-.2.1-.3.3-.4.4-1.6,1.8-2.4,4.1-2.3,6.5-.1,2.4.7,4.8,2.3,6.5,1.3,1.6,3.3,2.5,5.5,2.5Z"/><path class="c" d="m290.2,56.45c-2.4.1-4.9-.6-6.9-2-1.8-1.3-3.2-3-4-5.1l4.2-1.7c1.3,3.1,3.6,4.7,6.7,4.7,1.3,0,2.5-.3,3.6-1,.9-.5,1.4-1.5,1.4-2.5,0-1.6-1.1-2.7-3.4-3.3l-5-1.2c-1.7-.4-3.2-1.2-4.5-2.3-1.4-1.1-2.2-2.8-2.1-4.6,0-2.2,1.1-4.2,2.9-5.3,2-1.4,4.4-2.1,6.9-2,2.1,0,4.1.5,5.9,1.5,1.7,1,3,2.5,3.7,4.3l-4,1.7c-.9-2.2-2.8-3.3-5.7-3.3-1.2,0-2.4.3-3.5.9-.9.5-1.4,1.4-1.4,2.3,0,1.4,1.1,2.4,3.3,2.9l4.9,1.2c2,.3,3.8,1.3,5.2,2.8,1.1,1.2,1.6,2.8,1.6,4.5,0,2.2-1,4.3-2.7,5.6-2.1,1.3-4.5,2-7.1,1.9Z"/><path class="c" d="m41.5,32.85h-19.7v5.8h14c-.7,8.2-7.5,11.7-14,11.7-8.6-.2-15.4-7.4-15.2-16,.2-8.3,6.9-15,15.2-15.2,3.9,0,7.7,1.5,10.5,4.2l4.1-4.2c-4-3.8-9.3-5.9-14.8-5.8C9.8,13.35.2,22.85,0,34.65c.1,12,10,21.7,22,21.5h0c11.5,0,19.9-7.9,19.9-19.5,0-1.3-.1-2.6-.4-3.8h0Z"/><path class="c" d="m57.6,28.55c-7.6,0-13.8,6.2-13.7,13.9,0,7.6,6.2,13.8,13.9,13.7,7.6,0,13.7-6.2,13.7-13.7,0-9.2-7.2-13.9-13.9-13.9Zm.1,5.5c4,0,7.8,3.2,7.8,8.4s-3.8,8.4-7.8,8.4c-4.4,0-7.9-3.5-7.9-8.4s3.5-8.4,7.9-8.4Z"/><path class="c" d="m87.8,28.55c-7.6,0-13.8,6.2-13.7,13.9,0,7.6,6.2,13.8,13.9,13.7,7.6,0,13.7-6.2,13.7-13.7,0-9.2-7.2-13.9-13.9-13.9Zm.1,5.5c4,0,7.7,3.2,7.7,8.4s-3.8,8.4-7.8,8.4c-4.4,0-7.9-3.5-7.9-8.4s3.5-8.4,8-8.4Z"/><path class="c" d="m117.4,28.65c-7.4,0-13.3,6.5-13.3,13.8-.1,7.4,5.7,13.5,13.1,13.8,2.9.2,5.7-1.1,7.6-3.3v2.7c0,4.8-2.9,7.6-7.3,7.6-3.1,0-5.9-2-7.1-4.9l-5.3,2.2c1.9,4,5.7,8.1,12.4,8.1,7.4,0,13-4.7,13-14.4v-24.8h-5.8v2.3c-1.7-2.1-4.5-3.2-7.3-3.1Zm.6,5.4c3.6,0,7.4,3.1,7.4,8.4s-3.7,8.4-7.4,8.4c-3.9,0-7.6-3.2-7.6-8.3-.1-5.4,3.7-8.5,7.6-8.5h0Z"/><path class="c" d="m156.4,28.55c-7,0-12.9,5.6-12.9,13.8-.3,7.4,5.5,13.6,12.8,13.9h.7c4.6,0,8.9-2.3,11.6-6.1l-4.8-3.2c-1.4,2.4-4,3.8-6.8,3.8-2.9.1-5.6-1.5-6.8-4.2l18.5-7.6-1-2.3c-1.7-4.7-6.2-8-11.3-8.1h0Zm.2,5.3c2.1-.1,4.1,1.1,5.1,3l-12.3,5.1c-.6-4,3.2-8.1,7.2-8.1h0Z"/><path class="c" d="m134.7,55.35h6.1V14.75h-6.1v40.6Z"/></g></svg>