<?xml version="1.0" encoding="UTF-8"?><svg id="a" xmlns="http://www.w3.org/2000/svg" viewBox="0 0 300 80"><defs><style>.c{stroke-width:0px;}</style></defs><g id="b"><path class="c" d="m114.47,57.19h5.25V23.19h-5.25c.01,11.33.01,22.67,0,34Z"/><path class="c" d="m176.14,44.84c-.75-1.52-1.96-2.77-3.45-3.57-2.88-1.9-6.34-2.53-9.4-4.06-1.55-.83-3.09-2.27-3.08-4.16.22-1.63,1.21-3.05,2.67-3.82,1.47-.95,3.3-.81,5-.68,2.11.46,3.84,1.97,4.58,4,1.04-.52,2.12-.97,3.22-1.35-.07-.57,0-1.21-.36-1.68-1.47-2.4-3.89-4.08-6.66-4.62-1.72-.11-3.45-.11-5.18,0-3.85.79-7.46,4.34-7,8.49-.16,2.11.75,4.15,2.41,5.45,3.47,3.26,8.73,3.17,12.38,6.13,1.6,1.39,2.2,3.6,1.53,5.61-.82,2.58-3.69,3.67-6.15,4-3.74-.19-6.92-2.8-7.82-6.44-1.19.49-2.39,1-3.6,1.42,1,4.6,5.29,7.91,9.82,8.55,3.43.36,6.86-.69,9.5-2.91,1.42-1.36,2.23-3.24,2.25-5.2-.06-1.7.28-3.59-.66-5.16Z"/><path class="c" d="m106,35.12v1.94c-1.73-1.75-4.12-2.7-6.58-2.61-5.59.09-10.39,5-10.91,10.44-.65,5.73,2.94,11.1,8.49,12.68,3.21.97,6.68.06,9-2.36-.08,2.09,0,4.37-1.24,6.17-1.59,2.34-5,2.92-7.47,1.85-1.55-.76-2.79-2.05-3.49-3.63-1.52.59-3.03,1.22-4.53,1.88.64,1.47,1.57,2.8,2.73,3.91,4.28,3.9,10.77,4.1,15.28.46,2.65-2.33,3.65-6,3.6-9.44v-21.29c-1.67,0-3.29,0-4.88,0Zm-1.33,15.88c-1.65,2.04-4.43,2.77-6.87,1.8-2.81-1.21-4.51-4.11-4.19-7.15.1-3.05,2.22-5.66,5.18-6.38,2.16-.49,4.41.29,5.81,2,2.22,2.85,2.25,6.84.07,9.73Z"/><path class="c" d="m57.41,37.41c-3-2.6-7.09-3.56-10.94-2.58-3.26.82-6,3.01-7.51,6-2.62,5.08-1,12,3.85,15.15,5.13,3.5,12.09,2.43,15.94-2.45,3.84-4.88,3.26-11.9-1.34-16.07v-.05Zm-5.58,15.38c-3.55,1.59-7.92-1-8.67-4.7-1-3.61,1.11-8.05,5-8.78,2.87-.63,5.81.78,7.11,3.42,1.83,3.52.43,8.59-3.44,10.06Z"/><path class="c" d="m18.63,38.2v5h11.64c-.21,2.51-1.36,4.86-3.22,6.56-5.22,4.81-14.39,3.9-18.68-1.72-4.27-5.45-3.7-13.26,1.31-18.04,5.05-4.58,12.76-4.53,17.75.11,1.2-1.19,2.44-2.34,3.56-3.61-3.24-3.09-7.52-4.86-12-4.94-5.08-.16-10.01,1.79-13.61,5.38C1.92,30.31-.02,34.94,0,39.77c.02,5.91,2.93,11.43,7.8,14.78,4.07,2.85,9.1,3.97,14,3.13,4.38-.65,8.3-3.06,10.85-6.68,2.42-3.81,3.35-8.39,2.6-12.84l-16.62.04Z"/><path class="c" d="m82.75,37.45c-3.01-2.64-7.12-3.63-11-2.63-3.15.8-5.81,2.89-7.34,5.75-2.63,4.93-1.36,11.71,3.24,15,4.75,3.49,11.32,3.01,15.52-1.12,4.62-4.45,4.44-12.77-.42-17Zm-5.3,15.21c-3.08,1.39-6.7.13-8.27-2.86-2.18-3.8-.27-9.6,4.26-10.49,2.78-.63,5.64.67,7,3.18,1.93,3.43.74,8.51-2.99,10.17Z"/><path class="c" d="m192,38.44c2.45.19,4.6,1.73,5.55,4,1.21-.33,2.32-.93,3.51-1.35-1.62-4.54-6.86-7.09-11.5-6.09-3.34.54-6.23,2.6-7.84,5.57-2.5,4.76-1.76,11.32,2.45,14.9,3.47,2.96,8.37,3.56,12.45,1.53,2-1.14,4-2.83,4.4-5.14-1.1-.45-2.2-.92-3.29-1.4-1.34,3.83-6.44,5.31-9.77,3.17-2.67-1.73-4.11-4.84-3.69-8,.12-3.85,3.64-7.63,7.73-7.19Z"/><path class="c" d="m139.93,36.83c-4.06-3.6-10.86-2.94-14.44,1-4.64,4.84-4.12,13.63,1.3,17.69,5.11,4.11,13.65,2.82,17-2.91-1.37-.81-2.66-1.72-4-2.6-.92,1.37-2.25,2.41-3.79,2.99-2.98.99-6.23-.37-7.63-3.18,5.22-2.24,10.54-4.23,15.69-6.6-.81-2.45-2.23-4.65-4.13-6.39Zm-2.58,4.87c-3.31,1.34-6.58,2.79-9.92,4.07.05-1.42.48-2.8,1.24-4,1.47-2.22,4.23-3.2,6.77-2.41,1.04.27,1.9,1.01,2.33,2l-.42.34Z"/><path class="c" d="m237.71,35c-4.6.67-8.27,4.18-9.14,8.75-.14,1.31,0,2.62-.08,3.94,0,2.69,1.08,5.27,3,7.16,3.82,4.2,11,4.46,15.27.86,5.28-4.34,5.48-13.43.37-18-2.55-2.31-6.03-3.32-9.42-2.71Zm8.75,14.38c-.77,2.39-2.65,4.25-5.05,5-1.17.2-2.37.25-3.55.12-1.98-.61-3.64-1.97-4.64-3.78-1.77-3.26-1.31-7.27,1.14-10.05,1.41-1.54,3.43-2.38,5.52-2.27,3.53.26,6.4,2.96,6.87,6.47.18,1.51.09,3.04-.29,4.51Z"/><path class="c" d="m258.27,25.3c-1.21.09-2.42.09-3.63,0-.07,10.73,0,21.45-.06,32.18,1.26-.06,2.52-.06,3.78,0-.11-10.73.07-21.48-.09-32.18Z"/><path class="c" d="m292.86,36.56c-1.1.71-1.61,1.93-2.46,2.85-.06-1.28,0-2.57,0-3.85-1.25.05-2.5.05-3.75,0,.05,7.31.06,14.63,0,21.94h4c0-4.29-.07-8.59,0-12.89.05-3.7,4.36-6.9,7.84-5.28.59-1.25,1.09-2.54,1.51-3.85-2.42-.8-5.07-.39-7.14,1.08Z"/><path class="c" d="m224.28,42.54c-.07-1.96-.81-3.83-2.09-5.31-2.26-2.23-5.59-2.98-8.59-1.94-1.88.67-3.52,1.89-4.72,3.49-.07-4.48,0-9,0-13.44-1.24.04-2.48.04-3.72,0,0,10.72.06,21.44,0,32.16,1.26-.06,2.52-.06,3.78,0-.1-3.67,0-7.35,0-11-.03-2.18.65-4.31,1.94-6.07.99-1.16,2.4-1.87,3.92-1.99,1.52-.12,3.02.38,4.18,1.37,1.16,1.29,1.77,2.98,1.71,4.72v13c1.26-.06,2.51-.06,3.77,0-.23-5.02-.15-10-.18-14.99Z"/><path class="c" d="m281.67,43.34c0-2.44-1.1-4.76-3-6.29-2.59-1.95-5.91-2.66-9.07-1.94-2.81.54-5.18,2.4-6.37,5,1.22.52,2.41,1.27,3.79,1.21,1.58-3.19,6.26-3.67,9-1.62,1.51,1.23,2.26,3.16,1.98,5.08-2.55-1.62-5.64-1.38-8.52-1.25-1.95.27-3.77,1.15-5.19,2.52-1.1.89-1.76,2.22-1.79,3.63.05,1.59-.3,3.35.65,4.75,2.45,4.14,8.71,4.93,12.46,2.17.93-.59,1.38-1.7,2.36-2.2v3.09h3.74c-.1-4.71-.02-9.43-.04-14.15Zm-12.45,11c-1.33-.49-2.8-1.51-2.73-3.09-.15-1.69.78-3.29,2.32-4,2.99-1.39,6.49-1.13,9.24.69-.1,2.12-1.16,4.08-2.88,5.33-1.72,1.25-3.91,1.65-5.95,1.09v-.02Z"/></g></svg>