<svg xmlns="http://www.w3.org/2000/svg" viewBox="0 0 300 120"><defs><style>.a{fill:#fff;}</style></defs><title>scholar_logo_64dp</title><path class="a" d="M114.47,72.19c1.75,0,3.5,0,5.25,0v-34h-5.25Q114.49,55.19,114.47,72.19Z"/><path class="a" d="M176.14,59.84a8.15,8.15,0,0,0-3.45-3.57c-2.88-1.9-6.34-2.53-9.4-4.06-1.55-.83-3.09-2.27-3.08-4.16a5.08,5.08,0,0,1,2.67-3.82c1.47-.95,3.3-.81,5-.68a6.29,6.29,0,0,1,4.58,4,26.71,26.71,0,0,1,3.22-1.35c-.07-.57,0-1.21-.36-1.68a10.07,10.07,0,0,0-6.66-4.62,40.69,40.69,0,0,0-5.18,0c-3.85.79-7.46,4.34-7,8.49a6.32,6.32,0,0,0,2.41,5.45c3.47,3.26,8.73,3.17,12.38,6.13a5.23,5.23,0,0,1,1.53,5.61c-.82,2.58-3.69,3.67-6.15,4a8.49,8.49,0,0,1-7.82-6.44c-1.19.49-2.39,1-3.6,1.42,1,4.6,5.29,7.91,9.82,8.55a12.71,12.71,0,0,0,9.5-2.91A7.34,7.34,0,0,0,176.8,65C176.74,63.3,177.08,61.41,176.14,59.84Z"/><path class="a" d="M106,50.12c0,.65,0,1.29,0,1.94a8.82,8.82,0,0,0-6.58-2.61c-5.59.09-10.39,5-10.91,10.44A11.8,11.8,0,0,0,97,72.57a8.9,8.9,0,0,0,9-2.36c-.08,2.09,0,4.37-1.24,6.17-1.59,2.34-5,2.92-7.47,1.85A7.38,7.38,0,0,1,93.8,74.6q-2.28.89-4.53,1.88A12.17,12.17,0,0,0,92,80.39a11.74,11.74,0,0,0,15.28.46c2.65-2.33,3.65-6,3.6-9.44,0-7.1,0-14.19,0-21.29C109.21,50.13,107.59,50.13,106,50.12ZM104.67,66a6,6,0,0,1-6.87,1.8,7,7,0,0,1-4.19-7.15,6.79,6.79,0,0,1,5.18-6.38,5.85,5.85,0,0,1,5.81,2A8,8,0,0,1,104.67,66Z"/><path class="a" d="M57.41,52.41a12.14,12.14,0,0,0-10.94-2.58,11.57,11.57,0,0,0-7.51,6c-2.62,5.08-1,12,3.85,15.15a11.82,11.82,0,0,0,14.6-18.52ZM51.83,67.79c-3.55,1.59-7.92-1-8.67-4.7-1-3.61,1.11-8.05,5-8.78a6.41,6.41,0,0,1,7.11,3.42C57.1,61.25,55.7,66.32,51.83,67.79Z"/><path class="a" d="M18.63,53.2c0,1.67,0,3.35,0,5q5.82,0,11.64,0a10,10,0,0,1-3.22,6.56c-5.22,4.81-14.39,3.9-18.68-1.72A13.46,13.46,0,0,1,9.68,45a13.12,13.12,0,0,1,17.75.11c1.2-1.19,2.44-2.34,3.56-3.61a17.86,17.86,0,0,0-12-4.94A18.44,18.44,0,0,0,5.38,41.94,17.78,17.78,0,0,0,0,54.77,18,18,0,0,0,7.8,69.55a18.85,18.85,0,0,0,14,3.13A16.15,16.15,0,0,0,32.65,66a18.31,18.31,0,0,0,2.6-12.84Z"/><path class="a" d="M82.75,52.45a12.09,12.09,0,0,0-11-2.63,11.55,11.55,0,0,0-7.34,5.75c-2.63,4.93-1.36,11.71,3.24,15a12,12,0,0,0,15.52-1.12C87.79,65,87.61,56.68,82.75,52.45Zm-5.3,15.21a6.38,6.38,0,0,1-8.27-2.86C67,61,68.91,55.2,73.44,54.31a6.36,6.36,0,0,1,7,3.18C82.37,60.92,81.18,66,77.45,67.66Z"/><path class="a" d="M192,53.44a6.56,6.56,0,0,1,5.55,4c1.21-.33,2.32-.93,3.51-1.35-1.62-4.54-6.86-7.09-11.5-6.09a10.9,10.9,0,0,0-7.84,5.57c-2.5,4.76-1.76,11.32,2.45,14.9A11.38,11.38,0,0,0,196.62,72c2-1.14,4-2.83,4.4-5.14-1.1-.45-2.2-.92-3.29-1.4-1.34,3.83-6.44,5.31-9.77,3.17a8.25,8.25,0,0,1-3.69-8C184.39,56.78,187.91,53,192,53.44Z"/><path class="a" d="M139.93,51.83c-4.06-3.6-10.86-2.94-14.44,1-4.64,4.84-4.12,13.63,1.3,17.69,5.11,4.11,13.65,2.82,17-2.91-1.37-.81-2.66-1.72-4-2.6A7.89,7.89,0,0,1,136,68a6.31,6.31,0,0,1-7.63-3.18c5.22-2.24,10.54-4.23,15.69-6.6A15.06,15.06,0,0,0,139.93,51.83Zm-2.58,4.87c-3.31,1.34-6.58,2.79-9.92,4.07a8,8,0,0,1,1.24-4,6,6,0,0,1,6.77-2.41,3.51,3.51,0,0,1,2.33,2Z"/><path class="a" d="M237.71,50a10.91,10.91,0,0,0-9.14,8.75c-.14,1.31,0,2.62-.08,3.94a10,10,0,0,0,3,7.16c3.82,4.2,11,4.46,15.27.86,5.28-4.34,5.48-13.43.37-18A11.11,11.11,0,0,0,237.71,50Zm8.75,14.38a7.73,7.73,0,0,1-5.05,5,12.79,12.79,0,0,1-3.55.12,8,8,0,0,1-4.64-3.78,8.82,8.82,0,0,1,1.14-10.05,7,7,0,0,1,5.52-2.27,7.49,7.49,0,0,1,6.87,6.47A12.22,12.22,0,0,1,246.46,64.38Z"/><path class="a" d="M258.27,40.3a25.87,25.87,0,0,1-3.63,0c-.07,10.73,0,21.45-.06,32.18q1.89-.09,3.78,0C258.25,61.75,258.43,51,258.27,40.3Z"/><path class="a" d="M292.86,51.56c-1.1.71-1.61,1.93-2.46,2.85-.06-1.28,0-2.57,0-3.85q-1.87.07-3.75,0c.05,7.31.06,14.63,0,21.94,1.34,0,2.68,0,4,0,0-4.29-.07-8.59,0-12.89.05-3.7,4.36-6.9,7.84-5.28A32,32,0,0,0,300,50.48,8,8,0,0,0,292.86,51.56Z"/><path class="a" d="M224.28,57.54a8.58,8.58,0,0,0-2.09-5.31,8.35,8.35,0,0,0-8.59-1.94,10.17,10.17,0,0,0-4.72,3.49c-.07-4.48,0-9,0-13.44q-1.86.06-3.72,0c0,10.72.06,21.44,0,32.16q1.89-.09,3.78,0c-.1-3.67,0-7.35,0-11a10,10,0,0,1,1.94-6.07,5.74,5.74,0,0,1,8.1-.62,6.73,6.73,0,0,1,1.71,4.72c0,4.33,0,8.66,0,13,1.26-.06,2.51-.06,3.77,0C224.23,67.51,224.31,62.53,224.28,57.54Z"/><path class="a" d="M281.67,58.34a8.06,8.06,0,0,0-3-6.29,11,11,0,0,0-9.07-1.94,8.87,8.87,0,0,0-6.37,5c1.22.52,2.41,1.27,3.79,1.21,1.58-3.19,6.26-3.67,9-1.62A5.53,5.53,0,0,1,278,59.78c-2.55-1.62-5.64-1.38-8.52-1.25a9.35,9.35,0,0,0-5.19,2.52,4.8,4.8,0,0,0-1.79,3.63c.05,1.59-.3,3.35.65,4.75,2.45,4.14,8.71,4.93,12.46,2.17.93-.59,1.38-1.7,2.36-2.2,0,1,0,2.06,0,3.09,1.25,0,2.49,0,3.74,0C281.61,67.78,281.69,63.06,281.67,58.34Zm-12.45,11c-1.33-.49-2.8-1.51-2.73-3.09a4,4,0,0,1,2.32-4,9.5,9.5,0,0,1,9.24.69A7,7,0,0,1,269.22,69.36Z"/></svg>