<svg width="32" height="32" xmlns="http://www.w3.org/2000/svg">
  <path d="m17.59.589.348-.001c.241 0 .483 0 .724.002.369.003.737 0 1.105-.003l.706.002.332-.003c.817.012 1.229.222 1.84.774.354.577.33 1.148.356 1.813l.023.443c.064 1.36.1 2.722.126 4.083.018.912.045 1.822.095 2.733.348 6.455.348 6.455-1.409 8.556-1.042 1.16-2.245 2.151-3.525 3.038a723.823 723.823 0 0 1-.813-.54c-.289-.195-.568-.399-.844-.612l-.3-.23-.31-.239-.661-.506-.337-.258c-.536-.408-1.073-.814-1.613-1.217l-.29-.22-.27-.2-.235-.177c-.221-.154-.221-.154-.57-.123-.244.19-.244.19-.494.45l-.305.304-.332.337-.35.351c-.319.319-.636.638-.953.958-.33.334-.663.667-.995 1-.63.63-1.257 1.262-1.885 1.894a3028.902 3028.902 0 0 1-4.566 4.588 891.786 891.786 0 0 1-1.243 1.25l-.302.304-.264.265c-.2.186-.2.186-.32.186C.05 27.96.04 26.328.036 24.697c-.003-.758-.006-1.515-.011-2.273-.006-.73-.009-1.462-.01-2.193 0-.279-.002-.558-.005-.837-.004-.39-.004-.781-.004-1.172L0 17.872c.004-.676.078-1.078.54-1.61.385-.256.489-.27.932-.274l.35-.005h.38l.39-.003.816-.002c.417 0 .833-.005 1.25-.01h.793c.124-.003.249-.004.377-.006.865.005.865.005 1.332.29.224.25.224.25.344.491l.002-.273c.004-.852.011-1.703.02-2.555.005-.437.01-.875.011-1.313.002-.423.006-.845.012-1.268l.003-.717c.022-1.378.022-1.378.553-1.92.539-.47 1.136-.414 1.816-.411l.355-.002h.744c.378.001.756-.002 1.134-.006h.723l.342-.004c.813.009 1.264.198 1.85.784l.002-.269c.004-.837.011-1.674.02-2.512.005-.43.009-.86.01-1.291.003-.416.007-.831.012-1.247.003-.235.003-.47.004-.705.022-1.357.022-1.357.553-1.9.611-.546 1.14-.552 1.92-.545Z"/>
  <path d="M24.435 14.462H32v7.564a24.358 24.358 0 0 1-1.553-1.426l-.18-.18-.428-.435c-.36.162-.61.34-.888.619l-.236.236-.256.259-.272.273-.89.896-.622.623-1.635 1.643a2697.456 2697.456 0 0 1-3.523 3.54 5064.882 5064.882 0 0 1-.816.82 28.442 28.442 0 0 1-1.67 1.538 282.889 282.889 0 0 1-.84.72l-.195-.15a208.028 208.028 0 0 0-3.83-2.878 67.949 67.949 0 0 1-1.858-1.415 7.002 7.002 0 0 0-1.347 1.37c-1.016 1.369-2.225 2.941-3.99 3.246-1.775.196-3.583.036-5.35-.173.535-.64 1.1-1.239 1.687-1.83a82484.076 82484.076 0 0 1 1.214-1.224 93267.675 93267.675 0 0 0 6.61-6.647l.266-.273.247-.243.213-.215c.21-.135.21-.135.46-.107.29.117.502.273.748.465l.305.236.325.255.68.525.35.27c.524.401 1.056.794 1.59 1.186l.277.205c.53.388 1.063.772 1.598 1.153.525-.2.865-.592 1.252-.984l.23-.23.753-.757.523-.524 1.374-1.38c.467-.47.935-.938 1.403-1.407.917-.92 1.834-1.841 2.75-2.763a2.926 2.926 0 0 0-.657-.917l-.244-.24-.254-.246a217.51 217.51 0 0 1-.5-.49l-.224-.217c-.162-.171-.162-.171-.162-.291Z"/>
  <path d="m17.59.589.348-.001c.241 0 .483 0 .724.002.369.003.737 0 1.105-.003l.706.002.332-.003c.817.012 1.229.222 1.84.774.354.577.33 1.148.356 1.813l.023.443c.064 1.36.1 2.722.126 4.083.018.912.045 1.822.095 2.733.348 6.455.348 6.455-1.409 8.556-1.042 1.16-2.245 2.151-3.525 3.038l-.198-.137a11.08 11.08 0 0 0-1.427-.853c-.617-.33-1.122-.688-1.497-1.291-.352-1.198-.255-2.511-.222-3.747.01-.495.01-.99.011-1.485.004-.83.015-1.66.031-2.49.02-1.065.03-2.129.035-3.193a456.266 456.266 0 0 1 .03-3.342c.005-.56.012-1.119.024-1.678l.007-.507c.015-1.583.015-1.583.565-2.17.611-.545 1.14-.55 1.92-.544ZM1.472 15.988l.35-.005h.38l.39-.003.816-.002c.417 0 .833-.005 1.25-.01h.793c.124-.003.249-.004.377-.006.523.003.862.008 1.325.267.92 1.088.782 3.21.712 4.56-.197 2.304-2.047 3.722-3.685 5.155-.457.405-.9.827-1.343 1.247a94.265 94.265 0 0 1-1.96 1.797l-.21.187c-.472.416-.472.416-.607.416-.011-1.631-.02-3.263-.025-4.894-.003-.758-.006-1.515-.011-2.273a403.54 403.54 0 0 1-.01-2.193c0-.279-.002-.558-.005-.837-.004-.39-.004-.781-.004-1.172L0 17.872c.004-.676.078-1.078.54-1.61.385-.256.489-.27.932-.274Z"/>
</svg>