<?xml version="1.0" encoding="UTF-8" standalone="no"?>
<svg version="1.1" width="32" height="32" id="svg5" xmlns="http://www.w3.org/2000/svg" xmlns:svg="http://www.w3.org/2000/svg">
  <defs id="defs5" />
  <g id="g5" transform="matrix(0.12007609,0,0,0.12007609,-13.989139,-13.876396)">
    <path d="m 0,0 c 0.95390625,-0.0038269 1.9078125,-0.00765381 2.890625,-0.01159668 2.0104274,-0.0027137 4.0208905,0.00460931 6.03125,0.0213623 C 11.990388,0.03118291 15.05656,0.00994534 18.125,-0.015625 20.083338,-0.01298163 22.041675,-0.00785645 24,0 c 1.368984,-0.01214539 1.368984,-0.01214539 2.765625,-0.02453613 6.808802,0.09969849 10.236165,1.85041013 15.332367,6.44886783 2.938555,4.8001113 2.740443,9.5605213 2.959137,15.0969083 0.06162,1.217409 0.123246,2.434818 0.186737,3.689118 0.536425,11.326887 0.833234,22.666428 1.053522,34.003523 0.15046,7.59449 0.371349,15.171168 0.789038,22.75609 2.90331,53.761769 2.90331,53.761769 -11.731934,71.260989 C 26.674768,162.88903 16.654758,171.14383 6,178.53125 4.5546979,177.57212 3.1099744,176.61211 1.6654968,175.65173 0.86090467,175.11722 0.05631252,174.58271 -0.77266121,174.03201 -3.1805791,172.40958 -5.5069919,170.7124 -7.8046875,168.9375 c -0.8219385,-0.63164 -1.6438769,-1.26328 -2.4907225,-1.91406 -0.851265,-0.65742 -1.702529,-1.31485 -2.57959,-1.99219 -1.837782,-1.40724 -3.676342,-2.81347 -5.515625,-4.21875 -0.926191,-0.7077 -1.852383,-1.41539 -2.806641,-2.14453 -4.460152,-3.40028 -8.933761,-6.78127 -13.427734,-10.13672 -0.799058,-0.60521 -1.598115,-1.21043 -2.421387,-1.83398 -0.740083,-0.54979 -1.480166,-1.09957 -2.242675,-1.66602 -0.969939,-0.72703 -0.969939,-0.72703 -1.959473,-1.46875 -1.843575,-1.28494 -1.843575,-1.28494 -4.751465,-1.03125 -2.02783,1.5824 -2.02783,1.5824 -4.112457,3.75842 -0.83568,0.833 -1.67136,1.66601 -2.532364,2.52425 -0.913366,0.92572 -1.826733,1.85145 -2.767777,2.80522 -0.973525,0.97601 -1.947718,1.95135 -2.922531,2.92607 -2.649023,2.65244 -5.288758,5.31396 -7.927101,7.97702 -2.757887,2.78032 -5.524633,5.5518 -8.290596,8.32408 -5.239004,5.25351 -10.470738,10.51419 -15.699566,15.77782 -9.371382,9.43328 -18.754978,18.85441 -28.141268,28.27286 -3.29686,3.30873 -6.59053,6.62061 -9.8816,9.93511 -2.0428,2.05658 -4.08756,4.11122 -6.13277,6.16541 -1.40779,1.41531 -2.81303,2.83317 -4.21821,4.25107 -1.24506,1.2495 -1.24506,1.2495 -2.51527,2.52425 -1.08786,1.09509 -1.08786,1.09509 -2.1977,2.2123 C -145,241.53125 -145,241.53125 -146,241.53125 c -0.0927,-13.58662 -0.16376,-27.17316 -0.20725,-40.76003 -0.0209,-6.30894 -0.0492,-12.61767 -0.0945,-18.92649 -0.0435,-6.08839 -0.0674,-12.17657 -0.0778,-18.26511 -0.007,-2.32284 -0.0218,-4.64567 -0.0434,-6.96842 -0.029,-3.25362 -0.033,-6.50639 -0.0312,-9.76013 -0.0144,-0.96025 -0.0288,-1.92051 -0.0436,-2.90986 0.0348,-5.63585 0.64692,-8.98689 4.49768,-13.40996 3.20426,-2.13617 4.07118,-2.2574 7.75928,-2.29053 1.44698,-0.0191 1.44698,-0.0191 2.92318,-0.0387 1.04065,-0.002 2.0813,-0.004 3.15348,-0.007 1.60725,-0.01 1.60725,-0.01 3.24698,-0.0202 2.26791,-0.0101 4.53586,-0.0148 6.8038,-0.0145 3.46795,-0.004 6.93462,-0.0407 10.40234,-0.0786 2.20312,-0.006 4.40625,-0.01 6.60938,-0.0117 1.0366,-0.0144 2.073193,-0.0287 3.141202,-0.0436 7.205698,0.0457 7.205698,0.0457 11.091706,2.4083 C -85,132.53125 -85,132.53125 -84,134.53125 c 0.0036,-0.75089 0.0073,-1.50178 0.01105,-2.27542 0.03794,-7.09158 0.09485,-14.18271 0.172856,-21.27394 0.03944,-3.64535 0.07164,-7.29046 0.08709,-10.93599 0.01519,-3.521081 0.04968,-7.0415 0.09731,-10.562284 0.02196,-1.990622 0.02416,-3.98143 0.02604,-5.972172 C -83.420269,72.034079 -83.420269,72.034079 -79,67.53125 c 4.487224,-3.916038 9.460665,-3.451277 15.121094,-3.433594 1.466276,-0.0079 1.466276,-0.0079 2.962173,-0.01588 2.063462,-0.0064 4.12696,-0.0051 6.190415,0.0034 3.149672,0.0085 6.297528,-0.02026 9.447021,-0.052 2.008463,-0.0016 4.016929,-10e-4 6.025391,0.002 1.4065,-0.01685 1.4065,-0.01685 2.841415,-0.03404 6.772035,0.07184 10.529096,1.646741 15.412491,6.530136 0.0036,-0.738361 0.0073,-1.476722 0.01105,-2.237457 0.03794,-6.973826 0.09486,-13.94727 0.172856,-20.920756 0.03943,-3.584813 0.07164,-7.169382 0.08709,-10.754385 0.01519,-3.462729 0.04969,-6.924788 0.09731,-10.387218 0.02196,-1.957381 0.02416,-3.914952 0.02604,-5.872456 C -20.420067,9.0575239 -20.420067,9.0575239 -16,4.53125 -10.907797,-0.01157076 -6.5002609,-0.05766916 0,0 Z" fill="#F8BE16" transform="translate(263,120.46875)" id="path2" style="fill:#000000" />
    <path d="m 0,0 c 20.79,0 41.58,0 63,0 0,20.79 0,41.58 0,63 C 58.492107,59.136092 54.20233,55.339266 50.0625,51.125 49.3229,50.378633 49.3229,50.378633 48.568359,49.617187 47.37654,48.413797 46.187913,47.207246 45,46 c -2.995408,1.344811 -5.077691,2.830971 -7.388367,5.154587 -0.650241,0.648937 -1.300482,1.297874 -1.970428,1.966476 -0.702408,0.71117 -1.404816,1.42234 -2.12851,2.15506 -1.122768,1.12474 -1.122768,1.12474 -2.268219,2.272202 -2.476741,2.483238 -4.946431,4.973372 -7.416351,7.463394 -1.723387,1.729659 -3.447292,3.458804 -5.171692,5.187454 -4.545124,4.55844 -9.0846595,9.122402 -13.6226195,13.687973 -7.2479153,7.29098 -14.5024356,14.575372 -21.7603535,21.856394 -2.52821,2.53838 -5.052948,5.08018 -7.577354,7.62235 -1.563622,1.57046 -3.127357,3.1408 -4.691223,4.71101 -0.694311,0.70105 -1.388623,1.4021 -2.103974,2.12439 C -35.564326,124.67676 -40.193939,128.89398 -45,133 c -0.675462,0.58074 -1.350925,1.16148 -2.046856,1.75982 -1.64868,1.41616 -3.300553,2.82859 -4.953144,4.24018 -0.536653,-0.41137 -1.073306,-0.82274 -1.626221,-1.24658 C -64.185867,129.6658 -74.773464,121.62533 -85.516846,113.78271 -90.75503,109.95132 -95.896586,106.00907 -101,102 c -4.34757,3.43895 -7.92697,6.94576 -11.21712,11.40575 -8.45661,11.402 -18.52796,24.49644 -33.22575,27.03614 -14.78082,1.62842 -29.83931,0.3 -44.55713,-1.44189 4.4588,-5.33022 9.15501,-10.31928 14.05322,-15.24609 0.78449,-0.79267 1.56898,-1.58534 2.37725,-2.40203 2.57483,-2.59948 5.15365,-5.19496 7.73359,-7.78938 0.88315,-0.88847 1.76629,-1.77693 2.67619,-2.69232 3.70754,-3.7287 7.41609,-7.45639 11.12856,-11.180178 5.30766,-5.323964 10.6066,-10.656297 15.89399,-16.000397 4.17751,-4.220777 8.36858,-8.42791 12.56458,-12.630309 1.7817,-1.788438 3.55912,-3.581148 5.33222,-5.378113 2.47049,-2.501869 4.95603,-4.987756 7.44597,-7.470246 0.7336,-0.750007 1.4672,-1.500015 2.22303,-2.27275 0.67838,-0.670056 1.35675,-1.340112 2.05568,-2.030472 0.58585,-0.589152 1.17169,-1.178304 1.77528,-1.785309 C -103,51 -103,51 -100.91029,51.233261 c 2.411181,0.967783 4.177536,2.272748 6.226696,3.872208 0.83773,0.647351 1.675459,1.294702 2.538574,1.96167 0.893482,0.699719 1.786963,1.399438 2.70752,2.120361 1.888333,1.459615 3.777678,2.917921 5.667969,4.375 0.958257,0.739922 1.916513,1.479844 2.903808,2.242187 4.372856,3.349866 8.800823,6.622586 13.240723,9.882813 0.765139,0.562917 1.530278,1.125835 2.318604,1.705811 C -60.895668,80.630906 -56.459024,83.829269 -52,87 c 4.367699,-1.674426 7.201223,-4.935159 10.420898,-8.193848 0.634567,-0.634274 1.269133,-1.268548 1.922928,-1.922043 2.093293,-2.094684 4.179415,-4.19636 6.265549,-6.298172 1.451163,-1.454893 2.902768,-2.909345 4.354797,-4.363372 3.818442,-3.826074 7.630839,-7.658117 11.442017,-11.491425 3.890925,-3.911392 7.7875253,-7.817121 11.6836548,-11.723328 C 1.732134,35.34408 9.3680517,27.674031 17,20 15.512586,16.881263 14.008955,14.78107 11.523438,12.363281 10.517969,11.374248 10.517969,11.374248 9.4921875,10.365234 8.7935156,9.687832 8.0948438,9.0104297 7.375,8.3125 5.9848551,6.9566014 4.5967146,5.5986436 3.2109375,4.2382812 2.2874048,3.341698 2.2874048,3.341698 1.3452148,2.427002 0,1 0,1 0,0 Z" fill="#287BE9" transform="translate(320,236)" id="path3" style="fill:#000000" />
    <path d="m 0,0 c 0.95390625,-0.0038269 1.9078125,-0.00765381 2.890625,-0.01159668 2.0104274,-0.0027137 4.0208905,0.00460931 6.03125,0.0213623 C 11.990388,0.03118291 15.05656,0.00994534 18.125,-0.015625 20.083338,-0.01298163 22.041675,-0.00785645 24,0 c 1.368984,-0.01214539 1.368984,-0.01214539 2.765625,-0.02453613 6.808802,0.09969849 10.236165,1.85041013 15.332367,6.44886783 2.938555,4.8001113 2.740443,9.5605213 2.959137,15.0969083 0.06162,1.217409 0.123246,2.434818 0.186737,3.689118 0.536425,11.326887 0.833234,22.666428 1.053522,34.003523 0.15046,7.59449 0.371349,15.171168 0.789038,22.75609 2.90331,53.761769 2.90331,53.761769 -11.731934,71.260989 C 26.674768,162.88903 16.654758,171.14383 6,178.53125 5.4541459,178.15348 4.9082918,177.77572 4.3458967,177.38651 0.47595392,174.75124 -3.314782,172.32151 -7.5343475,170.28465 -12.677193,167.52774 -16.879365,164.55189 -20,159.53125 c -2.936954,-9.97368 -2.128497,-20.91098 -1.855423,-31.20797 0.09215,-4.12215 0.08967,-8.24434 0.09878,-12.36736 0.02844,-6.91333 0.119325,-13.82343 0.254441,-20.735461 0.173049,-8.862982 0.249307,-17.723956 0.292865,-26.588416 0.03755,-7.642385 0.111179,-15.284353 0.19484,-22.926358 0.01749,-1.63557 0.03384,-3.271154 0.04908,-4.906747 0.04375,-4.65831 0.106826,-9.315484 0.201994,-13.973041 0.026,-1.40837 0.04546,-2.816879 0.05781,-4.225435 C -20.580533,9.4209363 -20.580533,9.4209363 -16,4.53125 -10.907797,-0.01157076 -6.5002609,-0.05766916 0,0 Z" fill="#3FAB5B" transform="translate(263,120.46875)" id="path4" style="fill:#000000" />
    <path d="m 0,0 c 0.96465179,-0.0127597 1.9293036,-0.02551941 2.9231873,-0.03866577 1.040646,-0.0022256 2.0812921,-0.0044513 3.1534729,-0.0067444 1.6072544,-0.0099852 1.6072544,-0.0099852 3.2469787,-0.02017212 2.2679171,-0.01013024 4.5358631,-0.0148169 6.8038021,-0.01449584 3.467949,-0.0043689 6.934621,-0.04067429 10.402344,-0.07861329 2.203121,-0.005869 4.406247,-0.009838 6.609375,-0.0117188 1.036598,-0.014371 2.073195,-0.0287421 3.141205,-0.0435486 4.357194,0.0276129 7.178593,0.0672701 11.029205,2.22079462 7.662741,9.0616022 6.516698,26.7413582 5.934571,37.9858402 -1.63862,19.180475 -17.0514,30.993326 -30.685975,42.922607 -3.808702,3.378504 -7.491974,6.888864 -11.19049,10.386963 -5.3799613,5.057053 -10.8014814,10.059904 -16.3220217,14.963384 -0.5761505,0.51376 -1.152301,1.02752 -1.7459106,1.55685 -3.9350227,3.46805 -3.9350227,3.46805 -5.0590207,3.46805 -0.09268,-13.586619 -0.163756,-27.173161 -0.207249,-40.76003 -0.02087,-6.308945 -0.04919,-12.617675 -0.09451,-18.926496 -0.04346,-6.088389 -0.06738,-12.17657 -0.07775,-18.265102 -0.0074,-2.322841 -0.02182,-4.64567 -0.04341,-6.968422 -0.02904,-3.253627 -0.03303,-6.506393 -0.03118,-9.760128 -0.01438,-0.960256 -0.02876,-1.920512 -0.04358,-2.909867 0.03475,-5.635852 0.646917,-8.9868865 4.4976807,-13.4099578 C -4.5550212,0.15435657 -3.6881014,0.03312758 0,0 Z" fill="#E84F42" transform="translate(128.75928,248.70947)" id="path5" style="fill:#000000" />
  </g>
</svg>
