<?xml version="1.0" encoding="UTF-8" standalone="no"?>
<!-- Generator: Adobe Illustrator 26.0.3, SVG Export Plug-In . SVG Version: 6.00 Build 0)  -->

<svg version="1.0" id="katman_1" x="0px" y="0px" viewBox="0 0 345.69198 80" xml:space="preserve" xmlns="http://www.w3.org/2000/svg" xmlns:svg="http://www.w3.org/2000/svg"><defs id="defs7" />
<g id="g8" transform="matrix(0.76923077,0,0,0.76923077,-58.000161,-131.30769)"><g id="g7" style="fill:#000000">
	<path class="st0" d="m 106.4,214.2 v 8.3 h 19.9 c -0.6,4.7 -2.2,8.1 -4.5,10.5 -2.9,2.9 -7.5,6.1 -15.4,6.1 -12.3,0 -21.9,-9.9 -21.9,-22.2 0,-12.3 9.6,-22.2 21.9,-22.2 6.6,0 11.5,2.6 15,6 l 5.9,-5.9 c -5,-4.8 -11.6,-8.5 -20.9,-8.5 -16.8,0 -31,13.7 -31,30.5 0,16.8 14.1,30.5 31,30.5 9.1,0 15.9,-3 21.3,-8.5 5.5,-5.5 7.2,-13.3 7.2,-19.5 0,-1.9 -0.1,-3.7 -0.4,-5.2 -0.1,0.1 -28.1,0.1 -28.1,0.1 z" id="path1" style="fill:#000000" />
	<path class="st1" d="m 159.8,207.4 c -10.9,0 -19.8,8.3 -19.8,19.7 0,11.3 8.9,19.7 19.8,19.7 10.9,0 19.8,-8.3 19.8,-19.7 0,-11.5 -8.9,-19.7 -19.8,-19.7 z m 0,31.6 c -6,0 -11.1,-4.9 -11.1,-11.9 0,-7.1 5.2,-11.9 11.1,-11.9 5.9,0 11.1,4.9 11.1,11.9 0,7 -5.1,11.9 -11.1,11.9 z" id="path2" style="fill:#000000" />
	<path class="st0" d="m 256.8,211.8 h -0.3 c -1.9,-2.3 -5.7,-4.4 -10.4,-4.4 -9.8,0 -18.4,8.6 -18.4,19.7 0,11.1 8.6,19.7 18.4,19.7 4.7,0 8.4,-2.1 10.4,-4.5 h 0.3 v 2.7 c 0,7.5 -4,11.6 -10.5,11.6 -5.3,0 -8.6,-3.8 -9.9,-7 l -7.5,3.1 c 2.2,5.2 7.9,11.6 17.5,11.6 10.1,0 18.7,-6 18.7,-20.5 v -35.4 h -8.2 v 3.4 z m -10,27.2 c -6,0 -10.5,-5.1 -10.5,-11.9 0,-7 4.5,-11.9 10.5,-11.9 5.9,0 10.5,5.1 10.5,12 0.1,6.8 -4.6,11.8 -10.5,11.8 z" id="path3" style="fill:#000000" />
	<path class="st2" d="m 203.9,207.4 c -10.9,0 -19.8,8.3 -19.8,19.7 0,11.3 8.9,19.7 19.8,19.7 10.9,0 19.8,-8.3 19.8,-19.7 0,-11.5 -8.9,-19.7 -19.8,-19.7 z m 0,31.6 c -6,0 -11.1,-4.9 -11.1,-11.9 0,-7.1 5.2,-11.9 11.1,-11.9 6,0 11.1,4.9 11.1,11.9 0,7 -5.1,11.9 -11.1,11.9 z" id="path4" style="fill:#000000" />
	<path class="st3" d="m 271.8,187.2 h 8.5 v 59.6 h -8.5 z" id="path5" style="fill:#000000" />
	<path class="st1" d="m 306.6,239 c -4.4,0 -7.5,-2 -9.6,-6 l 26.4,-10.9 -0.9,-2.2 c -1.6,-4.4 -6.7,-12.6 -16.9,-12.6 -10.1,0 -18.6,8 -18.6,19.7 0,11.1 8.3,19.7 19.5,19.7 9,0 14.2,-5.5 16.4,-8.7 l -6.7,-4.5 c -2.2,3.4 -5.2,5.5 -9.6,5.5 z m -0.7,-24.2 c 3.5,0 6.5,1.8 7.5,4.3 l -17.8,7.4 c 0,-8.3 5.9,-11.7 10.3,-11.7 z" id="path6" style="fill:#000000" />
	<path class="st4" d="m 347.9,247.2 v -54 h 8.4 l 26.3,42 h 0.3 l -0.3,-10.4 v -31.6 h 6.9 v 54 h -7.2 l -27.5,-44.1 h -0.3 l 0.3,10.4 v 33.6 h -6.9 z m 68.1,1.3 c -5.6,0 -10.1,-1.9 -13.6,-5.6 -3.5,-3.7 -5.2,-8.4 -5.2,-14.1 0,-5.4 1.7,-10 5.1,-13.9 3.4,-3.9 7.7,-5.8 13,-5.8 5.5,0 9.9,1.8 13.2,5.4 3.3,3.6 4.9,8.4 4.9,14.3 l -0.1,1.3 h -29.2 c 0.2,3.7 1.4,6.7 3.7,8.8 2.3,2.2 5,3.2 8,3.2 5,0 8.3,-2.1 10.1,-6.3 l 6.2,2.6 c -1.2,2.9 -3.2,5.3 -6,7.2 -2.7,1.9 -6.1,2.9 -10.1,2.9 z m 10,-24.2 c -0.2,-2.1 -1.1,-4.1 -2.9,-6 -1.8,-1.9 -4.4,-2.9 -8,-2.9 -2.6,0 -4.8,0.8 -6.7,2.4 -1.9,1.6 -3.2,3.8 -3.9,6.5 z m 54.1,22.9 H 473 l -9.2,-28.4 -9.1,28.4 h -7 l -11.9,-37 h 7.2 l 8.2,27.9 h 0.1 l 9.1,-27.9 h 7.2 l 9.1,27.9 h 0.1 l 8.1,-27.9 h 7.1 z m 30.2,1.3 c -4.1,0 -7.5,-1 -10.2,-3 -2.6,-1.9 -4.7,-4.5 -5.9,-7.5 l 6.2,-2.6 c 2,4.6 5.3,6.9 10,6.9 2.2,0 3.9,-0.5 5.3,-1.4 1.4,-1 2.1,-2.2 2.1,-3.8 0,-2.4 -1.7,-4 -5.1,-4.9 l -7.5,-1.8 c -2.4,-0.6 -4.6,-1.7 -6.7,-3.4 -2.1,-1.7 -3.2,-4 -3.2,-6.8 0,-3.3 1.4,-5.9 4.3,-8 2.9,-2 6.3,-3.1 10.3,-3.1 3.3,0 6.2,0.7 8.8,2.2 2.5,1.4 4.5,3.7 5.5,6.4 l -6,2.5 c -1.4,-3.3 -4.2,-4.9 -8.5,-4.9 -2.1,0 -3.8,0.4 -5.2,1.3 -1.4,0.9 -2.1,2 -2.1,3.5 0,2.1 1.6,3.5 4.9,4.3 l 7.3,1.7 c 3.5,0.8 6,2.2 7.7,4.1 1.7,2 2.5,4.2 2.5,6.6 0,3.3 -1.4,6.1 -4.1,8.3 -2.6,2.3 -6.1,3.4 -10.4,3.4 z" id="path7" style="fill:#000000" />
</g></g>
</svg>
