<?xml version="1.0" encoding="UTF-8" standalone="no"?>
<svg id="a" viewBox="0 0 32 32" version="1.1" sodipodi:docname="google-play.svg" width="32" height="32" inkscape:version="1.4-beta2 (9aaf4f34, 2024-07-30)" xmlns:inkscape="http://www.inkscape.org/namespaces/inkscape" xmlns:sodipodi="http://sodipodi.sourceforge.net/DTD/sodipodi-0.dtd" xmlns="http://www.w3.org/2000/svg" xmlns:svg="http://www.w3.org/2000/svg">
  <defs id="defs8" />
  <sodipodi:namedview id="namedview8" pagecolor="#ffffff" bordercolor="#000000" borderopacity="0.25" inkscape:showpageshadow="2" inkscape:pageopacity="0.0" inkscape:pagecheckerboard="0" inkscape:deskcolor="#d1d1d1" inkscape:zoom="0.66376888" inkscape:cx="113.74441" inkscape:cy="-3.7663712" inkscape:window-width="1440" inkscape:window-height="790" inkscape:window-x="0" inkscape:window-y="0" inkscape:window-maximized="1" inkscape:current-layer="a" />
  <path d="M 28.36446,12.170315 7.9936485,0.57972516 c -1.3790009,-0.779688 -3.0198375,-0.77387 -4.3930198,0.023274 C 2.2274463,1.4059622 1.407028,2.8256932 1.407028,4.4141622 V 27.589524 c 0,1.582651 0.8204183,3.0082 2.1936007,3.805344 C 4.2930384,31.79635 5.0494524,32 5.811685,32 6.5739176,32 7.3070574,31.807987 7.98783,31.418143 l 20.37663,-11.584772 0.605131,-0.343296 v -0.06982 c 1.024068,-0.832055 1.623381,-2.059773 1.623381,-3.4155 0,-1.605925 -0.832055,-3.037293 -2.228512,-3.828618 v 0 z M 4.8108911,2.6802282 c 0.3142027,-0.180375 0.6574983,-0.279291 1.0124311,-0.279291 0.3549327,0 0.6807726,0.0931 0.9891568,0.267654 L 19.718066,10.005807 15.627612,14.171903 4.554874,2.8547852 c 0.08146,-0.064 0.16292,-0.12219 0.2560171,-0.174557 z M 3.8159157,5.5313272 13.940226,15.888381 3.8100972,26.193067 v -20.6617398 0 z M 6.812479,29.329276 C 6.1840735,29.684209 5.433478,29.67839 4.8108911,29.317639 4.6596083,29.23036 4.5315998,29.125626 4.4094098,29.015073 L 15.615974,17.604859 19.840256,21.922237 6.812479,29.335095 v 0 z M 27.189109,17.744505 26.583978,18.0878 v 0 l -4.59667,2.618356 c -0.03491,-0.04655 -0.07564,-0.0931 -0.116371,-0.139645 L 17.30336,15.900018 21.876755,11.245163 27.189109,14.265 c 0.634224,0.360751 1.01825,1.012431 1.01825,1.745571 0,0.73314 -0.378207,1.384819 -1.01825,1.745571 z" style="stroke-width:0px" id="path1" />
</svg>
