<?xml version="1.0" encoding="UTF-8"?><svg id="a" xmlns="http://www.w3.org/2000/svg" viewBox="0 0 511.71 80"><defs><style>.c{stroke-width:0px;}</style></defs><g id="b"><path class="c" d="m195.25,60.79h8.95V2.8h-8.95c.02,19.33.02,38.67,0,57.99Z"/><path class="c" d="m300.44,39.72c-1.28-2.59-3.34-4.72-5.88-6.09-4.91-3.24-10.81-4.32-16.03-6.93-2.64-1.42-5.27-3.87-5.25-7.1.38-2.78,2.06-5.2,4.55-6.52,2.51-1.62,5.63-1.38,8.53-1.16,3.6.78,6.55,3.36,7.81,6.82,1.77-.89,3.62-1.65,5.49-2.3-.12-.97,0-2.06-.61-2.87-2.51-4.09-6.64-6.96-11.36-7.88-2.93-.19-5.88-.19-8.84,0-6.57,1.35-12.72,7.4-11.94,14.48-.27,3.6,1.28,7.08,4.11,9.3,5.92,5.56,14.89,5.41,21.12,10.46,2.73,2.37,3.75,6.14,2.61,9.57-1.4,4.4-6.29,6.26-10.49,6.82-6.38-.32-11.8-4.78-13.34-10.98-2.03.84-4.08,1.71-6.14,2.42,1.71,7.85,9.02,13.49,16.75,14.58,5.85.61,11.7-1.18,16.2-4.96,2.42-2.32,3.8-5.53,3.84-8.87-.1-2.9.48-6.12-1.13-8.8h0Z"/><path class="c" d="m180.8,23.14v3.31c-2.95-2.98-7.03-4.61-11.22-4.45-9.53.15-17.72,8.53-18.61,17.81-1.11,9.77,5.01,18.93,14.48,21.63,5.48,1.65,11.39.1,15.35-4.03-.14,3.56,0,7.45-2.12,10.52-2.71,3.99-8.53,4.98-12.74,3.16-2.64-1.3-4.76-3.5-5.95-6.19-2.59,1.01-5.17,2.08-7.73,3.21,1.09,2.51,2.68,4.78,4.66,6.67,7.3,6.65,18.37,6.99,26.06.78,4.52-3.97,6.23-10.23,6.14-16.1V23.14h-8.32Zm-2.27,27.09c-2.81,3.48-7.56,4.72-11.72,3.07-4.79-2.06-7.69-7.01-7.15-12.2.17-5.2,3.79-9.65,8.84-10.88,3.68-.84,7.52.49,9.91,3.41,3.79,4.86,3.84,11.67.12,16.6Z"/><path class="c" d="m97.92,27.05c-5.12-4.43-12.09-6.07-18.66-4.4-5.56,1.4-10.23,5.13-12.81,10.23-4.47,8.66-1.71,20.47,6.57,25.84,8.75,5.97,20.62,4.14,27.19-4.18,6.55-8.32,5.56-20.3-2.29-27.41,0,0,0-.09,0-.09Zm-9.52,26.23c-6.06,2.71-13.51-1.71-14.79-8.02-1.71-6.16,1.89-13.73,8.53-14.98,4.9-1.07,9.91,1.33,12.13,5.83,3.12,6,.73,14.65-5.87,17.16Z"/><path class="c" d="m31.78,28.4v8.53h19.85c-.36,4.28-2.32,8.29-5.49,11.19-8.9,8.2-24.54,6.65-31.86-2.93-7.28-9.3-6.31-22.62,2.23-30.77,8.61-7.81,21.76-7.73,30.28.19,2.05-2.03,4.16-3.99,6.07-6.16C47.33,3.17,40.03.15,32.39.02,23.73-.26,15.32,3.07,9.18,9.19,3.28,14.94-.03,22.84,0,31.08c.03,10.08,5,19.5,13.3,25.21,6.94,4.86,15.52,6.77,23.88,5.34,7.47-1.11,14.16-5.22,18.51-11.39,4.13-6.5,5.71-14.31,4.43-21.9l-28.35.07Z"/><path class="c" d="m141.15,27.12c-5.13-4.5-12.14-6.19-18.76-4.49-5.37,1.36-9.91,4.93-12.52,9.81-4.49,8.41-2.32,19.97,5.53,25.59,8.1,5.95,19.31,5.13,26.47-1.91,7.88-7.59,7.57-21.78-.72-29Zm-9.04,25.94c-5.25,2.37-11.43.22-14.11-4.88-3.72-6.48-.46-16.37,7.27-17.89,4.74-1.07,9.62,1.14,11.94,5.42,3.29,5.85,1.26,14.52-5.1,17.35Z"/><path class="c" d="m327.49,28.81c4.18.32,7.85,2.95,9.47,6.82,2.06-.56,3.96-1.59,5.99-2.3-2.76-7.74-11.7-12.09-19.62-10.39-5.7.92-10.63,4.43-13.37,9.5-4.26,8.12-3,19.31,4.18,25.41,5.92,5.05,14.28,6.07,21.24,2.61,3.41-1.94,6.82-4.83,7.5-8.77-1.88-.77-3.75-1.57-5.61-2.39-2.29,6.53-10.98,9.06-16.66,5.41-4.55-2.95-7.01-8.26-6.29-13.65.2-6.57,6.21-13.01,13.18-12.26h0Z"/><path class="c" d="m238.68,26.06c-6.93-6.14-18.52-5.01-24.63,1.71-7.91,8.26-7.03,23.25,2.22,30.17,8.72,7.01,23.28,4.81,29-4.96-2.34-1.38-4.54-2.93-6.82-4.43-1.57,2.34-3.84,4.11-6.46,5.1-5.08,1.69-10.63-.63-13.01-5.42,8.9-3.82,17.98-7.22,26.76-11.26-1.38-4.18-3.8-7.93-7.04-10.9Zm-4.4,8.31c-5.65,2.29-11.22,4.76-16.92,6.94.09-2.42.82-4.78,2.12-6.82,2.51-3.79,7.22-5.46,11.55-4.11,1.77.46,3.24,1.72,3.97,3.41l-.72.58h0Z"/><path class="c" d="m405.46,22.94c-7.85,1.14-14.11,7.13-15.59,14.92-.24,2.23,0,4.47-.14,6.72,0,4.59,1.84,8.99,5.12,12.21,6.52,7.16,18.76,7.61,26.05,1.47,9.01-7.4,9.35-22.91.63-30.7-4.35-3.94-10.29-5.66-16.07-4.62Zm14.92,24.53c-1.31,4.08-4.52,7.25-8.61,8.53-2,.34-4.04.43-6.06.2-3.38-1.04-6.21-3.36-7.91-6.45-3.02-5.56-2.23-12.4,1.94-17.14,2.41-2.63,5.85-4.06,9.42-3.87,6.02.44,10.92,5.05,11.72,11.04.31,2.58.15,5.19-.49,7.69Z"/><path class="c" d="m440.53,6.39c-2.06.15-4.13.15-6.19,0-.12,18.3,0,36.59-.1,54.89,2.15-.1,4.3-.1,6.45,0-.19-18.3.12-36.64-.15-54.89Z"/><path class="c" d="m499.53,25.6c-1.88,1.21-2.75,3.29-4.2,4.86-.1-2.18,0-4.38,0-6.57-2.13.09-4.26.09-6.4,0,.09,12.47.1,24.95,0,37.42h6.82c0-7.32-.12-14.65,0-21.99.09-6.31,7.44-11.77,13.37-9.01,1.01-2.13,1.86-4.33,2.58-6.57-4.13-1.36-8.65-.67-12.18,1.84Z"/><path class="c" d="m382.55,35.8c-.12-3.34-1.38-6.53-3.56-9.06-3.85-3.8-9.53-5.08-14.65-3.31-3.21,1.14-6,3.22-8.05,5.95-.12-7.64,0-15.35,0-22.92-2.12.07-4.23.07-6.35,0,0,18.28.1,36.57,0,54.85,2.15-.1,4.3-.1,6.45,0-.17-6.26,0-12.54,0-18.76-.05-3.72,1.11-7.35,3.31-10.35,1.69-1.98,4.09-3.19,6.69-3.39,2.59-.2,5.15.65,7.13,2.34,1.98,2.2,3.02,5.08,2.92,8.05v22.17c2.15-.1,4.28-.1,6.43,0-.39-8.56-.26-17.06-.31-25.57h0Z"/><path class="c" d="m480.44,37.17c0-4.16-1.88-8.12-5.12-10.73-4.42-3.33-10.08-4.54-15.47-3.31-4.79.92-8.84,4.09-10.87,8.53,2.08.89,4.11,2.17,6.46,2.06,2.69-5.44,10.68-6.26,15.35-2.76,2.58,2.1,3.85,5.39,3.38,8.66-4.35-2.76-9.62-2.35-14.53-2.13-3.33.46-6.43,1.96-8.85,4.3-1.88,1.52-3,3.79-3.05,6.19.09,2.71-.51,5.71,1.11,8.1,4.18,7.06,14.86,8.41,21.25,3.7,1.59-1.01,2.35-2.9,4.03-3.75v5.27h6.38c-.17-8.03-.03-16.08-.07-24.14h0Zm-21.24,18.76c-2.27-.84-4.78-2.58-4.66-5.27-.26-2.88,1.33-5.61,3.96-6.82,5.1-2.37,11.07-1.93,15.76,1.18-.17,3.62-1.98,6.96-4.91,9.09s-6.67,2.81-10.15,1.86v-.03h0Z"/></g></svg>