<?xml version="1.0" encoding="utf-8"?>
<!-- Generator: Adobe Illustrator 23.0.6, SVG Export Plug-In . SVG Version: 6.00 Build 0)  -->
<svg version="1.1" id="Camada_1" xmlns="http://www.w3.org/2000/svg" xmlns:xlink="http://www.w3.org/1999/xlink" x="0px" y="0px"
	 viewBox="0 0 300 120" style="enable-background:new 0 0 300 120;" xml:space="preserve">
<title>google-maps</title>
<path d="M184.8,74.7V38.4h4.7l12.6,22.1h0.2l12.6-22.1h4.7v36.3h-4.7V53.2l0.2-6.1h-0.2L203.6,67h-2.7l-11.4-19.9h-0.2l0.2,6.1v21.5
	H184.8z"/>
<path d="M233.9,75.5c-2.4,0.1-4.8-0.7-6.6-2.3c-1.8-1.5-2.7-3.7-2.7-6c-0.1-2.5,1.1-4.9,3.1-6.4c2.3-1.6,5-2.4,7.8-2.3
	c2.3-0.1,4.7,0.4,6.7,1.5v-0.7c0.1-1.7-0.6-3.3-1.9-4.4c-1.3-1.1-2.9-1.7-4.6-1.7c-1.3,0-2.6,0.3-3.7,1c-1,0.6-1.8,1.5-2.3,2.6
	l-4.3-1.8c0.7-1.7,1.9-3.1,3.4-4.2c2-1.4,4.3-2,6.7-1.9c2.9-0.1,5.7,0.9,7.9,2.8c2.2,2,3.3,4.9,3.1,7.9v15h-4.5v-3.5h-0.2
	C240.3,74.1,237.2,75.7,233.9,75.5z M234.7,71.3c2,0,3.8-0.8,5.3-2.2c1.5-1.3,2.4-3.1,2.4-5.1c-1.3-1.1-3.3-1.6-5.9-1.6
	c-1.8-0.1-3.6,0.4-5.1,1.5c-1.1,0.8-1.7,2.1-1.7,3.5c0,1.2,0.6,2.3,1.6,2.9C232.1,70.9,233.4,71.3,234.7,71.3z"/>
<path d="M264.9,75.5c-1.8,0-3.5-0.4-5.1-1.2c-1.4-0.7-2.5-1.7-3.4-3h-0.2l0.2,3.4v11h-4.7V49.9h4.5v3.4h0.2c0.8-1.3,2-2.3,3.4-3
	c1.6-0.8,3.3-1.2,5.1-1.2c3.2,0,6.2,1.4,8.3,3.8c2.3,2.6,3.6,5.9,3.5,9.4c0.1,3.5-1.1,6.9-3.5,9.4C271.1,74.2,268.1,75.5,264.9,75.5
	z M264.2,71.3c2.1,0,4.2-0.9,5.6-2.5c1.6-1.8,2.4-4.1,2.3-6.5c0.1-2.4-0.7-4.7-2.3-6.5c-2.8-3.1-7.6-3.3-10.7-0.4
	c-0.2,0.1-0.3,0.3-0.4,0.4c-1.6,1.8-2.4,4.1-2.3,6.5c-0.1,2.4,0.7,4.8,2.3,6.5C260,70.4,262,71.3,264.2,71.3z"/>
<path d="M290.2,75.5c-2.4,0.1-4.9-0.6-6.9-2c-1.8-1.3-3.2-3-4-5.1l4.2-1.7c1.3,3.1,3.6,4.7,6.7,4.7c1.3,0,2.5-0.3,3.6-1
	c0.9-0.5,1.4-1.5,1.4-2.5c0-1.6-1.1-2.7-3.4-3.3l-5-1.2c-1.7-0.4-3.2-1.2-4.5-2.3c-1.4-1.1-2.2-2.8-2.1-4.6c0-2.2,1.1-4.2,2.9-5.3
	c2-1.4,4.4-2.1,6.9-2c2.1,0,4.1,0.5,5.9,1.5c1.7,1,3,2.5,3.7,4.3l-4,1.7c-0.9-2.2-2.8-3.3-5.7-3.3c-1.2,0-2.4,0.3-3.5,0.9
	c-0.9,0.5-1.4,1.4-1.4,2.3c0,1.4,1.1,2.4,3.3,2.9l4.9,1.2c2,0.3,3.8,1.3,5.2,2.8c1.1,1.2,1.6,2.8,1.6,4.5c0,2.2-1,4.3-2.7,5.6
	C295.2,74.9,292.8,75.6,290.2,75.5z"/>
<path d="M41.5,51.9H21.8v5.8h14c-0.7,8.2-7.5,11.7-14,11.7c-8.6-0.2-15.4-7.4-15.2-16c0.2-8.3,6.9-15,15.2-15.2
	c3.9,0,7.7,1.5,10.5,4.2l4.1-4.2c-4-3.8-9.3-5.9-14.8-5.8C9.8,32.4,0.2,41.9,0,53.7c0.1,12,10,21.7,22,21.5c0,0,0,0,0,0
	c11.5,0,19.9-7.9,19.9-19.5C41.9,54.4,41.8,53.1,41.5,51.9L41.5,51.9z"/>
<path d="M57.6,47.6c-7.6,0-13.8,6.2-13.7,13.9c0,7.6,6.2,13.8,13.9,13.7c7.6,0,13.7-6.2,13.7-13.7C71.5,52.3,64.3,47.6,57.6,47.6z
	 M57.7,53.1c4,0,7.8,3.2,7.8,8.4s-3.8,8.4-7.8,8.4c-4.4,0-7.9-3.5-7.9-8.4S53.3,53.1,57.7,53.1z"/>
<path d="M87.8,47.6c-7.6,0-13.8,6.2-13.7,13.9c0,7.6,6.2,13.8,13.9,13.7c7.6,0,13.7-6.2,13.7-13.7C101.7,52.3,94.5,47.6,87.8,47.6z
	 M87.9,53.1c4,0,7.7,3.2,7.7,8.4s-3.8,8.4-7.8,8.4c-4.4,0-7.9-3.5-7.9-8.4S83.4,53.1,87.9,53.1z"/>
<path d="M117.4,47.7c-7.4,0-13.3,6.5-13.3,13.8c-0.1,7.4,5.7,13.5,13.1,13.8c2.9,0.2,5.7-1.1,7.6-3.3v2.7c0,4.8-2.9,7.6-7.3,7.6
	c-3.1,0-5.9-2-7.1-4.9l-5.3,2.2c1.9,4,5.7,8.1,12.4,8.1c7.4,0,13-4.7,13-14.4V48.5h-5.8v2.3C123,48.7,120.2,47.6,117.4,47.7z
	 M118,53.1c3.6,0,7.4,3.1,7.4,8.4s-3.7,8.4-7.4,8.4c-3.9,0-7.6-3.2-7.6-8.3C110.3,56.2,114.1,53.1,118,53.1L118,53.1z"/>
<path d="M156.4,47.6c-7,0-12.9,5.6-12.9,13.8c-0.3,7.4,5.5,13.6,12.8,13.9c0.2,0,0.5,0,0.7,0c4.6,0,8.9-2.3,11.6-6.1l-4.8-3.2
	c-1.4,2.4-4,3.8-6.8,3.8c-2.9,0.1-5.6-1.5-6.8-4.2l18.5-7.6l-1-2.3C166,51,161.5,47.7,156.4,47.6L156.4,47.6z M156.6,52.9
	c2.1-0.1,4.1,1.1,5.1,3L149.4,61C148.8,57,152.6,52.9,156.6,52.9L156.6,52.9z"/>
<path d="M134.7,74.4h6.1V33.8h-6.1V74.4z"/>
</svg>
