<?xml version="1.0" encoding="UTF-8"?><svg id="a" xmlns="http://www.w3.org/2000/svg" viewBox="0 0 274.16 80"><path d="m46.32,33.42L11.31,13.5c-2.37-1.34-5.19-1.33-7.55.04-2.36,1.38-3.77,3.82-3.77,6.55v39.83c0,2.72,1.41,5.17,3.77,6.54,1.19.69,2.49,1.04,3.8,1.04s2.57-.33,3.74-1l35.02-19.91,1.04-.59v-.12c1.76-1.43,2.79-3.54,2.79-5.87,0-2.76-1.43-5.22-3.83-6.58h0ZM5.84,17.11c.54-.31,1.13-.48,1.74-.48s1.17.16,1.7.46l22.18,12.61-7.03,7.16L5.4,17.41c.14-.11.28-.21.44-.3Zm-1.71,4.9l17.4,17.8L4.12,57.52V22.01h0Zm5.15,40.9c-1.08.61-2.37.6-3.44-.02-.26-.15-.48-.33-.69-.52l19.26-19.61,7.26,7.42-22.39,12.74h0Zm35.02-19.91l-1.04.59h0l-7.9,4.5c-.06-.08-.13-.16-.2-.24l-7.85-8.02,7.86-8,9.13,5.19c1.09.62,1.75,1.74,1.75,3s-.65,2.38-1.75,3v-.02Z" style="stroke-width:0px;"/><path d="m244.16,35.37l-.04-.08c-3.34-.19-6.46,1.61-7.97,4.59l3.98,1.7c.8-1.47,2.4-2.33,4.08-2.18,2.35-.24,4.45,1.48,4.69,3.83v.33c-1.43-.77-3.02-1.17-4.63-1.17-4.27,0-8.62,2.35-8.62,6.8,0,4.01,3.48,6.59,7.42,6.59,2.28.15,4.47-.98,5.68-2.92h.17v2.31h4.35v-11.51c0-5.32-3.98-8.27-9.1-8.27h0Zm-.56,16.32c-1.46,0-3.5-.75-3.5-2.55,0-2.31,2.53-3.19,4.74-3.19,1.43-.04,2.83.31,4.08,1.01-.34,2.69-2.61,4.71-5.32,4.74h0Z" style="stroke-width:0px;"/><path d="m193.38,41.84c-1.34-4.15-5.38-6.83-9.73-6.45-5.16.45-8.98,4.99-8.54,10.15v.47c.08,5.45,4.56,9.81,10.01,9.73,3.41,0,6.6-1.69,8.49-4.51l-3.5-2.31c-1.04,1.73-2.9,2.79-4.91,2.82-2.13.08-4.09-1.14-4.96-3.09l13.59-5.62-.46-1.17v-.02Zm-13.98,3.4v-.1c-.14-3.08,2.26-5.69,5.34-5.83,1.59-.11,3.08.74,3.8,2.16l-9.14,3.77Z" style="stroke-width:0px;"/><polygon points="269.16 35.93 264.07 48.9 263.92 48.9 258.6 35.93 253.79 35.93 261.76 54.08 257.21 64.16 261.88 64.16 274.16 35.93 269.16 35.93" style="stroke-width:0px;"/><rect x="167.96" y="25.19" width="4.49" height="29.92" style="stroke-width:0px;"/><path d="m109.44,35.05c-5.57.23-9.9,4.93-9.67,10.5,0,.27,0,.55,0,.83.23,5.57,4.93,9.9,10.5,9.67,5.57-.23,9.9-4.93,9.67-10.5,0-.27,0-.55,0-.83-.23-5.57-4.93-9.9-10.5-9.67Zm6.08,11.57c-.3,3.13-3.07,5.43-6.21,5.13-3.13-.3-5.43-3.07-5.13-6.21-.04-.36-.04-.72,0-1.08.3-3.13,3.07-5.43,6.21-5.13,3.13.3,5.43,3.07,5.13,6.21.04.36.04.72,0,1.08Z" style="stroke-width:0px;"/><path d="m216.52,25.15h-10.83v29.94h4.49v-11.33h6.23c5.25.18,9.63-3.92,9.81-9.17v-.13c-.11-5.25-4.46-9.42-9.71-9.31h0Zm0,14.43h-6.35v-10.19h6.35c2.81,0,5.1,2.28,5.1,5.1s-2.28,5.1-5.1,5.1h0Z" style="stroke-width:0px;"/><path d="m82.51,38.54v4.19h10.38c-.15,2.03-.98,3.95-2.36,5.44-2.1,2.15-5.02,3.3-8.01,3.18-6.35,0-11.51-5.15-11.51-11.51s5.15-11.51,11.51-11.51c2.92-.02,5.73,1.11,7.81,3.16l3.07-3.04c-2.9-2.86-6.82-4.43-10.89-4.37-8.8-.03-15.98,7.02-16.12,15.82.14,8.8,7.33,15.85,16.12,15.82,4.14.21,8.16-1.35,11.08-4.3,2.55-2.77,3.9-6.43,3.76-10.19,0-.9-.06-1.81-.22-2.71h-14.61Z" style="stroke-width:0px;"/><path d="m132.46,35.47c-5.57,0-10.07,4.51-10.07,10.07s4.51,10.07,10.07,10.07,10.07-4.51,10.07-10.07-4.51-10.07-10.07-10.07Zm5.68,11.15c-.3,3.13-3.07,5.43-6.21,5.13s-5.43-3.07-5.13-6.21c-.04-.36-.04-.72,0-1.08.3-3.13,3.07-5.43,6.21-5.13,3.13.3,5.43,3.07,5.13,6.21.04.36.04.72,0,1.08Z" style="stroke-width:0px;"/><rect x="228.7" y="25.16" width="4.45" height="29.94" style="stroke-width:0px;"/><path d="m160.26,35.93v1.7h-.17c-1.38-1.49-3.34-2.32-5.36-2.28-5.63,0-10.19,4.56-10.19,10.19s4.56,10.19,10.19,10.19c2.02.03,3.95-.82,5.3-2.33h.17v1.46c0,3.89-2.07,5.98-5.47,5.98-2.28-.07-4.28-1.5-5.1-3.62l-3.86,1.7c1.54,3.64,5.13,5.98,9.07,5.95,5.26,0,9.73-3.09,9.73-10.6v-18.35h-4.31Zm-5.1,15.8h-.13c-3.24-.16-5.73-2.9-5.58-6.13v-.11c-.11-3.26,2.45-5.99,5.71-6.1.06,0,.12,0,.18,0,3.17.26,5.53,3.03,5.27,6.21,0,.07,0,.15,0,.23.12,3.14-2.32,5.78-5.46,5.9Z" style="stroke-width:0px;"/></svg>