<?xml version="1.0" encoding="UTF-8" standalone="no"?>
<!DOCTYPE svg PUBLIC "-//W3C//DTD SVG 1.1//EN" "http://www.w3.org/Graphics/SVG/1.1/DTD/svg11.dtd">
<!-- Created with Vectornator (http://vectornator.io/) -->
<svg height="100%" stroke-miterlimit="10" style="fill-rule:nonzero;clip-rule:evenodd;stroke-linecap:round;stroke-linejoin:round;" version="1.1" viewBox="0 0 250 80" width="100%" xml:space="preserve" xmlns="http://www.w3.org/2000/svg" xmlns:xlink="http://www.w3.org/1999/xlink">
<defs/>
<path d="M0 0L250 0L250 80L0 80L0 0Z" fill="#000000" fill-opacity="0" fill-rule="nonzero" opacity="1" stroke="none"/>
<clipPath id="ArtboardFrame">
<rect height="80" width="250" x="0" y="0"/>
</clipPath>
<g clip-path="url(#ArtboardFrame)" id="Sem-Título">
<g opacity="1">
<path d="M95.3918 50.1567C96.8501 50.1567 98.3084 50.1567 99.7668 50.1567L99.7668 21.8234L95.3918 21.8234C95.4029 31.2678 95.4029 40.7123 95.3918 50.1567Z" fill="#000000" fill-rule="nonzero" opacity="1" stroke="none"/>
<path d="M146.783 39.865C146.158 38.5985 145.153 37.5586 143.908 36.8901C141.508 35.3067 138.625 34.7817 136.075 33.5067C134.783 32.8151 133.5 31.6151 133.508 30.0401C133.691 28.6813 134.52 27.4949 135.733 26.8567C136.958 26.0651 138.483 26.1817 139.9 26.2901C141.661 26.6715 143.102 27.9303 143.717 29.6234C144.586 29.1903 145.482 28.8145 146.4 28.4984C146.342 28.0234 146.4 27.4901 146.1 27.0984C144.871 25.0943 142.858 23.6976 140.55 23.2484C139.113 23.1567 137.671 23.1567 136.233 23.2484C133.025 23.9067 130.017 26.8651 130.4 30.3234C130.269 32.0777 131.022 33.7816 132.408 34.8651C135.3 37.5817 139.683 37.5067 142.725 39.9734C144.057 41.1301 144.56 42.9756 144 44.6484C143.317 46.7984 140.925 47.7067 138.875 47.9817C135.757 47.8267 133.108 45.6459 132.358 42.615C131.367 43.0234 130.367 43.4484 129.358 43.7984C130.192 47.6317 133.767 50.39 137.542 50.9234C140.4 51.2227 143.258 50.3474 145.458 48.4984C146.638 47.3631 147.314 45.8022 147.333 44.165C147.283 42.7484 147.567 41.1734 146.783 39.865Z" fill="#000000" fill-rule="nonzero" opacity="1" stroke="none"/>
<path d="M88.3334 31.7651C88.3334 32.3067 88.3334 32.8401 88.3334 33.3817C86.8896 31.9229 84.9014 31.1343 82.8501 31.2067C78.1918 31.2817 74.1918 35.3734 73.7585 39.9067C73.2156 44.6851 76.2085 49.1551 80.8335 50.4734C83.5044 51.2808 86.4024 50.5209 88.3334 48.5067C88.2668 50.2484 88.3334 52.1484 87.3001 53.6484C85.9751 55.5984 83.1335 56.0817 81.0751 55.19C79.781 54.5539 78.7516 53.4832 78.1668 52.165C76.9001 52.6595 75.6418 53.1817 74.3918 53.7317C74.9278 54.9572 75.701 56.0646 76.6668 56.99C80.2352 60.2423 85.6425 60.4051 89.4001 57.3734C91.6084 55.4317 92.4418 52.3734 92.4001 49.5067C92.4001 43.59 92.4001 37.6817 92.4001 31.7651C91.0084 31.7734 89.6584 31.7734 88.3334 31.7651ZM87.2251 44.9984C85.8494 46.6954 83.5312 47.3027 81.5001 46.4984C79.1593 45.4886 77.7453 43.0758 78.0085 40.54C78.0898 37.9994 79.8553 35.8248 82.3251 35.2234C84.1243 34.8184 85.9981 35.4634 87.1668 36.8901C89.0166 39.269 89.0405 42.5931 87.2251 44.9984Z" fill="#000000" fill-rule="nonzero" opacity="1" stroke="none"/>
<path d="M47.8418 33.6734C45.3377 31.5083 41.9328 30.7054 38.7252 31.5234C36.0127 32.2036 33.7291 34.028 32.4668 36.5234C30.2835 40.7567 31.6335 46.5234 35.6752 49.1484C39.9515 52.0616 45.7529 51.1695 48.9563 47.106C52.1597 43.0425 51.6729 37.1931 47.8418 33.7151L47.8418 33.6734ZM43.1918 46.49C40.2335 47.815 36.5918 45.6567 35.9668 42.5734C35.1335 39.565 36.8918 35.8651 40.1335 35.2567C42.5285 34.7348 44.9713 35.9098 46.0585 38.1067C47.5835 41.04 46.4168 45.265 43.1918 46.49Z" fill="#000000" fill-rule="nonzero" opacity="1" stroke="none"/>
<path d="M15.5252 34.3317C15.5252 35.7234 15.5252 37.1234 15.5252 38.4984C18.7585 38.4984 21.9918 38.4984 25.2252 38.4984C25.0524 40.5939 24.0939 42.5466 22.5418 43.965C18.1918 47.9734 10.5502 47.215 6.97517 42.5317C3.41621 37.9863 3.88854 31.4819 8.06684 27.4984C12.273 23.6828 18.7 23.7227 22.8585 27.5901C23.8585 26.5984 24.8918 25.6401 25.8252 24.5817C23.1259 22.0042 19.5568 20.5349 15.8252 20.4651C11.588 20.3311 7.4838 21.9535 4.48351 24.9484C1.5989 27.7554-0.019607 31.6152 0.000179307 35.6401C0.0141562 40.5636 2.44343 45.1667 6.50017 47.9567C9.8933 50.3298 14.0862 51.2672 18.1668 50.565C21.8163 50.027 25.0849 48.0147 27.2085 44.9984C29.2256 41.821 29.9973 38.0102 29.3752 34.2984L15.5252 34.3317Z" fill="#000000" fill-rule="nonzero" opacity="1" stroke="none"/>
<path d="M68.9585 33.7067C66.4541 31.5039 63.0218 30.6833 59.7918 31.5151C57.1702 32.1818 54.9501 33.9209 53.6751 36.3067C51.4835 40.415 52.5418 46.065 56.3751 48.8067C60.3311 51.7116 65.8105 51.3162 69.3085 47.8734C73.1585 44.165 73.0085 37.2317 68.9585 33.7067ZM64.5418 46.3817C61.9758 47.536 58.9548 46.4912 57.6501 43.9984C55.8335 40.8317 57.4251 35.9984 61.2001 35.2567C63.5189 34.7318 65.9034 35.815 67.0335 37.9067C68.6418 40.765 67.6501 44.9984 64.5418 46.3817Z" fill="#000000" fill-rule="nonzero" opacity="1" stroke="none"/>
<path d="M160 34.5317C162.045 34.6874 163.831 35.9744 164.625 37.8651C165.633 37.5901 166.558 37.0901 167.55 36.7401C166.2 32.9567 161.833 30.8317 157.967 31.6651C155.187 32.116 152.774 33.8305 151.433 36.3067C149.35 40.2734 149.967 45.74 153.475 48.7234C156.366 51.188 160.449 51.6898 163.85 49.9984C165.517 49.0484 167.183 47.64 167.517 45.715C166.6 45.34 165.683 44.9484 164.775 44.5484C163.658 47.74 159.408 48.9734 156.633 47.19C154.408 45.7469 153.212 43.1527 153.558 40.5234C153.658 37.3151 156.592 34.1651 160 34.5317Z" fill="#000000" fill-rule="nonzero" opacity="1" stroke="none"/>
<path d="M116.608 33.1901C113.225 30.1901 107.558 30.7401 104.575 34.0234C100.708 38.0567 101.142 45.3817 105.658 48.765C109.917 52.19 117.033 51.115 119.825 46.34C118.683 45.665 117.608 44.9067 116.492 44.1734C115.725 45.3135 114.621 46.1849 113.333 46.665C110.85 47.4861 108.14 46.3569 106.975 44.015C111.325 42.1484 115.758 40.49 120.05 38.5151C119.378 36.4747 118.193 34.6412 116.608 33.1901ZM114.458 37.2484C111.7 38.3651 108.975 39.5734 106.192 40.64C106.234 39.4569 106.591 38.3064 107.225 37.3067C108.452 35.4606 110.749 34.6431 112.867 35.2984C113.736 35.5264 114.451 36.1408 114.808 36.9651L114.458 37.2484Z" fill="#000000" fill-rule="nonzero" opacity="1" stroke="none"/>
<path d="M198.092 31.6651C194.259 32.2248 191.201 35.1517 190.475 38.9567C190.358 40.0484 190.475 41.14 190.408 42.24C190.404 44.4844 191.306 46.6356 192.908 48.2067C196.092 51.7067 202.075 51.9234 205.633 48.9234C210.033 45.3067 210.2 37.7317 205.942 33.9234C203.816 31.9946 200.917 31.1604 198.092 31.6651ZM205.383 43.6484C204.74 45.638 203.171 47.1915 201.175 47.815C200.198 47.9858 199.203 48.0195 198.217 47.915C196.569 47.4049 195.183 46.2758 194.35 44.765C192.876 42.0511 193.255 38.7048 195.3 36.3901C196.474 35.1046 198.161 34.4109 199.9 34.4984C202.843 34.7163 205.231 36.9654 205.625 39.89C205.779 41.147 205.697 42.4215 205.383 43.6484Z" fill="#000000" fill-rule="nonzero" opacity="1" stroke="none"/>
<path d="M215.225 23.5817C214.218 23.6526 213.207 23.6526 212.2 23.5817C212.142 32.5234 212.2 41.4567 212.15 50.3984C213.2 50.3484 214.25 50.3484 215.3 50.3984C215.208 41.4567 215.358 32.4984 215.225 23.5817Z" fill="#000000" fill-rule="nonzero" opacity="1" stroke="none"/>
<path d="M244.05 32.9651C243.133 33.5567 242.708 34.5734 242 35.3401C241.95 34.2734 242 33.1984 242 32.1317C240.961 32.1706 239.919 32.1706 238.875 32.1317C238.917 38.2234 238.925 44.3234 238.875 50.415C239.992 50.415 241.108 50.415 242.208 50.415C242.208 46.84 242.15 43.2567 242.208 39.6734C242.25 36.5901 245.842 33.9234 248.742 35.2734C249.23 34.2322 249.65 33.1605 250 32.0651C247.986 31.4019 245.777 31.7361 244.05 32.9651Z" fill="#000000" fill-rule="nonzero" opacity="1" stroke="none"/>
<path d="M186.9 37.9484C186.841 36.3179 186.227 34.7565 185.158 33.5234C183.273 31.6678 180.499 31.0413 178 31.9067C176.432 32.4685 175.063 33.4801 174.067 34.8151C174.008 31.0817 174.067 27.3151 174.067 23.6151C173.033 23.6484 172 23.6484 170.967 23.6151C170.967 32.5484 171.017 41.4817 170.967 50.415C172.017 50.365 173.067 50.365 174.117 50.415C174.033 47.3567 174.117 44.29 174.117 41.2484C174.09 39.4311 174.657 37.6548 175.733 36.1901C176.559 35.2256 177.735 34.6292 179.001 34.5323C180.267 34.4353 181.52 34.8459 182.483 35.6734C183.448 36.7516 183.958 38.1609 183.908 39.6067C183.908 43.215 183.908 46.8234 183.908 50.44C184.958 50.39 186 50.39 187.05 50.44C186.858 46.2567 186.925 42.1067 186.9 37.9484Z" fill="#000000" fill-rule="nonzero" opacity="1" stroke="none"/>
<path d="M234.725 38.6151C234.729 36.5792 233.81 34.6514 232.225 33.3734C230.067 31.7467 227.301 31.1551 224.667 31.7567C222.329 32.2097 220.354 33.7607 219.358 35.9234C220.375 36.3567 221.367 36.9817 222.517 36.9317C223.833 34.2734 227.733 33.8734 230.017 35.5817C231.272 36.6048 231.899 38.212 231.667 39.815C229.542 38.4651 226.967 38.6651 224.567 38.7734C222.94 39 221.426 39.735 220.242 40.8734C219.323 41.6125 218.777 42.7195 218.75 43.8984C218.792 45.2234 218.5 46.69 219.292 47.8567C221.333 51.3067 226.55 51.965 229.675 49.665C230.45 49.1734 230.825 48.2484 231.642 47.8317C231.642 48.665 231.642 49.5484 231.642 50.4067C232.683 50.4067 233.717 50.4067 234.758 50.4067C234.675 46.4817 234.742 42.5484 234.725 38.6151ZM224.35 47.7817C223.242 47.3734 222.017 46.5234 222.075 45.2067C221.947 43.7979 222.722 42.4617 224.008 41.8734C226.501 40.7155 229.415 40.9332 231.708 42.4484C231.624 44.2149 230.742 45.8478 229.312 46.8878C227.882 47.9278 226.057 48.2628 224.35 47.7984L224.35 47.7817Z" fill="#000000" fill-rule="nonzero" opacity="1" stroke="none"/>
</g>
</g>
</svg>
