<?xml version="1.0" encoding="UTF-8" standalone="no"?>
<!DOCTYPE svg PUBLIC "-//W3C//DTD SVG 1.1//EN" "http://www.w3.org/Graphics/SVG/1.1/DTD/svg11.dtd">
<!-- Created with Vectornator (http://vectornator.io/) -->
<svg height="100%" stroke-miterlimit="10" style="fill-rule:nonzero;clip-rule:evenodd;stroke-linecap:round;stroke-linejoin:round;" version="1.1" viewBox="0 0 80 80" width="100%" xml:space="preserve" xmlns="http://www.w3.org/2000/svg" xmlns:xlink="http://www.w3.org/1999/xlink">
<defs/>
<path d="M0 0L80 0L80 80L0 80L0 0Z" fill="#fab908" fill-opacity="0" fill-rule="nonzero" opacity="1" stroke="none"/>
<g id="Sem-Título">
<g opacity="1">
<g opacity="1">
<path d="M10 37.2727L10 42.7273C10 45.4887 7.76141 47.7273 5 47.7273C2.23859 47.7273 0 45.4887 0 42.7273L0 37.2727C0 34.5112 2.23859 32.2727 5 32.2727C7.76141 32.2727 10 34.5112 10 37.2727Z" fill="#000000" fill-rule="nonzero" opacity="1" stroke="none"/>
<path d="M70.002 37.4148C70.0007 37.3675 70 37.3201 70 37.2727C70 34.5113 72.2386 32.2727 75 32.2727C77.7614 32.2727 80 34.5113 80 37.2727C80 37.3202 79.9994 37.3677 79.998 37.4148L80 37.4148L80 42.8694L79.998 42.8694C79.923 45.565 77.7139 47.7272 75 47.7272C72.2861 47.7272 70.0772 45.565 70.002 42.8694L70 42.8694L70 37.4147L70.002 37.4147L70.002 37.4148Z" fill="#000000" fill-rule="nonzero" opacity="1" stroke="none"/>
<path d="M27.2727 53.6364L27.2727 59.0909C27.2727 61.8523 25.0342 64.0909 22.2727 64.0909C19.5111 64.0909 17.2727 61.8523 17.2727 59.0909L17.2727 53.6363C17.2727 50.875 19.5112 48.6363 22.2727 48.6363C25.0341 48.6363 27.2727 50.875 27.2727 53.6363L27.2727 53.6364ZM27.2727 20.9091L27.2727 38.75L27.2714 38.75C27.2111 41.4589 24.9961 43.6364 22.2727 43.6364C19.5492 43.6364 17.3344 41.4589 17.2741 38.75L17.2727 38.75L17.2727 20.9091C17.2727 18.1477 19.5112 15.9091 22.2727 15.9091C25.0341 15.9091 27.2727 18.1477 27.2727 20.9091Z" fill="#000000" fill-rule="nonzero" opacity="1" stroke="none"/>
<path d="M52.7273 26.3636C52.7273 29.125 54.9658 31.3636 57.7273 31.3636C60.4889 31.3636 62.7273 29.125 62.7273 26.3636L62.7273 20.9091C62.7273 18.1477 60.4887 15.9091 57.7273 15.9091C54.9659 15.9091 52.7273 18.1477 52.7273 20.9091L52.7273 26.3636Z" fill="#000000" fill-rule="nonzero" opacity="1" stroke="none"/>
<path d="M35 10.4547C35 13.2159 37.2386 15.4547 40 15.4547C42.7614 15.4547 45 13.2159 45 10.4547L45 5C45 2.23859 42.7614 0 40 0C37.2386 0 35 2.23859 35 5L35 10.4547ZM35 69.5453C35 66.7841 37.2386 64.5453 40 64.5453C42.7614 64.5453 45 66.7841 45 69.5453L45 75C45 77.7614 42.7614 80 40 80C37.2386 80 35 77.7614 35 75L35 69.5453Z" fill="#000000" fill-rule="nonzero" opacity="1" stroke="none"/>
<path d="M52.7273 41.3636C52.7273 38.6022 54.9658 36.3636 57.7273 36.3636C60.4889 36.3636 62.7273 38.6022 62.7273 41.3636L62.7273 59.0909C62.7273 61.8523 60.4887 64.0909 57.7273 64.0909C54.9659 64.0909 52.7273 61.8523 52.7273 59.0909L52.7273 41.3636Z" fill="#000000" fill-rule="nonzero" opacity="1" stroke="none"/>
<path d="M45 25.4547L45 54.5453C45 57.3069 42.7614 59.5453 40 59.5453C37.2386 59.5453 35 57.3069 35 54.5453L35 25.4547C35 22.6931 37.2386 20.4547 40 20.4547C42.7614 20.4547 45 22.6931 45 25.4547Z" fill="#000000" fill-rule="nonzero" opacity="1" stroke="none"/>
</g>
</g>
</g>
</svg>
