<?xml version="1.0" encoding="UTF-8" standalone="no"?>
<!DOCTYPE svg PUBLIC "-//W3C//DTD SVG 1.1//EN" "http://www.w3.org/Graphics/SVG/1.1/DTD/svg11.dtd">
<!-- Created with Vectornator (http://vectornator.io/) -->
<svg height="100%" stroke-miterlimit="10" style="fill-rule:nonzero;clip-rule:evenodd;stroke-linecap:round;stroke-linejoin:round;" version="1.1" viewBox="0 0 260 80" width="100%" xml:space="preserve" xmlns="http://www.w3.org/2000/svg" xmlns:xlink="http://www.w3.org/1999/xlink">
<defs/>
<path d="M0 0L260 0L260 80L0 80L0 0Z" fill="#000000" fill-opacity="0" fill-rule="nonzero" opacity="1" stroke="none"/>
<g id="Sem-Título">
<g opacity="1">
<path d="M160.16 52.6981L160.16 21.2381L164.233 21.2381L175.153 40.3915L175.327 40.3915L186.247 21.2381L190.32 21.2381L190.32 52.6981L186.247 52.6981L186.247 34.0648L186.42 28.7781L186.247 28.7781L176.453 46.0248L174.113 46.0248L164.233 28.7781L164.06 28.7781L164.233 34.0648L164.233 52.6981L160.16 52.6981Z" fill="#000000" fill-rule="nonzero" opacity="1" stroke="none"/>
<path d="M202.713 53.3915C200.633 53.4781 198.553 52.7848 196.993 51.3981C195.433 50.0981 194.653 48.1915 194.653 46.1981C194.567 44.0315 195.607 41.9515 197.34 40.6515C199.333 39.2648 201.673 38.5715 204.1 38.6581C206.093 38.5715 208.173 39.0048 209.907 39.9581L209.907 39.3515C209.993 37.8781 209.387 36.4915 208.26 35.5381C207.133 34.5848 205.747 34.0648 204.273 34.0648C203.147 34.0648 202.02 34.3248 201.067 34.9315C200.2 35.4515 199.507 36.2315 199.073 37.1848L195.347 35.6248C195.953 34.1515 196.993 32.9381 198.293 31.9848C200.027 30.7715 202.02 30.2515 204.1 30.3381C206.613 30.2515 209.04 31.1181 210.947 32.7648C212.853 34.4981 213.807 37.0115 213.633 39.6115L213.633 52.6115L209.733 52.6115L209.733 49.5781L209.56 49.5781C208.26 52.1781 205.573 53.5648 202.713 53.3915ZM203.407 49.7515C205.14 49.7515 206.7 49.0581 208 47.8448C209.3 46.7181 210.08 45.1581 210.08 43.4248C208.953 42.4715 207.22 42.0381 204.967 42.0381C203.407 41.9515 201.847 42.3848 200.547 43.3381C199.593 44.0315 199.073 45.1581 199.073 46.3715C199.073 47.4115 199.593 48.3648 200.46 48.8848C201.153 49.4048 202.28 49.7515 203.407 49.7515Z" fill="#000000" fill-rule="nonzero" opacity="1" stroke="none"/>
<path d="M229.58 53.3915C228.02 53.3915 226.547 53.0448 225.16 52.3515C223.947 51.7448 222.993 50.8781 222.213 49.7515L222.04 49.7515L222.213 52.6981L222.213 62.2315L218.14 62.2315L218.14 31.2048L222.04 31.2048L222.04 34.1515L222.213 34.1515C222.907 33.0248 223.947 32.1581 225.16 31.5515C226.547 30.8581 228.02 30.5115 229.58 30.5115C232.353 30.5115 234.953 31.7248 236.773 33.8048C238.767 36.0581 239.893 38.9181 239.807 41.9515C239.893 44.9848 238.853 47.9315 236.773 50.0981C234.953 52.2648 232.353 53.3915 229.58 53.3915ZM228.973 49.7515C230.793 49.7515 232.613 48.9715 233.827 47.5848C235.213 46.0248 235.907 44.0315 235.82 41.9515C235.907 39.8715 235.213 37.8781 233.827 36.3181C231.4 33.6315 227.24 33.4581 224.553 35.9715C224.38 36.0581 224.293 36.2315 224.207 36.3181C222.82 37.8781 222.127 39.8715 222.213 41.9515C222.127 44.0315 222.82 46.1115 224.207 47.5848C225.333 48.9715 227.067 49.7515 228.973 49.7515Z" fill="#000000" fill-rule="nonzero" opacity="1" stroke="none"/>
<path d="M251.507 53.3915C249.427 53.4781 247.26 52.8715 245.527 51.6581C243.967 50.5315 242.753 49.0581 242.06 47.2381L245.7 45.7648C246.827 48.4515 248.82 49.8381 251.507 49.8381C252.633 49.8381 253.673 49.5781 254.627 48.9715C255.407 48.5381 255.84 47.6715 255.84 46.8048C255.84 45.4181 254.887 44.4648 252.893 43.9448L248.56 42.9048C247.087 42.5581 245.787 41.8648 244.66 40.9115C243.447 39.9581 242.753 38.4848 242.84 36.9248C242.84 35.0181 243.793 33.2848 245.353 32.3315C247.087 31.1181 249.167 30.5115 251.333 30.5981C253.153 30.5981 254.887 31.0315 256.447 31.8981C257.92 32.7648 259.047 34.0648 259.653 35.6248L256.187 37.0981C255.407 35.1915 253.76 34.2381 251.247 34.2381C250.207 34.2381 249.167 34.4981 248.213 35.0181C247.433 35.4515 247 36.2315 247 37.0115C247 38.2248 247.953 39.0915 249.86 39.5248L254.107 40.5648C255.84 40.8248 257.4 41.6915 258.613 42.9915C259.567 44.0315 260 45.4181 260 46.8915C260 48.7981 259.133 50.6181 257.66 51.7448C255.84 52.8715 253.76 53.4781 251.507 53.3915Z" fill="#000000" fill-rule="nonzero" opacity="1" stroke="none"/>
<path d="M35.9667 32.9381L18.8933 32.9381L18.8933 37.9648L31.0267 37.9648C30.42 45.0715 24.5267 48.1048 18.8933 48.1048C11.44 47.9315 5.54667 41.6915 5.72 34.2381C5.89333 27.0448 11.7 21.2381 18.8933 21.0648C22.2733 21.0648 25.5667 22.3648 27.9933 24.7048L31.5467 21.0648C28.08 17.7715 23.4867 15.9515 18.72 16.0381C8.49333 16.0381 0.173333 24.2715 3.55271e-15 34.4981C0.0866667 44.8981 8.66667 53.3048 19.0667 53.1315L19.0667 53.1315C29.0333 53.1315 36.3133 46.2848 36.3133 36.2315C36.3133 35.1048 36.2267 33.9781 35.9667 32.9381L35.9667 32.9381Z" fill="#000000" fill-rule="nonzero" opacity="1" stroke="none"/>
<path d="M49.92 29.2115C43.3333 29.2115 37.96 34.5848 38.0467 41.2581C38.0467 47.8448 43.42 53.2181 50.0933 53.1315C56.68 53.1315 61.9667 47.7581 61.9667 41.2581C61.9667 33.2848 55.7267 29.2115 49.92 29.2115ZM50.0067 33.9781C53.4733 33.9781 56.7667 36.7515 56.7667 41.2581C56.7667 45.7648 53.4733 48.5381 50.0067 48.5381C46.1933 48.5381 43.16 45.5048 43.16 41.2581C43.16 37.0115 46.1933 33.9781 50.0067 33.9781Z" fill="#000000" fill-rule="nonzero" opacity="1" stroke="none"/>
<path d="M76.0933 29.2115C69.5067 29.2115 64.1333 34.5848 64.22 41.2581C64.22 47.8448 69.5933 53.2181 76.2667 53.1315C82.8533 53.1315 88.14 47.7581 88.14 41.2581C88.14 33.2848 81.9 29.2115 76.0933 29.2115ZM76.18 33.9781C79.6467 33.9781 82.8533 36.7515 82.8533 41.2581C82.8533 45.7648 79.56 48.5381 76.0933 48.5381C72.28 48.5381 69.2467 45.5048 69.2467 41.2581C69.2467 37.0115 72.28 33.9781 76.18 33.9781Z" fill="#000000" fill-rule="nonzero" opacity="1" stroke="none"/>
<path d="M101.747 29.2981C95.3333 29.2981 90.22 34.9315 90.22 41.2581C90.1333 47.6715 95.16 52.9581 101.573 53.2181C104.087 53.3915 106.513 52.2648 108.16 50.3581L108.16 52.6981C108.16 56.8581 105.647 59.2848 101.833 59.2848C99.1467 59.2848 96.72 57.5515 95.68 55.0381L91.0867 56.9448C92.7333 60.4115 96.0267 63.9648 101.833 63.9648C108.247 63.9648 113.1 59.8915 113.1 51.4848L113.1 29.9915L108.073 29.9915L108.073 31.9848C106.6 30.1648 104.173 29.2115 101.747 29.2981ZM102.267 33.9781C105.387 33.9781 108.68 36.6648 108.68 41.2581C108.68 45.8515 105.473 48.5381 102.267 48.5381C98.8867 48.5381 95.68 45.7648 95.68 41.3448C95.5933 36.6648 98.8867 33.9781 102.267 33.9781L102.267 33.9781Z" fill="#000000" fill-rule="nonzero" opacity="1" stroke="none"/>
<path d="M135.547 29.2115C129.48 29.2115 124.367 34.0648 124.367 41.1715C124.107 47.5848 129.133 52.9581 135.46 53.2181C135.633 53.2181 135.893 53.2181 136.067 53.2181C140.053 53.2181 143.78 51.2248 146.12 47.9315L141.96 45.1581C140.747 47.2381 138.493 48.4515 136.067 48.4515C133.553 48.5381 131.213 47.1515 130.173 44.8115L146.207 38.2248L145.34 36.2315C143.867 32.1581 139.967 29.2981 135.547 29.2115L135.547 29.2115ZM135.72 33.8048C137.54 33.7181 139.273 34.7581 140.14 36.4048L129.48 40.8248C128.96 37.3581 132.253 33.8048 135.72 33.8048L135.72 33.8048Z" fill="#000000" fill-rule="nonzero" opacity="1" stroke="none"/>
<path d="M116.74 52.4381L122.027 52.4381L122.027 17.2515L116.74 17.2515L116.74 52.4381Z" fill="#000000" fill-rule="nonzero" opacity="1" stroke="none"/>
</g>
</g>
</svg>
