<?xml version="1.0" encoding="UTF-8"?><svg id="a" xmlns="http://www.w3.org/2000/svg" viewBox="0 0 179.47 80"><defs><style>.cls-1{fill:none;}.cls-1,.cls-2{stroke-width:0px;}</style></defs><rect id="b" class="cls-1" y="10.5" width="179.47" height="65"/><path id="c" class="cls-2" d="m19.65,51.21c4.25,0,7.64-3.58,7.64-8.9.33-4.17-2.78-7.81-6.95-8.14-.23-.02-.45-.02-.69-.02-4.44,0-6.77,3.92-6.77,8.63,0,5.38,3.19,8.43,6.77,8.43h0Zm19.18,5.11c0,14.2-6.9,18.79-20.84,18.79-4.49,0-8.96-.72-13.21-2.19l.59-9.42c3.58,1.94,7.61,2.92,11.68,2.86,6.91,0,10.62-3.25,10.62-10.02v-1.86h-.13c-2.6,3.84-6.99,6.07-11.62,5.91-9.49-.02-15.4-7.18-15.4-17.41s4.84-17.99,15.6-17.99c4.91.04,9.4,2.73,11.75,7.04h.14v-6.23h10.81v30.53h0Z"/><path id="d" class="cls-2" d="m87,60.32h13.29l12.5-34.37h-11.61l-7.05,24.48h-.13l-7-24.48h-12.53l12.52,34.37h0Z"/><path id="e" class="cls-2" d="m66.71,43.15c0-5.14-2.24-9.69-7.72-9.69s-7.71,4.55-7.71,9.69,2.24,9.63,7.71,9.63,7.72-4.55,7.72-9.63Zm-27.69,0c0-11.41,8.64-18,19.98-18s19.98,6.6,19.98,18-8.64,17.93-19.98,17.93-19.98-6.59-19.98-17.93Z"/><path id="f" class="cls-2" d="m114.14,55.46c0,3.11-2.53,5.63-5.64,5.63s-5.63-2.53-5.63-5.64,2.52-5.63,5.63-5.63,5.63,2.52,5.64,5.62h0v.02Z"/><path id="g" class="cls-2" d="m134.34,34.27c-4.36,0-7.26,3.82-7.26,8.97s3.3,8.77,7.26,8.77c4.49,0,7.19-3.76,7.19-9.24,0-4.55-2.57-8.51-7.19-8.51h0Zm-19.13-23.42h11.94v19.52h.13c2.86-3.55,7.26-5.49,11.81-5.21,9.5,0,14.7,9.03,14.7,17.35,0,10.16-5.47,18.6-15.7,18.6-4.95.2-9.55-2.51-11.81-6.92h-.13v6.14h-10.95V10.87h0v-.02Z"/><path id="h" class="cls-2" d="m178.33,35.46c-1.32-.32-2.66-.46-4.02-.39-5.54,0-8.64,4.02-8.64,10.75v14.51h-11.88V25.95h10.82v6.34h.13c1.49-4.31,5.59-7.18,10.16-7.12,1.35.02,2.7.15,4.02.39l-.6,9.9h.01Z"/></svg>