<svg viewBox="0 0 32 32" version="1.1" width="32" height="32" xmlns="http://www.w3.org/2000/svg" xmlns:svg="http://www.w3.org/2000/svg">
  <g transform="matrix(0.28502717,0,0,0.28502717,-0.14821432,-4.4289788)">
    <path d="m 19.65,51.21 c 4.25,0 7.64,-3.58 7.64,-8.9 0.33,-4.17 -2.78,-7.81 -6.95,-8.14 -0.23,-0.02 -0.45,-0.02 -0.69,-0.02 -4.44,0 -6.77,3.92 -6.77,8.63 0,5.38 3.19,8.43 6.77,8.43 z m 19.18,5.11 c 0,14.2 -6.9,18.79 -20.84,18.79 -4.49,0 -8.96,-0.72 -13.21,-2.19 L 5.37,63.5 c 3.58,1.94 7.61,2.92 11.68,2.86 6.91,0 10.62,-3.25 10.62,-10.02 v -1.86 h -0.13 c -2.6,3.84 -6.99,6.07 -11.62,5.91 -9.49,-0.02 -15.4,-7.18 -15.4,-17.41 0,-10.23 4.84,-17.99 15.6,-17.99 4.91,0.04 9.4,2.73 11.75,7.04 h 0.14 V 25.8 h 10.81 v 30.53 0 z" fill="#000" />
    <path d="m 87,60.32 h 13.29 l 12.5,-34.37 H 101.18 L 94.13,50.43 H 94 L 87,25.95 H 74.47 l 12.52,34.37 v 0 z" fill="#000" />
    <path d="m 66.71,43.15 c 0,-5.14 -2.24,-9.69 -7.72,-9.69 -5.48,0 -7.71,4.55 -7.71,9.69 0,5.14 2.24,9.63 7.71,9.63 5.47,0 7.72,-4.55 7.72,-9.63 z m -27.69,0 c 0,-11.41 8.64,-18 19.98,-18 11.34,0 19.98,6.6 19.98,18 0,11.4 -8.64,17.93 -19.98,17.93 -11.34,0 -19.98,-6.59 -19.98,-17.93 z" fill="#000" />
    <path d="m 47.535872,112.69723 c 0,3.11 -2.53,5.63 -5.64,5.63 -3.11,0 -5.63,-2.53 -5.63,-5.64 0,-3.11 2.52,-5.63 5.63,-5.63 3.11,0 5.63,2.52 5.64,5.62 v 0 z" fill="#000" />
    <path d="m 67.735872,91.507232 c -4.36,0 -7.26,3.82 -7.26,8.969998 0,5.15 3.3,8.77 7.26,8.77 4.49,0 7.19,-3.76 7.19,-9.24 0,-4.549998 -2.57,-8.509998 -7.19,-8.509998 v 0 z m -19.13,-23.42 h 11.94 v 19.52 h 0.13 c 2.86,-3.55 7.26,-5.49 11.81,-5.21 9.5,0 14.7,9.03 14.7,17.35 0,10.159998 -5.47,18.599998 -15.7,18.599998 -4.95,0.2 -9.55,-2.51 -11.81,-6.92 h -0.13 v 6.14 h -10.95 v -49.459998 0 -0.02 z" fill="#000" />
    <path d="m 111.72587,92.697232 c -1.32,-0.32 -2.66,-0.46 -4.02,-0.39 -5.54,0 -8.64,4.02 -8.64,10.749998 v 14.51 H 87.185872 V 83.187232 H 98.00587 v 6.34 h 0.13 c 1.49,-4.31 5.59,-7.18 10.16,-7.12 1.35,0.02 2.7,0.15 4.02,0.39 l -0.6,9.9 z" fill="#000" />
  </g>
</svg>
