<svg width="32" height="32" xmlns="http://www.w3.org/2000/svg">
  <g style="fill:#000">
    <path style="fill:#000;stroke-width:1.24216" d="m449.998 124.031-25.17 77.38-81.361.028 65.806 47.84-25.11 77.393 65.835-47.81 65.836 47.81-25.111-77.393 65.808-47.84-81.363-.029zm21.861 81.938L450 236.047h-.002z" transform="translate(1.217 -.051) scale(.03285)"/>
    <path d="M449.998 1.557c-247.67 0-448.445 200.776-448.445 448.445 0 123.429 49.882 235.193 130.566 316.281l11.393-.406C75.6 699.971 28.85 612.422 14.486 514.301l-1.18.808-1.423-13.172-2.313-26.582.274-22.177c-.008-1.064-.08-2.11-.08-3.176 0-243.135 197.099-440.234 440.234-440.234 243.134 0 440.234 197.099 440.234 440.234 0 123.99-51.334 235.928-133.816 315.94l10.877.39.07.492c80.994-81.131 131.08-193.126 131.08-316.824 0-247.668-200.776-448.443-448.445-448.443Z" style="fill:#000;stroke-width:1.24216" transform="translate(1.217 -.051) scale(.03285)"/>
    <path style="fill:#000;stroke-width:1.24216" d="m618.676 245.635-17.026 40.107-43.4-3.777 32.873 28.594-16.994 40.107 37.342-22.436 32.888 28.567-9.79-42.46 37.327-22.45-43.4-3.807zm-.692 7.85 8.541 36.874 37.698 3.293-32.432 19.51v.014l8.512 36.873-28.567-24.817-32.447 19.495 14.775-34.86-28.566-24.816.354.03 37.341 3.233zm-23.92 56.382 19.377-4.484-47.605-20.2.016-.103-.354-.03zm-28.212-24.787-.016.102 47.605 20.2h.016l-10.264-17.068zm52.132-31.596-14.79 34.83 10.263 17.069h.014zm-38.695 91.243 32.447-19.497 1.721-19.816zm0 0 34.168-39.315v-.03h-.016l-19.377 4.485zm38.695-91.243-4.513 51.899 13.054-15.024zm-4.513 51.899v.015l18.32 7.762 32.432-19.508zm0 .015h-.014v.016l-1.72 19.817 28.566 24.818zm0-.015 50.752-11.73-37.698-3.294zm0 .015 26.832 44.65-8.512-36.872v-.014zm0 0 18.32 7.764v-.002zm26.832 44.65-28.567-24.818-32.447 19.497 32.447-19.495zm-26.862-44.665-47.605-20.201v.002zm18.35 7.78 32.432-19.51-32.432 19.507zM494.824 344.756l28.258 33.168 40.285-16.598-22.82 37.121 28.23 33.17-42.343-10.219-22.832 37.11-3.368-43.447-42.341-10.247 40.27-16.613zM405.172 344.756l-3.338 43.445 40.27 16.613-42.342 10.247-3.367 43.447-22.832-37.11-42.344 10.22 28.23-33.17-22.82-37.122 40.285 16.598zM281.32 245.635l-9.82 42.445-43.402 3.807 37.33 22.45-9.791 42.46 32.888-28.567 37.342 22.436-16.994-40.107 32.873-28.594-43.4 3.777zm.692 7.85 14.79 34.83 37.343-3.235.353-.03-28.566 24.817 14.775 34.86-32.447-19.495-28.567 24.817 8.512-36.873v-.016l-32.432-19.508 37.696-3.293zm4.513 51.898-50.752-11.73 32.432 19.507v.002h.002l18.318-7.764zm0 0-13.056-15.024-37.696 3.293zm-4.513-51.899-8.543 36.875 13.056 15.024zm4.513 51.914-18.318 7.764h-.002v.014l-8.512 36.873zm.014.014 34.168 39.315-14.775-34.86-19.377-4.482h-.016zm-.014-.014-26.832 44.65 28.567-24.818-1.72-19.818v-.014zm1.735 19.832v.002l32.447 19.495-34.166-39.313 1.57 18.098zm-.149-1.718-1.57-18.098-.002-.002zm8.692-35.198-10.262 17.069h.014l47.603-20.201-.013-.102zm-14.791-34.83 4.513 51.899h.014l10.262-17.069zm52.133 31.596.015.102h-.002l-47.603 20.2 19.377 4.485 28.566-24.816zm-52.133-31.596 14.789 34.83h.002zm-22.319 96.565 28.567-24.817v-.002zm26.846-44.664h.016l19.377 4.482-19.377-4.484h-.016zm0-.002h.002l10.262-17.069h-.002z" transform="translate(1.217 -.051) scale(.03285)"/>
    <path style="fill:#000" d="M734.494 796.64c-31.322 25.737-66.235 47.229-103.81 63.796l-.153 2.818c9.959-2.38 18.68-5.856 26.106-10.342 18.302-5.496 32.604-14.03 43.814-24.998 14.582-9.296 25.577-20.136 34.043-31.273zm0 0a130.373 130.373 0 0 0 14.14-23.28A440.72 440.72 0 0 1 631.18 851.2l-.496 9.236c37.575-16.567 72.488-38.059 103.81-63.795zm-103.81 63.796a445.302 445.302 0 0 1-10.838 4.626c3.66-.515 7.34-1.008 10.685-1.808zm0 0 .496-9.237c-8.511 3.85-17.14 7.48-25.93 10.793l8.16 3.977c2.258-.199 4.29-.604 6.436-.907a445.302 445.302 0 0 0 10.838-4.626zm-68.46-40.95.413 22.448-.41-22.448zm0 0c-1.637.324-3.254.67-4.874.909l.31 17.013-12.793.988a94.552 94.552 0 0 1-3.154 17.188l11.605 5.467-.125.308 5.512-.601.87-2.166-12.11-5.705c.77-3.28 1.371-6.584 1.818-9.924h.002l13.352-1.03zm.413 22.448v.002l-12.399.953-.953.074a103.379 103.379 0 0 1-1.82 9.924l12.11 5.705h.001l-.869 2.164 35.94-3.934 10.603 5.17c8.79-3.314 17.419-6.943 25.93-10.793l.222-4.152 114.094-81.496 6.47.232c10.064-25.189 9.718-45.832 9.718-45.832l-7.508-20.33c-.134-1.29-1.47-2.027-3.586-3.027-6.863 8.45-15.953 20.61-21.098 27.949-.134-1.29-1.47-2.027-3.586-3.025-.151-.071-4.863 6.096-9.584 12.261-4.724 6.169-9.453 12.338-9.629 12.258-.483-1.44-.778-1.975-2.38-3.351-6.455 6.392-13.912 14.937-19.541 20.62.161-1.289-.973-2.304-2.811-3.753-.164-.034-9.88 6.63-18.252 12.35-.344.61-.627 1.317-1.002 1.753 0 0-4.744 2.017-5.371 4.635l-11.967 6.008c-5.477 3.723-13.727 9.395-13.81 9.33l-2.078 4.52c.159-1.286-2.803-2.305-4.641-3.754-.113-.089-11.47 6.7-26.992 13.488-10.676 4.668-23.307 9.173-35.621 11.603zm82.732-57.635 11.967-6.008c.627-2.618 5.371-4.635 5.371-4.635.375-.436.658-1.143 1.002-1.754-3.18 2.173-3.496 2.339-6.932 4.69-5.668 3.88-6.884 4.631-11.408 7.707zm106.598-18.516-6.47-.232-114.095 81.496-.222 4.152a440.72 440.72 0 0 0 117.455-77.84c1.208-2.56 2.338-5.089 3.332-7.576zm-146.717 96.21c-4.05 1.526-8.145 2.95-12.25 4.36 7.284.334 14.057.174 20.41-.384zm0 0-10.604-5.17-35.939 3.933-.002.002-1.764 4.4 7.81 3.682c8.853-.212 17.736-.913 26.477-2.479.63.036 1.15-.036 1.772-.008 4.105-1.41 8.2-2.834 12.25-4.361zm-83.402 2.798 31.345-3.432.125-.308-11.605-5.467h-.002a94.532 94.532 0 0 0 3.156-17.188l12.793-.99-.31-17.011c-4 .589-7.962 1.007-11.743.97-1.812-.017-3.324-.2-5.09-.25a379.126 379.126 0 0 1-4.644 1.291v-1.521c-4.527-.199-9.25-.3-13.393-.66.417 3.158.705 6.356.705 9.629 0 12.046-2.962 23.381-8.119 33.404 2.215.579 4.509 1.038 6.782 1.533zm0 0c9.146 1.992 18.674 3.277 28.44 3.814l2.22-5.537.685-1.709zm31.345-3.432-.685 1.71 4.431 2.087 1.766-4.398zm3.748 3.8-1.486 3.702c3.095.084 6.184.053 9.297-.021zm-1.486 3.702 1.484-3.705-4.431-2.088-2.22 5.537c1.72.095 3.436.21 5.167.256zm-40.389-5.603c5.157-10.023 8.12-21.358 8.12-33.404 0-3.273-.29-6.47-.706-9.63-11.028-.959-19.95-2.352-27.466-3.716 1.263 4.258 2.15 8.677 2.15 13.346 0 8.982-2.647 17.29-7.006 24.437 7.648 3.593 15.982 6.633 24.908 8.967zm-24.908-8.967c4.359-7.146 7.006-15.455 7.006-24.437 0-4.669-.887-9.088-2.15-13.346-7.491-1.36-13.623-2.676-16.48-3.37 0 0-6.264-.289-8.231 5.774.53 4.877.53 14.732.062 20.578.797 2.522 2.085 4.822 4.99 6.633 4.464 3.022 9.515 5.683 14.803 8.168zm-19.793-14.8c.467-5.847.467-15.702-.062-20.579a12.487 12.487 0 0 0-.63 3.98c0 6.588-.734 12.083.692 16.598zm70.153-18.376c-1.612-.045-3.075-.161-4.645-.23v1.521a379.126 379.126 0 0 0 4.645-1.29zm-392.813-55.388 4.316-.155 114.094 81.496.16 2.983a437.279 437.279 0 0 0 27.123 11.408l9.471-4.615 38.541 4.218-.992-2.47 12.115-5.705a102.17 102.17 0 0 1-1.82-9.924l-13.354-1.027v-.002l.41-22.457c-12.42-2.412-25.186-6.968-35.958-11.678-15.521-6.787-26.877-13.575-26.989-13.487-1.838 1.45-4.802 2.467-4.64 3.754l-2.077-4.515c-.152.117-12.69-8.463-25.22-17.041-12.481-8.544-24.957-17.088-25.184-17.041-1.836 1.45-2.97 2.468-2.81 3.754-5.63-5.683-13.088-14.229-19.541-20.62-1.603 1.377-1.898 1.912-2.381 3.352-.175.08-4.905-6.09-9.63-12.26-4.72-6.165-9.433-12.33-9.583-12.26-2.117 1-3.451 1.735-3.584 3.024-5.148-7.34-14.24-19.497-21.102-27.947-2.115 1-3.448 1.734-3.582 3.025l-7.508 20.33s-.348 20.658 9.725 45.86zm0 0c.936 2.342 2.003 4.724 3.129 7.132a440.78 440.78 0 0 0 115.441 77.192l-.16-2.983-114.094-81.496zm118.57 84.324.496 9.236c4.381 1.964 8.779 3.892 13.233 5.719 1.586.22 3.103.503 4.75.668l8.644-4.213a437.3 437.3 0 0 1-27.123-11.41zm0 0a440.78 440.78 0 0 1-115.441-77.192 130.345 130.345 0 0 0 13.955 23.221c30.794 25.407 65.099 46.669 101.982 63.207zm.496 9.236.174 3.223c4.085 1.074 8.487 1.859 13.059 2.496-4.454-1.827-8.852-3.755-13.233-5.719zm0 0c-36.883-16.538-71.188-37.8-101.982-63.207 8.51 11.306 19.631 22.322 34.422 31.752 11.212 10.967 25.512 19.5 43.814 24.996 6.852 4.139 14.925 7.316 23.92 9.682zm26.627 2.172a436.93 436.93 0 0 0 13.356 4.812c.591-.027 1.084.042 1.682.008 11.911 2.134 24.075 2.829 36.064 2.487l-3.09-7.701-38.54-4.221zm48.012-.397 5.514.604-.248-.615h.002l11.603-5.467a94.532 94.532 0 0 1-3.154-17.188l-12.791-.988v-.002l.312-17.068c-1.624-.233-3.236-.543-4.878-.861l-.41 22.457 13.353 1.029a102.17 102.17 0 0 0 1.82 9.924l-12.115 5.705zm0 0v.002l5.514.604v-.002zm5.514.604.002.002 29.879 3.27c2.71-.574 5.43-1.13 8.058-1.82-5.111-9.99-8.052-21.273-8.052-33.264 0-3.307.296-6.537.72-9.727-4.136.364-8.883.455-13.406.658v1.621a379.089 379.089 0 0 1-4.95-1.377c-1.775.05-3.296.235-5.118.252-3.673.035-7.527-.386-11.409-.943l-.312 17.068 12.793.99a94.445 94.445 0 0 0 3.154 17.188h-.002l-11.603 5.467zm.002.002 2.744 6.842c9.3-.527 18.386-1.72 27.13-3.57zm2.744 6.842-2.746-6.842-5.514-.604 3.09 7.702c1.732-.05 3.448-.159 5.17-.256zm-42.916-2.238c-4.482-1.543-8.94-3.13-13.356-4.811l-8.644 4.213c6.826.683 14.076.964 22 .598zm78.11-3.155c8.919-2.347 17.24-5.407 24.874-9.013-4.29-7.107-6.904-15.344-6.904-24.25 0-4.724.903-9.194 2.195-13.497-7.499 1.372-16.42 2.795-27.498 3.77-.424 3.19-.72 6.42-.72 9.727 0 11.99 2.94 23.275 8.052 33.263zm24.874-9.013c5.201-2.457 10.172-5.087 14.57-8.065 3.271-2.038 4.58-4.66 5.272-7.596-.376-5.894-.369-13.555.07-18.603-1.546-7.141-8.521-6.783-8.521-6.783-2.81.682-8.804 1.967-16.1 3.3-1.292 4.303-2.195 8.773-2.195 13.497 0 8.906 2.614 17.143 6.904 24.25zm19.842-15.66c1.024-4.341.406-9.51.406-15.633a13.65 13.65 0 0 0-.336-2.971c-.439 5.048-.446 12.709-.07 18.603zm-65.455-17.659c-1.67.075-3.232.196-4.95.244a379.089 379.089 0 0 0 4.95 1.377zm-8.998 17.611-12.791-.99v.002zm-4.414 4.567-13.354-1.03v.003zm78.867-4.52c.108 1.686.087 4.74.262 5.317 2.705 8.97 37.608 8.97 40.314 0 .14-.467.112-3.058.21-4.27-1.427-4.515-.692-10.01-.692-16.597 0-1.6.266-2.862.629-3.98-.077-.705-.05-2.648-.147-2.97-2.706-8.967-37.609-8.967-40.314 0-.128.426-.1 2.84-.192 3.897.192.885.336 1.838.336 2.97 0 6.125.618 11.293-.406 15.633zM581.6 570.156l-.756.006H318.8l-.756-.006h-.871v7.084h265.629v-7.084zm0 0H318.045l.756.006h262.043zm-282.346 22.602v-.197h301.369v.199l1.164-.01c.186-.001.374-.059.57-.104 1.287-.285 2.78-.93 4.13-1.64h.001c1.35-.71 2.556-1.486 3.272-2.028l.312-.234.17-2.002-.135-.162-3.01-1.262c-1.069-.449-2.283-.938-3.195-1.389-.911-.45-1.52-.863-1.375-1.158v-.002c.255-.52.82-.944 1.176-1.367.357-.424.506-.846-.07-1.355-.543-.482-1.824-1.865-3.08-3.096-1.131-1.104-2.167-1.92-2.824-2.104-.153-.04-.395-.236-.489-.18-.777.475-.873 2.26-1.06 4.376-.072.813-.102 1.528-.27 2.453l-.002-.002-11.789-4.043H315.877l-11.791 4.045c-.301-1.665-.364-3.208-.486-4.416-.123-1.209-.305-2.084-.842-2.412-.237-.145-.683.056-1.237.453-1.661 1.192-4.294 4.158-5.158 4.924-.576.51-.427.931-.07 1.355.357.424.921.851 1.176 1.371.288.59-2.432 1.649-4.569 2.547l-3.01 1.262-.134.16.168 2.004.312.234h.002c1.433 1.085 4.828 3.097 7.403 3.668.195.045.382.104.568.104zm0 0 1.365.012h298.76l1.244-.01v-.2h-301.37Zm4.834-11.264 11.789-4.043h268.242l11.79 4.043-11.788-4.045H315.875Zm293.152-6.826c.094-.057.336.138.489.18-.071-.02-.244-.227-.303-.227a.37.37 0 0 0-.186.047zm.489.18c.657.183 1.693.999 2.824 2.103-1.152-1.128-2.159-1.923-2.824-2.103zM299.254 592.76v-.002l-1.045-.008c-.186 0-.373-.059-.568-.104-1.288-.285-2.781-.93-4.131-1.64 1.35.71 2.843 1.357 4.13 1.642.194.044.383.102.569.104zm301.369 0 1.164-.008c.186-.001.373-.06.568-.104l.002-.002c-.196.045-.384.103-.57.104zm-310.7-4.016-.167-2.004-.002.002zm18.391 10.344v-2.096h283.559v2.096h8.75v-6.328l-1.244.01h-298.76l-1.365-.01v6.328zm0 0h283.559v-2.096H308.314zm-13.431 32.27h309.775v-7.083h-12.785v1.993H308.314v-1.717h-1.912v-.276h-11.52zm0-7.083h11.52v-.002h-11.52zm11.52-.002v.002h1.911v-.002zm1.911 0v.002h2.844v-.002zm2.844 0v.002h24.158v-.002zm24.158 0v.002h4.754v-.002zm4.756 0v.002h24.157v-.002zm24.157 0v.002h4.755v-.002zm4.755 0v.002h24.159v-.002zm24.159 0v.002h4.755v-.002zm4.755 0v.002h24.157v-.002zm24.157 0v.002h4.757v-.002zm4.757 0v.002h46.374v-.002zm46.374 0v.002h4.753v-.002zm4.753 0v.002h24.159v-.002zm24.16 0v.002h4.755v-.002zm4.755 0v.002h24.158v-.002zm24.16 0v.002h4.754v-.002zm4.754 0v.002h56.105v-.002zm56.105 0v.002h12.785v-.002zm0 .002h-56.105v.276h-4.756v-.276h-24.158v.276H502.098v-.276h-24.159v.276h-4.754v-.276h-46.373v.276h-4.757v-.276h-24.157v.276h-4.755v-.276h-24.159v.276h-4.755v-.276h-24.157v.276H335.316v-.276h-24.158v.276h-2.844v1.717h283.56zm-283.559.276v-.276h-1.912v.276zm0 0h2.844v-.276h-2.844zm27.002-.276v.276h4.754v-.276zm28.913 0v.276h4.755v-.276zm28.914 0v.276h4.755v-.276zm28.912 0v.276h4.757v-.276zm51.13 0v.276h4.754v-.276zm28.915 0v.276h4.754v-.276zm28.914 0v.276h4.754v-.276zm73.644 0v7.082h.002v-7.082zm-194.92 229.829c8.258 13.676 23.118 22.914 40.26 22.914 17.066 0 31.88-9.151 40.16-22.727-5.288-2.485-10.34-5.146-14.803-8.168-2.905-1.811-4.193-4.111-4.99-6.633-.097 1.212-.07 3.803-.209 4.27-2.706 8.97-37.609 8.97-40.314 0-.175-.577-.154-3.63-.262-5.317-.692 2.936-2 5.558-5.271 7.596-4.399 2.978-9.37 5.608-14.57 8.065zm19.912-34.264c.092-1.057.064-3.47.192-3.897 2.705-8.967 37.608-8.967 40.314 0 .097.322.07 2.265.147 2.97 1.967-6.064 8.23-5.774 8.23-5.774 2.858.693 8.99 2.01 16.48 3.369a46.94 46.94 0 0 0-16.421-23.932c-9.438.778-18.955 1.276-28.594 1.276-9.638 0-19.156-.498-28.594-1.276-7.743 5.95-13.497 14.198-16.375 23.781 7.296-1.334 13.29-2.618 16.1-3.3 0 0 6.975-.358 8.521 6.783zm48.942-27.264c-2.714-2.085-5.61-3.91-8.744-5.373-6.573.381-13.182.629-19.85.629-6.668 0-13.277-.248-19.85-.629-3.134 1.463-6.03 3.288-8.744 5.373 9.438.778 18.956 1.276 28.594 1.276 9.639 0 19.156-.498 28.594-1.276zm-8.744-5.373c-6.052-2.823-12.732-4.516-19.85-4.516-7.118 0-13.799 1.693-19.85 4.516.827.048 1.64.146 2.467.188 5.758.291 11.554.44 17.385.44 5.683 0 11.33-.151 16.943-.429.974-.048 1.934-.143 2.905-.199zm-2.905.2c-5.613.277-11.26.427-16.943.427a343.38 343.38 0 0 1-.002.002c5.683 0 11.331-.152 16.945-.43zm10.977 110.093c-9.243.568-18.536.951-27.922.951s-18.679-.383-27.922-.95a72.924 72.924 0 0 0 27.922 5.544 72.924 72.924 0 0 0 27.922-5.545zm0 0c5.897-2.437 11.368-5.66 16.371-9.476a445.35 445.35 0 0 1-44.293 2.216 445.35 445.35 0 0 1-44.291-2.216c5.003 3.815 10.472 7.04 16.37 9.476 9.242.568 18.535.951 27.921.951s18.679-.383 27.922-.95zm-93.057-34.379c.497.97 1.005 1.929 1.543 2.873l2.346.256v.002h.002l1.65 5.988a73.47 73.47 0 0 0 5.248 6.514l.623-.285 52.483 6.56 52.482-6.582 2.393 1.09c.705-.761 1.42-1.512 2.094-2.302l3.033-11.006h.002l5.023-.551c.447-.794.864-1.604 1.282-2.416-8.927-2.334-17.261-5.374-24.909-8.967-8.28 13.576-23.094 22.727-40.16 22.727-17.142 0-32.002-9.238-40.26-22.914-7.634 3.606-15.955 6.666-24.875 9.013zm20.166-46.76c2.878-9.583 8.632-17.83 16.375-23.78a343.885 343.885 0 0 1-31.744-4.11c-6.35 9.241-10.58 20.023-12.129 31.66 11.079-.975 19.999-2.398 27.498-3.77zm89.262 71.663a73.463 73.463 0 0 0 9.342-8.487l-2.393-1.09-52.482 6.582-52.483-6.56-.623.285a73.475 73.475 0 0 0 10.055 9.27 445.35 445.35 0 0 0 44.291 2.216 445.35 445.35 0 0 0 44.293-2.216zm-101.777-8.137-2.108-7.645-.002-.002zm-2.11-7.647-1.652-5.988-2.346-.258a73.162 73.162 0 0 0 3.998 6.246zm-1.652-5.988v-.002l-2.346-.256zm116.975 10.982 3.035-11.005h-.002zm0 0a73.318 73.318 0 0 0 8.058-11.556l-5.023.55zm-10.713-60.722c7.515 1.364 16.438 2.757 27.466 3.717-1.538-11.675-5.773-22.493-12.142-31.76a343.882 343.882 0 0 1-31.746 4.111 46.94 46.94 0 0 1 16.422 23.932zm-16.422-23.932a343.882 343.882 0 0 0 31.746-4.111 73.457 73.457 0 0 0-4.068-5.387c-11.945 2.004-24.088 3.41-36.422 4.125 3.134 1.463 6.03 3.288 8.744 5.373zm-8.744-5.373c12.335-.715 24.477-2.123 36.422-4.127-13.425-16.131-33.644-26.41-56.272-26.41s-42.847 10.278-56.271 26.41c11.944 2.004 24.087 3.412 36.421 4.127 6.051-2.823 12.732-4.515 19.85-4.515 7.118 0 13.798 1.692 19.85 4.515zm-76.123-4.125a73.46 73.46 0 0 0-4.065 5.389 343.885 343.885 0 0 0 31.744 4.11c2.714-2.086 5.61-3.911 8.744-5.374a338.42 338.42 0 0 1-36.423-4.125zm243.87-102.615H631.6v.02h5.996zm0 0v-3.994H631.6v3.994zm-13.033 0h-5.994v.02h5.995zm0 0v-3.994h-5.994v3.994zm-13.03 0h-5.995v.02h5.994zm0 0v-3.994h-5.995v3.994zm-13.036 0h-5.992v.02h5.992zm0 0v-3.994h-5.992v3.994zm-13.031 0h-5.994v.02h5.994zm0 0v-3.994h-5.994v3.994zm-30.627 0h-5.992v.02h5.992zm0 0v-3.994h-5.992v3.994zm-26.057 0h-5.992v.02h5.992zm0 0v-3.994h-5.992v3.994zm-25.744 0h-5.998v.02h5.998zm0 0v-3.994h-5.998v3.994zm-11.994 0h-5.996v.02h5.996zm0 0v-3.994h-5.996v3.994zm-11.994 0h-5.998v.02h5.998zm0 0v-3.994h-5.998v3.994zm-11.996 0h-5.996v.02h5.996zm0 0v-3.994h-5.996v3.994zm-28.112 0h-5.998v.02h5.998zm0 0v-3.994h-5.998v3.994zm-11.996 0h-5.998v.02h5.998zm0 0v-3.994h-5.998v3.994zm-11.994 0h-5.998v.02h5.998zm0 0v-3.994h-5.998v3.994zm-11.996 0h-5.998v.02h5.998zm0 0v-3.994h-5.998v3.994zm-25.748 0h-5.994v.02h5.994zm0 0v-3.994h-5.994v3.994zm-26.057 0h-5.994v.02h5.994zm0 0v-3.994h-5.994v3.994zm-30.625 0h-5.994v.02h5.994zm0 0v-3.994h-5.994v3.994zm-13.033 0h-5.994v.02h5.994zm0 0v-3.994h-5.994v3.994zm-13.033 0h-5.992v.02h5.992zm0 0v-3.994h-5.992v3.994zm-13.031 0h-5.994v.02h5.994zm0 0v-3.994h-5.994v3.994zm-13.033 0h-5.993v.02h5.993zm0 0v-3.994h-5.993v3.994zm305.072 0h-13.363v.017h13.363zm0 0v-10.068c0-2.823-1.688-5.258-4.088-6.3a6.531 6.531 0 0 0-2.602-.538 6.542 6.542 0 0 0-4.718 2.015l-.006.008a6.889 6.889 0 0 0-1.95 4.815v10.068zm-54.752 0h-13.363v.017h13.363zm0 0v-10.068c0-1.882-.75-3.592-1.96-4.83-1.208-1.239-2.877-2.008-4.714-2.008a6.541 6.541 0 0 0-4.72 2.015 6.838 6.838 0 0 0-1.97 4.823v10.068zm-1.96-14.899a6.902 6.902 0 0 1 1.96 4.83v9.903h.002v-9.902a6.901 6.901 0 0 0-1.961-4.83zm-58.009 14.899H441.25v.017h17.496zm0 0v-12.055c0-2.248-.987-4.307-2.574-5.79-1.589-1.485-3.763-2.4-6.174-2.4-4.822 0-8.748 3.676-8.748 8.19v12.055zm-64.101 0h-13.366v.017h13.366zm0 0v-.162l-.165-.131.165.129v-9.904a6.838 6.838 0 0 0-1.971-4.823 6.541 6.541 0 0 0-4.719-2.015c-1.837 0-3.505.77-4.715 2.007a6.9 6.9 0 0 0-1.959 4.83l-.002 9.903v.166zm-54.752 0h-13.364v.017h13.364zm0 0 .002-10.068a6.889 6.889 0 0 0-1.956-4.823 6.542 6.542 0 0 0-4.716-2.015h-.004c-3.69 0-6.69 3.074-6.69 6.838v10.068zm.002 0v-10.068l-.002 10.068zm-13.366 0v-10.068l-.002 10.068zm135.182-60.822v4.476h6.006v-4.476zm-29.43 0v4.476h6.006v-4.476zm-.002 0v4.476h.002v-4.476zm50.506 0v4.476h.002v-4.476zm.002 0v4.476h4.82v-4.476zm4.82 0v4.476h.002v-4.476zm-75.218 0v4.476h4.82v-4.476zm4.82 0v4.476h.002v-4.476zm75.22 0v4.476h4.823v-4.476zm-89.685 0v4.476h4.822v-4.476zm108.947 0v4.476h4.825v-4.476zm9.645 0v4.476h4.824v-4.476zm-147.498 0v4.476h4.822v-4.476zm9.644 0v4.476h4.82v-4.476zm157.116 0v4.476h4.822v-4.476zm9.644 0v4.476h4.822v-4.476zm4.822 0v4.476h.002v-4.476zm-210.132 0v4.476h4.822v-4.476zm9.644 0v4.476h4.82v-4.476zm147.524 4.632h4.754v-19.517l7.16-2.877v-2.617h-19.077v2.617l7.163 2.877zm11.914-25.011v2.617h.002v-2.617zm-120.871 25.011h4.755v-19.517l7.16-2.877v-2.617h-19.076v2.617l7.16 2.877zm-7.16-22.394v-2.617h-.003v2.617zm7.16 2.879v-.002l-5.108-2.053zm11.916-2.88-7.16 2.878v.002zm68.127 22.395h4.753v-19.517l7.163-2.877v-2.617h-19.079v2.617l7.163 2.877zm11.916-22.394-7.163 2.877v.002zm-63.047 22.394h4.758v-19.515l7.16-2.88v-2.616h-19.076v2.617l7.158 2.879zm108.957 0h.002v-19.515h-.002zm.002 0h4.754v-19.517l7.158-2.877v-2.617h-19.074v2.617l7.16 2.877v.002h.002zm11.912-25.011v2.617h.002v-2.617zm-2.053 3.441-5.105 2.053v.002zm-176.644 21.57h4.755v-19.517l7.16-2.877v-2.617h-19.076v2.617l7.16 2.877zm11.916-25.011v2.617h.002v-2.617zm-40.828 25.011h4.753v-19.515h.002v-.002l7.16-2.877v-2.617h-19.078v2.617l7.162 2.877zm4.753 0h.002v-19.515h-.002zm-4.753-19.515v-.002l-7.163-2.877zm-28.915 19.515h1.913v-24.916l-1.913.018zm1.913 0h2.843v-19.517l7.16-2.877v-2.617l-10.003.095zm2.843 0h24.159v-19.515l-7.163-2.88v-2.616h19.079v2.617l-7.16 2.877v19.517h24.156v-19.515l-7.16-2.88v-2.616h19.078v2.617l-7.162 2.879v19.515h24.158v-19.515l-5.108-2.055-2.052-.824h-.002v-2.617h19.078v2.617l-7.16 2.879v19.515h24.156v-19.515l-7.158-2.88v-2.616h19.076v2.617l-7.16 2.879v19.515h46.373v-19.515l-7.162-2.88v-2.616h19.078v2.617l-7.162 2.879v19.515h24.158v-19.515l-7.16-2.88v-2.616h19.078v2.617l-2.055.824-5.107 2.055v19.515h24.158v-19.517l-7.16-2.877v-2.617h19.076v2.617h-.002l-2.053.824-5.105 2.055v19.515h56.105v-25.185H308.315v.27l10.003-.096v2.617l-7.16 2.879zm33.774-4.632h4.822v4.476h-4.822zm9.644 0h4.82v4.476h-4.82zm19.262 0h4.822v4.476h-4.822zm9.645 0h4.82v4.476h-4.82zm19.261 0h4.823v4.476h-4.823zm9.645 0h4.822v4.476h-4.822zm19.89 0h6.008v4.476h-6.008zm29.432 0h6.006v4.476h-6.006zm21.074 0h4.825v4.476h-4.825zm9.645 0h4.822v4.476h-4.822zm19.262 0h4.824v4.476h-4.824zm9.644 0h4.824v4.476h-4.824zm19.262 0h4.822v4.476h-4.822zm9.644 0h4.825v4.476h-4.825zm10.885-111.56c-.148-.001-.315.098-.473.116.461-.05.821.064 1.164.205-.238-.1-.387-.322-.691-.322zm.691.321c-.343-.141-.703-.255-1.164-.205-.392.046-.775.168-1.18.291-1.167.4-2.538.946-2.538.946s-2.889 1.715-.465 5.648c1.126 1.826 1.476 3.574 1.045 4.918a3.212 3.212 0 0 1-1.237 1.67c-.607.427-1.413.713-2.414.814-71.287-.58-140.067.843-207.736 0-3.005-.303-4.233-2.26-3.709-4.761.175-.834.543-1.728 1.105-2.641.606-.982.881-1.828.952-2.541v-.002a3.383 3.383 0 0 0-.274-1.756 3.224 3.224 0 0 0-1.142-1.35c-.003 0-4.14-2.264-5.426-.935-.214.222-.35.545-.373.994-.023.45.065 1.025.299 1.756 0 0 .257.758.093 1.564-.081.403-.269.819-.644 1.159v.002c-.376.34-.94.605-1.78.707-.629.074-1.347.49-1.917 1.037-.57.547-.994 1.225-1.032 1.822l-.312 4.902c0 .827.405 1.263.808 1.725.404.462.806.954.807 1.887v24.838l3.053-25.034 227.586-.37 2.17 28.126.02.008v-27.57c.014-.551.334-.85.616-1.19.097-.115.11-.29.211-.408.401-.463.796-.995.787-2.011l-.31-4.903c-.04-.597-.463-1.275-1.033-1.822-.57-.547-1.29-.963-1.918-1.037-.84-.101-1.404-.368-1.78-.71-1.127-1.02-.55-2.72-.55-2.72v-.002c.358-1.124.303-1.8.097-2.293-.036-.085-.05-.194-.097-.263-.134-.192-.405-.2-.618-.29zm1.168 5.569c.376.34.941.607 1.78.709.629.074 1.347.49 1.918 1.037-.57-.547-1.289-.963-1.918-1.04-.839-.1-1.404-.366-1.78-.706zm4.73 3.568.311 4.902c.01 1.017-.385 1.549-.787 2.012.401-.463.797-.995.79-2.012zm-.687 7.322c-.282.34-.602.638-.617 1.19v27.57h.002v-27.568c.014-.552.333-.853.615-1.192zm-.615 28.76h-.002v2.643s-.116.67-.523 1.341c.407-.67.525-1.341.525-1.341zm-.525 3.984c.407-.67.523-1.341.523-1.341v-2.643l-.02-.008-2.17-28.127-227.585.371-3.053 25.033v5.373s.465 2.686 2.793 2.686c.582 0 1.047-.168 1.418-.42 1.113-.755 1.373-2.266 1.373-2.266v-27.275h.002l7.748 1.106c68.114-.065 144.231.101 206.16 0l7.75-1.106v27.275s.465 2.686 2.791 2.686c.582 0 1.047-.169 1.418-.42.371-.252.648-.588.852-.924zm-226.72-28.617h-.001v27.276s-.26 1.51-1.373 2.265c1.112-.755 1.375-2.265 1.375-2.265zm6.96-6.504c67.668.843 136.446-.58 207.732 0-33.46-.272-66.369-.103-98.867.065-36.74.191-72.96.383-108.865-.065zm210.807-13.05s1.37-.547 2.539-.946c-1.314.399-2.54.946-2.54.946zm2.539-.946c.404-.123.787-.245 1.18-.29-.521.056-.654.11-1.18.29zm6.94 45.133v2.643s-.263 1.51-1.376 2.265c-.37.252-.839.42-1.42.42a2.466 2.466 0 0 1-1.418-.42c-1.113-.755-1.373-2.265-1.373-2.265v-27.276l-7.75 1.106c-33.251.054-70.593.032-108.588.01-32.77-.02-66.03-.04-97.572-.01l-7.748-1.106v27.276s-.466 2.685-2.793 2.685c-2.328 0-2.793-2.685-2.793-2.685v-5.373l-.332 2.722-10.086 4.028c-.569-3.33-.24-6.174-1.252-6.829-.894-.577-6.803 4.608-7.889 5.63l-.002.001c-1.081 1.023.563 1.686 1.043 2.725.274.591-2.446 1.899-4.46 2.797h-.003l-2.836 1.262-.126.162.158 2.002.297.236c.674.541 2.042 1.502 3.545 2.398.475.284.892.382 1.376.637 1.048.552 2.147 1.182 2.977 1.377.184.045.363.102.537.106l1.514.011H581.6l1.513-.011c.175-.004.353-.061.535-.106 1.214-.285 2.852-1.117 4.356-2.014 1.503-.897 2.87-1.856 3.545-2.398l.295-.236.16-2.002-.13-.162-2.837-1.262c-2.014-.898-4.732-2.206-4.459-2.797h-.002c.24-.52.773-.945 1.11-1.37.335-.422.474-.844-.067-1.355a71.236 71.236 0 0 0-4.018-3.416c-.862-.675-1.719-1.301-2.416-1.722-.695-.42-1.233-.637-1.457-.492-1.01.654-.682 3.499-1.25 6.828h-.002zm-13.337-23.527c-61.929.102-138.046-.065-206.16 0 31.542-.03 64.802-.01 97.572.01 37.995.022 75.337.045 108.588-.01zm23.399 27.547h.002c.283-1.665.343-3.208.459-4.416-.116 1.208-.177 2.75-.461 4.416zm-33.739 122.822v-29.18h-.002v29.18zm-.002 0h-7.96v.021h7.96zm0 0v-35.115c.185-.234 1.481-1.894 1.483-2.832v-.002c0-1.009-2.453-1.85-5.461-1.85-3.012 0-5.465.841-5.465 1.85 0 .938 1.297 2.6 1.482 2.832V680.463zm1.889-41.725c-.11-.247-.375-.455-.86-.601.485.146.744.354.854.601zm-.006 0h-11.727c0 .002-.005.002-.006.004-.055.126.022.283.04.426.016.138-.029.262.039.41.213.468.674.955 1.086 1.42.121.138.208.292.32.42-.67.307-1.061.683-1.069 1.088.015-1.005 2.452-1.842 5.456-1.842 2.999 0 5.436.837 5.45 1.842-.006-.405-.396-.78-1.066-1.086.192-.22.343-.476.55-.719.32-.378.684-.752.853-1.12.088-.194.055-.362.052-.536 0-.099.067-.213.028-.303-.001-.002-.005-.002-.006-.004zm0 0c-.11-.247-.37-.455-.854-.601-.975-.296-1.915-.63-2.61-1.08-.695-.45-1.147-1.017-1.147-1.774 0-.832-.628-1.248-1.252-1.248-.626 0-1.25.416-1.25 1.248 0 .757-.452 1.322-1.147 1.772-.696.45-1.636.786-2.613 1.082-.484.146-.744.354-.854.601zm-11.727 0c.11-.247.37-.455.854-.601-.484.146-.75.354-.86.601zm8.262-1.683v.002c.696.45 1.636.784 2.611 1.08-.975-.296-1.915-.633-2.61-1.082zm-6.379 11.107c-.995-.105-1.736-.728-2.357-1.402-.621-.674-1.125-1.402-1.64-1.723-.837-.52-2.526-.457-3.35-.344 0 0-1.485.26-1.192 3.455.254 2.813 5.08 4.322 8.54 2.635zm-7.586 1.822c-.542-.51-.89-1.132-.953-1.836-.146-1.597.152-2.46.486-2.925-.334.464-.634 1.327-.488 2.925.064.703.413 1.326.955 1.836zm15.547-4.636v1.66a9.843 9.843 0 0 0 .002 0v-1.66zm.002 1.66v4.275c1.34.285 3.672.511 5.059-.865 0 0 .992.168 1.947-.22.954-.39 1.872-1.336 1.727-3.561-.07-1.072-.338-1.845-.684-2.442-.124-.212-.285-.316-.428-.48-.246-.28-.488-.568-.756-.73a3.052 3.052 0 0 0-1.392-.43c-.124-.004-.51-.123-.51-.123s.762 1.75.326 2.978c-.145.41-.423.763-.906.973-.332.143-.737.158-1.115.234a4.903 4.903 0 0 1-.92.196 9.843 9.843 0 0 0-2.348.195zm0 0a9.843 9.843 0 0 0-.002 0l.002 4.275zm0 4.275-.002-4.275v4.275zm4.963-8.851s.386.118.51.123c-.104-.01-.348-.125-.408-.125-.065 0-.102.002-.102.002zm.51.123c.354.029.81.09 1.392.43-.692-.42-1.064-.419-1.392-.43zm1.392.43c.268.162.51.45.756.73-.26-.3-.47-.564-.756-.73zm-11.707-8.637c.235-.209.547-.313.86-.313a1.3 1.3 0 0 1 .861.313v-.002a1.3 1.3 0 0 0-.861-.313c-.313 0-.625.106-.86.315zm-3.12 13.812c-.996-.105-1.737-.726-2.358-1.4.621.674 1.362 1.297 2.357 1.402zm-8.053-2.937c.334-.465.705-.53.705-.53.824-.113 2.513-.175 3.35.344-.523-.325-1.38-.422-2.15-.422a9.22 9.22 0 0 0-1.2.076s-.37.067-.705.532zm-161.502 35.24h-7.961v.021h7.96zm0 0V645.346c.185-.233 1.48-1.894 1.482-2.832 0-1.009-2.453-1.85-5.463-1.85-2.991 0-5.416.834-5.445 1.834 0 .007-.018.011-.018.018.002.939 1.297 2.598 1.483 2.832v35.115zm-7.961 0v-29.18h-.002v29.18zm-.002-29.18v-4.275a9.854 9.854 0 0 0-2.35-.196 4.91 4.91 0 0 1-.92-.195c-.378-.076-.782-.09-1.113-.234a1.604 1.604 0 0 1-.906-.973c-.435-1.229.328-2.978.328-2.978s-.39.12-.518.125c-.354.03-.806.09-1.385.427-.267.162-.51.45-.755.729-.144.164-.306.269-.43.482-.346.597-.614 1.37-.684 2.442-.29 4.453 3.674 3.781 3.674 3.781 1.386 1.376 3.72 1.15 5.059.865zm0 0h.002v-4.275zm.002-4.275v-1.66h-.002v1.66a9.854 9.854 0 0 1 .002 0zm-7.621-3.295c.245-.28.488-.567.756-.729-.285.166-.495.43-.756.729zm.756-.729a3.036 3.036 0 0 1 1.384-.427c-.33.012-.696.01-1.384.427zm1.384-.427c.127-.005.518-.125.518-.125s-.038-.002-.104-.002c-.06 0-.308.118-.414.127zm4.016-.059c.03-1 2.454-1.834 5.445-1.834 3 0 5.439.837 5.453 1.842-.007-.405-.397-.782-1.068-1.088.181-.207.322-.448.518-.676.334-.39.71-.777.884-1.158.1-.22.08-.412.06-.605-.006-.076.053-.167.022-.237 0-.002-.005-.002-.006-.004h-11.726c0 .002-.005.002-.006.004-.03.07.029.16.021.237-.018.193-.04.386.06.605.176.381.551.769.886 1.158.195.228.336.47.517.676-.666.304-1.048.679-1.06 1.08zm-.424-3.76h.006c.11-.247.37-.455.854-.601-.485.146-.75.354-.86.601zm.86-.601c.976-.296 1.915-.63 2.61-1.08v-.002c-.695.45-1.634.785-2.61 1.082zm0 0c-.484.146-.744.354-.854.601h11.727c-.11-.247-.37-.455-.854-.601-.976-.296-1.916-.633-2.611-1.082-.695-.45-1.147-1.015-1.147-1.772 0-.832-.626-1.248-1.252-1.248-.625 0-1.25.416-1.25 1.248 0 .757-.453 1.324-1.148 1.774-.696.45-1.635.784-2.612 1.08zm4.15-3.79c.234-.208.547-.312.86-.312.312 0 .624.104.859.313v-.002a1.293 1.293 0 0 0-.86-.313c-.312 0-.625.106-.86.315zm5.869 3.79c.484.146.744.354.854.601h.006c-.11-.247-.376-.455-.86-.601zm1.33 8.623c-.621.674-1.364 1.297-2.36 1.402v2.621c3.461 1.687 8.289.178 8.544-2.635.29-3.194-1.196-3.455-1.196-3.455-.824-.113-2.513-.175-3.35.344-.514.321-1.017 1.049-1.638 1.723zm-10.322 4.523.002-4.275a9.854 9.854 0 0 1-.002 0zm-8.281-2.178c-.331-.563-.524-1.355-.452-2.468.07-1.072.338-1.846.684-2.442-.348.597-.615 1.367-.686 2.442-.072 1.113.123 1.905.454 2.468zm18.603-2.345c.621-.674 1.124-1.402 1.639-1.723h-.002c-.515.321-1.016 1.049-1.637 1.723zm-12.209-8.022c.11-.247.375-.455.86-.601.976-.297 1.915-.633 2.61-1.082.696-.45 1.15-1.015 1.15-1.772 0-.416.156-.727.39-.935.234-.209.547-.315.86-.315.312 0 .624.104.859.313v.002c.234.208.392.52.392.935 0 .757.452 1.322 1.147 1.772.695.45 1.635.785 2.611 1.082.484.146.75.354.86.601h165.777c.109-.247.375-.455.86-.601.977-.297 1.917-.633 2.612-1.082.695-.45 1.147-1.015 1.147-1.772 0-.416.156-.727.39-.935.235-.209.547-.315.86-.315a1.3 1.3 0 0 1 .861.313v.002c.235.208.39.52.39.935 0 .757.453 1.322 1.147 1.772.696.45 1.636.786 2.612 1.082.484.146.75.354.859.601h169.498v-7.38H185.461v7.38zm289.998 145.56c4.524-3.075 5.74-3.825 11.408-7.706 3.436-2.351 3.753-2.517 6.932-4.69 1.135-2.013 2.096-4.379 2.096-4.379s.101-.533.013-1.232c-2.22.356-4.116.494-3.693-.148l-.55-1.63c-1.093.238-1.808.289-2.88.792 0 0-4.774-2.323-6.347-2.569-1.573-.25-16.524 5.902-18.346 7.229-1.82 1.325-11.882 12-9.629 12.031l5.559 10.053zm16.205-19.784.551 1.629c-.423.642 1.472.504 3.693.148-.04-.318-.015-.598-.24-1.006-.72-1.302-1.775-1.383-1.775-1.383s-1.383.428-2.229.612zm0 0c.846-.184 2.229-.612 2.229-.612s1.055.081 1.775 1.383c.225.408.2.688.24 1.006 2.453-.393 5.31-1.059 6.11-1.346 1.525-.546 25.9-20.11 26.388-21.144.487-1.035.718-4.147 1.297-5.02-2.171 3.411 2.413-2.655 2.434-3.344.031-1.068-1.97-2.05-1.97-2.05s-2.945 1.565-5.333 2.822c0 0-5.477.099-7.517-.135-1.132-.13-18.831 16.601-20.174 17.508-1.342.904-8.054 8.02-6.438 8.102zM528.668 891.428c-16.625 2.943-33.545 5.01-50.748 6.068a72.924 72.924 0 0 1-27.922 5.545 72.924 72.924 0 0 1-27.922-5.545c-17.203-1.058-34.123-3.125-50.748-6.068l-5.521 5.953 13.185 13.754 9.822-8.373a95.884 95.884 0 0 0 13.604 9.564 95.887 95.887 0 0 0 .002 0l-4.49 12.063 17.431 7.683 5.856-11.42.002-.002a94.268 94.268 0 0 0 18.502 3.903l.752 12.806h19.05l.752-12.806a94.268 94.268 0 0 0 18.502-3.903v.002l5.856 11.42 17.434-7.683-4.49-12.063a95.825 95.825 0 0 0 13.605-9.564l9.822 8.373 13.186-13.754zm0 0-.793-.854-11.65-5.306a440.566 440.566 0 0 1-21.934 2.752c-5.003 3.815-10.474 7.039-16.371 9.476 17.203-1.058 34.123-3.125 50.748-6.068zm-106.592 6.068c-5.897-2.437-11.366-5.661-16.369-9.476a440.414 440.414 0 0 1-23.75-3.034l-8.059 3.67-2.57 2.772c16.625 2.943 33.545 5.01 50.748 6.068zm-68.303-18.764 12.204-4.086a95.605 95.605 0 0 0 0 .002 95.592 95.592 0 0 0 5.484 8.463c3.412.615 6.802 1.293 10.24 1.828l10.813-5.056-2.11-7.647a73.162 73.162 0 0 1-3.998-6.246l-9.605-1.05c-8.745 1.85-17.83 3.043-27.13 3.57zm23.032-13.795 9.6 1.051a72.889 72.889 0 0 1-1.542-2.87c-2.628.69-5.348 1.246-8.058 1.82zm.726-44.81c1.55-11.637 5.778-22.419 12.13-31.66-7.684-1.36-15.292-2.93-22.79-4.791a95.58 95.58 0 0 0-.894 1.38l-1.852-.619v4.149a346.817 346.817 0 0 1-11.936-3.668l-.449 1.12-1.597 3.985a352.342 352.342 0 0 0 13.982 4.223v5.647a357.45 357.45 0 0 1-16.033-4.758l-1.414 3.521 9.924 4.674a362.752 362.752 0 0 0 7.523 2.195v5.621a368.543 368.543 0 0 1-6.867-1.972 94.384 94.384 0 0 0-1.088 5.351 373.932 373.932 0 0 0 7.955 2.25v4.01c4.523-.203 9.27-.294 13.406-.658zm-13.406.658v-4.01a373.932 373.932 0 0 1-7.955-2.25 94.384 94.384 0 0 0-.674 3.317l-6.789.275a379.089 379.089 0 0 0 10.469 2.912c1.716-.048 3.28-.169 4.949-.244zm-4.95.244a379.089 379.089 0 0 1-10.468-2.912l-6.023.244-.036 1.977c3.882.557 7.736.978 11.409.943 1.822-.017 3.343-.202 5.119-.252zm169.358 62.082c-4.01.723-7.998 1.51-12.045 2.123l11.362 5.313-2.434-2.623a95.6 95.6 0 0 0 3.117-4.813zm0 0a95.6 95.6 0 0 0 5.487-8.465l12.203 4.086 4.064-10.127c-9.765-.537-19.293-1.82-28.44-3.812l-8.062.88a73.33 73.33 0 0 1-8.06 11.557l-.725 2.631 11.488 5.373c4.047-.613 8.035-1.4 12.045-2.123zm-12.045 2.123c-.087.014-.176.02-.263.034l11.65 5.306-.025-.027zm0 0L505 879.861l.725-2.63c-.673.79-1.387 1.541-2.092 2.302l12.592 5.735c.087-.014.176-.02.263-.034zm-.263.034-12.592-5.735a73.463 73.463 0 0 1-9.342 8.487 440.566 440.566 0 0 0 21.934-2.752zm-110.518 2.752a73.475 73.475 0 0 1-10.055-9.27l-13.695 6.236a440.414 440.414 0 0 0 23.75 3.034zm-23.75-3.034c-.086-.013-.17-.033-.256-.047l-7.691 3.598-.112.12zm0 0 13.695-6.236a73.424 73.424 0 0 1-5.246-6.512l2.108 7.645-10.813 5.056c.086.014.17.034.256.047zm-.256-.047c-3.438-.535-6.828-1.213-10.24-1.828a95.592 95.592 0 0 0 3.117 4.813l-.568.613zm132.084-19.265 8.063-.883c-2.273-.495-4.567-.954-6.782-1.533-.417.812-.834 1.622-1.28 2.416zm0 0 8.063-.881v-.002zm-7.515-82.598c2.957-.496 5.91-1.005 8.841-1.578a335.437 335.437 0 0 0 14.53-3.2 95.58 95.58 0 0 0-4.225-6.515l8.773-9.459-13.185-13.75-9.822 8.37a95.887 95.887 0 0 0-13.606-9.563l4.49-12.065-17.433-7.683-5.856 11.422a94.354 94.354 0 0 0-18.502-3.9l-.33-5.645-.422-7.162v-.002l-14.287.002h-4.763l-.752 12.804a94.516 94.516 0 0 0-.002 0 94.584 94.584 0 0 0-18.5 3.9 94.584 94.584 0 0 1-.002 0l-5.856-11.42-17.431 7.684 4.49 12.065a95.95 95.95 0 0 0-.002 0 95.767 95.767 0 0 0-13.604 9.562l-9.824-8.369-6.453 6.73-6.73 7.02 8.771 9.46a95.58 95.58 0 0 0-4.223 6.515c3.84.928 7.672 1.872 11.56 2.668 3.904.798 7.86 1.446 11.811 2.11 13.425-16.133 33.644-26.411 56.272-26.411s42.846 10.279 56.271 26.41zm0 0v.002c2.957-.496 5.91-1.007 8.841-1.58a336.912 336.912 0 0 1-8.841 1.578zm8.841-1.578a336.884 336.884 0 0 1-8.841 1.58 73.457 73.457 0 0 1 4.068 5.387c7.681-1.36 15.289-2.928 22.785-4.79a95.58 95.58 0 0 0-3.482-5.374c-3.838.927-7.67 1.87-11.557 2.666-.982.2-1.987.339-2.973.531zm18.012 2.178c-7.496 1.861-15.104 3.428-22.785 4.789 6.37 9.267 10.604 20.085 12.142 31.76 4.144.36 8.866.461 13.393.66v-4.11a373.968 373.968 0 0 0 7.953-2.248 94.417 94.417 0 0 0-1.088-5.353 368.615 368.615 0 0 1-6.865 1.972v-5.62a362.786 362.786 0 0 0 7.52-2.196l9.925-4.674-1.414-3.521a357.45 357.45 0 0 1-16.031 4.758v-5.647a352.376 352.376 0 0 0 13.98-4.223l-2.046-5.103a346.817 346.817 0 0 1-11.934 3.666v-4.149l-1.853.62a95.58 95.58 0 0 0-.897-1.381zm2.75.761v4.149a346.817 346.817 0 0 0 11.934-3.666l-1.584-3.945zm13.98 5.586a352.376 352.376 0 0 1-13.98 4.223v5.647a357.45 357.45 0 0 0 16.031-4.758zm-6.46 13.307a362.786 362.786 0 0 1-7.52 2.195v5.621a368.615 368.615 0 0 0 6.865-1.972 94.417 94.417 0 0 0-1.025-5.053zm.433 11.197a373.968 373.968 0 0 1-7.953 2.248v4.11c1.57.069 3.033.185 4.645.23a379.126 379.126 0 0 0 10.775-2.998l-6.793-.275a94.417 94.417 0 0 0-.674-3.315zm7.47 3.588a379.126 379.126 0 0 1-.003.002l6.02.242v-.002zm6.016.244-6.019-.242a379.126 379.126 0 0 1-10.775 2.998c1.765.05 3.277.233 5.09.25 3.78.036 7.742-.381 11.742-.97zm-163.585-35.283c-3.951-.663-7.908-1.31-11.811-2.11 3.902.8 7.858 1.45 11.809 2.112zm-.002.002a335.932 335.932 0 0 1-23.37-4.78 95.58 95.58 0 0 0-3.484 5.378c7.497 1.862 15.106 3.43 22.79 4.79a73.46 73.46 0 0 1 4.064-5.388zm-29.6 1.36-10.352-3.463-1.584 3.943a346.817 346.817 0 0 0 11.936 3.668zm10.453-12.655-8.771-9.459 6.73-7.02-6.732 7.02zm27.84-24.402a95.95 95.95 0 0 0 .002 0l-4.49-12.065h-.002zm57.857-12.229v.002a94.354 94.354 0 0 1 18.502 3.9 94.286 94.286 0 0 0-18.502-3.902zm-110.132 54.871-2.051 5.112a357.45 357.45 0 0 0 16.033 4.758v-5.647a352.342 352.342 0 0 1-13.982-4.223zm-2.051 5.112a357.45 357.45 0 0 1-.002-.002l-1.414 3.523h.002zm8.51 8.195 1.68.791h.001a94.384 94.384 0 0 0-1.025 5.053 368.543 368.543 0 0 0 6.867 1.972v-5.62a362.752 362.752 0 0 1-7.523-2.196zm.656 5.844a368.543 368.543 0 0 1-.002-.002 94.384 94.384 0 0 0-1.086 5.353 94.384 94.384 0 0 1 1.088-5.351zm0 0a94.384 94.384 0 0 1 1.025-5.053h-.002a94.384 94.384 0 0 0-1.025 5.05 368.543 368.543 0 0 1 .002.003zm83.215 128.185-.752-12.806a94.268 94.268 0 0 0-.002 0l.752 12.806zM544.5 817.842l6.793.275a379.126 379.126 0 0 0 .004-.002zm-10.107 72.564c-1.643.313-3.299.588-4.948.883l9.983 4.547zm0 0-2.63-2.834c1.303-1.845 2.513-3.763 3.69-5.695-2.293.451-4.614.819-6.92 1.234a95.6 95.6 0 0 1-3.117 4.813l2.434 2.623 1.285.601.31.141c1.65-.295 3.305-.57 4.948-.883zm-4.948.883-.006.002 10.194 4.768-.203-.221-.002-.002zm-.006.002-.771.137 5.521 5.953-13.185 13.754-9.822-8.373a95.825 95.825 0 0 1-13.606 9.564l4.49 12.065-17.433 7.681-5.856-11.42a94.246 94.246 0 0 1-18.502 3.9l-.752 12.807h-19.052l-.752-12.806a94.246 94.246 0 0 1-18.502-3.9l-5.854 11.42h-.002l-17.433-7.682.002-.002 4.488-12.063a95.884 95.884 0 0 1-13.604-9.564l-9.824 8.373-13.185-13.754 5.521-5.953c-.841-.15-1.683-.298-2.523-.451l-.428.195-6.146 2.875-3.147 3.392 19.572 20.41 10.248-8.732a100.183 100.183 0 0 0 7.524 5.29l-4.692 12.6 25.88 11.403 6.107-11.916a100.794 100.794 0 0 0 11.103 2.354l.25.039.785 13.365h28.278l.787-13.365a97.251 97.251 0 0 0 11.35-2.393l6.11 11.916 25.876-11.4-4.69-12.602a101.12 101.12 0 0 0 7.526-5.29l10.246 8.732 9.582-9.99 9.99-10.42-1.277-1.38-.002-.001h-.002zm0 0-.326-.152-1.238-.565.793.854c.257-.046.514-.09.771-.137zm-158.111.137 2.57-2.772-5.095 2.32c.84.154 1.681.303 2.523.452zm-2.525-.451 5.095-2.32.112-.12-5.215 2.44h.008zm-.008 0c-1.063-.195-2.132-.369-3.192-.57l-3.256 3.511 6.028-2.746zm0 0 5.214-2.44.569-.613a95.592 95.592 0 0 1-3.117-4.813c-2.305-.415-4.626-.783-6.918-1.234a104.54 104.54 0 0 0 3.69 5.693 104.54 104.54 0 0 1 0 .002l-2.63 2.834c1.06.202 2.13.376 3.192.57zM349.67 868.51c-1.722.097-3.437.206-5.168.256l3.828 9.539c4.363 1.032 8.705 2.118 13.117 3.02h.002l2.248-.755a104.569 104.569 0 0 0 0 .002 104.54 104.54 0 0 0 .846 1.305c2.292.451 4.613.82 6.918 1.234a95.592 95.592 0 0 1-5.485-8.462l-12.203 4.085zm-1.34 9.795 2.62 6.531 10.497-3.512c-4.412-.9-8.754-1.987-13.117-3.02zm-5.682-57.967.035-1.977 6.024-.244a379.089 379.089 0 0 1-10.856-3.02l-.082 4.38c1.642.318 3.255.628 4.88.86zm-4.771-6.678-.026 1.438a379.089 379.089 0 0 0 10.856 3.02l6.789-.276a94.384 94.384 0 0 1 .674-3.317 373.932 373.932 0 0 1-4.975-1.406zm13.318-.54a373.932 373.932 0 0 0 4.975 1.405 94.384 94.384 0 0 1 1.086-5.353 368.543 368.543 0 0 1-4.916-1.412c-.403 1.778-.79 3.56-1.088 5.357zm1.145-5.36a368.543 368.543 0 0 0 4.916 1.412 94.384 94.384 0 0 1 1.025-5.05l-1.686-.794a362.752 362.752 0 0 1-15.273-4.459l-.902 2.246 12.11 5.705c-.072.312-.12.628-.19.94zm-11.018-8.89a362.752 362.752 0 0 0 15.273 4.458l-9.92-4.672 1.415-3.523a357.45 357.45 0 0 1-4.71-1.397zm2.059-5.134a357.45 357.45 0 0 0 4.709 1.397l2.05-5.11a352.342 352.342 0 0 1-4.699-1.42zm2.06-5.132a352.342 352.342 0 0 0 4.7 1.42l2.048-5.106a346.817 346.817 0 0 1-4.691-1.441zm2.057-5.127a346.817 346.817 0 0 0 4.691 1.441l1.584-3.943v-.002l10.352 3.464v-1.396c-4.973-1.278-9.887-2.699-14.77-4.191zm1.857-4.627c4.883 1.492 9.797 2.913 14.77 4.191v-.102a341.373 341.373 0 0 1-14.582-4.558zm.188-.47a341.373 341.373 0 0 0 14.582 4.56v.101c.907.233 1.836.409 2.746.635a95.58 95.58 0 0 1 3.484-5.377c-1.765-.427-3.55-.796-5.305-1.25a100.503 100.503 0 0 0-1.353 2.088l-12.746-4.266zm15.507-1.331c1.754.454 3.54.823 5.305 1.25a95.58 95.58 0 0 1 4.223-6.516l-8.774-9.459 13.186-13.75v-.002l9.824 8.37a95.95 95.95 0 0 1 7.99-5.614 95.767 95.767 0 0 1 5.614-3.947l-4.49-12.065 17.433-7.683h.002l5.855 11.42a94.584 94.584 0 0 1 18.5-3.9l.752-12.807h19.053v.002l.422 7.162.33 5.642a94.286 94.286 0 0 1 18.502 3.903l5.856-11.422 17.433 7.683-4.49 12.063a95.988 95.988 0 0 1 13.605 9.562l9.823-8.369v.002l13.185 13.75-8.773 9.46a95.58 95.58 0 0 1 4.224 6.515c1.765-.427 3.551-.796 5.305-1.25a100.809 100.809 0 0 0-3.182-4.912l9.15-9.867-19.571-20.413-10.247 8.735a100.451 100.451 0 0 0-7.525-5.291l4.69-12.6-25.876-11.404-6.109 11.92a97.567 97.567 0 0 0-11.351-2.393l-.866-13.369h-28.12l-.864 13.37a97.209 97.209 0 0 0-11.351 2.392l-6.112-11.92-25.877 11.404 4.692 12.6a99.336 99.336 0 0 0-7.524 5.29 99.336 99.336 0 0 1-.002 0l-10.248-8.734-19.57 20.413 9.152 9.867a100.503 100.503 0 0 0-3.183 4.91 100.503 100.503 0 0 1 0 .002zm0-.002a100.503 100.503 0 0 1 3.184-4.91l-9.152-9.867 9.15 9.867a100.488 100.488 0 0 0-3.182 4.91zm169.895.002c-.175.045-.345.101-.52.146-1.58.407-3.196.722-4.785 1.106a95.58 95.58 0 0 1 3.483 5.375c.91-.226 1.842-.401 2.75-.635v-.102a341.373 341.373 0 0 0 14.578-4.556l-1.408-3.512-12.745 4.266a100.809 100.809 0 0 0-1.353-2.088zm15.506 1.334a341.373 341.373 0 0 1-14.578 4.556v.102c4.972-1.278 9.885-2.699 14.767-4.191zm.19.467c-4.883 1.492-9.796 2.913-14.768 4.191v1.395l10.35-3.463v.002l1.583 3.945a346.817 346.817 0 0 0 4.692-1.441zm1.857 4.629a346.817 346.817 0 0 1-4.692 1.441l2.047 5.103a352.376 352.376 0 0 0 4.701-1.42zm2.056 5.125a352.376 352.376 0 0 1-4.7 1.42l2.05 5.11a357.45 357.45 0 0 0 4.71-1.398zm2.06 5.132a357.45 357.45 0 0 1-4.71 1.399l1.414 3.521-9.926 4.674a362.786 362.786 0 0 0 15.281-4.46zm2.06 5.133a362.786 362.786 0 0 1-15.282 4.461l-1.68.791a94.417 94.417 0 0 1 1.026 5.053 368.615 368.615 0 0 0 4.918-1.412 102.538 102.538 0 0 0-.191-.942l12.11-5.705zm-11.208 7.951h-.002a102.538 102.538 0 0 1 .192.942 368.615 368.615 0 0 0 .002-.002 103.9 103.9 0 0 0-.192-.94zm1.278 6.297a102.538 102.538 0 0 0-1.088-5.355 368.615 368.615 0 0 1-4.918 1.412 94.417 94.417 0 0 1 1.088 5.353 373.968 373.968 0 0 0 4.976-1.408zm.058.002a373.968 373.968 0 0 1-4.976 1.408 94.417 94.417 0 0 1 .674 3.315l6.797.273a379.126 379.126 0 0 0 10.847-3.017l-.027-1.438zm13.315.541.027 1.438-.025-1.438zm.027 1.438.08 4.388h.002zm0 0a379.126 379.126 0 0 1-10.847 3.017l6.015.243v.002l.037 2.035c1.621-.24 3.237-.585 4.875-.909zm-10.478 63.207 3.787-9.444c-1.73-.046-3.445-.16-5.166-.255l-4.065 10.128-12.203-4.087a95.6 95.6 0 0 1-5.486 8.464c2.305-.415 4.627-.783 6.92-1.234.27-.442.585-.856.845-1.303v-.002l2.245.752h.002c4.412-.9 8.755-1.987 13.119-3.02zm-.002 0c-4.364 1.032-8.707 2.118-13.12 3.02l10.499 3.513zm-23.815 12.242.026.027 1.238.565zm5.274-106.871a95.58 95.58 0 0 1 .896 1.38l1.854-.62v-1.395c-.908.234-1.84.409-2.75.635zm-166.252 0c-.91-.226-1.84-.402-2.746-.635v1.397l1.851.619a95.58 95.58 0 0 1 .895-1.381zm-18.78 11.459 2.05-5.111-2.052 5.109a357.45 357.45 0 0 1 .002.002zm13.358 86.19 2.248-.753a104.569 104.569 0 0 0 0-.002zm.898 12.593-.119.129 6.147-2.875zm-24.578-74.441.082-4.38a379.089 379.089 0 0 1-.002-.001zm.08-4.381a379.089 379.089 0 0 1 .002.002l.026-1.438h-.002zm11.506-36.246.188-.47a341.373 341.373 0 0 1-48.819-18.763v.225c15.589 7.524 31.842 13.876 48.631 19.008zm15.695-1.803a100.488 100.488 0 0 1 3.182-4.91l-9.15-9.867 19.57-20.412 10.248 8.734a99.336 99.336 0 0 1 .002 0 99.336 99.336 0 0 1 7.523-5.291l-4.693-12.6h.002l25.879-11.404 6.11 11.92a97.209 97.209 0 0 1 11.35-2.393l.864-13.369h28.121l.866 13.37a97.567 97.567 0 0 1 11.35 2.392l6.11-11.92 25.877 11.404-4.691 12.6a100.451 100.451 0 0 1 7.525 5.29l10.247-8.733 19.574 20.412-9.153 9.867a100.809 100.809 0 0 1 3.182 4.91c59.492-15.41 112.612-46.625 154.63-88.895-1.453 1.295-2.765 2.609-4.321 3.891H215.115a165.03 165.03 0 0 1-7.789-7.139c1.275 1.317 2.498 2.683 3.793 3.979a339.839 339.839 0 0 0 23.99 21.805 339.063 339.063 0 0 0 26.006 19.447c31.307 21.15 66.355 37.178 103.936 46.912zm-157.724-92.143a165.03 165.03 0 0 0 7.79 7.139h470.138c1.564-1.289 2.882-2.61 4.342-3.91 2.49-2.505 4.9-5.088 7.31-7.67h-52.271v.021-.021h-7.04v.02H631.6v-.02h-7.038v.02h-5.994v-.02h-7.037v.02h-5.994v-.02h-7.04v.02h-5.993v-.02h-7.04v.02h-5.993v-.02h-6.004v.017h-13.363v-.017h-5.266v.02h-5.992v-.02h-6.108v.021h-7.962v-.021h-5.995v.02h-5.992v-.02h-4.073v.017h-13.364v-.017H503.037v.02h-5.998v-.02h-5.996v.02h-5.996v-.02h-5.998v.02h-5.998v-.02h-5.998v.02h-5.996v-.02h-2.312v.017H441.25v-.017H438.941v.02h-5.998v-.02h-5.998v.02h-5.998v-.02h-5.996v.02h-5.998v-.02h-5.998v.02h-5.998v-.02h-2.106l3.871 3.049-3.873-3.05h-.205v.018H381.28v-.017h-4.072v.02h-5.994v-.02h-5.992v.021h-7.963v-.021h-6.108v.02h-5.994v-.02h-5.262v.017h-13.367v-.017h-6.002v.02h-5.994v-.02h-7.039v.02h-5.994v-.02h-7.04v.02h-5.991v-.02h-7.04v.02h-5.994v-.02h-7.039v.02h-5.992v-.02h-7.039v.021-.021H203.09a339.857 339.857 0 0 0 4.226 4.432l.01.01zm-.01-.01a339.857 339.857 0 0 1-4.226-4.431h-.057c1.424 1.484 2.871 3.055 4.283 4.431zm-4.283-4.431h.057c-1.247-1.335-2.524-2.64-3.748-3.994h-.135c1.3 1.432 2.554 2.668 3.826 3.994zm-3.826-3.994h.135c-1.177-1.302-2.291-2.66-3.448-3.979 1.04 1.191 2.3 2.862 3.313 3.979zm-3.313-3.979c1.157 1.32 2.271 2.677 3.448 3.979h56.021v3.994h7.04v-3.994h5.991v3.994h7.04v-3.994h5.993v3.994h7.04v-3.994h5.992v3.994h7.039v-3.994h5.994v3.994h7.039v-3.994h5.994v3.994h6.002l.002-10.069c0-3.763 3-6.838 6.69-6.838h.004a6.545 6.545 0 0 1 4.716 2.016 6.889 6.889 0 0 1 1.955 4.822v10.069h5.262v-3.994h5.994v3.994h6.108v-29.18c-1.34.285-3.673.511-5.059-.865 0 0-2.23.377-3.223-1.313-.33-.563-.525-1.355-.453-2.468.07-1.075.338-1.845.686-2.442.126-.217.283-.315.43-.482.26-.299.47-.563.755-.729.688-.416 1.055-.415 1.385-.427.106-.01.353-.127.414-.127.066 0 .104.002.104.002s-1.354 3.11.58 3.949a4.91 4.91 0 0 0 1.111.236c.313.063.594.2.92.194.96-.024 1.729.06 2.35.197v-1.66h.002c-.186-.234-1.48-1.893-1.483-2.832l-.002-.002c0-.006.02-.01.02-.016.012-.401.394-.776 1.06-1.08-.181-.207-.322-.448-.517-.676-.335-.39-.71-.776-.885-1.158-.1-.22-.079-.412-.06-.605.006-.075-.054-.166-.024-.235l.002-.002v-.004h-169.91l-4.82 15.115c.32.423.66.83.982 1.25a363.62 363.62 0 0 0 14.272 17.387zm-.025-.031a363.646 363.646 0 0 1-14.246-17.356 339.408 339.408 0 0 0 14.246 17.356zm-14.328-17.455c-.296-.386-.607-.76-.9-1.147l-.012.035c.342.447.574.674.912 1.112zm-.9-1.147v-.004c-3.712-4.897-7.33-9.868-10.776-14.969 3.446 5.102 7.063 10.076 10.775 14.973zm537.536 1.5c.285-.401.582-.782.866-1.185l-4.92-15.434H544.625v.004l.002.002c.038.089-.03.203-.03.3.004.176.037.342-.052.536-.168.37-.53.742-.854 1.121-.206.243-.356.5-.548.719.67.305 1.059.681 1.066 1.086 0 .003.01.005.01.008v.002c0 .939-1.298 2.598-1.482 2.832h.002v1.66a9.777 9.777 0 0 1 2.347-.197c.327.007.608-.13.92-.194a4.903 4.903 0 0 0 1.114-.236c1.935-.84.582-3.95.582-3.95l.101-.001c.06 0 .304.116.408.125.328.011.701.01 1.393.43.285.166.495.43.756.73.145.166.302.264.427.48.348.597.616 1.367.686 2.442.072 1.113-.122 1.905-.453 2.469-.33.562-.798.897-1.275 1.091-.955.39-1.948.221-1.948.221-1.386 1.376-3.72 1.15-5.058.865v29.18h6.107v-3.994h5.992v3.994h5.055l.21-.166v-9.902c0-1.879.75-3.58 1.95-4.815a6.889 6.889 0 0 1 .004-.008 6.542 6.542 0 0 1 4.72-2.015c.923 0 1.803.192 2.602.539 2.4 1.04 4.088 3.476 4.088 6.298v10.069h6.004v-3.994h5.994v3.994h7.04v-3.994h5.992v3.994h7.04v-3.994h5.995v3.994h7.037v-3.994h5.994v3.994h7.037v-3.994h5.996v3.994h7.04v-3.994h56.019c6.126-6.777 11.942-13.834 17.51-21.092l.013-.02zm-.013.02c-5.567 7.258-11.38 14.316-17.506 21.092-1.225 1.354-2.502 2.659-3.748 3.994h.764c2.163-2.23 4.334-4.455 6.31-6.735 5.117-5.904 9.682-12.013 14.18-18.351zm-21.254 25.086c-2.411 2.582-4.824 5.164-7.315 7.67 1.913-1.705 3.933-3.394 5.69-5.123.85-.837 1.568-1.704 2.387-2.547zm-.004 0c1.246-1.335 2.523-2.64 3.748-3.994h-56.02v3.994zm-136.803 0v-.166l-.21.166zm-25.328 0v-29.68c-2.595 1.265-5.96.733-7.586-.799-.542-.51-.891-1.133-.955-1.836-.292-3.196 1.193-3.457 1.193-3.457.308-.042.74-.076 1.202-.076.77 0 1.626.097 2.148.422.516.321 1.02 1.049 1.64 1.723.622.674 1.362 1.295 2.358 1.4V645.346c-.185-.233-1.481-1.894-1.482-2.832 0-.003.01-.005.01-.008.007-.405.398-.782 1.068-1.088-.112-.128-.199-.283-.32-.42-.413-.467-.873-.952-1.086-1.42-.068-.149-.023-.272-.04-.41-.016-.143-.092-.3-.038-.426v-.004H367.109v.004c.03.07-.028.161-.021.236.018.194.04.386-.06.606-.176.382-.55.768-.885 1.158-.196.227-.337.47-.518.676.67.306 1.061.683 1.068 1.088 0 .003.01.005.01.008 0 .938-1.297 2.6-1.482 2.832V648.16c1.991-.211 2.966-2.48 3.996-3.123.524-.325 1.38-.422 2.15-.422a9.23 9.23 0 0 1 1.202.076s.37.067.705.532c.335.464.635 1.328.49 2.925-.255 2.813-5.082 4.322-8.543 2.635v29.68h5.992v-3.994h5.994v3.994h3.863l.21-.166v-9.902c0-1.882.751-3.592 1.96-4.83 1.21-1.239 2.878-2.008 4.715-2.008a6.541 6.541 0 0 1 4.719 2.015 6.838 6.838 0 0 1 1.97 4.823v9.906l.208.162h2.105v-3.994h5.998v3.994h5.998v-3.994h5.998v3.994h5.996v-3.994h5.998v3.994h5.999v-3.994h5.998v3.994h2.271l.037-.03v-12.025c0-4.514 3.926-8.19 8.748-8.19 2.411 0 4.585.915 6.174 2.4 1.588 1.484 2.574 3.542 2.574 5.79v12.026l.037.029h2.274v-3.994h5.996v3.994h5.998v-3.994h5.998v3.994h5.998v-3.994h5.996v3.994h5.996v-3.994h5.998v3.994h2.108l.207-.164v-9.904c0-1.882.749-3.588 1.968-4.823a6.541 6.541 0 0 1 4.721-2.015c1.837 0 3.506.77 4.715 2.007a6.901 6.901 0 0 1 1.96 4.83v9.903l.21.166h3.863v-3.994h5.992v3.994zm-15.85 0-.209-.166v.166zm-13.574 0v-.164l-.207.164zm-110.502 0-.205-.162v.162zm-13.57 0v-.166l-.21.166zm214.629-98.97.002.003c.167-.925.198-1.64.27-2.453-.072.812-.104 1.527-.272 2.451zm.271-2.45c.058-.652.164-1.427.22-1.965l-.003.002c-.054.537-.16 1.312-.217 1.963zm13.893 9.7-.313.235c-.715.542-1.922 1.318-3.271 2.028 1.35-.71 2.557-1.484 3.273-2.026zm-67.334 58.265a9.843 9.843 0 0 1 2.348-.196 4.903 4.903 0 0 0 .92-.195c-.313.063-.594.2-.92.193a9.777 9.777 0 0 0-2.348.198zm-287.375 33.455v-3.994H199.34c1.225 1.354 2.502 2.659 3.748 3.994zm295.088 97.92.19.466c16.788-5.132 33.042-11.483 48.63-19.007v-.225a341.373 341.373 0 0 1-48.82 18.766Zm-126.728-45.166-6.11-11.92h-.002zm-90.41-217.5c.57-.547 1.288-.963 1.917-1.037.84-.102 1.404-.367 1.78-.707v-.002c-.376.34-.94.604-1.78.705-.629.076-1.347.494-1.918 1.04zM550.64 778.85l1.857 4.629a346.817 346.817 0 0 0 46.773-17.805v-5.832c-15.588 7.524-31.842 13.876-48.63 19.008zm-1.838 34.27 13.316.54.026 1.438a379.126 379.126 0 0 0 37.126-13.375v-5.975a373.968 373.968 0 0 1-50.468 17.371zm9.87-14.25.903 2.245-12.11 5.705a103.9 103.9 0 0 1 .192.94 368.615 368.615 0 0 0 51.613-17.99v-5.979a362.786 362.786 0 0 1-40.597 15.078zm-4.118-10.266 2.06 5.132a357.45 357.45 0 0 0 42.656-15.955v-6.039a352.376 352.376 0 0 1-44.716 16.862zm-207.057-5.127 1.857-4.627c-16.788-5.132-33.042-11.484-48.63-19.008v5.832a346.817 346.817 0 0 0 46.773 17.803zm-9.648 31.619.025-1.436h.002l13.318-.54a373.932 373.932 0 0 1-50.47-17.372v5.975a379.089 379.089 0 0 0 37.125 13.373zm14.49-7.336c.07-.312.118-.628.191-.94l-12.111-5.705.902-2.246a362.752 362.752 0 0 1-40.597-15.078v5.979a368.543 368.543 0 0 0 51.615 17.99zm-8.96-14.024 2.061-5.132a352.342 352.342 0 0 1-44.716-16.862v6.04a357.45 357.45 0 0 0 42.656 15.954zm-199.868-27.86c2.42 2.35 4.848 4.69 7.322 6.983-1.126-2.408-2.193-4.79-3.129-7.132zm200.99 102.89c-11.99.341-24.155-.353-36.066-2.487-.598.034-1.09-.035-1.682-.008a436.648 436.648 0 0 0 41.576 12.034zm407.465-102.983c-.994 2.487-2.124 5.016-3.332 7.576 2.632-2.432 5.209-4.922 7.781-7.418zM593 866.353c-.622-.028-1.142.044-1.771.009-8.742 1.565-17.625 2.266-26.477 2.478l8.201 3.865A436.568 436.568 0 0 0 593 866.354zm-20.047 6.352-8.201-3.865c-3.113.074-6.202.105-9.297.021l-1.146 2.854-2.643 6.59a436.805 436.805 0 0 0 21.287-5.6zm-34.41 8.62-2.244-.75c-.26.446-.575.86-.844 1.302 1.023-.201 2.067-.344 3.088-.553zm-174 .552a104.54 104.54 0 0 1-.846-1.305l-2.248.752c1.023.209 2.069.351 3.094.553zM615.26 866.87c-10.194 4.045-20.521 7.828-31.067 11.13l44.422 20.936 1.338-24.904zm0 0-1.85-.902c-6.353.558-13.126.718-20.41.385a436.568 436.568 0 0 1-20.047 6.351l11.24 5.297c10.546-3.303 20.873-7.086 31.067-11.13zm-31.067 11.13c-16.214 5.08-32.852 9.176-49.8 12.405l5.037 5.432 51.353 23.389 11.082 23.271-.023.592 23.814 9.625.08-.182 2.88-53.596zm0 0-11.24-5.296a436.805 436.805 0 0 1-21.287 5.6l-2.621 6.533h-.002l-10.5-3.514c-1.02.209-2.065.352-3.088.553h-.002c-1.177 1.932-2.387 3.85-3.69 5.695l2.63 2.834c16.948-3.229 33.586-7.325 49.8-12.404zm-44.556 18.06 47.799 22.353h.002l11.126 23.352 3.278 1.324.023-.592-11.082-23.271-51.353-23.39zm88.978 2.876-2.879 53.596 13.014-29.976-.379-44.42-8.418-4.104zm138.748-132.113a451.068 451.068 0 0 1-32.869 29.817c-8.466 11.137-19.461 21.977-34.043 31.273-11.21 10.968-25.512 19.502-43.814 24.998-7.426 4.486-16.147 7.962-26.106 10.342l-.578 10.78 8.418 4.103.379 44.42-13.014 29.976-.13 2.418.449 18.592c26.117.236 49.394-2.464 69.697-6.773v-10.4l29.75-4.352-1.211-16.93 34.828-7.014-1.344-15.004 29.56-4.547zm0 0-.07-.492-10.877-.39c-2.572 2.495-5.149 4.985-7.781 7.417a130.373 130.373 0 0 1-14.14 23.282 451.068 451.068 0 0 0 32.868-29.817zM362.348 893.918l-55.616 25.33-11.082 23.272.024.593 3.275-1.324 11.13-23.352 52.148-24.388.002-.002zm-.121.13-52.149 24.39-11.127 23.351h-.002l-3.275 1.324.545 13.522s7.903 2.242 18.808 2.523c0 0 3.217 4.2 8.516 5.563 5.299 1.36 34.004 6.58 37.758 5.674 3.755-.908 4.86-2.727 4.86-2.727s4.856 4.088 13.247 4.541c8.39.456 29.444 3.63 33.197 3.404 0 0 4.277-.225 7.844-2.734h23.838l4.47-3.106 4.47 3.084h23.84c3.568 2.508 7.841 2.735 7.841 2.735 3.754.227 24.809-2.95 33.2-3.406 8.39-.454 13.247-4.538 13.247-4.538s1.103 1.817 4.856 2.725c3.756.907 32.459-4.311 37.758-5.674 5.299-1.361 8.52-5.562 8.52-5.562 10.902-.281 18.808-2.522 18.808-2.522l.545-13.523-3.278-1.324-11.128-23.354-47.8-22.353 1.28 1.378-19.574 20.41v.003l-10.246-8.735a101.12 101.12 0 0 1-7.526 5.291l4.692 12.602-7.916 3.486-17.961 7.916v-.002l-6.112-11.916a97.251 97.251 0 0 1-11.35 2.393l-.786 13.365h-28.278l-.785-13.365-.25-.04a100.794 100.794 0 0 1-11.103-2.353l-6.108 11.916-.002.002-25.879-11.404 4.694-12.602a100.183 100.183 0 0 1-7.524-5.289l-10.248 8.733-.002.002-19.57-20.412zm239.615 49.042-3.278-1.324v.002l3.278 1.324zm-236.238-52.684a444.892 444.892 0 0 1-82.215-24.066l-15.825 7.713 4.22 78.504.075.177 19.295-7.795 4.52-1.826-.024-.593 11.082-23.272 55.616-25.33zm0 0 2.628-2.834a104.54 104.54 0 0 1 0-.002 104.54 104.54 0 0 1-3.689-5.693c-1.025-.202-2.071-.344-3.094-.553h-.002l-4.123 1.38-6.373 2.134v-.002l-2.621-6.531a436.648 436.648 0 0 1-41.576-12.034 149.66 149.66 0 0 1-22-.597l-1.365.666a444.892 444.892 0 0 0 82.214 24.066zm-98.04-16.353-8.421 4.105-.377 44.418 13.017 29.98zm0 0-.619-11.543c-8.995-2.366-17.068-5.543-23.92-9.682-18.302-5.496-32.602-14.029-43.814-24.996-14.791-9.43-25.912-20.446-34.422-31.752a451.074 451.074 0 0 1-32.67-29.797l-1.892.069-20.045 142.191.488.074 29.07 4.475-1.342 15.002 34.829 7.015-1.21 16.928 29.749 4.356v10.4c20.304 4.308 43.58 7.006 69.699 6.771l.447-18.591-.129-2.414-13.017-29.983.377-44.418zM132.12 766.283a451.074 451.074 0 0 0 32.67 29.797 130.345 130.345 0 0 1-13.955-23.22c-2.474-2.294-4.902-4.634-7.322-6.983zm487.727 98.78c-1.52.622-3.059 1.202-4.586 1.808l14.693 7.162.578-10.78c-3.346.8-7.025 1.294-10.685 1.81zm0 0c-2.146.302-4.178.707-6.436.906l1.85.902c1.527-.606 3.067-1.186 4.586-1.808zm-248.518 26.365-5.523 5.953 13.185 13.754h.002l-13.185-13.754zm-87.94-25.088 1.366-.666c-1.647-.165-3.164-.447-4.75-.668 1.12.46 2.258.883 3.383 1.334zm-.001 0c-1.125-.45-2.263-.875-3.383-1.334-4.572-.637-8.974-1.422-13.059-2.496l.62 11.543zm19.482-9.496 38.541 4.22v-.002zm44.057 4.824 29.875 3.271.004-.002zm0 0h-.002l2.746 6.842zm2.744 6.842 4.103 10.222-4.101-10.222zm7.654 14.193-6.373 2.133v.002zm-3.55-3.97v.001l12.203-4.086a95.605 95.605 0 0 0 0-.002zm23.027-13.794 9.605 1.051-.002-.002-9.6-1.05-.003.001zM195.869 672.46a339.408 339.408 0 0 1-14.246-17.355c-.03-.04-.052-.06-.082-.1a339.404 339.404 0 0 0 14.328 17.455zm-14.246-17.355c-.322-.421-.662-.828-.982-1.25v.004c.293.387.605.76.9 1.146.03.04.052.06.082.1zm536.541.273c-5.567 7.258-11.383 14.315-17.51 21.092h.004c6.126-6.776 11.94-13.834 17.506-21.092zm-17.506 21.092h-.004c-1.225 1.355-2.501 2.66-3.748 3.994h.004c1.246-1.335 2.523-2.64 3.748-3.994zm-3.748 3.994h-.004c-2.41 2.582-4.82 5.165-7.31 7.67 2.49-2.506 4.903-5.088 7.314-7.67zm-315.63-.166.001-9.902a6.9 6.9 0 0 1-.002 0zm-195.82-41.559h-.001l-4.818 15.116zm316.638-14.465h.002v-19.517l-7.162-2.877 7.16 2.879zm9.863-21.57-5.107 2.053v.002zm-38.775 2.055v-.002l-7.163-2.877zm-108.957 0v-.002l-7.16-2.877zm11.916-2.88-7.16 2.878v.002zm-64.987 2.88 7.16-2.88-7.16 2.878zM303.6 577.08c.122 1.209.185 2.751.486 4.416l.002-.002c-.302-1.664-.366-3.206-.488-4.414zm296.953-.129c1.256 1.231 2.537 2.613 3.08 3.094-.55-.487-1.806-1.85-3.08-3.094zm-235.332 71.21v.001c.995-.105 1.738-.728 2.36-1.402-.622.674-1.365 1.295-2.36 1.4zm3.998-3.124c.836-.52 2.525-.457 3.35-.344 0 0 .37.065.704.53-.334-.465-.705-.532-.705-.532a9.23 9.23 0 0 0-1.2-.076c-.77 0-1.625.097-2.15.422zm181.568-.842c.346.596.614 1.37.684 2.442.072 1.113-.12 1.905-.451 2.468.33-.563.525-1.355.453-2.468-.07-1.075-.338-1.845-.686-2.442zm-217.564 19.362a6.542 6.542 0 0 1 4.716 2.015 6.546 6.546 0 0 0-4.716-2.015zm217.234 109.086a335.294 335.294 0 0 1-15.512 4.404 100.809 100.809 0 0 1 0 .002 335.299 335.299 0 0 0 15.512-4.406zm-2.799 35.117a368.615 368.615 0 0 0-.002.002 102.538 102.538 0 0 1 1.088 5.355 103.9 103.9 0 0 0-1.086-5.357zm14.979 34.174-12.399.955 12.399-.953zm-10.971 36.37-2.623 6.534h.002zm-13.123 3.02-2.244-.752v.002zm-148.139-9.088-1.65-5.988h-.002zm168.301-11.478-1.766 4.398.002.002zm-1.764 4.4-.002-.002-1.484 3.705zm-1.486 3.703h-.002l-1.144 2.854zm-85.607-81.658c12.334-.715 24.477-2.121 36.422-4.125v-.002c-11.945 2.004-24.087 3.412-36.422 4.127zm48.236-6.236c3.887-.796 7.72-1.739 11.557-2.666a95.58 95.58 0 0 1 0-.002c-3.838.928-7.67 1.872-11.557 2.668zm11.557-2.668a95.58 95.58 0 0 1 0 .002c1.589-.384 3.205-.7 4.785-1.106-1.58.407-3.196.72-4.785 1.104zm6.232 6.137 10.35-3.461v-.002zm-142.146-1.36-.002.002a338.42 338.42 0 0 0 36.423 4.125c-12.334-.715-24.477-2.123-36.421-4.127zm-29.602 1.361-10.352-3.464v.002zm14.865-35.863 9.824 8.37a95.767 95.767 0 0 1 7.99-5.616 95.95 95.95 0 0 0-7.99 5.613l-9.824-8.369zm36.371-20.941 5.856 11.42a94.584 94.584 0 0 1 .002 0l-5.856-11.42zm24.358 7.52a94.516 94.516 0 0 0 .002 0l.752-12.805h4.763l14.287-.002h-19.052Zm57.857 12.226v.002a95.887 95.887 0 0 1 13.606 9.562l9.822-8.369v-.002l-9.822 8.37a95.988 95.988 0 0 0-13.606-9.563zm60.084 90.027-12.793.99 12.793-.988zm-12.793.99a94.532 94.532 0 0 1-3.156 17.188h.002a94.552 94.552 0 0 0 3.154-17.188zm1.356 40.336-12.203-4.086 12.203 4.088zm12.484-17.976.87-2.164h-.003zm-11.242-7.87a103.379 103.379 0 0 0 1.82-9.923h-.002a103.371 103.371 0 0 1-1.818 9.924zm-15.701-80.75 9.152-9.866-19.574-20.413 19.572 20.413zm-28.194-26.835 4.692-12.6h-.002zm-21.185-24.004-6.112 11.92a97.567 97.567 0 0 1 .002 0zm-90.65 11.404h-.003l4.694 12.6zM358.28 855.584h.002a94.445 94.445 0 0 1-3.154-17.188h-.002a94.532 94.532 0 0 0 3.154 17.188zm.801 41.855 19.57 20.413.002-.002zm37.344 16.967-4.694 12.602h.002zm-4.692 12.602 25.877 11.404.002-.002zm90.65 11.402v.002l17.962-7.916zm25.876-11.4h.002l-4.692-12.602zm2.836-17.893 10.246 8.735v-.002zm19.828-1.258 9.992-10.42-1.28-1.378 1.278 1.378zm70.918 35.23v.003l23.814 9.623zm-3.278-1.323-11.126-23.352h-.002zm-299.615.023h.002l11.127-23.352zm-7.795 3.15-19.295 7.795v.002zm210.912-20.55-17.433 7.683 17.433-7.681zm-23.289-3.737v-.002a94.268 94.268 0 0 1-18.502 3.903 94.246 94.246 0 0 0 18.502-3.9zm-39.058 3.9a94.268 94.268 0 0 1-18.5-3.902l-.002.002a94.246 94.246 0 0 0 18.502 3.9zm-18.502-3.9-5.856 11.42h.002zm-5.856 11.42-17.431-7.683-.002.002zm-17.431-7.683 4.49-12.063a95.887 95.887 0 0 0-.002 0zm183.672-371.362a71.236 71.236 0 0 1 4.017 3.416v-.002a71.521 71.521 0 0 0-4.017-3.414zm4.084 4.772c-.337.424-.87.85-1.11 1.369h.002c.24-.52.771-.945 1.108-1.37zm2.318 10.226c-1.503.897-3.142 1.729-4.356 2.014-.182.045-.36.102-.535.106.174-.002.355-.06.537-.104 1.214-.285 2.851-1.119 4.354-2.016zm-271.473 2.12c-.174-.004-.353-.061-.537-.106-.83-.195-1.93-.825-2.976-1.377 1.047.553 2.146 1.184 2.976 1.379.184.044.363.101.537.104zm-1.465-10.977c-.48-1.039-2.124-1.703-1.043-2.725-1.085 1.021.563 1.685 1.043 2.725zm29.41-46.627c-.07.713-.345 1.559-.95 2.541-.563.913-.932 1.807-1.106 2.64.175-.833.544-1.727 1.107-2.64.606-.983.88-1.827.95-2.541zM143.513 765.877l4.193-.15c-10.073-25.202-9.725-45.86-9.725-45.86l7.508-20.33c.134-1.29 1.467-2.025 3.582-3.025 6.862 8.45 15.954 20.607 21.102 27.947.133-1.29 1.467-2.024 3.584-3.023.15-.071 4.862 6.094 9.584 12.26 4.724 6.17 9.454 12.339 9.629 12.26.483-1.44.778-1.976 2.38-3.352 6.454 6.39 13.912 14.936 19.542 20.619-.16-1.286.974-2.303 2.81-3.754.227-.047 12.703 8.497 25.184 17.04 12.53 8.58 25.068 17.159 25.22 17.042l2.077 4.515c-.162-1.286 2.802-2.304 4.64-3.753.112-.089 11.468 6.699 26.989 13.486 10.772 4.71 23.538 9.266 35.959 11.678l.08-4.381a379.089 379.089 0 0 1-37.125-13.373v-5.975a373.932 373.932 0 0 0 50.47 17.371l.057-.002c.299-1.796.685-3.58 1.088-5.357a368.543 368.543 0 0 1-51.615-17.99v-5.979a362.752 362.752 0 0 0 40.597 15.078l2.059-5.133a357.45 357.45 0 0 1-42.656-15.955v-6.039a352.342 352.342 0 0 0 44.716 16.861l2.057-5.126a346.817 346.817 0 0 1-46.773-17.803v-5.832C185.587 704.269 106.148 586.412 106.148 450c0-189.901 153.947-343.85 343.85-343.85 189.903 0 343.85 153.947 343.85 343.85 0 136.413-79.44 254.269-194.577 309.842v5.832a346.817 346.817 0 0 1-46.773 17.805l2.057 5.125a352.376 352.376 0 0 0 44.716-16.862v6.04a357.45 357.45 0 0 1-42.656 15.954l2.059 5.133a362.786 362.786 0 0 0 40.597-15.078v5.979a368.615 368.615 0 0 1-51.613 17.99 103.9 103.9 0 0 1 1.086 5.357l.059.002a373.968 373.968 0 0 0 50.468-17.37v5.974a379.126 379.126 0 0 1-37.126 13.375l.082 4.388c12.314-2.43 24.945-6.935 35.62-11.603 15.523-6.789 26.88-13.577 26.993-13.488 1.838 1.45 4.8 2.468 4.64 3.753l2.079-4.519c.083.065 8.333-5.607 13.81-9.33l-15.437 7.75-5.559-10.053c-2.253-.031 7.81-10.706 9.629-12.031 1.822-1.327 16.773-7.478 18.346-7.229 1.573.246 6.347 2.569 6.347 2.569 1.072-.503 1.787-.554 2.88-.791l-.96-2.83c-1.616-.081 5.096-7.198 6.438-8.102 1.342-.907 19.042-17.638 20.174-17.508 2.04.234 7.517.135 7.517.135 2.388-1.257 5.332-2.822 5.332-2.822s2.002.982 1.97 2.05c-.02.689-4.604 6.755-2.433 3.344-.579.874-.81 3.985-1.297 5.02-.488 1.035-24.863 20.598-26.388 21.144-.8.287-3.657.953-6.11 1.346a4.364 4.364 0 0 1-.013 1.232s-.96 2.366-2.096 4.38c8.371-5.72 18.088-12.384 18.252-12.35 1.838 1.45 2.972 2.464 2.81 3.754 5.63-5.684 13.087-14.23 19.541-20.621 1.603 1.376 1.898 1.912 2.381 3.351.175.08 4.905-6.09 9.63-12.258 4.72-6.164 9.432-12.332 9.583-12.261 2.117.998 3.452 1.734 3.586 3.025 5.145-7.34 14.235-19.499 21.098-27.95 2.115 1 3.452 1.738 3.586 3.028l7.508 20.33s.346 20.643-9.717 45.832l4.449.158c82.482-80.011 133.816-191.95 133.816-315.94 0-243.134-197.1-440.233-440.234-440.233-243.135 0-440.234 197.099-440.234 440.234 0 1.065.072 2.112.08 3.176l.066-5.37 5.297.217 1.172 16.329c-.01 1.237.929 5.64 2.234 6.85l5.451 5.792c4.199 4.466 7.968 12.293 10.956 20.41l-4.721 6.057L14.486 514.3C28.85 612.422 75.6 699.97 143.512 765.877zm6.638-496.88c.396.047.932.216 1.496.7 1.13.968 1 2.016 1 2.016s-1.75 2.504-3.005 4.185c0 0-.889 6.008-.963 7.598-.076 1.591-10.917 18.557-12.584 20.072-1.665 1.518-11.839 7.642-11.416 5.43l-8.725-7.475c-2.121.76-.119-5.987 2.256-11.505 2.377-5.52 13.065-17.634 14.625-17.954 1.56-.318 11.277.106 11.277.106 1.471-1.5 5.39-3.149 5.39-3.149s.254-.073.65-.025zm599.694 0c.395-.049.65.024.65.024s3.92 1.648 5.39 3.149c0 0 9.717-.424 11.278-.106 1.559.32 12.248 12.433 14.625 17.954 2.373 5.519 4.379 12.264 2.256 11.505l-8.723 7.475c.423 2.212-9.752-3.912-11.418-5.43-1.667-1.515-12.507-18.48-12.582-20.072-.075-1.59-.963-7.598-.963-7.598a199.714 199.714 0 0 1-3.005-4.185s-.134-1.048.998-2.016c.564-.484 1.099-.653 1.494-.7zm-639.34 17.732c1.44.378 2.232 1.603 2.232 1.603s.185.898-1.08 3.34c0 0-1.018 6.135-1.033 7.945-.012 1.59-6.697 22.51-7.535 24.6-.84 2.09-7.004 10.681-7.588 8.504l-5.395-1.371c-1.578 1.607-2.34-13.042-2.04-15.276.3-2.233 9.087-23.138 10.353-24.105 1.266-.965 6.807-1.504 6.807-1.504.182-.544 4.703-3.888 5.279-3.736zm678.988 0c.578-.152 5.099 3.192 5.281 3.736 0 0 5.54.539 6.805 1.504 1.266.967 10.054 21.872 10.354 24.105.3 2.234-.464 16.883-2.041 15.276l-5.395 1.37c-.582 2.178-6.75-6.413-7.588-8.503-.84-2.09-7.524-23.01-7.535-24.6-.015-1.81-1.033-7.945-1.033-7.945-1.265-2.442-1.078-3.34-1.078-3.34s.792-1.225 2.23-1.603zM14.486 514.3c-2.923-19.971-4.495-40.376-4.642-61.123l-.274 22.177 2.313 26.582 1.424 13.172zm0 0L30.3 503.463l4.72-6.057c-2.987-8.117-6.756-15.944-10.955-20.41l-5.45-5.793c-1.306-1.21-2.245-5.612-2.235-6.85l-1.172-16.328-5.297-.216-.066 5.369c.147 20.747 1.719 41.152 4.642 61.123zm96.018-227.572c-.576-.152-5.097 3.192-5.28 3.736 0 0-5.54.539-6.806 1.504-1.266.967-10.053 21.872-10.354 24.105-.299 2.234.463 16.883 2.041 15.276l5.395 1.37c.584 2.178 6.748-6.413 7.588-8.503.838-2.09 7.523-23.01 7.535-24.6.015-1.81 1.033-7.945 1.033-7.945 1.265-2.442 1.08-3.34 1.08-3.34s-.792-1.225-2.232-1.603zm39.646-17.733c-.395-.048-.648.025-.648.025s-3.92 1.648-5.39 3.149c0 0-9.718-.424-11.278-.106-1.56.32-12.248 12.433-14.625 17.954-2.375 5.519-4.377 12.264-2.256 11.505l8.725 7.475c-.423 2.212 9.751-3.912 11.416-5.43 1.667-1.515 12.508-18.48 12.584-20.072.074-1.59.963-7.598.963-7.598a205.964 205.964 0 0 0 3.005-4.185s.13-1.048-1-2.016c-.564-.484-1.1-.653-1.496-.7zm639.342 17.733c-1.438.378-2.23 1.603-2.23 1.603s-.187.898 1.078 3.34c0 0 1.018 6.135 1.033 7.945.011 1.59 6.696 22.51 7.535 24.6.839 2.09 7.006 10.681 7.588 8.504l5.395-1.371c1.577 1.607 2.341-13.042 2.04-15.276-.299-2.233-9.087-23.138-10.353-24.105-1.264-.965-6.805-1.504-6.805-1.504-.182-.544-4.703-3.888-5.28-3.736zm-39.648-17.733c-.395.048-.93.217-1.494.701-1.132.968-.998 2.016-.998 2.016a199.714 199.714 0 0 0 3.005 4.185s.888 6.008.963 7.598c.075 1.591 10.915 18.557 12.582 20.072 1.666 1.518 11.84 7.642 11.418 5.43l8.723-7.475c2.123.76.117-5.987-2.256-11.505-2.377-5.52-13.066-17.634-14.625-17.954-1.561-.318-11.277.106-11.277.106-1.47-1.5-5.39-3.149-5.39-3.149s-.256-.073-.651-.025z" transform="translate(1.217 -.051) scale(.03285)"/>
  </g>
</svg>