<svg id="Camada_1" data-name="Camada 1" xmlns="http://www.w3.org/2000/svg" viewBox="0 0 200 80"><path d="M109.79,50.14l8.31,14H125V37.71H109.79ZM131,33.74h-5.17V64.12H131a15.19,15.19,0,0,0,0-30.38m-10.75,3.1H125v-21h-4.71a10.48,10.48,0,0,0,0,21m-83-19.92V44.67h18Zm129.65,30.7H183V15.88H166.91ZM143.34,15.88h-17.5v17h17.5Zm40.55,48.24H200V48.49H183.89Zm-17,0H183V48.49H166.91Zm-19.84,0h16.11V15.88H147.07Zm-37.28,0h7.3l-7.3-12.27ZM29.89,25.3a9.43,9.43,0,0,0-9.42-9.42H17V34.71h3.49a9.42,9.42,0,0,0,9.42-9.41M0,34.71H16.11V15.88H0ZM0,64.12H16.11V35.59H0ZM22.12,35.59H17V64.12h5.14a14.27,14.27,0,1,0,0-28.53M63.9,57.91l-3.69,6.21h7.73Zm.5-.84L69,64.12h1.33a18.35,18.35,0,0,1,36.68,0h1.93V50.38L88.65,16.3Zm6.09-26.79a14.42,14.42,0,0,0-14.4-14.4H37.63l18.7,28.79A14.45,14.45,0,0,0,70.49,30.28M88.65,47.07A17.51,17.51,0,0,0,71.18,64.12h34.94A17.51,17.51,0,0,0,88.65,47.07M55.86,45.54H37.26V64.12H59.2l4.17-7Z"/></svg>