<?xml version="1.0" encoding="utf-8"?>
<!-- Uploaded to: SVG Repo, www.svgrepo.com, Generator: SVG Repo Mixer Tools -->
<svg fill="#000000" version="1.1" id="Layer_1" xmlns="http://www.w3.org/2000/svg" xmlns:xlink="http://www.w3.org/1999/xlink" 
	 width="800px" height="800px" viewBox="0 0 260 259" enable-background="new 0 0 260 259" xml:space="preserve">
<polygon points="256.64,73.218 245.26,70.737 227.247,56.851 198.115,54.537 194.251,47.498 171.156,39.172 159.257,38.146 
	161.421,29.724 157.58,25.406 150.542,8.037 142.669,21.827 119.891,23.615 100.964,28.722 94.165,19.536 97.338,11.33 
	92.877,2.406 87.533,7.345 66.275,13.286 71.619,22.447 53.153,32.492 45.326,23.235 28.554,25.716 27.075,38.29 31.584,45.542 
	27.081,63.861 8.657,73.218 7.536,82.356 2,90.348 14.836,106.906 24.976,103.327 25.381,113.277 40.674,112.25 51.124,104.592 
	59.929,103.661 59.665,112.632 66.49,121.149 90.563,128.402 92.805,130.502 94.88,145.652 105.545,145.771 110.436,154.981 
	109.458,183.539 122.508,185.138 125.562,196.112 132.577,196.566 135.01,217.179 122.938,225.864 117.737,236.862 141.762,256.594 
	144.243,247.503 158.964,231.948 166.05,222.5 166.503,210.021 176.738,199.285 190.72,193.751 207.229,192.271 214.482,186.044 
	214.864,181.511 223.716,169.582 230.921,145.723 230.921,128.76 235.74,126.088 258,99.533 "/>
</svg>