<?xml version="1.0" encoding="UTF-8" standalone="no"?>
<!-- Creator: CorelDRAW 2019 (64-Bit) -->

<svg xml:space="preserve" width="32mm" height="32mm" version="1.1" style="clip-rule:evenodd;fill-rule:evenodd;image-rendering:optimizeQuality;shape-rendering:geometricPrecision;text-rendering:geometricPrecision" viewBox="0 0 3202.8074 3202.7938" id="svg83" xmlns="http://www.w3.org/2000/svg" xmlns:svg="http://www.w3.org/2000/svg">
 <defs id="defs1"><style type="text/css" id="style1">
   <![CDATA[
    .fil0 {fill:#828CA2}
   ]]>
  </style></defs>
 <g id="Слой_x0020_1">
  <metadata id="CorelCorpID_0Corel-Layer" />
  <g id="_1673690038000" style="fill:#000000" transform="matrix(0.31496552,0,0,0.31496552,158.68624,-0.00681674)">
   <path class="fil0" d="m 1229.28,3304.9 c 0,168.66 33.57,318.46 85.83,448.04 36.21,89.82 103.56,183.61 181.69,242.02 l 37.55,30.24 c -139.54,0 -526.38,48.89 -610.13,93.21 43.29,64.64 182.96,163.53 244.15,204.97 55.3,37.44 214.49,152.34 281.25,167.89 -1.7,1.18 -4.57,0.56 -5.4,3.07 l -223.84,115.13 c -51.66,29.79 -187.28,94.32 -202.94,152.97 28.75,6.7 86.97,37.29 118.39,51.07 40.38,17.71 76.45,30.51 121.35,48.14 84.78,33.3 167,57.02 260.23,78.74 l -172.1,192.28 c -31.29,37.2 -86.19,85.18 -90.6,138.21 68.22,15.88 136.41,33.27 212.53,41.7 74.23,8.23 154.53,19.97 228.13,26.09 -28.23,121.21 -90,215.49 -101.69,355.91 68.03,0 143.11,4.58 206.96,-4.88 35.05,-5.2 67.01,-2.9 101.97,-8.2 34.99,-5.3 64.79,-12.34 97.83,-12.34 -14.68,176.49 -7.41,131.19 8.48,322.01 67,-1.49 291.23,-61.83 338.96,-84.73 42.38,88.3 59.9,196.21 127.11,296.59 109.1,-25.41 183.3,-46.72 271.18,-93.21 9.19,39.44 71.43,153.89 93.21,186.42 21.39,-14.32 29.35,-27.05 50.71,-42.5 347.97,-251.38 721.69,205.59 510.19,374.6 -28.29,22.62 -81.48,45.22 -119.07,58.88 -231.02,83.95 -292.24,69.34 -397.01,314.82 -32.38,75.88 -77.64,176.13 -171.93,183.98 20.3,30.31 54.79,42.38 101.69,42.38 91.64,0 154.05,-102.38 296.59,-135.59 0,67.54 -16.94,142.15 -16.94,211.86 0,58.97 12.47,124.17 16.94,177.96 32.68,-7.62 81.53,-43.61 110.64,-58.85 30.13,-15.77 94.23,-39.43 135.12,-42.84 -17.06,73.23 -35.56,239.44 0,313.53 51.32,-34.36 100.99,-71.78 162.9,-91.32 242.01,-76.37 318.14,-10.37 472.65,-10.37 v 8.48 c -75.22,0 -237.28,17.86 -237.28,84.74 0,48.18 30.09,94.32 32.84,145.25 2.72,50.11 -23.27,102.43 -24.36,151.34 118.67,0 173.73,2.69 270.1,-68.87 28,-20.8 36.73,-49.66 68.87,-58.24 29.98,204.09 -48.58,198.68 -101.69,271.18 98.89,0 228.19,-55.05 254.22,-152.53 h 16.94 c 4.97,59.83 88.99,163.7 135.59,194.9 52.97,-28.02 144.78,-108.7 161,-169.48 h 16.95 c 16.22,60.78 108.03,141.45 161,169.48 47.38,-31.73 130.59,-134.88 135.59,-194.9 h 16.94 c 26.03,97.49 155.34,152.53 254.22,152.53 -44.76,-61.1 -110.16,-69.01 -110.16,-194.91 0,-42.59 7.62,-37.94 8.47,-76.27 31.99,8.54 37.9,35.22 63.96,54.69 98.36,73.46 156.54,72.42 275.01,72.42 -1.99,-89.63 -38.51,-122.5 -11.61,-223.46 13.61,-51.04 86.18,-157.88 -217.19,-157.88 v -8.48 c 131.31,0 341.66,-81.16 559.86,50.28 30.71,18.5 48.73,33.36 75.7,51.41 35.56,-74.09 17.06,-240.3 0,-313.53 113.37,9.43 167.7,83.5 245.76,101.69 4.18,-50.37 16.94,-124.68 16.94,-177.96 0,-69.7 -16.94,-144.32 -16.94,-211.86 147.16,34.29 197.37,135.59 305.07,135.59 46.79,0 56.67,-16.91 93.21,-25.42 v -16.95 c -155.28,-12.92 -185.57,-302.34 -308.39,-394.96 -101.33,-76.42 -268.61,-79.16 -374.8,-159.07 -216.84,-163.16 146.81,-627.37 500.34,-381.7 26.75,18.59 32.29,30.25 55.74,45.95 21.78,-32.53 84.02,-146.98 93.21,-186.42 87.88,46.49 162.08,67.8 271.18,93.21 25.13,-37.53 50.53,-96.29 69.1,-142.75 l 58.01,-153.84 c 47.73,22.9 271.96,83.24 338.96,84.73 16.05,-192.86 22.83,-149.52 8.48,-322.01 l 192.56,19.29 c 60.91,8.06 140.15,6.14 214.2,6.14 -11.58,-139.22 -73.21,-233.69 -101.69,-355.91 145.3,-12.09 301.28,-35.32 440.66,-67.79 -4.56,-54.82 -139.74,-203.12 -188.39,-252.27 -26.68,-26.97 -53.99,-47.86 -74.32,-78.22 221.05,-51.51 454.88,-167.46 499.97,-177.96 -15.15,-56.76 -146.4,-121.34 -197.51,-149.92 -41.48,-23.2 -74.3,-41.08 -116.02,-61.93 l -118.64,-59.32 c 86.68,-20.19 325.21,-196.7 403.22,-257.76 26.42,-20.69 97.79,-97.8 122.18,-106.62 -29.35,-40.06 -223.09,-61.36 -285.52,-70.4 -87.62,-12.66 -225.08,-31.29 -324.61,-31.29 l 65.8,-52.84 c 25.5,-23.48 33.82,-36.39 55.53,-63.12 34.76,-42.83 72.98,-95.68 95.5,-150.24 89.52,-216.89 115.02,-471.22 52.7,-706.69 -7.11,-26.84 -10.93,-53.82 -32.26,-69.43 -36.06,154.82 -286.31,435.11 -395.85,561.72 -24.74,28.59 -34.75,31.85 -36.88,73.28 -9.25,179.93 -37.38,381.89 -118.08,534.42 85.39,40.98 181.63,77.72 263.2,126.6 30.11,18.06 53.68,35.18 84.23,51.35 -43.85,65.48 -206.83,228.16 -288.11,271.17 35.77,53.43 84.52,103.5 129.23,150.41 29.1,30.54 112.92,119.96 116.51,163.13 l -338.97,152.53 c 12.92,55.45 49.54,117.87 68.94,176.8 16.29,49.53 39.82,157.8 58.17,196.05 -86.55,1.93 -198.77,25.42 -313.53,25.42 h -84.74 c 0,211.63 -10.41,200.89 -25.42,381.33 -109.3,0 -296.41,-65.01 -372.86,-101.69 -15.91,68.28 -91.23,269.69 -144.07,305.07 -15.83,-59.29 -221.08,-194.9 -338.96,-194.9 -151.13,0 -210.22,44.22 -311.6,146 -59.92,60.16 -111.16,179.39 -136,270.77 -82.11,302 95.55,910.09 -144.11,1076.16 -195.49,135.47 -592.27,-59.59 -854.91,161.97 -28.95,24.42 -78.12,77.19 -87.2,116.18 h -16.95 c -19.79,-84.96 -130.1,-160.74 -206.69,-191.59 -238.29,-95.96 -721.64,68.86 -823.96,-192.93 -117.73,-301.19 91.22,-950.04 -187.3,-1236.34 -101.33,-104.16 -163.16,-150.22 -315.86,-150.22 -109.86,0 -202.76,57.66 -273.29,124.98 -18.34,17.51 -16.91,15.29 -37.03,30.77 -22.44,17.25 -21.52,12.49 -28.64,39.15 -52.29,-35.01 -128.54,-238.43 -144.07,-305.07 -76.45,36.68 -263.56,101.69 -372.86,101.69 -15.01,-180.45 -25.42,-169.71 -25.42,-381.33 l -245.75,-8.48 c -55.23,-1.36 -103.74,-15.85 -152.53,-16.94 l 56.08,-189.67 c 20.76,-63.07 57.78,-126.33 71.03,-183.19 -82.75,-39.7 -175.17,-63.46 -257.06,-107.33 -27.52,-14.75 -52.93,-37.46 -81.91,-45.2 2.5,-30.06 5.96,-26.41 21.31,-46.49 64.33,-84.07 175.33,-193.73 224.44,-267.05 -81.69,-43.23 -240.05,-199.38 -288.11,-271.17 l 347.43,-177.96 c -76.21,-158.82 -118.72,-339.02 -118.24,-517.32 0.2,-72.58 -43.08,-90.52 -82.63,-137.68 -68.03,-81.12 -127.26,-155.67 -191.41,-240.78 -40.39,-53.59 -143.27,-208.12 -158.53,-273.64 -20.39,14.93 -22.01,31.52 -30.5,62.71 -24.05,88.44 -37.3,163.81 -37.3,259.3 z" id="path1" style="fill:#000000" />
   <path class="fil0" d="m 1991.95,4194.68 c -60.4,14.07 -119.08,46.84 -172.3,73.44 -29.19,14.58 -50.68,23.83 -78.38,40.27 -29.46,17.48 -51.6,32.37 -79.81,47.3 47.37,70.73 127.63,132.24 197.3,184.03 25.01,18.6 58.64,38.97 73.87,61.71 -32.7,48.83 -133.07,137.72 -183.9,197.43 -20.85,24.48 -39.1,46.77 -53.38,73.73 69.91,46.82 252.92,115.54 338.97,135.59 -18.41,68.94 -142.62,228.3 -152.53,347.43 50.07,1.12 125.6,15.67 177.68,17.23 66.29,1.98 136.86,-0.27 203.66,-0.27 -15.4,185.08 -8.22,146.93 8.47,347.43 111.92,-2.49 241.14,-58.4 338.97,-110.17 20.01,41.69 29.85,103.52 45.46,149.45 15.87,46.68 45.28,91.69 56.23,138.67 33.99,-7.92 26.52,-8.02 49.06,-27.2 117.12,-99.73 284.95,-127.78 428.93,-77.92 62.34,21.59 102.26,50.69 148.08,89.19 45.9,38.56 78.22,84.64 109.68,136.07 17.89,29.24 27.07,87.98 60.82,100.19 -21.97,-94.3 -8.48,-810.91 -8.48,-966.05 0,-50.43 16.32,-93.21 67.8,-93.21 h 2016.83 c 51.48,0 67.8,42.78 67.8,93.21 0,155.14 13.49,871.74 -8.48,966.05 40.7,-14.72 80.09,-242.86 318.58,-325.45 86.1,-29.83 176.7,-37.88 269.39,-8.29 58.67,18.74 110.12,44.45 155.09,82.19 25.16,21.12 16.41,22.58 53.52,31.22 11.18,-47.99 39.96,-90.81 56.23,-138.67 15.62,-45.94 25.49,-107.83 45.46,-149.45 l 153.57,66.76 c 44.06,14.73 133.31,42.25 185.39,43.41 16.68,-200.51 23.87,-162.35 8.47,-347.43 107.12,0 187.29,10.27 285.91,-2.21 22.53,-2.86 69.62,-12.59 95.42,-14.74 -4.65,-55.95 -48.23,-133.93 -66.6,-179.15 -23.09,-56.86 -70.34,-109.91 -85.94,-168.29 93.7,-21.83 270.68,-89.86 338.97,-135.59 -20.62,-38.96 -53.67,-70.48 -82.2,-104.22 -45.84,-54.21 -117.22,-110.43 -155.08,-166.95 32.17,-48.03 209.17,-153.16 271.18,-245.75 l -152.53,-84.74 c -26.42,-13.2 -50.08,-26.1 -79.05,-39.59 -31.35,-14.6 -62.06,-23.06 -90.44,-36.67 23.51,-100.91 135.59,-125.51 135.59,-677.92 -28.54,19.11 -58.14,96.6 -79.84,132.02 -80.17,130.82 -183.63,237.35 -290.9,344.65 -108.03,108.07 -229.95,194.29 -356.51,279.03 -217.54,145.68 40.86,316.64 40.86,557.78 0,249.17 -231.86,440.66 -474.55,440.66 -81.3,0 -176,-5.11 -247.6,-23.58 -38.21,-9.86 -101.63,-20.43 -125.27,-52.69 108.34,0 208.73,-91.82 228.8,-177.96 l -93.21,8.47 c -59.47,0 -79.35,-21.45 -127.11,-25.42 v -16.94 c 38.19,-10.2 75.17,-52.39 76.27,-101.69 -66.17,35.01 -192.65,53.8 -262.59,8.36 -41.48,-26.94 -11.89,-28.78 -79.65,-38.98 -144.5,-21.75 -291.61,-86.34 -381.78,-202.93 -19.76,-25.55 -38.38,-38.79 -47.12,-71.51 h -16.94 c -3.51,42.21 -23.87,93.62 -34.02,135.47 -8.5,35.08 -24.43,105.03 -25.3,144.18 -55.19,-29.21 -108.85,-81.78 -147.76,-131.89 -34.91,-44.95 -92.75,-114.31 -106.46,-173.18 -34.87,9.31 -36.25,30.3 -55.66,62.98 -42.2,71.03 -106.71,173.58 -113.82,259.04 h -16.95 c -3.46,-41.7 -50.59,-143.92 -67.69,-178.05 -19.28,-38.49 -61.59,-133.24 -101.79,-143.97 -22.95,98.49 -167.2,259.02 -254.22,305.07 -0.87,-39.14 -16.8,-109.1 -25.3,-144.18 -10.15,-41.85 -30.51,-93.26 -34.02,-135.47 h -16.94 c -11.17,41.83 -70.5,99.93 -102.87,125.93 l -142.84,94.43 c -60.87,30.62 -91.88,41.69 -175.75,53.06 -101.51,13.75 -66.59,65.55 -222.58,65.55 -49.85,0 -94.62,-16.71 -127.11,-33.9 1.14,51.18 37.22,91.26 76.27,101.69 v 16.94 c -50.17,4.18 -91.67,25.42 -161.01,25.42 -29.21,0 -32.81,-6.27 -59.31,-8.47 20.07,86.14 120.46,177.96 228.8,177.96 -36.99,50.48 -220.86,76.27 -279.65,76.27 -166.47,0 -306.89,-22.3 -421.7,-129.12 -154.22,-143.47 -184.42,-330.78 -92.46,-529.1 53.47,-115.31 141.83,-234.23 -7.65,-336.84 -45.05,-30.92 -83.07,-52.91 -127.14,-84.71 -43.59,-31.45 -76.38,-59.82 -118.62,-93.23 -159.22,-125.88 -352.15,-329.17 -444.42,-513.15 -15.42,-30.76 -13.07,-48.49 -42.18,-67.98 0,207.47 2.32,358.46 71.33,538.79 24.69,64.52 38.96,88.72 72.72,139.13 z" id="path2" style="fill:#000000" />
   <path class="fil0" d="m 3949.47,6957.23 15.6,-49.49 28.31,39.47 c 30.18,31.53 46.28,26.97 91.66,26.97 1.2,53.62 37.83,84.73 -16.94,84.73 -63.56,0 -118.63,-41.31 -118.63,-101.69 z m 101.69,-1745.66 c 49.84,-10.56 30.74,19.35 101.33,118.99 24.21,34.17 40.46,29.01 60.12,58.62 33.04,49.74 6.11,50.19 9.44,93.04 2.88,37.19 152.08,263.26 173.86,299.78 l 177.96,296.6 c 35.88,60.13 159.8,249.33 172.16,302.38 -31.86,0.71 -54.52,9.62 -78.29,14.92 -92.76,20.71 -181.34,18.98 -286.09,18.98 -10.63,45.63 -31.02,55.73 -50.84,93.21 35.95,-9.6 31.48,-24.35 56.87,-45.4 33.28,-27.57 34.16,-5.44 87.19,-5.44 -4.37,52.53 -51.79,89.8 -82.96,120.47 -64.09,63.01 -5.26,117.83 53.29,188.87 28.93,35.09 31.56,16.63 77.02,33.14 68.88,25.01 20.3,64.29 147.56,64.29 v -16.94 c -111.17,0 -90.94,-86.43 -84.73,-161.01 30.35,34.92 21.3,80.41 76.27,93.21 -10.02,-37.51 -33.9,-52.57 -33.9,-110.16 0,-57.06 15.92,-69.38 25.42,-110.17 h 16.94 c 0,81.75 30.99,132.57 84.74,161.01 -8.16,-30.56 -23.08,-37.1 -36.52,-65.17 -28.56,-59.58 -29.21,-130.8 5.79,-185.9 7.68,-12.1 14.76,-19.96 22.26,-28.58 4.75,213.11 254.22,236.27 254.22,483.02 28.93,-0.65 36.33,-3.95 51.05,-16.74 26.22,-22.79 25.21,-52.29 25.21,-84.94 0,-41.38 -73.48,-47.43 -98.38,-105 -32.79,-75.84 -27.26,-70.2 -96.52,-106.85 -6.99,-8.42 7.7,-2.51 16.94,-25.42 l -20.63,-30.22 c -7.96,-12.52 -12.34,-19.31 -20.03,-30.82 -143.44,-214.81 -46.66,-112.48 -102.68,-202.16 l -403.8,-672.64 c -21.23,-35.45 -70.73,-105.87 -79.94,-140.38 61.93,0 79.57,14.35 127.11,25.42 -13.14,-49.22 -33.54,-37.15 1.57,-83.17 63.39,-83.06 176.38,-90.71 176.38,23.86 0,32.74 -60.86,85.7 -84.74,101.69 60.23,82.19 118.16,40.89 90.32,149.63 -3.81,14.9 -7.05,33 -9.87,50.09 -6.92,42 -5.11,69.08 21.24,88.39 0,-206.11 164.67,-374.97 365.84,-306.51 49.34,16.79 80.85,57.52 111.06,92.32 15.61,17.99 36.81,33.85 65.45,36.23 -10.97,41.09 -29.63,27.9 -44.88,65.29 -16.19,39.67 -3.02,38.23 -29.68,80.49 -20.95,33.23 -57.21,121.82 -61.03,167.77 -58.67,-1.31 -61.87,-27.47 -59.94,-76.54 1.23,-31.28 -3.3,-40.13 -9.24,-66.11 -8.01,-35.03 -4.78,-79.92 -45.96,-57.88 -112.82,60.39 30.02,187.24 38.87,293.74 -3.44,1.83 -32.91,16.95 -33.89,16.95 -72.73,0 -139.43,-29.6 -183.11,-62.64 -44.67,-33.8 -72.08,-75.24 -99.57,-120.77 -10.53,-17.45 -3.13,-7.56 -13.92,-19.97 0,166.3 120.86,245.75 288.12,245.75 18.85,35.61 21.61,49.62 76.27,50.84 v -110.17 c 55.93,-13.02 126.6,-25.42 186.43,-25.42 l 86.75,116.63 c 75.6,81.2 82.73,69.9 82.73,188.44 0,45.58 -67.79,9.07 -67.79,-8.47 0,-53.31 17.95,-60.9 -8.14,-101.8 -16.87,-26.45 -42.3,-46.59 -65.71,-70.13 -31.04,-31.2 -44.51,-35.95 -94.04,-21.84 -37.61,10.72 -65.82,19.07 -86.34,49.7 52.6,0 115.82,-19.62 149.94,2.54 34.21,22.23 33.89,90.97 43.13,126.4 12.06,46.24 28.28,86.91 38.4,132.09 11.8,52.73 -24.08,66.72 -36.57,120.31 -26.97,-7.2 -40.69,-29.41 -59.32,-50.84 41.78,-78.94 42.35,-88.82 15.3,-176.3 -23.35,-75.58 -52.11,-59.63 -117.44,-44.47 -27.02,6.28 -42.07,8.98 -75.47,9.27 -127.36,1.1 -93.3,10.94 -161.35,16.6 8.51,36.54 48.75,83.87 69.45,116.98 13.65,21.82 20.8,35.19 35.55,57.66 16.2,24.7 23.57,45.49 47.53,54.16 -6.73,-28.87 -50.28,-84.74 0,-84.74 27.49,0 54.08,45.33 74.7,60.89 34.54,26.07 62.03,19.1 93.08,50.97 96.19,98.77 34.99,53.47 154.69,108.01 16.77,7.65 7.1,2.39 16.49,8.92 -37.66,0 -49.43,4.4 -76.27,-8.47 8.56,32.02 16.35,24.64 33.9,50.84 -53.59,-1.2 -74.72,-35.93 -76.27,33.89 89.94,-43.15 84.74,86.93 84.74,144.07 0,75.54 -40.25,94.43 -67.8,135.58 26.51,0 71.93,-6.44 82.63,-3.88 19.87,4.73 39.41,35.74 44.48,54.73 -30.94,-6.55 -24.54,-14.1 -25.42,25.42 -31.02,-2.57 -88.7,-14.06 -116.63,-12.49 -33.47,1.88 -144.52,48.94 -149.81,-4.58 -3.5,-35.5 30.25,-20.52 -0.7,-38.58 -12.66,-7.39 -92.25,4.81 -122.66,4.81 -40.97,0 -8.48,-41.81 -8.48,-76.27 0,-47.77 -36.82,-89.22 -84.74,-93.21 76.47,114.19 44.59,98.73 -8.47,177.96 27.7,7.4 36.71,21.27 50.84,42.37 -76.89,-6.4 -19.83,-18.2 -67.8,16.95 -46.57,-31.19 -103.28,-8.48 -169.48,-8.48 7.89,-29.54 28.42,-35.17 59.32,-42.37 -12.5,-17.05 -29.99,-25.8 -48.88,-44.34 -71.82,-70.48 -159.47,-198.78 -276.92,-179.98 -214.44,34.34 -19.88,274.71 20.74,122.63 -31.4,7.32 -23.7,13.98 -59.32,16.94 l -26.86,-32.59 c 18.99,-74.72 116.64,-70.93 159.06,-23.34 73.37,82.32 5.19,174.56 -106.77,174.56 -232.77,0 -246.62,-305.49 -52.13,-374.14 20.78,-7.34 58.38,-14.94 77.55,-24.14 -14.08,-60.44 -48.99,-77.91 -76.27,-118.63 l 42.37,-110.17 c -25.77,6.01 -21.32,5.72 -40.24,19.08 -136.77,96.6 -213.99,30.48 -213.99,243.62 l 50.84,110.16 c -34.77,16.69 -40.61,11.45 -76.27,8.48 -1.33,-60.09 -29.55,-56.51 -34.2,-110.44 -4.44,-51.54 16.98,-66.19 -1.25,-219.83 60.14,-30.66 138.46,-84.97 124.29,-164.99 -6.08,-34.33 -27.31,-74.31 -36.51,-107.87 -14.51,-53.01 2.95,-108.69 -52.33,-108.69 -80.25,0 8.48,123.94 8.48,177.96 0,56.59 -13.13,116.54 -54.09,149.3 -34.38,27.49 -70.77,49.66 -123.87,54.08 126.29,-109.77 -147.89,-308.37 -14.86,-455.51 29.62,-32.76 72.92,-35.99 116.55,-35.99 65.49,0 92.68,36.62 135.59,59.32 77.95,-52.2 84.27,-58.07 186.06,-76.63 60.37,-11.01 32.44,-27.88 49.22,-78.59 9.03,-27.25 17.71,-17.57 12.37,-43.13 -3.32,-15.94 -12.93,-21.95 -18.86,-47.4 -32.46,21.73 -59.32,80.02 -59.32,135.58 -51.87,0 -95.88,-11.68 -134.56,-26.44 -19.75,-7.54 -36.32,-15.1 -56.86,-27.88 -22.11,-13.74 -29.29,-23.72 -54.33,-30.41 12.53,-53.81 55.83,-84.25 67.79,-135.59 -43.69,29.26 -64.34,67.04 -93.21,110.17 -22.2,-14.86 -35.13,-21.1 -59.32,-33.9 l 127.11,-186.43 c -68.92,36.47 -118.38,80.68 -158.08,147.58 -25.08,42.29 -13.81,21.91 -70.72,21.91 l 111.62,-201.93 c 42.22,-65.38 98.71,-118.91 176.5,-137.04 -8.61,58.55 -13.53,125.27 20.19,174.71 36.23,53.12 84.22,58.8 140.81,45.61 -27.21,-37.14 -78.7,-7.04 -106.72,-88.18 -18.51,-53.61 -9.98,-117.38 -11.41,-183.49 -0.69,-31.95 -29.97,-127.64 -44.08,-150.82 l -75.06,-128.32 z m -474.56,-16.94 v 1830.4 c 0,471.34 371.03,217.41 771.32,321.84 68.96,18 203.52,90.4 220.15,152.7 h 16.95 c 16.62,-62.25 145.71,-128.97 215.17,-149.22 234.74,-68.43 553.59,14.35 671.46,-57.3 82.72,-50.28 104.84,-140.73 104.84,-268.02 v -1830.4 c 0,-28.57 -14.97,-59.32 -42.38,-59.32 H 3618.97 c -27.4,0 -42.38,30.76 -42.38,59.32 z" id="path3" style="fill:#000000" />
   <path class="fil0" d="m 5169.74,8711.37 z m -1186.38,0 z m 0,0 -123.49,147.68 c -112.44,150.1 -235.42,379.97 -241.19,580.81 -6.57,228.74 98.57,421.99 308.78,505.31 76.61,30.37 129.63,45.78 233.85,45.78 -58.71,-252 -88.21,-376.92 -34.78,-644.92 19.16,-96.06 51.95,-194.63 91.18,-273.21 26.55,-53.18 107.38,-190.89 146.98,-217.4 -32.11,137.83 -54.77,178.52 -83.64,348.53 -46.6,274.33 -62.38,670.34 149.19,882.47 27.08,27.15 95.83,78.24 138.96,82.14 41.63,3.76 117.84,-47.72 140.96,-69.42 223.58,-209.82 209.56,-609.54 163.06,-887.9 -29.67,-177.61 -49.98,-206.26 -84.82,-355.82 95.78,64.15 209.46,346.74 238.16,490.61 53.43,267.99 23.93,392.91 -34.78,644.92 212.9,0 424.98,-112.71 503.72,-309.79 126.24,-315.96 -65.67,-652.66 -259.17,-892.34 -22.09,-27.36 -50.23,-53.02 -66.6,-77.45 32.01,7.46 89,49.84 116.33,70.09 60.83,45.09 143.63,126.16 191.24,190.1 116.35,156.2 206.49,355.27 209.88,561.65 1.47,89.21 -22.25,125.09 -25.96,169.63 20.55,-9.86 66.34,-13.2 96.37,-22.27 128.28,-38.7 303.94,-124.19 383.11,-227.03 32.81,-42.64 83.75,-93.14 96.76,-148.99 -42.74,0.95 -53.48,15.17 -107.02,5.55 -149.19,-26.79 -135.56,-229.36 -212.56,-389.32 -41.99,-87.23 -92.4,-97.71 -104.13,-141.62 59.5,-15.88 125.41,-126.55 127.12,-203.38 -146.44,34.11 -198.25,50.37 -386.73,-11.56 -62.78,-20.63 -108.54,-37.51 -167.78,-61.02 l -165.8,-71.47 c -40.73,27.26 -46.7,29.56 -101.69,42.37 22.34,30.49 35.79,16.7 93.21,42.37 l 281.46,150.73 c 65.4,44.04 198.44,139.16 208.69,224.28 5.63,46.83 -14.45,81.75 -41.03,99.55 -6.63,-24.84 -36.91,-58.92 -54.29,-81.29 -48.68,-62.65 -192.4,-188.98 -259.68,-231.82 -82.73,-52.7 -132.7,-83.91 -226.36,-122.57 -59.9,-24.73 -44.39,3.48 -44.39,71.29 -50.81,0 -39.46,8.33 -86.83,2.76 -34.98,-4.1 -72.83,-9.01 -99.6,-11.24 47.07,70.3 309.36,273.62 405.97,585.5 18.76,60.56 29.84,139.88 -14.2,196.07 -21.29,27.15 -24.48,18.36 -52.81,31.94 -34.23,-411.34 -351.2,-687.87 -364.38,-737.25 -49.9,13.33 -50.86,82.33 -109.86,83.37 -32.08,0.57 -117.95,-43.97 -144.37,-57.95 0,85.48 10.12,168.41 16.49,246.2 7.2,87.69 8.93,171.98 8.93,262.25 -0.01,157.06 30.06,400.59 -59.32,466.08 -89.35,-65.46 -59.31,-307.89 -59.32,-466.08 0,-199.92 25.42,-362.48 25.42,-508.45 -28.04,14.84 -105.78,54.92 -137.65,57.56 -31.12,2.58 -47.55,-15.52 -63.92,-33.94 -24.82,-27.93 -16.82,-39.47 -52.66,-49.04 -5.4,20.26 -97.25,124.06 -118.64,152.52 -38.04,50.62 -80.12,111.41 -110.21,169.44 -69.67,134.4 -122.15,254.46 -135.53,415.28 -21.4,-10.26 -59.55,-12.65 -78.71,-82.35 -48.72,-177.22 206.71,-516.39 335.04,-644.3 29.51,-29.42 60.32,-53.55 82.62,-86.86 l -186.42,8.48 c 0,-63.95 36.24,-126.29 -138.31,-28.14 l -171.86,107.78 c -58.51,40.28 -100.68,81.22 -149.55,130.09 -29.09,29.09 -113.83,112.83 -124.99,154.66 -59.22,-39.65 -55.73,-125.65 6.16,-188.76 111.39,-113.6 330.39,-252.05 486.59,-301.49 31.83,-10.08 33.32,-4.46 49.59,-26.67 -54.99,-12.81 -60.96,-15.1 -101.69,-42.37 -29.18,6.8 -51.39,22.07 -77.46,32.7 -103.25,42.1 -130.13,58.41 -256.11,99.8 -66.77,21.94 -111.29,28.55 -189.33,39.7 -83.93,12 -124.98,-11.27 -197.4,-28.14 1.71,76.83 67.62,187.49 127.12,203.38 -8.72,32.64 -32.11,42.42 -52.98,65.67 -14.17,15.79 -39.42,53.18 -48.35,70.28 -56.44,108.13 -67.69,274.74 -133.63,349.4 -23.3,26.38 -33.11,35.26 -74.6,44.15 -57.08,12.23 -68.44,-3.08 -114.16,-4.1 30.87,132.48 247.19,291.25 384.88,343.9 31.61,12.09 57.58,20.38 88.55,30.1 24.8,7.78 83.97,15.24 102.82,24.29 -2.66,-31.9 -11.06,-41.91 -17.25,-75.98 -16.78,-92.46 -7.22,-166.54 13.84,-257.92 37.06,-160.8 89.62,-264.5 180.03,-387.74 52.94,-72.16 122.81,-143.28 193.72,-196.08 28.26,-21.05 88.09,-66.06 121.15,-73.75 z" id="path4" style="fill:#000000" />
   <path class="fil0" d="m 6127.31,7287.72 c 0,217.65 -35.19,261.16 -42.37,347.44 -36.16,-24.22 -110.45,-113.94 -203.38,-135.59 0,57.4 4.64,119.02 -3.37,174.58 l -30.53,155.91 c -25.32,-6.76 -76.63,-48.16 -108.44,-69.52 -42.52,-28.54 -75.99,-42.59 -120.37,-66.07 3.16,38 6.8,25.35 26.47,66.75 112.86,237.31 23.96,434.44 46.35,487.12 22.01,51.77 104.61,38.16 173.26,38.98 l 199.47,12.38 c 160.31,23.78 395.01,25.09 536.06,116.45 71.46,46.28 50.94,79.98 131.85,190.17 17.6,23.97 28.96,42.78 64.44,45.73 9.77,-41.95 42.15,-89.46 69.56,-116.87 53.11,-53.11 155.6,-126.51 184.66,-1.76 h 16.94 c 3.59,-43.19 58.78,-118.64 93.22,-118.64 40.84,0 64.59,-3.34 100.43,52.11 14.91,23.07 32.44,50.83 35.15,83.48 h 16.95 c 1.38,-16.67 4.65,-33.52 11.76,-47.55 33.21,-65.47 120.46,-15.37 159.98,19.87 45.97,40.98 48.27,67.28 74,120.9 28.9,-19.35 89.84,-111.27 109.79,-144.44 79.19,-131.7 46.61,-114.99 76.65,-177.58 H 6737.42 c -140.51,0.23 -118.63,36.17 -118.63,-186.43 h 466.08 v -483.02 c -196.43,16.34 -396.51,203.63 -451.7,404.19 -7.49,27.24 1.21,53.41 -82.17,53.41 -84.24,0 -205.67,-28.59 -284.58,-45.91 -122.5,-26.89 -232.34,-47.71 -232.34,-132.05 0,-51.97 58.2,-110.16 110.17,-110.16 58.75,0 147.72,14.89 191.7,5.31 59.49,-12.95 93.04,-47.06 121.84,-90.06 -159.1,0 -177.05,-98.14 -186.72,-245.46 -7.8,-118.71 -38.98,-270.52 -152.23,-279.95 0.85,38.32 8.47,33.68 8.47,76.27 z" id="path5" style="fill:#000000" />
   <path class="fil0" d="m 4161.32,4152.31 -99.67,-137.61 c -33.88,-41.07 -70.77,-97.37 -112.18,-125.09 -14.6,30.44 -23.44,62.93 -39.43,96.15 l -97.98,181.67 c -55.98,89.44 7.26,163.8 -54.36,369.35 -27.04,90.22 -42.45,123.91 -87.88,191.76 94.23,0 174.31,-52.73 239.97,-107.46 56.87,-47.41 23.27,-21.3 71.47,-72.59 37.68,-40.1 99.55,-150.38 103.78,-201.28 27.71,20.3 60.35,102.25 79.11,141.22 27.15,56.43 41.31,107.19 56.48,172.32 44.28,-32.45 154.84,-256.27 161.01,-330.49 h 16.94 c 7.44,27.83 149,200.19 169.48,288.11 h 16.95 c 10.33,-44.33 89.43,-171.64 122.2,-216.76 16.73,-23.05 40.25,-45.02 47.28,-71.35 h 16.94 c 6.18,74.22 116.73,298.04 161.01,330.49 14.41,-61.85 28.36,-112.51 53.68,-166.66 18.07,-38.64 54.69,-126.94 81.91,-146.89 6.04,72.6 92.71,197.05 146.94,251.34 15.1,15.12 8.46,6.59 23.6,18.77 70.7,56.87 142.36,111.23 244.68,111.23 -176.26,-263.23 -81.68,-462.95 -138.9,-555.98 l -98.5,-181.14 c -16.01,-32.47 -26.73,-69.5 -42.25,-101.82 -73.23,49.04 -163.33,206.88 -211.85,262.7 0,-81.91 -17.73,-244.14 -33.9,-313.54 -29.76,7.95 -75.88,46.61 -112.88,65.08 -196.18,97.87 -168.17,25.79 -220.59,135.32 -16.67,34.83 -38.37,93.14 -39.38,138.57 h -16.95 c -1.01,-45.43 -22.71,-103.74 -39.38,-138.57 -34.48,-72.03 -17.5,-57.87 -95.09,-82.86 -132.78,-42.75 -205.41,-108.74 -238.38,-117.53 -16.17,69.4 -33.9,231.63 -33.9,313.54 z" id="path6" style="fill:#000000" />
   <path class="fil0" d="m 3229.17,2881.19 c -8.37,-35.92 -30.15,-54.91 -48.61,-87.57 -26.76,-47.31 -29.81,-57.49 39.33,-57.18 93.47,0.42 186.92,0.68 280.45,0.68 -11.9,10.35 -12.76,11.24 -31.18,19.67 -142.94,65.37 -56.31,1.39 -239.99,124.4 z m -254.22,-288.12 c -6.33,9.45 -25.42,28.5 -25.42,33.9 0,89.14 104.95,276.56 163.5,344.93 16.49,19.27 24.69,25.04 39.87,44.87 44.28,57.86 54.68,52.66 91.16,86.8 l 144.17,118.52 c 33.42,27.45 60.67,47.84 93.27,76.22 19.94,17.34 28.61,18.33 46.42,38.32 24.45,27.44 11.18,34.51 48.68,44.53 0,-67.89 37.95,-122.62 50.84,-177.96 h 16.95 c 10.11,37.86 67.33,88.51 95.33,116.52 34.23,34.25 72.09,85.48 133.47,86.86 -35.64,-152.98 -25.42,-122.88 -25.42,-279.65 127.51,85.38 254.03,175.23 437.12,132.06 37.9,-8.94 45.61,-22.4 79.79,-30.37 v -16.94 c -119.18,-9.92 -226.96,-116.23 -279.65,-194.91 115.08,0 139.08,-4.51 228.8,-25.42 v -25.42 c -56.11,-4.66 -136.55,-65.17 -161,-101.69 91.06,-7.58 206.16,-76.48 245.75,-135.58 -17.7,-8.5 -158.43,-1.07 -194.9,-50.84 76.35,-20.39 139.06,-165.41 169.48,-228.8 -34.71,2.88 -42.2,13.6 -67.86,25.35 -20.67,9.46 -46.2,16.93 -67.72,25.49 -42.93,17.07 -97.66,33.99 -149.07,45.84 -114.35,26.34 -222.08,32.5 -343.67,46.13 l -769.9,1.24 z" id="path7" style="fill:#000000" />
   <path class="fil0" d="m 5652.76,2737.13 c 90.55,0 181.17,0.72 271.7,-0.47 139.61,-1.83 19.42,58.91 -0.53,144.54 -197.28,-132.11 -169.59,-83.99 -251.37,-129.96 -17.31,-9.73 -10.53,-6.04 -19.8,-14.1 z m -703.36,-59.31 c -33.26,45.4 -140.34,46.2 -186.42,42.37 6.28,75.45 175.47,138.91 237.27,144.06 -24.45,36.52 -104.89,97.03 -161,101.69 v 25.42 c 89.72,20.91 113.72,25.42 228.8,25.42 -52.69,78.68 -160.46,184.99 -279.65,194.91 v 16.94 c 36.63,8.54 72.46,42.37 169.48,42.37 142.33,0 260.77,-86.03 347.43,-144.06 0,156.77 10.22,126.66 -25.42,279.65 80.32,-1.79 220.78,-173.32 228.8,-203.38 h 16.95 c 12.89,55.34 50.84,110.07 50.84,177.96 36.02,-9.62 23.08,-13.32 44.83,-39.9 15.04,-18.39 27.51,-23.71 45.76,-38.98 l 233.5,-190.21 c 21.27,-21.16 29.71,-23.89 50.82,-42.39 95.99,-84.04 252.16,-320.13 252.16,-442.71 0,-5.39 -19.1,-24.45 -25.42,-33.9 -345.9,0 -785.95,24.28 -1106.62,-45.86 -49.67,-10.87 -106.32,-27.52 -150.04,-44.86 l -141.56,-53.34 c 30.9,64.4 92.5,208.24 169.48,228.8 z" id="path8" style="fill:#000000" />
   <path class="fil0" d="m 7974.67,2999.83 c 33.24,69.27 51.01,256.13 59.31,355.91 83.94,-56.21 152.4,-148.95 214.04,-218.14 59.62,-66.92 139.06,-180.06 185.91,-254.74 24.94,-39.77 89.71,-152.28 100.03,-196.57 22.97,16.83 42.37,62.82 42.37,101.69 0,121.61 -84.61,217.26 -140.31,291.87 -20.36,27.28 -31.18,33.63 -51,59.16 l -311.35,290.3 c -83.49,65.76 -19.15,48.01 -104.28,285.53 -10.59,29.55 -18.6,51.63 -31.39,78.77 -13.91,29.5 -28.16,43.62 -31.12,79.06 27.74,-14.68 50.78,-32.96 76.21,-50.9 l 225.21,-173.09 c 139.64,-109.67 413.48,-370.04 509.36,-549.9 147,-275.77 186.35,-520.31 42.4,-808.04 -23.47,-46.91 -115.22,-201.11 -175.23,-206.1 -25.07,107.6 -215.99,396.03 -276.25,486.42 -33.6,50.4 -276.66,390.46 -333.88,428.79 z" id="path9" style="fill:#000000" />
   <path class="fil0" d="m 305.6,2584.59 c 0,242.61 15.44,292.52 126.99,508.58 14.7,28.48 30.81,50.46 49.19,77.92 l 118.12,153.04 c 23.99,24.92 43.49,43.14 67.97,67.62 149.1,149.11 251.62,244.01 418.48,369.61 l 159.88,111.3 c -2.85,-34.23 -14.51,-45.18 -28.33,-73.36 -29.63,-60.37 -69.5,-180.72 -82.8,-247.69 -20.85,-104.97 24.72,-63.19 -139.52,-190.97 l -166.7,-155.32 c -95.21,-95.06 -252.1,-277.49 -252.1,-408.88 0,-46.25 15.07,-90.17 42.37,-110.17 29.1,124.89 222.07,372.58 312.29,484.27 40.75,50.43 128.89,145.82 187.68,185.18 8.3,-99.78 26.07,-286.64 59.31,-355.91 -29.09,-19.48 -23.44,-22.66 -44.92,-48.29 C 1009.49,2803.56 960.53,2745 844.55,2571.03 792.65,2493.19 741.12,2417.59 695.83,2338.42 660.87,2277.29 583.24,2148.75 568.3,2084.62 c -90.77,7.56 -262.7,334.9 -262.7,499.97 z" id="path10" style="fill:#000000" />
   <path class="fil0" d="m 3898.63,1127.05 c 0,114.06 13.32,187.97 47.51,291.45 12.27,37.12 65.39,200.06 105.02,200.06 h 1050.78 c 59.48,0 152.53,-338.71 152.53,-457.6 0,-66.62 -6.93,-108.18 -48.18,-163.66 -70.86,-95.28 -227.1,-175.3 -358.57,-175.3 0,291.68 -238.81,1208.75 -463.13,429.24 -33.23,-115.47 -79.21,-307.53 -79.21,-429.24 -154.85,0 -406.76,128.61 -406.76,305.07 z" id="path11" style="fill:#000000" />
   <path class="fil0" d="m 7906.87,3940.45 v 16.94 c 126.04,0 397.64,84.74 398.29,84.74 80.04,0 409.41,-230.97 497.49,-307.7 50.84,-44.3 53.33,-68.19 53.33,36.53 0,116.63 -219.9,223.98 -313.5,271.2 -167.19,84.34 -167.95,40.92 -245.63,144.2 -27.91,37.12 -59.48,66.51 -98.27,96.63 -38.82,30.16 -64.95,59.52 -106.89,88.01 l -89.33,63.21 c -10.76,8.31 -19.06,15.65 -27.68,23.16 60.28,-1.35 161.16,-29.03 213.97,-40.26 213.81,-45.45 572.42,-175.16 724.7,-326.09 21.92,-21.72 43.21,-41.11 63.35,-63.77 217.9,-245.2 232.71,-599.81 82.66,-883.38 -28.4,19.02 -105.03,127.99 -174.37,181.54 -35.33,27.27 -125.16,115.62 -200.89,171.98 -175.92,130.93 -246.93,179.42 -440.87,287.9 -52.36,29.29 -289.61,151.25 -336.35,155.15 z" id="path12" style="fill:#000000" />
   <path class="fil0" d="m 0.53,3474.37 c 0,208.86 1.07,320.45 139.21,504.83 178.28,237.94 537.8,376.91 824.72,437.91 52.81,11.23 153.68,38.9 213.97,40.26 l -111.87,-83.03 c -46.09,-31.21 -174.03,-140.96 -206.69,-183.12 -47.72,-61.59 -27.32,-56.05 -107.54,-87.37 -137.57,-53.7 -146.26,-67.69 -263.15,-126.65 -46.42,-23.42 -79.59,-49.68 -116.03,-78.88 -64.44,-51.61 -76.02,-101.17 -76.02,-178.2 0,-52.51 33.87,1.91 114.92,63.03 81.21,61.24 357.18,258.99 435.89,258.99 0.78,0 270.14,-84.74 398.29,-84.74 v -16.94 c -107.83,-8.98 -511.05,-256.45 -635.6,-338.94 -97.07,-64.28 -183.16,-139.18 -272.4,-210.61 -73.47,-58.82 -135.55,-134.82 -183.08,-181.31 -23.82,-23.29 -39.2,-50.83 -61.4,-65.71 -36.73,69.42 -93.22,226.46 -93.22,330.49 z" id="path13" style="fill:#000000" />
   <path class="fil0" d="m 2695.3,7736.85 c 88.36,131.96 174.41,84.74 305.07,84.74 95.91,0 118.63,63.89 118.63,135.58 0,80.56 -466.74,161.01 -610.13,161.01 -225,0 -225.97,-169.48 -313.54,-169.48 -158.71,0 -116,261.88 -56.28,335.94 39.17,48.55 115.6,62.17 115.6,-90.2 0,-29.22 -6.27,-32.81 -8.48,-59.32 38.91,26.06 83.12,75.84 121.14,107.66 321.41,269.11 4.64,130.25 657.05,60.38 57.57,-6.17 159.27,-15.96 221.56,-15.71 70.8,0.29 169.18,12.96 203.83,-25.02 24.86,-27.25 15.56,-58.18 9.81,-94.86 -46.1,-293.64 69.91,-415.71 74.69,-473.1 -41.69,22.06 -74.5,35.24 -115.31,62.65 -21.27,14.29 -36.18,23.26 -55.44,37.77 -19.99,15.06 -31.29,28.01 -58.05,35.16 -2.1,-25.18 -10.37,-49.75 -15.39,-69.34 -7.73,-30.11 -8.7,-44.62 -13.91,-79.31 -8.45,-56.33 -4.59,-121.95 -4.59,-181.84 -39.06,9.1 -80.66,36.55 -112.01,57.47 -41.25,27.52 -56.85,55 -91.37,78.12 -2.31,-27.81 -10.99,-51.08 -16.42,-76.8 -6.03,-28.54 -7.99,-47.29 -12.84,-80.37 -28.14,-191.93 -6.86,-166.76 -4.63,-266.54 -113.25,9.43 -144.44,161.23 -152.23,279.95 -9.68,147.32 -27.62,245.46 -186.72,245.46 z" id="path14" style="fill:#000000" />
   <path class="fil0" d="m 8000.09,4525.16 c 11.07,30.6 11.52,14.49 71.26,55.85 29.59,20.49 48.68,36.29 77.65,57.94 138.8,103.69 52.63,83.75 173.32,72.91 120.26,-10.79 345.36,-60.41 431.96,-101.96 0,95.16 -69.97,139.98 -143.85,161.21 -227.26,65.3 -325.01,0.58 -408.79,57.29 -60.3,40.83 -299.71,128.08 -320.2,145.88 96.56,8.04 165.57,25.42 288.12,25.42 380.86,0 701.37,5.76 910.29,-309.98 87.16,-131.72 81.18,-280.99 81.18,-435.73 0,-45.35 -31.42,-10.53 -106.58,20.52 -183.36,75.75 -197.42,83.84 -409.26,150.04 -162.83,50.88 -432.41,100.61 -645.11,100.61 z" id="path15" style="fill:#000000" />
   <path class="fil0" d="m 814.05,4999.71 313.59,-8.41 c 53.59,-2.29 97.03,-13.1 144.01,-17.01 -20.83,-18.1 -78.41,-34.07 -106.59,-45.94 -38.19,-16.09 -71.3,-31.81 -105.4,-47.13 -37.36,-16.77 -68.79,-26.82 -103.17,-49.36 -97.36,-63.81 -164.88,6.16 -407.13,-58.95 -78.43,-21.08 -150.54,-66.26 -150.54,-162.99 46.58,22.35 468.88,144.79 528.02,96.06 25.61,-21.09 13.9,-19.77 72.4,-63.41 l 139.17,-98.11 c 14.45,-12.97 7.23,1.07 14.59,-19.3 -358.19,0 -602.35,-87.6 -899.39,-185.3 -47.87,-15.74 -84.79,-31.63 -125.88,-52.07 -42.14,-20.96 -85.41,-37.11 -127.21,-59.22 0,234.03 -20.11,422.32 188.9,599.2 161.19,136.42 400.16,171.94 624.63,171.94 z" id="path16" style="fill:#000000" />
   <path class="fil0" d="m 3932.52,8330.04 c 15.2,56.92 145.74,86.63 220.33,50.84 -28.88,123.91 -15.22,88.36 -8.48,169.48 31.08,0 60.24,1.74 89.98,-3.24 30.43,-5.09 47.68,-13 79.5,-13.7 1.54,68.96 50.52,140.89 93.22,169.48 80.08,-18.66 107.51,-43.48 169.48,-76.27 61.96,32.79 89.4,57.61 169.48,76.27 42.7,-28.59 91.68,-100.52 93.22,-169.48 30.33,2.52 49.92,12.9 77.21,15.99 26.89,3.05 64.26,0.95 92.27,0.95 6.75,-81.12 20.4,-45.57 -8.48,-169.48 55.21,26.48 102.75,19.46 160.13,-0.89 30.49,-10.81 51.28,-16.56 60.2,-49.95 -95.55,-7.96 -210.02,-75.41 -259.24,-139.05 -20.74,-26.82 -45.77,-49.29 -54.31,-81.28 l -144.06,152.53 c -21.05,-10.1 -30.57,-10.16 -52.73,-23.54 -40.93,-24.71 -113.21,-75.5 -125.23,-120.52 h -16.95 c -18.37,68.78 -119.27,115.9 -177.96,144.06 l -144.06,-152.53 c -21.78,81.58 -182.27,209.4 -313.54,220.33 z" id="path17" style="fill:#000000" />
   <path class="fil0" d="m 498.46,6755.9 110.18,-114.25 c 23.5,16.41 120.68,103.38 120.68,129.15 0,21.06 -17.84,59.57 -28.96,72.73 -14.99,17.76 -48.83,31.86 -72.73,37.42 L 498.47,6755.89 Z m -65.75,-256.27 c 10.64,45.65 38.11,75.88 42.38,127.11 -26.69,-12.8 -100.86,-33.81 -116.01,-54.27 -11.73,-15.82 -13.66,-72.84 73.63,-72.84 z m 245.76,42.38 c 0,151.28 -193.56,18.25 -118.94,-102.93 8.74,-14.18 13.3,-8.85 14.22,-25.95 3.07,-56.86 -75.7,0.54 -90.19,10.24 -6.44,-77.4 -87.37,-69.41 -153.16,-60.06 -123.94,17.6 -109.53,47.04 -109.53,204.13 0,40.02 21.22,64.62 59.31,67.79 -10.38,38.87 -25.42,21.15 -25.42,76.27 0,32.4 -2.59,3.08 8.48,25.42 43.99,-11.74 30.84,-42.37 101.69,-42.37 91.5,0 154.22,135.58 42.37,135.58 -29.03,0 -11.67,-13.75 -45.61,-21.31 -34.65,-7.71 -18.96,23.13 -208.61,-21.06 0,112.69 50.09,183.27 152.37,228.97 118.16,52.81 165.98,5.07 228.97,-0.17 0,86.65 -33.88,93.21 50.84,93.21 71.14,0 50.84,-132.18 50.84,-144.06 0,-25.74 14.69,-28.77 33.89,-33.9 18.68,38.93 -53.08,236.22 121.43,129.9 11.24,-6.86 74.44,-40.33 76.48,-42.16 7.33,-6.6 73.27,-146.04 73.27,-155.54 0,-85.21 -89.31,-50.84 -161.01,-50.84 14.36,-61.65 40.43,-33.9 93.21,-33.9 53.07,0 110.18,-38.77 67.8,-127.11 -44.38,11.85 -1.87,16.95 -59.32,16.95 -67.24,0 53.25,-75.21 -39.24,-257.36 -38.2,-75.26 -104.13,-132.46 -214.98,-132.46 3.98,47.84 25.36,43.84 25.77,126.76 0.84,166.88 25.07,100.96 25.07,135.94 z" id="path18" style="fill:#000000" />
   <path class="fil0" d="m 5415.49,2033.78 c 0,115.34 15.83,162.59 44.93,268.61 7.33,26.69 8.26,53.41 39.81,53.41 h 737.25 c 29.52,0 30.67,-20.27 38.09,-46.65 43.26,-153.78 98.52,-342.87 -49.98,-458.38 -47.68,-37.08 -128.9,-79.68 -208.43,-79.68 0,100.73 -51.65,479.52 -144.07,491.5 -27.81,-6.49 -31.04,-7.33 -47.9,-28.36 -14.1,-17.61 -21.62,-33.28 -29.6,-55.15 -42.66,-116.96 -83.51,-279.92 -83.51,-407.99 -134.43,2.99 -296.59,120.09 -296.59,262.7 z" id="path19" style="fill:#000000" />
   <path class="fil0" d="m 2830.88,2042.25 c 0,85.4 5.69,105.44 25.31,186.55 6.31,26.07 12.04,45.95 19.63,73.58 7.33,26.69 8.25,53.41 39.8,53.41 h 737.25 c 37.07,0 43.88,-64 57.73,-120.23 34.62,-140.47 57.06,-280.2 -68.54,-385.88 -39.59,-33.31 -133.44,-77.1 -201.04,-78.61 0,197.06 -137.76,800.71 -266.22,291.65 -26.27,-104.12 -38.85,-173.11 -38.85,-291.65 -131.59,0 -305.07,109.74 -305.07,271.17 z" id="path20" style="fill:#000000" />
   <path class="fil0" d="m 8449.21,5279.36 c -12.88,154.87 -285.37,98.95 -397.73,75.73 -122.93,-25.41 -48.16,-16.46 -234.29,21.03 -58.07,11.7 -119.26,17.84 -173.02,30.36 23.58,32.19 288.28,95.37 327.09,105.09 209.86,52.53 489.79,107 681.41,-28.74 110.65,-78.38 191.21,-182.88 227.15,-315.23 41.04,-151.09 45.96,-57.72 -405.19,-57.72 -169.88,0 -307.99,-13.48 -468.49,-39.96 l -141.64,-27.83 124.94,180.13 c 22.18,32.27 19.3,27.6 66.06,35.62 132.1,22.65 241.51,21.52 393.71,21.52 z" id="path21" style="fill:#000000" />
   <path class="fil0" d="m 678.46,5109.88 c -92.61,0 -279.52,-7.61 -360.11,-21.82 -25.53,-4.5 -52.27,-14.82 -59.05,-0.34 -3.88,8.3 8.55,59.22 12.17,73.17 62.02,238.52 262.96,406.59 534.1,406.59 131.95,0 265.82,-28.28 376.26,-55.92 l 250.84,-71.18 c 30.7,-8.24 60.03,-11.77 76.25,-33.91 l -250.73,-45.86 c -153.92,-33.66 -11.51,-28.95 -206.78,3.58 -69.84,11.63 -211.41,37.73 -277.46,6.12 -34.02,-16.29 -66.39,-46.82 -70.06,-90.95 148.97,0 256.65,1.08 386.41,-20.34 44.72,-7.39 47.97,-2.09 70.02,-31.68 14.54,-19.52 24.86,-39.57 40.08,-61.6 23.91,-34.6 82,-100.42 88.21,-123.65 -29.36,2.44 -194.95,42.62 -288.83,50.13 -107.52,8.6 -205.79,17.66 -321.3,17.66 z" id="path22" style="fill:#000000" />
   <path class="fil0" d="m 619.14,5711.53 c 9.11,109.42 263.53,372.87 457.6,372.87 267.04,0 480.48,-121.12 691.31,-249.33 27.49,-16.72 55.66,-32.29 71.36,-55.74 l -194.9,8.47 c -141.36,0 -26.48,-34.77 -163.77,39.6 -94.27,51.07 -261.75,102.04 -327.73,-22.65 90.9,-2.03 213.17,-50.76 285.76,-78.64 83.18,-31.93 55.7,-18.6 75.26,-111.17 11.86,-56.09 25.45,-98.45 37.27,-149.16 -249.87,132.22 -654.77,245.75 -932.16,245.75 z" id="path23" style="fill:#000000" />
   <path class="fil0" d="m 8000.09,5804.76 c -65.09,122.99 -228.33,74.89 -322.16,25.56 -145.99,-76.74 -27.47,-42.52 -186.28,-42.52 -71.75,0 -107.83,-8.47 -177.96,-8.47 53.15,79.37 511.45,305.07 711.82,305.07 165.15,0 210.88,-36.19 334.19,-131.89 46.29,-35.93 63.05,-58.87 99.35,-104.03 20.97,-26.09 71.82,-99.87 74.91,-136.95 -192.09,0 -345.83,-42.13 -503.37,-81.34 -126.1,-31.38 -312.3,-102.77 -428.79,-164.4 l 50.41,220.76 c 21.44,51.41 296.63,117.06 347.87,118.2 z" id="path24" style="fill:#000000" />
   <path class="fil0" d="m 4873.14,3355.74 c -41.2,77.87 -78.17,144.33 -113.88,233.55 -21.39,53.44 -79.71,216.12 -81.02,274.89 130.24,-30.35 240.8,-120.7 338.97,-186.43 13.77,59.12 33.89,150.82 33.89,220.33 43.73,-11.68 147.13,-171.39 194.91,-203.38 16.45,70.63 102.06,358.88 169.14,412.2 18.2,14.46 -7.77,8.9 8.82,3.02 l -0.06,-58.64 c -5.92,-318.7 84.79,-469 84.79,-500.65 0,-149.4 -11.11,-107.86 -16.94,-177.96 -36.99,9.88 -14.6,18.46 -62.68,55.96 -88.83,69.3 -157.09,79.63 -284.75,79.63 7.27,-27.23 76.92,-143.3 84.73,-237.28 -68.86,36.44 -50.36,46.48 -157.52,71.28 -62.83,14.54 -137.28,27.69 -198.39,13.46 z" id="path25" style="fill:#000000" />
   <path class="fil0" d="m 4008.78,3508.27 c -117.95,0 -237.5,-17.21 -310.84,-104.38 -23.12,-27.48 0.91,-21.19 -36.59,-31.21 -5.52,66.44 -40.46,135.18 1.21,236.07 85.12,206.17 62.66,492.86 66.58,501.18 9.86,3.49 0.13,14.77 28.9,-29.81 73.18,-113.45 118.4,-253.84 149.06,-385.42 63.4,42.45 152.26,191.99 194.91,203.38 0,-69.51 20.12,-161.21 33.89,-220.33 107.81,72.19 206.83,155.65 338.97,186.43 -2.85,-127.85 -135.9,-396.93 -194.9,-508.45 -61.11,14.23 -135.57,1.08 -198.39,-13.46 -107.68,-24.92 -88.24,-34.62 -157.52,-71.28 3.11,37.4 22.57,93.46 35,126 l 49.73,111.28 z" id="path26" style="fill:#000000" />
   <path class="fil0" d="m 1144.54,6211.51 c 13.19,56.62 104.62,140.59 150.68,171.33 280.36,187.07 565.39,33.58 783.49,-169.31 17.42,-16.21 20.61,-15.56 37.92,-29.88 29.54,-24.4 36.8,-44.97 63.74,-71.84 23.97,-23.92 47.8,-42.59 57.33,-78.26 -44.83,10.44 -84.53,24.84 -134.65,34.83 -73.16,14.57 -81.53,-3.11 -130.36,47.6 -28.85,29.96 -54.88,58.16 -99.06,71.05 -54.42,15.87 -93.55,-5.38 -118.95,-43.33 40.13,-10.71 124.53,-73.86 151.42,-103.36 26.6,-29.17 12.03,-17.79 2.6,-92.97 -5.85,-46.59 -9.97,-74.63 -9.97,-125.68 -26.53,17.78 -42.58,39.72 -72.56,63.02 -176.96,137.48 -459.3,308.29 -681.63,326.8 z" id="path27" style="fill:#000000" />
   <path class="fil0" d="m 7398.42,6143.71 c -92.93,138.78 -225.27,-44.92 -255.09,-58.44 -21.73,-9.86 -81.81,-14.1 -114.24,-21.35 -43.49,-9.71 -75.98,-21.59 -113.69,-30.37 8.52,31.9 102.92,134.37 116.46,146.24 17.02,14.91 21.14,14.66 38.12,29.67 221.17,195.34 496.34,367.91 787.89,173.38 46.06,-30.74 137.49,-114.71 150.68,-171.33 -215.25,-17.92 -503.55,-186.12 -676.83,-323.11 -28.51,-22.55 -51.78,-49.57 -77.36,-66.7 0,66.97 -8.2,110.27 -17.67,170.18 -4.96,31.41 -8.76,25.28 6.36,44.38 24.03,30.37 116.54,97.1 155.37,107.45 z" id="path28" style="fill:#000000" />
   <path class="fil0" d="m 2822.41,2779.51 c 2.96,35.62 9.63,27.91 16.94,59.31 -30.38,-14.57 -91.67,-8.47 -135.59,-8.47 30.16,-45.03 45.76,-50.84 118.64,-50.84 z m -338.97,499.97 c 44.1,-189.27 330.76,-214.91 510.81,-180.32 47.76,9.18 103.39,27.78 150.17,27.78 -9.62,-36.02 -13.31,-23.08 -39.9,-44.84 l -112.75,-141.47 c -30.51,-46.24 -104.63,-172.35 -110.05,-237.39 -105.81,0 -195.39,6.84 -272.3,32.76 -70.26,23.69 -154.67,67.71 -194.1,119.43 -150.19,197.02 22.54,411.87 68.12,424.04 z" id="path29" style="fill:#000000" />
   <path class="fil0" d="m 6313.74,2838.82 c 7.32,-31.4 13.98,-23.69 16.94,-59.31 72.88,0 88.49,5.82 118.64,50.84 -30.3,0 -123.82,-4.79 -135.59,8.47 z m -305.07,288.12 c 71.17,0 148.34,-42.37 313.54,-42.37 158.31,0 317.75,67.48 347.43,194.9 44.68,-11.93 217.1,-224.67 71.69,-419.14 -43.09,-57.63 -121.18,-96.84 -191.44,-122.1 -79.83,-28.71 -171.16,-35 -278.53,-35 -5.23,62.84 -75.61,184.6 -106.65,232.3 l -111.33,142.91 c -37.58,35.05 -36.34,17.1 -44.72,48.49 z" id="path30" style="fill:#000000" />
   <path class="fil0" d="m 1475.03,2084.63 c 0,167.87 203.38,250.48 203.38,533.87 0,69.8 -41.51,100.58 -50.84,135.59 55.97,-4.66 122.64,-53.22 135.58,-101.69 58.37,39.08 101.69,178.82 101.69,279.65 h 16.95 c 27.78,-119.29 50.84,-100.45 50.84,-262.7 0,-104.58 -54.25,-211.08 -93.58,-279.28 -67.04,-116.26 -118.27,-165.68 -118.27,-296.96 0,-58.84 54.97,-78.36 76.27,-110.16 -85.13,0 -126.44,-13.63 -203.74,-0.36 -55.21,9.48 -118.27,41.13 -118.27,102.05 z" id="path31" style="fill:#000000" />
   <path class="fil0" d="m 7356.06,1982.94 c 41.94,62.62 76.27,22.7 76.27,152.53 0,147.8 -211.86,277.77 -211.86,576.23 0,91.33 34.09,148.4 50.84,220.33 h 16.95 c 0,-100.83 43.32,-240.56 101.69,-279.65 12.94,48.47 79.61,97.03 135.58,101.69 -16.82,-63.04 -131.29,-140.6 39.69,-426.39 50.63,-84.63 231.53,-304.43 -5.43,-345.11 -77.3,-13.27 -118.6,0.36 -203.74,0.36 z" id="path32" style="fill:#000000" />
   <path class="fil0" d="m 4576.55,1423.65 c 98.69,0 207.93,-524.44 175.2,-598.68 -58.76,-133.3 -278.92,-141.54 -347.68,-5.87 -42.04,82.94 80.73,604.55 172.48,604.55 z" id="path33" style="fill:#000000" />
   <path class="fil0" d="m 1924.16,6558.95 c 2.6,31.32 6.69,31.97 28.32,47.94 16.85,12.45 33.72,22.48 53.69,31.06 114.06,49.01 250.72,39.19 359.93,-9.92 126.22,-56.77 264.67,-278.99 286.83,-374.15 -125.52,60.23 -141.41,9.34 -194.91,84.72 -37.29,52.56 -147.45,67.33 -102.98,0.19 11.89,-17.96 23.66,-33.79 35.2,-51.01 -15.04,-28.43 -23.42,-47.28 -37.48,-81.16 l -38.78,-88.33 c -19.01,13.93 -62.09,96.86 -78.82,124.57 -15.22,25.22 -25.31,36.47 -41.5,60.19 -14.33,21 -30.44,44.45 -47.11,63.05 -49.91,55.64 -155.41,174.96 -222.38,192.85 z" id="path34" style="fill:#000000" />
   <path class="fil0" d="m 6762.87,6287.78 c 58.99,88.1 75.65,93.21 -8.47,93.21 -17.52,0 -45.71,-23.98 -55.88,-37.34 -25.17,-33.07 -7.68,-31 -48.84,-44.37 -52.78,-17.15 -104.82,-23.96 -149.5,-45.4 21.78,93.48 158.48,313.1 281,371.52 176.68,84.23 439.42,33.93 447.77,-66.45 -88.18,-23.54 -253.14,-222.2 -307.86,-310.74 -14.78,-23.9 -24.07,-40.49 -38.03,-63.67 -15.76,-26.17 -22.25,-50.37 -43.92,-66.25 z" id="path35" style="fill:#000000" />
   <path class="fil0" d="m 1627.57,7847.02 c -11.78,50.53 -2.89,50.84 59.31,50.84 15.16,65.06 73.7,150.96 144.07,152.53 -43.59,90.84 6.1,111.98 52.34,52.34 53.1,-68.48 105.69,-94.21 117.14,-137.08 -36.76,-24.62 -47.98,-24.62 -84.74,0 -14.09,-29.38 -13.42,-38.69 -36.17,-65.52 -90.17,-106.36 -106.34,-35.27 -123.99,-96.44 -12.75,-44.2 6.22,-54.91 -51.69,-41.42 -5.8,-69.59 -143.54,-181.86 -192.96,-230.75 -61.56,-60.91 -323.25,-344.6 -398.22,-275.89 -60.31,55.28 85.17,197.64 135.86,250.13 16.82,17.43 16.84,20.52 30.35,37.44 l 258.02,250.44 c 37.93,32.31 52.76,50.21 90.69,53.38 z" id="path36" style="fill:#000000" />
   <path class="fil0" d="m 6254.42,2516.81 c 171.92,0 265.01,-59.41 357.18,-176.68 132.74,-168.89 77.03,-305.44 250.82,-461.01 33.31,-29.82 72.85,-44.78 112.3,-65.66 -15.46,-57.91 -203.35,-152.53 -254.22,-152.53 -144.9,0 -144.04,350.4 -179.55,481.44 -24.44,90.18 -52.14,157.42 -106.53,223.96 -53.1,64.95 -71.73,77.36 -141.39,104.35 -46.6,18.07 -19.09,5.47 -38.6,46.14 z" id="path37" style="fill:#000000" />
   <path class="fil0" d="m 2178.38,1813.45 c 128.18,67.83 198.04,121.35 251.27,282.6 17.54,53.11 22.66,87.24 45.18,132.79 86.73,175.47 207,287.97 423.85,287.97 -18.61,-38.77 6.8,-25.93 -32.35,-43.92 -59.45,-27.32 -76.5,-19.48 -143.74,-102.01 -57.06,-70.05 -80.25,-122.66 -108.62,-221.88 -75.14,-262.92 -4.1,-669.98 -382.47,-392.56 -24.86,18.24 -44.52,24.76 -53.14,57.02 z" id="path38" style="fill:#000000" />
   <path class="fil0" d="m 7271.31,8135.13 h 466.08 c 0,-120.76 -91.8,-257.4 -154.56,-319.99 -67.95,-67.76 -190.68,-152.97 -311.52,-163.03 z" id="path39" style="fill:#000000" />
   <path class="fil0" d="m 2432.6,3499.8 c -76.35,0 -46.85,-4.17 -101.69,-16.94 16.31,61.1 93.21,118.63 186.43,118.63 57.03,0 84.54,-16.39 124.41,-36.59 58.89,-29.85 272.84,-167.12 307.77,-175.25 -13.07,27.24 -13.07,91.39 0,118.63 16.08,-5.83 59.45,-67.72 183.59,-129.94 143.04,-71.7 194.94,-51.77 240.11,-73.43 -10.53,-14.37 -158.72,-135.59 -169.48,-135.59 -146.43,0 -439.72,188.46 -561.8,260.19 -50.68,29.77 -135.1,70.3 -209.34,70.3 z" id="path40" style="fill:#000000" />
   <path class="fil0" d="m 5779.87,3304.9 c 67.7,32.48 220.81,9.68 399.46,185.25 23.11,22.71 -7.41,6.67 24.24,18.13 13.07,-27.24 13.07,-91.39 0,-118.63 110.22,25.67 271.23,211.85 457.6,211.85 66.22,0 147.11,-66.57 161.01,-118.63 -115.22,26.84 -165.91,30.39 -305.68,-50.23 -61.19,-35.29 -108.26,-69.8 -174.53,-105.12 -88.39,-47.11 -286.55,-158.19 -392.62,-158.19 -10.76,0 -158.95,121.22 -169.48,135.59 z" id="path41" style="fill:#000000" />
   <path class="fil0" d="m 3661.35,2516.81 c 312.62,0 536.92,-68.51 689.94,-301.52 32.18,-49 88.06,-168.19 89.67,-240.82 h -271.17 c -11.76,141.31 -100.95,326.2 -194.82,398.37 -72.33,55.61 -126.61,94.25 -236.19,102.86 -43.92,3.44 -53.7,-3.75 -77.44,41.12 z" id="path42" style="fill:#000000" />
   <path class="fil0" d="m 5491.75,2516.81 c -43.46,-82.13 -122.06,-1.75 -271.35,-109.99 -15.78,-11.45 -20.27,-17.04 -37.42,-30.37 -99.24,-77.04 -187.3,-253.36 -199.67,-401.99 h -271.17 c 3.05,137.21 128.48,327.43 250.66,410.32 143.19,97.16 292.71,132.03 528.95,132.03 z" id="path43" style="fill:#000000" />
   <path class="fil0" d="m 6720.5,1618.55 c 203.27,0 319.29,179.19 440.95,253.93 167.13,102.68 274.97,35.17 446.74,70.17 85.2,17.37 72.95,51.48 112.26,65.71 -10.17,-122.22 -205.69,-93.13 -388.35,-213.32 -61.72,-40.62 -104.55,-89 -156.12,-140.47 -102.93,-102.77 -80.29,-129.23 -209.73,-129.23 -76.34,0 -216.32,49.27 -245.75,93.21 z" id="path44" style="fill:#000000" />
   <path class="fil0" d="m 1432.66,2008.36 c 36.03,-13.04 32.52,-47.44 105.2,-64.28 169.65,-39.31 282.47,33.65 453.8,-71.6 69.06,-42.44 122.71,-107.85 191.65,-155.79 71.65,-49.83 132.45,-98.15 249.3,-98.15 -32.06,-47.87 -283.3,-154.46 -379.54,-49.05 -138.64,151.83 -206.25,249.98 -438.85,315.35 -73.83,20.75 -174.86,43.27 -181.55,123.52 z" id="path45" style="fill:#000000" />
   <path class="fil0" d="m 7110.31,7304.67 c -51.31,0 -71.82,-5.28 -110.17,-8.48 v 161.01 c 42.27,0 58.7,-8.48 110.17,-8.48 -13.48,161.94 -55.06,135.59 127.11,135.59 35.79,0 20.86,-20.7 18.33,-50.76 -3.54,-42.09 -1.83,-50.37 -9.86,-84.82 135.34,0 118.64,56.67 118.64,-127.11 0,-34.69 -26.3,-22.37 -43.75,-20.21 -27.89,3.45 -46.36,3.26 -74.9,3.26 7.3,-31.32 6.47,-37.12 9.96,-76.26 5.36,-60.07 34.12,-50.85 -137.07,-50.85 -39.75,0 -14.6,53.49 -8.47,127.11 z" id="path46" style="fill:#000000" />
   <path class="fil0" d="m 4135.89,1898.19 h 881.31 c 30.33,0 55.93,-35.53 59.31,-76.27 h -999.94 c 1.96,23.59 5.99,36.12 17.25,50.55 7.39,9.46 25.09,25.71 42.07,25.71 z" id="path47" style="fill:#000000" />
   <path class="fil0" d="m 2949.52,2516.81 h 669.46 c 9.46,-40.64 24.42,-61.05 33.89,-101.69 h -737.25 c 7.84,33.64 24.88,63 33.9,101.69 z" id="path48" style="fill:#000000" />
   <path class="fil0" d="m 5534.12,2516.81 h 669.46 c 9.02,-38.69 26.06,-68.05 33.9,-101.69 h -737.25 c 9.47,40.64 24.43,61.05 33.89,101.69 z" id="path49" style="fill:#000000" />
   <path class="fil0" d="m 2813.94,6482.68 c -35.4,0 -33.9,-41.92 -33.9,-67.79 0,-55.37 24.23,-9.54 -12.64,-63.05 -14.32,-20.79 -23.94,-39.25 -29.73,-64.07 h -16.94 c -20.55,88.17 -33.9,54.01 -33.9,186.42 0,131.32 87.47,220.33 220.32,220.33 0,-132.56 9.46,-230.1 88.4,-343.78 11.25,-16.19 15.51,-17.4 27.53,-31.79 14.33,-17.18 17.29,-18.01 19.66,-39.66 -44.78,23.69 -171.19,86.21 -191.84,130.17 -16.56,35.29 0.24,73.2 -36.96,73.2 z" id="path50" style="fill:#000000" />
   <path class="fil0" d="m 6245.95,6618.27 v 76.27 c 199.17,0 248.79,-181.41 208.71,-335.82 -8.29,-31.93 -16.44,-45.87 -22.29,-70.93 h -16.94 c -5.79,24.81 -15.4,43.28 -29.73,64.07 -35.95,52.17 -12.64,0.63 -12.64,79.99 0,26.02 -7.85,50.84 -33.9,50.84 -35.64,0 -21.99,-33.99 -34.51,-67.18 -19.59,-51.94 -147.71,-111.55 -194.29,-136.2 4.77,43.61 135.59,136.39 135.59,338.97 z" id="path51" style="fill:#000000" />
   <path class="fil0" d="m 7067.93,8702.9 c 0,108.56 8,177.96 127.11,177.96 157.09,0 99.11,-377.75 -25.42,-406.76 -49.97,47.4 -101.69,153.56 -101.69,228.8 z" id="path52" style="fill:#000000" />
   <path class="fil0" d="m 4525.71,135.58 c -13.51,-6.48 -97.63,-16.47 -118.63,-16.94 v 118.63 c 37.98,-8.85 80.64,-8.1 118.63,-16.94 0,54.57 -8.48,76.32 -8.48,135.59 h 118.64 c 0,-59.27 -8.48,-81.02 -8.48,-135.59 37.99,8.85 80.65,8.1 118.63,16.94 V 118.64 c -21.01,0.47 -105.12,10.47 -118.63,16.94 0,-54.56 8.48,-76.32 8.48,-135.58 h -118.64 c 0,59.26 8.48,81.02 8.48,135.58 z" id="path53" style="fill:#000000" />
   <path class="fil0" d="m 3203.75,1821.93 c 0,106.47 17.59,304.45 76.27,347.43 61.61,-16.44 75.83,-177.09 82.42,-231.11 35.64,-291.95 -112.47,-225.01 -140.53,-182.9 -12.05,18.08 -18.16,37.57 -18.16,66.58 z" id="path54" style="fill:#000000" />
   <path class="fil0" d="m 5873.09,2169.36 c 57.95,-42.45 105.3,-343.23 58.11,-414.01 -28.06,-42.11 -176.17,-109.05 -140.53,182.9 4.67,38.32 13.24,91.74 22.91,129.62 14.57,57.18 19.85,90.9 59.51,101.49 z" id="path55" style="fill:#000000" />
   <path class="fil0" d="m 1924.16,8584.26 c 0,119.26 245.75,158.09 245.75,-127.11 0,-35.18 7.92,-93.22 -16.94,-93.22 -41.98,0 -120.55,51.3 -146.19,74.13 -39.44,35.14 -82.61,75.47 -82.61,146.2 z" id="path56" style="fill:#000000" />
   <path class="fil0" d="m 1746.2,8321.56 c 0,139.62 187.44,84.51 288.61,17.44 8.35,-5.53 11.31,-6.08 19.54,-14.35 62.02,-62.43 -83.7,-121.72 -138.67,-121.72 -75.28,0 -169.48,49.79 -169.48,118.63 z" id="path57" style="fill:#000000" />
   <path class="fil0" d="m 2424.12,8694.42 c 46.83,0 90.23,-47.14 110.62,-75.88 53.47,-75.34 -8.94,-123.51 -104.38,-218.47 -30.14,-29.99 -58.29,-84.46 -99.45,-95.45 -12.44,53.41 -22.89,59.62 -0.81,93.32 142.48,217.51 21.68,296.48 94.02,296.48 z" id="path58" style="fill:#000000" />
   <path class="fil0" d="m 5830.72,1262.64 c -25.36,-14.25 -57.38,-8.48 -101.69,-8.48 v 93.22 c 54.73,-12.75 36.08,-8.48 101.69,-8.48 l -10.12,101.5 94.85,0.19 c 0,-42.48 -8.47,-52.17 -8.47,-101.69 125.08,0 101.69,30.64 101.69,-84.74 h -76.27 c -32.4,0 -3.08,-2.59 -25.42,8.48 0,-51.46 8.47,-67.9 8.47,-110.17 h -93.21 c 0,48.35 8.48,58.62 8.48,110.17 z" id="path59" style="fill:#000000" />
   <path class="fil0" d="m 3246.11,1262.64 c -25.36,-14.25 -57.38,-8.48 -101.69,-8.48 0,115.38 -23.39,84.74 101.69,84.74 0,49.52 -8.47,59.21 -8.47,101.69 h 93.21 l -10.12,-101.5 c 66.26,-0.21 48.25,-4.54 103.33,8.29 v -93.22 h -76.27 c -32.4,0 -3.08,-2.59 -25.42,8.48 0,-51.55 8.48,-61.81 8.48,-110.17 h -93.21 c 0,42.27 8.47,58.71 8.47,110.17 z" id="path60" style="fill:#000000" />
   <path class="fil0" d="m 7339.11,8652.05 c 0,61.42 21.09,152.53 76.27,152.53 48.31,0 101.69,-8.12 101.69,-76.27 0,-122.18 -177.96,-308.44 -177.96,-76.27 z" id="path61" style="fill:#000000" />
   <path class="fil0" d="m 6847.61,8685.95 c 0,105.53 7.6,118.63 93.21,118.63 19.26,0 44.41,-22.76 54.16,-39.06 35.68,-59.69 30.84,-223.64 -20.26,-223.64 -53.98,0 -127.11,89.36 -127.11,144.07 z" id="path62" style="fill:#000000" />
   <path class="fil0" d="m 2263.12,8719.84 c 128.76,0 44,-232.72 -8.48,-271.17 -26.5,50.08 -33.38,73.21 -45.22,141.61 -7.96,45.96 -5.17,129.55 53.7,129.55 z" id="path63" style="fill:#000000" />
   <path class="fil0" d="m 4491.81,525.39 c 0,148.18 169.49,114.35 169.49,16.94 0,-135.56 -169.49,-110.49 -169.49,-16.94 z" id="path64" style="fill:#000000" />
   <path class="fil0" d="m 907.26,7050.45 c -44.77,192.16 221.72,222.85 155.77,73.48 -29.2,-66.12 -86.02,-100.56 -155.77,-73.48 z" id="path65" style="fill:#000000" />
   <path class="fil0" d="m 2500.39,8796.11 c 73.78,0 161.01,-111.49 161.01,-152.53 0,-22.89 -4.04,-23.36 -8.48,-42.37 -37.46,3.11 -35.05,12.15 -54.68,38.52 -66.23,88.99 -43.58,52.6 -100.8,103.17 -15.66,13.84 -44.24,53.21 2.94,53.21 z" id="path66" style="fill:#000000" />
   <path class="fil0" d="m 2585.14,8838.48 v 16.94 c 12.02,2.8 120.83,62.29 152.1,-17.39 22.74,-57.93 -5.08,-69.14 -16.51,-118.2 -39.99,10.68 -15.89,11.89 -65.56,61.56 -22.42,22.42 -37.39,48.36 -70.03,57.08 z" id="path67" style="fill:#000000" />
   <path class="fil0" d="m 5932.41,1601.6 c 0,-120.92 -129.32,-94.24 -133.38,-15.97 -4.91,95 133.38,81.87 133.38,15.97 z" id="path68" style="fill:#000000" />
   <path class="fil0" d="m 3220.69,1584.65 c 0,99.87 137.85,87.52 133.38,0.98 -4.49,-86.75 -133.38,-88.19 -133.38,-0.98 z" id="path69" style="fill:#000000" />
   <path class="fil0" d="m 7118.78,8219.87 c 0,85.14 118.64,97.56 118.64,-8.48 0,-60.89 -118.64,-70.93 -118.64,8.48 z" id="path70" style="fill:#000000" />
   <path class="fil0" d="m 6889.98,8219.87 c 0,93.97 118.64,80.04 118.64,8.48 0,-93.98 -118.64,-80.05 -118.64,-8.48 z" id="path71" style="fill:#000000" />
   <path class="fil0" d="m 7644.18,8160.55 c -73.47,0 -76.05,129.81 7.4,124.81 32.55,-1.95 58.17,-32.8 57,-65.48 -0.98,-27.56 -29.74,-59.33 -64.4,-59.33 z" id="path72" style="fill:#000000" />
   <path class="fil0" d="m 7118.78,7753.79 c 0,89.21 118.64,86.52 118.64,8.48 0,-93.58 -118.64,-77.31 -118.64,-8.48 z" id="path73" style="fill:#000000" />
   <path class="fil0" d="m 6661.18,8219.87 c 0,79.65 118.64,100.1 118.64,-8.48 0,-60.89 -118.64,-70.93 -118.64,8.48 z" id="path74" style="fill:#000000" />
   <path class="fil0" d="m 7356.06,8219.87 c 0,93.57 118.63,77.3 118.63,8.48 0,-36.27 -26.12,-67.8 -59.31,-67.8 -28.73,0 -59.32,30.6 -59.32,59.32 z" id="path75" style="fill:#000000" />
   <path class="fil0" d="m 7118.78,7991.07 c 0,75.31 118.64,83.13 118.64,0 0,-89.23 -118.64,-71.81 -118.64,0 z" id="path76" style="fill:#000000" />
   <path class="fil0" d="m 542.88,6762.33 c 30.12,20.17 51.91,59.32 101.69,59.32 51.71,0 47.06,-81.38 -33.89,-135.59 -9.86,7.22 -60.01,64.65 -67.8,76.27 z" id="path77" style="fill:#000000" />
   <path class="fil0" d="m 5008.73,1771.08 h 16.94 c 52.81,0 52.81,-93.21 0,-93.21 h -16.94 c -52.8,0 -52.8,93.21 0,93.21 z" id="path78" style="fill:#000000" />
   <path class="fil0" d="m 4754.51,1686.34 c -17.46,74.93 1.34,93.73 76.27,76.27 8.32,-17.32 14.77,-29.48 11.77,-47.23 -8.18,-48.3 -55.95,-41.49 -88.04,-29.04 z" id="path79" style="fill:#000000" />
   <path class="fil0" d="m 4356.23,1771.08 c 39.87,0 82.49,-93.21 -16.95,-93.21 -48.34,0 -57.29,93.21 16.95,93.21 z" id="path80" style="fill:#000000" />
   <path class="fil0" d="m 4085.05,1711.76 c 0,97.75 93.22,61.85 93.22,8.48 0,-60.22 -93.22,-54.3 -93.22,-8.48 z" id="path81" style="fill:#000000" />
   <path class="fil0" d="m 4525.71,1711.76 c 0,80.25 93.21,80.25 93.21,0 0,-47.28 -93.21,-47.28 -93.21,0 z" id="path82" style="fill:#000000" />
   <path class="fil0" d="m 1924.16,8126.66 c 44.95,0 50.04,0.38 84.74,8.47 0,-39.99 12.44,-92.78 -27.69,-80.24 -27.55,8.61 -50.63,44.23 -57.05,71.77 z" id="path83" style="fill:#000000" />
  </g>
 </g>
</svg>
