<?xml version="1.0" encoding="UTF-8" standalone="no"?>
<svg width="32" height="32" viewBox="0 0 32 32" fill="none" class="opacity-80 hover:opacity-100 fill-black dark:fill-white [&amp;&gt;path]:hidden sm:[&amp;&gt;path]:block [&amp;&gt;#mark]:block [&amp;&gt;#furigana]:opacity-60" version="1.1" id="svg5" xmlns="http://www.w3.org/2000/svg" xmlns:svg="http://www.w3.org/2000/svg">
  <defs id="defs5" />
  <g id="g5" transform="matrix(0.96001651,0,0,0.96001651,-0.34910037,0.15972759)" style="fill:#000000">
    <path d="m 13.2371,21.0407 11.0815,-8.1901 c 0.5433,-0.4015 1.3198,-0.2449 1.5787,0.3788 1.3624,3.2891 0.7537,7.2418 -1.957,9.9557 -2.7106,2.7138 -6.4822,3.309 -9.9295,1.9535 l -3.7659,1.7457 c 5.4014,3.6963 11.9604,2.7822 16.0591,-1.3242 3.2511,-3.255 4.258,-7.6918 3.3165,-11.6928 l 0.0085,0.0085 C 28.2637,7.99809 29.9647,5.64871 33.449,0.844576 33.5314,0.730667 33.6139,0.616757 33.6964,0.5 L 29.1113,5.09055 V 5.07631 L 13.2343,21.0436" fill="currentColor" id="mark" style="fill:#000000" />
    <path d="M 10.9503,23.0313 C 7.07343,19.3235 7.74185,13.5853 11.0498,10.2763 13.4959,7.82722 17.5036,6.82767 21.0021,8.2971 L 24.7595,6.55998 C 24.0826,6.07017 23.215,5.54334 22.2195,5.17313 17.7198,3.31926 12.3326,4.24192 8.67479,7.90126 5.15635,11.4239 4.0499,16.8403 5.94992,21.4622 7.36924,24.9165 5.04257,27.3598 2.69884,29.826 1.86829,30.7002 1.0349,31.5745 0.36364,32.5 L 10.9474,23.0341" fill="currentColor" id="path5" style="fill:#000000" />
  </g>
</svg>
