<svg version="1.1" id="Camada_1" x="0px" y="0px" viewBox="0 0 32 32" xml:space="preserve" width="32" height="32" xmlns="http://www.w3.org/2000/svg" xmlns:svg="http://www.w3.org/2000/svg" xmlns:rdf="http://www.w3.org/1999/02/22-rdf-syntax-ns#" xmlns:cc="http://creativecommons.org/ns#" xmlns:dc="http://purl.org/dc/elements/1.1/">
<path d="m 31.739701,16.065634 c 0,3.475013 -0.786796,6.425495 -2.688218,8.982581 C 26.101,29.310023 21.249095,31.932675 16.003792,31.998241 11.676417,32.063808 7.5457408,30.293517 4.6608242,27.146336 1.7103414,23.999154 0.13675048,19.868478 0.26788306,15.60667 0.20231677,11.410427 1.9070402,7.4108839 4.9886556,4.5915329 7.9391386,1.5754839 11.938682,-0.06367309 16.134924,0.00189391 c 6.622195,0 12.260896,4.06510899 14.817981,10.55617109 H 22.429288 C 20.527865,8.5255099 18.495311,7.5420159 16.134924,7.5420159 11.741983,7.4764459 8.2014037,11.017029 8.1358374,15.344404 c 0,0.06557 0,0.131133 0,0.196699 0,4.851906 3.8028446,8.65475 7.9990866,8.65475 2.884917,0 5.507569,-1.57359 6.950027,-4.065109 h -8.785883 v -6.097666 h 17.440633 c -0.06557,0.655663 -0.06557,1.376893 0,2.032556 z" id="path1" style="stroke-width:0.655663" />
</svg>
