<svg width="32" height="32" aria-hidden="true" xmlns="http://www.w3.org/2000/svg">
  <defs>
    <clipPath clipPathUnits="userSpaceOnUse" id="a">
      <path class="powerclip" d="M-5-5h36v36H-5Zm20.216 8.19v.444l4.195 5.584h.414V5.436c-.769-.797-2.777-1.979-4.609-2.246Zm-1.389.237v-.413C9.396 2.718 3.398 6.086 3.486 13.03c-.088 6.972 5.909 10.34 10.342 10.045v-.443h-.06c-2.954 0-4.638-4.077-4.55-9.573-.088-5.525 1.596-9.632 4.55-9.632zm7.387 10.46v-.413h-7.387v.384l1.388.502v8.626c1.921-.384 3.842-1.506 4.61-2.245v-6.234z"/>
    </clipPath>
  </defs>
  <path fill="#000" transform="scale(1.23077)" clip-path="url(#a)" d="M26 13a13 13 0 0 1-13 13A13 13 0 0 1 0 13 13 13 0 0 1 13 0a13 13 0 0 1 13 13Z"/>
</svg>