<?xml version="1.0" encoding="utf-8"?>
<svg version="1.1" id="Camada_1" xmlns="http://www.w3.org/2000/svg" xmlns:xlink="http://www.w3.org/1999/xlink" x="0px" y="0px"
	 viewBox="0 0 300 120" style="enable-background:new 0 0 300 120;" xml:space="preserve">
<path d="M68.3,63.1l5-2.6V20.8h-3.8l-9.3,12.4h-1l0.5-13.8h40.5l0.6,13.8h-1.1l-9.2-12.4h-3.9v39.6l5,2.7v1.3H68.4L68.3,63.1
	L68.3,63.1z M105.3,61.3V17.4l-3.8-1.5V15l14.2-2.5h1.5v20.8l0.3-0.4c3.4-2.9,7.7-4.5,12.2-4.5c6.2,0,9,3.5,9,10v23l3.3,1.7v1.3
	h-18.5v-1.3l3.4-1.8V38.4c0-3.6-1.6-5-4.6-5c-1.8,0-3.5,0.5-4.9,1.6v26.4l3.3,1.8v1.2h-18.5v-1.2L105.3,61.3z M153.7,47.9
	c0.4,7.2,3.6,12.8,11.4,12.8c3.7,0,6.3-1.7,8.8-3v1.5c-3.4,4-8.4,6.3-13.6,6.2c-12,0-18-6.6-18-18.1c0-11.3,6.6-18.3,17.4-18.3
	c10.2,0,15.5,5,15.5,18.4v0.4L153.7,47.9z M153.5,46.2l10.5-0.7c0-9-1.5-15-4.6-15c-3.3,0-5.9,7-5.9,15.6 M1.5,82
	c0-19.1,12.7-26,26.8-26c6,0,11.6,1,14.8,2.3l0.3,13.4H42l-8.3-13c-1.7-0.6-3.4-0.9-5.2-0.8c-7.5,0-11.3,8.7-11.2,22.9
	c0.1,17,3,24.7,10,24.7c1.4,0,2.8-0.2,4.1-0.7V86.6L26.9,84v-1.6h22v1.7l-4.5,2.5v18c-5.4,1.9-11,2.8-16.7,2.8
	C11.7,107.4,1.5,99.9,1.5,82 M48.6,73v-1l14.9-2.6l1.6,0.1v29c0,3.6,1.7,4.6,4.5,4.6c1.9,0,3.6-0.8,4.8-2.2v-26l-4-1.8v-1.2
	l14.7-2.5l1.4,0.2v33.3l4,1.6v1.1l-14.6,1.8l-1.4-0.1v-4.4h-0.4c-3,2.8-7,4.5-11.1,4.5c-7.1,0-10.5-4.2-10.5-10.5v-22L48.6,73z
	 M143.1,69.3l1.2,0.1v10.8h0.4c1.6-7.9,5-10.8,9.3-10.8c0.6,0,1.2,0.1,1.8,0.3v11c-1-0.2-2-0.3-3-0.3c-2.8-0.1-5.5,0.5-8,1.6v21.2
	l3.4,1.9v1.3h-19.3v-1.3l3.5-1.9v-29l-4-1.2v-1L143.1,69.3z M180.2,70.2V58.9l-4-1.5v-0.9l15-2.7l1.3,0.2v48.8l4.2,1.5v1.1l-14.8,2
	l-1.1-0.1v-4h-0.4c-2.5,2.7-6.1,4.2-9.8,4.1c-8,0-13.9-6.1-13.9-18.7c0-13.2,6.9-19.7,17.2-19.7C176.1,68.9,178.2,69.3,180.2,70.2
	 M180.2,101.4v-29c-1.1-0.9-2.5-1.4-4-1.3c-4,0.1-6.5,6.2-6.5,16.9c0,9.6,1.8,15,7,14.8C178,102.8,179.2,102.4,180.2,101.4
	 M213,69.4h1.3v34l3.4,1.8v1.2h-19.2v-1.3l3.4-1.9V74.8l-4-1.7V72L213,69.4z M214.4,60.2c-0.1,3.5-3,6.4-6.5,6.3c0,0-0.1,0-0.1,0
	c-3.5,0-6.3-2.8-6.3-6.3c0-3.5,2.8-6.3,6.3-6.3c0,0,0,0,0,0C211.4,53.8,214.3,56.6,214.4,60.2 M260.7,103.3V74.4l-4-1.4v-1.4
	l14.7-2.8l1.5,0.2v4.3h0.4c3.5-3,7.9-4.7,12.5-4.7c6.4,0,9.3,3,9.3,9.8v24.8l3.4,1.9v1.3h-19.2v-1.3l3.5-1.9v-24
	c0-3.8-1.6-5.3-4.7-5.3c-1.8,0-3.6,0.6-5,1.7v27.6l3.3,1.9v1.3h-19.1v-1.3L260.7,103.3z M239.4,85.3v-4.9c0-7.3-1.5-9.6-6-9.6
	c-0.5,0-1.1,0-1.6,0l-8,11h-1.1v-10c4.3-1.5,8.9-2.3,13.5-2.4c9.8,0,15.5,2.7,15.5,11v23.5l3.5,1v0.9c-2.2,1.1-4.7,1.7-7.2,1.6
	c-4.9,0-7.2-1.6-8.3-4.2h-0.3c-2,2.8-5,4.3-9.6,4.3c-5.8,0-9.8-3.6-9.8-9.9c0-6,3.8-9.4,11.5-10.8L239.4,85.3z M239.4,101.5V86.9
	l-2.4,0.2c-3.9,0.3-5.2,2.7-5.2,8.2c0,5.9,1.9,7.4,4.6,7.4C237.6,102.8,238.7,102.3,239.4,101.5 M111.2,85.1v-4.7
	c0-7.3-1.6-9.7-6.1-9.7c-0.5,0-1,0.1-1.5,0.2l-8.1,10.7h-1v-10c4.3-1.5,8.8-2.2,13.4-2.3c9.8,0,15.5,2.7,15.5,11v23.5l3.5,1v0.9
	c-2.2,1.1-4.7,1.7-7.2,1.6c-4.9,0-7.2-1.6-8.3-4.2h-0.3c-2,2.8-5,4.3-9.5,4.3c-5.9,0-9.8-3.6-9.8-9.9c0-6,3.7-9.4,11.4-10.8
	L111.2,85.1z M111.2,101.4V86.9l-2.5,0.2c-3.8,0.3-5.2,2.7-5.2,8.2c0,5.9,2,7.4,4.6,7.4C109.3,102.8,110.4,102.3,111.2,101.4"/>
</svg>
