<?xml version="1.0" encoding="UTF-8" standalone="no"?>
<svg width="32" height="32" viewBox="0 0 32 32" aria-hidden="true" focusable="false" version="1.1" id="svg1" sodipodi:docname="guardian.svg" inkscape:version="1.4-beta2 (9aaf4f34, 2024-07-30)" xmlns:inkscape="http://www.inkscape.org/namespaces/inkscape" xmlns:sodipodi="http://sodipodi.sourceforge.net/DTD/sodipodi-0.dtd" xmlns="http://www.w3.org/2000/svg" xmlns:svg="http://www.w3.org/2000/svg">
  <defs id="defs1">
    <inkscape:path-effect effect="powerclip" message="" id="path-effect2" is_visible="true" lpeversion="1" inverse="true" flatten="false" hide_clip="false" />
    <clipPath clipPathUnits="userSpaceOnUse" id="clipPath1">
      <path d="m 15.216,3.19 c 1.832,0.267 3.84,1.449 4.609,2.246 V 9.218 H 19.411 L 15.216,3.634 V 3.191 Z m -1.389,0.237 h -0.059 c -2.954,0 -4.638,4.107 -4.55,9.632 -0.088,5.496 1.596,9.573 4.55,9.573 h 0.06 v 0.443 C 9.395,23.37 3.398,20.002 3.486,13.03 3.398,6.086 9.396,2.718 13.827,3.014 Z m 7.387,10.46 -1.389,0.62 v 6.234 c -0.768,0.739 -2.689,1.861 -4.61,2.245 V 14.36 l -1.388,-0.502 v -0.384 h 7.387 z" fill="#ffffff" id="path2" style="display:none" />
      <path id="lpe_path-effect2" class="powerclip" d="M -5,-5 H 31 V 31 H -5 Z m 20.216,8.19 v 10e-4 0.443 l 4.195,5.584 h 0.414 V 5.436 C 19.056,4.639 17.048,3.457 15.216,3.19 Z M 13.827,3.427 V 3.014 C 9.396,2.718 3.398,6.086 3.486,13.03 3.398,20.002 9.395,23.37 13.828,23.075 v -0.443 h -0.06 c -2.954,0 -4.638,-4.077 -4.55,-9.573 -0.088,-5.525 1.596,-9.632 4.55,-9.632 z m 7.387,10.46 v -0.413 h -7.387 v 0.384 l 1.388,0.502 v 8.626 c 1.921,-0.384 3.842,-1.506 4.61,-2.245 v -6.234 z" />
    </clipPath>
  </defs>
  <sodipodi:namedview id="namedview1" pagecolor="#ffffff" bordercolor="#000000" borderopacity="0.25" inkscape:showpageshadow="2" inkscape:pageopacity="0.0" inkscape:pagecheckerboard="0" inkscape:deskcolor="#d1d1d1" inkscape:zoom="3.9092899" inkscape:cx="20.208274" inkscape:cy="45.916267" inkscape:window-width="1440" inkscape:window-height="872" inkscape:window-x="0" inkscape:window-y="0" inkscape:window-maximized="1" inkscape:current-layer="svg1" />
  <path fill="#121212" id="circle1" transform="scale(1.2307692)" clip-path="url(#clipPath1)" inkscape:path-effect="#path-effect2" sodipodi:type="arc" sodipodi:cx="13" sodipodi:cy="13" sodipodi:rx="13" sodipodi:ry="13" d="M 26,13 A 13,13 0 0 1 13,26 13,13 0 0 1 0,13 13,13 0 0 1 13,0 13,13 0 0 1 26,13 Z" />
</svg>
