<?xml version="1.0" encoding="UTF-8"?><svg id="a" xmlns="http://www.w3.org/2000/svg" viewBox="0 0 146.23 80"><g id="b"><path d="m7.86,34.04c0-11.46,7.72-16.81,15.13-16.81s11.62,4.27,13.24,9.36l7.36-2.55c-2.46-7.6-9.53-14.04-20.59-14.04-11.86,0-23,8.86-23,24.04,0,1.75.15,3.4.41,4.98l7.56-2.62c-.07-.76-.11-1.54-.11-2.36Zm11.73,7.57h10.11l-17.34,15.5h11.84l10.76-9.78v9.78h8.08v-23.27h-23.44v7.77h0Zm48.99-16.17h7.47v25.93c0,2.6.19,4.62.32,5.79h-7.15c-.13-.71-.26-2.21-.26-3.52-1.54,2.87-5.22,4.43-8.88,4.43-7.47,0-11.84-5.6-11.84-12.64v-20h7.47v18.64c0,3.91,1.99,7.23,6.31,7.23s6.57-2.93,6.57-7.1v-18.76Zm31.1-.71c-4.83,0-8.44,2.28-9.98,5.02v-4.3h-7.21v44.1h7.4v-15.96c1.61,2.41,5.03,4.37,9.53,4.37,9.01,0,14.74-7.17,14.74-16.68s-5.22-16.54-14.49-16.54h0Zm-1.42,26.51c-4.9,0-8.44-3.91-8.44-9.96s3.54-9.83,8.44-9.83,8.44,3.91,8.44,9.83-3.48,9.96-8.44,9.96Zm31.61-5.73l8.44-20.06h7.91l-19.96,44.55h-7.99l7.54-16.61-13.4-27.95h8.44l9.01,20.06h0Z" style="fill-rule:evenodd; stroke-width:0px;"/></g></svg>