<?xml version="1.0" encoding="UTF-8" standalone="no"?>
<!DOCTYPE svg PUBLIC "-//W3C//DTD SVG 1.1//EN" "http://www.w3.org/Graphics/SVG/1.1/DTD/svg11.dtd">
<!-- Created with Vectornator (http://vectornator.io/) -->
<svg height="100%" stroke-miterlimit="10" style="fill-rule:nonzero;clip-rule:evenodd;stroke-linecap:round;stroke-linejoin:round;" version="1.1" viewBox="0 0 200 80" width="100%" xml:space="preserve" xmlns="http://www.w3.org/2000/svg" xmlns:xlink="http://www.w3.org/1999/xlink">
<defs/>
<path d="M0 0L200 0L200 80L0 80L0 0Z" fill="#000000" fill-opacity="0" fill-rule="nonzero" opacity="1" stroke="none"/>
<g id="Sem-Título">
<path d="M12.9755 32.0517C12.9755 16.7636 23.2795 9.64132 33.1534 9.64132C43.0272 9.64132 48.6482 15.3372 50.8086 22.1225L60.6178 18.72C57.3448 8.57807 47.9043 0 33.1567 0C17.3546 0 2.5001 11.8137 2.5001 32.0517C2.5001 34.381 2.69415 36.5894 3.04344 38.6897L13.1275 35.1924C13.0305 34.1815 12.9755 33.1379 12.9755 32.0517ZM28.6191 42.1477L42.0958 42.1477L18.9716 62.8209L34.764 62.8209L49.1041 49.7803L49.1041 62.8209L59.8836 62.8209L59.8836 31.7866L28.6191 31.7866L28.6191 42.1477ZM93.945 20.5849L103.903 20.5849L103.903 55.1589C103.903 58.6333 104.162 61.3258 104.333 62.8896L94.8025 62.8896C94.6308 61.9344 94.46 59.9354 94.46 58.1982C92.3992 62.0194 87.5033 64.1033 82.6097 64.1033C72.6484 64.1033 66.8109 56.6311 66.8109 47.2515L66.8109 20.5849L76.772 20.5849L76.772 45.4292C76.772 50.6409 79.4337 55.0705 85.1873 55.0705C90.9408 55.0705 93.945 51.161 93.945 45.6026L93.945 20.5849ZM135.42 19.6295C128.981 19.6295 124.172 22.6688 122.112 26.3166L122.112 20.5848L112.493 20.5848L112.493 79.3915L122.367 79.3915L122.367 58.1099C124.515 61.3225 129.065 63.9299 135.077 63.9299C147.099 63.9299 154.741 54.3737 154.741 41.693C154.741 29.0124 147.784 19.6295 135.42 19.6295ZM133.532 54.9822C127.005 54.9822 122.283 49.7706 122.283 41.693C122.283 33.6155 127.005 28.5773 133.532 28.5773C140.058 28.5773 144.78 33.7889 144.78 41.693C144.78 49.5972 140.142 54.9822 133.532 54.9822ZM175.688 47.3399L186.94 20.5849L197.5 20.5849L170.882 80L160.232 80L170.281 57.8514L152.419 20.5849L163.667 20.5849L175.688 47.3399Z" fill="#000000" fill-rule="evenodd" opacity="1" stroke="none"/>
</g>
</svg>
