<?xml version="1.0" encoding="UTF-8" standalone="no"?>
<svg id="a" viewBox="0 0 32.000001 32" version="1.1" sodipodi:docname="gupy.svg" width="32" height="32" inkscape:version="1.4-beta2 (9aaf4f34, 2024-07-30)" xmlns:inkscape="http://www.inkscape.org/namespaces/inkscape" xmlns:sodipodi="http://sodipodi.sourceforge.net/DTD/sodipodi-0.dtd" xmlns="http://www.w3.org/2000/svg" xmlns:svg="http://www.w3.org/2000/svg">
  <defs id="defs1" />
  <sodipodi:namedview id="namedview1" pagecolor="#ffffff" bordercolor="#000000" borderopacity="0.25" inkscape:showpageshadow="2" inkscape:pageopacity="0.0" inkscape:pagecheckerboard="0" inkscape:deskcolor="#d1d1d1" inkscape:zoom="8.5186592" inkscape:cx="15.495396" inkscape:cy="30.814708" inkscape:window-width="1440" inkscape:window-height="872" inkscape:window-x="0" inkscape:window-y="0" inkscape:window-maximized="1" inkscape:current-layer="a" />
  <g id="b" transform="matrix(0.6792613,0,0,0.6792613,1.1955,-6.7926129)" style="fill:#000000">
    <path style="fill-rule:evenodd;stroke-width:0px;fill:#000000" d="M 19.59,41.61 H 29.7 L 12.36,57.11 H 24.2 l 10.76,-9.78 v 9.78 h 8.08 V 33.84 H 19.6 v 7.77 0 z" id="path2" />
    <path style="fill-rule:evenodd;stroke-width:0px;fill:#000000" d="m 7.86,34.04 c 0,-11.46 7.72,-16.81 15.13,-16.81 7.41,0 11.62,4.27 13.24,9.36 l 7.36,-2.55 C 41.13,16.44 34.06,10 23,10 11.14,10 0,18.86 0,34.04 c 0,1.75 0.15,3.4 0.41,4.98 L 7.97,36.4 C 7.9,35.64 7.86,34.86 7.86,34.04 Z" id="path1" />
  </g>
</svg>
