<?xml version="1.0" encoding="UTF-8"?><svg id="a" xmlns="http://www.w3.org/2000/svg" viewBox="0 0 160 80"><defs><style>.c{fill-rule:evenodd;stroke-width:0px;}</style></defs><g id="b"><path class="c" d="m8.6,33.48c0-12.54,8.45-18.39,16.56-18.39s12.71,4.67,14.49,10.24l8.05-2.79c-2.69-8.32-10.43-15.36-22.53-15.36C12.19,7.18,0,16.87,0,33.48c0,1.91.16,3.72.45,5.45l8.27-2.87c-.08-.83-.12-1.69-.12-2.58Zm12.84,8.28h11.06l-18.97,16.96h12.96l11.77-10.7v10.7h8.84v-25.46h-25.65v8.5Zm53.6-17.69h8.17v28.37c0,2.85.21,5.06.35,6.34h-7.82c-.14-.78-.28-2.42-.28-3.85-1.69,3.14-5.71,4.85-9.72,4.85-8.17,0-12.96-6.13-12.96-13.83v-21.88h8.17v20.39c0,4.28,2.18,7.91,6.9,7.91s7.19-3.21,7.19-7.77v-20.53Zm34.03-.78c-5.28,0-9.23,2.49-10.92,5.49v-4.7h-7.89v48.25h8.1v-17.46c1.76,2.64,5.5,4.78,10.43,4.78,9.86,0,16.13-7.84,16.13-18.25s-5.71-18.1-15.85-18.1Zm-1.55,29.01c-5.36,0-9.23-4.28-9.23-10.9s3.87-10.76,9.23-10.76,9.23,4.28,9.23,10.76-3.81,10.9-9.23,10.9Zm34.59-6.27l9.23-21.95h8.66l-21.84,48.75h-8.74l8.25-18.17-14.66-30.58h9.23l9.86,21.95Z"/></g></svg>