<svg id="Camada_1" data-name="Camada 1" xmlns="http://www.w3.org/2000/svg" viewBox="0 0 200 80"><path d="M72.86,43V37H33.39V43Z"/><path d="M22.47,37H0V43H22.47Z"/><path d="M39.47,26H33.4V3.59h6.07Z"/><path d="M39.47,54H33.4V76.41h6.07Z"/><path d="M17.14,16.38l-4.3,4.3L24.38,32.21l4.3-4.3Z"/><path d="M48.57,47.75,44.28,52,55.81,63.57l4.3-4.29Z"/><path d="M12.84,59.33l4.3,4.29L28.68,52.09l-4.3-4.29Z"/><path d="M44.27,27.91l4.3,4.29L60.11,20.68l-4.3-4.3Z"/><path d="M102.38,27.44V30.2a10.11,10.11,0,0,0-7.8-3.6c-7.38,0-12.28,4.95-12.33,13s5.28,13,12.33,12.88a9.76,9.76,0,0,0,7.8-3.6v2.9A9.13,9.13,0,0,1,101,57a7,7,0,0,1-6,3.08,8.33,8.33,0,0,1-5.84-2.06,6.17,6.17,0,0,1-2-3.08l-4.57,1.68a11.82,11.82,0,0,0,3.08,5,13.4,13.4,0,0,0,9.48,3.5,12,12,0,0,0,9.71-4.57,14,14,0,0,0,2.81-8.73V27.49h-5.33ZM95.1,47.84c-4.49,0-7.71-3.17-7.71-8.21s3.22-8.27,7.71-8.27c3.64,0,7.19,2.71,7.24,8v.14C102.29,44.71,99.07,47.84,95.1,47.84Z"/><path d="M133.44,27.49V39.35c0,6.3-2.8,9.19-7,9.19-3.64,0-6.54-2.38-6.54-8V27.49h-5.13v13.3c0,9.57,4.9,12.42,11.2,12.42a8.62,8.62,0,0,0,7.57-3.69v3h5.14V27.49Z"/><path d="M160.07,26.6a11,11,0,0,0-8.51,3.83V27.49h-5.51V64.36h5.51V49.75a10.9,10.9,0,0,0,8.32,3.69c6.07-.09,11.39-4.57,11.86-12.79h0C172.12,32,166.56,26.74,160.07,26.6ZM159,48.82c-3.6,0-7.15-2.66-7.39-7.75V39.72c.15-5.28,3.51-8.45,7.62-8.45s7.66,3.45,7.57,9.06C166.42,46.11,162.68,48.77,159,48.82Z"/><path d="M194.39,27.49,187,46.07,178.7,27.49h-5.56l11.31,24.93-4.72,11.85h5.51L200,27.49Z"/></svg>