<svg viewBox="0 0 31.999999 32" version="1.1" width="32" height="32" xmlns="http://www.w3.org/2000/svg" xmlns:svg="http://www.w3.org/2000/svg">
  <path d="M 5.1325195e-8,27.395565 H 6.1041409 V 13.596933 c 2.6661764,-2.110723 3.8823271,-2.777268 4.8821431,-2.777268 1.181069,0 1.958704,0.742554 1.958704,2.590168 v 13.985732 h 6.104141 V 13.561852 c 2.666176,-2.069795 3.847246,-2.748032 4.882143,-2.748032 1.18107,0 1.964551,0.742553 1.964551,2.590167 v 13.991578 h 6.104141 V 11.264028 c 0.01169,-4.9932335 -2.835736,-6.6595935 -5.572075,-6.6595935 -2.332904,0 -4.70089,0.958888 -7.805582,3.326874 -0.999816,-2.479077 -3.180702,-3.326874 -5.145253,-3.326874 -2.332904,0 -4.7008898,1.034897 -7.7295727,3.356108 V 5.1949695 H 5.1325195e-8 Z" style="stroke-width:0px" fill="#000" />
</svg>
