<svg id="Layer_1" data-name="Layer 1" xmlns="http://www.w3.org/2000/svg" xmlns:xlink="http://www.w3.org/1999/xlink" viewBox="0 0 200 80"><defs><style>.cls-1{clip-path:url(#clip-path);}</style><clipPath id="clip-path"><path d="M133.3,33.83c-.18-8.22-6-12.57-13.12-12.57a13.27,13.27,0,0,0-9.84,3.86,13.26,13.26,0,0,0-9.83-3.86c-7.13,0-13,4.37-13.13,12.59v18.8a3.1,3.1,0,0,0,3.11,3.1h2.94a.52.52,0,0,0,.53-.52V33.88h0c.13-4.05,3-6.2,6.55-6.2s6.41,2.15,6.54,6.2h0V52.63a3.11,3.11,0,0,0,3.11,3.11h3a.52.52,0,0,0,.52-.53V33.86h0c.13-4.05,3-6.2,6.55-6.2s6.42,2.15,6.54,6.2h0V52.61a3.11,3.11,0,0,0,3.11,3.11h2.95a.52.52,0,0,0,.52-.53V33.85s0,0,0,0Zm66.31-12h-5a4.17,4.17,0,0,0-3.45,1.84l-5.53,8.18a1.82,1.82,0,0,1-3,0l-5.53-8.18a4.15,4.15,0,0,0-3.45-1.84h-5a.39.39,0,0,0-.33.6L178.16,37a3.13,3.13,0,0,1,0,3.49L168.3,55.12a.39.39,0,0,0,.33.6h5a4.17,4.17,0,0,0,3.45-1.84l5.53-8.18a1.82,1.82,0,0,1,3,0l5.53,8.18a4.15,4.15,0,0,0,3.45,1.84h5a.39.39,0,0,0,.33-.6l-9.87-14.6a3.13,3.13,0,0,1,0-3.49l9.85-14.62A.39.39,0,0,0,199.61,21.79Zm-33.56,0h-3a3.14,3.14,0,0,0-3,2.46,15.43,15.43,0,0,0-9.46-3c-8.61,0-15.61,6-15.61,17.32s7,17.33,15.61,17.33a15.48,15.48,0,0,0,9.4-3,3.13,3.13,0,0,0,3.11,2.83h3a.52.52,0,0,0,.53-.52V22.32A.55.55,0,0,0,166.05,21.79ZM150.59,49.45c-5.14,0-9.32-3.77-9.32-10.88s4.18-10.87,9.32-10.87,9.33,3.76,9.33,10.87S155.74,49.45,150.59,49.45Z"/></clipPath></defs><g id="g52"><path id="path3441" d="M24.64,55.74H15.42V42.59h-6V55.74H0V21.83H9.44V34.48h6V21.83h9.22V55.74Zm42.25.14A17.34,17.34,0,0,0,84,38.46,17.19,17.19,0,0,0,51.33,31c0-4.2-4.2-9.22-9.08-9.22H26.51V55.74H41.16c6,0,10.17-5.09,10.17-9.57A17.25,17.25,0,0,0,66.89,55.88ZM40,42.1a2.91,2.91,0,0,1,0,5.75H35.31V42.1Zm0-12.73a2.87,2.87,0,0,1,0,5.68H35.31V29.37Zm6.2,9.09a7.17,7.17,0,0,0,3.54-2.07,14.76,14.76,0,0,0,0,4.69A7,7,0,0,0,46.2,38.46Zm12.09,0a8.62,8.62,0,1,1,8.62,8.66A8.62,8.62,0,0,1,58.29,38.46Zm8.6,6.8a6.78,6.78,0,1,0-6.8-6.8A6.8,6.8,0,0,0,66.89,45.26Z"/><g id="g888"><path d="M133.3,33.83c-.18-8.22-6-12.57-13.12-12.57a13.27,13.27,0,0,0-9.84,3.86,13.26,13.26,0,0,0-9.83-3.86c-7.13,0-13,4.37-13.13,12.59v18.8a3.1,3.1,0,0,0,3.11,3.1h2.94a.52.52,0,0,0,.53-.52V33.88h0c.13-4.05,3-6.2,6.55-6.2s6.41,2.15,6.54,6.2h0V52.63a3.11,3.11,0,0,0,3.11,3.11h3a.52.52,0,0,0,.52-.53V33.86h0c.13-4.05,3-6.2,6.55-6.2s6.42,2.15,6.54,6.2h0V52.61a3.11,3.11,0,0,0,3.11,3.11h2.95a.52.52,0,0,0,.52-.53V33.85s0,0,0,0Zm66.31-12h-5a4.17,4.17,0,0,0-3.45,1.84l-5.53,8.18a1.82,1.82,0,0,1-3,0l-5.53-8.18a4.15,4.15,0,0,0-3.45-1.84h-5a.39.39,0,0,0-.33.6L178.16,37a3.13,3.13,0,0,1,0,3.49L168.3,55.12a.39.39,0,0,0,.33.6h5a4.17,4.17,0,0,0,3.45-1.84l5.53-8.18a1.82,1.82,0,0,1,3,0l5.53,8.18a4.15,4.15,0,0,0,3.45,1.84h5a.39.39,0,0,0,.33-.6l-9.87-14.6a3.13,3.13,0,0,1,0-3.49l9.85-14.62a.39.39,0,0,0-.31-.62Zm-33.56,0h-3a3.14,3.14,0,0,0-3,2.46,15.43,15.43,0,0,0-9.46-3c-8.61,0-15.61,6-15.61,17.32s7,17.33,15.61,17.33a15.48,15.48,0,0,0,9.4-3,3.13,3.13,0,0,0,3.11,2.83h3a.52.52,0,0,0,.53-.52V22.32A.55.55,0,0,0,166.05,21.79ZM150.59,49.45c-5.14,0-9.32-3.77-9.32-10.88s4.18-10.87,9.32-10.87,9.33,3.76,9.33,10.87S155.74,49.45,150.59,49.45Z"/><g id="g3453"><path d="M133.3,33.83c-.18-8.22-6-12.57-13.12-12.57a13.27,13.27,0,0,0-9.84,3.86,13.26,13.26,0,0,0-9.83-3.86c-7.13,0-13,4.37-13.13,12.59v18.8a3.1,3.1,0,0,0,3.11,3.1h2.94a.52.52,0,0,0,.53-.52V33.88h0c.13-4.05,3-6.2,6.55-6.2s6.41,2.15,6.54,6.2h0V52.63a3.11,3.11,0,0,0,3.11,3.11h3a.52.52,0,0,0,.52-.53V33.86h0c.13-4.05,3-6.2,6.55-6.2s6.42,2.15,6.54,6.2h0V52.61a3.11,3.11,0,0,0,3.11,3.11h2.95a.52.52,0,0,0,.52-.53V33.85s0,0,0,0Zm66.31-12h-5a4.17,4.17,0,0,0-3.45,1.84l-5.53,8.18a1.82,1.82,0,0,1-3,0l-5.53-8.18a4.15,4.15,0,0,0-3.45-1.84h-5a.39.39,0,0,0-.33.6L178.16,37a3.13,3.13,0,0,1,0,3.49L168.3,55.12a.39.39,0,0,0,.33.6h5a4.17,4.17,0,0,0,3.45-1.84l5.53-8.18a1.82,1.82,0,0,1,3,0l5.53,8.18a4.15,4.15,0,0,0,3.45,1.84h5a.39.39,0,0,0,.33-.6l-9.87-14.6a3.13,3.13,0,0,1,0-3.49l9.85-14.62A.39.39,0,0,0,199.61,21.79Zm-33.56,0h-3a3.14,3.14,0,0,0-3,2.46,15.43,15.43,0,0,0-9.46-3c-8.61,0-15.61,6-15.61,17.32s7,17.33,15.61,17.33a15.48,15.48,0,0,0,9.4-3,3.13,3.13,0,0,0,3.11,2.83h3a.52.52,0,0,0,.53-.52V22.32A.55.55,0,0,0,166.05,21.79ZM150.59,49.45c-5.14,0-9.32-3.77-9.32-10.88s4.18-10.87,9.32-10.87,9.33,3.76,9.33,10.87S155.74,49.45,150.59,49.45Z"/><g class="cls-1"><ellipse id="ellipse3466" cx="114.49" cy="32.19" rx="20.11" ry="26.18"/></g><path d="M133.3,33.83c-.18-8.22-6-12.57-13.12-12.57a13.27,13.27,0,0,0-9.84,3.86,13.26,13.26,0,0,0-9.83-3.86c-7.13,0-13,4.37-13.13,12.59v18.8a3.1,3.1,0,0,0,3.11,3.1h2.94a.52.52,0,0,0,.53-.52V33.88h0c.13-4.05,3-6.2,6.55-6.2s6.41,2.15,6.54,6.2h0V52.63a3.11,3.11,0,0,0,3.11,3.11h3a.52.52,0,0,0,.52-.53V33.86h0c.13-4.05,3-6.2,6.55-6.2s6.42,2.15,6.54,6.2h0V52.61a3.11,3.11,0,0,0,3.11,3.11h2.95a.52.52,0,0,0,.52-.53V33.85s0,0,0,0Zm66.31-12h-5a4.17,4.17,0,0,0-3.45,1.84l-5.53,8.18a1.82,1.82,0,0,1-3,0l-5.53-8.18a4.15,4.15,0,0,0-3.45-1.84h-5a.39.39,0,0,0-.33.6L178.16,37a3.13,3.13,0,0,1,0,3.49L168.3,55.12a.39.39,0,0,0,.33.6h5a4.17,4.17,0,0,0,3.45-1.84l5.53-8.18a1.82,1.82,0,0,1,3,0l5.53,8.18a4.15,4.15,0,0,0,3.45,1.84h5a.39.39,0,0,0,.33-.6l-9.87-14.6a3.13,3.13,0,0,1,0-3.49l9.85-14.62A.39.39,0,0,0,199.61,21.79Zm-33.56,0h-3a3.14,3.14,0,0,0-3,2.46,15.43,15.43,0,0,0-9.46-3c-8.61,0-15.61,6-15.61,17.32s7,17.33,15.61,17.33a15.48,15.48,0,0,0,9.4-3,3.13,3.13,0,0,0,3.11,2.83h3a.52.52,0,0,0,.53-.52V22.32A.55.55,0,0,0,166.05,21.79ZM150.59,49.45c-5.14,0-9.32-3.77-9.32-10.88s4.18-10.87,9.32-10.87,9.33,3.76,9.33,10.87S155.74,49.45,150.59,49.45Z"/><g class="cls-1"><ellipse id="ellipse3473" cx="134.52" cy="54.01" rx="41.38" ry="29.29"/></g><path d="M133.3,33.83c-.18-8.22-6-12.57-13.12-12.57a13.27,13.27,0,0,0-9.84,3.86,13.26,13.26,0,0,0-9.83-3.86c-7.13,0-13,4.37-13.13,12.59v18.8a3.1,3.1,0,0,0,3.11,3.1h2.94a.52.52,0,0,0,.53-.52V33.88h0c.13-4.05,3-6.2,6.55-6.2s6.41,2.15,6.54,6.2h0V52.63a3.11,3.11,0,0,0,3.11,3.11h3a.52.52,0,0,0,.52-.53V33.86h0c.13-4.05,3-6.2,6.55-6.2s6.42,2.15,6.54,6.2h0V52.61a3.11,3.11,0,0,0,3.11,3.11h2.95a.52.52,0,0,0,.52-.53V33.85s0,0,0,0Zm66.31-12h-5a4.17,4.17,0,0,0-3.45,1.84l-5.53,8.18a1.82,1.82,0,0,1-3,0l-5.53-8.18a4.15,4.15,0,0,0-3.45-1.84h-5a.39.39,0,0,0-.33.6L178.16,37a3.13,3.13,0,0,1,0,3.49L168.3,55.12a.39.39,0,0,0,.33.6h5a4.17,4.17,0,0,0,3.45-1.84l5.53-8.18a1.82,1.82,0,0,1,3,0l5.53,8.18a4.15,4.15,0,0,0,3.45,1.84h5a.39.39,0,0,0,.33-.6l-9.87-14.6a3.13,3.13,0,0,1,0-3.49l9.85-14.62A.39.39,0,0,0,199.61,21.79Zm-33.56,0h-3a3.14,3.14,0,0,0-3,2.46,15.43,15.43,0,0,0-9.46-3c-8.61,0-15.61,6-15.61,17.32s7,17.33,15.61,17.33a15.48,15.48,0,0,0,9.4-3,3.13,3.13,0,0,0,3.11,2.83h3a.52.52,0,0,0,.53-.52V22.32A.55.55,0,0,0,166.05,21.79ZM150.59,49.45c-5.14,0-9.32-3.77-9.32-10.88s4.18-10.87,9.32-10.87,9.33,3.76,9.33,10.87S155.74,49.45,150.59,49.45Z"/><g class="cls-1"><circle id="circle3480" cx="159.92" cy="23.21" r="22.51"/></g></g></g></g></svg>