<svg version="1.0" width="32pt" height="32pt" viewBox="0 0 32 32" preserveAspectRatio="xMidYMid" xmlns="http://www.w3.org/2000/svg">
  <path d="M15.98 0c-1.026.003-2.051.07-2.75.195-3.877.699-7.556 2.953-9.916 6.079C.887 9.478-.286 13.539.083 17.39c.316 3.217 1.464 6.053 3.481 8.571 2.994 3.732 6.884 5.763 11.565 6.013 5.169.29 10.022-1.885 13.305-5.96 2.268-2.822 3.389-5.829 3.534-9.508.185-4.615-1.24-8.373-4.43-11.696-2.308-2.4-5.434-4.035-8.81-4.628C18.03.056 17.006-.003 15.98 0zm-.124 7.915c.72 0 1.52.063 1.99.178 3.784.884 6.513 4.563 6.184 8.308-.37 4.299-3.745 7.45-7.978 7.45-2.202 0-4.088-.778-5.604-2.294C8.852 19.948 8.1 18.102 8.1 15.873c.014-1.516.185-2.241.858-3.6 1.08-2.188 3.349-3.876 5.775-4.285a7.15 7.15 0 0 1 1.123-.073zm.162 1.702a6.335 6.335 0 0 0-4.291 1.747c-2.519 2.386-2.611 6.29-.211 8.808 1.292 1.345 2.716 1.965 4.536 1.965 1.055 0 2.07-.237 2.954-.686.633-.33 1.82-1.424 2.32-2.149 1.187-1.74 1.332-4.299.343-6.237-.764-1.517-2.386-2.809-4.1-3.257a6.03 6.03 0 0 0-1.551-.191z" style="baseline-shift:baseline;display:inline;overflow:visible;vector-effect:none;fill:#000;fill-rule:evenodd;stroke-width:.131865;stroke-linecap:round;paint-order:stroke fill markers;enable-background:accumulate;stop-color:#000;stop-opacity:1"/>
</svg>