<svg version="1.1" width="32" height="32" xmlns="http://www.w3.org/2000/svg" xmlns:svg="http://www.w3.org/2000/svg">
  <path d="m 9.9927205,6.9566372 c 0.4016705,0.37949 0.7193845,0.75492 0.8009825,1.31705 0.01277,0.71861 -0.178098,1.35931 -0.389405,2.0378598 -0.03753,0.12391 -0.07494,0.24785 -0.112246,0.37183 -0.09806,0.32479 -0.197649,0.6491 -0.2975995,0.97331 -0.100103,0.32561 -0.19881,0.65164 -0.297605,0.97764 -0.149842,0.49392 -0.300198,0.98768 -0.451052,1.48129 -0.156365,0.5119 -0.312686,1.02381 -0.465704,1.53672 -0.03181,0.10608 -0.06361,0.21216 -0.09638,0.32145 -0.07344,0.24169 -0.07344,0.24169 -0.06269,0.49902 0.04865,-0.0488 0.0973,-0.0976 0.147421,-0.1479 1.183718,-1.1875 2.3679125,-2.37453 3.5526345,-3.56103 0.572911,-0.5738 1.145661,-1.14776 1.718033,-1.72209 0.498875,-0.50058 0.99805,-1.00086 1.497589,-1.5007898 0.264495,-0.26471 0.528836,-0.52958 0.792818,-0.79481 0.248515,-0.24968 0.497432,-0.49895 0.746659,-0.74792 0.09135,-0.0914 0.182557,-0.18295 0.273603,-0.27465 0.124472,-0.12533 0.249464,-0.25011 0.374597,-0.37478 0.104671,-0.10491 0.104671,-0.10491 0.211456,-0.21193 0.325856,-0.29172 0.622257,-0.4736 1.058676,-0.52319 0.05559,-0.007 0.111176,-0.013 0.168448,-0.0198 0.565814,-0.0368 0.998659,0.12305 1.460446,0.44841 0.414176,0.41589 0.659311,0.8652 0.706069,1.45549 -0.0052,0.45675 -0.157257,0.88064 -0.290138,1.3137 -0.02817,0.0941 -0.05633,0.18829 -0.08535,0.2852898 -0.09158,0.30555 -0.184287,0.61075 -0.277002,0.91595 -0.06293,0.2093 -0.125779,0.41862 -0.188542,0.62796 -0.124887,0.41634 -0.250134,0.83257 -0.37566,1.24871 -0.214838,0.71319 -0.425456,1.42758 -0.634806,2.14239 -0.05406,0.18456 -0.108227,0.36909 -0.162436,0.55361 -0.07849,0.26718 -0.156926,0.53439 -0.235301,0.80161 0.297323,-0.22936 0.561264,-0.46947 0.819183,-0.74218 0.113775,-0.11973 0.113775,-0.11973 0.229848,-0.24188 0.04037,-0.0427 0.08074,-0.0854 0.122333,-0.12943 0.22309,-0.23595 0.44714,-0.47099 0.67111,-0.7061 0.04767,-0.0501 0.09534,-0.10016 0.144458,-0.15176 0.668013,-0.70099 1.343699,-1.39458 2.019078,-2.08847 0.54864,-0.56412 1.094378,-1.13058 1.634087,-1.70326 0.472297,-0.50113 0.949578,-0.9968598 1.433146,-1.4871298 0.255073,-0.25897 0.507156,-0.51972 0.753353,-0.78716 1.669115,-1.80775 1.669115,-1.80775 3.005005,-1.87128 0.62354,-0.01 1.24001,0.0452 1.85663,0.13529 0.2617,0.98171 0.39517,2.11888 -0.11853,3.04216 -0.7821,1.1617898 -1.86652,2.1229198 -2.874116,3.0861498 -0.439379,0.42055 -0.870606,0.84911 -1.301676,1.27814 -0.769456,0.76538 -1.545133,1.52411 -2.324946,2.27892 -0.754814,0.73064 -1.505935,1.46479 -2.252791,2.20356 -0.04612,0.0456 -0.09224,0.0912 -0.139762,0.13825 -0.185443,0.18345 -0.370871,0.36691 -0.556276,0.5504 -0.800999,0.79259 -1.604452,1.58268 -2.408656,2.37202 -0.0864,0.0848 -0.172791,0.16961 -0.259172,0.25443 -0.535094,0.52539 -1.07143,1.04945 -1.610009,1.57127 -0.14957,0.14518 -0.298803,0.2907 -0.447668,0.4366 -0.203727,0.1995 -0.408692,0.39763 -0.614043,0.59546 -0.08732,0.0863 -0.08732,0.0863 -0.176405,0.17434 -0.513961,0.49014 -1.089589,0.88483 -1.81573,0.9274 -0.612729,-0.0374 -1.017191,-0.27254 -1.430641,-0.718 -0.446523,-0.55254 -0.589383,-1.03325 -0.530462,-1.7307 0.06209,-0.29819 0.151288,-0.58493 0.244468,-0.87472 0.02542,-0.0822 0.05084,-0.16435 0.07703,-0.24901 0.08114,-0.26159 0.163741,-0.52269 0.246469,-0.78379 0.106856,-0.34147 0.213149,-0.68312 0.319483,-1.02476 0.02633,-0.0842 0.05267,-0.16844 0.0798,-0.25521 0.244909,-0.78625 0.470735,-1.57744 0.694362,-2.36996 0.109896,-0.38672 0.225693,-0.77165 0.342354,-1.15638 0.03332,-0.11048 0.03332,-0.11048 0.06731,-0.2232 0.05246,-0.1739 0.105076,-0.34775 0.157732,-0.52159 -0.552315,0.46571 -1.062532,0.96759 -1.569933,1.48127 -0.08667,0.0874 -0.173361,0.17477 -0.260073,0.26212 -0.18544,0.18687 -0.370758,0.37385 -0.555992,0.56092 -0.293378,0.29619 -0.587283,0.59186 -0.881305,0.88741 -0.101015,0.10155 -0.202031,0.2031 -0.303046,0.30465 -0.05055,0.0508 -0.101105,0.10164 -0.153189,0.154 -0.683504,0.68718 -1.366611,1.37475 -2.0484845,2.06355 -0.461353,0.46603 -0.923469,0.93129 -1.386466,1.39568 -0.244444,0.24525 -0.488482,0.49087 -0.731583,0.73744 -0.228553,0.23181 -0.4581,0.46259 -0.688426,0.69264 -0.08397,0.0842 -0.16758,0.16882 -0.250777,0.25381 -0.566792,0.57845 -1.061254,1.00428 -1.881778,1.10847 -0.567284,-0.0351 -1.112214,-0.24359 -1.500298,-0.66441 -0.433765,-0.57877 -0.549502,-1.15099 -0.47688,-1.86466 0.104137,-0.46686 0.242086,-0.92181 0.381772,-1.37907 0.03964,-0.13275 0.07918,-0.26553 0.118629,-0.39834 0.103686,-0.34804 0.208793,-0.69563 0.314188,-1.04316 0.08515,-0.28158 0.169297,-0.56346 0.253391,-0.84537 0.704857,-2.36264 0.704857,-2.36264 1.01531,-3.24888 0.07226,-0.20701 0.07226,-0.20701 0.05999,-0.45807 -0.03751,0.0398 -0.07502,0.0795 -0.113673,0.12048 -0.173472,0.18247 -0.348679,0.36319 -0.523953,0.54394 -0.05896,0.0625 -0.117918,0.1251 -0.178663,0.18954 -0.475725,0.48679 -0.926263,0.79024 -1.603275,0.90923 -0.69274,-9.6e-4 -1.094209,-0.14 -1.58837296,-0.62424 -0.36631,-0.40241 -0.559419,-0.77257 -0.573328,-1.32649 -0.0034,-0.0737 -0.0069,-0.14742 -0.010380004394,-0.22337 C 0.13511954,14.428777 0.61550654,13.870777 1.1610105,13.335077 c 0.06767,-0.0681 0.135332,-0.13628 0.205049,-0.20649 0.22198,-0.22298 0.44546,-0.44439 0.669051,-0.66576 0.155638,-0.15549 0.3112,-0.31106 0.466689,-0.4667 0.325215,-0.32508 0.651119,-0.64943 0.97764,-0.9732 0.376448,-0.37328 0.751673,-0.74775 1.126242,-1.1229198 0.361972,-0.36251 0.724681,-0.72428 1.087749,-1.08569 0.15377,-0.15317 0.307374,-0.30651 0.460807,-0.46001 0.214574,-0.21442 0.429969,-0.42798 0.645615,-0.64132 0.0629,-0.0632 0.125808,-0.12631 0.190619,-0.19138 0.821949,-0.80848 1.95621,-1.34249 3.002243,-0.56501 z" fill="#000" style="stroke-width:0.0857313" />
</svg>
