<?xml version="1.0" encoding="UTF-8" standalone="no"?>
<svg width="32" height="32" version="1.1" id="svg6" xmlns="http://www.w3.org/2000/svg" xmlns:svg="http://www.w3.org/2000/svg">
  <defs id="defs6" />
  <path id="path2" style="fill:#000000;stroke-width:0.141373" d="m 0.00232735,0.00142252 c 0,8.30878998 -0.00339,16.62082048 0,24.92975048 0.7392413,-0.74928 1.49180695,-1.48839 2.23104815,-2.23767 0.1074438,-0.11098 0.2486757,-0.20175 0.4064484,-0.21179 0.2286007,-0.017 0.4401108,0.2286 0.3763514,0.45367 -0.05047,0.17799 -0.1880553,0.33603 -0.1814107,0.5307 0.040433,0.16484 0.1781811,0.27552 0.2924108,0.38961 1.7068005,1.70694 3.41321,3.41715 5.1234034,5.12395 0.083976,0.0806 0.1783601,0.17137 0.3026273,0.18141 0.1949539,0 0.3491614,-0.1481 0.5373293,-0.185 0.2252078,-0.0471 0.4535455,0.17835 0.4232916,0.40341 -0.020075,0.19496 -0.15783,0.34258 -0.2921347,0.47024 l -2.1468317,2.14683 h 9.0948344 c 0.04708,-0.0942 0.104274,-0.21497 0.02016,-0.30898 -0.184634,-0.21517 -0.399735,-0.40323 -0.597799,-0.61133 -0.789571,-0.78957 -1.5792,-1.57601 -2.365519,-2.36883 -0.06701,-0.0605 -0.14124,-0.13435 -0.235254,-0.12785 -0.107585,0.0235 -0.198079,0.0943 -0.305664,0.10769 -0.120875,-0.007 -0.235038,-0.12451 -0.214822,-0.24878 0.04354,-0.12766 0.144217,-0.21814 0.234978,-0.31229 0.430058,-0.41988 0.846783,-0.85353 1.280092,-1.27015 a 2241.594,2241.594 0 0 0 3.974745,3.97474 c -0.389767,0.38977 -0.779601,0.77615 -1.169367,1.16578 h 15.206471 v -15.20316 c -0.409983,0.40998 -0.82331,0.82005 -1.233152,1.23343 -0.07054,0.0738 -0.164454,0.14765 -0.27529,0.12729 -0.124267,-0.003 -0.218469,-0.14414 -0.174784,-0.26176 0.03025,-0.1008 0.10731,-0.19483 0.09388,-0.30567 -0.04029,-0.1008 -0.127495,-0.16814 -0.201292,-0.24547 -0.87708,-0.8734 -1.750697,-1.74696 -2.624243,-2.62065 -0.241889,-0.25193 -0.500552,-0.48384 -0.732545,-0.7458 0.440378,-0.42342 0.867074,-0.86017 1.300524,-1.29362 1.091827,1.07839 2.170191,2.17048 3.258766,3.25241 0.100799,0.0974 0.191694,0.21163 0.312568,0.28882 0.09076,0.0438 0.188058,-0.0167 0.275568,-0.0469 0.0033,-3.03387 0,-6.06786 0,-9.1017305 -0.450274,0.45366 -0.90729,0.90048 -1.350779,1.3574 -0.198205,-0.1647 -0.362673,-0.3662 -0.557486,-0.53401 0.04708,-0.0809 0.09732,-0.16166 0.151038,-0.23885 0.201599,-0.31922 0.335902,-0.68515 0.382979,-1.05809 0.07055,-0.54768 -0.03342,-1.10884 -0.268666,-1.60619 -0.07719,-0.1746 -0.164783,-0.36612 -0.114313,-0.56107 0.04029,-0.0974 0.127649,-0.16783 0.218411,-0.21151 0.137839,-0.0639 0.302336,-0.0102 0.403136,0.0942 0.379728,0.3762 0.7527,0.75921 1.13568,1.13541 0.0033,-1.81764 0,-3.63526 0,-5.44949998 -1.85807,0.003 -3.719336,-0.007 -5.580658,0.003 0.386373,0.39316 0.779601,0.77938 1.169367,1.17239998 0.08383,0.0773 0.130957,0.20527 0.08063,0.31257 -0.06051,0.15466 -0.191674,0.30916 -0.366411,0.31919 -0.177989,-0.0168 -0.325849,-0.1242 -0.483763,-0.19135 -0.416486,-0.18152 -0.873505,-0.29917 -1.327031,-0.25209 -0.503996,0.037 -0.967579,0.26205 -1.377561,0.54423 -0.178131,-0.18478 -0.366385,-0.35952 -0.544233,-0.54755 0.449992,-0.45366998 0.90721,-0.90387998 1.354091,-1.35739998 -1.612646,-0.007 -3.229035,-0.003 -4.845074,-0.003 z M 23.137856,1.8077925 c 0.02099,-0.005 0.04203,-7e-4 0.05716,0.0246 a 6996.3734,6996.3734 0 0 1 7.022005,7.022 1688.783,1688.783 0 0 0 -2.462714,2.4660305 c -0.107585,0.1008 -0.238556,0.1849 -0.386292,0.19494 -0.204991,0.017 -0.410018,-0.16797 -0.393194,-0.37635 0.0068,-0.20485 0.181331,-0.36291 0.184724,-0.57129 0.0068,-0.13106 -0.09412,-0.2283 -0.178097,-0.3192 -1.737054,-1.7335205 -3.470566,-3.4704205 -5.20762,-5.2076205 -0.09741,-0.094 -0.205004,-0.21147 -0.352881,-0.20129 -0.218421,0.003 -0.382754,0.20488 -0.604426,0.18141 -0.127801,0.003 -0.232241,-0.0978 -0.296002,-0.20184 -0.08737,-0.18139 -0.0067,-0.39971 0.12453,-0.53402 0.813039,-0.81318 1.626009,-1.6262 2.435654,-2.43924 0.01513,-0.0168 0.03616,-0.0326 0.05716,-0.0381 z m 3.662177,0.50171 c 0.167951,0.0136 0.288985,0.15106 0.399822,0.26204 a 1181.3638,1181.3638 0 0 0 2.01595,2.01927 c 0.12766,0.1244 0.278725,0.24542 0.308979,0.43019 0.01682,0.19142 -0.15789,0.36276 -0.342665,0.38298 -0.154522,0.003 -0.295614,-0.0807 -0.429918,-0.15463 -0.285716,-0.16795 -0.608207,-0.30233 -0.947644,-0.28551 -0.174738,-0.003 -0.342549,0.067 -0.500605,0.13751 -0.184775,-0.1982 -0.396279,-0.37596 -0.571017,-0.58095 0.05372,-0.15113 0.124293,-0.29581 0.134472,-0.45726 0.02361,-0.36601 -0.124338,-0.7153 -0.309254,-1.02109 -0.09401,-0.15113 -0.167998,-0.33954 -0.104098,-0.51414 0.06715,-0.12426 0.19485,-0.23848 0.345978,-0.21841 z m -14.044007,0.87696 c 0.346082,0.3359 0.682206,0.67517 1.021643,1.01447 0.110837,0.10758 0.0099,0.28903 -0.114313,0.33272 -0.104192,0.0134 -0.195084,-0.0569 -0.289098,-0.0906 -0.362764,-0.17799 -0.812954,-0.19812 -1.175718,-0.003 -0.09415,0.0403 -0.171455,0.12069 -0.272254,0.13751 -0.100799,-0.0806 -0.184726,-0.18129 -0.278881,-0.26866 0.363047,-0.38298 0.745857,-0.74243 1.108621,-1.12215 z m -1.336972,1.33697 c 0.493817,0.47714 0.971016,0.97118 1.458189,1.45156 0.762709,0.75932 1.521826,1.5253 2.287929,2.28462 a 162.92713,162.92713 0 0 1 -1.317092,1.31709 c -0.09076,0.10066 -0.272139,0.14457 -0.359508,0.0202 -0.107444,-0.11423 0.01,-0.25542 0.04363,-0.37304 0.04029,-0.0874 -0.03,-0.16439 -0.08725,-0.22476 a 1005.9482,1005.9482 0 0 1 -2.634183,-2.63418 c -0.08058,-0.0739 -0.147788,-0.16463 -0.245195,-0.2151 -0.134304,-0.0303 -0.238395,0.0907 -0.369448,0.0975 -0.100799,-0.0102 -0.194841,-0.11077 -0.181411,-0.2151 0.0066,-0.0806 0.05361,-0.15108 0.110724,-0.20819 0.430058,-0.43345 0.866957,-0.86029 1.293622,-1.30053 z m 1.904951,0.27585 c 0.08737,-0.0134 0.157903,0.0535 0.21841,0.11072 0.362764,0.36276 0.72548,0.72923 1.091778,1.08874 0.06376,0.0705 0.154468,0.1341 0.161254,0.23829 0.01343,0.10419 -0.08722,0.20512 -0.194664,0.19494 -0.141232,0 -0.248691,-0.11086 -0.376352,-0.15794 -0.188168,-0.0872 -0.416614,-0.0939 -0.601389,0.007 -0.09741,-0.0974 -0.194925,-0.19833 -0.295724,-0.2891 0.04383,-0.14787 0.08398,-0.30562 0.04694,-0.46029 -0.02686,-0.17459 -0.147845,-0.3092 -0.201567,-0.47051 -0.04354,-0.11083 0.03369,-0.24493 0.151313,-0.26176 z m 6.699771,0.34791 c 0.195115,0.0225 0.370272,0.21455 0.332172,0.41445 -0.03025,0.2016 -0.198013,0.36297 -0.184724,0.57488 0.03365,0.1476 0.154557,0.24828 0.251822,0.35261 1.716979,1.71344 3.433784,3.42368 5.143836,5.1405205 0.09416,0.0841 0.188338,0.19494 0.322784,0.19494 0.201598,0 0.355985,-0.15121 0.547546,-0.185 0.221674,-0.0367 0.440077,0.1816 0.413075,0.40341 -0.01329,0.15113 -0.103867,0.28197 -0.207918,0.38602 -0.86365,0.86012 -1.723876,1.72713 -2.587243,2.58724 -0.110836,0.11084 -0.25183,0.21151 -0.416388,0.21151 -0.181665,0.01 -0.356473,-0.1441 -0.379941,-0.32223 -0.02361,-0.23525 0.194822,-0.41005 0.188036,-0.64529 -0.01004,-0.11084 -0.08704,-0.20147 -0.160977,-0.2822 -1.508595,-1.50506 -3.013837,-3.01377 -4.52229,-4.5189705 1.246488,2.3148405 2.502941,4.6232105 3.749431,6.9380605 0.02007,0.0335 0.03702,0.0707 0.05384,0.111 -0.09062,0.0838 -0.177982,0.17459 -0.265351,0.26535 -2.496371,-1.22952 -4.989593,-2.47289 -7.482572,-3.7058 -0.393018,-0.19482 -0.78276,-0.42342 -1.226248,-0.47714 -0.147876,-0.0204 -0.248474,0.10091 -0.355918,0.1781 -0.110978,0.0874 -0.258952,0.14088 -0.396508,0.0972 -0.1647,-0.0738 -0.278822,-0.26863 -0.228351,-0.44676 0.03351,-0.12087 0.117512,-0.22174 0.204881,-0.30925 0.806393,-0.80286 1.609378,-1.60913 2.415772,-2.4088705 1.256385,0.6148305 2.516155,1.2162505 3.776216,1.8312205 0.04029,0.0301 0.0839,0.0605 0.120939,0.10079 0.02022,-0.0236 0.03708,-0.0472 0.05716,-0.0707 l -0.04722,0.007 c -0.661768,-1.25992 -1.357214,-2.5030405 -2.019265,-3.7629605 0.833255,-0.82647 1.656597,-1.65613 2.486459,-2.48259 0.09076,-0.0908 0.204923,-0.15796 0.332725,-0.17479 0.02811,-0.004 0.05634,-0.005 0.08422,-0.001 z m -4.679679,0.65192 c 0.06047,-0.005 0.123447,0.0146 0.163739,0.0616 0.339296,0.34269 0.685447,0.68544 1.027995,1.02827 a 128.76497,128.76497 0 0 1 -1.155562,1.15225 c -0.08737,-0.1008 -0.205102,-0.18114 -0.272254,-0.29876 0.110837,-0.18817 0.228471,-0.37972 0.258725,-0.60139 0.05711,-0.30579 0.0068,-0.62846 -0.124255,-0.91064 -0.03704,-0.10759 -0.117761,-0.23177 -0.04722,-0.33936 0.03025,-0.0554 0.08835,-0.0865 0.148828,-0.0919 z m -5.475732,0.42743 c 0.075778,0.0135 0.146211,0.0677 0.156284,0.14828 0.02361,0.11762 -0.063786,0.21504 -0.087254,0.32913 -0.013572,0.0908 0.060316,0.15487 0.114037,0.21537 0.897156,0.89688 1.790872,1.79386 2.688027,2.68748 0.06051,0.0573 0.124139,0.12792 0.211508,0.148 0.107443,-0.01 0.198293,-0.0806 0.302627,-0.1041 0.12766,-0.0136 0.244896,0.12432 0.204605,0.2452 -0.01668,0.0908 -0.08722,0.1579605 -0.147724,0.2217205 -0.436844,0.43684 -0.873487,0.8737 -1.310189,1.30715 -0.07719,0.0773 -0.17804,0.15774 -0.292411,0.13088 -0.06376,-0.027 -0.117488,-0.0773 -0.141097,-0.14109 -0.03351,-0.14788 0.124294,-0.26879 0.08725,-0.41667 -0.03351,-0.057 -0.08057,-0.10079 -0.124254,-0.14772 -0.409841,-0.40659 -0.816327,-0.8198 -1.229562,-1.2262505 A 27.069887,27.069887 0 0 1 9.863391,10.060463 C 9.7625918,9.9630625 9.6616801,9.8654825 9.5676668,9.7614325 c 0.1477351,-0.14449 0.2925345,-0.2922 0.4404112,-0.43683 -0.3630468,-0.35597 -0.7227427,-0.71901 -1.0821138,-1.07852 -0.077331,-0.0738 -0.1444923,-0.1542 -0.235254,-0.20792 -0.1645586,-0.0539 -0.3222583,0.17792 -0.4801725,0.0503 -0.1278015,-0.0906 -0.087625,-0.2724 0.016567,-0.36641 0.4400952,-0.44689 0.8870714,-0.88355 1.327308,-1.32704 0.067152,-0.0705 0.1408851,-0.14441 0.2382913,-0.16788 0.024387,-0.005 0.050397,-0.005 0.075657,-5.6e-4 z m -1.9516151,1.88341 c 0.087289,-0.0103 0.181,0.0339 0.216202,0.11956 0.047077,0.1377 -0.076958,0.25544 -0.080351,0.38988 -0.00339,0.0705 0.05351,0.12081 0.097194,0.16788 0.9306608,0.93081 1.8581491,1.8612705 2.7888101,2.7885405 0.16781,0.18138 0.383007,-0.13113 0.564389,0.003 0.117623,0.0942 0.07733,0.27876 -0.02347,0.36613 -0.436844,0.44024 -0.877014,0.87368 -1.310465,1.31378 -0.07055,0.0673 -0.140885,0.14784 -0.2382909,0.1781 -0.1075852,0.0303 -0.2388084,-0.0369 -0.2520974,-0.15104 -0.020216,-0.1343 0.1009427,-0.23867 0.094157,-0.36973 -0.016965,-0.0571 -0.053866,-0.10403 -0.094157,-0.14772 a 946.79459,946.79459 0 0 1 -2.6374966,-2.6375 C 6.9573401,10.053633 6.886801,9.9560325 6.7758229,9.9157425 c -0.1208742,-0.007 -0.2217287,0.0842 -0.3393513,0.0975 -0.1007992,0.003 -0.1882342,-0.0875 -0.1916272,-0.1847325 -0.010037,-0.10433 0.063925,-0.18818 0.1344704,-0.25872 0.4367023,-0.43684 0.8735592,-0.87376 1.3071512,-1.31047 0.046936,-0.0437 0.090609,-0.0872 0.1477242,-0.12066 0.025235,-0.016 0.053463,-0.0256 0.08256,-0.029 z m -1.9137864,1.83648 c 0.3528679,0.3428305 0.6988725,0.6987505 1.0517404,1.0448305 0.060508,0.0672 0.1343754,0.12773 0.1678809,0.2151 0.040433,0.1647 -0.1475916,0.34592 -0.3122915,0.27198 -0.1647,-0.0739 -0.2956096,-0.20504 -0.453665,-0.29241 -0.2653578,-0.16456 -0.5745236,-0.26871 -0.8902104,-0.23167 -0.090762,-0.094 -0.1916713,-0.18153 -0.2722541,-0.28219 0.02672,-0.0539 0.070433,-0.0906 0.1107241,-0.13088 0.2015984,-0.19496 0.3964772,-0.39656 0.5980756,-0.5947605 z M 5.0589098,10.890483 a 639.74269,639.74269 0 0 0 2.1233615,2.12336 c 0.3897663,0.38623 0.7694465,0.77957 1.1624644,1.15915 0.1109781,0.12427 0.2586492,0.0201 0.3796648,-0.0237 0.1208742,-0.0537 0.2621172,0.0539 0.2587242,0.18141 0,0.0874 -0.050437,0.16135 -0.1074106,0.222 -0.4569187,0.45352 -0.9071928,0.90705 -1.3607185,1.36072 -0.063901,0.0637 -0.1445542,0.12758 -0.2385675,0.12094 -0.1041922,0.0102 -0.2049781,-0.0907 -0.1949406,-0.19163 0.00679,-0.10745 0.090567,-0.19477 0.090567,-0.30235 0.00679,-0.0908 -0.070532,-0.14796 -0.1242539,-0.20847 -1.0717514,-1.06497 -2.1333682,-2.13976 -3.2085125,-3.20161 0.033647,-0.0437 0.063885,-0.0842 0.1007838,-0.12453 0.3763359,-0.36955 0.7458946,-0.74231 1.1188376,-1.11525 z m 24.0964252,0.78611 a 109.04848,109.04848 0 0 1 1.239778,1.23978 c 0.130912,0.12441 0.03695,0.37282 -0.137784,0.39982 -0.161307,0.0235 -0.285495,-0.10406 -0.409762,-0.18804 -0.332651,-0.2286 -0.725821,-0.44358 -1.142306,-0.37303 -0.110979,-0.1008 -0.218493,-0.20503 -0.309255,-0.32251 0.258714,-0.24868 0.507402,-0.50409 0.759329,-0.75602 z m -25.5579275,0.68202 c 0.1244087,0.0471 0.201552,0.1882 0.3023512,0.27557 -0.053722,0.38976 0.1308698,0.75589 0.3492916,1.06168 0.063901,0.0976 0.1411193,0.1882 0.1814107,0.29904 0.043826,0.14787 -0.1006314,0.30233 -0.2485079,0.2855 -0.083976,0 -0.1409426,-0.0706 -0.1946645,-0.12094 -0.3662983,-0.36969 -0.7356959,-0.73244 -1.1019941,-1.10199 0.2418897,-0.2286 0.4669716,-0.47365 0.712113,-0.69886 z m 12.0045855,1.71029 c 0.154521,0.0503 0.295652,0.12762 0.440135,0.20156 0.541036,0.26211 1.078329,0.53429 1.622757,0.79965 0.04694,0.0236 0.09072,0.0603 0.131157,0.0972 0.456777,0.4637 0.917115,0.92084 1.377286,1.38115 a 2.3906234,2.3906234 0 0 0 0.900426,0.5978 c 0.238497,0.0908 0.507303,0.0907 0.7458,0.007 0.121016,-0.0403 0.252281,-0.0872 0.379941,-0.0469 a 0.37675998,0.37675998 0 0 1 0.231664,0.31588 c -0.01004,0.18478 -0.12783,0.33926 -0.252097,0.46692 a 108.19501,108.19501 0 0 1 -1.243092,1.24005 c -0.110836,0.1008 -0.238532,0.20463 -0.393194,0.22145 -0.221674,0.0335 -0.439914,-0.20121 -0.372762,-0.41638 0.0639,-0.21843 0.151211,-0.44031 0.114313,-0.66877 -0.05386,-0.38312 -0.272244,-0.72224 -0.514134,-1.01446 -0.910444,-0.91384 -1.824444,-1.82464 -2.738282,-2.74187 -0.14123,-0.14788 -0.295613,-0.28195 -0.429918,-0.43986 z m -3.495125,0.002 c 0.351083,-0.0151 0.704594,0.0142 1.04898,0.0848 1.169299,0.24868 2.20408,0.93408 3.030692,1.78401 0.809645,0.81983 1.454863,1.84815 1.673285,2.99369 0.120874,0.62827 0.09399,1.28653 -0.08725,1.90137 -0.178131,0.60818 -0.50088,1.16934 -0.907329,1.65312 -0.174737,-0.18477 -0.366199,-0.35606 -0.534292,-0.54423 0,-0.0908 0.05704,-0.16818 0.074,-0.25541 0.09062,-0.29561 -1.06e-4,-0.6281 -0.225314,-0.84327 -1.659583,-1.66297 -3.326032,-3.32609 -4.985896,-4.98921 -0.151128,-0.15452 -0.342378,-0.2789 -0.5608,-0.29572 -0.17813,-0.0235 -0.353086,0.0404 -0.521038,0.10078 -0.06729,0.037 -0.110666,-0.0468 -0.1543509,-0.0806 -0.1344461,-0.14434 -0.2823602,-0.27541 -0.4166649,-0.42329 0,-0.01 -0.00331,-0.0303 -0.00331,-0.0403 0.4468812,-0.38298 0.9708638,-0.68205 1.5352268,-0.86343 0.334277,-0.10758 0.682985,-0.16711 1.034068,-0.18224 z m 14.501814,0.15215 c 0.110837,0.0906 0.208099,0.19823 0.312291,0.29903 -0.04368,0.33591 0.07088,0.66836 0.245471,0.95068 0.09062,0.16131 0.221627,0.29897 0.302351,0.46692 0.04368,0.0807 0.01342,0.17124 -0.01684,0.25182 a 4.31938,4.31938 0 0 1 1.091778,1.06168 c 0.339296,0.48053 0.57782,1.05181 0.564389,1.64982 0.0034,0.5679 -0.241877,1.11207 -0.601389,1.54213 -0.09741,-0.1008 -0.211608,-0.19144 -0.295725,-0.30566 0.01696,-0.12441 0.07747,-0.24519 0.04722,-0.36945 -0.0335,-0.16131 -0.158104,-0.27559 -0.268941,-0.38657 -0.886835,-0.88358 -1.770479,-1.76703 -2.654063,-2.65075 -0.08737,-0.0874 -0.191473,-0.16806 -0.315882,-0.1781 -0.117481,-0.0136 -0.235221,0.02 -0.342665,0.0569 -0.104192,-0.0973 -0.208178,-0.20155 -0.308977,-0.30235 0.44674,-0.38298 1.027998,-0.62805 1.622756,-0.5978 0.228459,-0.007 0.450125,0.0469 0.671799,0.0972 -0.268751,-0.27879 -0.554459,-0.54086 -0.813173,-0.82643 0.25221,-0.25193 0.507538,-0.50388 0.759606,-0.75905 z m -17.5181465,1.32675 c 0.1713445,0.17488 0.3528104,0.34291 0.5207619,0.52104 0.033505,0.10758 -0.053587,0.20816 -0.070411,0.3156 -0.087369,0.28897 0.02679,0.60493 0.2385676,0.81317 1.632721,1.63626 3.269014,3.26916 4.905269,4.90527 0.157914,0.17149 0.349282,0.33269 0.591172,0.36973 0.215029,0.0336 0.42693,-0.0404 0.625135,-0.11432 0.181382,0.18139 0.36285,0.35954 0.544232,0.54092 -0.396552,0.34608 -0.856763,0.6183 -1.347187,0.80986 -0.739243,0.28543 -1.56591,0.33246 -2.342049,0.16126 -1.179337,-0.25886 -2.217397,-0.96772 -3.0472587,-1.83123 -0.7659607,-0.80286 -1.384319,-1.78753 -1.6025994,-2.88628 -0.1477352,-0.72892 -0.1007109,-1.50145 0.1612539,-2.2004 0.184775,-0.51403 0.4770313,-0.9846 0.8231137,-1.40462 z m 15.0488065,0.99458 c 0.09727,0.1008 0.201418,0.20155 0.302076,0.30235 -0.0369,0.12102 -0.09398,0.24884 -0.06019,0.37635 0.02008,0.11438 0.0971,0.20521 0.177821,0.28579 0.886976,0.88358 1.767222,1.77048 2.654339,2.65406 0.104051,0.1008 0.204729,0.22175 0.352605,0.26204 0.134446,0.037 0.272223,-0.0102 0.403135,-0.0505 0.10094,0.10094 0.205222,0.20181 0.302628,0.30925 -0.423413,0.34934 -0.951002,0.59477 -1.508718,0.59477 -0.540895,0.0235 -1.071565,-0.16817 -1.521698,-0.45036 -0.326007,-0.20824 -0.625107,-0.46034 -0.873642,-0.7527 0.117482,0.39316 0.09076,0.83351 -0.09416,1.20306 -0.181382,0.36276 -0.463556,0.65848 -0.742486,0.94405 -0.100799,-0.1008 -0.205062,-0.20501 -0.309254,-0.30567 0.08751,-0.14123 0.144705,-0.30926 0.09084,-0.47382 -0.06376,-0.16809 -0.201632,-0.289 -0.322506,-0.41666 a 151.47617,151.47617 0 0 0 -0.752703,-0.75574 c -0.147735,-0.13784 -0.305813,-0.29583 -0.517449,-0.30926 -0.124268,-0.0133 -0.235159,0.0505 -0.339352,0.11101 -0.10405,-0.1008 -0.204786,-0.20501 -0.308978,-0.30567 0.403055,-0.40659 0.863511,-0.82677 1.454876,-0.9007 0.48378,-0.0807 0.970812,0.12764 1.313501,0.46029 -0.215029,-0.43006 -0.349287,-0.914 -0.302351,-1.40103 0.04043,-0.51064 0.265621,-0.99776 0.601665,-1.38088 z m -17.9381244,2.37215 c 0.2318523,-0.0136 0.4437069,0.22845 0.3796646,0.45366 -0.050329,0.17135 -0.1746248,0.32232 -0.1814107,0.50723 0.013431,0.16117 0.1478258,0.2754 0.2554109,0.38298 l 5.1739336,5.17394 c 0.08072,0.0773 0.171278,0.15453 0.285508,0.16456 0.194812,0 0.346203,-0.14435 0.530978,-0.18803 0.221674,-0.0437 0.443546,0.15799 0.433508,0.37966 -0.0068,0.15127 -0.09075,0.28906 -0.19494,0.39651 l -2.60381,2.60381 c -0.11423,0.11084 -0.25542,0.20819 -0.4199787,0.20819 -0.2015984,0.007 -0.3897199,-0.18447 -0.3730379,-0.3896 0.020358,-0.20146 0.1880929,-0.36291 0.1916272,-0.57129 -0.00679,-0.12427 -0.1042208,-0.21844 -0.1814107,-0.30567 -0.7727467,-0.77614 -1.5489484,-1.54542 -2.3183021,-2.31802 -0.030254,-0.0235 -0.070629,-0.0908 -0.1143135,-0.0439 -0.2687509,0.25872 -0.5274376,0.53086 -0.7963297,0.78943 -0.181382,-0.18138 -0.3627087,-0.36277 -0.5442321,-0.54755 a 25.535562,25.535562 0 0 1 0.799643,-0.79936 c 0,-0.0136 0.00359,-0.0439 0.00359,-0.0574 -0.7292037,-0.71549 -1.4449085,-1.44112 -2.1705779,-2.1634 -0.1108367,-0.10419 -0.2150688,-0.23521 -0.3694485,-0.27225 -0.2116359,-0.0136 -0.3763999,0.151 -0.5746053,0.18804 -0.2553203,0.0437 -0.4871903,-0.24513 -0.3998215,-0.48376 0.043684,-0.16796 0.1778256,-0.28905 0.2954482,-0.40314 0.8398991,-0.84329 1.6832221,-1.67989 2.5198697,-2.52318 0.1007992,-0.0974 0.2319473,-0.17137 0.3730379,-0.18141 z m 14.6285524,1.08874 c 0.403198,0.37619 0.782897,0.77913 1.179308,1.1655 0.752672,0.75592 1.508535,1.51185 2.264459,2.26777 0.05372,0.0438 0.103962,0.1042 0.174508,0.11763 0.144624,0.0136 0.258786,-0.12765 0.40341,-0.10079 0.08737,0.0303 0.167838,0.11452 0.157941,0.21179 0,0.13105 -0.110903,0.22188 -0.191627,0.30925 -0.473601,0.4671 -0.940686,0.94056 -1.414286,1.40766 -0.104192,0.11423 -0.299339,0.0573 -0.363098,-0.0704 -0.09401,-0.15791 0.161365,-0.32616 0.02706,-0.47051 a 1160.2774,1160.2774 0 0 1 -2.91969,-2.91969 c -0.07054,-0.0638 -0.130981,-0.14449 -0.215098,-0.18831 -0.144484,-0.0403 -0.258613,0.0809 -0.392919,0.0977 -0.104191,-0.01 -0.205174,-0.10088 -0.198529,-0.20847 -0.01004,-0.11762 0.07752,-0.20817 0.151313,-0.2855 0.447022,-0.44363 0.893902,-0.89017 1.337248,-1.33366 z m -1.800854,1.8072 c 0.359513,0.36291 0.722326,0.72267 1.081839,1.08543 0.120874,0.11762 -0.0066,0.29557 -0.130881,0.34929 -0.08737,0.01 -0.16814,-0.0435 -0.245471,-0.077 -0.308901,-0.15141 -0.665228,-0.22543 -1.004524,-0.13806 -0.215029,0.0437 -0.40328,0.16473 -0.591448,0.27557 -0.100799,-0.10405 -0.201473,-0.20818 -0.305665,-0.30898 0.399663,-0.39316 0.78956,-0.79969 1.19615,-1.18621 z m -1.431405,1.4245 c 0.75253,0.74264 1.495141,1.49878 2.251205,2.24127 0.577935,0.57454 1.148981,1.1557 1.730167,1.72685 -0.450133,0.46357 -0.913615,0.9138 -1.364031,1.37397 -0.06376,0.0707 -0.154592,0.11111 -0.238567,0.14801 -0.08398,-0.0301 -0.188238,-0.0603 -0.215099,-0.15436 -0.05033,-0.15805 0.114233,-0.2823 0.09416,-0.43682 -0.06729,-0.13105 -0.184709,-0.22536 -0.285508,-0.32941 l -2.44946,-2.44946 c -0.144342,-0.1343 -0.265201,-0.29543 -0.436545,-0.39623 -0.171345,-0.0338 -0.325831,0.18472 -0.49039,0.0671 -0.14109,-0.0906 -0.10095,-0.2924 0.0064,-0.3932 0.463848,-0.47035 0.934156,-0.93062 1.397718,-1.39772 z m 2.079735,0.2891 c 0.06715,0.0168 0.11749,0.0603 0.164567,0.10741 0.352727,0.35626 0.70917,0.70584 1.058643,1.06196 0.114089,0.11762 0.261901,0.21834 0.308979,0.38629 -0.04368,0.0739 -0.09069,0.17469 -0.19135,0.18472 -0.164842,0.0168 -0.285908,-0.11429 -0.433785,-0.16815 a 0.72156959,0.72156959 0 0 0 -0.64833,0.004 c -0.107443,-0.10759 -0.211609,-0.21514 -0.319194,-0.3192 0.07394,-0.15791 0.107707,-0.33941 0.05384,-0.5075 -0.04029,-0.17135 -0.15467,-0.31238 -0.211785,-0.47355 -0.05372,-0.13784 0.07393,-0.29903 0.218411,-0.27557 z m 2.099892,1.06251 c 0.06215,-0.005 0.125893,0.0161 0.167881,0.0665 0.362905,0.36629 0.732683,0.72885 1.092054,1.0984 -0.413235,0.4032 -0.809739,0.82646 -1.233152,1.21962 -0.09727,-0.10419 -0.201552,-0.20478 -0.302351,-0.30898 0.359513,-0.44334 0.410046,-1.08533 0.168157,-1.59597 -0.04383,-0.12101 -0.137899,-0.26873 -0.05053,-0.3896 0.03527,-0.0537 0.09579,-0.085 0.157941,-0.09 z m -21.36477265,1.29279 c -0.1478766,-0.003 -0.2757333,0.0808 -0.410038,0.13447 -0.00339,1.99224 0,3.98783 0,5.98021 1.98912315,0 3.97802295,1.4e-4 5.97053905,0.004 0.060225,-0.12766 0.1376248,-0.25548 0.1444107,-0.39982 -0.016823,-0.14788 -0.1379273,-0.25214 -0.2319406,-0.35647 -1.6865841,-1.68319 -3.3697775,-3.36966 -5.05989595,-5.053 -0.1241258,-0.11748 -0.2350862,-0.27533 -0.4130752,-0.30897 z m 15.45387465,0.037 c 0.521211,0.0119 1.030517,0.21204 1.462607,0.4973 0.386373,0.25871 0.745972,0.55758 1.021367,0.93052 0.3294,0.44009 0.530758,0.97786 0.534292,1.53219 0.0099,0.63165 -0.238509,1.2699 -0.688642,1.71664 a 12.467292,12.467292 0 0 1 -0.305942,-0.30567 c 0.06037,-0.11409 0.131076,-0.235 0.111001,-0.36945 -0.03351,-0.2016 -0.171415,-0.36649 -0.309254,-0.50419 l -2.267774,-2.26777 c -0.154521,-0.15113 -0.329302,-0.31577 -0.557761,-0.33245 -0.124267,-0.0134 -0.235301,0.0502 -0.339351,0.11072 -0.09755,-0.10758 -0.231904,-0.1882 -0.292411,-0.32251 0.36955,-0.37973 0.873685,-0.64519 1.407935,-0.6787 0.07475,-0.006 0.149474,-0.008 0.223933,-0.007 z" />
</svg>
