<?xml version="1.0" encoding="UTF-8" standalone="no"?>
<svg width="32" height="32" fill="none" viewBox="0 0 40 40" version="1.1" id="svg2" sodipodi:docname="0f0dc4f3.svg" inkscape:version="1.4-beta2 (9aaf4f34, 2024-07-30)" xmlns:inkscape="http://www.inkscape.org/namespaces/inkscape" xmlns:sodipodi="http://sodipodi.sourceforge.net/DTD/sodipodi-0.dtd" xmlns="http://www.w3.org/2000/svg" xmlns:svg="http://www.w3.org/2000/svg">
  <defs id="defs2" />
  <sodipodi:namedview id="namedview2" pagecolor="#ffffff" bordercolor="#000000" borderopacity="0.25" inkscape:showpageshadow="2" inkscape:pageopacity="0.0" inkscape:pagecheckerboard="0" inkscape:deskcolor="#d1d1d1" inkscape:zoom="4.8193436" inkscape:cx="3.7349485" inkscape:cy="15.043542" inkscape:window-width="1440" inkscape:window-height="790" inkscape:window-x="0" inkscape:window-y="0" inkscape:window-maximized="1" inkscape:current-layer="svg2" />
  <path d="m 19.056,23.190571 h -1.604714 l 0.799571,-1.865857 z" fill="white" id="path1" style="fill:#000000;stroke-width:1.42857" />
  <path fill-rule="evenodd" clip-rule="evenodd" d="m 11.266143,0 h 17.484 C 36.997143,0 40,3.0028429 40,11.249829 V 28.733857 C 40,36.980857 36.980857,40 28.750143,40 h -17.484 C 3.0191714,40 0,36.980857 0,28.733857 V 11.249829 C 0,3.0028429 3.0191714,0 11.266143,0 Z m 5.320143,25.214286 0.484143,-1.077143 h 2.382714 L 19.921,25.214286 h 1.109714 L 18.735,19.991857 h -0.930143 l -2.295714,5.222429 z M 35.55,19.991857 h -1.060857 v 5.222429 H 35.55 Z m -2.312,4.275857 h -2.910429 v -1.289285 h 1.931286 v -0.962858 h -1.931286 v -1.060857 h 2.796143 v -0.962857 h -3.840571 v 5.222429 H 33.238 Z M 28.429,19.991857 H 27.319286 L 26.166,23.593143 24.974714,19.991857 h -0.870428 l -1.175,3.601286 -1.158715,-3.601286 h -1.142428 l 1.833286,5.238714 h 0.870428 l 1.191286,-3.438142 1.191428,3.438142 h 0.897572 z m -13.463857,0 h -1.060757 v 2.997429 c 0,0.848571 -0.418872,1.316428 -1.191357,1.316428 -0.772472,0 -1.191343,-0.467857 -1.191343,-1.349143 V 19.997286 H 10.4609 v 2.986571 c 0,1.474286 0.821429,2.328286 2.235814,2.328286 1.447029,0 2.268429,-0.865 2.268429,-2.361 z m -5.9784859,0 H 7.9258714 v 2.105286 H 5.5323 V 19.991857 H 4.4715 v 5.238714 h 1.0608 v -2.138 h 2.3935714 v 2.138 H 8.9866571 Z M 13.354943,6.6857286 c 0,3.6665284 2.9702,6.6530714 6.653057,6.6530714 3.666571,0 6.653143,-2.991986 6.653143,-6.6530714 h -0.930286 c 0,3.1497285 -2.573143,5.7065144 -5.722857,5.7065144 -3.149714,0 -5.722814,-2.5567859 -5.722814,-5.7065144 z" fill="white" id="path2" style="fill:#000000;stroke-width:1.42857" />
</svg>
