<?xml version="1.0" encoding="utf-8"?>
<!-- Generator: Adobe Illustrator 23.0.6, SVG Export Plug-In . SVG Version: 6.00 Build 0)  -->
<svg version="1.1" id="Camada_1" xmlns="http://www.w3.org/2000/svg" xmlns:xlink="http://www.w3.org/1999/xlink" x="0px" y="0px"
	 viewBox="0 0 300 120" style="enable-background:new 0 0 300 120;" xml:space="preserve">
<title>huff-post</title>
<path d="M38.8,76.8h11l5.9-33.6h-11l-2.2,12H33l2.2-12h-11l-5.9,33.6h11l2.2-12.6H41L38.8,76.8z"/>
<path d="M61.8,43.2l-3.3,18.7c-0.3,1.4-0.4,2.8-0.4,4.2c0,9.9,8.7,11.4,13.9,11.4c10.9,0,15.6-3.6,17.3-13.4l3.7-21H82l-3.1,17.6
	c-1,5.5-1.7,8.4-5.8,8.4c-2.7,0-4-1.4-4-4.3c0.1-1.4,0.2-2.8,0.5-4.2l3.2-17.4L61.8,43.2z"/>
<path d="M150.9,76.8h11l1.5-8.7h5.2c9.5,0,14.8-5.2,14.8-14.6c0-6.6-4.6-10.4-12.6-10.4h-14L150.9,76.8z M167.9,59.9h-3.2l1.5-7.9h3
	c2.4,0,3.7,1.2,3.7,3.4C172.9,58.2,171,59.9,167.9,59.9z"/>
<path d="M204.6,42.5c-11.9,0-19,7.7-19,20.7c0,9,5.7,14.4,15.2,14.4c11.9,0,19-7.7,19-20.7C219.8,47.8,214.2,42.5,204.6,42.5z
	 M201.4,68.8c-2.8,0-4.5-2-4.5-5.5c0-1.2,0.1-2.5,0.4-3.7c0.8-4.4,2.2-8.5,6.7-8.5c2.8,0,4.5,2,4.5,5.5c0,1.2-0.1,2.5-0.4,3.7
	C207.3,64.7,205.9,68.8,201.4,68.8L201.4,68.8z"/>
<path d="M257.9,76.8h11l4.3-24.6h8.2l1.6-9h-28l-1.6,9h8.7L257.9,76.8z"/>
<path d="M239.8,55.6c-3.5-1.1-4.9-1.5-4.9-3.2c0-1.1,0.7-2.4,2.8-2.4c1.4,0,2.8,0.9,3.3,2.2l9.7-2.6c-1.1-4.7-5.2-7.2-12.2-7.2
	c-13.2,0-14.3,8.9-14.3,11.6c0,5.5,2.9,8.9,9.2,10.6c1.7,0.5,3.6,1,3.6,2.8c0,1.5-1.1,2.4-3,2.4c-1.8,0-3.5-1.1-4.2-2.7l-9.5,2.6
	c1,5,5.7,7.8,13.1,7.8c5.6,0,15-1.5,15-11.7C248.5,60.7,245.6,57.4,239.8,55.6z"/>
<path d="M12.2,76.8l5.9-33.6H0v33.6H12.2z"/>
<path d="M287.8,43.2l-5.9,33.6H300V43.2H287.8z"/>
<polygon points="99.2,43.2 93.3,76.8 104.3,76.8 106,66.9 115.2,66.9 116.7,58.5 107.5,58.5 108.6,52.2 121.4,52.2 123,43.2 "/>
<polygon points="127.9,43.2 122.1,76.8 133,76.8 134.7,66.9 144,66.9 145.5,58.5 136.3,58.5 137.3,52.2 150.2,52.2 151.8,43.2 "/>
</svg>
