<svg xmlns="http://www.w3.org/2000/svg" viewBox="0 0 300 120"><defs><style>.a{fill:#fff;}</style></defs><title>huff-post</title><path class="a" d="M38.8,76.8h11l5.9-33.6h-11l-2.2,12H33l2.2-12h-11L18.3,76.8h11l2.2-12.6H41Z"/><path class="a" d="M61.8,43.2,58.5,61.9a21.23,21.23,0,0,0-.4,4.2c0,9.9,8.7,11.4,13.9,11.4,10.9,0,15.6-3.6,17.3-13.4l3.7-21H82L78.9,60.7c-1,5.5-1.7,8.4-5.8,8.4-2.7,0-4-1.4-4-4.3a26,26,0,0,1,.5-4.2l3.2-17.4Z"/><path class="a" d="M150.9,76.8h11l1.5-8.7h5.2c9.5,0,14.8-5.2,14.8-14.6,0-6.6-4.6-10.4-12.6-10.4h-14Zm17-16.9h-3.2l1.5-7.9h3c2.4,0,3.7,1.2,3.7,3.4C172.9,58.2,171,59.9,167.9,59.9Z"/><path class="a" d="M204.6,42.5c-11.9,0-19,7.7-19,20.7,0,9,5.7,14.4,15.2,14.4,11.9,0,19-7.7,19-20.7C219.8,47.8,214.2,42.5,204.6,42.5Zm-3.2,26.3c-2.8,0-4.5-2-4.5-5.5a15.53,15.53,0,0,1,.4-3.7c.8-4.4,2.2-8.5,6.7-8.5,2.8,0,4.5,2,4.5,5.5a15.53,15.53,0,0,1-.4,3.7C207.3,64.7,205.9,68.8,201.4,68.8Z"/><path class="a" d="M257.9,76.8h11l4.3-24.6h8.2l1.6-9H255l-1.6,9h8.7Z"/><path class="a" d="M239.8,55.6c-3.5-1.1-4.9-1.5-4.9-3.2,0-1.1.7-2.4,2.8-2.4a3.51,3.51,0,0,1,3.3,2.2l9.7-2.6c-1.1-4.7-5.2-7.2-12.2-7.2-13.2,0-14.3,8.9-14.3,11.6,0,5.5,2.9,8.9,9.2,10.6,1.7.5,3.6,1,3.6,2.8,0,1.5-1.1,2.4-3,2.4a4.59,4.59,0,0,1-4.2-2.7l-9.5,2.6c1,5,5.7,7.8,13.1,7.8,5.6,0,15-1.5,15-11.7C248.5,60.7,245.6,57.4,239.8,55.6Z"/><path class="a" d="M12.2,76.8l5.9-33.6H0V76.8Z"/><path class="a" d="M287.8,43.2l-5.9,33.6H300V43.2Z"/><polygon class="a" points="99.2 43.2 93.3 76.8 104.3 76.8 106 66.9 115.2 66.9 116.7 58.5 107.5 58.5 108.6 52.2 121.4 52.2 123 43.2 99.2 43.2"/><polygon class="a" points="127.9 43.2 122.1 76.8 133 76.8 134.7 66.9 144 66.9 145.5 58.5 136.3 58.5 137.3 52.2 150.2 52.2 151.8 43.2 127.9 43.2"/></svg>