<?xml version="1.0" encoding="UTF-8" standalone="no"?>
<!DOCTYPE svg PUBLIC "-//W3C//DTD SVG 1.1//EN" "http://www.w3.org/Graphics/SVG/1.1/DTD/svg11.dtd">
<!-- Created with Vectornator (http://vectornator.io/) -->
<svg height="100%" stroke-miterlimit="10" style="fill-rule:nonzero;clip-rule:evenodd;stroke-linecap:round;stroke-linejoin:round;" version="1.1" viewBox="0 0 78 80" width="100%" xml:space="preserve" xmlns="http://www.w3.org/2000/svg" xmlns:xlink="http://www.w3.org/1999/xlink">
<defs/>
<g id="Sem-Título">
<path d="M34.3397 8C15.4393 8 0.0969011 23.3424 0.0969011 42.2428L0.0969011 76.6883C0.0962539 77.2181 0.421542 77.6928 0.907382 77.904C1.39322 78.1153 1.93873 77.9619 2.32572 77.6001L11.7476 68.5835L47.6114 68.5835C64.3343 68.5835 77.9031 55.0147 77.9031 38.2917C77.9031 21.5688 64.3343 8 47.6114 8L34.3397 8ZM26.3362 25.7293C27.5413 25.358 28.7695 25.5411 29.8821 26.1345C32.1839 27.3664 33.1402 30.2842 31.9083 32.6184C31.3247 33.7206 29.4647 31.8565 28.3624 32.2131C27.1629 32.667 26.6564 35.1917 25.4244 34.5433C23.1252 33.2993 22.2776 30.3704 23.4995 28.0594C24.0853 26.9428 25.1312 26.1005 26.3362 25.7293ZM52.8795 25.7293C54.0846 26.1005 55.0291 26.9428 55.6149 28.0594C56.8468 30.3612 55.9917 33.3113 53.69 34.5433C52.458 35.1917 51.9515 32.667 50.752 32.2131C49.6497 31.8565 47.8586 33.7206 47.3074 32.6184C46.0636 30.2997 46.9141 27.3792 49.2323 26.1345C50.3449 25.5411 51.6744 25.358 52.8795 25.7293ZM28.4637 41.0271C30.3329 41.059 34.7044 44.7756 39.8105 44.7756C46.6509 44.7756 52.1703 38.235 52.1703 42.5468C52.1703 46.8261 49.1796 55.2105 39.8105 55.2105C30.4737 55.2105 27.4506 46.8261 27.4506 42.5468C27.4506 41.4688 27.8407 41.0165 28.4637 41.0271Z" fill="#000000" fill-rule="nonzero" opacity="1" stroke="none"/>
</g>
</svg>
