<?xml version="1.0" encoding="UTF-8"?><svg id="a" xmlns="http://www.w3.org/2000/svg" viewBox="0 0 88.86 80"><defs><style>.b{stroke-width:0px;}</style></defs><path class="b" d="m54.32,0h-17.1C16.67,0,0,16.66,0,37.21v41.24c-.05.48.15.96.54,1.26.61.48,1.5.36,1.98-.25l10.66-10.36h41.13c19.08,0,34.55-15.47,34.55-34.55S73.4,0,54.32,0Zm-26.75,31.38c-2.66-1.38-3.7-4.66-2.32-7.32,0,0,0-.01.01-.02,1.42-2.63,4.7-3.62,7.34-2.21,2.62,1.41,3.62,4.73,2.21,7.34-.6,1.31-2.72-.8-4.02-.3h.1c-1.41.5-2.01,3.32-3.32,2.51Zm25.04,20.6c-1.22-2.12-3.16-3.73-5.5-4.47-.42-.21-.95.53-1.47,1.37-.42.74-.95,1.58-1.47,1.58-.42,0-.95-.84-1.47-1.58-.42-.84-.95-1.58-1.37-1.47-2.5.77-4.55,2.51-5.78,4.81-4.19-3.19-5.77-8.46-5.77-11.69,0-4.93,6.34,2.61,14.08,2.61s14.08-7.54,14.08-2.61c0,3.11-1.46,8.21-5.33,11.45Zm7.14-20.6c-1.41.8-2.01-2.01-3.32-2.51-1.31-.5-3.42,1.61-4.02.3-1.41-2.64-.42-5.92,2.21-7.34,2.64-1.41,5.92-.42,7.34,2.21,1.41,2.64.42,5.92-2.21,7.34Z"/></svg>