<?xml version="1.0" encoding="utf-8"?>
<!-- Generator: Adobe Illustrator 23.0.6, SVG Export Plug-In . SVG Version: 6.00 Build 0)  -->
<svg version="1.1" id="Layer_1" xmlns="http://www.w3.org/2000/svg" xmlns:xlink="http://www.w3.org/1999/xlink" x="0px" y="0px"
	 viewBox="0 0 300 120" style="enable-background:new 0 0 300 120;" xml:space="preserve">
<title>hulu</title>
<g id="_Grupo_">
	<path id="_Caminho_composto_" d="M181.5,106.1h22.2V13.9h-22.2V106.1z M142.3,79.9c0,3.3-2.7,6-5.9,6c0,0,0,0,0,0h-12.9
		c-3.3,0-5.9-2.7-6-5.9c0,0,0,0,0,0V42.7H95.2v39.1c0,16,10.3,24.4,25.3,24.4h21.8c13.9,0,22.2-10,22.2-24.4V42.7h-22.2L142.3,79.9z
		 M267.7,42.7v37.2c0,3.3-2.6,6-5.9,6c0,0,0,0,0,0h-12.9c-3.3,0-6-2.7-6-5.9c0,0,0,0,0,0V42.7h-22.2v39.1c0,16,10.2,24.4,25.3,24.4
		h21.8c13.9,0,22.2-10,22.2-24.4V42.7L267.7,42.7z M54,42.7H39.7c-5,0-7.5,1.4-7.5,1.4V13.9H10v92.2h22.2V68.9c0-3.3,2.7-6,6-6l0,0
		h12.9c3.3,0,5.9,2.7,6,5.9c0,0,0,0,0,0v37.2h22.2V66C79.3,49.2,68.1,42.7,54,42.7L54,42.7z"/>
</g>
</svg>
