<?xml version="1.0" encoding="utf-8"?>
<!-- Generator: Adobe Illustrator 23.0.6, SVG Export Plug-In . SVG Version: 6.00 Build 0)  -->
<svg version="1.1" id="Layer_1" xmlns="http://www.w3.org/2000/svg" xmlns:xlink="http://www.w3.org/1999/xlink" x="0px" y="0px"
	 viewBox="0 0 300 120" style="enable-background:new 0 0 300 120;" xml:space="preserve">
<title>hype-machine</title>
<path d="M100.9,57.6v14.6h-5.1V46.4c1.6,0,3.2,0,4.8,0c0.2,0,0.5,0.4,0.6,0.6c2,4.2,4,8.3,5.9,12.5l0.5,0.9c0.2-0.4,0.3-0.6,0.5-0.9
	c2-4.2,4.1-8.3,6.1-12.5c0.1-0.5,0.6-0.8,1.1-0.7c1.3,0.1,2.7,0,4,0v25.8h-5.1V57.6l-0.2-0.1c-0.1,0.3-0.3,0.5-0.4,0.8
	c-1.3,2.7-2.6,5.4-3.9,8.1c-0.2,0.5-0.6,0.6-1.1,0.7c-1.9,0.3-3-0.4-3.7-2.2c-0.9-2.3-2.2-4.4-3.3-6.6c-0.1-0.3-0.3-0.5-0.4-0.8
	L100.9,57.6z"/>
<path d="M217,46.5h5.1v25.8c-1.4,0-2.8,0-4.2,0c-0.2,0-0.5-0.4-0.6-0.6l-9.1-14c-0.2-0.3-0.4-0.7-0.8-1.2v15.7h-5V46.4
	c1.4,0,2.8,0,4.2,0c0.2,0,0.5,0.4,0.6,0.6c3.1,4.8,6.2,9.5,9.3,14.3c0.2,0.3,0.4,0.5,0.7,1L217,46.5z"/>
<path d="M260.3,76.3c0.6-0.6,1.2-1.2,1.8-1.9c0.5-0.7,0.9-1.5,1.3-2.2c-1.2-0.7-2.3-1.3-3.2-2c-2.8-1.8-4.8-4.7-5.6-8
	c-1.1-4.6,0.4-9.4,3.8-12.6c5.2-5.2,11.7-7.4,19-7.4c4.9-0.1,9.8,1.2,14,3.7c3.8,2.3,6.8,5.4,8.1,9.8c1.7,5.7-0.6,11.8-5.6,15.1
	c-5.1,3.5-11.2,5.1-17.3,4.6c-1.6-0.1-3.2-0.4-4.8-0.5c-0.4,0-0.7,0.1-1.1,0.2c-2.3,1.2-4.8,2.1-7.4,2.6
	C261.5,78,261.1,77.8,260.3,76.3z M264.8,74.9c1.8-0.7,3.5-1.3,5.1-2c0.7-0.3,1.5-0.4,2.2-0.3c2.5,0.3,5,0.5,7.5,0.5
	c4.9,0,9.6-1.6,13.4-4.6c4.4-3.5,6.4-10.5,2.4-15.8c-2-2.6-4.6-4.7-7.6-6c-3.9-1.7-8.2-2.4-12.4-2.1c-5.8,0.2-11,2-15.2,6.2
	c-4.5,4.5-5,12.4,0.9,16.9c1.5,1.1,3.1,2,4.9,3.1C265.7,72,265.3,73.3,264.8,74.9z"/>
<path d="M186.5,72.2h-5V61.4h-8.9v10.9h-5.1V46.5h5.1v10.6h8.9V46.5h5.1L186.5,72.2z"/>
<path d="M18.7,72.2h-4.8V61.4H5.1v10.8H0V46.5h5.1v10.6h8.8V46.5h4.8V72.2z"/>
<path d="M227.1,46.5h17.2V51h-12.1v6.1h10.2v4.5h-10.2v6.2h12.1v4.4h-17.2V46.5z"/>
<path d="M81.8,57.1v4.5H71.5v6.1h12.1v4.4H66.8V46.5h16.9V51H71.5v6.1L81.8,57.1z"/>
<path d="M131.4,46.4c1,0,1.9,0,2.8,0c0.6-0.1,1.2,0.3,1.3,0.9c0,0,0,0,0,0c2,5.5,4.2,11,6.2,16.6c1.1,2.8,2.1,5.5,3.2,8.4h-3.7
	c-1.8,0-1.7,0-2.3-1.6c-0.3-1-0.4-2.2-1.1-2.7s-1.9-0.2-2.9-0.2c-1.8,0-3.7,0-5.5,0c-0.4-0.1-0.9,0.2-0.9,0.7c0,0,0,0,0,0
	c-0.3,1.1-0.7,2.2-1.1,3.3c-0.1,0.2-0.3,0.6-0.5,0.6c-1.6,0-3.3,0-5.1,0C125.1,63.6,128.2,55,131.4,46.4z M130,63.4h6.8l-3.3-9.2
	h-0.2L130,63.4z"/>
<path d="M44.3,72.2V46.5c0.2,0,0.4-0.1,0.5-0.1c3.3,0,6.6-0.1,9.9,0c4.4-0.1,8.1,3.4,8.3,7.9c0.1,4.4-3.3,8.1-7.7,8.3
	c-1.9,0.1-3.8,0-5.9,0v9.7L44.3,72.2z M49.5,57.9c2,0,4,0.1,5.9,0c1.8-0.2,2.5-1.4,2.5-3.4s-0.8-3.2-2.5-3.4c-2-0.2-3.9,0-5.9,0
	L49.5,57.9z"/>
<path d="M165.2,54.4c-1.6,0-3.1,0-4.6,0c-0.2,0-0.6-0.3-0.6-0.6c-0.7-2.3-3.1-3.6-5.4-3c-1.4,0.2-2.5,1.3-2.8,2.7
	c-0.3,1-0.4,2-0.4,3c0,2.8,0,5.5,0.3,8.2c0.2,2.3,1.4,3.2,3.7,3.4c1.9,0.2,3.8-0.9,4.4-2.8c0.2-0.7,0.5-0.9,1.1-0.8
	c1.3,0.1,2.7,0,4,0c0.1,0,0.1,0.1,0.1,0.1c-0.4,4.7-4.5,8.3-9.2,8.1c-1.6,0-3.2-0.3-4.7-1c-2.1-0.8-3.6-2.6-4.1-4.8
	c-1.2-4.9-1.2-10.1,0-15c0.5-2,2-3.7,3.9-4.5c2.7-1.3,5.8-1.5,8.6-0.4C162.7,48,164.6,50.5,165.2,54.4z"/>
<path d="M34.3,72.3h-5.1v-0.9c0-3,0-5.9,0-8.9c0-0.5-0.1-1-0.4-1.4c-2.3-4.6-4.7-9.1-7-13.7c-0.1-0.3-0.3-0.5-0.5-0.9
	c1.8,0,3.6,0,5.3,0c0.2,0,0.5,0.3,0.6,0.6c1.4,3,2.8,5.9,4.1,8.8c0.1,0.3,0.3,0.5,0.5,1c0.2-0.3,0.3-0.5,0.4-0.8
	c1.3-2.9,2.6-5.9,3.9-8.8c0.1-0.5,0.7-0.9,1.2-0.8c1.4,0,2.8,0,4.4,0c-0.2,0.3-0.3,0.6-0.4,0.9c-2.2,4.5-4.5,9-6.7,13.5
	c-0.2,0.5-0.4,1.1-0.4,1.7c0,2.9,0,5.8,0,8.7L34.3,72.3z"/>
<path d="M191.6,46.5h5.2v25.8h-5.2V46.5z"/>
<path d="M277,56c0.4-0.6,0.8-1,1.1-1.5c0.9-1.1,2.5-1.6,3.9-1.1c1.4,0.4,2.5,1.5,2.8,3c0.6,3-0.6,5.3-2.9,7.1
	c-1.5,1.1-3.1,2.1-4.7,3.1c-0.2,0.1-0.5,0.1-0.8,0c-2.3-1.4-4.3-3.2-6-5.3c-1.2-1.5-1.6-3.6-1-5.4c0.5-1.7,1.9-2.7,4-2.8
	c1.5-0.1,2.9,0.9,3.3,2.3C276.8,55.6,276.9,55.8,277,56z"/>
</svg>
