<?xml version="1.0" encoding="UTF-8"?><svg id="a" xmlns="http://www.w3.org/2000/svg" viewBox="0 0 547.48 80"><defs><style>.c{stroke-width:0px;}</style></defs><g id="b"><path class="c" d="m184.1,37.61v26.64h-9.31V17.17h8.76c.36,0,.91.73,1.09,1.09,3.65,7.66,7.3,15.14,10.77,22.81l.91,1.64c.37-.73.55-1.09.91-1.64,3.65-7.66,7.48-15.14,11.13-22.81.18-.91,1.09-1.46,2.01-1.28,2.37.18,4.93,0,7.3,0v47.07h-9.31v-26.46l-.36-.18c-.18.55-.55.91-.73,1.46-2.37,4.93-4.74,9.85-7.12,14.78-.36.91-1.09,1.09-2.01,1.28-3.47.55-5.47-.73-6.75-4.01-1.64-4.2-4.01-8.03-6.02-12.04-.18-.55-.55-.91-.73-1.46l-.55.18Z"/><path class="c" d="m395.94,17.36h9.3v47.07h-7.66c-.37,0-.91-.73-1.09-1.09l-16.6-25.54c-.36-.55-.73-1.28-1.46-2.19v28.65h-9.12V17.17h7.66c.37,0,.91.73,1.09,1.09,5.66,8.76,11.31,17.33,16.97,26.09.36.55.73.91,1.28,1.82l-.37-28.83Z"/><path class="c" d="m474.95,71.73c1.09-1.09,2.19-2.19,3.28-3.47.91-1.28,1.64-2.74,2.37-4.01-2.19-1.28-4.2-2.37-5.84-3.65-5.11-3.28-8.76-8.58-10.22-14.6-2.01-8.39.73-17.15,6.93-22.99,9.49-9.49,21.35-13.5,34.67-13.5,8.94-.18,17.88,2.19,25.55,6.75,6.93,4.2,12.41,9.85,14.78,17.88,3.1,10.4-1.09,21.53-10.22,27.55-9.3,6.39-20.44,9.31-31.57,8.39-2.92-.18-5.84-.73-8.76-.91-.73,0-1.28.18-2.01.36-4.2,2.19-8.76,3.83-13.5,4.74-3.28.55-4.01.18-5.47-2.55Zm8.21-2.55c3.28-1.28,6.39-2.37,9.3-3.65,1.28-.55,2.74-.73,4.01-.55,4.56.55,9.12.91,13.68.91,8.94,0,17.52-2.92,24.45-8.39,8.03-6.39,11.68-19.16,4.38-28.83-3.65-4.74-8.39-8.58-13.87-10.95-7.12-3.1-14.96-4.38-22.62-3.83-10.58.37-20.07,3.65-27.73,11.31-8.21,8.21-9.12,22.63,1.64,30.84,2.74,2.01,5.66,3.65,8.94,5.66-.55,2.19-1.28,4.56-2.19,7.48Z"/><path class="c" d="m340.29,64.25h-9.12v-19.71h-16.24v19.89h-9.31V17.36h9.31v19.34h16.24v-19.34h9.3l-.18,46.89Z"/><path class="c" d="m34.12,64.25h-8.76v-19.71H9.31v19.71H0V17.36h9.31v19.34h16.06v-19.34h8.76v46.89Z"/><path class="c" d="m414.37,17.36h31.38v8.21h-22.08v11.13h18.61v8.21h-18.61v11.31h22.08v8.03h-31.38V17.36Z"/><path class="c" d="m149.25,36.7v8.21h-18.79v11.13h22.08v8.03h-30.65V17.36h30.84v8.21h-22.26v11.13h18.79Z"/><path class="c" d="m239.75,17.17h5.11c1.09-.18,2.19.55,2.37,1.64h0c3.65,10.04,7.66,20.07,11.31,30.29,2.01,5.11,3.83,10.04,5.84,15.33h-6.75c-3.28,0-3.1,0-4.2-2.92-.55-1.82-.73-4.01-2.01-4.93s-3.47-.37-5.29-.37h-10.03c-.73-.18-1.64.37-1.64,1.28h0c-.55,2.01-1.28,4.01-2.01,6.02-.18.36-.55,1.09-.91,1.09h-9.31c6.02-16.06,11.68-31.75,17.52-47.44Zm-2.56,31.02h12.41l-6.02-16.79h-.37l-6.02,16.79Z"/><path class="c" d="m80.83,64.25V17.36c.36,0,.73-.18.91-.18,6.02,0,12.04-.18,18.06,0,8.03-.18,14.78,6.2,15.14,14.41.18,8.03-6.02,14.78-14.05,15.14-3.47.18-6.93,0-10.77,0v17.7l-9.31-.18Zm9.49-26.09c3.65,0,7.3.18,10.77,0,3.28-.36,4.56-2.55,4.56-6.2s-1.46-5.84-4.56-6.2c-3.65-.36-7.12,0-10.77,0v12.41Z"/><path class="c" d="m301.42,31.77h-8.39c-.37,0-1.09-.55-1.09-1.09-1.28-4.2-5.66-6.57-9.85-5.47-2.56.36-4.56,2.37-5.11,4.93-.55,1.82-.73,3.65-.73,5.47,0,5.11,0,10.04.55,14.96.37,4.2,2.56,5.84,6.75,6.2,3.47.36,6.93-1.64,8.03-5.11.37-1.28.91-1.64,2.01-1.46,2.37.18,4.93,0,7.3,0,.18,0,.18.18.18.18-.73,8.58-8.21,15.14-16.79,14.78-2.92,0-5.84-.55-8.58-1.82-3.83-1.46-6.57-4.74-7.48-8.76-2.19-8.94-2.19-18.43,0-27.37.91-3.65,3.65-6.75,7.12-8.21,4.93-2.37,10.58-2.74,15.69-.73,5.84,1.82,9.31,6.39,10.4,13.5Z"/><path class="c" d="m62.58,64.43h-9.31v-17.88c0-.91-.18-1.82-.73-2.55-4.2-8.39-8.58-16.6-12.77-25-.18-.55-.55-.91-.91-1.64h9.67c.36,0,.91.55,1.09,1.09,2.55,5.47,5.11,10.77,7.48,16.06.18.55.55.91.91,1.82.37-.55.55-.91.73-1.46,2.37-5.29,4.74-10.77,7.12-16.06.18-.91,1.28-1.64,2.19-1.46h8.03c-.36.55-.55,1.09-.73,1.64-4.01,8.21-8.21,16.42-12.23,24.63-.36.91-.73,2.01-.73,3.1v15.87l.18,1.82Z"/><path class="c" d="m349.59,17.36h9.49v47.07h-9.49V17.36Z"/><path class="c" d="m505.42,34.69c.73-1.09,1.46-1.82,2.01-2.74,1.64-2.01,4.56-2.92,7.12-2.01,2.55.73,4.56,2.74,5.11,5.47,1.09,5.47-1.09,9.67-5.29,12.95-2.74,2.01-5.66,3.83-8.58,5.66-.37.18-.91.18-1.46,0-4.2-2.55-7.85-5.84-10.95-9.67-2.19-2.74-2.92-6.57-1.82-9.85.91-3.1,3.47-4.93,7.3-5.11,2.74-.18,5.29,1.64,6.02,4.2.18.36.37.73.55,1.09Z"/></g></svg>