<?xml version="1.0" encoding="UTF-8" standalone="no"?>
<!DOCTYPE svg PUBLIC "-//W3C//DTD SVG 1.1//EN" "http://www.w3.org/Graphics/SVG/1.1/DTD/svg11.dtd">
<!-- Created with Vectornator (http://vectornator.io/) -->
<svg height="100%" stroke-miterlimit="10" style="fill-rule:nonzero;clip-rule:evenodd;stroke-linecap:round;stroke-linejoin:round;" version="1.1" viewBox="0 0 250 80" width="100%" xml:space="preserve" xmlns="http://www.w3.org/2000/svg" xmlns:xlink="http://www.w3.org/1999/xlink">
<defs/>
<path d="M0 0L250 0L250 80L0 80L0 0Z" fill="#000000" fill-opacity="0" fill-rule="nonzero" opacity="1" stroke="none"/>
<g id="Sem-Título">
<g opacity="1">
<path d="M84.0679 37.9948L84.0679 50.1592L79.8187 50.1592L79.8187 28.6632C81.1518 28.6632 82.4849 28.6632 83.818 28.6632C83.9846 28.6632 84.2345 28.9964 84.3179 29.1631C85.9842 32.6624 87.6506 36.0785 89.2336 39.5778L89.6502 40.3277C89.8169 39.9944 89.9002 39.8278 90.0668 39.5778C91.7332 36.0785 93.4828 32.6624 95.1492 29.1631C95.2325 28.7465 95.6491 28.4965 96.0657 28.5799C97.1488 28.6632 98.3153 28.5799 99.3984 28.5799L99.3984 50.0759L95.1492 50.0759L95.1492 37.9948L94.9826 37.9115C94.8993 38.1614 94.7326 38.3281 94.6493 38.578C93.5662 40.8276 92.483 43.0772 91.3999 45.3268C91.2333 45.7434 90.9 45.8267 90.4834 45.91C88.9004 46.16 87.9839 45.5767 87.4006 44.077C86.6508 42.1607 85.5676 40.411 84.6511 38.578C84.5678 38.3281 84.4012 38.1614 84.3179 37.9115L84.0679 37.9948Z" fill="#000000" fill-rule="nonzero" opacity="1" stroke="none"/>
<path d="M180.8 28.7465L185.049 28.7465L185.049 50.2425C183.883 50.2425 182.716 50.2425 181.55 50.2425C181.383 50.2425 181.133 49.9093 181.05 49.7426L173.468 38.0781C173.302 37.8282 173.135 37.4949 172.802 37.0783L172.802 50.1592L168.636 50.1592L168.636 28.6632C169.802 28.6632 170.969 28.6632 172.135 28.6632C172.302 28.6632 172.552 28.9964 172.635 29.1631C175.218 33.1623 177.801 37.0783 180.384 41.0776C180.55 41.3275 180.717 41.4941 180.967 41.9107L180.8 28.7465Z" fill="#000000" fill-rule="nonzero" opacity="1" stroke="none"/>
<path d="M216.877 53.5753C217.377 53.0754 217.877 52.5754 218.377 51.9922C218.793 51.409 219.126 50.7425 219.46 50.1592C218.46 49.576 217.543 49.0761 216.794 48.4929C214.461 46.9931 212.794 44.5769 212.128 41.8274C211.211 37.9948 212.461 33.9955 215.294 31.3293C219.626 26.9968 225.042 25.1638 231.124 25.1638C235.207 25.0805 239.289 26.1636 242.789 28.2466C245.955 30.1629 248.454 32.7458 249.538 36.4117C250.954 41.1609 249.038 46.2433 244.872 48.9928C240.623 51.9089 235.54 53.242 230.458 52.8254C229.125 52.7421 227.792 52.4921 226.458 52.4088C226.125 52.4088 225.875 52.4921 225.542 52.5754C223.626 53.5753 221.543 54.3251 219.376 54.7417C217.877 54.9917 217.543 54.825 216.877 53.5753ZM220.626 52.4088C222.126 51.8256 223.542 51.3257 224.875 50.7425C225.459 50.4925 226.125 50.4092 226.708 50.4925C228.791 50.7425 230.874 50.9091 232.957 50.9091C237.04 50.9091 240.956 49.576 244.122 47.0765C247.788 44.1603 249.454 38.3281 246.122 33.9122C244.455 31.7459 242.289 29.9963 239.789 28.9131C236.54 27.4967 232.957 26.9135 229.458 27.1634C224.625 27.3301 220.293 28.8298 216.794 32.3292C213.044 36.0785 212.628 42.6606 217.543 46.4099C218.793 47.3264 220.126 48.0763 221.626 48.9928C221.376 49.9926 221.043 51.0757 220.626 52.4088Z" fill="#000000" fill-rule="nonzero" opacity="1" stroke="none"/>
<path d="M155.388 50.1592L151.222 50.1592L151.222 41.1609L143.807 41.1609L143.807 50.2425L139.558 50.2425L139.558 28.7465L143.807 28.7465L143.807 37.5782L151.222 37.5782L151.222 28.7465L155.471 28.7465L155.388 50.1592Z" fill="#000000" fill-rule="nonzero" opacity="1" stroke="none"/>
<path d="M15.5805 50.1592L11.5812 50.1592L11.5812 41.1609L4.24922 41.1609L4.24922 50.1592L0 50.1592L0 28.7465L4.24922 28.7465L4.24922 37.5782L11.5812 37.5782L11.5812 28.7465L15.5805 28.7465L15.5805 50.1592Z" fill="#000000" fill-rule="nonzero" opacity="1" stroke="none"/>
<path d="M189.215 28.7465L203.546 28.7465L203.546 32.4958L193.465 32.4958L193.465 37.5782L201.963 37.5782L201.963 41.3275L193.465 41.3275L193.465 46.4932L203.546 46.4932L203.546 50.1592L189.215 50.1592L189.215 28.7465Z" fill="#000000" fill-rule="nonzero" opacity="1" stroke="none"/>
<path d="M68.1542 37.5782L68.1542 41.3275L59.5724 41.3275L59.5724 46.4099L69.6539 46.4099L69.6539 50.0759L55.6565 50.0759L55.6565 28.7465L69.7372 28.7465L69.7372 32.4958L59.5724 32.4958L59.5724 37.5782L68.1542 37.5782Z" fill="#000000" fill-rule="nonzero" opacity="1" stroke="none"/>
<path d="M109.48 28.6632C110.313 28.6632 111.063 28.6632 111.813 28.6632C112.313 28.5799 112.813 28.9131 112.896 29.413L112.896 29.413C114.562 33.9955 116.395 38.578 118.062 43.2438C118.978 45.5767 119.811 47.8263 120.728 50.2425L117.645 50.2425C116.145 50.2425 116.229 50.2425 115.729 48.9095C115.479 48.0763 115.395 47.0765 114.812 46.6599C114.229 46.2433 113.229 46.4932 112.396 46.4932C110.896 46.4932 109.313 46.4932 107.814 46.4932C107.48 46.4099 107.064 46.6599 107.064 47.0765L107.064 47.0765C106.814 47.993 106.48 48.9095 106.147 49.826C106.064 49.9926 105.897 50.3259 105.731 50.3259C104.398 50.3259 102.981 50.3259 101.481 50.3259C104.231 42.9939 106.814 35.8285 109.48 28.6632ZM108.313 42.8272L113.979 42.8272L111.23 35.162L111.063 35.162L108.313 42.8272Z" fill="#000000" fill-rule="nonzero" opacity="1" stroke="none"/>
<path d="M36.9099 50.1592L36.9099 28.7465C37.0765 28.7465 37.2432 28.6632 37.3265 28.6632C40.076 28.6632 42.8255 28.5799 45.575 28.6632C49.241 28.5799 52.3237 31.496 52.4904 35.2453C52.5737 38.9113 49.7409 41.9941 46.0749 42.1607C44.4918 42.244 42.9088 42.1607 41.1591 42.1607L41.1591 50.2425L36.9099 50.1592ZM41.2424 38.2447C42.9088 38.2447 44.5752 38.3281 46.1582 38.2447C47.6579 38.0781 48.2411 37.0783 48.2411 35.4119C48.2411 33.7456 47.5746 32.7458 46.1582 32.5791C44.4918 32.4125 42.9088 32.5791 41.2424 32.5791L41.2424 38.2447Z" fill="#000000" fill-rule="nonzero" opacity="1" stroke="none"/>
<path d="M137.641 35.3286C136.308 35.3286 135.059 35.3286 133.809 35.3286C133.642 35.3286 133.309 35.0787 133.309 34.8287C132.726 32.9124 130.726 31.8293 128.81 32.3292C127.643 32.4958 126.727 33.4123 126.477 34.5788C126.227 35.4119 126.144 36.2451 126.144 37.0783C126.144 39.4112 126.144 41.6608 126.393 43.9104C126.56 45.8267 127.56 46.5766 129.476 46.7432C131.059 46.9098 132.642 45.9933 133.142 44.4103C133.309 43.8271 133.559 43.6604 134.059 43.7437C135.142 43.8271 136.308 43.7437 137.391 43.7437C137.475 43.7437 137.475 43.8271 137.475 43.8271C137.142 47.743 133.725 50.7425 129.81 50.5758C128.476 50.5758 127.143 50.3259 125.894 49.7426C124.144 49.0761 122.894 47.5764 122.478 45.7434C121.478 41.6608 121.478 37.3282 122.478 33.2457C122.894 31.5793 124.144 30.1629 125.727 29.4964C127.977 28.4132 130.559 28.2466 132.892 29.1631C135.558 29.9963 137.142 32.0792 137.641 35.3286Z" fill="#000000" fill-rule="nonzero" opacity="1" stroke="none"/>
<path d="M28.5781 50.2425L24.3289 50.2425L24.3289 49.4927C24.3289 46.9931 24.3289 44.5769 24.3289 42.0774C24.3289 41.6608 24.2456 41.2442 23.9956 40.9109C22.0793 37.0783 20.0796 33.329 18.1633 29.4964C18.08 29.2464 17.9134 29.0798 17.7467 28.7465C19.2465 28.7465 20.7462 28.7465 22.1626 28.7465C22.3292 28.7465 22.5792 28.9964 22.6625 29.2464C23.829 31.7459 24.9954 34.1622 26.0785 36.5784C26.1619 36.8283 26.3285 36.995 26.4951 37.4116C26.6618 37.1616 26.7451 36.995 26.8284 36.745C27.9115 34.3288 28.9947 31.8293 30.0778 29.413C30.1611 28.9964 30.661 28.6632 31.0776 28.7465C32.2441 28.7465 33.4105 28.7465 34.7436 28.7465C34.577 28.9964 34.4937 29.2464 34.4104 29.4964C32.5774 33.2457 30.661 36.995 28.828 40.7443C28.6614 41.1609 28.4948 41.6608 28.4948 42.1607C28.4948 44.5769 28.4948 46.9931 28.4948 49.4094L28.5781 50.2425Z" fill="#000000" fill-rule="nonzero" opacity="1" stroke="none"/>
<path d="M159.637 28.7465L163.97 28.7465L163.97 50.2425L159.637 50.2425L159.637 28.7465Z" fill="#000000" fill-rule="nonzero" opacity="1" stroke="none"/>
<path d="M230.791 36.6617C231.124 36.1618 231.458 35.8285 231.707 35.4119C232.457 34.4954 233.79 34.0788 234.957 34.4954C236.123 34.8287 237.04 35.7452 237.29 36.995C237.79 39.4945 236.79 41.4108 234.874 42.9106C233.624 43.8271 232.291 44.6602 230.958 45.4934C230.791 45.5767 230.541 45.5767 230.291 45.4934C228.375 44.327 226.708 42.8272 225.292 41.0776C224.292 39.8278 223.959 38.0781 224.459 36.5784C224.875 35.162 226.042 34.3288 227.792 34.2455C229.041 34.1622 230.208 34.9953 230.541 36.1618C230.624 36.3284 230.708 36.4951 230.791 36.6617Z" fill="#000000" fill-rule="nonzero" opacity="1" stroke="none"/>
</g>
</g>
</svg>
