<?xml version="1.0" encoding="UTF-8" standalone="no"?>
<svg id="a" viewBox="0 0 32.000001 32" version="1.1" sodipodi:docname="hype-machine.svg" width="32" height="32" inkscape:version="1.4-beta2 (9aaf4f34, 2024-07-30)" xmlns:inkscape="http://www.inkscape.org/namespaces/inkscape" xmlns:sodipodi="http://sodipodi.sourceforge.net/DTD/sodipodi-0.dtd" xmlns="http://www.w3.org/2000/svg" xmlns:svg="http://www.w3.org/2000/svg">
  <sodipodi:namedview id="namedview13" pagecolor="#ffffff" bordercolor="#000000" borderopacity="0.25" inkscape:showpageshadow="2" inkscape:pageopacity="0.0" inkscape:pagecheckerboard="0" inkscape:deskcolor="#d1d1d1" inkscape:zoom="0.325" inkscape:cx="273.84615" inkscape:cy="38.461538" inkscape:window-width="1440" inkscape:window-height="790" inkscape:window-x="0" inkscape:window-y="0" inkscape:window-maximized="1" inkscape:current-layer="a" />
  <defs id="defs1">
    <style id="style1">.c{stroke-width:0px;}</style>
  </defs>
  <g id="g13" transform="matrix(0.38280623,0,0,0.38280623,-177.57972,-0.07555615)">
    <path class="c" d="m 474.95,71.73 c 1.09,-1.09 2.19,-2.19 3.28,-3.47 0.91,-1.28 1.64,-2.74 2.37,-4.01 -2.19,-1.28 -4.2,-2.37 -5.84,-3.65 -5.11,-3.28 -8.76,-8.58 -10.22,-14.6 -2.01,-8.39 0.73,-17.15 6.93,-22.99 9.49,-9.49 21.35,-13.5 34.67,-13.5 8.94,-0.18 17.88,2.19 25.55,6.75 6.93,4.2 12.41,9.85 14.78,17.88 3.1,10.4 -1.09,21.53 -10.22,27.55 -9.3,6.39 -20.44,9.31 -31.57,8.39 -2.92,-0.18 -5.84,-0.73 -8.76,-0.91 -0.73,0 -1.28,0.18 -2.01,0.36 -4.2,2.19 -8.76,3.83 -13.5,4.74 -3.28,0.55 -4.01,0.18 -5.47,-2.55 z m 8.21,-2.55 c 3.28,-1.28 6.39,-2.37 9.3,-3.65 1.28,-0.55 2.74,-0.73 4.01,-0.55 4.56,0.55 9.12,0.91 13.68,0.91 8.94,0 17.52,-2.92 24.45,-8.39 8.03,-6.39 11.68,-19.16 4.38,-28.83 -3.65,-4.74 -8.39,-8.58 -13.87,-10.95 -7.12,-3.1 -14.96,-4.38 -22.62,-3.83 -10.58,0.37 -20.07,3.65 -27.73,11.31 -8.21,8.21 -9.12,22.63 1.64,30.84 2.74,2.01 5.66,3.65 8.94,5.66 -0.55,2.19 -1.28,4.56 -2.19,7.48 z" id="path3" />
    <path class="c" d="m 505.42,34.69 c 0.73,-1.09 1.46,-1.82 2.01,-2.74 1.64,-2.01 4.56,-2.92 7.12,-2.01 2.55,0.73 4.56,2.74 5.11,5.47 1.09,5.47 -1.09,9.67 -5.29,12.95 -2.74,2.01 -5.66,3.83 -8.58,5.66 -0.37,0.18 -0.91,0.18 -1.46,0 -4.2,-2.55 -7.85,-5.84 -10.95,-9.67 -2.19,-2.74 -2.92,-6.57 -1.82,-9.85 0.91,-3.1 3.47,-4.93 7.3,-5.11 2.74,-0.18 5.29,1.64 6.02,4.2 0.18,0.36 0.37,0.73 0.55,1.09 z" id="path13" />
  </g>
</svg>
