<svg id="Camada_1" data-name="Camada 1" xmlns="http://www.w3.org/2000/svg" viewBox="0 0 200 80"><path d="M24.35,45.88H35.86l6.45-31.75H30.79Z"/><path d="M31.81,9.15H43.32L45.18,0H33.66Z"/><path d="M40.42,54.82H51.94l7-34.36h8.4l1.32-6.33H60.18l.29-1.47C61,10,61.89,6.81,66.23,6.81a18.89,18.89,0,0,1,7.44,1.28L75,1.41A25,25,0,0,0,66.68,0c-9.26,0-15.63,5.51-18,14.13h-4l-1.25,6.33H47.4Z"/><path d="M76.91,46.59c13.6,0,23-12.43,23-22.56,0-7.38-7-10.61-13.6-10.61C71.41,13.42,63.29,26.78,63.29,36,63.29,43.36,70.34,46.59,76.91,46.59Z"/><path d="M113.24,46.59c13.6,0,23-12.43,23-22.56,0-7.38-7-10.61-13.62-10.61-14.91,0-23,13.36-23,22.56,0,7.38,7.06,10.61,13.62,10.61"/><path d="M155,45.88h11.46L175.65.71H164.13l-2.74,13.42a23.5,23.5,0,0,0-4.65-.53c-11.29,0-21.55,14.35-21.55,24.61,0,4.22,2.75,8.38,7.4,8.38,6.62,0,11.2-3.24,13.11-6.28h.72Z"/><path d="M119.52,69.81C111.1,77,99.84,80.66,87.6,79.9a30.84,30.84,0,0,1-28.28-25h.73a28.6,28.6,0,0,0,22.53,16c10.35,1.14,23-3.53,30-10.21l-7.81-5.91,23.2.07-5,24.55Z"/></svg>