<?xml version="1.0" encoding="UTF-8" standalone="no"?>
<!DOCTYPE svg PUBLIC "-//W3C//DTD SVG 1.1//EN" "http://www.w3.org/Graphics/SVG/1.1/DTD/svg11.dtd">
<!-- Created with Vectornator (http://vectornator.io/) -->
<svg height="100%" stroke-miterlimit="10" style="fill-rule:nonzero;clip-rule:evenodd;stroke-linecap:round;stroke-linejoin:round;" version="1.1" viewBox="0 0 151.3 80" width="100%" xml:space="preserve" xmlns="http://www.w3.org/2000/svg" xmlns:xlink="http://www.w3.org/1999/xlink">
<defs/>
<path d="M0 0L151.3 0L151.3 80L0 80L0 0Z" fill="#000000" fill-opacity="0" fill-rule="nonzero" opacity="1" stroke="none"/>
<g id="Sem-Título">
<g opacity="1">
<path d="M7.46 9.15073L18.97 9.15073L20.83 0.0007272L9.31 0.0007272L7.46 9.15073Z" fill="#000000" fill-rule="nonzero" opacity="1" stroke="none"/>
<g opacity="1">
<path d="M7.10543e-15 45.8807L11.51 45.8807L17.96 14.1307L6.44 14.1307L7.10543e-15 45.8807Z" fill="#000000" fill-rule="nonzero" opacity="1" stroke="none"/>
<path d="M16.07 54.8207L27.59 54.8207L34.59 20.4607L42.99 20.4607L44.31 14.1307L35.83 14.1307L36.12 12.6607C36.65 10.0007 37.54 6.81073 41.88 6.81073C44.4209 6.73244 46.9514 7.1678 49.32 8.09073L50.65 1.41073C47.9766 0.472678 45.1632-0.00411241 42.33 0.0007272C33.07 0.0007272 26.7 5.51073 24.33 14.1307L20.33 14.1307L19.08 20.4607L23.05 20.4607L16.07 54.8207Z" fill="#000000" fill-rule="nonzero" opacity="1" stroke="none"/>
<path d="M52.56 46.5907C66.16 46.5907 75.56 34.1607 75.56 24.0307C75.56 16.6507 68.56 13.4207 61.96 13.4207C47.06 13.4207 38.94 26.7807 38.94 36.0007C38.94 43.3607 45.99 46.5907 52.56 46.5907Z" fill="#000000" fill-rule="nonzero" opacity="1" stroke="none"/>
<path d="M88.89 46.5907C102.49 46.5907 111.89 34.1607 111.89 24.0307C111.89 16.6507 104.89 13.4207 98.27 13.4207C83.36 13.4207 75.27 26.7807 75.27 35.9807C75.27 43.3607 82.33 46.5907 88.89 46.5907" fill="#000000" fill-rule="nonzero" opacity="1" stroke="none"/>
<path d="M130.65 45.8807L142.11 45.8807L151.3 0.710727L139.78 0.710727L137.04 14.1307C135.511 13.7998 133.954 13.6222 132.39 13.6007C121.1 13.6007 110.84 27.9507 110.84 38.2107C110.84 42.4307 113.59 46.5907 118.24 46.5907C124.86 46.5907 129.44 43.3507 131.35 40.3107L132.07 40.3107L130.65 45.8807Z" fill="#000000" fill-rule="nonzero" opacity="1" stroke="none"/>
<path d="M95.17 69.8107C86.75 77.0007 75.49 80.6607 63.25 79.9007C49.2289 78.9828 37.6008 68.7034 34.97 54.9007L35.7 54.9007C39.9643 63.749 48.4708 69.79 58.23 70.9007C68.58 72.0407 81.23 67.3707 88.23 60.6907L80.42 54.7807L103.62 54.8507L98.62 79.4007L95.17 69.8107Z" fill="#000000" fill-rule="nonzero" opacity="1" stroke="none"/>
</g>
</g>
</g>
</svg>
