<?xml version="1.0" encoding="UTF-8"?><svg id="a" xmlns="http://www.w3.org/2000/svg" viewBox="0 0 132.39 80"><g id="b"><path d="m6.53,18.01h10.07l1.63-8.01h-10.08l-1.62,8.01Z" style="stroke-width:0px;"/><path d="m0,50.15h10.07l5.64-27.78H5.64L0,50.15Z" style="stroke-width:0px;"/><path d="m14.06,57.97h10.08l6.13-30.07h7.35l1.16-5.54h-7.42l.25-1.29c.46-2.33,1.24-5.12,5.04-5.12,2.22-.07,4.44.31,6.51,1.12l1.16-5.85c-2.34-.82-4.8-1.24-7.28-1.23-8.1,0-13.68,4.82-15.75,12.36h-3.5l-1.09,5.54h3.47l-6.11,30.07Z" style="stroke-width:0px;"/><path d="m45.99,50.77c11.9,0,20.13-10.88,20.13-19.74,0-6.46-6.13-9.28-11.9-9.28-13.04,0-20.14,11.69-20.14,19.76,0,6.44,6.17,9.27,11.92,9.27Z" style="stroke-width:0px;"/><path d="m77.78,50.77c11.9,0,20.13-10.88,20.13-19.74,0-6.46-6.13-9.28-11.92-9.28-13.05,0-20.13,11.69-20.13,19.74,0,6.46,6.18,9.28,11.92,9.28" style="stroke-width:0px;"/><path d="m114.32,50.15h10.03l8.04-39.52h-10.08l-2.4,11.74c-1.34-.29-2.7-.44-4.07-.46-9.88,0-18.86,12.56-18.86,21.53,0,3.69,2.41,7.33,6.48,7.33,5.79,0,9.8-2.84,11.47-5.5h.63l-1.24,4.87Z" style="stroke-width:0px;"/><path d="m83.28,71.08c-7.37,6.29-17.22,9.49-27.93,8.83-12.27-.8-22.44-9.8-24.75-21.88h.64c3.73,7.74,11.17,13.03,19.71,14,9.06,1,20.13-3.09,26.25-8.93l-6.83-5.17,20.3.06-4.38,21.48-3.02-8.39Z" style="stroke-width:0px;"/></g></svg>