<?xml version="1.0" encoding="UTF-8" standalone="no"?>
<svg viewBox="-6.1988831e-06 0 32 32" version="1.1" id="svg4" sodipodi:docname="igdb.svg" width="32" height="32" inkscape:version="1.4-beta2 (9aaf4f34, 2024-07-30)" xmlns:inkscape="http://www.inkscape.org/namespaces/inkscape" xmlns:sodipodi="http://sodipodi.sourceforge.net/DTD/sodipodi-0.dtd" xmlns="http://www.w3.org/2000/svg" xmlns:svg="http://www.w3.org/2000/svg">
  <defs id="defs4" />
  <sodipodi:namedview id="namedview4" pagecolor="#ffffff" bordercolor="#000000" borderopacity="0.25" inkscape:showpageshadow="2" inkscape:pageopacity="0.0" inkscape:pagecheckerboard="0" inkscape:deskcolor="#d1d1d1" inkscape:zoom="4.8297617" inkscape:cx="29.815135" inkscape:cy="6.5220609" inkscape:window-width="1440" inkscape:window-height="790" inkscape:window-x="0" inkscape:window-y="0" inkscape:window-maximized="1" inkscape:current-layer="svg4" />
  <g id="g4" transform="matrix(0.28021016,0,0,0.28021016,-6.3348831e-6,8.2942206)">
    <g id="Layer_1">
      <path id="Layer" class="s0" d="M 12.7,12.3 H 18 v 23.9 h -5.3 z" />
      <path id="path1" class="s0" d="m 24.2,24.3 v -0.1 c 0,-6.7 5.3,-12.3 12.5,-12.3 4.3,0 6.9,1.2 9.4,3.3 l -3.3,4 c -1.9,-1.6 -3.5,-2.5 -6.3,-2.5 -3.8,0 -6.8,3.4 -6.8,7.5 0,4.4 3,7.6 7.2,7.6 1.9,0 3.6,-0.5 4.9,-1.4 V 27 h -5.2 v -4.6 h 10.3 v 10.4 q -1,0.9 -2.2,1.6 -1.2,0.7 -2.5,1.2 -1.3,0.5 -2.7,0.7 -1.4,0.3 -2.8,0.3 c -7.4,0 -12.5,-5.2 -12.5,-12.3 z" />
      <path id="path2" fill-rule="evenodd" class="s0" d="m 53.3,12.3 h 9.3 c 7.5,0 12.6,5.2 12.6,11.9 0,6.8 -5.1,12 -12.6,12 h -9.3 z m 5.2,4.7 v 14.4 h 4.1 c 4.3,0 7.2,-2.9 7.2,-7.1 V 24.2 C 69.8,20 66.9,17 62.6,17 Z" />
      <path id="path3" fill-rule="evenodd" class="s0" d="m 81.3,12.3 h 11 c 2.7,0 4.9,0.8 6.2,2.1 q 0.4,0.4 0.8,0.9 0.3,0.5 0.5,1 0.2,0.5 0.3,1.1 0.1,0.5 0.1,1.1 v 0.1 c 0,2.6 -1.5,4.1 -3.1,5.1 2.7,1.1 4.4,2.7 4.4,5.9 0,4.4 -3.5,6.6 -8.9,6.6 H 81.3 Z m 13.7,7 c 0,-1.5 -1.3,-2.4 -3.5,-2.4 h -5.1 v 5 h 4.8 c 2.3,0 3.8,-0.7 3.8,-2.5 z m -2.6,6.9 h -6 v 5.3 h 6.2 c 2.3,0 3.7,-0.8 3.7,-2.6 v -0.1 c 0,-1.6 -1.2,-2.6 -3.9,-2.6 z" />
      <path id="path4" fill-rule="evenodd" class="s0" d="m 114.2,55 -1.9,-0.3 q -13.7,-2.2 -27.5,-3.3 -13.8,-1 -27.7,-1 -13.8,0 -27.7,1 -13.8,1.1 -27.5,3.3 L 0,55 V 0 H 114.2 Z M 57.1,46.9 q 6.8,0 13.5,0.3 6.8,0.3 13.5,0.8 6.7,0.5 13.4,1.3 6.7,0.7 13.4,1.7 V 3.3 H 3.4 V 51 q 6.6,-1 13.3,-1.7 6.7,-0.8 13.5,-1.3 6.7,-0.5 13.4,-0.8 6.8,-0.3 13.5,-0.3 z" />
    </g>
  </g>
</svg>
