<svg class="ign-logo" aria-hidden="false" width="32" height="32" xmlns="http://www.w3.org/2000/svg">
  <path class="dpad" fill="currentColor" d="M7.173 10.213A10.467 10.467 0 0 1 10.187 7.2c.173-1.573.413-3.013.693-4.28a14.14 14.14 0 0 0-8 8c1.267-.293 2.707-.52 4.28-.693M21.787 7.16v.027c1.2.786 2.226 1.826 3.026 3.026 1.574.174 3.014.414 4.28.694a14.17 14.17 0 0 0-8.026-8.014c.293 1.267.533 2.694.72 4.267m-11.6 17.68a10.727 10.727 0 0 1-3.027-3.027h-.04c-1.587-.186-3.013-.426-4.253-.72a14.13 14.13 0 0 0 8.013 8.027c-.293-1.267-.52-2.707-.693-4.28m14.666-3.027h-.04a10.727 10.727 0 0 1-3.026 3.027v.04c-.187 1.56-.427 3-.72 4.253a14.12 14.12 0 0 0 8.04-8.04 38.492 38.492 0 0 1-4.254.72M13.387.013h5.2c1.133 2.467 1.6 6.12 1.733 7.36a4.7 4.7 0 0 1 .08.84L16 12.16l-4.4-3.947c0-.226.027-.466.067-.733.133-1.267.573-5 1.72-7.48M11.6 23.787c0 .226.027.466.067.733.133 1.267.573 5 1.72 7.48h5.2c1.133-2.453 1.6-6.12 1.733-7.36a4.73 4.73 0 0 0 .08-.853L16 19.84Zm-3.387-12.2c-.226 0-.466.026-.733.066-1.267.16-5 .6-7.48 1.747v5.2c2.453 1.133 6.12 1.587 7.36 1.733.293.054.573.08.853.08l3.934-4.4-3.934-4.4zM32 13.373c-2.48-1.146-6.213-1.586-7.48-1.72a4.988 4.988 0 0 0-.733-.066l-3.947 4.4 3.947 4.4c.266 0 .546-.027.853-.08 1.24-.147 4.907-.6 7.36-1.734z" style="stroke-width:1.33333"/>
</svg>