<?xml version="1.0" encoding="UTF-8" standalone="no"?>
<svg class="ign-logo" focusable="false" viewBox="0 0 32 32" aria-hidden="false" role="img" version="1.1" id="svg2" sodipodi:docname="ign.svg" width="32" height="32" inkscape:version="1.4-beta2 (9aaf4f34, 2024-07-30)" xmlns:inkscape="http://www.inkscape.org/namespaces/inkscape" xmlns:sodipodi="http://sodipodi.sourceforge.net/DTD/sodipodi-0.dtd" xmlns="http://www.w3.org/2000/svg" xmlns:svg="http://www.w3.org/2000/svg" xmlns:rdf="http://www.w3.org/1999/02/22-rdf-syntax-ns#" xmlns:cc="http://creativecommons.org/ns#" xmlns:dc="http://purl.org/dc/elements/1.1/">
  <defs id="defs2" />
  <sodipodi:namedview id="namedview2" pagecolor="#ffffff" bordercolor="#000000" borderopacity="0.25" inkscape:showpageshadow="2" inkscape:pageopacity="0.0" inkscape:pagecheckerboard="0" inkscape:deskcolor="#d1d1d1" inkscape:zoom="1.0833333" inkscape:cx="37.846154" inkscape:cy="11.538462" inkscape:window-width="1440" inkscape:window-height="790" inkscape:window-x="0" inkscape:window-y="0" inkscape:window-maximized="1" inkscape:current-layer="svg2" />
  <title id="title1">IGN Logo</title>
  <path class="dpad" fill="currentColor" stroke="none" d="M 7.1733333,10.213333 A 10.466667,10.466667 0 0 1 10.186667,7.2 C 10.36,5.6266667 10.6,4.1866667 10.88,2.92 a 14.14,14.14 0 0 0 -8,8 C 4.1466667,10.626667 5.5866667,10.4 7.16,10.226667 M 21.786667,7.16 v 0.026667 c 1.2,0.7866666 2.226666,1.8266666 3.026666,3.026666 1.573334,0.173334 3.013334,0.413334 4.28,0.693334 A 14.169333,14.169333 0 0 0 21.066667,2.8933333 C 21.36,4.16 21.6,5.5866667 21.786667,7.16 m -11.6,17.68 C 8.9866667,24.053333 7.96,23.013333 7.16,21.813333 H 7.12 C 5.5333333,21.626667 4.1066667,21.386667 2.8666667,21.093333 4.2933333,24.76 7.2133333,27.693333 10.88,29.12 10.586667,27.853333 10.36,26.413333 10.186667,24.84 m 14.666666,-3.026667 h -0.04 c -0.786666,1.2 -1.826666,2.226667 -3.026666,3.026667 v 0.04 c -0.186667,1.56 -0.426667,3 -0.72,4.253333 a 14.12,14.12 0 0 0 8.04,-8.04 c -1.253334,0.293334 -2.666667,0.533334 -4.253334,0.72 M 13.386667,0.01333333 h 5.2 C 19.72,2.48 20.186667,6.1333333 20.32,7.3733333 c 0.05333,0.2933334 0.08,0.5733334 0.08,0.84 L 16,12.16 11.6,8.2133333 C 11.6,7.9866667 11.626667,7.7466667 11.666667,7.48 11.8,6.2133333 12.24,2.48 13.386667,0 M 11.6,23.786667 c 0,0.226666 0.02667,0.466666 0.06667,0.733333 0.133333,1.266667 0.573333,5 1.72,7.48 h 5.2 c 1.133333,-2.453333 1.6,-6.12 1.733333,-7.36 0.05333,-0.293333 0.08,-0.573333 0.08,-0.853333 L 16,19.84 Z m -3.3866667,-12.2 c -0.2266666,0 -0.4666666,0.02667 -0.7333333,0.06667 -1.2666667,0.16 -5,0.6 -7.48,1.746667 v 5.2 c 2.4533333,1.133333 6.12,1.586667 7.36,1.733333 0.2933333,0.05333 0.5733333,0.08 0.8533333,0.08 l 3.9333337,-4.4 -3.9333337,-4.4 z M 32,13.373333 c -2.48,-1.146666 -6.213333,-1.586666 -7.48,-1.72 -0.266667,-0.04 -0.506667,-0.06667 -0.733333,-0.06667 l -3.946667,4.4 3.946667,4.4 c 0.266666,0 0.546666,-0.02667 0.853333,-0.08 1.24,-0.146667 4.906667,-0.6 7.36,-1.733334 z" id="path1" style="stroke-width:1.33333" />
  <metadata id="metadata2">
    <rdf:RDF>
      <cc:Work rdf:about="">
        <dc:title>IGN Logo</dc:title>
      </cc:Work>
    </rdf:RDF>
  </metadata>
</svg>
