<?xml version="1.0" encoding="UTF-8" standalone="no"?>
<svg id="Camada_1" data-name="Camada 1" viewBox="0 0 32 32" version="1.1" sodipodi:docname="iheart.svg" width="32" height="32" inkscape:version="1.4-beta2 (9aaf4f34, 2024-07-30)" xmlns:inkscape="http://www.inkscape.org/namespaces/inkscape" xmlns:sodipodi="http://sodipodi.sourceforge.net/DTD/sodipodi-0.dtd" xmlns="http://www.w3.org/2000/svg" xmlns:svg="http://www.w3.org/2000/svg">
  <defs id="defs7" />
  <sodipodi:namedview id="namedview7" pagecolor="#ffffff" bordercolor="#000000" borderopacity="0.25" inkscape:showpageshadow="2" inkscape:pageopacity="0.0" inkscape:pagecheckerboard="0" inkscape:deskcolor="#d1d1d1" inkscape:zoom="2.1533616" inkscape:cx="15.324876" inkscape:cy="27.166826" inkscape:window-width="1440" inkscape:window-height="872" inkscape:window-x="0" inkscape:window-y="0" inkscape:window-maximized="1" inkscape:current-layer="Camada_1" />
  <path d="M 23.329461,4.150879 A 8.8725664,8.8725664 0 0 0 16.025697,8.098859 8.8673716,8.8673716 0 0 0 8.7219338,4.150879 8.7063356,8.7063356 0 0 0 1.3847954e-5,12.872799 c 0,3.070074 1.932432452046,5.257047 3.947980352046,7.303763 l 7.9011558,7.475189 a 0.66492303,0.66492303 0 0 0 1.137642,-0.483108 v -5.828466 a 3.0389059,3.0389059 0 0 1 6.077811,0 v 5.828466 a 0.67011774,0.67011774 0 0 0 1.111668,0.483108 l 7.875182,-7.475189 c 2.015548,-2.046716 3.947981,-4.233689 3.947981,-7.303763 A 8.6232205,8.6232205 0 0 0 23.329461,4.150879 Z M 8.1297367,19.625923 A 0.57661292,0.57661292 0 0 1 7.6726018,19.823322 0.70648071,0.70648071 0 0 1 7.2726093,19.683065 C 4.6752538,17.366224 3.3557972,14.950683 3.3557972,12.503974 v 0 A 6.9764966,6.9764966 0 0 1 6.3375611,6.935244 0.59739175,0.59739175 0 0 1 7.1635204,7.132643 0.60258646,0.60258646 0 0 1 6.9609268,7.958602 5.802492,5.802492 0 0 0 4.545386,12.478001 v 0 c 0,2.077884 1.1947837,4.155768 3.5272088,6.233653 a 0.59739175,0.59739175 0 0 1 0.057142,0.914269 z m 3.8908383,-2.244115 a 0.61297588,0.61297588 0 0 1 -0.519471,0.311683 0.48830283,0.48830283 0 0 1 -0.285709,-0.08831 5.7713239,5.7713239 0 0 1 -2.9557909,-4.831081 v -0.02597 a 4.8622495,4.8622495 0 0 1 2.5973559,-4.322 0.60778117,0.60778117 0 0 1 0.571418,1.064916 3.6362977,3.6362977 0 0 0 -1.9584059,3.241499 4.4986197,4.4986197 0 0 0 2.3220359,3.776556 0.67011774,0.67011774 0 0 1 0.228567,0.857127 z m 4.005122,-1.558413 a 2.5973555,2.5973555 0 1 1 2.597356,-2.597356 2.5973555,2.5973555 0 0 1 -2.597356,2.576577 z m 4.86225,1.78698 a 0.57141821,0.57141821 0 0 1 -0.285709,0.08831 0.64933885,0.64933885 0 0 1 -0.519471,-0.311683 0.60778117,0.60778117 0 0 1 0.228567,-0.825958 4.5401774,4.5401774 0 0 0 2.32723,-3.78175 3.6362977,3.6362977 0 0 0 -1.958405,-3.236305 0.62856001,0.62856001 0 0 1 -0.27532,-0.825959 0.61817059,0.61817059 0 0 1 0.820764,-0.254541 4.8570548,4.8570548 0 0 1 2.597356,4.316805 v 0.03117 a 5.7609344,5.7609344 0 0 1 -2.935012,4.779134 z M 28.73196,12.49878 c 0,2.441514 -1.309066,4.857054 -3.922006,7.158311 a 0.5194711,0.5194711 0 0 1 -0.399993,0.145452 0.54544466,0.54544466 0 0 1 -0.45194,-0.202594 0.58700234,0.58700234 0 0 1 0.05714,-0.851932 c 2.327231,-2.077884 3.522014,-4.155769 3.522014,-6.233654 v -0.03117 a 5.7141821,5.7141821 0 0 0 -2.41554,-4.519399 0.59219704,0.59219704 0 0 1 -0.18701,-0.857127 0.59739175,0.59739175 0 0 1 0.820764,-0.202594 7.0751966,7.0751966 0 0 1 2.986959,5.542757 z" id="path7" style="stroke-width:0.519471;fill:#000000" />
</svg>
