<svg id="Camada_1" data-name="Camada 1" xmlns="http://www.w3.org/2000/svg" viewBox="0 0 200 80"><path d="M173.36,39.58V34.77H165V58.56h8.37V51.18c0-5.47,2.46-8,6.84-8h.71v-8.8C176.91,34.22,174.73,36.3,173.36,39.58Z"/><polygon points="101.81 39.31 90.86 39.31 90.86 27.77 82.33 27.77 82.33 58.56 90.86 58.56 90.86 46.86 101.81 46.86 101.81 58.56 110.34 58.56 110.34 27.77 101.81 27.77 101.81 39.31"/><path d="M74.12,25.52A4.44,4.44,0,1,0,78.56,30,4.41,4.41,0,0,0,74.12,25.52Z"/><path d="M200,41.5V34.77h-5.53v-6H186.1v6h-2.79V41.5h2.79v9.68c0,5.69,3,7.88,8.05,7.88a12.08,12.08,0,0,0,5.79-1.37V51.12a8.07,8.07,0,0,1-3.17.77c-1.53,0-2.3-.66-2.3-2.35v-8Z"/><path d="M149,34.22a12.35,12.35,0,0,0-10.33,4.87l4.65,3.83a7,7,0,0,1,5.3-2.41,5,5,0,0,1,5.14,3.83v.17h-5.52c-6.84.1-10.45,2.62-10.45,7.49,0,4.65,3.34,7.17,9,7.17a9.54,9.54,0,0,0,7-2.85v2.3h7.94v-12h-.06C161.76,39.2,156.45,34.22,149,34.22Zm4.76,15a4.4,4.4,0,0,1-4.54,4.6c-2.18.1-3.44-1.15-3.44-2.69s1.15-2.18,3.22-2.18h4.76Z"/><path d="M74.23,36.46h-.32a4.39,4.39,0,0,0-4.38,4.38V58.56h9V40.84A4.32,4.32,0,0,0,74.23,36.46Z"/><path d="M124.84,34.17c-7.06,0-12,5.52-12,12.47v.11c0,7.38,5.31,12.36,12.86,12.36A12.47,12.47,0,0,0,136,54.24l-4.64-3.83A7.44,7.44,0,0,1,126,52.82a5,5,0,0,1-5.14-3.94h15.92c.05-.55.05-1.15.05-1.69C136.87,40.18,133,34.17,124.84,34.17Zm-4.16,10.39a4.27,4.27,0,0,1,4.16-4.21A4,4,0,0,1,129,44.56Z"/><path d="M44.91,17.21a17.08,17.08,0,0,0-14.06,7.6,17.07,17.07,0,0,0-14.06-7.6A16.76,16.76,0,0,0,0,34c0,5.91,3.72,10.12,7.6,14.06L22.81,62.45A1.28,1.28,0,0,0,25,61.52V50.3a5.85,5.85,0,0,1,11.7,0V61.52a1.29,1.29,0,0,0,2.14.93L54,48.06C57.88,44.12,61.6,39.91,61.6,34A16.6,16.6,0,0,0,44.91,17.21ZM15.65,47a1.11,1.11,0,0,1-.88.38,1.36,1.36,0,0,1-.77-.27C9,42.65,6.46,38,6.46,33.29v0A13.43,13.43,0,0,1,12.2,22.57a1.15,1.15,0,0,1,1.59.38,1.16,1.16,0,0,1-.39,1.59,11.17,11.17,0,0,0-4.65,8.7v0c0,4,2.3,8,6.79,12A1.15,1.15,0,0,1,15.65,47Zm7.49-4.32a1.18,1.18,0,0,1-1,.6.94.94,0,0,1-.55-.17,11.11,11.11,0,0,1-5.69-9.3v-.05a9.36,9.36,0,0,1,5-8.32A1.17,1.17,0,0,1,22,27.49a7,7,0,0,0-3.77,6.24A8.66,8.66,0,0,0,22.7,41,1.29,1.29,0,0,1,23.14,42.65Zm7.71-3a5,5,0,1,1,5-5A5,5,0,0,1,30.85,39.64Zm9.36,3.44a1.1,1.1,0,0,1-.55.17,1.25,1.25,0,0,1-1-.6,1.17,1.17,0,0,1,.44-1.59,8.74,8.74,0,0,0,4.48-7.28,7,7,0,0,0-3.77-6.23A1.21,1.21,0,0,1,39.28,26a1.19,1.19,0,0,1,1.58-.49,9.35,9.35,0,0,1,5,8.31v.06A11.09,11.09,0,0,1,40.21,43.08Zm15.1-9.84c0,4.7-2.52,9.35-7.55,13.78a1,1,0,0,1-.77.28,1.05,1.05,0,0,1-.87-.39,1.13,1.13,0,0,1,.11-1.64c4.48-4,6.78-8,6.78-12v-.06a11,11,0,0,0-4.65-8.7A1.14,1.14,0,0,1,48,22.9a1.15,1.15,0,0,1,1.58-.39,13.62,13.62,0,0,1,5.75,10.67Z"/></svg>