<?xml version="1.0" encoding="UTF-8" standalone="no"?>
<!DOCTYPE svg PUBLIC "-//W3C//DTD SVG 1.1//EN" "http://www.w3.org/Graphics/SVG/1.1/DTD/svg11.dtd">
<!-- Created with Vectornator (http://vectornator.io/) -->
<svg height="100%" stroke-miterlimit="10" style="fill-rule:nonzero;clip-rule:evenodd;stroke-linecap:round;stroke-linejoin:round;" version="1.1" viewBox="0 0 140 80" width="100%" xml:space="preserve" xmlns="http://www.w3.org/2000/svg" xmlns:xlink="http://www.w3.org/1999/xlink">
<defs/>
<path d="M0 0L140 0L140 80L0 80L0 0Z" fill="#000000" fill-opacity="0" fill-rule="nonzero" opacity="1" stroke="none"/>
<g id="Sem-Título">
<g opacity="1">
<path d="M110.539 36.255C109.961 36.255 109.069 36.5 108.894 36.9112L108.894 52.705C109.095 53.1513 109.944 53.405 110.539 53.405C111.134 53.405 112 53.16 112.175 52.705C112.422 51.6121 112.513 50.4897 112.446 49.3713L112.446 40.0437C112.511 39.028 112.41 38.0086 112.149 37.025C111.769 36.5224 111.169 36.2354 110.539 36.255Z" fill="#000000" fill-rule="nonzero" opacity="1" stroke="none"/>
<path d="M82.7575 27.4C81.9698 27.107 81.1281 26.9876 80.29 27.05L80.29 52.8887C81.8825 52.8887 82.8625 52.6 83.23 52.0137C83.5975 51.4275 83.79 49.8262 83.79 47.2012L83.79 31.9237C83.8309 30.7798 83.7665 29.6346 83.5975 28.5025C83.5005 28.026 83.1911 27.62 82.7575 27.4Z" fill="#000000" fill-rule="nonzero" opacity="1" stroke="none"/>
<path d="M131.25 5L8.75 5C3.91751 5 7.10543e-15 8.91751 7.10543e-15 13.75L7.10543e-15 66.25C7.10543e-15 71.0825 3.91751 75 8.75 75L131.25 75C136.082 75 140 71.0825 140 66.25L140 13.75C140 8.91751 136.082 5 131.25 5ZM28.4375 59.6875L17.5 59.6875L17.5 20.3125L28.4375 20.3125L28.4375 59.6875ZM65.625 59.6875L56.3762 59.6875L56.3762 33.1137L52.64 59.6875L46.0337 59.6875L42.1313 33.6825L42.0875 59.6875L32.8125 59.6875L32.8125 20.3125L46.55 20.3125C46.9525 22.6983 47.3754 25.4954 47.8188 28.7037L49.3325 38.705L51.7825 20.33L65.625 20.33L65.625 59.6875ZM94.0625 52.74C94.0337 56.5855 90.9081 59.6876 87.0625 59.6875L70 59.6875L70 20.3125L87.0713 20.3125C90.9168 20.3124 94.0424 23.4145 94.0713 27.26L94.0625 52.74ZM122.5 52.8188C122.428 56.6781 119.246 59.7509 115.386 59.6875L114.686 59.6875C112.396 59.698 110.238 58.6157 108.876 56.7738L108.246 59.18L98.4375 59.18L98.4375 20.3125L108.938 20.3125L108.938 33C110.345 31.2445 112.471 30.2213 114.721 30.2175L115.421 30.2175C119.247 30.1731 122.4 33.2089 122.5 37.0337L122.5 52.8188Z" fill="#000000" fill-rule="nonzero" opacity="1" stroke="none"/>
</g>
</g>
</svg>
