<svg id="home_img" data-name="home img" xmlns="http://www.w3.org/2000/svg" viewBox="0 0 200 80"><path d="M146.33,35.72c-.66,0-1.68.28-1.88.75V54.52c.23.51,1.2.8,1.88.8s1.67-.28,1.87-.8a13.6,13.6,0,0,0,.31-3.81V40.05a10.76,10.76,0,0,0-.34-3.45A2.22,2.22,0,0,0,146.33,35.72Z"/><path d="M114.58,25.6a6.67,6.67,0,0,0-2.82-.4V54.73c1.82,0,2.94-.33,3.36-1s.64-2.5.64-5.5V30.77a21.32,21.32,0,0,0-.22-3.91A1.82,1.82,0,0,0,114.58,25.6Z"/><path d="M170,0H30A10,10,0,0,0,20,10V70A10,10,0,0,0,30,80H170a10,10,0,0,0,10-10V10A10,10,0,0,0,170,0ZM52.5,62.5H40v-45H52.5Zm42.5,0H84.43l0-30.37L80.16,62.5H72.61L68.15,32.78,68.1,62.5H57.5v-45H73.2q.69,4.09,1.45,9.59l1.73,11.43,2.8-21H95Zm32.5-7.94a8,8,0,0,1-8,7.94H100v-45h19.51a8,8,0,0,1,8,7.94Zm32.5.09a8,8,0,0,1-8.13,7.85h-.8a8.21,8.21,0,0,1-6.64-3.33l-.72,2.75H132.5V17.5h12V32a8.49,8.49,0,0,1,6.61-3.18h.8A8,8,0,0,1,160,36.61Z"/></svg>