<?xml version="1.0" encoding="utf-8"?>
<!-- Generator: Adobe Illustrator 23.0.6, SVG Export Plug-In . SVG Version: 6.00 Build 0)  -->
<svg version="1.1" id="Camada_1" xmlns="http://www.w3.org/2000/svg" xmlns:xlink="http://www.w3.org/1999/xlink" x="0px" y="0px"
	 viewBox="0 0 300 120" style="enable-background:new 0 0 300 120;" xml:space="preserve">
<title>imgur</title>
<path d="M277.3,51.3c-4.8,2-5.4,3.9-5.4,9.1v16c0,7.5-2.7,11.2-8.7,11.2s-8.7-3.7-8.7-11.2V45.6c0-7.5,2.7-11.1,8.7-11.1
	c3.4,0,6.1,1.6,8.2,4.9c3.6-3.4,7.7-5.2,11.7-5.2c4.8,0,8.8,3.5,8.8,7.6C292,47.9,284.3,48.4,277.3,51.3 M219.7,88.5
	c-16.8,0-26.1-7.8-26.1-22.5V45.6c0-7.5,2.7-11.1,8.7-11.1c5.8,0,8.5,3.6,8.5,11.1v17.3c0,7.2,1.9,11.2,8.9,11.2s8.9-4,8.9-11.2
	V45.6c0-7.5,2.7-11.1,8.7-11.1s8.5,3.6,8.5,11.1V66C245.8,80.7,236.4,88.5,219.7,88.5 M157,48.5c-6.4,0-11.3,4.9-11.3,12.6
	c0,7.9,4.8,12.8,11.3,12.8s11.4-5.1,11.4-12.8S163.4,48.5,157,48.5 M180.8,97.6c-5,7.5-14,11.5-26.3,11.5
	c-15.8,0-25.3-5.2-25.3-11.2c0-3.9,3.2-6.7,7.4-6.7s9.4,4.1,18.5,4.1c8.4,0,13.5-4.6,13.5-12.9c0-0.6-0.1-1.2-0.1-1.8
	c-3.7,4.8-8.9,7.2-15.7,7.2c-13.6,0-25-11.1-25-26.7c-0.2-14.8,11.5-27,26.3-27.2c0.2,0,0.3,0,0.5,0c5.9,0,10.3,1.8,13.8,5.4
	c2-3.2,5-4.9,7.7-4.9c5.9,0,8.7,3.6,8.7,11.1v30.8C184.8,85.6,184.2,92.7,180.8,97.6 M112.3,87.6c-5.9,0-8.5-3.7-8.5-11.2V59.1
	c0-7.8-2.3-11.7-7.9-11.7c-6.2,0-8.7,3.9-8.7,11.5v17.5c0,7.5-2.7,11.2-8.7,11.2s-8.7-3.7-8.7-11.2V59.1c0-7.8-2.2-11.7-7.8-11.7
	c-6.2,0-8.7,3.9-8.7,11.5v17.5c0,7.5-2.7,11.2-8.7,11.2s-8.7-3.7-8.7-11.2V45.6c0-7.5,2.7-11.1,8.7-11.1c3.4,0,6.1,1.6,8.2,4.9
	c3.6-3.5,8-5.1,13.8-5.1c7.4,0,13.1,2.4,17.2,7.2c5.3-5.2,10.3-7.2,17.4-7.2c11.9,0,19.5,6.9,19.5,20.1v22
	C121,83.9,118.2,87.6,112.3,87.6 M18,34.5c5.8,0,8.5,3.6,8.5,11.1v30.8c0,7.5-2.6,11.2-8.5,11.2s-8.7-3.7-8.7-11.2V45.6
	C9.3,38.1,12.1,34.5,18,34.5 M18,28.6c-5.6,0-10-3.9-10-8.9s4.5-8.9,10-8.9s9.9,4,9.9,8.9S23.4,28.6,18,28.6"/>
<path d="M18,28.6c-5.6,0-10-3.9-10-8.9s4.5-8.9,10-8.9s9.9,4,9.9,8.9S23.4,28.6,18,28.6"/>
</svg>
