<svg width="32" height="32" viewBox="0 0 1.28 1.28" xmlns="http://www.w3.org/2000/svg">
  <path d="M.72 1.056a.084.084 0 0 0 .05-.053c0-.006.003-.01.008-.01s.008.004.008.01a.084.084 0 0 0 .049.052c.005 0 .01.004.01.01a.009.009 0 0 1-.01.008.084.084 0 0 0-.048.053.009.009 0 1 1-.017 0 .084.084 0 0 0-.05-.053.009.009 0 0 1-.009-.009c0-.004.004-.008.01-.008zm-.113.13a.047.047 0 0 0-.027.03.005.005 0 0 1-.01 0 .047.047 0 0 0-.027-.03.005.005 0 0 1-.005-.005c0-.003.002-.005.004-.005a.047.047 0 0 0 .028-.03c0-.003.002-.005.005-.005s.005.002.005.005a.048.048 0 0 0 .027.03c.003 0 .005.002.005.005a.005.005 0 0 1-.005.005zM.47 1.074A1.457 1.457 0 0 1 .328.952 1.435 1.435 0 0 1 .21.814L.207.811A.103.103 0 0 1 .214.67L.5.388.382.27A.101.101 0 0 1 .357.165.106.106 0 0 1 .402.11.108.108 0 0 1 .447.093h.002A3.73 3.73 0 0 1 .976.05H.99c.049 0 .097.003.144.007h-.006a.105.105 0 0 1 .095.096 3.204 3.204 0 0 1-.037.696L1.19.833v.002a.121.121 0 0 1-.01.032V.865l-.001.002a.105.105 0 0 1-.095.062.101.101 0 0 1-.072-.03L.894.78l-.285.286a.103.103 0 0 1-.073.03.106.106 0 0 1-.066-.022zm-.103.043a.07.07 0 0 0-.04.044.007.007 0 1 1-.014 0 .07.07 0 0 0-.04-.044.007.007 0 0 1-.008-.007c0-.004.004-.007.007-.007a.07.07 0 0 0 .04-.044.007.007 0 1 1 .015 0 .07.07 0 0 0 .04.044.007.007 0 0 1 0 .014zM.19.883a.048.048 0 0 0-.028.03v.001a.005.005 0 1 1-.01 0 .048.048 0 0 0-.027-.03A.005.005 0 0 1 .12.878C.12.876.122.874.124.874a.048.048 0 0 0 .028-.03C.152.84.154.838.157.838S.162.84.162.843a.048.048 0 0 0 .027.03c.003 0 .006.003.006.006A.005.005 0 0 1 .19.884zm-.03.163a.038.038 0 0 0-.023.024.004.004 0 0 1-.004.004.004.004 0 0 1-.004-.004.038.038 0 0 0-.022-.024.004.004 0 0 1-.004-.004c0-.002.002-.004.004-.004a.038.038 0 0 0 .022-.024c0-.002.002-.004.004-.004s.004.002.004.004c.003.01.012.02.022.024.003 0 .004.002.004.004a.004.004 0 0 1-.004.004zM.075.55c0-.004.003-.006.006-.007A.11.11 0 0 0 .157.461C.157.456.16.453.163.453.167.454.17.457.17.46a.11.11 0 0 0 .074.083C.248.544.251.546.251.55.25.553.248.555.244.556A.11.11 0 0 0 .17.638a.006.006 0 0 1-.007.007A.006.006 0 0 1 .157.64.11.11 0 0 0 .083.556C.078.555.075.553.075.55zM.289.376A.067.067 0 0 0 .328.333C.328.329.33.326.335.326c.003 0 .007.003.007.007.006.02.02.035.038.043.005 0 .008.003.008.007A.007.007 0 0 1 .38.389a.067.067 0 0 0-.04.043.007.007 0 0 1-.006.007.007.007 0 0 1-.007-.007A.067.067 0 0 0 .289.39a.007.007 0 1 1 0-.014zm.64.546a.052.052 0 0 0-.03.033.005.005 0 0 1-.011 0 .051.051 0 0 0-.03-.033.005.005 0 0 1-.005-.005c0-.003.002-.005.005-.005a.051.051 0 0 0 .03-.033C.888.876.89.874.893.874S.898.876.9.879a.051.051 0 0 0 .03.033c.002 0 .004.002.004.005A.005.005 0 0 1 .93.922zm-.082.358.349-.349a.167.167 0 0 0 .043-.09V.84a3.15 3.15 0 0 0 .035-.7V.15a.157.157 0 0 0-.14-.142h-.001A1.441 1.441 0 0 0 .99 0H.977A3.97 3.97 0 0 0 .42.044L.441.042a.167.167 0 0 0-.1.052L0 .434v.846zM1.128.162a.01.01 0 0 0-.01-.01L1.091.15h-.008q-.03-.003-.058-.003H.92L.874.148H.86C.843.15.825.15.806.152a4.522 4.522 0 0 0-.059.004L.733.156a3.027 3.027 0 0 0-.05.005H.67L.61.169.596.169.544.175.527.178a3.004 3.004 0 0 0-.073.01.016.016 0 0 0-.005.005.007.007 0 0 0 0 .01l.186.184L.28.74a.01.01 0 0 0 0 .013c.037.05.075.093.115.134.04.04.083.077.13.111L.528 1a.012.012 0 0 0 .007.002A.01.01 0 0 0 .542 1L.894.646l.184.186a.008.008 0 0 0 .005.003c.005 0 .01-.007.012-.016a3.017 3.017 0 0 0 .033-.665z" style="stroke-width:.042676"/>
</svg>