<?xml version="1.0" encoding="UTF-8"?><svg id="a" xmlns="http://www.w3.org/2000/svg" viewBox="0 0 201.09 80"><path d="m199.87,19.57c-.74-.84-1.83-1.29-2.94-1.23-1.14-.06-2.24.44-2.94,1.34-.76,1.15-1.13,2.52-1.04,3.9v12.44c-1.38-1.57-3.03-2.88-4.88-3.85-1.14-.56-2.37-.92-3.63-1.09-.83-.12-1.67-.17-2.51-.17-3.86-.13-7.58,1.48-10.12,4.4-2.56,2.95-3.85,7.04-3.85,12.31,0,2.35.33,4.69,1.01,6.94.59,2.02,1.55,3.91,2.84,5.58,1.21,1.53,2.73,2.78,4.47,3.66,1.73.86,3.64,1.3,5.58,1.29.88,0,1.75-.08,2.61-.25.54-.08,1.07-.21,1.58-.38,1.28-.43,2.48-1.06,3.57-1.86,1.23-.93,2.36-1.99,3.35-3.16v.82c-.08,1.29.32,2.56,1.12,3.58,1.48,1.59,3.98,1.68,5.57.2,0,0,0,0,0,0l.15-.14c.86-1,1.31-2.29,1.26-3.61V23.11c.03-1.29-.39-2.54-1.2-3.54h0Zm-8.47,34.33c-.62,1.42-1.63,2.63-2.92,3.49-1.2.76-2.6,1.15-4.02,1.15-1.43,0-2.83-.42-4.02-1.2-1.3-.9-2.31-2.15-2.92-3.6-.76-1.85-1.12-3.84-1.06-5.84-.05-1.94.3-3.87,1.01-5.68.55-1.5,1.52-2.8,2.8-3.77,1.2-.88,2.66-1.34,4.14-1.31h.08c1.44,0,2.85.44,4.02,1.28,1.3.94,2.32,2.21,2.94,3.68.78,1.83,1.15,3.8,1.09,5.79.06,2.06-.33,4.12-1.15,6.01Zm-26.43.36c-.59-.47-1.34-.71-2.09-.67-.65-.04-1.3.15-1.83.54-1.06.98-1.91,1.77-2.56,2.35-.69.58-1.42,1.12-2.18,1.61-.74.49-1.55.86-2.4,1.09-.9.25-1.82.37-2.76.36-.21.02-.42.02-.63,0-1.24-.07-2.43-.44-3.49-1.09-1.28-.78-2.32-1.91-3-3.25-.77-1.62-1.16-3.39-1.15-5.18h16.42c2.21,0,3.94-.23,5.14-.84s1.83-2.01,1.83-4.12c-.03-2.35-.64-4.65-1.78-6.7-1.23-2.25-3.06-4.1-5.29-5.36-2.57-1.45-5.5-2.18-8.45-2.09h-.25c-2.27,0-4.52.42-6.64,1.22-1.99.77-3.78,1.96-5.26,3.49-1.43,1.59-2.53,3.46-3.22,5.48-.75,2.23-1.13,4.58-1.11,6.93,0,5.3,1.5,9.45,4.5,12.56,2.83,2.92,6.76,4.45,11.75,4.61h.87c2.14,0,4.26-.34,6.28-1.03,1.63-.52,3.16-1.3,4.53-2.31,1.06-.82,1.97-1.81,2.68-2.95.53-.8.84-1.72.9-2.68.05-.76-.25-1.5-.82-2.01v.06Zm-19.63-15.63c1.32-1.43,3.21-2.22,5.16-2.15,1.99-.08,3.91.69,5.29,2.13,1.34,1.39,2.09,3.66,2.31,6.56h-15.21c.28-2.85,1.09-5.08,2.45-6.53Zm-14.03,15.63c-.59-.47-1.34-.71-2.09-.67-.65-.04-1.3.15-1.83.54-1.06.98-1.91,1.77-2.56,2.35-.7.58-1.42,1.11-2.18,1.61-.74.49-1.55.86-2.4,1.09-.9.25-1.82.37-2.76.36-.21.02-.42.02-.63,0-1.24-.07-2.43-.44-3.49-1.09-1.29-.78-2.33-1.91-3-3.25-.76-1.62-1.15-3.39-1.14-5.18h16.42c2.21,0,3.94-.23,5.14-.84s1.82-2.01,1.82-4.12c-.03-2.35-.64-4.65-1.77-6.7-1.23-2.25-3.06-4.11-5.29-5.36-2.57-1.46-5.5-2.18-8.45-2.09h-.24c-2.27,0-4.53.41-6.66,1.2-1.98.77-3.78,1.96-5.26,3.49-1.43,1.59-2.53,3.46-3.22,5.48-.76,2.23-1.13,4.58-1.11,6.93,0,5.3,1.5,9.45,4.5,12.56,2.83,2.92,6.76,4.45,11.75,4.61h.87c2.13.01,4.24-.33,6.25-1.01,1.62-.52,3.15-1.3,4.51-2.31,1.06-.81,1.97-1.81,2.68-2.95.53-.8.84-1.72.9-2.68.05-.76-.24-1.5-.8-2.01l.03.06Zm-19.63-15.63c1.32-1.43,3.21-2.22,5.16-2.15,1.99-.08,3.91.69,5.29,2.13,1.34,1.39,2.09,3.66,2.31,6.56h-15.2c.27-2.85,1.09-5.08,2.45-6.53h-.01Zm-15.1-18.95c-.74-.83-1.82-1.28-2.94-1.23-1.14-.06-2.24.44-2.94,1.34-.91,1.06-1.15,2.26-1.15,3.98v12.4c-1.29-1.57-2.85-2.88-4.62-3.88-1.14-.56-2.37-.92-3.63-1.09-.83-.11-1.67-.17-2.51-.17-3.88-.13-7.6,1.49-10.14,4.42-2.53,2.95-3.81,7.05-3.81,12.31-.01,2.35.31,4.68.96,6.94.6,2.02,1.56,3.91,2.86,5.58,1.21,1.53,2.73,2.77,4.47,3.65,1.74.86,3.65,1.3,5.58,1.28.88,0,1.75-.07,2.61-.24.54-.09,1.07-.21,1.58-.38,1.27-.44,2.46-1.07,3.55-1.86,1.22-.94,2.35-2,3.35-3.16v.81c-.08,1.29.32,2.57,1.12,3.58,1.47,1.59,3.95,1.7,5.54.23.01-.01.03-.03.04-.04l.16-.15c.8-1.03,1.19-2.33,1.09-3.63V23.26c.04-1.29-.37-2.56-1.17-3.58Zm-8.3,34.34c-.62,1.42-1.64,2.64-2.94,3.49-1.2.76-2.6,1.16-4.02,1.14-1.43,0-2.83-.41-4.02-1.2-1.3-.89-2.31-2.14-2.91-3.59-.76-1.85-1.12-3.84-1.06-5.84-.04-1.94.29-3.87.98-5.68.57-1.5,1.55-2.81,2.84-3.77,1.19-.89,2.63-1.36,4.12-1.34h.11c1.41.03,2.78.5,3.91,1.34,1.32.92,2.34,2.2,2.97,3.68.77,1.84,1.14,3.82,1.09,5.82.07,2.05-.29,4.09-1.05,5.99v-.03Zm-70.67,5.92v-20.11c.56.06,1.13.09,1.69.09,2.6,0,5.15-.7,7.37-2.05v22.06c0,1.88-.34,3.28-1.19,4.18-.86.94-2.08,1.45-3.35,1.39-1.22.05-2.41-.44-3.24-1.34-.84-.93-1.29-2.32-1.29-4.18v-.03Zm-.08-48.13c5.66-2.06,12.13-1.96,16.98,2.25,1.02.85,1.82,1.94,2.33,3.16.49,1.58-1.72-.16-2.01-.38-1.53-1.05-3.18-1.89-4.93-2.51-9.53-2.95-18.54,2.37-24.14,10.65-2.26,3.65-3.99,7.61-5.12,11.75-.11.51-.27,1-.49,1.47-.24.47-.11-1.25-.11-1.34.21-1.73.54-3.45.99-5.14C3.57,22.74,9.3,15.22,17.53,11.8h0Zm7.37,22.32c-3.4,1.74-7.57.4-9.31-3-1.74-3.4-.4-7.57,3-9.31,3.4-1.74,7.57-.4,9.31,3,0,0,0,0,0,0v.06c1.73,3.39.38,7.53-3.01,9.26,0,0,0,0,0,0h.02Zm14.55,1.76v1.05c1.28-1.77,2.92-3.23,4.83-4.3,1.88-.92,3.94-1.38,6.03-1.34,2.05-.03,4.08.46,5.89,1.43,1.69.91,3.04,2.33,3.87,4.06.57,1.04.93,2.18,1.08,3.35.18,1.5.26,3.01.24,4.52v15.5c.09,1.35-.32,2.69-1.15,3.76-1.55,1.67-4.15,1.76-5.82.22-.07-.07-.15-.14-.22-.22-.83-1.07-1.23-2.41-1.13-3.77v-13.88c0-2.79-.41-4.89-1.17-6.34s-2.31-2.19-4.57-2.19c-1.45,0-2.86.48-4.02,1.34-1.25.93-2.18,2.21-2.68,3.68-.4,1.25-.64,3.55-.64,6.98v10.42c0,1.71-.36,2.95-1.15,3.81-.78.84-1.88,1.31-3.03,1.27-1.15.04-2.25-.46-2.99-1.34-.84-1.07-1.26-2.41-1.17-3.77v-24.13c0-1.6.35-2.79,1.05-3.55.72-.8,1.76-1.22,2.83-1.17.69-.01,1.37.17,1.97.52.62.37,1.12.91,1.43,1.57.37.79.55,1.66.52,2.54l-.02-.04Z" style="fill-rule:evenodd; stroke-width:0px;"/></svg>