<svg id="Camada_1" data-name="Camada 1" xmlns="http://www.w3.org/2000/svg" viewBox="0 0 300 120"><defs><style>.cls-1{fill-rule:evenodd;}</style></defs><title>download</title><path class="cls-1" d="M298.2,32.5a5.42,5.42,0,0,0-4.39-1.83,5.2,5.2,0,0,0-4.39,2,9.44,9.44,0,0,0-1.55,5.82V57.05a25.38,25.38,0,0,0-7.28-5.74,17.35,17.35,0,0,0-5.41-1.62,26.06,26.06,0,0,0-3.75-.25A19.15,19.15,0,0,0,256.33,56c-3.82,4.4-5.74,10.5-5.74,18.37a35.28,35.28,0,0,0,1.51,10.35,24.91,24.91,0,0,0,4.23,8.32A19.9,19.9,0,0,0,263,98.5a18.57,18.57,0,0,0,8.32,1.92,19.6,19.6,0,0,0,3.9-.37,13.75,13.75,0,0,0,2.36-.57,19.89,19.89,0,0,0,5.33-2.77,31,31,0,0,0,5-4.72v1.22a7.88,7.88,0,0,0,1.67,5.34,5.88,5.88,0,0,0,8.32.29l.22-.21A7.77,7.77,0,0,0,300,93.25V37.78a8.05,8.05,0,0,0-1.79-5.28ZM285.56,83.71a12,12,0,0,1-4.35,5.2,11.19,11.19,0,0,1-6,1.71,10.94,10.94,0,0,1-6-1.79,12.28,12.28,0,0,1-4.35-5.37,21.3,21.3,0,0,1-1.58-8.71,21.74,21.74,0,0,1,1.5-8.47,12.52,12.52,0,0,1,4.17-5.62,10.06,10.06,0,0,1,6.18-1.95h.12a10.3,10.3,0,0,1,6,1.91,13.09,13.09,0,0,1,4.39,5.49,20.62,20.62,0,0,1,1.63,8.63A21.26,21.26,0,0,1,285.56,83.71Zm-39.43.53a4.59,4.59,0,0,0-3.12-1,4.17,4.17,0,0,0-2.73.81q-2.37,2.2-3.82,3.5a34.92,34.92,0,0,1-3.25,2.4,12.47,12.47,0,0,1-3.58,1.63,14.28,14.28,0,0,1-4.11.53,4.92,4.92,0,0,1-.94,0,11,11,0,0,1-5.2-1.63,12.07,12.07,0,0,1-4.47-4.85,17.81,17.81,0,0,1-1.72-7.73h24.49c3.3,0,5.88-.35,7.67-1.25s2.73-3,2.73-6.15a21.32,21.32,0,0,0-2.65-10,20.43,20.43,0,0,0-7.89-8,24.21,24.21,0,0,0-12.61-3.12h-.37a28.42,28.42,0,0,0-9.91,1.82,22,22,0,0,0-7.85,5.2,23.46,23.46,0,0,0-4.8,8.18,31.62,31.62,0,0,0-1.66,10.34c0,7.9,2.24,14.09,6.71,18.73,4.22,4.36,10.08,6.64,17.52,6.88h1.3A28.66,28.66,0,0,0,235.24,99,23.25,23.25,0,0,0,242,95.55a16.74,16.74,0,0,0,4-4.4,8.21,8.21,0,0,0,1.34-4,3.72,3.72,0,0,0-1.22-3ZM216.85,60.93a10,10,0,0,1,7.69-3.21,10.36,10.36,0,0,1,7.89,3.17c2,2.08,3.12,5.46,3.45,9.78H213.19C213.61,66.42,214.82,63.09,216.85,60.93ZM195.92,84.24a4.61,4.61,0,0,0-3.12-1,4.17,4.17,0,0,0-2.73.81q-2.37,2.2-3.82,3.5a36.3,36.3,0,0,1-3.25,2.4,12.59,12.59,0,0,1-3.58,1.63,14.32,14.32,0,0,1-4.11.53,4.92,4.92,0,0,1-.94,0,11,11,0,0,1-5.2-1.63,12,12,0,0,1-4.48-4.85,18,18,0,0,1-1.7-7.73h24.49c3.3,0,5.88-.35,7.67-1.25s2.72-3,2.72-6.15a21.19,21.19,0,0,0-2.64-10,20.42,20.42,0,0,0-7.89-8,24.18,24.18,0,0,0-12.61-3.12h-.36a28.54,28.54,0,0,0-9.93,1.79,22,22,0,0,0-7.84,5.2,23.46,23.46,0,0,0-4.8,8.18,31.36,31.36,0,0,0-1.66,10.34c0,7.9,2.24,14.09,6.71,18.73,4.22,4.36,10.08,6.64,17.52,6.88h1.3A28.56,28.56,0,0,0,185,99a23.07,23.07,0,0,0,6.73-3.45,16.54,16.54,0,0,0,4-4.4,8,8,0,0,0,1.34-4,3.7,3.7,0,0,0-1.2-3ZM166.64,60.93a10,10,0,0,1,7.69-3.21,10.36,10.36,0,0,1,7.89,3.17c2,2.08,3.12,5.46,3.45,9.78H163c.4-4.25,1.62-7.58,3.66-9.74ZM144.11,32.66a5.49,5.49,0,0,0-4.38-1.83,5.23,5.23,0,0,0-4.39,2c-1.36,1.58-1.71,3.37-1.71,5.93v18.5a24.59,24.59,0,0,0-6.89-5.79,17.72,17.72,0,0,0-5.41-1.63,27.57,27.57,0,0,0-3.75-.25,19.16,19.16,0,0,0-15.13,6.6c-3.77,4.4-5.69,10.51-5.69,18.36A36.63,36.63,0,0,0,98.19,84.9a25.17,25.17,0,0,0,4.26,8.32,20,20,0,0,0,6.67,5.45,18.5,18.5,0,0,0,8.33,1.91,19.66,19.66,0,0,0,3.9-.36,15.91,15.91,0,0,0,2.36-.57A20.18,20.18,0,0,0,129,96.88a33.35,33.35,0,0,0,5-4.72v1.21a7.79,7.79,0,0,0,1.67,5.34A5.85,5.85,0,0,0,144,99l.24-.23a7.86,7.86,0,0,0,1.62-5.41V38A8.21,8.21,0,0,0,144.11,32.66ZM131.73,83.88a11.88,11.88,0,0,1-4.39,5.2,11,11,0,0,1-6,1.7,10.78,10.78,0,0,1-6-1.79A12,12,0,0,1,111,83.63a21.33,21.33,0,0,1-1.58-8.71,22.46,22.46,0,0,1,1.46-8.47,12.54,12.54,0,0,1,4.23-5.62,10,10,0,0,1,6.14-2h.16a10.18,10.18,0,0,1,5.83,2,12.79,12.79,0,0,1,4.43,5.49A21.26,21.26,0,0,1,133.3,75a21.86,21.86,0,0,1-1.57,8.93ZM26.32,92.71v-30a23.77,23.77,0,0,0,2.52.13,21.16,21.16,0,0,0,11-3.06v32.9c0,2.81-.51,4.89-1.78,6.24a6.39,6.39,0,0,1-5,2.08A6.21,6.21,0,0,1,28.23,99c-1.26-1.38-1.92-3.46-1.92-6.24ZM26.2,20.92c8.45-3.08,18.1-2.92,25.33,3.36A12.16,12.16,0,0,1,55,29c.73,2.36-2.56-.24-3-.57a32.25,32.25,0,0,0-7.35-3.75C30.43,20.28,17,28.22,8.64,40.56A66.7,66.7,0,0,0,1,58.09a10,10,0,0,1-.73,2.2c-.36.7-.17-1.87-.17-2a55.65,55.65,0,0,1,1.47-7.66C5.38,37.22,13.92,26,26.2,20.9Zm11,33.29a10.32,10.32,0,1,1,4.47-13.89l0,.09a10.27,10.27,0,0,1-4.5,13.82h0Zm21.71,2.63v1.57A22.29,22.29,0,0,1,66.11,52a19.5,19.5,0,0,1,9-2,18.06,18.06,0,0,1,8.79,2.14,13.55,13.55,0,0,1,5.78,6.06,14.09,14.09,0,0,1,1.61,5,50.66,50.66,0,0,1,.36,6.74V93.06a8.21,8.21,0,0,1-1.72,5.61,6.14,6.14,0,0,1-9,0,8.18,8.18,0,0,1-1.69-5.62V72.35c0-4.16-.61-7.29-1.74-9.46s-3.44-3.27-6.82-3.27a10.19,10.19,0,0,0-6,2,11.41,11.41,0,0,0-4,5.49c-.6,1.87-.95,5.3-.95,10.41V93.06c0,2.55-.54,4.4-1.71,5.69a5.91,5.91,0,0,1-4.52,1.9,5.57,5.57,0,0,1-4.46-2,8.14,8.14,0,0,1-1.74-5.62v-36c0-2.38.52-4.16,1.57-5.29A5.3,5.3,0,0,1,53.09,50a5.62,5.62,0,0,1,2.94.77,5.44,5.44,0,0,1,2.14,2.34,8.24,8.24,0,0,1,.77,3.79Z"/></svg>