<svg width="32" height="32" viewBox="0 0 0.96 0.96" xmlns="http://www.w3.org/2000/svg">
  <path d="M.593.412A.12.12 0 1 1 .646.251a.12.12 0 0 1-.053.162zM.464.022C.563-.012.676-.01.76.063a.143.143 0 0 1 .041.055C.81.145.771.114.766.11A.376.376 0 0 0 .68.066C.514.016.356.108.26.253a.78.78 0 0 0-.09.205.117.117 0 0 1-.009.025C.156.492.158.461.158.46A.633.633 0 0 1 .175.37.52.52 0 0 1 .464.024zm.002.84v-.35a.29.29 0 0 0 .029.002.247.247 0 0 0 .129-.036v.385C.624.895.618.92.603.936A.075.075 0 0 1 .545.96.073.073 0 0 1 .488.936C.473.919.465.896.465.863z" style="stroke-width:.0399983"/>
</svg>