<svg xml:space="preserve" width="32" height="32" xmlns="http://www.w3.org/2000/svg">
  <defs>
    <clipPath clipPathUnits="userSpaceOnUse" id="a">
      <path class="powerclip" d="M257.6 33.7H305v52.7h-47.4zm23.7 37.8c6.2 0 7.1-4.3 7.1-11.1s-.9-11-7.1-11c-6.2 0-7.1 4.1-7.1 11s.8 11.1 7.1 11.1z"/>
    </clipPath>
  </defs>
  <g style="fill:#000">
    <path d="M281.3 38.7c-15.9 0-18.7 10.2-18.7 21.4s2.8 21.3 18.7 21.3c15.9 0 18.7-10.2 18.7-21.4s-2.8-21.3-18.7-21.3z" clip-path="url(#a)" style="fill:#000" transform="matrix(.4216 0 0 .4216 -94.482 -9.274)"/>
    <path d="M240.7 64.8h7.4v.7c0 4.6.1 6.6-5.5 6.6-5.3 0-7-2.4-7-11.8 0-9.8 3-11 7.5-11 2.7 0 5.3.6 7.7 1.9l6.1-9.3c-4-2.3-8.6-3.5-13.3-3.4-14.8 0-19.5 6.9-19.5 21.4 0 12.6 3.5 21.3 17.5 21.3 2.2 0 4.3-.1 6.4-.5h10.5v-25H242l-1.3 9.1" style="fill:#000" transform="matrix(.4216 0 0 .4216 -94.482 -9.274)"/>
  </g>
</svg>