<?xml version="1.0" encoding="utf-8"?>
<!-- Generator: Adobe Illustrator 23.0.6, SVG Export Plug-In . SVG Version: 6.00 Build 0)  -->
<svg version="1.1" id="IGG_Logo" xmlns="http://www.w3.org/2000/svg" xmlns:xlink="http://www.w3.org/1999/xlink" x="0px" y="0px"
	 viewBox="0 0 300 120" style="enable-background:new 0 0 300 120;" xml:space="preserve">
<title>indiegogo</title>
<path d="M11.4,39.2v41.7H0V39.2H11.4z M40.6,58.5L29,39.2H17v41.7h10.9V59.2h0.2l13.1,21.7h10.5V39.2H40.8v19.3H40.6 M80,60
	c0,10.5-3,11.2-7.3,11.2h-4V49.3h3.5C77,49.3,80,49.6,80,60L80,60z M57.3,39.2v41.7h14.3c13.5,0,19.9-3.3,19.9-20.9
	c0-17.2-6.5-20.8-20.1-20.8L57.3,39.2z M95.7,39.2h11.4v41.7H95.7V39.2z M141.1,49.3V39.2h-28.3v41.7h28.4v-9.9H124v-6.2h11.3
	l1.4-9.9H124v-5.5H141.1 M160.8,64.8h7.4v0.7c0,4.6,0.1,6.6-5.5,6.6c-5.2,0-7-2.4-7-11.8c0-9.8,3-11,7.5-11c2.7,0,5.3,0.6,7.7,1.9
	l6.1-9.3c-4-2.3-8.6-3.5-13.3-3.4c-14.8,0-19.5,6.9-19.5,21.4c0,12.6,3.5,21.3,17.5,21.3c2.2,0,4.3-0.1,6.4-0.5h10.5V55.7H162
	L160.8,64.8 M201.3,71.5c-6.3,0-7.1-4.2-7.1-11.1s0.9-11,7.1-11s7.1,4.2,7.1,11S207.6,71.5,201.3,71.5L201.3,71.5z M201.3,38.7
	c-15.9,0-18.7,10.2-18.7,21.4s2.8,21.3,18.7,21.3S220,71.2,220,60S217.3,38.7,201.3,38.7L201.3,38.7z M240.7,64.8h7.4v0.7
	c0,4.6,0.1,6.6-5.5,6.6c-5.3,0-7-2.4-7-11.8c0-9.8,3-11,7.5-11c2.7,0,5.3,0.6,7.7,1.9l6.1-9.3c-4-2.3-8.6-3.5-13.3-3.4
	c-14.8,0-19.5,6.9-19.5,21.4c0,12.6,3.5,21.3,17.5,21.3c2.2,0,4.3-0.1,6.4-0.5h10.5V55.7H242L240.7,64.8 M281.3,71.5
	c-6.3,0-7.1-4.2-7.1-11.1s0.9-11,7.1-11s7.1,4.2,7.1,11S287.5,71.5,281.3,71.5L281.3,71.5z M281.3,38.7c-15.9,0-18.7,10.2-18.7,21.4
	s2.8,21.3,18.7,21.3S300,71.2,300,60S297.2,38.7,281.3,38.7L281.3,38.7z"/>
</svg>
