<?xml version="1.0" encoding="UTF-8" standalone="no"?>
<!-- Generator: Adobe Illustrator 23.0.6, SVG Export Plug-In . SVG Version: 6.00 Build 0)  -->

<svg version="1.1" id="IGG_Logo" x="0px" y="0px" viewBox="0 0 32 32" xml:space="preserve" sodipodi:docname="indiegogo.svg" width="32" height="32" inkscape:version="1.4-beta2 (9aaf4f34, 2024-07-30)" xmlns:inkscape="http://www.inkscape.org/namespaces/inkscape" xmlns:sodipodi="http://sodipodi.sourceforge.net/DTD/sodipodi-0.dtd" xmlns="http://www.w3.org/2000/svg" xmlns:svg="http://www.w3.org/2000/svg" xmlns:rdf="http://www.w3.org/1999/02/22-rdf-syntax-ns#" xmlns:cc="http://creativecommons.org/ns#" xmlns:dc="http://purl.org/dc/elements/1.1/"><defs id="defs1"><inkscape:path-effect effect="powerclip" message="" id="path-effect13" is_visible="true" lpeversion="1" inverse="true" flatten="false" hide_clip="false" /><clipPath clipPathUnits="userSpaceOnUse" id="clipPath12"><path d="m 281.3,71.5 c -6.3,0 -7.1,-4.2 -7.1,-11.1 0,-6.9 0.9,-11 7.1,-11 6.2,0 7.1,4.2 7.1,11 0,6.8 -0.9,11.1 -7.1,11.1 z" id="path13" style="display:none" /><path id="lpe_path-effect13" class="powerclip" d="M 257.6,33.7 H 305 v 52.7 h -47.4 z m 23.7,37.8 c 6.2,0 7.1,-4.3 7.1,-11.1 0,-6.8 -0.9,-11 -7.1,-11 -6.2,0 -7.1,4.1 -7.1,11 0,6.9 0.8,11.1 7.1,11.1 z" /></clipPath></defs><sodipodi:namedview id="namedview1" pagecolor="#ffffff" bordercolor="#000000" borderopacity="0.25" inkscape:showpageshadow="2" inkscape:pageopacity="0.0" inkscape:pagecheckerboard="0" inkscape:deskcolor="#d1d1d1" inkscape:zoom="8.3661375" inkscape:cx="15.89742" inkscape:cy="23.84613" inkscape:window-width="1440" inkscape:window-height="872" inkscape:window-x="0" inkscape:window-y="0" inkscape:window-maximized="1" inkscape:current-layer="IGG_Logo" />
<title id="title1">indiegogo</title>
<g id="g14" transform="matrix(0.42160738,0,0,0.42160738,-94.482214,-9.2741438)" style="fill:#000000"><path d="m 281.3,38.7 c -15.9,0 -18.7,10.2 -18.7,21.4 0,11.2 2.8,21.3 18.7,21.3 15.9,0 18.7,-10.2 18.7,-21.4 0,-11.2 -2.8,-21.3 -18.7,-21.3 z" id="path12" clip-path="url(#clipPath12)" inkscape:path-effect="#path-effect13" inkscape:original-d="m 281.3,38.7 c -15.9,0 -18.7,10.2 -18.7,21.4 0,11.2 2.8,21.3 18.7,21.3 15.9,0 18.7,-10.2 18.7,-21.4 0,-11.2 -2.8,-21.3 -18.7,-21.3 z" style="fill:#000000" /><path d="m 240.7,64.8 h 7.4 v 0.7 c 0,4.6 0.1,6.6 -5.5,6.6 -5.3,0 -7,-2.4 -7,-11.8 0,-9.8 3,-11 7.5,-11 2.7,0 5.3,0.6 7.7,1.9 l 6.1,-9.3 c -4,-2.3 -8.6,-3.5 -13.3,-3.4 -14.8,0 -19.5,6.9 -19.5,21.4 0,12.6 3.5,21.3 17.5,21.3 2.2,0 4.3,-0.1 6.4,-0.5 h 10.5 v -25 H 242 l -1.3,9.1" id="path10" style="fill:#000000" /></g>
<metadata id="metadata1"><rdf:RDF><cc:Work rdf:about=""><dc:title>indiegogo</dc:title></cc:Work></rdf:RDF></metadata></svg>
