<svg width="32" height="32" version="1.1" id="svg3" sodipodi:docname="infojobs.svg" inkscape:version="1.4-beta2 (9aaf4f34, 2024-07-30)" xmlns:inkscape="http://www.inkscape.org/namespaces/inkscape" xmlns:sodipodi="http://sodipodi.sourceforge.net/DTD/sodipodi-0.dtd" xmlns="http://www.w3.org/2000/svg" xmlns:svg="http://www.w3.org/2000/svg">
  <defs id="defs3">
    <inkscape:path-effect effect="powerclip" message="" id="path-effect8" is_visible="true" lpeversion="1" inverse="true" flatten="false" hide_clip="false" />
    <clipPath clipPathUnits="userSpaceOnUse" id="clipPath7">
      <g id="g8" style="display:none">
        <path fill="#ffffff" d="m 607.12719,1293.8108 v -212.767 h -35.462 v 212.767 z m 56.852,-169.03 c 5.716,0 10.395,-1.724 14.037,-5.171 3.642,-3.447 5.469,-7.736 5.469,-12.857 0,-5.121 -1.821,-9.409 -5.469,-12.856 -3.648,-3.447 -8.321,-5.172 -14.037,-5.172 -5.91,0 -10.636,1.724 -14.182,5.172 -3.546,3.448 -5.319,7.736 -5.319,12.856 0,5.12 1.774,9.409 5.319,12.857 3.545,3.448 8.272,5.171 14.182,5.171 z m -26.592,234.044 c 17.141,-7.685 28.715,-16.848 34.719,-27.488 6.013,-10.636 9.019,-23.836 9.019,-39.597 v -145.687 h -33.395 v 145.687 c 0,13.005 -1.478,22.512 -4.433,28.52 -2.955,6.008 -9.455,12.165 -19.501,18.466 z" id="path7" style="fill:#000000" />
        <path fill="#ff6f00" d="m 577.83819,1375.3668 c 0,0 -5.473,-1.324 -5.808,4.705 -0.34,6.029 2.441,8.355 2.441,8.355 55.778,38.791 153.163,5.817 181.874,-37.351 0.883,-1.329 1.214,-2.416 0.552,-3.197 -0.942,-0.748 -2.297,-0.047 -4.229,1.324 -33.568,25.527 -110.177,51.245 -174.83,26.164 z" id="path8" style="fill:#000000" />
      </g>
      <path id="lpe_path-effect8" class="powerclip" d="m 375.47919,988.90482 h 510 v 509.99998 h -510 z m 231.648,304.90598 v -212.767 h -35.462 v 212.767 z m 56.852,-169.03 c 5.716,0 10.395,-1.724 14.037,-5.171 3.642,-3.447 5.469,-7.736 5.469,-12.857 0,-5.121 -1.821,-9.409 -5.469,-12.856 -3.648,-3.447 -8.321,-5.172 -14.037,-5.172 -5.91,0 -10.636,1.724 -14.182,5.172 -3.546,3.448 -5.319,7.736 -5.319,12.856 0,5.12 1.774,9.409 5.319,12.857 3.545,3.448 8.272,5.171 14.182,5.171 z m -26.592,234.044 c 17.141,-7.685 28.715,-16.848 34.719,-27.488 6.013,-10.636 9.019,-23.836 9.019,-39.597 v -145.687 h -33.395 v 145.687 c 0,13.005 -1.478,22.512 -4.433,28.52 -2.955,6.008 -9.455,12.165 -19.501,18.466 z m -59.549,16.542 c 0,0 -5.473,-1.324 -5.808,4.705 -0.34,6.029 2.441,8.355 2.441,8.355 55.778,38.791 153.163,5.817 181.874,-37.351 0.883,-1.329 1.214,-2.416 0.552,-3.197 -0.942,-0.748 -2.297,-0.047 -4.229,1.324 -33.568,25.527 -110.177,51.245 -174.83,26.164 z" />
    </clipPath>
  </defs>
  <sodipodi:namedview id="namedview3" pagecolor="#ffffff" bordercolor="#000000" borderopacity="0.25" inkscape:showpageshadow="2" inkscape:pageopacity="0.0" inkscape:pagecheckerboard="0" inkscape:deskcolor="#d1d1d1" inkscape:zoom="3.9357765" inkscape:cx="12.958053" inkscape:cy="25.789066" inkscape:window-width="1440" inkscape:window-height="790" inkscape:window-x="0" inkscape:window-y="0" inkscape:window-maximized="1" inkscape:current-layer="svg3">
    <inkscape:page x="0" y="0" width="32" height="32" id="page2" margin="0" bleed="0" />
  </sodipodi:namedview>
  <path fill="#0d3878" d="m 880.47919,1373.9068 c 0,66.27 -53.727,119.998 -119.998,119.998 h -260.003 c -66.271,0 -119.999,-53.728 -119.999,-119.998 v -260.003 c 0,-66.271 53.728,-119.99898 119.999,-119.99898 h 260.003 c 66.271,0 119.998,53.72798 119.998,119.99898 z" id="path1" clip-path="url(#clipPath7)" inkscape:path-effect="#path-effect8" inkscape:original-d="m 880.47919,1373.9068 c 0,66.27 -53.727,119.998 -119.998,119.998 h -260.003 c -66.271,0 -119.999,-53.728 -119.999,-119.998 v -260.003 c 0,-66.271 53.728,-119.99898 119.999,-119.99898 h 260.003 c 66.271,0 119.998,53.72798 119.998,119.99898 z" style="fill:#000000" transform="matrix(0.064,0,0,0.064,-24.350668,-63.609908)" />
</svg>
