<?xml version="1.0" encoding="UTF-8"?><svg id="a" xmlns="http://www.w3.org/2000/svg" viewBox="0 0 160 80"><defs><style>.b{stroke-width:0px;}</style></defs><rect class="b" x="0" y="19.24" width="6.27" height="37.61"/><path class="b" d="m98.52,57.36c3.94,0,6.92-1.18,8.96-3.55s3.06-5.71,3.06-10.03-1.02-7.66-3.06-10.03c-2.04-2.37-5.02-3.55-8.96-3.55v.02c-3.9-.02-6.87,1.16-8.91,3.56-2.04,2.4-3.06,5.73-3.06,10,.01,4.28,1.03,7.62,3.06,10.01,2.03,2.39,5,3.58,8.91,3.58Zm-4.54-20.72c.9-1.62,2.41-2.43,4.54-2.43h0c2.12,0,3.64.8,4.54,2.41.91,1.61,1.36,4.02,1.36,7.16s-.44,5.51-1.33,7.13c-.89,1.62-2.41,2.43-4.57,2.43s-3.68-.82-4.57-2.44c-.89-1.62-1.33-4-1.33-7.13s.46-5.52,1.36-7.13Z"/><path class="b" d="m82.77,26.06c.64-.58.99-1.41.97-2.27.01-.87-.35-1.69-.99-2.27-.67-.62-1.56-.95-2.48-.92-.93-.05-1.84.28-2.52.92-.62.59-.96,1.42-.94,2.27-.01.86.34,1.69.98,2.27,1.44,1.22,3.55,1.22,4.99,0Z"/><path class="b" d="m117.68,55.08l.11.07c2.25,1.51,4.92,2.29,7.63,2.23,3.62,0,6.45-1.2,8.49-3.58,2.04-2.38,3.06-5.72,3.06-10.01s-.83-7.53-2.49-9.95c-1.51-2.35-4.14-3.73-6.93-3.63-1.61-.01-3.2.4-4.6,1.21l-1.6,1.23v2.9c1.09-.64,2.32-.99,3.58-1.04,1.75-.1,3.43.74,4.41,2.19,1,1.46,1.49,3.83,1.49,7.1,0,3.21-.47,5.66-1.41,7.34-.94,1.69-2.52,2.53-4.75,2.53-1.73,0-3.43-.48-4.91-1.36V19.23l-5.87.02v37.87h2.13l1.67-2.04Z"/><path class="b" d="m147.74,53.07c-3.08-.03-6.1-.78-8.83-2.2l.58,4.65c2.77,1.23,5.76,1.86,8.79,1.85,2.84,0,5.19-.72,7.02-2.17,1.81-1.4,2.83-3.58,2.74-5.87.04-1.5-.43-2.98-1.33-4.18-.86-1.12-1.98-2.01-3.27-2.59-1.26-.53-2.54-1.07-3.84-1.54-1.14-.39-2.23-.93-3.24-1.6-.8-.46-1.3-1.3-1.33-2.22-.02-.77.34-1.49.94-1.96.83-.57,1.83-.84,2.83-.76,2.25.03,4.47.51,6.53,1.41l.37-.21,1.25-3.97c-2.71-1.02-5.57-1.53-8.46-1.51-2.68,0-4.91.63-6.69,1.88-1.77,1.23-2.77,3.28-2.67,5.44-.04,1.5.42,2.97,1.31,4.18.84,1.12,1.94,2.02,3.2,2.61,1.27.59,2.53,1.12,3.79,1.6,1.13.42,2.21.98,3.2,1.67.79.48,1.28,1.33,1.31,2.25,0,.89-.39,1.73-1.07,2.3-.69.63-1.74.94-3.13.94Z"/><path class="b" d="m25.32,30.21c-1.9.02-3.77.53-5.43,1.46l-2.56,2.56h-.11l-.26-3.5h-5.66v26.14l5.9-.02v-19.91c2.16-1.32,4.09-1.98,5.8-1.98,2.49,0,3.74,1.31,3.77,3.92v17.97h5.95v-19.12c0-2.44-.69-4.3-2.06-5.59-1.46-1.32-3.37-2.01-5.33-1.93Z"/><path class="b" d="m81.7,63.49c1.07-1.88,1.6-4.21,1.6-7v-25.77l-5.91.02v25.88c0,2.22-.26,3.86-.78,4.92-.52,1.06-1.67,2.15-3.45,3.26l2.4,3.55.13-.06c2.94-1.32,4.94-2.92,6.01-4.8Z"/><path class="b" d="m70.98,33.74c-2.04-2.37-5.02-3.55-8.96-3.55v.03c-3.9-.01-6.87,1.18-8.91,3.58-2.04,2.4-3.06,5.73-3.06,10,.01,4.27,1.03,7.59,3.06,9.98,2.03,2.39,5,3.58,8.91,3.58s6.92-1.18,8.96-3.55c2.04-2.37,3.06-5.71,3.06-10.03s-1.02-7.66-3.06-10.03Zm-4.39,17.17c-.89,1.62-2.41,2.43-4.57,2.43-2.16,0-3.68-.8-4.57-2.42-.89-1.62-1.33-3.99-1.33-7.13.01-3.14.46-5.51,1.36-7.13.9-1.62,2.41-2.43,4.54-2.43h0c2.12-.01,3.64.79,4.54,2.39.91,1.6,1.36,3.99,1.36,7.16,0,3.13-.45,5.51-1.33,7.13Z"/><path class="b" d="m44.02,28.1c.03-2.85,1.19-4.27,3.5-4.27,1.06-.01,2.11.13,3.13.42l.31-.21v-4.8c-1.79-.02-3.58.09-5.35.34-1.39.22-2.73.67-3.97,1.33-1.24.66-2.2,1.73-2.72,3.03-.63,1.66-.92,3.42-.86,5.2v1.6l-2.93,1.67v2.51h2.93v21.94h5.95v-21.91h5.75v-4.18h-5.75v-2.67Z"/><path class="b" d="m159.52,61.06l-.12-.09c-.28-.16-.6-.24-.92-.23-1.15,0-2.44.87-3.34,1.29-11.2,5.23-23,9.06-35.13,11.41-11.61,2.21-23.6,3.41-35.41,2.53-1.6-.12-5.22-1.19-6,.99-.06.17-.08.35-.08.53,0,1.87,1.94,1.92,3.3,2.07,12.99,1.43,26.08-.9,38.81-3.32,12.5-2.38,25.51-6.25,36.76-12.32.66-.36,3.79-1.74,2.13-2.86Z"/></svg>