<svg id="Camada_1" data-name="Camada 1" xmlns="http://www.w3.org/2000/svg" xmlns:xlink="http://www.w3.org/1999/xlink" viewBox="0 0 300 120"><defs><style>.cls-1{fill:#fff;fill-rule:evenodd;}.cls-2{mask:url(#mask);}.cls-3{mask:url(#mask-2);}.cls-4{mask:url(#mask-3);}.cls-5{mask:url(#mask-4);}</style><mask id="mask" x="205.1" y="72.38" width="20.89" height="26.3" maskUnits="userSpaceOnUse"><g id="b"><path id="a" class="cls-1" d="M205.1,72.38H226v26.3H205.1Z"/></g></mask><mask id="mask-2" x="191.11" y="88.28" width="10.39" height="10.4" maskUnits="userSpaceOnUse"><g id="d"><path id="c" class="cls-1" d="M191.11,88.28h10.4v10.4h-10.4Z"/></g></mask><mask id="mask-3" x="1.34" y="55.62" width="21.55" height="43.06" maskUnits="userSpaceOnUse"><g id="f"><path id="e" class="cls-1" d="M1.34,55.62H22.9V98.68H1.34Z"/></g></mask><mask id="mask-4" x="33.22" y="44.49" width="54.61" height="54.19" maskUnits="userSpaceOnUse"><g id="h"><path id="g" class="cls-1" d="M33.22,44.49H87.83V98.68H33.22Z"/></g></mask></defs><title>info</title><g class="cls-2"><path d="M220.28,90A10.8,10.8,0,0,0,226,88v9a16.46,16.46,0,0,1-7.44,1.69c-8.19,0-13.45-5.61-13.45-13.15s5.26-13.15,13.45-13.15A15.81,15.81,0,0,1,225.84,74v9a9.8,9.8,0,0,0-5.56-1.93c-2.87,0-5,1.58-5,4.41s2,4.42,5,4.42"/></g><path d="M300,97.94H289.88V83.7c0-1.39-.75-2.24-1.84-2.24-2,0-3.17,1.49-3.17,3.72V97.94H274.74V83.7c0-1.39-.74-2.24-1.83-2.24-2,0-3.18,1.49-3.18,3.72V97.94H259.61V73.13h9.13l.3,2.23a2.83,2.83,0,0,1-.2,1.54h.1a8.85,8.85,0,0,1,7.44-4.52,7.68,7.68,0,0,1,7.3,4.22,10.14,10.14,0,0,1,7.83-4.22c4.92,0,8.49,3.18,8.49,10.07V97.94Z"/><g class="cls-3"><path d="M196.31,88.28a5.2,5.2,0,1,0,5.2,5.2,5.15,5.15,0,0,0-5.2-5.2"/></g><path d="M242.77,90.4a5,5,0,1,1,5-5,4.92,4.92,0,0,1-5,5m0-18.23c-8,0-13.76,5.65-13.76,13.25s5.75,13.26,13.76,13.26S256.53,93,256.53,85.42s-5.76-13.25-13.76-13.25m-230.65-45a12.12,12.12,0,0,0,0,24.24,12.12,12.12,0,0,0,0-24.24"/><path d="M162.55,81.28A10.48,10.48,0,1,1,173,70.8a10.37,10.37,0,0,1-10.48,10.48m0-38.37c-16.84,0-28.94,11.89-28.94,27.89s12.1,27.88,28.94,27.88,28.93-11.89,28.93-27.88-12.1-27.89-28.93-27.89"/><g class="cls-4"><path d="M22.9,98.68V56a21.67,21.67,0,0,1-21.56-.33V98.68Z"/></g><g class="cls-5"><path d="M87.83,98.68H66.37V69c0-3.27-1.79-5.26-4.42-5.26-4.53,0-7.26,3.36-7.26,8.41V98.68H33.22V46.07H52.58l.42,8c2.42-5,9.47-9.58,16.31-9.58,10.74,0,18.52,6.73,18.52,21.36Z"/></g><path d="M93.62,46.05h6.84V42.47c0-12.94,8.1-21.15,24.31-21.15a43.28,43.28,0,0,1,7.57.63V39.84A17.06,17.06,0,0,0,127,39.1c-4.21,0-7,2-7,6v.95h10.73V62.46h-9.68v36.2H99.62V62.46h-6Z"/></svg>