<?xml version="1.0" encoding="UTF-8" standalone="no"?>
<svg id="Camada_1" data-name="Camada 1" viewBox="0 0 32 32" version="1.1" sodipodi:docname="info.svg" width="32" height="32" inkscape:version="1.4-beta2 (9aaf4f34, 2024-07-30)" xmlns:inkscape="http://www.inkscape.org/namespaces/inkscape" xmlns:sodipodi="http://sodipodi.sourceforge.net/DTD/sodipodi-0.dtd" xmlns="http://www.w3.org/2000/svg" xmlns:svg="http://www.w3.org/2000/svg" xmlns:rdf="http://www.w3.org/1999/02/22-rdf-syntax-ns#" xmlns:cc="http://creativecommons.org/ns#" xmlns:dc="http://purl.org/dc/elements/1.1/">
  <sodipodi:namedview id="namedview8" pagecolor="#ffffff" bordercolor="#000000" borderopacity="0.25" inkscape:showpageshadow="2" inkscape:pageopacity="0.0" inkscape:pagecheckerboard="0" inkscape:deskcolor="#d1d1d1" inkscape:zoom="1.0680806" inkscape:cx="142.31136" inkscape:cy="110.94668" inkscape:window-width="1440" inkscape:window-height="790" inkscape:window-x="0" inkscape:window-y="0" inkscape:window-maximized="1" inkscape:current-layer="Camada_1" />
  <defs id="defs1">
    <style id="style1">.cls-1{fill:#fff;fill-rule:evenodd;}.cls-2{mask:url(#mask);}.cls-3{mask:url(#mask-2);}.cls-4{mask:url(#mask-3);}.cls-5{mask:url(#mask-4);}</style>
    <mask id="mask" x="205.1" y="72.38" width="20.89" height="26.3" maskUnits="userSpaceOnUse">
      <g id="b">
        <path id="a" class="cls-1" d="M 205.1,72.38 H 226 v 26.3 h -20.9 z" />
      </g>
    </mask>
    <mask id="mask-2" x="191.11" y="88.28" width="10.39" height="10.4" maskUnits="userSpaceOnUse">
      <g id="d">
        <path id="c" class="cls-1" d="m 191.11,88.28 h 10.4 v 10.4 h -10.4 z" />
      </g>
    </mask>
    <mask maskUnits="userSpaceOnUse" id="mask8">
      <g id="g10">
        <g id="g9">
          <path id="path9" class="cls-1" d="M 1.34,55.62 H 22.9 V 98.68 H 1.34 Z" />
        </g>
      </g>
    </mask>
    <mask maskUnits="userSpaceOnUse" id="mask11">
      <g id="g13">
        <g id="g12">
          <path id="path11" class="cls-1" d="M 33.22,44.49 H 87.83 V 98.68 H 33.22 Z" />
        </g>
      </g>
    </mask>
  </defs>
  <title id="title1">info</title>
  <g id="g17" transform="matrix(0.16714547,0,0,0.16714547,-1.2890201e-7,5.9713141)">
    <path d="m 12.12,27.17 a 12.12,12.12 0 0 0 0,24.24 12.12,12.12 0 0 0 0,-24.24" id="path16" />
    <path d="M 162.55,81.28 A 10.48,10.48 0 1 1 173,70.8 10.37,10.37 0 0 1 162.52,81.28 m 0,-38.37 c -16.84,0 -28.94,11.89 -28.94,27.89 0,16 12.1,27.88 28.94,27.88 16.84,0 28.93,-11.89 28.93,-27.88 0,-15.99 -12.1,-27.89 -28.93,-27.89" id="path5" />
    <path d="M 22.9,98.68 V 56 A 21.67,21.67 0 0 1 1.34,55.67 v 43.01 z" id="path6" />
    <path d="M 87.83,98.68 H 66.37 V 69 c 0,-3.27 -1.79,-5.26 -4.42,-5.26 -4.53,0 -7.26,3.36 -7.26,8.41 V 98.68 H 33.22 V 46.07 h 19.36 l 0.42,8 c 2.42,-5 9.47,-9.58 16.31,-9.58 10.74,0 18.52,6.73 18.52,21.36 z" id="path7" />
    <path d="m 93.62,46.05 h 6.84 v -3.58 c 0,-12.94 8.1,-21.15 24.31,-21.15 a 43.28,43.28 0 0 1 7.57,0.63 V 39.84 A 17.06,17.06 0 0 0 127,39.1 c -4.21,0 -7,2 -7,6 v 0.95 h 10.73 v 16.41 h -9.68 v 36.2 H 99.62 v -36.2 h -6 z" id="path8" />
  </g>
  <metadata id="metadata8">
    <rdf:RDF>
      <cc:Work rdf:about="">
        <dc:title>info</dc:title>
      </cc:Work>
    </rdf:RDF>
  </metadata>
</svg>
