<svg width="32" height="32" xmlns="http://www.w3.org/2000/svg"><defs><clipPath clipPathUnits="userSpaceOnUse" id="a"><path class="powerclip" d="M375.48 988.905h510v510h-510zm231.647 304.906v-212.767h-35.462v212.767zm56.852-169.03c5.716 0 10.395-1.724 14.037-5.171 3.642-3.447 5.47-7.736 5.47-12.857 0-5.121-1.822-9.41-5.47-12.856-3.648-3.447-8.32-5.172-14.037-5.172-5.91 0-10.636 1.724-14.182 5.172-3.546 3.448-5.319 7.736-5.319 12.856s1.774 9.409 5.32 12.857c3.544 3.448 8.271 5.17 14.181 5.17zm-26.592 234.044c17.141-7.685 28.715-16.848 34.72-27.488 6.012-10.636 9.018-23.836 9.018-39.597v-145.687H647.73v145.687c0 13.005-1.478 22.512-4.433 28.52-2.955 6.008-9.455 12.165-19.5 18.466zm-59.549 16.542s-5.473-1.324-5.808 4.705c-.34 6.029 2.441 8.355 2.441 8.355 55.778 38.79 153.163 5.817 181.874-37.351.883-1.33 1.214-2.416.552-3.197-.942-.748-2.297-.047-4.229 1.324-33.568 25.527-110.177 51.245-174.83 26.164z"/></clipPath></defs><path fill="#0d3878" d="M880.48 1373.907c0 66.27-53.728 119.998-119.999 119.998H500.478c-66.27 0-119.999-53.728-119.999-119.998v-260.003c0-66.271 53.728-120 120-120H760.48c66.271 0 119.998 53.729 119.998 120z" clip-path="url(#a)" style="fill:#000" transform="matrix(.064 0 0 .064 -24.35 -63.61)"/></svg>