<svg id="Camada_1" data-name="Camada 1" xmlns="http://www.w3.org/2000/svg" viewBox="0 0 300 120"><path d="M11.75,73.58V3.06H0V73.58Zm20.51,0V36.26q6.08-3.72,10.87-3.72,7,0,7.06,7.35V73.58H61.35V37.73q0-6.85-3.87-10.48a14.07,14.07,0,0,0-10-3.62,21.27,21.27,0,0,0-10.18,2.74l-4.8,4.8h-.2l-.49-6.56H21.19v49Zm123.91-49V72.9q0,7.83-3,13.12t-11.27,9l-.24.11-4.5-6.66q5-3.14,6.46-6.12t1.47-9.22V24.61Zm-39.9-1q11.07,0,16.8,6.66t5.73,18.8q0,12.15-5.73,18.81t-16.8,6.66q-11,0-16.7-6.71T93.84,49.09q0-12,5.73-18.75T116.27,23.63ZM95.57,3.06v9l-.59.39a20.69,20.69,0,0,0-5.87-.78c-4.34,0-6.52,2.65-6.57,8v5H93.32v7.83H82.54V73.58H71.38V32.44H65.89v-4.7l5.49-3.13v-3A25,25,0,0,1,73,11.87a11.14,11.14,0,0,1,5.1-5.68,23.69,23.69,0,0,1,7.44-2.5A66,66,0,0,1,95.57,3.06Zm20.7,28.11q-6,0-8.52,4.55T105.2,49.09q0,8.82,2.5,13.37T116.27,67q6.08,0,8.57-4.56t2.5-13.37q0-8.91-2.55-13.42t-8.52-4.5ZM150.49,5.6a6.46,6.46,0,0,1,4.65,1.72A5.62,5.62,0,0,1,157,11.58a5.62,5.62,0,0,1-1.82,4.26,7.25,7.25,0,0,1-9.35,0A5.67,5.67,0,0,1,144,11.58a5.67,5.67,0,0,1,1.76-4.26A6.42,6.42,0,0,1,150.49,5.6Zm34.22,18q11.07,0,16.8,6.66t5.73,18.8q0,12.15-5.73,18.81t-16.8,6.66q-11,0-16.7-6.71t-5.73-18.76q0-12,5.73-18.75T184.71,23.63Zm0,7.54c-4,0-6.83,1.52-8.52,4.55s-2.55,7.5-2.55,13.37.83,10.34,2.5,13.37S180.66,67,184.71,67s6.9-1.52,8.57-4.56,2.5-7.49,2.5-13.37-.85-10.41-2.55-13.42-4.54-4.5-8.52-4.5Zm39.8-28.11V25.2h0V40.13h0V65.06a18.14,18.14,0,0,0,9.21,2.55q6.27,0,8.91-4.75t2.65-13.77c0-6.13-.93-10.58-2.8-13.32a9.35,9.35,0,0,0-8.27-4.11,14.31,14.31,0,0,0-6.71,1.95V28.18l3-2.3a17,17,0,0,1,8.62-2.26,14.83,14.83,0,0,1,13,6.81q4.66,6.81,4.66,18.66,0,12.06-5.73,18.76t-15.92,6.71a24.67,24.67,0,0,1-14.3-4.18l-.2-.13-3.13,3.82h-4v-71ZM278,74.56q8,0,13.17-4.06a13.3,13.3,0,0,0,5.14-11,12.48,12.48,0,0,0-2.49-7.84,15.86,15.86,0,0,0-6.13-4.85c-2.36-1-4.76-2-7.2-2.89a26.21,26.21,0,0,1-6.07-3,5,5,0,0,1-2.5-4.16,4.5,4.5,0,0,1,1.77-3.67A8.29,8.29,0,0,1,279,31.66a31.42,31.42,0,0,1,12.24,2.64l.69-.39,2.35-7.44a44.53,44.53,0,0,0-15.87-2.84q-7.55,0-12.54,3.52a11.71,11.71,0,0,0-5,10.19,12.64,12.64,0,0,0,2.45,7.84,15.93,15.93,0,0,0,6,4.89q3.57,1.66,7.1,3a26.84,26.84,0,0,1,6,3.13,5.1,5.1,0,0,1,2.45,4.22,5.59,5.59,0,0,1-2,4.31q-1.95,1.76-5.87,1.76a36.66,36.66,0,0,1-16.56-4.12l1.08,8.72A40.1,40.1,0,0,0,278,74.56Z"/><path d="M225,104.68c-21.77,4.15-44.25,6.4-66.39,4.74-3-.23-9.78-2.23-11.25,1.85a2.89,2.89,0,0,0-.15,1c0,3.51,3.64,3.6,6.19,3.88,24.35,2.69,48.9-1.69,72.76-6.23,23.43-4.47,47.82-11.71,68.92-23.1,1.24-.67,7.11-3.26,4-5.36l-.23-.16a3.43,3.43,0,0,0-1.73-.44c-2.15,0-4.57,1.63-6.26,2.42A282.93,282.93,0,0,1,225,104.68Z"/></svg>