<?xml version="1.0" encoding="UTF-8" standalone="no"?>
<!-- Created with Vectornator (http://vectornator.io/) -->

<svg height="32" stroke-miterlimit="10" style="clip-rule:evenodd;fill-rule:nonzero;stroke-linecap:round;stroke-linejoin:round" version="1.1" viewBox="0 0 32 32" width="32" xml:space="preserve" id="svg18" sodipodi:docname="ingresso.svg" inkscape:version="1.4-beta2 (9aaf4f34, 2024-07-30)" xmlns:inkscape="http://www.inkscape.org/namespaces/inkscape" xmlns:sodipodi="http://sodipodi.sourceforge.net/DTD/sodipodi-0.dtd" xmlns="http://www.w3.org/2000/svg" xmlns:svg="http://www.w3.org/2000/svg"><sodipodi:namedview id="namedview18" pagecolor="#ffffff" bordercolor="#000000" borderopacity="0.25" inkscape:showpageshadow="2" inkscape:pageopacity="0.0" inkscape:pagecheckerboard="0" inkscape:deskcolor="#d1d1d1" inkscape:zoom="1.2660753" inkscape:cx="59.238184" inkscape:cy="-58.843263" inkscape:window-width="1440" inkscape:window-height="872" inkscape:window-x="0" inkscape:window-y="0" inkscape:window-maximized="1" inkscape:current-layer="svg18" />
<defs id="defs1" />

<clipPath id="ArtboardFrame">
<rect height="80" width="200" x="0" y="0" id="rect1" />
</clipPath>
<g clip-path="url(#ClipPath)" id="g17" style="clip-rule:evenodd;fill:#000000;fill-rule:nonzero;stroke-linecap:round;stroke-linejoin:round" transform="matrix(0.69049299,0,0,0.69049299,3.8353252,-7.7393907)">


<path d="m 4.61735,11.2085 c -2.56637,0 -4.62499757,2.0697 -4.62499757,4.625 v 37.0937 c -1.27e-6,2.5664 2.06972757,4.625 4.62499757,4.625 H 30.6174 c 2.5662,0 4.625,-2.0697 4.625,-4.625 V 15.8335 c 0,-2.5664 -2.0699,-4.625 -4.625,-4.625 z m 13.00005,4.8437 c 2.3499,0 4.25,1.9312 4.25,4.2813 0,2.35 -1.9001,4.25 -4.25,4.25 -2.3502,0 -4.25,-1.9001 -4.25,-4.25 0,-2.3501 1.8998,-4.2813 4.25,-4.2813 z m -3.7813,12.5313 h 7.5625 c 0.3223,0 0.5625,0.2403 0.5625,0.5625 v 22.9687 c 0,0.3222 -0.2402,0.5938 -0.5625,0.5938 h -4.0937 c -2.2443,0 -4.0313,-1.8183 -4.0313,-4.0625 h -0.0312 v -19.5 c 0,-0.3222 0.2715,-0.5625 0.5937,-0.5625 z" fill="#000000" fill-rule="nonzero" opacity="1" stroke="none" id="path16" style="fill:#000000" />
</g>
</svg>
