<svg xmlns="http://www.w3.org/2000/svg" viewBox="-0.010000001639127731 0.8299999237060547 15.99100112915039 15.996999740600586"><g fill="currentColor" clip-path="url(#a)"><path d="M7.99 2.27c2.137 0 2.39.01 3.231.048.781.034 1.203.165 1.485.275.372.143.64.318.918.596.282.282.454.547.597.92.11.28.24.705.275 1.484.038.843.047 1.096.047 3.23 0 2.138-.01 2.391-.047 3.232-.034.781-.165 1.203-.275 1.484-.143.372-.319.641-.597.92a2.46 2.46 0 0 1-.918.596c-.282.11-.707.24-1.485.275-.844.037-1.097.047-3.231.047-2.137 0-2.39-.01-3.231-.047-.781-.034-1.203-.166-1.485-.275a2.472 2.472 0 0 1-.918-.597 2.46 2.46 0 0 1-.597-.919c-.11-.28-.24-.706-.275-1.484-.038-.844-.047-1.097-.047-3.231 0-2.138.01-2.39.047-3.231.034-.782.165-1.204.275-1.485.144-.372.319-.64.597-.919a2.46 2.46 0 0 1 .918-.596c.282-.11.707-.241 1.485-.275.84-.038 1.094-.047 3.231-.047Zm0-1.44c-2.172 0-2.444.01-3.297.047-.85.037-1.434.175-1.94.372a3.905 3.905 0 0 0-1.42.925A3.92 3.92 0 0 0 .41 3.589C.212 4.1.074 4.68.037 5.53c-.038.856-.047 1.128-.047 3.3 0 2.172.01 2.444.047 3.297.037.85.175 1.434.372 1.94.206.529.478.976.925 1.42.444.443.89.718 1.415.921.51.197 1.091.334 1.941.372.853.037 1.125.047 3.297.047s2.444-.01 3.297-.047c.85-.038 1.434-.175 1.94-.372a3.91 3.91 0 0 0 1.416-.922 3.91 3.91 0 0 0 .922-1.415c.197-.51.334-1.091.372-1.941.037-.853.047-1.125.047-3.297s-.01-2.444-.047-3.297c-.038-.85-.175-1.434-.372-1.94a3.748 3.748 0 0 0-.916-1.422 3.911 3.911 0 0 0-1.415-.922C12.72 1.055 12.14.918 11.29.88c-.856-.04-1.128-.05-3.3-.05Z"></path><path d="M7.99 4.72a4.11 4.11 0 0 0 0 8.22 4.11 4.11 0 0 0 0-8.22Zm0 6.776a2.666 2.666 0 1 1 0-5.332 2.666 2.666 0 0 1 0 5.332ZM13.221 4.558a.96.96 0 1 1-1.919 0 .96.96 0 0 1 1.92 0Z"></path></g></svg>