<?xml version="1.0" encoding="UTF-8" standalone="no"?>
<!DOCTYPE svg PUBLIC "-//W3C//DTD SVG 1.1//EN" "http://www.w3.org/Graphics/SVG/1.1/DTD/svg11.dtd">
<!-- Created with Vectornator (http://vectornator.io/) -->
<svg height="100%" stroke-miterlimit="10" style="fill-rule:nonzero;clip-rule:evenodd;stroke-linecap:round;stroke-linejoin:round;" version="1.1" viewBox="0 0 80 80" width="100%" xml:space="preserve" xmlns="http://www.w3.org/2000/svg" xmlns:xlink="http://www.w3.org/1999/xlink">
<defs/>
<path d="M0 0L80 0L80 80L0 80L0 0Z" fill="#000000" fill-opacity="0" fill-rule="nonzero" opacity="1" stroke="none"/>
<clipPath id="ArtboardFrame">
<rect height="80" width="80" x="0" y="0"/>
</clipPath>
<g clip-path="url(#ArtboardFrame)" id="Sem-Título">
<path d="M23.434 0.279751C19.178 0.480552 16.2716 1.15975 13.7308 2.15816C11.1012 3.18296 8.87236 4.55817 6.65475 6.78377C4.43715 9.00938 3.07154 11.2398 2.05394 13.8734C1.06914 16.4198 0.401933 19.3286 0.213932 23.587C0.0259315 27.8454-0.0156687 29.2143 0.0051314 40.0767C0.0259315 50.9391 0.0739316 52.3007 0.280332 56.5679C0.483533 60.8232 1.16034 63.7288 2.15874 66.2704C3.18514 68.9 4.55875 71.128 6.78515 73.3464C9.01156 75.5648 11.2404 76.9272 13.8804 77.9464C16.4244 78.9296 19.334 79.6 23.5916 79.7864C27.8492 79.9728 29.2196 80.016 40.0789 79.9952C50.9381 79.9744 52.3053 79.9264 56.5717 79.724C60.8381 79.5216 63.7286 78.84 66.271 77.8464C68.9006 76.8176 71.1302 75.4464 73.347 73.2192C75.5638 70.992 76.9286 68.76 77.9454 66.1248C78.931 63.5808 79.6006 60.6712 79.7854 56.4167C79.9718 52.1471 80.0158 50.7839 79.995 39.9231C79.9742 29.0623 79.9254 27.7006 79.723 23.435C79.5206 19.1694 78.843 16.2726 77.8454 13.7294C76.8174 11.0998 75.4454 8.87338 73.2198 6.65337C70.9942 4.43337 68.7606 3.06936 66.1262 2.05496C63.5806 1.07015 60.6725 0.398952 56.4149 0.214951C52.1573 0.0309506 50.7869-0.0162496 39.9237 0.00455046C29.0604 0.0253505 27.7004 0.0717507 23.434 0.279751M23.9012 72.5904C20.0012 72.4208 17.8836 71.7728 16.4724 71.2304C14.6036 70.5104 13.2724 69.64 11.866 68.2472C10.4596 66.8544 9.59556 65.5184 8.86596 63.6536C8.31796 62.2424 7.65796 60.1272 7.47556 56.2271C7.27716 52.0119 7.23556 50.7463 7.21236 40.0671C7.18916 29.3879 7.22996 28.1238 7.41476 23.907C7.58116 20.0102 8.23316 17.8902 8.77476 16.4798C9.49476 14.6086 10.362 13.2798 11.758 11.8742C13.154 10.4686 14.486 9.60298 16.3524 8.87338C17.762 8.32298 19.8772 7.66858 23.7756 7.48298C27.994 7.28298 29.258 7.24298 39.9357 7.21978C50.6133 7.19658 51.8805 7.23658 56.1005 7.42218C59.9973 7.59178 62.1181 8.23738 63.527 8.78218C65.3966 9.50218 66.727 10.367 68.1326 11.7654C69.5382 13.1638 70.4046 14.491 71.1342 16.3614C71.6854 17.767 72.3398 19.8814 72.5238 23.7822C72.7246 28.0006 72.7702 29.2655 72.7894 39.9423C72.8086 50.6191 72.771 51.8871 72.5862 56.1023C72.4158 60.0024 71.7694 62.1208 71.2262 63.5336C70.5062 65.4016 69.6382 66.7336 68.2414 68.1384C66.8446 69.5432 65.5142 70.4088 63.647 71.1384C62.2389 71.688 60.1213 72.344 56.2261 72.5296C52.0077 72.728 50.7437 72.7696 40.0621 72.7928C29.3804 72.816 28.1204 72.7728 23.902 72.5904M56.5101 18.6214C56.5146 21.2726 58.6675 23.4181 61.3187 23.4134C63.9699 23.4087 66.1152 21.2555 66.1101 18.6043C66.1051 15.9532 63.9517 13.8081 61.3005 13.8134C58.6502 13.8187 56.5057 15.9711 56.5101 18.6214M19.462 40.0399C19.4844 51.3839 28.6972 60.5592 40.0389 60.5376C51.3805 60.516 60.5621 51.3039 60.5405 39.9599C60.5189 28.6158 51.3037 19.4382 39.9605 19.4606C28.6172 19.483 19.4404 28.6974 19.462 40.0399M26.6668 40.0255C26.6523 32.6615 32.6101 26.6801 39.9741 26.6655C47.338 26.6509 53.3195 32.6088 53.3341 39.9727C53.3486 47.3367 47.3908 53.3181 40.0269 53.3327C32.6625 53.3482 26.6805 47.3898 26.6668 40.0255" fill="#000000" fill-rule="nonzero" opacity="1" stroke="none"/>
</g>
</svg>
