<?xml version="1.0" encoding="UTF-8" standalone="no"?>
<!DOCTYPE svg PUBLIC "-//W3C//DTD SVG 1.1//EN" "http://www.w3.org/Graphics/SVG/1.1/DTD/svg11.dtd">
<!-- Created with Vectornator (http://vectornator.io/) -->
<svg height="100%" stroke-miterlimit="10" style="fill-rule:nonzero;clip-rule:evenodd;stroke-linecap:round;stroke-linejoin:round;" version="1.1" viewBox="0 0 250 80" width="100%" xml:space="preserve" xmlns="http://www.w3.org/2000/svg" xmlns:xlink="http://www.w3.org/1999/xlink">
<defs/>
<path d="M0 0L250 0L250 80L0 80L0 0Z" fill="#000000" fill-opacity="0" fill-rule="nonzero" opacity="1" stroke="none"/>
<g id="Sem-Título">
<g opacity="1">
<path d="M89.4167 68.0417L87.4167 62.5417L80.6667 62.5417L78.6667 68.0417L77 68.0417L82.25 53.625C82.4167 53.125 82.5833 52.625 82.6667 52.0417C82.6667 50.9583 81.4167 50.9583 80.6667 50.7917L80.6667 50.2083L85.6667 50.2083L92.1667 68.0417L89.4167 68.0417ZM83.9167 53.625L81.0833 61.375L86.9167 61.375L83.9167 53.625Z" fill="#000000" fill-rule="nonzero" opacity="1" stroke="none"/>
<path d="M112.083 68.0417L107.417 59.7917L105.75 59.7917L105.75 68.0417L102.833 68.0417L102.833 53.875C102.833 51.375 102.833 51.2083 100.333 50.875L100.333 50.2917L107.167 50.2917C110.417 50.2917 114.333 50.9583 114.333 55.0417C114.333 57.7083 112.833 59.0417 110.25 59.4583L115.167 68.125L112.083 68.125L112.083 68.0417ZM107.5 51.5417C105.583 51.5417 105.75 52.2917 105.75 53.9583L105.75 58.7083L107.25 58.7083C109.583 58.7083 111.417 57.875 111.417 55.2917C111.417 52.7083 110 51.5417 107.5 51.5417Z" fill="#000000" fill-rule="nonzero" opacity="1" stroke="none"/>
<path d="M132 68.375C125.917 68.375 124.167 64.4583 124.167 58.9583C124.167 53.875 125.833 50.2083 131.583 50.2083C133.417 50.2083 135.167 50.4583 136.917 51.0417L137.083 55.4583L136.333 55.4583C136.25 54.875 136.083 54.375 135.75 53.875C135 52.4583 133.5 51.5417 131.917 51.5417C127.917 51.5417 127.417 55.9583 127.417 59.0417C127.417 62.2917 128.417 66.9583 132.583 66.9583C134.25 67.0417 135.833 66.5417 137.25 65.625L137.25 67.4583C135.417 68.125 133.75 68.4583 132 68.375Z" fill="#000000" fill-rule="nonzero" opacity="1" stroke="none"/>
<path d="M158.833 68.0417L158.833 59.4583L151.667 59.4583L151.667 68.125L148.75 68.125L148.75 53.7083C148.75 51.375 148.333 51.375 146.083 51.125L146.083 50.5417L151.667 49.9583L151.667 58.125L158.833 58.125L158.833 50.2083L161.75 50.2083L161.75 68.0417L158.833 68.0417Z" fill="#000000" fill-rule="nonzero" opacity="1" stroke="none"/>
<path d="M172 68.0417L172 67.375C174 67.375 174.25 66.875 174.25 64.875L174.25 53.5417C174.25 51.625 174 51.0417 172 51.0417L172 50.375L179.417 50.375L179.417 51.0417C177.417 51.0417 177.167 51.625 177.167 53.5417L177.167 64.9583C177.167 66.875 177.417 67.4583 179.417 67.4583L179.417 68.125L172 68.0417Z" fill="#000000" fill-rule="nonzero" opacity="1" stroke="none"/>
<path d="M198.75 68.0417L196.417 68.0417L191.25 53.625C190.417 51.375 190.333 51.2917 188.083 50.7917L188.083 50.2083L193.25 50.2083L198.417 64.7083L198.5 64.7083L203.583 50.2083L205.333 50.2083L198.75 68.0417Z" fill="#000000" fill-rule="nonzero" opacity="1" stroke="none"/>
<path d="M226.083 68.0417L215.5 68.0417L215.5 53.875C215.5 51.375 215.5 51.2083 213 50.875L213 50.2917L225.667 50.2917L225.833 54.2083L225.083 54.2083C225.083 52.2083 224.083 51.5417 222.25 51.5417L220.167 51.5417C218.917 51.5417 218.5 51.5417 218.5 52.9583L218.5 58.2083L221.667 58.2083C223.167 58.2083 223.583 57.5417 223.833 56.2083L224.583 56.2083L224.583 61.7083L223.833 61.7083C223.833 60.2083 223.167 59.4583 221.667 59.4583L218.417 59.4583L218.417 65.375C218.417 66.7917 218.75 66.875 220.083 66.875L223 66.875C224.833 66.875 225.25 65.9583 225.417 64.2917L226.167 64.2917L226.083 68.0417Z" fill="#000000" fill-rule="nonzero" opacity="1" stroke="none"/>
<path d="M77 37.9583L77 37.2917C79 37.2917 79.25 36.7917 79.25 34.7917L79.25 23.4583C79.25 21.5417 79 20.9583 77 20.9583L77 20.2917L84.4167 20.2917L84.4167 20.9583C82.4167 20.9583 82.1667 21.5417 82.1667 23.4583L82.1667 34.875C82.1667 36.7917 82.4167 37.375 84.4167 37.375L84.4167 38.0417L77 37.9583Z" fill="#000000" fill-rule="nonzero" opacity="1" stroke="none"/>
<path d="M106.083 37.9583L97.3333 22.875L97.25 22.875L97.25 37.9583L95.5833 37.9583L95.5833 23.5417C95.5833 21.0417 95.1667 21.125 92.9167 20.7083L92.9167 20.125L98.5 20.125L106.833 34.5417L106.917 34.5417L106.917 20.2083L108.583 20.2083L108.583 38.0417L106.083 38.0417L106.083 37.9583Z" fill="#000000" fill-rule="nonzero" opacity="1" stroke="none"/>
<path d="M132.333 24.125C132.333 22.0417 131.417 21.4583 129.417 21.4583L127.583 21.4583L127.583 38.0417L124.667 38.0417L124.667 21.4583L122.833 21.4583C120.833 21.4583 120.167 22.0417 120 24.0417L119.25 24.0417L119.333 20.2083L132.917 20.2083L133 24.125L132.333 24.125Z" fill="#000000" fill-rule="nonzero" opacity="1" stroke="none"/>
<path d="M154.25 37.9583L143.667 37.9583L143.667 23.7917C143.667 21.2917 143.667 21.2083 141.167 20.7917L141.167 20.2083L153.833 20.2083L153.917 24.125L153.167 24.125C153.167 22.125 152.167 21.4583 150.333 21.4583L148.25 21.4583C147 21.4583 146.583 21.4583 146.583 22.875L146.583 28.125L149.833 28.125C151.333 28.125 151.75 27.4583 152 26.125L152.75 26.125L152.75 31.7083L152 31.7083C152 30.2083 151.333 29.4583 149.833 29.4583L146.583 29.4583L146.583 35.375C146.583 36.875 146.917 36.875 148.25 36.875L151.167 36.875C153 36.875 153.417 35.9583 153.583 34.2917L154.333 34.2917L154.25 37.9583Z" fill="#000000" fill-rule="nonzero" opacity="1" stroke="none"/>
<path d="M175.583 37.9583L170.917 29.7083L169.25 29.7083L169.25 37.9583L166.333 37.9583L166.333 23.7917C166.333 21.2917 166.333 21.125 163.833 20.7917L163.833 20.2083L170.667 20.2083C173.917 20.2083 177.833 20.875 177.833 24.9583C177.833 27.625 176.333 28.9583 173.75 29.2917L178.667 38.0417L175.583 38.0417L175.583 37.9583ZM171 21.4583C169.083 21.4583 169.25 22.125 169.25 23.875L169.25 28.625L170.75 28.625C173.083 28.625 174.917 27.7917 174.917 25.2083C174.917 22.625 173.5 21.4583 171 21.4583L171 21.4583Z" fill="#000000" fill-rule="nonzero" opacity="1" stroke="none"/>
<path d="M200.5 37.9583L191.75 22.875L191.667 22.875L191.667 37.9583L190 37.9583L190 23.5417C190 21.0417 189.583 21.125 187.333 20.7083L187.333 20.125L192.917 20.125L201.25 34.5417L201.333 34.5417L201.333 20.2083L203 20.2083L203 38.0417L200.5 38.0417L200.5 37.9583Z" fill="#000000" fill-rule="nonzero" opacity="1" stroke="none"/>
<path d="M226.5 37.9583L215.917 37.9583L215.917 23.7917C215.917 21.2917 215.917 21.2083 213.417 20.7917L213.417 20.2083L226.083 20.2083L226.167 24.125L225.417 24.125C225.417 22.125 224.417 21.4583 222.583 21.4583L220.5 21.4583C219.25 21.4583 218.833 21.4583 218.833 22.875L218.833 28.125L222.083 28.125C223.583 28.125 224 27.4583 224.25 26.125L225 26.125L225 31.7083L224.25 31.7083C224.25 30.2083 223.583 29.4583 222.083 29.4583L218.833 29.4583L218.833 35.375C218.833 36.875 219.167 36.875 220.5 36.875L223.417 36.875C225.25 36.875 225.667 35.9583 225.833 34.2917L226.583 34.2917L226.5 37.9583Z" fill="#000000" fill-rule="nonzero" opacity="1" stroke="none"/>
<path d="M249.25 24.125C249.25 22.0417 248.333 21.4583 246.333 21.4583L244.5 21.4583L244.5 38.0417L241.667 38.0417L241.667 21.4583L239.833 21.4583C237.833 21.4583 237.167 22.0417 237 24.0417L236.25 24.0417L236.333 20.2083L249.917 20.2083L250 24.125L249.25 24.125Z" fill="#000000" fill-rule="nonzero" opacity="1" stroke="none"/>
<path d="M0 71.0417L60.3333 71.0417L60.3333 71.0417L60.3333 74.125L60.3333 74.125L0 74.125L0 74.125L0 71.0417L0 71.0417Z" fill="#000000" fill-rule="nonzero" opacity="1" stroke="none"/>
<path d="M2.41667 65.125L58.0833 65.125L58.0833 65.125L58.0833 69.375L58.0833 69.375L2.41667 69.375L2.41667 69.375L2.41667 65.125L2.41667 65.125Z" fill="#000000" fill-rule="nonzero" opacity="1" stroke="none"/>
<path d="M2 16.2917L57.4167 16.2917L57.4167 16.2917L57.4167 22.2083L57.4167 22.2083L2 22.2083L2 22.2083L2 16.2917L2 16.2917Z" fill="#000000" fill-rule="nonzero" opacity="1" stroke="none"/>
<path d="M29.75 5.875L0.75 12.7083L2.41667 14.5417L29.75 14.5417L57.0833 14.5417L58.75 12.7083L29.75 5.875Z" fill="#000000" fill-rule="nonzero" opacity="1" stroke="none"/>
<path d="M10 41.125C9.91667 38.2083 9.91667 35.2917 9.75 32.375C9.66667 29.625 9.5 26.875 9.33333 24.125C9.33333 23.875 9.25 23.875 9 23.7917C8.16667 23.625 7.33333 23.5417 6.58333 23.5417C5.75 23.5417 5 23.625 4.16667 23.7917C4 23.7917 3.83333 23.875 3.83333 24.125C3.66667 26.875 3.5 29.625 3.41667 32.375C3.33333 35.2917 3.25 38.2083 3.16667 41.125C3.16667 43.2083 3.16667 45.2917 3.16667 47.375C3.16667 49.7083 3.25 51.9583 3.33333 54.2917C3.41667 56.7917 3.58333 59.2083 3.75 61.7083C3.75 62.2083 3.83333 62.625 3.83333 63.125C4.75 63.2083 5.66667 63.375 6.58333 63.375C7.5 63.375 8.41667 63.2083 9.33333 62.9583C9.33333 62.4583 9.41667 62.0417 9.41667 61.5417C9.58333 59.0417 9.75 56.625 9.83333 54.125C9.91667 51.7917 10 49.5417 10 47.2083C10 45.2917 10.0833 43.2083 10 41.125Z" fill="#000000" fill-rule="nonzero" opacity="1" stroke="none"/>
<path d="M25.0833 41.125C25 38.2083 25 35.2917 24.8333 32.375C24.75 29.625 24.5833 26.875 24.4167 24.125C24.4167 23.875 24.3333 23.875 24.0833 23.7917C23.25 23.625 22.4167 23.5417 21.5833 23.5417C20.75 23.5417 19.9167 23.625 19.1667 23.7917C19 23.7917 18.8333 23.875 18.8333 24.125C18.6667 26.875 18.5 29.625 18.4167 32.375C18.3333 35.2917 18.25 38.2083 18.1667 41.125C18.1667 43.2083 18.1667 45.2917 18.1667 47.375C18.1667 49.7083 18.25 51.9583 18.3333 54.2917C18.4167 56.7917 18.5833 59.2083 18.75 61.7083C18.75 62.2083 18.8333 62.625 18.8333 63.125C19.75 63.375 20.6667 63.4583 21.5833 63.4583C22.5 63.4583 23.4167 63.2917 24.3333 63.0417C24.3333 62.5417 24.4167 62.125 24.4167 61.625C24.5833 59.125 24.75 56.7083 24.8333 54.2083C24.9167 51.875 25 49.625 25 47.2917C25.0833 45.2917 25.1667 43.2083 25.0833 41.125Z" fill="#000000" fill-rule="nonzero" opacity="1" stroke="none"/>
<path d="M42.5833 41.125C42.5 38.2083 42.4167 35.2917 42.3333 32.375C42.25 29.625 42.0833 26.875 41.9167 24.125C41.9167 23.875 41.8333 23.875 41.5833 23.7917C40 23.4583 38.3333 23.4583 36.6667 23.7917C36.5 23.7917 36.3333 23.875 36.3333 24.125C36.1667 26.875 36 29.625 35.9167 32.375C35.8333 35.2917 35.75 38.2083 35.6667 41.125C35.6667 43.2083 35.6667 45.2917 35.6667 47.375C35.6667 49.7083 35.75 51.9583 35.8333 54.2917C35.9167 56.7917 36.0833 59.2083 36.25 61.7083C36.25 62.2083 36.3333 62.625 36.3333 63.125C37.25 63.375 38.1667 63.4583 39.0833 63.4583C40 63.4583 40.9167 63.2917 41.8333 63.0417C41.8333 62.5417 41.9167 62.125 41.9167 61.625C42.0833 59.125 42.1667 56.7083 42.3333 54.2083C42.4167 51.875 42.5 49.625 42.5 47.2917C42.5833 45.2917 42.6667 43.2083 42.5833 41.125Z" fill="#000000" fill-rule="nonzero" opacity="1" stroke="none"/>
<path d="M57.3333 41.125C57.25 38.2083 57.1667 35.2917 57.0833 32.375C57 29.625 56.8333 26.875 56.6667 24.125C56.6667 23.875 56.5833 23.875 56.3333 23.7917C54.75 23.4583 53.0833 23.4583 51.4167 23.7917C51.25 23.7917 51.0833 23.875 51.0833 24.125C50.9167 26.875 50.75 29.625 50.6667 32.375C50.5833 35.2917 50.5 38.2083 50.4167 41.125C50.4167 43.2083 50.4167 45.2917 50.4167 47.375C50.4167 49.7083 50.5 51.9583 50.5833 54.2917C50.6667 56.7917 50.8333 59.2083 51 61.7083C51 62.2083 51.0833 62.625 51.0833 63.125C52.8333 63.625 54.75 63.625 56.5 63.125C56.5 62.625 56.5833 62.2083 56.5833 61.7083C56.75 59.2083 56.8333 56.7917 57 54.2917C57.0833 51.9583 57.1667 49.7083 57.1667 47.375C57.3333 45.2917 57.3333 43.2083 57.3333 41.125Z" fill="#000000" fill-rule="nonzero" opacity="1" stroke="none"/>
</g>
</g>
</svg>
