<?xml version="1.0" encoding="UTF-8" standalone="no"?>
<!-- Created with Vectornator (http://vectornator.io/) -->

<svg height="32" stroke-miterlimit="10" style="clip-rule:evenodd;fill-rule:nonzero;stroke-linecap:round;stroke-linejoin:round" version="1.1" viewBox="0 0 32 32" width="32" xml:space="preserve" id="svg24" sodipodi:docname="internet-archive.svg" inkscape:version="1.4-beta2 (9aaf4f34, 2024-07-30)" xmlns:inkscape="http://www.inkscape.org/namespaces/inkscape" xmlns:sodipodi="http://sodipodi.sourceforge.net/DTD/sodipodi-0.dtd" xmlns="http://www.w3.org/2000/svg" xmlns:svg="http://www.w3.org/2000/svg"><sodipodi:namedview id="namedview24" pagecolor="#ffffff" bordercolor="#000000" borderopacity="0.25" inkscape:showpageshadow="2" inkscape:pageopacity="0.0" inkscape:pagecheckerboard="0" inkscape:deskcolor="#d1d1d1" inkscape:zoom="6.2905233" inkscape:cx="12.399604" inkscape:cy="29.329833" inkscape:window-width="1440" inkscape:window-height="790" inkscape:window-x="0" inkscape:window-y="0" inkscape:window-maximized="1" inkscape:current-layer="svg24" />
<defs id="defs1">

























</defs>
<path d="M 0,0 H 250 V 80 H 0 Z" fill="#000000" fill-opacity="0" fill-rule="nonzero" opacity="1" stroke="none" id="path1" />
<g id="g24" transform="matrix(0.46886449,0,0,0.46886449,-62.325857,-37.401383)"><path d="m 136.88771,144.93683 h 60.3333 v 0 3.0833 0 h -60.3333 v 0 z" fill="#000000" fill-rule="nonzero" opacity="1" stroke="none" id="path17" /><path d="m 139.30438,139.02013 h 55.66663 v 0 4.25 0 h -55.66663 v 0 z" fill="#000000" fill-rule="nonzero" opacity="1" stroke="none" id="path18" /><path d="m 138.88771,90.186833 h 55.4167 v 0 5.9166 0 h -55.4167 v 0 z" fill="#000000" fill-rule="nonzero" opacity="1" stroke="none" id="path19" /><path d="m 166.63771,79.770133 -29,6.8333 1.66667,1.8334 h 27.33333 27.3333 l 1.6667,-1.8334 z" fill="#000000" fill-rule="nonzero" opacity="1" stroke="none" id="path20" /><path d="m 146.88771,115.02013 c -0.0833,-2.9167 -0.0833,-5.8333 -0.25,-8.75 -0.0833,-2.75 -0.25,-5.5 -0.41667,-8.249997 0,-0.25 -0.0833,-0.25 -0.33333,-0.3333 -0.83333,-0.1667 -1.66667,-0.25 -2.41667,-0.25 -0.83333,0 -1.58333,0.0833 -2.41666,0.25 -0.16667,0 -0.33334,0.0833 -0.33334,0.3333 -0.16666,2.749997 -0.33333,5.499997 -0.41666,8.249997 -0.0833,2.9167 -0.16667,5.8333 -0.25,8.75 0,2.0833 0,4.1667 0,6.25 0,2.3333 0.0833,4.5833 0.16666,6.9167 0.0833,2.5 0.25,4.9166 0.41667,7.4166 0,0.5 0.0833,0.9167 0.0833,1.4167 0.91667,0.0833 1.83334,0.25 2.75,0.25 0.91667,0 1.83334,-0.1667 2.75,-0.4167 0,-0.5 0.0833,-0.9166 0.0833,-1.4166 0.16666,-2.5 0.33333,-4.9167 0.41666,-7.4167 0.0833,-2.3333 0.16667,-4.5833 0.16667,-6.9167 0,-1.9166 0.0833,-4 0,-6.0833 z" fill="#000000" fill-rule="nonzero" opacity="1" stroke="none" id="path21" /><path d="m 161.97101,115.02013 c -0.0833,-2.9167 -0.0833,-5.8333 -0.25,-8.75 -0.0833,-2.75 -0.25,-5.5 -0.4166,-8.249997 0,-0.25 -0.0834,-0.25 -0.3334,-0.3333 -0.8333,-0.1667 -1.6666,-0.25 -2.5,-0.25 -0.8333,0 -1.6666,0.0833 -2.4166,0.25 -0.1667,0 -0.3334,0.0833 -0.3334,0.3333 -0.1666,2.749997 -0.3333,5.499997 -0.4166,8.249997 -0.0834,2.9167 -0.1667,5.8333 -0.25,8.75 0,2.0833 0,4.1667 0,6.25 0,2.3333 0.0833,4.5833 0.1666,6.9167 0.0834,2.5 0.25,4.9166 0.4167,7.4166 0,0.5 0.0833,0.9167 0.0833,1.4167 0.9167,0.25 1.8334,0.3333 2.75,0.3333 0.9167,0 1.8334,-0.1666 2.75,-0.4166 0,-0.5 0.0834,-0.9167 0.0834,-1.4167 0.1666,-2.5 0.3333,-4.9167 0.4166,-7.4167 0.0834,-2.3333 0.1667,-4.5833 0.1667,-6.9166 0.0833,-2 0.1667,-4.0834 0.0833,-6.1667 z" fill="#000000" fill-rule="nonzero" opacity="1" stroke="none" id="path22" /><path d="m 179.47101,115.02013 c -0.0833,-2.9167 -0.1666,-5.8333 -0.25,-8.75 -0.0833,-2.75 -0.25,-5.5 -0.4166,-8.249997 0,-0.25 -0.0834,-0.25 -0.3334,-0.3333 -1.5833,-0.3334 -3.25,-0.3334 -4.9166,0 -0.1667,0 -0.3334,0.0833 -0.3334,0.3333 -0.1666,2.749997 -0.3333,5.499997 -0.4166,8.249997 -0.0834,2.9167 -0.1667,5.8333 -0.25,8.75 0,2.0833 0,4.1667 0,6.25 0,2.3333 0.0833,4.5833 0.1666,6.9167 0.0834,2.5 0.25,4.9166 0.4167,7.4166 0,0.5 0.0833,0.9167 0.0833,1.4167 0.9167,0.25 1.8334,0.3333 2.75,0.3333 0.9167,0 1.8334,-0.1666 2.75,-0.4166 0,-0.5 0.0834,-0.9167 0.0834,-1.4167 0.1666,-2.5 0.25,-4.9167 0.4166,-7.4167 0.0834,-2.3333 0.1667,-4.5833 0.1667,-6.9166 0.0833,-2 0.1667,-4.0834 0.0833,-6.1667 z" fill="#000000" fill-rule="nonzero" opacity="1" stroke="none" id="path23" /><path d="m 194.22101,115.02013 c -0.0833,-2.9167 -0.1666,-5.8333 -0.25,-8.75 -0.0833,-2.75 -0.25,-5.5 -0.4166,-8.249997 0,-0.25 -0.0834,-0.25 -0.3334,-0.3333 -1.5833,-0.3334 -3.25,-0.3334 -4.9166,0 -0.1667,0 -0.3334,0.0833 -0.3334,0.3333 -0.1666,2.749997 -0.3333,5.499997 -0.4166,8.249997 -0.0834,2.9167 -0.1667,5.8333 -0.25,8.75 0,2.0833 0,4.1667 0,6.25 0,2.3333 0.0833,4.5833 0.1666,6.9167 0.0834,2.5 0.25,4.9166 0.4167,7.4166 0,0.5 0.0833,0.9167 0.0833,1.4167 1.75,0.5 3.6667,0.5 5.4167,0 0,-0.5 0.0833,-0.9167 0.0833,-1.4167 0.1667,-2.5 0.25,-4.9166 0.4167,-7.4166 0.0833,-2.3334 0.1667,-4.5834 0.1667,-6.9167 0.1666,-2.0833 0.1666,-4.1667 0.1666,-6.25 z" fill="#000000" fill-rule="nonzero" opacity="1" stroke="none" id="path24" /></g>
</svg>
