<svg viewBox="0.12 0 32 32" version="1.1" width="32" height="32" xmlns="http://www.w3.org/2000/svg" xmlns:svg="http://www.w3.org/2000/svg">
  <g fill="none" fill-rule="evenodd" transform="matrix(0.1276005,0,0,0.1276005,-8.8120352,-8.8876649)">
    <g transform="translate(0.12)">
      <polygon fill="#000" points="206.97343,269.09144 208.93311,265.48004 103.95039,187.56886 114.89659,170.51967 219.40339,248.76679 222.39889,244.59548 140.20442,139.9487 160.27712,123.82336 241.7997,223.51495 245.4391,220.43545 197.76295,99.551352 226.48622,87.457343 271.16687,205.79386 274.72228,204.64605 274.72228,73.543633 320.66272,73.543633 320.66272,305.73741 320.66272,316.54363 274.72228,316.54363 69.88,316.54363 69.88,305.73741 197.14705,305.73741 197.76295,302.48995 72.567558,276.42624 74.919171,262.40055 200.22654,289.55608 201.15039,284.71287 82.925853,233.31333 88.244977,219.09168"/>
    </g>
  </g>
</svg>
