<?xml version="1.0" encoding="utf-8"?>
<!-- Generator: Adobe Illustrator 23.0.6, SVG Export Plug-In . SVG Version: 6.00 Build 0)  -->
<svg version="1.1" id="Camada_1" xmlns="http://www.w3.org/2000/svg" xmlns:xlink="http://www.w3.org/1999/xlink" x="0px" y="0px"
	 viewBox="0 0 300 120" style="enable-background:new 0 0 300 120;" xml:space="preserve">
<title>Internet_Archive_logo_and_wordmark</title>
<path d="M107.3,93.6l-2.4-6.6h-8.1l-2.4,6.6h-2l6.3-17.3c0.2-0.6,0.4-1.2,0.5-1.9c0-1.3-1.5-1.3-2.4-1.5v-0.7h6l7.8,21.4L107.3,93.6
	z M100.7,76.3l-3.4,9.3h7L100.7,76.3z"/>
<path d="M134.5,93.6l-5.6-9.9h-2v9.9h-3.5V76.6c0-3,0-3.2-3-3.6v-0.7h8.2c3.9,0,8.6,0.8,8.6,5.7c0,3.2-1.8,4.8-4.9,5.3l5.9,10.4
	H134.5z M129,73.8c-2.3,0-2.1,0.9-2.1,2.9v5.7h1.8c2.8,0,5-1,5-4.1S132,73.8,129,73.8z"/>
<path d="M158.4,94c-7.3,0-9.4-4.7-9.4-11.3c0-6.1,2-10.5,8.9-10.5c2.2,0,4.3,0.3,6.4,1l0.2,5.3h-0.9c-0.1-0.7-0.3-1.3-0.7-1.9
	c-0.9-1.7-2.7-2.8-4.6-2.8c-4.8,0-5.4,5.3-5.4,9c0,3.9,1.2,9.5,6.2,9.5c2,0.1,3.9-0.5,5.6-1.6v2.2C162.5,93.7,160.5,94.1,158.4,94z"
	/>
<path d="M190.6,93.6V83.3H182v10.4h-3.5V76.4c0-2.8-0.5-2.8-3.2-3.1v-0.7l6.7-0.7v9.8h8.6v-9.5h3.5v21.4H190.6z"/>
<path d="M206.4,93.6v-0.8c2.4,0,2.7-0.6,2.7-3V76.2c0-2.3-0.3-3-2.7-3v-0.8h8.9v0.8c-2.4,0-2.7,0.7-2.7,3v13.7c0,2.3,0.3,3,2.7,3
	v0.8L206.4,93.6z"/>
<path d="M238.5,93.6h-2.8l-6.2-17.3c-1-2.7-1.1-2.8-3.8-3.4v-0.7h6.2l6.2,17.4h0.1l6.1-17.4h2.1L238.5,93.6z"/>
<path d="M271.3,93.6h-12.7V76.6c0-3,0-3.2-3-3.6v-0.7h15.2L271,77h-0.9c0-2.4-1.2-3.2-3.4-3.2h-2.5c-1.5,0-2,0-2,1.7v6.3h3.8
	c1.8,0,2.3-0.8,2.6-2.4h0.9V86h-0.9c0-1.8-0.8-2.7-2.6-2.7h-3.9v7.1c0,1.7,0.4,1.8,2,1.8h3.5c2.2,0,2.7-1.1,2.9-3.1h0.9L271.3,93.6z
	"/>
<path d="M92.4,57.5v-0.8c2.4,0,2.7-0.6,2.7-3V40.1c0-2.3-0.3-3-2.7-3v-0.8h8.9v0.8c-2.4,0-2.7,0.7-2.7,3v13.7c0,2.3,0.3,3,2.7,3v0.8
	L92.4,57.5z"/>
<path d="M127.3,57.5l-10.5-18.1h-0.1v18.1h-2V40.2c0-3-0.5-2.9-3.2-3.4v-0.7h6.7l10,17.3h0.1V36.2h2v21.4H127.3z"/>
<path d="M158.8,40.9c0-2.5-1.1-3.2-3.5-3.2h-2.2v19.9h-3.5V37.7h-2.2c-2.4,0-3.2,0.7-3.4,3.1h-0.9l0.1-4.6h16.3l0.1,4.7H158.8z"/>
<path d="M185.1,57.5h-12.7V40.5c0-3,0-3.1-3-3.6v-0.7h15.2l0.1,4.7h-0.9c0-2.4-1.2-3.2-3.4-3.2h-2.5c-1.5,0-2,0-2,1.7v6.3h3.9
	c1.8,0,2.3-0.8,2.6-2.4h0.9v6.7h-0.9c0-1.8-0.8-2.7-2.6-2.7h-3.9v7.1c0,1.8,0.4,1.8,2,1.8h3.5c2.2,0,2.7-1.1,2.9-3.1h0.9L185.1,57.5
	z"/>
<path d="M210.7,57.5l-5.6-9.9h-2v9.9h-3.5V40.5c0-3,0-3.2-3-3.6v-0.7h8.2c3.9,0,8.6,0.8,8.6,5.7c0,3.2-1.8,4.8-4.9,5.2l5.9,10.5
	H210.7z M205.2,37.7c-2.3,0-2.1,0.8-2.1,2.9v5.7h1.8c2.8,0,5-1,5-4.1S208.2,37.7,205.2,37.7L205.2,37.7z"/>
<path d="M240.6,57.5l-10.5-18.1H230v18.1h-2V40.2c0-3-0.5-2.9-3.2-3.4v-0.7h6.7l10,17.3h0.1V36.2h2v21.4H240.6z"/>
<path d="M271.8,57.5h-12.7V40.5c0-3,0-3.1-3-3.6v-0.7h15.2l0.1,4.7h-0.9c0-2.4-1.2-3.2-3.4-3.2h-2.5c-1.5,0-2,0-2,1.7v6.3h3.9
	c1.8,0,2.3-0.8,2.6-2.4h0.9v6.7h-0.9c0-1.8-0.8-2.7-2.6-2.7h-3.9v7.1c0,1.8,0.4,1.8,2,1.8h3.5c2.2,0,2.7-1.1,2.9-3.1h0.9L271.8,57.5
	z"/>
<path d="M299.1,40.9c0-2.5-1.1-3.2-3.5-3.2h-2.2v19.9H290V37.7h-2.2c-2.4,0-3.2,0.7-3.4,3.1h-0.9l0.1-4.6h16.3l0.1,4.7H299.1z"/>
<rect y="97.2" width="72.4" height="3.7"/>
<rect x="2.9" y="90.1" width="66.8" height="5.1"/>
<rect x="2.4" y="31.5" width="66.5" height="7.1"/>
<polygon points="35.7,19 0.9,27.2 2.9,29.4 35.7,29.4 68.5,29.4 70.5,27.2 "/>
<path d="M12,61.3c-0.1-3.5-0.1-7-0.3-10.5c-0.1-3.3-0.3-6.6-0.5-9.9c0-0.3-0.1-0.3-0.4-0.4c-1-0.2-2-0.3-2.9-0.3
	c-1,0-1.9,0.1-2.9,0.3c-0.2,0-0.4,0.1-0.4,0.4c-0.2,3.3-0.4,6.6-0.5,9.9c-0.1,3.5-0.2,7-0.3,10.5c0,2.5,0,5,0,7.5
	c0,2.8,0.1,5.5,0.2,8.3c0.1,3,0.3,5.9,0.5,8.9c0,0.6,0.1,1.1,0.1,1.7C5.7,87.8,6.8,88,7.9,88c1.1,0,2.2-0.2,3.3-0.5
	c0-0.6,0.1-1.1,0.1-1.7c0.2-3,0.4-5.9,0.5-8.9c0.1-2.8,0.2-5.5,0.2-8.3C12,66.3,12.1,63.8,12,61.3z"/>
<path d="M30.1,61.3c-0.1-3.5-0.1-7-0.3-10.5c-0.1-3.3-0.3-6.6-0.5-9.9c0-0.3-0.1-0.3-0.4-0.4c-1-0.2-2-0.3-3-0.3c-1,0-2,0.1-2.9,0.3
	c-0.2,0-0.4,0.1-0.4,0.4c-0.2,3.3-0.4,6.6-0.5,9.9c-0.1,3.5-0.2,7-0.3,10.5c0,2.5,0,5,0,7.5c0,2.8,0.1,5.5,0.2,8.3
	c0.1,3,0.3,5.9,0.5,8.9c0,0.6,0.1,1.1,0.1,1.7c1.1,0.3,2.2,0.4,3.3,0.4c1.1,0,2.2-0.2,3.3-0.5c0-0.6,0.1-1.1,0.1-1.7
	c0.2-3,0.4-5.9,0.5-8.9c0.1-2.8,0.2-5.5,0.2-8.3C30.1,66.3,30.2,63.8,30.1,61.3z"/>
<path d="M51.1,61.3c-0.1-3.5-0.2-7-0.3-10.5c-0.1-3.3-0.3-6.6-0.5-9.9c0-0.3-0.1-0.3-0.4-0.4c-1.9-0.4-3.9-0.4-5.9,0
	c-0.2,0-0.4,0.1-0.4,0.4c-0.2,3.3-0.4,6.6-0.5,9.9c-0.1,3.5-0.2,7-0.3,10.5c0,2.5,0,5,0,7.5c0,2.8,0.1,5.5,0.2,8.3
	c0.1,3,0.3,5.9,0.5,8.9c0,0.6,0.1,1.1,0.1,1.7c1.1,0.3,2.2,0.4,3.3,0.4c1.1,0,2.2-0.2,3.3-0.5c0-0.6,0.1-1.1,0.1-1.7
	c0.2-3,0.3-5.9,0.5-8.9c0.1-2.8,0.2-5.5,0.2-8.3C51.1,66.3,51.2,63.8,51.1,61.3z"/>
<path d="M68.8,61.3c-0.1-3.5-0.2-7-0.3-10.5c-0.1-3.3-0.3-6.6-0.5-9.9c0-0.3-0.1-0.3-0.4-0.4c-1.9-0.4-3.9-0.4-5.9,0
	c-0.2,0-0.4,0.1-0.4,0.4c-0.2,3.3-0.4,6.6-0.5,9.9c-0.1,3.5-0.2,7-0.3,10.5c0,2.5,0,5,0,7.5c0,2.8,0.1,5.5,0.2,8.3
	c0.1,3,0.3,5.9,0.5,8.9c0,0.6,0.1,1.1,0.1,1.7c2.1,0.6,4.4,0.6,6.5,0c0-0.6,0.1-1.1,0.1-1.7c0.2-3,0.3-5.9,0.5-8.9
	c0.1-2.8,0.2-5.5,0.2-8.3C68.8,66.3,68.8,63.8,68.8,61.3z"/>
</svg>
