<svg width="32" height="32" xmlns="http://www.w3.org/2000/svg">
  <path d="M120.33 19.754c-.335 0-.651-.126-.889-.36a1.27 1.27 0 0 1-.39-.9 1.265 1.265 0 0 1 .361-.911l10.504-10.89a1.29 1.29 0 0 1 .903-.39h.022c.335 0 .651.13.892.365l2.933 2.863 6.378-6.251-.695-.026a1.273 1.273 0 0 1-1.234-1.324 1.278 1.278 0 0 1 1.282-1.235h.041l3.691.13h.048c.026.008.049.008.075.012l.041.007.107.022.026.008c.023.007.056.015.086.026l.026.011c.03.011.059.026.089.04l.022.012a1.314 1.314 0 0 1 .521.484c.022.037.041.074.059.111l.008.015c.011.022.018.04.026.063l.018.049c.012.033.019.059.026.089l.008.026c.011.04.018.078.022.115v.022c.008.023.008.052.011.086v.007l.13 3.504c.012.342-.107.669-.342.918-.234.25-.55.394-.892.41h-.048a1.278 1.278 0 0 1-1.279-1.235l-.022-.592-7.337 7.189a1.28 1.28 0 0 1-1.788 0l-2.907-2.838-9.612 9.963c-.241.253-.568.39-.921.39z" style="fill:#000" transform="matrix(1.04402 0 0 1.04402 -119.882 5.56)"/>
  <path d="M120.143 19.93a1.252 1.252 0 0 1-1.249-1.25V3.87l-2.3 1.503a.971.971 0 0 1-.595.186c-.23 0-.554-.07-.844-.417a1.333 1.333 0 0 1-.327-.885c0-.271.093-.662.528-.963l3.932-2.622c.294-.182.591-.275.885-.275.342 0 .643.123.874.35.234.234.353.546.353.926V18.68c0 .688-.562 1.25-1.249 1.25z" style="fill:#000" transform="matrix(1.04402 0 0 1.04402 -119.882 5.56)"/>
  <path d="M133.723 20c-5.512 0-9.994-4.485-9.994-10s4.486-10 9.994-10c1.011 0 2.011.152 2.974.45a1.326 1.326 0 0 1-.784 2.533 7.331 7.331 0 0 0-2.186-.331c-4.051 0-7.345 3.294-7.345 7.348s3.294 7.348 7.345 7.348 7.345-3.298 7.345-7.348a1.324 1.324 0 1 1 2.646 0c0 5.515-4.483 10-9.995 10z" style="fill:#000" transform="matrix(1.04402 0 0 1.04402 -119.882 5.56)"/>
</svg>