<svg xmlns="http://www.w3.org/2000/svg" viewBox="0 0 300 120"><defs><style>.a{fill:#fff;}</style></defs><title>istock</title><path class="a" d="M5.73,23a8.87,8.87,0,1,1-5,11.71A8.91,8.91,0,0,1,5.73,23Z"/><path class="a" d="M26.43,31.82A24,24,0,0,1,41.3,23a34.63,34.63,0,0,1,26.85,6.31c-2.44,3.49-4.92,7-7.29,10.49A19.27,19.27,0,0,0,44.4,35.33a11.36,11.36,0,0,0-5.48,2.74,6.35,6.35,0,0,0-1.36,7.37c1.36,2.46,4,3.79,6.41,5C49.7,53,55.84,54.81,61.13,58.3a20.64,20.64,0,0,1,8.28,9.95,21.08,21.08,0,0,1-2.56,19.24C62,94.31,53.38,97.85,45.12,97.55,35.56,97.44,26.43,93,19.51,86.6c3.08-3.19,6.1-6.45,9.21-9.62,4.84,5.43,12.27,8.88,19.6,7.87,3.79-.52,7.37-3.37,8.06-7.25.94-3.74-1.33-7.48-4.45-9.4-5.43-3.4-11.8-4.82-17.41-7.88C30.16,58,26,54.67,24.15,50A19,19,0,0,1,26.43,31.82Z"/><path class="a" d="M228.4,23.67c4.5-.45,9.05-.09,13.57-.2.13,12.94-.1,25.89.11,38.83,5.77-5.51,11.61-10.94,17.42-16.42,6.37,0,12.74.06,19.1,0q-12.4,11.43-24.83,22.83c9.36,9.27,18.63,18.63,28,27.92-6.09-.08-12.19-.06-18.29,0-7.17-7.26-14.14-14.73-21.45-21.84q0,10.91,0,21.83c-4.53,0-9.05,0-13.57,0C228.42,72.25,228.49,48,228.4,23.67Z"/><path class="a" d="M83,31.85c4.52,0,9,0,13.54,0,0,4.69,0,9.37,0,14,5.57,0,11.14,0,16.71,0,0,3.84,0,7.67,0,11.51-5.56-.11-11.12,0-16.68-.06q0,9.78,0,19.55c0,2.62.48,5.68,2.86,7.24,3.32,2.14,7.54,1.46,11.24.92.73,3.84,1.37,7.7,2.15,11.54a34,34,0,0,1-16.89-.16,17.2,17.2,0,0,1-10.28-7.91C83.44,84.6,83.08,80,83,75.59c0-6.09,0-12.17,0-18.26q-7.07,0-14.13,0c0-3.82,0-7.63,0-11.45,4.71,0,9.42-.05,14.13.06C83,41.25,83,36.55,83,31.85Z"/><path class="a" d="M137.76,45.31a28.76,28.76,0,0,1,15,1.33A26.32,26.32,0,0,1,164.56,87c-6.9,9.51-20.31,12.89-31.2,9a26.07,26.07,0,0,1-15.79-15.43,26.75,26.75,0,0,1,.53-19.88,26.39,26.39,0,0,1,19.65-15.36M139,57.89c-5.77,1.56-9.73,7.47-9.54,13.35a13.55,13.55,0,0,0,7.8,12.69c5,2.14,11.32,1.24,15.07-2.78a14.66,14.66,0,0,0,.28-19.47A13.27,13.27,0,0,0,139,57.89Z"/><path class="a" d="M179.2,54.59a27.88,27.88,0,0,1,42.61.38c-3.25,2.8-6.49,5.61-9.63,8.53-3.12-4.28-8.62-6.93-13.92-5.94a13.11,13.11,0,0,0-8.82,5.4,14.45,14.45,0,0,0-.78,15.49A13.12,13.12,0,0,0,199,85a14.61,14.61,0,0,0,13.91-6.61c3.49,2.66,7,5.31,10.53,7.89C219.62,91,214.72,95,208.75,96.52c-7.17,1.83-15.09,1.36-21.69-2.14a26.33,26.33,0,0,1-7.87-39.79Z"/><path class="a" d="M2.12,45.87c4.54,0,9.09,0,13.63,0q-.07,25.34,0,50.68c-4.54,0-9.08,0-13.63,0Q2.11,71.21,2.12,45.87Z"/><path class="a" d="M288.95,80.09c5.17-1.51,10.92,2.75,11,8.13a8.87,8.87,0,1,1-11-8.13Z"/></svg>