<?xml version="1.0" encoding="UTF-8" standalone="no"?>
<svg width="32" height="32" version="1.1" id="svg2" xmlns="http://www.w3.org/2000/svg" xmlns:svg="http://www.w3.org/2000/svg">
  <defs id="defs2" />
  <g id="g2" transform="translate(-2.7525529,2.0309267)">
    <path d="m 16.665223,-2.0088074 c -0.92121,0.0219 -1.596976,0.05428 -2.835872,0.130666 -0.57301,0.03419 -1.198499,0.08453 -1.638973,0.128597 -0.110569,0.01202 -0.341856,0.03419 -0.512785,0.05034 -0.717965,0.07044 -1.7839277,0.204981 -2.2322807,0.281431 -0.09468,0.01616 -0.233423,0.03833 -0.311676,0.05034 -0.07645,0.01015 -0.213327,0.03412 -0.301796,0.05034 -0.0884,0.01616 -0.237296,0.04434 -0.331707,0.06022 -0.332041,0.05635 -0.896972,0.171061 -1.216728,0.247512 -0.08867,0.02217 -0.247511,0.06022 -0.352071,0.08453 -0.104627,0.02397 -0.198972,0.04613 -0.210989,0.0482 -0.589502,0.140615 -1.174731,0.424383 -1.625153,0.792345 -0.438471,0.356012 -0.830471,0.931158 -1.027639,1.502298 -0.03205,0.08847 -0.06443,0.178941 -0.07431,0.201108 -0.03419,0.07645 -0.183079,0.719835 -0.289776,1.246974 -0.01589,0.0884 -0.04406,0.219068 -0.06022,0.291579 -0.01623,0.07224 -0.03805,0.198971 -0.05221,0.28143 -0.01222,0.08239 -0.02818,0.183081 -0.03833,0.221139 -0.03025,0.114842 -0.152834,0.899042 -0.231354,1.468179 -0.07638,0.55111 -0.126727,0.951455 -0.170795,1.357543 -0.02217,0.198971 -0.04434,0.39407 -0.04827,0.432394 -0.006,0.03806 -0.02424,0.233224 -0.04226,0.432463 -0.01616,0.19897 -0.04013,0.442343 -0.05241,0.54303 -0.04227,0.369832 -0.146892,1.980897 -0.198972,3.1172344 -0.0402,0.842422 -0.0663,2.646515 -0.05221,3.63002 0.01409,1.226676 0.04406,2.322886 0.07224,2.704937 0.01022,0.154704 0.03025,0.480735 0.04226,0.724041 0.01202,0.243305 0.02818,0.554983 0.03833,0.693728 0.0462,0.695864 0.08246,1.152296 0.10042,1.297051 0.01022,0.08867 0.03419,0.323962 0.05034,0.520863 0.01616,0.197168 0.0402,0.432462 0.05034,0.522933 0.01202,0.09054 0.03419,0.285571 0.05007,0.434531 0.05034,0.476529 0.08867,0.788206 0.120785,0.995523 0.01616,0.110569 0.04434,0.299659 0.06022,0.422246 0.05842,0.442343 0.126727,0.872668 0.201107,1.267071 0.01616,0.0884 0.04227,0.237364 0.06049,0.331774 0.03419,0.201041 0.112639,0.601387 0.168991,0.854641 0.192963,0.887091 0.277492,1.152296 0.504706,1.588897 0.06229,0.120518 0.142685,0.261334 0.17894,0.311677 0.03412,0.05034 0.08446,0.122587 0.11057,0.160913 0.114708,0.170861 0.44261,0.504705 0.62362,0.633568 0.02998,0.0219 0.0884,0.0641 0.12646,0.09441 0.04046,0.03205 0.07852,0.05628 0.08867,0.05628 0.0081,0 0.02818,0.01409 0.04406,0.03032 0.07852,0.07638 0.6317,0.339853 0.868796,0.410228 0.04433,0.01409 0.09862,0.03205 0.120785,0.04227 0.05241,0.02404 0.347865,0.09835 0.703943,0.178941 0.154904,0.03626 0.313746,0.07431 0.351872,0.08446 0.09254,0.02404 0.6757,0.140615 1.11624,0.221205 0.253255,0.04613 0.746209,0.124657 1.055748,0.168992 0.116646,0.01589 0.26554,0.03806 0.331841,0.05007 0.2433057,0.04227 1.2489777,0.15911 1.8804097,0.219336 0.227215,0.02217 0.506775,0.04828 0.623353,0.06022 0.18909,0.0201 0.382118,0.03626 1.307199,0.102557 0.138746,0.01015 0.45463,0.02818 0.703945,0.0404 0.24938,0.01202 0.597313,0.03005 0.774384,0.0402 1.431856,0.08239 5.526453,0.08239 6.938212,0 0.177071,-0.01202 0.525004,-0.02818 0.774385,-0.0402 0.428255,-0.02003 0.585228,-0.03025 1.256856,-0.08059 0.860649,-0.06623 2.125918,-0.189089 2.554173,-0.249315 0.122588,-0.01803 0.333844,-0.0462 0.47259,-0.06443 0.512785,-0.06623 1.216728,-0.172931 1.618876,-0.247245 0.440541,-0.08059 1.023699,-0.197168 1.116307,-0.221205 0.03806,-0.01015 0.196901,-0.0482 0.351872,-0.08446 0.347865,-0.07852 0.649661,-0.154904 0.703876,-0.178941 a 11.671185,11.671185 0 0 1 0.201109,-0.07044 c 0.164851,-0.05421 0.712022,-0.313747 0.758159,-0.358081 0.01409,-0.01409 0.05428,-0.04407 0.08847,-0.06443 0.156974,-0.09835 0.229218,-0.154636 0.372169,-0.2835 0.160913,-0.146892 0.384188,-0.38806 0.438405,-0.47052 0.01803,-0.02818 0.0663,-0.09648 0.106429,-0.150764 0.04227,-0.05628 0.07645,-0.106629 0.07645,-0.114708 0,-0.0081 0.03232,-0.06443 0.07037,-0.124725 0.0384,-0.06022 0.08453,-0.148894 0.102824,-0.197168 0.02003,-0.04613 0.04006,-0.09648 0.0482,-0.106363 0.03806,-0.05034 0.178941,-0.450689 0.239166,-0.677903 0.09468,-0.351872 0.271482,-1.182475 0.335915,-1.574809 0.01616,-0.100421 0.03419,-0.194831 0.0402,-0.21099 0.01823,-0.04433 0.128864,-0.734189 0.229217,-1.437866 0.02217,-0.154903 0.04433,-0.309807 0.05034,-0.341922 0.01623,-0.09261 0.08847,-0.709953 0.120785,-1.035718 0.01589,-0.160913 0.03806,-0.346063 0.05007,-0.412364 0.01229,-0.0665 0.03419,-0.283501 0.05034,-0.482738 0.01616,-0.198972 0.03833,-0.444413 0.04828,-0.543032 0.01202,-0.10042 0.03025,-0.329637 0.04219,-0.512783 0.01202,-0.183081 0.03025,-0.408158 0.04019,-0.502769 0.01222,-0.09448 0.03419,-0.44241 0.05034,-0.774184 0.01823,-0.331975 0.03833,-0.740199 0.05034,-0.904985 0.09047,-1.46217 0.09047,-5.299306 0,-6.807546 -0.01022,-0.171129 -0.02818,-0.506775 -0.04019,-0.7441384 -0.01222,-0.237363 -0.03025,-0.55111 -0.0404,-0.693995 -0.01202,-0.144755 -0.03805,-0.500766 -0.06029,-0.794215 -0.02217,-0.293649 -0.04434,-0.569338 -0.05035,-0.613405 -0.006,-0.0444 -0.02397,-0.239433 -0.04013,-0.432462 -0.01616,-0.192961 -0.03419,-0.374039 -0.04019,-0.402148 -0.006,-0.02818 -0.02818,-0.213393 -0.05034,-0.412364 -0.05208,-0.480735 -0.116578,-1.01148 -0.130667,-1.073776 -0.006,-0.02818 -0.02818,-0.189089 -0.05034,-0.354208 -0.09855,-0.751951 -0.281363,-1.799886 -0.438403,-2.513712 -0.02217,-0.100687 -0.05815,-0.26347 -0.08032,-0.36202 -0.05635,-0.257461 -0.122855,-0.516924 -0.144755,-0.563128 -0.01015,-0.02217 -0.02818,-0.07638 -0.04227,-0.120719 -0.04433,-0.148693 -0.267609,-0.64552 -0.323895,-0.724039 -0.0081,-0.01202 -0.07224,-0.10643 -0.140882,-0.210991 -0.142686,-0.215195 -0.508579,-0.597312 -0.727914,-0.758226 -0.434264,-0.319756 -0.917069,-0.537021 -1.540356,-0.689854 a 29.440499,29.440499 0 0 1 -0.321825,-0.08059 c -0.07438,-0.0219 -0.223342,-0.05421 -0.543098,-0.120518 a 26.461609,26.461609 0 0 1 -0.271481,-0.05842 c -0.388128,-0.09441 -1.651193,-0.299659 -2.473584,-0.404218 -0.165119,-0.0201 -0.327835,-0.04227 -0.362021,-0.05007 -0.06049,-0.01229 -0.352072,-0.04227 -0.945179,-0.100687 -0.165118,-0.01616 -0.392267,-0.04019 -0.502836,-0.05034 -0.110569,-0.01202 -0.309806,-0.03005 -0.442343,-0.04227 -0.132803,-0.0099 -0.350002,-0.02818 -0.482738,-0.03805 -0.450489,-0.03833 -1.701336,-0.110569 -2.393261,-0.140882 -1.337513,-0.05835 -3.807156,-0.07638 -5.3395,-0.03805 z M 7.8042693,11.580244 c 0.01202,0.0099 0.07044,0.02818 0.128596,0.0422 0.108767,0.02611 0.2616,0.09655 0.376042,0.172931 0.09054,0.06029 0.303865,0.289509 0.345862,0.3701 0.02037,0.0402 0.04227,0.07645 0.04828,0.08246 0.0063,0.006 0.02424,0.04613 0.0404,0.09047 0.01409,0.04406 0.03205,0.09054 0.04227,0.100421 0.02604,0.03833 0.05635,0.277491 0.05635,0.454628 0,0.172932 -0.02638,0.376042 -0.06049,0.450423 -0.108499,0.249315 -0.160912,0.331707 -0.297588,0.476729 -0.126794,0.130667 -0.178941,0.170861 -0.351871,0.255391 -0.140883,0.07037 -0.241503,0.10663 -0.321826,0.114442 -0.06443,0.0081 -0.120784,0.02217 -0.126794,0.03032 -0.01402,0.02424 -0.450423,0.02424 -0.450423,0 0,-0.0081 -0.05034,-0.02224 -0.114775,-0.03032 -0.06229,-0.0078 -0.140548,-0.02604 -0.174734,-0.04013 a 2.0696991,2.0696991 0 0 0 -0.132736,-0.05428 c -0.03833,-0.01402 -0.07458,-0.03025 -0.08059,-0.03626 -0.006,-0.008 -0.03626,-0.02604 -0.07044,-0.04219 -0.116579,-0.05822 -0.357881,-0.325832 -0.428255,-0.472656 -0.03832,-0.07845 -0.07431,-0.154904 -0.08446,-0.170795 -0.06837,-0.136876 -0.08039,-0.760296 -0.01623,-0.905051 0.0183,-0.03833 0.04434,-0.10249 0.05842,-0.140882 0.01409,-0.03806 0.03025,-0.07431 0.03626,-0.08026 0.006,-0.006 0.03005,-0.04648 0.05221,-0.09054 0.03833,-0.07458 0.277491,-0.331975 0.311677,-0.331975 0.008,0 0.02631,-0.01409 0.0404,-0.03205 0.03806,-0.04233 0.233157,-0.136741 0.351872,-0.166921 0.05628,-0.01416 0.118648,-0.03426 0.140815,-0.04441 0.02217,-0.0099 0.07638,-0.02003 0.120518,-0.02604 0.118648,-0.01202 0.535152,0.006 0.561259,0.02424 z m 21.9129177,1.401612 v 1.015552 h -3.901502 v -1.359345 l 0.217266,-0.03439 c 0.480668,-0.07431 0.780327,-0.124657 0.798355,-0.136676 0.01202,-0.0081 0.110569,-0.02404 0.221138,-0.03806 0.110569,-0.01409 0.211256,-0.03239 0.221205,-0.04047 0.01222,-0.0078 0.106629,-0.02604 0.211256,-0.04012 0.10456,-0.01202 0.241236,-0.03626 0.301796,-0.05221 0.06022,-0.01402 0.186952,-0.03626 0.281363,-0.0482 0.09468,-0.01229 0.189089,-0.03025 0.211257,-0.03839 0.02217,-0.0099 0.122587,-0.02811 0.221205,-0.0422 0.10062,-0.01202 0.213059,-0.03005 0.251384,-0.04227 0.03806,-0.0099 0.18308,-0.03805 0.321825,-0.06029 0.138813,-0.02217 0.319823,-0.05208 0.402216,-0.06623 0.08239,-0.01616 0.170861,-0.02818 0.196968,-0.03025 l 0.04426,-0.0021 z M 13.065183,13.87876 v 1.20471 h 2.011076 v 1.790004 h -2.012946 l 0.0079,1.864319 c 0.0062,2.009073 0.002,1.910456 0.110837,2.157701 0.08239,0.191225 0.315549,0.386257 0.516656,0.434531 0.03419,0.0081 0.07251,0.02404 0.08867,0.03625 0.03806,0.03005 0.852637,0.03005 0.888893,-0.0021 0.01589,-0.01202 0.0884,-0.02818 0.164785,-0.03626 l 0.134873,-0.01409 v 1.763898 l -0.05448,0.02404 c -0.05007,0.0221 -0.281431,0.05835 -0.599117,0.09648 -0.452492,0.05241 -1.27722,0.05842 -1.325494,0.008 -0.01202,-0.0099 -0.04406,-0.01796 -0.07431,-0.01796 -0.07852,0 -0.404286,-0.06049 -0.428523,-0.07852 -0.01202,-0.008 -0.06623,-0.02818 -0.122588,-0.04012 -0.05421,-0.01409 -0.108499,-0.03239 -0.120717,-0.0402 -0.0099,-0.01015 -0.05608,-0.02818 -0.100421,-0.04227 -0.04433,-0.01402 -0.08453,-0.03232 -0.09054,-0.03833 -0.006,-0.006 -0.04227,-0.02818 -0.08059,-0.05034 -0.166923,-0.0884 -0.216999,-0.120451 -0.305668,-0.195098 -0.05214,-0.04219 -0.100421,-0.07819 -0.110569,-0.07819 -0.0201,-0.0021 -0.172931,-0.169058 -0.293449,-0.321825 -0.09254,-0.118715 -0.229485,-0.345862 -0.275689,-0.462707 -0.01616,-0.03806 -0.03412,-0.07438 -0.04012,-0.08039 -0.0081,-0.006 -0.02818,-0.0683 -0.04827,-0.140815 -0.01823,-0.07224 -0.04226,-0.148695 -0.05241,-0.170862 -0.0099,-0.02217 -0.03419,-0.112639 -0.05007,-0.201041 a 9.6338024,9.6338024 0 0 0 -0.05448,-0.251451 c -0.01409,-0.06022 -0.02404,-0.768376 -0.03005,-2.107624 l -0.008,-2.015083 H 9.5457533 v -1.790004 h 1.1666497 v -2.027301 l 0.136609,-0.01402 c 0.07438,-0.0079 0.144755,-0.02197 0.154904,-0.03005 0.01202,-0.0081 0.110636,-0.02604 0.221205,-0.0402 0.110569,-0.01402 0.211256,-0.03439 0.221205,-0.04219 0.01202,-0.0081 0.138746,-0.03032 0.281631,-0.04827 0.144755,-0.02037 0.271549,-0.04227 0.281431,-0.05035 0.01202,-0.0081 0.07852,-0.02217 0.150763,-0.02818 a 3.3196777,3.3196777 0 0 0 0.281698,-0.04613 c 0.215196,-0.04434 0.591238,-0.102824 0.609266,-0.09261 0.0081,0.0039 0.01402,0.55111 0.01402,1.214591 z m 6.66693,1.013551 c 0.281431,0.01616 0.599384,0.05241 0.623354,0.07044 0.01202,0.008 0.06029,0.02217 0.110636,0.02818 0.114709,0.01823 0.394337,0.10062 0.563061,0.168925 0.140882,0.05642 0.454629,0.213126 0.502836,0.253587 0.01623,0.01202 0.05221,0.03599 0.08039,0.0482 0.02811,0.01409 0.116846,0.08426 0.195032,0.152901 0.07852,0.07037 0.151031,0.130667 0.160913,0.13454 0.03032,0.01409 0.388127,0.448619 0.388127,0.472589 0,0.006 0.0183,0.03839 0.04047,0.06837 0.04219,0.06049 0.221138,0.408425 0.221138,0.430592 0,0.0078 0.01616,0.05214 0.03806,0.09835 0.0201,0.0464 0.04434,0.116845 0.05248,0.154903 0.008,0.03833 0.02217,0.07852 0.02998,0.09047 0.008,0.01022 0.02631,0.07438 0.0404,0.140881 0.01202,0.06623 0.02818,0.134874 0.03419,0.150765 0.0081,0.01616 0.02604,0.10249 0.04227,0.191159 0.02404,0.132737 0.02998,0.633502 0.03806,2.849692 l 0.0081,2.690782 h -2.194023 l -0.002,-0.237296 c -0.0021,-0.128597 -0.0081,-0.315616 -0.01623,-0.414233 l -0.01202,-0.180944 -0.05835,0.08032 c -0.09234,0.122855 -0.396205,0.412297 -0.516723,0.492687 -0.26367,0.173131 -0.333844,0.215129 -0.406355,0.239432 -0.04434,0.01202 -0.10249,0.03626 -0.130666,0.05208 -0.03025,0.01416 -0.104561,0.0384 -0.165053,0.05041 -0.06029,0.01402 -0.120517,0.03232 -0.130666,0.04013 -0.10249,0.07645 -1.369562,0.07458 -1.46818,-0.0018 -0.0099,-0.0081 -0.08239,-0.02604 -0.160913,-0.0402 -0.07638,-0.01402 -0.166921,-0.03626 -0.20104,-0.05241 -0.03205,-0.01402 -0.118715,-0.05034 -0.188889,-0.07852 a 2.8323323,2.8323323 0 0 1 -0.237319,-0.116575 3.3294928,3.3294928 0 0 0 -0.16305,-0.09441 c -0.08446,-0.04641 -0.112639,-0.07251 -0.341856,-0.301796 -0.235293,-0.235226 -0.26554,-0.267275 -0.26554,-0.289443 0,-0.0081 -0.02611,-0.05241 -0.05608,-0.09862 -0.03239,-0.04613 -0.07852,-0.130667 -0.102824,-0.185149 -0.02397,-0.05608 -0.05628,-0.122588 -0.07037,-0.150765 -0.01589,-0.02818 -0.03805,-0.10042 -0.05214,-0.160913 -0.01409,-0.06029 -0.03205,-0.120517 -0.0402,-0.130666 -0.02217,-0.02818 -0.06049,-0.313814 -0.06049,-0.438471 0,-0.05809 -0.0099,-0.116578 -0.0219,-0.12853 -0.02424,-0.02431 -0.0183,-0.104627 0.04406,-0.589502 0.01202,-0.09441 0.03025,-0.180942 0.03833,-0.190891 0.0081,-0.01202 0.02604,-0.06443 0.03806,-0.118648 0.02611,-0.104627 0.08066,-0.241303 0.136942,-0.34406 0.01803,-0.03412 0.04207,-0.08032 0.05428,-0.10456 0.01202,-0.02604 0.02818,-0.04613 0.03806,-0.04613 0.0081,0 0.01409,-0.01202 0.01409,-0.02611 0,-0.02217 0.221205,-0.309807 0.259531,-0.335913 0.008,-0.006 0.02217,-0.02604 0.02818,-0.04621 0.008,-0.02217 0.03205,-0.04219 0.05421,-0.0482 0.02217,-0.006 0.0402,-0.0183 0.0402,-0.02638 0,-0.02003 0.337985,-0.285571 0.452492,-0.351872 0.08239,-0.05027 0.26761,-0.144688 0.537022,-0.273552 0.03833,-0.02003 0.414167,-0.140615 0.579286,-0.186952 0.06022,-0.01803 0.178941,-0.04234 0.261333,-0.05428 0.08239,-0.01409 0.160913,-0.03025 0.171062,-0.03806 0.01202,-0.0081 0.132536,-0.02638 0.271548,-0.03839 0.138746,-0.01202 0.309608,-0.03205 0.382051,-0.04227 0.285638,-0.04219 1.288972,-0.03412 1.395668,0.01022 0.03626,0.01589 0.03806,0.008 0.02404,-0.163049 -0.0079,-0.09855 -0.02197,-0.18308 -0.03005,-0.189089 -0.01015,-0.006 -0.02217,-0.04406 -0.03025,-0.08446 -0.01409,-0.07438 -0.09054,-0.237096 -0.162783,-0.347933 -0.04641,-0.07017 -0.241503,-0.271549 -0.26367,-0.271549 -0.0078,0 -0.042,-0.02003 -0.07638,-0.04613 -0.08847,-0.06443 -0.231087,-0.128597 -0.317686,-0.144755 -0.04227,-0.0081 -0.07645,-0.02217 -0.07645,-0.03025 0,-0.0884 -1.29912,-0.102489 -1.689251,-0.01596 -0.05034,0.0099 -0.166921,0.03205 -0.261399,0.04828 -0.09468,0.01589 -0.18909,0.03805 -0.211257,0.04827 -0.02217,0.0099 -0.09441,0.02818 -0.160912,0.04012 -0.06623,0.01202 -0.138746,0.03025 -0.160913,0.0402 -0.02217,0.01015 -0.10249,0.03232 -0.17894,0.05034 -0.07638,0.01803 -0.148895,0.03805 -0.160913,0.0482 -0.01202,0.0081 -0.06623,0.02818 -0.122588,0.04227 -0.05421,0.01409 -0.110569,0.03419 -0.120718,0.04227 -0.01202,0.0081 -0.0663,0.02604 -0.120784,0.0402 -0.05608,0.01202 -0.134607,0.04013 -0.174735,0.06022 -0.04226,0.02217 -0.08059,0.03833 -0.0866,0.03833 -0.006,0 -0.01015,-0.420444 -0.01015,-0.933162 0,-0.72611 0.0062,-0.937166 0.02631,-0.953324 0.01409,-0.01202 0.07044,-0.03205 0.124658,-0.04613 0.05635,-0.01202 0.110636,-0.03025 0.120518,-0.03833 0.01229,-0.0081 0.07852,-0.03205 0.151031,-0.05034 0.07224,-0.0201 0.140547,-0.04207 0.150763,-0.05007 0.01202,-0.01022 0.07431,-0.02638 0.138746,-0.0402 0.0665,-0.01402 0.134873,-0.03232 0.150764,-0.04227 0.01823,-0.008 0.10062,-0.03025 0.18308,-0.0482 a 3.9360205,3.9360205 0 0 0 0.191159,-0.04227 c 0.0219,-0.0063 0.134606,-0.02424 0.251185,-0.04047 0.116845,-0.01589 0.239432,-0.03805 0.271481,-0.0482 0.116846,-0.03606 1.170524,-0.10249 1.407887,-0.0884 0.06623,0.0039 0.211256,0.01202 0.321825,0.01803 z M 8.6406823,19.085725 v 4.001921 h -2.3528 V 15.08347 h 2.3528 z M 26.418941,17.577151 c 0,2.381243 0.01015,2.841881 0.05842,2.906245 0.0099,0.01 0.02217,0.05007 0.03025,0.08847 0.02818,0.150697 0.158843,0.370099 0.307471,0.518794 0.07852,0.08052 0.166922,0.150897 0.195098,0.158776 0.03025,0.0063 0.05241,0.0183 0.05241,0.02638 0,0.0078 0.07044,0.03599 0.156773,0.0641 0.128863,0.04047 0.197168,0.04827 0.398276,0.04827 0.140882,0 0.263403,-0.0099 0.291579,-0.0219 0.02604,-0.01402 0.0884,-0.03419 0.138746,-0.04827 0.05034,-0.01402 0.140881,-0.05628 0.201107,-0.09675 0.112639,-0.07224 0.321826,-0.265205 0.321826,-0.297589 0,-0.0099 0.02818,-0.05421 0.06029,-0.09648 0.03412,-0.04434 0.06049,-0.0884 0.06049,-0.100421 0,-0.01229 0.01803,-0.05448 0.03806,-0.09468 0.02217,-0.0402 0.0462,-0.1085 0.05428,-0.150765 0.006,-0.04433 0.02003,-0.0884 0.03025,-0.09855 0.05034,-0.06443 0.05842,-0.47052 0.05842,-2.829662 v -2.469644 h 2.352799 v 8.004243 h -1.114105 c -0.870664,0 -1.120247,-0.006 -1.132198,-0.02611 -0.0081,-0.01202 -0.01803,-0.203178 -0.02217,-0.422313 -0.004,-0.217199 -0.01409,-0.39614 -0.02197,-0.39614 -0.008,0 -0.03232,0.02404 -0.05628,0.05421 -0.112705,0.152901 -0.289776,0.325832 -0.567267,0.555049 -0.04019,0.03205 -0.122588,0.07638 -0.303597,0.164852 -0.08246,0.04013 -0.172932,0.08653 -0.201109,0.10062 -0.02818,0.01409 -0.104559,0.03626 -0.171128,0.05035 -0.06623,0.01409 -0.124657,0.03205 -0.130666,0.04019 -0.02003,0.03005 -0.376042,0.06022 -0.727914,0.06022 -0.345862,0 -0.627493,-0.02404 -0.709952,-0.05842 -0.02217,-0.0099 -0.09855,-0.03412 -0.171062,-0.05214 -0.07224,-0.01803 -0.138746,-0.04227 -0.150763,-0.05034 -0.0099,-0.0081 -0.05815,-0.02818 -0.104561,-0.04227 -0.04827,-0.01202 -0.08633,-0.02998 -0.08633,-0.03806 0,-0.0081 -0.03626,-0.02604 -0.08059,-0.04019 -0.04407,-0.01402 -0.08039,-0.03232 -0.08039,-0.04039 0,-0.0078 -0.02217,-0.02404 -0.0482,-0.03606 -0.172932,-0.07845 -0.565198,-0.446483 -0.730051,-0.683779 -0.100687,-0.144755 -0.25559,-0.434532 -0.28764,-0.540961 -0.01202,-0.04227 -0.03626,-0.10456 -0.05034,-0.136876 -0.01409,-0.03419 -0.03805,-0.10643 -0.05034,-0.160913 -0.01202,-0.05608 -0.03005,-0.114575 -0.0402,-0.134605 -0.0099,-0.0183 -0.02818,-0.112706 -0.04012,-0.211258 -0.01202,-0.09655 -0.03419,-0.195098 -0.04621,-0.217265 -0.01823,-0.03005 -0.02631,-0.748077 -0.03025,-2.891957 l -0.006,-2.849692 h 2.354935 z m 0,0" style="fill:#000000;fill-opacity:1;fill-rule:nonzero;stroke:none;stroke-width:0.0667688" id="path1" />
    <path d="m 19.470513,19.530138 c -0.09829,0.0099 -0.19897,0.02604 -0.221138,0.03606 -0.02217,0.01222 -0.09441,0.03018 -0.160913,0.04426 -0.06416,0.01202 -0.150763,0.03626 -0.190959,0.05428 -0.301794,0.130667 -0.448552,0.217266 -0.548972,0.321825 -0.09655,0.100688 -0.193296,0.287708 -0.209187,0.404286 -0.0042,0.04012 -0.0183,0.09254 -0.03025,0.114509 -0.02217,0.0464 -0.01409,0.189088 0.02217,0.376041 0.04012,0.203177 0.201108,0.450689 0.343725,0.52507 0.253521,0.130666 0.301796,0.150697 0.442678,0.172931 0.253187,0.03806 0.735993,0.01616 0.840552,-0.04019 0.01803,-0.01015 0.09261,-0.04434 0.164852,-0.07645 0.07251,-0.03412 0.166922,-0.08867 0.211257,-0.122855 0.04434,-0.03412 0.09441,-0.07431 0.112639,-0.0884 0.114508,-0.08633 0.325832,-0.436335 0.353941,-0.581089 0.006,-0.03626 0.02217,-0.07852 0.03419,-0.09468 0.01402,-0.01803 0.02404,-0.203177 0.02818,-0.534951 l 0.008,-0.506775 -0.108699,-0.01195 c -0.146892,-0.01823 -0.870665,-0.01202 -1.092071,0.0081 z m 0,0" style="fill:#000000;fill-opacity:1;fill-rule:nonzero;stroke:none;stroke-width:0.0667688" id="path2" />
  </g>
</svg>
