<?xml version="1.0" encoding="UTF-8" standalone="no"?>
<svg width="32" height="32" version="1.1" id="svg2" xmlns="http://www.w3.org/2000/svg" xmlns:svg="http://www.w3.org/2000/svg">
  <defs id="defs2" />
  <path id="path1" style="fill:#000000;fill-opacity:1;fill-rule:nonzero;stroke:none;stroke-width:0.0667688" d="m 16.65625,0.00585938 c -0.976143,-0.00701 -1.977969,-0.00354001 -2.744141,0.015625 -0.92121,0.0219 -1.597041,0.05447337 -2.835937,0.13085937 C 10.503162,0.18653375 9.877974,0.237183 9.4375,0.28125 9.326931,0.29327 9.0967102,0.31588125 8.9257812,0.33203125 c -0.7179649,0.07044 -1.7840688,0.2048 -2.2324218,0.28125 -0.09468,0.01616 -0.234247,0.0387713 -0.3125,0.0507813 -0.07645,0.01015 -0.2123123,0.0326081 -0.3007813,0.0488281 -0.0884,0.01616 -0.2376202,0.0446669 -0.3320312,0.0605469 C 5.4160059,0.8297875 4.851006,0.94503337 4.53125,1.0214844 4.44258,1.0436544 4.2842475,1.0811587 4.1796875,1.1054688 4.0750605,1.1294388 3.980767,1.1522269 3.96875,1.1542969 3.379248,1.2949119 2.7922189,1.5793036 2.3417969,1.9472656 1.9033259,2.3032776 1.5116211,2.8780788 1.3144531,3.4492188 c -0.03205,0.08847 -0.064339,0.1790048 -0.074219,0.2011718 -0.03419,0.07645 -0.1823655,0.7189548 -0.28906252,1.2460938 -0.01589,0.0884 -0.0443869,0.2204577 -0.0605469,0.2929687 -0.01623,0.07224 -0.0385744,0.198791 -0.0527344,0.28125 -0.01222,0.08239 -0.0269594,0.1826452 -0.0371094,0.2207031 -0.03025,0.1148421 -0.15390188,0.8996131 -0.23242187,1.46875 -0.07638,0.55111 -0.12585388,0.9513339 -0.16992188,1.3574219 -0.02217,0.198971 -0.0448981,0.3933166 -0.0488281,0.4316407 -0.006,0.03806 -0.0249488,0.2324016 -0.0429688,0.4316406 -0.01616,0.19897 -0.0385012,0.4422817 -0.0507812,0.5429687 -0.04227,0.3698319 -0.14713875,1.9828029 -0.19921876,3.1191409 -0.04019999,0.842422 -0.06682437,2.645401 -0.05273437,3.628906 0.01409,1.226676 0.04408563,2.323027 0.07226562,2.705078 0.01022001,0.154704 0.03095876,0.481303 0.04296875,0.724609 0.01202,0.243305 0.0269594,0.554615 0.0371094,0.69336 0.0462,0.695864 0.0836025,1.15212 0.1015625,1.296875 0.01022,0.08867 0.0326781,0.324583 0.0488281,0.521484 0.01616,0.197168 0.0406413,0.431014 0.0507813,0.521485 0.01202,0.09054 0.0349012,0.286587 0.0507812,0.435546 0.05034,0.476529 0.0889788,0.788777 0.12109376,0.996094 0.01616,0.110569 0.0446669,0.299288 0.0605469,0.421875 0.05842,0.442343 0.12483875,0.873175 0.19921875,1.267578 0.01616,0.0884 0.0423269,0.235669 0.0605469,0.330079 0.03419,0.201041 0.11356987,0.602214 0.16992182,0.855468 0.192963,0.887091 0.2766923,1.15129 0.5039063,1.587891 0.06229,0.120518 0.1434325,0.262157 0.1796875,0.3125 0.03412,0.05034 0.085218,0.12183 0.1113281,0.160156 0.114708,0.170861 0.4420369,0.505903 0.6230469,0.634766 0.02998,0.0219 0.088893,0.06344 0.1269531,0.09375 0.04046,0.03205 0.077741,0.05664 0.087891,0.05664 0.0081,0 0.029042,0.01502 0.044922,0.03125 0.07852,0.07638 0.6300915,0.339782 0.8671875,0.410157 0.04433,0.01409 0.098929,0.0308 0.1210938,0.04102 0.05241,0.02404 0.3490001,0.0991 0.7050781,0.179688 0.154904,0.03626 0.3134365,0.07383 0.3515625,0.08398 0.09254,0.02404 0.6746944,0.140113 1.1152344,0.220703 0.253255,0.04613 0.7471016,0.125587 1.0566406,0.169922 0.116646,0.01589 0.2657303,0.03682 0.3320313,0.04883 0.2433056,0.04227 1.2494273,0.160477 1.8808593,0.220703 0.227215,0.02217 0.5064689,0.04861 0.6230469,0.06055 0.18909,0.0201 0.3815598,0.03527 1.3066408,0.101563 0.138746,0.01015 0.45381,0.0288 0.703125,0.04102 0.24938,0.01202 0.598319,0.02891 0.77539,0.03906 1.431856,0.08239 5.525741,0.08239 6.9375,0 0.177071,-0.01202 0.52601,-0.02704 0.775391,-0.03906 0.428255,-0.02003 0.584231,-0.02974 1.255859,-0.08008 0.860649,-0.06623 2.126433,-0.189774 2.554688,-0.25 0.122588,-0.01803 0.33391,-0.04622 0.472656,-0.06445 0.512785,-0.06623 1.216993,-0.173733 1.619141,-0.248047 0.440541,-0.08059 1.022626,-0.196666 1.115234,-0.220703 0.03806,-0.01015 0.198545,-0.04772 0.353516,-0.08398 0.347865,-0.07852 0.64891,-0.155651 0.703125,-0.179688 a 11.671185,11.671185 0 0 1 0.201172,-0.07031 c 0.16485,-0.05421 0.711675,-0.313088 0.757812,-0.357422 0.01409,-0.01409 0.0537,-0.04409 0.08789,-0.06445 0.156974,-0.09835 0.230095,-0.154339 0.373047,-0.283203 0.160913,-0.146892 0.383283,-0.388243 0.4375,-0.470703 0.01803,-0.02818 0.06729,-0.09611 0.107421,-0.150391 0.04227,-0.05628 0.07617,-0.107156 0.07617,-0.115235 0,-0.0081 0.03226,-0.06471 0.07031,-0.125 0.0384,-0.06022 0.08522,-0.148991 0.103515,-0.197265 0.02003,-0.04613 0.03873,-0.09559 0.04687,-0.105469 0.03806,-0.05034 0.18001,-0.452473 0.240235,-0.679687 0.09468,-0.351872 0.271504,-1.181885 0.335937,-1.574219 0.01616,-0.100421 0.03305,-0.194779 0.03906,-0.210938 0.01823,-0.04433 0.130116,-0.733823 0.230469,-1.4375 0.02217,-0.154903 0.04477,-0.309681 0.05078,-0.341796 0.01623,-0.09261 0.08683,-0.709392 0.11914,-1.035157 0.01589,-0.160913 0.03877,-0.347761 0.05078,-0.414062 0.01229,-0.0665 0.03463,-0.283185 0.05078,-0.482422 0.01616,-0.198972 0.03888,-0.44435 0.04883,-0.542969 0.01202,-0.10042 0.02908,-0.328573 0.04102,-0.511719 0.01202,-0.183081 0.03108,-0.409295 0.04102,-0.503906 0.01222,-0.09448 0.03268,-0.441663 0.04883,-0.773437 0.01823,-0.331975 0.03877,-0.739511 0.05078,-0.904297 0.09047,-1.46217 0.09047,-5.300354 0,-6.808594 -0.01022,-0.171129 -0.02705,-0.506777 -0.03906,-0.744141 -0.01222,-0.237363 -0.03086,-0.550474 -0.04102,-0.693359 -0.01202,-0.144755 -0.03831,-0.501473 -0.06055,-0.794922 -0.02217,-0.293649 -0.04477,-0.5692141 -0.05078,-0.6132811 -0.006,-0.0444 -0.0229,-0.2386116 -0.03906,-0.4316407 -0.01616,-0.192961 -0.03502,-0.3742347 -0.04102,-0.4023437 -0.006,-0.02818 -0.02862,-0.2131384 -0.05078,-0.4121094 -0.05208,-0.480735 -0.114817,-1.0119227 -0.128906,-1.0742187 -0.006,-0.02818 -0.02862,-0.1883967 -0.05078,-0.3535156 -0.09855,-0.7519511 -0.282414,-1.7998459 -0.439454,-2.5136719 -0.02217,-0.100687 -0.05791,-0.2647313 -0.08008,-0.3632813 -0.05635,-0.257461 -0.122631,-0.516296 -0.144531,-0.5625 -0.01015,-0.02217 -0.02888,-0.076755 -0.04297,-0.1210937 C 30.678326,3.3806039 30.456677,2.8832065 30.400391,2.8046875 30.392291,2.7926675 30.326454,2.698311 30.257812,2.59375 30.115126,2.378555 29.750585,1.9968515 29.53125,1.8359375 29.096986,1.5161815 28.613521,1.2993174 27.990234,1.1464844 A 29.440499,29.440499 0 0 1 27.667969,1.0664062 C 27.593589,1.0445062 27.444756,1.0116205 27.125,0.9453125 A 26.461609,26.461609 0 0 1 26.853516,0.8867187 c -0.388128,-0.09441 -1.650266,-0.29973787 -2.472657,-0.40429687 -0.165119,-0.0201 -0.329095,-0.0429813 -0.363281,-0.0507813 -0.06049,-0.01229 -0.350252,-0.0411924 -0.943359,-0.0996094 C 22.909101,0.31587125 22.680881,0.2914 22.570312,0.28125 22.459743,0.26923 22.261443,0.25050125 22.128906,0.23828125 c -0.132803,-0.0099 -0.351639,-0.0272394 -0.484375,-0.0371094 -0.450489,-0.03833 -1.700653,-0.110312 -2.392578,-0.14062501 -0.668756,-0.029175 -1.61956,-0.04767749 -2.595703,-0.05468746 z M 4.4902344,13.587891 c 0.118648,-0.01202 0.5344399,0.0052 0.5605468,0.02344 0.01202,0.0099 0.07075,0.02895 0.1289063,0.04297 0.108767,0.02611 0.2625111,0.09549 0.3769531,0.171875 0.09054,0.06029 0.3037061,0.290503 0.3457032,0.371094 0.02037,0.0402 0.042818,0.07602 0.048828,0.08203 0.0063,0.006 0.022902,0.0455 0.039063,0.08984 0.01409,0.04406 0.032749,0.09168 0.042969,0.101562 0.02604,0.03833 0.056641,0.275988 0.056641,0.453125 0,0.172932 -0.026437,0.376791 -0.060547,0.451172 -0.108499,0.249315 -0.1621521,0.331541 -0.2988281,0.476562 -0.1267941,0.130668 -0.1786326,0.17133 -0.3515626,0.25586 -0.1408829,0.07037 -0.2399894,0.105469 -0.3203124,0.113281 -0.06443,0.0081 -0.1209432,0.0231 -0.1269532,0.03125 -0.01402,0.02424 -0.4511719,0.02424 -0.4511718,0 0,-0.0081 -0.050799,-0.02317 -0.1152344,-0.03125 -0.06229,-0.0078 -0.1396422,-0.02497 -0.1738282,-0.03906 a 2.0696991,2.0696991 0 0 0 -0.1328124,-0.05469 c -0.03833,-0.01402 -0.074068,-0.0311 -0.080078,-0.03711 -0.006,-0.008 -0.036133,-0.02487 -0.070312,-0.04102 -0.116579,-0.05822 -0.3593135,-0.325832 -0.4296875,-0.472656 -0.03832,-0.07845 -0.073834,-0.155984 -0.083984,-0.171875 -0.06837,-0.136876 -0.079785,-0.759542 -0.015625,-0.904297 0.0183,-0.03833 0.044514,-0.102233 0.058594,-0.140625 0.01409,-0.03806 0.029146,-0.07413 0.035156,-0.08008 0.006,-0.006 0.030574,-0.04774 0.052734,-0.0918 0.03833,-0.07458 0.2763609,-0.332031 0.3105469,-0.332031 0.008,0 0.026926,-0.01329 0.041016,-0.03125 0.03806,-0.04233 0.2328475,-0.135836 0.3515625,-0.166016 0.05628,-0.01416 0.118458,-0.03477 0.140625,-0.04492 0.02217,-0.0099 0.076956,-0.01938 0.1210938,-0.02539 z m 22.4746096,0.410156 v 1.015625 1.015625 H 23.0625 v -1.359375 l 0.21875,-0.03516 c 0.480668,-0.07431 0.778847,-0.1247 0.796875,-0.136719 0.01202,-0.0081 0.112087,-0.02504 0.222656,-0.03906 0.110569,-0.01409 0.210754,-0.03098 0.220703,-0.03906 0.01222,-0.0078 0.106311,-0.02694 0.210938,-0.04102 0.10456,-0.01202 0.240221,-0.03678 0.300781,-0.05273 0.06022,-0.01402 0.188792,-0.03493 0.283203,-0.04687 0.09468,-0.01229 0.18877,-0.03092 0.210938,-0.03906 0.02217,-0.0099 0.122085,-0.02692 0.220703,-0.04101 0.10062,-0.01202 0.213628,-0.03075 0.251953,-0.04297 0.03806,-0.0099 0.181567,-0.03831 0.320312,-0.06055 0.138813,-0.02217 0.319951,-0.05226 0.402344,-0.06641 0.08239,-0.01616 0.171159,-0.02723 0.197266,-0.0293 z m -16.666016,0.697265 c 0.0081,0.0039 0.01367,0.551363 0.01367,1.214844 v 1.205078 h 2.011719 v 1.789063 h -2.013672 l 0.0078,1.865234 c 0.0062,2.009073 0.0025,1.909005 0.111329,2.15625 0.08239,0.191225 0.314518,0.387273 0.515624,0.435547 0.03419,0.0081 0.07368,0.02295 0.08984,0.03516 0.03806,0.03005 0.852416,0.0302 0.888672,-0.002 0.01589,-0.01202 0.08768,-0.02708 0.164063,-0.03516 l 0.134765,-0.01367 v 1.763672 l -0.05469,0.02344 c -0.05007,0.0221 -0.27997,0.05757 -0.597657,0.0957 -0.452491,0.05241 -1.277897,0.05823 -1.326171,0.0078 -0.01202,-0.0099 -0.04397,-0.01758 -0.07422,-0.01758 -0.07852,0 -0.4034975,-0.0601 -0.4277345,-0.07813 -0.01202,-0.008 -0.066689,-0.02908 -0.1230469,-0.04102 -0.05421,-0.01409 -0.1088757,-0.03125 -0.1210937,-0.03906 -0.0099,-0.01015 -0.055268,-0.02888 -0.099609,-0.04297 -0.04433,-0.01402 -0.085787,-0.0311 -0.091797,-0.03711 -0.006,-0.006 -0.041758,-0.02862 -0.080078,-0.05078 -0.166923,-0.0884 -0.2160185,-0.120666 -0.3046875,-0.195313 -0.05214,-0.04219 -0.1011801,-0.07813 -0.1113281,-0.07813 -0.0201,-0.0021 -0.1724508,-0.169499 -0.2929688,-0.322266 -0.09254,-0.118715 -0.2291866,-0.346045 -0.2753906,-0.46289 -0.01616,-0.03806 -0.035016,-0.07407 -0.041016,-0.08008 -0.0081,-0.006 -0.028738,-0.06811 -0.048828,-0.140625 -0.01823,-0.07224 -0.042584,-0.147755 -0.052734,-0.169922 -0.0099,-0.02217 -0.032948,-0.11277 -0.048828,-0.201172 a 9.6338024,9.6338024 0 0 0 -0.054687,-0.251953 c -0.01409,-0.06022 -0.02524,-0.768174 -0.03125,-2.107422 l -0.00781,-2.015625 H 6.7929688 v -1.789063 h 1.1660156 v -2.027343 l 0.1367187,-0.01563 c 0.07438,-0.0079 0.146101,-0.02122 0.15625,-0.0293 0.01202,-0.0081 0.1101341,-0.02686 0.2207031,-0.04102 0.110569,-0.01402 0.2107542,-0.03322 0.2207032,-0.04101 0.01202,-0.0081 0.138365,-0.03088 0.28125,-0.04883 0.144755,-0.02037 0.271368,-0.0427 0.28125,-0.05078 0.01202,-0.0081 0.080101,-0.02133 0.1523437,-0.02734 a 3.3196777,3.3196777 0 0 0 0.28125,-0.04687 c 0.215196,-0.04434 0.5913469,-0.102011 0.6093749,-0.0918 z m 6.359375,2.210938 c 0.06623,0.0039 0.211697,0.01157 0.322266,0.01758 0.281431,0.01616 0.599077,0.05228 0.623047,0.07031 0.01202,0.008 0.05903,0.02133 0.109375,0.02734 0.114709,0.01823 0.395729,0.101617 0.564453,0.169922 0.140882,0.05642 0.453746,0.213446 0.501953,0.253906 0.01623,0.01202 0.0519,0.03467 0.08008,0.04688 0.02811,0.01409 0.117126,0.0837 0.195313,0.152343 0.07852,0.07037 0.150274,0.130893 0.160156,0.134766 0.03032,0.01409 0.388672,0.448686 0.388672,0.472656 0,0.006 0.01885,0.03838 0.04102,0.06836 0.04219,0.06049 0.220703,0.409474 0.220703,0.431641 0,0.0078 0.01716,0.05145 0.03906,0.09766 0.0201,0.0464 0.04459,0.116239 0.05273,0.154297 0.008,0.03833 0.02149,0.07985 0.0293,0.0918 0.008,0.01022 0.02693,0.07412 0.04102,0.140625 0.01202,0.06623 0.02719,0.1345 0.0332,0.150391 0.0081,0.01616 0.02674,0.102737 0.04297,0.191406 0.02404,0.132737 0.02903,0.633419 0.03711,2.849609 l 0.0078,2.691407 h -2.19336 l -0.002,-0.238282 c -0.0021,-0.128597 -0.0075,-0.315445 -0.01563,-0.414062 l -0.01367,-0.181641 -0.05664,0.08203 c -0.09234,0.122855 -0.397061,0.411797 -0.517579,0.492187 -0.26367,0.173131 -0.333739,0.213978 -0.40625,0.238281 -0.04434,0.01202 -0.102683,0.03692 -0.130859,0.05273 -0.03025,0.01416 -0.10357,0.03877 -0.164062,0.05078 -0.06029,0.01402 -0.120711,0.03125 -0.13086,0.03906 -0.10249,0.07645 -1.370132,0.07638 -1.46875,0 -0.0099,-0.0081 -0.08163,-0.02686 -0.160156,-0.04102 -0.07638,-0.01402 -0.167053,-0.03658 -0.201172,-0.05273 -0.03205,-0.01402 -0.119279,-0.04995 -0.189453,-0.07813 a 2.8323323,2.8323323 0 0 1 -0.238281,-0.117187 3.3294928,3.3294928 0 0 0 -0.16211,-0.09375 c -0.08446,-0.04641 -0.11258,-0.07345 -0.341797,-0.302734 -0.235293,-0.235227 -0.265625,-0.266895 -0.265625,-0.289063 0,-0.0081 -0.02667,-0.05145 -0.05664,-0.09766 -0.03239,-0.04613 -0.07726,-0.131065 -0.101563,-0.185547 -0.02397,-0.05608 -0.05622,-0.122214 -0.07031,-0.150391 -0.01589,-0.02818 -0.03864,-0.101616 -0.05274,-0.162109 -0.01409,-0.06029 -0.03286,-0.120711 -0.04101,-0.13086 -0.02217,-0.02818 -0.06055,-0.312842 -0.06055,-0.4375 0,-0.05809 -0.0095,-0.116954 -0.02148,-0.128906 -0.02424,-0.02431 -0.01744,-0.104969 0.04492,-0.589844 0.01202,-0.09441 0.02903,-0.179504 0.03711,-0.189453 0.0081,-0.01202 0.02704,-0.06492 0.03906,-0.11914 0.02611,-0.104627 0.08044,-0.240993 0.136719,-0.34375 0.01803,-0.03412 0.04248,-0.08123 0.05469,-0.105469 0.01202,-0.02604 0.02723,-0.04687 0.03711,-0.04687 0.0081,0 0.01367,-0.0113 0.01367,-0.02539 0,-0.02217 0.221439,-0.309831 0.259765,-0.335937 0.008,-0.006 0.02329,-0.0267 0.0293,-0.04687 0.008,-0.02217 0.03057,-0.04087 0.05274,-0.04687 0.02217,-0.006 0.04101,-0.01926 0.04101,-0.02734 0,-0.02003 0.338618,-0.285261 0.453125,-0.351562 0.08239,-0.05027 0.267698,-0.144574 0.53711,-0.273438 0.03833,-0.02003 0.413006,-0.141163 0.578125,-0.1875 0.06022,-0.01803 0.179326,-0.04079 0.261718,-0.05273 0.08239,-0.01409 0.161726,-0.03125 0.171875,-0.03906 0.01202,-0.0081 0.132473,-0.02705 0.271485,-0.03906 0.138746,-0.01202 0.308416,-0.0308 0.380859,-0.04102 0.285638,-0.04219 1.289789,-0.03457 1.396484,0.0098 0.03626,0.01589 0.03746,0.0089 0.02344,-0.16211 -0.0079,-0.09855 -0.02122,-0.183444 -0.0293,-0.189453 -0.01015,-0.006 -0.02317,-0.04554 -0.03125,-0.08594 -0.01409,-0.07438 -0.08987,-0.236819 -0.162109,-0.347656 -0.04641,-0.07017 -0.241505,-0.271485 -0.263672,-0.271485 -0.0078,0 -0.04179,-0.01882 -0.07617,-0.04492 -0.08847,-0.06443 -0.23176,-0.128373 -0.318359,-0.144531 -0.04227,-0.0081 -0.07617,-0.02317 -0.07617,-0.03125 0,-0.0884 -1.299322,-0.102154 -1.689453,-0.01563 -0.05034,0.0099 -0.167241,0.0326 -0.261719,0.04883 -0.09468,0.01589 -0.188771,0.03665 -0.210938,0.04687 -0.02217,0.0099 -0.09365,0.02908 -0.160156,0.04102 -0.06623,0.01202 -0.139942,0.02911 -0.162109,0.03906 -0.02217,0.01015 -0.101285,0.03276 -0.177735,0.05078 -0.07638,0.01803 -0.150091,0.03868 -0.162109,0.04883 -0.01202,0.0081 -0.06474,0.02888 -0.121094,0.04297 -0.05421,0.01409 -0.110945,0.03294 -0.121094,0.04102 -0.01202,0.0081 -0.06661,0.02686 -0.121093,0.04102 -0.05608,0.01202 -0.1337,0.04046 -0.173828,0.06055 -0.04226,0.02217 -0.08188,0.03711 -0.08789,0.03711 -0.006,0 -0.0098,-0.420876 -0.0098,-0.933594 0,-0.72611 0.0053,-0.936967 0.02539,-0.953125 0.01409,-0.01202 0.07078,-0.03084 0.125,-0.04492 0.05635,-0.01202 0.111212,-0.03098 0.121094,-0.03906 0.01229,-0.0081 0.07788,-0.03249 0.15039,-0.05078 0.07224,-0.0201 0.140175,-0.04083 0.150391,-0.04883 0.01202,-0.01022 0.07619,-0.0272 0.140625,-0.04102 0.0665,-0.01402 0.1345,-0.03302 0.150391,-0.04297 0.01823,-0.008 0.09918,-0.02893 0.18164,-0.04687 a 3.9360205,3.9360205 0 0 0 0.191406,-0.04297 c 0.0219,-0.0063 0.135375,-0.02479 0.251954,-0.04102 0.116845,-0.01589 0.239435,-0.03673 0.271484,-0.04687 0.116846,-0.03606 1.17084,-0.101981 1.408203,-0.08789 z M 3.5351562,17.115234 h 2.3535157 v 4.001954 4.001953 H 3.5351562 Z m 17.7773438,0 h 2.353516 v 2.492188 c 0,2.381243 0.01032,2.841886 0.05859,2.90625 0.0099,0.01 0.02317,0.05144 0.03125,0.08984 0.02818,0.150697 0.158013,0.368883 0.306641,0.517578 0.07852,0.08052 0.167137,0.152277 0.195312,0.160156 0.03025,0.0063 0.05273,0.01731 0.05273,0.02539 0,0.0078 0.06992,0.03634 0.15625,0.06445 0.128863,0.04047 0.197329,0.04883 0.398437,0.04883 0.140882,0 0.26284,-0.01144 0.291016,-0.02344 0.02604,-0.01402 0.08833,-0.0328 0.138672,-0.04687 0.05034,-0.01402 0.140946,-0.05719 0.201172,-0.09766 0.112639,-0.07224 0.322265,-0.264491 0.322265,-0.296875 0,-0.0099 0.02844,-0.05539 0.06055,-0.09766 0.03412,-0.04434 0.06055,-0.08759 0.06055,-0.09961 0,-0.01229 0.01708,-0.0555 0.03711,-0.0957 0.02217,-0.0402 0.04661,-0.108125 0.05469,-0.15039 0.006,-0.04433 0.02103,-0.08751 0.03125,-0.09766 0.05034,-0.06443 0.05859,-0.470936 0.05859,-2.830078 v -2.46875 h 2.351562 v 8.003907 h -1.113281 c -0.870664,0 -1.120861,-0.0072 -1.132813,-0.02734 -0.0081,-0.01202 -0.01734,-0.20274 -0.02148,-0.421875 -0.004,-0.217199 -0.01556,-0.396484 -0.02344,-0.396484 -0.008,0 -0.03073,0.02452 -0.05469,0.05469 -0.112705,0.152901 -0.290868,0.32547 -0.568359,0.554687 -0.04019,0.03205 -0.121726,0.07754 -0.302735,0.166016 -0.08246,0.04013 -0.172995,0.08552 -0.201171,0.09961 -0.02818,0.01409 -0.105306,0.03669 -0.171876,0.05078 -0.06623,0.01409 -0.12485,0.03288 -0.130859,0.04102 -0.02003,0.03005 -0.37469,0.05859 -0.726562,0.05859 -0.345862,0 -0.628479,-0.02421 -0.710938,-0.05859 -0.02217,-0.0099 -0.09936,-0.03276 -0.171875,-0.05078 -0.07224,-0.01803 -0.138373,-0.04271 -0.15039,-0.05078 -0.0099,-0.0081 -0.0571,-0.02888 -0.103516,-0.04297 -0.04827,-0.01202 -0.08594,-0.02903 -0.08594,-0.03711 0,-0.0081 -0.0377,-0.02687 -0.08203,-0.04102 -0.04407,-0.01402 -0.08008,-0.03099 -0.08008,-0.03906 0,-0.0078 -0.0228,-0.02509 -0.04883,-0.03711 -0.172932,-0.07845 -0.563663,-0.446297 -0.728516,-0.683594 -0.100687,-0.144754 -0.257012,-0.434586 -0.289062,-0.541015 -0.01202,-0.04227 -0.03475,-0.104403 -0.04883,-0.136719 -0.01409,-0.03419 -0.03849,-0.105673 -0.05078,-0.160156 -0.01202,-0.05608 -0.03087,-0.114736 -0.04102,-0.134766 -0.0099,-0.0183 -0.02712,-0.112385 -0.03906,-0.210937 -0.01202,-0.09655 -0.03486,-0.196583 -0.04687,-0.21875 -0.01823,-0.03005 -0.02536,-0.746745 -0.0293,-2.890625 z m -4.021484,4.427735 c -0.226981,0.0018 -0.461563,0.0075 -0.572266,0.01758 -0.09829,0.0099 -0.200488,0.02709 -0.222656,0.03711 -0.02217,0.01222 -0.09365,0.02889 -0.160156,0.04297 -0.06416,0.01202 -0.151211,0.03667 -0.191407,0.05469 -0.301794,0.130667 -0.448408,0.217707 -0.548828,0.322266 -0.09655,0.100688 -0.193093,0.287719 -0.208984,0.404297 -0.0042,0.04012 -0.01735,0.09326 -0.0293,0.115234 -0.02217,0.0464 -0.01478,0.188047 0.02148,0.375 0.04012,0.203177 0.201133,0.45101 0.34375,0.525391 0.253521,0.130666 0.302478,0.149641 0.44336,0.171875 0.253187,0.03806 0.735284,0.01729 0.839843,-0.03906 0.01803,-0.01015 0.09182,-0.04406 0.164063,-0.07617 0.07251,-0.03412 0.166602,-0.08886 0.210937,-0.123047 0.04434,-0.03412 0.09505,-0.0738 0.113282,-0.08789 0.114508,-0.08633 0.325406,-0.437277 0.353515,-0.582031 0.006,-0.03626 0.02314,-0.07759 0.03516,-0.09375 0.01402,-0.01803 0.0232,-0.203382 0.02734,-0.535156 l 0.0078,-0.507813 -0.107422,-0.01172 c -0.07345,-0.0091 -0.292551,-0.01155 -0.519531,-0.0098 z" />
</svg>
