<svg width="32" height="32" xmlns="http://www.w3.org/2000/svg">
  <path style="fill:#000;fill-opacity:1;fill-rule:nonzero;stroke:none;stroke-width:.0667688" d="M16.656.006a91.416 91.416 0 0 0-2.744.015c-.921.022-1.597.055-2.836.131a44.34 44.34 0 0 0-2.15.18 42.22 42.22 0 0 0-2.846.38c-.088.017-.238.046-.332.061a23.211 23.211 0 0 0-1.568.332l-.211.05c-.59.14-1.177.424-1.627.792-.439.356-.83.931-1.028 1.502-.032.089-.064.18-.074.201-.034.077-.182.72-.289 1.246a8.56 8.56 0 0 1-.06.293 6.963 6.963 0 0 0-.053.282c-.012.082-.027.182-.037.22-.03.115-.154.9-.233 1.47-.076.55-.125.95-.17 1.357l-.048.431c-.006.038-.025.233-.043.432-.017.199-.039.442-.051.543-.042.37-.147 1.983-.2 3.119-.04.842-.066 2.645-.052 3.629.014 1.227.044 2.323.072 2.705.01.155.031.481.043.725.012.243.027.554.037.693.046.696.084 1.152.102 1.297.01.088.032.324.049.521a20.549 20.549 0 0 0 .101.957c.05.477.09.79.121.996.016.111.045.3.06.422.06.443.126.873.2 1.268l.06.33c.035.201.114.602.17.855.193.887.277 1.152.504 1.588.063.12.144.262.18.313l.111.16c.115.17.442.506.623.635.03.022.09.063.127.093.04.033.078.057.088.057.008 0 .03.015.045.031.079.077.63.34.867.41.045.015.1.031.122.042.052.024.349.099.705.18.155.035.313.073.351.083.093.024.675.14 1.115.22a35.6 35.6 0 0 0 1.39.22c.242.042 1.249.16 1.88.22.227.023.506.049.623.06.19.021.382.036 1.307.102.138.01.453.03.703.041l.775.04c1.432.082 5.526.082 6.938 0 .177-.012.526-.027.775-.04a59.82 59.82 0 0 0 3.81-.33c.123-.018.335-.046.473-.064a36.06 36.06 0 0 0 1.62-.248c.44-.08 1.022-.197 1.115-.22.038-.01.198-.049.353-.085.348-.078.65-.155.703-.18a11.671 11.671 0 0 1 .201-.07c.165-.054.712-.313.758-.357a.57.57 0 0 1 .088-.065c.157-.098.23-.154.373-.283.161-.147.383-.388.438-.47a3.97 3.97 0 0 1 .107-.15.647.647 0 0 0 .076-.116c0-.008.033-.065.07-.125.039-.06.086-.15.104-.197.02-.047.039-.096.047-.106.038-.05.18-.452.24-.68.095-.351.272-1.181.336-1.574.016-.1.033-.195.04-.21.017-.045.13-.735.23-1.438.022-.155.044-.31.05-.342.017-.093.087-.71.12-1.035.015-.161.038-.348.05-.414.013-.067.035-.283.051-.483.016-.199.039-.444.049-.543.012-.1.03-.328.041-.511.012-.183.031-.41.041-.504.012-.095.033-.442.049-.774.018-.332.039-.74.05-.904.091-1.462.091-5.3 0-6.809-.01-.17-.026-.506-.038-.744-.013-.237-.031-.55-.041-.693l-.061-.795c-.022-.294-.045-.57-.05-.613a17.842 17.842 0 0 1-.04-.432 7.474 7.474 0 0 0-.04-.402 10.718 10.718 0 0 1-.052-.412 29.432 29.432 0 0 0-.18-1.428c-.098-.752-.282-1.8-.439-2.514l-.08-.363a5.414 5.414 0 0 0-.144-.563 5.304 5.304 0 0 0-.365-.846c-.009-.011-.075-.106-.143-.21a3.972 3.972 0 0 0-.727-.758c-.434-.32-.917-.537-1.54-.69a29.44 29.44 0 0 1-.323-.08 9.092 9.092 0 0 0-.543-.12 26.462 26.462 0 0 1-.271-.06c-.389-.094-1.65-.299-2.473-.404a7.002 7.002 0 0 1-.363-.05c-.06-.013-.35-.042-.944-.1-.165-.016-.393-.04-.504-.05-.11-.013-.309-.031-.441-.044l-.484-.037c-.451-.038-1.701-.11-2.393-.14-.669-.03-1.62-.048-2.596-.055zM4.49 13.588c.119-.012.535.005.56.023.013.01.072.03.13.043.108.026.262.096.377.172.09.06.303.29.345.371.02.04.043.076.05.082a.468.468 0 0 1 .038.09.397.397 0 0 0 .043.102c.026.038.057.276.057.453 0 .173-.027.377-.06.451-.11.25-.163.332-.3.477a.99.99 0 0 1-.351.255.97.97 0 0 1-.32.114.367.367 0 0 0-.127.031c-.014.024-.452.024-.452 0 0-.008-.05-.023-.115-.031a.852.852 0 0 1-.174-.04 2.07 2.07 0 0 0-.132-.054.38.38 0 0 1-.08-.037.289.289 0 0 0-.07-.041c-.117-.058-.36-.326-.43-.473-.039-.078-.074-.156-.084-.172-.069-.137-.08-.76-.016-.904.018-.038.044-.102.059-.14a.428.428 0 0 1 .035-.08.693.693 0 0 0 .052-.093c.039-.074.277-.332.31-.332.009 0 .028-.013.042-.03.038-.043.233-.137.352-.167.056-.014.118-.035.14-.045a.606.606 0 0 1 .121-.025zm22.475.41V16.029h-3.902v-1.36l.218-.034c.48-.075.78-.125.797-.137.012-.008.112-.025.223-.039.11-.014.21-.031.22-.04.013-.007.107-.026.211-.04.105-.012.24-.037.301-.053.06-.014.189-.035.283-.047.095-.012.19-.03.211-.039.023-.01.122-.027.221-.04.1-.013.214-.032.252-.044.038-.01.182-.038.32-.06.14-.022.32-.053.403-.067A2.23 2.23 0 0 1 26.92 14zm-16.666.697c.008.004.013.552.013 1.215v1.205h2.012v1.79h-2.013l.007 1.865c.007 2.009.003 1.909.112 2.156a.852.852 0 0 0 .515.435.296.296 0 0 1 .09.035c.038.03.853.03.889-.002a.533.533 0 0 1 .164-.035l.135-.013v1.763l-.055.024c-.05.022-.28.057-.598.095-.452.053-1.278.059-1.326.008-.012-.01-.044-.017-.074-.017a2.28 2.28 0 0 1-.428-.078.513.513 0 0 0-.123-.041.734.734 0 0 1-.121-.04.373.373 0 0 0-.1-.042.433.433 0 0 1-.091-.038.753.753 0 0 0-.08-.05 1.398 1.398 0 0 1-.305-.196.533.533 0 0 0-.111-.078c-.02-.002-.173-.17-.293-.322a2.492 2.492 0 0 1-.276-.463.449.449 0 0 0-.04-.08.627.627 0 0 1-.05-.14 1.416 1.416 0 0 0-.052-.17 1.375 1.375 0 0 1-.05-.202 9.634 9.634 0 0 0-.054-.252c-.014-.06-.025-.768-.031-2.107l-.008-2.016H6.793v-1.789h1.166v-2.027l.137-.016a.642.642 0 0 0 .156-.03c.012-.007.11-.026.22-.04.111-.014.211-.033.221-.041.012-.008.139-.031.282-.049a2.01 2.01 0 0 0 .28-.05.58.58 0 0 1 .153-.028 3.32 3.32 0 0 0 .281-.047c.216-.044.592-.102.61-.092zm6.36 2.211.321.018c.282.016.6.052.624.07a.357.357 0 0 0 .109.027c.115.019.396.102.564.17a3.773 3.773 0 0 1 .582.301c.028.014.118.084.196.153.078.07.15.13.16.134.03.014.389.449.389.473a3.871 3.871 0 0 1 .262.5.55.55 0 0 0 .038.098c.02.046.045.116.053.154.008.038.022.08.03.092.007.01.026.074.04.14.012.067.028.135.034.15.008.017.026.103.043.192.024.133.029.634.037 2.85l.007 2.691h-2.193l-.002-.238a7.975 7.975 0 0 0-.016-.414l-.013-.182-.057.082a3.397 3.397 0 0 1-.517.492c-.264.174-.334.214-.407.239a.692.692 0 0 0-.13.052.883.883 0 0 1-.165.051.687.687 0 0 0-.13.04c-.103.076-1.37.076-1.47 0a.741.741 0 0 0-.16-.042 1.107 1.107 0 0 1-.2-.053 9.479 9.479 0 0 0-.19-.078 2.832 2.832 0 0 1-.238-.117 3.33 3.33 0 0 0-.162-.094c-.085-.046-.113-.073-.342-.302-.235-.236-.266-.267-.266-.29a.562.562 0 0 0-.056-.097 1.345 1.345 0 0 1-.102-.186 3.148 3.148 0 0 0-.07-.15.816.816 0 0 1-.053-.162.625.625 0 0 0-.041-.13c-.022-.03-.06-.314-.06-.438 0-.059-.01-.117-.022-.13-.024-.024-.018-.104.045-.59a.901.901 0 0 1 .037-.189.524.524 0 0 0 .039-.119c.026-.104.08-.24.137-.344l.054-.105c.012-.026.028-.047.037-.047.009 0 .014-.011.014-.025 0-.022.222-.31.26-.336a.11.11 0 0 0 .03-.047.081.081 0 0 1 .052-.047c.022-.006.041-.02.041-.027 0-.02.339-.286.453-.352.082-.05.268-.144.537-.273a8.52 8.52 0 0 1 .578-.188c.06-.018.18-.04.262-.053a.952.952 0 0 0 .172-.039c.012-.008.132-.027.271-.039.14-.012.309-.03.381-.04.286-.043 1.29-.035 1.397.01.036.015.037.008.023-.163a.75.75 0 0 0-.03-.19c-.01-.005-.022-.045-.03-.085a1.306 1.306 0 0 0-.162-.348c-.047-.07-.242-.272-.264-.272a.265.265 0 0 1-.076-.044.95.95 0 0 0-.319-.145c-.042-.008-.076-.023-.076-.031 0-.089-1.3-.102-1.69-.016-.05.01-.167.033-.261.049a1.434 1.434 0 0 0-.21.047.972.972 0 0 1-.161.04c-.066.013-.14.03-.162.04-.022.01-.101.033-.178.05a.8.8 0 0 0-.162.05.562.562 0 0 1-.121.043.605.605 0 0 0-.121.04.65.65 0 0 1-.121.042.878.878 0 0 0-.174.06.429.429 0 0 1-.088.037c-.006 0-.01-.42-.01-.933 0-.726.005-.937.026-.953a.484.484 0 0 1 .125-.045.479.479 0 0 0 .12-.04.805.805 0 0 1 .151-.05c.072-.02.14-.041.15-.05a.596.596 0 0 1 .141-.04.772.772 0 0 0 .15-.043c.019-.008.1-.029.182-.047a3.936 3.936 0 0 0 .191-.043 3.7 3.7 0 0 1 .252-.04c.117-.017.24-.038.272-.048.117-.036 1.17-.102 1.408-.088zm-13.124.21H5.89v8.003H3.535Zm17.777 0h2.354v2.491c0 2.382.01 2.842.059 2.907.01.01.023.051.03.09.029.15.159.368.307.517.079.08.168.152.196.16.03.007.053.018.053.026a1.09 1.09 0 0 0 .555.113c.14 0 .262-.012.29-.024a.912.912 0 0 1 .139-.046.856.856 0 0 0 .201-.098c.113-.072.322-.265.322-.297 0-.01.029-.055.06-.098a.338.338 0 0 0 .061-.1c0-.011.018-.055.038-.095a.615.615 0 0 0 .054-.15.233.233 0 0 1 .032-.098c.05-.064.058-.47.058-2.83v-2.469h2.352v8.004h-1.114c-.87 0-1.12-.007-1.132-.027a3.557 3.557 0 0 1-.022-.422 2.628 2.628 0 0 0-.023-.397c-.008 0-.031.025-.055.055-.113.153-.29.326-.568.555a1.95 1.95 0 0 1-.303.166c-.083.04-.173.085-.201.1a.963.963 0 0 1-.172.05.458.458 0 0 0-.131.041c-.02.03-.375.059-.727.059-.345 0-.628-.024-.71-.059a1.58 1.58 0 0 0-.172-.05.787.787 0 0 1-.15-.051.468.468 0 0 0-.104-.043c-.049-.012-.086-.03-.086-.037 0-.009-.038-.027-.082-.041-.044-.014-.08-.031-.08-.04 0-.007-.023-.025-.05-.037-.172-.078-.563-.446-.728-.683a2.941 2.941 0 0 1-.289-.541 1.327 1.327 0 0 0-.049-.137 1.192 1.192 0 0 1-.05-.16.735.735 0 0 0-.041-.135 1.126 1.126 0 0 1-.04-.21 1.01 1.01 0 0 0-.046-.22c-.019-.03-.026-.746-.03-2.89zm-4.021 4.427a9.013 9.013 0 0 0-.572.018c-.099.01-.2.027-.223.037a.911.911 0 0 1-.16.043 1.065 1.065 0 0 0-.191.054c-.302.131-.449.218-.55.323a.888.888 0 0 0-.208.404.392.392 0 0 1-.03.115c-.022.047-.014.188.022.375.04.203.201.451.344.526.253.13.302.15.443.171.253.038.735.018.84-.039.018-.01.092-.044.164-.076a1.39 1.39 0 0 0 .21-.123l.114-.088c.115-.086.326-.437.354-.582a.262.262 0 0 1 .035-.094c.014-.018.023-.203.027-.535l.008-.508-.107-.011a6.23 6.23 0 0 0-.52-.01z"/>
</svg>