<svg width="32" height="32" xmlns="http://www.w3.org/2000/svg">
  <defs>
    <clipPath clipPathUnits="userSpaceOnUse" id="a">
      <path style="fill:red;stroke-width:.410418" class="powerclip" d="M-5-5h42v42H-5ZM14.068 6.33v19.336h4.106c3.484 0 6.188-.82 8.031-2.43C28.048 21.627 29 19.131 29 16c0-3.131-.969-5.648-2.795-7.244v.004c-1.839-1.613-4.543-2.43-8.031-2.43Zm-5.658.014.008 11.658a9.55 9.55 0 0 1-.256 2.668 2.438 2.438 0 0 1-.82 1.162 4.552 4.552 0 0 1-1.67.78 10.088 10.088 0 0 1-2.352.255H3v2.803h.459c2.684 0 4.787-.575 6.088-1.688 1.3-1.112 2.006-2.872 2.006-5.15V6.344Zm8.684 2.81v13.707h1.427c2.463 0 4.332-.568 5.563-1.693v.004c1.203-1.1 1.838-2.87 1.838-5.164 0-2.294-.61-4.05-1.838-5.166-1.227-1.117-3.1-1.688-5.563-1.688z"/>
    </clipPath>
  </defs>
  <path style="fill:#000;fill-rule:evenodd;stroke:#000;stroke-width:12.3231;stroke-linecap:round;paint-order:stroke fill markers" clip-path="url(#a)" d="M6.162 6.162h19.676v19.676H6.162Z"/>
</svg>