<svg id="Camada_1" data-name="Camada 1" xmlns="http://www.w3.org/2000/svg" viewBox="0 0 300 120"><g id="icon-jooble_text_logo-usage" data-name="icon-jooble text logo-usage"><path d="M62.17,32.33C46,32.33,33.83,44.17,33.83,60S46,87.67,62.17,87.67,90.5,75.83,90.5,60,78.33,32.33,62.17,32.33Zm0,42c-8.17,0-14-5.83-14-14.33s5.83-14.33,14-14.33,14,5.83,14,14.33S70.33,74.33,62.17,74.33Z"/><path d="M124.67,32.33C108.5,32.33,96.33,44.17,96.33,60s12,27.67,28.34,27.67C140.83,87.67,153,75.83,153,60S140.83,32.33,124.67,32.33Zm0,42c-8.17,0-14-5.83-14-14.33s5.83-14.33,14-14.33,14,5.83,14,14.33S132.83,74.33,124.67,74.33Z"/><path d="M12.17,84.33c0,5-2.67,7.67-7.67,7.67H0v13H6.67c11.5,0,19.66-8.17,19.66-19.67V33.83H12.17Z"/><path d="M300,59.83c0-15-11-27.5-27.17-27.5-15.5,0-27.16,11.84-27.16,27.67,0,15.67,11.66,27.67,27.16,27.67a26.91,26.91,0,0,0,26-18.67H284a12.56,12.56,0,0,1-11.17,6C266,75,261.17,71.17,260,64h39.67A36.42,36.42,0,0,0,300,59.83Zm-39.5-5.5c1.67-6.16,6-9.83,12.33-9.83s11,3.5,13,9.83Z"/><path d="M189,32.33a26,26,0,0,0-14.33,4.34V15H160.5V86.17H171l1.67-4.34A25,25,0,0,0,189,87.67c16,0,27.5-11.84,27.5-27.67S205,32.33,189,32.33Zm-1.17,42A14,14,0,0,1,173.5,60a14.34,14.34,0,0,1,28.67,0A14,14,0,0,1,187.83,74.33Z"/><rect x="224" y="15" width="14.17" height="71.17"/></g></svg>