<?xml version="1.0" encoding="UTF-8"?><svg id="a" xmlns="http://www.w3.org/2000/svg" viewBox="0 0 183.33 80"><g id="b"><path d="m37.99,25.09c-9.88,0-17.32,7.24-17.32,16.91s7.44,16.91,17.32,16.91,17.31-7.24,17.31-16.91-7.44-16.91-17.31-16.91Zm0,25.67c-4.99,0-8.56-3.56-8.56-8.76s3.56-8.76,8.56-8.76,8.56,3.56,8.56,8.76-3.57,8.76-8.56,8.76Z" style="stroke-width:0px;"/><path d="m76.19,25.09c-9.88,0-17.32,7.24-17.32,16.91s7.33,16.91,17.32,16.91,17.31-7.24,17.31-16.91-7.44-16.91-17.31-16.91Zm0,25.67c-4.99,0-8.56-3.56-8.56-8.76s3.56-8.76,8.56-8.76,8.56,3.56,8.56,8.76-3.57,8.76-8.56,8.76Z" style="stroke-width:0px;"/><path d="m7.44,56.87c0,3.06-1.63,4.69-4.69,4.69H0v7.94h4.08c7.03,0,12.01-4.99,12.01-12.02v-31.47H7.44v30.86Z" style="stroke-width:0px;"/><path d="m183.33,41.9c0-9.17-6.72-16.81-16.6-16.81s-16.6,7.24-16.6,16.91,7.13,16.91,16.6,16.91c7.23.1,13.68-4.53,15.89-11.41h-9.06c-1.45,2.37-4.06,3.77-6.83,3.67-4.17,0-7.13-2.34-7.84-6.72h24.24c.12-.84.18-1.7.2-2.55Zm-24.14-3.36c1.02-3.76,3.67-6.01,7.53-6.01s6.72,2.14,7.94,6.01h-15.48Z" style="stroke-width:0px;"/><path d="m115.5,25.09c-3.12,0-6.16.93-8.76,2.65v-13.24h-8.66v43.49h6.42l1.02-2.65c2.79,2.34,6.33,3.61,9.98,3.57,9.78,0,16.81-7.24,16.81-16.91s-7.03-16.91-16.81-16.91Zm-.71,25.67c-4.72.11-8.64-3.63-8.76-8.35,0-.14,0-.27,0-.41.13-4.84,4.15-8.66,8.99-8.53,4.66.12,8.41,3.87,8.53,8.53.11,4.72-3.63,8.64-8.35,8.76-.14,0-.28,0-.41,0Z" style="stroke-width:0px;"/><rect x="136.89" y="14.5" width="8.66" height="43.49" style="stroke-width:0px;"/></g></svg>