<?xml version="1.0" encoding="UTF-8" standalone="no"?>
<!-- Created with Vectornator (http://vectornator.io/) -->

<svg height="32" stroke-miterlimit="10" style="clip-rule:evenodd;fill-rule:nonzero;stroke-linecap:round;stroke-linejoin:round" version="1.1" viewBox="0 0 32 32" width="32" xml:space="preserve" id="svg9" sodipodi:docname="jstor.svg" inkscape:version="1.4-beta2 (9aaf4f34, 2024-07-30)" xmlns:inkscape="http://www.inkscape.org/namespaces/inkscape" xmlns:sodipodi="http://sodipodi.sourceforge.net/DTD/sodipodi-0.dtd" xmlns="http://www.w3.org/2000/svg" xmlns:svg="http://www.w3.org/2000/svg"><sodipodi:namedview id="namedview9" pagecolor="#ffffff" bordercolor="#000000" borderopacity="0.25" inkscape:showpageshadow="2" inkscape:pageopacity="0.0" inkscape:pagecheckerboard="0" inkscape:deskcolor="#d1d1d1" inkscape:zoom="0.99068295" inkscape:cx="75.705351" inkscape:cy="88.322909" inkscape:window-width="1440" inkscape:window-height="790" inkscape:window-x="0" inkscape:window-y="0" inkscape:window-maximized="1" inkscape:current-layer="svg9" />
<defs id="defs1" />

<g id="g9" transform="matrix(0.64605743,0,0,0.64605743,0.02631497,-9.8422972)"><path d="M 0.0061371,15.2344 V 64.7656 H 49.4436 V 15.2344 Z M 18.7874,18.7031 31.3499,18.7344 c 0.2004,0.0342 0.3278,0.2036 0.3437,0.4062 0.0526,0.2453 -0.0545,0.475 -0.5625,0.5625 0,0 -1.7841,0.2802 -2.625,1.1563 -0.5979,0.6249 -1.0266,1.3922 -1.2812,2.2187 -0.2977,1.0336 -0.1563,5.1875 -0.1563,5.1875 v 19.2813 c 0,0 0.0393,3.7118 -0.4687,5.6562 -0.3329,1.3665 -1.0891,4.0492 -3.1563,5.9063 -1.857,1.6817 -3.3106,2.0771 -5.0625,2.375 -1.962,0.3328 -5.6875,-0.1875 -5.6875,-0.1875 l -1.9062,-6.1875 c 0,0 1.9803,1.8955 3.0312,2.7187 1.0512,0.8235 2.0423,1.2813 3.5313,1.2813 1.4716,0 2.4763,-0.3888 3.5625,-1.5625 1.0861,-1.1564 1.5007,-2.6683 1.7812,-4.4375 0.1925,-1.2789 0.0938,-4.8018 0.0938,-5.625 l 0.2812,-19.2188 c 0,0 0.1414,-4.1365 -0.1562,-5.1875 -0.2478,-0.8296 -0.7086,-1.5984 -1.3125,-2.2187 -0.8409,-0.8761 -2.5938,-1.1563 -2.5938,-1.1563 -0.5082,-0.0699 -0.6287,-0.3172 -0.5937,-0.5625 0.0188,-0.2049 0.1744,-0.3915 0.375,-0.4375 z M 8.66239,18.7344 c 1.03109,-0.0639 2.06451,0.1047 3.03121,0.4687 0.5441,0.2242 1.0638,0.5177 1.5313,0.875 0.6131,0.4378 1.0981,0.7726 1.7812,0.5625 0.7885,-0.2277 0.9264,-0.8469 1.0313,-1.25 0.0124,-0.1059 0.0369,-0.2223 0.0937,-0.3125 0.0352,-0.0173 0.19,0.0573 0.3125,0.25 0.1578,0.2277 0.5336,1.0284 -0.5,2.5 -0.3634,0.5136 -0.884,0.8719 -1.5,1 -0.0361,0.013 -0.073,0.0302 -0.0937,0.0625 -0.0241,0.0295 -0.0445,0.0893 -0.0313,0.125 0.0371,0.1672 0.0531,0.3291 0.0625,0.5 0.0458,0.6276 -0.0686,1.2466 -0.3437,1.8125 -0.4896,1.2368 -1.6437,2.1026 -2.9688,2.2188 -1.34903,0.1575 -2.42725,-0.583 -2.81246,-1.4063 -0.35,-0.7826 -0.34766,-1.6719 -0.03125,-2.4687 0.05663,-0.1668 0.15569,-0.326 0.3125,-0.4063 0.05258,-0.0176 0.10366,-0.0037 0.15625,0.0313 0.10497,0.1051 0.10739,0.3586 0.125,0.6562 -0.01054,0.3685 0.04132,0.7123 0.15625,1.0625 0.2562,0.7406 0.97094,1.2094 1.75001,1.125 1.3315,-0.1227 2.1525,-1.0772 2.1875,-2.5312 0.035,-1.524 -0.9571,-3.3048 -3.81251,-3.375 H 9.00614 c -1.07649,-0.0016 -2.1269,0.4134 -2.875,1.1875 -0.94286,0.9902 -1.46163,2.3207 -1.5,3.6875 -0.03502,2.6101 1.30867,4.1316 2.5,4.9375 1.15609,0.8235 2.95886,0.8743 5.21876,0.1562 0.7709,-0.2453 1.6004,-0.6046 2.4062,-0.9375 0.6834,-0.2803 1.3658,-0.5845 2.0313,-0.8125 0.4057,-0.1418 0.8276,-0.2329 1.25,-0.3125 l 0.0625,-0.0312 -0.0313,-0.0625 c -0.1751,-0.2277 -0.4072,-0.5208 -0.6875,-0.9063 -0.5781,-0.8058 -0.7552,-2.341 -0.5625,-2.6562 0.0876,-0.1402 0.1838,-0.1563 0.2188,-0.1563 0.0191,-9e-4 0.0478,0.019 0.0625,0.0313 v 0.0937 c -0.0201,0.2111 0.0343,0.4203 0.1562,0.5938 0.1269,0.1985 0.3668,0.3132 0.5938,0.25 0.0409,-0.0145 0.0793,-0.0529 0.0937,-0.0938 0.1401,-0.4567 0.3384,-0.9087 0.5938,-1.3125 0.2803,-0.438 1.1931,-1.0937 1.7187,-1.0937 h 0.0313 c 0.128,0.0017 0.2584,0.0714 0.3125,0.1875 0.07,0.1575 -0.1488,0.3988 -0.2188,0.4687 -0.6571,0.6435 -1.065,1.5183 -1.0937,2.4375 -0.0293,0.5138 0.1567,1.0229 0.5,1.4063 0.6481,0.6833 1.7586,0.7812 1.9687,0.7812 v 1.2188 h -0.125 c -1.1035,0 -1.9521,1.321 -2.25,2.6875 -0.245,1.1035 -0.025,2.6696 0.0625,3.125 0.0876,0.438 0.0176,0.5449 0,0.5625 -0.0173,0.0173 -0.0275,0 -0.0625,0 -0.2277,-0.0526 -0.652,-0.528 -1.125,-1.2813 -0.3504,-0.5605 -0.24,-1.2881 -0.1875,-1.6562 0.035,-0.2101 0.0253,-0.2912 -0.0625,-0.3438 -0.0506,-0.0528 -0.1144,-0.0904 -0.1875,-0.0937 h -0.0312 c -0.141,0.0182 -0.2614,0.1029 -0.3438,0.2187 -0.0733,0.0741 -0.1328,0.13 -0.1875,0.2188 -0.0701,0.0875 -0.0786,0.1148 -0.2187,0.0625 v -0.0625 c -0.1052,-0.2803 0.2083,-1.2405 0.5937,-1.9063 0.2813,-0.5041 0.6355,-0.9301 1.0938,-1.2812 l 0.1562,-0.0938 -0.1875,0.0313 c -1.5767,0.3502 -3.1752,0.9592 -4.1562,1.625 -1.1903,0.785 -2.2011,1.8188 -3,3 -0.1841,-0.1153 -0.3618,-0.2295 -0.5625,-0.3125 -0.2324,-0.1125 -0.4947,-0.1803 -0.75,-0.2188 0.3153,-0.4204 0.8522,-0.991 1.0625,-1.2187 v -0.0313 c 0.0284,-0.0515 0.0396,-0.1127 0,-0.1562 C 11.2478,32.1283 11.1851,32.1173 11.1311,32.1406 11.061,32.1582 9.63632,32.694 7.13114,31.7656 5.09917,31.0123 2.98108,28.8109 3.06864,24.9219 3.19118,20.9801 5.96448,18.9797 8.66239,18.7344 Z m 30.68751,0.5 c 1.1265,-0.0017 2.2471,0.1484 3.3437,0.4062 0.1226,0.0176 0.2074,0.0452 0.3125,0.0625 0.9109,0.2104 1.8482,0.3763 2.5313,0.2188 0.3083,-0.088 0.6203,-0.1986 0.9062,-0.3438 0.1578,-0.0699 0.2776,-0.1426 0.3125,-0.125 0,0.0174 0.0313,0.0137 0.0313,0.0313 0.0349,0.1577 -0.1108,0.6093 -0.5313,1.1875 -0.2327,0.29 -0.5208,0.5343 -0.8437,0.7187 -0.2104,0.1228 -0.375,0.2349 -0.375,0.375 0.0392,0.1557 0.1305,0.3034 0.2187,0.4375 0.8066,1.3279 1.2083,2.8535 1.1563,4.4063 -0.1578,3.2934 -1.7613,4.7102 -2.8125,5.6562 l -0.0938,0.125 h -0.0312 c -0.6831,0.8059 -0.6166,1.5583 -0.4063,2.0313 0.3595,0.7718 1.0315,1.3387 1.8438,1.5937 0.4683,0.141 0.9506,0.2358 1.4375,0.2813 0.2979,0.0173 0.59,0.055 0.625,0.125 0.0876,0.1927 -0.1855,0.5208 -0.7813,0.9062 -0.2616,0.1987 -0.5778,0.287 -0.9062,0.2813 -0.0176,0 -0.0313,0.0136 -0.0313,0.0312 0,0.0174 -0.0176,0.0137 0,0.0313 0.0177,0 1.19,1.0046 1.3125,2.4062 0.1228,1.4188 -0.1118,2.1917 -0.8125,2.875 -0.4544,0.43 -1.0679,0.6494 -1.6875,0.5625 -0.0314,-0.0049 -0.0675,-0.0132 -0.0937,-0.0312 -0.035,-0.1754 0.247,-0.3834 0.5625,-0.5938 0.0701,-0.0526 0.1175,-0.1036 0.1875,-0.1562 0.4031,-0.2803 0.6714,-0.751 0.5312,-1.0313 -0.0481,-0.0662 -0.1378,-0.1062 -0.2187,-0.0937 -0.0776,0.0091 -0.145,0.0366 -0.2188,0.0625 -0.1577,0.0526 -0.3499,0.1051 -0.4375,0 -0.1051,-0.1052 -0.0563,-0.1999 0.0313,-0.375 0.0972,-0.1725 0.1378,-0.3654 0.1562,-0.5625 0.035,-0.5256 -0.0103,-1.936 -0.7812,-2.0938 -0.0304,-0.0046 -0.0675,-0.0159 -0.0938,0 -0.0699,0.0702 -0.0625,0.2686 -0.0625,0.5313 0,0.3678 -0.0084,0.841 -0.2187,1.1562 -0.3153,0.4907 -0.8172,0.875 -1.0625,0.875 -0.0473,0.005 -0.096,0.0064 -0.125,-0.0312 -0.035,-0.0526 -0.0037,-0.1687 0.0312,-0.3438 0.1813,-0.8541 0.1697,-1.7372 0,-2.5937 -0.1424,-0.5447 -0.3574,-1.0542 -0.6562,-1.5313 -0.2803,-0.5082 -0.5412,-0.9858 -0.5938,-1.4062 -0.1049,-0.7709 -0.0141,-1.091 0.4063,-1.4063 0.173,-0.097 0.2685,-0.2708 0.2812,-0.4687 0.0039,-0.1757 -0.0876,-0.339 -0.25,-0.4063 h -0.0312 c -0.1507,-0.0238 -0.2849,-0.0318 -0.4375,-0.0312 -0.8059,0.0176 -2.6998,0.0542 -4.0313,-1.75 -1.0861,-1.4716 -1.1476,-2.857 -0.9375,-4.4688 -0.0948,-0.4177 -0.3092,-0.8042 -0.625,-1.0937 -0.1986,-0.1786 -0.4136,-0.3258 -0.6562,-0.4375 -0.1225,-0.0526 -0.25,-0.09 -0.25,-0.125 0,0 0.0275,-0.0275 0.0625,-0.0625 0.1401,-0.1402 0.557,-0.3063 1.1875,-0.2188 0.2816,0.0409 0.5608,0.1171 0.8125,0.25 0,0.0176 0.0136,0.0176 0.0312,0 0.8401,-0.9048 2.0496,-1.3975 3.2813,-1.3125 1.2263,0.0876 2.371,1.2975 2.4062,2.5938 0.035,1.2965 -0.5681,1.9811 -1.0937,2.1562 -0.3385,0.1434 -0.7343,0.1343 -1.0625,-0.0312 -0.0987,-0.0693 -0.1438,-0.1926 -0.1563,-0.3125 -0.0173,-0.105 0.0747,-0.1625 0.25,-0.25 0.4953,-0.1845 0.8257,-0.6592 0.8125,-1.1875 0.029,-0.4158 -0.0995,-0.8122 -0.375,-1.125 -0.2791,-0.2982 -0.6865,-0.4701 -1.0937,-0.4375 -0.6561,0.0071 -1.2795,0.3299 -1.6875,0.8437 -0.4904,0.6482 -0.6613,1.6252 -0.4688,2.7813 0.2806,1.6817 1.9007,2.8626 3.6875,2.6875 1.1124,-0.138 2.098,-0.7446 2.75,-1.6563 0.7038,-0.9162 1.1005,-2.0324 1.125,-3.1875 0.035,-2.7854 -1.5847,-5.6723 -5.2812,-5.8125 -3.5387,-0.1401 -5.7338,2.0612 -6.75,3.375 -0.6305,0.8233 -1.3083,2.3948 -1.7813,3.6563 0.5085,-0.091 1.0572,-0.0489 1.5313,0.1562 0.6131,0.3153 1.3413,1.0598 1.2187,1.375 -0.0349,0.0878 -0.2371,0.039 -0.5,-0.0312 -0.4806,-0.0886 -0.9568,-0.0886 -1.4375,0 -0.981,0.1227 -1.3948,0.3323 -1.5,0.4375 l -1.3437,-0.8438 c 0.1927,-0.8235 1.0365,-4.2852 3.1562,-6.5625 1.8084,-2.0008 4.3969,-3.1609 7.0938,-3.1562 z m -10.875,10.5625 c 0.7579,0.3693 1.4807,0.8079 2.1562,1.3125 0.5187,0.4432 1.0193,0.9243 1.4688,1.4375 l -0.2813,1.7187 c -0.4378,-0.4906 -1.0019,-1.0996 -1.5625,-1.625 -0.5047,-0.4979 -1.1189,-0.8719 -1.7812,-1.125 z m 5.6875,1.8437 c 0.0596,-0.0488 0.1518,-0.0382 0.2187,0 0.1226,0.0702 0.125,0.3472 0.125,0.75 -0.0108,0.2979 0.0087,0.5778 0.0313,0.875 0.0875,1.0162 0.4012,1.565 0.5937,1.6875 0.0206,0.014 0.0378,0.0339 0.0625,0.0313 0.07,-0.0176 0.0901,-0.1511 0.125,-0.3438 0.0397,-0.34 0.1354,-0.6591 0.2813,-0.9687 0.3328,-0.6658 0.9285,-1.5075 1.1562,-1.4375 0.0526,0.0176 0.0938,0.0823 0.0938,0.1875 -0.035,0.3152 -0.0727,0.6083 -0.125,0.9062 -0.164,0.8479 -0.2156,1.7009 -0.1563,2.5625 0.0876,1.8747 0.9574,2.1387 1.0625,2.1563 0.3013,-0.538 0.6736,-1.0175 1.0938,-1.4688 0.1226,-0.1401 0.2212,-0.2973 0.3437,-0.4375 0.3855,-0.4204 0.696,-0.75 0.9063,-0.75 h 0.0312 c 0.0691,-7e-4 0.1303,0.0298 0.1563,0.0938 0.0876,0.1228 -0.0399,0.4293 -0.25,0.9375 -0.4287,0.9547 -0.7105,1.9664 -0.875,3 -0.2039,1.5994 -0.2039,3.2131 0,4.8125 v 0.1562 l -0.0625,-0.1562 c 0,-0.0174 -0.2041,-0.5823 -1.0625,-1.8438 -0.2885,-0.4381 -0.6046,-0.8411 -0.9688,-1.2187 -0.4664,-0.4801 -0.8822,-1.0151 -1.2187,-1.5938 -0.3928,-0.6448 -0.6533,-1.3496 -0.7813,-2.0937 -0.0699,-0.4031 -0.116,-0.6074 -0.3437,-0.625 -0.035,0 -0.0451,0.0275 -0.0625,0.0625 -0.1928,0.2979 -0.0879,1.9838 0.4375,3 0.2839,0.522 0.6198,1.0121 1,1.4687 0.4895,0.6236 0.9542,1.297 1.375,1.9688 0.6932,1.0835 1.2513,2.2274 1.6875,3.4375 0.0526,0.1751 0.1213,0.3286 0.1562,0.4687 0.1061,-0.1972 0.2051,-0.3867 0.3438,-0.5625 1.7345,-1.892 3.2301,-2.0265 4.2812,-1.7812 0.7582,0.1666 1.4447,0.5947 1.9063,1.2187 0.5241,0.756 0.7238,1.6831 0.5937,2.5938 -0.2976,1.892 -1.3878,2.6899 -2.2812,2.8125 -0.0691,0.0146 -0.1169,0.0341 -0.1875,0.0312 -0.2627,0 -0.4787,-0.0962 -0.5313,-0.2187 -0.0303,-0.0335 -0.051,-0.0845 -0.0312,-0.125 0.035,-0.0702 0.1235,-0.1037 0.2812,-0.1563 0.246,-0.0851 0.481,-0.1853 0.6875,-0.3437 0.7709,-0.6132 0.754,-0.9011 0.7188,-1.0938 0,-0.035 -0.0139,-0.0625 -0.0313,-0.0625 -0.0525,-0.0176 -0.1411,0.0548 -0.2812,0.125 l -0.0625,0.0313 c -0.1388,0.0794 -0.3194,0.0885 -0.4688,0.0312 -0.0727,-0.0316 -0.1101,-0.1095 -0.125,-0.1875 -0.0176,-0.1051 0.0962,-0.1761 0.2188,-0.2812 0.1067,-0.0925 0.2019,-0.1957 0.2812,-0.3125 0.3873,-0.5701 0.4457,-1.312 0.1563,-1.9375 -0.2278,-0.4205 -0.554,-0.8326 -1.5,-0.9375 h -0.0938 c -0.1301,0.0013 -0.2492,0.0291 -0.375,0.0625 -1.0336,0.1927 -1.7457,0.9029 -2.2187,1.6562 0,0.0176 0,0.0137 0,0.0313 -0.6482,0.946 -0.8088,2.3759 -0.8438,2.6562 -0.2103,1.3315 -0.652,3.2988 -3.4375,6.75 -0.3789,0.4377 -0.5317,1.0286 -0.4062,1.5938 0.2979,1.1035 1.375,1.1897 1.375,1.3125 -0.0174,0.1577 -0.271,0.1912 -0.6563,0.1562 -0.1924,6e-4 -0.369,-0.0527 -0.5312,-0.1562 0,0 -0.1171,0.2457 0.5312,0.7187 0.508,0.3679 1.0762,0.3425 1.0938,0.5 0.0173,0.1927 -3.0885,0.8996 -3.2813,-2.2187 -0.0143,-0.0691 -0.0028,-0.117 0,-0.1875 -3.3286,3.0655 -4.3172,3.2078 -4.5625,2.875 -0.1225,-0.1575 0.2133,-0.1255 0.8438,-0.8438 0.6483,-0.7357 0.6562,-1.0625 0.6562,-1.0625 -0.8683,0.4311 -1.8138,0.6265 -2.7812,0.5625 -1.5415,-0.1401 -2.8552,-1.2358 -2.75,-1.6562 0.0875,-0.3505 0.9902,0.2688 2.0937,0.0937 1.0336,-0.1577 1.125,-0.5625 1.125,-0.5625 0,0 -0.1983,0.0067 -0.5312,-0.3437 -0.3505,-0.3503 -0.8428,-0.6396 -0.5625,-0.9375 0.1751,-0.1752 0.9166,0.1875 1.6875,0.1875 0.5331,0.0094 1.0817,-0.0701 1.5937,-0.2188 -0.3031,-0.1237 -0.584,-0.2967 -0.8125,-0.5312 -0.4028,-0.4029 -0.4975,-0.8324 -0.375,-0.9375 0.0702,-0.0526 0.2557,0.2676 0.7813,0.25 0.6305,-0.0174 0.6875,-0.1563 0.6875,-0.1563 -0.1537,-0.1353 -0.2735,-0.2909 -0.375,-0.4687 -0.1225,-0.2277 -0.4953,-0.9246 -0.25,-1.1875 0.0875,-0.0876 0.7613,0.77 1.8125,0.875 1.8042,0.1577 3.8125,-1.2813 3.8125,-1.2813 -0.933,1.0743 -1.9668,2.0923 -3.0625,3 -1.3315,1.1564 -2.9938,2.0709 -2.9063,2.2813 0.1226,0.2627 1.4277,-0.0455 3.6875,-1.9375 0.801,-0.6625 1.5444,-1.4022 2.1875,-2.2188 1.7519,-2.1547 2.1315,-4.5454 1.7813,-6.4375 -0.1282,-0.677 -0.3062,-1.3291 -0.5625,-1.9687 -0.9634,-2.1021 -2.0294,-3.1468 -3.7813,-3.8125 -1.5591,-0.5956 -2.7506,-0.0516 -3.4687,0.2812 -0.3679,0.1751 -0.6136,0.2964 -0.7188,0.1563 -0.3152,-0.4554 0.3281,-1.0818 0.9063,-1.625 0.3941,-0.4043 0.8544,-0.7498 1.3437,-1.0313 -0.3312,-0.1608 -0.6974,-0.2645 -1.0625,-0.3125 -0.2463,-0.0087 -0.5073,0.0189 -0.75,0.0625 -0.3681,0.0526 -0.6525,0.0814 -0.6875,-0.0937 -0.0701,-0.3679 1.4129,-1.0186 2.2188,-1.2813 0.5154,-0.1709 1.0513,-0.2545 1.5937,-0.2812 -0.1027,-1.1774 -0.1027,-2.3852 0,-3.5625 0.053,-0.7498 0.211,-1.4709 0.4375,-2.1875 0.1925,-0.5256 0.4011,-0.9087 0.5938,-1.0313 z m -5.3438,1.2188 c 0.4381,0.1575 1.1749,0.8759 1.4375,1.1562 0,0 -0.0362,0.2913 0.1563,1.5 0.1194,0.7062 0.2811,1.3806 0.5,2.0625 l -1.375,0.625 c -0.2276,-0.8183 -0.4284,-1.63 -0.5625,-2.4687 -0.2803,-1.9446 -0.1563,-2.875 -0.1563,-2.875 z m -24.59371,0.75 c 0.3568,0.082 0.66515,0.3054 0.84375,0.625 0.15754,0.3328 0.37872,1.2036 0.34375,1.3437 -0.0049,0.0093 -0.00333,0.0213 0,0.0313 0.00334,0.0099 0.02178,0.0268 0.03125,0.0312 0.03498,0.0176 0.08233,-0.0062 0.1875,-0.0937 0.89821,-0.7022 1.98545,-1.0655 3.125,-1.0313 h 0.03125 c 3.31111,0 4.76361,3.0588 4.78121,3.0938 v 0.0312 h 0.0313 c 0.0174,0.0174 0.4367,0.1355 1.3125,-0.25 0.2793,-0.1231 0.5311,-0.2872 0.75,-0.5 0.3727,-0.3915 0.8975,-0.6179 1.4375,-0.5937 0.8233,-0.035 1.4573,0.4171 1.5625,0.75 0.0367,0.0881 -0.0162,0.1945 -0.0938,0.25 -0.1227,0.0875 -0.1173,0.0662 -0.1875,0.0312 -0.1225,-0.0526 -0.2931,-0.1364 -0.9062,-0.0312 -0.508,0.0702 -0.7549,0.5406 -1,1.0312 -0.2629,0.5432 -0.5706,1.0749 -1.2188,1.25 -0.5144,0.1011 -1.0182,-0.0533 -1.375,-0.4375 -0.0352,-0.0702 -0.0863,-0.1426 -0.1562,-0.125 -0.0702,0.0174 -0.0938,0.1074 -0.0938,0.125 -0.0425,0.4808 -0.1655,0.9265 -0.3437,1.375 -0.6595,1.7053 -2.5387,2.6159 -4.28126,2.0625 -1.30289,-0.349 -2.18337,-1.5577 -2.15625,-2.9062 0.01738,-0.3153 0.10986,-0.4824 0.25,-0.5 0.10854,-0.0111 0.215,0.0529 0.25,0.1562 0.10305,0.3501 0.24976,0.6871 0.4375,1 0.2627,0.4204 0.73432,0.9085 1.3125,1.0313 0.79391,0.2006 1.62601,-9e-4 2.25001,-0.5313 0.538,-0.5468 0.8215,-1.2987 0.75,-2.0625 -0.0494,-0.8274 -0.451,-1.6016 -1.0938,-2.125 -0.5944,-0.4734 -1.30302,-0.754 -2.06246,-0.7812 h -0.0625 c -1.00003,0.0128 -1.98119,0.3871 -2.71875,1.0625 -0.94603,0.8584 -1.50223,2.1596 -1.625,3.7187 -0.06788,1.4342 0.46189,2.8216 1.4375,3.875 0.77089,0.8235 1.71023,1.3125 2.65625,1.3125 h 0.0625 c 2.50516,0 4.09556,-1.5581 5.81246,-3.1875 1.6118,-1.5239 3.2823,-3.0942 5.875,-3.8125 0.423,-0.0726 0.8214,-0.1043 1.25,-0.125 l -0.0312,1.4063 c -1.4543,0.2629 -3.4799,1.2201 -3.375,2.2187 0.0878,0.7155 0.4485,1.357 1.0312,1.7813 0.0702,0.0526 0.1563,0.1074 0.1563,0.125 0,0.0173 -0.0375,0.0275 -0.125,0.0625 -0.4648,0.1476 -0.9849,0.1191 -1.4375,-0.0625 -0.6658,-0.3153 -1.3125,-1.3887 -1.3125,-1.4063 l -0.0313,-0.0625 -0.0312,0.0313 c -0.0176,0.0173 -2.0076,2.0867 -3.0938,2.875 -0.7006,0.508 -2.5288,1.8864 -4.71871,1.7812 C 7.16492,47.3789 5.75925,46.6924 4.75614,45.5781 3.66998,44.3342 3.08251,42.6401 3.09989,40.7656 3.11746,39.0663 3.28536,38.3146 3.88114,36.7031 3.96013,36.4697 4.05472,36.2373 4.16239,36.0156 4.35176,35.652 4.4566,35.2377 4.47489,34.8281 4.53376,34.4012 4.45347,33.9747 4.22489,33.6094 Z m 4.40625,3.25 c 0.49315,-0.0936 0.99337,0.0489 1.37496,0.375 -0.42208,0.866 -0.75063,1.7803 -0.96871,2.7187 -0.29786,-0.1225 -0.71226,-0.5601 -1.0625,-1.5937 0.11075,-0.5412 0.33948,-1.0474 0.65625,-1.5 z m -1.75,5.25 c 0.33497,0.5605 0.82535,1.0143 1.40625,1.3125 -0.09647,0.419 -0.15174,0.8521 -0.125,1.2812 -0.42042,-0.0352 -1.44742,-0.7621 -1.5,-0.9375 0.00502,-0.5621 0.07257,-1.1134 0.21875,-1.6562 z m 25.37496,1.3125 c 0.4853,-0.0427 0.9622,0.0851 1.375,0.3437 0.2824,0.1637 0.4926,0.4398 0.5938,0.75 0.0702,0.2277 0.064,0.3986 -0.0938,0.4688 -0.0699,0.0525 -0.241,-0.0513 -0.4687,-0.1563 -0.4566,-0.2224 -0.9634,-0.3005 -1.4688,-0.25 -0.6743,0.1255 -1.2843,0.4692 -1.7187,1 -0.3925,0.5276 -0.5581,1.1923 -0.4688,1.8438 0.1578,1.2789 1.2261,2.5188 2.75,2.3437 0.5488,-0.049 1.0611,-0.2852 1.4375,-0.6875 l -0.0937,-0.0937 0.0312,-0.0313 c -0.5464,-0.4877 -1.0751,-1.0206 -1.5312,-1.5937 -0.5606,-0.7183 -0.8227,-1.1173 -0.875,-1.1875 l -0.1563,-0.2188 c 0.2416,-0.1086 0.4867,-0.1533 0.75,-0.125 0.6306,0.0176 1.2312,0.4849 1.4063,0.625 0,0 0.3213,0.3313 1.25,1.3125 0.6148,0.6632 1.2948,1.2564 2.0312,1.7813 -0.0184,0.4849 -0.0973,0.9676 -0.2187,1.4375 -0.5256,-0.3267 -1.0346,-0.686 -1.5,-1.0938 -0.0306,-0.0342 -0.0546,-0.0698 -0.0938,-0.0937 -0.4922,0.5988 -1.1569,1.0203 -1.9062,1.2187 -0.2182,0.0503 -0.4637,0.0661 -0.6875,0.0625 -1.7456,-0.052 -3.2346,-1.2666 -3.625,-2.9687 -0.0864,-0.5623 -0.0827,-1.1211 -0.0313,-1.6875 0.039,-0.3451 0.0114,-0.6919 -0.0625,-1.0313 -0.0848,-0.2264 -0.1962,-0.4334 -0.3437,-0.625 -0.0876,-0.1228 -0.1463,-0.2113 -0.0938,-0.2812 0.1052,-0.1228 0.4658,-0.0541 0.7813,0.1562 0.1475,0.0918 0.2432,0.2157 0.3125,0.375 0.1927,-0.2803 1.1422,-1.5411 2.7187,-1.5937 z m -17.875,3.4687 c 0.1226,-0.0526 0.4261,0.431 0.5313,0.7813 0.1225,0.368 0.0709,0.7249 0.2812,0.8125 0.1575,0.0525 0.2299,-0.1146 0.5625,-0.5 0.4557,-0.5606 0.3973,-0.7751 0.625,-0.6875 0.2454,0.0875 -0.02,1.2579 -0.125,1.9062 -0.1062,0.5398 -0.2325,1.0718 -0.4062,1.5938 0.476,-0.3097 0.9847,-0.5739 1.5,-0.8125 2.0146,-0.9108 2.7949,-0.6203 2.8125,-0.375 0.0176,0.2451 -0.4744,0.2931 -1,0.9062 -0.3679,0.4381 -0.2813,0.5625 -0.2813,0.5625 0.3885,-0.0212 0.7895,-0.0889 1.1563,-0.2187 0.6131,-0.1751 1.1061,-0.4641 1.2812,-0.2188 0.1751,0.2453 -0.6038,1.3154 -1.8125,2.1563 -0.6746,0.4821 -1.4088,0.8711 -2.1875,1.1562 0.2331,0.1968 0.5091,0.3122 0.8125,0.3438 0.5956,0.1051 0.8537,0.0121 0.9063,0.1875 0.0699,0.2277 -0.58,0.4399 -1.7188,0.5625 -1.6115,0.1577 -2.4375,-0.5625 -2.4375,-0.5625 0.1216,0.3839 0.113,0.8115 -0.0312,1.1875 -0.2453,0.5782 -0.3036,1.1289 -0.5313,1.0937 -0.245,-0.035 0.0492,-0.5957 -0.4062,-1.1562 -0.4906,-0.5956 -1.0515,-0.7443 -1.875,-1.375 -0.8059,-0.6132 -0.8125,-1.0938 -0.8125,-1.0938 0,0 1.3926,0.5241 3.6875,0.1563 2.2073,-0.3503 2.8763,-1.0047 2.7187,-1.25 -0.1401,-0.2277 -0.48,0.0533 -1.5312,0.2812 -1.2087,0.2803 -2.8657,0.2039 -4.6875,-0.0937 -0.8206,-0.1488 -1.58805,-0.4738 -2.28126,-0.9375 0.31549,0.6131 0.80108,1.7077 0.90626,2.5312 0.2046,1.4764 -0.0173,2.9972 -0.65626,4.3438 -0.68331,1.454 -1.82092,2.7416 -2.03125,2.5312 -0.17512,-0.1751 0.05108,-0.3295 0.15625,-0.75 0.03768,-0.1775 0.10056,-0.3585 0.15625,-0.5312 0,0 -0.3201,0.4419 -1.40625,1.125 -1.08616,0.6657 -1.29363,0.7002 -1.46875,0.4375 -0.12274,-0.1754 0.14334,-0.3569 0.40625,-0.8125 0.2453,-0.4378 0.1875,-0.4375 0.1875,-0.4375 -0.57727,-0.062 -1.149,-0.1893 -1.6875,-0.4063 -0.77091,-0.3329 -1.54863,-1.1235 -1.53125,-1.2812 0.03521,-0.2101 0.32807,-0.3447 0.90625,-0.625 0.37559,-0.1841 0.72118,-0.4068 1.03125,-0.6875 -0.21476,-0.0558 -0.41973,-0.1346 -0.625,-0.2188 -0.36784,-0.1753 -0.7277,-0.3348 -0.5,-0.5625 0.21012,-0.1927 1.19852,0.4327 2.6875,-0.9687 1.33149,-1.2439 1.3125,-3.0625 1.3125,-3.0625 -2e-5,0 0.67095,2.1444 -0.1875,3.8437 -1.05096,2.0848 -3.02283,2.0932 -2.8125,2.5313 0.26271,0.5432 2.65392,0.0364 3.6875,-2.4688 C 8.53845,53.726 7.64062,51.0609 6.97489,49.4844 6.79978,49.0287 6.53865,48.4259 6.38114,47.9531 c 0.49812,0.2342 1.01621,0.4013 1.5625,0.4688 0.0176,0 0.09375,0.125 0.09375,0.125 0.57817,0.9284 1.49574,1.2624 1.96871,1.4375 0.4587,0.1748 0.9467,0.2823 1.4375,0.2812 0.4299,0.0087 0.8462,-0.0711 1.25,-0.2187 0.264,-0.0906 0.4904,-0.24 0.6875,-0.4375 0.5606,-0.6132 0.7371,-2.5786 1,-2.7188 z m 27.0938,4.4063 c 0.4556,-0.1052 0.9863,0.0999 0.9687,0.1875 -0.0176,0.0878 -0.6046,0.243 -0.9375,1.0312 0.7821,0.2264 1.5242,0.544 2.2188,0.9688 1.6291,1.0335 2.0511,2.1482 2.1562,2.6562 0.2076,0.7085 0.2275,1.4759 0.0313,2.1875 0,0.0176 -0.0313,0.0452 -0.0313,0.0625 -0.3681,1.3315 -1.1737,2.2609 -2.3125,2.5938 -0.3173,0.1009 -0.667,0.1525 -1,0.1562 -0.7533,0 -1.3791,-0.2807 -2.0625,-0.7187 -0.2767,-0.0468 -0.5677,-0.0124 -0.8125,0.125 -0.1624,0.0946 -0.3096,0.2059 -0.4375,0.3437 -0.0875,0.0876 -0.1349,0.1426 -0.1875,0.125 -0.0217,-0.0199 -0.0494,-0.0361 -0.0625,-0.0625 -0.0615,-0.3396 0.0021,-0.6776 0.1875,-0.9687 0.1044,-0.1863 0.255,-0.3806 0.4063,-0.5313 -0.3504,-0.8824 -0.3326,-1.8554 0.0625,-2.7187 0.4204,-0.8935 1.5029,-1.3815 2.3437,-1.0313 0.8585,0.3679 1.1288,0.9821 1.0938,1.4375 0.0021,0.301 -0.1189,0.6125 -0.3438,0.8125 -0.07,0.0669 -0.1596,0.066 -0.25,0.0313 -0.1051,-0.035 -0.125,-0.1548 -0.125,-0.3125 0.0407,-0.3624 -0.1672,-0.6948 -0.5,-0.8438 -0.2278,-0.1384 -0.5052,-0.168 -0.75,-0.0625 -0.2638,0.1217 -0.4812,0.3461 -0.5625,0.625 -0.1722,0.4626 -0.1233,0.9942 0.0938,1.4375 0.2627,0.508 0.8266,0.8874 1.5625,1.0625 1.0861,0.2629 2.2259,-0.5787 2.5937,-1.875 0.1292,-0.4336 0.1178,-0.8756 0,-1.3125 -0.2976,-0.9636 -0.9544,-1.8541 -2.5312,-2.625 -0.543,-0.2627 -1.6557,-0.7448 -2.0938,-0.9375 0.2454,-0.7007 0.256,-0.9109 0.3438,-1.1562 0.2293,-0.3316 0.5535,-0.5647 0.9375,-0.6875 z" fill="#000000" fill-rule="nonzero" opacity="1" stroke="none" id="path2" style="clip-rule:evenodd;fill-rule:nonzero;stroke-linecap:round;stroke-linejoin:round" /></g>
</svg>
