<svg height="32" stroke-miterlimit="10" style="clip-rule:evenodd;fill-rule:nonzero;stroke-linecap:round;stroke-linejoin:round" width="32" xml:space="preserve" xmlns="http://www.w3.org/2000/svg">
  <path d="M.006 15.234v49.532h49.438V15.234Zm18.781 3.47 12.563.03c.2.035.328.204.344.407.052.245-.055.475-.563.562 0 0-1.784.28-2.625 1.156a5.57 5.57 0 0 0-1.281 2.22c-.298 1.033-.156 5.187-.156 5.187v19.28s.039 3.713-.47 5.657c-.332 1.367-1.088 4.05-3.155 5.906-1.857 1.682-3.311 2.077-5.063 2.375-1.962.333-5.687-.187-5.687-.187l-1.907-6.188s1.98 1.896 3.032 2.72c1.05.823 2.042 1.28 3.53 1.28 1.473 0 2.477-.388 3.563-1.562 1.087-1.156 1.501-2.668 1.782-4.438.192-1.279.093-4.801.093-5.625l.282-19.218s.141-4.137-.157-5.188A5.44 5.44 0 0 0 21.6 20.86c-.841-.876-2.594-1.156-2.594-1.156-.508-.07-.629-.317-.594-.562a.504.504 0 0 1 .375-.438zm-10.125.03a7.328 7.328 0 0 1 3.032.47 6.78 6.78 0 0 1 1.53.874c.614.438 1.099.773 1.782.563.789-.228.926-.847 1.031-1.25a.763.763 0 0 1 .094-.313c.035-.017.19.057.313.25.157.228.533 1.028-.5 2.5a2.437 2.437 0 0 1-1.5 1c-.037.013-.073.03-.094.063-.024.03-.045.089-.031.125.037.167.053.329.062.5a3.533 3.533 0 0 1-.344 1.812 3.538 3.538 0 0 1-2.968 2.219c-1.35.157-2.428-.583-2.813-1.406a3.173 3.173 0 0 1-.031-2.47c.057-.166.156-.325.312-.405.053-.018.104-.004.157.03.105.106.107.36.125.657-.01.369.041.712.156 1.063.256.74.97 1.209 1.75 1.125 1.331-.123 2.152-1.078 2.187-2.532.035-1.524-.957-3.304-3.812-3.375h-.094c-1.076-.001-2.127.414-2.875 1.188-.943.99-1.461 2.32-1.5 3.687-.035 2.61 1.309 4.132 2.5 4.938 1.156.823 2.959.874 5.219.156.77-.245 1.6-.605 2.406-.937.683-.28 1.366-.585 2.031-.813a8.606 8.606 0 0 1 1.25-.312l.063-.032-.031-.062c-.176-.228-.408-.52-.688-.906-.578-.806-.755-2.341-.562-2.657.087-.14.183-.156.218-.156.02 0 .048.02.063.031v.094c-.02.211.034.42.156.594.127.198.367.313.594.25a.164.164 0 0 0 .094-.094c.14-.457.338-.909.593-1.312.28-.438 1.193-1.094 1.72-1.094h.03a.35.35 0 0 1 .313.187c.07.158-.149.4-.219.47a3.596 3.596 0 0 0-1.094 2.437c-.029.513.157 1.023.5 1.406.648.683 1.759.781 1.97.781v1.219h-.126c-1.103 0-1.952 1.32-2.25 2.687-.245 1.104-.025 2.67.063 3.125.087.438.017.545 0 .563-.018.017-.028 0-.063 0-.228-.053-.652-.528-1.125-1.281-.35-.56-.24-1.288-.187-1.657.035-.21.025-.29-.063-.343a.28.28 0 0 0-.187-.094h-.032a.508.508 0 0 0-.343.219c-.074.074-.133.13-.188.218-.07.088-.079.115-.219.063v-.063c-.105-.28.209-1.24.594-1.906.281-.504.636-.93 1.094-1.281l.156-.094-.187.031c-1.577.35-3.176.96-4.157 1.625a10.878 10.878 0 0 0-3 3c-.184-.115-.361-.23-.562-.312a2.641 2.641 0 0 0-.75-.219c.315-.42.852-.99 1.062-1.219v-.03c.029-.052.04-.114 0-.157a.137.137 0 0 0-.156-.031c-.07.017-1.495.553-4-.375-2.032-.754-4.15-2.955-4.062-6.844.122-3.942 2.895-5.942 5.593-6.188Zm30.688.5a14.527 14.527 0 0 1 3.344.407c.122.017.207.045.312.062.911.21 1.848.376 2.531.219a5.11 5.11 0 0 0 .907-.344c.157-.07.277-.143.312-.125 0 .017.031.014.031.031.035.158-.11.61-.53 1.188-.234.29-.522.534-.845.719-.21.122-.375.235-.375.375.04.155.13.303.22.437a7.96 7.96 0 0 1 1.155 4.406c-.157 3.294-1.76 4.71-2.812 5.657l-.094.125h-.031c-.683.806-.617 1.558-.406 2.03a3.01 3.01 0 0 0 1.843 1.595c.469.14.951.235 1.438.28.298.018.59.056.625.126.087.193-.186.52-.781.906a1.436 1.436 0 0 1-.907.281.03.03 0 0 0-.03.032c0 .017-.019.013 0 .03.017 0 1.19 1.006 1.312 2.407.122 1.419-.112 2.192-.813 2.875-.454.43-1.068.65-1.687.563a.234.234 0 0 1-.094-.032c-.035-.175.247-.383.562-.593.07-.053.118-.104.188-.157.403-.28.671-.75.531-1.03a.237.237 0 0 0-.219-.095c-.077.01-.145.037-.218.063-.158.053-.35.105-.438 0-.105-.105-.056-.2.031-.375.098-.173.138-.365.157-.563.035-.525-.01-1.936-.782-2.093-.03-.005-.067-.016-.093 0-.07.07-.063.268-.063.53 0 .369-.008.842-.219 1.157-.315.49-.817.875-1.062.875-.047.005-.096.006-.125-.031-.035-.053-.004-.169.031-.344a6.454 6.454 0 0 0 0-2.594 5.462 5.462 0 0 0-.656-1.53c-.28-.51-.541-.987-.594-1.407-.105-.771-.014-1.091.406-1.406a.561.561 0 0 0 .282-.47.42.42 0 0 0-.25-.405h-.032a2.625 2.625 0 0 0-.437-.032c-.806.018-2.7.055-4.031-1.75-1.087-1.471-1.148-2.857-.938-4.468a2.118 2.118 0 0 0-.625-1.094 2.604 2.604 0 0 0-.656-.438c-.123-.052-.25-.09-.25-.125l.062-.062c.14-.14.557-.306 1.188-.219.281.041.56.117.812.25 0 .018.014.018.032 0a4.11 4.11 0 0 1 3.28-1.312c1.227.087 2.372 1.297 2.407 2.593.035 1.297-.568 1.981-1.094 2.157a1.277 1.277 0 0 1-1.062-.032c-.099-.069-.144-.192-.156-.312-.018-.105.074-.163.25-.25a1.24 1.24 0 0 0 .812-1.188c.03-.415-.1-.812-.375-1.125a1.37 1.37 0 0 0-1.094-.437c-.656.007-1.28.33-1.687.844-.49.648-.661 1.625-.469 2.78.28 1.683 1.9 2.864 3.688 2.688a3.984 3.984 0 0 0 2.75-1.656 5.424 5.424 0 0 0 1.125-3.187c.035-2.786-1.585-5.673-5.282-5.813-3.538-.14-5.733 2.061-6.75 3.375-.63.823-1.308 2.395-1.78 3.656a2.706 2.706 0 0 1 1.53.157c.613.315 1.342 1.06 1.22 1.375-.036.087-.238.039-.5-.032a3.92 3.92 0 0 0-1.438 0c-.981.123-1.395.333-1.5.438l-1.344-.844c.193-.823 1.036-4.285 3.156-6.562a9.572 9.572 0 0 1 7.094-3.157zM28.475 29.797c.758.37 1.48.808 2.156 1.312.519.444 1.02.925 1.469 1.438l-.281 1.719c-.438-.491-1.002-1.1-1.563-1.625a5.136 5.136 0 0 0-1.781-1.125zm5.687 1.844c.06-.05.152-.039.22 0 .122.07.124.347.124.75-.01.298.009.577.031.875.088 1.016.402 1.565.594 1.687.02.014.038.034.063.031.07-.017.09-.15.125-.343.04-.34.135-.66.28-.97.334-.665.93-1.507 1.157-1.437.053.018.094.083.094.188-.035.315-.073.608-.125.906a9.862 9.862 0 0 0-.156 2.563c.087 1.874.957 2.138 1.062 2.156a7.625 7.625 0 0 1 1.094-1.469c.122-.14.221-.297.344-.437.385-.42.696-.75.906-.75h.031c.07-.001.13.03.156.093.088.123-.04.43-.25.938-.428.955-.71 1.966-.875 3a19.007 19.007 0 0 0 0 4.812v.157l-.062-.157c0-.017-.204-.582-1.063-1.843a8.356 8.356 0 0 0-.968-1.22 8.258 8.258 0 0 1-1.22-1.593 5.94 5.94 0 0 1-.78-2.094c-.07-.403-.116-.607-.344-.625-.035 0-.045.028-.063.063-.192.298-.088 1.984.438 3 .284.522.62 1.012 1 1.469.49.623.954 1.297 1.375 1.968a17.115 17.115 0 0 1 1.687 3.438c.053.175.122.329.157.469.106-.198.205-.387.343-.563 1.735-1.892 3.23-2.026 4.282-1.781a3.232 3.232 0 0 1 1.906 1.219c.524.756.724 1.683.594 2.593-.298 1.892-1.388 2.69-2.282 2.813-.069.015-.117.034-.187.031-.263 0-.479-.096-.531-.219-.03-.033-.051-.084-.032-.125.035-.07.124-.103.282-.156.246-.085.48-.185.687-.344.771-.613.754-.9.719-1.093 0-.035-.014-.063-.031-.063-.053-.018-.142.055-.282.125l-.062.031a.562.562 0 0 1-.469.032c-.073-.032-.11-.11-.125-.188-.018-.105.096-.176.219-.281.107-.093.202-.196.281-.313.387-.57.446-1.312.156-1.937-.227-.42-.554-.833-1.5-.938h-.093c-.13.002-.25.03-.375.063-1.034.193-1.746.903-2.22 1.656v.031c-.647.946-.808 2.376-.843 2.657-.21 1.331-.652 3.298-3.437 6.75a1.83 1.83 0 0 0-.407 1.593c.298 1.104 1.375 1.19 1.375 1.313-.017.158-.27.191-.656.156a.963.963 0 0 1-.531-.156s-.117.246.531.719c.508.368 1.076.342 1.094.5.017.192-3.089.9-3.281-2.22-.015-.068-.003-.116 0-.187C30.99 62.05 30 62.192 29.756 61.86c-.122-.157.213-.125.844-.843.648-.736.656-1.063.656-1.063a5.41 5.41 0 0 1-2.781.563c-1.542-.14-2.855-1.236-2.75-1.657.087-.35.99.27 2.094.094 1.033-.158 1.125-.562 1.125-.562s-.199.006-.532-.344c-.35-.35-.842-.64-.562-.938.175-.175.916.188 1.687.188.533.01 1.082-.07 1.594-.219a2.377 2.377 0 0 1-.812-.531c-.403-.403-.498-.832-.375-.938.07-.052.255.268.78.25.631-.017.688-.156.688-.156a1.797 1.797 0 0 1-.375-.469c-.122-.227-.495-.924-.25-1.187.088-.088.762.77 1.813.875 1.804.158 3.812-1.281 3.812-1.281a26.352 26.352 0 0 1-3.062 3c-1.332 1.156-2.994 2.07-2.906 2.28.122.264 1.427-.045 3.687-1.937a14.709 14.709 0 0 0 2.188-2.218c1.751-2.155 2.131-4.546 1.78-6.438a10.497 10.497 0 0 0-.562-1.969c-.963-2.102-2.029-3.146-3.78-3.812-1.56-.596-2.752-.052-3.47.281-.368.175-.613.296-.718.156-.316-.455.328-1.081.906-1.625.394-.404.854-.75 1.344-1.03a3.493 3.493 0 0 0-1.063-.313 3.612 3.612 0 0 0-.75.062c-.368.053-.652.081-.687-.094-.07-.368 1.412-1.018 2.218-1.28a5.978 5.978 0 0 1 1.594-.282 20.635 20.635 0 0 1 0-3.563c.053-.75.211-1.47.438-2.187.192-.526.4-.909.593-1.031zm-5.343 1.218c.438.158 1.174.876 1.437 1.157 0 0-.036.29.156 1.5.12.706.281 1.38.5 2.062l-1.375.625a22.349 22.349 0 0 1-.562-2.469c-.28-1.944-.156-2.875-.156-2.875zm-24.594.75c.357.082.665.306.844.625.157.333.378 1.204.343 1.344-.005.01-.003.021 0 .031a.08.08 0 0 0 .032.032c.035.017.082-.007.187-.094a4.803 4.803 0 0 1 3.125-1.031h.031c3.311 0 4.764 3.058 4.782 3.093v.032h.03c.018.017.438.135 1.313-.25.28-.123.531-.288.75-.5a1.883 1.883 0 0 1 1.438-.594c.823-.035 1.457.417 1.562.75.037.088-.016.194-.093.25-.123.087-.118.066-.188.031-.122-.053-.293-.136-.906-.031-.508.07-.755.54-1 1.031-.263.543-.57 1.075-1.219 1.25a1.456 1.456 0 0 1-1.375-.437c-.035-.07-.086-.143-.156-.125-.07.017-.094.107-.094.125-.042.48-.165.926-.344 1.375a3.475 3.475 0 0 1-4.28 2.062c-1.304-.349-2.184-1.558-2.157-2.906.017-.315.11-.482.25-.5a.239.239 0 0 1 .25.156c.103.35.25.687.437 1 .263.42.735.909 1.313 1.031.794.201 1.626 0 2.25-.53a2.603 2.603 0 0 0 .75-2.063 2.98 2.98 0 0 0-1.094-2.125 3.497 3.497 0 0 0-2.062-.782H8.88c-1 .013-1.981.387-2.719 1.063-.946.858-1.502 2.16-1.625 3.719a5.334 5.334 0 0 0 1.438 3.875c.77.823 1.71 1.312 2.656 1.312h.063c2.505 0 4.095-1.558 5.812-3.187 1.612-1.524 3.282-3.095 5.875-3.813.423-.073.821-.104 1.25-.125L21.6 40.11c-1.454.263-3.48 1.22-3.375 2.22a2.567 2.567 0 0 0 1.031 1.78c.07.053.156.108.156.125 0 .018-.037.028-.125.063-.464.148-.985.119-1.437-.063-.666-.315-1.313-1.388-1.313-1.406l-.03-.062-.032.03c-.018.018-2.008 2.088-3.094 2.876-.7.508-2.529 1.886-4.719 1.781a5.65 5.65 0 0 1-3.906-1.875C3.67 44.334 3.083 42.64 3.1 40.766c.017-1.7.185-2.451.781-4.063.08-.233.174-.466.281-.687a2.87 2.87 0 0 0 .313-1.188 1.81 1.81 0 0 0-.25-1.219Zm4.406 3.25a1.64 1.64 0 0 1 1.375.375c-.422.866-.75 1.78-.969 2.72-.297-.123-.712-.561-1.062-1.595.11-.54.34-1.047.656-1.5zm-1.75 5.25c.335.56.825 1.015 1.406 1.313a4.492 4.492 0 0 0-.125 1.281c-.42-.035-1.447-.762-1.5-.937a6.556 6.556 0 0 1 .22-1.657zm25.375 1.313c.485-.043.962.085 1.375.344.282.163.493.44.594.75.07.227.064.398-.094.468-.07.053-.24-.05-.469-.156a2.721 2.721 0 0 0-1.468-.25 2.887 2.887 0 0 0-1.72 1 2.518 2.518 0 0 0-.468 1.844c.158 1.279 1.226 2.519 2.75 2.344a2.227 2.227 0 0 0 1.438-.688l-.094-.094.031-.03a13.124 13.124 0 0 1-1.531-1.595c-.56-.718-.823-1.117-.875-1.187l-.156-.219c.241-.109.486-.153.75-.125.63.018 1.23.485 1.406.625 0 0 .321.331 1.25 1.313a13.246 13.246 0 0 0 2.031 1.78 6.79 6.79 0 0 1-.219 1.438 11.393 11.393 0 0 1-1.5-1.093c-.03-.035-.054-.07-.093-.094a3.675 3.675 0 0 1-1.907 1.219c-.218.05-.463.066-.687.062a3.828 3.828 0 0 1-3.625-2.969 6.914 6.914 0 0 1-.031-1.687 3.17 3.17 0 0 0-.063-1.031 2.378 2.378 0 0 0-.344-.625c-.087-.123-.146-.212-.093-.282.105-.122.465-.054.78.157a.788.788 0 0 1 .313.375c.193-.28 1.143-1.541 2.72-1.594zM14.381 46.89c.123-.053.426.43.531.78.123.369.071.726.282.813.157.053.23-.114.562-.5.456-.56.397-.775.625-.687.245.087-.02 1.258-.125 1.906a12.93 12.93 0 0 1-.406 1.594c.476-.31.985-.574 1.5-.813 2.014-.91 2.795-.62 2.812-.375.018.245-.474.293-1 .907-.368.438-.28.562-.28.562a4.19 4.19 0 0 0 1.155-.219c.613-.175 1.106-.464 1.282-.218.175.245-.604 1.315-1.813 2.156a9.2 9.2 0 0 1-2.187 1.156c.233.197.509.312.812.344.596.105.854.012.906.187.07.228-.58.44-1.718.563-1.612.158-2.438-.563-2.438-.563.122.384.113.812-.031 1.188-.245.578-.304 1.129-.531 1.094-.245-.035.049-.596-.407-1.157-.49-.595-1.051-.744-1.875-1.375-.806-.613-.812-1.093-.812-1.093s1.392.524 3.687.156c2.208-.35 2.877-1.005 2.72-1.25-.141-.228-.48.053-1.532.281-1.209.28-2.866.204-4.688-.094a6.033 6.033 0 0 1-2.28-.937c.315.613.8 1.708.905 2.531a7.697 7.697 0 0 1-.656 4.344c-.683 1.454-1.82 2.742-2.031 2.531-.175-.175.051-.33.156-.75.038-.177.1-.358.156-.531 0 0-.32.442-1.406 1.125-1.086.666-1.293.7-1.469.437-.122-.175.144-.357.407-.812.245-.438.187-.438.187-.438a6.316 6.316 0 0 1-1.687-.406c-.771-.333-1.549-1.123-1.532-1.281.036-.21.328-.345.907-.625a4.409 4.409 0 0 0 1.03-.688 4.887 4.887 0 0 1-.624-.218c-.368-.176-.728-.335-.5-.563.21-.193 1.198.433 2.687-.969 1.332-1.244 1.313-3.062 1.313-3.062s.67 2.144-.188 3.844c-1.05 2.084-3.022 2.093-2.812 2.53.263.544 2.654.037 3.687-2.468.876-2.102-.021-4.767-.687-6.344-.175-.455-.436-1.058-.594-1.53a5.145 5.145 0 0 0 1.563.468c.017 0 .093.125.093.125.579.928 1.496 1.262 1.97 1.437.458.175.946.283 1.437.282.43.008.846-.071 1.25-.22.264-.09.49-.24.687-.437.56-.613.737-2.578 1-2.718zm27.094 4.406c.455-.105.986.1.969.187-.018.088-.605.243-.938 1.032a9.052 9.052 0 0 1 2.219.968c1.629 1.034 2.051 2.149 2.156 2.657.208.708.228 1.476.031 2.187 0 .018-.03.045-.03.063-.369 1.331-1.175 2.26-2.313 2.593-.318.101-.667.153-1 .157-.754 0-1.38-.281-2.063-.72a1.24 1.24 0 0 0-.812.126c-.163.095-.31.206-.438.344-.087.087-.135.142-.187.125-.022-.02-.05-.036-.063-.063-.061-.34.002-.678.188-.969.104-.186.255-.38.406-.53a3.445 3.445 0 0 1 .062-2.72c.42-.893 1.503-1.381 2.344-1.03.859.367 1.129.981 1.094 1.437.002.3-.119.612-.344.812-.07.067-.16.066-.25.031-.105-.035-.125-.154-.125-.312a.826.826 0 0 0-.5-.844.818.818 0 0 0-.75-.062 1.024 1.024 0 0 0-.562.625c-.173.462-.124.994.093 1.437.263.508.827.887 1.563 1.063 1.086.263 2.226-.58 2.594-1.875.129-.434.117-.876 0-1.313-.298-.964-.955-1.854-2.532-2.625-.543-.263-1.655-.745-2.093-.937.245-.701.256-.911.343-1.157.23-.331.554-.564.938-.687z" style="clip-rule:evenodd;fill-rule:nonzero;stroke-linecap:round;stroke-linejoin:round" transform="matrix(.64606 0 0 .64606 .026 -9.842)"/>
</svg>