<?xml version="1.0" encoding="UTF-8" standalone="no"?>
<!DOCTYPE svg PUBLIC "-//W3C//DTD SVG 1.1//EN" "http://www.w3.org/Graphics/SVG/1.1/DTD/svg11.dtd">
<!-- Created with Vectornator (http://vectornator.io/) -->
<svg height="100%" stroke-miterlimit="10" style="fill-rule:nonzero;clip-rule:evenodd;stroke-linecap:round;stroke-linejoin:round;" version="1.1" viewBox="0 0 200 80" width="100%" xml:space="preserve" xmlns="http://www.w3.org/2000/svg" xmlns:xlink="http://www.w3.org/1999/xlink">
<defs/>
<path d="M0 0L200 0L200 80L0 80L0 0Z" fill="#ffffff" fill-opacity="0" fill-rule="nonzero" opacity="1" stroke="none"/>
<g id="Camada-1">
<g opacity="1">
<g opacity="1">
<path d="M0.0061371 15.2344L0.0061371 64.7656L49.4436 64.7656L49.4436 15.2344L0.0061371 15.2344ZM18.7874 18.7031L31.3499 18.7344C31.5503 18.7686 31.6777 18.938 31.6936 19.1406C31.7462 19.3859 31.6391 19.6156 31.1311 19.7031C31.1311 19.7031 29.347 19.9833 28.5061 20.8594C27.9082 21.4843 27.4795 22.2516 27.2249 23.0781C26.9272 24.1117 27.0686 28.2656 27.0686 28.2656L27.0686 47.5469C27.0686 47.5469 27.1079 51.2587 26.5999 53.2031C26.267 54.5696 25.5108 57.2523 23.4436 59.1094C21.5866 60.7911 20.133 61.1865 18.3811 61.4844C16.4191 61.8172 12.6936 61.2969 12.6936 61.2969L10.7874 55.1094C10.7874 55.1094 12.7677 57.0049 13.8186 57.8281C14.8698 58.6516 15.8609 59.1094 17.3499 59.1094C18.8215 59.1094 19.8262 58.7206 20.9124 57.5469C21.9985 56.3905 22.4131 54.8786 22.6936 53.1094C22.8861 51.8305 22.7874 48.3076 22.7874 47.4844L23.0686 28.2656C23.0686 28.2656 23.21 24.1291 22.9124 23.0781C22.6646 22.2485 22.2038 21.4797 21.5999 20.8594C20.759 19.9833 19.0061 19.7031 19.0061 19.7031C18.4979 19.6332 18.3774 19.3859 18.4124 19.1406C18.4312 18.9357 18.5868 18.7491 18.7874 18.7031ZM8.66239 18.7344C9.69348 18.6705 10.7269 18.8391 11.6936 19.2031C12.2377 19.4273 12.7574 19.7208 13.2249 20.0781C13.838 20.5159 14.323 20.8507 15.0061 20.6406C15.7946 20.4129 15.9325 19.7937 16.0374 19.3906C16.0498 19.2847 16.0743 19.1683 16.1311 19.0781C16.1663 19.0608 16.3211 19.1354 16.4436 19.3281C16.6014 19.5558 16.9772 20.3565 15.9436 21.8281C15.5802 22.3417 15.0596 22.7 14.4436 22.8281C14.4075 22.8411 14.3706 22.8583 14.3499 22.8906C14.3258 22.9201 14.3054 22.9799 14.3186 23.0156C14.3557 23.1828 14.3717 23.3447 14.3811 23.5156C14.4269 24.1432 14.3125 24.7622 14.0374 25.3281C13.5478 26.5649 12.3937 27.4307 11.0686 27.5469C9.71957 27.7044 8.64135 26.9639 8.25614 26.1406C7.90614 25.358 7.90848 24.4687 8.22489 23.6719C8.28152 23.5051 8.38058 23.3459 8.53739 23.2656C8.58997 23.248 8.64105 23.2619 8.69364 23.2969C8.79861 23.402 8.80103 23.6555 8.81864 23.9531C8.8081 24.3216 8.85996 24.6654 8.97489 25.0156C9.23109 25.7562 9.94583 26.225 10.7249 26.1406C12.0564 26.0179 12.8774 25.0634 12.9124 23.6094C12.9474 22.0854 11.9553 20.3046 9.09989 20.2344L9.00614 20.2344C7.92965 20.2328 6.87924 20.6478 6.13114 21.4219C5.18828 22.4121 4.66951 23.7426 4.63114 25.1094C4.59612 27.7195 5.93981 29.241 7.13114 30.0469C8.28723 30.8704 10.09 30.9212 12.3499 30.2031C13.1208 29.9578 13.9503 29.5985 14.7561 29.2656C15.4395 28.9853 16.1219 28.6811 16.7874 28.4531C17.1931 28.3113 17.615 28.2202 18.0374 28.1406L18.0999 28.1094L18.0686 28.0469C17.8935 27.8192 17.6614 27.5261 17.3811 27.1406C16.803 26.3348 16.6259 24.7996 16.8186 24.4844C16.9062 24.3442 17.0024 24.3281 17.0374 24.3281C17.0565 24.3272 17.0852 24.3471 17.0999 24.3594L17.0999 24.4531C17.0798 24.6642 17.1342 24.8734 17.2561 25.0469C17.383 25.2454 17.6229 25.3601 17.8499 25.2969C17.8908 25.2824 17.9292 25.244 17.9436 25.2031C18.0837 24.7464 18.282 24.2944 18.5374 23.8906C18.8177 23.4526 19.7305 22.7969 20.2561 22.7969L20.2874 22.7969C20.4154 22.7986 20.5458 22.8683 20.5999 22.9844C20.6699 23.1419 20.4511 23.3832 20.3811 23.4531C19.724 24.0966 19.3161 24.9714 19.2874 25.8906C19.2581 26.4044 19.4441 26.9135 19.7874 27.2969C20.4355 27.9802 21.546 28.0781 21.7561 28.0781L21.7561 29.2969L21.6311 29.2969C20.5276 29.2969 19.679 30.6179 19.3811 31.9844C19.1361 33.0879 19.3561 34.654 19.4436 35.1094C19.5312 35.5474 19.4612 35.6543 19.4436 35.6719C19.4263 35.6892 19.4161 35.6719 19.3811 35.6719C19.1534 35.6193 18.7291 35.1439 18.2561 34.3906C17.9057 33.8301 18.0161 33.1025 18.0686 32.7344C18.1036 32.5243 18.0939 32.4432 18.0061 32.3906C17.9555 32.3378 17.8917 32.3002 17.8186 32.2969L17.7874 32.2969C17.6464 32.3151 17.526 32.3998 17.4436 32.5156C17.3703 32.5897 17.3108 32.6456 17.2561 32.7344C17.186 32.8219 17.1775 32.8492 17.0374 32.7969L17.0374 32.7344C16.9322 32.4541 17.2457 31.4939 17.6311 30.8281C17.9124 30.324 18.2666 29.898 18.7249 29.5469L18.8811 29.4531L18.6936 29.4844C17.1169 29.8346 15.5184 30.4436 14.5374 31.1094C13.3471 31.8944 12.3363 32.9282 11.5374 34.1094C11.3533 33.9941 11.1756 33.8799 10.9749 33.7969C10.7425 33.6844 10.4802 33.6166 10.2249 33.5781C10.5402 33.1577 11.0771 32.5871 11.2874 32.3594L11.2874 32.3281C11.3158 32.2766 11.327 32.2154 11.2874 32.1719C11.2478 32.1283 11.1851 32.1173 11.1311 32.1406C11.061 32.1582 9.63632 32.694 7.13114 31.7656C5.09917 31.0123 2.98108 28.8109 3.06864 24.9219C3.19118 20.9801 5.96448 18.9797 8.66239 18.7344ZM39.3499 19.2344C40.4764 19.2327 41.597 19.3828 42.6936 19.6406C42.8162 19.6582 42.901 19.6858 43.0061 19.7031C43.917 19.9135 44.8543 20.0794 45.5374 19.9219C45.8457 19.8339 46.1577 19.7233 46.4436 19.5781C46.6014 19.5082 46.7212 19.4355 46.7561 19.4531C46.7561 19.4705 46.7874 19.4668 46.7874 19.4844C46.8223 19.6421 46.6766 20.0937 46.2561 20.6719C46.0234 20.9619 45.7353 21.2062 45.4124 21.3906C45.202 21.5134 45.0374 21.6255 45.0374 21.7656C45.0766 21.9213 45.1679 22.069 45.2561 22.2031C46.0627 23.531 46.4644 25.0566 46.4124 26.6094C46.2546 29.9028 44.6511 31.3196 43.5999 32.2656L43.5061 32.3906L43.4749 32.3906C42.7918 33.1965 42.8583 33.9489 43.0686 34.4219C43.4281 35.1937 44.1001 35.7606 44.9124 36.0156C45.3807 36.1566 45.863 36.2514 46.3499 36.2969C46.6478 36.3142 46.9399 36.3519 46.9749 36.4219C47.0625 36.6146 46.7894 36.9427 46.1936 37.3281C45.932 37.5268 45.6158 37.6151 45.2874 37.6094C45.2698 37.6094 45.2561 37.623 45.2561 37.6406C45.2561 37.658 45.2385 37.6543 45.2561 37.6719C45.2738 37.6719 46.4461 38.6765 46.5686 40.0781C46.6914 41.4969 46.4568 42.2698 45.7561 42.9531C45.3017 43.3831 44.6882 43.6025 44.0686 43.5156C44.0372 43.5107 44.0011 43.5024 43.9749 43.4844C43.9399 43.309 44.2219 43.101 44.5374 42.8906C44.6075 42.838 44.6549 42.787 44.7249 42.7344C45.128 42.4541 45.3963 41.9834 45.2561 41.7031C45.208 41.6369 45.1183 41.5969 45.0374 41.6094C44.9598 41.6185 44.8924 41.646 44.8186 41.6719C44.6609 41.7245 44.4687 41.777 44.3811 41.6719C44.276 41.5667 44.3248 41.472 44.4124 41.2969C44.5096 41.1244 44.5502 40.9315 44.5686 40.7344C44.6036 40.2088 44.5583 38.7984 43.7874 38.6406C43.757 38.636 43.7199 38.6247 43.6936 38.6406C43.6237 38.7108 43.6311 38.9092 43.6311 39.1719C43.6311 39.5397 43.6227 40.0129 43.4124 40.3281C43.0971 40.8188 42.5952 41.2031 42.3499 41.2031C42.3026 41.2081 42.2539 41.2095 42.2249 41.1719C42.1899 41.1193 42.2212 41.0032 42.2561 40.8281C42.4374 39.974 42.4258 39.0909 42.2561 38.2344C42.1137 37.6897 41.8987 37.1802 41.5999 36.7031C41.3196 36.1949 41.0587 35.7173 41.0061 35.2969C40.9012 34.526 40.992 34.2059 41.4124 33.8906C41.5854 33.7936 41.6809 33.6198 41.6936 33.4219C41.6975 33.2462 41.606 33.0829 41.4436 33.0156L41.4124 33.0156C41.2617 32.9918 41.1275 32.9838 40.9749 32.9844C40.169 33.002 38.2751 33.0386 36.9436 31.2344C35.8575 29.7628 35.796 28.3774 36.0061 26.7656C35.9113 26.3479 35.6969 25.9614 35.3811 25.6719C35.1825 25.4933 34.9675 25.3461 34.7249 25.2344C34.6024 25.1818 34.4749 25.1444 34.4749 25.1094C34.4749 25.1094 34.5024 25.0819 34.5374 25.0469C34.6775 24.9067 35.0944 24.7406 35.7249 24.8281C36.0065 24.869 36.2857 24.9452 36.5374 25.0781C36.5374 25.0957 36.551 25.0957 36.5686 25.0781C37.4087 24.1733 38.6182 23.6806 39.8499 23.7656C41.0762 23.8532 42.2209 25.0631 42.2561 26.3594C42.2911 27.6559 41.688 28.3405 41.1624 28.5156C40.8239 28.659 40.4281 28.6499 40.0999 28.4844C40.0012 28.4151 39.9561 28.2918 39.9436 28.1719C39.9263 28.0669 40.0183 28.0094 40.1936 27.9219C40.6889 27.7374 41.0193 27.2627 41.0061 26.7344C41.0351 26.3186 40.9066 25.9222 40.6311 25.6094C40.352 25.3112 39.9446 25.1393 39.5374 25.1719C38.8813 25.179 38.2579 25.5018 37.8499 26.0156C37.3595 26.6638 37.1886 27.6408 37.3811 28.7969C37.6617 30.4786 39.2818 31.6595 41.0686 31.4844C42.181 31.3464 43.1666 30.7398 43.8186 29.8281C44.5224 28.9119 44.9191 27.7957 44.9436 26.6406C44.9786 23.8552 43.3589 20.9683 39.6624 20.8281C36.1237 20.688 33.9286 22.8893 32.9124 24.2031C32.2819 25.0264 31.6041 26.5979 31.1311 27.8594C31.6396 27.7684 32.1883 27.8105 32.6624 28.0156C33.2755 28.3309 34.0037 29.0754 33.8811 29.3906C33.8462 29.4784 33.644 29.4296 33.3811 29.3594C32.9005 29.2708 32.4243 29.2708 31.9436 29.3594C30.9626 29.4821 30.5488 29.6917 30.4436 29.7969L29.0999 28.9531C29.2926 28.1296 30.1364 24.6679 32.2561 22.3906C34.0645 20.3898 36.653 19.2297 39.3499 19.2344ZM28.4749 29.7969C29.2328 30.1662 29.9556 30.6048 30.6311 31.1094C31.1498 31.5526 31.6504 32.0337 32.0999 32.5469L31.8186 34.2656C31.3808 33.775 30.8167 33.166 30.2561 32.6406C29.7514 32.1427 29.1372 31.7687 28.4749 31.5156L28.4749 29.7969ZM34.1624 31.6406C34.222 31.5918 34.3142 31.6024 34.3811 31.6406C34.5037 31.7108 34.5061 31.9878 34.5061 32.3906C34.4953 32.6885 34.5148 32.9684 34.5374 33.2656C34.6249 34.2818 34.9386 34.8306 35.1311 34.9531C35.1517 34.9671 35.1689 34.987 35.1936 34.9844C35.2636 34.9668 35.2837 34.8333 35.3186 34.6406C35.3583 34.3006 35.454 33.9815 35.5999 33.6719C35.9327 33.0061 36.5284 32.1644 36.7561 32.2344C36.8087 32.252 36.8499 32.3167 36.8499 32.4219C36.8149 32.7371 36.7772 33.0302 36.7249 33.3281C36.5609 34.176 36.5093 35.029 36.5686 35.8906C36.6562 37.7653 37.526 38.0293 37.6311 38.0469C37.9324 37.5089 38.3047 37.0294 38.7249 36.5781C38.8475 36.438 38.9461 36.2808 39.0686 36.1406C39.4541 35.7202 39.7646 35.3906 39.9749 35.3906L40.0061 35.3906C40.0752 35.3899 40.1364 35.4204 40.1624 35.4844C40.25 35.6072 40.1225 35.9137 39.9124 36.4219C39.4837 37.3766 39.2019 38.3883 39.0374 39.4219C38.8335 41.0213 38.8335 42.635 39.0374 44.2344L39.0374 44.3906L38.9749 44.2344C38.9749 44.217 38.7708 43.6521 37.9124 42.3906C37.6239 41.9525 37.3078 41.5495 36.9436 41.1719C36.4772 40.6918 36.0614 40.1568 35.7249 39.5781C35.3321 38.9333 35.0716 38.2285 34.9436 37.4844C34.8737 37.0813 34.8276 36.877 34.5999 36.8594C34.5649 36.8594 34.5548 36.8869 34.5374 36.9219C34.3446 37.2198 34.4495 38.9057 34.9749 39.9219C35.2588 40.4439 35.5947 40.934 35.9749 41.3906C36.4644 42.0142 36.9291 42.6876 37.3499 43.3594C38.0431 44.4429 38.6012 45.5868 39.0374 46.7969C39.09 46.972 39.1587 47.1255 39.1936 47.2656C39.2997 47.0684 39.3987 46.8789 39.5374 46.7031C41.2719 44.8111 42.7675 44.6766 43.8186 44.9219C44.5768 45.0885 45.2633 45.5166 45.7249 46.1406C46.249 46.8966 46.4487 47.8237 46.3186 48.7344C46.021 50.6264 44.9308 51.4243 44.0374 51.5469C43.9683 51.5615 43.9205 51.581 43.8499 51.5781C43.5872 51.5781 43.3712 51.4819 43.3186 51.3594C43.2883 51.3259 43.2676 51.2749 43.2874 51.2344C43.3224 51.1642 43.4109 51.1307 43.5686 51.0781C43.8146 50.993 44.0496 50.8928 44.2561 50.7344C45.027 50.1212 45.0101 49.8333 44.9749 49.6406C44.9749 49.6056 44.961 49.5781 44.9436 49.5781C44.8911 49.5605 44.8025 49.6329 44.6624 49.7031L44.5999 49.7344C44.4611 49.8138 44.2805 49.8229 44.1311 49.7656C44.0584 49.734 44.021 49.6561 44.0061 49.5781C43.9885 49.473 44.1023 49.402 44.2249 49.2969C44.3316 49.2044 44.4268 49.1012 44.5061 48.9844C44.8934 48.4143 44.9518 47.6724 44.6624 47.0469C44.4346 46.6264 44.1084 46.2143 43.1624 46.1094L43.0686 46.1094C42.9385 46.1107 42.8194 46.1385 42.6936 46.1719C41.66 46.3646 40.9479 47.0748 40.4749 47.8281C40.4749 47.8457 40.4749 47.8418 40.4749 47.8594C39.8267 48.8054 39.6661 50.2353 39.6311 50.5156C39.4208 51.8471 38.9791 53.8144 36.1936 57.2656C35.8147 57.7033 35.6619 58.2942 35.7874 58.8594C36.0853 59.9629 37.1624 60.0491 37.1624 60.1719C37.145 60.3296 36.8914 60.3631 36.5061 60.3281C36.3137 60.3287 36.1371 60.2754 35.9749 60.1719C35.9749 60.1719 35.8578 60.4176 36.5061 60.8906C37.0141 61.2585 37.5823 61.2331 37.5999 61.3906C37.6172 61.5833 34.5114 62.2902 34.3186 59.1719C34.3043 59.1028 34.3158 59.0549 34.3186 58.9844C30.99 62.0499 30.0014 62.1922 29.7561 61.8594C29.6336 61.7019 29.9694 61.7339 30.5999 61.0156C31.2482 60.2799 31.2561 59.9531 31.2561 59.9531C30.3878 60.3842 29.4423 60.5796 28.4749 60.5156C26.9334 60.3755 25.6197 59.2798 25.7249 58.8594C25.8124 58.5089 26.7151 59.1282 27.8186 58.9531C28.8522 58.7954 28.9436 58.3906 28.9436 58.3906C28.9436 58.3906 28.7453 58.3973 28.4124 58.0469C28.0619 57.6966 27.5696 57.4073 27.8499 57.1094C28.025 56.9342 28.7665 57.2969 29.5374 57.2969C30.0705 57.3063 30.6191 57.2268 31.1311 57.0781C30.828 56.9544 30.5471 56.7814 30.3186 56.5469C29.9158 56.144 29.8211 55.7145 29.9436 55.6094C30.0138 55.5568 30.1993 55.877 30.7249 55.8594C31.3554 55.842 31.4124 55.7031 31.4124 55.7031C31.2587 55.5678 31.1389 55.4122 31.0374 55.2344C30.9149 55.0067 30.5421 54.3098 30.7874 54.0469C30.8749 53.9593 31.5487 54.8169 32.5999 54.9219C34.4041 55.0796 36.4124 53.6406 36.4124 53.6406C35.4794 54.7149 34.4456 55.7329 33.3499 56.6406C32.0184 57.797 30.3561 58.7115 30.4436 58.9219C30.5662 59.1846 31.8713 58.8764 34.1311 56.9844C34.9321 56.3219 35.6755 55.5822 36.3186 54.7656C38.0705 52.6109 38.4501 50.2202 38.0999 48.3281C37.9717 47.6511 37.7937 46.999 37.5374 46.3594C36.574 44.2573 35.508 43.2126 33.7561 42.5469C32.197 41.9513 31.0055 42.4953 30.2874 42.8281C29.9195 43.0032 29.6738 43.1245 29.5686 42.9844C29.2534 42.529 29.8967 41.9026 30.4749 41.3594C30.869 40.9551 31.3293 40.6096 31.8186 40.3281C31.4874 40.1673 31.1212 40.0636 30.7561 40.0156C30.5098 40.0069 30.2488 40.0345 30.0061 40.0781C29.638 40.1307 29.3536 40.1595 29.3186 39.9844C29.2485 39.6165 30.7315 38.9658 31.5374 38.7031C32.0528 38.5322 32.5887 38.4486 33.1311 38.4219C33.0284 37.2445 33.0284 36.0367 33.1311 34.8594C33.1841 34.1096 33.3421 33.3885 33.5686 32.6719C33.7611 32.1463 33.9697 31.7632 34.1624 31.6406ZM28.8186 32.8594C29.2567 33.0169 29.9935 33.7353 30.2561 34.0156C30.2561 34.0156 30.2199 34.3069 30.4124 35.5156C30.5318 36.2218 30.6935 36.8962 30.9124 37.5781L29.5374 38.2031C29.3098 37.3848 29.109 36.5731 28.9749 35.7344C28.6946 33.7898 28.8186 32.8594 28.8186 32.8594ZM4.22489 33.6094C4.58169 33.6914 4.89004 33.9148 5.06864 34.2344C5.22618 34.5672 5.44736 35.438 5.41239 35.5781C5.40749 35.5874 5.40906 35.5994 5.41239 35.6094C5.41573 35.6193 5.43417 35.6362 5.44364 35.6406C5.47862 35.6582 5.52597 35.6344 5.63114 35.5469C6.52935 34.8447 7.61659 34.4814 8.75614 34.5156L8.78739 34.5156C12.0985 34.5156 13.551 37.5744 13.5686 37.6094L13.5686 37.6406L13.5999 37.6406C13.6173 37.658 14.0366 37.7761 14.9124 37.3906C15.1917 37.2675 15.4435 37.1034 15.6624 36.8906C16.0351 36.4991 16.5599 36.2727 17.0999 36.2969C17.9232 36.2619 18.5572 36.714 18.6624 37.0469C18.6991 37.135 18.6462 37.2414 18.5686 37.2969C18.4459 37.3844 18.4513 37.3631 18.3811 37.3281C18.2586 37.2755 18.088 37.1917 17.4749 37.2969C16.9669 37.3671 16.72 37.8375 16.4749 38.3281C16.212 38.8713 15.9043 39.403 15.2561 39.5781C14.7417 39.6792 14.2379 39.5248 13.8811 39.1406C13.8459 39.0704 13.7948 38.998 13.7249 39.0156C13.6547 39.033 13.6311 39.123 13.6311 39.1406C13.5886 39.6214 13.4656 40.0671 13.2874 40.5156C12.6279 42.2209 10.7487 43.1315 9.00614 42.5781C7.70325 42.2291 6.82277 41.0204 6.84989 39.6719C6.86727 39.3566 6.95975 39.1895 7.09989 39.1719C7.20843 39.1608 7.31489 39.2248 7.34989 39.3281C7.45294 39.6782 7.59965 40.0152 7.78739 40.3281C8.05009 40.7485 8.52171 41.2366 9.09989 41.3594C9.8938 41.56 10.7259 41.3585 11.3499 40.8281C11.8879 40.2813 12.1714 39.5294 12.0999 38.7656C12.0505 37.9382 11.6489 37.164 11.0061 36.6406C10.4117 36.1672 9.70308 35.8866 8.94364 35.8594L8.88114 35.8594C7.88111 35.8722 6.89995 36.2465 6.16239 36.9219C5.21636 37.7803 4.66016 39.0815 4.53739 40.6406C4.46951 42.0748 4.99928 43.4622 5.97489 44.5156C6.74578 45.3391 7.68512 45.8281 8.63114 45.8281L8.69364 45.8281C11.1988 45.8281 12.7892 44.27 14.5061 42.6406C16.1179 41.1167 17.7884 39.5464 20.3811 38.8281C20.8041 38.7555 21.2025 38.7238 21.6311 38.7031L21.5999 40.1094C20.1456 40.3723 18.12 41.3295 18.2249 42.3281C18.3127 43.0436 18.6734 43.6851 19.2561 44.1094C19.3263 44.162 19.4124 44.2168 19.4124 44.2344C19.4124 44.2517 19.3749 44.2619 19.2874 44.2969C18.8226 44.4445 18.3025 44.416 17.8499 44.2344C17.1841 43.9191 16.5374 42.8457 16.5374 42.8281L16.5061 42.7656L16.4749 42.7969C16.4573 42.8142 14.4673 44.8836 13.3811 45.6719C12.6805 46.1799 10.8523 47.5583 8.66239 47.4531C7.16492 47.3789 5.75925 46.6924 4.75614 45.5781C3.66998 44.3342 3.08251 42.6401 3.09989 40.7656C3.11746 39.0663 3.28536 38.3146 3.88114 36.7031C3.96013 36.4697 4.05472 36.2373 4.16239 36.0156C4.35176 35.652 4.4566 35.2377 4.47489 34.8281C4.53376 34.4012 4.45347 33.9747 4.22489 33.6094ZM8.63114 36.8594C9.12429 36.7658 9.62451 36.9083 10.0061 37.2344C9.58402 38.1004 9.25547 39.0147 9.03739 39.9531C8.73953 39.8306 8.32513 39.393 7.97489 38.3594C8.08564 37.8182 8.31437 37.312 8.63114 36.8594ZM6.88114 42.1094C7.21611 42.6699 7.70649 43.1237 8.28739 43.4219C8.19092 43.8409 8.13565 44.274 8.16239 44.7031C7.74197 44.6679 6.71497 43.941 6.66239 43.7656C6.66741 43.2035 6.73496 42.6522 6.88114 42.1094ZM32.2561 43.4219C32.7414 43.3792 33.2183 43.507 33.6311 43.7656C33.9135 43.9293 34.1237 44.2054 34.2249 44.5156C34.2951 44.7433 34.2889 44.9142 34.1311 44.9844C34.0612 45.0369 33.8901 44.9331 33.6624 44.8281C33.2058 44.6057 32.699 44.5276 32.1936 44.5781C31.5193 44.7036 30.9093 45.0473 30.4749 45.5781C30.0824 46.1057 29.9168 46.7704 30.0061 47.4219C30.1639 48.7008 31.2322 49.9407 32.7561 49.7656C33.3049 49.7166 33.8172 49.4804 34.1936 49.0781L34.0999 48.9844L34.1311 48.9531C33.5847 48.4654 33.056 47.9325 32.5999 47.3594C32.0393 46.6411 31.7772 46.2421 31.7249 46.1719L31.5686 45.9531C31.8102 45.8445 32.0553 45.7998 32.3186 45.8281C32.9492 45.8457 33.5498 46.313 33.7249 46.4531C33.7249 46.4531 34.0462 46.7844 34.9749 47.7656C35.5897 48.4288 36.2697 49.022 37.0061 49.5469C36.9877 50.0318 36.9088 50.5145 36.7874 50.9844C36.2618 50.6577 35.7528 50.2984 35.2874 49.8906C35.2568 49.8564 35.2328 49.8208 35.1936 49.7969C34.7014 50.3957 34.0367 50.8172 33.2874 51.0156C33.0692 51.0659 32.8237 51.0817 32.5999 51.0781C30.8543 51.0261 29.3653 49.8115 28.9749 48.1094C28.8885 47.5471 28.8922 46.9883 28.9436 46.4219C28.9826 46.0768 28.955 45.73 28.8811 45.3906C28.7963 45.1642 28.6849 44.9572 28.5374 44.7656C28.4498 44.6428 28.3911 44.5543 28.4436 44.4844C28.5488 44.3616 28.9094 44.4303 29.2249 44.6406C29.3724 44.7324 29.4681 44.8563 29.5374 45.0156C29.7301 44.7353 30.6796 43.4745 32.2561 43.4219ZM14.3811 46.8906C14.5037 46.838 14.8072 47.3216 14.9124 47.6719C15.0349 48.0399 14.9833 48.3968 15.1936 48.4844C15.3511 48.5369 15.4235 48.3698 15.7561 47.9844C16.2118 47.4238 16.1534 47.2093 16.3811 47.2969C16.6265 47.3844 16.3611 48.5548 16.2561 49.2031C16.1499 49.7429 16.0236 50.2749 15.8499 50.7969C16.3259 50.4872 16.8346 50.223 17.3499 49.9844C19.3645 49.0736 20.1448 49.3641 20.1624 49.6094C20.18 49.8545 19.688 49.9025 19.1624 50.5156C18.7945 50.9537 18.8811 51.0781 18.8811 51.0781C19.2696 51.0569 19.6706 50.9892 20.0374 50.8594C20.6505 50.6843 21.1435 50.3953 21.3186 50.6406C21.4937 50.8859 20.7148 51.956 19.5061 52.7969C18.8315 53.279 18.0973 53.668 17.3186 53.9531C17.5517 54.1499 17.8277 54.2653 18.1311 54.2969C18.7267 54.402 18.9848 54.309 19.0374 54.4844C19.1073 54.7121 18.4574 54.9243 17.3186 55.0469C15.7071 55.2046 14.8811 54.4844 14.8811 54.4844C15.0027 54.8683 14.9941 55.2959 14.8499 55.6719C14.6046 56.2501 14.5463 56.8008 14.3186 56.7656C14.0736 56.7306 14.3678 56.1699 13.9124 55.6094C13.4218 55.0138 12.8609 54.8651 12.0374 54.2344C11.2315 53.6212 11.2249 53.1406 11.2249 53.1406C11.2249 53.1406 12.6175 53.6647 14.9124 53.2969C17.1197 52.9466 17.7887 52.2922 17.6311 52.0469C17.491 51.8192 17.1511 52.1002 16.0999 52.3281C14.8912 52.6084 13.2342 52.532 11.4124 52.2344C10.5918 52.0856 9.82435 51.7606 9.13114 51.2969C9.44663 51.91 9.93222 53.0046 10.0374 53.8281C10.242 55.3045 10.0201 56.8253 9.38114 58.1719C8.69783 59.6259 7.56022 60.9135 7.34989 60.7031C7.17477 60.528 7.40097 60.3736 7.50614 59.9531C7.54382 59.7756 7.6067 59.5946 7.66239 59.4219C7.66239 59.4219 7.34229 59.8638 6.25614 60.5469C5.16998 61.2126 4.96251 61.2471 4.78739 60.9844C4.66465 60.809 4.93073 60.6275 5.19364 60.1719C5.43894 59.7341 5.38114 59.7344 5.38114 59.7344C4.80387 59.6724 4.23214 59.5451 3.69364 59.3281C2.92273 58.9952 2.14501 58.2046 2.16239 58.0469C2.1976 57.8368 2.49046 57.7022 3.06864 57.4219C3.44423 57.2378 3.78982 57.0151 4.09989 56.7344C3.88513 56.6786 3.68016 56.5998 3.47489 56.5156C3.10705 56.3403 2.74719 56.1808 2.97489 55.9531C3.18501 55.7604 4.17341 56.3858 5.66239 54.9844C6.99388 53.7405 6.97489 51.9219 6.97489 51.9219C6.97487 51.9219 7.64584 54.0663 6.78739 55.7656C5.73643 57.8504 3.76456 57.8588 3.97489 58.2969C4.2376 58.8401 6.62881 58.3333 7.66239 55.8281C8.53845 53.726 7.64062 51.0609 6.97489 49.4844C6.79978 49.0287 6.53865 48.4259 6.38114 47.9531C6.87926 48.1873 7.39735 48.3544 7.94364 48.4219C7.96124 48.4219 8.03739 48.5469 8.03739 48.5469C8.61556 49.4753 9.53313 49.8093 10.0061 49.9844C10.4648 50.1592 10.9528 50.2667 11.4436 50.2656C11.8735 50.2743 12.2898 50.1945 12.6936 50.0469C12.9576 49.9563 13.184 49.8069 13.3811 49.6094C13.9417 48.9962 14.1182 47.0308 14.3811 46.8906ZM41.4749 51.2969C41.9305 51.1917 42.4612 51.3968 42.4436 51.4844C42.426 51.5722 41.839 51.7274 41.5061 52.5156C42.2882 52.742 43.0303 53.0596 43.7249 53.4844C45.354 54.5179 45.776 55.6326 45.8811 56.1406C46.0887 56.8491 46.1086 57.6165 45.9124 58.3281C45.9124 58.3457 45.8811 58.3733 45.8811 58.3906C45.513 59.7221 44.7074 60.6515 43.5686 60.9844C43.2513 61.0853 42.9016 61.1369 42.5686 61.1406C41.8153 61.1406 41.1895 60.8599 40.5061 60.4219C40.2294 60.3751 39.9384 60.4095 39.6936 60.5469C39.5312 60.6415 39.384 60.7528 39.2561 60.8906C39.1686 60.9782 39.1212 61.0332 39.0686 61.0156C39.0469 60.9957 39.0192 60.9795 39.0061 60.9531C38.9446 60.6135 39.0082 60.2755 39.1936 59.9844C39.298 59.7981 39.4486 59.6038 39.5999 59.4531C39.2495 58.5707 39.2673 57.5977 39.6624 56.7344C40.0828 55.8409 41.1653 55.3529 42.0061 55.7031C42.8646 56.071 43.1349 56.6852 43.0999 57.1406C43.102 57.4416 42.981 57.7531 42.7561 57.9531C42.6861 58.02 42.5965 58.0191 42.5061 57.9844C42.401 57.9494 42.3811 57.8296 42.3811 57.6719C42.4218 57.3095 42.2139 56.9771 41.8811 56.8281C41.6533 56.6897 41.3759 56.6601 41.1311 56.7656C40.8673 56.8873 40.6499 57.1117 40.5686 57.3906C40.3964 57.8532 40.4453 58.3848 40.6624 58.8281C40.9251 59.3361 41.489 59.7155 42.2249 59.8906C43.311 60.1535 44.4508 59.3119 44.8186 58.0156C44.9478 57.582 44.9364 57.14 44.8186 56.7031C44.521 55.7395 43.8642 54.849 42.2874 54.0781C41.7444 53.8154 40.6317 53.3333 40.1936 53.1406C40.439 52.4399 40.4496 52.2297 40.5374 51.9844C40.7667 51.6528 41.0909 51.4197 41.4749 51.2969Z" fill="#000000" fill-rule="nonzero" opacity="1" stroke="none"/>
<g opacity="1">
<path d="M96.019 38.1155C92.6001 35.789 89.4192 33.605 89.4192 29.2846C89.4192 25.4389 92.3157 24.0622 95.0691 24.0622C98.6776 24.0622 100.909 25.9135 101.573 29.4271L101.621 29.6644L102.428 29.6644L102.428 29.3794C102.381 28.6675 102.381 27.4327 102.381 26.7208C102.381 25.4866 102.428 24.6316 102.523 23.5399L102.57 23.2072L102.238 23.2549C101.987 23.2945 101.733 23.3105 101.479 23.3026C100.631 23.2794 99.7874 23.1679 98.9626 22.9699C97.6646 22.7079 96.3454 22.565 95.0214 22.543C89.5617 22.543 85.7637 26.1985 85.7637 31.4686C85.7637 37.0232 89.6565 39.6347 93.4074 42.1985C96.9681 44.6199 100.339 46.8987 100.339 51.504C100.339 55.8244 97.1584 57.7711 94.0245 57.7711C90.369 57.7711 86.6658 55.7766 86.6658 51.9309C86.6758 51.5813 86.7074 51.2326 86.7606 50.8869L86.8083 50.4117L86.0957 50.4117L86.0009 50.5542C85.5894 51.564 85.3797 52.6447 85.3838 53.7351C85.3803 54.3237 85.4279 54.9114 85.5264 55.4916C85.5734 56.0139 85.6211 56.5363 85.6211 57.0586C85.6333 57.4549 85.6173 57.8516 85.5734 58.2457L85.4786 58.6255L85.8584 58.5778C86.0778 58.5387 86.3006 58.5229 86.5233 58.5307C87.4835 58.5573 88.4384 58.6846 89.3721 58.9105C90.7239 59.2442 92.1099 59.4195 93.5022 59.4328C99.5797 59.4328 103.852 55.2543 103.852 49.32C103.852 43.4805 99.8641 40.7264 96.019 38.1155Z" fill="#000000" fill-rule="nonzero" opacity="1" stroke="none"/>
<path d="M150.903 22.543C139.508 22.543 132.671 32.0857 132.671 41.2487C132.671 50.2221 139.365 59.4799 150.523 59.4799C160.683 59.4799 168.659 51.4086 168.659 41.1062C168.659 30.709 160.872 22.543 150.903 22.543ZM163.579 41.4389C163.579 51.5511 158.546 57.8659 150.475 57.8659C142.499 57.8659 137.751 51.5988 137.751 41.1539C137.751 28.6675 144.351 24.2047 150.475 24.2047C156.552 24.157 163.579 28.7146 163.579 41.4389Z" fill="#000000" fill-rule="nonzero" opacity="1" stroke="none"/>
<path d="M199.851 58.7203C196.955 57.7234 193.584 51.6936 191.116 47.2785C189.786 44.8572 188.647 42.9104 187.84 42.056C192.017 40.3943 194.534 36.9761 194.534 32.9401C194.534 26.7208 189.739 22.6848 182.38 22.6848C181.857 22.6848 181.05 22.6848 180.148 22.7326C179.104 22.7803 177.965 22.7803 177.157 22.7803C174.973 22.7803 174.024 22.7803 172.315 22.6848L172.03 22.6848L172.03 23.4451L172.267 23.4922C173.929 23.7295 174.451 24.3943 174.451 27.7654L174.451 54.5424C174.451 58.4353 173.834 58.5307 172.172 58.8151L171.935 58.8628L171.935 59.6224L172.22 59.6224C173.217 59.5747 174.641 59.5276 176.587 59.5276C178.629 59.5276 180.338 59.5747 180.955 59.6224L181.24 59.6224L181.24 58.8628L181.003 58.8151C179.341 58.5307 178.724 58.4353 178.724 54.5424L178.724 43.2902L181.668 43.2902C182.353 43.287 183.036 43.2236 183.709 43.1007C184.564 43.9551 185.561 45.8541 186.178 46.9935C186.32 47.2308 186.415 47.4681 186.511 47.6106C192.445 58.768 193.11 59.4328 198.475 59.6224C198.903 59.6331 199.331 59.6172 199.757 59.5747L199.994 59.5276L199.994 58.8151L199.851 58.7203ZM178.724 24.7264C179.82 24.4175 180.956 24.2736 182.095 24.2995C186.748 24.2995 189.786 27.9079 189.786 33.5102C189.786 39.1124 187.033 41.6285 180.861 41.6285L178.724 41.6285L178.724 24.7264Z" fill="#000000" fill-rule="nonzero" opacity="1" stroke="none"/>
<path d="M133.383 22.4953L133.004 22.4953C130.629 22.543 118.191 22.7326 106.986 22.4953L106.749 22.4953L106.701 22.6848C106.464 23.587 106.274 24.3943 106.036 25.1539C105.751 26.1037 105.514 26.9581 105.324 27.9079L105.277 28.24L106.036 28.24L106.131 28.0975C107.556 25.1062 109.645 25.0591 117.383 25.0591L117.383 54.4947C117.383 58.4353 116.766 58.5307 115.105 58.768L114.867 58.8151L114.867 59.5747L115.152 59.5747C116.149 59.5276 117.574 59.4799 119.473 59.4799C121.514 59.4799 123.176 59.5276 123.793 59.5747L124.078 59.5747L124.078 58.8151L123.841 58.768C122.179 58.483 121.561 58.3882 121.561 54.4947L121.561 25.0591C130.108 25.0591 131.342 25.3912 131.342 26.626C131.34 26.8507 131.309 27.0741 131.247 27.2902L131.152 27.6229L132.007 27.6229L132.054 27.3856C132.196 26.626 132.766 24.2047 133.193 22.8274L133.383 22.4953Z" fill="#000000" fill-rule="nonzero" opacity="1" stroke="none"/>
<path d="M76.6478 22.5901C74.8913 22.5901 72.8974 22.543 71.8528 22.4953L71.5678 22.4953L71.5678 23.2549L71.8051 23.3026C73.5616 23.587 74.6062 23.7295 74.6062 27.4327L74.6062 49.2723C74.6062 53.3553 72.6601 57.7234 69.574 57.7234C69.017 57.7251 68.4609 57.6774 67.9123 57.5809C66.1224 57.0777 64.5725 55.949 63.5443 54.3999C63.4495 54.2574 63.307 54.0678 63.2122 53.9253C62.6594 53.1322 62.2124 52.2703 61.8825 51.3615C61.8219 51.2075 61.6678 51.1112 61.5027 51.1242C61.3355 51.1679 61.2314 51.3345 61.2654 51.504L61.9773 57.2488C61.9744 57.3614 62.0279 57.4681 62.1198 57.5332C63.6952 58.4996 65.4604 59.115 67.2952 59.3374L67.2952 59.3374C67.9383 59.4431 68.5896 59.4908 69.2413 59.4799L69.7636 59.4799C75.1285 59.4799 78.6893 55.1595 78.6893 48.7029L78.6893 27.4327C78.6893 23.8249 79.4966 23.6824 81.206 23.3026L81.4904 23.2549L81.4904 22.4953L81.206 22.4953C80.2562 22.543 78.3095 22.5901 76.6478 22.5901Z" fill="#000000" fill-rule="nonzero" opacity="1" stroke="none"/>
</g>
</g>
</g>
</g>
</svg>
