<?xml version="1.0" encoding="UTF-8" standalone="no"?>
<svg id="a" viewBox="0 0 32 32" version="1.1" sodipodi:docname="jusbrasil.svg" width="32" height="32" inkscape:version="1.4-beta2 (9aaf4f34, 2024-07-30)" xmlns:inkscape="http://www.inkscape.org/namespaces/inkscape" xmlns:sodipodi="http://sodipodi.sourceforge.net/DTD/sodipodi-0.dtd" xmlns="http://www.w3.org/2000/svg" xmlns:svg="http://www.w3.org/2000/svg">
  <defs id="defs12" />
  <sodipodi:namedview id="namedview12" pagecolor="#ffffff" bordercolor="#000000" borderopacity="0.25" inkscape:showpageshadow="2" inkscape:pageopacity="0.0" inkscape:pagecheckerboard="0" inkscape:deskcolor="#d1d1d1" inkscape:zoom="0.325" inkscape:cx="129.23077" inkscape:cy="38.461538" inkscape:window-width="1440" inkscape:window-height="790" inkscape:window-x="0" inkscape:window-y="0" inkscape:window-maximized="1" inkscape:current-layer="a" />
  <g id="g12" transform="matrix(0.67127756,0,0,0.67127756,0.00514443,-10.813965)">
    <path d="m 3.56,60.43 v 0 c -3.4,-1.96 -4.58,-6.29 -2.62,-9.69 0,-0.01 0.01,-0.02 0.02,-0.03 l 16.66,-28.8 c 2.09,-3.35 6.5,-4.37 9.85,-2.29 3.18,1.99 4.3,6.1 2.54,9.41 L 13.32,57.81 c -1.97,3.42 -6.35,4.58 -9.76,2.61 v 0 z" style="fill-rule:evenodd;stroke-width:0px" id="path10" />
    <path d="m 44.09,60.43 v 0 c -3.42,1.97 -7.79,0.81 -9.77,-2.6 L 17.63,29.04 c -1.85,-3.49 -0.52,-7.82 2.98,-9.66 3.32,-1.76 7.43,-0.65 9.41,2.54 L 46.7,50.71 c 1.97,3.39 0.82,7.73 -2.57,9.7 -0.01,0 -0.02,0.01 -0.04,0.02 z" style="fill-rule:evenodd;stroke-width:0px" id="path11" />
    <path d="M 29.72,21.46 29.58,21.25 C 29.5,21.14 29.42,21.01 29.32,20.91 L 29.13,20.69 28.89,20.43 28.63,20.19 28.41,20 28.07,19.73 27.86,19.59 27.47,19.35 27.23,19.22 26.86,19.03 26.54,18.9 26.22,18.77 25.85,18.66 25.56,18.58 25.15,18.5 h -2.64 l -0.39,0.08 -0.29,0.08 -0.37,0.11 -0.32,0.13 -0.32,0.13 -0.37,0.19 -0.24,0.13 -0.41,0.24 -0.19,0.14 -0.34,0.27 -0.22,0.19 -0.26,0.24 -0.24,0.26 -0.19,0.22 c -0.09,0.11 -0.18,0.22 -0.26,0.34 -0.06,0.06 -0.11,0.14 -0.14,0.21 -0.1,0.12 -0.19,0.25 -0.26,0.39 -1.31,2.22 -1.31,4.96 0,7.17 l 6.19,10.69 6.2,-10.69 c 1.3,-2.22 1.3,-4.96 0,-7.17 -0.21,-0.13 -0.29,-0.27 -0.37,-0.39 h -0.01 v 0 z" style="fill-rule:evenodd;stroke-width:0px" id="path12" />
  </g>
</svg>
