<svg id="Camada_1" data-name="Camada 1" xmlns="http://www.w3.org/2000/svg" viewBox="0 0 200 80"><defs><style>.cls-1{fill-rule:evenodd;}</style></defs><path class="cls-1" d="M43.33,55V51.61a9.5,9.5,0,0,0,5.57,1.82c2.05,0,3.53-.51,4.44-1.52s1.36-2.67,1.36-5V26H58v21.2a12.74,12.74,0,0,1-.78,4.72,6.27,6.27,0,0,1-2.11,2.91,8.67,8.67,0,0,1-2.75,1.35,10.81,10.81,0,0,1-3,.4A11.83,11.83,0,0,1,43.33,55Z"/><path class="cls-1" d="M64.51,46.72V33.62h3.28V46.87q0,3.45,1.5,5A6.16,6.16,0,0,0,74,53.52a6.2,6.2,0,0,0,4.69-1.61q1.51-1.59,1.52-5V33.62h3.28v13.1q0,4.71-2.48,7.29a9.26,9.26,0,0,1-7,2.58A9.25,9.25,0,0,1,67,54Q64.52,51.43,64.51,46.72Z"/><path class="cls-1" d="M88,39.76a6.17,6.17,0,0,1,2-4.62q2-1.92,6-1.92a13.35,13.35,0,0,1,5.79,1.38v3.25A10.45,10.45,0,0,0,96.4,36.3q-5.12,0-5.11,3.46a2.15,2.15,0,0,0,1.24,1.9,12.59,12.59,0,0,0,3,1.2A35.46,35.46,0,0,1,99.15,44a6.88,6.88,0,0,1,3,2.25,6.37,6.37,0,0,1,1.25,4,5.51,5.51,0,0,1-2.2,4.62,9.91,9.91,0,0,1-6.1,1.67,13.93,13.93,0,0,1-6.84-1.7V51.43a12.69,12.69,0,0,0,6.71,2c3.43,0,5.15-1,5.15-3.13a3.13,3.13,0,0,0-1.24-2.64,8.35,8.35,0,0,0-3-1.43c-1.19-.32-2.39-.67-3.58-1a7,7,0,0,1-3-1.91A5,5,0,0,1,88,39.76Z"/><path class="cls-1" d="M110.63,49.63c0,2.65,2,4,6,4a8.48,8.48,0,0,0,2.28-.28,6.3,6.3,0,0,0,2.1-1.13,5.46,5.46,0,0,0,1.71-2.76,16.21,16.21,0,0,0,.6-4.77c0-2.92-.56-5-1.68-6.37s-2.93-2-5.43-2a14.67,14.67,0,0,0-5.57,1.13Zm-3.27-.18V25h3.27v9.16a17.35,17.35,0,0,1,5.57-.92,15,15,0,0,1,2.91.27,9.82,9.82,0,0,1,2.77,1,8.56,8.56,0,0,1,2.43,2A9.31,9.31,0,0,1,126,39.84a16.81,16.81,0,0,1,.63,4.82,17.52,17.52,0,0,1-.7,5.23,10.44,10.44,0,0,1-1.72,3.48,8.34,8.34,0,0,1-2.44,2,9.44,9.44,0,0,1-2.64,1,14.8,14.8,0,0,1-6.75-.39,7.87,7.87,0,0,1-2.72-1.4,7.22,7.22,0,0,1-2.15-3.73A9.65,9.65,0,0,1,107.36,49.45Z"/><path class="cls-1" d="M131.6,56.24V35.41a28.1,28.1,0,0,1,11-2.14v3.07a32.53,32.53,0,0,0-7.7,1.18V56.24Z"/><path class="cls-1" d="M147.66,49.29q0,4.23,6.14,4.23h.07q6,0,6-4.1V45.08a25,25,0,0,0-4-.26Q147.66,44.82,147.66,49.29Zm-3.27,0a6.35,6.35,0,0,1,1.94-4.69,7.16,7.16,0,0,1,2.08-1.29,14.77,14.77,0,0,1,2.24-.78,14.25,14.25,0,0,1,2.31-.38c.89-.09,1.53-.14,1.9-.16l1.34,0,3.63.22c0-2.06-.56-3.52-1.67-4.4a7.88,7.88,0,0,0-4.93-1.31,19.11,19.11,0,0,0-6.62,1.08V34.4a20.43,20.43,0,0,1,6.79-1.18q4.75,0,7.25,2.41t2.5,7v6.79a6.62,6.62,0,0,1-1,3.71,5.74,5.74,0,0,1-2.58,2.22,14.47,14.47,0,0,1-3,1,15.09,15.09,0,0,1-2.73.26,17.42,17.42,0,0,1-2.14-.13,12.19,12.19,0,0,1-2.48-.61,9.23,9.23,0,0,1-2.41-1.22,6.06,6.06,0,0,1-1.74-2.13A6.9,6.9,0,0,1,144.39,49.29Z"/><path class="cls-1" d="M167,39.76a6.2,6.2,0,0,1,2-4.62q2-1.92,6-1.92a13.36,13.36,0,0,1,5.8,1.38v3.25a10.45,10.45,0,0,0-5.44-1.55q-5.12,0-5.11,3.46a2.15,2.15,0,0,0,1.24,1.9,12.26,12.26,0,0,0,3,1.2A35.29,35.29,0,0,1,178.17,44a6.85,6.85,0,0,1,3.05,2.25,6.37,6.37,0,0,1,1.25,4,5.49,5.49,0,0,1-2.21,4.62,9.9,9.9,0,0,1-6.09,1.67,13.93,13.93,0,0,1-6.84-1.7V51.43a12.66,12.66,0,0,0,6.7,2c3.44,0,5.16-1,5.16-3.13A3.13,3.13,0,0,0,178,47.66a8.43,8.43,0,0,0-3-1.43c-1.19-.32-2.39-.67-3.59-1a7.07,7.07,0,0,1-3-1.91A5,5,0,0,1,167,39.76Z"/><path class="cls-1" d="M186.9,56.24h3.28V33.62H186.9Zm-.18-26.6h3.63V26h-3.63Z"/><path class="cls-1" d="M196.73,56.24H200V25h-3.27Z"/><path class="cls-1" d="M2.75,55.78h0a5.46,5.46,0,0,1-2-7.48L13.57,26.15a5.5,5.5,0,0,1,9.53,5.48L10.26,53.77A5.5,5.5,0,0,1,2.75,55.78Z"/><path class="cls-1" d="M33.92,55.78h0a5.51,5.51,0,0,1-7.52-2L13.57,31.63a5.5,5.5,0,0,1,9.53-5.48L35.93,48.3A5.46,5.46,0,0,1,33.92,55.78Z"/><path class="cls-1" d="M22.87,25.8l-.11-.16a2.56,2.56,0,0,0-.2-.26l-.15-.17-.19-.2-.2-.19-.17-.14-.26-.21-.16-.11-.3-.19-.18-.1-.29-.15-.24-.1-.25-.1-.28-.09-.22-.06-.31-.06-.21,0-.3,0h-1l-.3,0-.22,0-.3.06-.22.06-.28.09-.25.1-.24.1-.29.15-.18.1-.31.19-.15.11-.26.21-.17.14-.2.19-.19.2-.15.17a2.56,2.56,0,0,0-.2.26.91.91,0,0,0-.11.16,2.23,2.23,0,0,0-.2.3,5.45,5.45,0,0,0,0,5.52l4.76,8.22,4.77-8.22a5.47,5.47,0,0,0,0-5.52C23,26,22.94,25.89,22.87,25.8Z"/></svg>