<svg width="32" height="32" xmlns="http://www.w3.org/2000/svg">
  <path d="M3.56 60.43c-3.4-1.96-4.58-6.29-2.62-9.69 0-.01.01-.02.02-.03l16.66-28.8a7.16 7.16 0 0 1 9.85-2.29c3.18 1.99 4.3 6.1 2.54 9.41L13.32 57.81c-1.97 3.42-6.35 4.58-9.76 2.61z" style="fill-rule:evenodd;stroke-width:0" transform="matrix(.67128 0 0 .67128 .005 -10.814)"/>
  <path d="M44.09 60.43c-3.42 1.97-7.79.81-9.77-2.6L17.63 29.04a7.134 7.134 0 0 1 2.98-9.66 7.137 7.137 0 0 1 9.41 2.54L46.7 50.71c1.97 3.39.82 7.73-2.57 9.7-.01 0-.02.01-.04.02z" style="fill-rule:evenodd;stroke-width:0" transform="matrix(.67128 0 0 .67128 .005 -10.814)"/>
  <path d="m29.72 21.46-.14-.21c-.08-.11-.16-.24-.26-.34l-.19-.22-.24-.26-.26-.24-.22-.19-.34-.27-.21-.14-.39-.24-.24-.13-.37-.19-.32-.13-.32-.13-.37-.11-.29-.08-.41-.08h-2.64l-.39.08-.29.08-.37.11-.32.13-.32.13-.37.19-.24.13-.41.24-.19.14-.34.27-.22.19-.26.24-.24.26-.19.22c-.09.11-.18.22-.26.34-.06.06-.11.14-.14.21-.1.12-.19.25-.26.39a7.032 7.032 0 0 0 0 7.17l6.19 10.69 6.2-10.69c1.3-2.22 1.3-4.96 0-7.17-.21-.13-.29-.27-.37-.39h-.01z" style="fill-rule:evenodd;stroke-width:0" transform="matrix(.67128 0 0 .67128 .005 -10.814)"/>
</svg>