<?xml version="1.0" encoding="UTF-8"?><svg id="a" xmlns="http://www.w3.org/2000/svg" viewBox="0 0 362.54 80"><defs><style>.b{fill-rule:evenodd;stroke-width:0px;}</style></defs><path class="b" d="m78.53,67.09v-6.15c2.93,2.13,6.47,3.29,10.1,3.3,3.72,0,6.4-.93,8.05-2.75s2.47-4.84,2.47-9.06V14.52h5.98v38.43c.08,2.91-.4,5.82-1.41,8.55-.73,2.09-2.07,3.93-3.82,5.27-1.5,1.11-3.19,1.94-4.99,2.44-1.77.5-3.6.74-5.43.73-3.83.04-7.61-.95-10.93-2.86h0Z"/><path class="b" d="m116.93,52.07v-23.74h5.95v24.02c0,4.17.91,7.19,2.72,9.06,2.3,2.16,5.4,3.24,8.54,2.99,3.12.25,6.2-.81,8.5-2.91,1.83-1.92,2.74-4.95,2.75-9.06v-24.1h5.95v23.74c0,5.69-1.5,10.1-4.49,13.22-3.39,3.27-7.99,4.96-12.69,4.68-4.71.29-9.32-1.41-12.7-4.7-3-3.1-4.5-7.51-4.52-13.2h0Z"/><path class="b" d="m159.5,39.46c-.03-3.18,1.28-6.22,3.63-8.37,2.42-2.32,6.04-3.48,10.88-3.48,3.64.03,7.23.89,10.49,2.5v5.89c-2.94-1.81-6.32-2.78-9.77-2.81-6.19,0-9.27,2.09-9.27,6.27.03,1.48.91,2.82,2.25,3.45,1.71.95,3.54,1.69,5.43,2.18,2.22.57,4.41,1.26,6.57,2.07,2.15.83,4.04,2.25,5.43,4.08,1.55,2.09,2.35,4.65,2.26,7.25.13,3.27-1.36,6.4-3.99,8.37-3.26,2.19-7.14,3.26-11.06,3.03-4.33.05-8.6-1.01-12.4-3.09v-6.18c3.63,2.32,7.85,3.58,12.16,3.63,6.21,0,9.33-1.81,9.33-5.67.09-1.87-.75-3.66-2.25-4.78-1.62-1.22-3.47-2.1-5.43-2.59-2.16-.58-4.33-1.22-6.49-1.81-2.08-.67-3.95-1.86-5.43-3.46-1.6-1.76-2.45-4.08-2.36-6.45h0Z"/><path class="b" d="m200.53,57.35c0,4.8,3.63,7.25,10.88,7.25,1.4.02,2.79-.15,4.13-.51,1.39-.44,2.68-1.13,3.81-2.05,1.52-1.31,2.6-3.06,3.1-5.01.79-2.81,1.16-5.73,1.09-8.65,0-5.3-1.01-9.06-3.04-11.55s-5.31-3.63-9.84-3.63c-3.46.02-6.9.71-10.1,2.05l-.02,22.08h0Zm-5.93-.33V12.7h5.93v16.6c3.25-1.11,6.66-1.66,10.1-1.67,1.77,0,3.54.15,5.27.49,1.76.35,3.45.96,5.02,1.81,1.68.93,3.17,2.15,4.41,3.63,1.41,1.78,2.46,3.84,3.06,6.03.81,2.85,1.18,5.79,1.14,8.73.06,3.21-.37,6.4-1.27,9.48-.63,2.28-1.7,4.42-3.12,6.31-1.23,1.48-2.73,2.71-4.42,3.63-1.49.84-3.11,1.45-4.78,1.81-4.08.71-8.26.47-12.23-.7-1.79-.51-3.47-1.38-4.93-2.54-1.95-1.81-3.32-4.17-3.9-6.76-.15-.84-.24-1.69-.27-2.54v.02Z"/><path class="b" d="m238.54,69.33V31.58c6.32-2.62,13.1-3.93,19.94-3.88v5.56c-4.72.15-9.41.87-13.95,2.14v33.94h-5.98Z"/><path class="b" d="m267.65,56.73c0,5.11,3.71,7.67,11.13,7.67h.13c7.25,0,10.88-2.48,10.88-7.43v-7.87c-2.4-.35-4.83-.51-7.25-.47-9.93,0-14.88,2.7-14.88,8.1Zm-5.93,0c-.06-3.2,1.22-6.28,3.51-8.5,1.11-.99,2.39-1.78,3.77-2.34,1.31-.58,2.67-1.05,4.06-1.41,1.37-.34,2.78-.57,4.19-.69,1.61-.16,2.78-.26,3.45-.29h2.43l6.58.4c0-3.74-1.01-6.38-3.03-7.98-2.63-1.76-5.78-2.6-8.94-2.37-4.08-.06-8.14.6-12,1.95v-5.77c3.95-1.41,8.12-2.13,12.31-2.14,5.74,0,10.12,1.46,13.14,4.37s4.53,7.14,4.53,12.69v12.31c.08,2.37-.56,4.71-1.81,6.73-1.11,1.78-2.74,3.19-4.68,4.02-1.74.8-3.57,1.41-5.43,1.81-1.63.31-3.29.46-4.95.47-1.29,0-2.59-.08-3.88-.23-1.53-.21-3.04-.58-4.49-1.11-1.56-.52-3.03-1.26-4.37-2.21-1.34-1.03-2.41-2.35-3.15-3.86-.87-1.83-1.3-3.83-1.23-5.85h0Z"/><path class="b" d="m302.71,39.46c-.03-3.18,1.29-6.22,3.63-8.37,2.42-2.32,6.04-3.48,10.88-3.48,3.65.03,7.24.88,10.52,2.5v5.89c-2.97-1.83-6.38-2.79-9.86-2.81-6.19,0-9.27,2.09-9.27,6.27.03,1.48.91,2.82,2.25,3.45,1.71.96,3.54,1.7,5.43,2.18,2.26.57,4.48,1.26,6.67,2.07,2.19.81,4.11,2.23,5.53,4.08,1.55,2.09,2.35,4.65,2.26,7.25.13,3.28-1.37,6.41-4,8.37-3.25,2.19-7.13,3.25-11.04,3.03-4.33.05-8.6-1.01-12.4-3.09v-6.18c3.63,2.32,7.83,3.58,12.15,3.63,6.23,0,9.35-1.81,9.35-5.67.1-1.85-.7-3.64-2.16-4.78-1.62-1.22-3.47-2.1-5.43-2.59-2.16-.58-4.33-1.22-6.51-1.81-2.07-.67-3.95-1.86-5.43-3.46-1.67-1.72-2.6-4.05-2.55-6.45h0Z"/><path class="b" d="m338.79,69.33h5.95V28.33h-5.95v41.01Zm-.33-48.22h6.58v-6.6h-6.58v6.6Z"/><path class="b" d="m356.61,69.33h5.93V12.7h-5.93v56.63Z"/><path class="b" d="m4.97,68.49h0c-4.74-2.73-6.38-8.77-3.65-13.51,0-.02.02-.03.03-.04L24.58,14.78c2.91-4.67,9.06-6.1,13.73-3.2,4.44,2.77,5.99,8.5,3.54,13.12l-23.27,40.13c-2.75,4.77-8.85,6.39-13.61,3.64h0Z"/><path class="b" d="m61.48,68.49h0c-4.77,2.75-10.86,1.13-13.63-3.63L24.58,24.72c-2.58-4.87-.72-10.9,4.15-13.47,4.63-2.45,10.36-.9,13.12,3.54l23.26,40.15c2.74,4.73,1.14,10.78-3.59,13.53-.02,0-.03.02-.05.03h0Z"/><path class="b" d="m41.44,14.15l-.2-.29c-.11-.16-.23-.33-.36-.47l-.27-.31-.34-.36-.36-.34-.31-.26-.47-.38-.29-.2-.54-.34-.33-.18-.52-.27-.44-.18-.45-.18-.51-.16-.4-.11-.57-.11h-3.68l-.54.11-.4.11-.51.16-.45.18-.44.18-.52.27-.33.18-.57.34-.27.2-.47.38-.31.26-.36.34-.34.36-.27.31c-.13.15-.25.31-.36.47-.08.09-.15.19-.2.29-.14.17-.26.35-.36.54-1.82,3.09-1.82,6.92,0,10l8.63,14.9,8.65-14.9c1.81-3.09,1.81-6.92,0-10-.29-.18-.4-.38-.52-.54h-.02Z"/></svg>