<?xml version="1.0" encoding="UTF-8" standalone="no"?>
<svg version="1.1" width="32" height="32" id="svg60" xmlns="http://www.w3.org/2000/svg" xmlns:svg="http://www.w3.org/2000/svg">
  <defs id="defs60" />
  <path id="path2" style="fill:#000000;stroke-width:0.0359549" d="m 16.539062,0 c -0.0024,1.0403679 -0.0048,2.0807222 -0.0059,3.1210938 -1.22e-4,0.1257807 1.44e-4,0.2511687 0,0.3769531 0,0.02583 2.8e-5,0.051104 0,0.076172 -4e-4,0.4053946 -9.6e-4,0.8114023 -0.002,1.2167968 -9.33e-4,0.3939142 -0.0017,0.7877229 -0.002,1.1816406 -1.29e-4,0.23508 6.8e-4,0.4699982 0,0.7050782 -8e-4,0.2242289 -0.002,0.4476462 -0.002,0.671875 4.9e-5,0.08334 3e-5,0.16666 0,0.25 -0.0033,0.6312305 0.03357,1.2210344 0.205078,1.8320312 0.0153,0.051243 0.01431,0.051334 0.0293,0.1015625 0.09782,0.3293536 0.213825,0.6352948 0.384765,0.9335938 l 0.03906,0.06836 c 0.538046,0.923802 1.293479,1.713433 2.267578,2.179688 0.03643,0.01672 0.07011,0.03261 0.105469,0.04883 0.213775,0.09876 0.43115,0.183133 0.65625,0.251953 0.03923,0.01171 0.03966,0.01001 0.07813,0.02148 0.0474,0.01422 0.09307,0.02929 0.140625,0.04297 0.0559,0.0145 0.112078,0.02845 0.167968,0.04297 0.423276,0.122122 0.834129,0.123094 1.271485,0.121094 0.08734,-2.87e-4 0.174379,3.2e-5 0.261719,0 0.213754,1.8e-4 0.426872,-0.0013 0.640625,-0.002 0.278136,-8.9e-4 0.555848,0 0.833984,0 0.451234,-2e-4 0.902283,-9.54e-4 1.353516,-0.002 0.439323,-0.001 0.879035,-0.0015 1.318359,-0.002 0.028,0 0.05485,2.9e-5 0.08203,0 0.136534,-7.2e-5 0.273622,-0.002 0.410157,-0.002 1.154863,-0.0011 2.309981,-0.0014 3.464843,-0.0039 0,-0.03595 -10e-4,-0.03742 -0.0625,-0.103516 l -0.08398,-0.08594 c -0.03209,-0.03214 -0.06455,-0.06256 -0.0957,-0.09375 -0.034,-0.03386 -0.06661,-0.06675 -0.09961,-0.09961 -0.147604,-0.148246 -0.29253,-0.298768 -0.449218,-0.4375 -0.207163,-0.176815 -0.398534,-0.366984 -0.589844,-0.560547 -0.207948,-0.210644 -0.411861,-0.42634 -0.636719,-0.61914 -0.142768,-0.121823 -0.274197,-0.255401 -0.40625,-0.388672 -0.192337,-0.195249 -0.380965,-0.394476 -0.589844,-0.572266 -0.07219,-0.05678 -0.07202,-0.05701 -0.15039,-0.132812 -0.07678,-0.105707 -0.151595,-0.2068034 -0.240235,-0.3027344 -0.255261,-0.2344583 -0.256964,-0.233837 -1.072265,-0.21875 -0.118597,0.0023 -0.236854,0.00231 -0.355469,0.00195 -0.224855,-6.8e-4 -0.448992,9.563e-4 -0.673828,0.00391 -0.281787,0.00368 -0.563894,0.00525 -0.845703,0.00586 -0.09979,2.158e-4 -0.199038,-3.595e-4 -0.298828,0 -0.0371,3.596e-4 -0.03785,0.00195 -0.07422,0.00195 -0.142887,4e-4 -0.284851,6.931e-4 -0.427734,0.00195 -0.0467,5.011e-4 -0.09334,-4.674e-4 -0.138672,0 -0.08643,7.9e-4 -0.171383,0.00308 -0.257813,0.00391 -0.348402,0.00476 -0.685839,-0.00853 -1.027344,-0.082031 l -0.07813,-0.017578 C 21.002364,9.4052414 20.444769,9.2089638 19.945312,8.8769531 19.895673,8.8426271 19.896326,8.8422437 19.847656,8.8085938 19.120028,8.311579 18.446642,7.5852998 18.113281,6.7597656 18.084691,6.6771018 18.055894,6.5941139 18.021484,6.5136719 17.902659,6.2430613 17.7964,5.9768343 17.75,5.6835938 17.7458,5.6533378 17.7404,5.6231138 17.73633,5.5937498 17.68408,5.2178742 17.67752,4.8458363 17.67774,4.4667967 c 5.39e-4,-0.1320082 2.16e-4,-0.2644762 0,-0.3964844 -0.0012,-0.3807942 -0.0027,-0.7617839 -0.002,-1.1425781 4.57e-4,-0.2392256 8.24e-4,-0.4775713 0,-0.7167969 -3.85e-4,-0.090639 1.8e-4,-0.1827995 0,-0.2734375 7.34e-4,-0.129646 4.85e-4,-0.2590259 0,-0.3886719 -2.13e-4,-0.040327 2.16e-4,-0.078043 0,-0.1171875 0.0026,-0.2002182 0.01795,-0.3385196 -0.109375,-0.49999998 -0.0468,-0.0349985 -0.04593,-0.0340513 -0.0918,-0.0683594 C 17.451979,0.84332265 17.430173,0.82406 17.408203,0.8046875 17.260632,0.68052102 17.121629,0.5494605 16.986328,0.41210938 16.901606,0.3253719 16.817812,0.23809122 16.726562,0.15820312 16.703693,0.13875152 16.680393,0.1204388 16.658203,0.1015625 16.618392,0.06763191 16.578943,0.03385508 16.539062,0 Z m -1.078124,4.421875 c -0.02383,0 -0.04275,0.012826 -0.07422,0.041016 -0.03379,0.010329 -0.07888,0.055033 -0.205078,0.203125 -0.07086,0.071912 -0.142715,0.1441069 -0.21875,0.2109375 -0.190902,0.1640152 -0.368496,0.3361887 -0.544922,0.515625 C 14.288391,5.524367 14.159654,5.6583887 14.021484,5.78125 13.826257,5.9488392 13.645288,6.1272209 13.464844,6.3105469 13.305793,6.4721495 13.148453,6.6331951 12.976562,6.78125 12.826015,6.9104825 12.687695,7.0498269 12.548828,7.1914062 12.432185,7.3103304 12.316225,7.4305983 12.191406,7.5410156 l -0.07031,0.058594 c -0.04874,0.044224 -0.09842,0.08808 -0.148438,0.1308594 -0.07637,0.049829 -0.140914,0.1027093 -0.205078,0.1601562 L 11.720703,7.875 c -0.07865,0.042697 -0.07741,0.042254 -0.142578,0.1074219 v 0.1445312 l 0.02539,-0.021484 c -0.04222,0.1077417 -0.03989,0.2607146 -0.0332,0.7539062 0.0013,0.087003 0.002,0.1727546 0.002,0.2597656 -9e-4,0.229054 -0.002,0.4584532 0,0.6875 0.002,0.2361541 0.0038,0.4728191 0.0039,0.7089841 0,0.26918 -0.0015,0.537465 0,0.806641 l 0.002,0.126953 c 3.94e-4,0.07952 0.0015,0.158761 0.002,0.238281 0.0014,0.14295 -0.0077,0.286531 -0.01953,0.429688 h -0.01953 c -0.05489,0.08904 -0.07133,0.146234 -0.07813,0.251953 8e-4,0.03954 0.0011,0.07881 0.002,0.117187 0.0012,0.06892 0.0019,0.136178 0.0039,0.205078 h 0.01172 c -0.06491,0.317304 -0.163489,0.627263 -0.289063,0.925782 -0.02706,-0.009 -0.05543,-0.01652 -0.08203,-0.02539 -0.08629,0.151015 -0.11922,0.254591 -0.107422,0.427734 -0.05042,0.09458 -0.103605,0.186692 -0.160156,0.277344 -0.02902,0.03261 -0.04571,0.0535 -0.0918,0.121094 7.19e-4,0.0067 0.0013,0.01192 0.002,0.01758 -0.0094,0.0135 -0.01858,0.02797 -0.03711,0.05469 -0.176411,0.254298 -0.350024,0.51717 -0.578125,0.728516 l -0.06836,0.0625 c -0.6279215,0.60435 -1.3320448,1.06159 -2.1757809,1.304688 -0.030467,0.0087 -0.060273,0.01699 -0.089844,0.02539 -0.5210591,0.151048 -1.0126634,0.201619 -1.5546875,0.199219 -0.1669218,-0.0018 -0.333071,-0.0039 -0.5,-0.0039 -0.359335,3e-4 -0.7187973,2.46e-4 -1.078125,-0.002 -0.2838754,-0.0018 -0.5676803,-0.0043 -0.8515625,-0.0039 -0.1218068,2.16e-4 -0.2434327,0.0013 -0.3652344,0 -0.1154924,-0.0014 -0.2321523,-0.002 -0.3476562,-0.002 H 2.9785156 c -0.1121551,-0.0024 -0.2221069,-0.0023 -0.3339844,0.0059 -0.022157,0.0055 -0.039581,0.01393 -0.058594,0.02148 h -0.033203 v 0.01367 c -0.00893,0.0044 -0.017028,0.0087 -0.025391,0.01367 -0.027555,-0.0092 -0.054951,-0.01832 -0.082031,-0.02734 -0.012225,0.03667 -0.025244,0.07378 -0.037109,0.109375 h -0.070312 v 0.07227 h -0.109375 l 0.029297,0.109376 c -0.033484,0.03367 -0.067842,0.06248 -0.1386719,0.123046 -0.082512,0.07168 -0.161996,0.144583 -0.234375,0.226563 -0.019543,0.02303 -0.037673,0.04405 -0.056641,0.06641 -0.034109,0.04011 -0.067562,0.08089 -0.1015625,0.121094 1.121238,0.0016 2.2420422,0.0032 3.3632813,0.0039 0.00391,3e-6 0.00781,-2e-6 0.011719,0 0.1314051,2e-5 0.2631262,0 0.3945313,0 h 0.013672 c 0.022948,-4e-6 0.045885,-1.5e-5 0.068359,0 0.00489,3e-6 0.00691,-5e-6 0.013672,0 0.4324474,3.02e-4 0.8644281,0.0013 1.296875,0.002 0.00651,10e-6 0.013022,-9e-6 0.019531,0 0.4435479,6.43e-4 0.8865298,0 1.3300781,0 h 0.023438 c 0.2695382,7.8e-5 0.5390558,0.0014 0.8085937,0.002 0.00911,1.8e-5 0.018239,-1.8e-5 0.027344,0 0.1827275,2.19e-4 0.3661,1.5e-5 0.5488282,0 0.00914,1e-6 0.018207,1e-6 0.027344,0 0.080192,-3.2e-5 0.1600429,-1.8e-5 0.2402344,0 0.0097,2e-6 0.019592,-2e-6 0.029297,0 0.1248792,3.23e-4 0.2481652,0.002 0.3730462,0.002 0.0257,-1.43e-4 0.04079,-0.002 0.08203,-0.002 0.01025,-7e-6 0.02102,0 0.03125,0 0.036,2.16e-4 0.07053,0.0016 0.105468,0.002 0.03274,-7.1e-5 0.06392,-0.002 0.0957,-0.002 0.07044,6.7e-5 0.110797,-0.0031 0.150391,-0.01758 0.06083,-0.0063 0.122187,-0.01456 0.183594,-0.02539 0.172125,0.0016 0.332642,-0.0086 0.503906,-0.03711 v -0.07227 c 0.406282,-0.09897 0.797825,-0.226571 1.175781,-0.421875 0.08119,-0.04399 0.16156,-0.08894 0.240235,-0.136719 0.02442,0.0073 0.0433,0.01011 0.0957,0.01953 0.140902,-0.06661 0.234195,-0.127475 0.345703,-0.236328 0.02903,-0.0298 0.05776,-0.05897 0.08594,-0.08789 0.0029,-0.0018 0.0049,-0.0041 0.0078,-0.0059 0.0125,-0.0063 0.02506,-0.01276 0.03711,-0.01953 0.0028,-0.0018 0.005,-0.0041 0.0078,-0.0059 0.02456,-0.01419 0.04761,-0.03012 0.07031,-0.04687 h 0.002 c 0.0028,-0.002 0.0051,-0.0057 0.0078,-0.0078 0.003,-0.0023 0.0068,-0.0035 0.0098,-0.0059 0.0032,-0.0024 0.0067,-0.0053 0.0098,-0.0078 0.0027,-0.0023 0.0051,-0.0055 0.0078,-0.0078 0.0019,-0.0016 0.0039,-0.0023 0.0059,-0.0039 0.0034,-0.0029 0.0064,-0.0068 0.0098,-0.0098 10e-4,-8.94e-4 0.0029,-0.0011 0.0039,-0.002 0.0043,-0.004 0.0094,-0.0095 0.01367,-0.01367 0.008,-0.0077 0.01567,-0.01507 0.02344,-0.02344 0.0028,-0.0031 0.005,-0.0066 0.0078,-0.0098 0.0012,-0.0014 0.0027,-0.0025 0.0039,-0.0039 0.0092,-0.01056 0.01854,-0.02169 0.02734,-0.0332 0.0027,-0.0036 0.0051,-0.008 0.0078,-0.01172 0.0024,-0.0033 0.0054,-0.0064 0.0078,-0.0098 0.0013,-0.0019 0.0026,-0.0039 0.0039,-0.0059 0.0037,-0.0054 0.0081,-0.01003 0.01172,-0.01563 -0.01235,-0.0062 -0.02503,-0.01154 -0.03711,-0.01758 0.0059,-0.0052 0.01173,-0.01045 0.01758,-0.01563 0.005,-0.004 0.0089,-0.0077 0.01367,-0.01172 l 0.002,-0.002 0.002,-0.002 c 0.0045,-0.004 0.0092,-0.0077 0.01367,-0.01172 0.01028,-0.0093 0.02007,-0.01962 0.0293,-0.0293 0.02278,-0.02078 0.04595,-0.04134 0.06836,-0.0625 -0.0021,0.01844 -0.002,0.04378 -0.002,0.08008 l 0.539062,-0.539063 c -0.01025,-0.03076 -0.01934,-0.06192 -0.0293,-0.0918 0.158643,-0.198644 0.303453,-0.408676 0.431641,-0.628906 h 0.06641 l 0.04883,-0.0625 c 0.0159,-0.02751 0.03144,-0.05338 0.04687,-0.08008 0.02809,-0.04772 0.05675,-0.09631 0.08399,-0.144531 -0.01678,-0.02516 -0.0325,-0.04972 -0.04883,-0.07422 0.03621,-0.06196 0.04223,-0.07904 0.08399,-0.177734 -0.0013,-0.0039 -0.0027,-0.0062 -0.0039,-0.0098 0.06875,-0.160091 0.129512,-0.324063 0.18164,-0.492187 0.01117,-0.03745 0.02236,-0.07498 0.0332,-0.111329 0.178942,-0.59991 0.235522,-1.181442 0.232422,-1.804687 -4.07e-4,-0.08009 2.9e-5,-0.160144 0,-0.240234 1.61e-4,-0.219385 7.37e-4,-0.438814 0,-0.658204 -8.32e-4,-0.232606 -0.0018,-0.464655 -0.002,-0.697265 -2e-4,-0.414668 -9.53e-4,-0.8294734 -0.002,-1.2441406 -10e-4,-0.4034207 -0.0015,-0.8075133 -0.002,-1.2109375 0,-0.025748 2.8e-5,-0.049227 0,-0.074219 -1.3e-4,-0.1255435 1.44e-4,-0.251406 0,-0.3769531 -0.0011,-1.0608083 -0.0034,-2.1227891 -0.0059,-3.1835938 z m 6.335937,9.912109 c -0.124713,0.0011 -0.249283,0.0051 -0.373047,0.01172 H 21.25 v 0.01367 c -0.163935,0.01393 -0.3276,0.03385 -0.492188,0.06836 -0.04074,0.0092 -0.0796,0.01639 -0.11914,0.02539 -0.0853,0.019 -0.171409,0.03811 -0.25586,0.06055 -0.02424,0.0069 -0.04679,0.01478 -0.07031,0.02148 -0.08571,0.02445 -0.169888,0.05297 -0.253906,0.08203 l -0.06836,0.01758 0.0039,0.0039 c -0.221548,0.0801 -0.436626,0.177211 -0.644532,0.287109 -0.02202,0.0047 -0.04361,0.01465 -0.0918,0.03906 -0.0088,0.0051 -0.01673,0.01056 -0.02539,0.01563 -0.08357,-0.02606 -0.102542,-0.01803 -0.248047,0.04883 v 0.107422 0.002 c -0.184817,0.11741 -0.363243,0.24613 -0.533203,0.384766 -0.02634,-0.0088 -0.0522,-0.01871 -0.07813,-0.02734 v 0.07226 c -0.02445,-0.01223 -0.04854,-0.02329 -0.07227,-0.03516 -0.02445,0.01223 -0.04854,0.02329 -0.07227,0.03516 0.01009,0.04036 0.02144,0.07993 0.03125,0.119141 -0.02003,0.01786 -0.04076,0.03459 -0.06055,0.05273 -0.03838,-0.0096 -0.07562,-0.01792 -0.113281,-0.02734 -0.02472,0.04944 -0.0495,0.099 -0.07422,0.148437 -0.01146,0.02293 -0.02404,0.04417 -0.03516,0.06641 h -0.107421 c 0.01009,0.04036 0.02144,0.07993 0.03125,0.119141 -0.03524,0.03999 -0.06968,0.08049 -0.103516,0.121094 -0.01185,0.01294 -0.0233,0.02612 -0.03516,0.03906 -0.03632,-0.0091 -0.07172,-0.01841 -0.107422,-0.02734 -0.03596,0.07191 -0.03642,0.07204 -0.05664,0.148437 -0.0053,0.02293 -0.01043,0.04612 -0.01563,0.06836 h -0.07227 c -0.04028,0.08055 -0.04121,0.08139 -0.07227,0.25 -0.05476,0.08069 -0.106282,0.15743 -0.148438,0.240235 -0.03316,0.05598 -0.06475,0.113029 -0.0957,0.169922 -0.0025,-0.0049 -0.0052,-0.0084 -0.0078,-0.01367 L 17.125,17.181641 c -0.09146,0.179422 -0.171976,0.362912 -0.242188,0.550781 0.0053,-0.02584 0.01053,-0.05225 0.01563,-0.07813 h -0.07227 c -0.07184,0.148155 -0.07671,0.268117 -0.07031,0.431641 0.007,-0.01049 0.01186,-0.02067 0.01758,-0.0293 -0.168568,0.556956 -0.249111,1.147595 -0.246094,1.765625 4.06e-4,0.08085 -3e-5,0.161337 0,0.242187 -1.62e-4,0.221367 -7.37e-4,0.442696 0,0.664063 8.33e-4,0.234756 0.0018,0.468365 0.002,0.703125 2e-4,0.418446 9.53e-4,0.837416 0.002,1.255859 10e-4,0.407167 0.0015,0.815489 0.002,1.222656 0,0.02598 -2.8e-5,0.05096 0,0.07617 1.3e-4,0.126672 -1.43e-4,0.252234 0,0.378906 0.0011,1.070581 0.0034,2.142313 0.0059,3.212891 0.02773,0 0.04331,-0.01064 0.07422,-0.03906 0.0088,-0.0081 0.0118,-0.01032 0.02539,-0.02344 0.01483,-0.01524 0.03007,-0.02979 0.04492,-0.04492 0.187523,-0.04116 0.280895,-0.124658 0.408203,-0.259765 0.0202,-0.02192 0.03898,-0.04318 0.05859,-0.06445 l 0.107421,-0.107422 h 0.03711 c 0.01863,-0.04212 0.02652,-0.0615 0.04102,-0.08008 l 0.123046,-0.123046 c 0.02373,-0.0234 0.04532,-0.04565 0.06836,-0.06836 0.01829,-0.01786 0.03694,-0.0354 0.05469,-0.05273 -0.0091,-0.02726 -0.01655,-0.05357 -0.02539,-0.08008 0.06324,-0.06515 0.127255,-0.131172 0.191406,-0.195313 0.01658,0.0083 0.03248,0.01526 0.04883,0.02344 0.06112,-0.0489 0.120358,-0.09707 0.179687,-0.144532 -0.008,-0.02405 -0.01563,-0.04689 -0.02344,-0.07031 0.01401,-0.0128 0.02683,-0.02643 0.04102,-0.03906 0.02091,-0.0026 0.04072,-0.0046 0.05859,-0.0078 0.01075,0.0036 0.02248,0.0062 0.0332,0.0098 0.02253,-0.01481 0.03778,-0.0263 0.05078,-0.03516 0.0038,-0.0018 0.0079,-0.0038 0.01172,-0.0059 l 0.002,-0.002 h 0.002 c 0.02238,-0.01233 0.04429,-0.02856 0.06836,-0.05078 0.101554,-0.130038 0.203935,-0.24869 0.330078,-0.355469 l 0.109375,-0.08984 c -0.0093,-0.02806 -0.01825,-0.05476 -0.02734,-0.08203 0.102525,-0.104329 0.205274,-0.207273 0.314454,-0.304688 0.0366,0.0092 0.0734,0.01835 0.109375,0.02734 0.05448,-0.09079 0.05403,-0.0907 0.107421,-0.179688 -0.01116,-0.0056 -0.02227,-0.01016 -0.0332,-0.01562 0.07152,-0.06623 0.143476,-0.132658 0.212891,-0.201172 0.02674,-0.0022 0.05217,-0.0037 0.07813,-0.0059 0.134903,-0.03897 0.19491,-0.09979 0.28125,-0.208984 -0.0057,-0.07005 -0.0058,-0.08113 -0.02344,-0.119141 0.0081,-0.0081 0.01527,-0.0173 0.02344,-0.02539 0.08557,-0.01223 0.168893,-0.02329 0.251953,-0.03516 0.01222,-0.03668 0.02329,-0.07182 0.03516,-0.107422 0.05842,-0.05168 0.05993,-0.05124 0.109375,-0.107421 -0.0074,-0.05213 -0.01149,-0.0708 -0.01953,-0.0957 0.01812,-0.01624 0.03684,-0.03284 0.05469,-0.04883 0.04372,-0.03408 0.08681,-0.06941 0.128906,-0.105468 0.135357,-0.13688 0.15295,-0.241083 0.15625,-0.429688 -6e-4,-0.03746 -0.0013,-0.07498 -0.002,-0.111328 10e-4,-0.123516 8.67e-4,-0.247575 0,-0.371094 -6.62e-4,-0.0883 -2.51e-4,-0.175372 0,-0.263672 0.0012,-0.232027 8.09e-4,-0.465234 0,-0.697265 -0.001,-0.286671 -6.58e-4,-0.572704 0,-0.859375 5.61e-4,-0.225534 0.0024,-0.450248 0.002,-0.675781 -1.44e-4,-0.06497 1.8e-4,-0.06522 0,-0.128907 -1.08e-4,-0.0806 1.08e-4,-0.161587 0,-0.242187 -0.0012,-0.226807 0.01428,-0.455221 0.04687,-0.681641 h 0.06445 c 0.03595,-0.107864 0.0355,-0.107923 0.04687,-0.220703 0.003,-0.04341 0.0049,-0.08482 0.0078,-0.126953 0.0054,-0.07565 0.01053,-0.152846 0.01562,-0.228516 0.03591,-0.161606 0.07994,-0.311488 0.142579,-0.464843 0.02795,-0.06752 0.05313,-0.134895 0.07813,-0.203126 0.06572,-0.152436 0.136305,-0.303037 0.216796,-0.447265 0.100088,-0.0371 0.133724,-0.06145 0.185547,-0.160156 0.02214,-0.08052 0.02365,-0.09001 -0.002,-0.142579 0.02097,-0.03093 0.04199,-0.06154 0.0625,-0.0918 0.06311,-0.09882 0.128501,-0.190926 0.195313,-0.28125 0.03101,0.01034 0.06145,0.01918 0.0918,0.0293 0.01223,-0.06112 0.02524,-0.120357 0.03711,-0.179687 h 0.107422 c 0.0409,-0.05551 0.05491,-0.0747 0.07227,-0.107422 0.09551,-0.07539 0.179756,-0.144168 0.259766,-0.236328 0.02536,-0.03266 0.04961,-0.064 0.07422,-0.0957 0.04439,-0.05678 0.08887,-0.114745 0.132812,-0.171875 -0.01116,-0.0056 -0.02227,-0.01016 -0.0332,-0.01563 0.09328,-0.08027 0.187564,-0.159808 0.285156,-0.234375 0.151005,-0.01716 0.246666,-0.04017 0.359376,-0.144531 0.01222,-0.02445 0.02524,-0.04854 0.03711,-0.07227 0.06043,-0.02266 0.120287,-0.04703 0.179687,-0.07227 0.01222,-0.03667 0.02329,-0.07182 0.03516,-0.107422 -0.0052,0 -0.0091,-1.9e-5 -0.01367,0 0.0918,-0.05231 0.186085,-0.100596 0.28125,-0.146484 -0.01817,0.01314 -0.03702,0.0266 -0.05273,0.03906 0.109641,0.0094 0.167772,0.0082 0.263672,-0.04883 0.08731,-0.05279 0.141302,-0.07394 0.238282,-0.0957 0.04895,-0.01087 0.09809,-0.02201 0.146484,-0.03516 0.135722,-0.07219 0.236336,-0.115446 0.388672,-0.128906 0.08385,-0.0046 0.08368,-0.0045 0.15039,-0.01563 0.01222,-0.02445 0.02329,-0.04854 0.03516,-0.07227 -0.01236,-0.0048 -0.02403,-0.0081 -0.03711,-0.01172 0.40049,-0.08562 0.787563,-0.109287 1.208985,-0.101563 0.165628,0.0037 0.332385,0.0084 0.498046,0.0098 0.0496,4.09e-4 0.09884,-3.96e-4 0.148438,0 0.02557,2.16e-4 0.0494,0.0016 0.07422,0.002 0.334458,0.0027 0.669519,0.0061 1.003906,0.01367 0.229026,0.0053 0.45841,0.0089 0.6875,0.0098 0.0974,10e-5 0.195569,-0.0012 0.292969,0 0.223239,0.0074 0.444693,0.01261 0.667968,0.0039 0.22758,-0.02266 0.394313,-0.103339 0.542969,-0.222657 0.0061,0.003 0.01151,0.0067 0.01758,0.0098 0.07304,-0.0336 0.146157,-0.06903 0.216797,-0.107422 V 14.7891 c 0.0034,-0.0038 0.0064,-0.0079 0.0098,-0.01172 h 0.0625 c 0.08295,-0.09027 0.130524,-0.134934 0.140625,-0.242188 0.02108,-0.02415 0.04209,-0.04851 0.06445,-0.07226 l 0.117188,-0.117188 c -1.112544,-0.0024 -2.225347,-0.0028 -3.337891,-0.0039 -0.13445,-7.2e-5 -0.267894,-0.002 -0.402344,-0.002 -0.02761,0 -0.05523,2.9e-5 -0.08203,0 -0.433542,-4e-4 -0.867239,-9.53e-4 -1.300781,-0.002 -0.446731,-0.0011 -0.893112,-0.0016 -1.339844,-0.002 -0.27524,-1.01e-4 -0.548981,-0.0011 -0.824219,-0.002 -0.190376,-5.39e-4 -0.381888,-2.5e-5 -0.572266,0 -0.089,1.5e-5 -0.178578,3.3e-5 -0.267578,0 -0.117683,-5.7e-4 -0.233428,-10e-4 -0.349609,0 z M 9.7128906,18.763672 c -0.08287,3.59e-4 -0.1651769,0.0019 -0.2480468,0.002 -0.226941,0 -0.4546999,-3.6e-4 -0.6816407,0 -0.240646,4.31e-4 -0.48201,0 -0.7226562,0 -0.4289687,7.2e-5 -0.8581407,-3.59e-4 -1.2871094,0 -0.4173704,3.24e-4 -0.8345823,0.002 -1.2519531,0.002 -0.026636,1.1e-5 -0.052273,-1.1e-5 -0.078125,0 H 5.0546875 c -1.0974492,3e-4 -2.1955195,0.0011 -3.2929687,0.002 0,0.03595 -1.585e-4,0.03425 0.054687,0.09375 0.026049,0.02609 0.050889,0.0528 0.076172,0.07813 0.028747,0.02879 0.058036,0.05603 0.085937,0.08398 l 0.089844,0.08984 c 0.1353316,0.135992 0.2683,0.273287 0.4121094,0.400391 0.1962517,0.167912 0.3791841,0.347536 0.5605468,0.53125 0.1931933,0.195951 0.3826371,0.395089 0.5917969,0.574219 0.1483799,0.126925 0.2844606,0.263731 0.421875,0.402344 0.065262,0.0662 0.1300508,0.133022 0.1953125,0.199218 l 0.097656,0.09766 c 0.080047,0.08123 0.1587619,0.160959 0.2460938,0.234376 0.1019945,0.0854 0.1996747,0.169192 0.2851562,0.271484 0.081244,0.105408 0.1649331,0.207309 0.2558594,0.304687 0.3038188,0.28394 0.3040263,0.283739 1.1113282,0.261719 0.1181112,-0.0034 0.2353633,-0.0059 0.3535156,-0.0059 0.2245661,0 0.4493058,-0.0015 0.6738281,-0.0059 0.3300719,-0.0064 0.6601086,-0.0096 0.9902344,-0.01172 0.049553,-2.88e-4 0.098885,3.6e-4 0.1484375,0 0.037158,-1.08e-4 0.037798,-0.0016 0.074219,-0.002 0.1423491,-9e-4 0.2834472,-0.0015 0.4257813,-0.0039 1.2650651,-0.02302 2.5080001,0.204795 3.5097661,1.039063 l 0.08984,0.07617 c 0.208705,0.16477 0.412084,0.323574 0.582031,0.529296 0.02206,0.02779 0.045,0.05506 0.06641,0.08203 0.324164,0.396913 0.595655,0.806835 0.783203,1.287109 0.02299,0.06088 0.04593,0.121301 0.07031,0.181641 0.263417,0.651692 0.309993,1.305901 0.308593,2.003906 -7.5e-4,0.130653 -0.002,0.261922 -0.002,0.392578 9.01e-4,0.401188 0.0014,0.801937 0,1.203125 -7.66e-4,0.212641 -6.14e-4,0.426027 0,0.638672 3.45e-4,0.08978 -1.44e-4,0.179751 0,0.269531 -10e-4,0.128283 -4.6e-4,0.256479 0,0.384766 2.15e-4,0.03997 -2.15e-4,0.07839 0,0.117187 -5.99e-4,0.03747 -0.0013,0.07497 -0.002,0.111329 0.0023,0.172633 0.0082,0.279976 0.132813,0.40625 0.03763,0.02976 0.0748,0.059 0.111328,0.08789 0.03603,0.03206 0.03499,0.03108 0.07031,0.0625 0.139564,0.117335 0.270271,0.241373 0.398438,0.371094 0.07846,0.08055 0.157497,0.158402 0.242188,0.232422 l 0.06641,0.05859 c 0.03998,0.03409 0.08105,0.06754 0.121094,0.101562 7.99e-4,-1.05087 0.0016,-2.101471 0.002,-3.152344 3.6e-5,-0.126781 -3.6e-5,-0.254079 0,-0.380859 v -0.07617 c 1.51e-4,-0.409594 -3.24e-4,-0.818922 0,-1.228516 3.34e-4,-0.421787 0.0019,-0.843839 0.002,-1.265625 3.6e-5,-0.213022 -2.15e-4,-0.425647 0,-0.638672 2.38e-4,-0.226699 1.2e-5,-0.452988 0,-0.679687 -1.9e-5,-0.08364 -10e-6,-0.168313 0,-0.251953 1.79e-4,-0.116371 7.2e-5,-0.233238 0,-0.34961 -7.2e-5,-0.0534 3.6e-5,-0.05312 0,-0.105468 8e-4,-0.247017 -0.01068,-0.483102 -0.05664,-0.726563 -0.0053,-0.02223 -0.01042,-0.04287 -0.01563,-0.06445 -0.006,-0.02535 -0.01178,-0.05156 -0.01758,-0.07617 -0.0063,-0.02599 -0.01138,-0.05095 -0.01758,-0.07617 -0.01317,-0.05422 -0.02582,-0.107899 -0.03906,-0.162109 -0.01235,-0.04989 -0.02493,-0.100461 -0.03711,-0.150391 -0.180615,-0.811684 -0.65106,-1.660457 -1.257812,-2.234375 -0.0412,-0.03794 -0.08254,-0.07461 -0.123047,-0.113281 -0.664906,-0.636581 -1.413691,-1.078521 -2.296875,-1.341797 -0.03383,-0.0097 -0.06677,-0.0199 -0.09961,-0.0293 -0.1981,-0.05936 -0.390805,-0.09471 -0.597656,-0.107422 -0.02653,-0.0014 -0.05237,-0.0025 -0.07813,-0.0039 -0.371669,-0.01998 -0.743124,-0.02206 -1.1152339,-0.02148 z" />
</svg>
