<svg width="32" height="32" xmlns="http://www.w3.org/2000/svg">
  <path style="fill:#000;stroke-width:.0359549" d="M16.54 0c-.003 1.04-.006 2.08-.007 3.121v.453a771.146 771.146 0 0 1-.004 2.399v.705l-.002.672v.25c-.003.63.034 1.22.205 1.832.016.05.015.051.03.101.097.33.213.635.384.934l.04.068c.537.924 1.293 1.714 2.267 2.18l.105.049c.214.098.432.183.657.252l.078.021c.047.014.093.03.14.043l.168.043c.424.122.835.123 1.272.121h.262l.64-.002h.834c.451 0 .902 0 1.354-.002l1.318-.002h.082l.41-.002c1.155-.001 2.31-.001 3.465-.004 0-.036 0-.037-.062-.103l-.084-.086-.096-.094-.1-.1c-.147-.148-.292-.298-.449-.437a9.575 9.575 0 0 1-.59-.56c-.208-.211-.412-.427-.636-.62-.143-.122-.275-.255-.407-.388-.192-.196-.38-.395-.59-.573-.072-.056-.072-.057-.15-.133a3.243 3.243 0 0 0-.24-.302c-.255-.235-.257-.234-1.072-.219-.119.002-.237.002-.356.002-.225 0-.449 0-.674.004-.282.004-.564.005-.845.006h-.3l-.073.002c-.143 0-.285 0-.428.002h-.139c-.086 0-.171.003-.258.004a4.521 4.521 0 0 1-1.027-.082l-.078-.018c-.582-.132-1.14-.328-1.639-.66l-.097-.068c-.728-.497-1.401-1.224-1.735-2.05a3.693 3.693 0 0 0-.092-.245c-.118-.27-.225-.537-.271-.83l-.014-.09a8.086 8.086 0 0 1-.058-1.127V4.07c-.001-.38-.003-.761-.002-1.142V1.432c.002-.2.018-.339-.11-.5l-.091-.069a6.15 6.15 0 0 1-.488-.451c-.085-.087-.17-.174-.26-.254-.023-.02-.047-.038-.069-.056L16.54 0Zm-1.08 4.422c-.023 0-.042.013-.073.04-.034.011-.08.056-.205.204-.071.072-.143.144-.22.211-.19.164-.368.336-.544.516-.13.131-.258.265-.397.388a9.113 9.113 0 0 0-.556.53c-.16.161-.317.322-.488.47a6.89 6.89 0 0 0-.428.41c-.117.12-.233.24-.358.35l-.07.059a6.768 6.768 0 0 1-.148.13c-.077.05-.141.103-.205.16l-.047-.015c-.079.043-.078.042-.143.107v.145l.026-.022c-.043.108-.04.261-.034.754.002.087.002.173.002.26 0 .23-.002.459 0 .688.002.236.004.472.004.709v.806l.002.127.002.239c.002.142-.007.286-.02.43h-.019a.465.465 0 0 0-.078.251l.002.117.004.205h.012a4.95 4.95 0 0 1-.29.926l-.081-.025a.664.664 0 0 0-.108.428c-.05.094-.103.186-.16.277a.987.987 0 0 0-.092.121l.002.018-.037.054c-.176.255-.35.517-.578.729l-.068.062c-.628.605-1.332 1.062-2.176 1.305l-.09.025a5.317 5.317 0 0 1-1.555.2c-.167-.002-.333-.004-.5-.004-.36 0-.719 0-1.078-.002-.284-.002-.568-.005-.851-.004h-.366a28.778 28.778 0 0 0-.347-.002h-.127a3.51 3.51 0 0 0-.334.006c-.023.005-.04.014-.06.021h-.032v.014a.36.36 0 0 0-.026.013l-.082-.027-.037.11h-.07v.072h-.11l.03.11c-.034.033-.068.062-.139.122a2.454 2.454 0 0 0-.234.227l-.057.066-.101.121 3.363.004h.502l1.297.002h1.373l.808.002H9.646a124.616 124.616 0 0 0 .268 0h.03l.372.002.082-.002h.032l.105.002.096-.002c.07 0 .11-.003.15-.017.061-.007.122-.015.184-.026.172.002.332-.008.504-.037v-.072a5.208 5.208 0 0 0 1.176-.422c.08-.044.161-.089.24-.137.024.008.043.01.095.02.141-.067.235-.128.346-.237l.086-.087c.003-.002.005-.005.008-.006a.937.937 0 0 0 .037-.02l.008-.006a.753.753 0 0 0 .07-.047h.002l.008-.007c.003-.003.007-.004.01-.006l.01-.008.007-.008.006-.004.01-.01c.001 0 .003 0 .004-.002l.014-.013.023-.024.008-.01.004-.003a.676.676 0 0 0 .027-.034l.008-.011.008-.01a.302.302 0 0 0 .004-.006l.011-.016-.037-.017.018-.016.013-.012.002-.002.002-.002.014-.011.03-.03.068-.062c-.002.018-.002.044-.002.08l.539-.54-.03-.091c.16-.199.304-.409.432-.629h.067l.048-.062.047-.08.084-.145-.049-.074c.037-.062.043-.08.084-.178 0-.004-.002-.006-.003-.01.068-.16.129-.324.181-.492l.033-.111c.18-.6.236-1.182.233-1.805v-.898l-.002-.698-.002-1.244-.002-1.21v-.452l-.006-3.183zm6.337 9.912c-.125.001-.25.005-.373.012h-.174v.013a4.06 4.06 0 0 0-.492.069l-.12.025c-.085.02-.17.038-.255.06l-.07.022c-.086.025-.17.053-.254.082l-.069.018.004.004a5.07 5.07 0 0 0-.644.287.398.398 0 0 0-.092.039l-.026.015c-.083-.026-.102-.018-.248.05v.109a5.568 5.568 0 0 0-.533.384l-.078-.027v.072l-.072-.035-.073.035.032.12c-.02.017-.041.034-.06.052l-.114-.027-.074.148-.035.067h-.108c.01.04.022.08.031.119-.035.04-.07.08-.103.121l-.035.04c-.037-.01-.072-.02-.108-.028-.036.072-.036.072-.056.148l-.016.069h-.072c-.04.08-.041.08-.073.25-.054.08-.106.157-.148.24a5.341 5.341 0 0 0-.096.17l-.007-.014-.061.139c-.091.18-.172.363-.242.55l.015-.078h-.072c-.072.148-.077.268-.07.432.007-.01.012-.02.017-.03a5.97 5.97 0 0 0-.246 1.766v.907l.002.703.002 1.255.002 1.223v.456l.006 3.212c.028 0 .044-.01.074-.039l.026-.023.045-.045c.187-.041.28-.125.408-.26l.059-.065.107-.107h.037c.019-.042.027-.061.041-.08l.123-.123c.024-.023.045-.046.069-.068l.054-.053-.025-.08.191-.196.05.024.179-.145-.024-.07.041-.039.059-.008.033.01.05-.035a.222.222 0 0 0 .013-.006l.002-.002h.002a.349.349 0 0 0 .068-.05c.102-.13.204-.25.33-.356l.11-.09-.028-.082c.103-.105.205-.207.315-.305.036.01.073.018.109.027l.107-.18-.033-.015c.072-.066.144-.133.213-.201l.078-.006c.135-.039.195-.1.281-.209-.005-.07-.005-.081-.023-.119l.023-.025.252-.036.036-.107c.058-.052.06-.051.109-.107a.503.503 0 0 0-.02-.096l.055-.049c.044-.034.087-.07.129-.105.135-.137.153-.242.156-.43l-.002-.111V21.324c0-.225.003-.45.002-.676v-.371a4.619 4.619 0 0 1 .047-.681h.065c.035-.108.035-.108.046-.221l.008-.127.016-.229c.036-.161.08-.311.142-.464.028-.068.054-.135.079-.204.065-.152.136-.303.216-.447.1-.037.134-.061.186-.16.022-.08.024-.09-.002-.143l.062-.091c.063-.1.129-.191.196-.282l.091.03.038-.18h.107a.793.793 0 0 0 .072-.107c.096-.076.18-.145.26-.237l.074-.095.133-.172-.033-.016c.093-.08.187-.16.285-.234.151-.017.247-.04.36-.145l.037-.072.18-.072.034-.108h-.013c.092-.052.186-.1.281-.146l-.053.039c.11.01.168.008.264-.049a.684.684 0 0 1 .238-.096c.05-.01.098-.022.147-.035a.928.928 0 0 1 .388-.129c.084-.004.084-.004.15-.015l.036-.073a.376.376 0 0 0-.037-.011c.4-.086.787-.11 1.209-.102.165.004.332.008.498.01h.148l.074.002c.335.003.67.006 1.004.013.23.006.459.01.688.01h.293c.223.008.445.013.668.004a.982.982 0 0 0 .543-.222l.017.01c.073-.034.147-.07.217-.108v-.133l.01-.012h.062c.083-.09.131-.135.141-.242l.065-.072.117-.117c-1.113-.003-2.226-.003-3.338-.004l-.403-.002h-.082a871.735 871.735 0 0 1-2.64-.004l-.824-.002h-1.19zm-12.084 4.43-.248.002H6.773l-1.252.002h-.466c-1.098 0-2.196 0-3.293.002 0 .036 0 .034.054.093l.077.079.086.084.09.09c.135.135.268.273.411.4.197.168.38.347.561.531.193.196.383.395.592.574.148.127.284.264.422.403l.195.199.098.097c.08.082.158.161.246.235.102.085.2.169.285.271.081.106.165.208.256.305.304.284.304.284 1.111.262.118-.004.235-.006.354-.006.224 0 .449-.002.673-.006.33-.006.66-.01.99-.012h.15l.073-.002c.143 0 .284-.001.426-.004 1.265-.023 2.508.205 3.51 1.04l.09.076c.208.164.412.323.582.529l.066.082c.324.397.596.807.783 1.287l.07.182c.264.651.31 1.306.31 2.004-.001.13-.003.261-.003.392.001.401.002.802 0 1.203V30.568l-.002.112c.003.172.008.28.133.406l.111.088.07.062c.14.118.271.242.4.371.078.081.157.159.241.233l.067.058.12.102c.002-1.05.002-2.101.003-3.152V27.162l.002-1.266v-2.025c0-.247-.01-.483-.057-.726l-.015-.065-.018-.076c-.006-.026-.011-.051-.018-.076l-.039-.162-.037-.15a4.582 4.582 0 0 0-1.258-2.235l-.123-.113a5.535 5.535 0 0 0-2.296-1.342l-.1-.03a2.599 2.599 0 0 0-.598-.107l-.078-.004c-.372-.02-.743-.022-1.115-.021z"/>
</svg>