<?xml version="1.0" encoding="UTF-8" standalone="no"?>
<svg id="a" viewBox="0 0 32.000001 32" version="1.1" sodipodi:docname="justica-eleitoral.svg" width="32" height="32" inkscape:version="1.4-beta2 (9aaf4f34, 2024-07-30)" xmlns:inkscape="http://www.inkscape.org/namespaces/inkscape" xmlns:sodipodi="http://sodipodi.sourceforge.net/DTD/sodipodi-0.dtd" xmlns="http://www.w3.org/2000/svg" xmlns:svg="http://www.w3.org/2000/svg">
  <sodipodi:namedview id="namedview1" pagecolor="#ffffff" bordercolor="#000000" borderopacity="0.25" inkscape:showpageshadow="2" inkscape:pageopacity="0.0" inkscape:pagecheckerboard="0" inkscape:deskcolor="#d1d1d1" inkscape:zoom="0.78668035" inkscape:cx="102.96431" inkscape:cy="78.176606" inkscape:window-width="1440" inkscape:window-height="790" inkscape:window-x="0" inkscape:window-y="0" inkscape:window-maximized="1" inkscape:current-layer="a" />
  <defs id="defs1">
    <style id="style1">.g{stroke-width:0px;}</style>
  </defs>
  <g id="g1" transform="matrix(0.53333333,0,0,0.53333333,0.14666677,-5.3333332)">
    <path id="b" class="g" d="M 20.17,70 H 16.66 V 59.8 c 4.35,1.34 9.19,1.5 13.87,0.17 C 44.24,56.29 52.43,41.75 48.75,27.71 47.25,22.03 44.07,17.35 39.89,14 H 59.45 V 47.26 L 20.17,69.99" />
    <polyline id="c" class="g" points="59.45 70 23.51 70 59.45 49.44 59.45 70" />
    <path class="g" d="M 24.07,10 C 10.78,10 0,21.04 0,34.65 0,48.26 10.78,59.3 24.07,59.3 37.36,59.3 48.14,48.26 48.14,34.65 48.14,21.04 37.36,10 24.07,10 Z M 4.46,38.58 v -1 l -1,-0.33 1,-0.33 v -1 l 0.67,0.84 0.84,-0.33 -0.5,0.84 0.5,0.84 -1,-0.33 -0.5,0.84 z m 3.18,10.7 -0.5,-0.33 -0.5,0.5 v -0.67 l -0.67,-0.17 0.67,-0.17 0.17,-0.67 0.33,0.5 0.67,-0.17 -0.5,0.5 0.33,0.67 z M 9.98,46.61 9.14,46.28 8.47,47.12 v -1.17 l -0.84,-0.33 0.84,-0.17 0.17,-1 0.5,0.84 1,-0.33 -0.67,0.84 0.5,0.84 z m 1.5,-2.51 -0.33,-0.17 -0.33,0.17 0.17,-0.33 h -0.33 l 0.33,-0.17 v -0.33 l 0.17,0.33 0.33,-0.17 -0.17,0.33 0.17,0.33 z m 2.51,2.34 v -0.67 l 0.33,0.5 0.67,-0.17 -0.33,0.5 0.33,0.67 -0.67,-0.33 -0.33,0.5 v -0.67 l -0.67,-0.17 0.67,-0.17 z m 1.34,3.68 -0.67,-0.33 -0.33,0.5 v -0.67 l -0.67,-0.17 0.67,-0.17 v -0.84 l 0.5,0.67 0.5,-0.17 -0.33,0.5 0.33,0.67 z M 16.67,39.09 16,38.76 15.5,39.43 15.67,38.59 15,38.42 15.67,38.25 v -0.67 l 0.33,0.5 0.67,-0.17 -0.5,0.5 0.5,0.67 z m 3.01,12.54 -1,-0.33 -0.67,0.84 0.17,-1 -1,-0.33 1,-0.33 v -1 l 0.5,0.84 1,-0.17 -0.67,0.67 0.67,0.84 z m 3.84,-8.69 -0.5,-0.17 -0.33,0.5 V 42.6 l -0.67,-0.17 0.67,-0.17 v -0.67 l 0.33,0.5 0.5,-0.17 -0.33,0.5 0.33,0.5 z M 40.9,39.43 v -1.17 l 0.5,1 1,-0.33 -0.67,0.84 0.67,0.84 -1,-0.33 -0.67,0.67 0.17,-1 -1,-0.33 1,-0.17 z M 27.36,41.1 v -0.67 l 0.33,0.5 0.67,-0.17 -0.33,0.5 0.33,0.67 -0.67,-0.33 -0.33,0.5 v -0.67 l -0.67,-0.17 0.67,-0.17 z m -2.51,-2.01 v -0.67 l 0.33,0.5 0.67,-0.17 -0.33,0.67 0.33,0.5 -0.67,-0.17 -0.33,0.5 v -0.67 l -0.67,-0.33 0.67,-0.17 z m -0.17,4.68 0.17,-0.33 h -0.33 l 0.33,-0.17 v -0.33 l 0.17,0.33 0.33,-0.17 -0.17,0.33 0.17,0.33 -0.33,-0.17 -0.33,0.17 z m 3.01,3.34 -0.84,-0.33 -0.67,0.84 v -1.17 l -0.84,-0.33 1,-0.17 v -1 l 0.5,0.84 1,-0.33 -0.67,0.84 0.5,0.84 z m 1.5,7.02 H 28.86 L 28.69,54.3 V 53.97 L 28.36,53.8 h 0.33 v -0.33 l 0.17,0.33 0.33,-0.17 -0.17,0.33 z m 0.17,-20.23 -0.5,-0.17 -0.33,0.33 v -0.5 l -0.33,-0.17 0.5,-0.17 v -0.5 l 0.17,0.5 0.5,-0.17 -0.33,0.33 0.33,0.5 z m 0.84,-6.85 -0.84,-0.5 -0.67,0.84 v -1 l -1,-0.33 1,-0.33 0.17,-1 0.5,0.84 1,-0.17 -0.67,0.67 0.5,1 z m 2.84,21.06 -0.5,-0.33 -0.5,0.67 v -0.84 l -0.5,-0.17 0.5,-0.17 0.17,-0.67 0.33,0.5 0.67,-0.17 -0.5,0.5 0.33,0.67 z m 2.34,2.34 -0.67,-0.33 -0.33,0.5 v -0.67 l -0.67,-0.17 0.67,-0.17 v -0.84 l 0.33,0.67 0.67,-0.17 -0.33,0.5 0.33,0.67 z m 0.67,-3.01 -0.67,-0.17 -0.33,0.5 V 47.1 l -0.67,-0.33 0.67,-0.17 v -0.67 l 0.5,0.5 0.5,-0.17 -0.33,0.67 0.33,0.5 z m 1.5,-2.34 0.17,-0.67 0.33,0.67 0.67,-0.17 -0.5,0.5 0.33,0.5 -0.5,-0.17 -0.5,0.5 v -0.67 l -0.5,-0.33 0.5,-0.17 z m 2.17,5.18 -0.5,-0.17 -0.5,0.5 0.17,-0.67 -0.67,-0.17 0.67,-0.17 v -0.5 l 0.33,0.5 0.5,-0.17 -0.33,0.33 0.33,0.5 z m 0,-1.84 -0.84,-0.33 -0.5,0.84 v -1 l -0.84,-0.33 0.84,-0.33 v -0.84 l 0.5,0.67 1,-0.17 -0.67,0.67 0.5,0.84 z m 1.17,-2.67 -0.67,-0.17 -0.33,0.5 v -0.67 l -0.67,-0.17 0.67,-0.17 v -0.84 l 0.33,0.67 0.67,-0.17 -0.33,0.5 0.33,0.5 z m 1.5,-1.5 -0.84,-0.33 -0.5,0.67 v -0.84 l -0.84,-0.33 0.84,-0.33 v -0.84 l 0.5,0.67 1,-0.17 -0.67,0.67 0.5,0.84 z m 1.5,-2.01 -0.84,-0.33 -0.67,0.67 0.17,-0.84 -0.84,-0.33 0.84,-0.33 v -0.84 l 0.5,0.67 1,-0.17 -0.67,0.67 0.5,0.84 z m 0.17,-3.34 -0.33,0.5 v -0.67 l -0.5,-0.17 0.5,-0.17 0.17,-0.67 0.17,0.5 0.67,-0.17 -0.33,0.5 0.33,0.5 -0.67,-0.17 z" id="path1" />
  </g>
</svg>
