<svg viewBox="0 0 3.84 3.84" version="1.1" id="svg1" xmlns="http://www.w3.org/2000/svg" xmlns:svg="http://www.w3.org/2000/svg">
  <defs id="defs1" />
  <path fill="currentColor" d="M 1.8642153,1.8541735 1.131033,1.480204 c 0,0 -0.130586,-0.069538 -0.1247238,0.076815 0.00586,0.1463534 0,0.725905 0,0.725905 0,0 -0.020214,0.1550457 0.1237132,0.086316 C 1.27395,2.300511 1.755461,2.0516692 1.8632047,1.9970898 2.0077389,1.9229028 1.8642147,1.8541729 1.8642147,1.8541729 M 1.8630025,2.8695511 1.129618,2.494773 c 0,0 -0.13078824,-0.06974 -0.1249259,0.076815 0.00586,0.1465556 0,0.7259049 0,0.7259049 0,0 -0.020215,0.155248 0.1239152,0.086316 0.1441299,-0.068931 0.6252366,-0.3175706 0.7329802,-0.37215 0.1449384,-0.074188 0.00141,-0.1421084 0.00141,-0.1421084 M 2.8642299,2.3714642 2.1308455,1.9966861 c 0,0 -0.1307882,-0.069538 -0.1247238,0.076815 0.00606,0.1463534 -0.00101,0.7259051 -0.00101,0.7259051 0,0 -0.020215,0.1552478 0.1237131,0.086316 C 2.2727566,2.8167903 2.7542675,2.568354 2.861809,2.5135726 3.0077582,2.4403956 2.8642391,2.3714642 2.8642391,2.3714642 M 3.7142525,1.7816032 3.1007405,1.4700967 c -0.1022858,-0.051951 -0.092381,0.067314 -0.092381,0.067314 v 0.7730049 c 0,0 -0.010916,0.1140101 0.094604,0.060644 L 3.7144547,2.0625856 C 3.9970543,1.9206794 3.7142525,1.7816032 3.7142525,1.7816032 M 2.8646343,1.3310205 2.1310477,0.95604045 c 0,0 -0.1307883,-0.069336 -0.1247239,0.076815 0.00606,0.1461514 0,0.7261072 0,0.7261072 0,0 -0.020215,0.1550458 0.1237131,0.086316 0.1439278,-0.068729 0.6254387,-0.3175703 0.7329803,-0.3721497 0.1449383,-0.074187 0.00162,-0.1421083 0.00162,-0.1421083 M 0.91109856,0.34960335 c 0,0 -0.3020056,-0.1495877 -0.595319,-0.2989734 -0.2933134,-0.1493856 -0.3111022,0.140087 -0.3111022,0.140087 v 0.6323116 c 0,0.074592 0.0754,0.043866 0.0754,0.043866 0,0 0.7479389,-0.3812468 0.831425,-0.4245059 0.083486,-0.043259 -4.043e-4,-0.092785 -4.043e-4,-0.092785 M 1.1275965,1.3449685 c 0.1445341,-0.068729 0.6254386,-0.3173686 0.7329801,-0.37215015 0.1459491,-0.0739847 0.00263,-0.1415019 0.00263,-0.1415019 L 1.129618,0.45593195 c 0,0 -0.13058604,-0.069538 -0.1249259,0.076815 0.00566,0.1463535 0,0.72590495 0,0.72590495 0,0 -0.02163,0.1552479 0.1229046,0.086316 M 0.12475186,1.8650894 c 0.1447363,-0.068932 0.6254387,-0.3175709 0.7329803,-0.3721502 0.14615134,-0.074187 0.00263,-0.141502 0.00263,-0.141502 L 0.12697556,0.97585055 c 0,0 -0.1307883,-0.069336 -0.124926,0.076815 0.00586,0.1461513 -0.00101,0.7261072 -0.00101,0.7261072 0,0 -0.020821,0.1550458 0.1237131,0.086316 m -0.00102,1.0014302 c 0.1447446,-0.068729 0.625447,-0.3173681 0.7331906,-0.3721497 0.14594924,-0.073985 0.00243,-0.141502 0.00243,-0.141502 L 0.12596486,1.9774823 c 0,0 -0.1307883,-0.069336 -0.124926,0.076815 0.00586,0.1461513 0,0.725905 0,0.725905 a 0.13745905,0.13745905 0 0 0 0,0.017587 v 0.00283 c -0.002020002,0.03962 0.011725,0.1188617 0.1227024,0.065899 m 0.7849316,0.5308351 C 0.82417596,3.35369 0.07684346,2.9728476 0.07684346,2.9728476 c 0,0 -0.075602,-0.030524 -0.0754,0.044068 l 0.00121,0.6323117 c 0,0 0.018193,0.2898768 0.3113043,0.1398847 0.2931137,-0.1499924 0.5947151,-0.2993779 0.5947151,-0.2993779 0,0 0.08389,-0.048515 0,-0.092381" id="path1" style="stroke-width:0.202145" />
</svg>
