<svg width="32mm" height="32mm" viewBox="0 0 32 32" xmlns="http://www.w3.org/2000/svg">
  <g style="fill:#000">
    <path style="opacity:1;fill:#000;fill-opacity:1;fill-rule:evenodd;stroke:none;stroke-width:.26;stroke-linecap:butt;stroke-linejoin:miter;stroke-miterlimit:4;stroke-dasharray:none;stroke-opacity:1" d="M61.399 128.587 35.98 143.263c-1.77 1.022-5.283 1.01-7.031 0L.047 127.95l14.974-8.645a1.106 1.106 178.972 0 1 1.07-.019l15.608 8.279a1.106 1.106 178.972 0 0 1.07-.02l12.908-7.451-8.664-4.555a5.944 5.944 13.866 0 0-2.766-.683h-7.934a7.198 7.198 15.469 0 1-3.7-1.024L3.164 102.175a1.08 1.08 60.469 0 1-.525-.927v-13.95a3.346 3.346 120.766 0 1 1.751-2.942l23.816-12.913c1.942-1.121 6.119-.996 7.843 0l25.724 13.78-15.301 8.521a1.107 1.107 179.831 0 1-1.072.004l-12.49-6.861a1.148 1.148.712 0 0-1.08-.014l-13.923 7.203 9.82 5.042a6.07 6.07 13.59 0 0 2.772.67h7.199a7.988 7.988 14.001 0 1 3.75.936l19.283 10.254a2.259 2.259 59.001 0 1 1.198 1.994v14.697a1.06 1.06 120 0 1-.53.918z" transform="matrix(.16342 0 0 .16342 -.008 -1.54)"/>
    <path style="fill:#000;fill-opacity:1;fill-rule:evenodd;stroke:none;stroke-width:.26;stroke-linecap:butt;stroke-linejoin:miter;stroke-miterlimit:4;stroke-dasharray:none;stroke-opacity:1" d="M105 143.607V86.061l19.862.032a1.037 1.037 135.046 0 0 1.038-1.038v-13.76h-22.486a3.907 3.907 166.336 0 0-1.793.435l-4.277 2.21-5.12-2.646H68.788v14.8l20.9-.033v57.546z" transform="matrix(-.16342 0 0 .16342 31.76 -1.56)"/>
    <g style="fill:#000;fill-opacity:1">
      <path style="opacity:1;fill:#000;fill-opacity:1;fill-rule:evenodd;stroke:none;stroke-width:.26;stroke-linecap:butt;stroke-linejoin:miter;stroke-miterlimit:4;stroke-dasharray:none;stroke-opacity:1" d="M132.175 71.105v16.03a4.03 4.03 0 0 0 2.047 3.508l25.357 14.332c1.29.745 3.057 1.094 4.436 1.094 1.38 0 3.147-.35 4.437-1.094l25.357-14.332a4.03 4.03 0 0 0 2.047-3.508v-16.03l-31.84 18.48zM132.175 92.793l.023 50.625h15.903v-41.553z" transform="matrix(.16342 0 0 .16342 -.006 -1.529)"/>
      <path style="fill:#000;fill-opacity:1;fill-rule:evenodd;stroke:none;stroke-width:.26;stroke-linecap:butt;stroke-linejoin:miter;stroke-miterlimit:4;stroke-dasharray:none;stroke-opacity:1" d="m195.856 92.793-.023 50.625H179.93v-41.553z" transform="matrix(.16342 0 0 .16342 -.006 -1.529)"/>
    </g>
  </g>
</svg>