<?xml version="1.0" encoding="UTF-8" standalone="no"?>
<svg version="1.1" width="32" height="32" id="svg60" sodipodi:docname="justica-federal.svg" inkscape:version="1.4-beta2 (9aaf4f34, 2024-07-30)" xmlns:inkscape="http://www.inkscape.org/namespaces/inkscape" xmlns:sodipodi="http://sodipodi.sourceforge.net/DTD/sodipodi-0.dtd" xmlns="http://www.w3.org/2000/svg" xmlns:svg="http://www.w3.org/2000/svg">
  <defs id="defs60" />
  <sodipodi:namedview id="namedview60" pagecolor="#ffffff" bordercolor="#000000" borderopacity="0.25" inkscape:showpageshadow="2" inkscape:pageopacity="0.0" inkscape:pagecheckerboard="0" inkscape:deskcolor="#d1d1d1" inkscape:zoom="0.11393934" inkscape:cx="201.86179" inkscape:cy="1566.6231" inkscape:window-width="1440" inkscape:window-height="790" inkscape:window-x="0" inkscape:window-y="0" inkscape:window-maximized="1" inkscape:current-layer="svg60" />
  <g id="g60" transform="matrix(0.03595485,0,0,0.03595485,10.421655,-55.268553)">
    <path d="m 170.14881,1537.1731 c 1.10922,0.9416 2.21712,1.8847 3.32447,2.8284 0.6171,0.525 1.2342,1.05 1.87001,1.591 2.538,2.2219 4.88667,4.6057 7.24302,7.0181 3.76308,3.8201 7.60659,7.4763 11.71094,10.9297 0.61102,0.5388 1.22203,1.0777 1.85156,1.6328 1.27586,0.9542 1.27586,0.9542 2.57749,1.9276 3.54119,4.4912 3.10684,8.2948 3.03433,13.8634 0.006,1.0887 0.0113,2.1774 0.0172,3.299 0.0135,3.6058 -0.007,7.2105 -0.0274,10.8163 0.005,2.5209 0.0136,5.0417 0.0243,7.5626 0.0229,6.6535 0.0187,13.3065 0.006,19.96 -0.0197,10.5909 -0.008,21.1816 0.0259,31.7725 0.006,3.6715 -0.007,7.3426 -0.022,11.0141 -0.006,10.5421 0.21658,20.9144 1.67026,31.3685 0.11274,0.8167 0.22549,1.6335 0.34165,2.475 1.29039,8.1558 4.26756,15.5919 7.57241,23.1183 0.95714,2.2373 1.73469,4.5236 2.52978,6.8227 9.27165,22.9603 28.01271,43.1767 48.25,57 1.35352,0.9359 1.35352,0.9359 2.73438,1.8906 13.89122,9.2341 29.40173,14.6918 45.57812,18.3594 0.71632,0.1633 1.43264,0.3265 2.17066,0.4947 9.49818,2.0444 18.86323,2.3866 28.55322,2.2543 2.40383,-0.023 4.80767,-0.045 7.2115,-0.067 1.26086,-0.013 2.52172,-0.025 3.82078,-0.039 3.97396,-0.035 7.94779,-0.054 11.92187,-0.065 1.01144,0 1.01144,0 2.04332,-0.01 2.77551,-0.01 5.55102,-0.013 8.32654,-0.019 7.83784,-0.017 15.67421,-0.055 23.51144,-0.1573 6.25329,-0.082 12.50492,-0.1168 18.75874,-0.098 3.299,0.01 6.5934,-0.014 9.89189,-0.078 22.6757,-0.4196 22.6757,-0.4196 29.77519,6.1013 2.46537,2.6681 4.56698,5.4878 6.70235,8.4278 2.17958,2.1082 2.17958,2.1082 4.1875,3.6875 5.80948,4.9448 11.04123,10.4993 16.39063,15.9297 3.67274,3.7066 7.32612,7.3696 11.29687,10.7578 6.2539,5.3623 11.92345,11.369 17.70704,17.2276 5.32085,5.3835 10.63667,10.6916 16.39843,15.6093 4.35791,3.8585 8.41427,8.04 12.51953,12.1631 0.91782,0.914 1.83563,1.8279 2.78125,2.7696 0.86625,0.8675 1.7325,1.735 2.625,2.6289 1.18046,1.1821 1.18046,1.1821 2.38477,2.3881 1.70898,1.8384 1.70898,1.8384 1.70898,2.8384 -32.11978,0.069 -64.23954,0.1216 -96.35938,0.1532 -3.79736,0 -7.59472,0.01 -11.39208,0.012 -0.75594,8e-4 -1.51189,0 -2.29074,0 -12.21877,0.013 -24.43749,0.037 -36.65623,0.064 -12.54998,0.028 -25.09994,0.045 -37.64996,0.051 -7.73572,0 -15.47133,0.017 -23.20702,0.042 -5.94505,0.018 -11.89003,0.02 -17.83511,0.015 -2.42909,9e-4 -4.85818,0.01 -7.28724,0.018 -12.16403,0.055 -23.54982,0.04 -35.32224,-3.3576 -1.5546,-0.4039 -3.10927,-0.8077 -4.66406,-1.2109 -1.32247,-0.3806 -2.64286,-0.7685 -3.96094,-1.1641 -1.06964,-0.3191 -1.06964,-0.3191 -2.16088,-0.6448 -6.26063,-1.9141 -12.26848,-4.2335 -18.21412,-6.9802 -0.98355,-0.4511 -1.9671,-0.9023 -2.98046,-1.3672 -27.09231,-12.9678 -48.05505,-34.9394 -63.01954,-60.6328 -0.54986,-0.9392 -0.54986,-0.9392 -1.11084,-1.8974 -4.75431,-8.2965 -7.98105,-16.8174 -10.70166,-25.9776 -0.41705,-1.397 -0.41705,-1.397 -0.84252,-2.8222 -4.77,-16.9949 -5.77657,-33.3623 -5.68555,-50.9185 8.5e-4,-2.3179 3.7e-4,-4.6358 -10e-4,-6.9537 -8.5e-4,-6.2364 0.0167,-12.4726 0.0377,-18.709 0.0189,-6.5382 0.0205,-13.0765 0.0241,-19.6147 0.008,-10.9559 0.0269,-21.9118 0.0538,-32.8676 0.0276,-11.2751 0.0488,-22.5501 0.0615,-33.8252 7.9e-4,-0.6972 0.002,-1.3944 0.002,-2.1128 0.004,-3.4984 0.008,-6.9968 0.0114,-10.4951 0.031,-28.9355 0.084,-57.8708 0.15097,-86.8062 z" fill="#95969a" id="path2" style="fill:#000000" />
    <path d="m -240.85119,2059.1731 c 30.52298,-0.023 61.04596,-0.041 91.56894,-0.051 3.61195,0 7.2239,0 10.83585,0 0.71901,-3e-4 1.43801,-5e-4 2.17881,-8e-4 11.60819,0 23.21638,-0.012 34.82456,-0.021 11.930761,-0.01 23.861516,-0.015 35.792277,-0.017 6.693009,0 13.386007,0 20.079013,-0.012 6.311827,-0.01 12.623637,-0.01 18.935467,-0.01 2.304847,-3e-4 4.609695,0 6.914539,-0.01 10.3493992,-0.016 20.6806775,0 31.017796,0.5558 0.716251,0.038 1.432502,0.075 2.170458,0.1143 5.753051,0.3534 11.110098,1.3607 16.619795,3.0116 0.913301,0.2625 1.826601,0.525 2.767578,0.7954 24.563711,7.3224 45.41587,19.6139 63.908691,37.3189 1.126594,1.0754 2.267958,2.1353 3.413576,3.1904 16.87542,15.9622 29.94925,39.5577 34.97265,62.1328 0.33877,1.3886 0.68014,2.7766 1.02344,4.1641 0.36814,1.5076 0.73533,3.0154 1.10156,4.5234 0.17113,0.7014 0.34225,1.4027 0.51856,2.1253 0.16145,0.6844 0.32291,1.3688 0.48926,2.0739 0.14324,0.6003 0.28649,1.2006 0.43408,1.8191 1.2783,6.7713 1.57572,13.3455 1.55336,20.2157 0.001,1.4559 0.001,1.4559 0.003,2.9411 0.002,3.2366 -0.004,6.4731 -0.009,9.7097 -2.8e-4,2.3263 -1.2e-4,4.6525 4.4e-4,6.9788 2.9e-4,6.3051 -0.006,12.6102 -0.0126,18.9153 -0.006,5.9248 -0.007,11.8496 -0.008,17.7743 -0.002,11.731 -0.009,23.4619 -0.0183,35.1929 -0.009,11.3919 -0.0163,22.7839 -0.0205,34.1758 -4e-4,1.0542 -4e-4,1.0542 -8e-4,2.1298 -10e-4,3.5261 -0.003,7.0521 -0.004,10.5782 -0.0104,29.2276 -0.028,58.4551 -0.0503,87.6826 -1.11367,-0.9462 -2.22615,-1.8938 -3.33813,-2.842 -0.61964,-0.5276 -1.23928,-1.0551 -1.8777,-1.5987 -2.35546,-2.0586 -4.53942,-4.2564 -6.72167,-6.4968 -3.56466,-3.6079 -7.1965,-7.0335 -11.07812,-10.2969 -0.98227,-0.8739 -0.98227,-0.8739 -1.98438,-1.7656 -1.01596,-0.8034 -2.03193,-1.6068 -3.07868,-2.4345 -3.46614,-3.512 -3.63482,-6.5119 -3.69797,-11.3133 0.0169,-1.0114 0.0339,-2.0229 0.0513,-3.0649 -0.006,-1.0791 -0.0116,-2.1581 -0.0176,-3.2699 -0.0128,-3.568 0.0159,-7.1346 0.0437,-10.7025 -0.004,-2.4971 -0.0104,-4.9941 -0.02,-7.4911 -0.0171,-5.9142 -0.01,-11.828 0.0113,-17.7421 0.0398,-11.1581 0.0371,-22.316 0.0111,-33.4741 -0.002,-3.6339 0.0153,-7.2673 0.0353,-10.9011 0.0385,-19.4134 -1.27002,-37.6443 -8.596268,-55.7696 -0.678049,-1.6781 -1.321371,-3.3702 -1.960937,-5.0634 -5.216187,-13.3577 -12.765402,-24.7343 -21.78125,-35.7735 -0.595547,-0.7502 -1.191094,-1.5004 -1.804688,-2.2734 -4.72664,-5.7217 -10.390628,-10.1439 -16.195312,-14.7266 -1.241367,-1.0402 -1.241367,-1.0402 -2.507813,-2.1015 -27.861748,-23.2032 -62.4210789,-29.5521 -97.605917,-28.9118 -3.958691,0.066 -7.916984,0.1014 -11.876093,0.1247 -1.012975,0.01 -1.012975,0.01 -2.046415,0.013 -1.378213,0.01 -2.756426,0.017 -4.13464,0.025 -9.181675,0.057 -18.36159,0.1417 -27.541769,0.3204 -6.244563,0.1213 -12.486878,0.1843 -18.732658,0.183 -3.28613,0 -6.56486,0.04 -9.84985,0.1327 -22.45321,0.6125 -22.45321,0.6125 -30.90322,-7.2847 -2.52807,-2.7056 -4.83688,-5.5283 -7.09649,-8.46 -2.37747,-2.845 -5.09207,-5.1719 -7.92881,-7.5472 -2.42893,-2.0419 -4.64376,-4.2654 -6.87008,-6.5245 -0.88558,-0.8933 -1.77117,-1.7867 -2.68359,-2.7071 -1.8151,-1.8411 -3.63021,-3.6822 -5.44531,-5.5234 -3.82186,-3.8552 -7.61926,-7.6769 -11.7461,-11.207 -5.81729,-4.9821 -11.09455,-10.5384 -16.46777,-15.9883 -5.04418,-5.1096 -10.11301,-10.1121 -15.57129,-14.7822 -3.99972,-3.5351 -7.72826,-7.3535 -11.49219,-11.1358 -0.82242,-0.8185 -1.64484,-1.6371 -2.49218,-2.4804 -0.77602,-0.7773 -1.55203,-1.5547 -2.35157,-2.3555 -0.70318,-0.7043 -1.40636,-1.4086 -2.13085,-2.1343 -1.5254,-1.6548 -1.5254,-1.6548 -1.5254,-2.6548 z" fill="#95969a" id="path3" style="fill:#000000" />
    <path d="m 326.11976,1935.8325 c 2.47538,9e-4 4.95077,4e-4 7.42615,0 5.29489,-7e-4 10.58964,0.01 15.88449,0.025 7.65512,0.025 15.31018,0.032 22.96533,0.036 12.42481,0.01 24.84955,0.026 37.27432,0.055 12.05794,0.028 24.11587,0.049 36.17383,0.062 0.74527,8e-4 1.49054,0 2.2584,0 3.7394,0 7.4788,0.01 11.2182,0.012 30.94282,0.031 61.88557,0.084 92.82833,0.1509 -0.75417,0.7351 -1.50835,1.4701 -2.28538,2.2274 -2.2533,2.3015 -4.19653,4.5843 -6.14847,7.1339 -6.92825,8.4091 -13.0005,14.4592 -24.19845,15.574 -6.2099,0.2427 -12.37366,0.1064 -18.58254,-0.099 -2.70887,-0.032 -5.41756,-0.035 -8.1266,-0.039 -6.3716,-0.023 -12.73822,-0.1344 -19.10804,-0.2817 -9.30019,-0.2117 -18.60172,-0.3032 -27.90389,-0.3788 -0.69039,-0.01 -1.38078,-0.011 -2.09209,-0.017 -1.37961,-0.011 -2.75922,-0.022 -4.13883,-0.033 -4.60748,-0.039 -9.21244,-0.1271 -13.81901,-0.2306 -13.80814,-0.2531 -26.2559,0.5163 -39.5967,4.1439 -1.26444,0.3114 -2.52888,0.6227 -3.83165,0.9435 -22.58494,5.6381 -42.21281,18.4128 -59.16835,34.0565 -0.51788,0.4741 -1.03576,0.9481 -1.56933,1.4365 -7.73217,7.1584 -13.74386,14.6592 -19.43067,23.5635 -0.66515,0.981 -1.33031,1.962 -2.01562,2.9727 -14.20138,21.6655 -22.2128,48.1088 -22.07861,73.9922 0.003,2.2416 0.005,4.4832 0.008,6.7248 0.005,1.7713 0.005,1.7713 0.009,3.5784 0.0114,6.2727 -0.009,12.5452 -0.0246,18.8179 -0.0183,7.9731 -0.0269,15.9458 0.002,23.9189 0.0225,6.4534 0.0111,12.9059 -0.023,19.3592 -0.007,2.4559 -10e-4,4.9119 0.0174,7.3678 0.0241,3.4354 0.005,6.868 -0.0241,10.3033 0.0174,1.0111 0.0348,2.0222 0.0527,3.064 -0.0924,5.2456 -0.58185,8.1616 -4.34648,11.9686 -1.17087,1.0029 -2.36084,1.9845 -3.57682,2.9322 -0.69287,0.6207 -1.38574,1.2414 -2.0996,1.8809 -0.57557,0.4827 -1.15114,0.9655 -1.74415,1.4629 -4.79866,4.1422 -9.21188,8.6405 -13.65625,13.1562 -5.0092,5.0896 -10.04022,10.0301 -15.45898,14.6817 -4.02598,3.5868 -7.76023,7.4769 -11.54102,11.3183 -8.95349,9.0972 -8.95349,9.0972 -13.50781,13.0039 -5.6007,4.8052 -10.66278,10.1578 -15.80859,15.4395 -0.76957,0.7805 -1.53914,1.561 -2.33203,2.3652 -0.69271,0.7096 -1.38542,1.4191 -2.09912,2.1502 -1.75245,1.5412 -1.75245,1.5412 -3.75245,1.5412 0,0.66 0,1.32 0,2 -1.43359,1.4102 -1.43359,1.4102 -3.4375,3.0625 -4.16305,3.5238 -7.97486,7.308 -11.77734,11.2149 -1.78516,1.7226 -1.78516,1.7226 -2.78516,1.7226 -0.0686,-29.7756 -0.1216,-59.5512 -0.15319,-89.3269 -0.004,-3.5231 -0.008,-7.0462 -0.0116,-10.5693 -7.9e-4,-0.7013 -0.002,-1.4027 -0.002,-2.1252 -0.013,-11.3244 -0.0367,-22.6487 -0.0643,-33.9731 -0.0282,-11.638 -0.0445,-23.2761 -0.0508,-34.9142 -0.004,-6.5293 -0.013,-13.0584 -0.0349,-19.5876 -0.0205,-6.1568 -0.0266,-12.3133 -0.0221,-18.4701 -8.2e-4,-2.2488 -0.007,-4.4977 -0.0183,-6.7465 -0.20648,-42.1692 13.64476,-79.6916 43.04511,-110.2871 17.48149,-16.9981 38.76574,-30.0511 62.25,-36.75 0.6542,-0.1867 1.3084,-0.3735 1.98243,-0.5659 2.34874,-0.6242 4.70768,-1.1557 7.08007,-1.6841 1.09976,-0.2493 2.19951,-0.4987 3.33258,-0.7556 12.86069,-2.6964 25.54603,-2.6483 38.63837,-2.585 z" fill="#017e32" id="path4" style="fill:#000000" />
    <path d="m 140.14881,1660.1731 c 0.0686,29.5038 0.12162,59.0076 0.1532,88.5115 0.004,3.4918 0.008,6.9836 0.0116,10.4753 7.9e-4,0.6951 0.002,1.3902 0.002,2.1063 0.013,11.2203 0.0367,22.4404 0.0643,33.6606 0.0282,11.533 0.0445,23.066 0.0508,34.599 0.004,6.4695 0.013,12.9389 0.0349,19.4083 0.0205,6.1018 0.0266,12.2034 0.0221,18.3051 8.2e-4,2.2275 0.007,4.455 0.0183,6.6824 0.0858,17.3341 -1.50586,33.5039 -6.48262,50.189 -0.30147,1.0109 -0.60295,2.0218 -0.91357,3.0633 -11.40406,36.7808 -37.57068,66.9915 -71.285644,85.2585 -13.275973,6.8602 -27.102141,10.6774 -41.675781,13.7407 -0.694289,0.1621 -1.388578,0.3241 -2.103906,0.4911 -6.295348,1.3928 -12.2316754,1.7888 -18.66553397,1.7494 -1.55639913,0 -1.55639913,0 -3.14424073,0.01 -3.4515339,0 -6.9028703,-0.01 -10.3543863,-0.019 -2.484202,-6e-4 -4.968404,-3e-4 -7.452606,9e-4 -5.335359,4e-4 -10.670657,-0.01 -16.006,-0.016 -7.713854,-0.016 -15.427684,-0.022 -23.141552,-0.024 -12.517409,0 -25.034791,-0.018 -37.552185,-0.037 -12.154295,-0.018 -24.308585,-0.033 -36.462895,-0.041 -0.75009,-5e-4 -1.50019,0 -2.27301,0 -3.76328,0 -7.52656,-0.01 -11.28984,-0.01 -31.18464,-0.021 -62.36924,-0.056 -93.55385,-0.1007 0.94565,-1.118 1.89341,-2.2341 2.84205,-3.3496 0.52755,-0.6218 1.0551,-1.2435 1.59864,-1.8841 2.01304,-2.2802 4.20192,-4.2727 6.49681,-6.2663 3.419,-2.9236 3.419,-2.9236 6.43769,-6.2378 2.451,-2.9411 4.39503,-4.9549 8.17831,-5.9002 3.11161,-0.2274 6.15554,-0.2362 9.27487,-0.1691 1.17513,0 2.35026,-0.01 3.56099,-0.01 3.21247,0 6.42297,0.027 9.63512,0.068 3.38763,0.035 6.77512,0.025 10.16289,0.019 7.89552,-0.01 15.79034,0.038 23.68567,0.089 9.99386,0.062 19.98756,0.1014 29.98162,0.093 4.64274,0 9.28407,0.037 13.92661,0.085 15.07513,0.068 28.726697,-1.3383 43.218735,-5.5394 0.822457,-0.2345 1.644915,-0.4691 2.492296,-0.7107 23.466546,-6.7612 43.043535,-19.4807 60.5077037,-36.2893 0.6316407,-0.5685 1.2632813,-1.1369 1.9140625,-1.7226 6.3441083,-5.8781 11.1794794,-13.2047 16.0859375,-20.2774 1.0731446,-1.5469 1.0731446,-1.5469 2.1679683,-3.125 14.323193,-21.9565 22.140867,-48.6472 21.878663,-74.8139 -0.01277,-2.2116 -0.02521,-4.4231 -0.03737,-6.6347 -0.01187,-1.744 -0.01187,-1.744 -0.02399,-3.5233 -0.04232,-7.4865 -0.03027,-14.9732 -0.03011,-22.4598 -0.003,-6.5684 -0.02382,-13.1359 -0.08187,-19.704 -0.05524,-6.3704 -0.06162,-12.7392 -0.03531,-19.1098 0.0012,-2.42 -0.01518,-4.8402 -0.04992,-7.26 -0.270681,-19.9012 -0.270681,-19.9012 3.370897,-25.0075 2.487808,-2.526 4.880738,-4.4306 7.841034,-6.362 1.391049,-1.1898 2.769366,-2.395 4.125,-3.625 0.641953,-0.5504 1.283906,-1.1008 1.945312,-1.6679 3.471551,-3.071 6.685513,-6.3995 9.929688,-9.7071 3.862248,-3.9377 7.719137,-7.8119 11.90625,-11.4062 4.780751,-4.1178 9.170131,-8.5992 13.59375,-13.0938 5.019275,-5.0998 10.060456,-10.0518 15.490233,-14.7129 3.84286,-3.4171 7.40585,-7.1217 11.00976,-10.7871 4.90688,-4.9906 9.85115,-9.8216 15.16065,-14.3833 3.24447,-2.8517 6.21911,-5.9546 9.23193,-9.0483 3.50897,-3.5684 3.50897,-3.5684 4.60742,-3.5684 z" fill="#023f77" id="path5" style="fill:#000000" />
    <path d="m -235.85119,2022.1731 c 0.66,0.33 1.32,0.66 2,1 -0.33,0.66 -0.66,1.32 -1,2 122.76,0.495 122.76,0.495 248.000005,1 -3.11525,2.0769 -3.7745824,2.2496 -7.3047211,2.2461 -0.8837889,0 -1.7675777,0.01 -2.678148,0.012 -0.9717805,-0.01 -1.9435609,-0.012 -2.94478925,-0.018 -1.03161847,0 -2.06323695,0 -3.12611655,0.01 -3.4732743,0 -6.9463574,-0.01 -10.4196141,-0.019 -2.483169,-6e-4 -4.966339,-3e-4 -7.449509,9e-4 -5.35458,4e-4 -10.7091,-0.01 -16.063665,-0.016 -7.741825,-0.016 -15.483627,-0.022 -23.225468,-0.024 -12.560114,0 -25.120203,-0.018 -37.680303,-0.037 -12.202151,-0.018 -24.404291,-0.033 -36.606441,-0.041 -1.12791,-8e-4 -1.12791,-8e-4 -2.27859,0 -3.77218,0 -7.54435,-0.01 -11.31653,-0.01 -31.30205,-0.021 -62.60407,-0.056 -93.90611,-0.1007 2,-2 4,-4 6,-6 z" fill="#17426b" id="path6" style="fill:#000000" />
    <path d="m 172.14881,2063.1731 c 0.33,0 0.66,0 1,0 -0.33,77.22 -0.66,154.44 -1,234 1.65,0 3.3,0 5,0 -1.64169,2.0206 -3.30911,4.0205 -5,6 -0.33,0 -0.66,0 -1,0 -0.0228,-29.5636 -0.0405,-59.1273 -0.0511,-88.691 -0.001,-3.4909 -0.003,-6.9819 -0.004,-10.4728 -2.6e-4,-0.695 -5.2e-4,-1.3899 -7.9e-4,-2.106 -0.004,-11.2502 -0.0122,-22.5005 -0.0214,-33.7508 -0.009,-11.5453 -0.0148,-23.0907 -0.0169,-34.6361 -0.001,-6.4842 -0.004,-12.9683 -0.0117,-19.4525 -0.007,-6.1025 -0.009,-12.205 -0.007,-18.3075 -2.8e-4,-2.2401 -0.002,-4.4802 -0.006,-6.7204 -0.005,-3.0585 -0.004,-6.117 -0.001,-9.1755 -0.003,-0.8862 -0.006,-1.7724 -0.009,-2.6855 0.0115,-4.7744 0.32794,-9.2932 1.12908,-14.0019 z" fill="#086c30" id="path7" style="fill:#000000" />
    <path d="m 301.14881,1936.1731 c 82.83,0 165.66,0 251,0 -1.32,1.32 -2.64,2.64 -4,4 0,-0.99 0,-1.98 0,-3 -81.51,0 -163.02,0 -247,0 0,-0.33 0,-0.66 0,-1 z" fill="#2d7a49" id="path8" style="fill:#000000" />
    <path d="m 139.14881,1661.1731 c 0,75.24 0,150.48 0,228 -0.33,0 -0.66,0 -1,0 -0.33,-73.26 -0.66,-146.52 -1,-222 -4.90295,2.6997 -4.90295,2.6997 -7,7 -0.99,-0.33 -1.98,-0.66 -3,-1 10.06341,-12 10.06341,-12 12,-12 z" fill="#012f5b" id="path9" style="fill:#000000" />
    <path d="m -218.85119,2005.1731 c 38.28,0 76.56,0 116,0 0,0.66 0,1.32 0,2 -14.82915,0.1539 -29.65835,0.3019 -44.48763,0.443 -6.88518,0.066 -13.77032,0.1332 -20.65543,0.2052 -6.63944,0.069 -13.27891,0.1336 -19.91843,0.1945 -2.53826,0.024 -5.07649,0.05 -7.61471,0.078 -3.54394,0.038 -7.08789,0.071 -10.6319,0.1012 -1.05879,0.013 -2.11759,0.026 -3.20847,0.039 -0.96196,0.01 -1.92392,0.014 -2.91504,0.021 -0.83883,0.01 -1.67766,0.017 -2.54191,0.025 -2.02648,-0.1075 -2.02648,-0.1075 -4.02648,-1.1075 0,-0.66 0,-1.32 0,-2 z" fill="#2d5379" id="path10" style="fill:#000000" />
    <path d="m 198.14881,2277.1731 c 0.33,0.99 0.66,1.98 1,3 -4,4 -8,8 -12,12 -0.54527,0.5917 -1.09054,1.1834 -1.65234,1.793 -3.54077,3.7577 -6.13216,6.0622 -11.34766,7.207 3.80015,-4.5548 7.65666,-8.9528 12,-13 0.66,0 1.32,0 2,0 0,-0.66 0,-1.32 0,-2 1.67969,-1.6562 1.67969,-1.6562 3.875,-3.5 2.11536,-1.7893 4.1652,-3.5402 6.125,-5.5 z" fill="#d2f0dd" id="path11" style="fill:#000000" />
    <path d="m 393.14881,1963.1731 c -0.33,0.66 -0.66,1.32 -1,2 -1.85546,0.3086 -1.85546,0.3086 -4.1875,0.4375 -4.23687,0.3743 -7.03772,1.5547 -10.8125,3.5625 -1.34575,0.3658 -2.70106,0.6978 -4.0625,1 -2.69732,0.6051 -4.19665,1.1567 -6.625,2.625 -2.66725,1.586 -4.26309,1.6364 -7.3125,1.375 7.27945,-5.7733 24.57027,-14.6395 34,-11 z" fill="#c4e9d2" id="path12" style="fill:#000000" />
    <path d="m 327.14881,1994.1731 c 0.66,0.33 1.32,0.66 2,1 -1.22198,1.5889 -2.45294,3.1709 -3.6875,4.75 -0.68449,0.8817 -1.36898,1.7635 -2.07421,2.6719 -2.22535,2.5632 -4.58204,4.4813 -7.23829,6.5781 -0.99,1.485 -0.99,1.485 -2,3 -0.99,0 -1.98,0 -3,0 -0.33,1.65 -0.66,3.3 -1,5 -0.99,-0.33 -1.98,-0.66 -3,-1 5.64363,-8.2994 12.84538,-15.0218 20,-22 z" fill="#d8f5e4" id="path13" style="fill:#000000" />
    <path d="m 290.14881,2039.1731 c 0.66,0 1.32,0 2,0 -1.51941,4.7654 -3.14887,9.4397 -5.0625,14.0625 -1.74212,4.2652 -2.93867,8.4428 -3.9375,12.9375 -0.33,0 -0.66,0 -1,0 -0.0765,-4.5162 -0.10228,-8.5908 1,-13 0.66,0 1.32,0 2,0 0.12375,-1.2994 0.2475,-2.5987 0.375,-3.9375 0.21094,-2.2148 0.21094,-2.2148 0.625,-4.0625 0.66,-0.33 1.32,-0.66 2,-1 0.7216,-1.6436 1.39352,-3.3105 2,-5 z" fill="#19783c" id="path14" style="fill:#000000" />
    <path d="m 89.148815,1992.1731 c 0.66,0.33 1.32,0.66 2,1 -2.247668,3.4307 -4.513066,4.9245 -8,7 -0.78375,0.8044 -1.5675,1.6088 -2.375,2.4375 -3.101348,3.0275 -5.70613,4.71 -9.625,6.5625 -2.214844,-0.3984 -2.214844,-0.3984 -4,-1 1.001601,-0.6522 2.003203,-1.3045 3.035156,-1.9765 6.640484,-4.3559 13.12314,-8.6092 18.964844,-14.0235 z" fill="#daebf4" id="path15" style="fill:#000000" />
    <path d="m 228.14881,2248.1731 c 0.33,0.99 0.66,1.98 1,3 -1.51593,1.2375 -1.51593,1.2375 -3.0625,2.5 -3.50839,2.9698 -6.33958,6.2466 -9.16406,9.8633 -2.18978,2.021 -3.85617,2.2932 -6.77344,2.6367 2.90489,-3.9942 6.23211,-7.0346 9.96094,-10.2187 2.82172,-2.465 5.4233,-5.1001 8.03906,-7.7813 z" fill="#dcf9e6" id="path16" style="fill:#000000" />
    <path d="m 353.14881,1977.1731 c -0.33,0.99 -0.66,1.98 -1,3 -1.65204,0.7021 -3.31923,1.3697 -5,2 -0.33,0.66 -0.66,1.32 -1,2 -3.13475,2.9026 -5.80017,3.5228 -10,4 2.93928,-3.1482 5.98568,-5.4546 9.625,-7.75 0.96165,-0.6136 1.92329,-1.2272 2.91407,-1.8594 2.46093,-1.3906 2.46093,-1.3906 4.46093,-1.3906 z" fill="#d2f1df" id="path17" style="fill:#000000" />
    <path d="m 108.14881,1973.1731 c 0.33,0.99 0.66,1.98 1,3 -5,5 -9.999995,10 -14.999995,15 0,-3 0,-3 1.539062,-4.7969 0.68836,-0.6445 1.376719,-1.289 2.085938,-1.9531 3.721185,-3.5755 7.072335,-7.2868 10.374995,-11.25 z" fill="#e0f0f8" id="path18" style="fill:#000000" />
    <path d="m 547.14881,1940.1731 c 0,3.9317 -1.39419,5.1643 -4,8 -0.66,0 -1.32,0 -2,0 0,1.32 0,2.64 0,4 -1.96466,1.0678 -3.96855,2.0656 -6,3 -0.66,-0.33 -1.32,-0.66 -2,-1 4.62,-4.62 9.24,-9.24 14,-14 z" fill="#c4ead4" id="path19" style="fill:#000000" />
    <path d="m 268.14881,2209.1731 c 0.6875,1.8125 0.6875,1.8125 1,4 -1.375,1.5625 -1.375,1.5625 -3,3 -0.33,0.99 -0.66,1.98 -1,3 -2.31,0.33 -4.62,0.66 -7,1 3.20761,-3.8063 6.40747,-7.5456 10,-11 z" fill="#cfeeda" id="path20" style="fill:#000000" />
    <path d="m 199.14881,1994.1731 c 0.33,1.32 0.66,2.64 1,4 -0.66,0 -1.32,0 -2,0 -0.66,2.31 -1.32,4.62 -2,7 -0.99,0 -1.98,0 -3,0 -0.33,1.65 -0.66,3.3 -1,5 -0.99,0.33 -1.98,0.66 -3,1 1.48636,-4.2165 3.6125,-7.6248 6.125,-11.3125 0.72446,-1.0686 1.44891,-2.1372 2.19532,-3.2383 0.83144,-1.2123 0.83144,-1.2123 1.67968,-2.4492 z" fill="#247a45" id="path21" style="fill:#000000" />
    <path d="m 43.148815,1752.1731 c 0,3.5986 -0.958305,5.0945 -3,8 -0.66,0 -1.32,0 -2,0 -0.66,1.32 -1.32,2.64 -2,4 -0.99,0 -1.98,0 -3,0 1.477214,-3.452 3.43794,-5.6496 6.125,-8.25 0.724453,-0.7064 1.448906,-1.4128 2.195312,-2.1406 0.554297,-0.5311 1.108594,-1.0622 1.679688,-1.6094 z" fill="#254e77" id="path22" style="fill:#000000" />
    <path d="m 250.14881,1952.1731 c -0.33,0.99 -0.66,1.98 -1,3 -1.65,0.33 -3.3,0.66 -5,1 -0.33,1.32 -0.66,2.64 -1,4 -1.65,0.33 -3.3,0.66 -5,1 0,-0.99 0,-1.98 0,-3 2.11719,-1.6054 2.11719,-1.6054 4.875,-3.1875 0.90493,-0.5298 1.80985,-1.0596 2.74219,-1.6054 2.38281,-1.2071 2.38281,-1.2071 4.38281,-1.2071 z" fill="#187a3f" id="path23" style="fill:#000000" />
    <path d="m 257.14881,2220.1731 c 0.8125,1.6875 0.8125,1.6875 1,4 -2.40123,3.0369 -4.06049,4.7286 -7.8125,5.8125 -0.72187,0.062 -1.44375,0.1238 -2.1875,0.1875 0.93591,-1.1055 1.8738,-2.2093 2.8125,-3.3125 0.52208,-0.6149 1.04415,-1.2297 1.58204,-1.8633 1.47719,-1.6784 3.00586,-3.263 4.60546,-4.8242 z" fill="#defaea" id="path24" style="fill:#000000" />
    <path d="m 214.14881,1977.1731 c 0.33,0.66 0.66,1.32 1,2 -0.63937,0.5981 -1.27875,1.1963 -1.9375,1.8125 -2.2656,2.0956 -2.2656,2.0956 -3.0625,5.1875 -1.87617,1.845 -3.92737,3.3684 -6,5 -0.66,-0.33 -1.32,-0.66 -2,-1 1.81223,-1.9794 3.62477,-3.9585 5.4375,-5.9375 0.51627,-0.5639 1.03254,-1.1279 1.56446,-1.709 3.88476,-4.2402 3.88476,-4.2402 4.99804,-5.3535 z" fill="#27804a" id="path25" style="fill:#000000" />
    <path d="m 201.14881,1987.1731 c 1.32,0.33 2.64,0.66 4,1 -1.29015,1.6262 -2.58217,3.2509 -3.875,4.875 -1.07894,1.3574 -1.07894,1.3574 -2.17968,2.7422 -1.94532,2.3828 -1.94532,2.3828 -3.94532,4.3828 0.875,-4.75 0.875,-4.75 2,-7 0.66,0 1.32,0 2,0 0.14438,-0.6187 0.28875,-1.2375 0.4375,-1.875 0.5625,-2.125 0.5625,-2.125 1.5625,-4.125 z" fill="#d8f5e0" id="path26" style="fill:#000000" />
    <path d="m 92.148815,1985.1731 c 0.99,0.33 1.98,0.66 3,1 -1.425809,3.452 -3.097464,5.1014 -6.125,7.25 -0.724453,0.5208 -1.448907,1.0416 -2.195313,1.5781 -0.554297,0.3868 -1.108594,0.7735 -1.679687,1.1719 0.33,-1.65 0.66,-3.3 1,-5 0.99,-0.33 1.98,-0.66 3,-1 0.33,-0.66 0.66,-1.32 1,-2 0.66,0 1.32,0 2,0 0,-0.99 0,-1.98 0,-3 z" fill="#1a436f" id="path27" style="fill:#000000" />
    <path d="m 198.14881,2277.1731 c 0.33,0.99 0.66,1.98 1,3 -0.49371,0.4821 -0.98742,0.9642 -1.49609,1.461 -0.64066,0.6316 -1.28133,1.2632 -1.94141,1.914 -0.63808,0.6265 -1.27617,1.253 -1.93359,1.8985 -1.70773,1.6438 -1.70773,1.6438 -2.62891,3.7265 -0.66,0 -1.32,0 -2,0 1.45282,-5.3269 5.08112,-8.364 9,-12 z" fill="#e4faeb" id="path28" style="fill:#000000" />
    <path d="m 280.14881,2067.1731 c 0.33,0 0.66,0 1,0 -0.14183,1.7504 -0.28863,3.5003 -0.4375,5.25 -0.0812,0.9746 -0.16242,1.9491 -0.24609,2.9531 -0.26715,2.3615 -0.67012,4.5159 -1.31641,6.7969 -0.66,0 -1.32,0 -2,0 -0.66,-1.65 -1.32,-3.3 -2,-5 0.99,-0.33 1.98,-0.66 3,-1 0.80564,-2.1058 0.80564,-2.1058 1.1875,-4.5625 0.15856,-0.8263 0.31711,-1.6526 0.48047,-2.5039 0.10957,-0.6381 0.21914,-1.2762 0.33203,-1.9336 z" fill="#0a6f2d" id="path29" style="fill:#000000" />
    <path d="m 316.14881,2005.1731 c 0.33,0.66 0.66,1.32 1,2 -1.25,2.625 -1.25,2.625 -3,5 -0.99,0 -1.98,0 -3,0 -0.33,1.65 -0.66,3.3 -1,5 -0.99,-0.33 -1.98,-0.66 -3,-1 0.93442,-1.2731 1.87268,-2.5434 2.8125,-3.8125 0.52208,-0.7077 1.04415,-1.4154 1.58204,-2.1445 1.43675,-1.8283 2.92362,-3.4419 4.60546,-5.043 z" fill="#c7eed6" id="path30" style="fill:#000000" />
    <path d="m 282.14881,2066.1731 c 0.33,0 0.66,0 1,0 -0.1411,2.1045 -0.28804,4.2086 -0.4375,6.3125 -0.0812,1.1718 -0.16242,2.3435 -0.24609,3.5508 -0.31641,3.1367 -0.31641,3.1367 -1.31641,6.1367 -0.66,0 -1.32,0 -2,0 0.47987,-5.5689 1.29916,-10.6707 3,-16 z" fill="#caeed8" id="path31" style="fill:#000000" />
    <path d="m 213.14881,1974.1731 c 1.32,0.33 2.64,0.66 4,1 -2.97,2.97 -5.94,5.94 -9,9 -0.33,-1.32 -0.66,-2.64 -1,-4 0.99,0 1.98,0 3,0 0.30938,-0.6187 0.61875,-1.2375 0.9375,-1.875 0.6875,-1.375 1.375,-2.75 2.0625,-4.125 z" fill="#e0fbe8" id="path32" style="fill:#000000" />
    <path d="m 137.14881,1662.1731 c 0,1.6667 0,3.3334 0,5 -0.78375,0.4538 -1.5675,0.9075 -2.375,1.375 -2.74859,1.7015 -3.50421,2.6702 -4.625,5.625 -0.99,-0.33 -1.98,-0.66 -3,-1 3.20761,-3.8063 6.40747,-7.5456 10,-11 z" fill="#0c3365" id="path33" style="fill:#000000" />
    <path d="m 125.14881,1945.1731 c 0.66,0.99 1.32,1.98 2,3 -0.75733,1.3411 -1.53132,2.6727 -2.3125,4 -0.42925,0.7425 -0.85851,1.485 -1.30078,2.25 -0.45761,0.5775 -0.91523,1.155 -1.38672,1.75 -0.99,0 -1.98,0 -3,0 1.98,-3.63 3.96,-7.26 6,-11 z" fill="#d0e2ec" id="path34" style="fill:#000000" />
    <path d="m 188.14881,2011.1731 c 2,4 2,4 1.375,6.1875 -1.375,1.8125 -1.375,1.8125 -5.375,2.8125 1.32,-2.97 2.64,-5.94 4,-9 z" fill="#207f46" id="path35" style="fill:#000000" />
    <path d="m 89.148815,1992.1731 c 0.66,0.33 1.32,0.66 2,1 -3.264027,4.982 -7.532115,6.9691 -13,9 3.493594,-3.5963 7.110981,-6.8345 11,-10 z" fill="#d0e2ee" id="path36" style="fill:#000000" />
    <path d="m 13.148815,1933.1731 c 0.33,0 0.66,0 1,0 -0.3125,3.375 -0.3125,3.375 -1,7 -0.99,0.66 -1.98,1.32 -3,2 -0.7500003,-1.6875 -0.7500003,-1.6875 -1.0000003,-4 1.8750003,-2.75 1.8750003,-2.75 4.0000003,-5 z" fill="#0f3e69" id="path37" style="fill:#000000" />
    <path d="m 19.148815,1915.1731 c 0.99,0.33 1.98,0.66 3,1 -1.65,3.63 -3.3,7.26 -5,11 -0.33,0 -0.66,0 -1,0 -0.348332,-4.8766 0.583143,-7.7705 3,-12 z" fill="#dcecf4" id="path38" style="fill:#000000" />
    <path d="m 31.148815,1874.1731 c 0.33,0 0.66,0 1,0 0.239694,5.6328 -0.614702,10.5454 -2,16 -0.33,0 -0.66,0 -1,0 -0.05424,-1.9163 -0.0929,-3.8331 -0.125,-5.75 -0.0232,-1.0673 -0.04641,-2.1347 -0.07031,-3.2344 0.190436,-2.9403 0.668612,-4.5392 2.195313,-7.0156 z" fill="#c4d8ec" id="path39" style="fill:#000000" />
    <path d="m -221.85119,2005.1731 c 0.99,0.33 1.98,0.66 3,1 -2.64,2.64 -5.28,5.28 -8,8 -0.33,-1.32 -0.66,-2.64 -1,-4 0.99,0 1.98,0 3,0 0,-0.66 0,-1.32 0,-2 0.66,0 1.32,0 2,0 0.33,-0.99 0.66,-1.98 1,-3 z" fill="#d9edf6" id="path40" style="fill:#000000" />
    <path d="m 178.14881,2028.1731 c 0.66,0 1.32,0 2,0 -0.28359,1.4391 -0.57721,2.8763 -0.875,4.3125 -0.24363,1.2008 -0.24363,1.2008 -0.49218,2.4258 -0.63282,2.2617 -0.63282,2.2617 -2.63282,5.2617 -0.17835,-4.548 0.002,-7.8794 2,-12 z" fill="#c9ebd6" id="path41" style="fill:#000000" />
    <path d="m 29.148815,2024.1731 c 0,0.66 0,1.32 0,2 -5.080868,0.8468 -9.848284,1.0904 -15,1 0,-0.33 0,-0.66 0,-1 1.749149,-0.3377 3.499361,-0.67 5.25,-1 0.974531,-0.1856 1.949062,-0.3712 2.953125,-0.5625 2.796875,-0.4375 2.796875,-0.4375 6.796875,-0.4375 z" fill="#bfd2e5" id="path42" style="fill:#000000" />
    <path d="m 136.14881,1905.1731 c 0.33,0 0.66,0 1,0 0.21193,5.1921 -0.40873,9.1268 -2,14 -1.70332,-4.7314 -0.54707,-9.3588 1,-14 z" fill="#052a5a" id="path43" style="fill:#000000" />
    <path d="m 49.148815,1747.1731 c 0.33,0.99 0.66,1.98 1,3 -2.852762,2.932 -5.650798,5.6432 -9,8 1.363703,-2.9922 2.949081,-5.2902 5.125,-7.75 0.538828,-0.6136 1.077656,-1.2272 1.632812,-1.8594 0.614883,-0.6883 0.614883,-0.6883 1.242188,-1.3906 z" fill="#073464" id="path44" style="fill:#000000" />
    <path d="m 67.148815,1732.1731 c -0.625,1.875 -0.625,1.875 -2,4 -3.125,1.25 -3.125,1.25 -6,2 4.625,-6 4.625,-6 8,-6 z" fill="#1c4973" id="path45" style="fill:#000000" />
    <path d="m 319.14881,1997.1731 c 1.32,0.66 2.64,1.32 4,2 -3.465,2.97 -3.465,2.97 -7,6 0.77596,-3.1038 1.52681,-5.25 3,-8 z" fill="#1d7c44" id="path46" style="fill:#000000" />
    <path d="m 126.14881,1937.1731 c 1.1875,1.625 1.1875,1.625 2,4 -1.375,3.25 -1.375,3.25 -3,6 -0.66,0 -1.32,0 -2,0 0.60991,-3.5578 1.57837,-6.6828 3,-10 z" fill="#163c6b" id="path47" style="fill:#000000" />
    <path d="m -232.85119,2019.1731 c 0.68708,2.4907 1,4.3789 1,7 -1.32,-0.33 -2.64,-0.66 -4,-1 0,-3 0,-3 1.5,-4.6875 0.7425,-0.6497 0.7425,-0.6497 1.5,-1.3125 z" fill="#124675" id="path48" style="fill:#000000" />
    <path d="m -46.851185,1991.1731 c -0.33,0.99 -0.66,1.98 -1,3 -1.98,0 -3.96,0 -6,0 -0.33,0.66 -0.66,1.32 -1,2 -0.66,-0.66 -1.32,-1.32 -2,-2 3.729651,-2.0343 5.66905,-3 10,-3 z" fill="#053261" id="path49" style="fill:#000000" />
    <path d="m 349.14881,1975.1731 c 1.65,0 3.3,0 5,0 -1.93254,2.0246 -3.63158,3.4211 -6,5 -0.99,-0.33 -1.98,-0.66 -3,-1 1.32,-0.66 2.64,-1.32 4,-2 0,-0.66 0,-1.32 0,-2 z" fill="#15743a" id="path50" style="fill:#000000" />
    <path d="m 221.14881,1968.1731 c 0.99,0.33 1.98,0.66 3,1 -2.97,2.475 -2.97,2.475 -6,5 -0.33,-1.32 -0.66,-2.64 -1,-4 0.66,-0.33 1.32,-0.66 2,-1 0.66,0.33 1.32,0.66 2,1 0,-0.66 0,-1.32 0,-2 z" fill="#d3f1e0" id="path51" style="fill:#000000" />
    <path d="m 36.148815,1756.1731 c 0.99,0.33 1.98,0.66 3,1 -3.465,2.97 -3.465,2.97 -7,6 0,-1.32 0,-2.64 0,-4 1.8125,-1.8125 1.8125,-1.8125 4,-3 z" fill="#e7f8fc" id="path52" style="fill:#000000" />
    <path d="m 172.14881,2297.1731 c 1.65,0 3.3,0 5,0 -1.65,1.98 -3.3,3.96 -5,6 -1,-3 -1,-3 0,-6 z" fill="#15753e" id="path53" style="fill:#000000" />
    <path d="m 241.14881,2235.1731 c 0.66,0.33 1.32,0.66 2,1 -1.485,2.475 -1.485,2.475 -3,5 -1.32,-0.33 -2.64,-0.66 -4,-1 1.65,-1.65 3.3,-3.3 5,-5 z" fill="#c6ead5" id="path54" style="fill:#000000" />
    <path d="m 300.14881,2026.1731 c 1,2 1,2 0.3125,4.5 -1.46817,2.7965 -2.40553,3.4341 -5.3125,4.5 1.24918,-3.4592 2.67528,-6.1469 5,-9 z" fill="#c8f0d8" id="path55" style="fill:#000000" />
    <path d="m 246.14881,1954.1731 c -5.75,4 -5.75,4 -8,4 0,-0.99 0,-1.98 0,-3 4.625,-2.125 4.625,-2.125 8,-1 z" fill="#d6f5e4" id="path56" style="fill:#000000" />
    <path d="m 209.14881,2266.1731 c 0.33,0.99 0.66,1.98 1,3 -1.65,1.32 -3.3,2.64 -5,4 -0.66,-0.33 -1.32,-0.66 -2,-1 1.98,-1.98 3.96,-3.96 6,-6 z" fill="#c9efd7" id="path57" style="fill:#000000" />
    <path d="m 214.14881,2261.1731 c 0.99,0.66 1.98,1.32 3,2 -1.8125,1.5625 -1.8125,1.5625 -4,3 -0.99,-0.33 -1.98,-0.66 -3,-1 1.32,-1.32 2.64,-2.64 4,-4 z" fill="#ccebd5" id="path58" style="fill:#000000" />
    <path d="m 328.14881,1990.1731 c 0.99,0.33 1.98,0.66 3,1 -1.65,1.65 -3.3,3.3 -5,5 -0.66,-0.99 -1.32,-1.98 -2,-3 0.99,-0.33 1.98,-0.66 3,-1 0.33,-0.66 0.66,-1.32 1,-2 z" fill="#1c7d43" id="path59" style="fill:#000000" />
    <path d="m 274.14881,1942.1731 c 0,0.99 0,1.98 0,3 -2.875,0.625 -2.875,0.625 -6,1 -0.66,-0.66 -1.32,-1.32 -2,-2 2.64,-0.66 5.28,-1.32 8,-2 z" fill="#207d46" id="path60" style="fill:#000000" />
  </g>
</svg>
