<?xml version="1.0" encoding="UTF-8" standalone="no"?>
<svg version="1.1" width="32pt" height="32pt" id="svg33" viewBox="0 0 32 32" xmlns="http://www.w3.org/2000/svg" xmlns:svg="http://www.w3.org/2000/svg">
  <defs id="defs37" />
  <g id="g1" transform="matrix(0.1282869,0,0,0.1282869,-38.719501,-13.904478)">
    <path d="m 449.2141,162.9875 h 64.3303 v 32.2706 h -64.3303 z" style="fill:#000000;fill-rule:evenodd" id="path2" />
    <path d="m 356.3845,162.5173 h 29.0966 c 18.0201,0 34.39,7.3601 46.2476,19.2168 11.8567,11.8576 19.2168,28.2271 19.2168,46.2471 v 76.4846 h -33.2521 v -76.4846 c 0,-8.84 -3.6289,-16.8903 -9.4752,-22.7366 -5.8468,-5.8463 -13.8966,-9.4752 -22.7371,-9.4752 h -29.0966 z" style="fill:#000000;fill-rule:evenodd" id="path4" />
    <path d="m 405.5263,257.3223 v 39.7599 c 0,16.7229 -6.8287,31.9134 -17.8302,42.9143 -11.001,11.0015 -26.1914,17.8302 -42.9143,17.8302 h -3.7451 v -33.7471 h 3.7451 c 7.406,0 14.1525,-3.0425 19.0537,-7.9437 4.9011,-4.9012 7.9436,-11.6476 7.9436,-19.0537 v -39.7599 z" style="fill:#000000;fill-rule:evenodd" id="path6" />
    <path d="m 434.7526,108.3858 c 13.083,0 23.6889,10.6059 23.6889,23.6884 0,13.0831 -10.6059,23.689 -23.6889,23.689 -13.0826,0 -23.6885,-10.6059 -23.6885,-23.689 0,-13.0825 10.6059,-23.6884 23.6885,-23.6884 z" style="fill:#000000;fill-rule:evenodd" id="path8" />
    <path d="m 339.5357,210.0229 h 64.3304 v 32.2706 h -64.3304 z" style="fill:#000000;fill-rule:evenodd" id="path10" />
  </g>
</svg>
