<svg viewBox="-0.006108155 -0.0076537002 180.58001 80" version="1.1" id="svg1"  xmlns="http://www.w3.org/2000/svg" xmlns:svg="http://www.w3.org/2000/svg">
  <defs id="defs1" />
  <g id="Layer_2" data-name="Layer 2" transform="matrix(1.10746,0,0,1.10746,6.563554e-4,5.000823)" style="fill:#000000">
    <g id="Layer_1-2" data-name="Layer 1" style="fill:#000000">
      <path class="cls-1" d="m 26.92,47 c -0.05,0.18 -0.24,0.27 -0.56,0.27 h -6.17 a 1.24,1.24 0 0 1 -1,-0.48 L 9,33.78 6.17,36.49 V 46.55 A 0.61,0.61 0 0 1 5.48,47.24 H 0.69 A 0.61,0.61 0 0 1 0,46.55 V 0.69 A 0.61,0.61 0 0 1 0.69,0 H 5.48 A 0.61,0.61 0 0 1 6.17,0.69 V 28.93 L 18.38,16.58 a 1.44,1.44 0 0 1 1,-0.49 h 6.39 a 0.54,0.54 0 0 1 0.55,0.35 0.59,0.59 0 0 1 -0.07,0.63 L 13.32,29.55 26.78,46.27 A 0.65,0.65 0 0 1 26.92,47 Z m 25.01,0.24 h -4.79 c -0.51,0 -0.76,-0.23 -0.76,-0.69 v -1 A 12.77,12.77 0 0 1 38.54,47.84 11.28,11.28 0 0 1 31,45.16 9,9 0 0 1 27.88,38.09 q 0,-6.81 8.46,-9.23 A 61.55,61.55 0 0 1 46.4,27.19 5.47,5.47 0 0 0 40.48,21 14,14 0 0 0 32.57,23.77 c -0.41,0.24 -0.71,0.19 -0.9,-0.13 l -2.5,-3.54 c -0.23,-0.28 -0.16,-0.6 0.21,-1 a 19.32,19.32 0 0 1 11.1,-3.68 13.29,13.29 0 0 1 7.52,2.13 q 4.59,3.06 4.58,9.78 v 19.22 a 0.61,0.61 0 0 1 -0.65,0.69 z m -5.55,-14.5 q -6.8,0.7 -9.3,1.81 Q 33.69,36 34,38.71 a 3.49,3.49 0 0 0 1.53,2.46 5.87,5.87 0 0 0 3,1.08 9.49,9.49 0 0 0 7.77,-2.57 z M 81,59.28 Q 77.19,63.2 70.26,63.2 a 15.41,15.41 0 0 1 -7.63,-2 c -0.51,-0.33 -1.11,-0.76 -1.81,-1.29 -0.7,-0.53 -1.5,-1.19 -2.43,-2 a 0.72,0.72 0 0 1 -0.07,-1 l 3.26,-3.26 a 0.76,0.76 0 0 1 0.56,-0.21 0.68,0.68 0 0 1 0.49,0.21 c 2.58,2.58 5.11,3.88 7.56,3.88 q 8.39,0 8.39,-8.74 V 45.16 A 13.1,13.1 0 0 1 69.91,47.87 12.48,12.48 0 0 1 59.36,42.8 18.16,18.16 0 0 1 56,31.63 a 18,18 0 0 1 3.2,-10.82 12.19,12.19 0 0 1 10.61,-5.34 13.93,13.93 0 0 1 8.74,2.71 v -1.39 a 0.62,0.62 0 0 1 0.69,-0.7 h 4.79 a 0.62,0.62 0 0 1 0.7,0.7 v 31 Q 84.76,55.36 81,59.28 Z M 78.58,26 q -1.74,-4.44 -8,-4.44 -8.11,0 -8.11,10.12 0,5.63 2.7,8.19 a 7.05,7.05 0 0 0 5.21,2 q 6.51,0 8.25,-4.44 z m 35.01,33.28 q -3.78,3.91 -10.72,3.92 a 15.44,15.44 0 0 1 -7.63,-2 q -0.76,-0.49 -1.8,-1.29 c -0.7,-0.53 -1.51,-1.19 -2.43,-2 a 0.7,0.7 0 0 1 -0.07,-1 l 3.26,-3.26 a 0.74,0.74 0 0 1 0.55,-0.21 0.67,0.67 0 0 1 0.49,0.21 c 2.59,2.58 5.11,3.88 7.56,3.88 q 8.4,0 8.4,-8.74 V 45.16 A 13.14,13.14 0 0 1 102.52,47.87 12.46,12.46 0 0 1 92,42.8 18.09,18.09 0 0 1 88.67,31.63 a 18,18 0 0 1 3.19,-10.82 12.21,12.21 0 0 1 10.61,-5.34 14,14 0 0 1 8.75,2.71 v -1.39 a 0.62,0.62 0 0 1 0.69,-0.7 h 4.79 a 0.62,0.62 0 0 1 0.69,0.7 v 31 q -0.02,7.57 -3.8,11.49 z M 111.2,26 q -1.74,-4.44 -8,-4.44 -8.2,-0.05 -8.2,10.07 0,5.63 2.71,8.19 a 7,7 0 0 0 5.2,2 q 6.53,0 8.26,-4.44 z M 128,47.24 h -4.78 a 0.62,0.62 0 0 1 -0.7,-0.69 V 0.69 A 0.62,0.62 0 0 1 123.22,0 H 128 a 0.61,0.61 0 0 1 0.7,0.69 v 45.86 a 0.61,0.61 0 0 1 -0.7,0.69 z m 34.91,-14.08 a 0.62,0.62 0 0 1 -0.7,0.69 h -22.54 a 8.87,8.87 0 0 0 2.91,5.69 10.63,10.63 0 0 0 7.15,2.46 11.64,11.64 0 0 0 6.86,-2.15 c 0.42,-0.28 0.77,-0.28 1,0 l 3.26,3.33 c 0.37,0.37 0.37,0.69 0,1 a 18.76,18.76 0 0 1 -11.58,3.75 16,16 0 0 1 -11.8,-4.72 16.2,16.2 0 0 1 -4.57,-11.86 16,16 0 0 1 4.51,-11.52 14.36,14.36 0 0 1 10.82,-4.3 A 14.07,14.07 0 0 1 158.88,20 15,15 0 0 1 163,31.63 Z M 153.82,23 a 8.18,8.18 0 0 0 -5.69,-2.15 8.06,8.06 0 0 0 -5.48,2.08 9.24,9.24 0 0 0 -3,5.41 h 16.71 A 7,7 0 0 0 153.82,23 Z" id="path1" style="fill:#000000" />
    </g>
  </g>
</svg>
