<?xml version="1.0" encoding="UTF-8" standalone="no"?>
<!-- Uploaded to: SVG Repo, www.svgrepo.com, Generator: SVG Repo Mixer Tools -->

<svg fill="#000000" width="32" height="32" viewBox="0 0 1.28 1.28" version="1.1" id="svg1" sodipodi:docname="kaggle.svg" inkscape:version="1.4-beta2 (9aaf4f34, 2024-07-30)" xmlns:inkscape="http://www.inkscape.org/namespaces/inkscape" xmlns:sodipodi="http://sodipodi.sourceforge.net/DTD/sodipodi-0.dtd" xmlns="http://www.w3.org/2000/svg" xmlns:svg="http://www.w3.org/2000/svg">
  <defs id="defs1" />
  <sodipodi:namedview id="namedview1" pagecolor="#ffffff" bordercolor="#000000" borderopacity="0.25" inkscape:showpageshadow="2" inkscape:pageopacity="0.0" inkscape:pagecheckerboard="0" inkscape:deskcolor="#d1d1d1" inkscape:zoom="2.2714409" inkscape:cx="-13.207476" inkscape:cy="26.635076" inkscape:window-width="1440" inkscape:window-height="790" inkscape:window-x="0" inkscape:window-y="0" inkscape:window-maximized="1" inkscape:current-layer="svg1" />
  <path d="m 1.0039866,1.27248 c -10e-4,0.0048 -0.00624,0.00752 -0.0149999,0.00752 h -0.16732 c -0.00996,0 -0.01872,-0.00436 -0.02624,-0.01312 l -0.27628,-0.35148 -0.07728,0.07312 V 1.2612 c 0,0.01252 -0.00604,0.01876 -0.01852,0.01876 h -0.1298 c -0.01248,0 -0.01876,-0.00624 -0.01876,-0.01876 V 0.01876 c 0,-0.01232 0.00628,-0.01876 0.01876,-0.01876 h 0.1298 c 0.01248,0 0.01852,0.00644 0.01852,0.01876 v 0.76496 l 0.33084,-0.33436 c 0.00896,-0.00896 0.01772,-0.01312 0.02644,-0.01312 h 0.17276 c 0.00768,0 0.01268,0.00308 0.0152,0.00956 0.00252,0.00796 0.00188,0.01356 -0.00188,0.01668 l -0.3496,0.33836 0.36459995,0.45372 c 0.005,0.00564 0.00624,0.01104 0.00372,0.0192 z" id="path1" style="stroke-width:0.04" />
</svg>
