<?xml version="1.0" encoding="UTF-8" standalone="no"?>
<!DOCTYPE svg PUBLIC "-//W3C//DTD SVG 1.1//EN" "http://www.w3.org/Graphics/SVG/1.1/DTD/svg11.dtd">
<!-- Created with Vectornator (http://vectornator.io/) -->
<svg height="100%" stroke-miterlimit="10" style="fill-rule:nonzero;clip-rule:evenodd;stroke-linecap:round;stroke-linejoin:round;" version="1.1" viewBox="0 0 200 80" width="100%" xml:space="preserve" xmlns="http://www.w3.org/2000/svg" xmlns:xlink="http://www.w3.org/1999/xlink">
<defs/>
<path d="M0 0L200 0L200 80L0 80L0 0Z" fill="#000000" fill-opacity="0" fill-rule="nonzero" opacity="1" stroke="none"/>
<g id="Sem-Título">
<path d="M0 20.8L0 59.2L38.3 59.2L38.3 20.8L0 20.8ZM11.8 30.4L16.45 30.4L16.45 39.25L21.35 30.4L26.5 30.4L21.15 40L26.5 49.6L21.35 49.6L16.45 40.7L16.45 49.6L11.8 49.6L11.8 30.4ZM40.4 20.8L40.4 59.2L78.7 59.2L78.7 20.8L40.4 20.8ZM56.6 30.4L62.55 30.4L68.8 49.6L63.7 49.6L62.9 46.8L56.1 46.8L55.25 49.6L50.3 49.6L56.6 30.4ZM80.85 20.8L80.85 59.2L119.15 59.2L119.15 20.8L80.85 20.8ZM91.4 30.4L96.95 30.4L100.05 36.3L103.1 30.4L108.55 30.4L102.35 41.1C102.35 41.1 102.35 49.6 102.35 49.6L97.7 49.6L97.7 41.1L91.4 30.4ZM121.25 20.8L121.25 59.2L159.55 59.2L159.55 20.8L121.25 20.8ZM137.45 30.4L143.4 30.4L149.65 49.6L144.55 49.6L143.75 46.8L136.95 46.8L136.1 49.6L131.15 49.6L137.45 30.4ZM161.7 20.8L161.7 59.2L200 59.2L200 20.8L161.7 20.8ZM173.5 30.4L178.15 30.4L178.15 39.25L183.05 30.4L188.2 30.4L182.85 40L188.2 49.6L183.05 49.6L178.15 40.7L178.15 49.6L173.5 49.6L173.5 30.4ZM59.5 35.9L57.25 43.05L61.75 43.05L59.5 35.9ZM140.35 35.9L138.1 43.05L142.6 43.05C142.6 43.05 140.35 35.9 140.35 35.9Z" fill="#000000" fill-rule="nonzero" opacity="1" stroke="none"/>
</g>
</svg>
