<?xml version="1.0" encoding="utf-8"?>
<!-- Generator: Adobe Illustrator 23.0.6, SVG Export Plug-In . SVG Version: 6.00 Build 0)  -->
<svg version="1.1" id="Camada_1" xmlns="http://www.w3.org/2000/svg" xmlns:xlink="http://www.w3.org/1999/xlink" x="0px" y="0px"
	 viewBox="0 0 300 120" style="enable-background:new 0 0 300 120;" xml:space="preserve">
<title>kickstarter</title>
<path d="M272.9,52.4v16.4c0,3.9,3.1,7.1,7,7.1c3,0.1,5.6-1.9,6.5-4.7l0.7,1.3c1.3,2.1,3.5,3.4,6,3.4c3.8,0,6.9-3.1,6.9-6.9
	c0-1.3-0.4-2.6-1.1-3.7l-2.8-4.3c2.1-1.6,3.3-4.2,3.2-6.8c0-5.3-4.3-9.6-9.6-9.6c-0.1,0-0.2,0-0.2,0h-9.1
	C275.5,44.6,272.9,47.3,272.9,52.4"/>
<path d="M270.8,69.9c0.1-2.8-1.8-5.2-4.6-5.8c1.3-0.9,2-2.3,1.9-3.8c0.1-1.5-0.6-3-1.9-3.8c2.8-0.5,4.7-3,4.6-5.8c0-3.3-2.7-6-6-6
	h-10.9c-5,0-7.7,2.7-7.7,7.8v15.7c0,5.2,2.7,7.8,7.7,7.8h10.9c3.3,0,6-2.6,6-5.9C270.8,70,270.8,70,270.8,69.9"/>
<path d="M237.8,68.9V58.1c3.7-0.3,6.5-3.5,6.2-7.2c-0.3-3.5-3.1-6.2-6.6-6.2h-14.2c-3.7,0-6.7,2.9-6.7,6.6c0,0,0,0.1,0,0.1
	c0,3.6,2.8,6.5,6.4,6.7v10.8c0.2,4.1,3.7,7.3,7.8,7.1C234.6,75.7,237.6,72.7,237.8,68.9"/>
<path d="M188.9,52.4v16.4c0,3.9,3.1,7.1,7,7.1c3,0.1,5.6-1.9,6.5-4.7l0.7,1.3c1.3,2.1,3.5,3.4,6,3.4c3.8,0,6.9-3.1,6.9-6.9
	c0-1.3-0.4-2.6-1.1-3.7l-2.8-4.3c2.1-1.6,3.3-4.2,3.2-6.8c0-5.3-4.3-9.6-9.6-9.6c-0.1,0-0.2,0-0.2,0h-9.1
	C191.6,44.6,188.9,47.3,188.9,52.4"/>
<path d="M171.6,70c1.8,3.7,4.3,5.4,7.4,5.4c5.6,0,9.5-5,7.1-10.7l-6.4-14.9c-1.6-3.7-3.9-5.7-8-5.7s-6.3,2-7.9,5.7l-6.4,14.9
	c-2.5,5.7,1.5,10.7,7,10.7C167.2,75.4,169.8,73.7,171.6,70"/>
<path d="M153.3,68.9V58.1c3.7-0.1,6.6-3.2,6.6-6.9s-3.2-6.6-6.9-6.5l0,0h-14.2c-3.7,0-6.7,2.9-6.7,6.6c0,0,0,0.1,0,0.1
	c0,3.6,2.8,6.5,6.4,6.7v10.8c0.3,4.1,3.8,7.2,7.9,7C150,75.6,153,72.6,153.3,68.9"/>
<path id="Shape-Copy-7" d="M132,65.8c0-3.1-1.6-5.3-3.9-7.4l-1.9-1.7c2.8-0.4,4.7-2.3,4.7-5.1c0-4.7-3.7-7.4-11.6-7.4
	c-7.7,0-12.2,3.9-12.2,10c0,3.2,1.6,5.3,4,7.4l1.9,1.7l0,0c-3.5,0-6,2-6,5.2c0,4.6,3.9,7.4,12.1,7.4C127.2,75.9,132,72,132,65.8"/>
<path d="M105.4,68.4c0-1.5-0.5-2.9-1.3-4.1l-3.4-4.6l3.4-4.7c0.9-1.2,1.3-2.6,1.3-4.1c-0.1-3.8-3.2-6.9-7-6.8c0,0,0,0,0,0
	c-2.3,0-4.4,1.1-5.8,3L91,49.4c-0.7-3.2-3.5-5.4-6.7-5.3c-3.8,0-7,3-7,6.8c0,0,0,0.1,0,0.1v17.4c0,3.9,3.1,7,7,7
	c3.2,0.1,6-2,6.7-5.1l1.5,2.1c1.3,1.9,3.5,3,5.8,3C102.2,75.5,105.4,72.3,105.4,68.4C105.4,68.4,105.4,68.4,105.4,68.4"/>
<path d="M74.6,66.8c0-3.3-1.7-5.7-5-7c3.3-1.4,5-3.7,5-7c0-5-4.2-8.6-11-8.6c-8.4-0.2-15.4,6.4-15.6,14.8c0,0.3,0,0.5,0,0.8
	c-0.2,8.4,6.4,15.4,14.8,15.7c0.3,0,0.6,0,0.9,0C70.4,75.4,74.7,71.8,74.6,66.8"/>
<path d="M37.8,44.1c-4.2,0-7.5,3.3-7.6,7.5v16.3c0.2,4.2,3.7,7.4,7.8,7.3c4-0.1,7.1-3.3,7.3-7.3V51.6C45.4,47.4,42,44.1,37.8,44.1
	C37.9,44.1,37.9,44.1,37.8,44.1"/>
<path d="M28.2,68.4c0-1.5-0.5-2.9-1.3-4.1l-3.4-4.6l3.4-4.7c2.2-3.1,1.5-7.4-1.5-9.6c-1.2-0.9-2.7-1.3-4.1-1.3c-2.3,0-4.4,1.1-5.8,3
	l-1.7,2.3C13,46.2,10.2,44,7,44.1c-3.8,0-7,3-7,6.8c0,0,0,0,0,0.1v17.4c0,3.9,3.1,7,7,7c3.2,0.1,6-2,6.7-5.1l1.5,2.1
	c2.3,3.2,6.8,3.9,10,1.6C27,72.7,28.1,70.7,28.2,68.4"/>
</svg>
