<svg xml:space="preserve" width="32" height="32" xmlns="http://www.w3.org/2000/svg">
  <path d="M30.412 24.841c0-1.533-.51-2.964-1.329-4.19l-3.475-4.702 3.475-4.804c2.25-3.169 1.534-7.564-1.533-9.813C26.324.412 24.79.003 23.36.003c-2.351 0-4.498 1.125-5.929 3.067l-1.738 2.35c-.817-3.27-3.68-5.519-6.95-5.417-3.884 0-7.155 3.067-7.155 6.95v17.888a7.111 7.111 0 0 0 7.155 7.156c3.27.102 6.133-2.045 6.848-5.213l1.533 2.146c2.351 3.27 6.95 3.986 10.222 1.635 1.84-1.328 2.964-3.373 3.066-5.724" style="stroke-width:1.02215;fill:#000"/>
</svg>