<?xml version="1.0" encoding="UTF-8" standalone="no"?>
<!-- Generator: Adobe Illustrator 23.0.6, SVG Export Plug-In . SVG Version: 6.00 Build 0)  -->

<svg version="1.1" id="Camada_1" x="0px" y="0px" viewBox="0 0 32 32" xml:space="preserve" sodipodi:docname="kickstarter.svg" width="32" height="32" inkscape:version="1.4-beta2 (9aaf4f34, 2024-07-30)" xmlns:inkscape="http://www.inkscape.org/namespaces/inkscape" xmlns:sodipodi="http://sodipodi.sourceforge.net/DTD/sodipodi-0.dtd" xmlns="http://www.w3.org/2000/svg" xmlns:svg="http://www.w3.org/2000/svg" xmlns:rdf="http://www.w3.org/1999/02/22-rdf-syntax-ns#" xmlns:cc="http://creativecommons.org/ns#" xmlns:dc="http://purl.org/dc/elements/1.1/"><defs id="defs10" /><sodipodi:namedview id="namedview10" pagecolor="#ffffff" bordercolor="#000000" borderopacity="0.25" inkscape:showpageshadow="2" inkscape:pageopacity="0.0" inkscape:pagecheckerboard="0" inkscape:deskcolor="#d1d1d1" inkscape:zoom="3.8291515" inkscape:cx="8.6180972" inkscape:cy="36.692202" inkscape:window-width="1440" inkscape:window-height="872" inkscape:window-x="0" inkscape:window-y="0" inkscape:window-maximized="1" inkscape:current-layer="Camada_1" />
<title id="title1">kickstarter</title>










<path d="m 30.412251,24.841482 c 0,-1.533218 -0.511073,-2.964222 -1.328789,-4.190796 l -3.475295,-4.70187 3.475295,-4.804084 C 31.332182,7.9760809 30.61668,3.5808559 27.550244,1.3321359 26.323669,0.41220485 24.790451,0.00334685 23.359447,0.00334685 c -2.350935,0 -4.49744,1.12436005 -5.928444,3.06643605 l -1.737646,2.350935 C 14.87564,2.1498519 12.013633,-0.09886815 8.7427673,0.00334685 c -3.884153,0 -7.1550185,3.06643605 -7.1550185,6.95058905 0,0 0,0 0,0.102214 V 24.841482 c 0,3.986367 3.1686509,7.155019 7.1550185,7.155019 3.2708657,0.102214 6.1328727,-2.044291 6.8483737,-5.212942 l 1.53322,2.146505 c 2.350933,3.270866 6.950588,3.986367 10.221453,1.635433 1.839862,-1.328789 2.964222,-3.37308 3.066437,-5.724015" id="path10" style="stroke-width:1.02215;fill:#000000" />
<metadata id="metadata10"><rdf:RDF><cc:Work rdf:about=""><dc:title>kickstarter</dc:title></cc:Work></rdf:RDF></metadata></svg>
