<?xml version="1.0" encoding="UTF-8" standalone="no"?>
<svg viewBox="0 0 32 32" id="kwai" version="1.1" sodipodi:docname="kwai.svg" width="32" height="32" inkscape:version="1.4-beta2 (9aaf4f34, 2024-07-30)" xmlns:inkscape="http://www.inkscape.org/namespaces/inkscape" xmlns:sodipodi="http://sodipodi.sourceforge.net/DTD/sodipodi-0.dtd" xmlns="http://www.w3.org/2000/svg" xmlns:svg="http://www.w3.org/2000/svg">
  <defs id="defs2">
    <inkscape:path-effect effect="powerclip" message="" id="path-effect7" is_visible="true" lpeversion="1" inverse="true" flatten="false" hide_clip="false" />
    <clipPath clipPathUnits="userSpaceOnUse" id="clipPath7">
      <path fill="#ffffff" fill-rule="evenodd" d="m 30.538261,147.47545 -5.11,-2.89 c -1.43,-0.81 -3.17,-0.79 -4.59,0.03 -1.41,0.83 -2.28,2.34 -2.28,3.98 v 9.07 c 0,1.64 0.87,3.15 2.28,3.98 1.42,0.83 3.16,0.84 4.59,0.03 l 5.11,-2.89 c 0.37,0.98 0.95,1.89 1.71,2.65 1.41,1.41 3.32,2.2 5.3,2.2 h 11 c 1.99,0 3.9,-0.79 5.3,-2.2 1.41,-1.41 2.2,-3.32 2.2,-5.3 v -6 c 0,-1.99 -0.79,-3.9 -2.2,-5.3 -1.41,-1.41 -3.32,-2.2 -5.3,-2.2 h -11 c -1.99,0 -3.9,0.79 -5.3,2.2 -0.76,0.76 -1.34,1.66 -1.71,2.65 v 0 z m 3.51,8.65 v -6 c 0,-0.93 0.37,-1.82 1.03,-2.48 0.66,-0.66 1.55,-1.03 2.47,-1.03 h 11 c 0.93,0 1.82,0.37 2.47,1.03 0.66,0.66 1.03,1.55 1.03,2.48 v 6 c 0,0.93 -0.37,1.82 -1.03,2.47 -0.66,0.66 -1.55,1.03 -2.47,1.03 h -11 c -0.93,0 -1.82,-0.37 -2.47,-1.03 -0.66,-0.66 -1.03,-1.55 -1.03,-2.47 z m -4,-4.33 -6.6,-3.73 c -0.19,-0.11 -0.42,-0.1 -0.6,0 -0.19,0.11 -0.3,0.31 -0.3,0.52 v 9.07 c 0,0.22 0.11,0.42 0.3,0.52 0.19,0.11 0.42,0.11 0.6,0 l 6.6,-3.73 v -2.67 0 z m 10.64,-14.32 c 1.59,2.21 4.18,3.65 7.11,3.65 4.83,0 8.75,-3.92 8.75,-8.75 0,-4.83 -3.92,-8.75 -8.75,-8.75 -2.33,0 -4.46,0.92 -6.03,2.41 -1.74,-3.12 -5.06,-5.23 -8.88,-5.23 -5.61,0 -10.16,4.55 -10.16,10.16 0,5.61 4.55,10.16 10.16,10.16 3.13,0 5.93,-1.42 7.8,-3.65 z m -7.8,-12.66 c 3.4,0 6.16,2.76 6.16,6.16 0,3.4 -2.76,6.16 -6.16,6.16 -3.4,0 -6.16,-2.76 -6.16,-6.16 0,-3.4 2.76,-6.16 6.16,-6.16 z m 14.91,2.82 c 2.62,0 4.75,2.13 4.75,4.75 0,2.62 -2.13,4.75 -4.75,4.75 -2.62,0 -4.75,-2.13 -4.75,-4.75 0,-2.62 2.13,-4.75 4.75,-4.75 z" id="path7" style="display:none" />
      <path id="lpe_path-effect7" class="powerclip" d="M 4.5482609,109.22545 H 70.548261 v 66 H 4.5482609 Z m 25.9900001,38.25 -5.11,-2.89 c -1.43,-0.81 -3.17,-0.79 -4.59,0.03 -1.41,0.83 -2.28,2.34 -2.28,3.98 v 9.07 c 0,1.64 0.87,3.15 2.28,3.98 1.42,0.83 3.16,0.84 4.59,0.03 l 5.11,-2.89 c 0.37,0.98 0.95,1.89 1.71,2.65 1.41,1.41 3.32,2.2 5.3,2.2 h 11 c 1.99,0 3.9,-0.79 5.3,-2.2 1.41,-1.41 2.2,-3.32 2.2,-5.3 v -6 c 0,-1.99 -0.79,-3.9 -2.2,-5.3 -1.41,-1.41 -3.32,-2.2 -5.3,-2.2 h -11 c -1.99,0 -3.9,0.79 -5.3,2.2 -0.76,0.76 -1.34,1.66 -1.71,2.65 v 0 z m 3.51,8.65 c 0,0.92 0.37,1.81 1.03,2.47 0.65,0.66 1.54,1.03 2.47,1.03 h 11 c 0.92,0 1.81,-0.37 2.47,-1.03 0.66,-0.65 1.03,-1.54 1.03,-2.47 v -6 c 0,-0.93 -0.37,-1.82 -1.03,-2.48 -0.65,-0.66 -1.54,-1.03 -2.47,-1.03 h -11 c -0.92,0 -1.81,0.37 -2.47,1.03 -0.66,0.66 -1.03,1.55 -1.03,2.48 z m -4,-4.33 -6.6,-3.73 c -0.19,-0.11 -0.42,-0.1 -0.6,0 -0.19,0.11 -0.3,0.31 -0.3,0.52 v 9.07 c 0,0.22 0.11,0.42 0.3,0.52 0.19,0.11 0.42,0.11 0.6,0 l 6.6,-3.73 v -2.67 0 z m 10.64,-14.32 c 1.59,2.21 4.18,3.65 7.11,3.65 4.83,0 8.75,-3.92 8.75,-8.75 0,-4.83 -3.92,-8.75 -8.75,-8.75 -2.33,0 -4.46,0.92 -6.03,2.41 -1.74,-3.12 -5.06,-5.23 -8.88,-5.23 -5.61,0 -10.16,4.55 -10.16,10.16 0,5.61 4.55,10.16 10.16,10.16 3.13,0 5.93,-1.42 7.8,-3.65 z m -7.8,-12.66 c -3.4,0 -6.16,2.76 -6.16,6.16 0,3.4 2.76,6.16 6.16,6.16 3.4,0 6.16,-2.76 6.16,-6.16 0,-3.4 -2.76,-6.16 -6.16,-6.16 z m 14.91,2.82 c -2.62,0 -4.75,2.13 -4.75,4.75 0,2.62 2.13,4.75 4.75,4.75 2.62,0 4.75,-2.13 4.75,-4.75 0,-2.62 -2.13,-4.75 -4.75,-4.75 z" />
    </clipPath>
  </defs>
  <sodipodi:namedview id="namedview2" pagecolor="#ffffff" bordercolor="#000000" borderopacity="0.25" inkscape:showpageshadow="2" inkscape:pageopacity="0.0" inkscape:pagecheckerboard="0" inkscape:deskcolor="#d1d1d1" inkscape:zoom="2.7035499" inkscape:cx="51.783769" inkscape:cy="66.764073" inkscape:window-width="1440" inkscape:window-height="872" inkscape:window-x="0" inkscape:window-y="0" inkscape:window-maximized="1" inkscape:current-layer="kwai" />
  <path fill="#ff3e13" fill-rule="evenodd" d="m 65.548261,122.22545 c 0,-4.42 -3.58,-8 -8,-8 h -40 c -4.42,0 -8.0000001,3.58 -8.0000001,8 v 40 c 0,4.42 3.5800001,8 8.0000001,8 h 40 c 4.42,0 8,-3.58 8,-8 z" id="path1" clip-path="url(#clipPath7)" inkscape:path-effect="#path-effect7" inkscape:original-d="m 65.548261,122.22545 c 0,-4.42 -3.58,-8 -8,-8 h -40 c -4.42,0 -8.0000001,3.58 -8.0000001,8 v 40 c 0,4.42 3.5800001,8 8.0000001,8 h 40 c 4.42,0 8,-3.58 8,-8 z" style="fill:#000000" transform="matrix(0.57142857,0,0,0.57142857,-5.4561491,-65.271686)" />
</svg>
