<svg width="32" height="32" xmlns="http://www.w3.org/2000/svg">
  <defs>
    <clipPath clipPathUnits="userSpaceOnUse" id="a">
      <path class="powerclip" d="M4.548 109.225h66v66h-66Zm25.99 38.25-5.11-2.89a4.614 4.614 0 0 0-4.59.03 4.618 4.618 0 0 0-2.28 3.98v9.07c0 1.64.87 3.15 2.28 3.98 1.42.83 3.16.84 4.59.03l5.11-2.89a7.501 7.501 0 0 0 7.01 4.85h11c1.99 0 3.9-.79 5.3-2.2a7.503 7.503 0 0 0 2.2-5.3v-6c0-1.99-.79-3.9-2.2-5.3a7.503 7.503 0 0 0-5.3-2.2h-11c-1.99 0-3.9.79-5.3 2.2-.76.76-1.34 1.66-1.71 2.65zm3.51 8.65c0 .92.37 1.81 1.03 2.47.65.66 1.54 1.03 2.47 1.03h11c.92 0 1.81-.37 2.47-1.03.66-.65 1.03-1.54 1.03-2.47v-6c0-.93-.37-1.82-1.03-2.48a3.464 3.464 0 0 0-2.47-1.03h-11c-.92 0-1.81.37-2.47 1.03-.66.66-1.03 1.55-1.03 2.48zm-4-4.33-6.6-3.73a.6.6 0 0 0-.9.52v9.07c0 .22.11.42.3.52.19.11.42.11.6 0l6.6-3.73v-2.67zm10.64-14.32a8.74 8.74 0 0 0 7.11 3.65c4.83 0 8.75-3.92 8.75-8.75s-3.92-8.75-8.75-8.75c-2.33 0-4.46.92-6.03 2.41-1.74-3.12-5.06-5.23-8.88-5.23-5.61 0-10.16 4.55-10.16 10.16s4.55 10.16 10.16 10.16c3.13 0 5.93-1.42 7.8-3.65zm-7.8-12.66c-3.4 0-6.16 2.76-6.16 6.16 0 3.4 2.76 6.16 6.16 6.16 3.4 0 6.16-2.76 6.16-6.16 0-3.4-2.76-6.16-6.16-6.16zm14.91 2.82c-2.62 0-4.75 2.13-4.75 4.75s2.13 4.75 4.75 4.75 4.75-2.13 4.75-4.75-2.13-4.75-4.75-4.75z"/>
    </clipPath>
  </defs>
  <path fill="#ff3e13" fill-rule="evenodd" d="M65.548 122.225c0-4.42-3.58-8-8-8h-40c-4.42 0-8 3.58-8 8v40c0 4.42 3.58 8 8 8h40c4.42 0 8-3.58 8-8z" clip-path="url(#a)" style="fill:#000" transform="matrix(.57143 0 0 .57143 -5.456 -65.272)"/>
</svg>