<?xml version="1.0" encoding="UTF-8"?><svg id="a" xmlns="http://www.w3.org/2000/svg" viewBox="0 0 197.09 80"><path d="m44.08,61.06l-2.3-6.31s-3.74,4.2-9.46,4.2c-4.99,0-8.54-4.34-8.54-11.3,0-8.93,4.47-12.15,8.93-12.15,6.37,0,8.41,4.14,10.18,9.46l2.3,7.23c2.3,7.03,6.64,12.74,19.18,12.74,9,0,15.11-2.76,15.11-9.99,0-5.85-3.35-8.93-9.59-10.38l-4.66-.99c-3.15-.79-4.14-2.1-4.14-4.27,0-2.5,1.97-3.94,5.12-3.94,3.48,0,5.39,1.31,5.65,4.4l7.23-.85c-.59-6.5-5.06-9.2-12.48-9.2-6.5,0-12.94,2.5-12.94,10.38,0,4.93,2.37,8.08,8.41,9.53l4.93,1.18c3.68.85,4.93,2.37,4.93,4.53,0,2.69-2.63,3.74-7.56,3.74-7.36,0-10.38-3.88-12.15-9.13l-2.37-7.23c-3.02-9.46-7.88-12.94-17.54-12.94-10.64,0-16.36,6.77-16.36,18.2s5.65,17.02,15.83,17.02c8.34-.07,12.29-3.94,12.29-3.94Zm-31.07-3.42c-.79.26-1.58.39-2.37.39-1.77,0-2.96-.79-2.96-2.89V15.53H0v41.39c0,5.45,3.74,7.69,8.21,7.69,1.58,0,3.09-.26,4.6-.66l.2-6.31Zm91.78-1.18c-1.91,1.31-3.48,1.97-5.65,1.97-2.76,0-4.27-1.45-4.27-4.99v-17.02h9.99v-5.98h-9.92v-8.01l-7.69.92v7.1h-4.86v5.98h4.86v18.59c0,6.7,3.88,9.85,10.12,9.85,3.09.07,6.11-.59,8.87-2.04l-1.45-6.37Zm6.64,2.63c0,2.96,2.43,5.39,5.39,5.39s5.39-2.43,5.39-5.39-2.43-5.39-5.39-5.39h-.07c-2.96,0-5.32,2.37-5.32,5.32,0,0,0,.07,0,.07Zm18.66-22.67v27.59h7.62v-27.59h8.54v-5.98h-8.54v-3.02c0-4.6,1.97-6.04,5.12-6.04,1.91,0,3.81.46,5.52,1.45l1.25-6.37c-2.3-.99-4.86-1.51-7.36-1.45-6.37,0-12.22,3.02-12.22,12.15v3.35h-4.86v5.98l4.93-.07h0Zm46.51.66c-.85-5.45-4.4-7.42-9.07-7.42s-8.61,2.1-10.38,7.23l-.92-6.44h-6.18v33.5h7.62v-18.85c0-6.44,3.35-8.93,6.9-8.93s5.26,2.5,5.26,6.44v21.42h7.56v-18.99c0-6.37,3.42-8.87,6.96-8.87s5.12,2.5,5.12,6.44v21.42h7.62v-24.11c0-7.16-4.2-10.25-9.79-10.25-4.73.07-8.93,2.17-10.71,7.42h0Z" style="stroke-width:0px;"/></svg>