<?xml version="1.0" encoding="UTF-8" standalone="no"?>
<!-- Uploaded to: SVG Repo, www.svgrepo.com, Generator: SVG Repo Mixer Tools -->

<svg height="32" width="32" version="1.1" id="Capa_1" viewBox="0 0 4.4878 4.4877999" xml:space="preserve" sodipodi:docname="lastfm-svgrepo-com (1).svg" inkscape:version="1.4-beta2 (9aaf4f34, 2024-07-30)" xmlns:inkscape="http://www.inkscape.org/namespaces/inkscape" xmlns:sodipodi="http://sodipodi.sourceforge.net/DTD/sodipodi-0.dtd" xmlns="http://www.w3.org/2000/svg" xmlns:svg="http://www.w3.org/2000/svg"><defs id="defs2" /><sodipodi:namedview id="namedview2" pagecolor="#ffffff" bordercolor="#000000" borderopacity="0.25" inkscape:showpageshadow="2" inkscape:pageopacity="0.0" inkscape:pagecheckerboard="0" inkscape:deskcolor="#d1d1d1" inkscape:zoom="0.14096951" inkscape:cx="354.68662" inkscape:cy="1003.7631" inkscape:window-width="1440" inkscape:window-height="790" inkscape:window-x="0" inkscape:window-y="0" inkscape:window-maximized="1" inkscape:current-layer="Capa_1" />
<path id="path96" style="fill:#000000;stroke-width:0.0399996" d="M 2.2439658,-2e-8 C 1.0046178,-2e-8 2.1866304e-5,1.00468 2.1866304e-5,2.24386 2.1866304e-5,3.48317 1.004614,4.48776 2.2439219,4.4878 3.4832298,4.4878 4.4877781,3.48317 4.4877781,2.24386 4.4877781,1.00468 3.4832337,-2e-8 2.2439658,-2e-8 Z M 3.1642954,1.34782 c 0.2654265,0.003 0.5170204,0.15334 0.6097695,0.44681 L 3.4364643,1.89674 C 3.3857443,1.74406 3.2284324,1.67855 3.1028736,1.69715 c -0.0224,0.004 -0.2198737,0.055 -0.2198737,0.19159 0,0.0819 0.088355,0.12292 0.3364722,0.19688 0.063649,0.019 0.1320986,0.0387 0.1989688,0.0633 0.033435,0.0123 0.066475,0.0258 0.098323,0.0411 0.095544,0.0459 0.1803586,0.10748 0.2329119,0.19915 0.035036,0.0611 0.055734,0.13558 0.055714,0.22762 0,0.21161 -0.116747,0.36974 -0.3360011,0.4563 -0.031322,0.0124 -0.064732,0.0233 -0.1001965,0.0327 -0.02151,0.006 -0.044599,0.01 -0.068642,0.0123 -0.024043,0.003 -0.04904,0.004 -0.074372,0.005 -0.050665,10e-4 -0.102664,1e-4 -0.1510235,1e-4 C 2.9563108,3.12319 2.8376349,3.11209 2.728,3.08529 2.5452752,3.04059 2.3876638,2.95245 2.2962397,2.79955 2.2271207,2.68359 2.1661227,2.55228 2.1102432,2.40496 1.9463248,1.9762 1.8148081,1.69461 1.4910512,1.69461 c -0.3328367,0 -0.52032114,0.21083 -0.52032114,0.64951 0,0.005 0.065122,0.47635 0.50939764,0.47635 0.2721973,0 0.4159525,-0.19192 0.4198725,-0.19744 l 0.1544419,0.3022 c -0.0047,0.008 -0.013369,0.0242 -0.031127,0.0447 -0.017758,0.0205 -0.044604,0.045 -0.085646,0.0685 -0.082084,0.047 -0.2209631,0.0902 -0.4575407,0.0902 -0.3171795,0 -0.55063244,-0.13755 -0.69418894,-0.32017 -0.1116551,-0.14203 -0.1689263,-0.31133 -0.1689263,-0.46434 0,-0.26406 0.055151,-0.46022 0.1404286,-0.60514 0.1023327,-0.1739 0.24804294,-0.27399 0.39386204,-0.32906 0.1215159,-0.0459 0.2431115,-0.0605 0.3397481,-0.0605 0.037095,0 0.072674,0.002 0.1068253,0.006 0.2390582,0.0284 0.4079911,0.15194 0.5345316,0.31327 0.072309,0.0922 0.1307773,0.19671 0.180584,0.30285 0.024903,0.0531 0.047642,0.10653 0.068861,0.15907 0.021219,0.0525 0.040916,0.10415 0.059746,0.15348 0.050719,0.13308 0.1060011,0.25075 0.1600406,0.34119 0.092039,0.15404 0.4226777,0.24749 0.6754753,0.18093 C 3.4042344,2.77261 3.452068,2.69744 3.452068,2.6168 3.452068,2.5214 3.376392,2.49364 3.1160341,2.41588 3.0541751,2.39738 2.9871696,2.37718 2.9214588,2.35178 2.8886038,2.33908 2.8560728,2.32508 2.8246698,2.30938 2.7147569,2.25428 2.6186597,2.17797 2.5708969,2.06167 2.5504269,2.01187 2.5388379,1.95465 2.5388379,1.88865 c 0,-0.26164 0.1997652,-0.48724 0.5112821,-0.53307 0.03806,-0.006 0.076259,-0.008 0.114177,-0.008 z" />
</svg>
