<svg id="Camada_1" data-name="Camada 1" xmlns="http://www.w3.org/2000/svg" viewBox="0 0 200 80"><path d="M14.8,10.37c-4.69,2.82-8.07,12.36-13.11,37C.14,54.88-.14,56.79.06,59.29c.35,5.29,2.26,8.87,5.56,10.38,4.41,2,10.73-.32,14.39-5.29l1.67-2.31.83,1.32A15.62,15.62,0,0,0,33.68,70.3c5.56.52,12.6-3.42,16.41-9.14l1-1.55.43,2C52.88,68,56.21,70.82,61.7,70.3c7.27-.67,11-5,14.94-17.76,1.75-5.65,3.06-8.63,4.14-9.54.91-.76,2.78.12,2.38,1.11-.2.36-.91,3-1.67,5.84-1.27,4.69-1.35,5.57-1.23,9.38.16,3.62.32,4.57,1.27,6.48,1.63,3.34,3.46,4.41,7.35,4.41,3.46,0,5.37-.79,8.19-3.42l1.75-1.59,1.91,2a8.05,8.05,0,0,0,4,2.62c5.76,1.71,10.49-.19,14.59-5.88l.83-1.15.44,1.79c1.27,5,5.12,6.95,10.81,5.24a9.33,9.33,0,0,0,4.41-2.9c3.26-3.26,4.45-5.84,9.38-20.07,1.19-3.45,2.34-6.75,2.54-7.31l.4-1,1.39,2c.8,1.08,1.87,2.71,2.43,3.62l1,1.71-2.86,3.06c-5,5.48-6.36,8.07-6.36,12.56a7.31,7.31,0,0,0,2.7,6.32c3.7,3.34,11,3.54,16.26.44,3.61-2.11,6.47-6.52,6.47-9.9,0-1.75-.91-4.37-3-8.63l-1.71-3.49,1.47-.92c.8-.47,2.11-1.27,2.91-1.79l1.51-.91v4.17c0,3.42.12,4.34.71,5.05.72.88.76.88,2.19.2A48.23,48.23,0,0,0,179,47.73c2.82-2.39,4.45-3.5,4.85-3.3,3.62,1.43,10.13,3.34,11.49,3.34,1.62,0,1.66,0,1.66-1.31s-1.23-4.42-3.69-9.82l-1-2.23,3.42-4.53c6.4-8.62,6-9.42-4.17-8.18-3,.35-5.45.59-5.49.55-1.23-1.83-5.6-7.35-6.91-8.78-3.22-3.5-4.25-2.47-6.4,6.36L171.51,25l-4.25,1.47c-6,2.07-7.75,3-7.91,4.3-.12,1.11,1.39,2.46,5.16,4.61,1,.55,1.87,1.19,1.79,1.35a13.71,13.71,0,0,1-2.94,1.87l-2.82,1.59-1.39-1.91c-.76-1-2.39-3.38-3.66-5.25-3.18-4.73-3.65-5.16-5.36-5.16-2.07,0-5.69,2.42-6.76,4.53-.44.91-2,6.08-3.58,11.56s-3.1,11-3.53,12.28c-1.59,4.53-3.94,7.59-5.65,7.31-1.51-.19-2-1.7-1.79-5.08.36-5.13,4.34-19,7-24.13,1.23-2.5,1.11-4.17-.44-5.48-1.11-1-1.55-1.07-3.53-.92a7.18,7.18,0,0,0-6,3.9c-.51.87-1,1.59-1.11,1.55a7.57,7.57,0,0,1-1.39-1.67,12.06,12.06,0,0,0-3.3-2.82c-4.45-2.39-9.34-1-13.91,3.93-5.32,5.77-7.75,12.36-8.23,22.5l-.19,4.49L96.16,61.4c-2,2.14-3.74,2.86-5.17,2.18C87.77,62,88.21,57.7,92.82,46.1c3.49-8.71,3.57-9.06,2.34-10.45-.83-1-1.19-1.12-3.3-1.08a15.66,15.66,0,0,0-4.09.64c-3.1,1.11-5.8.63-6.24-1.15a12.86,12.86,0,0,1,.28-3.62c.48-2.43.48-2.74-.24-4.06-.95-1.78-2.23-2.46-4.61-2.46a5.34,5.34,0,0,0-3.3,1c-1.55,1-4.61,1.4-4.61.56,0-.28.8-3.22,1.79-6.56s1.79-6.36,1.79-6.71c0-1.28-1.83-2.59-3.62-2.59-4.37,0-7.59,4.14-9.66,12.48l-.87,3.54-2.78.68c-4.26,1-7.51,2.9-8.19,4.76-.16.48-.52.32-1.55-.67C41.19,25.87,34.2,27.22,27.56,34a23.86,23.86,0,0,0-7.63,16.33c-.56,7-6.16,15-9.26,13.35-3.3-1.74-1.59-10.73,8-41.77,1.51-5,2.74-9.3,2.74-9.65a3.09,3.09,0,0,0-1-1.63C19.17,9.37,16.59,9.26,14.8,10.37ZM183.63,27.42c.88.44,1.67.44,4.09.08a18.06,18.06,0,0,1,3.18-.32,13.33,13.33,0,0,1-2,2.74c-2.94,3.46-3,3.86-1,7.67a28.58,28.58,0,0,1,1.51,3.22,16.66,16.66,0,0,1-2.9-1c-4.33-1.79-5-1.67-8.18,1.47L175.52,44l.28-3.58c.16-2.46.12-3.85-.2-4.45a13.2,13.2,0,0,0-3.73-2.54l-3.26-1.63,3.26-1a17.82,17.82,0,0,0,4-1.67,9.4,9.4,0,0,0,1.39-3.78c.4-1.75.76-3.38.88-3.69s1,.71,2.26,2.38A13.89,13.89,0,0,0,183.63,27.42ZM40.36,35c1.78,2.26-1.47,9.74-6.12,14-1.83,1.67-3.74,3.14-4.1,3.14-.83,0,.44-9,1.71-11.92C33.88,35.41,38.45,32.55,40.36,35Zm79.72.91a5.92,5.92,0,0,1,2.23,4.26,40.45,40.45,0,0,1-.8,5c-.44,2.11-1,5-1.19,6.48-.52,3.42-.95,4.49-3,7.63-3.42,5.21-6.6,6.08-8.59,2.31-1.27-2.43-1.27-8.71,0-13.24,2.11-7.51,6-13.31,8.87-13.31A4.51,4.51,0,0,1,120.08,35.88Zm-64.7.64c-.12.4-.92,3.7-1.75,7.31-1.47,6.32-1.63,6.76-3.78,10-2.74,4.09-6.2,7.63-8.86,9.1-4.61,2.5-8.58,1.07-9.93-3.54a7.89,7.89,0,0,1-.48-2.26S32,56.59,33.52,56c8.82-3.37,14.35-9.77,14.78-17.05l.2-3.1H52C55.22,35.84,55.58,35.92,55.38,36.52Zm17.25.32c1.83,1.94,1.35,7.79-1.23,15.22-2.47,6.95-4.89,10.81-7.32,11.6q-5.65,1.86-2.54-12.51c.64-2.87,2.66-10.74,3.77-14.63.2-.56.72-.68,3.3-.68C71.4,35.84,71.79,36,72.63,36.84Zm86.12,18.08a9.58,9.58,0,0,1,1.07,4.29c0,1.91-.07,2.27-1.19,3.26-2.54,2.27-7.31,1.87-8.66-.75s-.44-4.61,3.89-9.1l2-2.11.91,1.11A23.59,23.59,0,0,1,158.75,54.92Z"/></svg>