<svg width="32" height="32" xmlns="http://www.w3.org/2000/svg">
  <path d="M8.393.002 8.947 0h5.869c.845.002 1.69.002 2.535 0a1541.833 1541.833 0 0 1 3.27 0h1.244a361.438 361.438 0 0 1 2.003 0c2.223-.006 4.242.352 5.937 1.895l.148.133c1.252 1.18 1.948 2.99 2.025 4.685.014.55.012 1.1.01 1.651l.001.556a577.991 577.991 0 0 1 0 2.44V21.89a538.442 538.442 0 0 1 0 2.011c.004 2.236.004 2.236-.37 3.299l-.059.171c-.626 1.752-1.837 3.095-3.512 3.908-1.453.646-2.835.714-4.4.713h-.554a563.755 563.755 0 0 1-2.437.002H17.21l-2.71.002a1506.855 1506.855 0 0 1-4.356.003 373.554 373.554 0 0 1-2.009 0c-2.384.009-4.436-.429-6.195-2.142C.589 28.432.016 26.612.019 24.685v-.234a380.573 380.573 0 0 1-.002-1.327 1085.17 1085.17 0 0 1 0-2.449 4479.702 4479.702 0 0 1-.002-3.458c0-.907 0-1.815-.002-2.722a2289.871 2289.871 0 0 1-.002-4.371 538.801 538.801 0 0 1 0-2.018c-.006-2.22.326-4.224 1.884-5.91l.132-.148C3.693.276 6.103-.005 8.393.002Zm5.517 6.447c-1.173 1.68-1.361 4.432-1.642 6.418l-.138.024c-.458.087-.894.205-1.336.352l-.203.067a233.29 233.29 0 0 0-1.056.347l-.824.272c-.262.087-.524.172-.787.256l-.185.06-.342.11c-.42.136-.77.306-1.025.676-.118.33-.1.462.038.783.92 1.384 3.016 2.237 4.525 2.785.201.083.342.18.512.312h.15c.125.33.167.603.169.955v.147c.002.105.002.21.002.315l.003.501c.004.475.007.95.008 1.425a153.414 153.414 0 0 0 .008 1.204c-.033 1.201-.033 1.201.4 2.272.152.14.152.14.374.153.695-.096 1.294-.743 1.808-1.192.212-.183.212-.183.39-.31l.12-.096v-.15l.128-.052c.214-.12.356-.27.526-.447.264-.27.53-.522.82-.764.142-.13.269-.264.398-.408l.125-.136c.083-.09.163-.182.242-.276.12-.13.22-.218.374-.305.15.008.15.008.313.05l.18.047c.268.079.53.167.793.264a1625.447 1625.447 0 0 0 .527.189c2.057.825 2.057.825 4.217 1.19l.16.004c.206-.037.305-.103.451-.251.207-.874-.312-1.87-.662-2.645l-.105-.236c-.206-.462-.42-.92-.635-1.379l-.072-.153a109.214 109.214 0 0 0-.483-1.015l-.115-.241a2.14 2.14 0 0 1-.166-.675c.1-.184.194-.327.321-.49l.104-.137a151.482 151.482 0 0 0 .506-.66l.366-.474c.327-.423.647-.852.966-1.281l.406-.537.283-.376.135-.175c.308-.412.564-.806.574-1.336-.113-.294-.247-.364-.527-.504a4.365 4.365 0 0 0-1.33-.169l-.185.001c-.627.01-1.243.08-1.864.166-.185.026-.371.05-.557.074-.735.096-1.459.22-2.183.376l-.064-.171a1.93 1.93 0 0 0-.256-.45l-.1-.133-.107-.141-.225-.301-.112-.152a23.235 23.235 0 0 1-.442-.63c-1.196-1.868-1.196-1.868-2.874-3.246-.388-.043-.537.037-.82.299z"/>
  <path d="M15.253 10.702c.287.112.393.26.555.518a1990324.936 1990324.936 0 0 1 .242.376c.196.301.396.6.597.897l.124.187c.316.468.64.838 1.206.98.905.097 1.781-.043 2.677-.17.264-.036.528-.069.793-.101-.109.336-.297.57-.527.83a306.808 306.808 0 0 0-.336.388c-.267.31-.525.626-.779.946l-.155.193c-.298.394-.507.72-.442 1.225.184.715.57 1.38.908 2.032.187.364.341.703.435 1.102-.432-.117-.85-.26-1.266-.425l-.138-.054c-.19-.075-.378-.15-.566-.227-.817-.342-.817-.342-1.686-.338-.369.184-.643.472-.929.765l-.129.13c-.264.27-.517.545-.761.832a7.44 7.44 0 0 1-.719.735h-.149l.002-.126c.007-.436.011-.872.014-1.308l.007-.487.006-.702.005-.218c0-.46-.071-.804-.332-1.189-.137-.137-.137-.137-.304-.219l-.197-.107a56.391 56.391 0 0 0-1.126-.539c-.514-.24-1.013-.5-1.508-.776l.075-.224c.173-.064.336-.112.514-.156l.16-.041.506-.13c1.369-.272 1.369-.272 2.477-1.016.282-.7.384-1.47.499-2.211.03-.197.062-.394.094-.59l.04-.26c.03-.177.066-.348.113-.522Z"/>
</svg>