<?xml version="1.0" encoding="UTF-8"?><svg id="a" xmlns="http://www.w3.org/2000/svg" viewBox="0 0 170.88 80"><path d="m12.64,14.65c-4.01,2.41-6.9,10.56-11.2,31.62C.12,52.69-.12,54.32.05,56.45c.3,4.52,1.93,7.58,4.75,8.87,3.77,1.71,9.17-.27,12.3-4.52l1.43-1.97.71,1.13c2.16,3.28,5.65,5.43,9.54,5.9,4.75.44,10.77-2.92,14.02-7.81l.85-1.32.37,1.71c1.16,5.46,4.01,7.87,8.7,7.43,6.21-.57,9.4-4.27,12.77-15.18,1.5-4.83,2.61-7.37,3.54-8.15.78-.65,2.38.1,2.03.95-.17.31-.78,2.56-1.43,4.99-1.09,4.01-1.15,4.76-1.05,8.02.14,3.09.27,3.91,1.09,5.54,1.39,2.85,2.96,3.77,6.28,3.77,2.96,0,4.59-.68,7-2.92l1.5-1.36,1.63,1.71c.89,1.08,2.08,1.86,3.42,2.24,4.92,1.46,8.96-.16,12.47-5.02l.71-.98.38,1.53c1.09,4.27,4.37,5.94,9.24,4.48,1.47-.45,2.78-1.31,3.77-2.48,2.79-2.79,3.8-4.99,8.02-17.15,1.02-2.95,2-5.77,2.17-6.25l.34-.85,1.19,1.71c.68.92,1.6,2.32,2.08,3.09l.85,1.46-2.44,2.61c-4.27,4.68-5.43,6.9-5.43,10.73-.18,2.07.69,4.1,2.31,5.4,3.16,2.85,9.4,3.02,13.89.38,3.08-1.8,5.53-5.57,5.53-8.46,0-1.5-.78-3.73-2.56-7.37l-1.46-2.98,1.26-.79c.68-.4,1.8-1.09,2.49-1.53l1.29-.78v3.56c0,2.92.1,3.71.61,4.32.62.75.65.75,1.87.17,1.73-1.1,3.38-2.33,4.92-3.68,2.41-2.04,3.8-2.99,4.14-2.82,3.09,1.22,8.66,2.85,9.82,2.85,1.38,0,1.42,0,1.42-1.12s-1.05-3.78-3.15-8.39l-.85-1.91,2.92-3.87c5.47-7.37,5.13-8.05-3.56-6.99-2.56.3-4.66.5-4.69.47-1.05-1.56-4.79-6.28-5.9-7.5-2.75-2.99-3.63-2.11-5.47,5.43l-1.07,4.42-3.63,1.26c-5.13,1.77-6.62,2.56-6.76,3.67-.1.95,1.19,2.1,4.41,3.94.85.47,1.6,1.02,1.53,1.15-.77.64-1.61,1.17-2.51,1.6l-2.41,1.36-1.19-1.63c-.65-.85-2.04-2.89-3.13-4.49-2.72-4.04-3.12-4.41-4.58-4.41-1.77,0-4.86,2.07-5.78,3.87-.38.78-1.71,5.2-3.06,9.88s-2.65,9.4-3.02,10.49c-1.36,3.87-3.37,6.49-4.83,6.25-1.29-.16-1.71-1.45-1.53-4.34.31-4.38,3.71-16.24,5.98-20.62,1.05-2.14.95-3.56-.38-4.68-.95-.85-1.32-.91-3.02-.79-2.18.12-4.13,1.39-5.13,3.33-.44.74-.85,1.36-.95,1.32-.46-.42-.86-.9-1.19-1.43-.79-.97-1.74-1.78-2.82-2.41-3.8-2.04-7.98-.85-11.89,3.36-4.55,4.93-6.62,10.56-7.03,19.23l-.16,3.84-1.33,1.35c-1.71,1.83-3.2,2.44-4.42,1.86-2.75-1.35-2.38-5.02,1.56-14.94,2.98-7.44,3.05-7.74,2-8.93-.71-.85-1.02-.96-2.82-.92-1.18.03-2.36.21-3.49.55-2.65.95-4.96.54-5.33-.98-.07-1.04.01-2.08.24-3.09.41-2.08.41-2.34-.21-3.47-.81-1.52-1.91-2.1-3.94-2.1-1.01-.03-2,.27-2.82.85-1.32.85-3.94,1.2-3.94.48,0-.24.68-2.75,1.53-5.61s1.53-5.43,1.53-5.73c0-1.09-1.56-2.21-3.09-2.21-3.73,0-6.49,3.54-8.25,10.66l-.74,3.02-2.38.58c-3.64.85-6.42,2.48-7,4.07-.14.41-.44.27-1.32-.57-4.08-3.88-10.05-2.73-15.72,3.07-3.91,3.62-6.25,8.63-6.52,13.95-.48,5.98-5.26,12.82-7.91,11.41-2.82-1.49-1.36-9.17,6.84-35.69,1.29-4.27,2.34-7.95,2.34-8.25-.13-.54-.43-1.03-.85-1.39-1.06-1.08-3.26-1.17-4.79-.22Zm144.26,14.57c.75.38,1.43.38,3.49.07.9-.17,1.81-.26,2.72-.27-.47.85-1.04,1.64-1.71,2.34-2.51,2.96-2.56,3.3-.85,6.55.49.89.92,1.81,1.29,2.75-.85-.21-1.68-.49-2.48-.85-3.7-1.53-4.27-1.43-6.99,1.26l-2.4,2.32.24-3.06c.14-2.1.1-3.29-.17-3.8-.93-.9-2.01-1.64-3.19-2.17l-2.79-1.39,2.79-.85c1.19-.33,2.34-.81,3.42-1.43.62-.98,1.03-2.08,1.19-3.23.34-1.5.65-2.89.75-3.15s.85.61,1.93,2.03c.75,1.11,1.68,2.09,2.76,2.89Zm-122.42,6.48c1.52,1.93-1.26,8.32-5.23,11.96-1.56,1.43-3.2,2.68-3.5,2.68-.71,0,.38-7.69,1.46-10.19,1.73-4.11,5.64-6.55,7.27-4.46Zm68.12.78c1.12.89,1.81,2.21,1.91,3.64-.14,1.44-.37,2.86-.68,4.27-.38,1.8-.85,4.27-1.02,5.54-.44,2.92-.81,3.84-2.56,6.52-2.92,4.45-5.64,5.2-7.34,1.97-1.09-2.08-1.09-7.44,0-11.31,1.8-6.42,5.13-11.37,7.58-11.37.76.02,1.5.27,2.12.72v.03Zm-55.29.55c-.1.34-.79,3.16-1.5,6.25-1.26,5.4-1.39,5.78-3.23,8.54-2.34,3.49-5.3,6.52-7.57,7.78-3.94,2.14-7.33.91-8.49-3.02-.23-.62-.37-1.27-.41-1.93,0,0,1.21-.49,2.51-.99,7.54-2.88,12.26-8.35,12.63-14.57l.17-2.65h2.99c2.75,0,3.06.06,2.89.57v.03Zm14.74.27c1.56,1.66,1.15,6.66-1.05,13.01-2.11,5.94-4.18,9.24-6.25,9.91-3.22,1.06-3.94-2.5-2.17-10.69.55-2.45,2.27-9.18,3.22-12.5.17-.48.62-.58,2.82-.58,2.38-.03,2.72.11,3.44.83v.03Zm73.59,15.45c.59,1.13.9,2.39.91,3.67,0,1.63-.06,1.94-1.02,2.79-2.17,1.94-6.25,1.6-7.4-.64s-.38-3.94,3.32-7.78l1.71-1.8.78.95c.64.88,1.2,1.82,1.69,2.79v.03Z" style="stroke-width:0px;"/></svg>