<?xml version="1.0" encoding="UTF-8" standalone="no"?>
<svg version="1.1" width="32" height="32" id="svg2" sodipodi:docname="letras.svg" inkscape:version="1.4-beta2 (9aaf4f34, 2024-07-30)" xmlns:inkscape="http://www.inkscape.org/namespaces/inkscape" xmlns:sodipodi="http://sodipodi.sourceforge.net/DTD/sodipodi-0.dtd" xmlns="http://www.w3.org/2000/svg" xmlns:svg="http://www.w3.org/2000/svg">
  <defs id="defs2" />
  <sodipodi:namedview id="namedview2" pagecolor="#ffffff" bordercolor="#000000" borderopacity="0.25" inkscape:showpageshadow="2" inkscape:pageopacity="0.0" inkscape:pagecheckerboard="0" inkscape:deskcolor="#d1d1d1" inkscape:zoom="3.5658167" inkscape:cx="24.398338" inkscape:cy="12.76005" inkscape:window-width="1440" inkscape:window-height="790" inkscape:window-x="0" inkscape:window-y="0" inkscape:window-maximized="1" inkscape:current-layer="svg2" />
  <g id="g2" transform="matrix(0.07462684,0,0,0.07462684,-28.776975,-6.3871095)">
    <path d="m 0,0 c 2.4758833,-0.00407385 4.9517647,-0.00942027 7.4276428,-0.01593018 5.9833992,-0.01217794 11.9666412,-0.01050866 17.9500342,-0.0017621 4.869753,0.0068194 9.739475,0.007675 14.609231,0.0044285 0.697306,-4.597e-4 1.394612,-9.194e-4 2.113048,-0.001393 1.417267,-9.5933e-4 2.834535,-0.001932 4.251802,-0.0029178 13.240153,-0.0085221 26.480243,0.00123 39.720385,0.0174011 11.321362,0.01340028 22.642627,0.01107128 33.963987,-0.00275629 13.19794,-0.01611238 26.39581,-0.02234323 39.59375,-0.01316321 1.41159,9.5549e-4 2.82318,0.0018986 4.23477,0.0028292 0.69425,4.6282e-4 1.38849,9.2565e-4 2.10377,0.0014025 4.85489,0.00257299 9.70974,-0.0017442 14.56463,-0.0088412 6.55342,-0.0093708 13.10669,-0.0025483 19.66011,0.01468277 2.39193,0.00393572 4.78389,0.00288141 7.17582,-0.003788 29.78137,-0.07532511 56.84379,4.71560891 79.5568,25.39799171 0.98227,0.877851 0.98227,0.877851 1.98438,1.773437 16.77685,15.811817 26.1033,40.060623 27.13121,62.781477 0.19039,7.374991 0.15679,14.751832 0.1432,22.128682 0.003,2.48178 0.006,4.96356 0.0106,7.44534 0.008,6.01199 0.007,12.0239 10e-4,18.03589 -0.005,4.89085 -0.005,9.78169 -0.003,14.67255 3.1e-4,0.699 6.2e-4,1.398 9.3e-4,2.11819 6.4e-4,1.42049 0.001,2.84099 0.002,4.26148 0.006,13.28579 -8.3e-4,26.57154 -0.0116,39.85732 -0.009,11.37269 -0.007,22.74533 0.002,34.11802 0.0107,13.2418 0.0149,26.48358 0.009,39.72539 -6.4e-4,1.41495 -10e-4,2.8299 -0.002,4.24485 -3.1e-4,0.69599 -6.1e-4,1.39197 -9.3e-4,2.10904 -0.002,4.87876 0.001,9.75751 0.006,14.63626 0.006,6.57959 0.002,13.15912 -0.01,19.73871 -0.003,2.40651 -0.002,4.81303 0.003,7.21955 0.0501,29.95998 0.0501,29.95998 -4.95283,44.19631 -0.262,0.75821 -0.524,1.51642 -0.79394,2.29761 -8.39752,23.46993 -24.62506,41.47374 -47.06934,52.36255 -19.46814,8.6596 -37.98021,9.57642 -58.95581,9.552 -2.47515,0.004 -4.95029,0.01 -7.42543,0.0155 -6.00076,0.012 -12.00146,0.0145 -18.00222,0.0122 -4.88417,-0.002 -9.76833,-2e-5 -14.6525,0.004 -0.69798,6e-4 -1.39597,10e-4 -2.1151,0.002 -1.41848,10e-4 -2.83695,0.002 -4.25543,0.004 -13.27349,0.0109 -26.54696,0.009 -39.82046,0.003 -12.10532,-0.005 -24.210553,0.006 -36.315854,0.0251 -12.469063,0.0194 -24.938087,0.0276 -37.407166,0.0239 -6.984591,-0.002 -13.969113,4.9e-4 -20.953692,0.0147 -6.573863,0.0133 -13.147593,0.0106 -19.7214658,-0.002 -2.3999989,-0.002 -4.8000093,3.2e-4 -7.199995,0.009 -31.9510332,0.10255 -59.4476452,-5.75992 -83.0225332,-28.72047 -18.104294,-19.09293 -25.777254,-43.47659 -25.735274,-69.29497 -0.002,-1.03504 -0.005,-2.07007 -0.007,-3.13647 -0.006,-3.44954 -0.006,-6.89905 -0.005,-10.34859 -0.003,-2.48105 -0.006,-4.96209 -0.0102,-7.44313 -0.008,-6.02937 -0.0111,-12.05871 -0.0116,-18.08808 -4.8e-4,-4.90527 -0.003,-9.81054 -0.006,-14.71581 -0.009,-13.93164 -0.0134,-27.86328 -0.0127,-41.79492 4e-5,-0.74993 8e-5,-1.49986 1.2e-4,-2.27252 4e-5,-0.75085 8e-5,-1.5017 1.2e-4,-2.27531 4.1e-4,-12.15999 -0.009,-24.31994 -0.0233,-36.47992 -0.0144,-12.50959 -0.0213,-25.01917 -0.0204,-37.52877 3.3e-4,-7.01357 -0.002,-14.02711 -0.0132,-21.04068 -0.0101,-6.60004 -0.01,-13.20002 -0.002,-19.80006 0.001,-2.41458 -0.001,-4.82916 -0.007,-7.24373 -0.0699,-29.754217 4.38516,-56.598715 25.251871,-79.201106 0.875918,-0.978399 0.875918,-0.978399 1.769532,-1.976563 C -62.973169,3.6680392 -30.684265,-0.08555677 0,0 Z m 73.925781,86.388184 c -15.714357,22.509756 -18.231416,59.391156 -22,85.999996 -0.60876,0.10903 -1.217519,0.21806 -1.844726,0.33039 -6.140982,1.15585 -11.980694,2.74454 -17.905274,4.71649 -1.346385,0.44053 -1.346385,0.44053 -2.71997,0.88995 -2.845138,0.93236 -5.687585,1.87264 -8.53003,2.81317 -1.873528,0.6151 -3.747225,1.22969 -5.621093,1.84375 -3.683327,1.20805 -7.3641256,2.4234 -11.0432134,3.64429 -3.50885914,1.1634 -7.0233312,2.30635 -10.5444336,3.43213 -0.81932,0.26496 -1.6386401,0.52993 -2.4827881,0.80292 -1.5256129,0.49318 -3.0531659,0.98042 -4.5830079,1.46032 -5.627247,1.83294 -10.307796,4.10826 -13.725464,9.06659 -1.581303,4.42765 -1.347081,6.19015 0.5,10.5 12.335137,18.54383 40.418913,29.96656 60.636719,37.31641 2.697271,1.11497 4.580275,2.40563 6.863281,4.18359 0.66,0 1.32,0 2,0 1.684977,4.41439 2.254015,8.07772 2.27124,12.79297 0.0052,0.65139 0.01045,1.30277 0.01584,1.97389 0.01019,1.40602 0.01601,2.81208 0.01788,4.21813 0.0037,2.23923 0.02051,4.47803 0.04076,6.71716 0.05509,6.36369 0.08589,12.72744 0.11058,19.09131 0.01606,3.90393 0.04646,7.80756 0.08476,11.71133 0.0115,1.47326 0.01758,2.94657 0.01768,4.41987 -0.446025,16.09421 -0.446025,16.09421 5.365556,30.43838 2.027616,1.87962 2.027616,1.87962 5.009293,2.06274 9.312926,-1.29313 17.328393,-9.96196 24.21875,-15.97265 2.847656,-2.45313 2.847656,-2.45313 5.226562,-4.15625 0.534961,-0.42797 1.069922,-0.85594 1.621094,-1.29688 0,-0.66 0,-1.32 0,-2 0.562032,-0.23332 1.124063,-0.46664 1.703125,-0.70703 2.864217,-1.61234 4.769395,-3.61232 7.046875,-5.98047 3.534968,-3.61215 7.113814,-6.99978 10.992184,-10.23437 1.90865,-1.75675 3.60272,-3.53857 5.32812,-5.46875 0.55454,-0.60288 1.10908,-1.20576 1.68042,-1.82691 1.1052,-1.20885 2.1874,-2.43923 3.24268,-3.69189 1.6129,-1.7397 2.93476,-2.93281 5.00659,-4.09058 2.01534,0.10347 2.01534,0.10347 4.20044,0.6731 0.79431,0.20549 1.58862,0.41098 2.407,0.6227 3.59128,1.05702 7.11215,2.24499 10.62694,3.53233 1.54974,0.55576 3.09954,1.11134 4.64941,1.66675 0.79571,0.28725 1.59143,0.5745 2.41126,0.87045 27.56588,11.06265 27.56588,11.06265 56.51745,15.94717 0.7077,0.0168 1.41539,0.0335 2.14453,0.0508 2.75387,-0.48969 4.07797,-1.38092 6.04297,-3.36328 2.77338,-11.70528 -4.18063,-25.04209 -8.875,-35.4375 -0.69488,-1.56391 -0.69488,-1.56391 -1.40381,-3.15942 -2.76977,-6.19401 -5.62189,-12.34558 -8.51806,-18.4812 -0.31853,-0.67624 -0.63706,-1.35248 -0.96524,-2.04921 -1.56535,-3.32104 -3.13929,-6.63747 -4.72959,-9.94664 -0.5785,-1.21873 -1.1568,-2.43756 -1.73486,-3.6565 -0.51128,-1.06629 -1.02255,-2.13259 -1.54932,-3.2312 -1.24532,-3.09095 -1.96622,-5.71713 -2.22412,-9.03833 1.34311,-2.46588 2.59929,-4.38715 4.3125,-6.5625 0.45714,-0.6086 0.91427,-1.21719 1.38526,-1.84423 1.41717,-1.87806 2.85732,-3.73651 4.30224,-5.59327 0.82528,-1.07862 1.64955,-2.15801 2.47266,-3.23828 1.6305,-2.12893 3.26616,-4.25268 4.91015,-6.37109 4.38861,-5.66765 8.66912,-11.41638 12.95069,-17.16504 1.80042,-2.40444 3.61796,-4.79541 5.43603,-7.18652 1.26466,-1.67944 2.52899,-3.35912 3.79297,-5.03907 0.59587,-0.77682 1.19174,-1.55364 1.80567,-2.354 4.12354,-5.51426 7.55774,-10.79329 7.69433,-17.896 -1.52115,-3.9371 -3.31004,-4.87377 -7.0625,-6.75 -5.91618,-1.7715 -11.67895,-2.33499 -17.82812,-2.26953 -0.81487,0.005 -1.62974,0.01 -2.4693,0.0152 -8.40028,0.13485 -16.65966,1.07984 -24.97455,2.22579 -2.48978,0.34268 -4.98147,0.66652 -7.47412,0.98755 -9.84443,1.29327 -19.54696,2.9473 -29.25391,5.04101 -0.28287,-0.75668 -0.56574,-1.51336 -0.85718,-2.29297 -0.98139,-2.32465 -1.92111,-4.02808 -3.42798,-6.01953 -0.44343,-0.59361 -0.88687,-1.18722 -1.34375,-1.79882 -0.47308,-0.62327 -0.94617,-1.24653 -1.43359,-1.88868 -1.00274,-1.34267 -2.00402,-2.68644 -3.00391,-4.03125 -0.7466,-1.00353 -0.7466,-1.00353 -1.5083,-2.02734 -2.03651,-2.77397 -3.98159,-5.60145 -5.92528,-8.44141 -16.02203,-25.03861 -16.02203,-25.03861 -38.500004,-43.499996 -5.212154,-0.579129 -7.20015,0.498881 -11,4 z" fill="#000000" transform="translate(498.07422,85.611816)" id="path1" />
    <path d="m 0,0 c 3.8453416,1.4893336 5.2666036,3.4901745 7.4375,6.9375 0.6857813,1.0608984 1.3715625,2.1217969 2.078125,3.214844 0.579111,0.900813 0.579111,0.900813 1.169922,1.819824 C 13.3052,16.013557 15.992992,20.008291 18.6875,24 c 0.546482,0.824919 1.092964,1.649839 1.656006,2.499756 C 24.58249,32.770256 28.919639,37.72991 36.5,39.625 48.633546,40.925023 60.372452,39.056006 72.376953,37.36377 75.913902,36.873258 79.455538,36.432559 83,36 c -1.454117,4.503608 -3.979777,7.634084 -7.0625,11.125 -0.996741,1.154389 -1.992825,2.309346 -2.988281,3.464844 -0.497095,0.573471 -0.99419,1.146943 -1.506348,1.737793 C 67.865101,56.47446 64.402386,60.708645 61,65 60.314219,65.854648 59.628437,66.709297 58.921875,67.589844 54.925151,72.861945 52.12943,77.231315 53,84 c 2.459011,9.584553 7.633191,18.49096 12.165039,27.22144 2.5107,4.8809 4.57496,9.42908 5.834961,14.77856 -5.794956,-1.57607 -11.384618,-3.48731 -16.96875,-5.69922 -0.916644,-0.36208 -0.916644,-0.36208 -1.851807,-0.73147 -2.53217,-1.00164 -5.063109,-2.0052 -7.584228,-3.0344 C 33.65262,111.95236 33.65262,111.95236 22,112 c -4.937969,2.46599 -8.611957,6.33352 -12.4375,10.25 -0.5712964,0.57774 -1.1425928,1.15548 -1.7312012,1.75073 -3.5392346,3.60376 -6.92812898,7.30015 -10.2062988,11.1438 -3.018498,3.4466 -6.1566942,6.85758 -9.625,9.85547 -0.66,0 -1.32,0 -2,0 0.01332,-0.83779 0.01332,-0.83779 0.02692,-1.6925 0.08885,-5.84035 0.148973,-11.68051 0.192811,-17.52137 0.02005,-2.17651 0.0473,-4.35297 0.08203,-6.52929 0.0488,-3.13783 0.07128,-6.27495 0.08887,-9.41309 0.03097,-1.44736 0.03097,-1.44736 0.06256,-2.92395 C -13.544789,100.75117 -14.496862,96.15653 -18,91 c -1.825709,-1.848612 -1.825709,-1.848612 -4.0625,-2.9375 -0.871406,-0.474375 -1.742812,-0.94875 -2.640625,-1.4375 -5.002509,-2.465692 -10.03546,-4.863905 -15.091309,-7.218262 C -46.681897,76.194409 -53.364948,72.70467 -60,69 c 0.33,-0.99 0.66,-1.98 1,-3 2.323006,-0.855591 4.501235,-1.501931 6.894531,-2.085938 1.053892,-0.275491 1.053892,-0.275491 2.129074,-0.556549 2.260037,-0.589626 4.523849,-1.16246 6.788895,-1.732513 C -24.845583,57.972794 -24.845583,57.972794 -10,48 -6.2208546,38.629736 -4.8479653,28.298747 -3.3125,18.375 -2.8948084,15.736512 -2.472673,13.098759 -2.0507813,10.460938 -1.8720044,9.3141553 -1.6932275,8.1673731 -1.5090332,6.9858398 -1.1042733,4.6116365 -0.63169886,2.3215554 0,0 Z" fill="#000000" transform="translate(590,229)" id="path2" />
  </g>
</svg>
