<?xml version="1.0" encoding="UTF-8" standalone="no"?>
<svg width="32" height="32" viewBox="0 0 32 32" version="1.1" id="svg2" sodipodi:docname="letterboxd-decal-dots-neg-mono.svg" inkscape:version="1.4-beta2 (9aaf4f34, 2024-07-30)" xmlns:inkscape="http://www.inkscape.org/namespaces/inkscape" xmlns:sodipodi="http://sodipodi.sourceforge.net/DTD/sodipodi-0.dtd" xmlns="http://www.w3.org/2000/svg" xmlns:svg="http://www.w3.org/2000/svg" xmlns:rdf="http://www.w3.org/1999/02/22-rdf-syntax-ns#" xmlns:cc="http://creativecommons.org/ns#" xmlns:dc="http://purl.org/dc/elements/1.1/">
  <sodipodi:namedview id="namedview2" pagecolor="#ffffff" bordercolor="#000000" borderopacity="0.25" inkscape:showpageshadow="2" inkscape:pageopacity="0.0" inkscape:pagecheckerboard="0" inkscape:deskcolor="#d1d1d1" inkscape:zoom="7.5983594" inkscape:cx="11.713055" inkscape:cy="24.807987" inkscape:window-width="1440" inkscape:window-height="790" inkscape:window-x="0" inkscape:window-y="0" inkscape:window-maximized="1" inkscape:current-layer="svg2" />
  <title id="title1">letterboxd-decal-dots-neg-mono</title>
  <defs id="defs1">
    <rect id="path-1" x="0" y="0" width="129.84732" height="141.4433" />
    <rect id="path-3" x="0" y="0" width="129.84732" height="141.4433" />
  </defs>
  <g id="g38" transform="matrix(0.08465608,0,0,0.08465608,73.032239,-5.16402)" style="fill:#000000">
    <path d="m -622.30664,231.50586 a 70.078651,70 0 0 1 6.4082,-15.45703 c -2.70386,4.8455 -4.91067,9.99047 -6.4082,15.45703 z" style="fill:#000000" id="path38" />
    <path d="m -624.85156,250 a 70.078651,70 0 0 1 2.27148,-17.23242 c -1.40463,5.52655 -2.27148,11.26944 -2.27148,17.23242 z" style="fill:#000000" id="path37" />
    <path d="M -622.58008,267.23242 A 70.078651,70 0 0 1 -624.85156,250 c 0,5.96298 0.86685,11.70587 2.27148,17.23242 z" style="fill:#000000" id="path36" />
    <path d="m -615.89844,283.95117 a 70.078651,70 0 0 1 -6.4082,-15.45703 c 1.49753,5.46656 3.70434,10.61153 6.4082,15.45703 z" style="fill:#000000" id="path35" />
    <path d="m -614.37891,286.79102 a 70.078651,70 0 0 0 0.14454,-0.19141 70.078651,70 0 0 1 -0.81446,-1.06055 c 0.24082,0.4066 0.42116,0.8507 0.66992,1.25196 z" style="fill:#000000" id="path34" />
    <path d="m -614.08789,286.78906 a 70.078651,70 0 0 1 -0.14648,-0.18945 70.078651,70 0 0 1 -0.14454,0.19141 c 0.0539,0.0869 0.0903,0.18482 0.14454,0.27148 0.0547,-0.0874 0.0921,-0.18578 0.14648,-0.27344 z" style="fill:#000000" id="path33" />
    <path d="m -613.42383,285.54687 a 70.078651,70 0 0 1 -0.81054,1.05274 70.078651,70 0 0 0 0.14648,0.18945 c 0.24673,-0.39801 0.42515,-0.83892 0.66406,-1.24219 z" style="fill:#000000" id="path32" />
    <path d="m -606.16016,268.49414 a 70.078651,70 0 0 1 -6.40429,15.44727 c 2.70133,-4.84276 4.90775,-9.98433 6.40429,-15.44727 z" style="fill:#000000" id="path31" />
    <path d="m -603.61523,250 a 70.078651,70 0 0 1 -2.27149,17.23242 c 1.40463,-5.52655 2.27149,-11.26944 2.27149,-17.23242 z" style="fill:#000000" id="path30" />
    <path d="M -603.89062,244.05078 A 70.078651,70 0 0 1 -603.61523,250 c 0,-2.00618 -0.10978,-3.98582 -0.27539,-5.94922 z" style="fill:#000000" id="path29" />
    <path d="m -606.32617,230.74023 c 0.75779,2.64939 1.31871,5.37873 1.76172,8.14649 a 70.078651,70 0 0 0 -1.76172,-8.14649 z" style="fill:#000000" id="path28" />
    <path d="m -609.23633,222.70117 c 0.89311,2.10106 1.69141,4.2509 2.37891,6.45117 a 70.078651,70 0 0 0 -2.37891,-6.45117 z" style="fill:#000000;fill-rule:evenodd" id="path27" />
    <path d="m -614.08203,213.20312 a 70.078651,70 0 0 0 -0.006,0.008 c 1.40295,2.26314 2.63518,4.63742 3.77734,7.0625 a 70.078651,70 0 0 0 -3.77148,-7.07032 z" style="fill:#000000" id="path25" />
    <path d="m -614.08203,213.20312 a 70.078651,70 0 0 1 3.77148,7.07032 c 0.37724,0.80095 0.72684,1.61052 1.07422,2.42773 a 70.078651,70 0 0 1 2.37891,6.45117 c 0.16711,0.53482 0.37672,1.04765 0.53125,1.58789 a 70.078651,70 0 0 1 1.76172,8.14649 c 0.19562,1.22218 0.38421,2.44312 0.51562,3.68555 a 70.078651,70 0 0 1 0.15821,1.47851 c 0.16561,1.9634 0.27539,3.94304 0.27539,5.94922 0,5.96298 -0.86686,11.70587 -2.27149,17.23242 a 70.078651,70 0 0 1 -0.27344,1.26172 c -1.49654,5.46294 -3.70296,10.60451 -6.40429,15.44727 a 70.078651,70 0 0 1 -0.85938,1.60546 c -0.23891,0.40327 -0.41733,0.84418 -0.66406,1.24219 A 70.078651,70 0 0 0 -554.77344,320 a 70.078651,70 0 0 0 70.08008,-70 70.078651,70 0 0 0 -70.08008,-70 70.078651,70 0 0 0 -59.30859,33.20312 z" style="fill:#000000" id="path24" />
    <path d="m -614.24414,212.95703 c -0.30073,0.48069 -0.51541,1.01549 -0.80469,1.50391 a 70.078651,70 0 0 1 0.96094,-1.25 c -0.024,-0.0388 -0.0403,-0.0824 -0.0644,-0.1211 a 70.078651,70 0 0 0 -0.0918,-0.13281 z" style="fill:#000000" id="path23" />
    <path d="m -614.24414,212.95703 a 70.078651,70 0 0 1 0.0918,0.13281 c -0.0304,-0.0488 -0.0515,-0.10359 -0.082,-0.15234 -0.004,0.006 -0.006,0.0134 -0.01,0.0195 z" style="fill:#000000" id="path22" />
    <path d="m -741.22461,231.49805 a 70.078651,70 0 0 1 6.40039,-15.43946 c -2.70006,4.84047 -4.90394,9.97935 -6.40039,15.43946 z" style="fill:#000000;fill-rule:evenodd" id="path21" />
    <path d="m -743.77344,250 a 70.078651,70 0 0 1 2.26953,-17.21484 c -1.40179,5.52133 -2.26953,11.25808 -2.26953,17.21484 z" style="fill:#000000" id="path20" />
    <path d="M -741.50391,267.21484 A 70.078651,70 0 0 1 -743.77344,250 c 0,5.95676 0.86774,11.69351 2.26953,17.21484 z" style="fill:#000000" id="path19" />
    <path d="m -734.82422,283.94141 a 70.078651,70 0 0 1 -6.40039,-15.43946 c 1.49645,5.46011 3.70033,10.59899 6.40039,15.43946 z" style="fill:#000000;fill-rule:evenodd" id="path18" />
    <path d="m -733.30078,286.78906 a 70.078651,70 0 0 0 0.14453,-0.18945 70.078651,70 0 0 1 -0.80859,-1.05274 c 0.23891,0.40327 0.41733,0.84418 0.66406,1.24219 z" style="fill:#000000" id="path17" />
    <path d="m -733.00977,286.79102 a 70.078651,70 0 0 1 -0.14648,-0.19141 70.078651,70 0 0 1 -0.14453,0.18945 c 0.0543,0.0877 0.0918,0.18604 0.14648,0.27344 0.0543,-0.0867 0.0907,-0.18458 0.14453,-0.27148 z" style="fill:#000000" id="path16" />
    <path d="m -732.33789,285.53711 a 70.078651,70 0 0 1 -0.81836,1.0625 70.078651,70 0 0 0 0.14648,0.19141 c 0.24921,-0.40197 0.43065,-0.84659 0.67188,-1.25391 z" style="fill:#000000" id="path15" />
    <path d="m -725.08203,268.49414 a 70.078651,70 0 0 1 -6.41211,15.46289 c 2.70555,-4.84732 4.91391,-9.99391 6.41211,-15.46289 z" style="fill:#000000" id="path14" />
    <path d="m -722.53711,250 a 70.078651,70 0 0 1 -2.27148,17.23242 c 1.40462,-5.52655 2.27148,-11.26944 2.27148,-17.23242 z" style="fill:#000000" id="path13" />
    <path d="M -722.8125,244.05078 A 70.078651,70 0 0 1 -722.53711,250 c 0,-2.00618 -0.10977,-3.98582 -0.27539,-5.94922 z" style="fill:#000000" id="path12" />
    <path d="m -725.24805,230.74023 c 0.7578,2.64939 1.31871,5.37873 1.76172,8.14649 a 70.078651,70 0 0 0 -1.76172,-8.14649 z" style="fill:#000000" id="path11" />
    <path d="m -728.15234,222.71484 c 0.8897,2.09424 1.68368,4.23692 2.36914,6.42969 a 70.078651,70 0 0 0 -2.36914,-6.42969 z" style="fill:#000000;fill-rule:evenodd" id="path10" />
    <path d="m -733.00391,213.20312 a 70.078651,70 0 0 0 -0.006,0.006 c 1.40273,2.2626 2.63528,4.63608 3.77735,7.06055 a 70.078651,70 0 0 0 -3.77149,-7.06641 z" style="fill:#000000" id="path8" />
    <path d="m -733.00391,213.20312 a 70.078651,70 0 0 1 3.77149,7.06641 c 0.37992,0.80653 0.73043,1.6223 1.08008,2.44531 a 70.078651,70 0 0 1 2.36914,6.42969 c 0.16805,0.5376 0.37982,1.05263 0.53515,1.5957 a 70.078651,70 0 0 1 1.76172,8.14649 c 0.19563,1.22218 0.38421,2.44312 0.51563,3.68555 a 70.078651,70 0 0 1 0.1582,1.47851 c 0.16562,1.9634 0.27539,3.94304 0.27539,5.94922 0,5.96298 -0.86686,11.70587 -2.27148,17.23242 a 70.078651,70 0 0 1 -0.27344,1.26172 c -1.4982,5.46898 -3.70656,10.61557 -6.41211,15.46289 a 70.078651,70 0 0 1 -0.84375,1.58008 c -0.24123,0.40732 -0.42267,0.85194 -0.67188,1.25391 A 70.078651,70 0 0 0 -673.69336,320 a 70.078651,70 0 0 0 59.31445,-33.20898 c -0.24876,-0.40126 -0.4291,-0.84536 -0.66992,-1.25196 a 70.078651,70 0 0 1 -0.84961,-1.58789 c -2.70386,-4.8455 -4.91067,-9.99047 -6.4082,-15.45703 a 70.078651,70 0 0 1 -0.27344,-1.26172 c -1.40463,-5.52655 -2.27148,-11.26944 -2.27148,-17.23242 0,-5.96298 0.86685,-11.70587 2.27148,-17.23242 a 70.078651,70 0 0 1 0.27344,-1.26172 c 1.49753,-5.46656 3.70434,-10.61153 6.4082,-15.45703 a 70.078651,70 0 0 1 0.84961,-1.58789 c 0.28928,-0.48842 0.50396,-1.02322 0.80469,-1.50391 A 70.078651,70 0 0 0 -673.69336,180 a 70.078651,70 0 0 0 -59.31055,33.20312 z" style="fill:#000000" id="path7" />
    <path d="m -733.16602,212.95703 c -0.29898,0.47793 -0.51115,1.01053 -0.79882,1.49609 a 70.078651,70 0 0 1 0.95507,-1.24414 c -0.0213,-0.0343 -0.0353,-0.0731 -0.0566,-0.10742 a 70.078651,70 0 0 0 -0.0996,-0.14453 z" style="fill:#000000" id="path6" />
    <path d="m -733.16602,212.95703 a 70.078651,70 0 0 1 0.0996,0.14453 c -0.0327,-0.0525 -0.0551,-0.11162 -0.0879,-0.16406 -0.004,0.006 -0.008,0.0131 -0.0117,0.0195 z" style="fill:#000000" id="path5" />
    <path d="m -792.61523,180 a 70.078651,70 0 0 0 -70.07813,70 70.078651,70 0 0 0 70.07813,70 70.078651,70 0 0 0 59.31445,-33.21094 c -0.24673,-0.39801 -0.42515,-0.83892 -0.66406,-1.24219 a 70.078651,70 0 0 1 -0.85938,-1.60546 c -2.70006,-4.84047 -4.90394,-9.97935 -6.40039,-15.43946 a 70.078651,70 0 0 1 -0.2793,-1.28711 c -1.40179,-5.52133 -2.26953,-11.25808 -2.26953,-17.21484 0,-5.95676 0.86774,-11.69351 2.26953,-17.21484 a 70.078651,70 0 0 1 0.2793,-1.28711 c 1.49645,-5.46011 3.70033,-10.59899 6.40039,-15.43946 a 70.078651,70 0 0 1 0.85938,-1.60547 c 0.28767,-0.48556 0.49984,-1.01816 0.79882,-1.49609 A 70.078651,70 0 0 0 -792.61523,180 Z" style="fill:#000000" id="path4" />
  </g>
  <metadata id="metadata2">
    <rdf:RDF>
      <cc:Work rdf:about="">
        <dc:title>letterboxd-decal-dots-neg-mono</dc:title>
      </cc:Work>
    </rdf:RDF>
  </metadata>
</svg>
