<?xml version="1.0" encoding="UTF-8" standalone="no"?>
<!DOCTYPE svg PUBLIC "-//W3C//DTD SVG 1.1//EN" "http://www.w3.org/Graphics/SVG/1.1/DTD/svg11.dtd">
<!-- Created with Vectornator (http://vectornator.io/) -->
<svg height="100%" stroke-miterlimit="10" style="fill-rule:nonzero;clip-rule:evenodd;stroke-linecap:round;stroke-linejoin:round;" version="1.1" viewBox="0 0 169.07 80" width="100%" xml:space="preserve" xmlns="http://www.w3.org/2000/svg" xmlns:xlink="http://www.w3.org/1999/xlink">
<defs/>
<path d="M0 0L169.07 0L169.07 80L0 80L0 0Z" fill="#000000" fill-opacity="0" fill-rule="nonzero" opacity="1" stroke="none"/>
<clipPath id="ArtboardFrame">
<rect height="80" width="169.07" x="0" y="0"/>
</clipPath>
<g clip-path="url(#ArtboardFrame)" id="Sem-Título">
<g opacity="1">
<path d="M120.8 0.0567767C113.341 0.0543979 106.41 3.90062 102.47 10.2285C102.67 10.5382 102.84 10.848 103.02 11.1677L103.15 11.3975C103.45 11.9371 103.71 12.4966 103.96 13.0661L104.14 13.5158C104.33 13.9754 104.5 14.445 104.66 14.9246C104.66 15.0645 104.76 15.2144 104.8 15.3543C104.98 15.9538 105.14 16.5633 105.27 17.1828C105.27 17.3027 105.27 17.4226 105.34 17.5425C105.44 18.0621 105.52 18.5916 105.58 19.1212L105.64 19.6508C105.7 20.3002 105.74 20.9597 105.74 21.6491L105.74 21.6491C105.74 22.3086 105.74 22.968 105.64 23.6475L105.58 24.1771C105.52 24.7066 105.44 25.2262 105.34 25.7458C105.34 25.8757 105.34 25.9956 105.27 26.1155C105.14 26.735 104.98 27.3445 104.8 27.944C104.8 28.0839 104.71 28.2337 104.66 28.3836C104.5 28.8532 104.33 29.3229 104.14 29.7825L103.96 30.2321C103.71 30.8016 103.45 31.3612 103.15 31.9007C103.15 31.9807 103.06 32.0606 103.01 32.1405C102.843 32.4603 102.663 32.77 102.47 33.0698C107.972 41.8735 118.965 45.5178 128.643 41.7454C138.32 37.9731 143.939 27.8525 142.02 17.6522C140.101 7.45183 131.187 0.060743 120.8 0.0567767Z" fill="#000000" fill-rule="nonzero" opacity="1" stroke="none"/>
<path d="M101.77 31.8508C101.48 31.3112 101.21 30.7517 100.96 30.1821L100.78 29.7325C100.59 29.2729 100.42 28.8033 100.26 28.3337C100.26 28.1838 100.16 28.0339 100.12 27.894C99.94 27.2945 99.78 26.685 99.65 26.0655C99.65 25.9456 99.65 25.8257 99.58 25.6958C99.48 25.1762 99.4 24.6966 99.34 24.1271L99.28 23.5975C99.28 22.9481 99.19 22.2886 99.19 21.5992L99.19 21.5992C99.19 20.9297 99.19 20.2703 99.28 19.6008L99.34 19.0712C99.4 18.5417 99.48 18.0121 99.58 17.4925C99.58 17.3726 99.58 17.2527 99.65 17.1328C99.78 16.5133 99.94 15.9038 100.12 15.3043C100.12 15.1644 100.21 15.0145 100.26 14.8747C100.42 14.3951 100.59 13.8755 100.78 13.4658L100.96 13.0162C101.21 12.4466 101.48 11.8871 101.77 11.3475L101.9 11.1177C102.08 10.798 102.26 10.4882 102.45 10.1785C98.509 3.85128 91.5786 0.00467625 84.12 0.00467625C76.6614 0.00467625 69.731 3.85128 65.79 10.1785C65.98 10.4882 66.16 10.798 66.33 11.1177L66.47 11.3475C66.76 11.8871 67.03 12.4466 67.27 13.0162C67.34 13.1661 67.39 13.3159 67.46 13.4658C67.64 13.9254 67.82 14.3951 67.97 14.8747L68.12 15.3043C68.3 15.9038 68.46 16.5133 68.59 17.1328L68.65 17.4925C68.75 18.0121 68.83 18.5417 68.89 19.0712C68.89 19.2511 68.94 19.4309 68.95 19.6008C69.01 20.2503 69.05 20.9097 69.05 21.5992L69.05 21.5992C69.05 22.2586 69.05 22.9181 68.95 23.5975C68.95 23.7674 68.95 23.9472 68.89 24.1271C68.83 24.6567 68.75 25.1762 68.65 25.6958L68.59 26.0655C68.46 26.685 68.3 27.2945 68.12 27.894L67.97 28.3337C67.82 28.8033 67.64 29.2729 67.46 29.7325C67.4 29.8824 67.34 30.0323 67.27 30.1821C67.03 30.7517 66.76 31.3112 66.47 31.8508C66.42 31.9307 66.37 32.0107 66.33 32.0906C66.15 32.4103 65.98 32.7201 65.79 33.0198C69.731 39.347 76.6614 43.1937 84.12 43.1937C91.5786 43.1937 98.509 39.347 102.45 33.0198C102.263 32.7201 102.083 32.4103 101.91 32.0906C101.86 32.0306 101.81 31.9307 101.77 31.8508Z" fill="#000000" fill-rule="nonzero" opacity="1" stroke="none"/>
<path d="M65.08 31.8508C64.79 31.3112 64.52 30.7517 64.28 30.1821C64.21 30.0323 64.16 29.8824 64.09 29.7325C63.91 29.2729 63.73 28.8033 63.58 28.3337L63.43 27.894C63.25 27.2945 63.09 26.685 62.96 26.0655L62.9 25.6958C62.8 25.1762 62.72 24.6966 62.66 24.1271L62.6 23.5975C62.54 22.9481 62.5 22.2886 62.5 21.5992L62.5 21.5992C62.5 20.9297 62.5 20.2703 62.6 19.6008L62.66 19.0712C62.72 18.5417 62.8 18.0121 62.9 17.4925L62.96 17.1328C63.09 16.5133 63.25 15.9038 63.43 15.3043L63.58 14.8747C63.73 14.3951 63.91 13.8755 64.1 13.4658C64.16 13.3159 64.21 13.1661 64.28 13.0162C64.52 12.4466 64.79 11.8871 65.08 11.3475L65.22 11.1177C65.39 10.798 65.57 10.4882 65.76 10.1785C60.6678 2.00022 50.7665-1.81414 41.4976 0.831673C32.2287 3.47749 25.8382 11.9423 25.8382 21.5742C25.8382 31.206 32.2287 39.6709 41.4976 42.3167C50.7665 44.9625 60.6678 41.1482 65.76 32.9699C65.57 32.6701 65.4 32.3604 65.22 32.0406C65.18 32.0306 65.13 31.9307 65.08 31.8508Z" fill="#000000" fill-rule="nonzero" opacity="1" stroke="none"/>
<path d="M66.33 32.0906C66.33 32.0107 66.42 31.9307 66.47 31.8508C66.76 31.3112 67.03 30.7517 67.27 30.1821C67.34 30.0323 67.4 29.8824 67.46 29.7325C67.64 29.2729 67.82 28.8033 67.97 28.3337L68.12 27.894C68.3 27.2945 68.46 26.685 68.59 26.0655L68.65 25.6958C68.75 25.1762 68.83 24.6966 68.89 24.1271C68.89 23.9472 68.94 23.7674 68.95 23.5975C69.01 22.9481 69.05 22.2886 69.05 21.5992L69.05 21.5992C69.05 20.9297 69.05 20.2703 68.95 19.6008C68.95 19.4309 68.95 19.2511 68.89 19.0712C68.83 18.5417 68.75 18.0121 68.65 17.4925L68.59 17.1328C68.46 16.5133 68.3 15.9038 68.12 15.3043L67.97 14.8747C67.82 14.3951 67.64 13.8755 67.46 13.4658C67.4 13.3159 67.34 13.1661 67.27 13.0162C67.03 12.4466 66.76 11.8871 66.47 11.3475L66.33 11.1177C66.16 10.808 65.97 10.5082 65.78 10.1985C65.59 10.5082 65.39 10.808 65.22 11.1177L65.08 11.3475C64.79 11.8871 64.52 12.4466 64.28 13.0162C64.21 13.1661 64.16 13.3159 64.1 13.4658C63.91 13.9254 63.73 14.3951 63.58 14.8747L63.43 15.3043C63.25 15.9038 63.09 16.5133 62.96 17.1328L62.9 17.4925C62.8 18.0121 62.72 18.5417 62.66 19.0712L62.6 19.6008C62.54 20.2503 62.5 20.9097 62.5 21.5992L62.5 21.5992C62.5 22.2586 62.5 22.9181 62.6 23.5975L62.66 24.1271C62.72 24.6567 62.8 25.1762 62.9 25.6958L62.96 26.0655C63.09 26.685 63.25 27.2945 63.43 27.894L63.58 28.3337C63.73 28.8033 63.91 29.2729 64.09 29.7325C64.16 29.8824 64.21 30.0323 64.28 30.1821C64.52 30.7517 64.79 31.3112 65.08 31.8508C65.08 31.9307 65.18 32.0107 65.22 32.0906C65.4 32.4003 65.59 32.7001 65.78 32.9998C65.96 32.7001 66.15 32.4003 66.33 32.0906Z" fill="#000000" fill-rule="nonzero" opacity="1" stroke="none"/>
<path d="M103.01 32.0906C103.01 32.0107 103.11 31.9307 103.15 31.8508C103.45 31.3112 103.71 30.7517 103.96 30.1821L104.14 29.7325C104.33 29.2729 104.5 28.8033 104.66 28.3337C104.66 28.1838 104.76 28.0339 104.8 27.894C104.98 27.2945 105.14 26.685 105.27 26.0655C105.27 25.9456 105.27 25.8257 105.34 25.6958C105.44 25.1762 105.52 24.6966 105.58 24.1271L105.64 23.5975C105.7 22.9481 105.74 22.2886 105.74 21.5992L105.74 21.5992C105.74 20.9297 105.74 20.2703 105.64 19.6008L105.58 19.0712C105.52 18.5417 105.44 18.0121 105.34 17.4925C105.34 17.3726 105.34 17.2527 105.27 17.1328C105.14 16.5133 104.98 15.9038 104.8 15.3043C104.8 15.1644 104.71 15.0145 104.66 14.8747C104.5 14.3951 104.33 13.8755 104.14 13.4658L103.96 13.0162C103.71 12.4466 103.45 11.8871 103.15 11.3475L103.02 11.1177C102.84 10.808 102.65 10.5082 102.46 10.1985C102.27 10.5082 102.08 10.808 101.9 11.1177L101.77 11.3475C101.48 11.8871 101.21 12.4466 100.96 13.0162L100.78 13.4658C100.59 13.9254 100.42 14.3951 100.26 14.8747C100.26 15.0145 100.16 15.1644 100.12 15.3043C99.94 15.9038 99.78 16.5133 99.65 17.1328C99.65 17.2527 99.65 17.3726 99.58 17.4925C99.48 18.0121 99.4 18.5417 99.34 19.0712L99.28 19.6008C99.28 20.2503 99.19 20.9097 99.19 21.5992L99.19 21.5992C99.19 22.2586 99.19 22.9181 99.28 23.5975L99.34 24.1271C99.4 24.6567 99.48 25.1762 99.58 25.6958C99.58 25.8257 99.58 25.9456 99.65 26.0655C99.78 26.685 99.94 27.2945 100.12 27.894C100.12 28.0339 100.22 28.1838 100.26 28.3337C100.42 28.8033 100.59 29.2729 100.78 29.7325L100.96 30.1821C101.21 30.7517 101.48 31.3112 101.77 31.8508C101.77 31.9307 101.86 32.0107 101.91 32.0906C102.08 32.4003 102.27 32.7001 102.46 32.9998C102.65 32.7001 102.84 32.4003 103.01 32.0906Z" fill="#000000" fill-rule="nonzero" opacity="1" stroke="none"/>
<path d="M133.63 70.4193C133.63 64.4242 130.01 61.1968 124.63 61.1968C119.25 61.1968 115.63 64.3242 115.63 70.4193L115.63 70.9988C115.63 76.9939 118.82 79.9914 124.63 79.9914C130.07 79.9914 133.63 76.9939 133.63 70.9988L133.63 70.4193ZM128.07 70.9188C128.07 73.7365 126.72 75.1354 124.67 75.1354C122.62 75.1354 121.23 73.6766 121.23 70.9188L121.23 70.4193C121.23 67.4217 122.61 65.9629 124.7 65.9629C126.79 65.9629 128.07 67.4817 128.07 70.4193L128.07 70.9188Z" fill="#000000" fill-rule="nonzero" opacity="1" stroke="none"/>
<path d="M163.54 55.6813L163.54 64.1344C162.583 62.2012 160.541 61.0483 158.39 61.2268C154.31 61.2268 151.39 64.0145 151.39 70.0496L151.39 70.5791C151.39 76.7441 154.09 79.8715 158.39 79.8715C160.75 80.0003 162.927 78.6027 163.79 76.4044L164.31 79.5318L169.07 79.5318L169.07 55.6813L163.54 55.6813ZM163.61 70.5491C163.61 73.5467 162.26 75.0655 160.2 75.0655C158.3 75.0655 156.98 73.7665 156.98 70.5491L156.98 70.1495C156.98 67.3318 158.2 65.873 160.29 65.873C162.38 65.873 163.61 67.4217 163.61 70.1495L163.61 70.5491Z" fill="#000000" fill-rule="nonzero" opacity="1" stroke="none"/>
<path d="M151.77 61.5665L145.48 61.5665L142.56 66.1228L139.64 61.5665L133.32 61.5665L139.28 70.1794L132.71 79.5218L139.28 79.5218L142.53 74.446L145.78 79.5218L152.17 79.5218L145.84 70.1095L151.77 61.5665Z" fill="#000000" fill-rule="nonzero" opacity="1" stroke="none"/>
<path d="M5.77 57.33L2.13163e-14 57.33L2.13163e-14 79.5218L15.01 79.5218L15.01 73.9863L5.77 73.9863L5.77 57.33Z" fill="#000000" fill-rule="nonzero" opacity="1" stroke="none"/>
<path d="M56.43 57.0802L51.83 57.0802C51.83 57.8196 51.74 58.469 51.65 59.2184C51.46 60.7372 51.03 61.2168 49.9 61.3866C49.3247 61.5083 48.7381 61.5686 48.15 61.5665L43.74 61.5665L43.74 57.0802L39.13 57.0802C39.13 57.8196 39.04 58.7788 38.95 59.5282C38.77 61.0469 38.34 61.5265 37.2 61.6964C36.6248 61.8191 36.0381 61.8794 35.45 61.8762L35.45 66.5524L38.45 66.5524L38.45 71.998C38.45 77.6034 39.77 79.5618 45.14 79.5618L47.97 79.5618L47.97 74.2961L46.84 74.2961C44.2 74.2961 43.74 73.9564 43.74 70.8589L43.74 66.5524L51.15 66.5524L51.15 71.998C51.15 77.6034 52.47 79.5618 57.85 79.5618L60.67 79.5618L60.67 74.2961L59.54 74.2961C56.9 74.2961 56.44 73.9564 56.44 70.8589L56.44 66.5524L60.68 66.5524L60.68 61.5565L56.43 61.5565L56.43 57.0802Z" fill="#000000" fill-rule="nonzero" opacity="1" stroke="none"/>
<path d="M107.02 61.1968C104.775 61.0957 102.7 62.3867 101.8 64.4441L101.8 55.6813L96.27 55.6813L96.27 79.5318L101.15 79.5318L101.58 76.5343C102.403 78.7229 104.554 80.1233 106.89 79.9914C111.28 79.9914 113.95 76.7141 113.95 70.6091L113.95 70.0496C113.95 64.0045 111.01 61.2268 107.02 61.1968ZM108.4 70.5791C108.4 73.7365 107.14 75.0655 105.08 75.0655C103.02 75.0655 101.71 73.6166 101.71 70.4892L101.71 70.0795C101.71 67.4517 103.09 65.873 105.11 65.873C107.13 65.873 108.4 67.2918 108.4 70.1495L108.4 70.5791Z" fill="#000000" fill-rule="nonzero" opacity="1" stroke="none"/>
<path d="M25.72 61.1968C20.17 61.1968 16.58 64.6939 16.58 70.4592L16.58 70.9988C16.58 76.5442 19.46 79.9914 25.63 79.9914C30.82 79.9914 33.54 77.6034 34.54 73.8265L28.64 73.8265C28.1744 74.9693 27.0079 75.6662 25.78 75.5351C23.64 75.5351 22.41 74.356 22.13 72.1878L34.69 72.1878L34.69 70.1894C34.69 65.3134 32.01 61.1968 25.72 61.1968ZM22.13 68.6607C22.181 67.7506 22.597 66.8995 23.2838 66.2997C23.9707 65.6999 24.8706 65.402 25.78 65.4733C27.87 65.4733 28.91 66.6423 29.16 68.6607L22.13 68.6607Z" fill="#000000" fill-rule="nonzero" opacity="1" stroke="none"/>
<path d="M87.68 65.2535L86.91 61.5665L82.43 61.5665L82.43 79.5518L88.14 79.5518L88.14 71.5583C88.14 68.3709 88.94 67.2219 92.19 67.2219L94.28 67.2219L94.28 61.3167L93.28 61.3167C90.07 61.3167 88.26 62.4658 87.68 65.2535Z" fill="#000000" fill-rule="nonzero" opacity="1" stroke="none"/>
<path d="M71.17 61.1968C65.61 61.1968 62.02 64.6939 62.02 70.4592L62.02 70.9988C62.02 76.5442 64.91 79.9914 71.08 79.9914C76.26 79.9914 79.03 77.6034 80.01 73.8265L74.08 73.8265C73.6155 74.9655 72.4544 75.6615 71.23 75.5351C70.2871 75.6188 69.3521 75.3048 68.6512 74.669C67.9504 74.0333 67.5475 73.1336 67.54 72.1878L80.13 72.1878L80.13 70.1894C80.13 65.3134 77.46 61.1968 71.17 61.1968ZM67.54 68.6607C67.5883 67.7496 68.0035 66.8968 68.691 66.2964C69.3785 65.696 70.2799 65.3991 71.19 65.4733C73.28 65.4733 74.32 66.6423 74.57 68.6607L67.54 68.6607Z" fill="#000000" fill-rule="nonzero" opacity="1" stroke="none"/>
</g>
</g>
</svg>
