<svg id="Camada_1" data-name="Camada 1" xmlns="http://www.w3.org/2000/svg" viewBox="0 0 200 80"><path d="M136.26,0a21.58,21.58,0,0,0-18.33,10.18c.2.31.37.62.55.94l.13.23c.3.54.56,1.1.81,1.67l.18.45c.19.46.36.93.52,1.41,0,.14.1.29.14.43.18.6.34,1.21.47,1.83,0,.12,0,.24.07.36.1.52.18,1.05.24,1.58l.06.53c.06.65.1,1.31.1,2h0c0,.66,0,1.32-.1,2l-.06.53c-.06.53-.14,1.05-.24,1.57,0,.13,0,.25-.07.37-.13.62-.29,1.23-.47,1.83,0,.14-.09.29-.14.44-.16.47-.33.94-.52,1.4l-.18.45c-.25.57-.51,1.13-.81,1.67,0,.08-.09.16-.14.24q-.25.48-.54.93A21.6,21.6,0,1,0,136.26,0Z"/><path d="M117.23,31.82c-.29-.54-.56-1.1-.81-1.67l-.18-.45c-.19-.46-.36-.93-.52-1.4,0-.15-.1-.3-.14-.44-.18-.6-.34-1.21-.47-1.83,0-.12,0-.24-.07-.37-.1-.52-.18-1-.24-1.57l-.06-.53c0-.65-.09-1.31-.09-2h0c0-.67,0-1.33.09-2l.06-.53c.06-.53.14-1.06.24-1.58,0-.12,0-.24.07-.36.13-.62.29-1.23.47-1.83,0-.14.09-.29.14-.43.16-.48.33-1,.52-1.41l.18-.45c.25-.57.52-1.13.81-1.67l.13-.23c.18-.32.36-.63.55-.94a21.59,21.59,0,0,0-36.66,0c.19.31.37.62.54.94l.14.23c.29.54.56,1.1.8,1.67.07.15.12.3.19.45.18.46.36.93.51,1.41l.15.43c.18.6.34,1.21.47,1.83l.06.36c.1.52.18,1.05.24,1.58,0,.18.05.36.06.53.06.65.1,1.31.1,2h0c0,.66,0,1.32-.1,2,0,.17,0,.35-.06.53-.06.53-.14,1.05-.24,1.57l-.06.37c-.13.62-.29,1.23-.47,1.83l-.15.44c-.15.47-.33.94-.51,1.4-.06.15-.12.3-.19.45-.24.57-.51,1.13-.8,1.67-.05.08-.1.16-.14.24-.18.32-.35.63-.54.93a21.59,21.59,0,0,0,36.66,0q-.28-.45-.54-.93C117.32,32,117.27,31.9,117.23,31.82Z"/><path d="M80.54,31.82c-.29-.54-.56-1.1-.8-1.67-.07-.15-.12-.3-.19-.45-.18-.46-.36-.93-.51-1.4l-.15-.44c-.18-.6-.34-1.21-.47-1.83l-.06-.37c-.1-.52-.18-1-.24-1.57l-.06-.53c-.06-.65-.1-1.31-.1-2h0c0-.67,0-1.33.1-2l.06-.53c.06-.53.14-1.06.24-1.58l.06-.36c.13-.62.29-1.23.47-1.83l.15-.43c.15-.48.33-1,.52-1.41.06-.15.11-.3.18-.45.24-.57.51-1.13.8-1.67l.14-.23c.17-.32.35-.63.54-.94a21.59,21.59,0,1,0,0,22.81c-.19-.3-.36-.61-.54-.93C80.64,32,80.59,31.9,80.54,31.82Z"/><path d="M81.22,33l0,0v0Z"/><path d="M81.25,10.18v0l0,0,0,0Z"/><path d="M81.79,32.06c0-.08.09-.16.14-.24.29-.54.56-1.1.8-1.67.07-.15.13-.3.19-.45.18-.46.36-.93.51-1.4l.15-.44c.18-.6.34-1.21.47-1.83l.06-.37c.1-.52.18-1,.24-1.57,0-.18.05-.36.06-.53.06-.65.1-1.31.1-2h0c0-.67,0-1.33-.1-2,0-.17,0-.35-.06-.53-.06-.53-.14-1.06-.24-1.58l-.06-.36c-.13-.62-.29-1.23-.47-1.83l-.15-.43c-.15-.48-.33-1-.51-1.41-.06-.15-.12-.3-.19-.45-.24-.57-.51-1.13-.8-1.67l-.14-.23c-.17-.31-.36-.61-.55-.92-.19.31-.39.61-.56.92l-.14.23c-.29.54-.56,1.1-.8,1.67-.07.15-.12.3-.18.45-.19.46-.37.93-.52,1.41l-.15.43c-.18.6-.34,1.21-.47,1.83l-.06.36c-.1.52-.18,1.05-.24,1.58l-.06.53c-.06.65-.1,1.31-.1,2h0c0,.66,0,1.32.1,2l.06.53c.06.53.14,1.05.24,1.57l.06.37c.13.62.29,1.23.47,1.83l.15.44c.15.47.33.94.51,1.4.07.15.12.3.19.45.24.57.51,1.13.8,1.67,0,.08.1.16.14.24.18.31.37.61.56.91C81.42,32.67,81.61,32.37,81.79,32.06Z"/><path d="M117.93,10.18v0Z"/><path d="M117.91,33v0Z"/><path d="M118.47,32.06c0-.08.1-.16.14-.24.3-.54.56-1.1.81-1.67l.18-.45c.19-.46.36-.93.52-1.4,0-.15.1-.3.14-.44.18-.6.34-1.21.47-1.83,0-.12,0-.24.07-.37.1-.52.18-1,.24-1.57l.06-.53c.06-.65.1-1.31.1-2h0c0-.67,0-1.33-.1-2l-.06-.53c-.06-.53-.14-1.06-.24-1.58,0-.12,0-.24-.07-.36-.13-.62-.29-1.23-.47-1.83,0-.14-.09-.29-.14-.43-.16-.48-.33-1-.52-1.41l-.18-.45c-.25-.57-.51-1.13-.81-1.67l-.13-.23c-.18-.31-.37-.61-.56-.92-.19.31-.38.61-.56.92l-.13.23c-.29.54-.56,1.1-.81,1.67l-.18.45c-.19.46-.36.93-.52,1.41,0,.14-.1.29-.14.43-.18.6-.34,1.21-.47,1.83,0,.12,0,.24-.07.36-.1.52-.18,1.05-.24,1.58l-.06.53c0,.65-.09,1.31-.09,2h0c0,.66,0,1.32.09,2l.06.53c.06.53.14,1.05.24,1.57,0,.13,0,.25.07.37.13.62.29,1.23.47,1.83,0,.14.1.29.14.44.16.47.33.94.52,1.4l.18.45c.25.57.52,1.13.81,1.67,0,.08.09.16.14.24.17.31.36.61.55.91C118.11,32.67,118.3,32.37,118.47,32.06Z"/><path d="M149.09,70.42c0-6-3.62-9.23-9-9.23s-9,3.13-9,9.23V71c0,6,3.19,9,9,9,5.44,0,9-3,9-9Zm-5.56.5c0,2.82-1.35,4.22-3.4,4.22s-3.44-1.46-3.44-4.22v-.5c0-3,1.38-4.46,3.47-4.46s3.37,1.52,3.37,4.46Z"/><path d="M179,55.67v8.46a5.26,5.26,0,0,0-5.15-2.91c-4.08,0-7,2.79-7,8.83v.53c0,6.17,2.7,9.3,7,9.3a5.48,5.48,0,0,0,5.4-3.47l.52,3.13h4.76V55.67Zm.07,14.88c0,3-1.35,4.52-3.41,4.52-1.9,0-3.22-1.3-3.22-4.52v-.4c0-2.82,1.22-4.28,3.31-4.28s3.32,1.55,3.32,4.28Z"/><polygon points="167.23 61.56 160.94 61.56 158.02 66.12 155.1 61.56 148.78 61.56 154.74 70.18 148.17 79.53 154.74 79.53 157.99 74.45 161.24 79.53 167.63 79.53 161.3 70.11 167.23 61.56"/><polygon points="21.23 57.32 15.46 57.32 15.46 79.53 30.47 79.53 30.47 73.99 21.23 73.99 21.23 57.32"/><path d="M71.89,57.07h-4.6c0,.74-.09,1.39-.18,2.14-.19,1.52-.62,2-1.75,2.17a8.31,8.31,0,0,1-1.75.18H59.2V57.07H54.59c0,.74-.09,1.7-.18,2.45-.18,1.52-.61,2-1.75,2.17a8.17,8.17,0,0,1-1.75.18v4.68h3V72c0,5.61,1.32,7.57,6.69,7.57h2.83V74.3H62.3c-2.64,0-3.1-.34-3.1-3.44V66.55h7.41V72c0,5.61,1.32,7.57,6.7,7.57h2.82V74.3H75c-2.64,0-3.1-.34-3.1-3.44V66.55h4.24v-5H71.89Z"/><path d="M122.48,61.19a5.43,5.43,0,0,0-5.22,3.25V55.67h-5.53V79.54h4.88l.43-3A5.35,5.35,0,0,0,122.35,80c4.39,0,7.06-3.28,7.06-9.39v-.56C129.41,64,126.47,61.22,122.48,61.19Zm1.38,9.39c0,3.16-1.26,4.49-3.32,4.49s-3.37-1.45-3.37-4.58v-.41c0-2.63,1.38-4.21,3.4-4.21s3.29,1.42,3.29,4.28Z"/><path d="M41.18,61.19c-5.55,0-9.14,3.5-9.14,9.27V71c0,5.55,2.88,9,9.05,9C46.28,80,49,77.61,50,73.83H44.1a2.77,2.77,0,0,1-2.86,1.71c-2.14,0-3.37-1.18-3.65-3.35H50.15v-2C50.15,65.31,47.47,61.19,41.18,61.19Zm-3.59,7.47a3.39,3.39,0,0,1,3.65-3.19c2.09,0,3.13,1.17,3.38,3.19Z"/><path d="M103.14,65.25l-.77-3.69H97.89v18h5.71v-8c0-3.19.8-4.34,4.05-4.34h2.09V61.31h-1C105.53,61.31,103.72,62.46,103.14,65.25Z"/><path d="M86.63,61.19c-5.56,0-9.15,3.5-9.15,9.27V71c0,5.55,2.89,9,9.06,9,5.18,0,7.95-2.39,8.93-6.17H89.54a2.77,2.77,0,0,1-2.85,1.71A3.39,3.39,0,0,1,83,72.19H95.59v-2C95.59,65.31,92.92,61.19,86.63,61.19ZM83,68.66a3.38,3.38,0,0,1,3.65-3.19c2.09,0,3.13,1.17,3.38,3.19Z"/></svg>