<svg width="32" height="32" viewBox="0 0 8.467 8.467" xmlns="http://www.w3.org/2000/svg">
  <path d="M135.46 29.377c-63.329 0-114.666 51.337-114.666 114.666a114.668 114.668 0 0 0 26.503 73.221 11.99 11.99 0 0 1 1.122-1.578c6.402-7.604 13.645-13.366 24.793-25.193 4.956-5.258 8.298 20.453 10.002 18.724 1.733-1.758.193-24.864 4.588-32.288 7.926-13.384 14.046-23.643 29.23-40.052 3.721-4.023 7.24 14.686 8.906 12.086 1.495-2.332-.352-24.394 2.05-31.11 6.388-17.858 4.4-17.286 20.39-41.06 2.746-4.083 8.501 10.39 9.442 8.279.918-2.06-1.101-14.566-.88-20.683.487-4.122 4.717-17.089 10.084-30.578a114.67 114.67 0 0 0-31.563-4.435zm56.455 14.86c7.284 80.603-24.112 157.948-82.175 211.535a114.668 114.668 0 0 0 25.721 2.93c63.328 0 114.666-51.338 114.666-114.666 0-41.327-22.24-79.457-58.212-99.805z" fill="url(#linearGradient6949)" style="fill:#000;stroke-width:1.3086" transform="matrix(.03125 0 0 .03125 0 -.043)"/>
  <path d="M190.956 1.386c-10.089 12.298-26.108 56.123-27.082 64.388-.223 6.116 1.796 18.623.879 20.682-.941 2.112-6.696-12.36-9.442-8.279-15.99 23.775-14.002 23.203-20.39 41.062-2.403 6.715-.556 28.776-2.05 31.109-1.667 2.6-5.185-16.109-8.907-12.086-15.184 16.41-21.303 26.668-29.23 40.052-4.395 7.423-2.854 30.53-4.587 32.288-1.704 1.73-5.047-23.98-10.003-18.724-11.148 11.827-18.39 17.589-24.792 25.193-6.803 8.079-1.024 23.01-6.631 46.302l.19.289C150.256 197.829 181.758 97.26 189.727 26.557c-.89 83.658-38.485 186.842-137.834 241.633l.147.224c26.488-2.854 29.191 13.685 58.314-5.606 73.01-63.175 107.117-162.646 80.6-261.432z" fill="url(#linearGradient903)" style="fill:#000;stroke-width:1.3086" transform="matrix(.03125 0 0 .03125 0 -.043)"/>
</svg>