<svg id="svg2" xmlns="http://www.w3.org/2000/svg" viewBox="0 0 200 80"><g id="layer1"><g id="text4136"><path id="path4174" d="M18.29,62.6H0V18.09H6.71V55.92H18.29V62.6Z"/><path id="path4176" d="M29.67,62.6H23V18.09h6.71Z"/><path id="path4178" d="M35.65,62.6V18.05H45.71a12.77,12.77,0,0,1,7.17,2.1,9.76,9.76,0,0,1,3.91,5.5,15.73,15.73,0,0,1,.64,4.73,10.48,10.48,0,0,1-2.38,7.17,6.77,6.77,0,0,1-2.35,1.74,7.78,7.78,0,0,1,3.8,3.38A12.93,12.93,0,0,1,58,47.07a17.26,17.26,0,0,1,.25,3.09,14.85,14.85,0,0,1-1.6,7.18A9.57,9.57,0,0,1,53.17,61a9.73,9.73,0,0,1-5.08,1.57ZM42.9,56h2.81q3.4,0,4.72-3.51a7.7,7.7,0,0,0,.46-2.77q0-3.73-1.42-5.44a4.58,4.58,0,0,0-3.76-1.56H42.9Zm0-19.71h2.81a4.11,4.11,0,0,0,4.19-3.06,8.67,8.67,0,0,0,.39-2.8,5.85,5.85,0,0,0-1.35-4.19,4.24,4.24,0,0,0-3.23-1.32H42.9V36.24Z"/><path id="path4180" d="M74.66,18.09c3.75,0,6.49,1,8.24,3.09q2.31,2.7,2.31,7.53v6.46a10.42,10.42,0,0,1-3.58,8l5,19.43H79.35L75.27,45.79a3.91,3.91,0,0,1-.61,0H70.79V62.6H64.08V18.09Zm4,10.73q0-3.88-3.84-3.88h-4V39.19h4a3.6,3.6,0,0,0,2.7-1.14,3.72,3.72,0,0,0,1.14-2.73v-6.5Z"/><path id="path4182" d="M92.41,62.6V18.05h19.11v6.72H99.12V37h9.06V43.7H99.12V55.88h12.4V62.6Z"/><path id="path4184" d="M122.86,62.6h-6.72V18.05h19.11v6.72H122.86V37h9V43.7h-9Z"/><path id="path4186" d="M158.17,62.6H139.88V18.09h6.71V55.92h11.58V62.6Z"/><path id="path4188" d="M169.55,62.6h-6.72V18.09h6.72Z"/><path id="path4190" d="M199.9,62.6h-7.21l-5.15-14.14L182.35,62.6h-7.21l8.74-22.38-8.74-22.13h7.43l5,13.74,4.94-13.74h7.42l-8.74,22.13Z"/></g><g id="text4136-6"><path id="path4155" d="M18.39,62H.1V17.44H6.81V55.27H18.39Z"/><path id="path4157" d="M29.77,62H23.05V17.44h6.72Z"/><path id="path4159" d="M35.75,62V17.4H45.81A12.77,12.77,0,0,1,53,19.5,9.75,9.75,0,0,1,56.89,25a15.66,15.66,0,0,1,.64,4.72,10.51,10.51,0,0,1-2.38,7.18,7,7,0,0,1-2.35,1.74A7.75,7.75,0,0,1,56.6,42a13.09,13.09,0,0,1,1.53,4.4,17.3,17.3,0,0,1,.25,3.1,14.84,14.84,0,0,1-1.6,7.17A10.34,10.34,0,0,1,48.19,62ZM43,55.31h2.81c2.27,0,3.84-1.18,4.72-3.52A7.7,7.7,0,0,0,51,49q0-3.74-1.42-5.44A4.58,4.58,0,0,0,45.81,42H43Zm0-19.72h2.81A4.12,4.12,0,0,0,50,32.54a8.78,8.78,0,0,0,.39-2.81A5.86,5.86,0,0,0,49,25.54a4.24,4.24,0,0,0-3.23-1.32H43V35.59Z"/><path id="path4161" d="M74.76,17.44c3.75,0,6.49,1,8.24,3.09q2.31,2.7,2.31,7.53v6.47a10.41,10.41,0,0,1-3.58,8L86.7,62H79.45l-4.08-16.8a5.79,5.79,0,0,1-.61,0H70.89V62H64.18V17.44Zm4,10.73q0-3.87-3.84-3.87h-4V38.54h4a3.6,3.6,0,0,0,2.7-1.14,3.72,3.72,0,0,0,1.14-2.73v-6.5Z"/><path id="path4163" d="M92.51,62V17.4h19.11v6.72H99.22V36.3h9.06v6.75H99.22V55.23h12.4V62Z"/><path id="path4165" d="M123,62h-6.72V17.4h19.11v6.72H123V36.3h9v6.75h-9Z"/><path id="path4167" d="M158.27,62H140V17.44h6.71V55.27h11.58Z"/><path id="path4169" d="M169.65,62h-6.72V17.44h6.72Z"/><path id="path4171" d="M200,62h-7.21l-5.15-14.14L182.45,62h-7.21L184,39.57l-8.74-22.13h7.43l5,13.75,4.94-13.75H200l-8.74,22.13Z"/></g></g></svg>