<?xml version="1.0" encoding="UTF-8" standalone="no"?>
<svg version="1.1" width="32" height="32" id="svg12" sodipodi:docname="libreflix-logo-24.svg" inkscape:version="1.4-beta2 (9aaf4f34, 2024-07-30)" xmlns:inkscape="http://www.inkscape.org/namespaces/inkscape" xmlns:sodipodi="http://sodipodi.sourceforge.net/DTD/sodipodi-0.dtd" xmlns="http://www.w3.org/2000/svg" xmlns:svg="http://www.w3.org/2000/svg">
  <defs id="defs12" />
  <sodipodi:namedview id="namedview12" pagecolor="#ffffff" bordercolor="#000000" borderopacity="0.25" inkscape:showpageshadow="2" inkscape:pageopacity="0.0" inkscape:pagecheckerboard="0" inkscape:deskcolor="#d1d1d1" inkscape:zoom="4.5259063" inkscape:cx="7.7332578" inkscape:cy="47.614773" inkscape:window-width="1440" inkscape:window-height="872" inkscape:window-x="0" inkscape:window-y="0" inkscape:window-maximized="1" inkscape:current-layer="svg12" />
  <g id="g12" transform="matrix(0.09445669,0,0,0.09445669,1.4113213,-0.23542892)">
    <path id="path7-3" style="fill:#000000;fill-opacity:0.413793" d="m 34.086823,2.4924609 c -1.167422,0.05043 -2.300508,0.09944 -3.433594,0.14844 -9.214314,0.26708 -15.926722,3.41944 -22.2499999,10.0625001 -8.486617,10.09614 -8.487816,10.09712 -5.798828,59.39256 0.216385,3.96068 0.4293,7.92187 0.640625,11.88282 0.358045,6.71304 0.719753,13.42597 1.083985,20.138669 0.371452,6.84133 0.741776,13.6818 1.107422,20.52344 0.04585,0.85877 0.09027,1.69188 0.134765,2.52539 0.08968,1.67941 0.179851,3.35965 0.269531,5.03906 0.824879,15.44739 1.661659,30.89435 2.521485,46.33984 0.435084,7.81468 0.866048,15.62873 1.265625,23.44531 0.242714,4.77277 0.4919009,9.54455 0.7519529,14.31641 0.117506,2.13208 0.233237,4.26424 0.347656,6.39649 0.376145,7.89804 0.320309,15.97273 2.382813,23.64453 3.505472,9.10323 8.72353,14.4418 17.621093,18.55859 7.827425,2.49214 16.929685,2.78279 24.484375,-0.76562 3.01446,-1.89052 5.90805,-3.55424 9.16406,-4.98047 3.78775,-1.58316 7.16016,-3.70966 10.31446,-6.32618 0.83535,-0.99792 1.29894,-1.93839 1.63281,-2.88867 0.72152,-0.45858 1.42465,-0.90518 2.126952,-1.35156 l 2.96484,-1.88477 c 4.30007,-2.73382 8.58441,-5.4887 12.85547,-8.26757 1.65579,-1.07892 3.31239,-2.15831 4.96875,-3.23633 0.906859,-0.59019 1.787779,-1.16351 2.667969,-1.73633 3.41038,-2.22042 6.82167,-4.43942 10.23438,-6.65625 8.8625,-5.75686 17.71937,-11.52224 26.57031,-17.29687 6.34969,-4.14293 12.70106,-8.28319 19.0586,-12.41407 7.00695,-4.55172 14.01163,-9.1066 21.00976,-13.67187 7.43054,-4.8481 14.86078,-9.69664 22.29883,-14.53321 0.85266,-0.55441 1.68023,-1.09275 2.50781,-1.63085 4.01785,-2.61631 8.03345,-5.23362 12.07422,-7.81446 1.22847,-0.78191 1.22946,-0.7824 2.4336,-1.54883 1.53885,-0.98341 3.07789,-1.9665 4.61718,-2.94921 4.25255,-2.67851 8.09627,-5.17778 11.5,-8.9375 -0.2249,-0.11103 -0.44523,-0.23042 -0.66992,-0.3418 0.55829,0.11014 1.09022,0.27491 1.66992,0.3418 1.85567,-2.30706 3.48636,-4.46826 5,-7 3.14458,-7.68949 4.03356,-14.78056 1.74219,-22.89454 -4.79925,-13.61471 -15.71833,-18.958389 -28.04883,-24.919919 -2.70828,-1.30682 -5.40918,-2.62772 -8.10937,-3.95117 -0.69509,-0.34104 -1.37027,-0.67289 -2.04492,-1.00391 -5.1774,-2.53269 -10.30739,-5.13713 -15.40235,-7.83203 -10.95769,-5.81414 -22.02498,-11.38529 -33.13672,-16.89843 -10.27111,-5.09605 -20.52474,-10.20864 -30.65625,-15.57813 -7.66413,-4.06307 -15.38791,-7.98609 -23.15625,-11.845697 -10.135579,-5.02687 -20.288709,-10.027123 -30.326171,-15.248043 -0.6464,-0.33746 -1.273,-0.66465 -1.90039,-0.99219 -2.36374,-1.23368 -4.72528,-2.47134 -7.08594,-3.71093 C 53.596429,9.6304409 43.900579,3.0986409 34.086823,2.4924609 Z" />
    <path id="path7" style="fill:#000000" d="m 98.723764,76.972087 c -1.167422,0.05043 -2.300508,0.09944 -3.433594,0.14844 -9.214314,0.26708 -15.926722,3.41944 -22.25,10.0625 -8.486617,10.09614 -8.487816,10.09712 -5.798828,59.392563 0.216385,3.96068 0.4293,7.92187 0.640625,11.88282 0.358045,6.71304 0.719753,13.42597 1.083985,20.13867 0.371452,6.84133 0.741776,13.6818 1.107422,20.52344 0.04585,0.85877 0.09027,1.69188 0.134765,2.52539 0.08968,1.67941 0.179851,3.35965 0.269531,5.03906 0.824879,15.44739 1.661659,30.89435 2.521485,46.33984 0.435084,7.81468 0.866048,15.62873 1.265625,23.44531 0.242714,4.77277 0.491901,9.54455 0.751953,14.31641 0.117506,2.13208 0.233237,4.26424 0.347656,6.39649 0.376145,7.89804 0.320309,15.97273 2.382813,23.64453 3.505472,9.10323 8.72353,14.4418 17.621093,18.55859 7.827425,2.49214 16.929685,2.78279 24.484375,-0.76562 3.01446,-1.89052 5.90805,-3.55424 9.16406,-4.98047 3.78775,-1.58316 7.16016,-3.70966 10.31446,-6.32618 0.83535,-0.99792 1.29894,-1.93839 1.63281,-2.88867 0.72152,-0.45858 1.42465,-0.90518 2.12695,-1.35156 l 2.96484,-1.88477 c 4.30007,-2.73382 8.58441,-5.4887 12.85547,-8.26757 1.65579,-1.07892 3.31239,-2.15831 4.96875,-3.23633 0.90686,-0.59019 1.78778,-1.16351 2.66797,-1.73633 3.41038,-2.22042 6.82167,-4.43942 10.23438,-6.65625 8.8625,-5.75686 17.71937,-11.52224 26.57031,-17.29687 6.34969,-4.14293 12.70106,-8.28319 19.0586,-12.41407 7.00695,-4.55172 14.01163,-9.1066 21.00976,-13.67187 7.43054,-4.8481 14.86078,-9.69664 22.29883,-14.53321 0.85266,-0.55441 1.68023,-1.09275 2.50781,-1.63085 4.01785,-2.61631 8.03345,-5.23362 12.07422,-7.81446 1.22847,-0.78191 1.22946,-0.7824 2.4336,-1.54883 1.53885,-0.98341 3.07789,-1.9665 4.61718,-2.94921 4.25255,-2.67851 8.09627,-5.17778 11.5,-8.9375 -0.2249,-0.11103 -0.44523,-0.23042 -0.66992,-0.3418 0.55829,0.11014 1.09022,0.27491 1.66992,0.3418 1.85567,-2.30706 3.48636,-4.46826 5,-7 3.14458,-7.68949 4.03356,-14.78056 1.74219,-22.89454 -4.79925,-13.61471 -15.71833,-18.95839 -28.04883,-24.91992 -2.70828,-1.30682 -5.40918,-2.62772 -8.10937,-3.95117 -0.69509,-0.34104 -1.37027,-0.67289 -2.04492,-1.00391 -5.1774,-2.53269 -10.30739,-5.13713 -15.40235,-7.83203 -10.95769,-5.81414 -22.02498,-11.38529 -33.13672,-16.89843 -10.27111,-5.09605 -20.52474,-10.20864 -30.65625,-15.57813 -7.66413,-4.06307 -15.38791,-7.98609 -23.15625,-11.8457 -10.13558,-5.02687 -20.28871,-10.027123 -30.32617,-15.248043 -0.6464,-0.33746 -1.273,-0.66465 -1.90039,-0.99219 -2.36374,-1.23368 -4.72528,-2.47134 -7.08594,-3.71093 -8.4943,-4.51046 -18.19015,-11.04226 -28.003906,-11.64844 z" />
  </g>
</svg>
