<?xml version="1.0" encoding="UTF-8" standalone="no"?>
<!-- Uploaded to: SVG Repo, www.svgrepo.com, Generator: SVG Repo Mixer Tools -->

<svg width="32" height="32" viewBox="0 0 0.96 0.96" fill="none" version="1.1" id="svg1" sodipodi:docname="linkedin-svgrepo-com.svg" inkscape:version="1.4-beta2 (9aaf4f34, 2024-07-30)" xmlns:inkscape="http://www.inkscape.org/namespaces/inkscape" xmlns:sodipodi="http://sodipodi.sourceforge.net/DTD/sodipodi-0.dtd" xmlns="http://www.w3.org/2000/svg" xmlns:svg="http://www.w3.org/2000/svg">
  <defs id="defs1" />
  <sodipodi:namedview id="namedview1" pagecolor="#ffffff" bordercolor="#000000" borderopacity="0.25" inkscape:showpageshadow="2" inkscape:pageopacity="0.0" inkscape:pagecheckerboard="0" inkscape:deskcolor="#d1d1d1" inkscape:zoom="4.6475194" inkscape:cx="15.707304" inkscape:cy="6.9929778" inkscape:window-width="1440" inkscape:window-height="790" inkscape:window-x="0" inkscape:window-y="0" inkscape:window-maximized="1" inkscape:current-layer="svg1" />
  <path d="m 0.88315378,8.6953647e-5 h -0.8009266 c -0.010323,-4.83499997e-4 -0.020641,0.0010699964 -0.030362,0.0045799964 -0.00972,0.00351 -0.018654,0.0089 -0.026289,0.015866 -0.00763,0.00697 -0.01382,0.015369 -0.018203,0.024729 -0.00438,0.00936 -0.006879998,0.019492 -0.0073399983,0.029816 v 0.8027283 c 6.0469998e-4,0.021604 0.0094599983,0.042164 0.0247429983,0.057445 0.015285,0.015287 0.035841,0.024142 0.057449,0.024748 h 0.8009266 c 0.021004,-9.359e-4 0.040808,-0.010067 0.055165,-0.025432 0.014357,-0.015365 0.02212,-0.035739 0.021628,-0.056761 v -0.8027261 c 1.74e-4,-0.010049 -0.00171,-0.020027 -0.00553,-0.029322 -0.00382,-0.00929 -0.0095,-0.017712 -0.016697,-0.024734 -0.00719,-0.00702 -0.015737,-0.0125 -0.02512,-0.016101 -0.00938,-0.0036 -0.019402,-0.005249996 -0.029445,-0.0048399964 z M 0.30000718,0.80041555 h -0.1397872 v -0.4277609 h 0.1397872 z m -0.0665939,-0.4925567 c -0.00975,3.401e-4 -0.019474,-0.00134 -0.028548,-0.00494 -0.00907,-0.0036 -0.017307,-0.00903 -0.024179,-0.01596 -0.00687,-0.00693 -0.01224,-0.015206 -0.015762,-0.024309 -0.00352,-0.0091 -0.00512,-0.018836 -0.0047,-0.028587 -4.313e-4,-0.00986 0.0012,-0.019695 0.0048,-0.028883 0.00359,-0.00919 0.00907,-0.017524 0.016074,-0.024472 0.00701,-0.00695 0.015384,-0.012356 0.024601,-0.015875 0.00922,-0.00352 0.019069,-0.00507 0.028921,-0.00456 0.00975,-3.396e-4 0.019474,0.00134 0.028548,0.00494 0.00907,0.0036 0.017307,0.00903 0.02418,0.01596 0.00687,0.00693 0.01224,0.015206 0.015762,0.024309 0.00352,0.0091 0.00512,0.018836 0.0047,0.028587 4.314e-4,0.00986 -0.0012,0.019695 -0.0048,0.028883 -0.00359,0.00919 -0.00907,0.017524 -0.016074,0.024472 -0.007,0.00695 -0.015384,0.012356 -0.024601,0.015875 -0.00922,0.00352 -0.019069,0.00507 -0.028922,0.00456 z m 0.5669481,0.4925567 h -0.1403871 v -0.2339786 c 0,-0.055795 -0.019798,-0.094191 -0.069594,-0.094191 -0.015466,1.32e-4 -0.030519,0.00505 -0.043082,0.014069 -0.012569,0.00902 -0.022036,0.021712 -0.027112,0.036327 -0.0039,0.010955 -0.00553,0.022588 -0.0048,0.034197 v 0.2435766 h -0.1379862 v -0.4277609 h 0.1379874 v 0.059995 c 0.012269,-0.02254 0.030525,-0.041246 0.052759,-0.054061 0.022234,-0.012809 0.047576,-0.019223 0.073229,-0.018534 0.090592,0 0.1589854,0.059996 0.1589854,0.1877846 z" fill="#000000" id="path1" style="stroke-width:0.0599945" />
</svg>
