<?xml version="1.0" encoding="UTF-8" standalone="no"?>
<!-- Created with Inkscape (http://www.inkscape.org/) -->

<svg width="32mm" height="32mm" viewBox="0 0 31.999999 32" version="1.1" id="svg8" inkscape:version="1.4-beta2 (9aaf4f34, 2024-07-30)" sodipodi:docname="Looke_logo.svg" xmlns:inkscape="http://www.inkscape.org/namespaces/inkscape" xmlns:sodipodi="http://sodipodi.sourceforge.net/DTD/sodipodi-0.dtd" xmlns="http://www.w3.org/2000/svg" xmlns:svg="http://www.w3.org/2000/svg" xmlns:rdf="http://www.w3.org/1999/02/22-rdf-syntax-ns#" xmlns:cc="http://creativecommons.org/ns#" xmlns:dc="http://purl.org/dc/elements/1.1/">
  <defs id="defs2" />
  <sodipodi:namedview id="base" pagecolor="#ffffff" bordercolor="#666666" borderopacity="1.0" inkscape:pageopacity="0.0" inkscape:pageshadow="2" inkscape:zoom="0.61395782" inkscape:cx="131.1165" inkscape:cy="149.03304" inkscape:document-units="mm" inkscape:current-layer="svg8" showgrid="false" fit-margin-top="0" fit-margin-left="0" fit-margin-right="0" fit-margin-bottom="0" inkscape:window-width="1440" inkscape:window-height="872" inkscape:window-x="0" inkscape:window-y="0" inkscape:window-maximized="1" inkscape:showpageshadow="2" inkscape:pagecheckerboard="0" inkscape:deskcolor="#d1d1d1" />
  <metadata id="metadata5">
    <rdf:RDF>
      <cc:Work rdf:about="">
        <dc:format>image/svg+xml</dc:format>
        <dc:type rdf:resource="http://purl.org/dc/dcmitype/StillImage" />
      </cc:Work>
    </rdf:RDF>
  </metadata>
  <path d="M 15.825902,0.0699614 C 15.373245,0.0351414 14.885767,3.214e-4 14.363471,3.214e-4 9.0708662,3.214e-4 4.022,3.7956761 4.022,8.2177862 c 0,3.0293198 1.7409884,4.2131918 4.5265697,4.2131918 -0.8356743,-0.731214 -1.6017093,-1.636529 -1.6017093,-4.108732 0,-3.1685986 1.949907,-5.3970637 5.0488666,-6.2675579 V 26.567805 c 0.278558,-0.03483 0.522296,-0.03483 0.800854,-0.03483 4.49175,0 7.695169,5.466704 11.351245,5.466704 2.367744,0 3.830174,-1.67135 3.830174,-3.586436 0,-0.313378 -0.03482,-0.626757 -0.10446,-0.940133 -0.940133,0.452656 -1.810628,0.696394 -2.681121,0.696394 -3.934634,0 -6.406838,-2.437384 -9.401338,-3.098959 V 0.1744207 Z" style="font-size:180px;font-family:LobsterTwo;fill:#000000;stroke-width:0.193443" id="path3731" inkscape:connector-curvature="0" />
  <style id="style3699" type="text/css">
	.st0{fill:none;}
	.st1{fill:#0065CF;}
	.st2{font-family:'LobsterTwo';}
	.st3{font-size:180px;}
</style>
</svg>
