<svg width="32mm" height="32mm" viewBox="0 0 32 32" version="1.1" id="svg8" xmlns="http://www.w3.org/2000/svg">
  <path d="M15.826.07c-.453-.035-.94-.07-1.463-.07C9.071 0 4.022 3.796 4.022 8.218c0 3.03 1.741 4.213 4.527 4.213-.836-.731-1.602-1.637-1.602-4.109 0-3.168 1.95-5.397 5.049-6.267v24.513c.278-.035.522-.035.8-.035 4.492 0 7.696 5.467 11.352 5.467 2.368 0 3.83-1.672 3.83-3.587 0-.313-.035-.627-.104-.94-.94.453-1.811.697-2.682.697-3.934 0-6.406-2.438-9.4-3.1V.175Z" style="font-size:180px;font-family:LobsterTwo;fill:#000;stroke-width:.193443" id="path3731"/>
  <style id="style3699" type="text/css">
    .st0{fill:none}.st1{fill:#0065cf}.st2{font-family:&apos;LobsterTwo&apos;}.st3{font-size:180px}
  </style>
</svg>