<svg width="32" height="32" xmlns="http://www.w3.org/2000/svg">
  <g style="fill:#000">
    <path d="M0 0h36c.09 12.64.164 25.279.207 37.918.021 5.87.05 11.739.095 17.608.043 5.667.067 11.334.078 17.001.007 2.16.021 4.319.043 6.478.03 3.03.033 6.06.031 9.09l.044 2.69c-.039 5.873-1.18 10.31-4.498 15.215-5.336 5.075-9.94 5.35-17.05 5.281-5.183-.494-7.706-3.003-11.2-6.594C-.197 98.626-.285 92.495-.227 85.486v-2.811c0-3.047.016-6.093.032-9.139l.008-6.36c.008-5.564.028-11.13.05-16.694.02-5.684.03-11.369.04-17.053C-.078 22.285-.042 11.143 0 0Z" transform="matrix(.20323 0 0 .20323 4.033 0)" style="fill:#000"/>
    <path d="M0 0h35c.113 12.77.205 25.54.26 38.31.025 5.93.06 11.86.117 17.79.055 5.724.084 11.45.097 17.175.01 2.182.028 4.363.055 6.545.036 3.062.04 6.122.039 9.184l.054 2.718C35.572 97.972 34.03 102.179 30 107c-5.166 4.217-9.587 4.626-16.191 4.387-5.19-.715-7.769-3.206-11.121-7.012-2.205-3.103-2.813-4.672-2.808-8.412l-.004-2.558.01-2.812v-2.956c0-3.236.009-6.472.016-9.707l.005-6.718c.003-5.902.013-11.804.024-17.706.01-6.019.015-12.038.02-18.057C-.039 23.633-.02 11.816 0 0Z" transform="matrix(.20323 0 0 .20323 13.585 0)" style="fill:#000"/>
    <path d="M0 0h3.579l3.864.016 3.955.004c3.467.004 6.934.014 10.402.025 3.539.01 7.078.015 10.617.02 6.942.01 13.884.03 20.826.049v35c-7.712.084-15.424.164-23.137.207-3.592.02-7.183.049-10.775.094-3.463.044-6.925.068-10.387.078-1.958.011-3.915.042-5.873.074-11.064.003-11.064.003-15.828-4.453-5.026-5.706-5.347-9.283-5.28-16.793.48-5.48 2.907-7.968 6.843-11.52C-7.387.165-4.517-.009 0 0Z" transform="matrix(.20323 0 0 .20323 17.194 24.772)" style="fill:#000"/>
    <path d="M0 0c4.363 2.54 6.972 5.756 8.688 10.5.853 5.255.819 10.15-1.688 14.938-2.997 3.968-5.57 6.481-10.313 8.062-5.565.49-10.406.768-15.5-1.688-4.127-3.818-7.123-6.98-7.773-12.73-.25-6.84.534-11.47 5.273-16.582C-15.31-2.878-7.236-3.058 0 0Z" transform="matrix(.20323 0 0 .20323 9.787 25.1)" style="fill:#000"/>
  </g>
</svg>