<svg id="logo" xmlns="http://www.w3.org/2000/svg" viewBox="0 0 200 80"><path d="M197.93,22.88H193.4A1.91,1.91,0,0,0,191.33,25v13.4c0,4.92-2.66,7.69-6.35,7.69-3.88,0-6.07-2.52-6.07-7.38V25a1.91,1.91,0,0,0-2.07-2.07h-4.53A1.91,1.91,0,0,0,170.24,25V39.3c0,9.12,4.72,14.3,11.83,14.3,4.28,0,7.56-1.43,9.9-4.34l.39,1.82a2.14,2.14,0,0,0,2.27,1.82h3.3A1.91,1.91,0,0,0,200,50.83V25A1.9,1.9,0,0,0,197.93,22.88Z"/><path d="M166.37,45h-8.14c-2.86,0-4.34-1.49-4.34-4.34V25a1.91,1.91,0,0,0-2.07-2.07h-4.65A1.91,1.91,0,0,0,145.1,25V41.76c0,6.92,4.2,11.14,11.13,11.14h10.16a1.91,1.91,0,0,0,2.07-2.07V47.08A1.93,1.93,0,0,0,166.37,45Z"/><path d="M34.54,24.89a1.93,1.93,0,0,0-2.12-2H29a2.66,2.66,0,0,0-2.46,1.42L18.18,38.4,10.43,24.3A2.6,2.6,0,0,0,8,22.88H4.27a1.93,1.93,0,0,0-2.12,2L0,50.77A1.72,1.72,0,0,0,2,52.9H6.09a1.91,1.91,0,0,0,2.13-2l.9-14.49,5,9a2.58,2.58,0,0,0,2.46,1.42h2.85a2.57,2.57,0,0,0,2.46-1.42l5.62-9.63.65,15.13a1.86,1.86,0,0,0,2.07,2h4.47a1.72,1.72,0,0,0,1.93-2.13Z"/><path d="M139.09,22.88h-3.56a2.08,2.08,0,0,0-2.26,1.87l-.2,1.49a12.61,12.61,0,0,0-9.78-4.06c-8.15,0-14.16,6.4-14.16,15.64,0,9.06,5.62,15.78,13.65,15.78a13.48,13.48,0,0,0,10.35-4.34l.33,1.82a2,2,0,0,0,2.21,1.82h3.44a1.91,1.91,0,0,0,2.07-2.07V25A1.93,1.93,0,0,0,139.09,22.88ZM125.16,46c-4.59,0-7.5-3.16-7.5-8.08s3-8.23,7.5-8.23,7.5,3.17,7.5,8.09S129.63,46,125.16,46Z"/><path d="M104,22.88H100.4a2.1,2.1,0,0,0-2.27,1.87l-.19,1.49a12.6,12.6,0,0,0-9.77-4.06C80,22.18,74,28.19,74,37.45c0,8.79,5.57,15,13.6,15a12.65,12.65,0,0,0,10-4.28v1.48c0,5.18-2.91,8.48-9.06,8.48a17.93,17.93,0,0,1-7.31-1.54,1.82,1.82,0,0,0-2.77.9L77,60.34a1.88,1.88,0,0,0,.71,2.77A24.11,24.11,0,0,0,89.4,65.82c10.16,0,16.62-6.4,16.62-15.33V25A1.91,1.91,0,0,0,104,22.88ZM90.05,45.06c-4.47,0-7.5-3-7.5-7.57,0-4.85,3.16-7.76,7.5-7.76s7.5,2.66,7.5,7.64A7.35,7.35,0,0,1,90.05,45.06Z"/><path d="M68.84,22.88H65.28A2.08,2.08,0,0,0,63,24.75l-.2,1.49a12.59,12.59,0,0,0-9.76-4.06c-8.15,0-14.16,6.4-14.16,15.64,0,9.06,5.62,15.78,13.65,15.78A13.48,13.48,0,0,0,62.9,49.26l.33,1.82a2,2,0,0,0,2.21,1.82h3.44A1.91,1.91,0,0,0,71,50.83V25A2,2,0,0,0,68.84,22.88ZM54.93,46c-4.59,0-7.5-3.16-7.5-8.08s3-8.23,7.5-8.23,7.5,3.17,7.5,8.09S59.39,46,54.93,46Z"/></svg>