<?xml version="1.0" encoding="UTF-8" standalone="no"?>
<svg id="a" viewBox="0 0 32 32" version="1.1" width="32" height="32" xmlns="http://www.w3.org/2000/svg" xmlns:svg="http://www.w3.org/2000/svg">
  <defs id="defs1">
    <style id="style1">.b{stroke-width:0px;}</style>
  </defs>
  <path class="b" d="m 30.134887,4.6674095 c 0.03484,-0.932 -0.679402,-1.707215 -1.611401,-1.750766 -0.07839,0 -0.156785,0 -0.235177,0 h -2.978915 c -0.897158,-0.03484 -1.724634,0.444224 -2.142728,1.23686 L 15.884875,16.426282 9.1344107,4.1447925 C 8.733738,3.3521575 7.9062621,2.8730925 7.017814,2.9079335 H 3.768881 c -0.9232893,-0.09581 -1.7507656,0.583588 -1.8378684,1.506878 0,0.07839 -0.00871,0.156785 0,0.235177 L 0.04959293,27.209604 c -0.20904663,0.801346 0.26130829,1.620112 1.06265377,1.837869 0.2264672,0.06097 0.4529344,0.06968 0.6794015,0.01742 h 3.562503 c 0.914579,0.104523 1.7420553,-0.548748 1.8465786,-1.454617 0.00871,-0.09581 0.01742,-0.191625 0.00871,-0.287438 l 0.7839248,-12.621191 4.3551374,7.839249 c 0.400673,0.801345 1.24557,1.289121 2.142728,1.236859 h 2.482428 c 0.897159,0.05226 1.742056,-0.435514 2.142728,-1.236859 L 24.011562,14.1529 24.57773,27.331547 c -0.06968,0.888449 0.592298,1.672374 1.480747,1.750766 0.104523,0.0087 0.217757,0 0.32228,0 h 3.893494 c 0.818766,0.130654 1.58527,-0.435514 1.707214,-1.245569 0.03484,-0.200337 0.01742,-0.409383 -0.02613,-0.609719 L 30.134885,4.6761155 Z" id="path3" />
</svg>
