<?xml version="1.0" encoding="UTF-8"?><svg id="a" xmlns="http://www.w3.org/2000/svg" viewBox="0 0 200 80"><defs><style>.b{stroke-width:0px;}</style></defs><path class="b" d="m197.93,26.88h-4.53c-1.05-.1-1.98.68-2.07,1.73-.01.13-.01.26,0,.39v13.4c0,4.92-2.66,7.69-6.35,7.69-3.88,0-6.07-2.52-6.07-7.38v-13.71c.09-1.05-.68-1.98-1.74-2.07-.11,0-.22,0-.33,0h-4.53c-1.05-.09-1.98.68-2.07,1.74,0,.11,0,.22,0,.33v14.3c0,9.12,4.72,14.3,11.83,14.3,4.28,0,7.56-1.43,9.9-4.34l.39,1.82c.16,1.11,1.15,1.9,2.27,1.82h3.3c1.05.09,1.98-.68,2.07-1.74,0-.11,0-.22,0-.33v-25.83c.13-1.04-.62-1.99-1.66-2.12-.14-.02-.28-.02-.41,0Z"/><path class="b" d="m166.37,49h-8.14c-2.86,0-4.34-1.49-4.34-4.34v-15.66c.09-1.05-.68-1.98-1.74-2.07-.11,0-.22,0-.33,0h-4.65c-1.05-.09-1.98.68-2.07,1.74,0,.11,0,.22,0,.33v16.76c0,6.92,4.2,11.14,11.13,11.14h10.16c1.05.09,1.98-.68,2.07-1.74,0-.11,0-.22,0-.33v-3.75c.09-1.06-.7-1.99-1.77-2.08-.11,0-.22,0-.32,0Z"/><path class="b" d="m34.54,28.89c.04-1.07-.78-1.96-1.85-2.01-.09,0-.18,0-.27,0h-3.42c-1.03-.04-1.98.51-2.46,1.42l-8.36,14.09-7.75-14.1c-.46-.91-1.41-1.46-2.43-1.42h-3.73c-1.06-.11-2.01.67-2.11,1.73,0,.09-.01.18,0,.27L0,54.77c-.24.92.3,1.86,1.22,2.11.26.07.52.08.78.02h4.09c1.05.12,2-.63,2.12-1.67.01-.11.02-.22.01-.33l.9-14.49,5,9c.46.92,1.43,1.48,2.46,1.42h2.85c1.03.06,2-.5,2.46-1.42l5.62-9.63.65,15.13c-.08,1.02.68,1.92,1.7,2.01.12.01.25,0,.37,0h4.47c.94.15,1.82-.5,1.96-1.43.04-.23.02-.47-.03-.7l-2.09-25.89Z"/><path class="b" d="m139.09,26.88h-3.56c-1.14-.1-2.15.73-2.26,1.87l-.2,1.49c-2.51-2.72-6.08-4.21-9.78-4.06-8.15,0-14.16,6.4-14.16,15.64s5.62,15.78,13.65,15.78c3.92.13,7.69-1.46,10.35-4.34l.33,1.82c.09,1.1,1.06,1.92,2.16,1.82.02,0,.03,0,.05,0h3.44c1.05.09,1.98-.68,2.07-1.74,0-.11,0-.22,0-.33v-25.83c.11-1.06-.66-2.01-1.72-2.12-.12-.01-.25-.01-.37,0Zm-13.93,23.12c-4.59,0-7.5-3.16-7.5-8.08s3-8.23,7.5-8.23,7.5,3.17,7.5,8.09-3.03,8.22-7.5,8.22Z"/><path class="b" d="m104,26.88h-3.6c-1.14-.1-2.15.73-2.27,1.87l-.19,1.49c-2.5-2.72-6.08-4.21-9.77-4.06-8.17,0-14.17,6.01-14.17,15.27s5.57,15,13.6,15c3.81.15,7.48-1.42,10-4.28v1.48c0,5.18-2.91,8.48-9.06,8.48-2.52,0-5.01-.52-7.31-1.54-.82-.58-1.96-.38-2.54.44-.1.14-.18.3-.23.46l-1.46,2.85c-.6.85-.39,2.02.46,2.62.08.06.17.11.25.15,3.61,1.87,7.63,2.81,11.69,2.71,10.16,0,16.62-6.4,16.62-15.33v-25.49c.12-1.05-.64-1.99-1.68-2.11-.11-.01-.22-.02-.34,0Zm-13.95,22.18c-4.47,0-7.5-3-7.5-7.57,0-4.85,3.16-7.76,7.5-7.76s7.5,2.66,7.5,7.64c.19,4.05-2.95,7.5-7,7.68-.17,0-.33,0-.5,0Z"/><path class="b" d="m68.84,26.88h-3.56c-1.14-.12-2.16.72-2.28,1.86,0,0,0,0,0,.01l-.2,1.49c-2.5-2.72-6.07-4.2-9.76-4.06-8.15,0-14.16,6.4-14.16,15.64s5.62,15.78,13.65,15.78c3.92.13,7.71-1.45,10.37-4.34l.33,1.82c.09,1.1,1.06,1.92,2.16,1.82.02,0,.03,0,.05,0h3.44c1.05.12,2-.63,2.12-1.68.01-.13.02-.26,0-.39v-25.83c.07-1.1-.77-2.05-1.87-2.12-.1,0-.19,0-.29,0Zm-13.91,23.12c-4.59,0-7.5-3.16-7.5-8.08s3-8.23,7.5-8.23,7.5,3.17,7.5,8.09-3.04,8.22-7.5,8.22Z"/></svg>