<?xml version="1.0" encoding="UTF-8" standalone="no"?>
<!-- Created with Vectornator (http://vectornator.io/) -->

<svg height="32" stroke-miterlimit="10" style="clip-rule:evenodd;fill-rule:nonzero;stroke-linecap:round;stroke-linejoin:round" version="1.1" viewBox="0 0 32 32" width="32" xml:space="preserve" id="svg3" sodipodi:docname="mapquest.svg" inkscape:version="1.4-beta2 (9aaf4f34, 2024-07-30)" xmlns:inkscape="http://www.inkscape.org/namespaces/inkscape" xmlns:sodipodi="http://sodipodi.sourceforge.net/DTD/sodipodi-0.dtd" xmlns="http://www.w3.org/2000/svg" xmlns:svg="http://www.w3.org/2000/svg"><sodipodi:namedview id="namedview3" pagecolor="#ffffff" bordercolor="#000000" borderopacity="0.25" inkscape:showpageshadow="2" inkscape:pageopacity="0.0" inkscape:pagecheckerboard="0" inkscape:deskcolor="#d1d1d1" inkscape:zoom="1.5586178" inkscape:cx="93.031146" inkscape:cy="106.18383" inkscape:window-width="1440" inkscape:window-height="872" inkscape:window-x="0" inkscape:window-y="0" inkscape:window-maximized="1" inkscape:current-layer="svg3" />
<defs id="defs1" />

<path d="m 20.256259,3.1297231 8.34575,8.5235239 c 2.34093,2.390591 2.34093,6.302791 0,8.693382 l -8.34575,8.523425 c -2.341028,2.390888 -6.171712,2.390888 -8.512444,0 L 3.397867,20.346629 c -2.3407642,-2.390591 -2.3407642,-6.302791 0,-8.693382 l 8.345948,-8.5235239 c 2.340732,-2.39059097 6.171416,-2.39059097 8.512444,0 z m -2.475273,6.497086 c -0.747895,0 -1.354224,0.6243339 -1.354224,1.3943879 0,0.264137 0.632545,1.490249 0.648769,1.516069 h -3.064586 c -2.315604,0 -4.1992896,1.924048 -4.1992896,4.289313 v 4.32196 c 0,0.675973 0.5367626,1.224726 1.1987086,1.224726 0.662223,0 1.199204,-0.548753 1.199204,-1.224726 v -4.32196 c 0,-1.014703 0.808141,-1.840058 1.801377,-1.840058 h 3.036392 c -0.07756,0.122869 -0.598019,1.236994 -0.598019,1.452459 0,0.770054 0.606032,1.394388 1.354124,1.394388 0.282538,0 0.544994,-0.08963 0.76214,-0.241978 0.04966,-0.02384 3.496011,-2.663038 3.496011,-2.663038 0.398284,-0.254937 0.640954,-0.707433 0.640954,-1.194851 0,-0.48712 -0.24267,-0.939418 -0.640954,-1.194355 0,0 -3.469399,-2.6518599 -3.531229,-2.6793619 -0.214772,-0.146809 -0.47238,-0.232975 -0.749378,-0.232975 z" fill="#000000" fill-rule="evenodd" opacity="1" stroke="none" id="path3" style="clip-rule:evenodd;fill-rule:nonzero;stroke-width:0.989278;stroke-linecap:round;stroke-linejoin:round" />
</svg>
