<?xml version="1.0" encoding="UTF-8" standalone="no"?>
<!DOCTYPE svg PUBLIC "-//W3C//DTD SVG 1.1//EN" "http://www.w3.org/Graphics/SVG/1.1/DTD/svg11.dtd">
<!-- Created with Vectornator (http://vectornator.io/) -->
<svg height="100%" stroke-miterlimit="10" style="fill-rule:nonzero;clip-rule:evenodd;stroke-linecap:round;stroke-linejoin:round;" version="1.1" viewBox="0 0 200 80" width="100%" xml:space="preserve" xmlns="http://www.w3.org/2000/svg" xmlns:xlink="http://www.w3.org/1999/xlink">
<defs/>
<path d="M0 0L200 0L200 80L0 80L0 0Z" fill="#000000" fill-opacity="0" fill-rule="nonzero" opacity="1" stroke="none"/>
<g id="Sem-Título">
<g opacity="1">
<path d="M97.2592 30.0377C102.18 30.0377 106.183 34.4562 106.183 39.8873C106.183 44.564 103.183 48.251 98.6946 49.0667C96.9547 49.5017 95.3573 49.4534 94.4032 49.424C93.9337 49.4099 93.7198 49.4051 93.5807 49.4387C92.5829 49.6338 92.4331 50.3437 92.3611 50.6847L92.3452 50.7643C92.2264 51.6712 92.0821 52.7113 91.8787 53.5761L91.8728 53.6084C91.6091 55.4375 90.3109 56.7652 88.7855 56.7652C87.2169 56.7652 86.0882 55.8871 86.0407 54.6306L86.0383 54.6011C86.0317 54.545 86.0272 54.4888 86.0272 54.4314L86.0272 31.8771C86.0272 31.0959 86.6584 30.4602 87.4346 30.4602L88.6095 30.4602L88.6418 30.4586C88.6979 30.454 88.8148 30.4481 88.9789 30.4674C89.2102 30.4864 89.4343 30.5627 89.6385 30.6958C89.8562 30.8264 90.0515 31.0093 90.2179 31.239C90.9035 32.1825 92.0165 31.6761 93.0221 31.1784L93.1376 31.1211C93.4411 30.97 93.7551 30.8138 94.0598 30.693C95.0834 30.2582 96.1598 30.0377 97.2592 30.0377ZM119.34 24.3621C122.918 24.3621 125.958 25.5379 128.132 27.7619C130.311 29.9895 131.461 33.1069 131.461 36.7768C131.461 38.5656 131.179 40.2406 130.619 41.7619C130.5 42.0997 130.31 42.5933 130.064 43.0392C130.017 43.1314 129.969 43.2221 129.92 43.3128L129.902 43.3519C129.756 43.7173 129.714 44.3026 130.358 45.0356L130.717 45.3965C130.746 45.4228 130.771 45.4453 130.793 45.4654L131.289 45.9716L131.31 45.9919C131.958 46.5444 132.313 47.2747 132.313 48.0481C132.313 49.6607 130.76 50.9729 128.852 50.9729C128.371 50.9729 127.902 50.8893 127.441 50.718C126.922 50.5581 126.39 50.2408 125.825 49.9054C124.944 49.3804 123.963 48.7958 122.889 48.7958C122.696 48.7958 122.5 48.8149 122.302 48.8562C121.67 48.9876 120.956 49.0685 120.17 49.0972C119.878 49.1132 119.606 49.121 119.34 49.121C112.09 49.121 107.219 44.1602 107.219 36.7768C107.219 33.1069 108.369 29.9895 110.547 27.7619C112.722 25.5379 115.762 24.3621 119.34 24.3621ZM72.2796 30.0376C73.1688 30.0376 74.0531 30.1856 74.9084 30.4776L74.976 30.4937C75.2362 30.5523 75.5601 30.7106 75.8538 30.864L76.027 30.9462C76.1431 31.0048 76.3289 31.103 76.5595 31.2405C77.2394 31.5953 78.5045 32.2562 79.243 31.2387C79.8086 30.4591 80.5329 30.4331 80.8189 30.4588L82.1041 30.4603C82.8804 30.4603 83.5116 31.0958 83.5116 31.877L83.5116 47.7285C83.5116 48.5097 82.8804 49.1452 82.1041 49.1452L80.1644 49.1452C79.7892 49.1452 79.4352 48.9961 79.1599 48.7178C78.9389 48.5067 78.8529 48.2666 78.7768 48.0546C78.697 47.8313 78.606 47.5785 78.3308 47.5032C78.0721 47.4323 77.8474 47.5818 77.6621 47.737C77.5733 47.8113 77.4832 47.884 77.3906 47.9557L77.3545 47.9834C75.8567 49.1305 74.1018 49.7367 72.2796 49.7367C67.359 49.7367 63.3558 45.3183 63.3558 39.8872C63.3558 34.4561 67.359 30.0376 72.2796 30.0376ZM180.203 29.5522C182.251 29.4478 184.777 30.009 186.636 30.9824L186.66 30.9937C186.743 31.0297 186.827 31.0759 186.913 31.1314L186.952 31.1533C187.687 31.5151 188.145 32.2042 188.145 32.9515C188.145 33.7802 187.59 34.523 186.73 34.8442L186.7 34.8568C186.537 34.9342 186.339 34.9792 186.092 34.9915C186.01 34.9995 185.926 35.0038 185.841 35.0038C185.521 35.0038 185.087 34.9165 184.618 34.7577L184.581 34.7469C184.526 34.7345 184.441 34.7081 184.334 34.6754C183.691 34.4796 182.352 34.0723 181.486 34.5714C181.127 34.7785 180.891 35.1071 180.785 35.5494C180.715 35.8412 180.755 36.1216 180.901 36.3598C180.92 36.3916 180.945 36.4158 180.968 36.4448C181.121 36.6117 181.391 36.7979 181.872 36.9447C182.592 37.1651 184.138 37.6145 185.436 38.5581C186.067 38.997 186.563 39.5097 186.937 40.1163L186.946 40.1302C187.227 40.5433 188.107 42.0617 187.64 44.2621C187.131 47.1647 184.37 49.0927 180.431 49.2931C178.381 49.3961 175.858 48.836 173.998 47.8629L173.974 47.8516C173.893 47.8159 173.807 47.7693 173.721 47.7135L173.683 47.692C172.947 47.3299 172.489 46.641 172.489 45.8937C172.489 45.0653 173.045 44.3223 173.904 44.0007L173.934 43.9884C174.097 43.9111 174.295 43.8661 174.542 43.854C174.625 43.846 174.71 43.8415 174.795 43.8415C175.115 43.8415 175.549 43.9288 176.016 44.0876L176.053 44.0982C176.11 44.111 176.195 44.1372 176.301 44.1696C176.945 44.3656 178.284 44.7726 179.149 44.2739C179.508 44.0668 179.743 43.7382 179.85 43.2959C179.919 43.0038 179.88 42.7235 179.734 42.4855C179.689 42.4115 179.635 42.3457 179.579 42.2874C179.397 42.1129 179.012 41.9453 178.539 41.7686C177.739 41.5123 176.844 41.2199 175.99 40.7674L175.965 40.7539C175.882 40.7096 175.799 40.6634 175.715 40.6145C175.224 40.3353 174.793 40.0101 174.426 39.6456L174.185 39.3685C173.7 38.8099 173.358 38.1712 173.146 37.4262L173.154 37.4262L173.061 36.9757C172.984 36.6029 172.937 36.2439 172.919 35.8785C172.741 32.3255 175.669 29.7832 180.203 29.5522ZM147.391 29.4017C149.132 29.4017 150.348 30.5477 150.348 32.1884C150.348 32.2736 150.597 39.5801 150.604 41.4525L150.604 41.6104C150.585 45.2201 149.192 47.461 146.633 48.4596L146.402 48.5657C145.817 48.7641 144.191 49.2451 142.101 49.2672L142.093 49.2667L142.082 49.2672C140.103 49.2472 138.54 48.8166 137.879 48.6012L137.883 48.5929L137.54 48.4596C134.98 47.4606 133.569 45.0263 133.569 41.6158C133.611 40.0567 133.823 32.2763 133.823 32.1884C133.823 30.5477 135.041 29.4017 136.782 29.4017C138.183 29.4017 139.285 30.2322 139.657 31.5686L139.668 31.6018C139.73 31.7636 139.762 31.9304 139.762 32.1152L140.054 38.5554C140.054 38.6834 140.064 38.8154 140.083 38.9596C140.13 40.0684 141.004 40.9337 142.083 40.9337C143.129 40.9337 144.003 40.0956 144.081 39.0214C144.107 38.8523 144.119 38.7043 144.119 38.5725L144.411 32.0982C144.411 31.9304 144.443 31.7636 144.505 31.6018L144.516 31.5686C144.888 30.2322 145.99 29.4017 147.391 29.4017ZM38.7559 25.5129L38.8283 25.5149C41.7128 25.6092 42.606 27.4416 42.8109 28.001L46.4657 35.0448C46.5961 35.3297 46.9993 35.8112 47.6842 35.8112C48.3685 35.8112 48.7722 35.3297 48.8946 35.0615L52.6719 27.7859C53.0438 26.9732 54.044 25.5974 56.5597 25.5152C56.5737 25.5149 56.5881 25.5142 56.5972 25.5129L56.6455 25.5129C56.7451 25.5108 56.847 25.5108 56.9575 25.5129L59.3201 25.5129C60.4318 25.5129 61.3359 26.4235 61.3359 27.5423L61.3359 47.1628C61.3359 48.2816 60.4318 49.1923 59.3201 49.1923L56.5972 49.1923C55.4859 49.1923 54.5812 48.2816 54.5812 47.1628L54.5812 45.2037L54.5805 45.1757C54.5412 44.6517 54.276 44.2465 53.8525 44.0638C53.767 44.0269 53.6812 44.0098 53.5959 44.0098C52.8897 44.0098 52.2071 45.179 51.8413 45.9319C51.8257 45.9637 50.2478 49.1225 47.8345 49.1442L47.8134 49.1442C45.4071 49.1225 43.8225 45.9635 43.8076 45.9329C42.8507 43.9644 42.1362 43.9173 41.7955 44.0638C41.3719 44.2465 41.1065 44.6517 41.0677 45.1757L41.0667 47.1628C41.0667 48.2816 40.162 49.1923 39.0507 49.1923L36.3282 49.1923C35.2165 49.1923 34.3118 48.2816 34.3118 47.1628L34.3118 27.5423C34.3118 26.4235 35.2165 25.5129 36.3282 25.5129L38.4437 25.5129C38.547 25.5108 38.6487 25.5108 38.7559 25.5129ZM162.126 29.4276C162.502 29.4276 162.889 29.4494 163.36 29.4972C164.118 29.5401 164.871 29.7056 165.605 29.9926C167.008 30.4945 168.162 31.3232 169.038 32.4564L169.056 32.478C169.42 32.8832 169.782 33.346 170.134 33.8553L170.206 33.9696C170.218 33.9881 171.37 35.8384 170.937 37.4969C170.732 38.2817 170.194 38.9135 169.339 39.3742C169.225 39.4349 169.131 39.4968 169.074 39.5369L166.569 41.0438C166.283 41.2143 165.918 41.5759 165.836 42.0322C165.78 42.3291 165.854 42.6145 166.045 42.8576C166.307 43.1877 166.853 43.2777 167.545 43.3911C167.848 43.4404 168.16 43.492 168.467 43.5661L168.484 43.5697C169.896 43.8405 170.882 44.9909 170.882 46.3671C170.882 47.4096 170.381 48.3542 169.576 48.833L169.547 48.8519C169.359 48.9889 168.845 49.1056 168.501 49.1192C168.361 49.1258 166.271 49.128 164.226 49.1285L162.301 49.1286C156.333 49.1286 152.323 45.1769 152.323 39.2956C152.323 33.3935 156.263 29.4276 162.126 29.4276ZM194.691 24.8694C195.525 24.8694 196.203 25.5521 196.203 26.3914L196.203 28.345C196.25 29.4795 197.034 30.0078 198.746 30.0574L198.757 30.0577C199.674 30.0577 200 30.8776 200 31.5796L200 33.4531C200 34.1554 199.674 34.9751 198.757 34.9751L197.621 34.9756C196.786 35.01 196.269 35.7144 196.203 36.9285L196.203 47.5872C196.203 48.4267 195.525 49.1092 194.691 49.1092L191.113 49.1092C190.278 49.1092 189.6 48.4267 189.6 47.5872L189.6 26.3914C189.6 25.5521 190.278 24.8694 191.113 24.8694L194.691 24.8694ZM72.8602 36.3588C70.9739 36.3588 69.4393 37.9037 69.4393 39.8029C69.4393 41.7018 70.9739 43.2464 72.8602 43.2464C74.7466 43.2464 76.2812 41.7018 76.2812 39.8029C76.2812 37.9037 74.7466 36.3588 72.8602 36.3588ZM96.6787 36.3587C94.7922 36.3587 93.2576 37.9038 93.2576 39.803C93.2576 41.7017 94.7922 43.2464 96.6787 43.2464C98.5651 43.2464 100.1 41.7017 100.1 39.803C100.1 37.9038 98.5651 36.3587 96.6787 36.3587ZM119.556 32.1461C117.162 32.1461 115.213 34.1068 115.213 36.517C115.213 38.9274 117.162 40.8884 119.556 40.8884C121.95 40.8884 123.898 38.9274 123.898 36.517C123.898 34.1068 121.95 32.1461 119.556 32.1461ZM163.935 35.4445C163.032 34.5426 161.786 34.3838 160.685 35.0301C159.335 35.8207 158.801 37.2183 159.322 38.59L159.349 38.645C159.519 38.9387 159.785 39.098 160.077 39.098C160.181 39.098 160.288 39.0778 160.396 39.0358L163.852 37.022L163.885 37.0007C164.165 36.7947 164.249 36.5483 164.272 36.3778C164.322 35.9893 164.099 35.6453 163.962 35.4746L163.935 35.4445Z" fill="#000000" fill-rule="nonzero" opacity="1" stroke="none"/>
<path d="M18.8157 25.0472L27.2519 33.6631C29.6182 36.0796 29.6182 40.0342 27.2519 42.4507L18.8157 51.0665C16.4493 53.4833 12.5771 53.4833 10.211 51.0665L1.7746 42.4507C-0.591533 40.0342-0.591533 36.0796 1.7746 33.6631L10.211 25.0472C12.5771 22.6307 16.4493 22.6307 18.8157 25.0472ZM16.3136 31.6147C15.5576 31.6147 14.9447 32.2458 14.9447 33.0242C14.9447 33.2912 15.5841 34.5306 15.6005 34.5567L12.5027 34.5567C10.162 34.5567 8.2579 36.5016 8.2579 38.8925L8.2579 43.2613C8.2579 43.9446 8.80048 44.4993 9.4696 44.4993C10.139 44.4993 10.6818 43.9446 10.6818 43.2613L10.6818 38.8925C10.6818 37.8668 11.4987 37.0325 12.5027 37.0325L15.572 37.0325C15.4936 37.1567 14.9675 38.2829 14.9675 38.5007C14.9675 39.2791 15.5801 39.9102 16.3363 39.9102C16.6219 39.9102 16.8872 39.8196 17.1067 39.6656C17.1569 39.6415 20.6406 36.9737 20.6406 36.9737C21.0432 36.716 21.2885 36.2586 21.2885 35.7659C21.2885 35.2735 21.0432 34.8163 20.6406 34.5586C20.6406 34.5586 17.1336 31.878 17.0711 31.8502C16.854 31.7018 16.5936 31.6147 16.3136 31.6147Z" fill="#000000" fill-rule="evenodd" opacity="1" stroke="none"/>
</g>
</g>
</svg>
