<svg version="1.0" width="32pt" height="32pt" viewBox="0 0 32 32" preserveAspectRatio="xMidYMid" id="svg21" xmlns="http://www.w3.org/2000/svg" xmlns:svg="http://www.w3.org/2000/svg">
  <defs id="defs21" />
  <g transform="matrix(0.00354452,0,0,-0.00354452,-3.0337652,34.8356)" fill="#000000" stroke="none" id="g21">
    <path d="m 6125,9823 c -202,-9 -564,-55 -805,-103 -204,-41 -287,-61 -510,-128 -176,-53 -486,-195 -645,-295 -276,-175 -501,-411 -625,-657 -28,-56 -129,-305 -145,-360 -11,-38 8,-14 45,55 127,240 337,434 626,578 154,77 277,115 509,158 171,32 449,32 665,1 180,-27 436,-82 536,-116 294,-100 562,-254 806,-463 89,-76 118,-97 104,-74 -3,4 6,6 19,3 14,-2 25,0 25,6 0,5 6,9 13,9 6,-1 64,24 129,56 64,31 119,57 122,57 3,0 25,9 49,19 97,43 326,121 356,121 11,0 22,4 25,8 3,5 38,15 78,22 40,7 77,17 83,22 5,4 24,8 42,8 18,0 41,4 51,10 18,10 205,36 367,50 55,5 171,6 258,3 86,-3 157,-3 157,0 0,3 -16,41 -37,84 -20,43 -37,83 -37,88 -4,29 -19,52 -47,70 -27,18 -77,80 -152,191 -43,64 -184,199 -274,263 -229,164 -583,271 -1028,311 -99,9 -580,11 -760,3 z" id="path1" />
    <path d="m 7954,8725 c -422,-47 -893,-199 -1223,-397 -355,-212 -608,-445 -806,-743 -102,-153 -166,-274 -218,-411 -71,-186 -133,-435 -116,-466 18,-33 380,-206 634,-303 339,-129 793,-240 1129,-278 81,-9 123,-18 128,-28 5,-8 31,-54 59,-104 28,-49 59,-103 70,-118 11,-15 19,-33 17,-38 -2,-6 -37,38 -78,97 -41,59 -82,111 -90,115 -8,4 -89,17 -180,29 -524,69 -1041,228 -1508,465 -81,41 -163,84 -183,96 l -35,21 -65,-45 c -141,-97 -255,-144 -434,-179 -140,-26 -391,-11 -538,34 -20,6 -40,9 -43,6 -2,-3 26,-27 63,-54 37,-26 125,-105 194,-174 302,-302 447,-606 490,-1033 17,-168 0,-415 -42,-612 -22,-105 -90,-325 -100,-325 -4,0 -11,-15 -14,-32 -4,-18 -16,-41 -26,-51 -11,-10 -19,-23 -19,-28 0,-7 -8,-8 -17,-4 -15,5 -16,4 -5,-6 17,-18 15,-32 -4,-25 -12,5 -14,1 -8,-17 6,-21 6,-21 -14,3 -23,26 -29,21 -12,-10 9,-17 7,-18 -19,-10 -16,4 -33,5 -37,2 -4,-4 -4,0 -2,8 3,8 10,14 15,13 5,-1 9,7 9,18 0,10 -5,19 -11,19 -5,0 -2,5 8,11 9,5 17,14 17,19 0,17 -25,11 -49,-11 -12,-12 -25,-18 -29,-14 -3,3 0,10 8,15 11,7 11,11 1,24 -10,11 -10,16 -2,16 8,0 8,4 -1,14 -11,12 -14,11 -18,-8 -8,-29 -42,-28 -46,2 -3,13 2,25 11,28 8,4 12,10 10,15 -7,10 -44,-23 -38,-33 2,-5 1,-8 -2,-8 -3,0 -12,15 -20,33 -8,17 -14,26 -15,20 0,-17 -27,-17 -33,0 -4,9 -6,9 -6,-1 -1,-20 -41,9 -41,30 0,24 -33,41 -50,25 -10,-10 -12,-8 -7,6 4,11 1,17 -8,17 -8,0 -15,-4 -15,-10 0,-5 -5,-10 -12,-10 -9,0 -9,3 0,12 14,14 -27,61 -43,48 -10,-8 -28,5 -34,25 -10,29 -14,33 -27,28 -10,-3 -12,0 -9,10 4,9 -1,16 -14,20 -12,3 -18,1 -15,-4 6,-10 -43,9 -64,24 -7,6 -15,7 -18,4 -3,-3 -16,4 -29,15 -13,11 -26,18 -29,17 -8,-6 -35,34 -30,43 3,5 -2,8 -11,8 -9,0 -14,4 -11,8 3,5 -6,20 -20,35 -13,14 -24,30 -24,35 0,5 -11,17 -24,28 -14,10 -23,21 -20,26 3,4 1,8 -4,8 -5,0 -15,-11 -22,-25 -7,-14 -15,-23 -18,-21 -7,7 -41,-27 -36,-36 3,-4 0,-8 -5,-8 -6,0 -11,-7 -11,-16 0,-8 -4,-13 -9,-10 -5,3 -14,-1 -21,-9 -7,-8 -16,-12 -21,-9 -5,3 -9,-2 -9,-10 0,-16 -11,-20 -39,-17 -7,2 -10,-2 -6,-8 3,-6 -1,-11 -9,-11 -9,0 -16,-5 -16,-11 0,-5 -4,-8 -9,-5 -5,3 -11,-1 -15,-9 -8,-22 -53,-18 -69,5 -8,11 -20,19 -28,17 -8,-2 -11,-2 -6,0 13,8 -3,23 -24,23 -10,0 -18,3 -17,8 2,4 -23,34 -54,66 -31,33 -54,64 -51,69 4,6 -5,8 -21,5 -17,-3 -26,-1 -26,7 0,18 -34,29 -39,14 -2,-7 -9,3 -15,22 -7,19 -17,33 -24,32 -7,-2 -12,4 -12,13 0,9 -9,27 -20,42 -30,37 -96,38 -127,1 -13,-15 -23,-32 -23,-38 0,-6 -6,-11 -13,-11 -6,0 -25,-14 -40,-30 -16,-17 -33,-28 -37,-25 -5,3 -16,-5 -24,-17 -9,-12 -16,-18 -16,-13 0,6 -10,-1 -23,-15 -12,-14 -29,-26 -37,-28 -8,-2 -16,-7 -18,-12 -2,-5 -10,-6 -18,-3 -8,3 -14,1 -14,-5 0,-6 -13,-13 -28,-17 -15,-3 -41,-18 -57,-34 -28,-26 -32,-27 -53,-13 -20,13 -22,13 -17,-1 8,-20 -47,-61 -62,-46 -7,7 -10,3 -9,-13 1,-19 -3,-23 -27,-21 -22,2 -27,-2 -23,-15 4,-11 -2,-22 -15,-31 -20,-12 -21,-11 -17,7 4,13 -2,29 -14,41 -19,21 -19,21 2,21 24,0 26,13 4,34 -14,15 -14,17 0,22 9,3 16,11 16,17 0,8 -3,8 -11,0 -8,-8 -18,-7 -37,3 -16,8 -28,10 -30,4 -2,-6 -8,-10 -13,-10 -4,0 -6,7 -3,15 4,9 0,15 -9,15 -8,0 -17,-6 -20,-12 -2,-7 -8,-1 -11,13 -6,21 -12,25 -32,21 -15,-3 -24,0 -24,8 0,7 7,10 14,7 10,-4 13,-1 10,8 -3,8 -11,12 -19,9 -7,-3 -15,2 -18,10 -4,9 -13,16 -21,16 -7,0 -17,7 -20,16 -8,21 -29,6 -23,-16 4,-14 0,-17 -12,-13 -30,11 -32,15 -14,30 17,14 17,14 -5,10 -12,-3 -20,-1 -16,4 12,20 11,45 -2,57 -16,15 -18,8 -5,-16 6,-12 4,-22 -7,-32 -14,-13 -15,-12 -10,2 4,8 1,21 -5,27 -6,6 -7,11 -2,11 6,0 3,5 -5,10 -12,8 -13,12 -2,19 11,6 10,10 -3,15 -22,8 -27,8 -21,-3 3,-5 -1,-12 -10,-15 -12,-5 -15,-2 -10,9 3,9 2,14 -3,11 -4,-3 -17,1 -27,9 -17,13 -16,14 16,9 l 35,-5 -32,17 c -18,9 -33,24 -34,33 -1,9 -2,25 -3,36 -1,15 -7,19 -24,17 -20,-2 -22,1 -17,20 6,19 5,21 -6,11 -25,-25 -29,-13 -5,14 19,21 23,30 14,40 -7,9 -14,10 -17,4 -4,-6 -12,-6 -21,-1 -11,7 -12,10 -2,10 7,0 19,6 26,13 11,10 11,15 0,25 -15,14 -28,16 -19,3 11,-18 -16,-23 -29,-5 -13,16 -15,16 -41,-10 -16,-16 -24,-33 -21,-42 3,-8 2,-13 -3,-10 -10,7 -37,-52 -28,-61 3,-3 -2,-13 -12,-22 -46,-39 -182,-459 -237,-725 -31,-155 -31,-190 1,-222 23,-22 31,-25 68,-19 84,14 199,57 321,120 69,35 128,61 130,56 3,-4 -3,-21 -12,-38 -157,-283 -258,-551 -314,-833 -31,-158 -33,-444 -4,-503 11,-22 30,-43 45,-49 100,-38 427,142 674,372 49,45 91,79 94,76 4,-3 5,-61 4,-128 -4,-282 64,-657 144,-795 42,-71 83,-80 169,-37 59,30 208,135 316,223 41,33 80,61 87,61 8,0 103,-81 212,-180 188,-171 268,-239 616,-523 143,-117 609,-477 705,-545 25,-17 79,-57 120,-87 41,-30 125,-91 185,-134 61,-44 157,-114 215,-155 57,-42 109,-76 115,-76 18,0 577,429 592,454 4,7 19,19 32,26 44,23 430,362 621,545 52,51 129,122 170,160 120,110 149,139 144,147 -3,5 2,8 10,8 9,0 16,5 16,12 0,6 11,26 25,44 27,36 33,72 12,80 -8,3 -13,18 -12,34 2,33 -9,40 -20,12 -6,-15 -8,-14 -20,8 -19,34 -18,43 3,36 10,-4 7,2 -8,13 -23,18 -26,19 -32,3 -6,-16 -7,-16 -7,1 -1,9 -7,17 -13,17 -7,0 -5,5 5,11 20,11 23,30 5,25 -7,-1 -10,-1 -5,1 4,3 7,9 7,14 0,6 -4,8 -9,5 -13,-9 -23,32 -25,109 -2,62 0,71 18,82 18,11 19,12 4,13 -10,0 -18,5 -18,10 0,6 -7,10 -16,10 -13,0 -11,4 7,18 17,15 19,21 9,27 -9,5 -11,4 -6,-3 4,-7 -3,-14 -19,-18 -28,-7 -29,-8 -15,-34 7,-13 5,-21 -7,-31 -14,-12 -15,-11 -9,9 4,12 3,22 -2,22 -6,0 -10,10 -10,23 0,44 -7,62 -29,74 -12,7 -25,23 -29,35 -6,19 -7,19 -16,5 -12,-23 -35,-21 -43,2 -4,14 -13,17 -38,15 -17,-2 -38,-6 -44,-9 -8,-2 -13,4 -13,15 0,13 5,18 15,14 11,-5 13,-2 9,10 -5,13 -15,15 -43,11 -20,-2 -43,0 -51,5 -12,8 -9,10 11,10 15,0 30,7 33,16 4,10 2,13 -6,8 -20,-12 -118,-14 -118,-2 0,5 7,8 15,5 8,-4 17,-2 20,3 4,6 -10,10 -32,10 -28,0 -34,-3 -23,-10 12,-8 10,-10 -8,-10 -13,0 -20,4 -17,10 3,6 -3,10 -14,10 -11,0 -22,-4 -26,-9 -8,-14 -48,-9 -65,7 -10,10 -15,11 -18,3 -6,-19 -22,-12 -22,9 0,11 -7,20 -15,20 -8,0 -15,-4 -15,-10 0,-5 5,-10 11,-10 5,0 7,-5 4,-10 -4,-6 -16,-3 -32,10 -14,11 -30,17 -35,14 -12,-8 -48,25 -48,43 0,8 -5,11 -11,8 -6,-4 -8,-13 -5,-20 3,-8 -2,-11 -14,-8 -11,3 -22,14 -25,24 -4,10 -12,19 -19,19 -35,0 -40,30 -53,299 -31,669 -74,1025 -174,1430 -12,47 -28,103 -35,125 -8,21 -13,40 -12,42 2,1 41,-6 88,-16 248,-54 572,-52 860,6 174,35 323,86 478,166 74,37 135,68 138,68 20,0 147,-257 190,-387 52,-154 48,-223 -28,-455 -12,-37 -18,-71 -14,-75 9,-10 56,19 156,95 123,95 229,193 223,208 -2,7 7,20 22,30 14,9 58,65 96,123 38,58 74,106 81,106 6,0 16,9 22,20 6,11 21,33 34,48 23,30 29,57 12,57 -17,0 -11,16 15,44 13,14 20,26 14,26 -6,0 -5,9 2,23 7,12 11,22 10,22 -1,0 0,7 2,15 17,53 83,277 99,335 105,383 147,844 118,1305 -34,537 -160,1011 -393,1485 -130,263 -309,566 -343,579 -8,3 -16,5 -17,5 -1,-1 -56,-7 -123,-14 z M 2600,4690 c 0,-5 -6,-10 -14,-10 -8,0 -18,5 -21,10 -3,6 3,10 14,10 12,0 21,-4 21,-10 z m 181,-137 c 13,-17 13,-17 -6,-3 -11,8 -22,16 -24,17 -2,2 0,3 6,3 6,0 17,-8 24,-17 z m -5,-78 c -3,-8 -11,-15 -18,-14 -10,0 -10,2 0,6 6,2 12,14 13,26 0,12 3,16 6,9 3,-7 2,-19 -1,-27 z m 1879,-165 c -3,-5 -14,-10 -23,-10 -15,0 -15,2 -2,10 20,13 33,13 25,0 z m 295,-241 c 0,-6 -4,-7 -10,-4 -5,3 -10,0 -11,-7 0,-10 -2,-10 -6,1 -4,10 -7,10 -13,2 -5,-9 -10,-8 -18,2 -10,11 -5,14 23,15 19,1 35,-3 35,-9 z M 6880,2880 c 0,-5 -4,-10 -10,-10 -5,0 -10,5 -10,10 0,6 5,10 10,10 6,0 10,-4 10,-10 z m 60,-16 c 0,-17 -14,-18 -28,-1 -8,10 -6,13 9,14 10,1 19,-5 19,-13 z m 145,-74 c 3,-5 1,-10 -4,-10 -6,0 -11,5 -11,10 0,6 2,10 4,10 3,0 8,-4 11,-10 z m 122,-72 c -3,-8 -6,-5 -6,6 -1,11 2,17 5,13 3,-3 4,-12 1,-19 z" id="path2" />
    <path d="m 4636,8465 c -69,-28 -151,-104 -190,-175 -56,-103 -70,-260 -32,-368 57,-162 212,-274 377,-274 124,-1 205,33 296,123 77,76 93,118 100,259 7,134 -5,183 -64,264 -40,55 -189,169 -243,185 -66,20 -178,13 -244,-14 z" id="path3" />
    <path d="m 2265,5120 c -3,-5 1,-10 9,-10 8,0 18,5 21,10 3,6 -1,10 -9,10 -8,0 -18,-4 -21,-10 z" id="path4" />
    <path d="m 2340,5001 c 0,-10 28,-41 36,-41 2,0 -3,11 -12,25 -17,26 -24,31 -24,16 z" id="path5" />
    <path d="m 2390,4896 c 0,-9 5,-16 10,-16 6,0 10,4 10,9 0,6 -4,13 -10,16 -5,3 -10,-1 -10,-9 z" id="path6" />
    <path d="m 2754,4639 c -8,-13 14,-29 31,-23 6,3 12,12 12,21 0,13 -2,13 -14,-3 -12,-16 -18,-13 -14,9 2,11 -7,9 -15,-4 z" id="path7" />
    <path d="m 2826,4607 c 3,-10 9,-15 12,-12 3,3 0,11 -7,18 -10,9 -11,8 -5,-6 z" id="path8" />
    <path d="m 2810,4569 c 0,-5 5,-7 10,-4 6,3 10,8 10,11 0,2 -4,4 -10,4 -5,0 -10,-5 -10,-11 z" id="path9" />
    <path d="m 2910,4570 c -13,-8 -12,-10 3,-10 9,0 17,5 17,10 0,12 -1,12 -20,0 z" id="path10" />
    <path d="m 2830,4529 c 0,-5 5,-7 10,-4 6,3 10,8 10,11 0,2 -4,4 -10,4 -5,0 -10,-5 -10,-11 z" id="path11" />
    <path d="m 8364,4359 c -7,-12 22,-46 31,-37 3,3 -1,12 -9,21 -8,8 -12,17 -9,21 4,3 4,6 0,6 -3,0 -9,-5 -13,-11 z" id="path12" />
    <path d="m 4920,4263 c 0,-4 5,-15 10,-23 8,-13 10,-13 10,2 0,9 -4,20 -10,23 -5,3 -10,3 -10,-2 z" id="path13" />
    <path d="m 7210,2800 c 0,-5 5,-10 11,-10 5,0 7,5 4,10 -3,6 -8,10 -11,10 -2,0 -4,-4 -4,-10 z" id="path14" />
    <path d="m 7267,2738 c -6,-21 -2,-36 7,-27 10,11 16,49 8,49 -5,0 -12,-10 -15,-22 z" id="path15" />
    <path d="m 7344,2489 c -8,-14 14,-19 25,-6 8,10 7,14 -5,14 -8,0 -17,-4 -20,-8 z" id="path16" />
    <path d="m 7397,2474 c -4,-4 -7,-14 -7,-23 0,-11 3,-12 11,-4 6,6 10,16 7,23 -2,6 -7,8 -11,4 z" id="path17" />
    <path d="m 7356,2435 c 4,-8 8,-15 10,-15 2,0 4,7 4,15 0,8 -4,15 -10,15 -5,0 -7,-7 -4,-15 z" id="path18" />
    <path d="m 7393,2416 c -13,-6 -23,-14 -23,-17 0,-12 35,-4 43,9 12,18 6,20 -20,8 z" id="path19" />
    <path d="m 7452,2390 c 0,-14 2,-19 5,-12 2,6 2,18 0,25 -3,6 -5,1 -5,-13 z" id="path20" />
    <path d="m 7452,2320 c 0,-14 2,-19 5,-12 2,6 2,18 0,25 -3,6 -5,1 -5,-13 z" id="path21" />
  </g>
</svg>
