<?xml version="1.0" encoding="UTF-8"?><svg id="a" xmlns="http://www.w3.org/2000/svg" viewBox="0 0 232.69 80"><defs><style>.b{stroke-width:0px;}</style></defs><path class="b" d="m50.7,35.48c-2.91,0-4.37,1.93-4.37,5.72v8.29h-6v-8.29c0-3.81-1.44-5.72-4.36-5.72-2.63,0-3.94,1.62-3.94,4.8v15.12h-6.04v-15.59c-.16-2.73.67-5.42,2.33-7.59,1.62-1.88,4-2.92,6.48-2.84,2.82-.15,5.49,1.25,6.98,3.65l1.51,2.58,1.51-2.58c1.49-2.39,4.16-3.79,6.98-3.65.84,0,1.68.11,2.49.34-2.21-4.81-6.71-8.17-11.94-8.92-4.98-.63-10-.89-15.02-.78h-.02c-9.72,0-11.81.62-12.91.78-6.4.95-12.21,5.51-13.63,12.04C.11,36.15-.12,39.52.06,42.88c.19,4.65.22,9.3.64,14.03.29,3.09.79,6.16,1.51,9.19,1.35,5.59,6.79,10.25,12.12,12.13,5.7,1.98,11.84,2.31,17.73.95.65-.15,1.28-.33,1.92-.54,1.55-.4,3.03-1.03,4.38-1.88v-4.65c-3.78.88-7.66,1.31-11.55,1.26-6.66,0-8.47-3.21-8.97-4.54-.41-1.16-.68-2.36-.79-3.58h.06c3.71.91,7.51,1.37,11.33,1.37h2.74c3.9-.03,7.79-.38,11.63-1.05l.28-.06c4.97-.97,9.72-3.69,11.49-9.92l.06-15.31c0-3.19-1.31-4.8-3.94-4.8Zm-36.09,4.82h0c-1.88.03-3.43-1.45-3.48-3.33-.04-1.88,1.44-3.43,3.31-3.48,1.88-.05,3.43,1.44,3.48,3.31,0,.03,0,.05,0,.08.03,1.86-1.46,3.38-3.31,3.41Z"/><path class="b" d="m172.19,20.03v12.94c-1.73-2.39-4.54-3.75-7.49-3.64-3.11,0-6.04,1.42-7.99,3.84-2.2,2.6-3.36,5.91-3.28,9.3-.1,3.43,1.07,6.77,3.28,9.39,1.93,2.43,4.88,3.83,7.99,3.79,2.95.15,5.77-1.21,7.49-3.62v2.94h5.95V20.01h-5.95Zm-1.76,27.55h-.05c-1.18,1.27-2.84,1.98-4.57,1.94-1.75.03-3.44-.67-4.65-1.94-1.21-1.41-1.84-3.23-1.77-5.08-.07-1.85.57-3.65,1.8-5.04,1.18-1.33,2.88-2.06,4.65-2.01,1.75-.05,3.43.69,4.57,2.01,1.22,1.39,1.85,3.19,1.77,5.04.07,1.85-.55,3.67-1.76,5.08Z"/><path class="b" d="m194.65,29.3c-3.32-.04-6.49,1.36-8.69,3.84-2.34,2.52-3.59,5.87-3.49,9.3-.1,3.46,1.15,6.83,3.49,9.39,4.45,4.8,11.94,5.08,16.73.63.22-.2.43-.41.63-.63,2.36-2.55,3.63-5.91,3.56-9.39.07-3.45-1.21-6.78-3.56-9.3-2.2-2.48-5.36-3.88-8.68-3.84Zm4.48,18.11c-2.3,2.48-6.17,2.62-8.65.32-.11-.1-.22-.21-.32-.32-2.34-2.88-2.34-7.01,0-9.89,2.32-2.48,6.2-2.6,8.68-.29.1.09.19.19.29.29,1.22,1.35,1.87,3.12,1.8,4.94.07,1.82-.58,3.59-1.8,4.94Z"/><path class="b" d="m230.18,32.05c-1.57-1.8-3.86-2.81-6.25-2.73-3.18,0-5.45,1.16-6.87,3.49v-2.8h-5.97v24.95h5.97v-13.48c0-4.14,1.71-6.19,5.07-6.19,1.24-.07,2.45.4,3.33,1.29.89,1.07,1.34,2.45,1.26,3.84v14.53h5.95v-15.31c.16-2.75-.73-5.46-2.49-7.58Z"/><path class="b" d="m138.28,29.32c-3.31-.05-6.48,1.36-8.68,3.84-2.34,2.52-3.59,5.87-3.49,9.3-.11,3.46,1.14,6.83,3.49,9.37,4.44,4.79,11.92,5.08,16.72.64.22-.2.43-.42.64-.64,2.35-2.55,3.63-5.91,3.56-9.37.06-3.44-1.22-6.78-3.56-9.3-2.2-2.48-5.36-3.88-8.68-3.84Zm4.48,18.12c-2.32,2.48-6.2,2.6-8.68.29-.1-.09-.19-.19-.29-.29-2.34-2.88-2.34-7.01,0-9.9,2.32-2.48,6.2-2.6,8.68-.29.1.09.19.19.29.29,1.23,1.35,1.87,3.13,1.8,4.95.07,1.82-.58,3.59-1.8,4.94Z"/><path class="b" d="m78.81,30.04v2.94c-1.76-2.38-4.58-3.74-7.54-3.64-3.09.01-6.01,1.42-7.94,3.84-2.19,2.6-3.36,5.91-3.28,9.3-.1,3.43,1.07,6.77,3.28,9.39,1.91,2.43,4.85,3.83,7.94,3.79,2.97.13,5.8-1.24,7.54-3.65v2.94h5.95v-24.94h-5.95v.02Zm-1.85,17.54c-2.42,2.53-6.43,2.61-8.96.19-.07-.06-.13-.13-.19-.19-1.22-1.4-1.87-3.22-1.8-5.08-.07-1.85.57-3.65,1.8-5.04,2.34-2.53,6.28-2.68,8.81-.34.12.11.23.22.34.34,1.26,1.37,1.93,3.18,1.85,5.04.08,1.87-.59,3.7-1.85,5.08Z"/><path class="b" d="m118.56,23.03l-5.97,1.94v5.04h-4.01v6.2h4.01v10.4c0,3.49.83,5.82,2.54,7.13,1.71,1.31,4.65,1.74,8.64,1.24v-5.82c-1.3.15-2.61.08-3.88-.21-.92-.38-1.48-1.33-1.35-2.33v-10.42h5.25v-6.19h-5.22v-6.99Z"/><path class="b" d="m104.82,42.03c-1.53-1.1-3.27-1.85-5.12-2.21-2.83-.73-4.21-1.69-4.21-2.73,0-1.36.88-2.05,2.68-2.05,1.66-.04,3.16.98,3.71,2.55l5.07-2.99c-2.63-4.89-8.73-6.72-13.63-4.09-.48.26-.94.56-1.38.89-1.68,1.45-2.6,3.6-2.49,5.82-.1,2.12.82,4.15,2.49,5.47.75.59,1.59,1.07,2.49,1.41.69.24,1.57.55,2.63.85,2.83.73,4.21,1.69,4.21,2.73,0,1.45-1.06,2.14-3.19,2.14-2.1.13-3.99-1.25-4.5-3.29l-5.13,3.2c1.71,3.93,4.94,5.93,9.7,5.93,2.36.07,4.68-.65,6.58-2.05,1.8-1.42,2.8-3.63,2.68-5.92.13-2.2-.84-4.32-2.59-5.65Z"/></svg>