<?xml version="1.0" encoding="UTF-8" standalone="no"?>
<svg width="32mm" height="32mm" viewBox="0 0 120.94488 120.94488" fill="none" version="1.1" id="svg3" sodipodi:docname="mastodon.svg" inkscape:version="1.4-beta2 (9aaf4f34, 2024-07-30)" xmlns:inkscape="http://www.inkscape.org/namespaces/inkscape" xmlns:sodipodi="http://sodipodi.sourceforge.net/DTD/sodipodi-0.dtd" xmlns="http://www.w3.org/2000/svg" xmlns:svg="http://www.w3.org/2000/svg">
  <sodipodi:namedview id="namedview3" pagecolor="#ffffff" bordercolor="#000000" borderopacity="0.25" inkscape:showpageshadow="2" inkscape:pageopacity="0.0" inkscape:pagecheckerboard="0" inkscape:deskcolor="#d1d1d1" inkscape:document-units="mm" inkscape:zoom="0.48320322" inkscape:cx="190.39608" inkscape:cy="317.67173" inkscape:window-width="1440" inkscape:window-height="790" inkscape:window-x="0" inkscape:window-y="0" inkscape:window-maximized="1" inkscape:current-layer="svg3" />
  <path id="path1" style="fill:#000000;stroke-width:0.485313" d="M 59.388214,-3.8122691e-6 C 39.501866,-3.8122691e-6 35.236106,1.2201362 32.970897,1.5554662 19.91865,3.4849162 7.9990696,12.687336 5.1071177,25.836266 c -1.3909932,6.47559 -1.5399352,13.65464 -1.2815291,20.24001 0.3683664,9.44394 0.4399543,18.87162 1.297643,28.27705 0.5929437,6.24765 1.6277145,12.44456 3.0957648,18.54615 2.7490076,11.268924 13.8768196,20.647274 24.7793886,24.473234 11.672691,3.98989 24.225532,4.65213 36.253433,1.91281 1.323137,-0.30776 2.630215,-0.66511 3.920419,-1.07205 2.924825,-0.92885 6.35026,-1.96748 8.868335,-3.79245 0.0346,-0.0257 0.06256,-0.0587 0.08246,-0.0967 0.02009,-0.0381 0.03167,-0.0802 0.03318,-0.12323 v -9.11383 c -9.71e-4,-0.0402 -0.01058,-0.0795 -0.02844,-0.11564 -0.01786,-0.0359 -0.04324,-0.0681 -0.07488,-0.0929 -0.03164,-0.0248 -0.0688,-0.0415 -0.10806,-0.0502 -0.03907,-0.009 -0.07941,-0.009 -0.118484,0 -7.706248,1.8406 -15.603277,2.76335 -23.526295,2.74884 -13.634983,0 -17.302798,-6.47052 -18.352787,-9.164074 -0.844197,-2.32791 -1.380163,-4.75591 -1.594328,-7.22282 -0.0022,-0.0413 0.006,-0.0834 0.02275,-0.12133 0.01675,-0.0377 0.04174,-0.0704 0.07393,-0.0967 0.03219,-0.0263 0.07034,-0.0453 0.110901,-0.054 0.04056,-0.009 0.08208,-0.008 0.122276,0.003 7.577676,1.82795 15.346085,2.74995 23.141461,2.7479 1.874651,0 3.744173,2e-4 5.619009,-0.0493 7.840034,-0.21993 16.103601,-0.6208 23.817293,-2.12703 0.192393,-0.0385 0.384912,-0.0718 0.549772,-0.12133 12.16709,-2.33629 23.74582,-9.66921 24.92252,-28.23819 0.0439,-0.73107 0.15356,-7.65759 0.15356,-8.4162 0.005,-2.57818 0.83081,-18.28783 -0.12038,-27.94055 C 115.01772,13.781686 103.69131,3.5400662 90.265289,1.5556362 88.000077,1.2203062 79.4178,1.6618773e-4 59.53703,1.6618773e-4 Z M 42.801324,19.789756 c 6.548154,0 11.495638,2.51717 14.79446,7.547 l 3.183914,5.34318 3.188655,-5.34318 c 3.298826,-5.02983 8.246857,-7.547 14.784035,-7.547 5.65204,0 10.210229,1.98906 13.695867,5.86452 3.364877,3.88085 5.045477,9.12141 5.041754,15.72148 v 32.28468 H 84.695572 v -31.33301 c 0,-6.59653 -2.748797,-9.96124 -8.340367,-9.96124 -6.146802,0 -9.22568,3.98 -9.22568,11.84087 v 17.15089 H 54.412811 v -17.15089 c 0,-7.86087 -3.084566,-11.84087 -9.231369,-11.84087 -5.558451,0 -8.334678,3.36471 -8.334678,9.96124 v 31.33301 h -12.78875 v -32.28468 c 0,-6.59653 1.684715,-11.83691 5.053129,-15.72148 3.474846,-3.87546 8.032741,-5.86452 13.690181,-5.86452 z" />
  <defs id="defs3">
    <linearGradient id="paint0_linear_89_8" x1="30.5" y1="0" x2="30.5" y2="65" gradientUnits="userSpaceOnUse" gradientTransform="matrix(3.8340097,0,0,3.8340097,0,486.33782)">
      <stop stop-color="#6364FF" id="stop2" />
      <stop offset="1" stop-color="#563ACC" id="stop3" />
    </linearGradient>
  </defs>
</svg>
