<svg id="Camada_1" data-name="Camada 1" xmlns="http://www.w3.org/2000/svg" viewBox="0 0 200 80"><path d="M46.93,37.64c0-2.74-1.13-4.13-3.39-4.13-2.5,0-3.76,1.66-3.76,4.92v7.13H34.62V38.43c0-3.28-1.24-4.92-3.75-4.92-2.26,0-3.39,1.39-3.39,4.13v13H22.29V37.24a9.84,9.84,0,0,1,2-6.53,7.05,7.05,0,0,1,5.57-2.44,6.65,6.65,0,0,1,6,3.14l1.3,2.22,1.3-2.22a6.68,6.68,0,0,1,6-3.14,7.74,7.74,0,0,1,2.14.29,13.39,13.39,0,0,0-10.27-7.67,87.06,87.06,0,0,0-12.91-.67H23.4c-8.36,0-10.15.53-11.1.67C6.8,21.71,1.8,25.63.58,31.24A36.16,36.16,0,0,0,0,39.87c.16,4,.19,8,.55,12.06a57.07,57.07,0,0,0,1.3,7.9c1.16,4.81,5.84,8.81,10.42,10.43a27.56,27.56,0,0,0,15.24.82c.56-.13,1.1-.28,1.65-.46A13.32,13.32,0,0,0,32.93,69s0,0,0,0a.08.08,0,0,0,0,0V65a.08.08,0,0,0,0,0,.05.05,0,0,0,0,0l0,0h0A41.28,41.28,0,0,1,23,66.08c-5.73,0-7.28-2.76-7.71-3.9a12.48,12.48,0,0,1-.68-3.08.06.06,0,0,1,0,0,0,0,0,0,1,0,0l.05,0h0a41,41,0,0,0,9.74,1.18c.79,0,1.57,0,2.36,0a61.07,61.07,0,0,0,10-.9l.24-.05c4.27-.83,8.36-3.17,9.88-8.53h0Zm-34.42,0a2.92,2.92,0,1,1,2.85-2.92A2.89,2.89,0,0,1,12.51,37.65Z"/><path d="M148,20.22V31.35a7.61,7.61,0,0,0-6.44-3.13,8.85,8.85,0,0,0-6.87,3.3,11.94,11.94,0,0,0-2.82,8,12,12,0,0,0,2.82,8.07,8.64,8.64,0,0,0,6.87,3.26A7.44,7.44,0,0,0,148,47.74v2.53h5.12V20.21H148Zm-1.55,23.69a5.21,5.21,0,0,1-3.93,1.67,5.38,5.38,0,0,1-4-1.67A6.31,6.31,0,0,1,137,39.54a6.14,6.14,0,0,1,1.55-4.33,5.14,5.14,0,0,1,4-1.73,5,5,0,0,1,3.93,1.73A6.14,6.14,0,0,1,148,39.54,6.35,6.35,0,0,1,146.49,43.91Z"/><path d="M167.31,28.19a9.82,9.82,0,0,0-7.47,3.3,11.26,11.26,0,0,0-3,8,11.44,11.44,0,0,0,3,8.07,10.18,10.18,0,0,0,14.93,0,11.53,11.53,0,0,0,3.06-8.07,11.41,11.41,0,0,0-3.06-8A9.8,9.8,0,0,0,167.31,28.19Zm3.85,15.57a5.26,5.26,0,0,1-7.71,0,6.74,6.74,0,0,1,0-8.5,5.28,5.28,0,0,1,7.71,0,6,6,0,0,1,1.55,4.25A6,6,0,0,1,171.16,43.76Z"/><path d="M192.49,28.21c-2.73,0-4.69,1-5.91,3V28.8h-5.13V50.25h5.13V38.66c0-3.56,1.47-5.32,4.36-5.32a3.72,3.72,0,0,1,2.86,1.11,4.74,4.74,0,0,1,1.08,3.3V50.24H200V37.08a9.35,9.35,0,0,0-2.14-6.52A6.84,6.84,0,0,0,192.49,28.21Z"/><path d="M118.84,28.21a9.78,9.78,0,0,0-7.46,3.3,11.26,11.26,0,0,0-3,8,11.33,11.33,0,0,0,3,8.06,10.17,10.17,0,0,0,14.92,0,11.56,11.56,0,0,0,3.06-8.06,11.47,11.47,0,0,0-3.06-8A9.8,9.8,0,0,0,118.84,28.21Zm3.85,15.58a5.28,5.28,0,0,1-7.71,0,6.75,6.75,0,0,1,0-8.51,5.28,5.28,0,0,1,7.71,0,6,6,0,0,1,1.55,4.26A6,6,0,0,1,122.69,43.79Z"/><path d="M67.71,28.83v2.53a7.73,7.73,0,0,0-6.48-3.13,8.79,8.79,0,0,0-6.83,3.3,12,12,0,0,0-2.82,8,12,12,0,0,0,2.82,8.07,8.55,8.55,0,0,0,6.83,3.26,7.58,7.58,0,0,0,6.48-3.14v2.53h5.12V28.81H67.71ZM66.12,43.91a5.45,5.45,0,0,1-7.87,0,6.31,6.31,0,0,1-1.55-4.37,6.14,6.14,0,0,1,1.55-4.33,5.36,5.36,0,0,1,7.87,0,6,6,0,0,1,1.59,4.33A6.13,6.13,0,0,1,66.12,43.91Z"/><path d="M101.89,22.8l-5.13,1.67V28.8H93.31v5.33h3.45v8.94c0,3,.71,5,2.18,6.13s4,1.5,7.43,1.07v-5a9.78,9.78,0,0,1-3.34-.18,1.9,1.9,0,0,1-1.16-2V34.13h4.51V28.81h-4.49Z"/><path d="M90.07,39.14a11.16,11.16,0,0,0-4.4-1.9c-2.43-.63-3.62-1.45-3.62-2.35,0-1.17.76-1.76,2.3-1.76a3.29,3.29,0,0,1,3.19,2.19l4.36-2.57A8.65,8.65,0,0,0,79,30a6.19,6.19,0,0,0-2.14,5A5.64,5.64,0,0,0,79,39.7a8.25,8.25,0,0,0,2.14,1.21c.59.21,1.35.47,2.26.73,2.43.63,3.62,1.45,3.62,2.35,0,1.25-.91,1.84-2.74,1.84A3.75,3.75,0,0,1,80.41,43L76,45.75c1.47,3.38,4.25,5.1,8.34,5.1A9.13,9.13,0,0,0,90,49.09,6.06,6.06,0,0,0,92.3,44,5.69,5.69,0,0,0,90.07,39.14Z"/></svg>