<?xml version="1.0" encoding="UTF-8"?><svg id="a" xmlns="http://www.w3.org/2000/svg" viewBox="0 0 146.1 80"><path d="m100.67,58.98h12.59c2.94-4.76,6.36-9.21,10.19-13.29,3.73,4.1,7.05,8.55,9.91,13.29h12.74c-4.42-6.79-9.37-13.23-14.81-19.23,5.44-5.83,10.39-12.09,14.81-18.73h-12.47c-2.99,4.59-6.4,8.89-10.19,12.85-3.82-3.93-7.24-8.23-10.19-12.85h-12.59c4.35,6.7,9.33,12.97,14.87,18.73-5.43,6.03-10.4,12.46-14.87,19.23Z" style="stroke-width:0px;"/><path d="m75.93,60c5.02.12,9.82-2.1,12.97-6.01v5h9.91V21.02h-9.91v5c-3.16-3.91-7.95-6.13-12.97-6.01-10.38,0-18.98,8.92-18.98,20s8.6,20,18.98,20Zm-9.62-20c0-6.18,5.01-11.2,11.2-11.2s11.2,5.01,11.2,11.2-5.01,11.2-11.2,11.2h0c-6.17.01-11.19-4.98-11.2-11.16,0-.01,0-.03,0-.04Zm2.61,0c.03,4.75,3.91,8.58,8.67,8.54,4.75-.03,8.58-3.91,8.54-8.67-.03-4.73-3.88-8.54-8.6-8.54-4.76,0-8.62,3.87-8.62,8.63,0,.01,0,.02,0,.04h.02Z" style="stroke-width:0px;"/><path d="m0,58.98h10.44v-23.6c4.56-3.61,6.64-4.75,8.35-4.75,2.02,0,3.35,1.27,3.35,4.43v23.92h10.44v-23.66c4.56-3.54,6.58-4.7,8.35-4.7,2.02,0,3.36,1.27,3.36,4.43v23.93h10.44v-27.59c.02-8.54-4.85-11.39-9.53-11.39-3.99,0-8.04,1.64-13.35,5.69-1.71-4.24-5.44-5.69-8.8-5.69-3.99,0-8.04,1.77-13.22,5.74v-4.73H0v37.97Z" style="stroke-width:0px;"/></svg>