<svg id="Camada_1" data-name="Camada 1" xmlns="http://www.w3.org/2000/svg" viewBox="0 0 300 120"><path d="M45,60.24A22.49,22.49,0,1,1,22.49,37.6,22.57,22.57,0,0,1,45,60.24m24.67,0c0,11.78-5,21.32-11.24,21.32S47.16,72,47.16,60.24s5-21.31,11.25-21.31,11.24,9.54,11.24,21.31m10.09,0c0,10.55-1.77,19.1-3.95,19.1s-4-8.55-4-19.1,1.77-19.09,4-19.09,3.95,8.55,3.95,19.09m62.07-20.68h.06v-.48H129.08L117.21,67,105.33,39.07H91.55v.48h.06c2.34.53,3.52,1.32,3.52,4.15V76.89c0,2.83-1.19,3.62-3.52,4.15h-.07v.49h9.36v-.49h-.07c-2.33-.53-3.52-1.32-3.52-4.15V45.64l15.26,35.9h.87l15.7-36.91V77.71c-.2,2.24-1.38,2.93-3.49,3.41h-.07v.48h16.29v-.48h-.06c-2.11-.48-3.32-1.17-3.52-3.41v-34h0c0-2.83,1.19-3.62,3.52-4.15m7.44,22c.27-6,2.41-10.26,6-10.34A3.93,3.93,0,0,1,158,52.29c1.54,1.49,2.26,4.6,2.15,9.25Zm-.16,1.68h19.09v-.08c-.05-4.56-1.37-8.1-3.92-10.54a12.91,12.91,0,0,0-8.88-3.26h-.08a13.22,13.22,0,0,0-5.5,1.21,12.85,12.85,0,0,0-4.62,3.65,18.05,18.05,0,0,0-3.65,10l0,.36c0,.12,0,.22,0,.33,0,.55,0,1.11,0,1.66.21,8.89,5,16,13.54,16,7.48,0,11.84-5.47,12.93-12.82l-.55-.19c-1.91,4-5.34,6.34-9.24,6-5.33-.4-9.41-5.8-9-12.35m40.68,12a3.74,3.74,0,0,1-3.69,2.3c-1.75,0-3.35-1.2-4.48-3.39a21.11,21.11,0,0,1-1.87-9.58c0-8.17,2.54-13.46,6.48-13.46a3.71,3.71,0,0,1,3.56,2.24Zm12.66,5.82c-2.33-.55-3.52-1.37-3.52-4.35V37.11l-14.18,4.18v.51h.09c2-.15,3.28.12,4.05.83a3.39,3.39,0,0,1,.9,2.62v5.43a9.2,9.2,0,0,0-5.08-1.33,13.69,13.69,0,0,0-10.53,4.85c-2.82,3.27-4.3,7.73-4.3,12.9,0,9.23,4.54,15.44,11.31,15.44a9,9,0,0,0,8.6-5.83v4.91h12.72V81.1ZM214.6,42.5a5,5,0,0,0-5.06-5.06,5.06,5.06,0,1,0,0,10.12,5,5,0,0,0,5.06-5.06M218,81.09c-2.34-.55-3.52-1.37-3.52-4.35h0V49.43l-12.73,3.66v.5h.07c2.76.25,3.51,1.2,3.51,4.41V81.61H218V81.1Zm32.61,0c-2.34-.55-3.52-1.37-3.52-4.35V49.43L234.92,53v.5H235c2.25.24,2.9,1.24,2.9,4.48V75.2A4.36,4.36,0,0,1,234,77.63c-2.77,0-4.29-1.87-4.29-5.26V49.44L217,53.09v.5h.08c2.75.25,3.51,1.19,3.51,4.41V72.61a16.28,16.28,0,0,0,.26,3l.23,1c1.08,3.86,3.9,5.88,8.32,5.88a9.14,9.14,0,0,0,8.48-6v5h12.73v-.51Zm49.44.52V81.1h-.06c-2.53-.59-3.52-1.69-3.52-3.93V58.59c0-5.79-3.25-9.25-8.7-9.25a9,9,0,0,0-8.61,5.87c-1-3.79-4-5.87-8.33-5.87a8.26,8.26,0,0,0-8.11,5.43V49.44l-12.73,3.5v.5H250c2.72.24,3.5,1.22,3.5,4.35V81.61H265.4V81.1h-.06c-2-.48-2.68-1.34-2.68-3.57V56.24a4,4,0,0,1,3.74-2.73c2.65,0,4,1.83,4,5.44V81.61h11.88V81.1h-.06c-2-.48-2.68-1.34-2.68-3.57V58.59a12.54,12.54,0,0,0-.16-2.12,4.23,4.23,0,0,1,3.92-3c2.68,0,4,1.78,4,5.44V81.61Z"/></svg>