<?xml version="1.0" encoding="UTF-8" standalone="no"?>
<svg width="32" height="32" fill="none" viewBox="0 0 32 32" class="au av aw" version="1.1" id="svg1" sodipodi:docname="ea7c2c02.svg" inkscape:version="1.4-beta2 (9aaf4f34, 2024-07-30)" xmlns:inkscape="http://www.inkscape.org/namespaces/inkscape" xmlns:sodipodi="http://sodipodi.sourceforge.net/DTD/sodipodi-0.dtd" xmlns="http://www.w3.org/2000/svg" xmlns:svg="http://www.w3.org/2000/svg">
  <defs id="defs1" />
  <sodipodi:namedview id="namedview1" pagecolor="#ffffff" bordercolor="#000000" borderopacity="0.25" inkscape:showpageshadow="2" inkscape:pageopacity="0.0" inkscape:pagecheckerboard="0" inkscape:deskcolor="#d1d1d1" inkscape:zoom="3.1270981" inkscape:cx="12.151841" inkscape:cy="51.005755" inkscape:window-width="1440" inkscape:window-height="790" inkscape:window-x="0" inkscape:window-y="0" inkscape:window-maximized="1" inkscape:current-layer="svg1" />
  <path d="M 31.9602,2.7913677 32,2.7826677 V 2.474076 H 23.867965 L 16.317014,20.221309 8.766063,2.4742611 H 0.0029619 v 0.3084061 l 0.039245,0.0087 c 1.4842737,0.3350631 2.238073,0.8346957 2.238073,2.6364468 v 21.094902 c 0,1.801935 -0.7565761,2.301568 -2.2410348,2.636631 L 0,29.168048 v 0.309331 h 5.9456101 v -0.308221 l -0.03943,-0.0089 C 4.4219064,28.825395 3.6682922,28.325577 3.6682922,26.523826 V 6.651442 l 9.6999818,22.825937 h 0.55017 L 23.900916,6.015007 v 21.029741 c -0.127176,1.423184 -0.873941,1.862654 -2.21808,2.166062 l -0.0398,0.0093 v 0.305814 H 32 v -0.305858 l -0.0398,-0.0093 C 30.614579,28.907358 29.849858,28.467888 29.722682,27.044704 L 29.715882,5.42777 h 0.0068 c 0,-1.8017506 0.753614,-2.3013832 2.237518,-2.6364463" id="path1" style="fill:#000000;stroke-width:0.185118" />
</svg>
