<svg height="32" viewBox="-23.1 0 12.77312 13.067326" width="32" version="1.1" xmlns="http://www.w3.org/2000/svg" xmlns:svg="http://www.w3.org/2000/svg">
  <path d="m -11.285247,10.366971 c 0.509856,0.07089 1.012896,0.140414 1.093328,0.652997 0.2126666,1.363252 -2.430678,0.856122 -3.035961,0.560296 -0.94746,-0.464868 -1.522752,-1.526841 -1.276004,-2.5751819 0.09406,-0.4048857 0.608011,-1.4545893 1.090602,-2.4429467 0.452599,-0.9256477 0.877934,-1.7967655 0.910652,-2.0339712 0.06544,-0.5030398 -0.201762,-0.5453006 -0.369442,-0.5534801 -0.215393,-0.010906 -0.3858,0.094064 -0.597104,0.4130652 -0.133598,0.2003979 -1.207841,2.3311601 -1.924911,3.7557579 -0.325817,0.6448179 -0.576656,1.1451312 -0.636639,1.2555546 -0.338086,0.6380022 -0.763421,0.7920492 -1.190118,0.7688742 -0.62437,-0.03272 -0.909289,-0.3667152 -0.819315,-0.9679089 0.02454,-0.1608637 0.328544,-0.905199 0.657088,-1.7095174 0.387163,-0.9515495 0.811134,-1.9876207 0.849305,-2.2520915 0.04362,-0.3012786 -0.01636,-0.6202794 -0.313547,-0.7729636 -0.299916,-0.1540474 -0.651635,0.080432 -0.757968,0.2590178 -0.06953,0.1172396 -0.549391,1.3373497 -1.055157,2.6242592 -0.558933,1.4191448 -1.149221,2.9187214 -1.258281,3.1163934 -0.359899,0.657087 -0.740246,0.865664 -1.311448,0.892929 -1.350982,0.06407 -2.352972,-1.04834 -1.911279,-2.4102284 0.03681,-0.1131499 0.110424,-0.3626249 0.212668,-0.7034378 0.445783,-1.4941237 1.408238,-4.7236665 1.943996,-5.6779425 0.443057,-0.7879594 1.674073,-1.3850636 2.527469,-1.0156224 0.279466,0.1213294 0.628458,0.2876461 0.891566,0.4144284 0.152684,0.073616 0.27674,0.1322354 0.342176,0.162227 0.365352,0.1622269 0.753878,-0.2017612 0.962456,-0.3980695 0.02999,-0.027265 0.05589,-0.051803 0.07771,-0.070889 q 0.03135,-0.027265 0.06135,-0.05453 c 0.155411,-0.1363253 0.309458,-0.2712872 0.49895,-0.351719 0.214031,-0.092701 0.550754,-0.1308721 0.811135,-0.092701 0.261745,0.038171 0.417155,0.1376884 0.513946,0.2153937 0.160864,0.1281457 0.269924,0.233116 0.407613,0.3653514 l 0.08452,0.080432 c 0.250838,0.238569 0.436241,0.1254191 0.571202,0.043624 l 0.03544,-0.020449 0.0068,-0.00409 c 0.233116,-0.1363251 0.421245,-0.2453853 1.11514,-0.233116 0.72116,0.012269 1.550017,0.271287 1.72315,1.5009399 0.0927,0.6639035 -0.432151,1.8349365 -0.977451,3.0523201 -0.578019,1.2882727 -1.17785,2.6283489 -1.090602,3.468112 0.06271,0.5902881 0.602558,0.6652671 1.136952,0.7388831 z" fill="#000" style="stroke-width:0.0136325" />
</svg>
