<?xml version="1.0" encoding="UTF-8" standalone="no"?>
<!DOCTYPE svg PUBLIC "-//W3C//DTD SVG 1.1//EN" "http://www.w3.org/Graphics/SVG/1.1/DTD/svg11.dtd">
<!-- Created with Vectornator (http://vectornator.io/) -->
<svg height="100%" stroke-miterlimit="10" style="fill-rule:nonzero;clip-rule:evenodd;stroke-linecap:round;stroke-linejoin:round;" version="1.1" viewBox="0 0 240 80" width="100%" xml:space="preserve" xmlns="http://www.w3.org/2000/svg" xmlns:xlink="http://www.w3.org/1999/xlink">
<defs/>
<path d="M0 0L240 0L240 80L0 80L0 0Z" fill="#000000" fill-opacity="0" fill-rule="nonzero" opacity="1" stroke="none"/>
<g id="Sem-Título">
<g opacity="1">
<path d="M55.2077 18.644C56.4889 18.6316 57.7187 18.8398 58.8719 19.2206C59.0196 19.2633 59.1619 19.3185 59.3078 19.3701C59.436 19.4199 59.5658 19.4644 59.6922 19.5196C64.0183 21.2084 66.8056 25.4456 66.6433 30.0868C66.6931 31.546 66.4547 33.0054 65.9065 34.3684C64.4117 42.0546 65.1947 46.1263 70.4926 46.2454C72.6769 46.0056 74.8525 46.7662 76.4114 48.3151C76.4114 48.3151 78.2747 50.1178 78.3013 53.3727C78.3263 56.599 77.0788 58.2399 76.5965 58.7524L76.4826 58.8681L76.4114 58.9321L76.1036 59.24C74.9134 60.3723 73.3915 61.0934 71.7614 61.2972C69.7939 61.5499 67.8085 60.989 66.264 59.7441C64.7196 58.4994 63.7498 56.6784 63.5789 54.7021C63.4559 53.3424 63.6953 51.9742 64.2728 50.7372C70.0583 38.2658 41.5297 37.981 46.3471 49.753C46.3578 49.769 46.3703 49.7815 46.3826 49.8028C48.6606 53.3834 47.4256 58.0406 43.6368 60.1939C42.284 60.9566 40.7446 61.3246 39.1932 61.2562C37.6417 61.3246 36.1022 60.9566 34.7495 60.1939C30.959 58.0406 29.724 53.3834 32.0036 49.801L32.0357 49.753C36.8566 37.981 8.32801 38.2658 14.1098 50.7372C14.6669 51.9402 14.9356 53.2998 14.8039 54.7021C14.6339 56.678 13.6649 58.499 12.121 59.744C10.5771 60.9889 8.59206 61.5499 6.62495 61.2972C4.48232 61.0321 2.71342 59.902 1.41076 58.2684C-0.38841 56.019-0.550352 50.8706 1.41076 48.9469C3.36652 47.0214 5.30093 45.9714 7.89557 46.2454C13.1881 46.1263 13.9728 42.0546 12.4798 34.3684C11.9374 33.0078 11.6852 31.5488 11.7395 30.085C11.578 25.4445 14.3652 21.2082 18.6906 19.5196C18.8204 19.4644 18.9486 19.4199 19.0784 19.3701C19.2209 19.3185 19.3668 19.2633 19.5145 19.2206C20.6951 18.8277 21.9326 18.6328 23.1769 18.644C26.9994 18.6682 30.5447 20.6436 32.5766 23.8814C35.2424 26.7572 36.5861 28.5048 39.1932 28.5048C41.9356 28.5048 43.1402 26.7572 45.8078 23.8814C47.8411 20.6449 51.3856 18.6699 55.2077 18.644ZM40.0242 31.1012L40.0064 31.1012C35.6072 31.1012 32.0321 34.2866 32.0321 38.2195C32.0321 40.4209 33.1532 42.3891 34.9133 43.6935C35.6785 44.3431 36.6395 44.8147 37.8104 45.0585C38.5098 45.2382 39.2466 45.3379 40.0082 45.3379L40.0741 45.3379C40.834 45.3379 41.576 45.2382 42.2701 45.0585C43.4429 44.8165 44.402 44.3431 45.1673 43.6935C46.929 42.3891 48.0484 40.4209 48.0484 38.2213C48.0484 34.2866 44.4768 31.1012 40.0741 31.1012L40.0421 31.1047L40.0046 31.1012L40.0242 31.1012Z" fill="#000000" fill-rule="evenodd" opacity="1" stroke="none"/>
<g opacity="1">
<path d="M112.836 25.9119L109.239 34.1407C107.104 39.0043 105.835 42.2023 105.2 43.9035C103.988 40.5878 102.721 37.2927 101.399 34.0197L98.1136 25.9119L94.2767 25.9119L92.5381 49.7958L95.4637 49.7958L96.8536 30.1046L104.924 50.0715L113.868 30.0334L115.091 49.7976L118.171 49.7976L116.445 25.9137L112.836 25.9137L112.836 25.9119ZM137.332 40.4529L137.332 40.4743L137.332 40.4529ZM137.33 40.4529C137.33 34.2564 135.625 31.409 130.124 31.409C125.498 31.409 122.129 34.728 122.129 40.8943C122.129 46.79 125.69 50.262 130.198 50.262C133.566 50.262 135.425 49.5092 137.008 48.5625L136.768 45.7952C135.7 46.742 133.244 47.6514 131.144 47.6514C127.379 47.6514 125.294 45.3165 125.294 41.0526L125.294 40.4529L137.332 40.4529L137.33 40.4529ZM129.936 33.9841C132.629 33.9556 134.443 34.6194 134.563 38.0931L125.618 38.0931C125.93 35.8402 127.721 34.009 129.936 33.9823L129.936 33.9841ZM195.398 40.4529L195.398 40.4743L195.398 40.4529ZM195.398 40.4529C195.396 34.2564 193.693 31.409 188.191 31.409C183.564 31.409 180.196 34.728 180.196 40.8943C180.196 46.79 183.756 50.262 188.264 50.262C191.633 50.262 193.49 49.5092 195.074 48.5625L194.834 45.7952C193.766 46.742 191.31 47.6514 189.21 47.6514C185.447 47.6514 183.361 45.3165 183.361 41.0526L183.361 40.4529L195.398 40.4529ZM188 33.9841C190.693 33.9556 192.508 34.6194 192.628 38.0931L183.685 38.0931C183.995 35.8402 185.785 34.009 188 33.9823L188 33.9841ZM221.921 40.4529L221.921 40.4743L221.921 40.4529ZM221.921 40.4529C221.917 34.2564 220.214 31.409 214.714 31.409C210.086 31.409 206.717 34.728 206.717 40.8943C206.717 46.79 210.28 50.262 214.787 50.262C218.155 50.262 220.014 49.5092 221.596 48.5625L221.356 45.7952C220.289 46.742 217.831 47.6514 215.734 47.6514C211.968 47.6514 209.882 45.3165 209.882 41.0526L209.882 40.4529L221.921 40.4529ZM214.524 33.9841C217.216 33.9556 219.031 34.6194 219.15 38.0931L210.204 38.0931C210.516 35.8402 212.306 34.009 214.522 33.9823L214.524 33.9841ZM150.233 31.409C147.545 31.409 145.882 32.7508 144.416 34.5357L143.938 31.8878L141.132 31.8878L141.288 33.315C141.407 34.2225 141.443 35.4451 141.443 36.8706L141.443 49.7958L144.49 49.7958L144.49 37.9348C145.315 36.7851 147.155 34.1425 149.957 34.1425C152.69 34.1425 152.928 35.5305 153.001 38.2497C153.037 39.677 153.037 42.0474 153.037 42.0474C153.074 45.6404 152.92 49.7976 152.92 49.7976L155.964 49.7976C155.964 49.7976 156.046 44.4196 156.046 41.4619C156.046 39.6877 156.082 37.9028 155.927 36.1178C155.603 32.4412 153.433 31.4108 150.233 31.4108M176.262 48.381C176.141 47.4609 176.106 46.2739 176.106 44.8485L176.106 23.9828L173.063 23.9828L173.063 32.2117C171.839 31.6244 170.842 31.4215 169.139 31.4215C163.565 31.4215 160.039 34.9059 160.039 40.9566C160.039 46.5266 163.409 50.2887 167.677 50.2887C170.052 50.2887 171.476 49.5324 173.254 47.6762C173.327 48.3939 173.447 49.106 173.612 49.8082L176.419 49.8082L176.262 48.3828L176.262 48.381ZM173.071 44.537L173.06 44.537C172.028 46.0818 170.256 47.6638 168.158 47.6638C166.177 47.6638 163.373 45.4482 163.373 40.67C163.373 37.2301 165.628 34.0197 168.877 34.0197C171.766 34.0197 173.071 34.8116 173.071 37.3387L173.071 44.537ZM195.409 40.4529L195.409 40.4743L195.409 40.4529Z" fill="#000000" fill-rule="evenodd" opacity="1" stroke="none"/>
<path d="M199.522 49.7958L202.566 49.7958L202.566 23.9828L199.522 23.9828L199.522 49.7958ZM221.882 40.4529L221.882 40.4743L221.882 40.4529ZM236.99 31.4037L232.122 45.6511L226.662 31.409L223.412 31.409L230.611 50.0004L229.664 52.2516C228.632 54.743 227.255 57.7149 227.255 57.7149L230.504 57.7149C230.504 57.7149 231.81 54.4316 233.152 50.634L240 31.4144L236.993 31.4144" fill="#000000" fill-rule="evenodd" opacity="1" stroke="none"/>
</g>
</g>
</g>
</svg>
