<?xml version="1.0" encoding="UTF-8" standalone="no"?>
<!DOCTYPE svg PUBLIC "-//W3C//DTD SVG 1.1//EN" "http://www.w3.org/Graphics/SVG/1.1/DTD/svg11.dtd">
<!-- Created with Vectornator (http://vectornator.io/) -->
<svg height="80.0pt" stroke-miterlimit="10" style="fill-rule:nonzero;clip-rule:evenodd;stroke-linecap:round;stroke-linejoin:round;" version="1.1" viewBox="0 0 200 80" width="200.0pt" xml:space="preserve" xmlns="http://www.w3.org/2000/svg" xmlns:xlink="http://www.w3.org/1999/xlink">
<defs/>
<path d="M0 0L200 0L200 80L0 80L0 0Z" fill="#000000" fill-opacity="0" fill-rule="nonzero" opacity="1" stroke="none"/>
<g id="Sem-Título">
<g opacity="1">
<path d="M46.0064 22.2033C47.0741 22.193 48.0989 22.3665 49.0599 22.6838C49.183 22.7194 49.3016 22.7654 49.4232 22.8084C49.53 22.8499 49.6382 22.887 49.7435 22.933C53.3486 24.3403 55.6713 27.8713 55.5361 31.739C55.5776 32.955 55.3789 34.1711 54.9221 35.307C53.6764 41.7121 54.3289 45.1052 58.7438 45.2045C60.5641 45.0046 62.3771 45.6385 63.6762 46.9292C63.6762 46.9292 65.2289 48.4315 65.2511 51.1439C65.2719 53.8325 64.2323 55.1999 63.8304 55.627L63.7355 55.7234L63.6762 55.7767L63.4197 56.0333C62.4278 56.9769 61.1596 57.5778 59.8012 57.7476C58.1616 57.9582 56.5071 57.4908 55.22 56.4534C53.933 55.4161 53.1248 53.8986 52.9824 52.2517C52.8799 51.1186 53.0794 49.9785 53.5607 48.9476C58.3819 38.5548 34.6081 38.3175 38.6226 48.1275C38.6315 48.1408 38.6419 48.1512 38.6522 48.169C40.5505 51.1528 39.5213 55.0338 36.364 56.8282C35.2367 57.4638 33.9538 57.7705 32.661 57.7135C31.3681 57.7705 30.0852 57.4638 28.9579 56.8282C25.7992 55.0338 24.77 51.1528 26.6697 48.1675L26.6964 48.1275C30.7138 38.3175 6.94001 38.5548 11.7582 48.9476C12.2224 49.9501 12.4463 51.0831 12.3366 52.2517C12.1949 53.8983 11.3874 55.4158 10.1008 56.4533C8.81425 57.4907 7.16005 57.9582 5.52079 57.7476C3.73527 57.5267 2.26118 56.585 1.17563 55.2236C-0.323674 53.3491-0.458626 49.0588 1.17563 47.4557C2.80543 45.8511 4.41744 44.9761 6.57964 45.2045C10.9901 45.1052 11.644 41.7121 10.3998 35.307C9.94781 34.1731 9.73768 32.9573 9.7829 31.7375C9.64834 27.8704 11.971 24.3401 15.5755 22.933C15.6837 22.887 15.7905 22.8499 15.8987 22.8084C16.0174 22.7654 16.139 22.7194 16.2621 22.6838C17.2459 22.3564 18.2772 22.194 19.3141 22.2033C22.4995 22.2235 25.4539 23.8696 27.1472 26.5678C29.3687 28.9643 30.4884 30.4206 32.661 30.4206C34.9463 30.4206 35.9502 28.9643 38.1732 26.5678C39.8676 23.8707 42.8213 22.2249 46.0064 22.2033ZM33.3535 32.5843L33.3387 32.5843C29.6727 32.5843 26.6934 35.2388 26.6934 38.5162C26.6934 40.3507 27.6277 41.9909 29.0944 43.0779C29.7321 43.6192 30.5329 44.0122 31.5087 44.2154C32.0915 44.3651 32.7055 44.4482 33.3402 44.4482L33.3951 44.4482C34.0283 44.4482 34.6467 44.3651 35.2251 44.2154C36.2024 44.0137 37.0017 43.6192 37.6394 43.0779C39.1075 41.9909 40.0403 40.3507 40.0403 38.5177C40.0403 35.2388 37.064 32.5843 33.3951 32.5843L33.3684 32.5872L33.3372 32.5843L33.3535 32.5843Z" fill="#000000" fill-rule="evenodd" opacity="1" stroke="none"/>
<g opacity="1">
<path d="M94.03 28.2599L91.0329 35.1172C89.2533 39.1702 88.196 41.8352 87.6665 43.2529C86.657 40.4898 85.6009 37.7439 84.4989 35.0164L81.7613 28.2599L78.5639 28.2599L77.1151 48.1631L79.5531 48.1631L80.7113 31.7538L87.4367 48.3929L94.8902 31.6945L95.909 48.1646L98.476 48.1646L97.0375 28.2614L94.03 28.2614L94.03 28.2599ZM114.443 40.3774L114.443 40.3952L114.443 40.3774ZM114.442 40.3774C114.442 35.2136 113.021 32.8408 108.437 32.8408C104.582 32.8408 101.774 35.6066 101.774 40.7452C101.774 45.6583 104.742 48.5516 108.498 48.5516C111.305 48.5516 112.854 47.9243 114.173 47.1354L113.973 44.8293C113.083 45.6183 111.037 46.3761 109.287 46.3761C106.149 46.3761 104.412 44.4304 104.412 40.8771L104.412 40.3774L114.443 40.3774L114.442 40.3774ZM108.28 34.9867C110.524 34.963 112.036 35.5161 112.136 38.4109L104.682 38.4109C104.942 36.5335 106.434 35.0075 108.28 34.9852L108.28 34.9867ZM162.832 40.3774L162.832 40.3952L162.832 40.3774ZM162.832 40.3774C162.83 35.2136 161.411 32.8408 156.826 32.8408C152.97 32.8408 150.163 35.6066 150.163 40.7452C150.163 45.6583 153.13 48.5516 156.887 48.5516C159.694 48.5516 161.242 47.9243 162.562 47.1354L162.362 44.8293C161.472 45.6183 159.425 46.3761 157.675 46.3761C154.539 46.3761 152.801 44.4304 152.801 40.8771L152.801 40.3774L162.832 40.3774ZM156.667 34.9867C158.911 34.963 160.423 35.5161 160.523 38.4109L153.071 38.4109C153.329 36.5335 154.821 35.0075 156.667 34.9852L156.667 34.9867ZM184.934 40.3774L184.934 40.3952L184.934 40.3774ZM184.934 40.3774C184.931 35.2136 183.512 32.8408 178.928 32.8408C175.072 32.8408 172.264 35.6066 172.264 40.7452C172.264 45.6583 175.233 48.5516 178.989 48.5516C181.796 48.5516 183.345 47.9243 184.663 47.1354L184.463 44.8293C183.574 45.6183 181.526 46.3761 179.778 46.3761C176.64 46.3761 174.902 44.4304 174.902 40.8771L174.902 40.3774C174.902 40.3774 184.934 40.3774 184.934 40.3774ZM178.77 34.9867C181.013 34.963 182.526 35.5161 182.625 38.4109L175.17 38.4109C175.43 36.5335 176.922 35.0075 178.768 34.9852L178.77 34.9867ZM125.194 32.8408C122.954 32.8408 121.568 33.959 120.347 35.4464L119.948 33.2398L117.61 33.2398L117.74 34.4291C117.839 35.1854 117.869 36.2042 117.869 37.3921L117.869 48.1631L120.408 48.1631L120.408 38.279C121.096 37.3209 122.629 35.1187 124.964 35.1187C127.242 35.1187 127.44 36.2754 127.501 38.5414C127.531 39.7308 127.531 41.7061 127.531 41.7061C127.562 44.7003 127.433 48.1646 127.433 48.1646L129.97 48.1646C129.97 48.1646 130.038 43.683 130.038 41.2182C130.038 39.7397 130.068 38.2523 129.939 36.7648C129.669 33.701 127.861 32.8423 125.194 32.8423M146.885 46.9841C146.784 46.2174 146.755 45.2282 146.755 44.0404L146.755 26.6523L144.219 26.6523L144.219 33.5097C143.199 33.0203 142.368 32.8512 140.949 32.8512C136.304 32.8512 133.366 35.7549 133.366 40.7971C133.366 45.4388 136.174 48.5739 139.731 48.5739C141.71 48.5739 142.897 47.9436 144.378 46.3968C144.439 46.9949 144.539 47.5883 144.677 48.1735L147.016 48.1735L146.885 46.9856L146.885 46.9841ZM144.226 43.7808L144.217 43.7808C143.357 45.0681 141.88 46.3865 140.132 46.3865C138.481 46.3865 136.144 44.5401 136.144 40.5583C136.144 37.6917 138.023 35.0164 140.731 35.0164C143.138 35.0164 144.226 35.6763 144.226 37.7822L144.226 43.7808ZM162.841 40.3774L162.841 40.3952L162.841 40.3774Z" fill="#000000" fill-rule="evenodd" opacity="1" stroke="none"/>
<path d="M166.268 48.1631L168.805 48.1631L168.805 26.6523L166.268 26.6523L166.268 48.1631ZM184.902 40.3774L184.902 40.3952L184.902 40.3774ZM197.492 32.8364L193.435 44.7092L188.885 32.8408L186.177 32.8408L192.176 48.3336L191.387 50.2096C190.527 52.2858 189.379 54.7624 189.379 54.7624L192.087 54.7624C192.087 54.7624 193.175 52.0263 194.293 48.8616L200 32.8453L197.494 32.8453" fill="#000000" fill-rule="evenodd" opacity="1" stroke="none"/>
</g>
</g>
</g>
</svg>
