<?xml version="1.0" encoding="UTF-8" standalone="no"?>
<!-- Created with Vectornator (http://vectornator.io/) -->

<svg height="32" stroke-miterlimit="10" style="clip-rule:evenodd;fill-rule:nonzero;stroke-linecap:round;stroke-linejoin:round" version="1.1" viewBox="0 0 32 32" width="32" xml:space="preserve" id="svg5" sodipodi:docname="mendeley.svg" inkscape:version="1.4-beta2 (9aaf4f34, 2024-07-30)" xmlns:inkscape="http://www.inkscape.org/namespaces/inkscape" xmlns:sodipodi="http://sodipodi.sourceforge.net/DTD/sodipodi-0.dtd" xmlns="http://www.w3.org/2000/svg" xmlns:svg="http://www.w3.org/2000/svg"><sodipodi:namedview id="namedview5" pagecolor="#ffffff" bordercolor="#000000" borderopacity="0.25" inkscape:showpageshadow="2" inkscape:pageopacity="0.0" inkscape:pagecheckerboard="0" inkscape:deskcolor="#d1d1d1" inkscape:zoom="2.1134933" inkscape:cx="33.593671" inkscape:cy="67.423917" inkscape:window-width="1440" inkscape:window-height="790" inkscape:window-x="0" inkscape:window-y="0" inkscape:window-maximized="1" inkscape:current-layer="svg5" />
<defs id="defs1" />

<path d="m 22.562052,7.2723092 c 0.523596,-0.0051 1.026185,0.08002 1.49747,0.235643 0.06036,0.01745 0.118516,0.04001 0.178142,0.0611 0.05239,0.02035 0.105439,0.03854 0.157095,0.0611 1.767973,0.690172 2.907075,2.4218128 2.840747,4.3185588 0.02035,0.59634 -0.07708,1.192761 -0.301113,1.749787 -0.610888,3.141164 -0.290895,4.805169 1.874229,4.853842 0.89267,-0.098 1.781785,0.212839 2.41887,0.845837 0,0 0.761486,0.73672 0.772357,2.066919 0.01022,1.318511 -0.499607,1.989107 -0.696711,2.198553 l -0.04655,0.04728 -0.0291,0.02616 -0.12579,0.125831 c -0.486406,0.462744 -1.10837,0.75744 -1.774552,0.840728 -0.80407,0.103273 -1.615455,-0.125954 -2.246655,-0.634714 -0.631159,-0.508679 -1.027493,-1.252878 -1.097335,-2.060544 -0.05027,-0.555676 0.04757,-1.114826 0.28358,-1.620358 2.364394,-5.09676 -9.294556,-5.213151 -7.325801,-0.402219 0.0044,0.0065 0.0095,0.01165 0.01451,0.02035 0.930964,1.463305 0.426249,3.36659 -1.122142,4.246591 -0.552856,0.311697 -1.181972,0.46209 -1.815992,0.434137 -0.63406,0.02795 -1.263217,-0.12244 -1.816033,-0.434137 -1.549085,-0.880001 -2.0538,-2.783286 -1.122182,-4.247327 l 0.01312,-0.01962 c 1.970185,-4.810932 -9.6887602,-4.694541 -7.3258823,0.402219 0.2276733,0.491637 0.3374845,1.047272 0.2836619,1.620358 -0.069475,0.807503 -0.4654818,1.551702 -1.0964364,2.060503 -0.6309546,0.508761 -1.4421925,0.738028 -2.2461028,0.634755 -0.8756411,-0.10834 -1.5985478,-0.570184 -2.1309135,-1.237797 -0.7352773,-0.919275 -0.80145908,-3.023302 0,-3.809472 0.7992719,-0.786906 1.5898185,-1.216016 2.6501852,-1.104039 2.1629291,-0.04867 2.483617,-1.712678 1.873464,-4.853842 -0.2216658,-0.556045 -0.3247338,-1.152303 -0.3025427,-1.750523 -0.066001,-1.89646 1.0730601,-3.6277328 2.8407465,-4.3178228 0.053046,-0.02256 0.1054384,-0.04075 0.1584845,-0.0611 0.058236,-0.02109 0.1178621,-0.04365 0.1782236,-0.0611 0.4824827,-0.160569 0.988219,-0.24022 1.4967343,-0.235643 1.5621637,0.0099 3.0110417,0.817188 3.8414307,2.140399 1.089448,1.1752698 1.638586,1.8894718 2.704044,1.8894718 1.120753,0 1.613044,-0.714202 2.703227,-1.8894718 0.830961,-1.322679 2.279513,-2.129814 3.841512,-2.140399 z m -6.205129,5.0909568 h -0.0073 c -1.797846,0 -3.258903,1.301796 -3.258903,2.909077 0,0.899659 0.458166,1.704015 1.177477,2.237092 0.312718,0.265475 0.705456,0.458207 1.183974,0.557842 0.285828,0.07344 0.586941,0.114184 0.898188,0.114184 h 0.02693 c 0.310553,0 0.61379,-0.04074 0.897452,-0.114184 0.479295,-0.0989 0.871256,-0.292367 1.184016,-0.557842 0.719964,-0.533077 1.177436,-1.337433 1.177436,-2.236356 0,-1.608017 -1.459627,-2.909813 -3.258904,-2.909813 l -0.01308,0.0014 -0.01533,-0.0014 z" fill="#000000" fill-rule="evenodd" opacity="1" stroke="none" id="path2" style="clip-rule:evenodd;fill-rule:nonzero;stroke-width:0.408676;stroke-linecap:round;stroke-linejoin:round" />
</svg>
