<?xml version="1.0" encoding="UTF-8" standalone="no"?>
<svg id="a" viewBox="0 0 32 32" version="1.1" sodipodi:docname="mercado-livre.svg" width="32" height="32" inkscape:version="1.4-beta2 (9aaf4f34, 2024-07-30)" xmlns:inkscape="http://www.inkscape.org/namespaces/inkscape" xmlns:sodipodi="http://sodipodi.sourceforge.net/DTD/sodipodi-0.dtd" xmlns="http://www.w3.org/2000/svg" xmlns:svg="http://www.w3.org/2000/svg">
  <sodipodi:namedview id="namedview1" pagecolor="#ffffff" bordercolor="#000000" borderopacity="0.25" inkscape:showpageshadow="2" inkscape:pageopacity="0.0" inkscape:pagecheckerboard="0" inkscape:deskcolor="#d1d1d1" inkscape:zoom="3.7124066" inkscape:cx="9.6972135" inkscape:cy="42.155942" inkscape:window-width="1440" inkscape:window-height="790" inkscape:window-x="0" inkscape:window-y="0" inkscape:window-maximized="1" inkscape:current-layer="a" />
  <defs id="defs1">
    <style id="style1">.ab{stroke-width:0px;}</style>
  </defs>
  <g id="g1" transform="matrix(0.39608862,0,0,0.39608862,1.951e-7,0.1564552)">
    <path class="ab" d="M 40.4,12.06 C 18.09,12.06 0,23.93 0,38.46 V 40 C 0,55.4 15.81,67.94 40.4,67.94 64.99,67.94 80.79,55.4 80.79,40 V 38.46 C 80.79,23.87 62.7,12.06 40.4,12.06 Z m 0,51.25 C 18.95,63.31 1.55,52.19 1.55,38.45 1.55,24.71 18.94,13.6 40.39,13.6 c 21.45,0 38.81,11.12 38.81,24.85 0,13.73 -17.36,24.86 -38.81,24.86 z" id="path1" />
    <g id="b">
      <path id="c" class="ab" d="m 37.4,55.25 c -1.7,0.01 -3.09,-1.34 -3.13,-3.04 0,-0.15 0,-0.53 -0.32,-0.53 -0.15,0.01 -0.28,0.09 -0.37,0.21 -0.4,0.44 -0.96,0.69 -1.55,0.69 -0.35,0 -0.69,-0.07 -1.01,-0.21 -1.8,-0.75 -1.8,-1.97 -1.75,-2.45 0.01,-0.13 0,-0.26 -0.05,-0.37 l -0.11,-0.1 H 28.9 c -0.11,0.01 -0.22,0.05 -0.32,0.1 -0.44,0.34 -0.98,0.53 -1.54,0.54 -0.29,0 -0.58,-0.06 -0.86,-0.17 -1.56,-0.57 -2.45,-2.21 -2.08,-3.83 0,-0.17 0,-0.26 -0.1,-0.32 l -0.16,-0.17 -0.15,0.17 c -0.46,0.43 -1.07,0.68 -1.7,0.69 -1.35,0 -2.45,-1.11 -2.44,-2.46 0,-1.35 1.11,-2.45 2.46,-2.44 1.23,0 2.26,0.92 2.42,2.13 l 0.11,0.64 0.37,-0.58 c 0.65,-0.97 1.73,-1.55 2.89,-1.55 0.37,0 0.74,0.05 1.1,0.15 1.02,0.33 1.73,1.27 1.76,2.34 0.05,0.32 0.26,0.32 0.32,0.32 0.06,0 0.21,-0.11 0.26,-0.15 0.47,-0.48 1.11,-0.74 1.77,-0.74 0.48,0.01 0.95,0.12 1.39,0.32 2.34,1.01 1.28,3.94 1.28,3.99 -0.21,0.47 -0.21,0.69 0,0.85 l 0.11,0.05 v 0 c 0.15,-0.02 0.29,-0.06 0.43,-0.11 0.39,-0.15 0.8,-0.23 1.22,-0.26 1.77,-0.04 3.23,1.36 3.28,3.12 0,0.03 0,0.05 0,0.08 -0.12,1.74 -1.56,3.08 -3.3,3.08 M 62.04,41.03 C 58.2,37.73 49.37,29.96 46.97,28.2 c -0.93,-0.79 -1.99,-1.4 -3.13,-1.8 -0.5,-0.15 -1.03,-0.22 -1.55,-0.22 -0.67,0.01 -1.33,0.12 -1.97,0.32 -1.69,0.7 -3.24,1.69 -4.58,2.93 v 0.05 c -1.14,1.08 -2.48,1.93 -3.94,2.51 -0.47,0.1 -0.95,0.15 -1.43,0.15 -0.98,0.07 -1.95,-0.24 -2.72,-0.85 -0.05,-0.11 0,-0.22 0.15,-0.43 v -0.05 l 3.35,-3.62 c 2.66,-2.66 5.11,-5.1 10.86,-5.27 h 0.27 c 2.61,0.1 5.18,0.71 7.56,1.81 3.19,1.6 6.71,2.43 10.27,2.44 3.89,-0.07 7.72,-0.99 11.22,-2.68 -0.43,-0.4 -0.9,-0.77 -1.39,-1.1 -3.12,1.4 -6.48,2.15 -9.9,2.2 -3.33,-0.01 -6.62,-0.76 -9.62,-2.2 -2.58,-1.18 -5.36,-1.83 -8.19,-1.91 h -0.32 c -3.42,-0.07 -6.75,1.1 -9.37,3.3 -1.59,0.09 -3.16,0.38 -4.69,0.85 -1.07,0.35 -2.18,0.56 -3.3,0.64 -0.43,0 -1.17,-0.05 -1.22,-0.05 -4.04,-0.71 -7.99,-1.81 -11.81,-3.3 -0.49,0.34 -0.95,0.7 -1.39,1.1 4.13,1.7 8.43,2.95 12.83,3.73 0.55,0.07 1.1,0.1 1.65,0.11 1.27,-0.07 2.52,-0.3 3.73,-0.69 0.77,-0.24 1.55,-0.44 2.34,-0.59 -0.22,0.23 -0.45,0.44 -0.69,0.64 l -3.41,3.73 c -0.53,0.49 -0.72,1.24 -0.48,1.91 0.21,0.41 0.53,0.76 0.91,1.01 1.1,0.62 2.35,0.93 3.62,0.91 0.48,0 0.96,-0.05 1.43,-0.17 1.44,-0.32 2.94,-1.54 4.53,-2.77 1.32,-1.14 2.83,-2.04 4.47,-2.66 0.39,-0.14 0.8,-0.23 1.22,-0.27 h 0.32 c 1.23,0.21 2.37,0.76 3.3,1.59 2.83,2.13 15.28,12.99 15.4,13.09 0.51,0.47 0.79,1.13 0.78,1.81 -0.04,0.67 -0.42,1.27 -1.01,1.59 -0.48,0.35 -1.05,0.56 -1.65,0.6 -0.51,0.02 -1.01,-0.13 -1.43,-0.42 -0.05,-0.05 -4.31,-3.94 -5.85,-5.27 -0.2,-0.21 -0.46,-0.34 -0.75,-0.37 -0.12,0 -0.24,0.06 -0.32,0.15 -0.26,0.32 0.05,0.75 0.37,1.01 l 4.99,5 c 0.38,0.35 0.63,0.82 0.69,1.33 0.04,0.86 -0.41,1.66 -1.17,2.08 -0.52,0.36 -1.13,0.56 -1.76,0.58 -0.5,-0.03 -0.99,-0.17 -1.43,-0.43 l -0.69,-0.69 c -1.33,-1.28 -2.66,-2.61 -3.62,-3.45 -0.2,-0.2 -0.46,-0.33 -0.75,-0.37 -0.11,0.01 -0.22,0.05 -0.32,0.11 -0.11,0.1 -0.21,0.37 0.11,0.74 0.07,0.11 0.16,0.2 0.26,0.27 l 3.62,4.09 c 0.44,0.49 0.48,1.22 0.1,1.76 h -0.21 l -0.32,0.32 c -0.5,0.39 -1.12,0.59 -1.76,0.58 -0.16,0.03 -0.32,0.03 -0.47,0 -0.27,0 -0.52,-0.11 -0.69,-0.32 v -0.05 c -0.21,-0.21 -2.02,-2.07 -3.56,-3.3 -0.18,-0.2 -0.43,-0.33 -0.69,-0.37 -0.12,0 -0.24,0.06 -0.32,0.15 -0.32,0.32 0.17,0.8 0.32,1.01 l 3.09,3.41 c 0,0 0,0.11 -0.11,0.21 -0.11,0.1 -0.48,0.54 -1.59,0.69 h -0.48 c -1.07,-0.08 -2.1,-0.38 -3.04,-0.9 0.29,-0.65 0.44,-1.35 0.43,-2.06 0.02,-2.56 -2.05,-4.66 -4.61,-4.67 -0.01,0 -0.03,0 -0.04,0 h -0.15 c 0.28,-1.82 -0.67,-3.61 -2.34,-4.4 -0.6,-0.25 -1.25,-0.39 -1.9,-0.4 -0.49,0.01 -0.97,0.1 -1.43,0.27 -0.46,-0.93 -1.29,-1.63 -2.29,-1.92 -0.53,-0.18 -1.09,-0.27 -1.65,-0.26 -0.94,-0.01 -1.86,0.29 -2.61,0.86 -0.74,-0.92 -1.85,-1.47 -3.02,-1.5 -1.03,0.01 -2.02,0.4 -2.77,1.1 -0.96,-0.75 -4.78,-3.2 -15.06,-5.5 -0.48,-0.1 -1.65,-0.42 -2.34,-0.64 -0.12,0.56 -0.21,1.13 -0.26,1.7 0,0 1.86,0.48 2.2,0.54 10.48,2.33 13.95,4.73 14.53,5.21 -0.21,0.47 -0.31,0.97 -0.32,1.48 0,2.17 1.75,3.93 3.92,3.94 0,0 0.01,0 0.02,0 0.23,0.03 0.46,0.03 0.69,0 0.31,1.59 1.44,2.89 2.98,3.41 0.44,0.16 0.91,0.25 1.39,0.26 0.3,-0.01 0.6,-0.04 0.9,-0.1 0.46,1.07 1.35,1.9 2.45,2.29 0.49,0.21 1.01,0.31 1.54,0.32 0.4,0.01 0.8,-0.06 1.17,-0.22 0.71,1.73 2.39,2.86 4.26,2.88 1.24,0 2.44,-0.49 3.3,-1.39 1.21,0.69 2.57,1.07 3.96,1.12 0.18,0.03 0.37,0.03 0.55,0 1.03,-0.02 2,-0.48 2.66,-1.28 0,-0.1 0.1,-0.15 0.15,-0.26 0.41,0.13 0.84,0.21 1.28,0.22 0.93,-0.04 1.82,-0.36 2.56,-0.91 0.75,-0.52 1.29,-1.31 1.48,-2.2 v -0.05 c 0.32,0 0.64,0.05 0.9,0.05 0.93,0 1.84,-0.29 2.61,-0.8 1.18,-0.68 1.9,-1.94 1.87,-3.3 0.28,0.06 0.56,0.1 0.85,0.11 0.87,-0.02 1.72,-0.27 2.45,-0.75 0.98,-0.59 1.61,-1.62 1.7,-2.76 0.06,-0.77 -0.13,-1.54 -0.54,-2.2 5.23,-2.13 10.62,-3.82 16.13,-5.06 -0.04,-0.55 -0.11,-1.1 -0.21,-1.65 -5.84,1.26 -11.55,3.11 -17.03,5.5" />
    </g>
  </g>
</svg>
