<?xml version="1.0" encoding="UTF-8"?><svg id="a" xmlns="http://www.w3.org/2000/svg" viewBox="0 0 220 80"><defs><style>.ab{stroke-width:0px;}</style></defs><path class="ab" d="m40.4,12.06C18.09,12.06,0,23.93,0,38.46v1.54c0,15.4,15.81,27.94,40.4,27.94s40.39-12.54,40.39-27.94v-1.54c0-14.59-18.09-26.4-40.39-26.4Zm0,51.25C18.95,63.31,1.55,52.19,1.55,38.45S18.94,13.6,40.39,13.6s38.81,11.12,38.81,24.85-17.36,24.86-38.81,24.86h.01Z"/><g id="b"><path id="c" class="ab" d="m37.4,55.25c-1.7.01-3.09-1.34-3.13-3.04,0-.15,0-.53-.32-.53-.15.01-.28.09-.37.21-.4.44-.96.69-1.55.69-.35,0-.69-.07-1.01-.21-1.8-.75-1.8-1.97-1.75-2.45.01-.13,0-.26-.05-.37l-.11-.1h-.21c-.11.01-.22.05-.32.1-.44.34-.98.53-1.54.54-.29,0-.58-.06-.86-.17-1.56-.57-2.45-2.21-2.08-3.83,0-.17,0-.26-.1-.32l-.16-.17-.15.17c-.46.43-1.07.68-1.7.69-1.35,0-2.45-1.11-2.44-2.46,0-1.35,1.11-2.45,2.46-2.44,1.23,0,2.26.92,2.42,2.13l.11.64.37-.58c.65-.97,1.73-1.55,2.89-1.55.37,0,.74.05,1.1.15,1.02.33,1.73,1.27,1.76,2.34.05.32.26.32.32.32s.21-.11.26-.15c.47-.48,1.11-.74,1.77-.74.48.01.95.12,1.39.32,2.34,1.01,1.28,3.94,1.28,3.99-.21.47-.21.69,0,.85l.11.05h0c.15-.02.29-.06.43-.11.39-.15.8-.23,1.22-.26,1.77-.04,3.23,1.36,3.28,3.12,0,.03,0,.05,0,.08-.12,1.74-1.56,3.08-3.3,3.08m24.62-14.21c-3.84-3.3-12.67-11.07-15.07-12.83-.93-.79-1.99-1.4-3.13-1.8-.5-.15-1.03-.22-1.55-.22-.67.01-1.33.12-1.97.32-1.69.7-3.24,1.69-4.58,2.93v.05c-1.14,1.08-2.48,1.93-3.94,2.51-.47.1-.95.15-1.43.15-.98.07-1.95-.24-2.72-.85-.05-.11,0-.22.15-.43v-.05l3.35-3.62c2.66-2.66,5.11-5.1,10.86-5.27h.27c2.61.1,5.18.71,7.56,1.81,3.19,1.6,6.71,2.43,10.27,2.44,3.89-.07,7.72-.99,11.22-2.68-.43-.4-.9-.77-1.39-1.1-3.12,1.4-6.48,2.15-9.9,2.2-3.33-.01-6.62-.76-9.62-2.2-2.58-1.18-5.36-1.83-8.19-1.91h-.32c-3.42-.07-6.75,1.1-9.37,3.3-1.59.09-3.16.38-4.69.85-1.07.35-2.18.56-3.3.64-.43,0-1.17-.05-1.22-.05-4.04-.71-7.99-1.81-11.81-3.3-.49.34-.95.7-1.39,1.1,4.13,1.7,8.43,2.95,12.83,3.73.55.07,1.1.1,1.65.11,1.27-.07,2.52-.3,3.73-.69.77-.24,1.55-.44,2.34-.59-.22.23-.45.44-.69.64l-3.41,3.73c-.53.49-.72,1.24-.48,1.91.21.41.53.76.91,1.01,1.1.62,2.35.93,3.62.91.48,0,.96-.05,1.43-.17,1.44-.32,2.94-1.54,4.53-2.77,1.32-1.14,2.83-2.04,4.47-2.66.39-.14.8-.23,1.22-.27h.32c1.23.21,2.37.76,3.3,1.59,2.83,2.13,15.28,12.99,15.4,13.09.51.47.79,1.13.78,1.81-.04.67-.42,1.27-1.01,1.59-.48.35-1.05.56-1.65.6-.51.02-1.01-.13-1.43-.42-.05-.05-4.31-3.94-5.85-5.27-.2-.21-.46-.34-.75-.37-.12,0-.24.06-.32.15-.26.32.05.75.37,1.01l4.99,5c.38.35.63.82.69,1.33.04.86-.41,1.66-1.17,2.08-.52.36-1.13.56-1.76.58-.5-.03-.99-.17-1.43-.43l-.69-.69c-1.33-1.28-2.66-2.61-3.62-3.45-.2-.2-.46-.33-.75-.37-.11.01-.22.05-.32.11-.11.1-.21.37.11.74.07.11.16.2.26.27l3.62,4.09c.44.49.48,1.22.1,1.76h-.21l-.32.32c-.5.39-1.12.59-1.76.58-.16.03-.32.03-.47,0-.27,0-.52-.11-.69-.32v-.05c-.21-.21-2.02-2.07-3.56-3.3-.18-.2-.43-.33-.69-.37-.12,0-.24.06-.32.15-.32.32.17.8.32,1.01l3.09,3.41s0,.11-.11.21-.48.54-1.59.69h-.48c-1.07-.08-2.1-.38-3.04-.9.29-.65.44-1.35.43-2.06.02-2.56-2.05-4.66-4.61-4.67-.01,0-.03,0-.04,0h-.15c.28-1.82-.67-3.61-2.34-4.4-.6-.25-1.25-.39-1.9-.4-.49.01-.97.1-1.43.27-.46-.93-1.29-1.63-2.29-1.92-.53-.18-1.09-.27-1.65-.26-.94-.01-1.86.29-2.61.86-.74-.92-1.85-1.47-3.02-1.5-1.03.01-2.02.4-2.77,1.1-.96-.75-4.78-3.2-15.06-5.5-.48-.1-1.65-.42-2.34-.64-.12.56-.21,1.13-.26,1.7,0,0,1.86.48,2.2.54,10.48,2.33,13.95,4.73,14.53,5.21-.21.47-.31.97-.32,1.48,0,2.17,1.75,3.93,3.92,3.94,0,0,.01,0,.02,0,.23.03.46.03.69,0,.31,1.59,1.44,2.89,2.98,3.41.44.16.91.25,1.39.26.3-.01.6-.04.9-.1.46,1.07,1.35,1.9,2.45,2.29.49.21,1.01.31,1.54.32.4.01.8-.06,1.17-.22.71,1.73,2.39,2.86,4.26,2.88,1.24,0,2.44-.49,3.3-1.39,1.21.69,2.57,1.07,3.96,1.12.18.03.37.03.55,0,1.03-.02,2-.48,2.66-1.28,0-.1.1-.15.15-.26.41.13.84.21,1.28.22.93-.04,1.82-.36,2.56-.91.75-.52,1.29-1.31,1.48-2.2v-.05c.32,0,.64.05.9.05.93,0,1.84-.29,2.61-.8,1.18-.68,1.9-1.94,1.87-3.3.28.06.56.1.85.11.87-.02,1.72-.27,2.45-.75.98-.59,1.61-1.62,1.7-2.76.06-.77-.13-1.54-.54-2.2,5.23-2.13,10.62-3.82,16.13-5.06-.04-.55-.11-1.1-.21-1.65-5.84,1.26-11.55,3.11-17.03,5.5"/></g><g id="d"><path id="e" class="ab" d="m214.26,32.07c-.72.94-1.88,1.44-3.06,1.33-1.17.06-2.29-.45-3-1.37-.77-1.17-1.16-2.55-1.1-3.95-.06-1.4.32-2.79,1.1-3.96.72-.91,1.84-1.41,3-1.32,1.17-.06,2.29.45,3.01,1.36.75,1.18,1.12,2.56,1.04,3.96.12,1.4-.25,2.79-1.04,3.95m3.59-10.38c-1.42-1.79-3.63-2.68-6.6-2.68s-5.11.89-6.6,2.68c-1.45,1.83-2.23,4.1-2.2,6.43-.04,2.34.74,4.61,2.2,6.43,1.43,1.79,3.64,2.68,6.6,2.68s5.11-.89,6.6-2.68c1.46-1.82,2.24-4.1,2.2-6.43.05-2.34-.73-4.62-2.2-6.43"/></g><g id="f"><path id="g" class="ab" d="m178.65,29.96c.09,1.18-.38,2.33-1.26,3.11-.79.56-1.73.85-2.69.85-.57.02-1.13-.16-1.57-.53-.47-.43-.71-1.06-.64-1.69-.01-.79.41-1.52,1.1-1.89.65-.31,1.34-.53,2.06-.64l1-.21c.41-.08.81-.19,1.21-.32.3-.11.58-.25.85-.42l-.04,1.74Zm2.27-9.76c-1.56-.75-3.27-1.13-5-1.1-2.9,0-4.96.74-6.12,2.27-.78,1.07-1.22,2.36-1.26,3.68h4.32c.06-.58.27-1.13.63-1.58.6-.58,1.43-.87,2.27-.78.76-.07,1.52.07,2.2.42.51.31.8.88.74,1.47,0,.58-.39,1.1-.95,1.26-.58.2-1.18.32-1.79.37l-1.53.21c-1.38.1-2.73.47-3.96,1.1-1.64.93-2.6,2.71-2.47,4.59-.07,1.43.49,2.82,1.53,3.79,1.09.88,2.45,1.35,3.85,1.32,9.8.42,9.7-5.17,9.8-6.34v-6.41c0-2.11-.74-3.54-2.2-4.28"/></g><g id="h"><path id="i" class="ab" d="m158.59,22.94c.95-.05,1.87.36,2.47,1.1.36.52.6,1.11.69,1.74h4.85c-.26-2.42-1.1-4.17-2.59-5.11-1.66-1-3.57-1.49-5.5-1.42-2.34-.14-4.63.75-6.27,2.42-1.62,1.9-2.43,4.36-2.27,6.85-.11,2.29.62,4.55,2.06,6.34,1.36,1.63,3.53,2.42,6.44,2.42,2.55.16,5.02-.94,6.6-2.95.88-1.11,1.43-2.44,1.58-3.85h-4.81c-.06.8-.35,1.56-.84,2.2-.62.63-1.5.94-2.38.85-1.44.11-2.77-.81-3.17-2.2-.34-.96-.51-1.98-.47-3-.04-1.08.13-2.15.47-3.17.4-1.39,1.72-2.31,3.17-2.2"/></g><g id="j"><path id="k" class="ab" d="m148.6,19.1c-9.9,0-9.33,8.8-9.33,8.8v8.91h4.48v-8.33c-.07-1.05.11-2.09.53-3.06.77-1.24,2.19-1.91,3.64-1.74h1.32v-4.59h-.58"/></g><g id="l"><path id="m" class="ab" d="m125.99,23.82c.72-.69,1.69-1.05,2.68-1,.97-.04,1.92.3,2.64.95.73.71,1.16,1.67,1.21,2.68h-7.7c.09-.98.5-1.9,1.17-2.63m6.06,8.38c-.17.26-.39.5-.64.68-.73.53-1.63.77-2.53.69-.85.04-1.68-.16-2.42-.58-1.19-.8-1.89-2.15-1.85-3.59h12.44c.02-1.13-.03-2.26-.15-3.38-.19-1.27-.66-2.47-1.37-3.53-.73-1.1-1.75-1.97-2.95-2.53-1.27-.54-2.63-.81-4-.79-2.28-.09-4.5.77-6.12,2.38-1.68,1.85-2.54,4.3-2.38,6.8,0,3.17.89,5.43,2.64,6.85,1.68,1.39,3.79,2.14,5.97,2.11,2.4.13,4.74-.77,6.43-2.47.73-.71,1.28-1.58,1.62-2.54l-4.7-.05v-.04Z"/></g><g id="n"><path id="o" class="ab" d="m118.39,36.88h-4.11v-10.39c.18-1.59-.97-3.02-2.55-3.2-.15-.02-.3-.02-.45-.02-1.68-.04-3.08,1.29-3.12,2.98,0,.08,0,.16,0,.24v10.39h-4.11v-10.39c.19-1.57-.93-3-2.51-3.2-.17-.02-.33-.03-.5-.02-1.66-.08-3.07,1.21-3.15,2.87,0,.11,0,.23,0,.34v10.39h-4.08v-10.28c0-4.27,2.85-7.49,7.23-7.49,1.98-.05,3.88.83,5.11,2.38,1.25-1.53,3.14-2.4,5.11-2.38,4.49,0,7.12,3.11,7.12,7.49v10.28Z"/></g><g id="p"><path id="q" class="ab" d="m195.8,32.14c-.65.95-1.75,1.49-2.9,1.43-1.14.06-2.22-.48-2.85-1.43-.68-1.18-1.01-2.54-.95-3.9-.04-1.29.28-2.56.9-3.68.61-.99,1.73-1.56,2.89-1.47.83-.01,1.63.27,2.27.79,1.16,1.23,1.74,2.9,1.58,4.59.09,1.3-.25,2.59-.95,3.68m5.38-18.4s-4.53-.47-4.53,3.17v4.85c-.5-.77-1.16-1.42-1.95-1.9-.83-.47-1.78-.71-2.74-.68-2.1-.08-4.1.87-5.38,2.53-1.45,2.04-2.15,4.52-2,7.02-.09,2.25.64,4.46,2.06,6.21,1.36,1.64,4.06,2.32,6.44,2.32,8.23,0,8.23-7.15,8.23-7.15l-.1-16.4-.02.03Z"/></g><g id="r"><path id="s" class="ab" d="m174.65,50.08c.71-.66,1.66-1,2.63-.95.96-.02,1.89.3,2.64.9.74.7,1.15,1.67,1.16,2.68h-7.7c.13-.98.56-1.9,1.22-2.64m6.01,8.34c-.18.25-.4.48-.64.68-.74.51-1.63.76-2.53.68-.83.04-1.65-.16-2.36-.57-1.17-.81-1.84-2.16-1.79-3.59h12.33c.02-1.13-.03-2.26-.15-3.38-.18-1.27-.65-2.48-1.37-3.53-.72-1.11-1.74-1.99-2.95-2.53-1.26-.54-2.63-.81-4-.79-2.27-.09-4.47.77-6.07,2.36-1.64,1.85-2.48,4.28-2.32,6.75,0,3.17.85,5.38,2.59,6.8,1.69,1.37,3.79,2.11,5.96,2.11,2.4.13,4.75-.79,6.42-2.52.74-.7,1.27-1.6,1.53-2.58h-4.59l-.04.1Z"/></g><g id="t"><path id="u" class="ab" d="m168.01,45.5h-.22c-9.9,0-9.33,8.8-9.33,8.8v8.8h4.48v-8.28c-.07-1.05.11-2.09.53-3.06.77-1.24,2.19-1.91,3.64-1.74h1.26v-4.52h-.36"/></g><g id="v"><path id="w" class="ab" d="m128.04,43.16v19.8h4.21v-22.96s-4.21-.17-4.21,3.21"/></g><path id="x" class="ab" d="m140.27,44.4h-4.52v-4.48h4.52v4.48Z"/><path id="y" class="ab" d="m135.74,63.03h4.53v-17.12h-4.53v17.12Z"/><g id="z"><path id="aa" class="ab" d="m152.4,62.99h-4.53l-5.97-17.07h4.74l3.42,12.01,3-10.48c.23-.93,1.08-1.56,2.04-1.53h3.3l-5.99,17.07Z"/></g></svg>