<svg width="32" height="32" fill="none" xmlns="http://www.w3.org/2000/svg">
  <g style="fill:#000" fill="#1d1d1d">
    <path d="M852.1 171.6c23.7 30 39.3 63 45.1 98C795 292 720 324 703.1 331.9c-20.6-18.1-142.1-124-172.4-147-15.7-12.1-26-17.5-34.5-20-7.9-2.4-20-4.8-38.1 1.2-17.5 5.4-34.5 19.4-52 33.3-15.7 12.7-32.7 26-45.4 29-21.8 4.8-42.9 0-50.2-9.1-3-3.6 1.8-7.9 1.8-8.5l38.7-42.9c30.2-30.2 58.7-58.7 125.2-60.5 44.1-1.2 89.5 20.6 90.1 20.6 83.2 41 168.3 26.1 238.3-3.4C723.8 59.6 599 17.9 459 17.9c-243.7 0-441.5 126.4-441.5 282.4 0 156 197.8 282.5 441.5 282.5s441.5-127 441.5-282.4c0-46.4-17.5-90.2-48.4-128.8zM425.2 494.1c-20.6 0-38.1-16.3-38.7-37.5 0-3.6-.6-4.2-3.6-1.8-6 6-15.7 12.7-32.1 6-21.8-8.5-23-23.6-21.8-30.8.6-2.4 0-3-2.4-1.2-7.9 6-18.1 9.1-29.6 4.8-29-11.5-26.6-39.3-25.4-46.6v-1.2c-5.4 5.4-12.7 8.5-21.2 8.5-16.9 0-30.8-13.9-30.8-30.8s13.9-30.8 30.8-30.8c15.7 0 28.4 11.5 30.2 26.6 4.2-6.7 21.2-24.8 47.8-16.9 18.7 6 21.2 23 21.8 29 0 1.8.6 1.8 1.8.6 4.8-4.8 17.5-15.1 39.3-6 27.8 12.1 16.3 47.2 15.7 49-.6 1.8-1.8 5.4-1.2 6 1.2.6 10.9-4.2 19.4-4.2 21.2 0 38.7 16.9 38.7 38.7 0 21-17.5 38.6-38.7 38.6zm271.3-106.5c-20.6 13.3-37.5 1.2-38.1.6 0 0-48.4-44.8-66.5-59.9-2.4-1.8-6-5.4-7.9-3-2.4 3 3.6 7.9 3.6 7.9l56.2 56.8s7.9 7.3 8.5 17.5c.6 7.9-1.8 17.5-14.5 26-20.6 13.3-36.3 3.6-39.9 1.2-18.1-17.5-36.3-36.3-52-46.6-3-1.8-6.7-4.8-8.5-3-2.4 2.4 3.6 7.9 3.6 7.9l41.1 46.6s10.3 12.1 1.2 23.6l.6-.6c-1.8 1.8-3.6 4.2-6 6-8.5 7.3-20.6 7.9-27.8 6.7-7.9-1.8-9.1-4.8-9.7-4.8 0 0-21.8-22.4-39.9-37.5-2.4-1.8-6-5.4-7.9-3-2.4 2.4 3.6 7.9 3.6 7.9l35.7 39.3c1.2 1.8 0 3.6-1.2 5.4-1.8 3-6.7 7.3-20 9.1-16.3 2.4-35.7-7.3-42.9-11.5 3.6-7.3 6-15.1 6-23.6 0-27.2-22.4-49.6-49.6-49.6h-4.8c1.8-16.9-1.8-39.9-24.8-49.6-6.7-3-13.9-4.8-20.6-4.8-6.7 0-12.7 1.2-17.5 3.6-3.6-8.5-11.5-18.1-25.4-23-6-1.8-12.1-3-18.1-3-12.7 0-22.4 4.8-29.6 10.3-7.3-10.3-20-17.5-33.9-17.5-12.1 0-23 5.4-30.8 13.9-7.3-6-46-35.1-171.8-62.9-5.4-1.2-18.1-4.8-26-7.3 10.9-56.8 47.8-108.9 103.4-150 46 21.2 77.4 30.8 112.5 40.5 6 1.8 36.3 6.7 42.3 6.7 13.9 0 27.8-3.6 41.7-7.9 11.5-3 23-6 35.7-7.9-4.8 4.2-9.1 8.5-13.9 13.3L304 203.8c-1.2 1.8-9.1 9.1-4.8 18.7 1.2 3.6 4.8 7.3 9.1 10.3 10.9 7.9 35.7 12.7 55.6 8.5 15.1-3.6 32.1-16.9 50.2-31.4 16.9-13.9 36.3-26.6 51.4-30.8 5.4-1.2 13.3-2.4 18.7-1.8 10.9 1.2 21.2 4.8 39.9 18.7 32.1 23.6 173.6 147.6 174.8 148.8 0 0 10.3 8.5 10.3 23-.6 7.7-5.4 15-12.7 19.8z" style="fill:#000" transform="matrix(.03486 0 0 .03486 0 4.919)"/>
    <path d="M459 .4C205.6.4 0 135.3 0 300.4v17.5c0 175.4 179.6 317.5 459 317.5 281.2 0 459-142.1 459-317.5v-17.5c.1-165.7-205.6-300-459-300Zm-33.8 493.7c-20.6 0-38.1-16.3-38.7-37.5 0-3.6-.6-4.2-3.6-1.8-6 6-15.7 12.7-32.1 6-21.8-8.5-23-23.6-21.8-30.8.6-2.4 0-3-2.4-1.2-7.9 6-18.1 9.1-29.6 4.8-29-11.5-26.6-39.3-25.4-46.6v-1.2c-5.4 5.4-12.7 8.5-21.2 8.5-16.9 0-30.8-13.9-30.8-30.8s13.9-30.8 30.8-30.8c15.7 0 28.4 11.5 30.2 26.6 4.2-6.7 21.2-24.8 47.8-16.9 18.7 6 21.2 23 21.8 29 0 1.8.6 1.8 1.8.6 4.8-4.8 17.5-15.1 39.3-6 27.8 12.1 16.3 47.2 15.7 49-.6 1.8-1.8 5.4-1.2 6 1.2.6 10.9-4.2 19.4-4.2 21.2 0 38.7 16.9 38.7 38.7 0 21-17.5 38.6-38.7 38.6zm271.3-106.5c-20.6 13.3-37.5 1.2-38.1.6 0 0-48.4-44.8-66.5-59.9-2.4-1.8-6-5.4-7.9-3-2.4 3 3.6 7.9 3.6 7.9l56.2 56.8s7.9 7.3 8.5 17.5c.6 7.9-1.8 17.5-14.5 26-20.6 13.3-36.3 3.6-39.9 1.2-18.1-17.5-36.3-36.3-52-46.6-3-1.8-6.7-4.8-8.5-3-2.4 2.4 3.6 7.9 3.6 7.9l41.1 46.6s10.3 12.1 1.2 23.6l.6-.6c-1.8 1.8-3.6 4.2-6 6-8.5 7.3-20.6 7.9-27.8 6.7-7.9-1.8-9.1-4.8-9.7-4.8 0 0-21.8-22.4-39.9-37.5-2.4-1.8-6-5.4-7.9-3-2.4 2.4 3.6 7.9 3.6 7.9l35.7 39.3c1.2 1.8 0 3.6-1.2 5.4-1.8 3-6.7 7.3-20 9.1-16.3 2.4-35.7-7.3-42.9-11.5 3.6-7.3 6-15.1 6-23.6 0-27.2-22.4-49.6-49.6-49.6h-4.8c1.8-16.9-1.8-39.9-24.8-49.6-6.7-3-13.9-4.8-20.6-4.8-6.7 0-12.7 1.2-17.5 3.6-3.6-8.5-11.5-18.1-25.4-23-6-1.8-12.1-3-18.1-3-12.7 0-22.4 4.8-29.6 10.3-7.3-10.3-20-17.5-33.9-17.5-12.1 0-23 5.4-30.8 13.9-7.3-6-46-35.1-171.8-62.9-5.4-1.2-18.1-4.8-26-7.3 10.9-56.8 47.8-108.9 103.4-150 46 21.2 77.4 30.8 112.5 40.5 6 1.8 36.3 6.7 42.3 6.7 13.9 0 27.8-3.6 41.7-7.9 11.5-3 23-6 35.7-7.9-4.8 4.2-9.1 8.5-13.9 13.3L304 203.8c-1.2 1.8-9.1 9.1-4.8 18.7 1.2 3.6 4.8 7.3 9.1 10.3 10.9 7.9 35.7 12.7 55.6 8.5 15.1-3.6 32.1-16.9 50.2-31.4 16.9-13.9 36.3-26.6 51.4-30.8 5.4-1.2 13.3-2.4 18.7-1.8 10.9 1.2 21.2 4.8 39.9 18.7 32.1 23.6 173.6 147.6 174.8 148.8 0 0 10.3 8.5 10.3 23-.6 7.7-5.4 15-12.7 19.8zm6.6-55.7c-20.6-18.1-142.1-124-172.4-147-15.7-12.1-26-17.5-34.5-20-7.9-2.4-20-4.8-38.1 1.2-17.5 5.4-34.5 19.4-52 33.3-15.7 12.7-32.7 26-45.4 29-21.8 4.8-42.9 0-50.2-9.1-3-3.6 1.8-7.9 1.8-8.5l38.7-42.9c30.2-30.2 58.7-58.7 125.2-60.5 44.1-1.2 89.5 20.6 90.1 20.6 83.5 41.1 168.7 26 238.9-3.6 50.2 41.1 82.9 90.7 91.9 145.1C795 292 720 324 703.1 331.9Z" style="fill:#000" transform="matrix(.03486 0 0 .03486 0 4.919)"/>
    <path d="M425.231 491.187c-19.353 0-35.078-15.119-35.682-34.473 0-1.814 0-6.047-3.629-6.047-1.814 0-3.024 1.209-4.234 2.419-4.233 4.233-9.676 7.862-17.538 7.862-3.629 0-7.258-.605-11.491-2.419-20.563-8.467-20.563-22.377-19.958-27.82 0-1.815 0-3.024-.605-4.234l-1.209-1.209h-2.42c-1.209 0-2.419.604-3.628 1.209-6.048 4.234-11.491 6.048-17.539 6.048-3.024 0-6.653-.605-9.677-1.814-27.215-10.282-24.796-35.683-23.586-43.545 0-1.814 0-3.024-1.21-3.628l-1.814-1.815-1.814 1.815c-5.443 4.838-12.096 7.862-19.354 7.862-15.724 0-27.82-12.701-27.82-27.82 0-15.725 12.701-27.82 27.82-27.82 13.911 0 26.006 10.281 27.821 24.191l1.209 7.257 4.234-6.652c.604-.605 11.491-18.144 32.658-17.539 4.233 0 7.862.605 12.096 1.814 16.329 4.839 19.353 19.958 19.957 26.611.605 3.629 3.024 3.629 3.629 3.629 1.21 0 2.419-1.21 3.024-1.815 3.024-3.024 9.677-8.467 20.563-8.467 4.838 0 10.281 1.21 15.724 3.629 26.611 11.491 14.515 44.754 14.515 45.359-2.419 5.443-2.419 7.862 0 9.676l1.21.605h.604c1.21 0 2.419-.605 4.839-1.209 3.628-1.21 9.071-3.024 13.91-3.024 19.957 0 36.287 16.329 36.287 36.287-.605 18.748-16.934 35.077-36.892 35.077zm279.41-161.477c-43.544-38.102-143.939-125.795-171.154-145.753-15.724-11.491-26.006-18.144-35.682-20.563-4.234-1.209-10.281-2.419-17.539-2.419-6.652 0-14.515 1.21-22.377 3.629-17.539 5.443-35.077 19.353-52.011 33.263l-.605.605c-15.724 12.7-32.054 25.401-44.754 28.425a75.102 75.102 0 0 1-16.329 1.814c-13.91 0-26.006-4.234-30.844-9.677-.605-1.209 0-2.419 1.814-4.838v-.605l38.102-41.125c30.239-30.239 58.059-58.059 123.375-59.874h3.024c40.521 0 81.041 18.144 85.88 20.563 38.101 18.748 77.412 27.82 116.723 27.82 41.125 0 83.46-10.281 128.214-30.844-4.838-4.233-10.281-8.467-15.724-12.096-39.311 16.934-76.808 25.401-112.49 25.401-36.892 0-73.784-9.071-109.466-26.005-1.814-1.21-46.568-21.773-93.137-21.773h-3.628c-55.036 1.21-85.88 20.563-106.442 37.497-19.958.605-37.497 5.443-53.221 9.677-13.91 3.628-26.006 7.257-37.497 7.257-4.838 0-13.305-.605-13.91-.605-13.305-.605-81.041-16.934-134.262-37.496-5.443 3.628-10.886 7.862-15.724 12.095 56.245 22.982 124.585 40.521 145.753 42.335 6.047.605 12.095 1.21 18.748 1.21 14.515 0 28.425-4.234 42.335-7.863 7.862-2.419 16.934-4.838 26.61-6.652-2.419 2.419-4.838 4.838-7.862 7.257l-38.706 42.335c-3.024 3.024-9.677 11.491-5.443 21.772 1.814 4.234 5.443 7.863 10.281 11.491 9.072 6.048 26.006 10.282 41.125 10.282 6.048 0 11.491-.605 16.33-1.815 16.329-3.628 33.263-17.538 51.406-31.449 14.515-11.49 35.078-26.005 50.802-30.239 4.234-1.209 9.677-1.814 13.91-1.814h3.629c10.281 1.209 20.563 4.838 38.101 18.143 32.054 24.192 173.573 147.568 174.783 148.777 0 0 9.072 7.863 8.467 20.563-.605 7.257-4.234 13.91-11.491 18.144-6.048 3.628-12.096 6.047-18.748 6.047-9.677 0-15.725-4.233-16.33-4.838-.604-.605-48.987-44.754-66.526-59.874-3.024-2.419-5.443-4.233-8.467-4.233-1.209 0-3.024.605-3.628 1.814-3.024 3.629.604 8.467 4.233 11.491l56.85 56.85s7.257 6.653 7.862 15.12c.605 9.676-4.234 17.538-13.305 23.586-6.653 4.234-13.306 6.653-19.958 6.653-8.467 0-14.515-4.234-16.329-4.839l-7.863-7.862c-15.119-14.515-30.239-29.634-41.125-39.311-3.024-2.419-5.443-4.233-8.467-4.233-1.209 0-2.419.605-3.629 1.209-1.209 1.21-2.419 4.234 1.21 8.467 1.21 1.815 3.024 3.024 3.024 3.024l41.125 46.569c.605.604 8.467 10.281 1.21 19.958h-2.419l-3.629 3.628c-7.257 6.048-16.329 6.653-19.958 6.653-1.814 0-3.629 0-5.443-.605-4.233-.605-6.653-1.814-7.862-3.629l-.605-.604c-2.419-2.42-22.982-23.587-40.52-38.102-2.42-1.814-4.839-4.233-7.863-4.233-1.209 0-2.419.604-3.628 1.814-3.629 3.629 1.814 9.072 3.628 11.491l35.078 38.706c0 .605-.605 1.21-1.21 2.419-1.209 1.815-5.443 6.048-18.143 7.862h-4.839c-13.305 0-27.215-6.652-34.472-10.281 3.024-7.257 4.838-14.515 4.838-22.377 0-29.03-23.587-52.616-52.616-52.616h-1.815c1.21-13.305-1.209-38.101-26.61-49.592-7.257-3.024-14.515-4.839-21.772-4.839-5.443 0-10.886 1.21-16.329 3.024-5.443-10.281-13.91-18.143-26.006-21.772-6.653-2.419-12.701-3.024-18.748-3.024-10.887 0-20.563 3.024-29.635 9.677-8.467-10.282-21.167-16.934-34.473-16.934-11.49 0-22.981 4.838-31.448 12.7-10.886-8.467-54.431-36.287-171.154-62.293-5.443-1.209-18.748-4.838-26.61-7.257-1.21 6.048-2.42 12.7-3.025 19.353 0 0 21.168 5.443 25.401 6.048 119.143 26.61 158.454 53.826 165.106 59.269-2.419 5.443-3.628 11.491-3.628 16.934 0 24.796 19.958 44.754 44.754 44.754 3.024 0 5.443 0 7.862-.605 3.629 18.143 15.724 32.054 33.868 38.706 5.443 1.814 10.886 3.024 15.724 3.024 3.629 0 6.653-.605 10.282-1.21 3.628 8.467 10.886 19.354 27.82 26.006 6.047 2.419 11.49 3.629 17.538 3.629 4.839 0 9.072-.605 13.306-2.419 7.862 19.353 27.215 32.658 48.382 32.658 13.91 0 27.82-5.443 37.497-15.724 8.467 4.838 26.61 13.305 44.754 13.305 2.419 0 4.838 0 6.653-.605 18.143-2.419 26.61-9.072 30.239-14.515.605-1.209 1.209-1.814 1.814-3.024 4.234 1.21 9.072 2.42 14.515 2.42 9.676 0 19.353-3.629 29.03-10.282 9.071-6.652 15.724-16.329 16.933-24.796v-.605c3.629 0 7.258.605 10.282.605 10.281 0 19.958-3.024 29.634-9.072 18.144-12.095 21.772-27.82 21.168-38.101 3.024.605 6.652 1.21 9.676 1.21 9.677 0 18.748-3.024 27.82-8.467 11.491-7.258 18.144-18.144 19.353-31.449.605-9.072-1.209-17.539-6.047-25.401 30.844-13.305 100.998-38.706 183.249-57.455-.605-6.652-1.21-12.7-2.419-18.748-100.394 21.772-174.783 53.826-193.531 62.293z" style="fill:#000" transform="matrix(.03486 0 0 .03486 0 4.919)"/>
  </g>
</svg>