<?xml version="1.0" encoding="UTF-8" standalone="no"?>
<!-- Uploaded to: SVG Repo, www.svgrepo.com, Generator: SVG Repo Mixer Tools -->

<svg fill="#000000" width="32" height="32" viewBox="0 0 1.28 1.28" id="Camada_1" version="1.1" xml:space="preserve" sodipodi:docname="meta-quest.svg" inkscape:version="1.4-beta2 (9aaf4f34, 2024-07-30)" xmlns:inkscape="http://www.inkscape.org/namespaces/inkscape" xmlns:sodipodi="http://sodipodi.sourceforge.net/DTD/sodipodi-0.dtd" xmlns="http://www.w3.org/2000/svg" xmlns:svg="http://www.w3.org/2000/svg"><defs id="defs1" /><sodipodi:namedview id="namedview1" pagecolor="#ffffff" bordercolor="#000000" borderopacity="0.25" inkscape:showpageshadow="2" inkscape:pageopacity="0.0" inkscape:pagecheckerboard="0" inkscape:deskcolor="#d1d1d1" inkscape:zoom="5.14279" inkscape:cx="13.222395" inkscape:cy="40.153302" inkscape:window-width="1440" inkscape:window-height="872" inkscape:window-x="0" inkscape:window-y="0" inkscape:window-maximized="1" inkscape:current-layer="Camada_1" /><path d="m 0.1366548,0.7743772 c 0,-0.2095373 0.1047687,-0.428185 0.227758,-0.428185 0.068327,0 0.1229894,0.040996 0.2095374,0.1639857 C 0.4919573,0.6377224 0.4418506,0.7151601 0.4418506,0.7151601 0.3325267,0.8882562 0.2960854,0.9246975 0.2368683,0.9246975 0.1776513,0.9292526 0.1366548,0.8745907 0.1366548,0.7743772 M 0.8518149,0.6969395 0.7743772,0.569395 C 0.7561565,0.5375089 0.7333808,0.5056228 0.7151601,0.4782918 0.7834876,0.3735231 0.8381494,0.3188612 0.9064769,0.3188612 c 0.1366548,0 0.2459786,0.2049822 0.2459786,0.4600712 0,0.095658 -0.031886,0.1503202 -0.095658,0.1503202 -0.063772,0 -0.086548,-0.040996 -0.2049822,-0.2323131 M 0.6559431,0.3871886 C 0.5557295,0.255089 0.4691815,0.2049822 0.3689679,0.2049822 0.1594306,0.2049822 0,0.482847 0,0.7743772 c 0,0.1822064 0.086548,0.2960854 0.2323132,0.2960854 0.1047686,0 0.1776512,-0.050107 0.314306,-0.2869751 0,0 0.054662,-0.1002135 0.095658,-0.1685409 0.013666,0.022776 0.027331,0.045552 0.040996,0.072883 l 0.063772,0.1093238 C 0.8700356,1.0066903 0.938363,1.0750178 1.0613523,1.0750178 1.2025623,1.0750178 1.28,0.9565836 1.28,0.7698221 1.2754448,0.4600712 1.111459,0.2049822 0.9155872,0.2049822 c -0.1047687,0 -0.1867616,0.0819929 -0.2596441,0.1822064" id="path1" style="stroke-width:0.0455516;fill:#000000" /></svg>
