<?xml version="1.0" encoding="UTF-8" standalone="no"?>
<svg version="1.0" viewBox="0 0 200 80" preserveAspectRatio="xMidYMid" id="svg5" xmlns="http://www.w3.org/2000/svg" xmlns:svg="http://www.w3.org/2000/svg">
  <defs id="defs5">
    <clipPath clipPathUnits="userSpaceOnUse" id="clipPath49">
      <g id="g49" style="display:none">
        <path d="m 882.59077,99.23719 c -0.5,-0.2 -4.60039,8.99941 -8.90039,20.39941 -4.3,11.5 -9.29952,24.59981 -10.99952,29.29981 l -3.20068,8.50049 22.5,0.30029 c 12.4,0.1 22.70098,-2.9e-4 23.00098,-0.30029 1.2,-1.1 -20.50039,-57.59971 -22.40039,-58.19971 z" id="path49" />
      </g>
      <path id="lpe_path-effect49" style="display:inline" class="powerclip" d="M 3.2751018,8.2813449 H 993.06032 V 280.35307 H 3.2751018 Z M 882.59077,99.23719 c -0.5,-0.2 -4.60039,8.99941 -8.90039,20.39941 -4.3,11.5 -9.29952,24.59981 -10.99952,29.29981 l -3.20068,8.50049 22.5,0.30029 c 12.4,0.1 22.70098,-2.9e-4 23.00098,-0.30029 1.2,-1.1 -20.50039,-57.59971 -22.40039,-58.19971 z" />
    </clipPath>
  </defs>
  <g id="g29" clip-path="url(#clipPath49)" transform="matrix(0.20412637,0,0,0.20412637,-1.6891664,10.541052)" style="fill:#000000">
    <path d="m 723.79145,116.03602 c -9.9,0.1 -15.7,1.2999 -22.5,4.8999 -4.9,2.4 -15.10107,11.6 -15.10107,13.5 0,0.9 5.60029,5.60039 10.80029,8.90039 1,0.5 2.49951,-0.29971 4.99951,-2.69971 7.4,-7.2 20.50137,-10.0998 30.40137,-6.7998 6.9,2.3 12.7998,11.70049 12.7998,20.50049 0,1 -4.10068,1.4999 -18.20068,1.8999 -10.1,0.2 -20.7001,0.99922 -23.6001,1.69922 -19.7,4.5 -28.49971,28.2999 -16.19971,43.8999 5.3,6.7 11.20059,9.40088 21.60059,9.90088 12.7,0.7 22.6001,-2.8999 34.1001,-12.3999 l 3.29883,-2.70117 -0.29883,6.3999 -0.20069,6.3999 8.79932,0.30029 8.90039,0.3003 -0.3999,-33.79981 -0.30029,-33.7998 -2.89893,-6.3003 c -4.1,-8.8 -11.50127,-15.50068 -20.30127,-18.20068 -4.7,-1.4 -9.09873,-1.9999 -15.69873,-1.8999 z m 11.6001,54.10107 c 6.9,-0.4 9.7998,0.89893 9.7998,4.39893 0,6.2 -6.50068,14.10097 -15.20068,18.50097 -5.2,2.7 -15.99961,3.69952 -21.09961,1.99952 -10.4,-3.5 -11.80088,-17.09932 -2.40088,-22.29932 1.2,-0.7 6.9002,-1.40029 12.7002,-1.80029 5.8,-0.3 13.10117,-0.69981 16.20117,-0.79981 z" style="color:#000000;font-style:normal;font-variant:normal;font-weight:normal;font-stretch:normal;font-size:medium;line-height:normal;font-family:sans-serif;font-variant-ligatures:normal;font-variant-position:normal;font-variant-caps:normal;font-variant-numeric:normal;font-variant-alternates:normal;font-variant-east-asian:normal;font-feature-settings:normal;font-variation-settings:normal;text-indent:0;text-align:start;text-decoration-line:none;text-decoration-style:solid;text-decoration-color:#000000;letter-spacing:normal;word-spacing:normal;text-transform:none;writing-mode:lr-tb;direction:ltr;text-orientation:mixed;dominant-baseline:auto;baseline-shift:baseline;text-anchor:start;white-space:normal;shape-padding:0;shape-margin:0;inline-size:0;clip-rule:nonzero;display:inline;overflow:visible;visibility:visible;isolation:auto;mix-blend-mode:normal;color-interpolation:sRGB;color-interpolation-filters:linearRGB;solid-color:#000000;solid-opacity:1;vector-effect:none;fill:#000000;fill-opacity:1;fill-rule:nonzero;stroke:none;stroke-linecap:butt;stroke-linejoin:miter;stroke-miterlimit:4;stroke-dasharray:none;stroke-dashoffset:0;stroke-opacity:1;-inkscape-stroke:none;color-rendering:auto;image-rendering:auto;shape-rendering:auto;text-rendering:auto;enable-background:accumulate;stop-color:#000000;stop-opacity:1" id="path17" />
    <path d="m 545.71625,116.0243 c -4.975,-0.1125 -9.9249,0.3125 -13.5249,1.3125 -15.1,4.2 -26.30058,15.89912 -30.60058,32.09912 -1.6,5.9 -1.8003,22.1 -0.3003,28.5 2.9,12.8 13.0001,25.8002 23.6001,30.7002 4.9,2.3 7.5999,2.80107 16.8999,3.10107 9.5,0.4 12.30088,0.1001 18.90088,-1.8999 7.1,-2.1 18.2999,-8.2003 19.8999,-10.8003 0.8,-1.2 -8.20048,-12.10107 -10.00048,-12.10107 -0.6,0 -2.79991,1.4 -4.89991,3 -7.9,6.3 -22.80019,8.00059 -32.20019,3.60059 -6.9,-3.3 -13.40049,-12 -14.50049,-19.5 l -0.29883,-2.50049 32.49903,-0.29883 c 17.9,-0.1 33.40039,-0.20029 34.40039,-0.30029 1.8,0 1.90078,-0.70078 1.30078,-10.30078 -1.1,-21.3 -11.70098,-37.8002 -27.50098,-42.7002 -3.7,-1.15 -8.69932,-1.79912 -13.67432,-1.91162 z m -1.7622,16.01221 c 2.9375,-0.075 5.93711,0.25048 8.53711,1.00048 6.8,1.9 14.2997,11.4001 16.1997,20.6001 l 0.7002,3.29883 h -25.1001 c -28.7,0 -27.20068,0.60078 -22.70068,-9.19922 2.8,-6.3 8.90019,-12.3998 14.20019,-14.2998 2.35,-0.85 5.22608,-1.32539 8.16358,-1.40039 z" style="color:#000000;font-style:normal;font-variant:normal;font-weight:normal;font-stretch:normal;font-size:medium;line-height:normal;font-family:sans-serif;font-variant-ligatures:normal;font-variant-position:normal;font-variant-caps:normal;font-variant-numeric:normal;font-variant-alternates:normal;font-variant-east-asian:normal;font-feature-settings:normal;font-variation-settings:normal;text-indent:0;text-align:start;text-decoration-line:none;text-decoration-style:solid;text-decoration-color:#000000;letter-spacing:normal;word-spacing:normal;text-transform:none;writing-mode:lr-tb;direction:ltr;text-orientation:mixed;dominant-baseline:auto;baseline-shift:baseline;text-anchor:start;white-space:normal;shape-padding:0;shape-margin:0;inline-size:0;clip-rule:nonzero;display:inline;overflow:visible;visibility:visible;isolation:auto;mix-blend-mode:normal;color-interpolation:sRGB;color-interpolation-filters:linearRGB;solid-color:#000000;solid-opacity:1;vector-effect:none;fill:#000000;fill-opacity:1;fill-rule:nonzero;stroke:none;stroke-linecap:butt;stroke-linejoin:miter;stroke-miterlimit:4;stroke-dasharray:none;stroke-dashoffset:0;stroke-opacity:1;-inkscape-stroke:none;color-rendering:auto;image-rendering:auto;shape-rendering:auto;text-rendering:auto;enable-background:accumulate;stop-color:#000000;stop-opacity:1" id="path15" />
    <path d="m 617.19038,90.43641 -0.0996,10.5 c 0,5.8 -0.19922,11.8 -0.19922,13.5 l -0.20069,3 -9.3999,0.30029 -9.30029,0.30029 0.60058,3.09961 c 0.3,1.7 0.59913,5.19991 0.59913,7.89991 v 4.8999 h 8.40087 8.29981 l 0.59912,5.69971 c 0.4,3.2 0.7002,14.80029 0.7002,25.80029 0,11 0.50009,21.8 1.10009,24 2.7,9.8 9.2,17.09951 18,19.99951 6,2 24.70069,2.20029 28.70069,0.30029 2.5,-1.2 2.7,-1.79941 3,-8.39941 l 0.30029,-7.19971 -10.30078,0.0996 c -12.1,0.1 -16.99981,-1.60078 -20.29981,-7.30078 -1.8,-3.2 -1.9998,-5.49971 -2.2998,-28.19971 l -0.30029,-24.70019 15.60058,-0.29883 15.7002,-0.30029 v -6.50098 c 0,-3.6 -0.10108,-7.09883 -0.10108,-7.79883 -0.1,-0.9 -3.89912,-1.20117 -15.59912,-1.20117 H 635.19039 V 104.13708 90.4364 h -9 z" style="color:#000000;font-style:normal;font-variant:normal;font-weight:normal;font-stretch:normal;font-size:medium;line-height:normal;font-family:sans-serif;font-variant-ligatures:normal;font-variant-position:normal;font-variant-caps:normal;font-variant-numeric:normal;font-variant-alternates:normal;font-variant-east-asian:normal;font-feature-settings:normal;font-variation-settings:normal;text-indent:0;text-align:start;text-decoration-line:none;text-decoration-style:solid;text-decoration-color:#000000;letter-spacing:normal;word-spacing:normal;text-transform:none;writing-mode:lr-tb;direction:ltr;text-orientation:mixed;dominant-baseline:auto;baseline-shift:baseline;text-anchor:start;white-space:normal;shape-padding:0;shape-margin:0;inline-size:0;clip-rule:nonzero;display:inline;overflow:visible;visibility:visible;isolation:auto;mix-blend-mode:normal;color-interpolation:sRGB;color-interpolation-filters:linearRGB;solid-color:#000000;solid-opacity:1;vector-effect:none;fill:#000000;fill-opacity:1;fill-rule:nonzero;stroke:none;stroke-linecap:butt;stroke-linejoin:miter;stroke-miterlimit:4;stroke-dasharray:none;stroke-dashoffset:0;stroke-opacity:1;-inkscape-stroke:none;color-rendering:auto;image-rendering:auto;shape-rendering:auto;text-rendering:auto;enable-background:accumulate;stop-color:#000000;stop-opacity:1" id="path13" />
    <path d="m 968.19039,80.9369 v 64.5 64.59961 l 9.7998,-0.3003 9.7002,-0.30029 0.3003,-63.3999 c 0.2,-50.1 -5e-4,-63.59932 -1.0005,-64.29932 -0.7,-0.4 -5.199,-0.7998 -9.999,-0.7998 z" style="color:#000000;font-style:normal;font-variant:normal;font-weight:normal;font-stretch:normal;font-size:medium;line-height:normal;font-family:sans-serif;font-variant-ligatures:normal;font-variant-position:normal;font-variant-caps:normal;font-variant-numeric:normal;font-variant-alternates:normal;font-variant-east-asian:normal;font-feature-settings:normal;font-variation-settings:normal;text-indent:0;text-align:start;text-decoration-line:none;text-decoration-style:solid;text-decoration-color:#000000;letter-spacing:normal;word-spacing:normal;text-transform:none;writing-mode:lr-tb;direction:ltr;text-orientation:mixed;dominant-baseline:auto;baseline-shift:baseline;text-anchor:start;white-space:normal;shape-padding:0;shape-margin:0;inline-size:0;clip-rule:nonzero;display:inline;overflow:visible;visibility:visible;isolation:auto;mix-blend-mode:normal;color-interpolation:sRGB;color-interpolation-filters:linearRGB;solid-color:#000000;solid-opacity:1;vector-effect:none;fill:#000000;fill-opacity:1;fill-rule:nonzero;stroke:none;stroke-linecap:butt;stroke-linejoin:miter;stroke-miterlimit:4;stroke-dasharray:none;stroke-dashoffset:0;stroke-opacity:1;-inkscape-stroke:none;color-rendering:auto;image-rendering:auto;shape-rendering:auto;text-rendering:auto;enable-background:accumulate;stop-color:#000000;stop-opacity:1" id="path12" />
    <path d="m 450.39155,80.83729 -4.5,7.79883 c -2.5,4.3 -7.40137,13.00078 -10.90137,19.30078 -14.1,25 -29.3,51 -30,51 -1,0 -0.3999,0.8998 -24.3999,-41.2002 L 359.69135,80.9369 h -11.2998 c -8.1,0 -11.40117,0.3997 -11.70117,1.1997 -0.3,0.7 -0.39883,29.59932 -0.29883,64.29932 l 0.29883,63 9.20068,0.30029 9.30029,0.3003 0.19922,-50.29981 0.30029,-50.2998 5.6001,9.49951 c 3.1,5.2 11.60049,20.00078 19.00049,32.80078 7.3,12.8 14.09961,24.09971 15.09961,25.19971 1.6,1.7 3.1998,1.99951 9.7998,1.99951 h 7.89991 l 2.90039,-4.29932 c 2.5,-3.6 6.99951,-11.40068 19.99951,-34.70068 1.3,-2.5 5.9001,-10.30049 10.1001,-17.50049 l 7.59961,-12.89941 0.20068,13.40039 c 0.2,7.4 0.39951,29.89951 0.49951,49.99951 l 0.30029,36.49951 9.3003,0.30029 9.19922,0.3003 -0.19922,-64.29932 -0.3003,-64.30078 -11.10058,-0.30029 z" style="color:#000000;font-style:normal;font-variant:normal;font-weight:normal;font-stretch:normal;font-size:medium;line-height:normal;font-family:sans-serif;font-variant-ligatures:normal;font-variant-position:normal;font-variant-caps:normal;font-variant-numeric:normal;font-variant-alternates:normal;font-variant-east-asian:normal;font-feature-settings:normal;font-variation-settings:normal;text-indent:0;text-align:start;text-decoration-line:none;text-decoration-style:solid;text-decoration-color:#000000;letter-spacing:normal;word-spacing:normal;text-transform:none;writing-mode:lr-tb;direction:ltr;text-orientation:mixed;dominant-baseline:auto;baseline-shift:baseline;text-anchor:start;white-space:normal;shape-padding:0;shape-margin:0;inline-size:0;clip-rule:nonzero;display:inline;overflow:visible;visibility:visible;isolation:auto;mix-blend-mode:normal;color-interpolation:sRGB;color-interpolation-filters:linearRGB;solid-color:#000000;solid-opacity:1;vector-effect:none;fill:#000000;fill-opacity:1;fill-rule:nonzero;stroke:none;stroke-linecap:butt;stroke-linejoin:miter;stroke-miterlimit:4;stroke-dasharray:none;stroke-dashoffset:0;stroke-opacity:1;-inkscape-stroke:none;color-rendering:auto;image-rendering:auto;shape-rendering:auto;text-rendering:auto;enable-background:accumulate;stop-color:#000000;stop-opacity:1" id="path10" />
    <path d="M 146.49213,13.42957 C 109.62729,11.61942 71.729048,26.4619 45.391548,53.9369 c -14,14.6 -26.400003,35.8 -31.500003,54 -6.3,22.1 -7.200684,39.79902 -3.200684,59.49902 5.2,25.7 14.19961,44.70098 30.099607,63.50098 14.2,16.8 35.10059,30.8999 56.10059,37.8999 16.200002,5.5 22.200292,6.39951 42.300292,6.49951 16,0.1 19.89951,-0.20019 28.99951,-2.20019 58.3,-13.1 99.39961,-61.09971 103.59961,-121.19971 1,-15.4 -2.29912,-37.29961 -8.09912,-52.59961 -16.6,-44.1 -54.30049,-75.29961 -101.50049,-84.09961 -5.1875,-0.95 -10.43232,-1.54902 -15.69873,-1.80762 z m -5.62646,39.71924 c 2.575,0.0375 5.17519,0.28809 9.32519,0.78809 10.7,1.3 19.99952,4.09961 30.49952,9.09961 34.7,16.4 55.80019,56.00009 50.20019,94.10009 -2,13.2 -4.6,21.00069 -10.5,31.70069 -11.7,20.9 -28.7998,34.79931 -53.2998,43.29931 -9.2,3.2 -9.79942,3.3003 -26.39942,3.3003 -19.2,0 -24.30058,-1 -38.10058,-7.5 -22.800002,-10.6 -40.299912,-29.29981 -48.399912,-51.79981 -14.2,-39.3 -0.40068,-82.20068 34.29932,-106.70068 11.600002,-8.2 29.201172,-14.59981 43.201172,-15.79981 4.05,-0.35 6.59932,-0.52529 9.17432,-0.48779 z m 309.52588,27.68848 11.19873,0.29883 11.10058,0.30029 0.3003,64.30078 0.19922,64.29932 -9.19922,-0.3003 -9.3003,-0.30029 -0.30029,-36.49951 c -0.1,-20.1 -0.29951,-42.59951 -0.49951,-49.99951 l -0.20068,-13.40039 -7.59961,12.89941 c -4.2,7.2 -8.8001,15.00049 -10.1001,17.50049 -13,23.3 -17.49951,31.10068 -19.99951,34.70068 l -2.90039,4.29932 h -7.89991 c -6.6,0 -8.1998,-0.29951 -9.7998,-1.99951 -1,-1.1 -7.79961,-12.39971 -15.09961,-25.19971 -7.4,-12.8 -15.90049,-27.60078 -19.00049,-32.80078 l -5.6001,-9.49951 -0.30029,50.2998 -0.19922,50.29981 -9.30029,-0.3003 -9.20068,-0.30029 -0.29883,-63 c -0.1,-34.7 -10e-4,-63.59932 0.29883,-64.29932 0.3,-0.8 3.60117,-1.1997 11.70117,-1.1997 h 11.2998 l 20.89893,36.7998 c 24,42.1 23.3999,41.2002 24.3999,41.2002 0.7,0 15.9,-26 30,-51 3.5,-6.3 8.40137,-15.00078 10.90137,-19.30078 z m 432.89941,0.0996 c 10.2,0 10.90029,0.10019 12.30029,2.20019 2.1,3.3 11.5002,24.99912 20.2002,47.09912 6.2,15.4 27.39994,76.8001 27.39994,79.1001 0,0.3 -4.7,0.60059 -10.5,0.60059 h -10.40043 l -2.20019,-7.19971 c -1.1,-4 -3.39952,-11.70059 -4.99952,-17.10059 l -3,-9.70019 -29.60009,0.20068 -29.69971,0.29883 -4.60107,16.20117 c -2.5,8.9 -4.89981,16.49991 -5.29981,16.89991 -0.7,0.8 -18.79961,0.59892 -19.59961,-0.10108 -0.7,-0.7 17.60029,-55 24.30029,-72 9.9,-25.1 21.69942,-52.7998 23.39942,-54.7998 1.3,-1.4 3.30029,-1.69922 12.30029,-1.69922 z m 84.89943,0 h 8.8008 c 4.8,0 9.299,0.3998 9.999,0.7998 1,0.7 1.2005,14.19932 1.0005,64.29932 l -0.3003,63.3999 -9.7002,0.30029 -9.7998,0.3003 V 145.43689 Z M 617.19038,90.4364 h 9 9 v 13.70068 13.79883 h 15.50097 c 11.7,0 15.49912,0.30117 15.59912,1.20117 0,0.7 0.10108,4.19883 0.10108,7.79883 v 6.50098 l -15.7002,0.30029 -15.60058,0.29883 0.30029,24.70019 c 0.3,22.7 0.4998,24.99971 2.2998,28.19971 3.3,5.7 8.19981,7.40078 20.29981,7.30078 l 10.30078,-0.0996 -0.30029,7.19971 c -0.3,6.6 -0.5,7.19941 -3,8.39941 -4,1.9 -22.70069,1.69971 -28.70069,-0.30029 -8.8,-2.9 -15.3,-10.19951 -18,-19.99951 -0.6,-2.2 -1.10009,-13 -1.10009,-24 0,-11 -0.3002,-22.60029 -0.7002,-25.80029 l -0.59912,-5.69971 h -8.29981 -8.40087 v -4.8999 c 0,-2.7 -0.29913,-6.19991 -0.59913,-7.89991 l -0.60058,-3.09961 9.30029,-0.30029 9.3999,-0.30029 0.20069,-3 c 0,-1.7 0.19922,-7.7 0.19922,-13.5 z" style="color:#000000;font-style:normal;font-variant:normal;font-weight:normal;font-stretch:normal;font-size:medium;line-height:normal;font-family:sans-serif;font-variant-ligatures:normal;font-variant-position:normal;font-variant-caps:normal;font-variant-numeric:normal;font-variant-alternates:normal;font-variant-east-asian:normal;font-feature-settings:normal;font-variation-settings:normal;text-indent:0;text-align:start;text-decoration-line:none;text-decoration-style:solid;text-decoration-color:#000000;letter-spacing:normal;word-spacing:normal;text-transform:none;writing-mode:lr-tb;direction:ltr;text-orientation:mixed;dominant-baseline:auto;baseline-shift:baseline;text-anchor:start;white-space:normal;shape-padding:0;shape-margin:0;inline-size:0;clip-rule:nonzero;display:inline;overflow:visible;visibility:visible;isolation:auto;mix-blend-mode:normal;color-interpolation:sRGB;color-interpolation-filters:linearRGB;solid-color:#000000;solid-opacity:1;vector-effect:none;fill:#000000;fill-opacity:1;fill-rule:nonzero;stroke:none;stroke-linecap:butt;stroke-linejoin:miter;stroke-miterlimit:4;stroke-dasharray:none;stroke-dashoffset:0;stroke-opacity:1;-inkscape-stroke:none;color-rendering:auto;image-rendering:auto;shape-rendering:auto;text-rendering:auto;enable-background:accumulate;stop-color:#000000;stop-opacity:1" id="path8" />
  </g>
</svg>
