<?xml version="1.0" encoding="utf-8"?>
<!-- Generator: Adobe Illustrator 23.0.6, SVG Export Plug-In . SVG Version: 6.00 Build 0)  -->
<svg version="1.1" id="Layer_1" xmlns="http://www.w3.org/2000/svg" xmlns:xlink="http://www.w3.org/1999/xlink" x="0px" y="0px"
	 viewBox="0 0 300 120" style="enable-background:new 0 0 300 120;" xml:space="preserve">
<title>metacafe</title>
<polyline points="60.5,87.5 56.8,76 66.6,68.9 54.5,68.9 50.8,57.4 47,68.9 35,68.9 44.7,76 41,87.5 50.8,80.4 60.5,87.5 "/>
<path d="M41.9,76.9L27.6,66.5h17.7l5.5-16.8c0,0,4.7,14.4,5.5,16.8h9.4L50.8,20.7l-12,36.9H0L39,86C40.3,82.2,41.6,78.1,41.9,76.9"
	/>
<path d="M193.4,83.9c0,8.4,6.8,15.2,15.2,15.2c6.1,0,11.7-3.7,14-9.3l-4.6-1.9c-2.2,5.2-8.2,7.7-13.5,5.5c-5.2-2.2-7.7-8.2-5.5-13.5
	s8.2-7.7,13.5-5.5c1.6,0.7,3.1,1.8,4.1,3.2l3.9-3c-5.2-6.7-14.7-7.9-21.4-2.7C195.5,74.8,193.4,79.2,193.4,83.9"/>
<path d="M176.4,69.2c-8.1-0.1-14.8,6.5-14.9,14.6c-0.1,8.1,6.5,14.8,14.6,14.9c3,0,5.9-0.8,8.3-2.5v2.5h4.9V69.2H176.4 M166.6,83.9
	c0-5.4,4.4-9.8,9.8-9.8h8.1v15.3c-3,4.5-9.1,5.7-13.5,2.7C168.2,90.3,166.5,87.2,166.6,83.9"/>
<path d="M238.9,69.2c-8.1-0.1-14.8,6.5-14.9,14.6c-0.1,8.1,6.5,14.8,14.6,14.9c3,0,5.9-0.8,8.3-2.5v2.5h4.9V69.2H238.9 M229.1,83.9
	c0-5.4,4.4-9.8,9.8-9.8h8.1v15.3c-3,4.5-9,5.7-13.5,2.7C230.7,90.3,229.1,87.2,229.1,83.9"/>
<path d="M99.3,68.7c-3.2,0-6.3,1.5-8.4,4c-3.8-4.6-10.6-5.3-15.2-1.5c-2.5,2.1-4,5.1-4,8.4v19.1h4.9V79.5c0.1-3.3,2.9-5.8,6.1-5.6
	c3.1,0.1,5.5,2.6,5.6,5.6v19.1h4.9V79.5c0-3.2,2.6-5.9,5.9-5.9c3.2,0,5.9,2.6,5.9,5.9v19.2h4.9V79.5
	C110.1,73.5,105.3,68.7,99.3,68.7"/>
<path d="M156.5,93.7c-2.6,0-4.7-2.1-4.7-4.7V74.1h7.2v-4.9h-7.2v-9.3h-4.9V89c0,5.3,4.3,9.7,9.7,9.7h4.9v-4.9H156.5"/>
<path d="M267.7,64.8h2.5v-4.9h-2.5c-5.2,0-9.5,4.1-9.7,9.3l0,0v29.5h5V74.1h7.1v-4.9H263C263.2,66.7,265.2,64.8,267.7,64.8"/>
<path d="M139.4,85.7l-1,2.3c-2.2,5.2-8.3,7.7-13.5,5.5c-0.9-0.4-1.7-0.9-2.5-1.5l16.2-12.4l0,0l1.2-0.9l0.9-0.7l0,0l1.9-1.5l-1.5-2
	c-5.2-6.7-14.7-7.9-21.4-2.7c-6.7,5.2-7.9,14.7-2.7,21.4c5.2,6.7,14.7,7.9,21.4,2.7c2.1-1.6,3.7-3.7,4.7-6.1l1-2.3L139.4,85.7
	 M129,73.6c2.3,0,4.6,0.8,6.4,2.2L119.5,88c-2.2-5.2,0.2-11.3,5.4-13.5C126.2,73.9,127.5,73.6,129,73.6"/>
<path d="M295.5,85.8l-1,2.3c-2.2,5.2-8.2,7.7-13.5,5.5c-0.9-0.4-1.8-0.9-2.5-1.5l16.1-12.3l0,0l1.2-0.9l0.9-0.7l0,0l1.9-1.5
	l-1.5-1.9c-5.2-6.6-14.7-7.8-21.4-2.7c-6.6,5.2-7.8,14.7-2.7,21.4c5.2,6.6,14.7,7.8,21.4,2.7c2.1-1.6,3.7-3.7,4.7-6.1l1-2.3
	L295.5,85.8 M285,73.8c2.3,0,4.6,0.8,6.4,2.2l-15.9,12.2c-2.2-5.2,0.2-11.3,5.4-13.5C282.2,74.1,283.6,73.8,285,73.8"/>
</svg>
