<?xml version="1.0" encoding="UTF-8" standalone="no"?>
<svg version="1.0" viewBox="0 0 32 32" preserveAspectRatio="xMidYMid" id="svg5" sodipodi:docname="meta-ai.svg" width="32" height="32" inkscape:version="1.4-beta2 (9aaf4f34, 2024-07-30)" xmlns:inkscape="http://www.inkscape.org/namespaces/inkscape" xmlns:sodipodi="http://sodipodi.sourceforge.net/DTD/sodipodi-0.dtd" xmlns="http://www.w3.org/2000/svg" xmlns:svg="http://www.w3.org/2000/svg">
  <sodipodi:namedview id="namedview1" pagecolor="#ffffff" bordercolor="#000000" borderopacity="0.25" inkscape:showpageshadow="2" inkscape:pageopacity="0.0" inkscape:pagecheckerboard="0" inkscape:deskcolor="#d1d1d1" inkscape:zoom="0.78452081" inkscape:cx="108.34639" inkscape:cy="105.15973" inkscape:window-width="1440" inkscape:window-height="790" inkscape:window-x="0" inkscape:window-y="0" inkscape:window-maximized="1" inkscape:current-layer="svg5" />
  <defs id="defs5" />
  <path id="path10" style="fill:#000000;stroke-width:0.00653936" d="M 15.933111,0.09954793 C 11.73007,0.12855793 7.5006241,1.9062089 4.5043021,5.0319279 c -1.698911,1.771711 -3.203487,4.344707 -3.82237502,6.5532821 -0.76451,2.681845 -0.874375,4.829156 -0.388972,7.219754 0.631024,3.118703 1.72337602,5.424874 3.65285302,7.706259 1.723181,2.038685 4.259224,3.749688 6.8075899,4.59914 1.965883,0.667427 2.69412,0.776258 5.133269,0.788391 1.941612,0.01213 2.415034,-0.02436 3.519326,-0.267054 7.074752,-1.589689 12.062831,-7.414572 12.572504,-14.707727 0.121353,-1.868791 -0.279623,-4.52594 -0.983462,-6.382597 C 28.980621,5.1898229 24.405737,1.4031369 18.677977,0.33525493 c -0.629504,-0.115282 -1.266301,-0.1869 -1.905382,-0.218289 -0.2796,-0.01385 -0.559283,-0.0192 -0.839484,-0.01742 z m 0.15675,4.83716697 c 0.312481,0.0048 0.628474,0.03454 1.132083,0.09521 1.298453,0.157753 2.427435,0.49746 3.701621,1.10421 4.210869,1.990144 6.77075,6.7960311 6.091184,11.4194771 -0.2427,1.601824 -0.557766,2.548295 -1.273738,3.846743 -1.419799,2.536221 -3.495449,4.222526 -6.468546,5.254003 -1.116425,0.388323 -1.189079,0.400582 -3.203503,0.400582 -2.329934,0 -2.948901,-0.12153 -4.623542,-0.910307 C 8.6786211,24.86032 6.5554651,22.59195 5.5725241,19.861568 c -1.723181,-4.769069 -0.04945,-9.9755691 4.16142,-12.9486531 1.4076689,-0.995075 3.5446629,-1.771367 5.2435739,-1.916986 0.491472,-0.04245 0.799862,-0.06397 1.112343,-0.05921 z" />
</svg>
