<svg id="Camada_1" data-name="Camada 1" xmlns="http://www.w3.org/2000/svg" viewBox="0 0 200 80"><g id="Camada_1-2" data-name="Camada 1-2"><path d="M82.38,72.36H64.67l-3.88-28c-.27-2-.52-4.17-.73-6.65s-.73-5.06-.9-7.89a84.08,84.08,0,0,1-2.48,10.28c-.28.84-.46,1.5-.6,1.88l-9,30.33H35.29L26.24,42c-.1-.41-.31-1-.55-1.88a67.7,67.7,0,0,1-2.48-10.2c-.18,2.43-.57,4.85-.81,7.26s-.52,4.78-.88,7.2l-3.9,28H0L11.78,7.61H29.32L39,41c.07.25.18.63.35,1.11a41,41,0,0,1,1.78,7.65A35.28,35.28,0,0,1,41.78,46c.36-1.39.78-3.06,1.37-5.06L52.93,7.61H70.65Z"/><path d="M111.81,72.36H94.1V7.61h19.77c8,0,13.55.35,16.78,1.11a20.54,20.54,0,0,1,8.2,3.63,19.3,19.3,0,0,1,6.05,7.44A23.07,23.07,0,0,1,147,29.68a24.19,24.19,0,0,1-2.06,10.2,18,18,0,0,1-6.05,7.23,19.62,19.62,0,0,1-7.13,3,64.87,64.87,0,0,1-13.13,1h-6.81V72.36Zm0-35.58h3.69c4.68,0,7.94-.59,9.79-1.75s2.79-3.14,2.79-5.93-.91-4.65-2.73-5.8-5-1.72-9.64-1.72H111.8Z"/><path d="M158.88,72.36V7.61H200V21.79H176.52V33.07h21.73V46.91H176.52V72.38Z"/></g></svg>