<?xml version="1.0" encoding="UTF-8"?><svg id="a" xmlns="http://www.w3.org/2000/svg" viewBox="0 0 154.39 80"><defs><style>.c{stroke-width:0px;}</style></defs><g id="b"><path class="c" d="m63.59,64.98h-13.67l-3-21.61c-.21-1.54-.4-3.22-.56-5.13s-.56-3.91-.69-6.09c-.47,2.68-1.11,5.33-1.91,7.94-.22.65-.36,1.16-.46,1.45l-6.95,23.41h-9.1l-6.99-23.4c-.08-.32-.24-.77-.42-1.45-.84-2.57-1.48-5.2-1.91-7.87-.14,1.88-.44,3.74-.63,5.6s-.4,3.69-.68,5.56l-3.01,21.61H0L9.09,15h13.54l7.47,25.78c.05.19.14.49.27.86.65,1.92,1.11,3.9,1.37,5.91.11-.98.28-1.94.5-2.9.28-1.07.6-2.36,1.06-3.91l7.55-25.73h13.68l9.06,49.98Z"/><path class="c" d="m86.31,64.98h-13.67V15h15.26c6.18,0,10.46.27,12.95.86,2.29.46,4.45,1.41,6.33,2.8,2.02,1.49,3.62,3.47,4.67,5.74,1.1,2.39,1.65,5,1.62,7.63.05,2.71-.5,5.4-1.59,7.87-1.03,2.24-2.65,4.17-4.67,5.58-1.66,1.13-3.53,1.92-5.5,2.32-3.34.6-6.74.86-10.14.77h-5.26v16.4h0Zm0-27.47h2.85c3.61,0,6.13-.46,7.56-1.35s2.15-2.42,2.15-4.58-.7-3.59-2.11-4.48-3.86-1.33-7.44-1.33h-3.02v11.73Z"/><path class="c" d="m122.65,64.98V15h31.74v10.95h-18.13v8.71h16.77v10.68h-16.77v19.66l-13.62-.02Z"/></g></svg>