<?xml version="1.0" encoding="UTF-8" standalone="no"?>
<svg id="a" viewBox="0 0 32 32" version="1.1" width="32" height="32" xmlns="http://www.w3.org/2000/svg" xmlns:svg="http://www.w3.org/2000/svg">
  <defs id="defs1">
    <style id="style1">.c{stroke-width:0px;}</style>
  </defs>
  <g id="b" transform="matrix(0.20726731,0,0,0.20726731,0,7.7093076)">
    <path class="c" d="M 63.59,64.98 H 49.92 l -3,-21.61 c -0.21,-1.54 -0.4,-3.22 -0.56,-5.13 -0.16,-1.91 -0.56,-3.91 -0.69,-6.09 -0.47,2.68 -1.11,5.33 -1.91,7.94 -0.22,0.65 -0.36,1.16 -0.46,1.45 l -6.95,23.41 h -9.1 L 20.26,41.55 C 20.18,41.23 20.02,40.78 19.84,40.1 19,37.53 18.36,34.9 17.93,32.23 c -0.14,1.88 -0.44,3.74 -0.63,5.6 -0.19,1.86 -0.4,3.69 -0.68,5.56 L 13.61,65 H 0 L 9.09,15 h 13.54 l 7.47,25.78 c 0.05,0.19 0.14,0.49 0.27,0.86 0.65,1.92 1.11,3.9 1.37,5.91 0.11,-0.98 0.28,-1.94 0.5,-2.9 0.28,-1.07 0.6,-2.36 1.06,-3.91 l 7.55,-25.73 h 13.68 l 9.06,49.98 z" id="path1" />
    <path class="c" d="M 86.31,64.98 H 72.64 V 15 H 87.9 c 6.18,0 10.46,0.27 12.95,0.86 2.29,0.46 4.45,1.41 6.33,2.8 2.02,1.49 3.62,3.47 4.67,5.74 1.1,2.39 1.65,5 1.62,7.63 0.05,2.71 -0.5,5.4 -1.59,7.87 -1.03,2.24 -2.65,4.17 -4.67,5.58 -1.66,1.13 -3.53,1.92 -5.5,2.32 -3.34,0.6 -6.74,0.86 -10.14,0.77 h -5.26 v 16.4 0 z m 0,-27.47 h 2.85 c 3.61,0 6.13,-0.46 7.56,-1.35 1.43,-0.89 2.15,-2.42 2.15,-4.58 0,-2.16 -0.7,-3.59 -2.11,-4.48 -1.41,-0.89 -3.86,-1.33 -7.44,-1.33 H 86.3 V 37.5 Z" id="path2" />
    <path class="c" d="M 122.65,64.98 V 15 h 31.74 v 10.95 h -18.13 v 8.71 h 16.77 V 45.34 H 136.26 V 65 l -13.62,-0.02 z" id="path3" />
  </g>
</svg>
