<svg width="32" height="32" xmlns="http://www.w3.org/2000/svg">
  <g clip-path="url(#clip0_1323_477)" transform="translate(0 4.68) scale(.78074)" style="fill:#000" fill="currentColor">
    <path d="M11.705 0H5.852v5.8h5.853zM35.127 0h-5.854v5.8h5.854zM17.559 5.8H5.852v5.799h11.707ZM35.13 5.8H23.421v5.799h11.707zM35.124 11.599H5.852v5.799h29.272ZM11.705 17.398H5.852v5.8h5.853zM23.416 17.398h-5.854v5.8h5.854zM35.127 17.398h-5.854v5.8h5.854zM17.565 23.2H0V29h17.565zM40.987 23.2H23.422V29h17.565z" style="fill:#000"/>
    <path d="M11.707 0H5.854v5.8h5.853zM35.125 0h-5.854v5.8h5.854zM17.561 5.8H5.854v5.799H17.56ZM35.125 5.8H23.418v5.799h11.707zM35.126 11.599H5.854v5.799h29.272ZM11.707 17.398H5.854v5.8h5.853zM23.416 17.398h-5.854v5.8h5.854zM35.125 17.398h-5.854v5.8h5.854zM17.565 23.2H0V29h17.565zM40.983 23.2H23.418V29h17.565z" style="fill:#000"/>
  </g>
</svg>