<?xml version="1.0" encoding="UTF-8" standalone="no"?>
<svg viewBox="0 0 32 32" version="1.1" id="svg7" sodipodi:docname="mojeek.svg" width="32" height="32" inkscape:version="1.4-beta2 (9aaf4f34, 2024-07-30)" xmlns:inkscape="http://www.inkscape.org/namespaces/inkscape" xmlns:sodipodi="http://sodipodi.sourceforge.net/DTD/sodipodi-0.dtd" xmlns="http://www.w3.org/2000/svg" xmlns:svg="http://www.w3.org/2000/svg">
  <defs id="defs7" />
  <sodipodi:namedview id="namedview7" pagecolor="#ffffff" bordercolor="#000000" borderopacity="0.25" inkscape:showpageshadow="2" inkscape:pageopacity="0.0" inkscape:pagecheckerboard="0" inkscape:deskcolor="#d1d1d1" inkscape:zoom="1.0229338" inkscape:cx="42.035954" inkscape:cy="39.592003" inkscape:window-width="1440" inkscape:window-height="790" inkscape:window-x="0" inkscape:window-y="0" inkscape:window-maximized="1" inkscape:current-layer="svg7" />
  <path d="m 29.521127,21.99442 c -0.705611,0 -1.108289,-0.47287 -1.108289,-1.533133 0,-1.060263 0.65389,-5.574694 0.905102,-7.647195 0.469176,-3.8457635 -1.751096,-6.6497345 -4.968829,-6.6497345 a 7.9279612,7.9279612 0 0 0 -6.01801,2.634034 c -1.034403,-1.566382 -2.194412,-2.634034 -4.455322,-2.634034 -2.216578,0 -3.568691,0.809051 -4.9134146,2.102055 C 8.2419764,6.8441085 6.9526668,6.1643575 5.0242438,6.1643575 3.4393904,6.1791345 1.2893096,6.9807975 0,7.7750705 l 1.4370815,3.2509825 c 0.9789887,-0.543062 1.7806511,-0.953129 2.4677904,-0.953129 0.7388593,0 1.2043408,0.543062 1.0787347,1.680905 -0.1256061,1.137844 -1.4518587,13.691065 -1.4518587,13.691065 h 4.3334103 c 0,0 0.8533826,-8.083122 1.1526206,-10.513969 0.3509582,-2.848303 1.7289312,-4.654815 3.6942972,-4.654815 1.725236,0 2.31263,1.359502 2.187024,2.955438 -0.107135,1.381667 -1.363196,12.220734 -1.363196,12.220734 h 4.35927 c 0,0 0.964212,-8.98453 1.26345,-11.212191 0.391595,-2.892634 2.257215,-3.956592 3.424613,-3.956592 1.924729,0 2.512122,1.57377 2.331101,3.066266 -0.162549,1.208036 -0.668667,5.482337 -0.827522,7.70261 -0.195798,2.744862 1.108289,4.784114 3.550219,4.784114 A 9.1470792,9.1470792 0 0 0 32,24.7282 l -0.938351,-3.217733 a 4.2816901,4.2816901 0 0 1 -1.540522,0.483953 z" id="path1" style="stroke-width:0.36943" />
</svg>
