<svg id="Camada_1" data-name="Camada 1" xmlns="http://www.w3.org/2000/svg" viewBox="0 0 198 31"><defs><style>.cls-1{fill-rule:evenodd;}</style></defs><title>monster-logo-h-teal</title><path class="cls-1" d="M189.76,31,180,18V31h-7V0h12c5,0,9.78,4.66,9.78,9.62,0,4.3-3,7.18-6.52,8.55L198,31ZM180,13h3.57c2.22,0,3.43-1.44,3.43-3a3.13,3.13,0,0,0-3.43-3H180ZM150,31V5h16v6H156v4h8v6h-8v4h10v6ZM125,5v6h6V31h6V11h6V5ZM99,27l3.5-4a10,10,0,0,0,6,2c2.16,0,2.81-.83,2.81-1.62s-.64-1.55-2.92-2.36l-2-.71c-3.7-1.32-6.06-3.78-6.06-7.43,0-4.48,3.82-7.88,9.17-7.88A10.93,10.93,0,0,1,117,7.5L114,12a8.89,8.89,0,0,0-4.5-1.5c-1.86,0-2.5,1.09-2.5,2,0,1.18,1,1.69,3,2.39l2,.61c3.81,1.35,6,4.16,6,7.5,0,4.57-4,8-9.5,8A12.48,12.48,0,0,1,99,27ZM71,31h6V18L92,31V5H86l0,13L71,5Z"/><path class="cls-1" d="M38,18A13,13,0,1,0,51,5,12.94,12.94,0,0,0,38,18Zm13,7a6.94,6.94,0,0,1-7-6.88V18a6.94,6.94,0,0,1,6.88-7H51a6.94,6.94,0,0,1,7,6.88V18a6.94,6.94,0,0,1-6.88,7H51"/><path class="cls-1" d="M31,0,15.5,14.5,0,0V31H7V16l8.5,7.5L24,16V31h7Z"/></svg>