<?xml version="1.0" encoding="UTF-8" standalone="no"?>
<svg width="32" height="32" viewBox="0 0 32 32" version="1.1" id="svg1" xmlns="http://www.w3.org/2000/svg" xmlns:svg="http://www.w3.org/2000/svg">
  <defs id="defs1">
    <clipPath clipPathUnits="userSpaceOnUse" id="clipPath1">
      <path id="lpe_path-effect1" class="powerclip" d="M -5,-5 H 26.47889 V 31.990485 H -5 Z M 16.826559,9.777606 c 4.9e-4,-0.6414473 -0.518263,-1.1622912 -1.159707,-1.1643712 -0.639982,-6.41e-5 -1.159069,0.51826 -1.159948,1.1582412 -8.77e-4,0.639981 0.516787,1.159722 1.156766,1.161422 0.63998,0.0017 1.160389,-0.515315 1.162889,-1.155292 z M 5.8956463,8.6132244 C 5.4241397,8.6112444 4.9979589,8.8937593 4.8161651,9.328815 c -0.1817939,0.435056 -0.083325,0.9368 0.2494133,1.270877 0.3327386,0.334077 0.8340831,0.434559 1.2698652,0.254514 0.4357821,-0.180046 0.720003,-0.605089 0.7199091,-1.0766 C 7.0559805,9.136102 6.5371478,8.615182 5.8956463,8.6132244 Z M 13.939885,12.03894 c -0.180542,-0.0099 -0.357554,0.05275 -0.491686,0.174003 -0.0119,0.0105 -0.989436,0.859517 -2.562224,0.859517 -1.5755864,0 -2.7810091,-0.970076 -2.7915054,-0.978706 -0.138941,-0.116059 -0.3184079,-0.171957 -0.4986786,-0.155322 -0.1802708,0.01664 -0.3464779,0.104431 -0.4618341,0.243956 -0.2405985,0.291062 -0.2015567,0.721668 0.087467,0.964711 0.1600085,0.132485 1.6217697,1.29499 3.6645511,1.29499 2.105525,0 3.418475,-1.159707 3.473289,-1.209154 0.280065,-0.252993 0.303705,-0.684502 0.05295,-0.966576 -0.120629,-0.136008 -0.290781,-0.217934 -0.472329,-0.227419 z" />
    </clipPath>
  </defs>
  <path id="Path" clip-path="url(#clipPath1)" style="fill:#000000;fill-rule:nonzero" d="M 10.739445,0 C 4.8084358,0 2.4993611e-4,4.8343176 2.4993611e-4,10.796853 c 0,8.096858 10.73919506389,16.193632 10.73919506389,16.193632 0,0 10.739195,-8.096774 10.739195,-16.193632 C 21.47864,4.8343176 16.670453,0 10.739445,0 Z" transform="matrix(1.185603,0,0,1.185603,3.2672818,0)" />
</svg>
