<?xml version="1.0" encoding="UTF-8" standalone="no"?>
<svg version="1.0" width="32pt" height="32pt" viewBox="0 0 32 32" preserveAspectRatio="xMidYMid" id="svg1" xmlns="http://www.w3.org/2000/svg" xmlns:svg="http://www.w3.org/2000/svg">
  <defs id="defs1" />
  <g transform="matrix(0.00625,0,0,-0.00625,0,32)" fill="#000000" stroke="none" id="g1">
    <path d="M 0,2560 V 0 H 2560 5120 V 2560 5120 H 2560 0 Z m 1449,778 c 5,-18 69,-217 140,-443 72,-225 148,-475 171,-554 22,-80 42,-147 45,-150 12,-11 25,22 79,194 30,99 118,360 195,580 l 139,400 283,3 c 219,2 284,-1 291,-10 4,-7 8,-36 8,-64 v -50 l -70,-18 c -94,-25 -120,-54 -120,-134 0,-31 43,-302 95,-601 79,-459 97,-547 115,-566 11,-12 52,-35 91,-50 l 70,-29 -3,-65 -3,-66 -352,-3 -353,-2 v 60 c 0,49 3,62 18,67 69,23 102,47 121,86 37,77 36,120 -13,477 -25,184 -52,388 -60,453 -8,65 -16,121 -19,123 -3,3 -99,-275 -213,-617 l -209,-623 -130,-37 c -71,-21 -131,-37 -132,-35 -2,1 -96,303 -210,669 -114,367 -210,667 -214,667 -3,0 -9,-30 -13,-67 -4,-38 -36,-264 -72,-503 -36,-239 -63,-452 -62,-474 l 3,-38 105,-37 105,-37 3,-44 c 2,-24 1,-54 -3,-67 l -5,-23 H 966 c -341,0 -316,-6 -316,78 v 47 l 60,33 c 63,35 111,89 129,145 21,67 202,1093 196,1115 -9,38 -39,58 -124,87 l -81,27 v 57 c 0,32 3,61 7,64 3,4 140,7 304,7 h 297 z m 3011,-182 c 0,-242 6,-226 -85,-226 h -53 l -11,46 c -26,101 -78,165 -149,183 -20,5 -99,12 -174,15 l -138,5 v -423 c 0,-508 9,-811 24,-832 7,-8 52,-24 101,-35 50,-10 100,-21 113,-24 19,-5 22,-12 22,-53 0,-26 -3,-57 -6,-69 l -6,-23 h -403 c -455,0 -415,-8 -415,85 v 54 l 73,21 c 100,28 118,39 147,90 l 25,45 3,582 3,582 -148,-6 c -184,-6 -223,-21 -265,-98 -15,-27 -32,-71 -39,-97 l -11,-48 h -53 c -91,0 -85,-16 -85,226 v 214 h 765 765 z" id="path1" />
  </g>
</svg>
