<svg width="74" height="28" fill="none" xmlns="http://www.w3.org/2000/svg"><path d="M15.234 22.383s-1.231 5.661 2.234 5.611c2.613-.038 4.184-3.752 1.895-9.302 0 0-1.945-.925-4.13 3.69Z" fill="url(#a)"/><path d="M15.234 22.383s-1.231 5.661 2.234 5.611c2.613-.038 4.184-3.752 1.895-9.302 0 0-1.945-.925-4.13 3.69Z" fill="url(#b)"/><path d="M12.978 22.297S10.2 28.21 5.926 27.994c-4.272-.216-5.334-7.74 4.075-11.23 0 0 3.883 1.507 2.976 5.533h.001Z" fill="url(#c)"/><path d="m51.295 24.537 1.395-1.805c.454.43.938.754 1.454.973.516.219 1.06.328 1.63.328.649 0 1.145-.125 1.49-.375.351-.25.527-.617.527-1.102 0-.39-.153-.711-.457-.962-.305-.258-.794-.461-1.466-.61-1.524-.336-2.6-.805-3.224-1.407-.618-.609-.927-1.363-.927-2.263 0-1.125.426-2.028 1.278-2.708.86-.688 1.958-1.032 3.295-1.032.743 0 1.438.11 2.087.328a5.339 5.339 0 0 1 1.794 1.02l-1.313 1.748c-.461-.344-.9-.595-1.313-.75a3.628 3.628 0 0 0-1.349-.247c-.61 0-1.07.121-1.383.364-.305.234-.458.559-.458.973 0 .398.16.707.481.926.32.211.91.415 1.77.61 1.282.281 2.24.73 2.873 1.348.641.618.962 1.415.962 2.392 0 1.165-.43 2.099-1.29 2.803-.852.703-1.99 1.055-3.412 1.055-.868 0-1.68-.133-2.439-.399a5.885 5.885 0 0 1-2.005-1.208ZM73.201 25.862H70.4v-6.847c0-1.055-.199-1.853-.598-2.392-.39-.54-.98-.81-1.77-.81-.813 0-1.482.306-2.005.915-.524.602-.786 1.364-.786 2.287v6.847h-2.814V13.856h2.814v1.829h.047c.438-.696.985-1.22 1.642-1.571.664-.36 1.407-.54 2.227-.54 1.33 0 2.334.422 3.014 1.266.688.837 1.031 2.056 1.031 3.66v7.362ZM46.804 25.863h2.814v-7.434c0-1.618-.336-2.83-1.009-3.635-.672-.813-1.649-1.22-2.931-1.22-.883 0-1.665.188-2.345.563-.672.375-1.24.942-1.7 1.7a3.366 3.366 0 0 0-1.29-1.653c-.594-.406-1.31-.61-2.146-.61-.797 0-1.524.184-2.18.551a4.285 4.285 0 0 0-1.595 1.513h-.047v-1.782H31.56v12.007h2.814v-6.755c0-.992.23-1.79.691-2.391.462-.602 1.064-.903 1.806-.903.774 0 1.352.254 1.736.762.383.5.574 1.255.574 2.263v7.024h2.814v-6.778c0-.915.239-1.688.715-2.322.477-.633 1.075-.95 1.794-.95.806 0 1.388.255 1.748.763.367.508.55 1.31.55 2.404v6.883Z" fill="#212121"/><path d="M15.232 22.383S16.4 8.388 22.517 7.135c3.787-.776 5.481 1.534 5.481 4.485 0 4.028-4.252 6.236-6.993 7.05-3.08.913-4.742 2.358-5.773 3.714v-.001Z" fill="url(#d)"/><path d="M12.977 22.306s.678-2.363-5.72-5.641C.86 13.385.113 9.405.01 7.109-.092 4.814.598 2.843 1.76 1.73 3.404.154 4.898-.127 7.082.06c2.902.25 5.942 3.221 7.46 7.87 2.205 6.755-1.565 14.376-1.565 14.376Z" fill="url(#e)"/><path d="M12.977 22.297s.678-2.364-5.72-5.642C.86 13.375.113 9.395.01 7.099c-.102-2.295.588-4.266 1.75-5.378C3.404.144 4.898-.136 7.082.05c2.902.249 5.942 3.22 7.46 7.868 2.205 6.756-1.565 14.378-1.565 14.378Z" fill="url(#f)"/><defs><radialGradient id="a" cx="0" cy="0" r="1" gradientUnits="userSpaceOnUse" gradientTransform="matrix(-2.72413 -8.52658 15.54159 -4.96533 17.746 27.995)"><stop stop-color="#FFB657"/><stop offset=".643" stop-color="#FF835C"/><stop offset=".961" stop-color="#CA2134"/></radialGradient><radialGradient id="b" cx="0" cy="0" r="1" gradientUnits="userSpaceOnUse" gradientTransform="rotate(94.548 .426 17.642) scale(10.3454 8.7988)"><stop offset=".707" stop-color="#FFCD0F" stop-opacity="0"/><stop offset="1" stop-color="#FFCD0F"/></radialGradient><radialGradient id="c" cx="0" cy="0" r="1" gradientUnits="userSpaceOnUse" gradientTransform="rotate(-71.159 25.14 12.158) scale(16.5824 10.8568)"><stop offset=".045" stop-color="#FFC800"/><stop offset=".257" stop-color="#B5BA1E"/><stop offset=".368" stop-color="#98BD42"/><stop offset=".587" stop-color="#52B471"/><stop offset=".767" stop-color="#018D32"/><stop offset=".878" stop-color="#006523"/></radialGradient><radialGradient id="d" cx="0" cy="0" r="1" gradientUnits="userSpaceOnUse" gradientTransform="matrix(-.31812 -16.3302 19.5232 -.38032 17.442 22.799)"><stop offset=".066" stop-color="#BD00FF"/><stop offset="1" stop-color="#FF5F3D"/></radialGradient><radialGradient id="e" cx="0" cy="0" r="1" gradientUnits="userSpaceOnUse" gradientTransform="rotate(94.968 5.683 3.287) scale(21.167 34.1452)"><stop stop-color="#3BD5FF"/><stop offset=".417" stop-color="#0D91E1"/><stop offset=".744" stop-color="#2764E7"/><stop offset="1" stop-color="#2052CB"/></radialGradient><radialGradient id="f" cx="0" cy="0" r="1" gradientUnits="userSpaceOnUse" gradientTransform="matrix(-.58321 18.55704 -32.85658 -1.03262 10.71 -5.196)"><stop stop-color="#3DEEDF" stop-opacity=".7"/><stop offset="1" stop-color="#0D91E1" stop-opacity="0"/></radialGradient></defs></svg>