<svg width="32" height="32" fill="none" xmlns="http://www.w3.org/2000/svg">
  <path style="fill:#000;stroke-width:1.14294" d="M6.766 0C4.951.015 3.538.5 2.011 1.965.932 2.998.21 4.68.038 6.68v.012c-.013.15-.023.301-.029.455v.011c-.006.156-.01.313-.009.471v.007c0 .157.004.317.011.478v.01c.008.161.017.328.031.503v.011c.015.175.035.357.059.545.34 2.68 1.788 6.577 8.194 9.862.537.275 1.025.545 1.478.808-8.95 4.211-7.616 11.908-3 12.142 4.881.246 8.056-6.5 8.06-6.51l-.002.01s2.04-4.126 2.492-9.213c.02-.227.037-.456.051-.686v-.013c.014-.231.025-.463.031-.697v-.01c.006-.234.007-.47.005-.706v-.014a19.75 19.75 0 0 0-.018-.71v-.013c-.066-1.453-.298-2.936-.77-4.384C14.887 3.737 11.412.342 8.094.057 7.626.017 7.185-.005 6.766 0Zm20.481 7.982c-.467.006-.97.06-1.51.172C18.744 9.586 17.41 25.58 17.41 25.58h.002s-1.238 5.687 1.87 6.351a3.178 3.178 0 0 0 1.094.029c.045-.007.09-.016.134-.024 1.501-.298 2.608-1.743 2.84-4.023.013-.134.026-.27.033-.41.083-1.546-.217-3.436-1.031-5.584a17.298 17.298 0 0 1 1.656-.582c3.133-.93 7.992-3.455 7.992-8.059 0-2.951-1.482-5.34-4.753-5.297zM14.834 25.476v.007h-.003l.003-.007z"/>
</svg>