<?xml version="1.0" encoding="utf-8"?>
<!-- Generator: Adobe Illustrator 23.0.6, SVG Export Plug-In . SVG Version: 6.00 Build 0)  -->
<svg version="1.1" id="Camada_1" xmlns="http://www.w3.org/2000/svg" xmlns:xlink="http://www.w3.org/1999/xlink" x="0px" y="0px"
	 viewBox="0 0 300 120" style="enable-background:new 0 0 300 120;" xml:space="preserve">
<title>msn</title>
<path d="M36.7,114c-6.3,0-11.7-4-11.7-13c0-13.8,11.9-24.4,17.4-27.3c4.9,2.8,10.1,5.2,15.4,7.2C42.2,71,32.3,53,32.3,33.1
	C32.3,14.4,42,6,51,6c7.1,0,24.1,7.8,24.1,38.1C75.1,76.5,58.1,114,36.7,114L36.7,114z M191.9,92.4h-7.4V65.9
	c0-5.1-0.8-8.8-2.3-11.1s-4.2-3.4-7.9-3.4c-3.2,0-6.2,1.6-8,4.3c-2.3,3-3.4,6.6-3.3,10.3v26.3h-7.4V65c0-9.1-3.5-13.6-10.5-13.6
	c-3.2-0.1-6.1,1.4-8,4c-2.2,3.1-3.3,6.8-3.1,10.6v26.4h-7.4V46.2h7.4v7.3h0.2c3.2-5.6,8-8.4,14.3-8.4c3,0,5.9,0.9,8.3,2.6
	c2.3,1.7,4,4.2,4.9,6.9c3.4-6.4,8.6-9.5,15.3-9.5C187,45.2,192,51.5,192,64L191.9,92.4L191.9,92.4z M274.9,92.4h-7.4V66.1
	c0-9.8-3.6-14.7-10.7-14.7c-3.5-0.1-6.9,1.4-9.2,4.1c-2.5,2.9-3.8,6.7-3.6,10.5v26.3h-7.4V46.2h7.4v7.6h0.2
	c3.5-5.8,8.6-8.7,15.1-8.7c5,0,8.9,1.6,11.6,4.8c2.7,3.2,4,8,4,14.1L274.9,92.4L274.9,92.4z M200,82.8v7.9c0,0,4,2.8,11.6,2.8
	c11.6,0,16.7-6.5,16.7-13.6c0-15.3-20.6-11.7-20.6-21.9c0-3.8,3.1-6.6,8.2-6.6c3.7,0.1,7.3,1.1,10.3,3.2v-7.2
	c-3.1-1.5-6.5-2.3-10-2.3c-9.9,0-16.1,6.2-16.1,13.7c0,15.1,20.6,12.2,20.6,22c0,4.5-3.7,6.2-8.5,6.2
	C207.8,86.9,203.5,85.4,200,82.8z"/>
<path d="M64,103.7c0,4.7,1.6,6.6,4.1,6.6c6.3,0,16.3-14.7,15.9-30.1c9.5-10.1,21-25.8,21-38.4c0-3.1-0.9-5.7-4.5-5.7
	c-5.6,0-13.5,9.5-18.5,19c-4.8,9.9-9.3,21-15.4,36.4C65.3,95.3,64,100,64,103.7z"/>
</svg>
