<svg height="32" viewBox="0 0 32 57.143" class="r-p1wo8a" width="32" xmlns="http://www.w3.org/2000/svg">
  <path d="M30.808 53.044c1.575 1.156 3.36 1.786 5.251 1.786 1.366 0 2.626-.315 3.782-.945 3.046-1.47 4.831-4.412 4.726-7.668V11.031c0-3.361-1.89-6.302-4.832-7.773-1.05-.525-2.205-.84-3.466-.945-1.89 0-3.78.525-5.356 1.786L16.208 15.232l-.105-.105-.105.105L1.293 4.1c-1.575-1.26-3.466-1.786-5.357-1.786-1.26.105-2.415.42-3.466.945-1.575.735-2.836 1.786-3.676 3.151v.105c-.105 0-.105.105-.21.21a8.515 8.515 0 0 0-1.155 4.307v35.081c0 3.361 1.89 6.302 4.831 7.773 1.26.63 2.626.945 3.781.945 1.891 0 3.677-.63 5.252-1.786l14.705-11.238Zm8.927-6.827v.105c0 1.366-.735 2.626-1.995 3.256-1.26.63-2.731.42-3.886-.42L20.199 38.76l.105-.105H20.2l1.05-.84 7.983-6.093 10.503 8.088zm0-22.582v9.873l-6.407-4.937h.105-.105l6.407-4.936c0-.105 0 0 0 0zM33.854 8.09a3.714 3.714 0 0 1 3.886-.315c.315.105.63.315.84.525.735.63 1.155 1.575 1.155 2.73v6.303L29.232 25.42 20.2 18.383Zm-41.489 9.138V11.03c0-1.47.84-2.731 2.1-3.361.526-.315 1.156-.42 1.681-.42.736 0 1.47.315 2.101.735l13.654 10.293L2.87 25.42Zm0 16.175V23.53l6.407 4.936h-.105.105l-6.407 4.937c0 .105 0 0 0 0zm9.243 13.13-3.36 2.52c-1.156.945-2.627 1.05-3.887.42-1.26-.63-1.996-1.785-1.996-3.256V39.81l.105-.105 2.31-1.786c2.837-2.205 8.089-6.302 8.089-6.302h.105l9.033 7.038s-6.618 5.041-10.399 7.877zm14.39-11.03h-.105l-.735-.63-8.298-6.407 9.138-7.037 4.411 3.466 4.622 3.571-8.508 6.618-.315.21z" style="stroke-width:1.05034"/>
</svg>