<?xml version="1.0" encoding="UTF-8"?><svg id="a" xmlns="http://www.w3.org/2000/svg" viewBox="0 0 290 80"><defs><style>.c{stroke-width:0px;}</style></defs><path class="c" d="m33.06,6.94C14.79,6.94,0,21.73,0,40s14.79,33.06,33.06,33.06,32.96-14.79,32.96-33.06h0c0-18.27-14.79-33.06-32.96-33.06h0Zm17.5,26.39v20.01c0,1.74-1.74,3-3.48,3-.77,0-1.55-.29-2.22-.68,0,0-5.9-4.45-11.89-8.89l-11.99,8.89c-.68.48-1.45.77-2.22.77-1.74.1-3.29-1.26-3.38-3v-27.07c.29-2.32,3.48-3.48,5.61-1.93l11.89,8.89h0l11.79-8.8c2.42-2.03,5.61-.58,5.8,1.74h0v.29l.1,6.77Z"/><path id="b" class="c" d="m90.77,38.94v10.92h4.25v-10.92c0-2.9,1.64-4.93,4.25-4.93,3,0,4.16,2.03,4.16,4.83v10.92h4.35v-11.89c0-4.35-2.13-7.83-7.06-7.83-2.61-.1-5.12,1.06-6.77,3.19-1.26-2.13-3.58-3.38-5.99-3.19-2.32,0-4.45,1.16-5.8,3.09v-2.61h-4.16v19.33h4.35v-10.83c0-2.9,1.64-4.93,4.25-4.93,3,0,4.16,2.13,4.16,4.83h0Zm25.62,2.32v-10.83h-4.35v11.89c0,4.35,2.42,7.83,7.25,7.83,2.32,0,4.54-1.16,5.9-3v2.61h4.25v-19.33h-4.35v10.73c0,2.9-1.74,4.93-4.45,4.93-3,0-4.25-2.03-4.25-4.83Zm24.07,8.89c4.83,0,7.06-3.09,7.06-6.09,0-2.8-1.93-5.03-5.51-5.8l-2.71-.58c-1.06-.19-1.93-.87-1.93-2.03.1-1.35,1.35-2.32,2.71-2.22,1.64-.1,3.19,1.06,3.48,2.71l3.67-1.06c-.39-1.84-2.03-5.12-7.15-5.12-3.96,0-6.86,2.9-6.86,6.09,0,2.51,1.55,4.74,5.12,5.61l2.51.58c1.64.39,2.32,1.06,2.32,2.13,0,1.35-.97,2.22-2.8,2.22-1.84.1-3.48-1.26-3.87-3.09l-3.67.97c.29,2.22,2.42,5.7,7.64,5.7h0Zm9.86-26c-.1-1.55,1.06-2.9,2.71-3s2.9,1.06,3,2.71v.29c-.1,1.55-1.45,2.8-3,2.71-1.45-.1-2.61-1.26-2.71-2.71Zm.77,25.62v-19.33h4.35v19.33h-4.35Zm11.6,0l4.83-6.77,4.93,6.77h4.93l-7.35-9.86,7.15-9.47h-4.83l-4.74,6.38-4.74-6.38h-4.93l7.06,9.57-7.35,9.76h5.03Zm29.68-10.83v10.92h4.35v-10.92c0-2.9,1.55-4.93,4.25-4.93,3,0,4.16,2.03,4.16,4.83v10.92h4.35v-11.89c0-4.35-2.13-7.83-7.06-7.83-2.61-.1-5.12,1.06-6.77,3.19-1.26-2.13-3.58-3.38-5.99-3.19-2.32,0-4.45,1.16-5.8,3.09v-2.61h-4.25v19.33h4.35v-10.83c0-2.9,1.55-4.93,4.25-4.93,2.9,0,4.06,2.13,4.16,4.83h0Zm20.2,1.16c0,5.22,3.96,10.05,9.57,10.05,1.55,0,4.83-.77,6.38-3.29v2.9h4.25v-19.33h-4.25v2.8c-1.45-2.03-3.87-3.19-6.28-3.19-6.09,0-9.67,5.12-9.67,10.05h0Zm15.95,0c0,3.19-2.61,5.8-5.8,5.8s-5.8-2.61-5.8-5.8h0c0-3.38,2.32-6.09,5.8-6.09s5.8,2.71,5.8,6.09Zm19.91-5.8v-3.87h-4.83v-5.99h-4.35v5.99h-3.77v3.87h3.77v9.47c0,4.74,2.13,6.19,5.99,6.19,1.06,0,2.13-.1,3.09-.39v-3.67c-.58.1-1.16.1-1.74.19-2.13,0-3-.87-3-2.51v-9.18l4.83-.1Zm11.89,15.76c4.16.19,7.83-2.42,9.18-6.38l-3.96-1.26c-.68,2.22-2.8,3.77-5.12,3.67-3.29,0-5.7-2.61-5.7-6.19s2.51-6.09,5.7-6.09c2.32-.1,4.45,1.35,5.03,3.58l3.87-1.26c-.77-3.29-4.16-6.28-8.99-6.28-5.51-.1-10.05,4.35-10.15,9.86v.19c-.1,5.51,4.25,9.96,9.76,10.05.19.19.29.19.39.1h0Zm25.33-11.12v10.92h4.35v-11.99c0-4.45-2.32-7.83-7.25-7.83-2.32,0-4.45,1.06-5.8,2.9v-12.66h-4.35v29.58h4.35v-10.83c0-2.9,1.74-4.93,4.45-4.93,3,0,4.25,2.13,4.25,4.83h0Z"/></svg>