<?xml version="1.0" encoding="UTF-8" standalone="no"?>
<svg height="32" viewBox="0 0 32 57.142857" class="r-p1wo8a" version="1.1" id="svg1" sodipodi:docname="b06775f2.svg" width="32" inkscape:version="1.4-beta2 (9aaf4f34, 2024-07-30)" xmlns:inkscape="http://www.inkscape.org/namespaces/inkscape" xmlns:sodipodi="http://sodipodi.sourceforge.net/DTD/sodipodi-0.dtd" xmlns="http://www.w3.org/2000/svg" xmlns:svg="http://www.w3.org/2000/svg">
  <defs id="defs1" />
  <sodipodi:namedview id="namedview1" pagecolor="#ffffff" bordercolor="#000000" borderopacity="0.25" inkscape:showpageshadow="2" inkscape:pageopacity="0.0" inkscape:pagecheckerboard="0" inkscape:deskcolor="#d1d1d1" inkscape:zoom="1.343349" inkscape:cx="109.42801" inkscape:cy="134.36568" inkscape:window-width="1440" inkscape:window-height="790" inkscape:window-x="0" inkscape:window-y="0" inkscape:window-maximized="1" inkscape:current-layer="svg1" />
  <path d="m 30.80759,53.044338 c 1.57551,1.155374 3.36109,1.785577 5.2517,1.785577 1.36544,0 2.62585,-0.315101 3.78122,-0.945305 3.04599,-1.470475 4.83156,-4.411427 4.72653,-7.667479 V 11.030759 c 0,-3.361086 -1.89061,-6.3020365 -4.83156,-7.7725117 -1.05034,-0.5251698 -2.20572,-0.8402717 -3.46612,-0.9453056 -1.89061,0 -3.78123,0.5251698 -5.35673,1.7855771 L 16.20787,15.232117 16.10284,15.127084 15.99781,15.232117 1.2930496,4.0985188 c -1.57550996,-1.2604073 -3.46612,-1.7855771 -5.35673,-1.7855771 -1.260406,0.1050339 -2.41578,0.4201358 -3.466119,0.9453056 -1.575509,0.7352376 -2.8359166,1.785577 -3.6761876,3.1510183 v 0.105034 c -0.105034,0 -0.105034,0.1050339 -0.210068,0.2100679 -0.735238,1.2604073 -1.155374,2.7308826 -1.155374,4.3063915 v 35.081339 c 0,3.361086 1.890611,6.302037 4.8315616,7.772512 1.260407,0.630204 2.625849,0.945305 3.781227,0.945305 1.89061,0 3.67618004,-0.630203 5.25169,-1.785577 L 15.99781,41.805706 Z m 8.92789,-6.827206 v 0.105034 c 0,1.365441 -0.73524,2.625848 -1.99565,3.256052 -1.26041,0.630204 -2.73088,0.420136 -3.88625,-0.420136 L 20.19916,38.759722 20.3042,38.654688 h -0.10504 l 1.05034,-0.840272 7.98258,-6.091969 10.5034,8.087614 z m 0,-22.582299 v 9.873191 l -6.40707,-4.936595 h 0.10503 -0.10503 l 6.40707,-4.936596 c 0,-0.105034 0,0 0,0 z M 33.85358,8.0898088 c 1.15537,-0.8402716 2.62584,-0.9453055 3.88625,-0.3151019 0.3151,0.105034 0.63021,0.3151019 0.84027,0.5251698 0.73524,0.6302037 1.15538,1.5755092 1.15538,2.7308823 v 6.302037 L 29.23208,25.42041 20.19916,18.383136 Z M -7.6348334,17.227762 v -6.197003 c 0,-1.470475 0.840272,-2.7308823 2.100679,-3.361086 0.52517,-0.3151018 1.155374,-0.4201358 1.680544,-0.4201358 0.73524,0 1.47047,0.3151018 2.10068,0.7352376 L 11.90148,18.278102 2.8685596,25.42041 Z m 0,16.175228 v -9.873191 l 6.407073,4.936596 h -0.10504 0.10504 l -6.407073,4.936595 c 0,0.105034 0,0 0,0 z m 9.242983,13.129244 -3.36108,2.520814 c -1.15538,0.945306 -2.62585,1.05034 -3.886258,0.420136 -1.260407,-0.630204 -1.995645,-1.785577 -1.995645,-3.256052 v -6.407071 l 0.105034,-0.105034 2.310747,-1.785577 c 2.835912,-2.205713 8.087612,-6.302037 8.087612,-6.302037 h 0.10504 l 9.0329204,7.037275 c 0,0 -6.6171404,5.041629 -10.3983704,7.877546 z M 15.99781,35.503669 H 15.89277 L 15.15753,34.873466 6.8598496,28.466395 15.99781,21.42912 l 4.41142,3.466121 4.62149,3.571154 -8.50775,6.617138 -0.3151,0.210068 z" id="path1" style="stroke-width:1.05034" />
</svg>
