<?xml version="1.0" encoding="UTF-8" standalone="no"?>
<svg id="Layer_1" data-name="Layer 1" viewBox="0 0 32 32" version="1.1" sodipodi:docname="myspace.svg" width="32" height="32" inkscape:version="1.4-beta2 (9aaf4f34, 2024-07-30)" xmlns:inkscape="http://www.inkscape.org/namespaces/inkscape" xmlns:sodipodi="http://sodipodi.sourceforge.net/DTD/sodipodi-0.dtd" xmlns="http://www.w3.org/2000/svg" xmlns:svg="http://www.w3.org/2000/svg" xmlns:rdf="http://www.w3.org/1999/02/22-rdf-syntax-ns#" xmlns:cc="http://creativecommons.org/ns#" xmlns:dc="http://purl.org/dc/elements/1.1/">
  <sodipodi:namedview id="namedview10" pagecolor="#ffffff" bordercolor="#000000" borderopacity="0.25" inkscape:showpageshadow="2" inkscape:pageopacity="0.0" inkscape:pagecheckerboard="0" inkscape:deskcolor="#d1d1d1" inkscape:zoom="0.75973239" inkscape:cx="156.6341" inkscape:cy="187.56605" inkscape:window-width="1440" inkscape:window-height="790" inkscape:window-x="0" inkscape:window-y="0" inkscape:window-maximized="1" inkscape:current-layer="Layer_1" />
  <defs id="defs1">
    <style id="style1">.cls-1{fill:#000;}</style>
  </defs>
  <title id="title1">myspace</title>
  <g id="g10" transform="matrix(0.59038906,0,0,0.59038906,1.7901057e-4,-15.733502)">
    <ellipse class="cls-1" cx="7.5" cy="50.400002" rx="6.9000001" ry="6.8000002" id="ellipse1" />
    <path class="cls-1" d="M 7.5,58.8 A 7.75,7.75 0 0 0 0,66.6 v 2.7 0 A 0.68,0.68 0 0 0 0.7,70 H 14.3 A 0.68,0.68 0 0 0 15,69.3 v 0 -2.7 A 7.61,7.61 0 0 0 7.5,58.8 Z" id="path1" />
    <circle class="cls-1" cx="25.4" cy="48.299999" r="7.5999999" id="circle1" />
    <path class="cls-1" d="M 25.4,57.6 A 8.62,8.62 0 0 0 17,66.2 v 2.9 0 a 0.79,0.79 0 0 0 0.8,0.8 H 33 a 0.79,0.79 0 0 0 0.8,-0.8 v 0 -2.9 c -0.1,-4.4 -3.6,-8.6 -8.4,-8.6 z" id="path2" />
    <ellipse class="cls-1" cx="45" cy="45.900002" rx="8.5" ry="8.3999996" id="ellipse2" />
    <path class="cls-1" d="m 45,56.2 a 9.54,9.54 0 0 0 -9.3,9.6 v 3.3 0 a 0.79,0.79 0 0 0 0.8,0.8 h 16.9 a 0.79,0.79 0 0 0 0.8,-0.8 v 0 -3.3 A 9.45,9.45 0 0 0 45,56.2 Z" id="path3" />
  </g>
  <metadata id="metadata10">
    <rdf:RDF>
      <cc:Work rdf:about="">
        <dc:title>myspace</dc:title>
      </cc:Work>
    </rdf:RDF>
  </metadata>
</svg>
