<svg version="1.1" width="32" height="32" xmlns="http://www.w3.org/2000/svg">
  <g id="g10" transform="matrix(.59039 0 0 .59039 0 -15.734)">
    <ellipse class="cls-1" cx="7.5" cy="50.4" rx="6.9" ry="6.8" id="ellipse1"/>
    <path class="cls-1" d="M7.5 58.8A7.75 7.75 0 0 0 0 66.6v2.7a.68.68 0 0 0 .7.7h13.6a.68.68 0 0 0 .7-.7v-2.7a7.61 7.61 0 0 0-7.5-7.8Z" id="path1"/>
    <circle class="cls-1" cx="25.4" cy="48.3" r="7.6" id="circle1"/>
    <path class="cls-1" d="M25.4 57.6a8.62 8.62 0 0 0-8.4 8.6v2.9a.79.79 0 0 0 .8.8H33a.79.79 0 0 0 .8-.8v-2.9c-.1-4.4-3.6-8.6-8.4-8.6z" id="path2"/>
    <ellipse class="cls-1" cx="45" cy="45.9" rx="8.5" ry="8.4" id="ellipse2"/>
    <path class="cls-1" d="M45 56.2a9.54 9.54 0 0 0-9.3 9.6v3.3a.79.79 0 0 0 .8.8h16.9a.79.79 0 0 0 .8-.8v-3.3a9.45 9.45 0 0 0-9.2-9.6Z" id="path3"/>
  </g>
</svg>