<svg xmlns="http://www.w3.org/2000/svg" viewBox="0 0 300 120"><defs><style>.a{fill:#fff;}</style></defs><title>napster</title><path class="a" d="M15.6,32.17C22,25.36,30.93,20.82,40.36,20.67A34.6,34.6,0,0,1,67.45,32.12a45.44,45.44,0,0,1,8.48-1.32c0,3.88,0,7.76,0,11.64,5.73,3.66,8.79,11.29,6.59,17.82a16.78,16.78,0,0,1-6.8,8.91A34.2,34.2,0,0,1,62,92.79a35,35,0,0,1-31.1,4.94A34.26,34.26,0,0,1,7.29,69.07C3.13,66.14.08,61.42,0,56.24A16.28,16.28,0,0,1,7.35,42.35c0-3.85,0-7.69,0-11.54a34,34,0,0,1,8.27,1.36m6.78,2.45c1.19.62,2.37,1.24,3.54,1.91a34.13,34.13,0,0,1,31.42,0c1.12-.69,2.28-1.34,3.46-1.95a27.72,27.72,0,0,0-16.34-7.35,28.23,28.23,0,0,0-22.07,7.39m-8.51,3.59c0,9.16,0,18.32,0,27.49a27.42,27.42,0,0,0,27.73,27A27,27,0,0,0,63.42,82,27.68,27.68,0,0,0,69,65.08c0-9,0-17.94,0-26.91a34.84,34.84,0,0,0-11.63,6.19,27.69,27.69,0,0,0-31.5,0A31.71,31.71,0,0,0,13.87,38.22Z"/><path class="a" d="M229.47,39.05c3.13-.66,6.3-1.16,9.41-1.91a70.84,70.84,0,0,1-2,7.74c2.76,0,5.52,0,8.29-.06q-1.39,2.92-2.72,5.87c-2.32,0-4.63,0-7,0-1.68,5.61-3.37,11.21-4.84,16.88,3.17.48,6.28-.52,9.38-1-.68,2.17-1.15,4.4-2,6.52-4.45,1.11-9.3,1.77-13.79.57-2.72-.81-3.78-3.83-3-6.41,1.41-5.56,3.22-11,4.83-16.52l-5.21,0q.76-2.9,1.47-5.82c1.68,0,3.37,0,5.05,0A28.46,28.46,0,0,0,229.47,39.05Z"/><path class="a" d="M287,46.81a13.61,13.61,0,0,1,13-1.49l-1.3.3c-.57,2.29-1.25,4.54-1.88,6.82-3.22-.67-7-1.41-9.92.57-2.29,6.85-4,13.88-6.25,20.75-3.14-.12-6.28,0-9.43-.07,2.94-9.59,5.46-19.3,8.33-28.92,2.5.11,5,.09,7.5,0C287,45.31,287,46.31,287,46.81Z"/><path class="a" d="M95.72,45c2.54,0,5.09,0,7.63,0,.08.87.16,1.74.25,2.62,5.63-2.58,12.45-4.72,18.4-2,3.06,1.36,3,5.21,2.23,8-2,6.78-3.75,13.6-5.86,20.34-3.13-.05-6.26,0-9.39,0,1.64-5.44,3.08-10.94,4.67-16.4.15-1.93,2.31-4.72.47-6.17-3.82-.67-7.69.42-11.17,2-1.88,6.88-3.85,13.72-5.75,20.58-3.26,0-6.51,0-9.76,0C90.26,64.31,92.92,54.61,95.72,45Z"/><path class="a" d="M133.25,45.85c5.69-1.12,11.54-2,17.34-1.23,2,.39,4.17,1.05,5.41,2.79,1.4,2,1.12,4.57.48,6.77-1.87,6.46-3.58,13-5.48,19.43-2.72.18-5.45.09-8.17.06,0-.51,0-1.54,0-2.06a18.5,18.5,0,0,1-14,2c-2.52-.68-4.71-3-4.53-5.71a11.24,11.24,0,0,1,6.41-10.6c4.91-2.56,10.62-2.16,16-2.13q.42-1.63.88-3.25a3.59,3.59,0,0,0-2.31-.95,50.18,50.18,0,0,0-14.06,1.65c.77-2.24,1.26-4.56,2.1-6.78m2.53,15.92c-1.77,1.22-2,3.47-1.79,5.43,2.94,1.66,6.63.46,9.34-1.12a34.27,34.27,0,0,0,1.81-5.94C142,60.65,138.52,59.9,135.78,61.77Z"/><path class="a" d="M153,83.54c3.8-12.85,7.36-25.78,11-38.69,2.39,0,4.79.05,7.19-.08.14.52.41,1.55.55,2.06a18.44,18.44,0,0,1,14.77-1.67,7.62,7.62,0,0,1,5.12,7,23,23,0,0,1-5.27,15.61c-5.05,6-13.79,7.63-21.11,5.62-.94,3.39-1.76,6.82-2.83,10.17-3.14-.07-6.27,0-9.41,0m18.49-31.39c-1.76,5-2.86,10.24-4.48,15.29,3.39.7,7.56,1.35,10.34-1.25,3.06-2.95,4.25-7.28,4.77-11.37.14-1.41.24-3.29-1.3-4C177.72,50,174.39,50.86,171.51,52.15Z"/><path class="a" d="M203,45.28a29.17,29.17,0,0,1,16.76.55c-.72,2.08-1.3,4.2-2,6.29-4.09-.93-8.44-2-12.58-.77-1.07.36-2.2,1.64-1.45,2.79,2.92,1.74,6.54,1.87,9.41,3.75A5.5,5.5,0,0,1,215.78,63,11.1,11.1,0,0,1,207.84,73a33,33,0,0,1-18.35-.28c.73-2.2,1.3-4.46,2-6.69,4.05,1.25,8.43,2.18,12.63,1.21,1.48-.37,3.4-2.79,1.49-3.82-2.81-1.37-6-1.82-8.66-3.57a5.87,5.87,0,0,1-2.45-7C195.59,49,199.17,46.28,203,45.28Z"/><path class="a" d="M253.18,45.85a21,21,0,0,1,14.38-.51,7.57,7.57,0,0,1,5,6.89,22.55,22.55,0,0,1-1.91,9.84c-6.64-.07-13.27,0-19.91-.07-.7,2-.17,4.75,2.2,5.33,5,.87,10-.4,14.8-1.39-.72,2.23-1.3,4.5-1.92,6.76a41.83,41.83,0,0,1-16.65,1.08c-3.37-.47-6.62-2.66-7.59-6-1-3.9.12-7.94,1.54-11.58a18.18,18.18,0,0,1,10-10.32m-.88,10.63c3.6,0,7.21,0,10.81,0,.07-1.76,1-3.77-.19-5.33-.95-1.39-2.87-.88-4.29-.89C255.33,50.59,253.49,53.73,252.3,56.48Z"/><path class="a" d="M20.84,64.95c4.44.45,9-.08,13.35.81,3.48,1.28,4.5,5.28,5.58,8.42-4.3-.34-8.7.35-12.93-.7A8.55,8.55,0,0,1,20.84,64.95Z"/><path class="a" d="M49,65.77c4.44-.91,9-.37,13.5-.8-.08,3.58-2.12,7.15-5.61,8.34-4.36,1.35-9,.49-13.48.88C44.55,71,45.44,67,49,65.77Z"/><path class="a" d="M33.07,77.77a148.15,148.15,0,0,0,17.07,0A24.6,24.6,0,0,1,41.67,83,22.09,22.09,0,0,1,33.07,77.77Z"/><path class="a" d="M33.41,87.19A6,6,0,0,1,35,84.49c4.29.87,8.86,1.24,13.08-.16.61.81,1.18,1.65,1.72,2.5C45,90.24,38.44,89.79,33.41,87.19Z"/></svg>