<?xml version="1.0" encoding="UTF-8" standalone="no"?>
<svg id="a" viewBox="0 0 32 32" version="1.1" sodipodi:docname="natura.svg" width="32" height="32" inkscape:version="1.4-beta2 (9aaf4f34, 2024-07-30)" xmlns:inkscape="http://www.inkscape.org/namespaces/inkscape" xmlns:sodipodi="http://sodipodi.sourceforge.net/DTD/sodipodi-0.dtd" xmlns="http://www.w3.org/2000/svg" xmlns:svg="http://www.w3.org/2000/svg">
  <defs id="defs7" />
  <sodipodi:namedview id="namedview7" pagecolor="#ffffff" bordercolor="#000000" borderopacity="0.25" inkscape:showpageshadow="2" inkscape:pageopacity="0.0" inkscape:pagecheckerboard="0" inkscape:deskcolor="#d1d1d1" inkscape:zoom="1.6101744" inkscape:cx="30.431486" inkscape:cy="-0.31052537" inkscape:window-width="1440" inkscape:window-height="790" inkscape:window-x="0" inkscape:window-y="0" inkscape:window-maximized="1" inkscape:current-layer="a" />
  <g id="g7" transform="matrix(0.45699639,0,0,0.45699639,0.00114242,-2.2808429)">
    <path d="m 35.45,29.95 c -1.22,4.16 -1.47,5.15 -2.2,7.35 -0.49,1.71 -1.47,2.45 -2.69,2.45 -0.98,0 -1.96,-0.49 -2.69,-1.46 -2.2,-2.69 -5.15,-6.62 -6.86,-8.82 -2.2,-2.45 -7.35,-4.66 -10.04,-1.46 -3.67,4.66 0.73,10.04 3.43,13.23 0.25,0.25 0.49,0.49 0.49,0.73 0.49,0.73 1.22,1.22 1.71,1.96 1.22,1.47 2.45,2.45 1.71,3.43 -0.25,0.49 -0.98,0.73 -1.71,0.73 -1.96,0 -8.34,-1.71 -9.8,-1.96 -1.22,-0.25 -2.2,-0.25 -2.69,0.73 -0.49,1.22 1.22,4.41 5.39,6.62 4.16,2.2 11.02,3.18 11.51,3.43 2.45,0.49 1.96,1.71 1.47,2.45 l -0.49,0.48 c -0.49,0.49 -0.73,0.73 -0.73,1.22 0.24,1.47 3.67,1.96 5.63,2.2 1.96,0.24 4.41,0.49 6.13,-0.25 1.72,-0.74 1.71,-1.71 2.94,-2.2 1.23,-0.49 1.71,-0.24 3.18,0 0.49,0.24 1.22,0.24 2.2,0.49 2.2,0.49 5.88,0 8.08,-0.73 3.92,-1.22 5.63,-2.69 5.63,-3.18 0,-0.49 -0.73,-0.73 -1.46,-0.73 -0.73,-0.25 -3.67,-0.73 -4.66,-1.22 -0.98,-0.73 -0.25,-1.71 1.71,-2.45 1.96,-0.74 8.34,-3.43 10.78,-5.63 2.44,-2.2 4.66,-5.88 2.69,-7.84 -1.71,-1.96 -4.66,-0.49 -6.62,0.49 -0.25,0.24 -0.49,0.24 -0.73,0.49 -2.45,1.22 -6.62,3.43 -8.08,3.67 -1.22,0.24 -3.43,0.24 -2.45,-2.69 1.22,-3.43 1.96,-5.63 2.69,-7.84 0.98,-2.69 2.45,-9.06 -3.92,-11.02 -4.66,-1.72 -7.85,2.2 -9.55,7.35 v 0 z m -5.88,1.96 c 0,0 1.95,-6.62 3.43,-9.55 2.45,-4.9 6.86,-7.36 11.51,-7.36 0.73,0 1.47,0 1.96,0.24 9.55,1.71 9.8,11.51 9.06,14.95 -0.73,3.18 -1.96,6.37 -2.2,7.35 v 0.24 c 0.73,-0.24 4.16,-1.96 7.84,-3.67 3.67,-1.46 10.29,-1.46 8.57,5.88 -1.71,7.6 -10.29,12 -11.26,12.25 -0.73,0.49 -1.96,0.98 -2.2,1.22 -0.24,0.24 -0.24,0.25 0,0.25 0.24,0 0.49,0 0.98,0.24 1.22,0 2.94,0.25 2.94,1.22 0,1.47 -2.2,3.67 -8.33,6.37 C 45.5,64.48 40.11,63 38.64,62.76 v 0 c -0.49,0.49 -3.43,3.43 -11.76,1.71 -6.13,-0.98 -7.6,-1.71 -9.06,-3.43 -0.49,-0.49 -0.73,-1.22 -0.25,-2.45 0.25,-0.25 0.25,-0.49 0,-0.49 C 8.26,56.14 2.63,50.26 0.67,46.59 -0.31,44.63 -0.06,43.41 0.42,42.67 1.15,41.45 3.6,41.45 6.05,42.18 c 2.94,0.73 4.41,1.22 4.9,1.22 0.17,0 0.17,-0.08 0,-0.24 C 10.22,42.18 7.77,39 6.54,37.03 4.34,33.6 1.64,24.78 8.74,21.1 c 7.6,-4.16 14.46,3.18 15.93,4.9 1.22,1.71 3.92,5.15 4.16,5.63 0.49,0.73 0.73,0.25 0.73,0.25 v 0 0.04 z" style="stroke-width:0px" id="path7" />
  </g>
</svg>
