<?xml version="1.0" encoding="UTF-8"?><svg id="a" xmlns="http://www.w3.org/2000/svg" viewBox="0 0 430.71 76.5"><defs><style>.b{stroke-width:0px;}</style></defs><path class="b" d="m163.84,20.99c17.3,0,25.95,11.32,25.95,21.96v23.96h-11.32v-23.96c0-6.66-3.98-17.97-14.64-17.97s-14.62,11.31-14.62,17.97v23.96h-11.32v-23.96c0-10.65,7.99-21.96,25.95-21.96"/><path class="b" d="m316.9,68.24c-17.3,0-25.95-11.32-25.95-21.96v-23.96h11.32v23.96c0,6.66,3.98,17.97,14.64,17.97s14.64-11.32,14.64-17.97v-23.96h11.32v23.96c-.67,10.65-8.65,21.96-25.95,21.96"/><path class="b" d="m234.39,64.25c-2.71,2.12-5.92,3.49-9.32,3.99-11.32,2-26.62-5.99-27.29-22.63-.66-16.64,15.97-23.96,26.62-23.96,17.97.67,24.62,14.64,24.62,22.63v23.29h-11.32v-23.29c0-5.32-2.66-17.97-13.97-17.97s-14.64,10.65-14.64,17.97c0,5.32,1.33,17.3,13.97,17.97,3.99,0,9.32-.67,11.32-2v3.99Z"/><path class="b" d="m284.3,74.23c-1.33.66-5.32,1.33-9.98,0-5.32-1.33-13.97-3.98-13.97-21.96V1.69h10.65v19.97h9.98v7.32h-9.98v25.95c0,9.98,2.66,13.98,5.32,14.64,2.66,1.33,7.32.67,7.99.67v3.99Z"/><path class="b" d="m352.85,42.28c0-11.32,5.99-19.3,15.97-19.96,7.32-.67,9.32.66,9.32.66v4.66s-3.98-1.33-7.99,0c-4.66,1.33-6.66,8.65-6.66,10.65v29.95h-11.32l.67-25.95Z"/><path class="b" d="m416.07,64.25c-2.71,2.12-5.92,3.49-9.31,3.99-11.32,2-26.62-5.99-27.29-22.63-.66-16.64,15.97-23.96,26.62-23.96,17.97.67,24.62,14.64,24.62,22.63v23.29h-11.31v-23.29c0-5.32-2.66-17.97-13.97-17.97s-14.64,10.65-14.64,17.97c0,5.32,1.33,17.3,13.97,17.97,3.98,0,9.32-.67,11.32-2l-.02,3.99Z"/><path class="b" d="m54.23,22.86c-1.87,6.37-2.25,7.87-3.37,11.24-.75,2.62-2.25,3.75-4.12,3.75-1.5,0-3-.75-4.12-2.24-3.37-4.12-7.87-10.12-10.49-13.49-3.37-3.75-11.24-7.12-15.36-2.24-5.62,7.12,1.12,15.36,5.25,20.23.38.38.75.75.75,1.12.75,1.12,1.87,1.87,2.62,3,1.87,2.25,3.75,3.75,2.62,5.25-.38.75-1.5,1.12-2.62,1.12-3,0-12.75-2.62-14.99-3-1.87-.38-3.37-.38-4.12,1.12-.75,1.87,1.87,6.74,8.24,10.12,6.37,3.37,16.86,4.87,17.61,5.25,3.75.75,3,2.62,2.25,3.75l-.75.73c-.75.75-1.12,1.12-1.12,1.87.37,2.25,5.62,3,8.61,3.37s6.74.75,9.37-.38,2.62-2.62,4.5-3.37,2.62-.37,4.87,0c.75.37,1.87.37,3.37.75,3.37.75,8.99,0,12.36-1.12,6-1.87,8.61-4.12,8.61-4.87s-1.12-1.12-2.24-1.12c-1.12-.38-5.62-1.12-7.12-1.87-1.5-1.12-.38-2.62,2.62-3.75s12.75-5.24,16.49-8.61,7.12-8.99,4.12-11.99c-2.62-3-7.12-.75-10.12.75-.38.37-.75.37-1.12.75-3.75,1.87-10.12,5.24-12.36,5.62-1.87.37-5.25.37-3.75-4.12,1.87-5.25,3-8.61,4.12-11.99,1.5-4.12,3.75-13.86-6-16.86-7.12-2.63-12,3.37-14.61,11.24Zm-8.99,3s2.99-10.12,5.25-14.61C54.23,3.75,60.98,0,68.09,0c1.12,0,2.25,0,3,.37,14.61,2.62,14.99,17.61,13.86,22.86-1.12,4.87-3,9.74-3.37,11.24v.37c1.12-.37,6.37-3,11.99-5.62,5.62-2.24,15.74-2.24,13.11,8.99-2.62,11.62-15.74,18.36-17.23,18.73-1.12.75-3,1.5-3.37,1.87s-.37.38,0,.38.75,0,1.5.37c1.87,0,4.5.38,4.5,1.87,0,2.25-3.37,5.62-12.74,9.74-9.74,4.5-17.99,2.24-20.23,1.87h0c-.75.75-5.24,5.25-17.98,2.62-9.37-1.5-11.62-2.62-13.86-5.25-.75-.75-1.12-1.87-.38-3.75.38-.38.38-.75,0-.75-14.24-3-22.85-11.99-25.85-17.61-1.5-3-1.12-4.87-.38-6,1.12-1.87,4.87-1.87,8.61-.75,4.49,1.12,6.74,1.87,7.49,1.87q.38,0,0-.37c-1.12-1.5-4.87-6.37-6.74-9.37-3.37-5.25-7.5-18.73,3.37-24.36,11.62-6.37,22.11,4.87,24.36,7.49,1.87,2.62,5.99,7.87,6.37,8.61.75,1.12,1.12.38,1.12.38h0Z"/></svg>