<?xml version="1.0" encoding="UTF-8"?><svg id="a" xmlns="http://www.w3.org/2000/svg" viewBox="0 0 281.59 80"><path d="m107.11,28.72c11.31,0,16.97,7.4,16.97,14.36v15.66h-7.4v-15.66c0-4.35-2.6-11.75-9.57-11.75s-9.56,7.39-9.56,11.75v15.66h-7.4v-15.66c0-6.96,5.22-14.36,16.97-14.36" style="stroke-width:0px;"/><path d="m207.18,59.62c-11.31,0-16.97-7.4-16.97-14.36v-15.66h7.4v15.66c0,4.35,2.6,11.75,9.57,11.75s9.57-7.4,9.57-11.75v-15.66h7.4v15.66c-.44,6.96-5.66,14.36-16.97,14.36" style="stroke-width:0px;"/><path d="m153.24,57.01c-1.77,1.39-3.87,2.28-6.09,2.61-7.4,1.31-17.4-3.92-17.84-14.8-.43-10.88,10.44-15.66,17.4-15.66,11.75.44,16.1,9.57,16.1,14.8v15.23h-7.4v-15.23c0-3.48-1.74-11.75-9.13-11.75s-9.57,6.96-9.57,11.75c0,3.48.87,11.31,9.13,11.75,2.61,0,6.09-.44,7.4-1.31v2.61h0Z" style="stroke-width:0px;"/><path d="m185.87,63.53c-.87.43-3.48.87-6.52,0-3.48-.87-9.13-2.6-9.13-14.36V16.1h6.96v13.06h6.52v4.79h-6.52v16.97c0,6.52,1.74,9.14,3.48,9.57,1.74.87,4.79.44,5.22.44v2.61h0Z" style="stroke-width:0px;"/><path d="m230.69,42.64c0-7.4,3.92-12.62,10.44-13.05,4.79-.44,6.09.43,6.09.43v3.05s-2.6-.87-5.22,0c-3.05.87-4.35,5.66-4.35,6.96v19.58h-7.4l.44-16.97h0Z" style="stroke-width:0px;"/><path d="m272.02,57.01c-1.77,1.39-3.87,2.28-6.09,2.61-7.4,1.31-17.4-3.92-17.84-14.8-.43-10.88,10.44-15.66,17.4-15.66,11.75.44,16.1,9.57,16.1,14.8v15.23h-7.39v-15.23c0-3.48-1.74-11.75-9.13-11.75s-9.57,6.96-9.57,11.75c0,3.48.87,11.31,9.13,11.75,2.6,0,6.09-.44,7.4-1.31v2.61s0,0,0,0Z" style="stroke-width:0px;"/><path d="m35.45,29.95c-1.22,4.16-1.47,5.15-2.2,7.35-.49,1.71-1.47,2.45-2.69,2.45-.98,0-1.96-.49-2.69-1.46-2.2-2.69-5.15-6.62-6.86-8.82-2.2-2.45-7.35-4.66-10.04-1.46-3.67,4.66.73,10.04,3.43,13.23.25.25.49.49.49.73.49.73,1.22,1.22,1.71,1.96,1.22,1.47,2.45,2.45,1.71,3.43-.25.49-.98.73-1.71.73-1.96,0-8.34-1.71-9.8-1.96-1.22-.25-2.2-.25-2.69.73-.49,1.22,1.22,4.41,5.39,6.62,4.16,2.2,11.02,3.18,11.51,3.43,2.45.49,1.96,1.71,1.47,2.45l-.49.48c-.49.49-.73.73-.73,1.22.24,1.47,3.67,1.96,5.63,2.2s4.41.49,6.13-.25,1.71-1.71,2.94-2.2,1.71-.24,3.18,0c.49.24,1.22.24,2.2.49,2.2.49,5.88,0,8.08-.73,3.92-1.22,5.63-2.69,5.63-3.18s-.73-.73-1.46-.73c-.73-.25-3.67-.73-4.66-1.22-.98-.73-.25-1.71,1.71-2.45s8.34-3.43,10.78-5.63,4.66-5.88,2.69-7.84c-1.71-1.96-4.66-.49-6.62.49-.25.24-.49.24-.73.49-2.45,1.22-6.62,3.43-8.08,3.67-1.22.24-3.43.24-2.45-2.69,1.22-3.43,1.96-5.63,2.69-7.84.98-2.69,2.45-9.06-3.92-11.02-4.66-1.72-7.85,2.2-9.55,7.35h0Zm-5.88,1.96s1.95-6.62,3.43-9.55c2.45-4.9,6.86-7.36,11.51-7.36.73,0,1.47,0,1.96.24,9.55,1.71,9.8,11.51,9.06,14.95-.73,3.18-1.96,6.37-2.2,7.35v.24c.73-.24,4.16-1.96,7.84-3.67,3.67-1.46,10.29-1.46,8.57,5.88-1.71,7.6-10.29,12-11.26,12.25-.73.49-1.96.98-2.2,1.22s-.24.25,0,.25.49,0,.98.24c1.22,0,2.94.25,2.94,1.22,0,1.47-2.2,3.67-8.33,6.37-6.37,2.94-11.76,1.46-13.23,1.22h0c-.49.49-3.43,3.43-11.76,1.71-6.13-.98-7.6-1.71-9.06-3.43-.49-.49-.73-1.22-.25-2.45.25-.25.25-.49,0-.49-9.31-1.96-14.94-7.84-16.9-11.51-.98-1.96-.73-3.18-.25-3.92.73-1.22,3.18-1.22,5.63-.49,2.94.73,4.41,1.22,4.9,1.22.17,0,.17-.08,0-.24-.73-.98-3.18-4.16-4.41-6.13-2.2-3.43-4.9-12.25,2.2-15.93,7.6-4.16,14.46,3.18,15.93,4.9,1.22,1.71,3.92,5.15,4.16,5.63.49.73.73.25.73.25h0v.04Z" style="stroke-width:0px;"/></svg>