<?xml version="1.0" encoding="utf-8"?>
<!-- Generator: Adobe Illustrator 23.0.6, SVG Export Plug-In . SVG Version: 6.00 Build 0)  -->
<svg version="1.1" id="Camada_1" xmlns="http://www.w3.org/2000/svg" xmlns:xlink="http://www.w3.org/1999/xlink" x="0px" y="0px"
	 viewBox="0 0 300 120" style="enable-background:new 0 0 300 120;" xml:space="preserve">
<title>netflix</title>
<path d="M0,19.5c4.1-0.1,8.3-0.1,12.4,0c4.6,13.2,9.5,26.4,14.2,39.6c0.6,2.1,1.5,4.1,2.5,6c-0.7-15.2-0.1-30.4-0.4-45.7
	c4.3-0.1,8.5,0,12.8,0c-0.1,25.3-0.1,50.6,0,75.9c-4.6,0.4-9.2,1-13.8,1.6C22.6,82.9,18.3,68.8,12.9,55c-0.1,0.4-0.3,1.2-0.3,1.5
	l0.6,0.3c0,13.9-0.1,27.7,0.1,41.6c-4.4,0.9-8.9,1.1-13.2,2.3V19.5z"/>
<path d="M53.5,19.4c11.7,0.1,23.4,0,35.1,0c-0.1,4.3-0.1,8.6,0,13c-7.4-0.1-14.9,0-22.3-0.1c0,5.7,0.1,11.3-0.1,17
	c5.7,0,11.4-0.1,17.1-0.1c0.1,4.1-0.1,8.2,0.1,12.3c-5.7,0.2-11.5,0.1-17.2,0.2c0.1,6.2,0.2,12.5-0.1,18.7c7.5-0.4,15-1.1,22.5-1.4
	c0,4.2,0,8.3,0,12.5c-11.6,0.7-23.3,1.3-34.8,2.8C53.2,69.3,53.7,44.3,53.5,19.4z"/>
<path d="M96.4,19.5c13-0.1,26.1,0,39.1-0.1c0,4.3,0,8.7,0,13c-4.4-0.1-8.8,0-13.2-0.1c0.1,19.3,0,38.6,0.1,57.8
	c-4.3,0.1-8.5,0.1-12.7,0.4c0.1-19.4,0-38.8,0-58.3c-4.4,0.1-8.8,0-13.2,0.1C96.6,28.1,96.6,23.8,96.4,19.5z"/>
<path d="M143.5,19.4c11.7-0.1,23.5,0.1,35.2-0.1c0.1,4.3-0.1,8.6,0.1,13c-7.5,0.1-15.1,0.1-22.6,0c-0.1,5.5,0,10.9,0,16.3
	c5.7-0.1,11.4,0,17.1-0.1c-0.1,4.2,0,8.4,0,12.6c-5.7,0-11.4,0-17.1,0c0.1,9.5-0.1,19,0.2,28.5c-4.3,0.3-8.5,0-12.8,0.2
	C143.4,66.3,143.6,42.9,143.5,19.4z"/>
<path d="M186.6,19.4c4.3-0.1,8.6-0.2,12.9,0c-0.3,19.7,0,39.3-0.2,59c7.3,0.2,14.5,0.7,21.8,1.3c-0.8,4.2,0.5,8.6-0.6,12.6
	c-11.2-1.2-22.6-1.4-33.8-1.9C186.8,66.7,186.8,43.1,186.6,19.4z"/>
<path d="M231.3,19.4c4.2,0,8.4,0.1,12.5,0c0.1,24.8,0,49.7,0.1,74.5c-4.2-0.4-8.5-0.5-12.7-1.2C231.4,68.3,231.3,43.8,231.3,19.4z"
	/>
<path d="M254.4,19.4c4.6,0.2,9.3-0.4,13.8,0.3c2.9,7,5.5,14.1,8.2,21.1c3.4-7,6.2-14.3,9.4-21.4c4.8,0,9.5,0.1,14.3-0.1v1.2
	l-1.6,0.9c-0.9,3-2,5.9-3.4,8.6c-4,9.3-8,18.7-12,27.9c5.7,14.1,10.9,28.3,16.6,42.4l0.5-1.4v1.8c-4.8-1.2-9.8-1.5-14.7-2.4
	c-3.7-7.6-6.1-15.9-9.5-23.7c-3.1,7.3-6,14.6-9.4,21.7c-4.3-0.8-8.8-1-13.1-1.6c5.5-12.2,10.6-24.7,16.1-37
	C264.3,45,259.5,32.1,254.4,19.4z"/>
</svg>
