<?xml version="1.0" encoding="UTF-8" standalone="no"?>
<!-- Uploaded to: SVG Repo, www.svgrepo.com, Generator: SVG Repo Mixer Tools -->

<svg fill="#000000" width="32" height="32" viewBox="0 0 0.96 0.96" role="img" version="1.1" id="svg1" sodipodi:docname="netflix-svgrepo-com (1).svg" inkscape:version="1.4-beta2 (9aaf4f34, 2024-07-30)" xmlns:inkscape="http://www.inkscape.org/namespaces/inkscape" xmlns:sodipodi="http://sodipodi.sourceforge.net/DTD/sodipodi-0.dtd" xmlns="http://www.w3.org/2000/svg" xmlns:svg="http://www.w3.org/2000/svg" xmlns:rdf="http://www.w3.org/1999/02/22-rdf-syntax-ns#" xmlns:cc="http://creativecommons.org/ns#" xmlns:dc="http://purl.org/dc/elements/1.1/">
  <defs id="defs1" />
  <sodipodi:namedview id="namedview1" pagecolor="#ffffff" bordercolor="#000000" borderopacity="0.25" inkscape:showpageshadow="2" inkscape:pageopacity="0.0" inkscape:pagecheckerboard="0" inkscape:deskcolor="#d1d1d1" inkscape:zoom="0.0325" inkscape:cx="400" inkscape:cy="384.61538" inkscape:window-width="1440" inkscape:window-height="790" inkscape:window-x="0" inkscape:window-y="0" inkscape:window-maximized="1" inkscape:current-layer="svg1" />
  <title id="title1">Netflix icon</title>
  <g id="g1" transform="matrix(0.04000656,0,0,0.04000656,-1.3251175e-4,3.9698207e-8)">
    <path d="m 5.39,0.004 4.75,13.46 v -0.007 l 0.376,1.06 c 2.088,5.908 3.21,9.075 3.216,9.082 0.004,0 0.32,0.02 0.702,0.04 1.156,0.05 2.59,0.18 3.676,0.31 0.25,0.03 0.466,0.04 0.48,0.03 l -4.71,-13.36 -0.436,-1.23 -2.423,-6.85 c -0.46,-1.3 -0.85,-2.408 -0.87,-2.45 L 10.12,0 H 5.395 Z m 8.508,0.008 -0.01,5.306 -0.008,5.306 -0.437,-1.232 V 9.39 L 12.878,21.2 c 0.555,1.567 0.852,2.403 0.855,2.407 0.004,0.004 0.32,0.024 0.702,0.042 1.157,0.05 2.59,0.18 3.68,0.31 0.25,0.03 0.467,0.04 0.48,0.03 0.013,-0.01 0.02,-5.42 0.017,-12.01 L 18.604,0.01 H 13.898 Z M 5.39,0.002 v 11.99 c 0,6.594 0.007,11.995 0.015,12.003 0.008,0.008 0.416,-0.03 0.907,-0.086 0.49,-0.06 1.17,-0.13 1.51,-0.16 0.518,-0.05 2.068,-0.15 2.248,-0.15 0.052,0 0.056,-0.27 0.063,-5.08 l 0.008,-5.08 0.38,1.06 0.13,0.376 0.57,-11.8 -0.19,-0.546 -0.88,-2.44 -0.03,-0.087 H 5.39 Z" id="path1" />
  </g>
  <metadata id="metadata1">
    <rdf:RDF>
      <cc:Work rdf:about="">
        <dc:title>Netflix icon</dc:title>
      </cc:Work>
    </rdf:RDF>
  </metadata>
</svg>
