<?xml version="1.0" encoding="UTF-8" standalone="no"?>
<svg viewBox="5 7.9999995 32 32" version="1.1" id="svg4" sodipodi:docname="netshoes.svg" width="32" height="32" inkscape:version="1.4-beta2 (9aaf4f34, 2024-07-30)" xmlns:inkscape="http://www.inkscape.org/namespaces/inkscape" xmlns:sodipodi="http://sodipodi.sourceforge.net/DTD/sodipodi-0.dtd" xmlns="http://www.w3.org/2000/svg" xmlns:svg="http://www.w3.org/2000/svg">
  <defs id="defs4" />
  <sodipodi:namedview id="namedview4" pagecolor="#ffffff" bordercolor="#000000" borderopacity="0.25" inkscape:showpageshadow="2" inkscape:pageopacity="0.0" inkscape:pagecheckerboard="0" inkscape:deskcolor="#d1d1d1" inkscape:zoom="6.9916714" inkscape:cx="20.166852" inkscape:cy="9.5113166" inkscape:window-width="1440" inkscape:window-height="790" inkscape:window-x="0" inkscape:window-y="0" inkscape:window-maximized="1" inkscape:current-layer="svg4" />
  <g fill="#fff" id="g4" style="fill:#000000" transform="matrix(2.7766587,0,0,2.7766587,-8.8832936,-9.0070199)">
    <path d="m 10.069288,10.699013 c 0,-0.08409 -0.02829,-0.126135 -0.1199373,-0.126135 -0.077175,0 -0.1054666,0.03484 -0.1336652,0.126135 L 9.0134158,13.55216 c -0.1690062,0.602953 -0.3656546,0.820294 -1.034259,0.820294 H 7.5008004 c -0.1550924,0 -0.1971121,-0.08409 -0.1478573,-0.252455 L 8.4013015,10.523718 C 8.6477612,9.6756094 8.98531,9.2760432 10.174661,9.2760432 c 0.830561,0 1.210408,0.1960868 1.231743,1.2337208 l 0.04925,2.551994 c 0,0.08381 0.02764,0.125858 0.119288,0.125858 0.07736,0 0.105467,-0.03484 0.133944,-0.125858 l 0.801991,-2.853609 c 0.168821,-0.6026762 0.366211,-0.8202938 1.034908,-0.8202938 h 0.478357 c 0.154814,0 0.196648,0.084275 0.14795,0.2526397 l -1.04873,3.5965581 c -0.246274,0.848109 -0.576866,1.24786 -1.75926,1.24786 -0.844661,0 -1.2246,-0.196549 -1.245749,-1.234091 z M 8.4155863,8 C 7.4162045,8 6.8953647,8.4697953 6.6208918,9.4441308 L 5.0375016,15.024383 c -0.1265229,0.455472 0.070311,0.750249 0.541896,0.750249 h 7.5298694 c 0.999475,0 1.520129,-0.469426 1.794324,-1.444223 l 1.58339,-5.580252 C 16.613875,8.2943151 16.416855,8 15.945178,8 Z" id="path4" style="fill:#000000" />
  </g>
</svg>
