<svg id="Layer_1" data-name="Layer 1" xmlns="http://www.w3.org/2000/svg" viewBox="0 0 300 120"><defs><style>.cls-1{fill:#fff;}</style></defs><title>new-york-times</title><path class="cls-1" d="M23,43.7c0-3.3-3.1-4.3-5.8-4.2v.3c1.6.2,2.8.8,2.8,1.8a1.87,1.87,0,0,1-2.1,1.7,19.93,19.93,0,0,1-5.3-1.4,21.9,21.9,0,0,0-5.8-1.4A5.68,5.68,0,0,0,1,46a3.74,3.74,0,0,0,2.6,3.6l.1-.2c-.4-.2-.7-.6-.7-1.7a2.1,2.1,0,0,1,2.3-2.1c1.5,0,3.5.7,6.2,1.4a45.94,45.94,0,0,0,6.2,1.4v5.4L15.1,56l2.6,2.2v7.4a8.35,8.35,0,0,1-4.2,1A8,8,0,0,1,6.9,64l7-3.4V48.8L5.4,52.6a10.8,10.8,0,0,1,4.4-5l-.1-.2c-5,1.4-9.7,6-9.7,11.8A11.78,11.78,0,0,0,11.8,71.1a10.54,10.54,0,0,0,10.8-11h-.2a12.16,12.16,0,0,1-4.6,5.4V58.3l2.7-2.2L17.9,54V48.6c2.6-.1,5.1-1.8,5.1-4.9ZM8.7,62.6l-2,1a10.8,10.8,0,0,1-2-6.6,12.72,12.72,0,0,1,.6-3.9l3.5-1.6L8.7,62.6Zm31.9-9.4-1.4,1-4-3.6-4.7,3.6V40.3l-6.4,4.4A2,2,0,0,1,25.7,47V66.4L23.6,68l.2.2,1.1-.8,3.8,3.4,5.1-3.4-.2-.3-1.3.9-1.8-1.8V54.7l1.2-.9,2.8,2.4V66.4c0,6.4-1.4,7.8-4.3,8.8v.2c4.8.2,9.1-1.4,9.1-9.7v-11l1.4-1.2-.1-.3Zm8.6,17.6,7.4-5.9-.2-.3-3.8,3L48,64.2V62l7.7-5.4-3.8-6-8.6,4.7V66.4l-1.7,1.3.2.2,1.6-1.3,5.8,4.2ZM48,61.6V53.2L51.7,59,48,61.6ZM87.1,42.1a9,9,0,0,0-.3-1.6h-.2c-.6,1.4-1.1,2.2-2.7,2.2a4.84,4.84,0,0,1-3.2-1.5c0,.1-4.9,5.6-4.9,5.6l.2.2,1.4-1.6a6,6,0,0,0,4.3,1.8V61.4L71.9,44.2c-.8-1.3-2.1-3.2-4.4-3.2-2.6,0-4.7,2.3-4.4,6.2h.2c.2-1,.8-2.2,1.9-2.2s1.7.9,2.2,1.7v5.5c-3,0-4.8,1.4-4.8,3.8,0,1,.7,3.2,2.8,3.5v-.2a1.52,1.52,0,0,1-.6-1.1c0-1,.7-1.4,1.9-1.4.2,0,.5.1.6.1V64c-3.6.1-6.4,2-6.4,5.4,0,3.2,2.8,4.7,5.7,4.6v-.2c-1.8-.2-2.7-1.1-2.7-2.5a2.16,2.16,0,0,1,2.4-2.2c1.4,0,2.3.9,3.2,1.8l4.9-5.4-.2-.2-1.3,1.4A8.28,8.28,0,0,0,67.7,64V47L81.4,70.8h.7V47.2a5.1,5.1,0,0,0,5-5.1Zm4.7,28.7,7.4-5.9-.2-.3-3.8,3-4.5-3.5V62l7.7-5.4-3.8-6L86,55.3V66.4l-1.7,1.3.2.2,1.6-1.3,5.7,4.2Zm-1.2-9.2V53.2L94.3,59l-3.7,2.6Zm34.8-9.1-1.1.9-3.2-2.7-3.8,3.4,1.5,1.4V68.1L115,65.5V55.2l1.4-1-3.9-3.7-3.7,3.4,1.5,1.4V67.5l-.2.2-3.6-2.6v-10c0-2.3-1.2-3-2.6-3.9s-1.9-1.5-1.9-2.6a2.24,2.24,0,0,1,1.5-2c-1.3-.1-4.9,1.3-5,4.6-.1,1.7.8,2.4,1.6,3.2a3.88,3.88,0,0,1,1.7,3v9.8L100,68.6l.2.2,1.7-1.3,4.3,3.5,4.2-2.9L115,71l8.9-5.3V54.3l2-1.5-.5-.3Zm29.7-9.6-1.7,1.5-3.8-3.3-5.1,4.2V41.5h-.3V69.3c-.6-.1-1.8-.4-3-.6V45.4a4,4,0,0,0-4.2-4,5,5,0,0,0-5,4.8h.2c.2-1,.9-1.9,1.8-1.9s1.9.6,1.9,2.9v6.6c-2.9.2-4.6,1.9-4.6,3.8a3.1,3.1,0,0,0,2.9,3.2v-.2c-.7-.3-.9-.7-.9-1.1,0-1,1-1.3,2.2-1.3h.3V68.8c-2.5.9-3.6,2.5-3.6,4.6,0,2.8,2.2,5,5.6,5a25.79,25.79,0,0,0,6.2-.9,27.79,27.79,0,0,1,4.6-.8c1.3,0,1.8.6,1.8,1.5,0,1.2-.5,1.8-1.1,2v.2c2.8-.6,4.4-2.2,4.4-4.6,0-2.6-2.5-4.2-5.2-4.2a33.28,33.28,0,0,0-6.1,1,24.31,24.31,0,0,1-5.1.8c-1.2,0-2.6-.6-2.6-2.1s1.2-2.6,4.1-2.6a18.76,18.76,0,0,1,5,.7,21.4,21.4,0,0,0,5.3,1c2.5,0,4.5-.9,4.5-4.5V44.8l1.8-1.7-.3-.2ZM148.2,54a2.43,2.43,0,0,1-1.8.9,2.24,2.24,0,0,1-1.8-.9V45.7l1.2-1,2.5,2.1V54Zm0,4a2.54,2.54,0,0,0-1.8-.8,2.76,2.76,0,0,0-1.8.8V54.5a3,3,0,0,0,1.8.8,2.54,2.54,0,0,0,1.8-.8V58Zm0,8.4c0,1.4-.7,2.9-2.5,2.9-.3,0-1-.1-1.2-.1V58.4a2.61,2.61,0,0,1,1.8-.9,2.27,2.27,0,0,1,1.8.9v8Zm14.4,4.4,8.2-5.1V54.5l-5.4-3.9-8.2,4.7V66.4l-1.6,1.3.2.2,1.4-1.1,5.4,4Zm-.6-5.7v-12l4.2,3V68L162,65.1Zm24.6-14.3a2.74,2.74,0,0,1-1.8.7,2.39,2.39,0,0,1-1.8-1c0,.1-3,3.3-3,3.3l-3-3.3-5,3.4.2.3,1.4-.9,1.8,2V66.2L173,68l.2.2,1.1-.8,4.1,3.4,5.2-3.4-.2-.2L182,68l-2.1-1.9V54.2c.9,1,1.8,1.8,3,1.8,2,0,3.4-2.5,3.7-5.2Zm19.5,16.1-1.5,1L196,55.2l.5-.6c1,.6,1.8,1.4,3.5,1.4s4-1.8,4.2-5.3a3.6,3.6,0,0,1-2.8,1.4,4,4,0,0,1-2.7-1.4l-5.8,8.6,7.7,11.8,5.6-3.7-.1-.5Zm-10.4.3-1.3.9-1.8-1.8v-26l-6.4,4.4a2,2,0,0,1,1.6,2.3V66.4l-2.2,1.7.2.2,1.1-.8,3.8,3.4,5.1-3.4-.1-.3Zm37.5-23.5c0-3.3-3.1-4.3-5.8-4.2v.3c1.6.2,2.8.8,2.8,1.8a1.87,1.87,0,0,1-2.1,1.7,19.93,19.93,0,0,1-5.3-1.4,21.9,21.9,0,0,0-5.8-1.4,5.62,5.62,0,0,0-5.8,5.5,3.74,3.74,0,0,0,2.6,3.6l.1-.2c-.5-.3-.8-.7-.8-1.8a2.1,2.1,0,0,1,2.3-2.1c1.5,0,3.5.7,6.2,1.4a45.94,45.94,0,0,0,6.2,1.4v5.4l-2.6,2.2,2.6,2.2v7.4a8.35,8.35,0,0,1-4.2,1,8.54,8.54,0,0,1-6.6-2.7l7-3.4V48.8l-8.6,3.8a10.8,10.8,0,0,1,4.4-5l-.1-.2c-5,1.4-9.7,6-9.7,11.8a11.78,11.78,0,0,0,11.8,11.9,10.54,10.54,0,0,0,10.8-11h-.2a12.16,12.16,0,0,1-4.6,5.4V58.3l2.7-2.2-2.7-2.2V48.5c2.8,0,5.4-1.7,5.4-4.8ZM218.8,62.6l-2,1a10.8,10.8,0,0,1-2-6.6,12.72,12.72,0,0,1,.6-3.9l3.5-1.6-.1,11.1Zm19.6-20.2-3.5,3,3,3.4,3.5-3-3-3.4Zm5.4,24.8-1.3.9-1.8-1.8V54.6l1.5-1.2-.2-.2-1.3,1-3-3.5L233,54l.2.3,1.2-.8,1.6,2V66.4l-2.2,1.7.2.2,1.1-.8,3.8,3.4,5.1-3.4-.2-.3Zm27.2-.1-1.2.8-1.9-1.8V54.6l1.5-1.2-.2-.2-1.4,1-4-3.6-4.6,3.5-4-3.5-4.5,3.5-3-3.5L242.8,54l.2.3,1.2-.8,1.8,2V66.3l-1.4,1.4,3.8,3.3,3.8-3.4-1.5-1.4V54.5l1-.7,2.8,2.4V66.3l-1.3,1.4,3.9,3.3,3.7-3.4-1.5-1.4V54.5l1-.8,2.8,2.5v9.9L262,67.3l3.9,3.6,5.2-3.5-.1-.3Zm14.2-2.4-3.8,3-4.5-3.5V62l7.7-5.4-3.8-6-8.6,4.7V66.7l5.8,4.2,7.4-5.9-.2-.3Zm-8.3-3.1V53.2l3.7,5.8-3.7,2.6ZM300,60l-3.3-2.5a8.24,8.24,0,0,0,3-6.1c0-.2-.1-.7-.1-1.1h-.2a2.56,2.56,0,0,1-2.5,1.7,3.74,3.74,0,0,1-2.9-1.6l-7.5,4.2v6.1l2.9,2.2c-2.9,2.6-3.4,4.2-3.4,5.6a3.55,3.55,0,0,0,2.3,3.3l.2-.2a1.43,1.43,0,0,1-.7-1.3,1.62,1.62,0,0,1,1.8-1.4,4.07,4.07,0,0,1,3.2,1.8c0-.1,7.2-4.4,7.2-4.4V60Zm-1.7-5c-1.1,2-3.6,4-5.1,5.1l-1.8-1.5V52.7a4.7,4.7,0,0,0,4.2,3,7.67,7.67,0,0,0,2.7-.7Zm-3.1,13.3a5.32,5.32,0,0,0-4.7-3.3,5.47,5.47,0,0,0-3.3.8,19.3,19.3,0,0,1,6-5.4l2,1.7v6.2Z"/></svg>