<?xml version="1.0" encoding="UTF-8"?><svg id="a" xmlns="http://www.w3.org/2000/svg" viewBox="0 0 191.91 80"><defs><style>.b{stroke-width:0px;}</style></defs><path class="b" d="m141.6,27.05h.02c2.18-2.18,2.18-5.73,0-7.9s-5.73-2.18-7.9,0l-12.82,12.82-7.92,7.92,7.9,7.88-7.92-7.88-12.8,12.8c-2.18,2.2-2.18,5.73,0,7.92,2.2,2.18,5.73,2.18,7.92,0l12.82-12.82.02.02h.01s12.81,12.8,12.81,12.8c2.15,2.18,5.73,2.18,7.88,0,2.18-2.2,2.18-5.73,0-7.92l-12.82-12.82h-.01s-.01,0-.01,0l12.82-12.82Z"/><path class="b" d="m0,23.23v33.44c0,3.09,2.52,5.59,5.56,5.59s5.59-2.52,5.59-5.59v-19.99L1.6,27.12c-1.08-1.08-1.6-2.52-1.6-3.89Z"/><path class="b" d="m170.07,17.68c-.18-.01-.36-.02-.53-.02.19,0,.36,0,.53.02Z"/><path class="b" d="m39.16,17.5c-3.07,0-5.59,2.52-5.59,5.61v20.11l9.48,9.55-9.48-9.5v-.05L10.04,19.71s-.02-.04-.04-.06l-.02.05-.13-.12c-1.01-1.21-2.53-2.08-4.29-2.08-3.09,0-5.56,2.52-5.56,5.61v.09c0,1.37.53,2.82,1.6,3.89l9.55,9.55v-13.56c0-1.21-.42-2.34-1.04-3.27.68.9,1.07,2.06,1.07,3.32v13.51l23.98,24.05c2.18,2.18,5.73,2.18,7.9,0,1.1-1.1,1.67-2.52,1.65-3.98,0,3.06-2.51,5.54-5.55,5.54,0,0,0,0,0,0,3.04,0,5.48-2.48,5.53-5.56,0-1.36-.52-2.79-1.57-3.86,1.11,1.09,1.62,2.49,1.64,3.88V23.11c0-3.09-2.52-5.61-5.59-5.61ZM.1,22.12c.2-1.06.69-2.09,1.51-2.9.07-.07.15-.11.22-.18-.07.07-.15.13-.22.2-.81.8-1.31,1.83-1.51,2.88Zm5.35-4.52c.08,0,.16,0,.24,0-.08,0-.16,0-.24,0Zm-3.11,1.02c.1-.07.19-.13.29-.19-.1.06-.19.13-.29.19Zm1.04-.59c.06-.02.11-.04.17-.07-.06.02-.11.04-.17.07Zm1.05-.33s.1-.02.15-.03c-.05,0-.1.02-.15.03Zm4.8,1.3c.08.07.18.13.26.21l.25.25-.25-.23c-.08-.08-.17-.16-.26-.23Zm-2.79-1.34c.13.02.27.05.4.08-.13-.03-.26-.06-.4-.08Zm.96.25c.18.06.35.14.53.22-.17-.08-.35-.15-.53-.22Zm.93.43c.19.11.37.23.55.37-.18-.13-.36-.26-.55-.37Z"/><path class="b" d="m57.83,28.11c.79.43,1.7.68,2.67.68h5.63v-.02h20.15c3.09,0,5.61-2.52,5.61-5.59s-2.52-5.59-5.61-5.59h-25.34l-.42-.02c-.6,0-1.18.1-1.72.27-2.27.71-3.91,2.84-3.91,5.34,0,.39.04.76.11,1.13v14.6c-.07.36-.11.74-.11,1.13,0,.28.03.56.07.83v15.11c-.04.26-.07.53-.07.8h0c0,.97.25,1.87.69,2.66.94,1.74,2.78,2.93,4.92,2.93h25.79c3.09,0,5.61-2.52,5.61-5.61s-2.52-5.59-5.61-5.59h-20.11v-5.54h20.11c3.09,0,5.61-2.52,5.61-5.59s-2.52-5.59-5.61-5.59h-20.15v-5.63h-5.63v-.02c-.98,0-1.88-.25-2.67-.68Zm2.69,34.2c3.09,0,5.61-2.51,5.61-5.58,0,3.09-2.52,5.58-5.61,5.58Zm-.02-11.08c-1.67,0-3.16.72-4.18,1.86,1.01-1.16,2.48-1.9,4.14-1.9h5.68v.05h-5.63Z"/><path class="b" d="m108.09,19.15c-2.22-2.18-5.73-2.18-7.95,0s-2.18,5.73,0,7.9l12.82,12.82,7.92-7.9-12.82-12.82h.02Z"/><path class="b" d="m170.61,17.75c2.59.53,4.58,2.79,4.58,5.5,0,3.11-2.52,5.61-5.61,5.61v-.02c3.09,0,5.56-2.52,5.56-5.59,0-2.7-1.95-4.97-4.53-5.5h-.02l.02-.02c-.19-.02-.36-.04-.54-.05.16.01.31.03.45.07-.32-.05-.69-.07-.98-.07-.04,0-.09,0-.13,0,.03,0,.06,0,.09,0l.02-.02c-.37,0-.69,0-1.08.09h.09c.15-.02.31-.04.48-.05-.16.01-.33.03-.48.07h-.09c-1.61.33-2.96,1.33-3.75,2.69.78-1.37,2.13-2.38,3.75-2.71-11.84.6-21.25,10.37-21.25,22.37s10.01,22.35,22.37,22.35v-.07c-3.09,0-5.63-2.52-5.63-5.59l.05-.02c0-2.86,2.13-5.27,4.92-5.54-5.86-.37-10.53-5.2-10.53-11.15s5.04-11.18,11.22-11.22v.05h-.05c6.18,0,11.18,5.04,11.18,11.22s-4.61,10.72-10.46,11.12c-.03,0-.05-.01-.07-.01h-.06c-.14-.04-.27-.04-.39-.04h0s-.02,0-.02,0h-.82s0,.05.05.05c-2.82.3-4.95,2.68-4.95,5.54,0,3.09,2.52,5.59,5.61,5.59s5.56-2.52,5.56-5.59c0-1.76-.82-3.33-2.1-4.36,1.32,1.02,2.17,2.61,2.17,4.38,0,3.09-2.52,5.59-5.61,5.59v.09c12.37,0,22.31-10.03,22.31-22.37v-.02c0-12-9.46-21.76-21.3-22.35Zm1.83,34.28c.12.07.23.14.35.22-.11-.08-.23-.15-.35-.22Zm-.75-.38s0,0,0,0c0,0,0,0,0,0Z"/></svg>