<?xml version="1.0" encoding="UTF-8" standalone="no"?>
<svg id="a" viewBox="0 0 32 32" version="1.1" sodipodi:docname="nexo.svg" width="32" height="32" inkscape:version="1.4-beta2 (9aaf4f34, 2024-07-30)" xmlns:inkscape="http://www.inkscape.org/namespaces/inkscape" xmlns:sodipodi="http://sodipodi.sourceforge.net/DTD/sodipodi-0.dtd" xmlns="http://www.w3.org/2000/svg" xmlns:svg="http://www.w3.org/2000/svg">
  <defs id="defs7" />
  <sodipodi:namedview id="namedview7" pagecolor="#ffffff" bordercolor="#000000" borderopacity="0.25" inkscape:showpageshadow="2" inkscape:pageopacity="0.0" inkscape:pagecheckerboard="0" inkscape:deskcolor="#d1d1d1" inkscape:zoom="0.72463176" inkscape:cx="150.42123" inkscape:cy="113.85093" inkscape:window-width="1440" inkscape:window-height="790" inkscape:window-x="0" inkscape:window-y="0" inkscape:window-maximized="1" inkscape:current-layer="a" />
  <g id="g7" transform="matrix(0.80311206,0,0,0.80311206,0.03413225,-16.05421)">
    <path d="m 0,25.09 v 29.72 c 0,2.75 2.24,4.97 4.94,4.97 2.7,0 4.97,-2.24 4.97,-4.97 V 37.05 L 1.42,28.55 C 0.46,27.59 0,26.31 0,25.09 Z" style="stroke-width:0px" id="path2" />
    <path d="m 34.8,20 c -2.73,0 -4.97,2.24 -4.97,4.99 v 17.87 l 8.42,8.49 -8.42,-8.44 V 42.87 L 8.92,21.96 c 0,0 -0.02,-0.04 -0.04,-0.05 L 8.86,21.95 8.74,21.84 c -0.9,-1.08 -2.25,-1.85 -3.81,-1.85 -2.75,0 -4.94,2.24 -4.94,4.99 v 0.08 c 0,1.22 0.47,2.51 1.42,3.46 L 9.9,37.01 V 24.96 c 0,-1.08 -0.37,-2.08 -0.92,-2.91 0.6,0.8 0.95,1.83 0.95,2.95 v 12.01 l 21.31,21.37 c 1.94,1.94 5.09,1.94 7.02,0 0.98,-0.98 1.48,-2.24 1.47,-3.54 0,2.72 -2.23,4.92 -4.93,4.92 v 0 c 2.7,0 4.87,-2.2 4.91,-4.94 0,-1.21 -0.46,-2.48 -1.4,-3.43 0.99,0.97 1.44,2.21 1.46,3.45 V 24.98 c 0,-2.75 -2.24,-4.99 -4.97,-4.99 v 0 z M 0.09,24.11 c 0.18,-0.94 0.61,-1.86 1.34,-2.58 0.06,-0.06 0.13,-0.1 0.2,-0.16 -0.06,0.06 -0.13,0.12 -0.2,0.18 -0.72,0.71 -1.16,1.63 -1.34,2.56 z M 4.84,20.09 H 5.05 Z M 2.08,21 C 2.17,20.94 2.25,20.88 2.34,20.83 2.25,20.88 2.17,20.95 2.08,21 Z M 3,20.48 C 3.05,20.46 3.1,20.44 3.15,20.42 3.1,20.44 3.05,20.46 3,20.48 Z m 0.93,-0.29 c 0,0 0.09,-0.02 0.13,-0.03 -0.04,0 -0.09,0.02 -0.13,0.03 z m 4.27,1.16 c 0.07,0.06 0.16,0.12 0.23,0.19 l 0.22,0.22 -0.22,-0.2 C 8.36,21.49 8.28,21.42 8.2,21.36 Z M 5.72,20.16 C 5.84,20.18 5.96,20.2 6.08,20.23 5.96,20.2 5.85,20.18 5.72,20.16 Z m 0.85,0.22 c 0.16,0.05 0.31,0.12 0.47,0.2 -0.15,-0.07 -0.31,-0.13 -0.47,-0.2 z m 0.83,0.38 c 0.17,0.1 0.33,0.2 0.49,0.33 C 7.73,20.97 7.57,20.86 7.4,20.76 Z" style="stroke-width:0px" id="path4" />
  </g>
</svg>
