<svg viewBox="0 0 244 80" fill="currentColor" version="1.1" xmlns="http://www.w3.org/2000/svg">
  <g id="g1" transform="matrix(2.5095023,0,0,2.5095023,0.47986062,10.000309)">
    <path d="M 17.945,14.157 13.095,6.319 H 9.609 V 17.59 h 3.486 V 9.752 l 4.85,7.838 h 3.456 V 6.32 h -3.486 z m 27.554,-4.04 V 8.993 H 43.68 v -1.52 h -3.395 v 1.52 h -1.849 v 1.124 h 1.85 V 17.59 H 43.68 V 10.117 H 45.5 Z M 23.341,17.56 h 3.364 v -7.474 h -3.364 z m 0,-8.932 h 3.395 V 6.319 H 23.34 v 2.309 z m 59.17,0.942 c -2.728,0 -4.941,1.883 -4.941,4.192 0,2.309 2.213,4.193 4.94,4.193 2.729,0 4.942,-1.884 4.942,-4.193 0,-2.309 -2.213,-4.192 -4.941,-4.192 z m 1.364,5.772 c 0,1.185 -0.698,1.67 -1.364,1.67 -0.667,0 -1.395,-0.485 -1.395,-1.67 v -3.16 c 0,-1.184 0.697,-1.67 1.395,-1.67 0.666,0 1.364,0.486 1.364,1.67 z m -10.73,-4.891 c -0.547,-0.304 -1.123,-0.608 -1.91,-0.669 -2.426,-0.212 -4.305,1.945 -4.305,3.92 0,2.612 2,3.554 2.304,3.706 1.152,0.516 2.607,0.547 3.88,-0.274 v 0.426 h 3.334 V 6.32 h -3.334 c 0.03,0 0.03,2.4 0.03,4.13 z m 0.03,3.342 v 1.336 c 0,1.155 -0.789,1.458 -1.334,1.458 -0.546,0 -1.334,-0.303 -1.334,-1.458 v -2.673 c 0,-1.155 0.788,-1.458 1.334,-1.458 0.515,0 1.333,0.303 1.333,1.458 v 1.337 z M 34.616,9.752 c -1.122,0.03 -2.031,0.516 -2.698,1.124 v -0.79 h -3.365 v 7.474 h 3.365 v -4.922 c 0,-0.638 0.697,-1.367 1.607,-1.367 0.909,0 1.546,0.73 1.546,1.367 v 4.922 h 3.364 v -4.071 c 0,-2.947 -2.546,-3.798 -3.82,-3.737 z m 27.433,0 c -1.00738,0.028161 -1.968592,0.428607 -2.698,1.124 v -0.79 h -3.365 v 7.474 h 3.365 v -4.922 c 0,-0.638 0.697,-1.367 1.606,-1.367 0.91,0 1.546,0.73 1.546,1.367 v 4.922 h 3.365 v -4.071 c 0,-2.947 -2.546,-3.798 -3.82,-3.737 z m -7.063,4.101 c 0,-2.309 -2.243,-4.253 -4.971,-4.253 -2.759,0 -4.972,1.884 -4.972,4.193 0,2.308 2.213,4.192 4.972,4.192 2.273,0 4.213,-1.306 4.789,-3.068 H 51.44 v 0.455 c 0,1.367 -0.91,1.671 -1.394,1.671 -0.515,0 -1.425,-0.304 -1.425,-1.67 v -1.55 l 6.366,0.03 z M 48.863,11.21 c 0.251199,-0.412887 0.698707,-0.665794 1.182,-0.668 0.455,0 0.91,0.213 1.182,0.668 0.212,0.365 0.212,0.82 0.212,1.458 H 48.62 c 0,-0.637 0.03,-1.063 0.243,-1.458 z M 87.935,6.41 C 0,0 0,0 87.935,6.41 Z M 84.148,0 H 12.64 C 5.062,-0.03 0,5.438 0,11.97 0,18.5 5.062,23.909 12.67,23.909 h 71.508 c 7.608,0 12.67,-5.408 12.67,-11.94 C 96.818,5.44 91.726,0 84.148,0 Z m -0.03,20.993 H 12.671 c -6.033,0.03 -9.7,-4.041 -9.7,-9.023 0,-4.983 3.698,-8.993 9.7,-9.023 h 71.446 c 6.002,0 9.7,4.04 9.7,9.023 0,4.982 -3.668,9.023 -9.7,9.023 z" fill="currentColor" id="path1" />
  </g>
</svg>
