<svg width="32" height="32" xmlns="http://www.w3.org/2000/svg">
  <path d="M0 2.563C.248 1.727.776.887 1.656.63A3.365 3.365 0 0 1 4.113.84c1.664 1 1.556 3.893-.236 4.705A2.8 2.8 0 0 1 0 3.73ZM12.831 6.452a8.59 8.59 0 0 1 2.305-.224c3.06.024 6.125 0 9.202 0 4.001.132 7.482 3.649 7.638 7.634q.048 4.993 0 9.982a8.222 8.222 0 0 1-7.602 7.646c-3.153.044-6.313 0-9.47.02a8.218 8.218 0 0 1-6.802-3.557 8.718 8.718 0 0 1-1.476-5.133c.02-2.913-.04-5.825.028-8.73a8.246 8.246 0 0 1 6.177-7.602m-1.112 3.777a3.285 3.285 0 0 0 1.824 6.281c1.885-.328 3.201-2.508 2.465-4.313a3.297 3.297 0 0 0-4.29-1.968m10.576 8.082A5.277 5.277 0 0 0 23.53 28.75c2.953.072 5.55-2.73 5.277-5.662-.184-3.109-3.485-5.581-6.513-4.741Z"/>
</svg>