<svg id="Camada_1" data-name="Camada 1" xmlns="http://www.w3.org/2000/svg" viewBox="0 0 300 120"><title>nuget</title><path d="M0,20.37c.62-2.09,1.94-4.19,4.14-4.83a8.41,8.41,0,0,1,6.14.52c4.16,2.5,3.89,9.73-.59,11.76A7,7,0,0,1,0,23.29Z"/><path d="M32.07,30.09a21.47,21.47,0,0,1,5.76-.56c7.65.06,15.31,0,23,0,10,.33,18.7,9.12,19.09,19.08q.12,12.48,0,24.95a20.55,20.55,0,0,1-19,19.11c-7.88.11-15.78,0-23.67.05a20.54,20.54,0,0,1-17-8.89A21.79,21.79,0,0,1,16.56,71c.05-7.28-.1-14.56.07-21.82a20.61,20.61,0,0,1,15.44-19m-2.78,9.44a8.21,8.21,0,0,0,4.56,15.7c4.71-.82,8-6.27,6.16-10.78a8.24,8.24,0,0,0-10.72-4.92M55.72,59.82a13.19,13.19,0,0,0,3.09,26C66.19,86,72.68,79,72,71.67,71.54,63.9,63.29,57.72,55.72,59.82Z"/><path d="M285.59,35.66l3.87-1.29c0,3.85,0,7.71,0,11.57H300c0,1.19,0,2.37,0,3.55H289.47c0,9.19,0,18.37,0,27.55.06,2.32.74,5.3,3.29,6,2.44,1,5-.14,7.23-1-.05,1.21-.08,2.42-.11,3.63-3.43,1.37-7.62,1.88-10.82-.3-2.82-2.07-3.36-5.82-3.47-9.07-.06-8.93,0-17.87,0-26.8h-7.09V45.94h7.09C285.58,42.52,285.58,39.08,285.59,35.66Z"/><path d="M117.4,53.21c2-3.51,5.07-6.58,9.07-7.59,4.48-1,9.8-.87,13.39,2.37s4.65,8.65,4.73,13.45c.14,8.18,0,16.37.06,24.55h-3.89q0-12.26,0-24.52c-.1-3.78-.83-7.94-3.67-10.68-3-2.74-7.67-2.85-11.31-1.41-5.3,2.14-8.36,7.95-8.32,13.51,0,7.7,0,15.4,0,23.1h-3.71q0-20,0-40h3.72C117.45,48.37,117.46,50.79,117.4,53.21Z"/><path d="M203.19,49c4.44-4,11.05-4.85,16.66-3.22a13.9,13.9,0,0,1,7.47,6.24c0-2,0-4.07,0-6.12h3.89c0,11.5,0,23,0,34.5,0,6.2-.21,13-4.13,18.15-3.61,4.71-9.87,6.17-15.51,6.19a26.63,26.63,0,0,1-12.64-3c0-1.33,0-2.65,0-4,4.5,2.44,9.63,4.16,14.81,3.44,4.65-.4,9.48-2.7,11.56-7.08,2.49-4.58,2-9.94,2.06-15-2.08,3.11-4.91,5.92-8.59,7-5.71,1.78-12.57.93-16.91-3.45-4.41-4.2-5.75-10.59-5.64-16.47,0-6.33,2.13-13,7-17.23m7.3,0c-6,1.71-9.5,7.82-10.17,13.69s-.07,12.72,4.26,17.21c5.61,6,16.76,4.34,20.66-2.79,3-4.47,1.83-10,2.06-15a13.07,13.07,0,0,0-5.16-11.34A13.38,13.38,0,0,0,210.49,49.06Z"/><path d="M243.11,55.18c2.26-4.68,6.45-8.7,11.67-9.72,5-1,10.91-.33,14.49,3.66,4.33,4.5,5.11,11.13,5,17.1q-14.82,0-29.64,0c.1,6,2,13,7.76,15.93,6.52,3.26,14.21.65,19.65-3.53,0,1.34,0,2.68,0,4a23.18,23.18,0,0,1-19.2,3.69c-5.66-1.6-9.7-6.72-11.09-12.29-1.48-6.19-1.5-13,1.32-18.85m7.51-4c-3.58,2.79-5.11,7.32-5.75,11.65,8.52,0,17,0,25.55,0-.32-4.07-1.17-8.44-4.18-11.44C262.11,47.35,255,47.68,250.62,51.17Z"/><path d="M155.63,45.94h3.72c0,7.66,0,15.33,0,23,.14,3.91.46,8.18,3,11.39,3,3.56,8.35,4,12.48,2.47,4.95-2,7.69-7.4,7.84-12.54.08-8.1,0-16.2,0-24.31h3.74c0,13.35,0,26.7,0,40.05h-3.72c0-2.32,0-4.64,0-7-2,3.59-5.16,6.83-9.33,7.63-4.62.88-10.11.36-13.5-3.23-3.18-3.26-4.1-8-4.24-12.4C155.61,62.67,155.64,54.31,155.63,45.94Z"/></svg>