<?xml version="1.0" encoding="UTF-8" standalone="no"?>
<svg id="Camada_1" data-name="Camada 1" viewBox="0 0 32 32" version="1.1" sodipodi:docname="nuget.svg" width="32" height="32" inkscape:version="1.4-beta2 (9aaf4f34, 2024-07-30)" xmlns:inkscape="http://www.inkscape.org/namespaces/inkscape" xmlns:sodipodi="http://sodipodi.sourceforge.net/DTD/sodipodi-0.dtd" xmlns="http://www.w3.org/2000/svg" xmlns:svg="http://www.w3.org/2000/svg" xmlns:rdf="http://www.w3.org/1999/02/22-rdf-syntax-ns#" xmlns:cc="http://creativecommons.org/ns#" xmlns:dc="http://purl.org/dc/elements/1.1/">
  <defs id="defs7" />
  <sodipodi:namedview id="namedview7" pagecolor="#ffffff" bordercolor="#000000" borderopacity="0.25" inkscape:showpageshadow="2" inkscape:pageopacity="0.0" inkscape:pagecheckerboard="0" inkscape:deskcolor="#d1d1d1" inkscape:zoom="2.246592" inkscape:cx="27.597356" inkscape:cy="28.710153" inkscape:window-width="1440" inkscape:window-height="790" inkscape:window-x="0" inkscape:window-y="0" inkscape:window-maximized="1" inkscape:current-layer="Camada_1" />
  <title id="title1">nuget</title>
  <g id="g7" transform="matrix(0.40010003,0,0,0.40010003,-1.997e-7,-5.5870779)">
    <path d="m 0,20.37 c 0.62,-2.09 1.94,-4.19 4.14,-4.83 a 8.41,8.41 0 0 1 6.14,0.52 c 4.16,2.5 3.89,9.73 -0.59,11.76 A 7,7 0 0 1 0,23.29 Z" id="path1" />
    <path d="m 32.07,30.09 a 21.47,21.47 0 0 1 5.76,-0.56 c 7.65,0.06 15.31,0 23,0 10,0.33 18.7,9.12 19.09,19.08 q 0.12,12.48 0,24.95 a 20.55,20.55 0 0 1 -19,19.11 c -7.88,0.11 -15.78,0 -23.67,0.05 A 20.54,20.54 0 0 1 20.25,83.83 21.79,21.79 0 0 1 16.56,71 c 0.05,-7.28 -0.1,-14.56 0.07,-21.82 a 20.61,20.61 0 0 1 15.44,-19 m -2.78,9.44 a 8.21,8.21 0 0 0 4.56,15.7 c 4.71,-0.82 8,-6.27 6.16,-10.78 A 8.24,8.24 0 0 0 29.29,39.62 m 26.43,20.2 a 13.19,13.19 0 0 0 3.09,26 C 66.19,86 72.68,79 72,71.67 71.54,63.9 63.29,57.72 55.72,59.82 Z" id="path2" />
  </g>
  <metadata id="metadata7">
    <rdf:RDF>
      <cc:Work rdf:about="">
        <dc:title>nuget</dc:title>
      </cc:Work>
    </rdf:RDF>
  </metadata>
</svg>
