<?xml version="1.0" encoding="UTF-8" standalone="no"?>
<svg id="Camada_1" data-name="Camada 1" viewBox="0 0 32 32.000001" version="1.1" sodipodi:docname="nuuvem.svg" width="32" height="32" inkscape:version="1.4-beta2 (9aaf4f34, 2024-07-30)" xmlns:inkscape="http://www.inkscape.org/namespaces/inkscape" xmlns:sodipodi="http://sodipodi.sourceforge.net/DTD/sodipodi-0.dtd" xmlns="http://www.w3.org/2000/svg" xmlns:svg="http://www.w3.org/2000/svg">
  <sodipodi:namedview id="namedview1" pagecolor="#ffffff" bordercolor="#000000" borderopacity="0.25" inkscape:showpageshadow="2" inkscape:pageopacity="0.0" inkscape:pagecheckerboard="0" inkscape:deskcolor="#d1d1d1" inkscape:zoom="3.0185666" inkscape:cx="1.3251323" inkscape:cy="48.864253" inkscape:window-width="1440" inkscape:window-height="790" inkscape:window-x="0" inkscape:window-y="0" inkscape:window-maximized="1" inkscape:current-layer="Camada_1" />
  <defs id="defs1">
    <style id="style1">.cls-1{fill:#fff;stroke-width:0}</style>
  </defs>
  <path id="path1" style="fill:#000000" class="cls-1" d="m 14.249204,5.3441099 c -4.134021,0 -7.5706897,2.9815441 -8.278935,6.9090861 C 2.5755761,12.861532 0,15.827708 0,19.395576 c 0,4.00747 3.2481421,7.253825 7.2533912,7.253825 h 0.00434 v 0.0065 H 23.494274 v -0.0065 C 28.192227,26.649401 32,22.841629 32,18.143676 32,13.445723 28.192227,9.637951 23.494274,9.637951 v 0.00218 c -0.497326,0 -0.985789,0.042305 -1.460912,0.1244529 -0.11323,0.019982 -0.226304,0.042358 -0.339535,0.06678 a 8.4327812,8.4327812 0 0 0 -3.594823,-3.5571097 8.3752779,8.3752779 0 0 0 -3.8498,-0.9301443 z m 0.03773,2.262267 c 0.65496,0 1.287823,0.1002387 1.882838,0.2822957 1.454234,0.4484811 2.686222,1.4050079 3.487716,2.6616434 a 6.3076013,6.3076013 0 0 1 0.994755,3.188509 v 0.03339 c 0.0022,0.06883 0.0043,0.137583 0.0043,0.20641 0,0.05773 5.3e-5,0.115242 -0.0022,0.175188 a 6.3222547,6.3222547 0 0 1 -1.391965,3.801232 c 0.726007,-0.397416 1.365478,-0.930387 1.885006,-1.567586 a 6.3417925,6.3417925 0 0 0 1.367682,-3.123896 c 0.0333,-0.226461 0.05318,-0.457224 0.05984,-0.690345 0.0022,-0.06883 0.0043,-0.140185 0.0043,-0.209012 0,-0.213139 -0.01081,-0.421856 -0.03079,-0.628335 0.264204,-0.0333 0.532605,-0.05073 0.80569,-0.05073 3.541226,0 6.414311,2.870482 6.414311,6.411707 0,0.546171 -0.06897,1.076991 -0.197738,1.583197 a 6.1988113,6.1988113 0 0 1 -0.477431,1.280954 h 0.0048 c -1.052377,2.102534 -3.225871,3.547991 -5.739143,3.547991 -2.093653,0 -3.954202,-1.003428 -5.12425,-2.557571 -0.142093,-0.186498 -0.273467,-0.382118 -0.391138,-0.581937 -0.310828,-0.519528 -0.547991,-1.087709 -0.701185,-1.691605 -0.08215,-0.319709 -0.138035,-0.65078 -0.169117,-0.988251 -0.01776,-0.195378 -0.02645,-0.392907 -0.02645,-0.594946 v -0.03556 c 0,-0.208699 0.01119,-0.41719 0.03339,-0.619229 0.0022,-0.02664 0.0042,-0.0532 0.0087,-0.07762 -0.02442,0.0444 -0.04414,0.09084 -0.06635,0.137462 -0.184277,0.390756 -0.331071,0.801667 -0.4332,1.232387 a 6.3564458,6.3564458 0 0 0 -0.17302,1.291795 c 0,0.06661 -0.0022,0.135415 -0.0022,0.204241 0,0.566152 0.07309,1.114786 0.210746,1.636534 0.07771,0.295287 0.175466,0.579334 0.293136,0.85686 0.277526,0.661621 0.663651,1.265586 1.136554,1.791775 H 7.2577275 C 5.4971052,24.508881 3.9454424,23.616324 3.0284979,22.257559 A 5.0927054,5.0927054 0 0 1 2.153425,19.393408 c 0,-2.337875 1.5676726,-4.311619 3.7101701,-4.922176 0.099909,-0.02886 0.1996796,-0.05325 0.301809,-0.07545 0.1065698,0.484005 0.2665633,0.945964 0.4752626,1.381123 0.2220204,0.464023 0.4993726,0.894482 0.8213023,1.287459 0.7837322,0.952467 1.8363175,1.67419 3.044109,2.047185 C 9.3582318,18.263428 8.503245,17.039939 8.1280304,15.621229 8.0170201,15.20161 7.9459909,14.764473 7.9237889,14.315991 c -0.00666,-0.11101 -0.00867,-0.221968 -0.00867,-0.335198 0,-0.06883 -1.041e-4,-0.137584 0.00434,-0.20641 0.017755,-0.54395 0.1019324,-1.072324 0.2484659,-1.57409 0.475124,-1.640732 1.5943325,-3.0061403 3.0618882,-3.8120743 0.908063,-0.4973261 1.949235,-0.7818418 3.057117,-0.7818418 z" />
</svg>
