<?xml version="1.0" encoding="UTF-8" standalone="no"?>
<svg id="a" viewBox="0 0 79.999998 80" version="1.1" width="80" height="80" xmlns="http://www.w3.org/2000/svg" xmlns:svg="http://www.w3.org/2000/svg">
  <defs id="defs1" />
  <path d="m 70.685,49.47 c -2.59,6.83 -7.35,12.11 -14.18,14.9 v -14.9 l 8.18,-7.35 -8.18,-7.24 V 24.63 c 7.45,-0.52 12.63,-6 12.63,-12.73 0,-8.8 -8.38,-11.9 -13.14,-11.9 -1.03,0 -2.17,0 -3.83,0.41 v 0.41 c 0.62,0 1.55,-0.1 1.86,-0.1 3.31,0 5.8,1.55 5.8,4.55 0,2.28 -1.86,4.55 -5.17,4.55 -8.18,0 -17.8,-6.62 -28.25,-6.62 -9.33,0.01 -15.74,6.94 -15.74,13.98 0,7.04 4.04,9.21 8.28,10.76 l 0.1,-0.41 c -1.35,-0.83 -2.28,-2.28 -2.28,-4.55 0,-3.1 2.9,-5.69 6.52,-5.69 8.8,0 22.98,7.35 31.77,7.35 h 0.83 v 10.35 l -8.18,7.14 8.18,7.35 v 15.11 c -3.41,1.24 -6.93,1.76 -10.56,1.76 -13.66,0 -22.35,-8.28 -22.35,-22.04 0,-3.31 0.41,-6.52 1.35,-9.62 l 6.83,-3 v 30.43 l 13.87,-6.11 V 24.86 l -20.39,9.11 c 2.07,-6 6.31,-10.35 11.38,-12.83 l -0.1,-0.31 c -13.66,2.97 -26.91,13.32 -26.91,28.85 0,17.9 15.11,30.32 32.7,30.32 18.63,0 29.18,-12.42 29.29,-30.53 z" style="fill-rule:evenodd;stroke-width:0px" id="path1" />
</svg>
