<?xml version="1.0" encoding="UTF-8"?><svg id="a" xmlns="http://www.w3.org/2000/svg" viewBox="0 0 61.99 80"><path d="m61.68,49.47c-2.59,6.83-7.35,12.11-14.18,14.9v-14.9l8.18-7.35-8.18-7.24v-10.25c7.45-.52,12.63-6,12.63-12.73,0-8.8-8.38-11.9-13.14-11.9-1.03,0-2.17,0-3.83.41v.41c.62,0,1.55-.1,1.86-.1,3.31,0,5.8,1.55,5.8,4.55,0,2.28-1.86,4.55-5.17,4.55-8.18,0-17.8-6.62-28.25-6.62C8.07,3.21,1.66,10.14,1.66,17.18s4.04,9.21,8.28,10.76l.1-.41c-1.35-.83-2.28-2.28-2.28-4.55,0-3.1,2.9-5.69,6.52-5.69,8.8,0,22.98,7.35,31.77,7.35h.83v10.35l-8.18,7.14,8.18,7.35v15.11c-3.41,1.24-6.93,1.76-10.56,1.76-13.66,0-22.35-8.28-22.35-22.04,0-3.31.41-6.52,1.35-9.62l6.83-3v30.43l13.87-6.11v-31.15l-20.39,9.11c2.07-6,6.31-10.35,11.38-12.83l-.1-.31C13.25,23.8,0,34.15,0,49.68c0,17.9,15.11,30.32,32.7,30.32,18.63,0,29.18-12.42,29.29-30.53h-.31Z" style="fill-rule:evenodd; stroke-width:0px;"/></svg>