<?xml version="1.0" encoding="UTF-8" standalone="no"?>
<svg version="1.0" width="32pt" height="32pt" viewBox="0 0 32 32" preserveAspectRatio="xMidYMid" id="svg29" xmlns="http://www.w3.org/2000/svg" xmlns:svg="http://www.w3.org/2000/svg">
  <defs id="defs29" />
  <g id="g29" transform="matrix(0.02288722,0,0,0.02288722,-0.00809874,-0.05544691)">
    <path d="M 667.1,3 C 577.1,7.5 489.3,28.7 410,65 265.6,131.2 147.4,244.5 75.9,385.2 l -8,15.8 h 3.8 c 2.1,0 10.6,-0.7 18.8,-1.5 18.8,-1.8 67.5,-5.1 94.6,-6.5 30,-1.5 105.9,-3 123.9,-2.5 8.5,0.2 27.2,0.7 41.5,1 l 26,0.6 7.5,-5.6 c 28.3,-21.2 66.9,-36.2 107,-41.6 12.1,-1.6 42.7,-1.6 55,0 34.6,4.6 71.8,18.1 98.5,35.9 20.1,13.4 43,34.4 56,51.3 l 5,6.5 17,4.3 c 53.4,13.4 123.4,35.9 179.5,57.6 159.5,61.7 319.6,152.8 473.7,269.6 l 18.1,13.8 0.6,-3.2 c 4.1,-22.1 5.4,-99.9 2.3,-135.4 C 1390,569.2 1373,498.8 1345.1,432.2 1301,326.9 1231.1,233.2 1142.7,160.7 1038,74.8 911.7,21.6 777,6.6 744.7,3 698.3,1.5 667.1,3 Z m 253.5,426.2 c 3.1,6.2 5.7,11.4 5.9,11.6 0.1,0.1 5.6,0.9 12.1,1.8 6.5,0.8 12.5,1.8 13.3,2 1,0.3 -1.7,3.7 -8.1,10.2 l -9.7,9.7 2.4,12.5 c 1.2,6.9 2.1,12.7 1.8,13 -0.2,0.3 -5.6,-2.2 -11.9,-5.5 l -11.5,-6 -11.9,6.3 c -9.9,5.2 -12,6 -12,4.5 0,-1 0.9,-7 2,-13.3 l 2.1,-11.5 -9.8,-9.2 c -5.3,-5.1 -9.5,-9.4 -9.3,-9.6 0.3,-0.3 5.5,-1.2 11.5,-2.1 6.1,-0.9 11.9,-1.9 13,-2.1 1.4,-0.3 3.6,-3.8 7.4,-12 3,-6.3 5.8,-11.5 6.2,-11.5 0.5,0 3.4,5.1 6.5,11.2 z" id="path3" style="fill:#000000;stroke:none;stroke-width:0.1" />
    <path d="m 199.7,427.7 c -0.4,7 -0.7,18.8 -0.7,26 V 467 h 12.3 c 14.5,0 18.6,-1 23.7,-5.6 5,-4.5 7,-10.5 7,-20.8 0,-12.6 -4.7,-20.8 -13.3,-23.5 -1.8,-0.5 -8.9,-1.2 -15.8,-1.6 l -12.6,-0.6 z m 24.2,-2.4 c 5.9,2.1 7.6,5.5 7.6,15.5 -0.1,9.3 -1.7,14.2 -5.4,16.2 -1.1,0.5 -5.4,1 -9.7,1 h -7.7 l 0.7,-5.3 c 0.3,-2.8 0.6,-10.5 0.6,-17 V 424 l 5.3,0.1 c 2.8,0 6.7,0.5 8.6,1.2 z" id="path4" style="fill:#000000;stroke:none;stroke-width:0.1" />
    <path d="m 149.1,416.7 -3.4,0.4 0.6,15.1 c 0.4,8.3 0.7,19.8 0.7,25.5 V 468 h 5 5 v -11 -11 h 3.4 c 4.6,0 7.9,2.9 14.6,12.9 l 5.5,8 6.3,0.1 c 4.8,0 6.1,-0.3 5.6,-1.3 -3.8,-6.4 -10.9,-15.9 -13.5,-18.1 -1.7,-1.5 -3,-2.8 -2.8,-3 0.2,-0.1 1.8,-0.8 3.6,-1.5 5.2,-2.1 7.6,-5.4 8.1,-11.5 0.5,-6.4 -1.9,-11.3 -6.5,-13.6 -2.8,-1.4 -25,-2.3 -32.2,-1.3 z M 176,427 c 2.5,2.5 2.5,5.1 0.1,8.1 -1.7,2.1 -2.9,2.4 -10.5,2.8 l -8.6,0.3 v -6.6 -6.6 h 8.5 c 7.2,0 8.8,0.3 10.5,2 z" id="path5" style="fill:#000000;stroke:none;stroke-width:0.1" />
    <path d="m 251.7,425.7 c -0.4,5.4 -0.7,16.8 -0.7,25.4 v 15.6 l 7.7,0.7 c 4.2,0.3 12.9,0.6 19.5,0.6 H 290 V 463.5 459 H 275.5 261 v -5.4 c 0,-8.9 -0.5,-8.6 13.6,-8.6 H 287 v -3.9 -3.9 l -12.5,-0.7 -12.5,-0.7 v -5.4 -5.4 h 14 14 v -3.9 c 0,-3.8 0,-3.8 -4.6,-4.5 -2.6,-0.3 -11.1,-0.6 -18.9,-0.6 h -14.2 z" id="path6" style="fill:#000000;stroke:none;stroke-width:0.1" />
    <path d="m 300.7,429.2 c -0.4,6.8 -1,18.2 -1.3,25.4 l -0.7,13.1 4.4,0.6 c 2.4,0.3 4.5,0.4 4.8,0.2 0.2,-0.2 0.7,-8.4 1.2,-18.2 0.5,-9.8 1.1,-18.5 1.2,-19.3 0.2,-0.8 2,7.3 4.2,18.2 l 3.9,19.6 4.6,0.5 c 2.5,0.2 4.8,0.1 5.2,-0.2 0.3,-0.3 3.1,-8.9 6.2,-19 5.6,-18.4 7.3,-22.7 6.2,-16.1 -0.3,1.9 -0.8,10.8 -1.2,19.6 l -0.6,16.2 4.4,0.4 c 2.3,0.3 4.4,0.4 4.6,0.2 0.2,-0.1 0.7,-8 1.2,-17.6 0.5,-9.5 1.1,-21 1.4,-25.6 l 0.5,-8.2 h -7.9 -7.8 l -4.7,14.7 c -2.5,8.2 -4.9,15.7 -5.4,16.8 l -0.8,2 -0.6,-2 c -0.3,-1.1 -2,-8.8 -3.7,-17.1 l -3.2,-15.2 -3.7,-0.6 c -2,-0.3 -5.4,-0.6 -7.7,-0.6 h -4.1 z" id="path7" style="fill:#000000;stroke:none;stroke-width:0.1" />
    <path d="m 102.6,419.5 c -8.2,2.9 -13.4,10.7 -14.3,21.4 -1.5,17.6 8.2,29.4 24.2,29.4 11,0.1 18.1,-4 22.8,-12.8 3.1,-5.8 3,-19 -0.1,-26 -3,-6.5 -4.7,-8.3 -10.7,-11.1 -5.8,-2.8 -15.6,-3.2 -21.9,-0.9 z m 18.2,9.2 c 5.7,3.6 8.2,17.9 4.4,25.3 -2.6,5.3 -7.7,8.3 -13.1,7.7 -8.7,-1 -13.1,-7 -13.1,-18 0,-7 1.3,-10.9 4.8,-14 4.2,-3.8 12,-4.3 17,-1 z" id="path8" style="fill:#000000;stroke:none;stroke-width:0.1" />
    <path d="m 381.7,428.6 c -1.5,16.2 -2.9,43.5 -2.4,44.1 0.4,0.3 6.8,0.8 14.4,1 13.1,0.5 14,0.4 18.2,-1.9 3.2,-1.7 5.2,-3.9 7.5,-7.8 2.6,-4.7 3.1,-6.6 3.4,-14.7 0.4,-8.5 0.2,-9.8 -2.2,-14.8 -4.5,-9 -8.5,-10.8 -27.7,-12 l -10.6,-0.7 z m 25.8,5.3 c 4.5,2.6 6.1,8.5 4.8,18 -1.8,11.9 -5.3,14.9 -16.6,13.7 l -6.2,-0.7 1.2,-16.7 c 0.6,-9.2 1.2,-16.9 1.2,-17 0.3,-1 13,1.2 15.6,2.7 z" id="path9" style="fill:#000000;stroke:none;stroke-width:0.1" />
    <path d="m 445.9,428.4 c -5.8,2.1 -9.3,5.1 -12.4,10.8 -2.3,4.3 -3,6.8 -3.3,13.6 -0.5,10 1.1,15.1 6.6,20.5 9.2,9 27,9.1 35.4,0.1 7,-7.5 9.4,-22.8 5.1,-32.4 -4.8,-10.9 -19.6,-16.8 -31.4,-12.6 z m 15.8,9.3 c 5.2,2.4 7.7,8.6 7,17 -1.1,11.4 -5.4,16.3 -14.5,16.3 -5,0 -5.8,-0.3 -9.2,-3.8 -2.8,-2.8 -3.9,-4.8 -4.4,-8.3 -0.8,-5.2 0.6,-12.8 3.1,-17 3.3,-5.6 11.3,-7.4 18,-4.2 z" id="path10" style="fill:#000000;stroke:none;stroke-width:0.1" />
    <path d="m 496.8,436.2 c -6.7,3.9 -8.8,12.6 -4.5,18.9 1.5,2.3 4.5,4.5 9.2,6.7 14.5,6.8 14,6.5 14.3,9.9 0.4,4.1 -2.7,6.3 -8.9,6.3 -5.7,0 -10.3,-3.3 -11.2,-8 -0.6,-2.9 -0.9,-3 -5.7,-3 -5.5,0 -5.6,0.2 -3.9,6.3 2.5,9.2 11.8,14.3 24.5,13.5 9.9,-0.6 15.6,-6.2 15.6,-15.3 0,-8.3 -2.8,-11 -18.6,-18.3 -6.7,-3 -8.7,-5.3 -7,-7.9 1.7,-2.6 5.7,-3.6 10.4,-2.3 3.3,0.9 4.4,1.8 5.5,4.4 1.4,3.4 3.7,4.6 8.8,4.6 3,0 3.5,-1.8 1.6,-6.7 -3.6,-9.6 -20.4,-14.7 -30.1,-9.1 z" id="path11" style="fill:#000000;stroke:none;stroke-width:0.1" />
    <path d="m 558.7,468.2 c -8.4,14.7 -13,23.5 -12.3,23.9 0.6,0.4 2.9,0.9 5.1,1.2 4,0.6 4,0.6 6.9,-4.6 1.6,-2.8 3,-5.3 3.1,-5.5 0.6,-0.7 20.1,3.1 20.7,4.1 0.4,0.6 1,3.3 1.3,6 0.8,5.2 0.8,5.3 7.6,6.2 l 4.6,0.6 -6.2,-26.8 -6.2,-26.8 -2.9,-0.6 c -8.1,-1.8 -7,-3 -21.7,22.3 z m 19.4,-0.6 c 1,4.8 1.9,9 1.9,9.2 0,0.5 -10,-0.9 -12.1,-1.7 -1.4,-0.5 -0.9,-1.9 2.9,-8.8 2.5,-4.6 4.7,-8.1 5,-7.9 0.2,0.2 1.2,4.4 2.3,9.2 z" id="path12" style="fill:#000000;stroke:none;stroke-width:0.1" />
    <path d="m 606.1,475.1 c -2.4,12.7 -4.5,23.8 -4.8,24.8 -0.4,1.5 1.1,2.1 10.4,3.9 13.8,2.8 18.7,2.8 24.3,-0.1 5.7,-2.8 10.3,-10.2 12,-19.3 2.4,-12.4 -1.2,-22.4 -9.4,-26.3 -3.9,-1.9 -22,-6.1 -26.4,-6.1 -1.5,0 -2.4,3.5 -6.1,23.1 z m 21.4,-11.6 c 8.2,2.1 10.5,4.8 10.5,12.4 0,6.9 -2.2,14.8 -5.2,18.6 -2.1,2.7 -2.3,2.8 -10.6,2.2 -4.7,-0.4 -8.7,-0.8 -8.9,-1.1 -0.5,-0.4 2.1,-15.7 4.9,-28.9 0.5,-2.6 1.5,-4.7 2.2,-4.7 0.6,0 3.9,0.7 7.1,1.5 z" id="path13" style="fill:#000000;stroke:none;stroke-width:0.1" />
    <path d="m 658,463 c 0,1.9 5.2,40.8 6.5,48.7 0.5,2.9 1,3.3 5.3,4 2.6,0.4 5,0.8 5.4,0.8 0.4,0 7.1,-10.4 14.8,-23 l 14.1,-23 -5.3,-1.2 c -2.9,-0.6 -5.3,-1.1 -5.4,-1 0,0.1 -4.5,7.8 -10,17.2 -11.4,19.6 -10,20.3 -13,-5.8 -1.9,-17.2 -1.8,-16.9 -8.6,-18.1 -3.4,-0.6 -3.8,-0.5 -3.8,1.4 z" id="path14" style="fill:#000000;stroke:none;stroke-width:0.1" />
    <path d="m 719.7,478.4 c -8.9,3.3 -14.6,11.1 -16.9,23.2 -3,16.1 8.7,28.9 26.2,28.8 10.5,-0.1 18.4,-6.7 22,-18.3 3.4,-10.9 2.3,-19.1 -3.6,-26 -5.9,-6.9 -19.6,-10.7 -27.7,-7.7 z m 14.3,9.2 c 7.6,3.1 10,10.3 7.1,21.2 -4,14.5 -20.4,17.3 -27,4.5 -3.7,-7.3 1.3,-21.7 8.9,-25.5 4.3,-2.2 5.9,-2.2 11,-0.2 z" id="path15" style="fill:#000000;stroke:none;stroke-width:0.1" />
    <path d="m 214.5,488.7 c -20.3,0.7 -55.9,2.5 -74.5,3.9 -40.7,2.9 -109.4,10.4 -111.1,12.1 -0.4,0.4 -2.6,7.6 -4.8,15.8 C -14.5,664.7 -5.6,820.8 49,958 c 40.1,100.8 100.3,187.8 180.5,260.9 110.3,100.5 249.8,162.9 398.5,178 88.9,9.1 178.1,1.3 263.5,-23 99.3,-28.2 193.5,-79.8 271,-148.3 14.8,-13.2 43.1,-41.3 56.9,-56.6 60.4,-67.1 106.7,-144.1 137.5,-228.6 5.5,-15.2 15.1,-45 15.1,-47 0,-0.7 -7.5,-7.3 -16.7,-14.6 C 1187.2,744.3 1004.7,643.1 813.5,578 c -21.1,-7.1 -61.8,-20 -63.4,-20 -0.5,0 -0.6,4.8 -0.4,10.7 2,42.6 -12,93.7 -36.3,131.8 -22,34.7 -56.1,65.3 -92.5,83.2 -89.5,44 -195.5,26.5 -265.9,-43.7 -42,-41.9 -65.9,-97.2 -67.7,-156.5 -0.9,-29.6 2.5,-53.8 11.5,-81.1 l 4.7,-14.4 -40.5,0.2 c -22.3,0.1 -44.1,0.3 -48.5,0.5 z m -69.8,81.6 c 1,0.3 7.1,1.3 13.6,2.3 l 11.9,1.7 -9.8,9.8 -9.7,9.8 2.2,12.6 c 1.2,7 2,12.9 1.8,13.1 -0.2,0.3 -5.5,-2.2 -11.6,-5.6 -6.2,-3.3 -11.7,-6 -12.2,-6 -0.6,0 -6.2,2.7 -12.5,6.1 -6.3,3.3 -11.4,5.5 -11.4,4.9 0,-0.7 1,-6.9 2.2,-13.8 l 2.2,-12.6 -9.4,-8.8 c -5.1,-4.8 -9.1,-9 -8.8,-9.4 0.3,-0.3 5.3,-1.2 10.9,-2 5.7,-0.8 11.4,-1.7 12.7,-1.9 1.7,-0.4 3.7,-3.5 8.4,-12.8 l 6.1,-12.2 5.8,12.2 c 3.6,7.7 6.4,12.3 7.6,12.6 z m 724,68 4.1,8.3 8.7,1.2 c 4.8,0.6 9.1,1.4 9.4,1.8 0.3,0.3 -2.5,3.4 -6.2,6.8 l -6.8,6.1 1.5,9 c 0.9,5 1.6,9.4 1.6,9.8 0,0.4 -3.8,-1.3 -8.5,-3.8 l -8.5,-4.7 -8.5,4.6 c -5,2.7 -8.5,4.1 -8.5,3.4 0,-0.7 0.7,-5.1 1.5,-9.8 l 1.6,-8.5 -6.8,-6.2 c -3.7,-3.4 -6.5,-6.4 -6.2,-6.8 0.4,-0.3 3.8,-1 7.5,-1.6 3.8,-0.5 7.8,-1.2 8.9,-1.4 1.4,-0.3 3.3,-3 6,-8.5 2.1,-4.4 4.2,-8 4.5,-8 0.3,0 2.4,3.7 4.7,8.3 z M 710.9,799.9 c 5.6,11 4.2,10.2 19.4,11.7 3.7,0.4 6.9,1 7.2,1.4 0.2,0.3 -3.1,4.1 -7.4,8.4 l -7.8,7.7 1.8,9.2 c 2.8,14.1 3.3,13.6 -8,7.7 l -9.9,-5.2 -9.4,5.1 c -5.2,2.8 -9.7,5.1 -10,5.1 -0.2,0 0.3,-4.8 1.3,-10.8 l 1.8,-10.7 -8.2,-7.7 c -4.5,-4.2 -7.9,-7.9 -7.7,-8.1 0.3,-0.2 4.3,-0.9 9,-1.6 4.7,-0.7 9.4,-1.5 10.6,-1.7 1.4,-0.4 3.5,-3.6 6.9,-10.5 2.7,-5.4 5,-9.9 5.2,-9.9 0.2,0 2.5,4.4 5.2,9.9 z m -453.5,17 c 2.7,6 4.3,7.1 11,7.1 4.9,0.1 4.9,1.6 0,6.2 l -4.7,4.5 1.1,6.3 c 0.7,3.5 1,6.6 0.7,6.8 -0.2,0.2 -2.9,-1 -6,-2.7 l -5.7,-3 -6,3 c -3.3,1.7 -6.1,2.9 -6.3,2.7 -0.1,-0.2 0.2,-3.4 0.8,-7.1 l 1,-6.8 -4.1,-4.2 c -2.3,-2.4 -4.2,-4.5 -4.2,-4.9 0,-0.3 2.9,-0.9 6.3,-1.2 l 6.4,-0.7 2.8,-6 c 1.6,-3.2 3.2,-5.9 3.5,-5.9 0.4,0 1.9,2.6 3.4,5.9 z m -62.4,33.9 5.5,10.7 12,1.7 c 6.6,0.9 12.2,1.7 12.5,1.7 0.2,0.1 -3.6,4.1 -8.5,9.1 l -8.9,8.9 2.2,12.3 c 1.2,6.7 2,12.4 1.7,12.6 -0.2,0.2 -5.3,-2.2 -11.3,-5.3 l -10.8,-5.8 -10.8,5.8 c -5.9,3.1 -11,5.4 -11.3,5.1 -0.3,-0.3 0.1,-5.1 1,-10.5 1,-5.5 1.7,-10.9 1.7,-11.9 0,-1.1 -3.6,-5.5 -8.5,-10.3 -4.7,-4.5 -8.5,-8.5 -8.5,-8.9 0,-0.3 5.5,-1.4 12.3,-2.4 l 12.2,-1.9 5.4,-11.3 c 3,-6.3 5.7,-11.1 6,-10.8 0.3,0.3 3.1,5.4 6.1,11.2 z m 584.4,18.9 c 0,0.1 3.9,0.6 8.6,1.2 14.9,2 14.4,1.1 5.5,10.1 l -7.8,7.8 2.1,10.9 c 1.1,5.9 1.9,10.9 1.8,11.1 -0.2,0.1 -4.6,-2.1 -10,-4.9 l -9.6,-5.1 -9.6,5.2 c -5.3,2.8 -9.8,4.9 -10.1,4.6 -0.3,-0.2 0.3,-5.1 1.2,-10.8 l 1.7,-10.4 -7.6,-7.4 c -4.2,-4 -7.6,-7.6 -7.6,-8 0,-0.4 4.8,-1.5 10.7,-2.4 5.8,-0.9 10.7,-1.7 10.8,-1.9 0.1,-0.1 2.3,-4.7 4.9,-10.2 l 4.8,-10 5,10 c 2.8,5.5 5.1,10.1 5.2,10.2 z m -165.7,1.6 4.1,8.3 8.7,1.2 c 4.8,0.6 9.1,1.4 9.4,1.8 0.3,0.3 -2.5,3.3 -6.2,6.7 l -6.9,6.2 1.6,9 c 0.9,4.9 1.6,9.3 1.6,9.8 0,0.4 -3.8,-1.3 -8.5,-3.9 l -8.4,-4.5 -8.6,4.6 c -4.7,2.6 -8.5,4.3 -8.5,3.8 0,-0.4 0.7,-4.8 1.6,-9.6 l 1.5,-8.9 -6.6,-6 c -3.6,-3.3 -6.5,-6.3 -6.5,-6.8 0,-0.5 4.1,-1.4 9.1,-2.1 l 9.1,-1.2 4.1,-8.4 c 2.3,-4.5 4.4,-8.3 4.7,-8.3 0.3,0 2.4,3.7 4.7,8.3 z m -491.5,43.1 c 5.2,10.4 3.8,9.6 18.6,11.2 3.4,0.4 6.4,1 6.7,1.4 0.2,0.3 -2.9,3.9 -6.9,7.9 l -7.3,7.3 1.8,9.6 c 1,5.3 1.8,10.3 1.9,11 0,0.7 -3.9,-0.7 -9.7,-3.7 l -9.7,-4.8 -9.4,4.9 c -5.1,2.8 -9.5,4.9 -9.7,4.6 -0.2,-0.2 0.4,-5 1.3,-10.6 l 1.6,-10.2 -7.8,-7.9 -7.8,-7.8 4.9,-0.7 c 2.6,-0.3 7.6,-1.1 10.9,-1.7 l 6.2,-1.1 4.2,-9.4 c 2.4,-5.2 4.6,-9.4 4.9,-9.4 0.4,0 2.7,4.2 5.3,9.4 z m 1071.8,4.5 c 6,12.4 3.9,11 21.3,13.2 l 9.8,1.3 -9,9 -9.1,9.1 2.3,12.3 c 1.6,8 2,12.2 1.3,12.1 -0.6,0 -5.8,-2.4 -11.5,-5.3 l -10.4,-5.3 -10.9,6 c -6,3.3 -11,5.8 -11.2,5.6 -0.1,-0.2 0.6,-5.8 1.6,-12.4 l 2,-12.1 -9.2,-9 -9.2,-9.1 12.5,-1.8 12.5,-1.8 5.4,-11.3 c 2.9,-6.3 5.5,-11.4 5.8,-11.4 0.3,0 3,4.9 6,10.9 z m -530.4,-3.7 c 1.5,2.9 3.1,5.6 3.7,6 0.5,0.3 3.4,0.9 6.4,1.3 2.9,0.3 5.3,1 5.3,1.4 0,0.5 -2,2.7 -4.5,5 l -4.6,4.2 1.1,6.1 c 0.6,3.3 0.9,6.2 0.7,6.5 -0.3,0.2 -3,-1 -6,-2.7 l -5.5,-3.1 -6.1,3.1 c -3.4,1.6 -6.1,2.6 -6.1,2.2 0,-0.5 0.5,-3.4 1.2,-6.6 l 1.1,-5.7 -4.8,-4.9 -4.7,-4.8 2.8,-0.5 c 1.6,-0.3 4.7,-0.9 7,-1.2 3.7,-0.6 4.3,-1.1 6.7,-6.1 1.5,-3 2.9,-5.4 3.2,-5.4 0.2,0 1.7,2.4 3.1,5.2 z m -328.6,5.6 4.5,8.7 6,0.7 c 3.3,0.4 8,1 10.4,1.3 l 4.4,0.7 -7.6,7.6 -7.5,7.7 1.9,9.9 c 1.1,5.4 1.7,10.1 1.5,10.3 -0.2,0.2 -4.5,-1.6 -9.5,-4.2 l -9.1,-4.5 -9.7,5.1 c -9.1,4.9 -9.6,5.1 -9,2.8 0.3,-1.3 1.1,-6.2 1.8,-10.9 l 1.2,-8.5 -7.8,-7.1 c -8.8,-8.2 -9.5,-7.2 5.8,-9.5 l 7.8,-1.2 4.5,-9.5 c 2.4,-5.2 4.7,-9.2 5.2,-8.8 0.4,0.4 2.7,4.7 5.2,9.4 z m 959.9,14 3.4,7 5.6,0.7 c 3.1,0.3 7.1,0.9 8.9,1.2 l 3.4,0.6 -6.2,6.2 -6.2,6.2 1.7,8.3 c 0.9,4.5 1.5,8.4 1.2,8.6 -0.3,0.3 -3.8,-1.2 -8,-3.2 l -7.5,-3.7 -7.7,4.2 -7.8,4.3 0.7,-5.3 c 0.4,-3 0.9,-7 1.2,-8.9 0.5,-3.3 0.1,-3.9 -5.6,-9.4 -3.3,-3.2 -5.9,-6 -5.7,-6.3 0.2,-0.2 3.3,-0.8 6.8,-1.4 9.5,-1.5 9.4,-1.4 13.3,-9.5 2,-4.1 3.9,-7.3 4.3,-7.1 0.5,0.3 2.4,3.7 4.2,7.5 z m -73.5,59.6 c 3.4,7.6 4.1,8.5 6.9,9 1.8,0.3 6.3,1 10.1,1.7 l 6.8,1.1 -7.2,7.3 -7.2,7.3 1.5,9.3 c 0.8,5.2 1.3,9.5 1.2,9.7 -0.2,0.2 -4.2,-1.8 -9.1,-4.4 l -8.8,-4.8 -8.3,4.4 c -4.6,2.4 -8.5,4.1 -8.8,3.8 -0.3,-0.3 0.2,-4.7 1.1,-9.8 l 1.7,-9.2 -6.9,-6.9 c -3.7,-3.7 -6.6,-7.1 -6.3,-7.3 0.2,-0.3 4.6,-1 9.7,-1.7 l 9.3,-1.2 4.7,-8.7 c 2.6,-4.9 5,-8.6 5.3,-8.5 0.3,0.2 2.2,4.2 4.3,8.9 z m -907.1,9.7 c 0.5,0.4 3.9,1 7.5,1.4 10.1,1.1 10.1,1 3.1,8.1 l -6.2,6.3 1.5,9 c 0.8,5 1.3,9.1 1.1,9.1 -0.2,0 -4,-1.8 -8.4,-4 l -8,-4.1 -7.6,4.1 c -4.2,2.2 -7.8,3.9 -8,3.6 -0.3,-0.3 0.1,-4.3 0.9,-9 l 1.5,-8.5 -6.3,-6.2 c -3.5,-3.5 -6.2,-6.4 -6,-6.6 0.2,-0.2 3.2,-0.8 6.7,-1.3 11.1,-1.7 10.6,-1.4 15,-10.2 l 4.1,-8.3 4.1,8 c 2.2,4.4 4.4,8.3 5,8.6 z m 399.5,7.9 c 2.2,0 23.8,3.2 24.1,3.6 0.3,0.3 -3.5,4.5 -8.4,9.4 l -8.9,8.9 1.8,10.3 c 1,5.7 2,11.3 2.3,12.6 0.5,2.1 -0.4,1.9 -11.1,-3.5 l -11.7,-5.8 -11,5.8 c -6.1,3.3 -11.2,5.7 -11.3,5.5 -0.2,-0.1 0.6,-5.9 1.7,-12.7 l 2,-12.4 -9.4,-8.8 -9.4,-8.7 3.5,-0.6 c 1.9,-0.3 7.7,-1.3 12.9,-2.1 5.2,-0.8 9.5,-1.6 9.6,-1.7 0,-0.2 2.6,-5.4 5.5,-11.6 l 5.4,-11.3 5.8,11.5 c 3.2,6.4 6.2,11.6 6.6,11.6 z m 473.7,37.5 c 2.1,4.6 4.5,8.7 5.4,8.9 0.9,0.2 5.5,1 10.4,1.7 4.8,0.7 8.7,1.4 8.7,1.5 0,0.2 -3.3,3.6 -7.4,7.6 l -7.5,7.3 1.6,9.3 c 0.9,5.1 1.3,9.5 1,9.8 -0.3,0.4 -4.4,-1.5 -9.1,-4 l -8.5,-4.7 -9,4.6 c -5,2.5 -9.2,4.5 -9.4,4.5 -0.3,0 0.4,-4.6 1.4,-10.2 l 1.9,-10.2 -7.1,-7.2 c -3.9,-3.9 -6.7,-7.4 -6.3,-7.7 0.5,-0.2 4.1,-0.8 7.9,-1.2 11.6,-1.1 11.1,-0.8 16.1,-10.7 2.4,-4.9 4.8,-8.7 5.3,-8.4 0.4,0.3 2.5,4.4 4.6,9.1 z m -774.6,13.3 5.4,10.9 11.1,1.2 c 6.1,0.7 11.5,1.5 12,1.8 0.4,0.3 -3,4.4 -7.7,9.2 l -8.5,8.6 2.1,11.2 c 1.1,6.2 1.8,11.5 1.5,11.9 -0.3,0.3 -5.2,-1.8 -10.9,-4.7 l -10.4,-5.2 -10.7,5.7 c -6.8,3.6 -10.8,5.2 -10.8,4.4 0,-0.7 0.7,-6.2 1.7,-12.3 l 1.6,-10.9 -8.8,-8.3 c -4.8,-4.6 -8.6,-8.5 -8.4,-8.7 0.2,-0.2 5.7,-1.1 12.2,-2.1 l 11.9,-1.7 5,-10.9 c 2.8,-6 5.4,-10.9 5.7,-10.9 0.4,0 3.1,4.9 6,10.8 z m 437.6,17 4,7.7 5.5,0.7 c 3,0.4 7.1,1 9,1.4 l 3.5,0.6 -6.7,6.2 -6.8,6.1 1.5,8.4 c 0.8,4.7 1.3,8.6 1.1,8.8 -0.2,0.2 -3.8,-1.3 -8,-3.4 l -7.6,-3.7 -7.6,3.7 c -4.2,2.1 -7.8,3.6 -8.1,3.4 -0.2,-0.3 0.3,-4.2 1.1,-8.8 l 1.5,-8.4 -6.7,-6.1 -6.7,-6.1 3,-0.6 c 1.7,-0.4 5.3,-0.9 8,-1.3 2.8,-0.4 5.7,-1 6.5,-1.4 0.8,-0.5 3.1,-4 5,-7.9 1.8,-3.9 3.6,-7.1 3.9,-7.1 0.3,0 2.4,3.5 4.6,7.8 z m 202.7,2 3.5,7.7 8.3,1.3 c 4.6,0.6 8.6,1.4 8.9,1.7 0.3,0.4 -2.3,3.2 -5.8,6.3 l -6.4,5.7 1.2,7.5 c 0.7,4.1 1.5,8.3 1.8,9.4 0.4,1.5 -1,1 -7.6,-2.5 l -8,-4.4 -7.7,3.8 c -4.2,2.1 -7.8,3.6 -8.1,3.3 -0.2,-0.2 0.1,-4.1 0.8,-8.5 l 1.3,-8.2 -6.4,-6.4 -6.3,-6.4 3.4,-0.5 c 1.9,-0.4 5.9,-1 8.9,-1.4 l 5.5,-0.7 4,-7.7 c 2.2,-4.3 4.3,-7.8 4.6,-7.8 0.3,0 2.1,3.5 4.1,7.8 z m 68.8,1 3.5,6.7 8,0.9 c 4.4,0.5 8.2,1 8.4,1.3 0.3,0.2 -2.1,3 -5.4,6.3 l -5.8,5.9 1.2,7.6 c 0.7,4.2 1.1,7.9 0.8,8.1 -0.3,0.3 -3.6,-1 -7.4,-3 l -6.9,-3.4 -7.3,4 c -4,2.2 -7.4,3.9 -7.6,3.7 -0.2,-0.2 0.2,-4 0.7,-8.5 l 1.1,-8 -5.6,-5.3 c -3.2,-3 -5.7,-5.7 -5.7,-6.1 0,-0.4 2.1,-1.1 4.8,-1.4 11.8,-1.7 10.9,-1.1 14.7,-9.4 1.9,-4.1 3.8,-7.2 4.2,-6.8 0.5,0.4 2.4,3.8 4.3,7.4 z m -151.1,14.1 c 4.4,8.7 3.6,8.2 16.4,9.7 l 5.9,0.7 -6.6,6.6 -6.6,6.6 1.5,7.9 c 0.8,4.3 1.5,8.2 1.5,8.7 0,0.5 -3.6,-0.9 -7.9,-3.1 l -8,-4 -7.6,4.1 c -4.2,2.3 -7.8,3.9 -8.1,3.6 -0.3,-0.2 0.2,-4.2 1,-8.8 l 1.4,-8.4 -6.5,-5.9 c -7.2,-6.6 -7.1,-6.9 1.7,-8 9.4,-1.2 9.4,-1.2 13.5,-9.7 2.2,-4.3 4,-7.9 4.2,-7.9 0.1,0 2.1,3.5 4.2,7.9 z m 85.7,47.9 4.5,9.8 9.2,1.3 c 5,0.7 9.7,1.6 10.5,1.9 0.9,0.3 -1.1,3 -6.2,8.1 l -7.6,7.6 1.5,9 c 2.2,13.6 2.7,13 -7.4,7.4 -4.9,-2.7 -9.5,-4.9 -10.1,-4.9 -0.6,0 -5.1,2 -10,4.5 -4.9,2.5 -9.1,4.5 -9.3,4.5 -0.2,0 0.5,-4.8 1.6,-10.6 l 2,-10.6 -7.8,-7.8 -7.7,-7.8 8.8,-1.1 c 14.1,-1.9 12.9,-1.1 18.1,-11.6 2.6,-5.2 4.9,-9.5 5,-9.5 0.2,0 2.4,4.4 4.9,9.8 z m -149.1,17.1 c 5.1,9.9 4.3,9.4 17.8,10.7 3.7,0.4 6.7,0.9 6.7,1.2 0,0.2 -2.9,3.6 -6.5,7.3 -7.1,7.6 -7.2,7.9 -5,17.9 2.4,10.8 2.7,10.6 -7.6,5.5 l -9.1,-4.6 -8.4,4.6 c -4.6,2.5 -8.7,4.5 -9.2,4.5 -0.4,0 -0.1,-4.5 0.7,-10 l 1.4,-9.9 -7.2,-6.7 c -5.1,-4.7 -6.8,-6.9 -5.9,-7.5 0.7,-0.4 5.1,-1.3 9.9,-2 l 8.7,-1.2 4.3,-9.3 c 2.3,-5.2 4.3,-9.4 4.5,-9.4 0.2,0 2.4,4 4.9,8.9 z m 147.4,61.9 3.4,6.9 7.4,0.7 c 11.4,1.1 11.3,1 4.2,8.2 l -6.3,6.3 1.3,6.8 c 0.7,3.7 1.5,7.8 1.8,9.1 0.5,2.2 0.2,2.1 -7.8,-1.8 l -8.4,-4.2 -7.4,4.1 c -4.1,2.3 -7.6,3.9 -7.9,3.6 -0.3,-0.3 0,-4.2 0.7,-8.7 l 1.3,-8.2 -6.5,-6.3 c -7.2,-7 -7.4,-6.5 4,-8.3 l 7.2,-1.2 3.7,-7.9 c 2.6,-5.5 4.1,-7.6 4.8,-7 0.6,0.6 2.7,4.1 4.5,7.9 z m -347.8,19.6 c 2.5,4.7 4,5.6 10.2,5.6 h 3.9 l -4,4.8 c -4,4.7 -4,4.9 -3,9.6 0.5,2.6 0.8,5 0.5,5.2 -0.2,0.3 -2.6,-0.5 -5.2,-1.8 l -4.7,-2.3 -5,2.8 -5.1,2.9 0.7,-6 0.7,-5.9 -4.1,-3.7 c -2.2,-2 -4,-3.8 -4,-4 0,-0.3 2.5,-0.8 5.5,-1.1 5.5,-0.7 5.6,-0.8 7.6,-5.6 1.2,-2.7 2.5,-4.9 2.9,-4.9 0.4,0 1.8,2 3.1,4.4 z" id="path16" style="fill:#000000;stroke:none;stroke-width:0.1" />
    <path d="m 776.5,492.9 c -11.2,2.9 -18.4,12.5 -19.3,25.7 -0.5,8.5 0.7,12.7 5.3,18.1 5.3,6.2 12.1,8.8 23,8.8 12.4,0 13.3,-0.7 16.4,-12.4 1.3,-5 2.2,-9.3 2,-9.5 -0.6,-0.5 -18.6,-5.6 -19.8,-5.6 -0.9,0 -3.6,6.8 -2.9,7.5 0.1,0.2 2.6,1 5.3,1.8 4.5,1.3 5,1.7 4.8,4.2 -0.3,4.2 -1.8,5 -8.6,5 -12.6,0 -18.2,-8.5 -14.3,-21.8 3,-10.2 9.3,-14.7 18.1,-12.7 4.4,1 9.5,5.8 9.5,8.9 0,1.3 1,2 3.8,2.5 6.9,1.1 7.1,1 6.5,-3.2 -0.8,-5.2 -2.8,-8.7 -6.6,-11.6 -6,-4.6 -17,-7.3 -23.2,-5.7 z" id="path17" style="fill:#000000;stroke:none;stroke-width:0.1" />
    <path d="m 831.7,514.3 c -2.4,2.9 -10.3,12.5 -17.5,21.4 l -13.1,16.2 4,1.1 c 2.2,0.6 4.6,1.3 5.3,1.6 0.8,0.3 2.9,-1.6 5,-4.5 l 3.7,-4.9 9.7,3.2 9.7,3.3 0.3,5.4 c 0.2,2.9 0.7,5.8 1.2,6.5 1.1,1.2 9,3.8 9.7,3.1 0.4,-0.5 -2.3,-42.4 -3.3,-50.3 -0.4,-3.8 -0.7,-4.1 -5.4,-5.6 l -5,-1.6 z m 6.3,19.4 c 0,4.6 -0.4,8.3 -0.9,8.3 -0.7,0 -5.3,-1.5 -10.9,-3.5 -0.9,-0.3 0.6,-2.9 4.4,-8 3.9,-5 6.1,-7.1 6.6,-6.2 0.4,0.6 0.8,4.9 0.8,9.4 z" id="path18" style="fill:#000000;stroke:none;stroke-width:0.1" />
    <path d="m 872.1,524.2 c -7.4,19.6 -16,45.3 -15.4,45.8 0.4,0.4 5.5,2.5 11.3,4.6 12.9,4.7 19.5,5.1 25.4,1.5 5.1,-3.2 9.2,-9.1 11.6,-16.9 4.2,-13.6 1.4,-23.4 -8.2,-28.3 -3,-1.5 -22.5,-8.9 -23.6,-8.9 -0.1,0 -0.6,1 -1.1,2.2 z m 16.1,12.5 c 8.7,3.9 10.2,7.6 7.3,17.7 -2.3,7.9 -6.7,14.3 -10.4,15.1 -3,0.6 -17.4,-3.2 -16.9,-4.5 0.2,-0.4 2.7,-7.5 5.7,-15.8 3.6,-10 6,-15.2 6.9,-15.2 0.8,0 4.1,1.2 7.4,2.7 z" id="path19" style="fill:#000000;stroke:none;stroke-width:0.1" />
    <path d="m 927.8,546.4 c -7.7,2.8 -11.9,7.1 -16,16.2 -3.1,6.9 -3.1,17.3 0,23.2 3.9,7.3 14.7,13.2 24.1,13.2 4.3,0 12.8,-3.8 15.8,-7.1 4.3,-4.8 7.6,-13 8.1,-20.4 0.5,-7.8 -0.8,-11.9 -5.2,-17.2 -5.6,-6.7 -19.3,-10.7 -26.8,-7.9 z m 15.9,10.6 c 6.4,3.9 7.8,10.8 4.3,20.4 -2.4,6.3 -7.3,11.2 -12.4,12.1 -4.7,0.9 -12,-2.4 -14,-6.4 -3.6,-6.9 -0.4,-19.7 6.3,-25.4 4.1,-3.4 10.9,-3.7 15.8,-0.7 z" id="path20" style="fill:#000000;stroke:none;stroke-width:0.1" />
    <path d="m 979.5,566.7 c -5.8,1.6 -9.5,6.7 -9.5,13.1 0,5 2.8,9.2 10.6,15.6 7.7,6.3 9.1,8.7 7.6,12.1 -1.4,3.1 -5.3,4.1 -10.2,2.6 -5,-1.5 -8,-5.3 -8,-10.1 0,-3.6 -0.2,-3.9 -4.7,-5.4 -2.5,-0.9 -4.8,-1.4 -5.1,-1.2 -1,1.1 -0.3,11.5 1.1,14.1 3.4,6.6 12,11.5 21.2,12.2 5.1,0.4 6.5,0.1 9.4,-1.9 7.7,-5.2 9.7,-14.7 4.7,-21.3 -1.5,-2 -5.7,-5.9 -9.2,-8.7 -6.6,-5.1 -8.6,-8.7 -6.4,-11.3 3.7,-4.5 15,1.2 15,7.5 0,2.5 0.6,3.2 3.6,4.5 5.3,2.2 6.2,1.9 7,-2 1.1,-6 -2.8,-12.2 -10.2,-16.2 -5.9,-3.2 -12.9,-4.7 -16.9,-3.6 z" id="path21" style="fill:#000000;stroke:none;stroke-width:0.1" />
    <path d="m 1032.4,606.7 c -4.2,8.7 -9.1,19 -11,23 l -3.3,7.2 4.2,2 c 2.3,1 7.7,3.5 11.9,5.5 9.4,4.4 16.1,4.8 22.3,1.3 7.9,-4.5 14.7,-17.2 14.8,-27.7 0.1,-10.1 -4,-14.6 -20.1,-22.2 -5.7,-2.6 -10.5,-4.8 -10.7,-4.8 -0.2,0 -3.9,7.1 -8.1,15.7 z M 1052,606 c 3.2,1.6 6.6,4 7.4,5.2 2.4,3.4 2,9.6 -1.3,16.3 -3.8,8 -7.4,11.5 -11.9,11.5 -3.6,0 -15.5,-4.8 -15,-6 0.8,-2.1 14.3,-29.9 14.6,-30 0.1,0 2.9,1.3 6.2,3 z" id="path22" style="fill:#000000;stroke:none;stroke-width:0.1" />
    <path d="m 1089,622.3 c -4.6,1.5 -12,8.9 -15,15.2 -3.4,7 -3.9,16.8 -1.2,22.1 6.6,12.7 23.4,18.6 34.6,12 12,-7 18.4,-25.2 12.8,-36.1 -5.6,-11 -19.6,-16.9 -31.2,-13.2 z m 13.2,8.7 c 2.1,0.6 5,2.6 6.8,4.7 3,3.3 3.2,4 2.8,9.4 -0.7,10.3 -8.8,19.9 -16.7,19.9 -7.7,0 -14.1,-6.4 -14.1,-14 0.1,-6.8 6.5,-17 12.5,-19.6 3.7,-1.6 4.1,-1.6 8.7,-0.4 z" id="path23" style="fill:#000000;stroke:none;stroke-width:0.1" />
    <path d="m 1144.2,675 -13.1,22 10.7,6.4 c 15.2,8.9 16.6,9.6 21.2,9.6 8.2,0 14,-5.5 14,-13.2 0,-2.4 -0.7,-5.3 -1.5,-6.5 -1.5,-2.1 -1.4,-2.2 2.4,-3.3 7.8,-2.1 11.4,-10.6 7.6,-17.9 -1.4,-2.7 -10.1,-8.9 -22.6,-15.9 l -5.6,-3.2 z m 25.8,-4.7 c 7.4,4.8 8.7,8 5,11.7 -2.7,2.7 -4.8,2.3 -13,-2.6 l -6.1,-3.5 2.7,-5 c 1.5,-2.7 3.2,-4.9 3.8,-4.9 0.6,0 4,1.9 7.6,4.3 z m -5.4,21.3 c 1.9,1.7 3.4,4.1 3.4,5.3 0,3.3 -4.6,7.4 -7.4,6.7 -3.2,-0.8 -15.6,-7.9 -15.6,-8.9 0,-0.5 1.4,-3.3 3.2,-6.2 l 3.2,-5.4 4.9,2.7 c 2.7,1.5 6.5,4.1 8.3,5.8 z" id="path24" style="fill:#000000;stroke:none;stroke-width:0.1" />
    <path d="m 1189.2,701.4 c -7.3,11.7 -13.2,21.6 -13.2,21.9 0,0.8 6.5,4.7 7.8,4.7 0.6,0 3.4,-3.8 6.3,-8.5 2.8,-4.7 5.4,-8.5 5.8,-8.5 0.3,0 1.9,1 3.4,2.3 3.4,2.7 4.6,7.6 4.7,19.5 v 8.2 l 4.7,3 c 2.6,1.7 5.1,3 5.6,3 1.2,0 0.1,-20.9 -1.3,-24.5 l -1,-2.5 5.3,0.6 c 4.4,0.5 5.7,0.2 8.6,-1.8 7.6,-5.2 9.2,-15 3.5,-20.9 -2.5,-2.6 -18.3,-13.1 -25,-16.7 -1.9,-1 -3,0.5 -15.2,20.2 z m 23.2,-5.3 c 7.1,4.4 9.6,6.9 9.6,9.7 0,3.3 -2.7,6.2 -5.8,6.2 -2.4,0 -14.5,-6.1 -15.6,-7.9 -0.5,-0.7 5.4,-11.1 6.3,-11.1 0.2,0 2.7,1.4 5.5,3.1 z" id="path25" style="fill:#000000;stroke:none;stroke-width:0.1" />
    <path d="m 1237.6,732.6 c -12,8.4 -22,15.5 -22.3,15.7 -0.2,0.3 1.5,1.9 3.9,3.5 l 4.4,3 4.4,-3.4 c 2.5,-1.8 5,-3.4 5.5,-3.4 0.9,0 17.5,10.7 17.5,11.3 0,0.1 -0.7,2.7 -1.5,5.7 -0.8,3 -1.5,5.6 -1.5,5.7 0,0.5 9.2,6.5 9.4,6.1 0.1,-0.1 2.8,-12.2 5.9,-26.8 l 5.6,-26.5 -2.2,-1.6 c -6.9,-5.5 -5,-6.2 -29.1,10.7 z M 1257,732 c 0,0.6 -0.9,4.9 -2.1,9.5 l -2.1,8.4 -5.4,-3.6 c -3,-2 -5.3,-4 -5.2,-4.4 0.4,-1 13,-10.8 14.1,-10.8 0.4,-0.1 0.7,0.4 0.7,0.9 z" id="path26" style="fill:#000000;stroke:none;stroke-width:0.1" />
    <path d="m 1288.5,746 c -4.9,2.4 -7.5,6.5 -7.5,11.5 0,4.9 1.9,8.6 8.5,16.8 3,3.8 5.5,7.4 5.5,8 0,2.9 -3.2,5.7 -6.3,5.7 -7.3,0 -13.6,-7.4 -11.7,-13.9 0.8,-2.9 0.6,-3.2 -3.3,-5.6 l -4.2,-2.4 -1.1,2.2 c -2,3.9 -2.6,8.4 -1.5,12.5 2.3,8.5 16,17.9 24.5,17 8.1,-0.9 13.6,-7.2 13.6,-15.5 0,-4.3 -1.7,-7.4 -8.9,-16.4 -2.8,-3.5 -5.1,-7.3 -5.1,-8.6 0,-3.4 3.2,-4.7 7.3,-2.9 5.4,2.2 7.9,5.5 7.5,9.9 -0.2,3.5 0.1,4 3.9,6.3 l 4.2,2.5 1.1,-2.2 c 3.2,-5.9 0.3,-15.1 -6.3,-20.1 -8.2,-6.3 -14.4,-7.8 -20.2,-4.8 z" id="path27" style="fill:#000000;stroke:none;stroke-width:0.1" />
    <path d="m 1315.5,789.2 -14.9,20.1 3.4,2.8 c 1.9,1.6 3.8,2.9 4.2,2.9 0.4,0 7.6,-9.1 15.9,-20.2 l 15.2,-20.1 -3.4,-2.8 c -1.9,-1.6 -3.8,-2.8 -4.4,-2.8 -0.5,0 -7.7,9 -16,20.1 z" id="path28" style="fill:#000000;stroke:none;stroke-width:0.1" />
    <path d="m 1332.2,801.1 c -7.9,10.5 -14.5,19.6 -14.8,20.3 -0.3,0.8 5.1,5.5 13.7,11.9 l 14.2,10.7 2.4,-3.2 c 1.2,-1.8 2.3,-3.4 2.3,-3.7 0,-0.3 -4.4,-3.8 -9.6,-7.6 -5.3,-3.9 -9.8,-7.3 -10,-7.7 -0.3,-0.4 5.2,-8.2 12,-17.4 l 12.6,-16.7 -3.8,-2.8 c -2,-1.6 -3.9,-2.9 -4.2,-2.9 -0.3,0 -7,8.6 -14.8,19.1 z" id="path29" style="fill:#000000;stroke:none;stroke-width:0.1" />
  </g>
</svg>
