<svg viewBox="0 0 31.999999 32" version="1.1" width="32" height="32" xmlns="http://www.w3.org/2000/svg" xmlns:svg="http://www.w3.org/2000/svg">
  <g transform="matrix(0.57417492,0,0,0.57417492,-9.2575785e-4,-6.9645663)">
    <path d="m 21.68,12.75 c -1.46,0.52 -2.72,1.48 -3.61,2.75 -1.96,2.76 -1.64,4.69 1.35,7.98 3.72,4.19 5.9,8.51 7.84,15.66 l 0.29,1.03 0.46,-1.03 c 1,-2.45 1.82,-4.96 2.48,-7.53 1.45,-5.67 1.61,-12.27 0.37,-15.18 -0.83,-1.67 -2.29,-2.94 -4.07,-3.52 -1.66,-0.5 -3.42,-0.56 -5.11,-0.17 z" />
    <path d="m 46.31,25.79 c -1.24,0.62 -2.19,1.82 -3.5,4.44 -2.48,5.03 -5.21,8.1 -10.58,12.19 -0.68,0.47 -1.33,0.99 -1.93,1.55 2.39,0.01 4.78,-0.12 7.15,-0.4 7.01,-0.69 14.16,-3.19 16.47,-5.69 1.5,-1.58 2.12,-3.79 1.67,-5.91 -0.71,-3.87 -3.31,-6.34 -6.91,-6.55 -0.81,-0.16 -1.65,-0.03 -2.38,0.37 z" />
    <path class="b" d="m 5.22,32.43 c -3.83,0.74 -6.36,5.95 -4.7,9.6 0.67,1.46 1.79,2.67 3.2,3.46 1.7,0.32 3.45,0.04 4.96,-0.81 4.08,-1.93 8.57,-2.83 13.08,-2.63 4.89,0 4.81,0.2 1.24,-2.48 C 17.85,35.73 13.4,33.53 8.82,32.6 6.54,32.15 6.58,32.15 5.22,32.43 Z" />
    <path d="m 23.67,46.69 c -3.01,0.98 -5.95,2.19 -8.79,3.6 -3.89,2.01 -7.2,4.96 -7.9,7.01 -0.87,2.83 0.03,5.91 2.28,7.84 1.19,1.05 2.75,1.59 4.34,1.49 3.24,0 4.82,-1.7 5.59,-5.86 1.07,-4.99 3.39,-9.63 6.74,-13.48 0.5,-0.55 0.95,-1.15 1.34,-1.79 -0.12,0 -1.72,0.55 -3.61,1.2 z" />
    <path d="m 29.61,51.1 c 2.33,7.02 4.48,11.16 7.32,14.04 1.6,1.94 4.17,2.78 6.61,2.17 1.43,-0.24 2.77,-0.87 3.88,-1.8 2.48,-2.24 3.24,-7.19 1.24,-9.27 C 48,55.52 47.42,55.25 44.94,54.65 40.96,53.63 37.3,51.97 31.6,48.59 l -3.48,-2.07 c 0.42,1.55 0.92,3.09 1.5,4.59 z" />
  </g>
</svg>
