<?xml version="1.0" encoding="UTF-8"?><svg id="a" xmlns="http://www.w3.org/2000/svg" viewBox="0 0 247.99 80"><defs><style>.b{stroke-width:0px;}</style></defs><path class="b" d="m21.68,12.75c-1.46.52-2.72,1.48-3.61,2.75-1.96,2.76-1.64,4.69,1.35,7.98,3.72,4.19,5.9,8.51,7.84,15.66l.29,1.03.46-1.03c1-2.45,1.82-4.96,2.48-7.53,1.45-5.67,1.61-12.27.37-15.18-.83-1.67-2.29-2.94-4.07-3.52-1.66-.5-3.42-.56-5.11-.17Z"/><path class="b" d="m195.71,17.46l-.5.4v21.54c0,15.09,0,21.69.19,22.06.3.58.87.96,1.51,1.02.28-.07.55-.2.77-.4.47-.37.5-.56.6-3.42l.11-3.03,1.14,1.48c2.88,3.86,7.5,6.02,12.31,5.74,5.64-.32,10.64-3.75,12.97-8.9,1.98-4.55,2.08-9.7.27-14.32-1.35-3.09-3.63-5.69-6.51-7.44-3.13-1.78-6.8-2.39-10.34-1.72-3.46.85-6.53,2.86-8.68,5.7l-1.18,1.39-.11-9.92-.1-9.86-.5-.4c-.57-.5-1.44-.46-1.96.09Zm17.95,15.88c4.43,1.23,7.86,4.76,8.95,9.22.5,2.67.5,5.41,0,8.08-1.02,4.43-4.43,7.91-8.83,9.04-2.28.43-4.63.33-6.86-.31-3.9-1.35-6.95-4.45-8.23-8.38-.49-1.45-.68-2.98-.56-4.5-.15-1.51.05-3.03.57-4.45.67-2.04,1.83-3.88,3.38-5.37,1.64-1.57,3.64-2.71,5.83-3.32,1.89-.39,3.85-.4,5.74-.01Z"/><path class="b" d="m159.77,18.83c-.43.42-.52.71-.52,1.66,0,1.43.25,1.92,1.14,2.29,1.43.61,2.59-.41,2.59-2.27.14-1.07-.62-2.05-1.69-2.19-.06,0-.13-.01-.19-.01-.5-.04-.99.15-1.33.52Z"/><path class="b" d="m76.04,22.67c-7.45,1.09-13.64,6.29-16.01,13.43-3.64,10.53,1.89,22.03,12.4,25.74,2.33.82,4.81,1.15,7.28.98,4.99-.18,9.71-2.33,13.12-5.99,3.76-3.74,5.81-8.86,5.68-14.16.11-3.16-.61-6.3-2.1-9.1-2.68-5.35-7.6-9.24-13.43-10.61-2.29-.39-4.63-.48-6.94-.29Zm6.82,4.03c1.1.35,2.18.79,3.21,1.3,1.47.68,2.78,1.65,3.86,2.86,1.99,1.81,3.48,4.12,4.3,6.68.6,1.58.83,3.28.67,4.96.21,2.58-.33,5.16-1.54,7.44-2.11,4.4-6.07,7.63-10.8,8.8-2.91.63-5.93.52-8.79-.31-5.26-1.81-9.28-6.13-10.71-11.51-.59-2.68-.63-5.45-.12-8.15,1.52-6.13,6.38-10.87,12.55-12.25,2.45-.35,4.94-.3,7.38.15h0Z"/><path class="b" d="m46.31,25.79c-1.24.62-2.19,1.82-3.5,4.44-2.48,5.03-5.21,8.1-10.58,12.19-.68.47-1.33.99-1.93,1.55,2.39.01,4.78-.12,7.15-.4,7.01-.69,14.16-3.19,16.47-5.69,1.5-1.58,2.12-3.79,1.67-5.91-.71-3.87-3.31-6.34-6.91-6.55-.81-.16-1.65-.03-2.38.37Z"/><path class="b" d="m111.4,30.54c-2.58.43-5.08,1.21-7.44,2.34-.61.5-.69,1.4-.19,2.01.15.18.34.32.56.41.45.19.76.12,1.76-.31,2.34-1.07,4.87-1.65,7.44-1.7,1.37-.12,2.75-.04,4.1.24,4.5,1.05,6.99,4.24,6.99,8.98.03.5.03,1.01,0,1.51,0,0-.98-.19-2.06-.42-4.79-.97-10.32-1.09-13.55-.22-4.4,1.14-7.19,3.62-8.13,7.17-1.19,4.43,1.07,9.06,5.29,10.85,2.31,1.14,4.88,1.63,7.44,1.43,3.64-.05,7.11-1.56,9.62-4.19l1.39-1.45v2c-.05.84.05,1.67.27,2.48.35.66,1.15.95,1.84.64,1-.38,1.04-1.02.94-12.05-.1-11.03-.11-11.16-1.41-13.85-1.54-2.81-4.21-4.83-7.34-5.55-2.49-.42-5.01-.52-7.53-.3Zm9.5,15.52c1.24.24,2.74.52,3.17.64l.77.22v1.7c0,3.82-.73,5.89-2.79,7.92-2.42,2.31-5.67,3.57-9.01,3.48-5.96,0-9.92-3.57-9.11-8.31.47-3.07,2.84-5.15,6.73-5.95,3.41-.38,6.86-.29,10.24.29Z"/><path class="b" d="m139.32,30.62c-3.47.76-6.15,3.51-6.82,6.99-.47,2.18.21,4.45,1.81,6.01,1.67,1.6,3.48,2.48,8.28,3.83,2.58.61,5.03,1.65,7.27,3.07,1.1.94,1.65,2.37,1.46,3.81,0,1.32-.54,2.57-1.51,3.46-1.88,1.64-4.37,2.4-6.84,2.07-3.1-.2-6.1-1.21-8.68-2.94-.56-.39-1.17-.71-1.81-.94-.77.14-1.34.78-1.39,1.56,0,.89.89,1.65,3.42,2.9,10.24,5.03,20.58,1.12,19.96-7.56-.27-3.47-2.72-5.82-7.84-7.44l-4.29-1.36c-1.92-.48-3.73-1.32-5.33-2.48-2.59-2.16-1.82-6.05,1.5-7.74,3.1-1.55,7.44-1.14,11.94,1.24,1.82.93,2.48.91,3-.11s.12-1.59-1.33-2.38c-1.94-.93-3.98-1.64-6.08-2.12-2.24-.27-4.51-.23-6.73.12Z"/><path class="b" d="m175.11,30.7c-2.47.69-4.57,2.31-5.86,4.53-1,2.06-1.09,4.45-.25,6.58,1.15,2.41,3.5,3.78,9.82,5.73,5.83,1.79,7.18,2.48,8.13,4.48.99,2.12.36,4.64-1.5,6.05-1.55,1.39-2.84,1.79-5.78,1.79-1.29.06-2.58-.07-3.83-.37-1.98-.61-3.88-1.47-5.64-2.57-.42-.29-.86-.55-1.33-.77-.78-.22-1.59.24-1.8,1.02-.09.31-.07.64.05.94.55,1.33,5.36,3.6,9.22,4.36,2.23.35,4.5.32,6.72-.1,2.72-.6,5.07-2.32,6.45-4.75,1.66-3.37,1.24-6.79-1.12-9.01-1.87-1.76-3.05-2.32-8.57-4-4.14-1.24-5.72-1.95-6.91-3-1.55-1.28-1.94-3.5-.91-5.23,1.1-2.22,3.25-3.25,6.72-3.24,2.6-.02,5.17.63,7.44,1.9,1.76.87,1.96.93,2.48.68.38-.18.68-.48.87-.86.25-.4.19-.92-.15-1.24-.52-.73-2.99-1.93-5.37-2.65-2.91-.74-5.95-.83-8.9-.26Z"/><path class="b" d="m244.55,30.54c-4.33,1.1-7.99,3.98-10.07,7.94l-.61,1.08v-3.96c0-3.57,0-4.03-.4-4.46-.62-.59-1.58-.65-2.26-.12-.33.36-.35,1.41-.35,15.49,0,16.65-.09,15.61,1.24,15.88.46.16.96,0,1.24-.4l.53-.53v-7.12c0-7.44.1-8.68.93-11.32,1.55-5,5.88-8.63,11.07-9.29,1.48-.19,2.1-.72,2.1-1.74-.01-1.44-1.13-1.88-3.43-1.45Z"/><path class="b" d="m160.2,30.98l-.55.41v30.23l.55.42c.46.5,1.25.53,1.75.07.02-.02.05-.05.07-.07l.55-.42v-30.27l-.55-.41c-.41-.5-1.15-.58-1.66-.17-.06.05-.12.1-.17.17v.04Z"/><path class="b" d="m5.22,32.43c-3.83.74-6.36,5.95-4.7,9.6.67,1.46,1.79,2.67,3.2,3.46,1.7.32,3.45.04,4.96-.81,4.08-1.93,8.57-2.83,13.08-2.63,4.89,0,4.81.2,1.24-2.48-5.15-3.84-9.6-6.04-14.18-6.97-2.28-.45-2.24-.45-3.6-.17Z"/><path class="b" d="m23.67,46.69c-3.01.98-5.95,2.19-8.79,3.6-3.89,2.01-7.2,4.96-7.9,7.01-.87,2.83.03,5.91,2.28,7.84,1.19,1.05,2.75,1.59,4.34,1.49,3.24,0,4.82-1.7,5.59-5.86,1.07-4.99,3.39-9.63,6.74-13.48.5-.55.95-1.15,1.34-1.79-.12,0-1.72.55-3.61,1.2Z"/><path class="b" d="m29.61,51.1c2.33,7.02,4.48,11.16,7.32,14.04,1.6,1.94,4.17,2.78,6.61,2.17,1.43-.24,2.77-.87,3.88-1.8,2.48-2.24,3.24-7.19,1.24-9.27-.66-.72-1.24-.99-3.72-1.59-3.98-1.02-7.64-2.68-13.34-6.06l-3.48-2.07c.42,1.55.92,3.09,1.5,4.59Z"/></svg>