<svg id="Camada_1" data-name="Camada 1" xmlns="http://www.w3.org/2000/svg" viewBox="0 0 200 80"><path d="M17.49,18a6,6,0,0,0-2.91,2.22C13,22.45,13.26,24,15.67,26.66c3,3.38,4.76,6.86,6.32,12.63l.23.83.37-.83a47.14,47.14,0,0,0,2-6.07c1.17-4.57,1.3-9.9.3-12.24a5.59,5.59,0,0,0-3.28-2.84A8.09,8.09,0,0,0,17.49,18Z"/><path d="M157.85,21.8l-.4.32,0,17.37c0,12.17,0,17.49.15,17.79a1.52,1.52,0,0,0,1.22.82,1.46,1.46,0,0,0,.62-.32c.38-.3.4-.45.48-2.76l.09-2.44.92,1.19a11.56,11.56,0,0,0,9.93,4.63,12.25,12.25,0,0,0,10.46-7.18,15.14,15.14,0,0,0,.22-11.55,13.22,13.22,0,0,0-5.25-6,12.3,12.3,0,0,0-8.34-1.39,12.5,12.5,0,0,0-7,4.6L160,38l-.09-8-.08-7.95-.4-.32A1.14,1.14,0,0,0,157.85,21.8Zm14.48,12.81a10.25,10.25,0,0,1,7.22,7.44,17.86,17.86,0,0,1,0,6.52,9.8,9.8,0,0,1-7.12,7.29,12,12,0,0,1-5.53-.25,10.66,10.66,0,0,1-6.64-6.76,8.92,8.92,0,0,1-.45-3.63,8.08,8.08,0,0,1,.46-3.59A10.56,10.56,0,0,1,163,37.3a11.09,11.09,0,0,1,4.7-2.68A11.56,11.56,0,0,1,172.33,34.61Z"/><path d="M128.86,22.9c-.35.34-.42.57-.42,1.34,0,1.15.2,1.55.92,1.85,1.15.49,2.09-.33,2.09-1.83a1.58,1.58,0,0,0-1.52-1.78A1.3,1.3,0,0,0,128.86,22.9Z"/><path d="M61.33,26A16.05,16.05,0,0,0,48.42,36.83a16.35,16.35,0,0,0,10,20.76,14.57,14.57,0,0,0,5.87.79,15.21,15.21,0,0,0,10.58-4.83,15.57,15.57,0,0,0,4.58-11.42,14.6,14.6,0,0,0-1.69-7.34,16.29,16.29,0,0,0-10.83-8.56A22.29,22.29,0,0,0,61.33,26Zm5.5,3.25a18.5,18.5,0,0,1,2.59,1.05,9.48,9.48,0,0,1,3.11,2.31A12.45,12.45,0,0,1,76,38a8.94,8.94,0,0,1,.54,4,10.93,10.93,0,0,1-1.24,6,13.18,13.18,0,0,1-8.71,7.1,14.52,14.52,0,0,1-7.09-.25,13.48,13.48,0,0,1-8.64-9.28A16.41,16.41,0,0,1,50.76,39a13.45,13.45,0,0,1,10.12-9.88A18.31,18.31,0,0,1,66.83,29.24Z"/><path d="M37.35,28.52c-1,.5-1.77,1.47-2.82,3.58-2,4.06-4.2,6.53-8.53,9.83a14.4,14.4,0,0,0-1.56,1.25,47.13,47.13,0,0,0,5.77-.32c5.65-.56,11.42-2.57,13.28-4.59a5.33,5.33,0,0,0,1.35-4.77c-.57-3.12-2.67-5.11-5.57-5.28A2.86,2.86,0,0,0,37.35,28.52Z"/><path d="M89.85,32.35a22.27,22.27,0,0,0-6,1.89,1.15,1.15,0,0,0,.3,1.95c.36.15.61.1,1.42-.25a15.2,15.2,0,0,1,6-1.37,11.34,11.34,0,0,1,3.31.19c3.63.85,5.64,3.42,5.64,7.24a11.23,11.23,0,0,1,0,1.22s-.79-.15-1.66-.34C95,42.1,90.54,42,87.93,42.7c-3.55.92-5.8,2.92-6.56,5.78a7.41,7.41,0,0,0,4.27,8.75,11.46,11.46,0,0,0,6,1.15A10.93,10.93,0,0,0,99.4,55l1.12-1.17v1.61a6.11,6.11,0,0,0,.22,2,1.15,1.15,0,0,0,1.48.52c.81-.31.84-.82.76-9.72s-.09-9-1.14-11.17a9.09,9.09,0,0,0-5.92-4.48A24.14,24.14,0,0,0,89.85,32.35Zm7.66,12.52c1,.19,2.21.42,2.56.52l.62.18v1.37c0,3.08-.59,4.75-2.25,6.39a10.17,10.17,0,0,1-7.27,2.81c-4.81,0-8-2.88-7.35-6.7.38-2.48,2.29-4.15,5.43-4.8A29.73,29.73,0,0,1,97.51,44.87Z"/><path d="M112.37,32.41a7.16,7.16,0,0,0-5.5,5.64,5.24,5.24,0,0,0,1.46,4.85c1.35,1.29,2.81,2,6.68,3.09a19,19,0,0,1,5.86,2.48,3.47,3.47,0,0,1,1.18,3.07,3.74,3.74,0,0,1-1.22,2.79A7,7,0,0,1,115.31,56a14.19,14.19,0,0,1-7-2.37,6.24,6.24,0,0,0-1.46-.76,1.36,1.36,0,0,0-1.12,1.26c0,.72.72,1.33,2.76,2.34,8.26,4.06,16.6.9,16.1-6.1-.22-2.8-2.19-4.69-6.32-6l-3.46-1.1a12.51,12.51,0,0,1-4.3-2c-2.09-1.74-1.47-4.88,1.21-6.24,2.5-1.25,6-.92,9.63,1,1.47.75,2,.73,2.42-.09s.1-1.28-1.07-1.92a23.72,23.72,0,0,0-4.9-1.71A19.44,19.44,0,0,0,112.37,32.41Z"/><path d="M141.23,32.48a7.93,7.93,0,0,0-4.73,3.65,6.58,6.58,0,0,0-.2,5.31c.93,1.94,2.82,3.05,7.92,4.62,4.7,1.44,5.79,2,6.56,3.61a4,4,0,0,1-1.21,4.88c-1.25,1.12-2.29,1.44-4.66,1.44a11.15,11.15,0,0,1-3.09-.3,19.43,19.43,0,0,1-4.55-2.07A7.57,7.57,0,0,0,136.2,53a1.18,1.18,0,0,0-1.41,1.58c.44,1.07,4.32,2.9,7.44,3.52a15.83,15.83,0,0,0,5.42-.08,7.94,7.94,0,0,0,5.2-3.83c1.34-2.72,1-5.48-.9-7.27-1.51-1.42-2.46-1.87-6.91-3.23-3.34-1-4.61-1.57-5.57-2.42a3.29,3.29,0,0,1-.73-4.22c.89-1.79,2.62-2.62,5.42-2.61a12.12,12.12,0,0,1,6,1.53c1.42.7,1.58.75,2,.55a1.51,1.51,0,0,0,.7-.69.79.79,0,0,0-.12-1c-.42-.59-2.41-1.56-4.33-2.14A16.55,16.55,0,0,0,141.23,32.48Z"/><path d="M197.24,32.35a12.72,12.72,0,0,0-8.12,6.4l-.49.87V36.43c0-2.88,0-3.25-.32-3.6a1.4,1.4,0,0,0-1.82-.1c-.27.29-.28,1.14-.28,12.49,0,13.43-.07,12.59,1,12.81a.87.87,0,0,0,1-.32l.43-.43V51.54c0-6,.08-7,.75-9.13a10.75,10.75,0,0,1,8.93-7.49c1.19-.15,1.69-.58,1.69-1.4C200,32.36,199.1,32,197.24,32.35Z"/><path d="M129.21,32.7l-.44.33V57.41l.44.34a1,1,0,0,0,1.47,0l.44-.34V33l-.44-.33a.95.95,0,0,0-1.47,0Z"/><path d="M4.21,33.87c-3.09.6-5.13,4.8-3.79,7.74A6.14,6.14,0,0,0,3,44.4a5.91,5.91,0,0,0,4-.65,22.27,22.27,0,0,1,10.55-2.12c3.94,0,3.88.16,1-2-4.15-3.1-7.74-4.87-11.44-5.62C5.27,33.65,5.3,33.65,4.21,33.87Z"/><path d="M19.09,45.37A52.63,52.63,0,0,0,12,48.27c-3.14,1.62-5.81,4-6.37,5.65a6,6,0,0,0,1.84,6.32,4.83,4.83,0,0,0,3.5,1.2c2.61,0,3.89-1.37,4.51-4.73a24.28,24.28,0,0,1,5.44-10.87A9.9,9.9,0,0,0,22,44.4C21.9,44.4,20.61,44.84,19.09,45.37Z"/><path d="M23.88,48.93c1.88,5.66,3.61,9,5.9,11.32A5.26,5.26,0,0,0,35.11,62a6.6,6.6,0,0,0,3.13-1.45c2-1.81,2.61-5.8,1-7.48-.53-.58-1-.8-3-1.28-3.21-.82-6.16-2.16-10.76-4.89l-2.81-1.67A36.28,36.28,0,0,0,23.88,48.93Z"/></svg>