<?xml version="1.0" encoding="UTF-8" standalone="no"?>
<!DOCTYPE svg PUBLIC "-//W3C//DTD SVG 1.1//EN" "http://www.w3.org/Graphics/SVG/1.1/DTD/svg11.dtd">
<!-- Created with Vectornator (http://vectornator.io/) -->
<svg height="100%" stroke-miterlimit="10" style="fill-rule:nonzero;clip-rule:evenodd;stroke-linecap:round;stroke-linejoin:round;" version="1.1" viewBox="0 0 152.8 80" width="100%" xml:space="preserve" xmlns="http://www.w3.org/2000/svg" xmlns:xlink="http://www.w3.org/1999/xlink">
<defs/>
<path d="M0 0L152.8 0L152.8 80L0 80L0 0Z" fill="#000000" fill-opacity="0" fill-rule="nonzero" opacity="1" stroke="none"/>
<clipPath id="ArtboardFrame">
<rect height="80" width="152.8" x="0" y="0"/>
</clipPath>
<g clip-path="url(#ArtboardFrame)" id="Sem-Título">
<g opacity="1">
<path d="M28.9509 16.6338C12.8204 16.6338-3.55271e-15 30.0453-3.55271e-15 48.1373C-3.55271e-15 66.2293 12.1204 79.5408 29.0009 79.5408L29.0009 79.5408C45.1313 79.5408 58.0017 66.1193 58.0017 48.0273C57.9017 30.1553 45.7814 16.6338 28.9509 16.6338ZM28.9509 66.0293C20.2306 66.0293 14.2204 58.8085 14.2204 48.1373C14.2204 37.4661 20.2206 30.1353 28.9509 30.1353C37.6811 30.1353 43.6813 37.3661 43.6813 48.0373C43.6813 58.7085 37.6611 66.0293 28.9509 66.0293Z" fill="#000000" fill-rule="nonzero" opacity="1" stroke="none"/>
<path d="M100.473 52.5078L100.473 43.6668C100.564 42.8423 100.279 42.0206 99.6972 41.4292C99.1155 40.8378 98.2988 40.5394 97.4729 40.6165L78.9323 40.6165L78.9323 3.0123C79.007 2.19594 78.715 1.38862 78.1354 0.80896C77.5558 0.229297 76.7485-0.0627275 75.9323 0.0119666L66.812 0.0119666C65.9861-0.0651467 65.1693 0.233285 64.5877 0.824687C64.006 1.41609 63.7212 2.23775 63.8119 3.06231L63.8119 49.4575C63.8119 53.4579 65.912 55.5582 69.8121 55.5582L97.4529 55.5582C98.2821 55.6417 99.1046 55.3462 99.691 54.7539C100.277 54.1617 100.565 53.3362 100.473 52.5078Z" fill="#000000" fill-rule="nonzero" opacity="1" stroke="none"/>
<path d="M151.765 68.2696L133.834 47.9673L150.164 29.3652C150.839 28.7108 151.194 27.7942 151.137 26.856C151.079 25.9178 150.614 25.0516 149.864 24.4847L143.754 18.8941C143.14 18.1687 142.219 17.777 141.271 17.8381C140.323 17.8992 139.46 18.4059 138.944 19.2041L124.014 36.7561L108.793 19.1741C107.383 17.5439 105.583 17.3439 103.983 18.8641L97.6729 24.5547C96.0629 26.0849 95.9629 27.7051 97.4629 29.4352L114.103 48.0373L95.9629 68.4696C95.2614 69.11 94.8874 70.0335 94.9457 70.9816C95.004 71.9297 95.4882 72.8005 96.2629 73.3501L102.583 78.9708C103.217 79.6552 104.126 80.0176 105.057 79.9575C105.988 79.8974 106.842 79.4211 107.383 78.6607L124.014 59.2486L140.144 78.6607C141.544 80.3909 143.354 80.3909 144.954 78.9708L151.465 73.1701C152.246 72.621 152.736 71.7458 152.794 70.7921C152.853 69.8384 152.474 68.91 151.765 68.2696Z" fill="#000000" fill-rule="nonzero" opacity="1" stroke="none"/>
</g>
</g>
</svg>
