<svg id="Camada_1" data-name="Camada 1" xmlns="http://www.w3.org/2000/svg" viewBox="0 0 200 80"><path d="M52.56,16.67c-16.13,0-28.95,13.41-28.95,31.5s12.12,31.4,29,31.4h0c16.13,0,29-13.42,29-31.51C81.51,30.19,69.39,16.67,52.56,16.67Zm0,49.39c-8.72,0-14.73-7.22-14.73-17.89s6-18,14.73-18S67.29,37.4,67.29,48.07,61.27,66.06,52.56,66.06Z"/><path d="M124.08,52.54V43.7a2.76,2.76,0,0,0-3-3.05H102.54V3.05a2.76,2.76,0,0,0-3-3H90.42a2.76,2.76,0,0,0-3,3.05V49.49c0,4,2.1,6.1,6,6.1h27.64A2.76,2.76,0,0,0,124.08,52.54Z"/><path d="M175.37,68.3,157.44,48l16.33-18.6a3.22,3.22,0,0,0-.3-4.88l-6.11-5.59a3,3,0,0,0-4.81.31L147.62,36.79,132.4,19.21c-1.41-1.63-3.21-1.83-4.81-.31l-6.31,5.69c-1.61,1.53-1.71,3.15-.21,4.88l16.64,18.6L119.57,68.5a3.14,3.14,0,0,0,.3,4.88L126.19,79a3.1,3.1,0,0,0,4.8-.31l16.63-19.41,16.13,19.41c1.4,1.73,3.21,1.73,4.81.31l6.51-5.8A3.14,3.14,0,0,0,175.37,68.3Z"/></svg>