<?xml version="1.0" encoding="UTF-8"?><svg id="a" xmlns="http://www.w3.org/2000/svg" viewBox="0 0 240 80"><defs><style>.c,.d{stroke-width:0px;}.d{fill-rule:evenodd;}</style></defs><g id="b"><path class="d" d="m76.56,44.29c-.04,5.78-4.76,10.43-10.54,10.39-5.78-.04-10.43-4.76-10.39-10.54.04-5.75,4.71-10.39,10.46-10.39,5.79.01,10.48,4.72,10.46,10.51,0,0,0,.02,0,.02Zm-6.28,0c-.01,2.31-1.9,4.18-4.21,4.16s-4.18-1.9-4.16-4.21c.01-2.3,1.88-4.16,4.19-4.16,2.32,0,4.19,1.89,4.19,4.21h0Zm15.08,17.46h-7.2v-27.6h7.15v3.5h.16c.86-2.34,3.13-3.86,5.62-3.77,3.95,0,7.8,3.04,7.8,10.31s-3.6,10.32-7.85,10.32c-2.43.1-4.66-1.34-5.57-3.6h-.11v10.84Zm3.02-22.36c-1.98,0-3.18,1.79-3.18,4.8s1.2,4.8,3.18,4.8,3.12-1.78,3.12-4.8-1.15-4.8-3.12-4.8Zm31.75,8.33c-.67,4.19-4.24,6.85-9.78,6.85-6.4,0-10.3-3.85-10.3-10.36s3.96-10.37,10.14-10.37,9.94,3.91,9.94,10.31v1.68h-13v.31c-.11,1.74,1.21,3.24,2.95,3.35.14,0,.28,0,.42,0,1.3.13,2.54-.58,3.07-1.78h6.55Zm-9.74-8.8c-1.67-.1-3.11,1.18-3.21,2.85,0,.03,0,.05,0,.08h6.4c-.04-1.66-1.41-2.97-3.07-2.93-.04,0-.08,0-.11,0Zm18.78,3.98c-.19-1.57.94-3,2.51-3.18.13-.02.27-.02.4-.02,1.81,0,2.88,1.2,2.86,3.2v11.3h7.2v-12.83c0-4.37-2.72-7.54-6.96-7.54-2.72-.15-5.22,1.51-6.14,4.08h-.2v-3.82h-6.82v20.1h7.2l-.05-11.3Zm27.26-8.8h7.54l-6.78,20.1h-8.28l-6.71-20.1h7.55l3.22,13.3h.2l3.26-13.3Zm17.45,20.46c5.53,0,9.1-2.66,9.77-6.85h-6.55c-.54,1.21-1.8,1.93-3.11,1.78-1.75.12-3.26-1.19-3.38-2.94,0-.14-.01-.27,0-.41v-.31h12.98v-1.68c0-6.4-3.9-10.31-9.92-10.31s-10.12,4.15-10.12,10.37,3.9,10.36,10.3,10.36h.04Zm-3.23-12.72c.06-1.68,1.48-2.99,3.16-2.93.02,0,.05,0,.07,0,1.65-.1,3.06,1.15,3.16,2.8,0,.04,0,.08,0,.13h-6.4Zm22.01,12.36h-7.2v-20.1h6.97v3.82h.2c.72-2.82,2.4-4.08,4.52-4.08.62,0,1.23.1,1.82.28v6.16c-.86-.24-1.76-.36-2.65-.36-1.99-.06-3.64,1.51-3.7,3.5,0,.11,0,.21,0,.32l.02,10.48Zm25.85-13.56c-.18-4.25-3.7-6.8-9.47-6.8s-9.23,2.4-9.2,6.54c0,3.17,2.02,5.2,6.08,5.92l3.54.62c1.56.29,2.27.71,2.29,1.48.02.77-.98,1.31-2.29,1.31-1.62,0-2.77-.71-2.96-1.99h-7.13c.4,4.12,3.94,6.85,10.04,6.85,5.52,0,9.6-2.7,9.6-7.01,0-2.98-1.99-4.7-6.08-5.45l-4.06-.73c-1.51-.28-1.94-.83-1.92-1.42,0-.84,1-1.31,2.23-1.31,1.3-.19,2.5.7,2.71,1.99h6.61Zm21.48,7.07c-.67,4.19-4.24,6.85-9.78,6.85-6.4,0-10.3-3.85-10.3-10.36s3.96-10.37,10.14-10.37,9.94,3.91,9.94,10.31v1.68h-13v.31c-.11,1.74,1.21,3.24,2.95,3.35.15,0,.3,0,.45,0,1.3.13,2.54-.58,3.07-1.78h6.53Zm-9.78-8.8c-1.67-.1-3.11,1.18-3.21,2.85,0,.03,0,.05,0,.08h6.4c-.04-1.66-1.41-2.97-3.07-2.93-.04,0-.08,0-.11,0Z"/><path class="c" d="m0,33.98c-.01,4.47,3.6,8.1,8.06,8.11h0v-16.22C3.6,25.87,0,29.5,0,33.96c0,0,0,.02,0,.02Z"/><path class="c" d="m11.75,33.98c-.01,4.47,3.6,8.1,8.06,8.11h0v-16.22c-4.47.01-8.08,3.65-8.06,8.11h0Z"/><path class="c" d="m31.56,42.09c4.48.03,8.13-3.58,8.16-8.06.03-4.48-3.58-8.13-8.06-8.16-4.48-.03-8.13,3.58-8.16,8.06,0,.02,0,.03,0,.05-.02,4.46,3.58,8.09,8.04,8.11,0,0,.02,0,.02,0Z"/><path class="c" d="m0,54.02c-.02,4.46,3.58,8.09,8.04,8.11,0,0,.02,0,.02,0v-16.2C3.6,45.94,0,49.56,0,54.02h0Z"/><path class="c" d="m11.75,53.95c-.01,4.47,3.6,8.1,8.06,8.11h0v-16.2c-4.46.01-8.06,3.63-8.06,8.09Z"/><path class="c" d="m31.56,62.06c4.48.03,8.13-3.58,8.16-8.06.03-4.48-3.58-8.13-8.06-8.16-4.48-.03-8.13,3.58-8.16,8.06,0,.02,0,.03,0,.05-.02,4.46,3.58,8.09,8.04,8.11,0,0,.02,0,.02,0Z"/></g></svg>