<svg id="Camada_1" data-name="Camada 1" xmlns="http://www.w3.org/2000/svg" viewBox="0 0 200 80"><defs><style>.cls-1{fill-rule:evenodd;}</style></defs><g id="logo"><path class="cls-1" d="M63.8,40.24a8.72,8.72,0,1,1-8.72-8.78A8.74,8.74,0,0,1,63.8,40.24Zm-5.23,0a3.49,3.49,0,1,1-3.49-3.51A3.5,3.5,0,0,1,58.57,40.24ZM71.14,54.79h-6v-23H71.1v2.92h.13a4.8,4.8,0,0,1,4.68-3.14c3.29,0,6.5,2.53,6.5,8.59,0,5.8-3,8.6-6.54,8.6a4.78,4.78,0,0,1-4.64-3h-.09Zm2.52-18.63c-1.65,0-2.65,1.49-2.65,4s1,4,2.65,4,2.6-1.48,2.6-4S75.3,36.16,73.66,36.16Zm26.46,6.94c-.56,3.49-3.53,5.71-8.15,5.71-5.33,0-8.58-3.21-8.58-8.63,0-5.2,3.3-8.64,8.45-8.64s8.28,3.26,8.28,8.59v1.4H89.29v.26a2.63,2.63,0,0,0,2.81,2.79,2.53,2.53,0,0,0,2.56-1.48ZM92,35.77a2.53,2.53,0,0,0-2.68,2.44h5.33A2.5,2.5,0,0,0,92,35.77Zm15.65,3.32a2.39,2.39,0,0,1,2.43-2.67c1.51,0,2.4,1,2.38,2.67v9.42h6V37.82c0-3.64-2.27-6.28-5.8-6.28a5.15,5.15,0,0,0-5.12,3.4h-.17V31.76h-5.68V48.51h6Zm22.72-7.33h6.28L131,48.51H124.1l-5.59-16.75h6.29l2.68,11.08h.17Zm14.54,17.05c4.61,0,7.58-2.22,8.14-5.71h-5.46A2.52,2.52,0,0,1,145,44.58a2.64,2.64,0,0,1-2.82-2.79v-.26H153v-1.4c0-5.33-3.25-8.59-8.27-8.59S136.3,35,136.3,40.18C136.3,45.6,139.55,48.81,144.88,48.81Zm-2.69-10.6a2.54,2.54,0,0,1,2.69-2.44,2.49,2.49,0,0,1,2.64,2.44Zm18.34,10.3h-6V31.76h5.81v3.18h.17c.6-2.35,2-3.4,3.77-3.4a5.48,5.48,0,0,1,1.52.23V36.9a8.35,8.35,0,0,0-2.21-.3,3,3,0,0,0-3.08,3.18Zm21.54-11.3c-.15-3.54-3.08-5.67-7.89-5.67s-7.69,2-7.67,5.45c0,2.64,1.68,4.33,5.07,4.93l2.95.52c1.3.24,1.89.59,1.91,1.23s-.82,1.09-1.91,1.09c-1.35,0-2.31-.59-2.47-1.66h-5.94c.33,3.43,3.28,5.71,8.37,5.71,4.6,0,8-2.25,8-5.84,0-2.48-1.66-3.92-5.07-4.54l-3.38-.61c-1.26-.23-1.62-.69-1.6-1.18,0-.7.83-1.09,1.86-1.09a2,2,0,0,1,2.26,1.66ZM200,43.1c-.56,3.49-3.53,5.71-8.15,5.71-5.33,0-8.58-3.21-8.58-8.63,0-5.2,3.3-8.64,8.45-8.64S200,34.8,200,40.13v1.4H189.17v.26A2.63,2.63,0,0,0,192,44.58a2.53,2.53,0,0,0,2.56-1.48Zm-8.15-7.33a2.53,2.53,0,0,0-2.68,2.44h5.33A2.5,2.5,0,0,0,191.85,35.77Z"/><path d="M0,31.65a6.74,6.74,0,0,0,6.72,6.76V24.89A6.73,6.73,0,0,0,0,31.65Z"/><path d="M9.79,31.65a6.74,6.74,0,0,0,6.72,6.76V24.89A6.74,6.74,0,0,0,9.79,31.65Z"/><path d="M26.3,38.41a6.76,6.76,0,1,0-6.72-6.76A6.73,6.73,0,0,0,26.3,38.41Z"/><path d="M0,48.35a6.73,6.73,0,0,0,6.72,6.76V41.61A6.73,6.73,0,0,0,0,48.35Z"/><path d="M9.79,48.29a6.74,6.74,0,0,0,6.72,6.76V41.55A6.74,6.74,0,0,0,9.79,48.29Z"/><path d="M26.3,55.05a6.76,6.76,0,1,0-6.72-6.76A6.73,6.73,0,0,0,26.3,55.05Z"/></g></svg>