<svg id="Camada_1" data-name="Camada 1" xmlns="http://www.w3.org/2000/svg" viewBox="0 0 200 80"><path d="M22.88,17.12A22.88,22.88,0,1,0,45.77,40,22.88,22.88,0,0,0,22.88,17.12ZM11.29,40.77l.1-.16,5.95-9.31a.2.2,0,0,1,.36,0c1,2.23,1.85,5,1.45,6.72A10.27,10.27,0,0,1,18,40.61l-.22.38a.21.21,0,0,1-.17.09H11.46A.2.2,0,0,1,11.29,40.77ZM37.82,44a.23.23,0,0,1-.12.2A7.3,7.3,0,0,0,35,46c-1.67,2.33-3,5.66-5.81,5.66H17.26A7.67,7.67,0,0,1,9.61,44v-.13a.21.21,0,0,1,.21-.21h6.64a.22.22,0,0,1,.22.25,2.2,2.2,0,0,0,.24,1.28,2.33,2.33,0,0,0,2.1,1.3h3.29V43.9H19.05a.21.21,0,0,1-.17-.33L19,43.4c.31-.44.75-1.12,1.19-1.89A17.91,17.91,0,0,0,21,39.87l.12-.3c.06-.18.13-.35.18-.52l.12-.43a6.58,6.58,0,0,0,.15-1.5c0-.2,0-.41,0-.62s0-.44-.07-.67,0-.39-.09-.6-.11-.59-.19-.89l0-.11L21,33.62c-.19-.64-.4-1.26-.63-1.85-.08-.23-.18-.45-.27-.68s-.28-.64-.41-.93l-.18-.37c-.06-.14-.13-.28-.19-.41l-.14-.29-.4-.74a.12.12,0,0,1,.14-.19l2.52.68h0l.33.09.36.1.14,0V27.58a1.3,1.3,0,0,1,1.29-1.31,1.28,1.28,0,0,1,.91.38,1.31,1.31,0,0,1,.38.93V29.8l.27.07.06,0,.28.21.32.26c.24.2.53.45.85.74l.24.22a18.41,18.41,0,0,1,1.3,1.33c.13.13.25.28.37.42s.25.3.36.45.31.4.45.62.14.2.2.3c.18.27.34.55.49.83.07.13.13.27.19.41a6.1,6.1,0,0,1,.38,1.14.74.74,0,0,1,.05.25v0a2,2,0,0,1,.05.35,3.84,3.84,0,0,1-.06,1.17c0,.17-.09.33-.14.5s-.12.32-.19.48a7.3,7.3,0,0,1-.5,1l-.22.35c-.08.12-.17.23-.24.34a4.35,4.35,0,0,1-.33.42,4.24,4.24,0,0,1-.31.4c-.16.18-.31.36-.47.53s-.2.22-.3.32a3,3,0,0,1-.3.31c-.15.16-.29.28-.4.38l-.26.24a.19.19,0,0,1-.13,0h-2v2.57h2.52A2.41,2.41,0,0,0,29,45.91a19.31,19.31,0,0,0,1.55-1.54.21.21,0,0,1,.1-.06l7-2a.2.2,0,0,1,.26.2Z"/><path d="M68.07,51a11.91,11.91,0,0,1-5.71-1.39,10.91,10.91,0,0,1-4.11-3.87,10.74,10.74,0,0,1-1.5-5.62,10.56,10.56,0,0,1,1.5-5.59,10.76,10.76,0,0,1,4.11-3.87,11.92,11.92,0,0,1,5.71-1.4,11.7,11.7,0,0,1,5.67,1.4,10.18,10.18,0,0,1,4.07,3.87,10.48,10.48,0,0,1,1.51,5.59,10.56,10.56,0,0,1-5.58,9.49A11.7,11.7,0,0,1,68.07,51Zm0-4.71a5.46,5.46,0,0,0,4.2-1.7,6.27,6.27,0,0,0,1.59-4.47,6.21,6.21,0,0,0-1.59-4.48,5.49,5.49,0,0,0-4.2-1.69,5.69,5.69,0,0,0-4.27,1.66,6.33,6.33,0,0,0-1.56,4.51,6.38,6.38,0,0,0,1.56,4.5A5.66,5.66,0,0,0,68.07,46.27Z"/><path d="M87.66,36.29a5.75,5.75,0,0,1,2.16-1.91,6.9,6.9,0,0,1,3.23-.72A7.41,7.41,0,0,1,97,34.72a7.29,7.29,0,0,1,2.76,3,9.66,9.66,0,0,1,1,4.57,9.82,9.82,0,0,1-1,4.59A7.5,7.5,0,0,1,97,50,7.41,7.41,0,0,1,93.05,51a7,7,0,0,1-3.23-.72,5.85,5.85,0,0,1-2.16-1.88v7.38H82.3V33.9h5.36Zm7.65,6a4,4,0,0,0-1.13-3,3.69,3.69,0,0,0-2.73-1.12,3.78,3.78,0,0,0-2.73,1.12,4.2,4.2,0,0,0-1.09,3.06,4.17,4.17,0,0,0,1.09,3,3.89,3.89,0,0,0,5.46,0A4.22,4.22,0,0,0,95.31,42.31Z"/><path d="M120.06,42.06a13.44,13.44,0,0,1-.09,1.52H107.84a3.5,3.5,0,0,0,1,2.41,3.35,3.35,0,0,0,2.29.82A2.83,2.83,0,0,0,114,45.18h5.7a7.25,7.25,0,0,1-1.6,3,7.77,7.77,0,0,1-2.85,2.09,10.35,10.35,0,0,1-8.43-.31,7.59,7.59,0,0,1-3.13-3,9,9,0,0,1-1.13-4.59,9.29,9.29,0,0,1,1.09-4.6,7.67,7.67,0,0,1,3.14-3,9.68,9.68,0,0,1,4.61-1.06,9.58,9.58,0,0,1,4.51,1,7.35,7.35,0,0,1,3.07,2.93A8.57,8.57,0,0,1,120.06,42.06Zm-5.49-1.36a2.6,2.6,0,0,0-.94-2.11,3.86,3.86,0,0,0-4.64,0,3.33,3.33,0,0,0-1.12,2.14Z"/><path d="M133.54,33.72a6.38,6.38,0,0,1,4.89,1.93,7.21,7.21,0,0,1,1.85,5.26v9.86H135V41.61A3.59,3.59,0,0,0,134,39a3.64,3.64,0,0,0-4.88,0,3.59,3.59,0,0,0-.91,2.63v9.16h-5.36V33.9h5.36v2.24a5.49,5.49,0,0,1,2.19-1.76A7.08,7.08,0,0,1,133.54,33.72Z"/><path d="M152,51a11.81,11.81,0,0,1-4.33-.75A7.18,7.18,0,0,1,144.57,48a6,6,0,0,1-1.19-3.57h5.7a2.75,2.75,0,0,0,.85,1.82,2.85,2.85,0,0,0,1.88.6,3.09,3.09,0,0,0,1.88-.51,1.8,1.8,0,0,0,.69-1.48,1.69,1.69,0,0,0-.56-1.3,4.15,4.15,0,0,0-1.35-.85,20.7,20.7,0,0,0-2.26-.76,24.18,24.18,0,0,1-3.48-1.27,6.49,6.49,0,0,1-2.32-1.87,5.16,5.16,0,0,1-1-3.24,5.43,5.43,0,0,1,2.23-4.62,9.3,9.3,0,0,1,5.8-1.7,9.44,9.44,0,0,1,5.86,1.7,5.89,5.89,0,0,1,2.38,4.65h-5.8a2.1,2.1,0,0,0-.78-1.6,2.8,2.8,0,0,0-1.85-.6,2.33,2.33,0,0,0-1.57.51,1.71,1.71,0,0,0-.59,1.42,1.76,1.76,0,0,0,1,1.6,16.07,16.07,0,0,0,3.13,1.24,30.56,30.56,0,0,1,3.45,1.33A6.56,6.56,0,0,1,159,41.34a4.78,4.78,0,0,1,1,3.11,5.88,5.88,0,0,1-1,3.3,6.57,6.57,0,0,1-2.76,2.36A9.83,9.83,0,0,1,152,51Z"/><path d="M179.78,42.06a11.51,11.51,0,0,1-.1,1.52H167.55a3.55,3.55,0,0,0,1,2.41,3.33,3.33,0,0,0,2.29.82,2.81,2.81,0,0,0,2.78-1.63h5.71a7.37,7.37,0,0,1-1.6,3,7.77,7.77,0,0,1-2.85,2.09,10.35,10.35,0,0,1-8.43-.31,7.67,7.67,0,0,1-3.14-3,9.08,9.08,0,0,1-1.13-4.59,9.29,9.29,0,0,1,1.1-4.6,7.61,7.61,0,0,1,3.14-3,10.47,10.47,0,0,1,9.12,0,7.41,7.41,0,0,1,3.07,2.93A8.57,8.57,0,0,1,179.78,42.06Zm-5.49-1.36a2.6,2.6,0,0,0-.94-2.11,3.86,3.86,0,0,0-4.64,0,3.39,3.39,0,0,0-1.13,2.14Z"/><path d="M181.54,42.31a9.89,9.89,0,0,1,1-4.57,7.49,7.49,0,0,1,2.79-3,7.41,7.41,0,0,1,3.92-1.06,6.9,6.9,0,0,1,3.23.72,5.46,5.46,0,0,1,2.16,1.91V33.9H200V50.77h-5.36V48.38a5.69,5.69,0,0,1-2.19,1.91,6.9,6.9,0,0,1-3.23.72A7.36,7.36,0,0,1,185.33,50a7.71,7.71,0,0,1-2.79-3.05A10.07,10.07,0,0,1,181.54,42.31Zm13.1,0a4.14,4.14,0,0,0-1.13-3.06,3.65,3.65,0,0,0-2.69-1.12,3.75,3.75,0,0,0-2.73,1.12,4.1,4.1,0,0,0-1.1,3,4.28,4.28,0,0,0,1.1,3.08,3.71,3.71,0,0,0,2.73,1.12,3.61,3.61,0,0,0,2.69-1.12A4.11,4.11,0,0,0,194.64,42.34Z"/></svg>