<?xml version="1.0" encoding="UTF-8" standalone="no"?>
<svg id="a" viewBox="0 0 32 32" version="1.1" sodipodi:docname="openverse.svg" width="32" height="32" inkscape:version="1.4-beta2 (9aaf4f34, 2024-07-30)" xmlns:inkscape="http://www.inkscape.org/namespaces/inkscape" xmlns:sodipodi="http://sodipodi.sourceforge.net/DTD/sodipodi-0.dtd" xmlns="http://www.w3.org/2000/svg" xmlns:svg="http://www.w3.org/2000/svg">
  <sodipodi:namedview id="namedview7" pagecolor="#ffffff" bordercolor="#000000" borderopacity="0.25" inkscape:showpageshadow="2" inkscape:pageopacity="0.0" inkscape:pagecheckerboard="0" inkscape:deskcolor="#d1d1d1" inkscape:zoom="4.4597841" inkscape:cx="17.713862" inkscape:cy="35.988289" inkscape:window-width="1440" inkscape:window-height="790" inkscape:window-x="0" inkscape:window-y="0" inkscape:window-maximized="1" inkscape:current-layer="a" />
  <defs id="defs1">
    <style id="style1">.c,.d{stroke-width:0px;}.d{fill-rule:evenodd;}</style>
  </defs>
  <g id="b" transform="matrix(0.80563403,0,0,0.80563403,6.6793822e-5,-19.447823)">
    <path class="c" d="m 0,33.98 c -0.01,4.47 3.6,8.1 8.06,8.11 v 0 -16.22 C 3.6,25.87 0,29.5 0,33.96 c 0,0 0,0.02 0,0.02 z" id="path2" />
    <path class="c" d="m 11.75,33.98 c -0.01,4.47 3.6,8.1 8.06,8.11 v 0 -16.22 c -4.47,0.01 -8.08,3.65 -8.06,8.11 z" id="path3" />
    <path class="c" d="m 31.56,42.09 c 4.48,0.03 8.13,-3.58 8.16,-8.06 0.03,-4.48 -3.58,-8.13 -8.06,-8.16 -4.48,-0.03 -8.13,3.58 -8.16,8.06 0,0.02 0,0.03 0,0.05 -0.02,4.46 3.58,8.09 8.04,8.11 0,0 0.02,0 0.02,0 z" id="path4" />
    <path class="c" d="m 0,54.02 c -0.02,4.46 3.58,8.09 8.04,8.11 0,0 0.02,0 0.02,0 V 45.93 C 3.6,45.94 0,49.56 0,54.02 Z" id="path5" />
    <path class="c" d="m 11.75,53.95 c -0.01,4.47 3.6,8.1 8.06,8.11 v 0 -16.2 c -4.46,0.01 -8.06,3.63 -8.06,8.09 z" id="path6" />
    <path class="c" d="m 31.56,62.06 c 4.48,0.03 8.13,-3.58 8.16,-8.06 0.03,-4.48 -3.58,-8.13 -8.06,-8.16 -4.48,-0.03 -8.13,3.58 -8.16,8.06 0,0.02 0,0.03 0,0.05 -0.02,4.46 3.58,8.09 8.04,8.11 0,0 0.02,0 0.02,0 z" id="path7" />
  </g>
</svg>
