<svg id="Camada_1" data-name="Camada 1" xmlns="http://www.w3.org/2000/svg" viewBox="0 0 200 80"><path d="M24.36,23.26c14.93,0,24.51,10.83,24.51,23.53,0,12.4-9.16,23.53-24.51,23.53C9.44,70.46,0,59.34,0,46.93,0,34.09,9.72,23.26,24.36,23.26Zm0,41.21c10.14,0,17.75-7.42,17.75-17.54S34.64,29.39,24.36,29.39,6.76,36.8,6.76,46.93A17.13,17.13,0,0,0,24.36,64.47ZM68.5,24.16c9.21,0,15,4.92,15,12.65a11.35,11.35,0,0,1-7.65,11.1c4.11,2.67,6.66,6.89,10.2,12.51,2,3.09,3.12,4.63,6.24,9h-7.8l-6.09-9.27c-6.1-9.28-8.79-10.4-12.19-10.4h-2.7V69.41H57V24.16Zm-5,19.68h4.26c7.08,0,9.07-3.66,8.93-7.31,0-4.22-2.56-6.89-8.93-6.89H63.53v14.2Zm69.08-9.63c-5.6-3.28-10.35-4.84-15.53-4.84-10.36,0-18,7.39-18,17.49s7.41,17.34,18.19,17.34c5,0,10.63-1.85,15.81-5.12v7.26a32.16,32.16,0,0,1-16.37,4c-16.94,0-24.35-13.23-24.35-22.89,0-13.94,10.35-24.17,24.77-24.17,4.62,0,9.37,1.14,15.53,3.69v7.26Z"/><path d="M158.37,24.16h17.52c16.68,0,24.11,12,24.11,22.63,0,11.66-9.11,22.62-24,22.62H158.37Zm6.45,39.35h10.37c14.72,0,18.08-11.24,18.08-16.86,0-9.14-5.75-16.87-18.36-16.87H165V63.51Z"/><path d="M148.52,69.41H142V23.62h6.54V69.41Zm1-55.46A4.27,4.27,0,1,1,141,14a4.37,4.37,0,0,1,4.27-4.27A4.27,4.27,0,0,1,149.51,14Z"/></svg>