<?xml version="1.0" encoding="UTF-8"?><svg id="a" xmlns="http://www.w3.org/2000/svg" viewBox="0 0 181.46 80"><path d="m22.1,21.78c13.55,0,22.24,9.83,22.24,21.35s-8.31,21.35-22.24,21.35c-13.54.13-22.1-9.96-22.1-21.22s8.82-21.48,22.1-21.48Zm0,37.39c9.2,0,16.1-6.73,16.1-15.91s-6.78-15.91-16.1-15.91-15.97,6.72-15.97,15.91c-.21,8.58,6.58,15.7,15.16,15.91h.81ZM62.15,22.59c8.36,0,13.61,4.46,13.61,11.48.15,4.52-2.67,8.6-6.94,10.07,3.73,2.42,6.04,6.25,9.25,11.35,1.81,2.8,2.83,4.2,5.66,8.17h-7.08l-5.53-8.41c-5.53-8.42-7.97-9.44-11.06-9.44h-2.45v17.84h-5.91V22.59h10.43Zm-4.54,17.86h3.87c6.42,0,8.23-3.32,8.1-6.63,0-3.83-2.32-6.25-8.1-6.25h-3.84v12.88h-.03Zm62.67-8.74c-5.08-2.98-9.39-4.39-14.09-4.39-9.4,0-16.33,6.7-16.33,15.87s6.72,15.73,16.5,15.73c4.54,0,9.64-1.68,14.34-4.65v6.59c-4.54,2.5-9.66,3.77-14.85,3.63-15.37,0-22.09-12-22.09-20.77,0-12.65,9.39-21.93,22.47-21.93,4.19,0,8.5,1.03,14.09,3.35v6.59s-.05-.02-.05-.02Z" style="stroke-width:0px;"/><path d="m143.69,22.59h15.9c15.13,0,21.87,10.89,21.87,20.53,0,10.58-8.27,20.52-21.77,20.52h-16V22.59Zm5.85,35.7h9.41c13.36,0,16.4-10.2,16.4-15.3,0-8.29-5.22-15.31-16.66-15.31h-8.99v30.6s-.16,0-.16,0Z" style="stroke-width:0px;"/><path d="m134.75,63.65h-5.92V22.1h5.93v41.54h-.02,0Zm.91-50.32c.15,2.13-1.44,3.99-3.57,4.15s-3.99-1.44-4.15-3.57c0-.17-.02-.35,0-.53.05-2.12,1.75-3.83,3.87-3.87,2.13.02,3.85,1.74,3.85,3.87,0,0,0-.05,0-.05Z" style="stroke-width:0px;"/></svg>