<?xml version="1.0" encoding="UTF-8" standalone="no"?>
<svg viewBox="0 0 32 32" version="1.1" id="svg1" sodipodi:docname="orcid.svg" width="32" height="32" inkscape:version="1.4-beta2 (9aaf4f34, 2024-07-30)" xmlns:inkscape="http://www.inkscape.org/namespaces/inkscape" xmlns:sodipodi="http://sodipodi.sourceforge.net/DTD/sodipodi-0.dtd" xmlns="http://www.w3.org/2000/svg" xmlns:svg="http://www.w3.org/2000/svg">
  <defs id="defs1" />
  <sodipodi:namedview id="namedview1" pagecolor="#ffffff" bordercolor="#000000" borderopacity="0.25" inkscape:showpageshadow="2" inkscape:pageopacity="0.0" inkscape:pagecheckerboard="0" inkscape:deskcolor="#d1d1d1" inkscape:zoom="4.6431126" inkscape:cx="6.461183" inkscape:cy="40.382394" inkscape:window-width="1440" inkscape:window-height="790" inkscape:window-x="0" inkscape:window-y="0" inkscape:window-maximized="1" inkscape:current-layer="svg1" />
  <path id="circle1" d="M 16,0 A 16,16 0 0 0 0,16 16,16 0 0 0 16,32 16,16 0 0 0 32,16 16,16 0 0 0 16,0 Z M 9.875,5.875 c 0.6875,0 1.25,0.5625 1.25,1.25 0,0.6875 -0.5625,1.25 -1.25,1.25 -0.6875,0 -1.25,-0.5625 -1.25,-1.25 a 1.25,1.25 0 0 1 1.25,-1.25 z m -1,4 h 1.9375 V 23.25 H 8.875 Z m 4.75,0 h 5.1875 c 4.9375,0 7.125,3.5625 7.125,6.6875 0,3.4375 -2.6875,6.6875 -7.125,6.6875 h -5.25 z m 2,1.8125 -0.0625,9.875 H 18.625 C 23,21.5625 24,18.25 24,16.625 24,13.9375 22.3125,11.6875 18.5625,11.6875 Z" style="stroke-width:0.0625" />
</svg>
