<?xml version="1.0" encoding="UTF-8" standalone="no"?>
<svg id="Camada_1" data-name="Camada 1" viewBox="0 0 32 32" version="1.1" sodipodi:docname="packagist.svg" width="32" height="32" inkscape:version="1.4-beta2 (9aaf4f34, 2024-07-30)" xmlns:inkscape="http://www.inkscape.org/namespaces/inkscape" xmlns:sodipodi="http://sodipodi.sourceforge.net/DTD/sodipodi-0.dtd" xmlns="http://www.w3.org/2000/svg" xmlns:svg="http://www.w3.org/2000/svg" xmlns:rdf="http://www.w3.org/1999/02/22-rdf-syntax-ns#" xmlns:cc="http://creativecommons.org/ns#" xmlns:dc="http://purl.org/dc/elements/1.1/">
  <defs id="defs12" />
  <sodipodi:namedview id="namedview12" pagecolor="#ffffff" bordercolor="#000000" borderopacity="0.25" inkscape:showpageshadow="2" inkscape:pageopacity="0.0" inkscape:pagecheckerboard="0" inkscape:deskcolor="#d1d1d1" inkscape:zoom="2.1773077" inkscape:cx="43.631867" inkscape:cy="-6.2003179" inkscape:window-width="1440" inkscape:window-height="790" inkscape:window-x="0" inkscape:window-y="0" inkscape:window-maximized="1" inkscape:current-layer="Camada_1" />
  <title id="title1">packagist</title>
  <g id="g12" transform="matrix(1.3299543,0,0,1.3299543,2.0106171,-4.2888e-7)">
    <path d="M 5.36,15.11 A 0.37,0.37 0 0 1 5,14.94 1,1 0 0 1 4.9,14.76 L 4.57,14.05 C 4.47,13.86 4.37,13.66 4.28,13.46 a 0.1,0.1 0 0 0 -0.1,-0.06 0.83,0.83 0 0 0 -0.41,0.07 0.41,0.41 0 0 1 -0.16,0 h -0.7 a 2.06,2.06 0 0 1 -0.26,0 0.09,0.09 0 0 1 -0.08,0 A 1.38,1.38 0 0 1 2.4,13.18 0.36,0.36 0 0 0 2,12.88 5.87,5.87 0 0 1 1.41,12.88 2.66,2.66 0 0 1 0.49,12.72 0.26,0.26 0 0 1 0.32,12.44 0.85,0.85 0 0 0 0.32,12.21 9.15,9.15 0 0 1 0,11.1 a 2.07,2.07 0 0 1 0.13,-1 c 0.2,-0.52 0.4,-1 0.61,-1.56 a 0.59,0.59 0 0 0 0,-0.13 c 0,-0.45 0,-0.9 0.07,-1.35 C 0.88,6.61 0.81,6.29 0.86,5.9 0.91,5.51 1,5.05 1,4.62 1,4.49 1,4.36 1,4.23 A 0.63,0.63 0 0 1 1.21,3.83 5.48,5.48 0 0 1 2.59,3 C 3.35,2.64 4.12,2.27 4.89,1.93 a 0.59,0.59 0 0 1 0.57,0 c 0.28,0.19 0.57,0.36 0.85,0.54 a 0.11,0.11 0 0 0 0.12,0 L 7.64,1.9 7.74,1.82 C 7.98,1.54 8.21,1.25 8.45,0.98 A 5.46,5.46 0 0 1 8.9,0.6 3.19,3.19 0 0 1 10,0 h 0.13 c 0.24,0 0.48,0 0.72,0 a 2.89,2.89 0 0 1 0.92,0.23 0.13,0.13 0 0 1 0.07,0.05 0.36,0.36 0 0 0 0.24,0.16 1.28,1.28 0 0 1 0.25,0.15 c 0.43,0.32 0.85,0.65 1.29,1 a 1,1 0 0 0 0.33,0.17 L 15,2.09 a 0.33,0.33 0 0 1 0.15,0.11 l 0.41,0.46 a 0.22,0.22 0 0 0 0.26,0.08 c 0.36,-0.1 0.71,-0.21 1.07,-0.3 a 0.47,0.47 0 0 1 0.17,0 h 0.18 0.58 l 0.87,0.14 a 0.13,0.13 0 0 1 0.11,0.07 c 0.34,0.6 0.68,1.2 1,1.79 a 3,3 0 0 0 0.27,0.42 0.61,0.61 0 0 1 0.11,0.28 c 0,0.31 0.05,0.62 0.06,0.94 0,0.58 0,1.16 0.05,1.74 0,0.19 0,0.38 0.05,0.56 a 1.67,1.67 0 0 0 0.08,0.2 c 0.1,0.3 0.21,0.6 0.3,0.9 0.09,0.3 0.22,0.68 0.32,1 a 1.12,1.12 0 0 1 0,0.32 5.19,5.19 0 0 1 0,0.56 c 0,0.21 -0.07,0.42 -0.11,0.64 -0.04,0.22 -0.13,0.7 -0.2,1.06 a 0.23,0.23 0 0 1 -0.07,0.1 c -0.25,0.16 -0.51,0.31 -0.77,0.46 a 0.2,0.2 0 0 1 -0.11,0 h -0.56 c -0.07,0 -0.09,0 -0.11,0.07 -0.02,0.07 -0.07,0.3 -0.11,0.45 a 0.09,0.09 0 0 1 -0.08,0.08 c -0.44,0.07 -0.88,0.13 -1.32,0.21 a 1.65,1.65 0 0 0 -0.72,0.34 0.93,0.93 0 0 0 -0.29,0.55 c -0.11,0.58 -0.23,1.16 -0.35,1.74 a 1.57,1.57 0 0 1 -0.15,0.43 c -0.33,0.57 -0.66,1.13 -1,1.68 a 3,3 0 0 1 -0.28,0.34 0.09,0.09 0 0 0 0,0.12 c 0.19,0.74 0.39,1.48 0.59,2.23 l -0.67,-0.27 0.28,1.11 -0.78,-0.06 C 14.18,22.8 14.14,22.96 14.09,23.12 14.04,23.28 14,23.74 14,24 c 0,0 0,0.07 -0.08,0.06 l -1,-0.05 h -0.59 a 0.28,0.28 0 0 0 -0.15,0 0.56,0.56 0 0 1 -0.34,0 1.35,1.35 0 0 0 -0.45,-0.05 H 8.91 C 8.91,23.8 8.83,23.64 8.8,23.48 8.77,23.32 8.75,23.2 8.72,23.06 A 0.36,0.36 0 0 0 8.64,22.91 c 0,0 -0.05,0 -0.07,0 l -1,0.16 a 2.44,2.44 0 0 0 -0.26,0.06 0.69,0.69 0 0 0 0,-0.13 c 0,0 0,-0.08 0,-0.11 a 0.33,0.33 0 0 1 0,-0.26 c 0.14,-0.32 0.29,-0.64 0.43,-1 a 0.49,0.49 0 0 0 0,-0.13 L 7.1,21.71 v -0.07 c 0.29,-0.5 0.59,-1 0.87,-1.49 0.14,-0.24 0.15,-0.17 0,-0.37 -0.15,-0.2 -0.36,-0.4 -0.55,-0.59 L 6.83,18.63 C 6.59,18.38 6.36,18.13 6.11,17.88 A 0.52,0.52 0 0 1 5.99,17.69 C 5.88,17.41 5.76,17.13 5.64,16.84 a 0.19,0.19 0 0 1 0,-0.08 3.6,3.6 0 0 0 -0.2,-1.17 C 5.46,15.46 5.41,15.28 5.36,15.11 Z M 5,4 4.38,3.71 A 0.46,0.46 0 0 0 4.18,3.66 2.28,2.28 0 0 0 2.77,4.08 0.7,0.7 0 0 0 2.4,4.68 0.14,0.14 0 0 1 2.4,4.74 L 2.07,5.38 V 5.44 A 0.35,0.35 0 0 1 1.98,5.08 C 2.07,4.79 2.17,4.5 2.24,4.21 A 0.54,0.54 0 0 1 2.54,3.84 L 3.29,3.48 A 5.69,5.69 0 0 1 4.63,3.1 0.6,0.6 0 0 1 5.15,3.2 C 5.3,3.33 5.43,3.47 5.57,3.61 a 0.09,0.09 0 0 1 0,0.11 C 5.43,4.09 5.3,4.45 5.17,4.81 A 7.24,7.24 0 0 0 4.92,5.6 5.47,5.47 0 0 0 4.84,6.81 2.55,2.55 0 0 0 4.91,7.48 c 0,0.11 0,0.15 -0.07,0.22 H 4.76 a 2.93,2.93 0 0 0 -1,1 0.54,0.54 0 0 0 -0.09,0.37 2,2 0 0 0 0.32,1 c 0.15,0.24 0.31,0.47 0.47,0.71 v 0.05 -0.08 A 2,2 0 0 1 5,10.08 L 5.39,9.82 A 0.25,0.25 0 0 0 5.53,9.63 4.92,4.92 0 0 1 5.83,9 1.28,1.28 0 0 1 6.5,8.28 L 6.68,8.17 A 1,1 0 0 1 6.27,7.94 3.3,3.3 0 0 1 5.51,6.86 1.5,1.5 0 0 1 5.39,5.93 C 5.39,5.8 5.5,5.69 5.53,5.56 a 1.63,1.63 0 0 1 1.56,-1.19 5.68,5.68 0 0 1 0.59,0 1.79,1.79 0 0 1 0.77,0.25 1.62,1.62 0 0 1 0.63,0.78 1.62,1.62 0 0 1 0,1.36 c 0,0.1 -0.1,0.2 -0.15,0.3 L 9.75,6.71 A 0.79,0.79 0 0 1 10,6.68 3.82,3.82 0 0 1 11,6.75 l 0.93,0.17 a 1.12,1.12 0 0 1 0.63,0.27 l 0.14,0.12 c 0,-0.17 0,-0.32 -0.05,-0.47 a 3.31,3.31 0 0 1 0.18,-1.29 1.1,1.1 0 0 1 0.54,-0.64 3.7,3.7 0 0 1 0.91,-0.34 1.37,1.37 0 0 1 1.16,0.2 6.54,6.54 0 0 1 0.51,0.41 l 0.06,0.06 c 0,-0.13 0,-0.24 0,-0.35 L 16,3.9 c 0,0 0,-0.07 0.06,-0.1 0.06,-0.03 0.31,-0.16 0.47,-0.26 a 0.14,0.14 0 0 1 0.16,0 0.15,0.15 0 0 0 0.09,0 l 1.4,0.3 a 0.18,0.18 0 0 1 0.1,0.07 c 0.23,0.36 0.45,0.73 0.67,1.09 0.1,0.17 0.2,0.35 0.29,0.53 0.09,0.18 0,0.21 -0.13,0.28 L 19,5.77 18.31,4.68 A 0.2,0.2 0 0 0 18.22,4.61 L 16.83,4.16 c -0.12,0 -0.12,0 -0.17,0.07 a 2.81,2.81 0 0 0 -0.27,1 c 0,0.35 0,0.71 0,1.06 a 0.51,0.51 0 0 0 0.22,0.48 0.67,0.67 0 0 1 0.15,0.14 c 0.11,0.14 0.23,0.29 0.33,0.44 l 0.56,0.82 a 0.69,0.69 0 0 1 0.11,0.4 c 0,0.42 0,0.84 0,1.26 A 0.58,0.58 0 0 1 17.66,10.19 5.75,5.75 0 0 1 17,11 0.73,0.73 0 0 1 16.55,11.27 c -0.12,0 -0.18,0.12 -0.27,0.18 -0.09,0.06 0,0 0,0 0,0.17 0,0.33 0,0.5 v 0 l 0.54,-0.06 a 1.78,1.78 0 0 1 0.91,0.13 0.11,0.11 0 0 1 0.08,0.11 c 0,0.11 0,0.21 0,0.32 0,0.11 0,0.32 0.29,0.35 a 1,1 0 0 1 0.65,0.25 l 0.21,0.2 a 0.18,0.18 0 0 0 0.1,0 h 0.79 a 0.19,0.19 0 0 0 0.1,0 L 20.32,13 a 0.2,0.2 0 0 0 0.09,-0.15 c 0.06,-0.31 0.12,-0.61 0.17,-0.92 a 3.47,3.47 0 0 0 0.11,-1.11 c 0,-0.19 0,-0.38 -0.06,-0.56 a 5.11,5.11 0 0 0 -0.5,-1.47 0.42,0.42 0 0 1 0,-0.1 c 0,-0.23 -0.07,-0.45 -0.08,-0.67 0,-0.47 -0.07,-1 -0.1,-1.42 C 19.92,6.18 19.9,5.74 19.88,5.31 A 0.59,0.59 0 0 0 19.74,4.93 C 19.31,4.3 18.88,3.68 18.46,3.04 A 0.43,0.43 0 0 0 18.11,2.81 c -0.28,0 -0.56,-0.1 -0.84,-0.13 a 1.76,1.76 0 0 0 -0.93,0.15 h -0.08 a 0.41,0.41 0 0 0 -0.36,0 L 15.5,3.04 C 15.41,2.93 15.33,2.81 15.24,2.69 A 0.86,0.86 0 0 0 15.11,2.55 L 14.44,2.11 A 2.18,2.18 0 0 0 13.81,2 L 13,1.74 A 0.62,0.62 0 0 1 12.7,1.58 l -1,-1 A 0.13,0.13 0 0 0 11.54,0.5 L 9.85,0.56 A 1,1 0 0 0 9.25,0.77 5.26,5.26 0 0 0 8,2 1.06,1.06 0 0 1 7.4,2.5 C 7.26,2.56 7.12,2.65 6.98,2.7 6.84,2.75 6.55,2.81 6.34,2.86 a 0.34,0.34 0 0 1 -0.28,0 L 5.41,2.48 a 0.88,0.88 0 0 0 -1,-0.05 L 4.18,2.57 2.77,3.29 A 5.2,5.2 0 0 0 1.86,3.83 0.64,0.64 0 0 0 1.63,4.09 c 0,0.14 -0.12,0.26 -0.18,0.39 A 1.93,1.93 0 0 0 1.24,5.39 c 0,0.35 0,0.7 0,1.06 v 1.22 c 0,0.08 0,0.16 0,0.24 a 1.63,1.63 0 0 1 0,0.44 C 1.14,8.76 1.01,9.16 0.89,9.56 0.77,9.96 0.66,10.32 0.56,10.7 a 1,1 0 0 0 0,0.41 c 0,0.39 0.1,0.77 0.16,1.15 a 0.44,0.44 0 0 0 0.27,0.38 0.78,0.78 0 0 0 0.5,0 L 2.3,12.45 a 0.32,0.32 0 0 1 0.38,0.13 c 0.1,0.15 0.2,0.31 0.29,0.47 0.09,0.16 0.08,0.1 0.15,0.1 H 3.8 a 3,3 0 0 0 0.38,-0.09 3.12,3.12 0 0 1 0,-1.14 0.85,0.85 0 0 0 0,-0.45 2.18,2.18 0 0 0 -0.18,-0.62 6.08,6.08 0 0 1 -0.53,-1 0.78,0.78 0 0 1 0,-0.4 0.13,0.13 0 0 1 0,-0.06 2.74,2.74 0 0 1 0.2,-0.88 2.23,2.23 0 0 1 0.5,-0.71 0.76,0.76 0 0 0 0.21,-0.44 c 0,-0.17 0,-0.34 0.07,-0.51 L 4.46,6 A 3.54,3.54 0 0 1 4.64,5 C 4.77,4.69 4.88,4.33 5,4 Z m 3.52,10.38 c 0.07,0.1 0.06,0.12 0,0.19 v 0 l -0.65,0.87 a 0.26,0.26 0 0 0 -0.06,0.22 0.92,0.92 0 0 0 0.08,0.25 c 0.13,0.25 0.26,0.5 0.41,0.73 0.15,0.23 0.3,0.42 0.45,0.62 0.15,0.2 0.08,0.17 0.19,0.17 a 0.28,0.28 0 0 1 0.11,0.08 l 0.23,0.22 0.1,0.07 1.2,0.44 a 1.65,1.65 0 0 0 0.85,0.09 0.32,0.32 0 0 1 0.27,0 c 0,0 0.07,0 0.1,0 l 0.12,-0.06 a 3.28,3.28 0 0 0 0.85,-0.24 0.29,0.29 0 0 0 0.12,-0.1 c 0,-0.07 0.1,-0.13 0.14,-0.19 a 0.59,0.59 0 0 0 0,-0.08 c 0,0 0,-0.1 0.08,-0.13 0.24,-0.21 0.49,-0.41 0.74,-0.61 a 1.91,1.91 0 0 0 0.6,-0.6 0.81,0.81 0 0 1 0.12,-0.14 l 0.61,-0.59 0.38,-0.35 a 3,3 0 0 1 0.85,-0.55 c 0.09,0 0.17,-0.1 0.25,-0.14 l 0.15,-0.06 c 0.46,-0.15 0.92,-0.32 1.38,-0.46 0.21,-0.06 0.43,-0.08 0.65,-0.12 a 1.2,1.2 0 0 0 0,-0.19 c -0.05,-0.28 -0.16,-0.46 -0.42,-0.51 a 3.91,3.91 0 0 0 -0.48,0 0.22,0.22 0 0 1 -0.22,-0.17 c 0,-0.14 -0.07,-0.27 -0.1,-0.41 a 0.37,0.37 0 0 0 -0.36,-0.31 1.66,1.66 0 0 0 -1,0.14 l -1.15,0.61 a 4.37,4.37 0 0 0 -1.08,0.84 l -0.44,0.52 c 0,0 0,0.05 -0.08,0.05 a 0.22,0.22 0 0 1 -0.2,-0.2 1,1 0 0 1 0.15,-0.61 l 0.19,-0.29 a 0.9,0.9 0 0 0 -0.76,-0.1 4.78,4.78 0 0 0 -1.21,0.67 H 11.6 c -0.05,0 -0.07,0 -0.08,0 a 0.37,0.37 0 0 1 0.09,-0.25 c 0.09,-0.09 0.2,-0.16 0.29,-0.25 a 1.46,1.46 0 0 1 0.54,-0.34 h 0.09 A 1.19,1.19 0 0 0 12.19,12.66 5,5 0 0 0 11,12.09 v 0 H 10.39 10.3 v 0 a 1,1 0 0 1 0.18,-0.08 3.73,3.73 0 0 1 0.94,-0.07 0.47,0.47 0 0 1 0.16,0 l 0.79,0.37 a 0.88,0.88 0 0 1 0.49,0.42 c 0,0 0.05,0.05 0.11,0 a 1.14,1.14 0 0 1 0.32,0 0.89,0.89 0 0 1 0.54,0.3 c 0.08,0.07 0.14,0.08 0.22,0 a 0.67,0.67 0 0 0 0.27,-0.52 c 0,-0.29 0,-0.58 -0.05,-0.87 a 1.63,1.63 0 0 0 -0.13,-0.57 0.29,0.29 0 0 1 0,-0.09 v 0 l 0.18,0.19 c 0.08,0.09 0.11,0.09 0.17,0 0.06,-0.09 0.13,-0.25 0.21,-0.36 A 1.35,1.35 0 0 0 14.9,10.39 0.93,0.93 0 0 0 14.45,9.25 6,6 0 0 0 13.72,8.92 0.94,0.94 0 0 1 13.35,8.67 C 13.21,8.49 13.08,8.31 12.95,8.12 A 1.31,1.31 0 0 0 12.29,7.6 3.65,3.65 0 0 0 11.65,7.4 C 11.22,7.31 10.8,7.23 10.37,7.17 A 2.1,2.1 0 0 0 9.81,7.17 2.48,2.48 0 0 0 8.49,8 0.73,0.73 0 0 1 8.22,8.2 C 7.98,8.27 7.74,8.35 7.5,8.4 7.26,8.45 7.13,8.45 6.96,8.5 a 1.2,1.2 0 0 0 -0.77,0.78 1.67,1.67 0 0 0 0,0.83 c 0,0.11 0,0.21 0.07,0.33 v 0 A 3.11,3.11 0 0 1 7.26,9.62 3.71,3.71 0 0 1 9.09,9 c 0.3,0 0.6,0 0.89,0 a 1.73,1.73 0 0 1 0.35,0.05 l -1,0.11 A 8.53,8.53 0 0 0 7.41,9.68 0.17,0.17 0 0 0 7.3,9.84 a 0.13,0.13 0 0 1 0,0.07 c -0.15,0.16 -0.29,0.31 -0.45,0.46 a 2,2 0 0 0 -0.5,0.82 1,1 0 0 0 0,0.76 c 0,0 0,0 0,0.06 a 0.57,0.57 0 0 1 0.08,0.13 0.11,0.11 0 0 1 0,0.08 c 0,0.23 0,0.45 0,0.67 a 2.9,2.9 0 0 0 0.36,1.18 2.45,2.45 0 0 0 0.74,0.92 z m 3.16,6.83 h 0.07 l 1.35,-0.07 h 0.05 c 0.26,-0.3 0.52,-0.6 0.79,-0.89 a 6.53,6.53 0 0 0 0.54,-0.64 c 0.41,-0.59 0.79,-1.2 1.18,-1.81 a 1.66,1.66 0 0 0 0.26,-0.84 1.17,1.17 0 0 1 0.2,-0.62 1.63,1.63 0 0 0 0.09,-0.19 3.08,3.08 0 0 0 0.16,-0.79 0.09,0.09 0 0 0 -0.11,-0.11 1,1 0 0 0 -0.21,0.09 4.51,4.51 0 0 0 -1.19,1 0.47,0.47 0 0 0 0,0.1 1.15,1.15 0 0 1 -0.38,0.49 c -0.28,0.19 -0.55,0.39 -0.82,0.59 a 1,1 0 0 0 -0.23,0.24 c -0.11,0.15 -0.2,0.32 -0.3,0.47 a 0.28,0.28 0 0 1 -0.1,0.09 c -0.18,0.1 -0.36,0.2 -0.55,0.29 a 0.27,0.27 0 0 1 -0.12,0 H 11.18 A 2.77,2.77 0 0 1 10,18.53 L 9.5,18.36 A 0.62,0.62 0 0 1 9.31,18.24 L 7.92,17 A 0.24,0.24 0 0 1 7.86,16.92 C 7.65,16.45 7.43,15.98 7.24,15.49 A 1.39,1.39 0 0 0 6.92,15 1.71,1.71 0 0 1 6.54,14.46 7.42,7.42 0 0 1 6.15,13.25 L 6.1,13.14 v 0 c -0.06,0.24 -0.14,0.48 -0.18,0.72 a 9,9 0 0 0 -0.08,0.91 2.46,2.46 0 0 0 0,0.47 c 0.07,0.42 0.15,0.84 0.24,1.25 0,0.25 0.11,0.49 0.17,0.72 a 0.2,0.2 0 0 0 0.06,0.09 l 0.14,0.12 a 11.66,11.66 0 0 0 0.93,0.93 6,6 0 0 1 1.05,1.2 c 0.36,0.49 0.68,1 1,1.49 A 0.13,0.13 0 0 0 9.54,21.1 H 9.8 l 1.07,0.1 c 0.19,0 0.19,0 0.25,-0.16 v 0 L 11.45,20.1 11,20 11.1,19.85 a 0.11,0.11 0 0 1 0.12,-0.07 8.1,8.1 0 0 0 0.86,-0.06 2.13,2.13 0 0 0 1,-0.42 0.65,0.65 0 0 1 0.16,-0.09 0.18,0.18 0 0 1 0.22,0.11 c 0,0.08 0,0.13 -0.07,0.19 -0.07,0.06 -0.32,0.2 -0.49,0.28 -0.17,0.08 -0.37,0.16 -0.56,0.24 l -0.41,0.14 a 0.26,0.26 0 0 0 -0.17,0.22 c -0.01,0.26 -0.04,0.54 -0.08,0.82 z M 13.4,8.13 a 1.25,1.25 0 0 0 0.34,0.38 2.11,2.11 0 0 0 0.3,0.16 2.64,2.64 0 0 1 0.3,0.1 l 1,0.68 a 0.1,0.1 0 0 1 0,0.08 c 0,0.19 0,0.39 0.05,0.58 a 0.15,0.15 0 0 0 0,0.1 l 0.24,0.29 c 0.11,0.15 0.21,0.31 0.32,0.48 0.13,-0.05 0.26,-0.12 0.4,-0.16 a 0.69,0.69 0 0 0 0.48,-0.4 2.42,2.42 0 0 0 0.46,-1.33 0.64,0.64 0 0 0 -0.12,-0.43 L 17.1,8.55 16.46,7.3 c -0.07,-0.13 -0.1,-0.13 -0.21,0 A 2.16,2.16 0 0 0 16,7.57 C 15.92,7.65 15.87,7.78 15.77,7.84 15.5,7.99 15.23,8.13 14.95,8.26 a 1.23,1.23 0 0 1 -1.06,0 A 4.84,4.84 0 0 0 13.4,8.13 Z M 7.82,22.67 H 8.03 L 9.21,22.5 c 0.33,-0.05 0.66,-0.1 1,-0.13 0.6,-0.07 1.21,-0.12 1.81,-0.18 a 2.57,2.57 0 0 1 0.83,0 3,3 0 0 0 0.5,0.12 l 1.07,0.06 h 0.26 a 1.29,1.29 0 0 0 0,-0.19 l -0.23,-0.69 a 0.1,0.1 0 0 0 -0.08,-0.08 l -0.31,-0.1 a 0.28,0.28 0 0 0 -0.2,0 1,1 0 0 1 -0.33,0.1 c -0.36,0 -0.72,0 -1.08,0 h -1 -1.24 a 0.63,0.63 0 0 1 -0.3,-0.07 0.53,0.53 0 0 0 -0.18,0 H 8.42 A 0.13,0.13 0 0 0 8.35,21.39 C 8.22,21.66 8.1,21.94 7.97,22.21 Z m 6.11,0 h -0.38 c -0.27,0 -0.55,0 -0.82,-0.06 l -0.64,-0.08 a 1.53,1.53 0 0 0 -0.43,0 l -0.34,0.05 -0.6,0.08 -0.19,0.06 -0.67,0.07 -0.76,0.08 c 0,0 0,0 0,0.05 a 1.05,1.05 0 0 0 0.06,0.24 l 0.13,0.3 a 2.68,2.68 0 0 1 0.07,0.27 v 0 h 4.13 a 1.81,1.81 0 0 1 0.23,0 c 0.11,-0.33 0.08,-0.71 0.21,-1.05 z M 5.71,10.43 5.21,10.63 A 0.65,0.65 0 0 0 5,10.82 a 3.21,3.21 0 0 0 -0.43,1.44 4.05,4.05 0 0 0 0.08,1.1 0.78,0.78 0 0 0 0.18,0.44 0.71,0.71 0 0 1 0.1,0.14 l 0.16,0.32 c 0,0.1 0.09,0.21 0.14,0.31 h 0.16 v 0 C 5.45,14.32 5.5,14.07 5.57,13.82 5.64,13.57 5.75,13.2 5.85,12.89 a 0.26,0.26 0 0 0 0,-0.23 0.56,0.56 0 0 1 -0.06,-0.31 v -0.42 a 5.93,5.93 0 0 0 0,-0.73 c 0,-0.27 -0.05,-0.51 -0.08,-0.77 z M 8.77,6.55 a 0.84,0.84 0 0 0 0,-0.1 1.93,1.93 0 0 0 -0.11,-1 A 1,1 0 0 0 8.17,4.88 1.71,1.71 0 0 0 7.29,4.67 1.32,1.32 0 0 0 6.64,4.82 1.6,1.6 0 0 0 5.84,6.51 1.09,1.09 0 0 0 6.12,7.09 0.51,0.51 0 0 0 6.12,7 2,2 0 0 1 6.36,6.32 1.47,1.47 0 0 1 7.81,5.63 1,1 0 0 1 8.56,6.21 C 8.66,6.3 8.7,6.42 8.77,6.55 Z m 4.35,-0.26 0.06,-0.08 a 1.21,1.21 0 0 1 1.2,-0.52 1.38,1.38 0 0 1 1.18,0.94 c 0.07,0.19 0.11,0.38 0.17,0.58 A 0.47,0.47 0 0 1 15.79,7.12 1.36,1.36 0 0 0 16,6 1.67,1.67 0 0 0 15.56,5.2 1.17,1.17 0 0 0 14.78,4.8 a 1.79,1.79 0 0 0 -1.3,0.41 0.55,0.55 0 0 0 -0.16,0.18 1.51,1.51 0 0 0 -0.2,0.9 z m 1.56,6.4 c 0.14,-0.07 0.26,-0.16 0.39,-0.22 l 0.61,-0.25 a 0.16,0.16 0 0 0 0.08,-0.08 1.19,1.19 0 0 0 0.05,-0.26 2.3,2.3 0 0 0 0,-0.52 1.45,1.45 0 0 0 -0.3,-0.64 v 0 0 l -0.81,1 a 0.29,0.29 0 0 0 0,0.09 c 0,0.2 0,0.4 0,0.59 z M 8.51,6.88 v 0 c 0,-0.12 0,-0.24 -0.06,-0.35 A 0.89,0.89 0 0 0 7.59,5.85 1.23,1.23 0 0 0 6.54,6.85 0.93,0.93 0 0 0 6.62,7.42 0.46,0.46 0 0 0 7,7.63 0.88,0.88 0 0 1 7.39,6.54 0.84,0.84 0 0 1 8,6.43 0.86,0.86 0 0 1 8.51,6.88 Z m 6,0.88 A 0.91,0.91 0 0 0 15.19,7.2 0.57,0.57 0 0 0 15.19,6.65 2.17,2.17 0 0 0 14.88,6.28 0.91,0.91 0 0 0 14.27,6 a 1,1 0 0 0 -1,0.74 0.5,0.5 0 0 0 0,0.13 L 13.4,6.74 a 0.78,0.78 0 0 1 1.07,-0.08 0.71,0.71 0 0 1 0.08,1.1 z M 15.08,21.51 14.66,20 14.44,20.2 a 0.09,0.09 0 0 0 0,0.07 c 0.09,0.36 0.18,0.71 0.28,1.06 v 0.05 z M 8.36,20.22 7.75,21.28 v 0 L 8.09,21.1 c 0,0 0,0 0,0 0.12,-0.21 0.24,-0.42 0.35,-0.64 a 0.11,0.11 0 0 0 0,-0.08 z M 8.5,21.16 H 9 L 8.7,20.71 Z M 8.15,6.82 a 0.14,0.14 0 1 0 -0.27,0 0.14,0.14 0 1 0 0.27,0 z m 6.17,0.34 a 0.14,0.14 0 1 0 0,-0.27 0.14,0.14 0 1 0 0,0.27 z" id="path10" />
    <path d="m 14.06,2.75 a 0.16,0.16 0 0 1 0.15,0.09 1.51,1.51 0 0 1 0.09,0.16 0.07,0.07 0 0 1 0,0.07 0.62,0.62 0 0 1 -0.19,0.07 5.7,5.7 0 0 0 -0.9,0.33 1.1,1.1 0 0 0 -0.55,0.49 c 0,0.07 -0.08,0.06 -0.13,0 h -0.1 c -0.21,-0.15 -0.19,-0.29 0,-0.45 a 4.41,4.41 0 0 1 1.2,-0.62 l 0.34,-0.11 z" id="path11" />
    <path d="m 7.87,2.94 a 0.48,0.48 0 0 1 0.31,0.12 3,3 0 0 1 0.32,0.3 4.2,4.2 0 0 0 0.55,0.48 l 0.12,0.1 c 0.11,0.1 0.11,0.14 0,0.23 a 0.08,0.08 0 0 1 -0.1,0 C 8.87,4.03 8.65,3.9 8.45,3.77 A 7.47,7.47 0 0 0 7.5,3.23 c 0,0 -0.08,-0.05 -0.08,-0.08 0,-0.03 0,-0.07 0.07,-0.1 A 0.89,0.89 0 0 1 7.87,2.94 Z" id="path12" />
  </g>
  <metadata id="metadata12">
    <rdf:RDF>
      <cc:Work rdf:about="">
        <dc:title>packagist</dc:title>
      </cc:Work>
    </rdf:RDF>
  </metadata>
</svg>
