<svg data-name="Camada 1" width="32" height="32" xmlns="http://www.w3.org/2000/svg">
  <path d="m17.518 29.965-.452.066-.798.106-.252.08-.893.094-1.01.105v.066a1.396 1.396 0 0 0 .08.319l.172.4a3.564 3.564 0 0 1 .094.36h5.492a2.407 2.407 0 0 1 .307 0c.146-.44.106-.945.28-1.397v-.014h-.507c-.359 0-.73 0-1.09-.08l-.851-.105a2.035 2.035 0 0 0-.572 0z" style="fill-rule:evenodd;stroke:#000;stroke-width:0;stroke-linecap:round;paint-order:stroke fill markers"/>
  <path d="M17.518 29.965a2.035 2.035 0 0 1 .572 0l.851.105c.36.08.731.08 1.09.08h.506v.014c-.173.452-.133.958-.28 1.397a2.407 2.407 0 0 0-.306 0H14.46a3.564 3.564 0 0 0-.094-.36l-.172-.4a1.396 1.396 0 0 1-.08-.319v-.066l1.01-.105.893-.094.252-.08.798-.106zM20.443 28.342a1.33 1.33 0 0 1-.437.133H15.59a.838.838 0 0 1-.399-.094.705.705 0 0 0-.24 0H13.21a.173.173 0 0 0-.094.066c-.173.36-.33.733-.504 1.092l-.2.611h.278l1.57-.226c.44-.067.879-.132 1.33-.172.799-.093 1.61-.16 2.407-.24a3.418 3.418 0 0 1 1.104 0 3.99 3.99 0 0 0 .666.16l1.423.08h.346a1.716 1.716 0 0 0 0-.254l-.306-.918a.133.133 0 0 0-.108-.105l-.412-.133a.372.372 0 0 0-.266 0zM13.582 27.543l-.268.6h.666z" style="fill-rule:evenodd;stroke:#000;stroke-width:0;stroke-linecap:round;paint-order:stroke fill markers"/>
  <path d="m13.582 27.543.398.6h-.666zM13.129 26.893l-.81 1.408.45-.238c.16-.28.321-.56.467-.852a.146.146 0 0 0 0-.107zM21.508 26.6l-.293.265a.12.12 0 0 0 0 .094c.12.479.24.943.373 1.408v.067l.478.173z" style="fill-rule:evenodd;stroke:#000;stroke-width:0;stroke-linecap:round;paint-order:stroke fill markers"/>
  <path d="m21.508 26.6.558 2.007-.478-.173v-.067c-.133-.465-.253-.93-.373-1.408a.12.12 0 0 1 0-.094zM10.123 17.477c-.08.319-.185.637-.238.957a11.97 11.97 0 0 0-.108 1.209 3.272 3.272 0 0 0 0 .625c.093.558.201 1.118.32 1.664 0 .332.145.65.225.957a.266.266 0 0 0 .08.119l.186.16a15.507 15.507 0 0 0 1.238 1.236A7.98 7.98 0 0 1 13.223 26c.478.652.904 1.33 1.33 1.982a.173.173 0 0 0 .146.08h.346l1.422.133c.252 0 .252 0 .332-.213l.44-1.25-.598-.132.132-.2a.146.146 0 0 1 .16-.093 10.773 10.773 0 0 0 1.143-.08 2.833 2.833 0 0 0 1.33-.559.864.864 0 0 1 .213-.12.24.24 0 0 1 .293.147c0 .107 0 .172-.094.252-.093.08-.424.267-.65.373-.226.107-.493.212-.746.319l-.545.185a.346.346 0 0 0-.227.293c-.013.346-.052.72-.105 1.092h.092l1.797-.094h.066c.346-.399.692-.798 1.05-1.183a8.685 8.685 0 0 0 .718-.852c.545-.785 1.051-1.595 1.57-2.406a2.208 2.208 0 0 0 .346-1.117 1.556 1.556 0 0 1 .265-.825 2.168 2.168 0 0 0 .12-.253 4.096 4.096 0 0 0 .212-1.051.12.12 0 0 0-.146-.147 1.33 1.33 0 0 0-.28.121 5.998 5.998 0 0 0-1.582 1.33.625.625 0 0 0 0 .133 1.53 1.53 0 0 1-.505.65c-.373.253-.731.52-1.09.786a1.33 1.33 0 0 0-.307.318c-.146.2-.265.426-.398.625a.372.372 0 0 1-.133.121c-.24.133-.478.265-.73.385a.36.36 0 0 1-.16 0h-1.571a3.684 3.684 0 0 1-1.568-.105l-.666-.227a.825.825 0 0 1-.252-.16l-1.85-1.649a.32.32 0 0 1-.078-.107c-.28-.625-.574-1.249-.826-1.9a1.849 1.849 0 0 0-.424-.653 2.274 2.274 0 0 1-.506-.719 9.868 9.868 0 0 1-.52-1.609zM22.639 14.258l-1.078 1.33a.386.386 0 0 0 0 .119v.785l-.026.385c.186-.093.345-.213.518-.293l.812-.332a.213.213 0 0 0 .106-.106 1.583 1.583 0 0 0 .066-.345 3.059 3.059 0 0 0 0-.694 1.928 1.928 0 0 0-.398-.85zM9.605 13.871l-.666.266a.864.864 0 0 0-.279.254 4.27 4.27 0 0 0-.572 1.914 5.386 5.386 0 0 0 .107 1.463 1.037 1.037 0 0 0 .239.586.944.944 0 0 1 .132.185l.213.426c0 .133.121.279.188.412h.213c.08-.333.145-.664.238-.996.093-.333.24-.826.373-1.238a.346.346 0 0 0 0-.305.745.745 0 0 1-.08-.412v-.559a7.887 7.887 0 0 0 0-.972c0-.36-.066-.678-.106-1.024z" style="fill-rule:evenodd;stroke:#000;stroke-width:0;stroke-linecap:round;paint-order:stroke fill markers"/>
  <path d="M9.605 13.871c.04.346.106.664.106 1.024a7.887 7.887 0 0 1 0 .972v.559a.745.745 0 0 0 .08.412.346.346 0 0 1 0 .305c-.133.412-.28.905-.373 1.238-.093.332-.159.663-.238.996h-.213c-.067-.133-.188-.28-.188-.412l-.213-.426a.944.944 0 0 0-.132-.185 1.037 1.037 0 0 1-.239-.586 5.386 5.386 0 0 1-.107-1.463 4.27 4.27 0 0 1 .572-1.914.864.864 0 0 1 .28-.254Zm.518 3.606.066.144a9.868 9.868 0 0 0 .52 1.61 2.274 2.274 0 0 0 .506.718 1.849 1.849 0 0 1 .424.653c.252.651.547 1.275.826 1.9a.32.32 0 0 0 .078.107l1.85 1.649a.825.825 0 0 0 .252.16l.666.227a3.684 3.684 0 0 0 1.568.105h1.57a.36.36 0 0 0 .16 0c.253-.12.491-.252.73-.385a.372.372 0 0 0 .134-.12c.133-.2.252-.426.398-.626a1.33 1.33 0 0 1 .307-.318c.359-.266.717-.533 1.09-.785a1.53 1.53 0 0 0 .505-.65.625.625 0 0 1 0-.134 5.998 5.998 0 0 1 1.582-1.33 1.33 1.33 0 0 1 .28-.12.12.12 0 0 1 .146.146 4.096 4.096 0 0 1-.213 1.05 2.168 2.168 0 0 1-.119.254 1.556 1.556 0 0 0-.265.825 2.208 2.208 0 0 1-.346 1.117c-.519.811-1.025 1.621-1.57 2.406a8.685 8.685 0 0 1-.717.852c-.36.385-.705.784-1.051 1.183h-.066l-1.797.094h-.092c.053-.372.092-.746.105-1.092a.346.346 0 0 1 .227-.293l.545-.185c.253-.107.52-.212.746-.319.226-.106.557-.293.65-.373.093-.08.094-.145.094-.252a.24.24 0 0 0-.293-.146.864.864 0 0 0-.213.119 2.833 2.833 0 0 1-1.33.559 10.773 10.773 0 0 1-1.142.08.146.146 0 0 0-.16.093l-.133.2.597.132-.44 1.25c-.079.213-.079.213-.331.213l-1.422-.133h-.346a.173.173 0 0 1-.146-.08c-.426-.651-.852-1.33-1.33-1.982a7.98 7.98 0 0 0-1.397-1.596 15.507 15.507 0 0 1-1.238-1.236l-.186-.16a.266.266 0 0 1-.08-.12c-.08-.305-.224-.624-.224-.956a33.438 33.438 0 0 1-.32-1.664 3.272 3.272 0 0 1 0-.625 11.97 11.97 0 0 1 .107-1.21c.053-.319.158-.637.238-.956zM23.781 9.578c-.04 0-.085.045-.158.131a2.873 2.873 0 0 0-.334.36c-.106.106-.172.279-.305.359-.359.2-.719.385-1.091.558a1.636 1.636 0 0 1-1.409 0 6.437 6.437 0 0 0-.652-.174 1.662 1.662 0 0 0 .453.506 2.806 2.806 0 0 0 .399.213 3.511 3.511 0 0 1 .398.133l1.33.904a.133.133 0 0 1 0 .106c0 .253 0 .519.067.771a.2.2 0 0 0 0 .133l.318.387c.146.2.28.412.426.639.173-.067.347-.16.533-.213a.918.918 0 0 0 .639-.534 3.218 3.218 0 0 0 .61-1.767.851.851 0 0 0-.16-.572l-.093-.147-.85-1.662c-.046-.086-.08-.13-.12-.13Z" style="fill-rule:evenodd;stroke:#000;stroke-width:0;stroke-linecap:round;paint-order:stroke fill markers"/>
  <path d="M15.057 9.535a3.298 3.298 0 0 0-1.754 1.104.97.97 0 0 1-.36.267c-.319.093-.64.2-.959.266-.319.066-.49.066-.716.133a1.596 1.596 0 0 0-1.026 1.037 2.221 2.221 0 0 0 0 1.103c0 .147 0 .28.094.44a4.136 4.136 0 0 1 1.33-1.09 4.934 4.934 0 0 1 2.434-.826h1.183a2.3 2.3 0 0 1 .467.066l-1.33.147a11.345 11.345 0 0 0-2.555.691.226.226 0 0 0-.146.213.173.173 0 0 1 0 .094c-.2.212-.385.412-.598.611a2.66 2.66 0 0 0-.666 1.092 1.33 1.33 0 0 0 0 1.01v.08a.758.758 0 0 1 .107.173.146.146 0 0 1 0 .106v.89a3.857 3.857 0 0 0 .479 1.57 3.258 3.258 0 0 0 .984 1.224l1.317-.811c.093.133.08.159 0 .252l-.865 1.158a.346.346 0 0 0-.079.291 1.224 1.224 0 0 0 .106.334c.173.333.345.665.545.97.2.307.4.56.6.825.199.266.105.227.251.227a.372.372 0 0 1 .147.105l.307.293.132.094 1.596.584a2.194 2.194 0 0 0 1.13.12.426.426 0 0 1 .358 0h.133l.16-.08a4.362 4.362 0 0 0 1.131-.32.386.386 0 0 0 .16-.132c0-.093.133-.172.186-.252a.785.785 0 0 0 0-.108s0-.132.107-.172c.32-.279.65-.546.983-.812a2.54 2.54 0 0 0 .799-.797 1.077 1.077 0 0 1 .16-.185l.81-.786.506-.466a3.99 3.99 0 0 1 1.13-.73c.12 0 .227-.133.333-.186l.2-.08c.611-.2 1.223-.426 1.835-.612.28-.08.57-.107.863-.16a1.596 1.596 0 0 0 0-.254c-.066-.372-.212-.611-.558-.678a5.2 5.2 0 0 0-.639 0 .293.293 0 0 1-.29-.226c0-.186-.094-.359-.134-.545a.492.492 0 0 0-.48-.412 2.208 2.208 0 0 0-1.33.185l-1.53.813A5.812 5.812 0 0 0 20.67 18.5l-.586.691s0 .067-.105.067a.293.293 0 0 1-.266-.266 1.33 1.33 0 0 1 .2-.812l.251-.385a1.197 1.197 0 0 0-1.01-.133 6.357 6.357 0 0 0-1.61.89h-.212a.492.492 0 0 1 .12-.331c.119-.12.266-.213.386-.332a1.942 1.942 0 0 1 .717-.453h.12a1.583 1.583 0 0 0-.452-.598 6.65 6.65 0 0 0-1.582-.758H15.709a1.33 1.33 0 0 1 .24-.107 4.96 4.96 0 0 1 1.25-.094.625.625 0 0 1 .213 0l1.05.492a1.17 1.17 0 0 1 .651.559s.067.066.147 0a1.516 1.516 0 0 1 .426 0 1.184 1.184 0 0 1 .718.4c.107.093.187.106.293 0a.891.891 0 0 0 .358-.691c0-.386 0-.773-.067-1.159a2.168 2.168 0 0 0-.172-.757.386.386 0 0 1 0-.12l.239.252c.106.12.146.12.226 0 .08-.12.173-.332.28-.478a1.795 1.795 0 0 0 .265-.559 1.237 1.237 0 0 0-.597-1.515 7.98 7.98 0 0 0-.971-.44 1.25 1.25 0 0 1-.492-.332c-.187-.24-.359-.48-.532-.732a1.742 1.742 0 0 0-.879-.692 4.854 4.854 0 0 0-.851-.265c-.572-.12-1.13-.227-1.701-.307a2.793 2.793 0 0 0-.746 0z" style="fill-rule:evenodd;stroke:#000;stroke-width:0;stroke-linecap:round;paint-order:stroke fill markers"/>
  <path d="M15.057 9.535a2.793 2.793 0 0 1 .746 0c.572.08 1.129.187 1.7.307a4.854 4.854 0 0 1 .852.265 1.742 1.742 0 0 1 .88.692c.172.253.344.493.53.732a1.25 1.25 0 0 0 .493.332 7.98 7.98 0 0 1 .97.44 1.237 1.237 0 0 1 .598 1.515 1.795 1.795 0 0 1-.265.559c-.107.146-.2.359-.28.478-.08.12-.12.12-.226 0l-.239-.251a.386.386 0 0 0 0 .119 2.168 2.168 0 0 1 .172.757c.067.386.067.773.067 1.159a.891.891 0 0 1-.358.691c-.106.106-.186.093-.293 0a1.184 1.184 0 0 0-.718-.4 1.516 1.516 0 0 0-.426 0c-.08.066-.147 0-.147 0a1.17 1.17 0 0 0-.65-.559l-1.05-.492a.625.625 0 0 0-.214 0 4.96 4.96 0 0 0-1.25.094 1.33 1.33 0 0 0-.24.107h.932a6.65 6.65 0 0 1 1.582.758 1.583 1.583 0 0 1 .453.598h-.121a1.942 1.942 0 0 0-.717.453c-.12.12-.267.212-.387.332a.492.492 0 0 0-.119.332h.213a6.357 6.357 0 0 1 1.61-.89 1.197 1.197 0 0 1 1.01.132l-.253.385a1.33 1.33 0 0 0-.2.812.293.293 0 0 0 .267.266c.106 0 .105-.067.105-.067l.586-.691a5.812 5.812 0 0 1 1.435-1.117l1.53-.813a2.208 2.208 0 0 1 1.33-.185.492.492 0 0 1 .48.412c.04.186.133.359.133.545a.293.293 0 0 0 .291.226 5.2 5.2 0 0 1 .639 0c.346.067.492.306.558.678a1.596 1.596 0 0 1 0 .254c-.292.053-.584.08-.863.16-.612.186-1.224.412-1.836.611l-.199.08c-.106.054-.212.186-.332.186a3.99 3.99 0 0 0-1.13.73l-.507.467-.81.786a1.077 1.077 0 0 0-.16.185 2.54 2.54 0 0 1-.8.797c-.332.266-.663.533-.982.812-.106.04-.107.172-.107.172a.785.785 0 0 1 0 .108c-.053.08-.186.159-.186.252a.386.386 0 0 1-.16.133 4.362 4.362 0 0 1-1.13.32l-.16.08h-.134a.426.426 0 0 0-.357 0 2.194 2.194 0 0 1-1.131-.121l-1.596-.584-.132-.094-.307-.293a.372.372 0 0 0-.147-.105c-.146 0-.052.04-.252-.227-.2-.266-.4-.518-.6-.824-.199-.306-.371-.638-.544-.97a1.224 1.224 0 0 1-.106-.335.346.346 0 0 1 .079-.29l.865-1.159c.08-.093.093-.119 0-.252l-1.317.81a3.258 3.258 0 0 1-.984-1.222 3.857 3.857 0 0 1-.479-1.57v-.891a.146.146 0 0 0 0-.106.758.758 0 0 0-.107-.173v-.08a1.33 1.33 0 0 1 0-1.01 2.66 2.66 0 0 1 .666-1.092c.213-.2.398-.399.598-.611a.173.173 0 0 0 0-.094.226.226 0 0 1 .146-.213 11.345 11.345 0 0 1 2.555-.691l1.33-.147a2.3 2.3 0 0 0-.467-.066H14.1a4.934 4.934 0 0 0-2.434.826 4.136 4.136 0 0 0-1.33 1.09c-.093-.16-.094-.293-.094-.44a2.221 2.221 0 0 1 0-1.103 1.596 1.596 0 0 1 1.026-1.037c.226-.067.397-.067.716-.133.32-.067.64-.173.96-.266a.97.97 0 0 0 .359-.267 3.298 3.298 0 0 1 1.754-1.104zm7.582 4.723a1.928 1.928 0 0 1 .398.85 3.059 3.059 0 0 1 0 .693 1.583 1.583 0 0 1-.066.345.213.213 0 0 1-.106.106l-.812.332c-.173.08-.332.2-.518.293l.026-.385v-.785a.386.386 0 0 1 0-.12zM21.055 9.164a.186.186 0 1 0 0 .36.186.186 0 1 0 0-.36z" style="fill-rule:evenodd;stroke:#000;stroke-width:0;stroke-linecap:round;paint-order:stroke fill markers"/>
  <path d="M21.055 9.164a.186.186 0 1 1 0 .36.186.186 0 1 1 0-.36zM12.67 8.834a.186.186 0 0 0-.18.236.186.186 0 1 0 .36 0 .186.186 0 0 0-.18-.236z" style="fill-rule:evenodd;stroke:#000;stroke-width:0;stroke-linecap:round;paint-order:stroke fill markers"/>
  <path d="M12.67 8.834a.186.186 0 0 1 .18.236.186.186 0 1 1-.36 0 .186.186 0 0 1 .18-.236zM21.395 10.28a1.21 1.21 0 0 1-.086.04h.052a.944.944 0 0 0 .034-.04zM20.988 7.98a1.33 1.33 0 0 0-1.33.985.665.665 0 0 0 0 .172l.174-.172a1.037 1.037 0 0 1 1.424-.108.944.944 0 0 1 .139 1.422 1.21 1.21 0 0 0 .818-.703.758.758 0 0 0 0-.732 2.886 2.886 0 0 0-.412-.492 1.21 1.21 0 0 0-.813-.372z" style="fill-rule:evenodd;stroke:#000;stroke-width:0;stroke-linecap:round;paint-order:stroke fill markers"/>
  <path d="M12.105 7.78a1.636 1.636 0 0 0-1.396 1.33 1.237 1.237 0 0 0 .105.76.612.612 0 0 0 .506.278 1.17 1.17 0 0 1 .52-1.45 1.117 1.117 0 0 1 .81-.147 1.144 1.144 0 0 1 .678.6c0-.16 0-.32-.08-.465a1.184 1.184 0 0 0-1.143-.907zM21.668 6.383a2.38 2.38 0 0 0-1.73.547.731.731 0 0 0-.211.238 2.008 2.008 0 0 0-.268 1.197l.08-.105a1.61 1.61 0 0 1 1.596-.692 1.835 1.835 0 0 1 1.57 1.25c.093.253.147.506.227.772a.625.625 0 0 1 .078-.121 1.809 1.809 0 0 0 .28-1.489 2.221 2.221 0 0 0-.585-1.064 1.556 1.556 0 0 0-1.037-.533Z" style="fill-rule:evenodd;stroke:#000;stroke-width:0;stroke-linecap:round;paint-order:stroke fill markers"/>
  <path d="M21.668 6.383a1.556 1.556 0 0 1 1.037.533 2.221 2.221 0 0 1 .584 1.064 1.809 1.809 0 0 1-.28 1.489.625.625 0 0 0-.077.12c-.08-.265-.134-.518-.227-.77a1.835 1.835 0 0 0-1.57-1.25 1.61 1.61 0 0 0-1.596.69l-.08.106a2.008 2.008 0 0 1 .268-1.197.731.731 0 0 1 .21-.238 2.38 2.38 0 0 1 1.731-.547zm-.68 1.597a1.21 1.21 0 0 1 .813.372 2.886 2.886 0 0 1 .412.492.758.758 0 0 1 0 .732 1.21 1.21 0 0 1-.818.703.944.944 0 0 1-.034.041h-.052a1.21 1.21 0 0 0 .086-.04.944.944 0 0 0-.14-1.423 1.037 1.037 0 0 0-1.423.108l-.174.172a.665.665 0 0 1 0-.172 1.33 1.33 0 0 1 1.33-.985zm2.793 1.598c.04 0 .075.045.121.131l.85 1.662.094.147a.851.851 0 0 1 .16.572 3.218 3.218 0 0 1-.611 1.767.918.918 0 0 1-.64.534c-.185.053-.36.146-.532.213-.147-.227-.28-.44-.426-.64l-.318-.386a.2.2 0 0 1 0-.133c-.067-.252-.067-.518-.067-.771a.133.133 0 0 0 0-.106l-1.33-.904a3.511 3.511 0 0 0-.398-.133 2.806 2.806 0 0 1-.399-.213 1.662 1.662 0 0 1-.453-.505 6.437 6.437 0 0 1 .652.173 1.636 1.636 0 0 0 1.409 0c.372-.173.732-.359 1.091-.558.133-.08.199-.253.305-.36a2.873 2.873 0 0 1 .334-.359c.073-.086.118-.13.158-.13ZM11.705 6.21a1.756 1.756 0 0 0-.863.2 2.128 2.128 0 0 0-1.065 2.248 1.45 1.45 0 0 0 .373.772.678.678 0 0 0 0-.12 2.66 2.66 0 0 1 .319-.904 1.955 1.955 0 0 1 1.93-.918 1.33 1.33 0 0 1 .996.772c.133.12.186.278.279.45a1.117 1.117 0 0 0 0-.132 2.567 2.567 0 0 0-.147-1.33 1.33 1.33 0 0 0-.65-.758 2.274 2.274 0 0 0-1.172-.28Z" style="fill-rule:evenodd;stroke:#000;stroke-width:0;stroke-linecap:round;paint-order:stroke fill markers"/>
  <path d="M11.705 6.21a2.274 2.274 0 0 1 1.172.28 1.33 1.33 0 0 1 .65.758 2.567 2.567 0 0 1 .147 1.33 1.117 1.117 0 0 1 0 .133c-.093-.173-.146-.332-.28-.451a1.33 1.33 0 0 0-.996-.772 1.955 1.955 0 0 0-1.93.918 2.66 2.66 0 0 0-.318.905.678.678 0 0 1 0 .119 1.45 1.45 0 0 1-.373-.772 2.128 2.128 0 0 1 1.065-2.248 1.756 1.756 0 0 1 .863-.2Zm.4 1.57a1.184 1.184 0 0 1 1.143.906c.08.146.08.305.08.464a1.144 1.144 0 0 0-.678-.6 1.117 1.117 0 0 0-.81.147 1.17 1.17 0 0 0-.52 1.451.612.612 0 0 1-.506-.279 1.237 1.237 0 0 1-.105-.76 1.636 1.636 0 0 1 1.396-1.33ZM12.477 3.91a1.184 1.184 0 0 0-.504.147c-.093.04-.094.093-.094.132 0 .04.105.106.105.106a9.935 9.935 0 0 1 1.264.719c.266.173.56.347.826.533a.106.106 0 0 0 .133 0c.146-.12.146-.174 0-.307l-.16-.133a5.586 5.586 0 0 1-.733-.638 3.99 3.99 0 0 0-.425-.399.638.638 0 0 0-.412-.16ZM20.709 3.658l-.12.04-.45.146a5.865 5.865 0 0 0-1.598.824c-.253.213-.28.4 0 .6h.135c.066.08.172.093.172 0a1.463 1.463 0 0 1 .732-.653 7.58 7.58 0 0 1 1.195-.44.825.825 0 0 0 .254-.093.093.093 0 0 0 0-.092 2.008 2.008 0 0 0-.119-.213.213.213 0 0 0-.201-.119z" style="fill-rule:evenodd;stroke:#000;stroke-width:0;stroke-linecap:round;paint-order:stroke fill markers"/>
  <path d="m17.357.664-2.246.08a1.33 1.33 0 0 0-.799.28A6.996 6.996 0 0 0 12.65 2.66a1.41 1.41 0 0 1-.798.664c-.187.08-.373.201-.559.268-.186.066-.57.144-.85.21a.452.452 0 0 1-.373 0L9.205 3.3a1.17 1.17 0 0 0-1.33-.067l-.305.186-1.875.957a6.916 6.916 0 0 0-1.21.719.851.851 0 0 0-.307.345c0 .187-.159.347-.239.52a2.567 2.567 0 0 0-.279 1.209v3.352a2.168 2.168 0 0 1 0 .585c-.133.546-.307 1.078-.467 1.61-.16.532-.304 1.01-.437 1.515a1.33 1.33 0 0 0 0 .545c0 .52.133 1.024.213 1.53a.585.585 0 0 0 .36.506 1.037 1.037 0 0 0 .663 0l1.078-.252a.426.426 0 0 1 .504.171c.133.2.267.413.387.625.12.213.106.133.2.133h.903a3.99 3.99 0 0 0 .506-.119 4.15 4.15 0 0 1 0-1.515 1.13 1.13 0 0 0 0-.6 2.9 2.9 0 0 0-.24-.824 8.086 8.086 0 0 1-.705-1.33 1.037 1.037 0 0 1 0-.532.173.173 0 0 1 0-.08 3.644 3.644 0 0 1 .266-1.17 2.966 2.966 0 0 1 .666-.945 1.01 1.01 0 0 0 .279-.584c0-.226 0-.454.094-.68L7.94 7.98a4.708 4.708 0 0 1 .24-1.33c.174-.412.32-.89.48-1.33l-.825-.386a.612.612 0 0 0-.266-.067 3.032 3.032 0 0 0-1.875.559.931.931 0 0 0-.492.799.186.186 0 0 1 0 .08l-.44.85v.08a.465.465 0 0 1-.118-.48c.12-.385.252-.77.345-1.155a.718.718 0 0 1 .399-.493l.998-.478a7.567 7.567 0 0 1 1.781-.506.798.798 0 0 1 .691.133c.2.173.373.359.559.545a.12.12 0 0 1 0 .146c-.186.492-.358.97-.531 1.45a9.629 9.629 0 0 0-.332 1.05 7.275 7.275 0 0 0-.108 1.61 3.391 3.391 0 0 0 .094.89c0 .147 0 .2-.094.293h-.105a3.897 3.897 0 0 0-1.33 1.33.718.718 0 0 0-.121.492 2.66 2.66 0 0 0 .425 1.33c.2.32.413.625.625.944v-.04a2.66 2.66 0 0 1 .72-.89l.519-.345a.332.332 0 0 0 .185-.254 6.543 6.543 0 0 1 .399-.838 1.702 1.702 0 0 1 .892-.957l.239-.147a1.33 1.33 0 0 1-.545-.304 4.389 4.389 0 0 1-1.012-1.438 1.995 1.995 0 0 1-.158-1.236c0-.173.145-.32.185-.492a2.168 2.168 0 0 1 2.074-1.582 7.554 7.554 0 0 1 .786 0 2.38 2.38 0 0 1 1.023.332 2.155 2.155 0 0 1 .838 1.037 2.155 2.155 0 0 1 0 1.808c0 .133-.133.266-.2.399l1.093-.465a1.05 1.05 0 0 1 .332-.04 5.08 5.08 0 0 1 1.33.093l1.236.226a1.49 1.49 0 0 1 .838.36l.185.16c0-.226 0-.426-.066-.625a4.402 4.402 0 0 1 .24-1.717 1.463 1.463 0 0 1 .719-.852 4.92 4.92 0 0 1 1.209-.45 1.822 1.822 0 0 1 1.543.265 8.698 8.698 0 0 1 .678.545l.08.08v-.465l-.014-1.316s0-.093.08-.133c.08-.04.412-.213.625-.346a.186.186 0 0 1 .213 0 .2.2 0 0 0 .121 0l1.861.398a.24.24 0 0 1 .133.092c.306.479.598.973.89 1.451.134.226.268.466.388.705.12.24-.001.278-.174.372l-.147-.053-.918-1.45a.266.266 0 0 0-.119-.093l-1.847-.598c-.16 0-.16-.001-.227.092a3.737 3.737 0 0 0-.36 1.33v1.41a.678.678 0 0 0 .294.639.891.891 0 0 1 .199.185c.146.187.306.387.44.586l.743 1.09a.918.918 0 0 1 .147.533v1.676a.771.771 0 0 1-.133.479 7.647 7.647 0 0 1-.879 1.076.97.97 0 0 1-.598.36c-.16 0-.24.16-.359.24v.664l.719-.08a2.367 2.367 0 0 1 1.209.173.146.146 0 0 1 .107.147v.426c0 .146 0 .425.385.464a1.33 1.33 0 0 1 .865.332l.28.266a.24.24 0 0 0 .132 0h1.051a.253.253 0 0 0 .133 0l.492-.332a.266.266 0 0 0 .12-.2c.08-.411.16-.81.226-1.222a4.615 4.615 0 0 0 .146-1.476c0-.253 0-.507-.08-.746a6.796 6.796 0 0 0-.664-1.956.559.559 0 0 1 0-.132c0-.306-.094-.598-.107-.891 0-.625-.093-1.33-.133-1.889a70.205 70.205 0 0 1-.094-1.714.785.785 0 0 0-.185-.506c-.572-.838-1.143-1.663-1.701-2.514a.572.572 0 0 0-.467-.307c-.373 0-.745-.132-1.117-.172a2.34 2.34 0 0 0-1.237.2h-.107a.545.545 0 0 0-.479 0l-.531.279c-.12-.146-.226-.305-.346-.465a1.144 1.144 0 0 0-.174-.187l-.89-.584a2.9 2.9 0 0 0-.838-.147l-1.076-.346a.825.825 0 0 1-.4-.212L17.57.772a.173.173 0 0 0-.214-.108Zm3.352 2.994a.213.213 0 0 1 .201.12 2.008 2.008 0 0 1 .12.212.093.093 0 0 1 0 .092.825.825 0 0 1-.255.094 7.58 7.58 0 0 0-1.195.44 1.463 1.463 0 0 0-.732.652c0 .093-.106.08-.172 0h-.135c-.28-.2-.253-.387 0-.6a5.865 5.865 0 0 1 1.598-.824l.45-.147zm-8.232.252a.638.638 0 0 1 .412.16 3.99 3.99 0 0 1 .425.399 5.586 5.586 0 0 0 .733.638l.16.133c.146.133.146.187 0 .307a.106.106 0 0 1-.133 0c-.266-.186-.56-.36-.826-.533a9.935 9.935 0 0 0-1.264-.72s-.105-.065-.105-.105c0-.04 0-.092.094-.132a1.184 1.184 0 0 1 .504-.147z" style="fill-rule:evenodd;stroke:#000;stroke-width:0;stroke-linecap:round;paint-order:stroke fill markers"/>
</svg>