<svg width="32" height="32" xmlns="http://www.w3.org/2000/svg">
  <defs>
    <clipPath clipPathUnits="userSpaceOnUse" id="a">
      <path style="fill:#000" class="powerclip" d="M-14.15-5.126h252.832v243.081H-14.151Zm65.08 44.544c-4.48-.094-8.554-.423-12.388 2.153-3.551 3.649-4.74 6.95-4.817 11.984l.056 2.347c-.013 2.645-.017 5.288.017 7.933.026 1.887.042 3.773.048 5.66.003 3.941.014 7.882.051 11.824.057 5.119.105 10.237.116 15.356.007 4.002.019 8.003.04 12.004l.034 5.722c.011 2.742.025 5.484.054 8.226l.03 2.51c.017 5.718.265 8.9 4.32 13.281 3.639 2.232 5.976 2.318 10.17 2.35l2.868-.038c3.2.007 6.4.008 9.6-.016 2.29-.019 4.581-.03 6.871-.035 4.775-.004 9.55-.012 14.325-.039 6.21-.04 12.421-.074 18.632-.085a9182.625 9182.625 0 0 0 21.474-.057c3.325-.01 6.65-.021 9.976-.04 1.037-.008 2.044-.014 3.051-.02 8.593-.025 15.742-1.094 23.91-3.897 11.636-4.77 20.71-14.303 26.055-25.566l1.07-2.715c2.23-5.55 3.351-10.403 3.313-16.398l-.062-2.477c-.02-3.046.002-6.088-.25-9.125l-1-3c-2.754-8.898-6.438-16.128-12.844-22.969-9.705-9.068-21.934-14.275-35.188-14.482h-2.923c-3.307-.037-6.613-.069-9.92-.08-2.36-.005-4.718-.014-7.076-.026-4.935-.026-9.87-.047-14.804-.052-6.4-.003-12.8-.022-19.2-.084-5.006-.049-10.012-.08-15.02-.087-2.388 0-4.777-.003-7.166-.008a678.34 678.34 0 0 0-10.277-.071l-3.146.017z"/>
    </clipPath>
    <clipPath clipPathUnits="userSpaceOnUse" id="b">
      <path style="fill:#000" class="powerclip" d="M-93.374-5.002H97.912v190.687H-93.374ZM35.645 46.84C20.577 36.25 2.728 32.942-15.188 37.875c-14.601 5.359-25.683 15.383-32.53 29.305l-1.407 3.132a71.254 71.254 0 0 0-1.938 4.626c-3.254 12.233-2.379 28.014 3.688 39.21l1.25 2.164c3.212 5.704 6.479 10.847 11.313 15.313 13.136 10.833 26.722 14.845 43.58 13.903 12.236-1.252 25.078-7.77 33.224-16.891l1.883-2.325 1.883-2.23c9.832-12.705 12.941-27.015 11.117-42.77-2.439-13.725-10.075-26.18-21.23-34.472Z"/>
    </clipPath>
    <clipPath clipPathUnits="userSpaceOnUse" id="c">
      <path style="fill:#000" class="powerclip" d="M-13.112-5.04h190.88v192.183h-190.88Zm49.347 37.917c-6.924-.11-11.11 1.165-12.31 8.686l.017 3.447c-.004 2-.008 4.002.017 6.003.018 1.427.03 2.855.035 4.283.003 2.981.012 5.962.038 8.943.04 3.874.074 7.747.085 11.621a3643.56 3643.56 0 0 0 .057 13.41l.022 4.229.04 3.894c.042 4.916.149 6.846 3.271 10.701 2.99 2.484 4.472 3.002 8.303 3.069l2.08-.04c2.336.017 4.67.027 7.005.005 1.674-.018 3.347-.027 5.02-.03 3.503.005 7.006.001 10.508-.025 4.538-.04 9.074-.07 13.612-.065 3.544.006 7.088.004 10.632-.009l5.1-.023c6.96.004 14 .265 20.85-1.113 8.902-2.598 17.33-7.183 22.514-15.094l1.281-2.262c3.612-6.253 5.26-11.886 5.387-19.068-.055-11.074-1.786-20.554-9.824-28.807-10.927-10.012-21.438-11.732-35.684-11.7-1.783.007-3.567.007-5.35.002-3.74-.016-7.478-.024-11.217-.014-4.842.02-9.683.025-14.525-.009-3.795-.027-7.589-.042-11.384-.039-1.809.004-3.617.006-5.426.007-2.593-.02-5.184-.04-7.777-.024l-2.377.022z"/>
    </clipPath>
  </defs>
  <path d="m0 0 2.048-.012C4.324-.022 6.6-.018 8.876-.014c1.628-.004 3.256-.01 4.883-.015 4.433-.014 8.865-.014 13.297-.012 3.702.001 7.405-.004 11.107-.008 8.742-.012 17.485-.012 26.227-.006 9.005.006 18.009-.006 27.013-.028 7.736-.017 15.472-.023 23.208-.02 4.618.002 9.235 0 13.853-.015 4.351-.012 8.702-.01 13.053.003 1.59.002 3.18 0 4.77-.009 12.812-.062 23.201 1.785 34.519 7.885l2.46 1.311c7.767 4.27 14.567 9.368 21.228 15.189l2.132 1.863c14.497 13.62 25.647 35.464 27.029 55.47.503 28.846-5.94 53.587-26.411 74.882-19.397 19.644-43.814 29.909-71.36 30.251-3.159.016-6.317.01-9.476-.011-3.394-.022-6.786-.018-10.18-.008-8.406.021-16.813.004-25.22-.022-7.153-.02-14.305-.023-21.458.003-3.336.004-6.671-.02-10.008-.045-2.04.005-4.081.012-6.122.02l-2.791-.045c-4.296.048-7.211.243-10.63 2.991-4.219 4.463-4.746 6.718-4.744 12.767-.015 1.426-.031 2.852-.049 4.278-.016 2.24-.025 4.48-.018 6.721a403.51 403.51 0 0 1-.058 6.501l-.009 3.926c-.803 4.425-1.976 5.866-5.627 8.457-2.725.501-4.817.705-7.532.664l-2.162.015c-1.503.003-3.005-.006-4.508-.027-2.293-.027-4.58 0-6.873.032-1.464-.003-2.93-.01-4.394-.02l-2.062.031c-3.487-.085-5.325-.589-8.15-2.665-3.165-4.135-3.012-7.087-2.934-12.16l-.017-2.792c-.013-3.09.01-6.178.032-9.268a2912.684 2912.684 0 0 1 .027-24.685c.024-6.286.02-12.573.021-18.86.005-10.554.028-21.108.065-31.662.037-10.866.058-21.73.061-32.596v-2.03l.001-2.025.001-4.037v-2.012c.005-10.973.025-21.947.046-32.92.007-3.752.01-7.504.013-11.255.006-5.884.022-11.768.047-17.653.007-2.164.011-4.33.012-6.494.001-2.944.015-5.888.031-8.832l-.007-2.625C-8.72.874-7.295.012 0 0Z" fill="#343434" style="fill:#000" transform="matrix(.03886 0 0 .03886 14.378 15.406)" clip-path="url(#a)"/>
  <path d="m0 0 3.11-.009c2.152-.002 4.304.004 6.456.016 3.27.016 6.538 0 9.807-.019 2.105.002 4.21.006 6.314.012 1.446-.01 1.446-.01 2.921-.018 23.413.239 42.525 16.595 58.17 32.416l1.214-1.468c7.548-8.9 15.783-15.545 25.785-21.532l2.43-1.535c2.906-1.656 5.827-2.882 8.945-4.09l3.274-1.289C135.25.274 142.07.227 149.172.195l2.992-.017c2.082-.01 4.164-.016 6.245-.02 3.16-.01 6.32-.04 9.48-.072 2.032-.007 4.063-.012 6.095-.016l2.827-.037c9.62.032 17.808 2.842 26.216 7.365l2.196 1.179c20.997 11.635 36.917 29.867 44.554 52.821 2.613 10.554 3.443 20.752 3.404 31.615a2023.01 2023.01 0 0 1 .032 16.368c-.003 3.328.003 6.656.01 9.984.013 7.845.012 15.69 0 23.535-.011 8.085.003 16.169.03 24.254.022 6.965.029 13.93.023 20.895-.003 4.15-.001 8.3.016 12.451.015 3.89.011 7.781-.007 11.672a419.9 419.9 0 0 0 .01 4.281c.013 1.947 0 3.893-.016 5.84v3.3c-.62 3.473-1.764 4.651-4.501 6.805-2.056.508-2.056.508-4.262.518l-2.518.038-2.693-.024-2.786.011a582.49 582.49 0 0 1-5.823-.021c-2.974-.021-5.946 0-8.92.025-1.886-.003-3.773-.008-5.659-.015l-2.699.024-2.508-.038-2.204-.01c-2.81-.74-3.451-2.042-4.928-4.508-.377-2.76-.377-2.76-.379-5.994l-.025-3.721.019-4.074c-.004-1.433-.01-2.866-.016-4.298-.012-3.085-.015-6.17-.01-9.254.007-4.884-.01-9.768-.029-14.653-.038-10.377-.05-20.754-.06-31.13-.012-11.184-.027-22.367-.071-33.55-.019-4.848-.023-9.695-.016-14.543.002-3.028-.009-6.056-.023-9.084-.004-1.395-.003-2.791.004-4.187.063-14.126-2.8-25.698-12.645-36.262-10.488-9.711-24.007-14.174-38.23-13.695-13.816 1.748-23.85 8.63-32.727 18.976-5.462 7.522-7.913 15.41-7.924 24.624l-.012 3.752.002 4.091-.01 4.328c-.008 3.101-.013 6.203-.017 9.304-.006 4.904-.022 9.808-.041 14.711l-.02 5.04a13113.044 13113.044 0 0 0-.097 36.787c-.007 7.704-.03 15.407-.069 23.111-.02 4.076-.032 8.151-.027 12.227.005 3.831-.01 7.661-.037 11.492a417.696 417.696 0 0 0 0 4.218c.01 1.919-.009 3.838-.028 5.756l-.007 3.254c-.628 3.448-1.788 4.63-4.505 6.774-2.087.508-2.087.508-4.338.518l-2.569.038-2.75-.025-2.846.012c-1.984.003-3.967-.005-5.951-.021-3.036-.022-6.07 0-9.105.025-1.928-.003-3.857-.008-5.785-.016l-2.75.025-2.568-.038-2.252-.01c-3.013-.734-4.144-2.12-6.086-4.508-.503-2.729-.503-2.729-.506-5.919l-.033-3.67.024-4.017c-.005-1.413-.012-2.826-.021-4.239-.015-3.042-.018-6.084-.011-9.126.01-4.817-.007-9.634-.028-14.45-.03-7.628-.042-15.255-.046-22.882-.006-13.637-.036-27.273-.085-40.91-.016-4.78-.022-9.56-.018-14.342 0-2.986-.007-5.973-.017-8.96-.004-2.027.002-4.055.008-6.084-.06-13.87-2.21-25.292-12.017-35.714-4.329-4.016-8.991-7.026-14.25-9.687l-2.485-1.257c-10.83-4.693-23.886-4.318-34.805-.07-4.654 2.28-8.704 5.052-12.71 8.327l-1.965 1.586c-7.457 6.69-12.6 17.376-13.22 27.385a491.954 491.954 0 0 0-.071 11.255c-.003 1.443-.006 2.885-.011 4.328-.008 3.096-.01 6.192-.008 9.288.003 4.896-.012 9.79-.03 14.686-.046 13.917-.07 27.833-.077 41.75-.003 7.694-.021 15.389-.055 23.083-.02 4.867-.022 9.734-.011 14.6.002 3.025-.012 6.05-.03 9.074-.006 1.403-.004 2.806.005 4.209.01 1.914-.005 3.828-.022 5.742l-.004 3.246c-.624 3.444-1.793 4.624-4.502 6.768-1.98.508-1.98.508-4.078.518l-2.397.038-2.56-.024-2.652.011c-1.846.003-3.693-.005-5.54-.021-2.83-.021-5.656 0-8.486.025-1.795-.003-3.59-.008-5.384-.015l-2.567.024c-5.851-.093-5.851-.093-8.058-2.2-1.64-3.025-1.658-5.136-1.665-8.575l-.03-3.874.013-4.243a2084.33 2084.33 0 0 1-.032-16.639c.003-3.394-.003-6.788-.009-10.181-.014-8.021-.012-16.042 0-24.062.01-8.241-.003-16.482-.03-24.723-.022-7.095-.029-14.19-.023-21.285.003-4.228.001-8.456-.016-12.684-.016-3.99-.012-7.978.007-11.967.004-1.451 0-2.902-.01-4.353-.089-13.222 1.932-26.393 8.33-38.145l1.053-2.006c9.615-17.954 22.851-30.733 40.634-40.431l2.048-1.132C-19.476 1.62-10.321-.066 0 0Z" fill="#343434" transform="matrix(.03886 0 0 .03886 3.137 15.401)" style="fill:#000"/>
  <path d="M0 0c18.533-.14 37.067-.246 55.6-.31 8.607-.032 17.214-.074 25.82-.143 7.508-.06 15.015-.098 22.522-.112 3.97-.007 7.94-.025 11.91-.07 3.748-.04 7.495-.053 11.243-.044a390.1 390.1 0 0 0 6.025-.068C148.25-.645 159.953 6.014 171 16c14.339 15.003 19.727 36.856 19.309 57.05-.544 11.887-5.646 24.59-13.59 33.513-1.971 2.284-1.971 2.284-1.672 4.964 1.065 2.763 2.386 4.7 4.203 7.035 11.635 16.055 12.824 35.829 10.43 55.007-.821 4.62-2.128 8.998-3.68 13.431l-1.098 3.246c-5.634 14.993-16.115 25.881-29.964 33.566l-1.907 1.095c-15.887 8.326-33.648 7.71-51.066 7.663-2.767-.005-5.533.002-8.3.01-6.52.016-13.04.013-19.56-.004-6.715-.017-13.428 0-20.142.031-5.794.027-11.587.034-17.38.026-3.448-.005-6.897-.003-10.345.018-3.83.021-7.658.003-11.487-.02l-3.446.035c-7.63-.092-7.63-.092-11.007-2.962-1.779-3.706-1.872-7.118-1.83-11.146l-.01-2.438c-.004-1.695.004-3.39.02-5.086.022-2.592 0-5.182-.025-7.774.003-1.65.008-3.301.016-4.952l-.025-2.342c.059-3.366.172-5.474 2.275-8.172 2.701-2.125 3.9-2.29 7.295-2.28l3.063-.02 3.342.04 3.534-.008c2.534-.003 5.069.004 7.604.018 4.014.022 8.028.02 12.043.008 9.975-.023 19.95-.005 29.924.022 7.747.02 15.493.028 23.239.003 4.624-.014 9.247.01 13.872.04 2.433-.005 4.866-.012 7.3-.02l3.31.044c8.058-.074 14.025-2.014 19.876-7.703l1.316-1.938 1.372-1.937c3.776-6.537 3.9-12.644 3.191-20.063-1.652-6.114-5.629-10.725-11-14-6.929-3.398-13.551-3.414-21.132-3.38a591.79 591.79 0 0 1-6.608-.016 2790.07 2790.07 0 0 0-18.772-.04c-3.842 0-7.683-.019-11.524-.049-2.167-.01-4.334.001-6.5.014l-3.986-.03H57.97c-3.629-.61-4.809-1.561-6.971-4.499a57.535 57.535 0 0 1-.531-8.563l-.012-2.51c-.003-1.748.005-3.496.022-5.244.02-2.674 0-5.345-.026-8.019.003-1.7.008-3.401.016-5.101l-.025-2.419c.057-3.355.164-5.61 2.18-8.357 3.133-2.356 5.014-2.274 8.914-2.254l1.963-.007a346.53 346.53 0 0 1 4.21.019c2.23.022 4.458.018 6.688.007 5.542-.021 11.083-.004 16.625.022 4.679.021 9.356.023 14.035-.003 2.181-.005 4.361.02 6.543.045 9.019.01 16.542-1.054 23.329-7.43 5.4-5.802 6.586-11.361 6.452-19.174-.737-5.798-3.676-9.35-7.758-13.325-7.238-4.653-12.88-5.112-21.356-5.04l-3.525-.007c-2.519-.003-5.037.001-7.555.01-3.984.014-7.968.008-11.952-.004-10.609-.03-21.218-.029-31.827-.01-6.98.012-13.96.01-20.94-.018-3.311-.013-6.621-.013-9.932.004-3.689.02-7.377.008-11.066-.01l-3.312.04c-7.366-.08-7.366-.08-11.34-2.944-2.482-3.693-2.469-6.924-2.343-11.22l.014-2.453c.021-2.575.078-5.148.134-7.723.017-1.742.03-3.485.043-5.228C-1.197 2.394-1.197 2.394 0 0Z" fill="#343434" transform="matrix(.03886 0 0 .03886 24.11 15.416)" style="fill:#000"/>
  <path d="m0 0 2.756.015c22.996.393 43.968 9.043 61.119 24.297l2.297 2.012c9.92 9.253 16.804 21.435 21.703 33.989l1.254 3.199c7.388 22.577 3.323 47.944-6.734 68.883-3.226 6.182-7.057 11.575-11.52 16.917l-1.578 2.02C56.312 167.311 35 177.379 14.875 180.312c-26.363 1.715-49.44-2.11-70.063-19.5-19.336-17.048-31.283-39.65-33.08-65.552-1.136-24.517 6.797-47.247 23.338-65.55C-47.987 11.679-25.073-.162 0 0Z" fill="#CC3502" transform="matrix(.03886 0 0 .03886 28.39 7.555)" style="fill:#000" clip-path="url(#b)"/>
  <path d="m0 0 2.854-.034L5.98-.01l3.297-.02c3.613-.019 7.225-.007 10.838.007 2.516-.003 5.032-.007 7.547-.012 5.287-.006 10.573.002 15.859.021 6.075.022 12.15.015 18.224-.007 5.871-.02 11.742-.018 17.612-.006 2.483.002 4.966 0 7.449-.01 16.43-.049 31.174.463 45.981 8.357l2.02 1.047c5.341 2.843 10.116 6.066 14.605 10.14.683.604 1.367 1.207 2.07 1.83 12.224 11.433 20.514 28.515 21.266 45.3.374 22.092-4.602 40.5-20.105 56.84-7.362 7.377-15.72 12.85-25.23 17.03l-2.016.9c-10.374 4.259-21.213 4.385-32.255 4.375-2.523 0-5.045.012-7.568.03-7.163.045-14.327.07-21.49.077-4.403.005-8.805.029-13.208.065-1.67.01-3.34.012-5.011.007-2.331-.007-4.66.01-6.991.033l-2.075-.025c-4.706.081-7.074 1.232-10.387 4.54-1.307 2.613-1.143 4.598-1.175 7.522l-.073 3.344c-.043 2.33-.074 4.662-.094 6.992l-.083 3.352-.045 3.072c-.678 3.476-1.678 4.65-4.53 6.717-3.961.815-7.964.603-12 .563l-3.312.072-3.188-.006c-.959 0-1.918 0-2.906.002-3.674-.894-4.569-2.485-6.594-5.631-.5-3.29-.5-3.29-.5-7.104l-.018-2.133c-.013-2.353.002-4.704.017-7.056a2068.674 2068.674 0 0 1-.003-18.814c.014-4.795.007-9.59.004-14.385-.003-8.05.01-16.101.034-24.152.026-9.31.028-18.621.016-27.932-.01-8.955-.004-17.91.01-26.864.006-3.812.006-7.624 0-11.436-.004-4.488.006-8.975.028-13.462.005-1.648.006-3.296 0-4.944a653.76 653.76 0 0 1 .025-6.741l.007-3.813C-7.316 2.25-5.503.01 0 0Z" fill="#CC3503" transform="matrix(.03886 0 0 .03886 .704 7.548)" style="fill:#000" clip-path="url(#c)"/>
  <path d="m0 0 1.988-.012c2.17-.007 4.338.015 6.507.037 1.523.002 3.046.003 4.57.003 3.2.003 6.4.02 9.6.046 4.052.034 8.103.042 12.155.04 3.154 0 6.307.012 9.46.026 1.49.007 2.98.01 4.471.012C62.396.181 77.095.22 89.827 5.611l2.267.928c16.21 6.964 23.911 20.142 30.296 35.947 5.195 13.458 9.803 27.14 14.261 40.857 1.447 4.422 2.959 8.776 4.72 13.084 2.69 6.594 4.82 13.367 7.019 20.137a249.228 249.228 0 0 0 6.12 16.698c1.157 2.924 2.067 5.893 2.942 8.911 1.34 4.616 3.025 8.905 4.938 13.313a321.168 321.168 0 0 1 3.187 8.5l.827 2.183c1.64 4.547 2.561 8.415 1.986 13.317-4.828 3.218-10.073 2.45-15.75 2.5l-3.54.125c-9.679.088-9.679.088-13.69-2.668-4.962-5.204-6.543-13.05-8.583-19.77-.474-1.5-.95-3-1.43-4.5-.932-2.922-1.854-5.847-2.77-8.775-1.474-4.696-3.072-9.343-4.737-13.975l-1.281-3.597-1.22-3.34c-.223-.623-.448-1.245-.679-1.886a166.5 166.5 0 0 0-4.42-10.872l-1.081-2.419-.82-1.823a6484.66 6484.66 0 0 0-30.98-.207c-4.796-.021-9.591-.05-14.387-.095-4.63-.043-9.259-.067-13.888-.078-1.765-.007-3.53-.021-5.294-.043-2.475-.03-4.95-.033-7.425-.031l-2.202-.044c-5.078.041-7.902 1.33-11.823 4.498-5.138 5.833-5.466 9.728-5.41 17.433.587 5.11 2.442 8.326 6.41 11.567 5.929 4.057 12.197 3.406 19.098 3.371l7.802.053c4.09.013 8.181.013 12.272.012 3.955 0 7.909.03 11.863.06l3.71-.025 3.458.03h3.034c3.54.639 5.227 1.991 7.763 4.499.647 2.96.647 2.96.664 6.375l.02 3.734-.06 3.89.06 3.891-.02 3.735-.017 3.414c-.647 2.96-.647 2.96-2.393 5.324-5.17 2.6-10.273 2.227-15.98 2.203l-3.811.02c-2.669.006-5.336.005-8.004-.01a531.177 531.177 0 0 0-8.093.02c-21.699.208-44.105-.11-61.054-15.596-11-11.769-16.998-26.986-16.785-43.098.696-15.509 7.997-28.793 19.192-39.164C8.983 73.032 23.648 71.04 39.995 70.974a2428.843 2428.843 0 0 1 17.063-.158c4.21-.03 8.42-.076 12.63-.121a6828.83 6828.83 0 0 1 24.702-.21c.147-5.563-.63-9.258-3.25-14.124l-.91-1.801c-4.435-8.55-9.969-13.597-19.061-16.7-6.671-1.916-13.387-1.783-20.264-1.754-2.4.009-4.8-.002-7.2-.017-6.817-.04-13.633-.041-20.45-.04-4.186 0-8.373-.018-12.56-.048-2.365-.011-4.728 0-7.092.013a2460.93 2460.93 0 0 1-4.33-.03h-3.818c-3.065-.498-3.065-.498-4.97-2.35-2.406-4.719-1.562-10.473-1.533-15.648l-.06-3.746.002-3.598-.006-3.287C-9.989.935-5.929-.015 0 0Z" fill="#CC3503" transform="matrix(.03886 0 0 .03886 8.515 7.549)" style="fill:#000"/>
  <path d="M0 0c1.452-.002 2.903-.005 4.355-.009 3.013-.004 6.025.002 9.038.016 3.857.018 7.713.007 11.57-.01 2.984-.011 5.969-.008 8.953 0 1.423.002 2.846 0 4.27-.007 1.98-.008 3.96.006 5.941.02l3.407.007c3.231.425 4.623 1.077 6.9 3.381.746 4.112.616 8.223.576 12.397-.014 2.032.02 4.059.058 6.09l-.006 3.885.003 3.56c-.631 3.068-.631 3.068-2.784 5.23-3.337 2.155-5.1 2.337-9.04 2.337l-3.723.03-1.975-.012a422.813 422.813 0 0 0-6.172.016c-3.634.027-7.268.032-10.902.03a2214.95 2214.95 0 0 0-17.394.056c-2.01.01-4.02.001-6.031-.008-15.458.085-27.932 5.08-39.251 15.768-10.442 11.601-14.73 24.535-14.57 39.864.866 15.43 7.097 28.138 18.21 38.757 12.026 10.667 24.508 13.283 40.169 13.309 1.366.011 2.733.024 4.1.037 5.768.055 11.536.086 17.305.11 3.543.017 7.085.047 10.628.086 1.995.017 3.99.017 5.984.017l3.682.04c1.6.009 1.6.009 3.231.016 3.34.444 5.24 1.336 7.902 3.385.615 2.956.615 2.956.593 6.532l-.007 3.894-.044 2.026c-.042 2.042-.042 4.08-.035 6.123-.098 9.818-.098 9.818-1.626 12.085-2.784 1.984-5.015 1.73-8.41 1.745l-1.997.02c-2.184.019-4.368.015-6.553.01l-4.587.015c-3.215.01-6.43.006-9.644-.003-4.078-.011-8.155.01-12.233.038-3.166.019-6.332.018-9.498.013-1.5 0-3.001.006-4.501.018-13.32.095-25.78-1.902-37.708-8.265l-2.002-1.034c-6.004-3.187-11.44-6.975-16.748-11.216l-1.84-1.344c-16.735-12.915-27.412-36.153-30.16-56.657-1.836-26.133 3.096-49.008 20.054-69.48C-53.342 10.995-29.272-.146 0 0Z" fill="#CC3503" transform="matrix(.03886 0 0 .03886 22.5 7.552)" style="fill:#000"/>
  <path d="m0 0 3.736-.088C13.944-.16 13.944-.16 17.5 1.922c2.788 2.882 3.834 5.154 5.125 8.953l.71 2.034c.85 2.46 1.665 4.93 2.477 7.404l2.239 6.707c1.18 3.538 2.357 7.077 3.515 10.623 1.937 5.908 3.98 11.717 6.379 17.455.93 2.375 1.665 4.764 2.368 7.215.986 3.43 2.138 6.7 3.5 10a94.313 94.313 0 0 1 3.5 10 90.79 90.79 0 0 0 3.437 9.812c1.571 3.804 2.833 7.616 4 11.563 4.051 13.415 9.961 30.163 22.5 38 7.275 3.318 15.397 2.879 23.268 2.966 5.69.186 8.923.93 13.294 4.659 2.05 4.098 1.318 9.308 1.376 13.812l.113 3.314.035 3.206.06 2.928c-.834 3.914-2.416 5.355-5.583 7.74-3.255.615-3.255.615-6.918.593h-1.992a240.7 240.7 0 0 1-4.163-.052c-2.092-.041-4.18-.04-6.273-.034-15.802-.074-28.52-4.82-40.111-15.765-5.077-5.475-9.469-11.493-13.543-17.743l-1.687-2.564c-5.184-8.328-8.144-16.9-11.063-26.186a3122.89 3122.89 0 0 0-2.12-6.572 735.708 735.708 0 0 1-1.293-4.048c-1.244-3.915-2.613-7.76-4.072-11.598-1.296-3.44-2.508-6.91-3.726-10.38l-.826-2.346-1.72-4.893c-.858-2.445-1.719-4.889-2.58-7.332C4.68 62.726 1.694 54.044-1.18 45.319a164.48 164.48 0 0 0-2.508-7.007c-1.462-3.79-2.726-7.643-4-11.5-3.023-9.228-3.023-9.228-6.75-18.187-.916-2.825-.609-4.5.25-7.313C-11.489-1.385-3.627.028 0 0Z" fill="#CC3503" transform="matrix(.03886 0 0 .03886 14.443 7.555)" style="fill:#000"/>
  <path d="M0 0h1.952c2.131 0 4.263.008 6.395.016l4.43.004c3.89.004 7.78.014 11.67.025 3.968.01 7.936.015 11.904.02 7.788.01 15.576.027 23.363.049v1l-2.434.01c-7.577.038-15.154.095-22.731.173-3.896.04-7.79.072-11.686.088-3.761.015-7.522.05-11.282.097-1.434.015-2.867.023-4.3.023a431.6 431.6 0 0 0-6.032.063l-3.466.027c-3.68.622-5.381 1.992-8.069 4.519C-8.069-.06-6.387-.012 0 0Z" fill="#444" transform="matrix(.03886 0 0 .03886 26.492 18.91)" style="fill:#000"/>
  <path d="m0 0 2 1-18 18-2-1c2.058-2.254 4.121-4.503 6.188-6.75l1.751-1.922C-6.9 5.9-3.754 2.8 0 0Z" fill="#4F4F50" transform="matrix(.03886 0 0 .03886 1.38 16.038)" style="fill:#000"/>
  <path d="m0 0 2 1-15 15c0-4.064 1.53-5.052 4.25-8l2.39-2.625C-4.334 3.337-2.35 1.638 0 0Z" fill="#F4DCD6" transform="matrix(.03886 0 0 .03886 21.158 9.316)" style="fill:#000"/>
  <path d="m0 0 3.412.016 3.682.01L10.97.05l3.89.014c3.182.012 6.365.028 9.548.049v1l-2.231.028c-3.34.054-6.68.137-10.019.222l-3.512.042-3.379.098-3.11.064c-3.373.67-4.583 1.944-6.749 4.546C-3.522.154-3.522.154 0 0Z" fill="#D96A46" transform="matrix(.03886 0 0 .03886 14.031 7.563)" style="fill:#000"/>
</svg>