<?xml version="1.0" encoding="UTF-8" standalone="no"?>
<svg version="1.1" width="32" height="32" id="svg16" xmlns="http://www.w3.org/2000/svg" xmlns:svg="http://www.w3.org/2000/svg">
  <defs id="defs16">
    <clipPath clipPathUnits="userSpaceOnUse" id="clipPath16">
      <path d="m 50.930066,39.418406 c 1.0382,-0.006 2.0764,-0.0117 3.14606,-0.0177 3.42656,-0.0104 6.8505,0.0294 10.27679,0.0709 2.38886,0.005 4.77771,0.008 7.16657,0.008 5.00702,0.008 10.01317,0.0387 15.01996,0.0877 6.39996,0.0621 12.79907,0.0808 19.199304,0.0838 4.93475,0.005 9.86933,0.0255 14.804,0.0519 2.35856,0.012 4.71714,0.0207 7.07573,0.026 3.30732,0.0113 6.61385,0.0425 9.92097,0.0795 0.9645,2.1e-4 1.929,4.2e-4 2.92273,6.4e-4 13.25375,0.20654 25.48295,5.41398 35.18762,14.48227 6.40601,6.84032 10.08987,14.07046 12.84375,22.96875 0.33,0.99 0.66,1.98 1,3 0.25201,3.03708 0.23131,6.07854 0.25,9.125 0.0309,1.2259 0.0309,1.2259 0.0625,2.47656 0.038,5.99545 -1.0839,10.849014 -3.3125,16.398444 -0.5298,1.34385 -0.5298,1.34385 -1.07031,2.71484 -5.34437,11.26277 -14.41923,20.79587 -26.05469,25.56641 -8.16806,2.80276 -15.31747,3.87134 -23.91016,3.89575 -1.00707,0.007 -2.01414,0.0131 -3.05172,0.0199 -3.32521,0.0197 -6.65037,0.0314 -9.97562,0.0414 -1.13656,0.004 -2.27312,0.008 -3.44412,0.0123 -6.00984,0.0208 -12.01965,0.0352 -18.02951,0.0445 -6.211004,0.0111 -12.421654,0.0455 -18.632534,0.0852 -4.77491,0.0261 -9.54974,0.0345 -14.32472,0.0381 -2.29016,0.005 -4.58032,0.0165 -6.87042,0.035 -3.20064,0.0243 -6.40034,0.0234 -9.60104,0.0165 -0.94665,0.0128 -1.89329,0.0256 -2.86863,0.0388 -4.19338,-0.0333 -6.53055,-0.11861 -10.16873,-2.35066 -4.05578,-4.38126 -4.30372,-7.56359 -4.32007,-13.28215 -0.01,-0.828 -0.0199,-1.65601 -0.0301,-2.5091 -0.0292,-2.74212 -0.0428,-5.48401 -0.0539,-8.22625 -0.0115,-1.90709 -0.023,-3.81417 -0.0345,-5.72126 -0.021,-4.00145 -0.0327,-8.00283 -0.0397,-12.004334 -0.011,-5.11931 -0.059,-10.23756 -0.11594,-15.35653 -0.0373,-3.94121 -0.0477,-7.88216 -0.0507,-11.82353 -0.006,-1.88663 -0.0221,-3.77326 -0.0484,-5.65972 -0.0343,-2.64537 -0.0303,-5.28815 -0.0174,-7.93366 -0.0184,-0.77428 -0.0369,-1.54857 -0.0558,-2.34631 0.0769,-5.03477 1.26572,-8.33553 4.81725,-11.98436 3.83421,-2.57566 7.90826,-2.24742 12.38801,-2.15322 z" fill="#F9F9FB" id="path17" style="display:none;fill:#000000" />
      <path id="lpe_path-effect17" style="fill:#000000" class="powerclip" d="M -14.150798,-5.1261017 H 238.68174 V 237.95504 H -14.150798 Z m 65.080864,44.5445077 3e-5,-6.2e-4 c -4.47975,-0.0942 -8.5538,-0.42244 -12.38801,2.15322 -3.55153,3.64883 -4.74035,6.94959 -4.81725,11.98436 0.0189,0.79774 0.0374,1.57203 0.0558,2.34631 -0.0129,2.64551 -0.0169,5.28829 0.0174,7.93366 0.0263,1.88646 0.0424,3.77309 0.0484,5.65972 0.003,3.94137 0.0134,7.88232 0.0507,11.82353 0.05694,5.11897 0.10494,10.23722 0.11594,15.35653 0.007,4.001504 0.0187,8.002884 0.0397,12.004334 0.0115,1.90709 0.023,3.81417 0.0345,5.72126 0.0111,2.74224 0.0247,5.48413 0.0539,8.22625 0.0102,0.85309 0.0201,1.6811 0.0301,2.5091 0.01635,5.71856 0.26429,8.90089 4.32007,13.28215 3.63818,2.23205 5.97535,2.31736 10.16873,2.35066 0.97534,-0.0132 1.92198,-0.026 2.86863,-0.0388 3.2007,0.007 6.4004,0.008 9.60104,-0.0165 2.2901,-0.0185 4.58026,-0.03 6.87042,-0.035 4.77498,-0.004 9.54981,-0.012 14.32472,-0.0381 6.21088,-0.0397 12.42153,-0.0741 18.632534,-0.0852 6.00986,-0.009 12.01967,-0.0237 18.02951,-0.0445 1.171,-0.004 2.30756,-0.008 3.44412,-0.0123 3.32525,-0.01 6.65041,-0.0217 9.97562,-0.0414 1.03758,-0.007 2.04465,-0.0129 3.05172,-0.0199 8.59269,-0.0244 15.7421,-1.09299 23.91016,-3.89575 11.63546,-4.77054 20.71032,-14.30364 26.05469,-25.56641 0.54051,-1.37099 0.54051,-1.37099 1.07031,-2.71484 2.2286,-5.54943 3.3505,-10.402994 3.3125,-16.398444 -0.0316,-1.25066 -0.0316,-1.25066 -0.0625,-2.47656 -0.0187,-3.04646 0.002,-6.08792 -0.25,-9.125 -0.34,-1.02 -0.67,-2.01 -1,-3 -2.75388,-8.89829 -6.43774,-16.12843 -12.84375,-22.96875 -9.70467,-9.06829 -21.93387,-14.27573 -35.18762,-14.48227 -0.99373,-2.2e-4 -1.95823,-4.3e-4 -2.92273,-6.4e-4 -3.30712,-0.037 -6.61365,-0.0682 -9.92097,-0.0795 -2.35859,-0.0053 -4.71717,-0.014 -7.07573,-0.026 -4.93467,-0.0264 -9.86925,-0.0469 -14.804,-0.0519 -6.400234,-0.003 -12.799344,-0.0217 -19.199304,-0.0838 -5.00679,-0.049 -10.01294,-0.0797 -15.01996,-0.0877 -2.38886,0 -4.77771,-0.003 -7.16657,-0.008 -3.42629,-0.0415 -6.85023,-0.0813 -10.27679,-0.0709 -1.06966,0.006 -2.10786,0.0117 -3.14606,0.0177 z" />
    </clipPath>
    <clipPath clipPathUnits="userSpaceOnUse" id="clipPath18">
      <path d="m 35.64453,46.83984 c 11.15536,8.29234 18.79168,20.7471 21.23047,34.47266 1.82444,15.75478 -1.28493,30.06421 -11.11719,42.76953 -0.62133,0.73606 -1.24265,1.47211 -1.88281,2.23047 -0.62133,0.76699 -1.24266,1.53398 -1.88281,2.32422 -8.14646,9.12218 -20.98824,15.63953 -33.22437,16.89136 -16.85781,0.94174 -30.44367,-3.07033 -43.58032,-13.90308 -4.83356,-4.46635 -8.10089,-9.60855 -11.3125,-15.3125 -0.4125,-0.71414 -0.825,-1.42828 -1.25,-2.16406 -6.06658,-11.19641 -6.94171,-26.97752 -3.6875,-39.21094 0.58869,-1.56438 1.24021,-3.10591 1.9375,-4.625 0.46406,-1.03383 0.92813,-2.06766 1.40625,-3.13281 C -40.871,53.25808 -29.78921,43.23394 -15.1875,37.875 2.72819,32.94231 20.57725,36.25007 35.64453,46.83984 Z" fill="#FAF9FB" id="path18" style="display:none;fill:#000000" />
      <path id="lpe_path-effect18" style="fill:#000000" class="powerclip" d="M -93.374336,-5.0016611 H 97.911893 V 185.68478 H -93.374336 Z M 35.64453,46.83984 C 20.57725,36.25007 2.72819,32.94231 -15.1875,37.875 c -14.60171,5.35894 -25.6835,15.38308 -32.53125,29.30469 -0.47812,1.06515 -0.94219,2.09898 -1.40625,3.13281 -0.69729,1.51909 -1.34881,3.06062 -1.9375,4.625 -3.25421,12.23342 -2.37908,28.01453 3.6875,39.21094 0.425,0.73578 0.8375,1.44992 1.25,2.16406 3.21161,5.70395 6.47894,10.84615 11.3125,15.3125 13.13665,10.83275 26.72251,14.84482 43.58032,13.90308 12.23613,-1.25183 25.07791,-7.76918 33.22437,-16.89136 0.64015,-0.79024 1.26148,-1.55723 1.88281,-2.32422 0.64016,-0.75836 1.26148,-1.49441 1.88281,-2.23047 C 55.59007,111.37671 58.69944,97.06728 56.875,81.3125 54.43621,67.58694 46.79989,55.13218 35.64453,46.83984 Z" />
    </clipPath>
    <clipPath clipPathUnits="userSpaceOnUse" id="clipPath19">
      <path d="m 36.235042,32.876835 c 1.17647,-0.0107 1.17647,-0.0107 2.37671,-0.0217 2.59296,-0.0169 5.1842,0.003 7.7771,0.0239 1.80879,-8.3e-4 3.61758,-0.003 5.42636,-0.007 3.7948,-0.003 7.58901,0.0119 11.3837,0.0393 4.84197,0.0339 9.68288,0.0281 14.5249,0.009 3.73893,-0.0106 7.47762,-0.002 11.21654,0.0134 1.7836,0.005 3.56723,0.005 5.35083,-0.002 14.245598,-0.0313 24.756878,1.68849 35.683608,11.70075 8.03833,8.25221 9.7691,17.73226 9.82471,28.80615 -0.12814,7.18269 -1.77533,12.8153 -5.38721,19.06885 -0.42281,0.74637 -0.84563,1.49273 -1.28125,2.26172 -5.18318,7.910375 -13.61242,12.495425 -22.51468,15.093545 -6.84874,1.37812 -13.888518,1.11703 -20.848598,1.11348 -1.70009,0.007 -3.40018,0.0148 -5.10027,0.0231 -3.54436,0.0134 -7.0885,0.015 -10.63289,0.009 -4.53746,-0.006 -9.07386,0.0248 -13.61111,0.0651 -3.50279,0.0259 -7.00532,0.0288 -10.50818,0.0251 -1.67334,0.002 -3.34669,0.0113 -5.01994,0.0291 -2.33599,0.0222 -4.6698,0.0125 -7.00579,-0.005 -0.68632,0.0133 -1.37264,0.0265 -2.07975,0.0402 -3.83073,-0.0671 -5.31298,-0.58517 -8.30237,-3.06888 -3.12267,-3.85503 -3.22954,-5.7847 -3.27217,-10.701045 -0.0128,-1.28506 -0.0257,-2.57012 -0.0389,-3.89412 -0.008,-1.40988 -0.0156,-2.81977 -0.0224,-4.22966 -0.004,-0.70904 -0.008,-1.41808 -0.0123,-2.14861 -0.0209,-3.75344 -0.0352,-7.50684 -0.0445,-11.26033 -0.0111,-3.87389 -0.0454,-7.74721 -0.0852,-11.6209 -0.0262,-2.98119 -0.0345,-5.96225 -0.0381,-8.94354 -0.005,-1.42773 -0.0165,-2.85546 -0.035,-4.28309 -0.0244,-2.00071 -0.021,-4.00171 -0.0165,-6.00256 -0.006,-1.13759 -0.0117,-2.27517 -0.0178,-3.44722 1.20059,-7.52103 5.38607,-8.79648 12.3105,-8.68657 z" fill="#FAF8FA" id="path19" style="display:none;fill:#000000" />
      <path id="lpe_path-effect19" style="fill:#000000" class="powerclip" d="M -13.112121,-5.0399762 H 177.76758 V 187.14285 H -13.112121 Z m 49.347163,37.9168112 5e-5,-5.3e-4 c -6.92443,-0.10991 -11.10991,1.16554 -12.3105,8.68657 0.0061,1.17205 0.0118,2.30963 0.0178,3.44722 -0.0045,2.00085 -0.0079,4.00185 0.0165,6.00256 0.0185,1.42763 0.03,2.85536 0.035,4.28309 0.0036,2.98129 0.0119,5.96235 0.0381,8.94354 0.0398,3.87369 0.0741,7.74701 0.0852,11.6209 0.0093,3.75349 0.0236,7.50689 0.0445,11.26033 0.0043,0.73053 0.0083,1.43957 0.0123,2.14861 0.0068,1.40989 0.0144,2.81978 0.0224,4.22966 0.0132,1.324 0.0261,2.60906 0.0389,3.89412 0.04263,4.916345 0.1495,6.846015 3.27217,10.701045 2.98939,2.48371 4.47164,3.00178 8.30237,3.06888 0.70711,-0.0137 1.39343,-0.0269 2.07975,-0.0402 2.33599,0.0175 4.6698,0.0272 7.00579,0.005 1.67325,-0.0178 3.3466,-0.0271 5.01994,-0.0291 3.50286,0.004 7.00539,8e-4 10.50818,-0.0251 4.53725,-0.0403 9.07365,-0.0711 13.61111,-0.0651 3.54439,0.006 7.08853,0.004 10.63289,-0.009 1.70009,-0.008 3.40018,-0.0161 5.10027,-0.0231 6.96008,0.004 13.999858,0.26464 20.848598,-1.11348 8.90226,-2.59812 17.3315,-7.18317 22.51468,-15.093545 0.43562,-0.76899 0.85844,-1.51535 1.28125,-2.26172 3.61188,-6.25355 5.25907,-11.88616 5.38721,-19.06885 -0.0556,-11.07389 -1.78638,-20.55394 -9.82471,-28.80615 -10.92673,-10.01226 -21.43801,-11.73205 -35.683608,-11.70075 -1.7836,0.007 -3.56723,0.007 -5.35083,0.002 -3.73892,-0.0154 -7.47761,-0.024 -11.21654,-0.0134 -4.84202,0.0191 -9.68293,0.0249 -14.5249,-0.009 -3.79469,-0.0274 -7.5889,-0.0423 -11.3837,-0.0393 -1.80878,0.004 -3.61757,0.0062 -5.42636,0.007 -2.5929,-0.0209 -5.18414,-0.0408 -7.7771,-0.0239 -1.20024,0.011 -1.20024,0.011 -2.37671,0.0217 z" />
    </clipPath>
  </defs>
  <g id="g20" transform="matrix(0.03885565,0,0,0.03885565,-4.9920113,-4.9827581)">
    <path d="m 0,0 c 0.67590087,-0.00382555 1.3518017,-0.00765109 2.0481845,-0.01159257 2.2760544,-0.01035902 4.551858,-0.0063323 6.8279294,-0.0023692 1.6277491,-0.0043452 3.2554961,-0.0095277 4.8832401,-0.01548767 4.43232,-0.01343043 8.864554,-0.01396357 13.296891,-0.0114367 3.702209,0.0010682 7.404401,-0.0038106 11.106607,-0.0086054 8.742487,-0.01111185 17.484931,-0.01152497 26.227422,-0.0054858 9.00441,0.0060249 18.008664,-0.0062296 27.013047,-0.02757007 7.73604,-0.0176572 15.472029,-0.02361037 23.208089,-0.02036225 4.61755,0.001808 9.23499,-7.7822e-4 13.85252,-0.0147145 4.35107,-0.0126387 8.7019,-0.0105775 13.05298,0.002411 1.5902,0.002353 3.18042,-3.2372e-4 4.7706,-0.008623 12.81104,-0.0619955 23.20065,1.78465066 34.51854,7.88453296 0.81178,0.4328833 1.62357,0.8657666 2.45996,1.3117676 7.76682,4.2693086 14.56737,9.3673556 21.22754,15.1882316 0.70382,0.614883 1.40765,1.229766 2.13281,1.863282 14.49673,13.619129 25.64669,35.463552 27.02832,55.46997 0.50365,28.845582 -5.93896,53.586772 -26.41113,74.881592 -19.39647,19.64443 -43.81387,29.90898 -71.35865,30.25171 -3.1595,0.0159 -6.31774,0.0104 -9.47721,-0.0113 -3.39334,-0.0223 -6.78581,-0.0181 -10.1792,-0.008 -8.40674,0.0214 -16.813275,0.004 -25.219991,-0.0215 -7.153057,-0.0214 -14.305546,-0.0234 -21.458593,0.003 -3.3362,0.004 -6.6714,-0.0202 -10.007487,-0.0455 -2.040791,0.005 -4.081579,0.012 -6.12236,0.0204 -0.921055,-0.0149 -1.84211,-0.0298 -2.791076,-0.0452 -4.296376,0.0477 -7.211412,0.24278 -10.630845,2.99087 -4.218021,4.46333 -4.744758,6.71793 -4.742874,12.76744 -0.01542,1.42579 -0.03172,2.85158 -0.04883,4.27735 -0.01644,2.2406 -0.02539,4.48053 -0.01831,6.72119 0.0026,2.16794 -0.02554,4.3338 -0.05786,6.50146 -0.003,1.29535 -0.006,2.5907 -0.009,3.9253 -0.803371,4.42525 -1.976043,5.86593 -5.627685,8.45752 -2.724854,0.50117 -4.816265,0.70445 -7.53125,0.66406 -0.713537,0.005 -1.427073,0.01 -2.162232,0.0145 -1.502749,0.003 -3.005572,-0.006 -4.508179,-0.0267 -2.292534,-0.0268 -4.580175,-2.3e-4 -6.8725582,0.0317 -1.4648545,-0.003 -2.929706,-0.01 -4.3945313,-0.0195 -0.680343,0.0101 -1.360686,0.0202 -2.0616455,0.0307 -3.4868778,-0.0853 -5.325504,-0.58887 -8.1510324,-2.66456 -3.1645809,-4.13583 -3.0112031,-7.08727 -2.9333029,-12.15986 -0.00568,-0.92166 -0.011366,-1.84332 -0.017222,-2.79291 -0.012923,-3.08965 0.0099,-6.178 0.032588,-9.26759 -0.00186,-2.21421 -0.0059,-4.42843 -0.011948,-6.64264 -0.00999,-6.01429 0.011216,-12.02811 0.03848,-18.04233 0.023797,-6.28646 0.020885,-12.57292 0.021304,-18.85942 0.00463,-10.55445 0.028143,-21.10875 0.064468,-31.66313 0.037371,-10.86525 0.058597,-21.73038 0.061523,-32.595702 1.828e-4,-0.669629 3.656e-4,-1.339259 5.54e-4,-2.02918 1.79e-4,-0.668462 3.579e-4,-1.336923 5.423e-4,-2.025641 3.654e-4,-1.345832 7.378e-4,-2.691665 0.00112,-4.037497 1.855e-4,-0.663681 3.71e-4,-1.327362 5.622e-4,-2.011155 0.00378,-10.97369 0.024608,-21.947356 0.045441,-32.921025 0.00624,-3.751459 0.00987,-7.502914 0.013034,-11.254377 0.00588,-5.88427 0.022151,-11.768422 0.046604,-17.652643 0.00746,-2.16482 0.011513,-4.329654 0.01198,-6.494486 0.00125,-2.944074 0.014735,-5.887835 0.031548,-8.831854 -0.00242,-0.866227 -0.00483,-1.7324538 -0.00732,-2.6249302 C -8.7202998,0.87415507 -7.2946588,0.01232119 0,0 Z" fill="#343434" id="path2" style="fill:#000000" transform="translate(498.50645,524.7393)" clip-path="url(#clipPath16)" />
    <path d="m 0,0 c 1.026129,-0.00287018 2.052258,-0.00574036 3.1094818,-0.00869751 2.1520697,-0.00202623 4.3041584,0.00340173 6.456192,0.01602173 3.2695482,0.01609053 6.5378632,9.275e-5 9.8073732,-0.01904297 2.10482,0.00198236 4.20964,0.0058259 6.314453,0.01171875 1.445731,-0.00910904 1.445731,-0.00910904 2.92067,-0.0184021 23.412419,0.23941869 42.525275,16.5951691 58.169174,32.4168391 0.400898,-0.484687 0.801797,-0.969375 1.214843,-1.46875 7.548294,-8.900481 15.782503,-15.544814 25.785153,-21.5312495 0.8018,-0.5066016 1.6036,-1.0132031 2.42969,-1.5351563 2.90571,-1.6559894 5.82684,-2.8824521 8.94531,-4.0898437 1.62036,-0.6380859 1.62036,-0.6380859 3.27344,-1.2890625 6.82486,-2.21131884 13.64491,-2.25691236 20.74609,-2.2890625 0.9874,-0.0057 1.9748,-0.0114001 2.99212,-0.017273 2.0818,-0.009411 4.16361,-0.0159684 6.24543,-0.0198364 3.16002,-0.009703 6.31939,-0.040763 9.47925,-0.07226562 2.0319,-0.0065317 4.0638,-0.01178149 6.0957,-0.015625 0.93263,-0.0123468 1.86525,-0.0246936 2.82613,-0.03741455 9.61963,0.03216275 17.8088,2.84161727 26.21684,7.36553957 0.72454,0.3888135 1.44907,0.777627 2.19556,1.1782227 20.99682,11.6350208 36.91706,29.8668648 44.55444,52.8217768 2.61306,10.553285 3.44274,20.751332 3.40406,31.614258 0.006,1.483541 0.0127,2.967078 0.0208,4.450608 0.0177,3.972397 0.0168,7.944577 0.0111,11.917007 -0.003,3.32829 0.003,6.65655 0.009,9.98484 0.014,7.84495 0.0126,15.6898 0.001,23.53475 -0.0115,8.08469 0.003,16.16904 0.0294,24.25368 0.0221,6.96511 0.0288,13.93011 0.0229,20.89525 -0.003,4.15046 -9.6e-4,8.30071 0.0162,12.45115 0.0154,3.89087 0.0115,7.78125 -0.007,11.6721 -0.004,1.42706 -5.5e-4,2.85416 0.01,4.28118 0.0132,1.94639 -7.1e-4,3.89291 -0.016,5.83928 -2.1e-4,1.08906 -4.2e-4,2.17812 -6.4e-4,3.30018 -0.61968,3.47338 -1.76289,4.65158 -4.50057,6.80572 -2.05531,0.50793 -2.05531,0.50793 -4.26196,0.51758 -0.83089,0.0126 -1.66177,0.0252 -2.51784,0.0382 -0.88864,-0.008 -1.77728,-0.0162 -2.69285,-0.0245 -0.91946,0.004 -1.83892,0.008 -2.78624,0.0116 -1.94081,0.003 -3.88166,-0.005 -5.82241,-0.0214 -2.97437,-0.0214 -5.94634,-1.8e-4 -8.92065,0.0254 -1.88607,-0.003 -3.77214,-0.008 -5.6582,-0.0156 -0.89067,0.008 -1.78134,0.0162 -2.69899,0.0245 -0.82774,-0.0126 -1.65547,-0.0252 -2.50829,-0.0382 -0.7274,-0.003 -1.4548,-0.006 -2.20424,-0.01 -2.81066,-0.74035 -3.45134,-2.04171 -4.92833,-4.50793 -0.37638,-2.76001 -0.37638,-2.76001 -0.37854,-5.99442 -0.008,-1.22793 -0.0164,-2.45585 -0.0248,-3.72099 0.006,-1.35805 0.0122,-2.7161 0.0186,-4.07414 -0.004,-1.43263 -0.01,-2.86525 -0.0163,-4.29787 -0.0117,-3.0846 -0.0142,-6.16903 -0.01,-9.25365 0.007,-4.88428 -0.009,-9.76832 -0.0284,-14.65255 -0.0379,-10.37712 -0.0506,-20.75421 -0.0609,-31.13138 -0.0111,-11.18305 -0.0266,-22.36598 -0.0707,-33.54895 -0.0183,-4.84778 -0.0223,-9.69529 -0.0151,-14.5431 0.002,-3.02807 -0.009,-6.056 -0.0234,-9.084037 -0.004,-1.395498 -0.003,-2.791021 0.004,-4.186508 0.0625,-14.126538 -2.80077,-25.698848 -12.64462,-36.262408 -10.48816,-9.711259 -24.00744,-14.174202 -38.23047,-13.695312 -13.81578,1.748057 -23.85072,8.630282 -32.72656,18.976562 -5.46253,7.521394 -7.91348,15.40968 -7.92427,24.623795 -0.004,1.237973 -0.008,2.475947 -0.0121,3.751434 4.7e-4,1.363938 0.001,2.727875 0.002,4.091813 -0.003,1.442505 -0.007,2.88501 -0.0105,4.327514 -0.008,3.101467 -0.013,6.202917 -0.0163,9.304387 -0.006,4.90365 -0.0225,9.80724 -0.0413,14.71086 -0.006,1.67976 -0.0127,3.35952 -0.019,5.03928 -0.003,0.84101 -0.006,1.68203 -0.01,2.54852 -0.0421,11.41295 -0.0751,22.82586 -0.0874,34.23887 -0.008,7.7039 -0.0308,15.40762 -0.0694,23.11143 -0.0198,4.07572 -0.0322,8.15118 -0.0272,12.22695 0.005,3.83085 -0.009,7.66118 -0.037,11.49192 -0.007,1.40607 -0.007,2.81219 2e-4,4.21826 0.009,1.91856 -0.009,3.83718 -0.0285,5.75566 -0.004,1.61077 -0.004,1.61077 -0.007,3.25408 -0.62779,3.44834 -1.78757,4.63074 -4.50502,6.77398 -2.08654,0.50793 -2.08654,0.50793 -4.33789,0.51758 -0.84768,0.0126 -1.69536,0.0252 -2.568722,0.0382 -0.90738,-0.008 -1.814759,-0.0162 -2.749634,-0.0245 -0.939284,0.004 -1.878567,0.008 -2.846314,0.0116 -1.983694,0.003 -3.967424,-0.005 -5.95105,-0.0214 -3.035806,-0.0214 -6.069247,-2e-4 -9.10498,0.0254 -1.928391,-0.003 -3.85678,-0.008 -5.785156,-0.0156 -0.907379,0.008 -1.814759,0.0162 -2.749634,0.0245 -1.271519,-0.0189 -1.271519,-0.0189 -2.568726,-0.0382 -1.114414,-0.005 -1.114414,-0.005 -2.251342,-0.01 -3.01292,-0.73344 -4.144466,-2.11948 -6.086548,-4.50793 -0.502222,-2.72878 -0.502222,-2.72878 -0.505524,-5.91849 -0.01102,-1.2111 -0.02204,-2.4222 -0.0334,-3.67 0.0079,-1.33916 0.01617,-2.67831 0.02477,-4.01747 -0.0055,-1.41293 -0.0127,-2.82585 -0.02159,-4.23875 -0.01534,-3.04209 -0.01814,-6.08385 -0.01123,-9.12597 0.01079,-4.81711 -0.0066,-9.63386 -0.02781,-14.45092 -0.03028,-7.6272 -0.04196,-15.25429 -0.04558,-22.88154 -0.0066,-13.63635 -0.03581,-27.27262 -0.0851,-40.90888 -0.01643,-4.78084 -0.02193,-9.56152 -0.01841,-14.34238 4.39e-4,-2.98652 -0.0072,-5.97299 -0.01668,-8.95949 -0.0039,-2.02815 0.0021,-4.056312 0.0084,-6.084455 -0.0608,-13.869944 -2.211078,-25.291961 -12.017868,-35.714158 -4.328481,-4.01637 -8.991056,-7.026536 -14.25,-9.6875 C 31.9575,47.983359 31.137656,47.568281 30.292969,47.140625 19.462747,42.447529 6.4068518,42.82254 -4.5117187,47.070312 c -4.6544647,2.280286 -8.7040063,5.052895 -12.7109373,8.328125 -0.972598,0.78504 -0.972598,0.78504 -1.964844,1.585938 -7.456919,6.690015 -12.598957,17.375568 -13.219265,27.384832 -0.0739,3.752274 -0.08319,7.501868 -0.07126,11.254572 -0.0028,1.442802 -0.0064,2.885603 -0.01097,4.3284 -0.0081,3.095991 -0.01029,6.191911 -0.0081,9.287911 0.0028,4.89544 -0.01155,9.79073 -0.02898,14.68613 -0.04696,13.91658 -0.07098,27.83315 -0.07748,41.74981 -0.0037,7.69438 -0.02175,15.38859 -0.05509,23.0829 -0.02023,4.86706 -0.02258,9.7337 -0.01172,14.60079 0.0026,3.02455 -0.01138,6.04885 -0.03008,9.07333 -0.0053,1.40285 -0.0038,2.80575 0.005,4.20859 0.0111,1.91405 -0.0046,3.82819 -0.02176,5.74219 -0.0016,1.60688 -0.0016,1.60688 -0.0033,3.24622 -0.624747,3.44378 -1.79309,4.62421 -4.502222,6.76839 -1.979386,0.50793 -1.979386,0.50793 -4.078369,0.51758 -0.790845,0.0126 -1.58169,0.0252 -2.3965,0.0382 -1.267342,-0.0121 -1.267342,-0.0121 -2.560287,-0.0245 -1.312601,0.006 -1.312601,0.006 -2.651719,0.0116 -1.846655,0.003 -3.69335,-0.005 -5.539932,-0.0214 -2.829564,-0.0214 -5.656598,-1.8e-4 -8.486084,0.0254 -1.794927,-0.003 -3.589853,-0.008 -5.384765,-0.0156 -0.84692,0.008 -1.693839,0.0162 -2.566422,0.0245 -5.8516,-0.0937 -5.8516,-0.0937 -8.058503,-2.19939 -1.640565,-3.02627 -1.657578,-5.13677 -1.665099,-8.57618 -0.01486,-1.91723 -0.01486,-1.91723 -0.03001,-3.8732 0.0042,-1.41464 0.0088,-2.82929 0.01364,-4.24393 -0.0057,-1.49185 -0.01267,-2.98371 -0.0208,-4.47555 -0.01797,-4.05449 -0.01675,-8.10877 -0.01106,-12.16328 0.0031,-3.39367 -0.003,-6.7873 -0.009,-10.18096 -0.01406,-8.02071 -0.01248,-16.04132 -0.0011,-24.06204 0.01143,-8.24098 -0.0025,-16.48162 -0.0294,-24.72255 -0.02227,-7.09499 -0.02877,-14.18987 -0.02292,-21.28489 0.0033,-4.22815 0.0011,-8.4561 -0.01625,-12.68422 -0.01564,-3.98924 -0.01132,-7.978 0.0073,-11.967221 0.0036,-1.451034 7.12e-4,-2.902104 -0.0099,-4.353103 -0.08907,-13.22212 1.932368,-26.392567 8.329697,-38.144269 0.347644,-0.662255 0.695288,-1.324511 1.053467,-2.006835 9.614439,-17.953965 22.850911,-30.732747 40.634033,-40.4306645 1.013445,-0.5601379 1.013445,-0.5601379 2.047363,-1.1315918 C -19.47624,1.6199593 -10.321012,-0.06516589 0,0 Z" fill="#343434" transform="translate(209.22266,524.60156)" id="path3" style="fill:#000000" />
    <path d="m 0,0 c 18.533374,-0.14056371 37.066638,-0.24616285 55.600435,-0.31087303 8.606841,-0.0308534 17.213348,-0.0728693 25.819975,-0.14176369 7.507204,-0.0600647 15.014168,-0.0985742 22.52161,-0.11189425 3.97015,-0.007778 7.93961,-0.0258774 11.90955,-0.0698494 3.74796,-0.0411713 7.49495,-0.0532009 11.24311,-0.0442657 2.00847,-0.0024 4.01683,-0.0344535 6.02501,-0.0678749 C 148.24991,-0.64513542 159.95324,6.0139719 171,16 c 14.33891,15.003459 19.72719,36.85607 19.30859,57.050781 -0.54366,11.886058 -5.64604,24.588544 -13.58984,33.511719 -1.97075,2.2848 -1.97075,2.2848 -1.67188,4.96484 1.06484,2.76248 2.38572,4.70018 4.20313,7.03516 11.6349,16.05473 12.82419,35.82823 10.4292,55.00635 -0.82048,4.62078 -2.12703,8.99857 -3.6792,13.43115 -0.36223,1.07121 -0.72445,2.14242 -1.09766,3.24609 -5.63434,14.99308 -16.11554,25.88101 -29.96484,33.56641 -0.62898,0.3611 -1.25796,0.7222 -1.90601,1.09424 -15.88795,8.32622 -33.64898,7.71091 -51.06653,7.66349 -2.766675,-0.005 -5.533266,0.002 -8.299935,0.009 -6.52034,0.0169 -13.040444,0.0135 -19.560777,-0.003 -6.714146,-0.017 -13.427646,-9.2e-4 -20.141721,0.0312 -5.793188,0.0267 -11.586174,0.034 -17.379416,0.0255 -3.448518,-0.005 -6.896645,-0.003 -10.345114,0.0178 -3.829348,0.0217 -7.657909,0.003 -11.487265,-0.0198 -1.137104,0.0117 -2.274208,0.0234 -3.44577,0.0354 -7.6295745,-0.0927 -7.6295745,-0.0927 -11.00703414,-2.96218 -1.77866766,-3.70601 -1.87147996,-7.11782 -1.82917786,-11.14576 -0.00383,-0.80469 -0.00765,-1.60938 -0.011597,-2.43846 -0.00271,-1.69525 0.00461,-3.39054 0.021362,-5.08571 0.021448,-2.5925 1.674e-4,-5.18224 -0.025391,-7.77465 0.00264,-1.6504 0.00777,-3.3008 0.015625,-4.95118 -0.0081,-0.773 -0.016194,-1.546 -0.024536,-2.34242 0.058588,-3.36569 0.1721379,-5.47396 2.27475449,-8.17154 2.70151691,-2.12545 3.89976231,-2.29083 7.29511551,-2.27997 1.0106048,-0.007 2.02121,-0.0134 3.062439,-0.0203 1.102919,0.0129 2.205838,0.0258 3.342178,0.039 1.16631,-0.002 2.332619,-0.005 3.534271,-0.007 2.534529,-0.003 5.069079,0.004 7.603568,0.0183 4.014639,0.0219 8.028506,0.0188 12.043146,0.008 9.974875,-0.0232 19.949629,-0.005 29.924484,0.0215 7.746356,0.02 15.49237,0.0284 23.238727,0.003 4.624242,-0.0136 9.247464,0.01 13.871674,0.0396 2.43325,-0.005 4.86651,-0.012 7.29976,-0.0204 1.09279,0.0149 2.18559,0.0298 3.3115,0.0452 8.05752,-0.0748 14.02454,-2.01453 19.87526,-7.70363 0.43442,-0.63938 0.86883,-1.27875 1.31641,-1.9375 0.67869,-0.95906 0.67869,-0.95906 1.37109,-1.9375 3.77619,-6.53714 3.90096,-12.64362 3.19141,-20.0625 -1.65215,-6.11393 -5.62887,-10.72515 -11,-14 -6.92855,-3.39831 -13.55105,-3.41468 -21.13171,-3.38013 -2.20315,0.009 -4.40547,-0.001 -6.60859,-0.0166 -6.257289,-0.0399 -12.514509,-0.0413 -18.771908,-0.0391 -3.841394,5e-5 -7.682329,-0.0191 -11.523598,-0.0493 -2.167302,-0.0108 -4.333726,0.001 -6.500999,0.0138 -1.315267,-0.01 -2.630534,-0.0201 -3.985657,-0.0304 -1.157236,1.7e-4 -2.314471,3.3e-4 -3.506775,5e-4 C 54.342068,135.88953 53.161994,134.9375 51,132 c -0.397726,-2.9807 -0.561471,-5.58404 -0.53125,-8.5625 -0.0038,-0.8283 -0.0077,-1.65661 -0.0116,-2.51001 -0.0027,-1.7483 0.0046,-3.49665 0.02136,-5.24487 0.02141,-2.67378 1.95e-4,-5.34487 -0.02539,-8.01856 0.0026,-1.70052 0.0078,-3.40105 0.01563,-5.10156 -0.0081,-0.79801 -0.01619,-1.59602 -0.02454,-2.41821 0.05659,-3.355018 0.163656,-5.609792 2.179535,-8.357562 3.133638,-2.356215 5.01468,-2.273956 8.913849,-2.253281 0.647764,-0.0023 1.295528,-0.0046 1.962921,-0.007 1.403368,-0.0026 2.806775,0.0038 4.210071,0.01825 2.229823,0.02196 4.458293,0.01815 6.688183,0.0075 5.541952,-0.02164 11.083604,-0.0044 16.625519,0.0215 4.678399,0.02152 9.355932,0.02317 14.034322,-0.0029 2.18169,-0.0043 4.36183,0.02018 6.54335,0.04553 9.01883,0.01035 16.54244,-1.054033 23.32886,-7.430542 5.40061,-5.801992 6.58653,-11.361181 6.45199,-19.174087 -0.73688,-5.797296 -3.67586,-9.349688 -7.75781,-13.324219 -7.23802,-4.653013 -12.88055,-5.112827 -21.35596,-5.040527 -1.74513,-0.0032 -1.74513,-0.0032 -3.52551,-0.0065 -2.51811,-0.0031 -5.03623,5e-4 -7.55432,0.01001 -3.984238,0.01375 -7.96816,0.0079 -11.952367,-0.0048 -10.608889,-0.03005 -21.217724,-0.02864 -31.826633,-0.0097 -6.980293,0.01234 -13.960255,0.01047 -20.940509,-0.01839 -3.310753,-0.01273 -6.62075,-0.01255 -9.931501,0.0047 -3.689097,0.01899 -7.376961,0.0077 -11.066036,-0.01033 -1.093115,0.01334 -2.18623,0.02668 -3.31247,0.04042 C 4.7937005,44.572082 4.7937005,44.572082 0.81945801,41.707535 -1.662058,38.014792 -1.6487333,34.784214 -1.5234375,30.488281 c 0.0047,-0.809435 0.00941,-1.618871 0.014252,-2.452835 0.021281,-2.575195 0.077875,-5.148305 0.1341858,-7.722946 0.016514,-1.742819 0.03086,-3.48566 0.042969,-5.228516 C -1.1966797,2.3933594 -1.1966797,2.3933594 0,0 Z" fill="#343434" transform="translate(749,525)" id="path4" style="fill:#000000" />
    <path d="M 0,0 C 1.3641504,0.00737183 1.3641504,0.00737183 2.7558594,0.01489258 25.752172,0.40825057 46.724297,9.0577082 63.875,24.3125 c 0.757969,0.663867 1.515938,1.327734 2.296875,2.011719 9.919791,9.252771 16.804013,21.435238 21.703125,33.988281 0.413789,1.055742 0.827578,2.111484 1.253906,3.199219 7.388522,22.577468 3.32335,47.944701 -6.734375,68.882811 -3.225283,6.18252 -7.056125,11.57571 -11.519531,16.91797 -0.520781,0.66645 -1.041562,1.33289 -1.578125,2.01953 C 56.312041,167.31094 35.001059,177.3791 14.875,180.3125 c -26.36279,1.71441 -49.439055,-2.11137 -70.0625,-19.5 C -74.524067,143.76359 -86.47075,121.16151 -88.267334,95.260498 -89.404267,70.74267 -81.471348,48.013389 -64.929687,29.710937 -47.986835,11.678179 -25.072669,-0.1629629 0,0 Z" fill="#CC3502" transform="translate(859.125,322.6875)" id="path5" style="fill:#000000" clip-path="url(#clipPath18)" />
    <path d="m 0,0 c 0.94166016,-0.0112793 1.8833203,-0.02255859 2.8535156,-0.03417969 1.0316327,0.0080969 2.0632654,0.01619385 3.1261597,0.02453614 1.6323761,-0.01051392 1.6323761,-0.01051392 3.2977295,-0.02124024 3.6129272,-0.01766091 7.2250762,-0.0059182 10.8380122,0.0075684 2.515688,-0.0026949 5.031375,-0.0065773 7.547059,-0.01159668 5.286181,-0.005908 10.572085,0.0023191 15.858215,0.02136231 6.075107,0.02163565 12.149674,0.01481898 18.224767,-0.0073056 5.870642,-0.02051084 11.741083,-0.01811666 17.611743,-0.0064731 2.482834,0.0026512 4.965683,-5.4527e-4 7.448501,-0.0099182 16.430278,-0.04836005 31.174778,0.46283038 45.981588,8.35768126 0.66645,0.3454687 1.33289,0.6909375 2.01953,1.046875 5.3415,2.8425494 10.11607,6.0659064 14.60547,10.1406254 0.68321,0.603281 1.36641,1.206562 2.07031,1.828125 12.22373,11.433596 20.51313,28.516373 21.26563,45.300781 0.37352,22.092485 -4.60237,40.499299 -20.10547,56.841069 -7.36203,7.37609 -15.72023,12.84935 -25.23047,17.03002 -0.66515,0.29649 -1.33031,0.59297 -2.01562,0.89844 -10.37412,4.25929 -21.2126,4.38541 -32.254668,4.37596 -2.522782,-9.8e-4 -5.045152,0.0121 -7.567875,0.029 -7.163615,0.046 -14.327178,0.0709 -21.490936,0.0775 -4.402472,0.005 -8.8045,0.0292 -13.206822,0.0653 -1.670492,0.01 -3.341045,0.0121 -5.011558,0.007 -2.33085,-0.007 -4.660369,0.0102 -6.991093,0.0328 -0.684749,-0.008 -1.369498,-0.0163 -2.074997,-0.0248 -4.705498,0.0812 -7.073715,1.23142 -10.386429,4.53892 -1.306946,2.6139 -1.143403,4.59921 -1.175781,7.52344 -0.02385,1.10344 -0.0477,2.20688 -0.07227,3.34375 -0.04282,2.33055 -0.07415,4.66133 -0.09375,6.99219 -0.02771,1.10602 -0.05543,2.21203 -0.08398,3.35156 -0.01458,1.01369 -0.02916,2.02738 -0.04419,3.07178 -0.677996,3.47586 -1.678368,4.64936 -4.53003,6.71728 -3.96156,0.81476 -7.963946,0.60296 -11.9999995,0.5625 -1.093125,0.0239 -2.18625,0.0477 -3.3125,0.0723 -1.051875,-0.002 -2.10375,-0.004 -3.1875,-0.006 -0.95906252,7.3e-4 -1.91812502,10e-4 -2.90625002,0.002 -3.67408398,-0.89397 -4.56867368,-2.48435 -6.59374998,-5.63111 -0.5005713,-3.29025 -0.5005713,-3.29025 -0.5012055,-7.10414 -0.00553,-0.70382 -0.011069,-1.40764 -0.016771,-2.13279 -0.013586,-2.35245 0.00135,-4.70384 0.016267,-7.05628 -0.00378,-1.68881 -0.00928,-3.37762 -0.016373,-5.06642 -0.013962,-4.5826 -0.00278,-9.16483 0.013711,-13.74741 0.013849,-4.79476 0.00739,-9.5895 0.00387,-14.38427 -0.0027,-8.05089 0.010774,-16.10163 0.033951,-24.15248 0.026619,-9.310802 0.028354,-18.621351 0.016612,-27.932173 -0.010775,-8.95467 -0.00459,-17.909249 0.00956,-26.863911 0.00576,-3.812131 0.00568,-7.624197 9.346e-4,-11.436329 -0.00477,-4.487368 0.00532,-8.974464 0.026955,-13.46178 0.00557,-1.647961 0.00603,-3.295948 0.00105,-4.943911 -0.00594,-2.247286 0.00654,-4.493734 0.023769,-6.740944 0.00243,-1.258206 0.00486,-2.5164116 0.00736,-3.8127449 C -7.3163814,2.2503749 -5.5030676,0.01014041 0,0 Z" fill="#CC3503" transform="translate(146.58771,322.49207)" id="path6" style="fill:#000000" clip-path="url(#clipPath19)" />
    <path d="m 0,0 c 0.65602707,-0.00379669 1.3120541,-0.00759338 1.9879608,-0.01150513 2.1696206,-0.0074072 4.3378986,0.01400608 6.5074005,0.03640747 1.5229727,0.0023882 3.0459487,0.003289 4.5689237,0.0027771 3.200438,0.0031301 6.400429,0.0196887 9.600754,0.04653931 4.051882,0.03360553 8.103264,0.041639 12.155269,0.04010963 3.153275,5.5159e-4 6.306445,0.0116485 9.459685,0.0260029 1.490337,0.006262 2.980686,0.0102813 4.471035,0.0117874 13.645216,0.0288341 28.343855,0.0682162 41.076365,5.45872112 0.748059,0.3063941 1.496118,0.6127881 2.266845,0.9284668 16.210542,6.9639694 23.910982,20.1414734 30.295652,35.9465334 5.19522,13.458044 9.80303,27.140039 14.26148,40.857178 1.44656,4.42234 2.95829,8.776378 4.71899,13.084228 2.69141,6.593974 4.82012,13.366664 7.01953,20.136714 1.8562,5.6556 3.86745,11.1887 6.12061,16.69776 1.15604,2.92381 2.06698,5.89298 2.94189,8.91162 1.33935,4.61587 3.0246,8.9043 4.9375,13.3125 1.11119,2.81633 2.15636,5.65353 3.1875,8.5 0.40896,1.08088 0.40896,1.08088 0.82617,2.18359 1.64012,4.54629 2.56189,8.41485 1.98633,13.31641 -4.82747,3.21831 -10.07246,2.45052 -15.75,2.5 -1.16789,0.0412 -2.33578,0.0825 -3.53906,0.125 -9.67968,0.0878 -9.67968,0.0878 -13.69141,-2.66797 -4.96121,-5.20367 -6.54279,-13.0503 -8.58203,-19.76953 -0.4741,-1.5007 -0.95067,-3.00062 -1.42968,-4.49976 -0.93226,-2.92249 -1.85506,-5.84768 -2.77002,-8.77563 -1.47516,-4.69559 -3.07314,-9.34302 -4.7378,-13.97461 -0.42281,-1.18723 -0.84562,-2.37445 -1.28125,-3.59766 -0.40218,-1.10214 -0.80437,-2.20429 -1.21875,-3.33984 -0.22429,-0.62246 -0.44859,-1.24491 -0.67968,-1.88623 -1.34918,-3.68574 -2.81498,-7.28935 -4.41993,-10.87183 -0.5353,-1.19708 -0.5353,-1.19708 -1.08142,-2.41835 -0.40539,-0.90268 -0.40539,-0.90268 -0.81897,-1.82359 -10.327,-0.0928 -20.653904,-0.16379 -30.981239,-0.20725 -4.795628,-0.0209 -9.59097,-0.0491 -14.386434,-0.0945 -4.629529,-0.0435 -9.258783,-0.0674 -13.8885,-0.0777 -1.764634,-0.007 -3.529253,-0.0218 -5.29377,-0.0434 -2.475379,-0.0291 -4.94963,-0.033 -7.425152,-0.0312 -0.726488,-0.0144 -1.452975,-0.0288 -2.201477,-0.0436 -5.078764,0.041 -7.902403,1.32926 -11.823425,4.49768 -5.138359,5.83273 -5.465481,9.72769 -5.410157,17.43359 0.58771,5.11028 2.442618,8.32544 6.410157,11.56641 5.928972,4.0567 12.197102,3.40587 19.097656,3.37109 2.600913,0.0174 5.201824,0.035 7.802734,0.0527 4.090578,0.0131 8.181134,0.0137 12.271729,0.012 3.954531,-6e-5 7.908615,0.0309 11.863037,0.0603 1.836075,-0.0123 1.836075,-0.0123 3.709244,-0.0248 1.141459,0.01 2.282919,0.0201 3.458969,0.0304 1.501745,-2.5e-4 1.501745,-2.5e-4 3.033828,-5e-4 3.539284,0.63898 5.227081,1.99128 7.762803,4.49879 0.646972,2.96094 0.646972,2.96094 0.664062,6.375 0.0064,1.23234 0.01289,2.46469 0.01953,3.73437 -0.029,1.92586 -0.029,1.92586 -0.05859,3.89063 0.01934,1.28391 0.03867,2.56781 0.05859,3.89062 -0.0064,1.23235 -0.01289,2.46469 -0.01953,3.73438 -0.0056,1.12664 -0.01128,2.25328 -0.01709,3.41406 -0.646972,2.96094 -0.646972,2.96094 -2.393066,5.32398 -5.169173,2.60048 -10.273139,2.22686 -15.980469,2.20337 -1.25743,0.006 -2.51486,0.0124 -3.810394,0.0188 -2.668581,0.007 -5.335659,0.006 -8.004059,-0.009 -2.698102,-0.0136 -5.39478,-0.007 -8.092773,0.0205 -21.698612,0.20695 -44.105535,-0.11128 -61.0537114,-15.59692 -10.9996796,-11.76847 -16.9982366,-26.98539 -16.7856446,-43.0979 0.69647,-15.50869 7.997707,-28.792306 19.1918946,-39.163819 12.8741075,-11.191696 27.5390074,-13.183479 43.8867184,-13.25 1.57613,-0.01688 3.152247,-0.03503 4.728348,-0.0544 4.111424,-0.04714 8.222794,-0.07718 12.334396,-0.10344 4.210313,-0.02999 8.420442,-0.07645 12.630616,-0.12146 8.233633,-0.08562 16.467283,-0.153148 24.701172,-0.208984 0.147558,-5.563268 -0.62959,-9.258524 -3.25,-14.125 C 90.689365,55.46925 90.689365,55.46925 90.229736,54.559856 85.794521,46.01027 80.261359,40.963021 71.168945,37.860393 64.497796,35.944261 57.781943,36.076704 50.904985,36.105512 c -2.400445,0.0092 -4.800126,-0.0012 -7.200532,-0.01662 -6.816189,-0.03987 -13.632308,-0.04129 -20.448594,-0.03905 -4.187323,5.1e-5 -8.374225,-0.01905 -12.561433,-0.04933 -2.3639893,-0.01083 -4.7271762,0.0013 -7.0911393,0.01383 -1.443454,-0.0089 -2.88690137,-0.01897 -4.33033748,-0.03041 -1.26001332,1.66e-4 -2.52002652,3.32e-4 -3.81822202,5.03e-4 C -7.6101074,35.48584 -7.6101074,35.48584 -9.5150452,33.634018 -11.920569,28.915115 -11.07729,23.161434 -11.047607,17.98584 c -0.01998,-1.236211 -0.03996,-2.472422 -0.06055,-3.746094 6.44e-4,-1.187226 0.0013,-2.374453 0.002,-3.597656 -0.0028,-1.6271193 -0.0028,-1.6271193 -0.0056,-3.2871095 C -9.9890517,0.93418685 -5.9294358,-0.01428032 0,0 Z" fill="#CC3503" transform="translate(347.61011,322.51416)" id="path7" style="fill:#000000" />
    <path d="m 0,0 c 1.4515752,-0.00202711 2.9031493,-0.00494381 4.3547211,-0.00869751 3.0128009,-0.00438079 6.0253319,0.00187709 9.0381009,0.01602173 3.856818,0.01722938 7.713015,0.00713837 11.56981,-0.01071739 2.984595,-0.01083559 5.969042,-0.007395 8.953641,3.8337e-4 1.42294,0.00199549 2.845894,-4.3431e-4 4.268818,-0.00743866 1.980699,-0.0076252 3.961446,0.00605928 5.942106,0.02070237 1.12439,0.0023868 2.24878,0.0047736 3.407242,0.0072327 3.230905,0.42454318 4.622854,1.07653149 6.899155,3.38095089 0.746276,4.1118644 0.616273,8.2228395 0.576416,12.3967285 -0.01385,2.031538 0.02018,4.058453 0.05835,6.0896 -0.0019,1.281972 -0.0039,2.563945 -0.0059,3.884765 0.0011,1.76235 0.0011,1.76235 0.0022,3.560303 -0.631103,3.068603 -0.631103,3.068603 -2.783539,5.229248 -3.336945,2.155466 -5.100098,2.338254 -9.039703,2.337647 -1.842979,0.01505 -1.842979,0.01505 -3.72319,0.03041 -0.651754,-0.0041 -1.303508,-0.0081 -1.975012,-0.01228 -2.057708,-0.0127 -4.114087,-0.0013 -6.171747,0.01603 -3.634332,0.02667 -7.268337,0.0323 -10.902756,0.0309 -5.798059,-0.0022 -11.5957083,0.01226 -17.39361,0.05559 -2.0104734,0.0097 -4.02100984,7.5e-4 -6.0314846,-0.0087 -15.4575634,0.0855 -27.9314034,5.08023 -39.2506864,15.768662 -10.442345,11.600684 -14.730316,24.534944 -14.570313,39.863281 0.866193,15.431058 7.097203,28.138028 18.210938,38.757818 12.025737,10.6661 24.507173,13.28279 40.1679685,13.30859 1.3666541,0.0111 2.7332983,0.0235 4.0999298,0.0371 5.7682777,0.0551 11.5366197,0.0862 17.3050997,0.11058 3.543121,0.0159 7.085897,0.0461 10.628839,0.0848 1.994601,0.0172 3.989324,0.0177 5.984,0.0179 1.822631,0.02 1.822631,0.02 3.682083,0.0404 1.599286,0.008 1.599286,0.008 3.23088,0.0154 3.340248,0.44357 5.240162,1.33608 7.9012,3.38527 0.615234,2.95508 0.615234,2.95508 0.59375,6.53125 -0.0026,1.28519 -0.0052,2.57039 -0.0078,3.89453 -0.0145,0.66854 -0.029,1.33708 -0.04395,2.02588 -0.04186,2.04183 -0.04107,4.08037 -0.03418,6.12256 -0.09848,9.81833 -0.09848,9.81833 -1.626037,12.08522 -2.784615,1.98373 -5.015314,1.72922 -8.410096,1.74461 -0.659093,0.007 -1.318187,0.0137 -1.997253,0.0208 -2.184402,0.0183 -4.368088,0.0144 -6.552551,0.009 -1.529198,0.005 -3.058393,0.01 -4.587586,0.0159 -3.214704,0.009 -6.42916,0.006 -9.64386,-0.003 -4.078097,-0.0114 -8.155314,0.009 -12.233295,0.0379 -3.1660706,0.0186 -6.3319392,0.018 -9.49805069,0.0124 -1.50038371,-1.5e-4 -3.00078271,0.006 -4.50111391,0.0183 -13.3204474,0.0956 -25.7797724,-1.90183 -37.7079694,-8.26461 -0.660564,-0.34144 -1.321128,-0.68288 -2.001709,-1.03467 -6.003393,-3.18655 -11.438924,-6.97503 -16.748291,-11.21533 -0.607149,-0.44344 -1.214297,-0.88688 -1.839844,-1.34375 C -79.140571,146.13973 -89.818416,122.90155 -92.566406,102.39844 -94.40195,76.26503 -89.46971,53.390068 -72.511719,32.917969 -53.341648,10.995102 -29.272524,-0.14625383 0,0 Z" fill="#CC3503" transform="translate(707.56641,322.60156)" id="path9" style="fill:#000000" />
    <path d="M 0,0 C 1.2329883,-0.02900391 2.4659766,-0.05800781 3.7363281,-0.08789062 13.943743,-0.15950228 13.943743,-0.15950228 17.5,1.921875 c 2.787747,2.8819278 3.833943,5.1537296 5.125,8.953125 0.234448,0.671118 0.468896,1.342236 0.710449,2.033691 0.850271,2.460231 1.664221,4.930955 2.477051,7.403809 0.745515,2.23587 1.491651,4.471533 2.238281,6.707031 1.180851,3.538208 2.357163,7.077446 3.514893,10.623291 1.937623,5.90848 3.979499,11.717561 6.37915,17.455323 0.930492,2.374664 1.664891,4.763424 2.367676,7.214355 0.986307,3.430634 2.138775,6.700059 3.5,10 1.361225,3.299941 2.513693,6.569366 3.5,10 0.96921,3.36866 2.093448,6.57527 3.4375,9.8125 1.571457,3.803639 2.833403,7.615826 4,11.5625 4.051497,13.41566 9.961168,30.16323 22.5,38 7.274534,3.31821 15.397366,2.87954 23.26758,2.9668 5.69061,0.18523 8.92319,0.92999 13.29492,4.6582 2.04905,4.0981 1.31722,9.30807 1.375,13.8125 0.0561,1.64065 0.0561,1.64065 0.11328,3.31445 0.0116,1.05768 0.0232,2.11535 0.0352,3.20508 0.0198,0.96656 0.0396,1.93311 0.0601,2.92896 -0.83381,3.914 -2.41593,5.35447 -5.5835,7.73901 -3.25464,0.61523 -3.25464,0.61523 -6.91797,0.59375 -0.98593,6e-5 -0.98593,6e-5 -1.99177,1.2e-4 -1.38769,-0.005 -2.775377,-0.0229 -4.16277,-0.0519 -2.092039,-0.0415 -4.180815,-0.0411 -6.273193,-0.0342 -15.801778,-0.0741 -28.520403,-4.81966 -40.111328,-15.76562 -5.076984,-5.47472 -9.468099,-11.49238 -13.542969,-17.74219 -0.835071,-1.26965 -0.835071,-1.26965 -1.687012,-2.56494 -5.183745,-8.32773 -8.143403,-16.89924 -11.062988,-26.18506 -0.703793,-2.1919 -1.411542,-4.38248 -2.120178,-6.57281 -0.434531,-1.34788 -0.865618,-2.69688 -1.292359,-4.04725 C 19.406084,104.027 18.036712,100.18191 16.577595,96.343679 15.28172,92.903206 14.069651,89.433471 12.851563,85.964844 12.579117,85.190485 12.306672,84.416126 12.02597,83.618301 11.452435,81.987302 10.879332,80.35615 10.306641,78.724854 9.4481166,76.280231 8.5874269,73.836378 7.7265625,71.392578 4.678937,62.726257 1.69311,54.044369 -1.1801758,45.318604 -1.9703656,42.960483 -2.7919719,40.631884 -3.6875,38.3125 c -1.4627968,-3.789974 -2.7267787,-7.643316 -4,-11.5 -3.023649,-9.228446 -3.023649,-9.228446 -6.75,-18.1875 -0.916066,-2.8245363 -0.609204,-4.5005596 0.25,-7.3125 C -11.489265,-1.3857347 -3.6273713,0.02800338 0,0 Z" fill="#CC3503" transform="translate(500.1875,322.6875)" id="path12" style="fill:#000000" />
    <path d="m 0,0 c 0.64402771,-1.4603e-4 1.2880554,-2.9205e-4 1.9515991,-4.425e-4 2.1318904,6.9749e-4 4.2636937,0.00848223 6.3955689,0.01631164 1.4768773,0.0018648 2.953755,0.0032884 4.430634,0.0042877 3.889675,0.0038206 7.779314,0.01364701 11.668975,0.02470398 3.968094,0.01022392 7.936194,0.01479574 11.904297,0.01983643 7.787778,0.01072927 15.575524,0.02780023 23.363281,0.04882812 0,0.33 0,0.66 0,1.00000003 -0.803221,0.00365 -1.606443,0.00729 -2.434005,0.011047 -7.577528,0.0379 -15.154565,0.094775 -22.731777,0.1728554 -3.895358,0.039474 -7.79049,0.071662 -11.686024,0.087093 -3.760958,0.015168 -7.521295,0.049614 -11.281977,0.097313 -1.433222,0.014813 -2.8665328,0.022732 -4.2998313,0.023575 -2.0107593,0.00237 -4.0214316,0.031745 -6.0319614,0.062218 -1.14361496,0.00888 -2.2872299,0.017765 -3.4654999,0.026917 C -5.8971497,2.2169363 -7.5980804,3.5874994 -10.285645,6.1135254 -8.0694009,-0.0602961 -6.3872854,-0.01214313 0,0 Z" fill="#444444" transform="translate(810.28564,614.88647)" id="path13" style="fill:#000000" />
    <path d="m 0,0 c 0.66,0.33 1.32,0.66 2,1 -5.94,5.94 -11.88,11.88 -18,18 -0.66,-0.33 -1.32,-0.66 -2,-1 2.058195,-2.25407 4.121314,-4.503273 6.1875,-6.75 0.867217,-0.951328 0.867217,-0.951328 1.751953,-1.921875 C -6.8998664,5.8995903 -3.753868,2.7994947 0,0 Z" fill="#4F4F50" transform="translate(164,541)" id="path14" style="fill:#000000" />
    <path d="m 0,0 c 0.66,0.33 1.32,0.66 2,1 -4.95,4.95 -9.9,9.9 -15,15 0,-4.063549 1.529848,-5.051706 4.25,-8 C -7.9610937,7.13375 -7.1721875,6.2675 -6.359375,5.375 -4.3351828,3.3374026 -2.3498292,1.638413 0,0 Z" fill="#F4DCD6" transform="translate(673,368)" id="path15" style="fill:#000000" />
    <path d="m 0,0 c 1.1259155,0.00523682 2.251831,0.01047363 3.4118652,0.01586914 1.2149414,0.0032227 2.4298828,0.0064453 3.6816407,0.0097656 1.2793945,0.0083789 2.558789,0.01675781 3.8769531,0.02539062 1.283262,0.0045117 2.566523,0.0090234 3.888672,0.01367188 3.182988,0.01183267 6.365886,0.02831744 9.548828,0.04882812 0,0.33 0,0.66 0,1.00000004 -1.104565,0.014018 -1.104565,0.014018 -2.231445,0.02832 -3.340197,0.053721 -6.678996,0.1373659 -10.018555,0.2216797 -1.158867,0.01418 -2.3177344,0.028359 -3.5117188,0.042969 C 7.5312012,1.4387207 6.4161621,1.4709473 5.267334,1.5041504 4.240918,1.5250977 3.2145019,1.5460449 2.1569824,1.5676269 -1.2155843,2.237348 -2.4259402,3.5123918 -4.592041,6.1135254 -3.5224319,0.15427435 -3.5224319,0.15427435 0,0 Z" fill="#D96A46" transform="translate(489.59204,322.88647)" id="path16" style="fill:#000000" />
  </g>
</svg>
