<?xml version="1.0" encoding="utf-8"?>
<!-- Generator: Adobe Illustrator 23.0.6, SVG Export Plug-In . SVG Version: 6.00 Build 0)  -->
<svg version="1.1" id="Camada_1" xmlns="http://www.w3.org/2000/svg" xmlns:xlink="http://www.w3.org/1999/xlink" x="0px" y="0px"
	 viewBox="0 0 300 120" style="enable-background:new 0 0 300 120;" xml:space="preserve">
<title>pandora</title>
<path d="M175.4,31.7c0-2,1.5-3.6,3.5-3.8c1.4,0,2.9,0,4.3,0c0,16.8,0,33.5,0,50.3c0,0.5-0.1,0.9-0.1,1.4c-2.5,0-5.1,0-7.6,0
	c0-1.1,0-2.2,0-3.3c-3.2,2.5-7,4.1-11,4.5c-11.4,1.2-21.6-7.1-22.8-18.5c-0.1-0.8-0.1-1.6-0.1-2.4c0-4.4,1.4-8.8,4.1-12.3
	c3.6-4.8,9-7.8,14.9-8.3c5.4-0.5,10.7,1.2,14.9,4.5C175.4,39.7,175.4,35.7,175.4,31.7 M159.4,47.5c-5.1,1.4-8.8,5.8-9.5,11
	c-0.8,7.1,4.3,13.5,11.4,14.3c7.1,0.8,13.5-4.3,14.3-11.4c0.6-4.9-1.7-9.7-5.9-12.3C166.6,47.1,162.9,46.5,159.4,47.5L159.4,47.5z"
	/>
<path d="M7.7,43.7c4.1-3.3,9.3-4.9,14.5-4.6c11.5,0.8,20.2,10.7,19.4,22.2C41,71.7,32.9,79.9,22.6,80.8c-5.4,0.5-10.7-1.2-14.9-4.5
	v12c0,1.9-1.4,3.5-3.2,3.8c-1.5,0.1-3,0-4.4,0c0-17.2,0-34.4,0-51.7c2.5,0,5.1,0,7.7,0C7.7,41.5,7.7,42.6,7.7,43.7 M17.8,47.3
	c-7,1.5-11.5,8.4-9.9,15.5c0.8,3.8,3.3,7.1,6.8,8.8c3,1.5,6.5,1.8,9.6,0.7c6.8-2.2,10.5-9.5,8.4-16.3c-0.8-2.4-2.2-4.5-4.1-6.1
	C25.5,47.5,21.6,46.5,17.8,47.3L17.8,47.3z"/>
<path d="M52.4,45.4c3.6-3.8,8.6-6,13.8-6.3c5.1-0.3,10.2,1.3,14.2,4.5c0-1.1,0-2.2,0.1-3.3c2.6,0,5.1,0,7.7,0c0,13.1,0,26.1,0,39.2
	c-2.5,0-5-0.1-7.6,0c-0.2-1.1-0.3-2.2-0.2-3.3c-9,7.2-22.1,5.7-29.3-3.3c-2.7-3.4-4.3-7.6-4.5-11.9C46.2,55.2,48.3,49.5,52.4,45.4
	 M65,47.3c-7,1.5-11.4,8.4-9.9,15.4c0.7,3,2.4,5.7,4.8,7.6c3.2,2.5,7.5,3.3,11.4,2.1c6.9-2.1,10.8-9.3,8.7-16.2
	c-0.8-2.6-2.4-5-4.6-6.6C72.5,47.4,68.6,46.5,65,47.3z"/>
<path d="M112.7,39.3c11.4-1.3,21.8,6.9,23.1,18.3c0.1,1,0.2,1.9,0.1,2.9c0,6.4,0,12.8,0,19.2c-2.8,0-5.6,0-8.3,0
	c0-6.6,0-13.2,0-19.8c-0.1-4.8-2.9-9.1-7.3-11.2c-3.3-1.5-7.1-1.5-10.4,0c-3.5,1.6-6,4.7-6.9,8.4c-0.3,2-0.5,4-0.3,6
	c0,5.5,0,11,0,16.5c-2.8,0-5.6,0-8.3,0c-0.1-6.5,0-13,0-19.5c0-4.2,1.2-8.2,3.5-11.7C101.2,43.4,106.6,40,112.7,39.3z"/>
<path d="M205.9,39.4c11.4-2,22.2,5.7,24.1,17.1c1.6,9.6-3.6,19.1-12.6,22.8c-10.7,4.4-22.9-0.7-27.3-11.4s0.7-22.9,11.4-27.3
	C203,40.1,204.4,39.7,205.9,39.4 M206.5,47.9c-6.7,1.6-10.8,8.4-9.2,15.1c0.9,3.7,3.4,6.8,6.9,8.4c3,1.4,6.4,1.5,9.5,0.4
	c3.8-1.4,6.7-4.5,7.8-8.4c0.4-1.5,0.5-3.2,0.4-4.7c-0.8-6.8-6.9-11.7-13.8-11C207.5,47.6,207,47.7,206.5,47.9z"/>
<path d="M240.3,45.9c4.3-4.7,10.8-6.7,17-6.7c0,2.8,0,5.6,0,8.4c-3.6-0.2-7.2,1-10,3.4c-2.2,2.3-3.5,5.3-3.4,8.5
	c0,6.7,0,13.4,0,20.1c-2.8,0-5.6,0-8.3,0c-0.1-6.7,0-13.4,0-20.1C235.5,54.7,236.9,49.6,240.3,45.9z"/>
<path d="M262.6,47.3c3.4-4.4,8.3-7.3,13.8-8c5.7-0.7,11.4,0.9,15.8,4.4v-3.3h7.8c0,13.1,0,26.2,0,39.2h-7.7c0-1.1,0-2.2,0-3.3
	c-4.1,3.3-9.2,4.9-14.5,4.6c-10-0.6-18.2-8.4-19.3-18.4C257.8,57.1,259.3,51.6,262.6,47.3 M276.9,47.4c-7,1.5-11.4,8.4-9.9,15.4
	c0.6,2.7,2,5.1,4.1,7c3.1,2.8,7.5,3.8,11.5,2.8c3.2-0.8,6-2.8,7.8-5.6c3.9-6,2.2-14-3.9-17.9C283.7,47.3,280.2,46.6,276.9,47.4
	L276.9,47.4z"/>
</svg>
