<?xml version="1.0" encoding="UTF-8" standalone="no"?>
<svg version="1.2" viewBox="0 0 32 32" width="32" height="32" id="svg1" sodipodi:docname="PARA.svg" inkscape:version="1.4-beta2 (9aaf4f34, 2024-07-30)" xmlns:inkscape="http://www.inkscape.org/namespaces/inkscape" xmlns:sodipodi="http://sodipodi.sourceforge.net/DTD/sodipodi-0.dtd" xmlns="http://www.w3.org/2000/svg" xmlns:svg="http://www.w3.org/2000/svg" xmlns:rdf="http://www.w3.org/1999/02/22-rdf-syntax-ns#" xmlns:cc="http://creativecommons.org/ns#" xmlns:dc="http://purl.org/dc/elements/1.1/">
  <defs id="defs1" />
  <sodipodi:namedview id="namedview1" pagecolor="#ffffff" bordercolor="#000000" borderopacity="0.25" inkscape:showpageshadow="2" inkscape:pageopacity="0.0" inkscape:pagecheckerboard="0" inkscape:deskcolor="#d1d1d1" inkscape:zoom="6.8799419" inkscape:cx="18.314108" inkscape:cy="8.3576288" inkscape:window-width="1440" inkscape:window-height="790" inkscape:window-x="0" inkscape:window-y="0" inkscape:window-maximized="1" inkscape:current-layer="svg1" />
  <title id="title1">Paramount_Global-svg</title>
  <style id="style1">
		.s0 { fill: #000a3b } 
	</style>
  <g id="g904" style="fill:#000000" transform="matrix(0.02003253,0,0,0.02003253,-0.01001891,3.2362735)">
    <g id="g848" style="fill:#000000">
      <path id="path842" fill-rule="evenodd" class="s0" d="m 627.6,1046.5 -25.6,60.2 c 0,0 -45.4,-9.9 -122.3,114.4 -3,5 -24.7,-8.9 -12.8,-29.6 l 49.3,-82.8 c 2,-5 -1,-10.9 -6.9,-10.9 l 53.2,-88.7 c 6.9,-11.9 42.4,-73 63.1,-94.7 L 670,870 c 3,-2 6.9,1.9 4.9,4.9 l -50.2,105.5 c -21.7,41.5 -8.9,56.3 -1,59.2 2.9,1 4.9,5 3.9,6.9 z M 1597.9,799 c 0,177.5 -58.2,342.2 -155.8,474.4 -28.6,-12.8 -48.3,-30.6 -64.1,-52.3 -113.4,-141 -194.2,-231.8 -213,-251.5 -40.4,-43.4 -58.2,-46.4 -88.7,-61.2 -5.9,-2.9 -8.9,-5.9 -11.9,-11.8 L 909.6,625.4 C 898.8,602.7 882,583.9 861.3,569.1 l -38.4,-26.6 c -7.9,-5.9 -18.8,-5.9 -26.7,0 l -31.5,22.7 c -3,2 -5,3.9 -6.9,6.9 l -73,101.6 -35.5,27.6 -244.5,310.7 -22.7,9.9 q -7.4,2.9 -11.9,8.9 l -148.9,190.3 c -12.8,15.8 -31.5,37.5 -65,52.3 C 58.6,1141.2 0.5,976.5 0.5,799 0.5,358.1 357.4,0 799.2,0 1241,0 1598.9,358.1 1597.9,799 Z m -1414,1.9 31.5,-44.4 -52.2,16.8 -31.6,-44.4 v 54.3 l -52.3,16.7 52.3,16.8 V 871 l 31.6,-44.4 52.2,16.7 z m 76,221 -44.4,-31.6 16.7,-52.3 -44.3,31.6 -44.4,-31.6 16.8,52.3 -44.4,31.6 h 54.2 l 16.8,52.3 16.7,-52.3 z M 256,577 H 201.8 L 185,524.8 168.2,577 H 114 l 44.4,31.6 -16.8,52.3 44.4,-31.6 44.4,31.6 -16.8,-52.3 z m 45.4,-142 52.2,-16.8 -52.2,-16.8 v -54.2 l -31.6,44.4 -52.3,-16.8 31.6,44.4 -31.6,44.4 52.3,-16.8 31.6,44.4 z M 493.6,300.8 449.3,269.3 466,217 421.7,248.6 377.3,217 l 16.8,52.3 -44.4,31.5 h 54.2 l 16.8,52.3 16.7,-52.3 z m 167.7,-69 -31.6,-44.4 31.6,-44.4 -52.3,16.8 -31.5,-44.4 v 54.3 l -52.3,16.7 52.3,16.8 v 54.2 L 609,213.1 Z M 869.4,132.1 H 815.1 L 798.4,79.9 781.6,132.1 H 727.4 L 771.8,163.7 755,216 799.4,184.4 843.7,216 827,163.7 Z m 205.1,52.3 -52.3,-16.8 v -54.2 l -31.5,44.3 -52.3,-16.7 31.6,44.4 -31.6,44.3 52.3,-16.7 31.5,44.4 v -54.3 z m 340.2,613.5 -31.5,44.4 52.2,-16.7 31.6,44.3 v -54.2 l 52.2,-16.8 -52.2,-16.7 v -54.3 l -31.6,44.4 -52.2,-16.8 z m -218,-497.1 h 54.3 l -44.4,-31.6 16.8,-52.2 -44.4,31.5 -44.4,-31.5 16.8,52.2 -44.4,31.6 h 54.2 l 16.8,52.3 z m 132.1,147.9 52.3,16.8 -31.6,-44.4 31.6,-44.4 -52.3,16.8 -31.5,-44.4 v 54.3 l -52.3,16.7 52.3,16.8 v 54.2 z m 10.8,128.3 44.4,31.5 -16.8,52.3 44.4,-31.6 44.4,31.6 -16.8,-52.3 44.4,-31.5 h -54.2 l -16.8,-52.3 -16.8,52.3 z m 146,444.8 -44.4,-31.5 16.8,-52.3 -44.4,31.5 -44.4,-31.5 16.8,52.3 -44.4,31.5 h 54.2 l 16.8,52.3 16.8,-52.3 z m -565.1,213.1 6.9,39.4 h -140 c -2.9,-11.8 -4.9,-23.6 -4.9,-35.5 0,-66.1 61.1,-191.3 61.1,-191.3 l -19.7,-7.9 c -26.6,-10.9 -56.2,-16.8 -85.8,-16.8 H 661.2 L 744,830.5 c 6,-12.9 -3.9,-27.7 -17.7,-27.7 l 89.7,-208.1 18.8,12.8 c 13.8,9.9 25.6,23.7 33.5,39.5 l 1,1 189.3,332.4 c 2,2.9 5.9,1 5.9,-2 v -24.6 c 3,0.9 5.9,2.9 8.9,3.9 19.7,8.9 32.5,13.8 58.2,42.4 1,0 82.8,88.8 211,248.6 5.9,8.9 12.8,16.7 20.7,24.6 -75.9,0 -153.8,-1.9 -182.4,-3.9 l -32.6,-54.3 c -16.7,-32.5 -83.8,-109.4 -83.8,-109.4 -6.9,-7.9 -17.7,0 -12.8,11.8 l 35.5,94.7 c 11.8,28.6 5.9,43.4 2,49.3 -82.9,-7.9 -166.7,-27.6 -168.7,-26.6 z" style="fill:#000000" />
    </g>
  </g>
  <metadata id="metadata1">
    <rdf:RDF>
      <cc:Work rdf:about="">
        <dc:title>Paramount_Global-svg</dc:title>
      </cc:Work>
    </rdf:RDF>
  </metadata>
</svg>
