<?xml version="1.0" encoding="UTF-8"?><svg id="a" xmlns="http://www.w3.org/2000/svg" viewBox="0 0 347.84 80"><path d="m88.93,20.38c0-13.76-14.61-20.38-31.98-20.38C38.37,0,21.33,8.22,15.08,20.96c-1.72,3.39-2.62,7.15-2.62,10.95-.08,3.29.83,6.53,2.62,9.3,2.68,3.95,7.47,6.44,14.49,6.44,8.61,0,15.44-4.71,15.44-12.93,0,0,.13-2.29-2.55-2.29-2.17,0-2.75,1.53-2.68,2.29.32,6.44-3.51,11.59-10.34,11.59-7.66,0-10.85-6.5-10.85-13.44,0-14.2,10.73-23.63,21.89-27.71,5.24-1.97,10.73-2.93,16.34-2.87,12.64,0,22.98,4.84,22.98,17.84,0,10.83-9.13,20.07-20.04,20.89l.45-1.46c2.23-7.96,4.98-16.69,9.45-23.12.25-.39.7-1.02,1.21-1.66l-.64-.76c-.95.58-1.87,1.22-2.74,1.91-20.94,16.31-21.57,62.17-49.46,62.17-.96,0-1.91-.06-2.87-.19-5.81-.96-8.87-4.84-8.87-10.25,0-1.08.38-2.55.38-3.38.04-1.54-1.17-2.82-2.71-2.86-.01,0-.02,0-.04,0h-.32c-2.49,0-3.51,1.97-3.58,4.78-.19,8.09,5.81,12.8,15.06,13.69,1.02.06,2.04.12,3.13.12,21.77,0,35.1-16.43,40.79-36.37,2.88-.34,5.72-.93,8.49-1.78,10.1-2.81,21.45-9.56,21.45-21.47Zm207.32,4.77h-7.66l-1.73,4.01-3,6.76h-3.57l-1.08,2.29h3.7l-4.47,9.87c-3.19,6.94-8.17,13.76-11.04,13.76-.64,0-1.02-.25-1.02-.89s.19-1.21.89-3c.89-2.1,2.36-5.16,3.45-7.39,1.59-3.25,4.15-8.28,4.15-10.76s-1.6-4.46-4.73-4.46c-3.51,0-6.7,2.1-9.64,5.16l1.92-4.58h-7.22l-5.87,13.37c-2.36,4.71-7.15,12.55-10.15,12.55-.64,0-.89-.38-.89-1.02.07-.57.19-1.08.45-1.66.25-.57,3.77-8.79,3.77-8.79l6.38-14.59h-7.79l-6.19,14.21c-1.91,4.39-6.77,11.85-9.9,11.85-.55.05-1.03-.35-1.08-.89,0,0,0,0,0,0v-.25c0-.76.57-2.16,1.02-3.19l3.26-7.13,6.7-14.59h-7.72l-1.53,3.31c-1.15,2.23-3.06,4.84-6.13,4.84-1.47,0-2.17-.57-2.49-1.15-.45-4.91-3.58-7.52-8.17-7.52-6.38,0-10.92,3.76-13.92,8.35-1.97,3.16-3.51,6.57-4.59,10.13-2.75,4.52-5.61,8.03-7.91,8.03-.58,0-.96-.32-.96-1.08s.77-2.48,1.03-3.12l5.04-10.7c1.4-3.31,2.36-5.48,2.36-7.64,0-2.29-1.6-3.95-4.21-3.95-3.64,0-7.6,2.1-10.73,5.54.13-.57.13-1.08.13-1.66,0-2.55-1.27-3.88-3.9-3.88-3.32,0-6.76,1.98-9.89,5.54l2.04-4.97h-7.03l-5.93,13.38c-2.81,6.31-7.34,12.55-9.9,12.55-.57,0-.95-.32-.95-1.08,0-1.21,1.34-4.2,1.85-5.41l7.85-17.77c.57-1.34-3.19-2.17-7.98-2.17s-9.96,2.42-13.66,5.54c-2.61,2.16-4.53,3.25-5.49,3.25-.51,0-.7-.25-.7-.57,0-1.08,2.62-4.14,2.62-6.5,0-1.08-.57-1.78-2.04-1.78-2.81,0-6.12,2.68-8.55,5.48l2.04-4.9h-6.89l-5.93,13.38c-2.81,6.31-7.47,12.87-10.02,12.87-.58,0-.96-.32-.96-1.08,0-1.21,1.27-4.14,1.98-5.67l7.85-17.83c.57-1.34-3.19-2.17-7.98-2.17-7.09,0-13.98,4.78-17.62,9.68-4.02,5.29-6.76,10.89-6.83,15.48-.07,3.69,1.85,5.99,5.68,5.99,4.28,0,7.72-3.37,9.7-5.92-.11.5-.2,1.01-.25,1.53,0,2.55,1.02,4.4,4.15,4.4,2.74,0,6.38-2.3,9.32-5.93l-2.36,5.42h7.47l7.34-16.62c2.43-5.42,5.17-8.22,5.93-8.22.26,0,.39.13.39.32,0,.57-1.15,2.1-1.15,3.5s.76,2.49,2.81,2.49c1.59,0,3.38-.77,4.98-1.78-3.77,5.1-6.32,10.45-6.32,14.84-.07,3.69,1.85,5.99,5.68,5.99,4.02,0,7.79-3.82,9.83-6.37-.08.59-.12,1.19-.13,1.79,0,2.48,1.4,4.58,4.28,4.58,3.19,0,5.74-1.97,8.94-5.86l-2.36,5.35h7.66l7.02-15.86c3.06-6.88,7.21-10.57,9.25-10.57.51-.05.97.31,1.02.82,0,0,0,0,0,0v.19c-.09.77-.3,1.53-.64,2.23l-10.08,23.25h7.85l7.15-16.18c3.06-6.95,6.45-10.32,9-10.32.77,0,1.08.39,1.08,1.21-.07.89-.31,1.75-.7,2.55l-6.89,14.65c-.63,1.41-1.02,2.92-1.15,4.46,0,2.23,1.21,4.21,4.66,4.21,4.47,0,7.85-3.38,11.68-8.41v1.08c.32,4.01,2.55,7.51,8.49,7.51,7.02,0,12.71-4.84,16.15-12.55,1.28-2.74,2.17-5.61,2.49-8.6.77.39,1.66.57,2.49.51,1.15,0,2.3-.26,3.32-.83l-1.21,2.61c-1.4,2.93-2.93,6.18-4.15,8.92-.76,1.62-1.22,3.37-1.34,5.16,0,2.74,1.53,4.71,4.66,4.71s7.41-2.93,10.47-7.07h.07c-.2.86-.31,1.73-.32,2.61,0,2.3.7,4.46,3.89,4.46,3.7,0,6.57-2.68,9.38-6.05l-2.36,5.35h7.72l6.19-14.01c3.51-7.9,7.02-12.68,10.28-12.68.58,0,1.02.38,1.08.96v.19c0,1.34-1.92,4.97-3.64,8.6-1.6,3.31-2.81,5.86-3.64,7.84-.77,1.66-1.21,3.44-1.34,5.29,0,2.42,1.34,4.27,4.34,4.27,4.47,0,9-4.33,11.42-7.58-.55,1.56-.85,3.19-.89,4.84,0,4.46,2.68,6.69,6.44,6.69,2.49,0,4.92-.83,6.96-2.29,2.94-2.04,5.3-5.1,7.28-7.9l-1.34-1.27c-1.85,2.61-3.89,5.1-6,6.62-1.11.94-2.5,1.47-3.96,1.53-1.6,0-2.62-.83-2.62-2.87s.96-4.78,2.42-8.47c.07-.06,2.17-4.77,4.15-9.3,1.66-3.82,3.32-7.52,3.64-8.28h5.04l1.02-2.3h-4.98l4.73-10.77h0ZM78.52,61.91c-1.08,0-1.85-.38-1.85-1.78.07-3.76,3.19-10.45,7.08-15.8,2.74-3.69,6.32-6.44,10.15-6.44l-4.85,10.83c-3.64,8.16-7.59,13.19-10.53,13.19h0Zm47.75,0c-1.08,0-1.85-.38-1.91-1.78.06-3.76,3.19-10.45,7.09-15.8,2.74-3.69,6.32-6.44,10.15-6.44l-4.85,10.83c-3.7,8.35-7.47,13.19-10.47,13.19h0Zm84.76-21.08c-.19,4.14-3.83,14.14-8.1,20.13-1.72,2.42-3.19,3.12-4.47,3.12-1.79,0-2.3-1.47-2.04-3.63.39-3.76,3.51-12.55,7.85-18.6,1.98-2.74,3.32-3.89,4.85-3.89s1.98,1.28,1.91,2.87Zm119.13-4.9l7.03-16.2h-8.32l-7.03,16.2h-17.69l-2.95,6.79h17.69l-7.03,16.2h8.32l7.03-16.2h17.68l2.95-6.79h-17.68Z" style="stroke-width:0px;"/></svg>