<svg version="1.2" width="32" height="32" xmlns="http://www.w3.org/2000/svg">
  <path fill-rule="evenodd" d="m627.6 1046.5-25.6 60.2s-45.4-9.9-122.3 114.4c-3 5-24.7-8.9-12.8-29.6l49.3-82.8c2-5-1-10.9-6.9-10.9l53.2-88.7c6.9-11.9 42.4-73 63.1-94.7L670 870c3-2 6.9 1.9 4.9 4.9l-50.2 105.5c-21.7 41.5-8.9 56.3-1 59.2 2.9 1 4.9 5 3.9 6.9zM1597.9 799c0 177.5-58.2 342.2-155.8 474.4-28.6-12.8-48.3-30.6-64.1-52.3-113.4-141-194.2-231.8-213-251.5-40.4-43.4-58.2-46.4-88.7-61.2-5.9-2.9-8.9-5.9-11.9-11.8L909.6 625.4c-10.8-22.7-27.6-41.5-48.3-56.3l-38.4-26.6c-7.9-5.9-18.8-5.9-26.7 0l-31.5 22.7c-3 2-5 3.9-6.9 6.9l-73 101.6-35.5 27.6L404.8 1012l-22.7 9.9q-7.4 2.9-11.9 8.9l-148.9 190.3c-12.8 15.8-31.5 37.5-65 52.3C58.6 1141.2.5 976.5.5 799 .5 358.1 357.4 0 799.2 0c441.8 0 799.7 358.1 798.7 799Zm-1414 1.9 31.5-44.4-52.2 16.8-31.6-44.4v54.3l-52.3 16.7 52.3 16.8V871l31.6-44.4 52.2 16.7zm76 221-44.4-31.6 16.7-52.3-44.3 31.6-44.4-31.6 16.8 52.3-44.4 31.6h54.2l16.8 52.3 16.7-52.3zM256 577h-54.2L185 524.8 168.2 577H114l44.4 31.6-16.8 52.3 44.4-31.6 44.4 31.6-16.8-52.3zm45.4-142 52.2-16.8-52.2-16.8v-54.2l-31.6 44.4-52.3-16.8 31.6 44.4-31.6 44.4 52.3-16.8 31.6 44.4zm192.2-134.2-44.3-31.5L466 217l-44.3 31.6-44.4-31.6 16.8 52.3-44.4 31.5h54.2l16.8 52.3 16.7-52.3zm167.7-69-31.6-44.4 31.6-44.4-52.3 16.8-31.5-44.4v54.3l-52.3 16.7 52.3 16.8v54.2l31.5-44.3Zm208.1-99.7h-54.3l-16.7-52.2-16.8 52.2h-54.2l44.4 31.6L755 216l44.4-31.6 44.3 31.6-16.7-52.3Zm205.1 52.3-52.3-16.8v-54.2l-31.5 44.3-52.3-16.7 31.6 44.4-31.6 44.3 52.3-16.7 31.5 44.4v-54.3zm340.2 613.5-31.5 44.4 52.2-16.7 31.6 44.3v-54.2l52.2-16.8-52.2-16.7v-54.3l-31.6 44.4-52.2-16.8zm-218-497.1h54.3l-44.4-31.6 16.8-52.2-44.4 31.5-44.4-31.5 16.8 52.2-44.4 31.6h54.2l16.8 52.3zm132.1 147.9 52.3 16.8-31.6-44.4 31.6-44.4-52.3 16.8-31.5-44.4v54.3l-52.3 16.7 52.3 16.8v54.2zm10.8 128.3 44.4 31.5-16.8 52.3 44.4-31.6 44.4 31.6-16.8-52.3 44.4-31.5h-54.2l-16.8-52.3-16.8 52.3zm146 444.8-44.4-31.5L1458 938l-44.4 31.5-44.4-31.5 16.8 52.3-44.4 31.5h54.2l16.8 52.3 16.8-52.3zm-565.1 213.1 6.9 39.4h-140c-2.9-11.8-4.9-23.6-4.9-35.5 0-66.1 61.1-191.3 61.1-191.3l-19.7-7.9c-26.6-10.9-56.2-16.8-85.8-16.8h-76.9L744 830.5c6-12.9-3.9-27.7-17.7-27.7L816 594.7l18.8 12.8c13.8 9.9 25.6 23.7 33.5 39.5l1 1 189.3 332.4c2 2.9 5.9 1 5.9-2v-24.6c3 .9 5.9 2.9 8.9 3.9 19.7 8.9 32.5 13.8 58.2 42.4 1 0 82.8 88.8 211 248.6 5.9 8.9 12.8 16.7 20.7 24.6-75.9 0-153.8-1.9-182.4-3.9l-32.6-54.3c-16.7-32.5-83.8-109.4-83.8-109.4-6.9-7.9-17.7 0-12.8 11.8l35.5 94.7c11.8 28.6 5.9 43.4 2 49.3-82.9-7.9-166.7-27.6-168.7-26.6z" style="fill:#000" transform="matrix(.02003 0 0 .02003 -.01 3.236)"/>
</svg>