<?xml version="1.0" encoding="UTF-8" standalone="no"?>
<svg width="32" height="32" fill="none" version="1.1" id="svg2" sodipodi:docname="56ba33ba.svg" inkscape:version="1.4-beta2 (9aaf4f34, 2024-07-30)" xmlns:inkscape="http://www.inkscape.org/namespaces/inkscape" xmlns:sodipodi="http://sodipodi.sourceforge.net/DTD/sodipodi-0.dtd" xmlns="http://www.w3.org/2000/svg" xmlns:svg="http://www.w3.org/2000/svg" xmlns:rdf="http://www.w3.org/1999/02/22-rdf-syntax-ns#" xmlns:cc="http://creativecommons.org/ns#" xmlns:dc="http://purl.org/dc/elements/1.1/">
  <defs id="defs2" />
  <sodipodi:namedview id="namedview2" pagecolor="#ffffff" bordercolor="#000000" borderopacity="0.25" inkscape:showpageshadow="2" inkscape:pageopacity="0.0" inkscape:pagecheckerboard="0" inkscape:deskcolor="#d1d1d1" inkscape:zoom="2.5642219" inkscape:cx="28.468675" inkscape:cy="45.432885" inkscape:window-width="1440" inkscape:window-height="790" inkscape:window-x="0" inkscape:window-y="0" inkscape:window-maximized="1" inkscape:current-layer="svg2" />
  <title id="title1">Logo Passei Direto</title>
  <g id="g2" transform="matrix(1.0411574,0,0,1.0411574,-0.0823441,1.2908262)">
    <path fill="#EF5B1F" d="M 30.164,14.344 17.258,1.133 A 2.318,2.318 0 0 0 13.988,1.095 L 0.775,14 c -0.992,0.967 -0.91,2.596 0.16,3.474 a 23.162,23.162 0 0 0 6.179,3.609 8.409,8.409 0 0 1 -0.191,-1.846 8.48,8.48 0 0 1 8.584,-8.38 8.48,8.48 0 0 1 8.381,8.584 8.318,8.318 0 0 1 -0.235,1.839 23.118,23.118 0 0 0 6.262,-3.462 2.337,2.337 0 0 0 0.241,-3.468 l 0.007,-0.006 z" id="path1" style="fill:#000000" />
    <path fill="#EF5B1F" d="m 7.12,21.076 c 0.796,3.806 4.144,6.688 8.19,6.74 4.054,0.044 7.46,-2.756 8.35,-6.543 A 23.29,23.29 0 0 1 7.12,21.076 Z m 20.123,1.54 c 1.113,0.013 2.01,0.93 1.998,2.043 a 2.023,2.023 0 0 1 -2.043,1.998 2.023,2.023 0 0 1 -1.998,-2.042 2.023,2.023 0 0 1 2.043,-1.999 z" id="path2" style="fill:#000000" />
  </g>
  <metadata id="metadata2">
    <rdf:RDF>
      <cc:Work rdf:about="">
        <dc:title>Logo Passei Direto</dc:title>
      </cc:Work>
    </rdf:RDF>
  </metadata>
</svg>
