<?xml version="1.0" encoding="UTF-8"?><svg id="a" xmlns="http://www.w3.org/2000/svg" viewBox="0 0 461.5 80"><defs><style>.b,.c{stroke-width:0px;}.c{fill-rule:evenodd;}</style></defs><path class="c" d="m109.27,69.28h4.13l.02-14.73c.72.6,1.88,1.22,3.48,1.89,1.81.69,3.72,1.03,5.64.99,2.18.04,4.35-.43,6.35-1.37,1.81-.88,3.41-2.18,4.69-3.82,1.33-1.71,2.31-3.69,2.9-5.82.68-2.41,1.01-4.91.97-7.43.04-2.63-.36-5.25-1.18-7.73-.72-2.17-1.85-4.16-3.31-5.84-1.43-1.6-3.17-2.85-5.09-3.65-2.1-.87-4.34-1.3-6.59-1.27-2.44-.05-4.87.16-7.27.61-1.6.32-3.18.75-4.73,1.29v46.88Zm5.57-18.02c-.5-.31-.97-.66-1.43-1.03v-24.74c.93-.29,1.88-.51,2.84-.64,1.64-.23,3.29-.33,4.94-.31,3.57,0,6.45,1.25,8.61,3.74,2.17,2.49,3.25,6.07,3.25,10.73,0,1.87-.19,3.74-.57,5.57-.34,1.65-.97,3.21-1.86,4.6-.86,1.31-2.01,2.36-3.35,3.08-1.38.77-3.09,1.14-5.13,1.14-.94,0-1.89-.11-2.81-.32-.85-.19-1.68-.46-2.48-.79-.69-.29-1.37-.64-2.01-1.03Z"/><path class="c" d="m162,21.33c-1.52-.67-3.35-.99-5.52-.99-1.83,0-3.66.17-5.46.53-1.15.21-2.27.56-3.34,1.03l.57,3.91c.55-.22,1.42-.52,2.61-.9,1.19-.37,2.99-.55,5.42-.55,1.69,0,3.07.29,4.11.86.97.52,1.81,1.3,2.42,2.25.58.95.96,2.03,1.12,3.15.17,1.19.25,2.39.25,3.59v2.21c-.3-.14-.61-.25-.92-.32-.45-.12-.99-.23-1.6-.34-.07-.01-.13-.02-.2-.04-.55-.1-1.11-.2-1.71-.25-.67-.05-1.28-.09-1.88-.09-1.87-.01-3.73.2-5.56.62-1.57.35-3.06,1-4.4,1.93-1.21.86-2.19,2.03-2.87,3.4-.72,1.52-1.07,3.22-1.03,4.92-.05,1.76.27,3.5.93,5.11.58,1.35,1.46,2.52,2.55,3.43,1.14.91,2.45,1.57,3.83,1.93,1.57.43,3.19.63,4.81.62,1.36,0,2.71-.06,4-.18,1.29-.12,2.47-.26,3.53-.44.23-.04.46-.08.68-.12.79-.13,1.5-.26,2.13-.39.8-.17,1.42-.32,1.85-.45v-22.35c.01-1.76-.2-3.51-.63-5.2-.39-1.53-1.09-2.94-2.05-4.14-1-1.21-2.26-2.16-3.66-2.75Zm-.89,31.88c-1.21.11-2.63.16-4.24.16-1.19.02-2.38-.11-3.55-.37-.95-.23-1.86-.64-2.68-1.21-.75-.55-1.35-1.31-1.73-2.2-.43-1.06-.63-2.2-.6-3.36,0-1.5.3-2.71.9-3.62.59-.91,1.38-1.66,2.3-2.16.96-.54,2-.89,3.07-1.03,1.06-.15,2.12-.23,3.19-.24,1.41-.04,2.81.09,4.2.37.76.17,1.51.42,2.23.72v12.47c-1.02.21-2.05.37-3.09.46Z"/><path class="b" d="m185.69,53.45c2.38,0,4.35-.43,5.89-1.29,1.55-.86,2.33-2.25,2.33-4.27.02-.85-.12-1.69-.41-2.47-.31-.73-.79-1.36-1.38-1.84-.77-.64-1.62-1.17-2.51-1.58-1.05-.51-2.33-1.1-3.86-1.77-1.23-.55-2.4-1.12-3.51-1.7-1.05-.52-2.03-1.18-2.94-1.96-.84-.75-1.53-1.67-2.04-2.71-.54-1.2-.81-2.52-.77-3.84-.07-2.71,1.05-5.31,3.03-7,2.02-1.77,4.79-2.66,8.33-2.67,1.87-.04,3.74.16,5.57.61,1.06.27,2.1.64,3.1,1.1l-.96,3.96c-.51-.26-1.37-.64-2.58-1.09-1.21-.44-3-.69-5.33-.69-.89,0-1.78.11-2.65.32-.78.18-1.52.51-2.19.97-.62.41-1.15.97-1.53,1.64-.4.74-.6,1.58-.58,2.43-.02.86.15,1.72.52,2.49.37.72.88,1.34,1.5,1.82.75.59,1.57,1.08,2.43,1.47.95.45,2.05.97,3.28,1.5,1.23.54,2.5,1.09,3.66,1.66,1.11.53,2.16,1.22,3.1,2.05.89.8,1.63,1.79,2.17,2.9.55,1.11.83,2.52.83,4.21,0,3.2-1.11,5.62-3.34,7.27-2.23,1.65-5.28,2.47-9.16,2.47-2.89,0-5.09-.26-6.63-.79-1.05-.32-2.07-.73-3.06-1.21l1.1-4.07c.26.18.54.33.82.45.56.27,1.14.5,1.72.7.84.28,1.7.5,2.58.64,1.15.19,2.31.28,3.48.27Z"/><path class="b" d="m212.99,53.45c2.38,0,4.34-.43,5.89-1.29,1.56-.86,2.33-2.25,2.33-4.27.02-.85-.12-1.69-.41-2.47-.31-.72-.78-1.35-1.37-1.84-.77-.64-1.62-1.17-2.52-1.58-1.04-.51-2.33-1.1-3.86-1.77-1.23-.55-2.4-1.12-3.5-1.7-1.05-.52-2.04-1.18-2.94-1.96-.85-.74-1.54-1.67-2.04-2.71-.54-1.2-.8-2.52-.76-3.84-.07-2.71,1.05-5.3,3.02-7,2.02-1.77,4.8-2.66,8.33-2.67,1.88-.04,3.75.16,5.58.62,1.06.27,2.1.63,3.09,1.1l-.96,3.96c-.51-.26-1.37-.64-2.58-1.09-1.21-.44-3-.69-5.33-.69-.89,0-1.77.11-2.64.32-.78.18-1.53.51-2.21.97-.62.41-1.14.97-1.53,1.64-.4.73-.6,1.58-.58,2.43-.02.86.16,1.71.52,2.49.37.72.88,1.34,1.5,1.82.76.59,1.57,1.08,2.43,1.47.97.45,2.05.97,3.3,1.5,1.24.54,2.5,1.09,3.67,1.66,1.11.53,2.14,1.22,3.08,2.04.89.8,1.63,1.79,2.17,2.9.55,1.11.83,2.52.83,4.21,0,3.2-1.11,5.62-3.34,7.27-2.23,1.65-5.28,2.47-9.16,2.47-2.89,0-5.11-.26-6.64-.79-1.05-.32-2.07-.73-3.06-1.21l1.08-4.06c.26.18.54.33.83.45.56.27,1.13.5,1.71.7.85.28,1.71.5,2.59.64,1.15.19,2.32.29,3.48.27Z"/><path class="c" d="m232.8,30.73c-.83,2.31-1.25,5.02-1.25,8.12-.02,2.51.28,5.01.9,7.43.54,2.16,1.52,4.17,2.87,5.87,1.38,1.69,3.1,3,5.03,3.84,2.04.9,4.51,1.37,7.4,1.37,1.95.04,3.89-.22,5.77-.76,1.65-.51,2.76-.93,3.36-1.31l-.77-3.83c-.93.44-1.89.83-2.86,1.16-1.33.45-3.11.67-5.36.67-4.08,0-7.06-1.16-8.93-3.49-1.87-2.34-2.87-5.68-3-10.01h23.15c.03-.25.05-.51.08-.78,0-.08.01-.17.02-.25.03-.36.03-.72.03-1.09,0-5.89-1.19-10.25-3.6-13.09-2.41-2.84-5.63-4.25-9.66-4.25-1.83,0-3.64.38-5.33,1.13-1.75.77-3.32,1.95-4.59,3.46-1.42,1.69-2.52,3.66-3.25,5.8Zm19.74-3.32c1.52,2.05,2.33,4.94,2.42,8.63h-18.88c.08-1.51.37-3.01.86-4.43.47-1.37,1.16-2.64,2.05-3.74.86-1.06,1.9-1.93,3.06-2.58,1.24-.66,2.6-.99,3.99-.97,2.81,0,4.99,1.04,6.51,3.09Z"/><path class="c" d="m272.69,12.98c.61-.66.94-1.57.9-2.5.04-.94-.28-1.85-.9-2.51-1.22-1.23-3.12-1.23-4.34,0-1.19,1.42-1.19,3.58,0,5.01,1.22,1.22,3.12,1.22,4.34,0Zm-4.2,43.61h4.14V21.17h-4.14v35.42Z"/><path class="c" d="m309.25,56.23c.99-.21,1.97-.48,2.93-.8V3.42s-9.51,1.64-9.51,1.64v16.34c-1.02-.49-2.07-.88-3.16-1.16-1.16-.29-2.35-.43-3.54-.42-2.18-.04-4.34.4-6.35,1.29-1.81.84-3.41,2.12-4.67,3.74-1.34,1.77-2.34,3.81-2.95,6-.71,2.57-1.05,5.23-1.02,7.91-.03,2.65.36,5.28,1.18,7.78.73,2.21,1.89,4.23,3.4,5.92,1.56,1.65,3.43,2.92,5.49,3.72,2.37.9,4.88,1.34,7.4,1.29,1.15,0,2.37-.06,3.61-.17,1.25-.11,2.49-.24,3.7-.43,1.21-.19,2.37-.39,3.48-.64Zm-16.58-10.32c-1.33-1.93-1.99-4.46-1.99-7.61h0c0-6.58,2.26-9.87,6.77-9.87.98,0,1.95.14,2.9.41.82.21,1.61.56,2.33,1.03v18.58c-.48.1-1.07.18-1.8.24-.73.06-1.51.09-2.36.09-2.6,0-4.53-.94-5.86-2.87Z"/><path class="c" d="m329.81,14.55c1.13-1.09,1.68-2.54,1.68-4.42s-.55-3.36-1.68-4.43c-2.28-2.15-5.69-2.15-7.97,0-1.12,1.07-1.69,2.56-1.69,4.43s.56,3.33,1.69,4.42c2.29,2.14,5.69,2.14,7.97,0Zm-8.72,42.04h9.51V20.55h-9.51v36.05Z"/><path class="b" d="m359.76,29.59c-.85-.23-1.85-.46-2.99-.72-1.22-.25-2.46-.38-3.7-.37-.72.01-1.43.07-2.15.17-.63.08-1.26.2-1.87.38v27.55h-9.52V22.46c1.98-.72,4-1.33,6.04-1.83,2.55-.59,5.15-.87,7.76-.85.5,0,1.12.03,1.85.09.72.06,1.45.17,2.17.28.73.11,1.45.25,2.17.4.63.14,1.25.34,1.85.59l-1.6,8.44Z"/><path class="c" d="m365.6,30.44c-.91,2.41-1.37,5.2-1.37,8.4-.03,2.51.32,5,1.03,7.39.65,2.21,1.76,4.24,3.25,5.92,1.55,1.74,3.45,3.1,5.55,3.95,2.23.95,4.85,1.45,7.87,1.45,1.2,0,2.39-.07,3.58-.21,1.19-.14,2.31-.3,3.34-.52.96-.18,1.91-.42,2.84-.71.7-.21,1.38-.49,2.04-.83l-1.27-8.28c-1.33.58-2.71,1-4.12,1.26-1.69.34-3.41.51-5.13.5-2.72,0-4.9-.61-6.51-1.84-1.57-1.14-2.57-2.98-2.74-5h21.58c.01-.21.03-.43.04-.67.02-.38.05-.79.08-1.22.05-.71.07-1.36.07-1.95,0-6.07-1.39-10.68-4.14-13.81-2.76-3.13-6.52-4.69-11.29-4.69-2.05,0-4.07.42-5.97,1.23-1.93.82-3.67,2.06-5.13,3.64-1.56,1.72-2.78,3.75-3.6,5.98Zm20.54,1.97c.24.82.38,1.68.41,2.54h-12.55c.12-.87.32-1.73.6-2.57.26-.82.66-1.57,1.18-2.23.53-.65,1.18-1.17,1.91-1.54.86-.4,1.8-.6,2.74-.58.96-.04,1.91.17,2.78.61.71.38,1.34.92,1.85,1.58.49.65.86,1.39,1.09,2.19Z"/><path class="b" d="m402.76,11.58l9.51-1.65v10.63h11.41v8.5h-11.41v12.66c0,2.14.34,3.84,1.05,5.14.7,1.29,2.1,1.91,4.24,1.91,1.06,0,2.12-.1,3.16-.3,1.01-.18,2-.46,2.96-.85l1.34,7.94c-1.24.54-2.52.98-3.83,1.32-1.7.39-3.43.57-5.17.54-2.6,0-4.74-.38-6.44-1.14-1.58-.66-2.99-1.75-4.08-3.15-1.06-1.44-1.79-3.12-2.14-4.91-.42-2.09-.62-4.22-.6-6.36V11.58Z"/><path class="c" d="m460.35,46.27c.79-2.5,1.17-5.13,1.15-7.77.03-2.63-.38-5.25-1.2-7.73-.75-2.21-1.9-4.24-3.39-5.97-1.47-1.66-3.24-2.97-5.21-3.84-2.11-.93-4.38-1.4-6.66-1.37-2.26-.03-4.5.44-6.59,1.37-1.97.88-3.75,2.19-5.23,3.84-1.51,1.71-2.68,3.74-3.44,5.95-.86,2.48-1.28,5.1-1.25,7.75-.03,2.65.38,5.28,1.21,7.77.74,2.24,1.89,4.3,3.39,6.05,1.45,1.67,3.22,2.99,5.19,3.86,2.13.94,4.42,1.41,6.73,1.38,2.33.04,4.64-.43,6.79-1.38,1.97-.87,3.74-2.19,5.19-3.86,1.49-1.74,2.63-3.8,3.33-6.05Zm-10.3-15.21c1.17,1.81,1.76,4.29,1.76,7.43h0c0,3.16-.59,5.65-1.76,7.5-1.17,1.85-2.83,2.77-5.01,2.77s-3.84-.93-5.04-2.77c-1.2-1.84-1.8-4.35-1.8-7.5s.61-5.63,1.8-7.43c1.19-1.8,2.86-2.71,5.04-2.71s3.84.9,5.01,2.71Z"/><path class="c" d="m83.48,19.63c1.26.62,2.14,1.88,2.34,3.35.08.33.12.67.12,1v18.88c0,2.43-1.83,4.4-4.09,4.4s-4.09-1.97-4.09-4.4v-12.39l-33.1,16.39c-1.08.55-2.34.55-3.42,0L2.4,27.64c-1.46-.71-2.4-2.28-2.4-4s.94-3.29,2.4-4L41.23.4c1.09-.54,2.34-.54,3.42,0l38.82,19.23Zm-69.57,3.99l29.03,14.38,29.04-14.38-29.05-14.38-29.03,14.38Z"/><path class="b" d="m69.58,55.89c-2.01-1.12-4.48-.29-5.53,1.87-4.04,8.28-12.12,13.45-21.12,13.45s-17.09-5.16-21.12-13.45c-.68-1.39-1.99-2.29-3.46-2.36-1.46-.07-2.85.71-3.63,2.03-.79,1.33-.85,3-.18,4.4,5.45,11.22,16.32,18.17,28.38,18.17s22.93-6.97,28.38-18.17c.5-1.03.6-2.24.28-3.35-.32-1.11-1.05-2.04-2.01-2.58Z"/></svg>