<?xml version="1.0" encoding="UTF-8" standalone="no"?>
<svg id="Camada_1" data-name="Camada 1" viewBox="0 0 32 32" version="1.1" sodipodi:docname="pelando.svg" width="32" height="32" inkscape:version="1.4-beta2 (9aaf4f34, 2024-07-30)" xmlns:inkscape="http://www.inkscape.org/namespaces/inkscape" xmlns:sodipodi="http://sodipodi.sourceforge.net/DTD/sodipodi-0.dtd" xmlns="http://www.w3.org/2000/svg" xmlns:svg="http://www.w3.org/2000/svg">
  <defs id="defs8" />
  <sodipodi:namedview id="namedview8" pagecolor="#ffffff" bordercolor="#000000" borderopacity="0.25" inkscape:showpageshadow="2" inkscape:pageopacity="0.0" inkscape:pagecheckerboard="0" inkscape:deskcolor="#d1d1d1" inkscape:zoom="3.1041913" inkscape:cx="8.6979175" inkscape:cy="27.22126" inkscape:window-width="1440" inkscape:window-height="790" inkscape:window-x="0" inkscape:window-y="0" inkscape:window-maximized="1" inkscape:current-layer="Camada_1" />
  <g id="g8" transform="matrix(0.70467494,0,0,0.70467494,2.5721099,-12.17609)">
    <path d="M 30.45,30.39 C 26.52,27.93 23.12,25.8 23.12,19 a 1.7,1.7 0 0 0 -0.79,-1.43 1.83,1.83 0 0 0 -1.67,-0.16 20.26,20.26 0 0 0 -10.3,8.17 c -0.64,1.05 0.32,2.27 1.57,2.41 a 1.71,1.71 0 0 0 1.65,-0.86 15.84,15.84 0 0 1 6.13,-5.49 c 0.9,6.67 5.23,9.38 8.78,11.6 3.39,2.13 6.08,3.81 6,8.42 0,3.24 -1.88,7 -5.29,10.6 A 28,28 0 0 1 19.2,59.11 28.66,28.66 0 0 1 8.66,52.6 C 6.35,50.27 3.59,46.49 3.59,41.69 c 0,-4.54 2.68,-6.54 4.61,-7.32 a 19.51,19.51 0 0 0 0.88,5.76 6.49,6.49 0 0 0 6.51,4.71 5.55,5.55 0 0 0 5.62,-5.6 8.06,8.06 0 0 0 -3,-5.94 10.9,10.9 0 0 0 -4,-2.19 A 12,12 0 0 0 7.68,30.87 10.83,10.83 0 0 0 0,41.69 C 0,46.21 2.1,51 6.07,55 a 32.31,32.31 0 0 0 12.58,7.6 1.88,1.88 0 0 0 0.57,0.09 1.79,1.79 0 0 0 0.57,-0.09 30.9,30.9 0 0 0 12.1,-8 c 4,-4.23 6.23,-8.82 6.23,-12.91 0.05,-6.46 -4.05,-9.03 -7.67,-11.3 z m -12.83,8.86 a 2,2 0 0 1 -2,2.15 3.11,3.11 0 0 1 -3.14,-2.4 17,17 0 0 1 -0.7,-5 c 4,0.69 5.83,3.32 5.84,5.25 z" id="path8" />
  </g>
</svg>
