<svg id="Camada_1" data-name="Camada 1" xmlns="http://www.w3.org/2000/svg" viewBox="0 0 200 80"><path d="M68,27.42a13.38,13.38,0,0,0-5.89-1.15H52a.83.83,0,0,0-.85.81V53.7a.83.83,0,0,0,.85.81h4a.84.84,0,0,0,.85-.82V43.63h5.33a13.2,13.2,0,0,0,6-1.19,8.16,8.16,0,0,0,3.44-3.19,9.29,9.29,0,0,0,1.1-4.49,7.79,7.79,0,0,0-1.15-4.18A7.87,7.87,0,0,0,68,27.42ZM65.74,38.1a5.66,5.66,0,0,1-4,1.16h-5V30.64h5a5.52,5.52,0,0,1,4,1.2A3.52,3.52,0,0,1,67,34.75,4.59,4.59,0,0,1,65.74,38.1Z"/><path d="M89.06,35.18a11.22,11.22,0,0,0-5.48-1.31,11.56,11.56,0,0,0-5.78,1.39A9.9,9.9,0,0,0,74,39.05a11.32,11.32,0,0,0-1.36,5.57C72.61,52,79,55.05,83.53,55.05a12.87,12.87,0,0,0,8.72-2.93.69.69,0,0,0,0-1l-1.93-2.42a.85.85,0,0,0-1.14-.16,9,9,0,0,1-5,1.62c-4.54,0-5.92-2.77-6.08-4.15l0-.26H93.91a7.8,7.8,0,0,0,.21-2,9.75,9.75,0,0,0-5.06-8.59ZM78.22,42.41l.07-.29a4.66,4.66,0,0,1,1.83-2.82,5.81,5.81,0,0,1,3.46-1.07A5.17,5.17,0,0,1,87,39.38a4.16,4.16,0,0,1,1.46,2.78l0,.25Z"/><path d="M122.8,36a10.73,10.73,0,0,0-7.08-2.17,15.84,15.84,0,0,0-8.38,2.52,1,1,0,0,0-.34,1.34l1.06,2a1.28,1.28,0,0,0,1.69.47,13.86,13.86,0,0,1,5.93-1.56,4.67,4.67,0,0,1,3,1,2.85,2.85,0,0,1,1.2,2.61v.41h-5.24c-3,0-5.35.59-6.87,1.76a5.54,5.54,0,0,0-2.3,4.58c0,4.11,2.92,6.14,6.73,6.14,5.91,0,7.68-4.19,7.68-4.19v2.57A1.1,1.1,0,0,0,121,54.51h3.32a1.11,1.11,0,0,0,1.11-1.08V42.16A7.59,7.59,0,0,0,122.8,36Zm-3.14,10.19a6.72,6.72,0,0,1-1.56,3.2h0a4.43,4.43,0,0,1-3.51,1.42,4.13,4.13,0,0,1-2.4-.63,2,2,0,0,1-.89-1.76,2,2,0,0,1,.23-1,2.08,2.08,0,0,1,.66-.78,4.79,4.79,0,0,1,3-.75h4.5Z"/><path d="M198.55,39a9.9,9.9,0,0,0-3.88-3.74,11.15,11.15,0,0,0-5.45-1.35,11.54,11.54,0,0,0-5.55,1.35A10.42,10.42,0,0,0,179.79,39a10.32,10.32,0,0,0-1.45,5.49A10.8,10.8,0,0,0,179.75,50h0a10.45,10.45,0,0,0,3.88,3.7,12,12,0,0,0,11,0A10.1,10.1,0,0,0,198.55,50,10.5,10.5,0,0,0,200,44.46,10.29,10.29,0,0,0,198.55,39Zm-5.75,10a5.2,5.2,0,0,1-7.25,0,6.17,6.17,0,0,1-1.5-4.48,6,6,0,0,1,1.5-4.43,5.08,5.08,0,0,1,3.67-1.52A5,5,0,0,1,192.81,40a5.88,5.88,0,0,1,1.54,4.43A6,6,0,0,1,192.8,48.94Z"/><path d="M102.62,26a.83.83,0,0,0-.85-.81h-4A.84.84,0,0,0,97,26V53.69a.84.84,0,0,0,.85.82h4a.83.83,0,0,0,.85-.81Z"/><path d="M170.73,25.32a.84.84,0,0,0-.85.82V36.92l-.42-.46a7.64,7.64,0,0,0-2.34-1.71,9.55,9.55,0,0,0-4.17-.86,10.25,10.25,0,0,0-5.31,1.38,9.87,9.87,0,0,0-3.7,3.75,10.73,10.73,0,0,0-1.36,5.41c0,5.59,3.93,10.62,10,10.62A7.79,7.79,0,0,0,170,50.84v2.85a.84.84,0,0,0,.85.82h3.85a.84.84,0,0,0,.85-.82V26.14a.84.84,0,0,0-.85-.82Zm-2.56,23.61a7,7,0,0,1-4.07,1.44,5.72,5.72,0,0,1-4.21-1.67,5.84,5.84,0,0,1-1.66-4.27,5.72,5.72,0,0,1,1.66-4.23,5.82,5.82,0,0,1,4.21-1.64,5.57,5.57,0,0,1,4.2,1.68,5.51,5.51,0,0,1,1.62,3.33h0l0,.22c0,.16,0,.64,0,1.29a4.81,4.81,0,0,1-.46,2.11A5,5,0,0,1,168.17,48.93Z"/><path d="M141.68,33.33c-5.79,0-7.5,6.58-7.5,6.58V35a.83.83,0,0,0-.85-.81h-3.68a.83.83,0,0,0-.85.81V53.69a.84.84,0,0,0,.85.82h3.75a.84.84,0,0,0,.85-.82v-4c0-7.6,2.35-11.2,7-11.2,3.16,0,3.05,2.85,3.05,5.59V53.7a.83.83,0,0,0,.85.81h3.78a.84.84,0,0,0,.85-.82V42.48C149.75,37.41,147.26,33.33,141.68,33.33Z"/><path d="M30.45,30.39C26.52,27.93,23.12,25.8,23.12,19a1.7,1.7,0,0,0-.79-1.43,1.83,1.83,0,0,0-1.67-.16,20.26,20.26,0,0,0-10.3,8.17c-.64,1.05.32,2.27,1.57,2.41a1.71,1.71,0,0,0,1.65-.86,15.84,15.84,0,0,1,6.13-5.49c.9,6.67,5.23,9.38,8.78,11.6,3.39,2.13,6.08,3.81,6,8.42,0,3.24-1.88,7-5.29,10.6a28,28,0,0,1-10,6.85A28.66,28.66,0,0,1,8.66,52.6c-2.31-2.33-5.07-6.11-5.07-10.91,0-4.54,2.68-6.54,4.61-7.32a19.51,19.51,0,0,0,.88,5.76,6.49,6.49,0,0,0,6.51,4.71,5.55,5.55,0,0,0,5.62-5.6,8.06,8.06,0,0,0-3-5.94,10.9,10.9,0,0,0-4-2.19,12,12,0,0,0-6.53-.24A10.83,10.83,0,0,0,0,41.69C0,46.21,2.1,51,6.07,55A32.31,32.31,0,0,0,18.65,62.6a1.88,1.88,0,0,0,.57.09,1.79,1.79,0,0,0,.57-.09,30.9,30.9,0,0,0,12.1-8c4-4.23,6.23-8.82,6.23-12.91C38.17,35.23,34.07,32.66,30.45,30.39ZM17.62,39.25a2,2,0,0,1-2,2.15A3.11,3.11,0,0,1,12.48,39a17,17,0,0,1-.7-5C15.78,34.69,17.61,37.32,17.62,39.25Z"/></svg>