<svg width="32" xml:space="preserve" height="32" xmlns="http://www.w3.org/2000/svg">
  <path style="fill:#000;stroke-width:.15495" d="M15.111 0c-.382.003-.762.023-1.138.068C11.5.364 9.198 1.26 7.086 2.648 5.106 3.95 3.55 5.626 2.299 7.6 1.346 9.102.743 10.763.334 12.494c-.022.092-.195.147-.297.293 0 2.194 0 4.315.049 6.385.119.077.22.197.256.334.516 1.961 1.245 3.816 2.42 5.5 1.234 1.768 2.755 3.186 4.545 4.385a15.265 15.265 0 0 0 6.898 2.504c2.627.29 5.251-.003 7.705-1.08 1.022-.45 1.955-1.1 2.928-1.66l.058-.01c1.71-1.317 2.444-3.168 2.989-5.088l.049-.028c.638-.611 1.206-1.165 1.707-1.775 1.195-1.456 1.8-3.179 2.144-5.006.394-2.09.097-4.11-.59-6.094l-.445 1.625c.149-.55.293-1.11.44-1.685-.322-.823-.58-1.619-.967-2.344-.942-1.761-2.324-3.088-4.06-4.098-2.385-1.386-4.921-1.636-7.567-1.187-.304.051-.553.435-.918.742.494.133.767.185 1.023.28 1.804.659 3.227 1.852 4.236 3.431.77 1.204 1.267 2.583 1.885 3.885.311-.724.621-1.003 1.432-1.05-.809.05-1.12.343-1.428 1.112.513 2.1.842 4.15.518 6.254l-.067.016c-1.124.055-2.133.22-3.12.138-2.577-.21-4.79-1.342-6.466-3.263-1.868-2.142-3.264-4.58-2.935-7.596.254-2.333 1.39-4.194 3.465-5.318 1.013-.55 2.19-.798 3.443-1.235-.396-.237-.733-.6-1.096-.629-1.147-.092-2.31-.24-3.457-.232Zm12.244 9.576.014.03c.03.057.063.11.113.148.051-.048.07-.066.061-.12 1.227 1.59 1.674 3.465 2.299 5.311.17-.208.343-.423.455-.658-.112.237-.282.462-.443.719-.321.382-.603.73-.934 1.092a4.46 4.46 0 0 1-.899.912c.315-.248.6-.542.848-.899-.046-1.78-.376-3.502-1.152-5.209a2.173 2.173 0 0 0-.334-.105c.088.015.184.033.306.053-.035-.314-.129-.633-.23-1.01a2.054 2.054 0 0 0-.09-.235l-.014-.029zm-20.931.602c-.543 4.426.86 8.208 3.814 11.373 2.948 3.159 6.655 4.815 11.104 4.806.279-.045.535-.1.785-.15-.24.05-.477.108-.717.156-1.104 1.309-2.503 2.16-4.107 2.75a10.07 10.07 0 0 0 2.943.594 11.06 11.06 0 0 1-2.975-.545 16.164 16.164 0 0 1-5.54-2.629c-2.344-1.707-4.01-3.904-5.065-6.603-.75-1.92-1.158-3.9-1.023-5.944.084-1.282.423-2.547.78-3.808zm21.463 6.933zm-1.852 7.942zm-.65.306zm-.645.26zm-.636.213a7.384 7.384 0 0 1 0 0zm.326 3.39c-.596.101-1.192.198-1.785.311.582-.111 1.173-.21 1.785-.31zm-3.045.473-.219.012.219-.012zm-.989.018c.12.004.242.004.362.004-.12 0-.241 0-.362-.004z"/>
</svg>