<?xml version="1.0" encoding="UTF-8" standalone="no"?>
<svg version="1.1" id="Layer_1" x="0px" y="0px" width="32" viewBox="0 0 32 32" enable-background="new 0 0 630 240" xml:space="preserve" height="32" xmlns="http://www.w3.org/2000/svg" xmlns:svg="http://www.w3.org/2000/svg"><defs id="defs28" />
























<g id="g28" style="fill:#000000" transform="matrix(0.15495412,0,0,0.15495412,-0.11719064,-2.47059)"><path fill="#FF0100" opacity="1" stroke="none" d="m 202.0764,87.923225 c 4.43254,12.805665 6.35672,25.850825 3.81212,39.336415 -2.22548,11.79436 -6.12514,22.89963 -13.84232,32.29769 -3.23198,3.93594 -6.89973,7.51405 -11.01806,11.45872 -10.96236,6.10336 -21.22701,12.0849 -33.41602,13.37305 -2.92206,0.30881 -5.79164,1.11401 -9.12273,1.65764 -28.70901,0.0543 -52.633807,-10.63323 -71.657862,-31.01851 C 47.769455,134.60222 38.709061,110.18546 42.209934,81.621002 39.899487,89.762024 37.712395,97.927177 37.16898,106.2003 c -0.866257,13.18808 1.763,25.96448 6.603931,38.35796 6.805317,17.4226 17.566921,31.60403 32.688339,42.62333 10.782219,7.85727 22.514733,13.53121 35.76208,16.96589 11.58677,3.76838 23.02224,4.612 34.66862,2.38592 4.71601,-0.90141 9.46183,-1.64696 14.19406,-2.46344 -6.29429,3.61923 -12.32614,7.83606 -18.93518,10.73865 -15.83762,6.95564 -32.76893,8.84096 -49.723187,6.96612 C 76.499985,220.01343 61.512779,214.72899 47.906055,205.61526 36.357079,197.87981 26.548849,188.72725 18.584156,177.31433 11.000632,166.44759 6.292937,154.48148 2.96179,141.82184 2.729697,140.9398 2.077818,140.1682 1.310574,139.67262 1,126.31244 1,112.62488 0.999999,98.468658 c 0.657343,-0.94065 1.76486,-1.30619 1.905358,-1.900383 2.64149,-11.171394 6.534669,-21.883834 12.68184,-31.578842 8.0753,-12.735981 18.127338,-23.56736 30.899307,-31.963096 13.632415,-8.961352 28.493423,-14.736054 44.442009,-16.643074 9.718967,-1.162128 19.794007,0.26028 29.665797,1.057867 2.34231,0.189247 4.51088,2.528894 7.06443,4.062631 -8.08396,2.815083 -15.67788,4.412215 -22.21697,7.95583 -13.388692,7.255485 -20.725316,19.271454 -22.366804,34.328476 -2.12191,19.463985 6.89328,35.200931 18.948254,49.025293 10.81034,12.39705 25.10133,19.68884 41.72722,21.05366 6.37448,0.52327 12.87877,-0.53441 20.13771,-0.89215 9.66533,-1.9738 17.73892,-5.26195 23.50782,-13.14378 2.13873,-2.33362 3.95471,-4.58188 6.02505,-7.04851 1.30539,-2.08028 2.72546,-3.82875 3.33907,-5.82509 1.93472,-6.29478 3.56698,-12.682511 5.31631,-19.034265 z" id="path2" style="fill:#000000" /><path fill="#FF1C00" opacity="1" stroke="none" d="m 202.04306,87.536545 c -1.71599,6.738434 -3.34825,13.126165 -5.28297,19.420945 -0.61361,1.99634 -2.03368,3.74481 -3.40966,5.43278 -4.0303,-11.91874 -6.91623,-24.009952 -14.83603,-34.271084 -0.56108,-0.335624 -0.93306,-0.453247 -1.30503,-0.570861 0.23654,0.508392 0.47308,1.016784 0.75392,1.893737 0.65287,2.432236 1.26146,4.495911 1.49048,6.518052 -1.197,-0.187287 -2.00907,-0.408082 -2.83275,-0.467415 -10.3205,-0.743515 -12.98918,0.391441 -15.66706,6.61782 -3.99029,-8.397544 -7.1967,-17.296203 -12.1652,-25.068412 -6.51511,-10.191548 -15.70815,-17.895779 -27.34654,-22.151333 -1.65571,-0.6054 -3.4108,-0.938931 -6.59921,-1.795883 2.35994,-1.982315 3.95926,-4.463688 5.92302,-4.796818 17.07682,-2.896939 33.44509,-1.274887 48.83144,7.670494 11.21016,6.517406 20.12685,15.082142 26.20389,26.447639 2.50226,4.679795 4.1642,9.808907 6.2417,15.120339 z" id="path9" style="fill:#000000" /><path fill="#FF2800" opacity="1" stroke="none" d="m 161.4346,204.03293 c -5.08082,0.85351 -9.82664,1.59906 -14.54265,2.50047 -11.64638,2.22608 -23.08185,1.38246 -34.47374,-2.71013 10.3511,-3.80604 19.3819,-9.30107 26.50855,-17.74325 2.89372,-0.57691 5.7633,-1.38211 8.68536,-1.69092 12.18901,-1.28815 22.45366,-7.26969 33.11026,-13.2352 -3.52049,12.40567 -8.23691,24.37753 -19.28778,32.87903 z" id="path12" style="fill:#000000" /><path fill="#FF2000" opacity="1" stroke="none" d="m 160.97494,92.513374 c 2.6569,-6.629234 5.32558,-7.76419 15.64608,-7.020675 0.82368,0.05933 1.63575,0.280128 3.0047,0.80706 5.00778,11.011986 7.15066,22.122811 7.44749,33.616681 -5.44614,7.79648 -13.51973,11.08463 -22.7736,13.03449 2.1119,-13.59954 -0.0108,-26.85953 -3.32467,-40.437556 z" id="path16" style="fill:#000000" /><path fill="#000000" opacity="1" stroke="none" d="m 178.11583,78.890182 c -0.43338,-0.325073 -0.66992,-0.833465 -0.90646,-1.341857 0.37197,0.117614 0.74395,0.235237 1.30503,0.570861 0.0588,0.341217 -0.0715,0.464447 -0.39857,0.770996 z" id="path25" style="fill:#000000" /></g>



</svg>
