<svg width="32" xml:space="preserve" height="32" xmlns="http://www.w3.org/2000/svg">
  <g style="fill:#000">
    <path fill="#000" d="M202.076 87.923c4.433 12.806 6.357 25.851 3.813 39.337-2.226 11.794-6.126 22.9-13.843 32.297-3.232 3.936-6.9 7.514-11.018 11.46-10.962 6.102-21.227 12.084-33.416 13.372-2.922.309-5.792 1.114-9.123 1.658-28.709.054-52.633-10.633-71.657-31.019-19.063-20.426-28.123-44.843-24.622-73.407-2.31 8.141-4.498 16.306-5.041 24.58-.866 13.187 1.763 25.964 6.604 38.357 6.805 17.423 17.567 31.604 32.688 42.624 10.782 7.857 22.515 13.53 35.762 16.965 11.587 3.769 23.023 4.612 34.669 2.386 4.716-.901 9.462-1.647 14.194-2.463-6.294 3.62-12.326 7.836-18.935 10.739-15.838 6.955-32.77 8.84-49.723 6.966-15.928-1.762-30.915-7.046-44.522-16.16-11.549-7.735-21.357-16.888-29.322-28.3-7.583-10.867-12.291-22.834-15.622-35.493-.232-.882-.884-1.654-1.651-2.15C1 126.313 1 112.626 1 98.47c.657-.941 1.765-1.307 1.905-1.9 2.642-11.172 6.535-21.885 12.682-31.58 8.075-12.736 18.128-23.567 30.9-31.963C60.119 24.065 74.98 18.29 90.929 16.383c9.718-1.162 19.794.26 29.665 1.058 2.343.19 4.511 2.529 7.065 4.063-8.084 2.815-15.678 4.412-22.217 7.956-13.389 7.255-20.726 19.271-22.367 34.328-2.122 19.464 6.893 35.201 18.948 49.025 10.81 12.397 25.102 19.69 41.727 21.054 6.375.523 12.88-.534 20.138-.892 9.665-1.974 17.74-5.262 23.508-13.144 2.139-2.334 3.955-4.582 6.025-7.048 1.305-2.08 2.725-3.83 3.34-5.826 1.934-6.294 3.566-12.682 5.315-19.034z" style="fill:#000" transform="matrix(.15495 0 0 .15495 -.117 -2.47)"/>
    <path fill="#FF1C00" d="M202.043 87.537c-1.716 6.738-3.348 13.126-5.283 19.42-.614 1.997-2.034 3.745-3.41 5.433-4.03-11.918-6.916-24.01-14.836-34.27a5.378 5.378 0 0 0-1.305-.572c.237.509.473 1.017.754 1.894.653 2.432 1.262 4.496 1.49 6.518-1.196-.187-2.008-.408-2.832-.467-10.32-.744-12.99.391-15.667 6.618-3.99-8.398-7.197-17.297-12.165-25.069-6.515-10.191-15.708-17.896-27.347-22.151-1.655-.606-3.41-.94-6.599-1.796 2.36-1.982 3.96-4.464 5.923-4.797 17.077-2.897 33.445-1.275 48.831 7.67 11.21 6.518 20.127 15.083 26.204 26.448 2.503 4.68 4.165 9.81 6.242 15.12z" style="fill:#000" transform="matrix(.15495 0 0 .15495 -.117 -2.47)"/>
    <path fill="#000" d="M161.435 204.033c-5.081.853-9.827 1.599-14.543 2.5-11.646 2.226-23.082 1.383-34.474-2.71 10.351-3.806 19.382-9.3 26.509-17.743 2.893-.577 5.763-1.382 8.685-1.69 12.19-1.289 22.454-7.27 33.11-13.236-3.52 12.406-8.237 24.377-19.287 32.879z" style="fill:#000" transform="matrix(.15495 0 0 .15495 -.117 -2.47)"/>
    <path fill="#000" d="M160.975 92.513c2.657-6.629 5.326-7.764 15.646-7.02.824.059 1.636.28 3.005.807 5.008 11.012 7.15 22.123 7.447 33.616-5.446 7.797-13.52 11.085-22.773 13.035 2.112-13.6-.011-26.86-3.325-40.438z" style="fill:#000" transform="matrix(.15495 0 0 .15495 -.117 -2.47)"/>
    <path d="M178.116 78.89c-.434-.325-.67-.833-.907-1.342.372.118.744.236 1.305.571.06.341-.071.465-.398.771z" style="fill:#000" transform="matrix(.15495 0 0 .15495 -.117 -2.47)"/>
  </g>
</svg>