<?xml version="1.0" encoding="UTF-8" standalone="no"?>
<!DOCTYPE svg PUBLIC "-//W3C//DTD SVG 1.1//EN" "http://www.w3.org/Graphics/SVG/1.1/DTD/svg11.dtd">
<!-- Created with Vectornator (http://vectornator.io/) -->
<svg height="80.0pt" stroke-miterlimit="10" style="fill-rule:nonzero;clip-rule:evenodd;stroke-linecap:round;stroke-linejoin:round;" version="1.1" viewBox="0 0 200 80" width="200.0pt" xml:space="preserve" xmlns="http://www.w3.org/2000/svg" xmlns:xlink="http://www.w3.org/1999/xlink">
<defs/>
<path d="M0 0L200 0L200 80L0 80L0 0Z" fill="#000000" fill-opacity="0" fill-rule="nonzero" opacity="1" stroke="none"/>
<g id="Sem-Título">
<g opacity="1">
<path d="M0.086612 14.9492C0.00962356 15.1288-0.0160393 26.5488 0.00962356 40.3041L0.086612 65.3253L100.043 65.3253L200 65.3253L200 40.0474L200 14.7696L100.095 14.6926C20.3089 14.6412 0.1636 14.6926 0.086612 14.9492ZM120.317 37.2502L120.317 47.0277L114.491 46.8994C110.437 46.8224 108.332 46.6941 107.614 46.4375C107.049 46.2578 105.997 45.488 105.253 44.7694C103.559 43.1013 102.995 41.3562 103.2 38.6103C103.431 35.6591 104.714 33.6317 107.126 32.4512C108.666 31.707 110.77 31.5274 113.337 31.9123L114.671 32.1433L114.671 29.808L114.671 27.4727L117.494 27.4727L120.317 27.4727L120.317 37.2502ZM32.7041 31.9636C34.4748 32.4769 35.7323 33.6317 36.6818 35.5821C37.3747 36.9422 37.503 37.5581 37.5287 39.0979C37.58 44.8464 33.4739 48.0029 27.3662 46.8737L26.1344 46.6684L26.1344 50.0303L26.1344 53.3921L23.3115 53.3921L20.4886 53.3921L20.4886 42.6137L20.4886 31.8353L23.3115 31.8353L26.1344 31.8353L26.1344 32.4769C26.1344 33.2468 26.468 33.2981 27.3919 32.6309C28.829 31.6044 30.7024 31.3734 32.7041 31.9636ZM50.1035 32.015C51.3866 32.3743 51.9255 32.7079 53.1317 33.8884C54.6971 35.4795 55.39 37.0705 55.39 39.2006L55.39 40.3041L50.3857 40.3041L45.3815 40.3041L45.3815 40.9456C45.3815 41.3049 45.6638 41.8952 46.0231 42.2544C47.6398 43.8712 50.3344 44.1278 52.9777 42.896L54.5944 42.1518L55.0307 43.3066L55.4926 44.4871L54.5944 45.2057C52.3361 47.0791 47.8708 47.6693 44.8169 46.4888C41.7374 45.3083 39.71 41.8695 40.095 38.5333C40.5056 35.1715 42.4816 32.7849 45.6381 31.938C47.2549 31.5017 48.3071 31.5017 50.1035 32.015ZM71.3009 32.2716L72.3018 32.7335L71.4036 34.7866C70.916 35.9157 70.3258 37.2245 70.1461 37.6865L69.7868 38.5333L68.9913 37.9687C68.0674 37.2759 66.7586 37.1989 65.8604 37.7891C64.6286 38.5847 64.2693 39.8678 64.1667 43.5632L64.064 46.9764L61.2668 46.9764L58.4695 46.9764L58.4695 39.4059L58.4695 31.8353L61.0358 31.8353L63.6021 31.8353L63.6021 33.6574C63.6021 34.6582 63.7047 35.4281 63.8331 35.3768C63.9614 35.3255 64.449 34.7096 64.9366 34.0167C66.4763 31.6814 68.6577 31.0911 71.3009 32.2716ZM95.6036 32.2203C98.5805 33.0928 100.659 36.0697 100.659 39.4059C100.659 42.7934 98.6575 45.5906 95.501 46.6171C93.5249 47.2587 90.1888 47.233 88.1614 46.5915C82.0537 44.6667 81.1041 36.2493 86.6216 32.8362C88.572 31.63 92.6524 31.3477 95.6036 32.2203ZM145.03 32.092L145.98 32.3743L145.98 34.7096C145.98 36.9936 145.98 37.0192 145.415 36.8652C142.464 36.0184 140.616 36.2493 139.384 37.5838C138.178 38.8926 138.204 40.0474 139.513 41.3306C140.796 42.6394 142.284 42.896 144.466 42.1775L145.98 41.6642L145.98 44.0508L145.98 46.4118L144.645 46.7454C143.901 46.9507 142.284 47.0791 141.078 47.0791C137.614 47.0277 135.253 45.7702 133.713 43.127C133.097 42.1005 133.02 41.7155 133.02 39.5342C133.02 37.4042 133.097 36.9422 133.713 35.8131C135.304 32.8105 138.024 31.4504 142.002 31.707C143.131 31.784 144.491 31.9636 145.03 32.092ZM161.3 32.1946C162.917 32.7592 164.38 33.837 165.201 35.0945C167.177 38.0714 166.792 42.2801 164.329 44.7181C161.018 48.0029 154.141 47.9772 150.856 44.6924C149.419 43.2553 148.803 41.6385 148.803 39.4059C148.803 34.4016 152.549 31.3734 158.298 31.707C159.35 31.7583 160.71 31.9893 161.3 32.1946ZM178.982 32.2716L180.24 32.7592L180.317 34.6326C180.368 35.6591 180.291 36.4546 180.188 36.4033C178.418 35.5308 177.314 35.1715 176.416 35.1715C175.184 35.1715 174.722 35.5051 174.722 36.4033C174.722 36.8909 175.004 37.1219 176.211 37.6351C179.418 39.0466 179.983 39.4829 180.676 41.0483C181.985 43.9225 179.983 46.6428 176.236 47.1047C174.491 47.31 171.463 46.8994 169.923 46.2065L168.82 45.7189L168.82 43.7942C168.82 42.0235 169.051 41.4332 169.461 42.1005C169.846 42.7164 172.182 43.6402 173.388 43.6402C174.722 43.6402 175.235 43.3323 175.235 42.4854C175.235 41.7668 174.696 41.3049 172.669 40.3041C171.745 39.8421 170.616 39.1236 170.154 38.6873C167.793 36.429 168.974 32.9388 172.412 31.9636C174.158 31.4761 177.211 31.63 178.982 32.2716ZM79.7697 39.4059L79.7697 46.9764L76.9468 46.9764L74.1239 46.9764L74.1239 39.4059L74.1239 31.8353L76.9468 31.8353L79.7697 31.8353L79.7697 39.4059ZM129.761 39.3289L129.684 46.8481L126.81 46.9251L123.91 47.0021L123.91 39.4059L123.91 31.8353L126.861 31.8353L129.812 31.8353L129.761 39.3289ZM15.2533 40.997C17.1267 42.2031 17.0754 45.3596 15.1764 46.5915C14.1755 47.2587 12.2508 47.2587 11.3269 46.5658C10.3004 45.8216 9.60752 44.3331 9.81282 43.281C10.2748 40.7917 13.149 39.6112 15.2533 40.997ZM188.683 40.6633C190.017 41.2279 190.633 42.2031 190.633 43.7942C190.633 45.4623 189.812 46.5658 188.323 46.9764C185.988 47.5923 183.961 46.1039 183.961 43.7685C183.961 41.2536 186.347 39.6882 188.683 40.6633Z" fill="#000000" fill-rule="nonzero" opacity="1" stroke="none"/>
<path d="M110.616 36.7113C108.435 37.7121 108.255 40.5094 110.308 41.6899C111.207 42.2288 113.696 42.4084 114.363 41.9978C114.568 41.8695 114.671 40.92 114.671 39.2776C114.671 36.4803 114.774 36.6343 112.746 36.352C112.028 36.2493 111.412 36.352 110.616 36.7113Z" fill="#000000" fill-rule="nonzero" opacity="1" stroke="none"/>
<path d="M26.7246 36.506C26.16 36.7626 26.1344 36.9422 26.1344 39.4315L26.1344 42.0491L27.3662 42.3314C28.3157 42.5624 28.8033 42.5624 29.5989 42.3058C32.1138 41.4846 32.5501 37.7634 30.2404 36.583C29.3936 36.1467 27.5715 36.0954 26.7246 36.506Z" fill="#000000" fill-rule="nonzero" opacity="1" stroke="none"/>
<path d="M46.7673 34.8892C45.8434 35.2998 45.1249 36.429 45.1249 37.5068L45.1249 38.5077L47.8195 38.5077L50.5141 38.5077L50.5141 37.4812C50.5141 35.6078 48.4354 34.1707 46.7673 34.8892Z" fill="#000000" fill-rule="nonzero" opacity="1" stroke="none"/>
<path d="M90.9073 36.4803C89.5472 36.8652 88.88 37.8404 88.88 39.4059C88.88 40.997 89.5215 41.8952 90.9843 42.3571C92.1905 42.7677 93.217 42.4597 94.1409 41.4332C94.7568 40.7403 94.9107 40.3041 94.9107 39.4059C94.9107 37.7634 93.9612 36.7369 92.0878 36.3263C91.8825 36.275 91.3436 36.352 90.9073 36.4803Z" fill="#000000" fill-rule="nonzero" opacity="1" stroke="none"/>
<path d="M156.604 36.4803C153.935 37.2502 153.781 41.1509 156.373 42.2544C157.502 42.7164 157.887 42.7164 158.965 42.2031C160.069 41.6642 160.608 40.689 160.608 39.1749C160.608 38.251 160.454 37.8918 159.812 37.2502C159.376 36.8139 158.811 36.4546 158.555 36.4546C158.298 36.4546 157.939 36.4033 157.733 36.352C157.554 36.3007 157.04 36.352 156.604 36.4803Z" fill="#000000" fill-rule="nonzero" opacity="1" stroke="none"/>
</g>
</g>
</svg>
