<?xml version="1.0" encoding="UTF-8" standalone="no"?>
<!DOCTYPE svg PUBLIC "-//W3C//DTD SVG 1.1//EN" "http://www.w3.org/Graphics/SVG/1.1/DTD/svg11.dtd">
<!-- Created with Vectornator (http://vectornator.io/) -->
<svg height="100%" stroke-miterlimit="10" style="fill-rule:nonzero;clip-rule:evenodd;stroke-linecap:round;stroke-linejoin:round;" version="1.1" viewBox="0 0 250 80" width="100%" xml:space="preserve" xmlns="http://www.w3.org/2000/svg" xmlns:xlink="http://www.w3.org/1999/xlink">
<defs/>
<path d="M0 0L250 0L250 80L0 80L0 0Z" fill="#000000" fill-opacity="0" fill-rule="nonzero" opacity="1" stroke="none"/>
<g id="Sem-Título">
<g opacity="1">
<path d="M0.108265 8.68651C0.0120295 8.91101-0.0200491 23.186 0.0120295 40.3801L0.108265 71.6566L125.054 71.6566L250 71.6566L250 40.0593L250 8.46201L125.119 8.36576C25.3861 8.30151 0.2045 8.36576 0.108265 8.68651ZM150.396 36.5628L150.396 48.7846L143.114 48.6243C138.046 48.528 135.415 48.3676 134.518 48.0469C133.811 47.8223 132.496 46.86 131.566 45.9618C129.449 43.8766 128.744 41.6953 129 38.2629C129.289 34.5739 130.893 32.0396 133.908 30.564C135.833 29.6338 138.463 29.4093 141.671 29.8904L143.339 30.1791L143.339 27.26L143.339 24.3409L146.868 24.3409L150.396 24.3409L150.396 36.5628ZM40.8801 29.9545C43.0935 30.5961 44.6654 32.0396 45.8523 34.4776C46.7184 36.1778 46.8788 36.9476 46.9109 38.8724C46.975 46.058 41.8424 50.0036 34.2078 48.5921L32.668 48.3355L32.668 52.5379L32.668 56.7401L29.1394 56.7401L25.6108 56.7401L25.6108 43.2671L25.6108 29.7941L29.1394 29.7941L32.668 29.7941L32.668 30.5961C32.668 31.5585 33.085 31.6226 34.2399 30.7886C36.0363 29.5055 38.378 29.2168 40.8801 29.9545ZM62.6294 30.0188C64.2333 30.4679 64.9069 30.8849 66.4146 32.3605C68.3714 34.3494 69.2375 36.3381 69.2375 39.0008L69.2375 40.3801L62.9821 40.3801L56.7269 40.3801L56.7269 41.182C56.7269 41.6311 57.0798 42.369 57.5289 42.818C59.5498 44.839 62.918 45.1598 66.2221 43.62L68.243 42.6898L68.7884 44.1333L69.3658 45.6089L68.243 46.5071C65.4201 48.8489 59.8385 49.5866 56.0211 48.111C52.1718 46.6354 49.6375 42.3369 50.1188 38.1666C50.632 33.9644 53.102 30.9811 57.0476 29.9225C59.0686 29.3771 60.3839 29.3771 62.6294 30.0188ZM89.1261 30.3395L90.3773 30.9169L89.2545 33.4833C88.645 34.8946 87.9073 36.5306 87.6826 37.1081L87.2335 38.1666L86.2391 37.4609C85.0843 36.5949 83.4483 36.4986 82.3255 37.2364C80.7858 38.2309 80.3366 39.8348 80.2084 44.454L80.08 48.7205L76.5835 48.7205L73.0869 48.7205L73.0869 39.2574L73.0869 29.7941L76.2948 29.7941L79.5026 29.7941L79.5026 32.0718C79.5026 33.3228 79.6309 34.2851 79.7914 34.221C79.9518 34.1569 80.5613 33.387 81.1708 32.5209C83.0954 29.6018 85.8221 28.8639 89.1261 30.3395ZM119.505 30.2754C123.226 31.366 125.824 35.0871 125.824 39.2574C125.824 43.4918 123.322 46.9883 119.376 48.2714C116.906 49.0734 112.736 49.0413 110.202 48.2394C102.567 45.8334 101.38 35.3116 108.277 31.0453C110.715 29.5375 115.816 29.1846 119.505 30.2754ZM181.288 30.115L182.475 30.4679L182.475 33.387C182.475 36.242 182.475 36.274 181.769 36.0815C178.08 35.023 175.77 35.3116 174.23 36.9798C172.723 38.6158 172.755 40.0593 174.391 41.6633C175.995 43.2993 177.855 43.62 180.583 42.7219L182.475 42.0803L182.475 45.0635L182.475 48.0148L180.806 48.4318C179.876 48.6884 177.855 48.8489 176.348 48.8489C172.018 48.7846 169.066 47.2128 167.141 43.9088C166.371 42.6256 166.275 42.1444 166.275 39.4178C166.275 36.7553 166.371 36.1778 167.141 34.7664C169.13 31.0131 172.53 29.313 177.503 29.6338C178.914 29.73 180.614 29.9545 181.288 30.115ZM201.625 30.2433C203.646 30.949 205.475 32.2963 206.501 33.8681C208.971 37.5893 208.49 42.8501 205.411 45.8976C201.273 50.0036 192.676 49.9715 188.57 45.8655C186.774 44.0691 186.004 42.0481 186.004 39.2574C186.004 33.002 190.686 29.2168 197.873 29.6338C199.188 29.6979 200.888 29.9866 201.625 30.2433ZM223.728 30.3395L225.3 30.949L225.396 33.2908C225.46 34.5739 225.364 35.5683 225.235 35.5041C223.023 34.4135 221.643 33.9644 220.52 33.9644C218.98 33.9644 218.403 34.3814 218.403 35.5041C218.403 36.1136 218.755 36.4024 220.264 37.0439C224.273 38.8083 224.979 39.3536 225.845 41.3104C227.481 44.9031 224.979 48.3035 220.295 48.8809C218.114 49.1375 214.329 48.6243 212.404 47.7581L211.025 47.1486L211.025 44.7428C211.025 42.5294 211.314 41.7915 211.826 42.6256C212.308 43.3955 215.228 44.5503 216.735 44.5503C218.403 44.5503 219.044 44.1654 219.044 43.1068C219.044 42.2085 218.37 41.6311 215.836 40.3801C214.681 39.8026 213.27 38.9045 212.693 38.3591C209.741 35.5363 211.218 31.1735 215.515 29.9545C217.698 29.3451 221.514 29.5375 223.728 30.3395ZM99.7121 39.2574L99.7121 48.7205L96.1835 48.7205L92.6549 48.7205L92.6549 39.2574L92.6549 29.7941L96.1835 29.7941L99.7121 29.7941L99.7121 39.2574ZM162.201 39.1611L162.105 48.5601L158.513 48.6564L154.888 48.7526L154.888 39.2574L154.888 29.7941L158.576 29.7941L162.265 29.7941L162.201 39.1611ZM19.0666 41.2463C21.4084 42.7539 21.3443 46.6995 18.9705 48.2394C17.7194 49.0734 15.3135 49.0734 14.1586 48.2073C12.8755 47.277 12.0094 45.4164 12.266 44.1013C12.8435 40.9896 16.4363 39.514 19.0666 41.2463ZM235.854 40.8291C237.521 41.5349 238.291 42.7539 238.291 44.7428C238.291 46.8279 237.265 48.2073 235.404 48.7205C232.485 49.4904 229.951 47.6299 229.951 44.7106C229.951 41.567 232.934 39.6103 235.854 40.8291Z" fill="#000000" fill-rule="nonzero" opacity="1" stroke="none"/>
<path d="M138.27 35.8891C135.544 37.1401 135.319 40.6368 137.885 42.1124C139.009 42.786 142.12 43.0105 142.954 42.4973C143.21 42.3369 143.339 41.15 143.339 39.097C143.339 35.6004 143.468 35.7929 140.933 35.44C140.035 35.3116 139.265 35.44 138.27 35.8891Z" fill="#000000" fill-rule="nonzero" opacity="1" stroke="none"/>
<path d="M33.4058 35.6325C32.7 35.9533 32.668 36.1778 32.668 39.2894L32.668 42.5614L34.2078 42.9143C35.3946 43.203 36.0041 43.203 36.9986 42.8823C40.1423 41.8558 40.6876 37.2043 37.8005 35.7288C36.742 35.1834 34.4644 35.1193 33.4058 35.6325Z" fill="#000000" fill-rule="nonzero" opacity="1" stroke="none"/>
<path d="M58.4591 33.6115C57.3043 34.1248 56.4061 35.5363 56.4061 36.8835L56.4061 38.1346L59.7744 38.1346L63.1426 38.1346L63.1426 36.8515C63.1426 34.5098 60.5443 32.7134 58.4591 33.6115Z" fill="#000000" fill-rule="nonzero" opacity="1" stroke="none"/>
<path d="M113.634 35.6004C111.934 36.0815 111.1 37.3005 111.1 39.2574C111.1 41.2463 111.902 42.369 113.73 42.9464C115.238 43.4596 116.521 43.0746 117.676 41.7915C118.446 40.9254 118.638 40.3801 118.638 39.2574C118.638 37.2043 117.452 35.9211 115.11 35.4079C114.853 35.3438 114.18 35.44 113.634 35.6004Z" fill="#000000" fill-rule="nonzero" opacity="1" stroke="none"/>
<path d="M195.755 35.6004C192.419 36.5628 192.226 41.4386 195.466 42.818C196.878 43.3955 197.359 43.3955 198.706 42.7539C200.086 42.0803 200.76 40.8613 200.76 38.9686C200.76 37.8138 200.568 37.3648 199.765 36.5628C199.22 36.0174 198.514 35.5683 198.194 35.5683C197.873 35.5683 197.424 35.5041 197.166 35.44C196.943 35.3759 196.3 35.44 195.755 35.6004Z" fill="#000000" fill-rule="nonzero" opacity="1" stroke="none"/>
</g>
</g>
</svg>
