<svg version="1.1" width="32" height="32" xmlns="http://www.w3.org/2000/svg" xmlns:svg="http://www.w3.org/2000/svg">
  <g id="g2" transform="matrix(0.07463137,0,0,0.07463137,-28.783923,-7.5089115)">
    <path d="m 0,0 c 2.4654404,-0.00435356 4.9308795,-0.00953885 7.3963165,-0.01548767 5.9732185,-0.01195167 11.9463705,-0.0145497 17.9195945,-0.01219974 4.86174,0.0017916 9.723466,1.556e-5 14.585204,-0.0042244 1.042609,-8.9278e-4 1.042609,-8.9278e-4 2.106281,-0.0018036 1.412596,-0.0012119 2.825193,-0.002426 4.237789,-0.0036424 13.21389,-0.01084807 26.427754,-0.0087262 39.641645,-0.0026151 12.050287,0.0051653 24.10049,-0.006081 36.15076,-0.02509822 12.41486,-0.01944024 24.82967,-0.02762352 37.24454,-0.02387675 6.95328,0.0019029 13.90649,-4.8547e-4 20.85975,-0.01471454 6.54351,-0.0132566 13.08689,-0.0105704 19.6304,0.002411 2.38872,0.0023507 4.77744,-3.1419e-4 7.16614,-0.008623 32.23192,-0.10395085 59.14895,6.01913122 83.22076,28.75953242 22.33722,23.276636 25.62293,52.564324 25.58716,83.245122 0.004,2.47529 0.01,4.95058 0.0155,7.42587 0.012,5.99728 0.0146,11.9945 0.0122,17.99178 -0.002,4.88129 -2e-5,9.76256 0.004,14.64385 5.9e-4,0.69784 0.001,1.39569 0.002,2.11469 0.001,1.41823 0.002,2.83646 0.004,4.2547 0.0108,13.26682 0.009,26.53362 0.003,39.80045 -0.005,12.09878 0.006,24.19749 0.0251,36.29626 0.0194,12.46457 0.0276,24.92911 0.0239,37.3937 -0.002,6.98122 4.8e-4,13.96238 0.0147,20.94359 0.0133,6.56977 0.0106,13.13941 -0.002,19.70919 -0.002,2.39839 3.1e-4,4.79679 0.009,7.19516 0.10102,31.45157 -5.63633,58.86624 -28.01734,82.37626 -23.82715,22.64621 -52.50733,26.54559 -83.78199,26.50904 -2.46529,0.004 -4.93058,0.01 -7.39587,0.0155 -5.9767,0.012 -11.95333,0.0145 -17.93003,0.0122 -4.86463,-0.002 -9.72924,-1e-5 -14.59386,0.004 -0.69521,5.9e-4 -1.39041,10e-4 -2.10669,0.002 -1.41284,0.001 -2.82568,0.002 -4.23851,0.004 -13.22057,0.0109 -26.4411,0.009 -39.66166,0.003 -12.05682,-0.005 -24.113559,0.006 -36.17036,0.0251 -12.419342,0.0194 -24.838646,0.0276 -37.258004,0.0239 -6.956646,-0.002 -13.913222,4.9e-4 -20.869855,0.0147 -6.547599,0.0133 -13.095064,0.0106 -19.6426718,-0.002 -2.3903236,-0.002 -4.78065872,3.1e-4 -7.170969,0.009 -32.8649362,0.10592 -60.8080972,-6.19859 -84.8514082,-29.63063 -17.640502,-18.70442 -24.869912,-43.23691 -24.829022,-68.38481 -0.002,-1.03503 -0.005,-2.07007 -0.007,-3.13646 -0.006,-3.44955 -0.006,-6.89905 -0.005,-10.3486 -0.003,-2.48104 -0.006,-4.96209 -0.0102,-7.44313 -0.008,-6.02936 -0.0111,-12.05871 -0.0116,-18.08807 -4.8e-4,-4.90528 -0.003,-9.81055 -0.006,-14.71582 -0.009,-13.93164 -0.0134,-27.86327 -0.0127,-41.79492 4e-5,-0.74993 8e-5,-1.49986 1.2e-4,-2.27251 4e-5,-0.75086 8e-5,-1.50171 1.2e-4,-2.27532 4.1e-4,-12.15998 -0.009,-24.31994 -0.0233,-36.47992 -0.0144,-12.50959 -0.0213,-25.01916 -0.0204,-37.52877 3.3e-4,-7.01357 -0.002,-14.02711 -0.0132,-21.04067 -0.0101,-6.60004 -0.01,-13.20002 -0.002,-19.80007 10e-4,-2.41457 -0.001,-4.82916 -0.007,-7.24372 -0.0699,-29.754222 4.38516,-56.59872 25.25187,-79.201112 0.875918,-0.978398 0.875918,-0.978398 1.769531,-1.976562 C -63.288058,3.406499 -30.815887,-0.03607572 0,0 Z m 82.47168,135.27466 c 0,-3.96 0,-7.92 0,-12 -16.83,0 -33.66,0 -51,0 0,61.38 0,122.76 0,186 16.83,0 33.66,0 51,0 0,-19.47 0,-38.94 0,-59 4.95,1.32 9.9,2.64 15,4 19.82441,2.83206 38.81959,0.95446 56,-10 3.64418,-2.74846 6.85208,-5.70103 10,-9 0.55816,-0.53883 1.11633,-1.07766 1.69141,-1.63281 12.42829,-12.91504 15.9673,-31.99472 15.7771,-49.21924 -0.58612,-17.62633 -6.59263,-35.26682 -19.12867,-48.03858 -11.88206,-10.71171 -26.49826,-16.78973 -42.61718,-16.35547 -14.19637,1.28318 -25.705746,6.34782 -36.72266,15.2461 z m -156,50 c -5.37165,7.81088 -6.994303,16.3004 -5.4375,25.625 2.27996,8.53837 7.977445,14.87319 15.289062,19.5625 6.979139,3.76403 14.414253,3.85486 22.148438,2.8125 8.748096,-2.82616 14.773146,-7.25661 19.242187,-15.21094 3.543862,-7.55209 4.068172,-15.50346 2.0625,-23.59375 -2.95074,-8.15793 -7.229606,-13.30677 -14.742187,-17.63281 -13.961547,-6.47719 -28.591599,-2.90196 -38.5625,8.4375 z m 300,0 c -4.89071,7.22078 -6.76406,14.38237 -5.58984,23.01562 1.71843,8.19085 4.97093,13.46327 10.90234,19.23438 8.65359,5.63489 16.29538,7.13062 26.6875,5.75 9.63487,-2.94491 15.18387,-8.32864 20.08594,-16.89844 3.45729,-7.51723 3.07617,-16.82658 0.28906,-24.47656 -3.82657,-8.15455 -8.73599,-12.70735 -16.95313,-16.51953 -13.44768,-4.3444 -26.24563,-0.56119 -35.42187,9.89453 z" fill="#000000" transform="translate(498.52832,100.72534)" id="path1" />
    <path d="m 0,0 c 6.5211441,5.2601494 9.6525919,10.655001 10.683594,18.960937 0.514261,9.056016 -1.4020182,15.538499 -7.4921877,22.378907 -6.0158738,5.97843 -12.830095,8.077539 -21.2460933,8.238281 -15.062022,-0.97999 -15.062022,-0.97999 -19.136719,-5.054688 -0.09269,-1.350949 -0.117474,-2.70667 -0.113526,-4.060791 7.6e-5,-0.860816 1.51e-4,-1.721633 2.29e-4,-2.608535 0.0052,-0.935412 0.01032,-1.870823 0.01564,-2.83458 0.0014,-0.953015 0.0028,-1.90603 0.0043,-2.887924 0.0056,-3.056921 0.01817,-6.11377 0.03087,-9.17067 0.005,-2.067056 0.0096,-4.134113 0.01367,-6.201171 0.01105,-5.078804 0.02833,-10.1575542 0.04883,-15.2363285 1.580745,-0.81752303 3.164712,-1.62881997 4.75,-2.4375 0.881719,-0.4524609 1.763437,-0.9049219 2.671875,-1.3710938 C -20.464069,-6.5854076 -8.4895687,-5.7202441 0,0 Z" fill="#000000" transform="translate(618.19141,265.47656)" id="path2" />
  </g>
</svg>
