<svg id="Camada_1" data-name="Camada 1" xmlns="http://www.w3.org/2000/svg" viewBox="0 0 200 80"><path d="M1.37,23.56C0,24.31,0,24.21,0,39.25,0,49.59.08,53.49.32,54c.68,1.49.62,1.49,15.83,1.49S31.31,55.49,32,54c.24-.51.32-4.41.32-14.69,0-15.18,0-15.13-1.48-15.8C29.74,23,2.26,23.08,1.37,23.56Zm9.37,7.59a1.81,1.81,0,0,1-.11,2.67,1.8,1.8,0,0,1-2.66.1,2,2,0,1,1,2.77-2.77Zm7,0a1.63,1.63,0,0,1,.16,2.26,1.83,1.83,0,0,1-2.53.81,2,2,0,0,1,.81-3.77A1.65,1.65,0,0,1,17.74,31.15ZM24.6,31a2.05,2.05,0,0,1-.21,2.91,2,2,0,0,1-2.83-2.72A2.15,2.15,0,0,1,24.6,31ZM10.23,37.58A1.85,1.85,0,0,1,11,40.11a2,2,0,0,1-3.77-.8A1.65,1.65,0,0,1,8,37.75,1.63,1.63,0,0,1,10.23,37.58Zm7.29.38c1,1,1,1.75,0,2.77-.68.65-1,.78-1.56.62a2.66,2.66,0,0,1-1.19-.62,2.78,2.78,0,0,1-.62-1.18c-.16-.59,0-.89.62-1.56C15.77,37,16.53,37,17.52,38Zm6.87-.16a2,2,0,0,1-2.08,3.42,2.11,2.11,0,0,1,.89-4A2.4,2.4,0,0,1,24.39,37.8ZM10.63,44.85a1.81,1.81,0,0,1,.11,2.67,2.15,2.15,0,0,1-2.88.27,2,2,0,0,1,.11-3A1.8,1.8,0,0,1,10.63,44.85Zm6.87-.13a1.92,1.92,0,0,1-1.19,3.44c-2.18.19-3-2.28-1.26-3.63A2,2,0,0,1,17.5,44.72Zm6.89.08a1.9,1.9,0,0,1-1.27,3.42,2,2,0,0,1-1.45-3.37A1.81,1.81,0,0,1,24.39,44.8Z"/><path d="M162.69,27.76a2.53,2.53,0,0,0-1.45,2.29,2.37,2.37,0,0,0,3.85,1.75,2.26,2.26,0,0,0-.49-3.91C163.55,27.44,163.47,27.44,162.69,27.76Z"/><path d="M45.22,39V50.37H49L49,46.12l.09-4.23,3.76-.13c3.4-.11,3.93-.22,5.12-.84a6.82,6.82,0,0,0,3.42-7.59A6,6,0,0,0,58,28.7l-1.56-.81-5.6-.08-5.6-.1Zm10.37-7.51a4.28,4.28,0,0,1,1.34,1c.57.59.67,1,.67,2.31s-.08,1.7-.88,2.51a3.36,3.36,0,0,1-2.62,1.07,27.25,27.25,0,0,1-3.36.08l-1.61-.08L49,34.81,49,31.26h3A17.15,17.15,0,0,1,55.59,31.53Z"/><path d="M116.55,39.07v11.3h3.5V27.76h-3.5Z"/><path d="M172.81,31.93v2.56h-4v3h4l0,4.9c0,5.57.19,6.49,1.56,7.4.81.54,1.24.62,3.55.62h2.67v-3h-1.7a4.24,4.24,0,0,1-2-.32c-.21-.22-.32-1.73-.32-5V37.45h4.58v-3h-4.58V29.37h-3.77Z"/><path d="M69.26,34.33c-3.58,1.13-5.46,3.9-5.46,8.1,0,4.5,2.42,7.54,6.54,8.21a8.39,8.39,0,0,0,7.08-2.07c1.64-1.64,1.64-1.83,0-2.69L76,45.09l-.86,1A4.31,4.31,0,0,1,71,47.54a4.54,4.54,0,0,1-3.34-3.17l-.16-1h12l-.16-1.91C78.87,36,74.29,32.77,69.26,34.33Zm4.36,3.28A3.41,3.41,0,0,1,75.53,40l.16.7H67.51l.19-.75C68.24,37.72,71.33,36.51,73.62,37.61Z"/><path d="M103.2,34.19a6.62,6.62,0,0,0-2.9,1.89c-.65.72-1,.51-1-.68v-.91h-3.5V56.83H99.6l.05-4.39.08-4.36.78.86a6,6,0,0,0,4.74,1.75c4.17,0,6.84-2.77,7.19-7.51.29-3.79-1.24-7-4-8.45A9.88,9.88,0,0,0,103.2,34.19Zm3.13,3.58c1.8.95,2.26,1.75,2.36,4.23a5.25,5.25,0,0,1-.45,3.18,4.67,4.67,0,0,1-8.21-.06A8.88,8.88,0,0,1,99.87,40,4.54,4.54,0,0,1,106.33,37.77Z"/><path d="M129.93,34.25a7.29,7.29,0,0,0-5.46,5.65c-1.11,4.28.54,8.34,4.09,10.09a9.28,9.28,0,0,0,7.08.08c1.35-.56,3.53-2.63,3.53-3.31,0-.18-.65-.64-1.46-1L136.29,45l-.38.7a3.66,3.66,0,0,1-3.47,1.83A4.22,4.22,0,0,1,128,44.23l-.16-.86h12l-.13-2.12a6,6,0,0,0-1-3.58,9.76,9.76,0,0,0-1.72-2.1A8.46,8.46,0,0,0,129.93,34.25Zm3.93,3.31a3.4,3.4,0,0,1,2.08,2.29l.24.83h-8.32l.4-1a8.2,8.2,0,0,1,.76-1.37C129.88,37.26,132.27,36.88,133.86,37.56Z"/><path d="M83.18,42.43v7.94h3.76V45c0-4.36.09-5.41.44-5.92.61-.92,1.42-1.24,3.33-1.4l1.75-.14L92.54,36l.08-1.53H90.93c-1.75,0-2.64.38-3.39,1.4-.49.64-.86.38-.86-.62v-.78h-3.5Z"/><path d="M141.75,34.81c.13.19,1.4,2,2.88,3.93l2.64,3.61-1.46,1.91c-.78,1.08-2.12,2.88-3,4l-1.54,2.1h4.34l1.93-2.8a13.3,13.3,0,0,1,2.29-2.83,11.62,11.62,0,0,1,2.26,2.8l2,2.83h2.1a8.13,8.13,0,0,0,2.1-.13c0-.06-1.27-1.83-2.83-3.93s-2.83-3.91-2.83-4a2.63,2.63,0,0,1,.49-.84c.3-.35,1.56-2.07,2.85-3.82l2.32-3.15H154l-1.83,2.61a13,13,0,0,1-2.26,2.72c-.25,0-1.13-1-2.27-2.64l-1.88-2.69h-2.1C142.05,34.49,141.62,34.57,141.75,34.81Z"/><path d="M161.78,42.43v7.94h3.77V34.49h-3.77Z"/><path d="M184.93,40.11c0,4.9,0,5.79.51,6.82,1.61,3.74,6.89,5,9.66,2.2a3.83,3.83,0,0,1,1.16-.91c.38,0,.29,4.68-.08,5.06-.22.21-1.7.32-4.85.32h-4.52v3.23h5.25c5.87,0,6.81-.19,7.51-1.59.38-.7.43-2.26.43-10.79v-10h-3.45l-.1,4.9c-.11,5.41-.27,6-1.83,7.32a3,3,0,0,1-2.32.7c-3.39,0-3.87-1-3.87-7.94v-5h-3.5Z"/></svg>