<?xml version="1.0" encoding="UTF-8"?><svg id="a" xmlns="http://www.w3.org/2000/svg" viewBox="0 0 260 80"><defs><style>.b{stroke-width:0px;}</style></defs><path class="b" d="m40.16,11.59l-16.54,16.55h16.54V11.59v4.52-4.52Z"/><path class="b" d="m23.63,28.14L7.1,11.59v16.55h16.54Z"/><path class="b" d="m40.16,44.68l-16.54-16.55v23.73l16.54,16.55v-23.73Z"/><path class="b" d="m7.1,44.68l16.54-16.55v23.73l-16.54,16.55v-23.73Z"/><path class="b" d="m0,28.13v23.63h7.1v-7.09l16.54-16.55s-23.63,0-23.63,0Z"/><path class="b" d="m23.63,28.13l16.54,16.55v7.09h7.1v-23.63s-23.63,0-23.63,0Z"/><path class="b" d="m95.69,31.84c1.03-1.94,2.48-3.42,4.34-4.46,1.86-1.04,4.04-1.56,6.54-1.56s4.58.52,6.3,1.55,3.03,2.39,3.89,4.09c.86,1.7,1.29,3.56,1.29,5.59v2.81h-19.45c.16,2.43.98,4.37,2.46,5.8s3.47,2.15,5.98,2.15c2.03,0,3.59-.42,4.67-1.24,1.08-.83,1.87-1.98,2.37-3.43h4.46c-.6,2.28-1.81,4.25-3.63,5.91-1.83,1.66-4.45,2.5-7.85,2.5-2.56,0-4.82-.52-6.77-1.56s-3.46-2.54-4.52-4.46c-1.07-1.94-1.6-4.21-1.6-6.83s.52-4.89,1.55-6.83h0v-.04Zm17.67,4.49c0-2.12-.55-3.78-1.64-4.98-1.09-1.2-2.81-1.79-5.16-1.79-2.18,0-3.98.58-5.37,1.76s-2.24,2.85-2.56,5.03h14.73Z"/><path class="b" d="m123.9,26.52v3.87c0,.22.1.33.33.33.13,0,.22-.03.29-.09s.13-.18.18-.38c.81-2.55,2.83-3.84,6.05-3.84h2.07v4.2h-2.68c-2.09,0-3.65.49-4.69,1.5-1.03,1-1.55,2.64-1.55,4.91v13.79h-4.23v-24.31h4.24Z"/><path class="b" d="m157.57,45.69c-1.1,1.95-2.55,3.41-4.32,4.37s-3.67,1.44-5.69,1.44c-4,0-6.81-1.59-8.44-4.77-.13-.25-.29-.38-.47-.38s-.29.09-.29.29v13.04h-4.23V26.49h4.23v4.16c0,.18.09.29.29.29s.34-.13.47-.38c1.63-3.19,4.43-4.77,8.44-4.77,2.03,0,3.93.48,5.69,1.44s3.2,2.42,4.32,4.37c1.1,1.95,1.66,4.29,1.66,7.03s-.56,5.08-1.66,7.03v.03Zm-4.88-13.74c-1.55-1.6-3.59-2.41-6.12-2.41s-4.58.81-6.12,2.41-2.12,3.84-2.12,6.71.57,5.11,2.12,6.71c1.55,1.6,3.59,2.4,6.12,2.4s4.58-.81,6.12-2.4,2.33-3.84,2.33-6.71-.77-5.1-2.33-6.71Z"/><path class="b" d="m165.36,17.17v33.66h-4.23V17.17s4.23,0,4.23,0Z"/><path class="b" d="m168.84,31.84c1.03-1.94,2.48-3.42,4.34-4.46s4.04-1.56,6.54-1.56,4.58.52,6.31,1.55,3.03,2.39,3.89,4.09,1.29,3.56,1.29,5.59v2.81h-19.45c.16,2.43.98,4.37,2.46,5.8s3.47,2.15,5.98,2.15c2.03,0,3.59-.42,4.67-1.24,1.08-.83,1.87-1.98,2.37-3.43h4.46c-.6,2.28-1.81,4.25-3.63,5.91-1.83,1.66-4.45,2.5-7.85,2.5-2.56,0-4.82-.52-6.77-1.56s-3.46-2.54-4.52-4.46c-1.07-1.94-1.6-4.21-1.6-6.83s.52-4.89,1.55-6.83h0v-.04Zm17.67,4.49c0-2.12-.55-3.78-1.64-4.98s-2.81-1.79-5.16-1.79c-2.18,0-3.98.58-5.37,1.76s-2.24,2.85-2.55,5.03h14.72Z"/><path class="b" d="m189.32,49.88l9.66-11.92-7.92-10.52v-.94h4.64l6.62,9.06,7.12-9.06h4.73v.99l-9.09,11.17,8.38,11.22v.94h-4.55l-7.18-9.76-7.68,9.76h-4.73v-.94h-.01Z"/><path class="b" d="m220.29,18.6v5.26h-4.93v-5.26h4.93Zm-.26,32.21h-4.23v-24.31h4.23v24.31Z"/><path class="b" d="m221.36,26.52h4.59v-6.54h4.23v6.54h4.84l1.18,3.56h-6.02v11.64c0,1.59-.04,2.77-.12,3.52-.08.77-.12,1.22-.12,1.38,0,.22.07.39.18.52.13.13.3.18.52.18.16,0,.61-.04,1.38-.12s1.95-.12,3.54-.12h1.64v3.74h-3.28c-2.69,0-4.69-.65-6.01-1.96s-1.96-3.3-1.96-5.98v-12.79h-4.59v-3.56h0Z"/><path class="b" d="m236.28,26.52h4.3l6.98,20.4c.09.25.25.59.73.59s.62-.33.72-.59l6.98-20.4h4.02v.94l-8.74,26.22c-.75,2.25-1.81,3.81-3.16,4.69-1.37.88-2.94,1.33-5.56,1.33h-4.5v-3.74h3.42c1.09,0,1.99.04,2.67.12.69.08,1.13.12,1.31.12.53,0,.88-.23,1.08-.7l1.31-3.55c.16-.38.17-.65.05-.85-.07-.13-.14-.21-.23-.23-.09-.03-.23-.05-.42-.05h-2.86l-8.09-24.31h0v.03Z"/><path class="b" d="m91.47,45.73c-1.1,1.95-2.55,3.41-4.32,4.37s-3.67,1.44-5.69,1.44c-4,0-6.81-1.59-8.44-4.77-.13-.25-.29-.38-.47-.38s-.29.09-.29.29v13.04h-4.23V26.53h4.23v4.16c0,.18.09.29.29.29s.34-.13.47-.38c1.63-3.19,4.43-4.77,8.44-4.77,2.03,0,3.93.48,5.69,1.44s3.2,2.42,4.32,4.37c1.1,1.95,1.66,4.29,1.66,7.03s-.56,5.08-1.66,7.03v.03Zm-4.88-13.74c-1.55-1.6-3.59-2.41-6.12-2.41s-4.58.81-6.12,2.41-2.12,3.84-2.12,6.71.57,5.11,2.12,6.71c1.55,1.6,3.59,2.4,6.12,2.4s4.58-.81,6.12-2.4,2.33-3.84,2.33-6.71-.77-5.1-2.33-6.71Z"/></svg>