<?xml version="1.0" encoding="UTF-8"?><svg id="a" xmlns="http://www.w3.org/2000/svg" viewBox="0 0 191.31 80"><path d="m51.56,9.31H9.82C4.4,9.31,0,13.7,0,19.13v41.74c0,5.42,4.4,9.82,9.82,9.82h41.74c5.42,0,9.82-4.4,9.82-9.82V19.13c0-5.42-4.4-9.82-9.82-9.82Zm-15.43,37.37v8.49h-17.72v-31.13h15.84c6.29-.09,11.45,4.93,11.54,11.22.08,5.68-4.04,10.56-9.66,11.41h0Z" style="stroke-width:0px;"/><path d="m34.26,28.49h-11.34v22.23h8.71v-8.34h2.62c3.84,0,6.95-3.11,6.95-6.94s-3.11-6.95-6.94-6.95Z" style="stroke-width:0px;"/><path d="m116.75,35.37c-1.65-.98-3.52-1.47-5.44-1.41-1.86-.03-3.71.46-5.31,1.41-1.57.94-2.86,2.3-3.72,3.9-.92,1.73-1.4,3.67-1.37,5.63-.03,1.96.45,3.91,1.37,5.64.9,1.63,2.21,3,3.8,3.97,1.69,1,3.62,1.5,5.57,1.46,1.98.04,3.93-.46,5.63-1.49,1.49-.87,2.67-2.18,3.36-3.74l-3.58-1.76c-.52.9-1.26,1.65-2.12,2.21-.97.61-2.11.92-3.26.88-1.56.03-3.07-.53-4.23-1.59-1.2-1.11-1.89-2.64-1.95-4.27h15.66c.09-.33.13-.68.16-1.01.03-.36.04-.72.04-1.05.01-1.76-.39-3.49-1.18-5.05-.78-1.53-1.96-2.83-3.44-3.74h.01Zm-11.17,7.35c.17-1.46.88-2.79,1.99-3.74,1.05-.88,2.38-1.34,3.74-1.33,1.39-.04,2.73.46,3.74,1.4,1.02.95,1.62,2.27,1.63,3.67h-11.12.01Z" style="stroke-width:0px;"/><rect x="166.92" y="25.99" width="4.4" height="29.52" style="stroke-width:0px;"/><path d="m189.93,45.9c-1.1-1.14-2.48-1.95-4.03-2.32l-3.44-1.01c-.65-.2-1.26-.49-1.83-.85-.56-.35-.9-.98-.85-1.63-.03-.71.29-1.37.85-1.79.68-.48,1.49-.71,2.31-.66,1.07,0,2.12.3,3.02.9.88.59,1.56,1.43,1.96,2.41l3.39-1.59c-.59-1.65-1.7-3.03-3.19-3.96-1.54-.95-3.32-1.44-5.14-1.41-1.33-.01-2.64.25-3.85.79-1.08.48-2.01,1.24-2.69,2.21-.66.98-1,2.14-.98,3.32-.03,1.36.45,2.69,1.34,3.71,1.1,1.15,2.51,1.98,4.07,2.34l3.32.94c.68.19,1.31.46,1.91.84.59.36.94,1.01.9,1.69.03.77-.35,1.49-.98,1.91-.75.51-1.63.75-2.54.71-1.2,0-2.37-.36-3.33-1.05-1.02-.74-1.85-1.72-2.37-2.86l-3.39,1.59c.64,1.78,1.83,3.28,3.41,4.29,1.69,1.08,3.67,1.65,5.67,1.6,1.41.03,2.81-.25,4.11-.79,1.11-.48,2.06-1.24,2.74-2.22.65-.97,1-2.12.98-3.29.03-1.39-.48-2.73-1.4-3.77h.03Z" style="stroke-width:0px;"/><path d="m158.79,35.37c-1.65-.98-3.52-1.47-5.44-1.41-1.86-.03-3.71.46-5.31,1.41-1.57.94-2.86,2.3-3.72,3.9-.92,1.73-1.4,3.67-1.37,5.63-.03,1.96.43,3.91,1.37,5.64.9,1.63,2.19,3,3.8,3.97,1.69,1,3.62,1.5,5.57,1.46,1.98.04,3.93-.46,5.63-1.49,1.49-.87,2.67-2.18,3.36-3.74l-3.58-1.76c-.52.9-1.26,1.65-2.12,2.21-.97.61-2.11.92-3.26.88-1.57.04-3.09-.53-4.26-1.57-1.2-1.11-1.89-2.64-1.95-4.27h15.68c.09-.33.13-.68.16-1.01.03-.36.04-.72.04-1.05.03-1.76-.38-3.49-1.17-5.05-.78-1.53-1.96-2.83-3.44-3.74h.01Zm-11.19,7.35c.17-1.46.88-2.79,1.99-3.74,1.05-.88,2.38-1.34,3.74-1.33,1.39-.04,2.73.46,3.74,1.4,1.02.95,1.62,2.27,1.63,3.67h-11.12.01Z" style="stroke-width:0px;"/><path d="m94.29,27.55c-1.62-.75-3.38-1.13-5.17-1.1h-10.57v29.04h4.61v-10.91h5.96c1.79.03,3.55-.33,5.17-1.1,1.44-.68,2.66-1.76,3.49-3.12.87-1.46,1.28-3.13,1.24-4.84.06-1.7-.38-3.39-1.24-4.88-.84-1.36-2.05-2.44-3.49-3.12h0Zm-1.27,11.58c-1.02.94-2.4,1.43-3.78,1.37h-6.08v-9.95h6.08c1.39-.06,2.74.42,3.78,1.33.98.94,1.52,2.27,1.44,3.62.06,1.36-.46,2.69-1.44,3.62Z" style="stroke-width:0px;"/><polygon points="137.17 34.42 132.37 41.39 127.57 34.42 122.38 34.42 129.76 44.95 122.38 55.51 127.57 55.51 132.37 48.45 137.12 55.51 142.3 55.51 134.94 44.95 142.35 34.42 137.17 34.42" style="stroke-width:0px;"/></svg>