<?xml version="1.0" encoding="UTF-8" standalone="no"?>
<svg id="a" viewBox="0 0 32 32" version="1.1" sodipodi:docname="pexels.svg" width="32" height="32" inkscape:version="1.4-beta2 (9aaf4f34, 2024-07-30)" xmlns:inkscape="http://www.inkscape.org/namespaces/inkscape" xmlns:sodipodi="http://sodipodi.sourceforge.net/DTD/sodipodi-0.dtd" xmlns="http://www.w3.org/2000/svg" xmlns:svg="http://www.w3.org/2000/svg">
  <defs id="defs6" />
  <sodipodi:namedview id="namedview6" pagecolor="#ffffff" bordercolor="#000000" borderopacity="0.25" inkscape:showpageshadow="2" inkscape:pageopacity="0.0" inkscape:pagecheckerboard="0" inkscape:deskcolor="#d1d1d1" inkscape:zoom="0.8679988" inkscape:cx="69.124519" inkscape:cy="107.71904" inkscape:window-width="1440" inkscape:window-height="790" inkscape:window-x="0" inkscape:window-y="0" inkscape:window-maximized="1" inkscape:current-layer="a" />
  <g id="g6" transform="matrix(0.52134246,0,0,0.52134246,-9.7400001e-8,-4.8536984)">
    <path d="M 51.56,9.31 H 9.82 C 4.4,9.31 0,13.7 0,19.13 v 41.74 c 0,5.42 4.4,9.82 9.82,9.82 h 41.74 c 5.42,0 9.82,-4.4 9.82,-9.82 V 19.13 c 0,-5.42 -4.4,-9.82 -9.82,-9.82 z M 36.13,46.68 v 8.49 H 18.41 V 24.04 h 15.84 c 6.29,-0.09 11.45,4.93 11.54,11.22 0.08,5.68 -4.04,10.56 -9.66,11.41 v 0 z" style="stroke-width:0px" id="path1" />
    <path d="M 34.26,28.49 H 22.92 v 22.23 h 8.71 v -8.34 h 2.62 c 3.84,0 6.95,-3.11 6.95,-6.94 0,-3.83 -3.11,-6.95 -6.94,-6.95 z" style="stroke-width:0px" id="path2" />
  </g>
</svg>
