<?xml version="1.0" encoding="UTF-8"?><svg id="a" xmlns="http://www.w3.org/2000/svg" viewBox="0 0 160 80"><defs><style>.b{stroke-width:0px;}</style></defs><path class="b" d="m51.56,9.31H9.82C4.4,9.31,0,13.7,0,19.13v41.74c0,5.42,4.4,9.82,9.82,9.82h41.74c5.42,0,9.82-4.4,9.82-9.82V19.13c0-5.42-4.4-9.82-9.82-9.82Zm-15.43,37.37v8.49s-17.72,0-17.72,0v-31.13h15.84c6.29-.09,11.45,4.93,11.54,11.22.08,5.68-4.04,10.56-9.66,11.41Z"/><path class="b" d="m34.26,28.49h-11.34v22.23h8.71v-8.34h2.62c3.84,0,6.95-3.11,6.95-6.94,0-3.84-3.11-6.95-6.94-6.95Z"/><path class="b" d="m108.34,37.1c-1.14-.68-2.44-1.02-3.77-.98-1.29-.02-2.57.32-3.68.98-1.09.65-1.98,1.59-2.58,2.7-.64,1.2-.97,2.54-.95,3.9-.02,1.36.31,2.71.95,3.91.62,1.13,1.53,2.08,2.63,2.75,1.17.69,2.51,1.04,3.86,1.01,1.37.03,2.72-.32,3.9-1.03,1.03-.6,1.85-1.51,2.33-2.59l-2.48-1.22c-.36.62-.87,1.14-1.47,1.53-.67.42-1.46.64-2.26.61-1.08.02-2.13-.37-2.93-1.1-.83-.77-1.31-1.83-1.35-2.96h10.85c.06-.23.09-.47.11-.7.02-.25.03-.5.03-.73.01-1.22-.27-2.42-.82-3.5-.54-1.06-1.36-1.96-2.38-2.59Zm-7.74,5.09c.12-1.01.61-1.93,1.38-2.59.73-.61,1.65-.93,2.59-.92.96-.03,1.89.32,2.59.97.71.66,1.12,1.57,1.13,2.54h-7.7Z"/><rect class="b" x="143.09" y="30.6" width="3.05" height="20.45"/><path class="b" d="m159.03,44.39c-.76-.79-1.72-1.35-2.79-1.61l-2.38-.7c-.45-.14-.87-.34-1.27-.59-.39-.24-.62-.68-.59-1.13-.02-.49.2-.95.59-1.24.47-.33,1.03-.49,1.6-.46.74,0,1.47.21,2.09.62.61.41,1.08.99,1.36,1.67l2.35-1.1c-.41-1.14-1.18-2.1-2.21-2.74-1.07-.66-2.3-1-3.56-.98-.92-.01-1.83.17-2.67.55-.75.33-1.39.86-1.86,1.53-.46.68-.69,1.48-.68,2.3-.02.94.31,1.86.93,2.57.76.8,1.74,1.37,2.82,1.62l2.3.65c.47.13.91.32,1.32.58.41.25.65.7.62,1.17.02.53-.24,1.03-.68,1.32-.52.35-1.13.52-1.76.49-.83,0-1.64-.25-2.31-.73-.71-.51-1.28-1.19-1.64-1.98l-2.35,1.1c.44,1.23,1.27,2.27,2.36,2.97,1.17.75,2.54,1.14,3.93,1.11.98.02,1.95-.17,2.85-.55.77-.33,1.43-.86,1.9-1.54.45-.67.69-1.47.68-2.28.02-.96-.33-1.89-.97-2.61Z"/><path class="b" d="m137.46,37.1c-1.14-.68-2.44-1.02-3.77-.98-1.29-.02-2.57.32-3.68.98-1.09.65-1.98,1.59-2.58,2.7-.64,1.2-.97,2.54-.95,3.9-.02,1.36.3,2.71.95,3.91.62,1.13,1.52,2.08,2.63,2.75,1.17.69,2.51,1.04,3.86,1.01,1.37.03,2.72-.32,3.9-1.03,1.03-.6,1.85-1.51,2.33-2.59l-2.48-1.22c-.36.62-.87,1.14-1.47,1.53-.67.42-1.46.64-2.26.61-1.09.03-2.14-.37-2.95-1.09-.83-.77-1.31-1.83-1.35-2.96h10.86c.06-.23.09-.47.11-.7.02-.25.03-.5.03-.73.02-1.22-.26-2.42-.81-3.5-.54-1.06-1.36-1.96-2.38-2.59Zm-7.75,5.09c.12-1.01.61-1.93,1.38-2.59.73-.61,1.65-.93,2.59-.92.96-.03,1.89.32,2.59.97.71.66,1.12,1.57,1.13,2.54h-7.7Z"/><path class="b" d="m92.78,31.68c-1.12-.52-2.34-.78-3.58-.76h-7.32v20.12h3.19v-7.56h4.13c1.24.02,2.46-.23,3.58-.76,1-.47,1.84-1.22,2.42-2.16.6-1.01.89-2.17.86-3.35.04-1.18-.26-2.35-.86-3.38-.58-.94-1.42-1.69-2.42-2.16Zm-.88,8.02c-.71.65-1.66.99-2.62.95h-4.21v-6.89h4.21c.96-.04,1.9.29,2.62.92.68.65,1.05,1.57,1,2.51.04.94-.32,1.86-1,2.51Z"/><polygon class="b" points="122.48 36.44 119.16 41.27 115.83 36.44 112.24 36.44 117.35 43.73 112.24 51.05 115.83 51.05 119.16 46.16 122.45 51.05 126.04 51.05 120.94 43.73 126.07 36.44 122.48 36.44"/></svg>