<?xml version="1.0" encoding="UTF-8" standalone="no"?>
<svg id="a" viewBox="0 0 32.000001 32" version="1.1" sodipodi:docname="phind.svg" width="32" height="32" inkscape:version="1.4-beta2 (9aaf4f34, 2024-07-30)" xmlns:inkscape="http://www.inkscape.org/namespaces/inkscape" xmlns:sodipodi="http://sodipodi.sourceforge.net/DTD/sodipodi-0.dtd" xmlns="http://www.w3.org/2000/svg" xmlns:svg="http://www.w3.org/2000/svg">
  <defs id="defs5" />
  <sodipodi:namedview id="namedview5" pagecolor="#ffffff" bordercolor="#000000" borderopacity="0.25" inkscape:showpageshadow="2" inkscape:pageopacity="0.0" inkscape:pagecheckerboard="0" inkscape:deskcolor="#d1d1d1" inkscape:zoom="1.2264987" inkscape:cx="23.644541" inkscape:cy="82.755895" inkscape:window-width="1440" inkscape:window-height="790" inkscape:window-x="0" inkscape:window-y="0" inkscape:window-maximized="1" inkscape:current-layer="a" />
  <path d="M 5.0135587,6.0494005 V 32 H 9.8514345 V 21.476524 c 0,0 0.014616,0 0.014616,0.01462 v -0.518865 0 -0.168084 c 1.6589085,1.600445 3.7416815,2.711257 6.0436915,3.091271 0.555406,0.0877 1.118119,0.131544 1.695449,0.131544 v 0 C 23.349255,23.858924 28.318674,19.583762 29.151783,13.715462 29.604877,10.543804 28.786384,7.3721456 26.864388,4.8070483 24.942392,2.241951 22.121516,0.57573369 18.957165,0.12263959 15.778199,-0.33045451 12.613847,0.48073039 10.04875,2.4100342 9.7345072,2.6365813 9.4421885,2.8923598 9.1498697,3.1481391 L 5.7589716,0.42957219 2.7261644,4.2004838 5.0135587,6.0567085 v 0 z M 17.327488,4.4051074 c 3.325126,0 6.146002,2.1485428 7.154502,5.137502 0.255779,0.7600286 0.394631,1.5712136 0.394631,2.4262466 0,3.478593 -2.360475,6.416397 -5.575981,7.278737 -0.628486,0.175391 -1.300819,0.255779 -1.98046,0.255779 -1.300819,0 -2.506633,-0.321551 -3.573597,-0.898881 -0.964652,-0.511557 -1.805069,-1.22043 -2.477402,-2.119311 -0.767337,-1.015807 -1.249663,-2.19239 -1.4177465,-3.427437 v 0 c -0.058464,-0.365399 -0.087696,-0.723489 -0.087696,-1.103504 0,-4.1728502 3.3835911,-7.5564396 7.5418251,-7.5564396 h 0.01462 z" style="stroke-width:0px" id="path5" />
</svg>
