<?xml version="1.0" encoding="UTF-8"?><svg id="a" xmlns="http://www.w3.org/2000/svg" viewBox="0 0 156.06 80"><path d="m115.98,39.13c-.14-7.51-6.27-13.57-13.84-13.57-.51,0-1.01.02-1.52.09-2.3.31-4.38,1.32-6.04,2.8l.02-2.89h0v-.1h-6.46v32.29h6.46v-18.39c.05-4.12,3.41-7.44,7.53-7.44,1.59,0,3.08.49,4.31,1.34,1.99,1.38,3.16,3.66,3.21,6.08.02.44.02,1.01.02,1.75v16.75h6.29l.02-18.7h0Z" style="stroke-width:0px;"/><path d="m77.98,14.5c-2.13,0-3.85,1.72-3.85,3.85s1.72,3.85,3.85,3.85,3.85-1.72,3.85-3.85-1.72-3.85-3.85-3.85Z" style="stroke-width:0px;"/><path d="m67.92,39.13c-.14-7.51-6.27-13.57-13.84-13.57h-.13c-2.85.05-5.44,1.33-7.43,3.36v-.48s-.02,0-.02.02l.02-2.95h0v-11h-6.46v43.25h6.46v-18.39c.05-4.12,3.41-7.44,7.53-7.44,1.59,0,3.08.49,4.31,1.34,1.99,1.38,3.16,3.66,3.21,6.08.02.44.02,1.01.02,1.75v16.67h6.29l.02-18.62h0Z" style="stroke-width:0px;"/><path d="m152.96,50.2V14.68h-6.64v14.42s-.02,0-.02-.02v.71h0v.23c-2.27-2.19-5.11-3.71-8.27-4.23-.76-.12-1.53-.18-2.32-.18h0c-7.86.23-14.66,6.08-15.8,14.11-.62,4.34.5,8.68,3.13,12.19,2.63,3.51,6.49,5.79,10.82,6.41,4.34.62,8.68-.5,12.19-3.13.43-.31.83-.66,1.23-1.01l4.63,3.74,4.16-5.17-3.1-2.56v.02Zm-16.85,2.25c-4.55,0-8.42-2.94-9.79-7.03-.35-1.04-.54-2.15-.54-3.32,0-4.76,3.23-8.78,7.63-9.96.86-.24,1.78-.35,2.71-.35,1.78,0,3.43.44,4.89,1.23,1.32.7,2.47,1.67,3.39,2.9,1.05,1.39,1.71,3,1.94,4.69h0c.08.5.12.99.12,1.51,0,5.71-4.63,10.34-10.32,10.34h-.02Z" style="stroke-width:0px;"/><path d="m3.13,33.99v35.51h6.62v-14.4s.02,0,.02.02v-.71h0v-.23c2.27,2.19,5.12,3.71,8.27,4.23.76.12,1.53.18,2.32.18h0c7.86-.23,14.66-6.08,15.8-14.11.62-4.34-.5-8.68-3.13-12.19-2.63-3.51-6.49-5.79-10.82-6.41-4.35-.62-8.68.49-12.19,3.13-.43.31-.83.66-1.23,1.01l-4.64-3.72L0,31.46l3.13,2.54h0Zm16.85-2.25c4.55,0,8.41,2.94,9.79,7.03.35,1.04.54,2.15.54,3.32,0,4.76-3.23,8.78-7.63,9.96-.86.24-1.78.35-2.71.35-1.78,0-3.43-.44-4.89-1.23-1.32-.7-2.47-1.67-3.39-2.9-1.05-1.39-1.71-3-1.94-4.69h0c-.08-.5-.12-.99-.12-1.51,0-5.71,4.63-10.34,10.32-10.34h.02Z" style="stroke-width:0px;"/><polygon points="74.71 25.41 74.71 37.56 74.71 38.58 74.71 55.31 74.71 55.36 74.71 55.42 74.71 57.75 81.39 57.75 81.39 41.39 81.39 41.32 81.39 41.27 81.39 38.58 81.39 38.1 81.39 25.41 74.71 25.41" style="stroke-width:0px;"/></svg>