<?xml version="1.0" encoding="UTF-8"?><svg id="a" xmlns="http://www.w3.org/2000/svg" viewBox="0 0 198.63 80"><defs><style>.b{stroke-width:0px;}</style></defs><path class="b" d="m147.61,36.35c-.18-9.56-7.98-17.27-17.61-17.27-.65,0-1.29.03-1.94.11-2.93.39-5.58,1.68-7.69,3.56l.03-3.68h0v-.13h-8.22v41.09h8.22v-23.41c.06-5.24,4.34-9.47,9.59-9.47,2.03,0,3.92.63,5.48,1.71,2.53,1.76,4.02,4.66,4.08,7.74.02.56.02,1.29.02,2.23v21.32h8.01l.02-23.8h0Z"/><path class="b" d="m99.25,5c-2.71,0-4.9,2.19-4.9,4.9s2.19,4.9,4.9,4.9,4.9-2.19,4.9-4.9-2.19-4.9-4.9-4.9Z"/><path class="b" d="m86.45,36.35c-.18-9.56-7.98-17.27-17.61-17.27h-.16c-3.63.06-6.92,1.69-9.45,4.27v-.61s-.02,0-.02.02l.03-3.76h0V5h-8.22v55.04h8.22v-23.41c.06-5.24,4.34-9.47,9.59-9.47,2.03,0,3.92.63,5.48,1.71,2.53,1.76,4.02,4.66,4.08,7.74.02.56.02,1.29.02,2.23v21.22h8.01l.02-23.7h0Z"/><path class="b" d="m194.68,50.43V5.23h-8.45v18.35s-.02,0-.02-.02v.9h0v.29c-2.89-2.79-6.51-4.72-10.53-5.39-.97-.15-1.95-.23-2.95-.23h0c-10,.29-18.66,7.74-20.11,17.96-.79,5.53.63,11.05,3.98,15.51,3.35,4.47,8.26,7.37,13.77,8.16,5.53.79,11.05-.63,15.51-3.98.55-.4,1.06-.84,1.56-1.29l5.89,4.76,5.29-6.58-3.95-3.26Zm-21.45,2.87c-5.79,0-10.71-3.74-12.46-8.95-.45-1.32-.69-2.74-.69-4.22,0-6.06,4.11-11.17,9.71-12.67,1.1-.31,2.26-.45,3.45-.45,2.26,0,4.37.56,6.22,1.56,1.68.89,3.14,2.13,4.31,3.69,1.34,1.77,2.18,3.82,2.47,5.97h0c.1.63.15,1.26.15,1.92,0,7.27-5.89,13.16-13.14,13.16Z"/><path class="b" d="m3.98,29.8v45.2h8.43v-18.33s.02,0,.02.02v-.9h0v-.29c2.89,2.79,6.51,4.72,10.53,5.39.97.15,1.95.23,2.95.23h0c10-.29,18.66-7.74,20.11-17.96.79-5.53-.63-11.05-3.98-15.51-3.35-4.47-8.26-7.37-13.77-8.16-5.53-.79-11.05.63-15.51,3.98-.55.4-1.06.84-1.56,1.29l-5.9-4.74L0,26.58l3.98,3.23Zm21.45-2.87c5.79,0,10.71,3.74,12.46,8.95.45,1.32.69,2.74.69,4.22,0,6.06-4.11,11.17-9.71,12.67-1.1.31-2.26.45-3.45.45-2.26,0-4.37-.56-6.22-1.56-1.68-.89-3.14-2.13-4.31-3.69-1.34-1.77-2.18-3.82-2.47-5.97h0c-.1-.63-.15-1.26-.15-1.92,0-7.27,5.89-13.16,13.14-13.16Z"/><polygon class="b" points="95.09 18.88 95.09 34.35 95.09 35.65 95.09 56.94 95.09 57 95.09 57.08 95.09 60.04 103.59 60.04 103.59 39.22 103.59 39.14 103.59 39.07 103.59 35.65 103.59 35.04 103.59 18.88 95.09 18.88"/></svg>