<?xml version="1.0" encoding="UTF-8"?><svg id="a" xmlns="http://www.w3.org/2000/svg" viewBox="0 0 251.11 80"><defs><style>.b{stroke-width:0px;}</style></defs><path class="b" d="m98.86,31.35h7.87v25.03h-7.87v-25.03Z"/><path class="b" d="m108.4,31.35h7.62v3.43h.25c1.93-2.68,4.19-4.19,7.62-4.19s8.62,3.93,8.62,9.29v16.24h-7.87v-14.4c0-2.68-1.26-4.44-3.93-4.44s-4.44,2.18-4.44,5.19v13.73h-7.87v-24.86h0Z"/><circle class="b" cx="102.79" cy="24.73" r="4.69"/><path class="b" d="m188.5,31.09h-.75c-2.93,0-5.19,1.26-6.86,4.19h-.25v-3.93h-7.62v25.03h7.87v-11.22c0-5.19,2.93-7.62,7.37-7.11l.25-6.95Z"/><path class="b" d="m227.26,40.72c-3.18-.5-5.86-.75-5.86-2.68s1.51-2.18,3.43-2.18,3.68.75,3.93,2.93h7.37c-.5-4.94-4.19-8.12-11.3-8.12s-10.8,2.68-10.8,8.12,4.69,7.11,8.87,7.87,6.36.75,6.36,2.93-1.51,2.43-3.93,2.43-3.93-1-4.44-2.93h-7.37c.5,5.19,5.19,8.37,12.05,8.37s11.3-2.68,11.3-8.37-5.19-7.62-9.63-8.37Z"/><path class="b" d="m201.23,51.27c-3.18,0-5.19-2.18-5.61-5.44h17.91c0-5.19-1.51-9.29-4.44-12.05s-4.94-3.18-8.62-3.18c-7.62,0-12.81,5.61-12.81,13.23s5.19,13.23,13.23,13.23c2.78.07,5.52-.69,7.87-2.18,2.08-1.36,3.58-3.45,4.19-5.86h-7.87c-.33,1.51-1.84,2.26-3.85,2.26Zm-.42-14.98c2.68,0,4.44,1.93,4.69,4.94h-9.79c.42-3.01,1.84-4.94,5.11-4.94Z"/><path class="b" d="m250.86,50.51h-1.26c-1.76,0-2.68-.5-2.68-2.43v-11.8h4.19v-4.94h-4.19v-7.87h-7.87v7.87h-2.43v4.94h2.43v13.48c0,5.44,3.18,6.86,7.87,6.86h3.93v-6.11Z"/><path class="b" d="m146.73,50.51h-1c-1.76,0-2.68-.5-2.68-2.43v-11.8h3.68v-4.94h-3.68v-7.87h-7.87v7.87h-2.43v4.94h2.68v13.48c0,5.44,3.18,6.86,7.87,6.86h3.68l-.25-6.11Z"/><path class="b" d="m146.48,43.9c0-7.37,5.19-13.23,12.81-13.23,3.16-.01,6.22,1.12,8.62,3.18,2.18,1.93,4.44,7.11,4.44,12.05h-18.16c.5,3.43,2.43,5.44,5.61,5.44s3.43-1,4.19-2.43h7.87c-.59,2.42-2.09,4.52-4.19,5.86-2.33,1.54-5.08,2.3-7.87,2.18-8.37.17-13.31-5.69-13.31-13.06Zm17.66-2.68c-.25-2.93-2.18-4.94-4.69-4.94s-4.69,1.93-5.19,4.94h9.88Z"/><path class="b" d="m70.9,21.55h13.73c4.19,0,7.37,1.26,9.54,3.18s3.43,5.19,3.43,8.62c0,6.61-4.69,11.3-11.8,11.3h-6.86v11.55h-8.12V21.55h.08Zm13.98,16.41c3.18,0,4.94-1.93,4.94-4.69s-1.76-4.44-4.94-4.44h-5.86v9.12h5.86Z"/><path class="b" d="m30.14,10C13.6,9.9.1,23.22,0,39.76c-.08,12.48,7.59,23.7,19.25,28.16-.38-2.86-.38-5.76,0-8.62l3.43-14.98c-.6-1.37-.91-2.85-.92-4.35,0-4.19,2.43-7.37,5.44-7.37s3.68,1.93,3.68,4.19-1.76,6.36-2.43,10.04c-.67,3.68,1.51,5.44,4.44,5.44s9.29-5.61,9.29-13.73-5.19-12.3-12.56-12.3-13.23,6.61-13.23,13.23c.03,2.45.79,4.84,2.18,6.86.17.21.26.48.25.75l-.75,3.43c-.25.5-.5.75-1,.5-3.68-1.76-6.11-7.11-6.11-11.55,0-9.29,6.86-18.16,19.92-18.16s18.41,7.37,18.41,17.16-6.61,18.67-15.49,18.67c-2.93,0-5.86-1.51-6.86-3.43l-1.93,7.11c-.89,2.77-2.13,5.41-3.68,7.87,15.83,4.85,32.6-4.05,37.45-19.89,4.85-15.83-4.05-32.6-19.89-37.45-.19-.06-.38-.11-.57-.17-2.67-.75-5.43-1.15-8.2-1.17Z"/></svg>