<?xml version="1.0" encoding="UTF-8" standalone="no"?>
<svg version="1.0" viewBox="0 0 32.000001 32" preserveAspectRatio="xMidYMid" id="svg11" sodipodi:docname="pinterest.svg" width="32" height="32" inkscape:version="1.4-beta2 (9aaf4f34, 2024-07-30)" xmlns:inkscape="http://www.inkscape.org/namespaces/inkscape" xmlns:sodipodi="http://sodipodi.sourceforge.net/DTD/sodipodi-0.dtd" xmlns="http://www.w3.org/2000/svg" xmlns:svg="http://www.w3.org/2000/svg">
  <sodipodi:namedview id="namedview1" pagecolor="#ffffff" bordercolor="#000000" borderopacity="0.25" inkscape:showpageshadow="2" inkscape:pageopacity="0.0" inkscape:pagecheckerboard="0" inkscape:deskcolor="#d1d1d1" inkscape:zoom="5.2788108" inkscape:cx="9.6612668" inkscape:cy="30.215138" inkscape:window-width="1440" inkscape:window-height="790" inkscape:window-x="0" inkscape:window-y="0" inkscape:window-maximized="1" inkscape:current-layer="g11" />
  <defs id="defs11" />
  <g transform="matrix(0.00985077,0,0,-0.00985077,-6.9091226,93.52847)" fill="#000000" stroke="none" id="g11" style="stroke-width:1.01515;stroke-dasharray:none">
    <g id="g1" transform="matrix(0.54618316,0,0,0.54618316,318.23986,4902.3702)">
      <path d="m 3425,8404 c -16,-2 -70,-9 -120,-15 C 2490,8289 1731,7836 1251,7164 880,6643 682,5988 703,5350 c 15,-458 118,-858 325,-1265 303,-596 796,-1067 1412,-1351 66,-31 123,-54 124,-53 2,2 -1,60 -6,129 -16,218 6,514 57,765 14,66 90,399 169,739 l 144,619 -23,86 c -49,181 -72,409 -55,544 48,390 246,610 534,595 223,-12 356,-175 356,-439 0,-134 -19,-222 -115,-536 -97,-315 -115,-408 -97,-516 41,-246 228,-387 512,-387 154,0 276,39 411,131 274,185 448,571 466,1030 31,795 -474,1329 -1257,1329 -394,0 -761,-141 -997,-382 -148,-150 -238,-306 -298,-514 -67,-231 -73,-508 -15,-729 36,-139 105,-287 181,-387 l 50,-68 -21,-30 c -50,-70 -143,-99 -255,-79 -228,41 -428,320 -501,699 -22,115 -25,432 -6,550 98,580 430,1034 950,1296 298,151 577,214 948,214 346,0 619,-57 899,-189 295,-138 570,-387 739,-668 321,-534 339,-1272 46,-1855 -98,-196 -190,-318 -361,-483 -264,-253 -576,-386 -909,-388 -137,0 -211,11 -328,50 -145,48 -238,107 -358,225 l -82,80 -67,-278 c -130,-536 -177,-679 -306,-936 -32,-65 -83,-159 -114,-209 -30,-51 -53,-94 -51,-97 10,-9 175,-53 290,-76 207,-43 403,-59 651,-53 239,6 364,20 580,68 669,148 1282,536 1696,1075 212,275 367,566 475,889 277,835 175,1741 -281,2490 -420,691 -1101,1178 -1895,1356 -218,49 -323,60 -605,64 -143,2 -273,1 -290,-1 z" id="path1" style="stroke-width:1.01515;stroke-dasharray:none" />
    </g>
  </g>
</svg>
