<?xml version="1.0" encoding="UTF-8" standalone="no"?>
<svg version="1.0" viewBox="0 0 250.00002 80" preserveAspectRatio="xMidYMid" id="svg11" xmlns="http://www.w3.org/2000/svg" xmlns:svg="http://www.w3.org/2000/svg">
  <defs id="defs11" />
  <g transform="matrix(0.00985077,0,0,-0.00985077,-6.9091226,93.52847)" fill="#000000" stroke="none" id="g11" style="stroke-width:1.01515;stroke-dasharray:none">
    <path d="m 3425,8404 c -16,-2 -70,-9 -120,-15 C 2490,8289 1731,7836 1251,7164 880,6643 682,5988 703,5350 c 15,-458 118,-858 325,-1265 303,-596 796,-1067 1412,-1351 66,-31 123,-54 124,-53 2,2 -1,60 -6,129 -16,218 6,514 57,765 14,66 90,399 169,739 l 144,619 -23,86 c -49,181 -72,409 -55,544 48,390 246,610 534,595 223,-12 356,-175 356,-439 0,-134 -19,-222 -115,-536 -97,-315 -115,-408 -97,-516 41,-246 228,-387 512,-387 154,0 276,39 411,131 274,185 448,571 466,1030 31,795 -474,1329 -1257,1329 -394,0 -761,-141 -997,-382 -148,-150 -238,-306 -298,-514 -67,-231 -73,-508 -15,-729 36,-139 105,-287 181,-387 l 50,-68 -21,-30 c -50,-70 -143,-99 -255,-79 -228,41 -428,320 -501,699 -22,115 -25,432 -6,550 98,580 430,1034 950,1296 298,151 577,214 948,214 346,0 619,-57 899,-189 295,-138 570,-387 739,-668 321,-534 339,-1272 46,-1855 -98,-196 -190,-318 -361,-483 -264,-253 -576,-386 -909,-388 -137,0 -211,11 -328,50 -145,48 -238,107 -358,225 l -82,80 -67,-278 c -130,-536 -177,-679 -306,-936 -32,-65 -83,-159 -114,-209 -30,-51 -53,-94 -51,-97 10,-9 175,-53 290,-76 207,-43 403,-59 651,-53 239,6 364,20 580,68 669,148 1282,536 1696,1075 212,275 367,566 475,889 277,835 175,1741 -281,2490 -420,691 -1101,1178 -1895,1356 -218,49 -323,60 -605,64 -143,2 -273,1 -290,-1 z" id="path1" style="stroke-width:1.01515;stroke-dasharray:none" />
    <path d="m 11005,7317 c -144,-48 -241,-156 -260,-289 -16,-110 42,-255 128,-320 78,-60 116,-73 217,-73 84,0 102,3 158,29 80,37 152,114 182,194 17,45 21,73 18,132 -9,187 -147,328 -331,336 -42,2 -88,-2 -112,-9 z" id="path2" style="stroke-width:1.01515;stroke-dasharray:none" />
    <path d="M 7990,5320 V 3570 h 315 315 v 575 575 h 363 c 509,0 654,13 837,72 134,43 315,152 418,251 351,338 437,962 198,1435 -67,132 -176,261 -296,351 -190,142 -390,212 -659,231 -75,5 -441,10 -813,10 h -678 z m 1406,1219 c 270,-47 447,-198 510,-434 25,-95 30,-274 9,-375 -45,-229 -194,-396 -410,-459 -113,-33 -220,-41 -562,-41 h -323 v 660 660 h 358 c 206,0 384,-4 418,-11 z" id="path3" style="stroke-width:1.01515;stroke-dasharray:none" />
    <path d="m 14528,6528 -3,-323 -197,-3 -198,-2 v -235 -235 h 200 199 l 3,-822 c 3,-797 4,-825 24,-893 85,-288 261,-415 626,-455 150,-16 365,-9 481,16 l 27,6 v 227 228 h -147 c -116,0 -159,3 -198,17 -104,37 -153,89 -180,191 -13,51 -15,161 -15,772 v 713 h 270 270 v 235 235 h -270 -270 v 325 325 h -310 -310 z" id="path4" style="stroke-width:1.01515;stroke-dasharray:none" />
    <path d="m 24920,6525 v -325 h -200 -200 v -235 -235 h 200 199 l 3,-812 c 4,-801 4,-814 26,-891 68,-243 205,-376 450,-437 90,-22 251,-40 363,-40 76,0 249,15 297,25 l 22,5 v 231 232 l -89,-7 c -112,-9 -239,8 -302,39 -58,30 -101,80 -125,148 -18,49 -19,98 -22,780 l -3,727 h 271 270 v 235 235 h -270 -270 v 325 325 h -310 -310 z" id="path5" style="stroke-width:1.01515;stroke-dasharray:none" />
    <path d="m 12945,6236 c -245,-52 -431,-183 -537,-378 -20,-39 -37,-58 -49,-58 -18,0 -19,12 -19,200 v 200 h -305 -305 V 4885 3570 h 305 304 l 3,848 3,847 24,70 c 35,107 80,184 147,252 110,112 253,161 444,150 278,-15 429,-160 469,-452 7,-49 11,-368 11,-896 v -819 h 305 306 l -3,948 c -3,853 -6,955 -21,1027 -81,370 -275,591 -592,676 -100,27 -393,36 -490,15 z" id="path6" style="stroke-width:1.01515;stroke-dasharray:none" />
    <path d="m 16835,6244 c -494,-39 -869,-341 -1025,-824 -118,-363 -99,-864 45,-1200 167,-390 496,-630 939,-685 150,-19 240,-19 386,0 183,22 257,42 395,103 252,111 461,330 541,566 40,117 66,106 -256,106 h -280 l -34,-53 c -46,-72 -125,-141 -211,-184 -93,-47 -112,-53 -230,-67 -243,-28 -418,25 -564,172 -122,123 -194,299 -195,477 l -1,80 913,3 912,2 v 180 c 0,198 -8,267 -51,444 -52,211 -145,387 -280,531 -172,181 -330,268 -604,330 -69,16 -302,27 -400,19 z m 327,-494 c 209,-66 350,-237 403,-492 8,-38 15,-80 15,-94 v -24 h -615 -615 v 33 c 0,51 36,180 70,251 89,188 252,316 438,346 81,13 230,3 304,-20 z" id="path7" style="stroke-width:1.01515;stroke-dasharray:none" />
    <path d="m 19580,6240 c -103,-12 -159,-28 -249,-72 -136,-67 -258,-205 -301,-340 -8,-27 -17,-38 -31,-38 -18,0 -19,9 -19,205 v 205 h -305 -305 V 4885 3570 h 305 304 l 3,833 3,832 28,80 c 85,241 267,370 555,391 78,5 129,1 295,-22 l 47,-7 v 271 c 0,253 -1,271 -18,276 -20,7 -208,26 -232,24 -8,0 -44,-4 -80,-8 z" id="path8" style="stroke-width:1.01515;stroke-dasharray:none" />
    <path d="m 20905,6244 c -678,-54 -1105,-581 -1105,-1364 0,-775 404,-1276 1088,-1349 225,-24 462,1 667,71 294,101 537,336 630,609 14,40 25,78 25,86 0,10 -55,13 -283,13 h -283 l -24,-42 c -51,-92 -173,-187 -302,-234 -24,-9 -88,-22 -143,-28 -326,-38 -563,81 -690,346 -45,93 -77,234 -73,318 l 3,65 914,3 914,2 -6,203 c -10,334 -62,547 -185,757 -201,342 -536,532 -955,544 -78,2 -164,2 -192,0 z m 315,-491 c 30,-8 78,-27 105,-41 67,-33 193,-162 232,-237 38,-72 79,-210 84,-280 l 4,-50 -609,-3 c -336,-1 -614,2 -618,6 -5,5 -2,44 7,87 61,295 252,497 505,535 74,11 222,3 290,-17 z" id="path9" style="stroke-width:1.01515;stroke-dasharray:none" />
    <path d="m 23240,6243 c -293,-46 -483,-129 -639,-277 -71,-68 -139,-166 -172,-247 -47,-118 -61,-291 -34,-418 48,-228 178,-380 422,-493 103,-47 226,-82 528,-148 344,-76 437,-108 519,-180 58,-51 79,-108 74,-198 -5,-88 -21,-125 -80,-184 -155,-155 -562,-173 -771,-34 -72,48 -113,95 -149,173 l -30,63 h -300 -300 l 7,-32 c 47,-236 139,-389 313,-520 170,-129 372,-196 657,-220 436,-36 821,78 1056,312 149,149 212,303 212,515 0,224 -76,388 -239,511 -133,99 -270,153 -569,220 -532,121 -598,143 -684,220 -157,142 -76,386 157,468 131,46 337,39 471,-16 102,-43 189,-127 221,-215 l 23,-63 h 284 285 l -7,52 c -27,193 -136,379 -293,498 -37,28 -112,73 -167,100 -180,88 -345,121 -605,119 -91,-1 -176,-4 -190,-6 z" id="path10" style="stroke-width:1.01515;stroke-dasharray:none" />
    <path d="M 10790,4885 V 3570 h 305 305 v 1315 1315 h -305 -305 z" id="path11" style="stroke-width:1.01515;stroke-dasharray:none" />
  </g>
</svg>
