<?xml version="1.0" encoding="utf-8"?>
<!-- Generator: Adobe Illustrator 23.0.6, SVG Export Plug-In . SVG Version: 6.00 Build 0)  -->
<svg version="1.1" id="Camada_1" xmlns="http://www.w3.org/2000/svg" xmlns:xlink="http://www.w3.org/1999/xlink" x="0px" y="0px"
	 viewBox="0 0 300 120" style="enable-background:new 0 0 300 120;" xml:space="preserve">
<title>download</title>
<path d="M22.6,37.3C33.7,37,44.1,46,45.2,57c1.2,9.9-4.1,19.5-13.2,23.7c-5.4,2.7-11.5,1.9-17.3,2H9v18.2H0c0-14,0-28.1,0-42.1
	c0.3-10.5,8.9-19.8,19.2-21.2C20.3,37.4,21.5,37.3,22.6,37.3L22.6,37.3z M22.6,73.7c7.6,0,13.7-6.1,13.8-13.7
	c0-7.6-6.1-13.7-13.7-13.8c-5,0-9.7,2.7-12.1,7.2C8.3,57.4,9.1,62,9,66.3v7.3H22.6z M49.6,37.1h8.9v45.4h-8.9L49.6,37.1z M85.2,65.6
	h0.3l12.7,16.9h11L92,59.2l15.2-22h-11L85.5,52.7h-0.3L74.5,37.1h-11l15.2,22L61.5,82.5h11L85.2,65.6z"/>
<path d="M129.3,37.1c9.2,0,17.5,5.6,21,14.1c1.7,3.9,1.7,8.2,1.7,12.3v19c-8,0-16.1,0-24.1,0c-9.4-0.6-17.5-7-20.3-16
	c-2.4-7.9-0.4-16.4,5.3-22.3C117.2,39.7,123.2,37.1,129.3,37.1L129.3,37.1z M143,73.5c0-5,0.1-10.1-0.1-15.1
	c-0.8-7.5-7.5-13-15.1-12.2c-7.5,0.8-13,7.5-12.2,15.1c0.5,5,3.7,9.3,8.3,11.2c3.6,1.6,7.6,0.9,11.4,1.1
	C135.4,73.5,143,73.5,143,73.5z M179.1,37.3c10.6-0.3,20.6,8.1,22.3,18.6c2.3,12.3-5.9,24.2-18.2,26.4c-8.1,1.5-16.4-1.5-21.7-7.9
	c-3.8-4.6-5.6-10.5-5.2-16.5V19.1h9v18.2H179.1z M179.1,73.7c7.6-0.1,13.7-6.3,13.6-13.8c-0.1-6.4-4.6-12-10.9-13.3
	c-3.7-0.5-7.5-0.2-11.2-0.3h-5.3c0.1,5.1-0.1,10.3,0.1,15.4C166.3,68.6,172.1,73.7,179.1,73.7L179.1,73.7z M227.8,37.1
	c9.2,0,17.5,5.6,21,14.1c1.7,3.9,1.7,8.2,1.7,12.3v19c-8,0-16.1,0-24.1,0c-9.4-0.6-17.5-7-20.3-16c-2.4-7.9-0.4-16.4,5.3-22.3
	C215.7,39.7,221.6,37.1,227.8,37.1L227.8,37.1z M241.5,73.5c0-5,0.1-10.1-0.1-15.1c-0.8-7.5-7.5-13-15.1-12.2
	c-7.5,0.8-13,7.5-12.2,15.1c0.5,5,3.7,9.3,8.3,11.2c3.6,1.6,7.6,0.9,11.4,1.1H241.5z M300,37.2c0,14,0,28,0,42
	c-0.3,11-9.8,20.9-20.9,21.5c-2.1,0.1-4.2,0-6.3,0v-9c3.8,0,7.9,0.4,11.3-1.8c4.3-2.5,6.9-7.1,6.8-12c-8,6.4-20.3,6.1-28.1-0.5
	c-5.7-4.7-8.7-11.8-8.3-19.1V37.2h9c0,8-0.1,16,0.1,24c0.7,7.5,7.4,13,15,12.3c6-0.6,10.9-5,12.1-11c0.5-3.7,0.2-7.5,0.3-11.2V37.2
	L300,37.2L300,37.2z"/>
</svg>
