<?xml version="1.0" encoding="UTF-8" standalone="no"?>
<svg viewBox="0 0 32 32" fill="none" class="logo--JVgVN light--F+p2x" version="1.1" id="svg1" sodipodi:docname="pixabay.svg" width="32" height="32" inkscape:version="1.4-beta2 (9aaf4f34, 2024-07-30)" xmlns:inkscape="http://www.inkscape.org/namespaces/inkscape" xmlns:sodipodi="http://sodipodi.sourceforge.net/DTD/sodipodi-0.dtd" xmlns="http://www.w3.org/2000/svg" xmlns:svg="http://www.w3.org/2000/svg">
  <defs id="defs1" />
  <sodipodi:namedview id="namedview1" pagecolor="#ffffff" bordercolor="#000000" borderopacity="0.25" inkscape:showpageshadow="2" inkscape:pageopacity="0.0" inkscape:pagecheckerboard="0" inkscape:deskcolor="#d1d1d1" inkscape:zoom="2.1468437" inkscape:cx="51.70381" inkscape:cy="41.689108" inkscape:window-width="1440" inkscape:window-height="790" inkscape:window-x="0" inkscape:window-y="0" inkscape:window-maximized="1" inkscape:current-layer="svg1" />
  <path fill-rule="evenodd" clip-rule="evenodd" d="M 0,2.6664 A 2.6664,2.6664 0 0 1 2.6664,0 H 29.3336 A 2.6664,2.6664 0 0 1 32,2.6664 V 29.3336 A 2.6664,2.6664 0 0 1 29.3336,32 H 2.6664 A 2.6664,2.6664 0 0 1 0,29.3336 Z m 5.1456,6.5008 c 1.164,-1.1744 2.6264,-1.784 4.3856,-1.828 1.76,0.0448 3.2264,0.6536 4.3992,1.828 1.172,1.1744 1.7808,2.648 1.8256,4.4224 -0.0448,1.776 -0.6536,3.2544 -1.8256,4.4368 -1.1728,1.1824 -2.64,1.796 -4.4,1.8416 H 5.7968 v 5.0224 H 3.3336 V 13.5896 c 0.0432,-1.7744 0.648,-3.248 1.812,-4.4224 z m 0.6504,4.4224 v 3.7952 h 3.7352 c 1.076,-0.0256 1.9664,-0.3936 2.6696,-1.1024 0.7032,-0.7096 1.0672,-1.6072 1.0928,-2.6928 -0.0256,-1.072 -0.3896,-1.9616 -1.0928,-2.668 -0.704,-0.7064 -1.5936,-1.072 -2.6696,-1.0984 -1.064,0.0256 -1.9456,0.392 -2.6464,1.0984 -0.7,0.7064 -1.0632,1.596 -1.0888,2.668 z m 16.3824,2.1976 3.1928,4.0864 h 3.5176 l -5.2128,-6.416 4.772,-6.124 h -3.3088 l -2.9256,3.8288 -2.624,-3.8288 h -3.332 l 4.388,6.1232 -4.7712,6.416 h 3.436 z" fill="currentColor" id="path1" style="stroke-width:0.8" />
</svg>
