<?xml version="1.0" encoding="UTF-8" standalone="no"?>
<svg height="32" width="32" viewBox="-6.003495 -7.75 1.3874744 1.86" version="1.1" id="svg1" sodipodi:docname="PlayStation-Icon-Logo.wine.svg" inkscape:version="1.4-beta2 (9aaf4f34, 2024-07-30)" xmlns:inkscape="http://www.inkscape.org/namespaces/inkscape" xmlns:sodipodi="http://sodipodi.sourceforge.net/DTD/sodipodi-0.dtd" xmlns="http://www.w3.org/2000/svg" xmlns:svg="http://www.w3.org/2000/svg">
  <defs id="defs1" />
  <sodipodi:namedview id="namedview1" pagecolor="#ffffff" bordercolor="#000000" borderopacity="0.25" inkscape:showpageshadow="2" inkscape:pageopacity="0.0" inkscape:pagecheckerboard="0" inkscape:deskcolor="#d1d1d1" inkscape:zoom="2.2225604" inkscape:cx="58.4911" inkscape:cy="73.563806" inkscape:window-width="1440" inkscape:window-height="790" inkscape:window-x="0" inkscape:window-y="0" inkscape:window-maximized="1" inkscape:current-layer="svg1" />
  <path fill="#0070d1" d="m -6.2021293,-6.4900364 c -0.06971,0.046474 -0.046474,0.1347739 0.1022422,0.1766002 0.1533634,0.051121 0.3206689,0.065063 0.4833271,0.037179 0.00929,0 0.018589,-0.00465 0.023236,-0.00465 v -0.1580107 l -0.1580107,0.051121 c -0.060416,0.018589 -0.1208318,0.023236 -0.1812476,0.00929 -0.046474,-0.013942 -0.037179,-0.041827 0.018589,-0.065063 l 0.3206689,-0.111537 v -0.1719529 l -0.4461479,0.1533633 c -0.055769,0.018589 -0.111537,0.046474 -0.1626582,0.083653 z m 1.0781911,-0.6971063 v 0.4507954 c 0.1905423,0.092948 0.3392583,0 0.3392583,-0.2416634 0,-0.246311 -0.0883,-0.357848 -0.3439057,-0.4461481 -0.1347739,-0.046474 -0.2741952,-0.0883 -0.4136164,-0.1161844 v 1.3430914 l 0.3253162,0.097595 v -1.1293124 c 0,-0.051121 0,-0.0883 0.037179,-0.074358 0.051121,0.013942 0.055768,0.065063 0.055769,0.1161845 z m 0.6041588,0.5902167 c -0.1347739,-0.046474 -0.2788425,-0.065063 -0.4182639,-0.051121 -0.074358,0.00465 -0.1440686,0.023236 -0.2091318,0.046474 l -0.013942,0.00465 v 0.1812476 l 0.3020793,-0.111537 c 0.060416,-0.018589 0.1208318,-0.023236 0.1812477,-0.00929 0.046474,0.013942 0.037179,0.041827 -0.018589,0.065063 l -0.4647376,0.1719453 v 0.1766003 l 0.6413378,-0.2370161 c 0.046474,-0.018589 0.0883,-0.041827 0.1254791,-0.079006 0.032532,-0.046474 0.018589,-0.111537 -0.1254796,-0.1580101 z" id="path1" style="fill:#000000;stroke-width:0.0464738" />
</svg>
