<?xml version="1.0" encoding="UTF-8" standalone="no"?>
<svg version="1.1" width="32" height="32" id="svg17" sodipodi:docname="playplus.svg" inkscape:version="1.4-beta2 (9aaf4f34, 2024-07-30)" xmlns:inkscape="http://www.inkscape.org/namespaces/inkscape" xmlns:sodipodi="http://sodipodi.sourceforge.net/DTD/sodipodi-0.dtd" xmlns="http://www.w3.org/2000/svg" xmlns:svg="http://www.w3.org/2000/svg">
  <defs id="defs17" />
  <sodipodi:namedview id="namedview17" pagecolor="#ffffff" bordercolor="#000000" borderopacity="0.25" inkscape:showpageshadow="2" inkscape:pageopacity="0.0" inkscape:pagecheckerboard="0" inkscape:deskcolor="#d1d1d1" inkscape:zoom="5.715196" inkscape:cx="18.89699" inkscape:cy="5.511622" inkscape:window-width="1440" inkscape:window-height="872" inkscape:window-x="0" inkscape:window-y="0" inkscape:window-maximized="1" inkscape:current-layer="g17" />
  <g id="g17">
    <g id="g1" transform="matrix(0.95625392,0,0,0.95625392,1.0806423,-2.0505662e-4)">
      <path d="m 11.26361,0.55179 c 0.28228,0.16031 0.56069,0.32582 0.8384,0.4939 0.21291,0.12652 0.42587,0.25296 0.63887,0.37932 0.10903,0.065 0.21806,0.13004 0.33039,0.19703 0.539,0.31961 1.082263,0.63173 1.6255,0.94407 0.219641,0.12656 0.439274,0.25313 0.658899,0.37971 0.109074,0.0628 0.218149,0.12566 0.330529,0.1904 0.545724,0.31442 1.091223,0.62924 1.636743,0.94402 0.2178,0.12566 0.4356,0.25131 0.653402,0.37696 0.435601,0.25131 0.871202,0.50262 1.306803,0.75393 0.107828,0.0622 0.215655,0.12442 0.32675,0.1885 0.217641,0.12557 0.435278,0.25114 0.652911,0.37672 0.546902,0.31557 1.093881,0.631 1.641014,0.94617 1.157638,0.667 2.314482,1.3353 3.46749,2.01029 0.518889,0.30372 1.03881,0.60544 1.560639,0.90409 0.108897,0.0627 0.217792,0.12529 0.32999,0.18984 0.207412,0.11926 0.415148,0.23797 0.623263,0.356 1.605023,0.9257 1.605023,0.9257 1.90263,1.78858 0.114267,0.65262 -0.02748,1.17105 -0.402093,1.7089 -0.596293,0.64017 -1.341576,1.03051 -2.104707,1.43869 -0.242254,0.1313 -0.484159,0.2632 -0.726046,0.3951 -0.05928,0.032 -0.118558,0.064 -0.179634,0.098 -0.57899,0.3158 -1.14499,0.6527 -1.702798,1.0045 -0.353609,0.216 -0.602015,0.3649 -1.016644,0.2809 -0.252579,-0.1274 -0.483778,-0.2588 -0.722512,-0.4084 -0.151997,-0.092 -0.304098,-0.1845 -0.456281,-0.2765 -0.08374,-0.051 -0.167484,-0.1018 -0.253763,-0.1543 -0.525625,-0.3159 -1.057879,-0.6205 -1.589427,-0.9263 -0.112055,-0.064 -0.22411,-0.1291 -0.33956,-0.1956 -0.635573,-0.36583 -1.271471,-0.73108 -1.909649,-1.09234 -0.06409,-0.0365 -0.128172,-0.073 -0.194199,-0.11057 -0.509182,-0.28662 -0.880364,-0.41438 -1.470718,-0.35435 -0.431401,0.28488 -0.655522,0.51338 -0.804187,1.00523 -0.02133,0.33646 -0.02133,0.33646 -0.0049,0.70553 0.0036,0.143 0.0071,0.2861 0.01066,0.4291 0.0022,0.075 0.0044,0.1506 0.0066,0.2282 0.01045,0.4016 0.01354,0.8033 0.01768,1.205 0.0054,0.51 0.01302,1.0196 0.03026,1.5294 0.0889,2.7411 0.0889,2.7411 -0.312396,3.3829 -0.383881,0.3686 -0.826942,0.5354 -1.329835,0.6871 -0.353704,0.1177 -0.652554,0.3088 -0.967674,0.5045 -0.11693,0.068 -0.23414,0.135 -0.35163,0.2018 -0.17448,0.1 -0.34896,0.1999 -0.52316,0.3003 -0.61055,0.352 -1.22437,0.6976 -1.84915,1.0238 -0.0922,0.048 -0.18436,0.096 -0.27934,0.1461 -0.55222,0.2203 -1.13718,0.2231 -1.70168,0.04 -0.52276,-0.263 -0.78118,-0.6749 -0.99731,-1.2011 -0.11244,-0.4133 -0.11978,-0.7852 -0.11777,-1.2114 -3.8e-4,-0.087 -7.7e-4,-0.1736 -10e-4,-0.2631 -0.001,-0.2903 -6.3e-4,-0.5806 -2.4e-4,-0.8709 -4.4e-4,-0.2084 -9.6e-4,-0.4168 -0.002,-0.6252 -10e-4,-0.5658 -10e-4,-1.1315 -10e-4,-1.6973 1.1e-4,-0.4726 -3.8e-4,-0.9453 -8.6e-4,-1.4179 -0.001,-1.1154 -0.001,-2.2307 -5.6e-4,-3.34607 6.1e-4,-1.14967 -6.3e-4,-2.29933 -0.003,-3.449 -0.002,-0.98775 -0.002,-1.97549 -0.002,-2.96325 1.9e-4,-0.58962 -8e-5,-1.17924 -0.001,-1.76886 -10e-4,-0.55478 -10e-4,-1.10956 2.4e-4,-1.66436 2.4e-4,-0.20318 -4e-5,-0.40635 -8.7e-4,-0.60952 -0.009,-2.32586 -0.009,-2.32586 0.5664,-3.11144 0.98918,-0.92173 2.08674,-0.56996 3.16369,-0.0164 z" fill="#fefdfe" id="path2" style="fill:#000000;stroke-width:0.100523" />
      <path d="m 4.0518277,11.330014 c 0.29333,0.1445 0.29333,0.1445 0.57681,0.31377 0.33311,0.19368 0.33311,0.19368 0.70199,0.29533 0.43716,0.16304 0.76829,0.30509 1.04384,0.69142 0.25393,0.81663 0.1721,1.72448 0.14975,2.56877 -0.008,0.34436 -0.007,0.68868 -0.007,1.0331 -10e-4,0.65234 -0.009,1.30434 -0.0197,1.95654 -0.0189,1.1668 -0.0253,2.3337 -0.0305,3.5006 -0.002,0.4746 -0.009,0.949 -0.0172,1.4235 -0.003,0.2494 -0.005,0.4988 -0.008,0.7482 -0.003,0.112 -0.005,0.2241 -0.008,0.3395 -0.005,0.8343 0.14751,1.4523 0.69418,2.0947 0.53252,0.4393 0.98047,0.4774 1.66413,0.4633 0.7537202,-0.1044 1.3580613,-0.4814 2.0049713,-0.8591 0.0937,-0.054 0.1875,-0.1078 0.2841,-0.1633 0.61973,-0.3561 1.23639,-0.7173 1.85182,-1.0808 0.371879,-0.2195 0.744585,-0.4374 1.118522,-0.6533 0.106515,-0.062 0.21303,-0.1239 0.322774,-0.1877 0.242669,-0.1264 0.242669,-0.1264 0.443716,-0.1264 0.03252,0.4719 0.0561,0.9432 0.07179,1.416 0.0065,0.1604 0.01543,0.3207 0.0268,0.4808 0.0368,0.5323 0.04062,1.0027 -0.09858,1.5209 -0.379283,0.3957 -0.809523,0.5863 -1.306803,0.8042 -0.198692,0.1102 -0.396279,0.2225 -0.592539,0.337 -0.19818,0.1099 -0.39648,0.2195 -0.59489,0.329 -0.84978,0.4722 -1.69375,0.9526 -2.5319303,1.445 -0.930091,0.5461 -1.867451,1.0777 -2.810071,1.6018 -0.74466,0.4147 -1.48339,0.8385 -2.21504,1.2758 -0.68707,0.4047 -1.30542,0.6472 -2.11205,0.5402 -0.5987,-0.2195 -0.83107,-0.5102 -1.10174,-1.079 -0.2238,-0.7028 -0.17219,-1.4511 -0.16638,-2.1813 -4.1e-4,-0.1869 -9.1e-4,-0.3737 -0.002,-0.5606 -0.001,-0.5051 3e-4,-1.0102 0.003,-1.5153 0.002,-0.5297 0.001,-1.0595 0.001,-1.5893 0,-0.8894 0.002,-1.7787 0.005,-2.6681 0.004,-1.0269 0.005,-2.0538 0.004,-3.0807 -6e-4,-0.9898 4.1e-4,-1.9795 0.002,-2.9692 8e-4,-0.4204 0.001,-0.8408 9e-4,-1.2612 -9e-5,-0.49528 10e-4,-0.99058 0.004,-1.48589 7.1e-4,-0.18134 9.1e-4,-0.36267 6e-4,-0.544 -0.003,-2.05446 -0.003,-2.05446 0.58931,-2.82241 0.57784,-0.57784 1.29718,-0.63052 2.05641,-0.35183 z" fill="#fdfcfd" id="path3" style="fill:#000000;stroke-width:0.100523" />
      <path d="m 18.38654,15.031916 c 0.382053,0.14383 0.723677,0.33887 1.074343,0.5466 0.09749,0.0555 0.194986,0.11098 0.295434,0.16816 0.28207,0.16143 0.562219,0.32571 0.841736,0.49153 0.06698,0.04 0.133954,0.079 0.202961,0.12 0.229156,0.1361 0.457667,0.2733 0.685158,0.4121 0.649059,0.3953 1.310138,0.7695 1.970513,1.1454 1.209851,0.689 2.415525,1.3848 3.615796,2.0905 0.241828,0.1414 0.484637,0.2809 0.727911,0.4198 0.135354,0.078 0.270695,0.1568 0.40602,0.2352 0.112347,0.064 0.224692,0.1286 0.340444,0.1948 0.345693,0.2437 0.549583,0.4677 0.796726,0.8104 0.0685,0.4263 0.04233,0.6286 -0.169829,1.0051 -0.245412,0.3188 -0.438506,0.4631 -0.788284,0.6559 -0.111237,0.062 -0.222474,0.1248 -0.337082,0.189 -0.12114,0.066 -0.242286,0.1322 -0.36344,0.1982 -0.126009,0.07 -0.251932,0.1404 -0.377773,0.2108 -0.261853,0.1463 -0.524064,0.292 -0.78654,0.4372 -0.559111,0.3101 -1.113415,0.6285 -1.667893,0.9467 -0.29407,0.1687 -0.588466,0.3368 -0.882838,0.5049 -0.167475,0.096 -0.167475,0.096 -0.338333,0.1934 -0.291092,0.1662 -0.58225,0.3324 -0.873444,0.4985 -0.171337,0.098 -0.342672,0.1955 -0.514004,0.2933 -0.08181,0.047 -0.163612,0.093 -0.247897,0.1414 -0.499581,0.2854 -0.997926,0.5728 -1.495554,0.8615 -0.120597,0.07 -0.241196,0.1398 -0.361796,0.2097 -0.234508,0.1359 -0.468792,0.2721 -0.702976,0.4086 -0.106046,0.062 -0.212091,0.1229 -0.321351,0.1863 -0.09448,0.055 -0.188961,0.1099 -0.286305,0.1665 -0.466146,0.2532 -0.925272,0.3301 -1.446937,0.2313 -0.318622,-0.2364 -0.478177,-0.5299 -0.603139,-0.9048 -0.0096,-0.1629 -0.01356,-0.3262 -0.01412,-0.4894 -8.65e-4,-0.1514 -8.65e-4,-0.1514 -0.0017,-0.3058 -1.11e-4,-0.1106 -2.21e-4,-0.2212 -3.42e-4,-0.3352 -5.03e-4,-0.1165 -9.95e-4,-0.2331 -0.0015,-0.3532 -0.0015,-0.3866 -0.0022,-0.7732 -0.0027,-1.1598 -4.32e-4,-0.2005 -8.64e-4,-0.4011 -0.0013,-0.6016 -0.0012,-0.5589 -0.0019,-1.1179 -0.0023,-1.6768 -4.52e-4,-0.722 -0.0022,-1.444 -0.0051,-2.166 -0.0022,-0.5585 -0.0032,-1.1171 -0.0033,-1.6757 -10e-5,-0.3334 -8.44e-4,-0.6667 -0.0025,-1.0001 -0.0017,-0.3723 -0.0015,-0.7445 -8.74e-4,-1.1167 -9.25e-4,-0.1098 -0.0019,-0.2196 -0.0028,-0.3327 0.0037,-0.6816 0.0671,-1.18322 0.481446,-1.74487 0.348831,-0.23958 0.765127,-0.17348 1.165565,-0.11012 z" fill="#fdfdfd" id="path4" style="fill:#000000;stroke-width:0.100523" />
    </g>
  </g>
</svg>
