<?xml version="1.0" encoding="UTF-8" standalone="no"?>
<!DOCTYPE svg PUBLIC "-//W3C//DTD SVG 1.1//EN" "http://www.w3.org/Graphics/SVG/1.1/DTD/svg11.dtd">
<!-- Created with Vectornator (http://vectornator.io/) -->
<svg height="100%" stroke-miterlimit="10" style="fill-rule:nonzero;clip-rule:evenodd;stroke-linecap:round;stroke-linejoin:round;" version="1.1" viewBox="0 0 130.19 60" width="100%" xml:space="preserve" xmlns="http://www.w3.org/2000/svg" xmlns:xlink="http://www.w3.org/1999/xlink">
<defs/>
<path d="M0 0L130.19 0L130.19 60L0 60L0 0Z" fill="#000000" fill-opacity="0" fill-rule="nonzero" opacity="1" stroke="none"/>
<clipPath id="ArtboardFrame">
<rect height="60" width="130.19" x="0" y="0"/>
</clipPath>
<g clip-path="url(#ArtboardFrame)" id="Sem-Título">
<g opacity="1">
<g opacity="1">
<path d="M21.3917 10.7321C16.2404 10.7321 12.8789 12.235 10.0171 15.7405L10.0171 11.8768L-1.77636e-15 11.8768L-1.77636e-15 59.5236C-1.77636e-15 59.5236 0.203359 59.6193 0.681453 59.7215C1.42351 59.8805 5.08396 60.7249 7.82054 58.3856C10.1881 56.3601 10.7322 54.0155 10.7322 51.3166L10.7322 44.4297C13.594 47.5055 16.8854 48.7943 21.4644 48.7943C31.3374 48.7943 38.9209 40.7813 38.9209 30.1208C38.9209 18.7463 31.6229 10.7334 21.3917 10.7334L21.3917 10.7321ZM19.4402 39.8265C13.932 39.8265 9.52687 35.2638 9.52687 29.6777C9.52687 24.0915 14.6835 19.8426 19.4402 19.8426C25.0266 19.8426 29.3537 24.171 29.3537 29.7558C29.3537 35.3407 25.0266 39.8265 19.4402 39.8265L19.4402 39.8265Z" fill="#000000" fill-rule="nonzero" opacity="1" stroke="none"/>
<path d="M53.1628 29.0863C53.1628 33.2113 53.6193 38.217 57.6865 43.6915C57.7659 43.7979 57.9881 44.0659 57.9881 44.0659C56.3437 46.8885 54.2724 48.7874 51.5587 48.7874C49.4174 48.7874 47.3273 47.6549 45.586 45.6805C43.7247 43.5703 42.8359 40.8149 42.8359 37.9464L42.8359-8.88178e-16L53.1654-8.88178e-16L53.1614 29.0863L53.1628 29.0863Z" fill="#000000" fill-rule="nonzero" opacity="1" stroke="none"/>
<path d="M104.037 47.6509L91.6123 47.6509L103.672 29.7732L91.6123 11.8808L104.037 11.8808L116.096 29.7732L104.037 47.6509Z" fill="#000000" fill-rule="nonzero" opacity="1" stroke="none"/>
<path d="M119.41 27.7464L130.19 11.8808L117.716 11.8808L113.172 18.4918L119.41 27.7464Z" fill="#000000" fill-rule="nonzero" opacity="1" stroke="none"/>
<path d="M113.172 41.1205C113.175 41.1287 115.287 44.0658 115.287 44.0658C117.326 47.2629 119.941 48.782 123.059 48.7942C126.292 48.7363 128.595 45.8704 129.44 44.8658C129.44 44.8644 127.844 43.4598 125.866 41.1124C123.175 37.9154 119.548 32.1069 119.41 31.8578L113.174 41.1219L113.172 41.1205Z" fill="#000000" fill-rule="nonzero" opacity="1" stroke="none"/>
<path d="M82.3265 37.3632C80.2484 39.2795 78.8316 40.3893 75.8782 40.3893C70.6449 40.3893 67.7116 36.7371 67.282 32.6592L94.8377 32.6592C95.0114 32.1016 95.1246 31.4081 95.1246 30.2619C95.1246 19.1017 86.9674 10.7306 76.2365 10.7306C65.5056 10.7306 57.6352 19.2445 57.6352 29.9038C57.6352 40.563 66.0053 48.7914 76.452 48.7914C83.746 48.7914 90.0434 44.618 93.5058 37.3619L82.3278 37.3619L82.3265 37.3632ZM76.3038 19.1812C80.8666 19.1812 84.2806 22.1911 85.0671 26.1248L67.62 26.1248C68.5641 21.9555 71.7411 19.1812 76.3052 19.1812L76.3038 19.1812Z" fill="#000000" fill-rule="nonzero" opacity="1" stroke="none"/>
</g>
</g>
</g>
</svg>
