<svg id="Layer_1" data-name="Layer 1" xmlns="http://www.w3.org/2000/svg" viewBox="0 0 300 120"><defs><style>.cls-1{opacity:0.6;}</style></defs><title>Plex</title><path id="E" d="M197.5,103.74H147V16.26H197.5V31.44H165.61V50.66h29.68V65.85H165.61V88.42H197.5Z"/><path id="L" d="M84.24,103.74V16.26H102.8V88.42h35.49v15.32Z"/><path id="P" d="M75.46,43.54q0,14.13-8.83,21.61t-25.1,7.48h-8v31.11H15V16.26H43q15.92,0,24.2,6.82T75.46,43.54ZM33.56,57.43h6.11q8.56,0,12.81-3.38c2.84-2.24,4.21-5.53,4.21-9.84s-1.19-7.6-3.56-9.64S47.06,31.46,42,31.46H33.56Z"/><polygon points="285 16.26 259.63 16.26 246.32 39.2 259.63 60 246.32 80.8 259.63 103.74 284.98 103.74 259.63 60.02 285 16.26"/><g id="chevron" class="cls-1"><polygon points="206.24 16.26 231.61 16.26 259.61 60 231.61 103.74 206.24 103.74 234.23 60 206.24 16.26"/><polygon points="206.24 16.26 231.61 16.26 259.61 60 231.61 103.74 206.24 103.74 234.23 60 206.24 16.26"/></g></svg>