<?xml version="1.0" encoding="UTF-8"?><svg id="a" xmlns="http://www.w3.org/2000/svg" viewBox="0 0 220 80"><defs><style>.b{stroke-width:0px;}</style></defs><path class="b" d="m62.8,26.59c-6.7,1.78-11.1,7.27-11.68,14.4-.64,6.29,2.68,12.32,8.34,15.14,2.36,1.26,3.45,1.48,7.46,1.48,3.73,0,5.1-.22,6.92-1.15,5.59-2.96,8.44-7.24,8.88-13.39.66-9.16-5.5-16.13-14.59-16.68-1.78-.15-3.56-.09-5.32.2Zm7.79,5.05c5.43,2.03,8.28,9.49,5.71,15.03-3.95,8.5-14.81,8.5-18.7,0-2.53-5.37,0-12.51,5.26-14.86,2.49-.89,5.21-.94,7.73-.14v-.02Z"/><path class="b" d="m94.06,26.83c-3.18,1.26-4.21,2.2-5.26,4.4-2.9,6.42.44,11.08,9.48,13.33,4.55,1.1,6.48,2.46,6.48,4.61,0,4.66-8.17,5.15-13.99.87-1.03-.76-1.2-.7-2.68,1.1s-1.48,1.98-.49,2.75c3.78,3.07,11,4.71,15.4,3.56,4.85-1.12,7.87-5.96,6.75-10.81-.01-.06-.03-.13-.05-.19-.93-3.56-3.57-5.31-11-7.4-4.28-1.2-5.5-2.2-5.5-4.4,0-3.73,5.04-4.76,10.36-2.13.93.59,1.95,1.01,3.01,1.26,0-.11.66-.99,1.37-1.98l1.21-1.76-2.09-1.36c-3.51-2.4-9.48-3.19-13-1.85Z"/><path class="b" d="m137.56,26.83c-5.32,1.54-9.46,5.73-10.92,11.08-1.42,5.21.71,12.67,4.55,15.92,6.8,5.9,17.09,5.18,23-1.62.68-.78,1.28-1.62,1.8-2.52,1.54-2.75,1.7-3.46,1.7-7.7,0-4-.22-5.04-1.48-7.46-3.69-6.57-11.4-9.75-18.64-7.7Zm10.2,5.93c1.47,1.09,2.65,2.55,3.4,4.22,3.95,7.95-1.42,16.62-9.9,15.91-3.95-.33-6.48-2.09-8.28-5.82-2.8-5.64-.93-12.23,4.28-14.86,3.37-1.61,7.32-1.4,10.5.55Z"/><path class="b" d="m0,41.99v15.4h5.5v-9.9h4.27c2.08.01,4.15-.17,6.19-.55,9.05-2.52,11.08-13.93,3.3-18.53-2.46-1.43-2.96-1.48-10.91-1.65l-8.35-.16v15.4Zm15.63-9.54c3.3,1.37,4,5.21,1.43,8.06-1.54,1.75-1.76,1.8-6.6,1.97l-4.96.2v-11.08h4.1c2.04-.07,4.08.21,6.03.82v.02Z"/><path class="b" d="m27.97,41.99v15.4h21.39v-4.94h-15.91v-25.78h-5.5v15.32Z"/><path class="b" d="m163.44,41.99v15.4h5.5l.11-10.81.16-10.75,8.23,10.64c8.23,10.65,8.28,10.65,10.58,10.81l2.3.16v-30.8h-5.5l-.11,10.43-.15,10.42-7.95-10.36-7.95-10.37-2.56-.09h-2.63l-.02,15.32Z"/><path class="b" d="m196.89,41.99v15.4h23.1v-4.94h-17.6v-8.26h15.4v-4.91h-15.4v-7.62l8.67-.16,8.61-.16.16-2.35.16-2.31h-23.11v15.32Z"/></svg>