<svg id="Camada_1" data-name="Camada 1" xmlns="http://www.w3.org/2000/svg" viewBox="0 0 200 80"><path d="M57.09,26C51,27.62,47,32.61,46.47,39.09a13.8,13.8,0,0,0,7.58,13.76C56.2,54,57.19,54.2,60.83,54.2c3.39,0,4.64-.2,6.29-1.05,5.08-2.69,7.67-6.58,8.07-12.17.6-8.33-5-14.66-13.26-15.16A19.62,19.62,0,0,0,57.09,26Zm7.08,4.59c4.94,1.85,7.53,8.63,5.19,13.66-3.59,7.73-13.46,7.73-17,0-2.3-4.88,0-11.37,4.78-13.51A11.06,11.06,0,0,1,64.17,30.61Z"/><path d="M85.51,26.22c-2.89,1.15-3.83,2-4.78,4-2.64,5.84.4,10.07,8.62,12.12,4.14,1,5.89,2.24,5.89,4.19,0,4.24-7.43,4.68-12.72.79-.94-.69-1.09-.64-2.44,1s-1.35,1.8-.45,2.5c3.44,2.79,10,4.28,14,3.24a8.19,8.19,0,0,0,6.09-10c-.85-3.24-3.25-4.83-10-6.73-3.89-1.09-5-2-5-4,0-3.39,4.58-4.33,9.42-1.94a9,9,0,0,0,2.74,1.15c0-.1.6-.9,1.25-1.8l1.1-1.6-1.9-1.24C94.14,25.72,88.71,25,85.51,26.22Z"/><path d="M125.06,26.22a14.45,14.45,0,0,0-9.93,10.07c-1.29,4.74.65,11.52,4.14,14.47A14.82,14.82,0,0,0,141.81,47c1.4-2.5,1.55-3.15,1.55-7,0-3.64-.2-4.58-1.35-6.78A14.81,14.81,0,0,0,125.06,26.22Zm9.27,5.39a9.78,9.78,0,0,1,3.09,3.84c3.59,7.23-1.29,15.11-9,14.46-3.59-.3-5.89-1.9-7.53-5.29-2.55-5.13-.85-11.12,3.89-13.51A10,10,0,0,1,134.33,31.61Z"/><path d="M0,40V54H5V45H8.88a30.28,30.28,0,0,0,5.63-.5c8.23-2.29,10.07-12.66,3-16.85-2.24-1.3-2.69-1.35-9.92-1.5L0,26Zm14.21-8.67c3,1.25,3.64,4.74,1.3,7.33-1.4,1.59-1.6,1.64-6,1.79L5,40.63V30.56H8.73A16.53,16.53,0,0,1,14.21,31.31Z"/><path d="M25.43,40V54H44.88V49.51H30.42V26.07h-5Z"/><path d="M148.59,40V54h5l.1-9.83.15-9.77,7.48,9.67c7.48,9.68,7.53,9.68,9.62,9.83l2.09.15v-28h-5l-.1,9.48L167.79,45l-7.23-9.42-7.23-9.43L151,26.07h-2.39Z"/><path d="M179,40V54H200V49.51H184V42h14V37.54H184V30.61l7.88-.15,7.83-.15.15-2.14.15-2.1H179Z"/></svg>