<svg width="32" height="32" xml:space="preserve" xmlns="http://www.w3.org/2000/svg">
  <g style="fill:#000">
    <g style="fill:#000" fill="#FFF">
      <path d="M89.522 30.18a3.4 3.4 0 0 0 4.25-2.232 3.4 3.4 0 0 0-6.494-2.014 3.4 3.4 0 0 0 2.244 4.246zM97.462 47.086a1.702 1.702 0 0 0-1.117-2.127 1.698 1.698 0 0 0-1.008 3.244 1.702 1.702 0 0 0 2.125-1.117zM79.192 23.318a1.702 1.702 0 0 0 2.127-1.117 1.702 1.702 0 0 0-3.25-1.008 1.703 1.703 0 0 0 1.123 2.125zM55.749 52.766a1.706 1.706 0 0 0-2.131 1.127 1.691 1.691 0 0 0 1.127 2.113 1.695 1.695 0 0 0 2.121-1.109 1.701 1.701 0 0 0-1.117-2.131zM85.36 60.65a2.212 2.212 0 0 0-2.76 1.455 2.21 2.21 0 0 0 1.453 2.763 2.206 2.206 0 0 0 2.756-1.457 2.21 2.21 0 0 0-1.449-2.761zM63.122 27.336a2.719 2.719 0 0 0-1.799-3.398 2.714 2.714 0 0 0-3.396 1.789 2.72 2.72 0 0 0 5.195 1.609zM68.886 62.209a2.708 2.708 0 0 0-3.396 1.792 2.715 2.715 0 0 0 1.787 3.397 2.716 2.716 0 0 0 3.387-1.795 2.707 2.707 0 0 0-1.778-3.394zM52.644 35.959a2.04 2.04 0 0 0-2.553 1.348 2.041 2.041 0 0 0 1.346 2.545 2.04 2.04 0 0 0 2.549-1.338 2.041 2.041 0 0 0-1.342-2.555z" style="fill:#000" transform="matrix(.67315 0 0 .67315 -33.658 -13.456)"/>
    </g>
    <g style="fill:#000" fill="#FFF">
      <path d="M87.567 35.076a16.193 16.193 0 0 0-9.756-7.105c-.021-.006-.043-.02-.066-.029l-.004.014a16.605 16.605 0 0 0-3.99-.494c-3.062 0-6.055.867-8.654 2.504-7.602 4.789-9.896 14.871-5.107 22.479 2.996 4.768 8.16 7.611 13.813 7.611 3.064 0 6.057-.865 8.658-2.502 7.602-4.788 9.893-14.876 5.106-22.478zM81.3 55.713c-1.953 1.227-4.166 1.922-6.453 2.092 1.943-1.639 3.566-3.988 4.945-7.148h.002c.449-.189.898-.389 1.334-.598a23.3 23.3 0 0 0 1.287-.678c.42-.236.832-.479 1.221-.742.361-.229.693-.471 1.016-.709.08.281.154.57.213.84.068.348.119.686.152 1.014.031.318.043.627.033.932a5.654 5.654 0 0 1-.068.82 4.48 4.48 0 0 1-.164.713c-.311.981-1.983 2.497-3.518 3.464zm-19.393-4.322c.178.096.346.199.537.285.352.162.705.299 1.098.428.367.117.758.236 1.146.326.26.062.527.104.795.154.24 1.207.584 2.324 1.07 3.293a14.04 14.04 0 0 1-4.646-4.486zm5.44-18.854c.289.014.596.035.916.088.318.045.652.115.988.189.279.068.568.162.859.254-.877 1.209-1.693 2.617-2.455 4.26-1.301 2.873-2.121 6.002-2.441 9.305a22.132 22.132 0 0 0 .037 4.457c-.078-.021-.158-.029-.234-.051a15.577 15.577 0 0 1-1.035-.289 9.003 9.003 0 0 1-.949-.375 6.602 6.602 0 0 1-.828-.439 5.475 5.475 0 0 1-1.207-.965c-.471-.481-.846-1.492-.889-1.707h-.004c-1.236-4.842.102-10.02 3.807-13.588.833-.801 2.075-1.211 3.435-1.139zm18.381 3.697c.441.699.814 1.441 1.135 2.207.156.379.281.762.396 1.152.109.383.24.758.324 1.146a2.772 2.772 0 0 1-.082 1.508 6.743 6.743 0 0 1-.279.711 7.391 7.391 0 0 1-.945 1.492c-.201.26-.426.51-.646.752-.104.107-.225.213-.336.32-.08-.188-.15-.379-.238-.562a17.637 17.637 0 0 0-.609-1.193 26.816 26.816 0 0 0-.695-1.182c-.246-.396-.51-.789-.781-1.172-.209-.295-.432-.584-.656-.875.248-3.455-.08-6.332-.928-8.65a14.009 14.009 0 0 1 4.34 4.346zM73.159 56.389c-.996.766-2.051 1.148-2.85 1.021-.902-.152-1.799-.922-2.404-2.064-.42-.803-.711-1.67-.918-2.551.074.008.143.02.215.025a21.934 21.934 0 0 0 2.703.053c.467-.014.934-.043 1.393-.09.477-.035.953-.098 1.436-.164.477-.066.951-.156 1.434-.248.477-.092.953-.199 1.43-.316.43-.107.857-.229 1.283-.357-1.095 2.042-2.323 3.593-3.722 4.691zm-6.494-9.618c.303-3.141 1.084-6.115 2.316-8.836.789-1.707 1.633-3.143 2.545-4.336.338.15.688.305 1.047.49.395.199.785.416 1.172.648.389.223.775.475 1.146.719.383.26.766.531 1.127.803.373.287.736.576 1.094.883.354.301.709.609 1.049.928.346.326.68.66 1.002.988.322.334.639.676.941 1.025.016.016.033.039.049.055-.006.084-.002.158-.006.242-.291 3.16-1 6.143-2.109 8.855-.096.232-.195.453-.295.68-.377.137-.754.264-1.135.375-.449.137-.898.27-1.352.379-.455.109-.914.215-1.363.303-.455.088-.91.168-1.361.236-.449.062-.896.119-1.357.154-.441.043-.877.072-1.324.086-.434.018-.857.021-1.283.012-.424-.01-.838-.027-1.248-.064-.205-.014-.4-.047-.601-.068-.212-1.639-.177-3.252-.054-4.557zm15.391-4.158c.164.238.332.479.484.723.23.371.447.742.656 1.119.203.365.393.727.563 1.105.148.316.279.629.402.941-.088.066-.166.139-.258.211-.328.24-.674.49-1.049.734-.369.24-.754.471-1.145.69-.387.217-.781.424-1.186.625a32.92 32.92 0 0 0 1.533-6.148zm-4.789-12.531c.721.209 1.385.891 1.869 1.928.709 1.604 1.064 3.652 1.082 6.09-.014-.014-.021-.025-.033-.037-.34-.346-.688-.691-1.047-1.027a24.34 24.34 0 0 0-1.1-.98c-.375-.32-.76-.627-1.158-.932a26.08 26.08 0 0 0-2.412-1.623 20.271 20.271 0 0 0-1.25-.68c-.248-.129-.49-.236-.738-.348a12.367 12.367 0 0 1 1.697-1.527v.004c1.086-.742 2.195-1.055 3.01-.889.025.011.052.011.08.021zm-3.903-.338-.002-.002a13.43 13.43 0 0 0-2.316 2.141c-.098-.037-.195-.082-.293-.111a15.577 15.577 0 0 0-1.17-.344c-.379-.09-.756-.164-1.105-.213a8.219 8.219 0 0 0-.949-.092 13.95 13.95 0 0 1 5.983-1.465c-.046.031-.099.047-.148.086zm13.073 19.895a12.044 12.044 0 0 0-.176-1.156 14.433 14.433 0 0 0-.293-1.162c-.035-.117-.082-.238-.123-.355.281-.252.553-.516.814-.779.27-.289.521-.57.736-.855.168-.207.309-.42.451-.631a14.295 14.295 0 0 1-1.396 5.252c-.008-.111-.004-.209-.013-.314z" style="fill:#000" transform="matrix(.67315 0 0 .67315 -33.658 -13.456)"/>
      <path d="M70.72 45.438c.935 0 1.695-.758 1.695-1.695 0-.936-.762-1.697-1.695-1.701a1.714 1.714 0 0 0-1.703 1.705 1.702 1.702 0 0 0 1.703 1.691z" style="fill:#000" transform="matrix(.67315 0 0 .67315 -33.658 -13.456)"/>
    </g>
  </g>
</svg>