<?xml version="1.0" encoding="utf-8"?>
<!-- Generator: Adobe Illustrator 23.0.0, SVG Export Plug-In . SVG Version: 6.00 Build 0)  -->
<svg version="1.1" id="Camada_1" xmlns="http://www.w3.org/2000/svg" xmlns:xlink="http://www.w3.org/1999/xlink" x="0px" y="0px"
	 viewBox="0 0 300 120" style="enable-background:new 0 0 300 120;" xml:space="preserve">
<style type="text/css">
	.st0{fill:#FFFFFF;}
</style>
<g>
	<path class="st0" d="M131.6,72.3H118V40.7c0-1.4-1.1-2.5-2.5-2.5h-5.4c-1.4,0-2.5,1.1-2.5,2.5v38.9c0,1.4,1.1,2.5,2.5,2.5h21.5
		c1.4,0,2.5-1.1,2.5-2.5v-4.9l0.1,0c0,0,0,0,0,0C134.1,73.3,132.9,72.3,131.6,72.3z"/>
	<path class="st0" d="M156.4,37.5L156.4,37.5c-12.5,0.1-22.5,10.2-22.5,22.6c0.3,12.5,10.6,22.4,23.1,22.1
		c12.1-0.3,21.8-10,22.1-22.1C179,47.6,168.9,37.5,156.4,37.5z M156.4,72.2L156.4,72.2c-6.8-0.2-12-5.8-11.9-12.5
		c0.2-6.4,5.4-11.6,11.8-11.8c6.7,0.1,12.1,5.5,12.1,12.2C168.5,66.8,163.1,72.2,156.4,72.2z"/>
	<path class="st0" d="M197.9,55.1c-5.3-2.1-6.1-3.8-6.1-5.3c0-1.1,1.2-2.8,3.8-2.8c1.7,0,4.4,1,7.4,3c1.4,0.8,3.2,0.3,4-1.1l2.2-3.3
		c0.4-0.7,0.6-1.4,0.4-2.2c-0.1-0.7-0.4-1.3-1-1.7c-3.7-2.6-8.1-4.1-12.6-4.2c-10,0-14.6,6.6-14.6,12.7c0,9.2,9,12.8,11.9,14
		c5.8,2.4,6.6,4.3,6.6,5.8c0,1.8-1.7,3.1-4,3.1c-2,0-4.8-1.1-8-3.3c0,0-0.1,0-0.1-0.1c-1.3-0.8-3.1-0.4-3.9,0.9l-2.2,3.5
		c-0.8,1.1-0.5,2.6,0.5,3.5c1.2,1.2,5.9,5,13.9,5c9.8,0,15-6.7,15-13l-0.1,0C211.1,61.4,204.4,57.6,197.9,55.1z"/>
	<path class="st0" d="M89.1,38.1C89,38.1,89,38.1,89.1,38.1l-0.1,0H75.2c-1.4,0-2.5,1.1-2.5,2.5v39c0,1.4,1.1,2.5,2.5,2.5h5.4
		c1.4,0,2.5-1.1,2.5-2.5V67.1h6c8,0,14.5-6.6,14.5-14.6c0,0,0,0,0,0C103.5,44.5,97,38.1,89.1,38.1z M88.6,57.1c0,0-0.1,0-0.1,0h-5.4
		l-0.1-9h5.4c2.5-0.1,4.6,1.8,4.7,4.3C93.2,55,91.2,57.1,88.6,57.1z"/>
	<rect x="227.1" y="32.6" class="st0" width="1.9" height="54.8"/>
	<path class="st0" d="M57.7,32.1c-2.5-0.8-5.1,0.6-5.9,3.1c-0.8,2.5,0.6,5.1,3.1,5.9c0,0,0,0,0,0c2.5,0.8,5.1-0.6,5.9-3.1
		C61.6,35.5,60.2,32.9,57.7,32.1z"/>
	<path class="st0" d="M64.4,61.7c-1.2-0.4-2.6,0.3-3,1.5c-0.4,1.2,0.3,2.6,1.5,3c0,0,0,0,0,0c1.2,0.4,2.5-0.3,2.9-1.5c0,0,0,0,0,0
		C66.4,63.4,65.7,62.1,64.4,61.7z"/>
	<path class="st0" d="M40.4,31.5c0,0,0.1,0,0.1,0c1.2,0.4,2.6-0.3,2.9-1.6s-0.3-2.6-1.6-2.9c-1.2-0.4-2.5,0.3-2.9,1.5
		C38.5,29.8,39.2,31.1,40.4,31.5z"/>
	<path class="st0" d="M8,72.6c0,0-0.1,0-0.1,0c-1.2-0.4-2.6,0.3-2.9,1.6c-0.4,1.2,0.3,2.6,1.6,2.9c1.2,0.4,2.5-0.3,2.9-1.5
		C9.9,74.3,9.2,73,8,72.6z"/>
	<path class="st0" d="M49.2,83.6C49.2,83.6,49.1,83.5,49.2,83.6c-1.7-0.5-3.4,0.3-3.9,2c-0.5,1.6,0.4,3.3,2,3.9s3.3-0.4,3.9-2
		c0,0,0,0,0-0.1C51.6,85.8,50.8,84.1,49.2,83.6z"/>
	<path class="st0" d="M13.4,39.7C13.4,39.7,13.4,39.7,13.4,39.7c2,0.6,4.1-0.5,4.7-2.5c0,0,0,0,0,0c0.6-2-0.5-4.1-2.5-4.8
		c-2-0.6-4.1,0.5-4.8,2.5S11.4,39,13.4,39.7z"/>
	<path class="st0" d="M26.2,85.7L26.2,85.7c-2-0.7-4.1,0.4-4.8,2.4c-0.7,2,0.4,4.1,2.4,4.8c0.1,0,0.1,0,0.2,0.1
		c2,0.5,4.1-0.7,4.6-2.7C29,88.3,28,86.4,26.2,85.7z"/>
	<path class="st0" d="M5.4,52.7c0.4-1.5-0.4-3-1.8-3.5h0c-1.5-0.4-3.1,0.6-3.4,2.1c-0.3,1.4,0.4,2.8,1.8,3.4C3.4,55,5,54.2,5.4,52.7
		z"/>
	<path class="st0" d="M38.6,38C38.5,38,38.5,38,38.6,38c-1.9-0.5-3.8-0.7-5.6-0.8c-4.3,0-8.4,1.2-12,3.5
		c-10.6,6.7-13.8,20.7-7.1,31.3C18,78.7,25.2,82.7,33,82.7c4.3,0,8.4-1.2,12-3.5c10.6-6.7,13.8-20.7,7.1-31.2
		C49.1,43,44.2,39.4,38.6,38z M33.6,42.1c1.2-0.9,2.7-1.4,4.2-1.3c0,0,0,0.1,0.1,0.1c1.2,0.5,2.2,1.5,2.6,2.7
		c1.1,2.7,1.6,5.6,1.5,8.5L37.8,41l4,11.2c-0.4-0.5-0.9-1-1.4-1.5c-0.5-0.5-1-0.9-1.5-1.4c-0.5-0.4-1-0.8-1.6-1.3l-1.7-1.2
		c-0.5-0.4-1.2-0.8-1.7-1.1s-1.1-0.7-1.8-1c-0.3-0.2-0.7-0.3-1-0.5C31.9,43.4,32.7,42.7,33.6,42.1z M32.6,40.5c-0.1,0-0.1,0-0.2,0
		c-1.2,0.9-2.3,1.9-3.3,3l-0.4-0.1c-0.5-0.2-1.1-0.3-1.7-0.5c-0.5-0.1-1-0.2-1.5-0.3c-0.4-0.1-0.9-0.1-1.3-0.2
		C26.9,41.2,29.7,40.5,32.6,40.5z M15.2,67.3c-0.6-0.7-1-1.5-1.3-2.4c-1.8-6.8,0.3-14,5.3-18.9c1.3-1.2,3-1.8,4.8-1.6l0,0
		c0.4,0,0.9,0.1,1.3,0.2c0.5,0.1,0.9,0.1,1.3,0.3c0.4,0.1,0.8,0.3,1.2,0.3c-1.3,1.9-2.5,3.9-3.4,6c-1.8,4.1-2.9,8.4-3.4,12.9
		c-0.2,2.1-0.2,4.1,0,6.2c-0.1,0-0.2,0-0.3,0c-0.5-0.1-1-0.2-1.5-0.4c-0.5-0.2-0.9-0.3-1.3-0.5s-0.8-0.4-1.2-0.6
		c-0.3-0.2-0.6-0.4-0.9-0.7C15.6,67.8,15.4,67.5,15.2,67.3z M16.5,70.6c0.3,0.2,0.5,0.3,0.8,0.4l1.5,0.6c0.5,0.2,1.1,0.3,1.6,0.5
		c0.4,0.1,0.7,0.2,1.1,0.2c0.3,1.6,0.8,3.1,1.5,4.6C20.3,75.3,18.1,73.2,16.5,70.6z M23.1,64.2c0.4-4.2,1.5-8.4,3.3-12.3
		c1-2.1,2.2-4.2,3.6-6c0.5,0.2,1,0.4,1.5,0.7l1.6,0.9c0.6,0.3,1.1,0.6,1.6,1c0.5,0.3,1,0.8,1.5,1.1c0.5,0.4,1,0.8,1.5,1.3
		c0.5,0.4,1,0.8,1.5,1.3c0.5,0.4,1,0.9,1.4,1.4c0.5,0.5,0.9,0.9,1.3,1.5L31,60.3c0-0.1,0-0.2,0-0.3c0-1.3-1.1-2.3-2.4-2.3
		c-1.3,0-2.3,1.1-2.3,2.4c0,0,0,0,0,0c0,0.8,0.4,1.6,1.1,2L23.1,64.2l4.4-2.2c0.4,0.2,0.8,0.4,1.2,0.4v0c1.2,0,2.2-0.9,2.3-2.1
		l10.8-5.3v0.4c-0.4,4.2-1.4,8.4-3,12.3c-0.2,0.3-0.3,0.7-0.4,1c-0.5,0.2-1.1,0.4-1.6,0.5c-0.6,0.2-1.3,0.3-1.9,0.5
		c-0.6,0.2-1.3,0.3-1.9,0.4c-0.7,0.1-1.3,0.3-1.9,0.3c-0.7,0.1-1.3,0.2-1.9,0.2c-0.6,0-1.2,0.1-1.8,0.1s-1.2,0-1.8,0
		c-0.6,0-1.2,0-1.8-0.1c-0.3,0-0.6,0-0.9-0.1C22.9,68.4,22.9,66.3,23.1,64.2z M32.1,77.6L32.1,77.6c-1.1,1-2.5,1.5-3.9,1.4
		c-1.5-0.4-2.7-1.5-3.4-2.8c-0.6-1.1-1-2.3-1.3-3.6c0.1,0,0.2,0.1,0.3,0.1c0.6,0,1.2,0.1,1.9,0.1h0.6c0.4,0,0.8,0,1.3,0
		c0.7,0,1.3-0.1,2-0.2c0.7,0,1.3-0.1,2-0.3c0.7-0.1,1.3-0.2,2-0.3l2-0.5c0.6-0.1,1.2-0.3,1.8-0.5C36.1,73.6,34.3,75.8,32.1,77.6z
		 M48.6,70.7c-0.1,0.3-0.1,0.7-0.3,1c-0.4,1.5-2.8,3.6-4.8,5c-2.7,1.7-5.8,2.7-9,2.9c3-2.8,5.4-6.2,6.9-10c0.7-0.3,1.3-0.6,1.9-0.9
		c0.6-0.3,1.2-0.6,1.8-1c0.6-0.3,1.2-0.6,1.7-1c0.5-0.3,1-0.6,1.4-1c0.1,0.4,0.2,0.8,0.3,1.2c0.1,0.3,0.1,1,0.2,1.4
		c0,0.4,0.1,0.9,0.1,1.3C48.7,69.9,48.6,70.3,48.6,70.7z M42.4,66.9c1-2.8,1.7-5.6,2.1-8.5l0.7,1c0.3,0.5,0.7,1,0.9,1.5
		c0.3,0.5,0.6,1,0.8,1.5c0.2,0.5,0.4,0.9,0.5,1.3c-0.1,0.1-0.2,0.2-0.3,0.3c-0.5,0.4-0.9,0.7-1.5,1c-0.5,0.4-1,0.7-1.6,1
		C43.5,66.4,43,66.7,42.4,66.9z M50.7,68.6c0-0.1-0.1-0.3-0.1-0.4c0-0.5-0.1-1-0.3-1.6c-0.1-0.6-0.3-1-0.4-1.6
		c0-0.1-0.1-0.3-0.2-0.5c0.4-0.3,0.8-0.7,1.2-1.1c0.4-0.4,0.7-0.8,1-1.2c0.2-0.3,0.4-0.6,0.6-0.9C52.5,63.8,51.8,66.3,50.7,68.6z
		 M52.1,57.9c-0.1,0.3-0.3,0.7-0.4,1c-0.2,0.3-0.3,0.7-0.6,1c-0.2,0.4-0.5,0.7-0.8,1l-0.9,1L49,62.4c-0.1-0.3-0.2-0.5-0.3-0.8
		c-0.3-0.5-0.6-1.1-0.9-1.7c-0.3-0.5-0.6-1.1-1-1.6c-0.3-0.5-0.7-1.1-1.1-1.7l-0.9-1.2c0.4-4,0-8.1-1.3-12c2.4,1.6,4.5,3.7,6,6.1
		l0,0c0.6,1,1.1,2,1.6,3c0.2,0.5,0.4,1.1,0.5,1.6c0.1,0.6,0.3,1,0.5,1.6C52.3,56.5,52.3,57.2,52.1,57.9z"/>
	<path class="st0" d="M253,50.9L253,50.9C252.9,50.9,252.9,50.9,253,50.9c-5.1,0-9.2,4.1-9.1,9.2c0,5.1,4.1,9.2,9.2,9.1
		s9.2-4.1,9.1-9.2C262.1,55,258,50.9,253,50.9z M253,65.9c-3.2,0-5.8-2.6-5.8-5.8c0,0,0,0,0-0.1c0-3.2,2.7-5.9,5.9-5.8
		c3.2,0,5.9,2.7,5.9,5.9C258.8,63.3,256.2,66,253,65.9z"/>
	<path class="st0" d="M281.9,51.2h-2.4c-0.3,0-0.5,0.2-0.5,0.5v10.5h0l-10.6-11.3h-0.6c-0.3,0-0.5,0.2-0.5,0.5h0v17.2
		c0,0.3,0.2,0.5,0.5,0.5h2.3c0.3,0,0.5-0.2,0.5-0.5v-11h0l10.8,11.8h0.6c0.3,0,0.5-0.2,0.5-0.5V51.7
		C282.4,51.4,282.2,51.2,281.9,51.2z"/>
	<path class="st0" d="M299.5,66h-7.5v-4.5h6.3c0.3,0,0.5-0.2,0.5-0.5v-2.1c0-0.3-0.2-0.5-0.5-0.5h-6.3v-4.2h7.5
		c0.3,0,0.5-0.2,0.5-0.5v-2.1c0-0.3-0.2-0.5-0.5-0.5H289c-0.3,0-0.5,0.2-0.5,0.5v17c0,0.3,0.2,0.5,0.5,0.5h10.5
		c0.3,0,0.5-0.2,0.5-0.5v-2.1C300,66.2,299.7,66,299.5,66z"/>
</g>
</svg>
