<?xml version="1.0" encoding="UTF-8" standalone="no"?>
<svg id="a" viewBox="0 0 32 32" version="1.1" sodipodi:docname="pocket.svg" width="32" height="32" inkscape:version="1.4-beta2 (9aaf4f34, 2024-07-30)" xmlns:inkscape="http://www.inkscape.org/namespaces/inkscape" xmlns:sodipodi="http://sodipodi.sourceforge.net/DTD/sodipodi-0.dtd" xmlns="http://www.w3.org/2000/svg" xmlns:svg="http://www.w3.org/2000/svg">
  <defs id="defs6" />
  <sodipodi:namedview id="namedview6" pagecolor="#ffffff" bordercolor="#000000" borderopacity="0.25" inkscape:showpageshadow="2" inkscape:pageopacity="0.0" inkscape:pagecheckerboard="0" inkscape:deskcolor="#d1d1d1" inkscape:zoom="3.4258101" inkscape:cx="4.0866246" inkscape:cy="4.2325755" inkscape:window-width="1440" inkscape:window-height="790" inkscape:window-x="0" inkscape:window-y="0" inkscape:window-maximized="1" inkscape:current-layer="a" />
  <g id="g6" transform="matrix(0.92071702,0,0,0.92071702,6.2171351e-8,-22.628683)">
    <path d="M 34.66,28.53 C 34.17,27.22 33.02,26.39 31.7,26.39 H 3.12 c -1.31,0 -2.46,0.82 -2.96,2.05 C 0.07,28.77 0,29.18 0,29.5 v 10.6 l 0.09,2.14 c 0.49,4.76 2.96,8.95 6.81,11.75 0.09,0.09 0.16,0.09 0.16,0.16 v 0 c 2.05,1.48 4.35,2.46 6.81,3.04 1.06,0.25 2.3,0.33 3.54,0.33 1.06,0 2.14,-0.09 3.2,-0.25 0.09,0 0.25,-0.09 0.33,-0.09 h 0.09 c 2.39,-0.58 4.6,-1.48 6.57,-2.96 v 0 c 0.09,-0.09 0.16,-0.09 0.16,-0.16 C 31.54,51.18 34,47 34.57,42.31 l 0.09,-2.14 v -10.6 c 0.16,-0.33 0.09,-0.74 0,-1.06 z m -7.31,10.93 -8.21,7.8 c -0.49,0.49 -1.06,0.66 -1.64,0.66 -0.58,0 -1.24,-0.16 -1.64,-0.66 l -8.21,-7.8 c -0.9,-0.9 -0.99,-2.39 -0.09,-3.36 0.9,-0.9 2.39,-0.99 3.36,-0.09 l 6.57,6.24 6.57,-6.24 c 0.9,-0.9 2.46,-0.9 3.36,0.09 0.82,0.9 0.82,2.46 -0.09,3.36 z" style="stroke-width:0px" id="path6" />
  </g>
</svg>
