<?xml version="1.0" encoding="UTF-8"?><svg id="a" xmlns="http://www.w3.org/2000/svg" viewBox="0 0 230 80"><path d="m63.9,26.06c-4.85,0-9.36,2.21-12.4,6v-6h-3.7v45.34h3.7v-19.3c3.12,3.78,7.64,6,12.4,6,8.87,0,16.01-7.15,16.01-16.01s-7.15-16.01-16.01-16.01h0Zm0,28.42c-6.74,0-12.4-5.66-12.4-12.4s5.5-12.4,12.4-12.4,12.16,5.59,12.16,12.4c.09,6.74-5.34,12.4-12.16,12.4Z" style="stroke-width:0px;"/><path d="m98.82,26.06c-8.87,0-16.01,7.15-16.01,16.01s7.15,16.01,16.01,16.01,16.01-7.15,16.01-16.01-7.23-16.01-16.01-16.01Zm0,28.42c-6.74,0-12.4-5.66-12.4-12.4s5.5-12.4,12.4-12.4,12.16,5.59,12.16,12.4-5.42,12.4-12.16,12.4Z" style="stroke-width:0px;"/><path d="m144.82,48.74c-.58,0-.99.25-1.31.66-2.21,3.2-5.91,5.18-9.86,5.18-6.33,0-11.75-5.09-12.4-11.41,0-.99.09-2.39.09-2.39h0c.82-6.33,6.08-11.01,12.32-11.01,4.6,0,7.06,2.14,9.69,4.69.49.49.9.58,1.31.58.66,0,1.31-.49,1.64-.99.25-.49.25-.99,0-1.4-2.88-4.03-7.48-6.33-12.49-6.33-8.87,0-16.01,7.15-16.01,16.01s7.15,16.01,16.01,16.01c5.34,0,10.02-2.46,13.06-6.81.25-.33.25-.82.09-1.31-.41-.99-1.31-1.48-2.14-1.48h0Z" style="stroke-width:0px;"/><polygon points="161.24 40.94 174.63 27.71 172.42 25.41 155.24 42.41 155.24 12.6 151.63 12.6 151.63 57.85 155.17 57.85 155.17 47.01 158.94 43.4 174.06 58.59 176.61 56.21 161.24 40.94" style="stroke-width:0px;"/><path d="m191.72,26.06c-8.87,0-16.01,7.15-16.01,16.01s7.15,16.01,16.01,16.01c5.34,0,10.02-2.46,13.06-6.81.25-.33.25-.82.09-1.31-.33-.66-1.24-1.24-2.05-1.24-.58,0-.99.25-1.31.66-2.21,3.2-5.91,5.18-9.86,5.18-6.16,0-11.41-4.69-12.32-10.84l26.86.09c.58,0,1.48-.58,1.48-1.64.09-8.95-7.06-16.1-15.94-16.1h0Zm-12.24,13.96c1.06-6,6.24-10.51,12.24-10.51s11.17,4.44,12.08,10.51h-24.31Z" style="stroke-width:0px;"/><path d="m229.83,51.69c-.33-.58-1.24-.9-1.97-.82-.49.09-.9.33-1.06.74-.16.25-.33.58-.58.9-2.05,2.63-3.78,3.04-4.85,3.04-2.96,0-4.76-3.36-4.76-8.87v-17.16h8.63v-3.54h-8.63v-8.21h-3.86v8.3h-4.85v3.54h4.93v18.89c0,7.8,4.27,10.6,8.3,10.6,3.29,0,5.34-1.4,6.81-3.2.74-.82,1.4-1.81,1.97-2.88.16-.58.09-.9-.09-1.31h0Z" style="stroke-width:0px;"/><path d="m34.66,28.53c-.49-1.31-1.64-2.14-2.96-2.14H3.12c-1.31,0-2.46.82-2.96,2.05-.09.33-.16.74-.16,1.06v10.6l.09,2.14c.49,4.76,2.96,8.95,6.81,11.75.09.09.16.09.16.16h0c2.05,1.48,4.35,2.46,6.81,3.04,1.06.25,2.3.33,3.54.33,1.06,0,2.14-.09,3.2-.25.09,0,.25-.09.33-.09h.09c2.39-.58,4.6-1.48,6.57-2.96h0c.09-.09.16-.09.16-.16,3.78-2.88,6.24-7.06,6.81-11.75l.09-2.14v-10.6c.16-.33.09-.74,0-1.06v.02Zm-7.31,10.93l-8.21,7.8c-.49.49-1.06.66-1.64.66s-1.24-.16-1.64-.66l-8.21-7.8c-.9-.9-.99-2.39-.09-3.36.9-.9,2.39-.99,3.36-.09l6.57,6.24,6.57-6.24c.9-.9,2.46-.9,3.36.09.82.9.82,2.46-.09,3.36Z" style="stroke-width:0px;"/></svg>