<?xml version="1.0" encoding="UTF-8"?><svg id="a" xmlns="http://www.w3.org/2000/svg" viewBox="0 0 240 80"><defs><style>.b{stroke-width:0px;}</style></defs><path class="b" d="m66.68,23.37c-5.06,0-9.77,2.31-12.94,6.26v-6.26h-3.86v47.31h3.86v-20.14c3.26,3.94,7.97,6.26,12.94,6.26,9.26,0,16.71-7.46,16.71-16.71s-7.46-16.71-16.71-16.71Zm0,29.66c-7.03,0-12.94-5.91-12.94-12.94s5.74-12.94,12.94-12.94,12.69,5.83,12.69,12.94c.09,7.03-5.57,12.94-12.69,12.94Z"/><path class="b" d="m103.11,23.37c-9.26,0-16.71,7.46-16.71,16.71s7.46,16.71,16.71,16.71,16.71-7.46,16.71-16.71-7.54-16.71-16.71-16.71Zm0,29.66c-7.03,0-12.94-5.91-12.94-12.94s5.74-12.94,12.94-12.94,12.69,5.83,12.69,12.94-5.66,12.94-12.69,12.94Z"/><path class="b" d="m151.11,47.03c-.6,0-1.03.26-1.37.69-2.31,3.34-6.17,5.4-10.29,5.4-6.6,0-12.26-5.31-12.94-11.91,0-1.03.09-2.49.09-2.49h0c.86-6.6,6.34-11.49,12.86-11.49,4.8,0,7.37,2.23,10.11,4.89.51.51.94.6,1.37.6.69,0,1.37-.51,1.71-1.03.26-.51.26-1.03,0-1.46-3-4.2-7.8-6.6-13.03-6.6-9.26,0-16.71,7.46-16.71,16.71s7.46,16.71,16.71,16.71c5.57,0,10.46-2.57,13.63-7.11.26-.34.26-.86.09-1.37-.43-1.03-1.37-1.54-2.23-1.54Z"/><polygon class="b" points="168.25 38.89 182.22 25.09 179.91 22.69 161.99 40.43 161.99 9.32 158.22 9.32 158.22 56.54 161.91 56.54 161.91 45.23 165.85 41.46 181.62 57.31 184.28 54.83 168.25 38.89"/><path class="b" d="m200.05,23.37c-9.26,0-16.71,7.46-16.71,16.71s7.46,16.71,16.71,16.71c5.57,0,10.46-2.57,13.63-7.11.26-.34.26-.86.09-1.37-.34-.69-1.29-1.29-2.14-1.29-.6,0-1.03.26-1.37.69-2.31,3.34-6.17,5.4-10.29,5.4-6.43,0-11.91-4.89-12.86-11.31l28.03.09c.6,0,1.54-.6,1.54-1.71.09-9.34-7.37-16.8-16.63-16.8Zm-12.77,14.57c1.11-6.26,6.51-10.97,12.77-10.97s11.66,4.63,12.6,10.97h-25.37Z"/><path class="b" d="m239.82,50.11c-.34-.6-1.29-.94-2.06-.86-.51.09-.94.34-1.11.77-.17.26-.34.6-.6.94-2.14,2.74-3.94,3.17-5.06,3.17-3.09,0-4.97-3.51-4.97-9.26v-17.91h9v-3.69h-9v-8.57h-4.03v8.66h-5.06v3.69h5.14v19.71c0,8.14,4.46,11.06,8.66,11.06,3.43,0,5.57-1.46,7.11-3.34.77-.86,1.46-1.89,2.06-3,.17-.6.09-.94-.09-1.37Z"/><path class="b" d="m36.17,25.94c-.51-1.37-1.71-2.23-3.09-2.23H3.26c-1.37,0-2.57.86-3.09,2.14-.09.34-.17.77-.17,1.11v11.06l.09,2.23c.51,4.97,3.09,9.34,7.11,12.26.09.09.17.09.17.17h0c2.14,1.54,4.54,2.57,7.11,3.17,1.11.26,2.4.34,3.69.34,1.11,0,2.23-.09,3.34-.26.09,0,.26-.09.34-.09h.09c2.49-.6,4.8-1.54,6.86-3.09h0c.09-.09.17-.09.17-.17,3.94-3,6.51-7.37,7.11-12.26l.09-2.23v-11.06c.17-.34.09-.77,0-1.11Zm-7.63,11.4l-8.57,8.14c-.51.51-1.11.69-1.71.69s-1.29-.17-1.71-.69l-8.57-8.14c-.94-.94-1.03-2.49-.09-3.51.94-.94,2.49-1.03,3.51-.09l6.86,6.51,6.86-6.51c.94-.94,2.57-.94,3.51.09.86.94.86,2.57-.09,3.51Z"/></svg>