<?xml version="1.0" encoding="UTF-8"?><svg id="a" xmlns="http://www.w3.org/2000/svg" viewBox="0 0 237.96 80"><defs><style>.b{stroke-width:0px;}</style></defs><path class="b" d="m35.32,46.52v-15.67c0-10.3,7.54-15.32,16.64-15.32s16.82,4.26,16.82,15.14v15.61c0,10.75-7.91,15.3-16.76,15.3s-16.7-4.12-16.7-15.05Zm23.14,0v-16.1c.05-.87-.09-1.73-.4-2.54-.31-.81-.79-1.54-1.41-2.14-.62-.6-1.35-1.07-2.16-1.36-.81-.29-1.67-.4-2.53-.33-4.08,0-6.3,2.43-6.3,6.63v15.86c-.09.88.02,1.76.31,2.59.29.83.76,1.58,1.38,2.21.61.62,1.36,1.1,2.18,1.4.82.3,1.69.41,2.56.33.86.06,1.73-.07,2.54-.38.81-.31,1.54-.8,2.15-1.42.61-.62,1.07-1.37,1.36-2.2.29-.82.4-1.7.33-2.57m14.03-30.97h16.4c8.48,0,15.2,4.09,15.2,13.29v16.86c0,9.79-6.72,14.06-15.12,14.06h-16.48s0-44.21,0-44.21Zm15.44,35.97c.8.04,1.59-.08,2.34-.38.75-.29,1.43-.74,1.99-1.32.57-.58,1.01-1.28,1.29-2.04.29-.76.41-1.58.37-2.4v-15.51c.06-.84-.05-1.68-.34-2.47s-.74-1.5-1.33-2.08-1.3-1.03-2.07-1.3c-.77-.27-1.6-.37-2.42-.28h-5.21v27.78s5.39,0,5.39,0Zm77.87-9.85c5.25-2.04,7.74-6.64,7.74-12.59,0-8.01-4.86-13.53-14.73-13.53h-17.53v44.21h10.29V23.46h5.95c3.93,0,5.8,2.47,5.8,6.13,0,4.09-2.06,6.25-6.01,6.25h-4.26l10.45,23.75h11.24l-8.93-17.95Z"/><path class="b" d="m141.3,76.2v-.79h2.47v.54c0,.29.07.58.2.85s.31.5.54.69c.23.19.5.34.78.42.29.09.59.11.89.07,1.78,0,2.29-.95,2.29-2.71.03-.35-.02-.69-.14-1.02-.12-.33-.31-.62-.56-.87-.25-.25-.55-.44-.88-.57-.33-.13-.69-.19-1.04-.17h-1.48v-2.11h1.33c.35.04.71,0,1.04-.13.33-.12.63-.31.88-.56.24-.25.43-.55.53-.88.1-.33.13-.68.08-1.02.04-.3.02-.62-.08-.91-.09-.3-.25-.57-.47-.79-.22-.23-.48-.41-.77-.53-.29-.12-.61-.17-.92-.16-1.27,0-2.15.57-2.15,1.9v.61h-2.43v-.64c0-2.45,1.87-3.99,4.82-3.99.59-.06,1.19,0,1.76.19s1.08.49,1.51.89.77.88.99,1.42c.22.54.31,1.11.28,1.69.09.82-.11,1.64-.56,2.33-.46.7-1.14,1.23-1.93,1.5h0c.86.23,1.61.73,2.13,1.42.52.69.79,1.53.76,2.4.02.63-.09,1.25-.33,1.84-.24.59-.6,1.12-1.06,1.55-.46.44-1.01.79-1.62,1.01-.61.23-1.25.33-1.9.3-3.26,0-4.98-1.56-4.98-3.84m12.17-.43v-7.95c0-2.85,2.14-4.36,4.75-4.36s4.38,1.49,4.38,3.68v.89h-2.48v-.72c0-1.16-.82-1.81-2.05-1.81-.28-.03-.56,0-.82.1-.26.1-.5.25-.7.45-.2.2-.35.45-.45.72-.1.27-.14.56-.11.85v3.9c.33-.58.81-1.06,1.39-1.39.58-.33,1.23-.48,1.88-.46.45.01.89.11,1.3.3.41.19.78.46,1.09.8s.55.74.71,1.17c.16.44.24.9.23,1.37v2.58c0,2.56-2.06,4.14-4.68,4.14-.57.04-1.13-.04-1.67-.23-.54-.2-1.03-.5-1.44-.9-.42-.4-.75-.88-.98-1.42s-.35-1.12-.36-1.71h0Zm6.84.2v-2.43c.02-.27-.01-.55-.11-.81-.09-.26-.24-.49-.43-.68-.19-.19-.42-.34-.67-.42-.25-.09-.52-.12-.78-.08-.32.01-.63.09-.92.23-.29.14-.55.33-.77.58-.22.24-.38.53-.49.84-.11.31-.16.64-.14.97v1.62c0,.29.05.58.15.85.11.27.27.51.47.72.2.2.44.36.71.46.26.1.55.15.83.13.27.03.54,0,.8-.09.26-.09.5-.23.7-.42.2-.19.37-.42.48-.68.11-.26.17-.54.17-.82m4.57-.2v-7.94c0-2.96,2.62-4.33,5.32-4.33s5.32,1.35,5.32,4.31v7.97c0,2.93-2.63,4.31-5.28,4.31s-5.37-1.35-5.37-4.28v-.03Zm7.86.03v-8.13c0-.3-.07-.59-.2-.86-.13-.27-.32-.52-.55-.71-.24-.2-.52-.35-.81-.44-.3-.09-.62-.13-.94-.1-.32-.03-.65,0-.96.1-.31.09-.59.25-.84.46-.24.2-.43.45-.57.73s-.2.58-.2.89v7.88c-.03.32.02.64.14.93.12.3.32.56.56.78.25.22.55.38.87.48.32.09.67.12,1,.08.33.04.66,0,.98-.09.31-.1.6-.26.84-.47.24-.21.42-.47.54-.77.12-.29.16-.6.13-.91"/><path class="b" d="m109.68,15.53h27.83v8.32h-17.81v9.3h14.13v8.3h-14.13v9.93h17.87v8.36h-27.88V15.53Zm-92.05.08H0v44.13h10.3V23.52h5.44c3.69,0,5.62,2.65,5.62,6.3,0,4.08-2.18,6.69-6.06,6.69h-3.3l3.38,7.73h1.98c9.93,0,14.24-6.69,14.24-14.85,0-7.73-4.43-13.87-13.87-13.87"/><path class="b" d="m237.96,38.57v-1.77h-10.1l9.84-1.96c-.17-1.21-.41-2.42-.72-3.6l-9.38,1.79,8.88-3.65c-.41-1.18-.89-2.33-1.44-3.45l-8.34,3.42,7.5-4.96c-.67-1.16-1.43-2.26-2.27-3.3l-7.03,4.66,5.97-5.95c-.89-1-1.86-1.93-2.89-2.79l-5.57,5.52,4.33-6.51c-1.11-.86-2.28-1.63-3.51-2.32l-3.97,6.09,2.81-6.71c-1.26-.63-2.56-1.16-3.9-1.6l-2.6,6.19,1.33-6.58c-1.42-.4-2.87-.69-4.33-.86l-1.21,6.02v-6.18c-.73,0-1.44-.09-2.22-.09l-2.22.09v16.86c.73-.14,1.48-.22,2.22-.21h.12c.82-.01,1.64.06,2.45.21.77.17,1.52.41,2.24.71,1.47.64,2.8,1.57,3.9,2.73.55.59,1.03,1.24,1.44,1.93.41.66.75,1.36,1.02,2.09.29.76.5,1.54.62,2.35.09.59.13,1.18.13,1.77v.89c-.07.92-.24,1.83-.52,2.72-.28.84-.65,1.65-1.1,2.42-.48.8-1.05,1.54-1.7,2.2-.62.64-1.32,1.2-2.06,1.69-.78.51-1.61.92-2.48,1.23-.84.31-1.72.51-2.61.61-.96.11-1.93.11-2.89,0v16.82h2.89v-15.85l3.55,15.44c.97-.16,1.94-.37,2.89-.63l-3.54-14.96,6.71,13.83c.96-.39,1.89-.84,2.8-1.33l-6.49-13.4,9.34,11.63c.85-.6,1.66-1.24,2.44-1.93l-9.03-11.23,11.33,8.95c.74-.82,1.44-1.68,2.08-2.57l-10.94-8.58,12.61,6.02c.54-.96,1.02-1.95,1.44-2.97l-12.17-5.81,13.18,2.99c.33-1.13.6-2.28.79-3.45l-12.69-2.86h12.99v-1.76m-37.5,27.15c.84.27,1.7.5,2.57.69l4.33-16.19c-.88-.13-1.74-.36-2.57-.69l-4.33,16.19Z"/><path class="b" d="m202.03,48.1l-8.46,14.51c.75.48,1.52.93,2.31,1.33l8.46-14.51c-.82-.36-1.59-.8-2.31-1.33m-2.18-2.06l-11.95,11.84,1.72,1.72,12.01-11.84c-.63-.51-1.21-1.09-1.73-1.72m-1.68-2.63l-14.65,8.38c.37.72.78,1.41,1.23,2.09l14.65-8.34c-.48-.66-.89-1.36-1.23-2.1m-.93-2.87l-16.32,4.29.56,2.13,16.34-4.29c-.26-.69-.45-1.39-.58-2.12m-.11-2v-1.12h-16.86v2.2h16.97v-1.09m.81-4.61l-16.06-5.18-.62,1.89,16.08,5.18c.15-.65.35-1.28.61-1.89m1.97-3.15l-13.67-9.84-1.17,1.6,13.67,9.84c.34-.57.74-1.1,1.17-1.6m2.77-2.33l-9.89-13.54-1.44,1.03,9.93,13.54c.46-.38.94-.72,1.44-1.03m3.41-1.43l-5.23-15.93-1.69.54,5.22,15.93c.55-.23,1.11-.41,1.69-.54"/></svg>