<?xml version="1.0" encoding="UTF-8"?><svg id="a" xmlns="http://www.w3.org/2000/svg" viewBox="0 0 203.94 80"><path d="m30.27,48.32v-13.43c0-8.83,6.46-13.13,14.26-13.13s14.42,3.65,14.42,12.98v13.38c0,9.21-6.78,13.11-14.36,13.11s-14.31-3.53-14.31-12.9h0Zm19.83,0v-13.8c.04-.75-.08-1.48-.34-2.18s-.68-1.32-1.21-1.83c-.53-.51-1.16-.92-1.85-1.17s-1.43-.34-2.17-.28c-3.5,0-5.4,2.08-5.4,5.68v13.59c-.08.75.02,1.51.27,2.22s.65,1.35,1.18,1.89c.52.53,1.17.94,1.87,1.2.7.26,1.45.35,2.19.28.74.05,1.48-.06,2.18-.33s1.32-.69,1.84-1.22.92-1.17,1.17-1.89c.25-.7.34-1.46.28-2.2m12.02-26.54h14.06c7.27,0,13.03,3.51,13.03,11.39v14.45c0,8.39-5.76,12.05-12.96,12.05h-14.12s0-37.89,0-37.89Zm13.23,30.83c.69.03,1.36-.07,2.01-.33.64-.25,1.23-.63,1.71-1.13.49-.5.87-1.1,1.11-1.75.25-.65.35-1.35.32-2.06v-13.29c.05-.72-.04-1.44-.29-2.12s-.63-1.29-1.14-1.78-1.11-.88-1.77-1.11c-.66-.23-1.37-.32-2.07-.24h-4.47v23.81h4.62,0Zm66.74-8.44c4.5-1.75,6.63-5.69,6.63-10.79,0-6.86-4.17-11.6-12.62-11.6h-15.02v37.89h8.82v-31.09h5.1c3.37,0,4.97,2.12,4.97,5.25,0,3.51-1.77,5.36-5.15,5.36h-3.65l8.96,20.35h9.63l-7.65-15.38h0Z" style="stroke-width:0px;"/><path d="m121.1,73.75v-.68h2.12v.46c0,.25.06.5.17.73s.27.43.46.59.43.29.67.36c.25.08.51.09.76.06,1.53,0,1.96-.81,1.96-2.32.03-.3-.02-.59-.12-.87-.1-.28-.27-.53-.48-.75s-.47-.38-.75-.49-.59-.16-.89-.15h-1.27v-1.81h1.14c.3.03.61,0,.89-.11.28-.1.54-.27.75-.48.21-.21.37-.47.45-.75.09-.28.11-.58.07-.87.03-.26.02-.53-.07-.78-.08-.26-.21-.49-.4-.68-.19-.2-.41-.35-.66-.45-.25-.1-.52-.15-.79-.14-1.09,0-1.84.49-1.84,1.63v.52h-2.08v-.55c0-2.1,1.6-3.42,4.13-3.42.51-.05,1.02,0,1.51.16s.93.42,1.29.76.66.75.85,1.22.27.95.24,1.45c.08.7-.09,1.41-.48,2-.39.6-.98,1.05-1.65,1.29h0c.74.2,1.38.63,1.83,1.22.45.59.68,1.31.65,2.06.02.54-.08,1.07-.28,1.58s-.51.96-.91,1.33c-.39.38-.87.68-1.39.87-.52.2-1.07.28-1.63.26-2.79,0-4.27-1.34-4.27-3.29m10.43-.37v-6.81c0-2.44,1.83-3.74,4.07-3.74s3.75,1.28,3.75,3.15v.76h-2.13v-.62c0-.99-.7-1.55-1.76-1.55-.24-.03-.48,0-.7.09-.22.09-.43.21-.6.39s-.3.39-.39.62c-.09.23-.12.48-.09.73v3.34c.28-.5.69-.91,1.19-1.19s1.05-.41,1.61-.39c.39,0,.76.09,1.11.26s.67.39.93.69.47.63.61,1c.14.38.21.77.2,1.17v2.21c0,2.19-1.77,3.55-4.01,3.55-.49.03-.97-.03-1.43-.2-.46-.17-.88-.43-1.23-.77-.36-.34-.64-.75-.84-1.22s-.3-.96-.31-1.47h0Zm5.86.17v-2.08c.02-.23,0-.47-.09-.69-.08-.22-.21-.42-.37-.58-.16-.16-.36-.29-.57-.36-.21-.08-.45-.1-.67-.07-.27,0-.54.08-.79.2-.25.12-.47.28-.66.5-.19.21-.33.45-.42.72s-.14.55-.12.83v1.39c0,.25.04.5.13.73.09.23.23.44.4.62.17.17.38.31.61.39.22.09.47.13.71.11.23.03.46,0,.69-.08.22-.08.43-.2.6-.36.17-.16.32-.36.41-.58s.15-.46.15-.7m3.92-.17v-6.8c0-2.54,2.25-3.71,4.56-3.71s4.56,1.16,4.56,3.69v6.83c0,2.51-2.25,3.69-4.53,3.69s-4.6-1.16-4.6-3.67v-.03h0Zm6.74.03v-6.97c0-.26-.06-.51-.17-.74-.11-.23-.27-.45-.47-.61-.21-.17-.45-.3-.69-.38-.26-.08-.53-.11-.81-.09-.27-.03-.56,0-.82.09-.27.08-.51.21-.72.39-.21.17-.37.39-.49.63s-.17.5-.17.76v6.75c-.03.27.02.55.12.8.1.26.27.48.48.67.21.19.47.33.75.41.27.08.57.1.86.07.28.03.57,0,.84-.08.27-.09.51-.22.72-.4.21-.18.36-.4.46-.66.1-.25.14-.51.11-.78" style="stroke-width:0px;"/><path d="m94,21.76h23.85v7.13h-15.26v7.97h12.11v7.11h-12.11v8.51h15.31v7.16h-23.89V21.76h0Zm-78.89.07H0v37.82h8.83v-31.04h4.66c3.16,0,4.82,2.27,4.82,5.4,0,3.5-1.87,5.73-5.19,5.73h-2.83l2.9,6.62h1.7c8.51,0,12.2-5.73,12.2-12.73,0-6.62-3.8-11.89-11.89-11.89" style="stroke-width:0px;"/><path d="m203.94,41.5v-1.52h-8.66l8.43-1.68c-.15-1.04-.35-2.07-.62-3.09l-8.04,1.53,7.61-3.13c-.35-1.01-.76-2-1.23-2.96l-7.15,2.93,6.43-4.25c-.57-.99-1.23-1.94-1.95-2.83l-6.02,3.99,5.12-5.1c-.76-.86-1.59-1.65-2.48-2.39l-4.77,4.73,3.71-5.58c-.95-.74-1.95-1.4-3.01-1.99l-3.4,5.22,2.41-5.75c-1.08-.54-2.19-.99-3.34-1.37l-2.23,5.3,1.14-5.64c-1.22-.34-2.46-.59-3.71-.74l-1.04,5.16v-5.3c-.63,0-1.23-.08-1.9-.08l-1.9.08v14.45c.63-.12,1.27-.19,1.9-.18h.1c.7,0,1.41.05,2.1.18.66.15,1.3.35,1.92.61,1.26.55,2.4,1.35,3.34,2.34.47.51.88,1.06,1.23,1.65.35.57.64,1.17.87,1.79.25.65.43,1.32.53,2.01.08.51.11,1.01.11,1.52v.76c-.06.79-.21,1.57-.45,2.33-.24.72-.56,1.41-.94,2.07-.41.69-.9,1.32-1.46,1.89-.53.55-1.13,1.03-1.77,1.45-.67.44-1.38.79-2.13,1.05-.72.27-1.47.44-2.24.52-.82.09-1.65.09-2.48,0v14.42h2.48v-13.58l3.04,13.23c.83-.14,1.66-.32,2.48-.54l-3.03-12.82,5.75,11.85c.82-.33,1.62-.72,2.4-1.14l-5.56-11.48,8,9.97c.73-.51,1.42-1.06,2.09-1.65l-7.74-9.62,9.71,7.67c.63-.7,1.23-1.44,1.78-2.2l-9.38-7.35,10.81,5.16c.46-.82.87-1.67,1.23-2.55l-10.43-4.98,11.3,2.56c.28-.97.51-1.95.68-2.96l-10.88-2.45h11.13v-1.51m-32.14,23.27c.72.23,1.46.43,2.2.59l3.71-13.88c-.75-.11-1.49-.31-2.2-.59l-3.71,13.88Z" style="stroke-width:0px;"/><path d="m173.14,49.67l-7.25,12.44c.64.41,1.3.8,1.98,1.14l7.25-12.44c-.7-.31-1.36-.69-1.98-1.14m-1.87-1.77l-10.24,10.15,1.47,1.47,10.29-10.15c-.54-.44-1.04-.93-1.48-1.47m-1.44-2.25l-12.56,7.18c.32.62.67,1.21,1.05,1.79l12.56-7.15c-.41-.57-.76-1.17-1.05-1.8m-.8-2.46l-13.99,3.68.48,1.83,14-3.68c-.22-.59-.39-1.19-.5-1.82m-.09-1.71v-.96h-14.45v1.89h14.54v-.93m.69-3.95l-13.76-4.44-.53,1.62,13.78,4.44c.13-.56.3-1.1.52-1.62m1.69-2.7l-11.72-8.43-1,1.37,11.72,8.43c.29-.49.63-.94,1-1.37m2.37-2l-8.48-11.6-1.23.88,8.51,11.6c.39-.33.81-.62,1.23-.88m2.92-1.23l-4.48-13.65-1.45.46,4.47,13.65c.47-.2.95-.35,1.45-.46" style="stroke-width:0px;"/></svg>