<?xml version="1.0" encoding="UTF-8" standalone="no"?>
<svg id="a" viewBox="0 0 32 32" version="1.1" sodipodi:docname="poder360.svg" width="32" height="32" inkscape:version="1.4-beta2 (9aaf4f34, 2024-07-30)" xmlns:inkscape="http://www.inkscape.org/namespaces/inkscape" xmlns:sodipodi="http://sodipodi.sourceforge.net/DTD/sodipodi-0.dtd" xmlns="http://www.w3.org/2000/svg" xmlns:svg="http://www.w3.org/2000/svg">
  <defs id="defs5" />
  <sodipodi:namedview id="namedview5" pagecolor="#ffffff" bordercolor="#000000" borderopacity="0.25" inkscape:showpageshadow="2" inkscape:pageopacity="0.0" inkscape:pagecheckerboard="0" inkscape:deskcolor="#d1d1d1" inkscape:zoom="0.325" inkscape:cx="101.53846" inkscape:cy="38.461538" inkscape:window-width="1440" inkscape:window-height="790" inkscape:window-x="0" inkscape:window-y="0" inkscape:window-maximized="1" inkscape:current-layer="a" />
  <g id="g5" transform="matrix(0.64751113,0,0,0.64751113,-100.05342,-10.826386)">
    <path d="m 203.94,41.5 v -1.52 h -8.66 l 8.43,-1.68 c -0.15,-1.04 -0.35,-2.07 -0.62,-3.09 l -8.04,1.53 7.61,-3.13 c -0.35,-1.01 -0.76,-2 -1.23,-2.96 l -7.15,2.93 6.43,-4.25 c -0.57,-0.99 -1.23,-1.94 -1.95,-2.83 l -6.02,3.99 5.12,-5.1 C 197.1,24.53 196.27,23.74 195.38,23 l -4.77,4.73 3.71,-5.58 c -0.95,-0.74 -1.95,-1.4 -3.01,-1.99 l -3.4,5.22 2.41,-5.75 c -1.08,-0.54 -2.19,-0.99 -3.34,-1.37 l -2.23,5.3 1.14,-5.64 c -1.22,-0.34 -2.46,-0.59 -3.71,-0.74 l -1.04,5.16 v -5.3 c -0.63,0 -1.23,-0.08 -1.9,-0.08 l -1.9,0.08 v 14.45 c 0.63,-0.12 1.27,-0.19 1.9,-0.18 h 0.1 c 0.7,0 1.41,0.05 2.1,0.18 0.66,0.15 1.3,0.35 1.92,0.61 1.26,0.55 2.4,1.35 3.34,2.34 0.47,0.51 0.88,1.06 1.23,1.65 0.35,0.57 0.64,1.17 0.87,1.79 0.25,0.65 0.43,1.32 0.53,2.01 0.08,0.51 0.11,1.01 0.11,1.52 v 0.76 c -0.06,0.79 -0.21,1.57 -0.45,2.33 -0.24,0.72 -0.56,1.41 -0.94,2.07 -0.41,0.69 -0.9,1.32 -1.46,1.89 -0.53,0.55 -1.13,1.03 -1.77,1.45 -0.67,0.44 -1.38,0.79 -2.13,1.05 -0.72,0.27 -1.47,0.44 -2.24,0.52 -0.82,0.09 -1.65,0.09 -2.48,0 V 65.9 h 2.48 V 52.32 l 3.04,13.23 c 0.83,-0.14 1.66,-0.32 2.48,-0.54 l -3.03,-12.82 5.75,11.85 c 0.82,-0.33 1.62,-0.72 2.4,-1.14 l -5.56,-11.48 8,9.97 c 0.73,-0.51 1.42,-1.06 2.09,-1.65 l -7.74,-9.62 9.71,7.67 c 0.63,-0.7 1.23,-1.44 1.78,-2.2 l -9.38,-7.35 10.81,5.16 c 0.46,-0.82 0.87,-1.67 1.23,-2.55 l -10.43,-4.98 11.3,2.56 c 0.28,-0.97 0.51,-1.95 0.68,-2.96 L 192.7,43.02 h 11.13 v -1.51 m -32.14,23.27 c 0.72,0.23 1.46,0.43 2.2,0.59 l 3.71,-13.88 c -0.75,-0.11 -1.49,-0.31 -2.2,-0.59 z" style="stroke-width:0px" id="path4" />
    <path d="m 173.14,49.67 -7.25,12.44 c 0.64,0.41 1.3,0.8 1.98,1.14 l 7.25,-12.44 c -0.7,-0.31 -1.36,-0.69 -1.98,-1.14 m -1.87,-1.77 -10.24,10.15 1.47,1.47 10.29,-10.15 c -0.54,-0.44 -1.04,-0.93 -1.48,-1.47 m -1.44,-2.25 -12.56,7.18 c 0.32,0.62 0.67,1.21 1.05,1.79 l 12.56,-7.15 c -0.41,-0.57 -0.76,-1.17 -1.05,-1.8 m -0.8,-2.46 -13.99,3.68 0.48,1.83 14,-3.68 c -0.22,-0.59 -0.39,-1.19 -0.5,-1.82 m -0.09,-1.71 v -0.96 h -14.45 v 1.89 h 14.54 v -0.93 m 0.69,-3.95 -13.76,-4.44 -0.53,1.62 13.78,4.44 c 0.13,-0.56 0.3,-1.1 0.52,-1.62 m 1.69,-2.7 -11.72,-8.43 -1,1.37 11.72,8.43 c 0.29,-0.49 0.63,-0.94 1,-1.37 m 2.37,-2 -8.48,-11.6 -1.23,0.88 8.51,11.6 c 0.39,-0.33 0.81,-0.62 1.23,-0.88 m 2.92,-1.23 -4.48,-13.65 -1.45,0.46 4.47,13.65 c 0.47,-0.2 0.95,-0.35 1.45,-0.46" style="stroke-width:0px" id="path5" />
  </g>
</svg>
