<?xml version="1.0" encoding="utf-8"?>
<!-- Generator: Adobe Illustrator 23.0.6, SVG Export Plug-In . SVG Version: 6.00 Build 0)  -->
<svg version="1.1" id="Camada_1" xmlns="http://www.w3.org/2000/svg" xmlns:xlink="http://www.w3.org/1999/xlink" x="0px" y="0px"
	 viewBox="0 0 300 120" style="enable-background:new 0 0 300 120;" xml:space="preserve">
<title>poly</title>
<path d="M69.8,87.1H60V10.6h26.4c6.3-0.1,12.4,2.1,17.1,6.3c4.8,4.1,7.5,10.2,7.3,16.6c0.1,6.3-2.6,12.4-7.3,16.6
	c-4.6,4.3-10.8,6.6-17.1,6.3H69.8V87.1z M69.8,46.6h16.6c3.6,0.1,7.2-1.4,9.8-3.9c2.4-2.9,3.9-5.9,3.9-9.3s-1.5-6.3-3.9-9.3
	s-5.8-3.9-9.8-3.9H69.8V46.6z"/>
<path d="M116.6,40.8c4.9-5.4,11.7-7.8,19.5-7.8c7.3,0,14.3,2.8,19.5,7.8c5,5.4,7.8,12.6,7.8,20c0,7.8-2.4,14.6-7.8,20
	c-4.9,5.4-11.7,7.8-19.5,7.8c-7.3,0-14.3-2.8-19.5-7.8c-5-5.4-7.8-12.6-7.8-20C108.8,53,111.3,46.2,116.6,40.8z M123.9,74.4
	c3.1,3.4,7.6,5.4,12.2,5.4c4.7,0.2,9.2-1.8,12.2-5.4c3.4-3.4,4.9-7.8,4.9-13.7s-1.5-10.2-4.9-13.6c-3.1-3.4-7.6-5.4-12.2-5.4
	c-4.7-0.2-9.2,1.8-12.2,5.4c-3.4,3.4-4.9,7.8-4.9,13.7C118.6,66.7,120.5,71.5,123.9,74.4z"/>
<path d="M180,87.1h-9.8V10.6h9.8V87.1z"/>
<path d="M205.4,110.6h-10.2l12.2-26.3l-22-49.3h10.7l15.7,37.6h0.5l15.1-37.6h10.7L205.4,110.6z"/>
</svg>
