<?xml version="1.0" encoding="UTF-8"?><svg id="a" xmlns="http://www.w3.org/2000/svg" viewBox="0 0 399.52 80"><defs><style>.b{stroke-width:0px;}</style></defs><path class="b" d="m75.41,0H4.59C2.06,0,0,2.06,0,4.59v70.82C0,77.94,2.06,80,4.59,80h70.82c2.54,0,4.59-2.06,4.59-4.59V4.59C80,2.06,77.94,0,75.41,0Zm-24.7,38.71c-.72,2.05-1.8,3.94-3.2,5.6-1.4,1.59-3.1,2.9-5,3.85-2.02.95-4.22,1.44-6.45,1.44h-7.78v15.2h-13.07V15.1h20.5c2.23-.01,4.42.52,6.4,1.54,1.94.98,3.66,2.32,5.1,3.94,1.44,1.61,2.59,3.45,3.41,5.44.84,1.98,1.26,4.1,1.25,6.25,0,2.2-.38,4.39-1.15,6.45Zm14.11,16.69v9.4h-30.67v-9.4h30.67Z"/><path class="b" d="m34.9,27.1h-6.63v10.6h6.93c.87-.05,1.67-.48,2.2-1.18.68-.67,1.16-1.93,1.16-4.04s-.46-3.42-1.26-4.22c-.62-.68-1.48-1.1-2.4-1.16Z"/><path class="b" d="m230.37,54.06c.04-1.26-.24-2.51-.81-3.63-.59-1.06-1.44-1.95-2.46-2.6-1.29-.82-2.69-1.46-4.15-1.91-1.67-.54-3.62-1.07-5.87-1.59-1.43-.35-2.65-.68-3.67-1-.87-.23-1.71-.57-2.5-1-.58-.32-1.06-.79-1.39-1.36-.3-.6-.45-1.27-.42-1.95-.12-1.71.71-3.35,2.17-4.25,1.6-.93,3.44-1.39,5.29-1.33,1.86,0,3.7.32,5.45.94,1.77.62,3.4,1.58,4.8,2.82l2.6-3.44c-1.64-1.42-3.54-2.51-5.58-3.24-2.29-.83-4.71-1.25-7.14-1.23-1.72-.01-3.43.22-5.09.68-1.49.41-2.88,1.08-4.12,2-1.16.88-2.1,2.01-2.76,3.31-.69,1.4-1.03,2.95-1,4.51-.04,1.16.19,2.31.65,3.37.47.95,1.19,1.76,2.08,2.34,1.12.73,2.35,1.3,3.63,1.69,1.47.48,3.22.98,5.26,1.49,1.6.39,3.01.76,4.22,1.1,1.04.28,2.05.67,3,1.17.7.36,1.3.88,1.75,1.52.4.63.6,1.36.58,2.11.06,1.66-.77,3.23-2.17,4.12-1.77,1.06-3.81,1.57-5.87,1.46-2.15,0-4.28-.38-6.29-1.14-2.15-.84-4.17-1.98-6-3.4l-2.44,3.83c2.01,1.66,4.32,2.91,6.81,3.67,2.59.83,5.28,1.26,8,1.26,4.11,0,7.37-.93,9.8-2.79,2.37-1.76,3.73-4.58,3.63-7.53m33.35-9.54h-23c.11-1.53.5-3.02,1.14-4.41.6-1.3,1.44-2.48,2.47-3.47,1.02-.98,2.23-1.75,3.54-2.27,4.13-1.65,8.84-.78,12.1,2.24,1.05.99,1.9,2.17,2.53,3.47.68,1.39,1.08,2.9,1.2,4.44m5.35,3.31v-1.3c0-2.23-.4-4.44-1.2-6.52-.77-2.04-1.92-3.91-3.4-5.51-3.19-3.39-7.66-5.28-12.32-5.22-2.4-.03-4.79.44-7,1.39-2.06.89-3.92,2.18-5.48,3.8-1.54,1.61-2.75,3.51-3.57,5.58-.85,2.15-1.28,4.44-1.27,6.75,0,2.32.46,4.62,1.32,6.77.81,2.08,2.01,3.99,3.54,5.61,1.54,1.62,3.4,2.91,5.45,3.8,2.21.95,4.6,1.42,7,1.39,1.64,0,3.28-.21,4.86-.65,1.49-.4,2.92-1,4.25-1.78,1.25-.73,2.38-1.64,3.37-2.69.95-1.01,1.73-2.17,2.3-3.44l-4.93-1.36c-.35.87-.87,1.67-1.53,2.34-.67.7-1.45,1.29-2.3,1.75-.88.49-1.82.87-2.79,1.14-.98.28-1.99.42-3,.42-1.44,0-2.86-.28-4.18-.84-1.31-.56-2.51-1.35-3.54-2.34-1.06-1.02-1.92-2.23-2.53-3.57-.67-1.45-1.06-3.01-1.17-4.61h28.09c.05-.3.09-.6.1-.91m27.43,5.54c-.05.97-.49,1.89-1.23,2.53-1.04,1.34-2.42,2.38-4,3-1.79.77-3.73,1.16-5.68,1.14-1,0-1.99-.17-2.92-.52-.87-.32-1.68-.81-2.37-1.43-.67-.6-1.2-1.32-1.56-2.14-.37-.84-.56-1.74-.55-2.66,0-1.94,1.02-3.74,2.69-4.73,2.1-1.3,4.54-1.93,7-1.82,2.95,0,5.88.54,8.63,1.62v5h-.01Zm6,10.51l1.49-.2v-4.93c-1.21-.04-1.82-.73-1.82-2.08v-13.77c0-4.33-1.24-7.68-3.73-10.06-2.49-2.38-5.94-3.57-10.36-3.56-4.73.11-9.33,1.64-13.17,4.41l1.88,3.7c3.76-2.67,7.35-4,10.77-4,4.48-.48,8.51,2.76,8.99,7.24.06.55.06,1.1.01,1.65v2.72c-1.45-.56-2.95-.97-4.48-1.23-1.65-.3-3.32-.45-5-.45-1.94-.02-3.87.24-5.74.78-1.62.46-3.16,1.18-4.54,2.14-1.24.85-2.27,1.97-3,3.28-.69,1.31-1.03,2.77-1,4.25-.01,1.44.29,2.87.88,4.18.57,1.26,1.39,2.4,2.4,3.34,1.05.97,2.27,1.73,3.6,2.24,1.4.55,2.89.83,4.4.84,2.56.02,5.1-.53,7.43-1.59,2.28-1.03,4.25-2.63,5.74-4.64l.13,2.4c.12.92.54,1.78,1.2,2.43.72.69,1.69,1.05,2.69,1,.41,0,.82-.03,1.23-.07m19.17-26.86c2.27-1.41,4.89-2.17,7.56-2.2v-5.17c-.26-.05-.52-.07-.78-.07h-1.1c-2.23.2-4.35,1.04-6.1,2.43-1.95,1.51-3.53,3.46-4.61,5.68v-7.85h-5.32v33.86h5.76v-20.88c.85-2.4,2.49-4.43,4.64-5.78m16.9,14.66c-.61-1.59-.92-3.29-.91-5-.02-1.71.28-3.4.88-5,.54-1.47,1.34-2.82,2.37-4,.99-1.12,2.21-2.02,3.57-2.63,1.39-.63,2.89-.95,4.41-.94,1.82-.02,3.61.44,5.19,1.33,1.54.87,2.8,2.17,3.63,3.73l5.58-1.75c-1.24-2.49-3.16-4.57-5.55-6-2.64-1.55-5.67-2.32-8.73-2.24-2.4-.03-4.79.44-7,1.39-2.04.89-3.88,2.16-5.42,3.76-1.52,1.6-2.71,3.49-3.5,5.55-1.67,4.36-1.67,9.17,0,13.53.81,2.08,2.01,3.99,3.54,5.61,3.22,3.41,7.71,5.34,12.4,5.31,3.16,0,6.26-.82,9-2.4,1.22-.71,2.33-1.61,3.28-2.66.91-1.01,1.65-2.18,2.17-3.44l-5.58-1.69c-.29.75-.73,1.43-1.3,2-.63.64-1.34,1.2-2.11,1.65-.84.49-1.73.87-2.66,1.13-.97.28-1.98.43-3,.42-1.52,0-3.01-.34-4.38-1-1.36-.65-2.57-1.56-3.57-2.69-1.05-1.2-1.87-2.57-2.43-4.06m60.85,12v-20.15c.01-1.88-.17-3.76-.55-5.61-.29-1.59-.87-3.12-1.72-4.5-.83-1.27-1.97-2.3-3.31-3-1.57-.78-3.31-1.15-5.06-1.1-2.65-.02-5.26.7-7.53,2.08-2.3,1.4-4.19,3.39-5.45,5.77v-20.75h-5.65v47.36h5.71v-20.44c.38-1.28.96-2.48,1.72-3.57.72-1.05,1.6-1.99,2.59-2.79.95-.77,2.02-1.39,3.15-1.85,1.07-.44,2.21-.67,3.37-.68,2.1-.12,4.11.85,5.32,2.56,1.21,1.71,1.82,4.31,1.82,7.82v18.94h5.71l-.12-.09Z"/><path class="b" d="m131.7,32.37c0,1.26-.19,2.51-.58,3.7-.36,1.11-.91,2.15-1.62,3.08-.67.87-1.52,1.58-2.5,2.08-1.02.51-2.14.76-3.28.74h-13.43v-19.12h13c1.11,0,2.21.24,3.21.71,1.02.47,1.92,1.15,2.66,2,1.63,1.89,2.51,4.31,2.5,6.81m4.93,5.51c.66-1.76.99-3.63,1-5.51,0-1.83-.33-3.65-1-5.35-.68-1.74-1.66-3.34-2.89-4.74-1.23-1.4-2.73-2.55-4.41-3.37-1.75-.85-3.67-1.28-5.61-1.26h-19.2v46.06h5.84v-16.53h13.75c1.92.03,3.82-.39,5.55-1.23,1.64-.8,3.09-1.93,4.28-3.31,1.2-1.4,2.13-3.01,2.76-4.74m17.68-.84c2.27-1.41,4.89-2.18,7.56-2.21v-5.19c-.26-.04-.52-.06-.78-.06h-1.1c-2.23.2-4.35,1.04-6.1,2.43-1.95,1.51-3.53,3.46-4.61,5.68v-7.85h-5.32v33.86h5.71v-20.88c.85-2.39,2.49-4.43,4.64-5.77m39,7.46h-23c.11-1.53.5-3.02,1.14-4.41.6-1.3,1.43-2.48,2.46-3.47,1.02-.98,2.23-1.75,3.54-2.27,4.13-1.66,8.84-.78,12.1,2.24,1.05.99,1.9,2.17,2.53,3.47.68,1.39,1.08,2.9,1.2,4.44m5.35,3.31v-1.3c0-2.23-.4-4.44-1.2-6.52-.77-2.04-1.93-3.91-3.41-5.51-3.19-3.39-7.66-5.29-12.32-5.22-2.4-.03-4.79.44-7,1.39-4.15,1.79-7.41,5.17-9.05,9.38-.85,2.15-1.28,4.44-1.27,6.75,0,2.32.42,4.62,1.27,6.78.81,2.08,2.01,3.99,3.54,5.61,1.54,1.62,3.4,2.91,5.45,3.8,2.21.95,4.6,1.42,7,1.39,1.65,0,3.28-.21,4.87-.65,1.49-.4,2.92-1,4.25-1.78,1.24-.73,2.38-1.64,3.37-2.69.95-1.01,1.73-2.17,2.3-3.44l-4.93-1.36c-.35.87-.86,1.67-1.52,2.34-.67.7-1.45,1.28-2.3,1.75-.88.49-1.82.87-2.79,1.14-.98.28-1.99.42-3,.42-1.44,0-2.86-.28-4.18-.84-1.31-.56-2.51-1.35-3.54-2.34-1.06-1.02-1.92-2.23-2.53-3.57-.67-1.45-1.06-3.01-1.17-4.61h28.09c.05-.3.09-.6.1-.91"/></svg>