<?xml version="1.0" encoding="UTF-8" standalone="no"?>
<svg fill="currentColor" viewBox="0 0 32 32" version="1.1" id="svg2" sodipodi:docname="presearch.svg" width="32" height="32" inkscape:version="1.4-beta2 (9aaf4f34, 2024-07-30)" xmlns:inkscape="http://www.inkscape.org/namespaces/inkscape" xmlns:sodipodi="http://sodipodi.sourceforge.net/DTD/sodipodi-0.dtd" xmlns="http://www.w3.org/2000/svg" xmlns:svg="http://www.w3.org/2000/svg">
  <defs id="defs2" />
  <sodipodi:namedview id="namedview2" pagecolor="#ffffff" bordercolor="#000000" borderopacity="0.25" inkscape:showpageshadow="2" inkscape:pageopacity="0.0" inkscape:pagecheckerboard="0" inkscape:deskcolor="#d1d1d1" inkscape:zoom="0.026" inkscape:cx="500" inkscape:cy="480.76923" inkscape:window-width="1440" inkscape:window-height="790" inkscape:window-x="0" inkscape:window-y="0" inkscape:window-maximized="1" inkscape:current-layer="svg2" />
  <g id="g2" transform="matrix(0.04093076,0,0,0.04093076,-4.46538,-4.4693086)">
    <path d="m 538.7,627.7 c 30,-14.5 56.6,-35.1 78.1,-60.4 21.8,-25.8 38.7,-55.2 50.2,-86.9 11.9,-32.2 18,-66.4 18,-100.7 -0.1,-33.8 -6.6,-67.1 -19.1,-98.6 -12.2,-31.6 -29.8,-60.9 -52,-86.5 C 591.5,169.1 564.5,148.2 534.2,132.9 502.8,117 468,108.9 432.9,109.2 H 109.8 V 891 H 315.4 V 650.2 h 122.4 c 35,0.4 69.5,-7.4 100.9,-22.5 z M 315.4,463.6 V 296.2 h 103.5 c 14.4,0.8 28,7.2 37.9,17.7 12.7,11.8 19.1,33.9 19.1,66.1 0,32.2 -5.4,54.1 -16.2,65.5 a 47.66,47.66 0 0 1 -35.4,18.1 z" id="path1" />
    <path d="M 407.5,742.3 H 890.2 V 890.9 H 407.5 Z" id="path2" />
  </g>
</svg>
