<svg width="32" height="32" xmlns="http://www.w3.org/2000/svg">
  <path d="M6.857 0A6.865 6.865 0 0 0 0 6.857v18.286A6.865 6.865 0 0 0 6.857 32h18.286A6.865 6.865 0 0 0 32 25.143V6.857A6.865 6.865 0 0 0 25.143 0Zm7.576 5.93a.661.661 0 0 1 .247.036c.283.094.43.341.403.66a.585.585 0 0 1-.498.535.999.999 0 0 1-.35 0c-.299-.058-.519-.278-.498-.655.03-.372.277-.576.696-.576zm-6.2 1.755c.136 0 .276.016.42.047.503.115.832.444 1.046.894.11.247.183.513.204.786.037.44.027.875-.114 1.304-.1.335-.288.639-.545.875-.35.314-.77.429-1.23.382a1.758 1.758 0 0 1-.911-.361c-.037.03-.021.073-.021.11v1.492c0 .325 0 .325-.33.325-.189 0-.378-.006-.566 0-.12.005-.225-.017-.293-.127-.005-1.827-.005-3.664-.005-5.497.086-.095.195-.11.316-.105.157.005.32 0 .476 0 .142 0 .193.047.235.178.016.053.026.104.042.156 0 .006.01.011.02.017a.413.413 0 0 0 .11-.08 1.872 1.872 0 0 1 1.145-.396Zm10.252.001c.131 0 .262.014.393.04a.98.98 0 0 1 .607.408c.01.016.02.026.031.037-.005.005.001.004.006.015.131-.078.266-.162.408-.235a2.349 2.349 0 0 1 1.19-.262c.298.016.57.1.779.32.199.204.273.456.294.728.006.058.005.113.005.177v2.712c0 .236-.03.267-.266.267h-.639c-.042 0-.084 0-.126-.006a.145.145 0 0 1-.125-.12c-.01-.059-.01-.115-.01-.173V9.17A.894.894 0 0 0 21 8.88a.39.39 0 0 0-.356-.286 1.847 1.847 0 0 0-.901.172.087.087 0 0 0-.063.096v2.753c0 .052 0 .1-.01.151 0 .073-.058.125-.131.125a3.57 3.57 0 0 1-.241.006h-.554c-.193 0-.235-.047-.235-.24V9.18c0-.09-.006-.184-.027-.272a.394.394 0 0 0-.366-.314 1.84 1.84 0 0 0-.917.178c-.041.011-.067.058-.058.1v2.792c0 .193-.041.235-.235.235h-.702c-.183 0-.23-.053-.23-.23V8.035a.5.5 0 0 1 .014-.127.155.155 0 0 1 .147-.1h.654c.094 0 .152.058.184.146.026.074.041.142.067.22.053 0 .084-.036.12-.057.289-.179.592-.33.932-.392.131-.026.262-.04.393-.04zm6.649.037c.175.017.346.054.513.109.686.245.969.91.786 1.57-.073.262-.245.45-.48.586-.205.11-.425.179-.655.21a3.482 3.482 0 0 1-1.19-.016 1.22 1.22 0 0 0-.145-.021c-.026.47.262.853.707.942.324.058.66.058.985-.01.151-.032.298-.063.45-.1.15-.038.215.01.215.168 0 .13-.005.26 0 .387.005.136-.058.21-.179.257a3.18 3.18 0 0 1-.619.168c-.397.063-.8.077-1.198-.012-.696-.146-1.158-.56-1.34-1.256-.142-.544-.163-1.094.01-1.634.246-.79.786-1.244 1.613-1.339.175-.023.352-.026.527-.009zm-12.009.046c.136.006.183.048.193.179.011.178.006.36.006.539a.978.978 0 0 1-.01.215c-.02.095-.058.131-.152.142-.073.005-.142 0-.216-.006-.35-.031-.69.037-1.02.147-.074.026-.073.078-.073.135v2.514c0 .047 0 .088-.005.135a.128.128 0 0 1-.126.12.83.83 0 0 1-.115.007h-.681c-.037 0-.078 0-.115-.006a.141.141 0 0 1-.126-.131c-.006-.042-.005-.083-.005-.125V8.07c0-.24.026-.266.266-.266h.503c.137 0 .199.048.235.179.037.13.068.262.1.403a.16.16 0 0 0 .09-.063 3.57 3.57 0 0 1 .299-.268c.272-.209.611-.313.952-.287zm.88.035c.271-.006.543-.006.815 0 .12 0 .157.037.168.157.005.048.006.09.006.137v3.485c0 .058-.007.117-.012.174a.13.13 0 0 1-.125.121c-.031.005-.058.004-.09.004h-.727c-.026 0-.047.001-.073-.004a.152.152 0 0 1-.141-.137 1.01 1.01 0 0 1-.006-.126c.005-.582.006-1.178.006-1.774V7.982c.005-.126.053-.173.178-.178zm10.894.723c-.335-.02-.665.11-.822.492a1.43 1.43 0 0 0-.1.362c-.01.084-.01.083.068.094.204.03.413.047.617.047.115.011.23 0 .341-.025.183-.037.336-.116.399-.305a.611.611 0 0 0 .015-.272.397.397 0 0 0-.24-.33.843.843 0 0 0-.278-.063Zm-17.05.044a1.523 1.523 0 0 0-.667.161.16.16 0 0 0-.106.162c.005.314 0 .628 0 .942v.948a.152.152 0 0 0 .09.146c.236.126.497.183.764.168a.746.746 0 0 0 .482-.183.808.808 0 0 0 .241-.42c.095-.319.095-.654.063-.989a1.472 1.472 0 0 0-.137-.534.638.638 0 0 0-.497-.377 1.265 1.265 0 0 0-.234-.024Zm3.228 5.09a.68.68 0 0 1 .332.056c.22.085.37.286.381.523.045.51-.298.77-.753.759-.062 0-.123-.012-.184-.023-.349-.084-.528-.354-.494-.74.028-.311.27-.542.6-.57.04-.005.079-.011.118-.005zm4.697.038h.781c.168 0 .214.04.22.213v5.921c-.005.163-.05.213-.208.213-.197.005-.393 0-.595 0h-.136a.199.199 0 0 1-.196-.152.798.798 0 0 0-.063-.196c-.05.011-.072.05-.111.073-.523.388-1.097.483-1.709.292-.45-.135-.757-.45-.971-.86a2.681 2.681 0 0 1-.282-1.196c-.011-.443.029-.882.197-1.297.174-.433.444-.798.876-1 .618-.287 1.23-.224 1.814.119.04.022.07.056.12.06.028-.039.01-.077.01-.117v-1.82c0-.213.04-.253.253-.253zm8.583 1.832c.18.007.358.03.534.073.758.191 1.224.68 1.432 1.421.028.102.051.208.062.314 0 .006.005.006.005.012h-.012v.057h.006c-.005 0-.006.004-.006.004v.045c-.011.028 0 .062.022.085v-.023c0 .006.006.006.006.012v.646h.002a.043.043 0 0 0-.01.022v-.011c-.034.022-.03.05-.024.084v.08h.006c-.079.775-.568 1.667-1.747 1.807-.355.05-.714.028-1.057-.056-.646-.163-1.095-.556-1.32-1.179a3.007 3.007 0 0 1-.006-2.123c.264-.72.81-1.125 1.569-1.237.18-.028.36-.04.538-.033zm-4.66.05c.28-.012.566.023.836.107.483.163.803.477.92.982.046.202.046.415.007.617-.062.326-.27.602-.567.749-.292.157-.619.219-.945.24a4.41 4.41 0 0 1-1.124-.068c-.022-.011-.05-.01-.078-.01.01.12.034.232.062.344.101.381.36.6.741.674.382.067.776.051 1.152-.039.123-.028.241-.057.365-.09.163-.04.229.016.235.18v.404c0 .175-.039.23-.201.292a3.564 3.564 0 0 1-1.209.23 3.021 3.021 0 0 1-.842-.084c-.64-.175-1.089-.562-1.286-1.203-.19-.623-.22-1.259-.022-1.882.292-.944 1.011-1.42 1.955-1.444zm-14.045.09c.32-.005.64 0 .954 0 .135 0 .197.09.23.208.062.214.123.433.19.646.23.781.456 1.568.687 2.349-.006.005 0 .006.012.006l.1-.332.776-2.606.033-.103a.23.23 0 0 1 .226-.162h.853c.213 0 .259.062.186.265l-.337.893-1.129 2.937c-.011.034-.029.068-.04.102a.273.273 0 0 1-.281.184 17.272 17.272 0 0 0-.741 0c-.175.005-.275-.072-.337-.23-.14-.37-.287-.746-.427-1.117-.337-.882-.679-1.764-1.016-2.651a.95.95 0 0 1-.075-.22c-.016-.113.023-.169.136-.169zm5.016.006h.808c.174 0 .225.05.225.225v3.988c-.012.112-.061.163-.174.168-.303.005-.602.005-.905 0-.112 0-.163-.055-.174-.162a.726.726 0 0 1-.006-.107v-3.887c.005-.175.052-.225.226-.225zm8.914.767a.787.787 0 0 0-.583.322c-.135.18-.186.394-.225.614-.012.05.012.072.062.077.224.034.448.051.679.056a1.43 1.43 0 0 0 .348-.028c.208-.04.393-.123.45-.348.073-.303-.022-.617-.416-.679-.028 0-.05-.012-.079-.012a1.228 1.228 0 0 0-.236-.003zm-5.017.049a.724.724 0 0 0-.589.376c-.05.09-.084.18-.111.275a2.909 2.909 0 0 0-.069 1.055c.017.197.068.388.158.567.118.23.343.389.601.417.303.045.613-.018.883-.17a.147.147 0 0 0 .089-.156v-1.022c0-.343-.005-.68.006-1.028a.154.154 0 0 0-.101-.163 1.701 1.701 0 0 0-.866-.151zm9.569.026a.732.732 0 0 0-.573.349 1.271 1.271 0 0 0-.152.372c-.078.326-.074.656-.046.988.017.191.068.382.152.556a.72.72 0 0 0 .528.421c.107.023.213.023.32.012a.73.73 0 0 0 .534-.303c.073-.102.123-.208.157-.326.067-.23.095-.473.078-.72.006-.102 0-.201-.006-.302a1.653 1.653 0 0 0-.162-.636.72.72 0 0 0-.51-.399 1.05 1.05 0 0 0-.32-.012zm.001 5.316c.301.009.597.028.889.106.082.022.16.05.236.086a.307.307 0 0 1 .188.25c.018.128.022.26.013.393-.06.78-.3 1.533-.702 2.204-.146.241-.323.46-.528.651a.38.38 0 0 1-.148.091c-.087.023-.14-.022-.145-.109a.498.498 0 0 1 .032-.136c.16-.43.314-.854.438-1.297.073-.241.123-.487.155-.738.009-.091.013-.182.004-.273a.357.357 0 0 0-.254-.334 1.762 1.762 0 0 0-.438-.082c-.42-.018-.84 0-1.254.055l-.553.069c-.059.004-.113 0-.145-.055-.032-.055-.019-.11.013-.164a.458.458 0 0 1 .137-.128 3.139 3.139 0 0 1 1.118-.483c.31-.064.625-.097.944-.106zm-17.471.234a.153.153 0 0 1 .096.008.965.965 0 0 1 .12.06 17.73 17.73 0 0 0 5.3 2.189 17.542 17.542 0 0 0 4.665.464c.497-.014.99-.058 1.482-.122a17.953 17.953 0 0 0 5.082-1.437.377.377 0 0 1 .273-.038c.15.038.243.194.206.344a.49.49 0 0 1-.174.232c-.524.411-1.09.77-1.687 1.072-1.127.57-2.331.976-3.572 1.208-.716.128-1.436.205-2.16.232a10.867 10.867 0 0 0-.548 0c-.25-.013-.502-.022-.753-.04-.666-.05-1.327-.15-1.975-.3-2.239-.52-4.204-1.565-5.92-3.084-.159-.142-.31-.287-.465-.433a.336.336 0 0 1-.086-.123.168.168 0 0 1 .116-.233z" style="stroke-width:.761905"/>
</svg>