<?xml version="1.0" encoding="UTF-8" standalone="no"?>
<svg viewBox="0 0 32 32" width="32" height="32" version="1.1" id="svg1" sodipodi:docname="icons8-amazon-prime-video (1).svg" inkscape:version="1.4-beta2 (9aaf4f34, 2024-07-30)" xmlns:inkscape="http://www.inkscape.org/namespaces/inkscape" xmlns:sodipodi="http://sodipodi.sourceforge.net/DTD/sodipodi-0.dtd" xmlns="http://www.w3.org/2000/svg" xmlns:svg="http://www.w3.org/2000/svg">
  <defs id="defs1" />
  <sodipodi:namedview id="namedview1" pagecolor="#ffffff" bordercolor="#000000" borderopacity="0.25" inkscape:showpageshadow="2" inkscape:pageopacity="0.0" inkscape:pagecheckerboard="0" inkscape:deskcolor="#d1d1d1" inkscape:zoom="2.5348967" inkscape:cx="61.540969" inkscape:cy="73.573017" inkscape:window-width="1440" inkscape:window-height="790" inkscape:window-x="0" inkscape:window-y="0" inkscape:window-maximized="1" inkscape:current-layer="svg1" />
  <path d="M 6.857143,0 C 3.0758095,0 0,3.0758095 0,6.857143 V 25.142857 C 0,28.92419 3.0758095,32 6.857143,32 H 25.142857 C 28.92419,32 32,28.92419 32,25.142857 V 6.857143 C 32,3.0758095 28.92419,0 25.142857,0 Z m 7.575892,5.9300594 c 0.08381,-0.00533 0.168548,0.00981 0.247024,0.035714 0.282667,0.094476 0.429179,0.3414766 0.403274,0.6607146 -0.02057,0.272 -0.22575,0.492321 -0.498512,0.534227 -0.115047,0.02057 -0.234654,0.02057 -0.349702,0 -0.298666,-0.05791 -0.519083,-0.27762 -0.498512,-0.654763 0.03124,-0.371809 0.277381,-0.5758929 0.696428,-0.5758926 z M 8.232143,7.684524 c 0.137,4.16e-4 0.277131,0.01619 0.421131,0.04762 0.502857,0.115047 0.832036,0.44406 1.046131,0.894345 0.109714,0.246096 0.182536,0.512953 0.203869,0.785715 0.03657,0.439619 0.02637,0.874618 -0.114584,1.303571 -0.09981,0.335238 -0.28788,0.63881 -0.544643,0.875 -0.350476,0.313905 -0.769702,0.428917 -1.230654,0.38244 -0.329905,-0.03124 -0.648619,-0.157417 -0.910714,-0.361607 -0.03657,0.03124 -0.02083,0.07355 -0.02083,0.110119 v 1.49256 c 0,0.324571 -4.52e-4,0.324404 -0.330357,0.324404 -0.18819,0 -0.377285,-0.0053 -0.565476,0 -0.120381,0.0053 -0.2245834,-0.01677 -0.2931549,-0.126487 -0.00533,-1.827048 -0.00446,-3.664643 -0.00446,-5.497024 0.085333,-0.09524 0.1950949,-0.110989 0.3154759,-0.105655 0.156952,0.0053 0.319238,0 0.47619,0 0.141715,0 0.193215,0.04752 0.23512,0.178571 0.016,0.05257 0.02567,0.103679 0.04167,0.15625 0,0.0053 0.01093,0.01104 0.02083,0.01637 0.04191,-0.02057 0.07888,-0.04763 0.110119,-0.07887 C 7.440949,7.818989 7.821152,7.683275 8.232152,7.684525 Z m 10.252976,0.0015 c 0.130857,0 0.26181,0.01389 0.392857,0.04018 0.246096,0.05257 0.466191,0.198215 0.607143,0.407738 0.01067,0.016 0.02058,0.02654 0.03125,0.0372 -0.0053,0.0053 6.19e-4,0.0042 0.006,0.01488 0.131047,-0.07848 0.266023,-0.161976 0.407737,-0.235119 0.366477,-0.188191 0.775274,-0.282476 1.188989,-0.261905 0.298666,0.016 0.570237,0.100512 0.779762,0.319941 0.198857,0.20419 0.273309,0.455678 0.294642,0.727678 0.0053,0.0579 0.0045,0.113846 0.0045,0.177084 v 2.712797 c 0,0.235429 -0.03094,0.266369 -0.26637,0.266369 h -0.638392 c -0.0419,0 -0.08458,-6.19e-4 -0.126488,-0.006 -0.06248,-0.0053 -0.114334,-0.05806 -0.125,-0.120535 -0.01067,-0.0579 -0.01042,-0.114714 -0.01042,-0.172619 V 9.169606 c 0.0053,-0.09981 -0.0053,-0.194214 -0.03125,-0.288691 -0.0419,-0.162285 -0.188036,-0.276535 -0.355655,-0.287202 -0.308571,-0.02133 -0.619119,0.04157 -0.901786,0.172619 -0.0419,0.01067 -0.06783,0.05333 -0.0625,0.09524 v 2.752977 c 0,0.05257 2.5e-4,0.09997 -0.01042,0.151785 0,0.07314 -0.05781,0.125 -0.130953,0.125 -0.07848,0.0053 -0.157261,0.006 -0.241071,0.006 h -0.553572 c -0.193524,0 -0.235118,-0.04755 -0.235118,-0.241071 V 9.180072 c 0,-0.08914 -0.0062,-0.18394 -0.02679,-0.272321 -0.03657,-0.178286 -0.187785,-0.304083 -0.36607,-0.313988 -0.313905,-0.02133 -0.633238,0.04219 -0.916667,0.178572 -0.0419,0.01067 -0.06794,0.0578 -0.05804,0.0997 v 2.791667 c 0,0.193523 -0.0416,0.235118 -0.235119,0.235119 h -0.702381 c -0.182857,0 -0.229167,-0.05313 -0.229167,-0.230655 V 8.035725 h -0.0015 c 0,-0.0419 0.0042,-0.08458 0.01488,-0.126488 0.02133,-0.06248 0.08484,-0.0997 0.147321,-0.0997 h 0.653274 c 0.09448,0 0.152524,0.05745 0.184524,0.145833 0.02591,0.07314 0.04106,0.141762 0.06696,0.220238 0.05257,0 0.08396,-0.0367 0.120537,-0.05804 0.288,-0.178286 0.590976,-0.328893 0.931547,-0.39137 0.131048,-0.02629 0.262,-0.04018 0.392857,-0.04018 z m 6.648809,0.0372 c 0.174762,0.01705 0.346155,0.05339 0.513393,0.108631 0.685714,0.245334 0.968572,0.910131 0.785714,1.569941 -0.07314,0.262095 -0.245225,0.449928 -0.480654,0.586309 -0.204191,0.109715 -0.424667,0.178584 -0.654762,0.209822 -0.392381,0.06248 -0.795845,0.05753 -1.188988,-0.01637 -0.04724,-0.01067 -0.09936,-0.01626 -0.145833,-0.02083 -0.0259,0.470856 0.261892,0.852821 0.706845,0.941964 0.324571,0.0579 0.660547,0.05815 0.985119,-0.01042 0.151619,-0.03124 0.297786,-0.06237 0.449405,-0.0997 0.151619,-0.03733 0.215774,0.0112 0.215774,0.168156 0,0.131047 -0.0053,0.26119 0,0.386904 0.0053,0.136381 -0.05819,0.210203 -0.178572,0.257441 -0.198857,0.07848 -0.409524,0.131583 -0.619047,0.168154 -0.397715,0.06248 -0.799441,0.07724 -1.197917,-0.0119 -0.696381,-0.146286 -1.157917,-0.559572 -1.340774,-1.255953 -0.141714,-0.544762 -0.162535,-1.0945 0.01042,-1.633928 0.246095,-0.790858 0.786428,-1.24481 1.613095,-1.339286 0.175238,-0.02362 0.352023,-0.02598 0.526785,-0.0089 z M 13.125,7.769346 c 0.136381,0.0053 0.182786,0.04752 0.193453,0.178571 0.01067,0.178286 0.006,0.360405 0.006,0.53869 0.0053,0.07314 2.49e-4,0.142631 -0.01042,0.215774 -0.02057,0.09448 -0.05807,0.130702 -0.151785,0.141369 -0.07314,0.0053 -0.142631,-6.19e-4 -0.215774,-0.006 -0.350477,-0.03124 -0.690929,0.03761 -1.020834,0.147322 -0.07314,0.02591 -0.07292,0.07751 -0.07292,0.135417 v 2.513392 c 0,0.04724 8.68e-4,0.08818 -0.0045,0.135418 -0.0053,0.06781 -0.05868,0.120535 -0.126488,0.120535 -0.03657,0.0053 -0.07801,0.006 -0.114583,0.006 h -0.681548 c -0.03657,0 -0.07801,-6.19e-4 -0.114583,-0.006 -0.06781,-0.0053 -0.121155,-0.06238 -0.126488,-0.130952 -0.0053,-0.0419 -0.0045,-0.0831 -0.0045,-0.125001 V 8.071382 c 0,-0.240762 0.02561,-0.266369 0.26637,-0.266369 h 0.502976 c 0.136381,0 0.198547,0.04752 0.235119,0.178571 0.03657,0.131048 0.0677,0.262321 0.0997,0.403273 0.03657,-0.01067 0.06795,-0.03126 0.08929,-0.0625 0.09448,-0.09448 0.193964,-0.184048 0.299107,-0.267857 0.272,-0.209524 0.61181,-0.313107 0.952381,-0.287202 z m 0.879464,0.03423 c 0.272,-0.0053 0.543477,-0.0053 0.815477,0 0.120381,0 0.157488,0.03736 0.168154,0.157738 0.0053,0.04724 0.006,0.08967 0.006,0.136904 v 3.485119 c 0,0.0579 -0.0066,0.116203 -0.01191,0.174108 -0.0053,0.06781 -0.05719,0.115202 -0.124999,0.120535 -0.03124,0.0053 -0.05805,0.0045 -0.08929,0.0045 h -0.727679 c -0.0259,0 -0.04701,8.7e-4 -0.07292,-0.0045 -0.07314,-0.0053 -0.136036,-0.063 -0.141369,-0.136905 -0.0053,-0.0419 -0.006,-0.08458 -0.006,-0.126487 0.0053,-0.581334 0.006,-1.177238 0.006,-1.77381 V 7.982146 c 0.0053,-0.125713 0.05286,-0.173238 0.178571,-0.17857 z M 24.89881,8.52679 c -0.335238,-0.02057 -0.664477,0.110083 -0.821429,0.49256 -0.04724,0.115047 -0.0837,0.235892 -0.0997,0.361606 -0.01067,0.08381 -0.01151,0.08308 0.06696,0.09375 0.204191,0.03124 0.413369,0.04762 0.61756,0.04762 0.115047,0.01067 0.230297,6.07e-4 0.340773,-0.0253 0.182857,-0.03657 0.336334,-0.116107 0.39881,-0.30506 0.0259,-0.08914 0.03012,-0.183178 0.01488,-0.272321 C 25.401424,8.772597 25.313461,8.647193 25.17708,8.589288 25.08794,8.552718 24.993283,8.531358 24.898807,8.526788 Z M 7.848214,8.57143 C 7.618286,8.56903 7.397547,8.62986 7.181547,8.732144 c -0.06781,0.0259 -0.110988,0.08906 -0.105654,0.162202 0.0053,0.313905 0,0.62806 0,0.941964 v 0.947917 c -0.0038,0.06248 0.03363,0.119167 0.09077,0.145833 0.235428,0.125715 0.496726,0.183393 0.763392,0.168155 0.178286,0 0.346525,-0.06799 0.482144,-0.183035 C 8.53258,10.805465 8.616698,10.657823 8.65327,10.495537 8.74775,10.176299 8.74777,9.841192 8.71577,9.505953 8.7051,9.323097 8.65734,9.139347 8.578865,8.971727 8.489725,8.767537 8.302032,8.626477 8.081841,8.595239 8.003361,8.579619 7.924853,8.572229 7.84821,8.571429 Z m 3.229167,5.089286 c 0.112,-0.01143 0.225178,0.01159 0.331845,0.05655 0.219428,0.08457 0.370286,0.286131 0.380952,0.522321 0.04495,0.511238 -0.298119,0.770358 -0.752976,0.758929 -0.06171,0 -0.122809,-0.01166 -0.184523,-0.02232 -0.348191,-0.08457 -0.527572,-0.354023 -0.494048,-0.741071 0.02819,-0.310095 0.269762,-0.541024 0.601191,-0.568452 0.03962,-0.0053 0.07794,-0.01205 0.117559,-0.006 z m 4.696429,0.03869 h 0.78125 c 0.168381,0 0.214142,0.03908 0.220238,0.212798 v 5.92113 c -0.0053,0.163048 -0.05062,0.212798 -0.208333,0.212798 -0.196572,0.0053 -0.392572,0 -0.595239,0 h -0.135417 c -0.09524,0 -0.174333,-0.06188 -0.196428,-0.151786 -0.01143,-0.06781 -0.03431,-0.134714 -0.0625,-0.196428 -0.05028,0.01143 -0.07199,0.05006 -0.111607,0.07292 -0.522667,0.387809 -1.096524,0.482904 -1.708333,0.291666 -0.449524,-0.134857 -0.757631,-0.448726 -0.971727,-0.858631 -0.185143,-0.371048 -0.28125,-0.78119 -0.28125,-1.196428 -0.01143,-0.443429 0.02805,-0.882381 0.196429,-1.297619 0.174476,-0.432762 0.443726,-0.798096 0.876488,-1 0.617904,-0.286476 1.229607,-0.22381 1.813988,0.119047 0.03962,0.0221 0.06876,0.05568 0.119048,0.06101 0.02819,-0.03962 0.01042,-0.07794 0.01042,-0.117559 v -1.819941 c 0,-0.213333 0.03964,-0.252976 0.252976,-0.252976 z m 8.583333,1.831845 c 0.179047,0.0064 0.357464,0.03063 0.534226,0.07292 0.758095,0.191238 1.223548,0.679797 1.431548,1.421131 0.02819,0.101333 0.05107,0.207321 0.0625,0.313987 0,0.0053 0.0045,0.0058 0.0045,0.01191 h -0.0119 v 0.05655 h 0.006 c -0.0053,0 -0.006,0.0045 -0.006,0.0045 v 0.04464 c -0.01143,0.02819 2.27e-4,0.06196 0.02232,0.08482 v -0.02232 c 0,0.0053 0.006,0.0058 0.006,0.0119 v 0.645833 h 0.0015 c -0.0053,0.0053 -0.01042,0.01699 -0.01042,0.02232 v -0.0119 c -0.03352,0.0221 -0.02914,0.05054 -0.02381,0.08482 v 0.07887 h 0.006 c -0.07848,0.775619 -0.567595,1.667844 -1.747024,1.808035 -0.354285,0.05029 -0.71369,0.02802 -1.056547,-0.05655 -0.646096,-0.163048 -1.095178,-0.555333 -1.31994,-1.178572 -0.258286,-0.685714 -0.264239,-1.43856 -0.006,-2.123512 0.263619,-0.719238 0.810357,-1.124607 1.568453,-1.236607 0.179809,-0.02819 0.359642,-0.03912 0.53869,-0.03274 z m -4.660715,0.04911 c 0.281143,-0.01143 0.566596,0.02333 0.83631,0.107143 0.483048,0.163048 0.803036,0.477 0.921131,0.982143 0.04495,0.201904 0.04557,0.415655 0.006,0.617559 -0.06171,0.326096 -0.26906,0.602227 -0.566965,0.748512 -0.291809,0.156953 -0.618845,0.218976 -0.94494,0.241072 -0.376381,0.02819 -0.752465,-6.44e-4 -1.123512,-0.06845 -0.0221,-0.01143 -0.05068,-0.01042 -0.07887,-0.01042 0.01067,0.120381 0.03431,0.231749 0.0625,0.34375 0.101333,0.381714 0.359357,0.600964 0.741071,0.674107 0.381714,0.06705 0.775405,0.05121 1.151786,-0.03869 0.123429,-0.02819 0.241154,-0.05725 0.364584,-0.09077 0.163046,-0.03962 0.229023,0.01701 0.235118,0.18006 v 0.404762 c 0,0.174476 -0.03861,0.229952 -0.200893,0.291667 -0.387809,0.146285 -0.798428,0.225321 -1.208333,0.230654 -0.281143,0.01143 -0.567214,-0.01701 -0.842262,-0.08482 -0.640762,-0.174476 -1.089143,-0.561619 -1.285714,-1.202381 -0.191238,-0.623238 -0.219655,-1.259202 -0.02232,-1.88244 0.29181,-0.944 1.011358,-1.420596 1.955357,-1.443453 z m -14.0446421,0.09077 c 0.32,-0.0053 0.6399641,0 0.9538691,0 0.134857,0 0.197131,0.09024 0.230654,0.208333 0.06171,0.213334 0.122667,0.4325 0.190477,0.645834 0.230095,0.780952 0.455155,1.567261 0.686012,2.348214 -0.0053,0.0053 4.76e-4,0.006 0.0119,0.006 0.03352,-0.112 0.06767,-0.219845 0.101191,-0.331845 0.258285,-0.870857 0.51625,-1.734798 0.775297,-2.605655 l 0.03274,-0.102679 c 0.02819,-0.101332 0.124858,-0.162202 0.226191,-0.162202 h 0.852679 c 0.213333,0 0.259155,0.06222 0.186012,0.264881 l -0.33631,0.892857 c -0.376381,0.977524 -0.753084,1.959977 -1.129465,2.937501 -0.01143,0.03352 -0.02875,0.06767 -0.04018,0.10119 -0.03962,0.118095 -0.15706,0.195952 -0.28125,0.184524 -0.246857,-0.0053 -0.494214,-0.0053 -0.741071,0 -0.174477,0.0053 -0.274595,-0.07221 -0.33631,-0.229167 C 6.894032,19.45787 6.747329,19.081643 6.607139,18.711358 6.270377,17.829072 5.9282939,16.947191 5.5907701,16.059572 c -0.035048,-0.06781 -0.057643,-0.147096 -0.074405,-0.220239 -0.016762,-0.111999 0.022655,-0.168154 0.1354171,-0.168154 z m 5.0163691,0.006 h 0.808035 c 0.173715,0 0.224703,0.05023 0.224703,0.224703 v 1.965774 2.022321 c -0.01143,0.112 -0.06135,0.162821 -0.174107,0.168155 -0.303239,0.0053 -0.601524,0.0053 -0.904762,0 -0.112,0 -0.162678,-0.05554 -0.174107,-0.162203 -0.0053,-0.03352 -0.006,-0.07362 -0.006,-0.107143 v -3.886904 c 0.0053,-0.174476 0.05171,-0.224703 0.226191,-0.224703 z m 8.91369,0.766369 c -0.227857,0.02082 -0.427904,0.116631 -0.583333,0.322917 -0.134857,0.179809 -0.185083,0.393667 -0.224702,0.613095 -0.01143,0.05029 0.01221,0.07205 0.0625,0.07738 0.224,0.03429 0.447715,0.05121 0.678572,0.05655 0.118095,0.0053 0.236214,-0.0054 0.348214,-0.02827 0.208,-0.03962 0.393024,-0.123453 0.449405,-0.348214 0.07314,-0.303238 -0.02127,-0.616858 -0.415179,-0.678572 -0.02819,0 -0.05068,-0.0119 -0.07887,-0.0119 -0.08152,-0.0084 -0.160656,-0.0099 -0.236608,-0.003 z m -5.016368,0.04911 c -0.246858,0.01676 -0.471191,0.15706 -0.589287,0.376489 -0.05028,0.0899 -0.08418,0.180059 -0.111606,0.275297 -0.08457,0.342857 -0.112643,0.701536 -0.06845,1.05506 0.01676,0.196571 0.06783,0.387154 0.157738,0.566964 0.118095,0.230095 0.342905,0.388476 0.601191,0.416666 0.303238,0.04495 0.612726,-0.01802 0.88244,-0.169642 0.06171,-0.02819 0.100714,-0.0892 0.08929,-0.15625 v -1.022322 c 0,-0.342857 -0.0047,-0.680083 0.006,-1.028273 0.0053,-0.07314 -0.03338,-0.139346 -0.101191,-0.162203 -0.269714,-0.123428 -0.568928,-0.179976 -0.86607,-0.151786 z m 9.568451,0.02679 c -0.23619,0.01676 -0.449488,0.146309 -0.572916,0.348214 -0.06705,0.112 -0.123596,0.242499 -0.151786,0.372023 -0.07848,0.326095 -0.07432,0.656667 -0.04613,0.988095 0.01676,0.191239 0.06798,0.382072 0.151786,0.556548 0.09524,0.219429 0.292084,0.376179 0.528274,0.421131 0.106667,0.0221 0.213274,0.02257 0.31994,0.01191 0.213334,-0.01676 0.410798,-0.129857 0.534226,-0.303571 0.07314,-0.101334 0.122726,-0.207798 0.15625,-0.325894 0.06781,-0.230095 0.09563,-0.472618 0.07887,-0.720237 0.0053,-0.101334 -6.18e-4,-0.200751 -0.006,-0.302083 -0.01067,-0.21943 -0.06696,-0.438846 -0.162202,-0.635418 -0.101334,-0.208 -0.285655,-0.354618 -0.510417,-0.398809 -0.106667,-0.0221 -0.213274,-0.02257 -0.319941,-0.0119 z m 0.0015,5.315475 c 0.300953,0.0091 0.596584,0.02794 0.888394,0.105655 0.08228,0.02286 0.159654,0.04974 0.236607,0.08631 0.105143,0.04114 0.173786,0.141047 0.1875,0.25 0.01829,0.128 0.02254,0.260285 0.01339,0.392857 -0.05943,0.780952 -0.300857,1.533392 -0.702381,2.203869 -0.146286,0.241523 -0.323322,0.460547 -0.528275,0.651786 -0.04114,0.04114 -0.09246,0.07249 -0.147321,0.09077 -0.08686,0.02286 -0.141261,-0.02177 -0.145833,-0.108631 0.0046,-0.04572 0.01445,-0.09119 0.03274,-0.136905 0.16,-0.428953 0.314071,-0.853465 0.4375,-1.296131 0.07314,-0.241524 0.122762,-0.487429 0.154762,-0.738096 0.0091,-0.09143 0.01361,-0.182381 0.0045,-0.273809 -0.0046,-0.154667 -0.10437,-0.287619 -0.254465,-0.333334 -0.141714,-0.04571 -0.286642,-0.0727 -0.4375,-0.08184 -0.41981,-0.01829 -0.839226,2.03e-4 -1.254464,0.05506 l -0.552083,0.06845 c -0.05943,0.0046 -0.113834,-2.03e-4 -0.145834,-0.05506 -0.032,-0.05486 -0.01861,-0.109596 0.01339,-0.163691 0.03657,-0.05029 0.08205,-0.09598 0.136905,-0.127976 0.337523,-0.241523 0.716035,-0.387631 1.117559,-0.483631 0.310095,-0.064 0.625702,-0.09651 0.94494,-0.105655 z M 6.663703,22.068507 c 0.0319,-0.0075 0.06511,-0.0048 0.09673,0.0089 0.04114,0.01829 0.08248,0.03667 0.119047,0.05952 1.637334,1.012572 3.425548,1.751654 5.300595,2.188988 0.629334,0.146285 1.26331,0.259976 1.901786,0.342262 0.916572,0.114285 1.841488,0.153261 2.763393,0.122023 0.496762,-0.01371 0.989952,-0.05802 1.482143,-0.122023 1.148952,-0.146286 2.2845,-0.407369 3.383929,-0.772322 0.579047,-0.191238 1.145535,-0.40994 1.697916,-0.665179 0.08229,-0.04571 0.180893,-0.06006 0.272321,-0.0372 0.150858,0.03733 0.243418,0.193655 0.206846,0.34375 -0.0046,0.01829 -0.01467,0.04124 -0.02381,0.05952 -0.03657,0.06857 -0.0863,0.127667 -0.150298,0.17262 -0.524191,0.410666 -1.090167,0.770476 -1.6875,1.071428 -1.126858,0.569905 -2.331048,0.975952 -3.571429,1.208333 -0.716191,0.128 -1.436143,0.204715 -2.160714,0.232143 -0.182095,-0.0046 -0.365524,-0.0046 -0.547619,0 C 15.496372,26.26756 15.245491,26.25938 14.994063,26.24109 14.328158,26.1908 13.66698,26.09059 13.019361,25.940495 10.780122,25.420876 8.814765,24.375638 7.099717,22.857162 6.940479,22.715448 6.789372,22.570412 6.633943,22.424126 c -0.03657,-0.032 -0.06802,-0.0778 -0.08631,-0.123512 -0.02743,-0.064 -0.01446,-0.133512 0.03125,-0.183035 0.02286,-0.02476 0.05292,-0.04158 0.08482,-0.04911 z" id="path1" style="stroke-width:0.761905" />
</svg>
