<?xml version="1.0" encoding="UTF-8"?><svg id="a" xmlns="http://www.w3.org/2000/svg" viewBox="0 0 227.51 80"><g id="b"><g id="c"><path d="m112.72,80v-.11c.12-.14.3-.22.49-.2h2.44c.18,0,.36.06.49.2v.11h-3.41Z" style="stroke-width:0px;"/><path d="m116.13,79.89h-3.41c-1.56-.08-3.12-.14-4.69-.25-4.15-.31-8.26-.94-12.31-1.88-13.73-3.18-26.43-9.79-36.9-19.22-.99-.88-1.93-1.79-2.9-2.7-.23-.21-.42-.47-.54-.76-.17-.39-.09-.83.2-1.14.28-.32.74-.42,1.13-.26.26.1.52.23.76.37,10.2,6.31,21.36,10.92,33.03,13.65,3.92.91,7.88,1.61,11.88,2.12,5.71.71,11.48.96,17.23.76,3.09-.1,6.17-.35,9.24-.76,7.17-.91,14.23-2.52,21.09-4.8,3.62-1.18,7.16-2.56,10.62-4.15.52-.29,1.13-.37,1.71-.23.94.24,1.5,1.19,1.27,2.13-.03.13-.08.25-.14.37-.23.43-.55.8-.94,1.08-3.28,2.57-6.8,4.81-10.52,6.68-7.03,3.55-14.52,6.08-22.26,7.53-4.48.8-9.01,1.28-13.55,1.45Z" style="stroke-width:0px;"/><path d="m74.02,22.25c.71-.42,1.46-.88,2.22-1.28,1.99-1.03,4.22-1.52,6.45-1.42,3.14-.08,5.75,2.41,5.82,5.55,0,.05,0,.09,0,.14v15.71c0,1.28-.17,1.45-1.45,1.45h-3.47c-.23.02-.46.02-.68,0-.35-.03-.63-.3-.68-.65-.04-.31-.06-.63-.05-.94v-13.19c.03-.53-.03-1.05-.17-1.56-.24-.88-1.01-1.51-1.93-1.57-1.68-.1-3.37.22-4.89.94-.23.06-.37.28-.34.52v14.95c.01.28-.01.55-.06.83,0,.37-.29.68-.67.68-.01,0-.03,0-.04,0h-4.32c-1.05,0-1.28-.26-1.28-1.31v-13.42c.01-.51-.04-1.02-.14-1.52-.2-.95-1.02-1.65-1.99-1.71-1.7-.09-3.4.26-4.93,1.01-.23.07-.37.3-.31.54v15.17c0,1.05-.23,1.28-1.28,1.28h-3.79c-.99,0-1.25-.29-1.25-1.25v-19.72c0-.23.03-.46.08-.68.12-.32.42-.53.76-.54h3.56c.48,0,.89.33.99.8.14.4.23.76.37,1.2.28,0,.45-.2.65-.32,1.54-1.02,3.25-1.74,5.06-2.13,1.41-.28,2.86-.28,4.26,0,1.34.29,2.53,1.09,3.3,2.22.05.07.11.14.17.2,0,0,0,.04.02.04Z" style="stroke-width:0px;"/><path d="m132.96,36.42l.52-1.68c1.3-4.41,2.62-8.79,3.92-13.2l.17-.51c.15-.5.62-.84,1.14-.83h4.32c1.08,0,1.31.31.94,1.33l-1.71,4.55c-1.9,4.95-3.79,9.93-5.72,14.87-.05.17-.14.34-.2.51-.2.6-.79.99-1.42.94-1.25-.03-2.5-.03-3.75,0-.79.07-1.51-.44-1.71-1.21-.71-1.87-1.45-3.79-2.16-5.66-1.71-4.46-3.44-8.93-5.14-13.42-.17-.35-.29-.72-.37-1.11-.08-.57.11-.86.68-.86h4.83c.68,0,.99.46,1.17,1.05.31,1.08.62,2.19.96,3.27,1.17,3.95,2.28,7.93,3.47,11.88-.03.05,0,.05.05.05Z" style="stroke-width:0px;"/><path d="m32.01,23.35c.2-.06.37-.18.49-.34.51-.52,1.06-1,1.63-1.46,1.47-1.14,3.31-1.7,5.16-1.58.76,0,.99.26,1.05.97.06.96,0,1.96,0,2.93.02.39,0,.78-.05,1.16-.03.43-.39.76-.83.76-.39.03-.78.03-1.17,0-1.88-.14-3.77.12-5.54.76-.39.14-.39.42-.39.76v13.65c.02.25.02.51,0,.76-.02.37-.32.65-.68.65-.21.02-.42.02-.63,0h-3.69c-.21.02-.41.02-.62,0-.37-.04-.66-.33-.68-.71-.02-.23-.02-.46,0-.68v-19.34c0-1.31.14-1.46,1.45-1.46h2.73c.62-.09,1.2.35,1.28.97.17.71.35,1.42.51,2.19Z" style="stroke-width:0px;"/><path d="m165,52.18c1.87,0,3.73.22,5.54.65.52.14,1.03.32,1.52.54.64.27,1.09.87,1.16,1.56.11.81.14,1.63.09,2.45-.38,4.85-1.88,9.55-4.38,13.73-.9,1.5-2.01,2.87-3.29,4.06-.26.26-.57.45-.91.57-.34.14-.72-.02-.86-.35-.04-.1-.06-.22-.05-.33.02-.29.09-.58.2-.85.99-2.68,1.96-5.31,2.73-8.08.45-1.5.77-3.04.96-4.6.06-.57.06-1.14,0-1.71-.03-.97-.69-1.81-1.62-2.08-.88-.28-1.8-.45-2.73-.51-2.61-.11-5.23,0-7.82.34l-3.44.42c-.34.09-.71-.05-.91-.34-.17-.33-.14-.73.08-1.02.23-.31.52-.57.85-.76,2.1-1.46,4.47-2.49,6.97-3.03,1.95-.4,3.92-.62,5.91-.67Z" style="stroke-width:0px;"/><path d="m153.08,31.31v10.24c.02.45-.32.83-.77.85-.04,0-.07,0-.11,0h-4.55c-.57,0-.82-.28-.88-.83-.02-.18-.02-.36,0-.54v-19.67c0-.88.26-1.14,1.14-1.14h4.1c.88,0,1.14.26,1.14,1.14v9.95h-.06Z" style="stroke-width:0px;"/><path d="m43.1,31.25v-10.09c0-.68.28-.94.96-.97h4.44c.65,0,.86.2.91.86.02.25.02.51,0,.76v18.96c0,.31,0,.62-.06.94-.03.36-.32.64-.68.65-.16.02-.32.02-.48,0h-3.92c-.13.02-.27.02-.4,0-.4-.03-.73-.35-.76-.76-.02-.23-.02-.46,0-.68,0-3.19,0-6.42,0-9.66Z" style="stroke-width:0px;"/><path d="m46.4,10.01c.45-.02.91.05,1.33.2,1.51.49,2.44,2.01,2.19,3.58-.12,1.48-1.24,2.68-2.71,2.9-.63.11-1.27.11-1.9,0-1.72-.25-2.92-1.82-2.7-3.54.17-2.02,1.51-3.14,3.78-3.14Z" style="stroke-width:0px;"/><path d="m149.93,10.01c.57-.04,1.15.05,1.68.29,1.11.42,1.87,1.46,1.93,2.65.23,2.59-1.52,3.89-3.79,3.84-.32-.01-.63-.05-.94-.11-1.76-.43-2.67-1.8-2.5-3.75.16-1.58,1.45-2.8,3.03-2.87.2-.04.39-.05.59-.03Z" style="stroke-width:0px;"/><path d="m21.8,28.92c-.12-1.47-.5-2.92-1.11-4.26-1.01-2.44-3.12-4.25-5.69-4.86-2.98-.69-6.1.01-8.5,1.9-.17.17-.37.32-.59.42-.06,0-.11-.05-.11-.08-.09-.28-.14-.57-.23-.85-.08-.62-.65-1.05-1.27-.97,0,0,0,0-.01,0H1.71c-.63-.09-1.26.12-1.71.57v29.85c.35.53.97.8,1.59.68h3.07q1.79,0,1.79-1.76v-8.11c0-.2-.09-.42.11-.59,1.43,1.11,3.14,1.79,4.94,1.96,2.43.32,4.87-.43,6.69-2.07,1.39-1.29,2.42-2.93,2.96-4.75.69-2.29.91-4.7.64-7.08Zm-6.83,5.88c-.19.87-.65,1.67-1.3,2.28-.73.63-1.65.98-2.62.99-1.44.09-2.88-.23-4.15-.91-.31-.12-.51-.43-.49-.76v-10.3c-.03-.39.2-.75.57-.88,1.5-.79,3.22-1.05,4.89-.76,1.19.17,2.21.94,2.7,2.05.44.91.69,1.9.76,2.9.24,1.8.13,3.63-.33,5.38h-.03Z" style="stroke-width:0px;"/><path d="m227.51,29.55v.11c-.12-.11-.16-.28-.11-.43v-.23h0v-.29h.06v-.05c-.06-.54-.16-1.07-.31-1.59-.83-3.6-3.65-6.39-7.25-7.2-1.78-.42-3.62-.48-5.43-.2-3.84.57-6.6,2.62-7.93,6.26-1.31,3.46-1.31,7.28,0,10.75,1.03,3.02,3.56,5.29,6.68,5.97,1.74.43,3.54.53,5.31.29,5.98-.71,8.45-5.23,8.84-9.15h0v-.4c0-.17-.06-.31.11-.42v.05s0-.1.03-.14v-3.32Zm-6.83,5.4c-.17.59-.44,1.15-.8,1.65-.63.88-1.62,1.43-2.7,1.52-.54.06-1.09.04-1.62-.06-1.19-.22-2.19-1.02-2.68-2.13-.42-.89-.67-1.84-.76-2.81-.19-1.67-.11-3.36.23-5.01.15-.66.41-1.29.76-1.87.63-1.02,1.71-1.68,2.9-1.77.54-.06,1.09-.04,1.63.07,1.13.23,2.1.97,2.59,2.02.48,1.01.76,2.1.82,3.22.03.51.03,1.01,0,1.52.09,1.24-.04,2.48-.38,3.67Z" style="stroke-width:0px;"/><path d="m177.65,10.22h-3.98c-1.08,0-1.28.2-1.28,1.27v9.24c0,.2.08.39-.05.6-.26,0-.4-.2-.6-.32-2.75-1.78-6.23-2-9.18-.59-2.08,1.05-3.67,2.86-4.44,5.06-.78,2.1-1.12,4.33-.99,6.57,0,2.11.48,4.18,1.43,6.07.96,2.08,2.74,3.65,4.91,4.35,2.95.99,6.2.42,8.65-1.52.2-.11.31-.31.57-.37.14.32.25.65.31.99.12.45.53.77.99.76h3.72c.8,0,1.02-.26,1.05-1.08V11.29c-.02-.88-.25-1.08-1.1-1.08Zm-5.2,20.92v5.17c.04.34-.14.66-.46.8-1.35.77-2.92,1.07-4.47.85-1.3-.14-2.44-.93-3.03-2.1-.43-.9-.69-1.88-.76-2.87-.21-1.78-.09-3.57.34-5.31.14-.48.33-.95.57-1.4.59-1.11,1.71-1.84,2.96-1.93,1.5-.14,3.01.12,4.38.76.35.11.57.46.52.83-.06,1.76,0,3.47,0,5.2h-.05Z" style="stroke-width:0px;"/><path d="m98.93,33.09c2.13.4,4.31.43,6.45.09,1.24-.17,2.45-.55,3.56-1.14,1.26-.67,2.2-1.82,2.61-3.19,1-3.59-.54-7.2-4.26-8.53-1.82-.61-3.76-.79-5.66-.54-4.49.51-7.42,2.99-8.75,7.28-.87,2.89-.89,5.97-.06,8.87.99,3.79,3.5,6.07,7.28,6.83,2.15.43,4.35.45,6.51.05,1.15-.19,2.27-.49,3.36-.91.62-.16,1.03-.75.96-1.39v-2.11c0-.85-.34-1.11-1.17-.91s-1.62.37-2.44.55c-1.75.35-3.55.37-5.31.05-2.41-.47-4.07-2.68-3.84-5.12.22.03.5.06.76.11Zm-.71-4.35c.1-.68.28-1.34.55-1.96.7-1.81,2.54-2.91,4.46-2.67.52.02,1.04.14,1.52.34.73.31,1.23,1,1.3,1.79.09.49.06,1-.08,1.48-.34.92-1.18,1.56-2.16,1.65-.61.15-1.23.2-1.85.14-1.12,0-2.24-.09-3.35-.26q-.43-.05-.38-.51Z" style="stroke-width:0px;"/><path d="m194.82,33.38c1.66-.06,3.29-.48,4.78-1.22,1.5-.74,2.56-2.15,2.87-3.79.22-1.03.22-2.09,0-3.12-.51-2.4-2.3-4.31-4.66-4.97-1.37-.42-2.81-.61-4.24-.55-4.77.11-8.41,2.53-9.86,7.31-.95,3.11-.91,6.44.11,9.53.9,3.06,3.39,5.38,6.51,6.07,1.4.34,2.83.48,4.27.42,2.09-.03,4.16-.43,6.11-1.17.69-.12,1.15-.77,1.03-1.46,0-.02,0-.04-.01-.05v-1.98c0-.83-.37-1.11-1.2-.91-.62.17-1.22.31-1.85.46-1.91.46-3.89.53-5.82.2-1.84-.25-3.33-1.6-3.75-3.41-.15-.57-.25-1.15-.31-1.74.13-.01.27,0,.39.06,1.86.35,3.75.47,5.63.34Zm-5.94-4.55c.13-1.11.52-2.17,1.14-3.1.96-1.27,2.56-1.89,4.13-1.62.14,0,.26.05.39.05,1.99.31,2.48,1.9,2.11,3.44-.29,1.14-1.22,1.56-2.28,1.76-.58.12-1.17.17-1.77.14-1.15-.02-2.3-.12-3.44-.29-.26,0-.37-.14-.31-.39h.02Z" style="stroke-width:0px;"/></g></g></svg>