<svg id="Layer_1" data-name="Layer 1" xmlns="http://www.w3.org/2000/svg" viewBox="0 0 300 120"><title>Amazon_Prime_Video_logo</title><g id="Layer_2" data-name="Layer 2"><g id="Ebene_1" data-name="Ebene 1"><path d="M148.63,106.15V106a.72.72,0,0,1,.64-.26c1.09,0,2.14,0,3.22,0a.84.84,0,0,1,.64.26v.15Z"/><path d="M153.13,106q-2.25,0-4.5,0c-2.06-.11-4.12-.18-6.18-.33a106.54,106.54,0,0,1-16.23-2.48A109.79,109.79,0,0,1,77.56,77.85c-1.31-1.16-2.55-2.36-3.83-3.56a2.77,2.77,0,0,1-.71-1,1.38,1.38,0,0,1,.27-1.5,1.32,1.32,0,0,1,1.49-.34,7.47,7.47,0,0,1,1,.49,145.93,145.93,0,0,0,43.56,18A157,157,0,0,0,135,92.73a143.78,143.78,0,0,0,22.72,1,121.22,121.22,0,0,0,12.18-1,146.28,146.28,0,0,0,27.81-6.33,130.55,130.55,0,0,0,14-5.47,3.09,3.09,0,0,1,2.25-.3,2.33,2.33,0,0,1,1.68,2.81,2.43,2.43,0,0,1-.18.49,4.13,4.13,0,0,1-1.24,1.42,83.43,83.43,0,0,1-13.87,8.81,110.07,110.07,0,0,1-29.35,9.93A128,128,0,0,1,153.13,106Z"/><path d="M97.61,30c.94-.56,1.92-1.16,2.93-1.69a16.74,16.74,0,0,1,8.51-1.87,7.5,7.5,0,0,1,7.68,7.5c0,.41,0,.82,0,1.27V54.65c0,1.69-.23,1.91-1.91,1.91h-4.58a6.78,6.78,0,0,1-.9,0,1,1,0,0,1-.9-.86,7.31,7.31,0,0,1-.07-1.24V37.07a6.19,6.19,0,0,0-.23-2.06,2.81,2.81,0,0,0-2.54-2.07,13.18,13.18,0,0,0-6.45,1.24.62.62,0,0,0-.45.68V54.57a5,5,0,0,1-.08,1.09.89.89,0,0,1-.93.9h0c-.57,0-1.13,0-1.73,0H92c-1.39,0-1.69-.34-1.69-1.73V37.14a8.65,8.65,0,0,0-.19-2,2.84,2.84,0,0,0-2.62-2.25A13.13,13.13,0,0,0,81,34.22a.59.59,0,0,0-.41.71v20c0,1.39-.3,1.69-1.69,1.69h-5c-1.31,0-1.65-.38-1.65-1.65v-26a4,4,0,0,1,.11-.9,1.09,1.09,0,0,1,1-.71h4.69a1.36,1.36,0,0,1,1.31,1.05c.19.53.3,1,.49,1.58.37,0,.59-.27.86-.42a19.5,19.5,0,0,1,6.67-2.81,14.37,14.37,0,0,1,5.62,0,7.06,7.06,0,0,1,4.35,2.93,2,2,0,0,0,.23.26S97.58,30,97.61,30Z"/><path d="M175.32,48.69l.68-2.21c1.72-5.81,3.45-11.59,5.17-17.4l.22-.67a1.53,1.53,0,0,1,1.5-1.09h5.7c1.43,0,1.73.41,1.24,1.76l-2.25,6c-2.51,6.53-5,13.09-7.54,19.61-.07.22-.18.45-.26.67a1.82,1.82,0,0,1-1.87,1.24q-2.47-.06-4.95,0A2.12,2.12,0,0,1,170.71,55c-.94-2.47-1.91-5-2.85-7.46-2.25-5.88-4.53-11.77-6.78-17.69a6.27,6.27,0,0,1-.49-1.46c-.11-.75.15-1.13.9-1.13,2.14,0,4.27,0,6.37,0,.9,0,1.31.6,1.54,1.39.41,1.43.82,2.89,1.27,4.31,1.54,5.21,3,10.46,4.58,15.67C175.21,48.69,175.25,48.69,175.32,48.69Z"/><path d="M42.21,31.45a1.18,1.18,0,0,0,.64-.45A24.28,24.28,0,0,1,45,29.08,10,10,0,0,1,51.81,27c1,0,1.31.34,1.38,1.28.08,1.27,0,2.58,0,3.86a7.14,7.14,0,0,1-.07,1.53,1.08,1.08,0,0,1-1.09,1,11.32,11.32,0,0,1-1.54,0,17.83,17.83,0,0,0-7.31,1c-.52.19-.52.56-.52,1v18a8,8,0,0,1,0,1,.9.9,0,0,1-.9.86,5.7,5.7,0,0,1-.83,0H36.06a5.63,5.63,0,0,1-.82,0,1,1,0,0,1-.9-.93,6.78,6.78,0,0,1,0-.9V29.2c0-1.73.19-1.92,1.91-1.92h3.6a1.5,1.5,0,0,1,1.69,1.28C41.76,29.5,42,30.43,42.21,31.45Z"/><path d="M217.57,69.46a31.55,31.55,0,0,1,7.31.86,12.66,12.66,0,0,1,2,.71,2.52,2.52,0,0,1,1.53,2.06,15.77,15.77,0,0,1,.12,3.23,41.34,41.34,0,0,1-5.78,18.1,25,25,0,0,1-4.34,5.36,3.08,3.08,0,0,1-1.2.75.87.87,0,0,1-1.2-.9,3.79,3.79,0,0,1,.26-1.12c1.31-3.53,2.59-7,3.6-10.65a37,37,0,0,0,1.27-6.07,11.28,11.28,0,0,0,0-2.25A2.94,2.94,0,0,0,219,76.8a14.5,14.5,0,0,0-3.6-.67,59.16,59.16,0,0,0-10.31.45l-4.53.56a1.12,1.12,0,0,1-1.2-.45,1.28,1.28,0,0,1,.11-1.35,3.75,3.75,0,0,1,1.12-1,25.79,25.79,0,0,1,9.19-4A43.69,43.69,0,0,1,217.57,69.46Z"/><path d="M201.86,41.94v13.5a1.07,1.07,0,0,1-1.16,1.12c-2,0-4,0-6,0-.75,0-1.08-.37-1.16-1.09a4.17,4.17,0,0,1,0-.71V28.82c0-1.16.34-1.5,1.5-1.5h5.4c1.16,0,1.5.34,1.5,1.5V41.94Z"/><path d="M56.83,41.87V28.56c0-.9.37-1.24,1.27-1.28q2.92,0,5.85,0c.86,0,1.13.27,1.2,1.13a8,8,0,0,1,0,1v25c0,.41,0,.82-.08,1.24a.93.93,0,0,1-.9.86,3.33,3.33,0,0,1-.63,0H58.37a2.37,2.37,0,0,1-.53,0,1.09,1.09,0,0,1-1-1,6.78,6.78,0,0,1,0-.9C56.83,50.41,56.83,46.14,56.83,41.87Z"/><path d="M61.18,13.86a4.77,4.77,0,0,1,1.76.27,4.26,4.26,0,0,1,2.89,4.72,4.19,4.19,0,0,1-3.57,3.82,7.06,7.06,0,0,1-2.51,0A4.19,4.19,0,0,1,56.19,18C56.42,15.33,58.18,13.86,61.18,13.86Z"/><path d="M197.7,13.86a4.58,4.58,0,0,1,2.21.38,3.94,3.94,0,0,1,2.55,3.49c.3,3.41-2,5.13-5,5.06a7.5,7.5,0,0,1-1.24-.15c-2.32-.57-3.52-2.37-3.3-4.95a4.21,4.21,0,0,1,4-3.79A3,3,0,0,1,197.7,13.86Z"/><path d="M28.75,38.79a17,17,0,0,0-1.46-5.62,10.85,10.85,0,0,0-7.5-6.41A13.26,13.26,0,0,0,8.58,29.27a2.77,2.77,0,0,1-.78.56c-.08,0-.15-.07-.15-.11-.12-.37-.19-.75-.3-1.12a1.49,1.49,0,0,0-1.69-1.28c-1.12,0-2.29,0-3.41,0A2.62,2.62,0,0,0,0,28.07C0,41.19,0,54.35,0,67.43a2.07,2.07,0,0,0,2.1.9c1.35,0,2.7,0,4.05,0,2.36,0,2.36,0,2.36-2.32V55.32c0-.26-.12-.56.15-.78a12.54,12.54,0,0,0,6.52,2.58A11,11,0,0,0,24,54.39a13.92,13.92,0,0,0,3.9-6.26A23.29,23.29,0,0,0,28.75,38.79Zm-9,7.76a5.79,5.79,0,0,1-1.72,3,5.33,5.33,0,0,1-3.45,1.31,10.19,10.19,0,0,1-5.47-1.2,1,1,0,0,1-.64-1V41.83c0-2.25,0-4.5,0-6.75a1.14,1.14,0,0,1,.75-1.16,10.11,10.11,0,0,1,6.45-1,4.6,4.6,0,0,1,3.56,2.7,10.46,10.46,0,0,1,1,3.83A18.49,18.49,0,0,1,19.79,46.55Z"/><path d="M300,39.62v.15a.56.56,0,0,1-.15-.57v-.3s0,0,0,0h0v-.38h.08s0,0,0-.07a12.19,12.19,0,0,0-.41-2.1,12.63,12.63,0,0,0-9.56-9.49,18.56,18.56,0,0,0-7.16-.26c-5.06.75-8.7,3.45-10.46,8.25a20,20,0,0,0,0,14.17,12,12,0,0,0,8.81,7.87,18.72,18.72,0,0,0,7,.38c7.88-.94,11.14-6.9,11.66-12.07h0v-.53c0-.22-.08-.41.15-.56v.07A.29.29,0,0,1,300,44V39.69S300,39.65,300,39.62Zm-9,7.12a7,7,0,0,1-1.05,2.17,4.84,4.84,0,0,1-3.56,2,7,7,0,0,1-2.14-.08,4.82,4.82,0,0,1-3.53-2.81,11,11,0,0,1-1-3.71,20.9,20.9,0,0,1,.3-6.6,8.46,8.46,0,0,1,1-2.47,4.92,4.92,0,0,1,3.83-2.33A6.93,6.93,0,0,1,287,33a4.84,4.84,0,0,1,3.42,2.66,11.12,11.12,0,0,1,1.08,4.24,17,17,0,0,1,0,2A13.77,13.77,0,0,1,291,46.74Z"/><path d="M234.25,14.13H229c-1.43,0-1.69.26-1.69,1.68V28c0,.26.11.52-.07.79-.34,0-.53-.27-.79-.42a12.46,12.46,0,0,0-12.11-.78,11.83,11.83,0,0,0-5.85,6.67,21.45,21.45,0,0,0-1.31,8.66,17.8,17.8,0,0,0,1.88,8,10.76,10.76,0,0,0,6.48,5.74,12.15,12.15,0,0,0,11.4-2c.26-.15.41-.41.75-.49a5.87,5.87,0,0,1,.41,1.31,1.33,1.33,0,0,0,1.31,1h.9c1.35,0,2.66,0,4,0,1.05,0,1.35-.34,1.39-1.43V15.55C235.67,14.39,235.37,14.13,234.25,14.13Zm-6.86,27.59v6.82a1,1,0,0,1-.6,1.05,9.26,9.26,0,0,1-5.89,1.12,5.11,5.11,0,0,1-4-2.77,10.52,10.52,0,0,1-1-3.79,19.38,19.38,0,0,1,.45-7,9.12,9.12,0,0,1,.75-1.84A4.84,4.84,0,0,1,221,32.76a11.22,11.22,0,0,1,5.77,1,1,1,0,0,1,.68,1.09c-.08,2.32,0,4.57,0,6.86Z"/><path d="M130.45,44.3a24.82,24.82,0,0,0,8.51.12,14.07,14.07,0,0,0,4.69-1.5,7,7,0,0,0,3.44-4.2c1.32-4.73-.71-9.49-5.62-11.25a16.7,16.7,0,0,0-7.46-.71c-5.92.67-9.78,3.94-11.54,9.6a20.67,20.67,0,0,0-.08,11.69c1.31,5,4.61,8,9.6,9a22.72,22.72,0,0,0,8.58.07,22.17,22.17,0,0,0,4.43-1.2,1.7,1.7,0,0,0,1.27-1.83c0-.9,0-1.84,0-2.78,0-1.12-.45-1.46-1.54-1.2s-2.13.49-3.22.72a18.78,18.78,0,0,1-7,.07,6.28,6.28,0,0,1-5.06-6.75C129.74,44.19,130.11,44.23,130.45,44.3Zm-.94-5.73a10.48,10.48,0,0,1,.72-2.59,5.57,5.57,0,0,1,5.88-3.52,5.76,5.76,0,0,1,2,.45,2.85,2.85,0,0,1,1.72,2.36,4.17,4.17,0,0,1-.11,1.95,3.34,3.34,0,0,1-2.85,2.17,7.66,7.66,0,0,1-2.44.19,28.61,28.61,0,0,1-4.42-.34C129.44,39.17,129.44,39.17,129.51,38.57Z"/><path d="M256.89,44.68a15.35,15.35,0,0,0,6.3-1.61,7,7,0,0,0,3.78-5,10,10,0,0,0,0-4.12,8.68,8.68,0,0,0-6.15-6.56,16.54,16.54,0,0,0-5.59-.72c-6.29.15-11.09,3.34-13,9.64a20.79,20.79,0,0,0,.15,12.56,11.51,11.51,0,0,0,8.58,8,20.18,20.18,0,0,0,5.63.56,23.81,23.81,0,0,0,8.06-1.54,1.67,1.67,0,0,0,1.35-2V51.28c0-1.09-.49-1.47-1.58-1.2-.82.22-1.61.41-2.44.6a18.93,18.93,0,0,1-7.68.26,5.88,5.88,0,0,1-4.95-4.5,14.44,14.44,0,0,1-.41-2.29,1.1,1.1,0,0,1,.52.08A29.49,29.49,0,0,0,256.89,44.68Zm-7.83-6a9.29,9.29,0,0,1,1.5-4.09A5.61,5.61,0,0,1,256,32.46c.19,0,.34.07.52.07,2.63.41,3.27,2.51,2.78,4.54-.38,1.5-1.61,2.06-3,2.32a9.49,9.49,0,0,1-2.33.19,35.94,35.94,0,0,1-4.53-.38c-.34,0-.49-.18-.41-.52Z"/></g></g></svg>