<?xml version="1.0" encoding="UTF-8" standalone="no"?>
<svg version="1.1" width="32pt" height="32pt" id="svg17" viewBox="0 0 32 32" xmlns="http://www.w3.org/2000/svg" xmlns:svg="http://www.w3.org/2000/svg">
  <defs id="defs21" />
  <path id="path4" style="fill:#000000;fill-rule:evenodd;stroke-width:0.11289" d="m 14.804207,0.03223945 c -4.791538,-0.0139 -9.4469284,-0.007 -10.2927344,0.0778 -0.579477,0.0583 -1.192566,0.23632 -1.674335,0.25698 v -1.7e-4 c -0.02284,0.0244 -0.06163,0.0241 -0.07425,0.0675 L 1.6517906,1.2300895 c -1.50578497,1.37683 -1.55801797,2.41689 -1.55741997,4.55304 l 8.26e-4,16.2173095 c -2.47e-4,3.98594 -0.871061,7.88214 2.65909197,9.55736 1.108502,0.52601 2.376857,0.40011 3.698089,0.40729 l 20.3351044,-1.6e-4 c 1.947204,-0.009 1.886774,-0.22976 3.325684,-0.87661 0.40005,-0.58513 0.99042,-0.6801 1.55693,-2.22418 0.49516,-1.3497 0.23069,-9.6734 0.23663,-11.47924 0.009,-2.57746 0.0252,-5.15691 0.0225,-7.7345195 -0.003,-2.38919 0.38393,-5.40746 -0.62078,-7.26917 -1.00163,-1.85605005 -2.70021,-2.31393005 -5.394254,-2.30537005 -1.390755,0.004 -6.318437,-0.0296 -11.109975,-0.0435 z m 3.39894,3.85122005 c 0.36008,-0.005 0.703828,0.0254 1.024115,0.0974 0.04675,1.83391 0.239577,2.1635 -0.545709,2.24832 -0.174438,0.0189 -0.437886,0.002 -0.629055,0.0114 -0.488487,0.023 -0.690223,0.0804 -1.080337,0.21085 -0.769787,0.2574 -1.144343,0.27796 -1.85905,0.63451 -3.3794,1.68588 -5.6986124,4.6717395 -5.7320954,8.9236695 -0.03286,4.16646 2.9686034,8.07818 5.7757514,9.00767 2.728781,0.90356 1.172755,0.47686 3.620202,0.87578 l 0.290383,0.0799 c 0.282858,0.48433 0.159145,1.50127 0.111788,2.16547 -1.728348,0.12756 -3.824507,-0.47473 -5.098742,-1.06198 -6.0067594,-2.76835 -8.7842814,-10.24851 -5.8896894,-16.18589 0.329538,-0.67595 0.655955,-1.2980195 1.106962,-1.8894795 0.352071,-0.46172 0.9558554,-1.26832 1.3460834,-1.64209 1.715432,-1.64331 5.038833,-3.43854 7.559393,-3.4755 z m 0.943085,6.4477995 c 1.849224,0.0115 2.218267,2.71803 0.577128,3.33841 -2.309167,0.87291 -3.395602,-2.5329 -1.324418,-3.21174 0.27076,-0.0888 0.520193,-0.12808 0.74729,-0.12667 z m -5.333562,0.41671 c 0.464238,0.22172 1.413104,1.14745 1.500865,1.64673 -0.211918,0.29715 -0.115051,0.098 -0.355869,0.39622 -2.513916,3.1122 -0.600352,8.46986 4.093811,8.53489 2.529698,0.035 2.782312,-0.86635 3.86792,-1.36576 0.40645,0.12941 0.896191,0.65932 1.202214,0.97152 0.601049,0.61314 0.267506,0.75488 -0.310559,1.21263 -2.724671,2.15765 -6.445815,2.00435 -9.262006,-0.01 -1.453268,-1.03925 -2.809139,-3.14898 -2.947655,-5.36713 -0.09106,-1.45829 0.02567,-2.45845 0.503374,-3.59176 0.322641,-0.76534 1.01266,-2.1696 1.707905,-2.42775 z m 9.475163,3.73613 c 1.689806,0.003 2.36138,2.61409 0.617643,3.27359 -2.184446,0.82623 -3.466104,-2.09249 -1.522859,-3.04522 0.324918,-0.1593 0.628702,-0.22878 0.905216,-0.22837 z" />
</svg>
