<?xml version="1.0" encoding="UTF-8"?><svg id="a" xmlns="http://www.w3.org/2000/svg" viewBox="0 0 341.77 80"><defs><style>.b{stroke-width:0px;}</style></defs><path class="b" d="m45.36,28.03h-11.28v11.97h11.28c3.3.11,6.15-2.39,6.27-5.7s-2.39-6.15-5.7-6.27h-.57Z"/><path class="b" d="m40,0C17.89,0,0,17.89,0,40s17.89,40,40,40,40-17.89,40-40h0C80,17.89,62.11,0,40,0Zm5.36,47.98h-11.28v12.08h-7.98V19.94h19.37c7.75-.34,14.25,5.7,14.59,13.45s-5.7,14.25-13.45,14.59h-1.25Z"/><path class="b" d="m106.67,53.33v-26.67h12.31c5.7,0,8.77,3.87,8.77,8.43s-3.19,8.43-8.77,8.43h-6.72v9.8s-5.58,0-5.58,0Zm15.38-18.23c0-1.94-1.6-3.53-3.53-3.53h-6.27v7.07h5.93c1.94.23,3.65-1.25,3.87-3.19v-.34Z"/><path class="b" d="m131.17,53.33v-19.49h5.01v2.51c1.48-1.82,3.65-2.96,6.04-3.08v4.9c-2.28-.46-4.56.34-6.04,2.05v12.99h-5.01v.11Z"/><path class="b" d="m144.05,43.42c0-5.58,4.44-10.03,10.03-10.14,5.58,0,10.03,4.44,10.14,10.03s-4.44,10.03-10.03,10.14h-.11c-5.36.23-9.8-3.87-10.03-9.23,0-.23,0-.57,0-.8Zm14.93,0c0-2.96-1.71-5.47-4.9-5.47s-4.79,2.51-4.79,5.47,1.71,5.58,4.79,5.58,4.9-2.62,4.9-5.58h0Z"/><path class="b" d="m180.97,53.33v-2.96c-1.37,1.82-3.53,2.96-5.81,2.96-4.79,0-8.43-3.65-8.43-10.03s3.53-9.91,8.43-9.91c2.28,0,4.44,1.03,5.81,2.85v-9.69h5.01v26.67h-5.01v.11Zm0-6.61v-6.72c-1.03-1.37-2.62-2.17-4.33-2.17-2.85,0-4.79,2.28-4.79,5.47s1.94,5.58,4.79,5.58c1.71,0,3.3-.8,4.33-2.17Z"/><path class="b" d="m203.76,53.33v-2.85c-1.71,1.82-4.1,2.85-6.61,2.85-4.22,0-6.15-2.28-6.15-6.04v-13.45h5.01v11.51c0,2.62,1.37,3.53,3.53,3.53,1.71,0,3.3-.8,4.33-2.17v-12.88h5.01v19.49h-5.13Z"/><path class="b" d="m212.54,43.42c-.11-5.36,3.99-9.8,9.34-9.91h.68c2.96-.11,5.7,1.14,7.52,3.42l-3.3,2.96c-.91-1.37-2.39-2.17-3.99-2.05-3.08,0-5.13,2.17-5.13,5.47s2.17,5.58,5.13,5.58c1.6,0,3.08-.8,3.99-2.05l3.3,3.08c-1.82,2.28-4.56,3.53-7.52,3.42-5.36.23-9.8-3.99-10.03-9.23v-.68Z"/><path class="b" d="m234.3,48.09v-9.91h-3.19v-4.33h3.19v-5.13h5.01v5.13h3.87v4.33h-3.87v8.66c0,1.25.68,2.17,1.71,2.17.68,0,1.25-.23,1.71-.57l1.03,3.76c-1.14.91-2.62,1.37-4.1,1.25-3.42-.11-5.36-1.94-5.36-5.36Z"/><path class="b" d="m275.21,53.33v-11.51h-12.42v11.51h-5.58v-26.67h5.58v10.26h12.42v-10.26h5.58v26.67h-5.58Z"/><path class="b" d="m298.58,53.33v-2.85c-1.71,1.82-4.1,2.85-6.72,2.85-4.1,0-6.15-2.28-6.15-6.04v-13.45h5.01v11.51c0,2.62,1.37,3.53,3.53,3.53,1.71,0,3.3-.8,4.33-2.17v-12.88h5.01v19.49h-5.01Z"/><path class="b" d="m321.37,53.33v-11.97c0-2.62-1.37-3.53-3.53-3.53-1.71,0-3.3.8-4.33,2.17v13.33h-5.01v-19.49h5.01v2.39c1.71-1.94,4.1-2.96,6.72-2.85,4.22,0,6.27,2.39,6.27,6.04v13.9h-5.13Z"/><path class="b" d="m332.42,48.09v-9.91h-3.19v-4.33h3.19v-5.13h4.9v5.13h3.87v4.33h-3.87v8.66c0,1.25.57,2.17,1.71,2.17.68,0,1.25-.23,1.71-.57l1.03,3.76c-1.25.91-2.74,1.37-4.22,1.25-3.3-.11-5.13-1.94-5.13-5.36Z"/></svg>