<?xml version="1.0" encoding="UTF-8" standalone="no"?>
<svg id="a" viewBox="0 0 32.000001 32" version="1.1" sodipodi:docname="product-hunt.svg" width="32" height="32" inkscape:version="1.4-beta2 (9aaf4f34, 2024-07-30)" xmlns:inkscape="http://www.inkscape.org/namespaces/inkscape" xmlns:sodipodi="http://sodipodi.sourceforge.net/DTD/sodipodi-0.dtd" xmlns="http://www.w3.org/2000/svg" xmlns:svg="http://www.w3.org/2000/svg">
  <sodipodi:namedview id="namedview13" pagecolor="#ffffff" bordercolor="#000000" borderopacity="0.25" inkscape:showpageshadow="2" inkscape:pageopacity="0.0" inkscape:pagecheckerboard="0" inkscape:deskcolor="#d1d1d1" inkscape:zoom="1.9297339" inkscape:cx="45.861245" inkscape:cy="35.497122" inkscape:window-width="1440" inkscape:window-height="790" inkscape:window-x="0" inkscape:window-y="0" inkscape:window-maximized="1" inkscape:current-layer="a" />
  <defs id="defs1">
    <style id="style1">.b{stroke-width:0px;}</style>
  </defs>
  <path class="b" d="M 18.144,11.212 H 13.632 V 16 h 4.512 c 1.32,0.044 2.46,-0.956 2.508,-2.28 0.048,-1.324 -0.956,-2.46 -2.28,-2.508 z" id="path1" />
  <path class="b" d="M 16,0 C 7.156,0 0,7.156 0,16 c 0,8.844 7.156,16 16,16 8.844,0 16,-7.156 16,-16 v 0 C 32,7.156 24.844,0 16,0 Z m 2.144,19.192 h -4.512 v 4.832 H 10.44 V 7.976 h 7.748 c 3.1,-0.136 5.7,2.28 5.836,5.38 0.136,3.1 -2.28,5.7 -5.38,5.836 z" id="path2" />
</svg>
