<svg width="32" height="32" xmlns="http://www.w3.org/2000/svg">
  <defs>
    <clipPath clipPathUnits="userSpaceOnUse" id="a">
      <path class="powerclip" d="M-80.625-11.77H20.326v139.166H-80.625ZM-15.02 2.759C-24.454-1.15-33.59.99-41 8c-4.324 4.789-4.455 8.724-4.453 15.065l.062 3.552c.018 3.779.04 7.556.09 11.334.034 2.627.061 5.253.081 7.88.048 7.723.118 15.446.22 23.169h1c1.29-3.19 1.29-3.19 4-6 3.713-.546 7.273-.347 11 0-.276 1.94-.276 1.94-1 4l-3 2c-.5 2.375-.5 2.375 0 5 2.596 2.825 4.174 3.897 8 4.375 6.883-.86 11.497-4.199 16-9.375C-.257 55.22 2.412 39.033-.812 22.937c-2.203-8.045-6.96-15.721-14.208-20.18Z"/>
    </clipPath>
  </defs>
  <path d="M0 0c3.539 2.597 6.115 5.151 8.625 8.75l1.727 2.422c4.042 6.935 5.112 12.843 4.96 20.828l.01 2.578C15.196 49.522 9.016 63.024-1 74c-9.142 8.076-16.757 11.61-28.938 11.285-5.352-.498-8.692-1.645-12.246-5.898L-44 77l-.028 1.721C-44.64 108.395-44.64 108.395-55 119c-3.855 3.427-7.7 3.522-12.684 3.344C-70 122-70 122-72.625 120.438c-1.894-3.358-1.858-5.646-1.375-9.438 1.25-2 1.25-2 3-3 2.188.313 2.188.313 4 1v5c2.49-.56 2.49-.56 5-2 2.277-5.005 2.305-9.74 2.319-15.126l.03-2.722c.031-2.955.048-5.909.065-8.863a6217.478 6217.478 0 0 0 .187-22.349c.04-5.51.091-11.02.141-16.53.097-10.803.181-21.607.258-32.41l-2.06.073-2.713.056-2.685.072c-2.72-.215-3.993-.658-6.167-2.264C-75 9-75 9-75.625 5.438-75 2-75 2-73.375-.438-70.397-2.396-68.496-2.317-65-2c.625 1.813.625 1.813 1 4l-2 3c8.6-.789 16.122-3.855 24.005-7.168l2.518-1.055 2.248-.96C-24.961-8.677-10.683-7.336 0 0Z" fill="#000" transform="matrix(.18248 0 0 .18248 13.813 1.235)" clip-path="url(#a)" style="fill:#000"/>
  <path d="M0 0c3.667.82 4.946 2.322 6.938 5.434.75 3.497.83 6.512 0 10-2.132 2.856-4.822 4.41-8 6-7.717.864-14.387-.156-21.688-2.5-9.684-3.09-17.85-4.035-27.313.5-9.834 5.792-15.487 14.965-19.25 25.5-3.12 14.659-.172 29.33 7.313 42.187.96 1.45 1.936 2.89 2.938 4.313l1.75 2.687c7.393 7.598 15.563 12.35 26.17 12.606 6.042.054 11.315-.412 17.08-2.293l-1.482-3.446c-1.708-4.571-1.909-8.592-1.811-13.43l.012-2.454c.017-2.557.055-5.113.093-7.67.015-1.746.029-3.493.041-5.239.033-4.254.085-8.508.147-12.761l-3 1c-6.554.702-10.574-.878-16.387-3.907-2.766-1.157-4.65-1.307-7.613-1.093l-1 3 3.437-.563 3.563-.437c1 1 1 1 1.375 3.812-.375 3.188-.375 3.188-2.438 5.625-3.85 2.048-5.797 1.79-9.937.563-2.69-2.827-3.471-4.939-3.563-8.813.125-4.96 1.65-7.415 5.055-10.91 4.451-3.771 10.943-2.736 16.483-2.483 4.258.432 8.194 1.919 12.216 3.307 5.915 1.892 10.126.875 15.809-1.101 2.875-.125 2.875-.125 5 0 0 4 0 4-1.97 6.707-2.595 4.207-2.596 7.147-2.527 11.98l-.004 2.487c.002 1.728.013 3.456.034 5.184.029 2.634.02 5.266.008 7.9.006 1.684.014 3.37.025 5.054l-.009 2.368c.099 5.77 1.219 10.096 5.443 14.32-.114 2.492-.114 2.492-1 5-11.53 8.088-30.486 8.29-44 7-4.026-.826-7.38-2.077-11-4l-2.633-1.391a106.419 106.419 0 0 1-7.367-4.61l-1.864-1.261c-10.652-8.155-17.26-21.79-19.949-34.613-.093-1.374-.15-2.75-.188-4.125l-.187-3.364c-.537-16.416 4.658-29.432 15.79-41.34C-58.468 10.202-46.782 7.965-32.09 8.133c5.933.22 11.203 1.611 16.828 3.426 3.222.88 5.878 1.035 9.2.875l1-3h-5l-1-5C-7.514.884-4.913-.307 0 0Z" fill="#000" transform="matrix(.18248 0 0 .18248 30.613 10.828)" style="fill:#000"/>
</svg>