<?xml version="1.0" encoding="UTF-8" standalone="no"?>
<svg version="1.1" width="32" height="32" id="svg4" sodipodi:docname="pg.svg" inkscape:version="1.4-beta2 (9aaf4f34, 2024-07-30)" xmlns:inkscape="http://www.inkscape.org/namespaces/inkscape" xmlns:sodipodi="http://sodipodi.sourceforge.net/DTD/sodipodi-0.dtd" xmlns="http://www.w3.org/2000/svg" xmlns:svg="http://www.w3.org/2000/svg">
  <defs id="defs4">
    <inkscape:path-effect effect="powerclip" message="" id="path-effect5" is_visible="true" lpeversion="1" inverse="true" flatten="false" hide_clip="false" />
    <clipPath clipPathUnits="userSpaceOnUse" id="clipPath5">
      <path d="M -15.019531,2.757812 C -7.77146,7.216007 -3.014998,14.891639 -0.8125,22.9375 2.41196,39.032702 -0.257447,55.220235 -9,69 c -4.502509,5.176179 -9.117215,8.514652 -16,9.375 -3.826293,-0.478287 -5.403953,-1.54989 -8,-4.375 -0.5,-2.625 -0.5,-2.625 0,-5 1.485,-0.99 1.485,-0.99 3,-2 0.723825,-2.059251 0.723825,-2.059251 1,-4 -3.727276,-0.347022 -7.287027,-0.545711 -11,0 -2.710369,2.809961 -2.710369,2.809961 -4,6 -0.33,0 -0.66,0 -1,0 -0.101518,-7.722867 -0.171516,-15.445562 -0.219727,-23.168945 -0.0201,-2.626693 -0.04738,-5.253342 -0.08203,-7.879883 -0.04858,-3.778107 -0.07123,-7.555622 -0.08887,-11.333985 -0.02065,-1.17209 -0.04129,-2.34418 -0.06256,-3.551788 C -45.454927,16.72405 -45.323628,12.788652 -41,8 c 7.40909,-7.008598 16.546236,-9.149858 25.980469,-5.242188 z" fill="#dde9ef" id="path5" style="display:none" />
      <path id="lpe_path-effect5" class="powerclip" d="M -80.625,-11.76925 H 20.326155 V 127.39593 H -80.625 Z M -15.019531,2.757812 C -24.453764,-1.149858 -33.59091,0.991402 -41,8 c -4.323628,4.788652 -4.454927,8.72405 -4.453187,15.065399 0.02127,1.207608 0.04191,2.379698 0.06256,3.551788 0.01764,3.778363 0.04029,7.555878 0.08887,11.333985 0.03465,2.626541 0.06193,5.25319 0.08203,7.879883 C -45.171516,53.554438 -45.101518,61.277133 -45,69 c 0.34,0 0.67,0 1,0 1.289631,-3.190039 1.289631,-3.190039 4,-6 3.712973,-0.545711 7.272724,-0.347022 11,0 -0.276175,1.940749 -0.276175,1.940749 -1,4 -1.515,1.01 -1.515,1.01 -3,2 -0.5,2.375 -0.5,2.375 0,5 2.596047,2.82511 4.173707,3.896713 8,4.375 C -18.117215,77.514652 -13.502509,74.176179 -9,69 -0.257447,55.220235 2.41196,39.032702 -0.8125,22.9375 -3.014998,14.891639 -7.77146,7.216007 -15.019531,2.757812 Z" />
    </clipPath>
  </defs>
  <sodipodi:namedview id="namedview4" pagecolor="#ffffff" bordercolor="#000000" borderopacity="0.25" inkscape:showpageshadow="2" inkscape:pageopacity="0.0" inkscape:pagecheckerboard="0" inkscape:deskcolor="#d1d1d1" inkscape:zoom="0.97939084" inkscape:cx="113.84628" inkscape:cy="111.80419" inkscape:window-width="1440" inkscape:window-height="872" inkscape:window-x="0" inkscape:window-y="0" inkscape:window-maximized="1" inkscape:current-layer="svg4" />
  <g id="g6" transform="matrix(0.18247938,0,0,0.18247938,-2.0625745,-1.6844217)">
    <path d="m 0,0 c 3.5388292,2.5969152 6.1151345,5.1513801 8.625,8.75 0.5697656,0.7992188 1.1395312,1.598437 1.726563,2.421875 4.04205,6.934702 5.112174,12.842803 4.960937,20.828125 0.0032,0.850781 0.0064,1.701563 0.0098,2.578125 C 15.196209,49.52157 9.0161432,63.024041 -1,74 -10.14229,82.075907 -17.75655,85.609418 -29.9375,85.285156 -35.29009,84.786765 -38.62981,83.639815 -42.183594,79.386719 -42.783008,78.599102 -43.382422,77.811484 -44,77 c -0.0093,0.568074 -0.01869,1.136147 -0.02832,1.721436 C -44.640219,108.3955 -44.640219,108.3955 -55,119 c -3.855201,3.42685 -7.700559,3.52198 -12.683594,3.34375 C -70,122 -70,122 -72.625,120.4375 -74.51879,117.08033 -74.482581,114.79171 -74,111 c 1.25,-2 1.25,-2 3,-3 2.1875,0.3125 2.1875,0.3125 4,1 0,1.65 0,3.3 0,5 2.490045,-0.56077 2.490045,-0.56077 5,-2 2.276503,-5.0052 2.304974,-9.74018 2.318848,-15.126465 0.01004,-0.898204 0.02009,-1.796409 0.03044,-2.721832 0.03077,-2.954207 0.04785,-5.908324 0.06477,-8.862641 0.01872,-2.054095 0.03829,-4.108182 0.05869,-6.162261 0.05127,-5.395452 0.09092,-10.790929 0.128143,-16.186493 0.04007,-5.510113 0.09115,-11.020123 0.141297,-16.530152 C -59.16111,35.606843 -59.076687,24.803472 -59,14 c -0.679819,0.02393 -1.359639,0.04786 -2.060059,0.07251 -1.343122,0.02792 -1.343122,0.02792 -2.713378,0.0564 -0.88607,0.02393 -1.772139,0.04786 -2.685059,0.07251 C -69.177309,13.985948 -70.450546,13.543166 -72.625,11.9375 -75,9 -75,9 -75.625,5.4375 -75,2 -75,2 -73.375,-0.4375 -70.397402,-2.3964461 -68.49645,-2.3178591 -65,-2 c 0.625,1.8125 0.625,1.8125 1,4 -0.99,1.485 -0.99,1.485 -2,3 8.600431,-0.7890304 16.122465,-3.8546018 24.004883,-7.1679688 0.831123,-0.3480468 1.662246,-0.6960937 2.518555,-1.0546875 0.741694,-0.3171899 1.483388,-0.6343798 2.247558,-0.9611816 C -24.960809,-8.6759053 -10.682733,-7.3349158 0,0 Z" fill="#a12318" transform="translate(87,16)" id="path2" clip-path="url(#clipPath5)" inkscape:path-effect="#path-effect5" inkscape:original-d="m 0,0 c 3.5388292,2.5969152 6.1151345,5.1513801 8.625,8.75 0.5697656,0.7992188 1.1395312,1.598437 1.726563,2.421875 4.04205,6.934702 5.112174,12.842803 4.960937,20.828125 0.0032,0.850781 0.0064,1.701563 0.0098,2.578125 C 15.196209,49.52157 9.0161432,63.024041 -1,74 -10.14229,82.075907 -17.75655,85.609418 -29.9375,85.285156 -35.29009,84.786765 -38.62981,83.639815 -42.183594,79.386719 -42.783008,78.599102 -43.382422,77.811484 -44,77 c -0.0093,0.568074 -0.01869,1.136147 -0.02832,1.721436 C -44.640219,108.3955 -44.640219,108.3955 -55,119 c -3.855201,3.42685 -7.700559,3.52198 -12.683594,3.34375 C -70,122 -70,122 -72.625,120.4375 -74.51879,117.08033 -74.482581,114.79171 -74,111 c 1.25,-2 1.25,-2 3,-3 2.1875,0.3125 2.1875,0.3125 4,1 0,1.65 0,3.3 0,5 2.490045,-0.56077 2.490045,-0.56077 5,-2 2.276503,-5.0052 2.304974,-9.74018 2.318848,-15.126465 0.01004,-0.898204 0.02009,-1.796409 0.03044,-2.721832 0.03077,-2.954207 0.04785,-5.908324 0.06477,-8.862641 0.01872,-2.054095 0.03829,-4.108182 0.05869,-6.162261 0.05127,-5.395452 0.09092,-10.790929 0.128143,-16.186493 0.04007,-5.510113 0.09115,-11.020123 0.141297,-16.530152 C -59.16111,35.606843 -59.076687,24.803472 -59,14 c -0.679819,0.02393 -1.359639,0.04786 -2.060059,0.07251 -1.343122,0.02792 -1.343122,0.02792 -2.713378,0.0564 -0.88607,0.02393 -1.772139,0.04786 -2.685059,0.07251 C -69.177309,13.985948 -70.450546,13.543166 -72.625,11.9375 -75,9 -75,9 -75.625,5.4375 -75,2 -75,2 -73.375,-0.4375 -70.397402,-2.3964461 -68.49645,-2.3178591 -65,-2 c 0.625,1.8125 0.625,1.8125 1,4 -0.99,1.485 -0.99,1.485 -2,3 8.600431,-0.7890304 16.122465,-3.8546018 24.004883,-7.1679688 0.831123,-0.3480468 1.662246,-0.6960937 2.518555,-1.0546875 0.741694,-0.3171899 1.483388,-0.6343798 2.247558,-0.9611816 C -24.960809,-8.6759053 -10.682733,-7.3349158 0,0 Z" style="fill:#000000" />
    <path d="m 0,0 c 3.666595,0.82054847 4.9458248,2.3216012 6.9375,5.4335937 0.7510635,3.4973185 0.830318,6.5126643 0,10.0000003 -2.1313327,2.856893 -4.8218461,4.410923 -8,6 -7.7169862,0.864302 -14.38678,-0.155681 -21.6875,-2.5 -9.684299,-3.089799 -17.84967,-4.034629 -27.3125,0.5 -9.834768,5.792588 -15.487676,14.965494 -19.25,25.5 -3.120789,14.659119 -0.172921,29.330861 7.3125,42.1875 0.959765,1.450526 1.935914,2.89053 2.9375,4.3125 0.86625,1.330312 0.86625,1.330312 1.75,2.6875 7.393003,7.598366 15.563037,12.349516 26.171387,12.605716 6.04068,0.0544 11.313786,-0.41159 17.078613,-2.29322 -0.488958,-1.13695 -0.977915,-2.2739 -1.481689,-3.44531 -1.707412,-4.571668 -1.908812,-8.591817 -1.81128,-13.429686 0.0042,-0.809934 0.0085,-1.619868 0.01286,-2.454346 0.01664,-2.55724 0.05426,-5.113657 0.09261,-7.670654 0.01507,-1.746083 0.02875,-3.492177 0.04102,-5.238282 0.03287,-4.254217 0.08454,-8.507829 0.146484,-12.761718 -1.485,0.495 -1.485,0.495 -3,1 -6.553505,0.702161 -10.573695,-0.877757 -16.386719,-3.90625 -2.765304,-1.157377 -4.649419,-1.307362 -7.613281,-1.09375 -0.33,0.99 -0.66,1.98 -1,3 1.134375,-0.185625 2.26875,-0.37125 3.4375,-0.5625 1.175625,-0.144375 2.35125,-0.28875 3.5625,-0.4375 1,1 1,1 1.375,3.8125 -0.375,3.1875 -0.375,3.1875 -2.4375,5.625 -3.850468,2.048121 -5.796858,1.789357 -9.9375,0.5625 -2.688911,-2.826804 -3.47099,-4.938583 -3.5625,-8.8125 0.124712,-4.959149 1.650482,-7.415501 5.054688,-10.910157 4.451309,-3.770928 10.943707,-2.736405 16.48291,-2.48291 4.258254,0.432295 8.194317,1.918878 12.216308,3.307129 5.914595,1.892012 10.1264944,0.87482 15.808594,-1.101562 2.875,-0.125 2.875,-0.125 5,0 0,4 0,4 -1.96899414,6.707031 -2.59512146,4.207597 -2.59657966,7.147575 -2.52709966,11.980469 -0.00218,1.231095 -0.00218,1.231095 -0.00441,2.48706 0.00165,1.727983 0.013151,3.45598 0.033951,5.183838 0.028967,2.633779 0.020595,5.265544 0.00757,7.899414 0.00624,1.684906 0.01463,3.369805 0.025391,5.054688 -0.00294,0.781413 -0.00587,1.562827 -0.0089,2.36792 0.098782,5.770545 1.2188441,10.095934 5.4424896,14.319576 -0.1132812,2.49219 -0.1132812,2.49219 -1,5 -11.5297598,8.08842 -30.4857998,8.29033 -43.9999998,7 -4.025034,-0.82552 -7.37951,-2.07698 -11,-4 -0.868828,-0.4589 -1.737656,-0.91781 -2.632812,-1.39062 -2.537329,-1.43908 -4.955401,-2.96969 -7.367188,-4.60938 -0.922324,-0.62455 -0.922324,-0.62455 -1.863281,-1.26171 C -75.57844,96.017081 -82.186167,82.382261 -84.875,69.558594 c -0.09252,-1.373307 -0.14961,-2.749102 -0.1875,-4.125 -0.06188,-1.109883 -0.12375,-2.219766 -0.1875,-3.363282 -0.536588,-16.416239 4.65822,-29.432431 15.789063,-41.339843 10.994105,-10.528557 22.679533,-12.7654163 37.371093,-12.5976565 5.933284,0.2207576 11.202605,1.6115039 16.828125,3.4257815 3.221949,0.881216 5.8775632,1.035806 9.199219,0.875 0.33,-0.99 0.66,-1.98 1,-3.0000002 -1.65,0 -3.3,0 -5,0 -0.495,-2.475 -0.495,-2.475 -1,-5.0000001 C -7.5135767,0.88467047 -4.9130086,-0.30706304 0,0 Z" fill="#A12418" transform="translate(179.0625,68.566406)" id="path3" style="fill:#000000" />
  </g>
</svg>
