<?xml version="1.0" encoding="UTF-8" standalone="no"?>
<!-- Created with Vectornator (http://vectornator.io/) -->

<svg height="32" stroke-miterlimit="10" style="clip-rule:evenodd;fill-rule:nonzero;stroke-linecap:round;stroke-linejoin:round" version="1.1" viewBox="0 0 32 32" width="32" xml:space="preserve" id="svg9" sodipodi:docname="pubdev.svg" inkscape:version="1.4-beta2 (9aaf4f34, 2024-07-30)" xmlns:inkscape="http://www.inkscape.org/namespaces/inkscape" xmlns:sodipodi="http://sodipodi.sourceforge.net/DTD/sodipodi-0.dtd" xmlns="http://www.w3.org/2000/svg" xmlns:svg="http://www.w3.org/2000/svg"><sodipodi:namedview id="namedview9" pagecolor="#ffffff" bordercolor="#000000" borderopacity="0.25" inkscape:showpageshadow="2" inkscape:pageopacity="0.0" inkscape:pagecheckerboard="0" inkscape:deskcolor="#d1d1d1" inkscape:zoom="3.9172584" inkscape:cx="17.35908" inkscape:cy="16.465598" inkscape:window-width="1440" inkscape:window-height="790" inkscape:window-x="0" inkscape:window-y="0" inkscape:window-maximized="1" inkscape:current-layer="svg9" />
<defs id="defs1" />

<path d="m 5.4739128,5.4747571 c 0,0 6.7369432,-3.366428 10.1047672,-5.05170503 0.612978,-0.302171 1.291674,-0.446495 1.97456,-0.419954 1.021249,0.06267 2.235903,1.05058403 2.235903,1.05058403 L 31.999117,13.265053 V 26.316268 H 26.315386 V 32 H 13.052161 L 1.0528252,20.000638 C 0.40486013,19.334006 8.825e-4,18.394094 8.825e-4,17.474119 c 0,-0.425288 0.23998661,-1.090586 0.42130979,-1.473269 z m 0.9052698,0.905308 V 22.095202 c 0.00267,0.723967 0.028001,1.365264 0.6639645,2.010561 l 6.5623069,6.560974 H 24.982187 V 24.98307 Z M 22.451604,5.4760901 c -1.19859,-1.19459 -2.411847,-2.373179 -3.653106,-3.523767 -0.40262,-0.356015 -0.755968,-0.623963 -1.426599,-0.615963 -0.493291,0.01867 -1.159922,0.259948 -1.159922,0.259948 l -7.7568975,3.878449 z" fill="#000000" fill-rule="nonzero" opacity="1" stroke="none" id="path2" style="clip-rule:evenodd;fill-rule:nonzero;stroke-width:0.634947;stroke-linecap:round;stroke-linejoin:round" />
</svg>
