<?xml version="1.0" encoding="UTF-8" standalone="no"?>
<!DOCTYPE svg PUBLIC "-//W3C//DTD SVG 1.1//EN" "http://www.w3.org/Graphics/SVG/1.1/DTD/svg11.dtd">
<!-- Created with Vectornator (http://vectornator.io/) -->
<svg height="100%" stroke-miterlimit="10" style="fill-rule:nonzero;clip-rule:evenodd;stroke-linecap:round;stroke-linejoin:round;" version="1.1" viewBox="0 0 250 80" width="100%" xml:space="preserve" xmlns="http://www.w3.org/2000/svg" xmlns:xlink="http://www.w3.org/1999/xlink">
<defs/>
<path d="M0 0L250 0L250 80L0 80L0 0Z" fill="#000000" fill-opacity="0" fill-rule="nonzero" opacity="1" stroke="none"/>
<g id="pub.dev">
<g opacity="1">
<path d="M8.61966 22.4406C8.61966 22.4406 19.2299 17.1387 24.534 14.4845C25.4994 14.0086 26.5683 13.7813 27.6438 13.8231C29.2522 13.9218 31.1652 15.4777 31.1652 15.4777L50.3951 34.7098L50.3951 55.2646L41.4436 55.2646L41.4436 64.2161L20.5549 64.2161L1.65674 45.3179C0.636238 44.268 1.06581e-14 42.7877 1.06581e-14 41.3388C1.06581e-14 40.669 0.377963 39.6212 0.663535 39.0185L8.61966 22.4406ZM10.0454 23.8664L10.0454 48.6167C10.0496 49.7569 10.0895 50.7669 11.0911 51.7832L21.4263 62.1163L39.3439 62.1163L39.3439 53.1649L10.0454 23.8664ZM35.3584 22.4427C33.4707 20.5613 31.5599 18.7051 29.605 16.893C28.9709 16.3323 28.4144 15.9103 27.3582 15.9229C26.5813 15.9523 25.5314 16.3323 25.5314 16.3323L13.3148 22.4406L35.3584 22.4427Z" fill="#000000" fill-rule="nonzero" opacity="1" stroke="none"/>
<path d="M94.5509 51.2763C95.8383 50.4837 96.8614 49.362 97.6212 47.909C98.3802 46.4567 98.7604 44.7723 98.7604 42.8573C98.7604 40.943 98.3802 39.2594 97.6212 37.8063C96.8614 36.354 95.8383 35.2308 94.5509 34.439C93.2628 33.6464 91.8929 33.2501 90.4406 33.2501C88.9548 33.2501 87.5758 33.6464 86.3052 34.439C85.0339 35.2308 84.0099 36.354 83.2349 37.8063C82.4591 39.2594 82.0712 40.943 82.0712 42.8573C82.0712 44.7723 82.4591 46.4567 83.2349 47.909C84.0099 49.362 85.0339 50.4837 86.3052 51.2763C87.5758 52.0689 88.9548 52.4644 90.4406 52.4644C91.8929 52.4644 93.2628 52.0689 94.5509 51.2763L94.5509 51.2763ZM78.0595 30.2295L82.0712 30.2295L82.0712 33.9931L82.269 33.9931C83.028 32.7057 84.1756 31.6245 85.7111 30.7495C87.2467 29.8752 88.9708 29.4369 90.8858 29.4369C93.1643 29.4369 95.219 30.0149 97.0516 31.1702C98.8841 32.3262 100.328 33.9266 101.385 35.9738C102.441 38.0216 102.969 40.3154 102.969 42.8573C102.969 45.4328 102.441 47.7357 101.385 49.766C100.328 51.7963 98.8841 53.3891 97.0516 54.5451C95.219 55.6996 93.1643 56.2776 90.8858 56.2776C88.9708 56.2776 87.2467 55.8401 85.7111 54.9658C84.1756 54.0915 83.028 53.0264 82.269 51.7711L82.0712 51.7711L82.269 55.2376L82.269 66.1818L78.0595 66.1818L78.0595 30.2295Z" fill="#000000" fill-rule="evenodd" opacity="1" stroke="none"/>
<path d="M108.838 53.6039C107.237 51.8209 106.436 49.3287 106.436 46.1255L106.436 30.2297L110.645 30.2297L110.645 45.4819C110.645 47.8924 111.19 49.6585 112.28 50.781C113.37 51.9034 114.838 52.4646 116.687 52.4646C118.107 52.4646 119.369 52.0859 120.476 51.3262C121.581 50.5664 122.439 49.5768 123.051 48.3544C123.662 47.1334 123.967 45.8453 123.967 44.4915L123.967 30.2297L128.177 30.2297L128.177 55.4853L124.166 55.4853L124.166 51.8209L123.967 51.8209C123.274 53.0762 122.167 54.1322 120.649 54.9905C119.13 55.848 117.512 56.2778 115.796 56.2778C112.758 56.2778 110.439 55.386 108.838 53.6039" fill="#000000" fill-rule="evenodd" opacity="1" stroke="none"/>
<path d="M149.916 51.2763C151.204 50.4837 152.227 49.362 152.986 47.909C153.746 46.4567 154.126 44.7723 154.126 42.8573C154.126 40.943 153.746 39.2594 152.986 37.8063C152.227 36.354 151.204 35.2308 149.916 34.439C148.629 33.6464 147.258 33.2501 145.806 33.2501C144.32 33.2501 142.941 33.6464 141.67 34.439C140.4 35.2308 139.376 36.354 138.6 37.8063C137.824 39.2594 137.436 40.943 137.436 42.8573C137.436 44.7723 137.824 46.4567 138.6 47.909C139.376 49.362 140.4 50.4837 141.67 51.2763C142.941 52.0689 144.32 52.4644 145.806 52.4644C147.258 52.4644 148.629 52.0689 149.916 51.2763M141.076 54.9658C139.542 54.0915 138.394 53.0264 137.635 51.7711L137.436 51.7711L137.436 55.4858L133.426 55.4858L133.426 20.0283L137.635 20.0283L137.635 30.4769L137.436 33.9931L137.635 33.9931C138.394 32.7057 139.542 31.6245 141.076 30.7495C142.612 29.8752 144.336 29.4369 146.252 29.4369C148.53 29.4369 150.585 30.0149 152.417 31.1702C154.249 32.3262 155.693 33.9266 156.751 35.9738C157.807 38.0216 158.335 40.3154 158.335 42.8573C158.335 45.4328 157.807 47.7357 156.751 49.766C155.693 51.7963 154.249 53.3891 152.417 54.5451C150.585 55.6996 148.53 56.2776 146.252 56.2776C144.336 56.2776 142.612 55.8401 141.076 54.9658" fill="#000000" fill-rule="evenodd" opacity="1" stroke="none"/>
<path d="M162.767 54.5695C162.156 53.9587 161.85 53.2073 161.85 52.3163C161.85 51.458 162.156 50.7235 162.767 50.1126C163.377 49.5018 164.129 49.1963 165.02 49.1963C165.912 49.1963 166.662 49.5018 167.273 50.1126C167.884 50.7235 168.189 51.458 168.189 52.3163C168.189 53.2073 167.884 53.9587 167.273 54.5695C166.662 55.1811 165.912 55.4858 165.02 55.4858C164.129 55.4858 163.377 55.1811 162.767 54.5695" fill="#000000" fill-rule="evenodd" opacity="1" stroke="none"/>
<path d="M188.37 51.2763C189.641 50.4837 190.664 49.362 191.44 47.909C192.215 46.4567 192.604 44.7723 192.604 42.8573C192.604 40.943 192.215 39.2594 191.44 37.8063C190.664 36.354 189.641 35.2308 188.37 34.439C187.098 33.6464 185.72 33.2501 184.235 33.2501C182.782 33.2501 181.412 33.6464 180.124 34.439C178.837 35.2308 177.805 36.3624 177.029 37.8315C176.253 39.2998 175.866 40.9758 175.866 42.8573C175.866 44.7387 176.253 46.4155 177.029 47.8838C177.805 49.3529 178.837 50.4837 180.124 51.2763C181.412 52.0689 182.782 52.4644 184.235 52.4644C185.72 52.4644 187.098 52.0689 188.37 51.2763M177.624 54.5451C175.791 53.3891 174.347 51.7963 173.291 49.766C172.233 47.7357 171.705 45.4328 171.705 42.8573C171.705 40.3154 172.233 38.0216 173.291 35.9738C174.347 33.9266 175.791 32.3262 177.624 31.1702C179.456 30.0149 181.511 29.4369 183.789 29.4369C185.703 29.4369 187.42 29.8752 188.939 30.7495C190.457 31.6245 191.614 32.7057 192.406 33.9931L192.604 33.9931L192.406 30.4769L192.406 20.0283L196.615 20.0283L196.615 55.4858L192.604 55.4858L192.604 51.7711L192.406 51.7711C191.614 53.0264 190.457 54.0915 188.939 54.9658C187.42 55.8401 185.703 56.2776 183.789 56.2776C181.511 56.2776 179.456 55.6996 177.624 54.5451" fill="#000000" fill-rule="evenodd" opacity="1" stroke="none"/>
<path d="M220.138 40.1834C220.072 39.1274 219.775 38.0706 219.247 37.0139C218.719 35.9579 217.893 35.066 216.771 34.3399C215.648 33.6137 214.228 33.2503 212.512 33.2503C210.531 33.2503 208.847 33.8863 207.461 35.1569C206.074 36.4282 205.165 38.1035 204.737 40.1834L220.138 40.1834ZM206.371 54.5453C204.456 53.3892 202.962 51.7957 201.89 49.7661C200.816 47.7358 200.28 45.4497 200.28 42.907C200.28 40.498 200.783 38.2608 201.79 36.1969C202.797 34.1345 204.233 32.4913 206.098 31.2696C207.964 30.0487 210.101 29.4371 212.512 29.4371C214.988 29.4371 217.133 29.9899 218.95 31.0963C220.765 32.2027 222.16 33.729 223.134 35.6769C224.108 37.6247 224.595 39.8536 224.595 42.3626C224.595 42.7589 224.562 43.188 224.497 43.65L204.489 43.65C204.588 45.565 205.05 47.183 205.876 48.5032C206.7 49.8234 207.749 50.8145 209.021 51.4742C210.291 52.1347 211.621 52.4645 213.007 52.4645C216.308 52.4645 218.802 50.9466 220.485 47.9091L224.051 49.6417C222.994 51.6559 221.525 53.2655 219.643 54.4704C217.761 55.6753 215.499 56.2778 212.858 56.2778C210.448 56.2778 208.286 55.6998 206.371 54.5453L206.371 54.5453Z" fill="#000000" fill-rule="evenodd" opacity="1" stroke="none"/>
<path d="M225.238 30.2295L229.745 30.2295L237.569 50.5333L237.669 50.5333L245.592 30.2295L250 30.2295L239.699 55.4858L235.44 55.4858L225.238 30.2295Z" fill="#000000" fill-rule="evenodd" opacity="1" stroke="none"/>
</g>
</g>
</svg>
