<?xml version="1.0" encoding="utf-8"?>
<!-- Generator: Adobe Illustrator 24.3.0, SVG Export Plug-In . SVG Version: 6.00 Build 0)  -->
<svg version="1.1" id="Camada_1" xmlns="http://www.w3.org/2000/svg" xmlns:xlink="http://www.w3.org/1999/xlink" x="0px" y="0px"
	 viewBox="0 0 300 120.5" style="enable-background:new 0 0 300 120.5;" xml:space="preserve">
<style type="text/css">
	.st0{fill:none;stroke:#000000;stroke-linejoin:bevel;stroke-miterlimit:3.2;}
</style>
<g>
	<g>
		<path d="M68.4,42.4c0-10.6-3-16-9-16.3c-2.4-0.1-4.8,0.3-7,1.1c-1.8,0.6-3.1,1.3-3.7,1.9v25.2c3.9,2.5,7.3,3.5,10.2,3.4
			C65.2,57.4,68.4,52.3,68.4,42.4z M75.7,42.9c0,5.3-1.2,9.8-3.8,13.3c-2.8,4-6.8,6-11.7,6.1c-3.8,0.1-7.7-1-11.6-3.5v22.9l-6.5-2.3
			V28.7c1-1.3,2.5-2.5,4.1-3.4c3.8-2.3,8.5-3.4,14-3.5l0.1,0.1c5-0.1,8.9,1.9,11.6,6.1C74.5,32,75.7,36.9,75.7,42.9z M115.2,57.9
			c0,7.2-0.7,12.2-2.2,15s-4.2,5-8.3,6.7c-3.3,1.3-6.9,2-10.7,2.2l-1-4.1c3.9-0.5,6.7-1,8.2-1.5c3.2-1,5.2-2.7,6.5-4.8
			c0.9-1.7,1.4-5.1,1.4-10.1v-1.6c-4.3,1.9-9.1,3-13.8,3c-3.2,0-5.9-1-8.4-3c-2.7-2.2-4.1-4.9-4.1-8.3V24.1l6.5-2.3v27.1
			c0,2.9,0.9,5.1,2.8,6.7c1.8,1.5,4.3,2.4,7.3,2.3s6.1-1.2,9.5-3.5V22.9h6.5v35.1H115.2z M140.4,62.1c-0.8,0.1-1.4,0.1-2.2,0.1
			c-3.7,0-6.5-0.8-8.5-2.6s-3.1-4.1-3.1-7.2V27h-4.4v-4.1h4.4V12.1l6.5-2.3V23h7.3v4.1h-7.3v25.2c0,2.5,0.6,4.1,1.9,5.1
			c1.1,0.8,2.9,1.3,5.3,1.4V62.1L140.4,62.1z M179.5,61.6H173V36.7c0-2.6-0.6-4.7-1.7-6.6c-1.3-2-3.3-3.1-5.6-3.1
			c-3,0-6.7,1.5-11.1,4.7v29.8h-6.5V2l6.5-2v27.2c4.1-3,8.6-4.5,13.5-4.5c3.4,0,6.1,1.1,8.3,3.5c2.2,2.3,3.2,5.1,3.2,8.6L179.5,61.6
			L179.5,61.6z M213.7,41.5c0-4.1-0.8-7.4-2.3-10c-1.8-3.2-4.6-4.9-8.5-5.1c-7.1,0.4-10.6,5.4-10.6,15.2c0,4.4,0.7,8.2,2.3,11.2
			c1.8,3.8,4.7,5.6,8.5,5.6C210.2,58.2,213.7,52.6,213.7,41.5L213.7,41.5z M220.8,41.5c0,5.7-1.4,10.6-4.4,14.3
			c-3.3,4.3-7.7,6.5-13.4,6.5c-5.6,0-10-2.2-13.2-6.5c-2.9-3.8-4.3-8.6-4.3-14.3c0-5.4,1.5-9.9,4.7-13.7c3.3-3.9,7.6-5.9,13-5.9
			c5.3,0,9.7,1.9,13.1,5.9C219.2,31.6,220.8,36.1,220.8,41.5L220.8,41.5z M257.8,61.6h-6.5V35.3c0-2.9-0.8-5.1-2.6-6.8
			c-1.7-1.6-4.1-2.4-7-2.4c-3.1,0.1-5.9,1-8.7,3v32.4h-6.5V28.4c3.7-2.7,7.2-4.5,10.2-5.3c3-0.8,5.5-1.1,7.8-1.1
			c1.5,0,3,0.1,4.3,0.4c2.6,0.6,4.6,1.6,6.1,3.3c1.7,1.7,2.7,3.9,2.7,6.4V61.6L257.8,61.6z"/>
		<path d="M160.1,90.4h3.3v-6.8h3c4,0,7-1.8,7-5.9c0-4.3-3-5.7-7-5.7h-6.1C160.1,72.1,160.1,90.4,160.1,90.4z M163.4,81.1v-6.5h2.7
			c2.7,0,4.1,0.7,4.1,3.1c0,2.3-1.3,3.4-4.1,3.4H163.4z M174.9,86.7c0,2.5,1.6,4.1,4.1,4.1c1.6,0,3.1-0.8,4.3-1.8h0.1l0.2,1.5h2.7
			v-8.2c0-3.9-1.6-5.9-5.1-5.9c-2.2,0-4.1,0.8-5.6,1.8l1.2,2.2c1.2-0.7,2.5-1.3,3.9-1.3c1.8,0,2.5,1.2,2.5,2.7
			C177.4,82.2,174.9,83.7,174.9,86.7L174.9,86.7z M178,86.5c0-1.3,1.2-2.4,5-2.9v3.1c-1,0.9-1.8,1.5-3,1.5
			C178.9,88.3,178,87.7,178,86.5z M189.3,83.5c0,4.6,2.9,7.3,6.7,7.3c1.5,0,3.3-0.6,4.5-1.7l-1.3-2c-0.7,0.6-1.7,1.2-2.9,1.2
			c-2.2,0-3.7-1.8-3.7-4.6c0-2.8,1.5-4.6,3.8-4.6c0.9,0,1.6,0.4,2.4,1l1.5-2c-0.9-0.9-2.3-1.6-4.1-1.6
			C192.6,76.3,189.3,78.9,189.3,83.5L189.3,83.5z M203.2,90.4h3.2v-3.5l2.2-2.5l3.6,6h3.5l-5.2-8.2l4.7-5.6h-3.6l-5.1,6.4h-0.1V70.5
			h-3.2L203.2,90.4L203.2,90.4z M217.1,86.7c0,2.5,1.6,4.1,4.1,4.1c1.6,0,3.1-0.8,4.3-1.8h0.1l0.2,1.5h2.7v-8.2
			c0-3.9-1.6-5.9-5.1-5.9c-2.2,0-4.1,0.8-5.6,1.8l1.2,2.2c1.2-0.7,2.5-1.3,3.9-1.3c1.8,0,2.5,1.2,2.5,2.7
			C219.5,82.2,217.1,83.7,217.1,86.7L217.1,86.7z M220.3,86.5c0-1.3,1.2-2.4,5-2.9v3.1c-1,0.9-1.8,1.5-3,1.5
			C221.1,88.3,220.3,87.7,220.3,86.5z M234.2,92.5c0-0.6,0.3-1.2,1-1.8c0.5,0.1,1.1,0.2,1.8,0.2h1.8c1.5,0,2.5,0.3,2.5,1.3
			c0,1.2-1.5,2.3-3.8,2.3C235.5,94.4,234.2,93.7,234.2,92.5z M231.5,93c0,2.5,2.5,3.6,5.7,3.6c4.5,0,7.4-2.2,7.4-4.9
			c0-2.4-1.7-3.4-5-3.4h-2.5c-1.6,0-2.3-0.5-2.3-1.2c0-0.6,0.2-0.9,0.7-1.3c0.6,0.2,1.2,0.4,1.8,0.4c3,0,5.2-1.6,5.2-4.7
			c0-0.9-0.3-1.8-0.8-2.4h2.6v-2.4h-5c-0.6-0.2-1.3-0.3-2-0.3c-2.9,0-5.4,1.7-5.4,4.9c0,1.6,0.9,3,1.8,3.7v0.1
			c-0.8,0.5-1.5,1.5-1.5,2.6c0,1.1,0.5,1.8,1.2,2.4v0.1C232.2,90.8,231.5,91.8,231.5,93z M237.4,84c-1.3,0-2.5-1-2.5-2.8
			s1-2.8,2.5-2.8c1.3,0,2.4,1,2.4,2.8C239.8,83,238.7,84,237.4,84L237.4,84z M245.7,83.5c0,4.6,3,7.3,6.8,7.3c1.7,0,3.4-0.6,4.7-1.5
			l-1.1-2c-1,0.6-2.1,1-3.2,1c-2.3,0-3.8-1.4-4.1-3.9h8.8c0.1-0.3,0.1-0.9,0.1-1.5c0-3.9-1.9-6.6-5.7-6.6
			C248.9,76.3,245.7,79,245.7,83.5L245.7,83.5z M248.9,82.3c0.3-2.4,1.6-3.5,3.3-3.5c1.8,0,2.8,1.3,2.8,3.5
			C254.9,82.3,248.9,82.3,248.9,82.3z M160.1,119.2h3.3v-18.4h-3.3V119.2L160.1,119.2z M167.8,119.2h3.3v-9.6
			c1.1-1.1,1.9-1.7,3.2-1.7c1.5,0,2.2,0.8,2.2,3.2v8.3h3.3v-8.7c0-3.5-1.3-5.5-4.2-5.5c-1.8,0-3.3,1-4.5,2.2h-0.1l-0.2-1.8H168
			C167.8,105.4,167.8,119.2,167.8,119.2z M182.7,112.2c0,4.6,2.3,7.3,5.7,7.3c1.5,0,2.9-0.8,3.9-1.8h0.1l0.2,1.5h2.7V99.3h-3.3v5
			l0.1,2.3c-1-0.9-2-1.5-3.6-1.5C185.6,105.1,182.7,107.7,182.7,112.2z M186,112.2c0-2.9,1.4-4.6,3.2-4.6c0.9,0,1.8,0.3,2.8,1.1v6.5
			c-0.9,1-1.8,1.5-2.9,1.5C187.2,116.8,186,115.2,186,112.2L186,112.2z M198.5,112.2c0,4.6,3,7.3,6.8,7.3c1.7,0,3.4-0.6,4.7-1.5
			l-1.1-2c-1,0.6-2.1,1-3.2,1c-2.3,0-3.8-1.4-4.1-3.9h8.8c0.1-0.3,0.1-0.9,0.1-1.5c0-3.9-1.9-6.6-5.7-6.6
			C201.7,105.1,198.5,107.7,198.5,112.2z M201.7,111c0.3-2.4,1.6-3.5,3.3-3.5c1.8,0,2.8,1.3,2.8,3.5H201.7z M211.8,119.2h3.4
			l1.4-2.8c0.4-0.8,0.8-1.6,1.2-2.5h0.1c0.5,0.8,0.9,1.6,1.4,2.5l1.6,2.8h3.5l-4.4-6.9l4.1-7h-3.4l-1.3,2.7c-0.3,0.7-0.7,1.5-1,2.4
			h-0.1c-0.4-0.8-0.8-1.5-1.2-2.4l-1.5-2.7h-3.5l4.1,6.7L211.8,119.2L211.8,119.2z"/>
	</g>
	<g id="g4506" transform="translate(-67.857146,-23.035712)">
		<path id="path5201-0-9" class="st0" d="M181.3,115.6l17.8,6.5l18.1-6.6l-17.8-6.5L181.3,115.6z"/>
		<path id="path5203-3-8" class="st0" d="M199.1,122.1V143l18.1-6.6v-20.9L199.1,122.1z"/>
		<path id="path5205-3-0" class="st0" d="M181.3,115.6l17.8,6.5V143l-17.8-6.5V115.6z"/>
	</g>
</g>
</svg>
