<?xml version="1.0" encoding="UTF-8" standalone="no"?>
<svg id="a" viewBox="0 0 32 32" version="1.1" sodipodi:docname="pypi.svg" width="32" height="32" inkscape:version="1.4-beta2 (9aaf4f34, 2024-07-30)" xmlns:inkscape="http://www.inkscape.org/namespaces/inkscape" xmlns:sodipodi="http://sodipodi.sourceforge.net/DTD/sodipodi-0.dtd" xmlns="http://www.w3.org/2000/svg" xmlns:svg="http://www.w3.org/2000/svg">
  <defs id="defs39" />
  <sodipodi:namedview id="namedview39" pagecolor="#ffffff" bordercolor="#000000" borderopacity="0.25" inkscape:showpageshadow="2" inkscape:pageopacity="0.0" inkscape:pagecheckerboard="0" inkscape:deskcolor="#d1d1d1" inkscape:zoom="5.7691745" inkscape:cx="18.893518" inkscape:cy="14.820145" inkscape:window-width="1440" inkscape:window-height="790" inkscape:window-x="0" inkscape:window-y="0" inkscape:window-maximized="1" inkscape:current-layer="a" />
  <g id="g39" transform="matrix(0.38195273,0,0,0.38195273,1.403e-7,-0.39720261)">
    <path d="M 12.12,34.4 23.94,38.64 35.98,34.29 24.16,30.05 Z M 24.05,24.59 35.87,28.83 47.91,24.48 36.09,20.24 Z" style="fill:none;stroke:#cccccc;stroke-width:0.38px;stroke-linejoin:bevel" id="path1" />
    <path d="m 24.05,24.59 11.82,4.24 V 42.77 L 24.05,38.53 Z" style="fill:none;stroke:#cccccc;stroke-width:0.38px;stroke-linejoin:bevel" id="path2" />
    <path d="M 0.19,52.79 12.01,57.03 24.05,52.68 12.23,48.44 Z" style="fill:none;stroke:#cccccc;stroke-width:0.38px;stroke-linejoin:bevel" id="path3" />
    <path d="m 0.19,52.79 11.82,4.24 V 70.97 L 0.19,66.73 Z" style="fill:none;stroke:#cccccc;stroke-width:0.38px;stroke-linejoin:bevel" id="path4" />
    <path d="M 0.19,32.95 12.01,37.19 24.05,32.84 12.23,28.6 Z" style="fill:none;stroke:#cccccc;stroke-width:0.38px;stroke-linejoin:bevel" id="path5" />
    <path d="M 12.12,37.18 V 51.12 L 24.16,46.77 V 32.83 Z" style="fill:none;stroke:#cccccc;stroke-width:0.38px;stroke-linejoin:bevel" id="path6" />
    <path d="m 0.19,32.95 11.82,4.24 V 51.13 L 0.19,46.89 Z" style="fill:none;stroke:#cccccc;stroke-width:0.38px;stroke-linejoin:bevel" id="path7" />
    <path d="m 12.12,57.14 11.82,4.24 V 75.32 L 12.12,71.08 Z" style="fill:none;stroke:#cccccc;stroke-width:0.38px;stroke-linejoin:bevel" id="path8" />
    <path d="M 12.12,42.98 23.94,47.22 35.98,42.87 24.16,38.63 Z" style="fill:none;stroke:#cccccc;stroke-width:0.38px;stroke-linejoin:bevel" id="path9" />
    <path d="m 12.12,42.98 11.82,4.24 V 61.16 L 12.12,56.92 Z" style="fill:none;stroke:#cccccc;stroke-width:0.38px;stroke-linejoin:bevel" id="path10" />
    <path d="M 71.55,52.79 V 66.73 L 83.59,62.38 V 48.33 Z" style="fill:none;stroke:#cccccc;stroke-width:0.38px;stroke-linejoin:bevel" id="path11" />
    <path d="M 59.62,57.14 V 71.08 L 71.66,66.73 V 52.79 Z m 7.58,6.58 c -1.34,0.45 -2.34,-0.33 -2.34,-1.67 0,-1.34 1,-2.9 2.34,-3.23 1.34,-0.45 2.34,0.33 2.34,1.67 0,1.34 -1,2.79 -2.34,3.23 z" style="opacity:0.5;isolation:isolate;stroke:#cccccc;stroke-width:0.38px;stroke-linejoin:bevel" id="path12" />
    <path d="M 47.8,61.38 V 75.32 L 59.84,70.97 V 57.03 Z" style="opacity:0.5;isolation:isolate;stroke:#cccccc;stroke-width:0.38px;stroke-linejoin:bevel" id="path13" />
    <path d="M 35.87,65.73 V 79.67 L 47.91,75.32 V 61.27 Z" style="fill:none;stroke:#cccccc;stroke-width:0.38px;stroke-linejoin:bevel" id="path14" />
    <path d="m 24.05,61.38 11.82,4.24 V 79.56 L 24.05,75.32 Z" style="fill:none;stroke:#cccccc;stroke-width:0.38px;stroke-linejoin:bevel" id="path15" />
    <path d="M 71.55,38.63 V 52.57 L 83.59,48.22 V 34.28 Z" style="opacity:0.5;isolation:isolate;stroke:#cccccc;stroke-width:0.38px;stroke-linejoin:bevel" id="path16" />
    <path d="M 59.73,20.35 71.55,24.59 83.59,20.24 71.77,16 Z" style="opacity:0.5;isolation:isolate;stroke:#cccccc;stroke-width:0.38px;stroke-linejoin:bevel" id="path17" />
    <path d="M 71.55,24.59 V 38.53 L 83.59,34.18 V 20.24 Z M 59.62,42.99 V 56.93 L 71.66,52.58 V 38.64 Z" style="opacity:0.5;isolation:isolate;stroke:#cccccc;stroke-width:0.38px;stroke-linejoin:bevel" id="path18" />
    <path d="M 59.62,28.93 V 42.87 L 71.66,38.52 V 24.58 Z" style="stroke:#cccccc;stroke-width:0.38px;stroke-linejoin:bevel" id="path19" />
    <path d="M 47.8,10.54 59.62,14.78 71.66,10.43 59.84,6.19 Z" style="stroke:#cccccc;stroke-width:0.38px;stroke-linejoin:bevel" id="path20" />
    <path d="M 59.62,14.89 V 28.83 L 71.66,24.48 V 10.43 Z" style="stroke:#cccccc;stroke-width:0.38px;stroke-linejoin:bevel" id="path21" />
    <path d="M 47.8,47.33 V 61.27 L 59.84,56.92 V 42.98 Z" style="stroke:#cccccc;stroke-width:0.38px;stroke-linejoin:bevel" id="path22" />
    <path d="M 47.8,33.28 V 47.22 L 59.84,42.87 V 28.82 Z M 35.87,51.68 V 65.62 L 47.91,61.27 V 47.33 Z" style="stroke:#cccccc;stroke-width:0.38px;stroke-linejoin:bevel" id="path23" />
    <path d="m 24.05,47.33 11.82,4.24 V 65.62 L 24.05,61.38 Z m 0,-14.05 11.82,4.24 12.04,-4.35 -11.82,-4.24 z" style="stroke:#cccccc;stroke-width:0.38px;stroke-linejoin:bevel" id="path24" />
    <path d="M 35.87,37.63 V 51.57 L 47.91,47.22 V 33.28 Z" style="stroke:#cccccc;stroke-width:0.38px;stroke-linejoin:bevel" id="path25" />
    <path d="m 24.05,33.28 11.82,4.24 V 51.46 L 24.05,47.22 Z M 35.98,14.88 47.8,19.12 59.84,14.77 48.02,10.53 Z" style="stroke:#cccccc;stroke-width:0.38px;stroke-linejoin:bevel" id="path26" />
    <path d="M 35.98,14.89 47.8,19.13 V 33.07 L 35.98,28.83 Z" style="stroke:#cccccc;stroke-width:0.38px;stroke-linejoin:bevel" id="path27" />
    <path d="M 47.8,19.12 V 33.06 L 59.84,28.71 V 14.77 Z m 4.46,7.8 c -1.34,0.45 -2.34,-0.33 -2.34,-1.67 0,-1.34 1,-2.9 2.34,-3.23 1.23,-0.45 2.34,0.33 2.34,1.67 0,1.34 -1,2.79 -2.34,3.23 z" style="stroke:#cccccc;stroke-width:0.38px;stroke-linejoin:bevel" id="path28" />
  </g>
</svg>
