<?xml version="1.0" encoding="UTF-8"?><svg id="a" xmlns="http://www.w3.org/2000/svg" viewBox="0 0 249.53 80"><path d="m12.12,34.4l11.82,4.24,12.04-4.35-11.82-4.24-12.04,4.35Zm11.93-9.81l11.82,4.24,12.04-4.35-11.82-4.24-12.04,4.35Z" style="fill:none; stroke:#ccc; stroke-linejoin:bevel; stroke-width:.38px;"/><path d="m24.05,24.59l11.82,4.24v13.94l-11.82-4.24v-13.94Z" style="fill:none; stroke:#ccc; stroke-linejoin:bevel; stroke-width:.38px;"/><path d="m.19,52.79l11.82,4.24,12.04-4.35-11.82-4.24L.19,52.79Z" style="fill:none; stroke:#ccc; stroke-linejoin:bevel; stroke-width:.38px;"/><path d="m.19,52.79l11.82,4.24v13.94L.19,66.73v-13.94Z" style="fill:none; stroke:#ccc; stroke-linejoin:bevel; stroke-width:.38px;"/><path d="m.19,32.95l11.82,4.24,12.04-4.35-11.82-4.24L.19,32.95Z" style="fill:none; stroke:#ccc; stroke-linejoin:bevel; stroke-width:.38px;"/><path d="m12.12,37.18v13.94l12.04-4.35v-13.94l-12.04,4.35Z" style="fill:none; stroke:#ccc; stroke-linejoin:bevel; stroke-width:.38px;"/><path d="m.19,32.95l11.82,4.24v13.94L.19,46.89v-13.94Z" style="fill:none; stroke:#ccc; stroke-linejoin:bevel; stroke-width:.38px;"/><path d="m12.12,57.14l11.82,4.24v13.94l-11.82-4.24v-13.94Z" style="fill:none; stroke:#ccc; stroke-linejoin:bevel; stroke-width:.38px;"/><path d="m12.12,42.98l11.82,4.24,12.04-4.35-11.82-4.24-12.04,4.35Z" style="fill:none; stroke:#ccc; stroke-linejoin:bevel; stroke-width:.38px;"/><path d="m12.12,42.98l11.82,4.24v13.94l-11.82-4.24v-13.94Z" style="fill:none; stroke:#ccc; stroke-linejoin:bevel; stroke-width:.38px;"/><path d="m71.55,52.79v13.94l12.04-4.35v-14.05l-12.04,4.46Z" style="fill:none; stroke:#ccc; stroke-linejoin:bevel; stroke-width:.38px;"/><path d="m59.62,57.14v13.94l12.04-4.35v-13.94l-12.04,4.35Zm7.58,6.58c-1.34.45-2.34-.33-2.34-1.67s1-2.9,2.34-3.23c1.34-.45,2.34.33,2.34,1.67s-1,2.79-2.34,3.23Z" style="isolation:isolate; opacity:.5; stroke:#ccc; stroke-linejoin:bevel; stroke-width:.38px;"/><path d="m47.8,61.38v13.94l12.04-4.35v-13.94l-12.04,4.35Z" style="isolation:isolate; opacity:.5; stroke:#ccc; stroke-linejoin:bevel; stroke-width:.38px;"/><path d="m35.87,65.73v13.94l12.04-4.35v-14.05l-12.04,4.46Z" style="fill:none; stroke:#ccc; stroke-linejoin:bevel; stroke-width:.38px;"/><path d="m24.05,61.38l11.82,4.24v13.94l-11.82-4.24v-13.94Z" style="fill:none; stroke:#ccc; stroke-linejoin:bevel; stroke-width:.38px;"/><path d="m71.55,38.63v13.94l12.04-4.35v-13.94l-12.04,4.35Z" style="isolation:isolate; opacity:.5; stroke:#ccc; stroke-linejoin:bevel; stroke-width:.38px;"/><path d="m59.73,20.35l11.82,4.24,12.04-4.35-11.82-4.24-12.04,4.35Z" style="isolation:isolate; opacity:.5; stroke:#ccc; stroke-linejoin:bevel; stroke-width:.38px;"/><path d="m71.55,24.59v13.94l12.04-4.35v-13.94l-12.04,4.35Zm-11.93,18.4v13.94l12.04-4.35v-13.94l-12.04,4.35Z" style="isolation:isolate; opacity:.5; stroke:#ccc; stroke-linejoin:bevel; stroke-width:.38px;"/><path d="m59.62,28.93v13.94l12.04-4.35v-13.94l-12.04,4.35Z" style="stroke:#ccc; stroke-linejoin:bevel; stroke-width:.38px;"/><path d="m47.8,10.54l11.82,4.24,12.04-4.35-11.82-4.24-12.04,4.35Z" style="stroke:#ccc; stroke-linejoin:bevel; stroke-width:.38px;"/><path d="m59.62,14.89v13.94l12.04-4.35v-14.05l-12.04,4.46Z" style="stroke:#ccc; stroke-linejoin:bevel; stroke-width:.38px;"/><path d="m47.8,47.33v13.94l12.04-4.35v-13.94l-12.04,4.35Z" style="stroke:#ccc; stroke-linejoin:bevel; stroke-width:.38px;"/><path d="m47.8,33.28v13.94l12.04-4.35v-14.05l-12.04,4.46Zm-11.93,18.4v13.94l12.04-4.35v-13.94l-12.04,4.35Z" style="stroke:#ccc; stroke-linejoin:bevel; stroke-width:.38px;"/><path d="m24.05,47.33l11.82,4.24v14.05l-11.82-4.24v-14.05Zm0-14.05l11.82,4.24,12.04-4.35-11.82-4.24-12.04,4.35Z" style="stroke:#ccc; stroke-linejoin:bevel; stroke-width:.38px;"/><path d="m35.87,37.63v13.94l12.04-4.35v-13.94l-12.04,4.35Z" style="stroke:#ccc; stroke-linejoin:bevel; stroke-width:.38px;"/><path d="m24.05,33.28l11.82,4.24v13.94l-11.82-4.24v-13.94Zm11.93-18.4l11.82,4.24,12.04-4.35-11.82-4.24-12.04,4.35Z" style="stroke:#ccc; stroke-linejoin:bevel; stroke-width:.38px;"/><path d="m35.98,14.89l11.82,4.24v13.94l-11.82-4.24v-13.94Z" style="stroke:#ccc; stroke-linejoin:bevel; stroke-width:.38px;"/><path d="m47.8,19.12v13.94l12.04-4.35v-13.94l-12.04,4.35Zm4.46,7.8c-1.34.45-2.34-.33-2.34-1.67s1-2.9,2.34-3.23c1.23-.45,2.34.33,2.34,1.67s-1,2.79-2.34,3.23Z" style="stroke:#ccc; stroke-linejoin:bevel; stroke-width:.38px;"/><path d="m117.29,29.55c0-7.36-2.12-11.15-6.24-11.37-1.67-.11-3.34.22-4.91.78-1.34.45-2.12.89-2.56,1.34v17.62c2.68,1.67,5.02,2.45,7.14,2.34,4.46-.22,6.58-3.79,6.58-10.7Zm5.24.45c0,3.68-.89,6.91-2.68,9.25-1.9,2.79-4.68,4.24-8.14,4.24-2.68.11-5.35-.67-8.03-2.45v15.94l-4.46-1.56V20.07c.67-.89,1.67-1.67,2.9-2.34,2.68-1.56,5.91-2.34,9.81-2.45l.11.11c3.46-.11,6.24,1.34,8.03,4.24,1.56,2.68,2.45,6.13,2.45,10.37Zm27.43,10.37c0,5.02-.45,8.47-1.45,10.48-1,1.9-2.9,3.46-5.8,4.68-2.34.89-4.79,1.45-7.47,1.45l-.67-2.9c2.68-.33,4.68-.67,5.69-1.11,2.23-.67,3.68-1.9,4.46-3.34.67-1.23,1-3.57,1-7.02v-1.11c-3.01,1.34-6.36,2.12-9.7,2.12-2.23,0-4.13-.67-5.91-2.12-1.9-1.45-2.9-3.46-2.9-5.8v-18.84l4.46-1.56v18.84c0,2.01.67,3.57,1.9,4.68s3.01,1.67,5.02,1.56c2.12-.11,4.24-.89,6.69-2.45V15.94h4.46l.22,24.42h0Zm17.62,2.9c-.56.11-1,.11-1.45.11-2.56,0-4.46-.56-5.91-1.78s-2.12-2.9-2.12-5.02v-17.84h-3.12v-2.9h3.12v-7.36l4.46-1.56v9.14h5.02v2.9h-5.02v17.62c0,1.67.45,2.9,1.34,3.57.78.56,2.01.89,3.68,1v2.12h0Zm27.21-.33h-4.46v-17.28c0-1.78-.45-3.23-1.23-4.57-.89-1.45-2.34-2.12-3.9-2.12-2.12,0-4.68,1.11-7.69,3.23v20.74h-4.46V1.45l4.46-1.45v18.95c2.9-2.12,6.02-3.12,9.48-3.12,2.34,0,4.24.78,5.8,2.45,1.45,1.56,2.23,3.57,2.23,6.02l-.22,18.62h0Zm23.86-13.94c0-2.9-.56-5.13-1.56-7.02-1.34-2.23-3.23-3.46-5.91-3.57-4.91.33-7.36,3.79-7.36,10.59,0,3.12.45,5.69,1.56,7.8,1.34,2.68,3.23,3.9,5.91,3.9,4.91-.11,7.36-4.01,7.36-11.71h0Zm4.91,0c0,4.01-1,7.36-3.12,10.03-2.34,3.01-5.35,4.46-9.37,4.46s-7.02-1.45-9.25-4.46c-2.01-2.68-3.01-6.02-3.01-10.03,0-3.79,1.11-6.91,3.23-9.59,2.34-2.68,5.24-4.13,9.03-4.13s6.8,1.34,9.14,4.13c2.34,2.56,3.34,5.8,3.34,9.59h0Zm25.87,13.94h-4.46v-18.29c0-2.01-.56-3.57-1.78-4.68s-2.9-1.67-4.91-1.67c-2.12.11-4.13.67-6.02,2.12v22.52h-4.46v-23.08c2.56-1.9,5.02-3.12,7.14-3.68s3.9-.78,5.46-.78c1.11,0,2.12.11,3.01.33,1.78.45,3.23,1.11,4.24,2.34,1.23,1.23,1.9,2.68,1.9,4.46v20.4h-.11Z" style="stroke-width:0px;"/><path d="m131.33,62.94h-4.24c-.22.11-.22,12.82-.22,12.82h2.34v-4.68h2.12c2.79,0,4.91-1.34,4.91-4.13,0-3.01-2.12-4.01-4.91-4.01Zm-.22,6.36h-1.9v-4.46h1.9c1.9,0,2.9.45,2.9,2.12,0,1.56-.89,2.34-2.9,2.34Z" style="stroke-width:0px;"/><path d="m141.59,66.06c-1.45,0-2.9.56-3.9,1.34l.89,1.45c.89-.45,1.67-.89,2.68-.89,1.34,0,1.67.89,1.67,1.9-4.01.22-5.8,1.34-5.8,3.34,0,1.67,1.12,2.9,2.9,2.9,1.12,0,2.12-.56,3.01-1.34h.11l.11,1.11h1.9v-5.69c0-2.68-1.12-4.13-3.57-4.13Zm1.23,7.14c-.67.67-1.34,1.11-2.12,1.11s-1.34-.33-1.34-1.23.89-1.67,3.46-2.01v2.12Z" style="stroke-width:0px;"/><path d="m147.28,70.97c0,3.23,2.01,5.02,4.68,5.02,1.11,0,2.34-.45,3.12-1.23l-.89-1.45c-.45.45-1.23.89-2.01.89-1.45,0-2.56-1.34-2.56-3.23s1.11-3.23,2.68-3.23c.67,0,1.11.33,1.67.67l1.11-1.45c-.67-.67-1.56-1.11-2.9-1.11-2.68.11-4.91,2.01-4.91,5.13h0Z" style="stroke-width:0px;"/><polygon points="156.98 75.76 159.21 75.76 159.21 73.31 160.66 71.64 163.11 75.87 165.56 75.87 161.88 70.19 165.12 66.29 162.66 66.29 159.09 70.75 158.98 70.75 158.98 62.05 156.75 62.05 156.98 75.76 156.98 75.76" style="stroke-width:0px;"/><path d="m171.02,66.06c-1.45,0-2.9.56-3.9,1.34l.89,1.45c.89-.45,1.67-.89,2.68-.89,1.34,0,1.67.89,1.67,1.9-4.01.22-5.8,1.34-5.8,3.34,0,1.67,1.11,2.9,2.9,2.9,1.11,0,2.12-.56,3.01-1.34h.11l.11,1.11h1.9v-5.69c0-2.68-1.11-4.13-3.57-4.13Zm1.23,7.14c-.67.67-1.34,1.11-2.12,1.11s-1.34-.33-1.34-1.23.89-1.67,3.46-2.01v2.12Z" style="stroke-width:0px;"/><path d="m185.85,66.17h-3.46c-.45-.11-.89-.22-1.45-.22-2.01,0-3.79,1.23-3.79,3.46,0,1.11.67,2.12,1.34,2.56v.11c-.56.33-1.12,1.12-1.12,1.78,0,.78.33,1.34.89,1.67v.11c-1.23.45-1.56,1.11-1.56,1.9,0,1.67,1.67,2.45,4.01,2.45,3.12,0,5.13-1.45,5.13-3.46,0-1.67-1.23-2.34-3.46-2.34h-1.67c-1.12,0-1.56-.33-1.56-.89,0-.45.11-.67.45-.89.45.11.89.33,1.34.33,2.12,0,3.68-1.11,3.68-3.23,0-.67-.22-1.34-.56-1.67h1.78v-1.67Zm-5.35,9.81h1.34c1.12,0,1.67.22,1.67.89,0,.89-1.12,1.56-2.68,1.56-1.34.11-2.34-.33-2.34-1.23,0-.45.22-.89.67-1.34.33.11.78.11,1.34.11Zm.22-4.57c-.89,0-1.67-.67-1.67-1.9s.67-1.9,1.67-1.9c.89,0,1.67.67,1.67,1.9.11,1.12-.67,1.9-1.67,1.9Z" style="stroke-width:0px;"/><path d="m194.77,70.3c0-2.68-1.34-4.57-4.01-4.57-2.01.22-4.24,2.12-4.24,5.24s2.12,5.02,4.68,5.02c1.23,0,2.34-.45,3.23-1.12l-.78-1.45c-.67.45-1.45.67-2.23.67-1.56,0-2.68-1-2.9-2.68h6.13c.11-.22.11-.67.11-1.11Zm-6.02-.11c.22-1.67,1.12-2.45,2.34-2.45,1.34,0,1.9.89,1.9,2.45h-4.24Z" style="stroke-width:0px;"/><polygon points="202.34 75.76 204.68 75.76 204.68 62.94 202.34 62.94 202.34 75.76 202.34 75.76" style="stroke-width:0px;"/><path d="m207.69,75.76h2.34v-6.69c.78-.78,1.34-1.23,2.23-1.23,1.11,0,1.45.56,1.45,2.23v5.8h2.34v-6.02c0-2.45-.89-3.9-2.9-3.9-1.34,0-2.34.67-3.12,1.45h-.11l-.11-1.34h-1.9c-.22.11-.22,9.7-.22,9.7Z" style="stroke-width:0px;"/><path d="m224.64,61.94v3.46l.11,1.56c-.67-.67-1.45-1.12-2.45-1.12-2.12.11-4.13,2.01-4.13,5.13s1.56,5.02,4.01,5.02c1.11,0,2.01-.56,2.68-1.34h.11l.11,1.12h1.9v-13.83h-2.34Zm-.11,11.04c-.67.67-1.34,1.12-2.01,1.12-1.34.11-2.12-1.12-2.12-3.12s1-3.23,2.23-3.23c.67,0,1.34.22,1.9.78v4.46Z" style="stroke-width:0px;"/><path d="m237.35,70.3c0-2.68-1.34-4.57-4.01-4.57-2.01.22-4.24,2.12-4.24,5.24s2.12,5.02,4.68,5.02c1.23,0,2.34-.45,3.23-1.12l-.78-1.45c-.67.45-1.45.67-2.23.67-1.56,0-2.68-1-2.9-2.68h6.13c.11-.22.11-.67.11-1.11Zm-6.02-.22c.22-1.67,1.11-2.45,2.34-2.45,1.34,0,1.9.89,1.9,2.45h-4.24Z" style="stroke-width:0px;"/><path d="m238.35,75.76h2.34l1-1.9c.33-.56.56-1.11.89-1.67h.11c.33.56.67,1.11,1,1.67l1.11,1.9h2.45l-3.12-4.79,2.9-4.91h-2.34l-.89,1.9c-.22.45-.45,1.11-.67,1.67h-.11c-.33-.56-.56-1.11-.89-1.67l-1.11-1.9h-2.45l2.9,4.68-3.12,5.02h0Z" style="stroke-width:0px;"/></svg>