<svg width="100%" height="100%" viewBox="0 0 31 32" version="1.1" xmlns="http://www.w3.org/2000/svg" xmlns:xlink="http://www.w3.org/1999/xlink" xml:space="preserve" xmlns:serif="http://www.serif.com/" style="fill-rule:evenodd;clip-rule:evenodd;stroke-linejoin:round;stroke-miterlimit:2;"><g><path d="M15.36,17.509c0.834,0 1.509,-0.676 1.509,-1.509c0,-0.834 -0.676,-1.509 -1.509,-1.509c-0.834,0 -1.509,0.676 -1.509,1.509c0,0.834 0.676,1.509 1.509,1.509Zm0,3.623c2.834,0 5.132,-2.298 5.132,-5.132c0,-2.834 -2.298,-5.132 -5.132,-5.132c-2.834,0 -5.132,2.298 -5.132,5.132c0,2.834 2.298,5.132 5.132,5.132Z"/><path d="M15.36,0c8.836,0 16,7.163 16,16c0,3.766 -1.301,7.228 -3.478,9.961l3.322,3.322l-2.562,2.562l-3.322,-3.322c-2.733,2.177 -6.195,3.478 -9.961,3.478c-8.837,0 -16,-7.164 -16,-16c0,-8.837 7.163,-16 16,-16Zm12.377,16c0,-6.836 -5.541,-12.377 -12.377,-12.377c-6.836,0 -12.377,5.542 -12.377,12.377c-0,6.836 5.542,12.377 12.377,12.377c2.764,0 5.317,-0.906 7.378,-2.438l-2.319,-2.319c-0.707,-0.707 -0.707,-1.854 0,-2.562c0.707,-0.707 1.854,-0.707 2.562,0l2.319,2.319c1.532,-2.06 2.438,-4.613 2.438,-7.378Z"/></g></svg>