<svg xmlns="http://www.w3.org/2000/svg" xml:space="preserve" style="fill-rule:evenodd;clip-rule:evenodd;stroke-linejoin:round;stroke-miterlimit:2" viewBox="0 0 31 32"><path d="M15.36 17.509a1.509 1.509 0 1 0 0-3.018 1.509 1.509 0 0 0 0 3.018Zm0 3.623a5.132 5.132 0 1 0 0-10.265 5.132 5.132 0 0 0 0 10.265Z"/><path d="M15.36 0c8.836 0 16 7.163 16 16 0 3.766-1.301 7.228-3.478 9.961l3.322 3.322-2.562 2.562-3.322-3.322a15.932 15.932 0 0 1-9.961 3.478c-8.837 0-16-7.164-16-16 0-8.837 7.163-16 16-16Zm12.377 16c0-6.836-5.541-12.377-12.377-12.377S2.983 9.165 2.983 16c0 6.836 5.542 12.377 12.377 12.377 2.764 0 5.317-.906 7.378-2.438l-2.319-2.319a1.812 1.812 0 0 1 2.562-2.562l2.319 2.319a12.32 12.32 0 0 0 2.438-7.378Z"/></svg>