<?xml version="1.0" encoding="UTF-8" standalone="no"?>
<svg height="32" version="1.1" viewBox="0 0 32 32" width="32" xml:space="preserve" id="svg4" xmlns="http://www.w3.org/2000/svg" xmlns:svg="http://www.w3.org/2000/svg"><defs id="defs4" /><g id="g5" transform="matrix(0.06941027,0,0,0.06941027,-1.7606442,-1.7353959)"><g id="形状_1_7_" style="fill:#000000;enable-background:new"><g id="形状_1" style="fill:#000000"><g id="g1" style="fill:#000000"><path d="m 426.204,367.404 c -10.842,-22.444 -38.108,-34.774 -65.94,-15.49 -25.296,17.484 -48.21,37.054 -84.58,51.705 -69.234,28.904 -158.221,28.763 -228.957,-57.157 -0.445,0.472 -1.771,1.05 -1.111,2.657 15.95,38.997 60.328,103.976 148.088,128.143 34.626,9.537 80.468,15.269 137.748,-4.333 17.919,-6.128 37.724,-16.314 53.347,-27.439 19.992,-14.249 32.525,-28.698 36.515,-33.063 7.774,-8.542 13.559,-27.064 4.89,-45.023 z" style="clip-rule:evenodd;fill:#000000;fill-rule:evenodd" id="path1" /></g></g></g><g id="形状_1_6_" style="fill:#000000;enable-background:new"><g id="形状_1_1_" style="fill:#000000"><g id="g2" style="fill:#000000"><path d="M 479.214,199.653 C 470.28,164.851 452.547,121.849 407.063,81.867 392.849,69.395 374.665,58.031 357.248,49.997 338.706,41.411 321.151,36.567 311.449,35.384 299.54,33.922 283.437,34.618 269.018,52.855 c -14.208,17.982 -10.214,50.655 20.495,64.653 28.015,12.791 55.22,22.483 85.986,46.805 59.459,45.749 103.536,119.405 65.368,224.971 0.645,0.162 1.323,0.479 2.452,-0.861 17.834,-20.672 58.499,-100.574 35.895,-188.77 z" style="clip-rule:evenodd;fill:#000000;fill-rule:evenodd" id="path2" /></g></g></g><g id="形状_1_5_" style="fill:#000000;enable-background:new"><g id="形状_1_2_" style="fill:#000000"><g id="g3" style="fill:#000000"><path d="m 287.111,29.296 c -0.185,-0.642 0.027,-2.106 -1.684,-2.349 C 247.778,21.332 165.251,24.198 98.86,86.5 72.646,111.096 43.848,147.19 30.728,206.319 c -4.093,18.455 -5.734,40.674 -4.393,59.831 1.71,24.471 7.532,42.686 9.182,48.359 3.202,11.08 16.017,25.691 35.852,27.642 24.8,2.475 49.548,-14.366 47.625,-48.177 -1.741,-30.724 -6.5,-60.44 -0.058,-99.126 11.438,-74.143 57.967,-150.023 168.175,-165.552 z" style="clip-rule:evenodd;fill:#000000;fill-rule:evenodd" id="path3" /></g></g></g><g id="形状_1_4_" style="fill:#000000;enable-background:new"><g id="形状_1_3_" style="fill:#000000"><g id="g4" style="fill:#000000"><path d="m 333.903,237.811 c 0.415,-16.18 -1.845,-45.343 -21.081,-65.112 -12.603,-13.001 -30.456,-19.594 -53.016,-19.594 -0.206,0 -0.412,0.001 -0.618,0.001 -0.205,0 -0.413,-0.001 -0.616,-0.001 -22.408,-10e-4 -40.143,6.558 -52.721,19.501 -19.189,19.788 -21.48,49.216 -21.047,65.663 -12.423,15.261 -21.809,49.442 -19.499,55.706 0.642,1.77 2.013,2.171 2.557,2.263 1.205,0.183 2.388,0.276 3.55,0.276 6.304,0 12.013,-2.726 17.408,-8.306 1.858,4.067 7.901,15.421 9.741,18.248 0.137,0.221 0.24,0.404 0.317,0.556 -0.163,0.045 -0.367,0.097 -0.621,0.146 -3.569,0.67 -8.76,3.507 -12.299,8.329 -2.957,3.995 -2.682,7.562 -1.949,9.823 1.465,4.576 6.136,8.361 13.117,10.588 9.814,3.168 18.747,4.271 26.442,4.271 14.533,0 24.652,-3.936 27.958,-5.339 2.652,-1.128 5.243,-1.638 7.73,-1.638 2.865,0 5.594,0.678 8.118,1.861 3.966,1.862 14.414,4.851 27.722,4.851 8.409,0 17.958,-1.193 27.741,-4.614 6.375,-2.226 10.644,-5.77 11.984,-9.917 0.948,-2.988 0.369,-6.076 -1.68,-8.913 -3.622,-5.112 -7.611,-7.969 -13.261,-9.477 2.577,-3.935 8.786,-16.339 9.604,-18.288 l 0.013,-0.028 c 3.632,4.167 10.65,8.271 16.949,8.271 1.628,0 3.207,-0.273 4.668,-0.892 0.918,-0.394 2.104,-1.277 2.658,-3.381 2.486,-9.306 -10,-41.389 -19.869,-54.854 z" style="clip-rule:evenodd;fill:#000000;fill-rule:evenodd" id="path4" /></g></g></g></g></svg>
