<?xml version="1.0" encoding="utf-8"?>
<!-- Generator: Adobe Illustrator 23.0.6, SVG Export Plug-In . SVG Version: 6.00 Build 0)  -->
<svg version="1.1" id="Camada_1" xmlns="http://www.w3.org/2000/svg" xmlns:xlink="http://www.w3.org/1999/xlink" x="0px" y="0px"
	 viewBox="0 0 300 120" style="enable-background:new 0 0 300 120;" xml:space="preserve">
<title>quora</title>
<g id="Page-1">
	<g id="Imported-Layers">
		<path id="Fill-1" d="M42.7,83.2c-2.9-5.7-6.3-11.4-12.8-11.4c-1.3,0-2.5,0.2-3.7,0.7L24,68.1c2.7-2.3,7.1-4.2,12.8-4.2
			c8.8,0,13.3,4.2,16.9,9.7c2.1-4.6,3.1-10.9,3.1-18.6c0-19.3-6-29.3-20.2-29.3c-13.9,0-19.9,9.9-19.9,29.3s6,29,19.9,29
			C38.7,84,40.8,83.7,42.7,83.2L42.7,83.2z M46.2,90c-3.1,0.8-6.3,1.3-9.5,1.3C18.1,91.2,0,76.5,0,55c0-21.7,18.1-36.5,36.7-36.5
			c18.8,0,36.8,14.7,36.8,36.5c0.1,11.1-5.1,21.6-13.9,28.3c2.7,4,5.4,6.6,9.2,6.6c4.2,0,5.8-3.2,6.1-5.7h5.4
			c0.3,3.4-1.4,17.3-16.5,17.3C54.6,101.5,49.8,96.2,46.2,90L46.2,90z"/>
		<path id="Fill-2" d="M85.4,71.5V46.7c0-2.8-1-4.1-4.3-4.1h-3.4V36h22.6v35.2c0,5.9,3.2,8.6,8.1,8.6c4.2,0.1,8.2-2.1,10.2-5.8V46.7
			c0-2.8-1-4.1-4.3-4.1h-3.7V36h22.8v36.9c0,3.7,1.4,5.3,5.6,5.3h0.7v6.8l-20.4,3.3v-7h-0.4c-4.2,5.3-10.7,8.3-17.4,8.1
			C92.5,89.4,85.4,84.9,85.4,71.5"/>
		<path id="Fill-3" d="M169.4,82.8c8,0,11.1-7,11.3-21.1c0.2-13.8-3.2-20.4-11.3-20.4c-7,0-11.4,6.7-11.4,20.4
			C157.9,75.8,162.3,82.8,169.4,82.8L169.4,82.8z M169.4,89.3c-14.5,0-27.6-11.1-27.6-27.7c0-16.3,12.8-27,27.6-27
			c15.5,0,27.9,11,27.9,27C197.3,78.2,184.8,89.3,169.4,89.3z"/>
		<path id="Fill-4" d="M197.7,88.3v-6.6h2.2c5.4,0,6-1.6,6-6.3V46.7c0-2.8-1.5-4.1-4.8-4.1h-2.9V36h20.7l1,10.8h0.4
			c2.3-7.8,8.5-11.9,14.3-11.9c4.8,0,8.5,2.7,8.5,8.3c0,3.8-1.9,7.9-7,7.9c-4.6,0-5.6-3.2-9.4-3.2c-3.4,0-6.1,3.3-6.1,8v19.4
			c0,4.7,1.1,6.3,6.5,6.3h3v6.6L197.7,88.3"/>
		<path id="Fill-5" d="M266.7,80.6c6.6,0,9.3-6.3,9.3-12.5v-8.4c-4.8,5-16,5.2-16,14.1C260,78.1,262.6,80.6,266.7,80.6L266.7,80.6z
			 M276.4,80.6c-2.7,5.2-8.3,8.8-16.1,8.8c-9.1,0-15-4.8-15-13.3c0-17.1,23.8-12.6,30.8-23.9V51c0-8.7-3.4-10.1-7.2-10.1
			c-10.6,0-5.8,11.4-15.5,11.4c-4.7,0-6.5-2.8-6.5-6c0-6.4,7.7-11.6,22.1-11.6c13.7,0,22,3.8,22,17.4v21.7c0,3.3,1.2,5.2,4.2,5.2
			c1.1,0,2.2-0.3,3.1-0.9l1.8,4.3c-1.4,2.2-5.2,6.1-12.5,6.1c-6.3,0-10.2-2.9-10.8-7.7L276.4,80.6z"/>
	</g>
</g>
</svg>
