<?xml version="1.0" encoding="UTF-8" standalone="no"?>
<svg width="32" height="32" viewBox="0 0 32 32" fill="none" version="1.1" id="svg1" sodipodi:docname="quora.svg" inkscape:version="1.4-beta2 (9aaf4f34, 2024-07-30)" xmlns:inkscape="http://www.inkscape.org/namespaces/inkscape" xmlns:sodipodi="http://sodipodi.sourceforge.net/DTD/sodipodi-0.dtd" xmlns="http://www.w3.org/2000/svg" xmlns:svg="http://www.w3.org/2000/svg">
  <defs id="defs1" />
  <sodipodi:namedview id="namedview1" pagecolor="#ffffff" bordercolor="#000000" borderopacity="0.25" inkscape:showpageshadow="2" inkscape:pageopacity="0.0" inkscape:pagecheckerboard="0" inkscape:deskcolor="#d1d1d1" inkscape:zoom="2.1385338" inkscape:cx="12.157862" inkscape:cy="35.772172" inkscape:window-width="1440" inkscape:window-height="790" inkscape:window-x="0" inkscape:window-y="0" inkscape:window-maximized="1" inkscape:current-layer="svg1" />
  <path fill-rule="evenodd" clip-rule="evenodd" d="m 32,16 c 0,3.8376 -1.35104,7.35968 -3.60352,10.11648 L 31.52,29.24 c 0,0 0.48,0.44 0.48,1.16 0,0.72 -0.64,1.6 -1.6,1.6 H 16 C 7.16344,32 0,24.83648 0,16 0,7.16344 7.16344,0 16,0 24.83648,0 32,7.16344 32,16 Z m -16,9.6 c 5.30192,0 9.6,-4.29808 9.6,-9.6 0,-5.301936 -4.29808,-9.6 -9.6,-9.6 -5.301936,0 -9.6,4.298064 -9.6,9.6 0,5.30192 4.298064,9.6 9.6,9.6 z" fill="#B92B27" id="path1" style="fill:#000000;stroke-width:0.16" />
</svg>
