<?xml version="1.0" encoding="UTF-8" standalone="no"?>
<svg width="32" height="32" viewBox="0 0 32 32" fill="none" version="1.1" id="svg2" sodipodi:docname="qwant.svg" inkscape:version="1.4-beta2 (9aaf4f34, 2024-07-30)" xmlns:inkscape="http://www.inkscape.org/namespaces/inkscape" xmlns:sodipodi="http://sodipodi.sourceforge.net/DTD/sodipodi-0.dtd" xmlns="http://www.w3.org/2000/svg" xmlns:svg="http://www.w3.org/2000/svg">
  <defs id="defs2" />
  <sodipodi:namedview id="namedview2" pagecolor="#ffffff" bordercolor="#000000" borderopacity="0.25" inkscape:showpageshadow="2" inkscape:pageopacity="0.0" inkscape:pagecheckerboard="0" inkscape:deskcolor="#d1d1d1" inkscape:zoom="1.6441448" inkscape:cx="25.545195" inkscape:cy="70.857505" inkscape:window-width="1440" inkscape:window-height="790" inkscape:window-x="0" inkscape:window-y="0" inkscape:window-maximized="1" inkscape:current-layer="svg2" />
  <g id="g2" transform="matrix(0.6666668,0,0,0.6666668,2.0613972,-2.1447409e-8)">
    <path d="M 32.971,5.44943 34.3767,0 h 0.5252 l 1.4057,5.44943 5.5082,1.42091 V 7.36518 L 36.3076,8.78609 34.9019,14.2356 H 34.3767 L 32.971,8.78609 27.5802,7.3955 V 6.84002 Z" fill="#F9FAFB" id="path1" style="fill:#000000" />
    <path fill-rule="evenodd" clip-rule="evenodd" d="m 15.5329,10.3262 c 8.5786,0 15.533,5.1773 15.533,15.2328 0,9.5163 -6.1444,14.6013 -14.0066,15.1777 3.7398,2.2849 9.3863,2.2877 12.899,-0.695 l 1.0965,0.5947 -1.2301,6.1467 -0.4538,0.5714 C 23.1349,49.1893 17.4775,47.1561 13.5295,40.6963 5.89726,39.9542 0,34.8963 0,25.559 0,15.5008 6.95434,10.3262 15.5329,10.3262 Z m 7e-4,27.7605 c 5.5115,0 8.1593,-5.6088 8.1593,-12.5277 0,-6.9188 -2.2944,-12.5276 -8.1593,-12.5276 -5.69988,0 -8.15933,5.6088 -8.15933,12.5276 0,6.9189 2.36311,12.5277 8.15933,12.5277 z" fill="#F9FAFB" id="path2" style="fill:#000000" />
  </g>
</svg>
