<svg width="32" height="32" xmlns="http://www.w3.org/2000/svg">
  <path d="M0 0h150v150H0Z" style="fill:none"/>
  <path d="M21.35 21.057c-.284-.088-.305-.48.02-.61 5.625-2.66 5.255-8.698 5.255-8.698C26.603 5.623 22.112-.045 14.876 0 6.811.043 1.97 6.388 2.016 13.885 2.081 27.007 12.107 32.021 15.225 32l-.022-5.211c0-.83 0-1.483.501-1.483 0 0 3.228 3.227 6.802 3.227 5.58-.022 7.478-4.708 7.478-4.708l-8.633-2.768Zm-6.452-4.011c-2.857.021-5.167-2.289-5.188-5.145-.021-2.856 2.288-5.166 5.145-5.188 2.856-.021 5.166 2.289 5.187 5.145a5.19 5.19 0 0 1-5.144 5.188z" style="fill:#000;stroke-width:.237633"/>
</svg>