<?xml version="1.0" encoding="UTF-8" standalone="no"?>
<!DOCTYPE svg PUBLIC "-//W3C//DTD SVG 1.1//EN" "http://www.w3.org/Graphics/SVG/1.1/DTD/svg11.dtd">
<!-- Created with Vectornator (http://vectornator.io/) -->
<svg height="100%" stroke-miterlimit="10" style="fill-rule:nonzero;clip-rule:evenodd;stroke-linecap:round;stroke-linejoin:round;" version="1.1" viewBox="0 0 186.67 80" width="100%" xml:space="preserve" xmlns="http://www.w3.org/2000/svg" xmlns:xlink="http://www.w3.org/1999/xlink">
<defs/>
<path d="M0 0L186.67 0L186.67 80L0 80L0 0Z" fill="#000000" fill-opacity="0" fill-rule="nonzero" opacity="1" stroke="none"/>
<g id="Sem-Título">
<g opacity="1">
<path d="M151.81 18.283C153.624 18.239 155.393 18.8742 156.761 20.0668C158.168 21.362 159.143 23.058 159.554 24.9253C160.085 27.2954 160.191 29.7411 159.867 32.1483C159.453 35.3424 158.659 38.4768 157.495 41.4817C156.427 44.4372 155.058 47.2761 153.407 49.9491L151.156 53.2054C151.117 53.2625 151.12 53.3377 151.164 53.3895C151.208 53.4414 151.283 53.4569 151.345 53.4258L152.65 52.6325C153.653 51.9791 154.62 51.2739 155.545 50.5169C158.06 48.448 159.878 45.661 160.762 42.5317L162.527 36.9317L165.877 28.5057C166.73 26.5667 167.688 24.6756 168.747 22.8408C169.499 21.5238 170.782 20.5879 172.268 20.2742C173.575 19.976 174.936 19.9968 176.232 20.3338C177.416 20.6313 178.481 21.2835 179.284 22.2031C180.113 23.0768 180.321 24.3705 179.805 25.4594L178.651 28.1246L176.538 33.0609L174.166 39.0731C173.445 40.9606 172.838 42.8895 172.351 44.8495C171.975 46.219 171.814 47.6383 171.871 49.0573C171.954 50.0995 172.354 50.0995 172.561 50.0995C173.194 50.0191 173.779 49.7262 174.223 49.2699C175.107 48.5284 175.944 47.7299 176.727 46.8821C177.609 45.9397 178.437 44.9477 179.206 43.9109L181.005 41.4091C181.426 40.795 182.125 40.4313 182.869 40.4394C183.65 40.4394 184.381 40.8257 184.824 41.4687L184.707 41.5076C185.105 42.1181 185.093 42.9087 184.676 43.5065L181.884 47.7273C180.426 49.8687 178.83 51.9125 177.106 53.8458C175.299 55.8966 173.276 57.7503 171.075 59.3732C169.141 60.9132 166.759 61.787 164.288 61.8673C162.26 61.8673 160.754 61.1647 159.795 59.7647C158.861 58.2351 158.405 56.4617 158.491 54.6703L158.491 54.3384C158.496 54.2217 158.431 54.1154 158.327 54.0636C158.224 54.0117 158.099 54.0299 158.008 54.1051L156.704 55.1266C153.93 57.1825 150.894 58.8573 147.674 60.1095C144.537 61.3281 141.2 61.9347 137.838 61.9062C137.369 61.9062 136.886 61.8751 136.404 61.8751C134.003 61.8673 132.222 61.1051 131.107 59.6144C130.912 59.354 130.732 59.0821 130.568 58.8003C130.511 58.6966 130.394 58.6343 130.275 58.6499C130.156 58.6655 130.057 58.7484 130.026 58.8651L129.002 62.3755L127.216 68.7662L125.912 73.884L125.183 77.3944L125.183 77.4281C125.01 78.652 124.081 79.632 122.868 79.8704C122.469 79.9585 122.064 80 121.655 80C120.858 79.9899 120.069 79.8443 119.321 79.5696C118.064 79.1056 116.944 78.3355 116.06 77.3296C115.069 76.2146 114.54 74.7635 114.582 73.2722C114.704 72.0355 114.945 70.8144 115.298 69.6244L117.19 62.461L119.002 56.2725C119.044 56.1532 119.002 56.0184 118.899 55.9432C118.795 55.868 118.655 55.8654 118.551 55.9432C116.106 57.6077 113.483 58.9947 110.727 60.0758C107.592 61.2944 104.253 61.9036 100.89 61.8751C100.421 61.8751 99.9388 61.8414 99.4565 61.8414C97.0558 61.8362 95.2772 61.074 94.1624 59.5806C93.9649 59.3203 93.7831 59.0485 93.6179 58.7666C93.5635 58.6629 93.4468 58.6032 93.3276 58.6162C93.2083 58.6292 93.1098 58.7173 93.0787 58.8314L92.0546 62.3444L90.2683 68.7325L88.9331 73.8581L88.2019 77.3685L88.2019 77.4022C88.0287 78.6261 87.0996 79.6061 85.8867 79.8444C85.4908 79.9318 85.0866 79.9752 84.6812 79.9741C83.8846 79.9639 83.0956 79.8184 82.3478 79.5437C81.0904 79.0796 79.9703 78.3096 79.0863 77.3037C78.0951 76.1887 77.5665 74.7376 77.6085 73.2463C77.7303 72.0096 77.9714 70.7885 78.324 69.5985L80.2166 62.4351L81.767 57.0995C81.8059 56.9725 81.7567 56.8351 81.6426 56.7625C81.5285 56.6899 81.3833 56.7106 81.2848 56.8014C80.3178 57.6932 79.304 58.5358 78.2463 59.3214C76.3433 60.8692 73.984 61.7532 71.5313 61.8414C69.5091 61.8414 67.9976 61.1388 67.0383 59.7388C66.6365 59.1373 66.3305 58.4788 66.1309 57.784C66.043 57.4792 65.7981 57.2452 65.4897 57.1712C65.1812 57.0971 64.8568 57.1945 64.6401 57.4262C63.979 58.1184 63.2557 58.7484 62.4753 59.3006C61.4335 60.0392 60.3028 60.6437 59.1101 61.0999C57.8143 61.5879 56.4398 61.8331 55.0552 61.8232C53.217 61.857 51.4307 61.2295 50.0151 60.0577C48.5503 58.8029 47.4847 57.1488 46.9506 55.2951C46.3051 52.9462 46.0847 50.4988 46.2999 48.0721C46.5488 44.9065 47.184 41.7798 48.1925 38.7646C50.474 31.7516 53.3726 26.6312 57.0256 23.3127C60.6786 19.9942 64.3861 18.3012 68.0443 18.3012C69.408 18.2493 70.7613 18.5734 71.9539 19.2345C72.9362 19.8052 73.7419 20.636 74.2821 21.6353C74.6374 22.3042 74.8966 23.0199 75.0521 23.7612C75.0677 23.8183 75.1169 23.8623 75.1766 23.8701C75.236 23.8777 75.2945 23.8504 75.327 23.8001L75.8533 22.8927C76.5947 21.5886 77.8548 20.6579 79.3222 20.3338C80.6289 20.0331 81.9874 20.0512 83.2863 20.3856C84.4919 20.676 85.5782 21.332 86.3975 22.2627C87.2271 23.1364 87.4345 24.4301 86.916 25.519L85.7649 28.1816L83.6389 33.1257L81.2641 39.138C80.5436 41.0249 79.9384 42.9539 79.4518 44.9143C79.0759 46.2832 78.9126 47.7039 78.9696 49.1221C79.0552 50.1643 79.4518 50.1643 79.6618 50.1643C80.2944 50.0839 80.8804 49.791 81.3237 49.3347L82.7393 48.0332C84.5671 46.291 85.9334 44.1209 86.7216 41.7228L90.2216 32.0524L93.9654 23.1546C94.5124 21.892 95.5754 20.9249 96.8873 20.4971C98.0902 20.0953 99.3762 20.0071 100.621 20.2431C101.805 20.4534 102.916 20.962 103.848 21.7208C104.224 22.0205 104.548 22.3796 104.808 22.7838C104.873 22.8538 104.945 22.8668 105.036 22.7838C106.122 21.7727 107.297 20.8653 108.544 20.0668C110.41 18.8742 112.583 18.2571 114.797 18.283C116.612 18.2397 118.378 18.8759 119.749 20.0668C121.152 21.3631 122.121 23.0612 122.528 24.9253C123.06 27.2949 123.166 29.7424 122.839 32.1483C122.427 35.3424 121.631 38.4768 120.467 41.4817C119.401 44.4375 118.031 47.275 116.381 49.9491L114.139 53.2054C114.097 53.2625 114.1 53.3377 114.146 53.3895C114.193 53.4414 114.266 53.4569 114.328 53.4258L115.629 52.6325L117.672 51.1599C120.197 49.222 122.084 46.5727 123.091 43.5532L123.48 42.3735L127.211 32.0187L130.952 23.1208C131.499 21.8582 132.562 20.8912 133.874 20.4634C135.077 20.0616 136.363 19.9734 137.607 20.2094C138.791 20.4208 139.901 20.9293 140.835 21.6871C141.224 21.9959 141.559 22.3664 141.828 22.7838C141.893 22.8538 141.965 22.8668 142.056 22.7838C143.141 21.774 144.315 20.8646 145.564 20.0668C147.428 18.8768 149.598 18.2568 151.81 18.283ZM30.3863 1.60741C33.1781 1.60416 35.9607 1.92697 38.6775 2.56927C41.2628 3.15705 43.7414 4.14182 46.0251 5.48854C48.1198 6.71952 49.9288 8.38184 51.3322 10.3652C52.7192 12.3771 53.44 14.7727 53.3985 17.2097C53.4218 19.8982 52.8022 22.5505 51.5862 24.9486C50.3544 27.3381 48.7035 29.4869 46.7121 31.2927C44.565 33.2324 42.1648 34.872 39.5772 36.1668C37.3014 37.3138 34.936 38.2736 32.5045 39.0368C32.4371 39.0472 32.3775 39.0861 32.3386 39.1406C32.2997 39.195 32.2841 39.2624 32.2945 39.3298L32.5538 42.9387L33.1034 46.8458L33.8993 50.3769L34.6823 52.8969L35.2423 54.3825C35.6204 55.299 36.0471 56.1947 36.5205 57.0658C36.9508 57.8702 37.4269 58.6493 37.9464 59.3992C38.4287 60.081 38.9524 60.7344 39.5202 61.3514C40.0455 61.9234 40.6094 62.4587 41.208 62.9536C41.768 63.4151 42.3643 63.8351 42.9865 64.211C43.5824 64.5628 44.2038 64.8696 44.8454 65.1288C45.4806 65.3803 46.1339 65.5799 46.8028 65.7251C47.4654 65.8755 48.1391 65.9718 48.8173 66.0129C49.5173 66.0648 50.2173 66.0648 50.9173 66.0129C51.6537 65.9507 52.3848 65.8314 53.1055 65.6629C53.8781 65.4814 54.6352 65.2481 55.3741 64.9655C56.1756 64.6627 56.9575 64.3103 57.7152 63.9103L58.6097 63.4229C59.5767 62.8603 60.8134 63.1273 61.4616 64.0347C62.1097 64.9422 61.9697 66.197 61.1245 66.9333L59.8878 67.9807L56.9193 70.2285L54.1244 71.9914L52.6752 72.7744C51.7418 73.2489 50.7825 73.674 49.7999 74.0448C48.8688 74.3916 47.9173 74.6808 46.9506 74.9107C46.0378 75.1334 45.111 75.2945 44.1765 75.3929L42.2191 75.4915L41.4491 75.4915C40.5728 75.4526 39.7016 75.3489 38.8409 75.1803L37.5757 74.8796L36.3494 74.4803C35.5478 74.1899 34.7702 73.8371 34.0238 73.4252C33.2735 73.0142 32.5542 72.5489 31.8719 72.0329C31.3064 71.6065 30.7646 71.1495 30.2489 70.664C29.6059 70.0522 29.0044 69.3988 28.4418 68.7092C27.8611 68.0092 27.3218 67.2729 26.8266 66.5081L25.3981 64.0529L24.1588 61.3566L23.1166 58.4321L22.261 55.2951L21.6103 51.9454L21.2058 48.8395C21.2006 48.6917 21.0866 48.5699 20.9388 48.5543C20.791 48.5387 20.6536 48.6424 20.6251 48.7876L20.6121 48.7876L19.5699 52.7854L18.455 57.1877L17.8017 60.2625C17.5891 61.5536 16.5572 62.5518 15.2609 62.7255C13.9594 62.9536 12.6242 62.8421 11.3798 62.3988C10.042 61.9529 8.82601 61.1984 7.83304 60.1977C6.74154 59.1218 6.14005 57.6414 6.17635 56.1066C6.2982 53.9573 6.63524 51.8288 7.18229 49.7443C7.83304 46.8536 8.7975 43.4132 10.0238 39.5372L14.4054 26.9372L19.2536 15.3093C19.8343 14.0493 21.0321 13.1834 22.4114 13.0227C25.1155 12.6441 27.8637 12.7375 30.5341 13.2897C31.1892 13.4466 31.7415 13.885 32.043 14.4875C32.3417 15.0911 32.355 15.7967 32.0793 16.4112L28.0192 26.219L25.1933 33.8853C25.1544 33.9968 25.1855 34.1239 25.2737 34.2042C25.3618 34.2846 25.4914 34.3028 25.6003 34.2509C26.8145 33.6801 27.9883 33.027 29.1133 32.2961C30.993 31.0905 32.7067 29.649 34.213 28.0027C35.6908 26.3823 36.9094 24.5442 37.8246 22.5531C38.7424 20.5464 39.2142 18.3634 39.2064 16.1571C39.2064 13.2327 38.3975 11.0756 36.8005 9.74042C35.2034 8.40522 32.9012 7.68967 30 7.68967C27.084 7.651 24.211 8.39499 21.6803 9.84412C19.2287 11.2513 17.035 13.0662 15.1935 15.2108C13.4616 17.2175 12.0461 19.4756 10.9935 21.9075C10.112 23.8001 9.60899 25.8509 9.51565 27.9379C9.56731 29.0791 8.81928 30.1031 7.71637 30.4009C6.64371 30.723 5.49331 30.6699 4.45484 30.2505C3.23136 29.7481 2.17453 28.9106 1.40591 27.8342C0.420711 26.4316-0.0718882 24.7412 0.00848331 23.0275C0.00848331 21.2827 0.661826 19.2242 2.03073 16.743C3.54483 14.0882 5.50486 11.716 7.83304 9.73523C10.6751 7.3243 13.8882 5.38859 17.348 4.00298C21.492 2.35043 25.9229 1.53705 30.3837 1.61001L30.3863 1.60741ZM110.053 26.0298L109.99 26.0375C109.637 26.0861 109.306 26.2376 109.039 26.4731C108.129 27.1757 107.315 27.9975 106.62 28.9153C105.584 30.2473 104.643 31.6508 103.804 33.1153C102.775 34.8898 101.861 36.7283 101.067 38.6194C100.266 40.5162 99.5708 42.4558 98.9847 44.4295C98.4817 46.0758 98.0747 47.7506 97.7662 49.4436C97.528 50.609 97.4624 51.8031 97.5717 52.9877C97.7013 53.9832 98.0073 54.1932 98.098 54.2321C98.1421 54.2425 98.1862 54.2425 98.2276 54.2321C98.581 54.1855 98.9129 54.0358 99.1817 53.8017C100.097 53.0939 100.908 52.2617 101.593 51.3284C102.616 49.9815 103.543 48.5641 104.367 47.0869L107.162 41.5569C107.965 39.6661 108.666 37.7336 109.262 35.7676C109.76 34.1322 110.167 32.4704 110.48 30.7898L110.454 30.7794C110.693 29.6283 110.758 28.4512 110.649 27.2794C110.514 26.2916 110.208 26.0764 110.115 26.0349C110.073 26.0272 110.032 26.0272 109.99 26.0349C109.99 26.0349 110.053 26.0298 110.053 26.0298ZM147.065 26.0246L147.003 26.0298C146.651 26.0812 146.32 26.2324 146.051 26.4653C145.146 27.1653 144.34 27.9794 143.653 28.8894C142.615 30.2205 141.673 31.6241 140.835 33.0894C139.808 34.8817 138.896 36.7375 138.105 38.6454C137.297 40.5329 136.594 42.4639 136 44.4295C135.494 46.0758 135.087 47.748 134.781 49.4436C134.538 50.6084 134.472 51.8031 134.584 52.9877C134.714 53.9832 135.02 54.1932 135.113 54.2321C135.154 54.2425 135.199 54.2425 135.243 54.2321C135.595 54.185 135.926 54.0353 136.194 53.8017C137.108 53.0926 137.92 52.2603 138.605 51.3284C139.629 49.9802 140.55 48.5647 141.372 47.0869L144.174 41.5569C144.97 39.6643 145.662 37.725 146.248 35.7546C146.746 34.1213 147.156 32.4594 147.467 30.7768C147.702 29.6249 147.766 28.4447 147.656 27.2742C147.526 26.2838 147.218 26.0686 147.127 26.0298C147.088 26.022 147.044 26.022 147.003 26.0298C147.003 26.0298 147.065 26.0246 147.065 26.0246ZM69.6854 25.8483L69.6284 25.8535C69.2913 25.9027 68.9802 26.0505 68.7339 26.2786C67.862 26.9846 67.1001 27.8165 66.4731 28.7468C65.5242 30.0898 64.6842 31.5053 63.9557 32.9805C63.1131 34.6476 62.286 36.5091 61.5031 38.5105C60.759 40.3902 60.1367 42.3165 59.6467 44.2791C59.2315 45.9054 58.9394 47.5607 58.773 49.231C58.6425 50.4071 58.6573 51.5948 58.8171 52.7673C58.9882 53.7706 59.3071 53.991 59.3978 54.0299C59.4393 54.0377 59.4808 54.0377 59.5223 54.0299C59.8567 53.9832 60.1678 53.8354 60.4141 53.6073C61.2827 52.9073 62.0475 52.0906 62.6827 51.178C63.6368 49.8558 64.4768 48.4558 65.2001 46.9961C66.0557 45.3032 66.875 43.4183 67.6528 41.4661C68.395 39.5843 69.0151 37.6566 69.5091 35.695C69.9232 34.056 70.2281 32.3914 70.4217 30.712C70.5959 29.5329 70.5871 28.334 70.3958 27.1575C70.1754 26.1205 69.8435 25.9001 69.745 25.8535C69.7061 25.8457 69.6672 25.8457 69.6284 25.8535C69.6284 25.8535 69.6854 25.8483 69.6854 25.8483ZM178.402 0C182.964 0.00142435 186.663 3.6959 186.67 8.25745C186.664 12.82 182.965 16.5161 178.402 16.5175C173.841 16.5146 170.143 12.819 170.137 8.25745C170.137 3.69705 173.836 0 178.4 0L178.402 0Z" fill="#000000" fill-rule="nonzero" opacity="1" stroke="none"/>
</g>
</g>
</svg>
