<?xml version="1.0" encoding="UTF-8"?><svg id="a" xmlns="http://www.w3.org/2000/svg" viewBox="0 0 140 80"><g id="b"><path d="m113.86,23.71c1.36-.03,2.69.44,3.71,1.34,1.06.97,1.79,2.24,2.09,3.64.4,1.78.48,3.61.23,5.42-.31,2.4-.91,4.75-1.78,7-.8,2.22-1.83,4.35-3.07,6.35l-1.69,2.44s-.03.1,0,.14c.03.04.09.05.14.03l.98-.59c.75-.49,1.48-1.02,2.17-1.59,1.89-1.55,3.25-3.64,3.91-5.99l1.32-4.2,2.51-6.32c.64-1.45,1.36-2.87,2.15-4.25.56-.99,1.53-1.69,2.64-1.92.98-.22,2-.21,2.97.04.89.22,1.69.71,2.29,1.4.62.66.78,1.63.39,2.44l-.87,2-1.58,3.7-1.78,4.51c-.54,1.42-1,2.86-1.36,4.33-.28,1.03-.4,2.09-.36,3.16.06.78.36.78.52.78.47-.06.91-.28,1.25-.62.66-.56,1.29-1.16,1.88-1.79.66-.71,1.28-1.45,1.86-2.23l1.35-1.88c.32-.46.84-.73,1.4-.73.59,0,1.13.29,1.47.77l-.09.03c.3.46.29,1.05-.02,1.5l-2.09,3.17c-1.09,1.61-2.29,3.14-3.58,4.59-1.36,1.54-2.87,2.93-4.52,4.15-1.45,1.16-3.24,1.81-5.09,1.87-1.52,0-2.65-.53-3.37-1.58-.7-1.15-1.04-2.48-.98-3.82v-.25c0-.09-.04-.17-.12-.21-.08-.04-.17-.03-.24.03l-.98.77c-2.08,1.54-4.36,2.8-6.77,3.74-2.35.91-4.86,1.37-7.38,1.35-.35,0-.71-.02-1.08-.02-1.8,0-3.14-.58-3.97-1.7-.15-.2-.28-.4-.4-.61-.04-.08-.13-.12-.22-.11-.09.01-.16.07-.19.16l-.77,2.63-1.34,4.79-.98,3.84-.55,2.63v.03c-.13.92-.83,1.65-1.74,1.83-.3.07-.6.1-.91.1-.6,0-1.19-.12-1.75-.32-.94-.35-1.78-.93-2.45-1.68-.74-.84-1.14-1.92-1.11-3.04.09-.93.27-1.84.54-2.74l1.42-5.37,1.36-4.64c.03-.09,0-.19-.08-.25-.08-.06-.18-.06-.26,0-1.83,1.25-3.8,2.29-5.87,3.1-2.35.91-4.86,1.37-7.38,1.35-.35,0-.71-.03-1.08-.03-1.8,0-3.13-.58-3.97-1.7-.15-.2-.28-.4-.41-.61-.04-.08-.13-.12-.22-.11-.09,0-.16.08-.19.16l-.77,2.63-1.34,4.79-1,3.84-.55,2.63v.03c-.13.92-.83,1.65-1.74,1.83-.3.07-.6.1-.9.1-.6,0-1.19-.12-1.75-.32-.94-.35-1.78-.93-2.45-1.68-.74-.84-1.14-1.92-1.11-3.04.09-.93.27-1.84.54-2.74l1.42-5.37,1.16-4c.03-.1,0-.2-.09-.25-.09-.05-.19-.04-.27.03-.73.67-1.49,1.3-2.28,1.89-1.43,1.16-3.2,1.82-5.04,1.89-1.52,0-2.65-.53-3.37-1.58-.3-.45-.53-.94-.68-1.47-.07-.23-.25-.4-.48-.46-.23-.06-.47.02-.64.19-.5.52-1.04.99-1.62,1.41-.78.55-1.63,1.01-2.52,1.35-.97.37-2,.55-3.04.54-1.38.03-2.72-.45-3.78-1.32-1.1-.94-1.9-2.18-2.3-3.57-.48-1.76-.65-3.6-.49-5.42.19-2.37.66-4.72,1.42-6.98,1.71-5.26,3.89-9.1,6.62-11.59s5.52-3.76,8.26-3.76c1.02-.04,2.04.2,2.93.7.74.43,1.34,1.05,1.75,1.8.27.5.46,1.04.58,1.59.01.04.05.08.09.08.04,0,.09-.01.11-.05l.39-.68c.56-.98,1.5-1.68,2.6-1.92.98-.23,2-.21,2.97.04.9.22,1.72.71,2.33,1.41.62.66.78,1.63.39,2.44l-.86,2-1.59,3.71-1.78,4.51c-.54,1.42-.99,2.86-1.36,4.33-.28,1.03-.4,2.09-.36,3.16.06.78.36.78.52.78.47-.06.91-.28,1.25-.62l1.06-.98c1.37-1.31,2.4-2.93,2.99-4.73l2.62-7.25,2.81-6.67c.41-.95,1.21-1.67,2.19-1.99.9-.3,1.87-.37,2.8-.19.89.16,1.72.54,2.42,1.11.28.22.52.49.72.8.05.05.1.06.17,0,.81-.76,1.7-1.44,2.63-2.04,1.4-.89,3.03-1.36,4.69-1.34,1.36-.03,2.69.44,3.71,1.34,1.05.97,1.78,2.25,2.08,3.64.4,1.78.48,3.61.23,5.42-.31,2.4-.91,4.75-1.78,7-.8,2.22-1.83,4.34-3.06,6.35l-1.68,2.44s-.03.1,0,.14c.04.04.09.05.14.03l.98-.59,1.53-1.1c1.89-1.45,3.31-3.44,4.06-5.71l.29-.88,2.8-7.77,2.81-6.67c.41-.95,1.21-1.67,2.19-1.99.9-.3,1.87-.37,2.8-.19.89.16,1.72.54,2.42,1.11.29.23.54.51.74.82.05.05.1.06.17,0,.81-.76,1.69-1.44,2.63-2.04,1.4-.89,3.03-1.36,4.68-1.34ZM22.79,11.21c2.09,0,4.18.24,6.22.72,1.94.44,3.8,1.18,5.51,2.19,1.57.92,2.93,2.17,3.98,3.66,1.04,1.51,1.58,3.31,1.55,5.13.02,2.02-.45,4.01-1.36,5.8-.92,1.79-2.16,3.4-3.66,4.76-1.61,1.45-3.41,2.68-5.35,3.66-1.71.86-3.48,1.58-5.3,2.15-.05,0-.1.04-.12.08-.03.04-.04.09-.03.14l.19,2.71.41,2.93.6,2.65.59,1.89.42,1.11c.28.69.6,1.36.96,2.01.32.6.68,1.19,1.07,1.75.36.51.75,1,1.18,1.46.39.43.82.83,1.27,1.2.42.35.87.66,1.33.94.45.26.91.49,1.39.69.48.19.97.34,1.47.45.5.11,1,.19,1.51.22.53.04,1.05.04,1.58,0,.55-.05,1.1-.14,1.64-.26.58-.14,1.15-.31,1.7-.52.6-.23,1.19-.49,1.76-.79l.67-.37c.73-.42,1.65-.22,2.14.46.49.68.38,1.62-.25,2.17l-.93.79-2.23,1.69-2.1,1.32-1.09.59c-.7.36-1.42.67-2.16.95-.7.26-1.41.48-2.14.65-.68.17-1.38.29-2.08.36l-1.47.07h-.58c-.66-.03-1.31-.11-1.96-.23l-.95-.23-.92-.3c-.6-.22-1.18-.48-1.74-.79-.56-.31-1.1-.66-1.61-1.04-.42-.32-.83-.66-1.22-1.03-.48-.46-.93-.95-1.36-1.47-.44-.52-.84-1.08-1.21-1.65l-1.07-1.84-.93-2.02-.78-2.19-.64-2.35-.49-2.51-.3-2.33c0-.11-.09-.2-.2-.21-.11-.01-.21.07-.24.17h0l-.78,3-.84,3.3-.49,2.31c-.16.97-.93,1.72-1.91,1.85-.98.17-1.98.09-2.91-.25-1-.33-1.92-.9-2.66-1.65-.82-.81-1.27-1.92-1.24-3.07.09-1.61.34-3.21.75-4.77.49-2.17,1.21-4.75,2.13-7.66l3.29-9.45,3.64-8.72c.44-.95,1.33-1.59,2.37-1.71,2.03-.28,4.09-.21,6.09.2.49.12.91.45,1.13.9.22.45.23.98.03,1.44l-3.05,7.36-2.12,5.75c-.03.08,0,.18.06.24.07.06.16.07.24.04.91-.43,1.79-.92,2.63-1.47,1.41-.9,2.7-1.99,3.82-3.22,1.11-1.22,2.02-2.59,2.71-4.09.69-1.51,1.04-3.14,1.04-4.8,0-2.19-.61-3.81-1.8-4.81-1.2-1-2.92-1.54-5.1-1.54-2.19-.03-4.34.53-6.24,1.62-1.84,1.06-3.48,2.42-4.87,4.03-1.3,1.51-2.36,3.2-3.15,5.02-.66,1.42-1.04,2.96-1.11,4.52.04.86-.52,1.62-1.35,1.85-.8.24-1.67.2-2.45-.11-.92-.38-1.71-1-2.29-1.81C.32,29.82-.05,28.56,0,27.27c0-1.31.49-2.85,1.52-4.71,1.14-1.99,2.61-3.77,4.35-5.26,2.13-1.81,4.54-3.26,7.14-4.3,3.11-1.24,6.43-1.85,9.78-1.79h0Zm59.75,18.32h-.05c-.26.04-.51.16-.71.33-.68.53-1.29,1.14-1.81,1.83-.78,1-1.48,2.05-2.11,3.15-.77,1.33-1.46,2.71-2.05,4.13-.6,1.42-1.12,2.88-1.56,4.36-.38,1.23-.68,2.49-.91,3.76-.18.87-.23,1.77-.15,2.66.1.75.33.9.39.93.03,0,.07,0,.1,0,.27-.03.51-.15.72-.32.69-.53,1.29-1.16,1.81-1.85.77-1.01,1.46-2.07,2.08-3.18l2.1-4.15c.6-1.42,1.13-2.87,1.57-4.34.37-1.23.68-2.47.91-3.73h-.02c.18-.87.23-1.75.15-2.63-.1-.74-.33-.9-.4-.93-.03,0-.06,0-.09,0h.05Zm27.76,0h-.05c-.26.04-.51.16-.71.33-.68.53-1.28,1.14-1.8,1.82-.78,1-1.48,2.05-2.11,3.15-.77,1.34-1.45,2.74-2.05,4.17-.61,1.42-1.13,2.86-1.58,4.34-.38,1.23-.68,2.49-.91,3.76-.18.87-.23,1.77-.15,2.66.1.75.33.9.4.93.03,0,.06,0,.1,0,.26-.04.51-.15.71-.32.69-.53,1.29-1.16,1.81-1.85.77-1.01,1.46-2.07,2.08-3.18l2.1-4.15c.6-1.42,1.12-2.87,1.56-4.35.37-1.22.68-2.47.91-3.73.18-.86.22-1.75.14-2.63-.1-.74-.33-.9-.4-.93-.03,0-.06,0-.09,0h.05Zm-58.03-.13h-.04c-.25.04-.49.15-.67.32-.65.53-1.23,1.15-1.7,1.85-.71,1.01-1.34,2.07-1.89,3.18-.63,1.25-1.25,2.65-1.84,4.15-.56,1.41-1.02,2.85-1.39,4.33-.31,1.22-.53,2.46-.66,3.71-.1.88-.09,1.77.03,2.65.13.75.37.92.44.95.03,0,.06,0,.09,0,.25-.04.48-.15.67-.32.65-.53,1.23-1.14,1.7-1.82.72-.99,1.35-2.04,1.89-3.14.64-1.27,1.26-2.68,1.84-4.15.56-1.41,1.02-2.86,1.39-4.33.31-1.23.54-2.48.68-3.74.13-.88.12-1.78-.02-2.67-.17-.78-.41-.94-.49-.98-.03,0-.06,0-.09,0h.04Zm81.54-19.39c3.42,0,6.2,2.77,6.2,6.19,0,3.42-2.78,6.19-6.2,6.2-3.42,0-6.19-2.77-6.2-6.2,0-3.42,2.77-6.19,6.2-6.19h0Z" style="stroke-width:0px;"/></g></svg>