<svg width="32" height="32" fill="none" viewBox="0 0 74.667 24" class="sc-hiMGwR fWXsGK" xmlns="http://www.w3.org/2000/svg">
  <path d="M37.333-25.333A37.333 37.333 0 0 0 0 12a37.333 37.333 0 0 0 37.333 37.333A37.333 37.333 0 0 0 74.667 12a37.333 37.333 0 0 0-37.334-37.333ZM27.622 2.033c1.604-.022 3.178.434 4.644 1.304 1.604.948 3.058 2.122 4.543 3.24.208.156.363.237.524.232.154.005.308-.076.515-.232 1.485-1.118 2.947-2.292 4.544-3.24 2.358-1.391 4.972-1.723 7.556-.734 1.49.57 2.868 1.489 4.174 2.415C55.81 6.211 57.318 7.642 59 8.846c3.663 2.618 6.714 2.434 10.153-.487.285-.238.563-.486.848-.725-.511 2.753-1.617 5.216-3.245 7.456-2.078 2.85-4.8 4.904-8.221 6.02-8.001 2.63-18.107-1.029-21.2-7.934-3.095 6.906-13.2 10.564-21.201 7.934-3.42-1.116-6.144-3.17-8.222-6.02-1.627-2.241-2.74-4.705-3.244-7.456.28.24.563.486.847.725 3.434 2.92 6.487 3.105 10.145.487 1.681-1.205 3.19-2.635 4.876-3.828 1.307-.925 2.699-1.843 4.184-2.415a8.4 8.4 0 0 1 2.903-.57z" style="fill:#000;fill-rule:evenodd;stroke:#000;stroke-width:0;stroke-linecap:round;paint-order:stroke fill markers"/>
</svg>