<?xml version="1.0" encoding="UTF-8" standalone="no"?>
<svg width="31.999998" height="32" fill="none" viewBox="0 0 74.666663 24" class="sc-hiMGwR fWXsGK" version="1.1" id="svg1" xmlns="http://www.w3.org/2000/svg" xmlns:svg="http://www.w3.org/2000/svg">
  <defs id="defs1" />
  <path d="M 37.333333,-25.333333 A 37.333332,37.333332 0 0 0 0,12 37.333332,37.333332 0 0 0 37.333333,49.333333 37.333332,37.333332 0 0 0 74.666667,12 37.333332,37.333332 0 0 0 37.333333,-25.333333 Z M 27.621745,2.0332031 c 1.604622,-0.021955 3.178255,0.4342185 4.64388,1.3033854 1.604167,0.9484999 3.058454,2.1225674 4.54362,3.2402344 0.207667,0.156333 0.363088,0.2370889 0.524088,0.2324219 0.154001,0.0046 0.307307,-0.076089 0.514974,-0.2324219 1.485166,-1.117667 2.946454,-2.2917345 4.54362,-3.2402344 2.357834,-1.3906671 4.971823,-1.7230571 7.55599,-0.733724 1.491,0.569334 2.867812,1.4890316 4.174479,2.4153646 1.687,1.192334 3.195135,2.6241251 4.876302,3.8281251 3.663333,2.6179998 6.714312,2.4337018 10.153646,-0.4876303 0.284666,-0.238 0.562989,-0.4854433 0.847656,-0.7246093 -0.511001,2.7533324 -1.617291,5.2157284 -3.244791,7.4557294 -2.077834,2.850168 -4.800689,4.903682 -8.221355,6.020182 -8.001,2.629666 -18.106521,-1.028745 -21.200521,-7.934245 -3.094,6.906668 -13.199521,10.563911 -21.20052,7.934245 -3.420668,-1.1165 -6.1435216,-3.170014 -8.2213546,-6.020182 -1.6275,-2.241167 -2.7396257,-4.70473 -3.2447917,-7.4557294 0.28,0.239166 0.5629892,0.4854433 0.8476562,0.7246093 3.4335,2.9201661 6.4870311,3.1056301 10.1445311,0.4876303 1.681166,-1.205167 3.189303,-2.6357921 4.876302,-3.8281251 1.306668,-0.925167 2.698428,-1.8436986 4.183594,-2.4153646 0.966875,-0.3705626 1.940222,-0.5564885 2.902995,-0.5696614 z" style="opacity:0.94;fill:#000000;fill-rule:evenodd;stroke:#000000;stroke-width:0;stroke-linecap:round;paint-order:stroke fill markers" id="path3" />
</svg>
