<?xml version="1.0" encoding="UTF-8" standalone="no"?>
<svg width="32" height="32" fill="none" viewBox="0 0 74.666667 24" class="sc-hiMGwR fWXsGK" version="1.1" id="svg1" sodipodi:docname="rappi.svg" inkscape:version="1.4-beta2 (9aaf4f34, 2024-07-30)" xmlns:inkscape="http://www.inkscape.org/namespaces/inkscape" xmlns:sodipodi="http://sodipodi.sourceforge.net/DTD/sodipodi-0.dtd" xmlns="http://www.w3.org/2000/svg" xmlns:svg="http://www.w3.org/2000/svg">
  <defs id="defs1" />
  <sodipodi:namedview id="namedview1" pagecolor="#ffffff" bordercolor="#000000" borderopacity="0.25" inkscape:showpageshadow="2" inkscape:pageopacity="0.0" inkscape:pagecheckerboard="0" inkscape:deskcolor="#d1d1d1" inkscape:zoom="1.0833333" inkscape:cx="12" inkscape:cy="11.538462" inkscape:window-width="1440" inkscape:window-height="790" inkscape:window-x="0" inkscape:window-y="0" inkscape:window-maximized="1" inkscape:current-layer="svg1" />
  <g id="g1" transform="matrix(1.3333333,0,0,1.3333333,1.1e-6,0.61024826)">
    <path fill="#FF441F" fill-rule="evenodd" d="m 46.572,5.84 c 3.14,2.244 5.752,2.084 8.7,-0.42 0.244,-0.204 0.484,-0.413 0.728,-0.618 -0.438,2.36 -1.385,4.469 -2.78,6.389 -1.781,2.443 -4.118,4.204 -7.05,5.161 C 39.312,18.606 30.652,15.469 28,9.55 25.348,15.47 16.688,18.606 9.83,16.352 6.898,15.395 4.561,13.634 2.78,11.191 1.385,9.27 0.433,7.16 0,4.802 c 0.24,0.205 0.484,0.414 0.728,0.619 2.943,2.503 5.56,2.663 8.695,0.419 1.441,-1.033 2.734,-2.26 4.18,-3.282 1.12,-0.793 2.311,-1.58 3.584,-2.07 2.21,-0.847 4.46,-0.563 6.47,0.629 1.375,0.813 2.622,1.82 3.895,2.778 0.178,0.134 0.31,0.204 0.448,0.2 0.132,0.004 0.265,-0.066 0.443,-0.2 1.273,-0.958 2.525,-1.965 3.894,-2.778 2.021,-1.192 4.261,-1.476 6.476,-0.628 1.278,0.488 2.459,1.276 3.579,2.07 1.446,1.022 2.739,2.248 4.18,3.28 z" clip-rule="evenodd" id="path1" style="fill:#000000" />
  </g>
</svg>
