<?xml version="1.0" encoding="UTF-8" standalone="no"?>
<svg fill="none" height="32" width="32" viewBox="0.607 -88.202913 10.029653 14.108298" version="1.1" id="svg3" sodipodi:docname="rarbg.svg" inkscape:version="1.4-beta2 (9aaf4f34, 2024-07-30)" xmlns:inkscape="http://www.inkscape.org/namespaces/inkscape" xmlns:sodipodi="http://sodipodi.sourceforge.net/DTD/sodipodi-0.dtd" xmlns="http://www.w3.org/2000/svg" xmlns:svg="http://www.w3.org/2000/svg">
  <defs id="defs3" />
  <sodipodi:namedview id="namedview3" pagecolor="#ffffff" bordercolor="#000000" borderopacity="0.25" inkscape:showpageshadow="2" inkscape:pageopacity="0.0" inkscape:pagecheckerboard="0" inkscape:deskcolor="#d1d1d1" inkscape:zoom="0.23800226" inkscape:cx="1128.1405" inkscape:cy="749.99288" inkscape:window-width="1440" inkscape:window-height="872" inkscape:window-x="0" inkscape:window-y="0" inkscape:window-maximized="1" inkscape:current-layer="svg3" />
  <g fill="#3860bb" id="g2" style="fill:#000000" transform="matrix(0.11355955,0,0,0.11355955,-2.7170216,-90.276283)">
    <path d="M 130.878,142.495 H 92.831 L 58.205,96.939 h -11.18 v 45.556 H 15.985 V 18.258 h 49.978 c 6.898,0 12.905,0.445 18.023,1.335 5.117,0.835 9.845,2.615 14.184,5.34 4.45,2.837 7.982,6.453 10.596,10.847 2.614,4.339 3.922,9.873 3.922,16.604 0,9.511 -2.142,17.243 -6.425,23.195 -4.283,5.896 -10.012,10.596 -17.188,14.1 z M 80.649,56.305 c 0,-3.115 -0.612,-5.785 -1.836,-8.01 -1.168,-2.28 -3.142,-4.032 -5.923,-5.256 -1.947,-0.834 -4.117,-1.363 -6.508,-1.585 -2.391,-0.222 -5.368,-0.334 -8.928,-0.334 h -10.43 v 33.458 h 8.928 c 4.339,0 8.01,-0.25 11.014,-0.751 3.059,-0.556 5.645,-1.697 7.76,-3.421 2.002,-1.558 3.476,-3.42 4.421,-5.59 1.001,-2.17 1.502,-5.006 1.502,-8.51 z" id="path1" style="fill:#000000" />
  </g>
</svg>
