<svg id="Camada_1" data-name="Camada 1" xmlns="http://www.w3.org/2000/svg" viewBox="0 0 200 51.84"><defs><style>.cls-1{fill-rule:evenodd;}</style></defs><path class="cls-1" d="M51,60.08l2.51-8.18H66.2l2.52,8.18H79.09L65.45,19.82h-11L41.29,58.91,28.67,43a15.18,15.18,0,0,0,4.06-2.87,14,14,0,0,0,1.47-1.7,12.54,12.54,0,0,0,2.16-7.51A9.69,9.69,0,0,0,31.66,22a12.09,12.09,0,0,0-4.6-1.74,34.52,34.52,0,0,0-5.83-.43H5V60.08H15.05V45.31h3.63L29.89,60.08ZM20,55.34l5.89,7.76a5,5,0,0,0,4,2H51a5,5,0,0,0,4.76-3.53l1.47-4.7h5.28L64,61.54a5,5,0,0,0,4.77,3.53H79.09a5.09,5.09,0,0,0,2-.42,5.09,5.09,0,0,0,2,.42H93.18a5,5,0,0,0,5-5h0V55.34l5.89,7.76a5,5,0,0,0,4,2h12.32a4.76,4.76,0,0,0,1.5-.24,4.8,4.8,0,0,0,1.5.24h16.11a30.87,30.87,0,0,0,8.24-.91,19.26,19.26,0,0,0,6.74-3.41A16,16,0,0,0,158.54,56a22.22,22.22,0,0,0,2.63,3.1h0c4.88,4.72,11.27,6.86,18.6,6.86a39.56,39.56,0,0,0,9.51-1.17,53,53,0,0,0,7.6-2.34A5,5,0,0,0,200,57.79V38A5,5,0,0,0,199,34.9a5,5,0,0,0,.9-2.86V22.6A5,5,0,0,0,197,18.16a47.91,47.91,0,0,0-7.28-2.88,33.16,33.16,0,0,0-9.66-1.19c-7.55,0-14.08,2.23-19,7.18h0a23.67,23.67,0,0,0-3.57,4.65,13.8,13.8,0,0,0-1.35-3.63,12.72,12.72,0,0,0-5.23-5.1,17.62,17.62,0,0,0-5.93-2,51.4,51.4,0,0,0-7.44-.41H123.36a5,5,0,0,0-5,5h0v5a13.44,13.44,0,0,0-.91-1.82,15.51,15.51,0,0,0-5-5.16h0A17.1,17.1,0,0,0,106,15.36a37.19,37.19,0,0,0-6.67-.51H83.13a5,5,0,0,0-4.95,5V41.64l-7.9-23.38a5,5,0,0,0-4.72-3.39H54.49a5,5,0,0,0-4.72,3.39L39.5,48.62,35.86,44a17.78,17.78,0,0,0,2.4-2.73h0a17.48,17.48,0,0,0,3.05-10.41,15.32,15.32,0,0,0-2-7.94,15.51,15.51,0,0,0-5-5.16h0a17.08,17.08,0,0,0-6.43-2.42,37.15,37.15,0,0,0-6.66-.51H5a5,5,0,0,0-5,5V60.08a5,5,0,0,0,5,5H15.05a5,5,0,0,0,4.95-5Zm63.1,4.74H93.18V45.31h3.64L108,60.08h12.32L106.82,43a15.56,15.56,0,0,0,4.09-2.87,13.18,13.18,0,0,0,1.47-1.7,12.58,12.58,0,0,0,2.08-7.51,10.25,10.25,0,0,0-1.27-5.39,10.44,10.44,0,0,0-3.43-3.5,12.09,12.09,0,0,0-4.6-1.74,34.52,34.52,0,0,0-5.83-.43H83.13ZM103.64,34.9a6.82,6.82,0,0,0,.48-2.72,5.42,5.42,0,0,0-.59-2.6,3.71,3.71,0,0,0-1.92-1.7,6.4,6.4,0,0,0-2.11-.51c-.44-.05-.86-.07-1.29-.08h-5V38.07h2.9A20.75,20.75,0,0,0,98.17,38a10.48,10.48,0,0,0,1.48-.17,5.33,5.33,0,0,0,2.51-1.11,4.58,4.58,0,0,0,1.44-1.82Zm-4.82-2,.23-.07h0a4.34,4.34,0,0,0,0-.51H99l-.82-.05V33ZM114.05,44l4.37,5.52v-12a14.62,14.62,0,0,1-2,3.73h0a17.78,17.78,0,0,1-2.4,2.73Zm9.31,16h16.11a25.82,25.82,0,0,0,6.9-.76,14.07,14.07,0,0,0,5-2.53A10.87,10.87,0,0,0,154.43,53a10.31,10.31,0,0,0,1-3.39,14.71,14.71,0,0,0,.12-1.88,9.81,9.81,0,0,0-1.45-5.51,8.57,8.57,0,0,0-.79-1,9.09,9.09,0,0,0-.78-.74,11.18,11.18,0,0,0-5.1-2.45h-.1v-.21h.06a8.56,8.56,0,0,0,4-3.35c.06-.1.13-.2.18-.3a9.46,9.46,0,0,0,1.31-4.95,9,9,0,0,0-1.08-4.54,7.72,7.72,0,0,0-3.22-3.11,12.8,12.8,0,0,0-4.3-1.41,48.59,48.59,0,0,0-6.71-.35H123.36Zm14.82-32.83h.22a6.08,6.08,0,0,1,2.15.45,3,3,0,0,1,1.55,1.5,4.35,4.35,0,0,1,.52,2,5.45,5.45,0,0,1-.47,2.32,3.28,3.28,0,0,1-1.67,1.57,6,6,0,0,1-2.08.56h-.08c-.69,0-1.9.05-3.64.05h-1.27V27.25h.71c1.82,0,3.15,0,4,.05Zm6.37,22.93a5.47,5.47,0,0,0,.64-2.63,5,5,0,0,0-.75-2.92A4.59,4.59,0,0,0,142.16,43a7.57,7.57,0,0,0-2.54-.38h-6.17v10h6a8.46,8.46,0,0,0,3.09-.72,4,4,0,0,0,2-1.73Zm-5.07-2.54h-1v.06h.85Zm19.61-6.83a26.19,26.19,0,0,0,1,6.93,12.74,12.74,0,0,0,.41,1.33,17.24,17.24,0,0,0,4.1,6.36q5.65,5.46,15.14,5.46a35.45,35.45,0,0,0,8.33-1,50.39,50.39,0,0,0,6.9-2.11V38H177.41V45.5h7.82v7.9c-.37,0-.78.07-1.28.09h-1.22c-.71,0-1.42,0-2.12-.11h-.32A12.51,12.51,0,0,1,173,50.17q-3.56-3.36-3.55-10.41a17,17,0,0,1,.91-5.79,11.93,11.93,0,0,1,2.55-4.11,10.67,10.67,0,0,1,3.81-2.49,13.15,13.15,0,0,1,4.73-.81,13.52,13.52,0,0,1,4.19.63,17.08,17.08,0,0,1,3.43,1.48l.7.42a20.56,20.56,0,0,1,2,1.36c.71.52,1.41,1.05,2.11,1.59h.91V22.6a46.26,46.26,0,0,0-6.55-2.6,28.91,28.91,0,0,0-8.18-1q-9.78,0-15.45,5.71T159,39.91v.91ZM176.9,33h9.84a13.33,13.33,0,0,0-2.5-1h0a9.07,9.07,0,0,0-2.73-.4,8,8,0,0,0-3,.49,5.43,5.43,0,0,0-1.67,1ZM25.45,34.9a6.83,6.83,0,0,0,.49-2.72,5.31,5.31,0,0,0-.59-2.6,3.75,3.75,0,0,0-1.92-1.7,6.46,6.46,0,0,0-2.11-.51A7.37,7.37,0,0,0,20,27.25H15.05V38.07h2.89c.69,0,1.39,0,2.09-.07a10.65,10.65,0,0,0,1.48-.17A5.33,5.33,0,0,0,24,36.72,4.56,4.56,0,0,0,25.45,34.9Zm-4.8-2,.23-.07h0a4.34,4.34,0,0,0,0-.51h-.1l-.78-.1V33Zm39.22-1.63L64,44.52H55.8Z" transform="translate(0 -14.08)"/></svg>