<svg id="Camada_1" data-name="Camada 1" xmlns="http://www.w3.org/2000/svg" viewBox="0 0 200 80"><defs><style>.cls-1,.cls-2{fill:#040405;}.cls-1{fill-rule:evenodd;}</style></defs><path class="cls-1" d="M150.08,47.1c0,9.6-5.56,16.21-15,16.21-3.88,0-7.44-1.62-9-4.11v3.61H118.2V18.68h7.87V34.89a11.47,11.47,0,0,1,9.13-4C144.52,30.9,150.08,37.51,150.08,47.1Zm-24.51,0c0,5.68,3.32,9.42,8.38,9.42s8.32-3.74,8.32-9.42S139,37.69,134,37.69,125.57,41.43,125.57,47.1Z"/><path class="cls-1" d="M37.77,62.81,28.14,43.3A12.17,12.17,0,0,0,35,32.08c0-7.85-5.56-12.9-14.13-12.9H0L.06,62.81h8.5V44.92H19.45l8.44,17.89ZM8.56,26.47h11c4.37,0,6.88,2.12,6.88,5.61S24,37.63,19.58,37.63h-11Z"/><path class="cls-1" d="M63.64,31.4h7.87V62.81H63.64V59.2c-1.57,2.49-5.07,4.11-9,4.11-9.44,0-15-6.61-15-16.21s5.56-16.2,14.88-16.2a11.47,11.47,0,0,1,9.13,4ZM47.44,47.1c0,5.68,3.32,9.42,8.32,9.42s8.38-3.74,8.38-9.42-3.32-9.41-8.38-9.41S47.44,41.43,47.44,47.1Z"/><path class="cls-2" d="M99.36,31.4l-.5,7.6a10.33,10.33,0,0,0-4-.75c-4.44,0-8.44,3.68-8.44,13V62.81H78.54V31.4h7.88v5.73a11,11,0,0,1,9.5-6.23A12.11,12.11,0,0,1,99.36,31.4Z"/><path class="cls-2" d="M111.19,62.81h-7.87V31.4h7.87Z"/><path class="cls-2" d="M155.42,62.81h7.88V18.68h-7.88Z"/><path class="cls-1" d="M200,46c0-7.29-5.19-15.14-15.82-15.14-10.44,0-15.56,8-15.56,16.2s5.56,16.21,16,16.21c7.38,0,12.88-3.49,14.63-9.41l-7.38-2c-.81,3.06-3.44,4.8-7.12,4.8-4.51,0-7.57-2.8-8.26-7.54h23.38C199.94,48.54,200,47.17,200,46Zm-23.32-2.61c.88-4.24,3.63-6.55,7.5-6.55,4.57,0,7,2.81,7.38,6.55Z"/><path class="cls-2" d="M102.38,20.3A3.61,3.61,0,0,1,106,16.69h2.59a3.61,3.61,0,0,1,3.61,3.61v2.58a3.62,3.62,0,0,1-3.61,3.62H106a3.62,3.62,0,0,1-3.61-3.62Z"/></svg>