<?xml version="1.0" encoding="UTF-8" standalone="no"?>
<svg version="1.1" width="32" height="32" id="svg4" sodipodi:docname="orig.svg" inkscape:version="1.4-beta2 (9aaf4f34, 2024-07-30)" xmlns:inkscape="http://www.inkscape.org/namespaces/inkscape" xmlns:sodipodi="http://sodipodi.sourceforge.net/DTD/sodipodi-0.dtd" xmlns="http://www.w3.org/2000/svg" xmlns:svg="http://www.w3.org/2000/svg">
  <defs id="defs4" />
  <sodipodi:namedview id="namedview4" pagecolor="#ffffff" bordercolor="#000000" borderopacity="0.25" inkscape:showpageshadow="2" inkscape:pageopacity="0.0" inkscape:pagecheckerboard="0" inkscape:deskcolor="#d1d1d1" inkscape:zoom="4.5151787" inkscape:cx="9.3019574" inkscape:cy="43.298397" inkscape:window-width="1440" inkscape:window-height="790" inkscape:window-x="0" inkscape:window-y="0" inkscape:window-maximized="1" inkscape:current-layer="g41" />
  <g id="g41">
    <g id="g42" transform="translate(0,808.45898)">
      <path id="path10" d="m 1,-807.45898 v 30 h 30 v -30 z m 7.875,6.225 c 2.75762,0 4.825828,8e-5 6.407666,0.0292 0.790918,0.0146 1.460241,0.0364 2.03335,0.0693 1.146216,0.0657 1.907642,0.17536 2.487157,0.358 0.289759,0.0913 0.533985,0.20101 0.758204,0.33253 0.224217,0.1315 0.428358,0.28491 0.637794,0.46391 0.209433,0.179 0.42417,0.38349 0.669579,0.61729 0.370539,0.38324 0.63269,0.78984 0.840088,1.25024 0.06913,0.15347 0.132223,0.31289 0.191162,0.47944 0.02166,0.0573 0.04331,0.11467 0.06563,0.17373 0.51982,1.43701 0.328855,3.2617 -0.290625,4.62627 -0.454658,0.91064 -1.144405,1.63195 -2.002734,2.14454 l 0.05273,0.10546 c -0.15,0.225 -0.15,0.225 -0.309375,0.27657 -0.0078,9.3e-4 -0.01569,0.003 -0.02344,0.004 0.05982,0.2333 0.157341,0.43687 0.276269,0.66459 l 0.07412,0.14297 c 0.07962,0.15319 0.159938,0.30596 0.240235,0.45879 0.05567,0.10679 0.111258,0.21368 0.166846,0.32051 0.305562,0.58656 0.613759,1.17172 0.922997,1.75635 0.313744,0.59469 0.621883,1.19235 0.929883,1.79004 0.0628,0.12183 0.125622,0.24369 0.188526,0.36547 0.0885,0.1714 0.176753,0.34278 0.26499,0.51431 0.02715,0.0525 0.05436,0.10513 0.08232,0.15923 0.09334,0.18188 0.14001,0.27282 0.163329,0.32871 0.02332,0.0559 0.02329,0.0767 0.02329,0.11851 h -5.025 c -0.768036,-1.45074 -0.768036,-1.45074 -1.017188,-1.99219 -0.198426,-0.42434 -0.399008,-0.84706 -0.609375,-1.26563 -0.0343,-0.0683 -0.03428,-0.0683 -0.06929,-0.13799 -0.127244,-0.25295 -0.254896,-0.50563 -0.382618,-0.75834 -0.120565,-0.23862 -0.240833,-0.47746 -0.360937,-0.71632 -0.0486,-0.0965 -0.09736,-0.19291 -0.146192,-0.2893 -0.06889,-0.13597 -0.137341,-0.27221 -0.20581,-0.4084 -0.04017,-0.0795 -0.08034,-0.159 -0.121729,-0.24097 -0.04343,-0.0954 -0.06517,-0.14312 -0.07602,-0.18573 -0.01086,-0.0427 -0.01084,-0.0802 -0.01084,-0.15513 H 13.375 v 6.15 h -4.5 z" style="stroke-width:0.075" />
      <path d="m 15.410152,-797.88593 c -0.245115,0.004 -0.245189,0.004 -0.48545,0.008 l -1.55625,0.0188 v 1.5e-4 4.875 c 0.533906,0.003 1.052109,0.007 1.570313,0.009 0.231079,0.002 0.462223,0.004 0.69331,0.005 0.06462,1.5e-4 0.127272,3e-4 0.18999,4.5e-4 0.777587,0.009 1.388759,-0.0595 2.023829,-0.53555 0.425909,-0.38035 0.713137,-0.85437 0.772558,-1.4291 0.03688,-0.81135 0.03306,-1.4949 -0.529981,-2.12285 -0.791638,-0.77512 -1.61745,-0.83983 -2.678319,-0.82911 z" style="fill:#010101;stroke-width:0.075" id="path14" />
      <path d="m 16.134763,-790.68945 c -0.105292,0.0629 -0.211984,0.12396 -0.322266,0.18047 0.01028,0.0722 0.02527,0.13954 0.04219,0.20552 0.0078,-9.4e-4 0.0157,-0.003 0.02344,-0.004 0.159375,-0.0516 0.159375,-0.0516 0.309374,-0.27656 z" style="fill:#141414;stroke-width:0.075" id="path12" />
    </g>
  </g>
</svg>
