<svg width="100%" height="100%" viewBox="0 0 32 32" version="1.1" xmlns="http://www.w3.org/2000/svg" style="fill-rule:evenodd;clip-rule:evenodd;stroke-linejoin:round;stroke-miterlimit:2;"><g><path d="M17.667,27.191c-0.216,0 -0.334,-0.072 -0.475,-0.213c-0.195,-0.196 -0.328,-0.509 -0.327,-0.906l0.026,-10.807c-0.026,-0.712 0.016,-1.152 0.426,-1.268c0.32,-0.091 0.77,0.227 1.063,0.408l9.347,5.425c0.424,0.247 0.658,0.566 0.657,0.898c-0.001,0.333 -0.203,0.619 -0.63,0.862l-9.372,5.381c-0.25,0.144 -0.498,0.22 -0.715,0.22Z" style="fill-rule:nonzero;"/><path d="M6.93,23.053c0,1.726 1.724,2.92 3.34,2.313l0.308,-0.116c0.119,-0.045 0.197,-0.083 0.344,-0.159c1.398,-0.718 2.717,-1.526 4.091,-2.288c0.369,-0.219 0.781,-0.045 0.759,0.384l-0.006,2.374c0,0.105 -0.057,0.202 -0.148,0.255l-10.482,5.808c-0.427,0.245 -0.852,0.376 -1.227,0.376c-0.377,0 -0.709,-0.131 -0.956,-0.38c-0.341,-0.341 -0.52,-0.882 -0.518,-1.563l-0.04,-17.849c0.002,-1.195 0.228,-2.141 1.088,-2.428c0.244,-0.081 0.645,-0.163 1.358,0.139c0.044,0.019 0.086,0.04 0.127,0.063l0.525,0.3c0.22,0.13 0.753,0.502 1.256,0.837c0.02,0.013 0.167,0.084 0.167,0.251l0,0.586" style="fill-rule:nonzero;"/><path d="M9.54,24.358c-0.427,0 -0.802,-0.149 -1.083,-0.43c-0.384,-0.385 -0.46,-1.059 -0.458,-1.826l0.047,-19.917c0.003,-1.348 0.643,-2.185 1.669,-2.185c0.425,-0 0.905,0.149 1.388,0.429l17.226,9.999c0.824,0.478 1.277,1.106 1.276,1.766c-0.001,0.66 -0.458,1.285 -1.284,1.759l-3.813,2.19c-0.327,0.188 -0.73,0.187 -1.056,-0.002l-5.102,-2.935c-0.355,-0.205 -0.701,-0.31 -1.031,-0.31c-0.248,0 -0.478,0.06 -0.683,0.178c-0.481,0.276 -0.812,0.762 -0.813,1.483l-0.014,6.006c-0.001,0.356 -0.192,0.685 -0.501,0.863l-4.259,2.445c-0.488,0.28 -1.08,0.486 -1.509,0.486l-0.001,-0.001Z" style="fill-rule:nonzero;"/></g></svg>