<?xml version="1.0" encoding="UTF-8"?><svg id="a" xmlns="http://www.w3.org/2000/svg" viewBox="0 0 231.67 80"><defs><style>.b{stroke-width:0px;}</style></defs><circle class="b" cx="209.33" cy="28.42" r="4.96"/><path class="b" d="m127.98,33.11c-7.45,0-13.51,6.89-13.51,15.17s6.06,15.17,13.51,15.17c4.69,0,8-1.65,10.48-4.41,1.07-1.34.85-3.29-.49-4.36-.02-.02-.04-.03-.06-.05-1.21-.75-2.77-.64-3.86.27-1.64,1.77-3.94,2.77-6.35,2.76-3.86,0-6.89-3.31-7.72-7.72h17.37c1.98,0,3.71-1.37,4.14-3.31,0-1.1-.28-1.65-.28-2.21-1.65-6.34-6.88-11.3-13.23-11.3Zm-8,11.86c1.37-3.86,4.14-6.35,7.72-6.35,3.31,0,6.35,2.76,7.45,6.35h-15.17Z"/><path class="b" d="m111.71,33.11c-3.84-.6-7.72.86-10.2,3.86v-.27c-.08-1.52-1.39-2.69-2.91-2.61-1.41.08-2.53,1.2-2.61,2.61v23.44c.07,1.55,1.23,2.82,2.76,3.04,1.56.11,2.92-1.08,3.02-2.64,0-.04,0-.08,0-.12v-12.14c0-5.24,4.14-9.66,9.65-9.1h.55c1.25-.65,2.09-1.9,2.21-3.31-.07-1.39-1.1-2.54-2.48-2.76Z"/><path class="b" d="m209.4,36.41s-.05,0-.07,0c-1.37,0-2.48,1.11-2.48,2.48v20.96c.14,1.51,1.47,2.62,2.98,2.49.02,0,.04,0,.05,0,1.37,0,2.48-1.11,2.48-2.48v-20.96c-.13-1.51-1.46-2.62-2.97-2.49Z"/><path class="b" d="m167.42,20.42c-1.5-.17-2.86.91-3.03,2.41,0,.02,0,.05,0,.07v12.69c-2.02-1.87-4.7-2.86-7.45-2.76-7.45,0-13.51,6.9-13.51,15.17s6.06,15.17,13.51,15.17c2.79.06,5.49-1.04,7.45-3.04.33,1.26,1.45,2.16,2.76,2.21,1.52,0,2.76-1.23,2.76-2.76V22.9c0-1.37-1.11-2.48-2.48-2.48Zm-10.48,36.96c-4.41,0-7.99-4.14-7.99-9.37s3.3-9.66,7.72-9.66,7.99,4.41,7.99,9.66-3.58,9.65-7.72,9.37Z"/><path class="b" d="m197.2,20.42c-1.5-.17-2.86.91-3.03,2.41,0,.02,0,.05,0,.07v12.69c-2.02-1.87-4.7-2.86-7.45-2.76-7.45,0-13.51,6.9-13.51,15.17s6.06,15.17,13.51,15.17c2.79.06,5.49-1.04,7.45-3.04.33,1.26,1.45,2.16,2.76,2.21,1.52,0,2.76-1.23,2.76-2.76V22.9c0-1.37-1.11-2.48-2.48-2.48Zm-10.76,36.96c-4.42,0-8-4.14-8-9.37,0-5.52,3.58-9.66,8-9.66s7.99,4.41,7.99,9.66-3.31,9.65-7.99,9.37Z"/><path class="b" d="m229.19,33.38h-2.76v-4.14c-.07-1.54-1.23-2.82-2.76-3.04-1.56-.11-2.92,1.08-3.02,2.64,0,.04,0,.08,0,.12v4.14h-2.48c-1.37,0-2.48,1.11-2.48,2.48-.02,1.43,1.06,2.63,2.48,2.76h2.48v21.24c0,1.52,1.23,2.76,2.76,2.76,2.21.27,3.31-1.1,3.31-2.48v-21.24h2.48c1.37,0,2.48-1.11,2.48-2.48.02-1.43-1.06-2.63-2.48-2.76Z"/><path class="b" d="m48.56,54.34c-1.65,1.94-5.52,2.48-8.27,2.48s-6.62-.55-8.27-2.48c-.55-.55-1.1-.55-1.38,0-.55.55-.55,1.11,0,1.38,2.76,2.76,8.27,3.04,9.93,3.04s6.9-.28,9.93-3.04c-.27-.27-.27-.83-.55-1.38-.55-.55-1.12-.55-1.38,0Z"/><circle class="b" cx="49.12" cy="44.96" r="4.14"/><path class="b" d="m39.05,0c-.05,0-.1,0-.16,0C16.93.5-.48,18.71.01,40.68c0,.05,0,.1,0,.15.6,21.16,17.45,38.26,38.6,39.16,22.08.59,40.46-16.81,41.09-38.89v-2.2C79.22,16.94,61.02-.48,39.05,0Zm24.12,46.05v1.65c0,9.1-10.47,16.27-23.45,16.27s-23.43-7.17-23.43-16.27v-1.65c-2.92-1.34-4.27-4.75-3.04-7.72.79-2.17,2.95-3.53,5.25-3.31,1.55-.04,3.04.56,4.14,1.65,4.66-3.12,10.11-4.84,15.72-4.96l3.03-13.79c.03-.21.13-.4.28-.55.22-.22.52-.32.83-.28l9.65,2.21c1.11-1.93,3.59-3.04,5.52-1.93,1.93,1.11,3.04,3.58,1.93,5.51-1.11,1.93-3.57,3.04-5.5,1.94-1.41-.62-2.29-2.05-2.21-3.59l-8.55-1.93-2.77,12.41c5.51.17,10.87,1.89,15.45,4.96,2.31-2.21,5.96-2.21,8.27,0,1.1,1.09,1.7,2.59,1.65,4.14.84,2.48-.82,4.41-2.76,5.24Z"/><circle class="b" cx="30.92" cy="44.96" r="4.14"/></svg>