<?xml version="1.0" encoding="UTF-8" standalone="no"?>
<svg id="Layer_1" viewBox="0 0 32 32" version="1.1" sodipodi:docname="reddit.svg" width="32" height="32" inkscape:version="1.4-beta2 (9aaf4f34, 2024-07-30)" xmlns:inkscape="http://www.inkscape.org/namespaces/inkscape" xmlns:sodipodi="http://sodipodi.sourceforge.net/DTD/sodipodi-0.dtd" xmlns="http://www.w3.org/2000/svg" xmlns:svg="http://www.w3.org/2000/svg">
  <sodipodi:namedview id="namedview7" pagecolor="#ffffff" bordercolor="#000000" borderopacity="0.25" inkscape:showpageshadow="2" inkscape:pageopacity="0.0" inkscape:pagecheckerboard="0" inkscape:deskcolor="#d1d1d1" inkscape:zoom="0.62810544" inkscape:cx="109.85417" inkscape:cy="83.584693" inkscape:window-width="1440" inkscape:window-height="790" inkscape:window-x="0" inkscape:window-y="0" inkscape:window-maximized="1" inkscape:current-layer="Layer_1" />
  <defs id="defs1">
    <style id="style1">.cls-1{stroke-width:0px;}</style>
  </defs>
  <g id="g7" transform="matrix(0.41157556,0,0,0.41157556,1.05e-7,-0.46508028)">
    <path class="cls-1" d="m 48.76,15.96 c 0.84,3.57 4.05,6.23 7.88,6.23 4.47,0 8.09,-3.62 8.09,-8.09 0,-4.47 -3.62,-8.09 -8.09,-8.09 -3.91,0 -7.17,2.77 -7.93,6.45 -6.55,0.7 -11.66,6.25 -11.66,12.98 v 0.04 C 29.93,25.78 23.43,27.81 18.27,31 16.35,29.52 13.95,28.63 11.34,28.63 5.08,28.63 0,33.71 0,39.97 0,44.52 2.67,48.43 6.53,50.24 6.91,63.41 21.25,74 38.9,74 56.55,74 70.91,63.4 71.27,50.22 c 3.83,-1.82 6.48,-5.73 6.48,-10.24 0,-6.26 -5.08,-11.34 -11.34,-11.34 -2.6,0 -4.99,0.88 -6.91,2.35 -5.21,-3.22 -11.78,-5.25 -18.97,-5.52 v -0.03 c 0,-4.82 3.58,-8.82 8.23,-9.47 v 0 z M 17.82,47.18 c 0.19,-4.11 2.92,-7.27 6.1,-7.27 3.18,0 5.6,3.34 5.41,7.45 -0.19,4.11 -2.56,5.61 -5.74,5.61 -3.18,0 -5.96,-1.67 -5.77,-5.79 z m 36.07,-7.27 c 3.18,0 5.91,3.16 6.1,7.27 0.19,4.11 -2.6,5.79 -5.77,5.79 -3.17,0 -5.55,-1.49 -5.74,-5.61 -0.19,-4.11 2.23,-7.45 5.41,-7.45 z M 50.11,56.7 c 0.6,0.06 0.98,0.68 0.74,1.23 -1.95,4.67 -6.57,7.95 -11.95,7.95 -5.38,0 -9.99,-3.28 -11.95,-7.95 -0.23,-0.55 0.15,-1.17 0.74,-1.23 3.49,-0.35 7.27,-0.55 11.21,-0.55 3.94,0 7.71,0.19 11.21,0.55 z" id="path7" />
  </g>
</svg>
