<?xml version="1.0" encoding="UTF-8"?><svg id="Layer_1" xmlns="http://www.w3.org/2000/svg" viewBox="0 0 251.53 80"><defs><style>.cls-1{stroke-width:0px;}</style></defs><path class="cls-1" d="m126.76,32.05l-3.39,8.05c-.43-.21-1.44-.45-2.4-.45s-1.92.24-2.85.69c-1.84.93-3.2,2.8-3.2,5.49v14.74h-8.42v-28.68h8.18v4.03h.16c1.92-2.56,4.85-4.45,8.66-4.45,1.39,0,2.72.27,3.25.59h0Z"/><path class="cls-1" d="m125.13,46.31c0-8.29,5.68-14.85,14.18-14.85,7.7,0,13.22,5.62,13.22,13.54,0,1.39-.13,2.69-.43,3.95h-19.3c.88,3.01,3.49,5.36,7.41,5.36,2.16,0,5.23-.77,6.88-2.05l2.61,6.29c-2.43,1.65-6.13,2.45-9.38,2.45-9.09,0-15.2-5.87-15.2-14.69h0Zm7.52-2.64h12.13c0-3.68-2.51-5.62-5.57-5.62-3.47,0-5.81,2.24-6.56,5.62h0Z"/><path class="cls-1" d="m224.82,19c2.83,0,5.15,2.32,5.15,5.15s-2.32,5.15-5.15,5.15-5.15-2.32-5.15-5.15,2.32-5.15,5.15-5.15h0Zm4.21,41.57h-8.42v-28.69h8.42v28.69h0Z"/><path class="cls-1" d="m175.91,19.52l-.03,15.09h-.16c-2.32-2.21-4.83-3.12-8.1-3.12-8.08,0-13.44,6.5-13.44,14.74s5.01,14.77,13.17,14.77c3.41,0,6.64-1.17,8.72-3.84h.24v3.41h8.02V19.52h-8.42Zm.4,34.22h-.28l-1.88-1.95c-1.22,1.22-2.9,1.95-4.85,1.95-4.13,0-7.01-3.26-7.01-7.5s2.89-7.5,7.01-7.5,7.01,3.26,7.01,7.5v7.5h0Z"/><path class="cls-1" d="m208.08,19.52l-.03,15.09h-.16c-2.32-2.21-4.83-3.12-8.1-3.12-8.08,0-13.44,6.5-13.44,14.74s5.01,14.77,13.17,14.77c3.41,0,6.64-1.17,8.72-3.84h.24v3.41h8.02V19.52h-8.42Zm.36,34.22h-.28l-1.88-1.95c-1.22,1.22-2.9,1.95-4.85,1.95-4.13,0-7.01-3.26-7.01-7.5s2.89-7.5,7.01-7.5,7.01,3.26,7.01,7.5v7.5h0Z"/><path class="cls-1" d="m245.37,31.89h6.16v7.17h-6.16v21.51h-8.42v-21.51h-6.13v-7.17h6.13v-7.8h8.42v7.8h0Z"/><path class="cls-1" d="m48.76,15.96c.84,3.57,4.05,6.23,7.88,6.23,4.47,0,8.09-3.62,8.09-8.09s-3.62-8.09-8.09-8.09c-3.91,0-7.17,2.77-7.93,6.45-6.55.7-11.66,6.25-11.66,12.98v.04c-7.12.3-13.62,2.33-18.78,5.52-1.92-1.48-4.32-2.37-6.93-2.37-6.26,0-11.34,5.08-11.34,11.34,0,4.55,2.67,8.46,6.53,10.27.38,13.17,14.72,23.76,32.37,23.76s32.01-10.6,32.37-23.78c3.83-1.82,6.48-5.73,6.48-10.24,0-6.26-5.08-11.34-11.34-11.34-2.6,0-4.99.88-6.91,2.35-5.21-3.22-11.78-5.25-18.97-5.52v-.03c0-4.82,3.58-8.82,8.23-9.47h0Zm-30.94,31.22c.19-4.11,2.92-7.27,6.1-7.27s5.6,3.34,5.41,7.45c-.19,4.11-2.56,5.61-5.74,5.61s-5.96-1.67-5.77-5.79Zm36.07-7.27c3.18,0,5.91,3.16,6.1,7.27.19,4.11-2.6,5.79-5.77,5.79s-5.55-1.49-5.74-5.61c-.19-4.11,2.23-7.45,5.41-7.45Zm-3.78,16.79c.6.06.98.68.74,1.23-1.95,4.67-6.57,7.95-11.95,7.95s-9.99-3.28-11.95-7.95c-.23-.55.15-1.17.74-1.23,3.49-.35,7.27-.55,11.21-.55s7.71.19,11.21.55h0Z"/></svg>