<svg width="32" height="32" xmlns="http://www.w3.org/2000/svg">
  <path d="M48.76 15.96a8.098 8.098 0 0 0 7.88 6.23c4.47 0 8.09-3.62 8.09-8.09s-3.62-8.09-8.09-8.09a8.1 8.1 0 0 0-7.93 6.45c-6.55.7-11.66 6.25-11.66 12.98v.04c-7.12.3-13.62 2.33-18.78 5.52a11.314 11.314 0 0 0-6.93-2.37C5.08 28.63 0 33.71 0 39.97c0 4.55 2.67 8.46 6.53 10.27C6.91 63.41 21.25 74 38.9 74s32.01-10.6 32.37-23.78c3.83-1.82 6.48-5.73 6.48-10.24 0-6.26-5.08-11.34-11.34-11.34-2.6 0-4.99.88-6.91 2.35-5.21-3.22-11.78-5.25-18.97-5.52v-.03c0-4.82 3.58-8.82 8.23-9.47zM17.82 47.18c.19-4.11 2.92-7.27 6.1-7.27 3.18 0 5.6 3.34 5.41 7.45-.19 4.11-2.56 5.61-5.74 5.61s-5.96-1.67-5.77-5.79zm36.07-7.27c3.18 0 5.91 3.16 6.1 7.27.19 4.11-2.6 5.79-5.77 5.79-3.17 0-5.55-1.49-5.74-5.61-.19-4.11 2.23-7.45 5.41-7.45zM50.11 56.7c.6.06.98.68.74 1.23a12.947 12.947 0 0 1-11.95 7.95c-5.38 0-9.99-3.28-11.95-7.95a.898.898 0 0 1 .74-1.23c3.49-.35 7.27-.55 11.21-.55 3.94 0 7.71.19 11.21.55z" style="stroke-width:0" transform="matrix(.41158 0 0 .41158 0 -.465)"/>
</svg>