<?xml version="1.0" encoding="UTF-8" standalone="no"?>
<svg width="32" height="32" viewBox="0 0 32 32" fill="none" version="1.1" id="svg11" xmlns="http://www.w3.org/2000/svg" xmlns:svg="http://www.w3.org/2000/svg">
  <defs id="defs11" />
  <path d="M 16,0 C 7.136,0 0,7.136 0,16 0,24.864 7.136,32 16,32 24.864,32 32,24.864 32,16 32,7.136 24.864,0 16,0 Z m -5.558594,5 h 4.244141 c 4.991958,0 7.5,1.9919444 7.5,5.974609 0,1.557847 -0.480642,2.925227 -1.455078,4.13086 -0.974367,1.205647 -2.493958,1.802734 -4.576172,1.802734 h -0.347656 l 6.6875,8.925781 c 0.253731,0.37934 0.373046,0.610227 0.373046,0.691407 C 22.867187,26.837054 22.72143,27 22.427734,27 H 21.8125 c -0.266902,0 -0.46776,-0.08179 -0.587891,-0.257813 l -7.154296,-9.550781 c -0.226905,-0.338666 -0.345704,-0.609294 -0.345704,-0.8125 0,-0.663776 0.361269,-1.001953 1.082032,-1.001953 h 1.361328 c 0.867581,0 1.61257,-0.149115 2.226562,-0.433594 0.61398,-0.298026 1.06964,-0.664535 1.363281,-1.138671 0.573944,-0.89407 0.867188,-1.827394 0.867188,-2.802735 0,-2.9531389 -1.989574,-4.4296874 -5.980469,-4.4296874 H 10.693359 V 26.375 c 0,0.162514 -0.05174,0.313695 -0.171875,0.435547 C 10.401345,26.932398 10.253264,27 10.066406,27 H 9.7597656 C 9.5728946,27 9.4248185,26.932399 9.3046875,26.810547 9.1845595,26.688695 9.1328125,26.537514 9.1328125,26.375 V 6.4765625 c 0,-0.568956 0.092109,-0.9473191 0.265625,-1.1640625 C 9.5853095,5.1093072 9.9341962,5 10.441406,5 Z" style="opacity:0.94;fill:#000000;fill-rule:evenodd;stroke:#000000;stroke-width:0;stroke-linecap:round;paint-order:stroke fill markers" id="path13" />
</svg>
