<svg viewBox="0 0 32 32" data-remote-r-logo="true" version="1.1" width="32" height="32" xmlns="http://www.w3.org/2000/svg" xmlns:svg="http://www.w3.org/2000/svg">
  <path fill="#000" d="m 27.588419,24.67456 h 0.3072 V 32 h -1.19296 c -7.74912,0 -12.23168,-4.4416 -12.23168,-11.69536 v -3.72992 l 2.51776,-0.63616 a 4.0576,4.0576 0 0 0 1.93408,-1.1328 4.096,4.096 0 0 0 0.8832,-4.2368 4.08704,4.08704 0 0 0 -1.3184,-1.8176 4.04864,4.04864 0 0 0 -5.94048,1.05856 4.10624,4.10624 0 0 0 -0.61696,2.16448 V 27.9552 H 4.0978586 v -16.256 c 0,-0.48896 0.03072,-0.97792 0.09216,-1.46304 C 4.9208986,4.46592 9.9282586,0 15.996739,0 c 5.50144,0 10.13248,3.67232 11.5008,8.66048 a 11.5392,11.5392 0 0 1 -0.65152,7.85152 11.78624,11.78624 0 0 1 -4.42368,5.03552 c 0.6464,2.63936 2.0224,3.12704 5.07392,3.12704" style="stroke-width:1.28" />
</svg>
