<svg id="Camada_1" data-name="Camada 1" xmlns="http://www.w3.org/2000/svg" viewBox="0 0 200 80"><path d="M17.21,21.74A18.34,18.34,0,0,0,.06,38.22a27.33,27.33,0,0,0,0,3.62,18.36,18.36,0,0,0,16.2,16.34,22.6,22.6,0,0,0,4,0,18.24,18.24,0,0,0,9.45-3.92A23.47,23.47,0,0,0,32.12,52a18.29,18.29,0,0,0,4.32-9.68,26,26,0,0,0,0-4.5,18.18,18.18,0,0,0-4.16-9.54,22.94,22.94,0,0,0-2.54-2.49,18.36,18.36,0,0,0-9.42-3.92A29.91,29.91,0,0,0,17.21,21.74Zm11.07,6.74a3.53,3.53,0,0,1,2.18,4.84,4.46,4.46,0,0,1-1.05,1.6A3.16,3.16,0,0,1,27.1,36a2.29,2.29,0,0,1-1.86-.85,4,4,0,0,1-.86-1.7,2.38,2.38,0,0,0-.18-.56A1.13,1.13,0,0,0,23,32.76c-.35.13-.74.51-1.54,1.52a37.27,37.27,0,0,0-3.4,5.12,118.32,118.32,0,0,0-4.93,10.88c-.29.73.06.66-3.4.68-1.92,0-3,0-3.11,0a.78.78,0,0,1-.28-.17c-.25-.26-.27-.17,1.28-4.38,1.88-5.09,4.06-11,4.4-12S12.42,33,12,32.85a.8.8,0,0,0-.64.14,9.84,9.84,0,0,0-2,1.75,17.06,17.06,0,0,1-1.27,1.19.78.78,0,0,1-.47-.36.83.83,0,0,1-.11-.7,7.45,7.45,0,0,1,1-1.51,15.77,15.77,0,0,1,5.38-4.18,6.23,6.23,0,0,1,2.86-.63c1.5,0,2.34.54,2.61,1.67a8.61,8.61,0,0,1,0,2.16c-.09.61-.24,1.32-.39,1.93a2.84,2.84,0,0,0-.11.47,4.13,4.13,0,0,0,.36-.51,16.51,16.51,0,0,1,4.17-4.47,8.56,8.56,0,0,1,3.25-1.4A5.4,5.4,0,0,1,28.28,28.48Z"/><path d="M47.45,40V54.54h4.2v-7l0-7h1.6a10,10,0,0,1,1.67,0s2,3.18,4.5,7l4.44,7H66.2c1.26,0,2.3,0,2.3,0s-2-3.17-4.54-7-4.54-7-4.52-7a5,5,0,0,1,.6-.14c3.55-.72,5.89-2.58,6.68-5.32A6.68,6.68,0,0,0,67,32.8a6.22,6.22,0,0,0-.32-2.2c-.89-2.75-3.57-4.63-7.16-5.05-.52-.07-1.58-.08-6.35-.08H47.45ZM57.78,27.54A5.68,5.68,0,0,1,62.33,31c1.12,3-.47,6-3.7,7.1-1.21.41-2,.48-4.88.46H51.68l0-5.5c0-3,0-5.52,0-5.56A60.45,60.45,0,0,1,57.78,27.54Z"/><path d="M74.27,40V54.54H90v-2H78.47v-12H88.77v-2H78.49V27.48h5.58l5.58,0v-2H74.27Z"/><path d="M96.93,40V54.54h2.44V43.77L99.4,33,108,43.75l8.62,10.76.93,0h.94V25.47h-2.44V47l-8.63-10.76L98.81,25.48H96.93Z"/><path d="M126.92,40V54.54h2.4V43.76c0-5.92,0-10.76,0-10.75s3.92,4.86,8.66,10.78l8.61,10.75h1.84V25.47h-2.4V47l-.11-.12c-.07-.07-4-4.92-8.66-10.79l-8.53-10.66h-1.85Z"/><path d="M156.57,40V54.54H172.3v-2H160.78v-12h10.3v-2H160.8V27.48h5.57l5.59,0v-2H156.57Z"/><path d="M179,40V54.54h4.2v-14h3.3l4.46,7,4.46,7,2.3,0c1.27,0,2.31,0,2.31,0l-4.54-7c-2.5-3.84-4.54-7-4.53-7l.62-.14c.34-.07.86-.2,1.17-.3,3.25-1,5.16-2.94,5.71-5.85a7.78,7.78,0,0,0,.08-1.41,5.31,5.31,0,0,0-.13-1.53,7.49,7.49,0,0,0-5.94-5.47c-1.25-.29-.92-.28-7.47-.29l-6,0Zm10.4-12.45a5.58,5.58,0,0,1,4.7,4.05,6.85,6.85,0,0,1,.09,2.08c-.34,2.34-2.25,4.13-5,4.69a18.6,18.6,0,0,1-3.85.18h-2.1V33c0-3,0-5.52,0-5.56a16.81,16.81,0,0,1,2.87,0A24.48,24.48,0,0,1,189.35,27.55Z"/></svg>