<?xml version="1.0" encoding="UTF-8" standalone="no"?>
<svg id="Camada_1" data-name="Camada 1" viewBox="0 0 32 32" version="1.1" sodipodi:docname="renner.svg" width="32" height="32" inkscape:version="1.4-beta2 (9aaf4f34, 2024-07-30)" xmlns:inkscape="http://www.inkscape.org/namespaces/inkscape" xmlns:sodipodi="http://sodipodi.sourceforge.net/DTD/sodipodi-0.dtd" xmlns="http://www.w3.org/2000/svg" xmlns:svg="http://www.w3.org/2000/svg">
  <defs id="defs7" />
  <sodipodi:namedview id="namedview7" pagecolor="#ffffff" bordercolor="#000000" borderopacity="0.25" inkscape:showpageshadow="2" inkscape:pageopacity="0.0" inkscape:pagecheckerboard="0" inkscape:deskcolor="#d1d1d1" inkscape:zoom="0.89948687" inkscape:cx="87.827852" inkscape:cy="72.819295" inkscape:window-width="1440" inkscape:window-height="790" inkscape:window-x="0" inkscape:window-y="0" inkscape:window-maximized="1" inkscape:current-layer="Camada_1" />
  <g id="g7" transform="matrix(0.87581155,0,0,0.87581155,1.5900743e-6,-19.035566)">
    <path d="m 17.21,21.74 a 18.34,18.34 0 0 0 -17.15,16.48 27.33,27.33 0 0 0 0,3.62 18.36,18.36 0 0 0 16.2,16.34 22.6,22.6 0 0 0 4,0 18.24,18.24 0 0 0 9.45,-3.92 23.47,23.47 0 0 0 2.41,-2.26 18.29,18.29 0 0 0 4.32,-9.68 26,26 0 0 0 0,-4.5 18.18,18.18 0 0 0 -4.16,-9.54 22.94,22.94 0 0 0 -2.54,-2.49 18.36,18.36 0 0 0 -9.42,-3.92 29.91,29.91 0 0 0 -3.11,-0.13 z m 11.07,6.74 a 3.53,3.53 0 0 1 2.18,4.84 4.46,4.46 0 0 1 -1.05,1.6 A 3.16,3.16 0 0 1 27.1,36 2.29,2.29 0 0 1 25.24,35.15 4,4 0 0 1 24.38,33.45 2.38,2.38 0 0 0 24.2,32.89 1.13,1.13 0 0 0 23,32.76 c -0.35,0.13 -0.74,0.51 -1.54,1.52 a 37.27,37.27 0 0 0 -3.4,5.12 118.32,118.32 0 0 0 -4.93,10.88 c -0.29,0.73 0.06,0.66 -3.4,0.68 -1.92,0 -3,0 -3.11,0 A 0.78,0.78 0 0 1 6.34,50.79 c -0.25,-0.26 -0.27,-0.17 1.28,-4.38 1.88,-5.09 4.06,-11 4.4,-12 0.34,-1 0.4,-1.41 -0.02,-1.56 a 0.8,0.8 0 0 0 -0.64,0.14 9.84,9.84 0 0 0 -2,1.75 17.06,17.06 0 0 1 -1.27,1.19 0.78,0.78 0 0 1 -0.47,-0.36 0.83,0.83 0 0 1 -0.11,-0.7 7.45,7.45 0 0 1 1,-1.51 15.77,15.77 0 0 1 5.38,-4.18 6.23,6.23 0 0 1 2.86,-0.63 c 1.5,0 2.34,0.54 2.61,1.67 a 8.61,8.61 0 0 1 0,2.16 c -0.09,0.61 -0.24,1.32 -0.39,1.93 a 2.84,2.84 0 0 0 -0.11,0.47 4.13,4.13 0 0 0 0.36,-0.51 16.51,16.51 0 0 1 4.17,-4.47 8.56,8.56 0 0 1 3.25,-1.4 5.4,5.4 0 0 1 1.64,0.08 z" id="path1" />
  </g>
</svg>
