<?xml version="1.0" encoding="UTF-8" standalone="no"?>
<svg viewBox="0 0 32 32" version="1.1" id="svg1" sodipodi:docname="www.researchgate.net.svg" width="32" height="32" inkscape:version="1.4-beta2 (9aaf4f34, 2024-07-30)" xmlns:inkscape="http://www.inkscape.org/namespaces/inkscape" xmlns:sodipodi="http://sodipodi.sourceforge.net/DTD/sodipodi-0.dtd" xmlns="http://www.w3.org/2000/svg" xmlns:svg="http://www.w3.org/2000/svg">
  <defs id="defs1" />
  <sodipodi:namedview id="namedview1" pagecolor="#ffffff" bordercolor="#000000" borderopacity="0.25" inkscape:showpageshadow="2" inkscape:pageopacity="0.0" inkscape:pagecheckerboard="0" inkscape:deskcolor="#d1d1d1" inkscape:zoom="1.625" inkscape:cx="8" inkscape:cy="7.6923077" inkscape:window-width="1440" inkscape:window-height="790" inkscape:window-x="0" inkscape:window-y="0" inkscape:window-maximized="1" inkscape:current-layer="svg1" />
  <g id="g1" transform="matrix(1.3408196,0,0,1.3408196,-5.4611585,-5.4705443)">
    <symbol fill="inherit" viewBox="0 0 16 16" id="d4db98ba-676b-4ec8-b5a6-9bde7cb26b7c">
      <path d="M 8.807,12.433 C 8.127,11.667 6.847,9.873 6.933,9.873 7.953,9.447 8.72,8.427 8.72,7.4 8.72,5.867 7.527,4.927 5.74,4.927 H 2.073 V 5.78 h 0.26 L 2.84,5.867 C 3.18,5.953 3.18,6.04 3.18,6.72 v 5.287 c 0,0.68 -0.087,0.766 -0.34,0.853 l -0.507,0.087 h -0.26 v 0.94 h 1.874 c 0.513,0 1.106,0 1.706,0.086 h 0.254 v -0.94 H 5.653 L 4.973,12.947 C 4.72,12.86 4.633,12.773 4.633,12.093 L 4.547,10.047 h 0.68 c 0.593,0.94 1.533,2.386 2.046,2.98 0.514,0.68 1.194,0.94 2.047,0.94 0.253,0 0.513,-0.087 0.767,-0.174 L 10.26,13.707 V 12.94 H 10 C 9.58,13.027 9.153,12.773 8.807,12.433 Z M 5.653,9.02 H 4.72 V 6.04 H 5.827 C 6.767,6.04 7.36,6.553 7.36,7.573 7.273,8.427 6.593,9.02 5.653,9.02 Z M 11.54,4.507 v 0.94 h 1.28 V 5.62 c 0,0.34 -0.087,0.513 -0.253,0.767 -0.174,0.253 -0.427,0.34 -0.767,0.34 -0.34,0 -0.513,-0.087 -0.68,-0.34 -0.253,-0.254 -0.253,-0.514 -0.253,-1.534 0,-1.02 0.086,-1.366 0.253,-1.533 0.173,-0.173 0.427,-0.34 0.68,-0.34 0.513,0 0.94,0.34 0.94,0.853 l 0.087,0.254 h 1.106 L 13.847,3.747 C 13.593,2.727 12.827,2.04 11.8,2.04 11.207,2.04 10.78,2.293 10.353,2.633 9.84,3.147 9.76,3.487 9.76,4.847 c 0,1.36 0.087,1.706 0.593,2.213 0.34,0.34 0.94,0.593 1.447,0.593 0.593,0 1.107,-0.253 1.533,-0.68 0.34,-0.34 0.514,-0.853 0.514,-1.533 V 4.507 Z" id="path1" />
    </symbol>
    <use href="#d4db98ba-676b-4ec8-b5a6-9bde7cb26b7c" id="use1" />
  </g>
</svg>
