<svg width="32" height="32" xmlns="http://www.w3.org/2000/svg">
  <g transform="matrix(1.34082 0 0 1.34082 -5.461 -5.47)">
    <symbol fill="inherit" viewBox="0 0 16 16" id="a">
      <path d="M8.807 12.433c-.68-.766-1.96-2.56-1.874-2.56C7.953 9.447 8.72 8.427 8.72 7.4c0-1.533-1.193-2.473-2.98-2.473H2.073v.853h.26l.507.087c.34.086.34.173.34.853v5.287c0 .68-.087.766-.34.853l-.507.087h-.26v.94h1.874c.513 0 1.106 0 1.706.086h.254v-.94h-.254l-.68-.086c-.253-.087-.34-.174-.34-.854l-.086-2.046h.68c.593.94 1.533 2.386 2.046 2.98.514.68 1.194.94 2.047.94.253 0 .513-.087.767-.174l.173-.086v-.767H10c-.42.087-.847-.167-1.193-.507ZM5.653 9.02H4.72V6.04h1.107c.94 0 1.533.513 1.533 1.533-.087.854-.767 1.447-1.707 1.447Zm5.887-4.513v.94h1.28v.173c0 .34-.087.513-.253.767-.174.253-.427.34-.767.34s-.513-.087-.68-.34c-.253-.254-.253-.514-.253-1.534s.086-1.366.253-1.533c.173-.173.427-.34.68-.34.513 0 .94.34.94.853l.087.254h1.106l-.086-.34c-.254-1.02-1.02-1.707-2.047-1.707-.593 0-1.02.253-1.447.593-.513.514-.593.854-.593 2.214 0 1.36.087 1.706.593 2.213.34.34.94.593 1.447.593.593 0 1.107-.253 1.533-.68.34-.34.514-.853.514-1.533v-.933Z"/>
    </symbol>
    <use href="#a"/>
  </g>
</svg>