<?xml version="1.0" encoding="UTF-8"?><svg id="a" xmlns="http://www.w3.org/2000/svg" viewBox="0 0 593.18 80"><defs><style>.c{stroke-width:0px;}</style></defs><g id="b"><path class="c" d="m166.21,42.69c1.09-6.13,4.88-12.71,12.52-12.71,6.68,0,9.71,5.93,9.71,11.57,0,.91-.14,1.15-1.19,1.15h-21.04Zm12.95-19.77c-14,0-24.16,12.32-24.16,29.3s9.21,27.68,24.68,27.68c8.26,0,14.95-3.72,17.02-7.2l.22-.34-.57-4.8-1.52.79c-4.1,1.99-8.61,2.97-13.17,2.87-11.86,0-16.06-10.28-16.06-19.89v-1.98h33.46l.16-1.03c.18-1.31.25-2.63.22-3.95,0-10.3-6.35-21.41-20.31-21.41l.04-.04Z"/><path class="c" d="m530.44,11.73h-5.46l-.24.89c-1.6,5.93-3.68,9.75-10.12,13.31l-.61.34v5.32h6.33v34.46c0,9.65,3.76,13.84,12.54,13.84,5.24,0,10.66-2.23,12.36-5.06l.22-.4-.75-3.95-1.32.47c-2.32.76-4.74,1.17-7.18,1.21-3.74,0-5.75-1.25-5.75-7.91V31.58h15.05v-7.39h-15.05v-12.46Z"/><path class="c" d="m230.69,54.81c-.12,2.95-.26,8.98-.28,12.48-2.5,2.56-5.93,3.99-9.51,3.95-1.97.17-3.92-.53-5.33-1.92-1.41-1.39-2.14-3.33-1.99-5.3,0-6.11,4.8-9.21,14.3-9.21h2.81m9.89,12.18c0-4.94.12-9.49.24-13.84.12-4.35.2-8.09.2-12.08,0-11.53-6.84-18.13-18.76-18.13-5.71.1-11.15,2.43-15.15,6.51l-.36.42.89,5.32,1.48-.85c3.45-1.87,7.33-2.8,11.25-2.71,7.22,0,10.44,3.5,10.44,11.35v4.94h-4.41c-14.04,0-23.11,6.9-23.11,17.58,0,8.48,6.09,14.41,14.81,14.41,5.01-.12,9.77-2.2,13.25-5.81,1.11,3.65,4.61,6.03,8.4,5.71,2.99.08,5.96-.66,8.56-2.14l.55-.34v-4.82h-1.21c-6.05,0-7.02-1.32-7.02-5.52"/><path class="c" d="m283.56,22.9c-4.45.48-8.62,2.41-11.86,5.5v-6.68l-1.68.75c-4.63,2.05-9.41,3.74-14.3,5.06l-.85.26v4.43l.95.2c5.79,1.19,5.79,1.62,5.79,6.9v25.98c0,6.9-.81,7.04-2.41,7.34l-4.45.69v5.24h1.27l2.69-.14c2.25-.14,5.06-.3,7.91-.3s6.92.2,9.89.34l3.54.14v-5.34l-5.81-.65c-1.42-.2-2.39-.34-2.39-7.32v-29.54c2.84-2.18,6.31-3.38,9.89-3.42,1.76-.05,3.52.23,5.18.83l1.54.77,1.15-10.1-1.01-.26c-1.55-.44-3.16-.66-4.77-.67"/><path class="c" d="m330.44,68.02c-3.39,2.14-7.34,3.22-11.35,3.1-10.62,0-17.2-7.67-17.2-19.99s6.17-21.26,15.01-21.26c5.93,0,8.56,2.69,8.88,8.98v1.13h6.41v-1.19c0-3.58.12-8.62.42-12.04v-.91l-.87-.32c-4.55-1.71-9.36-2.6-14.22-2.63-14.41,0-26.14,13.15-26.14,29.3,0,17.02,9.53,27.68,24.89,27.68,7.91,0,14.26-3.74,16.41-7.41l.22-.4-.95-5-1.52,1.03.02-.08Z"/><path class="c" d="m492.34,54.81c0,2.97-.24,9.02-.26,12.48-2.49,2.56-5.92,3.98-9.49,3.95-1.97.17-3.92-.53-5.33-1.92-1.41-1.39-2.14-3.33-1.99-5.3,0-6.11,4.8-9.21,14.27-9.21h2.79m9.89,12.18c0-4.94.1-9.49.22-13.84.12-4.35.2-8.09.2-12.08,0-11.53-6.84-18.13-18.76-18.13-5.74.05-11.23,2.37-15.26,6.45l-.36.44.89,5.32,1.48-.85c3.45-1.87,7.33-2.8,11.25-2.71,7.22,0,10.44,3.5,10.44,11.35v4.98h-4.41c-14.04,0-23.12,6.9-23.12,17.58,0,8.48,6.09,14.41,14.81,14.41,4.98-.1,9.71-2.15,13.19-5.71,1.11,3.65,4.62,6.03,8.42,5.71,2.99.09,5.95-.65,8.54-2.14l.55-.34v-4.92h-1.21c-5.93,0-7-1.32-7-5.52"/><path class="c" d="m386.65,65.29v-23c0-8.32-1.76-19.4-16.98-19.4-5.01.33-9.79,2.25-13.64,5.48V0l-1.76.89c-4.53,2.38-9.31,4.27-14.24,5.65l-.85.26v4.43l.95.2c5.79,1.19,5.79,1.62,5.79,6.92v46.94c0,6.9-.81,7.04-2.41,7.32l-4.43.71v5.24l2.91-.12c2.47,0,5.64-.24,8.88-.24s6.72.14,9.27.26h2.73v-5.14l-4.41-.69c-1.52-.28-2.43-.45-2.43-7.34v-30.11c3.23-2.13,6.97-3.37,10.84-3.6,7.18,0,9.71,3.1,9.71,11.86v21.75c0,6.9-.81,7.04-2.41,7.32l-4.45.71v5.34l2.93-.12c2.47,0,5.64-.24,8.88-.24s6.72.14,9.27.26h2.73v-5.14l-4.41-.69c-1.52-.28-2.45-.45-2.45-7.34"/><path class="c" d="m559.92,42.69c1.09-6.13,4.89-12.71,12.52-12.71,6.68,0,9.73,5.93,9.73,11.57,0,.91-.16,1.15-1.21,1.15h-21.04Zm12.93-19.77c-14,0-24.14,12.32-24.14,29.3s9.21,27.68,24.67,27.68c8.27,0,14.95-3.72,17.02-7.2l.22-.34-.57-4.8-1.54.79c-4.09,1.96-8.59,2.9-13.13,2.77-11.86,0-16.06-10.28-16.06-19.89v-1.98h33.48l.16-1.03c.18-1.31.25-2.63.22-3.95,0-10.3-6.35-21.41-20.33-21.41v.06Z"/><path class="c" d="m448.52,46.62c-5.14,0-9.02-.16-11.59-.28h-2.19v5.32l4.92.93c1.68.34,3.28.65,3.28,7.24v11.33c-3.54,1.43-7.34,2.11-11.15,1.98-13.17,0-21.65-11.31-21.65-28.81s8.74-28.81,21.75-28.81c8.38,0,13.35,4.51,13.96,12.71v1.11h6.45l-.1-1.29c-.42-5.77-.51-10.54-.61-15.15v-.83l-.77-.28c-6.01-2.22-12.38-3.32-18.78-3.26-19.36,0-33.42,15.36-33.42,36.54s12.65,34.92,32.03,34.92c7.48.01,14.91-1.24,21.97-3.72l.73-.32v-16.31c0-6.31,1.05-6.84,2.89-7.24l4.19-.83v-5.32l-2.87.12c-2.37.1-5.3.24-9.04.24"/><path class="c" d="m71.99,42.69c1.07-6.13,4.88-12.71,12.52-12.71,6.68,0,9.71,5.93,9.71,11.57,0,.91-.14,1.15-1.19,1.15h-21.04Zm12.93-19.77c-14,0-24.14,12.32-24.14,29.3s9.21,27.68,24.68,27.68c8.26,0,14.93-3.72,17.02-7.2l.2-.34-.55-4.8-1.54.79c-4.09,1.99-8.6,2.97-13.15,2.87-11.86,0-16.06-10.28-16.06-19.89v-1.98h33.42l.16-1.03c.18-1.31.25-2.63.22-3.95.08-10.3-6.31-21.47-20.15-21.47l-.1.02Z"/><path class="c" d="m131.67,45.34c-6.33-2.49-10.22-4.21-10.22-8.68,0-6.09,5.69-7,9.1-7,6.09,0,8.9,2.77,9.39,9.21v1.11h6.39v-1.29c-.33-3.95-.41-7.91-.22-11.86v-.83l-.77-.34c-4.55-1.8-9.38-2.77-14.28-2.85-11.05,0-18.76,6.27-18.76,15.24,0,11.37,8.66,14.53,15.62,17.06,6.49,2.37,10.46,4.07,10.46,9.02s-3.95,8.48-9.89,8.48c-7.91,0-9.89-3.44-10.74-10.66l-.14-1.05h-6.33v1.29c.36,4.6.47,9.22.32,13.84v.91l.85.3c5.18,1.73,10.61,2.59,16.08,2.55,10.74,0,19.16-7.41,19.16-16.85,0-11.39-8.84-14.85-15.96-17.62"/><path class="c" d="m38.54,28.67c0,7.91-5.22,12.85-13.64,12.85-2.93,0-4.45,0-6.29-.22v-24.5c2.17-.14,4.82-.14,7.22-.14,8.21,0,12.71,4.27,12.71,12m12.08,39.43c-5.67-6.48-10.67-13.52-14.91-21.02,8.16-2.79,13.75-10.33,14.06-18.94,0-11.69-8.25-18.65-22.09-18.65-3.28,0-6.23,0-8.96.18-2.33,0-4.51.14-6.62.14-4.07,0-8.28,0-10.86-.12H0v5.34l4.92.93c1.68.32,3.28.63,3.28,7.22v41.9c0,6.58-1.6,6.9-3.28,7.24l-4.92.93v5.32h2.47c2.83,0,7.08-.26,11.29-.26,4.75,0,10.86.22,13.27.32h1.25v-5.44l-6.43-.89c-1.68-.26-3.24-.47-3.24-7.22v-16.49c1.86.12,3.68.14,6.09.14,4.48,8.41,9.69,16.42,15.56,23.92,3.66,4.39,9.13,6.87,14.85,6.72,1.81.03,3.62-.29,5.3-.97l.69-.32v-4.73h-1.21c-2.89,0-6.27-1.98-9.27-5.26"/></g></svg>