<?xml version="1.0" encoding="UTF-8" standalone="no"?>
<!DOCTYPE svg PUBLIC "-//W3C//DTD SVG 1.1//EN" "http://www.w3.org/Graphics/SVG/1.1/DTD/svg11.dtd">
<!-- Created with Vectornator (http://vectornator.io/) -->
<svg height="100%" stroke-miterlimit="10" style="fill-rule:nonzero;clip-rule:evenodd;stroke-linecap:round;stroke-linejoin:round;" version="1.1" viewBox="0 0 250 80" width="100%" xml:space="preserve" xmlns="http://www.w3.org/2000/svg" xmlns:xlink="http://www.w3.org/1999/xlink">
<defs/>
<path d="M0 0L250 0L250 80L0 80L0 0Z" fill="#000000" fill-opacity="0" fill-rule="nonzero" opacity="1" stroke="none"/>
<g id="Page-1">
<g opacity="1">
<path d="M70.0491 41.1333C70.5075 38.55 72.1075 35.775 75.3241 35.775C78.1407 35.775 79.4157 38.275 79.4157 40.65C79.4157 41.0333 79.3574 41.1333 78.9157 41.1333L70.0491 41.1333ZM75.5074 32.8001C69.6075 32.8001 65.3242 37.9917 65.3242 45.1499C65.3242 52.3082 69.2075 56.8164 75.7241 56.8164C79.2074 56.8164 82.024 55.2498 82.899 53.7831L82.9907 53.6415L82.749 51.6165L82.1073 51.9498C80.3796 52.7879 78.4771 53.2021 76.5574 53.1581C71.5575 53.1581 69.7908 48.8249 69.7908 44.7749C69.7908 44.5249 69.7908 44.2583 69.7908 43.9416L83.8906 43.9416L83.9573 43.5083C84.0317 42.956 84.0624 42.3987 84.049 41.8416C84.049 37.5 81.374 32.8167 75.4907 32.8167L75.5074 32.8001Z" fill="#000000" fill-rule="nonzero" opacity="1" stroke="none"/>
<path d="M223.556 28.0835L221.256 28.0835L221.156 28.4584C220.481 30.9584 219.606 32.5667 216.889 34.0667L216.631 34.2084L216.631 36.45L219.297 36.45L219.297 50.9748C219.297 55.0415 220.881 56.8081 224.581 56.8081C226.789 56.8081 229.072 55.8664 229.789 54.6748L229.881 54.5081L229.564 52.8415L229.006 53.0415C228.029 53.3629 227.009 53.5343 225.981 53.5498C224.406 53.5498 223.556 53.0248 223.556 50.2165L223.556 36.45L229.897 36.45L229.897 33.3334L223.556 33.3334C223.556 33.3334 223.556 28.0835 223.556 28.0835Z" fill="#000000" fill-rule="nonzero" opacity="1" stroke="none"/>
<path d="M97.2238 46.2416C97.1738 47.4832 97.1155 50.0249 97.1071 51.4998C96.0544 52.579 94.6064 53.1811 93.0989 53.1665C92.2682 53.2397 91.4474 52.9444 90.8537 52.3588C90.2601 51.7732 89.9537 50.9564 90.0156 50.1248C90.0156 47.5499 92.0405 46.2416 96.0405 46.2416L97.2238 46.2416M101.39 51.3748C101.39 49.2915 101.44 47.3749 101.49 45.5416C101.54 43.7083 101.574 42.1333 101.574 40.45C101.574 35.5917 98.6905 32.8084 93.6655 32.8084C91.2605 32.8494 88.9679 33.834 87.2823 35.55L87.1323 35.725L87.5073 37.9667L88.1323 37.6083C89.5864 36.8213 91.2209 36.4277 92.8739 36.4667C95.9155 36.4667 97.2738 37.9417 97.2738 41.25L97.2738 43.3333C96.6488 43.3333 95.8905 43.3333 95.4155 43.3333C89.4989 43.3333 85.674 46.2416 85.674 50.7415C85.674 54.3165 88.2406 56.8164 91.9155 56.8164C94.0269 56.7679 96.0336 55.8874 97.4988 54.3665C97.9646 55.9033 99.4399 56.9066 101.04 56.7748C102.302 56.8068 103.55 56.4958 104.649 55.8748L104.882 55.7331L104.882 53.6998L104.374 53.6998C101.824 53.6998 101.415 53.1415 101.415 51.3748" fill="#000000" fill-rule="nonzero" opacity="1" stroke="none"/>
<path d="M119.507 32.7917C117.631 32.9928 115.873 33.8071 114.507 35.1084L114.507 32.2917L113.799 32.6084C111.848 33.4721 109.833 34.1853 107.774 34.7417L107.415 34.85L107.415 36.7167L107.815 36.8C110.257 37.3 110.257 37.4833 110.257 39.7083L110.257 50.6582C110.257 53.5665 109.915 53.6248 109.24 53.7498L107.365 54.0415L107.365 56.2498L107.899 56.2498L109.032 56.1914C109.982 56.1331 111.165 56.0664 112.365 56.0664C113.565 56.0664 115.282 56.1498 116.532 56.2081L118.024 56.2664L118.024 54.0165L115.574 53.7415C114.974 53.6581 114.565 53.5998 114.565 50.6582L114.565 38.2083C115.762 37.291 117.224 36.7853 118.732 36.7667C119.475 36.7463 120.216 36.865 120.915 37.1167L121.565 37.4417L122.049 33.1834L121.624 33.0751C120.97 32.8908 120.294 32.7955 119.615 32.7917" fill="#000000" fill-rule="nonzero" opacity="1" stroke="none"/>
<path d="M139.265 51.8082C137.835 52.7082 136.17 53.1635 134.482 53.1165C130.007 53.1165 127.232 49.8832 127.232 44.6916C127.232 39.5 129.832 35.7334 133.557 35.7334C136.057 35.7334 137.165 36.8667 137.298 39.5166L137.298 39.9916L139.998 39.9916L139.998 39.4916C139.998 37.9833 140.048 35.8584 140.173 34.4167L140.173 34.0334L139.807 33.9C137.89 33.18 135.862 32.8048 133.815 32.7917C127.74 32.7917 122.798 38.3333 122.798 45.1416C122.798 52.3165 126.815 56.8081 133.29 56.8081C136.623 56.8081 139.298 55.2331 140.207 53.6831L140.298 53.5165L139.898 51.4082L139.257 51.8415L139.265 51.8082Z" fill="#000000" fill-rule="nonzero" opacity="1" stroke="none"/>
<path d="M207.497 46.2416C207.497 47.4915 207.397 50.0415 207.389 51.4998C206.338 52.5769 204.894 53.1788 203.389 53.1665C202.559 53.2397 201.738 52.9444 201.144 52.3588C200.55 51.7732 200.244 50.9564 200.306 50.1248C200.306 47.5499 202.331 46.2416 206.322 46.2416L207.497 46.2416M211.664 51.3748C211.664 49.2915 211.706 47.3749 211.756 45.5416C211.806 43.7083 211.839 42.1333 211.839 40.45C211.839 35.5917 208.956 32.8084 203.931 32.8084C201.512 32.8296 199.2 33.8061 197.498 35.525L197.348 35.7084L197.723 37.95L198.348 37.5917C199.802 36.8046 201.436 36.4111 203.089 36.45C206.131 36.45 207.489 37.925 207.489 41.2333L207.489 43.3333C206.864 43.3333 206.106 43.3333 205.631 43.3333C199.714 43.3333 195.889 46.2416 195.889 50.7415C195.889 54.3165 198.456 56.8164 202.131 56.8164C204.228 56.7742 206.224 55.9092 207.689 54.4081C208.158 55.9463 209.636 56.9491 211.239 56.8164C212.499 56.8538 213.745 56.5424 214.839 55.9164L215.072 55.7748L215.072 53.6998L214.564 53.6998C212.064 53.6998 211.614 53.1415 211.614 51.3748" fill="#000000" fill-rule="nonzero" opacity="1" stroke="none"/>
<path d="M162.956 50.6582L162.956 40.9666C162.956 37.4583 162.215 32.7917 155.798 32.7917C153.685 32.9296 151.67 33.7382 150.048 35.1L150.048 23.1418L149.307 23.5168C147.396 24.5197 145.385 25.3185 143.307 25.9001L142.948 26.0085L142.948 27.8751L143.348 27.9585C145.79 28.4584 145.79 28.6418 145.79 30.8751L145.79 50.6582C145.79 53.5665 145.448 53.6248 144.773 53.7415L142.907 54.0415L142.907 56.2498L144.132 56.1998C145.173 56.1998 146.507 56.0998 147.873 56.0998C149.24 56.0998 150.706 56.1581 151.781 56.2081L152.931 56.2081L152.931 54.0415L151.073 53.7498C150.431 53.6331 150.048 53.5581 150.048 50.6582L150.048 37.9667C151.41 37.0682 152.986 36.545 154.615 36.45C157.64 36.45 158.706 37.7583 158.706 41.45L158.706 50.6165C158.706 53.5248 158.365 53.5831 157.69 53.6998L155.815 53.9998L155.815 56.2498L157.048 56.1998C158.09 56.1998 159.423 56.0998 160.79 56.0998C162.156 56.0998 163.623 56.1581 164.698 56.2081L165.848 56.2081L165.848 54.0415L163.99 53.7498C163.348 53.6331 162.956 53.5581 162.956 50.6582" fill="#000000" fill-rule="nonzero" opacity="1" stroke="none"/>
<path d="M235.98 41.1333C236.439 38.55 238.039 35.775 241.255 35.775C244.072 35.775 245.355 38.275 245.355 40.65C245.355 41.0333 245.289 41.1333 244.847 41.1333L235.98 41.1333ZM241.43 32.8001C235.53 32.8001 231.256 37.9917 231.256 45.1499C231.256 52.3082 235.139 56.8164 241.655 56.8164C245.139 56.8164 247.955 55.2498 248.83 53.7831L248.922 53.6415L248.68 51.6165L248.03 51.9498C246.305 52.774 244.408 53.1739 242.497 53.1165C237.497 53.1165 235.73 48.7832 235.73 44.7332C235.73 44.4833 235.73 44.2166 235.73 43.8999L249.839 43.8999L249.905 43.4666C249.98 42.9143 250.01 42.357 249.997 41.8C249.997 37.4583 247.322 32.7751 241.43 32.7751L241.43 32.8001Z" fill="#000000" fill-rule="nonzero" opacity="1" stroke="none"/>
<path d="M189.031 42.7916C186.864 42.7916 185.231 42.7249 184.148 42.6749L183.223 42.6749L183.223 44.9166L185.298 45.3082C186.006 45.4499 186.681 45.5832 186.681 48.3582L186.681 53.1331C185.19 53.7371 183.589 54.021 181.981 53.9665C176.431 53.9665 172.856 49.1999 172.856 41.825C172.856 34.45 176.54 29.6834 182.023 29.6834C185.556 29.6834 187.648 31.5834 187.906 35.0417L187.906 35.5084L190.623 35.5084L190.581 34.9667C190.406 32.5334 190.364 30.5251 190.323 28.5834L190.323 28.2335L189.998 28.1168C187.464 27.182 184.782 26.7161 182.081 26.7418C173.923 26.7418 167.998 33.2167 167.998 42.1416C167.998 51.0665 173.331 56.8581 181.498 56.8581C184.65 56.8643 187.781 56.3345 190.756 55.2915L191.064 55.1581L191.064 48.2832C191.064 45.6249 191.506 45.3999 192.281 45.2332L194.048 44.8832L194.048 42.6416L192.839 42.6916C191.839 42.7333 190.606 42.7916 189.031 42.7916" fill="#000000" fill-rule="nonzero" opacity="1" stroke="none"/>
<path d="M30.3413 41.1333C30.7913 38.55 32.3996 35.775 35.6162 35.775C38.4329 35.775 39.7078 38.275 39.7078 40.65C39.7078 41.0333 39.6495 41.1333 39.2079 41.1333L30.3413 41.1333ZM35.7912 32.8001C29.8913 32.8001 25.6164 37.9917 25.6164 45.1499C25.6164 52.3082 29.4996 56.8164 36.0162 56.8164C39.4995 56.8164 42.3078 55.2498 43.1911 53.7831L43.2745 53.6415L43.0411 51.6165L42.3911 51.9498C40.6667 52.7887 38.7667 53.203 36.8495 53.1581C31.8496 53.1581 30.083 48.8249 30.083 44.7749C30.083 44.5249 30.083 44.2583 30.083 43.9416L44.1661 43.9416L44.2328 43.5083C44.3072 42.956 44.3379 42.3987 44.3245 41.8416C44.3578 37.5 41.6662 32.7917 35.8329 32.7917L35.7912 32.8001Z" fill="#000000" fill-rule="nonzero" opacity="1" stroke="none"/>
<path d="M55.491 42.2499C52.8244 41.2 51.1827 40.475 51.1827 38.5917C51.1827 36.025 53.5827 35.6417 55.016 35.6417C57.5826 35.6417 58.7659 36.8083 58.9743 39.525L58.9743 39.9916L61.6659 39.9916L61.6659 39.45C61.5256 37.7872 61.495 36.1169 61.5742 34.45L61.5742 34.1L61.2493 33.9584C59.3328 33.1977 57.2943 32.7911 55.2327 32.7584C50.5744 32.7584 47.3244 35.4 47.3244 39.1833C47.3244 43.9749 50.9744 45.3082 53.9077 46.3749C56.641 47.3749 58.316 48.0915 58.316 50.1748C58.316 52.2582 56.6493 53.7498 54.1493 53.7498C50.816 53.7498 49.9827 52.2998 49.6244 49.2582L49.5661 48.8165L46.8994 48.8165L46.8994 49.3582C47.0525 51.2986 47.0971 53.2461 47.0328 55.1915L47.0328 55.5748L47.3911 55.6998C49.5745 56.43 51.8638 56.7932 54.166 56.7748C58.6909 56.7748 62.2409 53.6498 62.2409 49.6749C62.2409 44.8749 58.516 43.4166 55.516 42.2499" fill="#000000" fill-rule="nonzero" opacity="1" stroke="none"/>
<path d="M16.2415 35.225C16.2415 38.5583 14.0415 40.6416 10.4915 40.6416C9.25822 40.6416 8.61656 40.6416 7.84157 40.55L7.84157 30.2251C8.75823 30.1668 9.87488 30.1668 10.8832 30.1668C14.3415 30.1668 16.2415 31.9667 16.2415 35.225M21.3331 51.8415C18.9433 49.1097 16.838 46.1417 15.0498 42.9833C18.4872 41.8055 20.8431 38.6312 20.9747 35C20.9747 30.0751 17.4998 27.1418 11.6665 27.1418C10.2832 27.1418 9.04156 27.1418 7.89157 27.2168C6.90825 27.2168 5.99159 27.2751 5.09994 27.2751C3.38329 27.2751 1.60831 27.2751 0.524994 27.2251L0 27.2251L0 29.4751L2.07497 29.8668C2.7833 30.0001 3.45829 30.1334 3.45829 32.9084L3.45829 50.5665C3.45829 53.3415 2.7833 53.4748 2.07497 53.6165L0 54.0081L0 56.2498L1.04165 56.2498C2.23331 56.2498 4.02495 56.1414 5.79993 56.1414C7.7999 56.1414 10.3749 56.2331 11.3915 56.2748L11.9165 56.2748L11.9165 53.9831L9.20822 53.6081C8.4999 53.4998 7.84157 53.4081 7.84157 50.5665L7.84157 43.6166C8.62489 43.6666 9.39155 43.6749 10.4082 43.6749C12.2973 47.2201 14.4917 50.5939 16.9665 53.7581C18.5097 55.6097 20.8152 56.6534 23.2247 56.5914C23.989 56.606 24.7484 56.4672 25.458 56.1831L25.7497 56.0498L25.7497 54.0581L25.2414 54.0581C24.0247 54.0581 22.5997 53.2248 21.3331 51.8415" fill="#000000" fill-rule="nonzero" opacity="1" stroke="none"/>
</g>
</g>
</svg>
