<?xml version="1.0" encoding="UTF-8" standalone="no"?>
<svg role="img" aria-labelledby="logo" viewBox="0 0 32 32" fill="none" version="1.1" id="svg2" sodipodi:docname="reuters.svg" width="32" height="32" inkscape:version="1.4-beta2 (9aaf4f34, 2024-07-30)" xmlns:inkscape="http://www.inkscape.org/namespaces/inkscape" xmlns:sodipodi="http://sodipodi.sourceforge.net/DTD/sodipodi-0.dtd" xmlns="http://www.w3.org/2000/svg" xmlns:svg="http://www.w3.org/2000/svg">
  <sodipodi:namedview id="namedview1" pagecolor="#ffffff" bordercolor="#000000" borderopacity="0.25" inkscape:showpageshadow="2" inkscape:pageopacity="0.0" inkscape:pagecheckerboard="0" inkscape:deskcolor="#d1d1d1" inkscape:zoom="4.6345445" inkscape:cx="23.734803" inkscape:cy="41.104363" inkscape:window-width="1440" inkscape:window-height="790" inkscape:window-x="0" inkscape:window-y="0" inkscape:window-maximized="1" inkscape:current-layer="svg2" />
  <defs id="defs2" />
  <g id="g1" transform="matrix(0.45714286,0,0,0.45714286,0.01719815,-2.2857144)">
    <path fill="#d64000" d="m 60.513254,14.394 a 4.7075,4.7075 0 0 1 1.38425,3.34425 4.69,4.69 0 0 1 -1.38425,3.34425 4.725,4.725 0 0 1 -6.67975,0 4.7075,4.7075 0 0 1 -1.38425,-3.34425 c 0,-1.26525 0.48825,-2.45175 1.38425,-3.34425 a 4.7075,4.7075 0 0 1 3.34075,-1.386 c 1.20925,0 2.422,0.462 3.34075,1.386 z M 9.4115037,65.592 a 4.7425,4.7425 0 0 1 0,-6.68675 4.69,4.69 0 0 1 3.3407503,-1.386 4.6725,4.6725 0 0 1 3.34075,1.386 4.7425,4.7425 0 0 1 0,6.68675 4.69,4.69 0 0 1 -3.34075,1.386 c -1.26,0 -2.45,-0.49 -3.3407503,-1.386 z M 45.421254,14.765 45.388004,14.751 c -1.0045,-0.42525 -1.79025,-1.2145 -2.205,-2.226 a 4.095,4.095 0 0 1 0,-3.16925 4.13,4.13 0 0 1 2.23825,-2.24 c 0.51275,-0.21175 1.0465,-0.3185 1.58375,-0.3185 a 4.095,4.095 0 0 1 1.582,0.3185 4.1475,4.1475 0 0 1 2.2365,5.40925 c -0.8715,2.1105 -3.29525,3.11325 -5.40225,2.24 z m -22.48225,50.15325 c 0.5355,0 1.06925,0.10675 1.5785,0.31325 a 4.1475,4.1475 0 0 1 2.23825,5.40925 4.1125,4.1125 0 0 1 -2.23825,2.24 c -1.02025,0.42525 -2.14025,0.42525 -3.16575,0 a 4.1475,4.1475 0 0 1 -2.23825,-5.40925 4.1125,4.1125 0 0 1 3.822,-2.5585 l 0.0035,0.0035 z m 15.56625,-56.371 c 0,1.90225 -1.505,3.45975 -3.381,3.54725 h -0.161 A 3.5525,3.5525 0 0 1 31.419504,8.54725 3.5525,3.5525 0 0 1 34.961504,5 c 1.95125,0 3.54375,1.5995 3.54375,3.55075 z m -7.091,62.9055 a 3.5525,3.5525 0 0 1 3.54375,-3.54725 3.5525,3.5525 0 0 1 3.54375,3.54725 A 3.5525,3.5525 0 0 1 34.958004,75 3.5525,3.5525 0 0 1 31.414254,71.45275 Z M 24.080004,13.673 a 2.94,2.94 0 0 1 -2.261,0 2.9225,2.9225 0 0 1 -1.60125,-1.603 2.9575,2.9575 0 0 1 1.60125,-3.86575 2.9225,2.9225 0 0 1 1.12525,-0.22575 c 1.162,0 2.261,0.693 2.73525,1.82875 0.301,0.735 0.301,1.53825 0,2.26275 a 2.905,2.905 0 0 1 -1.60125,1.603 z m 21.763,52.65225 a 2.9575,2.9575 0 0 1 1.13575,-0.231 3.01,3.01 0 0 1 1.12875,0.22575 c 0.73325,0.3045 1.302,0.87325 1.60125,1.603 a 2.9575,2.9575 0 0 1 0,2.26275 2.905,2.905 0 0 1 -1.60125,1.603 2.9575,2.9575 0 0 1 -2.2645,0 2.905,2.905 0 0 1 -1.60125,-1.603 c -0.301,-0.735 -0.301,-1.533 0,-2.26275 0.301,-0.72975 0.868,-1.2985 1.60125,-1.59775 V 66.327 Z M 14.418254,16.0985 c 0.91,0.91 0.92225,2.37475 0.0455,3.30225 l -0.0525,0.0525 a 2.38,2.38 0 0 1 -3.35125,0 2.38,2.38 0 0 1 0,-3.353 2.3625,2.3625 0 0 1 3.35125,0 h 0.0035 l 0.0017,-0.0017 z m 41.062,44.464 a 2.345,2.345 0 0 1 1.6695,-0.693 2.3625,2.3625 0 0 1 1.67475,0.693 c 0.448,0.4445 0.69125,1.0395 0.69125,1.67125 a 2.3625,2.3625 0 0 1 -4.039,1.6765 2.3625,2.3625 0 0 1 -0.69125,-1.6765 c 0,-0.62825 0.245,-1.22325 0.69125,-1.67125 z M 4.8072537,30.6935 c -1.5085,-0.62475 -2.22425,-2.36075 -1.60125,-3.86575 a 2.905,2.905 0 0 1 1.60125,-1.603 3.0625,3.0625 0 0 1 1.13575,-0.22575 2.94,2.94 0 0 1 1.12875,0.22575 c 1.5085,0.62475 2.22425,2.36075 1.60125,3.86575 a 2.905,2.905 0 0 1 -1.60125,1.603 2.94,2.94 0 0 1 -2.261,0 z M 65.128004,49.317 a 2.905,2.905 0 0 1 1.60125,1.603 c 0.301,0.735 0.301,1.533 0,2.26275 a 2.9575,2.9575 0 0 1 -3.86225,1.5995 2.905,2.905 0 0 1 -1.60125,-1.603 c -0.301,-0.735 -0.301,-1.533 0,-2.26275 0.47075,-1.13575 1.57325,-1.82525 2.73525,-1.82525 a 2.975,2.975 0 0 1 1.12525,0.22575 z M 3.6621094e-6,40.01925 A 3.5525,3.5525 0 0 1 3.5437537,36.472 3.5525,3.5525 0 0 1 7.0875037,40.01925 3.5525,3.5525 0 0 1 3.5437537,43.5665 3.5525,3.5525 0 0 1 3.6621094e-6,40.01925 Z m 62.8372503378906,0 a 3.5525,3.5525 0 0 1 3.54375,-3.54725 3.5525,3.5525 0 0 1 3.54375,3.54725 3.5525,3.5525 0 0 1 -3.54375,3.54725 3.5525,3.5525 0 0 1 -3.54375,-3.54725 z m -60.7390003,13.601 a 4.1475,4.1475 0 0 1 2.23825,-5.40925 c 1.02025,-0.42525 2.14025,-0.42525 3.164,0 a 4.13,4.13 0 0 1 2.23825,2.24 4.095,4.095 0 0 1 0,3.16925 4.13,4.13 0 0 1 -2.23825,2.24 c -1.02025,0.42525 -2.14025,0.42525 -3.164,0 a 4.13,4.13 0 0 1 -2.23825,-2.24 z M 60.152754,29.542 a 4.13,4.13 0 0 1 2.23825,-5.40225 4.0425,4.0425 0 0 1 1.57325,-0.3185 c 1.624,0 3.16575,0.96075 3.8255,2.55325 a 4.1475,4.1475 0 0 1 -2.23825,5.40925 c -1.02025,0.42525 -2.14025,0.42525 -3.164,0 -1.02375,-0.42525 -1.813,-1.21975 -2.23825,-2.24 h 0.0035 z m -15.1375,20.5205 a 3.325,3.325 0 0 0 0,4.697 c 1.29675,1.2985 3.40025,1.2985 4.697,0 a 3.29,3.29 0 0 0 0.973,-2.34675 3.29,3.29 0 0 0 -0.973,-2.345 c -0.6475,-0.6475 -1.4945,-0.97125 -2.34325,-0.97125 a 3.3425,3.3425 0 0 0 -2.352,0.96425 v 0.0018 z M 17.328504,37.98925 c -1.4035,-0.37275 -2.233,-1.81825 -1.8585,-3.2235 a 2.625,2.625 0 0 1 1.22675,-1.5995 2.59,2.59 0 0 1 1.3055,-0.357 c 0.22575,0 0.45675,0.02625 0.68425,0.0875 0.67725,0.18375 1.246,0.61775 1.596,1.2285 0.35,0.61075 0.44275,1.32125 0.2625,2.00025 a 2.625,2.625 0 0 1 -3.22,1.86025 h 0.0035 z m 33.8975,9.09475 c -0.67725,-0.18375 -1.246,-0.61775 -1.596,-1.2285 -0.35,-0.61075 -0.44275,-1.32125 -0.2625,-2.00025 a 2.625,2.625 0 0 1 1.22675,-1.5995 2.6075,2.6075 0 0 1 1.309,-0.35525 2.66,2.66 0 0 1 0.5635,0.0595 l 0.12425,0.03325 c 1.4035,0.37275 2.233,1.82525 1.8585,3.2235 a 2.625,2.625 0 0 1 -1.22675,1.59775 c -0.609,0.35 -1.3195,0.448 -1.99675,0.26425 v 0.0035 z m -35.245,-1.995 a 2.1175,2.1175 0 0 1 1.37025,-2.54975 l 0.12075,-0.03325 c 1.12175,-0.3045 2.2785,0.36925 2.5795,1.491 0.147,0.546 0.07525,1.113 -0.21175,1.603 a 2.1175,2.1175 0 0 1 -1.27925,0.9835 c -0.54075,0.147 -1.106,0.0735 -1.60125,-0.2135 a 2.1175,2.1175 0 0 1 -0.98175,-1.27925 l 0.0035,-0.0035 z m 34.86525,-7.79625 -0.091,-0.056 c -0.43925,-0.287 -0.7525,-0.71575 -0.88725,-1.22325 -0.301,-1.127 0.364,-2.282 1.48925,-2.5865 1.12525,-0.3045 2.2785,0.36925 2.5795,1.491 0.301,1.12175 -0.364,2.282 -1.48925,2.583 -0.54425,0.147 -1.106,0.06825 -1.60125,-0.21175 z m -27.118,16.15775 -0.0595,0.0595 c -0.61775,0.61775 -1.624,0.61775 -2.24175,0 -0.61775,-0.61775 -0.61775,-1.62225 0,-2.24 0.61775,-0.61775 1.624,-0.61775 2.24175,0 a 1.575,1.575 0 0 1 0.4655,1.12175 1.5575,1.5575 0 0 1 -0.406,1.057 z m 24.7485,-26.99725 a 1.575,1.575 0 0 1 0,2.2435 c -0.61775,0.61775 -1.624,0.61775 -2.24175,0 a 1.575,1.575 0 0 1 0,-2.2435 c 0.29925,-0.301 0.6965,-0.46725 1.12175,-0.46725 0.42525,0 0.82075,0.161 1.12175,0.462 v 0.0035 z m -16.23475,29.4525 c 0.28175,0.48475 0.35525,1.057 0.21175,1.603 -0.1435,0.546 -0.4935,0.9975 -0.98175,1.27925 -0.48825,0.28175 -1.057,0.35525 -1.60125,0.21175 -1.12175,-0.301 -1.79025,-1.4595 -1.48925,-2.58125 0.147,-0.546 0.4935,-0.9975 0.98175,-1.27925 a 2.1,2.1 0 0 1 1.60125,-0.2135 c 0.54425,0.147 0.9975,0.4935 1.27925,0.9835 v -0.0035 l -0.0018,-0.0017 z m 5.425,-31.80275 c -0.28175,-0.48475 -0.357,-1.057 -0.2135,-1.603 0.1435,-0.546 0.4935,-0.9975 0.98175,-1.27925 a 2.1175,2.1175 0 0 1 1.0465,-0.28175 c 0.18375,0 0.364,0.02275 0.5495,0.06825 a 2.0825,2.0825 0 0 1 1.2775,0.9835 c 0.28175,0.48475 0.357,1.057 0.2135,1.603 -0.301,1.12175 -1.45775,1.792 -2.5795,1.491 a 2.0825,2.0825 0 0 1 -1.2775,-0.9835 z m 3.164,30.59 0.112,0.06475 a 2.625,2.625 0 0 1 1.113,1.52775 c 0.37275,1.4035 -0.4585,2.849 -1.8585,3.2235 -0.68425,0.1855 -1.38775,0.0875 -1.99675,-0.2625 -0.609,-0.35 -1.043,-0.91875 -1.22675,-1.59775 a 2.625,2.625 0 0 1 1.8585,-3.2305 2.765,2.765 0 0 1 0.68775,-0.0875 2.6075,2.6075 0 0 1 1.309,0.35525 l 0.0035,0.0035 v 0.0017 z m -9.73,-29.10775 a 2.6425,2.6425 0 0 1 -3.22,-1.86025 c -0.37275,-1.4035 0.45675,-2.849 1.8585,-3.2235 a 2.66,2.66 0 0 1 0.67725,-0.0875 c 1.162,0 2.22775,0.77525 2.54275,1.9495 0.37275,1.4035 -0.4585,2.849 -1.8585,3.2235 z m -8.54525,5.2885 c 1.8305,0 3.31275,-1.484 3.31275,-3.31625 0,-1.83225 -1.484,-3.31625 -3.31275,-3.31625 -1.82875,0 -3.31275,1.484 -3.31275,3.31625 0,1.83225 1.484,3.31625 3.31275,3.31625 z" id="path2" style="fill:#000000;stroke-width:1.75" />
    <path fill="#d64000" d="m 60.513254,14.394 a 4.7075,4.7075 0 0 1 1.38425,3.34425 4.69,4.69 0 0 1 -1.38425,3.34425 4.725,4.725 0 0 1 -6.67975,0 4.7075,4.7075 0 0 1 -1.38425,-3.34425 c 0,-1.26525 0.48825,-2.45175 1.38425,-3.34425 a 4.7075,4.7075 0 0 1 3.34075,-1.386 c 1.20925,0 2.422,0.462 3.34075,1.386 z M 9.4115037,65.592 a 4.7425,4.7425 0 0 1 0,-6.68675 4.69,4.69 0 0 1 3.3407503,-1.386 4.6725,4.6725 0 0 1 3.34075,1.386 4.7425,4.7425 0 0 1 0,6.68675 4.69,4.69 0 0 1 -3.34075,1.386 c -1.26,0 -2.45,-0.49 -3.3407503,-1.386 z M 45.421254,14.765 45.388004,14.751 c -1.0045,-0.42525 -1.79025,-1.2145 -2.205,-2.226 a 4.095,4.095 0 0 1 0,-3.16925 4.13,4.13 0 0 1 2.23825,-2.24 c 0.51275,-0.21175 1.0465,-0.3185 1.58375,-0.3185 a 4.095,4.095 0 0 1 1.582,0.3185 4.1475,4.1475 0 0 1 2.2365,5.40925 c -0.8715,2.1105 -3.29525,3.11325 -5.40225,2.24 z m -22.48225,50.15325 c 0.5355,0 1.06925,0.10675 1.5785,0.31325 a 4.1475,4.1475 0 0 1 2.23825,5.40925 4.1125,4.1125 0 0 1 -2.23825,2.24 c -1.02025,0.42525 -2.14025,0.42525 -3.16575,0 a 4.1475,4.1475 0 0 1 -2.23825,-5.40925 4.1125,4.1125 0 0 1 3.822,-2.5585 l 0.0035,0.0035 z m 15.56625,-56.371 c 0,1.90225 -1.505,3.45975 -3.381,3.54725 h -0.161 A 3.5525,3.5525 0 0 1 31.419504,8.54725 3.5525,3.5525 0 0 1 34.961504,5 c 1.95125,0 3.54375,1.5995 3.54375,3.55075 z m -7.091,62.9055 a 3.5525,3.5525 0 0 1 3.54375,-3.54725 3.5525,3.5525 0 0 1 3.54375,3.54725 A 3.5525,3.5525 0 0 1 34.958004,75 3.5525,3.5525 0 0 1 31.414254,71.45275 Z M 24.080004,13.673 a 2.94,2.94 0 0 1 -2.261,0 2.9225,2.9225 0 0 1 -1.60125,-1.603 2.9575,2.9575 0 0 1 1.60125,-3.86575 2.9225,2.9225 0 0 1 1.12525,-0.22575 c 1.162,0 2.261,0.693 2.73525,1.82875 0.301,0.735 0.301,1.53825 0,2.26275 a 2.905,2.905 0 0 1 -1.60125,1.603 z m 21.763,52.65225 a 2.9575,2.9575 0 0 1 1.13575,-0.231 3.01,3.01 0 0 1 1.12875,0.22575 c 0.73325,0.3045 1.302,0.87325 1.60125,1.603 a 2.9575,2.9575 0 0 1 0,2.26275 2.905,2.905 0 0 1 -1.60125,1.603 2.9575,2.9575 0 0 1 -2.2645,0 2.905,2.905 0 0 1 -1.60125,-1.603 c -0.301,-0.735 -0.301,-1.533 0,-2.26275 0.301,-0.72975 0.868,-1.2985 1.60125,-1.59775 V 66.327 Z M 14.418254,16.0985 c 0.91,0.91 0.92225,2.37475 0.0455,3.30225 l -0.0525,0.0525 a 2.38,2.38 0 0 1 -3.35125,0 2.38,2.38 0 0 1 0,-3.353 2.3625,2.3625 0 0 1 3.35125,0 h 0.0035 l 0.0017,-0.0017 z m 41.062,44.464 a 2.345,2.345 0 0 1 1.6695,-0.693 2.3625,2.3625 0 0 1 1.67475,0.693 c 0.448,0.4445 0.69125,1.0395 0.69125,1.67125 a 2.3625,2.3625 0 0 1 -4.039,1.6765 2.3625,2.3625 0 0 1 -0.69125,-1.6765 c 0,-0.62825 0.245,-1.22325 0.69125,-1.67125 z M 4.8072537,30.6935 c -1.5085,-0.62475 -2.22425,-2.36075 -1.60125,-3.86575 a 2.905,2.905 0 0 1 1.60125,-1.603 3.0625,3.0625 0 0 1 1.13575,-0.22575 2.94,2.94 0 0 1 1.12875,0.22575 c 1.5085,0.62475 2.22425,2.36075 1.60125,3.86575 a 2.905,2.905 0 0 1 -1.60125,1.603 2.94,2.94 0 0 1 -2.261,0 z M 65.128004,49.317 a 2.905,2.905 0 0 1 1.60125,1.603 c 0.301,0.735 0.301,1.533 0,2.26275 a 2.9575,2.9575 0 0 1 -3.86225,1.5995 2.905,2.905 0 0 1 -1.60125,-1.603 c -0.301,-0.735 -0.301,-1.533 0,-2.26275 0.47075,-1.13575 1.57325,-1.82525 2.73525,-1.82525 a 2.975,2.975 0 0 1 1.12525,0.22575 z M 3.6621094e-6,40.01925 A 3.5525,3.5525 0 0 1 3.5437537,36.472 3.5525,3.5525 0 0 1 7.0875037,40.01925 3.5525,3.5525 0 0 1 3.5437537,43.5665 3.5525,3.5525 0 0 1 3.6621094e-6,40.01925 Z m 62.8372503378906,0 a 3.5525,3.5525 0 0 1 3.54375,-3.54725 3.5525,3.5525 0 0 1 3.54375,3.54725 3.5525,3.5525 0 0 1 -3.54375,3.54725 3.5525,3.5525 0 0 1 -3.54375,-3.54725 z m -60.7390003,13.601 a 4.1475,4.1475 0 0 1 2.23825,-5.40925 c 1.02025,-0.42525 2.14025,-0.42525 3.164,0 a 4.13,4.13 0 0 1 2.23825,2.24 4.095,4.095 0 0 1 0,3.16925 4.13,4.13 0 0 1 -2.23825,2.24 c -1.02025,0.42525 -2.14025,0.42525 -3.164,0 a 4.13,4.13 0 0 1 -2.23825,-2.24 z M 60.152754,29.542 a 4.13,4.13 0 0 1 2.23825,-5.40225 4.0425,4.0425 0 0 1 1.57325,-0.3185 c 1.624,0 3.16575,0.96075 3.8255,2.55325 a 4.1475,4.1475 0 0 1 -2.23825,5.40925 c -1.02025,0.42525 -2.14025,0.42525 -3.164,0 -1.02375,-0.42525 -1.813,-1.21975 -2.23825,-2.24 h 0.0035 z m -15.1375,20.5205 a 3.325,3.325 0 0 0 0,4.697 c 1.29675,1.2985 3.40025,1.2985 4.697,0 a 3.29,3.29 0 0 0 0.973,-2.34675 3.29,3.29 0 0 0 -0.973,-2.345 c -0.6475,-0.6475 -1.4945,-0.97125 -2.34325,-0.97125 a 3.3425,3.3425 0 0 0 -2.352,0.96425 v 0.0018 z M 17.328504,37.98925 c -1.4035,-0.37275 -2.233,-1.81825 -1.8585,-3.2235 a 2.625,2.625 0 0 1 1.22675,-1.5995 2.59,2.59 0 0 1 1.3055,-0.357 c 0.22575,0 0.45675,0.02625 0.68425,0.0875 0.67725,0.18375 1.246,0.61775 1.596,1.2285 0.35,0.61075 0.44275,1.32125 0.2625,2.00025 a 2.625,2.625 0 0 1 -3.22,1.86025 h 0.0035 z m 33.8975,9.09475 c -0.67725,-0.18375 -1.246,-0.61775 -1.596,-1.2285 -0.35,-0.61075 -0.44275,-1.32125 -0.2625,-2.00025 a 2.625,2.625 0 0 1 1.22675,-1.5995 2.6075,2.6075 0 0 1 1.309,-0.35525 2.66,2.66 0 0 1 0.5635,0.0595 l 0.12425,0.03325 c 1.4035,0.37275 2.233,1.82525 1.8585,3.2235 a 2.625,2.625 0 0 1 -1.22675,1.59775 c -0.609,0.35 -1.3195,0.448 -1.99675,0.26425 v 0.0035 z m -35.245,-1.995 a 2.1175,2.1175 0 0 1 1.37025,-2.54975 l 0.12075,-0.03325 c 1.12175,-0.3045 2.2785,0.36925 2.5795,1.491 0.147,0.546 0.07525,1.113 -0.21175,1.603 a 2.1175,2.1175 0 0 1 -1.27925,0.9835 c -0.54075,0.147 -1.106,0.0735 -1.60125,-0.2135 a 2.1175,2.1175 0 0 1 -0.98175,-1.27925 l 0.0035,-0.0035 z m 34.86525,-7.79625 -0.091,-0.056 c -0.43925,-0.287 -0.7525,-0.71575 -0.88725,-1.22325 -0.301,-1.127 0.364,-2.282 1.48925,-2.5865 1.12525,-0.3045 2.2785,0.36925 2.5795,1.491 0.301,1.12175 -0.364,2.282 -1.48925,2.583 -0.54425,0.147 -1.106,0.06825 -1.60125,-0.21175 z m -27.118,16.15775 -0.0595,0.0595 c -0.61775,0.61775 -1.624,0.61775 -2.24175,0 -0.61775,-0.61775 -0.61775,-1.62225 0,-2.24 0.61775,-0.61775 1.624,-0.61775 2.24175,0 a 1.575,1.575 0 0 1 0.4655,1.12175 1.5575,1.5575 0 0 1 -0.406,1.057 z m 24.7485,-26.99725 a 1.575,1.575 0 0 1 0,2.2435 c -0.61775,0.61775 -1.624,0.61775 -2.24175,0 a 1.575,1.575 0 0 1 0,-2.2435 c 0.29925,-0.301 0.6965,-0.46725 1.12175,-0.46725 0.42525,0 0.82075,0.161 1.12175,0.462 v 0.0035 z m -16.23475,29.4525 c 0.28175,0.48475 0.35525,1.057 0.21175,1.603 -0.1435,0.546 -0.4935,0.9975 -0.98175,1.27925 -0.48825,0.28175 -1.057,0.35525 -1.60125,0.21175 -1.12175,-0.301 -1.79025,-1.4595 -1.48925,-2.58125 0.147,-0.546 0.4935,-0.9975 0.98175,-1.27925 a 2.1,2.1 0 0 1 1.60125,-0.2135 c 0.54425,0.147 0.9975,0.4935 1.27925,0.9835 v -0.0035 l -0.0018,-0.0017 z m 5.425,-31.80275 c -0.28175,-0.48475 -0.357,-1.057 -0.2135,-1.603 0.1435,-0.546 0.4935,-0.9975 0.98175,-1.27925 a 2.1175,2.1175 0 0 1 1.0465,-0.28175 c 0.18375,0 0.364,0.02275 0.5495,0.06825 a 2.0825,2.0825 0 0 1 1.2775,0.9835 c 0.28175,0.48475 0.357,1.057 0.2135,1.603 -0.301,1.12175 -1.45775,1.792 -2.5795,1.491 a 2.0825,2.0825 0 0 1 -1.2775,-0.9835 z m 3.164,30.59 0.112,0.06475 a 2.625,2.625 0 0 1 1.113,1.52775 c 0.37275,1.4035 -0.4585,2.849 -1.8585,3.2235 -0.68425,0.1855 -1.38775,0.0875 -1.99675,-0.2625 -0.609,-0.35 -1.043,-0.91875 -1.22675,-1.59775 a 2.625,2.625 0 0 1 1.8585,-3.2305 2.765,2.765 0 0 1 0.68775,-0.0875 2.6075,2.6075 0 0 1 1.309,0.35525 l 0.0035,0.0035 v 0.0017 z m -9.73,-29.10775 a 2.6425,2.6425 0 0 1 -3.22,-1.86025 c -0.37275,-1.4035 0.45675,-2.849 1.8585,-3.2235 a 2.66,2.66 0 0 1 0.67725,-0.0875 c 1.162,0 2.22775,0.77525 2.54275,1.9495 0.37275,1.4035 -0.4585,2.849 -1.8585,3.2235 z m -8.54525,5.2885 c 1.8305,0 3.31275,-1.484 3.31275,-3.31625 0,-1.83225 -1.484,-3.31625 -3.31275,-3.31625 -1.82875,0 -3.31275,1.484 -3.31275,3.31625 0,1.83225 1.484,3.31625 3.31275,3.31625 z" id="path2-9" style="fill:#000000;stroke-width:1.75" />
  </g>
</svg>
