<?xml version="1.0" encoding="UTF-8"?><svg id="a" xmlns="http://www.w3.org/2000/svg" viewBox="0 0 261.61 80"><path d="m118.94,52.53h-4.27c-.35,0-.52-.35-.69-.69l-5.05-8.53h-.79c-.96,0-3.74-.08-4.61-.18v8.71c0,.38-.3.69-.68.69h-3.48c-.38-.03-.68-.32-.69-.69v-23.16c0-.69.43-.96,1.13-1.04,2.77-.3,5.57-.44,8.35-.43,5.4,0,10.44,1.91,10.44,7.92v.35c0,3.74-1.83,5.75-4.79,6.88l5.47,9.4c.07.07.1.17.08.26.02.26-.17.5-.43.53,0,0,0-.02,0-.02Zm-5.31-17.41c0-2.62-2.09-3.74-5.57-3.74-.79,0-3.92.08-4.61.18v7.57c.52,0,4,.08,4.61.08,3.66,0,5.57-.69,5.57-3.83v-.26Zm15.15,10.44c0,2.96.08,3.05,2.78,3.05h8.88c.37.03.68.32.69.69v2.26c0,.53-.18.69-.69.79-2.5.38-5.04.55-7.58.53-5.83,0-8.96,0-8.96-7.23v-11.23c0-7.23,3.13-7.23,8.96-7.23,2.53-.04,5.07.14,7.58.52.52.08.69.26.69.79v2.26c-.03.37-.32.67-.69.69h-8.88c-2.7,0-2.78.08-2.78,3.05v3.22h11.23c.37.03.68.32.69.69v2.44c-.03.38-.32.68-.69.69h-11.23v4h0Zm28.21,7.23c-5.66,0-10.54-2.44-10.54-9.93v-14.71c.03-.37.32-.67.69-.69h3.48c.38,0,.69.3.69.67h0v14.64c0,4,1.83,5.92,5.66,5.92s5.66-1.91,5.66-5.92v-14.63c.03-.37.32-.67.69-.69h3.48c.38,0,.69.3.69.67h0v14.64c0,7.49-4.87,10.01-10.54,10.01h.02,0Zm33.69-21.24h-7.05v20.19c-.03.38-.32.68-.69.69h-3.48c-.37-.03-.68-.32-.69-.69v-20.19h-7.05c-.36.02-.67-.25-.69-.61v-2.78c.03-.37.32-.67.69-.69h18.98c.38,0,.69.3.69.67h0v2.8c-.03.36-.34.63-.69.61h0Zm47.8,20.98h-4.27c-.35,0-.52-.35-.69-.69l-5.05-8.53h-.79c-.87,0-3.74-.08-4.61-.18v8.71c0,.38-.3.69-.68.69h-3.48c-.37-.03-.68-.32-.69-.69v-23.16c0-.69.43-.96,1.13-1.04,2.78-.3,5.57-.44,8.35-.43,5.4,0,10.44,1.91,10.44,7.92v.35c0,3.74-1.83,5.75-4.79,6.88l5.57,9.4c.07.07.1.17.08.26-.08.26-.26.53-.52.53h-.02v-.02h0Zm-5.22-17.41c0-2.62-2.09-3.74-5.57-3.74-.69,0-3.92.08-4.61.18v7.57c.61,0,4,.08,4.61.08,3.66,0,5.57-.69,5.57-3.83v-.26Zm18.72,17.67c-2.67,0-5.32-.33-7.92-.96-.35-.08-.69-.35-.69-.69v-2.52c.03-.38.32-.68.69-.69h.08c2.62.37,5.27.57,7.92.61,3.13,0,4.09-1.13,4.09-3.13,0-2.62-6.27-4.09-9.4-5.4-2.58-.94-4.27-3.43-4.18-6.18,0-3.92,3.13-6.7,9.67-6.7,2.59,0,5.16.32,7.66.96.34.06.59.35.61.69v2.62c.02.32-.23.59-.55.61h-.14c-2.35-.18-4.7-.61-7.84-.61-2.62,0-4.53.96-4.53,2.52,0,1.13,1.3,2.26,2.87,2.87s3.66,1.4,5.92,2.35c2.96,1.22,4.88,2.96,4.88,6.36s-2.09,7.31-9.14,7.31h.02,0Zm-52.15-7.23c0,2.96.08,3.05,2.78,3.05h8.96c.37.03.68.32.69.69v2.26c0,.53-.18.69-.69.79-2.5.38-5.04.55-7.58.53-5.83,0-8.96,0-8.96-7.23v-11.23c0-7.23,3.13-7.23,8.96-7.23,2.53-.04,5.07.14,7.58.52.52.08.69.26.69.79v2.26c-.03.37-.32.67-.69.69h-8.88c-2.7,0-2.78.08-2.78,3.05v3.22h11.23c.37.03.68.32.69.69v2.44c-.03.38-.32.68-.69.69h-11.23v4h-.08Z" style="stroke:#000; stroke-miterlimit:10;"/><path d="m35.78,29.01c.41.75.14,1.68-.61,2.09s-1.68.14-2.09-.61-.14-1.68.61-2.09h0c.72-.41,1.64-.17,2.05.55l.04.07h0Zm-7.74,12.27c-.43.24-.59.79-.35,1.22.24.43.79.59,1.22.35h0c.4-.22.57-.71.37-1.13v-.05h0c-.22-.43-.74-.6-1.17-.38h0l-.07-.02h0Zm-.18-3.83c-.52.29-.72.95-.43,1.48.29.53.95.72,1.48.43.52-.29.72-.95.43-1.47-.29-.53-.95-.71-1.48-.43h0Zm1.04-3.57c-.6.31-.83,1.05-.52,1.66s1.05.83,1.66.53c.6-.31.83-1.05.53-1.66h0c-.31-.59-1.04-.83-1.64-.53h-.02Zm1.91-3.13c-.67.32-.95,1.13-.63,1.79h0c.29.64,1.03.91,1.66.63.06-.03.11-.06.17-.09.67-.32.96-1.12.64-1.79v-.02h0c-.31-.64-1.07-.91-1.71-.6l-.04.02s-.09.07-.09.07Zm-1.48,14.1c-.35.23-.5.66-.35,1.04h0c.2.38.66.54,1.04.35.38-.2.54-.66.35-1.04-.13-.36-.52-.54-.87-.43-.07.02-.12.05-.18.08h0Zm17.85-12.88c.24.41.78.55,1.19.3.41-.24.55-.78.3-1.19-.23-.39-.74-.54-1.14-.33h0c-.43.22-.6.74-.38,1.17h0s.03.05.03.05Zm-3.13-2.01c.29.52.95.72,1.48.43.53-.29.72-.95.43-1.48-.29-.52-.95-.72-1.47-.43-.53.27-.73.91-.46,1.43l.03.06h0Zm-3.66-.96c.33.58,1.05.81,1.65.52h0c.58-.33.81-1.05.53-1.65h0c-.33-.58-1.05-.81-1.65-.52h0c-.59.28-.84.99-.56,1.59h0s.03.04.04.07h0Zm-3.74.18c.37.69,1.22.97,1.91.61h0c.64-.33.9-1.1.59-1.74-.02-.05-.05-.08-.07-.13-.38-.67-1.24-.91-1.91-.52h0c-.61.37-.83,1.14-.53,1.78h0Zm12.88,5.66c.23.35.66.5,1.04.35.38-.21.53-.66.35-1.04h0c-.23-.35-.66-.5-1.04-.35-.36.11-.56.49-.45.84v.02c.02.07.06.12.09.18h0Zm-2.7,14.63c-.37-.73-1.25-1.03-1.99-.68l-.1.07h0c-.73.37-1.03,1.25-.68,1.99l.07.1h0c.38.74,1.29,1.02,2.03.65h.07c.74-.4,1.02-1.33.62-2.08v-.05h0Zm-14.1-1.48c-.24-.43-.79-.59-1.22-.35-.43.24-.59.79-.35,1.22h0c.22.43.74.6,1.17.38h.05c.43-.22.6-.74.38-1.17h0l-.03-.07h0Zm3.13,1.91c-.29-.53-.95-.71-1.48-.43-.5.25-.69.86-.44,1.36h0c.29.53.95.71,1.48.43.49-.22.71-.79.5-1.28-.02-.04-.04-.07-.07-.09h0Zm3.57,1.04c-.31-.6-1.05-.83-1.66-.53-.6.31-.83,1.05-.53,1.66.31.6,1.05.83,1.66.53h0c.59-.28.84-.99.56-1.59h0s-.03-.04-.04-.07Zm3.83-.18c-.33-.66-1.12-.92-1.77-.6h0l-.13.07c-.68.38-.91,1.24-.53,1.91h0c.32.65,1.09.93,1.74.64h.06c.7-.41.98-1.28.65-2.03h-.02Zm8.53-12.1c.45-.27.61-.84.35-1.3-.22-.43-.74-.6-1.17-.38h0c-.44.19-.66.69-.47,1.13.02.04.04.08.06.1h0c.18.44.68.66,1.13.48l.11-.05h0Zm.18,3.83c.53-.29.72-.95.43-1.48s-.95-.72-1.48-.43h0c-.53.29-.72.95-.43,1.48s.95.72,1.48.43Zm-.96,3.57c.6-.31.83-1.05.53-1.66-.31-.6-1.05-.83-1.66-.53s-.83,1.05-.53,1.66h0c.27.59.97.84,1.56.57l.09-.06h0Zm-2.01,3.13c.65-.36.88-1.18.53-1.83s-1.18-.88-1.83-.53h0c-.64.33-.9,1.1-.59,1.74.02.05.05.08.07.13h0c.4.59,1.18.8,1.83.48Z" style="stroke-width:0px;"/><path d="m46.42,25.26c-.35,1.06-1.44,1.67-2.52,1.4h0c-1.06-.35-1.67-1.44-1.4-2.52h0c.31-1.08,1.44-1.71,2.52-1.4,1.08.31,1.71,1.44,1.4,2.52Zm-19.33,4.7c-.52-.14-1.08.17-1.22.69s.17,1.08.69,1.22c.5.1,1-.15,1.22-.61.1-.54-.19-1.09-.69-1.3Zm3.48-3.83c-.64-.17-1.29.2-1.47.82v.05h0c-.18.63.17,1.28.79,1.48h0c.67.16,1.35-.22,1.57-.87.08-.64-.28-1.25-.88-1.48Zm4.44-2.7c-.82-.24-1.68.22-1.91,1.04s.23,1.68,1.04,1.91c.82.22,1.66-.24,1.91-1.04h0c.26-.8-.17-1.65-.97-1.91h-.08Zm4.96-1.13c-.91-.28-1.88.22-2.17,1.13h0c-.27.92.25,1.89,1.17,2.17h0c.92.27,1.89-.25,2.17-1.17h0c.25-.91-.27-1.85-1.16-2.13Zm-15.15,12.45c-.4-.08-.8.14-.96.53h0c-.11.4.12.83.52.96h0c.42.08.82-.2.91-.61.07-.37-.13-.73-.47-.86h0Zm30.12,4.53c-.14.53.17,1.08.69,1.22h0c.53.14,1.08-.17,1.22-.69s-.17-1.08-.69-1.22c-.53-.14-1.08.17-1.22.69Zm-1.13-5.05c-.16.65.18,1.3.79,1.57h0c.68.19,1.37-.21,1.57-.87.17-.64-.22-1.3-.85-1.47h-.02c-.62-.18-1.28.16-1.48.78Zm-2.7-4.44c-.24.82.23,1.67,1.05,1.91.82.24,1.67-.22,1.91-1.05.23-.82-.23-1.67-1.04-1.91h0c-.8-.25-1.64.19-1.89.98,0,.03,0,.05-.02.07h0Zm-3.83-3.48c-.26.94.28,1.91,1.22,2.17s1.91-.28,2.17-1.22h0c.27-.92-.25-1.89-1.17-2.17h-.05c-.92-.27-1.89.25-2.17,1.17h0v.04h0Zm7.23,17.93c-.11.4.12.83.53.96.4.08.8-.14.96-.53h0c.08-.4-.14-.8-.53-.96h0c-.4-.08-.8.14-.96.53Zm-17.15,11.58c.32-1.06-.27-2.17-1.32-2.5h-.07c-1.06-.32-2.17.27-2.5,1.32v.07h0c-.32,1.06.27,2.17,1.32,2.5h.07c1,.36,2.1-.17,2.46-1.17v-.02c.02-.07.04-.14.05-.21h0Zm-12.45-15.15c.14-.53-.17-1.08-.69-1.22s-1.08.17-1.22.69.17,1.08.69,1.22h0c.49.17,1.01-.09,1.18-.57.02-.04.03-.08.04-.12Zm1.22,5.05c.18-.63-.17-1.28-.79-1.48h0c-.63-.18-1.28.17-1.48.79h0c-.2.63.16,1.28.79,1.48.63.2,1.28-.16,1.48-.79h0Zm2.7,4.44c.25-.79-.18-1.63-.96-1.89h-.07c-.82-.24-1.67.23-1.91,1.04h0c-.22.82.24,1.66,1.04,1.91h0c.8.25,1.64-.19,1.89-.98v-.08Zm3.83,3.48c.26-.94-.28-1.91-1.22-2.17s-1.91.28-2.17,1.22h0c-.27.92.26,1.89,1.18,2.16h.04c.93.23,1.88-.3,2.17-1.21h0Zm20.19-3.74c.53.14,1.08-.17,1.22-.69s-.17-1.08-.69-1.22c-.53-.14-1.08.17-1.22.69-.16.51.12,1.04.63,1.2h0s.07.02.07.02Zm-3.48,3.92c.63.18,1.28-.17,1.48-.79.16-.65-.18-1.3-.79-1.57h0c-.68-.19-1.37.21-1.57.87-.16.65.23,1.3.87,1.48Zm-4.53,2.7c.82.23,1.66-.24,1.91-1.04h0c.23-.82-.24-1.66-1.04-1.91h0c-.82-.24-1.68.23-1.91,1.04-.24.82.23,1.68,1.04,1.91Zm-4.96,1.13c.91.28,1.88-.23,2.17-1.13h0c.26-.94-.28-1.91-1.22-2.17s-1.91.28-2.17,1.22h0c-.18.9.35,1.8,1.22,2.09Z" style="stroke-width:0px;"/><path d="m56.42,26.31c-.99,1.02-2.62,1.06-3.66.08-1.03-.94-1.12-2.53-.18-3.56h0l.08-.08h0c.94-1.03,2.53-1.12,3.56-.18h0l.08.08h0c1.02.99,1.06,2.62.08,3.66h.02Zm-25.86-5.92c-.53-.48-1.35-.44-1.83.09s-.44,1.35.09,1.83c.52.48,1.35.44,1.83-.08h0c.46-.53.42-1.34-.08-1.84h0Zm6.52-2.44c-.64-.61-1.66-.58-2.27.06-.61.64-.58,1.66.06,2.27h0c.66.58,1.65.54,2.26-.08.53-.66.51-1.6-.06-2.24h0Zm6.88-.53c-.82-.74-2.08-.68-2.83.13s-.68,2.08.13,2.83h0c.81.71,2.03.67,2.78-.08.77-.77.77-2.03,0-2.79l-.08-.07h0Zm6.62,1.65c-.92-.84-2.34-.81-3.22.08h0c-.84.92-.81,2.34.08,3.23h0c.83.95,2.27,1.05,3.22.22.95-.82,1.05-2.27.23-3.22-.05-.06-.1-.11-.16-.16l-.15-.15h0Zm-25.51,5.66c-.36-.36-.95-.36-1.3,0s-.36.95,0,1.3h0c.37.35.94.35,1.3,0h0c.37-.26.44-.78.18-1.14h0c-.05-.07-.1-.11-.18-.16Zm33.17,23.42c-.47.49-.47,1.26,0,1.74h0c.53.46,1.34.42,1.83-.08.46-.51.41-1.28-.08-1.74-.48-.48-1.24-.5-1.74-.05v.13Zm1.65-6.52c-.58.66-.54,1.65.08,2.26.61.61,1.59.61,2.2,0,.02-.02.05-.04.07-.07h0c.57-.56.57-1.47,0-2.04h0l-.13-.13h0c-.52-.6-1.42-.68-2.04-.19,0,0-.18.17-.18.17Zm-.53-6.97c-.76.76-.76,1.99,0,2.75v.05h0c.77.74,2,.72,2.75-.05h0c.7-.73.7-1.88,0-2.62-.04-.05-.08-.09-.14-.13-.72-.71-1.88-.71-2.62,0h0Zm-2.44-6.44c-.87.91-.83,2.35.08,3.23.91.87,2.35.83,3.23-.08.87-.91.83-2.35-.08-3.23h0c-.87-.87-2.28-.87-3.15,0h0l-.07.08h0Zm-2.17,25.68c-.35.37-.35.94,0,1.3.34.34.89.34,1.23,0l.08-.08h0c.35-.37.35-.94,0-1.3h0c-.38-.33-.97-.28-1.3.08Zm-27.51,3.31c.95-1.06.87-2.69-.18-3.66-1.05-.93-2.64-.89-3.66.08-.95,1.06-.87,2.69.18,3.66,1.05.93,2.64.89,3.66-.08Zm-5.66-25.43c.48-.53.44-1.35-.09-1.83s-1.35-.44-1.83.09c-.48.52-.44,1.35.08,1.83h0c.53.47,1.35.43,1.84-.08h0Zm-1.57,6.53c.61-.64.58-1.66-.06-2.27-.64-.61-1.66-.58-2.27.06h0c-.54.64-.51,1.58.08,2.17.53.63,1.47.7,2.1.17.06-.05.11-.1.17-.17,0,0-.03.04-.03.04Zm.43,6.97c.76-.83.72-2.1-.08-2.87-.8-.72-2.03-.67-2.75.13h0c-.76.83-.72,2.11.08,2.88.82.68,2.02.62,2.75-.14Zm2.44,6.44c.84-.92.81-2.34-.08-3.22-.88-.84-2.27-.82-3.11.07h0c-.84.92-.81,2.34.08,3.22h0c.88.84,2.27.82,3.11-.07h0,0Zm26.38,7.84c.49.47,1.26.47,1.74,0h.05c.48-.51.46-1.3-.05-1.78h0c-.5-.5-1.29-.5-1.78,0v.05h0c-.41.52-.39,1.25.05,1.74h0Zm-6.44,2.44c.66.58,1.65.54,2.26-.08.58-.55.6-1.46.06-2.04h0l-.13-.13h0c-.61-.61-1.59-.61-2.2,0-.02.02-.05.04-.07.07-.58.55-.6,1.46-.06,2.04h0l.13.16h0Zm-6.97.53c.83.76,2.1.72,2.87-.08.76-.76.76-1.99,0-2.75l-.05-.05h0c-.83-.76-2.1-.72-2.87.08-.75.77-.72,2,.05,2.75l.02.02-.02.03Zm-6.52-1.65c.88.84,2.27.82,3.11-.07h0c.95-.83,1.05-2.27.23-3.22s-2.27-1.05-3.22-.23c-.06.05-.11.1-.16.16-.06.05-.1.09-.15.15h0c-.81.95-.72,2.36.19,3.21h0Z" style="stroke-width:0px;"/><path d="m66.96,31.8c-1.58.67-3.42-.07-4.09-1.65-.68-1.58.07-3.42,1.65-4.09h0c1.61-.63,3.42.15,4.09,1.74.52,1.56-.19,3.26-1.65,4h0Zm-22.02-20.03c-.18-.93-1.07-1.56-2.01-1.4h0c-.93.18-1.56,1.07-1.4,2.01h0c.22.94,1.15,1.52,2.09,1.3h0c.87-.19,1.45-1.03,1.3-1.91,0,0,0,0,0,0Zm7.4,1.65c-.23-1.07-1.28-1.75-2.35-1.53h0l-.17.05h0c-1.07.23-1.75,1.28-1.53,2.35h0v.17h0c.23,1.07,1.28,1.75,2.35,1.53h0l.17-.05c1.11-.29,1.78-1.41,1.53-2.52Zm6.88,3.31c-.42-1.36-1.86-2.14-3.22-1.74h0c-1.38.42-2.16,1.87-1.74,3.24v.07h0c.46,1.37,1.93,2.11,3.3,1.65h0c1.28-.5,2.01-1.88,1.66-3.23h0Zm5.4,4.88c-.53-1.48-2.17-2.26-3.66-1.74h0c-1.48.53-2.26,2.17-1.74,3.66h0c.56,1.51,2.23,2.28,3.74,1.74,1.45-.49,2.23-2.06,1.74-3.52h0l-.08-.13h0Zm-34.67-7.83c-.28-.63-1-.93-1.65-.69h0c-.67.24-1,.98-.77,1.64.24.67.98,1,1.64.77l.13-.06h0c.63-.22.97-.9.75-1.53l-.09-.13h0Zm31.43,41.53c-.77.58-.93,1.67-.35,2.44h0c.52.77,1.57.97,2.33.44h0c.79-.54.98-1.63.44-2.42h0c-.54-.79-1.63-.98-2.42-.44v-.02h0Zm3.48-6.7c-.98.6-1.29,1.88-.69,2.87.6.98,1.88,1.29,2.87.69h.08c.96-.63,1.23-1.91.61-2.87-.55-.98-1.79-1.31-2.77-.75h0s-.09.06-.09.06Zm1.65-7.66c-1.25.72-1.68,2.32-.96,3.57.72,1.25,2.32,1.68,3.57.96h0c1.26-.71,1.72-2.3,1.04-3.57h0c-.79-1.22-2.37-1.64-3.66-.96Zm-.08-7.58c-1.39.76-1.9,2.49-1.14,3.88.71,1.3,2.31,1.85,3.67,1.25h0c1.41-.71,1.99-2.41,1.3-3.83h0c-.67-1.41-2.33-2.01-3.74-1.35h0l-.08.04s0,.02,0,.02Zm-15.93,31.16c-.65.26-.97,1-.7,1.66s1,.97,1.66.7c.65-.27.96-1.01.69-1.66h0c-.27-.65-1-.96-1.65-.69h0Zm-35.08-10.54c1.58-.68,2.32-2.5,1.65-4.09-.67-1.58-2.5-2.32-4.09-1.65h0c-1.58.68-2.32,2.5-1.65,4.09h0c.71,1.55,2.5,2.28,4.09,1.65Zm3.05-29.33c.79-.54.98-1.63.44-2.42h0c-.54-.79-1.63-.98-2.42-.44h0c-.79.54-.98,1.63-.44,2.42h0c.54.79,1.63.98,2.42.44Zm-3.48,6.7c.96-.57,1.27-1.81.7-2.77h0l-.07-.09h0c-.63-.97-1.91-1.24-2.88-.61s-1.24,1.91-.61,2.88,1.91,1.24,2.87.62h-.02s0-.03,0-.03Zm-1.65,7.66c1.29-.68,1.81-2.27,1.13-3.57s-2.27-1.81-3.57-1.13h0s-.08.03-.08.07v.02c-1.25.72-1.68,2.32-.96,3.56h0c.62,1.25,2.13,1.76,3.38,1.14h.02l.09-.08h0Zm.18,7.58c1.39-.76,1.9-2.49,1.14-3.88-.71-1.3-2.31-1.85-3.67-1.25h0c-1.41.71-1.99,2.41-1.3,3.83h0c.63,1.4,2.26,2.02,3.66,1.4l.18-.08v-.02h0Zm21.51,21.59c.18.93,1.07,1.56,2.01,1.4h0c.95-.16,1.58-1.06,1.43-2.01s-1.06-1.58-2.01-1.42-1.58,1.06-1.43,2.01v.03Zm-7.49-1.65c.23,1.07,1.28,1.75,2.35,1.53h.17c1.09-.35,1.7-1.51,1.35-2.6-.32-1.01-1.36-1.62-2.4-1.41-1.07.31-1.72,1.4-1.48,2.48h0Zm-6.79-3.31c.42,1.36,1.86,2.14,3.23,1.74h0c1.36-.42,2.14-1.86,1.74-3.22h0c-.42-1.38-1.87-2.16-3.24-1.74h-.07c-1.33.46-2.05,1.88-1.65,3.22h0Zm-5.48-4.88c.53,1.48,2.17,2.26,3.66,1.74h0c1.46-.61,2.18-2.25,1.65-3.74-.52-1.47-2.16-2.24-3.63-1.72-1.47.53-2.24,2.16-1.72,3.63,0,0,.04.08.04.08Zm41.28,2.52c-.56.49-.64,1.33-.18,1.91.47.52,1.27.6,1.83.18.6-.46.71-1.31.26-1.91-.51-.53-1.32-.61-1.91-.18Zm-12.71,5.48c-.74.12-1.26.82-1.13,1.57s.83,1.26,1.57,1.13h0c.74-.13,1.24-.82,1.13-1.57h0c-.16-.72-.83-1.21-1.57-1.13Zm-6.62-54.34c-.13-.74-.83-1.24-1.57-1.13h0c-.74.12-1.26.83-1.13,1.57s.83,1.26,1.57,1.13c.69-.06,1.22-.67,1.16-1.37,0-.07-.02-.13-.04-.2h0Zm-13.58,5.14c-.46-.6-1.31-.72-1.91-.26-.6.46-.72,1.31-.26,1.91s1.31.72,1.91.26.72-1.31.26-1.91h0Z" style="stroke-width:0px;"/><path d="m75.83,43.99c-2.21,0-4-1.79-4-4s1.79-4,4-4h0c2.2.03,3.98,1.8,4,4h0c0,2.2-1.78,3.99-3.98,4h-.02Zm-15.76-34.66c.25-1.17-.48-2.34-1.65-2.62h0c-1.17-.25-2.34.48-2.62,1.65h0c-.25,1.18.5,2.35,1.68,2.61h.07c1.11.28,2.24-.39,2.51-1.5v-.15h0Zm7.92,5.66c.25-1.42-.69-2.78-2.11-3.03h-.15c-1.47-.22-2.84.8-3.06,2.26-.22,1.47.8,2.84,2.26,3.06,1.47.22,2.84-.8,3.06-2.26h0v-.03Zm10.28,15.84c.06-2.02-1.47-3.73-3.48-3.92h0c-2.02-.06-3.73,1.47-3.92,3.48h0c-.12,2.04,1.43,3.8,3.47,3.92h0c1.95.21,3.69-1.2,3.9-3.15h0c0-.1.02-.22.02-.33ZM41.53,4.11c0-.89-.72-1.61-1.61-1.61s-1.61.72-1.61,1.61.68,1.57,1.55,1.57h0c.87.04,1.61-.64,1.65-1.52l.02-.06h0Zm15.93,64.78c-1.2.24-1.98,1.41-1.74,2.62.24,1.2,1.41,1.98,2.62,1.74,1.2-.24,1.98-1.41,1.74-2.62h0c-.25-1.19-1.42-1.97-2.62-1.74Zm7.4-6.18c-1.46.22-2.48,1.58-2.26,3.05s1.58,2.48,3.05,2.26h.08c1.46-.24,2.46-1.62,2.22-3.09-.24-1.46-1.62-2.46-3.09-2.22h0Zm5.83-8.1c-1.83.2-3.15,1.83-2.96,3.66.2,1.83,1.83,3.15,3.66,2.96,1.83-.2,3.15-1.83,2.96-3.66h0c-.19-1.83-1.83-3.15-3.66-2.96h0Zm3.74-9.06c-2.04.09-3.62,1.83-3.53,3.87s1.83,3.62,3.87,3.52h0c2.02-.11,3.56-1.82,3.48-3.83h0c-.08-2.04-1.78-3.64-3.83-3.57h0Zm-34.47,28.72c-.88.04-1.58.77-1.57,1.65,0,.86.68,1.57,1.55,1.57h0c.91,0,1.65-.74,1.65-1.65h0c0-.86-.69-1.56-1.55-1.57h-.08ZM4,43.99c2.21,0,4-1.79,4-4s-1.79-4-4-4h0c-2.2,0-4,1.77-4,3.98v.02h0c.03,2.2,1.8,3.98,4,4ZM22.46,11.08c1.18-.22,1.97-1.37,1.74-2.55h0v-.06c-.26-1.19-1.42-1.96-2.62-1.74h0c-1.18.22-1.97,1.37-1.74,2.55h0v.06c.21,1.16,1.31,1.94,2.47,1.74h.14Zm-7.49,6.18c1.46-.22,2.48-1.58,2.26-3.05-.22-1.46-1.58-2.48-3.05-2.26h0c-1.45.23-2.46,1.58-2.26,3.05h0c.21,1.46,1.57,2.48,3.02,2.26h.03Zm-5.83,8.1c1.83-.2,3.15-1.83,2.96-3.66-.2-1.83-1.83-3.15-3.66-2.96-1.83.2-3.15,1.83-2.96,3.66h0c.19,1.83,1.83,3.15,3.66,2.96h0Zm-3.74,9.06c2.04-.09,3.62-1.83,3.53-3.87-.09-2.04-1.83-3.62-3.87-3.53h0c-2.04.11-3.6,1.87-3.49,3.91h0c.11,2.03,1.82,3.57,3.83,3.49Zm14.36,36.22c-.24,1.2.53,2.37,1.74,2.62s2.37-.53,2.62-1.74c.24-1.2-.53-2.37-1.74-2.62h0c-1.2-.22-2.36.54-2.62,1.74Zm-7.84-5.66c-.26,1.42.68,2.77,2.1,3.04h.07c1.42.25,2.78-.69,3.03-2.11h0v-.15c.22-1.46-.78-2.82-2.24-3.05h0c-1.42-.21-2.75.79-2.95,2.22l-.02.06h.02Zm-6.44-7.4c-.2,1.83,1.13,3.46,2.96,3.66h0c1.83.2,3.46-1.13,3.66-2.96h0c.2-1.83-1.13-3.46-2.96-3.66h0c-1.83-.2-3.46,1.13-3.66,2.96h0Zm-3.92-8.45c-.06,2.02,1.47,3.73,3.48,3.92h0c2.02.06,3.73-1.47,3.92-3.48h0c.06-2.02-1.47-3.73-3.48-3.92-1.97-.18-3.72,1.28-3.9,3.24h0c0,.08-.02.16-.02.23Zm47.19,23.85c-.94.22-1.51,1.17-1.28,2.11.23.94,1.17,1.51,2.11,1.28.93-.22,1.5-1.17,1.28-2.1v-.07h0c-.22-.9-1.13-1.45-2.03-1.24l-.08.02h0Zm-17.67,0c-.94-.22-1.88.37-2.09,1.3h0c-.24.94.32,1.88,1.26,2.13s1.88-.32,2.13-1.26h0c.21-.96-.37-1.9-1.29-2.17ZM50.93,5.76c.28-.85-.18-1.76-1.03-2.04h0l-.19-.05h0c-.96-.13-1.83.54-1.96,1.49-.1.76.3,1.49,1,1.81.94.23,1.89-.3,2.17-1.22h0Zm-18.63-.96c-.23-.9-1.14-1.45-2.04-1.23h0c-.9.23-1.45,1.14-1.23,2.04v.05h0c.22.89,1.12,1.43,2.02,1.23h.05c.87-.17,1.43-1.01,1.27-1.88v-.03c0-.07-.03-.12-.05-.19h0Z" style="stroke-width:0px;"/></svg>