<?xml version="1.0" encoding="UTF-8" standalone="no"?>
<svg role="img" aria-labelledby="logo" viewBox="0 0 292.07999 80" fill="none" version="1.1" id="svg2" xmlns="http://www.w3.org/2000/svg" xmlns:svg="http://www.w3.org/2000/svg">
  <defs id="defs2" />
  <g id="g2" transform="scale(2)" style="fill:#000000">
    <path fill="#212223" d="m 46.938,9.77 h 8.241 c 4.453,0 7.432,2.597 7.432,6.652 0,2.571 -1.36,4.624 -3.469,5.623 l 3.989,7.709 H 58.33 l -3.415,-6.71 h -3.643 v 6.71 h -4.34 V 9.77 h 0.005 z m 4.34,3.567 v 6.138 h 3.559 c 2.053,0 3.353,-1.199 3.353,-3.056 0,-1.857 -1.3,-3.084 -3.353,-3.084 h -3.559 z m 12.473,9.105 c 0,-4.569 3.035,-7.535 7.633,-7.535 4.598,0 7.461,2.739 7.519,7.05 0,0.43 -0.028,0.912 -0.116,1.371 H 68 v 0.198 c 0.087,2.083 1.445,3.34 3.499,3.34 1.65,0 2.805,-0.714 3.153,-2.083 h 4.021 c -0.464,2.855 -3.035,5.139 -7,5.139 -4.946,0 -7.922,-2.94 -7.922,-7.48 h 0.002 -10e-4 z m 11.046,-1.743 c -0.29,-1.799 -1.535,-2.797 -3.385,-2.797 -1.85,0 -3.095,1.057 -3.325,2.797 z m 15.891,-5.618 h 4.079 v 14.674 h -3.615 l -0.374,-1.771 c -0.954,1.141 -2.254,1.941 -4.368,1.941 -3.063,0 -5.9,-1.513 -5.9,-6.71 v -8.136 h 4.079 v 7.593 c 0,2.626 0.87,3.912 2.893,3.912 2.023,0 3.209,-1.455 3.209,-4.168 v -7.337 h -0.002 l 0.002,0.002 H 90.69 Z m 6.491,-4.101 h 4.079 v 4.11 h 3.385 v 3.398 h -3.385 v 6.425 c 0,1.028 0.406,1.455 1.445,1.455 h 2.11 v 3.396 h -3.385 c -2.835,0 -4.251,-1.397 -4.251,-4.195 V 10.982 Z m 8.306,11.462 c 0,-4.569 3.035,-7.535 7.636,-7.535 4.601,0 7.461,2.739 7.519,7.05 a 7.77,7.77 0 0 1 -0.116,1.371 h -10.788 v 0.198 c 0.084,2.083 1.445,3.34 3.499,3.34 1.649,0 2.805,-0.714 3.156,-2.083 h 4.017 c -0.464,2.855 -3.035,5.139 -6.997,5.139 -4.946,0 -7.926,-2.94 -7.926,-7.48 z m 11.05,-1.743 C 116.245,18.9 115,17.902 113.15,17.902 c -1.85,0 -3.095,1.057 -3.325,2.797 z m 14.97,-5.62 v 3.656 h -1.619 c -2.431,0 -3.354,1.597 -3.354,3.826 v 7.194 h -4.078 V 15.081 h 3.701 l 0.377,2.196 c 0.81,-1.313 1.964,-2.196 4.279,-2.196 h 0.694 z m 4.526,9.794 c 0.145,1.284 1.271,2.169 3.269,2.169 1.705,0 2.747,-0.543 2.747,-1.569 0,-1.199 -1.01,-1.284 -3.412,-1.597 -3.472,-0.4 -6.162,-1.171 -6.162,-4.195 0,-3.024 2.575,-4.825 6.39,-4.795 3.989,0 6.74,1.743 6.942,4.737 H 141.9 c -0.113,-1.171 -1.244,-1.885 -2.891,-1.885 -1.647,0 -2.631,0.572 -2.631,1.513 0,1.115 1.273,1.229 3.414,1.485 3.415,0.342 6.248,1.115 6.248,4.426 0,2.91 -2.777,4.767 -6.768,4.767 -3.991,0 -6.939,-1.915 -7.115,-5.051 h 3.875 -0.002 v -0.005 z" id="path1" style="fill:#000000" />
    <path fill="#d64000" d="m 34.579,5.368 a 2.69,2.69 0 0 1 0.791,1.911 2.68,2.68 0 0 1 -0.791,1.911 2.7,2.7 0 0 1 -3.817,0 2.69,2.69 0 0 1 -0.791,-1.911 c 0,-0.723 0.279,-1.401 0.791,-1.911 a 2.69,2.69 0 0 1 1.909,-0.792 c 0.691,0 1.384,0.264 1.909,0.792 z M 5.378,34.624 a 2.71,2.71 0 0 1 0,-3.821 2.68,2.68 0 0 1 1.909,-0.792 2.67,2.67 0 0 1 1.909,0.792 2.71,2.71 0 0 1 0,3.821 2.68,2.68 0 0 1 -1.909,0.792 c -0.72,0 -1.4,-0.28 -1.909,-0.792 z M 25.955,5.58 25.936,5.572 C 25.362,5.329 24.913,4.878 24.676,4.3 a 2.34,2.34 0 0 1 0,-1.811 2.36,2.36 0 0 1 1.279,-1.28 C 26.248,1.088 26.553,1.027 26.86,1.027 A 2.34,2.34 0 0 1 27.764,1.209 2.37,2.37 0 0 1 29.042,4.3 C 28.544,5.506 27.159,6.079 25.955,5.58 Z M 13.108,34.239 c 0.306,0 0.611,0.061 0.902,0.179 a 2.37,2.37 0 0 1 1.279,3.091 2.35,2.35 0 0 1 -1.279,1.28 c -0.583,0.243 -1.223,0.243 -1.809,0 a 2.37,2.37 0 0 1 -1.279,-3.091 2.35,2.35 0 0 1 2.184,-1.462 l 0.002,0.002 z M 22.003,2.027 c 0,1.087 -0.86,1.977 -1.932,2.027 H 19.979 A 2.03,2.03 0 0 1 17.954,2.027 2.03,2.03 0 0 1 19.978,0 c 1.115,0 2.025,0.914 2.025,2.029 z m -4.052,35.946 a 2.03,2.03 0 0 1 2.025,-2.027 2.03,2.03 0 0 1 2.025,2.027 A 2.03,2.03 0 0 1 19.976,40 2.03,2.03 0 0 1 17.951,37.973 Z M 13.76,4.956 a 1.68,1.68 0 0 1 -1.292,0 1.67,1.67 0 0 1 -0.915,-0.916 1.69,1.69 0 0 1 0.915,-2.209 1.67,1.67 0 0 1 0.643,-0.129 c 0.664,0 1.292,0.396 1.563,1.045 0.172,0.42 0.172,0.879 0,1.293 a 1.66,1.66 0 0 1 -0.915,0.916 z m 12.436,30.087 a 1.69,1.69 0 0 1 0.649,-0.132 1.72,1.72 0 0 1 0.645,0.129 c 0.419,0.174 0.744,0.499 0.915,0.916 a 1.69,1.69 0 0 1 0,1.293 1.66,1.66 0 0 1 -0.915,0.916 1.69,1.69 0 0 1 -1.294,0 1.66,1.66 0 0 1 -0.915,-0.916 c -0.172,-0.42 -0.172,-0.876 0,-1.293 0.172,-0.417 0.496,-0.742 0.915,-0.913 v 10e-4 z M 8.239,6.342 c 0.52,0.52 0.527,1.357 0.026,1.887 l -0.03,0.03 a 1.36,1.36 0 0 1 -1.915,0 1.36,1.36 0 0 1 0,-1.916 1.35,1.35 0 0 1 1.915,0 H 8.237 L 8.238,6.342 Z M 31.703,31.75 a 1.34,1.34 0 0 1 0.954,-0.396 1.35,1.35 0 0 1 0.957,0.396 c 0.256,0.254 0.395,0.594 0.395,0.955 a 1.35,1.35 0 0 1 -2.308,0.958 1.35,1.35 0 0 1 -0.395,-0.958 c 0,-0.359 0.14,-0.699 0.395,-0.955 z M 2.747,14.682 C 1.885,14.325 1.476,13.333 1.832,12.473 a 1.66,1.66 0 0 1 0.915,-0.916 1.75,1.75 0 0 1 0.649,-0.129 1.68,1.68 0 0 1 0.645,0.129 c 0.862,0.357 1.271,1.349 0.915,2.209 a 1.66,1.66 0 0 1 -0.915,0.916 1.68,1.68 0 0 1 -1.292,0 z m 34.469,10.642 a 1.66,1.66 0 0 1 0.915,0.916 c 0.172,0.42 0.172,0.876 0,1.293 a 1.69,1.69 0 0 1 -2.207,0.914 1.66,1.66 0 0 1 -0.915,-0.916 c -0.172,-0.42 -0.172,-0.876 0,-1.293 0.269,-0.649 0.899,-1.043 1.563,-1.043 a 1.7,1.7 0 0 1 0.643,0.129 z M 0,20.011 A 2.03,2.03 0 0 1 2.025,17.984 2.03,2.03 0 0 1 4.05,20.011 2.03,2.03 0 0 1 2.025,22.038 2.03,2.03 0 0 1 0,20.011 Z m 35.907,0 a 2.03,2.03 0 0 1 2.025,-2.027 2.03,2.03 0 0 1 2.025,2.027 2.03,2.03 0 0 1 -2.025,2.027 2.03,2.03 0 0 1 -2.025,-2.027 z M 1.199,27.783 a 2.37,2.37 0 0 1 1.279,-3.091 c 0.583,-0.243 1.223,-0.243 1.808,0 a 2.36,2.36 0 0 1 1.279,1.28 2.34,2.34 0 0 1 0,1.811 2.36,2.36 0 0 1 -1.279,1.28 c -0.583,0.243 -1.223,0.243 -1.808,0 A 2.36,2.36 0 0 1 1.199,27.783 Z M 34.373,14.024 a 2.36,2.36 0 0 1 1.279,-3.087 2.31,2.31 0 0 1 0.899,-0.182 c 0.928,0 1.809,0.549 2.186,1.459 a 2.37,2.37 0 0 1 -1.279,3.091 c -0.583,0.243 -1.223,0.243 -1.808,0 -0.585,-0.243 -1.036,-0.697 -1.279,-1.28 h 0.002 z m -8.65,11.726 a 1.9,1.9 0 0 0 0,2.684 c 0.741,0.742 1.943,0.742 2.684,0 a 1.88,1.88 0 0 0 0.556,-1.341 1.88,1.88 0 0 0 -0.556,-1.34 c -0.37,-0.37 -0.854,-0.555 -1.339,-0.555 a 1.91,1.91 0 0 0 -1.344,0.551 V 25.75 Z M 9.902,18.851 C 9.1,18.638 8.626,17.812 8.84,17.009 a 1.5,1.5 0 0 1 0.701,-0.914 1.48,1.48 0 0 1 0.746,-0.204 c 0.129,0 0.261,0.015 0.391,0.05 0.387,0.105 0.712,0.353 0.912,0.702 0.2,0.349 0.253,0.755 0.15,1.143 A 1.5,1.5 0 0 1 9.9,18.849 h 0.002 z m 19.37,5.197 C 28.885,23.943 28.56,23.695 28.36,23.346 28.16,22.997 28.107,22.591 28.21,22.203 a 1.5,1.5 0 0 1 0.701,-0.914 1.49,1.49 0 0 1 0.748,-0.203 1.52,1.52 0 0 1 0.322,0.034 l 0.071,0.019 c 0.802,0.213 1.276,1.043 1.062,1.842 a 1.5,1.5 0 0 1 -0.701,0.913 c -0.348,0.2 -0.754,0.256 -1.141,0.151 v 0.002 z m -20.14,-1.14 a 1.21,1.21 0 0 1 0.783,-1.457 l 0.069,-0.019 c 0.641,-0.174 1.302,0.211 1.474,0.852 0.084,0.312 0.043,0.636 -0.121,0.916 a 1.21,1.21 0 0 1 -0.731,0.562 C 10.297,23.846 9.974,23.804 9.691,23.64 A 1.21,1.21 0 0 1 9.13,22.909 l 0.002,-0.002 z m 19.923,-4.455 -0.052,-0.032 c -0.251,-0.164 -0.43,-0.409 -0.507,-0.699 -0.172,-0.644 0.208,-1.304 0.851,-1.478 0.643,-0.174 1.302,0.211 1.474,0.852 0.172,0.641 -0.208,1.304 -0.851,1.476 -0.311,0.084 -0.632,0.039 -0.915,-0.121 z m -15.496,9.233 -0.034,0.034 c -0.353,0.353 -0.928,0.353 -1.281,0 -0.353,-0.353 -0.353,-0.927 0,-1.28 0.353,-0.353 0.928,-0.353 1.281,0 a 0.9,0.9 0 0 1 0.266,0.641 0.89,0.89 0 0 1 -0.232,0.604 z M 27.701,12.259 a 0.9,0.9 0 0 1 0,1.282 c -0.353,0.353 -0.928,0.353 -1.281,0 a 0.9,0.9 0 0 1 0,-1.282 c 0.171,-0.172 0.398,-0.267 0.641,-0.267 0.243,0 0.469,0.092 0.641,0.264 v 0.002 z m -9.277,16.83 c 0.161,0.277 0.203,0.604 0.121,0.916 -0.082,0.312 -0.282,0.57 -0.561,0.731 -0.279,0.161 -0.604,0.203 -0.915,0.121 -0.641,-0.172 -1.023,-0.834 -0.851,-1.475 0.084,-0.312 0.282,-0.57 0.561,-0.731 a 1.2,1.2 0 0 1 0.915,-0.122 c 0.311,0.084 0.57,0.282 0.731,0.562 v -0.002 l -0.001,-10e-4 z m 3.1,-18.173 C 21.363,10.639 21.32,10.312 21.402,10 21.484,9.688 21.684,9.43 21.963,9.269 a 1.21,1.21 0 0 1 0.598,-0.161 c 0.105,0 0.208,0.013 0.314,0.039 a 1.19,1.19 0 0 1 0.73,0.562 c 0.161,0.277 0.204,0.604 0.122,0.916 -0.172,0.641 -0.833,1.024 -1.474,0.852 a 1.19,1.19 0 0 1 -0.73,-0.562 z m 1.808,17.48 0.064,0.037 a 1.5,1.5 0 0 1 0.636,0.873 c 0.213,0.802 -0.262,1.628 -1.062,1.842 -0.391,0.106 -0.793,0.05 -1.141,-0.15 -0.348,-0.2 -0.596,-0.525 -0.701,-0.913 a 1.5,1.5 0 0 1 1.062,-1.846 1.58,1.58 0 0 1 0.393,-0.05 1.49,1.49 0 0 1 0.748,0.203 l 0.002,0.002 v 0.001 z M 17.772,11.763 A 1.51,1.51 0 0 1 15.932,10.7 C 15.719,9.898 16.193,9.072 16.994,8.858 a 1.52,1.52 0 0 1 0.387,-0.05 c 0.664,0 1.273,0.443 1.453,1.114 0.213,0.802 -0.262,1.628 -1.062,1.842 z m -4.883,3.022 c 1.046,0 1.893,-0.848 1.893,-1.895 0,-1.047 -0.848,-1.895 -1.893,-1.895 -1.045,0 -1.893,0.848 -1.893,1.895 0,1.047 0.848,1.895 1.893,1.895 z" id="path2" style="fill:#000000" />
  </g>
</svg>
