<?xml version="1.0" encoding="UTF-8"?><svg id="a" xmlns="http://www.w3.org/2000/svg" viewBox="0 0 279.02 80"><path d="m126.87,53.36h-4.55c-.37,0-.56-.37-.74-.74l-5.39-9.1h-.84c-1.02,0-3.99-.09-4.92-.19v9.29c0,.41-.32.74-.72.74h-3.71c-.4-.03-.72-.34-.74-.74v-24.7c0-.74.46-1.02,1.21-1.11,2.96-.32,5.94-.47,8.91-.46,5.76,0,11.14,2.04,11.14,8.45v.37c0,3.99-1.95,6.13-5.11,7.34l5.83,10.03c.07.07.11.18.09.28.02.28-.18.53-.46.56v-.02Zm-5.66-18.57c0-2.79-2.23-3.99-5.94-3.99-.84,0-4.18.09-4.92.19v8.08c.56,0,4.27.09,4.92.09,3.9,0,5.94-.74,5.94-4.09v-.28Zm16.16,11.14c0,3.16.09,3.25,2.97,3.25h9.47c.4.03.72.34.74.74v2.41c0,.56-.19.74-.74.84-2.67.41-5.38.59-8.08.56-6.22,0-9.56,0-9.56-7.71v-11.98c0-7.71,3.34-7.71,9.56-7.71,2.7-.04,5.41.15,8.08.56.56.09.74.28.74.84v2.41c-.03.4-.34.72-.74.74h-9.47c-2.88,0-2.97.09-2.97,3.25v3.44h11.98c.4.03.72.34.74.74v2.6c-.03.4-.34.72-.74.74h-11.98v4.27h0Zm30.09,7.71c-6.04,0-11.24-2.6-11.24-10.59v-15.69c.03-.4.34-.72.74-.74h3.71c.41,0,.74.32.74.72h0v15.62c0,4.27,1.95,6.31,6.04,6.31s6.04-2.04,6.04-6.31v-15.6c.03-.4.34-.72.74-.74h3.71c.41,0,.74.32.74.72h0v15.62c0,7.99-5.2,10.68-11.24,10.68h.02Zm35.94-22.66h-7.52v21.54c-.03.4-.34.72-.74.74h-3.71c-.4-.03-.72-.34-.74-.74v-21.54h-7.52c-.38.02-.71-.27-.74-.65v-2.97c.03-.4.34-.72.74-.74h20.24c.41,0,.74.32.74.72h0v2.99c-.03.38-.36.67-.74.65h0Zm50.99,22.38h-4.55c-.37,0-.56-.37-.74-.74l-5.39-9.1h-.84c-.93,0-3.99-.09-4.92-.19v9.29c0,.41-.32.74-.72.74h-3.71c-.4-.03-.72-.34-.74-.74v-24.7c0-.74.46-1.02,1.21-1.11,2.96-.32,5.94-.47,8.91-.46,5.76,0,11.14,2.04,11.14,8.45v.37c0,3.99-1.95,6.13-5.11,7.34l5.94,10.03c.07.07.11.18.09.28-.09.28-.28.56-.56.56h-.02v-.02Zm-5.57-18.57c0-2.79-2.23-3.99-5.94-3.99-.74,0-4.18.09-4.92.19v8.08c.65,0,4.27.09,4.92.09,3.9,0,5.94-.74,5.94-4.09v-.28Zm19.97,18.85c-2.85,0-5.68-.35-8.45-1.02-.37-.09-.74-.37-.74-.74v-2.69c.03-.4.34-.72.74-.74h.09c2.8.39,5.62.61,8.45.65,3.34,0,4.36-1.21,4.36-3.34,0-2.79-6.69-4.36-10.03-5.76-2.75-1-4.55-3.66-4.46-6.59,0-4.18,3.34-7.15,10.31-7.15,2.76,0,5.5.34,8.17,1.02.36.06.63.37.65.74v2.79c.02.34-.25.63-.59.65h-.15c-2.51-.19-5.01-.65-8.36-.65-2.79,0-4.83,1.02-4.83,2.69,0,1.21,1.39,2.41,3.06,3.06s3.9,1.49,6.31,2.51c3.16,1.3,5.2,3.16,5.2,6.78s-2.23,7.8-9.75,7.8h.02Zm-55.63-7.71c0,3.16.09,3.25,2.97,3.25h9.56c.4.03.72.34.74.74v2.41c0,.56-.19.74-.74.84-2.67.41-5.38.59-8.08.56-6.22,0-9.56,0-9.56-7.71v-11.98c0-7.71,3.34-7.71,9.56-7.71,2.7-.04,5.41.15,8.08.56.56.09.74.28.74.84v2.41c-.03.4-.34.72-.74.74h-9.47c-2.88,0-2.97.09-2.97,3.25v3.44h11.98c.4.03.72.34.74.74v2.6c-.03.4-.34.72-.74.74h-11.98v4.27h-.09Z" style="stroke:#000; stroke-miterlimit:10;"/><path d="m38.17,28.28c.44.8.15,1.79-.65,2.23s-1.79.15-2.23-.65-.15-1.79.65-2.23h0c.77-.44,1.75-.18,2.19.59l.04.07h0Zm-8.26,13.09c-.46.26-.63.84-.37,1.3.26.46.84.63,1.3.37h0c.43-.23.61-.76.4-1.21v-.05h0c-.23-.46-.79-.64-1.25-.4h0l-.07-.02h0Zm-.19-4.09c-.56.31-.77,1.01-.46,1.58.31.56,1.01.77,1.58.46.56-.31.77-1.01.46-1.57-.31-.56-1.01-.76-1.58-.46h0Zm1.11-3.81c-.64.33-.89,1.12-.56,1.77s1.12.89,1.77.56c.64-.33.89-1.12.56-1.77h0c-.33-.63-1.11-.88-1.75-.56h-.02Zm2.04-3.34c-.71.34-1.01,1.2-.67,1.91h0c.31.68,1.1.97,1.77.67.06-.03.12-.06.18-.1.71-.34,1.02-1.19.68-1.91v-.02h0c-.33-.68-1.14-.97-1.82-.64,0,0-.02.01-.04.02,0,0-.1.07-.1.07Zm-1.58,15.04c-.37.24-.53.7-.37,1.11h0c.21.41.7.58,1.11.37.41-.21.58-.7.37-1.11-.14-.38-.55-.58-.93-.46-.07.02-.13.05-.19.08h.01Zm19.04-13.74c.26.44.83.59,1.27.32.44-.26.59-.83.32-1.27-.25-.42-.79-.58-1.22-.35h0c-.46.23-.64.79-.4,1.25h0s.03.05.03.05Zm-3.34-2.14c.31.56,1.01.77,1.58.46.56-.31.77-1.01.46-1.58-.31-.56-1.01-.77-1.57-.46-.56.29-.78.97-.49,1.52l.03.06h0Zm-3.9-1.02c.35.62,1.12.86,1.76.56h0c.62-.35.86-1.12.56-1.76h0c-.35-.62-1.12-.86-1.76-.56h0c-.63.3-.9,1.06-.6,1.7h0s.03.04.04.07h0Zm-3.99.19c.39.74,1.3,1.03,2.04.65h0c.68-.35.96-1.17.63-1.86-.02-.05-.05-.09-.07-.14-.41-.72-1.32-.97-2.04-.56h0c-.65.39-.89,1.22-.56,1.9h0Zm13.74,6.04c.24.37.7.53,1.11.37.4-.22.56-.7.37-1.11h0c-.24-.37-.7-.53-1.11-.37-.38.12-.6.52-.48.9v.02c.02.07.06.13.1.19h.01Zm-2.88,15.6c-.39-.78-1.33-1.1-2.12-.72l-.11.07h0c-.78.39-1.1,1.33-.72,2.12l.07.11h0c.41.79,1.38,1.09,2.16.69h.07c.79-.43,1.09-1.42.66-2.22v-.05h0Zm-15.04-1.58c-.26-.46-.84-.63-1.3-.37-.46.26-.63.84-.37,1.3h0c.23.46.79.64,1.25.4h.05c.46-.23.64-.79.4-1.25h0l-.03-.07h0Zm3.34,2.04c-.31-.56-1.01-.76-1.58-.46-.53.27-.74.92-.47,1.45h0c.31.56,1.01.76,1.58.46.52-.23.76-.84.53-1.36-.02-.04-.04-.07-.07-.1h.01Zm3.81,1.11c-.33-.64-1.12-.89-1.77-.56-.64.33-.89,1.12-.56,1.77.33.64,1.12.89,1.77.56h0c.63-.3.9-1.06.6-1.7h0s-.03-.04-.04-.07Zm4.09-.19c-.35-.7-1.19-.98-1.89-.64h0l-.14.07c-.72.41-.97,1.32-.56,2.04h0c.34.69,1.16.99,1.86.68h.06c.75-.44,1.05-1.37.69-2.16h-.01Zm9.1-12.91c.48-.29.65-.9.37-1.39-.23-.46-.79-.64-1.25-.4h0c-.47.2-.7.74-.5,1.21.02.04.04.08.06.11h0c.19.47.73.7,1.21.51l.12-.05h0Zm.19,4.09c.56-.31.77-1.01.46-1.58s-1.01-.77-1.58-.46h0c-.56.31-.77,1.01-.46,1.58s1.01.77,1.58.46Zm-1.02,3.81c.64-.33.89-1.12.56-1.77-.33-.64-1.12-.89-1.77-.56s-.89,1.12-.56,1.77h0c.29.63,1.03.9,1.66.61l.1-.06h.01Zm-2.14,3.34c.69-.38.94-1.26.56-1.95s-1.26-.94-1.95-.56h0c-.68.35-.96,1.17-.63,1.86.02.05.05.09.07.14h0c.43.63,1.26.85,1.95.51Z" style="stroke-width:0px;"/><path d="m49.51,24.28c-.37,1.13-1.54,1.78-2.69,1.49h0c-1.13-.37-1.78-1.54-1.49-2.69h0c.33-1.15,1.54-1.82,2.69-1.49,1.15.33,1.82,1.54,1.49,2.69Zm-20.62,5.01c-.56-.15-1.15.18-1.3.74s.18,1.15.74,1.3c.53.11,1.07-.16,1.3-.65.11-.58-.2-1.16-.74-1.39Zm3.71-4.09c-.68-.18-1.38.21-1.57.88v.05h0c-.19.67.18,1.36.84,1.58h0c.71.17,1.44-.23,1.67-.93.08-.68-.3-1.33-.94-1.58Zm4.74-2.88c-.87-.26-1.79.24-2.04,1.11s.24,1.79,1.11,2.04c.87.24,1.77-.26,2.04-1.11h0c.28-.85-.18-1.76-1.03-2.04h-.08Zm5.29-1.21c-.97-.3-2.01.24-2.32,1.21h0c-.29.98.27,2.02,1.25,2.31h0c.98.29,2.02-.27,2.31-1.25h0c.27-.97-.29-1.97-1.24-2.27Zm-16.16,13.28c-.43-.08-.85.15-1.02.56h0c-.12.43.13.88.56,1.02h0c.45.09.88-.21.97-.65.08-.39-.14-.78-.5-.92h0Zm32.13,4.83c-.15.56.18,1.15.74,1.3h0c.56.15,1.15-.18,1.3-.74s-.18-1.15-.74-1.3c-.56-.15-1.15.18-1.3.74Zm-1.21-5.39c-.17.69.19,1.39.84,1.67h0c.72.2,1.46-.22,1.67-.93.18-.68-.23-1.39-.91-1.57h-.02c-.66-.19-1.36.17-1.58.83Zm-2.88-4.74c-.26.87.24,1.78,1.12,2.04.87.26,1.78-.24,2.04-1.12.25-.87-.24-1.78-1.11-2.04h0c-.85-.27-1.75.2-2.02,1.04,0,.03,0,.05-.02.07h0Zm-4.09-3.71c-.28,1,.3,2.04,1.3,2.32s2.04-.3,2.32-1.3h0c.29-.98-.27-2.02-1.25-2.31h-.05c-.98-.29-2.02.27-2.31,1.25h0v.04h0Zm7.71,19.13c-.12.43.13.88.56,1.02.43.08.85-.15,1.02-.56h0c.08-.43-.15-.85-.56-1.02h0c-.43-.08-.85.15-1.02.56Zm-18.29,12.35c.34-1.13-.29-2.32-1.41-2.67h-.07c-1.13-.34-2.32.29-2.67,1.41v.07h0c-.34,1.13.29,2.32,1.41,2.67h.07c1.07.38,2.24-.18,2.62-1.25v-.02c.02-.07.04-.15.05-.22h0Zm-13.28-16.16c.15-.56-.18-1.15-.74-1.3s-1.15.18-1.3.74.18,1.15.74,1.3h0c.52.18,1.08-.1,1.26-.61.02-.04.03-.09.04-.13Zm1.3,5.39c.19-.67-.18-1.36-.84-1.58h0c-.67-.19-1.36.18-1.58.84h0c-.21.67.17,1.37.84,1.58.67.21,1.37-.17,1.58-.84h0Zm2.88,4.74c.27-.84-.19-1.74-1.02-2.02h-.07c-.87-.26-1.78.24-2.04,1.11h0c-.24.87.26,1.77,1.11,2.04h0c.85.27,1.75-.2,2.02-1.04v-.09Zm4.09,3.71c.28-1-.3-2.04-1.3-2.32s-2.04.3-2.32,1.3h0c-.29.98.28,2.02,1.26,2.3,0,0,.02,0,.04,0h0c.99.25,2.01-.32,2.32-1.29Zm21.54-3.99c.56.15,1.15-.18,1.3-.74s-.18-1.15-.74-1.3c-.56-.15-1.15.18-1.3.74-.17.54.13,1.11.67,1.28h0s.07.02.07.02Zm-3.71,4.18c.67.19,1.36-.18,1.58-.84.17-.69-.19-1.39-.84-1.67h0c-.72-.2-1.46.22-1.67.93-.17.69.24,1.39.93,1.58Zm-4.83,2.88c.87.24,1.77-.26,2.04-1.11h0c.24-.87-.26-1.77-1.11-2.04h0c-.87-.26-1.79.24-2.04,1.11-.26.87.24,1.79,1.11,2.04Zm-5.29,1.21c.97.3,2.01-.24,2.32-1.21h0c.28-1-.3-2.04-1.3-2.32s-2.04.3-2.32,1.3h0c-.19.96.37,1.92,1.3,2.23Z" style="stroke-width:0px;"/><path d="m60.18,25.4c-1.06,1.09-2.79,1.13-3.9.09-1.1-1-1.19-2.7-.19-3.8h0l.09-.09h0c1-1.1,2.7-1.19,3.8-.19h0l.09.09h0c1.09,1.06,1.13,2.79.09,3.9h.02Zm-27.58-6.31c-.57-.51-1.44-.47-1.95.1s-.47,1.44.1,1.95c.56.51,1.44.47,1.95-.09h0c.49-.57.45-1.43-.09-1.96h0Zm6.96-2.6c-.68-.65-1.77-.62-2.42.06-.65.68-.62,1.77.06,2.42h0c.7.62,1.76.58,2.41-.09.56-.7.54-1.71-.06-2.39h0Zm7.34-.56c-.87-.79-2.22-.73-3.02.14s-.73,2.22.14,3.02h0c.86.76,2.16.72,2.97-.09.82-.82.82-2.16,0-2.98l-.09-.08h0Zm7.06,1.76c-.98-.9-2.5-.86-3.44.09h0c-.9.98-.86,2.5.09,3.44h0c.88,1.01,2.42,1.12,3.43.24,1.01-.88,1.12-2.42.24-3.43-.05-.06-.11-.12-.17-.17l-.16-.16h0Zm-27.21,6.04c-.38-.38-1.01-.38-1.39,0s-.38,1.01,0,1.39h0c.39.37,1,.37,1.39,0h0c.39-.28.47-.83.19-1.22h0c-.05-.07-.11-.12-.19-.17Zm35.38,24.98c-.5.52-.5,1.34,0,1.86h0c.57.49,1.43.45,1.95-.09.49-.54.44-1.37-.09-1.86-.51-.51-1.32-.53-1.86-.05v.14Zm1.76-6.96c-.62.7-.58,1.76.09,2.41.65.65,1.7.65,2.35,0,.02-.02.05-.04.07-.07h0c.61-.6.61-1.57.01-2.18h-.01s-.14-.14-.14-.14h0c-.56-.64-1.52-.73-2.18-.2,0,0-.19.18-.19.18Zm-.56-7.43c-.81.81-.81,2.12,0,2.93v.05h0c.82.79,2.13.77,2.93-.05h0c.75-.78.75-2.01,0-2.79-.04-.05-.09-.1-.15-.14-.77-.76-2.01-.76-2.79,0h.01Zm-2.6-6.87c-.93.97-.89,2.51.09,3.44.97.93,2.51.89,3.44-.09.93-.97.89-2.51-.09-3.44h0c-.93-.93-2.43-.93-3.36,0h0l-.07.09h-.01Zm-2.32,27.39c-.37.39-.37,1,0,1.39.36.36.95.36,1.31,0l.08-.09h0c.37-.39.37-1,0-1.39h0c-.41-.35-1.03-.3-1.39.09Zm-29.34,3.53c1.01-1.13.93-2.87-.19-3.9-1.12-.99-2.82-.95-3.9.09-1.01,1.13-.93,2.87.19,3.9,1.12.99,2.82.95,3.9-.09Zm-6.04-27.12c.51-.57.47-1.44-.1-1.95s-1.44-.47-1.95.1c-.51.56-.47,1.44.09,1.95h0c.57.5,1.44.46,1.96-.09h0Zm-1.67,6.96c.65-.68.62-1.77-.06-2.42-.68-.65-1.77-.62-2.42.06h0c-.58.68-.54,1.69.09,2.32.57.67,1.57.75,2.24.18.06-.05.12-.11.18-.18,0,0-.03.04-.03.04Zm.46,7.43c.81-.88.77-2.24-.09-3.06-.85-.77-2.16-.71-2.93.14h0c-.81.89-.77,2.25.09,3.07.87.72,2.15.66,2.93-.15Zm2.6,6.87c.9-.98.86-2.5-.09-3.44-.94-.9-2.42-.87-3.32.07h0c-.9.98-.86,2.5.09,3.44h0c.94.9,2.42.87,3.32-.07h.01s-.01,0-.01,0Zm28.14,8.36c.52.5,1.34.5,1.86,0h.05c.51-.54.49-1.39-.05-1.9h0c-.53-.53-1.38-.53-1.9,0v.05h0c-.44.55-.42,1.33.05,1.86h0Zm-6.87,2.6c.7.62,1.76.58,2.41-.09.62-.59.64-1.56.06-2.18h0s-.14-.14-.14-.14h0c-.65-.65-1.7-.65-2.35,0-.02.02-.05.04-.07.07-.62.59-.64,1.56-.06,2.18h0s.14.17.14.17h0Zm-7.43.56c.88.81,2.24.77,3.06-.09.81-.81.81-2.12,0-2.93l-.05-.05h0c-.88-.81-2.24-.77-3.06.09-.8.82-.77,2.13.05,2.93l.02.02-.02.03Zm-6.96-1.76c.94.9,2.42.87,3.32-.07h0c1.01-.88,1.12-2.42.24-3.43s-2.42-1.12-3.43-.24c-.06.05-.12.11-.17.17-.06.05-.11.1-.16.16h0c-.86,1.01-.77,2.52.2,3.42h0Z" style="stroke-width:0px;"/><path d="m71.42,31.25c-1.69.72-3.65-.07-4.36-1.76-.72-1.69.07-3.65,1.76-4.36h0c1.72-.67,3.65.16,4.36,1.86.55,1.66-.2,3.48-1.76,4.27h0Zm-23.49-21.36c-.19-.99-1.14-1.66-2.14-1.49h0c-.99.19-1.66,1.14-1.49,2.14h0c.23,1,1.23,1.62,2.23,1.39h0c.93-.2,1.55-1.1,1.39-2.04h.01Zm7.89,1.76c-.25-1.14-1.37-1.87-2.51-1.63h0l-.18.05h0c-1.14.25-1.87,1.37-1.63,2.51h0v.18h0c.25,1.14,1.37,1.87,2.51,1.63h0l.18-.05c1.18-.31,1.9-1.5,1.63-2.69Zm7.34,3.53c-.45-1.45-1.98-2.28-3.44-1.86h0c-1.47.45-2.3,1.99-1.86,3.46v.07h0c.49,1.46,2.06,2.25,3.52,1.76h0c1.37-.53,2.14-2.01,1.77-3.44h0Zm5.76,5.2c-.57-1.58-2.31-2.41-3.9-1.86h0c-1.58.57-2.41,2.31-1.86,3.9h0c.6,1.61,2.38,2.43,3.99,1.86,1.55-.52,2.38-2.2,1.86-3.75h0l-.09-.14h0ZM31.94,12.03c-.3-.67-1.07-.99-1.76-.74h0c-.71.26-1.07,1.04-.82,1.75.26.71,1.04,1.07,1.75.82l.14-.06h0c.67-.23,1.03-.96.8-1.63l-.1-.14h0Zm33.52,44.3c-.82.62-.99,1.78-.37,2.6h0c.56.82,1.67,1.03,2.49.47h0c.84-.58,1.05-1.74.47-2.58h0c-.58-.84-1.74-1.05-2.58-.47v-.02h0Zm3.71-7.15c-1.05.64-1.38,2.01-.74,3.06.64,1.05,2.01,1.38,3.06.74h.09c1.02-.67,1.31-2.04.65-3.06-.59-1.04-1.91-1.4-2.95-.8h-.01s-.1.06-.1.06Zm1.76-8.17c-1.33.77-1.79,2.47-1.02,3.81.77,1.33,2.47,1.79,3.81,1.02h0c1.34-.76,1.83-2.45,1.11-3.81h0c-.84-1.3-2.53-1.75-3.9-1.02Zm-.09-8.08c-1.48.81-2.03,2.66-1.22,4.14.76,1.39,2.46,1.97,3.91,1.33h0c1.5-.76,2.12-2.57,1.39-4.09h0c-.71-1.5-2.49-2.14-3.99-1.44h-.01l-.08.04v.02Zm-16.99,33.24c-.69.28-1.03,1.07-.75,1.77s1.07,1.03,1.77.75c.69-.29,1.02-1.08.74-1.77h0c-.29-.69-1.07-1.02-1.76-.74h0Zm-37.42-11.24c1.69-.72,2.48-2.67,1.76-4.36-.72-1.69-2.67-2.48-4.36-1.76h0c-1.69.72-2.47,2.67-1.76,4.36h0c.76,1.65,2.67,2.43,4.36,1.76Zm3.25-31.29c.84-.58,1.05-1.74.47-2.58h0c-.58-.84-1.74-1.05-2.58-.47h0c-.84.58-1.05,1.74-.47,2.58h0c.58.84,1.74,1.05,2.58.47Zm-3.71,7.15c1.02-.61,1.36-1.93.75-2.95h0l-.07-.1h0c-.67-1.03-2.04-1.32-3.07-.65s-1.32,2.04-.65,3.07,2.04,1.32,3.06.66h-.02v-.03Zm-1.76,8.17c1.38-.72,1.93-2.42,1.21-3.81s-2.42-1.93-3.81-1.21h0s-.09.03-.09.07v.02c-1.33.77-1.79,2.47-1.02,3.8h0c.66,1.33,2.27,1.88,3.6,1.22h.02l.1-.09h-.01Zm.19,8.08c1.48-.81,2.03-2.66,1.22-4.14-.76-1.39-2.46-1.97-3.91-1.33h0c-1.5.76-2.12,2.57-1.39,4.09h0c.67,1.49,2.41,2.15,3.9,1.49l.19-.09v-.02Zm22.94,23.03c.19.99,1.14,1.66,2.14,1.49h0c1.01-.17,1.69-1.13,1.52-2.14s-1.13-1.69-2.14-1.52-1.69,1.13-1.52,2.14v.03Zm-7.99-1.76c.25,1.14,1.37,1.87,2.51,1.63h.18c1.16-.37,1.81-1.61,1.44-2.77-.34-1.08-1.45-1.73-2.56-1.5-1.14.33-1.83,1.49-1.58,2.65h.01Zm-7.24-3.53c.45,1.45,1.98,2.28,3.44,1.86h0c1.45-.45,2.28-1.98,1.86-3.44h0c-.45-1.47-1.99-2.3-3.46-1.86h-.07c-1.42.49-2.19,2-1.76,3.44h-.01Zm-5.85-5.2c.57,1.58,2.31,2.41,3.9,1.86h0c1.56-.65,2.33-2.4,1.76-3.99-.56-1.57-2.3-2.39-3.87-1.83-1.57.56-2.39,2.3-1.83,3.87,0,0,.04.09.04.09Zm44.03,2.69c-.6.52-.68,1.42-.19,2.04.5.56,1.35.64,1.95.19.64-.49.76-1.4.28-2.04-.54-.57-1.41-.65-2.04-.19Zm-13.56,5.85c-.79.13-1.34.88-1.21,1.67s.88,1.34,1.67,1.21h0c.79-.14,1.32-.88,1.21-1.67h0c-.17-.77-.89-1.29-1.67-1.21Zm-7.06-57.96c-.14-.79-.88-1.32-1.67-1.21h0c-.79.13-1.34.88-1.21,1.67s.88,1.34,1.67,1.21c.74-.06,1.3-.71,1.24-1.46,0-.07-.02-.14-.04-.21h0Zm-14.49,5.48c-.49-.64-1.4-.77-2.04-.28-.64.49-.77,1.4-.28,2.04s1.4.77,2.04.28.77-1.4.28-2.04h0Z" style="stroke-width:0px;"/><path d="m80.89,44.26c-2.36,0-4.27-1.91-4.27-4.27s1.91-4.27,4.27-4.27h0c2.35.03,4.25,1.92,4.27,4.27h0c0,2.35-1.9,4.26-4.25,4.27h-.02ZM64.08,7.29c.27-1.25-.51-2.5-1.76-2.79h0c-1.25-.27-2.5.51-2.79,1.76h0c-.27,1.26.53,2.51,1.79,2.78h.07c1.18.3,2.39-.42,2.68-1.6v-.16h.01Zm8.45,6.04c.27-1.51-.74-2.96-2.25-3.23h-.16c-1.57-.23-3.03.85-3.26,2.41-.23,1.57.85,3.03,2.41,3.26,1.57.23,3.03-.85,3.26-2.41h0v-.03Zm10.96,16.9c.06-2.15-1.57-3.98-3.71-4.18h0c-2.15-.06-3.98,1.57-4.18,3.71h0c-.13,2.18,1.53,4.05,3.7,4.18h.01c2.08.22,3.94-1.28,4.16-3.36h0c0-.11.02-.23.02-.35ZM44.3,1.72c0-.95-.77-1.72-1.72-1.72s-1.72.77-1.72,1.72.73,1.67,1.65,1.67h0c.93.04,1.72-.68,1.76-1.62l.02-.06h.01Zm16.99,69.1c-1.28.26-2.11,1.5-1.86,2.79.26,1.28,1.5,2.11,2.79,1.86,1.28-.26,2.11-1.5,1.86-2.79h0c-.27-1.27-1.51-2.1-2.79-1.86Zm7.89-6.59c-1.56.23-2.65,1.69-2.41,3.25s1.69,2.65,3.25,2.41h.09c1.56-.26,2.62-1.73,2.37-3.3-.26-1.56-1.73-2.62-3.3-2.37h0Zm6.22-8.64c-1.95.21-3.36,1.95-3.16,3.9.21,1.95,1.95,3.36,3.9,3.16,1.95-.21,3.36-1.95,3.16-3.9h0c-.2-1.95-1.95-3.36-3.9-3.16h0Zm3.99-9.66c-2.18.1-3.86,1.95-3.76,4.13s1.95,3.86,4.13,3.76h0c2.15-.12,3.8-1.94,3.71-4.09h0c-.08-2.18-1.9-3.88-4.08-3.81h0Zm-36.77,30.64c-.94.04-1.68.82-1.67,1.76,0,.92.73,1.67,1.65,1.67h0c.97,0,1.76-.79,1.76-1.76h0c0-.92-.74-1.66-1.65-1.67h-.09ZM4.27,44.26c2.36,0,4.27-1.91,4.27-4.27s-1.91-4.27-4.27-4.27h0c-2.35,0-4.27,1.89-4.27,4.25v.02h0c.03,2.35,1.92,4.25,4.27,4.27ZM23.96,9.15c1.26-.24,2.1-1.46,1.86-2.72h0v-.06c-.28-1.27-1.51-2.09-2.79-1.86h0c-1.26.24-2.1,1.46-1.86,2.72h0v.06c.22,1.24,1.4,2.07,2.64,1.86h.15Zm-7.99,6.59c1.56-.23,2.65-1.69,2.41-3.25-.23-1.56-1.69-2.65-3.25-2.41h0c-1.55.25-2.62,1.69-2.41,3.25h0c.22,1.56,1.67,2.64,3.22,2.41h.03Zm-6.22,8.64c1.95-.21,3.36-1.95,3.16-3.9-.21-1.95-1.95-3.36-3.9-3.16-1.95.21-3.36,1.95-3.16,3.9h0c.2,1.95,1.95,3.36,3.9,3.16h0Zm-3.99,9.66c2.18-.1,3.86-1.95,3.76-4.13-.1-2.18-1.95-3.86-4.13-3.76h0c-2.18.12-3.84,1.99-3.72,4.17h0c.12,2.16,1.94,3.81,4.09,3.72Zm15.32,38.63c-.26,1.28.57,2.53,1.86,2.79s2.53-.57,2.79-1.86c.26-1.28-.57-2.53-1.86-2.79h0c-1.28-.24-2.52.58-2.79,1.86Zm-8.36-6.04c-.28,1.51.73,2.96,2.24,3.24h.07c1.51.27,2.96-.74,3.23-2.25h0v-.16c.23-1.56-.83-3.01-2.39-3.25h0c-1.52-.22-2.93.84-3.15,2.37l-.02.06h.02Zm-6.87-7.89c-.21,1.95,1.21,3.69,3.16,3.9h0c1.95.21,3.69-1.21,3.9-3.16h0c.21-1.95-1.21-3.69-3.16-3.9h0c-1.95-.21-3.69,1.21-3.9,3.16h0Zm-4.18-9.01c-.06,2.15,1.57,3.98,3.71,4.18h0c2.15.06,3.98-1.57,4.18-3.71h0c.06-2.15-1.57-3.98-3.71-4.18-2.1-.19-3.97,1.36-4.16,3.46h0c-.01.09-.02.17-.02.25Zm50.34,25.44c-1,.24-1.61,1.25-1.36,2.25.24,1,1.25,1.61,2.25,1.36.99-.24,1.6-1.25,1.36-2.24v-.07h0c-.23-.96-1.2-1.55-2.16-1.32l-.08.02h0Zm-18.85,0c-1-.23-2,.39-2.23,1.39h0c-.26,1,.34,2.01,1.34,2.27s2.01-.34,2.27-1.34h0c.22-1.02-.39-2.03-1.38-2.32ZM54.33,3.48c.3-.91-.19-1.88-1.1-2.18h0l-.2-.05h0c-1.02-.14-1.95.58-2.09,1.59-.11.81.32,1.59,1.07,1.93,1,.25,2.02-.32,2.32-1.3h0Zm-19.87-1.02c-.24-.96-1.22-1.55-2.18-1.31h0c-.96.24-1.55,1.22-1.31,2.18v.05h0c.24.95,1.19,1.53,2.15,1.31h.05c.93-.18,1.53-1.08,1.35-2v-.03c0-.07-.03-.13-.05-.2h0Z" style="stroke-width:0px;"/></svg>