<svg width="32" height="32" xmlns="http://www.w3.org/2000/svg">
  <path fill="currentCollor" d="M27.68 4.294a2.152 2.152 0 0 1 .633 1.53 2.144 2.144 0 0 1-.633 1.528 2.16 2.16 0 0 1-3.053 0 2.152 2.152 0 0 1-.633-1.529c0-.578.223-1.12.633-1.529a2.152 2.152 0 0 1 1.527-.633c.553 0 1.107.211 1.527.633zM4.32 27.7a2.168 2.168 0 0 1 0-3.057 2.144 2.144 0 0 1 1.527-.633 2.136 2.136 0 0 1 1.527.633 2.168 2.168 0 0 1 0 3.057 2.144 2.144 0 0 1-1.527.634A2.14 2.14 0 0 1 4.32 27.7zM20.78 4.464l-.015-.006a1.87 1.87 0 0 1-1.008-1.018 1.872 1.872 0 0 1 0-1.449A1.888 1.888 0 0 1 20.781.967a1.89 1.89 0 0 1 .724-.145 1.872 1.872 0 0 1 .723.145 1.896 1.896 0 0 1 1.023 2.473 1.89 1.89 0 0 1-2.47 1.024zM10.504 27.391c.244 0 .488.049.721.143a1.896 1.896 0 0 1 1.023 2.473 1.88 1.88 0 0 1-1.023 1.024 1.868 1.868 0 0 1-1.447 0 1.896 1.896 0 0 1-1.023-2.473 1.88 1.88 0 0 1 1.747-1.17l.002.002zm7.116-25.77c0 .87-.688 1.582-1.546 1.622H16a1.624 1.624 0 0 1-1.62-1.621A1.624 1.624 0 0 1 16 0c.892 0 1.62.731 1.62 1.623zm-3.242 28.757a1.624 1.624 0 0 1 1.62-1.621 1.624 1.624 0 0 1 1.62 1.621A1.624 1.624 0 0 1 15.998 32a1.624 1.624 0 0 1-1.62-1.622ZM11.025 3.965a1.344 1.344 0 0 1-1.033 0 1.336 1.336 0 0 1-.732-.733 1.352 1.352 0 0 1 .732-1.767 1.336 1.336 0 0 1 .514-.103 1.355 1.355 0 0 1 1.25 1.87 1.328 1.328 0 0 1-.732.733zm9.949 24.07a1.352 1.352 0 0 1 .52-.106 1.376 1.376 0 0 1 .515.103c.335.14.595.4.732.733a1.352 1.352 0 0 1 0 1.034 1.328 1.328 0 0 1-.732.733 1.352 1.352 0 0 1-1.035 0 1.328 1.328 0 0 1-.732-.733 1.348 1.348 0 0 1 .732-1.765v.001zM6.608 5.073c.416.416.422 1.085.021 1.51l-.024.023a1.088 1.088 0 0 1-1.532 0 1.088 1.088 0 0 1 0-1.533 1.08 1.08 0 0 1 1.532 0h.002zM25.38 25.4a1.072 1.072 0 0 1 .763-.317 1.08 1.08 0 0 1 .765.317c.205.203.316.475.316.764a1.08 1.08 0 0 1-1.846.766 1.08 1.08 0 0 1-.316-.766c0-.287.112-.56.316-.764zM2.215 11.746a1.355 1.355 0 0 1-.732-1.768 1.328 1.328 0 0 1 .732-.732 1.4 1.4 0 0 1 .519-.104 1.344 1.344 0 0 1 .516.104 1.354 1.354 0 0 1 .732 1.767 1.328 1.328 0 0 1-.732.733 1.344 1.344 0 0 1-1.034 0zm27.575 8.513a1.328 1.328 0 0 1 .732.733c.138.336.138.7 0 1.034a1.352 1.352 0 0 1-1.766.732 1.328 1.328 0 0 1-.732-.733 1.354 1.354 0 0 1 1.25-1.869 1.36 1.36 0 0 1 .515.103zM.017 16.01a1.624 1.624 0 0 1 1.62-1.622 1.624 1.624 0 0 1 1.62 1.622 1.624 1.624 0 0 1-1.62 1.621 1.624 1.624 0 0 1-1.62-1.621zm28.726 0a1.624 1.624 0 0 1 1.62-1.622 1.624 1.624 0 0 1 1.62 1.622 1.624 1.624 0 0 1-1.62 1.621 1.624 1.624 0 0 1-1.62-1.621zM.976 22.226A1.896 1.896 0 0 1 2 19.754a1.867 1.867 0 0 1 1.446 0 1.888 1.888 0 0 1 1.023 1.024 1.872 1.872 0 0 1 0 1.448 1.888 1.888 0 0 1-1.023 1.024 1.867 1.867 0 0 1-1.446 0 1.888 1.888 0 0 1-1.024-1.024Zm26.54-11.007a1.888 1.888 0 0 1 1.023-2.47 1.848 1.848 0 0 1 .719-.145c.742 0 1.447.44 1.749 1.167a1.896 1.896 0 0 1-1.023 2.473 1.867 1.867 0 0 1-1.447 0 1.883 1.883 0 0 1-1.023-1.024h.002zm-6.92 9.381a1.52 1.52 0 0 0 0 2.147 1.517 1.517 0 0 0 2.147 0 1.504 1.504 0 0 0 .445-1.073 1.504 1.504 0 0 0-.445-1.072 1.51 1.51 0 0 0-1.071-.444 1.528 1.528 0 0 0-1.076.441v.001zM7.939 15.08a1.202 1.202 0 0 1-.85-1.473 1.2 1.2 0 0 1 .561-.731 1.184 1.184 0 0 1 .597-.163 1.195 1.195 0 0 1 1.042.602c.16.279.203.603.12.914a1.2 1.2 0 0 1-1.472.85h.002zm15.496 4.158a1.206 1.206 0 0 1-.85-1.476 1.2 1.2 0 0 1 .561-.73 1.192 1.192 0 0 1 .598-.163 1.216 1.216 0 0 1 .258.027l.057.015c.641.17 1.02.835.85 1.474a1.2 1.2 0 0 1-.561.73c-.279.16-.604.205-.913.121v.002zm-16.112-.912a.968.968 0 0 1 .626-1.165l.055-.015a.963.963 0 0 1 1.083 1.414.968.968 0 0 1-.585.45.949.949 0 0 1-.732-.098.968.968 0 0 1-.449-.585l.002-.001zm15.938-3.564-.041-.025a.966.966 0 0 1 .275-1.742.964.964 0 1 1-.234 1.766zM10.864 22.15l-.027.027a.725.725 0 1 1 0-1.024.72.72 0 0 1 .213.513.712.712 0 0 1-.186.483ZM22.178 9.807a.72.72 0 0 1 0 1.026.726.726 0 0 1-1.025 0 .72.72 0 0 1 0-1.026.718.718 0 0 1 .513-.213.72.72 0 0 1 .513.21v.002zm-7.422 13.464a.964.964 0 1 1-1.316-.35.96.96 0 0 1 .732-.098.956.956 0 0 1 .585.45v-.002zm2.48-14.538a.964.964 0 0 1 .352-1.318.968.968 0 0 1 .478-.129c.084 0 .166.01.251.032a.952.952 0 0 1 .584.45.964.964 0 0 1-1.081 1.414.952.952 0 0 1-.584-.45Zm1.447 13.984.051.03a1.2 1.2 0 0 1 .509.698 1.205 1.205 0 0 1-1.763 1.353 1.196 1.196 0 0 1-.56-.73 1.2 1.2 0 0 1 .85-1.477 1.264 1.264 0 0 1 .314-.04 1.192 1.192 0 0 1 .598.163l.002.001v.001zM14.235 9.41a1.208 1.208 0 0 1-1.472-.85 1.204 1.204 0 0 1 .85-1.474 1.216 1.216 0 0 1 .309-.04 1.205 1.205 0 0 1 .313 2.365Zm-3.907 2.418a1.515 1.515 0 1 0-.002-3.034 1.515 1.515 0 0 0 .002 3.034zM27.68 4.294a2.152 2.152 0 0 1 .633 1.53 2.144 2.144 0 0 1-.633 1.528 2.16 2.16 0 0 1-3.053 0 2.152 2.152 0 0 1-.633-1.529c0-.578.223-1.12.633-1.529a2.152 2.152 0 0 1 1.527-.633c.553 0 1.107.211 1.527.633zM4.32 27.7a2.168 2.168 0 0 1 0-3.057 2.144 2.144 0 0 1 1.527-.633 2.136 2.136 0 0 1 1.527.633 2.168 2.168 0 0 1 0 3.057 2.144 2.144 0 0 1-1.527.634A2.14 2.14 0 0 1 4.32 27.7zM20.78 4.464l-.015-.006a1.87 1.87 0 0 1-1.008-1.018 1.872 1.872 0 0 1 0-1.449A1.888 1.888 0 0 1 20.781.967a1.89 1.89 0 0 1 .724-.145 1.872 1.872 0 0 1 .723.145 1.896 1.896 0 0 1 1.023 2.473 1.89 1.89 0 0 1-2.47 1.024zM10.504 27.391c.244 0 .488.049.721.143a1.896 1.896 0 0 1 1.023 2.473 1.88 1.88 0 0 1-1.023 1.024 1.868 1.868 0 0 1-1.447 0 1.896 1.896 0 0 1-1.023-2.473 1.88 1.88 0 0 1 1.747-1.17l.002.002zm7.116-25.77c0 .87-.688 1.582-1.546 1.622H16a1.624 1.624 0 0 1-1.62-1.621A1.624 1.624 0 0 1 16 0c.892 0 1.62.731 1.62 1.623zm-3.242 28.757a1.624 1.624 0 0 1 1.62-1.621 1.624 1.624 0 0 1 1.62 1.621A1.624 1.624 0 0 1 15.998 32a1.624 1.624 0 0 1-1.62-1.622ZM11.025 3.965a1.344 1.344 0 0 1-1.033 0 1.336 1.336 0 0 1-.732-.733 1.352 1.352 0 0 1 .732-1.767 1.336 1.336 0 0 1 .514-.103 1.355 1.355 0 0 1 1.25 1.87 1.328 1.328 0 0 1-.732.733zm9.949 24.07a1.352 1.352 0 0 1 .52-.106 1.376 1.376 0 0 1 .515.103c.335.14.595.4.732.733a1.352 1.352 0 0 1 0 1.034 1.328 1.328 0 0 1-.732.733 1.352 1.352 0 0 1-1.035 0 1.328 1.328 0 0 1-.732-.733 1.348 1.348 0 0 1 .732-1.765v.001zM6.608 5.073c.416.416.422 1.085.021 1.51l-.024.023a1.088 1.088 0 0 1-1.532 0 1.088 1.088 0 0 1 0-1.533 1.08 1.08 0 0 1 1.532 0h.002zM25.38 25.4a1.072 1.072 0 0 1 .763-.317 1.08 1.08 0 0 1 .765.317c.205.203.316.475.316.764a1.08 1.08 0 0 1-1.846.766 1.08 1.08 0 0 1-.316-.766c0-.287.112-.56.316-.764zM2.215 11.746a1.355 1.355 0 0 1-.732-1.768 1.328 1.328 0 0 1 .732-.732 1.4 1.4 0 0 1 .519-.104 1.344 1.344 0 0 1 .516.104 1.354 1.354 0 0 1 .732 1.767 1.328 1.328 0 0 1-.732.733 1.344 1.344 0 0 1-1.034 0zm27.575 8.513a1.328 1.328 0 0 1 .732.733c.138.336.138.7 0 1.034a1.352 1.352 0 0 1-1.766.732 1.328 1.328 0 0 1-.732-.733 1.354 1.354 0 0 1 1.25-1.869 1.36 1.36 0 0 1 .515.103zM.017 16.01a1.624 1.624 0 0 1 1.62-1.622 1.624 1.624 0 0 1 1.62 1.622 1.624 1.624 0 0 1-1.62 1.621 1.624 1.624 0 0 1-1.62-1.621zm28.726 0a1.624 1.624 0 0 1 1.62-1.622 1.624 1.624 0 0 1 1.62 1.622 1.624 1.624 0 0 1-1.62 1.621 1.624 1.624 0 0 1-1.62-1.621zM.976 22.226A1.896 1.896 0 0 1 2 19.754a1.867 1.867 0 0 1 1.446 0 1.888 1.888 0 0 1 1.023 1.024 1.872 1.872 0 0 1 0 1.448 1.888 1.888 0 0 1-1.023 1.024 1.867 1.867 0 0 1-1.446 0 1.888 1.888 0 0 1-1.024-1.024Zm26.54-11.007a1.888 1.888 0 0 1 1.023-2.47 1.848 1.848 0 0 1 .719-.145c.742 0 1.447.44 1.749 1.167a1.896 1.896 0 0 1-1.023 2.473 1.867 1.867 0 0 1-1.447 0 1.883 1.883 0 0 1-1.023-1.024h.002zm-6.92 9.381a1.52 1.52 0 0 0 0 2.147 1.517 1.517 0 0 0 2.147 0 1.504 1.504 0 0 0 .445-1.073 1.504 1.504 0 0 0-.445-1.072 1.51 1.51 0 0 0-1.071-.444 1.528 1.528 0 0 0-1.076.441v.001zM7.939 15.08a1.202 1.202 0 0 1-.85-1.473 1.2 1.2 0 0 1 .561-.731 1.184 1.184 0 0 1 .597-.163 1.195 1.195 0 0 1 1.042.602c.16.279.203.603.12.914a1.2 1.2 0 0 1-1.472.85h.002zm15.496 4.158a1.206 1.206 0 0 1-.85-1.476 1.2 1.2 0 0 1 .561-.73 1.192 1.192 0 0 1 .598-.163 1.216 1.216 0 0 1 .258.027l.057.015c.641.17 1.02.835.85 1.474a1.2 1.2 0 0 1-.561.73c-.279.16-.604.205-.913.121v.002zm-16.112-.912a.968.968 0 0 1 .626-1.165l.055-.015a.963.963 0 0 1 1.083 1.414.968.968 0 0 1-.585.45.949.949 0 0 1-.732-.098.968.968 0 0 1-.449-.585l.002-.001zm15.938-3.564-.041-.025a.966.966 0 0 1 .275-1.742.964.964 0 1 1-.234 1.766zM10.864 22.15l-.027.027a.725.725 0 1 1 0-1.024.72.72 0 0 1 .213.513.712.712 0 0 1-.186.483ZM22.178 9.807a.72.72 0 0 1 0 1.026.726.726 0 0 1-1.025 0 .72.72 0 0 1 0-1.026.718.718 0 0 1 .513-.213.72.72 0 0 1 .513.21v.002zm-7.422 13.464a.964.964 0 1 1-1.316-.35.96.96 0 0 1 .732-.098.956.956 0 0 1 .585.45v-.002zm2.48-14.538a.964.964 0 0 1 .352-1.318.968.968 0 0 1 .478-.129c.084 0 .166.01.251.032a.952.952 0 0 1 .584.45.964.964 0 0 1-1.081 1.414.952.952 0 0 1-.584-.45Zm1.447 13.984.051.03a1.2 1.2 0 0 1 .509.698 1.205 1.205 0 0 1-1.763 1.353 1.196 1.196 0 0 1-.56-.73 1.2 1.2 0 0 1 .85-1.477 1.264 1.264 0 0 1 .314-.04 1.192 1.192 0 0 1 .598.163l.002.001v.001zM14.235 9.41a1.208 1.208 0 0 1-1.472-.85 1.204 1.204 0 0 1 .85-1.474 1.216 1.216 0 0 1 .309-.04 1.205 1.205 0 0 1 .313 2.365Zm-3.907 2.418a1.515 1.515 0 1 0-.002-3.034 1.515 1.515 0 0 0 .002 3.034z"/>
</svg>