<svg role="img" aria-labelledby="logo" viewBox="0 0 32 32" fill="none" version="1.1" width="32" height="32" xmlns="http://www.w3.org/2000/svg" xmlns:svg="http://www.w3.org/2000/svg">
  <path fill="#000" d="m 27.6804,4.2943999 a 2.152,2.152 0 0 1 0.6328,1.5288 2.144,2.144 0 0 1 -0.6328,1.5288 2.16,2.16 0 0 1 -3.0536,0 2.152,2.152 0 0 1 -0.6328,-1.5288 c 0,-0.5784 0.2232,-1.1208 0.6328,-1.5288 a 2.152,2.152 0 0 1 1.5272,-0.6336 c 0.5528,0 1.1072,0.2112 1.5272,0.6336 z M 4.3195999,27.6992 a 2.168,2.168 0 0 1 0,-3.0568 2.144,2.144 0 0 1 1.5272001,-0.6336 2.136,2.136 0 0 1 1.5272,0.6336 2.168,2.168 0 0 1 0,3.0568 2.144,2.144 0 0 1 -1.5272,0.6336 c -0.576,0 -1.12,-0.224 -1.5272001,-0.6336 z M 20.7812,4.4639999 20.766,4.4575999 c -0.4592,-0.1944 -0.8184,-0.5552 -1.008,-1.0176 a 1.872,1.872 0 0 1 0,-1.4488 1.888,1.888 0 0 1 1.0232,-1.02399999 c 0.2344,-0.0968 0.4784,-0.1456 0.724,-0.1456 a 1.872,1.872 0 0 1 0.7232,0.1456 1.896,1.896 0 0 1 1.0224,2.47279999 c -0.3984,0.9648 -1.5064,1.4232 -2.4696,1.024 z M 10.5036,27.3912 c 0.2448,0 0.4888,0.0488 0.7216,0.1432 a 1.896,1.896 0 0 1 1.0232,2.4728 1.88,1.88 0 0 1 -1.0232,1.024 c -0.4664,0.1944 -0.9784,0.1944 -1.4472,0 A 1.896,1.896 0 0 1 8.7548,28.5584 1.88,1.88 0 0 1 10.502,27.3888 l 0.0016,0.0016 z m 7.116,-25.7696001 c 0,0.8696 -0.688,1.5816 -1.5456,1.6216 h -0.0736 a 1.624,1.624 0 0 1 -1.62,-1.6216 1.624,1.624 0 0 1 1.6192,-1.6216 c 0.892,0 1.62,0.7312 1.62,1.6232 z M 14.378,30.3784 a 1.624,1.624 0 0 1 1.62,-1.6216 1.624,1.624 0 0 1 1.62,1.6216 A 1.624,1.624 0 0 1 15.998,32 1.624,1.624 0 0 1 14.378,30.3784 Z M 11.0252,3.9647999 a 1.344,1.344 0 0 1 -1.0336,0 1.336,1.336 0 0 1 -0.732,-0.7328 1.352,1.352 0 0 1 0.732,-1.7672 1.336,1.336 0 0 1 0.5144,-0.1032 c 0.5312,0 1.0336,0.3168 1.2504,0.836 0.1376,0.336 0.1376,0.7032 0,1.0344 a 1.328,1.328 0 0 1 -0.732,0.7328 z M 20.974,28.0344 a 1.352,1.352 0 0 1 0.5192,-0.1056 1.376,1.376 0 0 1 0.516,0.1032 c 0.3352,0.1392 0.5952,0.3992 0.732,0.7328 a 1.352,1.352 0 0 1 0,1.0344 1.328,1.328 0 0 1 -0.732,0.7328 1.352,1.352 0 0 1 -1.0352,0 1.328,1.328 0 0 1 -0.732,-0.7328 c -0.1376,-0.336 -0.1376,-0.7008 0,-1.0344 0.1376,-0.3336 0.3968,-0.5936 0.732,-0.7304 v 8e-4 z M 6.6084,5.0735999 c 0.416,0.416 0.4216,1.0856 0.0208,1.5096 l -0.024,0.024 a 1.088,1.088 0 0 1 -1.532,0 1.088,1.088 0 0 1 0,-1.5328 1.08,1.08 0 0 1 1.532,0 h 0.0016 l 7.772e-4,-7.771e-4 z M 25.3796,25.4 a 1.072,1.072 0 0 1 0.7632,-0.3168 1.08,1.08 0 0 1 0.7656,0.3168 c 0.2048,0.2032 0.316,0.4752 0.316,0.764 A 1.08,1.08 0 0 1 25.378,26.9304 1.08,1.08 0 0 1 25.062,26.164 c 0,-0.2872 0.112,-0.5592 0.316,-0.764 z M 2.2147999,11.7456 c -0.6896,-0.2856 -1.0168001,-1.0792 -0.732,-1.7672 a 1.328,1.328 0 0 1 0.732,-0.7328 1.4,1.4 0 0 1 0.5192,-0.1032 1.344,1.344 0 0 1 0.516,0.1032 c 0.6896,0.2856 1.0168,1.0792 0.732,1.7672 a 1.328,1.328 0 0 1 -0.732,0.7328 1.344,1.344 0 0 1 -1.0336,0 z M 29.79,20.2592 a 1.328,1.328 0 0 1 0.732,0.7328 c 0.1376,0.336 0.1376,0.7008 0,1.0344 a 1.352,1.352 0 0 1 -1.7656,0.7312 1.328,1.328 0 0 1 -0.732,-0.7328 c -0.1376,-0.336 -0.1376,-0.7008 0,-1.0344 0.2152,-0.5192 0.7192,-0.8344 1.2504,-0.8344 a 1.36,1.36 0 0 1 0.5144,0.1032 z M 0.01719982,16.0088 a 1.624,1.624 0 0 1 1.62000008,-1.6216 1.624,1.624 0 0 1 1.62,1.6216 1.624,1.624 0 0 1 -1.62,1.6216 1.624,1.624 0 0 1 -1.62000008,-1.6216 z m 28.72560018,0 a 1.624,1.624 0 0 1 1.62,-1.6216 1.624,1.624 0 0 1 1.62,1.6216 1.624,1.624 0 0 1 -1.62,1.6216 1.624,1.624 0 0 1 -1.62,-1.6216 z M 0.97639985,22.2264 A 1.896,1.896 0 0 1 1.9995999,19.7536 c 0.4664,-0.1944 0.9784,-0.1944 1.4464,0 a 1.888,1.888 0 0 1 1.0232,1.024 1.872,1.872 0 0 1 0,1.4488 1.888,1.888 0 0 1 -1.0232,1.024 c -0.4664,0.1944 -0.9784,0.1944 -1.4464,0 A 1.888,1.888 0 0 1 0.97639985,22.2264 Z M 27.5156,11.2192 A 1.888,1.888 0 0 1 28.5388,8.7496 1.848,1.848 0 0 1 29.258,8.604 c 0.7424,0 1.4472,0.4392 1.7488,1.1672 a 1.896,1.896 0 0 1 -1.0232,2.4728 c -0.4664,0.1944 -0.9784,0.1944 -1.4464,0 -0.468,-0.1944 -0.8288,-0.5576 -1.0232,-1.024 h 0.0016 z m -6.92,9.3808 a 1.52,1.52 0 0 0 0,2.1472 c 0.5928,0.5936 1.5544,0.5936 2.1472,0 a 1.504,1.504 0 0 0 0.4448,-1.0728 1.504,1.504 0 0 0 -0.4448,-1.072 c -0.296,-0.296 -0.6832,-0.444 -1.0712,-0.444 a 1.528,1.528 0 0 0 -1.0752,0.4408 v 8.23e-4 z M 7.9388,15.0808 C 7.2972,14.9104 6.918,14.2496 7.0892,13.6072 A 1.2,1.2 0 0 1 7.65,12.876 1.184,1.184 0 0 1 8.2468,12.7128 c 0.1032,0 0.2088,0.012 0.3128,0.04 0.3096,0.084 0.5696,0.2824 0.7296,0.5616 0.16,0.2792 0.2024,0.604 0.12,0.9144 a 1.2,1.2 0 0 1 -1.472,0.8504 h 0.0016 z m 15.496,4.1576 c -0.3096,-0.084 -0.5696,-0.2824 -0.7296,-0.5616 -0.16,-0.2792 -0.2024,-0.604 -0.12,-0.9144 a 1.2,1.2 0 0 1 0.5608,-0.7312 1.192,1.192 0 0 1 0.5984,-0.1624 1.216,1.216 0 0 1 0.2576,0.0272 l 0.0568,0.0152 c 0.6416,0.1704 1.0208,0.8344 0.8496,1.4736 a 1.2,1.2 0 0 1 -0.5608,0.7304 c -0.2784,0.16 -0.6032,0.2048 -0.9128,0.1208 v 0.0016 z M 7.3228,18.3264 A 0.96800001,0.96800001 0 0 1 7.9492,17.1608 L 8.0044,17.1456 C 8.5172,17.0064 9.046,17.3144 9.1836,17.8272 9.2508,18.0768 9.218,18.336 9.0868,18.56 A 0.96800001,0.96800001 0 0 1 8.502,19.0096 C 8.2548,19.0768 7.9964,19.0432 7.77,18.912 A 0.96800001,0.96800001 0 0 1 7.3212,18.3272 l 0.0016,-0.0016 z m 15.9384,-3.564 -0.0416,-0.0256 c -0.2008,-0.1312 -0.344,-0.3272 -0.4056,-0.5592 -0.1376,-0.5152 0.1664,-1.0432 0.6808,-1.1824 0.5144,-0.1392 1.0416,0.1688 1.1792,0.6816 0.1376,0.5128 -0.1664,1.0432 -0.6808,1.1808 -0.2488,0.0672 -0.5056,0.0312 -0.732,-0.0968 z m -12.3968,7.3864 -0.0272,0.0272 c -0.2824,0.2824 -0.7424,0.2824 -1.0248,0 -0.2824,-0.2824 -0.2824,-0.7416 0,-1.024 0.2824,-0.2824 0.7424,-0.2824 1.0248,0 A 0.72,0.72 0 0 1 11.05,21.6648 0.712,0.712 0 0 1 10.8644,22.148 Z M 22.178,9.8072 a 0.72,0.72 0 0 1 0,1.0256 c -0.2824,0.2824 -0.7424,0.2824 -1.0248,0 a 0.72,0.72 0 0 1 0,-1.0256 C 21.29,9.6696 21.4716,9.5936 21.666,9.5936 c 0.1944,0 0.3752,0.0736 0.5128,0.2112 v 0.0016 z m -7.4216,13.464 c 0.1288,0.2216 0.1624,0.4832 0.0968,0.7328 -0.0656,0.2496 -0.2256,0.456 -0.4488,0.5848 -0.2232,0.1288 -0.4832,0.1624 -0.732,0.0968 -0.5128,-0.1376 -0.8184,-0.6672 -0.6808,-1.18 0.0672,-0.2496 0.2256,-0.456 0.4488,-0.5848 a 0.96000001,0.96000001 0 0 1 0.732,-0.0976 c 0.2488,0.0672 0.456,0.2256 0.5848,0.4496 v -0.0016 l -8.23e-4,-7.77e-4 z m 2.48,-14.5384 C 17.1076,8.5112 17.0732,8.2496 17.1388,7.9999999 c 0.0656,-0.2496 0.2256,-0.456 0.4488,-0.5848 a 0.96800001,0.96800001 0 0 1 0.4784,-0.1288 c 0.084,0 0.1664,0.0104 0.2512,0.0312 a 0.95200001,0.95200001 0 0 1 0.584,0.4496 C 19.03,7.9887999 19.0644,8.2504 18.9988,8.5 18.8612,9.0128 18.3324,9.3192 17.8196,9.1816 A 0.95200001,0.95200001 0 0 1 17.2356,8.732 Z m 1.4464,13.984 0.0512,0.0296 a 1.2,1.2 0 0 1 0.5088,0.6984 c 0.1704,0.6416 -0.2096,1.3024 -0.8496,1.4736 -0.3128,0.0848 -0.6344,0.04 -0.9128,-0.12 -0.2784,-0.16 -0.4768,-0.42 -0.5608,-0.7304 a 1.2,1.2 0 0 1 0.8496,-1.4768 1.264,1.264 0 0 1 0.3144,-0.04 1.192,1.192 0 0 1 0.5984,0.1624 l 0.0016,0.0016 v 7.77e-4 z M 14.2348,9.4104 A 1.208,1.208 0 0 1 12.7628,8.56 C 12.5924,7.9183999 12.9716,7.2575999 13.6124,7.0863999 a 1.216,1.216 0 0 1 0.3096,-0.04 c 0.5312,0 1.0184,0.3544 1.1624,0.8912 C 15.2548,8.5792 14.8748,9.24 14.2348,9.4112 Z m -3.9064,2.4176 c 0.8368,0 1.5144,-0.6784 1.5144,-1.516 0,-0.8376 -0.6784,-1.516 -1.5144,-1.516 -0.836,0 -1.5144,0.6784 -1.5144,1.516 0,0.8376 0.6784,1.516 1.5144,1.516 z m 17.352,-7.5336001 a 2.152,2.152 0 0 1 0.6328,1.5288 2.144,2.144 0 0 1 -0.6328,1.5288 2.16,2.16 0 0 1 -3.0536,0 2.152,2.152 0 0 1 -0.6328,-1.5288 c 0,-0.5784 0.2232,-1.1208 0.6328,-1.5288 a 2.152,2.152 0 0 1 1.5272,-0.6336 c 0.5528,0 1.1072,0.2112 1.5272,0.6336 z M 4.3195999,27.6992 a 2.168,2.168 0 0 1 0,-3.0568 2.144,2.144 0 0 1 1.5272001,-0.6336 2.136,2.136 0 0 1 1.5272,0.6336 2.168,2.168 0 0 1 0,3.0568 2.144,2.144 0 0 1 -1.5272,0.6336 c -0.576,0 -1.12,-0.224 -1.5272001,-0.6336 z M 20.7812,4.4639999 20.766,4.4575999 c -0.4592,-0.1944 -0.8184,-0.5552 -1.008,-1.0176 a 1.872,1.872 0 0 1 0,-1.4488 1.888,1.888 0 0 1 1.0232,-1.02399999 c 0.2344,-0.0968 0.4784,-0.1456 0.724,-0.1456 a 1.872,1.872 0 0 1 0.7232,0.1456 1.896,1.896 0 0 1 1.0224,2.47279999 c -0.3984,0.9648 -1.5064,1.4232 -2.4696,1.024 z M 10.5036,27.3912 c 0.2448,0 0.4888,0.0488 0.7216,0.1432 a 1.896,1.896 0 0 1 1.0232,2.4728 1.88,1.88 0 0 1 -1.0232,1.024 c -0.4664,0.1944 -0.9784,0.1944 -1.4472,0 A 1.896,1.896 0 0 1 8.7548,28.5584 1.88,1.88 0 0 1 10.502,27.3888 l 0.0016,0.0016 z m 7.116,-25.7696001 c 0,0.8696 -0.688,1.5816 -1.5456,1.6216 h -0.0736 a 1.624,1.624 0 0 1 -1.62,-1.6216 1.624,1.624 0 0 1 1.6192,-1.6216 c 0.892,0 1.62,0.7312 1.62,1.6232 z M 14.378,30.3784 a 1.624,1.624 0 0 1 1.62,-1.6216 1.624,1.624 0 0 1 1.62,1.6216 A 1.624,1.624 0 0 1 15.998,32 1.624,1.624 0 0 1 14.378,30.3784 Z M 11.0252,3.9647999 a 1.344,1.344 0 0 1 -1.0336,0 1.336,1.336 0 0 1 -0.732,-0.7328 1.352,1.352 0 0 1 0.732,-1.7672 1.336,1.336 0 0 1 0.5144,-0.1032 c 0.5312,0 1.0336,0.3168 1.2504,0.836 0.1376,0.336 0.1376,0.7032 0,1.0344 a 1.328,1.328 0 0 1 -0.732,0.7328 z M 20.974,28.0344 a 1.352,1.352 0 0 1 0.5192,-0.1056 1.376,1.376 0 0 1 0.516,0.1032 c 0.3352,0.1392 0.5952,0.3992 0.732,0.7328 a 1.352,1.352 0 0 1 0,1.0344 1.328,1.328 0 0 1 -0.732,0.7328 1.352,1.352 0 0 1 -1.0352,0 1.328,1.328 0 0 1 -0.732,-0.7328 c -0.1376,-0.336 -0.1376,-0.7008 0,-1.0344 0.1376,-0.3336 0.3968,-0.5936 0.732,-0.7304 v 8e-4 z M 6.6084,5.0735999 c 0.416,0.416 0.4216,1.0856 0.0208,1.5096 l -0.024,0.024 a 1.088,1.088 0 0 1 -1.532,0 1.088,1.088 0 0 1 0,-1.5328 1.08,1.08 0 0 1 1.532,0 h 0.0016 l 7.772e-4,-7.771e-4 z M 25.3796,25.4 a 1.072,1.072 0 0 1 0.7632,-0.3168 1.08,1.08 0 0 1 0.7656,0.3168 c 0.2048,0.2032 0.316,0.4752 0.316,0.764 A 1.08,1.08 0 0 1 25.378,26.9304 1.08,1.08 0 0 1 25.062,26.164 c 0,-0.2872 0.112,-0.5592 0.316,-0.764 z M 2.2147999,11.7456 c -0.6896,-0.2856 -1.0168001,-1.0792 -0.732,-1.7672 a 1.328,1.328 0 0 1 0.732,-0.7328 1.4,1.4 0 0 1 0.5192,-0.1032 1.344,1.344 0 0 1 0.516,0.1032 c 0.6896,0.2856 1.0168,1.0792 0.732,1.7672 a 1.328,1.328 0 0 1 -0.732,0.7328 1.344,1.344 0 0 1 -1.0336,0 z M 29.79,20.2592 a 1.328,1.328 0 0 1 0.732,0.7328 c 0.1376,0.336 0.1376,0.7008 0,1.0344 a 1.352,1.352 0 0 1 -1.7656,0.7312 1.328,1.328 0 0 1 -0.732,-0.7328 c -0.1376,-0.336 -0.1376,-0.7008 0,-1.0344 0.2152,-0.5192 0.7192,-0.8344 1.2504,-0.8344 a 1.36,1.36 0 0 1 0.5144,0.1032 z M 0.01719982,16.0088 a 1.624,1.624 0 0 1 1.62000008,-1.6216 1.624,1.624 0 0 1 1.62,1.6216 1.624,1.624 0 0 1 -1.62,1.6216 1.624,1.624 0 0 1 -1.62000008,-1.6216 z m 28.72560018,0 a 1.624,1.624 0 0 1 1.62,-1.6216 1.624,1.624 0 0 1 1.62,1.6216 1.624,1.624 0 0 1 -1.62,1.6216 1.624,1.624 0 0 1 -1.62,-1.6216 z M 0.97639985,22.2264 A 1.896,1.896 0 0 1 1.9995999,19.7536 c 0.4664,-0.1944 0.9784,-0.1944 1.4464,0 a 1.888,1.888 0 0 1 1.0232,1.024 1.872,1.872 0 0 1 0,1.4488 1.888,1.888 0 0 1 -1.0232,1.024 c -0.4664,0.1944 -0.9784,0.1944 -1.4464,0 A 1.888,1.888 0 0 1 0.97639985,22.2264 Z M 27.5156,11.2192 A 1.888,1.888 0 0 1 28.5388,8.7496 1.848,1.848 0 0 1 29.258,8.604 c 0.7424,0 1.4472,0.4392 1.7488,1.1672 a 1.896,1.896 0 0 1 -1.0232,2.4728 c -0.4664,0.1944 -0.9784,0.1944 -1.4464,0 -0.468,-0.1944 -0.8288,-0.5576 -1.0232,-1.024 h 0.0016 z m -6.92,9.3808 a 1.52,1.52 0 0 0 0,2.1472 c 0.5928,0.5936 1.5544,0.5936 2.1472,0 a 1.504,1.504 0 0 0 0.4448,-1.0728 1.504,1.504 0 0 0 -0.4448,-1.072 c -0.296,-0.296 -0.6832,-0.444 -1.0712,-0.444 a 1.528,1.528 0 0 0 -1.0752,0.4408 v 8.23e-4 z M 7.9388,15.0808 C 7.2972,14.9104 6.918,14.2496 7.0892,13.6072 A 1.2,1.2 0 0 1 7.65,12.876 1.184,1.184 0 0 1 8.2468,12.7128 c 0.1032,0 0.2088,0.012 0.3128,0.04 0.3096,0.084 0.5696,0.2824 0.7296,0.5616 0.16,0.2792 0.2024,0.604 0.12,0.9144 a 1.2,1.2 0 0 1 -1.472,0.8504 h 0.0016 z m 15.496,4.1576 c -0.3096,-0.084 -0.5696,-0.2824 -0.7296,-0.5616 -0.16,-0.2792 -0.2024,-0.604 -0.12,-0.9144 a 1.2,1.2 0 0 1 0.5608,-0.7312 1.192,1.192 0 0 1 0.5984,-0.1624 1.216,1.216 0 0 1 0.2576,0.0272 l 0.0568,0.0152 c 0.6416,0.1704 1.0208,0.8344 0.8496,1.4736 a 1.2,1.2 0 0 1 -0.5608,0.7304 c -0.2784,0.16 -0.6032,0.2048 -0.9128,0.1208 v 0.0016 z M 7.3228,18.3264 A 0.96800001,0.96800001 0 0 1 7.9492,17.1608 L 8.0044,17.1456 C 8.5172,17.0064 9.046,17.3144 9.1836,17.8272 9.2508,18.0768 9.218,18.336 9.0868,18.56 A 0.96800001,0.96800001 0 0 1 8.502,19.0096 C 8.2548,19.0768 7.9964,19.0432 7.77,18.912 A 0.96800001,0.96800001 0 0 1 7.3212,18.3272 l 0.0016,-0.0016 z m 15.9384,-3.564 -0.0416,-0.0256 c -0.2008,-0.1312 -0.344,-0.3272 -0.4056,-0.5592 -0.1376,-0.5152 0.1664,-1.0432 0.6808,-1.1824 0.5144,-0.1392 1.0416,0.1688 1.1792,0.6816 0.1376,0.5128 -0.1664,1.0432 -0.6808,1.1808 -0.2488,0.0672 -0.5056,0.0312 -0.732,-0.0968 z m -12.3968,7.3864 -0.0272,0.0272 c -0.2824,0.2824 -0.7424,0.2824 -1.0248,0 -0.2824,-0.2824 -0.2824,-0.7416 0,-1.024 0.2824,-0.2824 0.7424,-0.2824 1.0248,0 A 0.72,0.72 0 0 1 11.05,21.6648 0.712,0.712 0 0 1 10.8644,22.148 Z M 22.178,9.8072 a 0.72,0.72 0 0 1 0,1.0256 c -0.2824,0.2824 -0.7424,0.2824 -1.0248,0 a 0.72,0.72 0 0 1 0,-1.0256 C 21.29,9.6696 21.4716,9.5936 21.666,9.5936 c 0.1944,0 0.3752,0.0736 0.5128,0.2112 v 0.0016 z m -7.4216,13.464 c 0.1288,0.2216 0.1624,0.4832 0.0968,0.7328 -0.0656,0.2496 -0.2256,0.456 -0.4488,0.5848 -0.2232,0.1288 -0.4832,0.1624 -0.732,0.0968 -0.5128,-0.1376 -0.8184,-0.6672 -0.6808,-1.18 0.0672,-0.2496 0.2256,-0.456 0.4488,-0.5848 a 0.96000001,0.96000001 0 0 1 0.732,-0.0976 c 0.2488,0.0672 0.456,0.2256 0.5848,0.4496 v -0.0016 l -8.23e-4,-7.77e-4 z m 2.48,-14.5384 C 17.1076,8.5112 17.0732,8.2496 17.1388,7.9999999 c 0.0656,-0.2496 0.2256,-0.456 0.4488,-0.5848 a 0.96800001,0.96800001 0 0 1 0.4784,-0.1288 c 0.084,0 0.1664,0.0104 0.2512,0.0312 a 0.95200001,0.95200001 0 0 1 0.584,0.4496 C 19.03,7.9887999 19.0644,8.2504 18.9988,8.5 18.8612,9.0128 18.3324,9.3192 17.8196,9.1816 A 0.95200001,0.95200001 0 0 1 17.2356,8.732 Z m 1.4464,13.984 0.0512,0.0296 a 1.2,1.2 0 0 1 0.5088,0.6984 c 0.1704,0.6416 -0.2096,1.3024 -0.8496,1.4736 -0.3128,0.0848 -0.6344,0.04 -0.9128,-0.12 -0.2784,-0.16 -0.4768,-0.42 -0.5608,-0.7304 a 1.2,1.2 0 0 1 0.8496,-1.4768 1.264,1.264 0 0 1 0.3144,-0.04 1.192,1.192 0 0 1 0.5984,0.1624 l 0.0016,0.0016 v 7.77e-4 z M 14.2348,9.4104 A 1.208,1.208 0 0 1 12.7628,8.56 C 12.5924,7.9183999 12.9716,7.2575999 13.6124,7.0863999 a 1.216,1.216 0 0 1 0.3096,-0.04 c 0.5312,0 1.0184,0.3544 1.1624,0.8912 C 15.2548,8.5792 14.8748,9.24 14.2348,9.4112 Z m -3.9064,2.4176 c 0.8368,0 1.5144,-0.6784 1.5144,-1.516 0,-0.8376 -0.6784,-1.516 -1.5144,-1.516 -0.836,0 -1.5144,0.6784 -1.5144,1.516 0,0.8376 0.6784,1.516 1.5144,1.516 z" />
</svg>
