<svg xmlns="http://www.w3.org/2000/svg" viewBox="0 0 107 107"><symbol xmlns="http://www.w3.org/2000/svg" viewBox="0 0 107 107" fill="none" id="3740e4f8-aa1d-4494-bf17-aceef8e2e996"><path d="M60.344 13.04c.2-3.293 1.299-6.588 3.097-9.582.5-.799 1-1.498 1.499-2.296 4.495.998 8.791 2.495 12.888 4.592-1.4 1.896-2.498 4.092-2.898 6.688-.4 2.595-.1 5.39.9 7.886 1.098 2.495 2.697 4.691 4.595 6.388 1.898 1.797 3.996 3.095 6.294 4.293a39.582 39.582 0 0014.187 3.893c.999.1 1.998.1 2.997.1.2.599.499 1.297.699 1.996-1.898.2-3.696.4-5.595.4-6.993.2-14.086-.7-20.58-2.995-6.494-2.396-12.488-6.29-15.685-11.979-1.799-2.795-2.598-6.09-2.398-9.383zM96.21 60.657c-11.39-.599-22.778-2.995-33.168-7.886-5.196-2.396-10.19-5.49-14.587-9.383-4.396-3.893-8.192-8.585-10.49-14.075-2.398-5.49-3.197-11.68-2.298-17.47.5-3.393 1.599-6.687 2.997-9.682a51.713 51.713 0 00-17.383 8.685c-.1.798-.2 1.697-.3 2.495-.5 6.489.9 13.077 3.996 18.767 2.997 5.69 7.593 10.68 12.788 14.674 5.295 3.993 11.19 7.187 17.384 9.583 12.488 4.891 26.075 6.888 39.563 6.788 3.896 0 7.792-.3 11.689-.699.099-.599.199-1.198.299-1.897-3.496.3-6.993.3-10.49.1zm-43.16-22.86c3.997 3.095 8.493 5.491 13.188 7.388 9.492 3.693 19.882 5.29 30.172 5.09 3.597 0 7.093-.299 10.59-.698 0-.3 0-.6-.1-.799 0-.3-.1-.599-.1-.898-2.697.1-5.395.1-8.092 0-8.093-.5-16.185-2.296-23.678-5.79-3.696-1.797-7.293-3.993-10.39-6.688-3.097-2.795-5.895-6.189-7.693-10.082-1.798-3.893-2.497-8.385-1.798-12.678.6-4.192 2.398-8.085 4.795-11.38.2-.299.4-.499.6-.698-3.797-.6-7.693-.699-11.69-.4-1.598.1-3.096.4-4.595.6-1.898 3.693-3.197 7.686-3.496 11.679-.5 4.891.499 9.882 2.797 14.175 2.098 4.392 5.495 8.185 9.49 11.18zm41.462 35.837c-14.587-.599-29.173-3.593-42.56-9.583-6.694-2.994-13.088-6.788-18.782-11.68-5.695-4.79-10.59-10.58-13.787-17.468-2.798-5.89-4.096-12.578-3.797-19.066C4.796 26.616-1.198 41.889.201 58.26c2.597 29.448 28.673 51.21 58.145 48.514 20.68-1.796 37.565-15.173 44.858-33.14-2.898.099-5.795.099-8.692 0zM81.424 7.75s0 .1 0 0c-.899 1.697-1.399 3.494-1.399 5.19 0 1.698.5 3.295 1.4 4.593 1.797 2.795 4.994 4.691 8.491 5.79 2.797.898 5.795 1.197 8.792 1.197-4.496-6.788-10.39-12.478-17.284-16.77z" fill="#000"></path></symbol><use href="#3740e4f8-aa1d-4494-bf17-aceef8e2e996"></use></svg>