<svg xml:space="preserve" width="32" height="32" xmlns="http://www.w3.org/2000/svg">
  <defs>
    <clipPath clipPathUnits="userSpaceOnUse" id="a">
      <path d="m83.867 788.93-2.626-2.78 2.626-2.7a3.54 3.54 0 0 1 5.176 0c1.425 1.5 1.425 3.97 0 5.48-1.5 1.5-3.751 1.5-5.176 0zm-13.343 5.28c1.941 0 3.891-.78 5.391-2.36l-2.775-2.92a3.54 3.54 0 0 1-5.176 0c-1.426-1.51-1.426-3.98 0-5.48a3.54 3.54 0 0 1 5.176 0l7.801 8.25.15.15c2.926 3.15 7.727 3.15 10.652 0 3.001-3.15 3.001-8.18.076-11.33-3.001-3.15-7.802-3.15-10.728 0l-.3.3-2.325 2.48-2.326-2.48-.225-.3c-3-3.15-7.801-3.15-10.727 0-2.925 3.15-2.925 8.18 0 11.33 1.463 1.58 3.395 2.36 5.336 2.36z" style="clip-rule:evenodd"/>
    </clipPath>
  </defs>
  <g clip-path="url(#a)" style="fill:#000" transform="matrix(1.03196 0 0 -1.03186 -65.007 827.236)">
    <path d="M57.987 773.17h40.958v26.03H57.987Z" style="fill:#000;fill-opacity:1;fill-rule:nonzero;stroke:none"/>
  </g>
</svg>