<?xml version="1.0" encoding="UTF-8" standalone="no"?>
<!-- Created with Inkscape (http://www.inkscape.org/) -->

<svg version="1.1" id="svg2" xml:space="preserve" width="32" height="32" viewBox="0 0 32 32.000001" xmlns="http://www.w3.org/2000/svg" xmlns:svg="http://www.w3.org/2000/svg" xmlns:rdf="http://www.w3.org/1999/02/22-rdf-syntax-ns#" xmlns:cc="http://creativecommons.org/ns#" xmlns:dc="http://purl.org/dc/elements/1.1/"><metadata id="metadata8"><rdf:RDF><cc:Work rdf:about=""><dc:format>image/svg+xml</dc:format><dc:type rdf:resource="http://purl.org/dc/dcmitype/StillImage" /></cc:Work></rdf:RDF></metadata><defs id="defs6"><clipPath clipPathUnits="userSpaceOnUse" id="clipPath296"><path d="m 83.867,788.93 -2.626,-2.78 2.626,-2.7 c 1.425,-1.5 3.751,-1.5 5.176,0 1.425,1.5 1.425,3.97 0,5.48 -1.5,1.5 -3.751,1.5 -5.176,0 z m -13.343,5.28 c 1.941,0 3.891,-0.78 5.391,-2.36 l -2.775,-2.92 c -1.426,1.5 -3.751,1.5 -5.176,0 -1.426,-1.51 -1.426,-3.98 0,-5.48 1.425,-1.5 3.75,-1.5 5.176,0 l 7.801,8.25 0.15,0.15 c 2.926,3.15 7.727,3.15 10.652,0 3.001,-3.15 3.001,-8.18 0.076,-11.33 -3.001,-3.15 -7.802,-3.15 -10.728,0 l -0.3,0.3 -2.325,2.48 -2.326,-2.48 -0.225,-0.3 c -3,-3.15 -7.801,-3.15 -10.727,0 -2.925,3.15 -2.925,8.18 0,11.33 1.463,1.58 3.395,2.36 5.336,2.36 z" id="path294" style="clip-rule:evenodd" /></clipPath></defs><g id="g290" transform="matrix(1.0319554,0,0,-1.0318642,-65.007256,827.23616)" style="fill:#000000"><g id="g292" clip-path="url(#clipPath296)" style="fill:#000000"><path d="m 57.987,773.17 v 0 H 98.945 V 799.2 H 57.987 Z" style="fill:#000000;fill-opacity:1;fill-rule:nonzero;stroke:none" id="path298" /></g></g></svg>
