<?xml version="1.0" encoding="UTF-8" standalone="no"?>
<svg width="32" height="32" viewBox="0 0 32 32" fill="none" version="1.1" id="svg2" xmlns="http://www.w3.org/2000/svg" xmlns:svg="http://www.w3.org/2000/svg">
  <defs id="defs2">
    <clipPath clipPathUnits="userSpaceOnUse" id="clipPath45">
      <rect width="132" height="132" rx="32" fill="#ffffff" id="rect45" x="0" y="0" />
    </clipPath>
    <clipPath clipPathUnits="userSpaceOnUse" id="clipPath44-2">
      <rect width="132" height="132" rx="32" fill="#ffffff" id="rect44-7" x="0" y="0" />
    </clipPath>
  </defs>
  <g id="g78" transform="scale(0.24242424)">
    <path id="rect1" clip-path="url(#clipPath45)" style="fill:#000000" d="M 132,-66 C 95.5492,-66 66,-36.450831 66,0 h 66 v 66 c 36.451,0 66,-29.549231 66,-66 0,-36.450831 -29.549,-66 -66,-66 z m 0,132 c -10.02273,0 -19.51709,-2.244798 -28.02539,-6.242188 -0.21344,5.326764 -1.2867,9.386372 -3.22461,12.029297 -2.177,2.9691 -4.816613,4.769425 -10.695312,5.640625 L 106,99 H 87.480469 L 73.017578,77.529297 H 42.539062 V 99 H 26 V 33.005859 H 74.855469 C 69.233834,23.294336 66,12.028414 66,0 H 0 V 132 H 132 Z M 42.539062,47.554688 v 15.43164 h 38.996094 v 0.0059 c 2.2779,-10e-7 3.863303,-0.296935 4.658203,-0.990235 0.7949,-0.6934 1.28711,-1.977731 1.28711,-3.957031 v -5.541016 c 0,-1.8786 -0.49221,-3.165975 -1.28711,-3.859375 -0.7949,-0.6933 -2.380303,-1.089843 -4.658203,-1.089843 z" />
    <path id="path1" clip-path="url(#clipPath44-2)" style="fill:#0d000d;fill-opacity:0.5" d="m 132.00073,-65.999414 c -36.450801,0 -66.000001,29.54917 -66.000001,66.000000075 0,12.024499925 3.231369,23.286702925 8.84961,32.996093925 h 9.371093 v -0.0059 c 3.6601,0 6.632919,0.396544 9.011719,1.089844 2.3788,0.7941 4.359072,1.97911 6.138672,3.66211 1.684997,1.7779 2.872407,3.757503 3.566407,6.033203 0.694,2.2756 1.0918,5.244653 1.0918,9.001953 v 4.949219 c 0,0.700464 -0.0182,1.373781 -0.0449,2.035156 8.50531,3.993952 17.99749,6.238281 28.01563,6.238281 36.451,0 66,-29.54923 66,-65.999999925 0,-36.450830075 -29.549,-66.000000075 -66,-66.000000075 z" transform="translate(-0.01049492,0.00917955)" />
  </g>
</svg>
