<?xml version="1.0" encoding="UTF-8" standalone="no"?>
<svg fill="none" width="32" height="32" viewBox="0 0 32 32" version="1.1" id="svg4" xmlns="http://www.w3.org/2000/svg" xmlns:svg="http://www.w3.org/2000/svg">
  <defs id="defs4" />
  <g id="g9" transform="matrix(0.30769231,0,0,0.30769231,3.076923,-1.2e-7)">
    <path d="m 65.6,76.183 c -3.74,0 -6.196,-2.14 -6.196,-5.35 0,-2.675 1.817,-4.815 3.954,-4.815 0.854,0 1.602,0.32 1.602,1.175 0,0.535 -0.214,0.965 0.32,0.965 0.32,0 0.643,-0.32 0.643,-1.18 0,-1.055 -0.963,-1.925 -2.351,-1.925 h -0.323 c 0.144,-0.3 0.218,-0.63 0.214,-0.964 0.01959,-0.83341 -0.660565,-1.514477 -1.494,-1.496 -0.748,0 -1.497,0.43 -1.497,0.964 -0.01801,0.134617 0.06215,0.263047 0.191,0.306 0.04186,0.01385 0.08641,0.01762 0.13,0.011 0.319,0 0.428,-0.317 0.962,-0.317 0.431511,-0.05182 0.7974,0.314558 0.745,0.746 0,0.75 -0.64,1.056 -1.174,1.39 -1.817935,1.067981 -2.920232,3.031866 -2.885,5.14 0,2.995 1.712,4.927 4.168,5.776 l -1.602,2.464 c -2.137,0 -3.209,1.608 -5.131,5.03 -0.183017,-0.905608 -0.999061,-1.542479 -1.922,-1.5 -1.178,0 -1.926,0.855 -1.926,2.035 -0.02633,0.264195 0.16424,0.500623 0.428,0.531 0.301931,0.02044 0.553173,-0.228924 0.535,-0.531 -0.04204,-0.563308 0.398213,-1.046073 0.963,-1.056 0.748,0 1.054,0.535 1.054,1.175 0.02323,0.731704 -0.203568,1.449483 -0.643,2.035 -2.242,3.636 -5.342,5.455 -8.013,5.455 -2.354,0 -3.742,-1.39 -3.742,-2.78 0,-1.285 0.748,-2.355 2.03,-2.355 0.855,0 1.389,0.535 1.389,1.281 0,0.644 -0.534,0.644 -0.534,0.965 0,0.214 0.214,0.32 0.429,0.32 0.643,0 1.054,-0.746 1.054,-1.496 0,-1.18 -0.963,-2.035 -2.351,-2.035 -1.150301,-0.0048 -2.196005,0.666886 -2.67,1.715 -0.477299,-1.046176 -1.522089,-1.716766 -2.672,-1.715 -1.405,0 -2.354,0.856 -2.354,2.035 0,0.75 0.428,1.496 1.054,1.496 0.21,0 0.425,-0.106 0.425,-0.32 0,-0.32 -0.534,-0.32 -0.534,-0.965 0,-0.746 0.534,-1.281 1.406,-1.281 1.279,0 2.028,1.056 2.028,2.355 0,1.39 -1.389,2.78 -3.74,2.78 -2.67,0 -5.77,-1.82 -8.016,-5.455 -0.428963,-0.59548 -0.642982,-1.318985 -0.607,-2.052 0,-0.641 0.32,-1.176 1.054,-1.176 0.564787,0.0099 1.005036,0.492692 0.963,1.056 -0.01786,0.299948 0.230018,0.548291 0.53,0.531 0.264444,-0.02936 0.455861,-0.26629 0.429,-0.531 0,-1.18 -0.748,-2.035 -1.922,-2.035 -0.924694,-0.04537 -1.743535,0.592352 -1.926,1.5 -1.908,-3.407 -2.977,-5.012 -5.103,-5.012 L 21.37,76.609 c 2.46,-0.855 4.168,-2.78 4.168,-5.776 0.03397,-2.108073 -1.068458,-4.071511 -2.886,-5.14 -0.534,-0.32 -1.173,-0.64 -1.173,-1.39 -0.05021,-0.431918 0.316218,-0.797366 0.748,-0.746 0.535,0 0.64,0.317 0.96,0.317 0.186069,0.02734 0.346851,-0.130451 0.323,-0.317 0,-0.535 -0.748,-0.964 -1.497,-0.964 -0.61074,-0.01688 -1.167056,0.34934 -1.393,0.917 -0.073,0.184 -0.109,0.38 -0.104,0.579 -0.004,0.334 0.07,0.664 0.214,0.964 h -0.32 c -1.405,0 -2.35,0.856 -2.35,1.926 0,0.858 0.32,1.179 0.64,1.179 0.533,0 0.319,-0.43 0.319,-0.965 0,-0.855 0.748,-1.175 1.606,-1.175 2.137,0 3.953,2.14 3.953,4.815 0,3.21 -2.46,5.35 -6.199,5.35 -4.382,0 -7.696,-3.21 -7.696,-7.705 0,-4.39 2.566,-7.392 5.45,-10.056 l 2.46,-2.355 c 3.1,-2.89 4.38,-5.885 4.38,-9.627 0,-4.069 -2.46,-8.563 -7.584,-10.809 1.054,-0.32 1.708,-1.408 1.708,-2.675 0,-0.855 -0.32,-1.387 -0.32,-2.03 0,-1.286 0.748,-2.035 1.817,-2.035 0.85656,-0.02808 1.573745,0.643446 1.602,1.5 0.0307,0.662492 -0.514482,1.208134 -1.177,1.178 -0.32,0 -0.534,0 -0.534,0.32 0,0.32 0.323,0.426 0.748,0.426 0.9559,0.03249 1.783515,-0.658626 1.922,-1.605 0.23,0.134 0.488,0.208 0.752,0.215 0.720753,0.02943 1.312244,-0.564367 1.28,-1.285 0,-0.214 -0.106,-0.535 -0.425,-0.535 -0.215,0 -0.32,0.215 -0.32,0.426 0.01972,0.303875 -0.230987,0.556457 -0.535,0.539 -0.438604,-0.04322 -0.813095,-0.335188 -0.962,-0.75 -0.477356,-0.854178 -1.372645,-1.390362 -2.351,-1.408 -1.328309,-0.0229 -2.470005,0.937405 -2.675,2.25 -0.732789,-0.745076 -1.559788,-1.391212 -2.46,-1.922 0.854,-0.54 1.603,-0.965 2.46,-1.61 1.352071,-1.021682 2.605236,-2.168045 3.743,-3.424 l 5.876,-6.42 c 5.13,-5.67 8.434,-7.06 11.65,-7.06 2.779,0 4.167,1.39 4.167,2.995 0,1.179 -0.502,2.052 -1.304,2.481 -0.487124,-0.507521 -0.813448,-1.147646 -0.938,-1.84 -0.109,-0.532 -0.214,-0.532 -0.323,-0.532 -0.215,0 -0.215,0.21 -0.215,0.426 -0.02048,0.782089 0.179471,1.554165 0.577,2.228 -0.116,0 -0.236,0.02 -0.352,0.02 -1.054,0 -1.708,-0.538 -1.708,-1.178 -0.0099,-0.200298 0.06871,-0.394831 0.215,-0.532 0.21,-0.215 0.105,-0.324 0,-0.324 -0.429,0 -0.858,0.535 -0.858,1.176 0,0.75 0.643,1.82 2.46,1.82 0.342,0 0.682,-0.051 1.009,-0.152 1.241023,0.919107 2.936977,0.919107 4.178,0 0.328,0.101 0.67,0.152 1.012,0.152 1.814,0 2.46,-1.056 2.46,-1.82 0,-0.64 -0.428,-1.176 -0.854,-1.176 -0.105,0 -0.214,0.11 0,0.324 0.142601,0.139383 0.219301,0.332767 0.211,0.532 0,0.64 -0.64,1.179 -1.708,1.179 -0.123,0 -0.246,0 -0.351,-0.021 0.397179,-0.673938 0.596781,-1.446007 0.576,-2.228 0,-0.215 0,-0.426 -0.214,-0.426 -0.106,0 -0.215,0 -0.32,0.531 -0.127398,0.691686 -0.453313,1.331355 -0.938,1.841 -0.801,-0.43 -1.308,-1.302 -1.308,-2.481 0,-1.605 1.389,-2.996 4.168,-2.996 3.205,0 6.52,1.39 11.65,7.061 l 5.876,6.42 c 1.112067,1.28119 2.36763,2.43039 3.742,3.425 0.854,0.644 1.603,1.056 2.46,1.608 -0.9,0.53 -1.727,1.177 -2.46,1.922 -0.208606,-1.309999 -1.347632,-2.26799 -2.674,-2.249 -0.978588,0.01682 -1.874253,0.553231 -2.351,1.408 -0.149008,0.41391 -0.522335,0.705572 -0.96,0.75 -0.304158,0.01823 -0.55506,-0.235026 -0.534,-0.539 0,-0.21 -0.109,-0.426 -0.32,-0.426 -0.323,0 -0.428,0.32 -0.428,0.535 -0.0291,0.720203 0.561731,1.312413 1.282,1.285 0.264,-0.007 0.522,-0.081 0.75,-0.215 0.140982,0.944561 0.966423,1.634219 1.921,1.605 0.43,0 0.749,-0.105 0.749,-0.425 0,-0.32 -0.215,-0.32 -0.534,-0.32 -0.683196,0.08564 -1.263124,-0.49725 -1.174,-1.18 0.03096,-0.854122 0.744644,-1.523616 1.599,-1.5 1.072,0 1.82,0.75 1.82,2.035 0,0.644 -0.323,1.176 -0.323,2.031 0,1.285 0.643,2.355 1.711,2.675 -5.13,2.246 -7.587,6.74 -7.587,10.81 0,3.741 1.283,6.736 4.379,9.626 l 2.46,2.355 c 2.885,2.675 5.45,5.667 5.45,10.056 0,4.495 -3.314,7.705 -7.696,7.705 z M 42.023,96.08 c -0.611926,-1.191719 -1.366097,-2.304843 -2.246,-3.315 0.97483,-0.376809 1.775156,-1.101949 2.246,-2.035 0.469874,0.932314 1.268667,1.657356 2.242,2.035 -0.878238,1.010578 -1.631036,2.123659 -2.242,3.315 z m 1.079,-80.251 c -0.687037,0.309736 -1.473963,0.309736 -2.161,0 0.485254,-0.375248 0.859277,-0.875443 1.082,-1.447 0.221624,0.57135 0.594632,1.071574 1.079,1.447 z M 75.046,63.88 c -0.572213,-0.02992 -1.113777,0.260122 -1.406,0.753 -0.854,-1.925 -1.708,-3.745 -5.45,-7.17 0.485,0.148 0.99,0.22 1.497,0.215 1.177,0 2.46,-0.324 3.205,-1.056 0.200211,0.7159 0.862983,1.202869 1.606,1.18 1.173,0 1.602,-0.75 1.602,-1.606 0,-0.323 -0.109,-0.644 -0.429,-0.644 -0.64,0 -0.105,1.285 -1.173,1.285 -0.456615,-0.0041 -0.807146,-0.406084 -0.749,-0.859 0,-0.531 0.32,-1.175 0.32,-1.925 0.06826,-1.489591 -0.910241,-2.825612 -2.351,-3.21 -0.669302,-0.129967 -1.157839,-0.708388 -1.174,-1.39 0,-0.856 0.64,-0.962 1.054,-0.962 0.415,0 0.749,0.106 0.749,-0.214 0,-0.32 -0.32,-0.535 -0.96,-0.535 -0.748,0 -1.816,0.535 -1.816,1.71 -0.01492,0.485166 0.179624,0.953298 0.534,1.285 -1.044827,0.180571 -1.810217,1.083706 -1.817,2.144 0,0.746 0.21,1.492 0.749,1.492 0.64,0 0.105,-0.535 0.105,-1.39 0,-0.961 0.854,-1.387 1.711,-1.387 1.174,0 2.242,1.056 2.242,2.464 0,1.605 -1.282,2.675 -3.314,2.675 -1.636369,0.07638 -3.217057,-0.603532 -4.287,-1.844 -2.245,-2.464 -3.514,-4.6 -3.514,-8.448 0,-4.928 3.514,-9.204 8.655,-10.595 1.144694,-0.328649 1.930683,-1.379086 1.923,-2.57 0,-1.055 -0.64,-1.921 -1.708,-1.921 -0.429,0 -0.749,0.102 -0.749,0.426 0,0.324 0.32,0.32 0.534,0.32 0.58634,0.06611 1.012615,0.588295 0.96,1.176 -6.89e-4,0.72181 -0.451984,1.366402 -1.13,1.614 -0.219753,0.07996 -0.453571,0.113992 -0.687,0.1 -1.174,0 -1.922,-0.855 -1.922,-2.034 0,-2.246 2.674,-3.745 4.702,-4.703 -1.817,-0.859 -2.46,-1.18 -3.848,-2.25 -0.28707,-0.273996 -0.441973,-0.658522 -0.425,-1.055 0,-0.535 0.32,-0.965 0.748,-0.965 0.302348,-0.01665 0.551778,0.233717 0.534,0.536 0,0.32 -0.214,0.32 -0.214,0.535 -0.02747,0.186933 0.133067,0.347467 0.32,0.32 0.214,0 0.748,-0.211 0.748,-1.056 0.01288,-0.756447 -0.634787,-1.356056 -1.388,-1.285 -0.98842,-1.62e-4 -1.772127,0.833472 -1.711,1.82 -0.836364,-0.691488 -1.622047,-1.44208 -2.351,-2.246 l -3.42,-3.745 c -0.963,-1.056 -0.428,-3.1 0.96,-3.1 0.56315,-0.04147 1.045174,0.399394 1.054,0.964 0,0.96 -0.963,0.531 -0.963,1.056 -0.0045,0.234814 0.198587,0.420003 0.432,0.394 0.63893,0.0091 1.211527,-0.392969 1.42,-0.997 0.068,-0.195 0.094,-0.402 0.077,-0.608 -0.06125,-1.061003 -0.968751,-1.872833 -2.03,-1.816 -1.407,0 -2.348,1.056 -2.348,2.57 l -1.072,-1.18 C 54.379,11.012 50.534,8.756 46.781,8.756 45.571118,8.7359672 44.381965,9.0715029 43.361,9.721 42.853578,9.112704 42.390075,8.4690793 41.974,7.795 41.551657,8.4695687 41.081802,9.1131974 40.568,9.721 39.547035,9.0715029 38.357882,8.7359672 37.148,8.756 c -3.739,0 -7.587,2.25 -12.3,7.392 l -1.053,1.18 c 0,-1.5 -0.963,-2.57 -2.351,-2.57 -1.062815,-0.06078 -1.97298,0.753031 -2.031,1.816 -0.06739,0.870188 0.624232,1.611706 1.497,1.605 0.244942,0.02557 0.45115,-0.181119 0.425,-0.426 0,-0.535 -0.96,-0.106 -0.96,-1.056 0.0067,-0.412894 0.270159,-0.777802 0.66,-0.914 0.126858,-0.04352 0.261299,-0.06054 0.395,-0.05 1.388,0 1.922,2.03 0.962,3.1 L 18.97,22.58 c -0.729016,0.803549 -1.514696,1.553805 -2.351,2.245 0.04212,-0.719885 -0.369024,-1.389695 -1.03,-1.678 -0.214044,-0.09267 -0.444758,-0.140649 -0.678,-0.141 -0.760834,-0.08621 -1.422984,0.518486 -1.406,1.284 0,0.86 0.534,1.056 0.749,1.056 0.187251,0.02843 0.348433,-0.132749 0.32,-0.32 0,-0.215 -0.211,-0.215 -0.211,-0.535 -0.01853,-0.302416 0.23155,-0.552966 0.534,-0.535 0.428,0 0.748,0.43 0.748,0.964 0.0161,0.397217 -0.13989,0.782079 -0.428,1.056 -1.283,1.285 -2.032,1.408 -3.849,2.25 2.032,0.957 4.702,2.463 4.702,4.702 0,1.179 -0.745,2.034 -1.922,2.034 -0.986788,0.06002 -1.819401,-0.725391 -1.817,-1.714 -0.04815,-0.587199 0.377779,-1.106896 0.963,-1.175 0.211,0 0.534,0 0.534,-0.32 0,-0.321 -0.323,-0.427 -0.748,-0.427 -1.054,0 -1.712,0.856 -1.712,1.922 -0.0036,1.190521 0.782347,2.239229 1.926,2.57 5.128,1.5 8.656,5.67 8.656,10.594 0,3.851 -1.388,5.882 -3.514,8.448 -1.061438,1.230913 -2.625867,1.911164 -4.25,1.848 -2.03,0 -3.313,-1.056 -3.313,-2.675 0,-1.39 1.054,-2.464 2.245,-2.464 0.854,0 1.708,0.426 1.708,1.387 0,0.855 -0.534,1.39 0.11,1.39 0.534,0 0.748,-0.746 0.748,-1.492 -0.01,-1.059101 -0.773877,-1.960455 -1.817,-2.144 0.353183,-0.332528 0.547488,-0.800097 0.534,-1.285 0,-1.175 -1.054,-1.71 -1.817,-1.71 -0.643,0 -0.963,0.214 -0.963,0.535 0,0.32 0.32,0.214 0.749,0.214 0.429,0 1.054,0.106 1.054,0.961 -0.01903,0.680175 -0.505707,1.256883 -1.173,1.39 -1.4444,0.379818 -2.4262961,1.718199 -2.355,3.21 0,0.75 0.323,1.409 0.323,1.926 0.056,0.451882 -0.29271,0.852338 -0.748,0.859 -1.054,0 -0.534,-1.285 -1.177,-1.285 -0.32,0 -0.426,0.32 -0.426,0.644 0,0.856 0.426,1.605 1.603,1.605 0.74217,0.02404 1.404281,-0.463247 1.602,-1.179 0.749,0.746 2.031,1.056 3.205,1.056 0.507011,0.0046 1.011774,-0.06791 1.497,-0.215 -3.739,3.425 -4.596,5.245 -5.45,7.17 -0.292706,-0.492373 -0.8339394,-0.782237 -1.406,-0.753 -1.054,0 -1.602,0.644 -1.602,1.608 0,0.212 0,0.856 0.534,0.856 0.425,0 0.214,-0.43 0.214,-0.75 0.00554,-0.453447 0.4039223,-0.801453 0.854,-0.746 0.854,0 1.054,0.746 0.854,1.925 -0.087505,0.565559 -0.1226541,1.137984 -0.105,1.71 0,5.027 3.739,8.667 8.655,8.667 0.716,-0.02 1.43,-0.091 2.137,-0.215 l 1.497,2.25 c -1.055267,0.300422 -1.791862,1.253091 -1.817,2.35 -0.01706,1.001788 0.583731,1.910922 1.512,2.288 0.3,0.122 0.623,0.182 0.948,0.176 0.857,0 1.497,-0.43 1.497,-0.859 0.02305,-0.243631 -0.181369,-0.44805 -0.425,-0.425 -0.324,0 -0.324,0.32 -1.055,0.32 -0.611153,0.01522 -1.167076,-0.351934 -1.393,-0.92 -0.07359,-0.184294 -0.108974,-0.381618 -0.104,-0.58 0,-0.851 0.752,-1.495 1.817,-1.495 2.031,0 2.994,2.354 4.382,4.705 l 1.406,2.355 c 2.246,3.85 5.876,6.097 8.87,6.097 0.430394,0.01733 0.861287,-0.01827 1.283,-0.106 1.282,1.285 2.565,3.636 3.1,4.706 0.533,-1.056 1.813,-3.421 3.099,-4.706 0.421387,0.08765 0.851939,0.12325 1.282,0.106 2.99,0 6.625,-2.246 8.87,-6.097 l 1.388,-2.355 c 1.388,-2.35 2.351,-4.706 4.383,-4.706 1.054,0 1.816,0.645 1.816,1.496 0.02017,0.835457 -0.661505,1.518498 -1.497,1.5 -0.748,0 -0.748,-0.32 -1.054,-0.32 -0.245188,-0.02577 -0.452476,0.179581 -0.429,0.425 0,0.43 0.643,0.86 1.497,0.86 1.369956,0.02289 2.485669,-1.095093 2.46,-2.465 -0.03603,-1.087318 -0.76788,-2.027869 -1.813,-2.33 l 1.494,-2.249 c 0.706,0.124 1.42,0.195 2.136,0.215 4.92,0 8.66,-3.64 8.66,-8.666 0.01731,-0.572047 -0.01818,-1.14447 -0.106,-1.71 -0.215,-1.18 0,-1.926 0.854,-1.926 0.450507,-0.05685 0.849796,0.291939 0.854,0.746 0,0.32 -0.215,0.75 0.214,0.75 0.534,0 0.534,-0.644 0.534,-0.855 0,-0.965 -0.534,-1.609 -1.602,-1.609 l 0.028,0.007 z m -2.808,18.4 c -4.702,4.815 -11.65,8.237 -18.274,11.45 -4.382,2.14 -8.655,4.277 -11.97,6.846 C 38.681,98.006 34.404,95.87 30.025,93.73 23.398,90.517 16.453,87.095 11.752,82.28 5.777,76.184 2.878,69.96 2.878,62.921 c 0,-5.983 2.355,-11.02 7.696,-17.76 0.425,-0.54 0.854,-1.074 0.854,-1.5 0,-0.426 -0.429,-1.285 -0.64,-1.71 L 7.046,33.816 C 6.192,32 5.338,30.296 5.338,28.469 c 0,-1.5 0.963,-2.57 2.242,-3.64 l 5.345,-4.81 c 0.190959,-0.202151 0.233457,-0.502846 0.106,-0.75 l -1.708,-3.52 c -0.215,-0.43 -0.215,-0.754 0.105,-0.965 5.236,-3.52 9.619,-4.6 15.923,-6.314 5.974,-1.605 11.33,-2.996 14.644,-5.136 3.314,2.14 8.655,3.52 14.64,5.136 6.304,1.714 10.581,2.995 15.923,6.314 0.32,0.211 0.32,0.535 0.105,0.965 l -1.708,3.52 c -0.124259,0.248328 -0.08034,0.547813 0.11,0.75 l 5.323,4.807 c 1.283,1.056 2.242,2.14 2.242,3.64 0,1.82 -0.854,3.52 -1.708,5.346 l -3.732,8.135 c -0.214,0.425 -0.643,1.284 -0.643,1.71 0,0.426 0.429,0.961 0.854,1.5 5.774,6.42 7.696,11.767 7.696,17.76 0,7.04 -2.885,13.267 -8.87,19.36 z m 5.011,-36.806 c -0.96,-1.18 -1.493,-1.715 -1.493,-2.14 0,-0.426 0.32,-1.056 0.64,-1.82 L 79.6,34.453 c 0.963,-2.14 1.817,-3.96 1.817,-6.202 0,-1.608 -0.64,-3.214 -2.242,-4.604 l -4.597,-3.96 c -0.379445,-0.315957 -0.470462,-0.862058 -0.214,-1.284 l 1.712,-3.851 C 76.214117,14.285725 76.11964,13.957927 75.861,13.806 70.625,10.286 64.641,8.132 58.975,6.526 53.31,5.03 45.723,2.89 41.985,0 38.242,2.89 30.655,4.928 24.99,6.526 19.325,8.124 13.343,10.274 8.121,13.805 7.8592124,13.954523 7.7642845,14.28544 7.907,14.551 l 1.711,3.854 c 0.2593213,0.420951 0.169838,0.968503 -0.21,1.285 L 4.81,23.65 c -1.603,1.408 -2.246,2.995 -2.246,4.604 0,2.242 0.854,4.061 1.817,6.201 l 3.205,7.061 c 0.323,0.75 0.643,1.39 0.643,1.82 0,0.43 -0.534,0.96 -1.497,2.14 C 1.926,51.46 0,56.388 0,62.916 c 0,9.092 4.488,16.044 9.618,21.292 5.236,5.347 12.504,8.877 19.132,12.087 4.382,2.14 8.975,4.28 13.252,7.705 4.273,-3.425 8.87,-5.565 13.252,-7.705 6.624,-3.21 14,-6.74 19.128,-12.087 C 79.512,78.96 84,72.008 84,62.917 84,56.387 82.078,51.467 77.267,45.476" fill="#00003c" id="path1" style="fill:#000000" />
    <path d="m 49.382,65.697 a 7.165,7.165 0 0 1 -2.469,3.056 7.147,7.147 0 0 1 -3.706,1.291 c -4.986,0.412 -5.06,-5.515 -5.06,-5.515 V 50.066 h 0.147 a 12.71,12.71 0 0 1 4.783,0.412 c 4.491,1.274 7.707,5.332 7.545,10.003 a 13.857,13.857 0 0 1 -1.24,5.216 z M 38.136,30.19 c 0,0 1.054,-2.794 5.015,-2.495 3.96,0.3 6.108,3.551 6.22,6.74 0.112,3.19 0.96,10.254 -7.172,13.087 H 38.147 L 38.137,30.19 Z m 14.707,26.265 a 12.835,12.835 0 0 0 -2.024,-4.29 C 48.71,49.321 46.282,48.391 46.177,48.356 a 14.62,14.62 0 0 0 1.651,-1.09 10.802,10.802 0 0 0 3.673,-5.087 15.285,15.285 0 0 0 0.38,-8.958 c -1.758,-6.596 -6.456,-7.582 -6.456,-7.582 0,0 -5.465,-2.169 -9.225,2.601 -0.042,-0.066 -2.084,-3.213 -5.697,-1.562 -3.127,1.724 -1.328,4.452 -0.558,4.927 0,0 1.022,0.68 1.609,0 0.429,-0.506 0,-1.03 -0.242,-1.383 -0.45,-0.704 0.295,-1.489 1.342,-1.471 0.91,0 2.727,0.704 2.727,3.168 v 33.438 c 0,0.278 -0.285,2.063 -1.785,2.027 -1.5,-0.035 -2.045,-1.605 -1.188,-2.463 a 0.863,0.863 0 0 0 -0.267,-0.353 c -0.155,-0.08 -2.46,-0.144 -2.19,2.303 0.271,2.446 3.199,3.628 6.02,2.09 a 7.765,7.765 0 0 0 6.881,3.925 c 4.941,0 8.04,-4.147 8.04,-4.147 0,0 3.965,-4.818 1.944,-12.238" fill="#00003C" id="path2" style="fill:#000000" />
    <path d="m 32.11,62.628 a 19.38,19.38 0 0 0 12.545,3.847 16.267,16.267 0 0 0 8.54,-2.837 c 7.302,-5.103 4.037,-11.724 3.823,-12.32 0,0 -2.017,-4.6 -6.98,-6.31 0,0 -3.728,-1.253 -9.646,-1.686 -5.918,-0.433 -8.237,-2.967 -7.334,-6.075 0.903,-3.108 5.51,-4.51 8.36,-4.689 a 18.667,18.667 0 0 1 11.46,3.13 c 0.59,0.472 1.138,0.994 1.638,1.562 0,0 0.808,1.056 1.321,0.514 0.436,-0.475 -0.323,-1.14 -0.323,-1.14 a 6.19,6.19 0 0 1 -1.406,-3.52 17.978,17.978 0 0 1 -0.049,-2.654 6.44,6.44 0 0 1 0.197,-1.056 c 0.084,-0.3 0.154,-0.729 -0.278,-0.802 -0.351,-0.06 -0.523,0.351 -0.559,0.415 a 3.956,3.956 0 0 1 -4.262,1.844 c -4.783,-1.038 -7.732,-0.989 -7.732,-0.989 0,0 -5.58,-0.387 -9.316,3.629 a 7.592,7.592 0 0 0 -1.996,6.572 c 0.89,4.49 5.528,6.142 10.304,6.092 a 23.21,23.21 0 0 1 5.623,0.627 c 1.031,0.237 2.042,0.557 3.022,0.957 a 8.996,8.996 0 0 1 5.271,5.72 c 0.682,2.383 0.432,5.582 -3.904,8.17 -8.006,4.786 -17.642,0.351 -21.68,-9.082 a 0.657,0.657 0 0 0 -0.878,-0.292 c -0.51,0.211 -0.228,0.936 -0.228,0.936 0,0 1.5,2.707 1.212,4.84 a 5.872,5.872 0 0 1 -2.14,3.664 c -0.415,0.38 -0.924,0.834 -0.527,1.229 0.397,0.394 0.815,0.176 1.405,-0.352 h 0.025 a 3.827,3.827 0 0 1 4.505,0.056" fill="#00003C" id="path3" style="fill:#000000" />
    <path d="m 41.418,30.397 v 39.394 a 9.325,9.325 0 0 1 -0.906,4.125 c -0.678,1.376 -1.803,2.753 -3.599,2.753 0,0 -2.108,0.18 -2.79,-1.151 -0.812,-1.563 0.552,-2.172 0.552,-2.172 0,0 0.949,-0.437 0.495,-1.172 -0.453,-0.736 -1.462,-0.352 -1.462,-0.352 a 4.218,4.218 0 0 0 -2.337,2.323 c -0.773,1.81 0.5,4.83 3.954,5.16 a 7.693,7.693 0 0 0 7.06,-3.228 c 0,0 2.523,2.992 6.188,3.478 0,0 0.44,0.053 0.566,-0.134 0.127,-0.186 0.155,-0.493 -0.432,-0.901 -0.587,-0.408 -3.982,-2.365 -3.968,-5.783 V 29.091 a 7.148,7.148 0 0 1 3.255,-6.064 l 0.087,-0.053 a 19.353,19.353 0 0 1 4.309,-1.718 c 0,0 0.84,-0.148 0.938,-0.563 0.098,-0.415 -0.144,-0.676 -0.703,-0.616 a 12.51,12.51 0 0 0 -3.163,0.669 c -1.507,0.535 -3.328,1.612 -6.251,1.615 -2.256,0 -5.272,-0.795 -6.547,-1.161 a 7.844,7.844 0 0 1 -0.935,-0.352 c -0.295,-0.13 -0.703,-0.268 -0.963,-0.095 a 0.616,0.616 0 0 0 -0.163,0.783 0.61,0.61 0 0 0 0.279,0.255 c 0.875,0.553 1.117,0.5 1.94,0.926 a 8.51,8.51 0 0 1 2.54,1.982 8.618,8.618 0 0 1 2.053,5.705" fill="#00003C" id="path4" style="fill:#000000" />
  </g>
</svg>
