<?xml version="1.0" encoding="UTF-8" standalone="no"?>
<svg id="logosandtypes_com" data-name="logosandtypes com" viewBox="0 0 32 32" version="1.1" width="32" height="32" xmlns="http://www.w3.org/2000/svg" xmlns:svg="http://www.w3.org/2000/svg">
  <defs id="defs1">
    <style id="style1">.cls-1{fill:none;}.cls-2{fill:#ec0000;fill-rule:evenodd;}</style>
  </defs>
  <path class="cls-2" d="M 22.016215,11.411444 C 21.270744,9.8285243 16.32353,1.9260543 16.207353,0.29231431 A 7.4159803,7.4159803 0 0 0 15.996782,7.8293143 l 4.008115,7.1642597 a 7.4159803,7.4159803 0 0 1 -0.210572,7.537 7.3482103,7.3482103 0 0 0 -0.793877,-2.17832 C 18.288862,18.817744 12.223442,8.9765643 12.189557,7.4420543 a 7.4232414,7.4232414 0 0 0 -0.220253,7.5152197 l 4.029898,7.19814 a 7.4159803,7.4159803 0 0 1 -0.208151,7.53942 c -0.08713,-1.57565 -5.082754,-9.59914 -5.8088619,-11.12155 a 7.3336881,7.3336881 0 0 1 -0.922156,-3.89194 c -16.1970435,4.80442 -8.69393029,17.18455 6.9391689,17.02481 15.6331,0.15006 23.138633,-12.22039 6.94159,-17.02481 a 7.3215863,7.3215863 0 0 0 -0.924577,-3.2699 z" id="path2" style="fill:#000000;stroke-width:0.242036" />
</svg>
