<?xml version="1.0" encoding="UTF-8" standalone="no"?>
<svg width="32" height="32" viewBox="0 0 32 32" fill="none" version="1.1" id="svg11" sodipodi:docname="5d135e35.svg" inkscape:version="1.4-beta2 (9aaf4f34, 2024-07-30)" xmlns:inkscape="http://www.inkscape.org/namespaces/inkscape" xmlns:sodipodi="http://sodipodi.sourceforge.net/DTD/sodipodi-0.dtd" xmlns="http://www.w3.org/2000/svg" xmlns:svg="http://www.w3.org/2000/svg">
  <sodipodi:namedview id="namedview11" pagecolor="#ffffff" bordercolor="#000000" borderopacity="0.25" inkscape:showpageshadow="2" inkscape:pageopacity="0.0" inkscape:pagecheckerboard="0" inkscape:deskcolor="#d1d1d1" inkscape:zoom="1.3970809" inkscape:cx="47.24136" inkscape:cy="-13.957675" inkscape:window-width="1440" inkscape:window-height="790" inkscape:window-x="0" inkscape:window-y="0" inkscape:window-maximized="1" inkscape:current-layer="svg11" />
  <g clip-path="url(#clip0_1682_25)" id="g5" style="fill:#000000" transform="matrix(0.4494502,0,0,0.4494502,-1.4231e-7,1.6175936)">
    <path d="m 23.8573,43.0655 c -0.8324,0 -1.6485,-0.0793 -2.4287,-0.2361 C 20.8101,42.705 19.4816,42.2758 18.9639,42.1028 18.8345,42.0595 18.75,41.9405 18.75,41.8053 v -3.3499 c 0,-0.3931 0.3092,-0.5049 0.6166,-0.3931 0.9024,0.3299 2.5653,1.1016 4.5698,1.1196 0.8826,0.0091 1.519,-0.2037 1.8947,-0.6057 0.2086,-0.2218 0.3164,-0.5427 0.3039,-0.9015 -0.0054,-0.1749 -0.0342,-0.3318 -0.0827,-0.4688 -0.0468,-0.1316 -0.1493,-0.2452 -0.3128,-0.348 -0.1924,-0.1208 -0.4656,-0.2506 -0.809,-0.3858 -0.3542,-0.1388 -0.8252,-0.2849 -1.3968,-0.4345 -1.7258,-0.4724 -2.9968,-1.1161 -3.777,-1.9112 -0.7946,-0.8113 -1.1991,-1.8895 -1.1991,-3.2057 0,-0.8005 0.1564,-1.5451 0.462,-2.2158 0.3056,-0.6689 0.7389,-1.2513 1.2872,-1.7345 0.5429,-0.4796 1.2027,-0.8564 1.9577,-1.1232 0.7532,-0.265 1.5856,-0.3985 2.4772,-0.3985 0.7281,0 1.4274,0.0559 2.0782,0.1767 1.2188,0.229 1.6952,0.3967 2.2345,0.5842 0.1295,0.0451 0.2194,0.1623 0.2194,0.2993 v 3.1894 c 0,0.449 -0.2535,0.5301 -0.4782,0.449 -0.3919,-0.1407 -1.0733,-0.3769 -1.8463,-0.595 -0.6975,-0.1965 -1.3734,-0.2993 -2.0152,-0.2993 -0.7191,0 -1.2926,0.1424 -1.7006,0.4237 -0.3884,0.2668 -0.5753,0.622 -0.5753,1.0872 0,0.4002 0.2139,0.6761 0.6723,0.8744 0.1223,0.0487 0.2355,0.0938 0.3362,0.1316 0.1007,0.0379 0.2265,0.0812 0.3775,0.1317 0.1492,0.0504 0.3596,0.1117 0.6418,0.1893 0.2858,0.0775 0.6885,0.1947 1.1973,0.3479 0.7244,0.2092 1.3195,0.4273 1.7671,0.6509 0.4548,0.229 0.8378,0.4958 1.1362,0.7933 0.4512,0.4273 0.8125,0.952 1.0678,1.5578 0.2535,0.604 0.3829,1.2621 0.3829,1.958 0,0.8492 -0.1546,1.6281 -0.462,2.3096 -0.3074,0.6815 -0.746,1.2855 -1.3033,1.7904 -0.5591,0.5066 -1.2386,0.8996 -2.0206,1.1647 -0.7767,0.2632 -1.6485,0.3966 -2.5905,0.3966" fill="white" id="path1" style="fill:#000000" />
    <path d="m 40.5653,43.0622 c -1.4436,0 -2.835,-0.3533 -4.1348,-1.0493 -1.2997,-0.6959 -2.346,-1.6497 -3.1082,-2.8343 -0.2625,-0.4182 -0.4818,-0.8311 -0.6526,-1.2278 -0.1725,-0.4002 -0.3146,-0.8492 -0.4188,-1.3342 -0.1043,-0.4814 -0.178,-1.0385 -0.2175,-1.6533 -0.0378,-0.6058 -0.0576,-1.3306 -0.0576,-2.1545 V 16.9661 c 0,-0.1731 0.1403,-0.3138 0.3128,-0.3138 h 3.6278 c 0.1726,0 0.3128,0.1407 0.3128,0.3138 v 10.2264 c 1.4202,-1.0061 2.9608,-1.5145 4.5842,-1.5145 1.1271,0 2.2255,0.2344 3.2628,0.6942 1.0337,0.4597 1.9451,1.0926 2.7056,1.8823 0.7568,0.786 1.3752,1.711 1.8318,2.7459 0.4602,1.0403 0.6921,2.1689 0.6921,3.3499 0,1.1809 -0.2337,2.315 -0.6939,3.3697 -0.4584,1.0494 -1.0912,1.9815 -1.8786,2.7694 -0.7892,0.7897 -1.7258,1.4207 -2.7864,1.8787 -1.0661,0.4598 -2.204,0.6941 -3.3851,0.6941 m -0.0575,-13.232 c -0.6346,0 -1.2279,0.1118 -1.7618,0.33 -0.5339,0.2181 -1.0067,0.5337 -1.4076,0.9339 -0.4009,0.4021 -0.7209,0.8781 -0.9528,1.4154 -0.2301,0.5336 -0.3469,1.1142 -0.3469,1.7236 0,0.6635 0.1114,1.2837 0.3307,1.8462 0.2194,0.5626 0.534,1.0638 0.9348,1.4893 0.4009,0.4255 0.8737,0.759 1.4076,0.9898 0.5322,0.2308 1.1236,0.348 1.7564,0.348 0.6328,0 1.2404,-0.1172 1.7995,-0.3498 0.5591,-0.2326 1.0535,-0.5535 1.4687,-0.9574 0.4117,-0.4002 0.7371,-0.8888 0.969,-1.4495 0.2319,-0.5608 0.3488,-1.1684 0.3488,-1.8048 0,-0.6365 -0.1169,-1.2351 -0.347,-1.7832 -0.2319,-0.5499 -0.5519,-1.0313 -0.9528,-1.4333 -0.3991,-0.4003 -0.8863,-0.7212 -1.4471,-0.9538 -0.5609,-0.2308 -1.1668,-0.3498 -1.7995,-0.3498" fill="white" id="path2" style="fill:#000000" />
    <path d="m 58.8964,43.0098 c -2.4233,0 -4.2767,-0.7626 -5.5064,-2.2681 -0.4854,-0.613 -0.8395,-1.3162 -1.0534,-2.0969 -0.2122,-0.7698 -0.3182,-1.7759 -0.3182,-2.9929 V 29.7237 H 49.525 c -0.1726,0 -0.3128,-0.1406 -0.3128,-0.3137 v -3.523 c 0,-0.1731 0.1402,-0.3137 0.3128,-0.3137 h 2.4934 v -4.9564 c 0,-0.173 0.1402,-0.3137 0.3128,-0.3137 h 3.6296 c 0.1725,0 0.3128,0.1407 0.3128,0.3137 v 4.9564 h 3.1477 c 0.1726,0 0.3128,0.1406 0.3128,0.3137 v 3.523 c 0,0.1731 -0.1402,0.3137 -0.3128,0.3137 h -3.1477 v 5.9661 c 0,1.2043 0.2121,2.0355 0.6291,2.4718 0.4171,0.4364 1.2045,0.6689 2.3425,0.6924 h 0.1743 c 0.1726,0 0.3128,0.1406 0.3128,0.3137 v 3.523 c 0,0.1731 -0.1402,0.3137 -0.3128,0.3137 h -0.5267 z" fill="white" id="path3" style="fill:#000000" />
    <path d="m 10.1175,26.7382 v 5.481 h 5.6628 c 0.2678,0 0.4872,0.2109 0.4872,0.4706 v 2.9009 c 0,0.2597 -0.2176,0.4706 -0.4872,0.4706 h -5.6628 v 5.481 c 0,0.2597 -0.21753,0.4706 -0.48718,0.4706 H 6.63354 c -0.26786,0 -0.48718,-0.2109 -0.48718,-0.4706 v -5.481 H 0.487179 C 0.21932,36.0613 0,35.8504 0,35.5907 V 32.6898 C 0,32.4301 0.217523,32.2192 0.487179,32.2192 H 6.14996 v -5.481 c 0,-0.2597 0.21752,-0.4706 0.48718,-0.4706 h 2.99677 c 0.26786,0 0.48719,0.2109 0.48719,0.4706 z" fill="white" id="path4" style="fill:#000000" />
    <path d="m 13.2526,18.722 c 1.3771,-2.7098 3.1874,-5.216 5.3932,-7.4282 5.5028,-5.51889 13.0028,-8.61278 20.7851,-8.57673 7.7481,0.03606 15.0252,3.07767 20.5082,8.57673 5.5154,5.5315 8.5517,12.884 8.5517,20.7071 0,7.8231 -3.0363,15.1756 -8.5517,20.7071 -5.4506,5.4666 -12.6792,8.5064 -20.377,8.5749 -7.5971,0.0685 -14.9497,-2.8433 -20.4399,-8.1097 -1.9811,-1.9004 -3.6566,-4.0297 -5.0085,-6.3267 -0.2444,-0.4164 -0.6867,-0.6743 -1.1685,-0.6743 -1.0462,0 -1.6952,1.1413 -1.1649,2.0446 1.3645,2.3294 3.0202,4.475 4.9509,6.4114 2.9303,2.9388 6.3423,5.2448 10.1409,6.8567 3.9352,1.6695 8.113,2.5151 12.4203,2.5151 4.3073,0 8.4852,-0.8456 12.4204,-2.5151 3.8004,-1.6119 7.2124,-3.9197 10.1409,-6.8567 2.9302,-2.9389 5.2295,-6.3609 6.8366,-10.1706 1.6647,-3.9467 2.5078,-8.1368 2.5078,-12.4567 0,-4.3199 -0.8431,-8.51 -2.5078,-12.4567 C 67.0832,15.7327 64.7821,12.3107 61.8537,9.37364 58.9234,6.4348 55.5114,4.1288 51.7128,2.51695 47.7794,0.845592 43.5997,0 39.2942,0 34.9887,0 30.8091,0.845592 26.8739,2.51514 23.0735,4.127 19.6615,6.4348 16.733,9.37183 14.3349,11.777 12.3592,14.5067 10.8401,17.5068 c -0.4548,0.8979 0.2032,1.9599 1.2081,1.9599 0.5105,0 0.9743,-0.2903 1.2062,-0.7465 z" fill="url(#paint0_linear_1682_25)" id="path5" style="fill:#000000" />
  </g>
  <defs id="defs11">
    <linearGradient id="paint0_linear_1682_25" x1="53.692101" y1="61.3172" x2="25.1633" y2="3.3726201" gradientUnits="userSpaceOnUse">
      <stop stop-color="#E3332A" id="stop5" />
      <stop offset="0.28" stop-color="#E7821C" id="stop6" />
      <stop offset="0.52" stop-color="#6A2681" id="stop7" />
      <stop offset="0.6" stop-color="#5B4F9A" id="stop8" />
      <stop offset="0.74" stop-color="#419ECA" id="stop9" />
      <stop offset="0.86" stop-color="#54A363" id="stop10" />
      <stop offset="1" stop-color="#FDEA03" id="stop11" />
    </linearGradient>
    <clipPath id="clip0_1682_25">
      <rect width="71.199997" height="64" fill="#ffffff" id="rect11" x="0" y="0" />
    </clipPath>
  </defs>
</svg>
