<?xml version="1.0" encoding="UTF-8"?><svg id="a" xmlns="http://www.w3.org/2000/svg" viewBox="0 0 151.88 140.84"><defs><style>.k,.l{stroke:#000;stroke-miterlimit:10;}.l{fill-rule:evenodd;}</style></defs><g id="b"><path id="c" class="k" d="m102.87,77.22c.62,0,1.26,0,1.87.05-.22.62-.5,1.22-.85,1.78-.27.47-.49.96-.67,1.46h-.29c-.08-1.1-.1-2.2-.06-3.3Z"/><path id="d" class="k" d="m94.48,87.1c1.46-3.23,2.8-6.46,4.31-9.58v10.77c-1.18,2.47-2.7,4.77-4.06,7.14-1.83,3.08-3.71,6.13-5.63,9.15v-5.97c1.81-3.81,3.65-7.65,5.38-11.51Z"/><path id="e" class="k" d="m84.46,107.43c.95-1.85,1.91-3.68,2.98-5.46-.48,2.06-1.51,3.95-2.98,5.46Z"/></g><g id="f"><path id="g" class="l" d="m65.66,140.5c65.64-102.04,67.05-177.95-11.72-77.42m11.72,77.42c86.33-95.36,73.27-215.63-11.72-77.42m11.72,77.42c65.64-102.04,67.05-177.95-11.72-77.42m11.72,77.42c86.33-95.36,73.27-215.63-11.72-77.42m11.72,77.42c65.64-102.04,67.05-177.95-11.72-77.42m11.72,77.42c86.33-95.36,73.27-215.63-11.72-77.42"/></g><path id="h" class="k" d="m57.02,67.56c0,2.03-1.65,3.68-3.68,3.68s-3.68-1.65-3.68-3.68c0-2.03,1.65-3.68,3.68-3.68h0c2.03,0,3.69,1.64,3.69,3.67,0,0,0,0,0,.01h0"/><g id="i"><path id="j" class="k" d="m21.7,63.34l-3.13,4.99c-.94-1.28-2.07-2.4-3.36-3.32-2.18-1.43-4.87-1.88-7.4-1.24-2.07.53-3.85,1.83-4.98,3.64-1.04,1.76-1.55,3.79-1.47,5.83.07,2.62,1.37,5.05,3.5,6.57,4.27,3.04,9.48,4.67,13.22,8.46,2.24,2.3,2.78,5.76,1.34,8.63-.93,1.77-2.6,3.05-4.55,3.5-3.18.67-6.48-.41-8.66-2.82-3.01-3.23-4.22-7.71-4.86-12.02h-.85v15.8h.78l2.6-5.05c1.06,1.53,2.41,2.85,3.97,3.88,4.46,2.85,10.38,1.57,13.26-2.86.08-.14.18-.28.24-.42,1.35-2.41,1.82-5.22,1.32-7.93-.53-2.52-1.97-4.76-4.05-6.29-3.98-3.32-9.11-4.89-13.01-8.32-1.07-.85-1.85-2-2.24-3.3-.19-1.68.43-3.34,1.67-4.49,1.9-1.71,4.52-2.37,7-1.76,2.16.55,4.03,1.88,5.26,3.73,1.82,2.8,3.05,5.94,3.62,9.23l.77.1v-14.55Zm116.47,11.56c-.55.01-1.09.07-1.62.19-2.15.5-4.09,1.66-5.55,3.31-3.02,3.49-4.86,7.85-5.27,12.45-.56,5.21-.08,10.78,2.6,15.4,1.61,3.14,4.44,5.48,7.82,6.49,2.76.67,5.68.11,7.99-1.55,3.32-2.52,5.62-6.14,6.49-10.22,1.02-4.39,1.02-8.96,0-13.36-.86-3.97-2.93-7.59-5.92-10.35-1.81-1.56-4.14-2.4-6.53-2.36Zm.4.98c1.78.11,3.45.9,4.67,2.2,2.02,1.99,2.65,4.93,2.85,7.68.33,4.67.29,9.33.16,14.08.07,2.55-.39,5.09-1.34,7.45-.93,2.06-2.66,3.65-4.78,4.41-2.13.61-4.43.07-6.07-1.44-2.03-1.94-3.24-4.58-3.4-7.38-.39-4.58-.27-9.18-.21-13.77.14-2.78.14-5.65,1.17-8.26.87-2.27,2.73-4.02,5.05-4.75.62-.19,1.26-.27,1.9-.23h0Zm-101.5.1c-2.09,0-4.1.82-5.61,2.26-4.94,5.08-5.79,12.88-2.05,18.9,1.18,2.01,3.05,3.52,5.26,4.25,2.55.78,5.33.12,7.26-1.73,2.12-2.09,2.86-5.12,3.13-7.98h-.91c-.11,1.68-.51,3.33-1.17,4.88-.77,1.83-2.29,3.25-4.18,3.9-1.85.66-3.92.24-5.37-1.08-1.03-1.39-1.62-3.06-1.69-4.78-.34-3.49-.34-7.01,0-10.5.06-1.86.55-3.68,1.44-5.32,1.34-1.99,4.18-2.33,6.29-1.5,1.55.78,2.67,2.21,3.04,3.91-.85-.79-2.1-.96-3.13-.41-1.18.82-1.47,2.43-.65,3.6.21.3.47.55.78.74,1.27.64,2.81.17,3.5-1.07.06-.12.11-.24.15-.36.9-3.17-.88-6.48-4.02-7.48-.69-.19-1.41-.28-2.12-.27l.06.06Zm51.8.09h-26.03v1.05h5.33v34.82h-5.33v1.05h26.61v-14.73l-.67.12c-.25,1.87-.64,3.72-1.17,5.53-.46,2.23-1.54,4.28-3.11,5.93-1.5,1.4-3.49,2.16-5.54,2.11h-6.38v-18.33c2.02,0,4.36-.21,5.98,1.25s1.89,4.11,2.17,6.29l.54.22v-16.88h-.52c-.19,2.62-.75,5.6-3.01,7.23-1.48,1.17-3.42.94-5.16.93v-15.52h6.87c2.36-.05,4.6,1.04,6.02,2.93,1.71,2.53,2.19,5.63,2.75,8.57l.62.15.02-12.73Zm6.05,0v1.05h5.03v34.81h-5.04v1.06h26.38v-16.61h-.62c-.22,1.94-.58,3.87-1.08,5.76-.89,3.36-2.51,6.88-5.68,8.63-2.91,1.63-9.53,1.17-9.53,1.17v-34.82h5.05v-1.08l-14.5.03Zm-47.48,1.17v.91h3.58v22.68h-3.6v.91h11.19v-.91h-3.65v-23.6h-7.51Z"/></g></svg>