<svg id="svg752" xmlns="http://www.w3.org/2000/svg" viewBox="0 0 200 80"><path id="path714" d="M200,51.76a10.93,10.93,0,0,1-4,.93c-2.28,0-3.92-1.28-3.92-4.38V37h-3.24V34.72H192V30h3v4.75h4.6V37H195V47.46c0,2,.5,2.75,1.86,2.75a8.42,8.42,0,0,0,3-.81Zm-12.31-.67a10.21,10.21,0,0,1-5.81,1.63c-4.46,0-7.78-3.25-7.78-9.37,0-6.39,4.33-9.1,7.86-9.1,3.21,0,5.46.82,5.73,3.15v1.28H185c0-1.49-.82-1.86-2.83-1.86a4.19,4.19,0,0,0-2,.31c-.31.19-2.75,1.4-2.75,6.12s2.82,6.92,5.34,6.92a8.75,8.75,0,0,0,4.76-1.79Zm-28-8v.6c0,4.18,2.05,6.46,5.73,6.46A9.51,9.51,0,0,0,171,48.28l.24,2.71a11.85,11.85,0,0,1-6.68,1.59c-4.47,0-7.89-3.41-7.89-9.17,0-6,3.29-9.29,7.81-9.29,5.38,0,7,2.78,7,8.93Zm9.07-2.38c-.12-3.41-1.63-4-4.47-4a5.63,5.63,0,0,0-2.32.54,5.53,5.53,0,0,0-2,3.48Zm-13.48-3.23-2.44.7c0-.27-.12-1.49-1.23-1.49-1.7,0-3.1,2.83-3.73,4.33V52.13h-3V39.45a27.71,27.71,0,0,0-.15-3.41l-.17-1.32h2.76l.5,2.78a4.82,4.82,0,0,1,4-3.22,3,3,0,0,1,3.36,2.54v0a1.81,1.81,0,0,0,.07.46ZM138,31.59a2.15,2.15,0,0,1-1.93-2.17,2,2,0,0,1,3.91-.35,2,2,0,0,1,0,.35A2.24,2.24,0,0,1,138,31.59Zm-1.47,3.13h3V52.19h-3ZM120.65,52.19h-8V28.76H121c8.24,0,11.1,6.27,11.1,11.61,0,5.15-3,11.82-11.46,11.82Zm-.15-20.84h-4.81V49.71h4.47c6,0,8.56-3.44,8.56-9.29-.06-4-1.92-9.13-8.22-9.13ZM96.14,43.05v.6c0,4.18,2.06,6.46,5.74,6.46a9.46,9.46,0,0,0,5.49-1.82l.24,2.71A11.75,11.75,0,0,1,101,52.58c-4.46,0-7.89-3.41-7.89-9.17,0-6,3.29-9.29,7.82-9.29,5.37,0,7,2.78,7,8.93Zm9.07-2.38c-.12-3.41-1.62-4-4.47-4a5.67,5.67,0,0,0-2.32.54,5.51,5.51,0,0,0-1.9,3.48ZM91.31,51.09a10.17,10.17,0,0,1-5.81,1.49c-4.47,0-7.79-3.24-7.79-9.36,0-6.39,4.34-9.1,7.86-9.1,3.22,0,5.47.82,5.74,3.14v1.28H88.57c0-1.49-.82-1.86-2.83-1.86a4.3,4.3,0,0,0-2,.31c-.31.2-2.76,1.4-2.76,6.12S83.8,50,86.32,50a8.86,8.86,0,0,0,4.76-1.79Zm-17.57,1.1h-3s.15-4.06.12-7.59V40.88c-.07-2.66-.31-4-3-4a7.28,7.28,0,0,0-2.44.46,18.11,18.11,0,0,0-2.9,3.1V52.18h-3V39.53A29,29,0,0,0,59.43,36l-.21-1.32H62l.46,2.59a7.05,7.05,0,0,1,5.69-3.06c3.14,0,5.27,1,5.56,4.61.15,1.74.12,3.48.12,5.22,0,2.84-.07,8.11-.07,8.11Zm-30-9.14v.6c0,4.18,2,6.46,5.73,6.46A9.46,9.46,0,0,0,55,48.29L55.2,51a11.72,11.72,0,0,1-6.67,1.58c-4.46,0-7.89-3.41-7.89-9.17,0-6,3.29-9.29,7.82-9.29,5.37,0,7,2.78,7,8.93Zm9-2.38c-.12-3.41-1.62-4-4.46-4a5.66,5.66,0,0,0-2.43.6,5.51,5.51,0,0,0-1.85,3.42ZM35.1,31.59a2.16,2.16,0,0,1-1.93-2.17,2,2,0,0,1,3.92-.35v.35A2.25,2.25,0,0,1,35.1,31.59Zm-1.47,3.13h3V52.19h-3ZM30.5,51.09a10.12,10.12,0,0,1-5.8,1.49c-4.47,0-7.79-3.24-7.79-9.36,0-6.39,4.33-9.1,7.86-9.1,3.22,0,5.47.82,5.73,3.14v1.28H27.75c0-1.49-.82-1.86-2.83-1.86a4.34,4.34,0,0,0-2,.31c-.31.2-2.75,1.4-2.75,6.12S23,50,25.5,50a8.89,8.89,0,0,0,4.77-1.79ZM6,52.58a14.58,14.58,0,0,1-6-1.23l.43-3.1A10.64,10.64,0,0,0,6,49.87c3.17,0,4.47-1.81,4.47-3.56C10.5,41.94.19,41.31.19,34.72c0-3.53,2.33-6.39,7.75-6.39a13.56,13.56,0,0,1,5.61,1.12l-.15,3.09a11.41,11.41,0,0,0-5.46-1.49c-3.34,0-4.34,1.82-4.34,3.56,0,4.47,10.31,5.38,10.31,11.61C13.89,49.75,11,52.58,6,52.58Z"/></svg>