<svg id="Layer_1" data-name="Layer 1" xmlns="http://www.w3.org/2000/svg" viewBox="0 0 300 120"><defs><style>.cls-1,.cls-2{stroke:#000;stroke-miterlimit:10;}.cls-2{fill-rule:evenodd;}</style></defs><g id="_000000ff" data-name=" 000000ff"><path id="path6" class="cls-1" d="M175,66.24c.58,0,1.17,0,1.74.05a8.34,8.34,0,0,1-.79,1.65,7.58,7.58,0,0,0-.62,1.36h-.27A28.41,28.41,0,0,1,175,66.24Z"/><path id="path8" class="cls-1" d="M167.21,75.41c1.36-3,2.6-6,4-8.9v10c-1.1,2.29-2.51,4.43-3.77,6.63q-2.55,4.29-5.23,8.5V86.1C163.89,82.56,165.6,79,167.21,75.41Z"/><path id="path10" class="cls-1" d="M157.9,94.29c.88-1.72,1.77-3.42,2.77-5.07A10.74,10.74,0,0,1,157.9,94.29Z"/></g><g id="Layer_1-2" data-name="Layer 1-2"><path id="path7" class="cls-2" d="M141.18,120c56.26-87.46,57.47-152.53-10.05-66.36M141.18,120c74-81.74,62.8-184.83-10.05-66.36M141.18,120c56.26-87.46,57.47-152.53-10.05-66.36M141.18,120c74-81.74,62.8-184.83-10.05-66.36M141.18,120c56.26-87.46,57.47-152.53-10.05-66.36M141.18,120c74-81.74,62.8-184.83-10.05-66.36"/></g><path id="path912" class="cls-1" d="M132.42,57.27A3.42,3.42,0,1,1,129,53.85a3.42,3.42,0,0,1,3.43,3.42h0"/><g id="_da202cff-2" data-name=" da202cff-2"><path id="path17-9" class="cls-1" d="M103.5,53.86l-2.68,4.28a13,13,0,0,0-2.88-2.85,8,8,0,0,0-6.34-1.06,7.11,7.11,0,0,0-4.27,3.12,9.14,9.14,0,0,0-1.26,5,7.14,7.14,0,0,0,3,5.63c3.66,2.61,8.13,4,11.33,7.25a6.46,6.46,0,0,1,1.15,7.4,5.9,5.9,0,0,1-3.9,3,7.82,7.82,0,0,1-7.42-2.42c-2.58-2.77-3.62-6.61-4.17-10.3h-.73V86.45H86l2.23-4.33a12.67,12.67,0,0,0,3.4,3.33A8.26,8.26,0,0,0,103,83c.07-.12.15-.24.21-.36a10.13,10.13,0,0,0,1.13-6.8,9,9,0,0,0-3.47-5.39c-3.41-2.85-7.81-4.19-11.15-7.13a5.73,5.73,0,0,1-1.92-2.83,4.56,4.56,0,0,1,1.43-3.85,6.61,6.61,0,0,1,6-1.51,7.66,7.66,0,0,1,4.51,3.2,21.15,21.15,0,0,1,3.1,7.91l.66.09Zm99.83,9.91a7.32,7.32,0,0,0-1.39.16,9.1,9.1,0,0,0-4.76,2.84,18.88,18.88,0,0,0-4.52,10.67c-.48,4.47-.07,9.24,2.23,13.2a11.1,11.1,0,0,0,6.7,5.56,8.36,8.36,0,0,0,6.85-1.33A14.86,14.86,0,0,0,214,86.11a25.44,25.44,0,0,0,0-11.45,17,17,0,0,0-5.07-8.87A8.35,8.35,0,0,0,203.33,63.77Zm.34.84a6,6,0,0,1,4,1.89c1.73,1.71,2.27,4.23,2.44,6.58.28,4,.25,8,.14,12.07a15.88,15.88,0,0,1-1.15,6.39A7.13,7.13,0,0,1,205,95.32a5.45,5.45,0,0,1-5.2-1.23,9.46,9.46,0,0,1-2.91-6.33c-.33-3.93-.23-7.87-.18-11.8.12-2.38.12-4.84,1-7.08a6.81,6.81,0,0,1,4.33-4.07,4.74,4.74,0,0,1,1.63-.2Zm-87,.09a7,7,0,0,0-4.81,1.94,13.23,13.23,0,0,0-1.76,16.2,8.18,8.18,0,0,0,4.51,3.64A6.31,6.31,0,0,0,120.83,85c1.82-1.79,2.45-4.39,2.68-6.84h-.78a12.85,12.85,0,0,1-1,4.18,6,6,0,0,1-3.58,3.34,4.56,4.56,0,0,1-4.6-.93,7.41,7.41,0,0,1-1.45-4.1,46.14,46.14,0,0,1,0-9,10.35,10.35,0,0,1,1.23-4.56c1.15-1.71,3.58-2,5.39-1.29a4.93,4.93,0,0,1,2.61,3.35,2.32,2.32,0,0,0-2.68-.35,2.22,2.22,0,0,0,.11,3.72,2.26,2.26,0,0,0,3-.92,1.69,1.69,0,0,0,.13-.31,5.23,5.23,0,0,0-3.45-6.41,6.54,6.54,0,0,0-1.82-.23Zm44.4.08H138.76v.9h4.57V95.53h-4.57v.9h22.81V83.8l-.57.1a32,32,0,0,1-1,4.74,10.43,10.43,0,0,1-2.67,5.08,6.73,6.73,0,0,1-4.75,1.81h-5.47V79.82c1.73,0,3.74-.18,5.13,1.07s1.62,3.52,1.86,5.39l.46.19V72h-.45c-.16,2.25-.64,4.8-2.58,6.2-1.27,1-2.93.81-4.42.8V65.7H153a6.27,6.27,0,0,1,5.16,2.51c1.47,2.17,1.88,4.83,2.36,7.35l.53.13Zm5.19,0v.9h4.31V95.52h-4.32v.91h22.61V82.19h-.53a34.41,34.41,0,0,1-.93,4.94c-.76,2.88-2.15,5.9-4.87,7.4-2.49,1.4-8.17,1-8.17,1V65.68h4.33v-.93Zm-40.7,1v.78h3.07V86h-3.09v.78h9.59V86H132V65.77Z"/></g></svg>