<?xml version="1.0" encoding="UTF-8"?><svg id="a" xmlns="http://www.w3.org/2000/svg" viewBox="0 0 300 80"><defs><style>.c{stroke-width:0px;}</style></defs><path id="b" class="c" d="m300,55.4c-1.89.84-3.93,1.31-6,1.4-3.42,0-5.88-1.92-5.88-6.57v-16.96h-4.86v-3.42h4.74v-7.08h4.5v7.12h6.9v3.38h-6.9v15.69c0,3,.75,4.12,2.79,4.12,1.56-.12,3.09-.53,4.5-1.22l.21,3.54Zm-18.46-1c-2.59,1.67-5.63,2.53-8.71,2.45-6.69,0-11.67-4.88-11.67-14.05s6.5-13.65,11.79-13.65c4.82,0,8.19,1.23,8.59,4.73v1.92h-4.04c0-2.24-1.23-2.79-4.25-2.79-1.02-.09-2.05.07-3,.47-.46.28-4.12,2.1-4.12,9.18s4.23,10.38,8.01,10.38c2.59-.17,5.08-1.1,7.14-2.69l.26,4.07Zm-42-12v.9c0,6.27,3.08,9.69,8.59,9.69,3.02-.03,5.95-1.01,8.37-2.8l.36,4.06c-3.03,1.77-6.52,2.6-10.02,2.39-6.71,0-11.83-5.11-11.83-13.76s4.93-13.94,11.71-13.94c8.07,0,10.5,4.17,10.5,13.4l-17.69.06Zm13.61-3.57c-.18-5.11-2.45-6-6.71-6-1.2.02-2.39.29-3.48.81-1.62,1.3-2.69,3.17-3,5.22l13.19-.03Zm-20.22-4.84l-3.66,1.05c0-.41-.18-2.24-1.84-2.24-2.55,0-4.65,4.24-5.59,6.49v16.67h-4.5v-19.02c.03-1.71-.04-3.42-.22-5.11l-.25-1.98h4.14l.75,4.17c.9-2.63,3.24-4.51,6-4.83,2.44-.32,4.68,1.38,5.04,3.81h0c0,.23.04.47.11.69l.04.3Zm-25.92-8.83c-1.66-.17-2.92-1.58-2.89-3.26.17-1.65,1.65-2.84,3.29-2.67,1.21.13,2.23.98,2.57,2.15.02.17.02.35,0,.53-.04,1.67-1.31,3.06-2.97,3.26Zm-2.21,4.7h4.5v26.2h-4.5v-26.2Zm-23.82,26.2h-12V20.9h12.52c12.36,0,16.65,9.4,16.65,17.41s-4.5,17.73-17.19,17.73h.01Zm-.23-31.26h-7.21v27.54h6.71c9,0,12.84-5.16,12.84-13.94-.09-6-2.88-13.7-12.33-13.7v.09Zm-36.54,17.55v.9c0,6.27,3.09,9.69,8.61,9.69,2.96-.03,5.84-.98,8.23-2.73l.36,4.06c-3,1.75-6.45,2.57-9.91,2.37-6.69,0-11.83-5.11-11.83-13.75s4.94-13.94,11.73-13.94c8.06,0,10.5,4.17,10.5,13.4h-17.69Zm13.6-3.57c-.18-5.11-2.43-6-6.71-6-1.2.02-2.39.3-3.48.81-1.56,1.33-2.58,3.19-2.85,5.22l13.04-.03Zm-20.85,15.63c-2.61,1.6-5.65,2.38-8.71,2.24-6.71,0-11.69-4.86-11.69-14.04s6.51-13.65,11.79-13.65c4.83,0,8.21,1.23,8.61,4.71v1.92h-4.11c0-2.24-1.23-2.79-4.25-2.79-1.02-.09-2.05.07-3,.47-.46.3-4.14,2.1-4.14,9.18s4.23,10.33,8.01,10.33c2.59-.18,5.07-1.11,7.14-2.69l.34,4.32Zm-26.35,1.65h-4.5s.23-6.09.18-11.39v-5.58c-.1-3.99-.46-6-4.5-6-1.25.02-2.49.25-3.66.69-1.63,1.37-3.09,2.93-4.35,4.65v17.61h-4.5v-18.98c.06-1.77.02-3.53-.13-5.29l-.31-1.98h4.17l.69,3.89c1.94-2.82,5.12-4.53,8.54-4.59,4.71,0,7.9,1.5,8.34,6.92.23,2.61.18,5.22.18,7.83,0,4.26-.1,12.17-.1,12.17l-.03.06Zm-45-13.71v.9c0,6.27,3,9.69,8.59,9.69,2.98-.02,5.89-.97,8.3-2.73l.3,4.06c-3.02,1.77-6.51,2.59-10.01,2.37-6.69,0-11.83-5.11-11.83-13.75s4.94-13.94,11.73-13.94c8.05,0,10.5,4.17,10.5,13.4h-17.58Zm13.5-3.57c-.18-5.11-2.43-6-6.69-6-1.27.02-2.51.33-3.65.9-1.52,1.32-2.5,3.14-2.77,5.13l13.11-.03Zm-26.46-13.62c-1.66-.18-2.91-1.59-2.9-3.26.15-1.65,1.61-2.87,3.26-2.72,1.24.11,2.29.99,2.62,2.19v.53c-.05,1.68-1.32,3.06-2.98,3.26Zm-2.21,4.7h4.5v26.2h-4.5v-26.2Zm-4.69,24.55c-2.61,1.61-5.64,2.38-8.7,2.24-6.7,0-11.69-4.86-11.69-14.04s6.49-13.65,11.79-13.65c4.83,0,8.2,1.23,8.59,4.71v1.92h-4.12c0-2.24-1.23-2.79-4.24-2.79-1.02-.08-2.05.08-3,.47-.46.3-4.12,2.1-4.12,9.18s4.24,10.33,7.99,10.33c2.6-.18,5.08-1.11,7.16-2.69l.34,4.32Zm-36.75,2.24c-3.1.03-6.16-.6-9-1.84l.65-4.65c2.51,1.57,5.4,2.41,8.35,2.43,4.76,0,6.7-2.72,6.7-5.34.05-6.55-15.42-7.5-15.42-17.38,0-5.3,3.49-9.58,11.63-9.58,2.89-.04,5.76.53,8.42,1.68l-.22,4.63c-2.5-1.42-5.32-2.19-8.19-2.23-5.01,0-6.51,2.73-6.51,5.34,0,6.71,15.47,8.07,15.47,17.42-.03,5.29-4.37,9.54-11.87,9.54Z"/></svg>