<svg width="32" height="32" xmlns="http://www.w3.org/2000/svg">
  <path d="M8.916 15.099c.344-.178.54-.403.575-.658.053-.237-.154-.214-.208-.166-.19.154-.438.391-.675.551a2.484 2.484 0 0 0-.332.042c-.03-.012-.06-.06-.048-.071.22-.137.457-.273.61-.457.102-.118.06-.22-.136-.243-.219-.035-.474.06-.67.231-.337.285-.497.92-.533 1.322-.065.071-.089.071-.16.101a1.678 1.678 0 0 1 .178-1.304c.03-.083.006-.22-.119-.255-.065-.03-.1-.012-.13.06-.166.48-.457.68-.86.983-.035.03-.403.231-.492.285-.32-.101-.681-.694-.984-1.144a.279.279 0 0 0-.267-.119c-.658.077-1.15.03-1.505-.492-.16-.213-.232-.255-.427-.065-.225.231-.445.409-.664.593-.119.077-.202.053-.25-.095a4.173 4.173 0 0 1-.218-1.393c0-.196.023-.498.03-.688a1.701 1.701 0 0 0-.422-.284C.652 11.572 0 10.96 0 10.765c0-.041.036-.148.19-.237.806-.355 1.44-.059 1.677-.095.208-.017.273-.165.237-.456a1.6 1.6 0 0 1 .522-1.435c.273-.296.255-.616.19-.978-.036-.166-.071-.207-.237-.19-.445.095-.421.107-.504.493a1.9 1.9 0 0 1-.279.711c-.178.279-.415.516-.622.765-.071.1-.154.1-.261.03a1.446 1.446 0 0 1-.557-1.827c.07-.19.178-.397.29-.497l.06.017c0 .036 0 .077-.018.113l-.13.409c-.167.474-.137.93.177 1.34.107.13.202.172.26.112.202-.207.416-.397.594-.622a.98.98 0 0 0 .213-.866 5.495 5.495 0 0 0-.06-.355c-.029-.178-.106-.16-.189-.06-.195.202-.29.362-.385.73a.285.285 0 0 1-.09.136.385.385 0 0 1-.047-.196c.06-.332.13-.622.344-.836.137-.154.101-.237-.03-.272-.474-.13-.883-.267-1.244-.712a.397.397 0 0 1-.095-.237c0-.095.047-.166.154-.243.415-.284.842-.587 1.25-.676l.339-.053a14.383 14.383 0 0 1-.504-1.933c0-.136.095-.497.148-.604a.744.744 0 0 1 .368.047c.19.071.367.19.545.297.172.1.22.1.332-.054.19-.278.415-.527.705-.675.101-.048.166-.083.232-.083.095 0 .166.059.26.201.16.255.297.551.44.83.165.279.343.296.592.113.285-.19.54-.374.8-.587.237-.19.309-.19.575 0 .237.16.492.462.623.729.023.047.575-.25.593-.38.023-.237.088-.414.177-.604.119-.237.279-.302.433-.302.137 0 .397.154.593.278l.415.237c.22.119.231.119.362-.077.148-.237.278-.278.586-.278.605 0 1.156.154 1.577.652.077.1.149.118.243.023.172-.177.332-.243.652-.243h.564c.124 0 .207.006.326-.154.154-.225.326-.438.575-.438.397 0 .919.557 1.185 1.037l-.142.071a2.822 2.822 0 0 0-1.037-.652c-.237-.1-.344 0-.315.249.036.296.113.593.178.883.09.273.326.51.593.623l.012.1c-.042-.011-.095-.03-.166-.035a1.21 1.21 0 0 0-.516.018c-.332.083-.634.225-.93.355-.149.072-.149.107-.024.232.166.154.32.332.51.468.533.403 1.067.32 1.654.095l.272-.095c.25-.048.516.06.718.237l.592.54c.19.177.238.343.119.569-.196.379-.415.77-.628 1.138a.368.368 0 0 1-.137.142c-.07-.06-.136-.196-.065-.314.26-.332.427-.795.486-1.109.053-.308-.113-.456-.403-.38l-.249.096c-.107.041-.142 0-.166-.107-.041-.095-.089-.154-.119-.255-.07-.166-.166-.22-.308-.112-.249.154-.42.308-.569.55a2.093 2.093 0 0 0-.237 1.287c.006.06.053.095.083.13a.237.237 0 0 0 .113-.118c.077-.19.124-.38.16-.593.017-.118.035-.32.07-.427.03-.059.12-.035.167-.017.124.047.178.112.195.201-.249.314-.403.783-.569 1.198-.03.059-.136.13-.201.13-.077-.006-.178-.071-.202-.136-.1-.267-.278-.528-.35-.795-.177-.895-.237-.948-.272-1.001a5.525 5.525 0 0 0-1.34-1.524c-.041-.041-.06-.095-.095-.13.048-.024.09-.066.137-.083l.521-.202a.78.78 0 0 0 .474-.42c.06-.12.149-.238.214-.35.095-.167.083-.256-.042-.398a.854.854 0 0 0-.871-.267c-.338.083-.545.32-.652.64a1.07 1.07 0 0 0-.054.362c0 .178.06.22.208.125.243-.202.522-.368.788-.546a1.402 1.402 0 0 1-.545.664c-.166.107-.326.19-.492.285-.142.1-.19.06-.237-.107-.036-.178-.018-.355-.018-.533a1.168 1.168 0 0 0-.788-1.186l-.44-.178a.415.415 0 0 0-.165.38c.036.474.107.83.19 1.233.077.166.26.237.444.266.113-.059.202-.213.054-.45l-.22-.427c-.018-.06-.047-.107-.059-.166-.012-.024-.024-.06 0-.089.024.012.053.012.107.065.272.297.498.635.64 1.056.06.166 0 .23-.154.249-.368.03-.735.059-1.091.13-.575.119-.77.332-.978.717-.089.166-.136.273-.142.368.207.018.438.006.77-.054a2.193 2.193 0 0 0 .795-.26c.154-.178.272-.362.504-.528.07-.047.225-.065.284-.03a3.035 3.035 0 0 1 1.518 1.482c.023.072.089.137.118.19.065.077.042.107-.053.1-.13-.035-.279-.07-.397-.118-.048-.023-.09-.1-.113-.154l-.118-.344c-.066-.136-.101-.136-.238-.089l-.266.113c-.101.036-.149.053-.172-.06-.03-.165-.077-.325-.119-.473-.06-.184-.13-.226-.308-.137a1.66 1.66 0 0 0-.741.759c-.154.32-.214.534-.071 1.387.035.166.166.368.32.415l1.434.445c.072 0 .119.083.03.142-.178.119-.373.225-.557.338-.09.06-.142.03-.184-.06a1.126 1.126 0 0 0-.593-.533c-.095-.047-.142-.03-.178.071-.07.154-.142.38-.201.54-.036.083-.071.118-.166.059-.41-.344-.836-.362-1.34-.296-.249.035-.361.1-.302.35.136.687.74 1.007 1.25 1.226a.35.35 0 0 0 .178-.136c.078-.113.06-.22-.059-.32-.195-.172-.616-.368-.824-.557-.035-.113.202-.208.332-.125.374.166.658.475.96.77.155.15.226.131.273-.082.06-.166.113-.415.16-.61.03-.096.09-.06.113 0 .035.142.083.325.083.491 0 .178-.06.332-.113.498-.03.166-.16.255-.296.22-.634-.06-1.115.237-1.506.249-.089 0-.279-.06-.367-.101-.143-.107.059-.119.106-.119.166 0 .415 0 .546-.07a.56.56 0 0 0-.172-.16c-.356-.291-.747.017-1.05.171-.177.095-.183.119-.112.296.112.273.308.38.58.38.155 0 .303.024.463.018a.551.551 0 0 0 .22-.06c.207-.07.385-.178.575-.255.237-.035.225.083.118.196l-.468.29c-.048.024-.101.042-.137.078-.065.047-.148.13-.136.166.03.059.1.124.178.154.22.065.439.1.652.148.338.065.48-.03.575-.368.047-.183.113-.355.202-.533.053-.107.118-.119.183-.012.238.433.475.854.724 1.269.047.094 0 .142-.09.13a36.875 36.875 0 0 1-1.6-.202c-.178-.023-.356-.142-.533-.219a1.897 1.897 0 0 0-.872-.231c-.267 0-.427.166-.332.427.119.367.261.747.415 1.12.1.25.35.344.617.368.13.017.083-.071.053-.13l-.445-.955c-.059-.16-.011-.184.077-.053.244.367.498.71.718 1.084.136.232-.03.297-.196.297-.557-.054-1.067-.243-1.6-.45-.06-.019-.13-.137-.119-.185.1-.094.225 0 .332 0 .13.024.178-.035.13-.13a.51.51 0 0 0-.266-.249 3.296 3.296 0 0 0-.795-.29c-.166-.03-.278.041-.243.19.042.189.13.36.231.562.03.06.03.13.012.184-.1 0-.22.03-.634-.148-.415-.172-.415-.285-.415-.794 0-.107 0-.326.018-.421.041-.143.059-.166.178-.148.432.088.871.207 1.292.415.13.053.249.16.385.213.107.036.16 0 .148-.113a.385.385 0 0 0-.243-.332c-.456-.19-.907-.409-1.363-.592-.107-.042-.142-.09-.083-.208.178-.296.273-.646.196-1.02 0-.03.035-.065.07-.1a.279.279 0 0 1 .202.255c.036.32.25.539.457.758.427.439.427.439 1.02.297.076-.012.136-.065.2-.113-.058-.041-.112-.118-.189-.154-.106-.06-.231-.089-.355-.136-.392-.149-.51-.433-.38-.848a14.346 14.346 0 0 0 .374-1.156c.041-.178.059-.374.065-.57 0-.106.083-.106.148-.118l.866-.059c.219-.012.474-.273.557-.42l.29-.475a.599.599 0 0 0-.593-.083c.066-.214.155-.415.155-.623 0-.136-.03-.296-.09-.432-.059-.13-.148-.155-.26-.072-.208.178-.386.386-.45.676-.066.285-.185.807-.125.901.13-.1.308-.23.42-.266.06-.012.155 0 .202.035a3.19 3.19 0 0 1-.64.445c-.16.07-.22-.024-.196-.178.19-.717.071-.77.012-1.126a4.138 4.138 0 0 0-.533-1.24c-.077-.094-.202-.059-.362.137-.267.32-.332.593-.474 1.138l-.03.113-.19.166-.083-.095c.072-.255.149-.403.149-.605a.694.694 0 0 0-.273-.563c-.207.13-.391.296-.445.385a.545.545 0 0 0 .012.629c.214.367.178.74.113 1.174l-.06-.018a4.897 4.897 0 0 0-.148-.836c-.047-.178-.16-.326-.255-.474-.094-.143-.177-.439-.1-.564.112-.19.456-.296.593-.468.136-.207.07-.296.243-.486.106-.124.332-.385.498-.296.497.249 1.025.302 1.582.23.237-.035.29-.029.356-.266.06-.196.083-.06.279-.13.338-.113.515-.415.515-.771 0-.202.012-.403-.011-.61-.018-.178-.083-.344-.137-.504-.047-.107-.118-.083-.166-.006-.136.177-.373.533-.498.735l-.195.355c-.03.095-.077.119-.16.03a1.796 1.796 0 0 0-.29-.255c-.179-.118-.197-.48-.125-.711.077.041.13.13.177.249.072.154.101.332.226.385.16.083.32-.249.296-.474a.356.356 0 0 0-.06-.166c-.165-.308-.562-.563-.811-.563-.285 0-.475.355-.356.687.036.09.071.154.119.237-.682.356-.866.587-1.139.901-.03.042-.059.149-.03.202.125.243.078.326-.183.474a2.53 2.53 0 0 1-.397.16c-.018.012-.048-.011-.083-.017a.166.166 0 0 1 .035-.066c.166-.373.344-.723.498-1.102.166-.403-.195-.77-.521-.901-.214-.083-.386-.036-.534.16-.356.427-.433 1.126.071 1.79.077.113.06.154-.07.166-.291.024-.576.06-.872.071a1.156 1.156 0 0 0-.89.474c-.059.095-.148.119-.243.054-.225-.143-.415-.107-.652.03a2.905 2.905 0 0 1-1.09.367c-.042 0-.09-.036-.12-.071a.245.245 0 0 1 .137-.107c.237-.06.427-.118.64-.178.036-.035.054-.13.078-.172-.042-.059-.119-.124-.184-.13a2.91 2.91 0 0 0-.605 0c-.522.047-.907.296-1.239.599-.154.154-.166.314 0 .444.386.273.8.552 1.322.415.368-.118.593-.391.83-.652.196-.213.439-.456.67-.195.338.385.403.788.954.717.214-.024.297-.095.356-.297l.042-.237c.017-.148-.06-.225-.214-.166-.1.036-.184.09-.284.113-.06.012-.119-.006-.178-.024 0-.06.012-.13.047-.166.101-.065.225-.118.332-.172.415-.106.806-.19 1.215-.272a.356.356 0 0 1 .125 0l-.036.118c-.148.338-.35.445-.616.51a.55.55 0 0 0-.148.26 1.541 1.541 0 0 0 .296 1.524c.13.149.296.273.468.374.285.166.362.444.469.735.065.184.136.367.219.545-.231.166-.42.356-.557.593-.06.06-.101.036-.13-.03l-.16-.39c-.143-.345-.386-.57-.771-.6-.143-.011-.279-.035-.415-.053-.154-.012-.261.06-.315.237-.219.664-.011 1.24.623 1.589-.51.13-.925.332-1.186.688.024.1.178.23.38.314.498.201 1.007.178 1.476.024.273-.101.284-.036.332.166l.142.616c.03.148-.053.231-.19.178-.758-.22-1.66-.581-2.312-1.02a3.42 3.42 0 0 0-.847-.255c-.101.06-.184.13-.273.119a4.837 4.837 0 0 1-.818-.296c-.13-.072-.136-.113.03-.137.254 0 .717.113.954.113.237-.071.237-.113.089-.208-.557-.444-1.186-.338-1.808-.237-.225.048-.237.154-.113.332.806.907 1.4.901 2.383.789.64.403 1.28.77 2.028 1.007l.012.107c-.534.036-1.038.125-1.518.225-.243.048-.296.196-.16.415.196.32.51.475.871.558.255.077.516.059.771-.048.296-.136.492-.385.77-.54.167-.088.445.013.611.06.25.077.492.19.753.225 1.026.143 2.116.237 3.07.154a4.63 4.63 0 0 0-.272.652c-.053.13-.006.16.13.149a.563.563 0 0 0 .48-.273c.019-.154.019-.296.048-.45.018-.084.042-.196.095-.208.042-.006.279.036.249.1-.083.238-.154.422-.255.659.089.018.184.035.279.035.385 0 .444-.059.427-.438a1.6 1.6 0 0 0-.048-.326c-.047-.29.012-.487.261-.623.237-.118.498-.083.741-.053a4.523 4.523 0 0 1 2.087.948c.302.237.041.575.041 1.032 0 .29-.06.587-.053.735.012.237.112.361.201.433.267.201.558.403.836.592.29.178.433.297.77.415a.727.727 0 0 0 .25.018.883.883 0 0 0-.018-.356c-.166-.112-.397-.165-.664-.254-.047-.018-.1-.083-.124-.143a.498.498 0 0 1 .19-.112l.432-.09a.27.27 0 0 0 .107-.094c-.018-.042-.054-.089-.083-.095-.178-.06-.415-.095-.557-.13-.06-.018-.083-.071-.13-.119a.54.54 0 0 1 .213-.113l.438-.053a.237.237 0 0 0 .119-.071c-.018-.042-.042-.1-.077-.119-.09-.041-.546-.207-.593-.255-.042-.041-.047-.094-.065-.166.059-.03.148-.059.207-.047l.368.006a.237.237 0 0 0 .154-.071.332.332 0 0 0-.1-.119c-.179-.106-.244-.178-.445-.272-.09-.06-.137-.107-.155-.226a.58.58 0 0 1 .25-.012c.136.036.207.078.35.101.035.012.106-.006.153-.018a.154.154 0 0 0-.041-.106c-.054-.06-.125-.083-.19-.137-.1-.065-.273-.23-.373-.314-.03-.024-.012-.107-.018-.136h.107c.136.03.331.089.444.107.196.035.172.005.09-.137-.12-.107-.25-.178-.368-.308-.03-.042-.018-.119-.018-.178.19.012.385.1.557.1a.252.252 0 0 0 .024-.1 2.816 2.816 0 0 0-.137-.326c-.047-.13.018-.178.113-.142.13.06.338.166.48.201.06.018.13 0 .202-.03a2.563 2.563 0 0 0-.237-.367c-.012-.035 0-.083.035-.118.225.059.457.219.658.272.095.036.154 0 .178-.047.018-.054-.148-.22-.136-.285 0-.041.012-.059.035-.083l.386.119c.284.077.444.1.486.035.059-.017 0-.148-.09-.302.226-.018.25.089.641.166.148.036 2.217-.255 3.059-.516.332-.106.711-.272 1.025-.415l.101.018c.237.61.735.795 1.245.854l.474.03c.149 0 .178-.036.137-.184a2.65 2.65 0 0 0-.77-1.304l-.327-.208c-.142-.148-.124-.32.03-.439.26-.177.616-.35.883-.515.385-.243.516-.629.492-1.032a.344.344 0 0 0-.142-.267.433.433 0 0 0-.196.137c-.107.22-.213.403-.302.593-.077.041-.154.059-.22.088-.017-.07-.059-.136-.035-.201.118-.344.415-.617.616-.836.083-.142-.041-.196-.1-.184-.22.048-.463.13-.629.32a4.446 4.446 0 0 0-.871 1.803c-.036.171-.113.237-.166.39-.071.244-.065.297.142.451.308.196.706.38.99.581.119.13.06.178-.065.178a1.144 1.144 0 0 1-.83-.373c-.107-.119-.202-.202-.332-.22-.296.083-.711.202-1.02.243-.178.036-.314.107-.409.273-.059.136-.184.166-.332.113-.22-.06-.438-.143-.658-.19a2.484 2.484 0 0 0-1.102.077c-.149.024-.184-.012-.143-.154.042-.178.101-.356.137-.534 0-.077.017-.195-.06-.237-.07.036-.177.054-.207.101-.119.178-.202.356-.314.545-.071.149-.101.149-.255.083a2.816 2.816 0 0 1-.623-.385c-.148-.237-.308-.433-.385-.64-.03-.053.06-.095.125-.095.166.13.367.296.515.439.101.112.13.219.196.361.018.036.178.03.207-.03a1.43 1.43 0 0 0 .072-.254.78.78 0 0 0-.178-.723c-.25-.25-.415-.297-.747-.534-.421-.285-.48-.267-.635.018a1.678 1.678 0 0 0-.207.77c.113.676.273.949 1.085 1.364a.225.225 0 0 1-.06.118c-.059.042-.088.066-.177.066-.29-.006-.694-.012-1.008-.042-.089 0-.142-.035-.166-.083a4.138 4.138 0 0 1 .367-2.976.498.498 0 0 1 .196-.22c.172-.088.445-.2.61-.272.096-.047.149-.012.19.09.072.26.101.45.119.675.012.136.018.279.077.302.13.06.249-.053.314-.166.25-.403.314-.853.13-1.34-.017-.04.024-.13.072-.16.563-.225 1.085-.456 1.66-.675.314-.018.723.017 1.292.106.095.012.296.178.498.297-.26.13-.64.409-.907.658-.071.077-.166.178-.1.391.224-.012.331-.077.497-.118.255-.078.415-.12.617-.12a1.103 1.103 0 0 1 .166.025.302.302 0 0 1-.077.172c-.072.065-.184.059-.267.1-.083.06-.166.137-.113.237.042.066.148.143.225.13.267-.017.51-.047.783-.13.119-.1.587-.71.32-.764-.148-.03-.468-.054-.605-.125a.279.279 0 0 1 .166-.19c.143.024.309.066.534.09a3.26 3.26 0 0 0 1.085-.048c.148-.06.195-.113.148-.207a1.707 1.707 0 0 0-1.008-.878c-.201-.06-.444-.012-.652-.012l-1.778-.017c-.036 0-.077-.036-.119-.06.036-.023.071-.059.1-.07.167-.102.357-.185.528-.297.25-.178.415-.421.48-.741a.302.302 0 0 0 0-.166c-.165-.61-.491-1.05-1.185-1.127l-.338-.059c-.13-.006-.178.048-.178.16 0 .22.012.332 0 .557 0 .107.06.149.178.16a4.25 4.25 0 0 1 .943.273c.178.071.219.178 0 .368l-.498.355c-.09.06-.125.012-.137-.07-.011-.131-.011-.28-.035-.404a.279.279 0 0 0-.071-.124.362.362 0 0 0-.267.219 3.43 3.43 0 0 0-.136.51.54.54 0 0 1-.38.444c-.1.024-.19-.011-.172-.106a2.371 2.371 0 0 1 .071-.332c.16-.386.243-.712.214-1.08a7.778 7.778 0 0 1-.06-.764.225.225 0 0 1 .167-.237c.296-.119.58-.237.889-.332.112-.041.195 0 .278.107l.635.74c.16.179.207.173.355-.029a1.47 1.47 0 0 1 .48-.474c.113-.054.113-.16-.017-.208-.237-.089-.475-.136-.723-.219-.054-.018-.12-.018-.178-.041-.036-.018-.083-.066-.083-.101 0-.03.047-.083.083-.095.456-.16.83-.308 1.233-.468.112-.048.166-.137.148-.25-.012-.148-.06-.278-.077-.42-.024-.13-.113-.237-.25-.25-.55-.059-.882.101-1.256.487a.344.344 0 0 0-.089.302.419.419 0 0 0 .172 0 2.253 2.253 0 0 0 .593-.255c.095-.106.178-.22.231-.22.03 0 .089.137.107.19-.054.06-.107.131-.546.32a12.597 12.597 0 0 1-2.412.83c-.119.013-.107-.059-.077-.106.154-.273.326-.551.498-.842.166-.1.213-.06.148.1a2.964 2.964 0 0 1-.178.345c-.018.106.03.136.095.124a.925.925 0 0 0 .687-.824c0-.136-.065-.184-.213-.178-.207.012-.439.03-.64.095-.391.095-.623.368-.747.718-.06.166-.09.332-.119.503-.035.178-.19.25-.355.338-.267.166-.404.13-.635.178a3.806 3.806 0 0 0-.58.13c0-.065-.018-.124 0-.165.13-.208.248-.415.385-.605.195-.285.142-.445-.166-.551a1.15 1.15 0 0 0-1.322.462c-.166.26-.285.581-.403.866-.072.171 0 .272.177.314.285.047.623-.06.878-.125-.018.083-.024.397-.054.469l-.16.355c-.106.178-.225.237-.415.143a8.714 8.714 0 0 1-.865-.469 1.998 1.998 0 0 0-1.026-.332.498.498 0 0 1-.106-.006c-.119-.03-.13-.07-.06-.148.095-.089.101-.184.048-.296l-.38-.712a1.933 1.933 0 0 1-.177-.415c.088-.017.438.101.438.166.024.386.143.664.344.907.154.154.296.06.314-.1.03-.202-.249-.534.113-1.299.148-.332.622-.924.93-.924.167 0 .303.07.404.314.059.112.095.373.142.486.047.112.1.166.22.154.296-.042.71-.22 1.049-.267.213-.03.379.504.486.7.166.284.243.533.432.225.32-.445.469-.937.807-1.097a2.389 2.389 0 0 1 1.393-.237c.148.018.195.077.16.225-.03.09-.036.178-.06.273-.03.107.06.142.178.06.16-.095.279-.226.392-.368.284-.308.569-.463 1.132-.463.267 0 .474.06.711.137.178.065.208.095.154.278l-.16.534c-.053.237-.011.273.202.391.19.113.338.19.45.332a.385.385 0 0 0 .238-.083 2.851 2.851 0 0 1 1.025-1.156c.178-.095.225-.083.297.083.148.38.23.706.254 1.055.202-.23.433-.474.593-.664.599-.557 1.192-.557 1.992-.355.196.059.042.255-.071.409l-.154.231c-.053.083-.089.089-.154.018-.101-.119-.202-.32-.297-.421-.183-.178-.504-.077-.723.06a2.964 2.964 0 0 0-1.073 1.09 5.792 5.792 0 0 1-.937 1.114c-.142.054-.142.048-.112-.1a3.942 3.942 0 0 0 .652-2.046.492.492 0 0 0-.38.083c-.55.309-.83 1.405-.906 2.135-.018.16-.018.278-.155.355-.23.13-.32.19-.55.297-.06.006-.09 0-.137-.006.106-.486.03-.83-.25-1.287-.047-.089-.112-.136-.213-.1-.059.035-.112.077-.237.177a2.075 2.075 0 0 0-.652 1.595c0 .107.107.107.184.053a.792.792 0 0 0 .213-.255c.137-.23.255-.474.386-.705.023-.06.089-.095.136-.113.03.06.03.119.018.166l-.101.445a1.381 1.381 0 0 1-.439.605c-.041.059-.065.154.042.166.474.023.753-.03 1.162-.25.427-.219.711-.402.9-.379.131.018.771.202.83.25-.035.064-.082.088-.118.13-.071.059-.385.225-.522.344-.219.177-.296.266-.254.634.023.166.053.32.089.474.017.06.059.125.088.136.06 0 .113-.041.143-.083l.533-.681a.415.415 0 0 1 .113-.066c0 .042.012.083 0 .107-.042.273-.178.474-.344.676l-.107.136c-.142.208-.154.237-.012.445.166.237.19.51.137.77-.036.19-.101.475-.137.76-.35.16-.699.385-.995.586-.184.166-.22.297-.22.338.09.107.172.125.344.196.237.077.694-.018.777-.273.03-.06.059-.178.059-.284.083.017.16.017.184.088.089.28.166.463.344.647a.952.952 0 0 1-.137.237c-.1.178-.19.326-.338.296a.916.916 0 0 0-.184-.024c-.112 0-.219 0-.207.196.024.255.06.368 0 .628-.03.143-.077.297-.22.297-.343-.03-.574-.285-.906-.279a1.304 1.304 0 0 1-.635-.112c-.177-.09-.302-.19-.385-.237-1.399.225-2.94.51-4.132.77-.13.024-.118.107-.148.237-.06.309-.178.605-.231.907-.012.054.059.113.089.154.035-.03.083-.053.118-.094.071-.107.119-.232.202-.332.142-.155.521.011.587.219.059.124-.119.19-.113.332.012.118.19.231.19.385 0 .137-.06.226-.077.297.515.332.646.61.658 1.037.017.13.017.202.089.279.07.07.19.178.237.237.243.284.468.729.628.77.083.036.296.048.457.036l.03.083c-.054.13-.196.285-.333.326-.38.119-.563-.445-.77-.77a2.757 2.757 0 0 0-.32-.427c-.167.183-.44.918-.416 1.262.107.475.386.937.564 1.275.13.207.379.278.622.373.202.071.356.107.563.048.107-.024.148-.03.196-.071v-.427c.047-.77.172-1.542.22-2.205 0-.178.136-.475.355-.629a.723.723 0 0 0 .326-.67.522.522 0 0 1 .053-.272c.077-.155-.07-.155-.219-.178-.166-.024-.208-.09-.119-.237.149-.261.374-.475.546-.73.112-.177.166-.296.207-.409-.047-.213-.03-.533.184-.545.706-.083.996-.018 1.44.314.03.048.036.113.036.166 0 .06.125.101.362.338.184.172.355.652.053 1.393.154.09.148.237.13.403-.011.143.036.16.167.214.166.059.254.154.39.498.12.326.481 1.191.688 3.32a8.845 8.845 0 0 1-.284 1.7c.142 1.02.302 2.277.433 3.99.1 1.625.13 2.455.16 3.125.29.023.38.083.438-.16l.06-.226c.053-.16.213-.106.219-.018l.178.516c.035.154.077.243.136.391.19.261.273.03.273-.16.024-.166.024-.308.024-.456.03-.19.13-.202.201-.071l.255.604c.095.208.196.261.237.137.03-.172.036-.474.03-.718-.042-.136-.1-.29-.119-.409 0-.166.13-.13.16-.083a19.255 19.255 0 0 1 .901 1.174c.166.101.267-.07.22-.136-.012-.065-.095-.148-.095-.279.024-.213.22-.118.267-.041.178.178.302.415.409.61a.385.385 0 0 0 .166.083.324.324 0 0 0 .047-.19c-.012-.065-.089-.225-.113-.296.078-.124.238.036.285.083.06.06.113.148.178.267.1.154.267.285.634.338l.018.107c-.047.035-.13.07-.356.112a4.505 4.505 0 0 1-1.375.03 1.6 1.6 0 0 0-1.014.22c-.22.124-.438.106-.7.1-.497-.024-.995-.024-1.5-.036-1.048-.03-1.576.178-2.762.243-.385 0-1.185-.201-1.185-.444 0-.178.095-.314.095-.403 0-.113-.024-.143-.119-.166-.848-.148-1.678.041-2.448.184-.652.1-.99 0-1.334-.273a1.725 1.725 0 0 1-.474-.504 6.74 6.74 0 0 0-1.316-1.25c-.552-.44-1.251-1.246-1.69-1.791-.1-.119-.273-.682-.332-.842a1.69 1.69 0 0 1-.077-.73c.065-.058.148-.118.214-.124.367-.011.83-.19.841-.296.036-.083-.023-.154-.095-.136a2.006 2.006 0 0 1-.652 0c-.106-.018-.237-.06-.296-.119.071-.083.119-.142.19-.184a1.938 1.938 0 0 0 .86-.332.207.207 0 0 0-.024-.106c-.238-.012-.427-.012-.7-.077a.622.622 0 0 1-.267-.155.427.427 0 0 1 .202-.166c.308-.1.533-.249.74-.444v-.119a4.209 4.209 0 0 1-.841-.089c-.124-.065-.136-.077 0-.237.202-.047.57-.077.77-.142.143-.077.12-.208-.029-.249a4.523 4.523 0 0 1-.717-.077c-.148-.136-.166-.148.023-.237l.635-.13c.243-.084.207-.238 0-.297-.19-.024-.326-.065-.516-.1-.255-.125-.249-.137-.047-.22l.403-.113c.112-.024.225-.07.243-.154a.119.119 0 0 0-.012-.083c-.166-.047-.516-.012-.67-.06-.06-.017-.113-.076-.142-.147l.148-.083c.19-.042.397-.125.545-.208a.48.48 0 0 0 .06-.142.356.356 0 0 0-.107-.053c-.202-.06-.314-.101-.516-.178-.112-.137-.107-.166.048-.226l.284-.077a1.838 1.838 0 0 0-.142-.284.285.285 0 0 0-.1-.101c-.167-.1-.404-.196-.582-.314-.332-.202-.676-.403-.937-.664a2.152 2.152 0 0 1-.693-1.132 2.234 2.234 0 0 1-.006-.842c.03-.208.148-.427.26-.629.042-.07.078-.136.03-.195a4.425 4.425 0 0 0-.51-.552.871.871 0 0 0-.325-.166c-.658-.118-1.062-.249-1.364-.213a1.05 1.05 0 0 0-.249.38c.06.225.166.563.172.847.237.024.534.107.83.273.237.154.29.237.385.533.202.658.255 1.506.403 2.407.119.866-.326 1.577-1.197 1.607-.474.023-.866-.071-.99-.392-.154-.45-.273-.83-.415-1.286a9.726 9.726 0 0 0-1.933.688c-.58.272-1.055.533-1.665.788-1.168.474-2.455.77-3.605.77a5.098 5.098 0 0 1-1.754-.307c-.415-.166-.57-.338-.664-.866a5.027 5.027 0 0 1-.018-1.363c.053-.44.124-.747.427-1.571.13-.368.302-.534.587-.682a3.089 3.089 0 0 1 1.523-.296c.178.005.415.035.581.106.332.119.38.386.391.712 0 .195.012.39 0 .58-.017.155-.012.22-.012.28.415.058 1.293.035 1.708-.06.344-.065.48-.119 1.102-.415.433-.196 1.014-.628 1.696-.984zm13.208 7.38c.035.078.13.492.13.635 0 .338-.03.652-.065 1.174-.06.681.018 1.375-.077 2.05-.042.333-.119.842-.095 1.299 0 .178.036.231.136.249.332.077.552.113.718.113.51 0 .841-.232.794-.516a6.894 6.894 0 0 1-.237-1.897l.136-.006c.184.77.344 1.15.397 1.553.072.362 0 .99.078 1.304.847.095 1.861.012 2.17-.053.076-.694.059-1.405-.25-1.672a6.837 6.837 0 0 0-.67-.51 3.8 3.8 0 0 1-.907-1.007c-.361-.57-.462-.753-.782-1.31-.297-.522-.498-.967-.7-1.27a1.967 1.967 0 0 0-.296-.385 3.9 3.9 0 0 0-.77-.148c-.356-.035-.594-.077-.801-.296-.178-.178-.249-.326-.142-.563.059-.125-.018-.214-.107-.32-.107-.13-.077-.273.053-.374a2.104 2.104 0 0 1 1.02-.575l-.065-.284c-.166.023-.35.07-.682.07-.456 0-.871-.19-1.037-.788-.06-.213-.326-.824-.403-1.09-.06-.167 0-.374.082-.611-.148-.178-.266-.374-.39-.54-.244-.106-.546-.207-.742-.45-.083-.1-.118-.107-.195-.06-.066.054-.083.12-.178.208-.083.077-.267.083-.439.012-.166-.065-.249-.237-.243-.403.018-.22.125-.415.03-.504-.178-.178-.332-.385-.13-.534.059-.047.183-.035.26-.07a.551.551 0 0 0 .267-.617c-.048-.184-.148-.267-.326-.285-.261-.018-.38-.148-.38-.32 0-.22.196-.314.374-.273a.515.515 0 0 1 .231.107c.018.083.06.202.119.19.296-.036.533-.344.533-.635 0-.1-.065-.148-.26-.106-.356.059-.795.19-1.234.338-.237.083-.272.272-.142.498.047.047.077.106.113.166.059.083.03.154-.06.201l-.106.083c-.13.1-.149.208-.066.356a.39.39 0 0 0 .101.136c.095.09.095.166 0 .273a.415.415 0 0 0-.083.45c.036.125.137.842.137.979-.006.373.065.74.041 1.09-.012.25.113.475.356.747.267.297.456.558.818.907.42.403.652.884.693 1.47.018.28.149.38.415.522.558.154.747.468.813.89.112.758-.255 1.493-.937 1.422-.344-.03-.516-.237-.516-.42 0-.196.095-.386.255-.44.03-.011.13 0 .154 0a.332.332 0 0 1 .012.12c0 .046-.06.076-.089.177-.012.06-.012.196.053.279.072.094.196.13.332.083.155-.048.255-.178.327-.32.32-.57.16-1.246-.445-1.388-.19-.06-.468-.083-.646.018-.374.237-.694.368-1.008.652a.237.237 0 0 0-.077.178 30.856 30.856 0 0 0 .267 3.758c0 .267.195.605.272.652.22-.16.279-.32.475-.628.089-.053.13-.018.16.06 0 .284-.06.557-.03.8.018.07.1.136.16.183.13-.118.136-.296.19-.438.148-.154.178.018.19.059-.012.178 0 .35.017.445 0 .07.071.083.13.1.16-.32.362-.604.623-.782.154-.113.255-.018.166.136a3.913 3.913 0 0 0-.356.937.551.551 0 0 0 .155-.018c.035-.012.083-.024.1-.113.113-.272.172-.308.297-.106.059.184.142.32.249.373.166-.047.178-.243.243-.385.178.012.19.201.278.296.06.048.564.066.652.06l-.011-.297c-.012-.587 0-1.055.035-1.636.048-.605.113-1.227.142-1.76.024-.445.078-1.115.119-1.643zm8.264-11.28a12.724 12.724 0 0 0-.83-.054c-.125 0-.457 0-.469.172 0 .047.066.136.143.19.403.272 1.529.32 1.985.243a.776.776 0 0 0-.035-.332c-.113-.338-.528-.635-.907-.76a3.118 3.118 0 0 0-1.221-.04l-.083-.208a3.89 3.89 0 0 0 .035-1.583c-.047-.237-.112-.356-.237-.551-.083-.107-.172-.107-.273-.024-.059.06-.13.13-.243.279-.385.462-.367.77-.296 1.47.042.03.089.059.22.059.118 0 .177-.053.19-.22.01-.23.064-.474.1-.687.06.018.154.083.166.119.024.361-.095.735-.178 1.073.018.041.279.154.237.266-.03.083-.439.184-.723.208a1.458 1.458 0 0 0-.676-.557c-.166-.066-.35-.119-.213-.232l.225-.089c.385-.16.255-.379.237-.752-.012-.143-.071-.184-.202-.178-.195.012-.32.03-.474.112-.296.178-.516.469-.723.706-.036.035-.119.018-.19.018l.368-1.038c.035-.107.089-.22.207-.19.593.137 1.204.024 1.625-.397.177-.19.177-.278-.054-.438a1.399 1.399 0 0 0-1.268-.273c-.178.071-.297.178-.326.362-.018.112.533-.042.723-.024.06 0 .095.053.136.083-.355.154-.765.231-1.102.326-.113.03-.155 0-.178-.107a.48.48 0 0 1 .178-.486c.254-.22.462-.48.515-.83.036-.184-.118-.468-.201-.628-.012-.042.012-.077.012-.107.219.053.521.196.705.326a1.56 1.56 0 0 0 1.085 1.203c.196.066.391.143.599.202.19.06.332 0 .32-.202l-.006-.272c.16-.071.356-.13.397-.119.314.042.634.196.954.297.226.118.12.19-.041.166-.237-.036-.48-.107-.711-.166-.149-.03-.273.035-.297.177.101.178.557.386.723.457.238.083 1.156.19 1.145-.06a3.23 3.23 0 0 0-.107-.728c-.06-.202-.237-.32-.427-.368a4.968 4.968 0 0 0-1.227-.142c-.095 0-.273.059-.439.142l-.053-.273c-.083-.367-.261-.456-.534-.551.012-.107.012-.178.012-.296.243-.137.54-.368.652-.564-.095-.094-.272-.142-.367-.177-.374-.13-.415-.273-.664-.386a1.66 1.66 0 0 0-.593-.148c-.19 0-.445.047-.498.119-.03.047 0 .124.107.201.166.13.515.22.687.344.107.06.054.089-.017.1a1.707 1.707 0 0 1-.676-.195c-.125-.065-.166-.118-.255-.154-.166-.06-.196-.012-.308.178-.083.142.017.213.136.278.397.22.688.35 1.186.404.059.059.07.148.089.26-.498-.065-.664-.07-.973-.177-.492-.267-.883-.475-1.357-.635-.09-.035-.119-.095-.024-.154.498-.296.972-.664 1.476-.937.071-.041.184-.023.273-.005.243.041.326.118.569.19.142.059.284.094.308-.036.071-.362.19-.635.297-.789.219-.338.533-.516.948-.77.154-.534.658-1.067.842-1.067.498 0 .99.907 1.09 1.244.066.238-.331.451-.059.451.226 0 .44.036.44.237a1.72 1.72 0 0 1-.274.949c-.19.26-.385.533-.64.705l.018.089c.427.32.895.551.895 1.037 0 .255-.071.439-.22.57-.118.094-.207.195-.195.343.018.338.036.528.018.854-.018.225-.694.267-.789.367a2.757 2.757 0 0 1-.183 1.678l.136.255c.682.474.77.913.871 1.286-.19.184-.498.338-.604.338-.445 0-1.423-.332-1.613-.355-.077.136-.035.26.066.533.088.255.254.427.254.652 0 .119-.017.29-.332.338a2.217 2.217 0 0 1-1.47-.403c-.089-.047-.166-.107-.255-.148-.148-.083-.338-.018-.385.148l-.1.332c-.06.184-.149.202-.398.148-.7-.148-1.025-.9-1.025-1.57.03-.137.142-.084.166-.018.041.326.183.64.29.907.13.254.296.39.575.426.06 0 .13-.106.196-.225.148-.314.29-.522.243-.89-.018-.13-.054-.307-.148-.426-.042-.06-.12-.095-.196-.166.035-.06.095-.124.148-.107.308.107.54.107.735 0 .119-.059.178-.148.255-.249.267-.07.7-.166 1.067-.219.498 0 .937.071 1.304.237zM11.5 23.302c.266 0 .586.13.58.415l-.059.149a.148.148 0 0 1-.059-.018c-.1-.214-.26-.338-.522-.285-.237.048-.45.172-.604.344-.107.107.106.178.237.243l.278.166c0 .148-.373 1.192-.183 1.227.474.083 1.102-.569 1.167-1.488-.017-.332.172-.498.534-.622.433-.16.634-.356.563-.83-.035-.225.1-.16.225-.356l.143-.154c.023.065.07.225.059.29-.1.38-.024.676.166 1.02l.356.913c.077.09.154.018.237.113.302.61.646 1.53 1.108 1.92.38.315.783.866 1.144 1.198.208.184.356.652.617.741.19.071.178.166.154.338-.035.207.06.249.13.249.13-.018.25-.048.386-.06.284.06.22.261.006.297-.143.012-.279-.018-.421-.018a.646.646 0 0 0-.148.06.26.26 0 0 0 .077.142c.23.124.397.142.622.19.042 0 .077.035.125.053-.018.035-.06.124-.107.148a.915.915 0 0 1-.255 0c-.207-.047-.391-.136-.587-.22-.065-.023-.107-.094-.172-.142l-.166-.047c0 .065-.018.124-.012.178.042.095.137.249.095.278-.012.03-.148.113-.184.09-.166-.078-.296-.267-.456-.356-.196-.119-.38-.119-.563.006a7.761 7.761 0 0 1-.551.355c-.226.148-.469.386-.736.386-.148 0-.521-.226-.687-.273-.308-.1-.41-.113-.735-.184-.279-.065-.522.036-.8.13-.344.107-.718.149-1.091.22-.208.035-.45 0-.67-.012-.332-.012-.652-.041-.978-.036-.22 0-.45.042-.664.113a1.272 1.272 0 0 1-.29.042.71.71 0 0 1-.428-.13.628.628 0 0 0-.474-.09c-.154.03-.456.09-.58-.03-.155-.153-.528-.462-.736-.42-.652.106-.972.48-1.612.314-.45-.119-.747-.225-1.186-.077-.119.041-.403-.024-.516-.006-.166.018-.22-.012-.201-.178l.017-.089c.03-.172-.136-.296-.302-.237-.178.06-.29.243-.456.332-.315.154-.61.107-.949-.024-.237-.1-.474-.059-.693.06-.143.07-.374.415-.534.415-.047 0-.13-.095-.16-.172v-.16a1.103 1.103 0 0 1 .362-.332 2.069 2.069 0 0 1 1.262-.166c.196.03.415.053.599-.024.148-.065.302-.077.439-.148.249-.137.468-.25.747-.148.207-.095.314-.16.415-.315.059-.249-.036-.51.03-.753.053-.219.147-.498.219-.71.041-.108.118-.096.19-.084.2.297.444.57.32.836-.084.19.35.32.278.51-.071.142-.041.237.107.249l.106.012c.13 0 .13-.083.13-.243 0-.907-.29-1.536-.598-2.247a1.05 1.05 0 0 1 0-.83l.178-.557c.107-.267.326-.498.575-.593.03-.012.125.03.148.071.403.57.552 1.257.356 1.944-.06.202-.1.415-.142.64-.012.054.006.107.017.167.036-.036.09-.072.119-.113.202-.296.403-.593.563-.913.154-.308.415-.433.73-.492.35-.071.444-.03.355.308a7.284 7.284 0 0 1-.178.575 1.144 1.144 0 0 1-.587.712c-.195.106-.38.255-.551.385-.065.089-.083.083-.012.172.065.083.166.03.25-.018a9.37 9.37 0 0 1 .995-.61c.119-.054.16-.006.148.136-.018.166-.041.391-.207.45-.178.06-.421.09-.581.166a1.103 1.103 0 0 0-.279.238c-.107.166-.107.278-.195.45-.018.042 0 .107 0 .166.059-.018.118-.018.154-.041.213-.155.332-.332.545-.498.166-.125.202-.113.267.094a.483.483 0 0 0 .142.178c.06-.041.136-.077.184-.148.195-.284.314-.86.569-1.239.047 0 .1.036.136.048.054.13-.017.563-.006.658 0 .266.09.32.326.201.19-.095.356-.196.546-.296.195-.095.355-.018.237.136-.06.095-.148.166-.208.26-.03.06-.023.155-.03.226.054 0 .131.006.185-.018.148-.041.29-.106.432-.166.19-.089.392-.059.605 0 .207.072.415.119.61.178.16.036.333-.035.475-.1a5.122 5.122 0 0 1 .877-.338 2.816 2.816 0 0 0 1.085-.623c.071-.077.178-.118.267-.196.06-.053.118-.314.124-.397.06-.22-.035-.735.012-.966.03-.06.071-.178.107-.237l.095.024a1.1 1.1 0 0 1 .065.278c-.012.397-.018 1.28-.06 1.66 0 .095-.16.237-.248.273-.694.249-1.393.516-2.093.711-.314.09-.664.042-.996.048-.26 0-.522-.042-.782-.024-.202.018-.498.207-.706.237-.575.089-1.067.053-1.636.154-.528.1-1.031.243-1.53.385a.82.82 0 0 0-.314.155c-.041.03-.053.089-.065.13.053.03.107.065.16.06.13-.018.237.023.368.005.308-.047.616-.083.936-.112.066 0 .155.047.214.088a.593.593 0 0 0 .486.101c.19-.041.356.006.522.125.284.237.355.243.687.059.255-.136.534-.136.818-.119.629.03 1.216.119 1.779.226a1.215 1.215 0 0 0 1.174-.45 7.29 7.29 0 0 0 .438-.6c.107-.142.22-.237.386-.237.355 0 .717-.083 1.067-.059.195.012.296.196.296.308-.018.119-.06.19-.196.184-.272-.018-.533-.03-.794-.065-.279-.024-.498.06-.664.267-.089.094-.065.166.065.195.06.006.13.036.19.042.142.012.207.083.249.213.024.083.196.166.486.178.368.024.557.024.877-.077.137-.047.226-.202.315-.314.213-.303.355-.386.729-.303.267.048.444-.237.682-.219.432.06-.06-.818-.332-1.108-.38-.28-.682-.836-1.014-1.251-.243-.303-.534-.415-.747-.789-.403-.67-.735-1.482-1.186-2.015-.172-.184-.551-.06-.74.041a.522.522 0 0 0-.22.154c.54.457.563 1.091.373 1.56-.053.148-.106.142-.26.082a5.691 5.691 0 0 1-.427-.172c-.095-.047-.178-.023-.273.036-.415.249-.913.581-.996.498-.166-.16-.433-.658-.415-.913.012-.207.083-.385.16-.504a4.138 4.138 0 0 1-.533-.338v-.183c.343-.332.806-.653 1.162-.653zM1.174 18.502c.047.326.178.592.498.711.45.19 1.049.296 1.553.308a9.35 9.35 0 0 0 1.968-.166 12.799 12.799 0 0 0 3.178-1.108 8.791 8.791 0 0 1 1.926-.735 4.369 4.369 0 0 1 2.134-.06c.32.077.386.077.338-.148-.018-.154-.06-.296-.089-.456-.077-.528-.053-1.026-.249-1.482a.61.61 0 0 0-.296-.267 1.743 1.743 0 0 0-.504-.154 3.587 3.587 0 0 0-1.067 0 5.37 5.37 0 0 0-1.618.498c-.552.272-1.103.575-1.512.824a4.357 4.357 0 0 1-2.241.646c-.528 0-.871-.018-1.399-.077a4.986 4.986 0 0 1-2.057-.563c-.142-.071-.22-.054-.273.095a4.618 4.618 0 0 0-.278 2.134zm24.542 5.797c-.178.024-.557.077-.782.09a1.05 1.05 0 0 1-.214-.03c.036-.066.06-.09.095-.107.267-.136.557-.267.753-.415.113-.089.089-.166.06-.237-.374.16-.718.237-1.11.296-.029 0-.047-.023-.059-.041.303-.226.712-.41.931-.605.148-.118.036-.154-.012-.207-.32.112-.64.219-.978.308a.385.385 0 0 1-.154-.012c0-.065.065-.095.119-.13a5.146 5.146 0 0 0 .942-.617l-.018-.083-.112-.012c-.261.048-.83.13-1.144.16-.155 0-.13-.089-.101-.106.249-.113.439-.243.622-.44.065-.07.06-.135.036-.171-.297.142-.64.142-.842.166-.036-.047.012-.107.036-.13.237-.095.296-.172.415-.255.083-.06.26-.178.296-.237.024-.03.018-.095 0-.12a3.86 3.86 0 0 1-.735.179.368.368 0 0 1-.13-.018c.017-.06.03-.1.059-.119.35-.177.533-.249.77-.397a.593.593 0 0 0 .166-.213l-.023-.036-.842.261c-.06-.012-.083-.047-.13-.083a.338.338 0 0 1 .094-.1 4.505 4.505 0 0 0 1.565-.902c.13-.106.25-.237.297-.332l-.036-.065a8.122 8.122 0 0 1-1.719.966c-.13-.011-.107-.089-.06-.118.06-.06.22-.243.356-.415a4.98 4.98 0 0 0 1.441-.836c.036-.036.053-.13.03-.19-.285.125-.712.368-1.085.51l-.071-.024c.012-.065.047-.13.083-.195a4.808 4.808 0 0 0 .907-.735c.012-.042.03-.09 0-.137-.237.13-.504.22-.747.303-.083-.054.017-.196.03-.232.35-.284.515-.474.681-.71.036-.06.036-.108 0-.197-.19.137-.468.22-.682.303l-.059-.018c-.012-.071 0-.06.024-.107.249-.237.468-.415.622-.681a.195.195 0 0 0-.018-.149c-.207.072-.367.13-.592.19a.178.178 0 0 1-.083-.018c.011-.07 0-.089.03-.142.153-.136.308-.314.45-.534.041-.053.035-.106.006-.148-.107.03-.309.06-.41.065-.04.012-.094-.035-.124-.088l.386-.273a.332.332 0 0 0 .065-.107c-.048-.024-.09-.047-.119-.035-.166.017-.32.035-.486.07-.362.078-.362.125-.397.232a8.068 8.068 0 0 1-.403 1.203c-.048.107-.113.214-.22.255-.154.083-.118.16-.166.314-.065.297-.112.273-.237.564a1.6 1.6 0 0 1-.338.557h-.083l-.03-.415c-.029-.279-.082-.22-.13-.498-.03-.25.036-.516.066-.73.03-.248.059-.675.059-.918-.024-.018-.048-.06-.077-.077a.237.237 0 0 0-.077.107c-.054.19-.143.486-.166.681-.06.45.03.89 0 1.346a5.128 5.128 0 0 0-.06 1.423c.149-.018.143-.036.35-.119.273-.107.474-.148.753-.397.202-.166.166-.504.237-.783.095-.332.225-.45.356-.503.041-.012.077 0 .118.011l-.195.487c-.065.177-.13.456.06.486l.135.023c.006.036.006.083-.017.113-.178.166-.32.373-1.133.605-.094.03-.296.272-.308.367-.018.13-.018.279.012.486.083.812.486 1.571.937 2.324.379.64.664 1.126 1.073 1.541.195.178.397.315.717.16a2.3 2.3 0 0 0 .445-.26.21.21 0 0 0 .023-.137zM14.69 12.621c.018.32-.042.403-.45.296-.433-.13-.629-.083-.908-.397-.166-.195-.373-.195-.551-.012-.083.101-.142.196-.273.22-.023-.042-.053-.107-.035-.154a.598.598 0 0 1 .338-.415 1.75 1.75 0 0 1 .415-.155c.379-.148.563-.373.563-.818 0-.255.083-.51.083-.77 0-.19-.071-.255-.25-.19-.313.119-.61.237-.924.373a.38.38 0 0 0-.22.208c-.088.166-.142.332-.219.498-.07.095-.136.047-.154.012a9.317 9.317 0 0 0-.486-.688c-.136-.166-.136-.225.018-.338l.51-.45c.255-.237.355-.552.38-.901v-.48c-.007-.208.035-.273.242-.244.148.018.297.06.421.119.237.1.462.237.694.356.118.077.213.177.225.338 0 .177-.119.296-.279.23a5.074 5.074 0 0 0-.776-.272c-.137-.03-.267.042-.29.166-.054.302.207.32.183.403-.065.214-.415.279-.462.474-.042.178-.042.297.118.267.439-.089.866-.356 1.198-.498.29-.118.438-.077.474.243.154.937.296 1.743.403 2.579zm6.782-2.976c.083.024.19.071.255.13.16.374.498.783.93 1.008.137.071.273.095.386.107.041-.166.112-.439.112-.741a.97.97 0 0 0-.296-.717 2.87 2.87 0 0 0-.658-.498.279.279 0 0 0-.326.03c-.006.053-.006.136.023.183.107.178.356.35.475.522.035.178.023.166-.119.106a2.786 2.786 0 0 1-.788-.687c-.125-.142-.208-.142-.297.012a2.668 2.668 0 0 0-.397 1.185 1.215 1.215 0 0 0 .658 1.269c.208.089.356.065.457-.125.1-.195.177-.361.237-.575.035-.112.035-.154-.048-.255a3.646 3.646 0 0 0-.332-.367.48.48 0 0 0-.166-.136.22.22 0 0 0-.041.142c.006.166.035.344.041.516 0 .041-.006.112-.035.148a.338.338 0 0 1-.19-.22c-.107-.409-.089-.77.119-1.037zM2.407 3.64l.32.38c.13.248.201.474.267.67.059.2.142.2.266.112a.45.45 0 0 0 .19-.386 1.286 1.286 0 0 0-.071-.35C3.26 3.64 3.343 3.273 3.717 3c.13-.083.22-.232.178-.386-.06-.213-.113-.415-.196-.616-.024-.09-.154-.107-.237-.065-.415.219-.913.853-.534 1.387.018.03 0 .13-.03.184-.355-.344-1.03-1.056-1.238-1.038-.06.1-.1.302-.06.717.06.404.16.818.463 1.382.077.124.148.201.26.296.072.06.22.13.333.13a.605.605 0 0 0 .018-.326c-.101-.379-.202-.664-.326-1.007Zm27.862 1.589c.29-.06.528-.143.634-.184.475-.178.789-.486.89-1.008.041-.136-.042-.213-.196-.249l-.308-.083c-.297-.089-.362.036-.475.332-.094.22-.183.474-.42.658-.072.06-.32-.118-.392-.166a2.525 2.525 0 0 0 .996-1.245c.06-.1 0-.201-.107-.237-.148-.041-.296-.06-.474-.041a2.377 2.377 0 0 0-1.707 1.268c-.024.06 0 .184.035.202.066.03.238.012.309-.018.041 0 .059-.065.089-.107.195-.344.521-.551.895-.717.112-.06.148-.018.089.107-.071.094-.747.569-.76.634-.088.196.042.22.155.22l.202-.054c.07.356.284.587.533.688zm-10.208-.06c-.012.166-.071.261-.226.208-.308-.137-.492-.474-.841-.587-.125-.042-.202.071-.22.19-.059.355-.112.664-.112.8 0 .486.26.747.521 1.008.077.065.077.112-.005.148l-1.068.593c-.1.07-.219.083-.332 0-.1-.09-.136-.208-.1-.32.124-.534.213-1.091.355-1.613.214-.83.575-1.108 1.174-1.185.22-.036.38-.036.546-.036.177 0 .248.036.272.196.024.106.03.23.03.598zm.806 3.658c0-.403-.326-.516-.468-.86-.13-.338-.25-.338-.522-.094-.308.296-.498.545-.605.966A2.312 2.312 0 0 0 19.278 10c.03.118.095.243.225.207a.22.22 0 0 0 .16-.22c0-.343.03-.675.202-.894.077-.101.113-.119.154-.148.06.083.036.177.036.195-.054.255-.09.516-.142.77-.036.167-.036.262.053.416.1.154.178.178.249.07.314-.503.652-1.226.652-1.57zM3.64 9.941a3.089 3.089 0 0 0-.22-.99c-.13-.314-.331-.497-.462-.497-.118 0-.403.331-.498.598-.237.682-.112 1.233.285 1.885.053.083.16.238.314.083.118-.142.213-.237.326-.385.154-.184.26-.445.255-.694zm14.862 10.647c-.071-.569-.498-1.12-1.216-1.6-.148-.06-.16.041-.16.166.071.788.16 1.583.261 2.288.03.154.101.196.243.119.214-.101.415-.202.623-.32.19-.113.308-.214.249-.653zm6.497-6.455c-.119-.273-.297-.392-.575-.415-.279-.03-.51-.066-.8-.113-.166.024-.28.154-.374.374.006.047.024.1.06.112.094.036.26.065.284.083a.542.542 0 0 1 .166.225c-.024.077-.119.16-.25.178-.165.036-.165.172-.135.344.023.166.083.296.213.474a.762.762 0 0 0 .249-.178.373.373 0 0 0 .113-.32c-.024-.355.177-.616.42-.853l.06.03c-.042.207-.148.355-.178.557-.047.415-.19.77-.605 1.055.13.166.445.041.546-.06.172-.154.308-.343.373-.58l.065-.208a.166.166 0 0 1 .06.012c.077.154-.036.474.017.7a.516.516 0 0 0 .208-.167c.154-.367.231-.907.083-1.244zm5.193-8.495a3.76 3.76 0 0 0-.439.023c-.065.018-.1.172-.065.202.077.053.13.095.196.118.26.03.373.03.675.078a.252.252 0 0 1 .149.083c-.03.023-.06.059-.113.07-.551.066-.711.06-1.103-.2-.106-.048-.142.029-.112.13.059.19.213.343.498.456.225.1.444.22.681.22.356-.013.605-.036.896-.084.154-.023.308-.112.332-.19.03-.076 0-.248-.09-.355l-.207-.213c-.332-.35-.545-.57-1.037-.516-.065 0-.166.178-.261.178zm.344 3.675c0-.201-.03-.356-.083-.533a.937.937 0 0 0-.818-.676c-.202 0-.303.035-.22.225.024.06.202.255.273.415.095.184.184.38.184.54a.551.551 0 0 1-.048.225c-.118-.066-.19-.22-.219-.29-.053-.179-.06-.28-.119-.38-.047-.09-.112-.113-.136-.113-.077 0-.113.03-.118.137a1.583 1.583 0 0 0 .865 1.582c.154.06.196.018.243-.118a3.308 3.308 0 0 0 .196-1.008ZM3.308 7.18a2.164 2.164 0 0 0-.083.652.507.507 0 0 0 .308.474 3.693 3.693 0 0 0 1.838.297c.018 0 .077-.042.077-.06-.012-.13-.083-.148-.196-.177-.26-.095-.954-.279-1.049-.392-.071-.1-.036-.201.077-.219a.593.593 0 0 1 .302.047c.178.083.32.196.498.297.06.03.119.089.19 0 .048-.083.095-.16-.012-.237l-.409-.326c-.355-.279-.883-.415-1.541-.356Zm12.62 4.57c-.029.06-.082.12-.147.196-.06-.065-.13-.112-.16-.178a13.255 13.255 0 0 1-.664-2.21c-.012-.143.041-.196.166-.19.314.035.592.177.865.32.042.035.077.13.083.195.06.623-.024 1.322-.142 1.868zM2.343 13.02 2.294 13c.03-.379.22-.913.148-1.049a.77.77 0 0 0-.379.036c-.13.059-.19.19-.213.415-.036.486.041.99.148 1.428.03.166.1.184.22.066.313-.285.61-.653.847-.931.166-.214.195-.415.13-.623-.059-.172-.172-.237-.296-.237-.142 0-.19.107-.225.208-.077.272-.202.468-.332.705zm25.473-1.127c.249 0 .45.047.521.071.297.107.427.237.48.344.06.1.06.154.06.201a.534.534 0 0 1-.492-.1c-.267-.25-.652-.356-.883-.25.017.178.177.386.32.499.462.355.871.415 1.363.302.09-.03.119-.148.119-.25-.018-.32 0-.657-.297-.936-.338-.314-.812-.302-1.138-.166-.053.03-.136.065-.178.113a.355.355 0 0 0 .125.166zM16.338 3.148c.1-.024.06.018.03.107-.06.284-.22.503-.415.705-.119.095-.137.249-.06.326.143.136.309.018.415-.089.226-.243.362-.551.492-.848.154-.367.119-.83-.059-1.138-.089-.13-.237-.148-.344-.047a1.915 1.915 0 0 0-.676 1.322c0 .077.006.207.06.237.249-.119.403-.391.551-.57zm6.734 13.35c.024-.024.071 0 .09.012 0 .296.07.652.106.759a.344.344 0 0 0 .113-.077l.082-.404c.184-.569.048-1.02-.19-1.54-.04-.096-.106-.108-.207-.06-.07.03-.136.077-.07.178.053.083.047.148 0 .237-.078.142-.137.302-.22.48-.03.113-.036.196-.048.332l-.083 2.04c.036.112.101.088.137.023.047-.113.077-.213.1-.332.06-.32.149-.332.167-.652.03-.332.03-.658.017-.99zM4.381 3.888a.28.28 0 0 1 .012-.124l.338.06c.166.03.249.006.308-.119.089-.243.041-.462-.214-.516-.385-.07-.77.06-1.102.13-.214.078-.267.297-.107.457.243.237.48.474.741.682a.823.823 0 0 0 .7.166c.112-.03.207-.1.207-.196a.279.279 0 0 0-.083-.201.747.747 0 0 0-.195-.107Zm-.35 14.857c-.018.112-.071.207-.255.195a2.27 2.27 0 0 1-.492-.07c-.178-.048-.225-.12-.237-.179a2.945 2.945 0 0 1 .053-1.096c.024-.06.208-.166.285-.208.237.024.427.06.593.107.07.041.201.237.213.267.036.106.036.219.036.332-.065.272-.148.51-.196.652zm18.425 9.959c.444.166.788.213.919.19a.267.267 0 0 0 .201-.297c0-.118-.06-.225-.22-.267-.337-.07-.68-.118-1.007-.237-.178-.059-.326-.053-.492.077-.255.19-.498.297-.812.356a.385.385 0 0 0-.202.071c-.089.119-.065.196.071.273.546.047 1.062-.06 1.542-.166zm1.82 1.085c.272 0 .474-.06.664-.178a1.66 1.66 0 0 1 .8-.356c.118-.023.243-.148.255-.249 0-.136-.113-.154-.202-.183-.267-.083-.58-.072-.853-.143-.09-.012-.214-.012-.285.042-.569.575-.682.438-.948.723-.072.095-.072.207.124.26.154.036.356.072.445.084zM14.82 8.21c0-.136.255-.355.397-.337.024.011.054.03.078.059l.053.296c.018.119.06.22.118.22.285.023.623-.178.783-.427.166-.261.29-.563.433-.854.13-.314.338-.118.267.071-.184.546-.415 1.103-.587 1.642-.06.196-.083.208-.273.143l-.913-.326a.474.474 0 0 1-.356-.48Zm6.995 13.63c.149.07.137.04.332-.072a.45.45 0 0 0 .178-.32l-.059-1.192c0-.041-.053-.1-.071-.1-.166 0-.368-.036-.498.035-.255.142-.474.338-.7.522-.089.089-.005.178.125.166.113-.048.237-.1.35-.16l.207-.113c0 .042 0 .071-.018.1-.201.22-.355.487-.622.63-.071.011-.053.189.053.195a.775.775 0 0 0 .297-.148c.172-.13.237-.214.409-.356.059.089.095.154.012.225l-.445.397c-.065.066-.018.13.06.12a.695.695 0 0 0 .313-.12c.119-.07.208-.171.309-.278 0 .012.059.077.053.077-.083.13-.178.249-.285.391zM7.695 7.966c-.066.664-.231 1.334-.534 1.642-.237-.468-.403-1.007-.569-1.482.13-.166.296-.415.368-.604.035-.095.089-.113.177-.048.196.184.368.332.558.486zm.788 9.51a.551.551 0 0 1-.296.379c-.119.059-.309.136-.522.136-.1 0-.178-.024-.19-.113l-.177-.889c0-.071.059-.166.118-.225.19-.178.439-.231.7-.243.059 0 .237.077.266.118.054.279.083.534.101.83zM6.076 13.9c-.355.06-.664.374-.61.498.006.279.059.54.213.777.09.142.16.178.308.077a2.65 2.65 0 0 0 1.056-1.079c.07-.13-.072-.172-.202-.237-.178-.083-.362-.083-.462-.036-.101.054-.137.16-.154.238-.113.403-.137.415-.255.557a1.067 1.067 0 0 1 .106-.795zm2.39 15.14c.017-.047.029-.076.07-.082a.781.781 0 0 1 .238 0c.314.089.604-.136.895-.178.065-.012.142-.024.22-.012.189.006.384.012.598-.041.089-.036.201.012.302.059.338.142.664.225.99.036a4.35 4.35 0 0 1 .522-.315c.302-.118.332.083.344.196a.285.285 0 0 1-.166.172c-1.05.373-1.957.38-3.13.237a2.65 2.65 0 0 1-.89-.071ZM1.896 18.01a.615.615 0 0 0 .136.474l.054.047-.03.09a2.484 2.484 0 0 1-.54-.072c-.076-.03.137-.142.155-.279.035-.266.112-.71.112-1.037 0-.06-.142-.119-.142-.166a.202.202 0 0 1 .065-.113c.392.095.445.09.522.273.077.166.148.439.267.64.018-.011.053-.023.07-.041.019-.178.013-.445.019-.57.006-.1.053-.147.16-.147.077 0 .284.005.367.023.012.018.012.03.012.06 0 .047-.065.065-.083.07-.184.066-.196.084-.278.593l-.09.581c-.011.048-.017.137-.047.196-.047 0-.136 0-.154-.047a8.808 8.808 0 0 0-.45-.92h-.06c-.041.12-.041.238-.07.35zm12.135 2.72a1.075 1.075 0 0 0 0-.337c-.06-.19-.148-.374-.119-.534.083-.29.143-.593.119-.889a3.717 3.717 0 0 1 .03-1.103c.1.036.177.101.201.166.024.119.053.237.053.338.036.314.012.617-.005.925-.048.593-.101 1.144-.083 1.731.011.089.03.202.059.285.07.177.035.373-.107.575l-.089-.042c-.065-.243-.237-.58-.302-.848-.012-.047 0-.089.06-.1.118-.018.183-.09.189-.166zm5.738-4.386c-.237-.024-.492-.237-.474-.623-.119.16-.267.326-.403.392.012.13.338.32.563.415.13.166.22.249.385.438.101-.255.226-.474.261-.61a1.956 1.956 0 0 0-.19-.895c-.183-.208-.474-.374-.752-.558-.137.149.035.469.38.658-.078.214-.066.534.272.718zM3.278 15.75c.172-.012.356-.036.557-.065.13-.036.28-.065.285-.237.012-.143-.166-.226-.285-.261a2.626 2.626 0 0 0-1.736.178c-.149.077-.273.16-.356.249-.13.142-.107.23 0 .308.107.083.267.172.474.22.024-.12.048-.32.089-.44.19-.308.717-.367 1.085-.379.089.018.089.13.018.154-.107.083-.315.06-.368.154 0 .09.089.125.237.119zm1.18 3.201c-.006-.065.071-.148.077-.195.018-.09.018-.208.018-.297.012-.237-.042-.628-.042-.86l.13-.082c.042-.018.078.011.125.059.113.107.356.38.474.486.012 0 .03-.03.036-.036v-.177c0-.119-.024-.208-.06-.338-.04-.149-.147-.255-.029-.267l.45-.03c-.04.09-.076.154-.094.285-.018.178-.06.35-.06.521.024.261.078.528.101.747 0 .018-.035.042-.065.06a.415.415 0 0 1-.13-.083c-.22-.226-.374-.427-.658-.7a.237.237 0 0 0-.042.119c.06.178.125.367.243.533.071.095.09.125-.095.196-.1.03-.266.077-.373.053zM12.52 19c.261-.16.368-.694.297-.949a.344.344 0 0 0-.083-.184c-.083-.083-.178-.059-.22.083-.053.208-.077.427-.1.623a1.933 1.933 0 0 0-.587-.018c-.196.03-.581.142-.581.38 0 .385.889.296 1.274.065zm1.56-2.668a.439.439 0 0 0 .106.308c.397.415.948.842 1.292.925.309.083.57.267.76.516l.177.249a.833.833 0 0 0 .533.308c.042.012.095 0 .137 0-.036-.136-.036-.154-.13-.255-.819-.729-1.684-1.298-2.526-1.885-.083-.053-.237-.148-.356-.166zM5.548 25.71v-.012c-.083-.35-.178-.681-.261-1.02-.071-.118-.19-.035-.178.019-.089.243-.178.492-.255.752a.362.362 0 0 0 0 .238c.13.355.255.717.397 1.084.024.048.09.077.125.107.035-.041.083-.095.095-.136zm1.446-8.655c.024.071.06.154.065.231.006.06.006.101-.011.13 0 .019-.036.013-.072 0-.172-.082-.361-.189-.515-.088-.06.041-.036.142.035.178l.486.195c.22.083.279.178.237.44-.041.248-.225.349-.438.408-.09.024-.184.036-.303.024-.017.077 0 .166-.053.195-.035.024-.047.018-.089.036a2.134 2.134 0 0 1-.166-.605c0-.047.018-.053.036-.07.07.023.136.118.249.224.13.048.355.083.391.048.065-.083.095-.136.095-.166 0-.06-.077-.113-.148-.136-.166-.095-.261-.13-.44-.202-.165-.065-.195-.213-.195-.356 0-.148.083-.308.32-.385l.273-.077a.994.994 0 0 0 .042-.243c.035-.006.106-.018.118.006zM3.557 6.67c-.338 0-.546-.083-.877-.053-.238.018-.469.118-.7.207-.136.071-.113.13.012.178.118.06.201.089.32.083l2.134-.196c.042-.059.071-.1.113-.19-.261-.171-.593-.136-.913-.23Zm7.849 10.214c-.03.018-.077.06-.16.143a.433.433 0 0 1-.137.1l-.095-.059.155-.356c.053-.136.106-.154.237-.065l.118.1c.107.084.237.15.356.096.119-.06.06-.225-.06-.285-.177-.112-.314-.142-.533-.272-.124-.078-.178-.196-.178-.362 0-.136.09-.302.267-.32.065-.018.148-.018.237-.018.119 0 .196-.018.267-.119.06-.065.119-.112.136-.035a.987.987 0 0 1-.035.54c-.036-.007-.06-.007-.101-.024-.1-.166-.237-.243-.356-.226-.112.012-.166.095-.083.184.148.154.356.237.534.338.255.136.237.332.207.474a.356.356 0 0 1-.373.297.717.717 0 0 1-.403-.13zm-.498-.51c.023.427-.32.581-.563.576-.226 0-.356-.048-.44-.273-.035-.137-.082-.534-.106-.688-.047-.06-.118-.077-.237-.107-.06-.011-.06-.059-.071-.106.083-.042.231-.083.332-.101.243-.036.243-.024.284.202.03.248.072.515.119.77.083.25.35.196.35-.018 0-.195.012-.42 0-.634-.042-.047-.113-.154-.19-.225-.095-.113-.095-.142.036-.196.308-.118.332-.195.373.214.018.154.113.39.113.592zm.284 2.176.77-.178c.208-.059.321-.278.31-.474-.024-.148-.113-.231-.268-.26a2.099 2.099 0 0 0-.995.136c-.024.26.07.55.183.77zM4.096 15.8a1.25 1.25 0 0 0-.326.053c-.195.047-.296.065-.486.047-.112-.012-.29-.083-.391-.106-.119.005-.237.118-.279.278-.023.166.077.285.261.314.368.083.712.149 1.061.149.13 0 .148-.018.154-.125.012-.207.006-.385.006-.61zm8.833-7.885a2.235 2.235 0 0 1-.486-.148c-.053-.018-.089-.154-.089-.225.012-.19-.035-.386 0-.593.012-.107.077-.137.178-.119l.433.113c.19.077.468.593.385.776-.083.166-.231.19-.415.202zm-3.195 9.035a.551.551 0 0 1-.154.148c-.178.118-.51.195-.735.344-.113.077-.06-.19-.065-.29l-.119-.617a.806.806 0 0 0-.202-.332c-.059-.078.119-.107.22-.137l.355-.112c.137-.042.166.053.13.083-.183.13-.165.19-.147.355.03.172.03.356.035.492.03.065.065.154.119.214.107-.03.231-.119.231-.149l.024-.355c.136-.16.154-.083.178-.006.059.13.083.213.13.362zm.551-3.913a10.428 10.428 0 0 1-.213-.735c-.018-.1.065-.16.16-.142.332.07.652.148.99.237.107.023.107.112.036.183-.214.22-.44.41-.736.54-.154.083-.154.024-.237-.089zM24.572 4.28a2.43 2.43 0 0 0-.373-.913c-.155-.19-.332-.207-.498-.035-.06.059-.107.112-.143.166-.166.213-.154.278.095.397.38.112.593.332.86.61zM7.054 25.722a1.541 1.541 0 0 0-.492.439l-.343.593a2.57 2.57 0 0 0-.13.474l.058.06a2.757 2.757 0 0 0 .492-.357c.28-.272.344-.533.498-1.084l.03-.066ZM31.36 3.035a6.462 6.462 0 0 0-.534-.871c-.154-.19-.225-.202-.391-.036l-.148.166c-.166.208-.267.463 0 .498.237.042.551 0 .7.107l.32.213ZM3.39 17.855c-.04.41-.029.41-.029.688 0 .154.071.154.208.166.124 0 .166-.112.195-.26l.083-.558c.018-.178.03-.284-.077-.302-.207-.03-.355.1-.38.272Zm2.153-7.457a2.134 2.134 0 0 1-.516-.178c-.279-.142-.54-.445-.498-.717.024-.13.095-.166.202-.107.213.154.39.385.545.551.125.13.22.279.273.45Zm2.075 6.556c0 .113.094.44.13.623.012.1.036.178.178.16.19-.03.255-.107.225-.26-.018-.167-.06-.339-.095-.517-.035-.166-.106-.26-.255-.255-.154.018-.207.072-.19.25Zm8.186-10.41c-.118.208-.219.416-.355.6-.107.154-.273.242-.421.373-.142.035-.148.024-.101-.119a8.61 8.61 0 0 1 .652-.93c.166-.09.225-.018.22.077zm11.068 5.727c0 .13-.024.255-.065.38l-.036.017c-.172-.432-.586-1.126-.557-1.197-.012-.048.1-.077.148-.065l.19.077c.107.255.22.498.32.788zm1.204-9.141c.017 0 .089.024.136.065.083.065.095.143-.018.19-.26.119-.693.356-.978.456-.053.03-.119.036-.089-.065.053-.166.711-.652.949-.652zm-9.438 11.98c-.178 0-.332.143-.332.285 0 .16.208.332.391.332.166 0 .279-.106.279-.272.012-.202-.13-.344-.338-.344zM4.096 29.043c-.035 0-.106.118-.166.124-.225.018-.296.042-.296.137 0 .124.06.19.166.16.332-.101.409-.09.842-.06l.148-.177c-.053-.042-.089-.095-.148-.113a2.466 2.466 0 0 0-.552-.071zM23.535 13.16c-.071.042-.13.09-.113.172l.06.13c.124-.023.266-.035.402-.023.178.06.475.119.658.154.048.012.101-.035.137-.083l-.042-.07c-.255-.256-.676-.262-1.102-.274ZM11.376 7.582l-.45-.201c-.03-.012-.048-.095-.018-.13a5.8 5.8 0 0 1 .308-.416c.06-.06.1-.053.124.018l.226.563c.047.113 0 .154-.19.166zm-5.934 5.543c.107-.024.16.047.148.142-.012.06-.03.077-.118.119-.344.112-.652.106-1.008.035-.107-.012-.178-.035-.196-.059a.207.207 0 0 1 .13-.095Zm3.166-8.85c-.036.005-.072.035-.095.017-.297-.166-.712-.385-.978-.557-.06-.09-.024-.119.059-.107.22.071.593.178.806.26.142.072.184.196.208.386Zm4.493 6.437c.036.053.065.1-.024.25-.154.236-.19.473-.29.788a.714.714 0 0 1-.1.19c-.03.035-.084.047-.12.064-.011-.035-.035-.088-.029-.118l.296-.972c.048-.119.137-.178.267-.202zm10.777-3.248a5.353 5.353 0 0 1-1.161-.404c-.125-.112-.101-.106.059-.112l1.09.296c.208.154.167.148.012.22zm-4.493 6.906a.368.368 0 0 0-.166-.208.216.216 0 0 0-.22.036.723.723 0 0 0-.177.154c-.083.119-.03.231.1.326.107.077.232.071.303-.036.065-.083.124-.142.16-.272zm-7.268-5.336c-.041.09-.053.172-.107.232-.148.177-.314.343-.474.515-.16.072-.166-.023-.148-.1.148-.279.356-.51.551-.735.018-.024.083-.042.107-.024.03.018.047.06.071.112zm-6.23-1.511c-.042.023-.623-.89-.694-1.067 0-.036.095-.107.142-.143.036.024.083.06.101.09.184.397.51 1.066.486 1.096zm-.25 3.634-.248-.113c-.178.042-.332.119-.534.148-.213.012-.302-.03-.385-.083.03-.07.148-.136.32-.166.1-.017.533-.059.913-.023zM28.1 6.515l.64.48c.06.048.054.137.078.19l-.143-.018c-.272-.136-.563-.249-.74-.516-.155-.23.094-.201.165-.136Zm-16.219.794-.071.113c-.024-.036-.06-.065-.083-.113-.054-.106-.054-.237-.06-.355-.035-.273-.023-.415.143-.587.071-.077.118-.03.118.041.018.344 0 .563-.047.901zM7.778 6.302c.059.03.166.681.237 1.02a.703.703 0 0 1 0 .248c-.03.077-.06.095-.119.03-.112-.35-.166-.7-.225-1.032-.018-.1-.018-.207.107-.26Zm18.715 3.995c.26.148.569.415.7.57.029.029.017.118 0 .183-.048-.018-.096-.018-.131-.047-.22-.137-.421-.297-.629-.44-.023-.017-.03-.177-.053-.213a.237.237 0 0 1 .113-.059zM14.429 4.612c.042.03.06.06.089.095a.237.237 0 0 1-.089.1c-.19.072-.628.072-.806-.035a.563.563 0 0 1-.095-.107l.124-.07c.261-.06.552-.036.771.023zm4.962 1.061c.178.273.255.54.332.836 0 .018-.012.024-.012.071-.041-.03-.065-.035-.083-.06a1.541 1.541 0 0 1-.439-.728c-.023-.06-.012-.119.071-.166a.296.296 0 0 1 .13.047zm-3.432 18.881c.213-.118.272-.213.456-.326.077-.047.071-.059.03-.13-.042-.083-.083-.083-.19-.06-.208.078-.29.125-.498.208-.089.036-.119.071-.03.142zM9.497 4.991c.255-.177.533-.266.812-.373.047-.012.113.006.16.053l-.095.083c-.225.16-.444.279-.652.403a.94.94 0 0 1-.225-.035.166.166 0 0 1 0-.13zm-6.592 5.407c-.06-.296-.142-.658-.09-.925.013-.06.054-.112.12-.166.047.054.106.09.112.136.053.315-.036.664-.06.949ZM17.269 3.74c.19-.154.51-.32.74-.433a2.786 2.786 0 0 1-.758.812c-.018-.119-.06-.314.018-.38zm-3.534 11.524c0 .118.06.255.155.35.059-.048.1-.13.1-.166.024-.237.036-.475.036-.712.03-.095-.107-.118-.142-.023-.054.177-.143.367-.149.55zm12.118 9.544-1.02.344c.237.267.925.047 1.02-.344zM10.825 6.278c.018.273-.036.61-.178.86a.417.417 0 0 1-.107.082c-.012-.047-.06-.083-.053-.118.06-.279.124-.605.195-.883.006-.018.054-.03.078-.036zM25.112 25.78c.219 0 .432 0 .592-.047.154-.095.149-.29.196-.42l-.06-.019-.236.22a3.438 3.438 0 0 1-.498.1c-.03.036-.06.06-.077.101.03.036.059.065.088.071zm-2.04-10.925c.071-.16.137-.308.19-.457.012-.03-.036-.118-.095-.172a.433.433 0 0 0-.118.06 2.205 2.205 0 0 0-.327.486c.024.035.13.035.344.083zM5.993 10.528l.214-.545a.147.147 0 0 1 .1 0c.03.172 0 .433-.011.54-.036.148-.09.237-.22.302a.901.901 0 0 1-.083-.297zm12.45 4.055c-.149 0-.267.09-.28.22 0 .112.12.213.256.213a.258.258 0 0 0 .255-.231c0-.13-.083-.202-.232-.202zm-.131 1.358c0-.148-.089-.25-.249-.25-.13 0-.22.084-.22.196 0 .137.137.267.273.255.119 0 .196-.089.196-.201zm-.557-1.393c0 .118-.077.195-.196.195-.154 0-.273-.095-.273-.237a.237.237 0 0 1 .226-.22c.118-.011.237.096.237.262zm.095.55c-.13 0-.22.084-.22.197 0 .118.119.219.25.219.1 0 .195-.107.195-.22 0-.106-.095-.195-.225-.195zm-1.447 9.865c-.178 0-.32.083-.314.178.006.095.142.22.243.22.119 0 .178-.12.178-.261-.012-.113 0-.137-.107-.137zM5.887 4.084a1.915 1.915 0 0 1 .035-.966c.142.285.154.753-.035.966ZM18.3 13.747c-.089.06-.166.149-.154.184.012.065.083.125.124.196a.356.356 0 0 0 .149-.178c.017-.042-.06-.113-.125-.202z" fill="#53565a" style="fill:#000;stroke-width:.592812"/>
</svg>