<?xml version="1.0" encoding="UTF-8" standalone="no"?>
<!DOCTYPE svg PUBLIC "-//W3C//DTD SVG 1.1//EN" "http://www.w3.org/Graphics/SVG/1.1/DTD/svg11.dtd">
<!-- Created with Vectornator (http://vectornator.io/) -->
<svg height="80.0pt" stroke-miterlimit="10" style="fill-rule:nonzero;clip-rule:evenodd;stroke-linecap:round;stroke-linejoin:round;" version="1.1" viewBox="0 0 200 80" width="200.0pt" xml:space="preserve" xmlns="http://www.w3.org/2000/svg" xmlns:xlink="http://www.w3.org/1999/xlink">
<defs/>
<g id="Sem-Título">
<g opacity="1">
<path d="M11.7749 56.533C7.72313 56.58 3.70824 55.7592 0 54.1258L0.841065 48.0933C4.07887 50.1177 7.81158 51.2114 11.6299 51.2545C17.8074 51.2545 20.3306 47.7163 20.3306 44.323C20.4466 35.7964 0.377029 34.5783 0.377029 21.7303C0.377029 14.8568 4.90138 9.28833 15.4582 9.28833C19.2159 9.22837 22.9433 9.96989 26.392 11.4635L26.102 17.496C22.8582 15.6402 19.195 14.6421 15.4582 14.5957C8.96169 14.5957 7.01854 18.134 7.01854 21.5273C7.01854 30.2279 27.0881 31.9971 27.0881 44.149C27.0591 51.0225 21.4906 56.533 11.7749 56.533Z" fill="#000000" fill-rule="nonzero" opacity="1" stroke="none"/>
<path d="M59.4256 53.6327C56.0323 55.714 52.0907 56.7247 48.1147 56.533C39.414 56.533 32.9465 50.2105 32.9465 38.2906C32.9465 25.8486 41.3862 20.5702 48.2597 20.5702C54.5242 20.5702 58.9035 22.1363 59.4256 26.6897C59.4256 27.3567 59.4256 28.3428 59.4256 29.1839L54.0601 29.1839C54.0601 26.2836 52.465 25.5586 48.5497 25.5586C47.2145 25.4411 45.8708 25.6502 44.6344 26.1676C44.0254 26.5447 39.269 28.8938 39.269 38.0875C39.269 47.2812 44.7794 51.5736 49.6808 51.5736C53.0496 51.3528 56.2782 50.1421 58.9615 48.0933L59.4256 53.6327Z" fill="#000000" fill-rule="nonzero" opacity="1" stroke="none"/>
<path d="M78.654 56.533C69.1413 56.533 62.8188 49.4564 62.8188 38.5806C62.8188 28.5458 68.6193 20.5702 79.4951 20.5702C89.0658 20.5702 95.4173 27.4437 95.4173 38.5806C95.3883 49.2824 88.9788 56.533 78.654 56.533ZM78.654 25.5296C76.5667 25.5086 74.5298 26.1706 72.8536 27.4147C70.3611 30.5068 69.0366 34.3777 69.1123 38.3486C69.1123 49.1954 74.9127 51.6896 79.4371 51.6896C81.5196 51.6802 83.5474 51.0211 85.2375 49.8044C87.7915 46.84 89.1737 43.0442 89.1238 39.1316C89.1238 32.9251 87.0937 25.6746 78.712 25.6746L78.654 25.5296Z" fill="#000000" fill-rule="nonzero" opacity="1" stroke="none"/>
<path d="M116.589 56.533C113.979 56.5925 111.394 56.0257 109.048 54.8798L109.048 70.715L103.248 70.715L103.248 31.098C103.248 28.4588 103.103 26.1096 102.958 24.3985L102.668 21.4983L107.975 21.4983L108.874 26.5447C111.538 22.7863 115.869 20.5664 120.475 20.5992C127.407 20.5992 132.83 25.1235 132.83 37.1885C132.83 49.2534 126.218 56.533 116.589 56.533ZM119.228 25.7616C117.679 25.7897 116.146 26.0941 114.704 26.6607C112.521 28.4485 110.572 30.5045 108.903 32.7801L108.903 49.6014C109.549 49.9901 110.229 50.3201 110.934 50.5875C112.408 51.2268 113.996 51.5622 115.603 51.5736C123.056 51.5736 126.45 46.0631 126.45 37.8555C126.595 33.1572 125.696 25.9066 119.199 25.9066L119.228 25.7616Z" fill="#000000" fill-rule="nonzero" opacity="1" stroke="none"/>
<path d="M168.764 55.7789L163.486 55.7789L162.557 50.7325C160.306 54.7151 155.952 57.0335 151.392 56.678C145.359 56.678 140.458 54.1838 140.458 45.4541L140.458 21.7303L146.258 21.7303L146.258 41.4518C146.258 47.0202 146.722 51.7186 152.059 51.7186C154.072 51.7207 156.058 51.254 157.859 50.3555C159.826 48.6775 161.443 46.6274 162.615 44.323L162.615 21.7303L168.416 21.7303L168.416 46.4692C168.376 48.7062 168.473 50.9435 168.706 53.1687L168.764 55.7789Z" fill="#000000" fill-rule="nonzero" opacity="1" stroke="none"/>
<path d="M187.615 56.736C183.865 56.7903 180.176 55.785 176.972 53.8357L177.639 48.4123C180.351 50.5677 183.688 51.7885 187.151 51.8926C191.966 51.8926 194.228 49.7174 194.228 47.0782C194.228 40.1467 177.175 40.5237 177.175 29.9669C177.175 24.8335 181.177 20.6282 189.385 20.6282C192.822 20.5818 196.209 21.4635 199.187 23.1804L198.578 28.6038C196.047 26.4098 192.792 25.2319 189.443 25.2976C185.585 25.2976 182.946 26.8057 182.946 29.5319C182.946 36.4054 199.999 35.7964 199.999 46.6432C200.057 51.7766 196.287 56.736 187.615 56.736Z" fill="#000000" fill-rule="nonzero" opacity="1" stroke="none"/>
</g>
</g>
</svg>
