<?xml version="1.0" encoding="UTF-8"?><svg id="a" xmlns="http://www.w3.org/2000/svg" viewBox="0 0 160 80"><defs><style>.c{stroke-width:0px;}</style></defs><g id="b"><path class="c" d="m9.42,59.23c-3.24.04-6.45-.62-9.42-1.93l.67-4.83c2.59,1.62,5.58,2.49,8.63,2.53,4.94,0,6.96-2.83,6.96-5.55.09-6.82-15.96-7.8-15.96-18.07,0-5.5,3.62-9.95,12.06-9.95,3.01-.05,5.99.55,8.75,1.74l-.23,4.83c-2.6-1.48-5.53-2.28-8.52-2.32-5.2,0-6.75,2.83-6.75,5.55,0,6.96,16.06,8.38,16.06,18.1-.02,5.5-4.48,9.91-12.25,9.91Z"/><path class="c" d="m47.54,56.91c-2.71,1.67-5.87,2.47-9.05,2.32-6.96,0-12.13-5.06-12.13-14.59s6.75-14.18,12.25-14.18c5.01,0,8.52,1.25,8.93,4.9v2h-4.29c0-2.32-1.28-2.9-4.41-2.9-1.07-.09-2.14.07-3.13.49-.49.3-4.29,2.18-4.29,9.54s4.41,10.79,8.33,10.79c2.7-.18,5.28-1.15,7.42-2.78l.37,4.43Z"/><path class="c" d="m62.92,59.23c-7.61,0-12.67-5.66-12.67-14.36,0-8.03,4.64-14.41,13.34-14.41,7.66,0,12.74,5.5,12.74,14.41-.02,8.56-5.15,14.36-13.41,14.36Zm0-24.8c-1.67-.02-3.3.51-4.64,1.51-1.99,2.47-3.05,5.57-2.99,8.75,0,8.68,4.64,10.67,8.26,10.67,1.67,0,3.29-.53,4.64-1.51,2.04-2.37,3.15-5.41,3.11-8.54,0-4.97-1.62-10.77-8.33-10.77l-.05-.12Z"/><path class="c" d="m93.27,59.23c-2.09.05-4.16-.41-6.03-1.32v12.67h-4.64v-31.69c0-2.11-.12-3.99-.23-5.36l-.23-2.32h4.25l.72,4.04c2.13-3.01,5.6-4.78,9.28-4.76,5.55,0,9.88,3.62,9.88,13.27s-5.29,15.48-12.99,15.48Zm2.11-24.62c-1.24.02-2.47.27-3.62.72-1.75,1.43-3.31,3.08-4.64,4.9v13.46c.52.31,1.06.57,1.62.79,1.18.51,2.45.78,3.74.79,5.96,0,8.68-4.41,8.68-10.97.12-3.76-.6-9.56-5.8-9.56l.02-.12Z"/><path class="c" d="m135.01,58.62h-4.22l-.74-4.04c-1.8,3.19-5.28,5.04-8.93,4.76-4.83,0-8.75-2-8.75-8.98v-18.98h4.64v15.78c0,4.45.37,8.21,4.64,8.21,1.61,0,3.2-.37,4.64-1.09,1.57-1.34,2.87-2.98,3.8-4.83v-18.07h4.64v19.79c-.03,1.79.05,3.58.23,5.36l.05,2.09Z"/><path class="c" d="m150.09,59.39c-3,.04-5.95-.76-8.51-2.32l.53-4.34c2.17,1.72,4.84,2.7,7.61,2.78,3.85,0,5.66-1.74,5.66-3.85,0-5.55-13.64-5.24-13.64-13.69,0-4.11,3.2-7.47,9.77-7.47,2.75-.04,5.46.67,7.84,2.04l-.49,4.34c-2.02-1.76-4.63-2.7-7.31-2.64-3.09,0-5.2,1.21-5.2,3.39,0,5.5,13.64,5.01,13.64,13.69.05,4.11-2.97,8.07-9.91,8.07Z"/></g></svg>