<?xml version="1.0" encoding="UTF-8" standalone="no"?>
<svg height="32" viewBox="0 0 32 32" width="32" version="1.1" id="svg1" sodipodi:docname="scopus.svg" inkscape:version="1.4-beta2 (9aaf4f34, 2024-07-30)" xmlns:inkscape="http://www.inkscape.org/namespaces/inkscape" xmlns:sodipodi="http://sodipodi.sourceforge.net/DTD/sodipodi-0.dtd" xmlns="http://www.w3.org/2000/svg" xmlns:svg="http://www.w3.org/2000/svg">
  <defs id="defs1" />
  <sodipodi:namedview id="namedview1" pagecolor="#ffffff" bordercolor="#000000" borderopacity="0.25" inkscape:showpageshadow="2" inkscape:pageopacity="0.0" inkscape:pagecheckerboard="0" inkscape:deskcolor="#d1d1d1" inkscape:zoom="2.9447338" inkscape:cx="26.487963" inkscape:cy="56.541614" inkscape:window-width="1440" inkscape:window-height="790" inkscape:window-x="0" inkscape:window-y="0" inkscape:window-maximized="1" inkscape:current-layer="svg1" />
  <path d="M 1,1 V 31 H 31 V 1 Z m 9.126204,7.8067031 c 1.73608,0 2.503139,0.2020219 3.573076,0.6461344 l -0.100938,1.5946215 c -1.150653,-0.686371 -2.059042,-0.888065 -3.3712,-0.888065 -1.5140192,0 -2.2812654,1.150519 -2.2812654,2.200237 0,1.413094 1.3525603,1.938057 2.6243594,2.705157 1.63513,0.968981 3.330917,1.83704 3.330917,3.754809 0,2.523375 -2.160121,3.795084 -4.2192074,3.795084 -1.4736618,0 -2.5434759,-0.222065 -3.5932153,-0.706556 l 0.2423859,-1.594847 c 1.0295419,0.625791 1.9177482,0.9288 3.2702635,0.9288 1.3727123,0 2.5231943,-0.92864 2.5231943,-2.220609 0,-1.332338 -1.291789,-1.837153 -2.5231943,-2.584078 -1.6553278,-1.00935 -3.4721372,-1.897603 -3.4721372,-3.956682 0,-2.059068 1.5139547,-3.6740059 3.9969615,-3.6740059 z m 12.633135,0 c 2.038888,0 2.947322,0.2423532 4.057618,0.7672125 l -0.12108,1.5140534 c -1.211245,-0.666188 -2.483085,-0.928575 -4.138413,-0.928575 -2.624319,0 -4.865112,2.07914 -4.865112,5.450362 0,3.189544 2.281206,5.591813 5.147782,5.591813 1.312157,0 2.624337,-0.262407 3.855743,-0.928575 l 0.121079,1.5342 c -1.0901,0.545043 -2.462715,0.767212 -4.118043,0.767212 -3.290496,0 -6.823196,-2.422622 -6.823196,-6.843572 0,-3.875906 2.967341,-6.9241309 6.883622,-6.9241309 z" opacity="0.999" id="path1" style="stroke-width:0.078125" />
</svg>
