<?xml version="1.0" encoding="UTF-8" standalone="no"?>
<svg id="a" viewBox="0 0 32 32" version="1.1" sodipodi:docname="searchcode.svg" width="32" height="32" inkscape:version="1.4-beta2 (9aaf4f34, 2024-07-30)" xmlns:inkscape="http://www.inkscape.org/namespaces/inkscape" xmlns:sodipodi="http://sodipodi.sourceforge.net/DTD/sodipodi-0.dtd" xmlns="http://www.w3.org/2000/svg" xmlns:svg="http://www.w3.org/2000/svg">
  <defs id="defs12" />
  <sodipodi:namedview id="namedview12" pagecolor="#ffffff" bordercolor="#000000" borderopacity="0.25" inkscape:showpageshadow="2" inkscape:pageopacity="0.0" inkscape:pagecheckerboard="0" inkscape:deskcolor="#d1d1d1" inkscape:zoom="4.0215163" inkscape:cx="14.173758" inkscape:cy="12.557453" inkscape:window-width="1440" inkscape:window-height="790" inkscape:window-x="0" inkscape:window-y="0" inkscape:window-maximized="1" inkscape:current-layer="a" />
  <g id="g12" transform="matrix(0.56338028,0,0,0.56338028,1.9103746,-6.540845)">
    <path d="m 24.45,11.61 h 0.75 c 4.6,2.09 8.93,4.71 13.33,7.21 3.63,2.24 7.47,4.22 10.79,6.9 0.34,1.13 0.51,2.3 0.5,3.48 0.28,6.79 0.22,13.61 0,20.4 0,1.57 -0.2,3.14 -0.57,4.67 -2.1,1.87 -4.67,3.12 -7,4.67 l -5.8,-6.95 C 40.82,47.64 42.5,41.28 40.85,35.34 38.65,27.21 29.62,21.81 21.46,23.86 12.53,25.83 6.89,34.66 8.86,43.59 c 1.22,5.54 5.19,10.06 10.52,12 3.83,1.36 8.02,1.31 11.82,-0.13 1.51,2.45 3.01,4.9 4.52,7.35 -3.41,1.97 -6.92,3.73 -10.37,5.6 H 24.42 C 23.19,67.26 21.5,66.88 20.09,66.01 13.41,62.27 6.67,58.67 0.5,54.18 0.12,50.61 0.06,47.01 0.01,43.41 V 38.22 C 0.11,34.09 0.09,29.95 0.57,25.84 8.09,20.4 16.46,16.23 24.46,11.62 Z" style="stroke-width:0px" id="path1" />
    <path d="m 21.68,29.57 c 5.76,-1.87 11.94,1.28 13.81,7.04 1.87,5.76 -1.28,11.94 -7.04,13.81 -5.76,1.87 -11.94,-1.28 -13.81,-7.04 -0.56,-1.72 -0.68,-3.54 -0.36,-5.32 0.71,-3.98 3.56,-7.24 7.4,-8.48 z" style="stroke-width:0px" id="path12" />
  </g>
</svg>
