<?xml version="1.0" encoding="UTF-8"?><svg id="a" xmlns="http://www.w3.org/2000/svg" viewBox="0 0 233.42 80"><defs><style>.k{stroke-width:0px;}</style></defs><g id="b"><g id="c"><path id="d" class="k" d="m27.66,29.34c-.81-.84-1.85-1.54-3.15-2.1-1.29-.56-2.82-.84-4.57-.84-2.17,0-3.92.45-5.25,1.37-1.33.87-1.99,2.07-1.99,3.57,0,1.61,1.28,2.85,3.83,3.73l7.93,2.73c2.73.91,4.74,2.08,6.04,3.52s1.94,3.2,1.94,5.3c0,2.8-.75,5.21-2.26,7.25-1.51,1.99-3.55,3.52-6.14,4.57-2.59,1.05-5.51,1.57-8.77,1.57-3.67,0-6.79-.61-9.35-1.84-2.55-1.26-4.46-3.03-5.72-5.3-.14-.25-.21-.49-.21-.73s.14-.45.42-.63l4.15-2.52c.25-.17.51-.26.79-.26.42,0,.81.23,1.15.68.91,1.12,1.73,1.99,2.47,2.63.77.59,1.7,1.05,2.78,1.37,1.12.31,2.55.47,4.31.47,2.21,0,3.99-.4,5.35-1.21,1.37-.84,2.05-2.13,2.05-3.89,0-.87-.31-1.59-.95-2.15-.63-.59-1.65-1.14-3.05-1.63l-7.67-2.57c-2.52-.84-4.45-2.07-5.77-3.67-1.29-1.65-1.94-3.52-1.94-5.62,0-2.59.73-4.88,2.21-6.87,1.47-1.99,3.43-3.53,5.88-4.62,2.49-1.09,5.2-1.63,8.13-1.63s5.65.54,7.93,1.63c2.31,1.05,4.09,2.41,5.35,4.09.28.35.42.61.42.79s-.12.33-.37.47l-4.67,3.1s-.11.05-.21.05c-.21,0-.58-.26-1.1-.79h0Z"/><path id="e" class="k" d="m48.85,60c-2.49,0-4.69-.51-6.61-1.52s-3.41-2.43-4.46-4.25c-1.05-1.85-1.57-3.99-1.57-6.41,0-2.87.68-5.58,2.05-8.13,1.4-2.59,3.31-4.65,5.72-6.19,2.45-1.57,5.18-2.36,8.19-2.36,3.67,0,6.6,1.09,8.77,3.25,2.17,2.17,3.25,5.16,3.25,8.97,0,1.01-.07,1.99-.21,2.94-.07.28-.19.49-.37.63-.14.11-.42.16-.84.16h-17.7c-.56,0-.84.75-.84,2.26,0,1.65.53,2.92,1.57,3.83,1.09.87,2.49,1.31,4.2,1.31,1.33,0,2.57-.28,3.73-.84s2.29-1.43,3.41-2.63c.17-.17.35-.26.53-.26.11,0,.33.07.68.21l3.47,1.63c.42.14.63.37.63.68,0,.17-.09.4-.26.68-2.03,2.27-4.06,3.85-6.09,4.73-1.99.87-4.41,1.31-7.25,1.31h0Zm6.67-17.12c.84,0,1.26-.68,1.26-2.05s-.4-2.45-1.21-3.36c-.81-.95-1.93-1.42-3.36-1.42-1.75,0-3.31.67-4.67,1.99-1.33,1.29-2.1,2.91-2.31,4.83h10.29Z"/><path id="f" class="k" d="m82.35,56.9c-2.1,2.07-4.97,3.1-8.61,3.1-2.45,0-4.37-.63-5.77-1.89-1.4-1.26-2.1-2.91-2.1-4.93,0-2.49.82-4.51,2.47-6.09,1.65-1.61,3.71-2.77,6.19-3.47,2.52-.73,5.13-1.14,7.82-1.21l1.89-.16c.67,0,1.05-.33,1.15-1l.16-1.1c.03-.17.05-.45.05-.84,0-2.1-1.21-3.15-3.62-3.15-2.77,0-4.81,1.09-6.14,3.25-.17.25-.4.37-.68.37-.21,0-.37-.02-.47-.05l-5.09-1.21c-.35-.07-.53-.3-.53-.68,0-.35.09-.7.26-1.05,2.31-3.78,6.67-5.67,13.08-5.67,3.78,0,6.55.67,8.29,1.99,1.79,1.33,2.68,3.17,2.68,5.51,0,.31-.03.82-.11,1.52l-2.63,18.38c-.03.45-.11.73-.21.84-.11.07-.35.11-.73.11h-5.41c-.35,0-.58-.11-.68-.31-.11-.21-.17-.56-.21-1.05l.05-1.37c0-.28-.09-.42-.26-.42s-.45.19-.84.58h0v-.02Zm2.26-10.08v-.31c0-.14-.03-.23-.11-.26-.07-.07-.21-.09-.42-.05l-1.89.16c-2.03.14-3.92.65-5.67,1.52s-2.63,2.22-2.63,4.04c0,.84.3,1.52.89,2.05.63.49,1.47.73,2.52.73.91,0,1.77-.12,2.57-.37.81-.28,1.51-.65,2.1-1.1,1.29-.98,2.01-1.98,2.15-2.99l.47-3.41h0Z"/><path id="g" class="k" d="m97.28,59.47c-.42,0-.73-.12-.95-.37-.17-.25-.23-.56-.16-.95l3.62-25.78c.03-.31.09-.51.16-.58.11-.11.3-.16.58-.16h6.25c.63,0,.87.37.73,1.1l-.37,2.36v.21c0,.25.07.37.21.37.11,0,.26-.11.47-.31,1.23-1.29,2.59-2.33,4.09-3.1,1.51-.77,2.87-1.15,4.09-1.15.73,0,1.28.05,1.63.16s.51.31.47.63l-.84,5.88c-.03.39-.11.63-.21.73-.07.11-.21.14-.42.11-1.19-.17-2.38-.26-3.57-.26-.91,0-1.87.25-2.89.73-1.01.45-1.89,1.07-2.63,1.84-.7.73-1.1,1.47-1.21,2.21l-2.15,15.33c-.07.45-.19.73-.37.84-.14.11-.47.16-1,.16h-5.57,0Z"/><path id="h" class="k" d="m151.67,57.64c.31.56.47.98.47,1.26,0,.21-.09.37-.26.47-.17.07-.44.11-.79.11h-7.29c-.42,0-.75-.05-1-.16-.21-.11-.39-.31-.53-.63l-5.83-12.13c-.17-.35-.35-.53-.53-.53-.11,0-.3.19-.58.58l-9.35,12.24c-.17.28-.39.45-.63.53-.21.07-.58.11-1.1.11h-6.14c-.7,0-1.05-.23-1.05-.68,0-.31.26-.84.79-1.57l13.44-16.86c.39-.42.58-.79.58-1.1,0-.25-.03-.44-.11-.58l-8.77-17.12c-.11-.17-.16-.35-.16-.53,0-.35.26-.53.79-.53h7.67c.45,0,.77.05.95.16.17.11.35.33.53.68l5.09,10.71c.11.28.23.42.37.42s.31-.14.53-.42l8.29-10.92c.21-.28.4-.45.58-.53.21-.07.54-.11,1-.11h6.77c.42,0,.63.19.63.58,0,.28-.11.59-.31.95l-13.02,16.17c-.35.45-.53.77-.53.95,0,.14.05.31.16.53l9.35,17.96h-.02Z"/><path id="i" class="k" d="m194.69,20.52c.25,0,.4.07.47.21.07.11.09.3.05.58l-5.3,37.59c-.03.25-.12.4-.26.47-.11.07-.3.11-.58.11h-5.35c-.45,0-.86-.28-1.21-.84l-13.54-23.47c-.11-.17-.21-.26-.31-.26-.21,0-.33.19-.37.58l-3.25,23.15c-.07.35-.17.58-.31.68-.11.11-.35.16-.73.16h-5.77c-.56,0-.81-.39-.73-1.15l5.25-37.01c.07-.35.14-.56.21-.63.11-.11.33-.16.68-.16h6.35c.35,0,.61.09.79.26.21.14.4.39.58.73l12.39,21.89c.17.28.35.42.53.42.28,0,.44-.21.47-.63l3.05-22c.03-.28.11-.45.21-.53.14-.11.37-.16.68-.16h6.04-.01Z"/><path id="j" class="k" d="m213.63,60c-3.15,0-5.88-.67-8.19-1.99s-4.08-3.2-5.3-5.62c-1.19-2.45-1.79-5.32-1.79-8.61,0-4.34.86-8.31,2.57-11.92,1.71-3.64,4.15-6.53,7.29-8.66,3.15-2.13,6.77-3.2,10.87-3.2,2.8,0,5.27.54,7.4,1.63,2.17,1.09,3.85,2.52,5.04,4.31,1.19,1.75,1.82,3.62,1.89,5.62,0,.35-.03.61-.11.79-.03.14-.12.23-.26.26l-7.19,1.05h-.05c-.14,0-.26-.09-.37-.26-.07-.17-.16-.53-.26-1.05-.25-1.75-.91-3.17-1.99-4.25-1.05-1.09-2.54-1.63-4.46-1.63-2.49,0-4.55.91-6.19,2.73-1.61,1.82-2.8,4.17-3.57,7.03-.77,2.83-1.15,5.79-1.15,8.87s.56,5.18,1.68,6.51c1.15,1.29,2.83,1.94,5.04,1.94s3.94-.59,5.41-1.79c1.47-1.19,2.55-2.64,3.25-4.36l.31-1.47c.11-.17.16-.3.16-.37,0-.21-.21-.31-.63-.31h-6.46c-.21,0-.35-.03-.42-.11-.07-.11-.09-.3-.05-.58l.47-4.31c.03-.39.21-.58.53-.58l15.02.05c.42,0,.68.07.79.21.14.11.17.33.11.68l-2.57,18.16c-.03.45-.31.68-.84.68h-1.57c-.31,0-.56-.05-.73-.16-.14-.11-.26-.31-.37-.63l-.89-3.83c-.03-.17-.16-.26-.37-.26s-.44.14-.68.42c-1.15,1.43-2.66,2.63-4.51,3.57s-4.13,1.42-6.83,1.42h-.01Z"/></g></g></svg>