<?xml version="1.0" encoding="UTF-8"?><svg id="a" xmlns="http://www.w3.org/2000/svg" viewBox="0 0 350.1 80"><defs><style>.k{stroke-width:0px;}</style></defs><g id="b"><g id="c"><path id="d" class="k" d="m41.5,24.02c-1.21-1.26-2.78-2.31-4.72-3.15-1.94-.84-4.23-1.26-6.85-1.26-3.25,0-5.88.68-7.87,2.05-1.99,1.31-2.99,3.1-2.99,5.35,0,2.41,1.92,4.28,5.75,5.59l11.89,4.09c4.09,1.36,7.11,3.12,9.06,5.28s2.91,4.8,2.91,7.95c0,4.2-1.13,7.82-3.39,10.87-2.26,2.99-5.33,5.28-9.21,6.85-3.88,1.57-8.27,2.36-13.15,2.36-5.51,0-10.18-.92-14.02-2.76-3.83-1.89-6.69-4.54-8.58-7.95-.21-.37-.31-.73-.31-1.1s.21-.68.63-.94l6.22-3.78c.37-.26.76-.39,1.18-.39.63,0,1.21.34,1.73,1.02,1.36,1.68,2.6,2.99,3.7,3.94,1.15.89,2.55,1.57,4.17,2.05,1.68.47,3.83.71,6.46.71,3.31,0,5.98-.6,8.03-1.81,2.05-1.26,3.07-3.2,3.07-5.83,0-1.31-.47-2.39-1.42-3.23-.94-.89-2.47-1.71-4.57-2.44l-11.5-3.86c-3.78-1.26-6.67-3.1-8.66-5.51-1.94-2.47-2.91-5.28-2.91-8.43,0-3.88,1.1-7.32,3.31-10.31,2.2-2.99,5.14-5.3,8.82-6.93,3.73-1.63,7.8-2.44,12.2-2.44s8.48.81,11.89,2.44c3.46,1.57,6.14,3.62,8.03,6.14.42.52.63.92.63,1.18s-.18.5-.55.71l-7.01,4.65c-.05.05-.16.08-.31.08-.31,0-.87-.39-1.65-1.18h0Z"/><path id="e" class="k" d="m73.29,70c-3.73,0-7.03-.76-9.92-2.28-2.89-1.52-5.12-3.65-6.69-6.38-1.57-2.78-2.36-5.98-2.36-9.61,0-4.3,1.02-8.37,3.07-12.2,2.1-3.88,4.96-6.98,8.58-9.29,3.67-2.36,7.77-3.54,12.28-3.54,5.51,0,9.9,1.63,13.15,4.88s4.88,7.74,4.88,13.46c0,1.52-.1,2.99-.31,4.41-.1.42-.29.73-.55.94-.21.16-.63.24-1.26.24h-26.54c-.84,0-1.26,1.13-1.26,3.39,0,2.47.79,4.38,2.36,5.75,1.63,1.31,3.73,1.97,6.3,1.97,1.99,0,3.86-.42,5.59-1.26,1.73-.84,3.44-2.15,5.12-3.94.26-.26.52-.39.79-.39.16,0,.5.1,1.02.31l5.2,2.44c.63.21.94.55.94,1.02,0,.26-.13.6-.39,1.02-3.04,3.41-6.09,5.77-9.13,7.09-2.99,1.31-6.61,1.97-10.87,1.97h0Zm10-25.67c1.26,0,1.89-1.02,1.89-3.07s-.6-3.67-1.81-5.04c-1.21-1.42-2.89-2.13-5.04-2.13-2.62,0-4.96,1-7.01,2.99-1.99,1.94-3.15,4.36-3.46,7.24h15.43Z"/><path id="f" class="k" d="m123.52,65.35c-3.15,3.1-7.45,4.65-12.91,4.65-3.67,0-6.56-.94-8.66-2.83-2.1-1.89-3.15-4.36-3.15-7.4,0-3.73,1.23-6.77,3.7-9.13,2.47-2.41,5.56-4.15,9.29-5.2,3.78-1.1,7.69-1.71,11.73-1.81l2.83-.24c1,0,1.57-.5,1.73-1.5l.24-1.65c.05-.26.08-.68.08-1.26,0-3.15-1.81-4.72-5.43-4.72-4.15,0-7.22,1.63-9.21,4.88-.26.37-.6.55-1.02.55-.31,0-.55-.03-.71-.08l-7.64-1.81c-.52-.1-.79-.45-.79-1.02,0-.52.13-1.05.39-1.57,3.46-5.67,10-8.5,19.61-8.5,5.67,0,9.82,1,12.44,2.99,2.68,1.99,4.02,4.75,4.02,8.27,0,.47-.05,1.23-.16,2.28l-3.94,27.56c-.05.68-.16,1.1-.31,1.26-.16.1-.52.16-1.1.16h-8.11c-.52,0-.87-.16-1.02-.47-.16-.31-.26-.84-.31-1.57l.08-2.05c0-.42-.13-.63-.39-.63s-.68.29-1.26.87h0Zm3.39-15.12v-.47c0-.21-.05-.34-.16-.39-.1-.1-.31-.13-.63-.08l-2.83.24c-3.04.21-5.88.97-8.5,2.28s-3.94,3.33-3.94,6.06c0,1.26.45,2.28,1.34,3.07.94.73,2.2,1.1,3.78,1.1,1.36,0,2.65-.18,3.86-.55,1.21-.42,2.26-.97,3.15-1.65,1.94-1.47,3.02-2.97,3.23-4.49l.71-5.12Z"/><path id="g" class="k" d="m145.92,69.21c-.63,0-1.1-.18-1.42-.55-.26-.37-.34-.84-.24-1.42l5.43-38.66c.05-.47.13-.76.24-.87.16-.16.45-.24.87-.24h9.37c.94,0,1.31.55,1.1,1.65l-.55,3.54v.31c0,.37.1.55.31.55.16,0,.39-.16.71-.47,1.84-1.94,3.88-3.49,6.14-4.65,2.26-1.15,4.3-1.73,6.14-1.73,1.1,0,1.92.08,2.44.24s.76.47.71.94l-1.26,8.82c-.05.58-.16.94-.31,1.1-.1.16-.31.21-.63.16-1.78-.26-3.57-.39-5.35-.39-1.36,0-2.81.37-4.33,1.1-1.52.68-2.83,1.6-3.94,2.76-1.05,1.1-1.65,2.2-1.81,3.31l-3.23,22.99c-.1.68-.29,1.1-.55,1.26-.21.16-.71.24-1.5.24h-8.35Z"/><path id="h" class="k" d="m227.48,66.46c.47.84.71,1.47.71,1.89,0,.31-.13.55-.39.71-.26.1-.66.16-1.18.16h-10.94c-.63,0-1.13-.08-1.5-.24-.31-.16-.58-.47-.79-.94l-8.74-18.19c-.26-.52-.52-.79-.79-.79-.16,0-.45.29-.87.87l-14.02,18.35c-.26.42-.58.68-.94.79-.31.1-.87.16-1.65.16h-9.21c-1.05,0-1.57-.34-1.57-1.02,0-.47.39-1.26,1.18-2.36l20.16-25.28c.58-.63.87-1.18.87-1.65,0-.37-.05-.66-.16-.87l-13.15-25.67c-.16-.26-.24-.52-.24-.79,0-.52.39-.79,1.18-.79h11.5c.68,0,1.15.08,1.42.24.26.16.52.5.79,1.02l7.64,16.06c.16.42.34.63.55.63s.47-.21.79-.63l12.44-16.38c.31-.42.6-.68.87-.79.31-.1.81-.16,1.5-.16h10.16c.63,0,.94.29.94.87,0,.42-.16.89-.47,1.42l-19.53,24.25c-.52.68-.79,1.15-.79,1.42,0,.21.08.47.24.79l14.02,26.93Z"/><path id="i" class="k" d="m292.01,10.79c.37,0,.6.1.71.31.1.16.13.45.08.87l-7.95,56.38c-.05.37-.18.6-.39.71-.16.1-.45.16-.87.16h-8.03c-.68,0-1.29-.42-1.81-1.26l-20.31-35.2c-.16-.26-.31-.39-.47-.39-.31,0-.5.29-.55.87l-4.88,34.72c-.1.52-.26.87-.47,1.02-.16.16-.52.24-1.1.24h-8.66c-.84,0-1.21-.58-1.1-1.73l7.87-55.51c.1-.52.21-.84.31-.94.16-.16.5-.24,1.02-.24h9.53c.52,0,.92.13,1.18.39.31.21.6.58.87,1.1l18.58,32.83c.26.42.52.63.79.63.42,0,.66-.31.71-.94l4.57-32.99c.05-.42.16-.68.31-.79.21-.16.55-.24,1.02-.24h9.06Z"/><path id="j" class="k" d="m320.41,70c-4.72,0-8.82-1-12.28-2.99s-6.12-4.8-7.95-8.43c-1.78-3.67-2.68-7.98-2.68-12.91,0-6.51,1.29-12.47,3.86-17.87,2.57-5.46,6.22-9.79,10.94-12.99,4.72-3.2,10.16-4.8,16.3-4.8,4.2,0,7.9.81,11.1,2.44,3.25,1.63,5.77,3.78,7.56,6.46,1.78,2.62,2.73,5.43,2.83,8.43,0,.52-.05.92-.16,1.18-.05.21-.18.34-.39.39l-10.79,1.57h-.08c-.21,0-.39-.13-.55-.39-.1-.26-.24-.79-.39-1.57-.37-2.62-1.36-4.75-2.99-6.38-1.57-1.63-3.81-2.44-6.69-2.44-3.73,0-6.82,1.36-9.29,4.09-2.41,2.73-4.2,6.25-5.35,10.55-1.15,4.25-1.73,8.69-1.73,13.31s.84,7.77,2.52,9.76c1.73,1.94,4.25,2.91,7.56,2.91s5.91-.89,8.11-2.68c2.2-1.78,3.83-3.96,4.88-6.54l.47-2.2c.16-.26.24-.45.24-.55,0-.31-.31-.47-.94-.47h-9.69c-.31,0-.52-.05-.63-.16-.1-.16-.13-.45-.08-.87l.71-6.46c.05-.58.31-.87.79-.87l22.52.08c.63,0,1.02.1,1.18.31.21.16.26.5.16,1.02l-3.86,27.24c-.05.68-.47,1.02-1.26,1.02h-2.36c-.47,0-.84-.08-1.1-.24-.21-.16-.39-.47-.55-.94l-1.34-5.75c-.05-.26-.24-.39-.55-.39s-.66.21-1.02.63c-1.73,2.15-3.99,3.94-6.77,5.35s-6.19,2.13-10.24,2.13h0Z"/></g></g></svg>