<svg id="svg8530" xmlns="http://www.w3.org/2000/svg" viewBox="0 0 200 80"><defs><style>.cls-1{fill:#212121;}</style></defs><g id="layer1"><g id="g7672"><g id="use7670"><path id="path9085" class="cls-1" d="M31.2,49.34a8.51,8.51,0,0,1-1,4.18,8.91,8.91,0,0,1-1.28,1.86A17.11,17.11,0,0,1,27.21,57a13.07,13.07,0,0,1-2.08,1.41,11.48,11.48,0,0,1-2.43,1,20.12,20.12,0,0,1-5.72.87c-.95,0-1.85,0-2.7-.11L12,60q-1.17-.18-2.25-.39c-.73-.14-1.43-.31-2.13-.5a11.51,11.51,0,0,1-2-.69L3.81,57.5c-.59-.34-1.2-.73-1.82-1.14S.7,55.51,0,55.08l6-5.37a15.44,15.44,0,0,0,5.2,2.77,23.75,23.75,0,0,0,2.65.63,22.43,22.43,0,0,0,2.77.26c.43,0,.83-.07,1.19-.13s.71-.16,1-.24a5,5,0,0,0,1-.37,8.64,8.64,0,0,0,.91-.5,3.72,3.72,0,0,0,.69-.6l.52-.61a2.74,2.74,0,0,0,.52-1.58,3.84,3.84,0,0,0-.11-.91,4.42,4.42,0,0,0-.24-.8,2,2,0,0,0-.49-.76,3.12,3.12,0,0,0-.89-.61,6.61,6.61,0,0,0-1.22-.71c-.43-.2-.95-.44-1.56-.7s-1.25-.51-2-.76-1.56-.52-2.51-.8a40.36,40.36,0,0,1-4.66-1.75,13.52,13.52,0,0,1-2.12-1.13A16.63,16.63,0,0,1,5,39.13a11.7,11.7,0,0,1-1.47-1.51,8.39,8.39,0,0,1-1.1-1.76,9.28,9.28,0,0,1-.94-2.38A11.24,11.24,0,0,1,1.21,31a10.32,10.32,0,0,1,1-4.68,10.62,10.62,0,0,1,3.1-3.66,17.55,17.55,0,0,1,2.06-1.24,15.29,15.29,0,0,1,2.45-1,17.56,17.56,0,0,1,2.73-.63,19.37,19.37,0,0,1,2.83-.22,29.7,29.7,0,0,1,4.64.26,20.22,20.22,0,0,1,3.86.93,23.64,23.64,0,0,1,3.22,1.48,14.07,14.07,0,0,1,2.84,2L24.09,29.6c-.52-.43-1.08-.85-1.69-1.26a9.43,9.43,0,0,0-1.93-1,13.18,13.18,0,0,0-4.72-.74,9.66,9.66,0,0,0-1.15.16c-.36.05-.72.13-1.08.21a4.25,4.25,0,0,0-1.11.37,7.78,7.78,0,0,0-.8.5,3.06,3.06,0,0,0-.67.63,8,8,0,0,0-.54.73,2.94,2.94,0,0,0-.54,1.58,3,3,0,0,0,.54,1.76,1.32,1.32,0,0,0,.48.67c.24.21.54.43.88.69a9.32,9.32,0,0,0,1.22.7c.44.2,1,.43,1.6.69a37.88,37.88,0,0,0,4.31,1.56c1.13.35,2.13.71,3,1.08a21.49,21.49,0,0,1,2.5,1.2,24.26,24.26,0,0,1,2.12,1.32,11.37,11.37,0,0,1,1.71,1.43,10.08,10.08,0,0,1,1.32,1.6,9.62,9.62,0,0,1,.93,1.69A10.59,10.59,0,0,1,31.2,49.34Zm48.7,10.4H71.4V42.43H55.65V59.74H47.16V20.42h8.49V36H71.4V20.42h8.5Zm46.94,0h-31V20.42h31v6.21h-22.7V36h21v6.07h-21V52.82h22.7Zm25.15,0H143.5V20.42H152Zm48-39.32V60.8L176.23,40.15V59.41H168V19.2l23.72,20.63V20.42Zm-8.32,0h0Z"/></g></g></g></svg>