<?xml version="1.0" encoding="UTF-8" standalone="no"?>
<svg id="svg8530" viewBox="0 0 32 32" version="1.1" sodipodi:docname="shein.svg" width="32" height="32" inkscape:version="1.4-beta2 (9aaf4f34, 2024-07-30)" xmlns:inkscape="http://www.inkscape.org/namespaces/inkscape" xmlns:sodipodi="http://sodipodi.sourceforge.net/DTD/sodipodi-0.dtd" xmlns="http://www.w3.org/2000/svg" xmlns:svg="http://www.w3.org/2000/svg">
  <sodipodi:namedview id="namedview1" pagecolor="#ffffff" bordercolor="#000000" borderopacity="0.25" inkscape:showpageshadow="2" inkscape:pageopacity="0.0" inkscape:pagecheckerboard="0" inkscape:deskcolor="#d1d1d1" inkscape:zoom="1.3218855" inkscape:cx="54.8459" inkscape:cy="153.19027" inkscape:window-width="1440" inkscape:window-height="872" inkscape:window-x="0" inkscape:window-y="0" inkscape:window-maximized="1" inkscape:current-layer="svg8530" />
  <defs id="defs1">
    <style id="style1">.cls-1{fill:#212121;}</style>
  </defs>
  <path d="m 28.258489,23.402204 a 6.6880479,6.6880479 0 0 1 -0.785905,3.285081 7.0024097,7.0024097 0 0 1 -1.005958,1.461783 13.446827,13.446827 0 0 1 -1.343897,1.273165 10.271773,10.271773 0 0 1 -1.634681,1.108126 A 9.0221845,9.0221845 0 0 1 21.5783,31.316263 15.8124,15.8124 0 0 1 17.082926,32 c -0.74661,0 -1.453924,0 -2.121943,-0.08645 L 13.16912,31.779947 q -0.919508,-0.141463 -1.768285,-0.306503 c -0.57371,-0.110026 -1.123843,-0.24363 -1.6739766,-0.392952 A 9.0457616,9.0457616 0 0 1 8.1550493,30.538218 L 6.732562,29.815186 C 6.2688783,29.547978 5.7894765,29.241475 5.3022157,28.919254 4.8149549,28.597034 4.2883988,28.251235 3.7382656,27.913297 L 8.453693,23.692989 a 12.134367,12.134367 0 0 0 4.086704,2.176956 18.665234,18.665234 0 0 0 2.082647,0.49512 A 17.62784,17.62784 0 0 0 16.8,26.5694 c 0.337939,0 0.652301,-0.05501 0.935226,-0.102168 0.282926,-0.04715 0.557993,-0.125745 0.785905,-0.188617 a 3.9295229,3.9295229 0 0 0 0.785905,-0.290785 6.7902155,6.7902155 0 0 0 0.715173,-0.392952 2.923565,2.923565 0 0 0 0.542274,-0.471543 l 0.40867,-0.479401 a 2.1533785,2.1533785 0 0 0 0.408671,-1.24173 3.0178736,3.0178736 0 0 0 -0.08645,-0.715173 3.4736982,3.4736982 0 0 0 -0.188617,-0.628724 1.5718091,1.5718091 0 0 0 -0.385093,-0.597287 2.4520223,2.4520223 0 0 0 -0.699455,-0.479402 5.1948292,5.1948292 0 0 0 -0.958804,-0.557992 c -0.337939,-0.157181 -0.746609,-0.345798 -1.226011,-0.550133 -0.479402,-0.204335 -0.982381,-0.400812 -1.571809,-0.597288 -0.589429,-0.196476 -1.226011,-0.40867 -1.972621,-0.628723 A 31.719109,31.719109 0 0 1 10.630649,17.272149 10.62543,10.62543 0 0 1 8.964531,16.384076 13.069593,13.069593 0 0 1 7.6677885,15.378119 9.1950835,9.1950835 0 0 1 6.5125087,14.191403 6.5937394,6.5937394 0 0 1 5.6480137,12.808211 7.2931944,7.2931944 0 0 1 4.9092634,10.937758 8.8335674,8.8335674 0 0 1 4.6892101,8.988714 8.1105352,8.1105352 0 0 1 5.4751147,5.310681 8.3463066,8.3463066 0 0 1 7.9114189,2.43427 13.792625,13.792625 0 0 1 9.5303823,1.459749 12.016481,12.016481 0 0 1 11.455848,0.67384396 a 13.800484,13.800484 0 0 1 2.14552,-0.49512 15.222972,15.222972 0 0 1 2.22411,-0.172899 23.341366,23.341366 0 0 1 3.646598,0.204335 15.89099,15.89099 0 0 1 3.033591,0.730892 A 18.578784,18.578784 0 0 1 25.03628,2.10419 11.057677,11.057677 0 0 1 27.268249,3.676 L 22.670707,7.888448 C 22.262037,7.550509 21.82193,7.220429 21.342528,6.898208 a 7.4110801,7.4110801 0 0 0 -1.516795,-0.785904 10.358222,10.358222 0 0 0 -3.70947,-0.58157 7.5918382,7.5918382 0 0 0 -0.90379,0.125745 c -0.282926,0.0393 -0.565852,0.102168 -0.848777,0.16504 a 3.3400944,3.3400944 0 0 0 -0.872355,0.290785 6.1143376,6.1143376 0 0 0 -0.628723,0.392952 2.404868,2.404868 0 0 0 -0.526556,0.49512 6.2872366,6.2872366 0 0 0 -0.424389,0.57371 2.3105594,2.3105594 0 0 0 -0.424388,1.241729 2.3577137,2.3577137 0 0 0 0.424388,1.383192 1.037394,1.037394 0 0 0 0.377234,0.526557 c 0.188617,0.16504 0.424389,0.337939 0.691596,0.542274 a 7.3246306,7.3246306 0 0 0 0.958804,0.550133 c 0.345798,0.157181 0.785905,0.337939 1.257448,0.542274 a 29.770065,29.770065 0 0 0 3.387248,1.226011 c 0.888073,0.275067 1.673977,0.557992 2.357714,0.848777 a 16.889089,16.889089 0 0 1 1.964762,0.943086 19.066045,19.066045 0 0 1 1.666117,1.037394 8.935735,8.935735 0 0 1 1.343897,1.123843 7.9219181,7.9219181 0 0 1 1.037394,1.257447 7.560402,7.560402 0 0 1 0.730891,1.328179 8.3227294,8.3227294 0 0 1 0.573711,3.277222 z" id="path9085" style="stroke-width:0.785905;fill:#000000" />
</svg>
