<svg id="Camada_1" data-name="Camada 1" xmlns="http://www.w3.org/2000/svg" viewBox="0 0 200 80"><defs><style>.cls-1{fill-rule:evenodd;}</style></defs><path class="cls-1" d="M36.5,47.16a7.81,7.81,0,0,1-4.83,6.37,12,12,0,0,1-5.15.89,16.63,16.63,0,0,1-7-1.82,17.46,17.46,0,0,1-2.82-1.94c-.23-.19-.26-.31-.11-.52l.56-.82.59-.87a.4.4,0,0,1,.64-.06l.05,0,.13.1.17.14a13.72,13.72,0,0,0,7.83,3c3.84-.06,6.59-1.78,7.09-4.43.54-2.91-1.75-5.43-6.22-6.83a51.61,51.61,0,0,1-5.59-2.24c-3.06-1.79-4.49-4.15-4.29-7.06.31-4,4-7,8.78-7A15.58,15.58,0,0,1,35,26.68a.43.43,0,0,1,.16.64c-.08.14-.22.35-.5.8h0c-.38.59-.39.61-.47.75s-.33.25-.59.08a13.19,13.19,0,0,0-7.22-2.25c-3.29.07-5.76,2-5.92,4.7,0,2.41,1.76,4.17,5.67,5.51,7.92,2.54,11,5.53,10.39,10.24M26.71,5.55c5.16,0,9.36,4.9,9.56,11H17.14c.2-6.13,4.41-11,9.57-11m26.7,12.18a1.14,1.14,0,0,0-1.14-1.15H39.87C39.57,8.48,33.79,2,26.71,2S13.85,8.48,13.54,16.58H1.13A1.14,1.14,0,0,0,0,17.73v.09H0l1.77,39c0,.11,0,.22,0,.33v.16h0a5.27,5.27,0,0,0,4.91,5H46.3a5.45,5.45,0,0,0,5.17-5h0v-.13a1.41,1.41,0,0,0,0-.2l1.93-39.17h0v-.06M184.7,43.16A5.89,5.89,0,0,1,190.43,39a6.34,6.34,0,0,1,5.83,4.12l.06.17H184.65l0-.16Zm14.21,3.58H199a1.06,1.06,0,0,0,1-1.08V45.5a9.58,9.58,0,1,0-19.14,0,9.87,9.87,0,0,0,.07,1.22v0l0,.11a9.63,9.63,0,0,0,2.42,5.23h0a10.16,10.16,0,0,0,5.68,3.13h0l.14,0,.26,0a13.31,13.31,0,0,0,7.68-1.17,9.16,9.16,0,0,0,1.45-.89l.36-.29.12-.11c.49-.51.52-.69.22-1.16s-.61-1-.86-1.33c-.09-.13-.16-.24-.23-.33l0-.08,0,0h0c-.27-.33-.46-.36-.76-.1l-.15.13a8.9,8.9,0,0,1-7.85,1.87,8.29,8.29,0,0,1-1.5-.54,6.37,6.37,0,0,1-3.44-4.37l0-.15Zm-37-3.58A5.89,5.89,0,0,1,167.66,39a6.35,6.35,0,0,1,5.83,4.12l.06.17H161.88Zm14.21,3.58h.09a1.06,1.06,0,0,0,1-1.08V45.5a9.58,9.58,0,1,0-19.14,0,9.87,9.87,0,0,0,.07,1.22v.13a9.72,9.72,0,0,0,2.43,5.23h0a10.13,10.13,0,0,0,5.68,3.13h0l.14,0,.26,0a13.31,13.31,0,0,0,7.68-1.17,9.05,9.05,0,0,0,1.44-.89,4.1,4.1,0,0,0,.36-.29l.12-.11c.5-.51.53-.69.23-1.16l-.86-1.33-.23-.33-.06-.08v0h0c-.27-.33-.46-.36-.76-.1l-.16.13a8.87,8.87,0,0,1-7.84,1.87,8.29,8.29,0,0,1-1.5-.54,6.34,6.34,0,0,1-3.44-4.37l0-.15Zm-31.59,5.45A6.54,6.54,0,0,1,138,45.83V45.5a6.56,6.56,0,1,1,6.56,6.69m0-16.5a10.06,10.06,0,0,0-6.36,2.25l-.2.17V36.28c0-.49-.11-.59-.6-.59H135.1c-.5,0-.6.1-.6.59v29.1c0,.47.11.59.6.59h2.29c.49,0,.6-.11.6-.59V53.24l.2.17a10,10,0,1,0,6.36-17.72M121,52a6.47,6.47,0,1,1,6.57-6.47A6.52,6.52,0,0,1,121,52m0-16.36A9.9,9.9,0,1,0,131,45.51,10,10,0,0,0,121,35.61m-22.44.22a9.43,9.43,0,0,0-5.63,1.86l-.19.14V24.32c0-.45-.15-.59-.6-.59H89.7c-.48,0-.59.11-.59.59V55.14c0,.47.12.6.59.6h2.4c.45,0,.6-.15.6-.6V45.08a5.82,5.82,0,0,1,11.64,0v10c0,.51.08.6.59.6h2.4c.5,0,.59-.09.59-.6V45.07a9.38,9.38,0,0,0-9.4-9.24M65.1,50.15h0c-.35.51-.49.73-.57.86-.27.4-.24.58.18.93a19,19,0,0,0,3,2,17.85,17.85,0,0,0,7.48,1.79,13,13,0,0,0,5.47-1,8.38,8.38,0,0,0,5.07-6.92c.53-5-2.75-8.19-11.19-10.73h0c-3.93-1.26-5.78-2.95-5.78-5.3.12-2.61,2.53-4.55,5.78-4.67a12.94,12.94,0,0,1,7.22,2.17c.48.29.7.24,1-.18,0-.07.14-.22.58-.84h0l.57-.83c.27-.51.23-.71-.26-1.05A17.27,17.27,0,0,0,81.06,25a17.06,17.06,0,0,0-6.63-1.24c-5.08.11-9,3.41-9.29,7.74-.17,3.12,1.42,5.64,4.73,7.5a52.71,52.71,0,0,0,5.92,2.24c4.51,1.32,6.86,3.75,6.37,6.61-.44,2.61-3.17,4.34-7,4.46a14,14,0,0,1-8-2.9L67,49.24l-.18-.14c-.5-.34-.79-.31-1.09.14,0,0-.41.63-.6.91"/></svg>