<?xml version="1.0" encoding="UTF-8" standalone="no"?>
<svg id="Camada_1" data-name="Camada 1" viewBox="0 0 32 32" version="1.1" sodipodi:docname="shopee.svg" width="32" height="32" inkscape:version="1.4-beta2 (9aaf4f34, 2024-07-30)" xmlns:inkscape="http://www.inkscape.org/namespaces/inkscape" xmlns:sodipodi="http://sodipodi.sourceforge.net/DTD/sodipodi-0.dtd" xmlns="http://www.w3.org/2000/svg" xmlns:svg="http://www.w3.org/2000/svg">
  <sodipodi:namedview id="namedview1" pagecolor="#ffffff" bordercolor="#000000" borderopacity="0.25" inkscape:showpageshadow="2" inkscape:pageopacity="0.0" inkscape:pagecheckerboard="0" inkscape:deskcolor="#d1d1d1" inkscape:zoom="5.7525303" inkscape:cx="10.430193" inkscape:cy="34.332718" inkscape:window-width="1440" inkscape:window-height="790" inkscape:window-x="0" inkscape:window-y="0" inkscape:window-maximized="1" inkscape:current-layer="Camada_1" />
  <defs id="defs1">
    <style id="style1">.cls-1{fill-rule:evenodd;}</style>
  </defs>
  <g id="g15" transform="matrix(0.53059194,0,0,0.53059194,1.8305423,-1.0611838)">
    <path d="m 36.5,47.16 a 7.81,7.81 0 0 1 -4.83,6.37 12,12 0 0 1 -5.15,0.89 16.63,16.63 0 0 1 -7,-1.82 17.46,17.46 0 0 1 -2.82,-1.94 c -0.23,-0.19 -0.26,-0.31 -0.11,-0.52 l 0.56,-0.82 0.59,-0.87 a 0.4,0.4 0 0 1 0.64,-0.06 h 0.05 l 0.13,0.1 0.17,0.14 a 13.72,13.72 0 0 0 7.83,3 c 3.84,-0.06 6.59,-1.78 7.09,-4.43 0.54,-2.91 -1.75,-5.43 -6.22,-6.83 a 51.61,51.61 0 0 1 -5.59,-2.24 c -3.06,-1.79 -4.49,-4.15 -4.29,-7.06 0.31,-4 4,-7 8.78,-7 a 15.58,15.58 0 0 1 8.67,2.61 0.43,0.43 0 0 1 0.16,0.64 c -0.08,0.14 -0.22,0.35 -0.5,0.8 v 0 c -0.38,0.59 -0.39,0.61 -0.47,0.75 -0.08,0.14 -0.33,0.25 -0.59,0.08 A 13.19,13.19 0 0 0 26.38,26.7 c -3.29,0.07 -5.76,2 -5.92,4.7 0,2.41 1.76,4.17 5.67,5.51 7.92,2.54 11,5.53 10.39,10.24 M 53.41,17.73 A 1.14,1.14 0 0 0 52.27,16.58 H 39.87 C 39.57,8.48 33.79,2 26.71,2 19.63,2 13.85,8.48 13.54,16.58 H 1.13 A 1.14,1.14 0 0 0 0,17.73 v 0.09 0 l 1.77,39 c 0,0.11 0,0.22 0,0.33 v 0.16 0 a 5.27,5.27 0 0 0 4.91,5 H 46.3 a 5.45,5.45 0 0 0 5.17,-5 v 0 -0.13 a 1.41,1.41 0 0 0 0,-0.2 L 53.4,17.81 v 0 -0.06 M 26.71,5.55 c 5.16,0 9.36,4.9 9.56,11 H 17.14 c 0.2,-6.13 4.41,-11 9.57,-11" id="path1" />
  </g>
</svg>
