<?xml version="1.0" encoding="UTF-8" standalone="no"?>
<svg enable-background="new 0 0 396.918 396.918" viewBox="0 0 32 32" version="1.1" id="svg1" sodipodi:docname="shutterstock.svg" width="32" height="32" inkscape:version="1.4-beta2 (9aaf4f34, 2024-07-30)" xmlns:inkscape="http://www.inkscape.org/namespaces/inkscape" xmlns:sodipodi="http://sodipodi.sourceforge.net/DTD/sodipodi-0.dtd" xmlns="http://www.w3.org/2000/svg" xmlns:svg="http://www.w3.org/2000/svg">
  <defs id="defs1" />
  <sodipodi:namedview id="namedview1" pagecolor="#ffffff" bordercolor="#000000" borderopacity="0.25" inkscape:showpageshadow="2" inkscape:pageopacity="0.0" inkscape:pagecheckerboard="0" inkscape:deskcolor="#d1d1d1" inkscape:zoom="1.2309072" inkscape:cx="93.42703" inkscape:cy="130.39164" inkscape:window-width="1440" inkscape:window-height="790" inkscape:window-x="0" inkscape:window-y="0" inkscape:window-maximized="1" inkscape:current-layer="svg1" />
  <path d="M 0,1.8262311 V 30.173769 C 0,31.18234 0.81757945,32 1.8262311,32 H 30.173769 C 31.18234,32 32,31.182421 32,30.173769 V 1.8262311 C 31.999919,0.81757945 31.18234,0 30.173769,0 H 1.8262311 C 0.81757945,0 0,0.81757945 0,1.8262311 Z M 14.58921,8.724986 H 9.5673162 c -0.5043662,0 -0.9145668,0.4102006 -0.9145668,0.9145668 V 14.470374 H 4.4626245 V 9.6395528 c 0,-2.8146469 2.2900448,-5.1046917 5.1046917,-5.1046917 H 14.58929 Z m 12.948165,13.635461 c 0,2.814647 -2.290044,5.104692 -5.104691,5.104692 H 17.41071 v -4.190125 h 5.021974 c 0.504366,0 0.914567,-0.410201 0.914567,-0.914567 v -4.830821 h 4.190124 z" fill="#ff1a03" id="path1" style="fill:#000000;stroke-width:0.0806212" />
</svg>
