<?xml version="1.0" encoding="UTF-8" standalone="no"?>
<svg viewBox="0 -0.00056052208 32 32" version="1.1" id="svg3" width="32" height="32" xmlns="http://www.w3.org/2000/svg" xmlns:svg="http://www.w3.org/2000/svg">
  <defs id="defs3" />
  <g id="g3" style="fill:#000000" transform="matrix(0.82650525,0,0,0.82650525,1.0652982,-9.7222534e-5)">
    <path fill="#146E37" d="m 23.374,12.07 c -0.008,1.588 -0.42,2.388 -0.931,2.447 -0.334,0.04 -0.72,-0.237 -1.07,-0.812 -1.146,-1.882 -2.4,-3.677 -3.732,-5.438 0,-0.003 0.002,-0.007 0.003,-0.011 0.517,-2.779 1.344,-5.613 2.759,-8.078 1.77,3.568 2.992,7.924 2.971,11.892 m -6.645,-0.092 c 1.251,1.121 1.594,2.017 1.314,2.504 -0.183,0.32 -0.64,0.471 -1.309,0.392 C 14.491,14.61 12.254,14.507 9.99,14.49 9.988,14.487 9.985,14.483 9.983,14.48 7.845,11.937 5.912,9.071 4.67,5.978 c 4.235,1.003 8.819,3.098 12.059,6 m -4.272,5.8 c 1.672,-0.353 2.586,-0.062 2.791,0.49 0.135,0.361 -0.032,0.846 -0.506,1.363 -1.565,1.708 -3,3.503 -4.377,5.372 H 10.352 C 6.981,25.252 3.475,25.113 0.185,24.292 3.537,21.324 8.08,18.701 12.457,17.778 m 1.91,7.154 c 0.731,-1.556 1.512,-2.141 2.049,-1.978 0.353,0.106 0.612,0.533 0.707,1.219 0.301,2.166 0.736,4.289 1.267,6.415 -0.002,0.002 -0.005,0.006 -0.007,0.01 -1.833,2.603 -3.801,5.107 -6.269,7.146 -0.293,-4.206 0.47,-9.017 2.253,-12.812 m 6.332,2.554 c -0.651,-1.425 -0.602,-2.39 -0.161,-2.725 0.29,-0.218 0.75,-0.176 1.288,0.141 1.639,0.968 3.328,1.871 5.099,2.59 0,0.002 10e-4,0.006 0.002,0.01 0.637,2.661 1.007,5.453 0.844,8.193 -2.948,-1.932 -5.624,-5.04 -7.072,-8.209 m 5.576,-3.508 c -1.349,-0.299 -1.994,-0.903 -1.952,-1.452 0.027,-0.361 0.341,-0.707 0.893,-0.952 1.695,-0.752 3.369,-1.58 4.945,-2.57 0.002,0.002 0.006,0.003 0.008,0.004 2.088,1.066 4.095,2.419 5.708,4.133 -2.933,1.142 -6.565,1.508 -9.602,0.837 m 1.104,-6.617 c -1.068,0.935 -1.89,1.093 -2.25,0.713 -0.236,-0.249 -0.283,-0.729 -0.104,-1.35 0.566,-1.971 1.007,-3.96 1.372,-5.983 0.003,0 0.007,-0.002 0.01,-0.003 2.151,-1.008 4.313,-1.932 6.702,-2.182 -1.129,3.225 -3.175,6.571 -5.73,8.805" id="path1" style="fill:#000000" />
    <path fill="#64C832" d="M 20.402,0.179 C 18.987,2.643 18.16,5.477 17.643,8.256 17.642,8.26 17.641,8.263 17.64,8.267 17.285,7.805 16.814,7.249 16.406,6.742 14.861,4.819 13.154,3.017 11.426,1.25 14.262,0.112 17.377,-0.261 20.402,0.179 M 0,15.256 C 2.644,14.933 5.3,14.638 7.931,14.548 8.611,14.525 9.382,14.49 9.991,14.489 9.988,14.486 9.986,14.482 9.983,14.479 7.846,11.936 5.913,9.071 4.67,5.978 2.313,8.583 0.702,11.817 0,15.256 m 5.208,18.078 c 1.244,-2.266 2.553,-4.512 3.987,-6.628 0.381,-0.562 0.809,-1.207 1.168,-1.704 -0.004,0.001 -0.008,0.001 -0.012,0.001 -3.37,0.249 -6.876,0.11 -10.165,-0.71 0.842,3.391 2.567,6.548 5.022,9.041 m 15.869,5.115 c -0.8,-2.018 -1.568,-4.048 -2.179,-6.095 -0.17,-0.569 -0.369,-1.231 -0.509,-1.767 -0.002,0.004 -0.005,0.006 -0.007,0.01 -1.833,2.603 -3.801,5.107 -6.269,7.146 2.98,0.872 5.875,1.283 8.964,0.706 m 12.369,-8.815 c -1.719,-0.435 -3.431,-0.929 -5.076,-1.576 -0.468,-0.187 -1.013,-0.382 -1.446,-0.565 0,0.002 0.001,0.006 0.002,0.01 0.637,2.661 1.007,5.453 0.844,8.191 2.316,-1.566 4.258,-3.654 5.676,-6.06 m 2.305,-14.66 c -1.38,1.134 -2.799,2.234 -4.299,3.195 -0.418,0.269 -0.895,0.593 -1.292,0.834 0.002,0.002 0.005,0.003 0.008,0.004 2.088,1.066 4.094,2.418 5.708,4.131 0.384,-2.831 0.353,-5.347 -0.125,-8.164 M 27.219,2.685 c -0.126,2.121 -0.279,4.246 -0.566,6.321 -0.077,0.563 -0.166,1.219 -0.254,1.736 0.003,-0.001 0.006,-0.003 0.009,-0.004 C 28.56,9.731 30.72,8.807 33.109,8.556 31.607,6.194 29.596,4.166 27.219,2.685" id="path2" style="fill:#000000" />
  </g>
</svg>
