<?xml version="1.0" encoding="UTF-8" standalone="no"?>
<svg id="Layer_1" data-name="Layer 1" viewBox="0 0 32 32" version="1.1" width="32" height="32" xmlns="http://www.w3.org/2000/svg" xmlns:svg="http://www.w3.org/2000/svg">
  <defs id="defs2">
    <style id="style1">.cls-1{fill-rule:evenodd;fill:url(#linear-gradient);}.cls-2{fill:#303030;}</style>
  </defs>
  <path d="m 16.470264,-1.7662001e-6 c -1.942954,0 -3.699767,0.3592899962001 -5.270405,1.0778599662001 -1.5683059,0.71963 -2.8022189,1.73679 -3.6953969,3.06384 -0.893179,1.32705 -1.343257,2.86071 -1.343257,4.60893 0,2.0607698 0.659159,3.7914898 1.977418,5.1921798 1.318259,1.40069 3.1682729,2.63209 5.5500819,3.69416 l 3.340665,1.49802 c 1.472949,0.68435 2.502488,1.2743 3.083213,1.75554 0.580724,0.48123 0.872865,1.17928 0.872865,2.08072 0,1.05751 -0.395456,1.89123 -1.17961,2.5012 -0.784153,0.60997 -1.86863,0.91509 -3.246859,0.91509 -1.690682,0 -3.136325,-0.39987 -4.329561,-1.21326 -1.193235,-0.80672 -2.2909869,-1.89804 -3.2932969,-3.27393 l -4.377238,3.27393 c 1.193236,2.09446 2.831899,3.75516 4.915981,4.98209 2.0864139,1.23361 4.4455739,1.85025 7.0977729,1.84358 2.072745,0 3.927401,-0.37954 5.577397,-1.12523 1.64332,-0.7457 2.936493,-1.82121 3.87947,-3.22656 0.942975,-1.40536 1.413515,-3.04337 1.411607,-4.91406 0,-2.09436 -0.627479,-3.82951 -1.882061,-5.21919 -1.254475,-1.38267 -3.183954,-2.6524 -5.788474,-3.80919 l -3.532,-1.54607 c -1.322602,-0.58995 -2.25679,-1.13221 -2.802232,-1.61344 -0.552436,-0.48124 -0.826428,-1.1252198 -0.826428,-1.9389298 0,-0.96915 0.368396,-1.70783 1.104553,-2.22307 0.736156,-0.51525 1.658235,-0.77242 2.755795,-0.77242 2.352142,0 4.329558,1.18666 5.932193,3.56 l 4.329498,-3.32223 c -0.974761,-1.77576 -2.331542,-3.19467 -4.070432,-4.25673 C 20.915852,0.52863823 18.856735,-1.7662001e-6 16.470264,-1.7662001e-6 Z" style="fill:#000000;fill-rule:evenodd;stroke-width:0.0317857" id="path16" />
</svg>
