<?xml version="1.0" encoding="UTF-8" standalone="no"?>
<svg height="32" version="1.1" viewBox="0 0 32 32" width="32" xml:space="preserve" id="svg3" xmlns="http://www.w3.org/2000/svg" xmlns:svg="http://www.w3.org/2000/svg"><defs id="defs3" /><g id="g3" transform="matrix(0.1489835,0,0,0.1489835,-17.435947,-9.6081178)"><g id="形状_1_5_" style="fill:#000000;enable-background:new"><g id="形状_1" style="fill:#000000"><g id="g1" style="fill:#000000"><path d="m 331.82,120.482 c -0.08,-2.871 -2.28,-5.403 -7.957,-4.718 -9.237,1.116 -19.657,7.296 -26.74,12.729 -5.842,4.476 -10.362,7.635 -15.081,5.795 -6.73,-2.674 3.57,-19.656 6.188,-23.838 4.064,-6.512 6.068,-15.617 -4.238,-13.777 -9.915,1.754 -18.297,10.129 -27.56,19.407 -4.143,4.156 -9.143,11.471 -14.727,12.413 -11.777,1.989 -5.636,-14.192 -3.285,-20.45 3.625,-9.703 5.488,-17.447 -0.125,-18.332 -12.636,-2.008 -24.225,12.804 -31.528,23.325 -4.098,5.896 -12.118,23.406 -20.71,18.295 -3.776,-2.248 0.502,-14.151 -1.352,-19.514 -1.997,-5.835 -9.656,-1.068 -13.848,5.488 -3.703,5.762 -5.801,10.873 -8.38,17.146 -1.399,3.358 -4.529,14.453 -9.972,12.793 -4.629,-1.415 -3.308,-9.45 -3.15,-12.848 0.071,-1.809 0.243,-4.717 -1.055,-5.785 -2.383,-1.968 -7.493,2.179 -11.259,9.514 -4.986,9.67 -9.208,22.721 -9.741,23.753 -34.549,67.304 25.198,91.11 73.962,92.322 53.749,1.344 138.987,-27.56 118.302,-90.665 -1.518,-4.652 -3.657,-8.468 -4.506,-11.267 -1.589,-5.236 3.695,-10.803 9.528,-18.107 3.335,-4.174 7.328,-9.637 7.234,-13.679 z m -48.244,75.93 c -2.58,26.787 -40.784,48.235 -82.181,47.189 -38.385,-0.968 -63.953,-21.174 -59.7,-44.597 4.134,-22.785 35.477,-42.457 72.375,-44.618 39.619,-2.344 72.022,16.079 69.506,42.026 z" style="clip-rule:evenodd;fill:#000000;fill-rule:evenodd" id="path1" /></g></g></g><g id="形状_1_4_" style="fill:#000000;enable-background:new"><g id="形状_1_1_" style="fill:#000000"><g id="g2" style="fill:#000000"><path d="m 207.111,172.312 c -17.533,0.959 -33.321,14.861 -35.807,31.371 -2.529,16.827 9.555,30.799 27.615,30.869 18.689,0.064 35.987,-14.688 37.961,-32.581 1.957,-17.535 -11.636,-30.658 -29.769,-29.659 z m -2.265,37.371 c -0.714,6.228 -6.125,11.387 -12.012,11.496 -5.829,0.085 -9.869,-4.821 -9.083,-10.907 0.765,-6.052 5.976,-11.1 11.709,-11.328 5.832,-0.26 10.056,4.527 9.386,10.739 z m 6.361,-9.545 c -0.226,2.004 -1.957,3.673 -3.875,3.702 -1.855,0.032 -3.177,-1.54 -2.917,-3.506 0.244,-1.966 1.918,-3.586 3.767,-3.664 1.885,-0.086 3.253,1.471 3.025,3.468 z" style="clip-rule:evenodd;fill:#000000;fill-rule:evenodd" id="path2" /></g></g></g></g></svg>
