<?xml version="1.0" encoding="UTF-8" standalone="no"?>
<svg id="a" viewBox="0 0 31.999999 32" version="1.1" sodipodi:docname="skyscanner.svg" width="32" height="32" inkscape:version="1.4-beta2 (9aaf4f34, 2024-07-30)" xmlns:inkscape="http://www.inkscape.org/namespaces/inkscape" xmlns:sodipodi="http://sodipodi.sourceforge.net/DTD/sodipodi-0.dtd" xmlns="http://www.w3.org/2000/svg" xmlns:svg="http://www.w3.org/2000/svg">
  <sodipodi:namedview id="namedview1" pagecolor="#ffffff" bordercolor="#000000" borderopacity="0.25" inkscape:showpageshadow="2" inkscape:pageopacity="0.0" inkscape:pagecheckerboard="0" inkscape:deskcolor="#d1d1d1" inkscape:zoom="1.3698484" inkscape:cx="15.330163" inkscape:cy="19.345206" inkscape:window-width="1440" inkscape:window-height="872" inkscape:window-x="0" inkscape:window-y="0" inkscape:window-maximized="1" inkscape:current-layer="a" />
  <defs id="defs1">
    <style id="style1">.b{stroke-width:0px;}</style>
  </defs>
  <g id="g18" transform="matrix(0.39266,0,0,0.39266,0.0010683,1.9800747)" style="fill:#000000">
    <path d="m 62.94,42.47 c -0.86,0.49 -1.83,0.57 -2.69,0.37 -0.9,-0.24 -1.67,-0.81 -2.16,-1.67 -0.49,-0.86 -0.57,-1.83 -0.37,-2.69 0.24,-0.9 0.81,-1.67 1.67,-2.16 L 73.28,28.3 c 0.45,-0.24 0.98,-0.16 1.38,0.12 0.53,0.37 1.14,1.1 1.75,2.16 0.61,1.06 0.94,1.96 0.98,2.61 0.04,0.53 -0.16,1.02 -0.57,1.26 l -13.89,8.02 z" id="path6" style="fill:#000000" />
    <path d="m 55.61,32.53 c -0.49,0.86 -1.26,1.43 -2.16,1.67 -0.9,0.24 -1.83,0.12 -2.69,-0.37 -0.86,-0.49 -1.43,-1.26 -1.67,-2.16 -0.24,-0.9 -0.12,-1.83 0.37,-2.69 l 8.02,-13.89 c 0.24,-0.45 0.77,-0.61 1.26,-0.57 0.65,0.04 1.55,0.37 2.61,0.98 1.06,0.61 1.79,1.22 2.16,1.75 0.29,0.41 0.37,0.94 0.12,1.38 l -8.02,13.89 v 0 z" id="path5" style="fill:#000000" />
    <path d="m 44.29,27.6 c 0,0.98 -0.41,1.87 -1.02,2.53 -0.65,0.65 -1.51,1.02 -2.53,1.02 -1.02,0 -1.87,-0.41 -2.53,-1.02 -0.65,-0.65 -1.02,-1.51 -1.02,-2.53 V 11.59 c 0,-0.53 0.33,-0.94 0.81,-1.14 0.57,-0.29 1.51,-0.45 2.73,-0.45 1.22,0 2.16,0.16 2.73,0.45 0.45,0.24 0.81,0.61 0.81,1.14 V 27.6 Z" id="path4" style="fill:#000000" />
    <path d="m 18.55,42.47 c 0.86,0.49 1.83,0.57 2.69,0.37 0.9,-0.24 1.67,-0.81 2.16,-1.67 0.49,-0.86 0.57,-1.83 0.37,-2.69 -0.2,-0.86 -0.81,-1.67 -1.67,-2.16 L 8.21,28.3 C 7.76,28.06 7.23,28.14 6.83,28.42 6.3,28.79 5.69,29.52 5.08,30.58 4.47,31.64 4.14,32.54 4.1,33.19 c -0.04,0.53 0.16,1.02 0.57,1.26 l 13.89,8.02 z" id="path3" style="fill:#000000" />
    <path d="m 25.88,32.53 c 0.49,0.86 1.26,1.43 2.16,1.67 0.9,0.24 1.83,0.12 2.69,-0.37 0.86,-0.49 1.43,-1.26 1.67,-2.16 0.24,-0.9 0.12,-1.83 -0.37,-2.69 L 24.01,15.09 c -0.24,-0.45 -0.77,-0.61 -1.26,-0.57 -0.65,0.04 -1.55,0.37 -2.61,0.98 -1.06,0.61 -1.79,1.22 -2.16,1.75 -0.29,0.41 -0.37,0.94 -0.12,1.38 0,0 8.02,13.89 8.02,13.89 z" id="path2" style="fill:#000000" />
    <path d="m 40.75,61.41 c 0.86,0 1.67,-0.2 2.44,-0.65 l 8.92,-5.13 c 1.79,-1.02 3.87,-1.47 5.95,-1.22 10.84,1.26 18.41,3.3 20.65,3.95 0.45,0.12 0.98,-0.04 1.26,-0.41 0.37,-0.45 0.81,-1.18 1.18,-2.24 0.33,-1.02 0.37,-1.87 0.33,-2.48 -0.04,-0.49 -0.37,-0.94 -0.86,-1.06 -3.5,-1.02 -19.02,-5.21 -39.88,-5.21 -20.86,0 -36.37,4.18 -39.87,5.2 -0.49,0.12 -0.81,0.57 -0.86,1.06 -0.04,0.57 0,1.43 0.33,2.48 0.33,1.05 0.81,1.79 1.18,2.24 0.29,0.37 0.81,0.53 1.26,0.41 2.24,-0.65 9.86,-2.69 20.65,-3.95 2.08,-0.24 4.15,0.2 5.95,1.22 l 8.92,5.13 c 0.77,0.45 1.63,0.65 2.44,0.65 z" id="path1" style="fill:#000000" />
  </g>
</svg>
