<?xml version="1.0" encoding="UTF-8"?><svg id="a" xmlns="http://www.w3.org/2000/svg" viewBox="0 0 370.6 80"><defs><style>.b{stroke-width:0px;}</style></defs><path class="b" d="m40.75,61.41c.86,0,1.67-.2,2.44-.65l8.92-5.13c1.79-1.02,3.87-1.47,5.95-1.22,10.84,1.26,18.41,3.3,20.65,3.95.45.12.98-.04,1.26-.41.37-.45.81-1.18,1.18-2.24.33-1.02.37-1.87.33-2.48-.04-.49-.37-.94-.86-1.06-3.5-1.02-19.02-5.21-39.88-5.21S4.37,51.14.87,52.16c-.49.12-.81.57-.86,1.06-.04.57,0,1.43.33,2.48s.81,1.79,1.18,2.24c.29.37.81.53,1.26.41,2.24-.65,9.86-2.69,20.65-3.95,2.08-.24,4.15.2,5.95,1.22l8.92,5.13c.77.45,1.63.65,2.44.65Zm-14.87-28.88c.49.86,1.26,1.43,2.16,1.67.9.24,1.83.12,2.69-.37s1.43-1.26,1.67-2.16.12-1.83-.37-2.69l-8.02-13.89c-.24-.45-.77-.61-1.26-.57-.65.04-1.55.37-2.61.98-1.06.61-1.79,1.22-2.16,1.75-.29.41-.37.94-.12,1.38,0,0,8.02,13.89,8.02,13.89Zm-7.33,9.94c.86.49,1.83.57,2.69.37.9-.24,1.67-.81,2.16-1.67s.57-1.83.37-2.69-.81-1.67-1.67-2.16l-13.89-8.02c-.45-.24-.98-.16-1.38.12-.53.37-1.14,1.1-1.75,2.16s-.94,1.96-.98,2.61c-.04.53.16,1.02.57,1.26l13.89,8.02Zm25.74-14.87c0,.98-.41,1.87-1.02,2.53-.65.65-1.51,1.02-2.53,1.02s-1.87-.41-2.53-1.02c-.65-.65-1.02-1.51-1.02-2.53V11.59c0-.53.33-.94.81-1.14.57-.29,1.51-.45,2.73-.45s2.16.16,2.73.45c.45.24.81.61.81,1.14v16.01Zm11.32,4.93c-.49.86-1.26,1.43-2.16,1.67s-1.83.12-2.69-.37-1.43-1.26-1.67-2.16-.12-1.83.37-2.69l8.02-13.89c.24-.45.77-.61,1.26-.57.65.04,1.55.37,2.61.98,1.06.61,1.79,1.22,2.16,1.75.29.41.37.94.12,1.38l-8.02,13.89h0Zm7.33,9.94c-.86.49-1.83.57-2.69.37-.9-.24-1.67-.81-2.16-1.67s-.57-1.83-.37-2.69c.24-.9.81-1.67,1.67-2.16l13.89-8.02c.45-.24.98-.16,1.38.12.53.37,1.14,1.1,1.75,2.16s.94,1.96.98,2.61c.04.53-.16,1.02-.57,1.26l-13.89,8.02Zm88.59-11.04h6.68c.24,0,.45.16.57.37l6.64,17.03,6.44-17.03c.08-.24.33-.37.57-.37h6.56c.45,0,.73.45.53.81l-16.29,37.39c-.08.2-.33.37-.53.37h-5.78c-.41,0-.73-.45-.53-.81l5.58-13.08-10.92-23.87c-.24-.37.04-.81.49-.81h0Zm98.62,3.79v-3.18c0-.33.29-.61.61-.61h5.91c.33,0,.61.29.61.61v25.38c0,.33-.29.61-.61.61h-5.91c-.33,0-.61-.29-.61-.61v-3.34c-1.26,1.96-4.03,4.52-8.55,4.52-8.64,0-13.12-6.6-13.12-13.97,0-9.61,6.68-13.73,12.91-13.73,4.11-.04,6.97,1.91,8.76,4.32Zm-14.54,9.45c0,4.56,2.81,8.07,7.33,8.07s7.41-3.05,7.41-7.74-2.81-8.27-7.62-8.27c-4.52,0-7.13,3.5-7.13,7.94Zm27.01,12.75v-25.38c0-.33.29-.61.61-.61h5.91c.33,0,.61.29.61.61v3.46c1.38-2.4,3.99-4.6,8.43-4.6s9.65,2.24,9.65,12.55v13.97c0,.33-.29.61-.61.61h-5.91c-.33,0-.61-.29-.61-.61v-13.85c0-2.48-.61-6.76-5.01-6.76s-5.95,3.87-5.95,7.45v13.16c0,.33-.29.61-.61.61h-5.91c-.37-.04-.61-.29-.61-.61h0Zm30.26,0v-25.38c0-.33.29-.61.61-.61h5.91c.33,0,.61.29.61.61v3.46c1.38-2.4,3.99-4.6,8.43-4.6s9.65,2.24,9.65,12.55v13.97c0,.33-.29.61-.61.61h-5.91c-.33,0-.61-.29-.61-.61v-13.85c0-2.48-.61-6.76-5.01-6.76s-5.95,3.87-5.95,7.45v13.16c0,.33-.29.61-.61.61h-5.91c-.33-.04-.61-.29-.61-.61h0Zm62.04-25.99h5.74c.33,0,.61.29.61.61v5.25c1.14-5.21,5.62-7.01,8.88-6.23.29.04.45.29.45.57v5.78c0,.37-.33.65-.73.57-6.03-1.18-8.47,2.08-8.47,6.64v12.79c0,.33-.29.61-.61.61h-5.91c-.33,0-.61-.29-.61-.61v-25.38c.04-.33.33-.61.65-.61h0Zm-242.53,5.78c-1.83-.61-2.81-.98-4.28-1.47-1.51-.53-4.07-2-4.07-4.36s1.63-3.87,4.93-3.87c3.01,0,4.68,1.47,5.78,3.83.16.33.53.45.86.29l4.85-2.81c.24-.16.37-.49.24-.77-1.47-3.22-4.89-7.09-11.65-7.09-7.54,0-12.26,4.48-12.26,10.39s3.87,8.92,9.12,10.71c1.91.65,2.69.94,4.32,1.47,3.1,1.06,4.52,2.44,4.52,4.36s-1.22,4.2-6.03,4.2c-4.4,0-5.95-2.32-6.84-4.52-.12-.33-.53-.49-.86-.29l-5.09,2.93c-.24.16-.37.45-.24.73,1.96,4.81,7.29,7.66,13.28,7.66,7.05,0,12.99-3.58,12.99-10.84s-7.74-9.94-9.57-10.55Zm38.9,13.85c-.16-.29-.57-.41-.86-.2-2.28,1.67-4.97,1.71-7.01-1.43-1.71-2.65-3.79-5.91-3.79-5.91l8.96-11.12c.33-.41.04-.98-.45-.98h-7.01c-.2,0-.37.08-.49.24l-7.74,10.63v-21.38c0-.33-.29-.61-.61-.61h-5.91c-.33,0-.61.29-.61.61v36.5c0,.33.29.61.61.61h5.95c.33,0,.61-.29.61-.61v-11.85s3.95,6.23,5.46,8.55c2.04,3.18,4.89,4.48,7.98,4.48,2.93,0,4.81-.77,7.05-2.97.2-.2.24-.49.12-.73l-2.28-3.83h0Zm42.4-8.39c-1.87-.69-2.53-.94-3.95-1.47-1.43-.53-2.69-1.3-2.69-2.44s1.06-2.4,3.22-2.4c1.87,0,3.01.73,3.67,2.04.16.33.53.41.81.24l4.15-2.4c.29-.16.37-.53.2-.81-1.14-2-3.38-4.52-8.8-4.52-6.64,0-10.06,3.83-10.06,8.07s3.46,6.23,6.64,7.49c3.58,1.47,3.83,1.55,4.28,1.71,1.1.45,2.44,1.14,2.44,2.4s-1.47,2.4-3.71,2.4c-2.08,0-4.44-.86-5.42-3.26-.12-.33-.53-.49-.86-.29l-4.2,2.4c-.24.16-.37.45-.24.73,1.22,3.18,4.85,5.99,10.71,5.99,6.35,0,10.59-3.38,10.59-8.15s-3.26-6.44-6.8-7.74h0Zm23.87-5.46c2.65,0,4.6.81,6.44,2.12.29.2.69.12.86-.16l2.44-4.24c.16-.29.08-.61-.2-.77-2.53-1.71-5.66-3.3-9.9-3.3s-8.07,1.14-10.84,3.95c-2.77,2.77-4.03,6.07-4.03,9.98,0,4.73,1.96,7.74,4.07,9.86s5.95,3.91,10.84,3.91c4.4,0,7.66-1.83,9.9-3.3.24-.16.33-.53.16-.77l-2.4-4.2c-.16-.29-.57-.41-.86-.2-1.59,1.14-3.87,2.12-6.44,2.12-2.89,0-8.15-1.63-8.15-7.49s5.21-7.49,8.11-7.49h0Zm119.84,15.48c-2.36,0-4.6-.57-6.23-1.87s-2.4-2.65-2.4-4.24h21.1c.33,0,.61-.29.61-.61-.12-6.27-2.16-9.21-4.11-11.2-2.04-2.04-5.5-3.91-10.06-3.91s-8.07,1.67-10.47,4.03c-2.36,2.36-4.15,5.38-4.15,9.94s1.83,7.58,4.07,9.82,5.91,3.91,11.16,3.91c4.97,0,9.16-1.75,12.18-5.21.24-.29.16-.73-.16-.9l-4.2-2.44c-.2-.12-.49-.12-.69.08-2.08,1.96-4.73,2.61-6.64,2.61Zm-1.14-16.13c3.38,0,6.48,2.04,6.97,5.7h-14.22c.94-3.95,3.87-5.7,7.25-5.7h0Z"/></svg>