<?xml version="1.0" encoding="UTF-8" standalone="no"?>
<svg viewBox="0 0 32 32" version="1.1" id="svg1" sodipodi:docname="smugsmug.svg" width="32" height="32" inkscape:version="1.4-beta2 (9aaf4f34, 2024-07-30)" xmlns:inkscape="http://www.inkscape.org/namespaces/inkscape" xmlns:sodipodi="http://sodipodi.sourceforge.net/DTD/sodipodi-0.dtd" xmlns="http://www.w3.org/2000/svg" xmlns:svg="http://www.w3.org/2000/svg">
  <defs id="defs1" />
  <sodipodi:namedview id="namedview1" pagecolor="#ffffff" bordercolor="#000000" borderopacity="0.25" inkscape:showpageshadow="2" inkscape:pageopacity="0.0" inkscape:pagecheckerboard="0" inkscape:deskcolor="#d1d1d1" inkscape:zoom="3.8161941" inkscape:cx="16.246553" inkscape:cy="17.425738" inkscape:window-width="1440" inkscape:window-height="790" inkscape:window-x="0" inkscape:window-y="0" inkscape:window-maximized="1" inkscape:current-layer="svg1" />
  <g id="g2" transform="matrix(1.3520705,0,0,1.3520705,-6.0748714,-5.5548435)">
    <symbol fill="currentColor" viewBox="0 0 18 18" id="edc21ac2-5e55-4d39-93b3-7838c53084b2">
      <g fill-rule="evenodd" id="g1">
        <path d="M 6.606,5.373 C 7.708,5.356 8.236,4.71 8.166,4.121 8.106,3.629 7.629,3.179 6.719,3.171 A 1.29,1.29 0 0 0 5.409,4.275 C 5.335,4.83 5.682,5.387 6.606,5.373 m 5.515,-0.138 c 1.059,-0.06 1.52,-0.588 1.527,-1.114 0.007,-0.596 -0.564,-1.192 -1.514,-1.115 -0.763,0.064 -1.207,0.59 -1.277,1.115 -0.074,0.584 0.32,1.17 1.264,1.114 m -4.075,8.513 c -3.808,0 -3.288,-4.525 -2.647,-4.552 4.425,-0.178 5.557,-0.361 7.135,-0.361 1.604,0 -1.45,4.913 -4.488,4.913 m 4.75,-6.16 C 10.158,7.852 10.029,7.879 5.178,7.99 3.133,8 3.568,15 7.936,15 c 4.16,0 9.18,-7.848 4.86,-7.412" id="path1" />
      </g>
    </symbol>
    <use href="#edc21ac2-5e55-4d39-93b3-7838c53084b2" id="use1" />
  </g>
</svg>
