<?xml version="1.0" encoding="UTF-8"?><svg id="a" xmlns="http://www.w3.org/2000/svg" viewBox="0 0 80 80"><defs><style>.b{stroke-width:0px;}</style></defs><path class="b" d="m79.86,27.89l-7.26-14.68s-.36-.41-.62-.41h-29.2c-.31,0-.62.26-.67.57s.1.67.41.78l36.52,14.68h.26c.21,0,.36-.1.52-.21.21-.21.26-.52.1-.78l-.05.05Z"/><path class="b" d="m59.73,26.07L.49,1.33s-.31,0-.41.1c-.1.16-.1.31,0,.47l40.1,42.9s.16.1.26.1h0s.16,0,.26-.1l19.14-18.16s.1-.21.1-.31-.1-.21-.21-.26Z"/><path class="b" d="m27.21,37.74s-.21-.16-.31-.1c-.1,0-.21.1-.26.21L5.84,78.15s0,.36.1.47c.05,0,.16.05.21.05.1,0,.21,0,.26-.1l29.62-30.35s.16-.36,0-.47c0,0-8.82-10.01-8.82-10.01Z"/></svg>