<?xml version="1.0" encoding="UTF-8"?><svg id="a" xmlns="http://www.w3.org/2000/svg" xmlns:xlink="http://www.w3.org/1999/xlink" viewBox="0 0 85.33 80"><defs><style>.c{fill:none;}.c,.d{stroke-width:0px;}.e{clip-path:url(#b);}</style><clipPath id="b"><rect class="c" y="0" width="85.33" height="80"/></clipPath></defs><g class="e"><path class="d" d="m83.62,59.82c-11.44-1.85-16.55-13.57-16.77-14.07v-.07c-.57-.85-.71-1.92-.36-2.91.64-1.49,2.98-2.2,4.62-2.7.43-.14.85-.28,1.21-.43,1.28-.43,2.42-1.14,3.34-2.06.64-.64.99-1.42,1.07-2.34-.07-1.35-1.07-2.56-2.7-3.2-.57-.28-1.21-.36-1.85-.36-.57,0-1.21.14-1.71.36-1.14.57-2.34.92-3.62,1.07-.43,0-.78-.14-1.21-.28,0-.5.07-1.07.14-1.63v-.21c.28-5.83.71-13-1.14-17.27-2.2-5.19-6.32-9.31-11.44-11.58-3.06-1.42-6.39-2.13-9.8-2.13h-1.63c-3.34,0-6.68.71-9.8,2.06-2.27.99-4.4,2.42-6.18,4.12-2.2,2.13-3.98,4.69-5.19,7.46-1.92,4.26-1.49,11.44-1.07,17.26,0,.64.07,1.21.14,1.92-.43.21-.92.28-1.42.28-1.35-.07-2.63-.43-3.84-.99-.43-.21-.92-.28-1.42-.28-.92,0-1.78.28-2.56.71-.92.5-1.56,1.28-1.85,2.27-.21,1.14.28,2.34,1.21,2.98.92.78,2.06,1.42,3.2,1.85l1.28.43c1.56.5,3.98,1.21,4.62,2.7.28.99.14,2.06-.43,2.91v.07c-1.14,2.42-2.56,4.69-4.26,6.68-1.49,1.78-3.27,3.27-5.19,4.55-2.2,1.42-4.69,2.42-7.25,2.84-1.07.14-1.78,1.07-1.78,2.06,0,.28.07.57.21.85.43.92,1.35,1.78,2.91,2.49,2.7,1.07,5.47,1.78,8.31,2.13.21.57.36,1.21.5,1.85.14.64.28,1.28.5,1.99.21,1.07,1.21,1.78,2.27,1.63.64,0,1.35-.14,1.99-.28,1.49-.28,2.98-.5,4.48-.5,1.07,0,2.13.07,3.2.28,2.13.36,3.91,1.63,5.97,3.13,3.06,2.13,6.47,4.55,11.79,4.55h1.07c5.26,0,8.74-2.42,11.79-4.55,2.06-1.49,3.91-2.7,5.97-3.13,1.07-.21,2.13-.28,3.2-.28,1.49,0,2.98.14,4.48.5.64.14,1.28.21,1.99.21h.07c.99.07,1.92-.64,2.2-1.63.21-.64.36-1.28.5-1.99.14-.64.28-1.21.5-1.85,2.84-.36,5.61-1.14,8.31-2.2,1.21-.43,2.27-1.35,2.91-2.49.14-.28.21-.57.21-.85,0-.85-.71-1.78-1.71-1.92Z"/></g></svg>