<?xml version="1.0" encoding="UTF-8" standalone="no"?>
<svg id="a" viewBox="0 0 31.999999 32" version="1.1" sodipodi:docname="softonic.svg" width="32" height="32" inkscape:version="1.4-beta2 (9aaf4f34, 2024-07-30)" xmlns:inkscape="http://www.inkscape.org/namespaces/inkscape" xmlns:sodipodi="http://sodipodi.sourceforge.net/DTD/sodipodi-0.dtd" xmlns="http://www.w3.org/2000/svg" xmlns:svg="http://www.w3.org/2000/svg">
  <defs id="defs4" />
  <sodipodi:namedview id="namedview4" pagecolor="#ffffff" bordercolor="#000000" borderopacity="0.25" inkscape:showpageshadow="2" inkscape:pageopacity="0.0" inkscape:pagecheckerboard="0" inkscape:deskcolor="#d1d1d1" inkscape:zoom="1.9098328" inkscape:cx="77.231893" inkscape:cy="63.618136" inkscape:window-width="1440" inkscape:window-height="790" inkscape:window-x="0" inkscape:window-y="0" inkscape:window-maximized="1" inkscape:current-layer="a" />
  <g id="g4" transform="matrix(0.45717551,0,0,0.45717551,2.7670549,-4.5728979)">
    <path d="M 19.74,62.6 2.43,45.44 C -0.78,42.27 -0.81,37.09 2.36,33.88 2.38,33.86 2.41,33.83 2.43,33.81 l 21.58,-21.4 c 3.24,-3.21 8.48,-3.21 11.72,0 l 17.31,17.17 z" style="stroke-width:0px" id="path2" />
    <path d="m 7.04,62.59 15.12,15 c 3.24,3.21 8.48,3.21 11.72,0 l 21.58,-21.4 c 3.21,-3.17 3.24,-8.35 0.07,-11.56 -0.02,-0.02 -0.05,-0.05 -0.07,-0.07 l -15.12,-15 z" style="stroke-width:0px" id="path3" />
    <path d="m 53.04,29.57 -6.35,6.3 -6.35,-6.3 h 12.69 z" style="stroke-width:0px" id="path4" />
  </g>
</svg>
