<?xml version="1.0" encoding="UTF-8"?><svg id="a" xmlns="http://www.w3.org/2000/svg" viewBox="0 0 249.77 80"><path d="m84.45,40.82c-3.46-1.41-4.98-2.24-4.98-4.24,0-.87.21-1.4.73-1.82.9-.75,2.66-1.16,4.97-1.16,1.31,0,2.76.13,4.18.38.11.02.23.03.36.03.97,0,1.8-.68,2-1.63,0-.03.01-.06.01-.09.1-1.14-.67-2.15-1.73-2.28-1.16-.2-2.93-.44-4.86-.44-3.34,0-5.87.7-7.53,2.09-1.44,1.16-2.21,2.86-2.21,4.92,0,4.9,4.31,6.67,7.46,7.97l.1.04c3.74,1.56,5.86,2.59,5.86,5.66,0,1.37-.43,2.33-1.36,3.01-.99.71-2.58,1.09-4.57,1.09-1.72,0-3.61-.28-5.32-.8-.2-.06-.41-.09-.61-.09-.91,0-1.69.56-1.95,1.4-.16.52-.1,1.08.17,1.55.26.48.7.83,1.22.99,1.22.37,3.7,1.01,6.5,1.01s5.23-.65,7.01-1.93c1.92-1.43,2.94-3.58,2.94-6.23,0-5.93-4.84-7.95-8.38-9.43h0Zm31.14-9.98c-2.38-1.33-5.07-1.33-6.37-1.33s-3.98,0-6.37,1.33c-2.98,1.67-4.5,4.81-4.5,9.32v7.6c0,4.51,1.51,7.65,4.5,9.32,2.38,1.34,5.07,1.34,6.37,1.34s3.96,0,6.37-1.36c2.98-1.68,4.49-4.81,4.49-9.29v-7.6c0-4.51-1.51-7.64-4.5-9.32h0Zm.48,9.32v7.6c0,5.5-2.62,6.61-6.85,6.61s-6.84-1.1-6.84-6.61v-7.6c0-5.5,2.62-6.61,6.84-6.61s6.85,1.1,6.85,6.61Zm63.02-9.32c-2.38-1.33-5.07-1.33-6.37-1.33s-3.98,0-6.37,1.33c-2.98,1.67-4.5,4.81-4.5,9.32v7.6c0,4.51,1.51,7.65,4.5,9.32,2.38,1.34,5.07,1.34,6.37,1.34s3.96,0,6.37-1.36c2.98-1.68,4.5-4.81,4.5-9.29v-7.6c0-4.51-1.51-7.64-4.5-9.32h0Zm.48,9.32v7.6c0,5.5-2.62,6.61-6.85,6.61s-6.84-1.1-6.84-6.61v-7.6c0-5.5,2.62-6.61,6.84-6.61s6.85,1.1,6.85,6.61Zm21.49-10.65c-2.76,0-5.19.39-7.37,1.26-1.61.64-2.61,1.25-3.21,1.65-.77.51-.71,1.38-.71,1.38v22.59c0,1.15.88,2.02,2.04,2.02s2.04-.91,2.04-2.02v-21.29l.06-.03s.06-.02.08-.04c1.9-.99,4.21-1.48,7.07-1.48,2.68,0,4.54.57,5.53,1.7l.03.03c.92.97,1.41,2.67,1.41,4.93v16.16c0,1.15.88,2.02,2.04,2.02s1.98-.89,1.98-2.02v-16.16c0-3.29-.82-5.95-2.36-7.68-1.83-2.01-4.72-3.03-8.62-3.03h0Zm19.13-9.48c-1.39,0-2.53,1.12-2.53,2.51s1.14,2.57,2.53,2.57,2.59-1.18,2.59-2.57c0-1.38-1.16-2.51-2.59-2.51Zm0,9.48c-1.07,0-1.98.93-1.98,2.02v24.85c0,1.13.87,2.02,1.98,2.02s2.04-.87,2.04-2.02v-24.85c0-1.12-.91-2.02-2.04-2.02Zm29.36,24.76c-.31-.73-1.03-1.2-1.82-1.2-.25,0-.5.05-.74.14-.03.01-.07.02-.1.03-1.64.58-3.62.89-5.73.89-4.07,0-8.93-1.8-8.93-10.37s4.86-10.37,8.93-10.37c3.48,0,5.5.78,5.7.86.02.01.05.03.08.04.25.11.52.17.8.17.8,0,1.52-.48,1.83-1.21.23-.48.26-1.02.08-1.52-.19-.51-.58-.93-1.08-1.15-.33-.14-2.99-1.23-7.4-1.23-2.14,0-5.26.41-7.96,2.36-3.35,2.42-5.05,6.48-5.05,12.06s1.7,9.63,5.05,12.06c2.7,1.95,5.82,2.36,7.96,2.36,2.57,0,4.97-.38,7.13-1.14.04-.01.07-.03.11-.04.08-.02.16-.05.23-.09.45-.24.8-.64.99-1.11.2-.52.18-1.06-.07-1.54h0Zm-93.84.16c-.09-.02-.17-.04-.26-.06-1.49-.31-3.43-1.33-4.94-2.8-1.74-1.67-2.62-4.1-2.62-7.22v-10.86h7.27c1.34,0,2.38-1.28,1.94-2.68-.27-.84-1.1-1.37-1.98-1.37h-7.23v-9.52c0-1.42-1.52-2.55-2.95-1.76-.68.38-1.07,1.13-1.07,1.91v9.44h-13.38c.3-2.04,1.1-3.73,2.41-5.02,1.71-1.66,3.98-2.3,5.52-2.56,1.04-.09,1.86-.95,1.86-2.01,0-1.12-.91-2.02-2.04-2.02-.05,0-.13,0-.13-.01-2.14.31-5.4,1.2-8.02,3.72-2.47,2.38-3.75,5.7-3.82,9.85v24.87c0,.97.66,1.84,1.61,2.04,1.31.27,2.47-.72,2.47-1.98v-22.83h13.54v10.8c0,4.25,1.28,7.65,3.82,10.1,2.22,2.17,4.95,3.48,7.02,3.9,1.44.27,2.71-.96,2.44-2.38-.14-.74-.72-1.34-1.44-1.55h0Z" style="stroke-width:0px;"/><path d="m19.74,62.6L2.43,45.44c-3.21-3.17-3.24-8.35-.07-11.56.02-.02.05-.05.07-.07L24.01,12.41c3.24-3.21,8.48-3.21,11.72,0l17.31,17.17L19.74,62.6h0Z" style="stroke-width:0px;"/><path d="m7.04,62.59l15.12,15c3.24,3.21,8.48,3.21,11.72,0l21.58-21.4c3.21-3.17,3.24-8.35.07-11.56-.02-.02-.05-.05-.07-.07l-15.12-15S7.04,62.59,7.04,62.59Z" style="stroke-width:0px;"/><path d="m53.04,29.57l-6.35,6.3-6.35-6.3h12.69Z" style="stroke-width:0px;"/></svg>