<?xml version="1.0" encoding="UTF-8" standalone="no"?>
<!-- Uploaded to: SVG Repo, www.svgrepo.com, Generator: SVG Repo Mixer Tools -->

<svg width="32" height="32" viewBox="0 -4.5 0.8 0.8" version="1.1" id="svg1" sodipodi:docname="soundcloud.svg" inkscape:version="1.4-beta2 (9aaf4f34, 2024-07-30)" xmlns:inkscape="http://www.inkscape.org/namespaces/inkscape" xmlns:sodipodi="http://sodipodi.sourceforge.net/DTD/sodipodi-0.dtd" xmlns="http://www.w3.org/2000/svg" xmlns:svg="http://www.w3.org/2000/svg" xmlns:rdf="http://www.w3.org/1999/02/22-rdf-syntax-ns#" xmlns:cc="http://creativecommons.org/ns#" xmlns:dc="http://purl.org/dc/elements/1.1/">
  <sodipodi:namedview id="namedview1" pagecolor="#ffffff" bordercolor="#000000" borderopacity="0.25" inkscape:showpageshadow="2" inkscape:pageopacity="0.0" inkscape:pagecheckerboard="0" inkscape:deskcolor="#d1d1d1" inkscape:zoom="1.5110138" inkscape:cx="74.784229" inkscape:cy="-39.377536" inkscape:window-width="1440" inkscape:window-height="790" inkscape:window-x="0" inkscape:window-y="0" inkscape:window-maximized="1" inkscape:current-layer="svg1" />
  <title id="title1">soundcloud [#164]</title>
  <desc id="desc1">Created with Sketch.</desc>
  <defs id="defs1" />
  <g id="Page-1" stroke="none" stroke-width="1" fill="none" fill-rule="evenodd" transform="matrix(0.04,0,0,0.04,0,-4.3199992)">
    <g id="Dribbble-Light-Preview" transform="translate(-60,-7483)" fill="#000000">
      <g id="icons" transform="translate(56,160)">
        <path d="m 12.585719,7333.7481 v -10.0284 c 0,-0.3189 0.09595,-0.5101 0.288856,-0.5715 3.212398,-0.7596 6.45778,1.4816 6.752633,4.8578 3.140434,-1.3261 5.871072,2.67 3.437286,5.0696 -0.616693,0.6081 -1.356324,0.9121 -2.218894,0.9121 l -8.092964,-0.01 c -0.106947,-0.036 -0.166917,-0.1465 -0.166917,-0.2307 z m -2.176915,-0.2952 c 0,0.725 1.377314,0.7339 1.377314,0 v -9.648 c 0,-0.9132 -1.377314,-0.9092 -1.377314,0 z m -2.1389331,0 c 0,0.7081 1.3763137,0.7359 1.3763137,0 v -5.6866 c 0,-0.9131 -1.3763137,-0.9092 -1.3763137,0 z m -2.1309375,-0.2951 c 0,0.7289 1.3683178,0.7408 1.3683178,0 v -6.2303 c 0,-0.8825 -1.3683178,-0.8933 -1.3683178,0 z M 4,7332.0149 c 0,0.8508 1.3673182,1.0657 1.3673182,0 v -2.6729 c 0,-0.9052 -1.3673182,-0.8973 -1.3673182,0 z" id="soundcloud-[#164]" />
      </g>
    </g>
  </g>
  <metadata id="metadata1">
    <rdf:RDF>
      <cc:Work rdf:about="">
        <dc:title>soundcloud [#164]</dc:title>
      </cc:Work>
    </rdf:RDF>
  </metadata>
</svg>
