<svg id="Camada_1" data-name="Camada 1" xmlns="http://www.w3.org/2000/svg" viewBox="0 0 200 80"><g id="Expot-ready"><g id="logos-orange"><path id="sc-logo-horizontal-white" d="M68.69,47.11a6,6,0,0,1-5.14-2.52l1.9-1.78a4.15,4.15,0,0,0,3.36,1.58c1.56,0,2.29-.45,2.29-1.5,0-.89-.45-1.29-2.93-1.89s-4.12-1.4-4.12-4.13c0-2.52,2.11-4.07,4.7-4.07A6.15,6.15,0,0,1,73.55,35l-1.9,1.94a4,4,0,0,0-3-1.43c-1.41,0-1.88.64-1.88,1.26,0,.86.57,1.14,2.65,1.66s4.4,1.27,4.4,4.28C73.86,45.33,72.28,47.11,68.69,47.11Zm13.38,0c-3.43,0-5.79-2.66-5.79-7.14s2.39-7.17,5.83-7.17,5.77,2.65,5.77,7.13S85.49,47.11,82.07,47.11Zm0-11.55c-1.84,0-3.07,1.56-3.07,4.37s1.28,4.43,3.12,4.43,3.07-1.57,3.07-4.39-1.3-4.41-3.14-4.41Zm14.4,11.55c-3.18,0-5.32-2.28-5.32-6.28V33h2.63v7.75c0,2.22,1,3.62,2.69,3.62s2.71-1.36,2.71-3.58V33h2.63v7.75C101.81,44.79,99.82,47.11,96.47,47.11Zm17.72-.22-4.84-7.57c-.32-.52-.75-1.21-.92-1.57,0,.52,0,2.26,0,3v6.11h-2.6V33h2.52l4.67,7.33c.32.52.75,1.21.92,1.57,0-.52,0-2.26,0-3V33h2.6V46.89Zm10.43,0h-3.93V33h4.11c3.76,0,6.55,1.86,6.55,6.94C131.35,44.83,128,46.89,124.62,46.89Zm.09-11.18h-1.39V44.2h1.3c2.76,0,4-1.72,4-4.24,0-2.84-1.12-4.25-3.91-4.25Zm18.06,1.35a2.49,2.49,0,0,0-2.41-1.5c-2,0-3.1,1.82-3.1,4.4s1.14,4.4,3.12,4.4A2.76,2.76,0,0,0,143,42.59L145.18,44a5,5,0,0,1-4.87,3.13c-3.43,0-5.76-2.78-5.76-7.15S137,32.8,140.4,32.8a5,5,0,0,1,4.82,3.07ZM149,46.89V33h2.63V44.16h6.6v2.73Zm16.39.22c-3.43,0-5.79-2.66-5.79-7.14s2.39-7.17,5.83-7.17,5.77,2.65,5.77,7.13S168.81,47.11,165.38,47.11Zm0-11.55c-1.84,0-3.06,1.56-3.06,4.37s1.27,4.43,3.12,4.43,3.06-1.57,3.06-4.39-1.29-4.41-3.13-4.41Zm14.4,11.55c-3.17,0-5.32-2.28-5.32-6.28V33h2.64v7.75c0,2.22,1,3.62,2.68,3.62s2.71-1.36,2.71-3.58V33h2.65v7.75C185.14,44.79,183.13,47.11,179.78,47.11ZM193.27,47h-3.93V33.09h4.12C197.22,33.09,200,35,200,40,200,44.91,196.65,47,193.27,47Zm.1-11.18H192v8.49h1.3c2.76,0,4-1.72,4-4.24,0-2.87-1.15-4.25-3.93-4.25Zm-140,9a7.46,7.46,0,0,1-7.56,7.06H27.62a1.52,1.52,0,0,1-1.5-1.52V30.79a1.66,1.66,0,0,1,1-1.62A9.76,9.76,0,0,1,32.31,28a11.84,11.84,0,0,1,6.14,1.68,12.09,12.09,0,0,1,5.72,7.89,6.67,6.67,0,0,1,1.93-.27,7.28,7.28,0,0,1,7.27,7.49ZM23.84,32c.55,6.64.95,12.69,0,19.31a.58.58,0,0,1-.59.59.59.59,0,0,1-.59-.59c-.88-6.56-.49-12.73,0-19.31a.6.6,0,0,1,.59-.59A.59.59,0,0,1,23.84,32Zm-3.67,2.29a65.67,65.67,0,0,1,0,17,.61.61,0,0,1-1.22,0,74.13,74.13,0,0,1,0-17,.62.62,0,0,1,.62-.62A.61.61,0,0,1,20.17,34.32Zm-3.69-.57a71,71,0,0,1,0,17.6.6.6,0,0,1-1.19,0,73.49,73.49,0,0,1,0-17.6.6.6,0,1,1,1.19,0Zm-3.67,1.71a58.07,58.07,0,0,1,0,15.91.61.61,0,0,1-1.21,0,62.3,62.3,0,0,1,0-15.91.61.61,0,0,1,1.22,0ZM9.1,39.4c.94,4.15.51,7.79-.06,12a.58.58,0,0,1-1.15,0c-.47-4.14-.88-7.91,0-12a.61.61,0,0,1,1.21,0Zm-3.68-.61a33.43,33.43,0,0,1,0,12.05c-.06.63-1.15.63-1.2,0a37.48,37.48,0,0,1,0-12.05.64.64,0,0,1,.63-.54A.63.63,0,0,1,5.42,38.79Zm-3.71,2c.89,2.82.57,5.1-.06,8a.57.57,0,0,1-.57.58.58.58,0,0,1-.57-.58,16.7,16.7,0,0,1,0-8,.63.63,0,0,1,1.25,0Z"/></g></g></svg>