<?xml version="1.0" encoding="UTF-8"?><svg id="a" xmlns="http://www.w3.org/2000/svg" viewBox="0 0 350 80"><defs><style>.c{stroke-width:0px;}</style></defs><g id="b"><path class="c" d="m120.18,52.54c-3.55.15-6.94-1.51-9-4.41l3.33-3.12c1.42,1.8,3.59,2.82,5.88,2.77,2.73,0,4.01-.79,4.01-2.63,0-1.56-.79-2.26-5.13-3.31-4.34-1.05-7.21-2.45-7.21-7.23,0-4.41,3.69-7.12,8.23-7.12,3.24-.05,6.32,1.37,8.4,3.85l-3.33,3.4c-1.3-1.56-3.22-2.47-5.25-2.5-2.47,0-3.29,1.12-3.29,2.21,0,1.51,1,2,4.64,2.91,3.64.91,7.7,2.22,7.7,7.49.07,4.59-2.7,7.7-8.98,7.7Zm23.42,0c-6,0-10.13-4.66-10.13-12.5s4.18-12.55,10.2-12.55,10.1,4.64,10.1,12.48-4.18,12.57-10.17,12.57Zm0-20.22c-3.22,0-5.37,2.73-5.37,7.65s2.24,7.75,5.46,7.75,5.37-2.75,5.37-7.68-2.28-7.72-5.5-7.72h.04Zm25.2,20.22c-5.56,0-9.31-3.99-9.31-10.99v-13.7h4.6v13.56c0,3.89,1.75,6.34,4.71,6.34s4.74-2.38,4.74-6.27v-13.63h4.6v13.56c0,7.07-3.48,11.13-9.35,11.13Zm31.01-.39l-8.47-13.25c-.56-.91-1.31-2.12-1.61-2.75v15.94h-4.55v-24.26h4.41l8.17,12.83c.56.91,1.31,2.12,1.61,2.75v-15.58h4.55v24.31h-4.11Zm18.25,0h-6.88v-24.31h7.19c6.58,0,11.46,3.26,11.46,12.15s-5.86,12.16-11.78,12.16Zm.16-19.57h-2.43v14.86h2.28c4.83,0,7-3.01,7-7.42,0-4.97-1.96-7.44-6.84-7.44Zm31.61,2.36c-.72-1.67-2.4-2.72-4.22-2.63-3.5,0-5.43,3.19-5.43,7.7s2,7.7,5.46,7.7c2.03.03,3.86-1.21,4.58-3.1l3.82,2.47c-1.39,3.45-4.81,5.65-8.52,5.48-6,0-10.08-4.87-10.08-12.51s4.29-12.57,10.24-12.57c3.66-.15,7.03,1.99,8.44,5.37l-4.29,2.08Zm10.9,17.2v-24.31h4.6v19.53h11.55v4.78h-16.15Zm28.69.39c-6,0-10.13-4.66-10.13-12.5s4.18-12.55,10.2-12.55,10.1,4.64,10.1,12.48-4.18,12.57-10.19,12.57h.02Zm0-20.22c-3.22,0-5.35,2.73-5.35,7.65s2.22,7.75,5.46,7.75,5.36-2.75,5.36-7.68-2.26-7.72-5.48-7.72h.02Zm25.2,20.22c-5.55,0-9.31-3.99-9.31-10.99v-13.7h4.62v13.56c0,3.89,1.75,6.34,4.69,6.34s4.74-2.38,4.74-6.27v-13.63h4.64v13.56c-.02,7.07-3.53,11.13-9.4,11.13h.02Zm23.59-.19h-6.88v-24.35h7.21c6.58,0,11.45,3.34,11.45,12.09s-5.86,12.25-11.78,12.25Zm.18-19.57h-2.4v14.86h2.28c4.83,0,7-3.01,7-7.42,0-5.02-2.01-7.44-6.88-7.44Zm-245.03,15.75c-.38,7-6.22,12.46-13.23,12.36h-31.84c-1.46-.02-2.63-1.2-2.63-2.66V23.98c-.07-1.22.63-2.35,1.75-2.84,2.78-1.51,5.92-2.22,9.08-2.05,3.78-.02,7.5,1,10.75,2.94,5.13,2.99,8.76,8.01,10.01,13.81,1.1-.32,2.23-.48,3.38-.47,3.44,0,6.73,1.4,9.13,3.87,2.4,2.47,3.69,5.8,3.59,9.24v.05Zm-51.68-22.44c.96,11.62,1.66,22.21,0,33.8,0,.28-.1.54-.3.74-.19.19-.46.3-.74.3-.57,0-1.03-.46-1.03-1.03-1.54-11.48-.86-22.28,0-33.8,0-.57.47-1.02,1.03-1.03.57,0,1.03.46,1.03,1.03Zm-6.42,4.01c1.29,9.88,1.29,19.88,0,29.75,0,.59-.48,1.07-1.07,1.07s-1.07-.48-1.07-1.07c-1.14-9.89-1.14-19.87,0-29.75,0-.6.49-1.09,1.09-1.09.29,0,.57.13.77.34.2.22.3.5.28.79v-.05Zm-6.46-1c1.28,10.23,1.28,20.58,0,30.8-.07.52-.51.91-1.04.91s-.97-.39-1.04-.91c-1.23-10.23-1.23-20.57,0-30.8-.05-.4.13-.8.48-1.02.34-.22.78-.22,1.13,0,.34.22.53.62.48,1.02Zm-6.42,2.99c1.28,9.24,1.28,18.61,0,27.85-.07.53-.52.93-1.06.93s-.99-.4-1.06-.93c-1.19-9.24-1.19-18.6,0-27.85,0-.59.48-1.07,1.07-1.07s1.07.48,1.07,1.07h-.02Zm-6.49,6.95c1.65,7.26.89,13.63-.11,21-.07.5-.5.88-1.01.88s-.94-.38-1.01-.88c-.82-7.25-1.54-13.84,0-21,.07-.53.52-.93,1.06-.93s.99.4,1.06.93Zm-6.44-1.07c1.28,6.97,1.28,14.12,0,21.09-.11,1.1-2.01,1.1-2.1,0-1.14-6.98-1.14-14.11,0-21.09.09-.54.55-.94,1.1-.95.51.04.93.44,1,.95Zm-6.49,3.5c1.56,4.94,1,8.93-.11,14,0,.27-.1.53-.29.72-.19.19-.44.3-.71.3-.55,0-1-.46-1-1.02-1.13-4.6-1.13-9.4,0-14,.07-.55.54-.96,1.09-.96s1.02.41,1.09.96h-.09Z"/></g></svg>