<?xml version="1.0" encoding="UTF-8" standalone="no"?>
<!DOCTYPE svg PUBLIC "-//W3C//DTD SVG 1.1//EN" "http://www.w3.org/Graphics/SVG/1.1/DTD/svg11.dtd">
<!-- Created with Vectornator (http://vectornator.io/) -->
<svg height="100%" stroke-miterlimit="10" style="fill-rule:nonzero;clip-rule:evenodd;stroke-linecap:round;stroke-linejoin:round;" version="1.1" viewBox="0 0 250 80" width="100%" xml:space="preserve" xmlns="http://www.w3.org/2000/svg" xmlns:xlink="http://www.w3.org/1999/xlink">
<defs/>
<path d="M0 0L250 0L250 80L0 80L0 0Z" fill="#000000" fill-opacity="0" fill-rule="nonzero" opacity="1" stroke="none"/>
<clipPath id="ArtboardFrame">
<rect height="80" width="250" x="0" y="0"/>
</clipPath>
<g clip-path="url(#ArtboardFrame)" id="Expot-ready">
<g opacity="1">
<path d="M85.8429 48.9576C83.3058 49.0628 80.8877 47.8773 79.4171 45.8072L81.7924 43.5819C82.8035 44.8649 84.3599 45.5967 85.9929 45.5572C87.9431 45.5572 88.8558 44.9946 88.8558 43.6819C88.8558 42.5693 88.2932 42.0692 85.1928 41.3192C82.0924 40.5691 80.0422 39.5689 80.0422 36.156C80.0422 33.0057 82.68 31.0679 85.9179 31.0679C88.23 31.0357 90.4337 32.0458 91.9186 33.8183L89.5433 36.2435C88.6116 35.1319 87.2431 34.4796 85.7929 34.4558C84.0302 34.4558 83.4426 35.2559 83.4426 36.031C83.4426 37.1061 84.1552 37.4562 86.7555 38.1063C89.3558 38.7563 92.2562 39.694 92.2562 43.4569C92.3062 46.7323 90.3309 48.9576 85.8429 48.9576ZM102.57 48.9576C98.2819 48.9576 95.3315 45.6322 95.3315 40.0315C95.3315 34.4308 98.3194 31.0679 102.62 31.0679C106.92 31.0679 109.833 34.3808 109.833 39.9815C109.833 45.5822 106.845 48.9576 102.57 48.9576ZM102.57 34.5183C100.27 34.5183 98.7319 36.4686 98.7319 39.9815C98.7319 43.4944 100.332 45.5197 102.632 45.5197C104.933 45.5197 106.47 43.5569 106.47 40.0315C106.47 36.5061 104.845 34.5183 102.545 34.5183L102.57 34.5183ZM120.572 48.9576C116.597 48.9576 113.921 46.1072 113.921 41.1066L113.921 31.318L117.209 31.318L117.209 41.0066C117.209 43.7819 118.459 45.5322 120.572 45.5322C122.685 45.5322 123.96 43.832 123.96 41.0566L123.96 31.318L127.248 31.318L127.248 41.0066C127.248 46.0572 124.76 48.9576 120.572 48.9576ZM142.725 48.6825L136.674 39.2189C136.274 38.5688 135.736 37.7062 135.524 37.2562C135.524 37.9062 135.524 40.0815 135.524 41.0066L135.524 48.645L132.273 48.645L132.273 31.318L135.424 31.318L141.262 40.4816C141.662 41.1316 142.2 41.9942 142.412 42.4443C142.412 41.7942 142.412 39.6189 142.412 38.6938L142.412 31.318L145.663 31.318L145.663 48.6825L142.725 48.6825ZM155.764 48.6825L150.851 48.6825L150.851 31.318L155.989 31.318C160.689 31.318 164.177 33.6432 164.177 39.994C164.177 46.1072 159.989 48.6825 155.764 48.6825ZM155.876 34.7059L154.139 34.7059L154.139 45.3196L155.764 45.3196C159.214 45.3196 160.764 43.1694 160.764 40.019C160.764 36.4686 159.364 34.7059 155.876 34.7059ZM178.454 36.3936C177.939 35.2012 176.738 34.4537 175.441 34.5183C172.941 34.5183 171.566 36.7936 171.566 40.019C171.566 43.2444 172.991 45.5197 175.466 45.5197C176.914 45.5425 178.222 44.6587 178.741 43.3069L181.467 45.0696C180.476 47.5356 178.033 49.1052 175.379 48.9826C171.091 48.9826 168.178 45.5072 168.178 40.044C168.178 34.5808 171.241 31.0679 175.491 31.0679C178.105 30.9603 180.509 32.4917 181.517 34.9059L178.454 36.3936ZM186.242 48.6825L186.242 31.318L189.53 31.318L189.53 45.2696L197.781 45.2696L197.781 48.6825L186.242 48.6825ZM206.732 48.9576C202.444 48.9576 199.494 45.6322 199.494 40.0315C199.494 34.4308 202.482 31.0679 206.782 31.0679C211.083 31.0679 213.996 34.3808 213.996 39.9815C213.996 45.5822 211.008 48.9576 206.72 48.9576L206.732 48.9576ZM206.732 34.5183C204.432 34.5183 202.907 36.4686 202.907 39.9815C202.907 43.4944 204.495 45.5197 206.807 45.5197C209.12 45.5197 210.633 43.5569 210.633 40.0315C210.633 36.5061 209.02 34.5183 206.72 34.5183L206.732 34.5183ZM224.734 48.9576C220.772 48.9576 218.084 46.1072 218.084 41.1066L218.084 31.318L221.384 31.318L221.384 41.0066C221.384 43.7819 222.634 45.5322 224.734 45.5322C226.835 45.5322 228.122 43.832 228.122 41.0566L228.122 31.318L231.435 31.318L231.435 41.0066C231.423 46.0572 228.91 48.9576 224.722 48.9576L224.734 48.9576ZM241.586 48.82L236.673 48.82L236.673 31.4305L241.824 31.4305C246.525 31.4305 250 33.8183 250 40.069C250 46.2072 245.812 48.82 241.586 48.82ZM241.712 34.8434L239.999 34.8434L239.999 45.4571L241.624 45.4571C245.074 45.4571 246.625 43.3069 246.625 40.1565C246.625 36.5686 245.187 34.8434 241.712 34.8434ZM66.6906 46.0947C66.4225 51.0978 62.2492 54.9951 57.2395 54.9208L34.4993 54.9208C33.4596 54.9071 32.624 54.0603 32.624 53.0205L32.624 28.5551C32.5738 27.6844 33.0733 26.8752 33.8742 26.5299C35.8598 25.4509 38.106 24.9445 40.3625 25.0672C43.0649 25.0535 45.7194 25.7798 48.0384 27.1675C51.7002 29.3065 54.295 32.8856 55.1892 37.0311C55.9726 36.8011 56.7856 36.6874 57.602 36.6936C60.0598 36.696 62.4121 37.6923 64.1239 39.4559C65.8358 41.2195 66.7615 43.6005 66.6906 46.0572L66.6906 46.0947ZM29.7737 30.0678C30.4613 38.3688 30.9613 45.9322 29.7737 54.2082C29.7771 54.4048 29.7005 54.5944 29.5614 54.7335C29.4224 54.8726 29.2328 54.9492 29.0361 54.9458C28.6288 54.9458 28.2985 54.6155 28.2985 54.2082C27.1984 46.0072 27.686 38.2938 28.2985 30.0678C28.3052 29.6633 28.6316 29.3369 29.0361 29.3302C29.4435 29.3302 29.7737 29.6604 29.7737 30.0678ZM25.1857 32.9307C26.1065 39.9849 26.1065 47.1289 25.1857 54.1832C25.1857 54.6044 24.8442 54.9458 24.4231 54.9458C24.0019 54.9458 23.6605 54.6044 23.6605 54.1832C22.8455 47.1224 22.8455 39.9914 23.6605 32.9307C23.6605 32.5026 24.0075 32.1556 24.4356 32.1556C24.6446 32.1585 24.8433 32.2472 24.9851 32.4008C25.1269 32.5544 25.1994 32.7595 25.1857 32.9682L25.1857 32.9307ZM20.5726 32.2181C21.4851 39.5239 21.4851 46.9149 20.5726 54.2207C20.524 54.5945 20.2057 54.8741 19.8288 54.8741C19.4519 54.8741 19.1335 54.5945 19.0849 54.2207C18.2035 46.913 18.2035 39.5258 19.0849 32.2181C19.0474 31.9293 19.1804 31.6449 19.4261 31.4886C19.6718 31.3323 19.9857 31.3323 20.2314 31.4886C20.4771 31.6449 20.6101 31.9293 20.5726 32.2181ZM15.9846 34.3558C16.8971 40.9544 16.8971 47.6471 15.9846 54.2457C15.9356 54.626 15.6117 54.9108 15.2282 54.9108C14.8447 54.9108 14.5209 54.626 14.4719 54.2457C13.6218 47.643 13.6218 40.9585 14.4719 34.3558C14.4719 33.9347 14.8133 33.5932 15.2345 33.5932C15.6556 33.5932 15.9971 33.9347 15.9971 34.3558L15.9846 34.3558ZM11.3465 39.3189C12.5216 44.507 11.9841 49.0576 11.2715 54.3207C11.2238 54.6813 10.9164 54.9508 10.5527 54.9508C10.1889 54.9508 9.88148 54.6813 9.83382 54.3207C9.24625 49.1451 8.73369 44.432 9.83382 39.3189C9.88282 38.9386 10.2067 38.6538 10.5902 38.6538C10.9737 38.6538 11.2975 38.9386 11.3465 39.3189ZM6.74595 38.5563C7.65842 43.5363 7.65842 48.6406 6.74595 53.6206C6.67094 54.4082 5.30828 54.4082 5.24577 53.6206C4.43328 48.6321 4.43328 43.5449 5.24577 38.5563C5.30712 38.1685 5.64076 37.8826 6.03337 37.8812C6.39922 37.9126 6.69484 38.1927 6.74595 38.5563ZM2.1079 41.0566C3.22053 44.582 2.82048 47.4324 2.03289 51.0578C2.03624 51.249 1.96265 51.4334 1.82865 51.5698C1.69465 51.7061 1.51148 51.7829 1.3203 51.7829C0.92474 51.7761 0.60766 51.4534 0.607719 51.0578C-0.202573 47.7733-0.202573 44.3411 0.607719 41.0566C0.657597 40.6631 0.992375 40.3681 1.38906 40.3681C1.78575 40.3681 2.12053 40.6631 2.17041 41.0566L2.1079 41.0566Z" fill="#000000" fill-rule="nonzero" opacity="1" stroke="none"/>
</g>
</g>
</svg>
