<?xml version="1.0" encoding="UTF-8"?><svg id="a" xmlns="http://www.w3.org/2000/svg" viewBox="0 0 320 80"><defs><style>.cls-1{stroke-width:0px;}</style></defs><g id="b"><path class="cls-1" d="m109.88,51.47c-3.25.14-6.35-1.38-8.23-4.03l3.04-2.85c1.3,1.65,3.28,2.58,5.38,2.53,2.5,0,3.67-.72,3.67-2.4,0-1.43-.72-2.07-4.69-3.03-3.97-.96-6.59-2.24-6.59-6.61,0-4.03,3.37-6.51,7.52-6.51,2.96-.05,5.78,1.25,7.68,3.52l-3.04,3.11c-1.19-1.43-2.94-2.26-4.8-2.29-2.26,0-3.01,1.02-3.01,2.02,0,1.38.91,1.83,4.24,2.66s7.04,2.03,7.04,6.85c.06,4.2-2.47,7.04-8.21,7.04h0Zm21.41,0c-5.49,0-9.26-4.26-9.26-11.43s3.82-11.47,9.33-11.47,9.23,4.24,9.23,11.41-3.82,11.49-9.3,11.49Zm0-18.49c-2.94,0-4.91,2.5-4.91,6.99s2.05,7.09,4.99,7.09,4.91-2.51,4.91-7.02-2.08-7.06-5.03-7.06h.04Zm23.04,18.49c-5.08,0-8.51-3.65-8.51-10.05v-12.53h4.21v12.4c0,3.56,1.6,5.8,4.31,5.8s4.33-2.18,4.33-5.73v-12.46h4.21v12.4c0,6.46-3.18,10.18-8.55,10.18h0Zm28.35-.36l-7.74-12.11c-.51-.83-1.2-1.94-1.47-2.51v14.57h-4.16v-22.18h4.03l7.47,11.73c.51.83,1.2,1.94,1.47,2.51v-14.25h4.16v22.23h-3.76Zm16.69,0h-6.29v-22.23h6.57c6.02,0,10.48,2.98,10.48,11.11s-5.36,11.12-10.77,11.12h0Zm.15-17.89h-2.22v13.59h2.08c4.42,0,6.4-2.75,6.4-6.78,0-4.54-1.79-6.8-6.25-6.8h0Zm28.9,2.16c-.66-1.53-2.19-2.49-3.86-2.4-3.2,0-4.96,2.92-4.96,7.04s1.83,7.04,4.99,7.04c1.86.03,3.53-1.11,4.19-2.83l3.49,2.26c-1.27,3.15-4.4,5.17-7.79,5.01-5.49,0-9.22-4.45-9.22-11.44s3.92-11.49,9.36-11.49c3.35-.14,6.43,1.82,7.72,4.91l-3.92,1.9h0Zm9.97,15.73v-22.23h4.21v17.86h10.56v4.37h-14.77Zm26.23.36c-5.49,0-9.26-4.26-9.26-11.43s3.82-11.47,9.33-11.47,9.23,4.24,9.23,11.41-3.82,11.49-9.32,11.49h.02Zm0-18.49c-2.94,0-4.89,2.5-4.89,6.99s2.03,7.09,4.99,7.09,4.9-2.51,4.9-7.02-2.07-7.06-5.01-7.06h.02,0Zm23.04,18.49c-5.07,0-8.51-3.65-8.51-10.05v-12.53h4.22v12.4c0,3.56,1.6,5.8,4.29,5.8s4.33-2.18,4.33-5.73v-12.46h4.24v12.4c-.02,6.46-3.23,10.18-8.59,10.18,0,0,.02,0,.02,0Zm21.57-.17h-6.29v-22.26h6.59c6.02,0,10.47,3.05,10.47,11.05s-5.36,11.2-10.77,11.2h0Zm.16-17.89h-2.19v13.59h2.08c4.42,0,6.4-2.75,6.4-6.78,0-4.59-1.84-6.8-6.29-6.8Zm-224.04,14.4c-.35,6.4-5.69,11.39-12.1,11.3h-29.11c-1.33-.02-2.4-1.1-2.4-2.43v-31.31c-.06-1.12.58-2.15,1.6-2.6,2.54-1.38,5.41-2.03,8.3-1.87,3.46-.02,6.86.91,9.83,2.69,4.69,2.73,8.01,7.32,9.15,12.63,1.01-.29,2.04-.44,3.09-.43,3.15,0,6.15,1.28,8.35,3.54,2.19,2.26,3.37,5.3,3.28,8.45v.05h0Zm-47.25-20.52c.88,10.62,1.52,20.31,0,30.9,0,.26-.09.49-.27.68s-.42.27-.68.27c-.52,0-.94-.42-.94-.94-1.41-10.5-.79-20.37,0-30.9,0-.52.43-.93.94-.94.52,0,.94.42.94.94h0Zm-5.87,3.67c1.18,9.03,1.18,18.18,0,27.2,0,.54-.44.98-.98.98s-.98-.44-.98-.98c-1.04-9.04-1.04-18.17,0-27.2,0-.55.45-1,1-1,.27,0,.52.12.7.31.18.2.27.46.26.72v-.05h0Zm-5.91-.91c1.17,9.35,1.17,18.82,0,28.16-.06.48-.47.83-.95.83s-.89-.36-.95-.83c-1.12-9.35-1.12-18.81,0-28.16-.05-.37.12-.73.44-.93.31-.2.71-.2,1.03,0,.31.2.48.57.44.93h0Zm-5.87,2.73c1.17,8.45,1.17,17.02,0,25.46-.06.48-.48.85-.97.85s-.91-.37-.97-.85c-1.09-8.45-1.09-17.01,0-25.46,0-.54.44-.98.98-.98s.98.44.98.98h-.02Zm-5.93,6.35c1.51,6.64.81,12.46-.1,19.2-.06.46-.46.8-.92.8s-.86-.35-.92-.8c-.75-6.63-1.41-12.65,0-19.2.06-.48.48-.85.97-.85s.91.37.97.85h0Zm-5.89-.98c1.17,6.37,1.17,12.91,0,19.28-.1,1.01-1.84,1.01-1.92,0-1.04-6.38-1.04-12.9,0-19.28.08-.49.5-.86,1.01-.87.47.04.85.4.91.87Zm-5.93,3.2c1.43,4.52.91,8.16-.1,12.8,0,.25-.09.48-.27.66-.17.17-.4.27-.65.27-.5,0-.91-.42-.91-.93-1.03-4.21-1.03-8.59,0-12.8.06-.5.49-.88,1-.88s.93.37,1,.88h-.08.02Z"/></g></svg>