<svg width="32" height="32" viewBox="0 -4.5 0.8 0.8" xmlns="http://www.w3.org/2000/svg">
  <path d="M.343-3.89v-.401c0-.013.004-.02.012-.023a.22.22 0 0 1 .27.194c.126-.053.235.107.138.203a.122.122 0 0 1-.09.037H.35a.01.01 0 0 1-.007-.01zm-.087-.012c0 .03.055.03.055 0v-.386c0-.036-.055-.036-.055 0zm-.085 0c0 .028.055.03.055 0v-.227c0-.037-.055-.037-.055 0zm-.085-.012c0 .03.054.03.054 0v-.249c0-.035-.054-.036-.054 0zM0-3.959c0 .034.055.042.055 0v-.107c0-.037-.055-.036-.055 0z" fill="#000" fill-rule="evenodd"/>
</svg>