<?xml version="1.0" encoding="UTF-8" standalone="no"?>
<svg id="a" viewBox="0 0 32 32" version="1.1" sodipodi:docname="sourcegraph.svg" width="32" height="32" inkscape:version="1.4-beta2 (9aaf4f34, 2024-07-30)" xmlns:inkscape="http://www.inkscape.org/namespaces/inkscape" xmlns:sodipodi="http://sodipodi.sourceforge.net/DTD/sodipodi-0.dtd" xmlns="http://www.w3.org/2000/svg" xmlns:svg="http://www.w3.org/2000/svg">
  <defs id="defs4" />
  <sodipodi:namedview id="namedview4" pagecolor="#ffffff" bordercolor="#000000" borderopacity="0.25" inkscape:showpageshadow="2" inkscape:pageopacity="0.0" inkscape:pagecheckerboard="0" inkscape:deskcolor="#d1d1d1" inkscape:zoom="5.4348808" inkscape:cx="12.511774" inkscape:cy="45.723174" inkscape:window-width="1440" inkscape:window-height="790" inkscape:window-x="0" inkscape:window-y="0" inkscape:window-maximized="1" inkscape:current-layer="a" />
  <g id="b" transform="matrix(0.71893049,0,0,0.71893049,0.56920515,-12.756043)">
    <path d="M 25.63,62.17 C 24.47,62.4 23.27,62.15 22.3,61.49 21.32,60.83 20.65,59.8 20.43,58.64 l -6.5,-35.67 c -0.45,-2.39 1.12,-4.7 3.52,-5.15 2.39,-0.45 4.7,1.12 5.15,3.52 l 6.5,35.67 c 0.42,2.37 -1.12,4.65 -3.47,5.16 z" style="stroke-width:0px" id="path1" />
    <path d="M 8.52,56.06 C 6.96,56.32 5.37,55.77 4.31,54.6 3.55,53.71 3.18,52.56 3.28,51.4 3.38,50.24 3.94,49.16 4.83,48.41 l 27.59,-23.4 c 1.19,-1.08 2.88,-1.43 4.4,-0.9 1.52,0.53 2.63,1.84 2.9,3.43 0.27,1.59 -0.36,3.19 -1.62,4.18 l -27.5,23.4 c -0.59,0.5 -1.3,0.82 -2.07,0.94 z" style="stroke-width:0px" id="path2" />
    <path d="m 39.37,50.39 c -0.74,0.16 -1.51,0.1 -2.22,-0.17 L 2.93,38.11 c -2.3,-0.83 -3.5,-3.38 -2.67,-5.68 0.83,-2.3 3.38,-3.5 5.68,-2.67 l 34.11,12.12 c 1.1,0.41 1.99,1.23 2.48,2.3 0.49,1.07 0.53,2.28 0.12,3.38 -0.5,1.47 -1.76,2.55 -3.29,2.83 z" style="stroke-width:0px" id="path3" />
  </g>
</svg>
