<svg width="32" height="32" fill="none" xmlns="http://www.w3.org/2000/svg">
  <g fill="#000">
    <path d="m6.511 4.428 2.1.546L7.248 0 4.827.636l.795 2.92c.115.425.457.759.89.872ZM7.374 9.977l1.43 5.223 2.422-.636-2.177-7.97L.89 4.47.245 6.847 5.587 8.24 1.672 12.07l1.769 1.742ZM10.705 7.021l.562 2.059c.117.424.457.758.89.87l3.007.781.644-2.377zM10.271 5.398l1.229.042c.334 0 .649-.128.884-.36l1.995-1.95-1.769-1.742-1.936 1.888c-.23.225-.362.523-.37.842z" style="fill:#000;fill-opacity:1" transform="matrix(2.0562 0 0 2.0562 -.505 .373)"/>
  </g>
</svg>