<svg id="Camada_1" data-name="Camada 1" xmlns="http://www.w3.org/2000/svg" viewBox="0 0 200 80"><path d="M19.72,57.06a3.4,3.4,0,0,1-4-2.71l-5-27.44a3.39,3.39,0,1,1,6.67-1.26l5,27.44A3.45,3.45,0,0,1,19.72,57.06Z"/><path d="M6.56,52.36a3.58,3.58,0,0,1-3.24-1.12,3.36,3.36,0,0,1,.4-4.76l21.22-18a3.38,3.38,0,1,1,4.36,5.16l-21.15,18A3.18,3.18,0,0,1,6.56,52.36Z"/><path d="M30.29,48a3,3,0,0,1-1.71-.13L2.26,38.55a3.41,3.41,0,0,1,2.32-6.42l26.24,9.32a3.39,3.39,0,0,1,2,4.37A3.31,3.31,0,0,1,30.29,48Z"/><path d="M52.24,44.69a2,2,0,0,0-.72-1.58A7.55,7.55,0,0,0,49.73,42c-.73-.33-1.52-.66-2.38-1A10.85,10.85,0,0,1,45,39.6a6.38,6.38,0,0,1-1.78-2,5.73,5.73,0,0,1-.73-3A6.65,6.65,0,0,1,43,31.93,4.81,4.81,0,0,1,44.51,30a6.4,6.4,0,0,1,2.31-1.13,10.3,10.3,0,0,1,3-.39,19,19,0,0,1,3.5.33,8.85,8.85,0,0,1,2.71.92l-1.32,3.51a7.07,7.07,0,0,0-2-.73,10.52,10.52,0,0,0-2.91-.33,3.7,3.7,0,0,0-2.25.59,1.89,1.89,0,0,0-.79,1.59,2,2,0,0,0,.73,1.52A7.58,7.58,0,0,0,49.2,37c.73.33,1.52.72,2.38,1A14,14,0,0,1,54,39.41a6.91,6.91,0,0,1,1.79,1.91,5.54,5.54,0,0,1,.72,2.84,7,7,0,0,1-.59,3,5.57,5.57,0,0,1-1.59,2,7,7,0,0,1-2.51,1.26,12.62,12.62,0,0,1-3.24.39,14.7,14.7,0,0,1-4-.46,12,12,0,0,1-2.58-.86L43.25,46a6.5,6.5,0,0,0,.86.4c.33.13.79.26,1.19.39s.93.2,1.46.33a11,11,0,0,0,1.52.14,4.83,4.83,0,0,0,2.84-.67A1.87,1.87,0,0,0,52.24,44.69Zm6-1.91a8.75,8.75,0,0,1,1.92-6,6.85,6.85,0,0,1,5.35-2.11,7.48,7.48,0,0,1,3.17.59A5.74,5.74,0,0,1,71,36.89a6.72,6.72,0,0,1,1.32,2.58,12.65,12.65,0,0,1,.47,3.31,8.74,8.74,0,0,1-1.92,6,6.88,6.88,0,0,1-5.36,2.12,7.5,7.5,0,0,1-3.17-.6A5.69,5.69,0,0,1,60,48.66a7,7,0,0,1-1.32-2.58A10.49,10.49,0,0,1,58.26,42.78Zm4.1,0a7.55,7.55,0,0,0,.2,1.85,8.7,8.7,0,0,0,.52,1.52,2.44,2.44,0,0,0,1,1,2.52,2.52,0,0,0,1.45.33,2.58,2.58,0,0,0,2.31-1.12,6.35,6.35,0,0,0,.8-3.57,7.41,7.41,0,0,0-.73-3.44A2.5,2.5,0,0,0,65.53,38a2.72,2.72,0,0,0-2.31,1.12A5.75,5.75,0,0,0,62.36,42.78Zm16.39-7.67v8.72a5.49,5.49,0,0,0,.47,2.71,1.77,1.77,0,0,0,1.71.86,2.79,2.79,0,0,0,1.92-.66A4.13,4.13,0,0,0,84,45.09V35.17h4V45.88c0,.86.07,1.66.13,2.45a10.84,10.84,0,0,0,.4,2.18h-3l-.73-2.25h-.13a5,5,0,0,1-2,1.92,5.55,5.55,0,0,1-3,.79,7,7,0,0,1-2.11-.33,3.28,3.28,0,0,1-1.52-1,4.66,4.66,0,0,1-.93-1.92,13,13,0,0,1-.33-3.1V35.11Zm20.76,3.7a6,6,0,0,0-1.72-.33,2.67,2.67,0,0,0-1.78.59,3.15,3.15,0,0,0-1,1.46v9.92h-4V35.11h3.11l.46,2h.13a4.76,4.76,0,0,1,1.39-1.79,3.34,3.34,0,0,1,2.12-.59,7.19,7.19,0,0,1,2.24.53l-1,3.5Zm13,10.71a7.33,7.33,0,0,1-2.25,1.06,9.37,9.37,0,0,1-2.71.33,7.22,7.22,0,0,1-3.11-.6,5,5,0,0,1-2.05-1.65,6.71,6.71,0,0,1-1.12-2.58,13.19,13.19,0,0,1-.33-3.3,9.09,9.09,0,0,1,1.79-6,6.29,6.29,0,0,1,5.09-2.11,10.06,10.06,0,0,1,2.71.26,7.84,7.84,0,0,1,1.85.73l-.93,3.24a10.71,10.71,0,0,0-1.39-.53,5.83,5.83,0,0,0-1.58-.2,3.06,3.06,0,0,0-2.52,1.12,5.64,5.64,0,0,0-.85,3.51,7.48,7.48,0,0,0,.19,1.78,3.82,3.82,0,0,0,.66,1.46,3.53,3.53,0,0,0,1.13,1,3.15,3.15,0,0,0,1.59.33,4.39,4.39,0,0,0,1.71-.27,6.54,6.54,0,0,0,1.26-.66Zm14.08-.4A7.82,7.82,0,0,1,124,50.38a11.27,11.27,0,0,1-3.37.53c-2.51,0-4.3-.73-5.42-2.18a9.48,9.48,0,0,1-1.72-5.95c0-2.71.66-4.76,1.91-6.09a7.24,7.24,0,0,1,5.43-2,8.25,8.25,0,0,1,2.24.33,5.39,5.39,0,0,1,2,1,4.65,4.65,0,0,1,1.38,1.91,7.6,7.6,0,0,1,.53,3,11.33,11.33,0,0,1-.06,1.39c-.07.46-.13,1-.2,1.52h-9.26a4.49,4.49,0,0,0,1,2.91,3.75,3.75,0,0,0,2.9,1,5.83,5.83,0,0,0,2.25-.4,6.35,6.35,0,0,0,1.52-.79l1.39,2.64Zm-5.75-11.3a2.8,2.8,0,0,0-2.31.92,4.57,4.57,0,0,0-.93,2.52h5.69a3.81,3.81,0,0,0-.53-2.58,2.14,2.14,0,0,0-1.92-.86Zm21.75,12.63c0,2.24-.6,3.9-1.79,4.95A7.43,7.43,0,0,1,135.67,57a16,16,0,0,1-3.5-.33,6.54,6.54,0,0,1-1.92-.66l.86-3.17a8.59,8.59,0,0,0,1.66.52,10.54,10.54,0,0,0,2.31.27,3,3,0,0,0,3.57-3.44v-.92h-.13c-.73,1-2,1.45-3.84,1.45a5.27,5.27,0,0,1-4.43-1.85c-1-1.26-1.45-3.17-1.45-5.75,0-2.78.66-4.83,2-6.22a7.52,7.52,0,0,1,5.69-2.11A18.3,18.3,0,0,1,140,35a15.72,15.72,0,0,1,2.51.66V50.45Zm-6.74-3a2.74,2.74,0,0,0,1.78-.53,3.56,3.56,0,0,0,1-1.59V38.48a6.47,6.47,0,0,0-2.38-.4,2.78,2.78,0,0,0-2.38,1.13,6.14,6.14,0,0,0-.86,3.7,6.88,6.88,0,0,0,.73,3.44,2.26,2.26,0,0,0,2.12,1.12Zm18.31-8.66a6,6,0,0,0-1.72-.33,2.65,2.65,0,0,0-1.78.59,3.17,3.17,0,0,0-1,1.46v9.92h-4V35.11h3.1l.47,2h.13a4.66,4.66,0,0,1,1.39-1.79,3.31,3.31,0,0,1,2.11-.59,6.38,6.38,0,0,1,1.79.33l-.53,3.7Zm1.92-3a7.94,7.94,0,0,1,2.51-.73,20.06,20.06,0,0,1,3.5-.33,7.57,7.57,0,0,1,2.65.39,4.45,4.45,0,0,1,1.72,1.13,4,4,0,0,1,.86,1.72,7.9,7.9,0,0,1,.26,2.18c0,.92,0,1.78-.07,2.71s-.06,1.78-.13,2.71,0,1.72.07,2.58a9.47,9.47,0,0,0,.46,2.38h-3.24L164,48.46a5,5,0,0,1-4.56,2.32,5.74,5.74,0,0,1-1.92-.33,3.63,3.63,0,0,1-1.45-.93,4,4,0,0,1-.93-1.39,5.1,5.1,0,0,1-.33-1.85,4,4,0,0,1,.66-2.38,4.62,4.62,0,0,1,1.79-1.59,10.58,10.58,0,0,1,2.84-.86,17.62,17.62,0,0,1,3.7-.13,3.78,3.78,0,0,0-.26-2.44c-.33-.53-1-.73-2-.73a11.58,11.58,0,0,0-2.51.26,7.6,7.6,0,0,0-1.79.53L156,35.84Zm4.69,11.56a3.33,3.33,0,0,0,1.92-.52,4.48,4.48,0,0,0,1.06-1.13v-2a8.26,8.26,0,0,0-1.86,0,7.81,7.81,0,0,0-1.52.26,2.65,2.65,0,0,0-1.05.6,1.31,1.31,0,0,0-.4,1,1.74,1.74,0,0,0,.53,1.32,1.61,1.61,0,0,0,1.32.46Zm9.92-12.29h2.91L174,37h.13a5,5,0,0,1,4.56-2.25,5.24,5.24,0,0,1,4.37,1.85c1,1.26,1.45,3.18,1.45,5.89a12,12,0,0,1-.46,3.57,8.25,8.25,0,0,1-1.39,2.71,6.31,6.31,0,0,1-2.18,1.72,7.14,7.14,0,0,1-3,.59,10.08,10.08,0,0,1-1.58-.13,6.51,6.51,0,0,1-1.26-.46v6.28h-4V35.11ZM177.46,38a2.72,2.72,0,0,0-1.85.59,3.8,3.8,0,0,0-1.06,1.79v6.41a4,4,0,0,0,.92.53,3.8,3.8,0,0,0,1.33.2,3,3,0,0,0,2.57-1.19,6.88,6.88,0,0,0,.86-4,5.86,5.86,0,0,0-.66-3.1A2.16,2.16,0,0,0,177.46,38ZM196.1,50.45V41.72a5.4,5.4,0,0,0-.53-2.71,2.14,2.14,0,0,0-1.92-.86,2.79,2.79,0,0,0-1.85.66,3.23,3.23,0,0,0-1.12,1.78v9.79h-4V29h4v7.87h.13a5.79,5.79,0,0,1,1.79-1.59,5.6,5.6,0,0,1,2.71-.59,6.34,6.34,0,0,1,2.05.33,3.31,3.31,0,0,1,1.52,1,4.07,4.07,0,0,1,.86,1.91,18.12,18.12,0,0,1,.26,3v9.59Z"/></svg>