<?xml version="1.0" encoding="UTF-8" standalone="no"?>
<!DOCTYPE svg PUBLIC "-//W3C//DTD SVG 1.1//EN" "http://www.w3.org/Graphics/SVG/1.1/DTD/svg11.dtd">
<!-- Created with Vectornator (http://vectornator.io/) -->
<svg height="100%" stroke-miterlimit="10" style="fill-rule:nonzero;clip-rule:evenodd;stroke-linecap:round;stroke-linejoin:round;" version="1.1" viewBox="0 0 250 80" width="100%" xml:space="preserve" xmlns="http://www.w3.org/2000/svg" xmlns:xlink="http://www.w3.org/1999/xlink">
<defs/>
<path d="M0 0L250 0L250 80L0 80L0 0Z" fill="#000000" fill-opacity="0" fill-rule="nonzero" opacity="1" stroke="none"/>
<g id="Sem-Título">
<g opacity="1">
<path d="M24.6433 61.3196C23.5305 61.5391 22.376 61.3047 21.4369 60.6684C20.4978 60.0322 19.852 59.0469 19.6432 57.932L13.393 23.6309C12.9581 21.3285 14.472 19.1095 16.7744 18.6746C19.0768 18.2396 21.2958 19.7535 21.7308 22.0559L27.9809 56.3569C28.3824 58.6392 26.9085 60.8307 24.6433 61.3196Z" fill="#000000" fill-rule="nonzero" opacity="1" stroke="none"/>
<path d="M8.19286 55.4444C6.69261 55.6964 5.16706 55.1691 4.14274 54.0443C3.41432 53.1914 3.05729 52.0826 3.15122 50.9649C3.24514 49.8472 3.78221 48.8135 4.64276 48.0942L31.1685 25.5935C32.3123 24.5522 33.9336 24.2192 35.3952 24.7252C36.8569 25.2313 37.9251 26.4956 38.1802 28.0212C38.4352 29.5467 37.8362 31.0897 36.6187 32.0437L10.1804 54.5444C9.61481 55.0239 8.92636 55.3356 8.19286 55.4444Z" fill="#000000" fill-rule="nonzero" opacity="1" stroke="none"/>
<path d="M37.8562 49.9942C37.1431 50.1492 36.4002 50.0927 35.7187 49.8317L2.8177 38.1814C0.601594 37.3805-0.54571 34.9348 0.255126 32.7187C1.05596 30.5026 3.50168 29.3553 5.71779 30.1561L38.5188 41.8065C39.5764 42.1971 40.4349 42.993 40.9041 44.0182C41.3733 45.0435 41.4146 46.2134 41.0188 47.2691C40.5337 48.6817 39.325 49.7232 37.8562 49.9942Z" fill="#000000" fill-rule="nonzero" opacity="1" stroke="none"/>
<path d="M65.2945 45.8566C65.3109 45.0956 64.9796 44.3685 64.3945 43.8815C63.7172 43.3168 62.964 42.8497 62.157 42.494C61.2444 42.0815 60.2569 41.669 59.1819 41.244C58.1328 40.7869 57.1457 40.1989 56.2443 39.4939C55.3341 38.8273 54.5757 37.9752 54.0192 36.9938C53.3776 35.8508 53.062 34.5537 53.1067 33.2437C53.0871 32.0992 53.3042 30.9629 53.7442 29.9061C54.1546 28.9525 54.8048 28.1213 55.6318 27.4936C56.4888 26.8322 57.4712 26.3517 58.5193 26.081C59.7386 25.7348 61.0022 25.5705 62.2695 25.5935C63.7374 25.5955 65.2021 25.7336 66.6446 26.006C67.8287 26.203 68.9729 26.5915 70.0322 27.1561L68.3821 31.5437C67.5996 31.1151 66.7567 30.8074 65.8821 30.6312C64.6947 30.3247 63.4703 30.1859 62.2445 30.2186C61.252 30.1557 60.2657 30.4144 59.4319 30.9562C58.7926 31.4132 58.4225 32.1582 58.4443 32.9437C58.4536 33.6806 58.7875 34.3759 59.3569 34.8438C60.0029 35.4048 60.722 35.8758 61.4944 36.2438C62.407 36.6563 63.3945 37.1438 64.4695 37.4939C65.5343 37.9788 66.5477 38.5693 67.4946 39.2564C68.3858 39.9024 69.1453 40.7128 69.7322 41.644C70.3453 42.7251 70.6562 43.9514 70.6322 45.1941C70.6657 46.4832 70.4139 47.7638 69.8947 48.9442C69.4348 49.9203 68.7544 50.7762 67.9071 51.4443C66.9784 52.1759 65.9111 52.7117 64.7695 53.0193C63.4463 53.3564 62.0849 53.5203 60.7194 53.5068C59.0342 53.5454 57.3517 53.3519 55.7193 52.9318C54.607 52.6968 53.525 52.3362 52.4942 51.8568L54.0567 47.4942C54.4024 47.6868 54.7617 47.8539 55.1317 47.9942C55.5443 48.1567 56.1193 48.3192 56.6193 48.4817C57.1193 48.6442 57.7818 48.7317 58.4443 48.8942C59.0729 48.9965 59.7078 49.0549 60.3444 49.0692C61.5858 49.1627 62.8258 48.8702 63.8945 48.2317C64.8281 47.8287 65.3941 46.8685 65.2945 45.8566ZM72.7948 43.469C72.6358 40.7577 73.4914 38.0842 75.1948 35.9688C76.9292 34.1511 79.3743 33.1867 81.8825 33.3312C83.2413 33.2861 84.5936 33.5378 85.8452 34.0688C86.967 34.4947 87.9641 35.1953 88.7452 36.1063C89.5233 37.0485 90.0864 38.1492 90.3953 39.3314C90.7733 40.6786 90.9709 42.0699 90.9828 43.469C91.1429 46.1805 90.2873 48.8545 88.5827 50.9693C86.8449 52.7907 84.3962 53.7592 81.8825 53.6193C80.5229 53.6598 79.1707 53.4038 77.9199 52.8693C76.7864 52.4459 75.7796 51.7403 74.9948 50.8193C74.2259 49.8711 73.6638 48.7725 73.3448 47.5942C72.9515 46.2558 72.7742 44.8632 72.8198 43.469L72.7948 43.469ZM77.9199 43.469C77.9076 44.2473 77.9916 45.024 78.1699 45.7816C78.3275 46.4336 78.5451 47.0697 78.8199 47.6817C79.1041 48.2126 79.539 48.6476 80.07 48.9317C80.6189 49.2484 81.2506 49.3922 81.8825 49.3442C83.0254 49.4235 84.1246 48.8906 84.7701 47.9442C85.534 46.5869 85.8818 45.035 85.7702 43.4815C85.8154 41.9957 85.5024 40.5208 84.8576 39.1814C84.2928 38.0866 83.1376 37.4257 81.9075 37.4939C80.7715 37.4484 79.6879 37.9738 79.02 38.8939C78.1591 40.2554 77.7805 41.8666 77.9449 43.469L77.9199 43.469ZM98.408 33.8813L98.408 44.7816C98.3132 45.9423 98.5154 47.1081 98.9955 48.1692C99.4361 48.9151 100.272 49.3352 101.133 49.2442C102.008 49.2804 102.865 48.9858 103.533 48.4192C104.184 47.8635 104.687 47.1547 104.996 46.3566L104.996 33.9563L109.996 33.9563L109.996 47.3441C109.996 48.4192 110.083 49.4192 110.158 50.4067C110.231 51.3298 110.399 52.2429 110.658 53.1318L106.908 53.1318L105.996 50.3192L105.833 50.3192C105.243 51.3389 104.376 52.1709 103.333 52.7193C102.202 53.3983 100.902 53.7408 99.5831 53.7068C98.6879 53.705 97.7984 53.5659 96.9455 53.2943C96.2069 53.0652 95.5482 52.6318 95.0454 52.0443C94.4775 51.3449 94.0796 50.5234 93.8829 49.6442C93.5904 48.3737 93.4519 47.0727 93.4704 45.7691L93.4704 33.8813L98.408 33.8813ZM124.359 38.5064C123.666 38.2645 122.942 38.1255 122.209 38.0939C121.402 38.0626 120.612 38.3246 119.984 38.8314C119.401 39.3078 118.967 39.9412 118.734 40.6565L118.734 53.0568L113.733 53.0568L113.733 33.8813L117.621 33.8813L118.196 36.3813L118.359 36.3813C118.749 35.5065 119.345 34.7388 120.096 34.1438C120.871 33.6056 121.805 33.3457 122.746 33.4062C123.709 33.4753 124.655 33.699 125.546 34.0688L124.296 38.4439L124.359 38.5064ZM140.609 51.8943C139.754 52.493 138.803 52.9411 137.797 53.2193C136.694 53.5215 135.552 53.6605 134.409 53.6318C133.074 53.6727 131.746 53.4165 130.521 52.8818C129.498 52.4354 128.614 51.7233 127.959 50.8193C127.27 49.8552 126.792 48.756 126.559 47.5942C126.248 46.2419 126.11 44.856 126.146 43.469C125.98 40.7829 126.773 38.125 128.384 35.9688C129.986 34.158 132.333 33.1853 134.747 33.3312C135.885 33.2856 137.025 33.3949 138.134 33.6562C138.941 33.861 139.718 34.1677 140.447 34.5688L139.284 38.6189C138.721 38.358 138.141 38.1367 137.547 37.9564C136.903 37.7831 136.238 37.699 135.572 37.7064C134.359 37.6466 133.19 38.1662 132.422 39.1064C131.596 40.413 131.223 41.9546 131.359 43.494C131.349 44.2426 131.429 44.9896 131.597 45.7191C131.739 46.3789 132.021 47.001 132.422 47.5442C132.797 48.0578 133.279 48.4842 133.834 48.7942C134.449 49.103 135.134 49.2453 135.822 49.2067C136.549 49.2372 137.276 49.1225 137.959 48.8692C138.513 48.6523 139.041 48.3756 139.534 48.0442L140.609 51.8943ZM158.21 51.3943C157.245 52.1125 156.156 52.6464 154.997 52.9693C153.635 53.4026 152.214 53.626 150.785 53.6318C147.647 53.6318 145.409 52.7193 144.009 50.9068C142.48 48.7382 141.723 46.1191 141.859 43.469C141.859 40.0814 142.684 37.5189 144.247 35.8563C146.064 34.1157 148.523 33.2099 151.035 33.3562C151.982 33.3644 152.925 33.5032 153.835 33.7687C154.746 34.0061 155.598 34.4319 156.335 35.0188C157.105 35.6533 157.699 36.4756 158.06 37.4064C158.531 38.5989 158.757 39.8745 158.722 41.1565C158.733 41.7366 158.708 42.3169 158.647 42.894C158.56 43.469 158.485 44.1441 158.397 44.7941L146.822 44.7941C146.797 46.116 147.24 47.4042 148.072 48.4317C149.047 49.3461 150.366 49.8009 151.697 49.6817C152.658 49.7022 153.614 49.5323 154.51 49.1817C155.185 48.9399 155.824 48.6077 156.41 48.1942L158.147 51.4943L158.21 51.3943ZM151.022 37.2689C149.933 37.1804 148.865 37.6058 148.134 38.4189C147.44 39.3288 147.035 40.4262 146.972 41.569L154.085 41.569C154.254 40.4494 154.019 39.306 153.422 38.3439C152.866 37.5899 151.955 37.1821 151.022 37.2689ZM178.21 53.0568C178.21 55.8569 177.46 57.932 175.973 59.2445C174.166 60.6819 171.889 61.395 169.585 61.2446C168.116 61.2682 166.649 61.1298 165.21 60.832C164.372 60.6837 163.562 60.4053 162.81 60.007L163.885 56.0444C164.553 56.3307 165.248 56.5485 165.96 56.6944C166.907 56.9131 167.876 57.0263 168.848 57.0319C170.062 57.2851 171.322 56.9218 172.215 56.0613C173.108 55.2007 173.518 53.9544 173.31 52.7318L173.31 51.5818L173.148 51.5818C172.235 52.8318 170.648 53.3943 168.348 53.3943C166.237 53.5578 164.177 52.6974 162.81 51.0818C161.56 49.5067 160.997 47.1191 160.997 43.894C160.997 40.4189 161.822 37.8564 163.497 36.1188C165.393 34.2795 167.974 33.3223 170.61 33.4812C172.078 33.4277 173.547 33.5156 174.998 33.7437C176.065 33.9318 177.114 34.2078 178.135 34.5688L178.135 53.0568L178.21 53.0568ZM169.785 49.3067C170.581 49.3516 171.368 49.1173 172.01 48.6442C172.597 48.1055 173.029 47.4191 173.26 46.6566L173.26 38.0939C172.309 37.7421 171.299 37.5725 170.285 37.5939C169.119 37.5351 168.002 38.0657 167.31 39.0064C166.472 40.3957 166.095 42.015 166.235 43.6315C166.162 45.1198 166.476 46.6015 167.148 47.9317C167.69 48.8671 168.719 49.4107 169.798 49.3317L169.785 49.3067ZM192.673 38.4814C191.981 38.2395 191.256 38.1005 190.523 38.0689C189.716 38.0353 188.925 38.2976 188.298 38.8064C187.717 39.2838 187.283 39.9168 187.048 40.6315L187.048 53.0318L182.048 53.0318L182.048 33.8813L185.923 33.8813L186.511 36.3813L186.673 36.3813C187.059 35.5038 187.656 34.7353 188.411 34.1438C189.181 33.6056 190.111 33.3455 191.048 33.4062C191.81 33.4361 192.564 33.575 193.286 33.8187L192.623 38.4439L192.673 38.4814ZM195.073 34.7313C196.062 34.2558 197.122 33.9475 198.211 33.8187C199.654 33.5535 201.118 33.4154 202.586 33.4062C203.71 33.3705 204.832 33.5356 205.899 33.8938C206.716 34.1901 207.452 34.6739 208.049 35.3063C208.577 35.9249 208.946 36.6629 209.124 37.4564C209.358 38.3452 209.468 39.2624 209.449 40.1814C209.449 41.3315 209.449 42.4065 209.361 43.569C209.274 44.7316 209.286 45.7941 209.199 46.9566C209.111 48.1192 209.199 49.1067 209.286 50.1817C209.35 51.194 209.543 52.1939 209.861 53.1568L205.811 53.1568L204.999 50.5692C203.775 52.5085 201.587 53.6216 199.299 53.4693C198.481 53.4696 197.669 53.3301 196.898 53.0568C196.21 52.8204 195.588 52.4216 195.086 51.8943C194.58 51.4035 194.184 50.8114 193.923 50.1567C193.644 49.4181 193.504 48.6339 193.511 47.8442C193.465 46.7903 193.754 45.7489 194.336 44.8691C194.894 44.0214 195.666 43.3359 196.573 42.8815C197.7 42.3582 198.896 41.9963 200.124 41.8065C201.655 41.59 203.206 41.5356 204.749 41.644C204.983 40.6194 204.868 39.5462 204.424 38.5939C204.011 37.9314 203.174 37.6814 201.924 37.6814C200.869 37.6751 199.817 37.7841 198.786 38.0064C198.016 38.1344 197.264 38.3569 196.548 38.6689L194.998 34.7938L195.073 34.7313ZM200.936 49.1817C201.784 49.2146 202.621 48.9878 203.336 48.5317C203.856 48.1414 204.305 47.6634 204.661 47.1191L204.661 44.6191C203.889 44.5315 203.109 44.5315 202.336 44.6191C201.694 44.6645 201.057 44.7733 200.436 44.9441C199.947 45.0896 199.497 45.3463 199.123 45.6941C198.785 46.0198 198.603 46.475 198.623 46.9441C198.599 47.5634 198.84 48.1637 199.286 48.5942C199.72 49.0271 200.327 49.2388 200.936 49.1692L200.936 49.1817ZM213.336 33.8187L216.974 33.8187L217.499 36.2438L217.662 36.2438C218.907 34.338 221.091 33.2605 223.362 33.4312C225.447 33.2862 227.477 34.1454 228.824 35.7438C230.074 37.3189 230.637 39.7189 230.637 43.1065C230.671 44.6145 230.477 46.119 230.062 47.5692C229.698 48.7964 229.109 49.9452 228.324 50.9568C227.587 51.8669 226.656 52.6014 225.599 53.1068C224.417 53.6206 223.138 53.8722 221.849 53.8443C221.188 53.8421 220.527 53.7878 219.874 53.6818C219.331 53.5449 218.803 53.3522 218.299 53.1068L218.299 60.9571L213.299 60.9571L213.299 33.8813L213.336 33.8187ZM221.824 37.4939C220.989 37.4468 220.165 37.7094 219.512 38.2314C218.87 38.8395 218.412 39.6144 218.187 40.4689L218.187 48.4817C218.539 48.7526 218.926 48.9754 219.337 49.1442C219.872 49.3257 220.435 49.4104 220.999 49.3942C222.251 49.4669 223.457 48.9086 224.212 47.9067C225.069 46.3875 225.444 44.6437 225.287 42.9065C225.373 41.5636 225.087 40.2228 224.462 39.0314C223.985 38.0233 222.937 37.4124 221.824 37.4939ZM245.125 53.0568L245.125 42.144C245.201 40.9765 244.973 39.8091 244.462 38.7564C243.906 38.0024 242.995 37.5946 242.062 37.6814C241.217 37.667 240.395 37.9602 239.75 38.5064C239.048 39.0711 238.555 39.8544 238.35 40.7315L238.35 52.9693L233.35 52.9693L233.35 26.2435L238.35 26.2435L238.35 36.0813L238.512 36.0813C239.111 35.2701 239.874 34.5931 240.75 34.0938C241.799 33.5678 242.964 33.3141 244.137 33.3562C245.008 33.352 245.874 33.4914 246.7 33.7687C247.438 33.9998 248.096 34.4328 248.6 35.0188C249.16 35.7072 249.531 36.5303 249.675 37.4064C249.887 38.6452 249.996 39.8996 250 41.1565L250 53.1443L245.125 53.0568Z" fill="#000000" fill-rule="nonzero" opacity="1" stroke="none"/>
</g>
</g>
</svg>
