<?xml version="1.0" encoding="UTF-8" standalone="no"?>
<svg version="1.1" id="Layer_1" x="0px" y="0px" viewBox="0 0 32 32" xml:space="preserve" sodipodi:docname="sourceforge.svg" width="32" height="32" inkscape:version="1.4-beta2 (9aaf4f34, 2024-07-30)" xmlns:inkscape="http://www.inkscape.org/namespaces/inkscape" xmlns:sodipodi="http://sodipodi.sourceforge.net/DTD/sodipodi-0.dtd" xmlns="http://www.w3.org/2000/svg" xmlns:svg="http://www.w3.org/2000/svg"><sodipodi:namedview id="namedview1" pagecolor="#ffffff" bordercolor="#000000" borderopacity="0.25" inkscape:showpageshadow="2" inkscape:pageopacity="0.0" inkscape:pagecheckerboard="0" inkscape:deskcolor="#d1d1d1" inkscape:zoom="0.77413569" inkscape:cx="138.86455" inkscape:cy="132.40573" inkscape:window-width="1440" inkscape:window-height="790" inkscape:window-x="0" inkscape:window-y="0" inkscape:window-maximized="1" inkscape:current-layer="Layer_1" /><defs id="defs21">
    

    
</defs>
<style type="text/css" id="style1">
    .st0{fill:#FF6600;}
    .st1{fill:#FFFFFF;}
    .st2{fill:#FFFFFF;}
</style>



<g id="g1" transform="matrix(0.59451985,0,0,0.59451985,-6.729033e-8,-7.7807943)"><path class="st0" d="m 30.71445,41.447278 c 0,-8.775557 -3.124282,-12.7728 -4.778314,-14.288996 -0.321617,-0.275672 -0.827016,-0.04594 -0.78107,0.413508 0.321617,4.962095 -5.926947,6.202619 -5.926947,13.967379 v 0 c 0,0 0,0.04594 0,0.04594 0,4.732369 3.583735,8.591776 7.994486,8.591776 4.410751,0 7.994487,-3.859407 7.994487,-8.591776 0,0 0,-0.04594 0,-0.04594 v 0 c 0,-2.205376 -0.827016,-4.318861 -1.654032,-5.881002 -0.183781,-0.321617 -0.643234,-0.183781 -0.597289,0.09189 1.516196,6.708017 -2.251321,10.843097 -2.251321,5.697221 z" id="path1" style="fill:#000000;stroke-width:0.459453" /><path class="st0" d="m 21.203768,59.963244 c -0.183782,0 -0.413508,-0.09189 -0.551344,-0.229727 L 0.20675417,39.287848 c -0.27567195,-0.275672 -0.27567195,-0.781071 0,-1.102688 L 21.801057,16.590857 c 0.137836,-0.09189 0.321617,-0.183781 0.505398,-0.183781 h 6.202619 c 0.367563,0 0.59729,0.229727 0.68918,0.459453 0.09189,0.229727 0.09189,0.551344 -0.183781,0.827016 L 8.7525846,38.001379 c -0.4135079,0.413508 -0.4135079,1.056742 0,1.47025 L 24.787503,55.552493 c 0.275672,0.275672 0.275672,0.78107 0,1.102688 l -3.078337,3.124282 c -0.137836,0.09189 -0.321617,0.183781 -0.505398,0.183781 z" id="path2" style="fill:#000000;stroke-width:0.459453" /><path class="st0" d="m 25.292902,63.546979 c -0.367563,0 -0.59729,-0.229726 -0.68918,-0.459453 -0.09189,-0.229726 -0.09189,-0.551344 0.183781,-0.827016 L 45.095337,41.952677 c 0.183781,-0.183782 0.321617,-0.459454 0.321617,-0.735126 0,-0.275671 -0.09189,-0.551343 -0.321617,-0.735125 L 29.014473,24.401563 c -0.275672,-0.275672 -0.275672,-0.781071 0,-1.102688 l 3.124282,-3.124282 c 0.137836,-0.137836 0.321617,-0.229727 0.551344,-0.229727 0.229727,0 0.367563,0.137836 0.505399,0.275672 l 20.399724,20.44567 c 0.137836,0.137836 0.229726,0.321617 0.229726,0.551343 0,0.229727 -0.09189,0.413508 -0.229726,0.551344 L 32.000919,63.363198 c -0.137836,0.137836 -0.321617,0.229727 -0.551344,0.229727 h -6.156673 z" id="path3" style="fill:#000000;stroke-width:0.459453" /></g>
</svg>
