<?xml version="1.0" encoding="UTF-8"?><svg id="a" xmlns="http://www.w3.org/2000/svg" viewBox="0 0 260 80"><g id="b"><path d="m25.63,62.17c-1.16.23-2.36-.02-3.33-.68-.98-.66-1.65-1.69-1.87-2.85l-6.5-35.67c-.45-2.39,1.12-4.7,3.52-5.15,2.39-.45,4.7,1.12,5.15,3.52l6.5,35.67c.42,2.37-1.12,4.65-3.47,5.16Z" style="stroke-width:0px;"/><path d="m8.52,56.06c-1.56.26-3.15-.29-4.21-1.46-.76-.89-1.13-2.04-1.03-3.2.1-1.16.66-2.24,1.55-2.99l27.59-23.4c1.19-1.08,2.88-1.43,4.4-.9,1.52.53,2.63,1.84,2.9,3.43.27,1.59-.36,3.19-1.62,4.18l-27.5,23.4c-.59.5-1.3.82-2.07.94Z" style="stroke-width:0px;"/><path d="m39.37,50.39c-.74.16-1.51.1-2.22-.17L2.93,38.11c-2.3-.83-3.5-3.38-2.67-5.68.83-2.3,3.38-3.5,5.68-2.67l34.11,12.12c1.1.41,1.99,1.23,2.48,2.3.49,1.07.53,2.28.12,3.38-.5,1.47-1.76,2.55-3.29,2.83Z" style="stroke-width:0px;"/><path d="m67.91,46.09c.02-.79-.33-1.55-.94-2.05-.7-.59-1.49-1.07-2.33-1.44-.95-.43-1.98-.86-3.09-1.3-1.09-.48-2.12-1.09-3.06-1.82-.95-.69-1.74-1.58-2.31-2.6-.67-1.19-1-2.54-.95-3.9-.02-1.19.21-2.37.66-3.47.43-.99,1.1-1.86,1.96-2.51.89-.69,1.91-1.19,3-1.47,1.27-.36,2.58-.53,3.9-.51,1.53,0,3.05.15,4.55.43,1.23.2,2.42.61,3.52,1.2l-1.72,4.56c-.81-.45-1.69-.77-2.6-.95-1.23-.32-2.51-.46-3.78-.43-1.03-.07-2.06.2-2.93.77-.66.48-1.05,1.25-1.03,2.07,0,.77.36,1.49.95,1.98.67.58,1.42,1.07,2.22,1.46.95.43,1.98.94,3.09,1.3,1.11.5,2.16,1.12,3.15,1.83.93.67,1.72,1.51,2.33,2.48.64,1.12.96,2.4.94,3.69.03,1.34-.23,2.67-.77,3.9-.48,1.02-1.19,1.91-2.07,2.6-.97.76-2.08,1.32-3.26,1.64-1.38.35-2.79.52-4.21.51-1.75.04-3.5-.16-5.2-.6-1.16-.24-2.28-.62-3.35-1.12l1.62-4.54c.36.2.73.37,1.12.52.43.17,1.03.34,1.55.51.52.17,1.21.26,1.9.43.65.11,1.31.17,1.98.18,1.29.1,2.58-.21,3.69-.87.97-.42,1.56-1.42,1.46-2.47Zm7.8-2.48c-.17-2.82.72-5.6,2.5-7.8,1.8-1.89,4.35-2.89,6.96-2.74,1.41-.05,2.82.21,4.12.77,1.17.44,2.2,1.17,3.02,2.12.81.98,1.39,2.12,1.72,3.35.39,1.4.6,2.85.61,4.3.17,2.82-.72,5.6-2.5,7.8-1.81,1.89-4.35,2.9-6.97,2.76-1.41.04-2.82-.22-4.12-.78-1.18-.44-2.23-1.17-3.04-2.13-.8-.99-1.38-2.13-1.72-3.35-.41-1.39-.59-2.84-.55-4.29h-.03Zm5.33,0c-.01.81.07,1.62.26,2.41.16.68.39,1.34.68,1.98.3.55.75,1,1.3,1.3.57.33,1.23.48,1.88.43,1.19.08,2.33-.47,3-1.46.79-1.41,1.16-3.03,1.04-4.64.05-1.55-.28-3.08-.95-4.47-.59-1.14-1.79-1.83-3.07-1.75-1.18-.05-2.31.5-3,1.46-.9,1.42-1.29,3.09-1.12,4.76h-.03Zm21.31-9.97v11.34c-.1,1.21.11,2.42.61,3.52.46.78,1.33,1.21,2.22,1.12.91.04,1.8-.27,2.5-.86.68-.58,1.2-1.32,1.52-2.15v-12.9h5.2v13.92c0,1.12.09,2.16.17,3.19.08.96.25,1.91.52,2.83h-3.9l-.95-2.93h-.17c-.61,1.06-1.52,1.93-2.6,2.5-1.18.71-2.53,1.06-3.9,1.03-.93,0-1.86-.15-2.74-.43-.77-.24-1.45-.69-1.98-1.3-.59-.73-1-1.58-1.21-2.5-.3-1.32-.45-2.67-.43-4.03v-12.36h5.14Zm26.99,4.81c-.72-.25-1.47-.4-2.24-.43-.84-.03-1.66.24-2.31.77-.61.5-1.06,1.15-1.3,1.9v12.9h-5.2v-19.94h4.04l.6,2.6h.17c.41-.91,1.03-1.71,1.81-2.33.81-.56,1.78-.83,2.76-.77,1,.07,1.99.3,2.91.69l-1.3,4.55.07.06Zm16.9,13.92c-.89.62-1.88,1.09-2.92,1.38-1.15.31-2.33.46-3.52.43-1.39.04-2.77-.22-4.04-.78-1.06-.46-1.98-1.2-2.66-2.14-.72-1-1.21-2.15-1.46-3.35-.32-1.41-.47-2.85-.43-4.29-.17-2.79.65-5.56,2.33-7.8,1.67-1.88,4.11-2.89,6.62-2.74,1.18-.05,2.37.07,3.52.34.84.21,1.65.53,2.41.95l-1.21,4.21c-.59-.27-1.19-.5-1.81-.69-.67-.18-1.36-.27-2.05-.26-1.26-.06-2.48.48-3.28,1.46-.86,1.36-1.25,2.96-1.11,4.56-.01.78.07,1.56.25,2.31.15.69.44,1.33.86,1.9.39.53.89.98,1.47,1.3.64.32,1.35.47,2.07.43.76.03,1.51-.09,2.22-.35.58-.23,1.13-.51,1.64-.86l1.12,4Zm18.31-.52c-1,.75-2.14,1.3-3.34,1.64-1.42.45-2.89.68-4.38.69-3.26,0-5.59-.95-7.05-2.83-1.59-2.26-2.38-4.98-2.24-7.74,0-3.52.86-6.19,2.48-7.92,1.89-1.81,4.45-2.75,7.06-2.6.98,0,1.97.15,2.91.43.95.25,1.83.69,2.6,1.3.8.66,1.42,1.52,1.79,2.48.49,1.24.72,2.57.69,3.9.01.6-.01,1.21-.08,1.81-.09.6-.17,1.3-.26,1.98h-12.04c-.03,1.37.43,2.71,1.3,3.78,1.01.95,2.39,1.42,3.77,1.3,1,.02,1.99-.16,2.93-.52.7-.25,1.37-.6,1.98-1.03l1.81,3.43.07-.1Zm-7.48-14.69c-1.13-.09-2.24.35-3,1.2-.72.95-1.14,2.09-1.21,3.28h7.4c.18-1.16-.07-2.35-.69-3.35-.58-.78-1.53-1.21-2.5-1.12Zm28.28,16.42c0,2.91-.78,5.07-2.33,6.44-1.88,1.49-4.25,2.24-6.64,2.08-1.53.02-3.05-.12-4.55-.43-.87-.15-1.71-.44-2.5-.86l1.12-4.12c.69.3,1.42.52,2.16.68.98.23,1.99.35,3,.35,1.26.26,2.57-.11,3.5-1.01.93-.9,1.36-2.19,1.14-3.46v-1.2h-.17c-.95,1.3-2.6,1.88-4.99,1.88-2.2.17-4.34-.72-5.76-2.4-1.3-1.64-1.89-4.12-1.89-7.48,0-3.61.86-6.28,2.6-8.09,1.97-1.91,4.66-2.91,7.4-2.74,1.53-.06,3.05.04,4.56.27,1.11.2,2.2.48,3.26.86v19.23h.08Zm-8.76-3.9c.83.05,1.65-.2,2.31-.69.61-.56,1.06-1.27,1.3-2.07v-8.91c-.99-.37-2.04-.54-3.09-.52-1.21-.06-2.37.49-3.09,1.47-.87,1.44-1.26,3.13-1.12,4.81-.08,1.55.25,3.09.95,4.47.56.97,1.63,1.54,2.76,1.46v-.03Zm23.8-11.26c-.72-.25-1.47-.4-2.24-.43-.84-.03-1.66.24-2.31.77-.6.5-1.06,1.15-1.3,1.9v12.9h-5.2v-19.92h4.03l.61,2.6h.17c.4-.91,1.02-1.71,1.81-2.33.8-.56,1.77-.83,2.74-.77.79.03,1.58.18,2.33.43l-.69,4.81.05.04Zm2.5-3.9c1.03-.49,2.13-.82,3.26-.95,1.5-.28,3.02-.42,4.55-.43,1.17-.04,2.34.13,3.45.51.85.31,1.62.81,2.24,1.47.55.64.93,1.41,1.12,2.24.24.92.36,1.88.34,2.83,0,1.2,0,2.31-.09,3.52-.09,1.21-.08,2.31-.17,3.52-.09,1.21,0,2.24.09,3.35.07,1.05.27,2.09.6,3.09h-4.21l-.84-2.69c-1.27,2.02-3.55,3.17-5.93,3.02-.85,0-1.7-.14-2.5-.43-.72-.25-1.36-.66-1.88-1.21-.53-.51-.94-1.13-1.21-1.81-.29-.77-.44-1.58-.43-2.4-.05-1.1.25-2.18.86-3.09.58-.88,1.38-1.59,2.33-2.07,1.17-.54,2.42-.92,3.69-1.12,1.59-.23,3.21-.28,4.81-.17.24-1.07.12-2.18-.34-3.17-.43-.69-1.3-.95-2.6-.95-1.1,0-2.19.11-3.26.34-.8.13-1.58.36-2.33.69l-1.61-4.03.08-.06Zm6.1,15.03c.88.03,1.75-.2,2.5-.68.54-.41,1.01-.9,1.38-1.47v-2.6c-.8-.09-1.61-.09-2.42,0-.67.05-1.33.16-1.98.34-.51.15-.98.42-1.37.78-.35.34-.54.81-.52,1.3-.02.64.23,1.27.69,1.72.45.45,1.08.67,1.72.6h0Zm12.9-15.98h3.78l.55,2.52h.17c1.29-1.98,3.57-3.1,5.93-2.93,2.17-.15,4.28.74,5.68,2.41,1.3,1.64,1.89,4.13,1.89,7.66.04,1.57-.17,3.13-.6,4.64-.38,1.28-.99,2.47-1.81,3.52-.77.95-1.73,1.71-2.83,2.24-1.23.53-2.56.8-3.9.77-.69,0-1.37-.06-2.05-.17-.56-.14-1.11-.34-1.64-.6v8.16h-5.2v-28.16l.04-.07Zm8.83,3.82c-.87-.05-1.73.22-2.4.77-.67.63-1.14,1.44-1.38,2.33v8.33c.37.28.77.51,1.2.69.56.19,1.14.28,1.73.26,1.3.08,2.56-.51,3.34-1.55.89-1.58,1.28-3.39,1.12-5.2.09-1.4-.21-2.79-.86-4.03-.5-1.05-1.59-1.68-2.74-1.6Zm24.23,16.19v-11.35c.08-1.21-.16-2.43-.69-3.52-.58-.78-1.53-1.21-2.5-1.12-.88-.01-1.73.29-2.4.86-.73.59-1.24,1.4-1.46,2.31v12.73h-5.2v-27.79h5.2v10.23h.17c.62-.84,1.42-1.55,2.33-2.07,1.09-.55,2.3-.81,3.52-.77.91,0,1.81.14,2.67.43.77.24,1.45.69,1.98,1.3.58.72.97,1.57,1.12,2.48.22,1.29.33,2.59.34,3.9v12.47l-5.07-.09Z" style="stroke-width:0px;"/></g></svg>