<?xml version="1.0" encoding="UTF-8" standalone="no"?>
<svg viewBox="0 1 31.999999 32" width="32" height="32" version="1.1" id="svg1" xmlns="http://www.w3.org/2000/svg" xmlns:svg="http://www.w3.org/2000/svg">
  <defs id="defs1" />
  <path fill="#000" d="M 12.891676,9.8363243 16.768865,10.870703 14.128433,1 9.6570812,2.2038919 11.248433,8.1887568 a 2.3178378,2.3178378 0 0 0 1.643243,1.6475675 M 6.336865,29.940108 14.795243,21.499027 17.874162,33 22.345514,31.796108 17.88973,15.097297 1.1900542,10.645838 8.65e-4,15.14227 l 11.491459,3.072 -8.4237833,8.428973 z m 15.770811,-13.727135 1.037838,3.894486 a 2.3264865,2.3264865 0 0 0 1.643243,1.644973 l 6.021189,1.6 L 31.999135,18.856 Z M 25.663135,4.0572973 21.814487,7.9016216 A 2.3351351,2.3351351 0 0 0 21.131243,9.492973 l -0.06227,2.438919 2.254703,0.07784 c -0.02854,0 0.02854,0 0,0 0.617513,0 1.197838,-0.241298 1.632865,-0.677189 l 3.974054,-3.9783808 z" style="fill:#000000;stroke-width:0.864865" id="path1" />
</svg>
