<?xml version="1.0" encoding="UTF-8" standalone="no"?>
<!-- Uploaded to: SVG Repo, www.svgrepo.com, Generator: SVG Repo Mixer Tools -->

<svg width="32" height="32" viewBox="0 0 0.8 0.8" version="1.1" id="svg1" sodipodi:docname="spotify.svg" inkscape:version="1.4-beta2 (9aaf4f34, 2024-07-30)" xmlns:inkscape="http://www.inkscape.org/namespaces/inkscape" xmlns:sodipodi="http://sodipodi.sourceforge.net/DTD/sodipodi-0.dtd" xmlns="http://www.w3.org/2000/svg" xmlns:svg="http://www.w3.org/2000/svg" xmlns:rdf="http://www.w3.org/1999/02/22-rdf-syntax-ns#" xmlns:cc="http://creativecommons.org/ns#" xmlns:dc="http://purl.org/dc/elements/1.1/">
  <sodipodi:namedview id="namedview1" pagecolor="#ffffff" bordercolor="#000000" borderopacity="0.25" inkscape:showpageshadow="2" inkscape:pageopacity="0.0" inkscape:pagecheckerboard="0" inkscape:deskcolor="#d1d1d1" inkscape:zoom="1.6608004" inkscape:cx="23.181593" inkscape:cy="53.889678" inkscape:window-width="1440" inkscape:window-height="790" inkscape:window-x="0" inkscape:window-y="0" inkscape:window-maximized="1" inkscape:current-layer="svg1" />
  <title id="title1">spotify [#162]</title>
  <desc id="desc1">Created with Sketch.</desc>
  <defs id="defs1" />
  <g id="Page-1" stroke="none" stroke-width="1" fill="none" fill-rule="evenodd" transform="scale(0.04)">
    <g id="Dribbble-Light-Preview" transform="translate(-140,-7479)" fill="#000000">
      <g id="icons" transform="translate(56,160)">
        <path d="m 99.915,7327.865 c -3.223,-1.914 -8.54,-2.09 -11.618,-1.156 -0.494,0.149 -1.016,-0.129 -1.166,-0.624 -0.15,-0.494 0.129,-1.016 0.623,-1.166 3.533,-1.073 9.405,-0.866 13.116,1.337 0.444,0.264 0.59,0.838 0.326,1.282 -0.262,0.444 -0.838,0.591 -1.281,0.327 z m -0.105,2.835 c -0.226,0.367 -0.706,0.482 -1.073,0.257 -2.687,-1.652 -6.785,-2.13 -9.964,-1.165 -0.413,0.124 -0.848,-0.108 -0.973,-0.52 -0.124,-0.412 0.108,-0.847 0.52,-0.972 3.631,-1.102 8.146,-0.568 11.233,1.329 0.367,0.225 0.482,0.705 0.257,1.071 z m -1.224,2.723 c -0.18,0.294 -0.563,0.387 -0.857,0.207 -2.348,-1.435 -5.304,-1.759 -8.785,-0.964 -0.335,0.077 -0.67,-0.133 -0.746,-0.469 -0.077,-0.335 0.132,-0.669 0.469,-0.746 3.809,-0.871 7.076,-0.496 9.712,1.115 0.294,0.18 0.387,0.563 0.207,0.857 z M 94,7319 c -5.523,0 -10,4.477 -10,10 0,5.523 4.477,10 10,10 5.523,0 10,-4.477 10,-10 0,-5.522 -4.477,-9.999 -10,-9.999 z" id="spotify-[#162]" />
      </g>
    </g>
  </g>
  <metadata id="metadata1">
    <rdf:RDF>
      <cc:Work rdf:about="">
        <dc:title>spotify [#162]</dc:title>
      </cc:Work>
    </rdf:RDF>
  </metadata>
</svg>
