<svg width="32" height="32" viewBox="0 0 0.8 0.8" xmlns="http://www.w3.org/2000/svg">
  <path d="M.637.355A.665.665 0 0 0 .172.308.037.037 0 0 1 .15.237.739.739 0 0 1 .675.29a.037.037 0 0 1-.038.065zM.632.468a.031.031 0 0 1-.043.01.525.525 0 0 0-.398-.046.031.031 0 0 1-.018-.06.584.584 0 0 1 .45.053c.014.01.018.028.01.043zM.583.577A.025.025 0 0 1 .55.585.46.46 0 0 0 .198.547.025.025 0 1 1 .187.498a.508.508 0 0 1 .388.045.025.025 0 0 1 .008.034zM.4 0a.4.4 0 1 0 0 .8.4.4 0 0 0 0-.8z" fill="#000" fill-rule="evenodd"/>
</svg>