<?xml version="1.0" encoding="UTF-8" standalone="no"?>
<!-- Created with Vectornator (http://vectornator.io/) -->

<svg height="32" stroke-miterlimit="10" style="clip-rule:evenodd;fill-rule:nonzero;stroke-linecap:round;stroke-linejoin:round" version="1.1" viewBox="0 0 32 32" width="32" xml:space="preserve" id="svg5" sodipodi:docname="springer.svg" inkscape:version="1.4-beta2 (9aaf4f34, 2024-07-30)" xmlns:inkscape="http://www.inkscape.org/namespaces/inkscape" xmlns:sodipodi="http://sodipodi.sourceforge.net/DTD/sodipodi-0.dtd" xmlns="http://www.w3.org/2000/svg" xmlns:svg="http://www.w3.org/2000/svg"><sodipodi:namedview id="namedview5" pagecolor="#ffffff" bordercolor="#000000" borderopacity="0.25" inkscape:showpageshadow="2" inkscape:pageopacity="0.0" inkscape:pagecheckerboard="0" inkscape:deskcolor="#d1d1d1" inkscape:zoom="2.7800518" inkscape:cx="32.733203" inkscape:cy="29.316" inkscape:window-width="1440" inkscape:window-height="790" inkscape:window-x="0" inkscape:window-y="0" inkscape:window-maximized="1" inkscape:current-layer="svg5" />
<defs id="defs1" />

<g clip-path="url(#ClipPath)" id="g3" style="clip-rule:evenodd;fill-rule:nonzero;stroke-linecap:round;stroke-linejoin:round" transform="matrix(0.61881459,0,0,0.61881459,3.0131882,-8.2555599)">
<path d="m 14.7103,27.981 -3.2835,1.7516 -0.2187,-2.7004 3.4298,-0.3649 z M 6.31878,36.0822 C 6.39217,37.029 6.24559,38.4907 5.73471,39.2185 L 4.20245,38.6346 C 4.71313,37.9068 5.00527,36.885 5.00527,36.0092 Z M 36.7494,52.2096 c 4.231,-17.4411 -0.7299,-31.308 -14.2298,-32.9137 0.0729,0.7319 0.0729,1.3137 0.0729,1.8976 0,0.8758 -0.0729,1.6056 -0.0729,1.6056 L 20.403,22.4342 c 0.073,-0.7298 0.219,-5.6907 -1.5332,-6.7855 0,0 0,2.6254 -0.5829,5.2529 l -1.971,-0.3629 c 0,-1.8246 -0.8028,-2.5545 -1.8967,-3.0654 l 0.5109,3.5763 -1.2414,1.8225 0.5841,1.6786 -3.8675,1.3138 -1.095,3.1383 -6.78668,9.3399 2.55484,3.0653 2.84596,-2.4065 0.65645,0.4359 v 3.5762 h 1.53223 c 0.6573,-2.5544 2.7728,-5.5467 4.7438,-7.0044 l -1.095,-1.3137 1.6057,-1.3887 1.5324,1.8996 5.4736,-0.075 c 0.8028,-1.7496 1.3137,-3.8661 1.3137,-6.3476 h 2.1165 c 0,8.3202 -4.16,11.6024 -9.3413,16.7113 -1.8978,1.8969 -3.5766,3.9411 -3.7953,6.7145 z m 5.2528,2.0415 H 7.5591 v -2.1145 h 2.9194 c 0.5108,-6.8605 7.0778,-9.4149 10.7274,-14.9597 h -4.2327 c -2.0431,0.7299 -5.1089,5.2529 -5.1089,7.8803 H 6.53773 L 6.61092,42.8677 4.8587,44.3273 0.188341,38.9265 c 0,0 -0.2187491,-0.2919 -0.2187491,-0.5109 0,-0.2169 0.0731866,-0.3649 0.0731866,-0.3649 L 7.41374,28.054 8.72623,24.1128 10.6972,23.383 12.7403,20.5387 12.0107,15.5758 c 1.97,-0.7299 3.8677,-0.073 4.8159,0.8737 0.0734,-1.4576 -0.0721,-3.0633 -0.0721,-3.0633 3.5026,-0.3649 4.7433,1.5327 5.3272,3.6492 0.9467,0.073 1.8246,0.217 2.6274,0.365 0.1439,-0.4379 0.5838,-0.8029 1.0947,-0.8029 0.6549,0 1.0928,0.5109 1.0928,1.0948 v 0.2919 c 1.5347,0.5109 2.9923,1.2408 4.306,2.0436 0.219,-0.292 0.5109,-0.44 0.8758,-0.44 0.6569,0 1.0948,0.5109 1.0948,1.0948 0,0.2919 -0.073,0.5109 -0.219,0.6589 1.2407,1.0218 2.2625,2.2605 3.2113,3.5742 0.146,-0.073 0.3649,-0.146 0.5109,-0.146 0.6569,0 1.1677,0.5109 1.1677,1.0948 0,0.4379 -0.2189,0.8028 -0.5838,0.9487 0.7298,1.3138 1.3117,2.7734 1.7516,4.3061 0.073,-0.073 0.2189,-0.073 0.2919,-0.073 0.6569,0 1.0927,0.5109 1.0927,1.0948 0,0.5838 -0.3628,1.0217 -0.8007,1.0947 0.2899,1.5327 0.5108,3.0653 0.6568,4.671 0.6548,0 1.1657,0.5088 1.1657,1.0947 0,0.6549 -0.5109,1.0928 -1.0927,1.1658 0,1.5326 -0.073,3.2112 -0.219,4.8169 0.5819,0.073 1.0218,0.5839 1.0218,1.1677 0,0.5839 -0.5109,1.0946 -1.1677,1.0946 h -0.075 c -0.2899,1.6058 -0.5819,3.2094 -0.9468,4.8901 h 3.0633 v 2.1145" fill="#000000" fill-rule="nonzero" opacity="1" stroke="none" id="path3" /><path d="M 7.5593,65.0527 H 42.0036 V 60.8199 H 7.5593 Z" fill="#000000" fill-rule="nonzero" opacity="1" stroke="none" id="path4" inkscape:label="path4" style="clip-rule:evenodd;fill-rule:nonzero;stroke-linecap:round;stroke-linejoin:round" />
</g>
</svg>
