<?xml version="1.0" encoding="UTF-8"?><svg id="a" xmlns="http://www.w3.org/2000/svg" viewBox="0 0 280 80"><defs><style>.b{stroke-width:0px;}</style></defs><path class="b" d="m76.1,37.48l2.71-2.53h-5.5v-6.54h-2.96v20.66c0,2.97,1.64,5.35,5.06,5.35h2.08v-2.51h-1.5c-1.94,0-2.68-1.06-2.68-2.97v-11.46h2.79Z"/><polygon class="b" points="131.6 34.51 128.02 34.51 118.97 43.29 118.97 25.55 115.98 25.55 115.98 54.45 118.97 54.45 118.97 47.2 122.52 43.62 129.22 54.49 132.8 54.49 124.46 41.7 131.6 34.51"/><path class="b" d="m106.62,36.95c1.81-.05,3.52.76,4.61,2.22l1.94-1.94c-1.58-1.96-4.02-3.06-6.54-2.96-5.05,0-8.78,3.41-8.78,10.26s3.88,10.26,8.78,10.26c2.52.1,4.94-1,6.54-2.96l-1.94-1.94c-1.09,1.44-2.8,2.27-4.61,2.23-1.82.12-3.56-.73-4.61-2.23-1.02-1.58-1.5-3.48-1.34-5.35-.16-1.87.3-3.77,1.34-5.34,1.03-1.51,2.79-2.37,4.61-2.25Z"/><path class="b" d="m62.17,43.3h-.01l-3.27-.31c-2.53-.15-3.41-1.18-3.41-2.97,0-2.08,1.49-3.26,4.46-3.26,1.93-.15,3.83.43,5.34,1.64l1.93-1.94c-2.07-1.5-4.59-2.23-7.13-2.08-4.32,0-7.29,2.23-7.29,5.79,0,3.27,2.08,5.06,5.96,5.35l3.27.3c2.38.14,3.26,1.2,3.26,2.96,0,2.38-2.08,3.56-5.34,3.56-2.33.14-4.6-.71-6.25-2.36l-1.94,1.94c2.24,2,5.19,3.03,8.2,2.8,4.75,0,8.17-2.23,8.17-6.08s-2.38-5.05-5.94-5.34Z"/><path class="b" d="m87.14,34.22c-3.26-.01-5.2.58-6.99,2.79l1.94,1.94c1.13-1.64,3.09-2.5,5.06-2.23,3.74,0,5.06,1.49,5.06,4.32v1.94h-5.96c-4.46,0-6.84,2.23-6.84,5.79-.05,1.5.46,2.95,1.49,4.04,1.18,1.35,2.8,1.8,5.6,1.8,2.14.15,4.24-.6,5.8-2.09v1.94h2.96v-13.54c-.06-4.32-2.78-6.7-8.13-6.7Zm4.02,16.63c-1.24,1.06-2.85,1.54-4.46,1.36-3.11,0-4.61-1.06-4.61-3.44s1.5-3.56,4.46-3.56h5.65v2.23c.18,1.24-.19,2.5-1.06,3.41h.01Z"/><path class="b" d="m182.31,33.48h-.03c-5.35-.01-9.08,3.86-9.08,10.54,0,8.48,4.76,10.7,9.66,10.7,2.98.16,5.89-1.03,7.88-3.26l-3.12-3.12c-1.21,1.36-2.96,2.07-4.76,1.94-2.38.16-4.44-1.64-4.6-4.01v-.58h12.96v-2.39c.16-5.65-3.1-9.82-8.91-9.82Zm-4.05,8.62c0-.78.16-1.52.44-2.23.61-1.31,1.97-2.13,3.44-2.08,1.48-.12,2.84.72,3.41,2.08.29.71.44,1.48.44,2.23h-7.73Z"/><path class="b" d="m241.05,33.47h-.02c-2.39-.15-4.74.76-6.38,2.53-1.94,1.94-2.38,4.32-2.38,8.02s.44,6.11,2.38,8.03c1.71,1.65,4.02,2.55,6.4,2.53,2.4.16,4.75-.76,6.4-2.53,1.94-1.94,2.38-4.32,2.38-8.03s-.44-6.08-2.38-8.02c-1.65-1.77-3.98-2.68-6.4-2.53Zm2.55,15.59c-1.37,1.2-3.39,1.2-4.76,0-1.06-1.06-1.2-2.97-1.2-5.06s.15-4.02,1.2-5.05c1.37-1.2,3.39-1.2,4.76,0,1.03,1.03,1.2,2.8,1.2,5.05s-.17,4.04-1.2,5.06Z"/><path class="b" d="m227.33,48.8h0l.02-.61v-22.59h-5.22v22.88c-.09,1.5.43,2.96,1.43,4.08s2.4,1.79,3.9,1.86h3.74v-4.44h-1.94c-.86.17-1.69-.34-1.93-1.18Z"/><path class="b" d="m145.29,33.47c-2.4-.16-4.75.76-6.4,2.53-1.94,1.94-2.38,4.32-2.38,8.02s.44,6.11,2.38,8.03c1.71,1.65,4.02,2.55,6.4,2.53,2.4.15,4.75-.76,6.4-2.53,1.94-1.94,2.38-4.32,2.38-8.03s-.44-6.08-2.38-8.02c-1.65-1.77-3.98-2.68-6.4-2.53Zm2.53,15.59h-.01c-1.37,1.17-3.38,1.17-4.75,0-1.04-1.02-1.18-2.96-1.18-5.04s.15-4.02,1.21-5.05c1.36-1.21,3.39-1.21,4.75,0,1.06,1.03,1.2,2.8,1.2,5.05s-.16,4.02-1.21,5.04Z"/><path class="b" d="m215.89,31.84c-.15-.92.44-1.78,1.35-1.95h2.38v-4.46h-2.97c-3.2-.09-5.87,2.44-5.96,5.64v23.36h5.2v-16.36h3.88v-4.02h-3.88v-2.22Z"/><polygon class="b" points="274.4 33.62 274.4 33.6 270.98 46.38 266.67 33.6 262.93 33.6 258.76 46.53 255.34 33.75 249.85 33.75 256.23 54.58 260.55 54.58 264.86 41.5 269.18 54.58 273.62 54.58 280 33.77 274.4 33.62"/><path class="b" d="m204.15,33.62c-1.96-.15-3.88.62-5.2,2.08h-.01v-1.94h-5.06v20.83h5.2v-12.49c-.15-1.92,1.22-3.62,3.12-3.87h.31c1.02-.01,2,.42,2.68,1.2l3.84-3.87c-1.26-1.36-3.05-2.07-4.89-1.94Z"/><polygon class="b" points="168 33.62 163.83 46.4 159.66 33.62 154.17 33.62 161.92 54.45 165.92 54.45 173.5 33.62 168 33.62"/><polygon class="b" points="38.66 57.56 5.94 57.56 5.94 44.17 0 44.17 0 63.52 44.62 63.52 44.62 44.17 38.66 44.17 38.66 57.56"/><polygon class="b" points="41.8 32.11 22.91 16.4 19.77 20.14 38.66 35.85 41.8 32.11"/><polygon class="b" points="35.38 42.74 11.43 37.78 10.4 42.7 34.33 47.12 35.38 42.74"/><polygon class="b" points="37.92 37.06 15.62 26.66 13.54 31.09 35.84 41.49 37.92 37.06"/><rect class="b" x="10.4" y="48.63" width="23.79" height="4.46"/><polygon class="b" points="28 11.47 42.68 31.24 46.66 28.28 31.96 8.48 28 11.47"/></svg>