<?xml version="1.0" encoding="UTF-8" standalone="no"?>
<!DOCTYPE svg PUBLIC "-//W3C//DTD SVG 1.1//EN" "http://www.w3.org/Graphics/SVG/1.1/DTD/svg11.dtd">
<!-- Created with Vectornator (http://vectornator.io/) -->
<svg height="100%" stroke-miterlimit="10" style="fill-rule:nonzero;clip-rule:evenodd;stroke-linecap:round;stroke-linejoin:round;" version="1.1" viewBox="0 0 250 80" width="100%" xml:space="preserve" xmlns="http://www.w3.org/2000/svg" xmlns:xlink="http://www.w3.org/1999/xlink">
<defs/>
<path d="M0 0L250 0L250 80L0 80L0 0Z" fill="#000000" fill-opacity="0" fill-rule="nonzero" opacity="1" stroke="none"/>
<clipPath id="ArtboardFrame">
<rect height="80" width="250" x="0" y="0"/>
</clipPath>
<g clip-path="url(#ArtboardFrame)" id="Sem-Título">
<g opacity="1">
<path d="M55.5 46.5084L52.575 46.2416C50.3166 46.1084 49.525 45.175 49.525 43.5834C49.525 41.725 50.85 40.6666 53.5084 40.6666C55.2272 40.5306 56.9337 41.0517 58.2834 42.125L60 40.4C58.153 39.07 55.9057 38.4141 53.6334 38.5416C49.7834 38.5416 47.125 40.5334 47.125 43.7166C47.125 46.6416 48.9834 48.2334 52.4334 48.5L55.3584 48.7666C57.4834 48.8916 58.275 49.825 58.275 51.4166C58.275 53.5416 56.4166 54.6084 53.5 54.6084C51.4255 54.7361 49.3957 53.9685 47.925 52.5L46.2 54.225C48.1956 56.016 50.8339 56.9185 53.5084 56.725C57.75 56.725 60.8084 54.7334 60.8084 51.2834C60.8084 47.8334 58.6834 46.775 55.5 46.5084ZM77.8 38.4084C74.8834 38.4084 73.1584 38.9416 71.5584 40.9084L73.2834 42.6334C74.2961 41.1747 76.04 40.4057 77.8 40.6416C81.1334 40.6416 82.3166 41.9666 82.3166 44.4916L82.3166 46.2166L77.0084 46.2166C73.025 46.2166 70.9 48.2084 70.9 51.3916C70.8432 52.723 71.3201 54.0219 72.225 55C73.2834 56.2 74.725 56.6 77.225 56.6C79.1385 56.7347 81.0201 56.0571 82.4084 54.7334L82.4084 56.4666L85.0584 56.4666L85.0584 44.3834C85 40.5334 82.5834 38.4084 77.8 38.4084ZM82.3166 50.225C82.486 51.3307 82.1424 52.4534 81.3834 53.275C80.2746 54.2011 78.8359 54.6346 77.4 54.475C74.6166 54.475 73.2834 53.5416 73.2834 51.4166C73.2834 49.2916 74.6166 48.2334 77.2666 48.2334L82.3166 48.2334L82.3166 50.225ZM95.1916 40.8334C96.8049 40.794 98.3379 41.5358 99.3084 42.825L101.033 41.0916C99.6131 39.341 97.4527 38.3596 95.2 38.4416C90.6916 38.4416 87.3666 41.4916 87.3666 47.6084C87.3666 53.725 90.825 56.775 95.2 56.775C97.4532 56.8598 99.6147 55.8777 101.033 54.125L99.3084 52.4C98.3379 53.6893 96.8049 54.431 95.1916 54.3916C93.5656 54.4934 92.0045 53.7381 91.075 52.4C90.1602 50.981 89.7412 49.299 89.8834 47.6166C89.74 45.9369 90.1591 44.2571 91.075 42.8416C91.9984 41.4946 93.5617 40.732 95.1916 40.8334ZM117.5 38.675L114.308 38.675L106.217 46.5084L106.217 30.675L103.558 30.675L103.558 56.4666L106.217 56.4666L106.217 50L109.4 46.8166L115.375 56.5084L118.558 56.5084L111.125 45.0834L117.5 38.675ZM129.716 37.7416C127.571 37.5965 125.474 38.4261 124.008 40C122.275 41.725 121.883 43.85 121.883 47.1666C121.883 50.4834 122.275 52.6166 124.008 54.3416C125.544 55.8104 127.592 56.6209 129.716 56.6C131.861 56.7379 133.955 55.9095 135.425 54.3416C137.15 52.6166 137.55 50.4916 137.55 47.1666C137.55 43.8416 137.15 41.725 135.425 40C133.957 38.4281 131.862 37.599 129.716 37.7416ZM131.966 51.6666C130.75 52.7236 128.941 52.7236 127.725 51.6666C126.791 50.75 126.666 49.025 126.666 47.1666C126.666 45.3084 126.8 43.5834 127.734 42.6584C128.945 41.5904 130.762 41.5904 131.975 42.6584C132.909 43.5834 133.041 45.1584 133.041 47.1666C133.041 49.175 132.9 50.75 131.966 51.6666ZM150 37.875L146.284 49.2916L142.566 37.875L137.659 37.875L144.559 56.4666L148.141 56.4666L154.916 37.875L150 37.875ZM162.75 37.7416C157.966 37.7416 154.65 41.1916 154.65 47.1666C154.65 54.7334 158.9 56.725 163.275 56.725C165.944 56.8749 168.535 55.8014 170.316 53.8084L167.525 51.0166C166.457 52.2267 164.884 52.8654 163.275 52.7416C161.155 52.8847 159.317 51.2864 159.166 49.1666L159.166 48.6416L170.725 48.6416L170.725 46.5084C170.875 41.4584 167.95 37.7416 162.775 37.7416L162.75 37.7416ZM159.166 45.4416C159.171 44.7583 159.308 44.0823 159.566 43.45C160.121 42.273 161.325 41.5412 162.625 41.5916C163.936 41.4861 165.167 42.236 165.675 43.45C165.935 44.0823 166.07 44.7583 166.075 45.4416L159.166 45.4416ZM177.625 39.7334L177.625 38.0084L173.109 38.0084L173.109 56.6L177.759 56.6L177.759 45.4416C177.62 43.7311 178.847 42.2127 180.55 41.9916L180.834 41.9916C181.748 41.9779 182.621 42.3645 183.225 43.05L186.666 39.6C185.545 38.392 183.936 37.7576 182.291 37.875C180.538 37.7401 178.82 38.4265 177.641 39.7334L177.625 39.7334ZM188.116 36.0166L188.116 56.4666L192.759 56.4666L192.759 41.8584L196.216 41.8584L196.216 38.275L192.759 38.275L192.759 36.2834C192.621 35.4774 193.155 34.7103 193.959 34.5584L196.084 34.5584L196.084 30.575L193.425 30.575C190.566 30.5004 188.189 32.7581 188.116 35.6166L188.116 35.6166L188.116 36.0166ZM215.2 37.7416C213.06 37.6016 210.97 38.4307 209.509 40C207.784 41.725 207.384 43.85 207.384 47.1666C207.384 50.4834 207.784 52.6166 209.509 54.3416C211.044 55.8104 213.092 56.6209 215.216 56.6C217.361 56.7415 219.457 55.9125 220.925 54.3416C222.65 52.6166 223.05 50.4916 223.05 47.1666C223.05 43.8416 222.65 41.725 220.925 40C219.457 38.4281 217.362 37.599 215.216 37.7416L215.2 37.7416ZM217.5 51.6666C216.281 52.7249 214.469 52.7249 213.25 51.6666C212.316 50.7334 212.184 49.0084 212.184 47.15C212.184 45.2916 212.316 43.5666 213.25 42.6416C214.466 41.5763 216.284 41.5763 217.5 42.6416C218.425 43.5666 218.559 45.1416 218.559 47.15C218.559 49.1584 218.4 50.75 217.5 51.6666ZM245 37.8584L241.941 49.275L238.091 37.8584L234.759 37.8584L231.041 49.4084L227.984 37.9916L223.075 37.9916L228.784 56.5834L232.634 56.5834L236.484 44.9166L240.334 56.5834L244.316 56.5834L250 38.0084L245 37.875L245 37.8584ZM203 50.8834L203 30.7084L198.334 30.7084L198.334 51.15C198.261 52.4862 198.723 53.7965 199.616 54.7922C200.51 55.7879 201.764 56.3874 203.1 56.4584L206.434 56.4584L206.434 52.5L204.709 52.5C203.942 52.6545 203.188 52.1879 202.984 51.4334L203 50.8834ZM70.3666 39.0666L65.45 39.0666L65.45 33.2334L62.8 33.2334L62.8 51.6666C62.8 54.325 64.2584 56.45 67.3166 56.45L69.1666 56.45L69.1666 54.2084L67.8334 54.2084C66.1084 54.2084 65.4416 53.275 65.4416 51.55L65.4416 41.325L67.9416 41.325L70.3666 39.0666Z" fill="#000000" fill-rule="nonzero" opacity="1" stroke="none"/>
<path d="M34.5166 59.25L34.5166 47.3L39.8334 47.3L39.8334 64.5584L-3.55271e-15 64.5584L-3.55271e-15 47.3L5.30834 47.3L5.30834 59.25" fill="#000000" fill-rule="nonzero" opacity="1" stroke="none"/>
<path d="M30.6584 49.9416L31.5834 46.025L10.2 41.5834L9.29166 45.975L30.6584 49.9416ZM12.0833 35.6166L32 44.9084L33.8584 40.9334L13.9416 31.6666L12.0833 35.6166ZM17.6584 25.8334L34.5166 39.8666L37.3084 36.5334L20.45 22.5L17.6584 25.8334ZM28.5416 15.4416L25 18.0916L38.1 35.75L41.6666 33.1L28.5416 15.4416ZM9.29166 55.2666L30.5334 55.2666L30.5334 51.2834L9.29166 51.2834L9.29166 55.2666Z" fill="#000000" fill-rule="nonzero" opacity="1" stroke="none"/>
</g>
</g>
</svg>
