<?xml version="1.0" encoding="UTF-8" standalone="no"?>
<svg id="a" viewBox="0 0 32 32" version="1.1" sodipodi:docname="stack-overflow.svg" width="32" height="32" inkscape:version="1.4-beta2 (9aaf4f34, 2024-07-30)" xmlns:inkscape="http://www.inkscape.org/namespaces/inkscape" xmlns:sodipodi="http://sodipodi.sourceforge.net/DTD/sodipodi-0.dtd" xmlns="http://www.w3.org/2000/svg" xmlns:svg="http://www.w3.org/2000/svg">
  <sodipodi:namedview id="namedview15" pagecolor="#ffffff" bordercolor="#000000" borderopacity="0.25" inkscape:showpageshadow="2" inkscape:pageopacity="0.0" inkscape:pagecheckerboard="0" inkscape:deskcolor="#d1d1d1" inkscape:zoom="1.3161966" inkscape:cx="104.08779" inkscape:cy="164.4891" inkscape:window-width="1440" inkscape:window-height="790" inkscape:window-x="0" inkscape:window-y="0" inkscape:window-maximized="1" inkscape:current-layer="a" />
  <defs id="defs1">
    <style id="style1">.b{stroke-width:0px;}</style>
  </defs>
  <g id="g15" transform="matrix(0.58139535,0,0,0.58139535,2.4360465,-4.9302326)">
    <polygon class="b" points="5.94,57.56 5.94,44.17 0,44.17 0,63.52 44.62,63.52 44.62,44.17 38.66,44.17 38.66,57.56 " id="polygon11" />
    <polygon class="b" points="22.91,16.4 19.77,20.14 38.66,35.85 41.8,32.11 " id="polygon12" />
    <polygon class="b" points="11.43,37.78 10.4,42.7 34.33,47.12 35.38,42.74 " id="polygon13" />
    <polygon class="b" points="15.62,26.66 13.54,31.09 35.84,41.49 37.92,37.06 " id="polygon14" />
    <rect class="b" x="10.4" y="48.630001" width="23.790001" height="4.46" id="rect14" />
    <polygon class="b" points="42.68,31.24 46.66,28.28 31.96,8.48 28,11.47 " id="polygon15" />
  </g>
</svg>
