<?xml version="1.0" encoding="UTF-8"?><svg id="a" xmlns="http://www.w3.org/2000/svg" viewBox="0 0 300 80"><defs><style>.b{stroke-width:0px;}</style></defs><path class="b" d="m45.5,40.8c-3.4,0-5.4.7-7.3,2.9l2.7,2.5c1.1-1.4,2.2-2,4.4-2,3.1,0,4.4,1.3,4.4,3.8v1.5h-5.3c-4.5,0-6.9,2.4-6.9,5.8,0,1.6.5,3.1,1.6,4.3,1.5,1.3,3.5,2,5.4,1.8,2,.2,4-.5,5.4-2v1.8l3.9-.1v-13.4c0-4.6-2.8-6.9-8.3-6.9Zm4.3,13.1c.1,1.1-.2,2.2-.9,3-1,.9-2.4,1.3-3.8,1.2-2.5,0-3.7-1-3.7-2.9s1.2-2.9,3.6-2.9h4.8v1.6Z"/><path class="b" d="m68,44.4c1.5,0,3,.7,3.9,1.9l2.8-2.7c-1.7-1.9-4.1-3-6.7-2.8-4.5,0-9,2.8-9,10.3s4.5,10.3,9,10.3c2.5.1,5-.9,6.7-2.8l-2.8-2.7c-.9,1.2-2.4,1.9-3.9,1.9s-2.8-.6-3.7-1.8c-.9-1.2-1.3-2.5-1.3-5s.3-3.8,1.2-4.9c.9-1.1,2.3-1.7,3.8-1.7Z"/><polygon class="b" points="96.2 41 91.2 41 83.4 50.3 83.4 32.9 79.3 32.9 79.3 61.2 83.4 61.2 83.4 55.3 86.4 51.9 92.1 61.2 97.1 61.1 89.2 48.9 96.2 41"/><path class="b" d="m12.6,45.2l-3.2-.5c-1.2-.2-2.3-.6-3.2-1.3-.7-.7-1.1-1.7-1.1-2.7,0-2.5,1.8-4.4,5.2-4.4,2.3-.2,4.5.6,6.2,2.2l2.7-2.7c-2.4-2.2-5-3.2-8.8-3.2-5.8,0-9.5,3.3-9.5,8.3-.1,2,.6,4,2,5.4,1.5,1.3,3.4,2.1,5.4,2.2l3.3.5c1.1,0,2.3.5,3.1,1.2.8.8,1.2,1.8,1.2,2.9,0,2.8-2.2,4.3-5.9,4.3-2.7.2-5.3-.8-7.3-2.7l-2.7,3c2.7,2.7,5.8,3.7,10.1,3.7,5.9,0,10.2-3.1,10.2-8.3.1-2.2-.8-4.3-2.4-5.8-1.2-1.1-2.6-1.7-5.3-2.1Z"/><path class="b" d="m30.1,35.3h-4.1v6.1h-2.3v3.1h2.3v11.1c0,2.9,1.7,5.6,5.5,5.6h2.5v-3.5h-1.7c-1.1.1-2.1-.8-2.2-1.9v-11.3h3.9v-3.1h-3.9v-6.1Z"/><polygon class="b" points="101.2 61.2 101.2 61.3 119.9 61.3 119.9 56.3 106.8 56.3 106.8 49.4 117.9 49.4 117.9 44.5 106.8 44.5 106.8 37.8 119.9 37.8 119.9 32.9 101.2 32.9 101.2 61.2"/><polygon class="b" points="142.2 40.5 136 40.5 132.5 46.4 128.9 40.5 122.8 40.5 129.6 50.6 122.5 61.2 128.7 61.2 132.5 55 136.3 61.2 142.5 61.2 135.3 50.6 142.2 40.5"/><path class="b" d="m193.5,40.3c-3.5,0-5.4.6-7.5,2.9l3.3,3.2c1-1.2,2.5-1.8,4-1.7,2.8,0,3.9,1,3.9,3.3v1h-4.9c-4.8,0-7.1,2.7-7.1,6,0,1.7.6,3.3,1.7,4.6,1.4,1.3,3.4,2,5.3,1.8,1.9.1,3.8-.6,5.1-2v1.9h5v-13.6c0-4.9-3-7.4-8.8-7.4Zm3.1,15.9c-.9.8-2.1,1.2-3.3,1-2,0-3-1-3-2.4s1-2.4,2.9-2.4h4.1v1.1c.1.9-.1,1.9-.7,2.7Z"/><path class="b" d="m218.2,40.2c-2,0-3.8.8-5.2,2.2v-1.9h-5v20.6h5.2v-12.5c0-2.8,1.8-3.8,3.5-3.8s3.4,1,3.4,3.8v12.6h5.2v-13.3c.2-2.2-.6-4.3-2.1-5.9-1.4-1.2-3.2-1.8-5-1.8Z"/><path class="b" d="m241.9,42.3c-1.2-1.5-3.1-2.3-5-2.2-1.8-.1-3.6.6-5,1.8-2,2-2.1,4.6-2.1,8.2s.1,6.3,2.1,8.2c1.4,1.3,3.2,1.9,5,1.8,1.9.1,3.7-.6,5-2v2.1c0,2.1-1,4.3-4.1,4.3-1.5.1-3-.5-4.1-1.6l-3.2,3.3c2.2,2.1,4.3,2.7,7.5,2.7,5.6,0,9.1-3.6,9-8.7v-20h-5l-.1,2.1Zm-3.4,13.4c-3.1,0-3.4-2.7-3.4-5.4s.3-5.4,3.4-5.4,3.4,2.6,3.4,5.4-.4,5.4-3.4,5.4Z"/><path class="b" d="m260.8,40.2c-5.4,0-9,3.8-9,10.6,0,8.4,4.7,10.6,9.6,10.6,3,.2,5.9-1,7.9-3.3l-3.1-3.1c-1.2,1.4-2.9,2.1-4.7,2-2.4.1-4.4-1.7-4.6-4v-.6h13v-2.3c-.1-5.7-3.3-9.9-9.1-9.9Zm-3.9,8.7c0-.8.2-1.5.5-2.2.6-1.4,2-2.3,3.5-2.2,1.5-.1,2.9.8,3.5,2.2.3.7.5,1.5.5,2.2h-8Z"/><path class="b" d="m153.3,44.9c1.3,0,2.5.6,3.3,1.6l3.5-3.5c-1.8-1.9-4.3-2.9-6.9-2.8-4.1,0-9.3,2.3-9.3,10.6s5.1,10.6,9.2,10.6c2.6.1,5.1-.9,6.9-2.8l-3.5-3.5c-.8,1-2,1.6-3.3,1.6-1.1,0-2.2-.5-2.9-1.4-.8-1-1.2-2.4-1.2-4.6s.3-3.5,1.2-4.6c.7-.8,1.8-1.3,3-1.2Z"/><path class="b" d="m174.3,40.2c-1.9,0-3.7.8-5,2.2v-9.5h-5.2v28.3h5.2v-12.7c0-2.7,1.7-3.7,3.3-3.7s3.4,1,3.4,3.7v12.7l5.2-.1v-13.3c0-4.4-2.4-7.6-6.9-7.6Z"/><rect class="b" x="270.5" y="15.9" width="29.4" height="6"/><rect class="b" x="270.5" y="8.1" width="29.4" height="6"/><path class="b" d="m299.9,4.8c.1-2.6-2-4.8-4.6-4.8h-20c-2.6,0-4.7,2.2-4.7,4.8v1.6h29.3v-1.6Z"/><path class="b" d="m270.5,23.6v1.6c0,2.6,2.1,4.8,4.7,4.8h12.6v6.4l6.2-6.4h1.4c2.6-.1,4.7-2.2,4.6-4.8v-1.6h-29.5Z"/></svg>