<?xml version="1.0" encoding="UTF-8"?><svg id="a" xmlns="http://www.w3.org/2000/svg" xmlns:xlink="http://www.w3.org/1999/xlink" viewBox="0 0 245.67 80"><defs><clipPath id="b"><rect y="15.48" width="245.66" height="55" style="fill:none; stroke-width:0px;"/></clipPath></defs><g style="clip-path:url(#b);"><path d="m1.11,64.71c.6-.85,1.57-1.41,2.89-1.62,37.11-6.11,74.94-6.16,112.07-.17,1.02.17,1.66.47,2,.82.29.3.43.68.34,1.24-.09.47-.29.77-.64.94-.43.21-1.11.3-2.12.17-36.76-4.49-73.99-3.02-110.28,4.36-.34.05-.68.09-.98.09h-.29c-.68-.02-1.35-.23-1.92-.6-.85-.56-1.4-1.45-1.62-2.48-.12-1.02.04-2.01.55-2.73h0v-.02Z" style="fill-rule:evenodd; stroke-width:0px;"/><path d="m27.02,35.65c-1.11-.85-2.51-1.62-4.26-2.31-1.7-.68-3.75-1.24-6.08-1.75-2-.47-3.58-.9-4.72-1.37-1.15-.43-1.95-.94-2.47-1.5-.51-.56-.72-1.24-.72-2.05,0-1.5.64-2.65,1.92-3.51,1.28-.85,2.98-1.28,5.1-1.28,1.92,0,3.75.29,5.58.94s3.58,1.62,5.27,2.9l2.64-5.94c-1.06-.97-2.29-1.74-3.61-2.3-1.45-.64-3.03-1.11-4.72-1.5-1.73-.34-3.48-.51-5.23-.51-2.98,0-5.58.51-7.83,1.54-2.21,1.02-3.95,2.44-5.23,4.19-1.23,1.75-1.89,3.84-1.88,5.98,0,1.54.26,2.9.72,4.11.51,1.19,1.28,2.22,2.34,3.07,1.06.9,2.47,1.67,4.17,2.3,1.7.68,3.78,1.24,6.21,1.75,1.92.43,3.49.85,4.64,1.28,1.15.43,2,.9,2.51,1.5.51.56.81,1.24.81,2.05,0,1.37-.64,2.44-1.92,3.21s-3.11,1.16-5.49,1.16c-2.21,0-4.3-.3-6.3-.94-2-.64-3.92-1.62-5.78-2.9L0,49.7c1.15.9,2.51,1.71,4.09,2.35,1.63.66,3.33,1.17,5.06,1.5,1.78.34,3.66.51,5.53.51,3.27,0,6.04-.47,8.38-1.41,2.29-.94,4.09-2.27,5.32-3.97,1.23-1.71,1.83-3.76,1.83-6.11,0-1.5-.26-2.78-.81-3.93-.46-1.11-1.28-2.13-2.38-3h0Zm14.89-17.73h-.04.04Zm-.04,0v8.84h6.81v5.98h-6.81v10.47c0,1.02.21,1.88.6,2.52.38.64.89,1.11,1.53,1.37.64.26,1.32.38,2.04.38.43,0,.85-.04,1.23-.09.43-.09.89-.17,1.4-.26v6.11c-.72.29-1.49.51-2.21.6-.79.12-1.58.18-2.38.17-3.27,0-5.78-.94-7.53-2.82s-2.6-4.53-2.6-7.86v-22.83l7.91-2.59h0Zm27.23,9.78c1.19.77,2.09,1.71,2.72,2.86h.04v-3.76h7.83v26.84h-7.83v-3.97c-.64,1.16-1.54,2.13-2.72,2.86-1.66,1.02-3.57,1.54-5.7,1.54-2.34,0-4.38-.6-6.17-1.71-1.83-1.18-3.27-2.85-4.17-4.83-.98-2.1-1.49-4.53-1.49-7.3s.46-5.25,1.49-7.4c1.02-2.13,2.38-3.76,4.17-4.96,1.78-1.16,3.83-1.75,6.13-1.75,2.17,0,4.04.51,5.7,1.58h0Zm-3.4,20.22c1.95,0,3.44-.68,4.5-2.01,1.06-1.32,1.62-3.25,1.62-5.73s-.55-4.49-1.62-5.86c-1.06-1.37-2.6-2.05-4.51-2.05s-3.44.68-4.55,2.1c-1.11,1.41-1.66,3.33-1.66,5.86s.56,4.4,1.62,5.73c1.06,1.32,2.6,1.96,4.59,1.96h0Zm49.05-30h-.04.04Zm-.04,0v8.84h6.81v5.98h-6.81v10.47c0,1.02.21,1.88.6,2.52.38.64.89,1.11,1.53,1.37s1.32.38,2.04.38c.43,0,.85-.04,1.23-.09.43-.09.89-.17,1.4-.26v6.11c-.72.29-1.49.51-2.21.6-.79.12-1.58.18-2.38.17-3.27,0-5.78-.94-7.53-2.82-1.74-1.88-2.6-4.53-2.6-7.86v-22.83l7.91-2.59h0Zm27.19,8.19c2.29,0,4.34.56,6.13,1.75,1.79,1.19,3.15,2.82,4.17,4.91,1.02,2.13,1.54,4.62,1.54,7.4s-.51,5.22-1.54,7.31-2.38,3.72-4.17,4.83c-1.78,1.16-3.83,1.71-6.13,1.71-2.17,0-4.09-.51-5.7-1.54-1.11-.7-2.02-1.67-2.64-2.82v15.81h-7.96v-30.98c0-1.28-.04-2.57-.09-3.85-.05-1.29-.16-2.57-.34-3.85h7.49l.51,4.57c.59-1.52,1.65-2.81,3.03-3.68,1.61-1.07,3.53-1.58,5.7-1.58h0Zm-2.26,21.79c1.95,0,3.44-.64,4.51-1.96,1.06-1.32,1.57-3.25,1.61-5.81,0-2.48-.55-4.45-1.61-5.86-1.06-1.37-2.6-2.1-4.51-2.1s-3.53.68-4.59,2.05c-1.06,1.37-1.57,3.33-1.57,5.86s.51,4.49,1.57,5.81,2.6,2.01,4.6,2.01h0Zm36.93-17.35c-.65-1.17-1.59-2.15-2.72-2.86-1.66-1.07-3.53-1.58-5.7-1.58-2.29,0-4.34.6-6.13,1.75-1.79,1.19-3.15,2.82-4.17,4.96-1.02,2.13-1.49,4.57-1.49,7.4s.51,5.22,1.49,7.3c.9,1.98,2.34,3.65,4.17,4.83,1.78,1.11,3.83,1.71,6.17,1.71,2.12,0,4.04-.51,5.7-1.54,1.15-.7,2.09-1.69,2.72-2.86v3.97h7.83v-26.84h-7.87v3.76h0Zm-1.57,15.34c-1.06,1.32-2.55,2.01-4.51,2.01s-3.53-.64-4.59-1.96-1.62-3.25-1.62-5.73.56-4.45,1.66-5.86,2.64-2.1,4.55-2.1,3.45.68,4.51,2.05c1.06,1.37,1.61,3.29,1.61,5.86-.04,2.48-.55,4.4-1.62,5.73h0Zm30.93-18.16c1.19.77,2.12,1.71,2.76,2.86v-3.8h7.91v25.56c0,4.31-1.23,7.57-3.66,9.79-2.43,2.22-6.04,3.33-10.76,3.33-4.21,0-7.91-.81-11.07-2.48l1.19-5.94c1.53.79,3.14,1.38,4.81,1.79,1.57.39,3.19.59,4.81.6,2.29,0,4-.51,5.1-1.58,1.15-1.07,1.7-2.69,1.7-4.87v-4.7c-.38.56-.81,1.11-1.32,1.62-.89.9-1.95,1.58-3.19,2.13-1.28.55-2.66.82-4.04.82-2.34,0-4.38-.56-6.16-1.67-1.79-1.11-3.2-2.65-4.21-4.66-1.02-2.01-1.53-4.36-1.53-7.06s.51-5,1.53-7.01c1.02-1.96,2.43-3.55,4.21-4.66,1.78-1.16,3.87-1.71,6.16-1.71,2.17,0,4.09.56,5.75,1.62h0Zm-3.44,19.01c1.92,0,3.44-.64,4.55-1.92,1.11-1.28,1.66-3.08,1.7-5.34,0-2.22-.51-4.01-1.61-5.3-1.11-1.32-2.64-1.96-4.59-1.96s-3.53.64-4.64,1.92c-1.15,1.28-1.7,3.03-1.7,5.3s.55,4.06,1.7,5.34c1.15,1.32,2.68,1.96,4.59,1.96h0Zm-106.44-18.76c-1.11.85-1.92,2.01-2.47,3.41l-.55-4.66h-7.49c.17,1.28.29,2.56.34,3.85.04,1.28.09,2.57.09,3.85v19.15h7.96v-14.02c0-1.32.26-2.48.77-3.46s1.23-1.71,2.17-2.27c.94-.51,2.12-.82,3.53-.82.85,0,1.7.13,2.55.39v-7.14c-.47-.09-.96-.13-1.44-.12-2.04,0-3.87.6-5.44,1.84h0Zm148.15,4.36c.98,2.05,1.49,4.45,1.49,7.23l-.09,2.65h-17.4c.26,1.58.77,2.82,1.54,3.72,1.19,1.32,2.98,2.01,5.41,2.01,1.4,0,2.81-.21,4.17-.68,1.36-.46,2.64-1.12,3.78-1.96l2.09,5.39c-1.28,1.02-2.85,1.79-4.72,2.39-1.82.56-3.72.85-5.61.85-2.98,0-5.53-.6-7.7-1.71-2.17-1.16-3.83-2.73-4.98-4.83-1.15-2.05-1.74-4.53-1.74-7.4s.6-5.22,1.7-7.3c1.04-2.05,2.63-3.76,4.6-4.96,1.95-1.16,4.21-1.75,6.81-1.75s4.64.56,6.47,1.67c1.84,1.11,3.31,2.75,4.21,4.7h0Zm-14.73,1.24c-.6.85-1.02,1.88-1.28,3.21h10.64c-.17-1.45-.55-2.61-1.23-3.46-.89-1.16-2.17-1.71-3.88-1.71-1.83,0-3.23.64-4.25,1.96h0Z" style="fill-rule:evenodd; stroke-width:0px;"/></g></svg>