<?xml version="1.0" encoding="UTF-8" standalone="no"?>
<svg width="32" height="32" viewBox="0 0 32 32" fill="none" version="1.1" id="svg2" sodipodi:docname="startpge.svg" inkscape:version="1.4-beta2 (9aaf4f34, 2024-07-30)" xmlns:inkscape="http://www.inkscape.org/namespaces/inkscape" xmlns:sodipodi="http://sodipodi.sourceforge.net/DTD/sodipodi-0.dtd" xmlns="http://www.w3.org/2000/svg" xmlns:svg="http://www.w3.org/2000/svg">
  <sodipodi:namedview id="namedview2" pagecolor="#ffffff" bordercolor="#000000" borderopacity="0.25" inkscape:showpageshadow="2" inkscape:pageopacity="0.0" inkscape:pagecheckerboard="0" inkscape:deskcolor="#d1d1d1" inkscape:zoom="4.6153308" inkscape:cx="29.46701" inkscape:cy="30.442022" inkscape:window-width="1440" inkscape:window-height="790" inkscape:window-x="0" inkscape:window-y="0" inkscape:window-maximized="1" inkscape:current-layer="svg2" />
  <g clip-path="url(#clip0_14_2428)" id="g2" style="fill:#000000" transform="matrix(0.61276624,0,0,0.61276624,-10.646657,-11.029792)">
    <path d="m 28.4982,36.6416 c 0.2167,-5.6399 4.9428,-10.2034 10.7094,-10.2034 5.5498,0 10.1024,4.1761 10.666,9.5576 2.8616,0.043 5.6799,0.0861 8.5415,0.2152 C 57.8948,26.0938 49.4834,18 39.2076,18 28.6282,18 20,26.5674 20,37.0721 c 0,0.1291 0,0.2583 0,0.3875 2.8183,-0.3445 5.6799,-0.6028 8.4982,-0.818 z" fill="#6677FB" id="path1" style="fill:#000000" />
    <path d="M 54.1233,49.0407 54.21,48.9116 c 2.2113,-2.7554 3.5554,-5.9412 4.0323,-9.3854 -2.905,0 -5.7666,0 -8.6716,0.0861 -1.1706,4.6496 -5.3764,8.0508 -10.3625,8.0508 -4.4659,0 -8.3247,-2.7554 -9.929,-6.6301 -2.8616,0.3014 -5.7232,0.6889 -8.5849,1.1194 2.2546,8.0507 9.7122,13.9489 18.5139,13.9489 2.8182,0 5.5932,-0.6028 8.1513,-1.8082 l 0.13,-0.0431 0.0868,0.0861 11.88,14.3794 c 0.8238,0.9902 1.9945,1.5499 3.2952,1.5499 0.9973,0 1.9512,-0.3444 2.6882,-0.9471 0.8672,-0.7319 1.4308,-1.7221 1.5176,-2.8415 0.0867,-1.1193 -0.2168,-2.1956 -0.9539,-3.0997 z" fill="#202C46" id="path2" style="fill:#000000" />
  </g>
  <defs id="defs2">
    <clipPath id="clip0_14_2428">
      <rect width="47" height="52.222198" fill="#ffffff" transform="translate(20,18)" id="rect2" x="0" y="0" />
    </clipPath>
  </defs>
</svg>
