<?xml version="1.0" encoding="UTF-8"?><svg id="a" xmlns="http://www.w3.org/2000/svg" xmlns:xlink="http://www.w3.org/1999/xlink" viewBox="0 0 259.06 80"><defs><style>.c{fill:none;}.c,.d{stroke-width:0px;}.e{clip-path:url(#b);}.d{fill-rule:evenodd;}</style><clipPath id="b"><rect class="c" y="12.98" width="259.06" height="58"/></clipPath></defs><g class="e"><path class="d" d="m1.17,64.89c.63-.9,1.66-1.49,3.05-1.71,39.13-6.44,79.03-6.5,118.18-.18,1.08.18,1.75.5,2.11.86.31.32.45.72.36,1.31-.09.5-.31.81-.67.99-.45.22-1.17.32-2.24.18-38.76-4.74-78.03-3.19-116.3,4.6-.36.05-.72.09-1.03.09h-.31c-.72-.02-1.42-.24-2.02-.63-.9-.59-1.48-1.53-1.71-2.61-.13-1.08.04-2.12.58-2.88h0Z"/><path class="d" d="m28.49,34.25c-1.17-.9-2.65-1.71-4.49-2.44-1.79-.72-3.95-1.31-6.41-1.85-2.11-.5-3.77-.95-4.98-1.44-1.21-.45-2.06-.99-2.6-1.58-.54-.59-.76-1.31-.76-2.16,0-1.58.67-2.79,2.02-3.7,1.35-.9,3.14-1.35,5.38-1.35,2.02,0,3.95.31,5.88.99,1.93.68,3.77,1.71,5.56,3.06l2.78-6.26c-1.12-1.02-2.41-1.84-3.81-2.43-1.53-.68-3.19-1.17-4.98-1.58-1.82-.36-3.67-.54-5.52-.54-3.14,0-5.88.54-8.26,1.62-2.33,1.08-4.17,2.57-5.52,4.42-1.3,1.85-1.99,4.05-1.98,6.31,0,1.62.27,3.06.76,4.33.54,1.26,1.35,2.34,2.47,3.24,1.12.95,2.6,1.76,4.4,2.43,1.79.72,3.99,1.31,6.55,1.85,2.02.45,3.68.9,4.89,1.35,1.21.45,2.11.95,2.65,1.58.54.59.85,1.31.85,2.16,0,1.44-.67,2.57-2.02,3.38-1.35.81-3.28,1.22-5.79,1.22-2.33,0-4.53-.32-6.64-.99-2.11-.68-4.13-1.71-6.1-3.06l-2.82,6.26c1.21.95,2.65,1.8,4.31,2.48,1.72.7,3.51,1.23,5.34,1.58,1.88.36,3.86.54,5.83.54,3.45,0,6.37-.5,8.84-1.49,2.42-.99,4.31-2.39,5.61-4.19,1.3-1.8,1.93-3.97,1.93-6.44,0-1.58-.27-2.93-.85-4.14-.49-1.17-1.35-2.25-2.51-3.16h0Zm15.7-18.7h-.04s0,0,0,0h.04Zm-.04.01v9.32h7.18v6.31h-7.18v11.04c0,1.08.22,1.98.63,2.66.4.68.94,1.17,1.61,1.44.67.27,1.39.4,2.15.4.45,0,.9-.04,1.3-.09.45-.09.94-.18,1.48-.27v6.44c-.76.31-1.57.54-2.33.63-.83.13-1.67.19-2.51.18-3.45,0-6.1-.99-7.94-2.97-1.84-1.98-2.74-4.78-2.74-8.29v-24.07l8.34-2.73h0Zm28.71,10.31c1.26.81,2.2,1.8,2.87,3.02h.04v-3.97h8.26v28.3h-8.26v-4.19c-.67,1.22-1.62,2.25-2.87,3.02-1.75,1.08-3.77,1.62-6.01,1.62-2.47,0-4.62-.63-6.51-1.8-1.93-1.24-3.45-3.01-4.4-5.09-1.03-2.21-1.57-4.78-1.57-7.7s.49-5.54,1.57-7.8c1.08-2.25,2.51-3.97,4.4-5.23,1.88-1.22,4.04-1.85,6.46-1.85,2.29,0,4.26.54,6.01,1.67Zm-3.59,21.32c2.06,0,3.63-.72,4.75-2.12,1.12-1.39,1.71-3.43,1.71-6.04s-.58-4.73-1.71-6.18c-1.12-1.44-2.74-2.16-4.76-2.16s-3.63.72-4.8,2.21c-1.17,1.49-1.75,3.51-1.75,6.18s.59,4.64,1.71,6.04c1.12,1.39,2.74,2.07,4.84,2.07h0Zm51.73-31.64h-.04s0,0,0,0h.04Zm-.04.01v9.32h7.18v6.31h-7.18v11.04c0,1.08.22,1.98.63,2.66.4.68.94,1.17,1.61,1.44.67.27,1.39.4,2.15.4.45,0,.9-.04,1.3-.09.45-.09.94-.18,1.48-.27v6.44c-.76.31-1.57.54-2.33.63-.83.13-1.67.19-2.51.18-3.45,0-6.1-.99-7.94-2.97-1.84-1.98-2.74-4.78-2.74-8.29v-24.07s8.34-2.73,8.34-2.73Zm28.67,8.64c2.42,0,4.58.59,6.46,1.85,1.89,1.26,3.32,2.97,4.4,5.18,1.08,2.25,1.62,4.87,1.62,7.8s-.54,5.5-1.62,7.71c-1.08,2.21-2.51,3.92-4.4,5.09-1.88,1.22-4.04,1.8-6.46,1.8-2.29,0-4.31-.54-6.01-1.62-1.17-.74-2.13-1.76-2.78-2.97v16.67h-8.39v-32.67c0-1.35-.04-2.71-.09-4.06-.05-1.36-.17-2.71-.36-4.06h7.9l.54,4.82c.62-1.6,1.74-2.96,3.19-3.88,1.7-1.13,3.72-1.67,6.01-1.67h0Zm-2.38,22.98c2.06,0,3.63-.68,4.76-2.07,1.12-1.39,1.66-3.43,1.7-6.13,0-2.62-.58-4.69-1.7-6.18-1.12-1.44-2.74-2.21-4.76-2.21s-3.72.72-4.84,2.16c-1.12,1.44-1.66,3.51-1.66,6.18s.54,4.73,1.66,6.13,2.74,2.12,4.85,2.12Zm38.94-18.3c-.69-1.23-1.68-2.27-2.87-3.02-1.75-1.13-3.72-1.67-6.01-1.67-2.42,0-4.58.63-6.46,1.85-1.89,1.26-3.32,2.97-4.4,5.23-1.08,2.25-1.57,4.82-1.57,7.8s.54,5.5,1.57,7.7c.95,2.09,2.47,3.85,4.4,5.09,1.88,1.17,4.04,1.8,6.51,1.8,2.24,0,4.26-.54,6.01-1.62,1.21-.74,2.2-1.78,2.87-3.02v4.19h8.26v-28.3h-8.3v3.96h0Zm-1.66,16.18c-1.12,1.39-2.69,2.12-4.76,2.12s-3.72-.68-4.84-2.07c-1.12-1.39-1.71-3.43-1.71-6.04s.59-4.69,1.75-6.18,2.78-2.21,4.8-2.21,3.64.72,4.76,2.16c1.12,1.44,1.7,3.47,1.7,6.18-.04,2.61-.58,4.64-1.71,6.04h0Zm32.62-19.15c1.26.81,2.24,1.8,2.91,3.02v-4.01h8.34v26.95c0,4.55-1.3,7.98-3.86,10.32-2.56,2.34-6.37,3.51-11.35,3.51-4.44,0-8.34-.85-11.67-2.61l1.26-6.26c1.61.83,3.31,1.46,5.07,1.89,1.66.41,3.36.62,5.07.63,2.42,0,4.22-.54,5.38-1.67,1.21-1.13,1.79-2.84,1.79-5.14v-4.96c-.4.59-.85,1.17-1.39,1.71-.94.95-2.06,1.67-3.36,2.25-1.35.58-2.8.87-4.26.86-2.47,0-4.62-.59-6.5-1.76-1.89-1.17-3.37-2.79-4.44-4.91-1.08-2.12-1.61-4.6-1.61-7.44s.54-5.27,1.61-7.39c1.08-2.07,2.56-3.74,4.44-4.91,1.88-1.22,4.08-1.8,6.5-1.8,2.29,0,4.31.59,6.06,1.71h0Zm-3.63,20.05c2.02,0,3.63-.67,4.8-2.03,1.17-1.35,1.75-3.25,1.79-5.63,0-2.34-.54-4.23-1.7-5.59-1.17-1.39-2.78-2.07-4.84-2.07s-3.72.68-4.89,2.03c-1.21,1.35-1.79,3.2-1.79,5.59s.58,4.28,1.79,5.63c1.21,1.39,2.83,2.07,4.84,2.07h0Zm-112.25-19.78c-1.17.9-2.02,2.12-2.6,3.6l-.58-4.91h-7.9c.18,1.35.31,2.7.36,4.06.04,1.35.09,2.71.09,4.06v20.19h8.39v-14.78c0-1.39.27-2.61.81-3.65s1.3-1.8,2.29-2.39c.99-.54,2.24-.86,3.72-.86.9,0,1.79.14,2.69.41v-7.53c-.5-.1-1.01-.14-1.52-.13-2.15,0-4.08.63-5.74,1.94h0Zm156.23,4.6c1.03,2.16,1.57,4.69,1.57,7.62l-.09,2.79h-18.35c.27,1.67.81,2.97,1.62,3.92,1.26,1.39,3.14,2.12,5.7,2.12,1.48,0,2.96-.22,4.4-.72,1.43-.48,2.78-1.18,3.99-2.07l2.2,5.68c-1.35,1.08-3.01,1.89-4.98,2.52-1.92.59-3.92.9-5.92.9-3.14,0-5.83-.63-8.12-1.8-2.29-1.22-4.04-2.88-5.25-5.09-1.21-2.16-1.84-4.78-1.84-7.8s.63-5.5,1.79-7.7c1.1-2.16,2.77-3.97,4.85-5.23,2.06-1.22,4.44-1.85,7.18-1.85s4.89.59,6.82,1.76c1.94,1.17,3.49,2.9,4.44,4.96Zm-15.53,1.31c-.63.9-1.08,1.98-1.35,3.38h11.22c-.18-1.53-.58-2.75-1.3-3.65-.94-1.22-2.29-1.8-4.09-1.8-1.93,0-3.41.68-4.48,2.07h0Z"/></g></svg>