<?xml version="1.0" encoding="UTF-8" standalone="no"?>
<svg version="1.1" viewBox="0 0 31.999999 32" id="svg1" width="32" height="32" xmlns="http://www.w3.org/2000/svg" xmlns:svg="http://www.w3.org/2000/svg">
  <defs id="defs1" />
  <g id="g6" transform="matrix(0.4,0,0,0.4,-0.14192349,0)">
    <g id="g7" transform="matrix(0.90423067,0,0,0.90423067,0.28427871,-0.54344267)">
      <path fill="#000" d="M 44.238,0.601 C 21,0.601 1.963,18.519 0.154,41.29 l 23.71,9.803 c 2.009,-1.374 4.436,-2.179 7.047,-2.179 0.234,0 0.467,0.008 0.698,0.021 L 42.153,33.652 c 0,-0.073 -10e-4,-0.144 -10e-4,-0.216 0,-9.199 7.483,-16.683 16.683,-16.683 9.199,0 16.682,7.484 16.682,16.683 0,9.199 -7.483,16.684 -16.682,16.684 -0.127,0 -0.253,-0.003 -0.379,-0.006 l -15.038,10.73 c 0.008,0.195 0.015,0.394 0.015,0.592 0,6.906 -5.617,12.522 -12.522,12.522 -6.061,0 -11.129,-4.326 -12.277,-10.055 L 1.678,56.893 c 5.25,18.568 22.309,32.181 42.56,32.181 24.432,0 44.237,-19.806 44.237,-44.235 0,-24.433 -19.806,-44.238 -44.237,-44.238" id="path1" />
      <path fill="#000" d="m 27.875,67.723 -5.434,-2.245 c 0.963,2.005 2.629,3.684 4.841,4.606 4.782,1.992 10.295,-0.277 12.288,-5.063 0.965,-2.314 0.971,-4.869 0.014,-7.189 -0.955,-2.321 -2.757,-4.131 -5.074,-5.097 -2.299,-0.957 -4.762,-0.922 -6.926,-0.105 l 5.613,2.321 c 3.527,1.47 5.195,5.52 3.725,9.047 -1.467,3.528 -5.52,5.196 -9.047,3.725" id="path2" />
      <path fill="#000" d="m 69.95,33.436 c 0,-6.129 -4.986,-11.116 -11.116,-11.116 -6.129,0 -11.116,4.987 -11.116,11.116 0,6.13 4.987,11.115 11.116,11.115 C 64.964,44.55 69.95,39.565 69.95,33.436 M 50.502,33.417 c 0,-4.612 3.739,-8.35 8.351,-8.35 4.612,0 8.351,3.738 8.351,8.35 0,4.612 -3.739,8.35 -8.351,8.35 -4.612,0 -8.351,-3.739 -8.351,-8.35" id="path3" />
    </g>
  </g>
</svg>
