<?xml version="1.0" encoding="UTF-8" standalone="no"?>
<svg viewBox="35.074993 23.046162 32 32" version="1.1" id="svg4" sodipodi:docname="sucupira.svg" width="32" height="32" inkscape:version="1.4-beta2 (9aaf4f34, 2024-07-30)" xmlns:inkscape="http://www.inkscape.org/namespaces/inkscape" xmlns:sodipodi="http://sodipodi.sourceforge.net/DTD/sodipodi-0.dtd" xmlns="http://www.w3.org/2000/svg" xmlns:svg="http://www.w3.org/2000/svg">
  <defs id="defs4" />
  <sodipodi:namedview id="namedview4" pagecolor="#ffffff" bordercolor="#000000" borderopacity="0.25" inkscape:showpageshadow="2" inkscape:pageopacity="0.0" inkscape:pagecheckerboard="0" inkscape:deskcolor="#d1d1d1" inkscape:zoom="1.5308812" inkscape:cx="64.668636" inkscape:cy="148.60722" inkscape:window-width="1440" inkscape:window-height="790" inkscape:window-x="0" inkscape:window-y="0" inkscape:window-maximized="1" inkscape:current-layer="svg4" />
  <g id="g4" style="fill:#000000" transform="matrix(0.16502583,0,0,0.16502583,31.684439,19.24295)">
    <path fill-rule="evenodd" clip-rule="evenodd" fill="#0779AE" d="m 46.728,67.205 c 0.539,-1.812 1.219,-4.227 1.837,-6.025 2.617,-6.777 2.725,-7.04 4.72,-10.82 1.671,-2.942 4.095,-6.835 5.983,-9.674 l 2.724,-3.611 c 27.661,-30.839 105.972,-2.487 118.323,6.223 0.438,1.757 1.037,4.127 1.406,5.938 0.796,6.008 0.872,6.498 0.904,10.719 -0.111,2.125 -0.209,4.941 -0.412,7.089 C 109.657,34.089 53.593,40.527 46.728,67.205 Z" id="path1" style="fill:#000000" />
    <path fill-rule="evenodd" clip-rule="evenodd" fill="#028838" d="m 63.767,62.257 c -1.282,1.473 -3.067,3.435 -4.345,5.031 -4.521,6.035 -4.694,6.274 -6.882,9.958 -1.607,2.985 -3.631,7.007 -5.019,10.064 l -1.552,4.068 c -10.523,37.559 65.642,69.758 81.534,72.103 1.919,-0.862 4.471,-1.978 6.354,-2.921 6.01,-3.335 6.485,-3.598 10.405,-6.278 1.859,-1.418 4.39,-3.312 6.214,-4.811 C 22.785,106.977 61.761,64.399 63.767,62.257 Z" id="path2" style="fill:#000000" />
    <path fill-rule="evenodd" clip-rule="evenodd" fill="#EEAC04" d="m 181.134,171.557 c 1.323,-1.49 3.096,-3.466 4.345,-5.025 4.521,-6.028 4.693,-6.267 6.882,-9.97 1.606,-2.974 3.63,-7.001 5.018,-10.053 l 1.553,-4.08 c 10.522,-37.532 -65.67,-69.722 -81.548,-72.091 -1.905,0.856 -4.459,1.991 -6.328,2.916 -6.023,3.342 -6.526,3.602 -10.393,6.278 -1.886,1.431 -4.402,3.312 -6.24,4.816 76.685,25.514 106.777,65.7 86.711,87.209 z" id="path3" style="fill:#000000" />
    <path fill-rule="evenodd" clip-rule="evenodd" fill="#0779AE" d="m 196.986,164.383 c -0.648,2.107 -1.435,4.983 -2.18,7.178 -3.127,8.068 -3.265,8.391 -5.604,12.873 -2.021,3.528 -4.895,8.139 -7.131,11.535 l -3.251,4.313 c -32.923,36.698 -126.273,2.882 -140.989,-7.5 -0.522,-2.109 -1.228,-4.914 -1.641,-7.097 -0.993,-7.15 -1.065,-7.72 -1.115,-12.75 0.107,-2.521 0.238,-5.908 0.464,-8.447 143.956,65.441 160.618,3.058 161.447,-0.105 z" id="path4" style="fill:#000000" />
  </g>
</svg>
