<svg viewBox="35.075 23.046 32 32" width="32" height="32" xmlns="http://www.w3.org/2000/svg">
  <g style="fill:#000" fill-rule="evenodd" clip-rule="evenodd">
    <path fill="#000" d="M46.728 67.205c.539-1.812 1.219-4.227 1.837-6.025 2.617-6.777 2.725-7.04 4.72-10.82 1.671-2.942 4.095-6.835 5.983-9.674l2.724-3.611c27.661-30.839 105.972-2.487 118.323 6.223.438 1.757 1.037 4.127 1.406 5.938.796 6.008.872 6.498.904 10.719-.111 2.125-.209 4.941-.412 7.089-72.556-32.955-128.62-26.517-135.485.161Z" style="fill:#000" transform="matrix(.16503 0 0 .16503 31.684 19.243)"/>
    <path fill="#000" d="M63.767 62.257c-1.282 1.473-3.067 3.435-4.345 5.031-4.521 6.035-4.694 6.274-6.882 9.958-1.607 2.985-3.631 7.007-5.019 10.064l-1.552 4.068c-10.523 37.559 65.642 69.758 81.534 72.103 1.919-.862 4.471-1.978 6.354-2.921 6.01-3.335 6.485-3.598 10.405-6.278 1.859-1.418 4.39-3.312 6.214-4.811-127.691-42.494-88.715-85.072-86.709-87.214Z" style="fill:#000" transform="matrix(.16503 0 0 .16503 31.684 19.243)"/>
    <path fill="#000" d="M181.134 171.557c1.323-1.49 3.096-3.466 4.345-5.025 4.521-6.028 4.693-6.267 6.882-9.97 1.606-2.974 3.63-7.001 5.018-10.053l1.553-4.08c10.522-37.532-65.67-69.722-81.548-72.091-1.905.856-4.459 1.991-6.328 2.916-6.023 3.342-6.526 3.602-10.393 6.278-1.886 1.431-4.402 3.312-6.24 4.816 76.685 25.514 106.777 65.7 86.711 87.209z" style="fill:#000" transform="matrix(.16503 0 0 .16503 31.684 19.243)"/>
    <path fill="#000" d="M196.986 164.383c-.648 2.107-1.435 4.983-2.18 7.178-3.127 8.068-3.265 8.391-5.604 12.873-2.021 3.528-4.895 8.139-7.131 11.535l-3.251 4.313c-32.923 36.698-126.273 2.882-140.989-7.5-.522-2.109-1.228-4.914-1.641-7.097-.993-7.15-1.065-7.72-1.115-12.75.107-2.521.238-5.908.464-8.447 143.956 65.441 160.618 3.058 161.447-.105z" style="fill:#000" transform="matrix(.16503 0 0 .16503 31.684 19.243)"/>
  </g>
</svg>