<?xml version="1.0" encoding="UTF-8" standalone="no"?>
<svg width="32" height="32" viewBox="0 0 32 32" fill="none" version="1.1" id="svg3" xmlns="http://www.w3.org/2000/svg" xmlns:svg="http://www.w3.org/2000/svg">
  <g id="g4" transform="matrix(1.1739478,0,0,1.1739478,1.215972e-7,1.9126264)">
    <path fill-rule="evenodd" clip-rule="evenodd" d="m 27.258452,12 c 0,5.4353 -1.2028,9.3882 -2.5471,12 h -2.1225 c 0.849,-2.5412 1.7688,-7.4824 1.7688,-12 0,-4.51765 -0.9198,-9.45882 -1.7688,-12 h 2.1225 c 1.3443,2.61176 2.5471,6.56471 2.5471,12 z" fill="#d42126" id="path1" style="fill:#000000" />
    <path fill-rule="evenodd" clip-rule="evenodd" d="M 2.54706,0 H 4.66961 C 3.74983,2.54118 2.83006,7.48235 2.83006,12 c 0,4.5176 0.91977,9.4588 1.76879,12 H 2.47631 C 1.20278,21.3882 0,17.4353 0,12 0,6.56471 1.20278,2.61176 2.54706,0 Z" fill="#d42126" id="path2" style="fill:#000000" />
    <path d="m 13.916245,11.238091 c -1.9725,-0.2361 -4.0239004,-0.9049 -4.0239004,-1.6131401 0,-1.21967 1.9331004,-1.84918 3.7478004,-1.84918 h 0.3945 c 1.933,0 3.7082,1.0623 3.7082,1.88853 v 0.4327901 c 0,0.118 0.1184,0.2361 0.2367,0.2361 h 0.789 c 0.1183,0 0.2367,-0.1181 0.2367,-0.2361 V 9.6249509 c 0,-1.80983 -2.6826,-3.14754 -5.0495,-3.14754 h -0.434 c -2.4064,0.03935 -5.0101004,1.02295 -5.0101004,3.14754 0,2.3606401 4.6551004,2.7934401 5.1679004,2.8327401 1.8541,0.1574 4.0239,0.905 4.0239,1.6132 0,1.2196 -1.9331,1.8885 -3.7083,1.8885 h -0.4339 c -1.9331,0 -3.7083004,-1.0623 -3.7083004,-1.8885 v -0.4328 c 0,-0.1181 -0.1183,-0.2361 -0.2367,-0.2361 h -0.789 c -0.1183,0 -0.2367,0.118 -0.2367,0.2361 v 0.4328 c 0,1.8098 2.6826004,3.1475 5.0496004,3.1475 h 0.3945 c 2.4458,0 5.0495,-0.9836 5.0495,-3.1475 0,-2.3213 -4.6156,-2.7935 -5.1679,-2.8328 z" fill="#4b4b4b" id="path3" style="fill:#000000" />
  </g>
  <defs id="defs3" />
</svg>
