<svg id="Camada_1" data-name="Camada 1" xmlns="http://www.w3.org/2000/svg" viewBox="0 0 200 80"><path d="M0,34.66V57.09l1.22-.18a77.54,77.54,0,0,0,8.17-2C16.8,51.64,19.56,49.65,23,45c5.05-6.85,6.85-13.18,7.11-25.15l.19-7.63H0Z"/><path d="M33.41,12.45c-.3.29-.33,43.28-.08,44.05.19.44.59.44,2.88,0a31.75,31.75,0,0,0,8.17-2.36c7-3,11.72-7.4,15.25-14.62,2.51-5.12,3.72-11.38,4-20.48l.22-6.89H48.73C40.44,12.19,33.52,12.3,33.41,12.45Z"/><path d="M66.67,34.48V56.76h1.06a33.8,33.8,0,0,0,8.55-2c9.21-3.39,15.32-9.94,18.49-19.93a52.7,52.7,0,0,0,1.33-5.15A77.7,77.7,0,0,0,97,15.21l-.26-3H66.67Z"/><path d="M100.07,12.41c-.11.11-.22,12.64-.25,27.81V67.81H200V12.19H150.17C122.73,12.19,100.22,12.3,100.07,12.41Zm30.5,10.65c2.43.66,5.71,2.32,5.71,2.91s-2.87,5-3.2,5a10.9,10.9,0,0,1-2.1-.92c-2.62-1.33-5.09-1.29-6.52.14-2.25,2.29-1.26,3.91,3.61,5.75,5.15,2,6.92,2.95,8,4.31,1.36,1.84,1.84,3.75,1.66,6.7-.3,4.53-2.28,7.55-6,9.28s-9.43,1.51-12.82-.25c-2.17-1.11-4.71-3.28-4.49-3.84.33-.84,3.35-4.93,3.68-4.93a5.24,5.24,0,0,1,1.62,1.1,7.77,7.77,0,0,0,5.78,2.18c1.7,0,2.21-.15,3.21-1.07a2.79,2.79,0,0,0,1.21-2.62c0-2.28-.55-2.65-7.84-5.34-4.79-1.76-6.34-3.83-6.34-8.36C115.65,25.34,122.25,20.88,130.57,23.06ZM184,26.56v3.13l-5.23.11-5.27.11V36.5h10v6.26h-10v6.41a68.48,68.48,0,0,1-.22,7c-.18.48-.88.59-3.87.59h-3.64V23.24l9.13.07,9.1.12Zm-22.29.18v3.13h-7L154.62,43l-.11,13.19-3.53.11c-3.43.11-3.58.07-3.8-.74-.11-.48-.22-6.45-.22-13.3V29.87h-7V23.61h21.73Z"/><path d="M.18,59.3A26.54,26.54,0,0,0,0,63.65v4.16H13.92l13.89,0-1.59-1.4c-3.64-3.31-10.31-5.56-19.77-6.63C1.73,59.19.37,59.08.18,59.3Z"/><path d="M33.22,63.46l.11,4.16,13.74.11c9,0,13.7,0,13.7-.29,0-.59-2.94-2.58-5.85-3.94-4.5-2.1-14.22-4.16-19.78-4.16h-2Z"/><path d="M66.67,63.57v4.24H94.4l-.66-.74c-1.18-1.32-4.64-3.39-7.37-4.45A66.8,66.8,0,0,0,68.8,59.34H66.67Z"/></svg>