<?xml version="1.0" encoding="UTF-8"?><svg id="a" xmlns="http://www.w3.org/2000/svg" viewBox="0 0 233.85 80"><defs><style>.b{stroke-width:0px;}</style></defs><path class="b" d="m47.19,0h1.56c-1.14,1.03-1.93,2.39-2.26,3.9,2.53-.78,5.06-.1,7.59.23,2.57-.09,5.04-.94,7.58-1.38.08.66.24,1.98.33,2.63-.78.55-1.5,1.07-2.25,1.61l2.58-.53c-2.17,3.79-5.92,6.35-7.91,10.23,2.46.07,4.91-.1,7.34-.52.35-2.13.62-4.64,2.73-5.82,1.64,1.05,3.11,2.33,4.38,3.8-1.6,1.74-3.87,2.73-6.24,2.73-1.4,1.14-2.84,2.24-4.33,3.27,0-.55.1-1.61.14-2.15-1.15.1-2.34.19-3.47.27,0,.31-.08.94-.11,1.25.94.36,1.89.78,2.82,1.15l-2.41.78c.66,1.22,1.3,2.46,1.95,3.69,3.2,0,6.5-.56,9.6.48,3.69,1.14,7.37,2.36,11.14,3.37-1.01.66-2.03,1.31-3.04,1.96-3.76-2.51-8.28-.72-12.4-1.79l-.06,1.26c1.37.4,2.75.81,4.12,1.24,2.34,4.19,5.2,8.18,6.78,12.79-1.38-.45-3.57-.27-3.72-2.21-.85-3.5-3.83-6.08-7.41-6.43-2.48.37-5.55.78-6.83,3.28-1.36,2.03-2.63,4.31-4.84,5.55-2.63,1.49-5.46,2.63-8.06,4.13l2.45,2.1c-1.56.58-1.56,2.02-1.47,3.41h-1.75c.05.57.15,1.71.19,2.27l-1.99-.16-1.15,2c-.57-.73-1.14-1.46-1.7-2.19-1.04,2.05-2.19,4.04-3.45,5.97,3.38.66,7.02,1.19,9.49,3.84-1.29.72-2.59,1.42-3.9,2.11-.48-.94-.96-1.86-1.44-2.79-2.47.05-4.93.09-7.41.09-.51-1.61-1.03-3.23-1.56-4.85-1.3,1.07-3.36,1.88-3.25,3.9-.44,5.06-2.29,10.13-.62,15.17-.58.11-1.74.3-2.34.41h-1.55c1.97-5.73.1-11.69-1.44-17.21.44-3.29,2.22-6.48,1.56-9.85-1.78-3.69-4.03-7.12-6.7-10.23-2.44,0-5.32,0-6.91-2.17-3.31-4.19-1.75-9.81-1.5-14.67-1.11-2.07-4.11-.69-6.05-.99v-.24c.6-1.13,1.35-2.18,2.21-3.12,1.9-2.52,5.3.54,5.53,2.88,0,3.45-1.46,6.93-.3,10.37.6,2.41,2.24,5.46,5.18,5.07,2.78.19,4.45-2.24,6.27-3.9,3.04-2.45,6.73-3.9,10.24-5.46,2.86-1.18,4.2-4.17,6.19-6.32,1.74-2.18,4.44-3.52,5.85-6,1.39-2.58,2.49-5.3,3.27-8.13-1.48.12-3.3.6-4.06-1.12-.53-2.4,2.42-2.74,4.01-3.46.15-2.12,1.16-4.09,2.81-5.44Z"/><path class="b" d="m103.31,40.76c.23-2.29,2.7-2.04,4.37-1.98.62,1.26,1.56,2.92.44,4.19-1.52,2.37-5.65.55-4.81-2.21Z"/><path class="b" d="m58.91,47.18c2.76-.66,5.66-.41,8.27.7-.37,1.1-.78,2.21-1.13,3.31-1.86-.56-4.05-1.86-5.92-.57-1.47.65-1.96,2.85-.52,3.83,1.86,1.47,4.32,1.96,6.11,3.52,3.12,2.44,2.82,8.01-.62,10.03s-7.96,1.61-11.41-.2c.37-1.07.72-2.14,1.07-3.2,2.27.78,4.75,1.71,7.13.89,1.89-.78,2.03-3.66.35-4.68-2.51-1.68-5.9-2.39-7.41-5.28-1.58-3.32.72-7.34,4.08-8.35Z"/><path class="b" d="m69.91,47.16h4.89c1.19,5.57,2.6,11.08,3.65,16.68,1.82-5.5,3.12-11.17,4.89-16.7h3.67c1.72,5.56,3.12,11.19,4.62,16.81,1.29-5.63,2.48-11.29,4.12-16.83h4.24c-1.68,7.46-4.24,14.68-6.45,21.96-1.32-.06-2.65-.06-3.96-.21-1.86-5.17-3.12-10.54-4.58-15.83-1.27,5.46-2.97,10.76-4.73,16.05-1.32-.27-3.12.37-4.15-.63-2.23-7.05-4.06-14.22-6.2-21.3Z"/><path class="b" d="m114.03,56.18c-2.51-3.46.38-8.57,4.38-9.19,2.52-.4,5.1-.1,7.47.86-.35,1.21-.73,2.41-1.12,3.59-1.64-.78-3.48-1.89-5.35-1.17-1.26.59-2.68,2.34-1.5,3.64,1.99,2.34,5.65,2.49,7.54,5.01,2.09,2.73,1.58,6.65-1.16,8.74-.07.06-.15.11-.23.17-3.38,2.28-7.84,1.64-11.44.24.24-1.15.54-2.28.9-3.39,2.41.55,4.93,1.72,7.39.7,1.36-.67,1.3-2.4.96-3.65-2.05-2.59-6.03-2.64-7.83-5.56Z"/><path class="b" d="m132.23,48.56c2.94-2.51,7.29-1.98,10.64-.68-.35,1.18-.73,2.34-1.11,3.54-1.65-.71-3.46-1.84-5.31-1.15-1.26.6-2.81,2.34-1.56,3.66,2.34,2.53,6.7,2.67,8.25,6.1.66,2.52.69,5.75-1.62,7.45-3.29,2.56-8.2,2.34-11.77.48.08-1.22.41-2.41.98-3.49,2.18,1.09,4.79,1.86,7.17.92,1.43-.69,1.44-2.81.69-3.99-2.15-2.2-5.71-2.45-7.51-5.11-1.86-2.35-.97-5.89,1.15-7.73Z"/><path class="b" d="m149.8,49.91c3.26-3.5,8.71-3.78,12.98-2.24-.27,1.09-.55,2.18-.78,3.28-2.16-.26-4.38-.71-6.52-.12-5,2.34-5.6,10.35-1.27,13.62,2.26,1.66,5.25,1.24,7.69.28.28,1.19.55,2.39.83,3.59-3.47,1.09-7.48,1.61-10.82-.17-3.28-1.75-5.26-5.22-5.12-8.93-.29-3.35.54-6.93,3.02-9.31Z"/><path class="b" d="m172.18,47.21c3.12-.69,6.8-.7,9.35,1.56,4.45,3.73,4.87,10.77,2.29,15.7-3.12,6.06-12.86,6.59-16.6.87s-2.3-15.79,4.96-18.12Zm2.28,3.02c-3.78,1.01-4.75,5.59-4.45,8.98.17,2.95,1.99,6.79,5.46,6.54,2.34.07,3.95-2.14,4.59-4.16.94-3.01.62-6.28-.88-9.05-.95-1.55-2.87-2.72-4.72-2.31h0Z"/><path class="b" d="m187.52,47.16h4.68c1.52,5.53,2.55,11.18,3.9,16.74,1.64-5.6,2.92-11.3,4.9-16.79l3.56.1c1.52,5.52,3.34,10.98,4.26,16.65,1.94-5.39,2.71-11.15,4.3-16.67h4.48c-1.89,7.36-4.34,14.55-6.48,21.83h-4.07c-1.52-5.07-3.3-10.13-4.15-15.34h-.78c-.78,5.28-2.78,10.25-4.27,15.35h-4.08c-2.14-7.26-4.22-14.55-6.26-21.86Z"/><path class="b" d="m224.98,47.12c2.71-.58,5.53-.31,8.08.78l-1.08,3.44c-2.24-1.15-5.53-2.19-7.19.45-.85,2.63,2.21,3.64,4.02,4.52,2.67,1.09,5.37,3.48,5.02,6.66.1,2.71-2,5.04-4.49,5.85-3.12.99-6.41.45-9.4-.63.18-1.2.37-2.39.55-3.59,2.34.7,4.86,1.75,7.3.88,1.96-.78,2.02-3.75.23-4.76-2.51-1.62-5.86-2.34-7.31-5.27-1.55-3.34.85-7.44,4.28-8.33Z"/><path class="b" d="m103.56,47.13h4.68c0,7.17-.09,14.35.07,21.52-1.55.26-3.11.4-4.68.42-.2-7.31,0-14.63-.07-21.94Z"/></svg>