<?xml version="1.0" encoding="UTF-8" standalone="no"?>
<svg id="a" viewBox="0 0 31.999999 32" version="1.1" sodipodi:docname="swisscows.svg" width="32" height="32" inkscape:version="1.4-beta2 (9aaf4f34, 2024-07-30)" xmlns:inkscape="http://www.inkscape.org/namespaces/inkscape" xmlns:sodipodi="http://sodipodi.sourceforge.net/DTD/sodipodi-0.dtd" xmlns="http://www.w3.org/2000/svg" xmlns:svg="http://www.w3.org/2000/svg">
  <sodipodi:namedview id="namedview11" pagecolor="#ffffff" bordercolor="#000000" borderopacity="0.25" inkscape:showpageshadow="2" inkscape:pageopacity="0.0" inkscape:pagecheckerboard="0" inkscape:deskcolor="#d1d1d1" inkscape:zoom="1.0638245" inkscape:cx="4.7000235" inkscape:cy="17.390087" inkscape:window-width="1440" inkscape:window-height="790" inkscape:window-x="0" inkscape:window-y="0" inkscape:window-maximized="1" inkscape:current-layer="a" />
  <defs id="defs1">
    <style id="style1">.b{stroke-width:0px;}</style>
  </defs>
  <g id="g11" transform="matrix(0.39975016,0,0,0.39975016,0.41973751,-1.54e-7)">
    <path class="b" d="m 47.19,0 h 1.56 c -1.14,1.03 -1.93,2.39 -2.26,3.9 2.53,-0.78 5.06,-0.1 7.59,0.23 2.57,-0.09 5.04,-0.94 7.58,-1.38 0.08,0.66 0.24,1.98 0.33,2.63 -0.78,0.55 -1.5,1.07 -2.25,1.61 l 2.58,-0.53 c -2.17,3.79 -5.92,6.35 -7.91,10.23 2.46,0.07 4.91,-0.1 7.34,-0.52 0.35,-2.13 0.62,-4.64 2.73,-5.82 1.64,1.05 3.11,2.33 4.38,3.8 -1.6,1.74 -3.87,2.73 -6.24,2.73 -1.4,1.14 -2.84,2.24 -4.33,3.27 0,-0.55 0.1,-1.61 0.14,-2.15 -1.15,0.1 -2.34,0.19 -3.47,0.27 0,0.31 -0.08,0.94 -0.11,1.25 0.94,0.36 1.89,0.78 2.82,1.15 l -2.41,0.78 c 0.66,1.22 1.3,2.46 1.95,3.69 3.2,0 6.5,-0.56 9.6,0.48 3.69,1.14 7.37,2.36 11.14,3.37 -1.01,0.66 -2.03,1.31 -3.04,1.96 -3.76,-2.51 -8.28,-0.72 -12.4,-1.79 l -0.06,1.26 c 1.37,0.4 2.75,0.81 4.12,1.24 2.34,4.19 5.2,8.18 6.78,12.79 -1.38,-0.45 -3.57,-0.27 -3.72,-2.21 -0.85,-3.5 -3.83,-6.08 -7.41,-6.43 -2.48,0.37 -5.55,0.78 -6.83,3.28 -1.36,2.03 -2.63,4.31 -4.84,5.55 -2.63,1.49 -5.46,2.63 -8.06,4.13 l 2.45,2.1 c -1.56,0.58 -1.56,2.02 -1.47,3.41 h -1.75 c 0.05,0.57 0.15,1.71 0.19,2.27 l -1.99,-0.16 -1.15,2 c -0.57,-0.73 -1.14,-1.46 -1.7,-2.19 -1.04,2.05 -2.19,4.04 -3.45,5.97 3.38,0.66 7.02,1.19 9.49,3.84 -1.29,0.72 -2.59,1.42 -3.9,2.11 -0.48,-0.94 -0.96,-1.86 -1.44,-2.79 -2.47,0.05 -4.93,0.09 -7.41,0.09 -0.51,-1.61 -1.03,-3.23 -1.56,-4.85 -1.3,1.07 -3.36,1.88 -3.25,3.9 -0.44,5.06 -2.29,10.13 -0.62,15.17 -0.58,0.11 -1.74,0.3 -2.34,0.41 h -1.55 c 1.97,-5.73 0.1,-11.69 -1.44,-17.21 0.44,-3.29 2.22,-6.48 1.56,-9.85 -1.78,-3.69 -4.03,-7.12 -6.7,-10.23 -2.44,0 -5.32,0 -6.91,-2.17 C 4.24,36.4 5.8,30.78 6.05,25.92 4.94,23.85 1.94,25.23 0,24.93 v -0.24 c 0.6,-1.13 1.35,-2.18 2.21,-3.12 1.9,-2.52 5.3,0.54 5.53,2.88 0,3.45 -1.46,6.93 -0.3,10.37 0.6,2.41 2.24,5.46 5.18,5.07 2.78,0.19 4.45,-2.24 6.27,-3.9 3.04,-2.45 6.73,-3.9 10.24,-5.46 2.86,-1.18 4.2,-4.17 6.19,-6.32 1.74,-2.18 4.44,-3.52 5.85,-6 1.39,-2.58 2.49,-5.3 3.27,-8.13 -1.48,0.12 -3.3,0.6 -4.06,-1.12 C 39.85,6.56 42.8,6.22 44.39,5.5 44.54,3.38 45.55,1.41 47.2,0.06 Z" id="path1" />
  </g>
</svg>
