<?xml version="1.0" encoding="UTF-8" standalone="no"?>
<svg viewBox="0 0 32 32" version="1.1" id="svg2" sodipodi:docname="sympla.svg" width="32" height="32" inkscape:version="1.4-beta2 (9aaf4f34, 2024-07-30)" xmlns:inkscape="http://www.inkscape.org/namespaces/inkscape" xmlns:sodipodi="http://sodipodi.sourceforge.net/DTD/sodipodi-0.dtd" xmlns="http://www.w3.org/2000/svg" xmlns:svg="http://www.w3.org/2000/svg">
  <defs id="defs2" />
  <sodipodi:namedview id="namedview2" pagecolor="#ffffff" bordercolor="#000000" borderopacity="0.25" inkscape:showpageshadow="2" inkscape:pageopacity="0.0" inkscape:pagecheckerboard="0" inkscape:deskcolor="#d1d1d1" inkscape:zoom="0.40588165" inkscape:cx="298.11646" inkscape:cy="521.08786" inkscape:window-width="1440" inkscape:window-height="872" inkscape:window-x="0" inkscape:window-y="0" inkscape:window-maximized="1" inkscape:current-layer="svg2" />
  <g fill="#fff" id="g2" style="fill:#000000" transform="matrix(0.1062664,0,0,0.1062664,-0.47230928,-0.47288604)">
    <path d="m 81.41,255.69 32.69,-19 a 3.47,3.47 0 0 1 5,1.44 c 7.24,14.49 19.24,23.8 39.73,23.8 21.31,0 26.68,-8.49 26.68,-16.14 0,-12.21 -11.17,-17 -40.75,-25 -29.38,-8.07 -57.93,-22.35 -57.93,-60 0,-38.07 32.07,-60 66.2,-60 31.24,0 55.86,14.48 70.55,41.38 a 3.7,3.7 0 0 1 -1.45,4.76 l -31.86,18.62 a 3.57,3.57 0 0 1 -5,-1.45 c -6.62,-12.21 -15.73,-19.45 -32.48,-19.45 -14.07,0 -21.11,7 -21.11,14.9 0,9.1 4.76,15.31 35.59,24.41 29.79,9.1 63.31,19.45 63.31,61 0,38.07 -30.42,60.62 -73.24,60.62 -39.93,0 -66,-18.41 -77.79,-45.72 a 3.7,3.7 0 0 1 1.86,-4.17 z" id="path1" style="fill:#000000" />
    <circle cx="109.32" cy="67.279999" r="23.74" id="circle1" style="fill:#000000" />
    <circle cx="179.10001" cy="38.220001" r="33.77" id="circle2" style="fill:#000000" />
  </g>
</svg>
