<?xml version="1.0" encoding="UTF-8" standalone="no"?>
<!DOCTYPE svg PUBLIC "-//W3C//DTD SVG 1.1//EN" "http://www.w3.org/Graphics/SVG/1.1/DTD/svg11.dtd">
<!-- Created with Vectornator (http://vectornator.io/) -->
<svg height="100%" stroke-miterlimit="10" style="fill-rule:nonzero;clip-rule:evenodd;stroke-linecap:round;stroke-linejoin:round;" version="1.1" viewBox="0 0 200 80" width="100%" xml:space="preserve" xmlns="http://www.w3.org/2000/svg" xmlns:xlink="http://www.w3.org/1999/xlink">
<defs/>
<path d="M0 0L200 0L200 80L0 80L0 0Z" fill="#000000" fill-opacity="0" fill-rule="nonzero" opacity="1" stroke="none"/>
<g id="Sem-Título">
<g opacity="1">
<path d="M197.122 31.7454L197.122 60.6599C197.122 61.1096 196.762 61.4243 196.358 61.4243L188.758 61.4243C188.308 61.4243 187.994 61.0646 187.994 60.6599L187.994 58.5913C185.97 60.8847 183.002 62.3237 178.91 62.3237C170.951 62.3237 164.34 55.3087 164.34 46.2251C164.34 37.1416 170.906 30.1266 178.91 30.1266C183.002 30.1266 185.97 31.5206 187.994 33.8589L187.994 31.7904C187.994 31.3407 188.353 31.0259 188.758 31.0259L196.358 31.0259C196.762 30.9809 197.122 31.2957 197.122 31.7454ZM187.994 46.1802C187.994 41.5934 184.936 38.7604 180.754 38.7604C176.572 38.7604 173.514 41.6384 173.514 46.1802C173.514 50.7669 176.572 53.5999 180.754 53.5999C184.936 53.6449 187.994 50.7669 187.994 46.1802Z" fill="#000000" fill-rule="nonzero" opacity="1" stroke="none"/>
<path d="M0.431693 51.5314L7.53665 47.3943C7.94136 47.1695 8.43601 47.3044 8.61588 47.7091C10.1898 50.8568 12.7979 52.8804 17.2498 52.8804C21.8815 52.8804 23.0506 51.0367 23.0506 49.3729C23.0506 46.7198 20.6224 45.6855 14.1919 43.9317C7.80646 42.178 1.60086 39.0752 1.60086 30.891C1.60086 22.6169 8.57091 17.8503 15.9906 17.8503C22.7808 17.8503 28.132 20.998 31.3248 26.8439C31.5046 27.2036 31.3697 27.6533 31.01 27.8781L24.0849 31.9253C23.7252 32.1501 23.2305 32.0152 23.0057 31.6105C21.5667 28.9574 19.5881 27.3835 15.9457 27.3835C12.8878 27.3835 11.3589 28.9124 11.3589 30.6212C11.3589 32.5998 12.3932 33.9488 19.0934 35.9274C25.5688 37.906 32.8537 40.1544 32.8537 49.193C32.8537 57.4671 26.2434 62.3687 16.935 62.3687C8.25614 62.3687 2.59016 58.3665 0.0269808 52.4307C-0.0629553 52.1609 0.0719489 51.7112 0.431693 51.5314Z" fill="#000000" fill-rule="nonzero" opacity="1" stroke="none"/>
<path d="M64.2414 30.9809C64.781 30.9809 65.1407 31.5206 64.9609 32.0152L54.888 60.6599C51.5604 70.1032 46.3441 74.0154 38.2049 73.8355C37.8002 73.8355 37.4404 73.4758 37.4404 73.0711L37.4404 66.0111C37.4404 65.6064 37.7552 65.2466 38.2049 65.2466C41.8923 65.1117 43.7359 63.7627 44.9951 60.48C45.085 60.3001 45.085 60.0753 44.9951 59.8954L33.3483 32.0602C33.1235 31.5655 33.5282 30.9809 34.0678 30.9809L42.4319 30.9809C42.7466 30.9809 43.0614 31.2058 43.1514 31.4756L49.7617 49.6877L55.3377 31.5206C55.4276 31.2058 55.7424 30.9809 56.1022 30.9809C56.1022 30.9809 64.2414 30.9809 64.2414 30.9809Z" fill="#000000" fill-rule="nonzero" opacity="1" stroke="none"/>
<path d="M148.332 46.2701C148.332 55.3986 141.721 62.4136 133.717 62.4136C129.625 62.4136 126.612 61.0196 124.589 58.6813L124.589 72.9362C124.589 73.4308 124.184 73.7905 123.734 73.7905L116.269 73.7905C115.775 73.7905 115.415 73.3858 115.415 72.9362L115.415 31.8353C115.415 31.3407 115.82 30.9809 116.269 30.9809L123.689 30.9809C124.184 30.9809 124.544 31.3857 124.544 31.8353L124.544 33.8589C126.567 31.5206 129.58 30.1266 133.672 30.1266C141.721 30.1266 148.332 37.1865 148.332 46.2701ZM139.158 46.2701C139.158 41.6833 136.1 38.8054 131.873 38.8054C127.646 38.8054 124.589 41.6833 124.589 46.2701C124.589 50.8568 127.646 53.7348 131.873 53.7348C136.1 53.7348 139.158 50.9018 139.158 46.2701Z" fill="#000000" fill-rule="nonzero" opacity="1" stroke="none"/>
<path d="M152.559 16.816L160.203 16.816C160.653 16.816 160.968 17.1757 160.968 17.5805L160.968 60.7048C160.968 61.1545 160.608 61.4693 160.203 61.4693L152.559 61.4693C152.109 61.4693 151.794 61.1096 151.794 60.7048L151.794 17.6254C151.749 17.1757 152.109 16.816 152.559 16.816Z" fill="#000000" fill-rule="nonzero" opacity="1" stroke="none"/>
<path d="M99.1816 29.6769C95.3593 29.6769 91.1773 30.0366 88.3443 33.2743C85.5113 29.9916 81.3742 29.6769 77.5519 29.6769C70.4919 29.6769 65.9052 34.7133 65.9052 42.3579L65.9052 60.3901C65.9052 60.8397 66.13 61.5143 66.5797 61.5143L74.2243 61.5143C74.674 61.5143 74.9888 60.7948 74.9888 60.3901L74.9888 43.1673C74.9888 40.1095 76.3828 38.1309 79.3057 38.1309C82.3635 38.1309 84.0273 40.2893 84.0273 43.8868L84.0273 60.3901C84.0273 60.8397 84.522 61.5143 84.9717 61.5143L87.355 61.5143L89.4235 61.5143L91.8068 61.5143C92.2565 61.5143 92.7511 60.7948 92.7511 60.3901L92.7511 43.8868C92.7511 40.2893 94.415 38.1309 97.4728 38.1309C100.396 38.1309 101.79 40.1095 101.79 43.1673L101.79 60.3901C101.79 60.8397 102.105 61.5143 102.554 61.5143L110.199 61.5143C110.648 61.5143 110.873 60.7948 110.873 60.3901L110.873 42.3579C110.783 34.7133 106.197 29.6769 99.1816 29.6769Z" fill="#000000" fill-rule="nonzero" opacity="1" stroke="none"/>
<path d="M172.03 19.9638C172.03 17.0829 174.365 14.7475 177.246 14.7475C180.127 14.7475 182.462 17.0829 182.462 19.9638C182.462 22.8446 180.127 25.1801 177.246 25.1801C174.365 25.1801 172.03 22.8446 172.03 19.9638Z" fill="#000000" fill-rule="nonzero" opacity="1" stroke="none"/>
<path d="M185.161 13.5783C185.161 9.4805 188.482 6.15857 192.58 6.15857C196.678 6.15857 200 9.4805 200 13.5783C200 17.6761 196.678 20.998 192.58 20.998C188.482 20.998 185.161 17.6761 185.161 13.5783Z" fill="#000000" fill-rule="nonzero" opacity="1" stroke="none"/>
</g>
</g>
</svg>
