<svg id="Camada_1" data-name="Camada 1" xmlns="http://www.w3.org/2000/svg" viewBox="0 0 200 80"><defs><style>.cls-1{fill-rule:evenodd;}</style></defs><path d="M69.73,58.15H61.61V21.22h8.12Z"/><path d="M82.05,46.46c.46,3.4,3.36,5.48,6.82,5.48A7.34,7.34,0,0,0,95,48.6l5.83,3.86c-2.32,4.22-6.25,6.32-11.88,6.32a15.32,15.32,0,0,1-10.8-4.07,13.87,13.87,0,0,1-4.34-10.53A14,14,0,0,1,78.11,33.9a14.22,14.22,0,0,1,10.34-4.27,13.4,13.4,0,0,1,9.92,3.86,13.7,13.7,0,0,1,3.82,10.06c0,1.3,0,2.3-.1,2.92h-20Zm12.09-5.37c-.21-2.45-2.22-4.85-5.89-4.85a6.17,6.17,0,0,0-6,4.85Z"/><path d="M124.13,58.15V42.71c0-3.28-1.65-5.42-4.8-5.42s-5,2.35-5,5.42V58.15h-8.06V29.88h8V34h.05a7.35,7.35,0,0,1,2.74-2.71,8.9,8.9,0,0,1,5.07-1.46c3.3,0,5.79,1,7.44,3.17a12.17,12.17,0,0,1,2.53,7.88V58.15Z"/><path class="cls-1" d="M57.51,29.88V58.15H49.4V56.66a12.81,12.81,0,0,1-5.9,1.49,14.14,14.14,0,0,1,0-28.27,12.78,12.78,0,0,1,5.9,1.49V29.88ZM44,50.81A6.82,6.82,0,1,0,37.43,44,6.7,6.7,0,0,0,44,50.81Z"/><path d="M151.12,38.07V29.88h-6.81V21.22h-8.07V47.66c0,6.52,3.77,10.49,11,10.49a12.54,12.54,0,0,0,3.77-.53V51.1h-1.86c-3.15,0-4.8-1.25-4.8-4.43V38.07Z"/><path d="M26,38.07V29.88H19.37V21.22H11.31V47.66c0,6.52,3.77,10.49,11,10.49A12.45,12.45,0,0,0,26,57.62V51.1H24.17c-3.15,0-4.8-1.25-4.8-4.43V38.07Z"/><path d="M0,38.07V29.88H8.12v8.18H0Z"/><path d="M155.82,37.09a4.24,4.24,0,0,1-1.27-3,4.29,4.29,0,1,1,8.58,0,4.24,4.24,0,0,1-1.27,3,4.1,4.1,0,0,1-3,1.27A4.15,4.15,0,0,1,155.82,37.09Z"/><path d="M157,56.58a5.89,5.89,0,0,1-1.73-4.3A6,6,0,0,1,157,48a5.62,5.62,0,0,1,4.26-1.78,5.18,5.18,0,0,1,5.17,3.48l-2.2,1a2.91,2.91,0,0,0-2.95-2.13,3.25,3.25,0,0,0-2.41,1,3.56,3.56,0,0,0-1,2.6,3.76,3.76,0,0,0,1,2.68,3.18,3.18,0,0,0,2.44,1,3,3,0,0,0,3-2.16l2.24,1a5.44,5.44,0,0,1-1.83,2.46,5.38,5.38,0,0,1-3.42,1A5.7,5.7,0,0,1,157,56.58Z"/><path d="M178.42,48a5.65,5.65,0,0,1,1.76,4.25,6,6,0,0,1-6,6.07,6,6,0,0,1-4.31-1.74,6.06,6.06,0,0,1,0-8.57,6.12,6.12,0,0,1,8.56,0Zm-7.73,4.25a3.82,3.82,0,0,0,1,2.63,3.21,3.21,0,0,0,2.5,1.09,3.11,3.11,0,0,0,2.47-1.07,3.88,3.88,0,0,0,1-2.61,3.75,3.75,0,0,0-1-2.61,3.11,3.11,0,0,0-2.47-1.07,3.22,3.22,0,0,0-2.5,1.07A3.78,3.78,0,0,0,170.69,52.23Z"/><path d="M189.89,58.1V51.58c0-1.74-.77-2.89-2.47-2.89-1.55,0-2.52,1.19-2.52,3v6.45h-2.56V46.49h2.5v1.57a4.09,4.09,0,0,1,3.42-1.83,3.71,3.71,0,0,1,3.55,1.92,5,5,0,0,1,4-1.92c2.77,0,4.18,1.92,4.18,4.69v7.17h-2.56V51.55c0-1.76-.75-2.86-2.46-2.86s-2.54,1.17-2.54,2.93v6.47h-2.55Z"/></svg>