<svg id="Camada_1" data-name="Camada 1" xmlns="http://www.w3.org/2000/svg" viewBox="0 0 200 80"><path d="M87.87,37.46a2.78,2.78,0,0,0-1.3-.35,2.7,2.7,0,0,0-1.29.35,2.5,2.5,0,0,0-1,.95A3.21,3.21,0,0,0,84,39.92a3.42,3.42,0,0,0,.34,1.5,2.17,2.17,0,0,0,1,1,2.81,2.81,0,0,0,1.29.34,2.89,2.89,0,0,0,1.3-.34,2.67,2.67,0,0,0,1-1,3.32,3.32,0,0,0,.34-1.5,3.57,3.57,0,0,0-.34-1.51A2.15,2.15,0,0,0,87.87,37.46Z"/><path d="M94.5,27.21H70.79a3,3,0,0,0-2.94,2.93V56.79l6-5.87H94.5A3,3,0,0,0,97.44,48V30.21A2.93,2.93,0,0,0,94.5,27.21Zm-13.6,10H78.85v4.1a1.23,1.23,0,0,0,.28,1,1,1,0,0,0,.82.34,1,1,0,0,0,.47-.07,2.78,2.78,0,0,1,.48-.2v1.7a3.56,3.56,0,0,1-1.3.28,2.66,2.66,0,0,1-1-.21,2.17,2.17,0,0,1-.82-.48,2.67,2.67,0,0,1-.68-2V37.25H75.64V35.68h1.44V33.29h1.77v2.39H80.9Zm9.5,5a3.51,3.51,0,0,1-1.57,1.57,4.34,4.34,0,0,1-2.26.62,4.6,4.6,0,0,1-2.25-.69,4.38,4.38,0,0,1-1.57-1.57,4.9,4.9,0,0,1,0-4.51,3.51,3.51,0,0,1,1.57-1.57,4.28,4.28,0,0,1,2.25-.62,4.34,4.34,0,0,1,2.26.62,4.57,4.57,0,0,1,1.57,1.64,4.9,4.9,0,0,1,0,4.51Z"/><polygon points="0 30.08 6.56 30.08 6.56 50.92 9.36 50.92 9.36 30.08 15.92 30.08 15.92 27.41 0 27.41 0 30.08"/><rect x="35.19" y="27.41" width="2.8" height="23.51"/><polygon points="56.99 34.31 56.99 34.18 53.43 34.18 45.58 42.17 45.58 27.41 42.77 27.41 42.77 50.92 45.58 50.92 45.58 45.72 48.45 42.85 53.84 50.92 57.12 50.92 57.12 50.78 50.43 40.94 56.99 34.31"/><path d="M23.37,33.63a8.68,8.68,0,0,0-3.83.82,7.14,7.14,0,0,0-2.73,2.39l2.12,1.57a4.08,4.08,0,0,1,1.84-1.71,5.59,5.59,0,0,1,2.6-.61,4.94,4.94,0,0,1,3.28,1.16,3.74,3.74,0,0,1,1.3,3v1a7.47,7.47,0,0,0-2-.75,12.43,12.43,0,0,0-2.81-.34,8.08,8.08,0,0,0-5.05,1.5,5.4,5.4,0,0,0-1.16,7,5.72,5.72,0,0,0,2.25,2,6.41,6.41,0,0,0,3.21.69,6.54,6.54,0,0,0,3.28-.82,5.8,5.8,0,0,0,2.19-2H28v2.39h2.66V40.26a6.22,6.22,0,0,0-2-4.85A7.69,7.69,0,0,0,23.37,33.63Zm3.89,12.71A5.41,5.41,0,0,1,22.69,49,4.11,4.11,0,0,1,20,48.18a2.91,2.91,0,0,1-1-2.25,3,3,0,0,1,1.16-2.46,5.67,5.67,0,0,1,3.48-1,9.49,9.49,0,0,1,2.46.34,7.35,7.35,0,0,1,1.92.82A5.23,5.23,0,0,1,27.26,46.34Z"/><path d="M162.69,34.79a9.08,9.08,0,0,0-8.88,0A8.28,8.28,0,0,0,150.73,38a9.88,9.88,0,0,0,0,9,8.71,8.71,0,0,0,3.08,3.21,7.81,7.81,0,0,0,4.44,1.17,8.7,8.7,0,0,0,4.44-1.17A8.14,8.14,0,0,0,165.77,47a9.88,9.88,0,0,0,0-9A8.21,8.21,0,0,0,162.69,34.79Zm.55,11.14a6,6,0,0,1-2.12,2.19,5.87,5.87,0,0,1-5.74,0,5.46,5.46,0,0,1-2.12-2.19,6.65,6.65,0,0,1-.82-3.35,7.57,7.57,0,0,1,.82-3.35,5.43,5.43,0,0,1,2.12-2.18,6,6,0,0,1,2.87-.76,5.28,5.28,0,0,1,2.87.76,5.43,5.43,0,0,1,2.12,2.18,6.55,6.55,0,0,1,.82,3.35A6.73,6.73,0,0,1,163.24,45.93Z"/><path d="M198.77,43.26a7.8,7.8,0,0,0-3.69-1.84l-2.46-.62a5.92,5.92,0,0,1-2.19-.95,1.94,1.94,0,0,1-.75-1.51,1.85,1.85,0,0,1,1-1.64,4.59,4.59,0,0,1,2.39-.61,4,4,0,0,1,4,2.25l2.46-1.09a5.18,5.18,0,0,0-2.46-2.66,8,8,0,0,0-3.89-1,7.87,7.87,0,0,0-3.15.61A5.51,5.51,0,0,0,187.7,36a3.84,3.84,0,0,0-.89,2.53,4.13,4.13,0,0,0,1.3,3.08,7.51,7.51,0,0,0,3.28,1.64l2.05.54a8,8,0,0,1,2.8,1.1,2,2,0,0,1,.89,1.7A2,2,0,0,1,196,48.39a5.48,5.48,0,0,1-2.67.61,4.74,4.74,0,0,1-2.73-.82,4.8,4.8,0,0,1-1.85-2.32L186.33,47a6.47,6.47,0,0,0,2.53,3.22h0a6.89,6.89,0,0,0,4.51,1.23,8.84,8.84,0,0,0,3.35-.62A5.66,5.66,0,0,0,199.11,49a4.32,4.32,0,0,0,.89-2.73A4.14,4.14,0,0,0,198.77,43.26Z"/><path d="M142.53,34.79a9.08,9.08,0,0,0-8.88,0A8.18,8.18,0,0,0,130.58,38a9.8,9.8,0,0,0,0,9,8.6,8.6,0,0,0,3.07,3.21,7.67,7.67,0,0,0,4.44,1.17,8.68,8.68,0,0,0,4.44-1.17A8.14,8.14,0,0,0,145.61,47a9.88,9.88,0,0,0,0-9A8.21,8.21,0,0,0,142.53,34.79Zm.55,11.14A6,6,0,0,1,141,48.12a5.87,5.87,0,0,1-5.74,0,5.44,5.44,0,0,1-2.11-2.19,6.55,6.55,0,0,1-.82-3.35,7.57,7.57,0,0,1,.82-3.35,5.4,5.4,0,0,1,2.11-2.18,6,6,0,0,1,2.87-.76,5.26,5.26,0,0,1,2.87.76,5.43,5.43,0,0,1,2.12,2.18,6.55,6.55,0,0,1,.82,3.35A6.73,6.73,0,0,1,143.08,45.93Z"/><path d="M122.24,38.89v-.14a5.85,5.85,0,0,0,2.32-2,5,5,0,0,0,.89-3,5.85,5.85,0,0,0-.89-3.28,6.46,6.46,0,0,0-2.46-2.26,7.05,7.05,0,0,0-3.34-.82h-8.48V50.92h8.89a7,7,0,0,0,6.08-3.21,6.48,6.48,0,0,0,1-3.42,5.34,5.34,0,0,0-1.09-3.35A6.17,6.17,0,0,0,122.24,38.89ZM113,30.08h5.8a3.8,3.8,0,0,1,2.05.54,4.45,4.45,0,0,1,1.37,1.44,3.47,3.47,0,0,1,.48,1.77,3.33,3.33,0,0,1-.48,1.78,3.08,3.08,0,0,1-1.37,1.44,3.8,3.8,0,0,1-2.05.54H113Zm10,16.05a4.3,4.3,0,0,1-1.43,1.51,3.69,3.69,0,0,1-2.12.61v.07h-6.35V40.26h6.14a3.86,3.86,0,0,1,2.19.54,4,4,0,0,1,1.5,1.51,3.8,3.8,0,0,1,.07,3.82Z"/><polygon points="184.83 34.31 184.83 34.18 181.28 34.18 173.42 42.17 173.42 27.41 170.62 27.41 170.62 50.92 173.42 50.92 173.42 45.72 176.29 42.85 181.69 50.92 184.97 50.92 184.97 50.78 178.27 40.94 184.83 34.31"/></svg>