<?xml version="1.0" encoding="UTF-8" standalone="no"?>
<svg height="32" version="1.1" viewBox="0 0 32 32" width="32" xml:space="preserve" id="svg2" xmlns="http://www.w3.org/2000/svg" xmlns:svg="http://www.w3.org/2000/svg"><defs id="defs2" /><path id="path1" style="clip-rule:evenodd;fill:#000000;fill-rule:evenodd;stroke-width:0.124989;enable-background:new" d="M 7.38506,0 C 6.07968,0 4.81747,0.29312 3.72719,0.86857 3.0995,1.19967 2.52881,1.63663 2.03961,2.13408 1.54815,2.63379 1.10345,3.19502 0.7841,3.83046 0.24803,4.89699 0,6.13992 0,7.41143 v 17.17714 c 0,1.29076 0.20872,2.58461 0.78679,3.64151 0.33509,0.61244 0.77392,1.23226 1.26087,1.72396 0.49171,0.49633 1.07265,0.9033 1.68759,1.24452 C 4.79328,31.78601 6.09031,32 7.38506,32 h 17.22963 c 1.32088,0 2.54969,-0.19028 3.62247,-0.79998 0.59232,-0.33647 1.23458,-0.76415 1.71053,-1.24573 0.49033,-0.49608 0.90001,-1.10625 1.23573,-1.7247 C 31.75412,27.17781 32,25.8707 32,24.58857 V 7.41143 C 32,6.12317 31.75241,4.8916 31.17634,3.83607 30.83625,3.21301 30.44941,2.64412 29.95233,2.14604 29.45338,1.64634 28.86379,1.1977 28.2396,0.85685 27.19207,0.28491 25.89132,0 24.61469,0 Z m 5.10549,6.91294 c 0.98704,0.2716 1.97437,0.54327 2.9614,0.81487 -0.0584,0.4872 -0.47388,1.00351 -0.69574,1.39123 l 0.02,0.0793 h 0.0198 c 0.47695,-0.12587 0.95419,-0.25155 1.43102,-0.37741 0.74868,-0.15249 1.49745,-0.30475 2.24588,-0.45723 3.46044,-0.72481 7.55806,-0.18163 8.76483,2.14653 0.80592,1.44699 1.01297,9.19705 0.15892,11.92518 -0.69381,1.71184 -1.78585,2.49941 -4.17613,2.80101 -0.57982,0.0731 -1.41315,0.0833 -2.02472,-0.0186 -0.64707,-0.10787 -1.31555,-0.19975 -1.90437,-0.33786 0.0301,-0.3436 0.30854,-1.38445 0.41378,-1.68955 h 0.0198 c 0.75243,0.16686 1.50978,0.38817 2.07598,0.39767 0.56607,0.01 1.36873,-0.0867 2.04766,-0.72698 0.8163,-0.88655 0.66633,-1.87251 0.6662,-3.36713 v -5.50535 c 1.3e-4,-1.08203 0.10307,-2.34497 -0.25827,-3.08053 -0.91042,-1.8542 -4.14947,-1.4522 -6.14129,-0.83488 -0.68894,0.2186 -1.37801,0.43709 -2.06695,0.6557 0.0131,0.0332 0.0263,0.0662 0.0395,0.0994 0.37746,0.0994 0.75512,0.19895 1.13271,0.29832 0.007,0.0131 0.0133,0.0265 0.02,0.0398 -0.23973,0.60369 -0.63759,1.0279 -0.99381,1.51036 0.0249,0.0601 0.0398,0.0598 0.0398,0.0598 l 7.23445,-2.5e-4 v 1.46788 l -4.1029,-0.002 4.9e-4,1.87312 4.10241,7.4e-4 0.002,1.4503 -4.11657,-0.002 v 2.32767 c 0,0.23361 -0.0607,0.68638 0.0598,0.81487 0.61807,-0.15311 1.1873,-0.50617 1.64951,-0.83489 -0.11262,-0.43721 -0.22525,-0.87443 -0.33786,-1.31164 0.0905,-0.11674 1.75069,-0.64716 1.92804,-0.61616 0.52333,1.29176 1.04672,2.58374 1.57017,3.87562 -0.76843,0.3311 -1.53715,0.66259 -2.30545,0.99381 -0.17223,-0.14799 -0.38649,-1.2364 -0.45723,-1.53038 h -0.0796 c -0.34459,0.30872 -0.77983,0.51431 -1.21229,0.73529 -1.46186,0.7463 -3.27266,1.1327 -5.48558,1.13295 -0.7698,1.2e-4 -1.43877,-0.0214 -1.96759,-0.25852 -0.68794,-0.30847 -0.91059,-0.67044 -1.23231,-1.19252 -0.38997,-0.63282 -0.55883,-2.1664 -0.21849,-3.21968 h 2.94138 c -0.14323,1.374 -0.35149,2.30455 0.95402,2.60353 0.19948,0.0457 0.52122,0.10491 0.76995,0.0398 0,-0.38447 0.002,-3.53777 0.002,-3.53777 l -4.19029,-0.003 V 16.0955 c 1.4135,0 4.18541,-4.9e-4 4.18541,-4.9e-4 l 0.005,-1.89069 -1.09023,0.003 c 0,0 -0.39765,0.42394 -0.59638,0.63592 -0.40409,0.39084 -0.8082,0.78191 -1.21229,1.17275 h -0.0398 c -0.39747,-0.3576 -0.79506,-0.71555 -1.19252,-1.07315 v -0.0398 c 0.86005,-0.88142 1.7755,-2.33054 2.3057,-3.35882 l -0.0398,-0.0598 c -0.45046,0.19211 -0.90098,0.38426 -1.35144,0.57636 -0.12587,0.15886 -0.25179,0.31802 -0.37765,0.47701 -0.41072,0.43721 -0.8216,0.87444 -1.23231,1.31165 -0.26385,-0.0659 -1.87442,-0.97762 -2.02716,-1.15273 0.0199,-0.0266 0.0397,-0.0531 0.0596,-0.0796 0.32072,-0.19148 0.57037,-0.56169 0.7951,-0.85442 0.70356,-0.91616 1.34049,-1.949 1.82844,-3.08077 C 12.03964,8.09248 12.26477,7.50286 12.49,6.91328 Z M 7.89527,7.23103 c 2.84336,-0.0539 3.14716,3.27133 0.71551,3.79604 C 7.16316,11.33941 5.54263,10.06273 6.06658,8.60224 6.28581,7.99142 6.78505,7.54786 7.39825,7.33038 7.56398,7.29728 7.72966,7.26428 7.89527,7.23098 Z M 6.2897,11.9015 c 0.38234,0.0914 1.28827,0.94956 1.62974,1.21229 0.35934,0.27647 0.79547,0.67375 1.20619,1.07021 0.47808,0.46134 0.91753,0.85818 1.09926,1.47375 0.3051,1.03503 -0.0639,2.28364 -0.33786,3.12056 -0.72118,2.20342 -1.80778,3.97572 -2.66333,6.02215 -0.13649,0.0308 -1.51833,-0.92969 -2.6831,-1.6495 -0.18549,-0.11924 -0.59883,-0.35788 -0.59883,-0.35788 0,0 0.67831,-0.59615 1.45348,-1.37146 C 6.35254,20.46433 7.38124,19.51239 8.13792,18.36087 8.41615,17.93753 8.76598,17.16021 8.45601,16.51265 8.27365,16.10906 7.9091,15.7816 7.46465,15.47588 6.91382,15.13541 6.29579,14.77973 5.71334,14.38589 L 4.99783,13.94867 C 5.42842,13.26636 5.85912,12.58381 6.2897,11.9015 Z" /></svg>
