<?xml version="1.0" encoding="UTF-8"?><svg id="a" xmlns="http://www.w3.org/2000/svg" viewBox="0 0 137.71 80"><path d="m.05,15h43.22v12.76h-13.98c0,12.39-.05,24.79,0,37.18h-15.36c.05-12.39,0-24.79,0-37.18H0l.05-12.76Z" style="stroke-width:0px;"/><path d="m45.6,15h41.95c.05,4.24,0,8.53.05,12.76h-26.64v6.14h26.64c-.05,3.97-.05,7.94,0,11.92-8.9.05-17.8,0-26.69,0,.05,2.12,0,4.18,0,6.3h26.64c0,4.24-.05,8.53,0,12.76-13.98.05-28.02.05-42,0,.11-16.58.05-33.26.05-49.89Z" style="stroke-width:0px;"/><path d="m90.15,15h26.75c5.4.26,10.91,2.17,14.57,6.25,4.18,4.45,5.83,10.7,6.25,16.63v4.18c-.37,5.77-1.96,11.71-6.04,16-4.66,4.98-11.65,6.89-18.27,6.94h-23.31c.05-16.68.05-33.37.05-50m15.31,12.76v24.42c4.03-.16,8.37.64,12.02-1.48,3.65-2.12,4.87-6.57,4.93-10.49.16-3.97-1.27-8.37-4.82-10.59-3.6-2.33-8.05-1.75-12.13-1.85h0Z" style="stroke-width:0px;"/></svg>