<svg viewBox="0 0 606.815 606.815" width="32" height="32" class="_3My78Pdp" aria-label="temu" fill="#fb7701" stroke-width="18.963" xmlns="http://www.w3.org/2000/svg">
  <path d="M471.94 0c74.49 0 134.875 60.385 134.875 134.874v337.067c0 74.489-60.385 134.874-134.874 134.874H134.874C60.385 606.815 0 546.43 0 471.94V134.874C0 60.385 60.385 0 134.874 0ZM320.238 315.2h-8.06c-7.17 0-13.036 5.807-12.977 12.978v89.185c0 7.17 5.807 13.037 12.978 13.037 7.17 0 13.037-5.807 13.037-13.037v-58.548l21.926 30.933c4.563 6.4 14.044 6.4 18.666 0l21.926-30.933v58.548c0 7.17 5.808 13.037 13.037 13.037 7.17 0 13.037-5.807 12.978-13.037v-89.185c0-7.17-5.807-13.037-12.978-12.978h-8.059c-3.081 0-6.044 1.481-7.822 4.03l-28.385 42.666-28.445-42.666c-1.778-2.549-4.681-4.03-7.822-4.03Zm201.6 0c-7.17 0-13.037 5.807-13.037 12.978v54.459c0 17.126-9.66 25.896-25.54 25.837-15.882 0-25.541-9.067-25.482-26.607v-53.69c0-7.17-5.808-13.036-13.037-12.977-7.17 0-13.037 5.807-12.978 12.978v54.281c0 31.763 19.437 47.941 51.2 47.941s51.911-16 51.852-48.711v-53.511c0-7.17-5.808-13.037-12.978-12.978zm-365.57 0h-76.03c-7.17 0-13.037 5.807-13.037 12.978 0 7.17 5.807 13.037 13.037 13.037h25.007v76.03c0 7.17 5.808 13.036 12.978 13.036s13.037-5.807 13.037-13.037v-76.03h25.008c7.17 0 13.037-5.807 13.037-13.036 0-7.17-5.808-13.037-13.037-12.978zm112.533 0h-70.46c-7.17 0-13.036 5.807-13.036 12.978v89.066c0 7.17 5.807 13.037 13.037 13.037H268.8c7.17 0 13.037-5.807 12.978-13.037 0-7.17-5.808-13.037-12.978-13.037h-57.481V385.72h50.014c7.17 0 13.037-5.808 13.037-12.978s-5.807-13.037-13.037-13.037H211.32v-18.49H268.8c7.17 0 13.037-5.807 12.978-13.036 0-7.17-5.808-13.037-12.978-12.978zM141.689 179.26l-2.43.059c-10.133.651-17.066 5.037-20.978 10.963-4.562-6.815-13.096-11.615-25.955-10.904l-.296.415c-1.482 2.37-7.052 12.977 1.955 24.533 1.837 1.956 6.34 7.467 4.504 14.518l-26.133 42.252c-2.134 3.437-1.186 7.882 2.074 10.193 6.755 4.74 20.326 11.26 43.851 11.26 23.467 0 37.038-6.52 43.793-11.26l.889-.77c2.548-2.43 3.081-6.341 1.185-9.423l-26.074-42.252.178.77-.296-1.184c-1.423-6.341 2.133-11.378 4.088-13.63l.475-.474c9.066-11.556 3.437-22.104 1.955-24.533l-.237-.415zm84.622 19.792c-8.948-17.778-20.563-20.8-26.37-16.178-4.445 3.556-14.697 17.6-15.408 18.548-11.318 16.06-10.666 19.97 3.852 29.097 8.178 5.155 14.756-1.482 17.6-3.438-1.363 8.475-5.51 21.808-11.733 31.17-3.378-2.547-5.867-4.503-7.408-5.925-1.955-1.778-4.918-1.66-6.814.178a4.42 4.42 0 0 0-1.304 3.377c.06 1.245.593 2.43 1.481 3.26 15.112 13.807 34.963 21.63 56.119 21.689 21.215 0 41.185-7.823 56.296-21.69 1.956-1.777 2.015-4.74.237-6.636-1.896-1.897-4.859-1.956-6.815-.178a90.048 90.048 0 0 1-3.614 3.081l-6.637-14.814c-1.067-2.549-2.252-5.749-3.556-9.6.652-1.6 2.015-3.141 3.97-5.156 1.423-1.422 2.608-2.844 3.497-4.207 4.385-6.934 1.896-11.023.533-13.749-3.14-6.4-8.06-4.325-11.615-.533-4.385 4.622-8.652 6.637-15.526 8.178-5.748 1.304-10.192.652-13.866-1.66-5.097-3.14-12.919-14.814-12.919-14.814zm164.326-18.074c-18.963 18.015-.77 57.185-35.26 73.837-3.792 1.837-6.933-4.208-12.029-4.208-14.4.119-41.896 12.8-42.963 19.2-.889 5.274 10.845 9.482 45.452 9.541 30.104 0 39.822-45.807 50.37-45.867 10.549 0 5.63 41.541 4.504 45.867h11.022c-.948-4.326-1.659-17.363-1.6-35.792 0-18.43 3.319-22.519 5.986-36.445 2.31-12.089-15.586-22.578-25.482-26.133zm108.089 1.481h-30.874c-19.97 0-36.563 15.467-37.926 35.378l-2.252 31.94c-1.067 15.171 10.963 28.03 26.133 28.09h58.904c15.23 0 27.2-12.86 26.193-28.09l-2.252-31.94c-1.422-19.911-17.956-35.378-37.926-35.378zm-262.282 73.482c9.304 0 16.415 4.563 19.023 13.037-6.341 1.659-12.682 2.489-19.141 2.43-9.719 0-13.156-.89-19.378-2.549 2.489-7.466 10.726-12.918 19.496-12.918zm232.83-46.993v.889c0 7.704 6.282 14.044 13.985 14.044 7.704 0 14.045-6.281 14.045-14.044v-.889c0-3.437 12.444-3.437 12.444 0v.889c0 14.578-11.852 26.43-26.489 26.43-14.578 0-26.43-11.852-26.43-26.43v-.889c0-3.437 12.386-3.437 12.445 0z" style="fill:#000;stroke-width:11.2373"/>
</svg>