<?xml version="1.0" encoding="UTF-8" standalone="no"?>
<svg viewBox="0 0 606.81481 606.81481" version="1.1" width="32" height="32" class="_3My78Pdp" alt="temu" aria-label="temu" fill="#fb7701" stroke="none" stroke-width="18.963" id="svg1" sodipodi:docname="temu.svg" inkscape:version="1.4-beta2 (9aaf4f34, 2024-07-30)" xmlns:inkscape="http://www.inkscape.org/namespaces/inkscape" xmlns:sodipodi="http://sodipodi.sourceforge.net/DTD/sodipodi-0.dtd" xmlns="http://www.w3.org/2000/svg" xmlns:svg="http://www.w3.org/2000/svg" xmlns:rdf="http://www.w3.org/1999/02/22-rdf-syntax-ns#" xmlns:cc="http://creativecommons.org/ns#" xmlns:dc="http://purl.org/dc/elements/1.1/">
  <defs id="defs1" />
  <sodipodi:namedview id="namedview1" pagecolor="#ffffff" bordercolor="#000000" borderopacity="0.25" inkscape:showpageshadow="2" inkscape:pageopacity="0.0" inkscape:pagecheckerboard="0" inkscape:deskcolor="#d1d1d1" inkscape:zoom="2.8001168" inkscape:cx="-2.1427677" inkscape:cy="51.247862" inkscape:window-width="1440" inkscape:window-height="790" inkscape:window-x="0" inkscape:window-y="0" inkscape:window-maximized="1" inkscape:current-layer="svg1" />
  <title id="title1">temu</title>
  <path d="m 471.94074,0 c 74.48889,0 134.87407,60.385185 134.87407,134.87407 v 337.06667 c 0,74.48889 -60.38518,134.87407 -134.87407,134.87407 H 134.87407 C 60.385185,606.81481 0,546.42963 0,471.94074 V 134.87407 C 0,60.385185 60.385185,0 134.87407,0 Z m -151.7037,315.2 h -8.05926 c -7.17037,0 -13.03704,5.80741 -12.97778,12.97778 v 89.18518 c 0,7.17037 5.80741,13.03704 12.97778,13.03704 7.17037,0 13.03703,-5.80741 13.03703,-13.03704 v -58.54815 l 21.92593,30.93334 c 4.56296,6.4 14.04445,6.4 18.66667,0 l 21.92592,-30.93334 v 58.54815 c 0,7.17037 5.80741,13.03704 13.03704,13.03704 7.17037,0 13.03704,-5.80741 12.97778,-13.03704 v -89.18518 c 0,-7.17037 -5.80741,-13.03704 -12.97778,-12.97778 h -8.05926 c -3.08148,0 -6.04444,1.48148 -7.82222,4.02963 L 356.5037,361.8963 328.05926,319.22963 C 326.28148,316.68148 323.37778,315.2 320.23704,315.2 Z m 201.6,0 c -7.17037,0 -13.03704,5.80741 -13.03704,12.97778 v 54.45926 c 0,17.12592 -9.65926,25.89629 -25.54074,25.83703 -15.88148,0 -25.54074,-9.06666 -25.48148,-26.6074 v -53.68889 c 0,-7.17037 -5.80741,-13.03704 -13.03704,-12.97778 -7.17037,0 -13.03704,5.80741 -12.97778,12.97778 v 54.28148 c 0,31.76296 19.43704,47.94074 51.2,47.94074 31.76297,0 51.91111,-16 51.85185,-48.71111 v -53.51111 c 0,-7.17037 -5.8074,-13.03704 -12.97777,-12.97778 z m -365.57037,0 H 80.237037 C 73.066667,315.2 67.2,321.00741 67.2,328.17778 c 0,7.17037 5.807407,13.03703 13.037037,13.03703 h 25.007403 v 76.02963 c 0,7.17037 5.80741,13.03704 12.97778,13.03704 7.17037,0 13.03704,-5.80741 13.03704,-13.03704 v -76.02963 h 25.00741 c 7.17037,0 13.03703,-5.8074 13.03703,-13.03703 0,-7.17037 -5.8074,-13.03704 -13.03703,-12.97778 z m 112.53333,0 h -70.45926 c -7.17037,0 -13.03704,5.80741 -13.03704,12.97778 v 89.06666 c 0,7.17037 5.80741,13.03704 13.03704,13.03704 H 268.8 c 7.17037,0 13.03704,-5.80741 12.97778,-13.03704 0,-7.17037 -5.80741,-13.03703 -12.97778,-13.03703 h -57.48148 v -18.48889 h 50.01481 c 7.17037,0 13.03704,-5.80741 13.03704,-12.97778 0,-7.17037 -5.80741,-13.03704 -13.03704,-13.03704 H 211.31852 V 341.21481 H 268.8 c 7.17037,0 13.03704,-5.8074 12.97778,-13.03703 0,-7.17037 -5.80741,-13.03704 -12.97778,-12.97778 z m -127.11111,-135.94074 -2.42963,0.0593 c -10.13333,0.65185 -17.06667,5.03704 -20.97778,10.96296 -4.56296,-6.81481 -13.09629,-11.61481 -25.955554,-10.9037 l -0.296296,0.41481 c -1.481482,2.37037 -7.051852,12.97778 1.955555,24.53334 1.837037,1.95555 6.340745,7.46666 4.503704,14.51851 L 72.355556,261.0963 c -2.133334,3.43703 -1.185186,7.88148 2.074074,10.19259 6.755555,4.74074 20.325926,11.25926 43.85185,11.25926 23.46667,0 37.03704,-6.51852 43.79259,-11.25926 l 0.88889,-0.77037 c 2.54815,-2.42963 3.08148,-6.34074 1.18519,-9.42222 l -26.07408,-42.25186 0.17778,0.77037 -0.29629,-1.18518 c -1.42223,-6.34074 2.13333,-11.37778 4.08888,-13.62963 l 0.47408,-0.47407 c 9.06667,-11.55556 3.43704,-22.10371 1.95555,-24.53334 l -0.23703,-0.41481 z m 84.62222,19.79259 c -8.94815,-17.77778 -20.56296,-20.8 -26.37037,-16.17778 -4.44444,3.55556 -14.6963,17.6 -15.40741,18.54815 -11.31852,16.05926 -10.66666,19.97037 3.85186,29.0963 8.17777,5.15555 14.75555,-1.48148 17.6,-3.43704 -1.36297,8.47408 -5.51112,21.80741 -11.73334,31.17037 -3.37778,-2.54815 -5.86666,-4.5037 -7.40741,-5.92592 -1.95555,-1.77778 -4.91851,-1.65926 -6.81481,0.17777 -0.88889,0.88889 -1.36296,2.07408 -1.3037,3.37778 0.0593,1.24445 0.59259,2.42963 1.48148,3.25926 15.11111,13.80741 34.96296,21.62963 56.11852,21.68889 21.21481,0 41.18518,-7.82222 56.29629,-21.68889 1.95556,-1.77778 2.01482,-4.74074 0.23704,-6.63704 -1.8963,-1.89629 -4.85926,-1.95555 -6.81482,-0.17777 -1.18518,1.06666 -2.37037,2.07407 -3.61481,3.08148 l -6.63704,-14.81482 c -1.06666,-2.54815 -2.25185,-5.74815 -3.55555,-9.6 0.65185,-1.6 2.01481,-3.14074 3.97037,-5.15555 1.42222,-1.42223 2.6074,-2.84445 3.49629,-4.20741 4.38519,-6.93333 1.8963,-11.02222 0.53334,-13.74815 -3.14074,-6.4 -8.05926,-4.32592 -11.61482,-0.53333 -4.38518,4.62222 -8.65185,6.63704 -15.52592,8.17778 -5.74815,1.3037 -10.1926,0.65185 -13.86667,-1.65926 -5.0963,-3.14074 -12.91852,-14.81482 -12.91852,-14.81482 z m 164.32593,-18.07407 c -18.96297,18.01481 -0.77037,57.18518 -35.25926,73.83703 -3.79259,1.83704 -6.93334,-4.2074 -12.02963,-4.2074 -14.4,0.11852 -41.8963,12.8 -42.96296,19.2 -0.88889,5.27407 10.84444,9.48148 45.45185,9.54074 30.1037,0 39.82222,-45.80741 50.37037,-45.86667 10.54815,0 5.62963,41.54074 4.5037,45.86667 h 11.02222 c -0.94814,-4.32593 -1.65926,-17.36296 -1.6,-35.79259 0,-18.42963 3.31852,-22.51852 5.98519,-36.44445 2.31111,-12.08889 -15.58519,-22.57778 -25.48148,-26.13333 z m 108.08889,1.48148 h -30.87408 c -19.97037,0 -36.56296,15.46667 -37.92592,35.37778 l -2.25186,31.94074 c -1.06666,15.17037 10.96297,28.02963 26.13334,28.08889 h 58.9037 c 15.22963,0 27.2,-12.85926 26.19259,-28.08889 l -2.25185,-31.94074 c -1.42222,-19.91111 -17.95555,-35.37778 -37.92592,-35.37778 z m -262.28149,73.48148 c 9.30371,0 16.41482,4.56296 19.02223,13.03704 -6.34074,1.65926 -12.68148,2.48889 -19.14074,2.42963 -9.71852,0 -13.15556,-0.88889 -19.37778,-2.54815 2.48889,-7.46667 10.72592,-12.91852 19.49629,-12.91852 z m 232.82963,-46.99259 v 0.88889 c 0,7.7037 6.28149,14.04444 13.98519,14.04444 7.7037,0 14.04444,-6.28148 14.04444,-14.04444 v -0.88889 c 0,-3.43704 12.44445,-3.43704 12.44445,0 v 0.88889 c 0,14.57777 -11.85185,26.42963 -26.48889,26.42963 -14.57778,0 -26.42963,-11.85186 -26.42963,-26.42963 v -0.88889 c 0,-3.43704 12.38518,-3.43704 12.44444,0 z" id="path1" style="fill:#000000;stroke-width:11.2373" />
  <metadata id="metadata1">
    <rdf:RDF>
      <cc:Work rdf:about="">
        <dc:title>temu</dc:title>
      </cc:Work>
    </rdf:RDF>
  </metadata>
</svg>
