<svg viewBox="0 0 300 80" version="1.1" id="svg8" xmlns:xlink="http://www.w3.org/1999/xlink" xmlns="http://www.w3.org/2000/svg" xmlns:svg="http://www.w3.org/2000/svg">
  <defs id="defs8" />
  <g id="g8" transform="translate(-0.49999999,7.4768809)">
    <g id="g4" style="fill:#000000" transform="matrix(1.054111,0,0,1.054111,-0.02705552,-0.25973296)">
      <g id="g3" style="fill:#000000">
        <defs id="defs1">
          <path id="SVGID_1_" d="M 47.5,17.6 25,4.8 v 52.6 l 9,-5.2 V 37.4 L 40.8,41.3 40.7,31.2 34,27.3 v -5.9 l 13.5,7.9 z" />
        </defs>
        <clipPath id="SVGID_2_">
          <use xlink:href="#SVGID_1_" overflow="visible" id="use1" />
        </clipPath>
        <g clip-path="url(#SVGID_2_)" id="g2" style="fill:#000000">
          <linearGradient id="SVGID_3_" gradientUnits="userSpaceOnUse" x1="-1.6" y1="335.04999" x2="53.599998" y2="335.04999" gradientTransform="translate(0,-304)">
            <stop offset="0" stop-color="#ff6f00" id="stop1" />
            <stop offset="1" stop-color="#ffa800" id="stop2" />
          </linearGradient>
          <path d="M -1.6,4.6 H 53.6 V 57.5 H -1.6 Z" fill="url(#SVGID_3_)" id="path2" style="fill:#000000" />
        </g>
      </g>
    </g>
    <g id="g7" style="fill:#000000" transform="matrix(1.054111,0,0,1.054111,-0.02705552,-0.25973296)">
      <g id="g6" style="fill:#000000">
        <defs id="defs4">
          <path id="SVGID_4_" d="M 0.5,17.6 23,4.8 V 57.4 L 14,52.2 V 21.4 L 0.5,29.3 Z" />
        </defs>
        <clipPath id="SVGID_5_">
          <use xlink:href="#SVGID_4_" overflow="visible" id="use4" />
        </clipPath>
        <g clip-path="url(#SVGID_5_)" id="g5" style="fill:#000000">
          <linearGradient id="SVGID_6_" gradientUnits="userSpaceOnUse" x1="-1.9" y1="335.04999" x2="53.299999" y2="335.04999" gradientTransform="translate(0,-304)">
            <stop offset="0" stop-color="#ff6f00" id="stop4" />
            <stop offset="1" stop-color="#ffa800" id="stop5" />
          </linearGradient>
          <path d="M -1.9,4.6 H 53.3 V 57.5 H -1.9 Z" fill="url(#SVGID_6_)" id="path5" style="fill:#000000" />
        </g>
      </g>
    </g>
    <path style="fill:#000000;stroke-width:1.05411" d="M 92.945538,21.98201 H 82.404427 V 51.180885 H 76.501405 V 21.98201 h -10.54111 v -4.7435 h 26.985243 z" id="path7" />
    <path style="fill:#000000;stroke-width:1.05411" d="m 100.00808,51.60253 c -3.583976,0 -6.535487,-1.159522 -8.74912,-3.373155 -2.213633,-2.213634 -3.373155,-5.270556 -3.373155,-9.065355 v -0.737878 c 0,-2.319044 0.421644,-4.638089 1.475755,-6.746311 0.9487,-1.8974 2.319044,-3.478566 4.111033,-4.638088 1.791989,-1.159522 3.7948,-1.686578 5.903022,-1.686578 3.478565,0 6.113845,1.054111 8.011245,3.267744 1.8974,2.213634 2.8461,5.270556 2.8461,9.276177 v 2.319045 H 93.683415 c 0.105411,1.8974 0.843289,3.583977 2.108222,4.954322 1.264934,1.264933 2.8461,1.897399 4.638093,1.791988 2.52986,0.105411 4.84891,-1.159522 6.32466,-3.162333 l 3.05692,2.951511 c -1.05411,1.475756 -2.42445,2.740689 -4.00562,3.478567 -1.8974,1.054111 -3.7948,1.475755 -5.79761,1.370344 z M 99.375615,29.993254 c -1.475756,-0.105411 -2.8461,0.527055 -3.7948,1.581166 -1.054111,1.264933 -1.686577,2.8461 -1.791989,4.532678 h 10.857344 v -0.421645 c -0.10541,-1.8974 -0.63247,-3.373155 -1.47576,-4.321855 -1.05411,-0.843289 -2.42445,-1.475755 -3.794795,-1.370344 z m 20.449755,-4.111033 0.21082,2.951511 c 1.79199,-2.213634 4.53268,-3.478567 7.37878,-3.373156 5.27055,0 7.90583,3.056922 8.01124,9.065355 v 16.654954 h -5.6922 V 34.842164 c 0,-1.581166 -0.31623,-2.740688 -1.05411,-3.583977 -0.73788,-0.737878 -1.79199,-1.159522 -3.37315,-1.159522 -2.21364,-0.105411 -4.21645,1.159522 -5.16515,3.056922 v 17.919887 h -5.6922 V 25.77681 Z m 33.94237,18.446943 c 0,-0.9487 -0.42164,-1.791989 -1.26493,-2.319045 -1.26493,-0.737877 -2.74069,-1.159522 -4.11103,-1.370344 -1.68658,-0.316233 -3.26775,-0.843289 -4.84891,-1.581166 -2.8461,-1.370345 -4.21645,-3.373156 -4.21645,-5.903022 0,-2.108222 1.05411,-4.216444 2.74069,-5.481378 1.79199,-1.475755 4.21645,-2.213633 6.95713,-2.213633 3.05693,0 5.48138,0.737878 7.27337,2.213633 1.79199,1.370345 2.8461,3.583978 2.74069,5.797611 h -5.6922 c 0,-1.054111 -0.42164,-2.002811 -1.26493,-2.740689 -0.9487,-0.737877 -2.00281,-1.159522 -3.26775,-1.054111 -1.05411,0 -2.10822,0.210823 -3.05692,0.843289 -0.73788,0.527056 -1.15952,1.370345 -1.15952,2.319044 0,0.843289 0.42164,1.581167 1.05411,2.002811 0.73788,0.527056 2.21363,0.9487 4.42727,1.475756 1.79198,0.316233 3.58397,0.9487 5.27055,1.791989 1.15952,0.527055 2.10822,1.370344 2.8461,2.424455 0.63247,1.054111 0.9487,2.213633 0.9487,3.478566 0,2.213634 -1.05411,4.216445 -2.8461,5.481378 -1.8974,1.370344 -4.32185,2.108222 -7.37878,2.108222 -1.8974,0 -3.7948,-0.316233 -5.48137,-1.159522 -1.47576,-0.632467 -2.8461,-1.686578 -3.7948,-3.056922 -0.84329,-1.264934 -1.37035,-2.740689 -1.37035,-4.216444 h 5.48138 c 0,1.159522 0.52705,2.319044 1.47575,3.056922 1.05412,0.737877 2.42446,1.159522 3.68939,1.054111 1.47576,0 2.63528,-0.316234 3.37316,-0.843289 1.05411,-0.421645 1.47575,-1.264933 1.47575,-2.108222 z m 8.5383,-6.008433 c 0,-2.319044 0.42165,-4.638089 1.47576,-6.6409 0.9487,-1.8974 2.31904,-3.478566 4.11103,-4.532677 1.8974,-1.054111 4.00562,-1.686578 6.11385,-1.581167 3.37315,0 6.21925,1.054111 8.32747,3.267745 2.10823,2.213633 3.26775,5.059733 3.47857,8.749121 v 1.370344 c 0,2.319045 -0.42164,4.532678 -1.47576,6.6409 -0.84328,1.8974 -2.31904,3.478566 -4.11103,4.532677 -1.8974,1.054111 -4.00562,1.686578 -6.21925,1.581167 -3.58398,0 -6.43008,-1.159522 -8.5383,-3.583978 -2.10823,-2.319044 -3.16234,-5.481377 -3.26775,-9.486999 z m 5.58679,0.527055 c 0,2.635278 0.52706,4.638089 1.58117,6.113844 1.8974,2.424456 5.37596,2.951511 7.90583,1.054111 0.42165,-0.316233 0.73788,-0.632466 1.05411,-1.054111 1.05411,-1.475755 1.58117,-3.689388 1.58117,-6.535488 0,-2.529867 -0.52706,-4.532677 -1.68658,-6.113844 -1.79199,-2.424455 -5.27055,-2.951511 -7.80042,-1.159522 -0.42164,0.316233 -0.84329,0.737878 -1.15952,1.054111 -0.84329,1.475755 -1.47576,3.689388 -1.47576,6.640899 z m 34.89108,-7.69501 c -0.73788,-0.105411 -1.58117,-0.210822 -2.31905,-0.210822 -2.63527,0 -4.32185,0.9487 -5.27055,2.951511 v 17.28742 h -5.6922 V 25.882221 h 5.37596 l 0.10542,2.846099 c 1.37034,-2.213633 3.26774,-3.267744 5.6922,-3.267744 0.63246,0 1.37034,0.105411 2.00281,0.316234 z m 23.7175,5.586788 h -13.70345 v 14.441321 h -5.90302 V 17.23851 h 21.60928 v 4.7435 h -15.70626 v 10.119466 h 13.70345 z m 11.27898,14.441321 h -5.6922 V 17.133099 h 5.6922 z m 4.11104,-12.860154 c 0,-2.319044 0.42164,-4.638089 1.47575,-6.6409 0.9487,-1.8974 2.31905,-3.478566 4.11104,-4.532677 1.89739,-1.054111 4.00562,-1.686578 6.11384,-1.581167 3.37315,0 6.21925,1.054111 8.32748,3.267745 2.10822,2.213633 3.26774,5.059733 3.47856,8.749121 v 1.370344 c 0,2.319045 -0.42164,4.532678 -1.37034,6.6409 -0.84329,1.8974 -2.31905,3.478566 -4.11103,4.532677 -1.8974,1.054111 -4.00563,1.686578 -6.21926,1.581167 -3.58398,0 -6.43008,-1.159522 -8.5383,-3.583978 -2.10822,-2.319044 -3.26774,-5.481377 -3.26774,-9.486999 z m 5.6922,0.527055 c 0,2.635278 0.52705,4.638089 1.58116,6.113844 1.05411,1.475756 2.74069,2.319045 4.53268,2.213634 1.79199,0.105411 3.47857,-0.737878 4.42727,-2.213634 1.05411,-1.475755 1.58116,-3.689388 1.58116,-6.535488 0,-2.529867 -0.52705,-4.532677 -1.68657,-6.113844 -1.79199,-2.424455 -5.27056,-2.951511 -7.80043,-1.159522 -0.42164,0.316233 -0.84329,0.737878 -1.15952,1.054111 -0.9487,1.475755 -1.47575,3.689388 -1.47575,6.640899 z m 43.42937,4.532678 4.00562,-17.392832 H 300.5 l -6.85172,25.298665 h -4.63809 l -5.37597,-17.392832 -5.37596,17.392832 h -4.63809 l -6.95713,-25.298665 h 5.58678 l 4.11104,17.287421 5.16514,-17.287421 h 4.32186 z" id="path8" />
  </g>
</svg>
