<?xml version="1.0" encoding="UTF-8" standalone="no"?>
<svg viewBox="0 0 32 31.999999" version="1.1" id="svg9" sodipodi:docname="ee266ef1.svg" width="32" height="32" inkscape:version="1.4-beta2 (9aaf4f34, 2024-07-30)" xmlns:inkscape="http://www.inkscape.org/namespaces/inkscape" xmlns:sodipodi="http://sodipodi.sourceforge.net/DTD/sodipodi-0.dtd" xmlns="http://www.w3.org/2000/svg" xmlns:svg="http://www.w3.org/2000/svg">
  <defs id="defs9" />
  <sodipodi:namedview id="namedview9" pagecolor="#ffffff" bordercolor="#000000" borderopacity="0.25" inkscape:showpageshadow="2" inkscape:pageopacity="0.0" inkscape:pagecheckerboard="0" inkscape:deskcolor="#d1d1d1" inkscape:zoom="7.4699409" inkscape:cx="15.796644" inkscape:cy="21.084504" inkscape:window-width="1440" inkscape:window-height="790" inkscape:window-x="0" inkscape:window-y="0" inkscape:window-maximized="1" inkscape:current-layer="svg9" />
  <g id="g9" style="fill:#000000" transform="matrix(0.02537734,0,0,0.02537734,-7.9062771e-4,3.3124512)">
    <path d="m 463.3,991.8 c 68.1,-8.4 142.9,-23.1 218.4,-42.1 -15.2,-19.3 -29.7,-37.7 -43.4,-55.5 -57.6,34 -117.1,66.9 -175,97.6 z" fill="#ff6200" id="path1" style="fill:#000000" />
    <path d="M 560.2,791.2 C 422.7,813 262.4,830.7 103.9,843 c 31.2,66.3 66.6,116.8 115.2,137.8 51.9,22.4 140.3,23.9 244.1,11.1 58,-30.7 117.4,-63.6 175,-97.6 -28.9,-37.5 -54.8,-71.6 -78,-103.1 z" fill="#ff8000" id="path2" style="fill:#000000" />
    <path d="m 580.9,10 c 0.1,0 0.1,0 0,0 -239,23 -476.4,83.9 -537.6,168.9 -74.5,103.4 -47,402.1 38.3,612.7 7.3,17.9 14.7,35.1 22.3,51.3 158.5,-12.3 318.9,-30 456.4,-51.8 C 437.2,624.1 388.8,532.3 346.9,431.3 281.3,273.3 211.5,57 580.9,10 Z" fill="#b3fa1b" id="path3" style="fill:#000000" />
    <path d="m 1196,178.3 c -1.2,-2.8 -2.5,-5.6 -3.8,-8.3 -19.9,-47.4 -50.1,-98.6 -90.2,-120.5 -17.9,-9.8 -40.6,-18 -67,-24.8 8.7,53.5 15.4,103.5 20.1,150.3 44,0.2 90.9,1.3 140.9,3.3 z" fill="#bf0474" id="path4" style="fill:#000000" />
    <path d="m 904.9,162.1 c 2.7,4.7 5.4,9.5 8.1,14.4 43.5,-1.5 90.8,-2.1 142.2,-1.7 -4.7,-46.7 -11.4,-96.7 -20.1,-150.3 C 973.1,8.7 890.3,0.8 798.8,0 c 36,49.6 72.9,104.7 106.1,162.1 z" fill="#8529fe" id="path5" style="fill:#000000" />
    <path d="m 587.5,214.6 c 73.9,-18.1 178.2,-33 325.4,-38.1 -2.7,-4.9 -5.4,-9.7 -8.1,-14.4 C 871.7,104.7 834.8,49.6 798.8,0 729.5,-0.6 655.2,2.9 581,10 h -0.1 C 211.5,57 281.3,273.3 346.8,431.4 c 41.9,101.1 90.3,192.8 213.4,359.8 h 0.1 C 431.7,613.1 305.3,283.9 587.5,214.6 Z" fill="#84d600" id="path6" style="fill:#000000" />
    <path d="m 959.5,659.5 c -0.2,0.2 -0.3,0.3 -0.4,0.5 -71.2,75.5 -191.4,157.8 -320.8,234.3 13.7,17.6 27.2,34.8 43.4,55.5 246.4,-62.1 500.3,-170.6 554.2,-261.4 44.3,-74.5 29.3,-355.1 -39.8,-510 -50.1,-2 -97,-3.1 -140.9,-3.4 24,238.4 -5.2,390.6 -95.7,484.5 z" fill="#e22b1a" id="path7" style="fill:#000000" />
    <path d="M 638.3,894.2 C 767.6,817.8 887.9,735.4 959,659.9 c 0.2,-0.2 0.3,-0.3 0.4,-0.5 -11.2,11.7 -23.4,22.4 -36.6,32.3 -49.9,37.6 -187.7,71.7 -362.5,99.4 1.6,2.2 3.2,4.4 4.8,6.5" fill="#c20419" id="path8" style="fill:#000000" />
    <path d="m 959.5,659.5 c 90.6,-93.9 119.7,-246.1 95.7,-484.6 -51.4,-0.4 -98.7,0.2 -142.2,1.7 78.5,143.6 144.8,377.6 46.5,482.9 z" fill="#b820ff" id="path9" style="fill:#000000" />
  </g>
</svg>
