<svg width="32" height="32" xmlns="http://www.w3.org/2000/svg">
  <g>
    <path d="M463.3 991.8c68.1-8.4 142.9-23.1 218.4-42.1-15.2-19.3-29.7-37.7-43.4-55.5-57.6 34-117.1 66.9-175 97.6z" fill="#000" transform="translate(0 3.312) scale(.02538)"/>
    <path d="M560.2 791.2C422.7 813 262.4 830.7 103.9 843c31.2 66.3 66.6 116.8 115.2 137.8 51.9 22.4 140.3 23.9 244.1 11.1 58-30.7 117.4-63.6 175-97.6-28.9-37.5-54.8-71.6-78-103.1z" fill="#000" transform="translate(0 3.312) scale(.02538)"/>
    <path d="M580.9 10c.1 0 .1 0 0 0-239 23-476.4 83.9-537.6 168.9-74.5 103.4-47 402.1 38.3 612.7 7.3 17.9 14.7 35.1 22.3 51.3 158.5-12.3 318.9-30 456.4-51.8-123.1-167-171.5-258.8-213.4-359.8C281.3 273.3 211.5 57 580.9 10Z" fill="#000" transform="translate(0 3.312) scale(.02538)"/>
    <path d="M1196 178.3c-1.2-2.8-2.5-5.6-3.8-8.3-19.9-47.4-50.1-98.6-90.2-120.5-17.9-9.8-40.6-18-67-24.8 8.7 53.5 15.4 103.5 20.1 150.3 44 .2 90.9 1.3 140.9 3.3z" fill="#000" transform="translate(0 3.312) scale(.02538)"/>
    <path d="M904.9 162.1c2.7 4.7 5.4 9.5 8.1 14.4 43.5-1.5 90.8-2.1 142.2-1.7-4.7-46.7-11.4-96.7-20.1-150.3C973.1 8.7 890.3.8 798.8 0c36 49.6 72.9 104.7 106.1 162.1z" fill="#000" transform="translate(0 3.312) scale(.02538)"/>
    <path d="M587.5 214.6c73.9-18.1 178.2-33 325.4-38.1-2.7-4.9-5.4-9.7-8.1-14.4-33.1-57.4-70-112.5-106-162.1C729.5-.6 655.2 2.9 581 10h-.1C211.5 57 281.3 273.3 346.8 431.4c41.9 101.1 90.3 192.8 213.4 359.8h.1c-128.6-178.1-255-507.3 27.2-576.6Z" fill="#000" transform="translate(0 3.312) scale(.02538)"/>
    <path d="M959.5 659.5c-.2.2-.3.3-.4.5-71.2 75.5-191.4 157.8-320.8 234.3 13.7 17.6 27.2 34.8 43.4 55.5 246.4-62.1 500.3-170.6 554.2-261.4 44.3-74.5 29.3-355.1-39.8-510-50.1-2-97-3.1-140.9-3.4 24 238.4-5.2 390.6-95.7 484.5z" fill="#000" transform="translate(0 3.312) scale(.02538)"/>
    <path d="M638.3 894.2C767.6 817.8 887.9 735.4 959 659.9c.2-.2.3-.3.4-.5-11.2 11.7-23.4 22.4-36.6 32.3-49.9 37.6-187.7 71.7-362.5 99.4 1.6 2.2 3.2 4.4 4.8 6.5" fill="#000" transform="translate(0 3.312) scale(.02538)"/>
    <path d="M959.5 659.5c90.6-93.9 119.7-246.1 95.7-484.6-51.4-.4-98.7.2-142.2 1.7 78.5 143.6 144.8 377.6 46.5 482.9z" fill="#000" transform="translate(0 3.312) scale(.02538)"/>
  </g>
</svg>