<svg id="Camada_1" data-name="Camada 1" xmlns="http://www.w3.org/2000/svg" viewBox="0 0 300 120"><defs><style>.cls-1{fill:#fff;}</style></defs><title>the-guardian</title><g id="_ffffffff" data-name="#ffffffff"><path class="cls-1" d="M32.23,33.76h.55c0,5.24,0,10.47,0,15.7a15.48,15.48,0,0,1,11.53-3.75c2.54.19,5.06,1.93,5.24,4.64.41,6.43-.08,12.89.22,19.32.82.84,2.08,1.13,3.06,1.76,0,.6,0,1.78,0,2.37-5,0-10.09,0-15.13,0,0-.64,0-1.93,0-2.57.94-.38,1.87-.74,2.81-1.1-.1-5.8.19-11.62-.13-17.42-1.72-2.42-5-1.44-7.45-.92q0,9.12,0,18.24l3.07,1.24c0,.64,0,1.9,0,2.54-5,0-10.09-.06-15.13,0,0-.65,0-2,0-2.59,1-.38,2-.73,3-1.1q0-15.37,0-30.76L20.41,38c0-.78,0-1.57,0-2.35C24.38,35,28.32,34.48,32.23,33.76Z"/><path class="cls-1" d="M207.44,36.24c4.06-.59,8.1-1.28,12.12-2,0,11.66.08,23.32,0,35,1,.54,1.95,1,2.93,1.56,0,.75-.05,1.52-.08,2.28-3.93.44-7.86,1-11.77,1.52l.12-2.61c-3,2.12-6.89,3.39-10.44,2.05A10.53,10.53,0,0,1,193,66.12a22.22,22.22,0,0,1,1-13.76c2.77-6,10.63-8.21,16.46-5.6,0-2.23,0-4.46,0-6.68-1-.46-2-.91-3-1.33l0-2.51m-1.84,13.4c-2.85,1.93-3.22,5.71-3.47,8.86-.13,3.4-.4,7.56,2.44,10,1.6,1.53,4,1.1,5.93.6q-.08-9.41,0-18.8A6,6,0,0,0,205.6,49.64Z"/><path class="cls-1" d="M228.24,34.62c3.44-2.59,8.71,1.13,7.76,5.2-.65,3.68-5.9,5.76-8.46,2.63C225,40.4,225.66,36.33,228.24,34.62Z"/><path class="cls-1" d="M4.23,41.21c3-.47,6.09-1,9.13-1.5,0,2.24,0,4.48,0,6.72l6.25,0V51l-6-.07c.1,5.48-.11,11,.15,16.43.52,3.1,4.21,2.13,6.4,2.18-.27,1.25,0,2.69-.8,3.77a26.36,26.36,0,0,1-8.87,1.26c-3.56-.11-6.24-3.49-6.14-6.94,0-5.59,0-11.18,0-16.76L0,50.87v-4c1.4-.18,2.81-.35,4.21-.54C4.22,44.63,4.24,42.92,4.23,41.21Z"/><path class="cls-1" d="M62.07,46.39c4.11-1.09,8.87-1.14,12.56,1.22,4.12,3,4.43,8.56,4.29,13.2-5.56,0-11.14.09-16.7-.09.31,2.61,1.16,5.55,3.61,6.92,3.69,2.06,8.13,1.18,12,.17l0,2.77a14.81,14.81,0,0,1-11.06,4c-4.2-.22-8.83-1.29-11.43-4.89a18.37,18.37,0,0,1-1-16.8,11,11,0,0,1,7.7-6.5m1.6,3.3c-1.28,2.4-1.25,5.19-1.51,7.83,2.59-.11,5.19-.2,7.79-.23a30.55,30.55,0,0,0-.81-7.45A3.76,3.76,0,0,0,63.67,49.69Z"/><path class="cls-1" d="M91.64,45.91c3.43-1.1,6.93,0,10.24.9,2.66-.08,5.22-.9,7.82-1.37a46.88,46.88,0,0,0,0,5.56c-1.63-.59-3.28-1.15-5-1.58,1.83,2.08,3.29,4.82,2.52,7.67a7.69,7.69,0,0,1-4.6,5.85,15.25,15.25,0,0,1-12.12.9c-1.29,1-1.68,3.48.24,4,4.45.17,8.9-.05,13.36.07a7.37,7.37,0,0,1,5.28,2.83,10.57,10.57,0,0,1-.3,10.61c-2.33,3.14-6.38,4.59-10.17,4.85-5.38.13-11.27.53-16-2.59-1.87-1-3-3.49-1.77-5.38,1.15-2.25,3.76-2.94,6-3.69-1.35-.95-3.39-1.41-3.73-3.26-1.26-3.55,2-6.31,4.52-8.23a8.59,8.59,0,0,1-4.62-9.07c.13-4.39,4.32-7.31,8.29-8m.9,4.39c-.85,3.1-.52,6.42-.15,9.58,1.61,1.35,4.34,1.83,5.65-.19a19.24,19.24,0,0,0-.12-10c-1.63-1.07-4.35-1.41-5.38.63M89.41,76.09c-.73,1.4-1.7,3.09-.55,4.57,2,2.64,5.74,2.57,8.71,2.26,2.25-.27,5-1.62,5.14-4.18a2.3,2.3,0,0,0-2.31-2.6C96.73,76.07,93.07,76.17,89.41,76.09Z"/><path class="cls-1" d="M110.8,47.4c4.11-.57,8.25-1,12.32-1.81,0,7-.1,14,.06,21.08,1.25,2.87,4.78,2.44,7.2,1.49,0-5.46.08-10.92,0-16.37-.76-1-2.13-1.25-3.1-2a21.23,21.23,0,0,1-.14-2.25c4.14-.67,8.31-1.08,12.44-1.83,0,7.81,0,15.61,0,23.42,1,.58,2,1.16,3,1.71,0,.55.1,1.63.13,2.17-4,.44-8.06,1-12.07,1.54,0-1.41.05-2.82.11-4.23a11.43,11.43,0,0,1-11.92,3.82c-3.37-1.08-5-4.78-5-8.09,0-4.51,0-9,0-13.54.25-1.69-1.94-1.76-2.94-2.5C110.84,49.15,110.81,48.28,110.8,47.4Z"/><path class="cls-1" d="M145.18,47.41c5.2-1.21,10.65-2.91,16-1.24,3.11.66,6.59,2.89,6.54,6.43.1,5.72,0,11.45,0,17.18,1.69.66,3.62,1.53,2.92,3.73-3.86,1.64-9.89,1.7-11.43-3.09-.8,2.68-3.71,3.68-6.23,4a9.84,9.84,0,0,1-7.83-2c-3.17-3.66-2.27-10.6,2.7-12.2,3.55-.68,7.1-1.38,10.66-2-.22-2.56.7-5.55-1-7.75-1.19-1.79-3.63-.89-5.41-1.13-.71,1.86-1.45,3.69-2.14,5.55l-4.85,0c0-2.49,0-5,.1-7.46m7.72,15.51c-.38,2.09-.92,5.15,1.41,6.31,1.44.87,3.05,0,4.4-.57,0-2.61,0-5.21-.05-7.82A9.66,9.66,0,0,0,152.9,62.92Z"/><path class="cls-1" d="M171.46,47.19c4-.55,8-1,12-1.89,0,2-.12,3.93-.1,5.91,1.84-3.18,4.87-6.06,8.86-5.59,0,2.74.07,5.5,0,8.25-2.69-.27-6.08-.73-8.3.92-.41,4.9-.18,9.89-.16,14.81.88,1.05,2.48,1.08,3.67,1.68v2.35H171.67v-2.4l2.83-1.42c0-6.15,0-12.31,0-18.46-1.06-.59-2.13-1.13-3.2-1.7C171.36,48.83,171.38,48,171.46,47.19Z"/><path class="cls-1" d="M223.28,47.16c4.21-.43,8.42-1,12.59-1.75,0,7.9-.05,15.8,0,23.71-.16,1.55,1.95,1.46,2.86,2.19,0,.61,0,1.81,0,2.42-5,0-10.06,0-15.09,0,0-.63,0-1.88,0-2.51,1-.49,2-.88,3-1.36,0-6.18,0-12.34,0-18.51-1.12-.6-2.23-1.21-3.34-1.83C223.26,48.92,223.27,47.75,223.28,47.16Z"/><path class="cls-1" d="M241.69,47.4c5.35-1.37,11.05-3,16.5-1.08,3.21.68,6.16,3.43,6,6.9q0,8.27,0,16.55c1,.51,2,1,3,1.51,0,.54-.07,1.62-.1,2.16-3.75,1.62-10.06,1.88-11.22-3.09-2.26,4.53-8.63,5-12.76,3-5-2.65-4.52-11,.75-13.08,3.61-.87,7.29-1.44,10.93-2.16-.12-2.85.74-6.18-1.47-8.46-1.55-.69-3.31-.32-4.94-.37a40.84,40.84,0,0,1-2,5.54c-1.58,0-3.15,0-4.73,0,0-2.46,0-4.94.08-7.41M248.83,66c-.12,3.22,4.42,4.91,6.22,2.22.15-2.45,0-4.91,0-7.37C252.13,60.72,248.27,62.46,248.83,66Z"/><path class="cls-1" d="M267.49,47.35c4.16-.63,8.34-1.11,12.47-2l-.07,4a15.08,15.08,0,0,1,11.92-3.55,6.39,6.39,0,0,1,5.3,6.55c.06,5.9,0,11.79,0,17.68,1,.35,1.92.69,2.87,1.07v2.55H284.61c-.47-2.31,1.64-3,3.2-3.94.19-4.77,0-9.55.08-14.32-.08-1.15.16-2.61-.93-3.38-2-1.56-4.56-.74-6.78-.37,0,6.08,0,12.15,0,18.22L283,71.18c0,.66-.05,2-.06,2.62-4.95,0-9.89,0-14.83,0,0-.69,0-2.08,0-2.78,1-.35,2-.67,2.94-1,0-6.22,0-12.44,0-18.66C269.21,50.61,267.31,49.68,267.49,47.35Z"/></g></svg>