<?xml version="1.0" encoding="UTF-8" standalone="no"?>
<!-- Created with Vectornator (http://vectornator.io/) -->

<svg height="80" stroke-miterlimit="10" style="clip-rule:evenodd;fill-rule:nonzero;stroke-linecap:round;stroke-linejoin:round" version="1.1" viewBox="0 0 80.000002 80" width="80" xml:space="preserve" id="svg1" xmlns="http://www.w3.org/2000/svg" xmlns:svg="http://www.w3.org/2000/svg">
<defs id="defs1" />
<g id="Sem-Título" style="fill:#000000" transform="translate(5.58665)">
<path d="M 53.5571,37.0785 C 53.2125,36.9133 52.8625,36.7543 52.5079,36.6021 51.8904,25.2242 45.6733,18.7104 35.2341,18.6438 c -0.0473,-3e-4 -0.0943,-3e-4 -0.1416,-3e-4 -6.244,0 -11.437,2.6652 -14.6333,7.5151 l 5.7412,3.9384 c 2.3878,-3.6227 6.1351,-4.395 8.8949,-4.395 0.0318,0 0.0638,0 0.0954,3e-4 3.4372,0.0219 6.031,1.0213 7.7097,2.9702 1.2217,1.4189 2.0388,3.3796 2.4434,5.8541 -3.0476,-0.518 -6.3434,-0.6772 -9.8667,-0.4752 -9.9251,0.5717 -16.3058,6.3602 -15.8773,14.4036 0.2175,4.08 2.2501,7.59 5.7231,9.8829 2.9364,1.9384 6.7183,2.8863 10.6489,2.6717 5.1907,-0.2846 9.2628,-2.265 12.1036,-5.8863 2.1575,-2.75 3.5221,-6.3137 4.1246,-10.8041 2.4737,1.4929 4.3071,3.4575 5.3196,5.8191 1.7216,4.0146 1.8221,10.6117 -3.5609,15.99 -4.7162,4.7117 -10.3854,6.75 -18.9531,6.8129 C 25.5017,72.8708 18.3141,69.8229 13.6409,63.8821 9.26479,58.3192 7.00321,50.2842 6.91883,40 7.00321,29.7157 9.26479,21.6807 13.6409,16.1178 18.3141,10.177 25.5016,7.12917 35.0055,7.05854 c 9.5728,0.07117 16.8857,3.13366 21.7378,9.10316 2.3792,2.9273 4.173,6.6086 5.3554,10.9009 l 6.728,-1.795 C 67.3933,19.9842 65.1379,15.4315 62.0687,11.6558 55.8483,4.00278 46.7508,0.0813117 35.029,0 H 34.982 C 23.284,0.0810292 14.2884,4.01742 8.24512,11.6997 2.86746,18.536 0.0935,28.0482 2.91667e-4,39.9719 L 0,40 2.91667e-4,40.0281 C 0.0935,51.9517 2.86746,61.4642 8.24512,68.3004 14.2884,75.9825 23.284,79.9192 34.982,80 h 0.047 C 45.4292,79.9279 52.76,77.205 58.7992,71.1713 66.7004,63.2775 66.4625,53.3829 63.8583,47.3087 61.99,42.9529 58.4279,39.4151 53.5571,37.0785 Z M 35.6002,53.9612 c -4.35,0.245 -8.8692,-1.7074 -9.092,-5.8895 -0.1652,-3.1009 2.2067,-6.5609 9.359,-6.973 0.819,-0.0473 1.6228,-0.0704 2.4124,-0.0704 2.5979,0 5.0283,0.2524 7.2379,0.7354 -0.8242,10.2925 -5.6583,11.9638 -9.9173,12.1975 z" fill="#000000" fill-rule="nonzero" opacity="1" stroke="none" id="path1" style="fill:#000000" />
</g>
</svg>
