<?xml version="1.0" encoding="UTF-8"?><svg id="a" xmlns="http://www.w3.org/2000/svg" viewBox="0 0 300 120"><defs><style>.b{fill-rule:evenodd;}</style></defs><path class="b" d="m211.61,109.24h5.43v-1.91h-1.91v-1.71l-1.71-.12v-1.78h-1.81v-1.71h-1.81v-1.81h-1.81v-1.72h-1.71v-1.81h-1.81v-1.81h-1.81v19.72h1.81v-1.71l1.81.02v-.68l.03-.77-.03-.38h1.81v1.81h1.72v3.52h1.81v3.15c0,.26.04.26.1.47h3.42v-3.53h-1.71v-2.38l-.11-1.24h-1.7v-3.62h0Z"/><path d="m107.88,10.65h-4.76l.99-4.91c.03-.17.01-.31-.06-.44-.07-.13-.22-.24-.43-.34-.21-.09-.52-.15-.91-.2s-.89-.06-1.48-.06-1.11.02-1.51.06c-.4.04-.73.11-.99.2-.25.09-.44.2-.56.34-.12.13-.2.28-.23.44l-.99,4.91h-2.64c-.3,0-.55.15-.76.47-.21.31-.39.69-.52,1.12-.13.44-.22.88-.28,1.33-.06.45-.09.82-.09,1.1,0,.39.05.66.15.8.1.14.26.21.47.21h2.66l-2.15,10.72c-.05.21-.1.45-.14.73-.04.27-.08.54-.12.8s-.07.52-.09.75c-.02.24-.03.45-.03.63,0,.99.13,1.82.38,2.51.25.69.64,1.26,1.14,1.7.51.44,1.14.77,1.88.97s1.61.31,2.6.31c.46,0,.92-.03,1.38-.09.46-.06.89-.14,1.29-.23.4-.1.75-.21,1.05-.35.3-.13.52-.27.67-.42.15-.15.29-.37.42-.68.13-.3.25-.64.36-1.01.11-.37.19-.75.26-1.14.06-.4.1-.75.1-1.06,0-.28-.04-.48-.14-.6-.09-.12-.2-.18-.33-.18s-.27.03-.42.09c-.15.06-.32.12-.53.2-.2.07-.45.14-.73.2s-.62.09-1.01.09c-.67,0-1.17-.15-1.48-.46-.31-.3-.47-.79-.47-1.44,0-.21.02-.49.06-.83.04-.34.09-.63.14-.88l2.07-10.32h4.81c.18,0,.35-.08.51-.23.15-.15.3-.35.42-.59.12-.24.23-.5.33-.8.1-.3.18-.59.23-.89.06-.3.1-.57.13-.83.04-.26.05-.46.05-.63,0-.35-.05-.61-.15-.79-.1-.18-.28-.27-.56-.27"/><path d="m121.07,1.58c-.22-.26-.55-.45-.99-.57s-1-.17-1.69-.17-1.3.06-1.77.17-.88.3-1.2.57c-.33.26-.59.6-.79,1.01-.2.41-.36.91-.47,1.5-.13.61-.18,1.12-.15,1.54.03.42.16.76.38,1.01.22.25.55.44.99.54.44.11,1,.16,1.69.16s1.3-.05,1.77-.16.88-.29,1.21-.54c.32-.26.59-.59.79-1.01.2-.42.35-.93.47-1.54.12-.59.16-1.09.14-1.5-.03-.41-.15-.75-.37-1.01"/><path d="m118.83,10.79c-.22-.09-.53-.16-.91-.21-.39-.05-.88-.07-1.49-.07s-1.11.02-1.52.07c-.4.05-.73.12-.99.21-.26.09-.44.2-.57.32-.12.12-.2.27-.23.43l-4.36,21.94c-.03.17-.02.31.05.43.07.12.21.23.43.31.22.08.53.14.91.18.38.04.88.06,1.49.06s1.09-.02,1.51-.06c.41-.04.74-.1,1-.18.26-.08.44-.18.57-.31.12-.12.2-.27.23-.43l4.36-21.94c.03-.17.02-.31-.05-.43-.06-.12-.21-.23-.43-.32"/><path d="m140.85,11.9c-.19-.19-.5-.4-.9-.63-.4-.23-.86-.43-1.39-.6-.53-.17-1.1-.31-1.73-.41-.62-.1-1.27-.15-1.92-.15-1.69,0-3.19.26-4.49.79-1.3.52-2.44,1.22-3.43,2.09-.99.87-1.82,1.87-2.5,3.01-.68,1.13-1.24,2.3-1.67,3.51s-.73,2.41-.92,3.61c-.19,1.2-.28,2.3-.28,3.3,0,2.78.7,4.88,2.09,6.3,1.4,1.42,3.5,2.13,6.31,2.13.79,0,1.55-.07,2.28-.2.73-.13,1.41-.3,2.03-.52.62-.21,1.18-.46,1.65-.73.48-.27.83-.51,1.05-.73.22-.21.4-.51.54-.87.14-.37.26-.77.37-1.2.11-.43.19-.85.26-1.27.07-.42.1-.77.1-1.05s-.04-.49-.11-.64c-.07-.15-.19-.22-.36-.22-.28,0-.59.12-.92.35s-.74.49-1.21.77c-.47.29-1.03.55-1.69.79s-1.44.36-2.37.36c-1.25,0-2.16-.35-2.75-1.04s-.87-1.7-.87-3.03c0-.53.05-1.14.14-1.86s.24-1.46.46-2.24c.21-.78.48-1.55.81-2.32.33-.77.75-1.45,1.24-2.05.5-.6,1.09-1.09,1.76-1.46.67-.38,1.44-.57,2.29-.57.8,0,1.46.1,1.98.31.51.21.93.43,1.27.68s.62.47.85.67c.23.2.47.3.71.3.27,0,.51-.14.73-.43.22-.29.41-.64.55-1.07.15-.43.27-.88.36-1.35.09-.48.13-.91.13-1.28,0-.21-.03-.39-.09-.54-.05-.14-.18-.31-.38-.5"/><path d="m165.64,12.32c.22-.35.33-.66.33-.92,0-.15-.05-.28-.13-.39-.09-.12-.25-.21-.48-.28-.23-.07-.55-.13-.96-.16-.41-.03-.92-.05-1.53-.05s-1.14.02-1.57.05c-.42.03-.78.09-1.07.17-.29.08-.54.19-.73.33-.19.14-.37.31-.53.5l-8.23,8.8,3.84-19.3c.03-.17.02-.31-.05-.44-.07-.13-.21-.24-.42-.33-.21-.09-.51-.16-.9-.21-.39-.05-.88-.07-1.49-.07s-1.11.03-1.52.07c-.4.05-.73.12-1,.21-.26.09-.45.2-.56.33-.12.13-.19.28-.22.44l-6.51,32.44c-.03.17-.01.31.06.43.07.12.22.22.43.3.21.07.51.13.9.17.39.04.88.06,1.49.06s1.09-.02,1.5-.06c.41-.04.74-.1,1-.18.25-.08.44-.18.56-.31.12-.12.21-.27.26-.43l2.32-11.63,5.2,11.59c.05.2.13.36.23.49.11.13.27.24.49.32.22.08.54.14.94.18.4.03.93.05,1.59.05s1.2-.02,1.64-.06c.44-.04.78-.11,1.03-.21.25-.1.44-.22.54-.37.11-.15.16-.32.16-.52,0-.17-.03-.4-.1-.69-.07-.29-.18-.64-.35-1.04l-5.05-10.6,7.77-7.32c.52-.54.88-.99,1.1-1.34"/><path d="m185.6,12.02c-.69-.58-1.57-1.05-2.65-1.41-1.08-.35-2.36-.53-3.86-.53-1.73,0-3.26.26-4.61.77-1.35.51-2.53,1.19-3.56,2.03-1.03.85-1.9,1.83-2.63,2.95-.72,1.12-1.32,2.29-1.77,3.51-.46,1.22-.79,2.47-1,3.72-.21,1.26-.31,2.43-.31,3.54,0,1.43.2,2.67.59,3.71.39,1.04.99,1.9,1.77,2.58.79.67,1.77,1.18,2.94,1.51,1.18.33,2.55.49,4.13.49.95,0,1.89-.05,2.81-.16.92-.11,1.75-.24,2.49-.41.74-.16,1.37-.34,1.9-.54.52-.2.89-.39,1.08-.59.18-.17.34-.4.48-.71.14-.31.26-.64.35-1,.09-.35.16-.71.21-1.07.05-.36.07-.68.07-.96,0-.24-.04-.43-.12-.54-.08-.12-.22-.17-.42-.17s-.51.08-.94.23-.97.33-1.61.52c-.65.19-1.41.36-2.27.52-.86.16-1.83.23-2.92.23-1.53,0-2.64-.34-3.33-1.01-.69-.67-1.04-1.68-1.04-3.01,0-.31.02-.65.05-1.02.03-.37.08-.74.15-1.12h2.27c2.4,0,4.47-.18,6.2-.54,1.73-.36,3.16-.88,4.29-1.57,1.12-.68,1.95-1.5,2.49-2.44s.8-2.01.8-3.19c0-.79-.17-1.56-.51-2.31-.34-.75-.85-1.41-1.54-2m-4.41,6.06c-.25.4-.64.75-1.18,1.05-.54.3-1.26.53-2.15.7-.89.17-1.99.26-3.3.26h-2.07c.21-.77.5-1.5.85-2.18.36-.68.78-1.27,1.27-1.77.49-.5,1.06-.9,1.71-1.19.65-.3,1.38-.44,2.2-.44.99,0,1.74.22,2.26.65.52.44.78.98.78,1.64,0,.46-.13.89-.37,1.29"/><path d="m206.43,12.34c.03-.26.05-.46.05-.63,0-.35-.05-.61-.15-.79-.1-.18-.29-.27-.57-.27h-4.76l.99-4.91c.03-.17.01-.31-.06-.44-.07-.13-.22-.24-.43-.34-.21-.09-.52-.15-.91-.2s-.89-.06-1.48-.06-1.11.02-1.52.06c-.4.04-.73.11-.99.2-.26.09-.45.2-.57.34-.12.13-.2.28-.23.44l-.99,4.91h-2.64c-.3,0-.55.15-.77.47-.21.31-.39.69-.52,1.12-.13.43-.23.88-.28,1.33-.06.45-.09.82-.09,1.1,0,.39.05.66.15.8.1.14.26.21.47.21h2.66l-2.15,10.72c-.05.21-.1.46-.14.73s-.08.54-.12.8c-.04.26-.07.52-.09.75-.02.24-.02.45-.02.63,0,.99.13,1.82.38,2.51.26.69.64,1.26,1.14,1.7s1.14.77,1.89.97,1.62.31,2.6.31c.46,0,.92-.03,1.38-.09.46-.06.89-.14,1.29-.23s.75-.21,1.05-.35c.29-.13.52-.27.66-.42.15-.15.29-.37.42-.68.13-.3.25-.64.36-1.01.11-.37.19-.75.26-1.14.06-.4.1-.75.1-1.06,0-.28-.05-.48-.14-.6s-.2-.18-.33-.18-.27.03-.42.09c-.15.06-.32.12-.53.2-.21.07-.45.14-.73.2-.28.06-.62.09-1.01.09-.68,0-1.17-.15-1.48-.46-.31-.3-.47-.79-.47-1.44,0-.21.02-.49.06-.83.04-.34.09-.63.13-.88l2.07-10.33h4.81c.18,0,.35-.08.51-.23.16-.15.3-.35.42-.59.12-.24.23-.5.34-.8.1-.3.18-.59.23-.89.06-.29.1-.57.14-.82"/><path d="m120.18,40.15c-1.21-.99-2.74-1.75-4.58-2.29s-4.02-.81-6.52-.81c-1.81,0-3.55.18-5.23.52-1.68.35-3.2.77-4.56,1.27-1.36.5-2.51,1.01-3.44,1.54-.93.53-1.58.96-1.94,1.29-.34.33-.63.83-.89,1.48-.26.65-.47,1.32-.62,2-.15.68-.26,1.31-.34,1.9-.07.58-.1,1.02-.1,1.29,0,.5.08.89.23,1.19.15.29.39.44.73.44s.9-.22,1.71-.67c.8-.44,1.76-.93,2.88-1.46,1.11-.53,2.34-1.01,3.69-1.46s2.74-.67,4.19-.67c2.22,0,3.8.46,4.75,1.39.95.93,1.42,2.16,1.42,3.69,0,1.3-.27,2.53-.81,3.69-.54,1.15-1.32,2.17-2.33,3.04-1.01.87-2.26,1.57-3.73,2.08-1.47.52-3.14.77-5,.77h-4.67c-.36,0-.69.13-.98.39-.29.27-.54.6-.75,1-.21.4-.4.85-.56,1.35-.17.5-.3.99-.39,1.46-.1.47-.17.92-.21,1.33-.04.42-.06.72-.06.92,0,.58.12,1,.35,1.23.23.24.63.36,1.19.36h5.13c1.86,0,3.41.17,4.64.5,1.24.34,2.24.78,3,1.35.76.57,1.3,1.24,1.62,2.02.32.78.48,1.62.48,2.54,0,1.14-.23,2.26-.69,3.37-.46,1.11-1.16,2.1-2.1,2.98-.94.87-2.13,1.59-3.56,2.12-1.43.54-3.13.81-5.11.81-1.75,0-3.29-.18-4.62-.54-1.33-.36-2.48-.77-3.44-1.21-.96-.44-1.74-.85-2.35-1.21-.61-.36-1.07-.54-1.37-.54-.28,0-.52.13-.73.4s-.39.61-.56,1.04c-.17.43-.3.91-.42,1.42-.11.51-.21,1.01-.29,1.5s-.15.94-.19,1.35c-.04.42-.06.74-.06.96,0,.61.1,1.11.29,1.5s.54.73,1.04,1.04c.75.45,1.6.86,2.54,1.23.94.37,1.98.69,3.1.96,1.13.26,2.31.47,3.54.63,1.24.15,2.53.23,3.9.23,3,0,5.67-.28,8.02-.83,2.35-.55,4.4-1.3,6.14-2.25,1.75-.94,3.23-2.04,4.44-3.29,1.21-1.25,2.19-2.56,2.96-3.94.76-1.37,1.31-2.77,1.65-4.19.34-1.42.5-2.77.5-4.08,0-1.11-.17-2.24-.52-3.38-.35-1.14-.91-2.19-1.69-3.14-.78-.96-1.78-1.78-3.02-2.46-1.24-.68-2.76-1.12-4.56-1.31v-.13c1.94-.47,3.69-1.21,5.23-2.21s2.85-2.18,3.91-3.54c1.07-1.36,1.89-2.88,2.46-4.54.57-1.66.86-3.39.86-5.17s-.29-3.29-.88-4.69c-.59-1.41-1.48-2.6-2.69-3.59"/><path d="m167.24,38.59c-1.19-.44-2.59-.8-4.19-1.08-1.6-.28-3.4-.42-5.39-.42-3.23,0-6.11.47-8.67,1.42-2.56.94-4.81,2.22-6.77,3.81-1.96,1.6-3.65,3.45-5.06,5.54s-2.62,4.3-3.6,6.6c-.99,2.31-1.79,4.63-2.42,6.96-.62,2.33-1.1,4.54-1.44,6.63-.34,2.08-.56,3.97-.67,5.67-.11,1.69-.17,3.03-.17,4,0,2.31.26,4.39.77,6.25.51,1.86,1.35,3.45,2.52,4.77s2.68,2.34,4.54,3.06c1.86.72,4.14,1.08,6.83,1.08,3,0,5.64-.38,7.94-1.14,2.29-.76,4.28-1.78,5.96-3.06,1.68-1.28,3.07-2.73,4.16-4.35,1.1-1.62,1.98-3.29,2.65-5,.67-1.71,1.14-3.4,1.44-5.06.29-1.67.44-3.17.44-4.5,0-1.58-.24-3.09-.71-4.52-.47-1.43-1.24-2.69-2.29-3.77-1.06-1.08-2.41-1.94-4.06-2.56-1.66-.62-3.67-.94-6.06-.94s-4.33.26-6.17.79c-1.83.53-3.47,1.2-4.92,2,.5-2.06,1.17-4.01,2.02-5.88.85-1.86,1.9-3.48,3.17-4.87,1.27-1.39,2.76-2.49,4.48-3.31,1.72-.82,3.71-1.23,5.96-1.23,1.31,0,2.44.09,3.39.25.96.17,1.79.36,2.5.58.71.22,1.3.43,1.77.6.47.18.89.27,1.25.27.3,0,.58-.14.81-.42s.45-.63.63-1.04c.18-.42.34-.88.48-1.4.14-.51.24-1.01.31-1.48s.13-.89.17-1.27c.04-.37.06-.66.06-.85,0-.53-.12-.95-.35-1.27-.24-.32-.68-.61-1.32-.86m-24.7,29.35c.72-.35,1.46-.64,2.23-.89.76-.25,1.55-.44,2.35-.56.8-.13,1.58-.19,2.33-.19,1,0,1.87.12,2.6.35s1.33.58,1.79,1.04c.46.46.8,1.01,1.02,1.65.22.64.33,1.35.33,2.12s-.08,1.64-.25,2.58c-.17.94-.43,1.9-.77,2.85-.35.96-.78,1.9-1.31,2.81-.53.92-1.16,1.72-1.9,2.42-.74.69-1.58,1.26-2.52,1.69-.94.43-2,.64-3.17.64-1.89,0-3.33-.53-4.31-1.6-.99-1.07-1.48-2.88-1.48-5.44,0-1.08.07-2.31.21-3.68.14-1.38.39-2.94.75-4.69.67-.39,1.36-.76,2.09-1.11"/><path d="m211.55,46.63c-.06-.24-.14-.46-.22-.69-.43.02-.88.04-1.36.04-3.29,0-5.47-.54-6.62-1.62-1.15-1.08-1.72-3.02-1.72-5.85,0-.36,0-.7.03-1.03-1.39-.28-2.92-.44-4.63-.44s-3.23.13-4.67.4c-1.44.26-2.78.64-4.02,1.12s-2.37,1.08-3.4,1.79c-1.03.71-1.96,1.48-2.79,2.31-1.33,1.34-2.52,2.9-3.56,4.71-1.04,1.81-1.97,3.73-2.79,5.77-.82,2.04-1.51,4.15-2.08,6.31-.57,2.17-1.04,4.29-1.42,6.35-.38,2.07-.64,4.03-.81,5.87-.17,1.85-.25,3.45-.25,4.81,0,2.56.28,4.85.83,6.87.56,2.03,1.44,3.74,2.67,5.14,1.22,1.4,2.8,2.48,4.73,3.23s4.29,1.12,7.06,1.12c3.39,0,6.29-.52,8.71-1.54,2.42-1.03,4.49-2.39,6.21-4.08,1.3-1.3,2.48-2.86,3.54-4.66,1.06-1.81,1.99-3.73,2.79-5.77.81-2.04,1.49-4.14,2.06-6.32.57-2.17,1.04-4.29,1.42-6.37.38-2.08.64-4.05.81-5.89.17-1.85.25-3.48.25-4.89,0-2.47-.26-4.71-.77-6.71m-10.31,10.39c-.14,1.49-.35,3.14-.65,4.96-.29,1.82-.65,3.71-1.08,5.69-.43,1.97-.94,3.86-1.52,5.67-.59,1.81-1.24,3.47-1.96,4.98-.72,1.51-1.51,2.7-2.37,3.56-.72.72-1.55,1.29-2.48,1.69-.93.4-1.98.61-3.14.61-2.08,0-3.59-.62-4.52-1.87-.93-1.25-1.4-3.21-1.4-5.87,0-.83.08-1.99.23-3.48.15-1.49.38-3.14.67-4.96.29-1.82.65-3.71,1.06-5.69.42-1.97.92-3.87,1.5-5.69.58-1.82,1.24-3.48,1.96-4.98.72-1.5,1.52-2.69,2.37-3.58.75-.72,1.59-1.29,2.5-1.71.92-.42,1.96-.62,3.13-.62,2.11,0,3.63.62,4.54,1.87.92,1.25,1.38,3.22,1.38,5.92,0,.86-.07,2.03-.21,3.52"/><path class="b" d="m209.98,44.57c2.64,0,4.47-.45,5.43-1.37.99-.92,1.47-2.56,1.47-4.96s-.47-3.89-1.41-4.79c-.94-.9-2.74-1.35-5.39-1.35s-4.49.46-5.45,1.4c-.97.94-1.45,2.59-1.45,4.98s.47,3.89,1.41,4.77c.93.89,2.72,1.32,5.4,1.32"/><path d="m133.8,110.09c0,.18-.02.42-.06.71-.03.29-.09.59-.17.9-.08.31-.18.61-.31.89-.13.28-.28.52-.47.71-.19.19-.47.34-.84.46-.37.11-.86.17-1.47.17-.45,0-.82-.04-1.12-.11-.3-.07-.53-.18-.71-.33-.18-.15-.3-.33-.37-.56-.07-.22-.11-.49-.11-.79,0-.2.02-.44.06-.73.04-.29.1-.59.18-.9.08-.31.18-.61.31-.88s.29-.51.48-.7.47-.34.82-.46c.35-.12.84-.17,1.47-.17.47,0,.86.04,1.17.13.3.09.54.2.71.36.17.15.28.34.34.56.05.23.09.47.09.74"/><path d="m151.23,97.89c0,.28-.03.6-.1.95s-.15.69-.26,1c-.11.32-.24.58-.41.79-.17.21-.34.32-.54.32-.18,0-.36-.07-.53-.22-.17-.15-.38-.31-.63-.49s-.56-.35-.94-.5c-.38-.15-.86-.23-1.46-.23-.63,0-1.2.14-1.7.42-.5.28-.93.64-1.3,1.08s-.68.95-.92,1.51-.44,1.14-.6,1.71c-.16.58-.27,1.13-.34,1.66s-.1.99-.1,1.38c0,.99.21,1.73.65,2.24.43.51,1.11.77,2.03.77.68,0,1.27-.09,1.75-.26.49-.18.9-.37,1.25-.59.35-.21.64-.4.89-.57.25-.17.48-.26.68-.26.12,0,.21.05.27.16.05.11.08.27.08.47s-.02.46-.07.77c-.05.31-.11.62-.19.94-.08.31-.17.61-.27.88s-.24.49-.4.65c-.16.16-.42.34-.78.54-.35.2-.76.38-1.22.54-.46.16-.96.29-1.5.38-.54.1-1.1.15-1.69.15-2.08,0-3.63-.53-4.67-1.58-1.03-1.05-1.55-2.6-1.55-4.66,0-.74.07-1.55.21-2.44.14-.89.37-1.78.68-2.67s.72-1.76,1.23-2.6,1.12-1.58,1.85-2.22,1.58-1.16,2.53-1.55c.96-.39,2.07-.58,3.32-.58.48,0,.96.04,1.42.11.46.07.89.17,1.28.3.39.13.73.28,1.03.45.3.17.52.32.67.46.15.14.24.26.28.37.04.11.07.24.07.4"/><path d="m169.28,102.29c0,.87-.08,1.77-.24,2.7-.16.93-.42,1.83-.78,2.71-.35.88-.8,1.71-1.36,2.48-.55.77-1.21,1.45-1.99,2.04s-1.66,1.05-2.65,1.4c-1,.34-2.12.51-3.37.51s-2.29-.14-3.18-.43c-.89-.28-1.64-.7-2.24-1.26-.6-.55-1.04-1.24-1.33-2.04-.29-.81-.44-1.74-.44-2.78,0-.87.08-1.77.24-2.7.17-.92.42-1.82.78-2.7.35-.87.8-1.7,1.36-2.49.55-.79,1.22-1.47,1.99-2.05.77-.58,1.66-1.04,2.65-1.39,1-.34,2.12-.51,3.38-.51s2.29.14,3.18.43c.89.28,1.64.7,2.24,1.26.6.55,1.04,1.24,1.33,2.04.29.81.44,1.74.44,2.78m-4.74.31c0-.51-.05-.96-.16-1.36s-.27-.73-.51-1c-.24-.27-.54-.48-.91-.63-.37-.14-.82-.22-1.36-.22-.61,0-1.16.12-1.64.36-.48.23-.92.55-1.3.96-.38.4-.72.87-1,1.4-.28.53-.51,1.08-.69,1.67-.18.59-.32,1.18-.4,1.78s-.13,1.18-.13,1.72c0,.51.05.97.15,1.37.1.4.27.74.51,1.01.24.28.54.48.91.63s.82.22,1.36.22c.61,0,1.16-.12,1.64-.36.49-.23.92-.56,1.3-.97.38-.41.71-.87,1-1.4.28-.53.51-1.09.69-1.68.18-.59.32-1.18.4-1.78.09-.6.13-1.17.13-1.71"/><path d="m196.54,113.08c-.02.12-.08.23-.17.32-.09.09-.23.17-.43.23-.19.06-.44.11-.74.14-.3.03-.67.04-1.12.04s-.8-.02-1.09-.04c-.29-.03-.52-.08-.67-.14-.16-.06-.27-.14-.32-.23s-.06-.2-.03-.32l1.95-9.76c.05-.28.09-.56.13-.83.04-.27.05-.55.05-.83,0-.57-.11-1.03-.32-1.38-.21-.35-.59-.53-1.14-.53-.49,0-.99.16-1.51.47-.52.32-1.02.75-1.5,1.29-.48.54-.91,1.17-1.28,1.9-.37.72-.63,1.49-.79,2.31l-1.48,7.37c-.03.12-.08.23-.17.32-.09.09-.23.17-.43.23-.19.06-.44.11-.74.14-.3.03-.67.04-1.12.04s-.8-.02-1.09-.04c-.29-.03-.51-.08-.67-.14-.16-.06-.27-.14-.32-.23s-.07-.2-.04-.32l1.93-9.76c.07-.28.13-.57.15-.87.03-.3.04-.59.04-.87,0-.53-.11-.97-.33-1.32-.22-.35-.6-.52-1.13-.52-.49,0-.99.16-1.51.47-.52.32-1.02.75-1.51,1.29-.48.54-.91,1.17-1.27,1.9-.37.72-.63,1.49-.79,2.31l-1.48,7.37c-.02.12-.08.23-.17.32-.09.09-.23.17-.42.23-.19.06-.43.11-.74.14-.3.03-.68.04-1.11.04s-.82-.02-1.1-.04c-.29-.03-.51-.08-.68-.14-.17-.06-.27-.14-.32-.23s-.06-.2-.04-.32l3.26-16.28c.02-.12.08-.23.16-.32s.2-.17.36-.22c.17-.05.38-.1.64-.13.26-.03.57-.04.94-.04s.68.02.92.04c.24.03.42.07.56.13s.22.13.26.22c.04.09.05.2.03.32l-.53,2.68c.26-.43.6-.86,1.02-1.3.43-.44.91-.84,1.45-1.2.54-.35,1.13-.64,1.77-.87.64-.22,1.3-.34,1.98-.34s1.32.09,1.83.28c.52.19.94.45,1.28.78.33.34.59.73.77,1.18.18.45.29.94.34,1.46.28-.44.64-.88,1.07-1.31.43-.44.92-.83,1.46-1.19.54-.35,1.13-.64,1.76-.87.63-.22,1.28-.34,1.95-.34.85,0,1.57.12,2.14.36s1.04.56,1.4.99c.35.42.61.91.77,1.47.16.56.24,1.18.24,1.83,0,.43-.02.86-.07,1.29-.05.43-.12.87-.22,1.32l-2,10.05Z"/></svg>