<?xml version="1.0" encoding="UTF-8" standalone="no"?>
<svg id="a" viewBox="0 0 32 32" version="1.1" sodipodi:docname="ticket360.svg" width="32" height="32" inkscape:version="1.4-beta2 (9aaf4f34, 2024-07-30)" xmlns:inkscape="http://www.inkscape.org/namespaces/inkscape" xmlns:sodipodi="http://sodipodi.sourceforge.net/DTD/sodipodi-0.dtd" xmlns="http://www.w3.org/2000/svg" xmlns:svg="http://www.w3.org/2000/svg">
  <sodipodi:namedview id="namedview16" pagecolor="#ffffff" bordercolor="#000000" borderopacity="0.25" inkscape:showpageshadow="2" inkscape:pageopacity="0.0" inkscape:pagecheckerboard="0" inkscape:deskcolor="#d1d1d1" inkscape:zoom="0.90552725" inkscape:cx="5.521645" inkscape:cy="118.71537" inkscape:window-width="1440" inkscape:window-height="872" inkscape:window-x="0" inkscape:window-y="0" inkscape:window-maximized="1" inkscape:current-layer="a" />
  <defs id="defs1">
    <style id="style1">.b{fill-rule:evenodd;}</style>
  </defs>
  <g id="g16" transform="matrix(0.2387169,0,0,0.2387169,-19.811116,1.6734052)" style="fill:#000000">
    <path class="b" d="m 211.61,109.24 h 5.43 v -1.91 h -1.91 v -1.71 l -1.71,-0.12 v -1.78 h -1.81 v -1.71 h -1.81 v -1.81 h -1.81 v -1.72 h -1.71 v -1.81 h -1.81 v -1.81 h -1.81 v 19.72 h 1.81 v -1.71 l 1.81,0.02 v -0.68 l 0.03,-0.77 -0.03,-0.38 h 1.81 v 1.81 h 1.72 v 3.52 h 1.81 v 3.15 c 0,0.26 0.04,0.26 0.1,0.47 h 3.42 v -3.53 h -1.71 v -2.38 l -0.11,-1.24 h -1.7 v -3.62 0 z" id="path1" style="fill:#000000" />
    <path d="m 107.88,10.65 h -4.76 l 0.99,-4.91 c 0.03,-0.17 0.01,-0.31 -0.06,-0.44 -0.07,-0.13 -0.22,-0.24 -0.43,-0.34 -0.21,-0.09 -0.52,-0.15 -0.91,-0.2 -0.39,-0.05 -0.89,-0.06 -1.48,-0.06 -0.59,0 -1.11,0.02 -1.51,0.06 -0.4,0.04 -0.73,0.11 -0.99,0.2 -0.25,0.09 -0.44,0.2 -0.56,0.34 -0.12,0.13 -0.2,0.28 -0.23,0.44 l -0.99,4.91 h -2.64 c -0.3,0 -0.55,0.15 -0.76,0.47 -0.21,0.31 -0.39,0.69 -0.52,1.12 -0.13,0.44 -0.22,0.88 -0.28,1.33 -0.06,0.45 -0.09,0.82 -0.09,1.1 0,0.39 0.05,0.66 0.15,0.8 0.1,0.14 0.26,0.21 0.47,0.21 h 2.66 L 93.79,26.4 c -0.05,0.21 -0.1,0.45 -0.14,0.73 -0.04,0.27 -0.08,0.54 -0.12,0.8 -0.04,0.26 -0.07,0.52 -0.09,0.75 -0.02,0.24 -0.03,0.45 -0.03,0.63 0,0.99 0.13,1.82 0.38,2.51 0.25,0.69 0.64,1.26 1.14,1.7 0.51,0.44 1.14,0.77 1.88,0.97 0.74,0.2 1.61,0.31 2.6,0.31 0.46,0 0.92,-0.03 1.38,-0.09 0.46,-0.06 0.89,-0.14 1.29,-0.23 0.4,-0.1 0.75,-0.21 1.05,-0.35 0.3,-0.13 0.52,-0.27 0.67,-0.42 0.15,-0.15 0.29,-0.37 0.42,-0.68 0.13,-0.3 0.25,-0.64 0.36,-1.01 0.11,-0.37 0.19,-0.75 0.26,-1.14 0.06,-0.4 0.1,-0.75 0.1,-1.06 0,-0.28 -0.04,-0.48 -0.14,-0.6 -0.09,-0.12 -0.2,-0.18 -0.33,-0.18 -0.13,0 -0.27,0.03 -0.42,0.09 -0.15,0.06 -0.32,0.12 -0.53,0.2 -0.2,0.07 -0.45,0.14 -0.73,0.2 -0.28,0.06 -0.62,0.09 -1.01,0.09 -0.67,0 -1.17,-0.15 -1.48,-0.46 -0.31,-0.3 -0.47,-0.79 -0.47,-1.44 0,-0.21 0.02,-0.49 0.06,-0.83 0.04,-0.34 0.09,-0.63 0.14,-0.88 l 2.07,-10.32 h 4.81 c 0.18,0 0.35,-0.08 0.51,-0.23 0.15,-0.15 0.3,-0.35 0.42,-0.59 0.12,-0.24 0.23,-0.5 0.33,-0.8 0.1,-0.3 0.18,-0.59 0.23,-0.89 0.06,-0.3 0.1,-0.57 0.13,-0.83 0.04,-0.26 0.05,-0.46 0.05,-0.63 0,-0.35 -0.05,-0.61 -0.15,-0.79 -0.1,-0.18 -0.28,-0.27 -0.56,-0.27" id="path2" style="fill:#000000" />
    <path d="m 121.07,1.58 c -0.22,-0.26 -0.55,-0.45 -0.99,-0.57 -0.44,-0.12 -1,-0.17 -1.69,-0.17 -0.69,0 -1.3,0.06 -1.77,0.17 -0.47,0.11 -0.88,0.3 -1.2,0.57 -0.33,0.26 -0.59,0.6 -0.79,1.01 -0.2,0.41 -0.36,0.91 -0.47,1.5 -0.13,0.61 -0.18,1.12 -0.15,1.54 0.03,0.42 0.16,0.76 0.38,1.01 0.22,0.25 0.55,0.44 0.99,0.54 0.44,0.11 1,0.16 1.69,0.16 0.69,0 1.3,-0.05 1.77,-0.16 0.47,-0.11 0.88,-0.29 1.21,-0.54 0.32,-0.26 0.59,-0.59 0.79,-1.01 0.2,-0.42 0.35,-0.93 0.47,-1.54 0.12,-0.59 0.16,-1.09 0.14,-1.5 -0.03,-0.41 -0.15,-0.75 -0.37,-1.01" id="path3" style="fill:#000000" />
    <path d="m 118.83,10.79 c -0.22,-0.09 -0.53,-0.16 -0.91,-0.21 -0.39,-0.05 -0.88,-0.07 -1.49,-0.07 -0.61,0 -1.11,0.02 -1.52,0.07 -0.4,0.05 -0.73,0.12 -0.99,0.21 -0.26,0.09 -0.44,0.2 -0.57,0.32 -0.12,0.12 -0.2,0.27 -0.23,0.43 l -4.36,21.94 c -0.03,0.17 -0.02,0.31 0.05,0.43 0.07,0.12 0.21,0.23 0.43,0.31 0.22,0.08 0.53,0.14 0.91,0.18 0.38,0.04 0.88,0.06 1.49,0.06 0.61,0 1.09,-0.02 1.51,-0.06 0.41,-0.04 0.74,-0.1 1,-0.18 0.26,-0.08 0.44,-0.18 0.57,-0.31 0.12,-0.12 0.2,-0.27 0.23,-0.43 l 4.36,-21.94 c 0.03,-0.17 0.02,-0.31 -0.05,-0.43 -0.06,-0.12 -0.21,-0.23 -0.43,-0.32" id="path4" style="fill:#000000" />
    <path d="m 140.85,11.9 c -0.19,-0.19 -0.5,-0.4 -0.9,-0.63 -0.4,-0.23 -0.86,-0.43 -1.39,-0.6 -0.53,-0.17 -1.1,-0.31 -1.73,-0.41 -0.62,-0.1 -1.27,-0.15 -1.92,-0.15 -1.69,0 -3.19,0.26 -4.49,0.79 -1.3,0.52 -2.44,1.22 -3.43,2.09 -0.99,0.87 -1.82,1.87 -2.5,3.01 -0.68,1.13 -1.24,2.3 -1.67,3.51 -0.43,1.21 -0.73,2.41 -0.92,3.61 -0.19,1.2 -0.28,2.3 -0.28,3.3 0,2.78 0.7,4.88 2.09,6.3 1.4,1.42 3.5,2.13 6.31,2.13 0.79,0 1.55,-0.07 2.28,-0.2 0.73,-0.13 1.41,-0.3 2.03,-0.52 0.62,-0.21 1.18,-0.46 1.65,-0.73 0.48,-0.27 0.83,-0.51 1.05,-0.73 0.22,-0.21 0.4,-0.51 0.54,-0.87 0.14,-0.37 0.26,-0.77 0.37,-1.2 0.11,-0.43 0.19,-0.85 0.26,-1.27 0.07,-0.42 0.1,-0.77 0.1,-1.05 0,-0.28 -0.04,-0.49 -0.11,-0.64 -0.07,-0.15 -0.19,-0.22 -0.36,-0.22 -0.28,0 -0.59,0.12 -0.92,0.35 -0.33,0.23 -0.74,0.49 -1.21,0.77 -0.47,0.29 -1.03,0.55 -1.69,0.79 -0.66,0.24 -1.44,0.36 -2.37,0.36 -1.25,0 -2.16,-0.35 -2.75,-1.04 -0.59,-0.69 -0.87,-1.7 -0.87,-3.03 0,-0.53 0.05,-1.14 0.14,-1.86 0.09,-0.72 0.24,-1.46 0.46,-2.24 0.21,-0.78 0.48,-1.55 0.81,-2.32 0.33,-0.77 0.75,-1.45 1.24,-2.05 0.5,-0.6 1.09,-1.09 1.76,-1.46 0.67,-0.38 1.44,-0.57 2.29,-0.57 0.8,0 1.46,0.1 1.98,0.31 0.51,0.21 0.93,0.43 1.27,0.68 0.34,0.25 0.62,0.47 0.85,0.67 0.23,0.2 0.47,0.3 0.71,0.3 0.27,0 0.51,-0.14 0.73,-0.43 0.22,-0.29 0.41,-0.64 0.55,-1.07 0.15,-0.43 0.27,-0.88 0.36,-1.35 0.09,-0.48 0.13,-0.91 0.13,-1.28 0,-0.21 -0.03,-0.39 -0.09,-0.54 -0.05,-0.14 -0.18,-0.31 -0.38,-0.5" id="path5" style="fill:#000000" />
    <path d="m 165.64,12.32 c 0.22,-0.35 0.33,-0.66 0.33,-0.92 0,-0.15 -0.05,-0.28 -0.13,-0.39 -0.09,-0.12 -0.25,-0.21 -0.48,-0.28 -0.23,-0.07 -0.55,-0.13 -0.96,-0.16 -0.41,-0.03 -0.92,-0.05 -1.53,-0.05 -0.61,0 -1.14,0.02 -1.57,0.05 -0.42,0.03 -0.78,0.09 -1.07,0.17 -0.29,0.08 -0.54,0.19 -0.73,0.33 -0.19,0.14 -0.37,0.31 -0.53,0.5 l -8.23,8.8 3.84,-19.3 C 154.61,0.9 154.6,0.76 154.53,0.63 154.46,0.5 154.32,0.39 154.11,0.3 153.9,0.21 153.6,0.14 153.21,0.09 c -0.39,-0.05 -0.88,-0.07 -1.49,-0.07 -0.61,0 -1.11,0.03 -1.52,0.07 -0.4,0.05 -0.73,0.12 -1,0.21 -0.26,0.09 -0.45,0.2 -0.56,0.33 -0.12,0.13 -0.19,0.28 -0.22,0.44 l -6.51,32.44 c -0.03,0.17 -0.01,0.31 0.06,0.43 0.07,0.12 0.22,0.22 0.43,0.3 0.21,0.07 0.51,0.13 0.9,0.17 0.39,0.04 0.88,0.06 1.49,0.06 0.61,0 1.09,-0.02 1.5,-0.06 0.41,-0.04 0.74,-0.1 1,-0.18 0.25,-0.08 0.44,-0.18 0.56,-0.31 0.12,-0.12 0.21,-0.27 0.26,-0.43 l 2.32,-11.63 5.2,11.59 c 0.05,0.2 0.13,0.36 0.23,0.49 0.11,0.13 0.27,0.24 0.49,0.32 0.22,0.08 0.54,0.14 0.94,0.18 0.4,0.03 0.93,0.05 1.59,0.05 0.66,0 1.2,-0.02 1.64,-0.06 0.44,-0.04 0.78,-0.11 1.03,-0.21 0.25,-0.1 0.44,-0.22 0.54,-0.37 0.11,-0.15 0.16,-0.32 0.16,-0.52 0,-0.17 -0.03,-0.4 -0.1,-0.69 -0.07,-0.29 -0.18,-0.64 -0.35,-1.04 l -5.05,-10.6 7.77,-7.32 c 0.52,-0.54 0.88,-0.99 1.1,-1.34" id="path6" style="fill:#000000" />
    <path d="m 185.6,12.02 c -0.69,-0.58 -1.57,-1.05 -2.65,-1.41 -1.08,-0.35 -2.36,-0.53 -3.86,-0.53 -1.73,0 -3.26,0.26 -4.61,0.77 -1.35,0.51 -2.53,1.19 -3.56,2.03 -1.03,0.85 -1.9,1.83 -2.63,2.95 -0.72,1.12 -1.32,2.29 -1.77,3.51 -0.46,1.22 -0.79,2.47 -1,3.72 -0.21,1.26 -0.31,2.43 -0.31,3.54 0,1.43 0.2,2.67 0.59,3.71 0.39,1.04 0.99,1.9 1.77,2.58 0.79,0.67 1.77,1.18 2.94,1.51 1.18,0.33 2.55,0.49 4.13,0.49 0.95,0 1.89,-0.05 2.81,-0.16 0.92,-0.11 1.75,-0.24 2.49,-0.41 0.74,-0.16 1.37,-0.34 1.9,-0.54 0.52,-0.2 0.89,-0.39 1.08,-0.59 0.18,-0.17 0.34,-0.4 0.48,-0.71 0.14,-0.31 0.26,-0.64 0.35,-1 0.09,-0.35 0.16,-0.71 0.21,-1.07 0.05,-0.36 0.07,-0.68 0.07,-0.96 0,-0.24 -0.04,-0.43 -0.12,-0.54 -0.08,-0.12 -0.22,-0.17 -0.42,-0.17 -0.2,0 -0.51,0.08 -0.94,0.23 -0.43,0.15 -0.97,0.33 -1.61,0.52 -0.65,0.19 -1.41,0.36 -2.27,0.52 -0.86,0.16 -1.83,0.23 -2.92,0.23 -1.53,0 -2.64,-0.34 -3.33,-1.01 -0.69,-0.67 -1.04,-1.68 -1.04,-3.01 0,-0.31 0.02,-0.65 0.05,-1.02 0.03,-0.37 0.08,-0.74 0.15,-1.12 h 2.27 c 2.4,0 4.47,-0.18 6.2,-0.54 1.73,-0.36 3.16,-0.88 4.29,-1.57 1.12,-0.68 1.95,-1.5 2.49,-2.44 0.54,-0.94 0.8,-2.01 0.8,-3.19 0,-0.79 -0.17,-1.56 -0.51,-2.31 -0.34,-0.75 -0.85,-1.41 -1.54,-2 m -4.41,6.06 c -0.25,0.4 -0.64,0.75 -1.18,1.05 -0.54,0.3 -1.26,0.53 -2.15,0.7 -0.89,0.17 -1.99,0.26 -3.3,0.26 h -2.07 c 0.21,-0.77 0.5,-1.5 0.85,-2.18 0.36,-0.68 0.78,-1.27 1.27,-1.77 0.49,-0.5 1.06,-0.9 1.71,-1.19 0.65,-0.3 1.38,-0.44 2.2,-0.44 0.99,0 1.74,0.22 2.26,0.65 0.52,0.44 0.78,0.98 0.78,1.64 0,0.46 -0.13,0.89 -0.37,1.29" id="path7" style="fill:#000000" />
    <path d="m 206.43,12.34 c 0.03,-0.26 0.05,-0.46 0.05,-0.63 0,-0.35 -0.05,-0.61 -0.15,-0.79 -0.1,-0.18 -0.29,-0.27 -0.57,-0.27 H 201 l 0.99,-4.91 C 202.02,5.57 202,5.43 201.93,5.3 201.86,5.17 201.71,5.06 201.5,4.96 201.29,4.87 200.98,4.81 200.59,4.76 200.2,4.71 199.7,4.7 199.11,4.7 c -0.59,0 -1.11,0.02 -1.52,0.06 -0.4,0.04 -0.73,0.11 -0.99,0.2 -0.26,0.09 -0.45,0.2 -0.57,0.34 -0.12,0.13 -0.2,0.28 -0.23,0.44 l -0.99,4.91 h -2.64 c -0.3,0 -0.55,0.15 -0.77,0.47 -0.21,0.31 -0.39,0.69 -0.52,1.12 -0.13,0.43 -0.23,0.88 -0.28,1.33 -0.06,0.45 -0.09,0.82 -0.09,1.1 0,0.39 0.05,0.66 0.15,0.8 0.1,0.14 0.26,0.21 0.47,0.21 h 2.66 l -2.15,10.72 c -0.05,0.21 -0.1,0.46 -0.14,0.73 -0.04,0.27 -0.08,0.54 -0.12,0.8 -0.04,0.26 -0.07,0.52 -0.09,0.75 -0.02,0.24 -0.02,0.45 -0.02,0.63 0,0.99 0.13,1.82 0.38,2.51 0.26,0.69 0.64,1.26 1.14,1.7 0.5,0.44 1.14,0.77 1.89,0.97 0.75,0.2 1.62,0.31 2.6,0.31 0.46,0 0.92,-0.03 1.38,-0.09 0.46,-0.06 0.89,-0.14 1.29,-0.23 0.4,-0.09 0.75,-0.21 1.05,-0.35 0.29,-0.13 0.52,-0.27 0.66,-0.42 0.15,-0.15 0.29,-0.37 0.42,-0.68 0.13,-0.3 0.25,-0.64 0.36,-1.01 0.11,-0.37 0.19,-0.75 0.26,-1.14 0.06,-0.4 0.1,-0.75 0.1,-1.06 0,-0.28 -0.05,-0.48 -0.14,-0.6 -0.09,-0.12 -0.2,-0.18 -0.33,-0.18 -0.13,0 -0.27,0.03 -0.42,0.09 -0.15,0.06 -0.32,0.12 -0.53,0.2 -0.21,0.07 -0.45,0.14 -0.73,0.2 -0.28,0.06 -0.62,0.09 -1.01,0.09 -0.68,0 -1.17,-0.15 -1.48,-0.46 -0.31,-0.3 -0.47,-0.79 -0.47,-1.44 0,-0.21 0.02,-0.49 0.06,-0.83 0.04,-0.34 0.09,-0.63 0.13,-0.88 l 2.07,-10.33 h 4.81 c 0.18,0 0.35,-0.08 0.51,-0.23 0.16,-0.15 0.3,-0.35 0.42,-0.59 0.12,-0.24 0.23,-0.5 0.34,-0.8 0.1,-0.3 0.18,-0.59 0.23,-0.89 0.06,-0.29 0.1,-0.57 0.14,-0.82" id="path8" style="fill:#000000" />
    <path d="m 120.18,40.15 c -1.21,-0.99 -2.74,-1.75 -4.58,-2.29 -1.84,-0.54 -4.02,-0.81 -6.52,-0.81 -1.81,0 -3.55,0.18 -5.23,0.52 -1.68,0.35 -3.2,0.77 -4.56,1.27 -1.36,0.5 -2.51,1.01 -3.44,1.54 -0.93,0.53 -1.58,0.96 -1.94,1.29 -0.34,0.33 -0.63,0.83 -0.89,1.48 -0.26,0.65 -0.47,1.32 -0.62,2 -0.15,0.68 -0.26,1.31 -0.34,1.9 -0.07,0.58 -0.1,1.02 -0.1,1.29 0,0.5 0.08,0.89 0.23,1.19 0.15,0.29 0.39,0.44 0.73,0.44 0.34,0 0.9,-0.22 1.71,-0.67 0.8,-0.44 1.76,-0.93 2.88,-1.46 1.11,-0.53 2.34,-1.01 3.69,-1.46 1.35,-0.45 2.74,-0.67 4.19,-0.67 2.22,0 3.8,0.46 4.75,1.39 0.95,0.93 1.42,2.16 1.42,3.69 0,1.3 -0.27,2.53 -0.81,3.69 -0.54,1.15 -1.32,2.17 -2.33,3.04 -1.01,0.87 -2.26,1.57 -3.73,2.08 -1.47,0.52 -3.14,0.77 -5,0.77 h -4.67 c -0.36,0 -0.69,0.13 -0.98,0.39 -0.29,0.27 -0.54,0.6 -0.75,1 -0.21,0.4 -0.4,0.85 -0.56,1.35 -0.17,0.5 -0.3,0.99 -0.39,1.46 -0.1,0.47 -0.17,0.92 -0.21,1.33 -0.04,0.42 -0.06,0.72 -0.06,0.92 0,0.58 0.12,1 0.35,1.23 0.23,0.24 0.63,0.36 1.19,0.36 h 5.13 c 1.86,0 3.41,0.17 4.64,0.5 1.24,0.34 2.24,0.78 3,1.35 0.76,0.57 1.3,1.24 1.62,2.02 0.32,0.78 0.48,1.62 0.48,2.54 0,1.14 -0.23,2.26 -0.69,3.37 -0.46,1.11 -1.16,2.1 -2.1,2.98 -0.94,0.87 -2.13,1.59 -3.56,2.12 C 100.7,83.83 99,84.1 97.02,84.1 95.27,84.1 93.73,83.92 92.4,83.56 91.07,83.2 89.92,82.79 88.96,82.35 88,81.91 87.22,81.5 86.61,81.14 86,80.78 85.54,80.6 85.24,80.6 c -0.28,0 -0.52,0.13 -0.73,0.4 -0.21,0.27 -0.39,0.61 -0.56,1.04 -0.17,0.43 -0.3,0.91 -0.42,1.42 -0.11,0.51 -0.21,1.01 -0.29,1.5 -0.08,0.49 -0.15,0.94 -0.19,1.35 -0.04,0.42 -0.06,0.74 -0.06,0.96 0,0.61 0.1,1.11 0.29,1.5 0.19,0.39 0.54,0.73 1.04,1.04 0.75,0.45 1.6,0.86 2.54,1.23 0.94,0.37 1.98,0.69 3.1,0.96 1.13,0.26 2.31,0.47 3.54,0.63 1.24,0.15 2.53,0.23 3.9,0.23 3,0 5.67,-0.28 8.02,-0.83 2.35,-0.55 4.4,-1.3 6.14,-2.25 1.75,-0.94 3.23,-2.04 4.44,-3.29 1.21,-1.25 2.19,-2.56 2.96,-3.94 0.76,-1.37 1.31,-2.77 1.65,-4.19 0.34,-1.42 0.5,-2.77 0.5,-4.08 0,-1.11 -0.17,-2.24 -0.52,-3.38 -0.35,-1.14 -0.91,-2.19 -1.69,-3.14 -0.78,-0.96 -1.78,-1.78 -3.02,-2.46 -1.24,-0.68 -2.76,-1.12 -4.56,-1.31 v -0.13 c 1.94,-0.47 3.69,-1.21 5.23,-2.21 1.54,-1 2.85,-2.18 3.91,-3.54 1.07,-1.36 1.89,-2.88 2.46,-4.54 0.57,-1.66 0.86,-3.39 0.86,-5.17 0,-1.78 -0.29,-3.29 -0.88,-4.69 -0.59,-1.41 -1.48,-2.6 -2.69,-3.59" id="path9" style="fill:#000000" />
    <path d="m 167.24,38.59 c -1.19,-0.44 -2.59,-0.8 -4.19,-1.08 -1.6,-0.28 -3.4,-0.42 -5.39,-0.42 -3.23,0 -6.11,0.47 -8.67,1.42 -2.56,0.94 -4.81,2.22 -6.77,3.81 -1.96,1.6 -3.65,3.45 -5.06,5.54 -1.41,2.09 -2.62,4.3 -3.6,6.6 -0.99,2.31 -1.79,4.63 -2.42,6.96 -0.62,2.33 -1.1,4.54 -1.44,6.63 -0.34,2.08 -0.56,3.97 -0.67,5.67 -0.11,1.69 -0.17,3.03 -0.17,4 0,2.31 0.26,4.39 0.77,6.25 0.51,1.86 1.35,3.45 2.52,4.77 1.17,1.32 2.68,2.34 4.54,3.06 1.86,0.72 4.14,1.08 6.83,1.08 3,0 5.64,-0.38 7.94,-1.14 2.29,-0.76 4.28,-1.78 5.96,-3.06 1.68,-1.28 3.07,-2.73 4.16,-4.35 1.1,-1.62 1.98,-3.29 2.65,-5 0.67,-1.71 1.14,-3.4 1.44,-5.06 0.29,-1.67 0.44,-3.17 0.44,-4.5 0,-1.58 -0.24,-3.09 -0.71,-4.52 -0.47,-1.43 -1.24,-2.69 -2.29,-3.77 -1.06,-1.08 -2.41,-1.94 -4.06,-2.56 -1.66,-0.62 -3.67,-0.94 -6.06,-0.94 -2.39,0 -4.33,0.26 -6.17,0.79 -1.83,0.53 -3.47,1.2 -4.92,2 0.5,-2.06 1.17,-4.01 2.02,-5.88 0.85,-1.86 1.9,-3.48 3.17,-4.87 1.27,-1.39 2.76,-2.49 4.48,-3.31 1.72,-0.82 3.71,-1.23 5.96,-1.23 1.31,0 2.44,0.09 3.39,0.25 0.96,0.17 1.79,0.36 2.5,0.58 0.71,0.22 1.3,0.43 1.77,0.6 0.47,0.18 0.89,0.27 1.25,0.27 0.3,0 0.58,-0.14 0.81,-0.42 0.23,-0.28 0.45,-0.63 0.63,-1.04 0.18,-0.42 0.34,-0.88 0.48,-1.4 0.14,-0.51 0.24,-1.01 0.31,-1.48 0.07,-0.47 0.13,-0.89 0.17,-1.27 0.04,-0.37 0.06,-0.66 0.06,-0.85 0,-0.53 -0.12,-0.95 -0.35,-1.27 -0.24,-0.32 -0.68,-0.61 -1.32,-0.86 m -24.7,29.35 c 0.72,-0.35 1.46,-0.64 2.23,-0.89 0.76,-0.25 1.55,-0.44 2.35,-0.56 0.8,-0.13 1.58,-0.19 2.33,-0.19 1,0 1.87,0.12 2.6,0.35 0.73,0.23 1.33,0.58 1.79,1.04 0.46,0.46 0.8,1.01 1.02,1.65 0.22,0.64 0.33,1.35 0.33,2.12 0,0.77 -0.08,1.64 -0.25,2.58 -0.17,0.94 -0.43,1.9 -0.77,2.85 -0.35,0.96 -0.78,1.9 -1.31,2.81 -0.53,0.92 -1.16,1.72 -1.9,2.42 -0.74,0.69 -1.58,1.26 -2.52,1.69 -0.94,0.43 -2,0.64 -3.17,0.64 -1.89,0 -3.33,-0.53 -4.31,-1.6 -0.99,-1.07 -1.48,-2.88 -1.48,-5.44 0,-1.08 0.07,-2.31 0.21,-3.68 0.14,-1.38 0.39,-2.94 0.75,-4.69 0.67,-0.39 1.36,-0.76 2.09,-1.11" id="path10" style="fill:#000000" />
    <path d="m 211.55,46.63 c -0.06,-0.24 -0.14,-0.46 -0.22,-0.69 -0.43,0.02 -0.88,0.04 -1.36,0.04 -3.29,0 -5.47,-0.54 -6.62,-1.62 -1.15,-1.08 -1.72,-3.02 -1.72,-5.85 0,-0.36 0,-0.7 0.03,-1.03 -1.39,-0.28 -2.92,-0.44 -4.63,-0.44 -1.71,0 -3.23,0.13 -4.67,0.4 -1.44,0.26 -2.78,0.64 -4.02,1.12 -1.24,0.48 -2.37,1.08 -3.4,1.79 -1.03,0.71 -1.96,1.48 -2.79,2.31 -1.33,1.34 -2.52,2.9 -3.56,4.71 -1.04,1.81 -1.97,3.73 -2.79,5.77 -0.82,2.04 -1.51,4.15 -2.08,6.31 -0.57,2.17 -1.04,4.29 -1.42,6.35 -0.38,2.07 -0.64,4.03 -0.81,5.87 -0.17,1.85 -0.25,3.45 -0.25,4.81 0,2.56 0.28,4.85 0.83,6.87 0.56,2.03 1.44,3.74 2.67,5.14 1.22,1.4 2.8,2.48 4.73,3.23 1.93,0.75 4.29,1.12 7.06,1.12 3.39,0 6.29,-0.52 8.71,-1.54 2.42,-1.03 4.49,-2.39 6.21,-4.08 1.3,-1.3 2.48,-2.86 3.54,-4.66 1.06,-1.81 1.99,-3.73 2.79,-5.77 0.81,-2.04 1.49,-4.14 2.06,-6.32 0.57,-2.17 1.04,-4.29 1.42,-6.37 0.38,-2.08 0.64,-4.05 0.81,-5.89 0.17,-1.85 0.25,-3.48 0.25,-4.89 0,-2.47 -0.26,-4.71 -0.77,-6.71 M 201.24,57 c -0.14,1.49 -0.35,3.14 -0.65,4.96 -0.29,1.82 -0.65,3.71 -1.08,5.69 -0.43,1.97 -0.94,3.86 -1.52,5.67 -0.59,1.81 -1.24,3.47 -1.96,4.98 -0.72,1.51 -1.51,2.7 -2.37,3.56 -0.72,0.72 -1.55,1.29 -2.48,1.69 -0.93,0.4 -1.98,0.61 -3.14,0.61 -2.08,0 -3.59,-0.62 -4.52,-1.87 -0.93,-1.25 -1.4,-3.21 -1.4,-5.87 0,-0.83 0.08,-1.99 0.23,-3.48 0.15,-1.49 0.38,-3.14 0.67,-4.96 0.29,-1.82 0.65,-3.71 1.06,-5.69 0.42,-1.97 0.92,-3.87 1.5,-5.69 0.58,-1.82 1.24,-3.48 1.96,-4.98 0.72,-1.5 1.52,-2.69 2.37,-3.58 0.75,-0.72 1.59,-1.29 2.5,-1.71 0.92,-0.42 1.96,-0.62 3.13,-0.62 2.11,0 3.63,0.62 4.54,1.87 0.92,1.25 1.38,3.22 1.38,5.92 0,0.86 -0.07,2.03 -0.21,3.52" id="path11" style="fill:#000000" />
    <path class="b" d="m 209.98,44.57 c 2.64,0 4.47,-0.45 5.43,-1.37 0.99,-0.92 1.47,-2.56 1.47,-4.96 0,-2.4 -0.47,-3.89 -1.41,-4.79 -0.94,-0.9 -2.74,-1.35 -5.39,-1.35 -2.65,0 -4.49,0.46 -5.45,1.4 -0.97,0.94 -1.45,2.59 -1.45,4.98 0,2.39 0.47,3.89 1.41,4.77 0.93,0.89 2.72,1.32 5.4,1.32" id="path12" style="fill:#000000" />
    <path d="m 133.8,110.09 c 0,0.18 -0.02,0.42 -0.06,0.71 -0.03,0.29 -0.09,0.59 -0.17,0.9 -0.08,0.31 -0.18,0.61 -0.31,0.89 -0.13,0.28 -0.28,0.52 -0.47,0.71 -0.19,0.19 -0.47,0.34 -0.84,0.46 -0.37,0.11 -0.86,0.17 -1.47,0.17 -0.45,0 -0.82,-0.04 -1.12,-0.11 -0.3,-0.07 -0.53,-0.18 -0.71,-0.33 -0.18,-0.15 -0.3,-0.33 -0.37,-0.56 -0.07,-0.22 -0.11,-0.49 -0.11,-0.79 0,-0.2 0.02,-0.44 0.06,-0.73 0.04,-0.29 0.1,-0.59 0.18,-0.9 0.08,-0.31 0.18,-0.61 0.31,-0.88 0.13,-0.27 0.29,-0.51 0.48,-0.7 0.19,-0.19 0.47,-0.34 0.82,-0.46 0.35,-0.12 0.84,-0.17 1.47,-0.17 0.47,0 0.86,0.04 1.17,0.13 0.3,0.09 0.54,0.2 0.71,0.36 0.17,0.15 0.28,0.34 0.34,0.56 0.05,0.23 0.09,0.47 0.09,0.74" id="path13" style="fill:#000000" />
    <path d="m 151.23,97.89 c 0,0.28 -0.03,0.6 -0.1,0.95 -0.07,0.35 -0.15,0.69 -0.26,1 -0.11,0.32 -0.24,0.58 -0.41,0.79 -0.17,0.21 -0.34,0.32 -0.54,0.32 -0.18,0 -0.36,-0.07 -0.53,-0.22 -0.17,-0.15 -0.38,-0.31 -0.63,-0.49 -0.25,-0.18 -0.56,-0.35 -0.94,-0.5 -0.38,-0.15 -0.86,-0.23 -1.46,-0.23 -0.63,0 -1.2,0.14 -1.7,0.42 -0.5,0.28 -0.93,0.64 -1.3,1.08 -0.37,0.44 -0.68,0.95 -0.92,1.51 -0.24,0.56 -0.44,1.14 -0.6,1.71 -0.16,0.58 -0.27,1.13 -0.34,1.66 -0.07,0.53 -0.1,0.99 -0.1,1.38 0,0.99 0.21,1.73 0.65,2.24 0.43,0.51 1.11,0.77 2.03,0.77 0.68,0 1.27,-0.09 1.75,-0.26 0.49,-0.18 0.9,-0.37 1.25,-0.59 0.35,-0.21 0.64,-0.4 0.89,-0.57 0.25,-0.17 0.48,-0.26 0.68,-0.26 0.12,0 0.21,0.05 0.27,0.16 0.05,0.11 0.08,0.27 0.08,0.47 0,0.2 -0.02,0.46 -0.07,0.77 -0.05,0.31 -0.11,0.62 -0.19,0.94 -0.08,0.31 -0.17,0.61 -0.27,0.88 -0.1,0.27 -0.24,0.49 -0.4,0.65 -0.16,0.16 -0.42,0.34 -0.78,0.54 -0.35,0.2 -0.76,0.38 -1.22,0.54 -0.46,0.16 -0.96,0.29 -1.5,0.38 -0.54,0.1 -1.1,0.15 -1.69,0.15 -2.08,0 -3.63,-0.53 -4.67,-1.58 -1.03,-1.05 -1.55,-2.6 -1.55,-4.66 0,-0.74 0.07,-1.55 0.21,-2.44 0.14,-0.89 0.37,-1.78 0.68,-2.67 0.31,-0.89 0.72,-1.76 1.23,-2.6 0.51,-0.84 1.12,-1.58 1.85,-2.22 0.73,-0.64 1.58,-1.16 2.53,-1.55 0.96,-0.39 2.07,-0.58 3.32,-0.58 0.48,0 0.96,0.04 1.42,0.11 0.46,0.07 0.89,0.17 1.28,0.3 0.39,0.13 0.73,0.28 1.03,0.45 0.3,0.17 0.52,0.32 0.67,0.46 0.15,0.14 0.24,0.26 0.28,0.37 0.04,0.11 0.07,0.24 0.07,0.4" id="path14" style="fill:#000000" />
    <path d="m 169.28,102.29 c 0,0.87 -0.08,1.77 -0.24,2.7 -0.16,0.93 -0.42,1.83 -0.78,2.71 -0.35,0.88 -0.8,1.71 -1.36,2.48 -0.55,0.77 -1.21,1.45 -1.99,2.04 -0.78,0.59 -1.66,1.05 -2.65,1.4 -1,0.34 -2.12,0.51 -3.37,0.51 -1.25,0 -2.29,-0.14 -3.18,-0.43 -0.89,-0.28 -1.64,-0.7 -2.24,-1.26 -0.6,-0.55 -1.04,-1.24 -1.33,-2.04 -0.29,-0.81 -0.44,-1.74 -0.44,-2.78 0,-0.87 0.08,-1.77 0.24,-2.7 0.17,-0.92 0.42,-1.82 0.78,-2.7 0.35,-0.87 0.8,-1.7 1.36,-2.49 0.55,-0.79 1.22,-1.47 1.99,-2.05 0.77,-0.58 1.66,-1.04 2.65,-1.39 1,-0.34 2.12,-0.51 3.38,-0.51 1.26,0 2.29,0.14 3.18,0.43 0.89,0.28 1.64,0.7 2.24,1.26 0.6,0.55 1.04,1.24 1.33,2.04 0.29,0.81 0.44,1.74 0.44,2.78 m -4.74,0.31 c 0,-0.51 -0.05,-0.96 -0.16,-1.36 -0.11,-0.4 -0.27,-0.73 -0.51,-1 -0.24,-0.27 -0.54,-0.48 -0.91,-0.63 -0.37,-0.14 -0.82,-0.22 -1.36,-0.22 -0.61,0 -1.16,0.12 -1.64,0.36 -0.48,0.23 -0.92,0.55 -1.3,0.96 -0.38,0.4 -0.72,0.87 -1,1.4 -0.28,0.53 -0.51,1.08 -0.69,1.67 -0.18,0.59 -0.32,1.18 -0.4,1.78 -0.08,0.6 -0.13,1.18 -0.13,1.72 0,0.51 0.05,0.97 0.15,1.37 0.1,0.4 0.27,0.74 0.51,1.01 0.24,0.28 0.54,0.48 0.91,0.63 0.37,0.15 0.82,0.22 1.36,0.22 0.61,0 1.16,-0.12 1.64,-0.36 0.49,-0.23 0.92,-0.56 1.3,-0.97 0.38,-0.41 0.71,-0.87 1,-1.4 0.28,-0.53 0.51,-1.09 0.69,-1.68 0.18,-0.59 0.32,-1.18 0.4,-1.78 0.09,-0.6 0.13,-1.17 0.13,-1.71" id="path15" style="fill:#000000" />
    <path d="m 196.54,113.08 c -0.02,0.12 -0.08,0.23 -0.17,0.32 -0.09,0.09 -0.23,0.17 -0.43,0.23 -0.19,0.06 -0.44,0.11 -0.74,0.14 -0.3,0.03 -0.67,0.04 -1.12,0.04 -0.45,0 -0.8,-0.02 -1.09,-0.04 -0.29,-0.03 -0.52,-0.08 -0.67,-0.14 -0.16,-0.06 -0.27,-0.14 -0.32,-0.23 -0.05,-0.09 -0.06,-0.2 -0.03,-0.32 l 1.95,-9.76 c 0.05,-0.28 0.09,-0.56 0.13,-0.83 0.04,-0.27 0.05,-0.55 0.05,-0.83 0,-0.57 -0.11,-1.03 -0.32,-1.38 -0.21,-0.35 -0.59,-0.53 -1.14,-0.53 -0.49,0 -0.99,0.16 -1.51,0.47 -0.52,0.32 -1.02,0.75 -1.5,1.29 -0.48,0.54 -0.91,1.17 -1.28,1.9 -0.37,0.72 -0.63,1.49 -0.79,2.31 l -1.48,7.37 c -0.03,0.12 -0.08,0.23 -0.17,0.32 -0.09,0.09 -0.23,0.17 -0.43,0.23 -0.19,0.06 -0.44,0.11 -0.74,0.14 -0.3,0.03 -0.67,0.04 -1.12,0.04 -0.45,0 -0.8,-0.02 -1.09,-0.04 -0.29,-0.03 -0.51,-0.08 -0.67,-0.14 -0.16,-0.06 -0.27,-0.14 -0.32,-0.23 -0.05,-0.09 -0.07,-0.2 -0.04,-0.32 l 1.93,-9.76 c 0.07,-0.28 0.13,-0.57 0.15,-0.87 0.03,-0.3 0.04,-0.59 0.04,-0.87 0,-0.53 -0.11,-0.97 -0.33,-1.32 -0.22,-0.35 -0.6,-0.52 -1.13,-0.52 -0.49,0 -0.99,0.16 -1.51,0.47 -0.52,0.32 -1.02,0.75 -1.51,1.29 -0.48,0.54 -0.91,1.17 -1.27,1.9 -0.37,0.72 -0.63,1.49 -0.79,2.31 l -1.48,7.37 c -0.02,0.12 -0.08,0.23 -0.17,0.32 -0.09,0.09 -0.23,0.17 -0.42,0.23 -0.19,0.06 -0.43,0.11 -0.74,0.14 -0.3,0.03 -0.68,0.04 -1.11,0.04 -0.43,0 -0.82,-0.02 -1.1,-0.04 -0.29,-0.03 -0.51,-0.08 -0.68,-0.14 -0.17,-0.06 -0.27,-0.14 -0.32,-0.23 -0.05,-0.09 -0.06,-0.2 -0.04,-0.32 l 3.26,-16.28 c 0.02,-0.12 0.08,-0.23 0.16,-0.32 0.08,-0.09 0.2,-0.17 0.36,-0.22 0.17,-0.05 0.38,-0.1 0.64,-0.13 0.26,-0.03 0.57,-0.04 0.94,-0.04 0.37,0 0.68,0.02 0.92,0.04 0.24,0.03 0.42,0.07 0.56,0.13 0.14,0.06 0.22,0.13 0.26,0.22 0.04,0.09 0.05,0.2 0.03,0.32 l -0.53,2.68 c 0.26,-0.43 0.6,-0.86 1.02,-1.3 0.43,-0.44 0.91,-0.84 1.45,-1.2 0.54,-0.35 1.13,-0.64 1.77,-0.87 0.64,-0.22 1.3,-0.34 1.98,-0.34 0.68,0 1.32,0.09 1.83,0.28 0.52,0.19 0.94,0.45 1.28,0.78 0.33,0.34 0.59,0.73 0.77,1.18 0.18,0.45 0.29,0.94 0.34,1.46 0.28,-0.44 0.64,-0.88 1.07,-1.31 0.43,-0.44 0.92,-0.83 1.46,-1.19 0.54,-0.35 1.13,-0.64 1.76,-0.87 0.63,-0.22 1.28,-0.34 1.95,-0.34 0.85,0 1.57,0.12 2.14,0.36 0.57,0.24 1.04,0.56 1.4,0.99 0.35,0.42 0.61,0.91 0.77,1.47 0.16,0.56 0.24,1.18 0.24,1.83 0,0.43 -0.02,0.86 -0.07,1.29 -0.05,0.43 -0.12,0.87 -0.22,1.32 l -2,10.05 z" id="path16" style="fill:#000000" />
  </g>
</svg>
