<?xml version="1.0" encoding="UTF-8"?><svg id="a" xmlns="http://www.w3.org/2000/svg" viewBox="0 0 164.42 80.09"><path d="m67.51.05h.07c.67.8,1.47,1.47,2.2,2.27l5,5v.07c-2.4,2.4-4.8,4.87-7.27,7.27l-7.27-7.27c.13-.2.33-.4.53-.6,2.27-2.2,4.53-4.47,6.73-6.73ZM82.11.05h.07c.07.13.13.2.2.27l7,7c-.07.13-.2.2-.27.33l-7,7c-2.47-2.4-4.87-4.87-7.27-7.27,2.33-2.47,4.87-4.87,7.27-7.33h0ZM96.71.05h.07c.47.53,1,1,1.47,1.53l5.47,5.47c.07.13.27.2.27.33-2.47,2.4-4.8,4.87-7.27,7.27l-6.93-6.93c-.13-.13-.27-.2-.33-.4,1.27-1.2,2.4-2.4,3.67-3.67,1.13-1.13,2.33-2.33,3.6-3.6h0Zm-21.8,21.8l7.2-7.2.13.07,7.2,7.2c-.07.2-.27.27-.4.4l-5.2,5.2-1.6,1.67c-.8-.73-1.6-1.6-2.4-2.33l-4.87-4.87-.07-.13h0ZM.05,53.18h21.8v5.2h-7.93v20.6c0,.33,0,.67-.07,1h-6.07v-21.6H.05v-5.2Zm39.87,0h6.13v26.8h-6.07c-.07-2.4,0-4.73,0-7.13-.07-6.53-.07-13.07-.07-19.67Zm107.67,0h6.13v21.47h10.67v5.4h-16.73c-.07-9-.07-17.93-.07-26.87Zm-57.47,9c-.6-2.13-1.8-4-3.47-5.47-2.2-1.87-4.93-3.07-7.8-3.33-1.6-.2-3.27-.27-4.87-.2h-7.2c-.13,0-.27,0-.4.07.07,8.87,0,17.73,0,26.6,0,.07,0,.13-.07.2h10.47c.93-.2,1.93-.13,2.8-.33,3.2-.53,6.13-2.2,8.27-4.67,1.53-1.8,2.47-4.07,2.8-6.4.27-2.2.07-4.4-.53-6.47h0Zm-6.8,8.93c-.73,1.2-1.87,2.2-3.2,2.73-1.2.53-2.47.8-3.8.8h-4.07c-.07-1.53,0-3-.07-4.53v-11.8h4.2c2.13,0,4.2.8,5.8,2.27,1.33,1.33,2.13,3.13,2.27,5.07.2,1.93-.2,3.87-1.13,5.47h0Zm45.4,2.6c-2.53-6.2-5.13-12.47-7.67-18.67-.27-.6-.47-1.27-.8-1.87-2.13-.07-4.2-.07-6.33,0-3.6,8.67-7.2,17.33-10.8,25.93-.13.27-.27.53-.33.87h6.53c.67-1.8,1.33-3.53,2-5.33,3.67-.07,7.4,0,11.07,0,.2-.07.27.13.27.27.6,1.67,1.27,3.4,1.87,5.07h6.73c-.73-2.07-1.67-4.2-2.53-6.27Zm-15.6-3.8c-.07-.27.13-.47.2-.67,1.27-3.2,2.53-6.47,3.73-9.67h.07c1.27,3.4,2.6,6.8,3.87,10.2v.2c-2.67-.07-5.27-.07-7.87-.07Z" style="stroke:#fff; stroke-width:.09px;"/></svg>