<?xml version="1.0" encoding="UTF-8"?><svg id="a" xmlns="http://www.w3.org/2000/svg" viewBox="0 0 163.4 80"><defs><style>.e{stroke-width:0px;}</style></defs><g id="b"><g id="c"><path id="d" class="e" d="m90.78,35.98h57.43c8.38,0,15.18-6.79,15.18-15.17h0c0-8.38-6.8-15.18-15.18-15.18h0s-57.43,0-57.43,0c-8.38,0-15.19,6.79-15.19,15.17h0c0,8.39,6.81,15.19,15.19,15.18h0ZM15.22,74.64h66.06c8.38,0,15.18-6.79,15.18-15.17h0c0-8.38-6.8-15.18-15.18-15.18-.01,0-.02,0-.04,0H15.22C6.83,44.27.02,51.05,0,59.43c0,.01,0,.02,0,.04h0c0,8.38,6.79,15.17,15.17,15.17.01,0,.03,0,.04,0Zm-6.27-39.21h6.7V10.93h8.67v-5.93H.26v5.92h8.68v24.51Zm24.14,0h6.7V12.09h.08l7.73,23.33h5.16l7.96-23.33h.09v23.33h6.7V5h-10.15l-7.05,19.84h-.09l-7-19.84h-10.13v30.43Zm97.87,17.39c-.9-1.87-2.23-3.5-3.88-4.74-1.72-1.25-3.67-2.14-5.74-2.62-2.27-.57-4.59-.86-6.93-.87h-10.05v30.41h10.95c2.2,0,4.39-.32,6.48-.99,1.97-.61,3.82-1.58,5.43-2.86,1.58-1.28,2.86-2.9,3.75-4.72.96-2.03,1.44-4.26,1.4-6.51.07-2.44-.43-4.87-1.44-7.09h.03Zm-6.36,11.1c-.5,1.15-1.28,2.15-2.27,2.92-1.03.75-2.2,1.29-3.44,1.57-1.41.32-2.84.48-4.29.47h-3.5v-18.04h3.95c1.35,0,2.7.17,4.01.54,1.2.32,2.33.87,3.33,1.61.93.72,1.68,1.64,2.2,2.69.59,1.21.89,2.54.87,3.88.03,1.5-.27,2.99-.87,4.36Zm38.34-.11c-.3-.83-.76-1.6-1.36-2.26-.59-.65-1.29-1.19-2.07-1.58-.85-.44-1.78-.74-2.73-.87v-.09c1.46-.42,2.77-1.25,3.77-2.4.99-1.21,1.5-2.74,1.44-4.3.07-1.4-.28-2.79-.99-4-.65-.98-1.53-1.79-2.57-2.34-1.12-.58-2.34-.96-3.6-1.11-1.31-.19-2.64-.29-3.96-.29h-11.37v30.41h12.49c1.36,0,2.73-.14,4.06-.43,1.3-.26,2.54-.74,3.67-1.42,1.07-.66,1.97-1.56,2.62-2.62.73-1.21,1.08-2.61,1.03-4.02,0-.93-.16-1.85-.47-2.73l.04.04Zm-16.7-13.54h4.55c.53,0,1.07.05,1.59.16.51.09,1,.25,1.46.49.42.23.78.56,1.04.97.29.47.44,1.01.41,1.57.02.54-.11,1.07-.37,1.54-.23.42-.56.77-.96,1.03-.42.27-.88.47-1.36.58-.5.12-1.01.17-1.52.18h-4.85v-6.51Zm10.06,17.18c-.27.45-.63.84-1.08,1.12-.44.29-.93.49-1.44.59-.51.11-1.04.17-1.57.17h-6.01v-6.88h5.07c.59,0,1.17.05,1.75.13.6.09,1.19.25,1.75.47.52.22.98.57,1.33,1.02.38.5.57,1.12.54,1.75.03.58-.1,1.15-.38,1.65l.03-.04Z"/></g></g></svg>