<svg id="Camada_1" data-name="Camada 1" xmlns="http://www.w3.org/2000/svg" viewBox="0 0 200 80"><g id="Page-1"><g id="blue_square_1" data-name="blue square 1"><path id="Shape" d="M110.36,35.41H176a17.35,17.35,0,0,0,17.35-17.34h0A17.35,17.35,0,0,0,176,.72H110.36A17.35,17.35,0,0,0,93,18.07h0A17.35,17.35,0,0,0,110.36,35.41ZM24,79.59h75.5a17.35,17.35,0,0,0,17.35-17.34h0A17.35,17.35,0,0,0,99.46,44.9H24A17.35,17.35,0,0,0,6.61,62.25h0A17.34,17.34,0,0,0,24,79.59ZM16.83,34.78h7.66v-28H34.4V0H6.91V6.77h9.92Zm27.59,0h7.66V8.1h.09L61,34.76H66.9L76,8.1h.1V34.76h7.66V0H72.16L64.1,22.68H64L56,0H44.42ZM156.27,54.66a14.8,14.8,0,0,0-4.44-5.42,18.09,18.09,0,0,0-6.56-3,33,33,0,0,0-7.92-1H125.86V80h12.52a24.18,24.18,0,0,0,7.41-1.13A18.91,18.91,0,0,0,152,75.6a16,16,0,0,0,4.29-5.4,16.62,16.62,0,0,0,1.6-7.44,18.24,18.24,0,0,0-1.65-8.1ZM149,67.35a8.57,8.57,0,0,1-2.59,3.34,10.56,10.56,0,0,1-3.93,1.79,21.27,21.27,0,0,1-4.9.54h-4V52.4h4.52a16.48,16.48,0,0,1,4.58.62,11.31,11.31,0,0,1,3.81,1.84A8.84,8.84,0,0,1,149,57.93a9.74,9.74,0,0,1,1,4.44A11.7,11.7,0,0,1,149,67.35Zm43.82-.12a7.73,7.73,0,0,0-1.55-2.58,8.21,8.21,0,0,0-2.37-1.81,9.79,9.79,0,0,0-3.12-1v-.1A9.06,9.06,0,0,0,190.09,59a7.31,7.31,0,0,0,1.65-4.91,8.23,8.23,0,0,0-1.13-4.57,8,8,0,0,0-2.94-2.67,12.29,12.29,0,0,0-4.11-1.27,31.18,31.18,0,0,0-4.53-.33h-13V80H180.3a21.89,21.89,0,0,0,4.64-.49,13.52,13.52,0,0,0,4.2-1.62,9.12,9.12,0,0,0,3-3,8.32,8.32,0,0,0,1.18-4.59,9.18,9.18,0,0,0-.54-3.12ZM173.73,51.76h5.2a9.28,9.28,0,0,1,1.82.18,5.87,5.87,0,0,1,1.67.56,3.25,3.25,0,0,1,1.19,1.11,3.13,3.13,0,0,1,.47,1.79,3.49,3.49,0,0,1-.42,1.76,3.27,3.27,0,0,1-1.1,1.18A4.8,4.8,0,0,1,181,59a7.8,7.8,0,0,1-1.74.2h-5.54Zm11.5,19.64A3.83,3.83,0,0,1,184,72.68a4.69,4.69,0,0,1-1.65.68,8.32,8.32,0,0,1-1.79.2h-6.87V65.7h5.79a16,16,0,0,1,2,.15,8.87,8.87,0,0,1,2,.54A3.91,3.91,0,0,1,185,67.55a3.14,3.14,0,0,1,.62,2,3.65,3.65,0,0,1-.43,1.89Z"/></g></g></svg>