<?xml version="1.0" encoding="UTF-8" standalone="no"?>
<svg version="1.0" width="32pt" height="32pt" viewBox="0 0 32 32" preserveAspectRatio="xMidYMid" id="svg2" xmlns="http://www.w3.org/2000/svg" xmlns:svg="http://www.w3.org/2000/svg">
  <defs id="defs2" />
  <g transform="matrix(0.00416667,0,0,-0.00416667,-1.28e-5,32.201804)" fill="#000000" stroke="none" id="g2">
    <path d="m 1570,6861 c 0,-11 -5,-21 -11,-23 -11,-4 -12,-47 -5,-256 1,-35 -1,-65 -4,-67 -4,-2 -8,-210 -9,-462 -1,-252 -4,-459 -5,-461 -2,-1 -25,-5 -52,-9 -27,-3 -53,-9 -59,-13 -5,-5 -27,-11 -47,-15 -21,-4 -38,-10 -38,-14 0,-3 -12,-7 -27,-8 -16,-1 -46,-3 -68,-5 -22,-2 -43,-8 -47,-14 -4,-7 -25,-15 -45,-19 -21,-4 -45,-12 -53,-20 -8,-7 -34,-15 -58,-18 -29,-3 -51,-14 -68,-32 -16,-18 -32,-25 -45,-22 -12,3 -24,-2 -33,-15 -8,-11 -17,-15 -20,-10 -3,6 0,13 6,15 10,4 10,6 0,6 -7,1 -16,-9 -21,-21 -12,-30 -54,-65 -59,-50 -2,7 -8,12 -13,12 -4,0 -6,-6 -3,-13 6,-16 -41,-61 -55,-53 -5,4 -15,-3 -21,-14 -6,-11 -21,-22 -34,-26 -13,-3 -88,-72 -167,-152 -192,-195 -205,-211 -201,-244 2,-20 -4,-31 -23,-44 -26,-17 -77,-95 -82,-123 -3,-24 -37,-91 -46,-91 -5,0 -5,-5 -2,-10 3,-6 -1,-13 -9,-16 -11,-4 -16,-20 -16,-53 0,-30 -7,-56 -21,-76 -29,-42 -40,-74 -44,-122 -2,-24 -7,-48 -10,-54 -4,-6 -8,-34 -9,-62 -1,-35 -9,-64 -23,-88 -22,-35 -23,-44 -23,-308 0,-149 4,-271 9,-271 4,0 16,-26 25,-57 9,-32 22,-74 27,-93 6,-20 10,-42 9,-50 -1,-8 -2,-34 -1,-57 1,-31 5,-43 16,-43 8,0 15,-6 15,-14 0,-8 7,-16 15,-20 10,-4 15,-19 15,-49 0,-70 25,-121 87,-180 21,-19 33,-40 33,-57 0,-14 13,-41 30,-60 16,-19 29,-41 30,-47 0,-7 6,-13 13,-13 19,0 60,-46 55,-61 -2,-7 14,-29 36,-50 23,-21 57,-58 76,-83 19,-25 40,-45 46,-46 6,0 43,-30 82,-68 39,-37 75,-66 81,-64 5,2 15,-5 23,-16 7,-10 45,-41 83,-68 92,-65 104,-72 145,-89 19,-8 58,-26 85,-40 59,-28 123,-49 148,-47 9,0 17,-3 17,-7 0,-22 147,-51 335,-66 108,-9 549,-5 558,4 6,6 26,11 45,11 67,0 177,23 197,41 12,10 36,22 55,25 19,4 41,11 48,17 7,5 15,7 19,3 3,-3 17,1 30,9 13,9 23,12 23,8 0,-5 5,0 11,10 5,9 20,17 33,17 27,0 86,28 86,40 0,5 21,16 48,26 61,23 104,55 172,126 30,32 61,58 69,58 8,0 31,17 51,38 20,20 62,60 93,87 41,37 54,55 51,71 -4,15 3,25 30,39 20,11 36,23 36,26 0,4 20,28 45,53 25,26 44,52 42,58 -1,6 8,16 20,23 14,7 19,16 13,25 -10,20 6,60 24,60 20,0 36,31 36,69 0,31 37,81 60,81 8,0 10,11 5,38 -5,29 -2,42 9,52 9,7 16,21 16,31 0,11 4,19 9,19 12,0 23,64 22,130 0,30 4,57 9,60 5,3 12,30 15,60 3,30 13,62 23,73 15,17 17,44 17,246 0,195 -3,234 -19,281 -10,30 -20,71 -22,90 -3,19 -9,52 -16,72 -6,20 -8,46 -5,57 3,12 1,24 -4,27 -5,3 -9,20 -9,38 0,22 -8,39 -26,55 -22,19 -25,29 -21,59 4,24 2,39 -7,46 -8,6 -26,40 -42,76 -16,36 -31,67 -35,70 -4,3 -17,26 -27,51 -11,26 -34,56 -52,69 -18,13 -29,28 -26,36 3,8 -4,31 -16,51 -25,45 -368,394 -380,387 -4,-3 -8,0 -8,6 0,7 -6,8 -19,1 -16,-9 -28,-2 -76,48 -50,52 -93,78 -118,73 -4,-1 -24,9 -45,23 -20,14 -42,25 -49,25 -7,0 -13,5 -13,11 0,7 -9,9 -22,6 -14,-4 -26,0 -34,11 -8,11 -24,15 -53,14 -22,-2 -41,2 -41,7 0,11 -56,28 -110,34 -20,2 -40,6 -45,9 -6,3 -26,9 -45,13 -19,4 -38,12 -41,18 -4,5 -35,11 -70,13 -93,6 -135,14 -120,23 9,6 7,10 -8,14 -12,3 -21,9 -20,14 1,4 -1,15 -4,23 -4,8 -8,285 -10,615 l -2,600 -162,3 c -156,2 -163,2 -163,-17 z m 478,-1621 c 196,-50 319,-89 359,-111 19,-11 43,-19 54,-19 11,0 35,-16 55,-35 19,-19 41,-35 48,-35 14,0 52,-38 49,-49 -2,-3 10,-6 26,-6 22,0 45,-16 96,-65 37,-36 73,-71 80,-77 7,-7 15,-16 17,-21 1,-4 18,-18 36,-31 17,-12 32,-28 32,-34 0,-7 16,-30 36,-52 20,-22 43,-54 50,-72 8,-17 18,-34 24,-38 5,-3 10,-17 10,-31 0,-13 6,-24 13,-24 15,0 47,-61 47,-91 0,-11 4,-18 9,-14 5,3 15,-12 21,-32 7,-21 16,-43 21,-48 4,-6 9,-31 11,-55 2,-36 6,-44 20,-42 19,3 35,-38 23,-58 -4,-6 -2,-17 5,-25 8,-10 10,-99 6,-332 -6,-372 -11,-430 -36,-438 -13,-4 -19,-19 -22,-63 -3,-43 -11,-67 -31,-93 -15,-20 -27,-45 -27,-56 0,-11 -16,-41 -36,-67 -21,-25 -34,-49 -30,-53 3,-3 -1,-17 -10,-30 -14,-23 -24,-35 -66,-85 -10,-12 -18,-25 -18,-30 0,-4 -7,-8 -15,-8 -8,0 -14,-4 -13,-9 6,-21 -85,-151 -106,-151 -6,0 -29,-18 -50,-41 -24,-24 -42,-36 -46,-30 -7,12 -76,-42 -117,-89 -15,-19 -32,-26 -58,-27 -28,-1 -44,-9 -66,-32 -21,-23 -36,-31 -63,-31 -26,0 -40,-6 -51,-24 -11,-17 -29,-26 -62,-31 -44,-6 -71,-15 -121,-38 -16,-8 -28,-8 -40,0 -13,8 -20,6 -29,-6 -10,-14 -50,-16 -320,-18 -169,-1 -318,1 -330,3 -11,3 -23,15 -26,25 -3,11 -11,19 -19,18 -7,-1 -20,1 -28,4 -8,3 -38,8 -66,10 -59,5 -74,12 -74,33 0,8 -5,12 -10,9 -6,-4 -16,-2 -23,3 -7,5 -29,15 -49,21 -20,7 -40,20 -43,30 -4,13 -19,20 -48,24 -31,4 -50,15 -75,41 -18,20 -36,36 -42,36 -35,0 -240,176 -240,206 0,6 -11,23 -24,37 -14,15 -27,35 -31,46 -3,11 -24,36 -46,56 -22,20 -51,58 -63,85 -13,27 -27,55 -33,62 -5,7 -18,33 -27,58 -10,25 -24,52 -32,61 -8,9 -16,30 -19,48 -2,17 -9,47 -15,66 -6,19 -9,39 -5,44 3,6 -3,16 -15,23 -17,11 -20,23 -20,74 0,34 -7,81 -16,105 -23,65 -26,376 -3,392 12,9 17,37 21,115 6,94 10,110 47,188 23,47 39,89 36,93 -2,5 4,19 14,32 10,13 21,36 25,51 3,15 17,35 31,44 14,9 25,26 25,39 0,23 17,44 35,43 17,-1 34,44 28,73 -4,23 0,29 31,44 20,10 36,21 36,25 0,4 49,57 110,119 82,83 115,111 135,111 16,0 25,6 25,15 0,8 8,15 18,15 10,0 39,20 64,44 33,31 58,46 86,51 23,3 50,17 63,31 12,13 34,24 48,24 31,0 121,30 138,46 6,6 43,14 82,18 39,4 73,11 76,16 3,5 19,7 36,3 23,-4 35,-1 51,17 21,22 24,22 160,16 114,-6 166,-15 286,-46 z" id="path1" />
    <path d="m 5545,5583 c -41,-3 -53,-8 -60,-26 -9,-19 -20,-23 -92,-27 -59,-4 -88,-10 -103,-22 -11,-10 -33,-18 -48,-18 -15,0 -33,-5 -39,-11 -7,-7 -22,-13 -35,-14 -13,-1 -29,-3 -36,-4 -7,0 -10,-6 -6,-13 5,-7 3,-8 -6,-3 -8,5 -19,0 -30,-15 -9,-12 -28,-24 -41,-25 -13,-1 -29,-3 -35,-4 -6,0 -25,-14 -42,-31 -18,-16 -36,-30 -41,-30 -5,0 -11,-10 -13,-22 -2,-17 -13,-24 -42,-30 -48,-10 -100,-51 -237,-188 -113,-114 -145,-153 -134,-170 3,-5 0,-10 -7,-10 -7,0 -24,-23 -38,-51 -39,-81 -41,-83 -76,-109 -21,-16 -35,-37 -39,-59 -3,-18 -10,-41 -15,-50 -4,-9 -13,-34 -20,-57 -7,-23 -25,-55 -41,-72 -16,-17 -26,-37 -23,-45 3,-8 -4,-32 -15,-53 -12,-21 -21,-44 -21,-51 0,-6 -5,-13 -11,-15 -6,-2 -13,-17 -14,-33 -2,-17 -7,-61 -11,-98 -4,-38 -12,-74 -18,-80 -32,-34 -36,-70 -36,-347 0,-263 1,-281 21,-327 12,-26 21,-58 21,-70 -1,-12 3,-25 8,-28 6,-3 10,-26 10,-49 0,-28 7,-52 19,-68 18,-23 46,-99 53,-143 2,-11 13,-24 25,-30 12,-5 24,-22 27,-39 8,-40 43,-113 72,-153 13,-17 24,-37 24,-43 0,-6 16,-28 35,-48 19,-20 38,-45 41,-54 3,-10 9,-18 14,-18 5,0 28,-21 52,-46 24,-26 72,-74 108,-108 123,-117 140,-135 140,-151 0,-8 7,-15 17,-15 9,0 32,-17 52,-37 20,-21 52,-47 71,-58 72,-41 92,-54 108,-68 20,-17 90,-41 116,-39 10,0 28,-5 40,-12 11,-8 39,-17 61,-21 59,-10 125,-34 156,-57 20,-15 52,-23 120,-29 61,-6 98,-14 108,-24 14,-13 16,-89 19,-583 2,-311 4,-568 6,-569 1,-2 80,-5 174,-9 l 172,-6 v 213 c 0,118 3,373 7,567 5,302 9,357 22,373 13,16 37,21 141,30 145,12 234,30 287,59 21,11 46,20 55,20 10,0 46,14 80,30 34,17 67,30 75,30 7,0 13,4 13,9 0,5 14,12 30,16 17,4 30,10 30,14 0,4 32,25 71,46 39,22 78,45 88,50 34,20 89,70 100,93 7,13 21,22 36,22 16,0 30,11 44,33 21,34 129,137 143,137 4,0 8,11 8,25 0,14 4,25 9,25 21,0 123,113 132,145 7,25 16,35 30,35 18,0 20,4 14,30 -6,27 -3,32 30,51 32,19 36,26 31,51 -4,20 3,42 24,78 17,28 30,57 30,64 0,7 9,25 21,40 11,14 18,30 15,34 -3,5 3,22 13,39 19,30 29,107 34,247 3,61 6,71 30,90 l 27,22 v 200 c 0,161 -3,204 -15,220 -8,10 -15,29 -15,40 0,12 -7,39 -16,60 -16,37 -18,53 -22,170 -1,35 -8,57 -23,72 -11,13 -23,39 -25,60 -3,20 -9,46 -14,57 -4,11 -13,34 -20,50 -6,17 -10,30 -9,30 2,0 -11,22 -30,48 -18,26 -42,69 -53,95 -12,26 -34,60 -50,75 -16,16 -28,35 -26,44 2,9 -33,52 -77,98 -44,45 -87,95 -95,111 -18,36 -35,54 -49,54 -6,0 -30,18 -52,40 -23,22 -47,40 -53,40 -6,0 -23,13 -37,28 -13,16 -41,37 -62,47 -20,9 -50,32 -67,51 -16,19 -34,34 -39,34 -5,0 -11,6 -14,14 -4,9 -14,12 -25,9 -15,-3 -21,2 -26,21 -4,15 -14,26 -24,27 -88,3 -122,15 -122,46 0,8 -5,11 -10,8 -6,-4 -17,-1 -25,5 -12,10 -16,9 -21,-3 -5,-14 -11,-13 -45,5 -36,18 -44,29 -40,51 1,5 -2,6 -7,3 -5,-3 -23,-2 -39,3 -16,5 -36,5 -44,1 -8,-5 -37,-4 -64,2 -28,5 -56,10 -62,12 -7,1 -24,12 -38,24 -25,22 -29,22 -328,20 -166,-1 -325,-3 -352,-5 z m 381,-304 c 119,-1 165,-5 182,-16 27,-16 19,-14 167,-44 61,-12 115,-27 120,-33 6,-6 28,-12 50,-14 22,-2 49,-9 60,-16 11,-7 40,-18 64,-26 23,-8 50,-24 58,-37 9,-13 22,-23 29,-23 8,0 14,-4 14,-9 0,-5 14,-11 31,-15 22,-4 61,-35 127,-101 53,-52 99,-95 103,-95 4,0 11,-9 14,-20 3,-11 11,-20 18,-20 14,0 111,-103 143,-152 13,-21 24,-45 24,-54 0,-9 9,-18 19,-21 19,-5 61,-86 61,-117 0,-8 4,-17 9,-21 6,-3 13,-26 17,-50 3,-25 10,-48 15,-51 5,-3 9,-12 9,-21 0,-9 9,-27 21,-39 12,-13 21,-39 24,-65 1,-24 4,-46 6,-49 1,-3 3,-27 5,-55 1,-27 7,-72 14,-100 6,-27 13,-108 15,-180 3,-110 1,-133 -13,-149 -14,-15 -17,-41 -17,-155 0,-75 -4,-142 -8,-148 -5,-7 -16,-13 -26,-13 -14,0 -21,-14 -31,-62 -8,-35 -20,-73 -28,-86 -20,-30 -42,-71 -85,-157 -20,-38 -44,-79 -55,-91 -11,-11 -23,-30 -26,-42 -4,-12 -12,-22 -17,-22 -5,0 -9,-6 -9,-14 0,-19 -179,-198 -191,-191 -5,4 -9,1 -9,-5 0,-6 -10,-14 -23,-19 -13,-5 -52,-34 -88,-64 -80,-68 -106,-82 -123,-68 -10,9 -17,5 -30,-14 -12,-18 -25,-25 -50,-25 -18,0 -39,-7 -46,-15 -15,-18 -53,-36 -140,-65 -93,-31 -143,-39 -247,-39 -51,-1 -93,-5 -93,-10 0,-5 -14,-13 -32,-16 -23,-6 -35,-3 -43,8 -11,15 -13,15 -28,0 -15,-15 -18,-15 -37,2 -16,14 -21,16 -18,5 2,-12 -10,-15 -62,-15 -47,0 -64,4 -62,13 2,12 -3,13 -108,17 -30,1 -68,7 -83,13 -16,7 -39,12 -53,12 -13,0 -24,6 -24,13 0,8 -6,14 -12,14 -22,1 -62,11 -91,22 -16,6 -32,9 -37,6 -5,-3 -16,3 -26,12 -22,22 -64,44 -73,38 -12,-7 -53,26 -48,39 3,8 -12,17 -39,25 -24,7 -54,24 -67,37 -12,13 -26,24 -31,24 -4,0 -35,24 -67,54 -32,30 -68,57 -79,61 -11,3 -20,10 -20,14 0,4 -29,37 -64,73 -63,65 -107,129 -121,178 -5,14 -16,31 -26,38 -10,7 -23,32 -29,55 -6,23 -17,47 -23,52 -20,17 -37,53 -37,77 0,13 -14,47 -30,77 -26,46 -31,70 -37,152 -3,60 -10,97 -16,96 -6,-1 -14,24 -19,55 -4,32 -11,66 -16,75 -11,26 -7,196 7,220 6,12 11,40 11,63 0,27 5,43 15,46 12,5 15,26 15,99 0,82 3,96 25,129 14,21 30,60 36,87 6,26 21,65 35,84 13,20 24,41 24,46 0,19 34,69 47,69 7,0 13,9 13,21 0,11 15,35 34,52 27,26 33,38 29,64 -4,25 0,34 18,43 12,7 77,68 144,136 77,79 129,124 142,124 11,0 26,7 33,15 7,8 18,15 24,15 6,0 32,20 58,44 30,28 60,46 84,51 21,3 51,17 68,30 29,21 59,30 131,40 16,2 34,10 40,18 6,9 29,19 50,22 22,4 45,11 50,15 13,11 73,22 107,21 15,0 40,6 54,14 15,8 31,12 35,10 3,-3 78,-5 165,-6 z" id="path2" />
  </g>
</svg>
