<?xml version="1.0" encoding="utf-8"?>
<!-- Uploaded to: SVG Repo, www.svgrepo.com, Generator: SVG Repo Mixer Tools -->
<svg fill="#000000" width="800px" height="800px" viewBox="0 0 32 32" version="1.1" xmlns="http://www.w3.org/2000/svg">
<title>atom</title>
<path d="M29.207 8.375c-1.167-2.020-3.979-2.715-7.56-2.158-1.308-3.38-3.315-5.467-5.647-5.467-2.34 0-4.353 2.104-5.66 5.505-0.211-0.033-0.437-0.095-0.644-0.12-3.389-0.406-5.837 0.392-6.902 2.24-1.067 1.849-0.531 4.369 1.511 7.099 0.132 0.177 0.308 0.35 0.451 0.527-0.143 0.176-0.319 0.35-0.451 0.527-2.042 2.729-2.578 5.25-1.512 7.098 1.039 1.447 2.717 2.379 4.613 2.379 0.228 0 0.453-0.013 0.674-0.040l-0.027 0.003c0.581-0.002 1.152-0.038 1.712-0.109l-0.068 0.007c0.207-0.025 0.432-0.087 0.644-0.12 1.307 3.401 3.32 5.505 5.66 5.505 2.333 0 4.342-2.091 5.65-5.476 0.672 0.116 1.45 0.186 2.243 0.194l0.008 0c0.196 0.024 0.423 0.037 0.653 0.037 1.908 0 3.599-0.931 4.642-2.365l0.011-0.016c1.166-2.019 0.361-4.802-1.913-7.625 2.274-2.822 3.078-5.605 1.913-7.625zM24.004 8.524c1.529 0 2.621 0.377 3.039 1.101 0.549 0.953-0.018 2.62-1.472 4.5-0.781-0.748-1.618-1.459-2.496-2.118l-0.070-0.051c-0.151-1.274-0.359-2.397-0.634-3.493l0.040 0.188c0.473-0.073 1.024-0.119 1.585-0.127l0.009-0zM18.375 20.113c-0.789 0.455-1.583 0.868-2.374 1.238-0.781-0.364-1.575-0.776-2.376-1.238-0.789-0.455-1.543-0.937-2.259-1.437-0.075-0.858-0.116-1.752-0.116-2.677s0.041-1.819 0.116-2.677c0.716-0.5 1.47-0.981 2.259-1.437v-0.001c0.806-0.465 1.602-0.867 2.387-1.233 0.787 0.369 1.578 0.78 2.363 1.234v-0.001c0.801 0.462 1.554 0.945 2.259 1.439 0.075 0.858 0.116 1.751 0.116 2.675s-0.041 1.817-0.116 2.675c-0.706 0.494-1.459 0.976-2.259 1.439zM20.146 21.961c-0.063 0.297-0.132 0.584-0.204 0.865-0.285-0.080-0.573-0.166-0.867-0.261 0.183-0.101 0.368-0.182 0.551-0.288 0.179-0.103 0.346-0.211 0.521-0.316zM12.891 22.558c-0.28 0.090-0.56 0.181-0.835 0.258-0.072-0.284-0.141-0.573-0.205-0.872 0.179 0.108 0.342 0.228 0.524 0.333 0.173 0.1 0.344 0.185 0.516 0.281zM8.763 16.585c-0.215-0.194-0.429-0.388-0.631-0.585 0.201-0.197 0.416-0.39 0.631-0.585-0.003 0.196-0.013 0.387-0.013 0.585s0.010 0.389 0.013 0.585zM11.851 10.053c0.064-0.299 0.133-0.587 0.205-0.87 0.274 0.077 0.552 0.167 0.831 0.257-0.171 0.095-0.341 0.182-0.512 0.281-0.182 0.105-0.345 0.225-0.524 0.333zM19.077 9.435c0.294-0.095 0.58-0.178 0.865-0.258 0.071 0.281 0.14 0.566 0.203 0.861-0.175-0.105-0.342-0.213-0.52-0.316v-0.001c-0.181-0.105-0.366-0.185-0.548-0.286zM23.237 15.42c0.214 0.194 0.433 0.387 0.631 0.58-0.198 0.193-0.417 0.386-0.631 0.58 0.003-0.194 0.013-0.383 0.013-0.58s-0.010-0.386-0.013-0.58zM16 3.25c1.101 0 2.264 1.32 3.165 3.521-1.285 0.377-2.347 0.77-3.377 1.225l0.175-0.069c-0.835-0.371-1.878-0.752-2.949-1.069l-0.194-0.049c0.903-2.225 2.074-3.559 3.181-3.559zM4.959 9.625c0.409-0.709 1.524-1.094 3.084-1.094 0.481 0.002 0.952 0.033 1.414 0.092l-0.057-0.006c0.061 0.007 0.128 0.027 0.189 0.036-0.238 0.92-0.448 2.055-0.586 3.213l-0.013 0.13c-0.935 0.706-1.761 1.412-2.542 2.165l0.009-0.008c-0.046-0.059-0.107-0.117-0.151-0.176-1.364-1.823-1.868-3.449-1.348-4.351zM9.4 23.383c-2.264 0.27-3.922-0.105-4.442-1.008-0.52-0.9-0.016-2.527 1.349-4.35 0.044-0.059 0.106-0.118 0.152-0.177 0.773 0.744 1.598 1.45 2.464 2.106l0.069 0.050c0.15 1.287 0.361 2.423 0.639 3.531l-0.040-0.189c-0.061 0.008-0.129 0.028-0.189 0.036zM16 28.75c-1.107 0-2.278-1.334-3.181-3.559 1.266-0.367 2.31-0.748 3.323-1.188l-0.177 0.069c0.857 0.385 1.921 0.775 3.014 1.098l0.192 0.049c-0.901 2.208-2.067 3.532-3.169 3.532zM27.043 22.375c-0.551 0.952-2.277 1.3-4.634 0.979 0.236-0.91 0.445-2.034 0.583-3.181l0.013-0.13c0.948-0.709 1.785-1.42 2.577-2.177l-0.010 0.009c1.455 1.879 2.022 3.547 1.472 4.5zM16 12.75c-1.795 0-3.25 1.455-3.25 3.25s1.455 3.25 3.25 3.25c1.795 0 3.25-1.455 3.25-3.25v0c-0.002-1.794-1.456-3.248-3.25-3.25h-0zM16 16.75c-0.414 0-0.75-0.336-0.75-0.75s0.336-0.75 0.75-0.75c0.414 0 0.75 0.336 0.75 0.75v0c-0.001 0.414-0.336 0.749-0.75 0.75h-0z"></path>
</svg>