<?xml version="1.0" encoding="utf-8"?>

<!DOCTYPE svg PUBLIC "-//W3C//DTD SVG 1.1//EN" "http://www.w3.org/Graphics/SVG/1.1/DTD/svg11.dtd">
<!-- Uploaded to: SVG Repo, www.svgrepo.com, Generator: SVG Repo Mixer Tools -->
<svg version="1.1" id="_x32_" xmlns="http://www.w3.org/2000/svg" xmlns:xlink="http://www.w3.org/1999/xlink" 
	 width="800px" height="800px" viewBox="0 0 512 512"  xml:space="preserve">
<style type="text/css">
<![CDATA[
	.st0{fill:#000000;}
]]>
</style>
<g>
	<path class="st0" d="M332.16,104.596c-34.594-27.688-48.125-58.25-53.328-79.969c-4.172-17.453-1.953-19.328-1.953-19.328
		c-0.219-2.078-1.5-3.875-3.406-4.75c-1.875-0.875-4.094-0.703-5.797,0.484c0,0-6.703,1.453-17.641,12.063
		c-24.875,24.156-53.031,64.469-34.469,119.578c19.891,59.125,9.375,71.5-1.047,70.688c-13.516-1.031-15.609-9.359-13.438-35.266
		c2.516-30.281-24.953-56.141-24.953-56.141s-42.672,67.844-75.953,116.375c-19.672,28.688-29.109,65.141-29.109,98.406H70.41
		c0,102.313,82.938,185.266,185.25,185.266s185.25-82.953,185.25-185.266C447.941,237.893,399.691,158.611,332.16,104.596z
		 M255.988,459.83c-56.422,0-102.188-45.75-102.188-102.188c0-19.219,5.328-37.188,14.547-52.547
		c7.938,29.563,34.906,51.328,66.969,51.328c38.281,0,69.344-31.047,69.344-69.344c0-7.297-1.156-14.359-3.25-20.969
		c33.656,16.719,56.766,51.422,56.766,91.531C358.175,414.08,312.425,459.83,255.988,459.83z"/>
</g>
</svg>