<?xml version="1.0" encoding="UTF-8" standalone="no"?>
<svg version="1.0" width="32pt" height="32pt" viewBox="0 0 32 32" preserveAspectRatio="xMidYMid" id="svg1" xmlns="http://www.w3.org/2000/svg" xmlns:svg="http://www.w3.org/2000/svg">
  <defs id="defs1" />
  <g transform="matrix(0.0097375,0,0,-0.0097375,-6.5836705,40.392399)" fill="#000000" stroke="none" id="g1">
    <path d="m 2295,4139 c -242,-17 -394,-55 -446,-111 -38,-40 -48,-96 -59,-334 -5,-116 -12,-217 -15,-226 -8,-20 -56,-28 -171,-28 -81,0 -93,-2 -111,-22 -29,-32 -40,-78 -48,-194 -9,-149 2,-230 35,-267 25,-29 31,-30 141,-39 159,-12 155,-10 163,-59 4,-23 4,-249 0,-503 -7,-508 5,-872 31,-971 46,-176 169,-344 326,-449 84,-55 161,-67 474,-73 259,-5 487,7 524,26 31,17 39,64 46,281 3,113 8,212 11,221 2,8 -2,24 -10,35 -13,18 -32,19 -293,25 -171,3 -288,10 -305,17 -19,8 -29,21 -33,44 -9,50 -1,1405 8,1415 5,4 122,10 260,13 139,3 258,9 265,13 9,6 12,63 12,228 0,278 12,259 -173,259 -74,0 -189,3 -255,7 l -122,6 v 339 338 l -26,10 c -28,11 -55,11 -229,-1 z" id="path1" />
  </g>
</svg>
