<svg width="32" height="32" fill="none" xmlns="http://www.w3.org/2000/svg">
  <g style="fill:#000">
    <path d="M27 6.793c.945.612 2.225 1.316 4.14 2.025 1.915-.708 3.171-1.414 4.073-2.025z" style="fill:#000" transform="matrix(.72647 0 0 .72647 0 6.556)"/>
    <path style="fill:#000" d="M0 0v26h44.049V0Zm25.658 3.225 2.563 1.19h10.457v2.771c-.774.689-1.948 1.686-3.977 2.73 1.413.364 3.032.713 4.924 1.031v2.545c-3.654-.595-6.426-1.307-8.576-2.04-2.176.75-4.92 1.463-8.438 2.032v-2.539a59.656 59.656 0 0 0 4.825-.998c-1.501-.767-2.475-1.482-3.207-2.023-.112-.085-1.141-.881-1.141-.881l-.002-.002zm-11.662.597h2.71c-.068 5.07-.17 8.094-.911 10.438h5.621v2.379h-6.723c-1.075 1.67-2.748 3.209-5.37 5.379H5.06l.537-.44c2.636-2.14 4.443-3.61 5.668-4.94H4.404V14.26h8.498c.946-2.111 1.024-5.123 1.094-10.438zm-8.02.59 6.026.86v2.656l-6.025-.86Zm0 4.494 6.026.86v2.656l-6.025-.86Zm23.735 4.004h2.771v1.354h7.143v2.379h-7.143v5.37h-2.771v-5.37h-7.098v-2.38h7.098zm-4.461 4.922h3.27l-2.63 4.18-3.267-.002zm-9.732.002h3.27l2.626 4.18h-3.27zm18.23 0h3.27l2.627 4.18h-3.27Z" transform="matrix(.72647 0 0 .72647 0 6.556)"/>
  </g>
</svg>