<?xml version="1.0" encoding="UTF-8"?><svg id="a" xmlns="http://www.w3.org/2000/svg" viewBox="0 0 280 80"><path d="m20.57,58.98l-.17.55c-.35-.15-.69-.32-1.02-.52-.81-.51-1.52-1.16-2.1-1.92-.17-.18-.31-.4-.39-.64-.08-.24-.12-.49-.1-.74.02-.25.09-.5.21-.72.12-.22.28-.42.48-.57.27-.27.57-.52.86-.77.2-.17.4-.35.6-.53.23-.21.45-.43.64-.67.17-.16.28-.39.29-.63,0-.24-.07-.47-.23-.65-.41-.52-.84-1.01-1.3-1.48-.27-.29-.55-.57-.83-.85-.31-.32-.62-.63-.93-.96-.33-.36-.57-.79-.7-1.26-.13-.47-.14-.96-.04-1.44.08-.58.13-1.16.15-1.75,0-.33-.11-.64-.32-.89-.22-.24-.52-.4-.84-.43-.3-.02-.58-.15-.8-.36-.21-.21-.35-.49-.37-.79-.01-.07-.03-.13-.05-.2-.02-.09-.05-.19-.06-.28-.04-.31-.17-.59-.38-.82-.21-.22-.49-.37-.8-.43-.24-.06-.48-.12-.72-.18-.44-.1-.87-.21-1.29-.36-.43-.16-.82-.39-1.17-.69-.26-.2-.46-.49-.55-.81-.1-.32-.09-.66.02-.98.1-.39-.01-.58-.42-.57-.48.03-.96.09-1.43.2-.79.27-1.64.33-2.46.15-.68-.24-1.33-.55-1.95-.92-.72-.38-1.35-.9-1.85-1.53-.27-.28-.44-.62-.51-1-.07-.38-.02-.77.14-1.12.27-.53.71-.94,1.25-1.19.23-.12.47-.23.71-.34.26-.12.52-.24.77-.37.26-.09.49-.22.69-.4.2-.18.37-.39.48-.64.12-.24.18-.51.19-.77.01-.27-.03-.54-.12-.79-.18-.81-.2-1.64-.06-2.45,0-.24.08-.47.2-.67.12-.2.29-.37.5-.49.21-.12.44-.18.67-.19.24,0,.47.05.68.16.36.12.71.28,1.07.44.22.1.45.2.68.29.33.14.67.25,1.01.34.06,0,.12-.01.17-.04.05-.02.1-.06.14-.11.11-.13.18-.29.2-.46.02-.17,0-.34-.08-.49-.09-.2-.16-.41-.22-.62-.08-.25-.07-.51.01-.76.08-.25.24-.46.45-.61.54-.45,1.2-.74,1.9-.82.7-.08,1.41.04,2.04.35.38.16.68.46.84.83.25.58.49,1.16.69,1.76.03.1.09.19.17.25.08.06.18.1.28.11.64.06,1.28,0,1.9-.18,1.62-.33,3.2-.84,4.71-1.53.15-.08.31-.13.48-.14.17,0,.34.02.49.09.15.07.29.17.4.31.11.13.18.29.22.45.17.71.3,1.43.42,2.15.03.26.03.53-.02.79-.05.26,0,.54.15.77.15.23.37.39.63.45.15.02.3-.03.42-.12.22-.18.43-.37.63-.57.1-.1.22-.17.35-.21.13-.04.27-.05.41-.02.12.02.24.04.37.06.12.02.24.04.37.06.42.06.8.25,1.1.55.3.3.5.68.56,1.1.18.8.34.97,1.15,1.05.79.08,1.57.13,2.36.17,1.12,0,2.23.14,3.32.39.48.09.93.28,1.34.55.41.27.75.62,1.02,1.03.46.77.65,1.67.52,2.56h-.34c.08-.67-.03-1.35-.32-1.95-.22-.43-.53-.81-.92-1.09-.39-.29-.84-.48-1.31-.56-.97-.2-1.95-.3-2.94-.28-.95-.02-1.9-.06-2.85-.11-.26-.03-.52-.09-.77-.18-.24-.07-.45-.2-.61-.39-.16-.18-.27-.41-.3-.65-.23-1.16-.57-1.32-1.73-1.43-.1,0-.19.04-.26.11-.1.09-.2.18-.3.27-.14.13-.29.27-.44.38-.15.13-.34.21-.54.24-.2.03-.4,0-.58-.08-.43-.12-.8-.38-1.06-.75-.26-.36-.38-.8-.34-1.25.03-.89-.1-1.77-.38-2.62-.05-.21-.16-.22-.34-.13-1.26.61-2.58,1.09-3.94,1.43-.74.2-1.49.35-2.26.44-.5.04-1-.01-1.49-.14-.25-.1-.46-.29-.58-.53-.21-.44-.4-.9-.56-1.37,0-.02-.01-.03-.02-.05-.31-1.18-1.29-1.25-2.15-1.1-.35.1-.69.24-1,.43-.03.01-.07.03-.09.06-.03.03-.04.06-.05.09s-.01.07,0,.11.02.07.04.1c.09.19.17.39.23.59.1.37.11.76.02,1.13-.09.37-.28.71-.55.99-.2.22-.46.37-.74.43-.29.06-.58.04-.85-.07-.44-.14-.87-.32-1.3-.5-.21-.09-.42-.18-.64-.26-.15-.06-.3-.11-.45-.17-.13-.05-.26-.09-.39-.14-.22-.08-.26.02-.31.21-.1.64-.09,1.3.03,1.94.08.52.12,1.05.1,1.58-.05.46-.21.9-.48,1.28-.26.38-.61.69-1.02.91-.3.19-.62.34-.94.5-.17.09-.35.17-.52.26-.31.15-.62.32-.9.51-.09.05-.17.11-.23.2-.06.08-.1.18-.12.28-.01.1,0,.21.03.3.03.1.09.18.17.25.39.5.87.92,1.42,1.23.23.14.46.28.7.41.13.07.26.15.39.22.35.18.73.28,1.12.3.39.03.78-.03,1.15-.15.63-.2,1.28-.3,1.94-.3.47.02.92.2,1.28.5.19.14.33.33.41.55.08.22.09.46.03.69-.02.12-.04.23-.08.35-.05.13-.06.28-.01.42.05.14.14.25.26.32.45.3.96.5,1.49.58h0c.4.1.8.2,1.19.32.51.13.97.42,1.31.82.34.4.55.9.6,1.42,0,.03.01.06.02.09.01.05.03.11.03.16.02.24.14.34.39.41.55.11,1.04.41,1.4.84.35.43.55.98.54,1.54-.02.67-.08,1.33-.2,1.99-.07.32-.07.66.02.98.08.32.24.61.47.86.3.32.6.64.9.96.4.42.81.85,1.2,1.28.38.4.71.83,1,1.3.24.35.35.78.29,1.21s-.26.82-.57,1.11c-.32.33-.67.63-1.03.92-.2.17-.4.34-.6.51-.27.23-.52.48-.76.75-.14.15-.23.35-.24.56-.01.21.04.42.16.59.45.73,1.04,1.36,1.73,1.85.35.25.72.49,1.1.7Zm236.49-7.43c0,2.94-2,5.94-7.46,5.94-3.52,0-6.1-1.33-7.77-3.22l1.49-1.91c1.33,1.49,3.52,2.88,6.37,2.88,3.61,0,4.76-1.94,4.76-3.49,0-2.4-2.53-3.08-5.26-3.83-3.22-.87-6.72-1.83-6.72-5.73,0-3.34,2.97-5.61,6.95-5.61,3.09,0,5.49,1.03,7.19,2.82l-1.52,1.85c-1.52-1.67-3.64-2.43-5.85-2.43-2.43,0-4.15,1.3-4.15,3.21s2.29,2.61,4.86,3.31c3.32.9,7.12,1.93,7.12,6.18Zm-224.73-9.31v14.89h-6.13v-14.89h-5.43v-5.34h16.95v5.34h-5.4Zm22.01,7.73l3.67,7.16h-6.98l-2.79-6.37h-2.21v6.37h-6.13v-20.23h10.8c4.73,0,7.28,3.15,7.28,6.95,0,3.49-2.03,5.34-3.64,6.13Zm-8.31-4.55h3.73c1.03,0,2-.49,2-1.61s-.97-1.58-2-1.58h-3.73v3.18Zm34.87,11.71l-7.46-20.23h-7.7l-7.46,20.23h6.95l.73-2.37h7.28l.73,2.37h6.95Zm-9.31-7.7h-4l2-6.52,2,6.52Zm29.08,2.21c0,2.82-1.91,5.49-5.97,5.49h-12.71v-20.23h12.28c4.19,0,6.01,2.79,6.01,5.16,0,2.52-1.49,4.22-3.46,4.64,2.18.33,3.85,2.34,3.85,4.94Zm-12.56-7.28h4.73c.64,0,1.21-.49,1.21-1.21s-.58-1.15-1.21-1.15h-4.73v2.37Zm0,7.67h4.91c.88,0,1.43-.52,1.43-1.27s-.55-1.3-1.43-1.3h-4.91v2.58Zm35.46,5.1l-7.46-20.23h-7.7l-7.46,20.23h6.95l.73-2.37h7.28l.73,2.37h6.95Zm-9.31-7.7h-4l2-6.52,2,6.52Zm24.2,2.37v5.34h-13.8v-20.23h6.13v14.89h7.67Zm21.96,5.34v-20.23h-6.13v7.16h-7.25v-7.16h-6.13v20.23h6.13v-7.73h7.25v7.73h6.13Zm16.26-20.23l7.46,20.23h-6.95l-.73-2.37h-7.28l-.73,2.37h-6.94l7.46-20.23h7.7Zm-5.85,12.53h4l-2-6.52-2,6.52Zm24.35,7.7c3.7,0,5.85-2.21,5.85-5.46,0-2.43-1.79-4.64-3.94-4.97,1.85-.39,3.55-2.09,3.55-4.64,0-3.03-2.15-5.16-5.67-5.16h-9.01v20.23h9.22Zm-.64-11.46h-6.07v-6.52h6.07c2.27,0,3.49,1.46,3.49,3.28s-1.21,3.25-3.49,3.25Zm.12,9.22h-6.19v-6.98h6.19c2.49,0,3.76,1.64,3.76,3.49,0,2.15-1.4,3.49-3.76,3.49Zm19.59-6.01l5.46,8.25h-2.97l-5.16-8.04h-4.03v8.04h-2.52v-20.23h8.13c3.7,0,6.34,2.37,6.34,6.1s-2.49,5.64-5.25,5.88Zm-6.7-2h5.31c2.39,0,4.03-1.61,4.03-3.88s-1.64-3.85-4.03-3.85h-5.31v7.73Zm33.25,10.25l-8.16-20.23h-3.12l-8.13,20.23h2.88l1.79-4.49h10.07l1.79,4.49h2.88Zm-5.43-6.73h-8.58l4.31-10.89,4.28,10.89Zm27.95,6.73v-20.23h-2.52v20.23h2.52Zm16.66-2.24v2.24h-11.92v-20.23h2.52v17.99h9.4Z" style="fill-rule:evenodd; stroke-width:0px;"/></svg>