<svg width="32" height="32" viewBox="0 0 32 32" version="1.1" xmlns="http://www.w3.org/2000/svg" xmlns:svg="http://www.w3.org/2000/svg">
  <g transform="matrix(0.62032776,0,0,0.62032776,0.80342734,8.2310567)">
    <path d="m 46.986167,16.1523 c 2.1381,-1.4359 3.2736,-3.8582 3.2736,-6.86422 0,-5.39736 -3.2071,-9.028314 -9.038,-9.028314 l -13.974,0.005157 c 4.5983,0.118794 7.1456,2.923347 7.1456,6.631777 0,1.63729 -0.7468,3.3366 -2.0767,4.3489 2.138,0.9813 3.5344,3.2074 3.5344,5.888 0,4.3489 -3.0127,7.6493 -8.4498,7.6545 h 9.7081 v -7.0657 h 1.5242 l 2.4296,7.0657 h 9.2273 z" fill="#000" />
    <path d="m 30.5298,11.2508 c 1.3299,-1.0175 2.0767,-2.71681 2.0767,-4.34893 0,-3.79623 -2.6547,-6.642104 -7.4524,-6.642104 H 19.0008 V 7.28924 H 14.29 V 24.7881 h -0.0153 11.3346 c 5.4422,0 8.4549,-3.3004 8.4549,-7.6545 0,-2.6806 -1.3964,-4.9015 -3.5344,-5.8828 z" fill="#000" />
    <path d="M 3.41566,24.7881 V 7.29441 H -1.295166 V 0.259766 H 17.0008 V 7.29441 H 12.29 V 24.7881 Z" fill="#000" />
  </g>
</svg>
