<svg width="32" height="32" viewBox="0 0 32 32" fill="none" version="1.1" id="svg1" xmlns="http://www.w3.org/2000/svg" xmlns:svg="http://www.w3.org/2000/svg">
  <defs id="defs1">
    <clipPath clipPathUnits="userSpaceOnUse" id="clipPath1">
      <path id="lpe_path-effect2" class="powerclip" d="M -5,-5 H 33.3405 V 33.3405 H -5 Z m 22.5969,26.1838 v -2.2309 h -2.2442 c -0.3919,0 -0.6096,-0.2177 -0.6096,-0.6531 V 12.4934 H 17.704 V 10.3526 H 14.7431 V 7 H 12 v 11.0445 c 0,1.5191 0.2831,2.0567 0.9234,2.6163 0.422,0.3688 0.906,0.5476 1.4222,0.5855 0.7098,0.052 1.6094,0.0151 3.2513,-0.0625 z" />
    </clipPath>
  </defs>
  <path id="rect1" clip-path="url(#clipPath1)" style="fill:#000000" d="M 14.17025,0 C 6.3199589,0 0,6.3199589 0,14.17025 c 0,7.850291 6.3199589,14.170249 14.17025,14.170249 7.850291,0 14.170249,-6.319958 14.170249,-14.170249 C 28.340499,6.3199589 22.020541,0 14.17025,0 Z" transform="scale(1.1291262)" />
</svg>
