<svg id="Layer_1" data-name="Layer 1" xmlns="http://www.w3.org/2000/svg" viewBox="0 0 300 120"><path d="M272.55,65c.56,5.18,3.41,6.37,12,6.27,7.24-.09,7.81-2.52,8-4.43.31-2.77-.93-4-5.8-4.78,0,0-3.36-.49-10.3-1.64S266.16,56,266.51,48.9c.33-6.69,5.87-11.9,15.87-11.9,11.54,0,16.82,5.21,16.82,12.7h-7.05c0-3.14-3.1-4.68-9.43-4.68-6.05,0-8.57,1.72-8.82,3.73-.33,2.53.23,3.67,5.23,4.39,0,0-.88-.14,8.41,1.18s12.62,5,12.45,11.93-5.6,13-16.18,13c-12.94,0-17.78-6-17.94-14.29ZM240.79,37c-11.77,0-21,8.55-21,21.15s9.2,21.14,21,21.14,21-8.55,21-21.14S252.57,37,240.79,37Zm11.86,26.34a8.76,8.76,0,0,1-6.46,6.31,28.09,28.09,0,0,1-10.81,0,8.77,8.77,0,0,1-6.45-6.31,24.1,24.1,0,0,1,0-10.42,8.77,8.77,0,0,1,6.45-6.31,28.09,28.09,0,0,1,10.81,0,8.76,8.76,0,0,1,6.46,6.31A24.41,24.41,0,0,1,252.65,63.33ZM207.5,40.44a15.36,15.36,0,0,0-1.51-1A16.83,16.83,0,0,0,197.28,37c-7.1,0-10.75,1.84-13.7,6.78H182c0-5.37-4.43-6.73-9.53-6.27-2.81.26-1.82.18-2.81.26v6h.64c.47,0,.89,0,.89,0,1.54.12,2.21.75,2.21,2.37V94.3h10.17V72.54h1.12c2.1,3.39,5.49,6.77,12.6,6.77a16.76,16.76,0,0,0,7.1-1.58,16.42,16.42,0,0,0,1.6-.86,15.5,15.5,0,0,0,1.52-1c4.92-3.68,8.19-10,8.19-17.69h0c0-7.67-3.28-14-8.19-17.69Zm-1.28,22.89a9.18,9.18,0,0,1-6.31,6.32,22,22,0,0,1-9.49,0,9.22,9.22,0,0,1-6.32-6.32,26.16,26.16,0,0,1,0-10.43,9.2,9.2,0,0,1,6.32-6.31,22,22,0,0,1,9.49,0,9.16,9.16,0,0,1,6.31,6.33,26.16,26.16,0,0,1,0,10.43ZM152.07,37.45c-6.37,0-9.6,3.08-11.38,6.79h-1.12a11,11,0,0,0-10.65-6.79c-6.16,0-9.7,1.89-12.22,6.79h-1.59c0-5.38-3.73-7.22-8.84-6.73l-2.8.26v6h.67c.29,0,.88,0,.88,0,1.54.11,2.2.74,2.21,2.37v.16h0V78.81H117.4V53.24h0a13,13,0,0,1,.32-3.11,5.47,5.47,0,0,1,3.76-3.76,13.45,13.45,0,0,1,5.65,0,5.47,5.47,0,0,1,3.76,3.76,12.49,12.49,0,0,1,.31,3.11h0V78.81h10.18V53.24h0a12.49,12.49,0,0,1,.31-3.11,5.49,5.49,0,0,1,3.76-3.76,13.5,13.5,0,0,1,5.66,0,5.53,5.53,0,0,1,3.76,3.76,13,13,0,0,1,.31,3.11h0V78.81h10.17V51.34c0-8.29-5.93-13.86-13.28-13.86Zm-51.48,35h-.67l-.88,0c-1.55-.11-2.21-.74-2.22-2.37V38.12H88.41v5.67H87.29C85.19,40.4,80,37,72.94,37a16.76,16.76,0,0,0-7.1,1.58c-.55.26-1.08.54-1.61.85s-1,.66-1.51,1c-4.9,3.69-8.18,10-8.18,17.7h0c0,7.67,3.28,14,8.19,17.69a14.39,14.39,0,0,0,1.52,1A16.65,16.65,0,0,0,73,79.31c7.1,0,12.52-1.84,15.47-6.78H90c0,5.38,2.67,6.73,7.77,6.27,2.8-.26,1.82-.18,2.8-.26ZM86.11,63.33a9.18,9.18,0,0,1-6.31,6.32,22,22,0,0,1-9.49,0A9.23,9.23,0,0,1,64,63.33,26.16,26.16,0,0,1,64,52.9a9.22,9.22,0,0,1,6.32-6.31,22,22,0,0,1,9.49,0,9.16,9.16,0,0,1,6.31,6.33,26.16,26.16,0,0,1,0,10.43ZM38,38.11H28V78.79H38.14V54.46c0-5.65,3.71-8.41,8.88-8.41h6v-7.7l-2.59-.25a18.18,18.18,0,0,0-3.46,0c-3.89.42-6.54,2.09-7.85,5.87H38ZM20.75,78.29V70H12.43c-1.46,0-2.24-.8-2.24-2.42V46.07h11V38.13h-11V25.7H0v41c0,5.61,1.05,7.62,3.42,9.7a8.8,8.8,0,0,0,5.27,2.17A111.78,111.78,0,0,0,20.75,78.29Z"/></svg>