<?xml version="1.0" encoding="UTF-8"?><svg id="a" xmlns="http://www.w3.org/2000/svg" viewBox="0 0 200 80"><defs><style>.b{stroke-width:0px;}</style></defs><path class="b" d="m181.7,48.33c.37,3.45,2.27,4.25,8,4.18,4.83-.06,5.21-1.68,5.33-2.95.21-1.85-.62-2.67-3.87-3.19,0,0-2.24-.33-6.87-1.09s-6.86-2.95-6.63-7.68c.22-4.46,3.91-7.93,10.58-7.93,7.69,0,11.21,3.47,11.21,8.47h-4.7c0-2.09-2.07-3.12-6.29-3.12s-5.71,1.15-5.88,2.49c-.22,1.69.15,2.45,3.49,2.93,0,0-.59-.09,5.61.79,6.19.88,8.41,3.33,8.3,7.95s-3.73,8.67-10.79,8.67c-8.63,0-11.85-4-11.96-9.53l4.45.03Zm-21.17-18.67c-7.85,0-14,5.7-14,14.1s6.13,14.09,14,14.09,14-5.7,14-14.09-6.15-14.1-14-14.1Zm7.91,17.56c-.55,2.09-2.2,3.71-4.31,4.21-2.38.47-4.83.47-7.21,0-2.1-.5-3.75-2.12-4.3-4.21-.51-2.29-.51-4.66,0-6.95.55-2.09,2.2-3.71,4.3-4.21,2.38-.47,4.83-.47,7.21,0,2.1.5,3.76,2.12,4.31,4.21.5,2.29.5,4.65,0,6.94h0Zm-30.1-15.27c-.32-.24-.66-.46-1.01-.67-1.75-1.06-3.76-1.62-5.81-1.63-4.73,0-7.17,1.23-9.13,4.52h-1.05c0-3.58-2.95-4.49-6.35-4.18-1.87.17-1.21.12-1.87.17v4h1.02c1.03.08,1.47.5,1.47,1.58v32.11h6.78v-14.51h.75c1.4,2.26,3.66,4.51,8.4,4.51,1.64,0,3.25-.36,4.73-1.05.37-.17.72-.36,1.07-.57.35-.2.69-.42,1.01-.67,3.28-2.45,5.46-6.67,5.46-11.79h0c0-5.11-2.19-9.33-5.46-11.79v-.03Zm-.85,15.26c-.58,2.04-2.17,3.63-4.21,4.21-2.08.46-4.24.46-6.33,0-2.04-.58-3.63-2.18-4.21-4.21-.47-2.29-.47-4.66,0-6.95.58-2.04,2.18-3.63,4.21-4.21,2.08-.46,4.24-.46,6.33,0,2.04.58,3.63,2.18,4.21,4.22.47,2.29.47,4.66,0,6.95h0Zm-36.1-17.25c-4.25,0-6.4,2.05-7.59,4.53h-.75c-1.18-2.85-4.02-4.66-7.1-4.53-4.11,0-6.47,1.26-8.15,4.53h-1.06c0-3.59-2.49-4.81-5.89-4.49l-1.87.17v4h1.03c1.03.07,1.47.49,1.47,1.58v.11h0v21.67h6.78v-17.05h0c-.01-.7.06-1.39.21-2.07.35-1.21,1.29-2.16,2.51-2.51,1.24-.27,2.53-.27,3.77,0,1.21.35,2.16,1.29,2.51,2.51.16.68.22,1.38.21,2.07h0v17.05h6.79v-17.05h0c-.02-.7.05-1.39.21-2.07.35-1.21,1.3-2.16,2.51-2.51,1.24-.27,2.53-.27,3.77,0,1.21.35,2.15,1.3,2.51,2.51.15.68.22,1.38.21,2.07h0v17.05h6.78v-18.31c0-5.53-3.95-9.24-8.85-9.24v-.02Zm-34.32,23.33h-1.03c-1.03-.07-1.47-.49-1.48-1.58v-21.31h-5.61v3.78h-.75c-1.4-2.26-4.86-4.53-9.57-4.53-1.64,0-3.25.36-4.73,1.05-.37.17-.72.36-1.07.57s-.67.44-1.01.67c-3.27,2.46-5.45,6.67-5.45,11.8h0c0,5.11,2.19,9.33,5.46,11.79.32.24.66.47,1.01.67,1.75,1.08,3.77,1.66,5.83,1.66,4.73,0,8.35-1.23,10.31-4.52h1.02c0,3.59,1.78,4.49,5.18,4.18,1.87-.17,1.21-.12,1.87-.17v-4.06Zm-9.65-6.08c-.58,2.04-2.17,3.63-4.21,4.21-2.08.46-4.24.46-6.33,0-2.03-.59-3.62-2.18-4.21-4.21-.47-2.29-.47-4.66,0-6.95.59-2.03,2.18-3.62,4.21-4.21,2.08-.46,4.24-.46,6.33,0,2.04.58,3.63,2.18,4.21,4.22.47,2.29.47,4.66,0,6.95h0ZM25.33,30.41h-6.67v27.12h6.76v-16.22c0-3.77,2.47-5.61,5.92-5.61h4v-5.13l-1.73-.17c-.77-.07-1.54-.07-2.31,0-2.59.28-4.36,1.39-5.23,3.91h-.75v-3.91Zm-11.5,26.79v-5.53h-5.55c-.97,0-1.49-.53-1.49-1.61v-14.34h7.33v-5.29h-7.33v-8.29H0v27.33c0,3.74.7,5.08,2.28,6.47.98.86,2.21,1.37,3.51,1.45,2.68.08,5.37.02,8.04-.19Z"/></svg>