<?xml version="1.0" encoding="UTF-8" standalone="no"?>
<svg width="32" height="32" viewBox="0 0 32 32" fill="none" version="1.1" id="svg1" sodipodi:docname="trampos.svg" inkscape:version="1.4-beta2 (9aaf4f34, 2024-07-30)" xmlns:inkscape="http://www.inkscape.org/namespaces/inkscape" xmlns:sodipodi="http://sodipodi.sourceforge.net/DTD/sodipodi-0.dtd" xmlns="http://www.w3.org/2000/svg" xmlns:svg="http://www.w3.org/2000/svg">
  <defs id="defs1">
    <inkscape:path-effect effect="powerclip" message="" id="path-effect2" is_visible="true" lpeversion="1" inverse="true" flatten="false" hide_clip="false" />
    <clipPath clipPathUnits="userSpaceOnUse" id="clipPath1">
      <path d="m 17.5969,21.1838 v -2.2309 h -2.2442 c -0.3919,0 -0.6096,-0.2177 -0.6096,-0.6531 V 12.4934 H 17.704 V 10.3526 H 14.7431 V 7 H 12 v 11.0445 c 0,1.5191 0.2831,2.0567 0.9234,2.6163 0.422,0.3688 0.906,0.5476 1.4222,0.5855 0.7098,0.052 1.6094,0.0151 3.2513,-0.0625 z" fill="#30306e" id="path2" style="display:none" />
      <path id="lpe_path-effect2" class="powerclip" d="M -5,-5 H 33.3405 V 33.3405 H -5 Z m 22.5969,26.1838 v -2.2309 h -2.2442 c -0.3919,0 -0.6096,-0.2177 -0.6096,-0.6531 V 12.4934 H 17.704 V 10.3526 H 14.7431 V 7 H 12 v 11.0445 c 0,1.5191 0.2831,2.0567 0.9234,2.6163 0.422,0.3688 0.906,0.5476 1.4222,0.5855 0.7098,0.052 1.6094,0.0151 3.2513,-0.0625 z" />
    </clipPath>
  </defs>
  <sodipodi:namedview id="namedview1" pagecolor="#ffffff" bordercolor="#000000" borderopacity="0.25" inkscape:showpageshadow="2" inkscape:pageopacity="0.0" inkscape:pagecheckerboard="0" inkscape:deskcolor="#d1d1d1" inkscape:zoom="2.1801515" inkscape:cx="-3.6694697" inkscape:cy="48.391132" inkscape:window-width="1440" inkscape:window-height="790" inkscape:window-x="0" inkscape:window-y="0" inkscape:window-maximized="1" inkscape:current-layer="svg1" />
  <path width="28.3405" height="28.3405" rx="14.1702" fill="#ffffff" id="rect1" clip-path="url(#clipPath1)" inkscape:path-effect="#path-effect2" sodipodi:type="rect" x="0" y="0" d="m 14.1702,0 h 10e-5 c 7.850291,0 14.1702,6.3199094 14.1702,14.1702 v 10e-5 c 0,7.850291 -6.319909,14.1702 -14.1702,14.1702 h -10e-5 C 6.3199094,28.3405 0,22.020591 0,14.1703 v -10e-5 C 0,6.3199094 6.3199094,0 14.1702,0 Z" style="fill:#000000" transform="scale(1.1291262)" />
</svg>
