<?xml version="1.0" encoding="UTF-8" standalone="no"?>
<svg id="Camada_1" data-name="Camada 1" viewBox="0 0 32 32" version="1.1" sodipodi:docname="supremo-tribunal.svg" width="32" height="32" inkscape:version="1.4-beta2 (9aaf4f34, 2024-07-30)" xmlns:inkscape="http://www.inkscape.org/namespaces/inkscape" xmlns:sodipodi="http://sodipodi.sourceforge.net/DTD/sodipodi-0.dtd" xmlns="http://www.w3.org/2000/svg" xmlns:svg="http://www.w3.org/2000/svg">
  <defs id="defs7" />
  <sodipodi:namedview id="namedview7" pagecolor="#ffffff" bordercolor="#000000" borderopacity="0.25" inkscape:showpageshadow="2" inkscape:pageopacity="0.0" inkscape:pagecheckerboard="0" inkscape:deskcolor="#d1d1d1" inkscape:zoom="6.2591147" inkscape:cx="11.982525" inkscape:cy="26.601206" inkscape:window-width="1440" inkscape:window-height="790" inkscape:window-x="0" inkscape:window-y="0" inkscape:window-maximized="1" inkscape:current-layer="Camada_1" />
  <g id="g7" transform="matrix(0.32969253,0,0,0.32969253,0.007267,2.8188927)" style="fill:#000000">
    <path d="m 0,34.66 v 22.43 l 1.22,-0.18 a 77.54,77.54 0 0 0 8.17,-2 C 16.8,51.64 19.56,49.65 23,45 28.05,38.15 29.85,31.82 30.11,19.85 L 30.3,12.22 H 0 Z" id="path1" style="fill:#000000" />
    <path d="m 33.41,12.45 c -0.3,0.29 -0.33,43.28 -0.08,44.05 0.19,0.44 0.59,0.44 2.88,0 a 31.75,31.75 0 0 0 8.17,-2.36 c 7,-3 11.72,-7.4 15.25,-14.62 2.51,-5.12 3.72,-11.38 4,-20.48 l 0.22,-6.89 H 48.73 c -8.29,0.04 -15.21,0.15 -15.32,0.3 z" id="path2" style="fill:#000000" />
    <path d="m 66.67,34.48 v 22.28 h 1.06 a 33.8,33.8 0 0 0 8.55,-2 C 85.49,51.37 91.6,44.82 94.77,34.83 A 52.7,52.7 0 0 0 96.1,29.68 77.7,77.7 0 0 0 97,15.21 l -0.26,-3 H 66.67 Z" id="path3" style="fill:#000000" />
    <path d="M 0.18,59.3 A 26.54,26.54 0 0 0 0,63.65 v 4.16 h 13.92 13.89 l -1.59,-1.4 C 22.58,63.1 15.91,60.85 6.45,59.78 1.73,59.19 0.37,59.08 0.18,59.3 Z" id="path5" style="fill:#000000" />
    <path d="m 33.22,63.46 0.11,4.16 13.74,0.11 c 9,0 13.7,0 13.7,-0.29 0,-0.59 -2.94,-2.58 -5.85,-3.94 -4.5,-2.1 -14.22,-4.16 -19.78,-4.16 h -2 z" id="path6" style="fill:#000000" />
    <path d="m 66.67,63.57 v 4.24 H 94.4 L 93.74,67.07 C 92.56,65.75 89.1,63.68 86.37,62.62 A 66.8,66.8 0 0 0 68.8,59.34 h -2.13 z" id="path7" style="fill:#000000" />
  </g>
</svg>
