<?xml version="1.0" encoding="UTF-8"?><svg id="a" xmlns="http://www.w3.org/2000/svg" viewBox="0 0 100.2 80"><defs><style>.b{fill-rule:evenodd;stroke-width:0px;}</style></defs><path class="b" d="m20.93,58.33c5.64,18.82,36.93,23.76,57.62.47-20.93,28.46-63.5,28.22-69.85-.47h12.23Z"/><path class="b" d="m87.97,22.58h-12.23c.94-21.17-35.52-24.7-57.39,0,21.87-29.64,69.85-30.58,69.62,0Z"/><path class="b" d="m63.5,22.58h12.23l-1.65,18.11c-.24,3.29,2.12,6.12,5.64,6.12,3.29,0,6.35-2.59,6.59-5.88l1.65-18.11h12.23l-1.65,17.88c-.94,9.88-9.88,17.88-19.99,17.88s-17.17-7.53-16.93-16.93v-1.18l.24-1.88c.71-5.17,1.18-10.58,1.65-15.99Zm-40.93,10.82c-2.12,8-3.76,16.7-1.65,24.93h-12.47c-1.65-7.29,0-16.23,1.41-24.7H0l2.12-11.05h32.22l-1.18,7.06c4.23-5.88,11.52-9.88,19.05-9.88,3.29,0,6.59.71,9.17,2.12l-.94,10.82c-1.88-1.88-4.7-3.06-7.76-3.06-6.35,0-12,4.94-12.47,11.29s4.23,11.29,10.58,11.29c4.23,0,8.23-2.35,10.58-5.88l-1.18,12.23c-3.53,2.12-7.53,3.29-11.76,3.29-11.76,0-20.7-9.41-19.52-20.93.24-2.59.94-4.94,1.88-7.29h-8.23v-.24Z"/></svg>