<?xml version="1.0" encoding="utf-8"?>
<!-- Generator: Adobe Illustrator 24.0.2, SVG Export Plug-In . SVG Version: 6.00 Build 0)  -->
<svg version="1.1" id="Layer_1" xmlns="http://www.w3.org/2000/svg" xmlns:xlink="http://www.w3.org/1999/xlink" x="0px" y="0px"
	 viewBox="0 0 300 120" style="enable-background:new 0 0 300 120;" xml:space="preserve">
<g>
	<path d="M95.2,53.7v-4.1h-6.3v24.3h6.3V59.3c0-2.6,1.7-3.9,4.3-3.9h3.4v-5.8H100C97.7,49.6,95.7,50.8,95.2,53.7z M108.8,40
		c-2.1,0-3.8,1.7-3.8,3.8c0,2.1,1.6,3.8,3.8,3.8c2.1,0,3.8-1.7,3.8-3.8C112.6,41.7,110.9,40,108.8,40z M105.7,73.9h6.2V49.6h-6.2
		V73.9z M141.7,61.7c0,6.9-5.6,12.6-12.6,12.6c-2.8,0-5.3-0.9-7.4-2.5V81h-6.2V49.6h6.2v2.1c2-1.5,4.6-2.5,7.4-2.5
		C136.1,49.2,141.7,54.8,141.7,61.7z M135.4,61.7c0-3.8-3.1-6.8-6.8-6.8c-3.8,0-6.8,3.1-6.8,6.8c0,3.8,3.1,6.8,6.8,6.8
		C132.3,68.5,135.4,65.5,135.4,61.7z M250.2,59.6l-3.6-1c-2.4-0.6-3.3-1.4-3.3-2.6c0-1.2,1.3-2.1,3.2-2.1c1.8,0,3.2,1.2,3.2,2.7v0.1
		h5.8v-0.1c0-4.4-3.6-7.4-8.9-7.4c-5.3,0-9.1,3-9.1,7c0,3.2,2.1,5.6,5.8,6.6l3.5,1c2.7,0.7,3.6,1.5,3.6,3c0,1.5-1.4,2.6-3.5,2.6
		c-2.2,0-3.7-1.4-3.7-3.5v-0.1h-6.1v0.1c0,5,4,8.5,9.8,8.5c5.5,0,9.6-3.4,9.6-8.1C256.1,63.9,255.1,60.9,250.2,59.6z M163.8,49.6
		h6.2v24.3h-6.2v-2.1c-2,1.5-4.6,2.5-7.4,2.5c-6.9,0-12.6-5.6-12.6-12.6s5.6-12.6,12.6-12.6c2.8,0,5.3,0.9,7.4,2.5V49.6z
		 M163.8,61.7L163.8,61.7c0-3.8-3.1-6.8-6.8-6.8s-6.8,3.1-6.8,6.8c0,3.8,3.1,6.8,6.8,6.8C160.8,68.5,163.8,65.5,163.8,61.7z
		 M192.6,40.9h6.2v32.9h-6.2v-2.1c-2,1.5-4.6,2.5-7.4,2.5c-6.9,0-12.6-5.6-12.6-12.6s5.6-12.6,12.6-12.6c2.8,0,5.3,0.9,7.4,2.5V40.9
		z M192.6,61.7c0-3.8-3.1-6.8-6.8-6.8c-3.8,0-6.8,3.1-6.8,6.8c0,3.8,3.1,6.8,6.8,6.8C189.6,68.5,192.6,65.5,192.6,61.7z M227.8,73.9
		h6.2V49.6h-6.2V73.9z M231,40c-2.1,0-3.8,1.7-3.8,3.8c0,2.1,1.6,3.8,3.8,3.8s3.8-1.7,3.8-3.8C234.7,41.7,233.1,40,231,40z
		 M283.1,61.7c0,6.9-5.6,12.6-12.6,12.6c-6.9,0-12.6-5.6-12.6-12.6s5.6-12.6,12.6-12.6C277.5,49.2,283.1,54.8,283.1,61.7z
		 M277.4,61.7c0-3.8-3.1-6.8-6.8-6.8s-6.8,3.1-6.8,6.8c0,3.8,3.1,6.8,6.8,6.8C274.3,68.5,277.4,65.5,277.4,61.7z M92,40.9H68v5.6
		h8.9v27.4h6.2V46.5H92L92,40.9L92,40.9z M213.1,67.2l-5.6-17.6H201l8.3,24.3h7.5l8.4-24.3h-6.6L213.1,67.2z M292.2,53.7v-4.1H286
		v24.3h6.3V59.3c0-2.6,1.7-3.9,4.3-3.9h3.4v-5.8h-2.9C294.8,49.6,292.8,50.8,292.2,53.7z"/>
	<g>
		<path d="M31.9,48.8c-3.1,0-6.1,0.6-8.8,1.8c5,1.9,8.8,6.4,8.8,11.7c0-5.2,3.8-9.7,8.8-11.7C38.1,49.4,35.1,48.8,31.9,48.8z"/>
		<path d="M20.2,54.5c-4.4,0-8,3.6-8,8s3.6,8,8,8c4.4,0,8-3.6,8-8S24.6,54.5,20.2,54.5z M20.2,66.7c-2.3,0-4.2-1.9-4.2-4.2
			c0-2.3,1.9-4.2,4.2-4.2c2.3,0,4.2,1.9,4.2,4.2C24.3,64.8,22.5,66.7,20.2,66.7z"/>
		<path d="M43.7,54.5c-4.4,0-8,3.6-8,8s3.6,8,8,8c4.4,0,8-3.6,8-8S48.1,54.5,43.7,54.5z M43.7,66.7c-2.3,0-4.2-1.9-4.2-4.2
			c0-2.3,1.9-4.2,4.2-4.2c2.3,0,4.2,1.9,4.2,4.2C47.9,64.8,46,66.7,43.7,66.7z"/>
		<path d="M31.9,28.1C14.3,28.1,0,42.4,0,60s14.3,31.9,31.9,31.9S63.9,77.6,63.9,60S49.6,28.1,31.9,28.1z M43.7,74.3
			c-3.1,0-5.9-1.2-8-3.1l-3.8,4.1l-3.8-4.1c-2.1,1.9-4.9,3.1-8,3.1c-6.5,0-11.8-5.3-11.8-11.8c0-3.4,1.5-6.6,3.8-8.7l-3.9-4.2h8.6
			c4.3-2.9,9.4-4.6,15-4.6c5.6,0,10.8,1.7,15,4.6h8.5l-3.9,4.2c2.4,2.2,3.8,5.3,3.8,8.7C55.5,69,50.2,74.3,43.7,74.3z"/>
	</g>
</g>
</svg>
