<?xml version="1.0" encoding="UTF-8" standalone="no"?>
<svg id="a" viewBox="0 0 32 32" version="1.1" sodipodi:docname="tripadvisor.svg" width="32" height="32" inkscape:version="1.4-beta2 (9aaf4f34, 2024-07-30)" xmlns:inkscape="http://www.inkscape.org/namespaces/inkscape" xmlns:sodipodi="http://sodipodi.sourceforge.net/DTD/sodipodi-0.dtd" xmlns="http://www.w3.org/2000/svg" xmlns:svg="http://www.w3.org/2000/svg">
  <sodipodi:namedview id="namedview5" pagecolor="#ffffff" bordercolor="#000000" borderopacity="0.25" inkscape:showpageshadow="2" inkscape:pageopacity="0.0" inkscape:pagecheckerboard="0" inkscape:deskcolor="#d1d1d1" inkscape:zoom="0.69236224" inkscape:cx="132.87842" inkscape:cy="36.830432" inkscape:window-width="1440" inkscape:window-height="872" inkscape:window-x="0" inkscape:window-y="0" inkscape:window-maximized="1" inkscape:current-layer="a" />
  <defs id="defs1">
    <style id="style1">.b{stroke-width:0px;}</style>
  </defs>
  <g id="g5" transform="matrix(0.46948357,0,0,0.46948357,-6.5599998e-8,-2.7793428)">
    <path class="b" d="m 34.03,28.05 c -3.31,0 -6.51,0.64 -9.39,1.92 5.33,2.03 9.39,6.83 9.39,12.48 0,-5.55 4.05,-10.35 9.39,-12.48 -2.77,-1.28 -5.97,-1.92 -9.39,-1.92 z" id="path2" />
    <path class="b" d="m 21.55,34.13 c -4.69,0 -8.53,3.84 -8.53,8.53 0,4.69 3.84,8.53 8.53,8.53 4.69,0 8.53,-3.84 8.53,-8.53 0,-4.69 -3.84,-8.53 -8.53,-8.53 z m 0,13.01 c -2.45,0 -4.48,-2.03 -4.48,-4.48 0,-2.45 2.03,-4.48 4.48,-4.48 2.45,0 4.48,2.03 4.48,4.48 -0.11,2.45 -2.03,4.48 -4.48,4.48 z" id="path3" />
    <path class="b" d="m 46.61,34.13 c -4.69,0 -8.53,3.84 -8.53,8.53 0,4.69 3.84,8.53 8.53,8.53 4.69,0 8.53,-3.84 8.53,-8.53 0,-4.69 -3.84,-8.53 -8.53,-8.53 z m 0,13.01 c -2.45,0 -4.48,-2.03 -4.48,-4.48 0,-2.45 2.03,-4.48 4.48,-4.48 2.45,0 4.48,2.03 4.48,4.48 0,2.45 -2.03,4.48 -4.48,4.48 z" id="path4" />
    <path class="b" d="M 34.03,5.97 C 15.25,5.97 0,21.23 0,40 0,58.77 15.25,74.03 34.03,74.03 52.81,74.03 68.16,58.78 68.16,40 68.16,21.22 52.91,5.97 34.03,5.97 Z m 12.59,49.28 c -3.31,0 -6.29,-1.28 -8.53,-3.31 l -4.05,4.37 -4.05,-4.37 c -2.24,2.03 -5.23,3.31 -8.53,3.31 -6.93,0 -12.59,-5.65 -12.59,-12.59 0,-3.63 1.6,-7.04 4.05,-9.28 L 8.76,28.9 h 9.17 c 4.59,-3.09 10.03,-4.91 16,-4.91 5.97,0 11.52,1.81 16,4.91 H 59 l -4.16,4.48 c 2.56,2.35 4.05,5.65 4.05,9.28 0.32,6.93 -5.33,12.59 -12.27,12.59 z" id="path5" />
  </g>
</svg>
