<?xml version="1.0" encoding="UTF-8"?><svg id="a" xmlns="http://www.w3.org/2000/svg" viewBox="0 0 320 80"><defs><style>.b{stroke-width:0px;}</style></defs><path class="b" d="m101.55,33.28v-4.37h-6.72v25.92h6.72v-15.57c0-2.77,1.81-4.16,4.59-4.16h3.63v-6.19h-3.09c-2.45,0-4.59,1.28-5.12,4.37Zm14.51-14.61c-2.24,0-4.05,1.81-4.05,4.05s1.71,4.05,4.05,4.05,4.05-1.81,4.05-4.05c0-2.24-1.81-4.05-4.05-4.05Zm-3.31,36.16h6.61v-25.92h-6.61v25.92Zm38.4-13.01c0,7.36-5.97,13.44-13.44,13.44-2.99,0-5.65-.96-7.89-2.67v9.81h-6.61V28.91h6.61v2.24c2.13-1.6,4.91-2.67,7.89-2.67,7.47,0,13.44,5.97,13.44,13.33Zm-6.72,0c0-4.05-3.31-7.25-7.25-7.25s-7.25,3.31-7.25,7.25,3.31,7.25,7.25,7.25,7.25-3.2,7.25-7.25Zm122.45-2.24l-3.84-1.07c-2.56-.64-3.52-1.49-3.52-2.77s1.39-2.24,3.41-2.24c1.92,0,3.41,1.28,3.41,2.88v.11h6.19v-.11c0-4.69-3.84-7.89-9.49-7.89s-9.71,3.2-9.71,7.47c0,3.41,2.24,5.97,6.19,7.04l3.73,1.07c2.88.75,3.84,1.6,3.84,3.2s-1.49,2.77-3.73,2.77-3.95-1.49-3.95-3.73v-.11h-6.51v.11c0,5.33,4.27,9.07,10.45,9.07,5.87,0,10.24-3.63,10.24-8.64-.43-2.56-1.49-5.76-6.72-7.15Zm-92.16-10.67h6.61v25.92h-6.61v-2.24c-2.13,1.6-4.91,2.67-7.89,2.67-7.36,0-13.44-5.97-13.44-13.44s5.97-13.44,13.44-13.44c2.99,0,5.65.96,7.89,2.67v-2.13Zm0,12.91h0c0-4.05-3.31-7.25-7.25-7.25s-7.25,3.31-7.25,7.25,3.31,7.25,7.25,7.25,7.25-3.2,7.25-7.25Zm30.72-22.19h6.61v35.09h-6.61v-2.24c-2.13,1.6-4.91,2.67-7.89,2.67-7.36,0-13.44-5.97-13.44-13.44s5.97-13.44,13.44-13.44c2.99,0,5.65.96,7.89,2.67v-11.31Zm0,22.19c0-4.05-3.31-7.25-7.25-7.25s-7.25,3.31-7.25,7.25,3.31,7.25,7.25,7.25,7.25-3.2,7.25-7.25Zm37.55,13.01h6.61v-25.92h-6.61v25.92Zm3.41-36.16c-2.24,0-4.05,1.81-4.05,4.05s1.71,4.05,4.05,4.05,4.05-1.81,4.05-4.05c-.11-2.24-1.81-4.05-4.05-4.05Zm55.57,23.15c0,7.36-5.97,13.44-13.44,13.44s-13.44-5.97-13.44-13.44,5.97-13.44,13.44-13.44c7.47.11,13.44,6.08,13.44,13.44Zm-6.08,0c0-4.05-3.31-7.25-7.25-7.25s-7.25,3.31-7.25,7.25,3.31,7.25,7.25,7.25,7.25-3.2,7.25-7.25ZM98.13,19.63h-25.6v5.97h9.49v29.23h6.61v-29.23h9.49v-5.97h0Zm129.17,28.05l-5.97-18.77h-6.93l8.85,25.92h8l8.96-25.92h-7.04l-5.87,18.77Zm84.37-14.4v-4.37h-6.61v25.92h6.72v-15.57c0-2.77,1.81-4.16,4.59-4.16h3.63v-6.19h-3.09c-2.45,0-4.59,1.28-5.23,4.37Z"/><path class="b" d="m34.03,28.05c-3.31,0-6.51.64-9.39,1.92,5.33,2.03,9.39,6.83,9.39,12.48,0-5.55,4.05-10.35,9.39-12.48-2.77-1.28-5.97-1.92-9.39-1.92Z"/><path class="b" d="m21.55,34.13c-4.69,0-8.53,3.84-8.53,8.53s3.84,8.53,8.53,8.53,8.53-3.84,8.53-8.53-3.84-8.53-8.53-8.53Zm0,13.01c-2.45,0-4.48-2.03-4.48-4.48s2.03-4.48,4.48-4.48,4.48,2.03,4.48,4.48c-.11,2.45-2.03,4.48-4.48,4.48Z"/><path class="b" d="m46.61,34.13c-4.69,0-8.53,3.84-8.53,8.53s3.84,8.53,8.53,8.53,8.53-3.84,8.53-8.53-3.84-8.53-8.53-8.53Zm0,13.01c-2.45,0-4.48-2.03-4.48-4.48s2.03-4.48,4.48-4.48,4.48,2.03,4.48,4.48-2.03,4.48-4.48,4.48Z"/><path class="b" d="m34.03,5.97C15.25,5.97,0,21.23,0,40s15.25,34.03,34.03,34.03,34.13-15.25,34.13-34.03S52.91,5.97,34.03,5.97Zm12.59,49.28c-3.31,0-6.29-1.28-8.53-3.31l-4.05,4.37-4.05-4.37c-2.24,2.03-5.23,3.31-8.53,3.31-6.93,0-12.59-5.65-12.59-12.59,0-3.63,1.6-7.04,4.05-9.28l-4.16-4.48h9.17c4.59-3.09,10.03-4.91,16-4.91s11.52,1.81,16,4.91h9.07l-4.16,4.48c2.56,2.35,4.05,5.65,4.05,9.28.32,6.93-5.33,12.59-12.27,12.59Z"/></svg>