<?xml version="1.0" encoding="UTF-8" standalone="no"?>
<!DOCTYPE svg PUBLIC "-//W3C//DTD SVG 1.1//EN" "http://www.w3.org/Graphics/SVG/1.1/DTD/svg11.dtd">
<!-- Created with Vectornator (http://vectornator.io/) -->
<svg height="100%" stroke-miterlimit="10" style="fill-rule:nonzero;clip-rule:evenodd;stroke-linecap:round;stroke-linejoin:round;" version="1.1" viewBox="0 0 220.26 80" width="100%" xml:space="preserve" xmlns="http://www.w3.org/2000/svg" xmlns:xlink="http://www.w3.org/1999/xlink">
<defs/>
<clipPath id="ArtboardFrame">
<rect height="80" width="220.26" x="0" y="0"/>
</clipPath>
<g clip-path="url(#ArtboardFrame)" id="Sem-Título">
<path d="M17.8073 62.1036C11.0947 62.1036 6.10072 58.6574 6.10072 50.3971L6.10072 37.1789L0 37.1789L0 30.0164C6.71259 28.2707 9.54699 22.5029 9.83493 17.536L16.7905 17.536L16.7905 28.8466L24.9518 28.8466L24.9518 37.1699L16.7905 37.1699L16.7905 48.6784C16.7905 52.1247 18.5361 53.3215 21.3075 53.3215L25.2397 53.3215L25.2397 62.1306L17.7983 62.0946L17.8073 62.1036ZM42.768 62.4905C46.5742 62.4905 50.9653 60.8439 53.3498 57.9105L53.3498 62.1036L65.8572 62.1036L65.8572 54.9771L62.6628 54.9771L62.6628 28.8556L47.51 28.8556L47.51 36.1171L51.8381 36.1171L51.8381 48.6964C51.8381 49.6952 50.9923 53.9153 45.3145 53.9153C41.6432 53.9153 40.9954 51.7108 40.9954 48.9484L40.9954 28.8556L29.8377 28.8556L29.8377 49.4163C29.8377 54.5362 32.1592 62.4995 42.741 62.4995L42.777 62.4995L42.768 62.4905ZM69.8883 62.1036L88.2445 62.1036L88.2445 54.9771L84.4383 54.9771L84.4383 42.5597C84.4383 40.7331 86.0129 37.0619 90.7189 37.0619C94.5251 37.0619 95.299 39.3834 95.299 42.1278L95.299 54.9771L91.5828 54.9771L91.5828 62.1036L109.804 62.1036L109.804 54.9771L105.998 54.9771L105.998 42.5597C105.998 40.7511 107.383 37.0439 112.116 37.0439C115.959 37.0439 116.885 39.3654 116.885 42.1098L116.885 54.9681L113.214 54.9681L113.214 62.0946L131.408 62.0946L131.408 54.9681L127.692 54.9681L127.692 43.3606C127.692 36.522 125.119 28.4687 114.924 28.4687C109.894 28.4687 105.773 30.8532 104.018 33.7866C101.814 30.4663 98.5023 28.4687 93.5443 28.4687C89.6122 28.4687 85.2931 30.1423 82.9626 33.3367L82.9626 28.8466L69.1595 28.8466L69.1595 36.1081L73.6045 36.1081L73.6045 54.9681L69.8343 54.9681L69.8703 62.0946L69.8883 62.1036ZM154.695 62.4905C163.982 62.4905 168.984 55.526 168.984 45.0792C168.984 34.6324 164.341 28.4687 154.884 28.4687C151.78 28.4867 148.766 29.4585 146.246 31.2761L146.246 17.5L130.859 17.5L130.859 24.6985L135.314 24.6985L135.314 62.1396L145.535 62.1396L145.535 59.2062C148.082 61.3568 151.321 62.5265 154.659 62.4995L154.695 62.4995L154.695 62.4905ZM152.374 54.4102C149.117 54.4102 145.922 52.3497 145.922 45.835C145.922 37.9977 149.693 36.612 152.311 36.612C155.343 36.612 158.016 39.0595 158.016 45.1602C157.98 53.9423 154.048 54.1943 152.338 54.3922L152.374 54.4102ZM170.982 62.1216L189.419 62.1216L189.419 54.9681L185.487 54.9681L185.487 17.527L170.271 17.527L170.271 24.7255L174.734 24.7255L174.734 54.9771L170.964 54.9771L170.982 62.1306L170.982 62.1216ZM193.495 62.1216L211.654 62.1216L211.654 54.9681L207.946 54.9681L207.946 45.6821C207.946 39.3564 212.391 37.9797 215.784 37.9797L220.265 37.9797L220.265 28.4327L216.593 28.4327C212.463 28.4327 208.657 30.4303 206.948 33.6246L206.948 28.8466L193.144 28.8466L193.144 36.1081L197.149 36.1081L197.149 54.9681L193.477 54.9681L193.504 62.1216L193.495 62.1216Z" fill="#000000" fill-rule="nonzero" opacity="1" stroke="none"/>
</g>
</svg>
