<?xml version="1.0" encoding="UTF-8"?><svg id="a" xmlns="http://www.w3.org/2000/svg" viewBox="0 0 244.77 80"><defs><style>.b{stroke-width:0px;}</style></defs><path class="b" d="m19.79,64.57c-7.46,0-13.01-3.83-13.01-13.01v-14.69H0v-7.96c7.46-1.94,10.61-8.35,10.93-13.87h7.73v12.57h9.07v9.25h-9.07v12.79c0,3.83,1.94,5.16,5.02,5.16h4.37v9.79l-8.27-.04Zm27.74.43c4.23,0,9.11-1.83,11.76-5.09v4.66h13.9v-7.92h-3.55v-29.03h-16.84v8.07h4.81v13.98c0,1.11-.94,5.8-7.25,5.8-4.08,0-4.8-2.45-4.8-5.52v-22.33h-12.4v22.85c0,5.69,2.58,14.54,14.34,14.54h.04Zm30.14-.43h20.4v-7.92h-4.23v-13.8c0-2.03,1.75-6.11,6.98-6.11,4.23,0,5.09,2.58,5.09,5.63v14.28h-4.13v7.92h20.25v-7.92h-4.23v-13.8c0-2.01,1.54-6.13,6.8-6.13,4.27,0,5.3,2.58,5.3,5.63v14.29h-4.08v7.92h20.22v-7.92h-4.13v-12.9c0-7.6-2.86-16.55-14.19-16.55-5.59,0-10.17,2.65-12.12,5.91-2.45-3.69-6.13-5.91-11.64-5.91-4.37,0-9.17,1.86-11.76,5.41v-4.99h-15.34v8.07h4.94v20.96h-4.19l.04,7.92Zm94.25.43c10.32,0,15.88-7.74,15.88-19.35s-5.16-18.46-15.67-18.46c-3.45.02-6.8,1.1-9.6,3.12v-15.31h-17.1v8h4.95v41.61h11.36v-3.26c2.83,2.39,6.43,3.69,10.14,3.66h.04Zm-2.58-8.98c-3.62,0-7.17-2.29-7.17-9.53,0-8.71,4.19-10.25,7.1-10.25,3.37,0,6.34,2.72,6.34,9.5-.04,9.76-4.41,10.04-6.31,10.26l.04.02Zm20.68,8.57h20.49v-7.95h-4.37V15.03h-16.91v8h4.96v33.62h-4.19l.02,7.95Zm25.02,0h20.18v-7.95h-4.12v-10.32c0-7.03,4.94-8.56,8.71-8.56h4.98v-10.61h-4.08c-4.59,0-8.82,2.22-10.72,5.77v-5.31h-15.34v8.07h4.45v20.96h-4.08l.03,7.95Z"/></svg>