<?xml version="1.0" encoding="UTF-8" standalone="no"?>
<!-- Uploaded to: SVG Repo, www.svgrepo.com, Generator: SVG Repo Mixer Tools -->

<svg fill="#000000" width="32" height="32" viewBox="0 0 0.96 0.96" role="img" version="1.1" id="svg1" sodipodi:docname="tunein.svg" inkscape:version="1.4-beta2 (9aaf4f34, 2024-07-30)" xmlns:inkscape="http://www.inkscape.org/namespaces/inkscape" xmlns:sodipodi="http://sodipodi.sourceforge.net/DTD/sodipodi-0.dtd" xmlns="http://www.w3.org/2000/svg" xmlns:svg="http://www.w3.org/2000/svg" xmlns:rdf="http://www.w3.org/1999/02/22-rdf-syntax-ns#" xmlns:cc="http://creativecommons.org/ns#" xmlns:dc="http://purl.org/dc/elements/1.1/">
  <defs id="defs1" />
  <sodipodi:namedview id="namedview1" pagecolor="#ffffff" bordercolor="#000000" borderopacity="0.25" inkscape:showpageshadow="2" inkscape:pageopacity="0.0" inkscape:pagecheckerboard="0" inkscape:deskcolor="#d1d1d1" inkscape:zoom="0.17676923" inkscape:cx="359.22542" inkscape:cy="636.42299" inkscape:window-width="1440" inkscape:window-height="872" inkscape:window-x="0" inkscape:window-y="0" inkscape:window-maximized="1" inkscape:current-layer="svg1" />
  <title id="title1">TuneIn icon</title>
  <path d="m 0.30639994,0.4559074 v 0.02968 c 0,0.0042 -0.0044,0.0042 -0.0044,0.0042 h -0.03388 c 0,0 -0.0044,0 -0.0044,0.0044 v 0.1612 c 0,0.0044 -0.0042,0.0044 -0.0042,0.0044 h -0.0342 c -0.00424,0 -0.00424,-0.0044 -0.00424,-0.0044 v -0.1612 c 0,0 0,-0.0044 -0.00436,-0.0044 h -0.0337601 c -0.0042,0 -0.0042,-0.0042 -0.0042,-0.0042 v -0.02968 c 0,-0.00424 0.0042,-0.00424 0.0042,-0.00424 h 0.12343998 v 0.00424 M 0.92471983,0.1551075 H 0.49203991 c -0.0272,0 -0.03344,0.0064 -0.03344,0.03264 v 0.09656 c 0,0.01972 0,0.01972 -0.01968,0.01972 H 0.03251998 C 0.00547999,0.3040274 -1.0005e-8,0.3094674 -1.0005e-8,0.3369875 v 0.2163999 c 0,0.07016 0,0.14032 9.19999105e-4,0.2106399 0,0.03688 0.004080001,0.0408 0.0416000009,0.0408 h 0.35307994 c 0.02656,0 0.0528,4e-4 0.07936,-3.6e-4 0.0192,-2.8e-4 0.02676,-0.00812 0.02676,-0.02732 V 0.6747874 c 0,-0.01876 0,-0.01876 0.01876,-0.01876 h 0.40779988 c 0.0253204,0 0.0317202,-0.00608 0.0317202,-0.0312 V 0.1894275 c 0,-0.02796 -0.00656,-0.03436 -0.0353202,-0.03436 z M 0.45911991,0.7401074 c 0,0.02 -5.2e-4,0.02 -0.021,0.02 -0.12591998,0 -0.25171996,0 -0.37779994,3.2e-4 -0.0128,0 -0.0172,-0.00312 -0.0172,-0.01672 6.4001e-4,-0.1264 3.2001e-4,-0.2529599 0,-0.3791999 -3.1999e-4,-0.0136 0.00344,-0.01784 0.01768,-0.01784 0.12747998,4.8e-4 0.25451996,3.2e-4 0.38199994,3.2e-4 0.00468,0 0.0092,6e-4 0.016,9.207e-4 0,0.0072 0,0.0128 4e-4,0.01768 -1.2e-4,0.12452 -1.2e-4,0.24968 -1.2e-4,0.3745199 z m 0.30759998,-0.23376 c 0,0.00408 -0.004163,0.00408 -0.004163,0.00408 H 0.65975988 c -0.00424,0 -0.00424,-0.00408 -0.00424,-0.00408 v -0.02876 c 0,-0.00404 0.0042,-0.00404 0.0042,-0.00404 h 0.02468 c 0,0 0.004082,0 0.004082,-0.00408 v -0.12312 c 0,0 0,-0.00404 -0.004082,-0.00404 h -0.0206 c -0.00408,0 -0.00408,-0.00408 -0.00408,-0.00408 v -0.0328 c 0,-0.00424 0.00408,-0.00424 0.00408,-0.00424 h 0.0946799 c 0.004082,0 0.004082,0.00424 0.004082,0.00424 v 0.0286 c 0,0.0042 -0.004082,0.0042 -0.004082,0.0042 h -0.02064 c 0,0 -0.004041,0 -0.004041,0.00408 v 0.12296 c 0,0 0,0.0042 0.004001,0.0042 h 0.0247199 c 0.004238,0 0.004238,0.00408 0.004238,0.00408 z m 0,0" id="path1" style="fill:#000000;stroke-width:0.04" />
  <metadata id="metadata1">
    <rdf:RDF>
      <cc:Work rdf:about="">
        <dc:title>TuneIn icon</dc:title>
      </cc:Work>
    </rdf:RDF>
  </metadata>
</svg>
