<svg width="32" height="32" viewBox="0 0 0.96 0.96" xmlns="http://www.w3.org/2000/svg">
  <path d="M.306.456v.03C.306.49.302.49.302.49H.268S.264.49.264.494v.161C.264.66.26.66.26.66H.225C.221.66.221.655.221.655v-.16S.221.49.217.49H.183C.179.49.179.486.179.486v-.03c0-.004.004-.004.004-.004h.123v.004m.619-.3H.492C.465.155.459.161.459.187v.096c0 .02 0 .02-.02.02H.033C.005.304 0 .309 0 .337v.427c0 .037.005.04.043.04h.432c.02 0 .027-.008.027-.027V.675c0-.019 0-.019.018-.019h.408C.954.656.96.65.96.625V.189C.96.161.953.155.925.155zM.459.74c0 .02 0 .02-.02.02H.06C.048.76.043.757.043.744v-.38c0-.013.004-.017.018-.017h.398V.74zM.767.506C.767.51.763.51.763.51H.66C.656.51.656.506.656.506V.478C.656.474.66.474.66.474h.024s.004 0 .004-.005V.346s0-.004-.004-.004h-.02C.66.342.66.338.66.338V.305C.66.301.664.301.664.301h.094c.005 0 .005.004.005.004v.029c0 .004-.005.004-.005.004h-.02s-.004 0-.004.004v.123s0 .004.004.004h.025c.004 0 .004.005.004.005zm0 0" style="fill:#000;stroke-width:.04"/>
</svg>