<?xml version="1.0" encoding="utf-8"?>
<!-- Generator: Adobe Illustrator 23.0.6, SVG Export Plug-In . SVG Version: 6.00 Build 0)  -->
<svg version="1.1" id="Camada_1" xmlns="http://www.w3.org/2000/svg" xmlns:xlink="http://www.w3.org/1999/xlink" x="0px" y="0px"
	 viewBox="0 0 300 120" style="enable-background:new 0 0 300 120;" xml:space="preserve">
<title>tunein</title>
<g id="TuneIn-Marquee-Page-1">
	<g id="TuneIn-Marquee">
		<path id="TuneIn_Marquee" d="M259.4,28.4c0-0.6-0.5-1.1-1.1-1.1h-5.5c-0.6,0-1.1,0.5-1.1,1.1v20.5c0,0.1-0.1,0.3-0.3,0.3
			c-0.1,0-0.2-0.1-0.2-0.2l-7.5-20.7c-0.2-0.6-0.8-1-1.4-1H236c-0.6,0-1.1,0.5-1.1,1.1v36c0,0.6,0.5,1.1,1.1,1.1h5.5
			c0.6,0,1.1-0.5,1.1-1.1V45.5c0-0.1,0.1-0.3,0.3-0.3c0.1,0,0.2,0.1,0.2,0.2l7.4,19.1c0.2,0.6,0.9,1,1.5,0.9h6.4
			c0.6,0,1.1-0.5,1.1-1.1V28.4H259.4z M228.8,59.2c0-0.6-0.5-1.1-1.1-1.1h-4.6c-0.3,0-0.5-0.2-0.5-0.4c0,0,0,0,0-0.1V35.2
			c0-0.3,0.2-0.5,0.4-0.5c0,0,0,0,0.1,0h4.1c0.6,0,1.1-0.5,1.1-1.1v-5.2c0-0.6-0.5-1.1-1.1-1.1h-16.9c-0.6,0-1.1,0.5-1.1,1.1v5.2
			c0,0.6,0.5,1.1,1.1,1.1h4.1c0.3,0,0.5,0.2,0.5,0.4c0,0,0,0,0,0.1v22.4c0,0.3-0.2,0.5-0.4,0.5c0,0,0,0-0.1,0h-4.6
			c-0.6,0-1.1,0.5-1.1,1.1v5.2c0,0.6,0.5,1.1,1.1,1.1h18c0.6,0,1.1-0.5,1.1-1.1v-5.2H228.8z M180,35.5H22.5c-0.4,0-0.7,0.3-0.7,0.7
			c0,0,0,0,0,0v75c0,0.4,0.3,0.7,0.7,0.7c0,0,0,0,0,0h156.8c0.4,0,0.7-0.3,0.7-0.7c0,0,0,0,0,0V35.5z M286.4,4.1v84.5
			c0,2.2-1.8,4.1-4,4.1c0,0-0.1,0-0.1,0h-94.1v23.2c0,2.2-1.8,4.1-4,4.1c0,0-0.1,0-0.1,0H17.7c-2.2,0-4.1-1.8-4.1-4c0,0,0-0.1,0-0.1
			V31.4c0-2.2,1.8-4.1,4-4.1c0,0,0.1,0,0.1,0H180V4.1c0-2.2,1.8-4.1,4-4.1c0,0,0.1,0,0.1,0h98.2C284.6,0,286.4,1.8,286.4,4.1z
			 M155.8,85.1h-12.9c-0.3,0-0.5-0.2-0.5-0.4c0,0,0,0,0-0.1V78c0-0.3,0.2-0.5,0.4-0.5c0,0,0,0,0.1,0h12.3c0.6,0,1.1-0.5,1.1-1.1
			v-5.5c0-0.6-0.5-1.1-1.1-1.1h-12.3c-0.3,0-0.5-0.2-0.5-0.4c0,0,0,0,0-0.1v-6.5c0-0.3,0.2-0.5,0.4-0.5c0,0,0,0,0.1,0h12.7
			c0.6,0,1.1-0.5,1.1-1.1v-5.5c0-0.6-0.5-1.1-1.1-1.1h-19.8c-0.6,0-1.1,0.5-1.1,1.1v36c0,0.6,0.5,1.1,1.1,1.1h20
			c0.6,0,1.1-0.5,1.1-1.1v-5.5C156.9,85.6,156.4,85.1,155.8,85.1L155.8,85.1z M127.6,54.5h-5.5c-0.6,0-1.1,0.5-1.1,1.1v20.5
			c0,0.1-0.1,0.3-0.3,0.3c-0.1,0-0.2-0.1-0.2-0.2L113,55.5c-0.2-0.6-0.8-1-1.4-1h-6.5c-0.6,0-1.1,0.5-1.1,1.1v36
			c0,0.6,0.5,1.1,1.1,1.1h5.5c0.6,0,1.1-0.5,1.1-1.1V72.8c0-0.1,0.1-0.3,0.3-0.3c0.1,0,0.2,0.1,0.2,0.2l7.4,19.1
			c0.2,0.6,0.9,1,1.5,0.9h6.4c0.6,0,1.1-0.5,1.1-1.1v-36c0.1-0.5-0.3-1-0.9-1.1C127.7,54.5,127.6,54.5,127.6,54.5z M96.8,54.5h-5.5
			c-0.6,0-1.1,0.5-1.1,1.1v25.6c0,2.4-2,4.4-5.3,4.4s-5.2-2-5.2-4.4V55.6c0-0.6-0.5-1.1-1.1-1.1h-5.5c-0.6,0-1.1,0.5-1.1,1.1v25.6
			c0,6.6,5.5,12.1,12.9,12.1s13-5.5,13-12.1V55.6C97.9,55,97.4,54.5,96.8,54.5z M66.8,55.6v5.5c0,0.6-0.5,1.1-1.1,1.1h-6.8
			c-0.3,0-0.5,0.2-0.5,0.4c0,0,0,0,0,0.1v28.9c0,0.6-0.5,1.1-1.1,1.1h-5.5c-0.6,0-1.1-0.5-1.1-1.1V62.7c0-0.3-0.2-0.5-0.4-0.5
			c0,0,0,0-0.1,0h-6.8c-0.6,0-1.1-0.5-1.1-1.1v-5.5c0-0.6,0.5-1.1,1.1-1.1h22.4C66.4,54.6,66.8,55,66.8,55.6z"/>
	</g>
</g>
</svg>
