<?xml version="1.0" encoding="UTF-8"?><svg id="a" xmlns="http://www.w3.org/2000/svg" xmlns:xlink="http://www.w3.org/1999/xlink" viewBox="0 0 80 80"><defs><style>.d{fill:none;}.d,.e{stroke-width:0px;}.f{clip-path:url(#b);}</style><clipPath id="b"><rect class="d" y="7.43" width="80" height="65.15"/></clipPath></defs><g class="f"><g id="c"><path class="e" d="m49.6,8.49c6.01-2.4,13.18-.59,17.64,3.99,3.69-.27,7.33-2.07,10.59-3.88-1.26,3.8-3.83,7.04-7.25,9.13,3.27-.27,6.4-1.36,9.43-2.56-2.22,3.28-5,6.16-8.2,8.49.44,13.03-4.37,25.69-13.35,35.14-6.17,6.46-14.15,10.89-22.9,12.7-12.07,2.6-25.21.49-35.56-6.31,8.67,1.02,17.4-1.43,24.26-6.83-6.95.07-13.23-4.92-15.41-11.39,2.38.45,4.83.4,7.19-.15-1.15-.89-2.77-.82-3.98-1.64-5.51-2.76-8.89-8.76-8.97-14.85,2.38,1.25,4.99,2,7.66,2.2C3.56,27.99,1.15,17.71,5.56,10.43c8.16,10.23,20.79,16.54,33.81,17.28-2.05-7.79,2.63-16.56,10.22-19.22Z"/></g></g></svg>