<?xml version="1.0" encoding="UTF-8" standalone="no"?>
<!DOCTYPE svg PUBLIC "-//W3C//DTD SVG 1.1//EN" "http://www.w3.org/Graphics/SVG/1.1/DTD/svg11.dtd">
<!-- Created with Vectornator (http://vectornator.io/) -->
<svg height="100%" stroke-miterlimit="10" style="fill-rule:nonzero;clip-rule:evenodd;stroke-linecap:round;stroke-linejoin:round;" version="1.1" viewBox="0 0 98.24 80" width="100%" xml:space="preserve" xmlns="http://www.w3.org/2000/svg" xmlns:xlink="http://www.w3.org/1999/xlink">
<defs/>
<path d="M0 0L98.24 0L98.24 80L0 80L0 0Z" fill="#000000" fill-opacity="0" fill-rule="nonzero" opacity="1" stroke="none"/>
<clipPath id="ArtboardFrame">
<rect height="80" width="98.24" x="0" y="0"/>
</clipPath>
<g clip-path="url(#ArtboardFrame)" id="Sem-Título">
<path d="M60.9033 1.30517C68.2833-1.64236 77.0825 0.577388 82.5702 6.20318C87.0972 5.8684 91.566 3.65593 95.5689 1.43618C94.0165 6.10703 90.8606 10.0775 86.6605 12.6441C90.678 12.3093 94.5209 10.9775 98.24 9.50005C95.5112 13.5308 92.1058 17.0592 88.1744 19.9292C88.7108 35.9273 82.8064 51.4718 71.7841 63.0797C64.2103 71.0087 54.405 76.448 43.6687 78.6762C28.8504 81.8712 12.7149 79.2802 1.42109e-14 70.9325C10.6491 72.1889 21.3619 69.1712 29.7893 62.5411C21.2594 62.6285 13.5446 56.5005 10.8662 48.5531C13.7896 49.108 16.7966 49.046 19.6946 48.3711C18.2826 47.2722 16.2957 47.3595 14.8037 46.3552C8.03504 42.9637 3.88651 35.5985 3.7919 28.1168C6.71072 29.6531 9.91354 30.5745 13.2025 30.8242C4.37415 25.2566 1.41195 12.6295 6.82687 3.68504C16.8488 16.2466 32.3512 23.9903 48.3485 24.9073C45.8303 15.3369 51.5727 4.57294 60.9033 1.30517Z" fill="#000000" fill-rule="nonzero" opacity="1" stroke="none"/>
</g>
</svg>
