<?xml version="1.0" encoding="utf-8"?>
<!-- Generator: Adobe Illustrator 23.0.6, SVG Export Plug-In . SVG Version: 6.00 Build 0)  -->
<svg version="1.1" id="Camada_1" xmlns="http://www.w3.org/2000/svg" xmlns:xlink="http://www.w3.org/1999/xlink" x="0px" y="0px"
	 viewBox="0 0 300 120" style="enable-background:new 0 0 300 120;" xml:space="preserve">
<path d="M32.7,69.6c0,13.9,9.1,22.8,21.1,22.8c11.9,0,21.1-9.2,21.1-22.8v-53h12.9v85.8H75v-8c-5.8,6-13.7,9.4-22.7,9.4
	c-18.4,0-32.5-13.4-32.5-33.6V16.6h12.9C32.7,16.6,32.7,69.6,32.7,69.6z M100.4,102.4V16.6h12.4v31.3c5.8-6,13.8-9.3,22.2-9.3
	c18.4,0,32.9,14.6,32.9,32.7c0,18-14.5,32.6-32.9,32.6c-8.7,0-16.7-3.6-22.3-9.3v7.8H100.4z M112.6,71.3c0,12,9.6,21.7,21.6,21.7
	c11.8,0,21.5-9.7,21.5-21.7c0-12.1-9.7-21.7-21.5-21.7C122.3,49.6,112.6,59.1,112.6,71.3z M175.2,71.1c0-17.7,13.9-32.5,32.1-32.5
	c18,0,31.3,13.9,31.3,32.5v4h-50.9c1.7,10.2,10.2,17.8,20.7,17.8c7.2,0,13.4-2.9,18-9.2l9,6.6c-6.3,8.3-15.6,13.4-27,13.4
	C189.7,103.8,175.2,89.8,175.2,71.1z M207.1,49.4c-9.2,0-16.9,6.4-19.1,15.9h38.1C224,55.8,216.3,49.4,207.1,49.4z M279.8,50.9h-5.2
	c-8.1,0-14,6.3-14,15.9v35.6h-12.4V39.9h12.3v7.7c3.1-5,8.1-8.2,15-8.2h4.3V50.9z"/>
</svg>
