<svg class="icon icon-ubisoft-logo-desktop" aria-labelledby="logo-desktop-title" width="32" height="32" xmlns="http://www.w3.org/2000/svg">
  <path class="st0" d="M31.397 15.995C31.094-.415 9.314-6.494.907 8.803c.405.303.911.709 1.215.911-.608 1.317-1.114 2.735-1.317 4.052-.101.912-.202 1.824-.202 2.837C.603 25.112 7.49 32 16 32c8.51 0 15.397-6.888 15.397-15.397v-.608zM4.452 18.73c-.203 1.62-.101 2.228-.101 2.431l-.406.101c-.1-.304-.506-1.215-.607-2.532-.406-4.964 2.937-9.421 8.104-10.231 4.76-.71 9.218 2.228 10.332 6.381l-.405.102c-.101-.102-.304-.405-1.013-1.216-5.673-5.774-14.688-3.14-15.904 4.964Zm14.587 2.735c-.81 1.114-2.026 1.823-3.444 1.823-2.33 0-4.255-1.924-4.255-4.254a4.133 4.133 0 0 1 3.95-4.154c1.318-.1 2.635.71 3.242 1.824a3.568 3.568 0 0 1-.607 3.95c.405.304.81.608 1.114.81zm8.813.203c-2.229 5.064-6.787 7.698-11.65 7.597-9.42-.507-12.155-11.244-5.875-15.195l.304.304c-.101.101-.506.405-1.013 1.62-.709 1.419-.912 2.736-.81 3.648.506 7.597 11.041 9.116 14.688 1.62C28.055 10.93 15.797.496 4.857 8.5l-.202-.304C7.49 3.738 13.062 1.712 18.43 3.028c8.205 2.128 12.663 10.637 9.421 18.64Z" style="fill:#000;stroke-width:1.01299"/>
</svg>