<?xml version="1.0" encoding="UTF-8" standalone="no"?>
<svg role="img" class="icon icon-ubisoft-logo-desktop" version="1.1" aria-labelledby="logo-desktop-title" viewBox="0 0 32.000001 32" id="svg2" sodipodi:docname="ubisoft.svg" width="32" height="32" inkscape:version="1.4-beta2 (9aaf4f34, 2024-07-30)" xmlns:inkscape="http://www.inkscape.org/namespaces/inkscape" xmlns:sodipodi="http://sodipodi.sourceforge.net/DTD/sodipodi-0.dtd" xmlns="http://www.w3.org/2000/svg" xmlns:svg="http://www.w3.org/2000/svg" xmlns:rdf="http://www.w3.org/1999/02/22-rdf-syntax-ns#" xmlns:cc="http://creativecommons.org/ns#" xmlns:dc="http://purl.org/dc/elements/1.1/">
  <defs id="defs2" />
  <sodipodi:namedview id="namedview2" pagecolor="#ffffff" bordercolor="#000000" borderopacity="0.25" inkscape:showpageshadow="2" inkscape:pageopacity="0.0" inkscape:pagecheckerboard="0" inkscape:deskcolor="#d1d1d1" inkscape:zoom="8.0791928" inkscape:cx="14.976744" inkscape:cy="20.360945" inkscape:window-width="1440" inkscape:window-height="790" inkscape:window-x="0" inkscape:window-y="0" inkscape:window-maximized="1" inkscape:current-layer="svg2" />
  <title id="logo-desktop-title">Ubisoft</title>
  <path class="st0" d="M 31.397444,15.994762 C 31.093548,-0.41567219 9.3142678,-6.4936107 0.9064529,8.8025344 1.3116488,9.1064314 1.8181437,9.5116277 2.1220406,9.7142254 1.5142467,11.031112 1.0077519,12.449297 0.8051539,13.766184 0.70385498,14.677875 0.602556,15.589566 0.602556,16.602556 0.602556,25.111669 7.4908862,32 16,32 c 8.509114,0 15.397444,-6.888331 15.397444,-15.397444 0,-0.202599 0,-0.405196 0,-0.607794 z M 4.451917,18.729834 C 4.2493191,20.350617 4.350618,20.958411 4.350618,21.16101 L 3.9454221,21.262308 C 3.8441232,20.958411 3.4389273,20.046721 3.3376283,18.729834 2.9324324,13.766184 6.2752985,9.3090293 11.441546,8.4986375 16.202598,7.7895447 20.659753,10.727215 21.774042,14.880473 l -0.405197,0.101299 C 21.267547,14.880473 21.064949,14.576576 20.355856,13.766184 14.683113,7.9921427 5.6675047,10.625916 4.451917,18.729834 Z m 14.587053,2.735072 c -0.810393,1.114289 -2.02598,1.823382 -3.444166,1.823382 -2.329876,0 -4.254556,-1.924681 -4.254556,-4.254558 0,-2.228576 1.722081,-4.051958 3.950659,-4.153257 v 0 c 1.316887,-0.101299 2.633774,0.709093 3.241568,1.823382 0.607793,1.316886 0.405196,2.836371 -0.607794,3.95066 0.405196,0.303896 0.810391,0.607793 1.114289,0.810391 z m 8.81301,0.202598 C 25.623403,26.732453 21.064949,29.366226 16.202598,29.264927 6.7817934,28.758433 4.0467212,18.020741 10.327257,14.070081 l 0.303898,0.303897 c -0.1013,0.101299 -0.506495,0.405196 -1.0129903,1.620784 -0.7090928,1.418185 -0.9116908,2.735072 -0.8103918,3.646762 0.5064949,7.597424 11.0415881,9.116909 14.6883521,1.620784 C 28.054578,10.929813 15.797402,0.49601858 4.8571129,8.4986375 L 4.654515,8.1947406 C 7.4908862,3.7375857 13.062329,1.7116063 18.431176,3.0284929 26.636393,5.1557713 31.093548,13.664885 27.85198,21.667504 Z" id="path1" style="fill:#000000;stroke-width:1.01299" />
  <metadata id="metadata2">
    <rdf:RDF>
      <cc:Work rdf:about="">
        <dc:title>Ubisoft</dc:title>
      </cc:Work>
    </rdf:RDF>
  </metadata>
</svg>
