<?xml version="1.0" encoding="UTF-8"?><svg id="a" xmlns="http://www.w3.org/2000/svg" viewBox="0 0 263.16 80"><polygon points="34.47 32.28 50.26 32.28 50.26 60.35 0 60.35 0 32.28 15.79 32.28 15.79 46.32 34.39 46.32 34.39 32.28 34.47 32.28" style="stroke-width:0px;"/><path d="m87.98,46.58c0,4.74-3.16,7.54-7.46,7.54s-7.37-2.81-7.37-7.54v-22.54h-7.02v22.54c0,8.86,6.32,14.47,14.47,14.47s14.47-5.61,14.47-14.47v-22.54h-7.02l-.09,22.54h0Z" style="stroke-width:0px;"/><path d="m113.16,34.47c-2.89-.09-5.7,1.32-7.28,3.77v-3.07h-6.58v25.18h6.84v-14.56c0-2.89,1.75-5.26,4.74-5.26,3.25,0,4.65,2.19,4.65,5v14.74h6.84v-15.79c-.09-5.53-2.98-10-9.21-10" style="stroke-width:0px;"/><path d="m138.07,45.09l-3.77-.7c-1.4-.26-2.28-1.05-2.28-2.28,0-1.4,1.23-2.46,3.07-2.46,2.54,0,3.51,1.23,3.77,2.81h5.88c-.09-3.42-2.72-7.98-9.47-7.98-5.44,0-9.39,3.77-9.39,8.25,0,3.51,2.19,6.49,7.02,7.46l3.42.7c1.93.44,2.72,1.32,2.72,2.46,0,1.32-1.23,2.46-3.42,2.46-2.72,0-4.21-1.58-4.56-3.33h-6.05c.35,3.77,3.07,8.51,10.61,8.51,6.58,0,9.91-4.21,9.91-8.25,0-3.6-2.54-6.58-7.46-7.63" style="stroke-width:0px;"/><path d="m162.81,34.56c-3.77,0-6.58,1.75-7.72,3.68v-3.07h-6.58v34.82h6.75v-12.19c1.23,1.67,3.77,3.07,7.28,3.07,7.11,0,11.84-5.61,11.84-13.25s-4.21-13.07-11.58-13.07Zm-1.32,20.18c-3.42,0-6.23-2.63-6.23-7.11s2.81-7.02,6.23-7.02,6.23,2.63,6.23,7.02-2.72,7.19-6.23,7.11h0Z" style="stroke-width:0px;"/><path d="m206.84,35.18h0l-.09,3.07c-1.23-1.93-3.95-3.68-7.72-3.68-7.28,0-11.58,5.61-11.58,13.07s4.74,13.25,11.84,13.25c3.42,0,6.14-1.67,7.28-3.68v3.07h6.75v-25.09s-6.49,0-6.49,0Zm-6.32,19.65c-3.42,0-6.23-2.63-6.23-7.11s2.72-7.02,6.23-7.02,6.23,2.63,6.23,7.02-2.81,7.11-6.23,7.11Z" style="stroke-width:0px;"/><rect x="177.54" y="24.04" width="6.75" height="36.23" style="stroke-width:0px;"/><path d="m253.77,34.47c-2.46,0-5.18.79-6.75,2.81v-13.16h-6.84v36.14h6.84v-14.74c.18-2.81,1.84-4.91,4.74-4.91,3.25,0,4.65,2.19,4.65,5v14.65h6.75v-15.79c-.09-5.53-2.98-10-9.39-10" style="stroke-width:0px;"/><path d="m229.65,45.09l-3.77-.7c-1.4-.26-2.28-1.05-2.28-2.28,0-1.4,1.23-2.46,3.07-2.46,2.54,0,3.51,1.23,3.77,2.81h5.88c-.09-3.42-2.72-7.98-9.47-7.98-5.44,0-9.39,3.77-9.39,8.25,0,3.51,2.19,6.49,7.02,7.46l3.42.7c1.93.44,2.72,1.32,2.72,2.46,0,1.32-1.23,2.46-3.42,2.46-2.72,0-4.21-1.58-4.56-3.33h-6.05c.35,3.77,3.07,8.51,10.61,8.51,6.58,0,9.91-4.21,9.91-8.25,0-3.6-2.54-6.58-7.46-7.63" style="stroke-width:0px;"/><polygon points="34.47 10 15.79 10 15.79 24.04 34.39 24.04 34.39 10 34.47 10" style="stroke-width:0px;"/></svg>