<?xml version="1.0" encoding="UTF-8"?><svg id="a" xmlns="http://www.w3.org/2000/svg" viewBox="0 0 300 80"><defs><style>.b{stroke-width:0px;}</style></defs><polygon class="b" points="39.3 31.2 57.3 31.2 57.3 63.2 0 63.2 0 31.2 18 31.2 18 47.2 39.2 47.2 39.2 31.2 39.3 31.2"/><path class="b" d="m100.3,47.5c0,5.4-3.6,8.6-8.5,8.6s-8.4-3.2-8.4-8.6v-25.7h-8v25.7c0,10.1,7.2,16.5,16.5,16.5s16.5-6.4,16.5-16.5v-25.7h-8l-.1,25.7h0Z"/><path class="b" d="m129,33.7c-3.3-.1-6.5,1.5-8.3,4.3v-3.5h-7.5v28.7h7.8v-16.6c0-3.3,2-6,5.4-6,3.7,0,5.3,2.5,5.3,5.7v16.8h7.8v-18c-.1-6.3-3.4-11.4-10.5-11.4"/><path class="b" d="m157.4,45.8l-4.3-.8c-1.6-.3-2.6-1.2-2.6-2.6,0-1.6,1.4-2.8,3.5-2.8,2.9,0,4,1.4,4.3,3.2h6.7c-.1-3.9-3.1-9.1-10.8-9.1-6.2,0-10.7,4.3-10.7,9.4,0,4,2.5,7.4,8,8.5l3.9.8c2.2.5,3.1,1.5,3.1,2.8,0,1.5-1.4,2.8-3.9,2.8-3.1,0-4.8-1.8-5.2-3.8h-6.9c.4,4.3,3.5,9.7,12.1,9.7,7.5,0,11.3-4.8,11.3-9.4,0-4.1-2.9-7.5-8.5-8.7"/><path class="b" d="m185.6,33.8c-4.3,0-7.5,2-8.8,4.2v-3.5h-7.5v39.7h7.7v-13.9c1.4,1.9,4.3,3.5,8.3,3.5,8.1,0,13.5-6.4,13.5-15.1s-4.8-14.9-13.2-14.9Zm-1.5,23c-3.9,0-7.1-3-7.1-8.1s3.2-8,7.1-8,7.1,3,7.1,8-3.1,8.2-7.1,8.1h0Z"/><path class="b" d="m235.8,34.5h0l-.1,3.5c-1.4-2.2-4.5-4.2-8.8-4.2-8.3,0-13.2,6.4-13.2,14.9s5.4,15.1,13.5,15.1c3.9,0,7-1.9,8.3-4.2v3.5h7.7v-28.6h-7.4Zm-7.2,22.4c-3.9,0-7.1-3-7.1-8.1s3.1-8,7.1-8,7.1,3,7.1,8-3.2,8.1-7.1,8.1Z"/><rect class="b" x="202.4" y="21.8" width="7.7" height="41.3"/><path class="b" d="m289.3,33.7c-2.8,0-5.9.9-7.7,3.2v-15h-7.8v41.2h7.8v-16.8c.2-3.2,2.1-5.6,5.4-5.6,3.7,0,5.3,2.5,5.3,5.7v16.7h7.7v-18c-.1-6.3-3.4-11.4-10.7-11.4"/><path class="b" d="m261.8,45.8l-4.3-.8c-1.6-.3-2.6-1.2-2.6-2.6,0-1.6,1.4-2.8,3.5-2.8,2.9,0,4,1.4,4.3,3.2h6.7c-.1-3.9-3.1-9.1-10.8-9.1-6.2,0-10.7,4.3-10.7,9.4,0,4,2.5,7.4,8,8.5l3.9.8c2.2.5,3.1,1.5,3.1,2.8,0,1.5-1.4,2.8-3.9,2.8-3.1,0-4.8-1.8-5.2-3.8h-6.9c.4,4.3,3.5,9.7,12.1,9.7,7.5,0,11.3-4.8,11.3-9.4,0-4.1-2.9-7.5-8.5-8.7"/><polygon class="b" points="39.3 5.8 18 5.8 18 21.8 39.2 21.8 39.2 5.8 39.3 5.8"/></svg>