<?xml version="1.0" encoding="utf-8"?>
<!-- Generator: Adobe Illustrator 23.0.6, SVG Export Plug-In . SVG Version: 6.00 Build 0)  -->
<svg version="1.1" id="Camada_1" xmlns="http://www.w3.org/2000/svg" xmlns:xlink="http://www.w3.org/1999/xlink" x="0px" y="0px"
	 viewBox="0 0 300 120" style="enable-background:new 0 0 300 120;" xml:space="preserve">
<title>unsplash</title>
<polygon points="39.3,51.2 57.3,51.2 57.3,83.2 0,83.2 0,51.2 18,51.2 18,67.2 39.2,67.2 39.2,51.2 "/>
<path d="M100.3,67.5c0,5.4-3.6,8.6-8.5,8.6s-8.4-3.2-8.4-8.6V41.8h-8v25.7c0,10.1,7.2,16.5,16.5,16.5s16.5-6.4,16.5-16.5V41.8h-8
	L100.3,67.5L100.3,67.5z"/>
<path d="M129,53.7c-3.3-0.1-6.5,1.5-8.3,4.3v-3.5h-7.5v28.7h7.8V66.6c0-3.3,2-6,5.4-6c3.7,0,5.3,2.5,5.3,5.7v16.8h7.8v-18
	C139.4,58.8,136.1,53.7,129,53.7"/>
<path d="M157.4,65.8l-4.3-0.8c-1.6-0.3-2.6-1.2-2.6-2.6c0-1.6,1.4-2.8,3.5-2.8c2.9,0,4,1.4,4.3,3.2h6.7c-0.1-3.9-3.1-9.1-10.8-9.1
	c-6.2,0-10.7,4.3-10.7,9.4c0,4,2.5,7.4,8,8.5l3.9,0.8c2.2,0.5,3.1,1.5,3.1,2.8c0,1.5-1.4,2.8-3.9,2.8c-3.1,0-4.8-1.8-5.2-3.8h-6.9
	c0.4,4.3,3.5,9.7,12.1,9.7c7.5,0,11.3-4.8,11.3-9.4C165.9,70.4,163,67,157.4,65.8"/>
<path d="M185.6,53.8c-4.3,0-7.5,2-8.8,4.2v-3.5h-7.5v39.7h7.7V80.3c1.4,1.9,4.3,3.5,8.3,3.5c8.1,0,13.5-6.4,13.5-15.1
	C198.8,60.3,194,53.8,185.6,53.8z M184.1,76.8c-3.9,0-7.1-3-7.1-8.1s3.2-8,7.1-8s7.1,3,7.1,8S188.1,76.9,184.1,76.8L184.1,76.8z"/>
<path d="M235.8,54.5L235.8,54.5l-0.1,3.5c-1.4-2.2-4.5-4.2-8.8-4.2c-8.3,0-13.2,6.4-13.2,14.9s5.4,15.1,13.5,15.1
	c3.9,0,7-1.9,8.3-4.2v3.5h7.7V54.5H235.8z M228.6,76.9c-3.9,0-7.1-3-7.1-8.1s3.1-8,7.1-8s7.1,3,7.1,8S232.5,76.9,228.6,76.9z"/>
<rect x="202.4" y="41.8" width="7.7" height="41.3"/>
<path d="M289.3,53.7c-2.8,0-5.9,0.9-7.7,3.2v-15h-7.8v41.2h7.8V66.3c0.2-3.2,2.1-5.6,5.4-5.6c3.7,0,5.3,2.5,5.3,5.7v16.7h7.7v-18
	C299.9,58.8,296.6,53.7,289.3,53.7"/>
<path d="M261.8,65.8l-4.3-0.8c-1.6-0.3-2.6-1.2-2.6-2.6c0-1.6,1.4-2.8,3.5-2.8c2.9,0,4,1.4,4.3,3.2h6.7c-0.1-3.9-3.1-9.1-10.8-9.1
	c-6.2,0-10.7,4.3-10.7,9.4c0,4,2.5,7.4,8,8.5l3.9,0.8c2.2,0.5,3.1,1.5,3.1,2.8c0,1.5-1.4,2.8-3.9,2.8c-3.1,0-4.8-1.8-5.2-3.8h-6.9
	c0.4,4.3,3.5,9.7,12.1,9.7c7.5,0,11.3-4.8,11.3-9.4C270.3,70.4,267.4,67,261.8,65.8"/>
<polygon points="39.3,25.8 18,25.8 18,41.8 39.2,41.8 39.2,25.8 "/>
</svg>
