<?xml version="1.0" encoding="UTF-8" standalone="no"?>
<svg id="a" viewBox="0 0 32 32" version="1.1" sodipodi:docname="uol.svg" width="32" height="32" inkscape:version="1.4-beta2 (9aaf4f34, 2024-07-30)" xmlns:inkscape="http://www.inkscape.org/namespaces/inkscape" xmlns:sodipodi="http://sodipodi.sourceforge.net/DTD/sodipodi-0.dtd" xmlns="http://www.w3.org/2000/svg" xmlns:svg="http://www.w3.org/2000/svg">
  <sodipodi:namedview id="namedview12" pagecolor="#ffffff" bordercolor="#000000" borderopacity="0.25" inkscape:showpageshadow="2" inkscape:pageopacity="0.0" inkscape:pagecheckerboard="0" inkscape:deskcolor="#d1d1d1" inkscape:zoom="0.325" inkscape:cx="80" inkscape:cy="38.461538" inkscape:window-width="1440" inkscape:window-height="790" inkscape:window-x="0" inkscape:window-y="0" inkscape:window-maximized="1" inkscape:current-layer="a" />
  <defs id="defs1">
    <style id="style1">.b{opacity:.5;}.b,.c,.d,.e{stroke-width:0px;}.b,.c,.e{isolation:isolate;}.c{opacity:.85;}.f,.e{opacity:.8;}</style>
  </defs>
  <g id="g12" transform="matrix(0.55887444,0,0,0.55887444,0.01762818,-6.3561708)">
    <g class="f" id="g9">
      <path class="c" d="m 12.69,63.74 -0.8,-0.57 z" id="path1" />
      <path class="c" d="m 15.71,65.48 -0.87,-0.39 c 0.27,0.11 0.57,0.25 0.87,0.39 z" id="path2" />
      <path class="c" d="m 28.81,60.81 h 2.29 c -2.08,-2.97 -2.62,-6.76 -1.46,-10.2 2,-7.59 9.44,-13.72 16.46,-13.72 v 0 C 41.69,30.47 34.36,26.69 26.57,26.8 17.24,26.62 8.74,32.11 5.07,40.69 6.93,52.34 17.01,60.89 28.81,60.81 Z" id="path3" />
      <path class="c" d="M 3.79,47.46 C 3.79,45.12 4.22,42.79 5.05,40.6 4.85,39.34 4.75,38.07 4.75,36.8 4.82,23.67 15.46,13.05 28.59,13.01 v 0 c 13.17,-0.04 23.88,10.6 23.92,23.77 v 2.23 0 c 3.04,2.97 4.05,7.44 2.58,11.43 C 55,50.8 54.89,51.15 54.75,51.5 61.12,37.05 54.57,20.18 40.13,13.81 25.68,7.44 8.81,13.99 2.44,28.43 -2.78,40.27 0.6,54.14 10.69,62.25 6.36,58.55 3.85,53.15 3.8,47.46 Z" id="path4" />
      <path class="c" d="m 39.88,66.26 -0.34,0.13 z" id="path5" />
      <path class="c" d="m 50.54,58.37 c 0.07,-0.12 0.15,-0.22 0.25,-0.32 -0.1,0.1 -0.18,0.2 -0.25,0.32 z" id="path6" />
      <path class="c" d="m 20.72,67.38 -1.1,-0.37 z" id="path7" />
      <path class="c" d="m 18.2,66.53 c -0.34,-0.11 -0.67,-0.24 -1,-0.39 z" id="path8" />
      <path class="c" d="m 23.26,68.06 -1,-0.2 z" id="path9" />
    </g>
    <path class="b" d="M 28.59,13.01 C 15.46,12.97 4.78,23.58 4.73,36.71 c 0,1.32 0.1,2.64 0.32,3.95 3.62,-8.61 12.16,-14.12 21.5,-13.88 7.78,-0.12 15.11,3.67 19.51,10.09 v 0 c 2.32,-0.05 4.58,0.77 6.33,2.29 V 36.87 C 52.39,23.72 41.76,13.05 28.61,13.01 v 0" id="path11" />
    <path class="e" d="M 52.51,39.01 C 50.74,37.5 48.48,36.68 46.15,36.72 v 0 c -7,0 -14.43,6.13 -16.47,13.73 -1.19,3.43 -0.68,7.23 1.38,10.22 H 28.88 C 17.08,60.79 6.96,52.27 5.05,40.62 c -0.84,2.19 -1.26,4.52 -1.26,6.86 0.06,5.75 2.61,11.19 7,14.91 12.35,9.85 30.34,7.82 40.19,-4.53 1.43,-1.8 2.64,-3.76 3.61,-5.85 0.19,-0.45 0.34,-0.92 0.46,-1.39 1.45,-3.99 0.44,-8.46 -2.59,-11.44" id="path12" />
  </g>
</svg>
