<svg id="Layer_1" data-name="Layer 1" xmlns="http://www.w3.org/2000/svg" viewBox="0 0 682 681"><defs><style>.cls-1{fill:#f5f5f5;}</style></defs><path class="cls-1" d="M128.3,606.6C46.8,541.5,0,444.4,0,340.2A341,341,0,0,1,582.1,99.1a340.9,340.9,0,0,1,68.7,383.6l-16.4-6.9c1.9-5.1,3.6-10.3,5-15.3,14.2-50.6,4-97-27.3-124.1l-3.5-3,.5-4.6c.8-8.7,1.1-16.8,1.1-24.7C610.2,156,489.8,35.5,341.6,35.5S73,156,73,304.1a276.7,276.7,0,0,0,3.4,42.5l.4,2.4-.8,2.2a209.9,209.9,0,0,0-14.1,75.7C61.9,490,89.5,549,139.7,593ZM341,17C162.8,17,17.8,162,17.8,340.2A321.9,321.9,0,0,0,51.1,483.3a229.3,229.3,0,0,1,7.4-136.2A286.4,286.4,0,0,1,544.2,101.5,284.8,284.8,0,0,1,628,304.1c0,7.1-.2,14.3-.8,21.9,17.2,16.3,28.6,37.6,33.5,62a330,330,0,0,0,3.5-47.8C664.2,162,519.2,17,341,17Z"/><path class="cls-1" d="M64.1,382.2l-5.3-32.8a300.7,300.7,0,0,1-3.6-45.3,286.4,286.4,0,1,1,572.8,0c0,8.5-.4,17.1-1.2,26.3l-1.6,17.3-13.1-11.3c-17.7-15.4-41.1-23.5-67.7-23.5h-5.7l-2.6-4c-45.8-69.7-129.8-113-219.2-113-108.6,0-205.4,62.4-240.9,155.3ZM341.6,35.5C193.5,35.5,73,156,73,304.1q0,5.4.3,10.8c45.8-83,139.7-136.8,243.6-136.8a293.9,293.9,0,0,1,136.3,33.2c38.6,20.4,71.4,49.3,95.1,83.8,23.1.6,44.1,6.7,61.8,17.7.1-2.9.1-5.8.1-8.7C610.2,156,489.8,35.5,341.6,35.5Z"/><path class="cls-1" d="M341.6,590.5A286.6,286.6,0,0,1,58.8,349.4l-.3-2.3.8-2.3C97.5,245.1,201,178.1,316.9,178.1a293.9,293.9,0,0,1,136.3,33.2c40.1,21.2,73.9,51.5,97.8,87.8l9,13.7H543.6c-77.8.5-160.2,68.8-183.6,152.4-11.8,42-6.7,82,14,109.8l6,8.1a3.2,3.2,0,0,1-2.3,5.2l-10,.9C358.5,590.1,350,590.5,341.6,590.5ZM76.8,349C98.6,478.8,209.6,572.7,341.6,572.7h9.7c-16.9-31-20.1-70.9-8.5-112.1h0c12.4-44.1,39.9-85.4,77.6-116.5,32.8-27.2,70.1-43.9,106.6-47.9-47.3-62.2-126.4-100.2-210.1-100.2C209.2,195.9,113.1,257.3,76.8,349Z"/><path class="cls-1" d="M341,681.2a340.7,340.7,0,0,1-212.7-74.6l-.3-.2c-26.2-23-46.8-49.9-61.3-80.2a229.4,229.4,0,0,1-7.4-181.4l11.9-31,5.2,32.8c20.9,131,132.4,226.1,265.2,226.1h9.7c-16.9-31-20.1-70.9-8.5-112.1,12.4-44.1,39.9-85.4,77.6-116.5s81.5-48.7,123.1-48.9h.9c30.9,0,58.4,9.6,79.4,27.8,36.6,31.8,48.9,85,32.8,142.4-1.6,5.6-3.4,11.2-5.5,16.8l-.3.6A341.5,341.5,0,0,1,341,681.2ZM139.6,592.9A323.3,323.3,0,0,0,634.5,475.5c1.9-5,3.5-10.1,4.9-15,14.2-50.6,4-97-27.3-124.1-17.7-15.4-41.1-23.5-67.7-23.5h-.8c-77.8.5-160.2,68.8-183.6,152.4-11.8,42-6.7,82,14,109.8l6,8.1a3.2,3.2,0,0,1-2.3,5.2l-10,.9c-9.2.8-17.7,1.2-26.1,1.2A286.6,286.6,0,0,1,66.4,383.4a211.3,211.3,0,0,0-4.5,43.5C61.9,490,89.5,548.9,139.6,592.9Z"/></svg>