<svg id="Camada_1" data-name="Camada 1" xmlns="http://www.w3.org/2000/svg" viewBox="0 0 200 80"><defs><style>.cls-1,.cls-4{opacity:0.8;}.cls-2,.cls-3,.cls-4{isolation:isolate;}.cls-2{opacity:0.85;}.cls-3{opacity:0.5;}</style></defs><g class="cls-1"><path class="cls-2" d="M32.69,63.73l-.8-.57Z"/><path class="cls-2" d="M35.71,65.47l-.87-.39C35.11,65.19,35.41,65.33,35.71,65.47Z"/><path class="cls-2" d="M48.81,60.8H51.1a11.42,11.42,0,0,1-1.46-10.2c2-7.59,9.44-13.72,16.46-13.72h0A23.29,23.29,0,0,0,46.57,26.79a22.89,22.89,0,0,0-21.5,13.89A23.88,23.88,0,0,0,48.81,60.8Z"/><path class="cls-2" d="M23.79,47.45a19.34,19.34,0,0,1,1.26-6.86,24.23,24.23,0,0,1-.3-3.8A23.91,23.91,0,0,1,48.59,13h0A23.85,23.85,0,0,1,72.51,36.77V39h0a10.77,10.77,0,0,1,2.58,11.43,8.16,8.16,0,0,1-.34,1.06A28.59,28.59,0,1,0,30.68,62.24,19.69,19.69,0,0,1,23.79,47.45Z"/><path class="cls-2" d="M59.88,66.25l-.34.13Z"/><path class="cls-2" d="M70.54,58.36a1.61,1.61,0,0,1,.25-.32A1.61,1.61,0,0,0,70.54,58.36Z"/><path class="cls-2" d="M40.72,67.37,39.62,67Z"/><path class="cls-2" d="M38.2,66.52a9.88,9.88,0,0,1-1-.39Z"/><path class="cls-2" d="M43.26,68.05l-1-.2Z"/></g><path d="M178.63,47.65c-4.58,0-6.5-2.28-6.5-6.72V13.48H158.41V33.91a19.51,19.51,0,0,0-35.36,0V23H109.7V42.21c0,3.45-1.83,5.79-4.88,5.79S100,45.62,100,42.21V23H86.23V42.35c0,11.8,7.23,19.21,18.48,19.21a17,17,0,0,0,17.56-13.13,19.51,19.51,0,0,0,36.78.3c2,8.69,8.58,12.53,17.38,12.53H180V47.65Zm-37.81.3a5.88,5.88,0,1,1,5.81-6v0h0A5.87,5.87,0,0,1,140.85,48Z"/><path class="cls-3" d="M48.59,13A23.78,23.78,0,0,0,25.05,40.65a22.68,22.68,0,0,1,21.5-13.88A23.23,23.23,0,0,1,66.06,36.86h0a9.36,9.36,0,0,1,6.33,2.29V36.86A23.85,23.85,0,0,0,48.61,13h0"/><path class="cls-4" d="M72.51,39a9.55,9.55,0,0,0-6.36-2.29h0c-7,0-14.43,6.13-16.47,13.73a11.43,11.43,0,0,0,1.38,10.22H48.88A23.91,23.91,0,0,1,25.05,40.61a19.16,19.16,0,0,0-1.26,6.86,19.79,19.79,0,0,0,7,14.91A28.6,28.6,0,0,0,74.59,52a9.84,9.84,0,0,0,.46-1.39,10.84,10.84,0,0,0-2.59-11.44"/></svg>