<svg version="1.1" width="32" height="32" xmlns="http://www.w3.org/2000/svg">
  <g id="g96" transform="matrix(.04692 0 0 .04692 0 .035)" style="fill:#000">
    <path d="M658.021 378.3c.755 2.663 1.622 5.265 2.211 8.01-.595-2.744-1.451-5.347-2.21-8.01z" style="fill:#000;stroke-width:0;stroke-dasharray:none" id="path96"/>
    <path d="M654.977 368.418c1.203 3.192 2.095 6.552 3.044 9.883-.946-3.336-1.843-6.688-3.044-9.883z" style="fill:#000;stroke-width:0;stroke-dasharray:none" id="path95"/>
    <path d="M651.986 361.682c1.006 2.24 2.118 4.416 2.99 6.736-.874-2.321-1.982-4.494-2.99-6.736z" style="fill:#000;stroke-width:0;stroke-dasharray:none" id="path94"/>
    <path d="M647.344 352.07c1.74 3.081 3.179 6.354 4.642 9.612-1.463-3.262-2.9-6.528-4.642-9.612z" style="fill:#000;stroke-width:0;stroke-dasharray:none" id="path93"/>
    <path d="M637.373 337.32c2.22 2.777 4.154 5.764 6.098 8.744-1.945-2.983-3.878-5.964-6.098-8.744z" style="fill:#000;stroke-width:0;stroke-dasharray:none" id="path92"/>
    <path d="M632.727 332.15c1.558 1.717 3.202 3.363 4.646 5.17-1.446-1.808-3.085-3.453-4.646-5.17z" style="fill:#000;stroke-width:0;stroke-dasharray:none" id="path91"/>
    <path d="M85.787 385.418c-1.426-4.539-2.927-9.041-4.123-13.691 1.194 4.652 2.698 9.15 4.123 13.691z" style="fill:#000;stroke-width:0;stroke-dasharray:none" id="path86"/>
    <path d="M94.521 409.303c-2.036-4.83-4.105-9.64-5.869-14.621 1.762 4.982 3.834 9.79 5.87 14.62z" style="fill:#000;stroke-width:0;stroke-dasharray:none" id="path85"/>
    <path d="M117.854 452.98c-3.336-5.038-6.627-10.112-9.627-15.394 3 5.284 6.291 10.355 9.627 15.394z" style="fill:#000;stroke-width:0;stroke-dasharray:none" id="path83"/>
    <path d="M132.035 472.469c-3.935-4.914-7.803-9.89-11.394-15.09 3.591 5.202 7.458 10.175 11.394 15.09z" style="fill:#000;stroke-width:0;stroke-dasharray:none" id="path82"/>
    <path d="M147.625 490.273c-4.459-4.652-8.84-9.385-12.959-14.36 4.12 4.975 8.5 9.708 12.959 14.36z" style="fill:#000;stroke-width:0;stroke-dasharray:none" id="path81"/>
    <path d="M164.41 506.33c-4.861-4.26-9.649-8.606-14.191-13.21 4.543 4.604 9.329 8.95 14.191 13.21z" style="fill:#000;stroke-width:0;stroke-dasharray:none" id="path80"/>
    <path d="M182.646 520.951c-5.274-3.86-10.476-7.817-15.449-12.05 4.974 4.233 10.174 8.19 15.45 12.05z" style="fill:#000;stroke-width:0;stroke-dasharray:none" id="path79"/>
    <path d="M341.6 572.7z" style="fill:#000;stroke-width:0;stroke-dasharray:none" id="path78"/>
    <path d="M481.506 228.533c-9.03-6.256-18.469-12.033-28.307-17.232 9.84 5.202 19.279 10.98 28.307 17.232z" style="fill:#000;stroke-width:0;stroke-dasharray:none" id="path76"/>
    <path d="M516.842 258.357c-3.24-3.194-6.247-6.573-9.662-9.609 3.413 3.035 6.425 6.417 9.662 9.61z" style="fill:#000;stroke-width:0;stroke-dasharray:none" id="path75"/>
    <path d="M538.717 282.877c-2.919-3.728-5.62-7.592-8.754-11.164 3.132 3.57 5.837 7.439 8.754 11.164z" style="fill:#000;stroke-width:0;stroke-dasharray:none" id="path74"/>
    <path d="M442.648 327.96c-7.582 4.926-15.052 10.204-22.248 16.14 7.194-5.966 14.678-11.207 22.248-16.14z" style="fill:#000;stroke-width:0;stroke-dasharray:none" id="path72"/>
    <path d="M475.535 310.277z" style="fill:#000;stroke-width:0;stroke-dasharray:none" id="path69"/>
    <path d="M498.064 302.09c-7.558 2.196-15.07 4.983-22.529 8.187 7.459-3.196 14.973-6.007 22.53-8.187z" style="fill:#000;stroke-width:0;stroke-dasharray:none" id="path68"/>
    <path d="m526.518 296.293-.006-.008c-8.037.925-16.105 2.586-24.163 4.717 8.057-2.112 16.13-3.804 24.168-4.71z" style="fill:#000;stroke-width:0;stroke-dasharray:none" id="path67"/>
    <path d="M511.662 278.473c3.752 4.021 7.326 8.191 10.781 12.46-3.46-4.276-7.023-8.432-10.78-12.46z" style="fill:#000;stroke-width:0;stroke-dasharray:none" id="path63"/>
    <path d="M502.04 268.809c3.29 3.147 6.523 6.342 9.622 9.664-3.104-3.327-6.328-6.513-9.623-9.664z" style="fill:#000;stroke-width:0;stroke-dasharray:none" id="path62"/>
    <path d="M489.652 257.613c4.286 3.574 8.368 7.352 12.387 11.196-4.025-3.85-8.094-7.616-12.387-11.196z" style="fill:#000;stroke-width:0;stroke-dasharray:none" id="path61"/>
    <path d="M478.982 249.336c3.614 2.697 7.219 5.399 10.67 8.277-3.456-2.882-7.05-5.577-10.67-8.277z" style="fill:#000;stroke-width:0;stroke-dasharray:none" id="path60"/>
    <path d="M465.041 239.455c4.8 3.105 9.382 6.478 13.941 9.88-4.566-3.408-9.135-6.77-13.941-9.88z" style="fill:#000;stroke-width:0;stroke-dasharray:none" id="path59"/>
    <path d="M453.688 232.705c3.818 2.206 7.665 4.364 11.353 6.75-3.692-2.389-7.53-4.542-11.353-6.75z" style="fill:#000;stroke-width:0;stroke-dasharray:none" id="path58"/>
    <path d="M438.236 224.223c5.295 2.603 10.37 5.548 15.452 8.482-5.09-2.94-10.15-5.874-15.452-8.482z" style="fill:#000;stroke-width:0;stroke-dasharray:none" id="path57"/>
    <path d="M426.484 219.03c3.934 1.706 7.92 3.308 11.752 5.193-3.836-1.887-7.814-3.486-11.752-5.194z" style="fill:#000;stroke-width:0;stroke-dasharray:none" id="path56"/>
    <path d="M409.605 212.09c5.758 2.05 11.305 4.521 16.88 6.94-5.581-2.422-11.114-4.887-16.88-6.94z" style="fill:#000;stroke-width:0;stroke-dasharray:none" id="path55"/>
    <path d="M379.45 203.215c6.245 1.448 12.303 3.402 18.394 5.267-6.097-1.868-12.142-3.818-18.395-5.267z" style="fill:#000;stroke-width:0;stroke-dasharray:none" id="path54"/>
    <path d="M348.176 197.781c6.912.786 13.668 2.18 20.45 3.47-6.785-1.291-13.533-2.684-20.45-3.47z" style="fill:#000;stroke-width:0;stroke-dasharray:none" id="path53"/>
    <path d="M92.52 317.19c1.844-3.1 3.881-6.07 5.87-9.075-1.99 3.004-4.024 5.977-5.87 9.074z" style="fill:#000;stroke-width:0;stroke-dasharray:none" id="path51"/>
    <path d="M83.664 333.586c1.81-3.719 3.836-7.312 5.846-10.914-2.013 3.601-4.032 7.196-5.846 10.914z" style="fill:#000;stroke-width:0;stroke-dasharray:none" id="path50"/>
    <path d="M66.133 385.988A209.9 209.9 0 0 0 61.9 426.9a211.3 211.3 0 0 1 4.233-40.912z" style="fill:#000;stroke-width:0;stroke-dasharray:none" id="path41"/>
    <path d="M543.6 312.9h-1.664C464.627 314.352 383.234 382.194 360 465.2c-4.428 15.761-6.476 31.242-6.213 45.902-.252-14.63 1.795-30.075 6.213-45.801 23.4-83.6 105.8-151.9 183.6-152.4z" style="fill:#000;stroke-width:0;stroke-dasharray:none" id="path35"/>
    <path d="M74.389 276.678C87.25 150.427 187.927 49.75 314.178 36.888 187.852 49.744 87.242 150.422 74.388 276.679Z" style="fill:#000;stroke-width:0;stroke-dasharray:none" id="path30"/>
    <path d="M296.357 178.84c6.799-.468 13.646-.74 20.543-.74-6.898 0-13.744.273-20.543.74z" style="fill:#000;stroke-width:0;stroke-dasharray:none" id="path28"/>
    <path d="M162.668 221.852c4.063-2.541 8.16-5.039 12.37-7.377-4.211 2.339-8.306 4.835-12.37 7.377z" style="fill:#000;stroke-width:0;stroke-dasharray:none" id="path27"/>
    <path d="M142.822 235.371z" style="fill:#000;stroke-width:0;stroke-dasharray:none" id="path26"/>
    <path d="M128.186 247.3c3.587-3.129 7.314-6.114 11.078-9.058-3.764 2.945-7.492 5.927-11.078 9.059z" style="fill:#000;stroke-width:0;stroke-dasharray:none" id="path25"/>
    <path d="M47.262 457.379a229.4 229.4 0 0 1-1.71-41.852 229.3 229.3 0 0 0 1.71 41.852z" style="fill:#000;stroke-width:0;stroke-dasharray:none" id="path13"/>
    <path d="M57.006 289.217a286.4 286.4 0 0 0-1.807 14.883 300.7 300.7 0 0 0 3.244 40.804 286.4 286.4 0 0 1-1.437-55.687z" style="fill:#000;fill-rule:evenodd;stroke:#000;stroke-width:0;stroke-linecap:round;stroke-dasharray:none;paint-order:stroke fill markers" id="path90"/>
    <path d="M628 304.1a284.8 284.8 0 0 0-83.8-202.6 286.4 286.4 0 0 0-20.583-15.982A286.4 286.4 0 0 1 628 304.1Z" style="fill:#000;fill-rule:evenodd;stroke:#000;stroke-width:0;stroke-linecap:round;stroke-dasharray:none;paint-order:stroke fill markers" id="path89"/>
    <path d="M626.988 326.27c2 1.889 3.9 3.858 5.739 5.88-1.854-2.042-3.514-4.242-5.528-6.15.6-7.6.801-14.8.801-21.9 0 7.165-.443 14.563-1.012 22.17z" style="fill:#000;fill-rule:evenodd;stroke:#000;stroke-width:0;stroke-linecap:round;stroke-dasharray:none;paint-order:stroke fill markers" id="path88"/>
    <path d="M79.207 360.24c-.786-3.709-1.657-7.38-2.295-11.152-.019.048-.043.094-.062.142.63 3.736 1.58 7.336 2.357 11.01z" style="fill:#000;fill-rule:evenodd;stroke:#000;stroke-width:0;stroke-linecap:round;stroke-dasharray:none;paint-order:stroke fill markers" id="path87"/>
    <path d="M105.326 431.977c-2.703-5.031-5.393-10.071-7.783-15.301 2.39 5.232 5.08 10.268 7.783 15.3z" style="fill:#000;fill-rule:evenodd;stroke:#000;stroke-width:0;stroke-linecap:round;stroke-dasharray:none;paint-order:stroke fill markers" id="path84"/>
    <path d="M548.28 295.508c13.446.363 26.252 2.43 38.072 6.398-11.844-4-24.527-6.455-38.051-6.806-2.923-4.255-6.391-8.144-9.584-12.223 3.26 4.164 6.583 8.282 9.562 12.63z" style="fill:#000;fill-rule:evenodd;stroke:#000;stroke-width:0;stroke-linecap:round;stroke-dasharray:none;paint-order:stroke fill markers" id="path73"/>
    <path d="M447.725 324.65c-1.713 1.053-3.38 2.205-5.077 3.31 1.694-1.1 3.367-2.262 5.077-3.31z" style="fill:#000;fill-rule:evenodd;stroke:#000;stroke-width:0;stroke-linecap:round;stroke-dasharray:none;paint-order:stroke fill markers" id="path71"/>
    <path d="M469.297 313.068c-7.29 3.42-14.496 7.244-21.572 11.582 7.075-4.347 14.287-8.168 21.572-11.582z" style="fill:#000;fill-rule:evenodd;stroke:#000;stroke-width:0;stroke-linecap:round;stroke-dasharray:none;paint-order:stroke fill markers" id="path70"/>
    <path d="M526.746 296.248c-.078.009-.156.028-.234.037l.006.008c.076-.009.152-.036.228-.045z" style="fill:#000;fill-rule:evenodd;stroke:#000;stroke-width:0;stroke-linecap:round;stroke-dasharray:none;paint-order:stroke fill markers" id="path66"/>
    <path d="M522.443 290.934c1.41 1.743 2.71 3.568 4.069 5.351.078-.009.156-.028.234-.037.084-.009.17-.04.254-.049-1.405-1.847-3.096-3.461-4.557-5.265z" style="fill:#000;fill-rule:evenodd;stroke:#000;stroke-width:0;stroke-linecap:round;stroke-dasharray:none;paint-order:stroke fill markers" id="path64"/>
    <path d="M203.174 220.188C237.757 204.572 276.513 195.963 316.9 196c8.932 0 17.773.65 26.567 1.498-8.8-.85-17.626-1.598-26.567-1.598-40.395 0-79.143 8.662-113.726 24.288z" style="fill:#000;fill-rule:evenodd;stroke:#000;stroke-width:0;stroke-linecap:round;stroke-dasharray:none;paint-order:stroke fill markers" id="path52"/>
    <path d="M81.732 337.924c-1.691 3.676-3.329 7.382-4.82 11.164.638 3.771 1.509 7.443 2.295 11.152.81 3.834 1.491 7.722 2.457 11.487 1.196 4.65 2.697 9.152 4.123 13.691.967 3.082 1.794 6.235 2.865 9.264 1.764 4.98 3.833 9.792 5.87 14.62 1.03 2.446 1.923 4.97 3.021 7.374 2.39 5.23 5.08 10.27 7.783 15.3.995 1.853 1.865 3.786 2.9 5.61 3.001 5.282 6.292 10.356 9.628 15.394.956 1.446 1.803 2.974 2.787 4.399 3.59 5.2 7.459 10.176 11.394 15.09.902 1.126 1.711 2.332 2.631 3.443 4.12 4.976 8.5 9.709 12.959 14.361.888.927 1.693 1.933 2.594 2.846 4.542 4.605 9.33 8.952 14.191 13.211.95.833 1.825 1.751 2.787 2.57 4.973 4.234 10.175 8.191 15.45 12.051.962.705 1.855 1.498 2.828 2.19 5.166 3.676 10.546 7.056 15.974 10.36 1.203.733 2.334 1.57 3.549 2.284 5.4 3.172 10.996 6.032 16.627 8.826 1.344.667 2.618 1.45 3.975 2.094 5.47 2.6 11.12 4.87 16.785 7.104 1.631.642 3.193 1.421 4.84 2.033 5.522 2.052 11.205 3.756 16.89 5.449 1.89.562 3.713 1.277 5.62 1.799 5.647 1.547 11.436 2.727 17.222 3.91 2.041.417 4.02 1 6.078 1.371 5.796 1.046 11.716 1.708 17.631 2.379 2.136.242 4.217.661 6.367.854a275.491 275.491 0 0 0 24.567 1.095h9.7c-16.9-31-20.1-70.9-8.5-112.1 12.4-44.1 39.9-85.4 77.6-116.5 7.196-5.935 14.666-11.213 22.248-16.138 1.698-1.106 3.364-2.258 5.077-3.31 7.076-4.34 14.282-8.163 21.572-11.583a204.245 204.245 0 0 1 6.238-2.79c7.46-3.205 14.97-5.992 22.53-8.188 1.43-.413 2.852-.713 4.285-1.088 8.057-2.13 16.125-3.792 24.162-4.717-1.36-1.783-2.658-3.608-4.069-5.351-3.455-4.27-7.029-8.44-10.78-12.461-3.1-3.322-6.334-6.517-9.624-9.664-4.019-3.844-8.1-7.622-12.387-11.196-3.451-2.878-7.056-5.58-10.67-8.277-4.56-3.403-9.142-6.776-13.941-9.88-3.688-2.387-7.535-4.545-11.353-6.75-5.083-2.935-10.157-5.88-15.452-8.483-3.831-1.885-7.818-3.487-11.752-5.194-5.574-2.418-11.12-4.889-16.879-6.94-3.85-1.37-7.838-2.404-11.761-3.607-6.091-1.865-12.149-3.82-18.395-5.267-3.556-.824-7.222-1.278-10.822-1.963-6.783-1.291-13.539-2.685-20.451-3.47-1.554-.177-3.15-.133-4.71-.284-8.793-.849-17.634-1.498-26.566-1.498-46.223-.043-90.268 11.308-128.408 31.455-.783.414-1.604.772-2.383 1.193-4.242 2.297-8.343 4.793-12.43 7.307-1.265.78-2.589 1.482-3.84 2.281-3.774 2.413-7.397 5.014-11.023 7.61-1.439 1.03-2.942 1.984-4.357 3.043-3.305 2.472-6.452 5.117-9.62 7.74-1.615 1.338-3.302 2.602-4.88 3.978-2.767 2.413-5.371 4.984-8.02 7.512-1.835 1.753-3.745 3.437-5.521 5.244-2.318 2.357-4.471 4.855-6.686 7.301-1.919 2.122-3.91 4.184-5.748 6.371-1.93 2.295-3.696 4.715-5.535 7.08-1.944 2.504-3.953 4.959-5.79 7.54-1.5 2.1-2.842 4.309-4.268 6.46-1.99 3.005-4.027 5.976-5.871 9.074-1.067 1.79-1.993 3.663-3.01 5.483-2.01 3.602-4.036 7.195-5.846 10.914-.692 1.42-1.269 2.902-1.932 4.338z" style="fill:#000;fill-rule:evenodd;stroke:#000;stroke-width:0;stroke-linecap:round;stroke-dasharray:none;paint-order:stroke fill markers" id="path49"/>
    <path d="M58.8 349.4a300.7 300.7 0 0 1-.146-1.843 229.4 229.4 0 0 0-.06.257z" style="fill:#000;fill-rule:evenodd;stroke:#000;stroke-width:0;stroke-linecap:round;stroke-dasharray:none;paint-order:stroke fill markers" id="path44"/>
    <path d="M66.412 376.174a286.6 286.6 0 0 1-7.611-26.774l5.299 32.8z" style="fill:#000;fill-rule:evenodd;stroke:#000;stroke-width:0;stroke-linecap:round;stroke-dasharray:none;paint-order:stroke fill markers" id="path43"/>
    <path d="M66.676 384.074a286.6 286.6 0 0 1-.276-.674 211.3 211.3 0 0 0-.267 2.588 209.9 209.9 0 0 1 .543-1.914z" style="fill:#000;fill-rule:evenodd;stroke:#000;stroke-width:0;stroke-linecap:round;stroke-dasharray:none;paint-order:stroke fill markers" id="path40"/>
    <path d="M73.164 399.928a286.6 286.6 0 0 1-5.498-19.344 209.9 209.9 0 0 0-.99 3.49 286.6 286.6 0 0 0 6.488 15.854z" style="fill:#000;fill-rule:evenodd;stroke:#000;stroke-width:0;stroke-linecap:round;stroke-dasharray:none;paint-order:stroke fill markers" id="path39"/>
    <path d="M380.684 585.314a3.2 3.2 0 0 1-2.985 2.987l-10 .898c-9.2.9-17.7 1.301-26.1 1.301 8.4 0 16.9-.4 26.1-1.2l10-.9a3.2 3.2 0 0 0 2.985-3.086z" style="fill:#000;fill-rule:evenodd;stroke:#000;stroke-width:0;stroke-linecap:round;stroke-dasharray:none;paint-order:stroke fill markers" id="path38"/>
    <path d="M353.787 511.102c.422 24.441 7.264 46.607 20.213 63.998l6 8.1a3.2 3.2 0 0 1 .684 2.114A3.2 3.2 0 0 0 380 583.1l-6-8.1c-12.932-17.367-19.775-39.496-20.213-63.898z" style="fill:#000;fill-rule:evenodd;stroke:#000;stroke-width:0;stroke-linecap:round;stroke-dasharray:none;paint-order:stroke fill markers" id="path36"/>
    <path d="M609.818 312.652c-.724-.447-1.532-.766-2.267-1.197.796.466 1.467 1.114 2.25 1.6.004-.132.014-.271.017-.403z" style="fill:#000;fill-rule:evenodd;stroke:#000;stroke-width:0;stroke-linecap:round;stroke-dasharray:none;paint-order:stroke fill markers" id="path32"/>
    <path d="M610.2 304.1c0 2.735-.301 5.752-.382 8.552.09.056.192.093.282.149.1-2.9.1-5.801.1-8.701z" style="fill:#000;fill-rule:evenodd;stroke:#000;stroke-width:0;stroke-linecap:round;stroke-dasharray:none;paint-order:stroke fill markers" id="path31"/>
    <path d="M73.799 314.072A276.7 276.7 0 0 1 73 304.1c0 3.6.1 7.2.3 10.8.157-.282.342-.546.499-.828z" style="fill:#000;fill-rule:evenodd;stroke:#000;stroke-width:0;stroke-linecap:round;stroke-dasharray:none;paint-order:stroke fill markers" id="path29"/>
    <path d="M74.47 312.953c1.83-3.234 3.76-6.398 5.733-9.54a243.387 243.387 0 0 1 4.305-6.66 246.003 246.003 0 0 1 5.953-8.446 248.293 248.293 0 0 1 5.314-6.93c2.02-2.549 4.053-5.082 6.172-7.553 2.072-2.418 4.23-4.758 6.393-7.1 2.048-2.213 4.073-4.442 6.201-6.585 2.537-2.558 5.187-5.006 7.834-7.461 1.936-1.795 3.817-3.638 5.81-5.377 3.587-3.132 7.315-6.114 11.079-9.059 1.202-.94 2.339-1.95 3.558-2.87A272.334 272.334 0 0 1 158.48 224.4c1.367-.888 2.803-1.683 4.188-2.548 4.064-2.542 8.159-5.038 12.37-7.377 1.98-1.1 4.024-2.102 6.036-3.157 3.711-1.945 7.436-3.863 11.248-5.65 2.288-1.072 4.618-2.062 6.94-3.076 3.66-1.599 7.341-3.153 11.084-4.604 2.46-.953 4.942-1.85 7.435-2.738a289.652 289.652 0 0 1 11.287-3.768c2.55-.792 5.106-1.56 7.686-2.285 3.855-1.082 7.746-2.062 11.664-2.99 2.6-.616 5.19-1.24 7.814-1.787 4.056-.845 8.155-1.55 12.268-2.227 2.539-.418 5.058-.883 7.617-1.236 4.512-.622 9.072-1.06 13.64-1.477 2.205-.2 4.384-.488 6.6-.64 6.8-.467 13.645-.74 20.543-.74a293.9 293.9 0 0 1 136.3 33.2c9.837 5.2 19.276 10.977 28.306 17.233 3.144 2.178 5.947 4.715 8.984 7.012 5.674 4.293 11.412 8.51 16.69 13.203 3.415 3.036 6.423 6.415 9.662 9.61 4.454 4.392 9.018 8.68 13.12 13.355 3.135 3.572 5.836 7.436 8.755 11.164 3.193 4.079 6.661 7.968 9.584 12.223 13.524.35 26.207 2.805 38.05 6.806 1.064.357 2.097.752 3.145 1.137 5.444 2.013 10.67 4.386 15.662 7.15.79.437 1.615.807 2.393 1.262.735.431 1.543.75 2.267 1.197.08-2.8.381-5.817.381-8.552 0-148.1-120.4-268.6-268.6-268.6C193.5 35.5 73 156 73 304.1a276.7 276.7 0 0 0 .799 9.972c.212-.38.458-.74.672-1.119z" style="fill:#000;fill-rule:evenodd;stroke:#000;stroke-width:0;stroke-linecap:round;stroke-dasharray:none;paint-order:stroke fill markers" id="path24"/>
    <path d="M73.807 314.191c.228-.408.433-.83.664-1.238-.214.38-.46.739-.672 1.12a276.7 276.7 0 0 0 .008.118z" style="fill:#000;fill-rule:evenodd;stroke:#000;stroke-width:0;stroke-linecap:round;stroke-dasharray:none;paint-order:stroke fill markers" id="path22"/>
    <path d="M58.596 346.824a300.7 300.7 0 0 0 .058.733 229.4 229.4 0 0 1 .647-2.756z" style="fill:#000;fill-rule:evenodd;stroke:#000;stroke-width:0;stroke-linecap:round;stroke-dasharray:none;paint-order:stroke fill markers" id="path18"/>
    <path d="m58.5 347.1.094.714a229.4 229.4 0 0 1 .06-.257 300.7 300.7 0 0 1-.058-.733z" style="fill:#000;fill-rule:evenodd;stroke:#000;stroke-width:0;stroke-linecap:round;stroke-dasharray:none;paint-order:stroke fill markers" id="path16"/>
    <path d="m58.5 347.1.096-.276a300.7 300.7 0 0 1-.153-1.92 286.4 286.4 0 0 0 .057 2.196Z" style="fill:#000;fill-rule:evenodd;stroke:#000;stroke-width:0;stroke-linecap:round;stroke-dasharray:none;paint-order:stroke fill markers" id="path15"/>
    <path d="M46.41 399.736a229.4 229.4 0 0 1 12.184-51.922l-.094-.714a229.3 229.3 0 0 0-12.09 52.636z" style="fill:#000;fill-rule:evenodd;stroke:#000;stroke-width:0;stroke-linecap:round;stroke-dasharray:none;paint-order:stroke fill markers" id="path14"/>
    <path d="M49.602 473.186a229.4 229.4 0 0 1-2.34-15.807 229.3 229.3 0 0 1-1.71-41.852 229.4 229.4 0 0 1 .858-15.79A229.3 229.3 0 0 1 58.5 347.1a286.4 286.4 0 0 1-.057-2.196A300.7 300.7 0 0 1 55.2 304.1a286.4 286.4 0 0 1 1.807-14.883 286.4 286.4 0 0 1 3.951-32.54 286.4 286.4 0 0 1 8.281-36.189 286.4 286.4 0 0 1 11.842-31.224 286.4 286.4 0 0 1 16.713-32.44 286.4 286.4 0 0 1 19.273-27.924 286.4 286.4 0 0 1 23.885-26.877 286.4 286.4 0 0 1 25.74-22.806 286.4 286.4 0 0 1 29.426-19.854 286.4 286.4 0 0 1 30.803-16.166 286.4 286.4 0 0 1 33.078-11.804 286.4 286.4 0 0 1 34.084-8.4 286.4 286.4 0 0 1 34.711-3.204 286.4 286.4 0 0 1 35.299 0 286.4 286.4 0 0 1 34.332 5.496 286.4 286.4 0 0 1 34.306 8.455 286.4 286.4 0 0 1 31.967 13.875 286.4 286.4 0 0 1 31.2 16.375 286.4 286.4 0 0 1 27.72 21.528A286.4 286.4 0 0 1 544.2 101.5 284.8 284.8 0 0 1 628 304.1c0 7.1-.2 14.3-.8 21.9 2.013 1.908 3.673 4.108 5.527 6.15 1.561 1.717 3.2 3.362 4.646 5.17 2.22 2.78 4.153 5.76 6.098 8.744 1.302 1.998 2.696 3.922 3.873 6.006 1.741 3.084 3.179 6.35 4.642 9.612 1.008 2.242 2.116 4.415 2.99 6.736 1.202 3.195 2.1 6.547 3.045 9.883.76 2.662 1.616 5.265 2.211 8.01.125.579.35 1.106.467 1.689a330 330 0 0 0 3.5-47.8C664.2 162 519.2 17 341 17 162.8 17 17.8 162 17.8 340.2a321.9 321.9 0 0 0 33.3 143.1 229.3 229.3 0 0 1-1.498-10.114z" style="fill:#000;fill-rule:evenodd;stroke:#000;stroke-width:0;stroke-linecap:round;stroke-dasharray:none;paint-order:stroke fill markers" id="path12"/>
    <path d="M128.3 606.6c-.446-.357-.822-.775-1.267-1.133.339.3.627.635.967.933z" style="fill:#000;fill-rule:evenodd;stroke:#000;stroke-width:0;stroke-linecap:round;stroke-dasharray:none;paint-order:stroke fill markers" id="path11"/>
    <path d="M63.184 450.35A213.922 213.922 0 0 1 61.9 426.9a209.9 209.9 0 0 1 4.233-40.912 211.3 211.3 0 0 1 .267-2.588 286.6 286.6 0 0 0 .276.674 209.9 209.9 0 0 1 .99-3.49 286.6 286.6 0 0 1-1.254-4.41l-2.312 6.025-5.3-32.799-.206-1.586a229.4 229.4 0 0 0-12.184 51.922 229.3 229.3 0 0 0-.857 15.791 229.4 229.4 0 0 0 1.709 41.852 229.3 229.3 0 0 0 2.34 15.807 229.4 229.4 0 0 0 17.097 53.013c14.312 29.907 34.618 56.467 60.334 79.268.445.358.821.776 1.268 1.133l11.398-13.6c-43.925-38.5-70.546-88.484-76.515-142.65Z" style="fill:#000;fill-rule:evenodd;stroke:#000;stroke-width:0;stroke-linecap:round;stroke-dasharray:none;paint-order:stroke fill markers" id="path10"/>
    <path d="M634.498 475.504a323.3 323.3 0 0 0 .002-.004c1.9-5 3.5-10.1 4.9-15 14.2-50.6 4-97-27.3-124.1-17.7-15.4-41.1-23.5-67.7-23.5h-.8c-77.8.5-160.2 68.8-183.6 152.4-4.418 15.727-6.465 31.171-6.213 45.802.438 24.402 7.281 46.531 20.213 63.898l6 8.1a3.2 3.2 0 0 1 .684 2.214 3.2 3.2 0 0 1-2.985 3.086l-10 .9c-9.2.8-17.7 1.2-26.1 1.2a286.6 286.6 0 0 1-64.017-7.598 286.6 286.6 0 0 1-20.057-6.709 286.6 286.6 0 0 1-40.63-14.982 286.6 286.6 0 0 1-21.64-12.904 286.6 286.6 0 0 1-32.642-21.782 286.6 286.6 0 0 1-19.564-18.318 286.6 286.6 0 0 1-25.604-27.637 286.6 286.6 0 0 1-15.61-22.65 286.6 286.6 0 0 1-18.148-32.285 286.6 286.6 0 0 1-10.523-25.707 286.6 286.6 0 0 1-6.488-15.854 209.9 209.9 0 0 0-.543 1.914A211.3 211.3 0 0 0 61.9 426.9c0 63.1 27.6 122 77.7 166a323.3 323.3 0 0 0 494.898-117.396Z" style="fill:#000;fill-rule:evenodd;stroke:#000;stroke-width:0;stroke-linecap:round;stroke-dasharray:none;paint-order:stroke fill markers" id="path9"/>
    <path d="M651.38 481.342a340.9 340.9 0 0 1-.58 1.357l-16.4-6.898c.037-.1.061-.198.098-.297A323.3 323.3 0 0 1 139.6 592.9c-43.836-38.498-70.447-88.405-76.416-142.55 5.969 54.166 32.59 104.15 76.515 142.65l-11.398 13.6A340.7 340.7 0 0 0 341 681.2a341.5 341.5 0 0 0 309.8-198.4l.3-.6c.107-.287.175-.572.28-.858z" style="fill:#000;fill-rule:evenodd;stroke:#000;stroke-width:0;stroke-linecap:round;stroke-dasharray:none;paint-order:stroke fill markers" id="path7"/>
    <path d="M316.67.115A341 341 0 0 0 0 340.2c0 103.63 46.358 200.176 127.033 265.268-25.716-22.801-46.022-49.361-60.334-79.268a229.4 229.4 0 0 1-17.097-53.013A229.3 229.3 0 0 0 51.1 483.3a321.9 321.9 0 0 1-33.3-143.102C17.8 162 162.8 17 341 17s323.2 145 323.2 323.2a330 330 0 0 1-3.5 47.8c-.118-.583-.343-1.11-.468-1.69 5.219 24.038 4.235 51.04-3.632 79.09a221.508 221.508 0 0 1-5.22 15.942A340.9 340.9 0 0 0 582.1 99.1 341 341 0 0 0 316.67.115Z" style="fill:#000;fill-rule:evenodd;stroke:#000;stroke-width:0;stroke-linecap:round;stroke-dasharray:none;paint-order:stroke fill markers" id="path6"/>
  </g>
</svg>