<?xml version="1.0" encoding="UTF-8" standalone="no"?>
<svg id="Layer_1" data-name="Layer 1" viewBox="0 0 32 32" version="1.1" width="32" height="32" xmlns="http://www.w3.org/2000/svg" xmlns:svg="http://www.w3.org/2000/svg">
  <defs id="defs1">
    <style id="style1">.cls-1{fill:#f5f5f5;}</style>
  </defs>
  <g id="g96" transform="matrix(0.04692405,0,0,0.04692405,-6.043564e-4,0.03537243)" style="fill:#000000">
    <path d="m 658.02148,378.30078 c 0.75492,2.66183 1.62117,5.26457 2.21094,8.00977 -0.59573,-2.74411 -1.4516,-5.34711 -2.21094,-8.00977 z" style="fill:#000000;stroke-width:0;stroke-dasharray:none" id="path96" />
    <path d="m 654.97656,368.41797 c 1.20322,3.1925 2.09515,6.55236 3.04492,9.88281 -0.94607,-3.33587 -1.84307,-6.68763 -3.04492,-9.88281 z" style="fill:#000000;stroke-width:0;stroke-dasharray:none" id="path95" />
    <path d="m 651.98633,361.68164 c 1.00586,2.24123 2.11744,4.41597 2.99023,6.73633 -0.87474,-2.32097 -1.9828,-4.49361 -2.99023,-6.73633 z" style="fill:#000000;stroke-width:0;stroke-dasharray:none" id="path94" />
    <path d="m 647.34375,352.07031 c 1.74045,3.08085 3.17929,6.35378 4.64258,9.61133 -1.46381,-3.26162 -2.90093,-6.5281 -4.64258,-9.61133 z" style="fill:#000000;stroke-width:0;stroke-dasharray:none" id="path93" />
    <path d="m 637.37305,337.32031 c 2.22028,2.77701 4.154,5.76364 6.09765,8.74414 -1.94495,-2.98363 -3.87762,-5.96424 -6.09765,-8.74414 z" style="fill:#000000;stroke-width:0;stroke-dasharray:none" id="path92" />
    <path d="m 632.72656,332.15039 c 1.55818,1.71687 3.20292,3.36231 4.64649,5.16992 -1.44577,-1.80829 -3.0846,-3.45287 -4.64649,-5.16992 z" style="fill:#000000;stroke-width:0;stroke-dasharray:none" id="path91" />
    <path d="m 85.787109,385.41797 c -1.426528,-4.53889 -2.927275,-9.04136 -4.123047,-13.69141 1.193767,4.65205 2.698136,9.15075 4.123047,13.69141 z" style="fill:#000000;stroke-width:0;stroke-dasharray:none" id="path86" />
    <path d="m 94.521484,409.30273 c -2.036235,-4.82894 -4.105586,-9.64066 -5.86914,-14.62109 1.762093,4.98264 3.833884,9.79024 5.86914,14.62109 z" style="fill:#000000;stroke-width:0;stroke-dasharray:none" id="path85" />
    <path d="m 117.85352,452.98047 c -3.33541,-5.03818 -6.62609,-10.11215 -9.62696,-15.39453 3.00042,5.2837 6.29151,10.35535 9.62696,15.39453 z" style="fill:#000000;stroke-width:0;stroke-dasharray:none" id="path83" />
    <path d="m 132.03516,472.46875 c -3.93542,-4.91377 -7.80356,-9.88892 -11.39453,-15.08984 3.59137,5.20228 7.45818,10.17507 11.39453,15.08984 z" style="fill:#000000;stroke-width:0;stroke-dasharray:none" id="path82" />
    <path d="m 147.625,490.27344 c -4.45883,-4.65264 -8.83969,-9.38579 -12.95898,-14.36133 4.11993,4.97602 8.49909,9.70849 12.95898,14.36133 z" style="fill:#000000;stroke-width:0;stroke-dasharray:none" id="path81" />
    <path d="m 164.41016,506.33008 c -4.86127,-4.25934 -9.64885,-8.60588 -14.19141,-13.21094 4.54356,4.60511 9.32881,8.95177 14.19141,13.21094 z" style="fill:#000000;stroke-width:0;stroke-dasharray:none" id="path80" />
    <path d="m 182.64648,520.95117 c -5.27413,-3.86002 -10.4763,-7.81707 -15.44921,-12.05078 4.97411,4.23335 10.17362,8.19128 15.44921,12.05078 z" style="fill:#000000;stroke-width:0;stroke-dasharray:none" id="path79" />
    <path d="m 341.59961,572.69922 c -8.27761,0 -16.47109,-0.37108 -24.56641,-1.0957 8.09563,0.7242 16.28881,1.0957 24.56641,1.0957 z" style="fill:#000000;stroke-width:0;stroke-dasharray:none" id="path78" />
    <path d="m 481.50586,228.5332 c -9.02995,-6.25574 -18.46852,-12.03299 -28.30664,-17.23242 9.8402,5.2023 19.27837,10.97998 28.30664,17.23242 z" style="fill:#000000;stroke-width:0;stroke-dasharray:none" id="path76" />
    <path d="m 516.8418,258.35742 c -3.23897,-3.19401 -6.24698,-6.57376 -9.66211,-9.60937 3.41289,3.03453 6.42523,6.41699 9.66211,9.60937 z" style="fill:#000000;stroke-width:0;stroke-dasharray:none" id="path75" />
    <path d="m 538.7168,282.87695 c -2.91872,-3.72844 -5.61981,-7.59227 -8.75391,-11.16406 3.13245,3.57008 5.83731,7.43868 8.75391,11.16406 z" style="fill:#000000;stroke-width:0;stroke-dasharray:none" id="path74" />
    <path d="m 442.64844,327.96094 c -7.58233,4.92518 -15.05245,10.20278 -22.24805,16.13867 7.19347,-5.96531 14.6776,-11.20663 22.24805,-16.13867 z" style="fill:#000000;stroke-width:0;stroke-dasharray:none" id="path72" />
    <path d="m 475.53516,310.27734 c -2.09145,0.8963 -4.15925,1.81676 -6.23829,2.79102 2.0727,-0.9722 4.15306,-1.89535 6.23829,-2.79102 z" style="fill:#000000;stroke-width:0;stroke-dasharray:none" id="path69" />
    <path d="m 498.06445,302.08984 c -7.55872,2.19595 -15.06954,4.98331 -22.52929,8.1875 7.45836,-3.19628 14.97303,-6.0076 22.52929,-8.1875 z" style="fill:#000000;stroke-width:0;stroke-dasharray:none" id="path68" />
    <path d="m 526.51758,296.29297 c -0.002,-0.003 -0.004,-0.005 -0.006,-0.008 -8.03657,0.92456 -16.10481,2.5865 -24.16211,4.71679 8.05671,-2.11219 16.13,-3.80371 24.16797,-4.70898 z" style="fill:#000000;stroke-width:0;stroke-dasharray:none" id="path67" />
    <path d="m 511.66211,278.47266 c 3.7521,4.02169 7.32587,8.19133 10.78125,12.46093 -3.46075,-4.27662 -7.02291,-8.43249 -10.78125,-12.46093 z" style="fill:#000000;stroke-width:0;stroke-dasharray:none" id="path63" />
    <path d="m 502.03906,268.80859 c 3.29002,3.14727 6.52371,6.34199 9.62305,9.66407 -3.10367,-3.32667 -6.32816,-6.51301 -9.62305,-9.66407 z" style="fill:#000000;stroke-width:0;stroke-dasharray:none" id="path62" />
    <path d="m 489.65234,257.61328 c 4.28576,3.57324 8.36781,7.35185 12.38672,11.19531 -4.02482,-3.85018 -8.09413,-7.6158 -12.38672,-11.19531 z" style="fill:#000000;stroke-width:0;stroke-dasharray:none" id="path61" />
    <path d="m 478.98242,249.33594 c 3.61347,2.69742 7.21829,5.39908 10.66992,8.27734 -3.45648,-2.88184 -7.05126,-5.57706 -10.66992,-8.27734 z" style="fill:#000000;stroke-width:0;stroke-dasharray:none" id="path60" />
    <path d="m 465.04102,239.45508 c 4.79905,3.10504 9.38159,6.47828 13.9414,9.88086 -4.56623,-3.40866 -9.13495,-6.77035 -13.9414,-9.88086 z" style="fill:#000000;stroke-width:0;stroke-dasharray:none" id="path59" />
    <path d="m 453.6875,232.70508 c 3.81842,2.20549 7.66593,4.36357 11.35352,6.75 -3.69242,-2.38904 -7.53013,-4.54251 -11.35352,-6.75 z" style="fill:#000000;stroke-width:0;stroke-dasharray:none" id="path58" />
    <path d="m 438.23633,224.22266 c 5.29433,2.60376 10.36915,5.54823 15.45117,8.48242 -5.08865,-2.93918 -10.14917,-5.87438 -15.45117,-8.48242 z" style="fill:#000000;stroke-width:0;stroke-dasharray:none" id="path57" />
    <path d="m 426.48437,219.0293 c 3.93335,1.70682 7.92027,3.30855 11.75196,5.19336 -3.83588,-1.8865 -7.81448,-3.48532 -11.75196,-5.19336 z" style="fill:#000000;stroke-width:0;stroke-dasharray:none" id="path56" />
    <path d="m 409.60547,212.08984 c 5.75777,2.05023 11.30469,4.52141 16.8789,6.93946 -5.58056,-2.42162 -11.11366,-4.88639 -16.8789,-6.93946 z" style="fill:#000000;stroke-width:0;stroke-dasharray:none" id="path55" />
    <path d="m 379.44922,203.21484 c 6.24603,1.44784 12.30356,3.40168 18.39453,5.26758 -6.09653,-1.86798 -12.14168,-3.81829 -18.39453,-5.26758 z" style="fill:#000000;stroke-width:0;stroke-dasharray:none" id="path54" />
    <path d="m 348.17578,197.78125 c 6.91255,0.7855 13.66849,2.17943 20.45117,3.4707 -6.78602,-1.29195 -13.53373,-2.68477 -20.45117,-3.4707 z" style="fill:#000000;stroke-width:0;stroke-dasharray:none" id="path53" />
    <path d="m 92.519531,317.18945 c 1.844239,-3.09865 3.881743,-6.06991 5.871094,-9.07422 -1.991468,3.00329 -4.024271,5.97655 -5.871094,9.07422 z" style="fill:#000000;stroke-width:0;stroke-dasharray:none" id="path51" />
    <path d="m 83.664062,333.58594 c 1.809448,-3.71872 3.836213,-7.31184 5.845704,-10.91407 -2.013005,3.60148 -4.032131,7.19603 -5.845704,10.91407 z" style="fill:#000000;stroke-width:0;stroke-dasharray:none" id="path50" />
    <path d="m 66.132812,385.98828 a 209.9,209.9 0 0 0 -4.232421,40.91211 211.3,211.3 0 0 1 4.232421,-40.91211 z" style="fill:#000000;stroke-width:0;stroke-dasharray:none" id="path41" />
    <path d="m 543.59961,312.90039 h -1.66406 C 464.62705,314.35165 383.23359,382.19373 360,465.19922 c -4.42841,15.76213 -6.47622,31.24271 -6.21289,45.90234 -0.25234,-14.63028 1.79446,-30.07417 6.21289,-45.80078 23.4,-83.6 105.79961,-151.90039 183.59961,-152.40039 z" style="fill:#000000;stroke-width:0;stroke-dasharray:none" id="path35" />
    <path d="M 74.388672,276.67773 C 87.25083,150.42651 187.92651,49.75083 314.17773,36.888672 187.85175,49.743401 87.241505,150.42075 74.388672,276.67773 Z" style="fill:#000000;stroke-width:0;stroke-dasharray:none" id="path30" />
    <path d="m 296.35742,178.83984 c 6.79852,-0.46736 13.64547,-0.74023 20.54297,-0.74023 -6.89824,0 -13.74404,0.27313 -20.54297,0.74023 z" style="fill:#000000;stroke-width:0;stroke-dasharray:none" id="path28" />
    <path d="m 162.66797,221.85156 c 4.06343,-2.54081 8.15926,-5.03846 12.36914,-7.37695 -4.21035,2.33937 -8.30556,4.83499 -12.36914,7.37695 z" style="fill:#000000;stroke-width:0;stroke-dasharray:none" id="path27" />
    <path d="m 142.82227,235.37109 c 5.07276,-3.82964 10.29892,-7.48589 15.6582,-10.9707 -5.35897,3.48619 -10.58632,7.13919 -15.6582,10.9707 z" style="fill:#000000;stroke-width:0;stroke-dasharray:none" id="path26" />
    <path d="m 128.18555,247.30078 c 3.58765,-3.12973 7.31406,-6.11512 11.07812,-9.05859 -3.76343,2.94506 -7.49145,5.92696 -11.07812,9.05859 z" style="fill:#000000;stroke-width:0;stroke-dasharray:none" id="path25" />
    <path d="m 47.261719,457.37891 a 229.4,229.4 0 0 1 -1.708985,-41.85157 229.3,229.3 0 0 0 1.708985,41.85157 z" style="fill:#000000;stroke-width:0;stroke-dasharray:none" id="path13" />
    <path d="m 57.005859,289.2168 a 286.4,286.4 0 0 0 -1.80664,14.88281 300.7,300.7 0 0 0 3.24414,40.80469 286.4,286.4 0 0 1 -1.4375,-55.6875 z" style="fill:#000000;fill-rule:evenodd;stroke:#000000;stroke-width:0;stroke-linecap:round;stroke-dasharray:none;paint-order:stroke fill markers" id="path90" />
    <path d="M 628,304.09961 A 284.8,284.8 0 0 0 544.19922,101.5 286.4,286.4 0 0 0 523.61719,85.517578 286.4,286.4 0 0 1 628,304.09961 Z" style="fill:#000000;fill-rule:evenodd;stroke:#000000;stroke-width:0;stroke-linecap:round;stroke-dasharray:none;paint-order:stroke fill markers" id="path89" />
    <path d="m 626.98828,326.26953 c 1.99881,1.8895 3.89908,3.85895 5.73828,5.88086 -1.85363,-2.04242 -3.51358,-4.242 -5.52734,-6.15039 0.6,-7.6 0.80078,-14.80039 0.80078,-21.90039 0,7.16498 -0.44328,14.56335 -1.01172,22.16992 z" style="fill:#000000;fill-rule:evenodd;stroke:#000000;stroke-width:0;stroke-linecap:round;stroke-dasharray:none;paint-order:stroke fill markers" id="path88" />
    <path d="m 79.207031,360.24023 c -0.786285,-3.70918 -1.657457,-7.38116 -2.294922,-11.15234 -0.01909,0.0484 -0.04344,0.0941 -0.0625,0.14258 0.630695,3.73558 1.580563,7.33514 2.357422,11.00976 z" style="fill:#000000;fill-rule:evenodd;stroke:#000000;stroke-width:0;stroke-linecap:round;stroke-dasharray:none;paint-order:stroke fill markers" id="path87" />
    <path d="m 105.32617,431.97656 c -2.70282,-5.03064 -5.392794,-10.07079 -7.783201,-15.30078 2.389415,5.23173 5.080871,10.26871 7.783201,15.30078 z" style="fill:#000000;fill-rule:evenodd;stroke:#000000;stroke-width:0;stroke-linecap:round;stroke-dasharray:none;paint-order:stroke fill markers" id="path84" />
    <path d="m 548.2793,295.50781 c 13.44679,0.363 26.25316,2.42956 38.07226,6.39844 -11.84355,-4.00115 -24.52687,-6.45537 -38.05078,-6.80664 -2.92258,-4.25439 -6.39083,-8.14402 -9.58398,-12.22266 3.25994,4.16433 6.58339,8.28157 9.5625,12.63086 z" style="fill:#000000;fill-rule:evenodd;stroke:#000000;stroke-width:0;stroke-linecap:round;stroke-dasharray:none;paint-order:stroke fill markers" id="path73" />
    <path d="m 447.72461,324.65039 c -1.71264,1.0523 -3.37904,2.20489 -5.07617,3.31055 1.69346,-1.10001 3.36694,-2.26262 5.07617,-3.31055 z" style="fill:#000000;fill-rule:evenodd;stroke:#000000;stroke-width:0;stroke-linecap:round;stroke-dasharray:none;paint-order:stroke fill markers" id="path71" />
    <path d="m 469.29687,313.06836 c -7.29027,3.4195 -14.49564,7.24333 -21.57226,11.58203 7.07575,-4.34758 14.28701,-8.16809 21.57226,-11.58203 z" style="fill:#000000;fill-rule:evenodd;stroke:#000000;stroke-width:0;stroke-linecap:round;stroke-dasharray:none;paint-order:stroke fill markers" id="path70" />
    <path d="m 526.74609,296.24805 c -0.078,0.009 -0.15636,0.0281 -0.23437,0.0371 0.002,0.003 0.004,0.005 0.006,0.008 0.076,-0.009 0.15249,-0.0365 0.22851,-0.0449 z" style="fill:#000000;fill-rule:evenodd;stroke:#000000;stroke-width:0;stroke-linecap:round;stroke-dasharray:none;paint-order:stroke fill markers" id="path66" />
    <path d="m 522.44336,290.93359 c 1.41058,1.74314 2.70942,3.56834 4.06836,5.35157 0.078,-0.009 0.15637,-0.0283 0.23437,-0.0371 0.0844,-0.009 0.16952,-0.0396 0.25391,-0.0488 -1.40486,-1.84741 -3.09639,-3.46128 -4.55664,-5.26563 z" style="fill:#000000;fill-rule:evenodd;stroke:#000000;stroke-width:0;stroke-linecap:round;stroke-dasharray:none;paint-order:stroke fill markers" id="path64" />
    <path d="m 203.17383,220.1875 c 34.5832,-15.61406 73.33906,-24.225 113.72656,-24.1875 8.93185,0 17.77238,0.64936 26.56641,1.49805 -8.79947,-0.84916 -17.62613,-1.59766 -26.56641,-1.59766 -40.39558,0 -79.14378,8.66162 -113.72656,24.28711 z" style="fill:#000000;fill-rule:evenodd;stroke:#000000;stroke-width:0;stroke-linecap:round;stroke-dasharray:none;paint-order:stroke fill markers" id="path52" />
    <path d="m 81.732422,337.92383 c -1.69184,3.67666 -3.329057,7.38226 -4.820313,11.16406 0.637465,3.77118 1.508637,7.44316 2.294922,11.15234 0.810451,3.83352 1.491121,7.72223 2.457031,11.48633 1.195772,4.65005 2.696519,9.15252 4.123047,13.69141 0.967314,3.08246 1.794097,6.23484 2.865235,9.26367 1.763554,4.98043 3.832905,9.79215 5.86914,14.62109 1.030108,2.44506 1.923275,4.96848 3.021485,7.37305 2.390407,5.22999 5.080381,10.27014 7.783201,15.30078 0.99456,1.852 1.86465,3.78545 2.90039,5.60938 3.00087,5.28238 6.29155,10.35635 9.62696,15.39453 0.95683,1.44559 1.80353,2.97368 2.78711,4.39844 3.59097,5.20092 7.45911,10.17607 11.39453,15.08984 0.90222,1.12649 1.71109,2.33247 2.63086,3.44336 4.11929,4.97554 8.50015,9.70869 12.95898,14.36133 0.88774,0.92614 1.69301,1.93276 2.59375,2.8457 4.54256,4.60506 9.33014,8.9516 14.19141,13.21094 0.95075,0.83277 1.82461,1.75115 2.78711,2.57031 4.97291,4.23371 10.17508,8.19076 15.44921,12.05078 0.96285,0.70439 1.85565,1.49786 2.82813,2.18945 5.16681,3.67602 10.54679,7.05599 15.97461,10.36133 1.20291,0.73218 2.33366,1.56971 3.54883,2.28321 5.40001,3.17221 10.99567,6.03217 16.62695,8.82617 1.34384,0.66639 2.61823,1.44942 3.97461,2.09375 5.47115,2.60041 11.11979,4.87067 16.78516,7.10351 1.63155,0.64266 3.19303,1.42174 4.83984,2.03321 5.52266,2.05177 11.20558,3.75632 16.89062,5.44922 1.88978,0.56238 3.71248,1.27696 5.61914,1.79882 5.64737,1.54668 11.4362,2.72702 17.22266,3.91016 2.04113,0.41707 4.02086,1.0002 6.07813,1.37109 5.79586,1.04556 11.71578,1.70786 17.63086,2.37891 2.13556,0.24212 4.21728,0.66119 6.36718,0.85352 8.09532,0.72462 16.2888,1.0957 24.56641,1.0957 h 9.70117 c -16.9,-31 -20.1,-70.89961 -8.5,-112.09961 12.4,-44.1 39.89961,-85.4 77.59961,-116.5 7.1956,-5.93589 14.66572,-11.21349 22.24805,-16.13867 1.69713,-1.10566 3.36353,-2.25825 5.07617,-3.31055 7.07662,-4.3387 14.28199,-8.16253 21.57226,-11.58203 2.07904,-0.97426 4.14684,-1.89472 6.23829,-2.79102 7.45975,-3.20419 14.97057,-5.99155 22.52929,-8.1875 1.43064,-0.41272 2.85301,-0.71243 4.28516,-1.08789 8.0573,-2.13029 16.12554,-3.79223 24.16211,-4.71679 -1.35894,-1.78323 -2.65778,-3.60843 -4.06836,-5.35157 -3.45538,-4.2696 -7.02915,-8.43924 -10.78125,-12.46093 -3.09934,-3.32208 -6.33303,-6.5168 -9.62305,-9.66407 -4.01891,-3.84346 -8.10096,-7.62207 -12.38672,-11.19531 -3.45163,-2.87826 -7.05645,-5.57992 -10.66992,-8.27734 -4.55981,-3.40258 -9.14235,-6.77582 -13.9414,-9.88086 -3.68759,-2.38643 -7.5351,-4.54451 -11.35352,-6.75 -5.08202,-2.93419 -10.15684,-5.87866 -15.45117,-8.48242 -3.83169,-1.88481 -7.81861,-3.48654 -11.75196,-5.19336 -5.57421,-2.41805 -11.12113,-4.88923 -16.8789,-6.93946 -3.84969,-1.37091 -7.8384,-2.40531 -11.76172,-3.60742 -6.09097,-1.8659 -12.1485,-3.81974 -18.39453,-5.26758 -3.55629,-0.82428 -7.22204,-1.27746 -10.82227,-1.96289 -6.78268,-1.29127 -13.53862,-2.6852 -20.45117,-3.4707 -1.5541,-0.17657 -3.14925,-0.13269 -4.70898,-0.2832 C 334.67277,196.64936 325.83224,196 316.90039,196 c -46.22351,-0.0429 -90.26874,11.30773 -128.4082,31.45508 -0.78362,0.41418 -1.60426,0.77172 -2.38282,1.19336 -4.2427,2.29645 -8.3434,4.79274 -12.42968,7.30664 -1.26618,0.7793 -2.5894,1.48153 -3.83985,2.28125 -3.77465,2.41306 -7.39758,5.01382 -11.02343,7.60937 -1.43917,1.03065 -2.94272,1.98422 -4.35743,3.04297 -3.30533,2.47268 -6.45201,5.11725 -9.61914,7.74024 -1.61554,1.33856 -3.30275,2.60175 -4.88086,3.97851 -2.7672,2.41305 -5.37102,4.9837 -8.01953,7.51172 -1.83574,1.75319 -3.74499,3.43705 -5.52148,5.24414 -2.31804,2.35654 -4.4713,4.85457 -6.68555,7.30078 -1.91915,2.12176 -3.90976,4.18363 -5.74804,6.3711 -1.93029,2.295 -3.6964,4.71443 -5.53516,7.08007 -1.94393,2.50348 -3.95304,4.95863 -5.79102,7.53907 -1.49865,2.10156 -2.841009,4.30956 -4.267575,6.46093 -1.989351,3.00431 -4.026855,5.97557 -5.871094,9.07422 -1.0666,1.78901 -1.992685,3.66276 -3.009765,5.48242 -2.009491,3.60223 -4.036256,7.19535 -5.845704,10.91407 -0.692427,1.41955 -1.269014,2.90181 -1.93164,4.33789 z" style="fill:#000000;fill-rule:evenodd;stroke:#000000;stroke-width:0;stroke-linecap:round;stroke-dasharray:none;paint-order:stroke fill markers" id="path49" />
    <path d="m 58.800781,349.40039 a 300.7,300.7 0 0 1 -0.146484,-1.84375 229.4,229.4 0 0 0 -0.06055,0.25781 z" style="fill:#000000;fill-rule:evenodd;stroke:#000000;stroke-width:0;stroke-linecap:round;stroke-dasharray:none;paint-order:stroke fill markers" id="path44" />
    <path d="m 66.412109,376.17383 a 286.6,286.6 0 0 1 -7.611328,-26.77344 l 5.298828,32.79883 z" style="fill:#000000;fill-rule:evenodd;stroke:#000000;stroke-width:0;stroke-linecap:round;stroke-dasharray:none;paint-order:stroke fill markers" id="path43" />
    <path d="m 66.675781,384.07422 a 286.6,286.6 0 0 1 -0.27539,-0.67383 211.3,211.3 0 0 0 -0.267579,2.58789 209.9,209.9 0 0 1 0.542969,-1.91406 z" style="fill:#000000;fill-rule:evenodd;stroke:#000000;stroke-width:0;stroke-linecap:round;stroke-dasharray:none;paint-order:stroke fill markers" id="path40" />
    <path d="m 73.164062,399.92773 a 286.6,286.6 0 0 1 -5.498046,-19.34375 209.9,209.9 0 0 0 -0.990235,3.49024 286.6,286.6 0 0 0 6.488281,15.85351 z" style="fill:#000000;fill-rule:evenodd;stroke:#000000;stroke-width:0;stroke-linecap:round;stroke-dasharray:none;paint-order:stroke fill markers" id="path39" />
    <path d="m 380.68359,585.31445 a 3.2,3.2 0 0 1 -2.98437,2.98633 l -10,0.89844 c -9.2,0.9 -17.69961,1.30078 -26.09961,1.30078 8.4,0 16.89961,-0.39922 26.09961,-1.19922 l 10,-0.90039 a 3.2,3.2 0 0 0 2.98437,-3.08594 z" style="fill:#000000;fill-rule:evenodd;stroke:#000000;stroke-width:0;stroke-linecap:round;stroke-dasharray:none;paint-order:stroke fill markers" id="path38" />
    <path d="m 353.78711,511.10156 c 0.42157,24.44183 7.26386,46.60757 20.21289,63.99805 l 6,8.09961 a 3.2,3.2 0 0 1 0.68359,2.11523 A 3.2,3.2 0 0 0 380,583.09961 L 374,575 c -12.93152,-17.36697 -19.77455,-39.49581 -20.21289,-63.89844 z" style="fill:#000000;fill-rule:evenodd;stroke:#000000;stroke-width:0;stroke-linecap:round;stroke-dasharray:none;paint-order:stroke fill markers" id="path36" />
    <path d="m 609.81836,312.65234 c -0.72462,-0.44744 -1.53204,-0.76623 -2.26758,-1.19726 0.79607,0.46592 1.46678,1.11418 2.25,1.59961 0.004,-0.13189 0.0138,-0.27064 0.0176,-0.40235 z" style="fill:#000000;fill-rule:evenodd;stroke:#000000;stroke-width:0;stroke-linecap:round;stroke-dasharray:none;paint-order:stroke fill markers" id="path32" />
    <path d="m 610.19922,304.09961 c 0,2.73536 -0.30063,5.75281 -0.38086,8.55273 0.0899,0.0555 0.19155,0.0927 0.28125,0.14844 0.1,-2.9 0.0996,-5.80117 0.0996,-8.70117 z" style="fill:#000000;fill-rule:evenodd;stroke:#000000;stroke-width:0;stroke-linecap:round;stroke-dasharray:none;paint-order:stroke fill markers" id="path31" />
    <path d="M 73.798828,314.07227 A 276.7,276.7 0 0 1 73,304.09961 c 0,3.6 0.100781,7.20078 0.300781,10.80078 0.155847,-0.28243 0.341088,-0.54637 0.498047,-0.82812 z" style="fill:#000000;fill-rule:evenodd;stroke:#000000;stroke-width:0;stroke-linecap:round;stroke-dasharray:none;paint-order:stroke fill markers" id="path29" />
    <path d="m 74.470703,312.95312 c 1.828981,-3.2346 3.758882,-6.3981 5.732422,-9.54101 1.404593,-2.24123 2.828588,-4.46495 4.304687,-6.6582 1.92724,-2.8585 3.907685,-5.67228 5.953125,-8.44727 1.726094,-2.3456 3.506327,-4.64538 5.314454,-6.92969 2.020534,-2.54891 4.052159,-5.08196 6.171879,-7.55273 2.07148,-2.41782 4.22902,-4.75857 6.39257,-7.09961 2.04862,-2.21401 4.07276,-4.44218 6.20118,-6.58594 2.53689,-2.55803 5.18723,-5.00548 7.83398,-7.46094 1.93641,-1.79474 3.81741,-3.63821 5.81055,-5.37695 3.58667,-3.13163 7.31469,-6.11353 11.07812,-9.05859 1.20238,-0.94025 2.33886,-1.95027 3.5586,-2.8711 5.07188,-3.83151 10.29923,-7.48451 15.6582,-10.9707 1.36686,-0.88878 2.80291,-1.68306 4.1875,-2.54883 4.06358,-2.54196 8.15879,-5.03758 12.36914,-7.37695 1.98127,-1.10055 4.02492,-2.1015 6.03711,-3.15625 3.71127,-1.94583 7.4361,-3.86354 11.24805,-5.65039 2.28742,-1.07214 4.6176,-2.06238 6.93945,-3.07617 3.66117,-1.59869 7.34127,-3.15271 11.08398,-4.60352 2.4596,-0.9535 4.94266,-1.84981 7.43555,-2.73828 3.72931,-1.32901 7.48724,-2.58682 11.28711,-3.76758 2.55006,-0.79259 5.10562,-1.56051 7.68555,-2.28515 3.85486,-1.08249 7.74651,-2.06214 11.66406,-2.99024 2.59911,-0.616 5.18961,-1.24024 7.81445,-1.78711 4.05571,-0.84465 8.15472,-1.54977 12.26758,-2.22656 2.53887,-0.418 5.05823,-0.88338 7.61719,-1.23633 4.51168,-0.62198 9.07175,-1.06019 13.64062,-1.47656 2.20409,-0.201 4.38344,-0.48828 6.59961,-0.64063 6.79893,-0.4671 13.64473,-0.74023 20.54297,-0.74023 a 293.9,293.9 0 0 1 136.29883,33.20117 c 9.83812,5.19943 19.27669,10.97668 28.30664,17.23242 3.14405,2.17738 5.94749,4.71447 8.98437,7.01172 5.67349,4.29315 11.41208,8.5108 16.68946,13.20313 3.41513,3.03561 6.42314,6.41536 9.66211,9.60937 4.45397,4.39275 9.01867,8.67992 13.12109,13.35547 3.1341,3.57179 5.83519,7.43562 8.75391,11.16406 3.19315,4.07864 6.6614,7.96827 9.58398,12.22266 13.52391,0.35127 26.20723,2.80549 38.05078,6.80664 1.06311,0.35699 2.09691,0.7513 3.14453,1.13672 5.44393,2.01347 10.6701,4.38573 15.66211,7.15039 0.78973,0.43648 1.6149,0.80655 2.39258,1.26172 0.73554,0.43103 1.54296,0.74982 2.26758,1.19726 0.0802,-2.79992 0.38086,-5.81737 0.38086,-8.55273 C 610.19922,155.99961 489.79961,35.5 341.59961,35.5 193.49961,35.5 73,155.99961 73,304.09961 a 276.7,276.7 0 0 0 0.798828,9.97266 c 0.212017,-0.38059 0.457835,-0.7398 0.671875,-1.11915 z" style="fill:#000000;fill-rule:evenodd;stroke:#000000;stroke-width:0;stroke-linecap:round;stroke-dasharray:none;paint-order:stroke fill markers" id="path24" />
    <path d="m 73.806641,314.19141 c 0.228021,-0.40882 0.433707,-0.83089 0.664062,-1.23829 -0.21404,0.37935 -0.459858,0.73856 -0.671875,1.11915 a 276.7,276.7 0 0 0 0.0078,0.11914 z" style="fill:#000000;fill-rule:evenodd;stroke:#000000;stroke-width:0;stroke-linecap:round;stroke-dasharray:none;paint-order:stroke fill markers" id="path22" />
    <path d="m 58.595703,346.82422 a 300.7,300.7 0 0 0 0.05859,0.73242 229.4,229.4 0 0 1 0.646484,-2.75586 z" style="fill:#000000;fill-rule:evenodd;stroke:#000000;stroke-width:0;stroke-linecap:round;stroke-dasharray:none;paint-order:stroke fill markers" id="path18" />
    <path d="m 58.5,347.09961 0.09375,0.71484 a 229.4,229.4 0 0 1 0.06055,-0.25781 300.7,300.7 0 0 1 -0.05859,-0.73242 z" style="fill:#000000;fill-rule:evenodd;stroke:#000000;stroke-width:0;stroke-linecap:round;stroke-dasharray:none;paint-order:stroke fill markers" id="path16" />
    <path d="m 58.5,347.09961 0.0957,-0.27539 A 300.7,300.7 0 0 1 58.443359,344.9043 286.4,286.4 0 0 0 58.5,347.09961 Z" style="fill:#000000;fill-rule:evenodd;stroke:#000000;stroke-width:0;stroke-linecap:round;stroke-dasharray:none;paint-order:stroke fill markers" id="path15" />
    <path d="M 46.410156,399.73633 A 229.4,229.4 0 0 1 58.59375,347.81445 L 58.5,347.09961 a 229.3,229.3 0 0 0 -12.089844,52.63672 z" style="fill:#000000;fill-rule:evenodd;stroke:#000000;stroke-width:0;stroke-linecap:round;stroke-dasharray:none;paint-order:stroke fill markers" id="path14" />
    <path d="M 49.601562,473.18555 A 229.4,229.4 0 0 1 47.261719,457.37891 229.3,229.3 0 0 1 45.552734,415.52734 229.4,229.4 0 0 1 46.410156,399.73633 229.3,229.3 0 0 1 58.5,347.09961 a 286.4,286.4 0 0 1 -0.05664,-2.19531 300.7,300.7 0 0 1 -3.24414,-40.80469 286.4,286.4 0 0 1 1.80664,-14.88281 286.4,286.4 0 0 1 3.951172,-32.53907 286.4,286.4 0 0 1 8.28125,-36.18945 286.4,286.4 0 0 1 11.841797,-31.22461 286.4,286.4 0 0 1 16.712891,-32.43945 286.4,286.4 0 0 1 19.27344,-27.92383 286.4,286.4 0 0 1 23.88476,-26.87695 286.4,286.4 0 0 1 25.74024,-22.806643 286.4,286.4 0 0 1 29.42578,-19.853516 286.4,286.4 0 0 1 30.80273,-16.166015 286.4,286.4 0 0 1 33.07813,-11.804688 286.4,286.4 0 0 1 34.08398,-8.400391 286.4,286.4 0 0 1 34.71094,-3.203125 286.4,286.4 0 0 1 35.29883,0 286.4,286.4 0 0 1 34.33203,5.496094 286.4,286.4 0 0 1 34.30664,8.455078 286.4,286.4 0 0 1 31.9668,13.875 286.4,286.4 0 0 1 31.19921,16.375 286.4,286.4 0 0 1 27.72071,21.527344 A 286.4,286.4 0 0 1 544.19922,101.5 284.8,284.8 0 0 1 628,304.09961 c 0,7.1 -0.20078,14.30039 -0.80078,21.90039 2.01376,1.90839 3.67371,4.10797 5.52734,6.15039 1.56189,1.71705 3.20072,3.36163 4.64649,5.16992 2.22003,2.7799 4.1527,5.76051 6.09765,8.74414 1.30277,1.99774 2.69582,3.922 3.87305,6.00586 1.74165,3.08323 3.17877,6.34971 4.64258,9.61133 1.00743,2.24272 2.11549,4.41536 2.99023,6.73633 1.20185,3.19518 2.09885,6.54694 3.04492,9.88281 0.75934,2.66266 1.61521,5.26566 2.21094,8.00977 0.12441,0.57906 0.3498,1.10682 0.4668,1.68945 a 330,330 0 0 0 3.5,-47.80078 C 664.19922,161.99922 519.2,17 341,17 162.8,17 17.800781,161.99922 17.800781,340.19922 a 321.9,321.9 0 0 0 33.298828,143.10156 229.3,229.3 0 0 1 -1.498047,-10.11523 z" style="fill:#000000;fill-rule:evenodd;stroke:#000000;stroke-width:0;stroke-linecap:round;stroke-dasharray:none;paint-order:stroke fill markers" id="path12" />
    <path d="m 128.30078,606.59961 c -0.44645,-0.35662 -0.82321,-0.77428 -1.26758,-1.13281 0.33852,0.30015 0.62639,0.63475 0.9668,0.93359 z" style="fill:#000000;fill-rule:evenodd;stroke:#000000;stroke-width:0;stroke-linecap:round;stroke-dasharray:none;paint-order:stroke fill markers" id="path11" />
    <path d="m 63.183594,450.34961 c -0.852961,-7.73723 -1.283203,-15.55976 -1.283203,-23.44922 a 209.9,209.9 0 0 1 4.232421,-40.91211 211.3,211.3 0 0 1 0.267579,-2.58789 286.6,286.6 0 0 0 0.27539,0.67383 209.9,209.9 0 0 1 0.990235,-3.49024 286.6,286.6 0 0 1 -1.253907,-4.41015 l -2.3125,6.02539 -5.298828,-32.79883 -0.207031,-1.58594 a 229.4,229.4 0 0 0 -12.183594,51.92188 229.3,229.3 0 0 0 -0.857422,15.79101 229.4,229.4 0 0 0 1.708985,41.85157 229.3,229.3 0 0 0 2.339843,15.80664 229.4,229.4 0 0 0 17.097657,53.01367 c 14.311603,29.90631 34.618111,56.46647 60.333981,79.26758 0.44437,0.35853 0.82113,0.77619 1.26758,1.13281 L 139.69922,593 C 95.774219,554.5 69.152734,504.51621 63.183594,450.34961 Z" style="fill:#000000;fill-rule:evenodd;stroke:#000000;stroke-width:0;stroke-linecap:round;stroke-dasharray:none;paint-order:stroke fill markers" id="path10" />
    <path d="M 634.49805,475.50391 A 323.3,323.3 0 0 0 634.5,475.5 c 1.9,-5 3.50039,-10.1 4.90039,-15 14.2,-50.6 3.99922,-96.99961 -27.30078,-124.09961 -17.7,-15.4 -41.09922,-23.5 -67.69922,-23.5 h -0.80078 c -77.8,0.5 -160.19961,68.80039 -183.59961,152.40039 -4.41843,15.72661 -6.46523,31.1705 -6.21289,45.80078 C 354.22545,535.50419 361.06848,557.63303 374,575 l 6,8.09961 a 3.2,3.2 0 0 1 0.68359,2.21484 3.2,3.2 0 0 1 -2.98437,3.08594 l -10,0.90039 c -9.2,0.8 -17.69961,1.19922 -26.09961,1.19922 a 286.6,286.6 0 0 1 -64.01758,-7.59766 286.6,286.6 0 0 1 -20.05664,-6.70898 286.6,286.6 0 0 1 -40.63086,-14.98242 286.6,286.6 0 0 1 -21.63867,-12.9043 286.6,286.6 0 0 1 -32.64258,-21.78125 286.6,286.6 0 0 1 -19.56445,-18.31836 286.6,286.6 0 0 1 -25.60352,-27.63672 286.6,286.6 0 0 1 -15.60937,-22.65039 286.6,286.6 0 0 1 -18.14844,-32.28515 286.6,286.6 0 0 1 -10.523438,-25.70704 286.6,286.6 0 0 1 -6.488281,-15.85351 209.9,209.9 0 0 0 -0.542969,1.91406 211.3,211.3 0 0 0 -4.232421,40.91211 c 0,63.1 27.599218,122 77.699219,166 A 323.3,323.3 0 0 0 634.49805,475.50391 Z" style="fill:#000000;fill-rule:evenodd;stroke:#000000;stroke-width:0;stroke-linecap:round;stroke-dasharray:none;paint-order:stroke fill markers" id="path9" />
    <path d="m 651.38086,481.3418 a 340.9,340.9 0 0 1 -0.58008,1.35742 l -16.40039,-6.89844 c 0.0369,-0.099 0.0609,-0.19778 0.0977,-0.29687 A 323.3,323.3 0 0 1 139.59961,592.90039 C 95.763667,554.40176 69.152622,504.49485 63.183594,450.34961 69.152734,504.51621 95.774219,554.5 139.69922,593 l -11.39844,13.59961 A 340.7,340.7 0 0 0 341,681.19922 341.5,341.5 0 0 0 650.80078,482.80078 l 0.29883,-0.60156 c 0.1072,-0.28588 0.1756,-0.57154 0.28125,-0.85742 z" style="fill:#000000;fill-rule:evenodd;stroke:#000000;stroke-width:0;stroke-linecap:round;stroke-dasharray:none;paint-order:stroke fill markers" id="path7" />
    <path d="M 316.66992,0.11523437 A 341,341 0 0 0 0,340.19922 C 0,443.82842 46.358104,540.37549 127.0332,605.4668 101.31733,582.66569 81.010822,556.10553 66.699219,526.19922 A 229.4,229.4 0 0 1 49.601562,473.18555 229.3,229.3 0 0 0 51.099609,483.30078 321.9,321.9 0 0 1 17.800781,340.19922 C 17.800781,161.99922 162.8,17 341,17 519.2,17 664.19922,161.99922 664.19922,340.19922 a 330,330 0 0 1 -3.5,47.80078 c -0.117,-0.58263 -0.34239,-1.11039 -0.4668,-1.68945 5.21835,24.03726 4.23506,51.03918 -3.63281,79.08984 -1.51832,5.31412 -3.25477,10.62729 -5.21875,15.94141 A 340.9,340.9 0 0 0 582.09961,99.099609 341,341 0 0 0 316.66992,0.11523437 Z" style="fill:#000000;fill-rule:evenodd;stroke:#000000;stroke-width:0;stroke-linecap:round;stroke-dasharray:none;paint-order:stroke fill markers" id="path6" />
  </g>
</svg>
