<?xml version="1.0" encoding="UTF-8"?><svg id="a" xmlns="http://www.w3.org/2000/svg" viewBox="0 0 160 80"><defs><style>.b{opacity:.5;}.b,.c,.d,.e{stroke-width:0px;}.b,.c,.e{isolation:isolate;}.c{opacity:.85;}.f,.e{opacity:.8;}</style></defs><g class="f"><path class="c" d="m12.69,63.74l-.8-.57.8.57Z"/><path class="c" d="m15.71,65.48l-.87-.39c.27.11.57.25.87.39Z"/><path class="c" d="m28.81,60.81h2.29c-2.08-2.97-2.62-6.76-1.46-10.2,2-7.59,9.44-13.72,16.46-13.72h0c-4.41-6.42-11.74-10.2-19.53-10.09-9.33-.18-17.83,5.31-21.5,13.89,1.86,11.65,11.94,20.2,23.74,20.12Z"/><path class="c" d="m3.79,47.46c0-2.34.43-4.67,1.26-6.86-.2-1.26-.3-2.53-.3-3.8.07-13.13,10.71-23.75,23.84-23.79h0c13.17-.04,23.88,10.6,23.92,23.77v2.23h0c3.04,2.97,4.05,7.44,2.58,11.43-.09.36-.2.71-.34,1.06,6.37-14.45-.18-31.32-14.62-37.69-14.45-6.37-31.32.18-37.69,14.62-5.22,11.84-1.84,25.71,8.25,33.82-4.33-3.7-6.84-9.1-6.89-14.79Z"/><path class="c" d="m39.88,66.26l-.34.13.34-.13Z"/><path class="c" d="m50.54,58.37c.07-.12.15-.22.25-.32-.1.1-.18.2-.25.32Z"/><path class="c" d="m20.72,67.38l-1.1-.37,1.1.37Z"/><path class="c" d="m18.2,66.53c-.34-.11-.67-.24-1-.39l1,.39Z"/><path class="c" d="m23.26,68.06l-1-.2,1,.2Z"/></g><path class="d" d="m158.63,47.66c-4.58,0-6.5-2.28-6.5-6.72V13.49h-13.72v20.43c-4.56-9.76-16.17-13.99-25.93-9.43-4.15,1.94-7.49,5.28-9.43,9.43v-10.91h-13.35v19.21c0,3.45-1.83,5.79-4.88,5.79s-4.82-2.38-4.82-5.79v-19.21h-13.77v19.35c0,11.8,7.23,19.21,18.48,19.21,8.27.49,15.69-5.06,17.56-13.13,3.51,10.19,14.62,15.59,24.81,12.08,5.56-1.92,9.96-6.25,11.97-11.78,2,8.69,8.58,12.53,17.38,12.53h3.57v-13.61h-1.37Zm-37.81.3c-3.25.04-5.91-2.56-5.95-5.81s2.56-5.91,5.81-5.95c3.23-.04,5.88,2.53,5.95,5.76h0c.1,3.24-2.45,5.95-5.69,6.05-.03,0-.06,0-.09,0l-.03-.05Z"/><path class="b" d="m28.59,13.01c-13.13-.04-23.81,10.57-23.86,23.7,0,1.32.1,2.64.32,3.95,3.62-8.61,12.16-14.12,21.5-13.88,7.78-.12,15.11,3.67,19.51,10.09h0c2.32-.05,4.58.77,6.33,2.29v-2.29c0-13.15-10.63-23.82-23.78-23.86h0"/><path class="e" d="m52.51,39.01c-1.77-1.51-4.03-2.33-6.36-2.29h0c-7,0-14.43,6.13-16.47,13.73-1.19,3.43-.68,7.23,1.38,10.22h-2.18c-11.8.12-21.92-8.4-23.83-20.05-.84,2.19-1.26,4.52-1.26,6.86.06,5.75,2.61,11.19,7,14.91,12.35,9.85,30.34,7.82,40.19-4.53,1.43-1.8,2.64-3.76,3.61-5.85.19-.45.34-.92.46-1.39,1.45-3.99.44-8.46-2.59-11.44"/></svg>