<?xml version="1.0" encoding="UTF-8" standalone="no"?>
<svg version="1.1" width="32" height="32" id="svg2" sodipodi:docname="upwork.svg" inkscape:version="1.4-beta2 (9aaf4f34, 2024-07-30)" xmlns:inkscape="http://www.inkscape.org/namespaces/inkscape" xmlns:sodipodi="http://sodipodi.sourceforge.net/DTD/sodipodi-0.dtd" xmlns="http://www.w3.org/2000/svg" xmlns:svg="http://www.w3.org/2000/svg">
  <defs id="defs2" />
  <sodipodi:namedview id="namedview2" pagecolor="#ffffff" bordercolor="#000000" borderopacity="0.25" inkscape:showpageshadow="2" inkscape:pageopacity="0.0" inkscape:pagecheckerboard="0" inkscape:deskcolor="#d1d1d1" inkscape:zoom="4.2043601" inkscape:cx="7.373298" inkscape:cy="50.30492" inkscape:window-width="1440" inkscape:window-height="790" inkscape:window-x="0" inkscape:window-y="0" inkscape:window-maximized="1" inkscape:current-layer="svg2" />
  <g id="g2" transform="matrix(0.07121177,0,0,0.07121177,-2.6063045,-2.3267192)">
    <path d="M 0,0 C 1.0482193,-0.00101212 1.0482193,-0.00101212 2.1176148,-0.00204468 46.275643,0.06509912 90.495553,12.761061 126.8125,38.25 c 0.95648,0.665156 1.91297,1.330312 2.89844,2.015625 49.82144,35.447187 82.21002,87.347635 92.94873,147.504395 0.41869,2.48961 0.7989,4.98038 1.15283,7.47998 0.10312,0.72381 0.20625,1.44762 0.3125,2.19336 2.67832,22.21095 2.2279,46.93277 -2.3125,68.80664 -0.29802,1.47001 -0.29802,1.47001 -0.60205,2.96973 -7.17473,34.47094 -21.40672,66.42979 -43.39795,94.03027 -0.78375,0.98871 -1.5675,1.97742 -2.375,2.99609 -11.84226,14.60822 -25.36578,27.99966 -40.625,39.00391 -1.04156,0.76312 -2.08313,1.52625 -3.15625,2.3125 -49.168527,35.05083 -109.37538,48.09996 -168.84375,38.6875 -43.019777,-7.34703 -81.61181,-26.59237 -113.75391,-55.97656 -1.77335,-1.59756 -3.56293,-3.10727 -5.43359,-4.58594 -2.97149,-2.57529 -5.44473,-5.31232 -7.98437,-8.30469 -1.16902,-1.36385 -2.36501,-2.70532 -3.59375,-4.01562 -41.76149,-44.74445 -57.47133,-105.49317 -55.46631,-165.28223 0.44094,-10.43766 1.961,-20.64171 4.23193,-30.83496 0.28085,-1.28173 0.28085,-1.28173 0.56738,-2.58936 1.25341,-5.54293 2.74883,-10.98383 4.43262,-16.41064 0.36883,-1.19303 0.36883,-1.19303 0.74512,-2.41016 13.11533,-41.53461 38.92774,-79.655514 73.25488,-106.58984 0.95004,-0.778594 1.90008,-1.557187 2.87891,-2.359375 C -105.95384,21.742754 -66.008601,5.7532366 -26.1875,1.25 -25.381272,1.1571875 -24.575044,1.064375 -23.744385,0.96875 -15.838126,0.15073526 -7.943697,0.00696298 0,0 Z m -141.1875,137.25 c -0.0679,12.83113 -0.12292,25.66213 -0.15544,38.4934 -0.0156,5.95897 -0.0368,11.91782 -0.0709,17.87672 -0.0328,5.75773 -0.0506,11.51534 -0.0583,17.27315 -0.006,2.18948 -0.0163,4.37895 -0.0326,6.56838 -0.101,14.15936 0.24907,26.91335 6.81719,39.78835 0.34039,0.67152 0.68079,1.34304 1.03149,2.03491 6.85426,12.83478 17.94446,22.54539 30.96851,28.77759 0.90734,0.43566 0.90734,0.43566 1.83301,0.88013 13.065322,5.92558 30.131718,6.56405 43.815428,2.40112 17.89424,-6.86354 32.2662,-18.03259 40.726562,-35.65625 4.310041,-9.72154 5.668195,-19.59741 6.3125,-30.125 0.1227832,-1.78567 0.1227832,-1.78567 0.2480469,-3.60742 0.1980727,-2.90118 0.3860332,-5.80263 0.5644531,-8.70508 0.5452734,1.06477 1.0905469,2.12953 1.6523438,3.22656 3.7780346,7.30071 7.62920509,14.49317 12.0976562,21.39844 0.3735864,0.57919 0.7471728,1.15838 1.1320801,1.75513 1.9359523,2.9551 3.9915135,5.71451 6.2429199,8.43237 3.652544,6.20932 0.532888,14.38554 -0.982666,21.13208 -0.185464,0.84345 -0.370928,1.6869 -0.562012,2.55591 -0.3995207,1.81408 -0.8011728,3.62769 -1.2047746,5.44086 -0.6387387,2.8699 -1.2716471,5.74103 -1.90312,8.61253 C 5.9451443,291.89124 4.5979492,297.97694 3.25,304.0625 c -1.5659526,7.07193 -3.128854,14.14451 -4.6849804,21.2186 -0.6236409,2.82813 -1.2523635,5.65509 -1.881319,8.48204 -0.3812166,1.7297 -0.7622054,3.45945 -1.1429291,5.18925 -0.176093,0.785 -0.352186,1.56999 -0.5336151,2.37877 -0.7475742,3.4189 -1.1946564,6.39908 -1.1946564,9.91884 11.22,0 22.44,0 34,0 2.667924,-12.39217 2.667924,-12.39217 5.332031,-24.78516 1.085244,-5.0525 2.17094,-10.1049 3.259278,-15.15673 0.877107,-4.07149 1.75223,-8.1434 2.625961,-12.21562 0.334207,-1.55592 0.669137,-3.1117 1.004791,-4.66732 0.468893,-2.17371 0.935245,-4.34795 1.400986,-6.52234 0.266473,-1.2391 0.532947,-2.4782 0.807495,-3.75485 0.633729,-2.73283 0.633729,-2.73283 0.569458,-4.89798 1.00418,0.53109 2.008359,1.06219 3.042969,1.60937 19.351247,10.06085 42.56184,16.29019 64.214841,9.48047 20.0108,-7.95301 34.57419,-20.61907 43.48609,-40.53125 6.4045,-15.07754 8.17966,-32.95918 2.2561,-48.55859 -8.14172,-19.50483 -21.67119,-32.74826 -41,-41 -17.254206,-6.39393 -35.317944,-5.03394 -52.058594,2.43359 -18.241162,9.71409 -29.862798,26.09806 -35.941406,45.56641 0,0.99 0,1.98 0,3 -0.66,0 -1.32,0 -2,0 -0.279082,-0.73162 -0.558164,-1.46325 -0.845703,-2.21704 -1.064107,-2.56552 -2.254024,-4.89727 -3.623047,-7.3103 C 8.6521366,180.8655 -0.32256602,159.82997 -8.1875,137.25 c -11.22,0 -22.44,0 -34,0 -0.0093,2.88605 -0.01869,5.7721 -0.02832,8.74561 -0.03384,9.55944 -0.08943,19.11868 -0.155583,28.67796 -0.03943,5.79306 -0.07164,11.58598 -0.08709,17.37916 -0.0152,5.59582 -0.0497,11.19122 -0.09731,16.78684 -0.01478,2.12967 -0.02273,4.2594 -0.02357,6.38912 -0.0024,2.99437 -0.02955,5.98759 -0.06222,8.98176 0.0075,1.3066 0.0075,1.3066 0.01524,2.6396 -0.14686,8.76039 -3.217117,18.10212 -9.561142,24.39995 -9.036572,6.65448 -17.830417,9.103 -29,8 -9.518241,-2.11376 -16.475547,-6.90082 -21.875005,-15 -4.01563,-6.51487 -4.42543,-13.16825 -4.44385,-20.60718 -0.01,-0.93736 -0.0201,-1.87473 -0.0304,-2.8405 -0.0307,-3.07863 -0.0478,-6.15718 -0.0648,-9.23591 -0.0187,-2.14235 -0.0383,-4.28469 -0.0587,-6.42702 -0.0512,-5.62396 -0.0909,-11.24793 -0.12814,-16.87199 -0.0401,-5.7448 -0.0912,-11.48949 -0.1413,-17.2342 -0.0967,-11.261 -0.18008,-22.52205 -0.25781,-33.7832 -10.89,0 -21.78,0 -33,0 z" fill="#000000" id="path1" transform="translate(260.1875,32.75)" />
    <path d="m 0,0 c 9.0345616,4.9119946 15.415944,11.999323 19.449219,21.46875 1.733398,11.170786 0.260362,19.994351 -5.25,29.875 -6.2190197,7.818196 -12.6244347,12.562311 -22.1875002,15.75 -16.1440148,1.153144 -30.9322178,-2.354873 -43.6874998,-12.875 -1.144688,-1.051875 -1.144688,-1.051875 -2.3125,-2.125 0.428321,-2.212992 0.862927,-4.424839 1.316406,-6.632813 0.363752,-1.791737 0.723961,-3.584341 1.058105,-5.381835 C -49.109776,26.621275 -45.754953,11.62396 -33.988281,3.09375 -24.170271,-2.7861675 -10.832934,-4.4569786 0,0 Z" fill="#000000" transform="translate(364.98828,223.90625)" id="path2" />
  </g>
</svg>
