<?xml version="1.0" encoding="UTF-8"?><svg id="a" xmlns="http://www.w3.org/2000/svg" viewBox="0 0 198.44 80"><path d="m54.4,49.94c-4.17-.23-7.96-2.47-10.18-6.01,1.32-10.49,5.15-13.75,10.21-13.75s8.92,3.93,8.92,9.82-3.93,9.82-8.92,9.82m0-26.2c-7.38-.3-13.92,4.73-15.52,11.94-1.68-3.52-2.95-7.23-3.79-11.04h-12.51v15.52c0,5.64-2.55,9.82-7.56,9.82s-7.86-4.16-7.86-9.82v-15.52H.01v15.52c-.16,4.3,1.32,8.5,4.14,11.75,2.79,3.04,6.76,4.72,10.88,4.62,8.66,0,14.73-6.66,14.73-16.19v-10.49c1.47,5.64,3.9,10.99,7.19,15.81l-3.85,21.96h7.31l2.53-15.56c.84.72,1.73,1.38,2.67,1.96,2.44,1.54,5.25,2.41,8.13,2.51h.67c8.79.09,15.98-6.96,16.08-15.74,0-.23,0-.45,0-.68.21-8.81-6.77-16.11-15.57-16.32-.17,0-.34,0-.52,0" style="stroke-width:0px;"/><path d="m157.76,27.94v-3.3h-7.07v30.7h7.17v-12.02c0-7.41.67-12.73,10.61-12.04v-6.99c-4.64-.35-8.25.61-10.71,3.67" style="stroke-width:0px;"/><polygon points="108.09 24.62 102.9 46.11 97.36 24.62 88.25 24.62 82.71 46.11 77.52 24.62 70.27 24.62 78.23 55.36 86.83 55.36 92.81 33.54 98.72 55.36 107.32 55.36 115.73 24.62 108.09 24.62" style="stroke-width:0px;"/><path d="m131.48,49.96c-5.09,0-8.9-4.03-8.9-9.82s3.93-9.82,8.9-9.82,9,3.79,9,9.68-3.93,9.82-8.92,9.82m0-26.22c-8.79-.12-16.01,6.9-16.13,15.69,0,.24,0,.48,0,.72-.31,8.87,6.63,16.31,15.5,16.62,8.87.31,16.31-6.63,16.62-15.5.01-.37.01-.75,0-1.12.22-8.8-6.74-16.1-15.53-16.32-.18,0-.36,0-.54,0" style="stroke-width:0px;"/><path d="m178.72,40.26h1.65l10,15.11h8.07l-11.49-16.76c5.65-2.33,9.33-7.85,9.31-13.97h-7.13c0,6.62-5.23,9.13-10.41,9.13V12.5h-7.17v42.86h7.15l.02-15.11Z" style="stroke-width:0px;"/></svg>