<svg width="32" height="32" viewBox="0 0 8.465 8.469" xmlns="http://www.w3.org/2000/svg">
  <defs>
    <clipPath clipPathUnits="userSpaceOnUse" id="a">
      <path style="fill:red;stroke-width:.0560195px" class="powerclip" d="M-5.002-5h18.47v18.47h-18.47ZM5.13 3.489v1.182l1.906-1.174Zm0 0-1.19-.005-.758 1.177.754.746 1.194-.736ZM3.935 5.407l-.754-.745-1.44 2.096Zm-.754-.745.758-1.178-1.986-.008ZM5.13 1.634l-1.19 1.85 1.19.005zm0 3.037-1.194.736 1.194 1.181z"/>
    </clipPath>
  </defs>
  <path style="fill:#000;fill-opacity:.956425;stroke:none;stroke-width:.106934;stroke-miterlimit:4;stroke-dasharray:none;stroke-opacity:1" clip-path="url(#a)" d="M8.467 4.235a4.235 4.235 0 0 1-4.234 4.234A4.235 4.235 0 0 1-.002 4.235 4.235 4.235 0 0 1 4.233 0a4.235 4.235 0 0 1 4.234 4.235Z"/>
</svg>