<?xml version="1.0" encoding="UTF-8"?><svg id="a" xmlns="http://www.w3.org/2000/svg" viewBox="0 0 180.72 80"><path d="m30.15,22.95l-11.67,28.47L6.39,22.95H0l15.73,34.89h4.89l15.52-34.89h-5.99Z" style="stroke-width:0px;"/><path d="m168.73,37.25c-6.3-1.49-8.16-2.6-8.16-5.22,0-2.9,2.82-4.4,7.49-4.4,3.85-.09,7.64,1.03,10.81,3.22l-.74-6.19c-2.6-1.42-6.16-2.16-9.86-2.16-7.93,0-13.25,3.87-13.25,9.91,0,5.51,3.34,8.35,11.27,10.14,7.04,1.49,8.9,2.98,8.9,5.96s-2.89,4.51-8.02,4.51c-4.62.09-9.11-1.53-12.6-4.55l.74,6.78c3.49,2.01,7.19,2.9,11.93,2.9,8.07-.03,13.49-3.98,13.49-10.09s-3.1-8.72-11.99-10.8Z" style="stroke-width:0px;"/><path d="m77.23,38.19c0,9.04,7.01,15.51,15.76,15.51,4.15.09,8.17-1.5,11.13-4.42,2.96-2.93,4.63-6.92,4.62-11.09.03-3.96-1.79-7.7-4.93-10.11l5.01-1.45v-4.01h-15.2c-8.67,0-16.38,6.64-16.38,15.58Zm25.78,0c0,5.72-4.45,10.48-10.01,10.48s-9.87-4.76-9.87-10.48,4.39-10.24,9.9-10.24c1.33,0,2.65.27,3.87.78,3.77,1.61,6.19,5.35,6.11,9.45h0Z" style="stroke-width:0px;"/><path d="m143.73,28.75c-3.11-3.95-7.93-6.18-13.49-6.18-9.49,0-17.2,7.6-17.2,17.81s7.64,17.73,17.2,17.73c4.99.09,9.77-2.04,13.04-5.81l.78,5.52h5.04V22.95h-5.06l-.31,5.81Zm-12.65,24.1c-6.83,0-12.08-5.37-12.08-12.45s5.27-12.53,12.08-12.53c6.93-.02,12.29,5.34,12.29,12.49.19,6.69-5.08,12.28-11.78,12.47-.18,0-.36,0-.54,0l.03.02Z" style="stroke-width:0px;"/><path d="m96.42,57.4h-12.65v5.03h12.65c2.65.23,4.61,2.57,4.38,5.22-.2,2.33-2.05,4.18-4.38,4.38h-.42v5.47h.41c5.68,0,10.69-4.47,10.69-10.13s-4.78-9.97-10.69-9.97Z" style="stroke-width:0px;"/><path d="m66.43,28.8c-3.11-3.95-7.93-6.18-13.49-6.18-9.49,0-17.2,7.6-17.2,17.81s7.63,17.74,17.2,17.74c5,.08,9.77-2.04,13.05-5.81l.77,5.51h5.04V22.99h-5.05l-.32,5.81Zm-12.65,24.1c-6.82,0-12.05-5.37-12.05-12.45s5.26-12.52,12.05-12.52,12.3,5.37,12.3,12.52c.17,6.69-5.11,12.25-11.8,12.42-.17,0-.35,0-.52,0l.02.02Z" style="stroke-width:0px;"/></svg>