<svg id="Camada_1" data-name="Camada 1" xmlns="http://www.w3.org/2000/svg" viewBox="0 0 200 80"><path d="M21,33.21a1,1,0,0,0-.31-.74,1,1,0,0,0-.75-.31H17a1.07,1.07,0,0,0-.85.31,3.81,3.81,0,0,0-.44.63L10.53,45.28,5.3,33.1a2.9,2.9,0,0,0-.44-.63A1,1,0,0,0,4,32.16h-3a1,1,0,0,0-.74.31,1,1,0,0,0-.31.74l0,.29L7.92,51.58a2.92,2.92,0,0,0,.44.66,1.09,1.09,0,0,0,.86.3H11.8a1.11,1.11,0,0,0,.85-.3,3.61,3.61,0,0,0,.44-.66L21,33.5A.69.69,0,0,0,21,33.21Zm14.64.64a8,8,0,0,0-2.76-1.56,11.35,11.35,0,0,0-3.61-.52,10.57,10.57,0,0,0-3.5.52,8.64,8.64,0,0,0-2.54,1.36A6.34,6.34,0,0,0,21,37.2a.64.64,0,0,0,.19.63,1,1,0,0,0,.66.24h3.61a2,2,0,0,0,.66-.11,2.16,2.16,0,0,0,.66-.43,5.26,5.26,0,0,1,1.05-.75,3.66,3.66,0,0,1,1.53-.28,5,5,0,0,1,2.63.65A2.49,2.49,0,0,1,33,39.43l-6.39,1.1a11.08,11.08,0,0,0-5.15,2.07,5.08,5.08,0,0,0-1.92,4.25,5.62,5.62,0,0,0,1.88,4.4,5.87,5.87,0,0,0,2.23,1.27,9.21,9.21,0,0,0,3,.46,8.32,8.32,0,0,0,3.94-.81,6.36,6.36,0,0,0,2.36-2v1.29a1,1,0,0,0,.31.75,1,1,0,0,0,.75.3h3a1.08,1.08,0,0,0,.75-.3,1,1,0,0,0,.3-.75V40a9.33,9.33,0,0,0-.63-3.55A6.08,6.08,0,0,0,35.68,33.85ZM33,43.85a3.69,3.69,0,0,1-.35,1.6,4.58,4.58,0,0,1-2.81,2.43,7.28,7.28,0,0,1-2.36.37,4.55,4.55,0,0,1-2-.39,1.27,1.27,0,0,1-.85-1.23,1.71,1.71,0,0,1,.7-1.42,5.91,5.91,0,0,1,2.32-.81L33,43.46l0,.39ZM58.18,32.16h-3a1,1,0,0,0-.74.31,1,1,0,0,0-.31.74v.9a7.57,7.57,0,0,0-2.06-1.53,9.27,9.27,0,0,0-7.39-.07,8.5,8.5,0,0,0-2.72,2A10.16,10.16,0,0,0,39.47,41a25.41,25.41,0,0,0,0,2.76A10.41,10.41,0,0,0,42,50.13a8.09,8.09,0,0,0,6.26,2.81,9.23,9.23,0,0,0,3.85-.84,7.18,7.18,0,0,0,2.06-1.53V52a4.1,4.1,0,0,1-1.62,3.39,6.66,6.66,0,0,1-6,.63A4,4,0,0,1,45.09,55a6.87,6.87,0,0,0-.66-.68,1.36,1.36,0,0,0-.94-.37H40.82a1.12,1.12,0,0,0-.76.31.84.84,0,0,0-.29.74,4.64,4.64,0,0,0,.83,2.3,7.57,7.57,0,0,0,2,2,10.78,10.78,0,0,0,2.95,1.42,12.54,12.54,0,0,0,3.7.53,10.46,10.46,0,0,0,7.31-2.41c1.77-1.6,2.65-4,2.65-7.16V33.24a1,1,0,0,0-.31-.75.91.91,0,0,0-.72-.33Zm-4,11.69a4.63,4.63,0,0,1-1.51,3.26,4.7,4.7,0,0,1-3.24,1.14,4.94,4.94,0,0,1-3.26-1.11,5.19,5.19,0,0,1-1.58-3.68,10,10,0,0,1,0-2.19,5.19,5.19,0,0,1,1.58-3.68,4.94,4.94,0,0,1,3.26-1.11,4.64,4.64,0,0,1,3.24,1.18,4.74,4.74,0,0,1,1.51,3.22,13.41,13.41,0,0,1,0,3Zm22.35-10a8,8,0,0,0-2.76-1.56,11.27,11.27,0,0,0-3.61-.52,10.65,10.65,0,0,0-3.5.52,8.64,8.64,0,0,0-2.54,1.36,6.34,6.34,0,0,0-2.32,3.55.64.64,0,0,0,.2.63,1,1,0,0,0,.65.24h3.66a1.88,1.88,0,0,0,.65-.11,2.16,2.16,0,0,0,.66-.43,5.26,5.26,0,0,1,1.05-.75,3.7,3.7,0,0,1,1.53-.28,5,5,0,0,1,2.63.65,2.49,2.49,0,0,1,1,2.28l-6.39,1.1A11.09,11.09,0,0,0,62.3,42.6a5.08,5.08,0,0,0-1.93,4.25,5.62,5.62,0,0,0,1.88,4.4,5.91,5.91,0,0,0,2.24,1.27,9.17,9.17,0,0,0,3,.46,8.35,8.35,0,0,0,3.94-.81,6.52,6.52,0,0,0,2.36-2v1.29a1,1,0,0,0,.31.75,1,1,0,0,0,.74.3h3a1.07,1.07,0,0,0,.74-.3,1,1,0,0,0,.31-.75V40a9.34,9.34,0,0,0-.64-3.55,6.49,6.49,0,0,0-1.77-2.56Zm-2.69,10a3.69,3.69,0,0,1-.35,1.6,4.59,4.59,0,0,1-2.8,2.43,7.34,7.34,0,0,1-2.37.37,4.58,4.58,0,0,1-2-.39,1.27,1.27,0,0,1-.85-1.23,1.71,1.71,0,0,1,.7-1.42,5.91,5.91,0,0,1,2.32-.81l5.34-.94v.39ZM125.45,24.7h-3a1,1,0,0,0-.75.31,1,1,0,0,0-.3.74V51.49a1.08,1.08,0,0,0,.3.75,1,1,0,0,0,.75.3h3a1.07,1.07,0,0,0,.74-.3,1,1,0,0,0,.31-.75V25.77a1.09,1.09,0,0,0-1-1.07ZM146,32.16h-3a1,1,0,0,0-.74.31,1,1,0,0,0-.31.74v10a6,6,0,0,1-1.09,3.77,4.38,4.38,0,0,1-6.46,0,6.43,6.43,0,0,1-1-3.77v-10a1.07,1.07,0,0,0-.3-.74,1,1,0,0,0-.75-.31h-3a1,1,0,0,0-.74.31,1,1,0,0,0-.31.74V43.76a14.75,14.75,0,0,0,.4,3.51A7.85,7.85,0,0,0,130,50.2a6.59,6.59,0,0,0,2.52,2,9.13,9.13,0,0,0,4,.75,6.63,6.63,0,0,0,3.22-.73A9.1,9.1,0,0,0,142,50.59v.9a1,1,0,0,0,.31.75,1,1,0,0,0,.74.3h3a1.05,1.05,0,0,0,.74-.3,1,1,0,0,0,.31-.75V33.21a1,1,0,0,0-.31-.74,1.1,1.1,0,0,0-.76-.31Zm31.85,2.35a6.64,6.64,0,0,0-2.41-2,8.08,8.08,0,0,0-3.72-.74,8.34,8.34,0,0,0-5.12,1.93,5.33,5.33,0,0,0-1.25,1.42,6.9,6.9,0,0,0-2.48-2.41A7.91,7.91,0,0,0,156,32.4a6.42,6.42,0,0,0-2.27,1.76v-.9a1,1,0,0,0-.31-.75,1,1,0,0,0-.74-.3h-3a1.05,1.05,0,0,0-.74.3,1,1,0,0,0-.31.75V51.49a1,1,0,0,0,.31.75,1,1,0,0,0,.74.3h3a1.05,1.05,0,0,0,.74-.3,1,1,0,0,0,.31-.75V41.14c0-1.75.37-3,1.14-3.7a4.23,4.23,0,0,1,5.6,0,5.32,5.32,0,0,1,1,3.72V51.49a1,1,0,0,0,.31.75,1,1,0,0,0,.74.3h3a1.07,1.07,0,0,0,.74-.3,1,1,0,0,0,.31-.75V40.94a4.85,4.85,0,0,1,1.2-3.57,3.86,3.86,0,0,1,2.69-1,3.82,3.82,0,0,1,2.87,1,5.35,5.35,0,0,1,1,3.73V51.49a1,1,0,0,0,.31.75,1,1,0,0,0,.74.3h3a1.07,1.07,0,0,0,.74-.3,1,1,0,0,0,.31-.75V40.94a16.4,16.4,0,0,0-.37-3.5,7.39,7.39,0,0,0-1.27-2.93Zm21.45,3.39a9.21,9.21,0,0,0-9-6.15,9.41,9.41,0,0,0-9,6.45,12.83,12.83,0,0,0-.66,4.14,13.18,13.18,0,0,0,.66,4.29A9.65,9.65,0,0,0,183.28,50a8.51,8.51,0,0,0,3,2.17A11.62,11.62,0,0,0,197,50.9a6.51,6.51,0,0,0,1.71-1.68,3.28,3.28,0,0,0,.61-1.43.9.9,0,0,0-.29-.74,1,1,0,0,0-.76-.31h-3.13a2.43,2.43,0,0,0-.75.11,4.82,4.82,0,0,0-.7.44,5.07,5.07,0,0,1-1.29.66,6.63,6.63,0,0,1-3.72,0,4.6,4.6,0,0,1-1.44-.7,3.34,3.34,0,0,1-1.38-2.76H199a1,1,0,0,0,.74-.31,1,1,0,0,0,.31-.74V41.69a11.63,11.63,0,0,0-.72-3.79Zm-13.49,2.19A4.13,4.13,0,0,1,187,37.68a4,4,0,0,1,1.36-.85,5.06,5.06,0,0,1,2-.33,5.39,5.39,0,0,1,2,.33,3.46,3.46,0,0,1,1.29.85,2.92,2.92,0,0,1,.7,1.18,5.29,5.29,0,0,1,.29,1.23Z"/><path d="M80.88,41.18c3.87,9.2,16,16.2,25.87,16,10.76-.22,16-9.63,11.32-19.14h0c-.33,2.76-1.31,4.71-2.65,4.84a1.55,1.55,0,0,1-.6-.07c-1.74-.47-3.38-3.92-3.82-8.23a17.56,17.56,0,0,1,.09-4.62,28.63,28.63,0,0,0-4.21-2.47,16,16,0,0,1,1.12-4c1.31-3.33,3.16-1.4,3.88.59l.13.22a2.83,2.83,0,0,0-3.07-3.7c-2.27.28-3.74,6.13-3.74,6.13l-.5-.2-1.25-.46-.08-.23-.05-.09A12.73,12.73,0,0,0,102,23.39a10.88,10.88,0,0,0-3.41-3.18c-2.83-1.63-7.39-2.14-12.18.14a21.81,21.81,0,0,1,5.86-.43c-.1,0-.2,0-.3,0,3.47.16,7.54,1.34,9.4,5.54-4.81-1.27-10.64-1.62-14.82.35A11.77,11.77,0,0,0,80.88,41.18Zm29.19-19.5a3.24,3.24,0,0,0-.62,0l-.19,0A1,1,0,0,1,110.07,21.68Zm.71,31.44c.37.26-.69.49-2.67.67-2.85.26-10.38-.92-9.83-3.28a1.16,1.16,0,0,1,.18-.42c.57-1.22,2.66,0,5.34,1.07a30.94,30.94,0,0,0,5.69,1.4C110.64,52.76,111,53,110.78,53.12ZM94.34,28a3.34,3.34,0,0,1,2.72-.83c2.44.12,5.8,1.86,8.77,4.79,3.9,3.84,5.79,8.36,4.59,10.66a2.78,2.78,0,0,1-.49.72c-2,2-7.1.24-11.41-4S92.35,30.06,94.34,28Z"/><ellipse cx="105.2" cy="37.42" rx="2.19" ry="4.18" transform="translate(3.69 83.93) rotate(-44.2)"/><ellipse cx="105.15" cy="37.42" rx="2.19" ry="4.18" transform="translate(3.68 83.9) rotate(-44.2)"/><ellipse cx="105.15" cy="37.42" rx="1.6" ry="3.04" transform="translate(3.68 83.9) rotate(-44.2)"/><ellipse cx="104.89" cy="37.05" rx="0.99" ry="1.86" transform="translate(3.86 83.61) rotate(-44.2)"/><path d="M115.71,40.11c.83,0,1.37-1.58,1.22-3.42a8.63,8.63,0,0,0-.2-1.22,13,13,0,0,0-1.51-2h0c-.83,0-1.38,1.57-1.23,3.41s1,3.26,1.76,3.22Z"/><ellipse cx="105.19" cy="37.47" rx="2.21" ry="4.2" transform="translate(3.66 83.94) rotate(-44.2)"/><ellipse cx="105.13" cy="37.47" rx="2.21" ry="4.2" transform="translate(3.64 83.9) rotate(-44.2)"/></svg>