<?xml version="1.0" encoding="UTF-8"?><svg id="a" xmlns="http://www.w3.org/2000/svg" viewBox="0 0 250 80"><defs><style>.b{stroke-width:0px;}</style></defs><path class="b" d="m26.3,31.47c0-.35-.13-.68-.39-.92-.24-.26-.58-.4-.94-.39h-3.67c-.39-.03-.78.11-1.06.39-.21.24-.39.51-.55.79l-6.47,15.22-6.53-15.22c-.15-.29-.33-.55-.55-.79-.27-.29-.67-.44-1.07-.39H1.31c-.35,0-.68.13-.92.39C.13,30.78,0,31.12,0,31.47v.36l9.96,22.59c.14.3.33.58.55.82.29.28.68.41,1.07.37h3.22c.39.03.78-.11,1.06-.37.21-.25.4-.53.55-.82l9.88-22.59c.03-.12.03-.24,0-.36Zm18.29.8c-1.01-.87-2.18-1.54-3.45-1.95-1.46-.46-2.98-.68-4.51-.65-1.48-.03-2.96.19-4.37.65-1.15.38-2.22.96-3.17,1.7-1.4,1.12-2.39,2.68-2.79,4.44-.07.29.02.59.24.79.23.2.52.3.82.3h4.51c.28,0,.56-.05.82-.14.31-.13.58-.31.82-.54.4-.36.84-.68,1.31-.94.6-.25,1.26-.37,1.91-.35,1.15-.04,2.29.24,3.29.81.9.66,1.38,1.74,1.26,2.85l-7.98,1.37c-2.33.3-4.54,1.19-6.43,2.59-1.61,1.28-2.51,3.26-2.4,5.31-.08,2.09.79,4.11,2.35,5.5.8.73,1.75,1.27,2.79,1.59,1.21.4,2.48.59,3.75.57,1.7.07,3.39-.28,4.92-1.01,1.17-.58,2.19-1.44,2.95-2.5v1.61c0,.35.13.69.39.94.25.25.59.39.94.37h3.75c.35,0,.68-.13.94-.37.25-.25.39-.59.37-.94v-14.32c.03-1.52-.24-3.02-.79-4.44-.43-1.26-1.19-2.38-2.19-3.25h-.05Zm-3.3,12.49c0,.69-.14,1.37-.44,2-.69,1.46-1.96,2.57-3.51,3.04-.95.32-1.95.47-2.95.46-.86.03-1.71-.14-2.5-.49-.65-.23-1.08-.85-1.06-1.54-.02-.7.31-1.36.87-1.77.88-.54,1.87-.88,2.9-1.01l6.68-1.17v.49Zm31.46-14.61h-3.75c-.35,0-.68.13-.92.39-.25.24-.39.58-.39.92v1.12c-.74-.78-1.61-1.43-2.57-1.91-2.93-1.31-6.28-1.34-9.23-.09-1.29.6-2.44,1.45-3.4,2.5-1.96,2.25-3.06,5.12-3.11,8.11-.06,1.15-.06,2.3,0,3.45.13,2.93,1.24,5.74,3.16,7.96,1.96,2.27,4.82,3.56,7.82,3.51,1.66,0,3.3-.36,4.81-1.05.97-.48,1.84-1.12,2.57-1.91v1.79c.05,1.66-.7,3.23-2.02,4.24-2.23,1.44-5.02,1.74-7.5.79-.7-.28-1.32-.72-1.82-1.27-.25-.3-.53-.59-.82-.85-.32-.3-.74-.46-1.17-.46h-3.34c-.35,0-.69.14-.95.39-.27.23-.4.58-.36.92.08,1.03.44,2.03,1.04,2.87.67.98,1.52,1.83,2.5,2.5,1.13.78,2.37,1.37,3.69,1.77,1.5.45,3.06.67,4.62.66,3.32.19,6.58-.88,9.13-3.01,2.21-2,3.31-5,3.31-8.95v-23.04c0-.35-.13-.69-.39-.94-.22-.27-.55-.42-.9-.41Zm-5,14.61c-.05,1.56-.74,3.02-1.89,4.07-1.12.97-2.57,1.48-4.05,1.42-1.48.04-2.93-.45-4.07-1.39-1.25-1.21-1.96-2.86-1.97-4.6-.1-.91-.1-1.83,0-2.74.02-1.73.73-3.39,1.97-4.6,1.15-.94,2.59-1.43,4.07-1.39,1.49-.05,2.94.48,4.05,1.47,1.13,1.05,1.8,2.49,1.89,4.02.14,1.25.14,2.5,0,3.75v-.04Zm27.92-12.49c-1.01-.87-2.18-1.54-3.45-1.95-1.46-.46-2.98-.68-4.51-.65-1.48-.03-2.96.19-4.37.65-1.15.38-2.22.96-3.17,1.7-1.45,1.1-2.47,2.67-2.9,4.44-.07.29.03.59.25.79.23.19.51.3.81.3h4.57c.28,0,.55-.04.81-.14.31-.13.58-.31.82-.54.4-.36.84-.68,1.31-.94.61-.25,1.26-.37,1.91-.35,1.15-.04,2.29.24,3.29.81.9.66,1.37,1.74,1.25,2.85l-7.98,1.37c-2.32.3-4.53,1.19-6.42,2.59-1.62,1.27-2.52,3.25-2.41,5.31-.08,2.09.79,4.11,2.35,5.5.8.73,1.76,1.27,2.8,1.59,1.21.4,2.48.59,3.75.57,1.7.07,3.39-.28,4.92-1.01,1.17-.58,2.18-1.44,2.95-2.5v1.61c0,.35.13.69.39.94.24.25.58.38.92.37h3.75c.34,0,.68-.14.92-.37.26-.24.4-.58.39-.94v-14.32c.02-1.52-.25-3.02-.8-4.44-.47-1.23-1.23-2.33-2.21-3.2l.06-.05Zm-3.36,12.49c0,.69-.14,1.37-.44,2-.69,1.46-1.96,2.56-3.5,3.04-.95.32-1.96.47-2.96.46-.86.03-1.71-.14-2.5-.49-.65-.23-1.08-.85-1.06-1.54-.02-.7.31-1.36.87-1.77.88-.54,1.87-.88,2.9-1.01l6.67-1.17v.49h.01Zm64.48-23.93h-3.75c-.35,0-.69.13-.94.39-.25.24-.38.58-.37.92v32.16c0,.35.13.68.37.94.25.25.59.39.94.37h3.75c.34,0,.68-.14.92-.37.26-.24.4-.58.39-.94V22.17c-.01-.7-.55-1.28-1.25-1.34h-.06Zm25.67,9.32h-3.75c-.35,0-.68.13-.92.39-.25.24-.39.58-.39.92v12.49c.09,1.68-.39,3.34-1.36,4.71-2.04,2.23-5.5,2.38-7.73.34-.12-.11-.23-.22-.34-.34-.89-1.4-1.33-3.05-1.25-4.71v-12.49c0-.34-.14-.68-.37-.92-.24-.26-.58-.4-.94-.39h-3.75c-.35,0-.68.13-.92.39-.25.24-.39.58-.39.92v13.18c0,1.48.16,2.95.5,4.39.28,1.32.84,2.57,1.62,3.66.83,1.08,1.91,1.94,3.15,2.5,1.57.68,3.28,1,5,.94,1.4.04,2.78-.27,4.02-.91,1.04-.53,1.99-1.22,2.82-2.04v1.12c0,.35.13.69.39.94.24.25.58.38.92.37h3.75c.35,0,.68-.13.92-.37.26-.24.4-.58.39-.94v-22.84c0-.35-.13-.68-.39-.92-.25-.25-.59-.39-.95-.39h-.04Zm39.79,2.94c-.79-1.06-1.82-1.92-3.01-2.5-1.45-.67-3.05-.99-4.65-.92-2.34.06-4.6.91-6.4,2.41-.62.49-1.15,1.09-1.56,1.77-.76-1.25-1.83-2.29-3.1-3.01-2.65-1.43-5.81-1.57-8.58-.39-1.1.51-2.07,1.26-2.84,2.2v-1.12c0-.35-.13-.69-.39-.94-.24-.25-.58-.38-.92-.37h-3.75c-.35,0-.68.13-.92.37-.26.24-.4.58-.39.94v22.78c0,.35.13.69.39.94.24.25.58.38.92.37h3.75c.35,0,.68-.13.92-.37.26-.24.4-.58.39-.94v-12.93c0-2.19.46-3.75,1.42-4.62,2-1.76,5-1.76,7,0,.98,1.34,1.43,3,1.25,4.65v12.91c0,.35.13.69.39.94.24.25.58.38.92.37h3.75c.34,0,.68-.14.92-.37.26-.24.4-.58.39-.94v-13.18c-.12-1.63.42-3.24,1.5-4.46.92-.83,2.12-1.28,3.36-1.25,1.32-.1,2.61.35,3.59,1.25.98,1.34,1.43,3.01,1.25,4.66v12.98c0,.35.13.69.39.94.24.25.58.38.92.37h3.75c.34,0,.68-.14.92-.37.26-.24.4-.58.39-.94v-13.18c0-1.47-.15-2.94-.46-4.37-.26-1.32-.8-2.57-1.59-3.66h.07Zm26.8,4.24c-1.67-4.74-6.22-7.85-11.24-7.68-5.1-.04-9.64,3.22-11.24,8.06-.56,1.67-.84,3.41-.82,5.17-.02,1.82.26,3.63.82,5.36.53,1.56,1.37,2.99,2.47,4.21,1.04,1.17,2.31,2.09,3.75,2.71,4.45,1.7,9.46,1.11,13.39-1.59.84-.56,1.56-1.27,2.14-2.1.39-.53.65-1.14.76-1.79.03-.35-.1-.69-.36-.92-.25-.26-.59-.4-.95-.39h-3.91c-.32,0-.63.04-.94.14-.31.16-.6.34-.87.55-.49.35-1.04.63-1.61.82-1.52.44-3.13.44-4.65,0-.65-.18-1.26-.48-1.8-.87-1.1-.8-1.75-2.09-1.72-3.45h16.42c.35,0,.68-.13.92-.39.25-.24.39-.58.39-.92v-2.19c-.03-1.62-.34-3.22-.9-4.74h-.04Zm-16.85,2.74c.15-1.14.67-2.2,1.49-3.01.49-.47,1.07-.83,1.7-1.06.8-.3,1.65-.44,2.5-.41.85-.02,1.7.12,2.5.41.61.23,1.16.59,1.61,1.06.4.41.7.92.87,1.47.18.5.3,1.01.36,1.54h-11.03Z"/><path class="b" d="m101.11,41.43c4.84,11.49,19.99,20.24,32.32,19.99,13.44-.27,19.99-12.03,14.14-23.91h0c-.41,3.45-1.64,5.88-3.31,6.05-.25.02-.51,0-.75-.09-2.17-.59-4.22-4.9-4.77-10.28-.22-1.92-.18-3.86.11-5.77-1.66-1.18-3.42-2.21-5.26-3.09.25-1.72.72-3.4,1.4-5,1.64-4.16,3.95-1.75,4.85.74l.16.27c.62-1.85-.38-3.86-2.23-4.47-.52-.17-1.06-.22-1.6-.15-2.84.35-4.67,7.66-4.67,7.66l-.62-.25-1.56-.57-.1-.29-.06-.11c-.44-1.04-1-2.03-1.65-2.95-1.12-1.62-2.57-2.97-4.26-3.97-3.54-2.04-9.23-2.67-15.22.17,2.41-.51,4.87-.69,7.32-.54h-.37c4.34.2,9.42,1.67,11.74,6.92-6.01-1.59-13.29-2.02-18.52.44-7.16,3.44-10.3,11.94-7.08,19.2Zm36.47-24.36c-.26-.02-.52-.02-.77,0h-.24c.32-.14.69-.14,1.01,0Zm.89,39.28c.46.32-.86.61-3.34.84-3.56.32-12.97-1.15-12.28-4.1.04-.19.12-.37.22-.52.71-1.52,3.32,0,6.67,1.34,2.31.81,4.69,1.39,7.11,1.75,1.44.25,1.89.55,1.61.7Zm-20.54-31.38c.92-.83,2.17-1.21,3.4-1.04,3.05.15,7.25,2.32,10.96,5.98,4.87,4.8,7.23,10.44,5.73,13.32-.16.33-.36.63-.61.9-2.5,2.5-8.87.3-14.26-5s-7.71-11.59-5.22-14.17Z"/><ellipse class="b" cx="131.49" cy="36.72" rx="2.74" ry="5.22" transform="translate(11.62 102.07) rotate(-44.2)"/><ellipse class="b" cx="131.44" cy="36.73" rx="2.74" ry="5.22" transform="translate(11.6 102.03) rotate(-44.2)"/><ellipse class="b" cx="131.44" cy="36.73" rx="2" ry="3.8" transform="translate(11.6 102.03) rotate(-44.2)"/><ellipse class="b" cx="131.11" cy="36.26" rx="1.24" ry="2.32" transform="translate(11.84 101.67) rotate(-44.2)"/><path class="b" d="m144.63,40.09c1.04,0,1.71-1.97,1.52-4.27-.05-.51-.13-1.02-.25-1.52-.55-.89-1.18-1.73-1.89-2.5h0c-1.04,0-1.72,1.96-1.54,4.26s1.25,4.07,2.2,4.02h-.05Z"/><ellipse class="b" cx="131.49" cy="36.79" rx="2.76" ry="5.25" transform="translate(11.58 102.08) rotate(-44.2)"/><ellipse class="b" cx="131.41" cy="36.79" rx="2.76" ry="5.25" transform="translate(11.55 102.03) rotate(-44.2)"/></svg>