<svg id="Camada_1" data-name="Camada 1" xmlns="http://www.w3.org/2000/svg" viewBox="0 0 300 120"><path d="M50.05,27.09,30.67,74.35,10.61,27.09H0L26.12,85h8.12L60,27.09Z"/><path d="M280.09,50.84c-10.46-2.47-13.54-4.32-13.54-8.66,0-4.82,4.68-7.31,12.43-7.31a30.34,30.34,0,0,1,17.95,5.34L295.7,29.93c-4.31-2.35-10.22-3.58-16.37-3.58-13.16,0-22,6.43-22,16.45,0,9.15,5.54,13.86,18.7,16.83,11.69,2.47,14.77,4.95,14.77,9.89S286,77,277.49,77a31,31,0,0,1-20.92-7.56l1.23,11.26c5.79,3.34,11.94,4.82,19.81,4.82C291,85.47,300,78.91,300,68.77S294.86,54.3,280.09,50.84Z"/><path d="M128.2,52.4c0,15,11.63,25.75,26.16,25.75a25.47,25.47,0,0,0,18.47-7.34A25.8,25.8,0,0,0,180.5,52.4a21,21,0,0,0-8.18-16.79l8.31-2.41V26.54H155.39C141,26.54,128.2,37.57,128.2,52.4Zm42.8,0c0,9.49-7.38,17.39-16.61,17.39S138,61.89,138,52.4s7.29-17,16.43-17a16.53,16.53,0,0,1,6.43,1.3A16.69,16.69,0,0,1,171,52.39Z"/><path d="M238.6,36.73c-5.17-6.55-13.16-10.26-22.39-10.26-15.75,0-28.55,12.62-28.55,29.57,0,17.19,12.68,29.44,28.55,29.44a28,28,0,0,0,21.64-9.65L239.14,85h8.37V27.09h-8.4Zm-21,40c-11.33,0-20.06-8.91-20.06-20.66s8.75-20.8,20.06-20.8C229.11,35.24,238,44.14,238,56A20.13,20.13,0,0,1,217.55,76.7Z"/><path d="M160.06,84.28h-21v8.35h21a8,8,0,0,1,0,15.94h-.69v9.08h.68c9.43,0,17.75-7.42,17.75-16.82S169.86,84.28,160.06,84.28Z"/><path d="M110.28,36.81c-5.17-6.55-13.16-10.26-22.39-10.26-15.75,0-28.55,12.62-28.55,29.56,0,17.2,12.67,29.45,28.55,29.45a28.1,28.1,0,0,0,21.67-9.65l1.28,9.15h8.36V27.16h-8.39Zm-21,40c-11.32,0-20-8.91-20-20.66s8.73-20.79,20-20.79c11.57,0,20.42,8.91,20.42,20.79A20.11,20.11,0,0,1,89.25,76.77Z"/></svg>