<?xml version="1.0" encoding="UTF-8" standalone="no"?>
<svg id="a" viewBox="0 0 32 32" version="1.1" sodipodi:docname="vagalume.svg" width="32" height="32" inkscape:version="1.4-beta2 (9aaf4f34, 2024-07-30)" xmlns:inkscape="http://www.inkscape.org/namespaces/inkscape" xmlns:sodipodi="http://sodipodi.sourceforge.net/DTD/sodipodi-0.dtd" xmlns="http://www.w3.org/2000/svg" xmlns:svg="http://www.w3.org/2000/svg">
  <sodipodi:namedview id="namedview7" pagecolor="#ffffff" bordercolor="#000000" borderopacity="0.25" inkscape:showpageshadow="2" inkscape:pageopacity="0.0" inkscape:pagecheckerboard="0" inkscape:deskcolor="#d1d1d1" inkscape:zoom="1.0682393" inkscape:cx="74.889586" inkscape:cy="80.038245" inkscape:window-width="1440" inkscape:window-height="790" inkscape:window-x="0" inkscape:window-y="0" inkscape:window-maximized="1" inkscape:current-layer="a" />
  <defs id="defs1">
    <style id="style1">.b{stroke-width:0px;}</style>
  </defs>
  <g id="g7" transform="matrix(0.64176906,0,0,0.64176906,-64.084763,-8.0394454)">
    <path class="b" d="m 101.11,41.43 c 4.84,11.49 19.99,20.24 32.32,19.99 13.44,-0.27 19.99,-12.03 14.14,-23.91 v 0 c -0.41,3.45 -1.64,5.88 -3.31,6.05 -0.25,0.02 -0.51,0 -0.75,-0.09 -2.17,-0.59 -4.22,-4.9 -4.77,-10.28 -0.22,-1.92 -0.18,-3.86 0.11,-5.77 -1.66,-1.18 -3.42,-2.21 -5.26,-3.09 0.25,-1.72 0.72,-3.4 1.4,-5 1.64,-4.16 3.95,-1.75 4.85,0.74 l 0.16,0.27 c 0.62,-1.85 -0.38,-3.86 -2.23,-4.47 -0.52,-0.17 -1.06,-0.22 -1.6,-0.15 -2.84,0.35 -4.67,7.66 -4.67,7.66 l -0.62,-0.25 -1.56,-0.57 -0.1,-0.29 -0.06,-0.11 c -0.44,-1.04 -1,-2.03 -1.65,-2.95 -1.12,-1.62 -2.57,-2.97 -4.26,-3.97 -3.54,-2.04 -9.23,-2.67 -15.22,0.17 2.41,-0.51 4.87,-0.69 7.32,-0.54 h -0.37 c 4.34,0.2 9.42,1.67 11.74,6.92 -6.01,-1.59 -13.29,-2.02 -18.52,0.44 -7.16,3.44 -10.3,11.94 -7.08,19.2 z m 36.47,-24.36 c -0.26,-0.02 -0.52,-0.02 -0.77,0 h -0.24 c 0.32,-0.14 0.69,-0.14 1.01,0 z m 0.89,39.28 c 0.46,0.32 -0.86,0.61 -3.34,0.84 -3.56,0.32 -12.97,-1.15 -12.28,-4.1 0.04,-0.19 0.12,-0.37 0.22,-0.52 0.71,-1.52 3.32,0 6.67,1.34 2.31,0.81 4.69,1.39 7.11,1.75 1.44,0.25 1.89,0.55 1.61,0.7 z M 117.93,24.97 c 0.92,-0.83 2.17,-1.21 3.4,-1.04 3.05,0.15 7.25,2.32 10.96,5.98 4.87,4.8 7.23,10.44 5.73,13.32 -0.16,0.33 -0.36,0.63 -0.61,0.9 -2.5,2.5 -8.87,0.3 -14.26,-5 -5.39,-5.3 -7.71,-11.59 -5.22,-14.17 z" id="path2" />
    <ellipse class="b" cx="131.49001" cy="36.720001" rx="2.74" ry="5.2199998" transform="rotate(-44.2,131.49405,36.726695)" id="ellipse2" />
    <ellipse class="b" cx="131.44" cy="36.73" rx="2.74" ry="5.2199998" transform="rotate(-44.2,131.43479,36.731322)" id="ellipse3" />
    <ellipse class="b" cx="131.44" cy="36.73" rx="2" ry="3.8" transform="rotate(-44.2,131.43479,36.731322)" id="ellipse4" />
    <ellipse class="b" cx="131.11" cy="36.259998" rx="1.24" ry="2.3199999" transform="rotate(-44.2,131.11151,36.255798)" id="ellipse5" />
    <path class="b" d="m 144.63,40.09 c 1.04,0 1.71,-1.97 1.52,-4.27 -0.05,-0.51 -0.13,-1.02 -0.25,-1.52 -0.55,-0.89 -1.18,-1.73 -1.89,-2.5 v 0 c -1.04,0 -1.72,1.96 -1.54,4.26 0.18,2.3 1.25,4.07 2.2,4.02 h -0.05 z" id="path5" />
    <ellipse class="b" cx="131.49001" cy="36.790001" rx="2.76" ry="5.25" transform="rotate(-44.2,131.48636,36.780949)" id="ellipse6" />
    <ellipse class="b" cx="131.41" cy="36.790001" rx="2.76" ry="5.25" transform="rotate(-44.2,131.40979,36.79289)" id="ellipse7" />
  </g>
</svg>
