<svg width="32" height="32" xmlns="http://www.w3.org/2000/svg">
  <path d="M.49 0C.431 0 .373.058.373.134v.633c0 .077.058.154.115.154h2.974c.192 0 .268.115.326.25l11.837 30.695c.038.076.115.134.192.134h.806c.057 0 .115-.058.153-.115L27.981 1.669c.153-.441.326-.71.863-.71h2.686c.038 0 .096-.077.096-.134V.153c0-.076-.058-.115-.115-.115h-7.943c-.057 0-.134.058-.134.135v.594c0 .077.096.154.154.154h3.03c.27 0 .48.134.48.326l-.076.441-8.211 22.063h-.096l-8.346-22.6v-.096c0-.077.039-.134.192-.134h3.262c.057 0 .134-.077.134-.134V.153c0-.076-.096-.115-.154-.115H.508Z" style="stroke-width:.191847;fill:#000"/>
</svg>