<?xml version="1.0" encoding="UTF-8" standalone="no"?>
<svg viewBox="0 0 32 32" version="1.1" id="svg2" sodipodi:docname="Valor.svg" width="32" height="32" inkscape:version="1.4-beta2 (9aaf4f34, 2024-07-30)" xmlns:inkscape="http://www.inkscape.org/namespaces/inkscape" xmlns:sodipodi="http://sodipodi.sourceforge.net/DTD/sodipodi-0.dtd" xmlns="http://www.w3.org/2000/svg" xmlns:svg="http://www.w3.org/2000/svg" xmlns:rdf="http://www.w3.org/1999/02/22-rdf-syntax-ns#" xmlns:cc="http://creativecommons.org/ns#" xmlns:dc="http://purl.org/dc/elements/1.1/">
  <defs id="defs2" />
  <sodipodi:namedview id="namedview2" pagecolor="#ffffff" bordercolor="#000000" borderopacity="0.25" inkscape:showpageshadow="2" inkscape:pageopacity="0.0" inkscape:pagecheckerboard="0" inkscape:deskcolor="#d1d1d1" inkscape:zoom="0.8104979" inkscape:cx="136.95285" inkscape:cy="201.72785" inkscape:window-width="1440" inkscape:window-height="872" inkscape:window-x="0" inkscape:window-y="0" inkscape:window-maximized="1" inkscape:current-layer="svg2" />
  <title id="title1">Valor Econômico</title>
  <path d="M 0.48921041,0 C 0.43165646,0 0.3741025,0.057554 0.3741025,0.1342926 v 0.6330935 c 0,0.076739 0.057554,0.1534772 0.11510791,0.1534772 H 3.4628315 c 0.1918465,0 0.2685851,0.1151079 0.3261391,0.2494005 L 15.625902,31.865707 C 15.664271,31.942446 15.741009,32 15.817748,32 h 0.805754 c 0.05755,0 0.115108,-0.05755 0.153478,-0.115108 L 27.980817,1.6690647 c 0.153477,-0.441247 0.32614,-0.7098321 0.86331,-0.7098321 h 2.68585 c 0.03837,0 0.09592,-0.076739 0.09592,-0.1342926 V 0.1534772 c 0,-0.076739 -0.05755,-0.1151079 -0.115107,-0.1151079 h -7.942447 c -0.05755,0 -0.134292,0.057554 -0.134292,0.1342926 v 0.5947242 c 0,0.076739 0.09592,0.1534772 0.153476,0.1534772 h 3.031176 c 0.268585,0 0.479617,0.1342926 0.479617,0.3261391 L 27.021584,1.6882494 18.810553,23.7506 h -0.09592 L 10.369306,1.1510791 v -0.095923 c 0,-0.076739 0.03837,-0.1342926 0.191847,-0.1342926 h 3.261391 c 0.05755,0 0.134293,-0.076739 0.134293,-0.1342926 V 0.1534772 c 0,-0.076739 -0.09592,-0.1151079 -0.153477,-0.1151079 H 0.50839507 Z" id="path3" style="stroke-width:0.191847;fill:#000000" />
  <metadata id="metadata2">
    <rdf:RDF>
      <cc:Work rdf:about="">
        <dc:title>Valor Econômico</dc:title>
      </cc:Work>
    </rdf:RDF>
  </metadata>
</svg>
