<?xml version="1.0" encoding="UTF-8"?><svg id="a" xmlns="http://www.w3.org/2000/svg" xmlns:xlink="http://www.w3.org/1999/xlink" viewBox="0 0 126.86 80"><defs><clipPath id="b"><rect x="80.42" y="10.02" width="8.11" height="8.5" style="stroke-width:0px;"/></clipPath><clipPath id="c"><path d="m58.37,27.25c5.46,0,9.72,3.6,10.3,8.14h-19.95c.66-4.78,4.82-8.3,9.64-8.14Zm-.13,31.09c8.79.16,16.62-5.53,19.18-13.93h-9.16c-1.51,4.26-4.74,7.07-10.62,7.07-5.2-.13-9.31-4.45-9.18-9.65,0-.1,0-.2.01-.3h29.58c0-.5-.01-1.2-.01-1.7,0-12.86-10.25-19.36-19.81-19.36-10.45-.04-18.96,8.38-19.04,18.82,0,11.03,7.57,19.05,19.04,19.05h0Z" style="stroke-width:0px;"/></clipPath><clipPath id="d"><rect x="38.94" y="20.35" width="49.64" height="49.64" style="stroke-width:0px;"/></clipPath><clipPath id="e"><path d="m88.3,21.25h-8.14v36.27c.15,2.65-1.88,4.91-4.52,5.06-.19.01-.38.01-.56,0h-2.14v7.41s1.27-.01,2.07,0c2.48.16,4.96-.28,7.24-1.27,2.05-1.06,3.68-2.77,4.63-4.87.99-2.32,1.47-4.81,1.43-7.33V21.24" style="stroke-width:0px;"/></clipPath><clipPath id="f"><rect x="38.94" y="20.35" width="49.64" height="49.64" style="stroke-width:0px;"/></clipPath></defs><polyline points="33.46 20.9 21.77 46.29 9.74 20.9 0 20.9 18.54 56.71 25 56.71 43.56 20.9 33.46 20.9"/><rect x="80.42" y="10.02" width="8.11" height="8.5"/><g style="clip-path:url(#b);"><path d="m78.65,20.3h11.65v-12.05h-11.65v12.05Z" style="stroke-width:0px;"/></g><path d="m58.37,27.25c5.46,0,9.72,3.6,10.3,8.14h-19.95c.66-4.78,4.82-8.3,9.64-8.14Zm-.13,31.09c8.79.16,16.62-5.53,19.18-13.93h-9.16c-1.51,4.26-4.74,7.07-10.62,7.07-5.2-.13-9.31-4.45-9.18-9.65,0-.1,0-.2.01-.3h29.58c0-.5-.01-1.2-.01-1.7,0-12.86-10.25-19.36-19.81-19.36-10.45-.04-18.96,8.38-19.04,18.82,0,11.03,7.57,19.05,19.04,19.05h0Z"/><g style="clip-path:url(#c);"><rect x="38.94" y="20.35" width="49.64" height="49.64"/><g style="clip-path:url(#d);"><path d="m37.42,60.11h42.4V18.69h-42.4v41.42Z" style="stroke-width:0px;"/></g></g><path d="m88.3,21.25h-8.14v36.27c.15,2.65-1.88,4.91-4.52,5.06-.19.01-.38.01-.56,0h-2.14v7.41s1.27-.01,2.07,0c2.48.16,4.96-.28,7.24-1.27,2.05-1.06,3.68-2.77,4.63-4.87.99-2.32,1.47-4.81,1.43-7.33V21.24"/><g style="clip-path:url(#e);"><rect x="38.94" y="20.35" width="49.64" height="49.64"/><g style="clip-path:url(#f);"><path d="m71.17,71.75h18.91V19.46h-18.91v52.29Z" style="stroke-width:0px;"/></g></g><path d="m118.81,41.62c-.06,7.77-6.21,9.72-11.17,9.63-4.87-.09-7.45-2.35-7.45-5.02,0-2.81,2.62-3.27,4.93-3.49,4.04-.5,10.61-.47,13.68-2.51v1.39Zm-7.87-21.56c-6.49,0-10.23.89-13.36,2.98-2.81,1.97-4.53,5.15-4.65,8.58,0,.5-.01.96,0,1.33l8.79.02v-.2c-.05-4.07,4.44-6.15,9.35-6.15,4.62,0,7.48,1.86,7.48,4.96,0,.5.16,3.26-5.61,3.62l-11.04.65c-7.35.18-10.83,4.38-10.83,10.23,0,7.29,5.86,12.21,16.03,12.21,4.16.07,8.23-1.22,11.59-3.67v2.1h8.18v-25.57c0-5.51-4.17-11.09-15.93-11.09h0Z"/></svg>