<svg width="32" height="32" fill="none" class="sc-eSxRXt QFtcR" xmlns="http://www.w3.org/2000/svg">
  <path fill="#000" fill-rule="evenodd" d="M23.978 4.891c-.107 2.348-1.738 5.562-4.892 9.642-3.262 4.261-6.022 6.392-8.28 6.392-1.397 0-2.58-1.297-3.547-3.893L5.322 9.895C4.604 7.3 3.835 6.002 3.012 6.002c-.18 0-.808.38-1.883 1.136L0 5.676a303.794 303.794 0 0 0 3.501-3.139C5.08 1.166 6.265.445 7.056.372c1.867-.18 3.016 1.103 3.447 3.849.466 2.962.789 4.805.97 5.526.538 2.459 1.13 3.686 1.777 3.686.502 0 1.256-.797 2.262-2.391 1.005-1.595 1.543-2.808 1.615-3.642.144-1.376-.395-2.066-1.615-2.066-.575 0-1.166.133-1.776.396 1.18-3.882 3.432-5.768 6.757-5.66 2.465.073 3.627 1.68 3.485 4.821" clip-rule="evenodd" style="fill:#000" transform="translate(0 2) scale(1.33391)"/>
</svg>