<?xml version="1.0" encoding="UTF-8"?><svg id="a" xmlns="http://www.w3.org/2000/svg" viewBox="0 0 194.98 80"><path d="m157.84,50.48c-.05-.4-.07-.81-.1-1.22-.33-5.57,1.7-10.7,6.08-15.4,4.46-5.1,10.95-7.95,17.72-7.8,4.56,0,8.03,1.53,10.37,4.58,2.22,2.79,3.23,6.39,3.04,10.81-.19,5.82-2.58,11.35-6.66,15.51-4.03,4.3-9.7,6.67-15.6,6.52-5.15,0-9.07-1.66-11.75-4.98-.6-.76-1.13-1.59-1.56-2.45-.7.45-1.47.89-2.21,1.3-6.91,3.96-13.93,5.94-21.05,5.94-5.29,0-9.07-1.75-11.35-5.26-.16-.25-.33-.5-.48-.76l-.21.19c-4.37,3.77-8.74,5.65-13.12,5.65s-6.3-2.34-6.17-7.02c.14-2.54.55-5.06,1.23-7.51.63-2.24,1.04-4.52,1.23-6.83.06-2.47-.7-3.7-2.26-3.7-1.7,0-3.74,2.02-6.09,6.05-2.49,4.23-3.83,8.33-4.02,12.3-.13,2.79.15,4.95.82,6.44-4.55.13-7.74-.61-9.57-2.25-1.63-1.44-2.37-3.8-2.25-7.12.06-2.12.38-4.22.96-6.27.52-1.81.85-3.68.96-5.57.13-2.41-.75-3.61-2.65-3.61-1.63,0-3.4,1.86-5.3,5.57-1.86,3.6-2.93,7.56-3.13,11.61-.13,3.64.1,6.18.7,7.62-4.48.13-7.66-.8-9.55-2.79-.91-1.03-1.53-2.26-1.81-3.6-.37.35-.74.7-1.13,1.03-4.35,3.77-8.71,5.65-13.1,5.65-1.77.11-3.49-.61-4.66-1.95-1.13-1.44-1.67-3.25-1.52-5.07.06-2.14.73-5.46,2.01-9.95s1.91-6.9,1.91-7.22c0-1.69-.59-2.54-1.76-2.54-.38,0-1.37.6-3.02,1.81-1.24,3.71-3.94,8.24-8.11,13.56-5.92,7.68-10.94,11.53-15.05,11.53-2.55,0-4.69-2.34-6.45-7.02l-3.52-12.87c-1.31-4.68-2.7-7.02-4.18-7.02-.32,0-1.46.68-3.42,2.04l-2.08-2.64c2.14-1.86,4.26-3.74,6.37-5.65,2.87-2.47,5.02-3.78,6.46-3.9,3.39-.32,5.48,2,6.27,6.96.84,5.32,1.45,8.64,1.8,9.94.97,4.44,2.05,6.64,3.23,6.64.93,0,2.3-1.44,4.11-4.31,1.81-2.88,2.79-5.06,2.94-6.57.27-2.48-.7-3.73-2.94-3.73-1.11,0-2.21.25-3.23.7,2.13-6.99,6.2-10.38,12.25-10.19,4.03.12,6.15,2.48,6.33,7.08l2.91-2.63c2.79-2.47,4.88-3.78,6.27-3.9,2.15-.19,3.74.44,4.74,1.9,1.01,1.46,1.38,3.35,1.13,5.69-.84,3.97-1.76,8.99-2.74,15.07-.06,2.79.94,4.18,3.03,4.18.93,0,2.56-.96,4.88-2.89l.09-.07c.15-1.36.38-2.98.7-4.88.45-2.33.75-4.68.9-7.06.13-1.16-.16-1.75-.88-1.75-.39,0-1.5.65-3.34,1.97l-2.35-2.63c.33-.26,2.38-2.15,6.17-5.66,2.74-2.54,4.6-3.84,5.57-3.9,1.66-.15,3.25.66,4.11,2.09,1.05,1.57,1.6,3.43,1.57,5.32,0,.62-.06,1.25-.19,1.86.94-1.46,2.1-2.78,3.43-3.9,2.8-2.52,6.33-4.06,10.08-4.39,3.21-.26,5.49.49,6.85,2.25,1.11,1.39,1.63,3.48,1.57,6.15.49-.42.98-.84,1.47-1.27,1.3-1.56,2.78-2.96,4.4-4.18,2.19-1.67,4.8-2.69,7.54-2.93,3.13-.26,5.39.49,6.75,2.24,1.17,1.43,1.7,3.48,1.58,6.13-.2,2.68-.65,5.32-1.32,7.93-.53,1.97-.93,3.97-1.23,5.98-.14.96,0,1.93.39,2.82.33.51,1.11.77,2.36.77.92-.12,1.78-.48,2.51-1.03-.1-.85-.15-1.7-.13-2.57.08-5.25,2.45-10.27,7.09-15.05,5.1-5.2,11.12-7.8,18.02-7.81,6.4,0,9.79,2.59,10.18,7.79.27,3.31-1.56,6.72-5.48,10.23-4.18,3.83-9.43,6.26-15.76,7.29,1.17,1.62,2.93,2.44,5.29,2.44,4.7,0,9.82-1.19,15.38-3.57l.7-.31h.02v-.02Zm26.04-9.38c.09-1.66-.16-3.32-.73-4.88-.56-1.47-1.36-2.2-2.4-2.2-3.33,0-6.07,1.8-8.22,5.38-1.8,2.81-2.81,6.05-2.94,9.38-.1,1.48.2,2.98.88,4.31.72,1.44,1.73,2.15,3.03,2.15,2.94,0,5.45-1.73,7.54-5.19,1.71-2.7,2.69-5.8,2.84-8.99v.03Zm-37.75-3.29c.06-1.74-.65-2.62-2.15-2.62-1.96,0-3.95,1.35-5.96,4.03-2.02,2.69-3.06,5.26-3.12,7.72-.05.42-.05.84,0,1.26,3.13-1.14,5.97-2.96,8.31-5.34,1.89-2.07,2.87-3.76,2.93-5.06h0ZM61.98,13.39c-.06,1.61-.88,3.18-2.45,4.66-1.67,1.65-3.92,2.56-6.27,2.53-3.71,0-5.51-1.62-5.39-4.88.06-1.69,1.06-3.3,2.99-4.88,1.8-1.5,4.07-2.33,6.41-2.33,1.33-.02,2.59.57,3.44,1.6.85.88,1.31,2.06,1.27,3.29h0Z" style="fill-rule:evenodd; stroke-width:0px;"/></svg>