<?xml version="1.0" encoding="UTF-8" standalone="no"?>
<svg width="32" height="32" fill="none" class="sc-eSxRXt QFtcR" version="1.1" id="svg1" sodipodi:docname="vimeo.svg" inkscape:version="1.4-beta2 (9aaf4f34, 2024-07-30)" xmlns:inkscape="http://www.inkscape.org/namespaces/inkscape" xmlns:sodipodi="http://sodipodi.sourceforge.net/DTD/sodipodi-0.dtd" xmlns="http://www.w3.org/2000/svg" xmlns:svg="http://www.w3.org/2000/svg">
  <defs id="defs1" />
  <sodipodi:namedview id="namedview1" pagecolor="#ffffff" bordercolor="#000000" borderopacity="0.25" inkscape:showpageshadow="2" inkscape:pageopacity="0.0" inkscape:pagecheckerboard="0" inkscape:deskcolor="#d1d1d1" inkscape:zoom="1.2380952" inkscape:cx="12.115385" inkscape:cy="10.096154" inkscape:window-width="1440" inkscape:window-height="790" inkscape:window-x="0" inkscape:window-y="0" inkscape:window-maximized="1" inkscape:current-layer="svg1" />
  <g id="g1" transform="matrix(1.3339115,0,0,1.3339115,-2.8864577e-8,2.00019)">
    <path fill="#1A2E3B" fill-rule="evenodd" d="m 23.978,4.891 c -0.107,2.348 -1.738,5.562 -4.892,9.642 -3.262,4.261 -6.022,6.392 -8.28,6.392 -1.397,0 -2.58,-1.297 -3.547,-3.893 L 5.322,9.895 C 4.604,7.3 3.835,6.002 3.012,6.002 c -0.18,0 -0.808,0.38 -1.883,1.136 L 0,5.676 A 303.794,303.794 0 0 0 3.501,2.537 C 5.08,1.166 6.265,0.445 7.056,0.372 c 1.867,-0.18 3.016,1.103 3.447,3.849 0.466,2.962 0.789,4.805 0.97,5.526 0.538,2.459 1.13,3.686 1.777,3.686 0.502,0 1.256,-0.797 2.262,-2.391 1.005,-1.595 1.543,-2.808 1.615,-3.642 0.144,-1.376 -0.395,-2.066 -1.615,-2.066 -0.575,0 -1.166,0.133 -1.776,0.396 1.18,-3.882 3.432,-5.768 6.757,-5.66 2.465,0.073 3.627,1.68 3.485,4.821" clip-rule="evenodd" id="path1" style="fill:#000000" />
  </g>
</svg>
