<?xml version="1.0" encoding="UTF-8"?><svg id="a" xmlns="http://www.w3.org/2000/svg" viewBox="0 0 212.77 80"><path d="m172.24,49.8c-.05-.44-.08-.88-.11-1.33-.36-6.08,1.85-11.68,6.63-16.8,4.87-5.56,11.95-8.68,19.34-8.51,4.98,0,8.76,1.67,11.32,5,2.42,3.04,3.53,6.97,3.32,11.8-.21,6.35-2.81,12.39-7.27,16.92-4.4,4.69-10.59,7.28-17.02,7.12-5.62,0-9.9-1.81-12.82-5.43-.66-.83-1.23-1.73-1.7-2.67-.76.49-1.6.97-2.41,1.42-7.54,4.32-15.2,6.48-22.97,6.48-5.77,0-9.9-1.91-12.39-5.74-.18-.27-.36-.55-.52-.83l-.23.21c-4.77,4.11-9.54,6.17-14.32,6.17-4.64,0-6.88-2.55-6.73-7.66.15-2.77.6-5.52,1.34-8.2.69-2.44,1.14-4.93,1.34-7.45.07-2.69-.76-4.04-2.47-4.04-1.86,0-4.08,2.2-6.65,6.6-2.72,4.62-4.18,9.09-4.39,13.42-.14,3.04.16,5.4.9,7.03-4.97.14-8.45-.67-10.44-2.45-1.78-1.57-2.59-4.15-2.45-7.77.07-2.31.42-4.61,1.05-6.84.57-1.98.93-4.02,1.05-6.08.14-2.63-.82-3.94-2.89-3.94-1.78,0-3.71,2.03-5.78,6.08-2.03,3.93-3.2,8.25-3.42,12.67-.14,3.97.11,6.74.76,8.31-4.89.14-8.36-.87-10.42-3.04-.99-1.12-1.67-2.47-1.97-3.93-.4.38-.81.76-1.23,1.12-4.75,4.11-9.51,6.17-14.29,6.17-1.93.12-3.81-.67-5.08-2.13-1.23-1.57-1.82-3.55-1.66-5.53.07-2.34.8-5.96,2.19-10.86,1.39-4.9,2.08-7.53,2.08-7.88,0-1.84-.64-2.77-1.92-2.77-.41,0-1.5.66-3.3,1.98-1.35,4.05-4.3,8.99-8.85,14.8-6.46,8.38-11.94,12.58-16.42,12.58-2.78,0-5.12-2.55-7.04-7.66l-3.84-14.04c-1.43-5.11-2.95-7.66-4.56-7.66-.35,0-1.59.74-3.73,2.23l-2.27-2.88c2.34-2.03,4.65-4.08,6.95-6.17,3.13-2.7,5.48-4.12,7.05-4.26,3.7-.35,5.98,2.18,6.84,7.6.92,5.81,1.58,9.43,1.96,10.85,1.06,4.84,2.24,7.25,3.53,7.25,1.01,0,2.51-1.57,4.48-4.7,1.98-3.14,3.04-5.52,3.21-7.17.29-2.71-.76-4.07-3.21-4.07-1.21.01-2.41.27-3.52.76,2.32-7.63,6.77-11.33,13.37-11.12,4.4.13,6.71,2.71,6.91,7.73l3.18-2.87c3.04-2.7,5.32-4.12,6.84-4.26,2.35-.21,4.08.48,5.17,2.07,1.1,1.59,1.51,3.66,1.23,6.21-.92,4.33-1.92,9.81-2.99,16.45-.07,3.04,1.03,4.56,3.31,4.56,1.01,0,2.79-1.05,5.32-3.15l.1-.08c.16-1.48.41-3.25.76-5.32.49-2.54.82-5.11.98-7.7.14-1.27-.18-1.91-.96-1.91-.43,0-1.64.71-3.64,2.15l-2.56-2.87c.36-.28,2.6-2.35,6.73-6.18,2.99-2.77,5.02-4.19,6.08-4.26,1.81-.16,3.55.72,4.49,2.28,1.15,1.71,1.75,3.74,1.71,5.81,0,.68-.07,1.36-.21,2.03,1.03-1.59,2.29-3.03,3.74-4.26,3.05-2.75,6.91-4.43,11-4.79,3.5-.28,5.99.54,7.48,2.45,1.21,1.52,1.78,3.8,1.71,6.71.54-.46,1.07-.92,1.6-1.39,1.42-1.7,3.03-3.23,4.8-4.56,2.39-1.82,5.24-2.93,8.23-3.2,3.42-.28,5.88.53,7.37,2.44,1.28,1.56,1.85,3.8,1.72,6.69-.22,2.92-.71,5.81-1.44,8.65-.58,2.15-1.02,4.33-1.34,6.53-.15,1.05,0,2.11.43,3.08.36.56,1.21.84,2.57.84,1-.13,1.94-.52,2.74-1.12-.11-.93-.16-1.86-.14-2.8.09-5.73,2.67-11.21,7.74-16.42,5.57-5.67,12.13-8.51,19.66-8.52,6.98,0,10.68,2.83,11.11,8.5.29,3.61-1.7,7.33-5.98,11.16-4.56,4.18-10.29,6.83-17.2,7.96,1.28,1.77,3.2,2.66,5.77,2.66,5.13,0,10.72-1.3,16.78-3.9l.76-.34h.02Zm28.42-10.24c.1-1.81-.17-3.62-.8-5.32-.61-1.6-1.48-2.4-2.62-2.4-3.63,0-6.62,1.96-8.97,5.87-1.96,3.07-3.07,6.6-3.21,10.24-.11,1.62.22,3.25.96,4.7.79,1.57,1.89,2.35,3.31,2.35,3.21,0,5.95-1.89,8.23-5.66,1.87-2.95,2.93-6.33,3.1-9.81v.03Zm-41.19-3.59c.07-1.9-.71-2.86-2.35-2.86-2.14,0-4.31,1.47-6.5,4.4-2.2,2.93-3.34,5.74-3.41,8.42-.06.46-.06.92,0,1.38,3.42-1.24,6.52-3.23,9.07-5.83,2.06-2.26,3.13-4.1,3.2-5.52h0ZM67.63,9.33c-.07,1.76-.96,3.47-2.67,5.08-1.82,1.8-4.28,2.79-6.84,2.76-4.05,0-6.01-1.77-5.88-5.32.07-1.84,1.16-3.6,3.26-5.32,1.96-1.64,4.44-2.54,7-2.54,1.45-.02,2.83.62,3.75,1.75.93.96,1.43,2.25,1.39,3.59Z" style="fill-rule:evenodd; stroke-width:0px;"/></svg>