<?xml version="1.0" encoding="UTF-8" standalone="no"?>
<svg data-id="vivo-play" viewBox="0 0 32 32.000001" class="logo--XnDQv" version="1.1" id="svg1" width="32" height="32" xmlns="http://www.w3.org/2000/svg" xmlns:svg="http://www.w3.org/2000/svg">
  <defs id="defs1" />
  <path d="m 27.480111,13.171429 c -0.223245,-1.116223 -1.45109,-1.897579 -2.567312,-1.674334 0,0 -4.464891,1.0046 -4.688136,1.116222 -0.669734,0.111623 -1.45109,0.334867 -1.674334,-0.223244 -0.223245,-0.669734 0.223244,-0.892978 0.781356,-1.339467 0.334867,-0.223245 0.669734,-0.446489 1.116223,-0.892979 C 21.675753,8.929782 22.122242,7.143826 22.122242,6.027603 22.233864,2.6789347 19.443307,0 16.094638,0 12.74597,0 10.067036,2.6789347 10.067036,5.9159805 c 0,1.1162225 0.446489,2.9021795 1.674334,4.1300245 0.446489,0.446489 0.781356,0.669734 1.116223,0.892978 0.558111,0.334867 1.0046,0.669734 0.781355,1.339468 -0.223244,0.669733 -1.0046,0.446489 -1.674334,0.223244 -0.223244,0 -4.5765124,-1.116223 -4.6881347,-1.116223 -1.2278451,-0.223244 -2.3440678,0.558112 -2.5673124,1.674334 l -0.3348668,1.45109 c -0.2232445,1.116223 0.4464891,2.344068 1.5627119,2.678934 l 4.799757,1.116223 c 0.892979,0.223245 1.45109,0.669734 1.45109,1.562712 0,0.334867 -0.223245,0.781356 -0.558111,1.116223 0,0 -5.1346247,6.36247 -5.2462469,6.474092 -0.6697337,1.004601 -0.5581114,2.344068 0.4464891,3.013801 0,0 1.1162227,0.892979 1.227845,1.004601 0.8929781,0.781356 2.2324448,0.669734 3.0138008,-0.223245 0,0 3.237046,-4.018401 3.571913,-4.353268 0.334867,-0.446489 0.781356,-1.004601 1.339467,-1.004601 0.558111,0 1.004601,0.669734 1.339468,1.004601 0.334866,0.446489 3.571913,4.353268 3.571913,4.353268 0.781356,0.892979 2.120823,1.004601 3.013801,0.223245 0,0 1.227845,-0.892978 1.227845,-1.004601 0.892978,-0.781355 1.116223,-2.120823 0.446489,-3.013801 l -5.246246,-6.474092 c -0.334867,-0.334867 -0.558112,-0.781356 -0.558112,-1.116223 0,-0.892978 0.558112,-1.339467 1.45109,-1.562712 l 4.799757,-1.116223 c 1.116223,-0.334866 1.785957,-1.451089 1.562712,-2.678934 0.223245,0.111622 -0.111622,-1.339467 -0.111622,-1.339467" id="path7" style="stroke-width:1.11622" />
</svg>
