<?xml version="1.0" encoding="UTF-8"?>
<svg id="Camada_1" data-name="Camada 1" xmlns="http://www.w3.org/2000/svg" viewBox="0 0 200 80">
  <path d="M134.5,5.5C128.75,0,119.75,0,101.5,0h-3.25c-18,0-27,0-32.75,5.5-5.5,5.75-5.5,14.75-5.5,33v3.25c0,18,0,27.25,5.5,32.75s14.75,5.5,33,5.5h3.25c18,0,27.25,0,32.75-5.5,5.5-5.75,5.5-14.75,5.5-33v-3.25c0-18,0-27-5.5-32.75Zm-17.25,52.75c-2-6.25-7-11.25-13.5-12v12h-1c-18,0-29-12.5-29.5-33.25h9.25c.25,15.25,7.25,21.75,12.5,23V25h8.75v13.25c5.25-.5,10.5-6.5,12.25-13.25h8.75c-1.5,8.25-7.25,14.25-11.5,16.5,4.25,2,10.75,7.25,13.5,16.75h-9.5Z"/>
</svg>