<svg version="1.1" id="Camada_1" x="0px" y="0px" viewBox="0 0 32 32" xml:space="preserve" width="32" height="32" xmlns="http://www.w3.org/2000/svg" xmlns:svg="http://www.w3.org/2000/svg">
<path fill="#000" d="m 16.021486,-1.7960434e-7 c -1.214093,0 -2.16797,0.69373008960434 -2.16797,1.51757837960434 l 0.736329,8.3691404 c 0.08672,0.5203254 0.694513,0.9101564 1.431641,0.9101564 0.737127,0 1.344919,-0.389831 1.43164,-0.9101564 L 18.189455,1.5175782 C 18.189455,0.69372991 17.235578,-1.7960434e-7 16.021486,-1.7960434e-7 Z M 3.976564,6.7402345 C 3.3444469,6.7524274 2.6447396,7.2409967 2.189455,8.0214846 1.582409,9.062135 1.6691212,10.232411 2.4062485,10.666016 l 7.5878939,3.55664 c 0.4769646,0.173442 1.1273326,-0.173812 1.5175766,-0.824218 0.390243,-0.650407 0.347273,-1.387884 -0.04297,-1.691407 L 4.5742182,6.8945313 C 4.3899364,6.7861302 4.1872654,6.7361694 3.976564,6.7402345 Z m 24.029295,0 c -0.208673,-0.00408 -0.406635,0.045896 -0.580076,0.1542968 l -6.851565,4.8124997 c -0.390244,0.303523 -0.389853,1.041 -0.04297,1.691407 0.390244,0.650406 1.041006,0.99766 1.47461,0.824218 l 7.58789,-3.55664 C 30.330875,10.275772 30.417592,9.062135 29.810546,8.0214846 29.355261,7.2409967 28.631875,6.7524296 28.005859,6.7402345 Z M 10.181642,17.736328 c -0.0642,0.0058 -0.127879,0.01933 -0.1874996,0.04101 L 2.4062485,21.333979 C 1.6691212,21.767584 1.582409,22.93786 2.189455,23.978511 c 0.6070461,1.04065 1.6476358,1.517197 2.3847632,1.126953 l 6.8945298,-4.8125 c 0.390244,-0.303523 0.433214,-1.041 0.04297,-1.691406 -0.341464,-0.569106 -0.88072,-0.906139 -1.330077,-0.865235 z m 11.652344,0 c -0.42031,-0.04091 -0.961274,0.296129 -1.302738,0.865235 -0.346883,0.650406 -0.347274,1.387883 0.04297,1.691406 l 6.851565,4.8125 c 0.693767,0.433604 1.777717,-0.0863 2.384763,-1.126953 0.607046,-1.040651 0.520329,-2.210927 -0.216798,-2.644532 l -7.58789,-3.55664 c -0.0542,-0.02168 -0.11183,-0.03517 -0.171872,-0.04101 z m -5.8125,3.466797 c -0.737128,0 -1.34492,0.389831 -1.431641,0.910156 l -0.736329,8.369141 c 0,0.823848 0.953877,1.517578 2.16797,1.517578 1.214092,0 2.167969,-0.69373 2.167969,-1.517578 l -0.736329,-8.369141 c -0.08672,-0.520325 -0.694513,-0.910156 -1.43164,-0.910156 z" style="stroke-width:0.433604" /></svg>
