<?xml version="1.0" encoding="UTF-8" standalone="no"?>
<!-- Generator: Adobe Illustrator 23.0.6, SVG Export Plug-In . SVG Version: 6.00 Build 0)  -->

<svg version="1.1" id="Camada_1" x="0px" y="0px" viewBox="0 0 32 32" xml:space="preserve" sodipodi:docname="walmart.svg" width="32" height="32" inkscape:version="1.4-beta2 (9aaf4f34, 2024-07-30)" xmlns:inkscape="http://www.inkscape.org/namespaces/inkscape" xmlns:sodipodi="http://sodipodi.sourceforge.net/DTD/sodipodi-0.dtd" xmlns="http://www.w3.org/2000/svg" xmlns:svg="http://www.w3.org/2000/svg" xmlns:rdf="http://www.w3.org/1999/02/22-rdf-syntax-ns#" xmlns:cc="http://creativecommons.org/ns#" xmlns:dc="http://purl.org/dc/elements/1.1/"><defs id="defs2" /><sodipodi:namedview id="namedview2" pagecolor="#ffffff" bordercolor="#000000" borderopacity="0.25" inkscape:showpageshadow="2" inkscape:pageopacity="0.0" inkscape:pagecheckerboard="0" inkscape:deskcolor="#d1d1d1" inkscape:zoom="0.77661438" inkscape:cx="141.64044" inkscape:cy="122.96965" inkscape:window-width="1440" inkscape:window-height="790" inkscape:window-x="0" inkscape:window-y="0" inkscape:window-maximized="1" inkscape:current-layer="Camada_1" />
<title id="title1">walmart</title>

<g id="g2" transform="matrix(0.43360434,0,0,0.43360434,-99.837399,-10.01626)"><path d="m 267.2,48 c 1.7,0 3.1,-0.9 3.3,-2.1 l 1.7,-19.3 c 0,-1.9 -2.2,-3.5 -5,-3.5 -2.8,0 -5,1.6 -5,3.5 l 1.7,19.3 c 0.2,1.2 1.6,2.1 3.3,2.1 z m -10.4,6 c 0.9,-1.5 0.8,-3.2 -0.1,-3.9 L 240.8,39 c -1.7,-1 -4.1,0.2 -5.5,2.6 -1.4,2.4 -1.2,5.1 0.5,6.1 l 17.5,8.2 c 1.1,0.4 2.6,-0.4 3.5,-1.9 z m 20.8,0 c 0.9,1.5 2.4,2.3 3.4,1.9 l 17.5,-8.2 c 1.7,-0.9 1.9,-3.7 0.5,-6.1 -1.4,-2.4 -3.9,-3.6 -5.5,-2.6 l -15.8,11.1 c -0.9,0.7 -0.9,2.4 -0.1,3.9 z m -10.4,18 c 1.7,0 3.1,0.9 3.3,2.1 l 1.7,19.3 c 0,1.9 -2.2,3.5 -5,3.5 -2.8,0 -5,-1.6 -5,-3.5 l 1.7,-19.3 c 0.2,-1.2 1.6,-2.1 3.3,-2.1 z m 10.4,-6 c 0.9,-1.5 2.4,-2.3 3.4,-1.9 l 17.5,8.2 c 1.7,1 1.9,3.7 0.5,6.1 -1.4,2.4 -3.9,3.6 -5.5,2.6 L 277.7,69.9 c -0.9,-0.7 -0.9,-2.4 -0.1,-3.9 z m -20.8,0 c 0.9,1.5 0.8,3.2 -0.1,3.9 L 240.8,81 c -1.7,0.9 -4.1,-0.2 -5.5,-2.6 -1.4,-2.4 -1.2,-5.1 0.5,-6.1 l 17.5,-8.2 c 1.1,-0.4 2.6,0.4 3.5,1.9 z" id="path2" /></g>
<metadata id="metadata2"><rdf:RDF><cc:Work rdf:about=""><dc:title>walmart</dc:title></cc:Work></rdf:RDF></metadata></svg>
