<svg xmlns="http://www.w3.org/2000/svg" viewBox="0 0 80.59 80"><path d="m36.57 26.03-3.71-3.74-2.84 2.88v23.09L36.49 54l.07-.06v-27.9Zm-14.95.87-4.63-4.61-3.04 3.14v22.9l5.62 4.87 2.05-2.34V26.9Zm51.47-11.69 7.5 6.93v29.25l-11.6 8.87c-1.13-1.41-2.51-2.62-4.17-3.09v13.99l-.14.07-3.64-3.43-7.69 7.19-.14-.07V56.83c-2.68.69-5.06 2.25-6.76 4.45l-.53-.34c.46-5.18 2.98-9.01 7.29-10.49V37.32h-1.39a3.498 3.498 0 0 0-3.52 2.82h-.79c-.35-.99-.51-2.04-.47-3.09 0-3.29 2.18-5.79 5.76-5.79h.4V24l-2.38-2.15-1.85 1.88-.93-.88 7.36-7.67 6.23 5.79v6.59l1.92-2.08v-7.74h1.26v6.39l8.28-8.94Zm-9.53 11.57-1.92 2.02v37.87l1.92 1.82V26.77ZM13.08 5l.59.54c-2.18 1.07-3.96 2.4-3.96 5.27 0 4.41 4.23 3.28 4.23 10.22v2.67l7.73-8.21 8.14 8.08 7.67-8.08 7.4 7.35v24.7l-13.6 12.69-9.19-8.02-7.02 8.02-9.51-8.28V38.87H3.7c-1.65 0-2.44 1-2.71 2.34H.33C.2 40.67 0 39.74 0 38.67c0-1.73.73-6.27 5.55-6.27V22.25c0-3.94-2.57-4.14-2.57-7.54 0-3.82 3.57-7.35 10.12-9.69Zm55.23 16.6-3.5 3.76v24.42c3.12.4 5.43 1.47 7.36 3.56l.06-.07V25.23l-3.9-3.64h-.02Z" style="fill:#111;fill-rule:evenodd;stroke-width:0"/></svg>