<?xml version="1.0" encoding="UTF-8" standalone="no"?>
<!-- Uploaded to: SVG Repo, www.svgrepo.com, Generator: SVG Repo Mixer Tools -->

<svg fill="#000000" width="32" height="32" viewBox="0 0 0.56 0.56" role="img" focusable="false" aria-hidden="true" version="1.1" id="svg1" sodipodi:docname="wattpad.svg" inkscape:version="1.4-beta2 (9aaf4f34, 2024-07-30)" xmlns:inkscape="http://www.inkscape.org/namespaces/inkscape" xmlns:sodipodi="http://sodipodi.sourceforge.net/DTD/sodipodi-0.dtd" xmlns="http://www.w3.org/2000/svg" xmlns:svg="http://www.w3.org/2000/svg">
  <defs id="defs1" />
  <sodipodi:namedview id="namedview1" pagecolor="#ffffff" bordercolor="#000000" borderopacity="0.25" inkscape:showpageshadow="2" inkscape:pageopacity="0.0" inkscape:pagecheckerboard="0" inkscape:deskcolor="#d1d1d1" inkscape:zoom="5.0627902" inkscape:cx="8.8883794" inkscape:cy="41.775383" inkscape:window-width="1440" inkscape:window-height="872" inkscape:window-x="0" inkscape:window-y="0" inkscape:window-maximized="1" inkscape:current-layer="svg1" />
  <path d="m 0.07981685,0.48425946 c -0.025052,-0.00922 -0.051551,-0.043265 -0.063684,-0.081834 -0.012802,-0.040698 -0.01610200486,-0.069062 -0.016134004862,-0.1386884 -2.56499996e-5,-0.056042 7.327000024e-4,-0.068114 0.00571000486,-0.090822 0.013403,-0.061161 0.038525,-0.08784 0.080065,-0.085031 0.029743,0.002 0.045353,0.014732 0.054353,0.044306 0.00411,0.0135 0.00552,0.080047 0.00202,0.094691 -0.00233,0.00974 -0.00169,0.00895 0.020668,-0.025084 0.040746,-0.062034 0.082099,-0.1068151 0.1123609,-0.1216737 0.021173,-0.010397 0.047532,-0.010743 0.065168,-8.391e-4 0.024794,0.013897 0.036633,0.046853 0.034479,0.095974 l -0.00131,0.030002 0.016463,-0.020547 c 0.037346,-0.04661 0.084416,-0.086819 0.1125826,-0.096175 0.026662,-0.00886 0.048899,-8.391e-4 0.055644,0.02002 0.00549,0.016973 -2.799e-4,0.030585 -0.035634,0.084411 -0.036356,0.055318 -0.045707,0.071731 -0.083532,0.1466124 -0.031202,0.061767 -0.041594,0.07615 -0.063958,0.08854 -0.012391,0.00686 -0.017266,0.00798 -0.03462,0.00798 -0.01715,4.6e-6 -0.022085,-0.00112 -0.032706,-0.00735 -0.014682,-0.00863 -0.02432,-0.019413 -0.033438,-0.037408 -0.00846,-0.016697 -0.011854,-0.032872 -0.014147,-0.067442 l -0.00185,-0.027832 -0.010352,0.018727 c -0.0057,0.010304 -0.019306,0.037986 -0.03025,0.061511 -0.010944,0.023529 -0.024236,0.049919 -0.029538,0.05865 -0.011859,0.01952 -0.03053,0.038533 -0.04531,0.046134 -0.014667,0.00755 -0.046775,0.00917 -0.063052,0.00317 z" id="path1" style="fill:#000000;stroke-width:0.0466665" />
</svg>
