<?xml version="1.0" encoding="UTF-8" standalone="no"?>
<!-- Generator: Adobe Illustrator 24.0.2, SVG Export Plug-In . SVG Version: 6.00 Build 0)  -->

<svg version="1.1" id="Layer_1" x="0px" y="0px" width="32" height="32" viewBox="0 0 32 32" xml:space="preserve" sodipodi:docname="waze.svg" inkscape:version="1.4-beta2 (9aaf4f34, 2024-07-30)" xmlns:inkscape="http://www.inkscape.org/namespaces/inkscape" xmlns:sodipodi="http://sodipodi.sourceforge.net/DTD/sodipodi-0.dtd" xmlns="http://www.w3.org/2000/svg" xmlns:svg="http://www.w3.org/2000/svg"><defs id="defs5" /><sodipodi:namedview id="namedview5" pagecolor="#ffffff" bordercolor="#000000" borderopacity="0.25" inkscape:showpageshadow="2" inkscape:pageopacity="0.0" inkscape:pagecheckerboard="0" inkscape:deskcolor="#d1d1d1" inkscape:zoom="7.8047848" inkscape:cx="14.222045" inkscape:cy="26.586255" inkscape:window-width="1440" inkscape:window-height="872" inkscape:window-x="0" inkscape:window-y="0" inkscape:window-maximized="1" inkscape:current-layer="Layer_1" />
<style type="text/css" id="style1">
	.st0{fill-rule:evenodd;clip-rule:evenodd;fill:#FFFFFF;}
	.st1{fill-rule:evenodd;clip-rule:evenodd;fill:#191938;}
</style>
<g id="g5" transform="matrix(0.44381085,0,0,0.44381085,0.04561876,0.11157157)" style="fill:#000000">
	
	<path class="st1" d="M 39.6,0 C 29.7,0 20.4,4.4 14.1,12.3 9.6,18 7.2,25 7.2,32.3 v 5.2 c 0,2.7 -1.9,5.2 -5.6,5.4 -0.9,0 -1.6,0.7 -1.7,1.6 -0.1,2.4 2.5,6.9 6.1,10.5 2.5,2.5 5.4,4.5 8.5,6.1 -1,5.5 3.3,10.5 8.9,10.5 0,0 0,0 0.1,0 4.3,0 7.9,-3 8.8,-7.1 h 7.5 c 0.8,4.1 4.4,7.1 8.8,7.1 1,0 2.1,-0.2 3.1,-0.5 2.5,-0.8 4.4,-2.7 5.3,-5.2 0.8,-2.3 0.7,-4.6 0,-6.5 2,-1.3 3.8,-2.7 5.5,-4.4 C 68.6,49 72,40.8 72,32.3 72,23.7 68.6,15.7 62.5,9.6 56.4,3.3 48.2,0 39.6,0 Z m 0,3.6 c 11.6,0 22.1,7 26.6,17.7 4.5,10.7 2,23 -6.2,31.1 -5.3,5.3 -12.6,8.4 -20.3,8.4 h -7.4 c -0.7,-3.6 -3.5,-6.3 -7.1,-7 -0.6,-0.1 -1.1,-0.2 -1.7,-0.2 -3,0 -5.9,1.5 -7.6,4.1 v 0.1 C 13.2,56.4 10.8,54.6 8.6,52.5 6.1,50 4.7,47.6 4.1,46.2 5.8,45.8 7.2,44.9 8.4,43.7 9.9,42 10.8,39.9 10.8,37.6 v -5.3 c 0,-6.3 2.1,-12.5 6,-17.5 C 22.4,7.5 30.7,3.6 39.6,3.6 Z" id="path2" style="fill:#000000" />
	<path class="st1" d="m 54,21.4 c -2,0 -3.6,1.6 -3.6,3.6 0,2 1.6,3.6 3.6,3.6 2,0 3.6,-1.6 3.6,-3.6 0,-2 -1.6,-3.6 -3.6,-3.6 z" id="path3" style="fill:#000000" />
	<path class="st1" d="m 32.4,21.4 c -2,0 -3.6,1.6 -3.6,3.6 0,2 1.6,3.6 3.6,3.6 2,0 3.6,-1.6 3.6,-3.6 0,-2 -1.6,-3.6 -3.6,-3.6 z" id="path4" style="fill:#000000" />
	<path class="st1" d="m 31.8,35.7 c -1.3,0 -2.2,1.3 -1.6,2.5 2.4,5 7.4,8.2 13,8.2 5.6,0 10.6,-3.2 13,-8.2 0.5,-1.2 -0.3,-2.5 -1.6,-2.5 v 0 c -0.7,0 -1.3,0.4 -1.6,1 -1.8,3.7 -5.6,6.1 -9.7,6.1 -4.2,0 -8,-2.4 -9.7,-6.1 v 0 c -0.4,-0.6 -1,-1 -1.8,-1 z" id="path5" style="fill:#000000" />
</g>
</svg>
