<?xml version="1.0" encoding="UTF-8" standalone="no"?>
<svg viewBox="0 0 32 32" version="1.1" id="svg1" width="32" height="32" xmlns="http://www.w3.org/2000/svg" xmlns:svg="http://www.w3.org/2000/svg">
  <defs id="defs1" />
  <path id="weibo" d="m 18.781559,8.6930771 c 3.73306,-1.5686609 6.992647,-1.6615891 8.183624,0.045904 0.633601,0.909159 0.573121,2.1844619 -0.01114,3.6624229 -0.270912,0.680756 0.08275,0.787124 0.600001,0.942759 C 29.656062,13.998058 32,15.581234 32,18.369192 32,22.986797 25.362169,28.799987 15.387721,28.799987 7.7783888,28.799987 0,25.100718 0,19.016425 0,15.834329 2.0092436,12.156201 5.4691639,8.6841459 10.088731,4.0509507 15.476199,1.9403693 17.502261,3.9748034 c 0.894338,0.8946249 0.980546,2.44758 0.406273,4.2995179 -0.300096,0.9326793 0.873025,0.416487 0.873025,0.4187526 z M 13.981842,12.137157 C 7.9104311,12.739558 3.3054217,16.470313 3.7005581,20.467374 4.0945617,24.46693 9.336513,27.221172 15.407866,26.618867 21.480313,26.016563 26.083134,22.288111 25.68915,18.286251 25.295165,14.289134 20.054328,11.534776 13.981842,12.137157 Z M 11.481174,24.901426 C 8.561907,23.9564 7.3261557,21.065262 8.604435,18.458667 c 1.254779,-2.552738 4.521067,-3.997118 7.410209,-3.242442 2.990787,0.77476 4.516421,3.605322 3.294147,6.353037 -1.239169,2.812611 -4.803095,4.310596 -7.827617,3.332164 z m 1.648801,-5.47527 c -0.940263,-0.394176 -2.155873,0.01133 -2.735695,0.924865 -0.587636,0.915841 -0.311194,2.008706 0.622369,2.434178 0.946964,0.434305 2.204028,0.02246 2.791682,-0.918144 0.576442,-0.949441 0.273102,-2.033282 -0.678356,-2.440899 z" fill="currentColor" fill-opacity="0.8" style="fill:#000000;fill-opacity:0.995402;stroke-width:1.92" />
</svg>
