<svg width="32" height="32" xmlns="http://www.w3.org/2000/svg">
  <path d="M18.782 8.693c3.733-1.569 6.992-1.662 8.183.046.634.91.573 2.184-.011 3.662-.27.681.083.788.6.943C29.656 13.998 32 15.581 32 18.37 32 22.987 25.362 28.8 15.388 28.8 7.778 28.8 0 25.1 0 19.016c0-3.182 2.01-6.86 5.47-10.332 4.619-4.633 10.006-6.744 12.032-4.71.895.895.98 2.448.407 4.3-.3.933.873.417.873.42zm-4.8 3.444C7.91 12.74 3.305 16.47 3.7 20.467c.394 4 5.636 6.754 11.707 6.152 6.072-.602 10.675-4.33 10.281-8.333-.394-3.997-5.635-6.751-11.707-6.149Zm-2.5 12.764c-2.92-.945-4.156-3.836-2.878-6.442 1.255-2.553 4.522-3.997 7.41-3.243 2.991.775 4.517 3.606 3.295 6.353-1.24 2.813-4.803 4.31-7.828 3.332zm1.648-5.475c-.94-.394-2.156.011-2.736.925-.587.916-.31 2.009.623 2.434.947.435 2.204.023 2.791-.918.577-.95.273-2.033-.678-2.44z" fill="currentColor" style="fill:#000;stroke-width:1.92"/>
</svg>