<?xml version="1.0" encoding="UTF-8" standalone="no"?>
<!DOCTYPE svg PUBLIC "-//W3C//DTD SVG 1.1//EN" "http://www.w3.org/Graphics/SVG/1.1/DTD/svg11.dtd">
<!-- Created with Vectornator (http://vectornator.io/) -->
<svg height="100%" stroke-miterlimit="10" style="fill-rule:nonzero;clip-rule:evenodd;stroke-linecap:round;stroke-linejoin:round;" version="1.1" viewBox="0 0 250 80" width="100%" xml:space="preserve" xmlns="http://www.w3.org/2000/svg" xmlns:xlink="http://www.w3.org/1999/xlink">
<defs/>
<path d="M0 0L250 0L250 80L0 80L0 0Z" fill="#000000" fill-opacity="0" fill-rule="nonzero" opacity="1" stroke="none"/>
<g id="Sem-Título">
<g opacity="1">
<path d="M0.0203656 21.797L12.9529 21.797C13.3695 22.9636 12.9529 23.4136 11.8279 23.3553C11.4894 23.3337 11.1499 23.3337 10.8113 23.3553C9.69474 23.4636 9.25311 24.0386 9.61975 25.1385C10.0008 26.2401 10.4431 27.3194 10.9447 28.3716C14.2778 35.66 17.6359 42.9512 21.019 50.2452C21.2338 50.6493 21.4702 51.0415 21.7273 51.4201L23.7105 47.487C24.6271 45.6621 25.4271 43.7706 26.4937 42.0207C27.4747 40.556 27.4747 38.644 26.4937 37.1794C24.3938 33.2713 22.4523 29.3049 20.4691 25.3551C19.9191 24.2635 19.3025 23.3886 17.9192 23.2386C17.5692 23.2386 17.2943 22.4553 16.9859 22.072L17.2693 21.6804L27.152 21.6804C27.4103 21.6804 27.9352 22.122 27.8769 22.2887C27.8094 22.6966 27.5925 23.0649 27.2686 23.3219C27.077 23.4803 26.7103 23.4303 26.4353 23.4553C25.4687 23.5469 25.0854 24.1136 25.4771 24.9552C26.9686 28.155 28.5185 31.3297 30.1601 34.7212C31.7183 31.6714 33.1099 28.8882 34.4515 26.1301C35.3348 24.2719 34.9931 23.6303 32.9599 23.4553C31.9433 23.3469 31.535 22.972 31.8933 21.897L41.5677 21.897C41.9843 22.947 41.626 23.3303 40.5261 23.5219C39.7849 23.6536 39.1242 24.0691 38.6845 24.6802C36.343 28.7632 34.0848 32.9046 31.835 37.0544C31.6876 37.3946 31.6876 37.7807 31.835 38.121C33.9293 42.454 36.0431 46.7759 38.1762 51.0868C38.2346 51.2034 38.3762 51.2784 38.6012 51.4867C38.8595 50.9701 39.1095 50.5285 39.3012 50.0702L48.9256 27.1634C50.0921 24.3969 49.7088 23.6886 46.7507 23.4053C45.7008 23.3053 45.3758 22.872 45.7424 21.847L57.6667 21.847C57.9916 22.747 57.9333 23.4053 56.7834 23.4053C54.2835 23.4886 52.9503 24.9135 52.017 27.0634C47.8506 36.6183 43.6453 46.1732 39.4012 55.7281C38.9179 56.8114 38.5179 58.4363 37.168 58.228C36.3347 58.103 35.5014 56.7447 35.0264 55.7281C32.9766 51.5617 31.0684 47.287 29.0018 42.8456C28.6852 43.4456 28.4435 43.8872 28.2186 44.3455L22.6772 55.4698C22.5289 55.8931 22.3183 56.2919 22.0523 56.6531C21.4357 57.2947 20.7357 58.3196 20.0857 58.3196C19.4358 58.3196 18.6942 57.2364 18.3525 56.4781C13.6695 46.2954 9.0309 36.1128 4.43675 25.9301C3.72013 24.3635 2.82019 23.3219 0.978637 23.3219C-0.0379639 23.3219-0.0379639 23.2136 0.0203656 21.797Z" fill="#000000" fill-rule="nonzero" opacity="1" stroke="none"/>
<path d="M249.863 57.9113L236.447 57.9113C236.114 56.9947 236.264 56.4531 237.28 56.4447L238.005 56.4447C240.572 56.2614 241.022 55.6115 240.163 53.2283C239.305 50.8451 238.338 48.3203 237.505 45.8204C237.374 45.1365 236.727 44.6771 236.039 44.7788C232.633 44.8233 229.228 44.8233 225.823 44.7788C224.781 44.6541 223.808 45.3206 223.548 46.3371C222.714 48.5786 221.798 50.7618 220.923 53.0033C220.048 55.2448 220.698 56.2614 223.123 56.4447C223.956 56.5114 225.156 56.2531 224.681 57.928L212.64 57.928C212.44 57.2197 212.307 56.5281 213.357 56.4947C215.956 56.4114 217.223 54.7365 218.131 52.5867C220.965 46.0093 223.775 39.4125 226.564 32.7963C227.822 29.8465 229.064 26.8967 230.356 23.9552C230.55 23.4568 230.813 22.9883 231.139 22.5637C231.377 22.1748 231.817 21.956 232.271 22.0004C232.725 22.0447 233.113 22.3443 233.272 22.772C233.598 23.4492 233.876 24.148 234.105 24.8635C237.627 34.1851 241.144 43.5039 244.655 52.82C245.438 54.9282 246.621 56.3697 249.021 56.4447C250.154 56.4864 250.096 57.1197 249.863 57.9113ZM230.922 27.7217L225.198 42.329L236.239 42.329L230.922 27.7217Z" fill="#000000" fill-rule="nonzero" opacity="1" stroke="none"/>
<path d="M166.526 57.8613C166.201 56.9114 166.46 56.5114 167.468 56.4114C169.809 56.1864 170.143 55.8198 170.151 53.3866C170.151 47.987 170.151 42.5901 170.151 37.196C170.151 34.6962 170.151 34.6962 167.651 34.3545L166.468 34.1546L166.468 33.0213C172.018 33.0213 177.534 32.5963 182.967 33.138C188.95 33.7296 192.808 38.5376 193.016 44.5539C193.082 46.1052 192.976 47.659 192.7 49.1869C191.84 53.9643 187.806 57.5221 182.959 57.778C177.509 58.0196 172.076 57.8613 166.526 57.8613ZM174.334 45.2372L174.334 53.7033C174.334 55.5365 174.867 56.2531 176.676 56.3614C178.417 56.5106 180.169 56.4659 181.9 56.2281C185.458 55.6531 187.542 53.6449 187.95 50.0952C188.278 47.4482 188.253 44.7694 187.875 42.129C186.875 35.7378 181.95 33.7962 176.209 34.3962C175.638 34.3879 175.094 34.6377 174.729 35.0761C174.363 35.5144 174.215 36.0944 174.326 36.6544C174.392 39.4959 174.326 42.3373 174.326 45.2372L174.334 45.2372Z" fill="#000000" fill-rule="nonzero" opacity="1" stroke="none"/>
<path d="M95.9309 57.853L88.2314 57.853C87.6314 54.5199 80.7318 46.3621 78.282 46.2954C78.282 49.0536 78.232 51.8117 78.282 54.5615C78.282 55.8281 79.3903 56.2281 80.4319 56.3614C81.4735 56.4947 81.6235 56.9864 81.3151 57.9196C81.0735 57.9196 80.8318 57.978 80.5985 57.978L70.4325 57.978C70.0325 56.953 70.3158 56.5031 71.4741 56.4197C73.5906 56.2281 74.1073 55.5865 74.1073 53.3866L74.1073 37.3043C74.1073 34.8045 74.0323 34.7462 71.6074 34.3712L70.3325 34.1546L70.3325 32.8046L81.2651 32.8046C81.5485 34.1629 81.5651 34.2379 80.3069 34.4712C78.7903 34.7129 78.1487 35.4211 78.2237 37.021C78.3403 39.4375 78.2237 41.8624 78.2237 44.6539C79.2903 44.1539 80.2735 43.9456 80.8485 43.3206C82.89 41.2458 84.8649 39.0959 86.6815 36.8377C87.7564 35.5211 87.5147 35.1212 86.0732 34.2879C85.6982 34.0712 85.5399 33.4546 85.1316 32.8296L95.3642 32.8296L95.4559 34.0046C95.3107 34.0973 95.1538 34.1701 94.9893 34.2212C92.4765 34.2947 90.1466 35.5524 88.7063 37.6127C87.3564 39.3292 85.8815 40.9458 84.4066 42.6123C83.4733 43.6373 83.3483 44.4872 84.3566 45.6288C86.7287 48.3286 89.0285 51.1062 91.2562 53.9616C92.1419 55.2558 93.5115 56.1388 95.0559 56.4114C96.0559 56.5197 96.2225 57.0197 95.9309 57.853Z" fill="#000000" fill-rule="nonzero" opacity="1" stroke="none"/>
<path d="M148.627 43.8956C150.019 43.8956 151.186 43.8372 152.344 43.8956C153.794 43.9872 154.685 43.4373 154.919 41.9624C155.044 41.2374 155.202 40.4041 156.36 40.7958L156.36 48.7036C155.577 48.9702 155.194 48.8202 154.96 47.8703C154.419 45.7455 154.127 45.6121 151.919 45.6038L148.586 45.6038L148.586 51.2951C148.486 56.7614 148.869 56.0698 153.336 56.0864L154.944 56.0864C157.685 56.0864 159.027 55.1448 160.027 52.5783C160.435 51.5284 160.435 51.5284 161.693 51.7451C161.393 53.5366 161.127 55.3448 160.743 57.128C160.567 57.5222 160.203 57.8009 159.777 57.8696C153.699 57.9196 147.622 57.9196 141.545 57.8696C141.236 57.8696 140.936 57.478 140.636 57.2697C140.92 56.9697 141.153 56.4364 141.47 56.4364C144.144 55.8948 144.361 55.6531 144.361 52.895C144.361 47.6898 144.361 42.4818 144.361 37.271C144.361 34.6379 144.361 34.6379 141.786 34.2879L140.695 34.1212L140.62 32.7796L160.152 32.7796L160.985 39.1709C160.243 39.6209 159.718 39.6125 159.427 38.6793C158.51 35.5545 156.377 34.3462 153.236 34.6045C152.169 34.6879 151.094 34.6045 150.027 34.6545C149.194 34.6545 148.619 35.0378 148.619 35.9711C148.627 38.5626 148.627 41.1374 148.627 43.8956Z" fill="#000000" fill-rule="nonzero" opacity="1" stroke="none"/>
<path d="M116.021 34.1546L116.021 32.888C116.206 32.8305 116.396 32.7914 116.588 32.7713L128.987 32.7713C129.327 32.7681 129.666 32.7875 130.004 32.8296C134.403 33.4296 136.67 35.7295 136.67 39.4959C136.67 43.9206 133.845 47.1454 129.479 47.5953C127.67 47.7786 125.821 47.5953 123.862 47.5953C123.862 49.8368 123.771 52.2783 123.862 54.6782C123.946 56.2947 125.471 56.1448 126.554 56.3447C127.479 56.4947 127.904 56.7947 127.554 57.903L116.08 57.903C115.738 57.003 115.905 56.5447 117.005 56.3864C119.504 56.0364 119.663 55.7948 119.663 53.3449L119.663 37.421C119.663 34.6462 119.613 34.5962 116.896 34.2962L116.021 34.1546ZM123.829 40.5208C123.829 41.929 123.829 43.3373 123.829 44.7372C123.829 45.1288 124.137 45.7788 124.404 45.8454C128.404 46.7454 131.72 46.2704 132.212 41.2707C132.236 40.785 132.236 40.2983 132.212 39.8125C132.212 35.5795 130.254 33.6713 125.354 34.3962C124.45 34.4543 123.758 35.2242 123.796 36.1294L123.796 36.2877C123.871 37.721 123.862 39.1542 123.862 40.5291L123.829 40.5208Z" fill="#000000" fill-rule="nonzero" opacity="1" stroke="none"/>
<path d="M65.7245 58.028L54.1836 58.028C53.8419 57.0447 53.9836 56.5114 55.1918 56.3614C57.4667 56.1531 57.8583 55.6781 57.8583 53.4366L57.8583 37.246C57.8583 34.7462 57.8583 34.7462 55.3585 34.3212C55.0168 34.2712 54.5752 34.1546 54.1836 34.1546C54.1291 33.9636 54.0901 33.7685 54.0669 33.5713C54.0696 33.3095 54.0863 33.048 54.1169 32.788L65.7828 32.788C66.1661 33.8462 65.7828 34.2129 64.7829 34.3462C62.158 34.7129 62.158 34.7545 62.158 37.471L62.158 53.5116C62.158 55.7115 62.533 56.1281 64.6579 56.3864C65.9745 56.5781 65.9745 56.5781 65.7245 58.028Z" fill="#000000" fill-rule="nonzero" opacity="1" stroke="none"/>
<path d="M111.397 57.953L99.9473 57.953C99.614 57.0364 99.7556 56.5697 100.781 56.4447C103.222 56.1614 103.58 55.7198 103.58 53.3199L103.58 37.3793C103.58 34.8128 103.522 34.7462 100.964 34.3545L99.8806 34.1546L99.764 32.8213L111.48 32.8213L111.48 34.1546C107.788 34.9878 107.788 34.9878 107.788 38.7293L107.788 53.4616C107.788 55.8031 108.105 56.1364 110.53 56.4697C111.563 56.5781 111.563 56.5781 111.397 57.953Z" fill="#000000" fill-rule="nonzero" opacity="1" stroke="none"/>
<path d="M198.033 34.1546L198.033 32.8463L209.657 32.8463L209.749 34.1296C209.199 34.2379 208.74 34.3379 208.274 34.4129C206.215 34.7295 205.99 34.9628 205.99 37.0127L205.99 53.3699C205.99 55.7948 206.282 56.1614 208.674 56.4197C209.682 56.5281 209.94 56.9364 209.599 57.9196L198.124 57.9196C197.749 56.878 198.124 56.5114 199.141 56.4197C201.366 56.2114 201.782 55.6948 201.782 53.4533L201.782 37.3877C201.782 34.7878 201.782 34.7628 199.174 34.3712L198.033 34.1546Z" fill="#000000" fill-rule="nonzero" opacity="1" stroke="none"/>
</g>
</g>
</svg>
