<?xml version="1.0" encoding="UTF-8"?><svg id="a" xmlns="http://www.w3.org/2000/svg" viewBox="0 0 274.34 80"><defs><style>.c{stroke:#000;stroke-miterlimit:10;}</style></defs><g id="b"><path class="c" d="m.81,20.99h14.13c.46,1.27,0,1.76-1.23,1.71-.36-.02-.74-.02-1.11,0-1.22.11-1.71.75-1.3,1.95.42,1.21.9,2.38,1.44,3.53,3.64,7.96,7.3,15.93,11,23.89.24.44.49.86.77,1.29l2.16-4.3c1-1.99,1.88-4.06,3.04-5.97,1.07-1.6,1.07-3.69,0-5.29-2.3-4.27-4.41-8.6-6.58-12.91-.6-1.19-1.27-2.15-2.79-2.31-.39,0-.68-.85-1.02-1.27l.31-.43h10.8c.28,0,.85.48.8.66-.07.44-.31.85-.66,1.13-.2.17-.61.11-.91.15-1.06.1-1.48.72-1.05,1.64,1.63,3.49,3.32,6.96,5.12,10.67,1.71-3.33,3.22-6.37,4.69-9.39.97-2.03.59-2.73-1.63-2.92-1.11-.11-1.56-.52-1.16-1.71h10.57c.46,1.15.07,1.57-1.14,1.77-.81.15-1.54.6-2.01,1.26-2.56,4.46-5.03,8.99-7.49,13.52-.16.38-.16.8,0,1.16,2.29,4.73,4.6,9.45,6.93,14.16.07.13.22.2.47.43.28-.57.56-1.05.76-1.55l10.51-25.02c1.27-3.03.85-3.8-2.38-4.11-1.15-.11-1.5-.58-1.1-1.71h13.03c.35.98.3,1.71-.97,1.71-2.73.09-4.19,1.65-5.21,3.99-4.55,10.43-9.15,20.88-13.78,31.31-.52,1.18-.97,2.96-2.43,2.73-.91-.14-1.82-1.62-2.34-2.73-2.24-4.55-4.32-9.22-6.58-14.07-.34.66-.61,1.14-.85,1.64l-6.05,12.15c-.16.47-.39.9-.68,1.3-.67.71-1.43,1.82-2.15,1.82s-1.52-1.18-1.89-2.01c-5.12-11.13-10.18-22.24-15.2-33.37-.78-1.71-1.76-2.84-3.78-2.84-1.11,0-1.11-.11-1.05-1.66v.02Z"/><path class="c" d="m273.68,60.42h-14.65c-.36-1-.2-1.59.91-1.6h.8c2.8-.2,3.3-.91,2.35-3.52-.93-2.61-1.99-5.36-2.9-8.09-.15-.75-.85-1.25-1.6-1.14-3.72.05-7.44.05-11.16,0-1.14-.14-2.2.59-2.48,1.71-.91,2.45-1.91,4.84-2.87,7.28s-.25,3.56,2.4,3.75c.91.07,2.22-.2,1.71,1.62h-13.15c-.22-.77-.36-1.52.78-1.57,2.84-.09,4.22-1.92,5.21-4.27,3.09-7.18,6.17-14.39,9.22-21.62,1.38-3.22,2.73-6.44,4.14-9.66.22-.55.5-1.06.85-1.52.26-.42.74-.66,1.24-.61.5.05.92.38,1.09.84.35.74.66,1.5.91,2.29,3.85,10.18,7.69,20.35,11.52,30.53.85,2.3,2.15,3.88,4.77,3.96,1.24.05,1.17.74.92,1.6h-.01Zm-20.68-32.97l-6.26,15.95h12.06l-5.8-15.95Z"/><path class="c" d="m182.65,60.38c-.35-1.04-.07-1.48,1.02-1.58,2.56-.25,2.92-.65,2.94-3.3v-17.68c0-1.82-.91-2.86-2.73-3.11l-1.3-.22v-1.24c6.06,0,12.08-.47,18.02.13,6.53.65,10.75,5.89,10.98,12.47.07,1.7-.05,3.39-.34,5.06-.94,5.22-5.35,9.1-10.64,9.39-5.95.26-11.89.09-17.95.09h0Zm8.53-13.79v9.25c0,2,.58,2.79,2.56,2.9,1.9.16,3.81.11,5.71-.15,3.89-.63,6.17-2.82,6.61-6.7.35-2.89.33-5.81-.08-8.7-1.09-6.99-6.47-9.1-12.74-8.44-.63,0-1.22.26-1.62.74-.4.48-.56,1.11-.44,1.73.07,3.11,0,6.21,0,9.37h0Z"/><path class="c" d="m105.55,60.37h-8.41c-.66-3.64-8.19-12.55-10.86-12.63,0,3.01-.06,6.03,0,9.03,0,1.39,1.21,1.82,2.34,1.97s1.3.68.97,1.71c-.26,0-.52.07-.78.07h-11.1c-.43-1.11-.13-1.62,1.14-1.71,2.31-.2,2.88-.91,2.88-3.31v-17.57c0-2.73-.08-2.8-2.73-3.21l-1.39-.24v-1.48h11.95c.31,1.48.33,1.57-1.05,1.82-1.66.26-2.35,1.04-2.28,2.79.13,2.64,0,5.29,0,8.34,1.16-.55,2.24-.77,2.87-1.46,2.23-2.26,4.39-4.62,6.37-7.08,1.17-1.43.91-1.88-.66-2.79-.41-.24-.58-.91-1.02-1.59h11.17l.1,1.29c-.16.1-.33.18-.51.24-2.74.08-5.29,1.46-6.86,3.71-1.48,1.88-3.08,3.64-4.7,5.46-1.02,1.11-1.16,2.05-.06,3.3,2.59,2.95,5.11,5.98,7.53,9.1.97,1.41,2.47,2.38,4.15,2.67,1.09.11,1.27.66.96,1.57h-.01Z"/><path class="c" d="m163.11,45.12c1.52,0,2.8-.07,4.06,0,1.58.1,2.56-.5,2.81-2.12.14-.8.31-1.71,1.57-1.27v8.63c-.85.3-1.27.13-1.52-.91-.59-2.32-.91-2.47-3.32-2.48h-3.64v6.21c-.11,5.97.31,5.21,5.19,5.23h1.75c2.99,0,4.46-1.02,5.55-3.83.3-.77.9-1.07,1.82-.91-.33,1.96-.61,3.94-1.04,5.88-.19.43-.59.74-1.06.81-6.63.06-13.28.06-19.91,0-.34,0-.66-.43-.99-.66.31-.33.57-.91.91-.91,2.92-.59,3.16-.85,3.16-3.87v-17.06c0-1.92-.94-3-2.81-3.25l-1.19-.18-.08-1.47h21.33l.91,6.99c-.81.49-1.39.48-1.71-.53-1-3.41-3.33-4.73-6.76-4.45-1.16.09-2.34,0-3.5.06-.91,0-1.54.42-1.54,1.43v8.66h0Z"/><path class="c" d="m127.5,34.48v-1.39c.2-.07.41-.1.61-.13h13.54c.38,0,.74.02,1.11.07,4.8.66,7.28,3.16,7.28,7.28,0,4.84-3.08,8.35-7.85,8.85-1.98.2-3.99,0-6.13,0,0,2.45-.1,5.12,0,7.74.09,1.76,1.75,1.6,2.94,1.82,1.01.16,1.48.49,1.09,1.71h-12.54c-.38-.98-.19-1.48,1.01-1.66,2.73-.39,2.9-.65,2.9-3.32v-17.39c0-3.03-.06-3.08-3.03-3.41l-.96-.16h.01Zm8.53,6.95v4.61c0,.43.34,1.14.63,1.21,4.37.98,7.99.47,8.53-4.99.02-.53.02-1.06,0-1.59,0-4.62-2.14-6.71-7.49-5.92-.99.07-1.74.9-1.71,1.89v.17c.08,1.57.07,3.13.07,4.63h-.03Z"/><path class="c" d="m72.57,60.56h-12.61c-.38-1.07-.22-1.66,1.1-1.82,2.48-.23,2.91-.75,2.91-3.2v-17.68c0-1.82-.91-2.89-2.73-3.2-.38-.06-.85-.18-1.29-.18-.06-.2-.1-.42-.13-.64,0-.28.02-.57.06-.85h12.74c.42,1.16,0,1.56-1.09,1.71-2.87.4-2.87.44-2.87,3.41v17.52c0,2.4.41,2.86,2.73,3.14.96.14,1.34.74,1.16,1.8h0Z"/><path class="c" d="m122.45,60.47h-12.5c-.36-1-.2-1.51.91-1.65,2.66-.31,3.06-.8,3.06-3.41v-17.41c0-2.8-.07-2.88-2.86-3.3l-1.18-.22-.13-1.46h12.8v1.46c-2.68.61-4.03,2.27-4.03,4.99v16.09c0,2.56.34,2.92,2.99,3.29.75.08,1.07.61.94,1.62h-.01Z"/><path class="c" d="m217.07,34.48v-1.43h12.7l.1,1.4c-.6.11-1.1.23-1.62.31-2.25.34-2.49.6-2.49,2.84v17.86c0,2.65.32,3.05,2.94,3.33,1.1.11,1.39.57,1.01,1.64h-12.54c-.41-1.14,0-1.54,1.11-1.64,2.43-.23,2.89-.8,2.89-3.24v-17.54c0-2.84,0-2.87-2.84-3.3l-1.25-.24h-.01Z"/></g></svg>