<?xml version="1.0" encoding="UTF-8"?><svg id="a" xmlns="http://www.w3.org/2000/svg" viewBox="0 0 261.3 80"><g id="b"><path d="m.81,19.01h13.46c.44,1.21,0,1.68-1.17,1.63-.34-.02-.7-.02-1.06,0-1.16.1-1.63.71-1.24,1.86.4,1.15.86,2.27,1.37,3.36,3.47,7.58,6.95,15.17,10.47,22.75.23.42.47.82.73,1.23l2.06-4.09c.95-1.89,1.79-3.87,2.89-5.68,1.02-1.52,1.02-3.51,0-5.04-2.19-4.07-4.2-8.19-6.27-12.29-.57-1.13-1.21-2.05-2.66-2.2-.37,0-.65-.81-.97-1.21l.3-.41h10.28c.27,0,.81.46.76.63-.07.42-.3.81-.63,1.08-.19.16-.58.1-.87.14-1.01.1-1.41.69-1,1.56,1.55,3.32,3.16,6.63,4.88,10.16,1.63-3.17,3.07-6.07,4.47-8.94.92-1.93.56-2.6-1.55-2.78-1.06-.1-1.49-.5-1.1-1.63h10.07c.44,1.1.07,1.5-1.09,1.69-.77.14-1.47.57-1.91,1.2-2.44,4.25-4.79,8.56-7.13,12.87-.15.36-.15.76,0,1.1,2.18,4.5,4.38,9,6.6,13.48.07.12.21.19.45.41.27-.54.53-1,.72-1.48l10.01-23.83c1.21-2.89.81-3.62-2.27-3.91-1.1-.1-1.43-.55-1.05-1.63h12.41c.33.93.29,1.63-.92,1.63-2.6.09-3.99,1.57-4.96,3.8-4.33,9.93-8.71,19.88-13.12,29.81-.5,1.12-.92,2.82-2.31,2.6-.87-.13-1.73-1.54-2.23-2.6-2.13-4.33-4.11-8.78-6.27-13.4-.32.63-.58,1.09-.81,1.56l-5.76,11.57c-.15.45-.37.86-.65,1.24-.64.68-1.36,1.73-2.05,1.73s-1.45-1.12-1.8-1.91c-4.88-10.6-9.69-21.18-14.47-31.78-.74-1.63-1.68-2.7-3.6-2.7-1.06,0-1.06-.1-1-1.58v.02-.02Z" style="stroke:#000; stroke-miterlimit:10;"/><path d="m260.65,56.56h-13.95c-.34-.95-.19-1.51.87-1.52h.76c2.67-.19,3.14-.87,2.24-3.35-.89-2.49-1.89-5.1-2.76-7.7-.14-.71-.81-1.19-1.52-1.09-3.54.05-7.08.05-10.63,0-1.09-.13-2.09.56-2.36,1.63-.87,2.33-1.82,4.61-2.73,6.93s-.24,3.39,2.29,3.57c.87.07,2.11-.19,1.63,1.54h-12.52c-.21-.73-.34-1.45.74-1.5,2.7-.09,4.02-1.83,4.96-4.07,2.94-6.84,5.88-13.7,8.78-20.59,1.31-3.07,2.6-6.13,3.94-9.2.21-.52.48-1.01.81-1.45.25-.4.7-.63,1.18-.58s.88.36,1.04.8c.33.7.63,1.43.87,2.18,3.67,9.69,7.32,19.38,10.97,29.07.81,2.19,2.05,3.69,4.54,3.77,1.18.05,1.11.7.88,1.52h0v.02Zm-19.69-31.4l-5.96,15.19h11.48l-5.52-15.19h0Z" style="stroke:#000; stroke-miterlimit:10;"/><path d="m173.97,56.52c-.33-.99-.07-1.41.97-1.5,2.44-.24,2.78-.62,2.8-3.14v-16.84c0-1.73-.87-2.72-2.6-2.96l-1.24-.21v-1.18c5.77,0,11.5-.45,17.16.12,6.22.62,10.24,5.61,10.46,11.87.07,1.62-.05,3.23-.32,4.82-.9,4.97-5.09,8.67-10.13,8.94-5.67.25-11.32.09-17.09.09h0Zm8.12-13.13v8.81c0,1.9.55,2.66,2.44,2.76,1.81.15,3.63.1,5.44-.14,3.7-.6,5.88-2.69,6.29-6.38.33-2.75.31-5.53-.08-8.28-1.04-6.66-6.16-8.67-12.13-8.04-.6,0-1.16.25-1.54.7-.38.46-.53,1.06-.42,1.65.07,2.96,0,5.91,0,8.92h0Z" style="stroke:#000; stroke-miterlimit:10;"/><path d="m100.55,56.51h-8.01c-.63-3.47-7.8-11.95-10.34-12.03,0,2.87-.06,5.74,0,8.6,0,1.32,1.15,1.73,2.23,1.88s1.24.65.92,1.63c-.25,0-.5.07-.74.07h-10.57c-.41-1.06-.12-1.54,1.09-1.63,2.2-.19,2.74-.87,2.74-3.15v-16.73c0-2.6-.08-2.67-2.6-3.06l-1.32-.23v-1.41h11.38c.3,1.41.31,1.5-1,1.73-1.58.25-2.24.99-2.17,2.66.12,2.51,0,5.04,0,7.94,1.1-.52,2.13-.73,2.73-1.39,2.12-2.15,4.18-4.4,6.07-6.74,1.11-1.36.87-1.79-.63-2.66-.39-.23-.55-.87-.97-1.51h10.64l.1,1.23c-.15.1-.31.17-.49.23-2.61.08-5.04,1.39-6.53,3.53-1.41,1.79-2.93,3.47-4.48,5.2-.97,1.06-1.1,1.95-.06,3.14,2.47,2.81,4.87,5.69,7.17,8.67.92,1.34,2.35,2.27,3.95,2.54,1.04.1,1.21.63.91,1.5h-.02Z" style="stroke:#000; stroke-miterlimit:10;"/><path d="m155.36,41.99c1.45,0,2.67-.07,3.87,0,1.5.1,2.44-.48,2.68-2.02.13-.76.3-1.63,1.5-1.21v8.22c-.81.29-1.21.12-1.45-.87-.56-2.21-.87-2.35-3.16-2.36h-3.47v5.91c-.1,5.68.3,4.96,4.94,4.98h1.67c2.85,0,4.25-.97,5.28-3.65.29-.73.86-1.02,1.73-.87-.31,1.87-.58,3.75-.99,5.6-.18.41-.56.7-1.01.77-6.31.06-12.65.06-18.96,0-.32,0-.63-.41-.94-.63.3-.31.54-.87.87-.87,2.78-.56,3.01-.81,3.01-3.69v-16.25c0-1.83-.9-2.86-2.68-3.09l-1.13-.17-.08-1.4h20.31l.87,6.66c-.77.47-1.32.46-1.63-.5-.95-3.25-3.17-4.5-6.44-4.24-1.1.09-2.23,0-3.33.06-.87,0-1.47.4-1.47,1.36v8.25h0Z" style="stroke:#000; stroke-miterlimit:10;"/><path d="m121.45,31.86v-1.32c.19-.07.39-.1.58-.12h12.89c.36,0,.7.02,1.06.07,4.57.63,6.93,3.01,6.93,6.93,0,4.61-2.93,7.95-7.48,8.43-1.89.19-3.8,0-5.84,0,0,2.33-.1,4.88,0,7.37.09,1.68,1.67,1.52,2.8,1.73.96.15,1.41.47,1.04,1.63h-11.94c-.36-.93-.18-1.41.96-1.58,2.6-.37,2.76-.62,2.76-3.16v-16.56c0-2.89-.06-2.93-2.89-3.25l-.91-.15h.03Zm8.12,6.62v4.39c0,.41.32,1.09.6,1.15,4.16.93,7.61.45,8.12-4.75.02-.5.02-1.01,0-1.51,0-4.4-2.04-6.39-7.13-5.64-.94.07-1.66.86-1.63,1.8v.16c.08,1.5.07,2.98.07,4.41h-.03Z" style="stroke:#000; stroke-miterlimit:10;"/><path d="m69.14,56.69h-12.01c-.36-1.02-.21-1.58,1.05-1.73,2.36-.22,2.77-.71,2.77-3.05v-16.84c0-1.73-.87-2.75-2.6-3.05-.36-.06-.81-.17-1.23-.17-.06-.19-.1-.4-.12-.61,0-.27.02-.54.06-.81h12.13c.4,1.1,0,1.49-1.04,1.63-2.73.38-2.73.42-2.73,3.25v16.68c0,2.29.39,2.72,2.6,2.99.91.13,1.28.7,1.1,1.71h.02Z" style="stroke:#000; stroke-miterlimit:10;"/><path d="m116.64,56.61h-11.9c-.34-.95-.19-1.44.87-1.57,2.53-.3,2.91-.76,2.91-3.25v-16.58c0-2.67-.07-2.74-2.72-3.14l-1.12-.21-.12-1.39h12.19v1.39c-2.55.58-3.84,2.16-3.84,4.75v15.32c0,2.44.32,2.78,2.85,3.13.71.08,1.02.58.9,1.54h0,0Z" style="stroke:#000; stroke-miterlimit:10;"/><path d="m206.74,31.86v-1.36h12.09l.1,1.33c-.57.1-1.05.22-1.54.3-2.14.32-2.37.57-2.37,2.7v17.01c0,2.52.3,2.9,2.8,3.17,1.05.1,1.32.54.96,1.56h-11.94c-.39-1.09,0-1.47,1.06-1.56,2.31-.22,2.75-.76,2.75-3.09v-16.7c0-2.7,0-2.73-2.7-3.14l-1.19-.23h0Z" style="stroke:#000; stroke-miterlimit:10;"/></g></svg>