<?xml version="1.0" encoding="UTF-8"?><svg id="a" xmlns="http://www.w3.org/2000/svg" viewBox="0 0 241 80"><defs><style>.c{stroke:#000;stroke-miterlimit:10;}</style></defs><g id="b"><path class="c" d="m.52,22.53h12.42c.4,1.12,0,1.55-1.08,1.5-.32-.02-.65-.02-.98,0-1.07.1-1.5.66-1.14,1.71.37,1.06.79,2.09,1.27,3.1,3.2,7,6.42,14,9.67,21,.21.39.43.76.68,1.13l1.9-3.78c.88-1.75,1.65-3.57,2.67-5.25.94-1.41.94-3.24,0-4.65-2.02-3.75-3.88-7.56-5.78-11.35-.53-1.05-1.12-1.89-2.45-2.03-.34,0-.6-.75-.9-1.12l.27-.38h9.49c.25,0,.75.42.7.58-.06.39-.27.75-.58.99-.18.15-.54.1-.8.13-.93.09-1.3.63-.92,1.44,1.43,3.07,2.92,6.12,4.5,9.38,1.5-2.93,2.83-5.6,4.12-8.25.85-1.78.52-2.4-1.43-2.57-.98-.1-1.37-.46-1.02-1.5h9.29c.4,1.01.06,1.38-1,1.56-.71.13-1.35.53-1.77,1.11-2.25,3.92-4.42,7.9-6.58,11.88-.14.33-.14.7,0,1.02,2.01,4.16,4.04,8.31,6.09,12.45.06.11.19.18.41.38.25-.5.49-.92.67-1.36l9.24-21.99c1.12-2.66.75-3.34-2.09-3.61-1.01-.1-1.32-.51-.97-1.5h11.45c.31.86.26,1.5-.85,1.5-2.4.08-3.68,1.45-4.58,3.51-4,9.17-8.04,18.35-12.11,27.52-.46,1.04-.85,2.6-2.14,2.4-.8-.12-1.6-1.42-2.06-2.4-1.97-4-3.8-8.1-5.78-12.37-.3.58-.54,1-.75,1.44l-5.32,10.68c-.14.41-.34.79-.6,1.14-.59.62-1.26,1.6-1.89,1.6s-1.34-1.04-1.66-1.77c-4.5-9.78-8.95-19.55-13.36-29.33-.69-1.5-1.55-2.5-3.32-2.5-.98,0-.98-.1-.92-1.46Z"/><path class="c" d="m240.37,57.19h-12.88c-.32-.88-.18-1.4.8-1.41h.7c2.46-.18,2.9-.8,2.07-3.09-.82-2.29-1.75-4.71-2.55-7.11-.13-.66-.75-1.1-1.41-1-3.27.04-6.54.04-9.81,0-1-.12-1.93.52-2.18,1.5-.8,2.15-1.68,4.25-2.52,6.4s-.22,3.13,2.11,3.3c.8.06,1.95-.18,1.5,1.42h-11.56c-.19-.68-.32-1.34.69-1.38,2.5-.08,3.71-1.69,4.58-3.75,2.72-6.31,5.42-12.65,8.1-19,1.21-2.83,2.4-5.66,3.64-8.49.19-.48.44-.93.75-1.34.23-.37.65-.58,1.09-.54.44.04.81.33.96.74.31.65.58,1.32.8,2.01,3.38,8.95,6.76,17.89,10.13,26.84.75,2.02,1.89,3.41,4.19,3.48,1.09.04,1.03.65.81,1.41Zm-18.18-28.98l-5.5,14.02h10.6l-5.1-14.02Z"/><path class="c" d="m160.36,57.15c-.31-.91-.06-1.3.9-1.39,2.25-.22,2.57-.57,2.58-2.9v-15.54q0-2.4-2.4-2.73l-1.14-.19v-1.09c5.33,0,10.62-.41,15.84.11,5.74.57,9.45,5.18,9.65,10.96.06,1.49-.04,2.98-.3,4.45-.83,4.59-4.7,8-9.35,8.25-5.23.23-10.45.08-15.78.08Zm7.5-12.12v8.13c0,1.76.51,2.45,2.25,2.55,1.67.14,3.35.1,5.02-.13,3.42-.55,5.42-2.48,5.81-5.89.31-2.54.29-5.11-.07-7.65-.96-6.14-5.69-8-11.2-7.42-.55,0-1.07.23-1.42.65-.35.42-.49.98-.39,1.52.06,2.73,0,5.46,0,8.24h0Z"/><path class="c" d="m92.59,57.14h-7.39c-.58-3.2-7.2-11.03-9.55-11.1,0,2.65-.05,5.3,0,7.94,0,1.22,1.06,1.6,2.06,1.73s1.14.6.85,1.5c-.23,0-.46.06-.69.06h-9.76c-.38-.98-.11-1.42,1-1.5,2.03-.18,2.53-.8,2.53-2.91v-15.44c0-2.4-.07-2.46-2.4-2.82l-1.22-.21v-1.3h10.5c.27,1.3.29,1.38-.92,1.6-1.46.23-2.07.91-2,2.45.11,2.32,0,4.65,0,7.33,1.02-.48,1.97-.68,2.52-1.28,1.96-1.99,3.86-4.06,5.6-6.22,1.03-1.26.8-1.65-.58-2.45-.36-.21-.51-.8-.9-1.4h9.82l.09,1.13c-.14.09-.29.16-.45.21-2.41.07-4.65,1.28-6.03,3.26-1.3,1.65-2.71,3.2-4.13,4.8-.9.98-1.02,1.8-.05,2.9,2.28,2.59,4.49,5.26,6.62,8,.85,1.24,2.17,2.09,3.65,2.35.96.1,1.12.58.84,1.38Z"/><path class="c" d="m143.18,43.74c1.34,0,2.46-.06,3.57,0,1.39.09,2.25-.44,2.47-1.86.12-.7.27-1.5,1.38-1.12v7.59c-.75.26-1.12.11-1.34-.8-.52-2.04-.8-2.17-2.92-2.18h-3.2v5.46c-.1,5.25.27,4.58,4.56,4.6h1.54c2.63,0,3.92-.9,4.88-3.37q.39-1.01,1.6-.8c-.29,1.72-.54,3.46-.91,5.17-.17.38-.52.65-.93.71-5.83.05-11.67.05-17.5,0-.3,0-.58-.38-.87-.58.27-.29.5-.8.8-.8,2.57-.52,2.78-.75,2.78-3.4v-15q0-2.53-2.47-2.86l-1.05-.16-.07-1.29h18.75l.8,6.14c-.71.43-1.22.42-1.5-.47-.88-3-2.93-4.16-5.94-3.91-1.02.08-2.06,0-3.08.05-.8,0-1.35.37-1.35,1.26,0,2.49,0,4.96,0,7.61Z"/><path class="c" d="m111.88,34.39v-1.22c.18-.06.36-.09.54-.11h11.9c.33,0,.65.02.98.06,4.22.58,6.4,2.78,6.4,6.4,0,4.25-2.71,7.34-6.9,7.78-1.74.18-3.51,0-5.39,0,0,2.15-.09,4.5,0,6.8.08,1.55,1.54,1.41,2.58,1.6.89.14,1.3.43.96,1.5h-11.02c-.33-.86-.17-1.3.89-1.46,2.4-.34,2.55-.57,2.55-2.92v-15.29c0-2.66-.05-2.71-2.66-3l-.84-.14Zm7.5,6.11v4.05c0,.38.3,1,.55,1.06,3.84.86,7.02.41,7.5-4.39.02-.47.02-.93,0-1.4,0-4.06-1.88-5.9-6.58-5.2-.87.06-1.53.79-1.5,1.66v.15c.07,1.38.06,2.75.06,4.07h-.03Z"/><path class="c" d="m63.6,57.31h-11.08c-.33-.94-.19-1.46.97-1.6,2.18-.2,2.56-.66,2.56-2.81v-15.54q0-2.4-2.4-2.81c-.33-.05-.75-.16-1.13-.16-.05-.18-.09-.37-.11-.56,0-.25.02-.5.05-.75h11.2c.37,1.02,0,1.37-.96,1.5-2.52.35-2.52.39-2.52,3v15.4c0,2.11.36,2.51,2.4,2.76q1.26.18,1.02,1.58Z"/><path class="c" d="m107.44,57.23h-10.99c-.32-.88-.18-1.33.8-1.45,2.34-.27,2.69-.7,2.69-3v-15.3c0-2.46-.06-2.53-2.51-2.9l-1.04-.19-.11-1.28h11.25v1.28q-3.54.8-3.54,4.39v14.14c0,2.25.3,2.57,2.63,2.89q.99.1.83,1.42Z"/><path class="c" d="m190.61,34.39v-1.26h11.16l.09,1.23c-.53.1-.97.2-1.42.27-1.98.3-2.19.53-2.19,2.5v15.7c0,2.33.28,2.68,2.58,2.93.97.1,1.22.5.89,1.44h-11.02c-.36-1,0-1.35.98-1.44,2.14-.2,2.54-.7,2.54-2.85v-15.42c0-2.5,0-2.52-2.5-2.9l-1.1-.21Z"/></g></svg>