<svg version="1.0" width="32" height="32" xmlns="http://www.w3.org/2000/svg" xmlns:svg="http://www.w3.org/2000/svg">
  <path style="font-style:normal;font-weight:normal;font-size:178.225px;font-family:'Times New Roman';fill:#000000;fill-opacity:1;stroke:none;stroke-width:0.262381px;stroke-linecap:butt;stroke-linejoin:miter;stroke-opacity:1" d="m 0,5.4804688 v 0.5625 c 0.6374325,0.05058 1.1442645,0.162902 1.5195312,0.3398437 0.37526,0.1769809 0.6902333,0.4228725 0.9472657,0.7363281 0.1644952,0.2022602 0.7103576,0.7578992 1.1113281,1.6679688 L 12.1875,26.519531 h 0.570312 l 4.101563,-8.371093 3.753906,8.371093 h 0.570313 L 28.710938,9.015625 C 29.132448,7.9943223 29.773433,7.2357453 30.318359,6.7402344 30.698741,6.4065553 31.259733,6.1744457 32,6.0429688 v -0.5625 h -6.447266 v 0.5625 c 0.123361,0.020245 0.212251,0.034831 0.263672,0.044922 0.709387,0.1112528 1.213544,0.3004086 1.511719,0.5683594 0.298133,0.2679894 0.44725,0.5485653 0.447266,0.8417969 -1.6e-5,0.4550619 -0.401567,1.2684211 -0.884766,2.4414062 L 21.722656,21.847656 18.443359,14.914062 21.333984,9.015625 C 21.755494,7.9943223 22.398434,7.2357453 22.943359,6.7402344 23.323741,6.4065553 23.884732,6.1744457 24.625,6.0429688 v -0.5625 h -6.28125 v 0.5625 c 0.123361,0.020245 0.210297,0.034831 0.261719,0.044922 0.709386,0.1112528 1.047529,0.3004086 1.345703,0.5683594 0.298135,0.2679894 0.44725,0.5485653 0.447266,0.8417969 -1.6e-5,0.4550619 -0.401567,1.2684211 -0.884766,2.4414062 L 17.71875,13.378906 16.021484,9.7890625 C 15.548542,8.7171986 15.312494,7.9274974 15.3125,7.421875 c -6e-6,-0.3640162 0.143759,-0.6619339 0.431641,-0.8945312 0.287865,-0.2325583 0.7484,-0.3933461 1.714843,-0.484375 v -0.5625 H 9.2480469 v 0.5625 c 0.6374327,0.05058 0.9762951,0.162902 1.3515621,0.3398437 0.37526,0.1769809 0.692186,0.4228725 0.949219,0.7363281 0.164495,0.2022602 0.710357,0.7578992 1.111328,1.6679688 L 16.105469,16.46875 13.298828,21.847656 6.9394531,9.7890625 C 6.4665109,8.7171986 6.230462,7.9274974 6.2304688,7.421875 6.2304619,7.0578588 6.3742281,6.759941 6.6621094,6.5273438 6.9499741,6.2947855 7.41051,6.1339974 8.3769531,6.0429688 v -0.5625 z" />
</svg>
