<?xml version="1.0" encoding="UTF-8" standalone="no"?>
<svg viewBox="60 60 32 32" version="1.1" id="svg2" sodipodi:docname="www.wildberries.ru.svg" inkscape:export-filename="www.wildberries.ru.svg" inkscape:export-xdpi="96" inkscape:export-ydpi="96" inkscape:version="1.4-beta2 (9aaf4f34, 2024-07-30)" xmlns:inkscape="http://www.inkscape.org/namespaces/inkscape" xmlns:sodipodi="http://sodipodi.sourceforge.net/DTD/sodipodi-0.dtd" xmlns="http://www.w3.org/2000/svg" xmlns:svg="http://www.w3.org/2000/svg">
  <defs id="defs2" />
  <sodipodi:namedview id="namedview2" pagecolor="#ffffff" bordercolor="#000000" borderopacity="0.25" inkscape:showpageshadow="2" inkscape:pageopacity="0.0" inkscape:pagecheckerboard="0" inkscape:deskcolor="#d1d1d1" inkscape:zoom="4.2232213" inkscape:cx="22.494677" inkscape:cy="27.112006" inkscape:window-width="1440" inkscape:window-height="790" inkscape:window-x="0" inkscape:window-y="0" inkscape:window-maximized="1" inkscape:current-layer="svg2" />
  <g id="g6" style="fill:#000000">
    <path d="m 83.832031,74.496094 c -1.643416,0 -2.873047,1.230026 -2.873047,2.849609 a 2.8513332,2.8513332 0 0 0 2.859375,2.861328 2.8513332,2.8513332 0 0 1 0.002,0 c 1.576861,-0.0032 2.884766,-1.294616 2.884766,-2.861328 0,-1.567583 -1.230714,-2.849609 -2.873047,-2.849609 z" style="fill:#000000" id="path6" />
    <path d="m 75.023437,60 c -5.259,0 -7.888484,4.38e-4 -9.896484,1.023437 a 9.388,9.388 0 0 0 -4.103516,4.103516 C 60.000437,67.134953 60,69.764437 60,75.023437 v 1.953125 c 0,5.259 4.37e-4,7.888485 1.023437,9.896485 a 9.388,9.388 0 0 0 4.103516,4.103515 C 67.134953,91.999562 69.764437,92 75.023437,92 h 1.953125 c 5.259,0 7.888485,-4.37e-4 9.896485,-1.023438 a 9.388,9.388 0 0 0 4.103515,-4.103515 C 91.999562,84.865047 92,82.235562 92,76.976562 v -1.953125 c 0,-5.259 -4.37e-4,-7.888484 -1.023438,-9.896484 A 9.388,9.388 0 0 0 86.873047,61.023437 C 84.865047,60.000437 82.235562,60 76.976562,60 Z m 3.640625,8 h 2.294922 v 5.076172 a 5.0916665,5.0916665 0 0 1 2.873047,-0.88086 c 2.873,0 5.167969,2.249208 5.167969,5.140625 a 5.1642498,5.1642498 0 0 1 -5.179688,5.166016 c -2.838334,0 -5.15625,-2.289506 -5.15625,-5.138672 z M 63,72.554687 h 2.494141 l 2.111328,5.466797 2.113281,-5.466797 h 1.609375 l 2.099609,5.466797 2.111328,-5.466797 h 2.490235 l -3.679688,9.609375 h -1.609375 l -2.226562,-5.722656 -2.214844,5.722656 h -1.607422 z" id="path3" style="fill:#000000" />
  </g>
</svg>
