<svg id="Camada_1" data-name="Camada 1" xmlns="http://www.w3.org/2000/svg" viewBox="0 0 300 120"><defs><style>.cls-1{fill:#fff;}</style></defs><title>wolframalpha</title><path class="cls-1" d="M8.8,50.34l-.73-8.73,8.11,3.3,4.53-7.6L24.9,45l8.28-3.19-.59,8.88,8.14,1.5L35.1,59l5.75,7.18-8.32,1.09v9l-7.79-4-4.5,7.91-4.49-8.2L7.27,76.8,8.65,66.69,0,65.22l6.4-6.48L.6,52.3ZM32.06,62.41c-1.3-1.62-2.54-3-3.58-4.53a5.44,5.44,0,0,1-.91-2.63c-.13-2.2,0-4.41,0-6.74-2.13.84-4.17,1.7-6.26,2.43a3.31,3.31,0,0,1-2,0c-2-.7-3.93-1.53-6.06-2.38.1,1.95.1,3.7.29,5.44a4.54,4.54,0,0,1-1.26,3.79C11,59.06,10.06,60.5,8.89,62c2.2.75,4.22,1.37,6.19,2.13a4.21,4.21,0,0,1,1.76,1.36c1.25,1.69,2.37,3.47,3.66,5.38,1.26-1.93,2.33-3.69,3.54-5.36a3.81,3.81,0,0,1,1.76-1.31C27.8,63.53,29.84,63,32.06,62.41Z"/><path class="cls-1" d="M233.7,39.3c0,4.33,0,8.58,0,12.83,0,4.93,0,9.86,0,14.79,0,2.6.1,2.68,2.57,3.41.29.09.48.5.71.77a3.34,3.34,0,0,1-1.12.47c-5.09,0-10.17,0-15.26,0H215.8l-.31-.44c.36-.33.66-.83,1.08-1,2-.63,2.2-.83,1.54-2.83-.59-1.77-1.27-3.51-1.84-5.28a1.36,1.36,0,0,0-1.54-1.14c-2.44.07-4.88.06-7.32,0-.85,0-1.32.2-1.57,1.08-.49,1.69-1.14,3.33-1.66,5-.68,2.19-.41,2.64,1.82,3.1.75.16,1.5.23,1,1.37H189.16l-.27-.4c.36-.28.68-.75,1.08-.81a2.2,2.2,0,0,0,2-2.48c0-3.22.08-6.44,0-9.65-.12-3.64-2.7-5.17-6-3.71-1.64.72-2.77,1.52-2.53,3.77a82.68,82.68,0,0,1,.08,9.34c0,1.48.39,2.52,2.06,2.76.34,0,.61.56.91.86l-.28.34h-9.61l-.31-.32c.32-.31.62-.84,1-.88a2.2,2.2,0,0,0,2.2-2.49c0-3.17.07-6.33,0-9.5-.07-2.48-1-3.83-2.66-4.29A6.43,6.43,0,0,0,171.13,56a2.13,2.13,0,0,0-.26,1.16q0,5.14,0,10.28c0,1.36.17,2.62,1.91,2.9.27,0,.47.58,1,1.25-3.5,0-6.54,0-9.58,0-.21,0-.63-.38-.6-.47a1.19,1.19,0,0,1,.55-.74c2.69-1,2.7-.95,2.7-3.73,0-3.27,0-6.54,0-9.81,0-1.43-.23-2.59-2-2.8a.94.94,0,0,1-.64-.66c0-.23.37-.6.64-.67,1.94-.55,3.89-1,6-1.58v3.49c.91-.64,1.61-1.14,2.32-1.63,4.38-3,6.84-2.56,9.95,1.71,1.2-.81,2.38-1.65,3.61-2.41,4.47-2.78,9-.46,9.3,4.8.18,3.63.05,7.27.07,10.9,0,.88-.12,1.8,1,2.2a2.1,2.1,0,0,0,2.65-.69,27.25,27.25,0,0,0,2.85-4.77c3-7.23,5.83-14.52,8.67-21.8a2,2,0,0,1,2.13-1.53c1.69,4.68,3.39,9.4,5.11,14.11,1.42,3.89,2.89,7.77,4.3,11.66a4.3,4.3,0,0,0,4,3.13c1.93.14,2.89-.62,2.9-2.54,0-7.79,0-15.57,0-23.36a2.08,2.08,0,0,0-2-2.41c-.38,0-.71-.39-1.07-.59a4.31,4.31,0,0,1,1.13-.71C229.67,40.17,231.63,39.76,233.7,39.3Zm-22.51,8.14L207,58.87h8.12Z"/><path class="cls-1" d="M44.67,42H56c.44.95,0,1.23-.89,1.42-2.16.47-2.37.78-1.76,2.85,1.77,6,3.58,12.06,5.51,18.55,1.26-3.83,2.37-7.2,3.46-10.57,1.15-3.55,2.27-7.11,3.48-10.63.17-.51.78-.87,1.18-1.3.37.41.92.76,1.1,1.24,2.36,6.53,4.67,13.07,7,19.61.15.43.32.86.6,1.61.57-1.81,1.08-3.31,1.51-4.84,1.24-4.5,2.48-9,3.65-13.51.54-2.07.16-2.55-2-3-1.21-.25-1.21-.25-1.14-1.45H88.24c-.56.66-.83,1.29-1.17,1.34-2.27.29-3.27,1.79-3.88,3.74q-3.7,11.79-7.43,23.57c-.16.51-.36,1.23-.75,1.4-1,.43-1.41-.19-1.74-1.12-2.34-6.7-4.73-13.38-7.11-20.07-.1-.27-.21-.53-.44-1.09L59.56,68.44a19.75,19.75,0,0,1-.91,2.64,1.91,1.91,0,0,1-1.21,1c-.29,0-.87-.59-1-1C54.24,64,52.1,57,49.93,50q-.53-1.71-1.08-3.41a4.12,4.12,0,0,0-3.4-3.22c-.39-.06-.71-.61-1.06-.94Z"/><path class="cls-1" d="M243.77,71.49c0,2.61,0,5.08,0,7.55,0,1.53,1.22,1.83,2.46,2.1.47.1.86.56,1.29.85a4.33,4.33,0,0,1-1.46.65q-4.12.1-8.25,0c-.48,0-.95-.45-1.42-.69.39-.29.74-.76,1.17-.83a2.26,2.26,0,0,0,2.09-2.58q0-11.13,0-22.25a2.11,2.11,0,0,0-2-2.45c-.34-.05-.63-.47-.94-.72.29-.23.55-.56.88-.66,2-.6,4-1.14,6.05-1.72v3.43a24.49,24.49,0,0,0,2.79-1.64c4.78-3.77,11,.38,11.6,5.72a11.42,11.42,0,0,1-5.48,11.54C250,71.5,247.18,73,243.77,71.49Zm10.39-9.24a35.78,35.78,0,0,0-.75-3.94c-1.32-4.18-5.27-5.56-8.88-3.1a2.1,2.1,0,0,0-.79,1.47q-.1,5.29,0,10.58a2.21,2.21,0,0,0,.77,1.52,5.26,5.26,0,0,0,8-1.61A27.82,27.82,0,0,0,254.16,62.25Z"/><path class="cls-1" d="M268.11,71.53h-9.6l-.27-.38c.35-.29.68-.78,1.06-.82,1.63-.19,2.19-1.11,2.19-2.64q0-11.67,0-23.35a2,2,0,0,0-2-2.39c-.35,0-.66-.44-1-.67a3.28,3.28,0,0,1,.92-.61c2-.48,3.93-.9,6-1.36v15a8.34,8.34,0,0,1,1.38-1.06c1.73-.75,3.44-1.89,5.24-2.07,3.57-.36,6,2.32,6.21,6.45.15,3.16.08,6.33.06,9.49,0,1.7.19,3.16,2.36,3.28.21,0,.39.47.59.72-.26.17-.52.5-.78.5a74,74,0,0,1-9.18-.33c.32-.32.6-.86,1-.92,1.57-.25,2-1.2,2-2.63,0-3,0-6,0-9,0-1.83-.41-3.6-2.27-4.45a5,5,0,0,0-5.4.83,3,3,0,0,0-1,2c-.1,3.47,0,7-.05,10.43,0,1.52.35,2.65,2.13,2.85.31,0,.57.56.85.86Z"/><path class="cls-1" d="M103,61.66c-.25,6.36-4.58,10.7-10.49,10.5s-9.87-4.77-9.65-10.75S87.78,50.88,93.34,51A10,10,0,0,1,103,61.66ZM98.67,62a59.61,59.61,0,0,0-1.74-6.4,4.47,4.47,0,0,0-4.63-3c-2.19.13-3.42,1.65-4,3.57A15,15,0,0,0,89,67.37,6.5,6.5,0,0,0,90.11,69c2.41,2.61,6.15,2,7.38-1.31A39.44,39.44,0,0,0,98.67,62Z"/><path class="cls-1" d="M299.73,68.77c.55,1.19.55,1.19-2.87,3-1.55.82-2.74.16-4.16-2.36-1,.61-1.89,1.26-2.87,1.84A5,5,0,0,1,282.42,69c-1.43-3-.32-5.58,2.92-6.82,2-.76,3.95-1.56,5.94-2.29a1.75,1.75,0,0,0,1.34-2.23,13.25,13.25,0,0,0-.76-2.81,3,3,0,0,0-2.93-1.67,2.74,2.74,0,0,0-2.55,1.95c-.3.71-.45,1.49-.78,2.19-.52,1.09-1.43,1.13-2.35.57s-1.58-1.28-.89-2.42c1.14-1.89,7.36-4.64,9.5-4.23,2.51.48,4.2,2,4.48,4.5.29,2.72.2,5.48.27,8.22,0,.73,0,1.45,0,2.18C296.66,68.76,297.19,69.21,299.73,68.77Zm-7.08-8.14c-1.88,1-3.53,1.69-5.07,2.6a2.89,2.89,0,0,0-1.35,3.22,3.18,3.18,0,0,0,2.43,2.72c1.76.48,4-.79,4-2.29C292.67,64.93,292.65,63,292.65,60.64Z"/><path class="cls-1" d="M163.46,68.63C163.32,71,161.19,71,160,71.81s-2.65,0-3.94-2.4c-1,.63-1.95,1.28-2.95,1.87a5,5,0,0,1-7.36-2.39c-1.38-2.93-.29-5.49,2.84-6.71,2-.79,4-1.62,6.09-2.35a1.8,1.8,0,0,0,1.3-2.41,10,10,0,0,0-.89-2.78,2.94,2.94,0,0,0-5.33.34c-.33.7-.5,1.47-.79,2.19-.47,1.13-1.32,1.21-2.3.72-1.14-.56-1.67-1.8-.91-2.52,2.48-2.38,5.42-4.17,8.91-4.22,3,0,5,2.27,5.17,5.37.14,2.74.06,5.5.08,8.25,0,.52,0,1,0,1.56C160.07,68.73,160.75,69.25,163.46,68.63Zm-7.39-8c-1.9,1-3.54,1.71-5.1,2.61a3,3,0,0,0-1.32,3.51,3.12,3.12,0,0,0,2.49,2.48c1.57.37,3.88-.85,3.91-2.1C156.1,65.06,156.07,63,156.07,60.62Z"/><path class="cls-1" d="M122.89,51.65h5.51c.23,1.31-.15,1.9-1.44,1.84s-2.47,0-3.89,0c0,2.46,0,4.77,0,7.09s0,4.46,0,6.7.41,2.65,2.63,3.05A4.83,4.83,0,0,1,127,71l-.22.47H116l-.25-.43c.38-.27.72-.7,1.14-.78,1.13-.22,2.06-.64,2.07-1.92,0-4.92,0-9.83,0-14.92h-3.28c.54-1.82,1.83-1.95,3.28-1.92,0-.57.07-1.08.09-1.58a11.54,11.54,0,0,1,8.36-10.64,4.35,4.35,0,0,1,4.27,1.18c.92.8.7,1.74,0,2.62s-1.43.68-2.22,0A6.16,6.16,0,0,0,127.58,42c-2.07-.8-3.74,0-4.09,2.17C123.11,46.54,123.09,49,122.89,51.65Z"/><path class="cls-1" d="M103.76,71.1c.37-.28.72-.74,1.12-.79a2.38,2.38,0,0,0,2.31-2.74q0-11.51,0-23c0-1.52-.55-2.48-2.19-2.61-.32,0-.6-.37-.91-.57.27-.23.5-.6.81-.67,2-.48,4-.9,6.28-1.39,0,.58,0,1.12,0,1.65q0,13,0,26c0,2.64.07,2.67,2.55,3.41.34.1.57.57,1.12,1.17H104Z"/><path class="cls-1" d="M136.18,51.16v4.71a18.4,18.4,0,0,1,2-2.52,12.13,12.13,0,0,1,3.12-2.18,2.51,2.51,0,0,1,3.07,1.48,2.29,2.29,0,0,1-1,2.95,1.84,1.84,0,0,1-1.54.14c-2.77-1.32-5.37,0-5.5,3.12s0,6.12,0,9.18c0,1.73,1.2,2.07,2.59,2.27.45.07.84.48,1.26.74l-.24.46H129.19l-.26-.39c.36-.28.69-.76,1.08-.81,1.62-.21,2.18-1.14,2.17-2.67q0-5.52,0-11c0-1.41-.35-2.44-2-2.64-.29,0-.53-.48-.79-.73.27-.2.5-.5.8-.58C132.17,52.14,134.13,51.67,136.18,51.16Z"/><path class="cls-1" d="M16,56.86V55.41h8.53v1.45Z"/><path class="cls-1" d="M24.55,59.7v1.45H16V59.7Z"/></svg>