<?xml version="1.0" encoding="UTF-8" standalone="no"?>
<!DOCTYPE svg PUBLIC "-//W3C//DTD SVG 1.1//EN" "http://www.w3.org/Graphics/SVG/1.1/DTD/svg11.dtd">
<!-- Created with Vectornator (http://vectornator.io/) -->
<svg height="100%" stroke-miterlimit="10" style="fill-rule:nonzero;clip-rule:evenodd;stroke-linecap:round;stroke-linejoin:round;" version="1.1" viewBox="0 0 280 80" width="100%" xml:space="preserve" xmlns="http://www.w3.org/2000/svg" xmlns:xlink="http://www.w3.org/1999/xlink">
<defs/>
<path d="M0 0L280 0L280 80L0 80L0 0Z" fill="#000000" fill-opacity="0" fill-rule="nonzero" opacity="1" stroke="none"/>
<g id="Sem-Título">
<g opacity="1">
<g opacity="1">
<path d="M8.21334 30.984L7.53201 22.836L15.1013 25.916L19.3293 18.8227L23.24 26L30.968 23.0227L30.4174 31.3107L38.0147 32.7107L32.76 39.0667L38.1267 45.768L30.3614 46.7853L30.3614 55.1853L23.0907 51.452L18.8907 58.8347L14.7 51.1813L6.78534 55.68L8.07334 46.244L0 44.872L5.97334 38.824L0.56 32.8133L8.21334 30.984ZM29.9227 42.2493C28.7094 40.7373 27.552 39.4493 26.5814 38.0213C26.0902 37.2906 25.7975 36.4447 25.732 35.5667C25.6107 33.5133 25.732 31.4507 25.732 29.276C23.744 30.06 21.84 30.8627 19.8893 31.544C19.282 31.7365 18.63 31.7365 18.0227 31.544C16.156 30.8907 14.3547 30.116 12.3667 29.3227C12.46 31.1427 12.46 32.776 12.6373 34.4C12.8129 35.6975 12.3788 37.0032 11.4613 37.9373C10.2667 39.1227 9.38934 40.4667 8.29734 41.8667C10.3507 42.5667 12.236 43.1453 14.0747 43.8547C14.7261 44.1229 15.2935 44.5613 15.7173 45.124C16.884 46.7013 17.9293 48.3627 19.1333 50.1453C20.3093 48.344 21.308 46.7013 22.4373 45.1427C22.8532 44.5829 23.4244 44.1577 24.08 43.92C25.9467 43.2947 27.8507 42.8 29.9227 42.2493Z" fill="#000000" fill-rule="nonzero" opacity="1" stroke="none"/>
<path d="M218.12 20.68C218.12 24.7213 218.12 28.688 218.12 32.6547C218.12 37.256 218.12 41.8573 218.12 46.4587C218.12 48.8853 218.213 48.96 220.519 49.6413C220.789 49.7253 220.967 50.108 221.181 50.36C220.863 50.5689 220.508 50.7176 220.136 50.7987C215.385 50.7987 210.644 50.7987 205.893 50.7987L201.413 50.7987L201.124 50.388C201.46 50.08 201.74 49.6133 202.132 49.4547C203.999 48.8667 204.185 48.68 203.569 46.8133C203.019 45.1613 202.384 43.5373 201.852 41.8853C201.747 41.1961 201.105 40.721 200.415 40.8213C198.137 40.8867 195.86 40.8773 193.583 40.8213C192.789 40.8213 192.351 41.008 192.117 41.8293C191.66 43.4067 191.053 44.9373 190.568 46.496C189.933 48.54 190.185 48.96 192.267 49.3893C192.967 49.5387 193.667 49.604 193.2 50.668L176.549 50.668L176.297 50.2947C176.633 50.0333 176.932 49.5947 177.305 49.5387C177.865 49.4924 178.382 49.2187 178.735 48.7813C179.087 48.3439 179.246 47.7811 179.172 47.224C179.172 44.2187 179.247 41.2133 179.172 38.2173C179.06 34.82 176.652 33.392 173.572 34.7547C172.041 35.4267 170.987 36.1733 171.211 38.2733C171.4 41.1754 171.425 44.0858 171.285 46.9907C171.285 48.372 171.649 49.3427 173.208 49.5667C173.525 49.5667 173.777 50.0893 174.057 50.3693L173.796 50.6867L164.827 50.6867L164.537 50.388C164.836 50.0987 165.116 49.604 165.471 49.5667C166.066 49.5719 166.634 49.3188 167.027 48.873C167.421 48.4271 167.603 47.8324 167.524 47.2427C167.524 44.284 167.589 41.3347 167.524 38.376C167.459 36.0613 166.591 34.8013 165.041 34.372C163.063 34.0776 161.068 34.7881 159.721 36.2667C159.539 36.5972 159.455 36.9727 159.479 37.3493C159.479 40.5476 159.479 43.7458 159.479 46.944C159.479 48.2133 159.637 49.3893 161.261 49.6507C161.513 49.6507 161.7 50.192 162.195 50.8173C158.928 50.8173 156.091 50.8173 153.253 50.8173C153.057 50.8173 152.665 50.4627 152.693 50.3787C152.765 50.0888 152.95 49.8399 153.207 49.688C155.717 48.7547 155.727 48.8013 155.727 46.2067C155.727 43.1547 155.727 40.1027 155.727 37.0507C155.727 35.716 155.512 34.6333 153.86 34.4373C153.567 34.35 153.341 34.1167 153.263 33.8213C153.263 33.6067 153.608 33.2613 153.86 33.196C155.671 32.6827 157.491 32.2627 159.46 31.7213L159.46 34.9787C160.309 34.3813 160.963 33.9147 161.625 33.4573C165.713 30.6573 168.009 31.068 170.912 35.0533C172.032 34.2973 173.133 33.5133 174.281 32.804C178.453 30.2093 182.681 32.3747 182.961 37.284C183.129 40.672 183.008 44.0693 183.027 47.4573C183.027 48.2787 182.915 49.1373 183.96 49.5107C184.83 49.937 185.882 49.6633 186.433 48.8667C187.47 47.4772 188.361 45.9854 189.093 44.4147C191.893 37.6667 194.535 30.8627 197.185 24.068C197.4 23.1633 198.248 22.5545 199.173 22.64C200.751 27.008 202.337 31.4133 203.943 35.8093C205.268 39.44 206.64 43.0613 207.956 46.692C208.431 48.3752 209.941 49.557 211.689 49.6133C213.491 49.744 214.387 49.0347 214.396 47.2427C214.396 39.972 214.396 32.7107 214.396 25.44C214.485 24.8871 214.331 24.3226 213.973 23.8916C213.616 23.4606 213.089 23.2051 212.529 23.1907C212.175 23.1907 211.867 22.8267 211.531 22.64C211.846 22.3657 212.202 22.1421 212.585 21.9773C214.359 21.492 216.188 21.1093 218.12 20.68ZM197.111 28.2773L193.2 38.9453L200.779 38.9453L197.111 28.2773Z" fill="#000000" fill-rule="nonzero" opacity="1" stroke="none"/>
<path d="M41.692 23.2L52.2667 23.2C52.6774 24.0867 52.2667 24.348 51.436 24.5253C49.42 24.964 49.224 25.2533 49.7934 27.1853C51.4454 32.7853 53.1347 38.4413 54.936 44.4987C56.112 40.924 57.148 37.7787 58.1654 34.6333C59.2387 31.32 60.284 27.9973 61.4134 24.712C61.572 24.236 62.1414 23.9 62.5147 23.4987C62.86 23.8813 63.3734 24.208 63.5414 24.656C65.744 30.7507 67.9 36.8547 70.0747 42.9587C70.2147 43.36 70.3734 43.7613 70.6347 44.4613C71.1667 42.772 71.6427 41.372 72.044 39.944C73.2014 35.744 74.3587 31.544 75.4507 27.3347C75.9547 25.4027 75.6001 24.9547 73.584 24.5347C72.4547 24.3013 72.4547 24.3013 72.52 23.1813L82.3574 23.1813C81.8347 23.7973 81.5827 24.3853 81.2654 24.432C79.1467 24.7027 78.2134 26.1027 77.6441 27.9227C75.3418 35.2587 73.0303 42.5916 70.7094 49.9213C70.56 50.3973 70.3734 51.0693 70.0094 51.228C69.076 51.6293 68.6934 51.0507 68.3854 50.1827C66.2014 43.9293 63.9707 37.6947 61.7494 31.4507C61.656 31.1987 61.5534 30.956 61.3387 30.4333L55.5894 47.8773C55.3648 48.7177 55.0809 49.5411 54.74 50.3413C54.5147 50.7999 54.1035 51.1398 53.6107 51.2747C53.34 51.2747 52.7987 50.724 52.6774 50.3413C50.624 43.7333 48.6267 37.2 46.6014 30.6667C46.2716 29.6027 45.9356 28.5418 45.5934 27.484C45.263 25.92 43.9996 24.7235 42.42 24.4787C42.056 24.4227 41.7574 23.9093 41.4307 23.6013L41.692 23.2Z" fill="#000000" fill-rule="nonzero" opacity="1" stroke="none"/>
<path d="M227.519 50.724C227.519 53.16 227.519 55.4653 227.519 57.7707C227.519 59.1987 228.657 59.4787 229.815 59.7307C230.253 59.824 230.617 60.2533 231.019 60.524C230.606 60.809 230.144 61.0147 229.656 61.1307C227.093 61.1929 224.526 61.1929 221.956 61.1307C221.508 61.1307 221.069 60.7107 220.631 60.4867C220.995 60.216 221.321 59.7773 221.723 59.712C222.31 59.6738 222.855 59.3921 223.225 58.9348C223.595 58.4776 223.758 57.8864 223.673 57.304C223.673 50.3787 223.673 43.4564 223.673 36.5373C223.765 35.9802 223.613 35.4105 223.256 34.9731C222.899 34.5358 222.371 34.2727 221.807 34.2507C221.489 34.204 221.219 33.812 220.929 33.5787C221.2 33.364 221.443 33.056 221.751 32.9627C223.617 32.4027 225.484 31.8987 227.397 31.3573L227.397 34.5587C228.298 34.1064 229.168 33.5951 230.001 33.028C234.463 29.5093 240.268 33.3827 240.828 38.3667C241.479 42.6639 239.455 46.9257 235.713 49.1373C233.333 50.7333 230.701 52.1333 227.519 50.724ZM237.216 42.1C237.052 40.8621 236.818 39.6344 236.516 38.4227C235.284 34.5213 231.597 33.2333 228.228 35.5293C227.803 35.8652 227.537 36.3618 227.491 36.9013C227.429 40.1929 227.429 43.4844 227.491 46.776C227.531 47.3259 227.79 47.8368 228.209 48.1947C229.35 49.1341 230.852 49.5102 232.3 49.2188C233.748 48.9274 234.988 47.9993 235.676 46.692C236.331 45.2127 236.847 43.6753 237.216 42.1Z" fill="#000000" fill-rule="nonzero" opacity="1" stroke="none"/>
<path d="M250.236 50.7613L241.276 50.7613L241.024 50.4067C241.351 50.136 241.659 49.6787 242.013 49.6413C243.535 49.464 244.057 48.6053 244.057 47.1773C244.057 39.916 244.057 32.6516 244.057 25.384C244.168 24.8297 244.021 24.2552 243.658 23.8217C243.296 23.3882 242.756 23.1425 242.191 23.1533C241.864 23.1533 241.575 22.7427 241.257 22.528C241.51 22.2911 241.8 22.0986 242.116 21.9587C243.983 21.5107 245.784 21.1187 247.716 20.6893L247.716 34.6893C248.11 34.3155 248.542 33.984 249.004 33.7C250.619 33 252.215 31.936 253.895 31.768C257.227 31.432 259.495 33.9333 259.691 37.788C259.831 40.7373 259.766 43.696 259.747 46.6453C259.747 48.232 259.924 49.5947 261.95 49.7067C262.146 49.7067 262.314 50.1453 262.5 50.3787C262.258 50.5373 262.015 50.8453 261.772 50.8453C258.913 50.9202 256.051 50.8173 253.204 50.5373C253.503 50.2387 253.764 49.7347 254.138 49.6787C255.603 49.4453 256.004 48.5587 256.004 47.224C256.004 44.424 256.004 41.624 256.004 38.824C256.004 37.116 255.622 35.464 253.886 34.6707C252.2 33.9071 250.223 34.2109 248.846 35.4453C248.305 35.924 247.971 36.5928 247.912 37.312C247.819 40.5507 247.912 43.8453 247.866 47.0467C247.866 48.4653 248.192 49.52 249.854 49.7067C250.143 49.7067 250.386 50.2293 250.647 50.5093L250.236 50.7613Z" fill="#000000" fill-rule="nonzero" opacity="1" stroke="none"/>
<path d="M96.1334 41.5493C95.9001 47.4853 91.8587 51.536 86.3427 51.3493C80.8267 51.1627 77.1307 46.8973 77.3361 41.316C77.5414 35.7347 81.9281 31.488 87.1174 31.6C89.6477 31.6805 92.0368 32.7854 93.7368 34.6613C95.4368 36.5373 96.3018 39.0233 96.1334 41.5493ZM92.0921 41.8667C91.662 39.847 91.1198 37.8528 90.4681 35.8933C89.8441 34.0764 88.06 32.9204 86.1467 33.0933C84.1027 33.2147 82.9547 34.6333 82.4134 36.4253C81.2705 39.8631 81.5047 43.61 83.0667 46.8787C83.3327 47.4355 83.682 47.9485 84.1027 48.4C86.3521 50.836 89.8427 50.2667 90.9907 47.1773C91.4879 45.4366 91.856 43.6616 92.0921 41.8667Z" fill="#000000" fill-rule="nonzero" opacity="1" stroke="none"/>
<path d="M279.748 48.1853C280.262 49.296 280.262 49.296 277.07 50.9853C275.623 51.7507 274.512 51.1347 273.187 48.7827C272.254 49.352 271.423 49.9587 270.508 50.5C269.345 51.2805 267.893 51.4972 266.552 51.0902C265.212 50.6832 264.125 49.6955 263.592 48.4C262.258 45.6 263.294 43.192 266.318 42.0347C268.184 41.3253 270.004 40.5787 271.862 39.8973C272.316 39.8091 272.712 39.5321 272.95 39.1352C273.189 38.7383 273.248 38.2588 273.112 37.816C272.973 36.9184 272.735 36.0389 272.403 35.1933C271.897 34.1621 270.813 33.5442 269.668 33.6347C268.565 33.6644 267.606 34.3981 267.288 35.4547C267.008 36.1173 266.868 36.8453 266.56 37.4987C266.075 38.516 265.226 38.5533 264.367 38.0307C263.508 37.508 262.892 36.836 263.536 35.772C264.6 34.008 270.406 31.4413 272.403 31.824C274.746 32.272 276.323 33.6907 276.584 36.024C276.855 38.5627 276.771 41.1387 276.836 43.696C276.836 44.3773 276.836 45.0493 276.836 45.7307C276.883 48.176 277.378 48.596 279.748 48.1853ZM273.14 40.588C271.386 41.5213 269.846 42.1653 268.408 43.0147C267.362 43.6209 266.847 44.8491 267.148 46.02C267.296 47.2588 268.202 48.2732 269.416 48.5587C271.059 49.0067 273.15 47.8213 273.15 46.4213C273.159 44.6013 273.14 42.8 273.14 40.5973L273.14 40.588Z" fill="#000000" fill-rule="nonzero" opacity="1" stroke="none"/>
<path d="M152.563 48.0547C152.432 50.2667 150.444 50.2667 149.333 51.0227C148.223 51.7787 146.86 51.0227 145.656 48.7827C144.723 49.3707 143.836 49.9773 142.903 50.528C141.725 51.2842 140.271 51.4721 138.94 51.0399C137.609 50.6077 136.542 49.601 136.033 48.2973C134.745 45.5627 135.763 43.1733 138.684 42.0347C140.551 41.2973 142.417 40.5227 144.368 39.8413C144.849 39.738 145.26 39.4292 145.493 38.9965C145.727 38.5637 145.759 38.0505 145.581 37.592C145.433 36.6911 145.153 35.8169 144.751 34.9973C144.242 34.0549 143.231 33.4949 142.162 33.5631C141.093 33.6313 140.161 34.3152 139.776 35.3147C139.468 35.968 139.309 36.6867 139.039 37.3587C138.6 38.4133 137.807 38.488 136.892 38.0307C135.828 37.508 135.333 36.3507 136.043 35.6787C138.357 33.4573 141.101 31.7867 144.359 31.74C147.159 31.74 149.025 33.8587 149.184 36.752C149.315 39.3093 149.24 41.8853 149.259 44.452C149.259 44.9373 149.259 45.3853 149.259 45.908C149.399 48.148 150.033 48.6333 152.563 48.0547ZM145.665 40.588C143.892 41.5213 142.361 42.184 140.905 43.024C139.779 43.6932 139.267 45.0542 139.673 46.3C139.899 47.476 140.821 48.3943 141.997 48.6147C143.463 48.96 145.619 47.8213 145.647 46.6547C145.693 44.7227 145.665 42.8 145.665 40.5787L145.665 40.588Z" fill="#000000" fill-rule="nonzero" opacity="1" stroke="none"/>
<path d="M114.697 32.2067L119.84 32.2067C120.055 33.4293 119.7 33.98 118.496 33.924C117.292 33.868 116.191 33.924 114.865 33.924C114.865 36.22 114.865 38.376 114.865 40.5413C114.865 42.7067 114.865 44.704 114.865 46.7947C114.865 48.8853 115.248 49.268 117.32 49.6413C117.754 49.787 118.163 49.9978 118.533 50.2667L118.328 50.7053L108.267 50.7053L108.033 50.304C108.388 50.052 108.705 49.6507 109.097 49.576C110.152 49.3707 111.02 48.9787 111.029 47.784C111.029 43.192 111.029 38.6093 111.029 33.8587L107.968 33.8587C108.472 32.16 109.676 32.0387 111.029 32.0667C111.029 31.5347 111.095 31.0587 111.113 30.592C111.297 25.9442 114.444 21.9395 118.916 20.6613C120.346 20.2738 121.873 20.6959 122.901 21.7627C123.76 22.5093 123.555 23.3867 122.901 24.208C122.248 25.0293 121.567 24.8427 120.829 24.208C120.309 23.7709 119.715 23.4296 119.075 23.2C117.143 22.4533 115.584 23.2 115.257 25.2253C114.903 27.4373 114.884 29.7333 114.697 32.2067Z" fill="#000000" fill-rule="nonzero" opacity="1" stroke="none"/>
<path d="M96.8427 50.36C97.1881 50.0987 97.5147 49.6693 97.8881 49.6227C98.5289 49.6112 99.1335 49.3235 99.5467 48.8335C99.9598 48.3435 100.141 47.6989 100.044 47.0653C100.044 39.9036 100.044 32.748 100.044 25.5987C100.044 24.18 99.5307 23.284 98.0001 23.1627C97.7014 23.1627 97.4401 22.8173 97.1507 22.6307C97.4027 22.416 97.6174 22.0707 97.9067 22.0053C99.7734 21.5573 101.64 21.1653 103.768 20.708C103.768 21.2493 103.768 21.7533 103.768 22.248C103.768 30.3369 103.768 38.4258 103.768 46.5147C103.768 48.9787 103.833 49.0067 106.148 49.6973C106.465 49.7907 106.68 50.2293 107.193 50.7893L97.0667 50.7893L96.8427 50.36Z" fill="#000000" fill-rule="nonzero" opacity="1" stroke="none"/>
<path d="M127.101 31.7493L127.101 36.1453C127.654 35.3083 128.278 34.5213 128.968 33.7933C129.826 32.9661 130.808 32.2794 131.88 31.7587C133.049 31.4007 134.297 32.0023 134.745 33.14C135.203 34.1606 134.796 35.3611 133.812 35.8933C133.375 36.1459 132.85 36.1937 132.375 36.024C129.789 34.792 127.363 36.024 127.241 38.936C127.12 41.848 127.241 44.648 127.241 47.504C127.241 49.1187 128.361 49.436 129.659 49.6227C130.079 49.688 130.443 50.0707 130.835 50.3133L130.611 50.7427L120.577 50.7427L120.335 50.3787C120.671 50.1173 120.979 49.6693 121.343 49.6227C122.855 49.4267 123.377 48.5587 123.368 47.1307C123.368 43.696 123.368 40.2738 123.368 36.864C123.368 35.548 123.041 34.5867 121.501 34.4C121.231 34.4 121.007 33.952 120.764 33.7187C121.016 33.532 121.231 33.252 121.511 33.1773C123.359 32.664 125.188 32.2253 127.101 31.7493Z" fill="#000000" fill-rule="nonzero" opacity="1" stroke="none"/>
</g>
<path d="M14.9334 37.0693L14.9334 35.716L22.8948 35.716L22.8948 37.0693L14.9334 37.0693Z" fill="#000000" fill-rule="nonzero" opacity="1" stroke="none"/>
<path d="M22.9134 39.72L22.9134 41.0733L14.9334 41.0733L14.9334 39.72L22.9134 39.72Z" fill="#000000" fill-rule="nonzero" opacity="1" stroke="none"/>
</g>
</g>
</svg>
