<?xml version="1.0" encoding="UTF-8"?><svg id="a" xmlns="http://www.w3.org/2000/svg" viewBox="0 0 300 80"><defs><style>.c{stroke-width:0px;}</style></defs><g id="b"><path class="c" d="m8.8,34.34l-.73-8.73,8.11,3.3,4.53-7.6,4.19,7.69,8.28-3.19-.59,8.88,8.14,1.5-5.63,6.81,5.75,7.18-8.32,1.09v9l-7.79-4-4.5,7.91-4.49-8.2-8.48,4.82,1.38-10.11-8.65-1.47,6.4-6.48-5.8-6.44,8.2-1.96Zm23.26,12.07c-1.3-1.62-2.54-3-3.58-4.53-.53-.78-.84-1.69-.91-2.63-.13-2.2,0-4.41,0-6.74-2.13.84-4.17,1.7-6.26,2.43-.65.21-1.35.21-2,0-2-.7-3.93-1.53-6.06-2.38.1,1.95.1,3.7.29,5.44.19,1.39-.28,2.79-1.26,3.79-1.28,1.27-2.22,2.71-3.39,4.21,2.2.75,4.22,1.37,6.19,2.13.7.29,1.31.76,1.76,1.36,1.25,1.69,2.37,3.47,3.66,5.38,1.26-1.93,2.33-3.69,3.54-5.36.45-.6,1.06-1.06,1.76-1.31,2-.67,4.04-1.2,6.26-1.79Z"/><path class="c" d="m233.7,23.3v27.62c0,2.6.1,2.68,2.57,3.41.29.09.48.5.71.77-.34.22-.72.38-1.12.47h-20.06l-.31-.44c.36-.33.66-.83,1.08-1,2-.63,2.2-.83,1.54-2.83-.59-1.77-1.27-3.51-1.84-5.28-.11-.74-.8-1.25-1.54-1.14-2.44.07-4.88.06-7.32,0-.85,0-1.32.2-1.57,1.08-.49,1.69-1.14,3.33-1.66,5-.68,2.19-.41,2.64,1.82,3.1.75.16,1.5.23,1,1.37h-17.84l-.27-.4c.36-.28.68-.75,1.08-.81.6-.05,1.15-.34,1.53-.81.38-.47.55-1.07.47-1.67,0-3.22.08-6.44,0-9.65-.12-3.64-2.7-5.17-6-3.71-1.64.72-2.77,1.52-2.53,3.77.2,3.11.23,6.23.08,9.34,0,1.48.39,2.52,2.06,2.76.34,0,.61.56.91.86l-.28.34h-9.61l-.31-.32c.32-.31.62-.84,1-.88.64,0,1.25-.27,1.67-.74.42-.48.62-1.11.53-1.75,0-3.17.07-6.33,0-9.5-.07-2.48-1-3.83-2.66-4.29-2.12-.32-4.26.45-5.7,2.03-.19.35-.28.76-.26,1.16v10.28c0,1.36.17,2.62,1.91,2.9.27,0,.47.58,1,1.25h-9.58c-.21,0-.63-.38-.6-.47.08-.31.28-.58.55-.74,2.69-1,2.7-.95,2.7-3.73v-9.81c0-1.43-.23-2.59-2-2.8-.31-.09-.56-.34-.64-.66,0-.23.37-.6.64-.67,1.94-.55,3.89-1,6-1.58v3.49c.91-.64,1.61-1.14,2.32-1.63,4.38-3,6.84-2.56,9.95,1.71,1.2-.81,2.38-1.65,3.61-2.41,4.47-2.78,9-.46,9.3,4.8.18,3.63.05,7.27.07,10.9,0,.88-.12,1.8,1,2.2.93.46,2.06.16,2.65-.69,1.11-1.49,2.07-3.09,2.85-4.77,3-7.23,5.83-14.52,8.67-21.8.23-.97,1.14-1.62,2.13-1.53,1.69,4.68,3.39,9.4,5.11,14.11,1.42,3.89,2.89,7.77,4.3,11.66.51,1.8,2.13,3.07,4,3.13,1.93.14,2.89-.62,2.9-2.54v-23.36c.1-.59-.07-1.2-.45-1.66-.38-.46-.95-.74-1.55-.75-.38,0-.71-.39-1.07-.59.34-.29.72-.53,1.13-.71,1.9-.52,3.86-.93,5.93-1.39Zm-22.51,8.14l-4.19,11.43h8.12l-3.93-11.43Z"/><path class="c" d="m44.67,26h11.33c.44.95,0,1.23-.89,1.42-2.16.47-2.37.78-1.76,2.85,1.77,6,3.58,12.06,5.51,18.55,1.26-3.83,2.37-7.2,3.46-10.57,1.15-3.55,2.27-7.11,3.48-10.63.17-.51.78-.87,1.18-1.3.37.41.92.76,1.1,1.24,2.36,6.53,4.67,13.07,7,19.61.15.43.32.86.6,1.61.57-1.81,1.08-3.31,1.51-4.84,1.24-4.5,2.48-9,3.65-13.51.54-2.07.16-2.55-2-3q-1.21-.25-1.14-1.45h10.54c-.56.66-.83,1.29-1.17,1.34-2.27.29-3.27,1.79-3.88,3.74-2.47,7.86-4.94,15.72-7.43,23.57-.16.51-.36,1.23-.75,1.4-1,.43-1.41-.19-1.74-1.12-2.34-6.7-4.73-13.38-7.11-20.07-.1-.27-.21-.53-.44-1.09l-6.16,18.69c-.24.9-.54,1.78-.91,2.64-.24.49-.68.86-1.21,1-.29,0-.87-.59-1-1-2.2-7.08-4.34-14.08-6.51-21.08-.35-1.14-.71-2.28-1.08-3.41-.35-1.68-1.71-2.96-3.4-3.22-.39-.06-.71-.61-1.06-.94l.28-.43Z"/><path class="c" d="m243.77,55.49v7.55c0,1.53,1.22,1.83,2.46,2.1.47.1.86.56,1.29.85-.44.31-.94.53-1.46.65-2.75.07-5.5.07-8.25,0-.48,0-.95-.45-1.42-.69.39-.29.74-.76,1.17-.83.63-.04,1.21-.34,1.61-.83.4-.49.57-1.12.48-1.75v-22.25c.1-.6-.06-1.21-.45-1.68-.38-.47-.95-.75-1.55-.77-.34-.05-.63-.47-.94-.72.29-.23.55-.56.88-.66,2-.6,4-1.14,6.05-1.72v3.43c.97-.48,1.9-1.03,2.79-1.64,4.78-3.77,11,.38,11.6,5.72.7,4.6-1.47,9.17-5.48,11.54-2.55,1.71-5.37,3.21-8.78,1.7Zm10.39-9.24c-.18-1.33-.43-2.64-.75-3.94-1.32-4.18-5.27-5.56-8.88-3.1-.46.36-.74.89-.79,1.47-.07,3.53-.07,7.05,0,10.58.04.59.32,1.14.77,1.52,1.22,1.01,2.83,1.41,4.38,1.1s2.88-1.31,3.62-2.71c.7-1.58,1.25-3.23,1.65-4.92Z"/><path class="c" d="m268.11,55.53h-9.6l-.27-.38c.35-.29.68-.78,1.06-.82,1.63-.19,2.19-1.11,2.19-2.64v-23.35c.12-.59-.04-1.21-.43-1.67-.39-.46-.97-.73-1.57-.72-.35,0-.66-.44-1-.67.27-.25.58-.46.92-.61,2-.48,3.93-.9,6-1.36v15c.42-.4.89-.76,1.38-1.06,1.73-.75,3.44-1.89,5.24-2.07,3.57-.36,6,2.32,6.21,6.45.15,3.16.08,6.33.06,9.49,0,1.7.19,3.16,2.36,3.28.21,0,.39.47.59.72-.26.17-.52.5-.78.5-3.06.08-6.13-.03-9.18-.33.32-.32.6-.86,1-.92,1.57-.25,2-1.2,2-2.63v-9c0-1.83-.41-3.6-2.27-4.45-1.81-.82-3.92-.49-5.4.83-.58.51-.94,1.23-1,2-.1,3.47,0,7-.05,10.43,0,1.52.35,2.65,2.13,2.85.31,0,.57.56.85.86l-.44.27Z"/><path class="c" d="m103,45.66c-.25,6.36-4.58,10.7-10.49,10.5-5.91-.2-9.87-4.77-9.65-10.75.22-5.98,4.92-10.53,10.48-10.41,2.71.09,5.27,1.27,7.09,3.28,1.82,2.01,2.75,4.67,2.57,7.38Zm-4.33.34c-.46-2.16-1.04-4.3-1.74-6.4-.67-1.95-2.58-3.19-4.63-3-2.19.13-3.42,1.65-4,3.57-1.22,3.68-.97,7.7.7,11.2.28.6.66,1.15,1.11,1.63,2.41,2.61,6.15,2,7.38-1.31.53-1.87.93-3.77,1.18-5.69Z"/><path class="c" d="m299.73,52.77q.55,1.19-2.87,3c-1.55.82-2.74.16-4.16-2.36-1,.61-1.89,1.26-2.87,1.84-1.25.84-2.8,1.07-4.24.63-1.44-.44-2.6-1.49-3.17-2.88-1.43-3-.32-5.58,2.92-6.82,2-.76,3.95-1.56,5.94-2.29.49-.09.91-.39,1.17-.82.26-.43.32-.94.17-1.41-.15-.96-.4-1.9-.76-2.81-.54-1.1-1.7-1.77-2.93-1.67-1.18.03-2.21.82-2.55,1.95-.3.71-.45,1.49-.78,2.19-.52,1.09-1.43,1.13-2.35.57-.92-.56-1.58-1.28-.89-2.42,1.14-1.89,7.36-4.64,9.5-4.23,2.51.48,4.2,2,4.48,4.5.29,2.72.2,5.48.27,8.22v2.18c.05,2.62.58,3.07,3.12,2.63Zm-7.08-8.14c-1.88,1-3.53,1.69-5.07,2.6-1.12.65-1.67,1.97-1.35,3.22.16,1.33,1.13,2.41,2.43,2.72,1.76.48,4-.79,4-2.29,0-1.95-.01-3.88-.01-6.24h0Z"/><path class="c" d="m163.46,52.63c-.14,2.37-2.27,2.37-3.46,3.18-1.19.81-2.65,0-3.94-2.4-1,.63-1.95,1.28-2.95,1.87-1.26.81-2.82,1.01-4.25.55-1.43-.46-2.57-1.54-3.11-2.94-1.38-2.93-.29-5.49,2.84-6.71,2-.79,4-1.62,6.09-2.35.52-.11.96-.44,1.21-.91.25-.46.29-1.01.09-1.5-.16-.97-.46-1.9-.89-2.78-.55-1.01-1.63-1.61-2.77-1.54-1.15.07-2.14.81-2.56,1.88-.33.7-.5,1.47-.79,2.19-.47,1.13-1.32,1.21-2.3.72-1.14-.56-1.67-1.8-.91-2.52,2.48-2.38,5.42-4.17,8.91-4.22,3,0,5,2.27,5.17,5.37.14,2.74.06,5.5.08,8.25v1.56c.15,2.4.83,2.92,3.54,2.3Zm-7.39-8c-1.9,1-3.54,1.71-5.1,2.61-1.21.72-1.75,2.18-1.32,3.51.24,1.26,1.23,2.24,2.49,2.48,1.57.37,3.88-.85,3.91-2.1.05-2.07.02-4.13.02-6.51h0Z"/><path class="c" d="m122.89,35.65h5.51c.23,1.31-.15,1.9-1.44,1.84-1.29-.06-2.47,0-3.89,0v13.79c0,2.24.41,2.65,2.63,3.05.46.16.9.38,1.3.67l-.22.47h-10.78l-.25-.43c.38-.27.72-.7,1.14-.78,1.13-.22,2.06-.64,2.07-1.92v-14.92h-3.28c.54-1.82,1.83-1.95,3.28-1.92,0-.57.07-1.08.09-1.58.2-4.98,3.57-9.27,8.36-10.64,1.53-.42,3.17.04,4.27,1.18.92.8.7,1.74,0,2.62-.7.88-1.43.68-2.22,0-.56-.47-1.19-.83-1.88-1.08-2.07-.8-3.74,0-4.09,2.17-.38,2.37-.4,4.83-.6,7.48Z"/><path class="c" d="m103.76,55.1c.37-.28.72-.74,1.12-.79.69-.01,1.33-.32,1.78-.85.44-.53.64-1.22.53-1.89v-23c0-1.52-.55-2.48-2.19-2.61-.32,0-.6-.37-.91-.57.27-.23.5-.6.81-.67,2-.48,4-.9,6.28-1.39v27.65c0,2.64.07,2.67,2.55,3.41.34.1.57.57,1.12,1.17h-10.85l-.24-.46Z"/><path class="c" d="m136.18,35.16v4.71c.59-.9,1.26-1.74,2-2.52.92-.89,1.97-1.62,3.12-2.18,1.25-.38,2.59.26,3.07,1.48.49,1.09.05,2.38-1,2.95-.47.27-1.03.32-1.54.14-2.77-1.32-5.37,0-5.5,3.12-.13,3.12,0,6.12,0,9.18,0,1.73,1.2,2.07,2.59,2.27.45.07.84.48,1.26.74l-.24.46h-10.75l-.26-.39c.36-.28.69-.76,1.08-.81,1.62-.21,2.18-1.14,2.17-2.67v-11c0-1.41-.35-2.44-2-2.64-.29,0-.53-.48-.79-.73.27-.2.5-.5.8-.58,1.98-.55,3.94-1.02,5.99-1.53Z"/><path class="c" d="m16,40.86v-1.45h8.53v1.45h-8.53Z"/><path class="c" d="m24.55,43.7v1.45h-8.55v-1.45h8.55Z"/></g></svg>