<?xml version="1.0" encoding="UTF-8" standalone="no"?>
<svg id="a" viewBox="0 0 32 32" version="1.1" sodipodi:docname="wolframalpha.svg" width="32" height="32" inkscape:version="1.4-beta2 (9aaf4f34, 2024-07-30)" xmlns:inkscape="http://www.inkscape.org/namespaces/inkscape" xmlns:sodipodi="http://sodipodi.sourceforge.net/DTD/sodipodi-0.dtd" xmlns="http://www.w3.org/2000/svg" xmlns:svg="http://www.w3.org/2000/svg">
  <sodipodi:namedview id="namedview13" pagecolor="#ffffff" bordercolor="#000000" borderopacity="0.25" inkscape:showpageshadow="2" inkscape:pageopacity="0.0" inkscape:pagecheckerboard="0" inkscape:deskcolor="#d1d1d1" inkscape:zoom="1.461562" inkscape:cx="82.78814" inkscape:cy="54.393861" inkscape:window-width="1440" inkscape:window-height="790" inkscape:window-x="0" inkscape:window-y="0" inkscape:window-maximized="1" inkscape:current-layer="a" />
  <defs id="defs1">
    <style id="style1">.c{stroke-width:0px;}</style>
  </defs>
  <g id="g13" transform="matrix(0.74644273,0,0,0.74644273,0.75390724,-15.906694)">
    <path class="c" d="m 24.55,43.7 v 1.45 H 16 V 43.7 Z" id="path13" />
    <path class="c" d="m 16,40.86 v -1.45 h 8.53 v 1.45 z" id="path12" />
    <path class="c" d="m 8.8,34.34 -0.73,-8.73 8.11,3.3 4.53,-7.6 4.19,7.69 8.28,-3.19 -0.59,8.88 8.14,1.5 -5.63,6.81 5.75,7.18 -8.32,1.09 v 9 l -7.79,-4 -4.5,7.91 -4.49,-8.2 L 7.27,60.8 8.65,50.69 0,49.22 6.4,42.74 0.6,36.3 Z m 23.26,12.07 c -1.3,-1.62 -2.54,-3 -3.58,-4.53 -0.53,-0.78 -0.84,-1.69 -0.91,-2.63 -0.13,-2.2 0,-4.41 0,-6.74 -2.13,0.84 -4.17,1.7 -6.26,2.43 -0.65,0.21 -1.35,0.21 -2,0 -2,-0.7 -3.93,-1.53 -6.06,-2.38 0.1,1.95 0.1,3.7 0.29,5.44 0.19,1.39 -0.28,2.79 -1.26,3.79 C 11,43.06 10.06,44.5 8.89,46 c 2.2,0.75 4.22,1.37 6.19,2.13 0.7,0.29 1.31,0.76 1.76,1.36 1.25,1.69 2.37,3.47 3.66,5.38 1.26,-1.93 2.33,-3.69 3.54,-5.36 0.45,-0.6 1.06,-1.06 1.76,-1.31 2,-0.67 4.04,-1.2 6.26,-1.79 z" id="path1" />
  </g>
</svg>
