<svg xml:space="preserve" width="32" height="32" xmlns="http://www.w3.org/2000/svg">
  <g style="fill:#000">
    <path d="M24.7 10.5c-1.6-7.6-2.1-7.9-5.7-8.1V1.1h16.1v1.3c-4.4.4-4.5.4-2.9 9.3l5.3 28.1 6.3-30.2c1.3-6.2.8-6.8-3.3-7.1l-1.3-.1V1.1h11.5v1.3c-3.5.3-3.5 1.2-4.9 7.8L35.5 59h-1l-8.8-43.7L16.4 59h-1L4.9 7.8C4 3.3 3.8 2.6 0 2.4V1.1h15.7v1.3c-4 .4-4.1.8-2.5 9.3l5.4 27.9zm41.9 48.2c-5.7 0-9.1-5.3-10.4-5.3-1.4 0-3 3-3.5 4.3h-1.2V38.9h1.2c3.5 10.3 9.1 18.4 13.7 18.4 2.7 0 4.4-2.5 4.4-6.2 0-13.6-19-22.4-19-39.1 0-6.8 4.8-12.1 10-12.1 4.7 0 7.3 3.8 8.8 3.8.8 0 1.4-.6 2.4-3h.9v16.8h-1.2C70.5 9.4 66 1.2 61.6 1.2c-2.7 0-4.7 2.5-4.7 6.2 0 13.1 19 21.4 19 38.7.1 7.2-4.3 12.6-9.3 12.6zm19.7 0c-5.8 0-8.1-3.6-8.1-7.1 0-3.5 2.1-7.1 5.3-7.1 3.4 0 4.8 3.4 3.2 5.8-1.3 2.1-4.8 2.3-4.8 3.9 0 2.5 2.1 3.1 3.8 3.1 5 0 4.7-3.1 4.7-13.7V6.1c0-3-.7-3.7-3.9-3.7h-1.2V1.1H102v1.3h-1.4c-1.7 0-2.4.7-2.4 3.8v36.7c0 10.3-7.4 15.8-11.9 15.8z" style="fill:#000;fill-rule:evenodd;clip-rule:evenodd" transform="matrix(.31373 0 0 .31373 0 6.76)"/>
  </g>
</svg>