<?xml version="1.0" encoding="UTF-8" standalone="no"?>
<svg width="32" height="32" viewBox="0 0 32 32" fill="none" class="opacity-80 hover:opacity-100 fill-black dark:fill-white [&amp;&gt;path]:hidden sm:[&amp;&gt;path]:block [&amp;&gt;#mark]:block" version="1.1" id="svg4" xmlns="http://www.w3.org/2000/svg" xmlns:svg="http://www.w3.org/2000/svg">
  <defs id="defs4" />
  <path fill-rule="evenodd" clip-rule="evenodd" d="M 0.8719429,4.36808 C 0,6.079314 0,8.319543 0,12.8 v 6.4 c 0,4.480457 0,6.720686 0.8719429,8.431886 C 1.6389371,29.137257 2.8627771,30.361029 4.36808,31.128 6.0793714,32 8.319543,32 12.8,32 h 6.4 c 4.480457,0 6.720686,0 8.431886,-0.872 C 29.137257,30.361029 30.361029,29.137257 31.128,27.631886 32,25.920686 32,23.680457 32,19.2 V 12.8 C 32,8.319543 32,6.079314 31.128,4.36808 30.361029,2.8627771 29.137257,1.6389371 27.631886,0.8719429 25.920686,0 23.680457,0 19.2,0 H 12.8 C 8.319543,0 6.0793714,0 4.36808,0.8719429 2.8627771,1.6389371 1.6389371,2.8627771 0.8719429,4.36808 Z M 16.041143,25.142857 7.433474,12.581714 h 3.82504 L 19.8672,25.142857 Z m -8.612572,0 3.827086,-5.584686 1.913943,2.792915 -1.912,2.791771 z M 14.1272,15.367543 20.7424,5.714286 h 3.829029 l -8.530286,12.446971 z m 7.308114,9.775314 V 11.687429 L 24.571429,7.1112 v 18.031657 z" fill="currentColor" id="mark" style="stroke-width:1.14286" />
</svg>
