<?xml version="1.0" encoding="UTF-8" standalone="no"?>
<svg viewBox="3 3.0001099 32 31.999999" version="1.1" id="svg2" width="32" height="32" xmlns="http://www.w3.org/2000/svg" xmlns:svg="http://www.w3.org/2000/svg">
  <defs id="defs2" />
  <path id="path1" d="m 9.9285718,3.0001099 c -3.8264002,0 -6.9285716,3.102171 -6.9285716,6.928571 V 28.071538 c 0,3.826515 3.1021714,6.928572 6.9285716,6.928572 H 28.071429 C 31.897943,35.00011 35,31.898053 35,28.071538 V 9.9286809 c 0,-3.8264 -3.102057,-6.928571 -6.928571,-6.928571 z M 16.504465,14.683145 h 1.566964 c 0.02955,0 0.04602,0.01648 0.03125,0.03125 l -0.888393,1.977679 c -0.04432,0.08864 0.0305,0.209821 0.133928,0.209821 h 1.330358 c 0.02953,0 0.04604,0.01202 0.03125,0.02679 l -1.183036,2.660714 c -0.02955,0.08868 0.02743,0.178571 0.116071,0.178571 h 0.888393 c 0.01477,0 0.02679,0.02979 0.02679,0.04464 l -0.575893,1.299106 c -0.01477,0.01463 -0.012,0.01339 -0.02679,0.01339 h -0.04464 -1.625 c -0.118195,0 -0.235858,-0.01369 -0.339286,-0.05803 -0.04432,-0.01486 -0.08961,-0.02855 -0.133929,-0.05804 -0.147726,-0.08869 -0.221841,-0.224414 -0.236607,-0.401785 -0.01479,-0.0592 -0.0014,-0.114908 0.01339,-0.174108 0.04432,-0.1328 0.08821,-0.2509 0.147321,-0.383929 0.103406,-0.266057 0.725983,-1.611607 0.696429,-1.611607 h -0.589286 c -0.118194,0 -0.240344,-0.01372 -0.34375,-0.05804 -0.04432,-0.01479 -0.08514,-0.03295 -0.129464,-0.0625 -0.147748,-0.08864 -0.221842,-0.221414 -0.236607,-0.383929 -0.01477,-0.05909 -0.0014,-0.132856 0.01339,-0.191964 0.02955,-0.13296 0.08959,-0.2479 0.133928,-0.366071 0.07385,-0.192069 0.174753,-0.383847 0.263393,-0.575893 l 0.933036,-2.098215 c 0.01477,-0.01479 0.012,-0.01786 0.02679,-0.01786 z m 10.026785,0.0089 c 0.0055,-0.0018 0.01489,0.0015 0.02232,0.0089 0.01486,0 0.0134,0.01202 0.0134,0.02679 v 0.504464 c 0,0.05911 0.0021,0.05804 0.07589,0.05804 h 0.723214 c 0.354514,0.01477 0.694293,0.09058 1.004464,0.267857 0.295543,0.162515 0.530914,0.412975 0.678571,0.723215 0.07383,0.162514 0.11761,0.339204 0.147322,0.531249 0.02949,0.13296 0.03125,0.264339 0.03125,0.397322 v 1.035714 0.02679 c 0,0.04432 3.02e-4,0.04464 0.04464,0.04464 h 0.174106 c 0.310402,0 0.607707,0.07549 0.888393,0.223214 0.398857,0.206834 0.63453,0.546636 0.723216,1.004464 0.01463,0.118172 0.03125,0.249664 0.03125,0.397321 v 2.013395 c 0,0.620343 -0.386821,1.148521 -0.977678,1.325892 -0.133029,0.04434 -0.277685,0.06126 -0.410713,0.07589 -0.147657,0.01486 -0.517522,0.01339 -0.66518,0.01339 h -0.504464 -0.01339 c -0.01463,0 -0.04464,-0.01193 -0.04464,-0.02679 v -0.01786 c -0.08869,-0.221654 -0.562508,-1.297583 -0.562508,-1.31244 0,-0.02949 0.0015,-0.03125 0.03125,-0.03125 h 0.05804 1.169644 c 0.221714,0 0.321428,-0.104478 0.321428,-0.370535 v -1.062501 -0.133929 c -0.01463,-0.192228 -0.103879,-0.322027 -0.28125,-0.410713 -0.08846,-0.04434 -0.173244,-0.0625 -0.276786,-0.0625 h -1.080357 -1.209822 -0.0625 c -0.02949,0 -0.02679,0.0015 -0.02679,0.03125 v 0.05804 1.580357 1.669643 c 0,0.08869 -5.98e-4,0.08929 -0.08928,0.08929 h -1.44643 c -0.08868,0 -0.08928,-5.99e-4 -0.08928,-0.08929 V 20.696541 20.01797 c 0,-0.07406 0.01279,-0.07589 -0.07589,-0.07589 h -1.459822 c -0.07383,0 -0.0625,-0.07143 -0.0625,-0.07143 v -0.07589 -1.299107 -0.08929 c 0,0 -0.01133,-0.08929 0.0625,-0.08929 h 1.388393 0.102679 c 0.0592,0 0.05804,-0.116072 0.05804,-0.116072 v -0.07589 -1.089286 c 0,0 0.01703,-0.133929 -0.07143,-0.133929 h -0.919641 c -0.08869,0 -0.08482,-6.46e-4 -0.08482,-0.08929 v -1.446428 -0.04464 c 0,-0.01479 -0.0029,-0.03125 0.02679,-0.03125 h 0.05804 0.901785 0.05803 c 0.01486,0 0.03125,0.0014 0.03125,-0.01339 v -0.0625 -0.486607 c 0,-0.01476 0.01339,-0.02679 0.01339,-0.02679 h 0.03125 1.535714 c 0,0 0.0034,-0.0071 0.0089,-0.0089 z m -16.508928,0.08036 h 1.522321 c 0.01479,0 0.02541,0.01339 0.04018,0.01339 0.01479,0.280708 0.01786,2.485704 0.01786,3.59375 v 3.486607 c 0,0.192 -0.01681,0.367499 -0.07589,0.544642 -0.118194,0.339886 -0.307204,0.605344 -0.602678,0.767858 -0.147749,0.07383 -0.298703,0.119301 -0.446429,0.13393 -0.17728,0.02949 -0.7839142,0.01339 -0.9464292,0.01339 -0.02953,0 -0.04327,-0.01216 -0.05804,-0.02679 -0.08864,-0.192228 -0.5625,-1.227977 -0.5625,-1.27232 0,-0.04434 3.23e-4,-0.04464 0.04464,-0.04464 h 0.04464 0.6964291 c 0.01479,0 0.28125,0.03192 0.28125,-0.263392 V 20.7724 c 0,-1.876273 0.01339,-5.584635 0.01339,-5.968749 0,-0.01477 0.01648,-0.03125 0.03125,-0.03125 z m 9.276785,0.504464 h 3.53125 c 0.07383,0 0.07143,-0.01721 0.07143,0.07143 v 1.464285 c 0,0.07388 0.0024,0.07143 -0.07143,0.07143 h -0.870535 c -0.07383,0 -0.07589,0.002 -0.07589,0.07589 v 4.696428 0.04464 c 0,0.04434 3e-4,0.04465 0.04464,0.04465 h 0.04464 1.357143 0.0625 c 0.01486,0 0.02679,0.003 0.02679,0.01786 0,0.01463 0.0012,0.02555 -0.01339,0.04018 v 1.47768 0.03125 c 0,0.02949 -0.0015,0.03125 -0.03125,0.03125 h -0.05803 -3.517858 -1.696428 c -0.04432,0 -0.05804,-0.003 -0.05804,-0.01786 l 0.01339,-0.02679 0.709821,-1.535714 c 0,0 0.01372,-0.03125 0.05804,-0.03125 h 1.316964 c 0.08869,0 0.08482,-5.99e-4 0.08482,-0.08929 v -4.669643 -0.01339 c 0,-0.07387 0.0024,-0.07589 -0.07143,-0.07589 h -0.857142 c -0.07383,0 -0.07589,0.01721 -0.07589,-0.07143 V 15.3483 c 0,-0.07387 0.01692,-0.07143 0.07589,-0.07143 z m 11.044644,0.0089 c 0.359017,0.02221 0.650277,0.28888 0.727678,0.625 0.08868,0.428434 -0.172871,0.856393 -0.616071,0.959821 -0.0592,0.01477 -0.119372,0.01339 -0.178572,0.01339 h -0.357142 -0.38393 -0.04464 c 0,0 -0.01463,-0.01339 0,-0.01339 v -0.04464 -0.736607 c 0,-0.398903 0.29757,-0.740021 0.696428,-0.799107 0.05357,-0.0074 0.104962,-0.0076 0.156251,-0.0045 z M 7.3035717,16.884038 h 0.07143 1.4508931 0.04464 c 0.02955,0 0.02711,0.01646 0.07143,0.03125 -0.01477,0.103406 -0.01648,0.191215 -0.03125,0.294643 -0.02955,0.2216 -0.04327,0.430186 -0.05804,0.651786 -0.01477,0.162514 -0.02988,0.337485 -0.04464,0.5 -0.02955,0.236388 -0.04327,0.460108 -0.05804,0.696427 -0.01479,0.266057 -0.04325,0.533052 -0.05804,0.799109 -0.01477,0.118171 -0.01648,0.23597 -0.03125,0.339284 -0.04434,0.2512 -0.08824,0.485408 -0.147322,0.736608 -0.08864,0.339886 -0.204953,0.680672 -0.352678,0.991072 -0.103429,0.206629 -0.22281,0.414915 -0.370536,0.607143 -0.01479,0.01463 -0.02988,0.04018 -0.04464,0.04018 l -0.01339,-0.0134 c -0.103405,-0.221714 -0.754787,-1.670242 -0.799107,-1.758928 -0.02953,-0.07383 -0.02953,-0.05687 0,-0.116071 0.103429,-0.221485 0.119163,-0.383963 0.133929,-0.620534 0,-0.103315 -0.0014,-0.191331 0.01339,-0.294645 0,-0.147886 0.01646,-0.29877 0.03125,-0.446427 0,-0.162515 0.01202,-0.324025 0.02679,-0.486608 0.01479,-0.147726 0.02988,-0.3107 0.04464,-0.473214 0,-0.147726 0.01648,-0.307609 0.03125,-0.455357 0,-0.147726 0.01646,-0.298703 0.03125,-0.446429 0,-0.162514 0.01202,-0.324093 0.02679,-0.486607 0.01479,-0.01477 0.01339,-0.07143 0.01339,-0.07143 0,-0.01477 0.0031,-0.01786 0.01786,-0.01786 z m 5.4196433,0 h 0.04464 1.450892 c 0.01479,0 0.07143,0.0031 0.07143,0.01786 0.01477,0.01479 0.01339,0.05975 0.01339,0.08929 0,0.162514 0.01648,0.324093 0.03125,0.486607 0,0.147749 0.01646,0.294216 0.03125,0.441964 0,0.147726 0.01202,0.312073 0.02679,0.459822 0.01479,0.147726 0.02988,0.3107 0.04464,0.473214 0,0.162424 0.01648,0.324092 0.03125,0.486607 0,0.147885 0.01202,0.294308 0.02679,0.441965 0,0.103543 0.01786,0.191328 0.01786,0.294643 0.01479,0.2512 0.03052,0.39882 0.133929,0.620534 0.01479,0.05897 0.02848,0.04494 0.05804,0.08929 -0.04432,0.103315 -0.710467,1.58032 -0.799107,1.77232 -0.01479,0 -0.01339,0.0134 -0.01339,0.0134 -0.01477,0.01486 -0.02985,-0.02555 -0.04464,-0.04018 -0.147726,-0.177371 -0.26713,-0.385657 -0.370536,-0.607143 -0.162514,-0.325028 -0.264039,-0.651186 -0.352679,-0.991072 -0.07387,-0.236342 -0.11779,-0.485408 -0.147321,-0.736608 -0.01479,-0.118171 -0.01648,-0.221113 -0.03125,-0.339284 -0.01479,-0.266057 -0.04325,-0.533052 -0.05804,-0.799109 -0.02953,-0.236319 -0.04773,-0.460039 -0.0625,-0.696427 -0.01477,-0.162515 -0.02541,-0.337486 -0.04018,-0.5 -0.02955,-0.2216 -0.04773,-0.430186 -0.0625,-0.651786 -0.01479,-0.103428 -0.01202,-0.191237 -0.02679,-0.294643 0,-0.02955 -0.0028,-0.03125 0.02679,-0.03125 z m 13.888392,0.01786 c -0.07406,0 -0.07589,-0.0024 -0.07589,0.07143 l 0.01786,1.258928 v 0.05804 c 0.01486,0.01479 0.01216,0.02679 0.02679,0.02679 h 0.03125 0.959822 0.04464 c 0,0 0.01339,-0.012 0.01339,-0.02679 v -0.04464 -1.080357 -0.04464 c 0,-0.103428 -0.05717,-0.175825 -0.160715,-0.205357 -0.02949,-0.01479 -0.07173,-0.01339 -0.116071,-0.01339 z m -11.196428,4.69643 c 0.236366,0.08846 0.516703,0.133927 0.767857,0.133927 h 1.696429 c 0.01477,0 0.03125,0.01639 0.03125,0.03125 l -0.709822,1.549109 c -0.01477,0.01486 -0.01648,0.01339 -0.03125,0.01339 h -1.754464 -0.236607 c -0.162515,0 -0.38627,-0.0571 -0.504464,-0.116071 -0.01477,0 -0.01339,-0.01662 -0.01339,-0.03125 l 0.723214,-1.566964 c 0,-0.01463 0.01646,-0.01339 0.03125,-0.01339 z" style="fill:#000000;stroke-width:2.28571" />
</svg>
