<svg viewBox="3 3 32 32" width="32" height="32" xmlns="http://www.w3.org/2000/svg">
  <path d="M9.929 3A6.929 6.929 0 0 0 3 9.93v18.143A6.929 6.929 0 0 0 9.929 35H28.07A6.929 6.929 0 0 0 35 28.072V9.929A6.929 6.929 0 0 0 28.071 3zm6.575 11.683h1.567c.03 0 .046.017.032.031l-.889 1.978c-.044.089.03.21.134.21h1.33c.03 0 .047.012.032.027l-1.183 2.66c-.03.09.027.179.116.179h.888c.015 0 .027.03.027.045l-.576 1.299c-.015.014-.012.013-.027.013h-1.669a.863.863 0 0 1-.34-.058c-.044-.015-.09-.028-.133-.058a.484.484 0 0 1-.237-.402.35.35 0 0 1 .013-.174c.045-.133.088-.25.148-.384.103-.266.726-1.611.696-1.611h-.59a.886.886 0 0 1-.472-.12.475.475 0 0 1-.237-.385.424.424 0 0 1 .013-.192c.03-.133.09-.248.134-.366.074-.192.175-.384.264-.576l.933-2.098c.014-.015.012-.018.026-.018zm10.027.009c.006-.002.015.002.023.009.014 0 .013.012.013.027v.504c0 .06.002.058.076.058h.723c.355.015.694.09 1.005.268.295.163.53.413.678.723.074.163.118.34.147.532.03.133.032.264.032.397v1.062c0 .045 0 .045.044.045h.174c.31 0 .608.076.889.223.399.207.634.547.723 1.005.015.118.031.25.031.397v2.013c0 .62-.387 1.149-.977 1.326a1.996 1.996 0 0 1-.411.076c-.148.015-.518.014-.665.014h-.518c-.015 0-.045-.012-.045-.027v-.018c-.088-.222-.562-1.298-.562-1.312 0-.03.001-.032.031-.032h1.228c.221 0 .321-.104.321-.37v-1.197a.465.465 0 0 0-.281-.41.585.585 0 0 0-.277-.063H26.58c-.03 0-.026.002-.026.031v3.308c0 .09-.001.09-.09.09h-1.446c-.089 0-.09 0-.09-.09v-3.263c0-.074.013-.076-.075-.076h-1.46c-.074 0-.063-.071-.063-.071v-1.465s-.011-.089.063-.089H24.884c.06 0 .058-.116.058-.116V17.035s.017-.133-.071-.133h-.92c-.089 0-.085 0-.085-.09v-1.49c0-.015-.003-.032.027-.032h1.018c.015 0 .031.002.031-.013V14.728c0-.015.013-.027.013-.027h1.567s.004-.007.01-.009zm-16.509.08h1.523c.014 0 .025.014.04.014.015.28.018 2.485.018 3.594v3.486c0 .192-.017.368-.076.545-.118.34-.307.605-.603.768-.148.073-.299.119-.446.134-.178.03-.784.013-.947.013-.03 0-.043-.012-.058-.027-.088-.192-.562-1.228-.562-1.272 0-.044 0-.045.044-.045h.741c.015 0 .282.032.282-.263v-.947c0-1.876.013-5.584.013-5.968 0-.015.017-.032.031-.032zm9.277.505h3.531c.074 0 .072-.017.072.071v1.465c0 .073.002.071-.072.071h-.87c-.074 0-.076.002-.076.076V21.7c0 .044 0 .045.045.045h1.464c.015 0 .027.003.027.017 0 .015 0 .026-.014.04v1.51c0 .03-.001.03-.031.03H18.103c-.045 0-.058-.002-.058-.017l.013-.027.71-1.536s.014-.03.058-.03h1.317c.089 0 .085-.001.085-.09V16.96c0-.074.002-.076-.072-.076H19.3c-.074 0-.076.017-.076-.071v-1.465c0-.074.017-.071.076-.071zm11.045.009c.359.022.65.289.727.625a.813.813 0 0 1-.616.96c-.059.014-.119.013-.178.013h-.786s-.015-.013 0-.013v-.782c0-.399.298-.74.697-.799a.783.783 0 0 1 .156-.004zm-23.04 1.598H8.87c.03 0 .027.016.071.031-.015.104-.017.192-.031.295-.03.222-.044.43-.058.652l-.045.5c-.03.236-.043.46-.058.696-.015.266-.043.533-.058.8-.015.117-.017.235-.031.339-.045.25-.089.485-.148.736a5.64 5.64 0 0 1-.352.991 3.73 3.73 0 0 1-.37.607c-.016.015-.03.04-.045.04l-.014-.013c-.103-.222-.755-1.67-.799-1.759-.03-.074-.03-.057 0-.116.103-.221.12-.384.134-.62 0-.104-.001-.192.013-.295 0-.148.017-.299.032-.446 0-.163.012-.324.026-.487l.045-.473c0-.148.017-.308.031-.456 0-.147.017-.298.032-.446 0-.163.012-.324.026-.487.015-.014.014-.071.014-.071 0-.015.003-.018.018-.018zm5.42 0h1.494c.016 0 .072.003.072.018.015.015.014.06.014.09 0 .162.016.323.03.486 0 .148.017.294.032.442 0 .147.012.312.027.46.015.147.03.31.044.473 0 .162.017.324.032.486 0 .148.012.295.027.442 0 .104.017.192.017.295.015.251.03.399.134.62.015.06.029.045.058.09-.044.103-.71 1.58-.799 1.772-.015 0-.013.014-.013.014-.015.014-.03-.026-.045-.04a2.784 2.784 0 0 1-.37-.608 4.96 4.96 0 0 1-.353-.99 4.063 4.063 0 0 1-.147-.737c-.015-.119-.017-.222-.032-.34-.014-.266-.043-.533-.058-.799-.03-.236-.047-.46-.062-.696-.015-.163-.026-.338-.04-.5a9.716 9.716 0 0 1-.063-.652c-.015-.103-.012-.191-.027-.295 0-.03-.002-.03.027-.03zm13.888.018c-.074 0-.076-.003-.076.071l.018 1.26v.057c.014.015.012.027.026.027h1.036s.013-.012.013-.027v-1.169c0-.104-.057-.176-.16-.206-.03-.014-.072-.013-.116-.013zm-11.197 4.696c.237.089.517.134.768.134h1.696c.015 0 .032.017.032.032l-.71 1.549c-.015.014-.017.013-.031.013H15.179c-.163 0-.387-.057-.505-.116-.015 0-.013-.017-.013-.031l.723-1.567c0-.015.016-.014.031-.014z" style="fill:#000;stroke-width:2.28571"/>
</svg>