<svg width="32" height="32" viewBox="0 0 32 32" fill="none" version="1.1" id="svg1" xmlns="http://www.w3.org/2000/svg" xmlns:svg="http://www.w3.org/2000/svg">
  <g clip-path="url(#clip0_1657_683)" id="g1" transform="matrix(1.0666667,0,0,1.0666667,-5e-7,1.2950395)">
    <path d="m 21.8508,21.1616 h 3.3978 c 1.2707,0 2.1547,-0.5801 2.1547,-1.768 0,-1.1878 -0.884,-1.7679 -2.1547,-1.7679 h -3.3978 z m 0,6.1602 h 4.5304 c 2.4033,0 3.6464,-1.2431 3.6464,-3.6464 v -2.5138 h -0.0828 c -0.6907,2.0995 -2.4862,2.7348 -4.6133,2.7348 h -3.3702 c -0.0828,0 -0.1105,0.0276 -0.1105,0.1105 z m -6.3812,-7.9282 3.4807,3.3702 V 16.0235 Z M 3.64641,27.3218 H 18.9503 v -0.7735 c 0,-1.3535 0.4696,-2.127 1.5469,-2.5414 V 23.924 h -4.2817 c -0.221,0 -0.3039,-0.0276 -0.4696,-0.1933 l -2.2376,-2.3205 -2.3205,2.3481 c -0.1105,0.1105 -0.1933,0.1657 -0.4143,0.1657 H 7.32044 c -0.19337,0 -0.19337,-0.1105 -0.08287,-0.221 L 11.6575,19.4213 7.1547,15.0566 c -0.1105,-0.1105 -0.08288,-0.221 0.11049,-0.221 h 3.48071 c 0.1933,0 0.2762,0.0277 0.3867,0.1658 l 2.4309,2.4309 2.2929,-2.4309 c 0.1105,-0.1105 0.1933,-0.1658 0.3591,-0.1658 h 9.0884 c 2.0994,0 3.9502,0.6906 4.6409,2.7901 h 0.0828 V 3.89641 C 30.0276,1.49309 28.7845,0.25 26.3812,0.25 H 3.64641 C 1.24309,0.25 0,1.49309 0,3.89641 V 23.703 c 0,2.3757 1.24309,3.6188 3.64641,3.6188 z" fill="#000" id="path1" />
  </g>
  <defs id="defs1">
    <clipPath id="clip0_1657_683">
      <rect width="30" height="27.0718" fill="#ffffff" transform="translate(0,0.25)" id="rect1" x="0" y="0" />
    </clipPath>
  </defs>
</svg>
