<?xml version="1.0" encoding="utf-8"?>
<!-- Generator: Adobe Illustrator 23.0.6, SVG Export Plug-In . SVG Version: 6.00 Build 0)  -->
<svg version="1.1"
	 id="svg8" inkscape:version="0.92.4 (5da689c313, 2019-01-14)" sodipodi:docname="A.svg" xmlns:cc="http://creativecommons.org/ns#" xmlns:dc="http://purl.org/dc/elements/1.1/" xmlns:inkscape="http://www.inkscape.org/namespaces/inkscape" xmlns:rdf="http://www.w3.org/1999/02/22-rdf-syntax-ns#" xmlns:sodipodi="http://sodipodi.sourceforge.net/DTD/sodipodi-0.dtd" xmlns:svg="http://www.w3.org/2000/svg"
	 xmlns="http://www.w3.org/2000/svg" xmlns:xlink="http://www.w3.org/1999/xlink" x="0px" y="0px" viewBox="0 0 300 120"
	 style="enable-background:new 0 0 300 120;" xml:space="preserve">
<sodipodi:namedview  bordercolor="#666666" borderopacity="1.0" fit-margin-bottom="0" fit-margin-left="0" fit-margin-right="0" fit-margin-top="0" id="base" inkscape:current-layer="layer1" inkscape:cx="1386.2882" inkscape:cy="-440.96428" inkscape:document-units="px" inkscape:pageopacity="0.0" inkscape:pageshadow="2" inkscape:window-height="1017" inkscape:window-maximized="1" inkscape:window-width="1920" inkscape:window-x="1912" inkscape:window-y="-8" inkscape:zoom="0.35" pagecolor="#ffffff" showgrid="false" units="px">
	</sodipodi:namedview>
<g id="layer1" transform="translate(260.95542,41.213839)" inkscape:groupmode="layer" inkscape:label="Layer 1">
	<path id="path1139" inkscape:connector-curvature="0" sodipodi:nodetypes="ccccccccc" d="M-261-2.6h17.8l10.4,26.6l10.5-26.6h17.4
		L-231,60.4h-17.5l7.2-16.7L-261-2.6z"/>
	<path id="path1141" inkscape:connector-curvature="0" d="M-186.7-3.6c-13.4,0-21.9,12-21.9,24c0,13.5,9.3,24.2,21.6,24.2
		c9.2,0,12.7-5.6,12.7-5.6v4.4h15.6V-2.6h-15.6v4.2C-174.3,1.6-178.2-3.6-186.7-3.6z M-183.4,11.1c6.2,0,9.4,4.9,9.4,9.3
		c0,4.8-3.4,9.4-9.4,9.4c-4.9,0-9.4-4-9.4-9.2C-192.8,15.4-189.2,11.1-183.4,11.1z"/>
	<path id="path1145" inkscape:connector-curvature="0" sodipodi:nodetypes="ccccccccccccc" d="M-153.4,43.3v-66.1h16.3V1.8
		c0,0,3.9-5.4,12-5.4c9.9,0,15.7,7.4,15.7,17.9v29h-16.2v-25c0-3.6-1.7-7-5.6-7c-3.9,0-6,3.5-6,7v25H-153.4z"/>
	<path id="path1147" inkscape:connector-curvature="0" d="M-81.6-3.6c-15.4,0-24.5,11.7-24.5,24.2c0,14.2,11.1,24,24.6,24
		c13.1,0,24.5-9.3,24.5-23.7C-57.1,5-69-3.6-81.6-3.6z M-81.5,11.3c5.4,0,9.2,4.5,9.2,9.3c0,4.1-3.5,9.2-9.2,9.2
		c-5.2,0-9.1-4.2-9.1-9.2C-90.6,15.7-87.4,11.3-81.5,11.3z"/>
	<path id="path1153" inkscape:connector-curvature="0" d="M-29.9-3.6c-15.4,0-24.5,11.7-24.5,24.2c0,14.2,11.1,24,24.6,24
		c13.1,0,24.5-9.3,24.5-23.7C-5.4,5-17.3-3.6-29.9-3.6z M-29.8,11.3c5.4,0,9.2,4.5,9.2,9.3c0,4.1-3.5,9.2-9.2,9.2
		c-5.2,0-9.1-4.2-9.1-9.2C-38.9,15.7-35.7,11.3-29.8,11.3z"/>
	<circle id="path1155" cx="7.5" cy="33.5" r="10.8"/>
	<path id="path1157" inkscape:connector-curvature="0" sodipodi:nodetypes="ccccc" d="M21.8,18.7H2.4l17.3-41.5H39L21.8,18.7z"/>
</g>
</svg>
