<?xml version="1.0" encoding="UTF-8"?><svg id="a" xmlns="http://www.w3.org/2000/svg" viewBox="0 0 199.23 80"><path d="m124.51,33.07c-1.84-2.95-5.11-4.73-8.58-4.69-7.84,0-13.31,6.6-13.31,18.04h0c0,11.31,5.33,17.57,12.97,17.57,3.73.04,7.21-1.9,9.14-5.11l.41,4.42h7.51V16h-8.13v17.07h0Zm-6.91,24.5c-4.43,0-6.62-3.41-6.62-11.15h.04c0-8.11,2.35-11.63,6.96-11.63,4.37,0,6.55,3.41,6.55,11.36s-2.35,11.43-6.92,11.43h0Z" style="stroke-width:0px;"/><path d="m63.32,39.96c0-8.3-4.23-11.43-12.81-11.43-4.22-.03-8.39,1.05-12.07,3.13v6.71c2.18-1.63,6.96-3.4,11.12-3.4,3.87,0,5.65,1.37,5.65,5.03v1.94h-1.31c-12.41,0-17.94,4.05-17.94,11.02s4.23,10.82,10.51,10.82c4.78,0,6.85-1.56,8.39-3.2h.35c.08.93.29,1.84.61,2.73h7.91c-.26-2.79-.41-5.58-.41-8.37v-14.96h0,0Zm-8.12,15.16c-1.02,1.51-2.94,2.73-5.81,2.73-3.41,0-5.12-2.02-5.12-5.11,0-4.01,2.82-5.44,9.75-5.44h1.16v7.82s0,0,0,0Z" style="stroke-width:0px;"/><polygon points="188.07 45.68 197.75 29.07 189.62 29.07 183.76 39.42 177.23 29.07 168.07 29.07 178.4 45.44 167.63 63.25 175.87 63.25 182.78 51.72 190.08 63.29 199.23 63.29 188.07 45.68" style="stroke-width:0px;"/><path d="m87.81,28.53c-4.83,0-7.71,1.77-9.35,3.4h-.41l-.21-2.85h-7.91v34.23h8.14v-24.57c1.63-2.1,4.14-3.36,6.8-3.44,2.86,0,4.16,1.26,4.16,3.85v24.16h8.13v-24.97c0-6.8-2.74-9.79-9.35-9.79h0Z" style="stroke-width:0px;"/><path d="m152.43,28.36c-9.91,0-14.61,7.55-14.61,17.89,0,11.92,5.86,17.7,16.25,17.7,5.18,0,9-1.37,11.39-2.98v-6.6c-3.22,2.02-6.91,3.14-10.71,3.2-5.94,0-8.2-2.79-8.53-8.51h19.6v-4.3c0-11.92-5.25-16.4-13.37-16.4h-.03v.02Zm5.12,14.69h-11.34c.21-5.43,2.18-8.3,6.09-8.3s5.25,3.34,5.25,7.62v.67h0,0Z" style="stroke-width:0px;"/><path d="m8.72,16H0l12.61,27.28c2.58,5.58,3.35,8.78,3.35,15.23v4.77h7.99v-5.79c0-7.82-1.37-11.35-4.51-18.17L8.72,16Z" style="stroke-width:0px;"/><polygon points="31.08 16 21.08 38.86 29.34 38.86 39.44 16 31.08 16" style="stroke-width:0px;"/></svg>