<?xml version="1.0" encoding="UTF-8"?><svg id="a" xmlns="http://www.w3.org/2000/svg" viewBox="0 0 207.57 80"><defs><style>.b{stroke-width:0px;}</style></defs><path class="b" d="m129.73,32.79c-1.92-3.07-5.32-4.93-8.94-4.89-8.17,0-13.87,6.88-13.87,18.8h-.01c0,11.78,5.55,18.31,13.51,18.31,3.89.04,7.51-1.98,9.52-5.32l.43,4.61h7.82V15h-8.47v17.79h.01Zm-7.2,25.53c-4.62,0-6.9-3.55-6.9-11.62h.04c0-8.45,2.45-12.12,7.25-12.12,4.55,0,6.82,3.55,6.82,11.84s-2.45,11.91-7.21,11.91h0Z"/><path class="b" d="m65.97,39.96c0-8.65-4.41-11.91-13.35-11.91-4.4-.03-8.74,1.09-12.58,3.26v6.99c2.27-1.7,7.25-3.54,11.59-3.54,4.03,0,5.89,1.43,5.89,5.24v2.02h-1.36c-12.93,0-18.69,4.22-18.69,11.48s4.41,11.27,10.95,11.27c4.98,0,7.14-1.63,8.74-3.33h.36c.08.97.3,1.92.64,2.84h8.24c-.27-2.91-.43-5.81-.43-8.72v-15.59h.01Zm-8.46,15.8c-1.06,1.57-3.06,2.84-6.05,2.84-3.55,0-5.33-2.1-5.33-5.32,0-4.18,2.94-5.67,10.16-5.67h1.21v8.15h.01Z"/><polygon class="b" points="195.95 45.92 206.03 28.62 197.56 28.62 191.46 39.4 184.65 28.62 175.11 28.62 185.87 45.67 174.65 64.23 183.24 64.23 190.44 52.22 198.04 64.27 207.57 64.27 195.95 45.92"/><path class="b" d="m91.49,28.05c-5.03,0-8.03,1.84-9.74,3.54h-.43l-.22-2.97h-8.24v35.66h8.48v-25.6c1.7-2.19,4.31-3.5,7.08-3.58,2.98,0,4.33,1.31,4.33,4.01v25.17h8.47v-26.02c0-7.08-2.85-10.2-9.74-10.2h0Z"/><path class="b" d="m158.82,27.88c-10.33,0-15.22,7.87-15.22,18.64,0,12.42,6.11,18.44,16.93,18.44,5.4,0,9.38-1.43,11.87-3.11v-6.88c-3.35,2.1-7.2,3.27-11.16,3.33-6.19,0-8.54-2.91-8.89-8.87h20.42v-4.48c0-12.42-5.47-17.09-13.93-17.09h-.03Zm5.33,15.31h-11.81c.22-5.66,2.27-8.65,6.34-8.65s5.47,3.48,5.47,7.94v.7h-.01Z"/><path class="b" d="m9.09,15H0l13.14,28.42c2.69,5.81,3.49,9.15,3.49,15.87v4.97h8.32v-6.03c0-8.15-1.43-11.83-4.7-18.93L9.09,15Z"/><polygon class="b" points="32.38 15 21.96 38.82 30.57 38.82 41.09 15 32.38 15"/></svg>