<svg id="Camada_1" data-name="Camada 1" xmlns="http://www.w3.org/2000/svg" viewBox="0 0 300 120"><path d="M258.12,75.26l-9,15H238.43l14-23.18L239,45.8h11.89l8.52,13.45L267,45.8h10.56L265,67.39,279.5,90.3H267.61ZM210.58,64h14.73v-.88c0-5.57-1.6-9.91-6.83-9.91-5.06,0-7.63,3.72-7.9,10.79m10.2,27.16c-13.48,0-21.11-7.52-21.11-23,0-13.44,6.12-23.26,19-23.26,10.56,0,17.39,5.84,17.39,21.32v5.57H210.58c.44,7.43,3.37,11.06,11.09,11.06a27,27,0,0,0,13.92-4.16v8.58c-3.1,2.12-8.07,3.89-14.81,3.89m-56-22.82c0,10.08,2.84,14.51,8.61,14.51,5.94,0,9-4.52,9-14.86s-2.83-14.78-8.51-14.78c-6,0-9.05,4.6-9.05,15.13m-10.91,0c0-14.86,7.1-23.44,17.3-23.44A13,13,0,0,1,182.37,51V28.82h10.56V90.3h-9.76l-.53-5.75a13.72,13.72,0,0,1-11.88,6.63c-9.94,0-16.86-8.14-16.86-22.82M122,90.3H111.42V45.8H121.7l.27,3.72h.53c2.13-2.12,5.86-4.42,12.15-4.42,8.61,0,12.16,3.89,12.16,12.73V90.3H136.25V58.89c0-3.36-1.68-5-5.41-5A11.6,11.6,0,0,0,122,58.36ZM92.26,69.51H90.75c-9,0-12.68,1.86-12.68,7.08,0,4,2.21,6.63,6.65,6.63,3.72,0,6.21-1.59,7.54-3.54Zm10.55,9.91q0,5.43.53,10.88H93.06a13.73,13.73,0,0,1-.8-3.54h-.45c-2,2.12-4.7,4.16-10.91,4.16-8.16,0-13.66-5-13.66-14.07s7.19-14.33,23.33-14.33h1.69V60c0-4.77-2.31-6.54-7.36-6.54-5.42,0-11.62,2.3-14.46,4.42V49.16a31.73,31.73,0,0,1,15.7-4.06c11.17,0,16.67,4.06,16.67,14.86Z"/><path d="M41.26,90.3V84.1c0-8.4-1-12.56-4.35-19.81L20.5,28.82H31.85L45.78,59.16c4.08,8.85,5.85,13.45,5.85,23.62V90.3Zm6.65-31.76,13-29.72H71.77L58.64,58.54Z"/></svg>