<?xml version="1.0" encoding="UTF-8" standalone="no"?>
<svg width="32" height="32" fill="none" viewBox="0 0 23.111111 23.111111" version="1.1" id="svg2" sodipodi:docname="yandex.svg" inkscape:version="1.4-beta2 (9aaf4f34, 2024-07-30)" xmlns:inkscape="http://www.inkscape.org/namespaces/inkscape" xmlns:sodipodi="http://sodipodi.sourceforge.net/DTD/sodipodi-0.dtd" xmlns="http://www.w3.org/2000/svg" xmlns:svg="http://www.w3.org/2000/svg">
  <defs id="defs2">
    <inkscape:path-effect effect="powerclip" message="" id="path-effect3" is_visible="true" lpeversion="1" inverse="true" flatten="false" hide_clip="false" />
    <clipPath clipPathUnits="userSpaceOnUse" id="clipPath2">
      <path fill="#ffffff" d="m 13.353,14.343 c 0.76,1.664 1.013,2.243 1.013,4.241 v 2.65 H 11.652 V 16.767 L 6.534,5.634 H 9.3639997 L 13.353,14.344 Z m 3.346,-8.709 -3.32,7.542 h 2.759 l 3.328,-7.542 z" id="path3" style="display:none;stroke-width:1" />
      <path id="lpe_path-effect3" style="stroke-width:1" class="powerclip" d="M -5,-5 H 31 V 31 H -5 Z m 18.353,19.343 v 10e-4 L 9.3639997,5.634 H 6.534 l 5.118,11.133 v 4.467 h 2.714 v -2.65 c 0,-1.998 -0.253,-2.577 -1.013,-4.241 z m 3.346,-8.709 -3.32,7.542 h 2.759 l 3.328,-7.542 z" />
    </clipPath>
  </defs>
  <sodipodi:namedview id="namedview2" pagecolor="#ffffff" bordercolor="#000000" borderopacity="0.25" inkscape:showpageshadow="2" inkscape:pageopacity="0.0" inkscape:pagecheckerboard="0" inkscape:deskcolor="#d1d1d1" inkscape:zoom="3.9939064" inkscape:cx="10.015257" inkscape:cy="30.421344" inkscape:window-width="1440" inkscape:window-height="790" inkscape:window-x="0" inkscape:window-y="0" inkscape:window-maximized="1" inkscape:current-layer="svg2" />
  <path fill="#f8604a" d="M 26,13 C 26,5.82 20.18,0 13,0 5.82,0 0,5.82 0,13 c 0,7.18 5.82,13 13,13 7.18,0 13,-5.82 13,-13 z" id="path1" clip-path="url(#clipPath2)" inkscape:path-effect="#path-effect3" inkscape:original-d="M 26,13 C 26,5.82 20.18,0 13,0 5.82,0 0,5.82 0,13 c 0,7.18 5.82,13 13,13 7.18,0 13,-5.82 13,-13 z" style="fill:#000000" transform="scale(0.88888889)" />
</svg>
