<?xml version="1.0" encoding="UTF-8"?><svg id="a" xmlns="http://www.w3.org/2000/svg" viewBox="0 0 160 80"><defs><style>.b{stroke-width:0px;}</style></defs><path class="b" d="m100,34.44c-1.48-2.37-4.1-3.8-6.89-3.77-6.3,0-10.69,5.3-10.69,14.49h-.01c0,9.08,4.28,14.11,10.41,14.11,3,.03,5.79-1.53,7.34-4.1l.33,3.55h6.03V20.73h-6.53v13.71h.01Zm-5.55,19.68c-3.56,0-5.32-2.74-5.32-8.96h.03c0-6.51,1.89-9.34,5.59-9.34,3.51,0,5.26,2.74,5.26,9.13s-1.89,9.18-5.56,9.18h0Z"/><path class="b" d="m50.85,39.97c0-6.67-3.4-9.18-10.29-9.18-3.39-.02-6.74.84-9.7,2.51v5.39c1.75-1.31,5.59-2.73,8.93-2.73,3.11,0,4.54,1.1,4.54,4.04v1.56h-1.05c-9.97,0-14.41,3.25-14.41,8.85s3.4,8.69,8.44,8.69c3.84,0,5.5-1.26,6.74-2.57h.28c.06.75.23,1.48.49,2.19h6.35c-.21-2.24-.33-4.48-.33-6.72v-12.02h.01Zm-6.52,12.18c-.82,1.21-2.36,2.19-4.66,2.19-2.74,0-4.11-1.62-4.11-4.1,0-3.22,2.27-4.37,7.83-4.37h.93v6.28h.01Z"/><polygon class="b" points="151.04 44.56 158.81 31.23 152.28 31.23 147.58 39.54 142.33 31.23 134.98 31.23 143.27 44.37 134.62 58.68 141.24 58.68 146.79 49.42 152.65 58.71 160 58.71 151.04 44.56"/><path class="b" d="m70.52,30.79c-3.88,0-6.19,1.42-7.51,2.73h-.33l-.17-2.29h-6.35v27.49h6.54v-19.73c1.31-1.69,3.32-2.7,5.46-2.76,2.3,0,3.34,1.01,3.34,3.09v19.4h6.53v-20.06c0-5.46-2.2-7.86-7.51-7.86Z"/><path class="b" d="m122.42,30.66c-7.96,0-11.73,6.07-11.73,14.37,0,9.57,4.71,14.21,13.05,14.21,4.16,0,7.23-1.1,9.15-2.4v-5.3c-2.58,1.62-5.55,2.52-8.6,2.57-4.77,0-6.58-2.24-6.85-6.84h15.74v-3.45c0-9.57-4.22-13.17-10.74-13.17h-.02Zm4.11,11.8h-9.1c.17-4.36,1.75-6.67,4.89-6.67s4.22,2.68,4.22,6.12v.54h-.01Z"/><path class="b" d="m7.01,20.73H0l10.13,21.91c2.07,4.48,2.69,7.05,2.69,12.23v3.83h6.41v-4.65c0-6.28-1.1-9.12-3.62-14.59L7.01,20.73Z"/><polygon class="b" points="24.96 20.73 16.93 39.09 23.56 39.09 31.67 20.73 24.96 20.73"/></svg>