<?xml version="1.0" encoding="UTF-8" standalone="no"?>
<svg id="a" viewBox="0 0 32 32" version="1.1" sodipodi:docname="yarn.svg" width="32" height="32" inkscape:version="1.4-beta2 (9aaf4f34, 2024-07-30)" xmlns:inkscape="http://www.inkscape.org/namespaces/inkscape" xmlns:sodipodi="http://sodipodi.sourceforge.net/DTD/sodipodi-0.dtd" xmlns="http://www.w3.org/2000/svg" xmlns:svg="http://www.w3.org/2000/svg">
  <defs id="defs3" />
  <sodipodi:namedview id="namedview3" pagecolor="#ffffff" bordercolor="#000000" borderopacity="0.25" inkscape:showpageshadow="2" inkscape:pageopacity="0.0" inkscape:pagecheckerboard="0" inkscape:deskcolor="#d1d1d1" inkscape:zoom="0.89019148" inkscape:cx="95.485075" inkscape:cy="138.7342" inkscape:window-width="1440" inkscape:window-height="790" inkscape:window-x="0" inkscape:window-y="0" inkscape:window-maximized="1" inkscape:current-layer="a" />
  <g id="g3" transform="matrix(0.49230769,0,0,0.49230769,-32.333818,-106.16564)">
    <path d="m 116.61807,256.89895 c -2.25,0 -4.25,1.18 -5.97,2.25 -3.13,1.95 -4.73,1.83 -4.73,1.83 l -0.06,-0.06 c -0.24,-0.35 1,-3.49 -0.35,-7.27 -1.48,-4.08 -3.84,-5.08 -3.66,-5.44 0.83,-1.36 2.84,-3.49 3.6,-7.5 0.47,-2.42 0.35,-6.44 -0.71,-8.51 -0.18,-0.41 -2.01,0.65 -2.01,0.65 0,0 -1.65,-3.72 -2.13,-4.02 -1.480002,-0.95 -3.130002,4.02 -3.130002,4.02 -2.3,-0.24 -4.55,0.65 -6.15,2.36 -0.59,0.53 -1.24,0.95 -2.01,1.18 -0.24,0.06 -0.47,0.06 -1.12,1.83 -1,2.66 1.71,5.67 1.71,5.67 0,0 -3.19,2.25 -4.37,5.08 -0.77,1.95 -1.12,4.02 -0.89,6.15 0,0 -2.3,2.01 -2.42,4.02 -0.12,1.42 0.18,2.9 0.95,4.08 0.24,0.53 0.83,0.71 1.36,0.47 h 0.06 c 0,0 -1.54,1.77 -0.12,2.54 1.3,0.65 3.49,1.06 4.61,-0.12 0.83,-0.83 1,-2.72 1.3,-3.49 0.06,-0.18 0.3,0.3 0.53,0.53 0.24,0.18 0.47,0.35 0.71,0.53 0,0 -2.07,0.89 -1.18,2.9 0.3,0.65 1.24,1.06 2.9,1.06 0.59,0 7.210002,-0.35 8.980002,-0.83 0.53,-0.06 1,-0.35 1.36,-0.77 2.84,-0.83 5.61,-2.07 8.15,-3.66 2.48,-1.65 3.49,-2.07 5.5,-2.54 v 0 c 1.6,-0.41 1.54,-2.95 -0.71,-2.95 z" style="stroke-width:0px" id="path2" />
    <path d="m 98.178068,215.64895 c -17.96,0 -32.5,14.54 -32.5,32.5 0,17.96 14.54,32.5 32.5,32.5 17.960002,0 32.500002,-14.54 32.500002,-32.5 v 0 c 0,-17.96 -14.54,-32.5 -32.500002,-32.5 z m 19.560002,46.03 c -1.77,0.41 -2.6,0.77 -4.9,2.3 -2.54,1.6 -5.26,2.9 -8.15,3.78 -0.53,0.47 -1.18,0.77 -1.89,0.95 -2.01,0.47 -8.860002,0.83 -9.400002,0.83 h -0.18 c -2.13,0 -3.31,-0.65 -3.9,-1.3 -1.77,0.89 -4.08,0.53 -5.73,-0.35 -0.83,-0.41 -1.36,-1.18 -1.54,-2.07 -0.06,-0.35 -0.06,-0.71 0,-1.06 -0.18,-0.18 -0.3,-0.35 -0.41,-0.53 -0.95,-1.6 -1.42,-3.43 -1.24,-5.26 0.18,-1.95 1.48,-3.72 2.36,-4.61 -0.06,-2.07 0.3,-4.2 1.06,-6.09 0.83,-1.83 2.07,-3.43 3.6,-4.73 -0.89,-1.48 -1.77,-3.72 -0.89,-5.97 0.59,-1.65 1.12,-2.54 2.25,-2.95 v 0 c 0.47,-0.12 0.95,-0.35 1.3,-0.71 1.6,-1.77 3.84,-2.84 6.2,-3.01 0.12,-0.24 0.24,-0.53 0.35,-0.77 0.83,-1.77 1.71,-2.78 2.78,-3.13 0.770002,-0.3 1.600002,-0.18 2.300002,0.24 0.35,0.24 0.77,0.53 2.07,3.13 0.47,-0.18 1,-0.18 1.48,-0.06 0.53,0.18 1,0.53 1.24,1 1.3,2.48 1.48,6.91 0.89,9.75 -0.53,2.54 -1.54,4.9 -3.07,6.97 2.66,2.78 4.02,6.56 3.78,10.4 0.53,-0.24 1.12,-0.53 1.65,-0.89 1.65,-1 4.02,-2.48 6.91,-2.54 1.83,-0.12 3.43,1.18 3.66,3.01 v 0 c 0.18,1.71 -0.95,3.31 -2.6,3.66 z" style="stroke-width:0px" id="path3" />
  </g>
</svg>
