<?xml version="1.0" encoding="utf-8"?>
<!-- Generator: Adobe Illustrator 23.1.0, SVG Export Plug-In . SVG Version: 6.00 Build 0)  -->
<svg version="1.1" id="Camada_1" xmlns="http://www.w3.org/2000/svg" xmlns:xlink="http://www.w3.org/1999/xlink" x="0px" y="0px"
	 viewBox="0 0 300 120" style="enable-background:new 0 0 300 120;" xml:space="preserve">
<title>yarn</title>
<path d="M269.6,57.2c-0.9,0-1.7,0.8-2,2.5c-0.8,3.7-2.5,9.2-5.9,9.2c-2.2,0-2.2-3.1-2.2-3.9V47.4c0-3.9-1.4-8.6-7-8.6
	c-4.2,0-7.2,3.7-9.5,8.4v-3.8c0-2-1.8-3.7-4.6-3.7c-1.2,0-2.2,0.6-2.2,1.4c0.2,0.9,0.3,1.8,0.3,2.8v14.7c-0.2,0.4-0.3,0.8-0.3,1.1
	c-0.8,3.7-2.2,9.2-6.1,9.2c-2.3,0-3.4-2.2-3.4-4.6c0-8.5,3.8-18.5,3.8-19.5c0.3-2-3.1-4.8-4.1-4.8h-4.4c-1.5,0-3-0.1-4.5-0.3
	c-0.9-3.5-3.3-4.5-5.4-4.5c-2.2-0.1-4.1,1.6-4.2,3.8c0,0,0,0.1,0,0.1c0,2.5,1.5,4.3,3.7,5.4c-0.1,4.3-0.4,11.4-1.4,14.8
	c0,0.1,0,0.2-0.1,0.3v0.1c-0.8,3.7-2.3,9.2-5.7,9.2c-2,0-2.9-2-2.9-3.9V51c0-2-1.8-3.7-4.6-3.7c-1.2,0-2.2,0.6-2.2,1.4
	c0.2,0.9,0.3,1.8,0.3,2.8v13c-0.9,2.4-2.5,4.4-4.8,4.4c-3,0-4.8-2.5-4.8-7c0-12.2,7.6-17.8,14-17.8c0.9,0,1.7,0.2,2.5,0.2
	c0.8,0,1.1-0.5,1.1-2c0-2.2-1.6-3.6-3.9-3.6c-10.4,0-20.2,8.7-20.2,22.8c0,0.4,0,0.8,0,1.2c-1.5,3.8-3.7,7.3-6.4,10.3V43.4
	c0-2-1.8-3.7-4.6-3.7c-1.2,0-2.2,0.6-2.2,1.4c0.2,0.9,0.3,1.8,0.3,2.8v13.6c-1,5.9-3.6,11.5-7,11.5c-2.5,0-3.9-2.5-3.9-7
	c0-7.1,0.9-10.9,2.5-17.2c0.3-1.3,2.8-4.7-1.4-4.7c-4.5,0-3.9,1.7-4.5,3.1c0,0-2.9,10.1-2.9,19.1c0,7.4,3.1,12.2,8.8,12.2
	c3.7,0,6.3-2.5,8.3-5.9v10.8c-5.6,4.9-10.6,9.3-10.6,17.8c0,5.4,3.4,9.8,8.2,9.8c4.3,0,8.8-3.1,8.8-12.1V80.4
	c3.4-2.8,6.4-6.2,8.7-10c1.7,2.7,4.7,4.2,7.8,4.1c2.8,0,5.5-1.3,7.3-3.5c1.4,2.2,3.9,3.6,6.5,3.5c7,0,10.4-7,11.9-12.5
	c0-0.1,0.1-0.2,0.1-0.3c1.5-4.9,2-12.3,2.1-15.6h7.4c-2.8,7.3-4.2,13.3-4.2,18.8c0,7.5,4.8,9.7,8.7,9.7l0,0c2.9,0,5.7-1.4,7.6-3.7
	c0,3.1,2.4,3.7,4.1,3.7c2.5,0,2.4-2,2.4-3.7V58.5c0.6-6.7,5.8-14.1,8.3-14.1c1.6,0,1.8,2.2,1.8,4.8v17.3c0,4.3,2.6,8,7.1,8
	c7.3,0,10.9-7.6,12.4-13.3c0.1-0.2,0.1-0.4,0.1-0.6C272.6,59.1,271,57.2,269.6,57.2z M163.7,101.8c-1.4,0-2.2-2-2.2-4.7
	c-0.1-4.2,1.6-8.2,4.6-11.1v9.1C166.1,96.7,166.4,101.8,163.7,101.8L163.7,101.8z"/>
<path d="M113.6,74.8c-3.8,0-7.2,2-10.1,3.8c-5.3,3.3-8,3.1-8,3.1l-0.1-0.1c-0.4-0.6,1.7-5.9-0.6-12.3c-2.5-6.9-6.5-8.6-6.2-9.2
	c1.4-2.3,4.8-5.9,6.1-12.7c0.8-4.1,0.6-10.9-1.2-14.4c-0.3-0.7-3.4,1.1-3.4,1.1s-2.8-6.3-3.6-6.8c-2.5-1.6-5.3,6.8-5.3,6.8
	c-3.9-0.4-7.7,1.1-10.4,4c-1,0.9-2.1,1.6-3.4,2c-0.4,0.1-0.8,0.1-1.9,3.1c-1.7,4.5,2.9,9.6,2.9,9.6s-5.4,3.8-7.4,8.6
	c-1.3,3.3-1.9,6.8-1.5,10.4c0,0-3.9,3.4-4.1,6.8c-0.2,2.4,0.3,4.9,1.6,6.9c0.4,0.9,1.4,1.2,2.3,0.8c0,0,0,0,0.1,0c0,0-2.6,3-0.2,4.3
	c2.2,1.1,5.9,1.8,7.8-0.2c1.4-1.4,1.7-4.6,2.2-5.9c0.1-0.3,0.5,0.5,0.9,0.9c0.4,0.3,0.8,0.6,1.2,0.9c0,0-3.5,1.5-2,4.9
	c0.5,1.1,2.1,1.8,4.9,1.8c1,0,12.2-0.6,15.2-1.4c0.9-0.1,1.7-0.6,2.3-1.3c4.8-1.4,9.5-3.5,13.8-6.2c4.2-2.8,5.9-3.5,9.3-4.3l0,0
	C117.5,79.1,117.4,74.8,113.6,74.8z"/>
<path d="M82.4,5c-30.4,0-55,24.6-55,55s24.6,55,55,55s55-24.6,55-55c0,0,0,0,0,0C137.4,29.6,112.8,5,82.4,5z M115.5,82.9
	c-3,0.7-4.4,1.3-8.3,3.9c-4.3,2.7-8.9,4.9-13.8,6.4c-0.9,0.8-2,1.3-3.2,1.6c-3.4,0.8-15,1.4-15.9,1.4H74c-3.6,0-5.6-1.1-6.6-2.2
	c-3,1.5-6.9,0.9-9.7-0.6c-1.4-0.7-2.3-2-2.6-3.5c-0.1-0.6-0.1-1.2,0-1.8c-0.3-0.3-0.5-0.6-0.7-0.9c-1.6-2.7-2.4-5.8-2.1-8.9
	c0.3-3.3,2.5-6.3,4-7.8c-0.1-3.5,0.5-7.1,1.8-10.3c1.4-3.1,3.5-5.8,6.1-8c-1.5-2.5-3-6.3-1.5-10.1c1-2.8,1.9-4.3,3.8-5l0,0
	c0.8-0.2,1.6-0.6,2.2-1.2c2.7-3,6.5-4.8,10.5-5.1c0.2-0.4,0.4-0.9,0.6-1.3c1.4-3,2.9-4.7,4.7-5.3c1.3-0.5,2.7-0.3,3.9,0.4
	c0.6,0.4,1.3,0.9,3.5,5.3c0.8-0.3,1.7-0.3,2.5-0.1c0.9,0.3,1.7,0.9,2.1,1.7c2.2,4.2,2.5,11.7,1.5,16.5c-0.9,4.3-2.6,8.3-5.2,11.8
	c4.5,4.7,6.8,11.1,6.4,17.6c0.9-0.4,1.9-0.9,2.8-1.5c2.8-1.7,6.8-4.2,11.7-4.3c3.1-0.2,5.8,2,6.2,5.1l0,0
	C120.2,79.6,118.3,82.3,115.5,82.9z"/>
</svg>
