<?xml version="1.0" encoding="utf-8"?>
<!-- Generator: Adobe Illustrator 23.0.6, SVG Export Plug-In . SVG Version: 6.00 Build 0)  -->
<svg version="1.1" id="Layer_1" xmlns="http://www.w3.org/2000/svg" xmlns:xlink="http://www.w3.org/1999/xlink" x="0px" y="0px"
	 viewBox="0 0 300 120" style="enable-background:new 0 0 300 120;" xml:space="preserve">
<title>logo-yelp</title>
<path d="M210.7,44.7c-0.9-1.5-1.8-3-2.7-4.4c-3.7-6-7.4-12-11.1-18c-3.4-5.5-1.3-11.6,2.9-14.9c2-1.5,4.3-2.7,6.8-3.4
	c4.7-1.7,9.5-2.9,14.4-3.7c4.6-0.6,8.8,0.3,12,4.1c1.4,1.7,2.2,3.7,2.4,5.8c0.3,3.4,0.6,6.8,0.8,10.3c0.2,2.6,0.4,5.3,0.5,8
	c0.2,2.9,0.4,5.9,0.6,8.9l4.9-6.7c1.9-2.6,4.8-4.1,8-4.1c3.2-0.2,6.4,1,8.7,3.3c4.7,4.7,8.3,10.2,10.6,16.4c1.2,2.9,1.1,6.2-0.2,9
	c-1.3,2.9-3.8,5.1-6.9,5.9c-1.8,0.5-3.7,1-5.8,1.5c0.5,0.2,0.7,0.4,1,0.5c1.8,0.6,3.6,1.3,5.5,1.8c4.4,1.5,7.4,5.6,7.5,10.3
	c0,2-0.4,4-1.2,5.8c-2.6,5.9-6.6,11-11.6,15.1c-4.2,3.4-10.1,3.6-14.4,0.3c-1-0.8-1.8-1.7-2.5-2.8c-1.1-1.8-2.1-3.6-3.4-5.4v2
	c0,1.4,0,2.8,0,4.2c0,4.7-2.9,8.8-7.4,10.3c-2.1,0.8-4.4,0.9-6.6,0.4c-5-1-9.9-2.7-14.5-5.1c-1.7-0.9-3.3-2-4.7-3.3
	c-4.3-4.1-4.6-10.8-0.7-15.3l3.8-4.5c-1.4,0.4-2.6,0.8-3.8,1.2c-2.6,1-5.4,1-8,0c-0.2,0-0.3-0.1-0.5-0.1c-0.1,1.1-0.2,2.2-0.4,3.3
	c-0.3,4.3-1.5,8.5-3.4,12.3c-3.1,6.2-8.9,10.6-15.7,11.8c-2.3,0.4-4.7,0.6-7.1,0.5c0,0.5,0,1,0,1.5c0,6.8-5.4,12.3-12.2,12.4
	c-2.5,0.2-4.9-0.3-7.1-1.4c-4-2-6.6-6.1-6.6-10.6c-0.1-1.7,0-3.4,0-5.1c-7.3,6.5-19.1,3.8-22.1-4.8c-2.1,2.4-4.7,4.3-7.6,5.7
	c-2.9,1.4-6,2.2-9.2,2.5c-2,0.2-4.1,0.3-6.2,0.2c-4.1-0.1-8.1-1.2-11.6-3.2c-4.5-2.7-8-6.8-9.8-11.7c-0.2-0.5-0.4-1.1-0.7-1.8
	c-0.1,0.3-0.3,0.6-0.4,0.8c-1.3,4.3-2.7,8.5-4,12.8c-0.8,2.8-2.2,5.4-4,7.7c-2.2,2.8-5.2,4.8-8.5,5.9c-4.3,1.4-8.9,1.6-13.3,0.4
	c-4.4-1-8-4.3-9.3-8.6c-1.9-6.2,1.1-12.9,7-15.7c0.4-0.2,0.8-0.3,1.3-0.6c-0.1-0.3-0.2-0.7-0.4-1c-3.2-6.7-6.5-13.3-9.8-20
	c-1.1-2.3-2.3-4.6-3.3-6.9c-2.4-5.4-1.9-10.5,1.9-15c1.8-2.1,4.1-3.5,6.8-4.1c3.2-0.9,6.7-0.6,9.6,0.9c2.3,1.2,4.1,3.1,5.3,5.5
	l2.5,4.9c0.2,0.3,0.3,0.6,0.6,1.1c0.5-1.6,0.9-3,1.3-4.3c1.6-5,5-8.1,10.1-8.8c5.2-0.9,10.4,1.1,13.5,5.4c0.1,0.1,0.2,0.3,0.4,0.4
	c3.6-3,7.9-4.9,12.5-5.5c4.5-0.8,9-0.6,13.4,0.6c4.4,1.2,8.3,3.8,11.1,7.4c0.1,0.1,0.3,0.2,0.4,0.3v-1.4c0-3,0-6.1,0-9.1
	c-0.1-5.8,3.8-10.8,9.5-12.1c3.9-1.1,8.2-0.4,11.5,2c2.7,1.8,4.5,4.7,4.9,8c0.1,1.4,0.2,2.8,0.2,4.1c0,0.8,0,1.7,0,2.7
	c5-4.2,10.3-4.6,15.9-1.9c9.2-3.5,19.6-1,26.4,6.1c0.3-1.7,0.8-3.3,1.7-4.8c1.6-2.8,4.3-4.8,7.4-5.5c2-0.5,4.1-0.4,6.1,0.4
	c2.1,0.8,4.1,1.7,6.2,2.5C210.3,44.6,210.5,44.7,210.7,44.7C210.7,44.7,210.7,44.7,210.7,44.7z M160.3,56.1
	c-0.1-0.2-0.2-0.5-0.3-0.7c-0.4-1.8-1.9-3.1-3.7-3.2c-1.9-0.4-3.8,0.4-4.8,1.9c-0.5,0.9-0.8,1.8-0.7,2.8v50.7c0,1.4,0.7,2.6,1.9,3.4
	c1,0.6,2.2,0.9,3.3,0.8c2.4,0.1,4.4-1.8,4.5-4.2c0-0.1,0-0.3,0-0.4c0-2.7,0-5.4,0-8.2c0-1.5,0.2-3,0.6-4.4c0.3,0.2,0.6,0.4,0.8,0.6
	c1.2,0.9,2.6,1.7,4,2.2c2.3,0.8,4.8,1,7.3,0.5c4.7-0.5,8.9-3.4,11-7.6c1.5-2.8,2.3-5.8,2.6-8.9c0.2-2.6,0.3-5.3,0.3-7.9
	c0.1-3.2-0.3-6.4-1.1-9.5c-1-4.4-4-8.2-8.1-10.1c-2.4-1.1-5.1-1.6-7.8-1.5c-2.3,0-4.6,0.7-6.7,1.8C162.3,54.8,161.3,55.4,160.3,56.1
	z M104.5,79.3h9.9c1.4,0.2,2.7-0.8,2.9-2.2c0-0.1,0-0.1,0-0.2c0.1-0.8,0.2-1.6,0.2-2.4c0-1.5-0.1-3-0.2-4.4c-0.1-2.5-0.6-5-1.4-7.3
	c-1.9-5.1-5.3-8.5-10.7-9.6c-3.2-0.6-6.5-0.6-9.7,0.1c-5.6,1-10.3,5-12,10.4c-1.2,3.5-1.8,7.1-1.8,10.8c-0.1,2.2,0,4.5,0.3,6.7
	c0.3,3.2,1.2,6.3,2.6,9.1c2,3.9,5.7,6.8,10,7.6c4.4,0.9,9,0.6,13.2-0.8c2.5-0.8,4.8-2.3,6.6-4.2c1.4-1.3,2.1-3.2,1.9-5.1
	c-0.1-1.7-1.1-3.1-2.6-3.8c-1.3-0.6-2.9-0.4-4,0.6c-0.8,0.6-1.5,1.2-2.2,1.8c-2.3,2.1-5.3,3.1-8.4,2.7c-2.5-0.1-4.8-1.7-5.8-4
	c-0.4-0.9-0.7-1.8-0.9-2.8c-0.5-2.3,0.1-2.9,2.4-2.9C98,79.3,101.2,79.3,104.5,79.3z M59.4,79.7c-0.3-0.4-0.4-0.6-0.5-0.8
	c-3.1-6.1-6.2-12.2-9.3-18.3c-0.9-1.7-1.8-3.5-2.7-5.2c-0.6-1.2-1.8-2-3.1-2.1c-2.1-0.3-4.2,0.6-5.4,2.3c-1.2,1.6-1.3,3.8-0.3,5.6
	c1.7,3.5,3.3,6.9,5,10.4l10,20.4c0.7,1.3,1.2,2.6,1.5,4c0.3,1.8-0.9,3.6-2.8,3.9c-0.1,0-0.1,0-0.2,0c-0.8,0.1-1.7,0-2.5,0
	c-0.8,0-1.5,0.1-2.3,0.3c-2.5,0.8-4,3.5-3.2,6c0.1,0.5,0.3,0.9,0.6,1.3c0.8,1.1,2,1.8,3.3,2.1c2,0.4,4,0.5,6,0.2
	c4.1-0.4,7.6-3,9-6.9c0.3-0.8,0.6-1.7,0.9-2.5c3.6-11.6,7.2-23.2,10.8-34.9c0.8-2.4,1.5-4.9,2.2-7.3c0.4-1.2,0-2.5-0.8-3.4
	c-1.1-1.3-2.6-2.1-4.3-2.1c-2.3-0.3-4.4,1.2-4.9,3.4c-0.9,3-1.8,6-2.7,9C62.4,69.9,60.9,74.7,59.4,79.7z M229.8,46.5
	c0,0-0.1,0-0.1,0c-0.1-0.8-0.2-1.7-0.2-2.5c-0.1-2.4-0.2-4.8-0.4-7.2c-0.1-1.7-0.2-3.4-0.3-5.1c-0.1-2.1-0.3-4.3-0.5-6.4
	c-0.1-1.8-0.2-3.7-0.4-5.5c-0.2-2.9-0.5-5.7-0.7-8.5c0-1.1-0.7-2.2-1.8-2.6c-1-0.4-2.1-0.6-3.1-0.4c-5,0.9-9.9,2.2-14.7,4
	c-1,0.4-1.9,0.9-2.8,1.5c-1.5,1-1.9,3-0.9,4.5c0,0,0.1,0.1,0.1,0.1c4.4,7,8.7,14,13.1,21c1.8,2.9,3.7,5.8,5.5,8.7
	c0.5,1,1.4,1.7,2.4,2.2c1.5,0.8,3.3,0.2,4-1.3c0.1-0.1,0.1-0.2,0.2-0.3C229.5,48,229.7,47.3,229.8,46.5z M128.3,68.4L128.3,68.4
	c0,8.2,0,16.5,0,24.7v1.2c0,1.1,0.6,2.2,1.5,2.9c1,0.8,2.1,1.2,3.4,1.1c2.4,0,5-1.2,5-4.9v-0.7c0-16.2,0-32.4,0-48.6
	c0-0.3,0-0.7,0-1.1c0-1-0.4-2-1-2.8c-1.6-1.6-3.9-2.1-6-1.3c-1.9,0.7-3.1,2.5-2.9,4.5C128.3,51.7,128.3,60,128.3,68.4z M196,61.5
	c-0.1,1-0.1,2.1,0,3.1c0.1,1.2,0.3,2.4,0.5,3.5c0.6,2.2,2.1,3.1,4.4,2.4c4.1-1.3,8.3-2.6,12.4-3.8l6.1-1.9c1.3-0.4,2.2-1.4,2.6-2.7
	c0.6-2.1-0.5-4.4-2.6-5.1c-6-2.4-12-4.8-18-7.2c-1.5-0.7-3.3-0.2-4,1.3c0,0,0,0.1,0,0.1c-0.3,0.5-0.4,1-0.5,1.5
	C196.1,55.7,195.9,58.6,196,61.5z M229.5,84.3L229.5,84.3c0-3.3,0-6.5,0-9.8c0-1.1-0.2-2.1-0.8-3c-0.7-1.2-2-1.8-3.3-1.4
	c-1.2,0.2-2.3,0.9-3,1.9c-1.5,1.8-3.1,3.6-4.6,5.4c-2.6,3.1-5.2,6.2-7.8,9.3c-1.2,1.1-1.2,3,0,4.2c0.2,0.2,0.3,0.3,0.5,0.4
	c0.6,0.5,1.3,0.9,2,1.3c2.9,1.6,6,2.9,9.3,3.8c1.4,0.4,2.8,0.7,4.2,0.9c1.6,0.3,3.2-0.8,3.5-2.4c0.1-0.3,0.1-0.6,0-0.9
	C229.3,90.8,229.4,87.5,229.5,84.3L229.5,84.3z M240.8,66.1c-1.8,0-3.4,1.2-3.8,3c-0.2,1.1,0,2.2,0.6,3.2c1.5,2.5,3,5,4.5,7.4
	c1.9,3.1,3.8,6.3,5.7,9.4c0.5,1.1,1.7,1.7,2.9,1.5c1-0.1,1.9-0.5,2.6-1.2c3.1-2.7,5.6-6,7.6-9.5c0.6-1,1-2,1.4-3
	c0.7-1.6-0.1-3.4-1.7-4.1c-0.1-0.1-0.3-0.1-0.4-0.1c-6-2-12.1-4.1-18.1-6.2C241.7,66.3,241.2,66.2,240.8,66.1L240.8,66.1z
	 M262.3,50.4c-0.1-0.6-0.3-1.2-0.5-1.8c-0.9-1.8-1.7-3.6-2.7-5.4c-1.5-2.6-3.2-4.9-5.3-7.1c-0.5-0.5-1-0.9-1.6-1.2
	c-1.2-0.8-2.8-0.4-3.6,0.8c0,0,0,0.1-0.1,0.1l-4.6,6.3c-2.4,3.3-4.8,6.5-7.1,9.8c-0.7,0.8-1,1.9-0.9,3c0.2,2.1,2,3.6,4.1,3.4
	c0.2,0,0.5-0.1,0.7-0.1c4.2-1,8.3-2.1,12.4-3.1c2.3-0.6,4.5-1.1,6.7-1.8C261.4,53,262.4,51.8,262.3,50.4z"/>
<path d="M210.7,44.7L210.7,44.7z"/>
<path d="M165.3,76.2c-0.1-3.4,0.4-6.8,1.4-10.1c0.3-1,0.8-1.9,1.4-2.7c1.1-1.2,2.6-2,4.2-2.1c1.4-0.2,2.9-0.1,4.2,0.4
	c1.3,0.4,2.4,1.4,3,2.7c0.8,2.1,1.4,4.2,1.6,6.4c0.1,0.7,0.2,1.3,0.2,2c0.2,3.4-0.1,6.9-1,10.2c-0.6,2.2-1.7,4-4,4.8
	c-2.3,0.9-4.9,0.7-7.1-0.5c-1-0.6-1.9-1.6-2.3-2.7c-0.7-1.6-1.1-3.2-1.3-4.9C165.5,78.5,165.4,77,165.3,76.2z"/>
<path d="M107,71.4H89.7c-0.2-0.4-0.3-0.8-0.3-1.3c0.2-2.1,1-4.1,2.4-5.7c1.4-1.5,3.3-2.4,5.3-2.6c1.1-0.2,2.3-0.2,3.5,0
	c2.2,0.2,4.1,1.5,5.1,3.4C106.7,67.2,107.1,69.3,107,71.4z"/>
</svg>
