<?xml version="1.0" encoding="UTF-8" standalone="no"?>
<!-- Created with Vectornator (http://vectornator.io/) -->

<svg height="32" stroke-miterlimit="10" style="clip-rule:evenodd;fill-rule:nonzero;stroke-linecap:round;stroke-linejoin:round" version="1.1" viewBox="0 0 32 32" width="32" xml:space="preserve" id="svg3" sodipodi:docname="yelp.svg" inkscape:version="1.4-beta2 (9aaf4f34, 2024-07-30)" xmlns:inkscape="http://www.inkscape.org/namespaces/inkscape" xmlns:sodipodi="http://sodipodi.sourceforge.net/DTD/sodipodi-0.dtd" xmlns="http://www.w3.org/2000/svg" xmlns:svg="http://www.w3.org/2000/svg"><sodipodi:namedview id="namedview3" pagecolor="#ffffff" bordercolor="#000000" borderopacity="0.25" inkscape:showpageshadow="2" inkscape:pageopacity="0.0" inkscape:pagecheckerboard="0" inkscape:deskcolor="#d1d1d1" inkscape:zoom="0.87518889" inkscape:cx="111.97583" inkscape:cy="72.555766" inkscape:window-width="1440" inkscape:window-height="872" inkscape:window-x="0" inkscape:window-y="0" inkscape:window-maximized="1" inkscape:current-layer="svg3" />
<defs id="defs1" />

<g opacity="1" id="g3" style="clip-rule:evenodd;fill-rule:nonzero;stroke-linecap:round;stroke-linejoin:round;fill:#000000" transform="matrix(0.49216361,0,0,0.49216361,-65.552483,-2.4608176)">
<path d="m 156.767,46.0251 2.995,-0.6933 c 0.099,-0.0218 0.197,-0.048 0.294,-0.0785 1.718,-0.462 2.762,-2.2018 2.361,-3.9356 l -0.013,-0.0532 c -0.099,-0.3997 -0.271,-0.7775 -0.509,-1.1139 -0.336,-0.425 -0.751,-0.7806 -1.222,-1.0468 -0.556,-0.3168 -1.137,-0.5859 -1.738,-0.8042 l -3.282,-1.1971 c -1.842,-0.6841 -3.686,-1.3519 -5.546,-2.0036 -1.204,-0.4276 -2.226,-0.8042 -3.115,-1.0769 -0.167,-0.0532 -0.352,-0.104 -0.502,-0.1549 -1.075,-0.3304 -1.826,-0.4668 -2.466,-0.4691 -0.426,-0.0157 -0.85,0.0616 -1.243,0.2265 -0.411,0.1765 -0.779,0.438 -1.082,0.7672 -0.15,0.1713 -0.291,0.3502 -0.423,0.5362 -0.256,0.3935 -0.467,0.8144 -0.63,1.2548 -0.609,1.8011 -0.912,3.6914 -0.897,5.5926 0.014,1.7193 0.06,3.924 1.005,5.4192 0.227,0.3836 0.532,0.7164 0.897,0.9729 0.672,0.4645 1.352,0.5269 2.061,0.5777 1.056,0.074 2.08,-0.1849 3.102,-0.4206 l 9.946,-2.3017 z m 33.396,-15.904 c -0.817,-1.7153 -1.916,-3.2815 -3.251,-4.6335 -0.174,-0.1711 -0.359,-0.3295 -0.555,-0.4738 -0.18,-0.136 -0.368,-0.2625 -0.562,-0.379 -0.2,-0.1087 -0.406,-0.2067 -0.617,-0.2935 -0.415,-0.1636 -0.86,-0.2376 -1.305,-0.2172 -0.426,0.0258 -0.842,0.1432 -1.218,0.3443 -0.571,0.2843 -1.188,0.7395 -2.011,1.5022 -0.113,0.1155 -0.254,0.2426 -0.383,0.3605 -0.678,0.6378 -1.433,1.4258 -2.33,2.341 -1.386,1.4004 -2.75,2.8101 -4.107,4.2337 l -2.426,2.5189 c -0.444,0.4622 -0.848,0.9568 -1.209,1.486 -0.307,0.446 -0.524,0.9475 -0.64,1.479 -0.068,0.4063 -0.059,0.822 0.028,1.2248 l 0.014,0.0532 c 0.399,1.7316 2.098,2.836 3.843,2.4981 0.132,-0.0185 0.236,-0.0416 0.3,-0.0555 l 12.942,-2.995 c 1.021,-0.2357 2.057,-0.4529 2.972,-0.9844 0.615,-0.3582 1.199,-0.7118 1.599,-1.4236 0.215,-0.3922 0.345,-0.8253 0.381,-1.271 0.199,-1.7633 -0.723,-3.7669 -1.465,-5.3152 z m -23.165,5.4492 c 0.938,-1.1786 0.933,-2.9349 1.017,-4.3723 0.282,-4.7976 0.577,-9.5952 0.811,-14.3973 0.092,-1.8165 0.286,-3.6098 0.175,-5.4424 -0.087,-1.51134 -0.099,-3.24687 -1.053,-4.48786 -1.687,-2.18617 -5.279,-2.00592 -7.728,-1.6639 -0.751,0.104 -1.502,0.24266 -2.249,0.42291 -0.746,0.18026 -1.484,0.37438 -2.207,0.60778 -2.35,0.76956 -5.657,2.18387 -6.217,4.89467 -0.314,1.5321 0.435,3.0967 1.015,4.4971 0.703,1.6939 1.664,3.2192 2.542,4.8137 2.313,4.2129 4.673,8.3958 7.026,12.5856 0.702,1.2479 1.467,2.8332 2.826,3.4803 0.09,0.0393 0.18,0.0739 0.275,0.104 0.608,0.2311 1.271,0.2773 1.906,0.1271 l 0.116,-0.0255 c 0.585,-0.1617 1.114,-0.4783 1.53,-0.922 0.076,-0.0694 0.148,-0.1433 0.215,-0.2219 z m -1.119,12.8467 c -0.751,-1.0574 -2.097,-1.5108 -3.334,-1.1232 -0.144,0.0463 -0.28,0.104 -0.416,0.1711 -0.206,0.1064 -0.403,0.2301 -0.587,0.3697 -0.539,0.3975 -0.994,0.9175 -1.406,1.4374 -0.106,0.1341 -0.201,0.3097 -0.325,0.4252 l -2.08,2.8656 c -1.181,1.6038 -2.346,3.2123 -3.499,4.8461 -0.754,1.0561 -1.403,1.9459 -1.918,2.7339 -0.097,0.1502 -0.199,0.3166 -0.291,0.4483 -0.617,0.9545 -0.966,1.6501 -1.144,2.2694 -0.135,0.4125 -0.178,0.8495 -0.125,1.2803 0.058,0.4483 0.208,0.8781 0.444,1.2641 0.124,0.1941 0.258,0.3813 0.402,0.5615 0.312,0.3587 0.663,0.6811 1.047,0.9614 1.437,1.0006 3.011,1.7194 4.668,2.274 1.377,0.4563 2.808,0.7291 4.257,0.8111 0.245,0.0116 0.492,0.007 0.739,-0.0161 0.227,-0.0198 0.453,-0.0514 0.677,-0.0948 0.225,-0.0528 0.446,-0.1176 0.663,-0.1941 0.845,-0.2993 1.511,-0.9592 1.819,-1.8003 0.241,-0.6008 0.398,-1.3634 0.502,-2.4912 0.009,-0.1617 0.032,-0.3559 0.048,-0.5315 0.081,-0.9382 0.12,-2.0406 0.181,-3.337 0.099,-1.9921 0.18,-3.9749 0.242,-5.9669 l 0.132,-3.5358 c 0.03,-0.8181 0.005,-1.7194 -0.222,-2.5305 -0.099,-0.3889 -0.26,-0.7595 -0.476,-1.0977 z m 23.503,5.5301 c -0.434,-0.4761 -1.049,-0.9521 -2.022,-1.5391 -0.139,-0.0786 -0.305,-0.1826 -0.455,-0.2727 -0.809,-0.4853 -1.784,-0.9983 -2.921,-1.6177 -1.747,-0.9548 -3.502,-1.8946 -5.265,-2.8193 l -3.12,-1.6547 c -0.161,-0.0462 -0.326,-0.1618 -0.478,-0.2357 -0.6,-0.3071 -1.237,-0.5347 -1.895,-0.6771 -0.227,-0.0429 -0.458,-0.0661 -0.689,-0.0694 -0.149,-0.0043 -0.298,0.0042 -0.446,0.0255 -1.28,0.1973 -2.289,1.1947 -2.5,2.4727 -0.046,0.3975 -0.033,0.7996 0.044,1.1901 0.152,0.832 0.524,1.6524 0.908,2.3711 l 1.666,3.1221 c 0.927,1.761 1.867,3.5127 2.829,5.2575 0.621,1.137 1.137,2.1122 1.62,2.9187 0.092,0.1525 0.196,0.3166 0.277,0.4553 0.587,0.9706 1.061,1.583 1.539,2.0197 0.312,0.3005 0.684,0.5293 1.093,0.6702 0.428,0.141 0.883,0.1918 1.331,0.1479 0.229,-0.0279 0.456,-0.068 0.68,-0.1201 0.222,-0.0578 0.439,-0.1295 0.654,-0.2103 0.231,-0.0879 0.455,-0.1918 0.67,-0.312 1.266,-0.7104 2.433,-1.5846 3.471,-2.5999 1.246,-1.2248 2.346,-2.5628 3.201,-4.0904 0.119,-0.217 0.223,-0.4426 0.31,-0.6748 0.08,-0.2134 0.15,-0.4309 0.208,-0.6517 0.05,-0.2264 0.09,-0.4529 0.115,-0.6817 0.043,-0.4495 -0.009,-0.903 -0.152,-1.3311 -0.141,-0.409 -0.37,-0.7821 -0.671,-1.0931 z" fill="#000000" fill-rule="nonzero" opacity="1" stroke="none" id="path2" style="fill:#000000" />

</g>
</svg>
