<?xml version="1.0" encoding="UTF-8" standalone="no"?>
<svg id="a" viewBox="0 0 32 32" version="1.1" width="32" height="32" xmlns="http://www.w3.org/2000/svg" xmlns:svg="http://www.w3.org/2000/svg">
  <defs id="defs3" />
  <path d="m 26.554029,0 -5.887108,1.932636 0.758188,15.401627 c -2.140767,0.854819 -3.032753,-0.0669 -4.348432,-2.140767 L 10.535446,5.039721 4.5442726,7.039257 12.245085,18.902671 c 2.073868,3.099652 5.664113,4.764693 9.410454,3.315215 0.260162,2.936121 -1.003484,4.556562 -3.330081,4.556562 -0.802788,0 -1.598142,-0.222996 -2.274565,-0.668989 -0.676423,-0.445994 -1.204181,-1.070384 -1.52381,-1.813705 L 9.3907302,26.008827 C 12.088988,31.472242 16.117792,32 18.258559,32 c 4.69036,0 9.521951,-3.41928 9.180023,-10.837631 0,0 -0.891986,-21.154936 -0.891986,-21.154936 z" style="fill:#000000;stroke-width:0px" id="path3" />
</svg>
