<?xml version="1.0" encoding="UTF-8"?><svg id="a" xmlns="http://www.w3.org/2000/svg" viewBox="0 0 91.58 80"><defs><style>.b{stroke-width:0px;}</style></defs><path class="b" d="m77.13,20.01c-8.41,0-14.44,6.14-14.44,14.53.16,2.97.74,5.61,3.21,12.28l4.51,12.23,6.35-2.05-3.18-8.85c1.38.61,2.86.92,4.37.91,7.43,0,13.62-6.27,13.62-14.52s-6.11-14.53-14.45-14.53Zm-.08,22.2c-.99.02-1.97-.17-2.89-.55s-1.74-.94-2.43-1.65c-.69-.71-1.22-1.56-1.57-2.49-.35-.93-.5-1.92-.45-2.91-.04-.99.11-1.97.46-2.9.35-.92.89-1.77,1.57-2.48.69-.71,1.51-1.27,2.43-1.65.91-.38,1.89-.57,2.88-.56,1-.02,1.99.16,2.92.53.93.37,1.77.93,2.47,1.64.7.71,1.25,1.56,1.62,2.49.36.93.53,1.93.5,2.93.04,1-.13,2-.49,2.93-.36.93-.91,1.78-1.62,2.49-.7.71-1.55,1.27-2.48,1.64-.93.37-1.93.55-2.93.52h0Z"/><path class="b" d="m45.12,42.45c-1.18.05-2.35-.21-3.4-.76-1.04-.55-1.92-1.37-2.54-2.38l20.54-6.84c-1.02-7.51-6.68-12.46-14.32-12.46-1.93-.07-3.84.26-5.64.97-1.79.71-3.42,1.77-4.78,3.14-1.36,1.36-2.43,2.99-3.14,4.78-.71,1.79-1.04,3.71-.97,5.64-.07,1.92.26,3.84.97,5.63.7,1.79,1.77,3.42,3.13,4.78,1.36,1.36,2.98,2.43,4.77,3.14,1.79.71,3.7,1.04,5.63.98,1.89.06,3.77-.26,5.54-.94,1.76-.68,3.37-1.71,4.73-3.03,1.36-1.32,2.43-2.89,3.17-4.64.73-1.74,1.11-3.62,1.1-5.51l-7.35,2.48c-.75,3.21-4.21,5.03-7.43,5.03Zm.41-16.22c1.18-.04,2.34.23,3.37.8,1.03.57,1.89,1.4,2.49,2.42l-13.62,4.5c-.03-1.03.15-2.05.52-3,.38-.95.95-1.82,1.68-2.54.73-.72,1.6-1.29,2.55-1.66.96-.37,1.98-.55,3-.51Z"/><path class="b" d="m26.3,21.74l-7.04,2.31.91,18.42c-2.56,1.02-3.63-.08-5.2-2.56l-7.82-12.14-7.16,2.39,9.21,14.19c2.48,3.71,6.77,5.7,11.25,3.96.31,3.51-1.2,5.45-3.98,5.45-.96,0-1.91-.27-2.72-.8s-1.44-1.28-1.82-2.17l-6.14,2.05c3.23,6.53,8.04,7.16,10.6,7.16,5.61,0,11.39-4.09,10.98-12.96l-1.07-25.3Z"/></svg>