<?xml version="1.0" encoding="UTF-8"?><svg id="a" xmlns="http://www.w3.org/2000/svg" viewBox="0 0 103.03 80"><path d="m86.78,21.51c-9.46,0-16.25,6.91-16.25,16.35.18,3.34.83,6.31,3.61,13.82l5.07,13.76,7.14-2.31-3.58-9.96c1.55.69,3.22,1.04,4.92,1.02,8.36,0,15.32-7.05,15.32-16.34s-6.87-16.35-16.26-16.35h.01Zm-.09,24.98c-1.11.02-2.22-.19-3.25-.62s-1.96-1.06-2.73-1.86c-.78-.8-1.37-1.76-1.77-2.8s-.56-2.16-.51-3.27c-.05-1.11.12-2.22.52-3.26.39-1.04,1-1.99,1.77-2.79.78-.8,1.7-1.43,2.73-1.86,1.02-.43,2.13-.64,3.24-.63,1.13-.02,2.24.18,3.29.6s1.99,1.05,2.78,1.85c.79.8,1.41,1.76,1.82,2.8.41,1.05.6,2.17.56,3.3.05,1.13-.15,2.25-.55,3.3s-1.02,2-1.82,2.8c-.79.8-1.74,1.43-2.79,1.85s-2.17.62-3.3.59h0v.02Z" style="stroke-width:0px;"/><path d="m50.77,46.76c-1.33.06-2.64-.24-3.83-.86-1.17-.62-2.16-1.54-2.86-2.68l23.11-7.7c-1.15-8.45-7.52-14.02-16.11-14.02-2.17-.08-4.32.29-6.35,1.09-2.01.8-3.85,1.99-5.38,3.53-1.53,1.53-2.73,3.36-3.53,5.38s-1.17,4.17-1.09,6.35c-.08,2.16.29,4.32,1.09,6.33.79,2.01,1.99,3.85,3.52,5.38,1.53,1.53,3.35,2.73,5.37,3.53s4.16,1.17,6.33,1.1c2.13.07,4.24-.29,6.23-1.06,1.98-.77,3.79-1.92,5.32-3.41s2.73-3.25,3.57-5.22c.82-1.96,1.25-4.07,1.24-6.2l-8.27,2.79c-.84,3.61-4.74,5.66-8.36,5.66h-.01Zm.46-18.25c1.33-.05,2.63.26,3.79.9s2.13,1.58,2.8,2.72l-15.32,5.06c-.03-1.16.17-2.31.59-3.38.43-1.07,1.07-2.05,1.89-2.86.82-.81,1.8-1.45,2.87-1.87,1.08-.42,2.23-.62,3.38-.57h.01Z" style="stroke-width:0px;"/><path d="m29.6,23.46l-7.92,2.6,1.02,20.72c-2.88,1.15-4.08-.09-5.85-2.88l-8.8-13.66-8.06,2.69,10.36,15.96c2.79,4.17,7.62,6.41,12.66,4.46.35,3.95-1.35,6.13-4.48,6.13-1.08,0-2.15-.3-3.06-.9s-1.62-1.44-2.05-2.44l-6.91,2.31c3.63,7.35,9.05,8.06,11.93,8.06,6.31,0,12.81-4.6,12.35-14.58,0,0-1.2-28.46-1.2-28.46Z" style="stroke-width:0px;"/></svg>