<svg id="Camada_1" data-name="Camada 1" xmlns="http://www.w3.org/2000/svg" viewBox="0 0 300 120"><title>amazon</title><path d="M187.75,111.75c0-.58.08-1.16.08-1.74,0-23.37.07-46.74-.06-70.1,0-4.52,4.11-8.48,8.25-8.15.7.06,1.4,0,2.19,0v4.84c.78-.41,1.37-.71,2-1C212,29,225.64,30.71,234.78,40c15.2,15.43,9.55,42.57-10.5,49.83-8.33,3-16.46,2.61-23.78-3.09-.32-.25-.7-.45-1-.69s-.67-.47-1.12-.79c0,.45-.06.8-.06,1.15,0,5.79-.06,11.58,0,17.37.05,3.7-1.35,6.43-4.79,8Zm46.33-50.31a18.29,18.29,0,1,0-18.26,18.38A18.25,18.25,0,0,0,234.08,61.44Z"/><path d="M123.5,111.75c0-.58.08-1.16.08-1.74V39.78a7.58,7.58,0,0,1,8-8H134v4.8c.77-.43,1.38-.76,2-1.1a27.85,27.85,0,0,1,33.8,4.06c15.51,15.16,10.68,43.3-10.69,50.54-6.74,2.28-13.52,2.35-19.94-1.31-1.72-1-3.29-2.22-5-3.41,0,.37-.06.72-.06,1.07,0,5.58-.11,11.16,0,16.74.1,4-1.34,6.92-5.06,8.59Zm27.77-31.93A18.31,18.31,0,1,0,133,61.48,18.26,18.26,0,0,0,151.27,79.82Z"/><path d="M300,32.25a14.36,14.36,0,0,0-.72,1.25q-15.88,36.51-31.75,73a9.1,9.1,0,0,1-5,4.75l-1,.48H255q4.89-11.4,9.8-22.79a2.22,2.22,0,0,0,0-2q-11.61-26.91-23.17-53.83c-.18-.41-.34-.83-.48-1.2a47.7,47.7,0,0,1,6.67.06,7.52,7.52,0,0,1,6,4.86c5.46,12.67,11,25.31,16.6,38.13.2-.38.36-.63.48-.9q8-18.34,16-36.68a8.58,8.58,0,0,1,8.68-5.66c1.45,0,2.91,0,4.37,0Z"/><path d="M48,111.75c3-7.11,6-14.26,9.13-21.32a5.79,5.79,0,0,0,0-5.21c-7.55-17.3-15-34.64-22.47-52-.18-.42-.35-.84-.62-1.5,3,.17,5.83-.43,8.57.77a7.76,7.76,0,0,1,4.16,4.24c5.5,12.71,11,25.39,16.67,38.3.24-.51.41-.86.57-1.21Q72,55.63,79.93,37.4a8.55,8.55,0,0,1,8.69-5.63c1.4,0,2.8,0,4.37,0-.82,1.92-1.58,3.66-2.34,5.4q-15.09,34.65-30.17,69.3a9,9,0,0,1-5,4.8c-.34.14-.66.32-1,.48Z"/><path d="M0,36.5c.7-1.1,1.2-2.45,2.16-3.23a6.59,6.59,0,0,1,3.6-1.41c3.35-.19,6.73-.12,10.1-.05a6.57,6.57,0,0,1,5.95,3.29c1.51,2.75,2.66,5.69,4,8.71H18c-3.58,0-7.16-.15-10.73,0C3.55,44,1.15,42.54,0,39Z"/><path d="M113.5,8.25c-1.21,2.74-2.41,5.48-3.62,8.21s-2.75,3.85-5.14,3.78A5.72,5.72,0,0,1,99.6,16.5a6.19,6.19,0,0,1,1.7-6.62,24.23,24.23,0,0,1,2.45-1.63Z"/><path d="M109.73,31.79V33q0,25,0,50a8.34,8.34,0,0,1-1.31,4.75,6.55,6.55,0,0,1-5,3.14c-1.32.11-2.65,0-4.14,0V89.37c0-16.62.07-33.24,0-49.87a8.19,8.19,0,0,1,7.13-7.7C107.42,31.71,108.5,31.79,109.73,31.79Z"/><path d="M40.42,76.7c-.71,0-1,.07-1.36.07H20.94A6,6,0,0,1,16.18,75a4.76,4.76,0,0,1-1-5.33,5.19,5.19,0,0,1,4.85-3.37c3.2-.11,6.41-.11,9.61,0a8.26,8.26,0,0,1,6.63,3.27A71.94,71.94,0,0,1,40.42,76.7Z"/><path d="M39.72,99.32c-1.4,3.17-2.68,6.28-4.14,9.29a4.92,4.92,0,0,1-6.1,2.32,5.76,5.76,0,0,1-3.89-6.13A6.14,6.14,0,0,1,32,99.19c2.45,0,4.9,0,7.36,0A2.29,2.29,0,0,1,39.72,99.32Z"/></svg>