<svg viewBox="0 0 238 80" fill="currentColor" xmlns="http://www.w3.org/2000/svg">
  <g transform="matrix(1.2,0,0,1.2,0.477488,8.8676945)">
    <path fill-rule="evenodd" clip-rule="evenodd" d="m 28.928112,1.8893295 c -2.419116,-1.26098793 -5.300829,-1.26098973 -7.719945,0 L 4.4961155,10.600842 C 1.7330613,12.041142 0,14.900192 0,18.018214 v 15.98725 c 0,3.11786 1.7330631,5.976947 4.4961155,7.417354 l 16.7120515,8.711405 c 0.750103,0.390944 1.544563,0.660673 2.355904,0.809365 V 39.548546 c 0,-6.645341 -5.387207,-12.032728 -12.032693,-12.032728 H 6.0163643 v -3.008137 h 5.5150137 c 6.645486,0 12.032693,-5.387208 12.032693,-12.032729 V 6.959938 h 3.008317 v 5.515014 c 0,6.645521 5.387207,12.032729 12.032728,12.032729 h 11.531343 v -6.489467 c 0,-3.118022 -1.733123,-5.977072 -4.496134,-7.417372 z M 50.136459,27.515818 H 38.605116 c -6.645521,0 -12.032728,5.387387 -12.032728,12.032728 v 11.395042 c 0.81134,-0.148692 1.6058,-0.418421 2.355724,-0.809365 l 16.712213,-8.711405 c 2.763011,-1.440407 4.496134,-4.299494 4.496134,-7.417354 z" fill="currentColor" id="path1" />
    <path d="m 85.099522,16.905521 h -3.161319 c -0.155156,0 -0.294869,0.09918 -0.343176,0.246688 l -4.4252,12.95997 c -0.111878,0.328092 -0.577348,0.328092 -0.689226,0 l -4.427534,-12.95997 c -0.051,-0.147506 -0.188379,-0.246688 -0.343356,-0.246688 h -3.158625 c -0.254285,0 -0.432428,0.254321 -0.340842,0.493323 l 6.645341,17.611547 c 0.03053,0.08386 0.03053,0.172935 0,0.256799 l -0.579862,1.548694 c -0.55957,1.607417 -0.976554,2.166807 -2.690641,2.166807 h -2.428813 c -0.20095,0 -0.363649,0.162879 -0.363649,0.363649 v 2.34495 c 0,0.20077 0.162699,0.363648 0.363649,0.363648 h 3.652109 c 3.039025,0 4.122429,-1.887022 5.063426,-4.470992 l 7.56838,-20.185102 c 0.08907,-0.239002 -0.08638,-0.493323 -0.340662,-0.493323 z" fill="currentColor" />
    <path d="m 94.720138,16.485897 c -5.622995,0 -8.977362,4.051279 -8.977362,9.50134 0,5.44988 3.351852,9.501195 8.977362,9.501195 5.625512,0 9.010402,-4.051315 9.010402,-9.501195 0,-5.450061 -3.35436,-9.50134 -9.010402,-9.50134 z m 0,15.85666 c -3.527302,0 -5.203318,-2.619527 -5.203318,-6.35532 0,-3.735974 1.676016,-6.355501 5.203318,-6.355501 3.527481,0 5.239054,2.619527 5.239054,6.355501 0,3.735793 -1.676016,6.35532 -5.239054,6.35532 z" fill="currentColor"  />
    <path d="m 121.81762,16.905521 h -2.9399 c -0.20095,0 -0.36365,0.162771 -0.36365,0.363667 v 9.694602 h -0.0356 c 0,4.470813 -3.24769,5.274432 -4.64644,5.274432 -2.65508,0 -3.80708,-1.675837 -3.80708,-4.018093 V 17.269188 c 0,-0.200896 -0.16288,-0.363667 -0.36365,-0.363667 h -2.9043 c -0.20095,0 -0.36365,0.162771 -0.36365,0.363667 v 11.337396 c 0,3.738487 2.05996,6.879334 6.46217,6.879334 2.54069,0 4.40724,-1.182531 5.63556,-2.78474 0.0535,-0.06878 0.16288,-0.03304 0.16288,0.05334 v 1.948079 c 0,0.200949 0.1627,0.363649 0.36365,0.363649 h 2.80001 c 0.20095,0 0.36364,-0.1627 0.36364,-0.363649 V 17.269188 c 0,-0.200896 -0.16269,-0.363667 -0.36364,-0.363667 z" fill="currentColor" />
    <path d="m 148.21563,28.606584 h -3.0137 c -0.16773,0 -0.31516,0.114392 -0.35341,0.277271 -0.4908,2.141307 -2.02943,3.458702 -4.30812,3.458702 -3.24752,0 -4.92605,-2.619527 -4.92605,-6.35532 0,-3.735974 1.67584,-6.355501 4.92605,-6.355501 2.24564,0 3.78177,1.251311 4.30309,3.326532 0.0406,0.160185 0.1855,0.269549 0.3509,0.269549 h 3.01873 c 0.22896,0 0.3992,-0.208492 0.35862,-0.432248 -0.69677,-3.779252 -3.48923,-6.307121 -8.03385,-6.307121 -5.34321,0 -8.69776,4.051243 -8.69776,9.501303 0,5.44988 3.35203,9.501195 8.69776,9.501195 4.34367,0 7.32433,-2.596541 8.03385,-6.446906 0.0406,-0.223756 -0.12966,-0.432248 -0.35862,-0.432248 z" fill="currentColor" />
    <path d="m 159.44115,16.485897 c -5.62282,0 -8.97736,4.051279 -8.97736,9.50134 0,5.44988 3.35454,9.501195 8.97736,9.501195 5.623,0 9.01058,-4.051315 9.01058,-9.501195 0,-5.450061 -3.35454,-9.50134 -9.01058,-9.50134 z m 0,15.85666 c -3.5273,0 -5.20583,-2.619527 -5.20583,-6.35532 0,-3.735974 1.67601,-6.355501 5.20583,-6.355501 3.53,0 5.23905,2.619527 5.23905,6.355501 0,3.735793 -1.67601,6.35532 -5.23905,6.35532 z" fill="currentColor" />
    <path d="m 191.46234,16.485897 c -2.79246,0 -4.69062,1.429238 -5.88303,3.31626 -0.0377,0.06106 -0.1257,0.05603 -0.15623,-0.01006 -0.92843,-1.976094 -2.72243,-3.306204 -5.31017,-3.306204 -2.58971,0 -4.18689,1.164718 -5.24983,2.716105 -0.051,0.07381 -0.16539,0.03556 -0.16539,-0.05334 v -1.879479 c 0,-0.200914 -0.16288,-0.363667 -0.36365,-0.363667 h -2.8 c -0.20095,0 -0.36365,0.162753 -0.36365,0.363667 v 17.433404 c 0,0.200949 0.1627,0.363649 0.36365,0.363649 h 2.9399 c 0.20077,0 0.36364,-0.1627 0.36364,-0.363649 V 25.00798 c 0,-4.470813 2.86358,-5.274431 4.29537,-5.274431 2.23522,0 3.38812,1.675836 3.38812,4.015579 v 10.953455 c 0,0.200949 0.16163,0.363649 0.36276,0.363649 h 2.93971 c 0.20113,0 0.36455,-0.1627 0.36455,-0.363649 V 25.00798 c 0,-4.470813 2.8625,-5.274431 4.29554,-5.274431 2.23577,0 3.38687,1.675836 3.38687,4.015579 v 10.953455 c 0,0.200949 0.16342,0.363649 0.36455,0.363649 h 2.93972 c 0.20113,0 0.36275,-0.1627 0.36275,-0.363649 V 23.36771 c 0,-3.738488 -2.0957,-6.87928 -6.07518,-6.87928 z" fill="currentColor" />
    <path d="m 129.74462,31.582217 -1.88954,-1.091125 c -0.0763,-0.04328 -0.17042,-0.04328 -0.24674,0 l -1.88954,1.091125 c -0.0763,0.0431 -0.12463,0.124449 -0.12463,0.213521 v 2.182071 c 0,0.08907 0.0483,0.170421 0.12212,0.213699 l 1.88953,1.090946 c 0.0383,0.02029 0.0814,0.03304 0.12212,0.03304 0.0408,0 0.0839,-0.01024 0.12211,-0.03304 l 1.88954,-1.090946 c 0.0763,-0.04328 0.12211,-0.127321 0.12211,-0.213699 v -2.182071 c 0,-0.08907 -0.0458,-0.170421 -0.12211,-0.213521 z" fill="currentColor" />
  </g>
  <defs id="defs11" />
</svg>
