<?xml version="1.0" encoding="UTF-8" standalone="no"?>
<svg viewBox="0 0 32 32" fill="currentColor" version="1.1" id="svg8" sodipodi:docname="you.svg" width="32" height="32" inkscape:version="1.4-beta2 (9aaf4f34, 2024-07-30)" xmlns:inkscape="http://www.inkscape.org/namespaces/inkscape" xmlns:sodipodi="http://sodipodi.sourceforge.net/DTD/sodipodi-0.dtd" xmlns="http://www.w3.org/2000/svg" xmlns:svg="http://www.w3.org/2000/svg">
  <sodipodi:namedview id="namedview8" pagecolor="#ffffff" bordercolor="#000000" borderopacity="0.25" inkscape:showpageshadow="2" inkscape:pageopacity="0.0" inkscape:pagecheckerboard="0" inkscape:deskcolor="#d1d1d1" inkscape:zoom="0.325" inkscape:cx="120" inkscape:cy="38.461538" inkscape:window-width="1440" inkscape:window-height="790" inkscape:window-x="0" inkscape:window-y="0" inkscape:window-maximized="1" inkscape:current-layer="svg8" />
  <path fill-rule="evenodd" clip-rule="evenodd" d="m 18.4636,0.64717593 c -1.54402,-0.8048366 -3.383296,-0.8048377 -4.927316,0 L 2.869682,6.2073689 C 1.1061404,7.1266519 0,8.9514639 0,10.941566 v 10.203992 c 0,1.989999 1.1061415,3.814834 2.869682,4.734185 l 10.666602,5.560125 c 0.478759,0.249524 0.985829,0.42168 1.503674,0.516584 v -7.272978 c 0,-4.241442 -3.438428,-7.679986 -7.6799627,-7.679986 H 3.8399931 v -1.919967 h 3.5200022 c 4.2415347,0 7.6799627,-3.43843 7.6799627,-7.6799871 v -3.520002 h 1.920084 v 3.520002 c 0,4.2415571 3.438428,7.6799871 7.679985,7.6799871 H 32 V 10.941566 C 32,8.9514639 30.89382,7.1266519 29.130306,6.2073689 Z M 32,17.003488 h -7.359973 c -4.241557,0 -7.679985,3.438544 -7.679985,7.679986 v 7.272978 c 0.517844,-0.0949 1.024915,-0.26706 1.503558,-0.516584 L 29.130306,25.879743 C 30.89382,24.960392 32,23.135557 32,21.145558 Z" fill="currentColor" id="path1" style="stroke-width:0.638258" />
  <defs id="defs11" />
</svg>
