<?xml version="1.0" encoding="UTF-8" standalone="no"?>
<!DOCTYPE svg PUBLIC "-//W3C//DTD SVG 1.1//EN" "http://www.w3.org/Graphics/SVG/1.1/DTD/svg11.dtd">
<!-- Created with Vectornator (http://vectornator.io/) -->
<svg height="100%" stroke-miterlimit="10" style="fill-rule:nonzero;clip-rule:evenodd;stroke-linecap:round;stroke-linejoin:round;" version="1.1" viewBox="0 0 151.588 80" width="100%" xml:space="preserve" xmlns="http://www.w3.org/2000/svg" xmlns:xlink="http://www.w3.org/1999/xlink">
<defs/>
<clipPath id="ArtboardFrame">
<rect height="80" width="151.588" x="0" y="0"/>
</clipPath>
<g clip-path="url(#ArtboardFrame)" id="b">
<g opacity="1">
<clipPath clip-rule="nonzero" id="ClipPath">
<path d="M0 14.93L169.1 14.93L169.1 14.93L169.1 64.93L169.1 64.93L0 64.93L0 64.93L0 14.93L0 14.93Z"/>
</clipPath>
<g clip-path="url(#ClipPath)">
<path d="M20.14 62.16C20.14 62.93 20.76 63.55 21.53 63.55L25.7 63.55C26.47 63.55 27.09 62.93 27.09 62.16L27.09 39.59C38.13 37.97 46.53 28.85 47.23 17.72C47.23 16.95 46.61 16.33 45.84 16.33L41.67 16.33C41.25 16.22 40.8 16.32 40.45 16.59C40.11 16.86 39.92 17.28 39.93 17.72C39.21 26.19 32.11 32.68 23.61 32.65C15.18 32.52 8.17 26.11 7.29 17.72C7.29 16.95 6.67 16.33 5.9 16.33L1.39 16.33C0.62 16.33 0 16.95 0 17.72C0.7 28.85 9.1 37.98 20.14 39.59C20.14 39.59 20.14 62.16 20.14 62.16Z" fill="#000000" fill-rule="nonzero" opacity="1" stroke="none"/>
<path d="M72.57 14.93C65.06 14.89 57.94 18.23 53.16 24.01C48.38 29.8 46.46 37.43 47.92 44.79C49.34 52.15 53.98 58.48 60.58 62.05C67.17 65.62 75.02 66.03 81.95 63.19C89.78 60.07 95.5 53.21 97.18 44.95C98.86 36.69 96.27 28.15 90.28 22.21C85.58 17.53 79.21 14.9 72.57 14.92L72.57 14.93ZM72.57 57.64C67.25 57.62 62.21 55.25 58.79 51.17C55.38 47.09 53.94 41.71 54.86 36.46C55.81 31.16 59.11 26.59 63.84 24.02C68.57 21.45 74.21 21.18 79.16 23.26C84.63 25.59 88.6 30.46 89.78 36.29C90.96 42.12 89.19 48.15 85.06 52.43C81.73 55.72 77.24 57.59 72.56 57.64L72.57 57.64Z" fill="#000000" fill-rule="nonzero" opacity="1" stroke="none"/>
<path d="M110.42 39.93C110.42 44.32 112.19 48.52 115.32 51.59C118.46 54.66 122.7 56.34 127.08 56.25C136.02 56.07 143.22 48.87 143.4 39.93L143.4 17.71C143.4 16.94 144.02 16.32 144.79 16.32L149.3 16.32C150.07 16.32 150.69 16.94 150.69 17.71L150.69 39.93C150.69 52.97 140.12 63.54 127.08 63.54C120.76 63.63 114.66 61.19 110.16 56.75C105.66 52.31 103.12 46.25 103.12 39.93L103.12 17.71C103.12 16.94 103.74 16.32 104.51 16.32L109.02 16.32C109.79 16.32 110.41 16.94 110.41 17.71L110.41 39.93L110.42 39.93Z" fill="#000000" fill-rule="nonzero" opacity="1" stroke="none"/>
</g>
</g>
</g>
</svg>
