<?xml version="1.0" encoding="UTF-8" standalone="no"?>
<!DOCTYPE svg PUBLIC "-//W3C//DTD SVG 1.1//EN" "http://www.w3.org/Graphics/SVG/1.1/DTD/svg11.dtd">
<!-- Created with Vectornator (http://vectornator.io/) -->
<svg height="100%" stroke-miterlimit="10" style="fill-rule:nonzero;clip-rule:evenodd;stroke-linecap:round;stroke-linejoin:round;" version="1.1" viewBox="0 0 200 80" width="100%" xml:space="preserve" xmlns="http://www.w3.org/2000/svg" xmlns:xlink="http://www.w3.org/1999/xlink">
<defs/>
<path d="M0 0L200 0L200 80L0 80L0 0Z" fill="#000000" fill-opacity="0" fill-rule="nonzero" opacity="1" stroke="none"/>
<clipPath id="ArtboardFrame">
<rect height="80" width="200" x="0" y="0"/>
</clipPath>
<g clip-path="url(#ArtboardFrame)" id="Sem-Título">
<g opacity="1">
<clipPath id="ClipPath">
<path d="M-1.42109e-14 10.4312L200 10.4312L200 69.5688L-1.42109e-14 69.5688L-1.42109e-14 10.4312Z"/>
</clipPath>
<g clip-path="url(#ClipPath)">
<path d="M23.8193 66.2834C23.8193 67.1906 24.5548 67.9261 25.462 67.9261L30.3901 67.9261C31.2974 67.9261 32.0329 67.1906 32.0329 66.2834L32.0329 39.5893C45.0878 37.6751 55.0216 26.885 55.8522 13.7166C55.8522 12.8094 55.1167 12.0739 54.2094 12.0739L49.2813 12.0739C48.7804 11.9443 48.2477 12.0583 47.8436 12.3815C47.4396 12.7047 47.2114 13.1995 47.2279 13.7166C46.3726 23.7305 37.9763 31.4122 27.9261 31.3758C17.9504 31.2221 9.66231 23.6394 8.62423 13.7166C8.62423 12.8094 7.88876 12.0739 6.98152 12.0739L1.64271 12.0739C0.735467 12.0739-1.42109e-14 12.8094-1.42109e-14 13.7166C0.830595 26.885 10.7644 37.6751 23.8193 39.5893L23.8193 66.2834Z" fill="#000000" fill-rule="nonzero" opacity="1" stroke="none"/>
<path d="M85.8316 10.4312C76.955 10.385 68.5272 14.3293 62.8758 21.1746C57.2244 28.02 54.9474 37.0422 56.6735 45.7495C58.3508 54.4539 63.8449 61.9466 71.6422 66.1635C79.4395 70.3804 88.7173 70.8766 96.9199 67.5154C106.175 63.8209 112.947 55.7126 114.934 45.9469C116.92 36.1812 113.853 26.0718 106.776 19.0554C101.216 13.5146 93.6811 10.412 85.8316 10.4312ZM85.8316 60.9446C79.5368 60.9185 73.5741 58.1166 69.5365 53.2872C65.4988 48.4578 63.7975 42.0931 64.8871 35.8932C66.0098 29.6304 69.9186 24.2175 75.5105 21.1819C81.1023 18.1463 87.7709 17.8172 93.6345 20.2875C100.105 23.0426 104.804 28.8068 106.199 35.6996C107.594 42.5924 105.506 49.7301 100.616 54.7844C96.6737 58.6781 91.3723 60.887 85.8316 60.9446Z" fill="#000000" fill-rule="nonzero" opacity="1" stroke="none"/>
<path d="M130.595 40C130.594 45.1911 132.684 50.1639 136.393 53.7957C140.102 57.4276 145.118 59.4123 150.308 59.3018C160.877 59.0839 169.392 50.5685 169.61 40L169.61 13.7166C169.61 12.8094 170.345 12.0739 171.253 12.0739L176.591 12.0739C177.499 12.0739 178.234 12.8094 178.234 13.7166L178.234 40C178.234 55.4231 165.731 67.9261 150.308 67.9261C142.831 68.0361 135.622 65.1425 130.295 59.8933C124.969 54.6442 121.97 47.4782 121.971 40L121.971 13.7166C121.971 12.8094 122.707 12.0739 123.614 12.0739L128.953 12.0739C129.86 12.0739 130.595 12.8094 130.595 13.7166C130.595 13.7166 130.595 40 130.595 40Z" fill="#000000" fill-rule="nonzero" opacity="1" stroke="none"/>
<path d="M188.912 23.5729C187.664 23.5476 186.473 24.091 185.674 25.0497C184.875 26.0084 184.555 27.2784 184.805 28.501C185.116 30.17 186.421 31.4756 188.09 31.7864C189.313 32.0363 190.583 31.7166 191.542 30.9177C192.5 30.1188 193.044 28.9273 193.018 27.6797C193.018 25.4116 191.18 23.5729 188.912 23.5729ZM188.912 30.1437C187.92 30.1637 187.056 29.4725 186.858 28.501C186.593 27.9036 186.627 27.2153 186.952 26.6476C187.276 26.0799 187.851 25.7006 188.501 25.6263C189.165 25.3336 189.933 25.4126 190.523 25.8341C191.113 26.2556 191.437 26.9571 191.376 27.6797C191.536 28.3701 191.329 29.0942 190.827 29.5954C190.326 30.0965 189.602 30.3038 188.912 30.1437ZM191.786 39.5893C191.106 39.5893 190.554 40.1409 190.554 40.8214C190.647 41.1596 190.879 41.4426 191.192 41.5994C191.506 41.7561 191.871 41.7719 192.197 41.6427C192.715 41.4607 193.05 40.9584 193.018 40.4107C192.836 39.8931 192.334 39.5583 191.786 39.5893ZM191.376 32.6078L190.965 33.0185C190.738 33.0185 190.554 33.2023 190.554 33.4292C190.554 33.656 190.738 33.8398 190.965 33.8398C191.759 34.7471 191.667 36.1261 190.76 36.9199C189.853 37.7138 188.474 37.6218 187.68 36.7146C186.772 36.0341 186.589 34.7471 187.269 33.8398C187.496 33.7264 187.588 33.4506 187.474 33.2238C187.361 32.997 187.085 32.9051 186.858 33.0185L186.448 32.6078C186.448 32.381 186.264 32.1971 186.037 32.1971C185.81 32.1971 185.626 32.381 185.626 32.6078C184.693 33.8522 184.543 35.5172 185.238 36.9085C185.934 38.2998 187.356 39.1786 188.912 39.1786C190.076 39.1845 191.188 38.6959 191.971 37.8344C192.754 36.973 193.135 35.8196 193.018 34.6612L192.197 32.6078C192.197 32.381 192.013 32.1971 191.786 32.1971C191.56 32.1971 191.376 32.381 191.376 32.6078ZM188.09 13.7166L192.608 13.7166C192.835 13.7166 193.018 13.5328 193.018 13.306L193.018 12.4846C193.018 12.2578 192.835 12.0739 192.608 12.0739L188.09 12.0739C187.143 12.0665 186.238 12.4684 185.609 13.1765C184.98 13.8846 184.686 14.83 184.805 15.77L186.037 17.4127C185.009 18.3473 184.681 19.827 185.216 21.1088C184.989 21.1088 184.805 21.2927 184.805 21.5195L184.805 22.3409C184.805 22.5677 184.989 22.7515 185.216 22.7515L192.608 22.7515C192.835 22.7515 193.018 22.5677 193.018 22.3409L193.018 21.5195C193.018 21.2927 192.835 21.1088 192.608 21.1088L188.09 21.1088C187.41 21.1088 186.858 20.5572 186.858 19.8768C186.72 19.4877 186.786 19.0552 187.034 18.7248C187.281 18.3945 187.678 18.2102 188.09 18.2341L192.608 18.2341C192.835 18.2341 193.018 18.0502 193.018 17.8234L193.018 17.0021C193.018 16.7752 192.835 16.5914 192.608 16.5914L188.09 16.5914C187.41 16.5914 186.858 16.0398 186.858 15.3593C186.72 14.9703 186.786 14.5377 187.034 14.2074C187.281 13.877 187.678 13.6928 188.09 13.7166Z" fill="#000000" fill-rule="nonzero" opacity="1" stroke="none"/>
</g>
</g>
</g>
</svg>
