<?xml version="1.0" encoding="UTF-8"?><svg id="a" xmlns="http://www.w3.org/2000/svg" xmlns:xlink="http://www.w3.org/1999/xlink" viewBox="0 0 169.1 80"><defs><clipPath id="c"><rect y="14.93" width="169.1" height="50" style="fill:none; stroke-width:0px;"/></clipPath></defs><g id="b"><g style="clip-path:url(#c);"><path d="m20.14,62.16c0,.77.62,1.39,1.39,1.39h4.17c.77,0,1.39-.62,1.39-1.39v-22.57c11.04-1.62,19.44-10.74,20.14-21.87,0-.77-.62-1.39-1.39-1.39h-4.17c-.42-.11-.87-.01-1.22.26-.34.27-.53.69-.52,1.13-.72,8.47-7.82,14.96-16.32,14.93-8.43-.13-15.44-6.54-16.32-14.93,0-.77-.62-1.39-1.39-1.39H1.39c-.77,0-1.39.62-1.39,1.39.7,11.13,9.1,20.26,20.14,21.87v22.57Z" style="stroke-width:0px;"/><path d="m72.57,14.93c-7.51-.04-14.63,3.3-19.41,9.08-4.78,5.79-6.7,13.42-5.24,20.78,1.42,7.36,6.06,13.69,12.66,17.26,6.59,3.57,14.44,3.98,21.37,1.14,7.83-3.12,13.55-9.98,15.23-18.24,1.68-8.26-.91-16.8-6.9-22.74-4.7-4.68-11.07-7.31-17.71-7.29Zm0,42.71c-5.32-.02-10.36-2.39-13.78-6.47-3.41-4.08-4.85-9.46-3.93-14.71.95-5.3,4.25-9.87,8.98-12.44,4.73-2.57,10.37-2.84,15.32-.76,5.47,2.33,9.44,7.2,10.62,13.03,1.18,5.83-.59,11.86-4.72,16.14-3.33,3.29-7.82,5.16-12.5,5.21Z" style="stroke-width:0px;"/><path d="m110.42,39.93c0,4.39,1.77,8.59,4.9,11.66,3.14,3.07,7.38,4.75,11.76,4.66,8.94-.18,16.14-7.38,16.32-16.32v-22.22c0-.77.62-1.39,1.39-1.39h4.51c.77,0,1.39.62,1.39,1.39v22.22c0,13.04-10.57,23.61-23.61,23.61-6.32.09-12.42-2.35-16.92-6.79-4.5-4.44-7.04-10.5-7.04-16.82v-22.22c0-.77.62-1.39,1.39-1.39h4.51c.77,0,1.39.62,1.39,1.39v22.22Z" style="stroke-width:0px;"/><path d="m159.72,26.05c-1.06-.02-2.06.44-2.74,1.25-.68.81-.95,1.88-.73,2.92.26,1.41,1.37,2.51,2.78,2.78,1.03.21,2.11-.06,2.92-.73.81-.68,1.27-1.68,1.25-2.74,0-1.92-1.55-3.47-3.47-3.47Zm0,5.56c-.84.02-1.57-.57-1.74-1.39-.22-.51-.2-1.09.08-1.57.27-.48.76-.8,1.31-.86.56-.25,1.21-.18,1.71.18.5.36.77.95.72,1.56.14.58-.04,1.2-.46,1.62-.42.42-1.04.6-1.62.46Zm2.43,7.99c-.57,0-1.04.47-1.04,1.04.08.29.27.53.54.66.27.13.57.15.85.04.44-.15.72-.58.69-1.04-.15-.44-.58-.72-1.04-.69Zm-.35-5.9l-.35.35c-.19,0-.35.16-.35.35s.16.35.35.35c.67.77.59,1.93-.17,2.6-.77.67-1.93.59-2.6-.17-.77-.58-.92-1.66-.35-2.43.19-.1.27-.33.17-.52-.1-.19-.33-.27-.52-.17l-.35-.35c0-.19-.16-.35-.35-.35s-.35.16-.35.35c-.79,1.05-.92,2.46-.33,3.64.59,1.18,1.79,1.92,3.11,1.92.98,0,1.92-.41,2.59-1.14.66-.73.98-1.7.89-2.68l-.69-1.74c0-.19-.16-.35-.35-.35s-.35.16-.35.35Zm-2.78-15.97h3.82c.19,0,.35-.16.35-.35v-.69c0-.19-.15-.35-.35-.35h-3.82c-.8,0-1.57.33-2.1.93-.53.6-.78,1.4-.68,2.19l1.04,1.39c-.87.79-1.15,2.04-.69,3.13-.19,0-.35.16-.35.35v.69c0,.19.16.35.35.35h6.25c.19,0,.35-.16.35-.35v-.69c0-.19-.15-.35-.35-.35h-3.82c-.57,0-1.04-.47-1.04-1.04-.12-.33-.06-.69.15-.97.21-.28.54-.44.89-.41h3.82c.19,0,.35-.16.35-.35v-.69c0-.19-.15-.35-.35-.35h-3.82c-.57,0-1.04-.47-1.04-1.04-.12-.33-.06-.69.15-.97.21-.28.54-.44.89-.41Z" style="stroke-width:0px;"/></g></g></svg>