<?xml version="1.0" encoding="UTF-8" standalone="no"?>
<svg id="Camada_1" data-name="Camada 1" viewBox="0 0 32 32" version="1.1" sodipodi:docname="youtube-music.svg" width="32" height="32" inkscape:version="1.4-beta2 (9aaf4f34, 2024-07-30)" xmlns:inkscape="http://www.inkscape.org/namespaces/inkscape" xmlns:sodipodi="http://sodipodi.sourceforge.net/DTD/sodipodi-0.dtd" xmlns="http://www.w3.org/2000/svg" xmlns:svg="http://www.w3.org/2000/svg">
  <defs id="defs3" />
  <sodipodi:namedview id="namedview3" pagecolor="#ffffff" bordercolor="#000000" borderopacity="0.25" inkscape:showpageshadow="2" inkscape:pageopacity="0.0" inkscape:pagecheckerboard="0" inkscape:deskcolor="#d1d1d1" inkscape:zoom="0.21666667" inkscape:cx="147.69231" inkscape:cy="57.692308" inkscape:window-width="1440" inkscape:window-height="790" inkscape:window-x="0" inkscape:window-y="0" inkscape:window-maximized="1" inkscape:current-layer="Camada_1" />
  <g id="g3" transform="matrix(0.346658,0,0,0.346658,0,-4.79948)">
    <path d="M 46.16,35 A 25,25 0 1 0 71.57,60 25.24,25.24 0 0 0 46.16,35 Z M 36.92,73.43 V 46.57 L 60.9,60 Z" id="path2" />
    <path d="M 46.16,14.53 C 20.66,14.53 0,34.89 0,60 c 0,25.11 20.66,45.47 46.16,45.47 25.5,0 46.15,-20.36 46.15,-45.47 0,-25.11 -20.66,-45.47 -46.15,-45.47 z m 0,75 A 29.56,29.56 0 1 1 76.12,60 29.8,29.8 0 0 1 46.16,89.56 Z" id="path3" />
  </g>
</svg>
