<?xml version="1.0" encoding="UTF-8" standalone="no"?>
<svg id="Layer_1" data-name="Layer 1" viewBox="0 0 32 32" version="1.1" sodipodi:docname="youtube.svg" width="32" height="32" inkscape:version="1.4-beta2 (9aaf4f34, 2024-07-30)" xmlns:inkscape="http://www.inkscape.org/namespaces/inkscape" xmlns:sodipodi="http://sodipodi.sourceforge.net/DTD/sodipodi-0.dtd" xmlns="http://www.w3.org/2000/svg" xmlns:svg="http://www.w3.org/2000/svg" xmlns:rdf="http://www.w3.org/1999/02/22-rdf-syntax-ns#" xmlns:cc="http://creativecommons.org/ns#" xmlns:dc="http://purl.org/dc/elements/1.1/">
  <sodipodi:namedview id="namedview8" pagecolor="#ffffff" bordercolor="#000000" borderopacity="0.25" inkscape:showpageshadow="2" inkscape:pageopacity="0.0" inkscape:pagecheckerboard="0" inkscape:deskcolor="#d1d1d1" inkscape:zoom="1.6012641" inkscape:cx="117.71949" inkscape:cy="65.260938" inkscape:window-width="1440" inkscape:window-height="790" inkscape:window-x="0" inkscape:window-y="0" inkscape:window-maximized="1" inkscape:current-layer="Layer_1" />
  <defs id="defs1">
    <style id="style1">.cls-1{fill:#000;}</style>
  </defs>
  <title id="title1">youtube</title>
  <path class="cls-1" d="M 31.330296,8.28458 A 3.9765376,3.9765376 0 0 0 28.518603,5.472887 C 26.008162,4.803436 15.999873,4.803436 15.999873,4.803436 c 0,0 -10.0082886,0 -12.518729,0.669451 A 4.0803025,4.0803025 0 0 0 0.66945075,8.318053 C -2.3877721e-8,10.828493 -2.3877721e-8,16.016736 -2.3877721e-8,16.016736 c 0,0 0,5.221716 0.669450773877721,7.698684 A 3.9765376,3.9765376 0 0 0 3.481144,26.527114 c 2.5439129,0.66945 12.518729,0.66945 12.518729,0.66945 0,0 10.008289,0 12.51873,-0.66945 a 3.9765376,3.9765376 0 0 0 2.811693,-2.811694 c 0.669451,-2.51044 0.669451,-7.698684 0.669451,-7.698684 0,0 0.03347,-5.221716 -0.669451,-7.732156 z M 12.819982,20.769837 v -9.573146 l 8.30119,4.786573 z" id="path1" style="stroke-width:0.334725" />
  <metadata id="metadata8">
    <rdf:RDF>
      <cc:Work rdf:about="">
        <dc:title>youtube</dc:title>
      </cc:Work>
    </rdf:RDF>
  </metadata>
</svg>
