<svg id="Camada_1" data-name="Camada 1" xmlns="http://www.w3.org/2000/svg" viewBox="0 0 300 120"><path d="M141.85,51.06c-2.19,10.82-3.86,24-4.74,29.46h-.61c-.71-5.61-2.38-18.72-4.65-29.36l-5.62-26.49H109.1V96.1h10.62V37.21l1,5.5,10.8,53.38h10.62l10.63-53.38L154,37.18V96.1h10.63V24.67H147.29ZM193.3,85.37a6,6,0,0,1-5.18,3.32c-2.46,0-3.43-1.87-3.43-6.46V43.91H172.57v39c0,9.63,3.24,14,10.45,14,4.91,0,8.86-2.13,11.59-7.24h.27l1.05,6.38h9.48V43.91H193.29V85.37Zm35.55-20.86c-3.95-2.81-6.41-4.68-6.41-8.77,0-2.89,1.41-4.51,4.74-4.51s4.57,2.29,4.65,10.13L242,60.94c.79-12.68-3.52-18-14.67-18C217,43,211.9,47.49,211.9,56.77c0,8.43,4.22,12.26,11.07,17.29,5.88,4.42,9.31,6.89,9.31,10.47,0,2.73-1.76,4.6-4.83,4.6-3.6,0-5.72-3.33-5.18-9.12L212,80.18c-1.58,10.81,2.91,17.11,14.84,17.11,10.45,0,15.9-4.69,15.9-14.05C242.72,74.73,238.34,71.32,228.85,64.51ZM261,43.91h-11.6V96.09H261V43.91ZM255.28,23.3c-4.48,0-6.59,1.62-6.59,7.24,0,5.79,2.1,7.24,6.59,7.24s6.58-1.45,6.58-7.24C261.86,25.19,259.85,23.3,255.28,23.3Zm44.68,54-10.62-.51c0,9.19-1,12.17-4.64,12.17s-4.22-3.32-4.22-14.13V64.69c0-10.48.71-13.79,4.31-13.79,3.33,0,4.21,3.14,4.21,12.86l10.53-.68c.71-8.09-.35-13.62-3.6-16.77-2.37-2.3-6-3.4-11-3.4-11.76,0-16.6,6.13-16.6,23.32v7.32c0,17.71,4.13,23.42,16.16,23.42,5.1,0,8.6-1,11-3.24,3.41-3.08,4.73-8.36,4.47-16.45Z"/><path d="M46.16,35A25,25,0,1,0,71.57,60,25.24,25.24,0,0,0,46.16,35ZM36.92,73.43V46.57L60.9,60Z"/><path d="M46.16,14.53C20.66,14.53,0,34.89,0,60s20.66,45.47,46.16,45.47S92.31,85.11,92.31,60,71.65,14.53,46.16,14.53Zm0,75A29.56,29.56,0,1,1,76.12,60,29.8,29.8,0,0,1,46.16,89.56Z"/></svg>