<svg viewBox="0 0 32 32" version="1.1" width="32" height="32" xmlns="http://www.w3.org/2000/svg" xmlns:svg="http://www.w3.org/2000/svg">
  <path fill="#000" d="M 31.330296,8.28458 A 3.9765376,3.9765376 0 0 0 28.518603,5.472887 C 26.008162,4.803436 15.999873,4.803436 15.999873,4.803436 c 0,0 -10.0082886,0 -12.518729,0.669451 A 4.0803025,4.0803025 0 0 0 0.66945075,8.318053 C -2.3877721e-8,10.828493 -2.3877721e-8,16.016736 -2.3877721e-8,16.016736 c 0,0 0,5.221716 0.669450773877721,7.698684 A 3.9765376,3.9765376 0 0 0 3.481144,26.527114 c 2.5439129,0.66945 12.518729,0.66945 12.518729,0.66945 0,0 10.008289,0 12.51873,-0.66945 a 3.9765376,3.9765376 0 0 0 2.811693,-2.811694 c 0.669451,-2.51044 0.669451,-7.698684 0.669451,-7.698684 0,0 0.03347,-5.221716 -0.669451,-7.732156 z M 12.819982,20.769837 v -9.573146 l 8.30119,4.786573 z" />
</svg>
