<svg width="32" height="32" xmlns="http://www.w3.org/2000/svg">
  <path d="M24.249 8.806a1.147 1.147 0 0 0-.664.033l-.9.298V.797A.806.806 0 0 0 21.889 0H10.092a.806.806 0 0 0-.796.796v8.375L8.4 8.89a1.166 1.166 0 0 0-.668-.033c-.332.033-1.061.379-1.061 1.678v6.976a1.422 1.422 0 0 0 1.393 1.294h2.99a3.341 3.341 0 0 0 2.427 1.066 2.488 2.488 0 0 0 1.53 2.26v1.958a.071.071 0 0 1-.066.066c-4.19.133-6.853 1.465-7.61 1.896a1.341 1.341 0 0 0-.565 1.194v1.55a1.024 1.024 0 0 0 1.029.948.995.995 0 0 0 .199-1.962.071.071 0 0 1-.067-.066v-.57a.365.365 0 0 1 .2-.33c1.132-.631 4.023-.949 6.217-1.062h.63a.071.071 0 0 1 .067.066c.1 1.758.299 3.256.365 4.185h-.066c-.365 0-.697.431-.697.995 0 .564.332 1 .697 1h1.327c.365 0 .701-.431.701-1s-.336-.995-.701-.995h-.048s.232-2.427.365-4.185a.071.071 0 0 1 .067-.066h.635c2.19.1 5.08.43 6.213 1.061a.365.365 0 0 1 .199.332v.564a.071.071 0 0 1-.066.066.986.986 0 0 0-.778 1.02 1.01 1.01 0 0 0 .948.947 1.019 1.019 0 0 0 1.029-.948v-1.55a1.374 1.374 0 0 0-.555-1.194 17.299 17.299 0 0 0-7.611-1.929.071.071 0 0 1-.067-.066V22.1a2.488 2.488 0 0 0 1.517-2.261 3.63 3.63 0 0 0 2.427-1.066h2.99a1.422 1.422 0 0 0 1.393-1.294v-6.977c-.019-1.298-.748-1.611-1.08-1.696ZM9.296 16.052l-1.365 1.029c-.033.033-.066 0-.066-.034v-6.545c0-.265.033-.602.166-.568l1.199.402c.033 0 .066.067.066.1zm14.787 1.029-1.365-1.029V10.47c0-.033.033-.066.066-.1l1.2-.397c.165-.038.165.298.165.564v6.545a.047.047 0 0 1-.066 0z" style="stroke-width:.473934;fill-rule:evenodd"/>
</svg>