<?xml version="1.0" encoding="UTF-8" standalone="no"?>
<svg id="Camada_1" data-name="Camada 1" viewBox="0 0 32 32" version="1.1" width="32" height="32" xmlns="http://www.w3.org/2000/svg" xmlns:svg="http://www.w3.org/2000/svg" xmlns:rdf="http://www.w3.org/1999/02/22-rdf-syntax-ns#" xmlns:cc="http://creativecommons.org/ns#" xmlns:dc="http://purl.org/dc/elements/1.1/">
  <defs id="defs1">
    <style id="style1">.cls-1{fill-rule:evenodd;}</style>
  </defs>
  <title id="title1">ziprecruiter-blacktext</title>
  <path class="cls-1" d="m 24.248815,8.8056865 a 1.1469194,1.1469194 0 0 0 -0.663507,0.03318 l -0.900474,0.298578 V 0.7962085 A 0.8056872,0.8056872 0 0 0 21.888624,-5e-7 H 10.092416 a 0.8056872,0.8056872 0 0 0 -0.7962081,0.796209 v 8.374407 L 8.4004733,8.8909945 A 1.1658768,1.1658768 0 0 0 7.7322269,8.8578195 c -0.3317536,0.03317 -1.0616114,0.379147 -1.0616114,1.6777255 v 6.976303 a 1.4218009,1.4218009 0 0 0 1.3933649,1.293838 h 2.9905216 a 3.3412322,3.3412322 0 0 0 2.42654,1.066351 2.4881517,2.4881517 0 0 0 1.530806,2.260663 v 1.957346 a 0.07109005,0.07109005 0 0 1 -0.06635,0.06635 c -4.189574,0.132703 -6.8530816,1.464456 -7.6113754,1.895736 a 1.3412322,1.3412322 0 0 0 -0.563981,1.194313 v 1.549764 a 1.0236967,1.0236967 0 0 0 1.028436,0.947867 0.99526066,0.99526066 0 0 0 0.1990521,-1.962085 0.07109005,0.07109005 0 0 1 -0.066351,-0.06635 V 27.14692 A 0.36492891,0.36492891 0 0 1 8.1303308,26.815166 C 9.2630323,26.184834 12.154028,25.8673 14.34834,25.753555 h 0.630332 a 0.07109005,0.07109005 0 0 1 0.06635,0.06635 c 0.09953,1.758294 0.298578,3.255924 0.364929,4.184834 h -0.06635 c -0.364929,0 -0.696682,0.43128 -0.696682,0.995261 0,0.563981 0.331753,1 0.696682,1 h 1.327014 c 0.364929,0 0.701422,-0.43128 0.701422,-1 0,-0.56872 -0.336493,-0.995261 -0.701422,-0.995261 h -0.04739 c 0,0 0.232227,-2.42654 0.364929,-4.184834 a 0.07109005,0.07109005 0 0 1 0.06635,-0.06635 h 0.635071 c 2.189574,0.09953 5.080569,0.431279 6.213271,1.061611 a 0.36492891,0.36492891 0 0 1 0.199052,0.331753 v 0.56398 a 0.07109005,0.07109005 0 0 1 -0.06635,0.06635 0.98578199,0.98578199 0 0 0 -0.777251,1.018958 1.0094787,1.0094787 0 0 0 0.947866,0.947867 1.0189573,1.0189573 0 0 0 1.028436,-0.947867 v -1.549764 a 1.3744076,1.3744076 0 0 0 -0.554502,-1.194312 17.298578,17.298578 0 0 0 -7.611374,-1.92891 0.07109005,0.07109005 0 0 1 -0.06635,-0.06635 v -1.957346 a 2.4881517,2.4881517 0 0 0 1.516586,-2.260663 3.6303318,3.6303318 0 0 0 2.426541,-1.066351 h 2.990521 a 1.4218009,1.4218009 0 0 0 1.393365,-1.293839 V 10.50237 C 25.310426,9.2037905 24.58057,8.8909945 24.248817,8.8056865 Z M 9.2962079,16.052132 7.931279,17.080568 c -0.033175,0.03317 -0.066351,0 -0.066351,-0.03318 V 10.50237 c 0,-0.265403 0.033175,-0.6018965 0.1658768,-0.5687215 l 1.1990521,0.4028435 c 0.033175,0 0.066351,0.06635 0.066351,0.09953 z m 14.7867291,1.028436 -1.364929,-1.028436 v -5.582939 c 0,-0.03317 0.03318,-0.06635 0.06635,-0.09953 l 1.199053,-0.3981035 c 0.165876,-0.03792 0.165876,0.2985775 0.165876,0.5639805 v 6.545024 a 0.04739336,0.04739336 0 0 1 -0.06635,0 z" id="path2" style="stroke-width:0.473934" />
  <metadata id="metadata2">
    <rdf:RDF>
      <cc:Work rdf:about="">
        <dc:title>ziprecruiter-blacktext</dc:title>
      </cc:Work>
    </rdf:RDF>
  </metadata>
</svg>
