<?xml version="1.0" encoding="UTF-8"?><svg id="a" xmlns="http://www.w3.org/2000/svg" viewBox="0 0 170.74 80"><g id="b"><g id="c"><g id="d"><path id="e" d="m115.15,31.43c4.72.05,8.5,3.91,8.45,8.62-.05,4.72-3.91,8.5-8.62,8.45-4.68-.05-8.45-3.86-8.45-8.54,0-4.72,3.82-8.54,8.54-8.54.03,0,.06,0,.09,0Zm0-10.87c-10.73.08-19.35,8.85-19.27,19.58.08,10.73,8.85,19.35,19.58,19.27,10.67-.08,19.27-8.76,19.27-19.42-.02-10.75-8.76-19.45-19.51-19.42-.02,0-.05,0-.07,0h0Z" style="stroke-width:0px;"/><path d="m61.07,7.5c-17.93-.02-32.51,14.44-32.63,32.37,0,18.02,14.61,32.63,32.63,32.63s32.63-14.61,32.63-32.63c-.12-17.93-14.7-32.39-32.63-32.37Zm.12,49.13c-2.24-.04-4.46-.51-6.52-1.39-1.4-.35-1.98,0-2.22.23l-3.96,3.93c-.91.89-2.14,1.39-3.42,1.39-1.28.02-2.51-.48-3.42-1.39-1.82-1.75-1.87-4.65-.12-6.47.04-.04.08-.08.12-.12l3.69-3.54c.61-.6.8-1.52.46-2.31-1.09-2.2-1.65-4.62-1.63-7.08.04-9.29,7.6-16.79,16.9-16.76,9.29.03,16.84,7.48,17.02,16.76-.04,9.29-7.6,16.79-16.9,16.76Z" style="stroke-width:0px;"/><ellipse cx="61.07" cy="39.87" rx="8.5" ry="8.44" style="stroke-width:0px;"/><path id="f" d="m27.51,24.84c-.79-1.59-2.42-2.58-4.19-2.56H5.02c-.47,0-1.28.23-1.28,1.71v7.34c-.03.29.17.54.46.58h8.16c.41.16.62.62.47,1.03-.01.03-.03.06-.04.09,0,0,0,.12-.11.12l-.47.57-3.03,4.05h0c-3.22,4.41-7.54,11.23-8.34,12.15l.12.11c-1.08,1.44-1.26,3.36-.47,4.98.8,1.58,2.43,2.58,4.2,2.56h20.26c.47,0,1.28-.24,1.28-1.71v-7.33c.03-.29-.18-.54-.46-.57,0,0,0,0,0,0h-10.13c-.44-.17-.66-.66-.49-1.1,0-.02.02-.04.03-.06,0-.06.05-.11.11-.11,0,0,0,0,0,0l.47-.58,3.02-4.05,8.28-12.13.11-.12c1.05-1.46,1.18-3.38.35-4.97Z" style="stroke-width:0px;"/><path id="g" d="m167.59,22.53c-1.84-.66-3.91-.16-5.24,1.27l-8.39,9.48c-.12.13-.32.13-.45.01,0,0,0,0-.01-.01h0l-8.37-9.63c-1.8-1.97-4.86-2.1-6.83-.3-.96.88-1.53,2.12-1.57,3.42v30.09c0,.23.12.58.7.58h6.76c1.11-.03,1.99-.95,1.96-2.07,0-.05,0-.09,0-.14h0v-15.25c.06-.19.27-.3.46-.24,0,0,0,0,0,0l3.5,3.94c.91,1.03,2.23,1.62,3.61,1.61h0c1.38,0,2.7-.58,3.61-1.61l3.5-3.94c.35-.23.46.24.46.24v15.25h0c-.1,1.11.72,2.09,1.83,2.19.05,0,.1,0,.15,0h6.76c.58,0,.7-.35.7-.58v-30.05c-.11-1.92-1.35-3.6-3.15-4.28Z" style="stroke-width:0px;"/></g></g></g></svg>