<svg id="Camada_1" data-name="Camada 1" xmlns="http://www.w3.org/2000/svg" viewBox="0 0 200 80"><g id="Page-1"><g id="Icones_Logo_2cores-fundo-escuro" data-name="Icones/Logo/2cores-fundo-escuro"><g id="logo"><path id="Shape" d="M134.89,30.12a10,10,0,1,1-10.1,10,10,10,0,0,1,10.1-10Zm0-12.73a22.75,22.75,0,1,0,22.93,22.75,22.8,22.8,0,0,0-22.93-22.75Z"/><path d="M71.55,2.09A38.18,38.18,0,0,0,33.33,40a38.22,38.22,0,0,0,76.44,0A38.17,38.17,0,0,0,71.55,2.09Zm.14,57.54A20.23,20.23,0,0,1,64.05,58c-1.64-.41-2.32,0-2.6.27l-4.64,4.6a5.73,5.73,0,0,1-4,1.63,5.49,5.49,0,0,1-4-1.63,5.36,5.36,0,0,1,0-7.72L53.13,51a2.46,2.46,0,0,0,.54-2.71A18.39,18.39,0,0,1,51.76,40,19.72,19.72,0,0,1,71.55,20.37,20,20,0,0,1,91.48,40,19.72,19.72,0,0,1,71.69,59.63Z"/><ellipse cx="71.55" cy="40" rx="9.96" ry="9.88"/><path id="Shape-2" data-name="Shape" d="M32.24,22.4a5.42,5.42,0,0,0-4.91-3H5.9c-.55,0-1.5.27-1.5,2V30a.62.62,0,0,0,.54.68H14.5A.94.94,0,0,1,15,32s0,.14-.13.14l-.55.67-3.55,4.74h0C7,42.71,1.94,50.7,1,51.78l.14.13a5.62,5.62,0,0,0-.55,5.83,5.46,5.46,0,0,0,4.92,3H29.24c.55,0,1.5-.28,1.5-2V50.15a.61.61,0,0,0-.55-.67H18.32a1,1,0,0,1-.55-1.36.13.13,0,0,1,.14-.13l.55-.68L22,42.57l9.7-14.21.13-.14A5.56,5.56,0,0,0,32.24,22.4Z"/><path id="Shape-3" data-name="Shape" d="M196.31,19.69a5.75,5.75,0,0,0-6.14,1.49l-9.83,11.1a.37.37,0,0,1-.54,0h0L170,21a5.66,5.66,0,0,0-9.83,3.66V59.9c0,.27.14.68.82.68h7.92A2.36,2.36,0,0,0,171.2,58h0V40.14a.43.43,0,0,1,.54-.28l4.1,4.61a5.6,5.6,0,0,0,4.23,1.89h0a5.6,5.6,0,0,0,4.23-1.89l4.1-4.61c.41-.27.54.28.54.28V58h0a2.36,2.36,0,0,0,2.32,2.57h7.92c.68,0,.82-.41.82-.68V24.7A5.71,5.71,0,0,0,196.31,19.69Z"/></g></g></g></svg>