<?xml version="1.0" encoding="UTF-8" standalone="no"?>
<svg id="a" viewBox="0 0 31.999999 32" version="1.1" sodipodi:docname="zoom.svg" width="32" height="32" inkscape:version="1.4-beta2 (9aaf4f34, 2024-07-30)" xmlns:inkscape="http://www.inkscape.org/namespaces/inkscape" xmlns:sodipodi="http://sodipodi.sourceforge.net/DTD/sodipodi-0.dtd" xmlns="http://www.w3.org/2000/svg" xmlns:svg="http://www.w3.org/2000/svg">
  <defs id="defs1" />
  <sodipodi:namedview id="namedview1" pagecolor="#ffffff" bordercolor="#000000" borderopacity="0.25" inkscape:showpageshadow="2" inkscape:pageopacity="0.0" inkscape:pagecheckerboard="0" inkscape:deskcolor="#d1d1d1" inkscape:zoom="4.9860728" inkscape:cx="8.0223457" inkscape:cy="40.412567" inkscape:window-width="1440" inkscape:window-height="790" inkscape:window-x="0" inkscape:window-y="0" inkscape:window-maximized="1" inkscape:current-layer="a" />
  <g id="d" transform="matrix(0.49034631,0,0,0.49034631,-13.945449,-3.6138473)">
    <path d="M 61.07,7.5 C 43.14,7.48 28.56,21.94 28.44,39.87 28.44,57.89 43.05,72.5 61.07,72.5 79.09,72.5 93.7,57.89 93.7,39.87 93.58,21.94 79,7.48 61.07,7.5 Z m 0.12,49.13 c -2.24,-0.04 -4.46,-0.51 -6.52,-1.39 -1.4,-0.35 -1.98,0 -2.22,0.23 l -3.96,3.93 c -0.91,0.89 -2.14,1.39 -3.42,1.39 -1.28,0.02 -2.51,-0.48 -3.42,-1.39 -1.82,-1.75 -1.87,-4.65 -0.12,-6.47 0.04,-0.04 0.08,-0.08 0.12,-0.12 l 3.69,-3.54 c 0.61,-0.6 0.8,-1.52 0.46,-2.31 -1.09,-2.2 -1.65,-4.62 -1.63,-7.08 0.04,-9.29 7.6,-16.79 16.9,-16.76 9.29,0.03 16.84,7.48 17.02,16.76 -0.04,9.29 -7.6,16.79 -16.9,16.76 z" style="stroke-width:0px" id="path1" />
    <ellipse cx="61.07" cy="39.869999" rx="8.5" ry="8.4399996" style="stroke-width:0px" id="ellipse1" />
  </g>
</svg>
