<?xml version="1.0" encoding="UTF-8"?><svg xmlns="http://www.w3.org/2000/svg" viewBox="0 0 32 32"><path d="m21.38,0h-10.75C4.76,0,0,4.76,0,10.62v10.75c0,5.87,4.76,10.62,10.62,10.62h10.75c5.87,0,10.62-4.76,10.62-10.62v-10.75c0-5.87-4.76-10.62-10.62-10.62Zm.62,10.4h-3.05c-.77,0-1.27.41-1.34.71l-.64,2.9h3.97c1.09,0,1.98.89,1.98,1.98s-.89,1.98-1.98,1.98h-4.83l-.82,3.75c-.25,1.13-.94,2.13-1.95,2.83-.76.53-1.67.86-2.64.96v.03h-.68c-1.09,0-1.98-.89-1.98-1.98s.89-1.98,1.98-1.98h.06c.77,0,1.27-.41,1.34-.71l.64-2.9h-1.28c-1.09,0-1.98-.89-1.98-1.98s.89-1.98,1.98-1.98h2.15l.82-3.75c.25-1.13.94-2.13,1.95-2.83.92-.64,2.08-.99,3.26-.99h3.05c1.09,0,1.98.89,1.98,1.98s-.89,1.98-1.98,1.98Z"/></svg>