<svg width="100%" height="100%" viewBox="0 0 200 200" version="1.1" xmlns="http://www.w3.org/2000/svg" xmlns:xlink="http://www.w3.org/1999/xlink" xml:space="preserve" xmlns:serif="http://www.serif.com/" style="fill-rule:evenodd;clip-rule:evenodd;stroke-linejoin:round;stroke-miterlimit:2;"><g><path d="M124.404,24.033l0,33.782l29.241,-16.892c27.753,-16.024 52.109,26.16 24.361,42.184l-29.269,16.89l29.275,16.892c27.727,16.008 3.426,58.197 -24.351,42.186l-29.257,-16.895l0,33.787c0,32.04 -48.734,32.048 -48.734,0l0,-33.777l-29.236,16.885c-27.542,15.834 -52.386,-26.008 -24.366,-42.186l29.257,-16.892l-29.254,-16.89c-27.843,-16.075 -3.469,-58.266 24.363,-42.184l29.236,16.882l0,-33.772c0,-32.04 48.734,-32.048 48.734,0Z" style="fill-rule:nonzero;"/></g></svg>