<svg width="100%" height="100%" viewBox="0 0 200 200" version="1.1" xmlns="http://www.w3.org/2000/svg" xmlns:xlink="http://www.w3.org/1999/xlink" xml:space="preserve" xmlns:serif="http://www.serif.com/" style="fill-rule:evenodd;clip-rule:evenodd;stroke-linejoin:round;stroke-miterlimit:2;"><g><path d="M83.938,24.033l0,40.919c0,3.323 -3.744,5.256 -6.433,3.428l-35.204,-20.321c-18.386,-10.635 -34.53,17.263 -16.098,27.913l35.43,20.454c2.763,1.596 2.706,5.585 0,7.134l-35.437,20.462c-18.563,10.712 -2.038,38.359 16.114,27.918l35.43,-20.465c2.773,-1.599 6.186,0.447 6.186,3.57l0.013,40.922c0,21.179 32.199,21.179 32.199,0l0,-40.922c0,-3.387 3.845,-5.292 6.535,-3.364l35.088,20.257c18.368,10.583 34.469,-17.324 16.121,-27.915l-35.425,-20.462c-2.778,-1.588 -2.714,-5.556 0,-7.134l35.425,-20.449c18.586,-10.776 1.984,-38.359 -16.106,-27.918l-35.455,20.46c-2.763,1.586 -6.163,-0.452 -6.163,-3.567l-0.021,-40.919c0,-21.177 -32.199,-21.179 -32.199,0Zm40.467,0l0,33.782l29.241,-16.892c27.753,-16.024 52.109,26.16 24.361,42.184l-29.269,16.89l29.275,16.892c27.727,16.008 3.426,58.197 -24.351,42.186l-29.257,-16.895l0,33.787c0,32.04 -48.734,32.048 -48.734,0l0,-33.777l-29.236,16.885c-27.542,15.834 -52.386,-26.008 -24.366,-42.186l29.257,-16.892l-29.254,-16.89c-27.843,-16.075 -3.469,-58.266 24.363,-42.184l29.236,16.882l0,-33.772c0,-32.04 48.734,-32.048 48.734,0Z" style="fill-rule:nonzero;"/></g></svg>