<svg height="100%" stroke-miterlimit="10" style="fill-rule:nonzero;clip-rule:evenodd;stroke-linecap:round;stroke-linejoin:round;" version="1.1" viewBox="0 0 1024 1024" width="100%" xml:space="preserve" xmlns="http://www.w3.org/2000/svg" xmlns:vectornator="http://vectornator.io" xmlns:xlink="http://www.w3.org/1999/xlink">
<defs>
<linearGradient gradientTransform="matrix(1.13687e-13 940 -940 5.68434e-14 512 42)" gradientUnits="userSpaceOnUse" id="LinearGradient" x1="0" x2="1" y1="0" y2="0">
<stop offset="0" stop-color="#66ebc8"/>
<stop offset="0.241611" stop-color="#eee67c"/>
<stop offset="0.49" stop-color="#ff9494"/>
<stop offset="0.74" stop-color="#c9a4f9"/>
<stop offset="1" stop-color="#5cbeff"/>
</linearGradient>
<filter color-interpolation-filters="sRGB" filterUnits="userSpaceOnUse" height="965" id="Filter" width="965" x="29.5" y="39.5">
<feDropShadow dx="-3.67321e-05" dy="10" flood-color="#000000" flood-opacity="0.103" in="SourceGraphic" result="Shadow" stdDeviation="5"/>
</filter>
</defs>
<g id="Sem-Título" vectornator:layerName="Sem Título">
<g opacity="1" vectornator:layerName="Agrupar 1">
<path d="M982 724.969C982 866.923 866.923 982 724.969 982L299.031 982C157.077 982 42 866.923 42 724.969L42 299.031C42 157.077 157.077 42 299.031 42L724.969 42C866.923 42 982 157.077 982 299.031L982 724.969Z" fill="url(#LinearGradient)" fill-rule="nonzero" filter="url(#Filter)" stroke="none" vectornator:layerName="Retângulo 1" vectornator:shadowAngle="1.5708" vectornator:shadowColor="#000000" vectornator:shadowOffset="10" vectornator:shadowOpacity="0.103" vectornator:shadowRadius="10"/>
<g opacity="1" vectornator:layerName="Agrupar 1">
<path d="M544.159 453.477L372.819 453.477C325.316 453.477 286.81 491.984 286.81 539.487L286.81 567.879C286.81 583.714 299.645 596.551 315.482 596.551L486.816 596.551C534.318 596.551 572.825 558.044 572.825 510.542L572.825 482.149C572.825 466.312 559.988 453.477 544.153 453.477L544.159 453.477Z" fill="#000000" fill-rule="nonzero" opacity="1" stroke="none" vectornator:layerName="path"/>
<path d="M771.19 257L286.813 257L286.813 400.075L771.19 400.075L771.19 257Z" fill="#000000" fill-rule="nonzero" opacity="1" stroke="none" vectornator:layerName="path"/>
<path d="M358.354 643.926L358.349 643.926C318.841 643.926 286.815 675.955 286.815 715.461L286.815 715.466C286.815 754.973 318.841 787 358.349 787L358.354 787C397.861 787 429.888 754.973 429.888 715.466L429.888 715.461C429.888 675.955 397.861 643.926 358.354 643.926Z" fill="#000000" fill-rule="nonzero" opacity="1" stroke="none" vectornator:layerName="path"/>
</g>
</g>
</g>
</svg>
