<svg width="1024" height="1024" viewBox="0 0 1024 1024" fill="none" xmlns="http://www.w3.org/2000/svg">
<g clip-path="url(#clip0_0_1)">
<rect width="1024" height="1024" fill="url(#paint0_linear_0_1)"/>
</g>
<path d="M546.412 466.401H362.381C311.359 466.401 270 507.76 270 558.782V589.277C270 606.286 283.786 620.073 300.796 620.073H484.821C535.843 620.073 577.202 578.714 577.202 527.692V497.197C577.202 480.187 563.415 466.401 546.406 466.401H546.412Z" fill="black"/>
<path d="M790.261 250H270.005V403.672H790.261V250Z" fill="black"/>
<path d="M346.844 676.328H346.839C304.405 676.328 270.006 710.728 270.006 753.161V753.167C270.006 795.601 304.405 830 346.839 830H346.844C389.278 830 423.677 795.601 423.677 753.167V753.161C423.677 710.728 389.278 676.328 346.844 676.328Z" fill="black"/>
<defs>
<linearGradient id="paint0_linear_0_1" x1="512" y1="0" x2="512" y2="1024" gradientUnits="userSpaceOnUse">
<stop stop-color="#66EBC8"/>
<stop offset="0.24" stop-color="#FFF67B"/>
<stop offset="0.49" stop-color="#FF9494"/>
<stop offset="0.74" stop-color="#C9A4F9"/>
<stop offset="1" stop-color="#5CBEFF"/>
</linearGradient>
<clipPath id="clip0_0_1">
<rect width="1024" height="1024" fill="white"/>
</clipPath>
</defs>
</svg>
