<?xml version="1.0" encoding="UTF-8" standalone="no"?>
<svg width="1024" height="1024" viewBox="0 0 1024 1024" fill="none" version="1.1" id="svg7" xml:space="preserve" sodipodi:docname="icon.svg" inkscape:version="1.4-beta2 (9aaf4f34, 2024-07-30)" inkscape:export-filename="/Users/lucasmenezes/Downloads/icon-1024.png" inkscape:export-xdpi="96" inkscape:export-ydpi="96" xmlns:inkscape="http://www.inkscape.org/namespaces/inkscape" xmlns:sodipodi="http://sodipodi.sourceforge.net/DTD/sodipodi-0.dtd" xmlns:xlink="http://www.w3.org/1999/xlink" xmlns="http://www.w3.org/2000/svg" xmlns:svg="http://www.w3.org/2000/svg"><sodipodi:namedview id="namedview1" pagecolor="#ffffff" bordercolor="#000000" borderopacity="0.25" inkscape:showpageshadow="2" inkscape:pageopacity="0.0" inkscape:pagecheckerboard="0" inkscape:deskcolor="#d1d1d1" inkscape:zoom="0.13620339" inkscape:cx="557.98906" inkscape:cy="1325.224" inkscape:window-width="1440" inkscape:window-height="790" inkscape:window-x="0" inkscape:window-y="0" inkscape:window-maximized="1" inkscape:current-layer="g2"><inkscape:page x="0" y="0" width="1024" height="1024" id="page2" margin="0" bleed="0" /></sodipodi:namedview><defs id="defs7"><linearGradient id="paint0_linear_0_1" x1="512" y1="0" x2="512" y2="1024" gradientUnits="userSpaceOnUse"><stop offset="0.09570041" stop-color="#5CBEFF" id="stop10" style="stop-color:#d0abff;stop-opacity:1;" /><stop offset="0.27323166" stop-color="#5CBEFF" id="stop7" style="stop-color:#82cdff;stop-opacity:1;" /><stop offset="0.45076281" stop-color="#5CBEFF" id="stop11" style="stop-color:#71f8ce;stop-opacity:1;" /><stop offset="0.64765602" stop-color="#FFF67B" id="stop4" style="stop-color:#ffff8b;stop-opacity:1;" /><stop offset="0.8987518" stop-color="#FFF67B" id="stop12" style="stop-color:#ff9393;stop-opacity:1;" /></linearGradient><linearGradient xlink:href="#paint0_linear_0_1" id="linearGradient10" x1="-1257.8986" y1="-1112.5081" x2="-1257.8987" y2="-88.50769" gradientUnits="userSpaceOnUse" gradientTransform="translate(1769.8986,88.5077)" spreadMethod="pad" /></defs><g style="fill:#000000" id="g2" transform="matrix(58.593647,0,0,58.593647,212.00053,212.00053)"><rect style="fill:url(#linearGradient10);stroke-width:0.011;stroke-dasharray:none" id="rect9" width="1024" height="1024" x="0" y="-1024" ry="261.97565" transform="matrix(0,0.0170667,-0.0170667,0,-3.6181487,-3.6181487)" /><path d="m 10.239992,5.1199999 a 0.83817249,0.83817249 0 0 1 -0.553334,0.793633 l -2.75722,1.015813 -1.015813,2.75722 a 0.84581033,0.84581033 0 0 1 -1.587265,0 L 3.310547,6.9294459 0.55332604,5.9136329 a 0.84581033,0.84581033 0 0 1 0,-1.587266 L 3.310547,3.3105544 4.32636,0.55333405 a 0.84581033,0.84581033 0 0 1 1.587265,0 l 1.015813,2.75722035 2.75722,1.0158125 a 0.83817249,0.83817249 0 0 1 0.553334,0.793633 z" id="path1-2" style="fill:#000000" /></g></svg>
