<?xml version="1.0" encoding="UTF-8" standalone="no"?>
<svg width="1024" height="1024" viewBox="0 0 1024 1024" fill="none" version="1.1" id="svg7" xml:space="preserve" xmlns:xlink="http://www.w3.org/1999/xlink" xmlns="http://www.w3.org/2000/svg" xmlns:svg="http://www.w3.org/2000/svg"><defs id="defs7"><linearGradient id="linearGradient1"><stop style="stop-color:#000000;stop-opacity:1;" offset="0" id="stop1" /><stop style="stop-color:#000000;stop-opacity:0.48614609;" offset="1" id="stop2" /></linearGradient><linearGradient id="paint0_linear_0_1" x1="512" y1="0" x2="512" y2="1024" gradientUnits="userSpaceOnUse"><stop offset="0" stop-color="#5CBEFF" id="stop10" style="stop-color:#d0abff;stop-opacity:1;" /><stop offset="0.20389254" stop-color="#5CBEFF" id="stop7" style="stop-color:#6ac3ff;stop-opacity:1;" /><stop offset="0.39767504" stop-color="#5CBEFF" id="stop11" style="stop-color:#71f8ce;stop-opacity:1;" /><stop offset="0.64765602" stop-color="#FFF67B" id="stop4" style="stop-color:#ffff8b;stop-opacity:1;" /><stop offset="0.92430705" stop-color="#FFF67B" id="stop12" style="stop-color:#ff9393;stop-opacity:1;" /></linearGradient><linearGradient xlink:href="#paint0_linear_0_1" id="linearGradient10" x1="-745.89819" y1="-600.50781" x2="-1769.8987" y2="-600.50781" gradientUnits="userSpaceOnUse" gradientTransform="translate(1769.8986,88.5077)" spreadMethod="pad" /><linearGradient xlink:href="#linearGradient1" id="linearGradient2" x1="2.5638213" y1="1.1838317" x2="7.6761765" y2="9.0561686" gradientUnits="userSpaceOnUse" /></defs><g style="fill:#000000" id="g2" transform="matrix(58.593647,0,0,58.593647,212.00053,212.00053)"><rect style="fill:url(#linearGradient10);stroke-width:0.011;stroke-dasharray:none" id="rect9" width="1024" height="1024" x="0" y="-1024" ry="261.97565" transform="matrix(0,0.0170667,-0.0170667,0,-3.6181487,-3.6181487)" /><path d="M 9.8133259,5.1200004 A 0.7683248,0.7683248 0 0 1 9.3061038,5.8474973 L 6.7786512,6.7786592 5.8474893,9.3061096 a 0.77532615,0.77532615 0 0 1 -1.4549929,0 L 3.4613345,6.7786592 0.93388215,5.8474973 a 0.77532615,0.77532615 0 0 1 0,-1.4549938 L 3.4613345,3.4613422 4.3924964,0.93389026 a 0.77532615,0.77532615 0 0 1 1.4549929,0 L 6.7786512,3.4613422 9.3061038,4.3925035 a 0.7683248,0.7683248 0 0 1 0.5072221,0.7274969 z" id="path1-2" style="fill:url(#linearGradient2);stroke-width:0.916664" /></g></svg>
