<?xml version="1.0" encoding="UTF-8" standalone="no"?><!DOCTYPE svg PUBLIC "-//W3C//DTD SVG 1.1//EN" "http://www.w3.org/Graphics/SVG/1.1/DTD/svg11.dtd"><svg width="100%" height="100%" viewBox="0 0 1024 1024" version="1.1" xmlns="http://www.w3.org/2000/svg" xmlns:xlink="http://www.w3.org/1999/xlink" xml:space="preserve" xmlns:serif="http://www.serif.com/" style="fill-rule:evenodd;clip-rule:evenodd;stroke-linejoin:round;stroke-miterlimit:2;"><g><g id="rect2"><path d="M1024,280l0,464c0,154.536 -125.464,280 -280,280l-464,0c-154.536,0 -280,-125.464 -280,-280l0,-464c0,-154.536 125.464,-280 280,-280l464,0c154.536,0 280,125.464 280,280Z" style="fill:#8eccff;"/></g><g><path d="M586.923,278.776l0,103.714l89.772,-51.861c85.204,-49.194 159.978,80.312 74.789,129.506l-89.859,51.853l89.875,51.861c85.125,49.147 10.517,178.669 -74.758,129.514l-89.82,-51.869l0,103.73c0,98.365 -149.618,98.388 -149.618,0l0,-103.698l-89.757,51.837c-84.557,48.61 -160.83,-79.847 -74.805,-129.514l89.82,-51.861l-89.812,-51.853c-85.48,-49.352 -10.651,-178.882 74.797,-129.506l89.757,51.829l0,-103.682c0,-98.365 149.618,-98.388 149.618,0Z" style="fill-rule:nonzero;"/></g></g></svg>