<?xml version="1.0" encoding="UTF-8"?><svg id="a" xmlns="http://www.w3.org/2000/svg" xmlns:xlink="http://www.w3.org/1999/xlink" viewBox="0 0 1024 1024"><defs><linearGradient id="Gradiente_sem_nome_133" x1="-582.42" y1="211.47" x2="242.42" y2="1036.31" gradientTransform="translate(-111.89 342) rotate(-90)" gradientUnits="userSpaceOnUse"><stop offset=".1" stop-color="#ffe13c"/><stop offset=".35" stop-color="#ff346c"/><stop offset=".65" stop-color="#00a2ec"/><stop offset=".9" stop-color="#00d05b"/></linearGradient></defs><rect y="0" width="1024" height="1024" rx="339.98" ry="339.98" style="fill:url(#Gradiente_sem_nome_133); stroke-width:0px;"/><path d="m552.59,446.01h-164.99c-45.74,0-82.82,37.08-82.82,82.82v27.34c0,15.25,12.36,27.61,27.61,27.61h164.98c45.74,0,82.83-37.08,82.83-82.82v-27.34c0-15.25-12.36-27.61-27.61-27.61h0Z" style="fill:#fff; stroke-width:0px;"/><rect x="304.79" y="252" width="466.43" height="137.78" style="fill:#fff; stroke-width:0px;"/><path d="m373.68,634.22h0c38.05,0,68.89,30.84,68.89,68.89h0c0,38.05-30.84,68.89-68.89,68.89h0c-38.05,0-68.89-30.84-68.89-68.89h0c0-38.05,30.84-68.89,68.89-68.89Z" style="fill:#fff; stroke-width:0px;"/></svg>