<?xml version="1.0" encoding="UTF-8" standalone="no"?>
<svg width="1024" height="1024" viewBox="0 0 1024 1024" fill="none" version="1.1" id="svg7" xml:space="preserve" xmlns:xlink="http://www.w3.org/1999/xlink" xmlns="http://www.w3.org/2000/svg" xmlns:svg="http://www.w3.org/2000/svg"><defs id="defs7"><linearGradient id="paint0_linear_0_1" x1="512" y1="0" x2="512" y2="1024" gradientUnits="userSpaceOnUse"><stop offset="0" stop-color="#5CBEFF" id="stop10" style="stop-color:#d0abff;stop-opacity:1;" /><stop offset="0.20389254" stop-color="#5CBEFF" id="stop7" style="stop-color:#6ac3ff;stop-opacity:1;" /><stop offset="0.39767504" stop-color="#5CBEFF" id="stop11" style="stop-color:#71f8ce;stop-opacity:1;" /><stop offset="0.64765602" stop-color="#FFF67B" id="stop4" style="stop-color:#ffff8b;stop-opacity:1;" /><stop offset="0.92430705" stop-color="#FFF67B" id="stop12" style="stop-color:#ff9393;stop-opacity:1;" /></linearGradient><linearGradient xlink:href="#paint0_linear_0_1" id="linearGradient10" x1="-745.89819" y1="-600.50781" x2="-1769.8987" y2="-600.50781" gradientUnits="userSpaceOnUse" gradientTransform="translate(1769.8986,88.5077)" spreadMethod="pad" /></defs><g style="fill:#000000" id="g2" transform="matrix(58.593647,0,0,58.593647,212.00053,212.00053)"><rect style="fill:url(#linearGradient10);stroke-width:0.011;stroke-dasharray:none" id="rect9" width="1024" height="1024" x="0" y="-1024" ry="0" transform="matrix(0,0.0170667,-0.0170667,0,-3.6181487,-3.6181487)" /><path d="m 10.666658,5.1200005 a 0.90802015,0.90802015 0 0 1 -0.599445,0.859769 L 7.0802237,7.0802335 5.9797597,10.06722 a 0.91629447,0.91629447 0 0 1 -1.7195369,0 L 3.1597588,7.0802335 0.17276982,5.9797695 a 0.91629447,0.91629447 0 0 1 0,-1.719538 L 3.1597588,3.1597682 4.2602228,0.17277972 a 0.91629447,0.91629447 0 0 1 1.7195369,0 l 1.100464,2.98698848 2.9869893,1.1004633 a 0.90802015,0.90802015 0 0 1 0.599445,0.859769 z" id="path1-2" style="fill:#000000;stroke-width:1.08333" /></g></svg>
