<svg id="Camada_1" data-name="Camada 1" xmlns="http://www.w3.org/2000/svg" xmlns:xlink="http://www.w3.org/1999/xlink" viewBox="0 0 512 512"><defs><style>.cls-1{fill:url(#Gradiente_sem_nome);}.cls-2{fill:#fff;}</style><linearGradient id="Gradiente_sem_nome" x1="23.93" y1="147.67" x2="488.07" y2="364.11" gradientTransform="matrix(1, 0, 0, -1, 0, 511.89)" gradientUnits="userSpaceOnUse"><stop offset="0.05" stop-color="#f3e95b"/><stop offset="0.28" stop-color="#e7345a"/><stop offset="0.48" stop-color="#b54895"/><stop offset="0.72" stop-color="#009ae6"/><stop offset="0.95" stop-color="#00a65b"/></linearGradient></defs><circle class="cls-1" cx="256" cy="256" r="256"/><path class="cls-2" d="M401.39,366.47l-45.82-45.93a137.35,137.35,0,0,0,24.68-78.69v-.34A138.54,138.54,0,0,0,241.74,103.25h-.21c-76.35.12-138.38,62.35-138.26,138.72S165.5,380.23,241.76,380.23H242a137.22,137.22,0,0,0,78.7-24.67l45.89,45.89a24.45,24.45,0,0,0,34.59.24l.24-.24.37-.36A24.54,24.54,0,0,0,401.39,366.47Zm-97.28-62.08h0a89.54,89.54,0,0,1-62.7,25.84H241A89.12,89.12,0,0,1,241.36,152h.4a89,89,0,0,1,62.35,152.38Z"/></svg>