<svg id="Layer_1" data-name="Layer 1" xmlns="http://www.w3.org/2000/svg" viewBox="0 0 48 48"><defs><style>.cls-1{fill:#fff;}</style></defs><title>favicon_new-7483e38</title><path class="cls-1" d="M24.06,3.26A87.6,87.6,0,0,1,0,0V48a87.6,87.6,0,0,1,24.06-3.26A86.34,86.34,0,0,1,48,48V0A86.32,86.32,0,0,1,24.06,3.26Zm13.29,4.1-.29.46c-.27.43-.51.8-.85,1.31-.45.68-1.3,2-2.31,3.74l-1,1.67C32.23,15.68,31.46,17,30.86,18l-.77,1.34-2,3.54-2,3.58v1.19c0,1.65,0,3.45.1,5.06,0,.73.06,2,.09,3.41,0,1.64.08,3.34.12,4.2v.29l-.28-.08-.33-.09a9.68,9.68,0,0,0-1.06-.16l-.67,0h0l-.67,0a9.68,9.68,0,0,0-1.06.16l-.33.09-.28.08v-.29c0-.86.08-2.56.12-4.2,0-1.38.06-2.68.09-3.41.06-1.61.1-3.4.1-5.06V26.49l-2-3.58-2-3.54L17.14,18c-.6-1-1.37-2.34-2.06-3.49l-1-1.67c-1-1.72-1.86-3.06-2.31-3.74-.34-.51-.58-.88-.85-1.31l-.29-.46h0l.52.15a7.46,7.46,0,0,0,2.08.29,7.66,7.66,0,0,0,2.09-.28l.16,0,.08.14c1.3,2.34,4.77,8.05,6.85,11.47L24,21.67h0l1.57-2.58c2.08-3.42,5.56-9.13,6.85-11.47l.08-.14.16,0a7.66,7.66,0,0,0,2.09.28,7.46,7.46,0,0,0,2.08-.29l.52-.15Z"/></svg>