<?xml version="1.0" encoding="utf-8"?>
<svg version="1.1" id="Camada_1" xmlns="http://www.w3.org/2000/svg" xmlns:xlink="http://www.w3.org/1999/xlink" x="0px" y="0px"
	 viewBox="0 0 48 48" style="enable-background:new 0 0 48 48;" xml:space="preserve">
<style type="text/css">
	.st0{fill:#FFFFFF;}
</style>
<path class="st0" d="M43.9,45.6c-1.3,2.6-3.6,3.1-5.9,1.2c-0.8-0.7-1.5-1.6-2.1-2.4c-3.8-5.2-7.5-10.4-11.3-15.6
	c-0.2-0.2-0.4-0.5-0.6-0.8c-0.3,0.4-0.5,0.7-0.7,1c-3.9,5.4-7.8,10.8-11.6,16.3c-0.8,1.2-1.9,1.9-3.3,2.2c-2.4,0.5-5.1-1.9-3.9-4.5
	c0.4-1,0.9-2,1.6-2.9c4.3-5.6,8.6-11.1,12.9-16.6c0.6-0.7,0.5-1.2,0-1.9c-3.8-4.9-7.6-9.8-11.3-14.7C7.1,6.1,6.6,5.4,6.3,4.6
	C5.7,3.4,5.8,2.2,6.8,1.1C7.9,0,9.2-0.3,10.5,0.3c0.9,0.4,1.8,1.1,2.4,1.9c3.5,4.5,6.9,9.2,10.3,13.7c0.2,0.3,0.4,0.5,0.7,0.9
	c0.3-0.3,0.5-0.6,0.7-0.9c3.5-4.6,7-9.3,10.4-13.9c0.7-0.9,1.4-1.7,2.5-1.9c2.7-0.6,4.8,1.8,3.9,4.5c-0.3,0.8-0.7,1.5-1.2,2.1
	c-3.7,4.9-7.4,9.8-11.1,14.7c-0.3,0.3-0.5,0.7-0.8,1.1c2.2,2.9,4.4,5.7,6.5,8.6c2.1,2.8,4.2,5.5,6.4,8.3c1.1,1.4,2.2,2.9,2.6,4.7
	C43.9,44.5,43.9,45.1,43.9,45.6z"/>
</svg>
