<svg id="Camada_1" data-name="Camada 1" xmlns="http://www.w3.org/2000/svg" viewBox="0 0 32.71 48"><path d="M40.35,30.82a13.18,13.18,0,0,1-.07,1.41,12.92,12.92,0,0,1-3.4,7.42,5.75,5.75,0,0,0,.63-.84,6,6,0,0,0,.38-.71,2.6,2.6,0,0,0,.1-.25,1.25,1.25,0,0,0,.09-.25,2.25,2.25,0,0,0,.08-.24l.06-.25v0l.06-.25c0-.09,0-.18,0-.27h0l0-.25a5.49,5.49,0,0,0,0-.58,5.8,5.8,0,0,0-.83-3,4.6,4.6,0,0,0-.4-.58,4.68,4.68,0,0,0-.56-.62,5.92,5.92,0,0,0-1.72-1.16,6.38,6.38,0,0,0-.87-.3h0l-.1,0-1.51-.51h0l-4-1.36h0l-.25-.09a3.75,3.75,0,0,1-1.87-1.64l-1.44-3.68-1.65-4.22-.32-.81-.08-.17a1.87,1.87,0,0,1-.14-.71,1,1,0,0,1,0-.18A1.84,1.84,0,0,1,24.48,15a1.72,1.72,0,0,1,.72.15l7.37,3.77,1.45.75a12.3,12.3,0,0,1,2.14,1.6,12.91,12.91,0,0,1,4.16,8.65c0,.3,0,.6,0,.91Z" transform="translate(-7.65)"/><path d="M38.39,35.73a6.4,6.4,0,0,1-.1,1.09c0,.1,0,.19-.07.29a4.5,4.5,0,0,1-.14.49l-.09.25c0,.08-.07.16-.1.25a6.94,6.94,0,0,1-.38.71,4.65,4.65,0,0,1-.63.83c-1.07,1.19-4.72,3.31-6.06,4.17l-3,1.82A13.19,13.19,0,0,1,21,48h-.86A13,13,0,0,1,9.65,42a12.67,12.67,0,0,1-1.91-5.41,5.75,5.75,0,0,0,8.39,4.05h0l.29-.18,1.18-.7,1.52-.89v0l.19-.12,13.52-8,1-.62.1,0h0a6.24,6.24,0,0,1,.86.3,5.65,5.65,0,0,1,1.73,1.16,5.5,5.5,0,0,1,.56.62,4.6,4.6,0,0,1,.4.58,5.78,5.78,0,0,1,.83,3Z" transform="translate(-7.65)"/><path d="M19.14,9V38.82l-1.51.89-1.19.7-.3.18h0a5.76,5.76,0,0,1-8.4-4.05c0-.12,0-.25-.05-.37s0-.47,0-.7V1.92a1.92,1.92,0,0,1,3-1.59l5.88,3.84.1.07A5.75,5.75,0,0,1,19.14,9Z" transform="translate(-7.65)"/></svg>