<svg xmlns="http://www.w3.org/2000/svg" viewBox="0 0 48 48"><defs><style>.a{fill:#fff;}</style></defs><title>icon-startpage</title><path class="a" d="M15.65,30.26a2.74,2.74,0,0,0-1.27-.61C9,28.88,5.22,38.54,9.26,42.78c2.6,2.69,6.13,4.82,12.68,5.21,11.43.69,18-5.94,18.5-13.56.44-7.07-4.81-10.52-12-14.33l-4.85-2.36c-4.12-2.29-6.26-4.17-6.1-7.88.38-5,4.57-7.58,9.13-7.1,4.09.44,4.37,2.79,4.25,5.9l-.17,3A2.09,2.09,0,0,0,32.63,14h.06c2.79.17,6.12-1.15,6.34-4.73C39.27,5.14,36.87.68,26.94.1,16.21-.6,9.6,5.52,9.21,12.2c-.34,5.62,2.5,9.25,9.06,12.77l5.17,2.59c5,2.76,8,5,7.66,9.77s-2.65,8.35-8.58,7.77S16,39.22,15.86,37.25v-1a23.67,23.67,0,0,1,.3-3.13h0C16.3,32.34,16.34,30.74,15.65,30.26Z"/></svg>