<?xml version="1.0" encoding="utf-8"?>
<!-- Generator: Adobe Illustrator 22.0.1, SVG Export Plug-In . SVG Version: 6.00 Build 0)  -->
<svg version="1.1" id="Camada_1" xmlns="http://www.w3.org/2000/svg" xmlns:xlink="http://www.w3.org/1999/xlink" x="0px" y="0px"
	 viewBox="0 0 48 48" style="enable-background:new 0 0 48 48;" xml:space="preserve">
<style type="text/css">
	.st0{fill:#FFFFFF;}
</style>
<g>
	<path class="st0" d="M15.7,3.7c4.1-4.8,12.5-4.8,16.7,0c1.8,2.1,1.8,4.9,1.8,7.6c0,1,0.8,1.8,1.8,1.8c2,0,4.1,0,6.1,0
		c0.9,0,1.7,0.7,1.8,1.6c0.9,10.4,1.8,20.9,2.6,31.3c0.1,1-0.7,1.9-1.8,1.9H3.4c-1,0-1.9-0.9-1.8-1.9c0.9-10.4,1.7-20.9,2.6-31.3
		c0.1-0.9,0.8-1.6,1.8-1.6c2,0,4.1,0,6.1,0c1,0,1.8-0.8,1.8-1.8C13.9,8.6,13.9,5.8,15.7,3.7 M17.7,7c-0.4,2-0.2,4-0.2,6.1
		c4.3,0,8.6,0,12.9,0c0-2,0.2-4-0.1-6C27.9,2.4,20.2,2.4,17.7,7 M7.6,16.6c-0.8,9.2-1.3,18.5-2.5,27.6c12.6,0.5,25.2,0.1,37.7,0.2
		c-1-9.2-1.8-18.5-2.4-27.8C29.5,16.5,18.6,16.6,7.6,16.6z"/>
</g>
</svg>
