<svg xmlns="http://www.w3.org/2000/svg" viewBox="0 0 48 48"><defs><style>.a{fill:#fff;}</style></defs><title>logo-home</title><path class="a" d="M47.87,45.88c-.42-.82-.86-1.62-1.28-2.43L44,38.5a2.36,2.36,0,0,1-.33-.72s-.1-.15,0-.58c0,0,.06-.12.11-.24,0,.08-.06.17-.1.26v.06a5.65,5.65,0,0,1,.67-1.11c.19-.32.38-.65.55-1l.36-.69A22.56,22.56,0,0,0,46.68,31a24,24,0,0,0,1-7.75A23.82,23.82,0,0,0,46.13,15,22.72,22.72,0,0,0,36.69,3.86c-.25-.15-.51-.29-.76-.42l-.12-.1h0L35.12,3c-.3-.1-.61-.19-.91-.27A4.4,4.4,0,0,1,35,3a23.47,23.47,0,0,0-5.33-1.88A22.84,22.84,0,0,0,26.41.55a26.58,26.58,0,0,0-4.72,0,23.65,23.65,0,0,0-7.93,2A24.15,24.15,0,0,0,7.05,7a22.3,22.3,0,0,0-4.76,6.59,23.13,23.13,0,0,0-2.1,7.14,4.45,4.45,0,0,0,0,.53v0h0v0a4.55,4.55,0,0,0,0,.53c0,.43.08.87.14,1.33-.1-.62-.16-1.25-.2-1.88v.06a27,27,0,0,0,.44,8.32,23.19,23.19,0,0,0,3.08,7.39,22.22,22.22,0,0,0,3.42,4.14,22.6,22.6,0,0,0,8.71,5.15,27.34,27.34,0,0,0,4.12.94,21.51,21.51,0,0,0,4,.25,38.06,38.06,0,0,0,3.83-.33c.71-.11,1.4-.24,2.09-.41s1.22-.25,1.44-.88A1.64,1.64,0,0,0,31,44.56c-.27-.52-.52-1.05-.79-1.57l0-.11c-.5-1-1-2.05-1.54-3.07a1.08,1.08,0,0,0-.67-.62l-.11,0,0,0a2,2,0,0,0-.69.06c-.35.06-.68.13-1,.17a15.06,15.06,0,0,1-4.24,0A15.5,15.5,0,0,1,8.46,22.25a.91.91,0,0,1,0-.17h0c0-.11,0-.24,0-.36a1.66,1.66,0,0,1,0-.22h0a15.75,15.75,0,0,1,2.78-6.58,16.13,16.13,0,0,1,2.56-2.73A15.52,15.52,0,0,1,25.23,8.6a15.77,15.77,0,0,1,6.28,1.94l.22.13.08,0,.4.25A15.8,15.8,0,0,1,37,15.67a15.55,15.55,0,0,1,1.2,14.47A15.31,15.31,0,0,1,37,32.37a15.53,15.53,0,0,1-2.79,3.26,1.63,1.63,0,0,0-.58.72,1.13,1.13,0,0,0,0,.81L38.07,46c.22.46.44,1.13.91,1.4a2.17,2.17,0,0,0,1.1.14h6.81A1.12,1.12,0,0,0,48,46.39,1,1,0,0,0,47.87,45.88Z"/></svg>