<svg id="Camada_1" data-name="Camada 1" xmlns="http://www.w3.org/2000/svg" viewBox="0 0 48 48"><defs><style>.cls-1{fill:#fff;}</style></defs><title>icon-duckduckgo</title><path class="cls-1" d="M48,23.93v.73c0,.25,0,.51-.07.76-.09.91-.11,1.84-.28,2.74a23.69,23.69,0,0,1-14.31,18.2c-1.15.52-2.38.86-3.58,1.28L28,44.26l.55.2c1.31.41,2.62.84,3.95,1.2.66.18.9,0,1-.65a18.74,18.74,0,0,0,.19-3.07,22.6,22.6,0,0,0-.45-3.32c-.12-.6-.43-.72-1-.47a14.08,14.08,0,0,0-1.76.92c-.89.55-1.76,1.16-2.67,1.76-.05-.59-.49-.61-.92-.63a1.74,1.74,0,0,0-.45,0c-.29.07-.41-.07-.49-.33-.36-1.09-.77-2.16-1.09-3.26a14,14,0,0,1-.62-5.12c0-.26.07-.52.11-.8a28.76,28.76,0,0,0,5.2,1.76,12.55,12.55,0,0,0,5.57.44,12.21,12.21,0,0,0,4.42-1.62,2.62,2.62,0,0,0,.72-.7.64.64,0,0,0-.54-1.06,3,3,0,0,0-.77,0c-1.16.23-2.32.49-3.49.73a15.19,15.19,0,0,1-5.56.28,4.8,4.8,0,0,1-2.21-.84,1.44,1.44,0,0,1,1-2.63,5.64,5.64,0,0,1,.64.08,8.13,8.13,0,0,0,4.39-.3c.8-.3,1.62-.51,2.41-.82q2.63-1,5.23-2.17a3.87,3.87,0,0,0,1.09-.76.69.69,0,0,0-.17-1.23,4.64,4.64,0,0,0-3.39-.36c-1.65.46-3.28,1-4.93,1.46-.59.17-1.19.29-1.83.45,0-.15,0-.22,0-.3a19.52,19.52,0,0,0,.06-2.66,18,18,0,0,0-2.77-7.54,7.15,7.15,0,0,0-5-3.56A.9.9,0,0,1,24,9.12c-.39-.36-.73-.76-1.15-1.08a12.81,12.81,0,0,0-7.32-2.53c-.92,0-1.84.06-2.76.1l0,.15,1.68,1.09L14,7l-1.17.34c-.49.15-.6.36-.47.87a13.21,13.21,0,0,1,6.44.94.86.86,0,0,1-.36.13,12.35,12.35,0,0,0-4.16,1.41,5.11,5.11,0,0,0-2.06,2.15,6.64,6.64,0,0,0-.81,3c0,1-.06,2.1,0,3.13a24,24,0,0,0,.46,2.58c.28,1.47.56,2.94.85,4.41s.63,2.92.93,4.39c.4,1.89.78,3.79,1.18,5.68q.42,2,.86,4.08c.29,1.36.58,2.72.87,4.08.22,1,.43,2.07.66,3.18l-1.46-.54A24,24,0,0,1,.24,27.4c-.1-.77-.16-1.56-.24-2.33V23.61c0-.15,0-.29.06-.44.17-1.3.24-2.62.51-3.89A23.93,23.93,0,0,1,27.85.65,23.2,23.2,0,0,1,40.48,6.92a23.51,23.51,0,0,1,7.29,14.39C47.88,22.18,47.92,23.06,48,23.93Z"/><path class="cls-1" d="M18.94,20.45a1.75,1.75,0,1,1-1.73-1.79A1.76,1.76,0,0,1,18.94,20.45Z"/><path class="cls-1" d="M30.56,19.36a1.51,1.51,0,0,1-1.5,1.54,1.52,1.52,0,0,1,0-3A1.51,1.51,0,0,1,30.56,19.36Z"/><path class="cls-1" d="M17.56,15.2a3.13,3.13,0,0,0-3.74,1.62,1.38,1.38,0,0,1,.59-1.61A2.48,2.48,0,0,1,17.56,15.2Z"/><path class="cls-1" d="M23.39,41.57c0,.8,0,1.47,0,2.15a1.82,1.82,0,0,0,0,.4c.16.7.44.91,1.22.93a6.89,6.89,0,0,0,2.76-.32l0,.09a3.21,3.21,0,0,1-.52.28,6.48,6.48,0,0,1-2.8.3,1.06,1.06,0,0,1-.88-1c0-.73,0-1.46,0-2.19A3.51,3.51,0,0,1,23.39,41.57Z"/><path class="cls-1" d="M26.42,15.11A1.59,1.59,0,0,1,27.9,14a2,2,0,0,1,2,1.11A3.36,3.36,0,0,0,26.42,15.11Z"/></svg>