<svg xmlns="http://www.w3.org/2000/svg" viewBox="0 0 24 24"><defs><style>.a{fill:#fff;}</style></defs><path class="a" d="M9.62,17A3,3,0,0,1,6.7,14.58L5,6.24s0-.06,0-.09L4.18,2H1A1,1,0,0,1,1,0H5A1,1,0,0,1,6,.8L6.82,5H23a1,1,0,0,1,1,1.19l-1.6,8.39a3,3,0,0,1-3,2.42H9.62ZM7.22,7l1.44,7.19a1,1,0,0,0,1,.81H19.4a1,1,0,0,0,1-.81L21.79,7Z"/><path class="a" d="M19.87,24a2.78,2.78,0,1,1,2.77-2.77A2.78,2.78,0,0,1,19.87,24Zm0-3.8a1,1,0,1,0,1,1A1,1,0,0,0,19.87,20.17Z"/><path class="a" d="M9,24a2.78,2.78,0,1,1,2.77-2.77A2.77,2.77,0,0,1,9,24Zm0-3.8a1,1,0,1,0,1,1A1,1,0,0,0,9,20.17Z"/></svg>