<svg id="Layer_1" data-name="Layer 1" xmlns="http://www.w3.org/2000/svg" viewBox="0 0 48 48"><defs><style>.cls-1{fill:#fff;}</style></defs><title>Baidu</title><path id="path2227" class="cls-1" d="M8.64,25.29c5.22-1.12,4.5-7.36,4.35-8.73-.26-2.1-2.73-5.78-6.08-5.48-4.22.38-4.84,6.48-4.84,6.48-.57,2.83,1.37,8.86,6.57,7.73m9.69-10.46c2.88,0,5.21-3.32,5.21-7.42S21.21,0,18.33,0s-5.22,3.31-5.22,7.41,2.33,7.42,5.22,7.42m12.42.49c3.86.5,6.33-3.61,6.82-6.72s-2-6.73-4.71-7.35S26.7,5,26.4,7.85c-.37,3.49.5,7,4.35,7.47M46,20.56c0-1.49-1.23-6-5.83-6S35,18.81,35,21.81s.24,6.85,6,6.72,5.09-6.47,5.09-8M40.18,33.64A53,53,0,0,1,30.74,24C26,16.7,19.32,19.69,17.08,23.42s-5.71,6.1-6.2,6.73S3.68,34.39,5.17,41s6.71,6.48,6.71,6.48a29.33,29.33,0,0,0,8.31-.62,17.51,17.51,0,0,1,8.32.24s10.43,3.5,13.28-3.23-1.61-10.22-1.61-10.22"/></svg>