<svg id="svg8" xmlns="http://www.w3.org/2000/svg" viewBox="0 0 48 48"><title>icon-yahoo</title><path d="M48,1.72c-.12.31-.24.63-.37.94l-3.06,7.39-2.1,5c-.73,1.77-1.45,3.53-2.18,5.29-.48,1.15-1,2.3-1.43,3.46a.18.18,0,0,1-.2.12H28.54c0-.05,0-.1,0-.14.59-1.41,1.17-2.83,1.76-4.25l2.36-5.69c.55-1.34,1.1-2.67,1.66-4,.87-2.11,1.75-4.23,2.62-6.35l.76-1.8Z"/><path d="M0,12.61H9.2a.23.23,0,0,1,.26.18l2.91,7.46,1.7,4.32.85,2.19L15,27l.26-.63,1.58-4,2.34-5.93,1.47-3.73c0-.1.11-.1.19-.1h9c-.1.26-.19.49-.29.72l-2.88,7L23.89,27l-2.82,6.81Q19.75,37,18.45,40.16l-1.68,4.05c-.27.66-.55,1.32-.82,2,0,0-.09.07-.13.09s-.06,0-.09,0h-9q.17-.42.33-.81c1.1-2.59,2.19-5.19,3.3-7.78a.75.75,0,0,0,0-.67C9.54,35.15,8.75,33.27,8,31.4,7.3,29.87,6.66,28.34,6,26.82L3.67,21.29l-1.95-4.6C1.15,15.36.59,14,0,12.68A.64.64,0,0,1,0,12.61Z"/><path d="M25.38,32a5.82,5.82,0,0,1,7.27-5.65,5.34,5.34,0,0,1,3.74,3.2,5.52,5.52,0,0,1,.34,3.4A5.68,5.68,0,0,1,33.67,37a5.76,5.76,0,0,1-3.19.59A5.42,5.42,0,0,1,27.05,36a5.56,5.56,0,0,1-1.65-3.54c0-.1,0-.19,0-.29Z"/></svg>