<svg id="svg2" xmlns="http://www.w3.org/2000/svg" viewBox="0 0 48 48"><defs><style>.cls-1{fill:#fff;}</style></defs><title>yandex</title><path class="cls-1" d="M47.07,21.58q-6-10.05-12-20.09A3.42,3.42,0,0,0,33.09,0H5.34A15,15,0,0,0,3,.86,5.61,5.61,0,0,0,.08,5.14,1,1,0,0,1,0,5.34V42.66A15,15,0,0,0,.86,45a5.61,5.61,0,0,0,4.28,2.88,1,1,0,0,1,.21.08H33.09a3.85,3.85,0,0,0,2.24-2c4-6.76,8.09-13.5,12.12-20.25A10.9,10.9,0,0,0,48,24.56V23.44C47.69,22.82,47.42,22.17,47.07,21.58ZM31.94,4.81c-.09.22-7.35,20-9.33,25.59V43.52a.34.34,0,0,1-.34.38h-3.1c-.25,0-.34-.14-.34-.38V30.3c-2.39-6-8.3-21.76-8.38-21.93a.43.43,0,0,1,.39-.57h3.27c.43,0,.55.31.61.55.12.45,4.16,11.74,4.58,13L21,26.15c.2-.76,1-3.93,1.3-4.83.37-1.28,5.35-16.5,5.4-16.71a.48.48,0,0,1,.52-.36H31.6C32,4.26,32,4.59,31.94,4.81Z"/></svg>