<svg xmlns="http://www.w3.org/2000/svg" viewBox="0 0 429.07 182.07"><title>openweather-negative-logo-RGB-9c9b3f32b47b8a005ac22bb290136b1aa14e384b7dd8baf87dd08248c21ac7ea</title><path d="M429.07,142.32c-1.65-.08-3.31-.26-5-.2-5.64.18-7.84,2.33-7.93,7.94-.09,6,0,11.94,0,18.26h-8.44V134.76h7.88c.25,1.26.51,2.6,1,5,3-6,7.87-5.34,12.49-5.45Z"/><path d="M144.66,64.65c3.54,0,6.49-.05,9.44,0,3.58.08,8.24-.8,8.29,4.61,0,5.75-4.81,4.84-8.55,4.85q-20,.06-40,0c-3.25,0-6.87-.26-7.33,4.06s2.69,4.74,6.14,5.44c1.74.36,3.87,3,4.13,4.86.16,1.18-2.6,3.12-4.39,4.1-1.17.64-2.94.13-4.44.19-3,.14-5.24,1.36-5.18,4.76s2.29,4.59,5.33,4.6c8.5,0,17,0,25.5,0,1.34,0,3-.48,3.93.14,1.79,1.23,4,2.93,4.37,4.75.22,1.16-2.56,3-4.18,4.31-.51.42-1.62.11-2.45.11q-38.25,0-76.51,0c-1.62,0-3.67,0-4.74-.86s-2.34-3.46-1.86-4.56c.7-1.61,2.8-3.52,4.43-3.65,5.64-.45,11.33-.22,17-.19,3.46,0,6.66-.49,6.56-4.88-.1-4.07-3.2-4.54-6.43-4.54-8.33,0-16.67,0-25,0-3.33,0-6.3-.66-6.37-4.6-.07-3.5,2.54-4.29,5.65-5,1.86-.45,3.23-2.94,4.82-4.52-1.69-1.48-3.22-4-5.08-4.24-4.41-.64-9-.23-13.47-.22-3.37,0-7.28.4-7.8-4.16-.57-5,3.46-5.29,7.53-5.54C31.89,44.26,37.56,27,52.86,13.58A53.54,53.54,0,0,1,91,0c16.81.52,30.62,7.36,41.37,20.16S146.6,47.76,144.66,64.65Z"/><path d="M178.05,158.7l7.13-37.64a7.14,7.14,0,0,1,1.61-.52c12.54-.65,12.57-.65,14.9,11.59,1.49,7.85,2.88,15.72,4.37,23.58a44.92,44.92,0,0,0,1.49,4.4c2.07-14,3.91-26.41,5.81-39.24h9c-2.46,15.82-4.9,31.5-7.39,47.48H200.1q-3.65-19.17-7.26-38.19l-.94-.08q-2.37,12.39-4.75,24.79c-.25,1.31-.48,2.62-.73,3.93-2,10.41-3.74,11.63-14.35,9.77a3.79,3.79,0,0,1-2.63-2.23c-2.48-15.07-4.79-30.18-7.13-45.26,8.8-1.56,8.79-1.56,9.95,6.19Q174.62,143,177,158.81Z"/><path d="M39.86,144.51c0,1.34,0,2.67,0,4-.1,14.65-7.82,21.92-22.26,21-9.53-.62-16-6.16-17.07-15.75a79.81,79.81,0,0,1,0-18c1.18-10.48,8.9-16.48,19.86-16.29,11.12.19,18.29,6.61,19.37,17.52a74.8,74.8,0,0,1,0,7.49Zm-9.19.42h0c0-2.16.15-4.33,0-6.48-.55-6.79-4.59-10.8-10.71-10.79S9.66,131.72,9.26,138.44a96.78,96.78,0,0,0,0,13c.5,6.67,4.27,10,10.66,10s10-3.3,10.67-10A63.63,63.63,0,0,0,30.67,144.93Z"/><path d="M54.45,164v18.08H46.08V134.85h7.67l.8,3.6c14.18-9.28,23.17-5.1,27,10.63,1.83,7.49-2.45,15.47-8.58,18.81C67.21,171,61.19,170,54.45,164ZM73,151.67c0-6.08-3.64-10.22-9.11-10.31s-9.38,4-9.53,10c-.16,6.15,3.85,10.65,9.43,10.6S73,157.7,73,151.67Z"/><path d="M338.21,168.42h-8.28V120.8h8.21v18.61c2.63-1.8,4.57-3.74,6.9-4.61,8.51-3.18,17.2,2.13,17.86,11.19.52,7.27.1,14.61.1,22.3h-8.58c0-5.88.05-11.67,0-17.46-.07-6.26-2.34-9.08-7.31-9.28-5.28-.22-8.66,3.14-8.85,9.23C338.06,156.57,338.21,162.37,338.21,168.42Z"/><path d="M286,146c-1.66-1.63-3-4-5-4.74-5.41-2-9.21.91-12.2,5.81l-6.32-3.72c3.63-9.79,19.29-13,27.11-6,2,1.76,3.22,4.57,4.18,7.13.67,1.78.33,3.95.34,5.94,0,5.94,0,11.89,0,18.13-3.92-.37-8.45,2.61-9.17-4.82-3.61,5.85-8.63,6.31-13.94,5.7-5.69-.65-9.56-4.44-9.91-9.49s3-9.24,8.83-10.36c4.87-.94,9.85-1.32,14.78-1.95Zm-1,7.41c-4.21.62-8,.93-11.65,1.85a4.93,4.93,0,0,0-2.89,3.35c-.17.93,1.28,2.67,2.4,3.22C278.32,164.55,284.62,160.44,284.93,153.4Z"/><path d="M257,154.23H233.4l-1,1.29c2,2,3.67,4.85,6.11,6,4.74,2.21,8.58-.43,11.76-4.19l6.09,3.56c-3.19,7.52-12.6,10.84-21.17,7.65-8.87-3.3-13.36-13.37-10.32-23.13,2.8-9,11.51-13.61,21-11.18C254.21,136.35,258.9,144.42,257,154.23Zm-23.95-6.29h15.7c-1-4.49-3.32-6.73-7.58-6.8C236.74,141.07,234.09,143.16,233.05,147.94Z"/><path d="M118.57,154.18H94.92l-1.06,1.35c2,2,3.6,4.85,6,5.95,4.72,2.16,8.66-.15,11.65-4.25l6.53,3.87A17.51,17.51,0,0,1,95.27,168c-8.22-3.85-12.08-14.22-8.73-23.49,3-8.38,11.54-12.64,20.66-10.34C115.52,136.3,120,143.78,118.57,154.18ZM109.91,148c-.46-4.78-3.19-6.82-7.5-6.83S95.26,143,94.83,148Z"/><path d="M394.6,157.25,401,161c-4.38,7.92-13.6,10.85-22.07,7.28s-12.61-13.6-9.61-23.12c2.6-8.25,10.88-12.94,19.76-11.19,9.07,1.78,13.78,9,12.67,20h-23.9c-.2,4.2,1.71,6.44,4.85,7.63C387.61,163.42,391.37,161.32,394.6,157.25Zm-1.34-9.18c-1.33-5.28-4.23-7.37-8.86-6.86-3.85.43-6.46,2.29-6.4,6.86Z"/><path d="M158.05,168.36h-8.72c0-6.26.07-12.22,0-18.18-.09-5.74-2.55-8.5-7.42-8.63s-8.37,2.91-8.64,8.35c-.29,6.1-.07,12.23-.07,18.55h-8.37V134.81h7.94c.17,1.54.33,3,.49,4.56,2.1-1.52,3.87-3.33,6-4.3a13.2,13.2,0,0,1,18.56,10.13,29.11,29.11,0,0,1,.22,4.48C158.06,155.81,158.05,161.93,158.05,168.36Z"/><path d="M305.81,142.29l-8.55-.68v-6.83l8.41-.6v-9.79h8.47c.14,3.21.28,6.29.43,9.86l8.84.41v7l-9,.6c0,5.64-.46,11.15.3,16.48.21,1.52,4,2.54,6.86,4.23v5.72c-2.7,0-5.3.06-7.89,0-5.78-.15-7.8-2.12-7.87-7.84C305.75,154.71,305.81,148.59,305.81,142.29Z"/><path d="M133.57,83.47c1.82,0,4-.64,5.36.16,1.69,1,3.55,3.12,3.69,4.88.09,1.27-2.34,3.65-3.94,3.94a27.92,27.92,0,0,1-10.35,0c-1.68-.34-4.07-2.8-4.07-4.3s2.2-3.66,3.94-4.59c1.41-.76,3.55-.16,5.37-.16Z"/><path d="M159.8,92.69c-1.49,0-3.3.54-4.39-.12-1.83-1.12-3.2-3-4.76-4.55,1.6-1.55,3-3.89,4.85-4.46,2.58-.78,5.57-.2,8.38-.22,3.28,0,5.66,1.32,5.65,4.79s-2.54,4.68-5.76,4.6c-1.32,0-2.65,0-4,0Z"/></svg>