<?xml version="1.0" encoding="utf-8"?>
<!-- Generator: Adobe Illustrator 23.1.0, SVG Export Plug-In . SVG Version: 6.00 Build 0)  -->
<svg version="1.1" id="logo-white" xmlns="http://www.w3.org/2000/svg" xmlns:xlink="http://www.w3.org/1999/xlink" x="0px" y="0px"
	 viewBox="0 0 276 50" style="enable-background:new 0 0 276 50;" xml:space="preserve">
<path d="M218,14.7c1.2,0,2.4,0.3,3.4,0.8c1,0.5,1.7,1.3,2.2,2.3c0.5,1.1,0.8,2.3,0.8,3.6v11.1h-5v-9.6c0-0.7-0.1-1.3-0.4-1.9
	c-0.3-0.5-0.7-0.9-1.2-1.2c-0.6-0.3-1.2-0.5-1.9-0.4c-0.8,0-1.5,0.2-2.2,0.6c-0.6,0.4-1.1,0.9-1.4,1.6c-0.3,0.7-0.5,1.5-0.5,2.3v8.7
	h-5V14.9h5V18c0.6-1,1.4-1.9,2.5-2.4C215.5,15,216.7,14.7,218,14.7 M270.2,14.9h-5v17.6h5V24c0-0.9,0.2-1.8,0.7-2.6
	c0.5-0.7,1.2-1.3,2-1.6c1-0.4,2-0.5,3.1-0.4v-4.7c-1.2,0-2.4,0.3-3.4,0.9c-1,0.6-1.8,1.4-2.4,2.5V14.9z M254.1,18.9
	c0.8,0,1.6,0.2,2.3,0.6c0.7,0.4,1.2,1,1.5,1.7c0.7,1.6,0.7,3.4,0,5c-0.3,0.7-0.9,1.3-1.5,1.7c-1.4,0.8-3.2,0.8-4.6,0
	c-0.7-0.4-1.2-1-1.5-1.7c-0.7-1.6-0.7-3.4,0-5c0.3-0.7,0.8-1.3,1.5-1.7C252.5,19.1,253.3,18.9,254.1,18.9 M254.1,14.8
	c-1.3,0-2.6,0.2-3.9,0.6c-1.1,0.4-2.1,1-3,1.8c-0.8,0.8-1.5,1.7-1.9,2.8c-0.9,2.4-0.9,5,0,7.3c0.4,1.1,1.1,2.1,1.9,2.9
	c0.9,0.8,1.9,1.4,3,1.8c1.2,0.4,2.5,0.7,3.9,0.6c1.3,0,2.6-0.2,3.8-0.6c1.1-0.4,2.1-1,3-1.8c0.8-0.8,1.5-1.8,1.9-2.8
	c0.9-2.4,0.9-5,0-7.3c-0.4-1.1-1.1-2-1.9-2.8c-0.9-0.8-1.9-1.4-3-1.8C256.7,15,255.4,14.8,254.1,14.8z M243.9,31.5
	c-0.7,0.4-1.4,0.7-2.2,0.9c-0.8,0.2-1.6,0.3-2.4,0.3c-0.7,0-1.5-0.1-2.2-0.3c-1.3-0.4-2.4-1.4-2.9-2.7c-0.3-0.8-0.4-1.6-0.4-2.4
	V10.9h5v4.8h4.8v3.5h-4.8v7.2c0,0.6,0.1,1.1,0.4,1.6c0.3,0.3,0.8,0.5,1.3,0.4c0.4,0,0.7-0.1,1.1-0.2c0.4-0.1,0.9-0.3,1.3-0.5
	L243.9,31.5z M226.6,32.5V14.9h5v17.6H226.6z M229.2,7.2c0.5,0,1,0.1,1.4,0.4c0.4,0.2,0.7,0.6,0.9,1c0.2,0.4,0.4,0.9,0.3,1.5
	c0,0.5-0.1,1-0.3,1.5c-0.2,0.4-0.5,0.7-0.9,1c-0.4,0.2-0.9,0.4-1.4,0.4c-0.5,0-1-0.1-1.4-0.4c-0.4-0.2-0.7-0.6-1-1
	c-0.2-0.4-0.3-0.9-0.3-1.5c0-0.5,0.1-1,0.3-1.5c0.2-0.4,0.5-0.8,1-1C228.3,7.3,228.7,7.2,229.2,7.2 M195.6,19c0.8,0,1.6,0.2,2.3,0.6
	c0.7,0.4,1.2,1,1.5,1.7c0.4,0.8,0.6,1.6,0.6,2.5c0,0.9-0.2,1.7-0.6,2.5c-0.3,0.7-0.9,1.3-1.5,1.7c-0.7,0.4-1.5,0.6-2.3,0.6
	c-0.8,0-1.6-0.2-2.3-0.6c-0.7-0.4-1.2-1-1.5-1.7c-0.7-1.6-0.7-3.4,0-5c0.3-0.7,0.9-1.3,1.5-1.7C194,19.2,194.8,19,195.6,19
	 M195.6,14.8c-1.3,0-2.6,0.2-3.9,0.6c-1.1,0.4-2.1,1-3,1.8c-0.8,0.8-1.5,1.8-1.9,2.8c-0.9,2.4-0.9,5,0,7.3c0.4,1.1,1.1,2,1.9,2.8
	c0.9,0.8,1.9,1.4,3,1.8c2.5,0.9,5.2,0.9,7.7,0c1.1-0.4,2.1-1,3-1.8c0.8-0.8,1.5-1.8,1.9-2.8c0.9-2.4,0.9-5,0-7.3
	c-0.4-1.1-1.1-2-1.9-2.8c-0.9-0.8-1.9-1.4-3-1.8C198.2,15,196.9,14.8,195.6,14.8L195.6,14.8z M178.1,14.8c1.2,0,2.3,0.3,3.4,0.8
	c0.9,0.5,1.7,1.4,2.2,2.3c0.5,1.1,0.8,2.3,0.8,3.6v11h-5v-9.6c0-0.7-0.1-1.3-0.4-1.9c-0.3-0.5-0.7-0.9-1.2-1.2
	c-1.8-1-4.1-0.3-5.1,1.5c0,0.1-0.1,0.2-0.1,0.3c-0.3,0.7-0.5,1.5-0.5,2.3v8.7h-5v-9.6c0-0.7-0.1-1.3-0.4-1.9
	c-0.3-0.5-0.7-0.9-1.2-1.2c-0.5-0.3-1.2-0.4-1.8-0.4c-0.7,0-1.5,0.2-2.1,0.6c-0.6,0.4-1,0.9-1.3,1.6c-0.3,0.7-0.5,1.5-0.5,2.3v8.7
	h-5V14.9h5v3c0.6-1,1.4-1.9,2.4-2.4c1.1-0.6,2.3-0.8,3.5-0.8c0.9,0,1.8,0.2,2.7,0.5c0.8,0.3,1.5,0.8,2.1,1.4
	c0.5,0.6,0.9,1.4,1.2,2.2c0.5-1.2,1.4-2.3,2.5-3C175.4,15.1,176.7,14.7,178.1,14.8 M145.4,34.9c-0.4,1.2-1.2,2.2-2.1,3
	c-0.9,0.7-1.9,1-3,1c-0.7,0-1.3-0.1-2-0.3c-0.6-0.2-1.2-0.5-1.7-1l1.1-2.1c0.4,0.3,0.7,0.5,1.2,0.6c0.4,0.1,0.8,0.2,1.2,0.2
	c0.7,0,1.3-0.2,1.8-0.6c0.6-0.5,1-1.1,1.3-1.8l0.7-1.6l-7-17h2.7l5.7,14.2l5.4-14.2h2.6L145.4,34.9z M129.5,15.2
	c1.3,0,2.6,0.2,3.8,0.6c1.1,0.4,2.1,1.1,2.9,1.9l-1.4,1.8c-0.7-0.6-1.4-1.1-2.3-1.5c-0.9-0.4-1.9-0.5-2.9-0.5
	c-0.8,0-1.7,0.2-2.5,0.5c-0.7,0.3-1.4,0.7-1.9,1.3c-0.6,0.6-1,1.3-1.3,2c-0.6,1.7-0.6,3.5,0,5.2c0.3,0.7,0.7,1.4,1.3,2
	c0.5,0.6,1.2,1,1.9,1.3c0.8,0.3,1.6,0.5,2.5,0.5c1,0,2.1-0.2,3-0.6c0.9-0.4,1.7-0.9,2.3-1.6l1.5,1.6c-0.8,0.9-1.8,1.7-2.9,2.2
	c-1.3,0.5-2.6,0.8-4,0.8c-1.2,0-2.4-0.2-3.5-0.6c-1-0.4-1.9-1-2.7-1.7c-0.8-0.8-1.4-1.7-1.8-2.7c-0.8-2.3-0.8-4.8,0-7
	c0.4-1,1-2,1.8-2.7c0.8-0.8,1.7-1.4,2.7-1.8C127.2,15.5,128.3,15.3,129.5,15.2 M110.9,30.5c-0.7,0-1.4-0.1-2.1-0.4
	c-0.5-0.2-1-0.6-1.4-1.1c-0.3-0.5-0.5-1.1-0.5-1.7c0-0.9,0.4-1.7,1.2-2.1c1-0.5,2.1-0.8,3.2-0.7h5.3v2.1c-0.2,0.8-0.6,1.5-1.2,2.1
	c-0.6,0.6-1.2,1-2,1.3C112.7,30.2,111.8,30.4,110.9,30.5 M116.7,32.5h2.5V21.1c0-1.1-0.3-2.2-0.8-3.2c-0.5-0.9-1.3-1.6-2.2-2
	c-1.1-0.5-2.4-0.7-3.6-0.7c-0.9,0-1.8,0.1-2.6,0.3c-0.8,0.2-1.5,0.4-2.2,0.8c-0.7,0.4-1.5,0.8-2.2,1.3l1.1,1.9
	c0.8-0.6,1.7-1.1,2.7-1.5c0.9-0.3,1.8-0.5,2.8-0.5c0.9,0,1.7,0.1,2.5,0.5c0.6,0.3,1.2,0.8,1.5,1.4c0.4,0.7,0.5,1.4,0.5,2.2v1h-5.6
	c-1.2,0-2.4,0.2-3.5,0.6c-0.9,0.3-1.6,0.9-2.2,1.7c-0.5,0.8-0.8,1.7-0.8,2.6c0,0.7,0.1,1.4,0.4,2.1c0.3,0.6,0.7,1.2,1.2,1.7
	c0.5,0.5,1.2,0.9,1.8,1.1c0.8,0.3,1.6,0.4,2.4,0.4c1.3,0,2.5-0.2,3.7-0.7c1-0.5,2-1.2,2.6-2.1L116.7,32.5z M95.2,32.5l-6.8-17.2h2.7
	l5.5,14.5l5.5-14.5h2.6l-6.8,17.2L95.2,32.5z M83.9,32.5V15.3h2.5v17.2L83.9,32.5z M85.2,8.6c0.3,0,0.6,0.1,0.8,0.2
	c0.3,0.1,0.5,0.4,0.6,0.6c0.2,0.3,0.2,0.6,0.2,0.9c0,0.3-0.1,0.6-0.2,0.9c-0.3,0.5-0.8,0.8-1.4,0.8c-0.6,0-1.2-0.3-1.4-0.8
	c-0.2-0.3-0.2-0.6-0.2-0.9c0-0.3,0.1-0.6,0.2-0.9c0.1-0.3,0.3-0.5,0.6-0.6C84.6,8.7,84.9,8.6,85.2,8.6 M75.8,19.1
	c0.5-1.2,1.3-2.2,2.4-2.9c1.1-0.7,2.4-1,3.7-1v2.6c-1.1,0-2.2,0.2-3.1,0.7c-0.9,0.4-1.6,1.1-2.1,1.9c-0.5,0.9-0.9,1.9-0.9,3v9.2
	h-2.5V15.3h2.5V19.1z M62.7,30.2c-0.9,0-1.7-0.2-2.5-0.5c-1.5-0.6-2.7-1.8-3.2-3.3c-0.6-1.7-0.6-3.5,0-5.1c0.6-1.5,1.7-2.7,3.2-3.4
	c1.6-0.6,3.4-0.6,5,0c0.7,0.3,1.4,0.8,1.9,1.3c0.6,0.6,1,1.3,1.3,2.1c0.6,1.7,0.6,3.5,0,5.1c-0.3,0.8-0.7,1.4-1.3,2
	c-0.6,0.6-1.2,1-1.9,1.3C64.5,30.1,63.6,30.3,62.7,30.2 M63.2,15.2c-1.4,0-2.8,0.3-4,1c-1.1,0.7-2.1,1.6-2.7,2.8v-3.7H54v23.5h2.5
	v-10c0.6,1.2,1.5,2.1,2.7,2.8c1.2,0.7,2.6,1,4,1c1.1,0,2.3-0.2,3.3-0.6c1-0.4,1.9-1,2.6-1.7c0.7-0.8,1.3-1.7,1.7-2.7
	c0.4-1.1,0.6-2.3,0.6-3.5c0-1.2-0.2-2.4-0.6-3.5c-0.4-1-1-2-1.7-2.8c-0.7-0.8-1.6-1.4-2.6-1.8C65.5,15.5,64.4,15.2,63.2,15.2
	L63.2,15.2z M41,11.7c0.8,0.5,1.4,1.3,1.8,2.1c0.4,0.8,0.6,1.7,0.5,2.6v15.9c0.1,1-0.1,1.9-0.5,2.8c-0.5,0.9-1.2,1.7-2,2.3
	l-13.4,9.7c-1.6,1.1-3.5,1.7-5.5,1.7c-2,0.1-3.9-0.5-5.5-1.6l-6.2-4.5l6.2-4.4l1.8,1.3c1.1,0.7,2.3,1.1,3.6,1c1.3,0,2.6-0.4,3.7-1.2
	l9-6.5c0.6-0.4,1-0.9,1.3-1.5c0.3-0.6,0.4-1.2,0.4-1.8V19.1c0.1-0.6-0.1-1.2-0.3-1.7c-0.3-0.6-0.7-1-1.2-1.4l-9.3-6.7
	c-1.1-0.7-2.3-1.1-3.6-1.1c-1.3,0-2.6,0.4-3.7,1.2l-9,6.5c-0.6,0.4-1,0.9-1.3,1.5c-0.3,0.6-0.4,1.2-0.4,1.8v7.5L20,17.5
	c0.5-0.3,1.1-0.5,1.7-0.5c0.6,0,1.2,0.1,1.7,0.5l4.3,3.1c0.2,0.2,0.4,0.4,0.6,0.6c0.1,0.2,0.2,0.5,0.2,0.8v4.9c0,0.3,0,0.6-0.2,0.8
	c-0.1,0.3-0.4,0.5-0.6,0.7l-4.2,3c-0.5,0.3-1.1,0.5-1.7,0.5c-0.6,0-1.2-0.1-1.7-0.5l-3.3-2.4L5.8,36.8l-2,1.4l-1.5-1.1
	c-0.8-0.5-1.4-1.3-1.8-2.1c-0.4-0.8-0.6-1.7-0.5-2.6V16.6c-0.1-1,0.1-1.9,0.5-2.7c0.5-0.9,1.2-1.7,2-2.3L16,1.8
	c1.6-1.1,3.6-1.7,5.5-1.8C23.5,0,25.4,0.5,27,1.6L41,11.7 M266.4,40.5c-0.4,0-0.9,0.1-1.3,0.3c-0.4,0.2-0.6,0.5-0.8,0.9
	c-0.4,0.8-0.4,1.8,0,2.7c0.2,0.4,0.5,0.7,0.8,0.9c0.4,0.2,0.8,0.3,1.3,0.3c0.4,0,0.9-0.1,1.3-0.3c0.4-0.2,0.7-0.5,0.8-0.9
	c0.2-0.4,0.3-0.9,0.3-1.3c0-0.5-0.1-0.9-0.3-1.3c-0.2-0.4-0.5-0.7-0.8-0.9C267.3,40.6,266.8,40.5,266.4,40.5 M268.1,39.3
	c1,0.4,1.8,1.1,2.1,2.1c0.4,1.1,0.4,2.2,0,3.3c-0.2,0.5-0.5,0.9-0.8,1.3c-0.4,0.4-0.8,0.6-1.3,0.8c-0.5,0.2-1.1,0.3-1.7,0.3
	c-0.6,0-1.1-0.1-1.7-0.3c-0.5-0.2-0.9-0.5-1.3-0.8c-0.4-0.4-0.7-0.8-0.8-1.3c-0.4-1.1-0.4-2.2,0-3.3c0.2-0.5,0.5-0.9,0.8-1.3
	c0.4-0.4,0.8-0.6,1.3-0.8c0.5-0.2,1.1-0.3,1.7-0.3C266.9,39,267.5,39.1,268.1,39.3L268.1,39.3z M259.4,39.4c0.4,0.2,0.8,0.6,1,1.1
	c0.3,0.5,0.4,1.1,0.4,1.6V47H259v-4.5c0-0.4-0.1-0.7-0.2-1c-0.1-0.3-0.4-0.5-0.6-0.7c-0.3-0.2-0.7-0.2-1-0.2c-0.4,0-0.8,0.1-1.2,0.3
	c-0.3,0.2-0.6,0.4-0.8,0.8c-0.2,0.4-0.3,0.8-0.3,1.2V47h-1.7v-7.9h1.7v1.5c0.3-0.5,0.7-0.9,1.2-1.2c0.5-0.3,1.1-0.4,1.7-0.4
	C258.3,39,258.8,39.1,259.4,39.4L259.4,39.4z M248.3,45.5c0.3-0.1,0.6-0.3,0.8-0.5c0.2-0.2,0.3-0.5,0.3-0.8v-0.7h-2.1
	c-0.4,0-0.9,0-1.2,0.2c-0.3,0.2-0.4,0.5-0.4,0.8c0,0.2,0.1,0.4,0.2,0.6c0.1,0.2,0.3,0.3,0.5,0.4c0.3,0.1,0.5,0.2,0.8,0.2
	C247.6,45.7,247.9,45.6,248.3,45.5z M249.4,46c-0.3,0.3-0.7,0.6-1.1,0.8c-0.5,0.2-1,0.3-1.5,0.3c-0.4,0-0.8-0.1-1.2-0.2
	c-0.3-0.1-0.6-0.3-0.9-0.5c-0.2-0.2-0.4-0.5-0.6-0.8c-0.1-0.3-0.2-0.6-0.2-1c0-0.9,0.5-1.7,1.4-2.1c0.5-0.2,1.1-0.3,1.6-0.3h2.4V42
	c0-0.4-0.2-0.9-0.5-1.2c-0.4-0.3-0.9-0.5-1.4-0.4c-0.4,0-0.8,0.1-1.2,0.2c-0.4,0.1-0.8,0.3-1.2,0.6l-0.7-1.2l0.8-0.4
	c0.2-0.1,0.5-0.2,0.8-0.3c0.3-0.1,0.6-0.1,0.8-0.2c0.3,0,0.7,0,1,0c0.6,0,1.2,0.1,1.7,0.3c0.4,0.2,0.8,0.5,1.1,1
	c0.3,0.5,0.4,1,0.4,1.5v5.2h-1.7V46z M241.1,39.1c0.3,0.1,0.6,0.1,1,0.3c0.3,0.1,0.6,0.3,0.8,0.4l-0.6,1.3c-0.2-0.1-0.5-0.3-0.7-0.4
	c-0.3-0.1-0.5-0.2-0.8-0.2c-0.2,0-0.5-0.1-0.7-0.1c-0.2,0-0.4,0-0.6,0.1c-0.2,0-0.3,0.1-0.4,0.3c-0.1,0.1-0.2,0.3-0.2,0.5
	c0,0.2,0.1,0.4,0.2,0.5c0.2,0.2,0.4,0.3,0.6,0.3c0.3,0.1,0.5,0.2,0.8,0.3c0.3,0.1,0.6,0.2,0.9,0.3c0.3,0.1,0.6,0.3,0.8,0.4
	c0.2,0.2,0.5,0.4,0.6,0.7c0.2,0.3,0.2,0.7,0.2,1c0,0.4-0.1,0.7-0.2,1c-0.2,0.3-0.4,0.5-0.7,0.7c-0.3,0.2-0.6,0.3-1,0.4
	c-0.4,0.1-0.8,0.1-1.2,0.1c-0.4,0-0.8,0-1.2-0.1c-0.4-0.1-0.8-0.2-1.1-0.4c-0.3-0.2-0.6-0.4-0.9-0.6l0.6-1.2
	c0.2,0.2,0.5,0.4,0.8,0.5c0.3,0.1,0.6,0.3,0.9,0.3c0.3,0.1,0.6,0.1,0.9,0.1c0.2,0,0.4,0,0.7-0.1c0.2,0,0.3-0.1,0.5-0.3
	c0.1-0.1,0.2-0.3,0.2-0.5c0-0.2-0.1-0.4-0.2-0.6c-0.2-0.2-0.4-0.3-0.6-0.4c-0.2-0.1-0.5-0.2-0.8-0.3l-0.9-0.3
	c-0.3-0.1-0.5-0.3-0.8-0.4c-0.2-0.2-0.4-0.4-0.6-0.7c-0.2-0.3-0.2-0.7-0.2-1c0-0.4,0.1-0.7,0.2-1c0.2-0.3,0.4-0.5,0.6-0.7
	c0.3-0.2,0.6-0.3,0.9-0.4c0.4-0.1,0.7-0.1,1.1-0.1C240.4,39,240.7,39,241.1,39.1L241.1,39.1z M230.6,40.8c-0.4,0.2-0.6,0.5-0.8,0.9
	c-0.4,0.8-0.4,1.8,0,2.7c0.2,0.4,0.5,0.7,0.8,0.9c0.4,0.2,0.8,0.3,1.3,0.3c0.4,0,0.9-0.1,1.3-0.3c0.4-0.2,0.7-0.5,0.8-0.9
	c0.4-0.8,0.4-1.8,0-2.7c-0.2-0.4-0.5-0.7-0.8-0.9c-0.4-0.2-0.8-0.3-1.3-0.3C231.4,40.5,230.9,40.6,230.6,40.8L230.6,40.8z
	 M233.5,39.3c1,0.4,1.8,1.1,2.1,2.1c0.2,0.5,0.3,1.1,0.3,1.6c0,0.6-0.1,1.1-0.3,1.6c-0.2,0.5-0.5,0.9-0.8,1.3
	c-0.4,0.4-0.8,0.6-1.3,0.8c-1.1,0.4-2.3,0.4-3.3,0c-0.5-0.2-0.9-0.5-1.3-0.8c-0.4-0.4-0.7-0.8-0.8-1.3c-0.2-0.5-0.3-1.1-0.3-1.6
	c0-0.6,0.1-1.1,0.3-1.6c0.2-0.5,0.5-0.9,0.8-1.3c0.4-0.4,0.8-0.6,1.3-0.8C231.2,38.9,232.4,38.9,233.5,39.3L233.5,39.3z M219.8,48
	c-0.2,0.6-0.6,1-1,1.4c-0.5,0.3-1,0.5-1.5,0.5c-0.3,0-0.7,0-1-0.2c-0.3-0.1-0.6-0.3-0.9-0.5l0.7-1.3c0.2,0.1,0.3,0.2,0.5,0.3
	c0.2,0.1,0.3,0.1,0.5,0.1c0.2,0,0.5-0.1,0.7-0.2c0.2-0.2,0.4-0.4,0.5-0.7l0.3-0.6l-3.3-7.8h1.8l2.3,6l2.2-6h1.7L219.8,48z
	 M212.3,45.3c0.4-0.2,0.7-0.5,0.8-0.9c0.2-0.4,0.3-0.9,0.3-1.4c0-0.3-0.1-0.7-0.2-1c-0.1-0.3-0.3-0.6-0.5-0.8
	c-0.2-0.2-0.5-0.4-0.8-0.5c-0.3-0.1-0.6-0.2-1-0.2c-0.4,0-0.9,0.1-1.2,0.3c-0.4,0.2-0.7,0.5-0.8,0.9c-0.2,0.4-0.3,0.9-0.3,1.3
	c0,0.5,0.1,0.9,0.3,1.3c0.2,0.4,0.5,0.7,0.8,0.9C210.6,45.7,211.5,45.7,212.3,45.3z M213,39.4c0.4,0.2,0.8,0.5,1.2,0.8
	c0.3,0.4,0.6,0.8,0.8,1.3c0.2,0.5,0.3,1.1,0.3,1.6c0,0.6-0.1,1.1-0.3,1.6c-0.2,0.5-0.4,0.9-0.8,1.3c-0.3,0.4-0.7,0.6-1.2,0.8
	c-0.5,0.2-1,0.3-1.5,0.3c-0.6,0-1.1-0.1-1.7-0.4c-0.5-0.2-0.9-0.6-1.2-1.1V47h-1.7V36h1.7v4.5c0.3-0.4,0.7-0.8,1.2-1.1
	c0.5-0.2,1.1-0.4,1.6-0.4C211.9,39.1,212.5,39.1,213,39.4L213,39.4z"/>
</svg>
